<?xml version="1.0" standalone="no"?>
<!DOCTYPE svg PUBLIC "-//W3C//DTD SVG 1.1//EN"
	"http://www.w3.org/Graphics/SVG/1.1/DTD/svg11.dtd">
<svg xmlns="http://www.w3.org/2000/svg" version="1.1"
	xmlns:xlink="http://www.w3.org/1999/xlink"
	color="black"
	width="701.60px" height="323.40px" viewBox="0 0 701.60 323.40" preserveAspectRatio="xMidYMid meet">
<style type="text/css">
.fill {fill: currentColor}
.stroke {stroke: currentColor; fill: none}
text{white-space: pre}
</style>
<title>/tmp/reharm_hymnal_L1/go_to_dark_gethsemane.abc (1) tune 1</title>
<!-- Creator: abcm2ps-8.14.11 -->
<!-- CreationDate: Apr 24, 2026 15:32 -->
<!-- CommandLine: /tmp/reharm_hymnal_L1/go_to_dark_gethsemane.abc -g -O /tmp/reharm_hymnal_L1/go_to_dark_gethsemane -->
<g stroke-width="0.70">
<!-- title: 073. Go To Dark Gethsemane -->
</g>
<g stroke-width="0.70" style="font:20.00px Times">
<text x="350.80" y="22.00" text-anchor="middle">073. Go To Dark Gethsemane</text>
</g>
<g stroke-width="0.70" style="font:20.00px Times">
<path class="stroke" stroke-width="1"
	d="M10.00 143.00v-82.00"/>
<defs>
<path id="brace" class="fill" d="m-2.5 101
	c-4.5 -4.6 -7.5 -12.2 -4.4 -26.8
	3.5 -14.3 3.2 -21.7 -2.1 -24.2
	7.4 2.4 7.3 14.2 3.5 29.5
	-2.7 9.5 -1.5 16.2 3 21.5
	M-2.5 1c-4.5 4.6 -7.5 12.2 -4.4 26.8
	c3.5 14.3 3.2 21.7 -2.1 24.2
	7.4 -2.4 7.3 -14.2 3.5 -29.5
	-2.7 -9.5 -1.5 -16.2 3 -21.5"/>
</defs>
<g transform="translate(10.00,61.00) scale(1,0.82)">
	<use xlink:href="#brace"/>
</g>
<path class="stroke" stroke-width="1"
	d="M184.10 85.00v-24.00"/>
<path class="stroke" stroke-width="1"
	d="M184.10 143.00v-24.00"/>
<path class="stroke" stroke-width="1"
	d="M278.50 85.00v-24.00"/>
<path class="stroke" stroke-width="1"
	d="M278.50 143.00v-24.00"/>
<path class="stroke" stroke-width="1"
	d="M390.10 85.00v-24.00"/>
<path class="stroke" stroke-width="1"
	d="M390.10 143.00v-24.00"/>
<path class="stroke" stroke-width="1"
	d="M485.00 85.00v-24.00"/>
<path class="stroke" stroke-width="1"
	d="M485.00 143.00v-24.00"/>
<path class="stroke" stroke-width="1"
	d="M596.70 85.00v-24.00"/>
<path class="stroke" stroke-width="1"
	d="M596.70 143.00v-24.00"/>
<path class="stroke" stroke-width="1"
	d="M691.60 85.00v-24.00"/>
<path class="stroke" stroke-width="1"
	d="M691.60 143.00v-24.00"/>
<path d="m10.00 85.00
	h681.60
	M10.00 79.00
	h681.60
	M10.00 73.00
	h681.60
	M10.00 67.00
	h681.60
	M10.00 61.00
	h681.60
	" class="stroke"/>
<path d="m10.00 143.00
	h681.60
	M10.00 137.00
	h681.60
	M10.00 131.00
	h681.60
	M10.00 125.00
	h681.60
	M10.00 119.00
	h681.60
	" class="stroke"/>
</g>
<g stroke-width="0.70" style="font:bold 13.00px Times">
<text x="95.70" y="56.40">I</text>
</g>
<g stroke-width="0.70" style="font:bold 13.00px Times">
<text x="203.40" y="48.40">IV</text>
</g>
<g stroke-width="0.70" style="font:bold 13.00px Times">
<text x="301.60" y="56.40">I</text>
</g>
<g stroke-width="0.70" style="font:bold 13.00px Times">
<text x="413.30" y="54.40">I</text>
</g>
<g stroke-width="0.70" style="font:bold 13.00px Times">
<text x="508.20" y="56.40">I</text>
</g>
<g stroke-width="0.70" style="font:bold 13.00px Times">
<text x="615.90" y="56.40">IV</text>
<defs>
<path id="utclef" class="fill" d="m-50 -90
	c-72 -41 -72 -158 52 -188
	150 -10 220 188 90 256
	-114 52 -275 0 -293 -136
	-15 -181 93 -229 220 -334
	88 -87 79 -133 62 -210
	-51 33 -94 105 -89 186
	17 267 36 374 49 574
	6 96 -19 134 -77 135
	-80 1 -126 -93 -61 -133
	85 -41 133 101 31 105
	23 17 92 37 90 -92
	-10 -223 -39 -342 -50 -617
	0 -90 0 -162 96 -232
	56 72 63 230 22 289
	-74 106 -257 168 -255 316
	9 153 148 185 252 133
	86 -65 29 -192 -80 -176
	-71 12 -105 67 -59 124"/>
<use id="tclef" transform="translate(0,6) scale(0.045)"
	xlink:href="#utclef"/>
</defs>
<use x="22.00" y="79.00" xlink:href="#tclef"/>
<defs>
<path id="uflat" class="fill" d="
	m100 -746
	h32
	v734
	l-32 4
	m32 -332
	c46 -72 152 -90 208 -20
	100 110 -120 326 -208 348
	m0 -28
	c54 0 200 -206 130 -290
	-50 -60 -130 -4 -130 34"/>
<use id="ft0" transform="translate(-3.5,3.5) scale(0.018)"
	xlink:href="#uflat"/>
</defs>
<use x="37.00" y="73.00" xlink:href="#ft0"/>
<use x="42.50" y="64.00" xlink:href="#ft0"/>
<use x="48.00" y="76.00" xlink:href="#ft0"/>
<g style="font:bold 16px serif"
	transform="translate(64.00,84.50) scale(1.2,1)">
	<text text-anchor="middle">4</text>
	<text y="-12" text-anchor="middle">4</text>
</g>
<defs>
<ellipse id="hd" rx="4.1" ry="2.9"
	transform="rotate(-20)" class="fill"/>
</defs>
<use x="97.50" y="85.00" xlink:href="#hd"/>
<path d="M101.00 85.00v-21.00" class="stroke"/>
<use x="120.50" y="85.00" xlink:href="#hd"/>
<path d="M124.00 85.00v-21.00" class="stroke"/>
<use x="143.60" y="82.00" xlink:href="#hd"/>
<path d="M147.10 82.00v-21.00" class="stroke"/>
<use x="166.60" y="79.00" xlink:href="#hd"/>
<path d="M170.10 79.00v-21.00" class="stroke"/>
<use x="209.10" y="76.00" xlink:href="#hd"/>
<circle class="fill" cx="216.80" cy="76.00" r="1.2"/>
<path d="M212.60 76.00v-21.00" class="stroke"/>
<use x="236.80" y="76.00" xlink:href="#hd"/>
<path d="M240.30 76.00v-21.00" class="stroke"/>
<path class="fill"
	d="M240.30 55.00c0.6 5.6 9.6 9 5.6 18.4
	1.6 -6 -1.3 -11.6 -5.6 -12.8
"/>
<defs>
<path id="Hd" class="fill" d="m3 -1.6
	c-1 -1.8 -7 1.4 -6 3.2
	1 1.8 7 -1.4 6 -3.2
	m0.5 -0.3
	c2 3.8 -5 7.6 -7 3.8
	-2 -3.8 5 -7.6 7 -3.8"/>
</defs>
<use x="254.70" y="79.00" xlink:href="#Hd"/>
<path d="M258.20 79.00v-21.00" class="stroke"/>
<use x="303.50" y="85.00" xlink:href="#hd"/>
<path d="M307.00 85.00v-21.00" class="stroke"/>
<use x="326.50" y="85.00" xlink:href="#hd"/>
<path d="M330.00 85.00v-21.00" class="stroke"/>
<use x="349.60" y="82.00" xlink:href="#hd"/>
<path d="M353.10 82.00v-21.00" class="stroke"/>
<use x="372.60" y="79.00" xlink:href="#hd"/>
<path d="M376.10 79.00v-21.00" class="stroke"/>
<use x="415.10" y="82.00" xlink:href="#hd"/>
<path d="M418.60 82.00v-21.00" class="stroke"/>
<use x="438.10" y="82.00" xlink:href="#hd"/>
<path d="M441.60 82.00v-21.00" class="stroke"/>
<use x="461.30" y="85.00" xlink:href="#Hd"/>
<path d="M464.80 85.00v-21.00" class="stroke"/>
<use x="510.00" y="85.00" xlink:href="#hd"/>
<path d="M513.50 85.00v-21.00" class="stroke"/>
<use x="533.10" y="79.00" xlink:href="#hd"/>
<path d="M536.60 79.00v-21.00" class="stroke"/>
<use x="556.10" y="73.00" xlink:href="#hd"/>
<path d="M559.60 73.00v-21.00" class="stroke"/>
<use x="579.20" y="73.00" xlink:href="#hd"/>
<path d="M582.70 73.00v-21.00" class="stroke"/>
<use x="621.70" y="70.00" xlink:href="#hd"/>
<path d="M618.20 70.00v21.00" class="stroke"/>
<use x="644.70" y="70.00" xlink:href="#hd"/>
<path d="M641.20 70.00v21.00" class="stroke"/>
<use x="667.90" y="73.00" xlink:href="#Hd"/>
<path d="M664.40 73.00v21.00" class="stroke"/>
<defs>
<path id="ubclef" class="fill" d="m-200 -87
	c124 -35 222 -78 254 -236
	43 -228 -167 -246 -192 -103
	59 -80 157 22 92 78
	-62 47 -115 -22 -106 -88
	21 -141 270 -136 274 52
	-1 175 -106 264 -322 297
	m357 -250
	c0 -36 51 -34 51 0
	0 37 -51 36 -51 0
	m-2 -129
	c0 -36 51 -34 51 0
	0 38 -51 37 -51 0"/>
<use id="bclef" transform="translate(0,18) scale(0.045)"
	xlink:href="#ubclef"/>
</defs>
<use x="22.00" y="125.00" xlink:href="#bclef"/>
<use x="37.00" y="137.00" xlink:href="#ft0"/>
<use x="42.50" y="128.00" xlink:href="#ft0"/>
<use x="48.00" y="140.00" xlink:href="#ft0"/>
<g style="font:bold 16px serif"
	transform="translate(64.00,142.50) scale(1.2,1)">
	<text text-anchor="middle">4</text>
	<text y="-12" text-anchor="middle">4</text>
</g>
<defs>
<path id="hl1" class="stroke" d="m-7 0h14"/>
</defs>
<use x="98.50" y="149.00" xlink:href="#hl1"/>
<use x="98.50" y="155.00" xlink:href="#hl1"/>
<use x="98.50" y="161.00" xlink:href="#hl1"/>
<use x="98.50" y="167.00" xlink:href="#hl1"/>
<defs>
<path id="HD" class="fill" d="m-2.7 -1.4
	c1.5 -2.8 6.9 0 5.3 2.7
	-1.5 2.8 -6.9 0 -5.3 -2.7
	m8.3 1.4
	c0 -1.5 -2.2 -3 -5.6 -3
	-3.4 0 -5.6 1.5 -5.6 3
	0 1.5 2.2 3 5.6 3
	3.4 0 5.6 -1.5 5.6 -3"/>
</defs>
<use x="98.50" y="170.00" xlink:href="#HD"/>
<use x="98.50" y="149.00" xlink:href="#HD"/>
<use x="98.50" y="143.00" xlink:href="#HD"/>
<use x="98.50" y="137.00" xlink:href="#HD"/>
<use x="210.10" y="149.00" xlink:href="#hl1"/>
<use x="210.10" y="155.00" xlink:href="#hl1"/>
<use x="210.10" y="161.00" xlink:href="#hl1"/>
<use x="210.10" y="161.00" xlink:href="#HD"/>
<use x="210.10" y="140.00" xlink:href="#HD"/>
<use x="210.10" y="134.00" xlink:href="#HD"/>
<use x="210.10" y="128.00" xlink:href="#HD"/>
<use x="304.50" y="149.00" xlink:href="#hl1"/>
<use x="304.50" y="155.00" xlink:href="#hl1"/>
<use x="304.50" y="161.00" xlink:href="#hl1"/>
<use x="304.50" y="167.00" xlink:href="#hl1"/>
<use x="304.50" y="170.00" xlink:href="#HD"/>
<use x="304.50" y="149.00" xlink:href="#HD"/>
<use x="304.50" y="143.00" xlink:href="#HD"/>
<use x="304.50" y="137.00" xlink:href="#HD"/>
<use x="416.10" y="149.00" xlink:href="#hl1"/>
<use x="416.10" y="155.00" xlink:href="#hl1"/>
<use x="416.10" y="161.00" xlink:href="#hl1"/>
<use x="416.10" y="167.00" xlink:href="#hl1"/>
<use x="416.10" y="170.00" xlink:href="#HD"/>
<use x="416.10" y="149.00" xlink:href="#HD"/>
<use x="416.10" y="143.00" xlink:href="#HD"/>
<use x="416.10" y="137.00" xlink:href="#HD"/>
<use x="511.00" y="149.00" xlink:href="#hl1"/>
<use x="511.00" y="155.00" xlink:href="#hl1"/>
<use x="511.00" y="161.00" xlink:href="#hl1"/>
<use x="511.00" y="167.00" xlink:href="#hl1"/>
<use x="511.00" y="170.00" xlink:href="#HD"/>
<use x="511.00" y="149.00" xlink:href="#HD"/>
<use x="511.00" y="143.00" xlink:href="#HD"/>
<use x="511.00" y="137.00" xlink:href="#HD"/>
<use x="622.70" y="149.00" xlink:href="#hl1"/>
<use x="622.70" y="155.00" xlink:href="#hl1"/>
<use x="622.70" y="161.00" xlink:href="#hl1"/>
<use x="622.70" y="161.00" xlink:href="#HD"/>
<use x="622.70" y="140.00" xlink:href="#HD"/>
<use x="622.70" y="134.00" xlink:href="#HD"/>
<use x="622.70" y="128.00" xlink:href="#HD"/>
<defs>
<path id="ltr" class="fill"
    d="m0 -0.4c2 -1.5 3.4 -1.9 3.9 0.4
	c0.2 0.8 0.7 0.7 2.1 -0.4
	v0.8c-2 1.5 -3.4 1.9 -3.9 -0.4
	c-0.2 -0.8 -0.7 -0.7 -2.1 0.4z"/>
</defs>
<g transform="rotate(270)">
<use x="-173.00" y="85.00" xlink:href="#ltr"/>
<use x="-167.00" y="85.00" xlink:href="#ltr"/>
<use x="-161.00" y="85.00" xlink:href="#ltr"/>
<use x="-155.00" y="85.00" xlink:href="#ltr"/>
<use x="-149.00" y="85.00" xlink:href="#ltr"/>
<use x="-143.00" y="85.00" xlink:href="#ltr"/>
<use x="-137.00" y="85.00" xlink:href="#ltr"/>
</g>
<g transform="rotate(270)">
<use x="-164.00" y="196.60" xlink:href="#ltr"/>
<use x="-158.00" y="196.60" xlink:href="#ltr"/>
<use x="-152.00" y="196.60" xlink:href="#ltr"/>
<use x="-146.00" y="196.60" xlink:href="#ltr"/>
<use x="-140.00" y="196.60" xlink:href="#ltr"/>
<use x="-134.00" y="196.60" xlink:href="#ltr"/>
<use x="-128.00" y="196.60" xlink:href="#ltr"/>
</g>
<g transform="rotate(270)">
<use x="-173.00" y="291.00" xlink:href="#ltr"/>
<use x="-167.00" y="291.00" xlink:href="#ltr"/>
<use x="-161.00" y="291.00" xlink:href="#ltr"/>
<use x="-155.00" y="291.00" xlink:href="#ltr"/>
<use x="-149.00" y="291.00" xlink:href="#ltr"/>
<use x="-143.00" y="291.00" xlink:href="#ltr"/>
<use x="-137.00" y="291.00" xlink:href="#ltr"/>
</g>
<g transform="rotate(270)">
<use x="-173.00" y="402.60" xlink:href="#ltr"/>
<use x="-167.00" y="402.60" xlink:href="#ltr"/>
<use x="-161.00" y="402.60" xlink:href="#ltr"/>
<use x="-155.00" y="402.60" xlink:href="#ltr"/>
<use x="-149.00" y="402.60" xlink:href="#ltr"/>
<use x="-143.00" y="402.60" xlink:href="#ltr"/>
<use x="-137.00" y="402.60" xlink:href="#ltr"/>
</g>
<g transform="rotate(270)">
<use x="-173.00" y="497.50" xlink:href="#ltr"/>
<use x="-167.00" y="497.50" xlink:href="#ltr"/>
<use x="-161.00" y="497.50" xlink:href="#ltr"/>
<use x="-155.00" y="497.50" xlink:href="#ltr"/>
<use x="-149.00" y="497.50" xlink:href="#ltr"/>
<use x="-143.00" y="497.50" xlink:href="#ltr"/>
<use x="-137.00" y="497.50" xlink:href="#ltr"/>
</g>
<g transform="rotate(270)">
<use x="-164.00" y="609.20" xlink:href="#ltr"/>
<use x="-158.00" y="609.20" xlink:href="#ltr"/>
<use x="-152.00" y="609.20" xlink:href="#ltr"/>
<use x="-146.00" y="609.20" xlink:href="#ltr"/>
<use x="-140.00" y="609.20" xlink:href="#ltr"/>
<use x="-134.00" y="609.20" xlink:href="#ltr"/>
<use x="-128.00" y="609.20" xlink:href="#ltr"/>
</g>
</g>
<g stroke-width="0.70" style="font:bold 13.00px Times">
<path class="stroke" stroke-width="1"
	d="M10.00 290.40v-82.00"/>
<g transform="translate(10.00,208.40) scale(1,0.82)">
	<use xlink:href="#brace"/>
</g>
<path class="stroke" stroke-width="1"
	d="M172.60 232.40v-24.00"/>
<path class="stroke" stroke-width="1"
	d="M172.60 290.40v-24.00"/>
<path class="stroke" stroke-width="1"
	d="M276.50 232.40v-24.00"/>
<path class="stroke" stroke-width="1"
	d="M276.50 290.40v-24.00"/>
<path class="stroke" stroke-width="1"
	d="M392.60 232.40v-24.00"/>
<path class="stroke" stroke-width="1"
	d="M392.60 290.40v-24.00"/>
<path class="stroke" stroke-width="1"
	d="M489.50 232.40v-24.00"/>
<path class="stroke" stroke-width="1"
	d="M489.50 290.40v-24.00"/>
<path class="stroke" stroke-width="1"
	d="M593.10 232.40v-24.00"/>
<path class="stroke" stroke-width="1"
	d="M593.10 290.40v-24.00"/>
<path class="stroke" stroke-width="1"
	d="M691.60 232.40v-24.00"/>
<path class="stroke" stroke-width="1"
	d="M691.60 290.40v-24.00"/>
<path d="m10.00 232.40
	h681.60
	M10.00 226.40
	h681.60
	M10.00 220.40
	h681.60
	M10.00 214.40
	h681.60
	M10.00 208.40
	h681.60
	" class="stroke"/>
<path d="m10.00 290.40
	h681.60
	M10.00 284.40
	h681.60
	M10.00 278.40
	h681.60
	M10.00 272.40
	h681.60
	M10.00 266.40
	h681.60
	" class="stroke"/>
</g>
<g stroke-width="0.70" style="font:bold 13.00px Times">
<text x="77.70" y="203.80">I<tspan
	 style="font:italic 11.00px Times">¹</tspan></text>
</g>
<g stroke-width="0.70" style="font:bold 13.00px Times">
<text x="181.10" y="201.80">V</text>
</g>
<g stroke-width="0.70" style="font:bold 13.00px Times">
<text x="297.80" y="203.80">I<tspan
	 style="font:italic 11.00px Times">¹</tspan></text>
</g>
<g stroke-width="0.70" style="font:bold 13.00px Times">
<text x="411.80" y="195.80">IV</text>
</g>
<g stroke-width="0.70" style="font:bold 13.00px Times">
<text x="498.20" y="203.80">I<tspan
	 style="font:italic 11.00px Times">¹</tspan></text>
</g>
<g stroke-width="0.70" style="font:bold 13.00px Times">
<text x="614.10" y="185.80">V</text>
<use x="22.00" y="226.40" xlink:href="#tclef"/>
<use x="37.00" y="220.40" xlink:href="#ft0"/>
<use x="42.50" y="211.40" xlink:href="#ft0"/>
<use x="48.00" y="223.40" xlink:href="#ft0"/>
<use x="81.50" y="232.40" xlink:href="#hd"/>
<path d="M85.00 232.40v-21.00" class="stroke"/>
<use x="105.80" y="226.40" xlink:href="#hd"/>
<path d="M109.30 226.40v-21.00" class="stroke"/>
<use x="130.20" y="220.40" xlink:href="#hd"/>
<path d="M133.70 220.40v-21.00" class="stroke"/>
<use x="154.50" y="220.40" xlink:href="#hd"/>
<path d="M158.00 220.40v-21.00" class="stroke"/>
<use x="185.10" y="217.40" xlink:href="#hd"/>
<path d="M181.60 217.40v21.00" class="stroke"/>
<use x="209.40" y="217.40" xlink:href="#hd"/>
<path d="M205.90 217.40v21.00" class="stroke"/>
<use x="234.10" y="220.40" xlink:href="#Hd"/>
<path d="M230.60 220.40v21.00" class="stroke"/>
<use x="301.50" y="232.40" xlink:href="#hd"/>
<path d="M305.00 232.40v-21.00" class="stroke"/>
<use x="325.90" y="232.40" xlink:href="#hd"/>
<path d="M329.40 232.40v-21.00" class="stroke"/>
<use x="350.20" y="229.40" xlink:href="#hd"/>
<path d="M353.70 229.40v-21.00" class="stroke"/>
<use x="374.60" y="226.40" xlink:href="#hd"/>
<path d="M378.10 226.40v-21.00" class="stroke"/>
<use x="417.60" y="223.40" xlink:href="#hd"/>
<circle class="fill" cx="425.30" cy="223.40" r="1.2"/>
<path d="M421.10 223.40v-21.00" class="stroke"/>
<use x="446.30" y="223.40" xlink:href="#hd"/>
<path d="M449.80 223.40v-21.00" class="stroke"/>
<path class="fill"
	d="M449.80 202.40c0.6 5.6 9.6 9 5.6 18.4
	1.6 -6 -1.3 -11.6 -5.6 -12.8
"/>
<use x="464.70" y="226.40" xlink:href="#Hd"/>
<path d="M468.20 226.40v-21.00" class="stroke"/>
<use x="502.00" y="232.40" xlink:href="#hd"/>
<path d="M505.50 232.40v-21.00" class="stroke"/>
<use x="526.30" y="229.40" xlink:href="#hd"/>
<path d="M529.80 229.40v-21.00" class="stroke"/>
<use x="550.70" y="226.40" xlink:href="#hd"/>
<path d="M554.20 226.40v-21.00" class="stroke"/>
<use x="575.00" y="229.40" xlink:href="#hd"/>
<path d="M578.50 229.40v-21.00" class="stroke"/>
<use x="618.10" y="232.40" xlink:href="#hd"/>
<path d="M621.60 232.40v-40.00" class="stroke"/>
<use x="618.10" y="211.40" xlink:href="#hd"/>
<use x="642.40" y="235.40" xlink:href="#hd"/>
<path d="M645.90 235.40v-40.00" class="stroke"/>
<use x="642.40" y="214.40" xlink:href="#hd"/>
<use x="666.80" y="232.40" xlink:href="#Hd"/>
<path d="M670.30 232.40v-40.00" class="stroke"/>
<use x="666.80" y="211.40" xlink:href="#Hd"/>
<use x="22.00" y="272.40" xlink:href="#bclef"/>
<use x="37.00" y="284.40" xlink:href="#ft0"/>
<use x="42.50" y="275.40" xlink:href="#ft0"/>
<use x="48.00" y="287.40" xlink:href="#ft0"/>
<use x="82.50" y="296.40" xlink:href="#hl1"/>
<use x="82.50" y="302.40" xlink:href="#hl1"/>
<use x="82.50" y="308.40" xlink:href="#hl1"/>
<use x="82.50" y="314.40" xlink:href="#hl1"/>
<use x="82.50" y="317.40" xlink:href="#HD"/>
<use x="82.50" y="296.40" xlink:href="#HD"/>
<use x="82.50" y="290.40" xlink:href="#HD"/>
<use x="82.50" y="284.40" xlink:href="#HD"/>
<use x="185.10" y="284.40" xlink:href="#hd"/>
<path d="M188.60 284.40v-21.00" class="stroke"/>
<use x="209.40" y="278.40" xlink:href="#hd"/>
<path d="M212.90 278.40v-21.00" class="stroke"/>
<use x="234.10" y="272.40" xlink:href="#hd"/>
<path d="M230.60 272.40v21.00" class="stroke"/>
<use x="258.50" y="278.40" xlink:href="#hd"/>
<path d="M255.00 278.40v21.00" class="stroke"/>
<use x="302.50" y="296.40" xlink:href="#hl1"/>
<use x="302.50" y="302.40" xlink:href="#hl1"/>
<use x="302.50" y="308.40" xlink:href="#hl1"/>
<use x="302.50" y="314.40" xlink:href="#hl1"/>
<use x="302.50" y="317.40" xlink:href="#HD"/>
<use x="302.50" y="296.40" xlink:href="#HD"/>
<use x="302.50" y="290.40" xlink:href="#HD"/>
<use x="302.50" y="284.40" xlink:href="#HD"/>
<use x="418.60" y="296.40" xlink:href="#hl1"/>
<use x="418.60" y="302.40" xlink:href="#hl1"/>
<use x="418.60" y="308.40" xlink:href="#hl1"/>
<use x="418.60" y="308.40" xlink:href="#HD"/>
<use x="418.60" y="287.40" xlink:href="#HD"/>
<use x="418.60" y="281.40" xlink:href="#HD"/>
<use x="418.60" y="275.40" xlink:href="#HD"/>
<defs>
<path id="hl" class="stroke" d="m-6 0h12"/>
</defs>
<use x="502.00" y="296.40" xlink:href="#hl"/>
<use x="502.00" y="296.40" xlink:href="#hd"/>
<path d="M505.50 296.40v-21.00" class="stroke"/>
<use x="526.30" y="290.40" xlink:href="#hd"/>
<path d="M529.80 290.40v-21.00" class="stroke"/>
<use x="550.70" y="284.40" xlink:href="#hd"/>
<path d="M554.20 284.40v-21.00" class="stroke"/>
<use x="575.00" y="290.40" xlink:href="#hd"/>
<path d="M578.50 290.40v-21.00" class="stroke"/>
<use x="619.10" y="296.40" xlink:href="#hl1"/>
<use x="619.10" y="302.40" xlink:href="#hl1"/>
<use x="619.10" y="305.40" xlink:href="#HD"/>
<use x="619.10" y="284.40" xlink:href="#HD"/>
<use x="619.10" y="278.40" xlink:href="#HD"/>
<use x="619.10" y="272.40" xlink:href="#HD"/>
<g transform="rotate(270)">
<use x="-320.40" y="69.00" xlink:href="#ltr"/>
<use x="-314.40" y="69.00" xlink:href="#ltr"/>
<use x="-308.40" y="69.00" xlink:href="#ltr"/>
<use x="-302.40" y="69.00" xlink:href="#ltr"/>
<use x="-296.40" y="69.00" xlink:href="#ltr"/>
<use x="-290.40" y="69.00" xlink:href="#ltr"/>
<use x="-284.40" y="69.00" xlink:href="#ltr"/>
</g>
<g transform="rotate(270)">
<use x="-320.40" y="289.00" xlink:href="#ltr"/>
<use x="-314.40" y="289.00" xlink:href="#ltr"/>
<use x="-308.40" y="289.00" xlink:href="#ltr"/>
<use x="-302.40" y="289.00" xlink:href="#ltr"/>
<use x="-296.40" y="289.00" xlink:href="#ltr"/>
<use x="-290.40" y="289.00" xlink:href="#ltr"/>
<use x="-284.40" y="289.00" xlink:href="#ltr"/>
</g>
<g transform="rotate(270)">
<use x="-311.40" y="405.10" xlink:href="#ltr"/>
<use x="-305.40" y="405.10" xlink:href="#ltr"/>
<use x="-299.40" y="405.10" xlink:href="#ltr"/>
<use x="-293.40" y="405.10" xlink:href="#ltr"/>
<use x="-287.40" y="405.10" xlink:href="#ltr"/>
<use x="-281.40" y="405.10" xlink:href="#ltr"/>
<use x="-275.40" y="405.10" xlink:href="#ltr"/>
</g>
<g transform="rotate(270)">
<use x="-308.40" y="605.60" xlink:href="#ltr"/>
<use x="-302.40" y="605.60" xlink:href="#ltr"/>
<use x="-296.40" y="605.60" xlink:href="#ltr"/>
<use x="-290.40" y="605.60" xlink:href="#ltr"/>
<use x="-284.40" y="605.60" xlink:href="#ltr"/>
<use x="-278.40" y="605.60" xlink:href="#ltr"/>
<use x="-272.40" y="605.60" xlink:href="#ltr"/>
</g>
</g>
</svg>
