<?xml version="1.0" standalone="no"?>
<!DOCTYPE svg PUBLIC "-//W3C//DTD SVG 1.1//EN"
	"http://www.w3.org/Graphics/SVG/1.1/DTD/svg11.dtd">
<svg xmlns="http://www.w3.org/2000/svg" version="1.1"
	xmlns:xlink="http://www.w3.org/1999/xlink"
	color="black"
	width="701.60px" height="306.80px" viewBox="0 0 701.60 306.80" preserveAspectRatio="xMidYMid meet">
<style type="text/css">
.fill {fill: currentColor}
.stroke {stroke: currentColor; fill: none}
text{white-space: pre}
</style>
<title>/tmp/reharm_hymnal_L1/lamp_of_our_feet.abc (1) tune 1</title>
<!-- Creator: abcm2ps-8.14.11 -->
<!-- CreationDate: Apr 24, 2026 15:32 -->
<!-- CommandLine: /tmp/reharm_hymnal_L1/lamp_of_our_feet.abc -g -O /tmp/reharm_hymnal_L1/lamp_of_our_feet -->
<g stroke-width="0.70">
<!-- title: 134. Lamp of Our Feet -->
</g>
<g stroke-width="0.70" style="font:20.00px Times">
<text x="350.80" y="22.00" text-anchor="middle">134. Lamp of Our Feet</text>
</g>
<g stroke-width="0.70" style="font:20.00px Times">
<path class="stroke" stroke-width="1"
	d="M10.00 145.40v-82.00"/>
<defs>
<path id="brace" class="fill" d="m-2.5 101
	c-4.5 -4.6 -7.5 -12.2 -4.4 -26.8
	3.5 -14.3 3.2 -21.7 -2.1 -24.2
	7.4 2.4 7.3 14.2 3.5 29.5
	-2.7 9.5 -1.5 16.2 3 21.5
	M-2.5 1c-4.5 4.6 -7.5 12.2 -4.4 26.8
	c3.5 14.3 3.2 21.7 -2.1 24.2
	7.4 -2.4 7.3 -14.2 3.5 -29.5
	-2.7 -9.5 -1.5 -16.2 3 -21.5"/>
</defs>
<g transform="translate(10.00,63.40) scale(1,0.82)">
	<use xlink:href="#brace"/>
</g>
<path class="stroke" stroke-width="1"
	d="M164.10 87.40v-24.00"/>
<path class="stroke" stroke-width="1"
	d="M164.10 145.40v-24.00"/>
<path class="stroke" stroke-width="1"
	d="M256.00 87.40v-24.00"/>
<path class="stroke" stroke-width="1"
	d="M256.00 145.40v-24.00"/>
<path class="stroke" stroke-width="1"
	d="M347.80 87.40v-24.00"/>
<path class="stroke" stroke-width="1"
	d="M347.80 145.40v-24.00"/>
<path class="stroke" stroke-width="1"
	d="M405.50 87.40v-24.00"/>
<path class="stroke" stroke-width="1"
	d="M405.50 145.40v-24.00"/>
<path class="stroke" stroke-width="1"
	d="M508.10 87.40v-24.00"/>
<path class="stroke" stroke-width="1"
	d="M508.10 145.40v-24.00"/>
<path class="stroke" stroke-width="1"
	d="M599.70 87.40v-24.00"/>
<path class="stroke" stroke-width="1"
	d="M599.70 145.40v-24.00"/>
<path class="stroke" stroke-width="1"
	d="M691.60 87.40v-24.00"/>
<path class="stroke" stroke-width="1"
	d="M691.60 145.40v-24.00"/>
<path d="m10.00 87.40
	h681.60
	M10.00 81.40
	h681.60
	M10.00 75.40
	h681.60
	M10.00 69.40
	h681.60
	M10.00 63.40
	h681.60
	" class="stroke"/>
<path d="m10.00 145.40
	h681.60
	M10.00 139.40
	h681.60
	M10.00 133.40
	h681.60
	M10.00 127.40
	h681.60
	M10.00 121.40
	h681.60
	" class="stroke"/>
</g>
<g stroke-width="0.70" style="font:bold 13.00px Times">
<text x="83.70" y="58.80">I</text>
</g>
<g stroke-width="0.70" style="font:bold 13.00px Times">
<text x="172.10" y="50.80">ii<tspan
	 style="font:italic 11.00px Times">¹</tspan></text>
</g>
<g stroke-width="0.70" style="font:bold 13.00px Times">
<text x="265.90" y="58.80">ii</text>
</g>
<g stroke-width="0.70" style="font:bold 13.00px Times">
<text x="370.00" y="53.80">I</text>
</g>
<g stroke-width="0.70" style="font:bold 13.00px Times">
<text x="423.60" y="58.80">V<tspan
	 style="font:italic 11.00px Times">²</tspan></text>
</g>
<g stroke-width="0.70" style="font:bold 13.00px Times">
<text x="519.30" y="47.80">I</text>
</g>
<g stroke-width="0.70" style="font:bold 13.00px Times">
<text x="608.80" y="50.80">V</text>
<defs>
<path id="utclef" class="fill" d="m-50 -90
	c-72 -41 -72 -158 52 -188
	150 -10 220 188 90 256
	-114 52 -275 0 -293 -136
	-15 -181 93 -229 220 -334
	88 -87 79 -133 62 -210
	-51 33 -94 105 -89 186
	17 267 36 374 49 574
	6 96 -19 134 -77 135
	-80 1 -126 -93 -61 -133
	85 -41 133 101 31 105
	23 17 92 37 90 -92
	-10 -223 -39 -342 -50 -617
	0 -90 0 -162 96 -232
	56 72 63 230 22 289
	-74 106 -257 168 -255 316
	9 153 148 185 252 133
	86 -65 29 -192 -80 -176
	-71 12 -105 67 -59 124"/>
<use id="tclef" transform="translate(0,6) scale(0.045)"
	xlink:href="#utclef"/>
</defs>
<use x="22.00" y="81.40" xlink:href="#tclef"/>
<defs>
<path id="usharp" class="fill" d="
	m136 -702
	v890
	h32
	v-890
	m128 840
	h32
	v-888
	h-32
	m-232 286
	v116
	l338 -96
	v-116
	m-338 442
	v116
	l338 -98
	v-114"/>
<use id="sh0" transform="translate(-4,5) scale(0.018)"
	xlink:href="#usharp"/>
</defs>
<use x="37.00" y="63.40" xlink:href="#sh0"/>
<g style="font:bold 16px serif"
	transform="translate(53.00,86.90) scale(1.2,1)">
	<text text-anchor="middle">4</text>
	<text y="-12" text-anchor="middle">3</text>
</g>
<defs>
<ellipse id="hd" rx="4.1" ry="2.9"
	transform="rotate(-20)" class="fill"/>
</defs>
<use x="85.50" y="75.40" xlink:href="#hd"/>
<path d="M82.00 75.40v21.00" class="stroke"/>
<use x="114.40" y="75.40" xlink:href="#hd"/>
<path d="M110.90 75.40v21.00" class="stroke"/>
<use x="143.20" y="75.40" xlink:href="#hd"/>
<path d="M139.70 75.40v21.00" class="stroke"/>
<defs>
<path id="Hd" class="fill" d="m3 -1.6
	c-1 -1.8 -7 1.4 -6 3.2
	1 1.8 7 -1.4 6 -3.2
	m0.5 -0.3
	c2 3.8 -5 7.6 -7 3.8
	-2 -3.8 5 -7.6 7 -3.8"/>
</defs>
<use x="177.10" y="78.40" xlink:href="#Hd"/>
<path d="M180.60 78.40v-21.00" class="stroke"/>
<use x="235.10" y="75.40" xlink:href="#hd"/>
<path d="M238.60 75.40v-21.00" class="stroke"/>
<use x="269.00" y="72.40" xlink:href="#Hd"/>
<path d="M265.50 72.40v21.00" class="stroke"/>
<use x="327.00" y="84.40" xlink:href="#hd"/>
<path d="M330.50 84.40v-21.00" class="stroke"/>
<use x="371.80" y="81.40" xlink:href="#Hd"/>
<circle class="fill" cx="380.50" cy="78.40" r="1.2"/>
<path d="M375.30 81.40v-21.00" class="stroke"/>
<use x="429.50" y="90.40" xlink:href="#hd"/>
<path d="M433.00 90.40v-21.00" class="stroke"/>
<use x="458.40" y="90.40" xlink:href="#hd"/>
<path d="M461.90 90.40v-21.00" class="stroke"/>
<use x="487.30" y="90.40" xlink:href="#hd"/>
<path d="M490.80 90.40v-21.00" class="stroke"/>
<use x="521.10" y="75.40" xlink:href="#Hd"/>
<path d="M524.60 75.40v-21.00" class="stroke"/>
<use x="578.90" y="78.40" xlink:href="#hd"/>
<path d="M582.40 78.40v-21.00" class="stroke"/>
<use x="612.70" y="78.40" xlink:href="#Hd"/>
<circle class="fill" cx="621.40" cy="78.40" r="1.2"/>
<path d="M616.20 78.40v-21.00" class="stroke"/>
<defs>
<path id="ubclef" class="fill" d="m-200 -87
	c124 -35 222 -78 254 -236
	43 -228 -167 -246 -192 -103
	59 -80 157 22 92 78
	-62 47 -115 -22 -106 -88
	21 -141 270 -136 274 52
	-1 175 -106 264 -322 297
	m357 -250
	c0 -36 51 -34 51 0
	0 37 -51 36 -51 0
	m-2 -129
	c0 -36 51 -34 51 0
	0 38 -51 37 -51 0"/>
<use id="bclef" transform="translate(0,18) scale(0.045)"
	xlink:href="#ubclef"/>
</defs>
<use x="22.00" y="127.40" xlink:href="#bclef"/>
<use x="37.00" y="127.40" xlink:href="#sh0"/>
<g style="font:bold 16px serif"
	transform="translate(53.00,144.90) scale(1.2,1)">
	<text text-anchor="middle">4</text>
	<text y="-12" text-anchor="middle">3</text>
</g>
<defs>
<path id="hl" class="stroke" d="m-6 0h12"/>
</defs>
<use x="85.50" y="151.40" xlink:href="#hl"/>
<use x="85.50" y="157.40" xlink:href="#hl"/>
<use x="85.50" y="163.40" xlink:href="#hl"/>
<use x="85.50" y="166.40" xlink:href="#Hd"/>
<circle class="fill" cx="95.20" cy="166.40" r="1.2"/>
<path d="M89.00 166.40v-52.00" class="stroke"/>
<use x="85.50" y="145.40" xlink:href="#Hd"/>
<circle class="fill" cx="95.20" cy="142.40" r="1.2"/>
<use x="85.50" y="139.40" xlink:href="#Hd"/>
<circle class="fill" cx="95.20" cy="136.40" r="1.2"/>
<use x="85.50" y="133.40" xlink:href="#Hd"/>
<circle class="fill" cx="95.20" cy="130.40" r="1.2"/>
<use x="177.10" y="142.40" xlink:href="#hd"/>
<path d="M180.60 142.40v-21.00" class="stroke"/>
<use x="206.00" y="136.40" xlink:href="#hd"/>
<path d="M209.50 136.40v-21.00" class="stroke"/>
<use x="235.10" y="130.40" xlink:href="#hd"/>
<path d="M231.60 130.40v21.00" class="stroke"/>
<use x="269.00" y="142.40" xlink:href="#hd"/>
<path d="M272.50 142.40v-21.00" class="stroke"/>
<use x="297.80" y="136.40" xlink:href="#hd"/>
<path d="M301.30 136.40v-21.00" class="stroke"/>
<use x="327.00" y="130.40" xlink:href="#hd"/>
<path d="M323.50 130.40v21.00" class="stroke"/>
<use x="371.80" y="151.40" xlink:href="#hl"/>
<use x="371.80" y="157.40" xlink:href="#hl"/>
<use x="371.80" y="163.40" xlink:href="#hl"/>
<use x="371.80" y="166.40" xlink:href="#Hd"/>
<circle class="fill" cx="380.50" cy="166.40" r="1.2"/>
<path d="M375.30 166.40v-52.00" class="stroke"/>
<use x="371.80" y="145.40" xlink:href="#Hd"/>
<circle class="fill" cx="380.50" cy="142.40" r="1.2"/>
<use x="371.80" y="139.40" xlink:href="#Hd"/>
<circle class="fill" cx="380.50" cy="136.40" r="1.2"/>
<use x="371.80" y="133.40" xlink:href="#Hd"/>
<circle class="fill" cx="380.50" cy="130.40" r="1.2"/>
<use x="429.50" y="151.40" xlink:href="#hl"/>
<use x="429.50" y="154.40" xlink:href="#Hd"/>
<circle class="fill" cx="438.20" cy="154.40" r="1.2"/>
<path d="M433.00 154.40v-52.00" class="stroke"/>
<use x="429.50" y="133.40" xlink:href="#Hd"/>
<circle class="fill" cx="438.20" cy="130.40" r="1.2"/>
<use x="429.50" y="127.40" xlink:href="#Hd"/>
<circle class="fill" cx="438.20" cy="124.40" r="1.2"/>
<use x="429.50" y="121.40" xlink:href="#Hd"/>
<circle class="fill" cx="438.20" cy="118.40" r="1.2"/>
<use x="521.10" y="145.40" xlink:href="#hd"/>
<path d="M524.60 145.40v-21.00" class="stroke"/>
<use x="550.00" y="139.40" xlink:href="#hd"/>
<path d="M553.50 139.40v-21.00" class="stroke"/>
<use x="578.90" y="133.40" xlink:href="#hd"/>
<path d="M582.40 133.40v-21.00" class="stroke"/>
<use x="612.70" y="133.40" xlink:href="#hd"/>
<path d="M616.20 133.40v-21.00" class="stroke"/>
<use x="641.90" y="127.40" xlink:href="#hd"/>
<path d="M638.40 127.40v21.00" class="stroke"/>
<use x="670.70" y="121.40" xlink:href="#hd"/>
<path d="M667.20 121.40v21.00" class="stroke"/>
<defs>
<path id="ltr" class="fill"
    d="m0 -0.4c2 -1.5 3.4 -1.9 3.9 0.4
	c0.2 0.8 0.7 0.7 2.1 -0.4
	v0.8c-2 1.5 -3.4 1.9 -3.9 -0.4
	c-0.2 -0.8 -0.7 -0.7 -2.1 0.4z"/>
</defs>
<g transform="rotate(270)">
<use x="-169.40" y="75.50" xlink:href="#ltr"/>
<use x="-163.40" y="75.50" xlink:href="#ltr"/>
<use x="-157.40" y="75.50" xlink:href="#ltr"/>
<use x="-151.40" y="75.50" xlink:href="#ltr"/>
<use x="-145.40" y="75.50" xlink:href="#ltr"/>
<use x="-139.40" y="75.50" xlink:href="#ltr"/>
<use x="-133.40" y="75.50" xlink:href="#ltr"/>
</g>
<g transform="rotate(270)">
<use x="-169.40" y="361.80" xlink:href="#ltr"/>
<use x="-163.40" y="361.80" xlink:href="#ltr"/>
<use x="-157.40" y="361.80" xlink:href="#ltr"/>
<use x="-151.40" y="361.80" xlink:href="#ltr"/>
<use x="-145.40" y="361.80" xlink:href="#ltr"/>
<use x="-139.40" y="361.80" xlink:href="#ltr"/>
<use x="-133.40" y="361.80" xlink:href="#ltr"/>
</g>
<g transform="rotate(270)">
<use x="-157.40" y="419.50" xlink:href="#ltr"/>
<use x="-151.40" y="419.50" xlink:href="#ltr"/>
<use x="-145.40" y="419.50" xlink:href="#ltr"/>
<use x="-139.40" y="419.50" xlink:href="#ltr"/>
<use x="-133.40" y="419.50" xlink:href="#ltr"/>
<use x="-127.40" y="419.50" xlink:href="#ltr"/>
<use x="-121.40" y="419.50" xlink:href="#ltr"/>
</g>
</g>
<g stroke-width="0.70" style="font:bold 13.00px Times">
<path class="stroke" stroke-width="1"
	d="M10.00 279.80v-82.00"/>
<g transform="translate(10.00,197.80) scale(1,0.82)">
	<use xlink:href="#brace"/>
</g>
<path class="stroke" stroke-width="1"
	d="M139.80 221.80v-24.00"/>
<path class="stroke" stroke-width="1"
	d="M139.80 279.80v-24.00"/>
<path class="stroke" stroke-width="1"
	d="M237.40 221.80v-24.00"/>
<path class="stroke" stroke-width="1"
	d="M237.40 279.80v-24.00"/>
<path class="stroke" stroke-width="1"
	d="M335.30 221.80v-24.00"/>
<path class="stroke" stroke-width="1"
	d="M335.30 279.80v-24.00"/>
<path class="stroke" stroke-width="1"
	d="M432.90 221.80v-24.00"/>
<path class="stroke" stroke-width="1"
	d="M432.90 279.80v-24.00"/>
<path class="stroke" stroke-width="1"
	d="M541.50 221.80v-24.00"/>
<path class="stroke" stroke-width="1"
	d="M541.50 279.80v-24.00"/>
<path class="stroke" stroke-width="1"
	d="M631.70 221.80v-24.00"/>
<path class="stroke" stroke-width="1"
	d="M631.70 279.80v-24.00"/>
<path class="stroke" stroke-width="1"
	d="M691.60 221.80v-24.00"/>
<path class="stroke" stroke-width="1"
	d="M691.60 279.80v-24.00"/>
<path d="m10.00 221.80
	h681.60
	M10.00 215.80
	h681.60
	M10.00 209.80
	h681.60
	M10.00 203.80
	h681.60
	M10.00 197.80
	h681.60
	" class="stroke"/>
<path d="m10.00 279.80
	h681.60
	M10.00 273.80
	h681.60
	M10.00 267.80
	h681.60
	M10.00 261.80
	h681.60
	M10.00 255.80
	h681.60
	" class="stroke"/>
</g>
<g stroke-width="0.70" style="font:bold 13.00px Times">
<text x="52.00" y="193.20">ii</text>
</g>
<g stroke-width="0.70" style="font:bold 13.00px Times">
<text x="151.00" y="185.20">I</text>
</g>
<g stroke-width="0.70" style="font:bold 13.00px Times">
<text x="246.50" y="191.20">V</text>
</g>
<g stroke-width="0.70" style="font:bold 13.00px Times">
<text x="346.40" y="193.20">I</text>
</g>
<g stroke-width="0.70" style="font:bold 13.00px Times">
<text x="453.10" y="193.20">I<tspan
	 style="font:italic 11.00px Times">¹</tspan></text>
</g>
<g stroke-width="0.70" style="font:bold 13.00px Times">
<text x="561.80" y="182.20">I<tspan
	 style="font:italic 11.00px Times">²</tspan></text>
</g>
<g stroke-width="0.70" style="font:bold 13.00px Times">
<text x="653.90" y="186.20">I</text>
<use x="22.00" y="215.80" xlink:href="#tclef"/>
<use x="37.00" y="197.80" xlink:href="#sh0"/>
<use x="55.00" y="206.80" xlink:href="#hd"/>
<path d="M51.50 206.80v21.00" class="stroke"/>
<use x="86.20" y="206.80" xlink:href="#hd"/>
<path d="M82.70 206.80v21.00" class="stroke"/>
<use x="117.50" y="209.80" xlink:href="#hd"/>
<path d="M114.00 209.80v21.00" class="stroke"/>
<use x="152.80" y="212.80" xlink:href="#Hd"/>
<path d="M156.30 212.80v-21.00" class="stroke"/>
<use x="215.20" y="215.80" xlink:href="#hd"/>
<path d="M218.70 215.80v-21.00" class="stroke"/>
<use x="250.40" y="218.80" xlink:href="#Hd"/>
<path d="M253.90 218.80v-21.00" class="stroke"/>
<use x="313.00" y="221.80" xlink:href="#hd"/>
<path d="M316.50 221.80v-21.00" class="stroke"/>
<use x="348.30" y="224.80" xlink:href="#Hd"/>
<circle class="fill" cx="357.00" cy="224.80" r="1.2"/>
<path d="M351.80 224.80v-21.00" class="stroke"/>
<use x="456.90" y="224.80" xlink:href="#hd"/>
<path d="M460.40 224.80v-21.00" class="stroke"/>
<use x="488.10" y="221.80" xlink:href="#hd"/>
<path d="M491.60 221.80v-21.00" class="stroke"/>
<use x="519.30" y="215.80" xlink:href="#hd"/>
<path d="M522.80 215.80v-21.00" class="stroke"/>
<use x="565.50" y="209.80" xlink:href="#Hd"/>
<path d="M569.00 209.80v-21.00" class="stroke"/>
<use x="609.40" y="212.80" xlink:href="#hd"/>
<path d="M612.90 212.80v-21.00" class="stroke"/>
<use x="655.70" y="194.80" xlink:href="#Hd"/>
<circle class="fill" cx="664.40" cy="194.80" r="1.2"/>
<path d="M652.20 194.80v40.00" class="stroke"/>
<use x="655.70" y="215.80" xlink:href="#Hd"/>
<circle class="fill" cx="664.40" cy="212.80" r="1.2"/>
<use x="22.00" y="261.80" xlink:href="#bclef"/>
<use x="37.00" y="261.80" xlink:href="#sh0"/>
<use x="55.00" y="276.80" xlink:href="#hd"/>
<path d="M58.50 276.80v-21.00" class="stroke"/>
<use x="86.20" y="270.80" xlink:href="#hd"/>
<path d="M89.70 270.80v-21.00" class="stroke"/>
<use x="117.50" y="264.80" xlink:href="#hd"/>
<path d="M114.00 264.80v21.00" class="stroke"/>
<use x="152.80" y="279.80" xlink:href="#hd"/>
<path d="M156.30 279.80v-21.00" class="stroke"/>
<use x="184.00" y="273.80" xlink:href="#hd"/>
<path d="M187.50 273.80v-21.00" class="stroke"/>
<use x="215.20" y="267.80" xlink:href="#hd"/>
<path d="M218.70 267.80v-21.00" class="stroke"/>
<use x="250.40" y="267.80" xlink:href="#hd"/>
<path d="M253.90 267.80v-21.00" class="stroke"/>
<use x="281.80" y="261.80" xlink:href="#hd"/>
<path d="M278.30 261.80v21.00" class="stroke"/>
<use x="313.00" y="255.80" xlink:href="#hd"/>
<path d="M309.50 255.80v21.00" class="stroke"/>
<use x="348.30" y="279.80" xlink:href="#hd"/>
<path d="M351.80 279.80v-21.00" class="stroke"/>
<use x="379.40" y="273.80" xlink:href="#hd"/>
<path d="M382.90 273.80v-21.00" class="stroke"/>
<use x="410.60" y="267.80" xlink:href="#hd"/>
<path d="M414.10 267.80v-21.00" class="stroke"/>
<use x="456.90" y="285.80" xlink:href="#hl"/>
<use x="456.90" y="291.80" xlink:href="#hl"/>
<use x="456.90" y="297.80" xlink:href="#hl"/>
<use x="456.90" y="300.80" xlink:href="#Hd"/>
<circle class="fill" cx="465.60" cy="300.80" r="1.2"/>
<path d="M460.40 300.80v-52.00" class="stroke"/>
<use x="456.90" y="279.80" xlink:href="#Hd"/>
<circle class="fill" cx="465.60" cy="276.80" r="1.2"/>
<use x="456.90" y="273.80" xlink:href="#Hd"/>
<circle class="fill" cx="465.60" cy="270.80" r="1.2"/>
<use x="456.90" y="267.80" xlink:href="#Hd"/>
<circle class="fill" cx="465.60" cy="264.80" r="1.2"/>
<use x="565.50" y="285.80" xlink:href="#hl"/>
<use x="565.50" y="291.80" xlink:href="#hl"/>
<use x="565.50" y="297.80" xlink:href="#hl"/>
<use x="565.50" y="300.80" xlink:href="#Hd"/>
<circle class="fill" cx="574.20" cy="300.80" r="1.2"/>
<path d="M569.00 300.80v-52.00" class="stroke"/>
<use x="565.50" y="279.80" xlink:href="#Hd"/>
<circle class="fill" cx="574.20" cy="276.80" r="1.2"/>
<use x="565.50" y="273.80" xlink:href="#Hd"/>
<circle class="fill" cx="574.20" cy="270.80" r="1.2"/>
<use x="565.50" y="267.80" xlink:href="#Hd"/>
<circle class="fill" cx="574.20" cy="264.80" r="1.2"/>
<use x="655.70" y="285.80" xlink:href="#hl"/>
<use x="655.70" y="291.80" xlink:href="#hl"/>
<use x="655.70" y="297.80" xlink:href="#hl"/>
<use x="655.70" y="300.80" xlink:href="#Hd"/>
<circle class="fill" cx="664.40" cy="300.80" r="1.2"/>
<path d="M659.20 300.80v-52.00" class="stroke"/>
<use x="655.70" y="279.80" xlink:href="#Hd"/>
<circle class="fill" cx="664.40" cy="276.80" r="1.2"/>
<use x="655.70" y="273.80" xlink:href="#Hd"/>
<circle class="fill" cx="664.40" cy="270.80" r="1.2"/>
<use x="655.70" y="267.80" xlink:href="#Hd"/>
<circle class="fill" cx="664.40" cy="264.80" r="1.2"/>
<g transform="rotate(270)">
<use x="-303.80" y="446.90" xlink:href="#ltr"/>
<use x="-297.80" y="446.90" xlink:href="#ltr"/>
<use x="-291.80" y="446.90" xlink:href="#ltr"/>
<use x="-285.80" y="446.90" xlink:href="#ltr"/>
<use x="-279.80" y="446.90" xlink:href="#ltr"/>
<use x="-273.80" y="446.90" xlink:href="#ltr"/>
<use x="-267.80" y="446.90" xlink:href="#ltr"/>
</g>
<g transform="rotate(270)">
<use x="-303.80" y="555.50" xlink:href="#ltr"/>
<use x="-297.80" y="555.50" xlink:href="#ltr"/>
<use x="-291.80" y="555.50" xlink:href="#ltr"/>
<use x="-285.80" y="555.50" xlink:href="#ltr"/>
<use x="-279.80" y="555.50" xlink:href="#ltr"/>
<use x="-273.80" y="555.50" xlink:href="#ltr"/>
<use x="-267.80" y="555.50" xlink:href="#ltr"/>
</g>
<g transform="rotate(270)">
<use x="-303.80" y="645.70" xlink:href="#ltr"/>
<use x="-297.80" y="645.70" xlink:href="#ltr"/>
<use x="-291.80" y="645.70" xlink:href="#ltr"/>
<use x="-285.80" y="645.70" xlink:href="#ltr"/>
<use x="-279.80" y="645.70" xlink:href="#ltr"/>
<use x="-273.80" y="645.70" xlink:href="#ltr"/>
<use x="-267.80" y="645.70" xlink:href="#ltr"/>
</g>
</g>
</svg>
