<?xml version="1.0" standalone="no"?>
<!DOCTYPE svg PUBLIC "-//W3C//DTD SVG 1.1//EN"
	"http://www.w3.org/Graphics/SVG/1.1/DTD/svg11.dtd">
<svg xmlns="http://www.w3.org/2000/svg" version="1.1"
	xmlns:xlink="http://www.w3.org/1999/xlink"
	color="black"
	width="701.60px" height="600.40px" viewBox="0 0 701.60 600.40" preserveAspectRatio="xMidYMid meet">
<style type="text/css">
.fill {fill: currentColor}
.stroke {stroke: currentColor; fill: none}
text{white-space: pre}
</style>
<title>/tmp/reharm_hymnal_L1/one_thing_s_needful.abc (1) tune 1</title>
<!-- Creator: abcm2ps-8.14.11 -->
<!-- CreationDate: Apr 24, 2026 15:32 -->
<!-- CommandLine: /tmp/reharm_hymnal_L1/one_thing_s_needful.abc -g -O /tmp/reharm_hymnal_L1/one_thing_s_needful -->
<g stroke-width="0.70">
<!-- title: 196. One Thing's Needful -->
</g>
<g stroke-width="0.70" style="font:20.00px Times">
<text x="350.80" y="22.00" text-anchor="middle">196. One Thing&apos;s Needful</text>
</g>
<g stroke-width="0.70" style="font:20.00px Times">
<path class="stroke" stroke-width="1"
	d="M10.00 145.40v-82.00"/>
<defs>
<path id="brace" class="fill" d="m-2.5 101
	c-4.5 -4.6 -7.5 -12.2 -4.4 -26.8
	3.5 -14.3 3.2 -21.7 -2.1 -24.2
	7.4 2.4 7.3 14.2 3.5 29.5
	-2.7 9.5 -1.5 16.2 3 21.5
	M-2.5 1c-4.5 4.6 -7.5 12.2 -4.4 26.8
	c3.5 14.3 3.2 21.7 -2.1 24.2
	7.4 -2.4 7.3 -14.2 3.5 -29.5
	-2.7 -9.5 -1.5 -16.2 3 -21.5"/>
</defs>
<g transform="translate(10.00,63.40) scale(1,0.82)">
	<use xlink:href="#brace"/>
</g>
<path class="stroke" stroke-width="1"
	d="M206.00 87.40v-24.00"/>
<path class="stroke" stroke-width="1"
	d="M206.00 145.40v-24.00"/>
<path class="stroke" stroke-width="1"
	d="M326.90 87.40v-24.00"/>
<path class="stroke" stroke-width="1"
	d="M326.90 145.40v-24.00"/>
<path class="stroke" stroke-width="1"
	d="M445.30 87.40v-24.00"/>
<path class="stroke" stroke-width="1"
	d="M445.30 145.40v-24.00"/>
<path class="stroke" stroke-width="1"
	d="M557.90 87.40v-24.00"/>
<path class="stroke" stroke-width="1"
	d="M557.90 145.40v-24.00"/>
<path class="stroke" stroke-width="1"
	d="M691.60 87.40v-24.00"/>
<path class="stroke" stroke-width="1"
	d="M691.60 145.40v-24.00"/>
<path d="m10.00 87.40
	h681.60
	M10.00 81.40
	h681.60
	M10.00 75.40
	h681.60
	M10.00 69.40
	h681.60
	M10.00 63.40
	h681.60
	" class="stroke"/>
<path d="m10.00 145.40
	h681.60
	M10.00 139.40
	h681.60
	M10.00 133.40
	h681.60
	M10.00 127.40
	h681.60
	M10.00 121.40
	h681.60
	" class="stroke"/>
</g>
<g stroke-width="0.70" style="font:bold 13.00px Times">
<text x="95.70" y="58.80">I</text>
</g>
<g stroke-width="0.70" style="font:bold 13.00px Times">
<text x="216.60" y="56.80">I</text>
</g>
<g stroke-width="0.70" style="font:bold 13.00px Times">
<text x="333.70" y="56.80">IV</text>
</g>
<g stroke-width="0.70" style="font:bold 13.00px Times">
<text x="468.50" y="50.80">I</text>
</g>
<g stroke-width="0.70" style="font:bold 13.00px Times">
<text x="581.10" y="47.80">I</text>
<defs>
<path id="utclef" class="fill" d="m-50 -90
	c-72 -41 -72 -158 52 -188
	150 -10 220 188 90 256
	-114 52 -275 0 -293 -136
	-15 -181 93 -229 220 -334
	88 -87 79 -133 62 -210
	-51 33 -94 105 -89 186
	17 267 36 374 49 574
	6 96 -19 134 -77 135
	-80 1 -126 -93 -61 -133
	85 -41 133 101 31 105
	23 17 92 37 90 -92
	-10 -223 -39 -342 -50 -617
	0 -90 0 -162 96 -232
	56 72 63 230 22 289
	-74 106 -257 168 -255 316
	9 153 148 185 252 133
	86 -65 29 -192 -80 -176
	-71 12 -105 67 -59 124"/>
<use id="tclef" transform="translate(0,6) scale(0.045)"
	xlink:href="#utclef"/>
</defs>
<use x="22.00" y="81.40" xlink:href="#tclef"/>
<defs>
<path id="uflat" class="fill" d="
	m100 -746
	h32
	v734
	l-32 4
	m32 -332
	c46 -72 152 -90 208 -20
	100 110 -120 326 -208 348
	m0 -28
	c54 0 200 -206 130 -290
	-50 -60 -130 -4 -130 34"/>
<use id="ft0" transform="translate(-3.5,3.5) scale(0.018)"
	xlink:href="#uflat"/>
</defs>
<use x="37.00" y="75.40" xlink:href="#ft0"/>
<use x="42.50" y="66.40" xlink:href="#ft0"/>
<use x="48.00" y="78.40" xlink:href="#ft0"/>
<g style="font:bold 16px serif"
	transform="translate(64.00,86.90) scale(1.2,1)">
	<text text-anchor="middle">4</text>
	<text y="-12" text-anchor="middle">4</text>
</g>
<defs>
<ellipse id="hd" rx="4.1" ry="2.9"
	transform="rotate(-20)" class="fill"/>
</defs>
<use x="97.50" y="75.40" xlink:href="#hd"/>
<path d="M94.00 75.40v21.00" class="stroke"/>
<use x="126.70" y="75.40" xlink:href="#hd"/>
<path d="M123.20 75.40v21.00" class="stroke"/>
<use x="155.80" y="72.40" xlink:href="#hd"/>
<path d="M152.30 72.40v21.00" class="stroke"/>
<use x="185.00" y="69.40" xlink:href="#hd"/>
<path d="M181.50 69.40v21.00" class="stroke"/>
<use x="218.50" y="66.40" xlink:href="#hd"/>
<path d="M215.00 66.40v21.00" class="stroke"/>
<use x="247.60" y="66.40" xlink:href="#hd"/>
<path d="M244.10 66.40v21.00" class="stroke"/>
<use x="276.80" y="69.40" xlink:href="#hd"/>
<path d="M273.30 69.40v21.00" class="stroke"/>
<use x="305.90" y="69.40" xlink:href="#hd"/>
<path d="M302.40 69.40v21.00" class="stroke"/>
<use x="339.40" y="72.40" xlink:href="#hd"/>
<path d="M335.90 72.40v21.00" class="stroke"/>
<use x="368.60" y="72.40" xlink:href="#hd"/>
<path d="M365.10 72.40v21.00" class="stroke"/>
<use x="398.00" y="75.40" xlink:href="#hd"/>
<path d="M394.50 75.40v21.00" class="stroke"/>
<use x="424.30" y="81.40" xlink:href="#hd"/>
<path d="M427.80 81.40v-21.00" class="stroke"/>
<use x="470.30" y="78.40" xlink:href="#hd"/>
<path d="M473.80 78.40v-21.00" class="stroke"/>
<use x="499.40" y="84.40" xlink:href="#hd"/>
<path d="M502.90 84.40v-21.00" class="stroke"/>
<defs>
<path id="Hd" class="fill" d="m3 -1.6
	c-1 -1.8 -7 1.4 -6 3.2
	1 1.8 7 -1.4 6 -3.2
	m0.5 -0.3
	c2 3.8 -5 7.6 -7 3.8
	-2 -3.8 5 -7.6 7 -3.8"/>
</defs>
<use x="528.60" y="87.40" xlink:href="#Hd"/>
<path d="M532.10 87.40v-21.00" class="stroke"/>
<use x="582.90" y="75.40" xlink:href="#hd"/>
<path d="M586.40 75.40v-21.00" class="stroke"/>
<use x="612.10" y="75.40" xlink:href="#hd"/>
<path d="M615.60 75.40v-21.00" class="stroke"/>
<use x="641.50" y="72.40" xlink:href="#hd"/>
<path d="M638.00 72.40v21.00" class="stroke"/>
<use x="670.60" y="69.40" xlink:href="#hd"/>
<path d="M667.10 69.40v21.00" class="stroke"/>
<defs>
<path id="ubclef" class="fill" d="m-200 -87
	c124 -35 222 -78 254 -236
	43 -228 -167 -246 -192 -103
	59 -80 157 22 92 78
	-62 47 -115 -22 -106 -88
	21 -141 270 -136 274 52
	-1 175 -106 264 -322 297
	m357 -250
	c0 -36 51 -34 51 0
	0 37 -51 36 -51 0
	m-2 -129
	c0 -36 51 -34 51 0
	0 38 -51 37 -51 0"/>
<use id="bclef" transform="translate(0,18) scale(0.045)"
	xlink:href="#ubclef"/>
</defs>
<use x="22.00" y="127.40" xlink:href="#bclef"/>
<use x="37.00" y="139.40" xlink:href="#ft0"/>
<use x="42.50" y="130.40" xlink:href="#ft0"/>
<use x="48.00" y="142.40" xlink:href="#ft0"/>
<g style="font:bold 16px serif"
	transform="translate(64.00,144.90) scale(1.2,1)">
	<text text-anchor="middle">4</text>
	<text y="-12" text-anchor="middle">4</text>
</g>
<defs>
<path id="hl1" class="stroke" d="m-7 0h14"/>
</defs>
<use x="98.50" y="151.40" xlink:href="#hl1"/>
<use x="98.50" y="157.40" xlink:href="#hl1"/>
<use x="98.50" y="163.40" xlink:href="#hl1"/>
<use x="98.50" y="169.40" xlink:href="#hl1"/>
<defs>
<path id="HD" class="fill" d="m-2.7 -1.4
	c1.5 -2.8 6.9 0 5.3 2.7
	-1.5 2.8 -6.9 0 -5.3 -2.7
	m8.3 1.4
	c0 -1.5 -2.2 -3 -5.6 -3
	-3.4 0 -5.6 1.5 -5.6 3
	0 1.5 2.2 3 5.6 3
	3.4 0 5.6 -1.5 5.6 -3"/>
</defs>
<use x="98.50" y="172.40" xlink:href="#HD"/>
<use x="98.50" y="151.40" xlink:href="#HD"/>
<use x="98.50" y="145.40" xlink:href="#HD"/>
<use x="98.50" y="139.40" xlink:href="#HD"/>
<defs>
<path id="hl" class="stroke" d="m-6 0h12"/>
</defs>
<use x="218.50" y="151.40" xlink:href="#hl"/>
<use x="218.50" y="151.40" xlink:href="#hd"/>
<path d="M222.00 151.40v-21.00" class="stroke"/>
<use x="247.60" y="145.40" xlink:href="#hd"/>
<path d="M251.10 145.40v-21.00" class="stroke"/>
<use x="276.80" y="139.40" xlink:href="#hd"/>
<path d="M280.30 139.40v-21.00" class="stroke"/>
<use x="305.90" y="145.40" xlink:href="#hd"/>
<path d="M309.40 145.40v-21.00" class="stroke"/>
<use x="339.40" y="142.40" xlink:href="#hd"/>
<path d="M342.90 142.40v-21.00" class="stroke"/>
<use x="368.60" y="136.40" xlink:href="#hd"/>
<path d="M372.10 136.40v-21.00" class="stroke"/>
<use x="398.00" y="130.40" xlink:href="#hd"/>
<path d="M394.50 130.40v21.00" class="stroke"/>
<use x="424.30" y="136.40" xlink:href="#hd"/>
<path d="M427.80 136.40v-21.00" class="stroke"/>
<use x="471.30" y="151.40" xlink:href="#hl1"/>
<use x="471.30" y="157.40" xlink:href="#hl1"/>
<use x="471.30" y="163.40" xlink:href="#hl1"/>
<use x="471.30" y="169.40" xlink:href="#hl1"/>
<use x="471.30" y="172.40" xlink:href="#HD"/>
<use x="471.30" y="151.40" xlink:href="#HD"/>
<use x="471.30" y="145.40" xlink:href="#HD"/>
<use x="471.30" y="139.40" xlink:href="#HD"/>
<use x="583.90" y="151.40" xlink:href="#hl1"/>
<use x="583.90" y="157.40" xlink:href="#hl1"/>
<use x="583.90" y="163.40" xlink:href="#hl1"/>
<use x="583.90" y="169.40" xlink:href="#hl1"/>
<use x="583.90" y="172.40" xlink:href="#HD"/>
<use x="583.90" y="151.40" xlink:href="#HD"/>
<use x="583.90" y="145.40" xlink:href="#HD"/>
<use x="583.90" y="139.40" xlink:href="#HD"/>
<defs>
<path id="ltr" class="fill"
    d="m0 -0.4c2 -1.5 3.4 -1.9 3.9 0.4
	c0.2 0.8 0.7 0.7 2.1 -0.4
	v0.8c-2 1.5 -3.4 1.9 -3.9 -0.4
	c-0.2 -0.8 -0.7 -0.7 -2.1 0.4z"/>
</defs>
<g transform="rotate(270)">
<use x="-175.40" y="85.00" xlink:href="#ltr"/>
<use x="-169.40" y="85.00" xlink:href="#ltr"/>
<use x="-163.40" y="85.00" xlink:href="#ltr"/>
<use x="-157.40" y="85.00" xlink:href="#ltr"/>
<use x="-151.40" y="85.00" xlink:href="#ltr"/>
<use x="-145.40" y="85.00" xlink:href="#ltr"/>
<use x="-139.40" y="85.00" xlink:href="#ltr"/>
</g>
<g transform="rotate(270)">
<use x="-175.40" y="457.80" xlink:href="#ltr"/>
<use x="-169.40" y="457.80" xlink:href="#ltr"/>
<use x="-163.40" y="457.80" xlink:href="#ltr"/>
<use x="-157.40" y="457.80" xlink:href="#ltr"/>
<use x="-151.40" y="457.80" xlink:href="#ltr"/>
<use x="-145.40" y="457.80" xlink:href="#ltr"/>
<use x="-139.40" y="457.80" xlink:href="#ltr"/>
</g>
<g transform="rotate(270)">
<use x="-175.40" y="570.40" xlink:href="#ltr"/>
<use x="-169.40" y="570.40" xlink:href="#ltr"/>
<use x="-163.40" y="570.40" xlink:href="#ltr"/>
<use x="-157.40" y="570.40" xlink:href="#ltr"/>
<use x="-151.40" y="570.40" xlink:href="#ltr"/>
<use x="-145.40" y="570.40" xlink:href="#ltr"/>
<use x="-139.40" y="570.40" xlink:href="#ltr"/>
</g>
</g>
<g stroke-width="0.70" style="font:bold 13.00px Times">
<path class="stroke" stroke-width="1"
	d="M10.00 283.40v-82.00"/>
<g transform="translate(10.00,201.40) scale(1,0.82)">
	<use xlink:href="#brace"/>
</g>
<path class="stroke" stroke-width="1"
	d="M175.50 225.40v-24.00"/>
<path class="stroke" stroke-width="1"
	d="M175.50 283.40v-24.00"/>
<path class="stroke" stroke-width="1"
	d="M294.80 225.40v-24.00"/>
<path class="stroke" stroke-width="1"
	d="M294.80 283.40v-24.00"/>
<path class="stroke" stroke-width="1"
	d="M408.30 225.40v-24.00"/>
<path class="stroke" stroke-width="1"
	d="M408.30 283.40v-24.00"/>
<path class="stroke" stroke-width="1"
	d="M556.10 225.40v-24.00"/>
<path class="stroke" stroke-width="1"
	d="M556.10 283.40v-24.00"/>
<path class="stroke" stroke-width="1"
	d="M691.60 225.40v-24.00"/>
<path class="stroke" stroke-width="1"
	d="M691.60 283.40v-24.00"/>
<path d="m10.00 225.40
	h681.60
	M10.00 219.40
	h681.60
	M10.00 213.40
	h681.60
	M10.00 207.40
	h681.60
	M10.00 201.40
	h681.60
	" class="stroke"/>
<path d="m10.00 283.40
	h681.60
	M10.00 277.40
	h681.60
	M10.00 271.40
	h681.60
	M10.00 265.40
	h681.60
	M10.00 259.40
	h681.60
	" class="stroke"/>
</g>
<g stroke-width="0.70" style="font:bold 13.00px Times">
<text x="64.20" y="195.80">I</text>
</g>
<g stroke-width="0.70" style="font:bold 13.00px Times">
<text x="182.20" y="196.80">IV</text>
</g>
<g stroke-width="0.70" style="font:bold 13.00px Times">
<text x="318.00" y="188.80">I</text>
</g>
<g stroke-width="0.70" style="font:bold 13.00px Times">
<text x="431.50" y="196.80">I</text>
</g>
<g stroke-width="0.70" style="font:bold 13.00px Times">
<text x="564.70" y="194.80">V</text>
<use x="22.00" y="219.40" xlink:href="#tclef"/>
<use x="37.00" y="213.40" xlink:href="#ft0"/>
<use x="42.50" y="204.40" xlink:href="#ft0"/>
<use x="48.00" y="216.40" xlink:href="#ft0"/>
<use x="66.00" y="204.40" xlink:href="#hd"/>
<path d="M62.50 204.40v21.00" class="stroke"/>
<use x="95.50" y="204.40" xlink:href="#hd"/>
<path d="M92.00 204.40v21.00" class="stroke"/>
<use x="124.90" y="207.40" xlink:href="#hd"/>
<path d="M121.40 207.40v21.00" class="stroke"/>
<use x="154.40" y="207.40" xlink:href="#hd"/>
<path d="M150.90 207.40v21.00" class="stroke"/>
<use x="188.00" y="210.40" xlink:href="#hd"/>
<path d="M184.50 210.40v21.00" class="stroke"/>
<use x="217.50" y="210.40" xlink:href="#hd"/>
<path d="M214.00 210.40v21.00" class="stroke"/>
<use x="247.10" y="213.40" xlink:href="#hd"/>
<path d="M243.60 213.40v21.00" class="stroke"/>
<use x="273.70" y="219.40" xlink:href="#hd"/>
<path d="M277.20 219.40v-21.00" class="stroke"/>
<use x="319.80" y="216.40" xlink:href="#hd"/>
<path d="M323.30 216.40v-21.00" class="stroke"/>
<use x="349.30" y="222.40" xlink:href="#hd"/>
<path d="M352.80 222.40v-21.00" class="stroke"/>
<use x="378.80" y="225.40" xlink:href="#Hd"/>
<path d="M382.30 225.40v-21.00" class="stroke"/>
<use x="433.30" y="225.40" xlink:href="#hd"/>
<path d="M436.80 225.40v-21.00" class="stroke"/>
<path class="fill"
	d="M436.80 204.40c0.6 5.6 9.6 9 5.6 18.4
	1.6 -6 -1.3 -11.6 -5.6 -12.8
"/>
<use x="454.70" y="222.40" xlink:href="#hd"/>
<path d="M458.20 222.40v-21.00" class="stroke"/>
<path class="fill"
	d="M458.20 201.40c0.6 5.6 9.6 9 5.6 18.4
	1.6 -6 -1.3 -11.6 -5.6 -12.8
"/>
<use x="476.10" y="219.40" xlink:href="#hd"/>
<path d="M479.60 219.40v-21.00" class="stroke"/>
<use x="505.50" y="219.40" xlink:href="#hd"/>
<path d="M509.00 219.40v-21.00" class="stroke"/>
<use x="535.00" y="219.40" xlink:href="#hd"/>
<path d="M538.50 219.40v-21.00" class="stroke"/>
<use x="568.60" y="222.40" xlink:href="#hd"/>
<path d="M572.10 222.40v-21.00" class="stroke"/>
<use x="598.10" y="222.40" xlink:href="#hd"/>
<path d="M601.60 222.40v-21.00" class="stroke"/>
<use x="627.70" y="222.40" xlink:href="#hd"/>
<path d="M631.20 222.40v-21.00" class="stroke"/>
<path class="fill"
	d="M631.20 201.40c0.6 5.6 9.6 9 5.6 18.4
	1.6 -6 -1.3 -11.6 -5.6 -12.8
"/>
<use x="649.10" y="219.40" xlink:href="#hd"/>
<path d="M652.60 219.40v-21.00" class="stroke"/>
<path class="fill"
	d="M652.60 198.40c0.6 5.6 9.6 9 5.6 18.4
	1.6 -6 -1.3 -11.6 -5.6 -12.8
"/>
<use x="670.50" y="216.40" xlink:href="#hd"/>
<path d="M674.00 216.40v-21.00" class="stroke"/>
<use x="22.00" y="265.40" xlink:href="#bclef"/>
<use x="37.00" y="277.40" xlink:href="#ft0"/>
<use x="42.50" y="268.40" xlink:href="#ft0"/>
<use x="48.00" y="280.40" xlink:href="#ft0"/>
<use x="66.00" y="289.40" xlink:href="#hl"/>
<use x="66.00" y="289.40" xlink:href="#hd"/>
<path d="M69.50 289.40v-21.00" class="stroke"/>
<use x="95.50" y="283.40" xlink:href="#hd"/>
<path d="M99.00 283.40v-21.00" class="stroke"/>
<use x="124.90" y="277.40" xlink:href="#hd"/>
<path d="M128.40 277.40v-21.00" class="stroke"/>
<use x="154.40" y="283.40" xlink:href="#hd"/>
<path d="M157.90 283.40v-21.00" class="stroke"/>
<use x="188.00" y="280.40" xlink:href="#hd"/>
<path d="M191.50 280.40v-21.00" class="stroke"/>
<use x="217.50" y="274.40" xlink:href="#hd"/>
<path d="M221.00 274.40v-21.00" class="stroke"/>
<use x="247.10" y="268.40" xlink:href="#hd"/>
<path d="M243.60 268.40v21.00" class="stroke"/>
<use x="273.70" y="274.40" xlink:href="#hd"/>
<path d="M277.20 274.40v-21.00" class="stroke"/>
<use x="320.80" y="289.40" xlink:href="#hl1"/>
<use x="320.80" y="295.40" xlink:href="#hl1"/>
<use x="320.80" y="301.40" xlink:href="#hl1"/>
<use x="320.80" y="307.40" xlink:href="#hl1"/>
<use x="320.80" y="310.40" xlink:href="#HD"/>
<use x="320.80" y="289.40" xlink:href="#HD"/>
<use x="320.80" y="283.40" xlink:href="#HD"/>
<use x="320.80" y="277.40" xlink:href="#HD"/>
<use x="434.30" y="289.40" xlink:href="#hl1"/>
<use x="434.30" y="295.40" xlink:href="#hl1"/>
<use x="434.30" y="301.40" xlink:href="#hl1"/>
<use x="434.30" y="307.40" xlink:href="#hl1"/>
<use x="434.30" y="310.40" xlink:href="#HD"/>
<use x="434.30" y="289.40" xlink:href="#HD"/>
<use x="434.30" y="283.40" xlink:href="#HD"/>
<use x="434.30" y="277.40" xlink:href="#HD"/>
<use x="568.60" y="277.40" xlink:href="#hd"/>
<path d="M572.10 277.40v-21.00" class="stroke"/>
<use x="598.10" y="271.40" xlink:href="#hd"/>
<path d="M601.60 271.40v-21.00" class="stroke"/>
<use x="627.70" y="265.40" xlink:href="#hd"/>
<path d="M624.20 265.40v21.00" class="stroke"/>
<use x="670.50" y="271.40" xlink:href="#hd"/>
<path d="M667.00 271.40v21.00" class="stroke"/>
<g transform="rotate(270)">
<use x="-313.40" y="307.30" xlink:href="#ltr"/>
<use x="-307.40" y="307.30" xlink:href="#ltr"/>
<use x="-301.40" y="307.30" xlink:href="#ltr"/>
<use x="-295.40" y="307.30" xlink:href="#ltr"/>
<use x="-289.40" y="307.30" xlink:href="#ltr"/>
<use x="-283.40" y="307.30" xlink:href="#ltr"/>
<use x="-277.40" y="307.30" xlink:href="#ltr"/>
</g>
<g transform="rotate(270)">
<use x="-313.40" y="420.80" xlink:href="#ltr"/>
<use x="-307.40" y="420.80" xlink:href="#ltr"/>
<use x="-301.40" y="420.80" xlink:href="#ltr"/>
<use x="-295.40" y="420.80" xlink:href="#ltr"/>
<use x="-289.40" y="420.80" xlink:href="#ltr"/>
<use x="-283.40" y="420.80" xlink:href="#ltr"/>
<use x="-277.40" y="420.80" xlink:href="#ltr"/>
</g>
</g>
<g stroke-width="0.70" style="font:bold 13.00px Times">
<path class="stroke" stroke-width="1"
	d="M10.00 421.40v-82.00"/>
<g transform="translate(10.00,339.40) scale(1,0.82)">
	<use xlink:href="#brace"/>
</g>
<path class="stroke" stroke-width="1"
	d="M160.30 363.40v-24.00"/>
<path class="stroke" stroke-width="1"
	d="M160.30 421.40v-24.00"/>
<path class="stroke" stroke-width="1"
	d="M264.60 363.40v-24.00"/>
<path class="stroke" stroke-width="1"
	d="M264.60 421.40v-24.00"/>
<path class="stroke" stroke-width="1"
	d="M368.50 363.40v-24.00"/>
<path class="stroke" stroke-width="1"
	d="M368.50 421.40v-24.00"/>
<path class="stroke" stroke-width="1"
	d="M472.20 363.40v-24.00"/>
<path class="stroke" stroke-width="1"
	d="M472.20 421.40v-24.00"/>
<path class="stroke" stroke-width="1"
	d="M575.70 363.40v-24.00"/>
<path class="stroke" stroke-width="1"
	d="M575.70 421.40v-24.00"/>
<path class="stroke" stroke-width="1"
	d="M691.60 363.40v-24.00"/>
<path class="stroke" stroke-width="1"
	d="M691.60 421.40v-24.00"/>
<path d="m10.00 363.40
	h681.60
	M10.00 357.40
	h681.60
	M10.00 351.40
	h681.60
	M10.00 345.40
	h681.60
	M10.00 339.40
	h681.60
	" class="stroke"/>
<path d="m10.00 421.40
	h681.60
	M10.00 415.40
	h681.60
	M10.00 409.40
	h681.60
	M10.00 403.40
	h681.60
	M10.00 397.40
	h681.60
	" class="stroke"/>
</g>
<g stroke-width="0.70" style="font:bold 13.00px Times">
<text x="73.80" y="326.80">IV<tspan
	 style="font:italic 11.00px Times">¹</tspan></text>
</g>
<g stroke-width="0.70" style="font:bold 13.00px Times">
<text x="183.40" y="329.80">I</text>
</g>
<g stroke-width="0.70" style="font:bold 13.00px Times">
<text x="283.70" y="334.80">V<tspan
	 style="font:italic 11.00px Times">¹</tspan></text>
</g>
<g stroke-width="0.70" style="font:bold 13.00px Times">
<text x="391.60" y="329.80">I</text>
</g>
<g stroke-width="0.70" style="font:bold 13.00px Times">
<text x="482.90" y="332.80">I</text>
</g>
<g stroke-width="0.70" style="font:bold 13.00px Times">
<text x="596.70" y="332.80">V</text>
<use x="22.00" y="357.40" xlink:href="#tclef"/>
<use x="37.00" y="351.40" xlink:href="#ft0"/>
<use x="42.50" y="342.40" xlink:href="#ft0"/>
<use x="48.00" y="354.40" xlink:href="#ft0"/>
<use x="81.50" y="354.40" xlink:href="#hd"/>
<path d="M85.00 354.40v-21.00" class="stroke"/>
<use x="102.40" y="354.40" xlink:href="#hd"/>
<path d="M105.90 354.40v-21.00" class="stroke"/>
<use x="123.20" y="357.40" xlink:href="#hd"/>
<path d="M126.70 357.40v-21.00" class="stroke"/>
<use x="144.10" y="357.40" xlink:href="#hd"/>
<path d="M147.60 357.40v-21.00" class="stroke"/>
<use x="185.30" y="357.40" xlink:href="#hd"/>
<path d="M188.80 357.40v-21.00" class="stroke"/>
<use x="206.70" y="348.40" xlink:href="#hd"/>
<path d="M203.20 348.40v21.00" class="stroke"/>
<use x="227.60" y="348.40" xlink:href="#hd"/>
<path d="M224.10 348.40v21.00" class="stroke"/>
<use x="248.50" y="348.40" xlink:href="#hd"/>
<path d="M245.00 348.40v21.00" class="stroke"/>
<use x="289.60" y="351.40" xlink:href="#hd"/>
<circle class="fill" cx="297.30" cy="348.40" r="1.2"/>
<path d="M286.10 351.40v21.00" class="stroke"/>
<use x="314.90" y="354.40" xlink:href="#hd"/>
<path d="M318.40 354.40v-21.00" class="stroke"/>
<path class="fill"
	d="M318.40 333.40c0.6 5.6 9.6 9 5.6 18.4
	1.6 -6 -1.3 -11.6 -5.6 -12.8
"/>
<use x="331.50" y="357.40" xlink:href="#hd"/>
<path d="M335.00 357.40v-21.00" class="stroke"/>
<use x="352.30" y="354.40" xlink:href="#hd"/>
<path d="M355.80 354.40v-21.00" class="stroke"/>
<use x="393.50" y="357.40" xlink:href="#hd"/>
<path d="M397.00 357.40v-21.00" class="stroke"/>
<use x="414.30" y="360.40" xlink:href="#hd"/>
<path d="M417.80 360.40v-21.00" class="stroke"/>
<use x="435.20" y="363.40" xlink:href="#hd"/>
<path d="M438.70 363.40v-21.00" class="stroke"/>
<use x="456.10" y="363.40" xlink:href="#hd"/>
<path d="M459.60 363.40v-21.00" class="stroke"/>
<use x="484.70" y="363.40" xlink:href="#hd"/>
<path d="M488.20 363.40v-21.00" class="stroke"/>
<path class="fill"
	d="M488.20 342.40c0.6 5.6 9.6 9 5.6 18.4
	1.6 -6 -1.3 -11.6 -5.6 -12.8
"/>
<use x="501.20" y="360.40" xlink:href="#hd"/>
<path d="M504.70 360.40v-21.00" class="stroke"/>
<path class="fill"
	d="M504.70 339.40c0.6 5.6 9.6 9 5.6 18.4
	1.6 -6 -1.3 -11.6 -5.6 -12.8
"/>
<use x="517.80" y="357.40" xlink:href="#hd"/>
<path d="M521.30 357.40v-21.00" class="stroke"/>
<use x="538.60" y="357.40" xlink:href="#hd"/>
<path d="M542.10 357.40v-21.00" class="stroke"/>
<use x="559.50" y="357.40" xlink:href="#hd"/>
<path d="M563.00 357.40v-21.00" class="stroke"/>
<use x="600.70" y="360.40" xlink:href="#hd"/>
<path d="M604.20 360.40v-21.00" class="stroke"/>
<use x="621.50" y="360.40" xlink:href="#hd"/>
<path d="M625.00 360.40v-21.00" class="stroke"/>
<use x="642.40" y="360.40" xlink:href="#hd"/>
<path d="M645.90 360.40v-21.00" class="stroke"/>
<path class="fill"
	d="M645.90 339.40c0.6 5.6 9.6 9 5.6 18.4
	1.6 -6 -1.3 -11.6 -5.6 -12.8
"/>
<use x="658.90" y="357.40" xlink:href="#hd"/>
<path d="M662.40 357.40v-21.00" class="stroke"/>
<path class="fill"
	d="M662.40 336.40c0.6 5.6 9.6 9 5.6 18.4
	1.6 -6 -1.3 -11.6 -5.6 -12.8
"/>
<use x="675.50" y="354.40" xlink:href="#hd"/>
<path d="M679.00 354.40v-21.00" class="stroke"/>
<use x="22.00" y="403.40" xlink:href="#bclef"/>
<use x="37.00" y="415.40" xlink:href="#ft0"/>
<use x="42.50" y="406.40" xlink:href="#ft0"/>
<use x="48.00" y="418.40" xlink:href="#ft0"/>
<use x="82.50" y="427.40" xlink:href="#hl1"/>
<use x="82.50" y="433.40" xlink:href="#hl1"/>
<use x="82.50" y="439.40" xlink:href="#hl1"/>
<use x="82.50" y="439.40" xlink:href="#HD"/>
<use x="82.50" y="418.40" xlink:href="#HD"/>
<use x="82.50" y="412.40" xlink:href="#HD"/>
<use x="82.50" y="406.40" xlink:href="#HD"/>
<use x="186.30" y="427.40" xlink:href="#hl1"/>
<use x="186.30" y="433.40" xlink:href="#hl1"/>
<use x="186.30" y="439.40" xlink:href="#hl1"/>
<use x="186.30" y="445.40" xlink:href="#hl1"/>
<use x="186.30" y="448.40" xlink:href="#HD"/>
<use x="186.30" y="427.40" xlink:href="#HD"/>
<use x="186.30" y="421.40" xlink:href="#HD"/>
<use x="186.30" y="415.40" xlink:href="#HD"/>
<use x="290.60" y="427.40" xlink:href="#hl1"/>
<use x="290.60" y="433.40" xlink:href="#hl1"/>
<use x="290.60" y="436.40" xlink:href="#HD"/>
<use x="290.60" y="415.40" xlink:href="#HD"/>
<use x="290.60" y="409.40" xlink:href="#HD"/>
<use x="290.60" y="403.40" xlink:href="#HD"/>
<use x="394.50" y="427.40" xlink:href="#hl1"/>
<use x="394.50" y="433.40" xlink:href="#hl1"/>
<use x="394.50" y="439.40" xlink:href="#hl1"/>
<use x="394.50" y="445.40" xlink:href="#hl1"/>
<use x="394.50" y="448.40" xlink:href="#HD"/>
<use x="394.50" y="427.40" xlink:href="#HD"/>
<use x="394.50" y="421.40" xlink:href="#HD"/>
<use x="394.50" y="415.40" xlink:href="#HD"/>
<use x="484.70" y="427.40" xlink:href="#hl"/>
<use x="484.70" y="427.40" xlink:href="#hd"/>
<path d="M488.20 427.40v-21.00" class="stroke"/>
<use x="517.80" y="421.40" xlink:href="#hd"/>
<path d="M521.30 421.40v-21.00" class="stroke"/>
<use x="538.60" y="415.40" xlink:href="#hd"/>
<path d="M542.10 415.40v-21.00" class="stroke"/>
<use x="559.50" y="421.40" xlink:href="#hd"/>
<path d="M563.00 421.40v-21.00" class="stroke"/>
<use x="601.70" y="427.40" xlink:href="#hl1"/>
<use x="601.70" y="433.40" xlink:href="#hl1"/>
<use x="601.70" y="436.40" xlink:href="#HD"/>
<use x="601.70" y="415.40" xlink:href="#HD"/>
<use x="601.70" y="409.40" xlink:href="#HD"/>
<use x="601.70" y="403.40" xlink:href="#HD"/>
<g transform="rotate(270)">
<use x="-442.40" y="69.00" xlink:href="#ltr"/>
<use x="-436.40" y="69.00" xlink:href="#ltr"/>
<use x="-430.40" y="69.00" xlink:href="#ltr"/>
<use x="-424.40" y="69.00" xlink:href="#ltr"/>
<use x="-418.40" y="69.00" xlink:href="#ltr"/>
<use x="-412.40" y="69.00" xlink:href="#ltr"/>
<use x="-406.40" y="69.00" xlink:href="#ltr"/>
</g>
<g transform="rotate(270)">
<use x="-451.40" y="172.80" xlink:href="#ltr"/>
<use x="-445.40" y="172.80" xlink:href="#ltr"/>
<use x="-439.40" y="172.80" xlink:href="#ltr"/>
<use x="-433.40" y="172.80" xlink:href="#ltr"/>
<use x="-427.40" y="172.80" xlink:href="#ltr"/>
<use x="-421.40" y="172.80" xlink:href="#ltr"/>
<use x="-415.40" y="172.80" xlink:href="#ltr"/>
</g>
<g transform="rotate(270)">
<use x="-439.40" y="277.10" xlink:href="#ltr"/>
<use x="-433.40" y="277.10" xlink:href="#ltr"/>
<use x="-427.40" y="277.10" xlink:href="#ltr"/>
<use x="-421.40" y="277.10" xlink:href="#ltr"/>
<use x="-415.40" y="277.10" xlink:href="#ltr"/>
<use x="-409.40" y="277.10" xlink:href="#ltr"/>
<use x="-403.40" y="277.10" xlink:href="#ltr"/>
</g>
<g transform="rotate(270)">
<use x="-451.40" y="381.00" xlink:href="#ltr"/>
<use x="-445.40" y="381.00" xlink:href="#ltr"/>
<use x="-439.40" y="381.00" xlink:href="#ltr"/>
<use x="-433.40" y="381.00" xlink:href="#ltr"/>
<use x="-427.40" y="381.00" xlink:href="#ltr"/>
<use x="-421.40" y="381.00" xlink:href="#ltr"/>
<use x="-415.40" y="381.00" xlink:href="#ltr"/>
</g>
<g transform="rotate(270)">
<use x="-439.40" y="588.20" xlink:href="#ltr"/>
<use x="-433.40" y="588.20" xlink:href="#ltr"/>
<use x="-427.40" y="588.20" xlink:href="#ltr"/>
<use x="-421.40" y="588.20" xlink:href="#ltr"/>
<use x="-415.40" y="588.20" xlink:href="#ltr"/>
<use x="-409.40" y="588.20" xlink:href="#ltr"/>
<use x="-403.40" y="588.20" xlink:href="#ltr"/>
</g>
</g>
<g stroke-width="0.70" style="font:bold 13.00px Times">
<path class="stroke" stroke-width="1"
	d="M10.00 559.40v-82.00"/>
<g transform="translate(10.00,477.40) scale(1,0.82)">
	<use xlink:href="#brace"/>
</g>
<path class="stroke" stroke-width="1"
	d="M192.10 501.40v-24.00"/>
<path class="stroke" stroke-width="1"
	d="M192.10 559.40v-24.00"/>
<path class="stroke" stroke-width="1"
	d="M342.20 501.40v-24.00"/>
<path class="stroke" stroke-width="1"
	d="M342.20 559.40v-24.00"/>
<path class="stroke" stroke-width="1"
	d="M498.60 501.40v-24.00"/>
<path class="stroke" stroke-width="1"
	d="M498.60 559.40v-24.00"/>
<path class="stroke" stroke-width="1"
	d="M675.60 501.40v-24.00"/>
<path class="stroke" stroke-width="1"
	d="M675.60 559.40v-24.00"/>
<path class="stroke" stroke-width="1"
	d="M691.60 501.40v-24.00"/>
<path class="stroke" stroke-width="1"
	d="M691.60 559.40v-24.00"/>
<path d="m10.00 501.40
	h681.60
	M10.00 495.40
	h681.60
	M10.00 489.40
	h681.60
	M10.00 483.40
	h681.60
	M10.00 477.40
	h681.60
	" class="stroke"/>
<path d="m10.00 559.40
	h681.60
	M10.00 553.40
	h681.60
	M10.00 547.40
	h681.60
	M10.00 541.40
	h681.60
	M10.00 535.40
	h681.60
	" class="stroke"/>
</g>
<g stroke-width="0.70" style="font:bold 13.00px Times">
<text x="73.80" y="464.80">IV<tspan
	 style="font:italic 11.00px Times">¹</tspan></text>
</g>
<g stroke-width="0.70" style="font:bold 13.00px Times">
<text x="203.50" y="467.80">I</text>
</g>
<g stroke-width="0.70" style="font:bold 13.00px Times">
<text x="361.30" y="472.80">V<tspan
	 style="font:italic 11.00px Times">¹</tspan></text>
</g>
<g stroke-width="0.70" style="font:bold 13.00px Times">
<text x="521.70" y="467.80">I</text>
<use x="22.00" y="495.40" xlink:href="#tclef"/>
<use x="37.00" y="489.40" xlink:href="#ft0"/>
<use x="42.50" y="480.40" xlink:href="#ft0"/>
<use x="48.00" y="492.40" xlink:href="#ft0"/>
<use x="81.50" y="492.40" xlink:href="#hd"/>
<path d="M85.00 492.40v-21.00" class="stroke"/>
<use x="118.40" y="492.40" xlink:href="#hd"/>
<path d="M121.90 492.40v-21.00" class="stroke"/>
<use x="155.40" y="495.40" xlink:href="#Hd"/>
<path d="M158.90 495.40v-21.00" class="stroke"/>
<use x="205.30" y="495.40" xlink:href="#hd"/>
<path d="M208.80 495.40v-21.00" class="stroke"/>
<use x="242.30" y="486.40" xlink:href="#hd"/>
<path d="M238.80 486.40v21.00" class="stroke"/>
<use x="279.20" y="486.40" xlink:href="#hd"/>
<path d="M275.70 486.40v21.00" class="stroke"/>
<use x="316.20" y="486.40" xlink:href="#hd"/>
<path d="M312.70 486.40v21.00" class="stroke"/>
<use x="367.20" y="489.40" xlink:href="#hd"/>
<circle class="fill" cx="374.90" cy="486.40" r="1.2"/>
<path d="M363.70 489.40v21.00" class="stroke"/>
<use x="409.40" y="492.40" xlink:href="#hd"/>
<path d="M412.90 492.40v-21.00" class="stroke"/>
<path class="fill"
	d="M412.90 471.40c0.6 5.6 9.6 9 5.6 18.4
	1.6 -6 -1.3 -11.6 -5.6 -12.8
"/>
<use x="435.60" y="495.40" xlink:href="#hd"/>
<path d="M439.10 495.40v-21.00" class="stroke"/>
<use x="472.60" y="492.40" xlink:href="#hd"/>
<path d="M476.10 492.40v-21.00" class="stroke"/>
<use x="523.60" y="495.40" xlink:href="#hd"/>
<path d="M527.10 495.40v-21.00" class="stroke"/>
<use x="560.50" y="498.40" xlink:href="#hd"/>
<path d="M564.00 498.40v-21.00" class="stroke"/>
<use x="597.40" y="501.40" xlink:href="#Hd"/>
<circle class="fill" cx="606.10" cy="498.40" r="1.2"/>
<path d="M600.90 501.40v-21.00" class="stroke"/>
<use x="22.00" y="541.40" xlink:href="#bclef"/>
<use x="37.00" y="553.40" xlink:href="#ft0"/>
<use x="42.50" y="544.40" xlink:href="#ft0"/>
<use x="48.00" y="556.40" xlink:href="#ft0"/>
<use x="82.50" y="565.40" xlink:href="#hl1"/>
<use x="82.50" y="571.40" xlink:href="#hl1"/>
<use x="82.50" y="577.40" xlink:href="#hl1"/>
<use x="82.50" y="577.40" xlink:href="#HD"/>
<use x="82.50" y="556.40" xlink:href="#HD"/>
<use x="82.50" y="550.40" xlink:href="#HD"/>
<use x="82.50" y="544.40" xlink:href="#HD"/>
<use x="205.30" y="565.40" xlink:href="#hl"/>
<use x="205.30" y="565.40" xlink:href="#hd"/>
<path d="M208.80 565.40v-21.00" class="stroke"/>
<use x="242.30" y="559.40" xlink:href="#hd"/>
<path d="M245.80 559.40v-21.00" class="stroke"/>
<use x="279.20" y="553.40" xlink:href="#hd"/>
<path d="M282.70 553.40v-21.00" class="stroke"/>
<use x="316.20" y="559.40" xlink:href="#hd"/>
<path d="M319.70 559.40v-21.00" class="stroke"/>
<use x="368.20" y="565.40" xlink:href="#hl1"/>
<use x="368.20" y="571.40" xlink:href="#hl1"/>
<use x="368.20" y="574.40" xlink:href="#HD"/>
<use x="368.20" y="553.40" xlink:href="#HD"/>
<use x="368.20" y="547.40" xlink:href="#HD"/>
<use x="368.20" y="541.40" xlink:href="#HD"/>
<use x="524.60" y="565.40" xlink:href="#hl1"/>
<use x="524.60" y="571.40" xlink:href="#hl1"/>
<use x="524.60" y="577.40" xlink:href="#hl1"/>
<use x="524.60" y="583.40" xlink:href="#hl1"/>
<use x="524.60" y="586.40" xlink:href="#HD"/>
<use x="524.60" y="565.40" xlink:href="#HD"/>
<use x="524.60" y="559.40" xlink:href="#HD"/>
<use x="524.60" y="553.40" xlink:href="#HD"/>
<use x="649.60" y="565.40" xlink:href="#hl"/>
<use x="649.60" y="571.40" xlink:href="#hl"/>
<use x="649.60" y="577.40" xlink:href="#hl"/>
<use x="649.60" y="583.40" xlink:href="#hl"/>
<use x="649.60" y="586.40" xlink:href="#hd"/>
<path d="M653.10 586.40v-52.00" class="stroke"/>
<use x="649.60" y="565.40" xlink:href="#hd"/>
<use x="649.60" y="559.40" xlink:href="#hd"/>
<use x="649.60" y="553.40" xlink:href="#hd"/>
<path class="fill"
	d="M527.10 586.40c14.51 6.64 104.48 6.64 118.99 -0.00
	v0.32c-18.08 8.32 -100.91 8.32 -118.99 -0.32"/>
<path class="fill"
	d="M527.10 565.40c14.51 6.64 104.48 6.64 118.99 -0.00
	v0.32c-18.08 8.32 -100.91 8.32 -118.99 -0.32"/>
<path class="fill"
	d="M527.10 559.40c14.51 -6.64 104.48 -6.64 118.99 -0.00
	v-0.32c-18.08 -8.32 -100.91 -8.32 -118.99 0.32"/>
<path class="fill"
	d="M527.10 553.40c14.51 -6.64 104.48 -6.64 118.99 -0.00
	v-0.32c-18.08 -8.32 -100.91 -8.32 -118.99 0.32"/>
<g transform="rotate(270)">
<use x="-580.40" y="69.00" xlink:href="#ltr"/>
<use x="-574.40" y="69.00" xlink:href="#ltr"/>
<use x="-568.40" y="69.00" xlink:href="#ltr"/>
<use x="-562.40" y="69.00" xlink:href="#ltr"/>
<use x="-556.40" y="69.00" xlink:href="#ltr"/>
<use x="-550.40" y="69.00" xlink:href="#ltr"/>
<use x="-544.40" y="69.00" xlink:href="#ltr"/>
</g>
<g transform="rotate(270)">
<use x="-577.40" y="354.70" xlink:href="#ltr"/>
<use x="-571.40" y="354.70" xlink:href="#ltr"/>
<use x="-565.40" y="354.70" xlink:href="#ltr"/>
<use x="-559.40" y="354.70" xlink:href="#ltr"/>
<use x="-553.40" y="354.70" xlink:href="#ltr"/>
<use x="-547.40" y="354.70" xlink:href="#ltr"/>
<use x="-541.40" y="354.70" xlink:href="#ltr"/>
</g>
<g transform="rotate(270)">
<use x="-589.40" y="511.10" xlink:href="#ltr"/>
<use x="-583.40" y="511.10" xlink:href="#ltr"/>
<use x="-577.40" y="511.10" xlink:href="#ltr"/>
<use x="-571.40" y="511.10" xlink:href="#ltr"/>
<use x="-565.40" y="511.10" xlink:href="#ltr"/>
<use x="-559.40" y="511.10" xlink:href="#ltr"/>
<use x="-553.40" y="511.10" xlink:href="#ltr"/>
</g>
<g transform="rotate(270)">
<use x="-589.40" y="639.60" xlink:href="#ltr"/>
<use x="-583.40" y="639.60" xlink:href="#ltr"/>
<use x="-577.40" y="639.60" xlink:href="#ltr"/>
<use x="-571.40" y="639.60" xlink:href="#ltr"/>
<use x="-565.40" y="639.60" xlink:href="#ltr"/>
<use x="-559.40" y="639.60" xlink:href="#ltr"/>
<use x="-553.40" y="639.60" xlink:href="#ltr"/>
</g>
</g>
</svg>
