<?xml version="1.0" standalone="no"?>
<!DOCTYPE svg PUBLIC "-//W3C//DTD SVG 1.1//EN"
	"http://www.w3.org/Graphics/SVG/1.1/DTD/svg11.dtd">
<svg xmlns="http://www.w3.org/2000/svg" version="1.1"
	xmlns:xlink="http://www.w3.org/1999/xlink"
	color="black"
	width="701.60px" height="431.00px" viewBox="0 0 701.60 431.00" preserveAspectRatio="xMidYMid meet">
<style type="text/css">
.fill {fill: currentColor}
.stroke {stroke: currentColor; fill: none}
text{white-space: pre}
</style>
<title>/tmp/reharm_hymnal_L1/tis_midnight_and_on_olive_s_brow.abc (1) tune 1</title>
<!-- Creator: abcm2ps-8.14.11 -->
<!-- CreationDate: Apr 24, 2026 15:32 -->
<!-- CommandLine: /tmp/reharm_hymnal_L1/tis_midnight_and_on_olive_s_brow.abc -g -O /tmp/reharm_hymnal_L1/tis_midnight_and_on_olive_s_brow -->
<g stroke-width="0.70">
<!-- title: 002. 'Tis Midnight and On Olive's Brow -->
</g>
<g stroke-width="0.70" style="font:20.00px Times">
<text x="350.80" y="22.00" text-anchor="middle">002. &apos;Tis Midnight and On Olive&apos;s Brow</text>
</g>
<g stroke-width="0.70" style="font:20.00px Times">
<path class="stroke" stroke-width="1"
	d="M10.00 143.00v-82.00"/>
<defs>
<path id="brace" class="fill" d="m-2.5 101
	c-4.5 -4.6 -7.5 -12.2 -4.4 -26.8
	3.5 -14.3 3.2 -21.7 -2.1 -24.2
	7.4 2.4 7.3 14.2 3.5 29.5
	-2.7 9.5 -1.5 16.2 3 21.5
	M-2.5 1c-4.5 4.6 -7.5 12.2 -4.4 26.8
	c3.5 14.3 3.2 21.7 -2.1 24.2
	7.4 -2.4 7.3 -14.2 3.5 -29.5
	-2.7 -9.5 -1.5 -16.2 3 -21.5"/>
</defs>
<g transform="translate(10.00,61.00) scale(1,0.82)">
	<use xlink:href="#brace"/>
</g>
<path class="stroke" stroke-width="1"
	d="M167.70 85.00v-24.00"/>
<path class="stroke" stroke-width="1"
	d="M167.70 143.00v-24.00"/>
<path class="stroke" stroke-width="1"
	d="M277.40 85.00v-24.00"/>
<path class="stroke" stroke-width="1"
	d="M277.40 143.00v-24.00"/>
<path class="stroke" stroke-width="1"
	d="M387.10 85.00v-24.00"/>
<path class="stroke" stroke-width="1"
	d="M387.10 143.00v-24.00"/>
<path class="stroke" stroke-width="1"
	d="M497.90 85.00v-24.00"/>
<path class="stroke" stroke-width="1"
	d="M497.90 143.00v-24.00"/>
<path class="stroke" stroke-width="1"
	d="M604.00 85.00v-24.00"/>
<path class="stroke" stroke-width="1"
	d="M604.00 143.00v-24.00"/>
<path class="stroke" stroke-width="1"
	d="M691.60 85.00v-24.00"/>
<path class="stroke" stroke-width="1"
	d="M691.60 143.00v-24.00"/>
<path d="m10.00 85.00
	h681.60
	M10.00 79.00
	h681.60
	M10.00 73.00
	h681.60
	M10.00 67.00
	h681.60
	M10.00 61.00
	h681.60
	" class="stroke"/>
<path d="m10.00 143.00
	h681.60
	M10.00 137.00
	h681.60
	M10.00 131.00
	h681.60
	M10.00 125.00
	h681.60
	M10.00 119.00
	h681.60
	" class="stroke"/>
</g>
<g stroke-width="0.70" style="font:bold 13.00px Times">
<text x="82.30" y="54.40">vi</text>
</g>
<g stroke-width="0.70" style="font:bold 13.00px Times">
<text x="178.80" y="48.40">I</text>
</g>
<g stroke-width="0.70" style="font:bold 13.00px Times">
<text x="286.60" y="56.40">I<tspan
	 style="font:italic 11.00px Times">²</tspan></text>
</g>
<g stroke-width="0.70" style="font:bold 13.00px Times">
<text x="399.30" y="56.40">I</text>
</g>
<g stroke-width="0.70" style="font:bold 13.00px Times">
<text x="518.60" y="48.40">vi</text>
</g>
<g stroke-width="0.70" style="font:bold 13.00px Times">
<text x="625.30" y="56.40">I<tspan
	 style="font:italic 11.00px Times">¹</tspan></text>
</g>
<g stroke-width="0.70" style="font:italic 11.00px Times">
<defs>
<path id="utclef" class="fill" d="m-50 -90
	c-72 -41 -72 -158 52 -188
	150 -10 220 188 90 256
	-114 52 -275 0 -293 -136
	-15 -181 93 -229 220 -334
	88 -87 79 -133 62 -210
	-51 33 -94 105 -89 186
	17 267 36 374 49 574
	6 96 -19 134 -77 135
	-80 1 -126 -93 -61 -133
	85 -41 133 101 31 105
	23 17 92 37 90 -92
	-10 -223 -39 -342 -50 -617
	0 -90 0 -162 96 -232
	56 72 63 230 22 289
	-74 106 -257 168 -255 316
	9 153 148 185 252 133
	86 -65 29 -192 -80 -176
	-71 12 -105 67 -59 124"/>
<use id="tclef" transform="translate(0,6) scale(0.045)"
	xlink:href="#utclef"/>
</defs>
<use x="22.00" y="79.00" xlink:href="#tclef"/>
<defs>
<path id="uflat" class="fill" d="
	m100 -746
	h32
	v734
	l-32 4
	m32 -332
	c46 -72 152 -90 208 -20
	100 110 -120 326 -208 348
	m0 -28
	c54 0 200 -206 130 -290
	-50 -60 -130 -4 -130 34"/>
<use id="ft0" transform="translate(-3.5,3.5) scale(0.018)"
	xlink:href="#uflat"/>
</defs>
<use x="37.00" y="73.00" xlink:href="#ft0"/>
<g style="font:bold 16px serif"
	transform="translate(53.00,84.50) scale(1.2,1)">
	<text text-anchor="middle">4</text>
	<text y="-12" text-anchor="middle">4</text>
</g>
<defs>
<path id="Hd" class="fill" d="m3 -1.6
	c-1 -1.8 -7 1.4 -6 3.2
	1 1.8 7 -1.4 6 -3.2
	m0.5 -0.3
	c2 3.8 -5 7.6 -7 3.8
	-2 -3.8 5 -7.6 7 -3.8"/>
</defs>
<use x="86.50" y="82.00" xlink:href="#Hd"/>
<path d="M90.00 82.00v-21.00" class="stroke"/>
<defs>
<ellipse id="hd" rx="4.1" ry="2.9"
	transform="rotate(-20)" class="fill"/>
</defs>
<use x="122.80" y="82.00" xlink:href="#hd"/>
<path d="M126.30 82.00v-21.00" class="stroke"/>
<use x="148.70" y="79.00" xlink:href="#hd"/>
<path d="M152.20 79.00v-21.00" class="stroke"/>
<use x="180.70" y="76.00" xlink:href="#Hd"/>
<circle class="fill" cx="189.40" cy="76.00" r="1.2"/>
<path d="M184.20 76.00v-21.00" class="stroke"/>
<use x="258.40" y="67.00" xlink:href="#hd"/>
<path d="M254.90 67.00v21.00" class="stroke"/>
<use x="290.40" y="70.00" xlink:href="#Hd"/>
<path d="M286.90 70.00v21.00" class="stroke"/>
<use x="342.30" y="73.00" xlink:href="#Hd"/>
<path d="M338.80 73.00v21.00" class="stroke"/>
<defs>
<path id="HD" class="fill" d="m-2.7 -1.4
	c1.5 -2.8 6.9 0 5.3 2.7
	-1.5 2.8 -6.9 0 -5.3 -2.7
	m8.3 1.4
	c0 -1.5 -2.2 -3 -5.6 -3
	-3.4 0 -5.6 1.5 -5.6 3
	0 1.5 2.2 3 5.6 3
	3.4 0 5.6 -1.5 5.6 -3"/>
</defs>
<use x="402.10" y="76.00" xlink:href="#HD"/>
<use x="522.90" y="76.00" xlink:href="#Hd"/>
<path d="M526.40 76.00v-21.00" class="stroke"/>
<use x="559.20" y="76.00" xlink:href="#hd"/>
<path d="M562.70 76.00v-21.00" class="stroke"/>
<use x="585.10" y="73.00" xlink:href="#hd"/>
<path d="M588.60 73.00v-21.00" class="stroke"/>
<use x="629.00" y="70.00" xlink:href="#Hd"/>
<path d="M625.50 70.00v21.00" class="stroke"/>
<use x="665.40" y="82.00" xlink:href="#Hd"/>
<path d="M668.90 82.00v-21.00" class="stroke"/>
<defs>
<path id="ubclef" class="fill" d="m-200 -87
	c124 -35 222 -78 254 -236
	43 -228 -167 -246 -192 -103
	59 -80 157 22 92 78
	-62 47 -115 -22 -106 -88
	21 -141 270 -136 274 52
	-1 175 -106 264 -322 297
	m357 -250
	c0 -36 51 -34 51 0
	0 37 -51 36 -51 0
	m-2 -129
	c0 -36 51 -34 51 0
	0 38 -51 37 -51 0"/>
<use id="bclef" transform="translate(0,18) scale(0.045)"
	xlink:href="#ubclef"/>
</defs>
<use x="22.00" y="125.00" xlink:href="#bclef"/>
<use x="37.00" y="137.00" xlink:href="#ft0"/>
<g style="font:bold 16px serif"
	transform="translate(53.00,142.50) scale(1.2,1)">
	<text text-anchor="middle">4</text>
	<text y="-12" text-anchor="middle">4</text>
</g>
<defs>
<path id="hl1" class="stroke" d="m-7 0h14"/>
</defs>
<use x="87.50" y="149.00" xlink:href="#hl1"/>
<use x="87.50" y="152.00" xlink:href="#HD"/>
<use x="87.50" y="131.00" xlink:href="#HD"/>
<use x="87.50" y="125.00" xlink:href="#HD"/>
<use x="87.50" y="119.00" xlink:href="#HD"/>
<use x="180.70" y="146.00" xlink:href="#hd"/>
<path d="M184.20 146.00v-21.00" class="stroke"/>
<use x="206.60" y="140.00" xlink:href="#hd"/>
<path d="M210.10 140.00v-21.00" class="stroke"/>
<use x="232.50" y="134.00" xlink:href="#hd"/>
<path d="M236.00 134.00v-21.00" class="stroke"/>
<use x="258.40" y="140.00" xlink:href="#hd"/>
<path d="M261.90 140.00v-21.00" class="stroke"/>
<use x="290.40" y="146.00" xlink:href="#hd"/>
<path d="M293.90 146.00v-21.00" class="stroke"/>
<use x="316.30" y="140.00" xlink:href="#hd"/>
<path d="M319.80 140.00v-21.00" class="stroke"/>
<use x="342.30" y="134.00" xlink:href="#hd"/>
<path d="M345.80 134.00v-21.00" class="stroke"/>
<use x="368.20" y="140.00" xlink:href="#hd"/>
<path d="M371.70 140.00v-21.00" class="stroke"/>
<use x="401.10" y="146.00" xlink:href="#hd"/>
<path d="M404.60 146.00v-21.00" class="stroke"/>
<use x="427.10" y="140.00" xlink:href="#hd"/>
<path d="M430.60 140.00v-21.00" class="stroke"/>
<use x="453.00" y="134.00" xlink:href="#hd"/>
<path d="M456.50 134.00v-21.00" class="stroke"/>
<use x="478.90" y="140.00" xlink:href="#hd"/>
<path d="M482.40 140.00v-21.00" class="stroke"/>
<use x="523.90" y="149.00" xlink:href="#hl1"/>
<use x="523.90" y="152.00" xlink:href="#HD"/>
<use x="523.90" y="131.00" xlink:href="#HD"/>
<use x="523.90" y="125.00" xlink:href="#HD"/>
<use x="523.90" y="119.00" xlink:href="#HD"/>
<use x="630.00" y="149.00" xlink:href="#hl1"/>
<use x="630.00" y="155.00" xlink:href="#hl1"/>
<use x="630.00" y="161.00" xlink:href="#hl1"/>
<use x="630.00" y="167.00" xlink:href="#hl1"/>
<use x="630.00" y="167.00" xlink:href="#HD"/>
<use x="630.00" y="146.00" xlink:href="#HD"/>
<use x="630.00" y="140.00" xlink:href="#HD"/>
<use x="630.00" y="134.00" xlink:href="#HD"/>
<defs>
<path id="ltr" class="fill"
    d="m0 -0.4c2 -1.5 3.4 -1.9 3.9 0.4
	c0.2 0.8 0.7 0.7 2.1 -0.4
	v0.8c-2 1.5 -3.4 1.9 -3.9 -0.4
	c-0.2 -0.8 -0.7 -0.7 -2.1 0.4z"/>
</defs>
<g transform="rotate(270)">
<use x="-155.00" y="74.00" xlink:href="#ltr"/>
<use x="-149.00" y="74.00" xlink:href="#ltr"/>
<use x="-143.00" y="74.00" xlink:href="#ltr"/>
<use x="-137.00" y="74.00" xlink:href="#ltr"/>
<use x="-131.00" y="74.00" xlink:href="#ltr"/>
<use x="-125.00" y="74.00" xlink:href="#ltr"/>
<use x="-119.00" y="74.00" xlink:href="#ltr"/>
</g>
<g transform="rotate(270)">
<use x="-155.00" y="510.40" xlink:href="#ltr"/>
<use x="-149.00" y="510.40" xlink:href="#ltr"/>
<use x="-143.00" y="510.40" xlink:href="#ltr"/>
<use x="-137.00" y="510.40" xlink:href="#ltr"/>
<use x="-131.00" y="510.40" xlink:href="#ltr"/>
<use x="-125.00" y="510.40" xlink:href="#ltr"/>
<use x="-119.00" y="510.40" xlink:href="#ltr"/>
</g>
<g transform="rotate(270)">
<use x="-170.00" y="616.50" xlink:href="#ltr"/>
<use x="-164.00" y="616.50" xlink:href="#ltr"/>
<use x="-158.00" y="616.50" xlink:href="#ltr"/>
<use x="-152.00" y="616.50" xlink:href="#ltr"/>
<use x="-146.00" y="616.50" xlink:href="#ltr"/>
<use x="-140.00" y="616.50" xlink:href="#ltr"/>
<use x="-134.00" y="616.50" xlink:href="#ltr"/>
</g>
</g>
<g stroke-width="0.70" style="font:italic 11.00px Times">
<path class="stroke" stroke-width="1"
	d="M10.00 278.00v-82.00"/>
<g transform="translate(10.00,196.00) scale(1,0.82)">
	<use xlink:href="#brace"/>
</g>
<path class="stroke" stroke-width="1"
	d="M164.40 220.00v-24.00"/>
<path class="stroke" stroke-width="1"
	d="M164.40 278.00v-24.00"/>
<path class="stroke" stroke-width="1"
	d="M286.20 220.00v-24.00"/>
<path class="stroke" stroke-width="1"
	d="M286.20 278.00v-24.00"/>
<path class="stroke" stroke-width="1"
	d="M408.10 220.00v-24.00"/>
<path class="stroke" stroke-width="1"
	d="M408.10 278.00v-24.00"/>
<path class="stroke" stroke-width="1"
	d="M529.90 220.00v-24.00"/>
<path class="stroke" stroke-width="1"
	d="M529.90 278.00v-24.00"/>
<path class="stroke" stroke-width="1"
	d="M625.50 220.00v-24.00"/>
<path class="stroke" stroke-width="1"
	d="M625.50 278.00v-24.00"/>
<path class="stroke" stroke-width="1"
	d="M691.60 220.00v-24.00"/>
<path class="stroke" stroke-width="1"
	d="M691.60 278.00v-24.00"/>
<path d="m10.00 220.00
	h681.60
	M10.00 214.00
	h681.60
	M10.00 208.00
	h681.60
	M10.00 202.00
	h681.60
	M10.00 196.00
	h681.60
	" class="stroke"/>
<path d="m10.00 278.00
	h681.60
	M10.00 272.00
	h681.60
	M10.00 266.00
	h681.60
	M10.00 260.00
	h681.60
	M10.00 254.00
	h681.60
	" class="stroke"/>
</g>
<g stroke-width="0.70" style="font:bold 13.00px Times">
<text x="51.70" y="183.40">I<tspan
	 style="font:italic 11.00px Times">²</tspan></text>
</g>
<g stroke-width="0.70" style="font:bold 13.00px Times">
<text x="175.50" y="189.40">I</text>
</g>
<g stroke-width="0.70" style="font:bold 13.00px Times">
<text x="297.40" y="189.40">I</text>
</g>
<g stroke-width="0.70" style="font:bold 13.00px Times">
<text x="415.30" y="186.40">vii</text>
</g>
<g stroke-width="0.70" style="font:bold 13.00px Times">
<text x="550.70" y="189.40">vi</text>
</g>
<g stroke-width="0.70" style="font:bold 13.00px Times">
<text x="645.90" y="191.40">iii</text>
<use x="22.00" y="214.00" xlink:href="#tclef"/>
<use x="37.00" y="208.00" xlink:href="#ft0"/>
<use x="55.50" y="211.00" xlink:href="#Hd"/>
<path d="M59.00 211.00v-21.00" class="stroke"/>
<use x="114.10" y="214.00" xlink:href="#Hd"/>
<path d="M117.60 214.00v-21.00" class="stroke"/>
<use x="177.40" y="217.00" xlink:href="#Hd"/>
<circle class="fill" cx="186.10" cy="217.00" r="1.2"/>
<path d="M180.90 217.00v-21.00" class="stroke"/>
<use x="265.20" y="211.00" xlink:href="#hd"/>
<path d="M268.70 211.00v-21.00" class="stroke"/>
<use x="299.20" y="217.00" xlink:href="#Hd"/>
<circle class="fill" cx="307.90" cy="217.00" r="1.2"/>
<path d="M302.70 217.00v-21.00" class="stroke"/>
<use x="387.10" y="211.00" xlink:href="#hd"/>
<path d="M390.60 211.00v-21.00" class="stroke"/>
<use x="421.10" y="214.00" xlink:href="#Hd"/>
<path d="M424.60 214.00v-21.00" class="stroke"/>
<use x="479.70" y="211.00" xlink:href="#Hd"/>
<path d="M483.20 211.00v-21.00" class="stroke"/>
<use x="554.90" y="217.00" xlink:href="#Hd"/>
<path d="M558.40 217.00v-21.00" class="stroke"/>
<use x="596.20" y="214.00" xlink:href="#Hd"/>
<path d="M599.70 214.00v-21.00" class="stroke"/>
<use x="651.50" y="220.00" xlink:href="#HD"/>
<use x="22.00" y="260.00" xlink:href="#bclef"/>
<use x="37.00" y="272.00" xlink:href="#ft0"/>
<use x="55.50" y="281.00" xlink:href="#hd"/>
<path d="M59.00 281.00v-21.00" class="stroke"/>
<use x="84.80" y="275.00" xlink:href="#hd"/>
<path d="M88.30 275.00v-21.00" class="stroke"/>
<use x="114.10" y="269.00" xlink:href="#hd"/>
<path d="M117.60 269.00v-21.00" class="stroke"/>
<use x="143.40" y="275.00" xlink:href="#hd"/>
<path d="M146.90 275.00v-21.00" class="stroke"/>
<use x="177.40" y="281.00" xlink:href="#hd"/>
<path d="M180.90 281.00v-21.00" class="stroke"/>
<use x="206.60" y="275.00" xlink:href="#hd"/>
<path d="M210.10 275.00v-21.00" class="stroke"/>
<use x="235.90" y="269.00" xlink:href="#hd"/>
<path d="M239.40 269.00v-21.00" class="stroke"/>
<use x="265.20" y="275.00" xlink:href="#hd"/>
<path d="M268.70 275.00v-21.00" class="stroke"/>
<use x="299.20" y="281.00" xlink:href="#hd"/>
<path d="M302.70 281.00v-21.00" class="stroke"/>
<use x="328.50" y="275.00" xlink:href="#hd"/>
<path d="M332.00 275.00v-21.00" class="stroke"/>
<use x="357.80" y="269.00" xlink:href="#hd"/>
<path d="M361.30 269.00v-21.00" class="stroke"/>
<use x="387.10" y="275.00" xlink:href="#hd"/>
<path d="M390.60 275.00v-21.00" class="stroke"/>
<use x="421.10" y="263.00" xlink:href="#hd"/>
<path d="M417.60 263.00v21.00" class="stroke"/>
<use x="450.40" y="257.00" xlink:href="#hd"/>
<path d="M446.90 257.00v21.00" class="stroke"/>
<use x="479.70" y="251.00" xlink:href="#hd"/>
<path d="M476.20 251.00v21.00" class="stroke"/>
<use x="508.90" y="257.00" xlink:href="#hd"/>
<path d="M505.40 257.00v21.00" class="stroke"/>
<use x="555.90" y="284.00" xlink:href="#hl1"/>
<use x="555.90" y="287.00" xlink:href="#HD"/>
<use x="555.90" y="266.00" xlink:href="#HD"/>
<use x="555.90" y="260.00" xlink:href="#HD"/>
<use x="555.90" y="254.00" xlink:href="#HD"/>
<use x="651.50" y="284.00" xlink:href="#hl1"/>
<use x="651.50" y="290.00" xlink:href="#hl1"/>
<use x="651.50" y="296.00" xlink:href="#hl1"/>
<use x="651.50" y="296.00" xlink:href="#HD"/>
<use x="651.50" y="275.00" xlink:href="#HD"/>
<use x="651.50" y="269.00" xlink:href="#HD"/>
<use x="651.50" y="263.00" xlink:href="#HD"/>
<g transform="rotate(270)">
<use x="-290.00" y="542.40" xlink:href="#ltr"/>
<use x="-284.00" y="542.40" xlink:href="#ltr"/>
<use x="-278.00" y="542.40" xlink:href="#ltr"/>
<use x="-272.00" y="542.40" xlink:href="#ltr"/>
<use x="-266.00" y="542.40" xlink:href="#ltr"/>
<use x="-260.00" y="542.40" xlink:href="#ltr"/>
<use x="-254.00" y="542.40" xlink:href="#ltr"/>
</g>
<g transform="rotate(270)">
<use x="-299.00" y="638.00" xlink:href="#ltr"/>
<use x="-293.00" y="638.00" xlink:href="#ltr"/>
<use x="-287.00" y="638.00" xlink:href="#ltr"/>
<use x="-281.00" y="638.00" xlink:href="#ltr"/>
<use x="-275.00" y="638.00" xlink:href="#ltr"/>
<use x="-269.00" y="638.00" xlink:href="#ltr"/>
<use x="-263.00" y="638.00" xlink:href="#ltr"/>
</g>
</g>
<g stroke-width="0.70" style="font:bold 13.00px Times">
<path class="stroke" stroke-width="1"
	d="M10.00 407.00v-82.00"/>
<g transform="translate(10.00,325.00) scale(1,0.82)">
	<use xlink:href="#brace"/>
</g>
<path class="stroke" stroke-width="1"
	d="M233.50 349.00v-24.00"/>
<path class="stroke" stroke-width="1"
	d="M233.50 407.00v-24.00"/>
<path class="stroke" stroke-width="1"
	d="M380.30 349.00v-24.00"/>
<path class="stroke" stroke-width="1"
	d="M380.30 407.00v-24.00"/>
<path class="stroke" stroke-width="1"
	d="M592.50 349.00v-24.00"/>
<path class="stroke" stroke-width="1"
	d="M592.50 407.00v-24.00"/>
<path class="stroke" stroke-width="1"
	d="M691.60 349.00v-24.00"/>
<path class="stroke" stroke-width="1"
	d="M691.60 407.00v-24.00"/>
<path d="m10.00 349.00
	h681.60
	M10.00 343.00
	h681.60
	M10.00 337.00
	h681.60
	M10.00 331.00
	h681.60
	M10.00 325.00
	h681.60
	" class="stroke"/>
<path d="m10.00 407.00
	h681.60
	M10.00 401.00
	h681.60
	M10.00 395.00
	h681.60
	M10.00 389.00
	h681.60
	M10.00 383.00
	h681.60
	" class="stroke"/>
</g>
<g stroke-width="0.70" style="font:bold 13.00px Times">
<text x="66.30" y="320.40">vi</text>
</g>
<g stroke-width="0.70" style="font:bold 13.00px Times">
<text x="254.80" y="312.40">iii</text>
</g>
<g stroke-width="0.70" style="font:bold 13.00px Times">
<text x="392.60" y="318.40">vi<tspan
	 style="font:italic 11.00px Times">²</tspan></text>
</g>
<g stroke-width="0.70" style="font:bold 13.00px Times">
<text x="614.10" y="320.40">vi</text>
<use x="22.00" y="343.00" xlink:href="#tclef"/>
<use x="37.00" y="337.00" xlink:href="#ft0"/>
<use x="70.50" y="352.00" xlink:href="#Hd"/>
<path d="M74.00 352.00v-21.00" class="stroke"/>
<use x="144.60" y="352.00" xlink:href="#hd"/>
<path d="M148.10 352.00v-21.00" class="stroke"/>
<use x="196.90" y="352.00" xlink:href="#hd"/>
<path d="M200.40 352.00v-21.00" class="stroke"/>
<use x="259.40" y="340.00" xlink:href="#Hd"/>
<circle class="fill" cx="268.10" cy="340.00" r="1.2"/>
<path d="M262.90 340.00v-21.00" class="stroke"/>
<use x="343.70" y="343.00" xlink:href="#hd"/>
<path d="M347.20 343.00v-21.00" class="stroke"/>
<use x="398.80" y="346.00" xlink:href="#Hd"/>
<path d="M402.30 346.00v-21.00" class="stroke"/>
<use x="503.50" y="349.00" xlink:href="#Hd"/>
<path d="M507.00 349.00v-21.00" class="stroke"/>
<use x="619.30" y="352.00" xlink:href="#HD"/>
<use x="619.30" y="331.00" xlink:href="#HD"/>
<use x="22.00" y="389.00" xlink:href="#bclef"/>
<use x="37.00" y="401.00" xlink:href="#ft0"/>
<use x="71.50" y="413.00" xlink:href="#hl1"/>
<use x="71.50" y="416.00" xlink:href="#HD"/>
<use x="71.50" y="395.00" xlink:href="#HD"/>
<use x="71.50" y="389.00" xlink:href="#HD"/>
<use x="71.50" y="383.00" xlink:href="#HD"/>
<use x="260.40" y="413.00" xlink:href="#hl1"/>
<use x="260.40" y="419.00" xlink:href="#hl1"/>
<use x="260.40" y="425.00" xlink:href="#hl1"/>
<use x="260.40" y="425.00" xlink:href="#HD"/>
<use x="260.40" y="404.00" xlink:href="#HD"/>
<use x="260.40" y="398.00" xlink:href="#HD"/>
<use x="260.40" y="392.00" xlink:href="#HD"/>
<use x="398.80" y="395.00" xlink:href="#hd"/>
<path d="M402.30 395.00v-21.00" class="stroke"/>
<use x="451.20" y="389.00" xlink:href="#hd"/>
<path d="M447.70 389.00v21.00" class="stroke"/>
<use x="503.50" y="383.00" xlink:href="#hd"/>
<path d="M500.00 383.00v21.00" class="stroke"/>
<use x="555.80" y="389.00" xlink:href="#hd"/>
<path d="M552.30 389.00v21.00" class="stroke"/>
<use x="619.30" y="413.00" xlink:href="#hl1"/>
<use x="619.30" y="416.00" xlink:href="#HD"/>
<use x="619.30" y="395.00" xlink:href="#HD"/>
<use x="619.30" y="389.00" xlink:href="#HD"/>
<use x="619.30" y="383.00" xlink:href="#HD"/>
<g transform="rotate(270)">
<use x="-419.00" y="58.00" xlink:href="#ltr"/>
<use x="-413.00" y="58.00" xlink:href="#ltr"/>
<use x="-407.00" y="58.00" xlink:href="#ltr"/>
<use x="-401.00" y="58.00" xlink:href="#ltr"/>
<use x="-395.00" y="58.00" xlink:href="#ltr"/>
<use x="-389.00" y="58.00" xlink:href="#ltr"/>
<use x="-383.00" y="58.00" xlink:href="#ltr"/>
</g>
<g transform="rotate(270)">
<use x="-428.00" y="246.90" xlink:href="#ltr"/>
<use x="-422.00" y="246.90" xlink:href="#ltr"/>
<use x="-416.00" y="246.90" xlink:href="#ltr"/>
<use x="-410.00" y="246.90" xlink:href="#ltr"/>
<use x="-404.00" y="246.90" xlink:href="#ltr"/>
<use x="-398.00" y="246.90" xlink:href="#ltr"/>
<use x="-392.00" y="246.90" xlink:href="#ltr"/>
</g>
<g transform="rotate(270)">
<use x="-419.00" y="605.80" xlink:href="#ltr"/>
<use x="-413.00" y="605.80" xlink:href="#ltr"/>
<use x="-407.00" y="605.80" xlink:href="#ltr"/>
<use x="-401.00" y="605.80" xlink:href="#ltr"/>
<use x="-395.00" y="605.80" xlink:href="#ltr"/>
<use x="-389.00" y="605.80" xlink:href="#ltr"/>
<use x="-383.00" y="605.80" xlink:href="#ltr"/>
</g>
</g>
</svg>
