<?xml version="1.0" standalone="no"?>
<!DOCTYPE svg PUBLIC "-//W3C//DTD SVG 1.1//EN"
	"http://www.w3.org/Graphics/SVG/1.1/DTD/svg11.dtd">
<svg xmlns="http://www.w3.org/2000/svg" version="1.1"
	xmlns:xlink="http://www.w3.org/1999/xlink"
	color="black"
	width="701.60px" height="443.00px" viewBox="0 0 701.60 443.00" preserveAspectRatio="xMidYMid meet">
<style type="text/css">
.fill {fill: currentColor}
.stroke {stroke: currentColor; fill: none}
text{white-space: pre}
</style>
<title>/tmp/retab_hymnal_L7/comfort_comfort_ye_my_people.abc (1) tune 1</title>
<!-- Creator: abcm2ps-8.14.11 -->
<!-- CreationDate: Apr 24, 2026 15:38 -->
<!-- CommandLine: /tmp/retab_hymnal_L7/comfort_comfort_ye_my_people.abc -g -O /tmp/retab_hymnal_L7/comfort_comfort_ye_my_people -->
<g stroke-width="0.70">
<!-- title: 056. Comfort, Comfort Ye My People -->
</g>
<g stroke-width="0.70" style="font:20.00px Times">
<text x="350.80" y="22.00" text-anchor="middle">056. Comfort, Comfort Ye My People</text>
</g>
<g stroke-width="0.70" style="font:20.00px Times">
<path class="stroke" stroke-width="1"
	d="M10.00 143.00v-82.00"/>
<defs>
<path id="brace" class="fill" d="m-2.5 101
	c-4.5 -4.6 -7.5 -12.2 -4.4 -26.8
	3.5 -14.3 3.2 -21.7 -2.1 -24.2
	7.4 2.4 7.3 14.2 3.5 29.5
	-2.7 9.5 -1.5 16.2 3 21.5
	M-2.5 1c-4.5 4.6 -7.5 12.2 -4.4 26.8
	c3.5 14.3 3.2 21.7 -2.1 24.2
	7.4 -2.4 7.3 -14.2 3.5 -29.5
	-2.7 -9.5 -1.5 -16.2 3 -21.5"/>
</defs>
<g transform="translate(10.00,61.00) scale(1,0.82)">
	<use xlink:href="#brace"/>
</g>
<path class="stroke" stroke-width="1"
	d="M170.10 85.00v-24.00"/>
<path class="stroke" stroke-width="1"
	d="M170.10 143.00v-24.00"/>
<path class="stroke" stroke-width="1"
	d="M274.70 85.00v-24.00"/>
<path class="stroke" stroke-width="1"
	d="M274.70 143.00v-24.00"/>
<path class="stroke" stroke-width="1"
	d="M383.20 85.00v-24.00"/>
<path class="stroke" stroke-width="1"
	d="M383.20 143.00v-24.00"/>
<path class="stroke" stroke-width="1"
	d="M478.40 85.00v-24.00"/>
<path class="stroke" stroke-width="1"
	d="M478.40 143.00v-24.00"/>
<path class="stroke" stroke-width="1"
	d="M587.00 85.00v-24.00"/>
<path class="stroke" stroke-width="1"
	d="M587.00 143.00v-24.00"/>
<path class="stroke" stroke-width="1"
	d="M691.60 85.00v-24.00"/>
<path class="stroke" stroke-width="1"
	d="M691.60 143.00v-24.00"/>
<path d="m10.00 85.00
	h681.60
	M10.00 79.00
	h681.60
	M10.00 73.00
	h681.60
	M10.00 67.00
	h681.60
	M10.00 61.00
	h681.60
	" class="stroke"/>
<path d="m10.00 143.00
	h681.60
	M10.00 137.00
	h681.60
	M10.00 131.00
	h681.60
	M10.00 125.00
	h681.60
	M10.00 119.00
	h681.60
	" class="stroke"/>
</g>
<g stroke-width="0.70" style="font:bold 13.00px Times">
<text x="84.70" y="54.40">I</text>
</g>
<g stroke-width="0.70" style="font:bold 13.00px Times">
<text x="177.40" y="54.40">IV</text>
</g>
<g stroke-width="0.70" style="font:bold 13.00px Times">
<text x="283.50" y="54.40">vi</text>
</g>
<g stroke-width="0.70" style="font:bold 13.00px Times">
<text x="404.40" y="48.40">I<tspan
	 style="font:italic 11.00px Times">²</tspan></text>
</g>
<g stroke-width="0.70" style="font:bold 13.00px Times">
<text x="501.50" y="54.40">I</text>
</g>
<g stroke-width="0.70" style="font:bold 13.00px Times">
<text x="594.20" y="54.40">IV</text>
<defs>
<path id="utclef" class="fill" d="m-50 -90
	c-72 -41 -72 -158 52 -188
	150 -10 220 188 90 256
	-114 52 -275 0 -293 -136
	-15 -181 93 -229 220 -334
	88 -87 79 -133 62 -210
	-51 33 -94 105 -89 186
	17 267 36 374 49 574
	6 96 -19 134 -77 135
	-80 1 -126 -93 -61 -133
	85 -41 133 101 31 105
	23 17 92 37 90 -92
	-10 -223 -39 -342 -50 -617
	0 -90 0 -162 96 -232
	56 72 63 230 22 289
	-74 106 -257 168 -255 316
	9 153 148 185 252 133
	86 -65 29 -192 -80 -176
	-71 12 -105 67 -59 124"/>
<use id="tclef" transform="translate(0,6) scale(0.045)"
	xlink:href="#utclef"/>
</defs>
<use x="22.00" y="79.00" xlink:href="#tclef"/>
<defs>
<path id="uflat" class="fill" d="
	m100 -746
	h32
	v734
	l-32 4
	m32 -332
	c46 -72 152 -90 208 -20
	100 110 -120 326 -208 348
	m0 -28
	c54 0 200 -206 130 -290
	-50 -60 -130 -4 -130 34"/>
<use id="ft0" transform="translate(-3.5,3.5) scale(0.018)"
	xlink:href="#uflat"/>
</defs>
<use x="37.00" y="73.00" xlink:href="#ft0"/>
<g style="font:bold 16px serif"
	transform="translate(53.00,84.50) scale(1.2,1)">
	<text text-anchor="middle">4</text>
	<text y="-12" text-anchor="middle">6</text>
</g>
<defs>
<path id="Hd" class="fill" d="m3 -1.6
	c-1 -1.8 -7 1.4 -6 3.2
	1 1.8 7 -1.4 6 -3.2
	m0.5 -0.3
	c2 3.8 -5 7.6 -7 3.8
	-2 -3.8 5 -7.6 7 -3.8"/>
</defs>
<use x="86.50" y="82.00" xlink:href="#Hd"/>
<path d="M90.00 82.00v-21.00" class="stroke"/>
<defs>
<ellipse id="hd" rx="4.1" ry="2.9"
	transform="rotate(-20)" class="fill"/>
</defs>
<use x="111.90" y="79.00" xlink:href="#hd"/>
<path d="M115.40 79.00v-21.00" class="stroke"/>
<use x="130.40" y="76.00" xlink:href="#Hd"/>
<path d="M133.90 76.00v-21.00" class="stroke"/>
<use x="155.80" y="79.00" xlink:href="#hd"/>
<path d="M159.30 79.00v-21.00" class="stroke"/>
<use x="183.10" y="82.00" xlink:href="#hd"/>
<path d="M186.60 82.00v-21.00" class="stroke"/>
<use x="201.60" y="85.00" xlink:href="#hd"/>
<path d="M205.10 85.00v-21.00" class="stroke"/>
<use x="220.10" y="88.00" xlink:href="#Hd"/>
<path d="M223.60 88.00v-21.00" class="stroke"/>
<defs>
<path id="hl" class="stroke" d="m-6 0h12"/>
</defs>
<use x="255.60" y="91.00" xlink:href="#hl"/>
<use x="255.60" y="91.00" xlink:href="#Hd"/>
<path d="M259.10 91.00v-21.00" class="stroke"/>
<use x="287.70" y="82.00" xlink:href="#Hd"/>
<path d="M291.20 82.00v-21.00" class="stroke"/>
<use x="325.00" y="79.00" xlink:href="#hd"/>
<path d="M328.50 79.00v-21.00" class="stroke"/>
<use x="343.50" y="76.00" xlink:href="#Hd"/>
<path d="M347.00 76.00v-21.00" class="stroke"/>
<use x="368.90" y="73.00" xlink:href="#hd"/>
<path d="M372.40 73.00v-21.00" class="stroke"/>
<use x="408.20" y="76.00" xlink:href="#Hd"/>
<path d="M411.70 76.00v-21.00" class="stroke"/>
<use x="433.70" y="79.00" xlink:href="#Hd"/>
<path d="M437.20 79.00v-21.00" class="stroke"/>
<use x="459.20" y="82.00" xlink:href="#Hd"/>
<path d="M462.70 82.00v-21.00" class="stroke"/>
<use x="503.40" y="82.00" xlink:href="#Hd"/>
<path d="M506.90 82.00v-21.00" class="stroke"/>
<use x="528.70" y="79.00" xlink:href="#hd"/>
<path d="M532.20 79.00v-21.00" class="stroke"/>
<use x="547.30" y="76.00" xlink:href="#Hd"/>
<path d="M550.80 76.00v-21.00" class="stroke"/>
<use x="572.70" y="79.00" xlink:href="#hd"/>
<path d="M576.20 79.00v-21.00" class="stroke"/>
<use x="600.00" y="82.00" xlink:href="#hd"/>
<path d="M603.50 82.00v-21.00" class="stroke"/>
<use x="618.40" y="85.00" xlink:href="#hd"/>
<path d="M621.90 85.00v-21.00" class="stroke"/>
<use x="637.00" y="88.00" xlink:href="#Hd"/>
<path d="M640.50 88.00v-21.00" class="stroke"/>
<use x="672.40" y="91.00" xlink:href="#hl"/>
<use x="672.40" y="91.00" xlink:href="#Hd"/>
<path d="M675.90 91.00v-21.00" class="stroke"/>
<defs>
<path id="ubclef" class="fill" d="m-200 -87
	c124 -35 222 -78 254 -236
	43 -228 -167 -246 -192 -103
	59 -80 157 22 92 78
	-62 47 -115 -22 -106 -88
	21 -141 270 -136 274 52
	-1 175 -106 264 -322 297
	m357 -250
	c0 -36 51 -34 51 0
	0 37 -51 36 -51 0
	m-2 -129
	c0 -36 51 -34 51 0
	0 38 -51 37 -51 0"/>
<use id="bclef" transform="translate(0,18) scale(0.045)"
	xlink:href="#ubclef"/>
</defs>
<use x="22.00" y="125.00" xlink:href="#bclef"/>
<use x="37.00" y="137.00" xlink:href="#ft0"/>
<g style="font:bold 16px serif"
	transform="translate(53.00,142.50) scale(1.2,1)">
	<text text-anchor="middle">4</text>
	<text y="-12" text-anchor="middle">6</text>
</g>
<defs>
<path id="hl1" class="stroke" d="m-7 0h14"/>
</defs>
<use x="87.50" y="149.00" xlink:href="#hl1"/>
<use x="87.50" y="155.00" xlink:href="#hl1"/>
<use x="87.50" y="161.00" xlink:href="#hl1"/>
<use x="87.50" y="167.00" xlink:href="#hl1"/>
<defs>
<path id="HD" class="fill" d="m-2.7 -1.4
	c1.5 -2.8 6.9 0 5.3 2.7
	-1.5 2.8 -6.9 0 -5.3 -2.7
	m8.3 1.4
	c0 -1.5 -2.2 -3 -5.6 -3
	-3.4 0 -5.6 1.5 -5.6 3
	0 1.5 2.2 3 5.6 3
	3.4 0 5.6 -1.5 5.6 -3"/>
</defs>
<use x="87.50" y="167.00" xlink:href="#HD"/>
<circle class="fill" cx="99.20" cy="164.00" r="1.2"/>
<use x="87.50" y="146.00" xlink:href="#HD"/>
<circle class="fill" cx="99.20" cy="146.00" r="1.2"/>
<use x="87.50" y="140.00" xlink:href="#HD"/>
<circle class="fill" cx="99.20" cy="140.00" r="1.2"/>
<use x="87.50" y="134.00" xlink:href="#HD"/>
<circle class="fill" cx="99.20" cy="134.00" r="1.2"/>
<use x="183.10" y="137.00" xlink:href="#Hd"/>
<circle class="fill" cx="191.80" cy="134.00" r="1.2"/>
<path d="M186.60 137.00v-31.00" class="stroke"/>
<use x="183.10" y="131.00" xlink:href="#Hd"/>
<circle class="fill" cx="191.80" cy="128.00" r="1.2"/>
<use x="183.10" y="125.00" xlink:href="#Hd"/>
<circle class="fill" cx="191.80" cy="122.00" r="1.2"/>
<use x="236.50" y="131.00" xlink:href="#hd"/>
<path d="M240.00 131.00v-21.00" class="stroke"/>
<use x="255.60" y="125.00" xlink:href="#Hd"/>
<path d="M252.10 125.00v21.00" class="stroke"/>
<use x="287.70" y="131.00" xlink:href="#hd"/>
<path d="M284.20 131.00v21.00" class="stroke"/>
<use x="306.20" y="125.00" xlink:href="#hd"/>
<path d="M302.70 125.00v21.00" class="stroke"/>
<use x="326.00" y="119.00" xlink:href="#HD"/>
<use x="409.20" y="149.00" xlink:href="#hl1"/>
<use x="409.20" y="155.00" xlink:href="#hl1"/>
<use x="409.20" y="161.00" xlink:href="#hl1"/>
<use x="409.20" y="167.00" xlink:href="#hl1"/>
<use x="409.20" y="167.00" xlink:href="#HD"/>
<circle class="fill" cx="418.90" cy="164.00" r="1.2"/>
<use x="409.20" y="146.00" xlink:href="#HD"/>
<circle class="fill" cx="418.90" cy="146.00" r="1.2"/>
<use x="409.20" y="140.00" xlink:href="#HD"/>
<circle class="fill" cx="418.90" cy="140.00" r="1.2"/>
<use x="409.20" y="134.00" xlink:href="#HD"/>
<circle class="fill" cx="418.90" cy="134.00" r="1.2"/>
<use x="504.40" y="149.00" xlink:href="#hl1"/>
<use x="504.40" y="155.00" xlink:href="#hl1"/>
<use x="504.40" y="161.00" xlink:href="#hl1"/>
<use x="504.40" y="167.00" xlink:href="#hl1"/>
<use x="504.40" y="167.00" xlink:href="#HD"/>
<circle class="fill" cx="514.10" cy="164.00" r="1.2"/>
<use x="504.40" y="146.00" xlink:href="#HD"/>
<circle class="fill" cx="514.10" cy="146.00" r="1.2"/>
<use x="504.40" y="140.00" xlink:href="#HD"/>
<circle class="fill" cx="514.10" cy="140.00" r="1.2"/>
<use x="504.40" y="134.00" xlink:href="#HD"/>
<circle class="fill" cx="514.10" cy="134.00" r="1.2"/>
<use x="600.00" y="137.00" xlink:href="#Hd"/>
<circle class="fill" cx="608.70" cy="134.00" r="1.2"/>
<path d="M603.50 137.00v-31.00" class="stroke"/>
<use x="600.00" y="131.00" xlink:href="#Hd"/>
<circle class="fill" cx="608.70" cy="128.00" r="1.2"/>
<use x="600.00" y="125.00" xlink:href="#Hd"/>
<circle class="fill" cx="608.70" cy="122.00" r="1.2"/>
<use x="653.40" y="131.00" xlink:href="#hd"/>
<path d="M656.90 131.00v-21.00" class="stroke"/>
<use x="672.40" y="125.00" xlink:href="#Hd"/>
<path d="M668.90 125.00v21.00" class="stroke"/>
<defs>
<path id="ltr" class="fill"
    d="m0 -0.4c2 -1.5 3.4 -1.9 3.9 0.4
	c0.2 0.8 0.7 0.7 2.1 -0.4
	v0.8c-2 1.5 -3.4 1.9 -3.9 -0.4
	c-0.2 -0.8 -0.7 -0.7 -2.1 0.4z"/>
</defs>
<g transform="rotate(270)">
<use x="-170.00" y="74.00" xlink:href="#ltr"/>
<use x="-164.00" y="74.00" xlink:href="#ltr"/>
<use x="-158.00" y="74.00" xlink:href="#ltr"/>
<use x="-152.00" y="74.00" xlink:href="#ltr"/>
<use x="-146.00" y="74.00" xlink:href="#ltr"/>
<use x="-140.00" y="74.00" xlink:href="#ltr"/>
<use x="-134.00" y="74.00" xlink:href="#ltr"/>
</g>
<g transform="rotate(270)">
<use x="-170.00" y="395.70" xlink:href="#ltr"/>
<use x="-164.00" y="395.70" xlink:href="#ltr"/>
<use x="-158.00" y="395.70" xlink:href="#ltr"/>
<use x="-152.00" y="395.70" xlink:href="#ltr"/>
<use x="-146.00" y="395.70" xlink:href="#ltr"/>
<use x="-140.00" y="395.70" xlink:href="#ltr"/>
<use x="-134.00" y="395.70" xlink:href="#ltr"/>
</g>
<g transform="rotate(270)">
<use x="-170.00" y="490.90" xlink:href="#ltr"/>
<use x="-164.00" y="490.90" xlink:href="#ltr"/>
<use x="-158.00" y="490.90" xlink:href="#ltr"/>
<use x="-152.00" y="490.90" xlink:href="#ltr"/>
<use x="-146.00" y="490.90" xlink:href="#ltr"/>
<use x="-140.00" y="490.90" xlink:href="#ltr"/>
<use x="-134.00" y="490.90" xlink:href="#ltr"/>
</g>
</g>
<g stroke-width="0.70" style="font:bold 13.00px Times">
<path class="stroke" stroke-width="1"
	d="M10.00 278.00v-82.00"/>
<g transform="translate(10.00,196.00) scale(1,0.82)">
	<use xlink:href="#brace"/>
</g>
<path class="stroke" stroke-width="1"
	d="M153.70 220.00v-24.00"/>
<path class="stroke" stroke-width="1"
	d="M153.70 278.00v-24.00"/>
<path class="stroke" stroke-width="1"
	d="M250.90 220.00v-24.00"/>
<path class="stroke" stroke-width="1"
	d="M250.90 278.00v-24.00"/>
<path class="stroke" stroke-width="1"
	d="M362.40 220.00v-24.00"/>
<path class="stroke" stroke-width="1"
	d="M362.40 278.00v-24.00"/>
<path class="stroke" stroke-width="1"
	d="M471.50 220.00v-24.00"/>
<path class="stroke" stroke-width="1"
	d="M471.50 278.00v-24.00"/>
<path class="stroke" stroke-width="1"
	d="M582.50 220.00v-24.00"/>
<path class="stroke" stroke-width="1"
	d="M582.50 278.00v-24.00"/>
<path class="stroke" stroke-width="1"
	d="M691.60 220.00v-24.00"/>
<path class="stroke" stroke-width="1"
	d="M691.60 278.00v-24.00"/>
<path d="m10.00 220.00
	h681.60
	M10.00 214.00
	h681.60
	M10.00 208.00
	h681.60
	M10.00 202.00
	h681.60
	M10.00 196.00
	h681.60
	" class="stroke"/>
<path d="m10.00 278.00
	h681.60
	M10.00 272.00
	h681.60
	M10.00 266.00
	h681.60
	M10.00 260.00
	h681.60
	M10.00 254.00
	h681.60
	" class="stroke"/>
</g>
<g stroke-width="0.70" style="font:bold 13.00px Times">
<text x="51.30" y="189.40">vi</text>
</g>
<g stroke-width="0.70" style="font:bold 13.00px Times">
<text x="175.00" y="183.40">I<tspan
	 style="font:italic 11.00px Times">²</tspan></text>
</g>
<g stroke-width="0.70" style="font:bold 13.00px Times">
<text x="274.10" y="183.40">I</text>
</g>
<g stroke-width="0.70" style="font:bold 13.00px Times">
<text x="385.60" y="183.40">I</text>
</g>
<g stroke-width="0.70" style="font:bold 13.00px Times">
<text x="490.70" y="191.40">IV</text>
</g>
<g stroke-width="0.70" style="font:bold 13.00px Times">
<text x="603.60" y="191.40">V</text>
<use x="22.00" y="214.00" xlink:href="#tclef"/>
<use x="37.00" y="208.00" xlink:href="#ft0"/>
<use x="55.50" y="217.00" xlink:href="#Hd"/>
<path d="M59.00 217.00v-21.00" class="stroke"/>
<use x="93.80" y="214.00" xlink:href="#hd"/>
<path d="M97.30 214.00v-21.00" class="stroke"/>
<use x="112.90" y="211.00" xlink:href="#Hd"/>
<path d="M116.40 211.00v-21.00" class="stroke"/>
<use x="139.00" y="208.00" xlink:href="#hd"/>
<path d="M142.50 208.00v-21.00" class="stroke"/>
<use x="178.70" y="211.00" xlink:href="#Hd"/>
<path d="M182.20 211.00v-21.00" class="stroke"/>
<use x="205.00" y="214.00" xlink:href="#Hd"/>
<path d="M208.50 214.00v-21.00" class="stroke"/>
<use x="231.20" y="217.00" xlink:href="#Hd"/>
<path d="M234.70 217.00v-21.00" class="stroke"/>
<use x="275.90" y="211.00" xlink:href="#Hd"/>
<path d="M279.40 211.00v-21.00" class="stroke"/>
<use x="302.10" y="211.00" xlink:href="#hd"/>
<path d="M305.60 211.00v-21.00" class="stroke"/>
<use x="321.60" y="205.00" xlink:href="#Hd"/>
<path d="M318.10 205.00v21.00" class="stroke"/>
<use x="347.70" y="208.00" xlink:href="#hd"/>
<path d="M344.20 208.00v21.00" class="stroke"/>
<use x="387.40" y="211.00" xlink:href="#hd"/>
<path d="M390.90 211.00v-21.00" class="stroke"/>
<use x="406.40" y="214.00" xlink:href="#hd"/>
<path d="M409.90 214.00v-21.00" class="stroke"/>
<use x="425.50" y="211.00" xlink:href="#Hd"/>
<path d="M429.00 211.00v-21.00" class="stroke"/>
<defs>
<rect id="r2" class="fill"
	x="-3.5" y="-3" width="7" height="3"/>
</defs>
<use x="451.80" y="208.00" xlink:href="#r2"/>
<use x="496.50" y="205.00" xlink:href="#Hd"/>
<path d="M493.00 205.00v21.00" class="stroke"/>
<use x="522.60" y="205.00" xlink:href="#hd"/>
<path d="M519.10 205.00v21.00" class="stroke"/>
<use x="541.70" y="202.00" xlink:href="#Hd"/>
<path d="M538.20 202.00v21.00" class="stroke"/>
<use x="567.80" y="205.00" xlink:href="#hd"/>
<path d="M564.30 205.00v21.00" class="stroke"/>
<use x="607.50" y="208.00" xlink:href="#hd"/>
<path d="M604.00 208.00v21.00" class="stroke"/>
<use x="626.50" y="211.00" xlink:href="#hd"/>
<path d="M630.00 211.00v-21.00" class="stroke"/>
<use x="645.60" y="214.00" xlink:href="#Hd"/>
<path d="M649.10 214.00v-21.00" class="stroke"/>
<use x="671.90" y="208.00" xlink:href="#r2"/>
<use x="22.00" y="260.00" xlink:href="#bclef"/>
<use x="37.00" y="272.00" xlink:href="#ft0"/>
<use x="55.50" y="266.00" xlink:href="#hd"/>
<path d="M52.00 266.00v21.00" class="stroke"/>
<use x="74.50" y="260.00" xlink:href="#hd"/>
<path d="M71.00 260.00v21.00" class="stroke"/>
<use x="94.80" y="254.00" xlink:href="#HD"/>
<use x="179.70" y="284.00" xlink:href="#hl1"/>
<use x="179.70" y="290.00" xlink:href="#hl1"/>
<use x="179.70" y="296.00" xlink:href="#hl1"/>
<use x="179.70" y="302.00" xlink:href="#hl1"/>
<use x="179.70" y="302.00" xlink:href="#HD"/>
<circle class="fill" cx="189.40" cy="299.00" r="1.2"/>
<use x="179.70" y="281.00" xlink:href="#HD"/>
<circle class="fill" cx="189.40" cy="281.00" r="1.2"/>
<use x="179.70" y="275.00" xlink:href="#HD"/>
<circle class="fill" cx="189.40" cy="275.00" r="1.2"/>
<use x="179.70" y="269.00" xlink:href="#HD"/>
<circle class="fill" cx="189.40" cy="269.00" r="1.2"/>
<use x="276.90" y="284.00" xlink:href="#hl1"/>
<use x="276.90" y="290.00" xlink:href="#hl1"/>
<use x="276.90" y="296.00" xlink:href="#hl1"/>
<use x="276.90" y="302.00" xlink:href="#hl1"/>
<use x="276.90" y="302.00" xlink:href="#HD"/>
<circle class="fill" cx="286.60" cy="299.00" r="1.2"/>
<use x="276.90" y="281.00" xlink:href="#HD"/>
<circle class="fill" cx="286.60" cy="281.00" r="1.2"/>
<use x="276.90" y="275.00" xlink:href="#HD"/>
<circle class="fill" cx="286.60" cy="275.00" r="1.2"/>
<use x="276.90" y="269.00" xlink:href="#HD"/>
<circle class="fill" cx="286.60" cy="269.00" r="1.2"/>
<use x="388.40" y="284.00" xlink:href="#hl1"/>
<use x="388.40" y="290.00" xlink:href="#hl1"/>
<use x="388.40" y="296.00" xlink:href="#hl1"/>
<use x="388.40" y="302.00" xlink:href="#hl1"/>
<use x="388.40" y="302.00" xlink:href="#HD"/>
<circle class="fill" cx="398.10" cy="299.00" r="1.2"/>
<use x="388.40" y="281.00" xlink:href="#HD"/>
<circle class="fill" cx="398.10" cy="281.00" r="1.2"/>
<use x="388.40" y="275.00" xlink:href="#HD"/>
<circle class="fill" cx="398.10" cy="275.00" r="1.2"/>
<use x="388.40" y="269.00" xlink:href="#HD"/>
<circle class="fill" cx="398.10" cy="269.00" r="1.2"/>
<use x="497.50" y="284.00" xlink:href="#hl1"/>
<use x="497.50" y="290.00" xlink:href="#hl1"/>
<use x="497.50" y="293.00" xlink:href="#HD"/>
<circle class="fill" cx="507.20" cy="293.00" r="1.2"/>
<use x="497.50" y="272.00" xlink:href="#HD"/>
<circle class="fill" cx="507.20" cy="269.00" r="1.2"/>
<use x="497.50" y="266.00" xlink:href="#HD"/>
<circle class="fill" cx="507.20" cy="263.00" r="1.2"/>
<use x="497.50" y="260.00" xlink:href="#HD"/>
<circle class="fill" cx="507.20" cy="257.00" r="1.2"/>
<use x="608.50" y="284.00" xlink:href="#hl1"/>
<use x="608.50" y="290.00" xlink:href="#hl1"/>
<use x="608.50" y="290.00" xlink:href="#HD"/>
<circle class="fill" cx="618.20" cy="287.00" r="1.2"/>
<use x="608.50" y="269.00" xlink:href="#HD"/>
<circle class="fill" cx="618.20" cy="269.00" r="1.2"/>
<use x="608.50" y="263.00" xlink:href="#HD"/>
<circle class="fill" cx="618.20" cy="263.00" r="1.2"/>
<use x="608.50" y="257.00" xlink:href="#HD"/>
<circle class="fill" cx="618.20" cy="257.00" r="1.2"/>
<g transform="rotate(270)">
<use x="-305.00" y="166.20" xlink:href="#ltr"/>
<use x="-299.00" y="166.20" xlink:href="#ltr"/>
<use x="-293.00" y="166.20" xlink:href="#ltr"/>
<use x="-287.00" y="166.20" xlink:href="#ltr"/>
<use x="-281.00" y="166.20" xlink:href="#ltr"/>
<use x="-275.00" y="166.20" xlink:href="#ltr"/>
<use x="-269.00" y="166.20" xlink:href="#ltr"/>
</g>
<g transform="rotate(270)">
<use x="-305.00" y="263.40" xlink:href="#ltr"/>
<use x="-299.00" y="263.40" xlink:href="#ltr"/>
<use x="-293.00" y="263.40" xlink:href="#ltr"/>
<use x="-287.00" y="263.40" xlink:href="#ltr"/>
<use x="-281.00" y="263.40" xlink:href="#ltr"/>
<use x="-275.00" y="263.40" xlink:href="#ltr"/>
<use x="-269.00" y="263.40" xlink:href="#ltr"/>
</g>
<g transform="rotate(270)">
<use x="-305.00" y="374.90" xlink:href="#ltr"/>
<use x="-299.00" y="374.90" xlink:href="#ltr"/>
<use x="-293.00" y="374.90" xlink:href="#ltr"/>
<use x="-287.00" y="374.90" xlink:href="#ltr"/>
<use x="-281.00" y="374.90" xlink:href="#ltr"/>
<use x="-275.00" y="374.90" xlink:href="#ltr"/>
<use x="-269.00" y="374.90" xlink:href="#ltr"/>
</g>
<g transform="rotate(270)">
<use x="-296.00" y="484.00" xlink:href="#ltr"/>
<use x="-290.00" y="484.00" xlink:href="#ltr"/>
<use x="-284.00" y="484.00" xlink:href="#ltr"/>
<use x="-278.00" y="484.00" xlink:href="#ltr"/>
<use x="-272.00" y="484.00" xlink:href="#ltr"/>
<use x="-266.00" y="484.00" xlink:href="#ltr"/>
<use x="-260.00" y="484.00" xlink:href="#ltr"/>
</g>
<g transform="rotate(270)">
<use x="-293.00" y="595.00" xlink:href="#ltr"/>
<use x="-287.00" y="595.00" xlink:href="#ltr"/>
<use x="-281.00" y="595.00" xlink:href="#ltr"/>
<use x="-275.00" y="595.00" xlink:href="#ltr"/>
<use x="-269.00" y="595.00" xlink:href="#ltr"/>
<use x="-263.00" y="595.00" xlink:href="#ltr"/>
<use x="-257.00" y="595.00" xlink:href="#ltr"/>
</g>
</g>
<g stroke-width="0.70" style="font:bold 13.00px Times">
<path class="stroke" stroke-width="1"
	d="M10.00 413.00v-82.00"/>
<g transform="translate(10.00,331.00) scale(1,0.82)">
	<use xlink:href="#brace"/>
</g>
<path class="stroke" stroke-width="1"
	d="M206.50 355.00v-24.00"/>
<path class="stroke" stroke-width="1"
	d="M206.50 413.00v-24.00"/>
<path class="stroke" stroke-width="1"
	d="M367.90 355.00v-24.00"/>
<path class="stroke" stroke-width="1"
	d="M367.90 413.00v-24.00"/>
<path class="stroke" stroke-width="1"
	d="M533.10 355.00v-24.00"/>
<path class="stroke" stroke-width="1"
	d="M533.10 413.00v-24.00"/>
<path class="stroke" stroke-width="1"
	d="M691.60 355.00v-24.00"/>
<path class="stroke" stroke-width="1"
	d="M691.60 413.00v-24.00"/>
<path d="m10.00 355.00
	h681.60
	M10.00 349.00
	h681.60
	M10.00 343.00
	h681.60
	M10.00 337.00
	h681.60
	M10.00 331.00
	h681.60
	" class="stroke"/>
<path d="m10.00 413.00
	h681.60
	M10.00 407.00
	h681.60
	M10.00 401.00
	h681.60
	M10.00 395.00
	h681.60
	M10.00 389.00
	h681.60
	" class="stroke"/>
</g>
<g stroke-width="0.70" style="font:bold 13.00px Times">
<text x="64.30" y="318.40">vi<tspan
	 style="font:italic 11.00px Times">⁷</tspan></text>
</g>
<g stroke-width="0.70" style="font:bold 13.00px Times">
<text x="223.80" y="324.40">IV<tspan
	 style="font:italic 11.00px Times">⁷</tspan></text>
</g>
<g stroke-width="0.70" style="font:bold 13.00px Times">
<text x="389.20" y="318.40">I<tspan
	 style="font:italic 11.00px Times">⁷</tspan></text>
</g>
<g stroke-width="0.70" style="font:bold 13.00px Times">
<text x="554.30" y="319.40">I<tspan
	 style="font:italic 11.00px Times">¹</tspan></text>
</g>
<g stroke-width="0.70" style="font:italic 11.00px Times">
<use x="22.00" y="349.00" xlink:href="#tclef"/>
<use x="37.00" y="343.00" xlink:href="#ft0"/>
<use x="70.50" y="346.00" xlink:href="#Hd"/>
<path d="M74.00 346.00v-21.00" class="stroke"/>
<use x="114.20" y="340.00" xlink:href="#hd"/>
<path d="M110.70 340.00v21.00" class="stroke"/>
<use x="145.20" y="343.00" xlink:href="#Hd"/>
<path d="M141.70 343.00v21.00" class="stroke"/>
<use x="184.50" y="346.00" xlink:href="#hd"/>
<path d="M188.00 346.00v-21.00" class="stroke"/>
<use x="231.50" y="352.00" xlink:href="#hd"/>
<path d="M235.00 352.00v-21.00" class="stroke"/>
<use x="262.50" y="349.00" xlink:href="#hd"/>
<path d="M266.00 349.00v-21.00" class="stroke"/>
<use x="293.40" y="346.00" xlink:href="#Hd"/>
<path d="M296.90 346.00v-21.00" class="stroke"/>
<use x="337.00" y="352.00" xlink:href="#Hd"/>
<path d="M340.50 352.00v-21.00" class="stroke"/>
<use x="392.90" y="346.00" xlink:href="#Hd"/>
<path d="M396.40 346.00v-21.00" class="stroke"/>
<use x="436.50" y="346.00" xlink:href="#hd"/>
<path d="M440.00 346.00v-21.00" class="stroke"/>
<use x="467.50" y="343.00" xlink:href="#Hd"/>
<path d="M471.00 343.00v-21.00" class="stroke"/>
<use x="511.00" y="346.00" xlink:href="#hd"/>
<path d="M514.50 346.00v-21.00" class="stroke"/>
<use x="558.10" y="328.00" xlink:href="#hd"/>
<path d="M554.60 328.00v40.00" class="stroke"/>
<use x="558.10" y="349.00" xlink:href="#hd"/>
<use x="589.00" y="331.00" xlink:href="#hd"/>
<path d="M585.50 331.00v40.00" class="stroke"/>
<use x="589.00" y="352.00" xlink:href="#hd"/>
<use x="617.00" y="355.00" xlink:href="#Hd"/>
<path d="M620.50 355.00v-40.00" class="stroke"/>
<use x="617.00" y="334.00" xlink:href="#Hd"/>
<use x="660.70" y="331.00" xlink:href="#Hd"/>
<path d="M657.20 331.00v40.00" class="stroke"/>
<use x="660.70" y="352.00" xlink:href="#Hd"/>
<use x="22.00" y="395.00" xlink:href="#bclef"/>
<use x="37.00" y="407.00" xlink:href="#ft0"/>
<use x="71.50" y="419.00" xlink:href="#hl1"/>
<use x="71.50" y="422.00" xlink:href="#HD"/>
<circle class="fill" cx="83.20" cy="422.00" r="1.2"/>
<use x="71.50" y="401.00" xlink:href="#HD"/>
<circle class="fill" cx="83.20" cy="398.00" r="1.2"/>
<use x="71.50" y="395.00" xlink:href="#HD"/>
<circle class="fill" cx="83.20" cy="392.00" r="1.2"/>
<use x="71.50" y="389.00" xlink:href="#HD"/>
<circle class="fill" cx="83.20" cy="386.00" r="1.2"/>
<use x="232.50" y="419.00" xlink:href="#hl1"/>
<use x="232.50" y="425.00" xlink:href="#hl1"/>
<use x="232.50" y="428.00" xlink:href="#HD"/>
<circle class="fill" cx="242.20" cy="428.00" r="1.2"/>
<use x="232.50" y="407.00" xlink:href="#HD"/>
<circle class="fill" cx="242.20" cy="404.00" r="1.2"/>
<use x="232.50" y="401.00" xlink:href="#HD"/>
<circle class="fill" cx="242.20" cy="398.00" r="1.2"/>
<use x="232.50" y="395.00" xlink:href="#HD"/>
<circle class="fill" cx="242.20" cy="392.00" r="1.2"/>
<use x="393.90" y="419.00" xlink:href="#hl1"/>
<use x="393.90" y="425.00" xlink:href="#hl1"/>
<use x="393.90" y="431.00" xlink:href="#hl1"/>
<use x="393.90" y="437.00" xlink:href="#hl1"/>
<use x="393.90" y="437.00" xlink:href="#HD"/>
<circle class="fill" cx="403.60" cy="434.00" r="1.2"/>
<use x="393.90" y="416.00" xlink:href="#HD"/>
<circle class="fill" cx="403.60" cy="416.00" r="1.2"/>
<use x="393.90" y="410.00" xlink:href="#HD"/>
<circle class="fill" cx="403.60" cy="410.00" r="1.2"/>
<use x="393.90" y="404.00" xlink:href="#HD"/>
<circle class="fill" cx="403.60" cy="404.00" r="1.2"/>
<use x="559.10" y="419.00" xlink:href="#hl1"/>
<use x="559.10" y="425.00" xlink:href="#hl1"/>
<use x="559.10" y="431.00" xlink:href="#hl1"/>
<use x="559.10" y="437.00" xlink:href="#hl1"/>
<use x="559.10" y="437.00" xlink:href="#HD"/>
<circle class="fill" cx="568.80" cy="434.00" r="1.2"/>
<use x="559.10" y="416.00" xlink:href="#HD"/>
<circle class="fill" cx="568.80" cy="416.00" r="1.2"/>
<use x="559.10" y="410.00" xlink:href="#HD"/>
<circle class="fill" cx="568.80" cy="410.00" r="1.2"/>
<use x="559.10" y="404.00" xlink:href="#HD"/>
<circle class="fill" cx="568.80" cy="404.00" r="1.2"/>
<g transform="rotate(270)">
<use x="-425.00" y="58.00" xlink:href="#ltr"/>
<use x="-419.00" y="58.00" xlink:href="#ltr"/>
<use x="-413.00" y="58.00" xlink:href="#ltr"/>
<use x="-407.00" y="58.00" xlink:href="#ltr"/>
<use x="-401.00" y="58.00" xlink:href="#ltr"/>
<use x="-395.00" y="58.00" xlink:href="#ltr"/>
<use x="-389.00" y="58.00" xlink:href="#ltr"/>
</g>
<g transform="rotate(270)">
<use x="-431.00" y="219.00" xlink:href="#ltr"/>
<use x="-425.00" y="219.00" xlink:href="#ltr"/>
<use x="-419.00" y="219.00" xlink:href="#ltr"/>
<use x="-413.00" y="219.00" xlink:href="#ltr"/>
<use x="-407.00" y="219.00" xlink:href="#ltr"/>
<use x="-401.00" y="219.00" xlink:href="#ltr"/>
<use x="-395.00" y="219.00" xlink:href="#ltr"/>
</g>
<g transform="rotate(270)">
<use x="-440.00" y="380.40" xlink:href="#ltr"/>
<use x="-434.00" y="380.40" xlink:href="#ltr"/>
<use x="-428.00" y="380.40" xlink:href="#ltr"/>
<use x="-422.00" y="380.40" xlink:href="#ltr"/>
<use x="-416.00" y="380.40" xlink:href="#ltr"/>
<use x="-410.00" y="380.40" xlink:href="#ltr"/>
<use x="-404.00" y="380.40" xlink:href="#ltr"/>
</g>
<g transform="rotate(270)">
<use x="-440.00" y="545.60" xlink:href="#ltr"/>
<use x="-434.00" y="545.60" xlink:href="#ltr"/>
<use x="-428.00" y="545.60" xlink:href="#ltr"/>
<use x="-422.00" y="545.60" xlink:href="#ltr"/>
<use x="-416.00" y="545.60" xlink:href="#ltr"/>
<use x="-410.00" y="545.60" xlink:href="#ltr"/>
<use x="-404.00" y="545.60" xlink:href="#ltr"/>
</g>
</g>
</svg>
