<?xml version="1.0" standalone="no"?>
<!DOCTYPE svg PUBLIC "-//W3C//DTD SVG 1.1//EN"
	"http://www.w3.org/Graphics/SVG/1.1/DTD/svg11.dtd">
<svg xmlns="http://www.w3.org/2000/svg" version="1.1"
	xmlns:xlink="http://www.w3.org/1999/xlink"
	color="black"
	width="701.60px" height="442.40px" viewBox="0 0 701.60 442.40" preserveAspectRatio="xMidYMid meet">
<style type="text/css">
.fill {fill: currentColor}
.stroke {stroke: currentColor; fill: none}
text{white-space: pre}
</style>
<title>/tmp/retab_hymnal_L7/day_of_wrath_o_day_of_mourning.abc (1) tune 1</title>
<!-- Creator: abcm2ps-8.14.11 -->
<!-- CreationDate: Apr 24, 2026 15:38 -->
<!-- CommandLine: /tmp/retab_hymnal_L7/day_of_wrath_o_day_of_mourning.abc -g -O /tmp/retab_hymnal_L7/day_of_wrath_o_day_of_mourning -->
<g stroke-width="0.70">
<!-- title: 058. Day of Wrath, O Day of Mourning -->
</g>
<g stroke-width="0.70" style="font:20.00px Times">
<text x="350.80" y="22.00" text-anchor="middle">058. Day of Wrath, O Day of Mourning</text>
</g>
<g stroke-width="0.70" style="font:20.00px Times">
<path class="stroke" stroke-width="1"
	d="M10.00 145.40v-82.00"/>
<defs>
<path id="brace" class="fill" d="m-2.5 101
	c-4.5 -4.6 -7.5 -12.2 -4.4 -26.8
	3.5 -14.3 3.2 -21.7 -2.1 -24.2
	7.4 2.4 7.3 14.2 3.5 29.5
	-2.7 9.5 -1.5 16.2 3 21.5
	M-2.5 1c-4.5 4.6 -7.5 12.2 -4.4 26.8
	c3.5 14.3 3.2 21.7 -2.1 24.2
	7.4 -2.4 7.3 -14.2 3.5 -29.5
	-2.7 -9.5 -1.5 -16.2 3 -21.5"/>
</defs>
<g transform="translate(10.00,63.40) scale(1,0.82)">
	<use xlink:href="#brace"/>
</g>
<path class="stroke" stroke-width="1"
	d="M168.10 87.40v-24.00"/>
<path class="stroke" stroke-width="1"
	d="M168.10 145.40v-24.00"/>
<path class="stroke" stroke-width="1"
	d="M263.40 87.40v-24.00"/>
<path class="stroke" stroke-width="1"
	d="M263.40 145.40v-24.00"/>
<path class="stroke" stroke-width="1"
	d="M370.40 87.40v-24.00"/>
<path class="stroke" stroke-width="1"
	d="M370.40 145.40v-24.00"/>
<path class="stroke" stroke-width="1"
	d="M477.50 87.40v-24.00"/>
<path class="stroke" stroke-width="1"
	d="M477.50 145.40v-24.00"/>
<path class="stroke" stroke-width="1"
	d="M584.50 87.40v-24.00"/>
<path class="stroke" stroke-width="1"
	d="M584.50 145.40v-24.00"/>
<path class="stroke" stroke-width="1"
	d="M691.60 87.40v-24.00"/>
<path class="stroke" stroke-width="1"
	d="M691.60 145.40v-24.00"/>
<path d="m10.00 87.40
	h681.60
	M10.00 81.40
	h681.60
	M10.00 75.40
	h681.60
	M10.00 69.40
	h681.60
	M10.00 63.40
	h681.60
	" class="stroke"/>
<path d="m10.00 145.40
	h681.60
	M10.00 139.40
	h681.60
	M10.00 133.40
	h681.60
	M10.00 127.40
	h681.60
	M10.00 121.40
	h681.60
	" class="stroke"/>
</g>
<g stroke-width="0.70" style="font:bold 13.00px Times">
<text x="85.00" y="56.80">i</text>
</g>
<g stroke-width="0.70" style="font:bold 13.00px Times">
<text x="177.20" y="56.80">i<tspan
	 style="font:italic 11.00px Times">¹</tspan></text>
</g>
<g stroke-width="0.70" style="font:bold 13.00px Times">
<text x="284.10" y="47.80">iv</text>
</g>
<g stroke-width="0.70" style="font:bold 13.00px Times">
<text x="388.20" y="53.80">ii<tspan
	 style="font:italic 11.00px Times">ø7</tspan></text>
</g>
<g stroke-width="0.70" style="font:bold 13.00px Times">
<text x="498.20" y="53.80">iv</text>
</g>
<g stroke-width="0.70" style="font:bold 13.00px Times">
<text x="605.60" y="58.80">V</text>
<defs>
<path id="utclef" class="fill" d="m-50 -90
	c-72 -41 -72 -158 52 -188
	150 -10 220 188 90 256
	-114 52 -275 0 -293 -136
	-15 -181 93 -229 220 -334
	88 -87 79 -133 62 -210
	-51 33 -94 105 -89 186
	17 267 36 374 49 574
	6 96 -19 134 -77 135
	-80 1 -126 -93 -61 -133
	85 -41 133 101 31 105
	23 17 92 37 90 -92
	-10 -223 -39 -342 -50 -617
	0 -90 0 -162 96 -232
	56 72 63 230 22 289
	-74 106 -257 168 -255 316
	9 153 148 185 252 133
	86 -65 29 -192 -80 -176
	-71 12 -105 67 -59 124"/>
<use id="tclef" transform="translate(0,6) scale(0.045)"
	xlink:href="#utclef"/>
</defs>
<use x="22.00" y="81.40" xlink:href="#tclef"/>
<defs>
<path id="uflat" class="fill" d="
	m100 -746
	h32
	v734
	l-32 4
	m32 -332
	c46 -72 152 -90 208 -20
	100 110 -120 326 -208 348
	m0 -28
	c54 0 200 -206 130 -290
	-50 -60 -130 -4 -130 34"/>
<use id="ft0" transform="translate(-3.5,3.5) scale(0.018)"
	xlink:href="#uflat"/>
</defs>
<use x="37.00" y="75.40" xlink:href="#ft0"/>
<g style="font:bold 16px serif"
	transform="translate(53.00,86.90) scale(1.2,1)">
	<text text-anchor="middle">4</text>
	<text y="-12" text-anchor="middle">4</text>
</g>
<defs>
<ellipse id="hd" rx="4.1" ry="2.9"
	transform="rotate(-20)" class="fill"/>
</defs>
<use x="86.50" y="84.40" xlink:href="#hd"/>
<circle class="fill" cx="94.20" cy="84.40" r="1.2"/>
<path d="M90.00 84.40v-21.00" class="stroke"/>
<use x="112.70" y="87.40" xlink:href="#hd"/>
<path d="M116.20 87.40v-21.00" class="stroke"/>
<path class="fill"
	d="M116.20 66.40c0.6 5.6 9.6 9 5.6 18.4
	1.6 -6 -1.3 -11.6 -5.6 -12.8
"/>
<use x="129.70" y="90.40" xlink:href="#hd"/>
<path d="M133.20 90.40v-21.00" class="stroke"/>
<use x="151.50" y="87.40" xlink:href="#hd"/>
<path d="M155.00 87.40v-21.00" class="stroke"/>
<use x="180.60" y="84.40" xlink:href="#hd"/>
<path d="M184.10 84.40v-21.00" class="stroke"/>
<use x="203.00" y="81.40" xlink:href="#hd"/>
<path d="M206.50 81.40v-21.00" class="stroke"/>
<use x="224.90" y="78.40" xlink:href="#hd"/>
<path d="M228.40 78.40v-21.00" class="stroke"/>
<use x="246.70" y="90.40" xlink:href="#hd"/>
<path d="M250.20 90.40v-21.00" class="stroke"/>
<use x="288.40" y="75.40" xlink:href="#hd"/>
<path d="M291.90 75.40v-21.00" class="stroke"/>
<use x="310.20" y="75.40" xlink:href="#hd"/>
<path d="M313.70 75.40v-21.00" class="stroke"/>
<use x="332.00" y="78.40" xlink:href="#hd"/>
<path d="M335.50 78.40v-21.00" class="stroke"/>
<use x="353.80" y="90.40" xlink:href="#hd"/>
<path d="M357.30 90.40v-21.00" class="stroke"/>
<use x="395.40" y="81.40" xlink:href="#hd"/>
<path d="M398.90 81.40v-21.00" class="stroke"/>
<use x="417.20" y="84.40" xlink:href="#hd"/>
<path d="M420.70 84.40v-21.00" class="stroke"/>
<use x="439.00" y="87.40" xlink:href="#hd"/>
<path d="M442.50 87.40v-21.00" class="stroke"/>
<use x="460.90" y="84.40" xlink:href="#hd"/>
<path d="M464.40 84.40v-21.00" class="stroke"/>
<use x="502.50" y="81.40" xlink:href="#hd"/>
<path d="M506.00 81.40v-21.00" class="stroke"/>
<use x="524.30" y="81.40" xlink:href="#hd"/>
<path d="M527.80 81.40v-21.00" class="stroke"/>
<use x="546.10" y="81.40" xlink:href="#hd"/>
<path d="M549.60 81.40v-21.00" class="stroke"/>
<use x="567.90" y="84.40" xlink:href="#hd"/>
<path d="M571.40 84.40v-21.00" class="stroke"/>
<use x="609.50" y="87.40" xlink:href="#hd"/>
<path d="M613.00 87.40v-21.00" class="stroke"/>
<use x="631.30" y="84.40" xlink:href="#hd"/>
<path d="M634.80 84.40v-21.00" class="stroke"/>
<use x="653.20" y="87.40" xlink:href="#hd"/>
<path d="M656.70 87.40v-21.00" class="stroke"/>
<use x="675.00" y="90.40" xlink:href="#hd"/>
<path d="M678.50 90.40v-21.00" class="stroke"/>
<defs>
<path id="ubclef" class="fill" d="m-200 -87
	c124 -35 222 -78 254 -236
	43 -228 -167 -246 -192 -103
	59 -80 157 22 92 78
	-62 47 -115 -22 -106 -88
	21 -141 270 -136 274 52
	-1 175 -106 264 -322 297
	m357 -250
	c0 -36 51 -34 51 0
	0 37 -51 36 -51 0
	m-2 -129
	c0 -36 51 -34 51 0
	0 38 -51 37 -51 0"/>
<use id="bclef" transform="translate(0,18) scale(0.045)"
	xlink:href="#ubclef"/>
</defs>
<use x="22.00" y="127.40" xlink:href="#bclef"/>
<use x="37.00" y="139.40" xlink:href="#ft0"/>
<g style="font:bold 16px serif"
	transform="translate(53.00,144.90) scale(1.2,1)">
	<text text-anchor="middle">4</text>
	<text y="-12" text-anchor="middle">4</text>
</g>
<defs>
<path id="hl1" class="stroke" d="m-7 0h14"/>
</defs>
<use x="87.50" y="151.40" xlink:href="#hl1"/>
<defs>
<path id="HD" class="fill" d="m-2.7 -1.4
	c1.5 -2.8 6.9 0 5.3 2.7
	-1.5 2.8 -6.9 0 -5.3 -2.7
	m8.3 1.4
	c0 -1.5 -2.2 -3 -5.6 -3
	-3.4 0 -5.6 1.5 -5.6 3
	0 1.5 2.2 3 5.6 3
	3.4 0 5.6 -1.5 5.6 -3"/>
</defs>
<use x="87.50" y="154.40" xlink:href="#HD"/>
<use x="87.50" y="133.40" xlink:href="#HD"/>
<use x="87.50" y="127.40" xlink:href="#HD"/>
<use x="87.50" y="121.40" xlink:href="#HD"/>
<use x="180.60" y="133.40" xlink:href="#hd"/>
<path d="M184.10 133.40v-21.00" class="stroke"/>
<use x="203.00" y="127.40" xlink:href="#hd"/>
<path d="M199.50 127.40v21.00" class="stroke"/>
<defs>
<path id="Hd" class="fill" d="m3 -1.6
	c-1 -1.8 -7 1.4 -6 3.2
	1 1.8 7 -1.4 6 -3.2
	m0.5 -0.3
	c2 3.8 -5 7.6 -7 3.8
	-2 -3.8 5 -7.6 7 -3.8"/>
</defs>
<use x="224.90" y="121.40" xlink:href="#Hd"/>
<path d="M221.40 121.40v21.00" class="stroke"/>
<use x="289.40" y="151.40" xlink:href="#hl1"/>
<use x="289.40" y="157.40" xlink:href="#hl1"/>
<use x="289.40" y="163.40" xlink:href="#hl1"/>
<use x="289.40" y="166.40" xlink:href="#HD"/>
<use x="289.40" y="145.40" xlink:href="#HD"/>
<use x="289.40" y="139.40" xlink:href="#HD"/>
<use x="289.40" y="133.40" xlink:href="#HD"/>
<use x="396.40" y="151.40" xlink:href="#hl1"/>
<use x="396.40" y="151.40" xlink:href="#HD"/>
<use x="396.40" y="130.40" xlink:href="#HD"/>
<use x="396.40" y="124.40" xlink:href="#HD"/>
<use x="396.40" y="118.40" xlink:href="#HD"/>
<use x="503.50" y="151.40" xlink:href="#hl1"/>
<use x="503.50" y="157.40" xlink:href="#hl1"/>
<use x="503.50" y="163.40" xlink:href="#hl1"/>
<use x="503.50" y="166.40" xlink:href="#HD"/>
<use x="503.50" y="145.40" xlink:href="#HD"/>
<use x="503.50" y="139.40" xlink:href="#HD"/>
<use x="503.50" y="133.40" xlink:href="#HD"/>
<use x="610.50" y="151.40" xlink:href="#hl1"/>
<use x="610.50" y="157.40" xlink:href="#hl1"/>
<use x="610.50" y="163.40" xlink:href="#hl1"/>
<use x="610.50" y="163.40" xlink:href="#HD"/>
<use x="610.50" y="142.40" xlink:href="#HD"/>
<use x="610.50" y="136.40" xlink:href="#HD"/>
<use x="610.50" y="130.40" xlink:href="#HD"/>
<defs>
<path id="ltr" class="fill"
    d="m0 -0.4c2 -1.5 3.4 -1.9 3.9 0.4
	c0.2 0.8 0.7 0.7 2.1 -0.4
	v0.8c-2 1.5 -3.4 1.9 -3.9 -0.4
	c-0.2 -0.8 -0.7 -0.7 -2.1 0.4z"/>
</defs>
<g transform="rotate(270)">
<use x="-157.40" y="74.00" xlink:href="#ltr"/>
<use x="-151.40" y="74.00" xlink:href="#ltr"/>
<use x="-145.40" y="74.00" xlink:href="#ltr"/>
<use x="-139.40" y="74.00" xlink:href="#ltr"/>
<use x="-133.40" y="74.00" xlink:href="#ltr"/>
<use x="-127.40" y="74.00" xlink:href="#ltr"/>
<use x="-121.40" y="74.00" xlink:href="#ltr"/>
</g>
<g transform="rotate(270)">
<use x="-169.40" y="275.90" xlink:href="#ltr"/>
<use x="-163.40" y="275.90" xlink:href="#ltr"/>
<use x="-157.40" y="275.90" xlink:href="#ltr"/>
<use x="-151.40" y="275.90" xlink:href="#ltr"/>
<use x="-145.40" y="275.90" xlink:href="#ltr"/>
<use x="-139.40" y="275.90" xlink:href="#ltr"/>
<use x="-133.40" y="275.90" xlink:href="#ltr"/>
</g>
<g transform="rotate(270)">
<use x="-154.40" y="382.90" xlink:href="#ltr"/>
<use x="-148.40" y="382.90" xlink:href="#ltr"/>
<use x="-142.40" y="382.90" xlink:href="#ltr"/>
<use x="-136.40" y="382.90" xlink:href="#ltr"/>
<use x="-130.40" y="382.90" xlink:href="#ltr"/>
<use x="-124.40" y="382.90" xlink:href="#ltr"/>
<use x="-118.40" y="382.90" xlink:href="#ltr"/>
</g>
<g transform="rotate(270)">
<use x="-169.40" y="490.00" xlink:href="#ltr"/>
<use x="-163.40" y="490.00" xlink:href="#ltr"/>
<use x="-157.40" y="490.00" xlink:href="#ltr"/>
<use x="-151.40" y="490.00" xlink:href="#ltr"/>
<use x="-145.40" y="490.00" xlink:href="#ltr"/>
<use x="-139.40" y="490.00" xlink:href="#ltr"/>
<use x="-133.40" y="490.00" xlink:href="#ltr"/>
</g>
<g transform="rotate(270)">
<use x="-166.40" y="597.00" xlink:href="#ltr"/>
<use x="-160.40" y="597.00" xlink:href="#ltr"/>
<use x="-154.40" y="597.00" xlink:href="#ltr"/>
<use x="-148.40" y="597.00" xlink:href="#ltr"/>
<use x="-142.40" y="597.00" xlink:href="#ltr"/>
<use x="-136.40" y="597.00" xlink:href="#ltr"/>
<use x="-130.40" y="597.00" xlink:href="#ltr"/>
</g>
</g>
<g stroke-width="0.70" style="font:bold 13.00px Times">
<path class="stroke" stroke-width="1"
	d="M10.00 277.40v-82.00"/>
<g transform="translate(10.00,195.40) scale(1,0.82)">
	<use xlink:href="#brace"/>
</g>
<path class="stroke" stroke-width="1"
	d="M174.40 219.40v-24.00"/>
<path class="stroke" stroke-width="1"
	d="M174.40 277.40v-24.00"/>
<path class="stroke" stroke-width="1"
	d="M305.30 219.40v-24.00"/>
<path class="stroke" stroke-width="1"
	d="M305.30 277.40v-24.00"/>
<path class="stroke" stroke-width="1"
	d="M439.10 219.40v-24.00"/>
<path class="stroke" stroke-width="1"
	d="M439.10 277.40v-24.00"/>
<path class="stroke" stroke-width="1"
	d="M558.10 219.40v-24.00"/>
<path class="stroke" stroke-width="1"
	d="M558.10 277.40v-24.00"/>
<path class="stroke" stroke-width="1"
	d="M691.60 219.40v-24.00"/>
<path class="stroke" stroke-width="1"
	d="M691.60 277.40v-24.00"/>
<path d="m10.00 219.40
	h681.60
	M10.00 213.40
	h681.60
	M10.00 207.40
	h681.60
	M10.00 201.40
	h681.60
	M10.00 195.40
	h681.60
	" class="stroke"/>
<path d="m10.00 277.40
	h681.60
	M10.00 271.40
	h681.60
	M10.00 265.40
	h681.60
	M10.00 259.40
	h681.60
	M10.00 253.40
	h681.60
	" class="stroke"/>
</g>
<g stroke-width="0.70" style="font:bold 13.00px Times">
<text x="69.00" y="188.80">i</text>
</g>
<g stroke-width="0.70" style="font:bold 13.00px Times">
<text x="193.90" y="185.80">III</text>
</g>
<g stroke-width="0.70" style="font:bold 13.00px Times">
<text x="310.60" y="188.80">VI<tspan
	 style="font:italic 11.00px Times">²</tspan></text>
</g>
<g stroke-width="0.70" style="font:bold 13.00px Times">
<text x="446.70" y="185.80">III</text>
</g>
<g stroke-width="0.70" style="font:bold 13.00px Times">
<text x="567.10" y="188.80">i<tspan
	 style="font:italic 11.00px Times">¹</tspan></text>
</g>
<g stroke-width="0.70" style="font:italic 11.00px Times">
<use x="22.00" y="213.40" xlink:href="#tclef"/>
<use x="37.00" y="207.40" xlink:href="#ft0"/>
<use x="70.50" y="216.40" xlink:href="#hd"/>
<circle class="fill" cx="78.20" cy="216.40" r="1.2"/>
<path d="M74.00 216.40v-21.00" class="stroke"/>
<use x="103.50" y="207.40" xlink:href="#hd"/>
<path d="M107.00 207.40v-21.00" class="stroke"/>
<path class="fill"
	d="M107.00 186.40c0.6 5.6 9.6 9 5.6 18.4
	1.6 -6 -1.3 -11.6 -5.6 -12.8
"/>
<use x="124.30" y="207.40" xlink:href="#hd"/>
<circle class="fill" cx="132.00" cy="204.40" r="1.2"/>
<path d="M127.80 207.40v-21.00" class="stroke"/>
<use x="157.40" y="210.40" xlink:href="#hd"/>
<path d="M160.90 210.40v-21.00" class="stroke"/>
<path class="fill"
	d="M160.90 189.40c0.6 5.6 9.6 9 5.6 18.4
	1.6 -6 -1.3 -11.6 -5.6 -12.8
"/>
<use x="199.40" y="213.40" xlink:href="#hd"/>
<path d="M202.90 213.40v-21.00" class="stroke"/>
<use x="227.80" y="210.40" xlink:href="#hd"/>
<path d="M231.30 210.40v-21.00" class="stroke"/>
<use x="256.30" y="207.40" xlink:href="#hd"/>
<path d="M259.80 207.40v-21.00" class="stroke"/>
<use x="284.80" y="216.40" xlink:href="#hd"/>
<path d="M288.30 216.40v-21.00" class="stroke"/>
<use x="318.30" y="216.40" xlink:href="#hd"/>
<path d="M321.80 216.40v-21.00" class="stroke"/>
<use x="346.80" y="207.40" xlink:href="#hd"/>
<path d="M350.30 207.40v-21.00" class="stroke"/>
<use x="375.30" y="207.40" xlink:href="#hd"/>
<circle class="fill" cx="383.00" cy="204.40" r="1.2"/>
<path d="M378.80 207.40v-21.00" class="stroke"/>
<use x="422.10" y="210.40" xlink:href="#hd"/>
<path d="M425.60 210.40v-21.00" class="stroke"/>
<path class="fill"
	d="M425.60 189.40c0.6 5.6 9.6 9 5.6 18.4
	1.6 -6 -1.3 -11.6 -5.6 -12.8
"/>
<use x="452.10" y="213.40" xlink:href="#hd"/>
<path d="M455.60 213.40v-21.00" class="stroke"/>
<use x="480.60" y="210.40" xlink:href="#hd"/>
<path d="M484.10 210.40v-21.00" class="stroke"/>
<use x="509.10" y="207.40" xlink:href="#hd"/>
<path d="M512.60 207.40v-21.00" class="stroke"/>
<use x="537.60" y="216.40" xlink:href="#hd"/>
<path d="M541.10 216.40v-21.00" class="stroke"/>
<use x="570.60" y="201.40" xlink:href="#hd"/>
<path d="M567.10 201.40v21.00" class="stroke"/>
<use x="599.30" y="201.40" xlink:href="#hd"/>
<path d="M595.80 201.40v21.00" class="stroke"/>
<use x="627.80" y="201.40" xlink:href="#hd"/>
<circle class="fill" cx="635.50" cy="198.40" r="1.2"/>
<path d="M624.30 201.40v21.00" class="stroke"/>
<use x="674.60" y="222.40" xlink:href="#hd"/>
<path d="M678.10 222.40v-21.00" class="stroke"/>
<path class="fill"
	d="M678.10 201.40c0.6 5.6 9.6 9 5.6 18.4
	1.6 -6 -1.3 -11.6 -5.6 -12.8
"/>
<use x="22.00" y="259.40" xlink:href="#bclef"/>
<use x="37.00" y="271.40" xlink:href="#ft0"/>
<use x="71.50" y="283.40" xlink:href="#hl1"/>
<use x="71.50" y="286.40" xlink:href="#HD"/>
<use x="71.50" y="265.40" xlink:href="#HD"/>
<use x="71.50" y="259.40" xlink:href="#HD"/>
<use x="71.50" y="253.40" xlink:href="#HD"/>
<use x="200.40" y="283.40" xlink:href="#hl1"/>
<use x="200.40" y="289.40" xlink:href="#hl1"/>
<use x="200.40" y="295.40" xlink:href="#hl1"/>
<use x="200.40" y="301.40" xlink:href="#hl1"/>
<use x="200.40" y="301.40" xlink:href="#HD"/>
<use x="200.40" y="280.40" xlink:href="#HD"/>
<use x="200.40" y="274.40" xlink:href="#HD"/>
<use x="200.40" y="268.40" xlink:href="#HD"/>
<use x="318.30" y="271.40" xlink:href="#Hd"/>
<path d="M321.80 271.40v-31.00" class="stroke"/>
<use x="318.30" y="265.40" xlink:href="#Hd"/>
<use x="318.30" y="259.40" xlink:href="#Hd"/>
<use x="375.30" y="259.40" xlink:href="#hd"/>
<path d="M371.80 259.40v21.00" class="stroke"/>
<use x="403.80" y="265.40" xlink:href="#hd"/>
<path d="M400.30 265.40v21.00" class="stroke"/>
<use x="452.10" y="280.40" xlink:href="#Hd"/>
<path d="M455.60 280.40v-31.00" class="stroke"/>
<use x="452.10" y="274.40" xlink:href="#Hd"/>
<use x="452.10" y="268.40" xlink:href="#Hd"/>
<use x="509.10" y="280.40" xlink:href="#hd"/>
<path d="M512.60 280.40v-21.00" class="stroke"/>
<use x="537.60" y="274.40" xlink:href="#hd"/>
<path d="M541.10 274.40v-21.00" class="stroke"/>
<use x="570.60" y="265.40" xlink:href="#hd"/>
<path d="M574.10 265.40v-21.00" class="stroke"/>
<use x="599.30" y="259.40" xlink:href="#hd"/>
<path d="M595.80 259.40v21.00" class="stroke"/>
<use x="627.80" y="253.40" xlink:href="#hd"/>
<path d="M624.30 253.40v21.00" class="stroke"/>
<use x="656.30" y="259.40" xlink:href="#hd"/>
<path d="M652.80 259.40v21.00" class="stroke"/>
<g transform="rotate(270)">
<use x="-289.40" y="58.00" xlink:href="#ltr"/>
<use x="-283.40" y="58.00" xlink:href="#ltr"/>
<use x="-277.40" y="58.00" xlink:href="#ltr"/>
<use x="-271.40" y="58.00" xlink:href="#ltr"/>
<use x="-265.40" y="58.00" xlink:href="#ltr"/>
<use x="-259.40" y="58.00" xlink:href="#ltr"/>
<use x="-253.40" y="58.00" xlink:href="#ltr"/>
</g>
<g transform="rotate(270)">
<use x="-304.40" y="186.90" xlink:href="#ltr"/>
<use x="-298.40" y="186.90" xlink:href="#ltr"/>
<use x="-292.40" y="186.90" xlink:href="#ltr"/>
<use x="-286.40" y="186.90" xlink:href="#ltr"/>
<use x="-280.40" y="186.90" xlink:href="#ltr"/>
<use x="-274.40" y="186.90" xlink:href="#ltr"/>
<use x="-268.40" y="186.90" xlink:href="#ltr"/>
</g>
</g>
<g stroke-width="0.70" style="font:italic 11.00px Times">
<path class="stroke" stroke-width="1"
	d="M10.00 412.40v-82.00"/>
<g transform="translate(10.00,330.40) scale(1,0.82)">
	<use xlink:href="#brace"/>
</g>
<path class="stroke" stroke-width="1"
	d="M174.60 354.40v-24.00"/>
<path class="stroke" stroke-width="1"
	d="M174.60 412.40v-24.00"/>
<path class="stroke" stroke-width="1"
	d="M319.20 354.40v-24.00"/>
<path class="stroke" stroke-width="1"
	d="M319.20 412.40v-24.00"/>
<path d="m10.00 354.40
	h309.20
	M10.00 348.40
	h309.20
	M10.00 342.40
	h309.20
	M10.00 336.40
	h309.20
	M10.00 330.40
	h309.20
	" class="stroke"/>
<path d="m10.00 412.40
	h309.20
	M10.00 406.40
	h309.20
	M10.00 400.40
	h309.20
	M10.00 394.40
	h309.20
	M10.00 388.40
	h309.20
	" class="stroke"/>
</g>
<g stroke-width="0.70" style="font:bold 13.00px Times">
<text x="51.50" y="325.80">i<tspan
	 style="font:italic 11.00px Times">²</tspan></text>
</g>
<g stroke-width="0.70" style="font:bold 13.00px Times">
<text x="194.20" y="321.80">III</text>
<use x="22.00" y="348.40" xlink:href="#tclef"/>
<use x="37.00" y="342.40" xlink:href="#ft0"/>
<use x="55.00" y="354.40" xlink:href="#hd"/>
<path d="M58.50 354.40v-21.00" class="stroke"/>
<use x="95.00" y="348.40" xlink:href="#hd"/>
<path d="M98.50 348.40v-21.00" class="stroke"/>
<use x="135.00" y="351.40" xlink:href="#Hd"/>
<path d="M138.50 351.40v-21.00" class="stroke"/>
<use x="199.60" y="330.40" xlink:href="#hd"/>
<path d="M196.10 330.40v40.00" class="stroke"/>
<use x="199.60" y="351.40" xlink:href="#hd"/>
<use x="239.60" y="354.40" xlink:href="#hd"/>
<path d="M243.10 354.40v-40.00" class="stroke"/>
<use x="239.60" y="333.40" xlink:href="#hd"/>
<use x="279.60" y="357.40" xlink:href="#Hd"/>
<path d="M283.10 357.40v-40.00" class="stroke"/>
<use x="279.60" y="336.40" xlink:href="#Hd"/>
<use x="22.00" y="394.40" xlink:href="#bclef"/>
<use x="37.00" y="406.40" xlink:href="#ft0"/>
<use x="55.00" y="400.40" xlink:href="#hd"/>
<path d="M51.50 400.40v21.00" class="stroke"/>
<use x="95.00" y="394.40" xlink:href="#hd"/>
<path d="M91.50 394.40v21.00" class="stroke"/>
<use x="135.00" y="388.40" xlink:href="#Hd"/>
<path d="M131.50 388.40v21.00" class="stroke"/>
<use x="200.60" y="418.40" xlink:href="#hl1"/>
<use x="200.60" y="424.40" xlink:href="#hl1"/>
<use x="200.60" y="430.40" xlink:href="#hl1"/>
<use x="200.60" y="436.40" xlink:href="#hl1"/>
<use x="200.60" y="436.40" xlink:href="#HD"/>
<use x="200.60" y="415.40" xlink:href="#HD"/>
<use x="200.60" y="409.40" xlink:href="#HD"/>
<use x="200.60" y="403.40" xlink:href="#HD"/>
<g transform="rotate(270)">
<use x="-439.40" y="187.10" xlink:href="#ltr"/>
<use x="-433.40" y="187.10" xlink:href="#ltr"/>
<use x="-427.40" y="187.10" xlink:href="#ltr"/>
<use x="-421.40" y="187.10" xlink:href="#ltr"/>
<use x="-415.40" y="187.10" xlink:href="#ltr"/>
<use x="-409.40" y="187.10" xlink:href="#ltr"/>
<use x="-403.40" y="187.10" xlink:href="#ltr"/>
</g>
</g>
</svg>
