<?xml version="1.0" standalone="no"?>
<!DOCTYPE svg PUBLIC "-//W3C//DTD SVG 1.1//EN"
	"http://www.w3.org/Graphics/SVG/1.1/DTD/svg11.dtd">
<svg xmlns="http://www.w3.org/2000/svg" version="1.1"
	xmlns:xlink="http://www.w3.org/1999/xlink"
	color="black"
	width="701.60px" height="725.40px" viewBox="0 0 701.60 725.40" preserveAspectRatio="xMidYMid meet">
<style type="text/css">
.fill {fill: currentColor}
.stroke {stroke: currentColor; fill: none}
text{white-space: pre}
</style>
<title>/tmp/retab_hymnal_L7/gabriel_s_message.abc (1) tune 1</title>
<!-- Creator: abcm2ps-8.14.11 -->
<!-- CreationDate: Apr 24, 2026 15:38 -->
<!-- CommandLine: /tmp/retab_hymnal_L7/gabriel_s_message.abc -g -O /tmp/retab_hymnal_L7/gabriel_s_message -->
<g stroke-width="0.70">
<!-- title: 070. Gabriel's Message -->
</g>
<g stroke-width="0.70" style="font:20.00px Times">
<text x="350.80" y="22.00" text-anchor="middle">070. Gabriel&apos;s Message</text>
</g>
<g stroke-width="0.70" style="font:20.00px Times">
<path class="stroke" stroke-width="1"
	d="M10.00 145.40v-82.00"/>
<defs>
<path id="brace" class="fill" d="m-2.5 101
	c-4.5 -4.6 -7.5 -12.2 -4.4 -26.8
	3.5 -14.3 3.2 -21.7 -2.1 -24.2
	7.4 2.4 7.3 14.2 3.5 29.5
	-2.7 9.5 -1.5 16.2 3 21.5
	M-2.5 1c-4.5 4.6 -7.5 12.2 -4.4 26.8
	c3.5 14.3 3.2 21.7 -2.1 24.2
	7.4 -2.4 7.3 -14.2 3.5 -29.5
	-2.7 -9.5 -1.5 -16.2 3 -21.5"/>
</defs>
<g transform="translate(10.00,63.40) scale(1,0.82)">
	<use xlink:href="#brace"/>
</g>
<path class="stroke" stroke-width="1"
	d="M140.80 87.40v-24.00"/>
<path class="stroke" stroke-width="1"
	d="M140.80 145.40v-24.00"/>
<path class="stroke" stroke-width="1"
	d="M245.40 87.40v-24.00"/>
<path class="stroke" stroke-width="1"
	d="M245.40 145.40v-24.00"/>
<path class="stroke" stroke-width="1"
	d="M337.10 87.40v-24.00"/>
<path class="stroke" stroke-width="1"
	d="M337.10 145.40v-24.00"/>
<path class="stroke" stroke-width="1"
	d="M434.80 87.40v-24.00"/>
<path class="stroke" stroke-width="1"
	d="M434.80 145.40v-24.00"/>
<path class="stroke" stroke-width="1"
	d="M539.90 87.40v-24.00"/>
<path class="stroke" stroke-width="1"
	d="M539.90 145.40v-24.00"/>
<path class="stroke" stroke-width="1"
	d="M644.80 87.40v-24.00"/>
<path class="stroke" stroke-width="1"
	d="M644.80 145.40v-24.00"/>
<path class="stroke" stroke-width="1"
	d="M691.60 87.40v-24.00"/>
<path class="stroke" stroke-width="1"
	d="M691.60 145.40v-24.00"/>
<path d="m10.00 87.40
	h681.60
	M10.00 81.40
	h681.60
	M10.00 75.40
	h681.60
	M10.00 69.40
	h681.60
	M10.00 63.40
	h681.60
	" class="stroke"/>
<path d="m10.00 145.40
	h681.60
	M10.00 139.40
	h681.60
	M10.00 133.40
	h681.60
	M10.00 127.40
	h681.60
	M10.00 121.40
	h681.60
	" class="stroke"/>
</g>
<g stroke-width="0.70" style="font:bold 13.00px Times">
<text x="69.10" y="58.80">V</text>
</g>
<g stroke-width="0.70" style="font:bold 13.00px Times">
<text x="151.80" y="56.80">i</text>
</g>
<g stroke-width="0.70" style="font:bold 13.00px Times">
<text x="263.20" y="58.80">iv<tspan
	 style="font:italic 11.00px Times">¹</tspan></text>
</g>
<g stroke-width="0.70" style="font:bold 13.00px Times">
<text x="360.60" y="58.80">i</text>
</g>
<g stroke-width="0.70" style="font:bold 13.00px Times">
<text x="446.00" y="47.80">I</text>
</g>
<g stroke-width="0.70" style="font:bold 13.00px Times">
<text x="548.90" y="56.80">V</text>
</g>
<g stroke-width="0.70" style="font:bold 13.00px Times">
<text x="656.00" y="58.80">I</text>
<defs>
<path id="utclef" class="fill" d="m-50 -90
	c-72 -41 -72 -158 52 -188
	150 -10 220 188 90 256
	-114 52 -275 0 -293 -136
	-15 -181 93 -229 220 -334
	88 -87 79 -133 62 -210
	-51 33 -94 105 -89 186
	17 267 36 374 49 574
	6 96 -19 134 -77 135
	-80 1 -126 -93 -61 -133
	85 -41 133 101 31 105
	23 17 92 37 90 -92
	-10 -223 -39 -342 -50 -617
	0 -90 0 -162 96 -232
	56 72 63 230 22 289
	-74 106 -257 168 -255 316
	9 153 148 185 252 133
	86 -65 29 -192 -80 -176
	-71 12 -105 67 -59 124"/>
<use id="tclef" transform="translate(0,6) scale(0.045)"
	xlink:href="#utclef"/>
</defs>
<use x="22.00" y="81.40" xlink:href="#tclef"/>
<g style="font:bold 16px serif"
	transform="translate(40.50,86.90) scale(1.2,1)">
	<text text-anchor="middle">4</text>
	<text y="-12" text-anchor="middle">3</text>
</g>
<defs>
<ellipse id="hd" rx="4.1" ry="2.9"
	transform="rotate(-20)" class="fill"/>
</defs>
<use x="73.00" y="87.40" xlink:href="#hd"/>
<path d="M76.50 87.40v-21.00" class="stroke"/>
<defs>
<path id="Hd" class="fill" d="m3 -1.6
	c-1 -1.8 -7 1.4 -6 3.2
	1 1.8 7 -1.4 6 -3.2
	m0.5 -0.3
	c2 3.8 -5 7.6 -7 3.8
	-2 -3.8 5 -7.6 7 -3.8"/>
</defs>
<use x="107.00" y="78.40" xlink:href="#Hd"/>
<path d="M110.50 78.40v-21.00" class="stroke"/>
<use x="153.30" y="72.40" xlink:href="#hd"/>
<path d="M149.80 72.40v21.00" class="stroke"/>
<use x="187.30" y="75.40" xlink:href="#Hd"/>
<path d="M183.80 75.40v21.00" class="stroke"/>
<use x="269.40" y="69.40" xlink:href="#hd"/>
<path d="M265.90 69.40v21.00" class="stroke"/>
<use x="303.30" y="72.40" xlink:href="#Hd"/>
<path d="M299.80 72.40v21.00" class="stroke"/>
<use x="362.10" y="75.40" xlink:href="#hd"/>
<path d="M358.60 75.40v21.00" class="stroke"/>
<use x="396.10" y="78.40" xlink:href="#Hd"/>
<circle class="fill" cx="404.80" cy="78.40" r="1.2"/>
<path d="M399.60 78.40v-21.00" class="stroke"/>
<use x="447.80" y="75.40" xlink:href="#Hd"/>
<circle class="fill" cx="456.50" cy="72.40" r="1.2"/>
<path d="M451.30 75.40v-21.00" class="stroke"/>
<use x="552.90" y="87.40" xlink:href="#Hd"/>
<circle class="fill" cx="561.60" cy="84.40" r="1.2"/>
<path d="M556.40 87.40v-21.00" class="stroke"/>
<use x="657.80" y="87.40" xlink:href="#Hd"/>
<path d="M661.30 87.40v-21.00" class="stroke"/>
<defs>
<path id="ubclef" class="fill" d="m-200 -87
	c124 -35 222 -78 254 -236
	43 -228 -167 -246 -192 -103
	59 -80 157 22 92 78
	-62 47 -115 -22 -106 -88
	21 -141 270 -136 274 52
	-1 175 -106 264 -322 297
	m357 -250
	c0 -36 51 -34 51 0
	0 37 -51 36 -51 0
	m-2 -129
	c0 -36 51 -34 51 0
	0 38 -51 37 -51 0"/>
<use id="bclef" transform="translate(0,18) scale(0.045)"
	xlink:href="#ubclef"/>
</defs>
<use x="22.00" y="127.40" xlink:href="#bclef"/>
<g style="font:bold 16px serif"
	transform="translate(40.50,144.90) scale(1.2,1)">
	<text text-anchor="middle">4</text>
	<text y="-12" text-anchor="middle">3</text>
</g>
<defs>
<path id="hl" class="stroke" d="m-6 0h12"/>
</defs>
<use x="73.00" y="151.40" xlink:href="#hl"/>
<use x="73.00" y="157.40" xlink:href="#hl"/>
<use x="73.00" y="163.40" xlink:href="#hl"/>
<use x="73.00" y="169.40" xlink:href="#hl"/>
<use x="73.00" y="172.40" xlink:href="#Hd"/>
<circle class="fill" cx="82.70" cy="172.40" r="1.2"/>
<path d="M76.50 172.40v-52.00" class="stroke"/>
<use x="73.00" y="151.40" xlink:href="#Hd"/>
<circle class="fill" cx="82.70" cy="148.40" r="1.2"/>
<use x="73.00" y="145.40" xlink:href="#Hd"/>
<circle class="fill" cx="82.70" cy="142.40" r="1.2"/>
<use x="73.00" y="139.40" xlink:href="#Hd"/>
<circle class="fill" cx="82.70" cy="136.40" r="1.2"/>
<use x="153.30" y="142.40" xlink:href="#hd"/>
<path d="M156.80 142.40v-21.00" class="stroke"/>
<use x="187.30" y="136.40" xlink:href="#hd"/>
<path d="M190.80 136.40v-21.00" class="stroke"/>
<use x="221.30" y="130.40" xlink:href="#hd"/>
<path d="M217.80 130.40v21.00" class="stroke"/>
<use x="269.40" y="151.40" xlink:href="#hl"/>
<use x="269.40" y="157.40" xlink:href="#hl"/>
<use x="269.40" y="163.40" xlink:href="#hl"/>
<use x="269.40" y="169.40" xlink:href="#hl"/>
<use x="269.40" y="175.40" xlink:href="#hl"/>
<use x="269.40" y="175.40" xlink:href="#Hd"/>
<circle class="fill" cx="278.10" cy="172.40" r="1.2"/>
<path d="M272.90 175.40v-52.00" class="stroke"/>
<use x="269.40" y="154.40" xlink:href="#Hd"/>
<circle class="fill" cx="278.10" cy="154.40" r="1.2"/>
<use x="269.40" y="148.40" xlink:href="#Hd"/>
<circle class="fill" cx="278.10" cy="148.40" r="1.2"/>
<use x="269.40" y="142.40" xlink:href="#Hd"/>
<circle class="fill" cx="278.10" cy="142.40" r="1.2"/>
<defs>
<path id="hl1" class="stroke" d="m-7 0h14"/>
</defs>
<use x="363.10" y="151.40" xlink:href="#hl1"/>
<use x="363.10" y="157.40" xlink:href="#hl1"/>
<use x="363.10" y="163.40" xlink:href="#hl1"/>
<defs>
<path id="HD" class="fill" d="m-2.7 -1.4
	c1.5 -2.8 6.9 0 5.3 2.7
	-1.5 2.8 -6.9 0 -5.3 -2.7
	m8.3 1.4
	c0 -1.5 -2.2 -3 -5.6 -3
	-3.4 0 -5.6 1.5 -5.6 3
	0 1.5 2.2 3 5.6 3
	3.4 0 5.6 -1.5 5.6 -3"/>
</defs>
<use x="363.10" y="163.40" xlink:href="#HD"/>
<use x="363.10" y="142.40" xlink:href="#HD"/>
<use x="363.10" y="136.40" xlink:href="#HD"/>
<use x="363.10" y="130.40" xlink:href="#HD"/>
<use x="447.80" y="151.40" xlink:href="#hl"/>
<use x="447.80" y="157.40" xlink:href="#hl"/>
<use x="447.80" y="157.40" xlink:href="#hd"/>
<path d="M451.30 157.40v-24.00" class="stroke"/>
<use x="481.90" y="151.40" xlink:href="#hl"/>
<use x="481.90" y="151.40" xlink:href="#hd"/>
<path d="M485.40 151.40v-21.00" class="stroke"/>
<use x="515.80" y="145.40" xlink:href="#hd"/>
<path d="M519.30 145.40v-21.00" class="stroke"/>
<use x="552.90" y="151.40" xlink:href="#hl"/>
<use x="552.90" y="151.40" xlink:href="#hd"/>
<path d="M556.40 151.40v-21.00" class="stroke"/>
<use x="586.80" y="145.40" xlink:href="#hd"/>
<path d="M590.30 145.40v-21.00" class="stroke"/>
<use x="620.80" y="139.40" xlink:href="#hd"/>
<path d="M624.30 139.40v-21.00" class="stroke"/>
<use x="657.80" y="151.40" xlink:href="#hl"/>
<use x="657.80" y="157.40" xlink:href="#hl"/>
<use x="657.80" y="157.40" xlink:href="#Hd"/>
<path d="M661.30 157.40v-31.00" class="stroke"/>
<use x="657.80" y="151.40" xlink:href="#Hd"/>
<use x="657.80" y="145.40" xlink:href="#Hd"/>
<defs>
<path id="ltr" class="fill"
    d="m0 -0.4c2 -1.5 3.4 -1.9 3.9 0.4
	c0.2 0.8 0.7 0.7 2.1 -0.4
	v0.8c-2 1.5 -3.4 1.9 -3.9 -0.4
	c-0.2 -0.8 -0.7 -0.7 -2.1 0.4z"/>
</defs>
<g transform="rotate(270)">
<use x="-175.40" y="63.00" xlink:href="#ltr"/>
<use x="-169.40" y="63.00" xlink:href="#ltr"/>
<use x="-163.40" y="63.00" xlink:href="#ltr"/>
<use x="-157.40" y="63.00" xlink:href="#ltr"/>
<use x="-151.40" y="63.00" xlink:href="#ltr"/>
<use x="-145.40" y="63.00" xlink:href="#ltr"/>
<use x="-139.40" y="63.00" xlink:href="#ltr"/>
</g>
<g transform="rotate(270)">
<use x="-178.40" y="259.40" xlink:href="#ltr"/>
<use x="-172.40" y="259.40" xlink:href="#ltr"/>
<use x="-166.40" y="259.40" xlink:href="#ltr"/>
<use x="-160.40" y="259.40" xlink:href="#ltr"/>
<use x="-154.40" y="259.40" xlink:href="#ltr"/>
<use x="-148.40" y="259.40" xlink:href="#ltr"/>
<use x="-142.40" y="259.40" xlink:href="#ltr"/>
</g>
<g transform="rotate(270)">
<use x="-166.40" y="349.60" xlink:href="#ltr"/>
<use x="-160.40" y="349.60" xlink:href="#ltr"/>
<use x="-154.40" y="349.60" xlink:href="#ltr"/>
<use x="-148.40" y="349.60" xlink:href="#ltr"/>
<use x="-142.40" y="349.60" xlink:href="#ltr"/>
<use x="-136.40" y="349.60" xlink:href="#ltr"/>
<use x="-130.40" y="349.60" xlink:href="#ltr"/>
</g>
</g>
<g stroke-width="0.70" style="font:bold 13.00px Times">
<path class="stroke" stroke-width="1"
	d="M10.00 286.40v-82.00"/>
<g transform="translate(10.00,204.40) scale(1,0.82)">
	<use xlink:href="#brace"/>
</g>
<path class="stroke" stroke-width="1"
	d="M125.30 228.40v-24.00"/>
<path class="stroke" stroke-width="1"
	d="M125.30 286.40v-24.00"/>
<path class="stroke" stroke-width="1"
	d="M213.60 228.40v-24.00"/>
<path class="stroke" stroke-width="1"
	d="M213.60 286.40v-24.00"/>
<path class="stroke" stroke-width="1"
	d="M301.90 228.40v-24.00"/>
<path class="stroke" stroke-width="1"
	d="M301.90 286.40v-24.00"/>
<path class="stroke" stroke-width="1"
	d="M396.20 228.40v-24.00"/>
<path class="stroke" stroke-width="1"
	d="M396.20 286.40v-24.00"/>
<path class="stroke" stroke-width="1"
	d="M441.30 228.40v-24.00"/>
<path class="stroke" stroke-width="1"
	d="M441.30 286.40v-24.00"/>
<path class="stroke" stroke-width="1"
	d="M535.60 228.40v-24.00"/>
<path class="stroke" stroke-width="1"
	d="M535.60 286.40v-24.00"/>
<path class="stroke" stroke-width="1"
	d="M591.70 228.40v-24.00"/>
<path class="stroke" stroke-width="1"
	d="M591.70 286.40v-24.00"/>
<path class="stroke" stroke-width="1"
	d="M691.60 228.40v-24.00"/>
<path class="stroke" stroke-width="1"
	d="M691.60 286.40v-24.00"/>
<path d="m10.00 228.40
	h681.60
	M10.00 222.40
	h681.60
	M10.00 216.40
	h681.60
	M10.00 210.40
	h681.60
	M10.00 204.40
	h681.60
	" class="stroke"/>
<path d="m10.00 286.40
	h681.60
	M10.00 280.40
	h681.60
	M10.00 274.40
	h681.60
	M10.00 268.40
	h681.60
	M10.00 262.40
	h681.60
	" class="stroke"/>
</g>
<g stroke-width="0.70" style="font:bold 13.00px Times">
<text x="53.20" y="199.80">V<tspan
	 style="font:italic 11.00px Times">⁷¹</tspan></text>
</g>
<g stroke-width="0.70" style="font:bold 13.00px Times">
<text x="147.80" y="199.80">i</text>
</g>
<g stroke-width="0.70" style="font:bold 13.00px Times">
<text x="231.40" y="199.80">iv<tspan
	 style="font:italic 11.00px Times">²</tspan></text>
</g>
<g stroke-width="0.70" style="font:bold 13.00px Times">
<text x="319.50" y="199.80">ii○<tspan
	 style="font:italic 11.00px Times">¹</tspan></text>
</g>
<g stroke-width="0.70" style="font:bold 13.00px Times">
<text x="405.70" y="191.80">i<tspan
	 style="font:italic 11.00px Times">¹</tspan></text>
</g>
<g stroke-width="0.70" style="font:bold 13.00px Times">
<text x="464.80" y="194.80">i</text>
</g>
<g stroke-width="0.70" style="font:bold 13.00px Times">
<text x="557.80" y="191.80">I</text>
</g>
<g stroke-width="0.70" style="font:bold 13.00px Times">
<text x="598.80" y="199.80">III</text>
<use x="22.00" y="222.40" xlink:href="#tclef"/>
<use x="61.00" y="228.40" xlink:href="#hd"/>
<path d="M64.50 228.40v-21.00" class="stroke"/>
<use x="93.20" y="219.40" xlink:href="#Hd"/>
<path d="M96.70 219.40v-21.00" class="stroke"/>
<use x="149.30" y="213.40" xlink:href="#hd"/>
<path d="M145.80 213.40v21.00" class="stroke"/>
<use x="181.50" y="216.40" xlink:href="#Hd"/>
<path d="M178.00 216.40v21.00" class="stroke"/>
<use x="237.60" y="210.40" xlink:href="#hd"/>
<path d="M234.10 210.40v21.00" class="stroke"/>
<use x="269.80" y="213.40" xlink:href="#Hd"/>
<path d="M266.30 213.40v21.00" class="stroke"/>
<use x="326.90" y="216.40" xlink:href="#hd"/>
<path d="M323.40 216.40v21.00" class="stroke"/>
<use x="359.10" y="219.40" xlink:href="#Hd"/>
<circle class="fill" cx="367.80" cy="219.40" r="1.2"/>
<path d="M362.60 219.40v-21.00" class="stroke"/>
<use x="409.20" y="219.40" xlink:href="#Hd"/>
<path d="M412.70 219.40v-21.00" class="stroke"/>
<use x="466.30" y="222.40" xlink:href="#hd"/>
<path d="M469.80 222.40v-21.00" class="stroke"/>
<use x="498.50" y="219.40" xlink:href="#Hd"/>
<circle class="fill" cx="507.20" cy="219.40" r="1.2"/>
<path d="M502.00 219.40v-21.00" class="stroke"/>
<use x="559.60" y="219.40" xlink:href="#Hd"/>
<path d="M563.10 219.40v-21.00" class="stroke"/>
<use x="604.20" y="213.40" xlink:href="#hd"/>
<path d="M600.70 213.40v21.00" class="stroke"/>
<use x="636.50" y="213.40" xlink:href="#Hd"/>
<path d="M633.00 213.40v21.00" class="stroke"/>
<use x="22.00" y="268.40" xlink:href="#bclef"/>
<use x="61.00" y="292.40" xlink:href="#hl"/>
<use x="61.00" y="298.40" xlink:href="#hl"/>
<use x="61.00" y="304.40" xlink:href="#hl"/>
<use x="61.00" y="310.40" xlink:href="#hl"/>
<use x="61.00" y="313.40" xlink:href="#Hd"/>
<circle class="fill" cx="70.70" cy="313.40" r="1.2"/>
<path d="M64.50 313.40v-52.00" class="stroke"/>
<use x="61.00" y="292.40" xlink:href="#Hd"/>
<circle class="fill" cx="70.70" cy="289.40" r="1.2"/>
<use x="61.00" y="286.40" xlink:href="#Hd"/>
<circle class="fill" cx="70.70" cy="283.40" r="1.2"/>
<use x="61.00" y="280.40" xlink:href="#Hd"/>
<circle class="fill" cx="70.70" cy="277.40" r="1.2"/>
<use x="149.30" y="292.40" xlink:href="#hl"/>
<use x="149.30" y="298.40" xlink:href="#hl"/>
<use x="149.30" y="304.40" xlink:href="#hl"/>
<use x="149.30" y="304.40" xlink:href="#Hd"/>
<circle class="fill" cx="158.00" cy="301.40" r="1.2"/>
<path d="M152.80 304.40v-52.00" class="stroke"/>
<use x="149.30" y="283.40" xlink:href="#Hd"/>
<circle class="fill" cx="158.00" cy="283.40" r="1.2"/>
<use x="149.30" y="277.40" xlink:href="#Hd"/>
<circle class="fill" cx="158.00" cy="277.40" r="1.2"/>
<use x="149.30" y="271.40" xlink:href="#Hd"/>
<circle class="fill" cx="158.00" cy="271.40" r="1.2"/>
<use x="237.60" y="292.40" xlink:href="#hl"/>
<use x="237.60" y="298.40" xlink:href="#hl"/>
<use x="237.60" y="304.40" xlink:href="#hl"/>
<use x="237.60" y="310.40" xlink:href="#hl"/>
<use x="237.60" y="316.40" xlink:href="#hl"/>
<use x="237.60" y="316.40" xlink:href="#Hd"/>
<circle class="fill" cx="246.30" cy="313.40" r="1.2"/>
<path d="M241.10 316.40v-52.00" class="stroke"/>
<use x="237.60" y="295.40" xlink:href="#Hd"/>
<circle class="fill" cx="246.30" cy="295.40" r="1.2"/>
<use x="237.60" y="289.40" xlink:href="#Hd"/>
<circle class="fill" cx="246.30" cy="289.40" r="1.2"/>
<use x="237.60" y="283.40" xlink:href="#Hd"/>
<circle class="fill" cx="246.30" cy="283.40" r="1.2"/>
<use x="327.90" y="292.40" xlink:href="#hl1"/>
<use x="327.90" y="298.40" xlink:href="#hl1"/>
<use x="327.90" y="304.40" xlink:href="#hl1"/>
<use x="327.90" y="310.40" xlink:href="#hl1"/>
<use x="327.90" y="316.40" xlink:href="#hl1"/>
<use x="327.90" y="319.40" xlink:href="#HD"/>
<use x="327.90" y="298.40" xlink:href="#HD"/>
<use x="327.90" y="292.40" xlink:href="#HD"/>
<use x="327.90" y="286.40" xlink:href="#HD"/>
<use x="409.20" y="283.40" xlink:href="#Hd"/>
<path d="M412.70 283.40v-31.00" class="stroke"/>
<use x="409.20" y="277.40" xlink:href="#Hd"/>
<use x="409.20" y="271.40" xlink:href="#Hd"/>
<use x="467.30" y="292.40" xlink:href="#hl1"/>
<use x="467.30" y="298.40" xlink:href="#hl1"/>
<use x="467.30" y="304.40" xlink:href="#hl1"/>
<use x="467.30" y="304.40" xlink:href="#HD"/>
<use x="467.30" y="283.40" xlink:href="#HD"/>
<use x="467.30" y="277.40" xlink:href="#HD"/>
<use x="467.30" y="271.40" xlink:href="#HD"/>
<use x="559.60" y="292.40" xlink:href="#hl"/>
<use x="559.60" y="298.40" xlink:href="#hl"/>
<use x="559.60" y="304.40" xlink:href="#hl"/>
<use x="559.60" y="310.40" xlink:href="#hl"/>
<use x="559.60" y="316.40" xlink:href="#hl"/>
<use x="559.60" y="319.40" xlink:href="#Hd"/>
<path d="M563.10 319.40v-52.00" class="stroke"/>
<use x="559.60" y="298.40" xlink:href="#Hd"/>
<use x="559.60" y="292.40" xlink:href="#Hd"/>
<use x="559.60" y="286.40" xlink:href="#Hd"/>
<use x="604.20" y="292.40" xlink:href="#hl"/>
<use x="604.20" y="298.40" xlink:href="#hl"/>
<use x="604.20" y="298.40" xlink:href="#hd"/>
<path d="M607.70 298.40v-24.00" class="stroke"/>
<use x="636.50" y="292.40" xlink:href="#hl"/>
<use x="636.50" y="292.40" xlink:href="#hd"/>
<path d="M640.00 292.40v-21.00" class="stroke"/>
<use x="668.60" y="286.40" xlink:href="#hd"/>
<path d="M672.10 286.40v-21.00" class="stroke"/>
<g transform="rotate(270)">
<use x="-316.40" y="51.00" xlink:href="#ltr"/>
<use x="-310.40" y="51.00" xlink:href="#ltr"/>
<use x="-304.40" y="51.00" xlink:href="#ltr"/>
<use x="-298.40" y="51.00" xlink:href="#ltr"/>
<use x="-292.40" y="51.00" xlink:href="#ltr"/>
<use x="-286.40" y="51.00" xlink:href="#ltr"/>
<use x="-280.40" y="51.00" xlink:href="#ltr"/>
</g>
<g transform="rotate(270)">
<use x="-307.40" y="139.30" xlink:href="#ltr"/>
<use x="-301.40" y="139.30" xlink:href="#ltr"/>
<use x="-295.40" y="139.30" xlink:href="#ltr"/>
<use x="-289.40" y="139.30" xlink:href="#ltr"/>
<use x="-283.40" y="139.30" xlink:href="#ltr"/>
<use x="-277.40" y="139.30" xlink:href="#ltr"/>
<use x="-271.40" y="139.30" xlink:href="#ltr"/>
</g>
<g transform="rotate(270)">
<use x="-319.40" y="227.60" xlink:href="#ltr"/>
<use x="-313.40" y="227.60" xlink:href="#ltr"/>
<use x="-307.40" y="227.60" xlink:href="#ltr"/>
<use x="-301.40" y="227.60" xlink:href="#ltr"/>
<use x="-295.40" y="227.60" xlink:href="#ltr"/>
<use x="-289.40" y="227.60" xlink:href="#ltr"/>
<use x="-283.40" y="227.60" xlink:href="#ltr"/>
</g>
<g transform="rotate(270)">
<use x="-322.40" y="314.40" xlink:href="#ltr"/>
<use x="-316.40" y="314.40" xlink:href="#ltr"/>
<use x="-310.40" y="314.40" xlink:href="#ltr"/>
<use x="-304.40" y="314.40" xlink:href="#ltr"/>
<use x="-298.40" y="314.40" xlink:href="#ltr"/>
<use x="-292.40" y="314.40" xlink:href="#ltr"/>
<use x="-286.40" y="314.40" xlink:href="#ltr"/>
</g>
<g transform="rotate(270)">
<use x="-307.40" y="453.80" xlink:href="#ltr"/>
<use x="-301.40" y="453.80" xlink:href="#ltr"/>
<use x="-295.40" y="453.80" xlink:href="#ltr"/>
<use x="-289.40" y="453.80" xlink:href="#ltr"/>
<use x="-283.40" y="453.80" xlink:href="#ltr"/>
<use x="-277.40" y="453.80" xlink:href="#ltr"/>
<use x="-271.40" y="453.80" xlink:href="#ltr"/>
</g>
<g transform="rotate(270)">
<use x="-322.40" y="549.60" xlink:href="#ltr"/>
<use x="-316.40" y="549.60" xlink:href="#ltr"/>
<use x="-310.40" y="549.60" xlink:href="#ltr"/>
<use x="-304.40" y="549.60" xlink:href="#ltr"/>
<use x="-298.40" y="549.60" xlink:href="#ltr"/>
<use x="-292.40" y="549.60" xlink:href="#ltr"/>
<use x="-286.40" y="549.60" xlink:href="#ltr"/>
</g>
</g>
<g stroke-width="0.70" style="font:bold 13.00px Times">
<path class="stroke" stroke-width="1"
	d="M10.00 430.40v-82.00"/>
<g transform="translate(10.00,348.40) scale(1,0.82)">
	<use xlink:href="#brace"/>
</g>
<path class="stroke" stroke-width="1"
	d="M137.80 372.40v-24.00"/>
<path class="stroke" stroke-width="1"
	d="M137.80 430.40v-24.00"/>
<path class="stroke" stroke-width="1"
	d="M241.60 372.40v-24.00"/>
<path class="stroke" stroke-width="1"
	d="M241.60 430.40v-24.00"/>
<path class="stroke" stroke-width="1"
	d="M345.40 372.40v-24.00"/>
<path class="stroke" stroke-width="1"
	d="M345.40 430.40v-24.00"/>
<path class="stroke" stroke-width="1"
	d="M483.00 372.40v-24.00"/>
<path class="stroke" stroke-width="1"
	d="M483.00 430.40v-24.00"/>
<path class="stroke" stroke-width="1"
	d="M587.30 372.40v-24.00"/>
<path class="stroke" stroke-width="1"
	d="M587.30 430.40v-24.00"/>
<path class="stroke" stroke-width="1"
	d="M691.60 372.40v-24.00"/>
<path class="stroke" stroke-width="1"
	d="M691.60 430.40v-24.00"/>
<path d="m10.00 372.40
	h681.60
	M10.00 366.40
	h681.60
	M10.00 360.40
	h681.60
	M10.00 354.40
	h681.60
	M10.00 348.40
	h681.60
	" class="stroke"/>
<path d="m10.00 430.40
	h681.60
	M10.00 424.40
	h681.60
	M10.00 418.40
	h681.60
	M10.00 412.40
	h681.60
	M10.00 406.40
	h681.60
	" class="stroke"/>
</g>
<g stroke-width="0.70" style="font:bold 13.00px Times">
<text x="44.70" y="343.80">I</text>
</g>
<g stroke-width="0.70" style="font:bold 13.00px Times">
<text x="146.10" y="341.80">iv</text>
</g>
<g stroke-width="0.70" style="font:bold 13.00px Times">
<text x="246.70" y="343.80">ii○<tspan
	 style="font:italic 11.00px Times">¹</tspan></text>
</g>
<g stroke-width="0.70" style="font:bold 13.00px Times">
<text x="352.50" y="341.80">III</text>
</g>
<g stroke-width="0.70" style="font:bold 13.00px Times">
<text x="489.80" y="341.80">iv<tspan
	 style="font:italic 11.00px Times">¹</tspan></text>
</g>
<g stroke-width="0.70" style="font:bold 13.00px Times">
<text x="592.70" y="343.80">VII</text>
<use x="22.00" y="366.40" xlink:href="#tclef"/>
<use x="46.50" y="354.40" xlink:href="#hd"/>
<path d="M43.00 354.40v21.00" class="stroke"/>
<use x="80.30" y="357.40" xlink:href="#Hd"/>
<path d="M76.80 357.40v21.00" class="stroke"/>
<use x="150.30" y="360.40" xlink:href="#hd"/>
<path d="M146.80 360.40v21.00" class="stroke"/>
<use x="184.10" y="357.40" xlink:href="#Hd"/>
<path d="M180.60 357.40v21.00" class="stroke"/>
<use x="254.10" y="354.40" xlink:href="#hd"/>
<path d="M250.60 354.40v21.00" class="stroke"/>
<use x="287.90" y="351.40" xlink:href="#Hd"/>
<path d="M284.40 351.40v21.00" class="stroke"/>
<use x="357.90" y="351.40" xlink:href="#hd"/>
<path d="M354.40 351.40v21.00" class="stroke"/>
<use x="391.70" y="354.40" xlink:href="#Hd"/>
<circle class="fill" cx="400.40" cy="351.40" r="1.2"/>
<path d="M388.20 354.40v21.00" class="stroke"/>
<use x="496.00" y="357.40" xlink:href="#Hd"/>
<circle class="fill" cx="504.70" cy="357.40" r="1.2"/>
<path d="M492.50 357.40v21.00" class="stroke"/>
<use x="600.30" y="360.40" xlink:href="#Hd"/>
<circle class="fill" cx="609.00" cy="357.40" r="1.2"/>
<path d="M596.80 360.40v21.00" class="stroke"/>
<use x="22.00" y="412.40" xlink:href="#bclef"/>
<use x="46.50" y="436.40" xlink:href="#hl"/>
<use x="46.50" y="442.40" xlink:href="#hl"/>
<use x="46.50" y="442.40" xlink:href="#hd"/>
<path d="M50.00 442.40v-24.00" class="stroke"/>
<use x="80.30" y="436.40" xlink:href="#hl"/>
<use x="80.30" y="436.40" xlink:href="#hd"/>
<path d="M83.80 436.40v-21.00" class="stroke"/>
<use x="114.10" y="430.40" xlink:href="#hd"/>
<path d="M117.60 430.40v-21.00" class="stroke"/>
<use x="150.30" y="436.40" xlink:href="#hl"/>
<use x="150.30" y="439.40" xlink:href="#hd"/>
<path d="M153.80 439.40v-21.00" class="stroke"/>
<use x="184.10" y="433.40" xlink:href="#hd"/>
<path d="M187.60 433.40v-21.00" class="stroke"/>
<use x="217.90" y="427.40" xlink:href="#hd"/>
<path d="M221.40 427.40v-21.00" class="stroke"/>
<use x="254.10" y="436.40" xlink:href="#hl"/>
<use x="254.10" y="442.40" xlink:href="#hl"/>
<use x="254.10" y="442.40" xlink:href="#hd"/>
<path d="M257.60 442.40v-24.00" class="stroke"/>
<use x="287.90" y="436.40" xlink:href="#hl"/>
<use x="287.90" y="436.40" xlink:href="#hd"/>
<path d="M291.40 436.40v-21.00" class="stroke"/>
<use x="321.70" y="430.40" xlink:href="#hd"/>
<path d="M325.20 430.40v-21.00" class="stroke"/>
<use x="357.90" y="436.40" xlink:href="#hl"/>
<use x="357.90" y="442.40" xlink:href="#hl"/>
<use x="357.90" y="442.40" xlink:href="#hd"/>
<path d="M361.40 442.40v-24.00" class="stroke"/>
<use x="391.70" y="436.40" xlink:href="#hl"/>
<use x="391.70" y="436.40" xlink:href="#hd"/>
<path d="M395.20 436.40v-21.00" class="stroke"/>
<use x="425.50" y="430.40" xlink:href="#hd"/>
<path d="M429.00 430.40v-21.00" class="stroke"/>
<use x="459.30" y="436.40" xlink:href="#hl"/>
<use x="459.30" y="436.40" xlink:href="#hd"/>
<path d="M462.80 436.40v-21.00" class="stroke"/>
<use x="496.00" y="436.40" xlink:href="#hl"/>
<use x="496.00" y="439.40" xlink:href="#hd"/>
<path d="M499.50 439.40v-21.00" class="stroke"/>
<use x="529.80" y="433.40" xlink:href="#hd"/>
<path d="M533.30 433.40v-21.00" class="stroke"/>
<use x="563.50" y="427.40" xlink:href="#hd"/>
<path d="M567.00 427.40v-21.00" class="stroke"/>
<use x="600.30" y="430.40" xlink:href="#hd"/>
<path d="M603.80 430.40v-21.00" class="stroke"/>
<use x="634.10" y="424.40" xlink:href="#hd"/>
<path d="M637.60 424.40v-21.00" class="stroke"/>
<use x="667.80" y="418.40" xlink:href="#hd"/>
<path d="M671.30 418.40v-21.00" class="stroke"/>
</g>
<g stroke-width="0.70" style="font:bold 13.00px Times">
<path class="stroke" stroke-width="1"
	d="M10.00 558.40v-82.00"/>
<g transform="translate(10.00,476.40) scale(1,0.82)">
	<use xlink:href="#brace"/>
</g>
<path class="stroke" stroke-width="1"
	d="M101.00 500.40v-24.00"/>
<path class="stroke" stroke-width="1"
	d="M101.00 558.40v-24.00"/>
<path class="stroke" stroke-width="1"
	d="M199.20 500.40v-24.00"/>
<path class="stroke" stroke-width="1"
	d="M199.20 558.40v-24.00"/>
<path class="stroke" stroke-width="1"
	d="M297.40 500.40v-24.00"/>
<path class="stroke" stroke-width="1"
	d="M297.40 558.40v-24.00"/>
<path class="stroke" stroke-width="1"
	d="M427.20 500.40v-24.00"/>
<path class="stroke" stroke-width="1"
	d="M427.20 558.40v-24.00"/>
<path class="stroke" stroke-width="1"
	d="M525.90 500.40v-24.00"/>
<path class="stroke" stroke-width="1"
	d="M525.90 558.40v-24.00"/>
<path class="stroke" stroke-width="1"
	d="M624.60 500.40v-24.00"/>
<path class="stroke" stroke-width="1"
	d="M624.60 558.40v-24.00"/>
<path class="stroke" stroke-width="1"
	d="M691.60 500.40v-24.00"/>
<path class="stroke" stroke-width="1"
	d="M691.60 558.40v-24.00"/>
<path d="m10.00 500.40
	h681.60
	M10.00 494.40
	h681.60
	M10.00 488.40
	h681.60
	M10.00 482.40
	h681.60
	M10.00 476.40
	h681.60
	" class="stroke"/>
<path d="m10.00 558.40
	h681.60
	M10.00 552.40
	h681.60
	M10.00 546.40
	h681.60
	M10.00 540.40
	h681.60
	M10.00 534.40
	h681.60
	" class="stroke"/>
</g>
<g stroke-width="0.70" style="font:bold 13.00px Times">
<text x="39.40" y="471.80">VII</text>
</g>
<g stroke-width="0.70" style="font:bold 13.00px Times">
<text x="106.10" y="471.80">III<tspan
	 style="font:italic 11.00px Times">¹</tspan></text>
</g>
<g stroke-width="0.70" style="font:bold 13.00px Times">
<text x="205.50" y="469.80">iv<tspan
	 style="font:italic 11.00px Times">¹</tspan></text>
</g>
<g stroke-width="0.70" style="font:bold 13.00px Times">
<text x="308.10" y="463.80">I</text>
</g>
<g stroke-width="0.70" style="font:bold 13.00px Times">
<text x="432.80" y="471.80">ii○<tspan
	 style="font:italic 11.00px Times">⁷</tspan></text>
</g>
<g stroke-width="0.70" style="font:bold 13.00px Times">
<text x="533.00" y="463.80">V<tspan
	 style="font:italic 11.00px Times">⁷</tspan></text>
</g>
<g stroke-width="0.70" style="font:bold 13.00px Times">
<text x="631.40" y="471.80">iv<tspan
	 style="font:italic 11.00px Times">⁷</tspan></text>
</g>
<g stroke-width="0.70" style="font:italic 11.00px Times">
<use x="22.00" y="494.40" xlink:href="#tclef"/>
<use x="47.00" y="488.40" xlink:href="#Hd"/>
<path d="M43.50 488.40v21.00" class="stroke"/>
<use x="113.50" y="485.40" xlink:href="#hd"/>
<path d="M110.00 485.40v21.00" class="stroke"/>
<use x="145.20" y="482.40" xlink:href="#Hd"/>
<path d="M141.70 482.40v21.00" class="stroke"/>
<use x="211.70" y="485.40" xlink:href="#hd"/>
<path d="M208.20 485.40v21.00" class="stroke"/>
<use x="243.40" y="488.40" xlink:href="#Hd"/>
<path d="M239.90 488.40v21.00" class="stroke"/>
<use x="309.90" y="491.40" xlink:href="#hd"/>
<path d="M313.40 491.40v-21.00" class="stroke"/>
<use x="341.60" y="488.40" xlink:href="#Hd"/>
<circle class="fill" cx="350.30" cy="485.40" r="1.2"/>
<path d="M345.10 488.40v-21.00" class="stroke"/>
<use x="440.20" y="500.40" xlink:href="#Hd"/>
<circle class="fill" cx="448.90" cy="497.40" r="1.2"/>
<path d="M443.70 500.40v-21.00" class="stroke"/>
<use x="538.90" y="491.40" xlink:href="#Hd"/>
<circle class="fill" cx="547.60" cy="491.40" r="1.2"/>
<path d="M542.40 491.40v-21.00" class="stroke"/>
<use x="637.60" y="485.40" xlink:href="#hd"/>
<path d="M634.10 485.40v21.00" class="stroke"/>
<use x="669.20" y="488.40" xlink:href="#hd"/>
<path d="M665.70 488.40v21.00" class="stroke"/>
<use x="22.00" y="540.40" xlink:href="#bclef"/>
<use x="47.00" y="558.40" xlink:href="#hd"/>
<path d="M50.50 558.40v-21.00" class="stroke"/>
<use x="78.60" y="546.40" xlink:href="#hd"/>
<path d="M82.10 546.40v-21.00" class="stroke"/>
<use x="113.50" y="564.40" xlink:href="#hl"/>
<use x="113.50" y="570.40" xlink:href="#hl"/>
<use x="113.50" y="570.40" xlink:href="#hd"/>
<path d="M117.00 570.40v-24.00" class="stroke"/>
<use x="145.20" y="564.40" xlink:href="#hl"/>
<use x="145.20" y="564.40" xlink:href="#hd"/>
<path d="M148.70 564.40v-21.00" class="stroke"/>
<use x="176.80" y="558.40" xlink:href="#hd"/>
<path d="M180.30 558.40v-21.00" class="stroke"/>
<use x="211.70" y="564.40" xlink:href="#hl"/>
<use x="211.70" y="567.40" xlink:href="#hd"/>
<path d="M215.20 567.40v-21.00" class="stroke"/>
<use x="243.40" y="561.40" xlink:href="#hd"/>
<path d="M246.90 561.40v-21.00" class="stroke"/>
<use x="275.00" y="555.40" xlink:href="#hd"/>
<path d="M278.50 555.40v-21.00" class="stroke"/>
<use x="309.90" y="564.40" xlink:href="#hl"/>
<use x="309.90" y="570.40" xlink:href="#hl"/>
<use x="309.90" y="570.40" xlink:href="#hd"/>
<path d="M313.40 570.40v-24.00" class="stroke"/>
<use x="341.60" y="564.40" xlink:href="#hl"/>
<use x="341.60" y="564.40" xlink:href="#hd"/>
<path d="M345.10 564.40v-21.00" class="stroke"/>
<use x="373.20" y="558.40" xlink:href="#hd"/>
<path d="M376.70 558.40v-21.00" class="stroke"/>
<use x="404.80" y="564.40" xlink:href="#hl"/>
<use x="404.80" y="564.40" xlink:href="#hd"/>
<path d="M408.30 564.40v-21.00" class="stroke"/>
<use x="440.20" y="564.40" xlink:href="#hl"/>
<use x="440.20" y="570.40" xlink:href="#hl"/>
<use x="440.20" y="570.40" xlink:href="#hd"/>
<path d="M443.70 570.40v-24.00" class="stroke"/>
<use x="471.90" y="564.40" xlink:href="#hl"/>
<use x="471.90" y="564.40" xlink:href="#hd"/>
<path d="M475.40 564.40v-21.00" class="stroke"/>
<use x="503.60" y="558.40" xlink:href="#hd"/>
<path d="M507.10 558.40v-21.00" class="stroke"/>
<use x="538.90" y="564.40" xlink:href="#hl"/>
<use x="538.90" y="564.40" xlink:href="#hd"/>
<path d="M542.40 564.40v-21.00" class="stroke"/>
<use x="570.60" y="558.40" xlink:href="#hd"/>
<path d="M574.10 558.40v-21.00" class="stroke"/>
<use x="602.20" y="552.40" xlink:href="#hd"/>
<path d="M605.70 552.40v-21.00" class="stroke"/>
<use x="637.60" y="564.40" xlink:href="#hl"/>
<use x="637.60" y="567.40" xlink:href="#Hd"/>
<path d="M641.10 567.40v-31.00" class="stroke"/>
<use x="637.60" y="561.40" xlink:href="#Hd"/>
<use x="637.60" y="555.40" xlink:href="#Hd"/>
</g>
<g stroke-width="0.70" style="font:italic 11.00px Times">
<path class="stroke" stroke-width="1"
	d="M10.00 686.40v-82.00"/>
<g transform="translate(10.00,604.40) scale(1,0.82)">
	<use xlink:href="#brace"/>
</g>
<path class="stroke" stroke-width="1"
	d="M147.10 628.40v-24.00"/>
<path class="stroke" stroke-width="1"
	d="M147.10 686.40v-24.00"/>
<path class="stroke" stroke-width="1"
	d="M210.70 628.40v-24.00"/>
<path class="stroke" stroke-width="1"
	d="M210.70 686.40v-24.00"/>
<path class="stroke" stroke-width="1"
	d="M320.80 628.40v-24.00"/>
<path class="stroke" stroke-width="1"
	d="M320.80 686.40v-24.00"/>
<path class="stroke" stroke-width="1"
	d="M389.90 628.40v-24.00"/>
<path class="stroke" stroke-width="1"
	d="M389.90 686.40v-24.00"/>
<path class="stroke" stroke-width="1"
	d="M405.90 628.40v-24.00"/>
<path class="stroke" stroke-width="1"
	d="M405.90 686.40v-24.00"/>
<path d="m10.00 628.40
	h395.90
	M10.00 622.40
	h395.90
	M10.00 616.40
	h395.90
	M10.00 610.40
	h395.90
	M10.00 604.40
	h395.90
	" class="stroke"/>
<path d="m10.00 686.40
	h395.90
	M10.00 680.40
	h395.90
	M10.00 674.40
	h395.90
	M10.00 668.40
	h395.90
	M10.00 662.40
	h395.90
	" class="stroke"/>
</g>
<g stroke-width="0.70" style="font:bold 13.00px Times">
<text x="60.20" y="599.80">I</text>
</g>
<g stroke-width="0.70" style="font:bold 13.00px Times">
<text x="167.60" y="591.80">i<tspan
	 style="font:italic 11.00px Times">¹</tspan></text>
</g>
<g stroke-width="0.70" style="font:bold 13.00px Times">
<text x="234.20" y="594.80">i</text>
</g>
<g stroke-width="0.70" style="font:bold 13.00px Times">
<text x="343.00" y="591.80">I</text>
<use x="22.00" y="622.40" xlink:href="#tclef"/>
<use x="62.00" y="613.40" xlink:href="#hd"/>
<path d="M58.50 613.40v21.00" class="stroke"/>
<use x="102.00" y="619.40" xlink:href="#Hd"/>
<circle class="fill" cx="110.70" cy="619.40" r="1.2"/>
<path d="M105.50 619.40v-21.00" class="stroke"/>
<use x="171.10" y="619.40" xlink:href="#Hd"/>
<path d="M174.60 619.40v-21.00" class="stroke"/>
<use x="235.70" y="622.40" xlink:href="#hd"/>
<path d="M239.20 622.40v-21.00" class="stroke"/>
<use x="275.70" y="619.40" xlink:href="#Hd"/>
<circle class="fill" cx="284.40" cy="619.40" r="1.2"/>
<path d="M279.20 619.40v-21.00" class="stroke"/>
<use x="344.80" y="619.40" xlink:href="#Hd"/>
<circle class="fill" cx="353.50" cy="619.40" r="1.2"/>
<path d="M348.30 619.40v-21.00" class="stroke"/>
<use x="22.00" y="668.40" xlink:href="#bclef"/>
<use x="63.00" y="692.40" xlink:href="#hl1"/>
<use x="63.00" y="698.40" xlink:href="#hl1"/>
<use x="63.00" y="704.40" xlink:href="#hl1"/>
<use x="63.00" y="710.40" xlink:href="#hl1"/>
<use x="63.00" y="716.40" xlink:href="#hl1"/>
<use x="63.00" y="719.40" xlink:href="#HD"/>
<use x="63.00" y="698.40" xlink:href="#HD"/>
<use x="63.00" y="692.40" xlink:href="#HD"/>
<use x="63.00" y="686.40" xlink:href="#HD"/>
<use x="171.10" y="692.40" xlink:href="#hl"/>
<use x="171.10" y="698.40" xlink:href="#hl"/>
<use x="171.10" y="704.40" xlink:href="#hl"/>
<use x="171.10" y="704.40" xlink:href="#Hd"/>
<path d="M174.60 704.40v-52.00" class="stroke"/>
<use x="171.10" y="683.40" xlink:href="#Hd"/>
<use x="171.10" y="677.40" xlink:href="#Hd"/>
<use x="171.10" y="671.40" xlink:href="#Hd"/>
<use x="236.70" y="692.40" xlink:href="#hl1"/>
<use x="236.70" y="698.40" xlink:href="#hl1"/>
<use x="236.70" y="704.40" xlink:href="#hl1"/>
<use x="236.70" y="704.40" xlink:href="#HD"/>
<use x="236.70" y="683.40" xlink:href="#HD"/>
<use x="236.70" y="677.40" xlink:href="#HD"/>
<use x="236.70" y="671.40" xlink:href="#HD"/>
<use x="344.80" y="692.40" xlink:href="#hl"/>
<use x="344.80" y="698.40" xlink:href="#hl"/>
<use x="344.80" y="704.40" xlink:href="#hl"/>
<use x="344.80" y="710.40" xlink:href="#hl"/>
<use x="344.80" y="716.40" xlink:href="#hl"/>
<use x="344.80" y="719.40" xlink:href="#Hd"/>
<circle class="fill" cx="353.50" cy="719.40" r="1.2"/>
<path d="M348.30 719.40v-52.00" class="stroke"/>
<use x="344.80" y="698.40" xlink:href="#Hd"/>
<circle class="fill" cx="353.50" cy="695.40" r="1.2"/>
<use x="344.80" y="692.40" xlink:href="#Hd"/>
<circle class="fill" cx="353.50" cy="689.40" r="1.2"/>
<use x="344.80" y="686.40" xlink:href="#Hd"/>
<circle class="fill" cx="353.50" cy="683.40" r="1.2"/>
<g transform="rotate(270)">
<use x="-722.40" y="49.50" xlink:href="#ltr"/>
<use x="-716.40" y="49.50" xlink:href="#ltr"/>
<use x="-710.40" y="49.50" xlink:href="#ltr"/>
<use x="-704.40" y="49.50" xlink:href="#ltr"/>
<use x="-698.40" y="49.50" xlink:href="#ltr"/>
<use x="-692.40" y="49.50" xlink:href="#ltr"/>
<use x="-686.40" y="49.50" xlink:href="#ltr"/>
</g>
<g transform="rotate(270)">
<use x="-707.40" y="161.10" xlink:href="#ltr"/>
<use x="-701.40" y="161.10" xlink:href="#ltr"/>
<use x="-695.40" y="161.10" xlink:href="#ltr"/>
<use x="-689.40" y="161.10" xlink:href="#ltr"/>
<use x="-683.40" y="161.10" xlink:href="#ltr"/>
<use x="-677.40" y="161.10" xlink:href="#ltr"/>
<use x="-671.40" y="161.10" xlink:href="#ltr"/>
</g>
<g transform="rotate(270)">
<use x="-707.40" y="223.20" xlink:href="#ltr"/>
<use x="-701.40" y="223.20" xlink:href="#ltr"/>
<use x="-695.40" y="223.20" xlink:href="#ltr"/>
<use x="-689.40" y="223.20" xlink:href="#ltr"/>
<use x="-683.40" y="223.20" xlink:href="#ltr"/>
<use x="-677.40" y="223.20" xlink:href="#ltr"/>
<use x="-671.40" y="223.20" xlink:href="#ltr"/>
</g>
<g transform="rotate(270)">
<use x="-722.40" y="334.80" xlink:href="#ltr"/>
<use x="-716.40" y="334.80" xlink:href="#ltr"/>
<use x="-710.40" y="334.80" xlink:href="#ltr"/>
<use x="-704.40" y="334.80" xlink:href="#ltr"/>
<use x="-698.40" y="334.80" xlink:href="#ltr"/>
<use x="-692.40" y="334.80" xlink:href="#ltr"/>
<use x="-686.40" y="334.80" xlink:href="#ltr"/>
</g>
</g>
</svg>
