<?xml version="1.0" standalone="no"?>
<!DOCTYPE svg PUBLIC "-//W3C//DTD SVG 1.1//EN"
	"http://www.w3.org/Graphics/SVG/1.1/DTD/svg11.dtd">
<svg xmlns="http://www.w3.org/2000/svg" version="1.1"
	xmlns:xlink="http://www.w3.org/1999/xlink"
	color="black"
	width="701.60px" height="479.80px" viewBox="0 0 701.60 479.80" preserveAspectRatio="xMidYMid meet">
<style type="text/css">
.fill {fill: currentColor}
.stroke {stroke: currentColor; fill: none}
text{white-space: pre}
</style>
<title>/tmp/retab_hymnal_L7/jesus_christ_is_risen_today.abc (1) tune 1</title>
<!-- Creator: abcm2ps-8.14.11 -->
<!-- CreationDate: Apr 24, 2026 15:38 -->
<!-- CommandLine: /tmp/retab_hymnal_L7/jesus_christ_is_risen_today.abc -g -O /tmp/retab_hymnal_L7/jesus_christ_is_risen_today -->
<g stroke-width="0.70">
<!-- title: 121. Jesus Christ Is Risen Today -->
</g>
<g stroke-width="0.70" style="font:20.00px Times">
<text x="350.80" y="22.00" text-anchor="middle">121. Jesus Christ Is Risen Today</text>
</g>
<g stroke-width="0.70" style="font:20.00px Times">
<path class="stroke" stroke-width="1"
	d="M10.00 143.00v-82.00"/>
<defs>
<path id="brace" class="fill" d="m-2.5 101
	c-4.5 -4.6 -7.5 -12.2 -4.4 -26.8
	3.5 -14.3 3.2 -21.7 -2.1 -24.2
	7.4 2.4 7.3 14.2 3.5 29.5
	-2.7 9.5 -1.5 16.2 3 21.5
	M-2.5 1c-4.5 4.6 -7.5 12.2 -4.4 26.8
	c3.5 14.3 3.2 21.7 -2.1 24.2
	7.4 -2.4 7.3 -14.2 3.5 -29.5
	-2.7 -9.5 -1.5 -16.2 3 -21.5"/>
</defs>
<g transform="translate(10.00,61.00) scale(1,0.82)">
	<use xlink:href="#brace"/>
</g>
<path class="stroke" stroke-width="1"
	d="M153.80 85.00v-24.00"/>
<path class="stroke" stroke-width="1"
	d="M153.80 143.00v-24.00"/>
<path class="stroke" stroke-width="1"
	d="M246.20 85.00v-24.00"/>
<path class="stroke" stroke-width="1"
	d="M246.20 143.00v-24.00"/>
<path class="stroke" stroke-width="1"
	d="M392.70 85.00v-24.00"/>
<path class="stroke" stroke-width="1"
	d="M392.70 143.00v-24.00"/>
<path class="stroke" stroke-width="1"
	d="M482.10 85.00v-24.00"/>
<path class="stroke" stroke-width="1"
	d="M482.10 143.00v-24.00"/>
<path class="stroke" stroke-width="1"
	d="M586.80 85.00v-24.00"/>
<path class="stroke" stroke-width="1"
	d="M586.80 143.00v-24.00"/>
<path class="stroke" stroke-width="1"
	d="M691.60 85.00v-24.00"/>
<path class="stroke" stroke-width="1"
	d="M691.60 143.00v-24.00"/>
<path d="m10.00 85.00
	h681.60
	M10.00 79.00
	h681.60
	M10.00 73.00
	h681.60
	M10.00 67.00
	h681.60
	M10.00 61.00
	h681.60
	" class="stroke"/>
<path d="m10.00 143.00
	h681.60
	M10.00 137.00
	h681.60
	M10.00 131.00
	h681.60
	M10.00 125.00
	h681.60
	M10.00 119.00
	h681.60
	" class="stroke"/>
</g>
<g stroke-width="0.70" style="font:bold 13.00px Times">
<text x="72.20" y="56.40">I</text>
</g>
<g stroke-width="0.70" style="font:bold 13.00px Times">
<text x="158.60" y="48.40">IV<tspan
	 style="font:italic 11.00px Times">¹</tspan></text>
</g>
<g stroke-width="0.70" style="font:bold 13.00px Times">
<text x="269.30" y="56.40">I</text>
</g>
<g stroke-width="0.70" style="font:bold 13.00px Times">
<text x="413.90" y="56.40">I<tspan
	 style="font:italic 11.00px Times">²</tspan></text>
</g>
<g stroke-width="0.70" style="font:bold 13.00px Times">
<text x="499.40" y="51.40">IV<tspan
	 style="font:italic 11.00px Times">¹</tspan></text>
</g>
<g stroke-width="0.70" style="font:bold 13.00px Times">
<text x="606.80" y="54.40">ii<tspan
	 style="font:italic 11.00px Times">⁷</tspan></text>
</g>
<g stroke-width="0.70" style="font:italic 11.00px Times">
<defs>
<path id="utclef" class="fill" d="m-50 -90
	c-72 -41 -72 -158 52 -188
	150 -10 220 188 90 256
	-114 52 -275 0 -293 -136
	-15 -181 93 -229 220 -334
	88 -87 79 -133 62 -210
	-51 33 -94 105 -89 186
	17 267 36 374 49 574
	6 96 -19 134 -77 135
	-80 1 -126 -93 -61 -133
	85 -41 133 101 31 105
	23 17 92 37 90 -92
	-10 -223 -39 -342 -50 -617
	0 -90 0 -162 96 -232
	56 72 63 230 22 289
	-74 106 -257 168 -255 316
	9 153 148 185 252 133
	86 -65 29 -192 -80 -176
	-71 12 -105 67 -59 124"/>
<use id="tclef" transform="translate(0,6) scale(0.045)"
	xlink:href="#utclef"/>
</defs>
<use x="22.00" y="79.00" xlink:href="#tclef"/>
<g style="font:bold 16px serif"
	transform="translate(40.50,84.50) scale(1.2,1)">
	<text text-anchor="middle">4</text>
	<text y="-12" text-anchor="middle">4</text>
</g>
<defs>
<path id="hl" class="stroke" d="m-6 0h12"/>
</defs>
<use x="74.00" y="91.00" xlink:href="#hl"/>
<defs>
<ellipse id="hd" rx="4.1" ry="2.9"
	transform="rotate(-20)" class="fill"/>
</defs>
<use x="74.00" y="91.00" xlink:href="#hd"/>
<path d="M77.50 91.00v-21.00" class="stroke"/>
<use x="95.20" y="85.00" xlink:href="#hd"/>
<path d="M98.70 85.00v-21.00" class="stroke"/>
<use x="116.30" y="79.00" xlink:href="#hd"/>
<path d="M119.80 79.00v-21.00" class="stroke"/>
<use x="137.50" y="91.00" xlink:href="#hl"/>
<use x="137.50" y="91.00" xlink:href="#hd"/>
<path d="M141.00 91.00v-21.00" class="stroke"/>
<use x="166.30" y="82.00" xlink:href="#hd"/>
<path d="M169.80 82.00v-21.00" class="stroke"/>
<use x="187.40" y="76.00" xlink:href="#hd"/>
<path d="M190.90 76.00v-21.00" class="stroke"/>
<use x="208.70" y="76.00" xlink:href="#hd"/>
<path d="M212.20 76.00v-21.00" class="stroke"/>
<use x="229.90" y="79.00" xlink:href="#hd"/>
<path d="M233.40 79.00v-21.00" class="stroke"/>
<use x="271.20" y="85.00" xlink:href="#hd"/>
<path d="M274.70 85.00v-21.00" class="stroke"/>
<path class="fill"
	d="M274.70 64.00c0.6 5.6 9.6 9 5.6 18.4
	1.6 -6 -1.3 -11.6 -5.6 -12.8
"/>
<use x="287.80" y="82.00" xlink:href="#hd"/>
<path d="M291.30 82.00v-21.00" class="stroke"/>
<path class="fill"
	d="M291.30 61.00c0.6 5.6 9.6 9 5.6 18.4
	1.6 -6 -1.3 -11.6 -5.6 -12.8
"/>
<use x="304.50" y="79.00" xlink:href="#hd"/>
<path d="M308.00 79.00v-21.00" class="stroke"/>
<path class="fill"
	d="M308.00 58.00c0.6 5.6 9.6 9 5.6 18.4
	1.6 -6 -1.3 -11.6 -5.6 -12.8
"/>
<use x="321.20" y="91.00" xlink:href="#hl"/>
<use x="321.20" y="91.00" xlink:href="#hd"/>
<path d="M324.70 91.00v-21.00" class="stroke"/>
<path class="fill"
	d="M324.70 70.00c0.6 5.6 9.6 9 5.6 18.4
	1.6 -6 -1.3 -11.6 -5.6 -12.8
"/>
<use x="337.90" y="82.00" xlink:href="#hd"/>
<path d="M341.40 82.00v-21.00" class="stroke"/>
<use x="359.00" y="85.00" xlink:href="#hd"/>
<path d="M362.50 85.00v-21.00" class="stroke"/>
<path class="fill"
	d="M362.50 64.00c0.6 5.6 9.6 9 5.6 18.4
	1.6 -6 -1.3 -11.6 -5.6 -12.8
"/>
<use x="375.70" y="82.00" xlink:href="#hd"/>
<path d="M379.20 82.00v-21.00" class="stroke"/>
<path class="fill"
	d="M379.20 61.00c0.6 5.6 9.6 9 5.6 18.4
	1.6 -6 -1.3 -11.6 -5.6 -12.8
"/>
<use x="417.70" y="85.00" xlink:href="#hd"/>
<path d="M421.20 85.00v-21.00" class="stroke"/>
<use x="438.90" y="88.00" xlink:href="#hd"/>
<path d="M442.40 88.00v-21.00" class="stroke"/>
<use x="460.10" y="91.00" xlink:href="#hl"/>
<defs>
<path id="Hd" class="fill" d="m3 -1.6
	c-1 -1.8 -7 1.4 -6 3.2
	1 1.8 7 -1.4 6 -3.2
	m0.5 -0.3
	c2 3.8 -5 7.6 -7 3.8
	-2 -3.8 5 -7.6 7 -3.8"/>
</defs>
<use x="460.10" y="91.00" xlink:href="#Hd"/>
<path d="M463.60 91.00v-21.00" class="stroke"/>
<use x="507.10" y="82.00" xlink:href="#hd"/>
<path d="M510.60 82.00v-21.00" class="stroke"/>
<use x="528.20" y="79.00" xlink:href="#hd"/>
<path d="M531.70 79.00v-21.00" class="stroke"/>
<use x="549.40" y="76.00" xlink:href="#hd"/>
<path d="M552.90 76.00v-21.00" class="stroke"/>
<use x="570.50" y="79.00" xlink:href="#hd"/>
<path d="M574.00 79.00v-21.00" class="stroke"/>
<use x="611.80" y="82.00" xlink:href="#hd"/>
<path d="M615.30 82.00v-21.00" class="stroke"/>
<use x="633.00" y="85.00" xlink:href="#hd"/>
<path d="M636.50 85.00v-21.00" class="stroke"/>
<use x="654.10" y="85.00" xlink:href="#hd"/>
<path d="M657.60 85.00v-21.00" class="stroke"/>
<use x="675.30" y="88.00" xlink:href="#hd"/>
<path d="M678.80 88.00v-21.00" class="stroke"/>
<defs>
<path id="ubclef" class="fill" d="m-200 -87
	c124 -35 222 -78 254 -236
	43 -228 -167 -246 -192 -103
	59 -80 157 22 92 78
	-62 47 -115 -22 -106 -88
	21 -141 270 -136 274 52
	-1 175 -106 264 -322 297
	m357 -250
	c0 -36 51 -34 51 0
	0 37 -51 36 -51 0
	m-2 -129
	c0 -36 51 -34 51 0
	0 38 -51 37 -51 0"/>
<use id="bclef" transform="translate(0,18) scale(0.045)"
	xlink:href="#ubclef"/>
</defs>
<use x="22.00" y="125.00" xlink:href="#bclef"/>
<g style="font:bold 16px serif"
	transform="translate(40.50,142.50) scale(1.2,1)">
	<text text-anchor="middle">4</text>
	<text y="-12" text-anchor="middle">4</text>
</g>
<defs>
<path id="hl1" class="stroke" d="m-7 0h14"/>
</defs>
<use x="75.00" y="149.00" xlink:href="#hl1"/>
<use x="75.00" y="155.00" xlink:href="#hl1"/>
<use x="75.00" y="161.00" xlink:href="#hl1"/>
<use x="75.00" y="167.00" xlink:href="#hl1"/>
<use x="75.00" y="173.00" xlink:href="#hl1"/>
<defs>
<path id="HD" class="fill" d="m-2.7 -1.4
	c1.5 -2.8 6.9 0 5.3 2.7
	-1.5 2.8 -6.9 0 -5.3 -2.7
	m8.3 1.4
	c0 -1.5 -2.2 -3 -5.6 -3
	-3.4 0 -5.6 1.5 -5.6 3
	0 1.5 2.2 3 5.6 3
	3.4 0 5.6 -1.5 5.6 -3"/>
</defs>
<use x="75.00" y="176.00" xlink:href="#HD"/>
<use x="75.00" y="155.00" xlink:href="#HD"/>
<use x="75.00" y="149.00" xlink:href="#HD"/>
<use x="75.00" y="143.00" xlink:href="#HD"/>
<use x="166.30" y="134.00" xlink:href="#hd"/>
<path d="M169.80 134.00v-21.00" class="stroke"/>
<use x="187.40" y="140.00" xlink:href="#hd"/>
<path d="M190.90 140.00v-21.00" class="stroke"/>
<use x="208.70" y="146.00" xlink:href="#Hd"/>
<path d="M212.20 146.00v-21.00" class="stroke"/>
<use x="272.20" y="149.00" xlink:href="#hl1"/>
<use x="272.20" y="155.00" xlink:href="#hl1"/>
<use x="272.20" y="161.00" xlink:href="#hl1"/>
<use x="272.20" y="167.00" xlink:href="#hl1"/>
<use x="272.20" y="173.00" xlink:href="#hl1"/>
<use x="272.20" y="176.00" xlink:href="#HD"/>
<use x="272.20" y="155.00" xlink:href="#HD"/>
<use x="272.20" y="149.00" xlink:href="#HD"/>
<use x="272.20" y="143.00" xlink:href="#HD"/>
<use x="418.70" y="149.00" xlink:href="#hl1"/>
<use x="418.70" y="155.00" xlink:href="#hl1"/>
<use x="418.70" y="161.00" xlink:href="#hl1"/>
<use x="418.70" y="167.00" xlink:href="#hl1"/>
<use x="418.70" y="173.00" xlink:href="#hl1"/>
<use x="418.70" y="176.00" xlink:href="#HD"/>
<use x="418.70" y="155.00" xlink:href="#HD"/>
<use x="418.70" y="149.00" xlink:href="#HD"/>
<use x="418.70" y="143.00" xlink:href="#HD"/>
<use x="508.10" y="149.00" xlink:href="#hl1"/>
<use x="508.10" y="155.00" xlink:href="#hl1"/>
<use x="508.10" y="161.00" xlink:href="#hl1"/>
<use x="508.10" y="167.00" xlink:href="#hl1"/>
<use x="508.10" y="167.00" xlink:href="#HD"/>
<use x="508.10" y="146.00" xlink:href="#HD"/>
<use x="508.10" y="140.00" xlink:href="#HD"/>
<use x="508.10" y="134.00" xlink:href="#HD"/>
<use x="612.80" y="149.00" xlink:href="#hl1"/>
<use x="612.80" y="155.00" xlink:href="#hl1"/>
<use x="612.80" y="161.00" xlink:href="#hl1"/>
<use x="612.80" y="167.00" xlink:href="#hl1"/>
<use x="612.80" y="173.00" xlink:href="#hl1"/>
<use x="612.80" y="173.00" xlink:href="#HD"/>
<use x="612.80" y="152.00" xlink:href="#HD"/>
<use x="612.80" y="146.00" xlink:href="#HD"/>
<use x="612.80" y="140.00" xlink:href="#HD"/>
<defs>
<path id="ltr" class="fill"
    d="m0 -0.4c2 -1.5 3.4 -1.9 3.9 0.4
	c0.2 0.8 0.7 0.7 2.1 -0.4
	v0.8c-2 1.5 -3.4 1.9 -3.9 -0.4
	c-0.2 -0.8 -0.7 -0.7 -2.1 0.4z"/>
</defs>
<g transform="rotate(270)">
<use x="-179.00" y="61.50" xlink:href="#ltr"/>
<use x="-173.00" y="61.50" xlink:href="#ltr"/>
<use x="-167.00" y="61.50" xlink:href="#ltr"/>
<use x="-161.00" y="61.50" xlink:href="#ltr"/>
<use x="-155.00" y="61.50" xlink:href="#ltr"/>
<use x="-149.00" y="61.50" xlink:href="#ltr"/>
<use x="-143.00" y="61.50" xlink:href="#ltr"/>
</g>
<g transform="rotate(270)">
<use x="-179.00" y="258.70" xlink:href="#ltr"/>
<use x="-173.00" y="258.70" xlink:href="#ltr"/>
<use x="-167.00" y="258.70" xlink:href="#ltr"/>
<use x="-161.00" y="258.70" xlink:href="#ltr"/>
<use x="-155.00" y="258.70" xlink:href="#ltr"/>
<use x="-149.00" y="258.70" xlink:href="#ltr"/>
<use x="-143.00" y="258.70" xlink:href="#ltr"/>
</g>
<g transform="rotate(270)">
<use x="-179.00" y="405.20" xlink:href="#ltr"/>
<use x="-173.00" y="405.20" xlink:href="#ltr"/>
<use x="-167.00" y="405.20" xlink:href="#ltr"/>
<use x="-161.00" y="405.20" xlink:href="#ltr"/>
<use x="-155.00" y="405.20" xlink:href="#ltr"/>
<use x="-149.00" y="405.20" xlink:href="#ltr"/>
<use x="-143.00" y="405.20" xlink:href="#ltr"/>
</g>
<g transform="rotate(270)">
<use x="-170.00" y="494.60" xlink:href="#ltr"/>
<use x="-164.00" y="494.60" xlink:href="#ltr"/>
<use x="-158.00" y="494.60" xlink:href="#ltr"/>
<use x="-152.00" y="494.60" xlink:href="#ltr"/>
<use x="-146.00" y="494.60" xlink:href="#ltr"/>
<use x="-140.00" y="494.60" xlink:href="#ltr"/>
<use x="-134.00" y="494.60" xlink:href="#ltr"/>
</g>
<g transform="rotate(270)">
<use x="-176.00" y="599.30" xlink:href="#ltr"/>
<use x="-170.00" y="599.30" xlink:href="#ltr"/>
<use x="-164.00" y="599.30" xlink:href="#ltr"/>
<use x="-158.00" y="599.30" xlink:href="#ltr"/>
<use x="-152.00" y="599.30" xlink:href="#ltr"/>
<use x="-146.00" y="599.30" xlink:href="#ltr"/>
<use x="-140.00" y="599.30" xlink:href="#ltr"/>
</g>
</g>
<g stroke-width="0.70" style="font:italic 11.00px Times">
<path class="stroke" stroke-width="1"
	d="M10.00 289.40v-82.00"/>
<g transform="translate(10.00,207.40) scale(1,0.82)">
	<use xlink:href="#brace"/>
</g>
<path class="stroke" stroke-width="1"
	d="M191.00 231.40v-24.00"/>
<path class="stroke" stroke-width="1"
	d="M191.00 289.40v-24.00"/>
<path class="stroke" stroke-width="1"
	d="M297.80 231.40v-24.00"/>
<path class="stroke" stroke-width="1"
	d="M297.80 289.40v-24.00"/>
<path class="stroke" stroke-width="1"
	d="M421.60 231.40v-24.00"/>
<path class="stroke" stroke-width="1"
	d="M421.60 289.40v-24.00"/>
<path class="stroke" stroke-width="1"
	d="M528.40 231.40v-24.00"/>
<path class="stroke" stroke-width="1"
	d="M528.40 289.40v-24.00"/>
<path class="stroke" stroke-width="1"
	d="M691.60 231.40v-24.00"/>
<path class="stroke" stroke-width="1"
	d="M691.60 289.40v-24.00"/>
<path d="m10.00 231.40
	h681.60
	M10.00 225.40
	h681.60
	M10.00 219.40
	h681.60
	M10.00 213.40
	h681.60
	M10.00 207.40
	h681.60
	" class="stroke"/>
<path d="m10.00 289.40
	h681.60
	M10.00 283.40
	h681.60
	M10.00 277.40
	h681.60
	M10.00 271.40
	h681.60
	M10.00 265.40
	h681.60
	" class="stroke"/>
</g>
<g stroke-width="0.70" style="font:bold 13.00px Times">
<text x="44.70" y="202.80">I</text>
</g>
<g stroke-width="0.70" style="font:bold 13.00px Times">
<text x="212.20" y="202.80">I<tspan
	 style="font:italic 11.00px Times">²</tspan></text>
</g>
<g stroke-width="0.70" style="font:bold 13.00px Times">
<text x="318.80" y="191.80">V</text>
</g>
<g stroke-width="0.70" style="font:bold 13.00px Times">
<text x="442.90" y="202.80">I<tspan
	 style="font:italic 11.00px Times">¹</tspan></text>
</g>
<g stroke-width="0.70" style="font:bold 13.00px Times">
<text x="549.50" y="202.80">V</text>
<use x="22.00" y="225.40" xlink:href="#tclef"/>
<use x="46.50" y="231.40" xlink:href="#hd"/>
<path d="M50.00 231.40v-21.00" class="stroke"/>
<path class="fill"
	d="M50.00 210.40c0.6 5.6 9.6 9 5.6 18.4
	1.6 -6 -1.3 -11.6 -5.6 -12.8
"/>
<use x="66.60" y="228.40" xlink:href="#hd"/>
<path d="M70.10 228.40v-21.00" class="stroke"/>
<path class="fill"
	d="M70.10 207.40c0.6 5.6 9.6 9 5.6 18.4
	1.6 -6 -1.3 -11.6 -5.6 -12.8
"/>
<use x="86.60" y="225.40" xlink:href="#hd"/>
<path d="M90.10 225.40v-21.00" class="stroke"/>
<path class="fill"
	d="M90.10 204.40c0.6 5.6 9.6 9 5.6 18.4
	1.6 -6 -1.3 -11.6 -5.6 -12.8
"/>
<use x="106.70" y="237.40" xlink:href="#hl"/>
<use x="106.70" y="237.40" xlink:href="#hd"/>
<path d="M110.20 237.40v-21.00" class="stroke"/>
<path class="fill"
	d="M110.20 216.40c0.6 5.6 9.6 9 5.6 18.4
	1.6 -6 -1.3 -11.6 -5.6 -12.8
"/>
<use x="126.80" y="228.40" xlink:href="#hd"/>
<path d="M130.30 228.40v-21.00" class="stroke"/>
<use x="153.90" y="231.40" xlink:href="#hd"/>
<path d="M157.40 231.40v-21.00" class="stroke"/>
<path class="fill"
	d="M157.40 210.40c0.6 5.6 9.6 9 5.6 18.4
	1.6 -6 -1.3 -11.6 -5.6 -12.8
"/>
<use x="174.00" y="228.40" xlink:href="#hd"/>
<path d="M177.50 228.40v-21.00" class="stroke"/>
<path class="fill"
	d="M177.50 207.40c0.6 5.6 9.6 9 5.6 18.4
	1.6 -6 -1.3 -11.6 -5.6 -12.8
"/>
<use x="216.00" y="231.40" xlink:href="#hd"/>
<path d="M219.50 231.40v-21.00" class="stroke"/>
<use x="243.20" y="234.40" xlink:href="#hd"/>
<path d="M246.70 234.40v-21.00" class="stroke"/>
<use x="270.40" y="237.40" xlink:href="#hl"/>
<use x="270.40" y="237.40" xlink:href="#Hd"/>
<path d="M273.90 237.40v-21.00" class="stroke"/>
<use x="322.80" y="219.40" xlink:href="#hd"/>
<path d="M326.30 219.40v-21.00" class="stroke"/>
<use x="350.20" y="216.40" xlink:href="#hd"/>
<path d="M346.70 216.40v21.00" class="stroke"/>
<use x="377.40" y="213.40" xlink:href="#hd"/>
<path d="M373.90 213.40v21.00" class="stroke"/>
<use x="401.90" y="225.40" xlink:href="#hd"/>
<path d="M405.40 225.40v-21.00" class="stroke"/>
<use x="446.60" y="216.40" xlink:href="#hd"/>
<path d="M443.10 216.40v21.00" class="stroke"/>
<use x="473.80" y="213.40" xlink:href="#hd"/>
<path d="M470.30 213.40v21.00" class="stroke"/>
<use x="501.00" y="210.40" xlink:href="#Hd"/>
<path d="M497.50 210.40v21.00" class="stroke"/>
<use x="553.40" y="219.40" xlink:href="#hd"/>
<path d="M549.90 219.40v21.00" class="stroke"/>
<path class="fill"
	d="M549.90 240.40c0.6 -5.6 9.6 -9 5.6 -18.4
	1.6 6 -1.3 11.6 -5.6 12.8
"/>
<use x="572.90" y="216.40" xlink:href="#hd"/>
<path d="M569.40 216.40v21.00" class="stroke"/>
<path class="fill"
	d="M569.40 237.40c0.6 -5.6 9.6 -9 5.6 -18.4
	1.6 6 -1.3 11.6 -5.6 12.8
"/>
<use x="592.40" y="213.40" xlink:href="#hd"/>
<path d="M588.90 213.40v21.00" class="stroke"/>
<path class="fill"
	d="M588.90 234.40c0.6 -5.6 9.6 -9 5.6 -18.4
	1.6 6 -1.3 11.6 -5.6 12.8
"/>
<use x="610.10" y="225.40" xlink:href="#hd"/>
<path d="M613.60 225.40v-21.00" class="stroke"/>
<path class="fill"
	d="M613.60 204.40c0.6 5.6 9.6 9 5.6 18.4
	1.6 -6 -1.3 -11.6 -5.6 -12.8
"/>
<use x="630.50" y="216.40" xlink:href="#hd"/>
<path d="M627.00 216.40v21.00" class="stroke"/>
<use x="657.70" y="219.40" xlink:href="#hd"/>
<path d="M654.20 219.40v21.00" class="stroke"/>
<path class="fill"
	d="M654.20 240.40c0.6 -5.6 9.6 -9 5.6 -18.4
	1.6 6 -1.3 11.6 -5.6 12.8
"/>
<use x="677.20" y="216.40" xlink:href="#hd"/>
<path d="M673.70 216.40v21.00" class="stroke"/>
<path class="fill"
	d="M673.70 237.40c0.6 -5.6 9.6 -9 5.6 -18.4
	1.6 6 -1.3 11.6 -5.6 12.8
"/>
<use x="22.00" y="271.40" xlink:href="#bclef"/>
<use x="46.50" y="295.40" xlink:href="#hl"/>
<use x="46.50" y="301.40" xlink:href="#hl"/>
<use x="46.50" y="301.40" xlink:href="#hd"/>
<path d="M50.00 301.40v-24.00" class="stroke"/>
<use x="86.60" y="295.40" xlink:href="#hl"/>
<use x="86.60" y="295.40" xlink:href="#hd"/>
<path d="M90.10 295.40v-21.00" class="stroke"/>
<use x="126.80" y="289.40" xlink:href="#Hd"/>
<path d="M130.30 289.40v-21.00" class="stroke"/>
<use x="217.00" y="295.40" xlink:href="#hl1"/>
<use x="217.00" y="301.40" xlink:href="#hl1"/>
<use x="217.00" y="307.40" xlink:href="#hl1"/>
<use x="217.00" y="313.40" xlink:href="#hl1"/>
<use x="217.00" y="319.40" xlink:href="#hl1"/>
<use x="217.00" y="322.40" xlink:href="#HD"/>
<use x="217.00" y="301.40" xlink:href="#HD"/>
<use x="217.00" y="295.40" xlink:href="#HD"/>
<use x="217.00" y="289.40" xlink:href="#HD"/>
<use x="323.80" y="295.40" xlink:href="#hl1"/>
<use x="323.80" y="301.40" xlink:href="#hl1"/>
<use x="323.80" y="307.40" xlink:href="#hl1"/>
<use x="323.80" y="310.40" xlink:href="#HD"/>
<use x="323.80" y="289.40" xlink:href="#HD"/>
<use x="323.80" y="283.40" xlink:href="#HD"/>
<use x="323.80" y="277.40" xlink:href="#HD"/>
<use x="447.60" y="295.40" xlink:href="#hl1"/>
<use x="447.60" y="301.40" xlink:href="#hl1"/>
<use x="447.60" y="307.40" xlink:href="#hl1"/>
<use x="447.60" y="313.40" xlink:href="#hl1"/>
<use x="447.60" y="319.40" xlink:href="#hl1"/>
<use x="447.60" y="322.40" xlink:href="#HD"/>
<use x="447.60" y="301.40" xlink:href="#HD"/>
<use x="447.60" y="295.40" xlink:href="#HD"/>
<use x="447.60" y="289.40" xlink:href="#HD"/>
<use x="554.40" y="295.40" xlink:href="#hl1"/>
<use x="554.40" y="301.40" xlink:href="#hl1"/>
<use x="554.40" y="307.40" xlink:href="#hl1"/>
<use x="554.40" y="310.40" xlink:href="#HD"/>
<use x="554.40" y="289.40" xlink:href="#HD"/>
<use x="554.40" y="283.40" xlink:href="#HD"/>
<use x="554.40" y="277.40" xlink:href="#HD"/>
<g transform="rotate(270)">
<use x="-325.40" y="203.50" xlink:href="#ltr"/>
<use x="-319.40" y="203.50" xlink:href="#ltr"/>
<use x="-313.40" y="203.50" xlink:href="#ltr"/>
<use x="-307.40" y="203.50" xlink:href="#ltr"/>
<use x="-301.40" y="203.50" xlink:href="#ltr"/>
<use x="-295.40" y="203.50" xlink:href="#ltr"/>
<use x="-289.40" y="203.50" xlink:href="#ltr"/>
</g>
<g transform="rotate(270)">
<use x="-313.40" y="310.30" xlink:href="#ltr"/>
<use x="-307.40" y="310.30" xlink:href="#ltr"/>
<use x="-301.40" y="310.30" xlink:href="#ltr"/>
<use x="-295.40" y="310.30" xlink:href="#ltr"/>
<use x="-289.40" y="310.30" xlink:href="#ltr"/>
<use x="-283.40" y="310.30" xlink:href="#ltr"/>
<use x="-277.40" y="310.30" xlink:href="#ltr"/>
</g>
<g transform="rotate(270)">
<use x="-325.40" y="434.10" xlink:href="#ltr"/>
<use x="-319.40" y="434.10" xlink:href="#ltr"/>
<use x="-313.40" y="434.10" xlink:href="#ltr"/>
<use x="-307.40" y="434.10" xlink:href="#ltr"/>
<use x="-301.40" y="434.10" xlink:href="#ltr"/>
<use x="-295.40" y="434.10" xlink:href="#ltr"/>
<use x="-289.40" y="434.10" xlink:href="#ltr"/>
</g>
<g transform="rotate(270)">
<use x="-313.40" y="540.90" xlink:href="#ltr"/>
<use x="-307.40" y="540.90" xlink:href="#ltr"/>
<use x="-301.40" y="540.90" xlink:href="#ltr"/>
<use x="-295.40" y="540.90" xlink:href="#ltr"/>
<use x="-289.40" y="540.90" xlink:href="#ltr"/>
<use x="-283.40" y="540.90" xlink:href="#ltr"/>
<use x="-277.40" y="540.90" xlink:href="#ltr"/>
</g>
</g>
<g stroke-width="0.70" style="font:bold 13.00px Times">
<path class="stroke" stroke-width="1"
	d="M10.00 440.80v-82.00"/>
<g transform="translate(10.00,358.80) scale(1,0.82)">
	<use xlink:href="#brace"/>
</g>
<path class="stroke" stroke-width="1"
	d="M130.80 382.80v-24.00"/>
<path class="stroke" stroke-width="1"
	d="M130.80 440.80v-24.00"/>
<path class="stroke" stroke-width="1"
	d="M283.60 382.80v-24.00"/>
<path class="stroke" stroke-width="1"
	d="M283.60 440.80v-24.00"/>
<path class="stroke" stroke-width="1"
	d="M412.90 382.80v-24.00"/>
<path class="stroke" stroke-width="1"
	d="M412.90 440.80v-24.00"/>
<path class="stroke" stroke-width="1"
	d="M582.10 382.80v-24.00"/>
<path class="stroke" stroke-width="1"
	d="M582.10 440.80v-24.00"/>
<path class="stroke" stroke-width="1"
	d="M691.60 382.80v-24.00"/>
<path class="stroke" stroke-width="1"
	d="M691.60 440.80v-24.00"/>
<path d="m10.00 382.80
	h681.60
	M10.00 376.80
	h681.60
	M10.00 370.80
	h681.60
	M10.00 364.80
	h681.60
	M10.00 358.80
	h681.60
	" class="stroke"/>
<path d="m10.00 440.80
	h681.60
	M10.00 434.80
	h681.60
	M10.00 428.80
	h681.60
	M10.00 422.80
	h681.60
	M10.00 416.80
	h681.60
	" class="stroke"/>
</g>
<g stroke-width="0.70" style="font:bold 13.00px Times">
<text x="40.60" y="354.20">V<tspan
	 style="font:italic 11.00px Times">²</tspan></text>
</g>
<g stroke-width="0.70" style="font:bold 13.00px Times">
<text x="151.80" y="349.20">V</text>
</g>
<g stroke-width="0.70" style="font:bold 13.00px Times">
<text x="300.80" y="352.20">IV<tspan
	 style="font:italic 11.00px Times">¹</tspan></text>
</g>
<g stroke-width="0.70" style="font:bold 13.00px Times">
<text x="423.50" y="352.20">I</text>
</g>
<g stroke-width="0.70" style="font:bold 13.00px Times">
<text x="603.30" y="338.20">I<tspan
	 style="font:italic 11.00px Times">²</tspan></text>
</g>
<g stroke-width="0.70" style="font:italic 11.00px Times">
<use x="22.00" y="376.80" xlink:href="#tclef"/>
<use x="46.50" y="370.80" xlink:href="#hd"/>
<path d="M43.00 370.80v21.00" class="stroke"/>
<use x="74.50" y="373.80" xlink:href="#hd"/>
<path d="M78.00 373.80v-21.00" class="stroke"/>
<use x="102.60" y="376.80" xlink:href="#Hd"/>
<path d="M106.10 376.80v-21.00" class="stroke"/>
<use x="155.80" y="376.80" xlink:href="#hd"/>
<path d="M159.30 376.80v-21.00" class="stroke"/>
<path class="fill"
	d="M159.30 355.80c0.6 5.6 9.6 9 5.6 18.4
	1.6 -6 -1.3 -11.6 -5.6 -12.8
"/>
<use x="176.30" y="373.80" xlink:href="#hd"/>
<path d="M179.80 373.80v-21.00" class="stroke"/>
<path class="fill"
	d="M179.80 352.80c0.6 5.6 9.6 9 5.6 18.4
	1.6 -6 -1.3 -11.6 -5.6 -12.8
"/>
<use x="196.80" y="370.80" xlink:href="#hd"/>
<path d="M200.30 370.80v-21.00" class="stroke"/>
<path class="fill"
	d="M200.30 349.80c0.6 5.6 9.6 9 5.6 18.4
	1.6 -6 -1.3 -11.6 -5.6 -12.8
"/>
<use x="217.30" y="376.80" xlink:href="#hd"/>
<path d="M220.80 376.80v-21.00" class="stroke"/>
<path class="fill"
	d="M220.80 355.80c0.6 5.6 9.6 9 5.6 18.4
	1.6 -6 -1.3 -11.6 -5.6 -12.8
"/>
<use x="238.00" y="367.80" xlink:href="#hd"/>
<path d="M234.50 367.80v21.00" class="stroke"/>
<use x="263.30" y="382.80" xlink:href="#hd"/>
<path d="M266.80 382.80v-21.00" class="stroke"/>
<use x="308.60" y="379.80" xlink:href="#hd"/>
<path d="M312.10 379.80v-21.00" class="stroke"/>
<use x="336.60" y="373.80" xlink:href="#hd"/>
<path d="M340.10 373.80v-21.00" class="stroke"/>
<use x="364.60" y="373.80" xlink:href="#hd"/>
<path d="M368.10 373.80v-21.00" class="stroke"/>
<use x="392.70" y="376.80" xlink:href="#hd"/>
<path d="M396.20 376.80v-21.00" class="stroke"/>
<use x="425.40" y="367.80" xlink:href="#hd"/>
<path d="M421.90 367.80v21.00" class="stroke"/>
<path class="fill"
	d="M421.90 388.80c0.6 -5.6 9.6 -9 5.6 -18.4
	1.6 6 -1.3 11.6 -5.6 12.8
"/>
<use x="445.40" y="370.80" xlink:href="#hd"/>
<path d="M441.90 370.80v21.00" class="stroke"/>
<path class="fill"
	d="M441.90 391.80c0.6 -5.6 9.6 -9 5.6 -18.4
	1.6 6 -1.3 11.6 -5.6 12.8
"/>
<use x="465.50" y="367.80" xlink:href="#hd"/>
<path d="M462.00 367.80v21.00" class="stroke"/>
<path class="fill"
	d="M462.00 388.80c0.6 -5.6 9.6 -9 5.6 -18.4
	1.6 6 -1.3 11.6 -5.6 12.8
"/>
<use x="485.60" y="376.80" xlink:href="#hd"/>
<path d="M489.10 376.80v-21.00" class="stroke"/>
<path class="fill"
	d="M489.10 355.80c0.6 5.6 9.6 9 5.6 18.4
	1.6 -6 -1.3 -11.6 -5.6 -12.8
"/>
<use x="506.10" y="373.80" xlink:href="#hd"/>
<path d="M509.60 373.80v-21.00" class="stroke"/>
<path class="fill"
	d="M509.60 352.80c0.6 5.6 9.6 9 5.6 18.4
	1.6 -6 -1.3 -11.6 -5.6 -12.8
"/>
<use x="526.60" y="370.80" xlink:href="#hd"/>
<path d="M530.10 370.80v-21.00" class="stroke"/>
<path class="fill"
	d="M530.10 349.80c0.6 5.6 9.6 9 5.6 18.4
	1.6 -6 -1.3 -11.6 -5.6 -12.8
"/>
<use x="547.40" y="367.80" xlink:href="#hd"/>
<path d="M543.90 367.80v21.00" class="stroke"/>
<path class="fill"
	d="M543.90 388.80c0.6 -5.6 9.6 -9 5.6 -18.4
	1.6 6 -1.3 11.6 -5.6 12.8
"/>
<use x="567.50" y="364.80" xlink:href="#hd"/>
<path d="M564.00 364.80v21.00" class="stroke"/>
<path class="fill"
	d="M564.00 385.80c0.6 -5.6 9.6 -9 5.6 -18.4
	1.6 6 -1.3 11.6 -5.6 12.8
"/>
<use x="607.10" y="352.80" xlink:href="#hl"/>
<use x="607.10" y="346.80" xlink:href="#hl"/>
<use x="607.10" y="346.80" xlink:href="#hd"/>
<path d="M603.60 346.80v40.00" class="stroke"/>
<use x="607.10" y="367.80" xlink:href="#hd"/>
<use x="635.30" y="352.80" xlink:href="#hl"/>
<use x="635.30" y="349.80" xlink:href="#hd"/>
<path d="M631.80 349.80v40.00" class="stroke"/>
<use x="635.30" y="370.80" xlink:href="#hd"/>
<use x="663.40" y="352.80" xlink:href="#hl"/>
<use x="663.40" y="346.80" xlink:href="#hl"/>
<use x="663.40" y="346.80" xlink:href="#Hd"/>
<path d="M659.90 346.80v40.00" class="stroke"/>
<use x="663.40" y="367.80" xlink:href="#Hd"/>
<use x="22.00" y="422.80" xlink:href="#bclef"/>
<use x="46.50" y="440.80" xlink:href="#hd"/>
<path d="M50.00 440.80v-21.00" class="stroke"/>
<use x="74.50" y="434.80" xlink:href="#hd"/>
<path d="M78.00 434.80v-21.00" class="stroke"/>
<use x="102.60" y="428.80" xlink:href="#Hd"/>
<path d="M106.10 428.80v-21.00" class="stroke"/>
<use x="156.80" y="446.80" xlink:href="#hl1"/>
<use x="156.80" y="452.80" xlink:href="#hl1"/>
<use x="156.80" y="458.80" xlink:href="#hl1"/>
<use x="156.80" y="461.80" xlink:href="#HD"/>
<use x="156.80" y="440.80" xlink:href="#HD"/>
<use x="156.80" y="434.80" xlink:href="#HD"/>
<use x="156.80" y="428.80" xlink:href="#HD"/>
<use x="309.60" y="446.80" xlink:href="#hl1"/>
<use x="309.60" y="452.80" xlink:href="#hl1"/>
<use x="309.60" y="458.80" xlink:href="#hl1"/>
<use x="309.60" y="464.80" xlink:href="#hl1"/>
<use x="309.60" y="464.80" xlink:href="#HD"/>
<use x="309.60" y="443.80" xlink:href="#HD"/>
<use x="309.60" y="437.80" xlink:href="#HD"/>
<use x="309.60" y="431.80" xlink:href="#HD"/>
<use x="425.40" y="446.80" xlink:href="#hl"/>
<use x="425.40" y="452.80" xlink:href="#hl"/>
<use x="425.40" y="452.80" xlink:href="#hd"/>
<path d="M428.90 452.80v-24.00" class="stroke"/>
<use x="465.50" y="446.80" xlink:href="#hl"/>
<use x="465.50" y="446.80" xlink:href="#hd"/>
<path d="M469.00 446.80v-21.00" class="stroke"/>
<use x="506.10" y="440.80" xlink:href="#Hd"/>
<path d="M509.60 440.80v-21.00" class="stroke"/>
<use x="608.10" y="446.80" xlink:href="#hl1"/>
<use x="608.10" y="452.80" xlink:href="#hl1"/>
<use x="608.10" y="458.80" xlink:href="#hl1"/>
<use x="608.10" y="464.80" xlink:href="#hl1"/>
<use x="608.10" y="470.80" xlink:href="#hl1"/>
<use x="608.10" y="473.80" xlink:href="#HD"/>
<use x="608.10" y="452.80" xlink:href="#HD"/>
<use x="608.10" y="446.80" xlink:href="#HD"/>
<use x="608.10" y="440.80" xlink:href="#HD"/>
<g transform="rotate(270)">
<use x="-464.80" y="143.30" xlink:href="#ltr"/>
<use x="-458.80" y="143.30" xlink:href="#ltr"/>
<use x="-452.80" y="143.30" xlink:href="#ltr"/>
<use x="-446.80" y="143.30" xlink:href="#ltr"/>
<use x="-440.80" y="143.30" xlink:href="#ltr"/>
<use x="-434.80" y="143.30" xlink:href="#ltr"/>
<use x="-428.80" y="143.30" xlink:href="#ltr"/>
</g>
<g transform="rotate(270)">
<use x="-467.80" y="296.10" xlink:href="#ltr"/>
<use x="-461.80" y="296.10" xlink:href="#ltr"/>
<use x="-455.80" y="296.10" xlink:href="#ltr"/>
<use x="-449.80" y="296.10" xlink:href="#ltr"/>
<use x="-443.80" y="296.10" xlink:href="#ltr"/>
<use x="-437.80" y="296.10" xlink:href="#ltr"/>
<use x="-431.80" y="296.10" xlink:href="#ltr"/>
</g>
<g transform="rotate(270)">
<use x="-476.80" y="594.60" xlink:href="#ltr"/>
<use x="-470.80" y="594.60" xlink:href="#ltr"/>
<use x="-464.80" y="594.60" xlink:href="#ltr"/>
<use x="-458.80" y="594.60" xlink:href="#ltr"/>
<use x="-452.80" y="594.60" xlink:href="#ltr"/>
<use x="-446.80" y="594.60" xlink:href="#ltr"/>
<use x="-440.80" y="594.60" xlink:href="#ltr"/>
</g>
</g>
</svg>
