<?xml version="1.0" standalone="no"?>
<!DOCTYPE svg PUBLIC "-//W3C//DTD SVG 1.1//EN"
	"http://www.w3.org/Graphics/SVG/1.1/DTD/svg11.dtd">
<svg xmlns="http://www.w3.org/2000/svg" version="1.1"
	xmlns:xlink="http://www.w3.org/1999/xlink"
	color="black"
	width="701.60px" height="687.40px" viewBox="0 0 701.60 687.40" preserveAspectRatio="xMidYMid meet">
<style type="text/css">
.fill {fill: currentColor}
.stroke {stroke: currentColor; fill: none}
text{white-space: pre}
</style>
<title>/tmp/retab_hymnal_L7/lift_up_your_heads_ye_mighty_gates.abc (1) tune 1</title>
<!-- Creator: abcm2ps-8.14.11 -->
<!-- CreationDate: Apr 24, 2026 15:38 -->
<!-- CommandLine: /tmp/retab_hymnal_L7/lift_up_your_heads_ye_mighty_gates.abc -g -O /tmp/retab_hymnal_L7/lift_up_your_heads_ye_mighty_gates -->
<g stroke-width="0.70">
<!-- title: 139. Lift Up Your Heads, Ye Mighty Gates -->
</g>
<g stroke-width="0.70" style="font:20.00px Times">
<text x="350.80" y="22.00" text-anchor="middle">139. Lift Up Your Heads, Ye Mighty Gates</text>
</g>
<g stroke-width="0.70" style="font:20.00px Times">
<path class="stroke" stroke-width="1"
	d="M10.00 143.00v-82.00"/>
<defs>
<path id="brace" class="fill" d="m-2.5 101
	c-4.5 -4.6 -7.5 -12.2 -4.4 -26.8
	3.5 -14.3 3.2 -21.7 -2.1 -24.2
	7.4 2.4 7.3 14.2 3.5 29.5
	-2.7 9.5 -1.5 16.2 3 21.5
	M-2.5 1c-4.5 4.6 -7.5 12.2 -4.4 26.8
	c3.5 14.3 3.2 21.7 -2.1 24.2
	7.4 -2.4 7.3 -14.2 3.5 -29.5
	-2.7 -9.5 -1.5 -16.2 3 -21.5"/>
</defs>
<g transform="translate(10.00,61.00) scale(1,0.82)">
	<use xlink:href="#brace"/>
</g>
<path class="stroke" stroke-width="1"
	d="M166.60 85.00v-24.00"/>
<path class="stroke" stroke-width="1"
	d="M166.60 143.00v-24.00"/>
<path class="stroke" stroke-width="1"
	d="M274.40 85.00v-24.00"/>
<path class="stroke" stroke-width="1"
	d="M274.40 143.00v-24.00"/>
<path class="stroke" stroke-width="1"
	d="M382.20 85.00v-24.00"/>
<path class="stroke" stroke-width="1"
	d="M382.20 143.00v-24.00"/>
<path class="stroke" stroke-width="1"
	d="M489.90 85.00v-24.00"/>
<path class="stroke" stroke-width="1"
	d="M489.90 143.00v-24.00"/>
<path class="stroke" stroke-width="1"
	d="M597.60 85.00v-24.00"/>
<path class="stroke" stroke-width="1"
	d="M597.60 143.00v-24.00"/>
<path class="stroke" stroke-width="1"
	d="M691.60 85.00v-24.00"/>
<path class="stroke" stroke-width="1"
	d="M691.60 143.00v-24.00"/>
<path d="m10.00 85.00
	h681.60
	M10.00 79.00
	h681.60
	M10.00 73.00
	h681.60
	M10.00 67.00
	h681.60
	M10.00 61.00
	h681.60
	" class="stroke"/>
<path d="m10.00 143.00
	h681.60
	M10.00 137.00
	h681.60
	M10.00 131.00
	h681.60
	M10.00 125.00
	h681.60
	M10.00 119.00
	h681.60
	" class="stroke"/>
</g>
<g stroke-width="0.70" style="font:bold 13.00px Times">
<text x="92.60" y="56.40">V</text>
</g>
<g stroke-width="0.70" style="font:bold 13.00px Times">
<text x="177.50" y="48.40">I</text>
</g>
<g stroke-width="0.70" style="font:bold 13.00px Times">
<text x="285.30" y="48.40">I</text>
</g>
<g stroke-width="0.70" style="font:bold 13.00px Times">
<text x="389.00" y="51.40">V<tspan
	 style="font:italic 11.00px Times">²</tspan></text>
</g>
<g stroke-width="0.70" style="font:bold 13.00px Times">
<text x="498.60" y="56.40">V</text>
</g>
<g stroke-width="0.70" style="font:bold 13.00px Times">
<text x="617.60" y="51.40">V</text>
<defs>
<path id="utclef" class="fill" d="m-50 -90
	c-72 -41 -72 -158 52 -188
	150 -10 220 188 90 256
	-114 52 -275 0 -293 -136
	-15 -181 93 -229 220 -334
	88 -87 79 -133 62 -210
	-51 33 -94 105 -89 186
	17 267 36 374 49 574
	6 96 -19 134 -77 135
	-80 1 -126 -93 -61 -133
	85 -41 133 101 31 105
	23 17 92 37 90 -92
	-10 -223 -39 -342 -50 -617
	0 -90 0 -162 96 -232
	56 72 63 230 22 289
	-74 106 -257 168 -255 316
	9 153 148 185 252 133
	86 -65 29 -192 -80 -176
	-71 12 -105 67 -59 124"/>
<use id="tclef" transform="translate(0,6) scale(0.045)"
	xlink:href="#utclef"/>
</defs>
<use x="22.00" y="79.00" xlink:href="#tclef"/>
<defs>
<path id="usharp" class="fill" d="
	m136 -702
	v890
	h32
	v-890
	m128 840
	h32
	v-888
	h-32
	m-232 286
	v116
	l338 -96
	v-116
	m-338 442
	v116
	l338 -98
	v-114"/>
<use id="sh0" transform="translate(-4,5) scale(0.018)"
	xlink:href="#usharp"/>
</defs>
<use x="37.00" y="61.00" xlink:href="#sh0"/>
<use x="42.50" y="70.00" xlink:href="#sh0"/>
<use x="48.00" y="58.00" xlink:href="#sh0"/>
<g style="font:bold 16px serif"
	transform="translate(64.00,84.50) scale(1.2,1)">
	<text text-anchor="middle">4</text>
	<text y="-12" text-anchor="middle">3</text>
</g>
<defs>
<ellipse id="hd" rx="4.1" ry="2.9"
	transform="rotate(-20)" class="fill"/>
</defs>
<use x="96.50" y="85.00" xlink:href="#hd"/>
<path d="M100.00 85.00v-21.00" class="stroke"/>
<defs>
<path id="Hd" class="fill" d="m3 -1.6
	c-1 -1.8 -7 1.4 -6 3.2
	1 1.8 7 -1.4 6 -3.2
	m0.5 -0.3
	c2 3.8 -5 7.6 -7 3.8
	-2 -3.8 5 -7.6 7 -3.8"/>
</defs>
<use x="131.70" y="70.00" xlink:href="#Hd"/>
<path d="M128.20 70.00v21.00" class="stroke"/>
<use x="179.30" y="76.00" xlink:href="#hd"/>
<path d="M182.80 76.00v-21.00" class="stroke"/>
<use x="214.40" y="76.00" xlink:href="#hd"/>
<path d="M217.90 76.00v-21.00" class="stroke"/>
<use x="249.60" y="79.00" xlink:href="#hd"/>
<path d="M253.10 79.00v-21.00" class="stroke"/>
<use x="287.10" y="76.00" xlink:href="#hd"/>
<path d="M290.60 76.00v-21.00" class="stroke"/>
<use x="322.20" y="73.00" xlink:href="#Hd"/>
<path d="M325.70 73.00v-21.00" class="stroke"/>
<use x="394.90" y="79.00" xlink:href="#hd"/>
<path d="M398.40 79.00v-21.00" class="stroke"/>
<use x="430.00" y="85.00" xlink:href="#Hd"/>
<path d="M433.50 85.00v-21.00" class="stroke"/>
<use x="502.60" y="85.00" xlink:href="#hd"/>
<path d="M506.10 85.00v-21.00" class="stroke"/>
<use x="537.70" y="85.00" xlink:href="#hd"/>
<path d="M541.20 85.00v-21.00" class="stroke"/>
<use x="572.80" y="82.00" xlink:href="#hd"/>
<path d="M576.30 82.00v-21.00" class="stroke"/>
<use x="621.60" y="79.00" xlink:href="#hd"/>
<path d="M625.10 79.00v-21.00" class="stroke"/>
<use x="656.70" y="76.00" xlink:href="#Hd"/>
<path d="M660.20 76.00v-21.00" class="stroke"/>
<defs>
<path id="ubclef" class="fill" d="m-200 -87
	c124 -35 222 -78 254 -236
	43 -228 -167 -246 -192 -103
	59 -80 157 22 92 78
	-62 47 -115 -22 -106 -88
	21 -141 270 -136 274 52
	-1 175 -106 264 -322 297
	m357 -250
	c0 -36 51 -34 51 0
	0 37 -51 36 -51 0
	m-2 -129
	c0 -36 51 -34 51 0
	0 38 -51 37 -51 0"/>
<use id="bclef" transform="translate(0,18) scale(0.045)"
	xlink:href="#ubclef"/>
</defs>
<use x="22.00" y="125.00" xlink:href="#bclef"/>
<use x="37.00" y="125.00" xlink:href="#sh0"/>
<use x="42.50" y="134.00" xlink:href="#sh0"/>
<use x="48.00" y="122.00" xlink:href="#sh0"/>
<g style="font:bold 16px serif"
	transform="translate(64.00,142.50) scale(1.2,1)">
	<text text-anchor="middle">4</text>
	<text y="-12" text-anchor="middle">3</text>
</g>
<defs>
<path id="hl" class="stroke" d="m-6 0h12"/>
</defs>
<use x="96.50" y="149.00" xlink:href="#hl"/>
<use x="96.50" y="149.00" xlink:href="#Hd"/>
<circle class="fill" cx="106.20" cy="146.00" r="1.2"/>
<path d="M100.00 149.00v-50.00" class="stroke"/>
<use x="96.50" y="128.00" xlink:href="#Hd"/>
<circle class="fill" cx="106.20" cy="128.00" r="1.2"/>
<use x="96.50" y="122.00" xlink:href="#Hd"/>
<circle class="fill" cx="106.20" cy="122.00" r="1.2"/>
<use x="96.50" y="116.00" xlink:href="#Hd"/>
<circle class="fill" cx="106.20" cy="116.00" r="1.2"/>
<use x="179.30" y="140.00" xlink:href="#hd"/>
<path d="M182.80 140.00v-21.00" class="stroke"/>
<use x="214.40" y="134.00" xlink:href="#hd"/>
<path d="M217.90 134.00v-21.00" class="stroke"/>
<use x="249.60" y="128.00" xlink:href="#hd"/>
<path d="M246.10 128.00v21.00" class="stroke"/>
<use x="287.10" y="140.00" xlink:href="#hd"/>
<path d="M290.60 140.00v-21.00" class="stroke"/>
<use x="322.20" y="134.00" xlink:href="#hd"/>
<path d="M325.70 134.00v-21.00" class="stroke"/>
<use x="357.40" y="128.00" xlink:href="#hd"/>
<path d="M353.90 128.00v21.00" class="stroke"/>
<use x="394.90" y="128.00" xlink:href="#hd"/>
<path d="M391.40 128.00v21.00" class="stroke"/>
<use x="430.00" y="122.00" xlink:href="#hd"/>
<path d="M426.50 122.00v21.00" class="stroke"/>
<use x="465.10" y="116.00" xlink:href="#hd"/>
<path d="M461.60 116.00v21.00" class="stroke"/>
<use x="502.60" y="128.00" xlink:href="#hd"/>
<path d="M499.10 128.00v21.00" class="stroke"/>
<use x="537.70" y="122.00" xlink:href="#hd"/>
<path d="M534.20 122.00v21.00" class="stroke"/>
<use x="572.80" y="116.00" xlink:href="#hd"/>
<path d="M569.30 116.00v21.00" class="stroke"/>
<use x="621.60" y="149.00" xlink:href="#hl"/>
<use x="621.60" y="149.00" xlink:href="#Hd"/>
<circle class="fill" cx="630.30" cy="146.00" r="1.2"/>
<path d="M625.10 149.00v-50.00" class="stroke"/>
<use x="621.60" y="128.00" xlink:href="#Hd"/>
<circle class="fill" cx="630.30" cy="128.00" r="1.2"/>
<use x="621.60" y="122.00" xlink:href="#Hd"/>
<circle class="fill" cx="630.30" cy="122.00" r="1.2"/>
<use x="621.60" y="116.00" xlink:href="#Hd"/>
<circle class="fill" cx="630.30" cy="116.00" r="1.2"/>
<defs>
<path id="ltr" class="fill"
    d="m0 -0.4c2 -1.5 3.4 -1.9 3.9 0.4
	c0.2 0.8 0.7 0.7 2.1 -0.4
	v0.8c-2 1.5 -3.4 1.9 -3.9 -0.4
	c-0.2 -0.8 -0.7 -0.7 -2.1 0.4z"/>
</defs>
<g transform="rotate(270)">
<use x="-152.00" y="86.50" xlink:href="#ltr"/>
<use x="-146.00" y="86.50" xlink:href="#ltr"/>
<use x="-140.00" y="86.50" xlink:href="#ltr"/>
<use x="-134.00" y="86.50" xlink:href="#ltr"/>
<use x="-128.00" y="86.50" xlink:href="#ltr"/>
<use x="-122.00" y="86.50" xlink:href="#ltr"/>
<use x="-116.00" y="86.50" xlink:href="#ltr"/>
</g>
<g transform="rotate(270)">
<use x="-152.00" y="611.60" xlink:href="#ltr"/>
<use x="-146.00" y="611.60" xlink:href="#ltr"/>
<use x="-140.00" y="611.60" xlink:href="#ltr"/>
<use x="-134.00" y="611.60" xlink:href="#ltr"/>
<use x="-128.00" y="611.60" xlink:href="#ltr"/>
<use x="-122.00" y="611.60" xlink:href="#ltr"/>
<use x="-116.00" y="611.60" xlink:href="#ltr"/>
</g>
</g>
<g stroke-width="0.70" style="font:bold 13.00px Times">
<path class="stroke" stroke-width="1"
	d="M10.00 271.00v-82.00"/>
<g transform="translate(10.00,189.00) scale(1,0.82)">
	<use xlink:href="#brace"/>
</g>
<path class="stroke" stroke-width="1"
	d="M138.60 213.00v-24.00"/>
<path class="stroke" stroke-width="1"
	d="M138.60 271.00v-24.00"/>
<path class="stroke" stroke-width="1"
	d="M220.80 213.00v-24.00"/>
<path class="stroke" stroke-width="1"
	d="M220.80 271.00v-24.00"/>
<path class="stroke" stroke-width="1"
	d="M323.60 213.00v-24.00"/>
<path class="stroke" stroke-width="1"
	d="M323.60 271.00v-24.00"/>
<path class="stroke" stroke-width="1"
	d="M415.00 213.00v-24.00"/>
<path class="stroke" stroke-width="1"
	d="M415.00 271.00v-24.00"/>
<path class="stroke" stroke-width="1"
	d="M517.80 213.00v-24.00"/>
<path class="stroke" stroke-width="1"
	d="M517.80 271.00v-24.00"/>
<path class="stroke" stroke-width="1"
	d="M600.00 213.00v-24.00"/>
<path class="stroke" stroke-width="1"
	d="M600.00 271.00v-24.00"/>
<path class="stroke" stroke-width="1"
	d="M691.60 213.00v-24.00"/>
<path class="stroke" stroke-width="1"
	d="M691.60 271.00v-24.00"/>
<path d="m10.00 213.00
	h681.60
	M10.00 207.00
	h681.60
	M10.00 201.00
	h681.60
	M10.00 195.00
	h681.60
	M10.00 189.00
	h681.60
	" class="stroke"/>
<path d="m10.00 271.00
	h681.60
	M10.00 265.00
	h681.60
	M10.00 259.00
	h681.60
	M10.00 253.00
	h681.60
	M10.00 247.00
	h681.60
	" class="stroke"/>
</g>
<g stroke-width="0.70" style="font:bold 13.00px Times">
<text x="74.70" y="182.40">IV</text>
</g>
<g stroke-width="0.70" style="font:bold 13.00px Times">
<text x="158.70" y="184.40">V</text>
</g>
<g stroke-width="0.70" style="font:bold 13.00px Times">
<text x="243.00" y="184.40">I</text>
</g>
<g stroke-width="0.70" style="font:bold 13.00px Times">
<text x="334.30" y="182.40">I</text>
</g>
<g stroke-width="0.70" style="font:bold 13.00px Times">
<text x="433.10" y="184.40">V<tspan
	 style="font:italic 11.00px Times">¹</tspan></text>
</g>
<g stroke-width="0.70" style="font:bold 13.00px Times">
<text x="538.80" y="184.40">ii</text>
</g>
<g stroke-width="0.70" style="font:bold 13.00px Times">
<text x="607.90" y="182.40">iii</text>
<use x="22.00" y="207.00" xlink:href="#tclef"/>
<use x="37.00" y="189.00" xlink:href="#sh0"/>
<use x="42.50" y="198.00" xlink:href="#sh0"/>
<use x="48.00" y="186.00" xlink:href="#sh0"/>
<use x="80.50" y="210.00" xlink:href="#hd"/>
<path d="M84.00 210.00v-21.00" class="stroke"/>
<use x="109.50" y="213.00" xlink:href="#Hd"/>
<path d="M113.00 213.00v-21.00" class="stroke"/>
<use x="162.60" y="216.00" xlink:href="#hd"/>
<path d="M166.10 216.00v-21.00" class="stroke"/>
<use x="191.60" y="219.00" xlink:href="#hl"/>
<use x="191.60" y="219.00" xlink:href="#Hd"/>
<path d="M195.10 219.00v-21.00" class="stroke"/>
<use x="244.80" y="219.00" xlink:href="#hl"/>
<use x="244.80" y="219.00" xlink:href="#hd"/>
<path d="M248.30 219.00v-21.00" class="stroke"/>
<use x="273.70" y="213.00" xlink:href="#hd"/>
<path d="M277.20 213.00v-21.00" class="stroke"/>
<use x="302.70" y="204.00" xlink:href="#hd"/>
<path d="M306.20 204.00v-21.00" class="stroke"/>
<use x="336.10" y="198.00" xlink:href="#hd"/>
<path d="M332.60 198.00v21.00" class="stroke"/>
<use x="365.10" y="201.00" xlink:href="#hd"/>
<path d="M361.60 201.00v21.00" class="stroke"/>
<use x="394.00" y="207.00" xlink:href="#hd"/>
<path d="M397.50 207.00v-21.00" class="stroke"/>
<use x="439.00" y="213.00" xlink:href="#hd"/>
<path d="M442.50 213.00v-21.00" class="stroke"/>
<use x="467.90" y="204.00" xlink:href="#hd"/>
<path d="M471.40 204.00v-21.00" class="stroke"/>
<use x="496.90" y="210.00" xlink:href="#hd"/>
<path d="M500.40 210.00v-21.00" class="stroke"/>
<use x="541.80" y="216.00" xlink:href="#hd"/>
<path d="M545.30 216.00v-21.00" class="stroke"/>
<use x="570.80" y="213.00" xlink:href="#Hd"/>
<path d="M574.30 213.00v-21.00" class="stroke"/>
<use x="612.50" y="213.00" xlink:href="#hd"/>
<path d="M616.00 213.00v-21.00" class="stroke"/>
<use x="641.70" y="204.00" xlink:href="#Hd"/>
<path d="M645.20 204.00v-21.00" class="stroke"/>
<use x="22.00" y="253.00" xlink:href="#bclef"/>
<use x="37.00" y="253.00" xlink:href="#sh0"/>
<use x="42.50" y="262.00" xlink:href="#sh0"/>
<use x="48.00" y="250.00" xlink:href="#sh0"/>
<use x="80.50" y="277.00" xlink:href="#hl"/>
<use x="80.50" y="280.00" xlink:href="#Hd"/>
<circle class="fill" cx="90.20" cy="280.00" r="1.2"/>
<path d="M84.00 280.00v-52.00" class="stroke"/>
<use x="80.50" y="259.00" xlink:href="#Hd"/>
<circle class="fill" cx="90.20" cy="256.00" r="1.2"/>
<use x="80.50" y="253.00" xlink:href="#Hd"/>
<circle class="fill" cx="90.20" cy="250.00" r="1.2"/>
<use x="80.50" y="247.00" xlink:href="#Hd"/>
<circle class="fill" cx="90.20" cy="244.00" r="1.2"/>
<use x="162.60" y="277.00" xlink:href="#hl"/>
<use x="162.60" y="277.00" xlink:href="#Hd"/>
<circle class="fill" cx="171.30" cy="274.00" r="1.2"/>
<path d="M166.10 277.00v-50.00" class="stroke"/>
<use x="162.60" y="256.00" xlink:href="#Hd"/>
<circle class="fill" cx="171.30" cy="256.00" r="1.2"/>
<use x="162.60" y="250.00" xlink:href="#Hd"/>
<circle class="fill" cx="171.30" cy="250.00" r="1.2"/>
<use x="162.60" y="244.00" xlink:href="#Hd"/>
<circle class="fill" cx="171.30" cy="244.00" r="1.2"/>
<use x="244.80" y="277.00" xlink:href="#hl"/>
<use x="244.80" y="283.00" xlink:href="#hl"/>
<use x="244.80" y="289.00" xlink:href="#hl"/>
<use x="244.80" y="289.00" xlink:href="#Hd"/>
<circle class="fill" cx="253.50" cy="286.00" r="1.2"/>
<path d="M248.30 289.00v-52.00" class="stroke"/>
<use x="244.80" y="268.00" xlink:href="#Hd"/>
<circle class="fill" cx="253.50" cy="268.00" r="1.2"/>
<use x="244.80" y="262.00" xlink:href="#Hd"/>
<circle class="fill" cx="253.50" cy="262.00" r="1.2"/>
<use x="244.80" y="256.00" xlink:href="#Hd"/>
<circle class="fill" cx="253.50" cy="256.00" r="1.2"/>
<use x="336.10" y="256.00" xlink:href="#hd"/>
<path d="M332.60 256.00v21.00" class="stroke"/>
<use x="365.10" y="262.00" xlink:href="#hd"/>
<path d="M368.60 262.00v-21.00" class="stroke"/>
<use x="394.00" y="268.00" xlink:href="#hd"/>
<path d="M397.50 268.00v-21.00" class="stroke"/>
<use x="439.00" y="277.00" xlink:href="#hl"/>
<use x="439.00" y="277.00" xlink:href="#Hd"/>
<circle class="fill" cx="447.70" cy="274.00" r="1.2"/>
<path d="M442.50 277.00v-50.00" class="stroke"/>
<use x="439.00" y="256.00" xlink:href="#Hd"/>
<circle class="fill" cx="447.70" cy="256.00" r="1.2"/>
<use x="439.00" y="250.00" xlink:href="#Hd"/>
<circle class="fill" cx="447.70" cy="250.00" r="1.2"/>
<use x="439.00" y="244.00" xlink:href="#Hd"/>
<circle class="fill" cx="447.70" cy="244.00" r="1.2"/>
<use x="541.80" y="277.00" xlink:href="#hl"/>
<use x="541.80" y="283.00" xlink:href="#hl"/>
<use x="541.80" y="286.00" xlink:href="#Hd"/>
<circle class="fill" cx="550.50" cy="286.00" r="1.2"/>
<path d="M545.30 286.00v-52.00" class="stroke"/>
<use x="541.80" y="265.00" xlink:href="#Hd"/>
<circle class="fill" cx="550.50" cy="262.00" r="1.2"/>
<use x="541.80" y="259.00" xlink:href="#Hd"/>
<circle class="fill" cx="550.50" cy="256.00" r="1.2"/>
<use x="541.80" y="253.00" xlink:href="#Hd"/>
<circle class="fill" cx="550.50" cy="250.00" r="1.2"/>
<use x="612.50" y="262.00" xlink:href="#hd"/>
<path d="M616.00 262.00v-21.00" class="stroke"/>
<use x="641.70" y="256.00" xlink:href="#hd"/>
<path d="M638.20 256.00v21.00" class="stroke"/>
<use x="670.60" y="250.00" xlink:href="#hd"/>
<path d="M667.10 250.00v21.00" class="stroke"/>
<g transform="rotate(270)">
<use x="-283.00" y="70.50" xlink:href="#ltr"/>
<use x="-277.00" y="70.50" xlink:href="#ltr"/>
<use x="-271.00" y="70.50" xlink:href="#ltr"/>
<use x="-265.00" y="70.50" xlink:href="#ltr"/>
<use x="-259.00" y="70.50" xlink:href="#ltr"/>
<use x="-253.00" y="70.50" xlink:href="#ltr"/>
<use x="-247.00" y="70.50" xlink:href="#ltr"/>
</g>
<g transform="rotate(270)">
<use x="-280.00" y="152.60" xlink:href="#ltr"/>
<use x="-274.00" y="152.60" xlink:href="#ltr"/>
<use x="-268.00" y="152.60" xlink:href="#ltr"/>
<use x="-262.00" y="152.60" xlink:href="#ltr"/>
<use x="-256.00" y="152.60" xlink:href="#ltr"/>
<use x="-250.00" y="152.60" xlink:href="#ltr"/>
<use x="-244.00" y="152.60" xlink:href="#ltr"/>
</g>
<g transform="rotate(270)">
<use x="-292.00" y="234.80" xlink:href="#ltr"/>
<use x="-286.00" y="234.80" xlink:href="#ltr"/>
<use x="-280.00" y="234.80" xlink:href="#ltr"/>
<use x="-274.00" y="234.80" xlink:href="#ltr"/>
<use x="-268.00" y="234.80" xlink:href="#ltr"/>
<use x="-262.00" y="234.80" xlink:href="#ltr"/>
<use x="-256.00" y="234.80" xlink:href="#ltr"/>
</g>
<g transform="rotate(270)">
<use x="-280.00" y="429.00" xlink:href="#ltr"/>
<use x="-274.00" y="429.00" xlink:href="#ltr"/>
<use x="-268.00" y="429.00" xlink:href="#ltr"/>
<use x="-262.00" y="429.00" xlink:href="#ltr"/>
<use x="-256.00" y="429.00" xlink:href="#ltr"/>
<use x="-250.00" y="429.00" xlink:href="#ltr"/>
<use x="-244.00" y="429.00" xlink:href="#ltr"/>
</g>
<g transform="rotate(270)">
<use x="-289.00" y="531.80" xlink:href="#ltr"/>
<use x="-283.00" y="531.80" xlink:href="#ltr"/>
<use x="-277.00" y="531.80" xlink:href="#ltr"/>
<use x="-271.00" y="531.80" xlink:href="#ltr"/>
<use x="-265.00" y="531.80" xlink:href="#ltr"/>
<use x="-259.00" y="531.80" xlink:href="#ltr"/>
<use x="-253.00" y="531.80" xlink:href="#ltr"/>
</g>
</g>
<g stroke-width="0.70" style="font:bold 13.00px Times">
<path class="stroke" stroke-width="1"
	d="M10.00 402.40v-82.00"/>
<g transform="translate(10.00,320.40) scale(1,0.82)">
	<use xlink:href="#brace"/>
</g>
<path class="stroke" stroke-width="1"
	d="M144.20 344.40v-24.00"/>
<path class="stroke" stroke-width="1"
	d="M144.20 402.40v-24.00"/>
<path class="stroke" stroke-width="1"
	d="M231.70 344.40v-24.00"/>
<path class="stroke" stroke-width="1"
	d="M231.70 402.40v-24.00"/>
<path class="stroke" stroke-width="1"
	d="M330.40 344.40v-24.00"/>
<path class="stroke" stroke-width="1"
	d="M330.40 402.40v-24.00"/>
<path class="stroke" stroke-width="1"
	d="M417.90 344.40v-24.00"/>
<path class="stroke" stroke-width="1"
	d="M417.90 402.40v-24.00"/>
<path class="stroke" stroke-width="1"
	d="M505.40 344.40v-24.00"/>
<path class="stroke" stroke-width="1"
	d="M505.40 402.40v-24.00"/>
<path class="stroke" stroke-width="1"
	d="M604.10 344.40v-24.00"/>
<path class="stroke" stroke-width="1"
	d="M604.10 402.40v-24.00"/>
<path class="stroke" stroke-width="1"
	d="M691.60 344.40v-24.00"/>
<path class="stroke" stroke-width="1"
	d="M691.60 402.40v-24.00"/>
<path d="m10.00 344.40
	h681.60
	M10.00 338.40
	h681.60
	M10.00 332.40
	h681.60
	M10.00 326.40
	h681.60
	M10.00 320.40
	h681.60
	" class="stroke"/>
<path d="m10.00 402.40
	h681.60
	M10.00 396.40
	h681.60
	M10.00 390.40
	h681.60
	M10.00 384.40
	h681.60
	M10.00 378.40
	h681.60
	" class="stroke"/>
</g>
<g stroke-width="0.70" style="font:bold 13.00px Times">
<text x="76.60" y="304.80">V</text>
</g>
<g stroke-width="0.70" style="font:bold 13.00px Times">
<text x="163.90" y="307.80">vi</text>
</g>
<g stroke-width="0.70" style="font:bold 13.00px Times">
<text x="241.10" y="313.80">ii</text>
</g>
<g stroke-width="0.70" style="font:bold 13.00px Times">
<text x="352.60" y="307.80">I</text>
</g>
<g stroke-width="0.70" style="font:bold 13.00px Times">
<text x="434.00" y="304.80">V<tspan
	 style="font:italic 11.00px Times">⁷³</tspan></text>
</g>
<g stroke-width="0.70" style="font:bold 13.00px Times">
<text x="516.10" y="315.80">I</text>
</g>
<g stroke-width="0.70" style="font:bold 13.00px Times">
<text x="620.20" y="315.80">V<tspan
	 style="font:italic 11.00px Times">⁷¹</tspan></text>
</g>
<g stroke-width="0.70" style="font:italic 11.00px Times">
<use x="22.00" y="338.40" xlink:href="#tclef"/>
<use x="37.00" y="320.40" xlink:href="#sh0"/>
<use x="42.50" y="329.40" xlink:href="#sh0"/>
<use x="48.00" y="317.40" xlink:href="#sh0"/>
<use x="80.50" y="332.40" xlink:href="#hd"/>
<path d="M84.00 332.40v-21.00" class="stroke"/>
<use x="112.40" y="329.40" xlink:href="#Hd"/>
<path d="M108.90 329.40v21.00" class="stroke"/>
<use x="168.20" y="335.40" xlink:href="#hd"/>
<path d="M171.70 335.40v-21.00" class="stroke"/>
<use x="199.90" y="338.40" xlink:href="#Hd"/>
<path d="M203.40 338.40v-21.00" class="stroke"/>
<use x="244.20" y="341.40" xlink:href="#hd"/>
<path d="M247.70 341.40v-21.00" class="stroke"/>
<use x="275.90" y="344.40" xlink:href="#Hd"/>
<path d="M279.40 344.40v-21.00" class="stroke"/>
<use x="354.40" y="335.40" xlink:href="#hd"/>
<path d="M357.90 335.40v-21.00" class="stroke"/>
<use x="386.10" y="338.40" xlink:href="#Hd"/>
<path d="M389.60 338.40v-21.00" class="stroke"/>
<use x="441.90" y="332.40" xlink:href="#hd"/>
<path d="M445.40 332.40v-21.00" class="stroke"/>
<use x="473.60" y="335.40" xlink:href="#Hd"/>
<path d="M477.10 335.40v-21.00" class="stroke"/>
<use x="517.90" y="329.40" xlink:href="#hd"/>
<path d="M514.40 329.40v21.00" class="stroke"/>
<use x="549.70" y="332.40" xlink:href="#Hd"/>
<path d="M546.20 332.40v21.00" class="stroke"/>
<use x="628.10" y="326.40" xlink:href="#hd"/>
<path d="M624.60 326.40v21.00" class="stroke"/>
<use x="659.90" y="329.40" xlink:href="#Hd"/>
<path d="M656.40 329.40v21.00" class="stroke"/>
<use x="22.00" y="384.40" xlink:href="#bclef"/>
<use x="37.00" y="384.40" xlink:href="#sh0"/>
<use x="42.50" y="393.40" xlink:href="#sh0"/>
<use x="48.00" y="381.40" xlink:href="#sh0"/>
<use x="80.50" y="408.40" xlink:href="#hl"/>
<use x="80.50" y="408.40" xlink:href="#Hd"/>
<circle class="fill" cx="90.20" cy="405.40" r="1.2"/>
<path d="M84.00 408.40v-50.00" class="stroke"/>
<use x="80.50" y="387.40" xlink:href="#Hd"/>
<circle class="fill" cx="90.20" cy="387.40" r="1.2"/>
<use x="80.50" y="381.40" xlink:href="#Hd"/>
<circle class="fill" cx="90.20" cy="381.40" r="1.2"/>
<use x="80.50" y="375.40" xlink:href="#Hd"/>
<circle class="fill" cx="90.20" cy="375.40" r="1.2"/>
<use x="168.20" y="372.40" xlink:href="#hl"/>
<use x="168.20" y="372.40" xlink:href="#Hd"/>
<circle class="fill" cx="176.90" cy="369.40" r="1.2"/>
<path d="M164.70 372.40v50.00" class="stroke"/>
<use x="168.20" y="405.40" xlink:href="#Hd"/>
<circle class="fill" cx="176.90" cy="405.40" r="1.2"/>
<use x="168.20" y="384.40" xlink:href="#Hd"/>
<circle class="fill" cx="176.90" cy="381.40" r="1.2"/>
<use x="168.20" y="378.40" xlink:href="#Hd"/>
<circle class="fill" cx="176.90" cy="375.40" r="1.2"/>
<use x="244.20" y="384.40" xlink:href="#hd"/>
<path d="M240.70 384.40v21.00" class="stroke"/>
<use x="275.90" y="390.40" xlink:href="#hd"/>
<path d="M272.40 390.40v21.00" class="stroke"/>
<use x="307.70" y="396.40" xlink:href="#hd"/>
<path d="M311.20 396.40v-21.00" class="stroke"/>
<use x="354.40" y="408.40" xlink:href="#hl"/>
<use x="354.40" y="414.40" xlink:href="#hl"/>
<use x="354.40" y="420.40" xlink:href="#hl"/>
<use x="354.40" y="420.40" xlink:href="#Hd"/>
<circle class="fill" cx="363.10" cy="417.40" r="1.2"/>
<path d="M357.90 420.40v-52.00" class="stroke"/>
<use x="354.40" y="399.40" xlink:href="#Hd"/>
<circle class="fill" cx="363.10" cy="399.40" r="1.2"/>
<use x="354.40" y="393.40" xlink:href="#Hd"/>
<circle class="fill" cx="363.10" cy="393.40" r="1.2"/>
<use x="354.40" y="387.40" xlink:href="#Hd"/>
<circle class="fill" cx="363.10" cy="387.40" r="1.2"/>
<use x="441.90" y="408.40" xlink:href="#hl"/>
<use x="441.90" y="408.40" xlink:href="#Hd"/>
<circle class="fill" cx="450.60" cy="405.40" r="1.2"/>
<path d="M445.40 408.40v-50.00" class="stroke"/>
<use x="441.90" y="387.40" xlink:href="#Hd"/>
<circle class="fill" cx="450.60" cy="387.40" r="1.2"/>
<use x="441.90" y="381.40" xlink:href="#Hd"/>
<circle class="fill" cx="450.60" cy="381.40" r="1.2"/>
<use x="441.90" y="375.40" xlink:href="#Hd"/>
<circle class="fill" cx="450.60" cy="375.40" r="1.2"/>
<use x="517.90" y="387.40" xlink:href="#hd"/>
<path d="M514.40 387.40v21.00" class="stroke"/>
<use x="549.70" y="393.40" xlink:href="#hd"/>
<path d="M553.20 393.40v-21.00" class="stroke"/>
<use x="581.40" y="399.40" xlink:href="#hd"/>
<path d="M584.90 399.40v-21.00" class="stroke"/>
<use x="628.10" y="408.40" xlink:href="#hl"/>
<use x="628.10" y="408.40" xlink:href="#Hd"/>
<circle class="fill" cx="636.80" cy="405.40" r="1.2"/>
<path d="M631.60 408.40v-50.00" class="stroke"/>
<use x="628.10" y="387.40" xlink:href="#Hd"/>
<circle class="fill" cx="636.80" cy="387.40" r="1.2"/>
<use x="628.10" y="381.40" xlink:href="#Hd"/>
<circle class="fill" cx="636.80" cy="381.40" r="1.2"/>
<use x="628.10" y="375.40" xlink:href="#Hd"/>
<circle class="fill" cx="636.80" cy="375.40" r="1.2"/>
<g transform="rotate(270)">
<use x="-411.40" y="70.50" xlink:href="#ltr"/>
<use x="-405.40" y="70.50" xlink:href="#ltr"/>
<use x="-399.40" y="70.50" xlink:href="#ltr"/>
<use x="-393.40" y="70.50" xlink:href="#ltr"/>
<use x="-387.40" y="70.50" xlink:href="#ltr"/>
<use x="-381.40" y="70.50" xlink:href="#ltr"/>
<use x="-375.40" y="70.50" xlink:href="#ltr"/>
</g>
<g transform="rotate(270)">
<use x="-408.40" y="158.20" xlink:href="#ltr"/>
<use x="-402.40" y="158.20" xlink:href="#ltr"/>
<use x="-396.40" y="158.20" xlink:href="#ltr"/>
<use x="-390.40" y="158.20" xlink:href="#ltr"/>
<use x="-384.40" y="158.20" xlink:href="#ltr"/>
<use x="-378.40" y="158.20" xlink:href="#ltr"/>
<use x="-372.40" y="158.20" xlink:href="#ltr"/>
</g>
<g transform="rotate(270)">
<use x="-423.40" y="344.40" xlink:href="#ltr"/>
<use x="-417.40" y="344.40" xlink:href="#ltr"/>
<use x="-411.40" y="344.40" xlink:href="#ltr"/>
<use x="-405.40" y="344.40" xlink:href="#ltr"/>
<use x="-399.40" y="344.40" xlink:href="#ltr"/>
<use x="-393.40" y="344.40" xlink:href="#ltr"/>
<use x="-387.40" y="344.40" xlink:href="#ltr"/>
</g>
<g transform="rotate(270)">
<use x="-411.40" y="431.90" xlink:href="#ltr"/>
<use x="-405.40" y="431.90" xlink:href="#ltr"/>
<use x="-399.40" y="431.90" xlink:href="#ltr"/>
<use x="-393.40" y="431.90" xlink:href="#ltr"/>
<use x="-387.40" y="431.90" xlink:href="#ltr"/>
<use x="-381.40" y="431.90" xlink:href="#ltr"/>
<use x="-375.40" y="431.90" xlink:href="#ltr"/>
</g>
<g transform="rotate(270)">
<use x="-411.40" y="618.10" xlink:href="#ltr"/>
<use x="-405.40" y="618.10" xlink:href="#ltr"/>
<use x="-399.40" y="618.10" xlink:href="#ltr"/>
<use x="-393.40" y="618.10" xlink:href="#ltr"/>
<use x="-387.40" y="618.10" xlink:href="#ltr"/>
<use x="-381.40" y="618.10" xlink:href="#ltr"/>
<use x="-375.40" y="618.10" xlink:href="#ltr"/>
</g>
</g>
<g stroke-width="0.70" style="font:italic 11.00px Times">
<path class="stroke" stroke-width="1"
	d="M10.00 534.40v-85.00"/>
<g transform="translate(10.00,449.40) scale(1,0.85)">
	<use xlink:href="#brace"/>
</g>
<path class="stroke" stroke-width="1"
	d="M162.90 473.40v-24.00"/>
<path class="stroke" stroke-width="1"
	d="M162.90 534.40v-24.00"/>
<path class="stroke" stroke-width="1"
	d="M269.00 473.40v-24.00"/>
<path class="stroke" stroke-width="1"
	d="M269.00 534.40v-24.00"/>
<path class="stroke" stroke-width="1"
	d="M353.50 473.40v-24.00"/>
<path class="stroke" stroke-width="1"
	d="M353.50 534.40v-24.00"/>
<path class="stroke" stroke-width="1"
	d="M438.00 473.40v-24.00"/>
<path class="stroke" stroke-width="1"
	d="M438.00 534.40v-24.00"/>
<path class="stroke" stroke-width="1"
	d="M522.60 473.40v-24.00"/>
<path class="stroke" stroke-width="1"
	d="M522.60 534.40v-24.00"/>
<path class="stroke" stroke-width="1"
	d="M607.10 473.40v-24.00"/>
<path class="stroke" stroke-width="1"
	d="M607.10 534.40v-24.00"/>
<path class="stroke" stroke-width="1"
	d="M691.60 473.40v-24.00"/>
<path class="stroke" stroke-width="1"
	d="M691.60 534.40v-24.00"/>
<path d="m10.00 473.40
	h681.60
	M10.00 467.40
	h681.60
	M10.00 461.40
	h681.60
	M10.00 455.40
	h681.60
	M10.00 449.40
	h681.60
	" class="stroke"/>
<path d="m10.00 534.40
	h681.60
	M10.00 528.40
	h681.60
	M10.00 522.40
	h681.60
	M10.00 516.40
	h681.60
	M10.00 510.40
	h681.60
	" class="stroke"/>
</g>
<g stroke-width="0.70" style="font:bold 13.00px Times">
<text x="76.60" y="444.80">V</text>
</g>
<g stroke-width="0.70" style="font:bold 13.00px Times">
<text x="181.00" y="444.80">V<tspan
	 style="font:italic 11.00px Times">²</tspan></text>
</g>
<g stroke-width="0.70" style="font:bold 13.00px Times">
<text x="289.20" y="442.80">I<tspan
	 style="font:italic 11.00px Times">²</tspan></text>
</g>
<g stroke-width="0.70" style="font:bold 13.00px Times">
<text x="373.60" y="444.80">V</text>
</g>
<g stroke-width="0.70" style="font:bold 13.00px Times">
<text x="460.20" y="443.80">I</text>
</g>
<g stroke-width="0.70" style="font:bold 13.00px Times">
<text x="544.70" y="444.80">I</text>
</g>
<g stroke-width="0.70" style="font:bold 13.00px Times">
<text x="625.20" y="443.80">V<tspan
	 style="font:italic 11.00px Times">¹</tspan></text>
</g>
<g stroke-width="0.70" style="font:italic 11.00px Times">
<use x="22.00" y="467.40" xlink:href="#tclef"/>
<use x="37.00" y="449.40" xlink:href="#sh0"/>
<use x="42.50" y="458.40" xlink:href="#sh0"/>
<use x="48.00" y="446.40" xlink:href="#sh0"/>
<use x="80.50" y="473.40" xlink:href="#hd"/>
<path d="M84.00 473.40v-21.00" class="stroke"/>
<use x="110.90" y="455.40" xlink:href="#hd"/>
<path d="M107.40 455.40v21.00" class="stroke"/>
<use x="141.10" y="458.40" xlink:href="#hd"/>
<path d="M137.60 458.40v21.00" class="stroke"/>
<use x="186.90" y="461.40" xlink:href="#hd"/>
<path d="M183.40 461.40v21.00" class="stroke"/>
<use x="217.00" y="464.40" xlink:href="#hd"/>
<path d="M220.50 464.40v-21.00" class="stroke"/>
<use x="247.20" y="467.40" xlink:href="#hd"/>
<path d="M250.70 467.40v-21.00" class="stroke"/>
<use x="293.00" y="470.40" xlink:href="#hd"/>
<path d="M296.50 470.40v-21.00" class="stroke"/>
<use x="323.20" y="473.40" xlink:href="#Hd"/>
<path d="M326.70 473.40v-21.00" class="stroke"/>
<use x="377.50" y="473.40" xlink:href="#hd"/>
<path d="M381.00 473.40v-21.00" class="stroke"/>
<use x="407.70" y="473.40" xlink:href="#Hd"/>
<path d="M411.20 473.40v-21.00" class="stroke"/>
<use x="462.00" y="452.40" xlink:href="#hd"/>
<path d="M458.50 452.40v21.00" class="stroke"/>
<use x="492.20" y="452.40" xlink:href="#Hd"/>
<path d="M488.70 452.40v21.00" class="stroke"/>
<use x="546.60" y="458.40" xlink:href="#hd"/>
<path d="M543.10 458.40v21.00" class="stroke"/>
<use x="576.70" y="455.40" xlink:href="#Hd"/>
<path d="M573.20 455.40v21.00" class="stroke"/>
<use x="631.10" y="452.40" xlink:href="#hd"/>
<path d="M627.60 452.40v21.00" class="stroke"/>
<use x="661.30" y="458.40" xlink:href="#Hd"/>
<path d="M657.80 458.40v21.00" class="stroke"/>
<use x="22.00" y="516.40" xlink:href="#bclef"/>
<use x="37.00" y="516.40" xlink:href="#sh0"/>
<use x="42.50" y="525.40" xlink:href="#sh0"/>
<use x="48.00" y="513.40" xlink:href="#sh0"/>
<use x="80.50" y="540.40" xlink:href="#hl"/>
<use x="80.50" y="540.40" xlink:href="#Hd"/>
<circle class="fill" cx="90.20" cy="537.40" r="1.2"/>
<path d="M84.00 540.40v-50.00" class="stroke"/>
<use x="80.50" y="519.40" xlink:href="#Hd"/>
<circle class="fill" cx="90.20" cy="519.40" r="1.2"/>
<use x="80.50" y="513.40" xlink:href="#Hd"/>
<circle class="fill" cx="90.20" cy="513.40" r="1.2"/>
<use x="80.50" y="507.40" xlink:href="#Hd"/>
<circle class="fill" cx="90.20" cy="507.40" r="1.2"/>
<use x="186.90" y="540.40" xlink:href="#hl"/>
<use x="186.90" y="540.40" xlink:href="#Hd"/>
<circle class="fill" cx="195.60" cy="537.40" r="1.2"/>
<path d="M190.40 540.40v-50.00" class="stroke"/>
<use x="186.90" y="519.40" xlink:href="#Hd"/>
<circle class="fill" cx="195.60" cy="519.40" r="1.2"/>
<use x="186.90" y="513.40" xlink:href="#Hd"/>
<circle class="fill" cx="195.60" cy="513.40" r="1.2"/>
<use x="186.90" y="507.40" xlink:href="#Hd"/>
<circle class="fill" cx="195.60" cy="507.40" r="1.2"/>
<use x="293.00" y="540.40" xlink:href="#hl"/>
<use x="293.00" y="546.40" xlink:href="#hl"/>
<use x="293.00" y="552.40" xlink:href="#hl"/>
<use x="293.00" y="552.40" xlink:href="#Hd"/>
<circle class="fill" cx="301.70" cy="549.40" r="1.2"/>
<path d="M296.50 552.40v-52.00" class="stroke"/>
<use x="293.00" y="531.40" xlink:href="#Hd"/>
<circle class="fill" cx="301.70" cy="531.40" r="1.2"/>
<use x="293.00" y="525.40" xlink:href="#Hd"/>
<circle class="fill" cx="301.70" cy="525.40" r="1.2"/>
<use x="293.00" y="519.40" xlink:href="#Hd"/>
<circle class="fill" cx="301.70" cy="519.40" r="1.2"/>
<use x="377.50" y="540.40" xlink:href="#hl"/>
<use x="377.50" y="540.40" xlink:href="#Hd"/>
<circle class="fill" cx="386.20" cy="537.40" r="1.2"/>
<path d="M381.00 540.40v-50.00" class="stroke"/>
<use x="377.50" y="519.40" xlink:href="#Hd"/>
<circle class="fill" cx="386.20" cy="519.40" r="1.2"/>
<use x="377.50" y="513.40" xlink:href="#Hd"/>
<circle class="fill" cx="386.20" cy="513.40" r="1.2"/>
<use x="377.50" y="507.40" xlink:href="#Hd"/>
<circle class="fill" cx="386.20" cy="507.40" r="1.2"/>
<use x="462.00" y="540.40" xlink:href="#hl"/>
<use x="462.00" y="546.40" xlink:href="#hl"/>
<use x="462.00" y="552.40" xlink:href="#hl"/>
<use x="462.00" y="552.40" xlink:href="#Hd"/>
<circle class="fill" cx="470.70" cy="549.40" r="1.2"/>
<path d="M465.50 552.40v-52.00" class="stroke"/>
<use x="462.00" y="531.40" xlink:href="#Hd"/>
<circle class="fill" cx="470.70" cy="531.40" r="1.2"/>
<use x="462.00" y="525.40" xlink:href="#Hd"/>
<circle class="fill" cx="470.70" cy="525.40" r="1.2"/>
<use x="462.00" y="519.40" xlink:href="#Hd"/>
<circle class="fill" cx="470.70" cy="519.40" r="1.2"/>
<use x="546.60" y="540.40" xlink:href="#hl"/>
<use x="546.60" y="546.40" xlink:href="#hl"/>
<use x="546.60" y="552.40" xlink:href="#hl"/>
<use x="546.60" y="552.40" xlink:href="#Hd"/>
<circle class="fill" cx="555.30" cy="549.40" r="1.2"/>
<path d="M550.10 552.40v-52.00" class="stroke"/>
<use x="546.60" y="531.40" xlink:href="#Hd"/>
<circle class="fill" cx="555.30" cy="531.40" r="1.2"/>
<use x="546.60" y="525.40" xlink:href="#Hd"/>
<circle class="fill" cx="555.30" cy="525.40" r="1.2"/>
<use x="546.60" y="519.40" xlink:href="#Hd"/>
<circle class="fill" cx="555.30" cy="519.40" r="1.2"/>
<use x="631.10" y="540.40" xlink:href="#hl"/>
<use x="631.10" y="540.40" xlink:href="#Hd"/>
<circle class="fill" cx="639.80" cy="537.40" r="1.2"/>
<path d="M634.60 540.40v-50.00" class="stroke"/>
<use x="631.10" y="519.40" xlink:href="#Hd"/>
<circle class="fill" cx="639.80" cy="519.40" r="1.2"/>
<use x="631.10" y="513.40" xlink:href="#Hd"/>
<circle class="fill" cx="639.80" cy="513.40" r="1.2"/>
<use x="631.10" y="507.40" xlink:href="#Hd"/>
<circle class="fill" cx="639.80" cy="507.40" r="1.2"/>
<g transform="rotate(270)">
<use x="-543.40" y="70.50" xlink:href="#ltr"/>
<use x="-537.40" y="70.50" xlink:href="#ltr"/>
<use x="-531.40" y="70.50" xlink:href="#ltr"/>
<use x="-525.40" y="70.50" xlink:href="#ltr"/>
<use x="-519.40" y="70.50" xlink:href="#ltr"/>
<use x="-513.40" y="70.50" xlink:href="#ltr"/>
<use x="-507.40" y="70.50" xlink:href="#ltr"/>
</g>
<g transform="rotate(270)">
<use x="-543.40" y="176.90" xlink:href="#ltr"/>
<use x="-537.40" y="176.90" xlink:href="#ltr"/>
<use x="-531.40" y="176.90" xlink:href="#ltr"/>
<use x="-525.40" y="176.90" xlink:href="#ltr"/>
<use x="-519.40" y="176.90" xlink:href="#ltr"/>
<use x="-513.40" y="176.90" xlink:href="#ltr"/>
<use x="-507.40" y="176.90" xlink:href="#ltr"/>
</g>
<g transform="rotate(270)">
<use x="-555.40" y="283.00" xlink:href="#ltr"/>
<use x="-549.40" y="283.00" xlink:href="#ltr"/>
<use x="-543.40" y="283.00" xlink:href="#ltr"/>
<use x="-537.40" y="283.00" xlink:href="#ltr"/>
<use x="-531.40" y="283.00" xlink:href="#ltr"/>
<use x="-525.40" y="283.00" xlink:href="#ltr"/>
<use x="-519.40" y="283.00" xlink:href="#ltr"/>
</g>
<g transform="rotate(270)">
<use x="-543.40" y="367.50" xlink:href="#ltr"/>
<use x="-537.40" y="367.50" xlink:href="#ltr"/>
<use x="-531.40" y="367.50" xlink:href="#ltr"/>
<use x="-525.40" y="367.50" xlink:href="#ltr"/>
<use x="-519.40" y="367.50" xlink:href="#ltr"/>
<use x="-513.40" y="367.50" xlink:href="#ltr"/>
<use x="-507.40" y="367.50" xlink:href="#ltr"/>
</g>
<g transform="rotate(270)">
<use x="-555.40" y="452.00" xlink:href="#ltr"/>
<use x="-549.40" y="452.00" xlink:href="#ltr"/>
<use x="-543.40" y="452.00" xlink:href="#ltr"/>
<use x="-537.40" y="452.00" xlink:href="#ltr"/>
<use x="-531.40" y="452.00" xlink:href="#ltr"/>
<use x="-525.40" y="452.00" xlink:href="#ltr"/>
<use x="-519.40" y="452.00" xlink:href="#ltr"/>
</g>
<g transform="rotate(270)">
<use x="-555.40" y="536.60" xlink:href="#ltr"/>
<use x="-549.40" y="536.60" xlink:href="#ltr"/>
<use x="-543.40" y="536.60" xlink:href="#ltr"/>
<use x="-537.40" y="536.60" xlink:href="#ltr"/>
<use x="-531.40" y="536.60" xlink:href="#ltr"/>
<use x="-525.40" y="536.60" xlink:href="#ltr"/>
<use x="-519.40" y="536.60" xlink:href="#ltr"/>
</g>
<g transform="rotate(270)">
<use x="-543.40" y="621.10" xlink:href="#ltr"/>
<use x="-537.40" y="621.10" xlink:href="#ltr"/>
<use x="-531.40" y="621.10" xlink:href="#ltr"/>
<use x="-525.40" y="621.10" xlink:href="#ltr"/>
<use x="-519.40" y="621.10" xlink:href="#ltr"/>
<use x="-513.40" y="621.10" xlink:href="#ltr"/>
<use x="-507.40" y="621.10" xlink:href="#ltr"/>
</g>
</g>
<g stroke-width="0.70" style="font:italic 11.00px Times">
<path class="stroke" stroke-width="1"
	d="M10.00 663.40v-82.00"/>
<g transform="translate(10.00,581.40) scale(1,0.82)">
	<use xlink:href="#brace"/>
</g>
<path class="stroke" stroke-width="1"
	d="M174.00 605.40v-24.00"/>
<path class="stroke" stroke-width="1"
	d="M174.00 663.40v-24.00"/>
<path class="stroke" stroke-width="1"
	d="M296.10 605.40v-24.00"/>
<path class="stroke" stroke-width="1"
	d="M296.10 663.40v-24.00"/>
<path class="stroke" stroke-width="1"
	d="M399.80 605.40v-24.00"/>
<path class="stroke" stroke-width="1"
	d="M399.80 663.40v-24.00"/>
<path d="m10.00 605.40
	h389.80
	M10.00 599.40
	h389.80
	M10.00 593.40
	h389.80
	M10.00 587.40
	h389.80
	M10.00 581.40
	h389.80
	" class="stroke"/>
<path d="m10.00 663.40
	h389.80
	M10.00 657.40
	h389.80
	M10.00 651.40
	h389.80
	M10.00 645.40
	h389.80
	M10.00 639.40
	h389.80
	" class="stroke"/>
</g>
<g stroke-width="0.70" style="font:bold 13.00px Times">
<text x="64.20" y="576.80">I</text>
</g>
<g stroke-width="0.70" style="font:bold 13.00px Times">
<text x="183.20" y="576.80">ii<tspan
	 style="font:italic 11.00px Times">¹</tspan></text>
</g>
<g stroke-width="0.70" style="font:bold 13.00px Times">
<text x="318.30" y="569.80">I</text>
<use x="22.00" y="599.40" xlink:href="#tclef"/>
<use x="37.00" y="581.40" xlink:href="#sh0"/>
<use x="42.50" y="590.40" xlink:href="#sh0"/>
<use x="48.00" y="578.40" xlink:href="#sh0"/>
<use x="66.00" y="605.40" xlink:href="#hd"/>
<path d="M69.50 605.40v-21.00" class="stroke"/>
<use x="106.00" y="602.40" xlink:href="#hd"/>
<path d="M109.50 602.40v-21.00" class="stroke"/>
<use x="146.00" y="587.40" xlink:href="#hd"/>
<path d="M142.50 587.40v21.00" class="stroke"/>
<use x="188.10" y="593.40" xlink:href="#hd"/>
<path d="M184.60 593.40v21.00" class="stroke"/>
<use x="228.10" y="596.40" xlink:href="#Hd"/>
<path d="M231.60 596.40v-21.00" class="stroke"/>
<use x="320.10" y="578.40" xlink:href="#hd"/>
<path d="M316.60 578.40v40.00" class="stroke"/>
<use x="320.10" y="599.40" xlink:href="#hd"/>
<use x="360.10" y="575.40" xlink:href="#hl"/>
<use x="360.10" y="575.40" xlink:href="#Hd"/>
<path d="M356.60 575.40v40.00" class="stroke"/>
<use x="360.10" y="596.40" xlink:href="#Hd"/>
<use x="22.00" y="645.40" xlink:href="#bclef"/>
<use x="37.00" y="645.40" xlink:href="#sh0"/>
<use x="42.50" y="654.40" xlink:href="#sh0"/>
<use x="48.00" y="642.40" xlink:href="#sh0"/>
<use x="66.00" y="660.40" xlink:href="#hd"/>
<path d="M69.50 660.40v-21.00" class="stroke"/>
<use x="106.00" y="654.40" xlink:href="#hd"/>
<path d="M109.50 654.40v-21.00" class="stroke"/>
<use x="146.00" y="648.40" xlink:href="#hd"/>
<path d="M142.50 648.40v21.00" class="stroke"/>
<use x="188.10" y="645.40" xlink:href="#hd"/>
<path d="M184.60 645.40v21.00" class="stroke"/>
<use x="228.10" y="651.40" xlink:href="#hd"/>
<path d="M224.60 651.40v21.00" class="stroke"/>
<use x="268.10" y="657.40" xlink:href="#hd"/>
<path d="M271.60 657.40v-21.00" class="stroke"/>
<use x="320.10" y="669.40" xlink:href="#hl"/>
<use x="320.10" y="675.40" xlink:href="#hl"/>
<use x="320.10" y="681.40" xlink:href="#hl"/>
<use x="320.10" y="681.40" xlink:href="#Hd"/>
<circle class="fill" cx="328.80" cy="678.40" r="1.2"/>
<path d="M323.60 681.40v-52.00" class="stroke"/>
<use x="320.10" y="660.40" xlink:href="#Hd"/>
<circle class="fill" cx="328.80" cy="660.40" r="1.2"/>
<use x="320.10" y="654.40" xlink:href="#Hd"/>
<circle class="fill" cx="328.80" cy="654.40" r="1.2"/>
<use x="320.10" y="648.40" xlink:href="#Hd"/>
<circle class="fill" cx="328.80" cy="648.40" r="1.2"/>
<g transform="rotate(270)">
<use x="-684.40" y="310.10" xlink:href="#ltr"/>
<use x="-678.40" y="310.10" xlink:href="#ltr"/>
<use x="-672.40" y="310.10" xlink:href="#ltr"/>
<use x="-666.40" y="310.10" xlink:href="#ltr"/>
<use x="-660.40" y="310.10" xlink:href="#ltr"/>
<use x="-654.40" y="310.10" xlink:href="#ltr"/>
<use x="-648.40" y="310.10" xlink:href="#ltr"/>
</g>
</g>
</svg>
