<?xml version="1.0" standalone="no"?>
<!DOCTYPE svg PUBLIC "-//W3C//DTD SVG 1.1//EN"
	"http://www.w3.org/Graphics/SVG/1.1/DTD/svg11.dtd">
<svg xmlns="http://www.w3.org/2000/svg" version="1.1"
	xmlns:xlink="http://www.w3.org/1999/xlink"
	color="black"
	width="701.60px" height="429.20px" viewBox="0 0 701.60 429.20" preserveAspectRatio="xMidYMid meet">
<style type="text/css">
.fill {fill: currentColor}
.stroke {stroke: currentColor; fill: none}
text{white-space: pre}
</style>
<title>/tmp/retab_hymnal_L7/lord_enthroned_in_heavenly_splendor.abc (1) tune 1</title>
<!-- Creator: abcm2ps-8.14.11 -->
<!-- CreationDate: Apr 24, 2026 15:38 -->
<!-- CommandLine: /tmp/retab_hymnal_L7/lord_enthroned_in_heavenly_splendor.abc -g -O /tmp/retab_hymnal_L7/lord_enthroned_in_heavenly_splendor -->
<g stroke-width="0.70">
<!-- title: 149. Lord, Enthroned in Heavenly Splendor -->
</g>
<g stroke-width="0.70" style="font:20.00px Times">
<text x="350.80" y="22.00" text-anchor="middle">149. Lord, Enthroned in Heavenly Splendor</text>
</g>
<g stroke-width="0.70" style="font:20.00px Times">
<path class="stroke" stroke-width="1"
	d="M10.00 145.40v-82.00"/>
<defs>
<path id="brace" class="fill" d="m-2.5 101
	c-4.5 -4.6 -7.5 -12.2 -4.4 -26.8
	3.5 -14.3 3.2 -21.7 -2.1 -24.2
	7.4 2.4 7.3 14.2 3.5 29.5
	-2.7 9.5 -1.5 16.2 3 21.5
	M-2.5 1c-4.5 4.6 -7.5 12.2 -4.4 26.8
	c3.5 14.3 3.2 21.7 -2.1 24.2
	7.4 -2.4 7.3 -14.2 3.5 -29.5
	-2.7 -9.5 -1.5 -16.2 3 -21.5"/>
</defs>
<g transform="translate(10.00,63.40) scale(1,0.82)">
	<use xlink:href="#brace"/>
</g>
<path class="stroke" stroke-width="1"
	d="M192.40 87.40v-24.00"/>
<path class="stroke" stroke-width="1"
	d="M192.40 145.40v-24.00"/>
<path class="stroke" stroke-width="1"
	d="M333.80 87.40v-24.00"/>
<path class="stroke" stroke-width="1"
	d="M333.80 145.40v-24.00"/>
<path class="stroke" stroke-width="1"
	d="M463.40 87.40v-24.00"/>
<path class="stroke" stroke-width="1"
	d="M463.40 145.40v-24.00"/>
<path class="stroke" stroke-width="1"
	d="M566.20 87.40v-24.00"/>
<path class="stroke" stroke-width="1"
	d="M566.20 145.40v-24.00"/>
<path class="stroke" stroke-width="1"
	d="M691.60 87.40v-24.00"/>
<path class="stroke" stroke-width="1"
	d="M691.60 145.40v-24.00"/>
<path d="m10.00 87.40
	h681.60
	M10.00 81.40
	h681.60
	M10.00 75.40
	h681.60
	M10.00 69.40
	h681.60
	M10.00 63.40
	h681.60
	" class="stroke"/>
<path d="m10.00 145.40
	h681.60
	M10.00 139.40
	h681.60
	M10.00 133.40
	h681.60
	M10.00 127.40
	h681.60
	M10.00 121.40
	h681.60
	" class="stroke"/>
</g>
<g stroke-width="0.70" style="font:bold 13.00px Times">
<text x="90.50" y="58.80">i</text>
</g>
<g stroke-width="0.70" style="font:bold 13.00px Times">
<text x="203.10" y="47.80">I</text>
</g>
<g stroke-width="0.70" style="font:bold 13.00px Times">
<text x="344.40" y="47.80">I</text>
</g>
<g stroke-width="0.70" style="font:bold 13.00px Times">
<text x="486.60" y="50.80">I</text>
</g>
<g stroke-width="0.70" style="font:bold 13.00px Times">
<text x="589.30" y="58.80">I</text>
<defs>
<path id="utclef" class="fill" d="m-50 -90
	c-72 -41 -72 -158 52 -188
	150 -10 220 188 90 256
	-114 52 -275 0 -293 -136
	-15 -181 93 -229 220 -334
	88 -87 79 -133 62 -210
	-51 33 -94 105 -89 186
	17 267 36 374 49 574
	6 96 -19 134 -77 135
	-80 1 -126 -93 -61 -133
	85 -41 133 101 31 105
	23 17 92 37 90 -92
	-10 -223 -39 -342 -50 -617
	0 -90 0 -162 96 -232
	56 72 63 230 22 289
	-74 106 -257 168 -255 316
	9 153 148 185 252 133
	86 -65 29 -192 -80 -176
	-71 12 -105 67 -59 124"/>
<use id="tclef" transform="translate(0,6) scale(0.045)"
	xlink:href="#utclef"/>
</defs>
<use x="22.00" y="81.40" xlink:href="#tclef"/>
<defs>
<path id="uflat" class="fill" d="
	m100 -746
	h32
	v734
	l-32 4
	m32 -332
	c46 -72 152 -90 208 -20
	100 110 -120 326 -208 348
	m0 -28
	c54 0 200 -206 130 -290
	-50 -60 -130 -4 -130 34"/>
<use id="ft0" transform="translate(-3.5,3.5) scale(0.018)"
	xlink:href="#uflat"/>
</defs>
<use x="37.00" y="75.40" xlink:href="#ft0"/>
<use x="42.50" y="66.40" xlink:href="#ft0"/>
<g style="font:bold 16px serif"
	transform="translate(58.50,86.90) scale(1.2,1)">
	<text text-anchor="middle">4</text>
	<text y="-12" text-anchor="middle">6</text>
</g>
<defs>
<ellipse id="hd" rx="4.1" ry="2.9"
	transform="rotate(-20)" class="fill"/>
</defs>
<use x="92.00" y="90.40" xlink:href="#hd"/>
<path d="M95.50 90.40v-21.00" class="stroke"/>
<use x="114.70" y="90.40" xlink:href="#hd"/>
<path d="M118.20 90.40v-21.00" class="stroke"/>
<defs>
<path id="Hd" class="fill" d="m3 -1.6
	c-1 -1.8 -7 1.4 -6 3.2
	1 1.8 7 -1.4 6 -3.2
	m0.5 -0.3
	c2 3.8 -5 7.6 -7 3.8
	-2 -3.8 5 -7.6 7 -3.8"/>
</defs>
<use x="137.50" y="81.40" xlink:href="#Hd"/>
<path d="M141.00 81.40v-21.00" class="stroke"/>
<use x="169.30" y="78.40" xlink:href="#Hd"/>
<path d="M172.80 78.40v-21.00" class="stroke"/>
<use x="204.90" y="75.40" xlink:href="#hd"/>
<path d="M208.40 75.40v-21.00" class="stroke"/>
<use x="227.70" y="75.40" xlink:href="#hd"/>
<path d="M231.20 75.40v-21.00" class="stroke"/>
<use x="250.80" y="75.40" xlink:href="#Hd"/>
<path d="M254.30 75.40v-21.00" class="stroke"/>
<use x="294.10" y="78.40" xlink:href="#Hd"/>
<path d="M297.60 78.40v-21.00" class="stroke"/>
<use x="346.30" y="75.40" xlink:href="#hd"/>
<path d="M349.80 75.40v-21.00" class="stroke"/>
<use x="369.00" y="75.40" xlink:href="#hd"/>
<path d="M372.50 75.40v-21.00" class="stroke"/>
<use x="392.10" y="69.40" xlink:href="#Hd"/>
<path d="M388.60 69.40v21.00" class="stroke"/>
<use x="423.80" y="72.40" xlink:href="#hd"/>
<path d="M420.30 72.40v21.00" class="stroke"/>
<use x="446.50" y="75.40" xlink:href="#hd"/>
<path d="M443.00 75.40v21.00" class="stroke"/>
<use x="488.40" y="78.40" xlink:href="#hd"/>
<path d="M491.90 78.40v-21.00" class="stroke"/>
<use x="511.10" y="78.40" xlink:href="#hd"/>
<path d="M514.60 78.40v-21.00" class="stroke"/>
<defs>
<path id="HD" class="fill" d="m-2.7 -1.4
	c1.5 -2.8 6.9 0 5.3 2.7
	-1.5 2.8 -6.9 0 -5.3 -2.7
	m8.3 1.4
	c0 -1.5 -2.2 -3 -5.6 -3
	-3.4 0 -5.6 1.5 -5.6 3
	0 1.5 2.2 3 5.6 3
	3.4 0 5.6 -1.5 5.6 -3"/>
</defs>
<use x="535.10" y="81.40" xlink:href="#HD"/>
<use x="591.20" y="90.40" xlink:href="#hd"/>
<path d="M594.70 90.40v-21.00" class="stroke"/>
<use x="613.90" y="90.40" xlink:href="#hd"/>
<path d="M617.40 90.40v-21.00" class="stroke"/>
<use x="636.70" y="81.40" xlink:href="#Hd"/>
<path d="M640.20 81.40v-21.00" class="stroke"/>
<use x="668.40" y="78.40" xlink:href="#Hd"/>
<path d="M671.90 78.40v-21.00" class="stroke"/>
<defs>
<path id="ubclef" class="fill" d="m-200 -87
	c124 -35 222 -78 254 -236
	43 -228 -167 -246 -192 -103
	59 -80 157 22 92 78
	-62 47 -115 -22 -106 -88
	21 -141 270 -136 274 52
	-1 175 -106 264 -322 297
	m357 -250
	c0 -36 51 -34 51 0
	0 37 -51 36 -51 0
	m-2 -129
	c0 -36 51 -34 51 0
	0 38 -51 37 -51 0"/>
<use id="bclef" transform="translate(0,18) scale(0.045)"
	xlink:href="#ubclef"/>
</defs>
<use x="22.00" y="127.40" xlink:href="#bclef"/>
<use x="37.00" y="139.40" xlink:href="#ft0"/>
<use x="42.50" y="130.40" xlink:href="#ft0"/>
<g style="font:bold 16px serif"
	transform="translate(58.50,144.90) scale(1.2,1)">
	<text text-anchor="middle">4</text>
	<text y="-12" text-anchor="middle">6</text>
</g>
<defs>
<path id="hl1" class="stroke" d="m-7 0h14"/>
</defs>
<use x="93.00" y="115.40" xlink:href="#hl1"/>
<use x="93.00" y="112.40" xlink:href="#HD"/>
<circle class="fill" cx="104.70" cy="112.40" r="1.2"/>
<use x="93.00" y="145.40" xlink:href="#HD"/>
<circle class="fill" cx="104.70" cy="142.40" r="1.2"/>
<use x="93.00" y="124.40" xlink:href="#HD"/>
<circle class="fill" cx="104.70" cy="124.40" r="1.2"/>
<use x="93.00" y="118.40" xlink:href="#HD"/>
<circle class="fill" cx="104.70" cy="118.40" r="1.2"/>
<use x="204.90" y="139.40" xlink:href="#hd"/>
<path d="M208.40 139.40v-21.00" class="stroke"/>
<use x="227.70" y="133.40" xlink:href="#hd"/>
<path d="M231.20 133.40v-21.00" class="stroke"/>
<use x="250.80" y="127.40" xlink:href="#hd"/>
<path d="M247.30 127.40v21.00" class="stroke"/>
<use x="273.50" y="133.40" xlink:href="#hd"/>
<path d="M270.00 133.40v21.00" class="stroke"/>
<use x="294.10" y="139.40" xlink:href="#hd"/>
<path d="M297.60 139.40v-21.00" class="stroke"/>
<use x="316.90" y="133.40" xlink:href="#hd"/>
<path d="M320.40 133.40v-21.00" class="stroke"/>
<use x="346.30" y="139.40" xlink:href="#hd"/>
<path d="M349.80 139.40v-21.00" class="stroke"/>
<use x="369.00" y="133.40" xlink:href="#hd"/>
<path d="M372.50 133.40v-21.00" class="stroke"/>
<use x="393.10" y="127.40" xlink:href="#HD"/>
<use x="489.40" y="151.40" xlink:href="#hl1"/>
<use x="489.40" y="157.40" xlink:href="#hl1"/>
<use x="489.40" y="160.40" xlink:href="#HD"/>
<circle class="fill" cx="499.10" cy="160.40" r="1.2"/>
<use x="489.40" y="139.40" xlink:href="#HD"/>
<circle class="fill" cx="499.10" cy="136.40" r="1.2"/>
<use x="489.40" y="133.40" xlink:href="#HD"/>
<circle class="fill" cx="499.10" cy="130.40" r="1.2"/>
<use x="489.40" y="127.40" xlink:href="#HD"/>
<circle class="fill" cx="499.10" cy="124.40" r="1.2"/>
<use x="592.20" y="151.40" xlink:href="#hl1"/>
<use x="592.20" y="157.40" xlink:href="#hl1"/>
<use x="592.20" y="160.40" xlink:href="#HD"/>
<circle class="fill" cx="601.90" cy="160.40" r="1.2"/>
<use x="592.20" y="139.40" xlink:href="#HD"/>
<circle class="fill" cx="601.90" cy="136.40" r="1.2"/>
<use x="592.20" y="133.40" xlink:href="#HD"/>
<circle class="fill" cx="601.90" cy="130.40" r="1.2"/>
<use x="592.20" y="127.40" xlink:href="#HD"/>
<circle class="fill" cx="601.90" cy="124.40" r="1.2"/>
<defs>
<path id="ltr" class="fill"
    d="m0 -0.4c2 -1.5 3.4 -1.9 3.9 0.4
	c0.2 0.8 0.7 0.7 2.1 -0.4
	v0.8c-2 1.5 -3.4 1.9 -3.9 -0.4
	c-0.2 -0.8 -0.7 -0.7 -2.1 0.4z"/>
</defs>
<g transform="rotate(270)">
<use x="-148.40" y="79.50" xlink:href="#ltr"/>
<use x="-142.40" y="79.50" xlink:href="#ltr"/>
<use x="-136.40" y="79.50" xlink:href="#ltr"/>
<use x="-130.40" y="79.50" xlink:href="#ltr"/>
<use x="-124.40" y="79.50" xlink:href="#ltr"/>
<use x="-118.40" y="79.50" xlink:href="#ltr"/>
<use x="-112.40" y="79.50" xlink:href="#ltr"/>
</g>
<g transform="rotate(270)">
<use x="-163.40" y="475.90" xlink:href="#ltr"/>
<use x="-157.40" y="475.90" xlink:href="#ltr"/>
<use x="-151.40" y="475.90" xlink:href="#ltr"/>
<use x="-145.40" y="475.90" xlink:href="#ltr"/>
<use x="-139.40" y="475.90" xlink:href="#ltr"/>
<use x="-133.40" y="475.90" xlink:href="#ltr"/>
<use x="-127.40" y="475.90" xlink:href="#ltr"/>
</g>
<g transform="rotate(270)">
<use x="-163.40" y="578.70" xlink:href="#ltr"/>
<use x="-157.40" y="578.70" xlink:href="#ltr"/>
<use x="-151.40" y="578.70" xlink:href="#ltr"/>
<use x="-145.40" y="578.70" xlink:href="#ltr"/>
<use x="-139.40" y="578.70" xlink:href="#ltr"/>
<use x="-133.40" y="578.70" xlink:href="#ltr"/>
<use x="-127.40" y="578.70" xlink:href="#ltr"/>
</g>
</g>
<g stroke-width="0.70" style="font:bold 13.00px Times">
<path class="stroke" stroke-width="1"
	d="M10.00 275.80v-82.00"/>
<g transform="translate(10.00,193.80) scale(1,0.82)">
	<use xlink:href="#brace"/>
</g>
<path class="stroke" stroke-width="1"
	d="M196.80 217.80v-24.00"/>
<path class="stroke" stroke-width="1"
	d="M196.80 275.80v-24.00"/>
<path class="stroke" stroke-width="1"
	d="M333.40 217.80v-24.00"/>
<path class="stroke" stroke-width="1"
	d="M333.40 275.80v-24.00"/>
<path class="stroke" stroke-width="1"
	d="M440.80 217.80v-24.00"/>
<path class="stroke" stroke-width="1"
	d="M440.80 275.80v-24.00"/>
<path class="stroke" stroke-width="1"
	d="M572.30 217.80v-24.00"/>
<path class="stroke" stroke-width="1"
	d="M572.30 275.80v-24.00"/>
<path class="stroke" stroke-width="1"
	d="M691.60 217.80v-24.00"/>
<path class="stroke" stroke-width="1"
	d="M691.60 275.80v-24.00"/>
<path d="m10.00 217.80
	h681.60
	M10.00 211.80
	h681.60
	M10.00 205.80
	h681.60
	M10.00 199.80
	h681.60
	M10.00 193.80
	h681.60
	" class="stroke"/>
<path d="m10.00 275.80
	h681.60
	M10.00 269.80
	h681.60
	M10.00 263.80
	h681.60
	M10.00 257.80
	h681.60
	M10.00 251.80
	h681.60
	" class="stroke"/>
</g>
<g stroke-width="0.70" style="font:bold 13.00px Times">
<text x="58.70" y="178.20">I</text>
</g>
<g stroke-width="0.70" style="font:bold 13.00px Times">
<text x="207.40" y="178.20">I</text>
</g>
<g stroke-width="0.70" style="font:bold 13.00px Times">
<text x="356.50" y="181.20">I</text>
</g>
<g stroke-width="0.70" style="font:bold 13.00px Times">
<text x="463.90" y="184.20">I</text>
</g>
<g stroke-width="0.70" style="font:bold 13.00px Times">
<text x="578.90" y="181.20">V<tspan
	 style="font:italic 11.00px Times">¹</tspan></text>
</g>
<g stroke-width="0.70" style="font:italic 11.00px Times">
<use x="22.00" y="211.80" xlink:href="#tclef"/>
<use x="37.00" y="205.80" xlink:href="#ft0"/>
<use x="42.50" y="196.80" xlink:href="#ft0"/>
<use x="60.50" y="205.80" xlink:href="#hd"/>
<path d="M64.00 205.80v-21.00" class="stroke"/>
<use x="84.60" y="205.80" xlink:href="#hd"/>
<path d="M88.10 205.80v-21.00" class="stroke"/>
<use x="109.10" y="205.80" xlink:href="#Hd"/>
<path d="M112.60 205.80v-21.00" class="stroke"/>
<use x="155.00" y="208.80" xlink:href="#Hd"/>
<path d="M158.50 208.80v-21.00" class="stroke"/>
<use x="209.30" y="205.80" xlink:href="#hd"/>
<path d="M212.80 205.80v-21.00" class="stroke"/>
<use x="233.40" y="205.80" xlink:href="#hd"/>
<path d="M236.90 205.80v-21.00" class="stroke"/>
<use x="257.80" y="199.80" xlink:href="#Hd"/>
<path d="M254.30 199.80v21.00" class="stroke"/>
<use x="291.60" y="202.80" xlink:href="#hd"/>
<path d="M288.10 202.80v21.00" class="stroke"/>
<use x="315.80" y="205.80" xlink:href="#hd"/>
<path d="M312.30 205.80v21.00" class="stroke"/>
<use x="358.40" y="208.80" xlink:href="#hd"/>
<path d="M361.90 208.80v-21.00" class="stroke"/>
<use x="382.50" y="208.80" xlink:href="#hd"/>
<path d="M386.00 208.80v-21.00" class="stroke"/>
<use x="407.80" y="211.80" xlink:href="#HD"/>
<use x="465.80" y="211.80" xlink:href="#hd"/>
<path d="M469.30 211.80v-21.00" class="stroke"/>
<use x="489.90" y="208.80" xlink:href="#hd"/>
<path d="M493.40 208.80v-21.00" class="stroke"/>
<use x="514.10" y="205.80" xlink:href="#Hd"/>
<path d="M517.60 205.80v-21.00" class="stroke"/>
<use x="547.90" y="211.80" xlink:href="#Hd"/>
<path d="M551.40 211.80v-21.00" class="stroke"/>
<use x="584.80" y="208.80" xlink:href="#hd"/>
<path d="M588.30 208.80v-21.00" class="stroke"/>
<use x="609.00" y="205.80" xlink:href="#hd"/>
<path d="M612.50 205.80v-21.00" class="stroke"/>
<use x="633.40" y="202.80" xlink:href="#Hd"/>
<path d="M629.90 202.80v21.00" class="stroke"/>
<use x="667.20" y="208.80" xlink:href="#Hd"/>
<path d="M670.70 208.80v-21.00" class="stroke"/>
<use x="22.00" y="257.80" xlink:href="#bclef"/>
<use x="37.00" y="269.80" xlink:href="#ft0"/>
<use x="42.50" y="260.80" xlink:href="#ft0"/>
<use x="60.50" y="269.80" xlink:href="#hd"/>
<path d="M64.00 269.80v-21.00" class="stroke"/>
<use x="84.60" y="263.80" xlink:href="#hd"/>
<path d="M88.10 263.80v-21.00" class="stroke"/>
<use x="109.10" y="257.80" xlink:href="#hd"/>
<path d="M105.60 257.80v21.00" class="stroke"/>
<use x="133.20" y="263.80" xlink:href="#hd"/>
<path d="M129.70 263.80v21.00" class="stroke"/>
<use x="155.00" y="269.80" xlink:href="#hd"/>
<path d="M158.50 269.80v-21.00" class="stroke"/>
<use x="179.20" y="263.80" xlink:href="#hd"/>
<path d="M182.70 263.80v-21.00" class="stroke"/>
<use x="209.30" y="269.80" xlink:href="#hd"/>
<path d="M212.80 269.80v-21.00" class="stroke"/>
<use x="233.40" y="263.80" xlink:href="#hd"/>
<path d="M236.90 263.80v-21.00" class="stroke"/>
<use x="258.80" y="257.80" xlink:href="#HD"/>
<use x="359.40" y="281.80" xlink:href="#hl1"/>
<use x="359.40" y="287.80" xlink:href="#hl1"/>
<use x="359.40" y="290.80" xlink:href="#HD"/>
<circle class="fill" cx="369.10" cy="290.80" r="1.2"/>
<use x="359.40" y="269.80" xlink:href="#HD"/>
<circle class="fill" cx="369.10" cy="266.80" r="1.2"/>
<use x="359.40" y="263.80" xlink:href="#HD"/>
<circle class="fill" cx="369.10" cy="260.80" r="1.2"/>
<use x="359.40" y="257.80" xlink:href="#HD"/>
<circle class="fill" cx="369.10" cy="254.80" r="1.2"/>
<use x="466.80" y="281.80" xlink:href="#hl1"/>
<use x="466.80" y="287.80" xlink:href="#hl1"/>
<use x="466.80" y="290.80" xlink:href="#HD"/>
<circle class="fill" cx="476.50" cy="290.80" r="1.2"/>
<use x="466.80" y="269.80" xlink:href="#HD"/>
<circle class="fill" cx="476.50" cy="266.80" r="1.2"/>
<use x="466.80" y="263.80" xlink:href="#HD"/>
<circle class="fill" cx="476.50" cy="260.80" r="1.2"/>
<use x="466.80" y="257.80" xlink:href="#HD"/>
<circle class="fill" cx="476.50" cy="254.80" r="1.2"/>
<use x="584.80" y="251.80" xlink:href="#hd"/>
<path d="M581.30 251.80v21.00" class="stroke"/>
<use x="609.00" y="257.80" xlink:href="#hd"/>
<path d="M605.50 257.80v21.00" class="stroke"/>
<use x="634.40" y="263.80" xlink:href="#HD"/>
<g transform="rotate(270)">
<use x="-293.80" y="345.90" xlink:href="#ltr"/>
<use x="-287.80" y="345.90" xlink:href="#ltr"/>
<use x="-281.80" y="345.90" xlink:href="#ltr"/>
<use x="-275.80" y="345.90" xlink:href="#ltr"/>
<use x="-269.80" y="345.90" xlink:href="#ltr"/>
<use x="-263.80" y="345.90" xlink:href="#ltr"/>
<use x="-257.80" y="345.90" xlink:href="#ltr"/>
</g>
<g transform="rotate(270)">
<use x="-293.80" y="453.30" xlink:href="#ltr"/>
<use x="-287.80" y="453.30" xlink:href="#ltr"/>
<use x="-281.80" y="453.30" xlink:href="#ltr"/>
<use x="-275.80" y="453.30" xlink:href="#ltr"/>
<use x="-269.80" y="453.30" xlink:href="#ltr"/>
<use x="-263.80" y="453.30" xlink:href="#ltr"/>
<use x="-257.80" y="453.30" xlink:href="#ltr"/>
</g>
</g>
<g stroke-width="0.70" style="font:italic 11.00px Times">
<path class="stroke" stroke-width="1"
	d="M10.00 406.20v-82.00"/>
<g transform="translate(10.00,324.20) scale(1,0.82)">
	<use xlink:href="#brace"/>
</g>
<path class="stroke" stroke-width="1"
	d="M182.10 348.20v-24.00"/>
<path class="stroke" stroke-width="1"
	d="M182.10 406.20v-24.00"/>
<path class="stroke" stroke-width="1"
	d="M370.10 348.20v-24.00"/>
<path class="stroke" stroke-width="1"
	d="M370.10 406.20v-24.00"/>
<path class="stroke" stroke-width="1"
	d="M502.80 348.20v-24.00"/>
<path class="stroke" stroke-width="1"
	d="M502.80 406.20v-24.00"/>
<path class="stroke" stroke-width="1"
	d="M632.40 348.20v-24.00"/>
<path class="stroke" stroke-width="1"
	d="M632.40 406.20v-24.00"/>
<path class="stroke" stroke-width="1"
	d="M691.60 348.20v-24.00"/>
<path class="stroke" stroke-width="1"
	d="M691.60 406.20v-24.00"/>
<path d="m10.00 348.20
	h681.60
	M10.00 342.20
	h681.60
	M10.00 336.20
	h681.60
	M10.00 330.20
	h681.60
	M10.00 324.20
	h681.60
	" class="stroke"/>
<path d="m10.00 406.20
	h681.60
	M10.00 400.20
	h681.60
	M10.00 394.20
	h681.60
	M10.00 388.20
	h681.60
	M10.00 382.20
	h681.60
	" class="stroke"/>
</g>
<g stroke-width="0.70" style="font:bold 13.00px Times">
<text x="70.50" y="308.60">III</text>
</g>
<g stroke-width="0.70" style="font:bold 13.00px Times">
<text x="200.90" y="318.60">iv<tspan
	 style="font:italic 11.00px Times">⁷</tspan></text>
</g>
<g stroke-width="0.70" style="font:bold 13.00px Times">
<text x="380.10" y="317.60">V</text>
</g>
<g stroke-width="0.70" style="font:bold 13.00px Times">
<text x="512.30" y="317.60">i<tspan
	 style="font:italic 11.00px Times">¹</tspan></text>
</g>
<g stroke-width="0.70" style="font:bold 13.00px Times">
<text x="655.80" y="312.60">i</text>
<use x="22.00" y="342.20" xlink:href="#tclef"/>
<use x="37.00" y="336.20" xlink:href="#ft0"/>
<use x="42.50" y="327.20" xlink:href="#ft0"/>
<use x="76.00" y="336.20" xlink:href="#hd"/>
<path d="M79.50 336.20v-21.00" class="stroke"/>
<use x="97.00" y="333.20" xlink:href="#hd"/>
<path d="M93.50 333.20v21.00" class="stroke"/>
<use x="117.60" y="330.20" xlink:href="#Hd"/>
<path d="M114.10 330.20v21.00" class="stroke"/>
<use x="146.00" y="336.20" xlink:href="#hd"/>
<path d="M142.50 336.20v21.00" class="stroke"/>
<use x="166.50" y="330.20" xlink:href="#hd"/>
<path d="M163.00 330.20v21.00" class="stroke"/>
<use x="207.10" y="327.20" xlink:href="#hd"/>
<path d="M203.60 327.20v21.00" class="stroke"/>
<path class="fill"
	d="M203.60 348.20c0.6 -5.6 9.6 -9 5.6 -18.4
	1.6 6 -1.3 11.6 -5.6 12.8
"/>
<use x="222.20" y="330.20" xlink:href="#hd"/>
<path d="M218.70 330.20v21.00" class="stroke"/>
<path class="fill"
	d="M218.70 351.20c0.6 -5.6 9.6 -9 5.6 -18.4
	1.6 6 -1.3 11.6 -5.6 12.8
"/>
<use x="237.20" y="333.20" xlink:href="#hd"/>
<path d="M233.70 333.20v21.00" class="stroke"/>
<use x="257.70" y="330.20" xlink:href="#hd"/>
<path d="M254.20 330.20v21.00" class="stroke"/>
<path class="fill"
	d="M254.20 351.20c0.6 -5.6 9.6 -9 5.6 -18.4
	1.6 6 -1.3 11.6 -5.6 12.8
"/>
<use x="272.80" y="333.20" xlink:href="#hd"/>
<path d="M269.30 333.20v21.00" class="stroke"/>
<path class="fill"
	d="M269.30 354.20c0.6 -5.6 9.6 -9 5.6 -18.4
	1.6 6 -1.3 11.6 -5.6 12.8
"/>
<use x="287.80" y="336.20" xlink:href="#hd"/>
<path d="M284.30 336.20v21.00" class="stroke"/>
<use x="308.30" y="333.20" xlink:href="#hd"/>
<path d="M304.80 333.20v21.00" class="stroke"/>
<path class="fill"
	d="M304.80 354.20c0.6 -5.6 9.6 -9 5.6 -18.4
	1.6 6 -1.3 11.6 -5.6 12.8
"/>
<use x="323.40" y="336.20" xlink:href="#hd"/>
<path d="M319.90 336.20v21.00" class="stroke"/>
<path class="fill"
	d="M319.90 357.20c0.6 -5.6 9.6 -9 5.6 -18.4
	1.6 6 -1.3 11.6 -5.6 12.8
"/>
<use x="337.10" y="339.20" xlink:href="#hd"/>
<path d="M340.60 339.20v-21.00" class="stroke"/>
<path class="fill"
	d="M340.60 318.20c0.6 5.6 9.6 9 5.6 18.4
	1.6 -6 -1.3 -11.6 -5.6 -12.8
"/>
<use x="353.10" y="342.20" xlink:href="#hd"/>
<path d="M356.60 342.20v-21.00" class="stroke"/>
<path class="fill"
	d="M356.60 321.20c0.6 5.6 9.6 9 5.6 18.4
	1.6 -6 -1.3 -11.6 -5.6 -12.8
"/>
<use x="385.10" y="330.20" xlink:href="#HD"/>
<use x="466.60" y="336.20" xlink:href="#hd"/>
<path d="M463.10 336.20v21.00" class="stroke"/>
<use x="487.10" y="336.20" xlink:href="#hd"/>
<path d="M483.60 336.20v21.00" class="stroke"/>
<use x="515.80" y="330.20" xlink:href="#Hd"/>
<path d="M512.30 330.20v21.00" class="stroke"/>
<use x="557.10" y="333.20" xlink:href="#hd"/>
<path d="M553.60 333.20v21.00" class="stroke"/>
<use x="577.60" y="336.20" xlink:href="#hd"/>
<path d="M574.10 336.20v21.00" class="stroke"/>
<use x="596.20" y="339.20" xlink:href="#hd"/>
<path d="M599.70 339.20v-21.00" class="stroke"/>
<use x="616.70" y="339.20" xlink:href="#hd"/>
<path d="M620.20 339.20v-21.00" class="stroke"/>
<use x="658.40" y="321.20" xlink:href="#HD"/>
<circle class="fill" cx="668.10" cy="321.20" r="1.2"/>
<use x="658.40" y="342.20" xlink:href="#HD"/>
<circle class="fill" cx="668.10" cy="339.20" r="1.2"/>
<use x="22.00" y="388.20" xlink:href="#bclef"/>
<use x="37.00" y="400.20" xlink:href="#ft0"/>
<use x="42.50" y="391.20" xlink:href="#ft0"/>
<use x="77.00" y="412.20" xlink:href="#hl1"/>
<use x="77.00" y="418.20" xlink:href="#hl1"/>
<use x="77.00" y="421.20" xlink:href="#HD"/>
<circle class="fill" cx="88.70" cy="421.20" r="1.2"/>
<use x="77.00" y="400.20" xlink:href="#HD"/>
<circle class="fill" cx="88.70" cy="397.20" r="1.2"/>
<use x="77.00" y="394.20" xlink:href="#HD"/>
<circle class="fill" cx="88.70" cy="391.20" r="1.2"/>
<use x="77.00" y="388.20" xlink:href="#HD"/>
<circle class="fill" cx="88.70" cy="385.20" r="1.2"/>
<use x="208.10" y="412.20" xlink:href="#hl1"/>
<use x="208.10" y="418.20" xlink:href="#hl1"/>
<use x="208.10" y="418.20" xlink:href="#HD"/>
<circle class="fill" cx="217.80" cy="415.20" r="1.2"/>
<use x="208.10" y="397.20" xlink:href="#HD"/>
<circle class="fill" cx="217.80" cy="397.20" r="1.2"/>
<use x="208.10" y="391.20" xlink:href="#HD"/>
<circle class="fill" cx="217.80" cy="391.20" r="1.2"/>
<use x="208.10" y="385.20" xlink:href="#HD"/>
<circle class="fill" cx="217.80" cy="385.20" r="1.2"/>
<use x="384.10" y="394.20" xlink:href="#hd"/>
<path d="M387.60 394.20v-21.00" class="stroke"/>
<use x="405.10" y="388.20" xlink:href="#hd"/>
<path d="M401.60 388.20v21.00" class="stroke"/>
<use x="425.60" y="382.20" xlink:href="#hd"/>
<path d="M422.10 382.20v21.00" class="stroke"/>
<use x="446.10" y="388.20" xlink:href="#hd"/>
<path d="M442.60 388.20v21.00" class="stroke"/>
<use x="466.60" y="394.20" xlink:href="#hd"/>
<path d="M463.10 394.20v21.00" class="stroke"/>
<use x="487.10" y="388.20" xlink:href="#hd"/>
<path d="M483.60 388.20v21.00" class="stroke"/>
<use x="515.80" y="385.20" xlink:href="#hd"/>
<path d="M512.30 385.20v21.00" class="stroke"/>
<use x="536.30" y="379.20" xlink:href="#hd"/>
<path d="M532.80 379.20v21.00" class="stroke"/>
<use x="558.10" y="376.20" xlink:href="#hl1"/>
<use x="558.10" y="373.20" xlink:href="#HD"/>
<use x="658.40" y="376.20" xlink:href="#hl1"/>
<use x="658.40" y="373.20" xlink:href="#HD"/>
<circle class="fill" cx="668.10" cy="373.20" r="1.2"/>
<use x="658.40" y="406.20" xlink:href="#HD"/>
<circle class="fill" cx="668.10" cy="403.20" r="1.2"/>
<use x="658.40" y="385.20" xlink:href="#HD"/>
<circle class="fill" cx="668.10" cy="385.20" r="1.2"/>
<use x="658.40" y="379.20" xlink:href="#HD"/>
<circle class="fill" cx="668.10" cy="379.20" r="1.2"/>
<g transform="rotate(270)">
<use x="-424.20" y="63.50" xlink:href="#ltr"/>
<use x="-418.20" y="63.50" xlink:href="#ltr"/>
<use x="-412.20" y="63.50" xlink:href="#ltr"/>
<use x="-406.20" y="63.50" xlink:href="#ltr"/>
<use x="-400.20" y="63.50" xlink:href="#ltr"/>
<use x="-394.20" y="63.50" xlink:href="#ltr"/>
<use x="-388.20" y="63.50" xlink:href="#ltr"/>
</g>
<g transform="rotate(270)">
<use x="-421.20" y="194.60" xlink:href="#ltr"/>
<use x="-415.20" y="194.60" xlink:href="#ltr"/>
<use x="-409.20" y="194.60" xlink:href="#ltr"/>
<use x="-403.20" y="194.60" xlink:href="#ltr"/>
<use x="-397.20" y="194.60" xlink:href="#ltr"/>
<use x="-391.20" y="194.60" xlink:href="#ltr"/>
<use x="-385.20" y="194.60" xlink:href="#ltr"/>
</g>
<g transform="rotate(270)">
<use x="-409.20" y="644.90" xlink:href="#ltr"/>
<use x="-403.20" y="644.90" xlink:href="#ltr"/>
<use x="-397.20" y="644.90" xlink:href="#ltr"/>
<use x="-391.20" y="644.90" xlink:href="#ltr"/>
<use x="-385.20" y="644.90" xlink:href="#ltr"/>
<use x="-379.20" y="644.90" xlink:href="#ltr"/>
<use x="-373.20" y="644.90" xlink:href="#ltr"/>
</g>
</g>
</svg>
