<?xml version="1.0" standalone="no"?>
<!DOCTYPE svg PUBLIC "-//W3C//DTD SVG 1.1//EN"
	"http://www.w3.org/Graphics/SVG/1.1/DTD/svg11.dtd">
<svg xmlns="http://www.w3.org/2000/svg" version="1.1"
	xmlns:xlink="http://www.w3.org/1999/xlink"
	color="black"
	width="701.60px" height="476.80px" viewBox="0 0 701.60 476.80" preserveAspectRatio="xMidYMid meet">
<style type="text/css">
.fill {fill: currentColor}
.stroke {stroke: currentColor; fill: none}
text{white-space: pre}
</style>
<title>/tmp/retab_hymnal_L7/my_jesus_as_thou_wilt.abc (1) tune 1</title>
<!-- Creator: abcm2ps-8.14.11 -->
<!-- CreationDate: Apr 24, 2026 15:38 -->
<!-- CommandLine: /tmp/retab_hymnal_L7/my_jesus_as_thou_wilt.abc -g -O /tmp/retab_hymnal_L7/my_jesus_as_thou_wilt -->
<g stroke-width="0.70">
<!-- title: 158. My Jesus, As Thou Wilt -->
</g>
<g stroke-width="0.70" style="font:20.00px Times">
<text x="350.80" y="22.00" text-anchor="middle">158. My Jesus, As Thou Wilt</text>
</g>
<g stroke-width="0.70" style="font:20.00px Times">
<path class="stroke" stroke-width="1"
	d="M10.00 145.40v-82.00"/>
<defs>
<path id="brace" class="fill" d="m-2.5 101
	c-4.5 -4.6 -7.5 -12.2 -4.4 -26.8
	3.5 -14.3 3.2 -21.7 -2.1 -24.2
	7.4 2.4 7.3 14.2 3.5 29.5
	-2.7 9.5 -1.5 16.2 3 21.5
	M-2.5 1c-4.5 4.6 -7.5 12.2 -4.4 26.8
	c3.5 14.3 3.2 21.7 -2.1 24.2
	7.4 -2.4 7.3 -14.2 3.5 -29.5
	-2.7 -9.5 -1.5 -16.2 3 -21.5"/>
</defs>
<g transform="translate(10.00,63.40) scale(1,0.82)">
	<use xlink:href="#brace"/>
</g>
<path class="stroke" stroke-width="1"
	d="M179.30 87.40v-24.00"/>
<path class="stroke" stroke-width="1"
	d="M179.30 145.40v-24.00"/>
<path class="stroke" stroke-width="1"
	d="M275.80 87.40v-24.00"/>
<path class="stroke" stroke-width="1"
	d="M275.80 145.40v-24.00"/>
<path class="stroke" stroke-width="1"
	d="M382.60 87.40v-24.00"/>
<path class="stroke" stroke-width="1"
	d="M382.60 145.40v-24.00"/>
<path class="stroke" stroke-width="1"
	d="M471.00 87.40v-24.00"/>
<path class="stroke" stroke-width="1"
	d="M471.00 145.40v-24.00"/>
<path class="stroke" stroke-width="1"
	d="M573.50 87.40v-24.00"/>
<path class="stroke" stroke-width="1"
	d="M573.50 145.40v-24.00"/>
<path class="stroke" stroke-width="1"
	d="M691.60 87.40v-24.00"/>
<path class="stroke" stroke-width="1"
	d="M691.60 145.40v-24.00"/>
<path d="m10.00 87.40
	h681.60
	M10.00 81.40
	h681.60
	M10.00 75.40
	h681.60
	M10.00 69.40
	h681.60
	M10.00 63.40
	h681.60
	" class="stroke"/>
<path d="m10.00 145.40
	h681.60
	M10.00 139.40
	h681.60
	M10.00 133.40
	h681.60
	M10.00 127.40
	h681.60
	M10.00 121.40
	h681.60
	" class="stroke"/>
</g>
<g stroke-width="0.70" style="font:bold 13.00px Times">
<text x="95.70" y="58.80">I</text>
</g>
<g stroke-width="0.70" style="font:bold 13.00px Times">
<text x="187.80" y="56.80">V</text>
</g>
<g stroke-width="0.70" style="font:bold 13.00px Times">
<text x="299.00" y="53.80">I</text>
</g>
<g stroke-width="0.70" style="font:bold 13.00px Times">
<text x="403.80" y="47.80">I<tspan
	 style="font:italic 11.00px Times">²</tspan></text>
</g>
<g stroke-width="0.70" style="font:bold 13.00px Times">
<text x="476.20" y="56.80">IV<tspan
	 style="font:italic 11.00px Times">²</tspan></text>
</g>
<g stroke-width="0.70" style="font:bold 13.00px Times">
<text x="596.70" y="58.80">I</text>
<defs>
<path id="utclef" class="fill" d="m-50 -90
	c-72 -41 -72 -158 52 -188
	150 -10 220 188 90 256
	-114 52 -275 0 -293 -136
	-15 -181 93 -229 220 -334
	88 -87 79 -133 62 -210
	-51 33 -94 105 -89 186
	17 267 36 374 49 574
	6 96 -19 134 -77 135
	-80 1 -126 -93 -61 -133
	85 -41 133 101 31 105
	23 17 92 37 90 -92
	-10 -223 -39 -342 -50 -617
	0 -90 0 -162 96 -232
	56 72 63 230 22 289
	-74 106 -257 168 -255 316
	9 153 148 185 252 133
	86 -65 29 -192 -80 -176
	-71 12 -105 67 -59 124"/>
<use id="tclef" transform="translate(0,6) scale(0.045)"
	xlink:href="#utclef"/>
</defs>
<use x="22.00" y="81.40" xlink:href="#tclef"/>
<defs>
<path id="uflat" class="fill" d="
	m100 -746
	h32
	v734
	l-32 4
	m32 -332
	c46 -72 152 -90 208 -20
	100 110 -120 326 -208 348
	m0 -28
	c54 0 200 -206 130 -290
	-50 -60 -130 -4 -130 34"/>
<use id="ft0" transform="translate(-3.5,3.5) scale(0.018)"
	xlink:href="#uflat"/>
</defs>
<use x="37.00" y="75.40" xlink:href="#ft0"/>
<use x="42.50" y="66.40" xlink:href="#ft0"/>
<use x="48.00" y="78.40" xlink:href="#ft0"/>
<g style="font:bold 16px serif"
	transform="translate(64.00,86.90) scale(1.2,1)">
	<text text-anchor="middle">4</text>
	<text y="-12" text-anchor="middle">4</text>
</g>
<defs>
<path id="Hd" class="fill" d="m3 -1.6
	c-1 -1.8 -7 1.4 -6 3.2
	1 1.8 7 -1.4 6 -3.2
	m0.5 -0.3
	c2 3.8 -5 7.6 -7 3.8
	-2 -3.8 5 -7.6 7 -3.8"/>
</defs>
<use x="97.50" y="75.40" xlink:href="#Hd"/>
<path d="M94.00 75.40v21.00" class="stroke"/>
<defs>
<ellipse id="hd" rx="4.1" ry="2.9"
	transform="rotate(-20)" class="fill"/>
</defs>
<use x="125.30" y="81.40" xlink:href="#hd"/>
<path d="M128.80 81.40v-21.00" class="stroke"/>
<use x="145.60" y="87.40" xlink:href="#hd"/>
<path d="M149.10 87.40v-21.00" class="stroke"/>
<path class="fill"
	d="M149.10 66.40c0.6 5.6 9.6 9 5.6 18.4
	1.6 -6 -1.3 -11.6 -5.6 -12.8
"/>
<use x="162.30" y="81.40" xlink:href="#hd"/>
<path d="M165.80 81.40v-21.00" class="stroke"/>
<path class="fill"
	d="M165.80 60.40c0.6 5.6 9.6 9 5.6 18.4
	1.6 -6 -1.3 -11.6 -5.6 -12.8
"/>
<use x="191.80" y="84.40" xlink:href="#hd"/>
<circle class="fill" cx="199.50" cy="84.40" r="1.2"/>
<path d="M195.30 84.40v-21.00" class="stroke"/>
<use x="226.90" y="78.40" xlink:href="#hd"/>
<path d="M230.40 78.40v-22.00" class="stroke"/>
<path class="fill"
	d="M230.40 56.40c0.9 3.7 9.1 6.4 6 12.4
	1 -5.4 -4.2 -8.4 -6 -8.4
M230.40 61.80c0.9 3.7 9.1 6.4 6 12.4
	1 -5.4 -4.2 -8.4 -6 -8.4
"/>
<use x="240.40" y="81.40" xlink:href="#hd"/>
<path d="M243.90 81.40v-22.00" class="stroke"/>
<path class="fill"
	d="M243.90 59.40c0.9 3.7 9.1 6.4 6 12.4
	1 -5.4 -4.2 -8.4 -6 -8.4
M243.90 64.80c0.9 3.7 9.1 6.4 6 12.4
	1 -5.4 -4.2 -8.4 -6 -8.4
"/>
<use x="254.40" y="84.40" xlink:href="#Hd"/>
<path d="M257.90 84.40v-21.00" class="stroke"/>
<use x="300.80" y="81.40" xlink:href="#Hd"/>
<path d="M304.30 81.40v-21.00" class="stroke"/>
<use x="328.60" y="87.40" xlink:href="#hd"/>
<path d="M332.10 87.40v-21.00" class="stroke"/>
<use x="348.90" y="81.40" xlink:href="#hd"/>
<path d="M352.40 81.40v-21.00" class="stroke"/>
<path class="fill"
	d="M352.40 60.40c0.6 5.6 9.6 9 5.6 18.4
	1.6 -6 -1.3 -11.6 -5.6 -12.8
"/>
<use x="365.60" y="75.40" xlink:href="#hd"/>
<path d="M369.10 75.40v-21.00" class="stroke"/>
<path class="fill"
	d="M369.10 54.40c0.6 5.6 9.6 9 5.6 18.4
	1.6 -6 -1.3 -11.6 -5.6 -12.8
"/>
<use x="407.60" y="75.40" xlink:href="#hd"/>
<circle class="fill" cx="415.30" cy="72.40" r="1.2"/>
<path d="M411.10 75.40v-21.00" class="stroke"/>
<use x="432.70" y="78.40" xlink:href="#hd"/>
<path d="M436.20 78.40v-21.00" class="stroke"/>
<path class="fill"
	d="M436.20 57.40c0.6 5.6 9.6 9 5.6 18.4
	1.6 -6 -1.3 -11.6 -5.6 -12.8
"/>
<use x="449.50" y="81.40" xlink:href="#Hd"/>
<path d="M453.00 81.40v-21.00" class="stroke"/>
<use x="484.00" y="66.40" xlink:href="#Hd"/>
<path d="M480.50 66.40v21.00" class="stroke"/>
<use x="523.10" y="72.40" xlink:href="#hd"/>
<path d="M519.60 72.40v21.00" class="stroke"/>
<use x="543.40" y="78.40" xlink:href="#hd"/>
<path d="M546.90 78.40v-21.00" class="stroke"/>
<path class="fill"
	d="M546.90 57.40c0.6 5.6 9.6 9 5.6 18.4
	1.6 -6 -1.3 -11.6 -5.6 -12.8
"/>
<use x="560.80" y="72.40" xlink:href="#hd"/>
<path d="M557.30 72.40v21.00" class="stroke"/>
<path class="fill"
	d="M557.30 93.40c0.6 -5.6 9.6 -9 5.6 -18.4
	1.6 6 -1.3 11.6 -5.6 12.8
"/>
<use x="598.50" y="75.40" xlink:href="#hd"/>
<circle class="fill" cx="606.20" cy="72.40" r="1.2"/>
<path d="M595.00 75.40v21.00" class="stroke"/>
<use x="623.60" y="75.40" xlink:href="#hd"/>
<path d="M620.10 75.40v21.00" class="stroke"/>
<path class="fill"
	d="M620.10 96.40c0.6 -5.6 9.6 -9 5.6 -18.4
	1.6 6 -1.3 11.6 -5.6 12.8
"/>
<use x="637.60" y="81.40" xlink:href="#hd"/>
<path d="M641.10 81.40v-21.00" class="stroke"/>
<use x="657.90" y="87.40" xlink:href="#hd"/>
<path d="M661.40 87.40v-21.00" class="stroke"/>
<path class="fill"
	d="M661.40 66.40c0.6 5.6 9.6 9 5.6 18.4
	1.6 -6 -1.3 -11.6 -5.6 -12.8
"/>
<use x="674.60" y="81.40" xlink:href="#hd"/>
<path d="M678.10 81.40v-21.00" class="stroke"/>
<path class="fill"
	d="M678.10 60.40c0.6 5.6 9.6 9 5.6 18.4
	1.6 -6 -1.3 -11.6 -5.6 -12.8
"/>
<defs>
<path id="ubclef" class="fill" d="m-200 -87
	c124 -35 222 -78 254 -236
	43 -228 -167 -246 -192 -103
	59 -80 157 22 92 78
	-62 47 -115 -22 -106 -88
	21 -141 270 -136 274 52
	-1 175 -106 264 -322 297
	m357 -250
	c0 -36 51 -34 51 0
	0 37 -51 36 -51 0
	m-2 -129
	c0 -36 51 -34 51 0
	0 38 -51 37 -51 0"/>
<use id="bclef" transform="translate(0,18) scale(0.045)"
	xlink:href="#ubclef"/>
</defs>
<use x="22.00" y="127.40" xlink:href="#bclef"/>
<use x="37.00" y="139.40" xlink:href="#ft0"/>
<use x="42.50" y="130.40" xlink:href="#ft0"/>
<use x="48.00" y="142.40" xlink:href="#ft0"/>
<g style="font:bold 16px serif"
	transform="translate(64.00,144.90) scale(1.2,1)">
	<text text-anchor="middle">4</text>
	<text y="-12" text-anchor="middle">4</text>
</g>
<defs>
<path id="hl1" class="stroke" d="m-7 0h14"/>
</defs>
<use x="98.50" y="151.40" xlink:href="#hl1"/>
<use x="98.50" y="157.40" xlink:href="#hl1"/>
<use x="98.50" y="163.40" xlink:href="#hl1"/>
<use x="98.50" y="169.40" xlink:href="#hl1"/>
<defs>
<path id="HD" class="fill" d="m-2.7 -1.4
	c1.5 -2.8 6.9 0 5.3 2.7
	-1.5 2.8 -6.9 0 -5.3 -2.7
	m8.3 1.4
	c0 -1.5 -2.2 -3 -5.6 -3
	-3.4 0 -5.6 1.5 -5.6 3
	0 1.5 2.2 3 5.6 3
	3.4 0 5.6 -1.5 5.6 -3"/>
</defs>
<use x="98.50" y="172.40" xlink:href="#HD"/>
<use x="98.50" y="151.40" xlink:href="#HD"/>
<use x="98.50" y="145.40" xlink:href="#HD"/>
<use x="98.50" y="139.40" xlink:href="#HD"/>
<use x="191.80" y="139.40" xlink:href="#hd"/>
<path d="M195.30 139.40v-21.00" class="stroke"/>
<use x="212.10" y="133.40" xlink:href="#hd"/>
<path d="M215.60 133.40v-21.00" class="stroke"/>
<use x="254.40" y="127.40" xlink:href="#Hd"/>
<path d="M250.90 127.40v21.00" class="stroke"/>
<use x="301.80" y="151.40" xlink:href="#hl1"/>
<use x="301.80" y="157.40" xlink:href="#hl1"/>
<use x="301.80" y="163.40" xlink:href="#hl1"/>
<use x="301.80" y="169.40" xlink:href="#hl1"/>
<use x="301.80" y="172.40" xlink:href="#HD"/>
<use x="301.80" y="151.40" xlink:href="#HD"/>
<use x="301.80" y="145.40" xlink:href="#HD"/>
<use x="301.80" y="139.40" xlink:href="#HD"/>
<use x="408.60" y="151.40" xlink:href="#hl1"/>
<use x="408.60" y="157.40" xlink:href="#hl1"/>
<use x="408.60" y="163.40" xlink:href="#hl1"/>
<use x="408.60" y="169.40" xlink:href="#hl1"/>
<use x="408.60" y="172.40" xlink:href="#HD"/>
<use x="408.60" y="151.40" xlink:href="#HD"/>
<use x="408.60" y="145.40" xlink:href="#HD"/>
<use x="408.60" y="139.40" xlink:href="#HD"/>
<use x="484.00" y="130.40" xlink:href="#hd"/>
<path d="M480.50 130.40v21.00" class="stroke"/>
<use x="502.60" y="136.40" xlink:href="#hd"/>
<path d="M506.10 136.40v-21.00" class="stroke"/>
<use x="523.10" y="142.40" xlink:href="#Hd"/>
<path d="M526.60 142.40v-21.00" class="stroke"/>
<use x="599.50" y="151.40" xlink:href="#hl1"/>
<use x="599.50" y="157.40" xlink:href="#hl1"/>
<use x="599.50" y="163.40" xlink:href="#hl1"/>
<use x="599.50" y="169.40" xlink:href="#hl1"/>
<use x="599.50" y="172.40" xlink:href="#HD"/>
<use x="599.50" y="151.40" xlink:href="#HD"/>
<use x="599.50" y="145.40" xlink:href="#HD"/>
<use x="599.50" y="139.40" xlink:href="#HD"/>
<defs>
<path id="ltr" class="fill"
    d="m0 -0.4c2 -1.5 3.4 -1.9 3.9 0.4
	c0.2 0.8 0.7 0.7 2.1 -0.4
	v0.8c-2 1.5 -3.4 1.9 -3.9 -0.4
	c-0.2 -0.8 -0.7 -0.7 -2.1 0.4z"/>
</defs>
<g transform="rotate(270)">
<use x="-175.40" y="85.00" xlink:href="#ltr"/>
<use x="-169.40" y="85.00" xlink:href="#ltr"/>
<use x="-163.40" y="85.00" xlink:href="#ltr"/>
<use x="-157.40" y="85.00" xlink:href="#ltr"/>
<use x="-151.40" y="85.00" xlink:href="#ltr"/>
<use x="-145.40" y="85.00" xlink:href="#ltr"/>
<use x="-139.40" y="85.00" xlink:href="#ltr"/>
</g>
<g transform="rotate(270)">
<use x="-175.40" y="288.30" xlink:href="#ltr"/>
<use x="-169.40" y="288.30" xlink:href="#ltr"/>
<use x="-163.40" y="288.30" xlink:href="#ltr"/>
<use x="-157.40" y="288.30" xlink:href="#ltr"/>
<use x="-151.40" y="288.30" xlink:href="#ltr"/>
<use x="-145.40" y="288.30" xlink:href="#ltr"/>
<use x="-139.40" y="288.30" xlink:href="#ltr"/>
</g>
<g transform="rotate(270)">
<use x="-175.40" y="395.10" xlink:href="#ltr"/>
<use x="-169.40" y="395.10" xlink:href="#ltr"/>
<use x="-163.40" y="395.10" xlink:href="#ltr"/>
<use x="-157.40" y="395.10" xlink:href="#ltr"/>
<use x="-151.40" y="395.10" xlink:href="#ltr"/>
<use x="-145.40" y="395.10" xlink:href="#ltr"/>
<use x="-139.40" y="395.10" xlink:href="#ltr"/>
</g>
<g transform="rotate(270)">
<use x="-175.40" y="586.00" xlink:href="#ltr"/>
<use x="-169.40" y="586.00" xlink:href="#ltr"/>
<use x="-163.40" y="586.00" xlink:href="#ltr"/>
<use x="-157.40" y="586.00" xlink:href="#ltr"/>
<use x="-151.40" y="586.00" xlink:href="#ltr"/>
<use x="-145.40" y="586.00" xlink:href="#ltr"/>
<use x="-139.40" y="586.00" xlink:href="#ltr"/>
</g>
</g>
<g stroke-width="0.70" style="font:bold 13.00px Times">
<path class="stroke" stroke-width="1"
	d="M10.00 285.80v-82.00"/>
<g transform="translate(10.00,203.80) scale(1,0.82)">
	<use xlink:href="#brace"/>
</g>
<path class="stroke" stroke-width="1"
	d="M187.50 227.80v-24.00"/>
<path class="stroke" stroke-width="1"
	d="M187.50 285.80v-24.00"/>
<path class="stroke" stroke-width="1"
	d="M281.50 227.80v-24.00"/>
<path class="stroke" stroke-width="1"
	d="M281.50 285.80v-24.00"/>
<path class="stroke" stroke-width="1"
	d="M390.80 227.80v-24.00"/>
<path class="stroke" stroke-width="1"
	d="M390.80 285.80v-24.00"/>
<path class="stroke" stroke-width="1"
	d="M491.40 227.80v-24.00"/>
<path class="stroke" stroke-width="1"
	d="M491.40 285.80v-24.00"/>
<path class="stroke" stroke-width="1"
	d="M600.70 227.80v-24.00"/>
<path class="stroke" stroke-width="1"
	d="M600.70 285.80v-24.00"/>
<path class="stroke" stroke-width="1"
	d="M691.60 227.80v-24.00"/>
<path class="stroke" stroke-width="1"
	d="M691.60 285.80v-24.00"/>
<path d="m10.00 227.80
	h681.60
	M10.00 221.80
	h681.60
	M10.00 215.80
	h681.60
	M10.00 209.80
	h681.60
	M10.00 203.80
	h681.60
	" class="stroke"/>
<path d="m10.00 285.80
	h681.60
	M10.00 279.80
	h681.60
	M10.00 273.80
	h681.60
	M10.00 267.80
	h681.60
	M10.00 261.80
	h681.60
	" class="stroke"/>
</g>
<g stroke-width="0.70" style="font:bold 13.00px Times">
<text x="75.60" y="188.20">V<tspan
	 style="font:italic 11.00px Times">⁷</tspan></text>
</g>
<g stroke-width="0.70" style="font:bold 13.00px Times">
<text x="196.60" y="197.20">V</text>
</g>
<g stroke-width="0.70" style="font:bold 13.00px Times">
<text x="304.70" y="188.20">I</text>
</g>
<g stroke-width="0.70" style="font:bold 13.00px Times">
<text x="411.90" y="197.20">V</text>
</g>
<g stroke-width="0.70" style="font:bold 13.00px Times">
<text x="514.60" y="194.20">I</text>
</g>
<g stroke-width="0.70" style="font:bold 13.00px Times">
<text x="621.90" y="188.20">I<tspan
	 style="font:italic 11.00px Times">¹</tspan></text>
</g>
<g stroke-width="0.70" style="font:italic 11.00px Times">
<use x="22.00" y="221.80" xlink:href="#tclef"/>
<use x="37.00" y="215.80" xlink:href="#ft0"/>
<use x="42.50" y="206.80" xlink:href="#ft0"/>
<use x="48.00" y="218.80" xlink:href="#ft0"/>
<use x="81.50" y="215.80" xlink:href="#hd"/>
<path d="M85.00 215.80v-21.00" class="stroke"/>
<path class="fill"
	d="M85.00 194.80c0.6 5.6 9.6 9 5.6 18.4
	1.6 -6 -1.3 -11.6 -5.6 -12.8
"/>
<use x="98.60" y="218.80" xlink:href="#hd"/>
<path d="M102.10 218.80v-21.00" class="stroke"/>
<path class="fill"
	d="M102.10 197.80c0.6 5.6 9.6 9 5.6 18.4
	1.6 -6 -1.3 -11.6 -5.6 -12.8
"/>
<use x="115.60" y="224.80" xlink:href="#hd"/>
<path d="M119.10 224.80v-21.00" class="stroke"/>
<use x="136.80" y="218.80" xlink:href="#hd"/>
<path d="M140.30 218.80v-21.00" class="stroke"/>
<path class="fill"
	d="M140.30 197.80c0.6 5.6 9.6 9 5.6 18.4
	1.6 -6 -1.3 -11.6 -5.6 -12.8
"/>
<use x="153.90" y="221.80" xlink:href="#hd"/>
<path d="M157.40 221.80v-21.00" class="stroke"/>
<path class="fill"
	d="M157.40 200.80c0.6 5.6 9.6 9 5.6 18.4
	1.6 -6 -1.3 -11.6 -5.6 -12.8
"/>
<use x="170.90" y="227.80" xlink:href="#hd"/>
<path d="M174.40 227.80v-21.00" class="stroke"/>
<use x="200.50" y="224.80" xlink:href="#Hd"/>
<path d="M204.00 224.80v-21.00" class="stroke"/>
<use x="243.70" y="215.80" xlink:href="#hd"/>
<path d="M247.20 215.80v-21.00" class="stroke"/>
<defs>
<path id="r4" class="fill" d="m-1 -8.5
	l3.6 5.1 -2.1 5.2 2.2 4.3
	c-2.6 -2.3 -5.1 0 -2.4 2.6
	-4.8 -3 -1.5 -6.9 1.4 -4.1
	l-3.1 -4.5 1.9 -5.1 -1.5 -3.5"/>
</defs>
<use x="264.90" y="215.80" xlink:href="#r4"/>
<use x="306.50" y="215.80" xlink:href="#Hd"/>
<path d="M310.00 215.80v-21.00" class="stroke"/>
<use x="335.50" y="221.80" xlink:href="#hd"/>
<path d="M339.00 221.80v-21.00" class="stroke"/>
<use x="356.70" y="227.80" xlink:href="#hd"/>
<path d="M360.20 227.80v-21.00" class="stroke"/>
<path class="fill"
	d="M360.20 206.80c0.6 5.6 9.6 9 5.6 18.4
	1.6 -6 -1.3 -11.6 -5.6 -12.8
"/>
<use x="373.80" y="221.80" xlink:href="#hd"/>
<path d="M377.30 221.80v-21.00" class="stroke"/>
<path class="fill"
	d="M377.30 200.80c0.6 5.6 9.6 9 5.6 18.4
	1.6 -6 -1.3 -11.6 -5.6 -12.8
"/>
<use x="415.80" y="224.80" xlink:href="#hd"/>
<circle class="fill" cx="423.50" cy="224.80" r="1.2"/>
<path d="M419.30 224.80v-21.00" class="stroke"/>
<use x="441.70" y="218.80" xlink:href="#hd"/>
<path d="M445.20 218.80v-22.00" class="stroke"/>
<path class="fill"
	d="M445.20 196.80c0.9 3.7 9.1 6.4 6 12.4
	1 -5.4 -4.2 -8.4 -6 -8.4
M445.20 202.20c0.9 3.7 9.1 6.4 6 12.4
	1 -5.4 -4.2 -8.4 -6 -8.4
"/>
<use x="455.20" y="221.80" xlink:href="#hd"/>
<path d="M458.70 221.80v-22.00" class="stroke"/>
<path class="fill"
	d="M458.70 199.80c0.9 3.7 9.1 6.4 6 12.4
	1 -5.4 -4.2 -8.4 -6 -8.4
M458.70 205.20c0.9 3.7 9.1 6.4 6 12.4
	1 -5.4 -4.2 -8.4 -6 -8.4
"/>
<use x="469.20" y="224.80" xlink:href="#Hd"/>
<path d="M472.70 224.80v-21.00" class="stroke"/>
<use x="516.40" y="221.80" xlink:href="#Hd"/>
<path d="M519.90 221.80v-21.00" class="stroke"/>
<use x="545.50" y="227.80" xlink:href="#hd"/>
<path d="M549.00 227.80v-21.00" class="stroke"/>
<use x="566.70" y="221.80" xlink:href="#hd"/>
<path d="M570.20 221.80v-21.00" class="stroke"/>
<path class="fill"
	d="M570.20 200.80c0.6 5.6 9.6 9 5.6 18.4
	1.6 -6 -1.3 -11.6 -5.6 -12.8
"/>
<use x="583.70" y="215.80" xlink:href="#hd"/>
<path d="M587.20 215.80v-21.00" class="stroke"/>
<path class="fill"
	d="M587.20 194.80c0.6 5.6 9.6 9 5.6 18.4
	1.6 -6 -1.3 -11.6 -5.6 -12.8
"/>
<use x="625.70" y="215.80" xlink:href="#hd"/>
<circle class="fill" cx="633.40" cy="212.80" r="1.2"/>
<path d="M629.20 215.80v-21.00" class="stroke"/>
<use x="651.60" y="215.80" xlink:href="#hd"/>
<path d="M655.10 215.80v-21.00" class="stroke"/>
<path class="fill"
	d="M655.10 194.80c0.6 5.6 9.6 9 5.6 18.4
	1.6 -6 -1.3 -11.6 -5.6 -12.8
"/>
<use x="669.40" y="212.80" xlink:href="#Hd"/>
<path d="M665.90 212.80v21.00" class="stroke"/>
<use x="22.00" y="267.80" xlink:href="#bclef"/>
<use x="37.00" y="279.80" xlink:href="#ft0"/>
<use x="42.50" y="270.80" xlink:href="#ft0"/>
<use x="48.00" y="282.80" xlink:href="#ft0"/>
<use x="82.50" y="291.80" xlink:href="#hl1"/>
<use x="82.50" y="297.80" xlink:href="#hl1"/>
<use x="82.50" y="300.80" xlink:href="#HD"/>
<use x="82.50" y="279.80" xlink:href="#HD"/>
<use x="82.50" y="273.80" xlink:href="#HD"/>
<use x="82.50" y="267.80" xlink:href="#HD"/>
<use x="200.50" y="279.80" xlink:href="#hd"/>
<path d="M204.00 279.80v-21.00" class="stroke"/>
<use x="221.70" y="273.80" xlink:href="#hd"/>
<path d="M225.20 273.80v-21.00" class="stroke"/>
<use x="243.70" y="267.80" xlink:href="#Hd"/>
<path d="M240.20 267.80v21.00" class="stroke"/>
<use x="307.50" y="291.80" xlink:href="#hl1"/>
<use x="307.50" y="297.80" xlink:href="#hl1"/>
<use x="307.50" y="303.80" xlink:href="#hl1"/>
<use x="307.50" y="309.80" xlink:href="#hl1"/>
<use x="307.50" y="312.80" xlink:href="#HD"/>
<use x="307.50" y="291.80" xlink:href="#HD"/>
<use x="307.50" y="285.80" xlink:href="#HD"/>
<use x="307.50" y="279.80" xlink:href="#HD"/>
<use x="416.80" y="291.80" xlink:href="#hl1"/>
<use x="416.80" y="297.80" xlink:href="#hl1"/>
<use x="416.80" y="300.80" xlink:href="#HD"/>
<use x="416.80" y="279.80" xlink:href="#HD"/>
<use x="416.80" y="273.80" xlink:href="#HD"/>
<use x="416.80" y="267.80" xlink:href="#HD"/>
<use x="517.40" y="291.80" xlink:href="#hl1"/>
<use x="517.40" y="297.80" xlink:href="#hl1"/>
<use x="517.40" y="303.80" xlink:href="#hl1"/>
<use x="517.40" y="309.80" xlink:href="#hl1"/>
<use x="517.40" y="312.80" xlink:href="#HD"/>
<use x="517.40" y="291.80" xlink:href="#HD"/>
<use x="517.40" y="285.80" xlink:href="#HD"/>
<use x="517.40" y="279.80" xlink:href="#HD"/>
<use x="626.70" y="291.80" xlink:href="#hl1"/>
<use x="626.70" y="297.80" xlink:href="#hl1"/>
<use x="626.70" y="303.80" xlink:href="#hl1"/>
<use x="626.70" y="309.80" xlink:href="#hl1"/>
<use x="626.70" y="312.80" xlink:href="#HD"/>
<use x="626.70" y="291.80" xlink:href="#HD"/>
<use x="626.70" y="285.80" xlink:href="#HD"/>
<use x="626.70" y="279.80" xlink:href="#HD"/>
<g transform="rotate(270)">
<use x="-303.80" y="69.00" xlink:href="#ltr"/>
<use x="-297.80" y="69.00" xlink:href="#ltr"/>
<use x="-291.80" y="69.00" xlink:href="#ltr"/>
<use x="-285.80" y="69.00" xlink:href="#ltr"/>
<use x="-279.80" y="69.00" xlink:href="#ltr"/>
<use x="-273.80" y="69.00" xlink:href="#ltr"/>
<use x="-267.80" y="69.00" xlink:href="#ltr"/>
</g>
<g transform="rotate(270)">
<use x="-315.80" y="294.00" xlink:href="#ltr"/>
<use x="-309.80" y="294.00" xlink:href="#ltr"/>
<use x="-303.80" y="294.00" xlink:href="#ltr"/>
<use x="-297.80" y="294.00" xlink:href="#ltr"/>
<use x="-291.80" y="294.00" xlink:href="#ltr"/>
<use x="-285.80" y="294.00" xlink:href="#ltr"/>
<use x="-279.80" y="294.00" xlink:href="#ltr"/>
</g>
<g transform="rotate(270)">
<use x="-303.80" y="403.30" xlink:href="#ltr"/>
<use x="-297.80" y="403.30" xlink:href="#ltr"/>
<use x="-291.80" y="403.30" xlink:href="#ltr"/>
<use x="-285.80" y="403.30" xlink:href="#ltr"/>
<use x="-279.80" y="403.30" xlink:href="#ltr"/>
<use x="-273.80" y="403.30" xlink:href="#ltr"/>
<use x="-267.80" y="403.30" xlink:href="#ltr"/>
</g>
<g transform="rotate(270)">
<use x="-315.80" y="503.90" xlink:href="#ltr"/>
<use x="-309.80" y="503.90" xlink:href="#ltr"/>
<use x="-303.80" y="503.90" xlink:href="#ltr"/>
<use x="-297.80" y="503.90" xlink:href="#ltr"/>
<use x="-291.80" y="503.90" xlink:href="#ltr"/>
<use x="-285.80" y="503.90" xlink:href="#ltr"/>
<use x="-279.80" y="503.90" xlink:href="#ltr"/>
</g>
<g transform="rotate(270)">
<use x="-315.80" y="613.20" xlink:href="#ltr"/>
<use x="-309.80" y="613.20" xlink:href="#ltr"/>
<use x="-303.80" y="613.20" xlink:href="#ltr"/>
<use x="-297.80" y="613.20" xlink:href="#ltr"/>
<use x="-291.80" y="613.20" xlink:href="#ltr"/>
<use x="-285.80" y="613.20" xlink:href="#ltr"/>
<use x="-279.80" y="613.20" xlink:href="#ltr"/>
</g>
</g>
<g stroke-width="0.70" style="font:italic 11.00px Times">
<path class="stroke" stroke-width="1"
	d="M10.00 426.20v-82.00"/>
<g transform="translate(10.00,344.20) scale(1,0.82)">
	<use xlink:href="#brace"/>
</g>
<path class="stroke" stroke-width="1"
	d="M241.30 368.20v-24.00"/>
<path class="stroke" stroke-width="1"
	d="M241.30 426.20v-24.00"/>
<path class="stroke" stroke-width="1"
	d="M435.90 368.20v-24.00"/>
<path class="stroke" stroke-width="1"
	d="M435.90 426.20v-24.00"/>
<path class="stroke" stroke-width="1"
	d="M606.80 368.20v-24.00"/>
<path class="stroke" stroke-width="1"
	d="M606.80 426.20v-24.00"/>
<path class="stroke" stroke-width="1"
	d="M691.60 368.20v-24.00"/>
<path class="stroke" stroke-width="1"
	d="M691.60 426.20v-24.00"/>
<path d="m10.00 368.20
	h681.60
	M10.00 362.20
	h681.60
	M10.00 356.20
	h681.60
	M10.00 350.20
	h681.60
	M10.00 344.20
	h681.60
	" class="stroke"/>
<path d="m10.00 426.20
	h681.60
	M10.00 420.20
	h681.60
	M10.00 414.20
	h681.60
	M10.00 408.20
	h681.60
	M10.00 402.20
	h681.60
	" class="stroke"/>
</g>
<g stroke-width="0.70" style="font:bold 13.00px Times">
<text x="60.70" y="338.60">IV</text>
</g>
<g stroke-width="0.70" style="font:bold 13.00px Times">
<text x="264.60" y="339.60">I</text>
</g>
<g stroke-width="0.70" style="font:bold 13.00px Times">
<text x="459.30" y="328.60">I</text>
</g>
<g stroke-width="0.70" style="font:bold 13.00px Times">
<text x="630.10" y="338.60">I</text>
</g>
<g stroke-width="0.70" style="font:italic 13.00px Times">
<text x="624.00" y="469.60">bisb.</text>
<use x="22.00" y="362.20" xlink:href="#tclef"/>
<use x="37.00" y="356.20" xlink:href="#ft0"/>
<use x="42.50" y="347.20" xlink:href="#ft0"/>
<use x="48.00" y="359.20" xlink:href="#ft0"/>
<use x="66.50" y="347.20" xlink:href="#Hd"/>
<path d="M63.00 347.20v21.00" class="stroke"/>
<use x="147.40" y="353.20" xlink:href="#hd"/>
<path d="M143.90 353.20v21.00" class="stroke"/>
<use x="190.00" y="359.20" xlink:href="#hd"/>
<path d="M193.50 359.20v-21.00" class="stroke"/>
<path class="fill"
	d="M193.50 338.20c0.6 5.6 9.6 9 5.6 18.4
	1.6 -6 -1.3 -11.6 -5.6 -12.8
"/>
<use x="220.20" y="353.20" xlink:href="#hd"/>
<path d="M216.70 353.20v21.00" class="stroke"/>
<path class="fill"
	d="M216.70 374.20c0.6 -5.6 9.6 -9 5.6 -18.4
	1.6 6 -1.3 11.6 -5.6 12.8
"/>
<use x="266.50" y="356.20" xlink:href="#hd"/>
<circle class="fill" cx="274.20" cy="353.20" r="1.2"/>
<path d="M263.00 356.20v21.00" class="stroke"/>
<use x="314.90" y="356.20" xlink:href="#hd"/>
<path d="M311.40 356.20v21.00" class="stroke"/>
<path class="fill"
	d="M311.40 377.20c0.6 -5.6 9.6 -9 5.6 -18.4
	1.6 6 -1.3 11.6 -5.6 12.8
"/>
<use x="342.10" y="362.20" xlink:href="#hd"/>
<path d="M345.60 362.20v-21.00" class="stroke"/>
<use x="384.70" y="368.20" xlink:href="#hd"/>
<path d="M388.20 368.20v-21.00" class="stroke"/>
<path class="fill"
	d="M388.20 347.20c0.6 5.6 9.6 9 5.6 18.4
	1.6 -6 -1.3 -11.6 -5.6 -12.8
"/>
<use x="414.80" y="362.20" xlink:href="#hd"/>
<path d="M418.30 362.20v-21.00" class="stroke"/>
<path class="fill"
	d="M418.30 341.20c0.6 5.6 9.6 9 5.6 18.4
	1.6 -6 -1.3 -11.6 -5.6 -12.8
"/>
<use x="461.10" y="356.20" xlink:href="#hd"/>
<circle class="fill" cx="468.80" cy="353.20" r="1.2"/>
<path d="M464.60 356.20v-21.00" class="stroke"/>
<path class="fill"
	d="M464.60 335.20c0.6 5.6 9.6 9 5.6 18.4
	1.6 -6 -1.3 -11.6 -5.6 -12.8
"/>
<use x="495.40" y="368.20" xlink:href="#hd"/>
<path d="M498.90 368.20v-22.00" class="stroke"/>
<path class="fill"
	d="M498.90 346.20c0.9 3.7 9.1 6.4 6 12.4
	1 -5.4 -4.2 -8.4 -6 -8.4
M498.90 351.60c0.9 3.7 9.1 6.4 6 12.4
	1 -5.4 -4.2 -8.4 -6 -8.4
"/>
<use x="516.70" y="362.20" xlink:href="#Hd"/>
<path d="M520.20 362.20v-21.00" class="stroke"/>
<use x="577.00" y="365.20" xlink:href="#hd"/>
<path d="M580.50 365.20v-21.00" class="stroke"/>
<use x="633.00" y="368.20" xlink:href="#HD"/>
<use x="633.00" y="347.20" xlink:href="#HD"/>
<use x="22.00" y="408.20" xlink:href="#bclef"/>
<use x="37.00" y="420.20" xlink:href="#ft0"/>
<use x="42.50" y="411.20" xlink:href="#ft0"/>
<use x="48.00" y="423.20" xlink:href="#ft0"/>
<use x="66.50" y="411.20" xlink:href="#hd"/>
<path d="M63.00 411.20v21.00" class="stroke"/>
<use x="104.80" y="417.20" xlink:href="#hd"/>
<path d="M108.30 417.20v-21.00" class="stroke"/>
<use x="147.40" y="423.20" xlink:href="#Hd"/>
<path d="M150.90 423.20v-21.00" class="stroke"/>
<use x="267.50" y="432.20" xlink:href="#hl1"/>
<use x="267.50" y="438.20" xlink:href="#hl1"/>
<use x="267.50" y="444.20" xlink:href="#hl1"/>
<use x="267.50" y="450.20" xlink:href="#hl1"/>
<use x="267.50" y="453.20" xlink:href="#HD"/>
<use x="267.50" y="432.20" xlink:href="#HD"/>
<use x="267.50" y="426.20" xlink:href="#HD"/>
<use x="267.50" y="420.20" xlink:href="#HD"/>
<use x="462.10" y="432.20" xlink:href="#hl1"/>
<use x="462.10" y="438.20" xlink:href="#hl1"/>
<use x="462.10" y="444.20" xlink:href="#hl1"/>
<use x="462.10" y="450.20" xlink:href="#hl1"/>
<use x="462.10" y="453.20" xlink:href="#HD"/>
<use x="462.10" y="432.20" xlink:href="#HD"/>
<use x="462.10" y="426.20" xlink:href="#HD"/>
<use x="462.10" y="420.20" xlink:href="#HD"/>
<use x="633.00" y="432.20" xlink:href="#hl1"/>
<use x="633.00" y="438.20" xlink:href="#hl1"/>
<use x="633.00" y="444.20" xlink:href="#hl1"/>
<use x="633.00" y="450.20" xlink:href="#hl1"/>
<use x="633.00" y="453.20" xlink:href="#HD"/>
<use x="633.00" y="432.20" xlink:href="#HD"/>
<use x="633.00" y="426.20" xlink:href="#HD"/>
<use x="633.00" y="420.20" xlink:href="#HD"/>
<g transform="rotate(270)">
<use x="-456.20" y="254.00" xlink:href="#ltr"/>
<use x="-450.20" y="254.00" xlink:href="#ltr"/>
<use x="-444.20" y="254.00" xlink:href="#ltr"/>
<use x="-438.20" y="254.00" xlink:href="#ltr"/>
<use x="-432.20" y="254.00" xlink:href="#ltr"/>
<use x="-426.20" y="254.00" xlink:href="#ltr"/>
<use x="-420.20" y="254.00" xlink:href="#ltr"/>
</g>
<g transform="rotate(270)">
<use x="-456.20" y="448.60" xlink:href="#ltr"/>
<use x="-450.20" y="448.60" xlink:href="#ltr"/>
<use x="-444.20" y="448.60" xlink:href="#ltr"/>
<use x="-438.20" y="448.60" xlink:href="#ltr"/>
<use x="-432.20" y="448.60" xlink:href="#ltr"/>
<use x="-426.20" y="448.60" xlink:href="#ltr"/>
<use x="-420.20" y="448.60" xlink:href="#ltr"/>
</g>
<g transform="rotate(270)">
<use x="-456.20" y="619.50" xlink:href="#ltr"/>
<use x="-450.20" y="619.50" xlink:href="#ltr"/>
<use x="-444.20" y="619.50" xlink:href="#ltr"/>
<use x="-438.20" y="619.50" xlink:href="#ltr"/>
<use x="-432.20" y="619.50" xlink:href="#ltr"/>
<use x="-426.20" y="619.50" xlink:href="#ltr"/>
<use x="-420.20" y="619.50" xlink:href="#ltr"/>
</g>
</g>
</svg>
