<?xml version="1.0" standalone="no"?>
<!DOCTYPE svg PUBLIC "-//W3C//DTD SVG 1.1//EN"
	"http://www.w3.org/Graphics/SVG/1.1/DTD/svg11.dtd">
<svg xmlns="http://www.w3.org/2000/svg" version="1.1"
	xmlns:xlink="http://www.w3.org/1999/xlink"
	color="black"
	width="701.60px" height="436.40px" viewBox="0 0 701.60 436.40" preserveAspectRatio="xMidYMid meet">
<style type="text/css">
.fill {fill: currentColor}
.stroke {stroke: currentColor; fill: none}
text{white-space: pre}
</style>
<title>/tmp/retab_hymnal_L7/o_day_of_rest_and_gladness.abc (1) tune 1</title>
<!-- Creator: abcm2ps-8.14.11 -->
<!-- CreationDate: Apr 24, 2026 15:38 -->
<!-- CommandLine: /tmp/retab_hymnal_L7/o_day_of_rest_and_gladness.abc -g -O /tmp/retab_hymnal_L7/o_day_of_rest_and_gladness -->
<g stroke-width="0.70">
<!-- title: 174. O Day of Rest And Gladness -->
</g>
<g stroke-width="0.70" style="font:20.00px Times">
<text x="350.80" y="22.00" text-anchor="middle">174. O Day of Rest And Gladness</text>
</g>
<g stroke-width="0.70" style="font:20.00px Times">
<path class="stroke" stroke-width="1"
	d="M10.00 143.00v-82.00"/>
<defs>
<path id="brace" class="fill" d="m-2.5 101
	c-4.5 -4.6 -7.5 -12.2 -4.4 -26.8
	3.5 -14.3 3.2 -21.7 -2.1 -24.2
	7.4 2.4 7.3 14.2 3.5 29.5
	-2.7 9.5 -1.5 16.2 3 21.5
	M-2.5 1c-4.5 4.6 -7.5 12.2 -4.4 26.8
	c3.5 14.3 3.2 21.7 -2.1 24.2
	7.4 -2.4 7.3 -14.2 3.5 -29.5
	-2.7 -9.5 -1.5 -16.2 3 -21.5"/>
</defs>
<g transform="translate(10.00,61.00) scale(1,0.82)">
	<use xlink:href="#brace"/>
</g>
<path class="stroke" stroke-width="1"
	d="M172.80 85.00v-24.00"/>
<path class="stroke" stroke-width="1"
	d="M172.80 143.00v-24.00"/>
<path class="stroke" stroke-width="1"
	d="M283.10 85.00v-24.00"/>
<path class="stroke" stroke-width="1"
	d="M283.10 143.00v-24.00"/>
<path class="stroke" stroke-width="1"
	d="M393.90 85.00v-24.00"/>
<path class="stroke" stroke-width="1"
	d="M393.90 143.00v-24.00"/>
<path class="stroke" stroke-width="1"
	d="M470.00 85.00v-24.00"/>
<path class="stroke" stroke-width="1"
	d="M470.00 143.00v-24.00"/>
<path class="stroke" stroke-width="1"
	d="M581.30 85.00v-24.00"/>
<path class="stroke" stroke-width="1"
	d="M581.30 143.00v-24.00"/>
<path class="stroke" stroke-width="1"
	d="M691.60 85.00v-24.00"/>
<path class="stroke" stroke-width="1"
	d="M691.60 143.00v-24.00"/>
<path d="m10.00 85.00
	h681.60
	M10.00 79.00
	h681.60
	M10.00 73.00
	h681.60
	M10.00 67.00
	h681.60
	M10.00 61.00
	h681.60
	" class="stroke"/>
<path d="m10.00 143.00
	h681.60
	M10.00 137.00
	h681.60
	M10.00 131.00
	h681.60
	M10.00 125.00
	h681.60
	M10.00 119.00
	h681.60
	" class="stroke"/>
</g>
<g stroke-width="0.70" style="font:bold 13.00px Times">
<text x="84.70" y="51.40">I</text>
</g>
<g stroke-width="0.70" style="font:bold 13.00px Times">
<text x="193.90" y="51.40">V</text>
</g>
<g stroke-width="0.70" style="font:bold 13.00px Times">
<text x="304.40" y="56.40">I<tspan
	 style="font:italic 11.00px Times">¹</tspan></text>
</g>
<g stroke-width="0.70" style="font:bold 13.00px Times">
<text x="417.10" y="54.40">I</text>
</g>
<g stroke-width="0.70" style="font:bold 13.00px Times">
<text x="493.20" y="51.40">I</text>
</g>
<g stroke-width="0.70" style="font:bold 13.00px Times">
<text x="602.40" y="51.40">V</text>
<defs>
<path id="utclef" class="fill" d="m-50 -90
	c-72 -41 -72 -158 52 -188
	150 -10 220 188 90 256
	-114 52 -275 0 -293 -136
	-15 -181 93 -229 220 -334
	88 -87 79 -133 62 -210
	-51 33 -94 105 -89 186
	17 267 36 374 49 574
	6 96 -19 134 -77 135
	-80 1 -126 -93 -61 -133
	85 -41 133 101 31 105
	23 17 92 37 90 -92
	-10 -223 -39 -342 -50 -617
	0 -90 0 -162 96 -232
	56 72 63 230 22 289
	-74 106 -257 168 -255 316
	9 153 148 185 252 133
	86 -65 29 -192 -80 -176
	-71 12 -105 67 -59 124"/>
<use id="tclef" transform="translate(0,6) scale(0.045)"
	xlink:href="#utclef"/>
</defs>
<use x="22.00" y="79.00" xlink:href="#tclef"/>
<defs>
<path id="usharp" class="fill" d="
	m136 -702
	v890
	h32
	v-890
	m128 840
	h32
	v-888
	h-32
	m-232 286
	v116
	l338 -96
	v-116
	m-338 442
	v116
	l338 -98
	v-114"/>
<use id="sh0" transform="translate(-4,5) scale(0.018)"
	xlink:href="#usharp"/>
</defs>
<use x="37.00" y="61.00" xlink:href="#sh0"/>
<g style="font:bold 16px serif"
	transform="translate(53.00,84.50) scale(1.2,1)">
	<text text-anchor="middle">4</text>
	<text y="-12" text-anchor="middle">4</text>
</g>
<defs>
<ellipse id="hd" rx="4.1" ry="2.9"
	transform="rotate(-20)" class="fill"/>
</defs>
<use x="86.50" y="79.00" xlink:href="#hd"/>
<path d="M90.00 79.00v-21.00" class="stroke"/>
<use x="109.30" y="79.00" xlink:href="#hd"/>
<path d="M112.80 79.00v-21.00" class="stroke"/>
<use x="132.70" y="67.00" xlink:href="#hd"/>
<path d="M129.20 67.00v21.00" class="stroke"/>
<use x="155.50" y="73.00" xlink:href="#hd"/>
<path d="M152.00 73.00v21.00" class="stroke"/>
<use x="197.80" y="79.00" xlink:href="#hd"/>
<path d="M201.30 79.00v-21.00" class="stroke"/>
<use x="220.60" y="82.00" xlink:href="#hd"/>
<circle class="fill" cx="228.30" cy="82.00" r="1.2"/>
<path d="M224.10 82.00v-21.00" class="stroke"/>
<use x="248.00" y="79.00" xlink:href="#hd"/>
<path d="M251.50 79.00v-21.00" class="stroke"/>
<path class="fill"
	d="M251.50 58.00c0.6 5.6 9.6 9 5.6 18.4
	1.6 -6 -1.3 -11.6 -5.6 -12.8
"/>
<use x="265.80" y="76.00" xlink:href="#hd"/>
<path d="M269.30 76.00v-21.00" class="stroke"/>
<use x="308.10" y="88.00" xlink:href="#hd"/>
<path d="M311.60 88.00v-21.00" class="stroke"/>
<use x="330.90" y="85.00" xlink:href="#hd"/>
<path d="M334.40 85.00v-21.00" class="stroke"/>
<use x="353.70" y="79.00" xlink:href="#hd"/>
<path d="M357.20 79.00v-21.00" class="stroke"/>
<use x="376.50" y="79.00" xlink:href="#hd"/>
<path d="M380.00 79.00v-21.00" class="stroke"/>
<use x="418.90" y="82.00" xlink:href="#hd"/>
<path d="M422.40 82.00v-21.00" class="stroke"/>
<defs>
<path id="Hd" class="fill" d="m3 -1.6
	c-1 -1.8 -7 1.4 -6 3.2
	1 1.8 7 -1.4 6 -3.2
	m0.5 -0.3
	c2 3.8 -5 7.6 -7 3.8
	-2 -3.8 5 -7.6 7 -3.8"/>
</defs>
<use x="441.80" y="79.00" xlink:href="#Hd"/>
<circle class="fill" cx="450.50" cy="76.00" r="1.2"/>
<path d="M445.30 79.00v-21.00" class="stroke"/>
<use x="495.00" y="79.00" xlink:href="#hd"/>
<path d="M498.50 79.00v-21.00" class="stroke"/>
<use x="517.80" y="79.00" xlink:href="#hd"/>
<path d="M521.30 79.00v-21.00" class="stroke"/>
<use x="541.10" y="67.00" xlink:href="#hd"/>
<path d="M537.60 67.00v21.00" class="stroke"/>
<use x="563.90" y="73.00" xlink:href="#hd"/>
<path d="M560.40 73.00v21.00" class="stroke"/>
<use x="606.30" y="79.00" xlink:href="#hd"/>
<path d="M609.80 79.00v-21.00" class="stroke"/>
<use x="629.10" y="82.00" xlink:href="#hd"/>
<circle class="fill" cx="636.80" cy="82.00" r="1.2"/>
<path d="M632.60 82.00v-21.00" class="stroke"/>
<use x="656.50" y="79.00" xlink:href="#hd"/>
<path d="M660.00 79.00v-21.00" class="stroke"/>
<path class="fill"
	d="M660.00 58.00c0.6 5.6 9.6 9 5.6 18.4
	1.6 -6 -1.3 -11.6 -5.6 -12.8
"/>
<use x="674.20" y="76.00" xlink:href="#hd"/>
<path d="M677.70 76.00v-21.00" class="stroke"/>
<defs>
<path id="ubclef" class="fill" d="m-200 -87
	c124 -35 222 -78 254 -236
	43 -228 -167 -246 -192 -103
	59 -80 157 22 92 78
	-62 47 -115 -22 -106 -88
	21 -141 270 -136 274 52
	-1 175 -106 264 -322 297
	m357 -250
	c0 -36 51 -34 51 0
	0 37 -51 36 -51 0
	m-2 -129
	c0 -36 51 -34 51 0
	0 38 -51 37 -51 0"/>
<use id="bclef" transform="translate(0,18) scale(0.045)"
	xlink:href="#ubclef"/>
</defs>
<use x="22.00" y="125.00" xlink:href="#bclef"/>
<use x="37.00" y="125.00" xlink:href="#sh0"/>
<g style="font:bold 16px serif"
	transform="translate(53.00,142.50) scale(1.2,1)">
	<text text-anchor="middle">4</text>
	<text y="-12" text-anchor="middle">4</text>
</g>
<defs>
<path id="hl1" class="stroke" d="m-7 0h14"/>
</defs>
<use x="87.50" y="149.00" xlink:href="#hl1"/>
<use x="87.50" y="155.00" xlink:href="#hl1"/>
<use x="87.50" y="161.00" xlink:href="#hl1"/>
<defs>
<path id="HD" class="fill" d="m-2.7 -1.4
	c1.5 -2.8 6.9 0 5.3 2.7
	-1.5 2.8 -6.9 0 -5.3 -2.7
	m8.3 1.4
	c0 -1.5 -2.2 -3 -5.6 -3
	-3.4 0 -5.6 1.5 -5.6 3
	0 1.5 2.2 3 5.6 3
	3.4 0 5.6 -1.5 5.6 -3"/>
</defs>
<use x="87.50" y="164.00" xlink:href="#HD"/>
<use x="87.50" y="143.00" xlink:href="#HD"/>
<use x="87.50" y="137.00" xlink:href="#HD"/>
<use x="87.50" y="131.00" xlink:href="#HD"/>
<use x="198.80" y="149.00" xlink:href="#hl1"/>
<use x="198.80" y="152.00" xlink:href="#HD"/>
<use x="198.80" y="131.00" xlink:href="#HD"/>
<use x="198.80" y="125.00" xlink:href="#HD"/>
<use x="198.80" y="119.00" xlink:href="#HD"/>
<use x="309.10" y="149.00" xlink:href="#hl1"/>
<use x="309.10" y="155.00" xlink:href="#hl1"/>
<use x="309.10" y="161.00" xlink:href="#hl1"/>
<use x="309.10" y="164.00" xlink:href="#HD"/>
<use x="309.10" y="143.00" xlink:href="#HD"/>
<use x="309.10" y="137.00" xlink:href="#HD"/>
<use x="309.10" y="131.00" xlink:href="#HD"/>
<use x="419.90" y="149.00" xlink:href="#hl1"/>
<use x="419.90" y="155.00" xlink:href="#hl1"/>
<use x="419.90" y="161.00" xlink:href="#hl1"/>
<use x="419.90" y="164.00" xlink:href="#HD"/>
<use x="419.90" y="143.00" xlink:href="#HD"/>
<use x="419.90" y="137.00" xlink:href="#HD"/>
<use x="419.90" y="131.00" xlink:href="#HD"/>
<use x="496.00" y="149.00" xlink:href="#hl1"/>
<use x="496.00" y="155.00" xlink:href="#hl1"/>
<use x="496.00" y="161.00" xlink:href="#hl1"/>
<use x="496.00" y="164.00" xlink:href="#HD"/>
<use x="496.00" y="143.00" xlink:href="#HD"/>
<use x="496.00" y="137.00" xlink:href="#HD"/>
<use x="496.00" y="131.00" xlink:href="#HD"/>
<use x="607.30" y="149.00" xlink:href="#hl1"/>
<use x="607.30" y="152.00" xlink:href="#HD"/>
<use x="607.30" y="131.00" xlink:href="#HD"/>
<use x="607.30" y="125.00" xlink:href="#HD"/>
<use x="607.30" y="119.00" xlink:href="#HD"/>
<defs>
<path id="ltr" class="fill"
    d="m0 -0.4c2 -1.5 3.4 -1.9 3.9 0.4
	c0.2 0.8 0.7 0.7 2.1 -0.4
	v0.8c-2 1.5 -3.4 1.9 -3.9 -0.4
	c-0.2 -0.8 -0.7 -0.7 -2.1 0.4z"/>
</defs>
<g transform="rotate(270)">
<use x="-167.00" y="74.00" xlink:href="#ltr"/>
<use x="-161.00" y="74.00" xlink:href="#ltr"/>
<use x="-155.00" y="74.00" xlink:href="#ltr"/>
<use x="-149.00" y="74.00" xlink:href="#ltr"/>
<use x="-143.00" y="74.00" xlink:href="#ltr"/>
<use x="-137.00" y="74.00" xlink:href="#ltr"/>
<use x="-131.00" y="74.00" xlink:href="#ltr"/>
</g>
<g transform="rotate(270)">
<use x="-155.00" y="185.30" xlink:href="#ltr"/>
<use x="-149.00" y="185.30" xlink:href="#ltr"/>
<use x="-143.00" y="185.30" xlink:href="#ltr"/>
<use x="-137.00" y="185.30" xlink:href="#ltr"/>
<use x="-131.00" y="185.30" xlink:href="#ltr"/>
<use x="-125.00" y="185.30" xlink:href="#ltr"/>
<use x="-119.00" y="185.30" xlink:href="#ltr"/>
</g>
<g transform="rotate(270)">
<use x="-167.00" y="295.60" xlink:href="#ltr"/>
<use x="-161.00" y="295.60" xlink:href="#ltr"/>
<use x="-155.00" y="295.60" xlink:href="#ltr"/>
<use x="-149.00" y="295.60" xlink:href="#ltr"/>
<use x="-143.00" y="295.60" xlink:href="#ltr"/>
<use x="-137.00" y="295.60" xlink:href="#ltr"/>
<use x="-131.00" y="295.60" xlink:href="#ltr"/>
</g>
<g transform="rotate(270)">
<use x="-167.00" y="406.40" xlink:href="#ltr"/>
<use x="-161.00" y="406.40" xlink:href="#ltr"/>
<use x="-155.00" y="406.40" xlink:href="#ltr"/>
<use x="-149.00" y="406.40" xlink:href="#ltr"/>
<use x="-143.00" y="406.40" xlink:href="#ltr"/>
<use x="-137.00" y="406.40" xlink:href="#ltr"/>
<use x="-131.00" y="406.40" xlink:href="#ltr"/>
</g>
<g transform="rotate(270)">
<use x="-167.00" y="482.50" xlink:href="#ltr"/>
<use x="-161.00" y="482.50" xlink:href="#ltr"/>
<use x="-155.00" y="482.50" xlink:href="#ltr"/>
<use x="-149.00" y="482.50" xlink:href="#ltr"/>
<use x="-143.00" y="482.50" xlink:href="#ltr"/>
<use x="-137.00" y="482.50" xlink:href="#ltr"/>
<use x="-131.00" y="482.50" xlink:href="#ltr"/>
</g>
<g transform="rotate(270)">
<use x="-155.00" y="593.80" xlink:href="#ltr"/>
<use x="-149.00" y="593.80" xlink:href="#ltr"/>
<use x="-143.00" y="593.80" xlink:href="#ltr"/>
<use x="-137.00" y="593.80" xlink:href="#ltr"/>
<use x="-131.00" y="593.80" xlink:href="#ltr"/>
<use x="-125.00" y="593.80" xlink:href="#ltr"/>
<use x="-119.00" y="593.80" xlink:href="#ltr"/>
</g>
</g>
<g stroke-width="0.70" style="font:bold 13.00px Times">
<path class="stroke" stroke-width="1"
	d="M10.00 277.40v-82.00"/>
<g transform="translate(10.00,195.40) scale(1,0.82)">
	<use xlink:href="#brace"/>
</g>
<path class="stroke" stroke-width="1"
	d="M166.80 219.40v-24.00"/>
<path class="stroke" stroke-width="1"
	d="M166.80 277.40v-24.00"/>
<path class="stroke" stroke-width="1"
	d="M248.10 219.40v-24.00"/>
<path class="stroke" stroke-width="1"
	d="M248.10 277.40v-24.00"/>
<path class="stroke" stroke-width="1"
	d="M383.20 219.40v-24.00"/>
<path class="stroke" stroke-width="1"
	d="M383.20 277.40v-24.00"/>
<path class="stroke" stroke-width="1"
	d="M492.00 219.40v-24.00"/>
<path class="stroke" stroke-width="1"
	d="M492.00 277.40v-24.00"/>
<path class="stroke" stroke-width="1"
	d="M601.30 219.40v-24.00"/>
<path class="stroke" stroke-width="1"
	d="M601.30 277.40v-24.00"/>
<path class="stroke" stroke-width="1"
	d="M691.60 219.40v-24.00"/>
<path class="stroke" stroke-width="1"
	d="M691.60 277.40v-24.00"/>
<path d="m10.00 219.40
	h681.60
	M10.00 213.40
	h681.60
	M10.00 207.40
	h681.60
	M10.00 201.40
	h681.60
	M10.00 195.40
	h681.60
	" class="stroke"/>
<path d="m10.00 277.40
	h681.60
	M10.00 271.40
	h681.60
	M10.00 265.40
	h681.60
	M10.00 259.40
	h681.60
	M10.00 253.40
	h681.60
	" class="stroke"/>
</g>
<g stroke-width="0.70" style="font:bold 13.00px Times">
<text x="66.70" y="190.80">I<tspan
	 style="font:italic 11.00px Times">¹</tspan></text>
</g>
<g stroke-width="0.70" style="font:bold 13.00px Times">
<text x="190.00" y="188.80">I</text>
</g>
<g stroke-width="0.70" style="font:bold 13.00px Times">
<text x="271.20" y="179.80">I</text>
</g>
<g stroke-width="0.70" style="font:bold 13.00px Times">
<text x="391.40" y="190.80">vi</text>
</g>
<g stroke-width="0.70" style="font:bold 13.00px Times">
<text x="499.20" y="188.80">IV</text>
</g>
<g stroke-width="0.70" style="font:bold 13.00px Times">
<text x="609.50" y="185.80">vi</text>
<use x="22.00" y="213.40" xlink:href="#tclef"/>
<use x="37.00" y="195.40" xlink:href="#sh0"/>
<use x="70.50" y="222.40" xlink:href="#hd"/>
<path d="M74.00 222.40v-21.00" class="stroke"/>
<use x="96.30" y="219.40" xlink:href="#hd"/>
<path d="M99.80 219.40v-21.00" class="stroke"/>
<use x="122.10" y="213.40" xlink:href="#hd"/>
<path d="M125.60 213.40v-21.00" class="stroke"/>
<use x="148.00" y="213.40" xlink:href="#hd"/>
<path d="M151.50 213.40v-21.00" class="stroke"/>
<use x="191.80" y="216.40" xlink:href="#hd"/>
<path d="M195.30 216.40v-21.00" class="stroke"/>
<use x="217.70" y="213.40" xlink:href="#Hd"/>
<circle class="fill" cx="226.40" cy="210.40" r="1.2"/>
<path d="M221.20 213.40v-21.00" class="stroke"/>
<use x="273.10" y="207.40" xlink:href="#hd"/>
<path d="M276.60 207.40v-21.00" class="stroke"/>
<use x="298.90" y="213.40" xlink:href="#hd"/>
<path d="M302.40 213.40v-21.00" class="stroke"/>
<use x="325.00" y="201.40" xlink:href="#hd"/>
<path d="M321.50 201.40v21.00" class="stroke"/>
<use x="350.80" y="201.40" xlink:href="#hd"/>
<path d="M347.30 201.40v21.00" class="stroke"/>
<path class="fill"
	d="M347.30 222.40c0.6 -5.6 9.6 -9 5.6 -18.4
	1.6 6 -1.3 11.6 -5.6 12.8
"/>
<use x="369.40" y="204.40" xlink:href="#hd"/>
<path d="M365.90 204.40v21.00" class="stroke"/>
<path class="fill"
	d="M365.90 225.40c0.6 -5.6 9.6 -9 5.6 -18.4
	1.6 6 -1.3 11.6 -5.6 12.8
"/>
<use x="395.70" y="207.40" xlink:href="#hd"/>
<path d="M392.20 207.40v21.00" class="stroke"/>
<use x="421.50" y="210.40" xlink:href="#Hd"/>
<path d="M425.00 210.40v-21.00" class="stroke"/>
<use x="473.20" y="210.40" xlink:href="#hd"/>
<path d="M476.70 210.40v-21.00" class="stroke"/>
<use x="505.00" y="204.40" xlink:href="#hd"/>
<path d="M501.50 204.40v21.00" class="stroke"/>
<use x="530.80" y="207.40" xlink:href="#hd"/>
<path d="M527.30 207.40v21.00" class="stroke"/>
<use x="556.60" y="210.40" xlink:href="#hd"/>
<path d="M560.10 210.40v-21.00" class="stroke"/>
<use x="582.50" y="207.40" xlink:href="#hd"/>
<path d="M586.00 207.40v-21.00" class="stroke"/>
<use x="613.80" y="213.40" xlink:href="#hd"/>
<path d="M617.30 213.40v-21.00" class="stroke"/>
<use x="639.70" y="210.40" xlink:href="#Hd"/>
<circle class="fill" cx="648.40" cy="210.40" r="1.2"/>
<path d="M643.20 210.40v-21.00" class="stroke"/>
<use x="22.00" y="259.40" xlink:href="#bclef"/>
<use x="37.00" y="259.40" xlink:href="#sh0"/>
<use x="71.50" y="283.40" xlink:href="#hl1"/>
<use x="71.50" y="289.40" xlink:href="#hl1"/>
<use x="71.50" y="295.40" xlink:href="#hl1"/>
<use x="71.50" y="298.40" xlink:href="#HD"/>
<use x="71.50" y="277.40" xlink:href="#HD"/>
<use x="71.50" y="271.40" xlink:href="#HD"/>
<use x="71.50" y="265.40" xlink:href="#HD"/>
<use x="192.80" y="283.40" xlink:href="#hl1"/>
<use x="192.80" y="289.40" xlink:href="#hl1"/>
<use x="192.80" y="295.40" xlink:href="#hl1"/>
<use x="192.80" y="298.40" xlink:href="#HD"/>
<use x="192.80" y="277.40" xlink:href="#HD"/>
<use x="192.80" y="271.40" xlink:href="#HD"/>
<use x="192.80" y="265.40" xlink:href="#HD"/>
<use x="274.10" y="283.40" xlink:href="#hl1"/>
<use x="274.10" y="289.40" xlink:href="#hl1"/>
<use x="274.10" y="295.40" xlink:href="#hl1"/>
<use x="274.10" y="298.40" xlink:href="#HD"/>
<use x="274.10" y="277.40" xlink:href="#HD"/>
<use x="274.10" y="271.40" xlink:href="#HD"/>
<use x="274.10" y="265.40" xlink:href="#HD"/>
<use x="395.70" y="262.40" xlink:href="#hd"/>
<path d="M392.20 262.40v21.00" class="stroke"/>
<use x="421.50" y="256.40" xlink:href="#hd"/>
<path d="M418.00 256.40v21.00" class="stroke"/>
<use x="447.40" y="250.40" xlink:href="#hd"/>
<path d="M443.90 250.40v21.00" class="stroke"/>
<use x="473.20" y="256.40" xlink:href="#hd"/>
<path d="M469.70 256.40v21.00" class="stroke"/>
<use x="505.00" y="256.40" xlink:href="#Hd"/>
<path d="M501.50 256.40v31.00" class="stroke"/>
<use x="505.00" y="268.40" xlink:href="#Hd"/>
<use x="505.00" y="262.40" xlink:href="#Hd"/>
<use x="556.60" y="262.40" xlink:href="#hd"/>
<path d="M553.10 262.40v21.00" class="stroke"/>
<use x="582.50" y="256.40" xlink:href="#hd"/>
<path d="M579.00 256.40v21.00" class="stroke"/>
<use x="613.80" y="262.40" xlink:href="#hd"/>
<path d="M610.30 262.40v21.00" class="stroke"/>
<use x="639.70" y="256.40" xlink:href="#hd"/>
<path d="M636.20 256.40v21.00" class="stroke"/>
<use x="665.50" y="250.40" xlink:href="#Hd"/>
<path d="M662.00 250.40v21.00" class="stroke"/>
<g transform="rotate(270)">
<use x="-301.40" y="58.00" xlink:href="#ltr"/>
<use x="-295.40" y="58.00" xlink:href="#ltr"/>
<use x="-289.40" y="58.00" xlink:href="#ltr"/>
<use x="-283.40" y="58.00" xlink:href="#ltr"/>
<use x="-277.40" y="58.00" xlink:href="#ltr"/>
<use x="-271.40" y="58.00" xlink:href="#ltr"/>
<use x="-265.40" y="58.00" xlink:href="#ltr"/>
</g>
<g transform="rotate(270)">
<use x="-301.40" y="179.30" xlink:href="#ltr"/>
<use x="-295.40" y="179.30" xlink:href="#ltr"/>
<use x="-289.40" y="179.30" xlink:href="#ltr"/>
<use x="-283.40" y="179.30" xlink:href="#ltr"/>
<use x="-277.40" y="179.30" xlink:href="#ltr"/>
<use x="-271.40" y="179.30" xlink:href="#ltr"/>
<use x="-265.40" y="179.30" xlink:href="#ltr"/>
</g>
<g transform="rotate(270)">
<use x="-301.40" y="260.60" xlink:href="#ltr"/>
<use x="-295.40" y="260.60" xlink:href="#ltr"/>
<use x="-289.40" y="260.60" xlink:href="#ltr"/>
<use x="-283.40" y="260.60" xlink:href="#ltr"/>
<use x="-277.40" y="260.60" xlink:href="#ltr"/>
<use x="-271.40" y="260.60" xlink:href="#ltr"/>
<use x="-265.40" y="260.60" xlink:href="#ltr"/>
</g>
</g>
<g stroke-width="0.70" style="font:bold 13.00px Times">
<path class="stroke" stroke-width="1"
	d="M10.00 409.40v-82.00"/>
<g transform="translate(10.00,327.40) scale(1,0.82)">
	<use xlink:href="#brace"/>
</g>
<path class="stroke" stroke-width="1"
	d="M224.70 351.40v-24.00"/>
<path class="stroke" stroke-width="1"
	d="M224.70 409.40v-24.00"/>
<path class="stroke" stroke-width="1"
	d="M401.70 351.40v-24.00"/>
<path class="stroke" stroke-width="1"
	d="M401.70 409.40v-24.00"/>
<path class="stroke" stroke-width="1"
	d="M575.30 351.40v-24.00"/>
<path class="stroke" stroke-width="1"
	d="M575.30 409.40v-24.00"/>
<path class="stroke" stroke-width="1"
	d="M691.60 351.40v-24.00"/>
<path class="stroke" stroke-width="1"
	d="M691.60 409.40v-24.00"/>
<path d="m10.00 351.40
	h681.60
	M10.00 345.40
	h681.60
	M10.00 339.40
	h681.60
	M10.00 333.40
	h681.60
	M10.00 327.40
	h681.60
	" class="stroke"/>
<path d="m10.00 409.40
	h681.60
	M10.00 403.40
	h681.60
	M10.00 397.40
	h681.60
	M10.00 391.40
	h681.60
	M10.00 385.40
	h681.60
	" class="stroke"/>
</g>
<g stroke-width="0.70" style="font:bold 13.00px Times">
<text x="66.70" y="322.80">I<tspan
	 style="font:italic 11.00px Times">¹</tspan></text>
</g>
<g stroke-width="0.70" style="font:bold 13.00px Times">
<text x="245.90" y="317.80">V</text>
</g>
<g stroke-width="0.70" style="font:bold 13.00px Times">
<text x="413.10" y="322.80">I<tspan
	 style="font:italic 11.00px Times">¹</tspan></text>
</g>
<g stroke-width="0.70" style="font:bold 13.00px Times">
<text x="598.70" y="318.80">I</text>
<use x="22.00" y="345.40" xlink:href="#tclef"/>
<use x="37.00" y="327.40" xlink:href="#sh0"/>
<use x="70.50" y="333.40" xlink:href="#hd"/>
<path d="M67.00 333.40v21.00" class="stroke"/>
<use x="113.30" y="336.40" xlink:href="#hd"/>
<path d="M109.80 336.40v21.00" class="stroke"/>
<use x="156.20" y="339.40" xlink:href="#hd"/>
<path d="M152.70 339.40v21.00" class="stroke"/>
<use x="194.70" y="342.40" xlink:href="#hd"/>
<path d="M198.20 342.40v-21.00" class="stroke"/>
<use x="249.90" y="345.40" xlink:href="#hd"/>
<path d="M253.40 345.40v-21.00" class="stroke"/>
<use x="292.70" y="348.40" xlink:href="#hd"/>
<circle class="fill" cx="300.40" cy="348.40" r="1.2"/>
<path d="M296.20 348.40v-21.00" class="stroke"/>
<use x="341.40" y="345.40" xlink:href="#hd"/>
<path d="M344.90 345.40v-21.00" class="stroke"/>
<path class="fill"
	d="M344.90 324.40c0.6 5.6 9.6 9 5.6 18.4
	1.6 -6 -1.3 -11.6 -5.6 -12.8
"/>
<use x="371.70" y="342.40" xlink:href="#hd"/>
<path d="M375.20 342.40v-21.00" class="stroke"/>
<use x="416.90" y="354.40" xlink:href="#hd"/>
<path d="M420.40 354.40v-21.00" class="stroke"/>
<use x="459.70" y="351.40" xlink:href="#hd"/>
<path d="M463.20 351.40v-21.00" class="stroke"/>
<use x="502.50" y="345.40" xlink:href="#hd"/>
<path d="M506.00 345.40v-21.00" class="stroke"/>
<use x="545.40" y="345.40" xlink:href="#hd"/>
<path d="M548.90 345.40v-21.00" class="stroke"/>
<use x="600.50" y="327.40" xlink:href="#hd"/>
<path d="M597.00 327.40v40.00" class="stroke"/>
<use x="600.50" y="348.40" xlink:href="#hd"/>
<use x="643.30" y="324.40" xlink:href="#Hd"/>
<circle class="fill" cx="652.00" cy="324.40" r="1.2"/>
<path d="M639.80 324.40v40.00" class="stroke"/>
<use x="643.30" y="345.40" xlink:href="#Hd"/>
<circle class="fill" cx="652.00" cy="342.40" r="1.2"/>
<use x="22.00" y="391.40" xlink:href="#bclef"/>
<use x="37.00" y="391.40" xlink:href="#sh0"/>
<use x="71.50" y="415.40" xlink:href="#hl1"/>
<use x="71.50" y="421.40" xlink:href="#hl1"/>
<use x="71.50" y="427.40" xlink:href="#hl1"/>
<use x="71.50" y="430.40" xlink:href="#HD"/>
<use x="71.50" y="409.40" xlink:href="#HD"/>
<use x="71.50" y="403.40" xlink:href="#HD"/>
<use x="71.50" y="397.40" xlink:href="#HD"/>
<use x="250.90" y="415.40" xlink:href="#hl1"/>
<use x="250.90" y="418.40" xlink:href="#HD"/>
<use x="250.90" y="397.40" xlink:href="#HD"/>
<use x="250.90" y="391.40" xlink:href="#HD"/>
<use x="250.90" y="385.40" xlink:href="#HD"/>
<use x="416.90" y="409.40" xlink:href="#hd"/>
<path d="M420.40 409.40v-21.00" class="stroke"/>
<use x="459.70" y="403.40" xlink:href="#hd"/>
<path d="M463.20 403.40v-21.00" class="stroke"/>
<use x="502.50" y="397.40" xlink:href="#Hd"/>
<path d="M506.00 397.40v-21.00" class="stroke"/>
<use x="601.50" y="415.40" xlink:href="#hl1"/>
<use x="601.50" y="421.40" xlink:href="#hl1"/>
<use x="601.50" y="427.40" xlink:href="#hl1"/>
<use x="601.50" y="430.40" xlink:href="#HD"/>
<use x="601.50" y="409.40" xlink:href="#HD"/>
<use x="601.50" y="403.40" xlink:href="#HD"/>
<use x="601.50" y="397.40" xlink:href="#HD"/>
<g transform="rotate(270)">
<use x="-433.40" y="58.00" xlink:href="#ltr"/>
<use x="-427.40" y="58.00" xlink:href="#ltr"/>
<use x="-421.40" y="58.00" xlink:href="#ltr"/>
<use x="-415.40" y="58.00" xlink:href="#ltr"/>
<use x="-409.40" y="58.00" xlink:href="#ltr"/>
<use x="-403.40" y="58.00" xlink:href="#ltr"/>
<use x="-397.40" y="58.00" xlink:href="#ltr"/>
</g>
<g transform="rotate(270)">
<use x="-421.40" y="237.40" xlink:href="#ltr"/>
<use x="-415.40" y="237.40" xlink:href="#ltr"/>
<use x="-409.40" y="237.40" xlink:href="#ltr"/>
<use x="-403.40" y="237.40" xlink:href="#ltr"/>
<use x="-397.40" y="237.40" xlink:href="#ltr"/>
<use x="-391.40" y="237.40" xlink:href="#ltr"/>
<use x="-385.40" y="237.40" xlink:href="#ltr"/>
</g>
<g transform="rotate(270)">
<use x="-433.40" y="588.00" xlink:href="#ltr"/>
<use x="-427.40" y="588.00" xlink:href="#ltr"/>
<use x="-421.40" y="588.00" xlink:href="#ltr"/>
<use x="-415.40" y="588.00" xlink:href="#ltr"/>
<use x="-409.40" y="588.00" xlink:href="#ltr"/>
<use x="-403.40" y="588.00" xlink:href="#ltr"/>
<use x="-397.40" y="588.00" xlink:href="#ltr"/>
</g>
</g>
</svg>
