<?xml version="1.0" standalone="no"?>
<!DOCTYPE svg PUBLIC "-//W3C//DTD SVG 1.1//EN"
	"http://www.w3.org/Graphics/SVG/1.1/DTD/svg11.dtd">
<svg xmlns="http://www.w3.org/2000/svg" version="1.1"
	xmlns:xlink="http://www.w3.org/1999/xlink"
	color="black"
	width="701.60px" height="443.20px" viewBox="0 0 701.60 443.20" preserveAspectRatio="xMidYMid meet">
<style type="text/css">
.fill {fill: currentColor}
.stroke {stroke: currentColor; fill: none}
text{white-space: pre}
</style>
<title>/tmp/retab_hymnal_L7/songs_of_thankfulness_and_praise.abc (1) tune 1</title>
<!-- Creator: abcm2ps-8.14.11 -->
<!-- CreationDate: Apr 24, 2026 15:39 -->
<!-- CommandLine: /tmp/retab_hymnal_L7/songs_of_thankfulness_and_praise.abc -g -O /tmp/retab_hymnal_L7/songs_of_thankfulness_and_praise -->
<g stroke-width="0.70">
<!-- title: 219. Songs of Thankfulness and Praise -->
</g>
<g stroke-width="0.70" style="font:20.00px Times">
<text x="350.80" y="22.00" text-anchor="middle">219. Songs of Thankfulness and Praise</text>
</g>
<g stroke-width="0.70" style="font:20.00px Times">
<path class="stroke" stroke-width="1"
	d="M10.00 145.40v-82.00"/>
<defs>
<path id="brace" class="fill" d="m-2.5 101
	c-4.5 -4.6 -7.5 -12.2 -4.4 -26.8
	3.5 -14.3 3.2 -21.7 -2.1 -24.2
	7.4 2.4 7.3 14.2 3.5 29.5
	-2.7 9.5 -1.5 16.2 3 21.5
	M-2.5 1c-4.5 4.6 -7.5 12.2 -4.4 26.8
	c3.5 14.3 3.2 21.7 -2.1 24.2
	7.4 -2.4 7.3 -14.2 3.5 -29.5
	-2.7 -9.5 -1.5 -16.2 3 -21.5"/>
</defs>
<g transform="translate(10.00,63.40) scale(1,0.82)">
	<use xlink:href="#brace"/>
</g>
<path class="stroke" stroke-width="1"
	d="M192.30 87.40v-24.00"/>
<path class="stroke" stroke-width="1"
	d="M192.30 145.40v-24.00"/>
<path class="stroke" stroke-width="1"
	d="M314.70 87.40v-24.00"/>
<path class="stroke" stroke-width="1"
	d="M314.70 145.40v-24.00"/>
<path class="stroke" stroke-width="1"
	d="M434.00 87.40v-24.00"/>
<path class="stroke" stroke-width="1"
	d="M434.00 145.40v-24.00"/>
<path class="stroke" stroke-width="1"
	d="M556.30 87.40v-24.00"/>
<path class="stroke" stroke-width="1"
	d="M556.30 145.40v-24.00"/>
<path class="stroke" stroke-width="1"
	d="M691.60 87.40v-24.00"/>
<path class="stroke" stroke-width="1"
	d="M691.60 145.40v-24.00"/>
<path d="m10.00 87.40
	h681.60
	M10.00 81.40
	h681.60
	M10.00 75.40
	h681.60
	M10.00 69.40
	h681.60
	M10.00 63.40
	h681.60
	" class="stroke"/>
<path d="m10.00 145.40
	h681.60
	M10.00 139.40
	h681.60
	M10.00 133.40
	h681.60
	M10.00 127.40
	h681.60
	M10.00 121.40
	h681.60
	" class="stroke"/>
</g>
<g stroke-width="0.70" style="font:bold 13.00px Times">
<text x="84.70" y="58.80">I</text>
</g>
<g stroke-width="0.70" style="font:bold 13.00px Times">
<text x="200.60" y="53.80">vi</text>
</g>
<g stroke-width="0.70" style="font:bold 13.00px Times">
<text x="325.80" y="47.80">I</text>
</g>
<g stroke-width="0.70" style="font:bold 13.00px Times">
<text x="442.20" y="53.80">vi</text>
</g>
<g stroke-width="0.70" style="font:bold 13.00px Times">
<text x="567.00" y="47.80">I</text>
<defs>
<path id="utclef" class="fill" d="m-50 -90
	c-72 -41 -72 -158 52 -188
	150 -10 220 188 90 256
	-114 52 -275 0 -293 -136
	-15 -181 93 -229 220 -334
	88 -87 79 -133 62 -210
	-51 33 -94 105 -89 186
	17 267 36 374 49 574
	6 96 -19 134 -77 135
	-80 1 -126 -93 -61 -133
	85 -41 133 101 31 105
	23 17 92 37 90 -92
	-10 -223 -39 -342 -50 -617
	0 -90 0 -162 96 -232
	56 72 63 230 22 289
	-74 106 -257 168 -255 316
	9 153 148 185 252 133
	86 -65 29 -192 -80 -176
	-71 12 -105 67 -59 124"/>
<use id="tclef" transform="translate(0,6) scale(0.045)"
	xlink:href="#utclef"/>
</defs>
<use x="22.00" y="81.40" xlink:href="#tclef"/>
<defs>
<path id="usharp" class="fill" d="
	m136 -702
	v890
	h32
	v-890
	m128 840
	h32
	v-888
	h-32
	m-232 286
	v116
	l338 -96
	v-116
	m-338 442
	v116
	l338 -98
	v-114"/>
<use id="sh0" transform="translate(-4,5) scale(0.018)"
	xlink:href="#usharp"/>
</defs>
<use x="37.00" y="63.40" xlink:href="#sh0"/>
<g style="font:bold 16px serif"
	transform="translate(53.00,86.90) scale(1.2,1)">
	<text text-anchor="middle">4</text>
	<text y="-12" text-anchor="middle">4</text>
</g>
<defs>
<ellipse id="hd" rx="4.1" ry="2.9"
	transform="rotate(-20)" class="fill"/>
</defs>
<use x="86.50" y="75.40" xlink:href="#hd"/>
<circle class="fill" cx="94.20" cy="72.40" r="1.2"/>
<path d="M83.00 75.40v21.00" class="stroke"/>
<use x="120.60" y="75.40" xlink:href="#hd"/>
<path d="M117.10 75.40v21.00" class="stroke"/>
<path class="fill"
	d="M117.10 96.40c0.6 -5.6 9.6 -9 5.6 -18.4
	1.6 6 -1.3 11.6 -5.6 12.8
"/>
<use x="141.70" y="69.40" xlink:href="#hd"/>
<path d="M138.20 69.40v21.00" class="stroke"/>
<use x="171.20" y="75.40" xlink:href="#hd"/>
<path d="M167.70 75.40v21.00" class="stroke"/>
<use x="204.80" y="81.40" xlink:href="#hd"/>
<path d="M208.30 81.40v-21.00" class="stroke"/>
<use x="234.40" y="78.40" xlink:href="#hd"/>
<path d="M237.90 78.40v-21.00" class="stroke"/>
<defs>
<path id="Hd" class="fill" d="m3 -1.6
	c-1 -1.8 -7 1.4 -6 3.2
	1 1.8 7 -1.4 6 -3.2
	m0.5 -0.3
	c2 3.8 -5 7.6 -7 3.8
	-2 -3.8 5 -7.6 7 -3.8"/>
</defs>
<use x="264.00" y="75.40" xlink:href="#Hd"/>
<path d="M267.50 75.40v-21.00" class="stroke"/>
<use x="327.70" y="75.40" xlink:href="#hd"/>
<circle class="fill" cx="335.40" cy="72.40" r="1.2"/>
<path d="M331.20 75.40v-21.00" class="stroke"/>
<use x="361.70" y="75.40" xlink:href="#hd"/>
<path d="M365.20 75.40v-21.00" class="stroke"/>
<path class="fill"
	d="M365.20 54.40c0.6 5.6 9.6 9 5.6 18.4
	1.6 -6 -1.3 -11.6 -5.6 -12.8
"/>
<use x="383.30" y="69.40" xlink:href="#hd"/>
<path d="M379.80 69.40v21.00" class="stroke"/>
<use x="412.90" y="75.40" xlink:href="#hd"/>
<path d="M409.40 75.40v21.00" class="stroke"/>
<use x="446.50" y="81.40" xlink:href="#hd"/>
<path d="M450.00 81.40v-21.00" class="stroke"/>
<use x="476.00" y="78.40" xlink:href="#hd"/>
<path d="M479.50 78.40v-21.00" class="stroke"/>
<use x="505.60" y="75.40" xlink:href="#Hd"/>
<path d="M509.10 75.40v-21.00" class="stroke"/>
<use x="568.80" y="75.40" xlink:href="#hd"/>
<circle class="fill" cx="576.50" cy="72.40" r="1.2"/>
<path d="M572.30 75.40v-21.00" class="stroke"/>
<use x="619.40" y="75.40" xlink:href="#hd"/>
<path d="M622.90 75.40v-21.00" class="stroke"/>
<path class="fill"
	d="M622.90 54.40c0.6 5.6 9.6 9 5.6 18.4
	1.6 -6 -1.3 -11.6 -5.6 -12.8
"/>
<use x="640.90" y="72.40" xlink:href="#hd"/>
<path d="M637.40 72.40v21.00" class="stroke"/>
<use x="670.50" y="72.40" xlink:href="#hd"/>
<path d="M667.00 72.40v21.00" class="stroke"/>
<defs>
<path id="ubclef" class="fill" d="m-200 -87
	c124 -35 222 -78 254 -236
	43 -228 -167 -246 -192 -103
	59 -80 157 22 92 78
	-62 47 -115 -22 -106 -88
	21 -141 270 -136 274 52
	-1 175 -106 264 -322 297
	m357 -250
	c0 -36 51 -34 51 0
	0 37 -51 36 -51 0
	m-2 -129
	c0 -36 51 -34 51 0
	0 38 -51 37 -51 0"/>
<use id="bclef" transform="translate(0,18) scale(0.045)"
	xlink:href="#ubclef"/>
</defs>
<use x="22.00" y="127.40" xlink:href="#bclef"/>
<use x="37.00" y="127.40" xlink:href="#sh0"/>
<g style="font:bold 16px serif"
	transform="translate(53.00,144.90) scale(1.2,1)">
	<text text-anchor="middle">4</text>
	<text y="-12" text-anchor="middle">4</text>
</g>
<defs>
<path id="hl1" class="stroke" d="m-7 0h14"/>
</defs>
<use x="87.50" y="151.40" xlink:href="#hl1"/>
<use x="87.50" y="157.40" xlink:href="#hl1"/>
<use x="87.50" y="163.40" xlink:href="#hl1"/>
<defs>
<path id="HD" class="fill" d="m-2.7 -1.4
	c1.5 -2.8 6.9 0 5.3 2.7
	-1.5 2.8 -6.9 0 -5.3 -2.7
	m8.3 1.4
	c0 -1.5 -2.2 -3 -5.6 -3
	-3.4 0 -5.6 1.5 -5.6 3
	0 1.5 2.2 3 5.6 3
	3.4 0 5.6 -1.5 5.6 -3"/>
</defs>
<use x="87.50" y="166.40" xlink:href="#HD"/>
<use x="87.50" y="145.40" xlink:href="#HD"/>
<use x="87.50" y="139.40" xlink:href="#HD"/>
<use x="87.50" y="133.40" xlink:href="#HD"/>
<use x="204.80" y="130.40" xlink:href="#hd"/>
<path d="M201.30 130.40v21.00" class="stroke"/>
<use x="234.40" y="124.40" xlink:href="#hd"/>
<path d="M230.90 124.40v21.00" class="stroke"/>
<use x="264.00" y="118.40" xlink:href="#hd"/>
<path d="M260.50 118.40v21.00" class="stroke"/>
<use x="293.50" y="124.40" xlink:href="#hd"/>
<path d="M290.00 124.40v21.00" class="stroke"/>
<use x="327.70" y="145.40" xlink:href="#Hd"/>
<path d="M331.20 145.40v-31.00" class="stroke"/>
<use x="327.70" y="139.40" xlink:href="#Hd"/>
<use x="327.70" y="133.40" xlink:href="#Hd"/>
<use x="383.30" y="145.40" xlink:href="#hd"/>
<path d="M386.80 145.40v-21.00" class="stroke"/>
<use x="412.90" y="139.40" xlink:href="#hd"/>
<path d="M416.40 139.40v-21.00" class="stroke"/>
<use x="446.50" y="130.40" xlink:href="#hd"/>
<path d="M443.00 130.40v21.00" class="stroke"/>
<use x="476.00" y="124.40" xlink:href="#hd"/>
<path d="M472.50 124.40v21.00" class="stroke"/>
<use x="505.60" y="118.40" xlink:href="#hd"/>
<path d="M502.10 118.40v21.00" class="stroke"/>
<use x="535.20" y="124.40" xlink:href="#hd"/>
<path d="M531.70 124.40v21.00" class="stroke"/>
<use x="568.80" y="133.40" xlink:href="#hd"/>
<path d="M565.30 133.40v21.00" class="stroke"/>
<use x="598.40" y="139.40" xlink:href="#hd"/>
<path d="M601.90 139.40v-21.00" class="stroke"/>
<use x="640.90" y="145.40" xlink:href="#Hd"/>
<path d="M644.40 145.40v-21.00" class="stroke"/>
<defs>
<path id="ltr" class="fill"
    d="m0 -0.4c2 -1.5 3.4 -1.9 3.9 0.4
	c0.2 0.8 0.7 0.7 2.1 -0.4
	v0.8c-2 1.5 -3.4 1.9 -3.9 -0.4
	c-0.2 -0.8 -0.7 -0.7 -2.1 0.4z"/>
</defs>
<g transform="rotate(270)">
<use x="-169.40" y="74.00" xlink:href="#ltr"/>
<use x="-163.40" y="74.00" xlink:href="#ltr"/>
<use x="-157.40" y="74.00" xlink:href="#ltr"/>
<use x="-151.40" y="74.00" xlink:href="#ltr"/>
<use x="-145.40" y="74.00" xlink:href="#ltr"/>
<use x="-139.40" y="74.00" xlink:href="#ltr"/>
<use x="-133.40" y="74.00" xlink:href="#ltr"/>
</g>
</g>
<g stroke-width="0.70" style="font:bold 13.00px Times">
<path class="stroke" stroke-width="1"
	d="M10.00 279.80v-82.00"/>
<g transform="translate(10.00,197.80) scale(1,0.82)">
	<use xlink:href="#brace"/>
</g>
<path class="stroke" stroke-width="1"
	d="M143.00 221.80v-24.00"/>
<path class="stroke" stroke-width="1"
	d="M143.00 279.80v-24.00"/>
<path class="stroke" stroke-width="1"
	d="M257.90 221.80v-24.00"/>
<path class="stroke" stroke-width="1"
	d="M257.90 279.80v-24.00"/>
<path class="stroke" stroke-width="1"
	d="M362.70 221.80v-24.00"/>
<path class="stroke" stroke-width="1"
	d="M362.70 279.80v-24.00"/>
<path class="stroke" stroke-width="1"
	d="M476.90 221.80v-24.00"/>
<path class="stroke" stroke-width="1"
	d="M476.90 279.80v-24.00"/>
<path class="stroke" stroke-width="1"
	d="M576.00 221.80v-24.00"/>
<path class="stroke" stroke-width="1"
	d="M576.00 279.80v-24.00"/>
<path class="stroke" stroke-width="1"
	d="M691.60 221.80v-24.00"/>
<path class="stroke" stroke-width="1"
	d="M691.60 279.80v-24.00"/>
<path d="m10.00 221.80
	h681.60
	M10.00 215.80
	h681.60
	M10.00 209.80
	h681.60
	M10.00 203.80
	h681.60
	M10.00 197.80
	h681.60
	" class="stroke"/>
<path d="m10.00 279.80
	h681.60
	M10.00 273.80
	h681.60
	M10.00 267.80
	h681.60
	M10.00 261.80
	h681.60
	M10.00 255.80
	h681.60
	" class="stroke"/>
</g>
<g stroke-width="0.70" style="font:bold 13.00px Times">
<text x="66.60" y="185.20">V</text>
</g>
<g stroke-width="0.70" style="font:bold 13.00px Times">
<text x="166.20" y="182.20">I</text>
</g>
<g stroke-width="0.70" style="font:bold 13.00px Times">
<text x="266.50" y="191.20">V</text>
</g>
<g stroke-width="0.70" style="font:bold 13.00px Times">
<text x="371.30" y="191.20">V</text>
</g>
<g stroke-width="0.70" style="font:bold 13.00px Times">
<text x="498.10" y="188.20">I<tspan
	 style="font:italic 11.00px Times">¹</tspan></text>
</g>
<g stroke-width="0.70" style="font:bold 13.00px Times">
<text x="599.20" y="182.20">I</text>
<use x="22.00" y="215.80" xlink:href="#tclef"/>
<use x="37.00" y="197.80" xlink:href="#sh0"/>
<use x="70.50" y="212.80" xlink:href="#hd"/>
<circle class="fill" cx="78.20" cy="212.80" r="1.2"/>
<path d="M74.00 212.80v-21.00" class="stroke"/>
<use x="99.40" y="212.80" xlink:href="#hd"/>
<path d="M102.90 212.80v-21.00" class="stroke"/>
<path class="fill"
	d="M102.90 191.80c0.6 5.6 9.6 9 5.6 18.4
	1.6 -6 -1.3 -11.6 -5.6 -12.8
"/>
<use x="118.00" y="209.80" xlink:href="#Hd"/>
<path d="M121.50 209.80v-21.00" class="stroke"/>
<use x="168.00" y="209.80" xlink:href="#hd"/>
<path d="M171.50 209.80v-21.00" class="stroke"/>
<use x="192.90" y="206.80" xlink:href="#hd"/>
<path d="M189.40 206.80v21.00" class="stroke"/>
<use x="217.50" y="203.80" xlink:href="#hd"/>
<path d="M214.00 203.80v21.00" class="stroke"/>
<use x="239.70" y="215.80" xlink:href="#hd"/>
<path d="M243.20 215.80v-21.00" class="stroke"/>
<use x="270.40" y="218.80" xlink:href="#hd"/>
<path d="M273.90 218.80v-21.00" class="stroke"/>
<use x="295.30" y="221.80" xlink:href="#hd"/>
<path d="M298.80 221.80v-21.00" class="stroke"/>
<use x="320.00" y="224.80" xlink:href="#Hd"/>
<path d="M323.50 224.80v-21.00" class="stroke"/>
<use x="375.20" y="218.80" xlink:href="#hd"/>
<circle class="fill" cx="382.90" cy="218.80" r="1.2"/>
<path d="M378.70 218.80v-21.00" class="stroke"/>
<use x="415.70" y="218.80" xlink:href="#hd"/>
<path d="M419.20 218.80v-21.00" class="stroke"/>
<path class="fill"
	d="M419.20 197.80c0.6 5.6 9.6 9 5.6 18.4
	1.6 -6 -1.3 -11.6 -5.6 -12.8
"/>
<use x="434.20" y="212.80" xlink:href="#hd"/>
<path d="M437.70 212.80v-21.00" class="stroke"/>
<use x="458.70" y="218.80" xlink:href="#hd"/>
<path d="M462.20 218.80v-21.00" class="stroke"/>
<use x="501.90" y="215.80" xlink:href="#hd"/>
<path d="M505.40 215.80v-21.00" class="stroke"/>
<use x="526.40" y="212.80" xlink:href="#hd"/>
<path d="M529.90 212.80v-21.00" class="stroke"/>
<use x="551.10" y="209.80" xlink:href="#Hd"/>
<path d="M554.60 209.80v-21.00" class="stroke"/>
<use x="601.00" y="209.80" xlink:href="#hd"/>
<circle class="fill" cx="608.70" cy="206.80" r="1.2"/>
<path d="M604.50 209.80v-21.00" class="stroke"/>
<use x="630.00" y="209.80" xlink:href="#hd"/>
<path d="M633.50 209.80v-21.00" class="stroke"/>
<path class="fill"
	d="M633.50 188.80c0.6 5.6 9.6 9 5.6 18.4
	1.6 -6 -1.3 -11.6 -5.6 -12.8
"/>
<use x="648.90" y="203.80" xlink:href="#hd"/>
<path d="M645.40 203.80v21.00" class="stroke"/>
<use x="673.40" y="209.80" xlink:href="#hd"/>
<path d="M669.90 209.80v21.00" class="stroke"/>
<use x="22.00" y="261.80" xlink:href="#bclef"/>
<use x="37.00" y="261.80" xlink:href="#sh0"/>
<use x="71.50" y="285.80" xlink:href="#hl1"/>
<use x="71.50" y="288.80" xlink:href="#HD"/>
<use x="71.50" y="267.80" xlink:href="#HD"/>
<use x="71.50" y="261.80" xlink:href="#HD"/>
<use x="71.50" y="255.80" xlink:href="#HD"/>
<use x="169.00" y="285.80" xlink:href="#hl1"/>
<use x="169.00" y="291.80" xlink:href="#hl1"/>
<use x="169.00" y="297.80" xlink:href="#hl1"/>
<use x="169.00" y="300.80" xlink:href="#HD"/>
<use x="169.00" y="279.80" xlink:href="#HD"/>
<use x="169.00" y="273.80" xlink:href="#HD"/>
<use x="169.00" y="267.80" xlink:href="#HD"/>
<use x="270.40" y="267.80" xlink:href="#hd"/>
<path d="M273.90 267.80v-21.00" class="stroke"/>
<use x="295.30" y="261.80" xlink:href="#hd"/>
<path d="M291.80 261.80v21.00" class="stroke"/>
<use x="320.00" y="255.80" xlink:href="#hd"/>
<path d="M316.50 255.80v21.00" class="stroke"/>
<use x="344.50" y="261.80" xlink:href="#hd"/>
<path d="M341.00 261.80v21.00" class="stroke"/>
<use x="375.20" y="267.80" xlink:href="#hd"/>
<path d="M371.70 267.80v21.00" class="stroke"/>
<use x="399.80" y="261.80" xlink:href="#hd"/>
<path d="M396.30 261.80v21.00" class="stroke"/>
<use x="434.20" y="255.80" xlink:href="#Hd"/>
<path d="M430.70 255.80v21.00" class="stroke"/>
<use x="502.90" y="285.80" xlink:href="#hl1"/>
<use x="502.90" y="291.80" xlink:href="#hl1"/>
<use x="502.90" y="297.80" xlink:href="#hl1"/>
<use x="502.90" y="300.80" xlink:href="#HD"/>
<use x="502.90" y="279.80" xlink:href="#HD"/>
<use x="502.90" y="273.80" xlink:href="#HD"/>
<use x="502.90" y="267.80" xlink:href="#HD"/>
<use x="602.00" y="285.80" xlink:href="#hl1"/>
<use x="602.00" y="291.80" xlink:href="#hl1"/>
<use x="602.00" y="297.80" xlink:href="#hl1"/>
<use x="602.00" y="300.80" xlink:href="#HD"/>
<use x="602.00" y="279.80" xlink:href="#HD"/>
<use x="602.00" y="273.80" xlink:href="#HD"/>
<use x="602.00" y="267.80" xlink:href="#HD"/>
<g transform="rotate(270)">
<use x="-291.80" y="58.00" xlink:href="#ltr"/>
<use x="-285.80" y="58.00" xlink:href="#ltr"/>
<use x="-279.80" y="58.00" xlink:href="#ltr"/>
<use x="-273.80" y="58.00" xlink:href="#ltr"/>
<use x="-267.80" y="58.00" xlink:href="#ltr"/>
<use x="-261.80" y="58.00" xlink:href="#ltr"/>
<use x="-255.80" y="58.00" xlink:href="#ltr"/>
</g>
<g transform="rotate(270)">
<use x="-303.80" y="155.50" xlink:href="#ltr"/>
<use x="-297.80" y="155.50" xlink:href="#ltr"/>
<use x="-291.80" y="155.50" xlink:href="#ltr"/>
<use x="-285.80" y="155.50" xlink:href="#ltr"/>
<use x="-279.80" y="155.50" xlink:href="#ltr"/>
<use x="-273.80" y="155.50" xlink:href="#ltr"/>
<use x="-267.80" y="155.50" xlink:href="#ltr"/>
</g>
<g transform="rotate(270)">
<use x="-303.80" y="489.40" xlink:href="#ltr"/>
<use x="-297.80" y="489.40" xlink:href="#ltr"/>
<use x="-291.80" y="489.40" xlink:href="#ltr"/>
<use x="-285.80" y="489.40" xlink:href="#ltr"/>
<use x="-279.80" y="489.40" xlink:href="#ltr"/>
<use x="-273.80" y="489.40" xlink:href="#ltr"/>
<use x="-267.80" y="489.40" xlink:href="#ltr"/>
</g>
<g transform="rotate(270)">
<use x="-303.80" y="588.50" xlink:href="#ltr"/>
<use x="-297.80" y="588.50" xlink:href="#ltr"/>
<use x="-291.80" y="588.50" xlink:href="#ltr"/>
<use x="-285.80" y="588.50" xlink:href="#ltr"/>
<use x="-279.80" y="588.50" xlink:href="#ltr"/>
<use x="-273.80" y="588.50" xlink:href="#ltr"/>
<use x="-267.80" y="588.50" xlink:href="#ltr"/>
</g>
</g>
<g stroke-width="0.70" style="font:bold 13.00px Times">
<path class="stroke" stroke-width="1"
	d="M10.00 416.20v-82.00"/>
<g transform="translate(10.00,334.20) scale(1,0.82)">
	<use xlink:href="#brace"/>
</g>
<path class="stroke" stroke-width="1"
	d="M173.50 358.20v-24.00"/>
<path class="stroke" stroke-width="1"
	d="M173.50 416.20v-24.00"/>
<path class="stroke" stroke-width="1"
	d="M314.60 358.20v-24.00"/>
<path class="stroke" stroke-width="1"
	d="M314.60 416.20v-24.00"/>
<path class="stroke" stroke-width="1"
	d="M430.80 358.20v-24.00"/>
<path class="stroke" stroke-width="1"
	d="M430.80 416.20v-24.00"/>
<path class="stroke" stroke-width="1"
	d="M570.90 358.20v-24.00"/>
<path class="stroke" stroke-width="1"
	d="M570.90 416.20v-24.00"/>
<path class="stroke" stroke-width="1"
	d="M691.60 358.20v-24.00"/>
<path class="stroke" stroke-width="1"
	d="M691.60 416.20v-24.00"/>
<path d="m10.00 358.20
	h681.60
	M10.00 352.20
	h681.60
	M10.00 346.20
	h681.60
	M10.00 340.20
	h681.60
	M10.00 334.20
	h681.60
	" class="stroke"/>
<path d="m10.00 416.20
	h681.60
	M10.00 410.20
	h681.60
	M10.00 404.20
	h681.60
	M10.00 398.20
	h681.60
	M10.00 392.20
	h681.60
	" class="stroke"/>
</g>
<g stroke-width="0.70" style="font:bold 13.00px Times">
<text x="47.30" y="329.60">IV<tspan
	 style="font:italic 11.00px Times">¹</tspan></text>
</g>
<g stroke-width="0.70" style="font:bold 13.00px Times">
<text x="179.80" y="327.60">vi<tspan
	 style="font:italic 11.00px Times">¹</tspan></text>
</g>
<g stroke-width="0.70" style="font:bold 13.00px Times">
<text x="333.70" y="329.60">V<tspan
	 style="font:italic 11.00px Times">¹</tspan></text>
</g>
<g stroke-width="0.70" style="font:bold 13.00px Times">
<text x="448.00" y="329.60">IV<tspan
	 style="font:italic 11.00px Times">¹</tspan></text>
</g>
<g stroke-width="0.70" style="font:bold 13.00px Times">
<text x="592.20" y="316.60">I<tspan
	 style="font:italic 11.00px Times">²</tspan></text>
</g>
<g stroke-width="0.70" style="font:italic 11.00px Times">
<use x="22.00" y="352.20" xlink:href="#tclef"/>
<use x="37.00" y="334.20" xlink:href="#sh0"/>
<use x="55.00" y="343.20" xlink:href="#hd"/>
<path d="M51.50 343.20v21.00" class="stroke"/>
<use x="87.00" y="340.20" xlink:href="#hd"/>
<path d="M83.50 340.20v21.00" class="stroke"/>
<use x="118.90" y="337.20" xlink:href="#Hd"/>
<path d="M115.40 337.20v21.00" class="stroke"/>
<use x="186.00" y="337.20" xlink:href="#hd"/>
<circle class="fill" cx="193.70" cy="337.20" r="1.2"/>
<path d="M182.50 337.20v21.00" class="stroke"/>
<use x="240.50" y="337.20" xlink:href="#hd"/>
<path d="M237.00 337.20v21.00" class="stroke"/>
<path class="fill"
	d="M237.00 358.20c0.6 -5.6 9.6 -9 5.6 -18.4
	1.6 6 -1.3 11.6 -5.6 12.8
"/>
<use x="263.20" y="343.20" xlink:href="#hd"/>
<path d="M259.70 343.20v21.00" class="stroke"/>
<use x="291.90" y="349.20" xlink:href="#hd"/>
<path d="M295.40 349.20v-21.00" class="stroke"/>
<use x="339.60" y="340.20" xlink:href="#hd"/>
<circle class="fill" cx="347.30" cy="337.20" r="1.2"/>
<path d="M336.10 340.20v21.00" class="stroke"/>
<use x="376.20" y="340.20" xlink:href="#hd"/>
<path d="M372.70 340.20v21.00" class="stroke"/>
<path class="fill"
	d="M372.70 361.20c0.6 -5.6 9.6 -9 5.6 -18.4
	1.6 6 -1.3 11.6 -5.6 12.8
"/>
<use x="399.00" y="346.20" xlink:href="#Hd"/>
<path d="M395.50 346.20v21.00" class="stroke"/>
<use x="455.80" y="343.20" xlink:href="#hd"/>
<path d="M452.30 343.20v21.00" class="stroke"/>
<use x="487.60" y="337.20" xlink:href="#hd"/>
<path d="M484.10 337.20v21.00" class="stroke"/>
<use x="519.50" y="340.20" xlink:href="#hd"/>
<path d="M516.00 340.20v21.00" class="stroke"/>
<use x="548.30" y="352.20" xlink:href="#hd"/>
<path d="M551.80 352.20v-21.00" class="stroke"/>
<defs>
<path id="hl" class="stroke" d="m-6 0h12"/>
</defs>
<use x="595.90" y="328.20" xlink:href="#hl"/>
<use x="595.90" y="325.20" xlink:href="#hd"/>
<path d="M592.40 325.20v40.00" class="stroke"/>
<use x="595.90" y="346.20" xlink:href="#hd"/>
<use x="627.90" y="328.20" xlink:href="#hl"/>
<use x="627.90" y="328.20" xlink:href="#hd"/>
<path d="M624.40 328.20v40.00" class="stroke"/>
<use x="627.90" y="349.20" xlink:href="#hd"/>
<use x="659.80" y="331.20" xlink:href="#Hd"/>
<path d="M656.30 331.20v40.00" class="stroke"/>
<use x="659.80" y="352.20" xlink:href="#Hd"/>
<use x="22.00" y="398.20" xlink:href="#bclef"/>
<use x="37.00" y="398.20" xlink:href="#sh0"/>
<use x="55.00" y="407.20" xlink:href="#hd"/>
<path d="M58.50 407.20v-21.00" class="stroke"/>
<use x="87.00" y="401.20" xlink:href="#hd"/>
<path d="M83.50 401.20v21.00" class="stroke"/>
<use x="118.90" y="395.20" xlink:href="#hd"/>
<path d="M115.40 395.20v21.00" class="stroke"/>
<use x="150.80" y="401.20" xlink:href="#hd"/>
<path d="M147.30 401.20v21.00" class="stroke"/>
<use x="186.00" y="389.20" xlink:href="#hd"/>
<path d="M182.50 389.20v21.00" class="stroke"/>
<use x="217.80" y="395.20" xlink:href="#hd"/>
<path d="M214.30 395.20v21.00" class="stroke"/>
<use x="263.20" y="401.20" xlink:href="#Hd"/>
<path d="M259.70 401.20v21.00" class="stroke"/>
<use x="340.60" y="422.20" xlink:href="#hl1"/>
<use x="340.60" y="425.20" xlink:href="#HD"/>
<use x="340.60" y="404.20" xlink:href="#HD"/>
<use x="340.60" y="398.20" xlink:href="#HD"/>
<use x="340.60" y="392.20" xlink:href="#HD"/>
<use x="456.80" y="422.20" xlink:href="#hl1"/>
<use x="456.80" y="428.20" xlink:href="#hl1"/>
<use x="456.80" y="428.20" xlink:href="#HD"/>
<use x="456.80" y="407.20" xlink:href="#HD"/>
<use x="456.80" y="401.20" xlink:href="#HD"/>
<use x="456.80" y="395.20" xlink:href="#HD"/>
<use x="596.90" y="422.20" xlink:href="#hl1"/>
<use x="596.90" y="428.20" xlink:href="#hl1"/>
<use x="596.90" y="434.20" xlink:href="#hl1"/>
<use x="596.90" y="437.20" xlink:href="#HD"/>
<use x="596.90" y="416.20" xlink:href="#HD"/>
<use x="596.90" y="410.20" xlink:href="#HD"/>
<use x="596.90" y="404.20" xlink:href="#HD"/>
<g transform="rotate(270)">
<use x="-428.20" y="327.10" xlink:href="#ltr"/>
<use x="-422.20" y="327.10" xlink:href="#ltr"/>
<use x="-416.20" y="327.10" xlink:href="#ltr"/>
<use x="-410.20" y="327.10" xlink:href="#ltr"/>
<use x="-404.20" y="327.10" xlink:href="#ltr"/>
<use x="-398.20" y="327.10" xlink:href="#ltr"/>
<use x="-392.20" y="327.10" xlink:href="#ltr"/>
</g>
<g transform="rotate(270)">
<use x="-431.20" y="443.30" xlink:href="#ltr"/>
<use x="-425.20" y="443.30" xlink:href="#ltr"/>
<use x="-419.20" y="443.30" xlink:href="#ltr"/>
<use x="-413.20" y="443.30" xlink:href="#ltr"/>
<use x="-407.20" y="443.30" xlink:href="#ltr"/>
<use x="-401.20" y="443.30" xlink:href="#ltr"/>
<use x="-395.20" y="443.30" xlink:href="#ltr"/>
</g>
<g transform="rotate(270)">
<use x="-440.20" y="583.40" xlink:href="#ltr"/>
<use x="-434.20" y="583.40" xlink:href="#ltr"/>
<use x="-428.20" y="583.40" xlink:href="#ltr"/>
<use x="-422.20" y="583.40" xlink:href="#ltr"/>
<use x="-416.20" y="583.40" xlink:href="#ltr"/>
<use x="-410.20" y="583.40" xlink:href="#ltr"/>
<use x="-404.20" y="583.40" xlink:href="#ltr"/>
</g>
</g>
</svg>
