<?xml version="1.0" standalone="no"?>
<!DOCTYPE svg PUBLIC "-//W3C//DTD SVG 1.1//EN"
	"http://www.w3.org/Graphics/SVG/1.1/DTD/svg11.dtd">
<svg xmlns="http://www.w3.org/2000/svg" version="1.1"
	xmlns:xlink="http://www.w3.org/1999/xlink"
	color="black"
	width="701.60px" height="453.40px" viewBox="0 0 701.60 453.40" preserveAspectRatio="xMidYMid meet">
<style type="text/css">
.fill {fill: currentColor}
.stroke {stroke: currentColor; fill: none}
text{white-space: pre}
</style>
<title>/tmp/retab_hymnal_L7/the_day_is_surely_drawing_near.abc (1) tune 1</title>
<!-- Creator: abcm2ps-8.14.11 -->
<!-- CreationDate: Apr 24, 2026 15:39 -->
<!-- CommandLine: /tmp/retab_hymnal_L7/the_day_is_surely_drawing_near.abc -g -O /tmp/retab_hymnal_L7/the_day_is_surely_drawing_near -->
<g stroke-width="0.70">
<!-- title: 231. The Day is Surely Drawing Near -->
</g>
<g stroke-width="0.70" style="font:20.00px Times">
<text x="350.80" y="22.00" text-anchor="middle">231. The Day is Surely Drawing Near</text>
</g>
<g stroke-width="0.70" style="font:20.00px Times">
<path class="stroke" stroke-width="1"
	d="M10.00 145.40v-82.00"/>
<defs>
<path id="brace" class="fill" d="m-2.5 101
	c-4.5 -4.6 -7.5 -12.2 -4.4 -26.8
	3.5 -14.3 3.2 -21.7 -2.1 -24.2
	7.4 2.4 7.3 14.2 3.5 29.5
	-2.7 9.5 -1.5 16.2 3 21.5
	M-2.5 1c-4.5 4.6 -7.5 12.2 -4.4 26.8
	c3.5 14.3 3.2 21.7 -2.1 24.2
	7.4 -2.4 7.3 -14.2 3.5 -29.5
	-2.7 -9.5 -1.5 -16.2 3 -21.5"/>
</defs>
<g transform="translate(10.00,63.40) scale(1,0.82)">
	<use xlink:href="#brace"/>
</g>
<path class="stroke" stroke-width="1"
	d="M179.50 87.40v-24.00"/>
<path class="stroke" stroke-width="1"
	d="M179.50 145.40v-24.00"/>
<path class="stroke" stroke-width="1"
	d="M285.10 87.40v-24.00"/>
<path class="stroke" stroke-width="1"
	d="M285.10 145.40v-24.00"/>
<path class="stroke" stroke-width="1"
	d="M370.10 87.40v-24.00"/>
<path class="stroke" stroke-width="1"
	d="M370.10 145.40v-24.00"/>
<path class="stroke" stroke-width="1"
	d="M488.60 87.40v-24.00"/>
<path class="stroke" stroke-width="1"
	d="M488.60 145.40v-24.00"/>
<path class="stroke" stroke-width="1"
	d="M573.60 87.40v-24.00"/>
<path class="stroke" stroke-width="1"
	d="M573.60 145.40v-24.00"/>
<path class="stroke" stroke-width="1"
	d="M691.60 87.40v-24.00"/>
<path class="stroke" stroke-width="1"
	d="M691.60 145.40v-24.00"/>
<path d="m10.00 87.40
	h681.60
	M10.00 81.40
	h681.60
	M10.00 75.40
	h681.60
	M10.00 69.40
	h681.60
	M10.00 63.40
	h681.60
	" class="stroke"/>
<path d="m10.00 145.40
	h681.60
	M10.00 139.40
	h681.60
	M10.00 133.40
	h681.60
	M10.00 127.40
	h681.60
	M10.00 121.40
	h681.60
	" class="stroke"/>
</g>
<g stroke-width="0.70" style="font:bold 13.00px Times">
<text x="82.70" y="58.80">I<tspan
	 style="font:italic 11.00px Times">¹</tspan></text>
</g>
<g stroke-width="0.70" style="font:bold 13.00px Times">
<text x="185.80" y="50.80">vi<tspan
	 style="font:italic 11.00px Times">⁷</tspan></text>
</g>
<g stroke-width="0.70" style="font:bold 13.00px Times">
<text x="308.30" y="47.80">I</text>
</g>
<g stroke-width="0.70" style="font:bold 13.00px Times">
<text x="388.90" y="47.80">vi<tspan
	 style="font:italic 11.00px Times">⁷</tspan></text>
</g>
<g stroke-width="0.70" style="font:bold 13.00px Times">
<text x="509.60" y="50.80">V</text>
</g>
<g stroke-width="0.70" style="font:bold 13.00px Times">
<text x="594.00" y="58.80">iii</text>
<defs>
<path id="utclef" class="fill" d="m-50 -90
	c-72 -41 -72 -158 52 -188
	150 -10 220 188 90 256
	-114 52 -275 0 -293 -136
	-15 -181 93 -229 220 -334
	88 -87 79 -133 62 -210
	-51 33 -94 105 -89 186
	17 267 36 374 49 574
	6 96 -19 134 -77 135
	-80 1 -126 -93 -61 -133
	85 -41 133 101 31 105
	23 17 92 37 90 -92
	-10 -223 -39 -342 -50 -617
	0 -90 0 -162 96 -232
	56 72 63 230 22 289
	-74 106 -257 168 -255 316
	9 153 148 185 252 133
	86 -65 29 -192 -80 -176
	-71 12 -105 67 -59 124"/>
<use id="tclef" transform="translate(0,6) scale(0.045)"
	xlink:href="#utclef"/>
</defs>
<use x="22.00" y="81.40" xlink:href="#tclef"/>
<defs>
<path id="usharp" class="fill" d="
	m136 -702
	v890
	h32
	v-890
	m128 840
	h32
	v-888
	h-32
	m-232 286
	v116
	l338 -96
	v-116
	m-338 442
	v116
	l338 -98
	v-114"/>
<use id="sh0" transform="translate(-4,5) scale(0.018)"
	xlink:href="#usharp"/>
</defs>
<use x="37.00" y="63.40" xlink:href="#sh0"/>
<g style="font:bold 16px serif"
	transform="translate(53.00,86.90) scale(1.2,1)">
	<text text-anchor="middle">4</text>
	<text y="-12" text-anchor="middle">4</text>
</g>
<defs>
<path id="r4" class="fill" d="m-1 -8.5
	l3.6 5.1 -2.1 5.2 2.2 4.3
	c-2.6 -2.3 -5.1 0 -2.4 2.6
	-4.8 -3 -1.5 -6.9 1.4 -4.1
	l-3.1 -4.5 1.9 -5.1 -1.5 -3.5"/>
</defs>
<use x="86.50" y="75.40" xlink:href="#r4"/>
<defs>
<ellipse id="hd" rx="4.1" ry="2.9"
	transform="rotate(-20)" class="fill"/>
</defs>
<use x="111.40" y="81.40" xlink:href="#hd"/>
<path d="M114.90 81.40v-21.00" class="stroke"/>
<use x="136.20" y="81.40" xlink:href="#hd"/>
<path d="M139.70 81.40v-21.00" class="stroke"/>
<use x="161.10" y="75.40" xlink:href="#hd"/>
<path d="M164.60 75.40v-21.00" class="stroke"/>
<use x="192.00" y="78.40" xlink:href="#hd"/>
<path d="M195.50 78.40v-21.00" class="stroke"/>
<use x="216.90" y="81.40" xlink:href="#hd"/>
<path d="M220.40 81.40v-21.00" class="stroke"/>
<use x="241.80" y="78.40" xlink:href="#hd"/>
<path d="M245.30 78.40v-21.00" class="stroke"/>
<use x="266.70" y="78.40" xlink:href="#hd"/>
<path d="M270.20 78.40v-21.00" class="stroke"/>
<defs>
<path id="Hd" class="fill" d="m3 -1.6
	c-1 -1.8 -7 1.4 -6 3.2
	1 1.8 7 -1.4 6 -3.2
	m0.5 -0.3
	c2 3.8 -5 7.6 -7 3.8
	-2 -3.8 5 -7.6 7 -3.8"/>
</defs>
<use x="310.10" y="75.40" xlink:href="#Hd"/>
<path d="M313.60 75.40v-21.00" class="stroke"/>
<use x="344.80" y="81.40" xlink:href="#Hd"/>
<path d="M348.30 81.40v-21.00" class="stroke"/>
<use x="395.10" y="75.40" xlink:href="#hd"/>
<path d="M398.60 75.40v-21.00" class="stroke"/>
<use x="420.40" y="72.40" xlink:href="#hd"/>
<path d="M416.90 72.40v21.00" class="stroke"/>
<use x="445.30" y="69.40" xlink:href="#hd"/>
<path d="M441.80 69.40v21.00" class="stroke"/>
<use x="470.10" y="75.40" xlink:href="#hd"/>
<path d="M466.60 75.40v21.00" class="stroke"/>
<use x="513.60" y="78.40" xlink:href="#Hd"/>
<path d="M517.10 78.40v-21.00" class="stroke"/>
<use x="548.30" y="81.40" xlink:href="#Hd"/>
<path d="M551.80 81.40v-21.00" class="stroke"/>
<use x="598.60" y="75.40" xlink:href="#r4"/>
<use x="623.50" y="81.40" xlink:href="#hd"/>
<path d="M627.00 81.40v-21.00" class="stroke"/>
<use x="648.30" y="81.40" xlink:href="#hd"/>
<path d="M651.80 81.40v-21.00" class="stroke"/>
<use x="673.20" y="75.40" xlink:href="#hd"/>
<path d="M676.70 75.40v-21.00" class="stroke"/>
<defs>
<path id="ubclef" class="fill" d="m-200 -87
	c124 -35 222 -78 254 -236
	43 -228 -167 -246 -192 -103
	59 -80 157 22 92 78
	-62 47 -115 -22 -106 -88
	21 -141 270 -136 274 52
	-1 175 -106 264 -322 297
	m357 -250
	c0 -36 51 -34 51 0
	0 37 -51 36 -51 0
	m-2 -129
	c0 -36 51 -34 51 0
	0 38 -51 37 -51 0"/>
<use id="bclef" transform="translate(0,18) scale(0.045)"
	xlink:href="#ubclef"/>
</defs>
<use x="22.00" y="127.40" xlink:href="#bclef"/>
<use x="37.00" y="127.40" xlink:href="#sh0"/>
<g style="font:bold 16px serif"
	transform="translate(53.00,144.90) scale(1.2,1)">
	<text text-anchor="middle">4</text>
	<text y="-12" text-anchor="middle">4</text>
</g>
<defs>
<path id="hl1" class="stroke" d="m-7 0h14"/>
</defs>
<use x="87.50" y="151.40" xlink:href="#hl1"/>
<use x="87.50" y="157.40" xlink:href="#hl1"/>
<use x="87.50" y="163.40" xlink:href="#hl1"/>
<defs>
<path id="HD" class="fill" d="m-2.7 -1.4
	c1.5 -2.8 6.9 0 5.3 2.7
	-1.5 2.8 -6.9 0 -5.3 -2.7
	m8.3 1.4
	c0 -1.5 -2.2 -3 -5.6 -3
	-3.4 0 -5.6 1.5 -5.6 3
	0 1.5 2.2 3 5.6 3
	3.4 0 5.6 -1.5 5.6 -3"/>
</defs>
<use x="87.50" y="166.40" xlink:href="#HD"/>
<use x="87.50" y="145.40" xlink:href="#HD"/>
<use x="87.50" y="139.40" xlink:href="#HD"/>
<use x="87.50" y="133.40" xlink:href="#HD"/>
<use x="192.00" y="130.40" xlink:href="#hd"/>
<path d="M188.50 130.40v21.00" class="stroke"/>
<use x="216.90" y="124.40" xlink:href="#hd"/>
<path d="M213.40 124.40v21.00" class="stroke"/>
<use x="241.80" y="118.40" xlink:href="#Hd"/>
<path d="M238.30 118.40v21.00" class="stroke"/>
<use x="311.10" y="151.40" xlink:href="#hl1"/>
<use x="311.10" y="157.40" xlink:href="#hl1"/>
<use x="311.10" y="163.40" xlink:href="#hl1"/>
<use x="311.10" y="166.40" xlink:href="#HD"/>
<use x="311.10" y="145.40" xlink:href="#HD"/>
<use x="311.10" y="139.40" xlink:href="#HD"/>
<use x="311.10" y="133.40" xlink:href="#HD"/>
<use x="396.10" y="151.40" xlink:href="#hl1"/>
<use x="396.10" y="151.40" xlink:href="#HD"/>
<use x="396.10" y="130.40" xlink:href="#HD"/>
<use x="396.10" y="124.40" xlink:href="#HD"/>
<use x="396.10" y="118.40" xlink:href="#HD"/>
<use x="514.60" y="151.40" xlink:href="#hl1"/>
<use x="514.60" y="154.40" xlink:href="#HD"/>
<use x="514.60" y="133.40" xlink:href="#HD"/>
<use x="514.60" y="127.40" xlink:href="#HD"/>
<use x="514.60" y="121.40" xlink:href="#HD"/>
<use x="599.60" y="151.40" xlink:href="#hl1"/>
<use x="599.60" y="157.40" xlink:href="#hl1"/>
<use x="599.60" y="160.40" xlink:href="#HD"/>
<use x="599.60" y="139.40" xlink:href="#HD"/>
<use x="599.60" y="133.40" xlink:href="#HD"/>
<use x="599.60" y="127.40" xlink:href="#HD"/>
<defs>
<path id="ltr" class="fill"
    d="m0 -0.4c2 -1.5 3.4 -1.9 3.9 0.4
	c0.2 0.8 0.7 0.7 2.1 -0.4
	v0.8c-2 1.5 -3.4 1.9 -3.9 -0.4
	c-0.2 -0.8 -0.7 -0.7 -2.1 0.4z"/>
</defs>
<g transform="rotate(270)">
<use x="-169.40" y="74.00" xlink:href="#ltr"/>
<use x="-163.40" y="74.00" xlink:href="#ltr"/>
<use x="-157.40" y="74.00" xlink:href="#ltr"/>
<use x="-151.40" y="74.00" xlink:href="#ltr"/>
<use x="-145.40" y="74.00" xlink:href="#ltr"/>
<use x="-139.40" y="74.00" xlink:href="#ltr"/>
<use x="-133.40" y="74.00" xlink:href="#ltr"/>
</g>
<g transform="rotate(270)">
<use x="-169.40" y="297.60" xlink:href="#ltr"/>
<use x="-163.40" y="297.60" xlink:href="#ltr"/>
<use x="-157.40" y="297.60" xlink:href="#ltr"/>
<use x="-151.40" y="297.60" xlink:href="#ltr"/>
<use x="-145.40" y="297.60" xlink:href="#ltr"/>
<use x="-139.40" y="297.60" xlink:href="#ltr"/>
<use x="-133.40" y="297.60" xlink:href="#ltr"/>
</g>
<g transform="rotate(270)">
<use x="-154.40" y="382.60" xlink:href="#ltr"/>
<use x="-148.40" y="382.60" xlink:href="#ltr"/>
<use x="-142.40" y="382.60" xlink:href="#ltr"/>
<use x="-136.40" y="382.60" xlink:href="#ltr"/>
<use x="-130.40" y="382.60" xlink:href="#ltr"/>
<use x="-124.40" y="382.60" xlink:href="#ltr"/>
<use x="-118.40" y="382.60" xlink:href="#ltr"/>
</g>
<g transform="rotate(270)">
<use x="-157.40" y="501.10" xlink:href="#ltr"/>
<use x="-151.40" y="501.10" xlink:href="#ltr"/>
<use x="-145.40" y="501.10" xlink:href="#ltr"/>
<use x="-139.40" y="501.10" xlink:href="#ltr"/>
<use x="-133.40" y="501.10" xlink:href="#ltr"/>
<use x="-127.40" y="501.10" xlink:href="#ltr"/>
<use x="-121.40" y="501.10" xlink:href="#ltr"/>
</g>
<g transform="rotate(270)">
<use x="-163.40" y="586.10" xlink:href="#ltr"/>
<use x="-157.40" y="586.10" xlink:href="#ltr"/>
<use x="-151.40" y="586.10" xlink:href="#ltr"/>
<use x="-145.40" y="586.10" xlink:href="#ltr"/>
<use x="-139.40" y="586.10" xlink:href="#ltr"/>
<use x="-133.40" y="586.10" xlink:href="#ltr"/>
<use x="-127.40" y="586.10" xlink:href="#ltr"/>
</g>
</g>
<g stroke-width="0.70" style="font:bold 13.00px Times">
<path class="stroke" stroke-width="1"
	d="M10.00 279.80v-82.00"/>
<g transform="translate(10.00,197.80) scale(1,0.82)">
	<use xlink:href="#brace"/>
</g>
<path class="stroke" stroke-width="1"
	d="M164.80 221.80v-24.00"/>
<path class="stroke" stroke-width="1"
	d="M164.80 279.80v-24.00"/>
<path class="stroke" stroke-width="1"
	d="M250.70 221.80v-24.00"/>
<path class="stroke" stroke-width="1"
	d="M250.70 279.80v-24.00"/>
<path class="stroke" stroke-width="1"
	d="M358.30 221.80v-24.00"/>
<path class="stroke" stroke-width="1"
	d="M358.30 279.80v-24.00"/>
<path class="stroke" stroke-width="1"
	d="M465.50 221.80v-24.00"/>
<path class="stroke" stroke-width="1"
	d="M465.50 279.80v-24.00"/>
<path class="stroke" stroke-width="1"
	d="M572.30 221.80v-24.00"/>
<path class="stroke" stroke-width="1"
	d="M572.30 279.80v-24.00"/>
<path class="stroke" stroke-width="1"
	d="M691.60 221.80v-24.00"/>
<path class="stroke" stroke-width="1"
	d="M691.60 279.80v-24.00"/>
<path d="m10.00 221.80
	h681.60
	M10.00 215.80
	h681.60
	M10.00 209.80
	h681.60
	M10.00 203.80
	h681.60
	M10.00 197.80
	h681.60
	" class="stroke"/>
<path d="m10.00 279.80
	h681.60
	M10.00 273.80
	h681.60
	M10.00 267.80
	h681.60
	M10.00 261.80
	h681.60
	M10.00 255.80
	h681.60
	" class="stroke"/>
</g>
<g stroke-width="0.70" style="font:bold 13.00px Times">
<text x="64.60" y="185.20">V<tspan
	 style="font:italic 11.00px Times">⁷</tspan></text>
</g>
<g stroke-width="0.70" style="font:bold 13.00px Times">
<text x="182.00" y="182.20">IV<tspan
	 style="font:italic 11.00px Times">⁷</tspan></text>
</g>
<g stroke-width="0.70" style="font:bold 13.00px Times">
<text x="255.70" y="182.20">iii<tspan
	 style="font:italic 11.00px Times">⁷²</tspan></text>
</g>
<g stroke-width="0.70" style="font:bold 13.00px Times">
<text x="369.50" y="185.20">I</text>
</g>
<g stroke-width="0.70" style="font:bold 13.00px Times">
<text x="474.10" y="191.20">V</text>
</g>
<g stroke-width="0.70" style="font:bold 13.00px Times">
<text x="594.30" y="188.20">ii</text>
<use x="22.00" y="215.80" xlink:href="#tclef"/>
<use x="37.00" y="197.80" xlink:href="#sh0"/>
<use x="70.50" y="212.80" xlink:href="#hd"/>
<path d="M74.00 212.80v-21.00" class="stroke"/>
<use x="95.80" y="215.80" xlink:href="#hd"/>
<path d="M99.30 215.80v-21.00" class="stroke"/>
<use x="121.00" y="212.80" xlink:href="#hd"/>
<path d="M124.50 212.80v-21.00" class="stroke"/>
<use x="146.30" y="212.80" xlink:href="#hd"/>
<path d="M149.80 212.80v-21.00" class="stroke"/>
<use x="189.80" y="209.80" xlink:href="#Hd"/>
<path d="M193.30 209.80v-21.00" class="stroke"/>
<use x="225.20" y="215.80" xlink:href="#Hd"/>
<path d="M228.70 215.80v-21.00" class="stroke"/>
<use x="263.70" y="209.80" xlink:href="#hd"/>
<path d="M267.20 209.80v-21.00" class="stroke"/>
<use x="289.30" y="206.80" xlink:href="#hd"/>
<path d="M285.80 206.80v21.00" class="stroke"/>
<use x="314.50" y="203.80" xlink:href="#hd"/>
<path d="M311.00 203.80v21.00" class="stroke"/>
<use x="339.80" y="209.80" xlink:href="#hd"/>
<path d="M336.30 209.80v21.00" class="stroke"/>
<use x="371.30" y="212.80" xlink:href="#Hd"/>
<path d="M374.80 212.80v-21.00" class="stroke"/>
<use x="421.80" y="215.80" xlink:href="#Hd"/>
<path d="M425.30 215.80v-21.00" class="stroke"/>
<use x="478.00" y="209.80" xlink:href="#r4"/>
<use x="503.30" y="209.80" xlink:href="#hd"/>
<path d="M506.80 209.80v-21.00" class="stroke"/>
<use x="528.60" y="209.80" xlink:href="#hd"/>
<path d="M532.10 209.80v-21.00" class="stroke"/>
<use x="553.90" y="212.80" xlink:href="#hd"/>
<path d="M557.40 212.80v-21.00" class="stroke"/>
<use x="597.30" y="215.80" xlink:href="#hd"/>
<path d="M600.80 215.80v-21.00" class="stroke"/>
<use x="622.60" y="218.80" xlink:href="#hd"/>
<path d="M626.10 218.80v-21.00" class="stroke"/>
<use x="647.90" y="215.80" xlink:href="#hd"/>
<path d="M651.40 215.80v-21.00" class="stroke"/>
<use x="673.10" y="221.80" xlink:href="#hd"/>
<path d="M676.60 221.80v-21.00" class="stroke"/>
<use x="22.00" y="261.80" xlink:href="#bclef"/>
<use x="37.00" y="261.80" xlink:href="#sh0"/>
<use x="71.50" y="285.80" xlink:href="#hl1"/>
<use x="71.50" y="288.80" xlink:href="#HD"/>
<use x="71.50" y="267.80" xlink:href="#HD"/>
<use x="71.50" y="261.80" xlink:href="#HD"/>
<use x="71.50" y="255.80" xlink:href="#HD"/>
<use x="190.80" y="285.80" xlink:href="#hl1"/>
<use x="190.80" y="291.80" xlink:href="#hl1"/>
<use x="190.80" y="291.80" xlink:href="#HD"/>
<use x="190.80" y="270.80" xlink:href="#HD"/>
<use x="190.80" y="264.80" xlink:href="#HD"/>
<use x="190.80" y="258.80" xlink:href="#HD"/>
<use x="263.70" y="273.80" xlink:href="#Hd"/>
<path d="M267.20 273.80v-31.00" class="stroke"/>
<use x="263.70" y="267.80" xlink:href="#Hd"/>
<use x="263.70" y="261.80" xlink:href="#Hd"/>
<use x="314.50" y="273.80" xlink:href="#hd"/>
<path d="M318.00 273.80v-21.00" class="stroke"/>
<use x="339.80" y="267.80" xlink:href="#hd"/>
<path d="M343.30 267.80v-21.00" class="stroke"/>
<use x="371.30" y="279.80" xlink:href="#hd"/>
<path d="M374.80 279.80v-21.00" class="stroke"/>
<use x="396.50" y="273.80" xlink:href="#hd"/>
<path d="M400.00 273.80v-21.00" class="stroke"/>
<use x="421.80" y="267.80" xlink:href="#hd"/>
<path d="M425.30 267.80v-21.00" class="stroke"/>
<use x="447.10" y="273.80" xlink:href="#hd"/>
<path d="M450.60 273.80v-21.00" class="stroke"/>
<use x="478.00" y="255.80" xlink:href="#hd"/>
<path d="M474.50 255.80v21.00" class="stroke"/>
<use x="503.30" y="261.80" xlink:href="#hd"/>
<path d="M499.80 261.80v21.00" class="stroke"/>
<use x="528.60" y="267.80" xlink:href="#Hd"/>
<path d="M525.10 267.80v21.00" class="stroke"/>
<use x="598.30" y="285.80" xlink:href="#hl1"/>
<use x="598.30" y="291.80" xlink:href="#hl1"/>
<use x="598.30" y="297.80" xlink:href="#hl1"/>
<use x="598.30" y="297.80" xlink:href="#HD"/>
<use x="598.30" y="276.80" xlink:href="#HD"/>
<use x="598.30" y="270.80" xlink:href="#HD"/>
<use x="598.30" y="264.80" xlink:href="#HD"/>
<g transform="rotate(270)">
<use x="-291.80" y="58.00" xlink:href="#ltr"/>
<use x="-285.80" y="58.00" xlink:href="#ltr"/>
<use x="-279.80" y="58.00" xlink:href="#ltr"/>
<use x="-273.80" y="58.00" xlink:href="#ltr"/>
<use x="-267.80" y="58.00" xlink:href="#ltr"/>
<use x="-261.80" y="58.00" xlink:href="#ltr"/>
<use x="-255.80" y="58.00" xlink:href="#ltr"/>
</g>
<g transform="rotate(270)">
<use x="-294.80" y="177.30" xlink:href="#ltr"/>
<use x="-288.80" y="177.30" xlink:href="#ltr"/>
<use x="-282.80" y="177.30" xlink:href="#ltr"/>
<use x="-276.80" y="177.30" xlink:href="#ltr"/>
<use x="-270.80" y="177.30" xlink:href="#ltr"/>
<use x="-264.80" y="177.30" xlink:href="#ltr"/>
<use x="-258.80" y="177.30" xlink:href="#ltr"/>
</g>
<g transform="rotate(270)">
<use x="-300.80" y="584.80" xlink:href="#ltr"/>
<use x="-294.80" y="584.80" xlink:href="#ltr"/>
<use x="-288.80" y="584.80" xlink:href="#ltr"/>
<use x="-282.80" y="584.80" xlink:href="#ltr"/>
<use x="-276.80" y="584.80" xlink:href="#ltr"/>
<use x="-270.80" y="584.80" xlink:href="#ltr"/>
<use x="-264.80" y="584.80" xlink:href="#ltr"/>
</g>
</g>
<g stroke-width="0.70" style="font:bold 13.00px Times">
<path class="stroke" stroke-width="1"
	d="M10.00 408.80v-82.00"/>
<g transform="translate(10.00,326.80) scale(1,0.82)">
	<use xlink:href="#brace"/>
</g>
<path class="stroke" stroke-width="1"
	d="M141.20 350.80v-24.00"/>
<path class="stroke" stroke-width="1"
	d="M141.20 408.80v-24.00"/>
<path class="stroke" stroke-width="1"
	d="M278.80 350.80v-24.00"/>
<path class="stroke" stroke-width="1"
	d="M278.80 408.80v-24.00"/>
<path class="stroke" stroke-width="1"
	d="M394.80 350.80v-24.00"/>
<path class="stroke" stroke-width="1"
	d="M394.80 408.80v-24.00"/>
<path class="stroke" stroke-width="1"
	d="M520.60 350.80v-24.00"/>
<path class="stroke" stroke-width="1"
	d="M520.60 408.80v-24.00"/>
<path class="stroke" stroke-width="1"
	d="M624.10 350.80v-24.00"/>
<path class="stroke" stroke-width="1"
	d="M624.10 408.80v-24.00"/>
<path class="stroke" stroke-width="1"
	d="M691.60 350.80v-24.00"/>
<path class="stroke" stroke-width="1"
	d="M691.60 408.80v-24.00"/>
<path d="m10.00 350.80
	h681.60
	M10.00 344.80
	h681.60
	M10.00 338.80
	h681.60
	M10.00 332.80
	h681.60
	M10.00 326.80
	h681.60
	" class="stroke"/>
<path d="m10.00 408.80
	h681.60
	M10.00 402.80
	h681.60
	M10.00 396.80
	h681.60
	M10.00 390.80
	h681.60
	M10.00 384.80
	h681.60
	" class="stroke"/>
</g>
<g stroke-width="0.70" style="font:bold 13.00px Times">
<text x="66.60" y="322.20">V</text>
</g>
<g stroke-width="0.70" style="font:bold 13.00px Times">
<text x="164.40" y="317.20">I</text>
</g>
<g stroke-width="0.70" style="font:bold 13.00px Times">
<text x="295.80" y="314.20">vii<tspan
	 style="font:italic 11.00px Times">ø7²</tspan></text>
</g>
<g stroke-width="0.70" style="font:bold 13.00px Times">
<text x="403.60" y="317.20">vi</text>
</g>
<g stroke-width="0.70" style="font:bold 13.00px Times">
<text x="531.30" y="320.20">I</text>
</g>
<g stroke-width="0.70" style="font:bold 13.00px Times">
<text x="647.30" y="315.20">I</text>
</g>
<g stroke-width="0.70" style="font:italic 13.00px Times">
<text x="641.10" y="446.20">bisb.</text>
<use x="22.00" y="344.80" xlink:href="#tclef"/>
<use x="37.00" y="326.80" xlink:href="#sh0"/>
<use x="70.50" y="353.80" xlink:href="#Hd"/>
<circle class="fill" cx="80.20" cy="353.80" r="1.2"/>
<path d="M74.00 353.80v-21.00" class="stroke"/>
<use x="119.50" y="353.80" xlink:href="#hd"/>
<path d="M123.00 353.80v-21.00" class="stroke"/>
<use x="166.20" y="344.80" xlink:href="#hd"/>
<path d="M169.70 344.80v-21.00" class="stroke"/>
<use x="196.50" y="344.80" xlink:href="#hd"/>
<path d="M200.00 344.80v-21.00" class="stroke"/>
<use x="226.80" y="344.80" xlink:href="#hd"/>
<path d="M230.30 344.80v-21.00" class="stroke"/>
<use x="257.10" y="347.80" xlink:href="#hd"/>
<path d="M260.60 347.80v-21.00" class="stroke"/>
<use x="303.80" y="344.80" xlink:href="#hd"/>
<path d="M307.30 344.80v-21.00" class="stroke"/>
<use x="334.10" y="341.80" xlink:href="#hd"/>
<path d="M337.60 341.80v-21.00" class="stroke"/>
<use x="364.50" y="338.80" xlink:href="#Hd"/>
<path d="M368.00 338.80v-21.00" class="stroke"/>
<use x="407.80" y="344.80" xlink:href="#Hd"/>
<path d="M411.30 344.80v-21.00" class="stroke"/>
<use x="468.40" y="338.80" xlink:href="#hd"/>
<path d="M471.90 338.80v-21.00" class="stroke"/>
<use x="498.90" y="335.80" xlink:href="#hd"/>
<path d="M495.40 335.80v21.00" class="stroke"/>
<use x="533.10" y="332.80" xlink:href="#hd"/>
<path d="M529.60 332.80v21.00" class="stroke"/>
<use x="563.40" y="338.80" xlink:href="#hd"/>
<path d="M559.90 338.80v21.00" class="stroke"/>
<use x="593.70" y="341.80" xlink:href="#Hd"/>
<path d="M597.20 341.80v-21.00" class="stroke"/>
<use x="650.10" y="323.80" xlink:href="#HD"/>
<use x="650.10" y="344.80" xlink:href="#HD"/>
<use x="22.00" y="390.80" xlink:href="#bclef"/>
<use x="37.00" y="390.80" xlink:href="#sh0"/>
<use x="71.50" y="414.80" xlink:href="#hl1"/>
<use x="71.50" y="417.80" xlink:href="#HD"/>
<use x="71.50" y="396.80" xlink:href="#HD"/>
<use x="71.50" y="390.80" xlink:href="#HD"/>
<use x="71.50" y="384.80" xlink:href="#HD"/>
<use x="167.20" y="414.80" xlink:href="#hl1"/>
<use x="167.20" y="420.80" xlink:href="#hl1"/>
<use x="167.20" y="426.80" xlink:href="#hl1"/>
<use x="167.20" y="429.80" xlink:href="#HD"/>
<use x="167.20" y="408.80" xlink:href="#HD"/>
<use x="167.20" y="402.80" xlink:href="#HD"/>
<use x="167.20" y="396.80" xlink:href="#HD"/>
<use x="304.80" y="378.80" xlink:href="#hl1"/>
<use x="304.80" y="378.80" xlink:href="#HD"/>
<use x="304.80" y="411.80" xlink:href="#HD"/>
<use x="304.80" y="390.80" xlink:href="#HD"/>
<use x="304.80" y="384.80" xlink:href="#HD"/>
<use x="407.80" y="393.80" xlink:href="#hd"/>
<path d="M404.30 393.80v21.00" class="stroke"/>
<use x="438.10" y="387.80" xlink:href="#hd"/>
<path d="M434.60 387.80v21.00" class="stroke"/>
<use x="468.40" y="381.80" xlink:href="#hd"/>
<path d="M464.90 381.80v21.00" class="stroke"/>
<use x="498.90" y="387.80" xlink:href="#hd"/>
<path d="M495.40 387.80v21.00" class="stroke"/>
<use x="533.10" y="408.80" xlink:href="#hd"/>
<path d="M536.60 408.80v-21.00" class="stroke"/>
<use x="563.40" y="402.80" xlink:href="#hd"/>
<path d="M566.90 402.80v-21.00" class="stroke"/>
<use x="593.70" y="396.80" xlink:href="#Hd"/>
<path d="M597.20 396.80v-21.00" class="stroke"/>
<use x="650.10" y="414.80" xlink:href="#hl1"/>
<use x="650.10" y="420.80" xlink:href="#hl1"/>
<use x="650.10" y="426.80" xlink:href="#hl1"/>
<use x="650.10" y="429.80" xlink:href="#HD"/>
<use x="650.10" y="408.80" xlink:href="#HD"/>
<use x="650.10" y="402.80" xlink:href="#HD"/>
<use x="650.10" y="396.80" xlink:href="#HD"/>
<g transform="rotate(270)">
<use x="-420.80" y="58.00" xlink:href="#ltr"/>
<use x="-414.80" y="58.00" xlink:href="#ltr"/>
<use x="-408.80" y="58.00" xlink:href="#ltr"/>
<use x="-402.80" y="58.00" xlink:href="#ltr"/>
<use x="-396.80" y="58.00" xlink:href="#ltr"/>
<use x="-390.80" y="58.00" xlink:href="#ltr"/>
<use x="-384.80" y="58.00" xlink:href="#ltr"/>
</g>
<g transform="rotate(270)">
<use x="-432.80" y="153.70" xlink:href="#ltr"/>
<use x="-426.80" y="153.70" xlink:href="#ltr"/>
<use x="-420.80" y="153.70" xlink:href="#ltr"/>
<use x="-414.80" y="153.70" xlink:href="#ltr"/>
<use x="-408.80" y="153.70" xlink:href="#ltr"/>
<use x="-402.80" y="153.70" xlink:href="#ltr"/>
<use x="-396.80" y="153.70" xlink:href="#ltr"/>
</g>
<g transform="rotate(270)">
<use x="-414.80" y="291.30" xlink:href="#ltr"/>
<use x="-408.80" y="291.30" xlink:href="#ltr"/>
<use x="-402.80" y="291.30" xlink:href="#ltr"/>
<use x="-396.80" y="291.30" xlink:href="#ltr"/>
<use x="-390.80" y="291.30" xlink:href="#ltr"/>
<use x="-384.80" y="291.30" xlink:href="#ltr"/>
<use x="-378.80" y="291.30" xlink:href="#ltr"/>
</g>
<g transform="rotate(270)">
<use x="-432.80" y="636.60" xlink:href="#ltr"/>
<use x="-426.80" y="636.60" xlink:href="#ltr"/>
<use x="-420.80" y="636.60" xlink:href="#ltr"/>
<use x="-414.80" y="636.60" xlink:href="#ltr"/>
<use x="-408.80" y="636.60" xlink:href="#ltr"/>
<use x="-402.80" y="636.60" xlink:href="#ltr"/>
<use x="-396.80" y="636.60" xlink:href="#ltr"/>
</g>
</g>
</svg>
