<?xml version="1.0" standalone="no"?>
<!DOCTYPE svg PUBLIC "-//W3C//DTD SVG 1.1//EN"
	"http://www.w3.org/Graphics/SVG/1.1/DTD/svg11.dtd">
<svg xmlns="http://www.w3.org/2000/svg" version="1.1"
	xmlns:xlink="http://www.w3.org/1999/xlink"
	color="black"
	width="701.60px" height="429.80px" viewBox="0 0 701.60 429.80" preserveAspectRatio="xMidYMid meet">
<style type="text/css">
.fill {fill: currentColor}
.stroke {stroke: currentColor; fill: none}
text{white-space: pre}
</style>
<title>/tmp/retab_hymnal_L7/today_thy_mercy_calls_me.abc (1) tune 1</title>
<!-- Creator: abcm2ps-8.14.11 -->
<!-- CreationDate: Apr 24, 2026 15:39 -->
<!-- CommandLine: /tmp/retab_hymnal_L7/today_thy_mercy_calls_me.abc -g -O /tmp/retab_hymnal_L7/today_thy_mercy_calls_me -->
<g stroke-width="0.70">
<!-- title: 258. Today Thy Mercy Calls Me -->
</g>
<g stroke-width="0.70" style="font:20.00px Times">
<text x="350.80" y="22.00" text-anchor="middle">258. Today Thy Mercy Calls Me</text>
</g>
<g stroke-width="0.70" style="font:20.00px Times">
<path class="stroke" stroke-width="1"
	d="M10.00 145.40v-82.00"/>
<defs>
<path id="brace" class="fill" d="m-2.5 101
	c-4.5 -4.6 -7.5 -12.2 -4.4 -26.8
	3.5 -14.3 3.2 -21.7 -2.1 -24.2
	7.4 2.4 7.3 14.2 3.5 29.5
	-2.7 9.5 -1.5 16.2 3 21.5
	M-2.5 1c-4.5 4.6 -7.5 12.2 -4.4 26.8
	c3.5 14.3 3.2 21.7 -2.1 24.2
	7.4 -2.4 7.3 -14.2 3.5 -29.5
	-2.7 -9.5 -1.5 -16.2 3 -21.5"/>
</defs>
<g transform="translate(10.00,63.40) scale(1,0.82)">
	<use xlink:href="#brace"/>
</g>
<path class="stroke" stroke-width="1"
	d="M187.50 87.40v-24.00"/>
<path class="stroke" stroke-width="1"
	d="M187.50 145.40v-24.00"/>
<path class="stroke" stroke-width="1"
	d="M285.10 87.40v-24.00"/>
<path class="stroke" stroke-width="1"
	d="M285.10 145.40v-24.00"/>
<path class="stroke" stroke-width="1"
	d="M400.60 87.40v-24.00"/>
<path class="stroke" stroke-width="1"
	d="M400.60 145.40v-24.00"/>
<path class="stroke" stroke-width="1"
	d="M479.00 87.40v-24.00"/>
<path class="stroke" stroke-width="1"
	d="M479.00 145.40v-24.00"/>
<path class="stroke" stroke-width="1"
	d="M593.90 87.40v-24.00"/>
<path class="stroke" stroke-width="1"
	d="M593.90 145.40v-24.00"/>
<path class="stroke" stroke-width="1"
	d="M691.60 87.40v-24.00"/>
<path class="stroke" stroke-width="1"
	d="M691.60 145.40v-24.00"/>
<path d="m10.00 87.40
	h681.60
	M10.00 81.40
	h681.60
	M10.00 75.40
	h681.60
	M10.00 69.40
	h681.60
	M10.00 63.40
	h681.60
	" class="stroke"/>
<path d="m10.00 145.40
	h681.60
	M10.00 139.40
	h681.60
	M10.00 133.40
	h681.60
	M10.00 127.40
	h681.60
	M10.00 121.40
	h681.60
	" class="stroke"/>
</g>
<g stroke-width="0.70" style="font:bold 13.00px Times">
<text x="95.70" y="58.80">I</text>
</g>
<g stroke-width="0.70" style="font:bold 13.00px Times">
<text x="210.70" y="47.80">I</text>
</g>
<g stroke-width="0.70" style="font:bold 13.00px Times">
<text x="306.40" y="50.80">I<tspan
	 style="font:italic 11.00px Times">¹</tspan></text>
</g>
<g stroke-width="0.70" style="font:bold 13.00px Times">
<text x="423.80" y="58.80">I</text>
</g>
<g stroke-width="0.70" style="font:bold 13.00px Times">
<text x="502.10" y="58.80">I</text>
</g>
<g stroke-width="0.70" style="font:bold 13.00px Times">
<text x="617.10" y="47.80">I</text>
<defs>
<path id="utclef" class="fill" d="m-50 -90
	c-72 -41 -72 -158 52 -188
	150 -10 220 188 90 256
	-114 52 -275 0 -293 -136
	-15 -181 93 -229 220 -334
	88 -87 79 -133 62 -210
	-51 33 -94 105 -89 186
	17 267 36 374 49 574
	6 96 -19 134 -77 135
	-80 1 -126 -93 -61 -133
	85 -41 133 101 31 105
	23 17 92 37 90 -92
	-10 -223 -39 -342 -50 -617
	0 -90 0 -162 96 -232
	56 72 63 230 22 289
	-74 106 -257 168 -255 316
	9 153 148 185 252 133
	86 -65 29 -192 -80 -176
	-71 12 -105 67 -59 124"/>
<use id="tclef" transform="translate(0,6) scale(0.045)"
	xlink:href="#utclef"/>
</defs>
<use x="22.00" y="81.40" xlink:href="#tclef"/>
<defs>
<path id="usharp" class="fill" d="
	m136 -702
	v890
	h32
	v-890
	m128 840
	h32
	v-888
	h-32
	m-232 286
	v116
	l338 -96
	v-116
	m-338 442
	v116
	l338 -98
	v-114"/>
<use id="sh0" transform="translate(-4,5) scale(0.018)"
	xlink:href="#usharp"/>
</defs>
<use x="37.00" y="63.40" xlink:href="#sh0"/>
<use x="42.50" y="72.40" xlink:href="#sh0"/>
<use x="48.00" y="60.40" xlink:href="#sh0"/>
<g style="font:bold 16px serif"
	transform="translate(64.00,86.90) scale(1.2,1)">
	<text text-anchor="middle">4</text>
	<text y="-12" text-anchor="middle">4</text>
</g>
<defs>
<ellipse id="hd" rx="4.1" ry="2.9"
	transform="rotate(-20)" class="fill"/>
</defs>
<use x="97.50" y="87.40" xlink:href="#hd"/>
<path d="M101.00 87.40v-21.00" class="stroke"/>
<use x="121.50" y="78.40" xlink:href="#hd"/>
<path d="M125.00 78.40v-21.00" class="stroke"/>
<use x="145.40" y="81.40" xlink:href="#hd"/>
<path d="M148.90 81.40v-21.00" class="stroke"/>
<use x="169.40" y="78.40" xlink:href="#hd"/>
<path d="M172.90 78.40v-21.00" class="stroke"/>
<use x="212.50" y="75.40" xlink:href="#hd"/>
<path d="M216.00 75.40v-21.00" class="stroke"/>
<defs>
<path id="Hd" class="fill" d="m3 -1.6
	c-1 -1.8 -7 1.4 -6 3.2
	1 1.8 7 -1.4 6 -3.2
	m0.5 -0.3
	c2 3.8 -5 7.6 -7 3.8
	-2 -3.8 5 -7.6 7 -3.8"/>
</defs>
<use x="237.00" y="72.40" xlink:href="#Hd"/>
<path d="M233.50 72.40v21.00" class="stroke"/>
<use x="267.10" y="78.40" xlink:href="#hd"/>
<path d="M270.60 78.40v-21.00" class="stroke"/>
<use x="310.10" y="78.40" xlink:href="#hd"/>
<path d="M313.60 78.40v-21.00" class="stroke"/>
<use x="334.10" y="84.40" xlink:href="#hd"/>
<path d="M337.60 84.40v-21.00" class="stroke"/>
<use x="358.60" y="69.40" xlink:href="#hd"/>
<path d="M355.10 69.40v21.00" class="stroke"/>
<use x="382.60" y="72.40" xlink:href="#hd"/>
<path d="M379.10 72.40v21.00" class="stroke"/>
<use x="425.60" y="75.40" xlink:href="#hd"/>
<path d="M422.10 75.40v21.00" class="stroke"/>
<use x="449.70" y="78.40" xlink:href="#Hd"/>
<circle class="fill" cx="458.40" cy="78.40" r="1.2"/>
<path d="M453.20 78.40v-21.00" class="stroke"/>
<use x="504.00" y="87.40" xlink:href="#hd"/>
<path d="M507.50 87.40v-21.00" class="stroke"/>
<use x="527.90" y="78.40" xlink:href="#hd"/>
<path d="M531.40 78.40v-21.00" class="stroke"/>
<use x="551.90" y="81.40" xlink:href="#hd"/>
<path d="M555.40 81.40v-21.00" class="stroke"/>
<use x="575.90" y="78.40" xlink:href="#hd"/>
<path d="M579.40 78.40v-21.00" class="stroke"/>
<use x="618.90" y="75.40" xlink:href="#hd"/>
<path d="M622.40 75.40v-21.00" class="stroke"/>
<use x="643.40" y="72.40" xlink:href="#Hd"/>
<path d="M639.90 72.40v21.00" class="stroke"/>
<use x="673.50" y="78.40" xlink:href="#hd"/>
<path d="M677.00 78.40v-21.00" class="stroke"/>
<defs>
<path id="ubclef" class="fill" d="m-200 -87
	c124 -35 222 -78 254 -236
	43 -228 -167 -246 -192 -103
	59 -80 157 22 92 78
	-62 47 -115 -22 -106 -88
	21 -141 270 -136 274 52
	-1 175 -106 264 -322 297
	m357 -250
	c0 -36 51 -34 51 0
	0 37 -51 36 -51 0
	m-2 -129
	c0 -36 51 -34 51 0
	0 38 -51 37 -51 0"/>
<use id="bclef" transform="translate(0,18) scale(0.045)"
	xlink:href="#ubclef"/>
</defs>
<use x="22.00" y="127.40" xlink:href="#bclef"/>
<use x="37.00" y="127.40" xlink:href="#sh0"/>
<use x="42.50" y="136.40" xlink:href="#sh0"/>
<use x="48.00" y="124.40" xlink:href="#sh0"/>
<g style="font:bold 16px serif"
	transform="translate(64.00,144.90) scale(1.2,1)">
	<text text-anchor="middle">4</text>
	<text y="-12" text-anchor="middle">4</text>
</g>
<defs>
<path id="hl1" class="stroke" d="m-7 0h14"/>
</defs>
<use x="98.50" y="151.40" xlink:href="#hl1"/>
<use x="98.50" y="157.40" xlink:href="#hl1"/>
<use x="98.50" y="163.40" xlink:href="#hl1"/>
<defs>
<path id="HD" class="fill" d="m-2.7 -1.4
	c1.5 -2.8 6.9 0 5.3 2.7
	-1.5 2.8 -6.9 0 -5.3 -2.7
	m8.3 1.4
	c0 -1.5 -2.2 -3 -5.6 -3
	-3.4 0 -5.6 1.5 -5.6 3
	0 1.5 2.2 3 5.6 3
	3.4 0 5.6 -1.5 5.6 -3"/>
</defs>
<use x="98.50" y="163.40" xlink:href="#HD"/>
<use x="98.50" y="142.40" xlink:href="#HD"/>
<use x="98.50" y="136.40" xlink:href="#HD"/>
<use x="98.50" y="130.40" xlink:href="#HD"/>
<use x="213.50" y="151.40" xlink:href="#hl1"/>
<use x="213.50" y="157.40" xlink:href="#hl1"/>
<use x="213.50" y="163.40" xlink:href="#hl1"/>
<use x="213.50" y="163.40" xlink:href="#HD"/>
<use x="213.50" y="142.40" xlink:href="#HD"/>
<use x="213.50" y="136.40" xlink:href="#HD"/>
<use x="213.50" y="130.40" xlink:href="#HD"/>
<use x="311.10" y="151.40" xlink:href="#hl1"/>
<use x="311.10" y="157.40" xlink:href="#hl1"/>
<use x="311.10" y="163.40" xlink:href="#hl1"/>
<use x="311.10" y="163.40" xlink:href="#HD"/>
<use x="311.10" y="142.40" xlink:href="#HD"/>
<use x="311.10" y="136.40" xlink:href="#HD"/>
<use x="311.10" y="130.40" xlink:href="#HD"/>
<use x="426.60" y="151.40" xlink:href="#hl1"/>
<use x="426.60" y="157.40" xlink:href="#hl1"/>
<use x="426.60" y="163.40" xlink:href="#hl1"/>
<use x="426.60" y="163.40" xlink:href="#HD"/>
<use x="426.60" y="142.40" xlink:href="#HD"/>
<use x="426.60" y="136.40" xlink:href="#HD"/>
<use x="426.60" y="130.40" xlink:href="#HD"/>
<use x="505.00" y="151.40" xlink:href="#hl1"/>
<use x="505.00" y="157.40" xlink:href="#hl1"/>
<use x="505.00" y="163.40" xlink:href="#hl1"/>
<use x="505.00" y="163.40" xlink:href="#HD"/>
<use x="505.00" y="142.40" xlink:href="#HD"/>
<use x="505.00" y="136.40" xlink:href="#HD"/>
<use x="505.00" y="130.40" xlink:href="#HD"/>
<use x="619.90" y="151.40" xlink:href="#hl1"/>
<use x="619.90" y="157.40" xlink:href="#hl1"/>
<use x="619.90" y="163.40" xlink:href="#hl1"/>
<use x="619.90" y="163.40" xlink:href="#HD"/>
<use x="619.90" y="142.40" xlink:href="#HD"/>
<use x="619.90" y="136.40" xlink:href="#HD"/>
<use x="619.90" y="130.40" xlink:href="#HD"/>
<defs>
<path id="ltr" class="fill"
    d="m0 -0.4c2 -1.5 3.4 -1.9 3.9 0.4
	c0.2 0.8 0.7 0.7 2.1 -0.4
	v0.8c-2 1.5 -3.4 1.9 -3.9 -0.4
	c-0.2 -0.8 -0.7 -0.7 -2.1 0.4z"/>
</defs>
<g transform="rotate(270)">
<use x="-166.40" y="85.00" xlink:href="#ltr"/>
<use x="-160.40" y="85.00" xlink:href="#ltr"/>
<use x="-154.40" y="85.00" xlink:href="#ltr"/>
<use x="-148.40" y="85.00" xlink:href="#ltr"/>
<use x="-142.40" y="85.00" xlink:href="#ltr"/>
<use x="-136.40" y="85.00" xlink:href="#ltr"/>
<use x="-130.40" y="85.00" xlink:href="#ltr"/>
</g>
<g transform="rotate(270)">
<use x="-166.40" y="200.00" xlink:href="#ltr"/>
<use x="-160.40" y="200.00" xlink:href="#ltr"/>
<use x="-154.40" y="200.00" xlink:href="#ltr"/>
<use x="-148.40" y="200.00" xlink:href="#ltr"/>
<use x="-142.40" y="200.00" xlink:href="#ltr"/>
<use x="-136.40" y="200.00" xlink:href="#ltr"/>
<use x="-130.40" y="200.00" xlink:href="#ltr"/>
</g>
<g transform="rotate(270)">
<use x="-166.40" y="297.60" xlink:href="#ltr"/>
<use x="-160.40" y="297.60" xlink:href="#ltr"/>
<use x="-154.40" y="297.60" xlink:href="#ltr"/>
<use x="-148.40" y="297.60" xlink:href="#ltr"/>
<use x="-142.40" y="297.60" xlink:href="#ltr"/>
<use x="-136.40" y="297.60" xlink:href="#ltr"/>
<use x="-130.40" y="297.60" xlink:href="#ltr"/>
</g>
<g transform="rotate(270)">
<use x="-166.40" y="413.10" xlink:href="#ltr"/>
<use x="-160.40" y="413.10" xlink:href="#ltr"/>
<use x="-154.40" y="413.10" xlink:href="#ltr"/>
<use x="-148.40" y="413.10" xlink:href="#ltr"/>
<use x="-142.40" y="413.10" xlink:href="#ltr"/>
<use x="-136.40" y="413.10" xlink:href="#ltr"/>
<use x="-130.40" y="413.10" xlink:href="#ltr"/>
</g>
<g transform="rotate(270)">
<use x="-166.40" y="491.50" xlink:href="#ltr"/>
<use x="-160.40" y="491.50" xlink:href="#ltr"/>
<use x="-154.40" y="491.50" xlink:href="#ltr"/>
<use x="-148.40" y="491.50" xlink:href="#ltr"/>
<use x="-142.40" y="491.50" xlink:href="#ltr"/>
<use x="-136.40" y="491.50" xlink:href="#ltr"/>
<use x="-130.40" y="491.50" xlink:href="#ltr"/>
</g>
<g transform="rotate(270)">
<use x="-166.40" y="606.40" xlink:href="#ltr"/>
<use x="-160.40" y="606.40" xlink:href="#ltr"/>
<use x="-154.40" y="606.40" xlink:href="#ltr"/>
<use x="-148.40" y="606.40" xlink:href="#ltr"/>
<use x="-142.40" y="606.40" xlink:href="#ltr"/>
<use x="-136.40" y="606.40" xlink:href="#ltr"/>
<use x="-130.40" y="606.40" xlink:href="#ltr"/>
</g>
</g>
<g stroke-width="0.70" style="font:bold 13.00px Times">
<path class="stroke" stroke-width="1"
	d="M10.00 276.80v-82.00"/>
<g transform="translate(10.00,194.80) scale(1,0.82)">
	<use xlink:href="#brace"/>
</g>
<path class="stroke" stroke-width="1"
	d="M180.80 218.80v-24.00"/>
<path class="stroke" stroke-width="1"
	d="M180.80 276.80v-24.00"/>
<path class="stroke" stroke-width="1"
	d="M263.70 218.80v-24.00"/>
<path class="stroke" stroke-width="1"
	d="M263.70 276.80v-24.00"/>
<path class="stroke" stroke-width="1"
	d="M385.10 218.80v-24.00"/>
<path class="stroke" stroke-width="1"
	d="M385.10 276.80v-24.00"/>
<path class="stroke" stroke-width="1"
	d="M496.60 218.80v-24.00"/>
<path class="stroke" stroke-width="1"
	d="M496.60 276.80v-24.00"/>
<path class="stroke" stroke-width="1"
	d="M608.40 218.80v-24.00"/>
<path class="stroke" stroke-width="1"
	d="M608.40 276.80v-24.00"/>
<path class="stroke" stroke-width="1"
	d="M691.60 218.80v-24.00"/>
<path class="stroke" stroke-width="1"
	d="M691.60 276.80v-24.00"/>
<path d="m10.00 218.80
	h681.60
	M10.00 212.80
	h681.60
	M10.00 206.80
	h681.60
	M10.00 200.80
	h681.60
	M10.00 194.80
	h681.60
	" class="stroke"/>
<path d="m10.00 276.80
	h681.60
	M10.00 270.80
	h681.60
	M10.00 264.80
	h681.60
	M10.00 258.80
	h681.60
	M10.00 252.80
	h681.60
	" class="stroke"/>
</g>
<g stroke-width="0.70" style="font:bold 13.00px Times">
<text x="77.70" y="182.20">I<tspan
	 style="font:italic 11.00px Times">¹</tspan></text>
</g>
<g stroke-width="0.70" style="font:bold 13.00px Times">
<text x="204.00" y="190.20">I</text>
</g>
<g stroke-width="0.70" style="font:bold 13.00px Times">
<text x="286.90" y="190.20">I</text>
</g>
<g stroke-width="0.70" style="font:bold 13.00px Times">
<text x="393.70" y="188.20">V</text>
</g>
<g stroke-width="0.70" style="font:bold 13.00px Times">
<text x="507.30" y="190.20">I</text>
</g>
<g stroke-width="0.70" style="font:bold 13.00px Times">
<text x="631.60" y="179.20">I</text>
<use x="22.00" y="212.80" xlink:href="#tclef"/>
<use x="37.00" y="194.80" xlink:href="#sh0"/>
<use x="42.50" y="203.80" xlink:href="#sh0"/>
<use x="48.00" y="191.80" xlink:href="#sh0"/>
<use x="81.50" y="209.80" xlink:href="#hd"/>
<path d="M85.00 209.80v-21.00" class="stroke"/>
<use x="108.00" y="215.80" xlink:href="#hd"/>
<path d="M111.50 215.80v-21.00" class="stroke"/>
<use x="134.90" y="200.80" xlink:href="#hd"/>
<path d="M131.40 200.80v21.00" class="stroke"/>
<use x="161.40" y="203.80" xlink:href="#hd"/>
<path d="M157.90 203.80v21.00" class="stroke"/>
<use x="205.80" y="206.80" xlink:href="#hd"/>
<path d="M202.30 206.80v21.00" class="stroke"/>
<use x="232.40" y="209.80" xlink:href="#Hd"/>
<circle class="fill" cx="241.10" cy="209.80" r="1.2"/>
<path d="M235.90 209.80v-21.00" class="stroke"/>
<use x="288.70" y="203.80" xlink:href="#hd"/>
<path d="M285.20 203.80v21.00" class="stroke"/>
<use x="315.20" y="206.80" xlink:href="#hd"/>
<path d="M311.70 206.80v21.00" class="stroke"/>
<use x="339.20" y="212.80" xlink:href="#hd"/>
<path d="M342.70 212.80v-21.00" class="stroke"/>
<use x="365.70" y="209.80" xlink:href="#hd"/>
<path d="M369.20 209.80v-21.00" class="stroke"/>
<use x="397.60" y="215.80" xlink:href="#hd"/>
<path d="M401.10 215.80v-21.00" class="stroke"/>
<use x="424.20" y="212.80" xlink:href="#Hd"/>
<path d="M427.70 212.80v-21.00" class="stroke"/>
<use x="477.20" y="218.80" xlink:href="#hd"/>
<path d="M480.70 218.80v-21.00" class="stroke"/>
<use x="509.10" y="218.80" xlink:href="#hd"/>
<path d="M512.60 218.80v-21.00" class="stroke"/>
<use x="535.60" y="215.80" xlink:href="#hd"/>
<path d="M539.10 215.80v-21.00" class="stroke"/>
<use x="562.50" y="212.80" xlink:href="#hd"/>
<path d="M566.00 212.80v-21.00" class="stroke"/>
<use x="589.00" y="209.80" xlink:href="#hd"/>
<path d="M592.50 209.80v-21.00" class="stroke"/>
<use x="633.40" y="206.80" xlink:href="#hd"/>
<path d="M636.90 206.80v-21.00" class="stroke"/>
<use x="660.30" y="203.80" xlink:href="#Hd"/>
<circle class="fill" cx="669.00" cy="203.80" r="1.2"/>
<path d="M656.80 203.80v21.00" class="stroke"/>
<use x="22.00" y="258.80" xlink:href="#bclef"/>
<use x="37.00" y="258.80" xlink:href="#sh0"/>
<use x="42.50" y="267.80" xlink:href="#sh0"/>
<use x="48.00" y="255.80" xlink:href="#sh0"/>
<use x="82.50" y="282.80" xlink:href="#hl1"/>
<use x="82.50" y="288.80" xlink:href="#hl1"/>
<use x="82.50" y="294.80" xlink:href="#hl1"/>
<use x="82.50" y="294.80" xlink:href="#HD"/>
<use x="82.50" y="273.80" xlink:href="#HD"/>
<use x="82.50" y="267.80" xlink:href="#HD"/>
<use x="82.50" y="261.80" xlink:href="#HD"/>
<use x="206.80" y="282.80" xlink:href="#hl1"/>
<use x="206.80" y="288.80" xlink:href="#hl1"/>
<use x="206.80" y="294.80" xlink:href="#hl1"/>
<use x="206.80" y="294.80" xlink:href="#HD"/>
<use x="206.80" y="273.80" xlink:href="#HD"/>
<use x="206.80" y="267.80" xlink:href="#HD"/>
<use x="206.80" y="261.80" xlink:href="#HD"/>
<use x="289.70" y="282.80" xlink:href="#hl1"/>
<use x="289.70" y="288.80" xlink:href="#hl1"/>
<use x="289.70" y="294.80" xlink:href="#hl1"/>
<use x="289.70" y="294.80" xlink:href="#HD"/>
<use x="289.70" y="273.80" xlink:href="#HD"/>
<use x="289.70" y="267.80" xlink:href="#HD"/>
<use x="289.70" y="261.80" xlink:href="#HD"/>
<use x="397.60" y="261.80" xlink:href="#hd"/>
<path d="M394.10 261.80v21.00" class="stroke"/>
<use x="424.20" y="255.80" xlink:href="#hd"/>
<path d="M420.70 255.80v21.00" class="stroke"/>
<use x="450.70" y="249.80" xlink:href="#hd"/>
<path d="M447.20 249.80v21.00" class="stroke"/>
<use x="477.20" y="255.80" xlink:href="#hd"/>
<path d="M473.70 255.80v21.00" class="stroke"/>
<use x="509.10" y="273.80" xlink:href="#hd"/>
<path d="M512.60 273.80v-21.00" class="stroke"/>
<use x="535.60" y="267.80" xlink:href="#hd"/>
<path d="M539.10 267.80v-21.00" class="stroke"/>
<use x="562.50" y="261.80" xlink:href="#Hd"/>
<path d="M559.00 261.80v21.00" class="stroke"/>
<use x="634.40" y="282.80" xlink:href="#hl1"/>
<use x="634.40" y="288.80" xlink:href="#hl1"/>
<use x="634.40" y="294.80" xlink:href="#hl1"/>
<use x="634.40" y="294.80" xlink:href="#HD"/>
<use x="634.40" y="273.80" xlink:href="#HD"/>
<use x="634.40" y="267.80" xlink:href="#HD"/>
<use x="634.40" y="261.80" xlink:href="#HD"/>
<g transform="rotate(270)">
<use x="-297.80" y="69.00" xlink:href="#ltr"/>
<use x="-291.80" y="69.00" xlink:href="#ltr"/>
<use x="-285.80" y="69.00" xlink:href="#ltr"/>
<use x="-279.80" y="69.00" xlink:href="#ltr"/>
<use x="-273.80" y="69.00" xlink:href="#ltr"/>
<use x="-267.80" y="69.00" xlink:href="#ltr"/>
<use x="-261.80" y="69.00" xlink:href="#ltr"/>
</g>
<g transform="rotate(270)">
<use x="-297.80" y="193.30" xlink:href="#ltr"/>
<use x="-291.80" y="193.30" xlink:href="#ltr"/>
<use x="-285.80" y="193.30" xlink:href="#ltr"/>
<use x="-279.80" y="193.30" xlink:href="#ltr"/>
<use x="-273.80" y="193.30" xlink:href="#ltr"/>
<use x="-267.80" y="193.30" xlink:href="#ltr"/>
<use x="-261.80" y="193.30" xlink:href="#ltr"/>
</g>
<g transform="rotate(270)">
<use x="-297.80" y="276.20" xlink:href="#ltr"/>
<use x="-291.80" y="276.20" xlink:href="#ltr"/>
<use x="-285.80" y="276.20" xlink:href="#ltr"/>
<use x="-279.80" y="276.20" xlink:href="#ltr"/>
<use x="-273.80" y="276.20" xlink:href="#ltr"/>
<use x="-267.80" y="276.20" xlink:href="#ltr"/>
<use x="-261.80" y="276.20" xlink:href="#ltr"/>
</g>
<g transform="rotate(270)">
<use x="-297.80" y="620.90" xlink:href="#ltr"/>
<use x="-291.80" y="620.90" xlink:href="#ltr"/>
<use x="-285.80" y="620.90" xlink:href="#ltr"/>
<use x="-279.80" y="620.90" xlink:href="#ltr"/>
<use x="-273.80" y="620.90" xlink:href="#ltr"/>
<use x="-267.80" y="620.90" xlink:href="#ltr"/>
<use x="-261.80" y="620.90" xlink:href="#ltr"/>
</g>
</g>
<g stroke-width="0.70" style="font:bold 13.00px Times">
<path class="stroke" stroke-width="1"
	d="M10.00 405.80v-82.00"/>
<g transform="translate(10.00,323.80) scale(1,0.82)">
	<use xlink:href="#brace"/>
</g>
<path class="stroke" stroke-width="1"
	d="M239.10 347.80v-24.00"/>
<path class="stroke" stroke-width="1"
	d="M239.10 405.80v-24.00"/>
<path class="stroke" stroke-width="1"
	d="M407.50 347.80v-24.00"/>
<path class="stroke" stroke-width="1"
	d="M407.50 405.80v-24.00"/>
<path class="stroke" stroke-width="1"
	d="M575.90 347.80v-24.00"/>
<path class="stroke" stroke-width="1"
	d="M575.90 405.80v-24.00"/>
<path class="stroke" stroke-width="1"
	d="M691.60 347.80v-24.00"/>
<path class="stroke" stroke-width="1"
	d="M691.60 405.80v-24.00"/>
<path d="m10.00 347.80
	h681.60
	M10.00 341.80
	h681.60
	M10.00 335.80
	h681.60
	M10.00 329.80
	h681.60
	M10.00 323.80
	h681.60
	" class="stroke"/>
<path d="m10.00 405.80
	h681.60
	M10.00 399.80
	h681.60
	M10.00 393.80
	h681.60
	M10.00 387.80
	h681.60
	M10.00 381.80
	h681.60
	" class="stroke"/>
</g>
<g stroke-width="0.70" style="font:bold 13.00px Times">
<text x="79.70" y="319.20">I</text>
</g>
<g stroke-width="0.70" style="font:bold 13.00px Times">
<text x="252.30" y="319.20">I</text>
</g>
<g stroke-width="0.70" style="font:bold 13.00px Times">
<text x="416.80" y="319.20">IV</text>
</g>
<g stroke-width="0.70" style="font:bold 13.00px Times">
<text x="599.20" y="312.20">I</text>
<use x="22.00" y="341.80" xlink:href="#tclef"/>
<use x="37.00" y="323.80" xlink:href="#sh0"/>
<use x="42.50" y="332.80" xlink:href="#sh0"/>
<use x="48.00" y="320.80" xlink:href="#sh0"/>
<use x="81.50" y="347.80" xlink:href="#hd"/>
<path d="M85.00 347.80v-21.00" class="stroke"/>
<use x="124.10" y="338.80" xlink:href="#hd"/>
<path d="M127.60 338.80v-21.00" class="stroke"/>
<use x="166.70" y="341.80" xlink:href="#hd"/>
<path d="M170.20 341.80v-21.00" class="stroke"/>
<use x="209.30" y="344.80" xlink:href="#hd"/>
<path d="M212.80 344.80v-21.00" class="stroke"/>
<use x="254.20" y="347.80" xlink:href="#hd"/>
<path d="M257.70 347.80v-21.00" class="stroke"/>
<use x="296.70" y="335.80" xlink:href="#Hd"/>
<path d="M300.20 335.80v-21.00" class="stroke"/>
<use x="377.70" y="335.80" xlink:href="#hd"/>
<path d="M381.20 335.80v-21.00" class="stroke"/>
<use x="422.50" y="332.80" xlink:href="#hd"/>
<path d="M419.00 332.80v21.00" class="stroke"/>
<use x="465.10" y="329.80" xlink:href="#hd"/>
<path d="M461.60 329.80v21.00" class="stroke"/>
<use x="507.70" y="335.80" xlink:href="#hd"/>
<path d="M504.20 335.80v21.00" class="stroke"/>
<use x="546.10" y="338.80" xlink:href="#hd"/>
<path d="M549.60 338.80v-21.00" class="stroke"/>
<use x="601.00" y="320.80" xlink:href="#hd"/>
<path d="M597.50 320.80v40.00" class="stroke"/>
<use x="601.00" y="341.80" xlink:href="#hd"/>
<defs>
<path id="hl" class="stroke" d="m-6 0h12"/>
</defs>
<use x="643.60" y="317.80" xlink:href="#hl"/>
<use x="643.60" y="317.80" xlink:href="#Hd"/>
<circle class="fill" cx="652.30" cy="314.80" r="1.2"/>
<path d="M640.10 317.80v40.00" class="stroke"/>
<use x="643.60" y="338.80" xlink:href="#Hd"/>
<circle class="fill" cx="652.30" cy="338.80" r="1.2"/>
<use x="22.00" y="387.80" xlink:href="#bclef"/>
<use x="37.00" y="387.80" xlink:href="#sh0"/>
<use x="42.50" y="396.80" xlink:href="#sh0"/>
<use x="48.00" y="384.80" xlink:href="#sh0"/>
<use x="82.50" y="411.80" xlink:href="#hl1"/>
<use x="82.50" y="417.80" xlink:href="#hl1"/>
<use x="82.50" y="423.80" xlink:href="#hl1"/>
<use x="82.50" y="423.80" xlink:href="#HD"/>
<use x="82.50" y="402.80" xlink:href="#HD"/>
<use x="82.50" y="396.80" xlink:href="#HD"/>
<use x="82.50" y="390.80" xlink:href="#HD"/>
<use x="254.20" y="402.80" xlink:href="#hd"/>
<path d="M257.70 402.80v-21.00" class="stroke"/>
<use x="296.70" y="396.80" xlink:href="#hd"/>
<path d="M300.20 396.80v-21.00" class="stroke"/>
<use x="339.30" y="390.80" xlink:href="#hd"/>
<path d="M335.80 390.80v21.00" class="stroke"/>
<use x="377.70" y="396.80" xlink:href="#hd"/>
<path d="M381.20 396.80v-21.00" class="stroke"/>
<use x="422.50" y="381.80" xlink:href="#hd"/>
<path d="M419.00 381.80v21.00" class="stroke"/>
<use x="465.10" y="387.80" xlink:href="#hd"/>
<path d="M461.60 387.80v21.00" class="stroke"/>
<use x="507.70" y="393.80" xlink:href="#Hd"/>
<path d="M504.20 393.80v21.00" class="stroke"/>
<use x="602.00" y="411.80" xlink:href="#hl1"/>
<use x="602.00" y="417.80" xlink:href="#hl1"/>
<use x="602.00" y="423.80" xlink:href="#hl1"/>
<use x="602.00" y="423.80" xlink:href="#HD"/>
<use x="602.00" y="402.80" xlink:href="#HD"/>
<use x="602.00" y="396.80" xlink:href="#HD"/>
<use x="602.00" y="390.80" xlink:href="#HD"/>
<g transform="rotate(270)">
<use x="-426.80" y="69.00" xlink:href="#ltr"/>
<use x="-420.80" y="69.00" xlink:href="#ltr"/>
<use x="-414.80" y="69.00" xlink:href="#ltr"/>
<use x="-408.80" y="69.00" xlink:href="#ltr"/>
<use x="-402.80" y="69.00" xlink:href="#ltr"/>
<use x="-396.80" y="69.00" xlink:href="#ltr"/>
<use x="-390.80" y="69.00" xlink:href="#ltr"/>
</g>
<g transform="rotate(270)">
<use x="-426.80" y="588.50" xlink:href="#ltr"/>
<use x="-420.80" y="588.50" xlink:href="#ltr"/>
<use x="-414.80" y="588.50" xlink:href="#ltr"/>
<use x="-408.80" y="588.50" xlink:href="#ltr"/>
<use x="-402.80" y="588.50" xlink:href="#ltr"/>
<use x="-396.80" y="588.50" xlink:href="#ltr"/>
<use x="-390.80" y="588.50" xlink:href="#ltr"/>
</g>
</g>
</svg>
