<?xml version="1.0" standalone="no"?>
<!DOCTYPE svg PUBLIC "-//W3C//DTD SVG 1.1//EN"
	"http://www.w3.org/Graphics/SVG/1.1/DTD/svg11.dtd">
<svg xmlns="http://www.w3.org/2000/svg" version="1.1"
	xmlns:xlink="http://www.w3.org/1999/xlink"
	color="black"
	width="701.60px" height="468.20px" viewBox="0 0 701.60 468.20" preserveAspectRatio="xMidYMid meet">
<style type="text/css">
.fill {fill: currentColor}
.stroke {stroke: currentColor; fill: none}
text{white-space: pre}
</style>
<title>/tmp/retab_hymnal_L6/a_mighty_fortress_is_our_god.abc (1) tune 1</title>
<!-- Creator: abcm2ps-8.14.11 -->
<!-- CreationDate: Apr 24, 2026 15:38 -->
<!-- CommandLine: /tmp/retab_hymnal_L6/a_mighty_fortress_is_our_god.abc -g -O /tmp/retab_hymnal_L6/a_mighty_fortress_is_our_god -->
<g stroke-width="0.70">
<!-- title: 006. A Mighty Fortress Is Our God -->
</g>
<g stroke-width="0.70" style="font:20.00px Times">
<text x="350.80" y="22.00" text-anchor="middle">006. A Mighty Fortress Is Our God</text>
</g>
<g stroke-width="0.70" style="font:20.00px Times">
<path class="stroke" stroke-width="1"
	d="M10.00 145.40v-82.00"/>
<defs>
<path id="brace" class="fill" d="m-2.5 101
	c-4.5 -4.6 -7.5 -12.2 -4.4 -26.8
	3.5 -14.3 3.2 -21.7 -2.1 -24.2
	7.4 2.4 7.3 14.2 3.5 29.5
	-2.7 9.5 -1.5 16.2 3 21.5
	M-2.5 1c-4.5 4.6 -7.5 12.2 -4.4 26.8
	c3.5 14.3 3.2 21.7 -2.1 24.2
	7.4 -2.4 7.3 -14.2 3.5 -29.5
	-2.7 -9.5 -1.5 -16.2 3 -21.5"/>
</defs>
<g transform="translate(10.00,63.40) scale(1,0.82)">
	<use xlink:href="#brace"/>
</g>
<path class="stroke" stroke-width="1"
	d="M194.70 87.40v-24.00"/>
<path class="stroke" stroke-width="1"
	d="M194.70 145.40v-24.00"/>
<path class="stroke" stroke-width="1"
	d="M320.00 87.40v-24.00"/>
<path class="stroke" stroke-width="1"
	d="M320.00 145.40v-24.00"/>
<path class="stroke" stroke-width="1"
	d="M433.50 87.40v-24.00"/>
<path class="stroke" stroke-width="1"
	d="M433.50 145.40v-24.00"/>
<path class="stroke" stroke-width="1"
	d="M560.90 87.40v-24.00"/>
<path class="stroke" stroke-width="1"
	d="M560.90 145.40v-24.00"/>
<path class="stroke" stroke-width="1"
	d="M691.60 87.40v-24.00"/>
<path class="stroke" stroke-width="1"
	d="M691.60 145.40v-24.00"/>
<path d="m10.00 87.40
	h681.60
	M10.00 81.40
	h681.60
	M10.00 75.40
	h681.60
	M10.00 69.40
	h681.60
	M10.00 63.40
	h681.60
	" class="stroke"/>
<path d="m10.00 145.40
	h681.60
	M10.00 139.40
	h681.60
	M10.00 133.40
	h681.60
	M10.00 127.40
	h681.60
	M10.00 121.40
	h681.60
	" class="stroke"/>
</g>
<g stroke-width="0.70" style="font:bold 13.00px Times">
<text x="76.20" y="58.80">I</text>
</g>
<g stroke-width="0.70" style="font:bold 13.00px Times">
<text x="204.80" y="56.80">V</text>
</g>
<g stroke-width="0.70" style="font:bold 13.00px Times">
<text x="329.80" y="58.80">vi</text>
</g>
<g stroke-width="0.70" style="font:bold 13.00px Times">
<text x="444.10" y="47.80">I</text>
</g>
<g stroke-width="0.70" style="font:bold 13.00px Times">
<text x="573.10" y="58.80">I</text>
<defs>
<path id="utclef" class="fill" d="m-50 -90
	c-72 -41 -72 -158 52 -188
	150 -10 220 188 90 256
	-114 52 -275 0 -293 -136
	-15 -181 93 -229 220 -334
	88 -87 79 -133 62 -210
	-51 33 -94 105 -89 186
	17 267 36 374 49 574
	6 96 -19 134 -77 135
	-80 1 -126 -93 -61 -133
	85 -41 133 101 31 105
	23 17 92 37 90 -92
	-10 -223 -39 -342 -50 -617
	0 -90 0 -162 96 -232
	56 72 63 230 22 289
	-74 106 -257 168 -255 316
	9 153 148 185 252 133
	86 -65 29 -192 -80 -176
	-71 12 -105 67 -59 124"/>
<use id="tclef" transform="translate(0,6) scale(0.045)"
	xlink:href="#utclef"/>
</defs>
<use x="22.00" y="81.40" xlink:href="#tclef"/>
<defs>
<path id="usharp" class="fill" d="
	m136 -702
	v890
	h32
	v-890
	m128 840
	h32
	v-888
	h-32
	m-232 286
	v116
	l338 -96
	v-116
	m-338 442
	v116
	l338 -98
	v-114"/>
<use id="sh0" transform="translate(-4,5) scale(0.018)"
	xlink:href="#usharp"/>
</defs>
<use x="37.00" y="63.40" xlink:href="#sh0"/>
<use x="42.50" y="72.40" xlink:href="#sh0"/>
<g style="font:bold 16px serif"
	transform="translate(58.50,86.90) scale(1.2,1)">
	<text text-anchor="middle">4</text>
	<text y="-12" text-anchor="middle">4</text>
</g>
<defs>
<ellipse id="hd" rx="4.1" ry="2.9"
	transform="rotate(-20)" class="fill"/>
</defs>
<use x="78.00" y="69.40" xlink:href="#hd"/>
<path d="M74.50 69.40v21.00" class="stroke"/>
<use x="105.40" y="69.40" xlink:href="#hd"/>
<path d="M101.90 69.40v21.00" class="stroke"/>
<use x="132.80" y="69.40" xlink:href="#hd"/>
<path d="M129.30 69.40v21.00" class="stroke"/>
<use x="157.60" y="78.40" xlink:href="#hd"/>
<path d="M161.10 78.40v-21.00" class="stroke"/>
<path class="fill"
	d="M161.10 57.40c0.6 5.6 9.6 9 5.6 18.4
	1.6 -6 -1.3 -11.6 -5.6 -12.8
"/>
<use x="177.70" y="75.40" xlink:href="#hd"/>
<path d="M181.20 75.40v-21.00" class="stroke"/>
<path class="fill"
	d="M181.20 54.40c0.6 5.6 9.6 9 5.6 18.4
	1.6 -6 -1.3 -11.6 -5.6 -12.8
"/>
<use x="208.70" y="72.40" xlink:href="#hd"/>
<path d="M205.20 72.40v21.00" class="stroke"/>
<use x="236.10" y="69.40" xlink:href="#hd"/>
<path d="M232.60 69.40v21.00" class="stroke"/>
<path class="fill"
	d="M232.60 90.40c0.6 -5.6 9.6 -9 5.6 -18.4
	1.6 6 -1.3 11.6 -5.6 12.8
"/>
<use x="255.80" y="72.40" xlink:href="#hd"/>
<path d="M252.30 72.40v21.00" class="stroke"/>
<path class="fill"
	d="M252.30 93.40c0.6 -5.6 9.6 -9 5.6 -18.4
	1.6 6 -1.3 11.6 -5.6 12.8
"/>
<use x="275.50" y="75.40" xlink:href="#hd"/>
<path d="M272.00 75.40v21.00" class="stroke"/>
<use x="300.20" y="78.40" xlink:href="#hd"/>
<path d="M303.70 78.40v-21.00" class="stroke"/>
<use x="334.00" y="69.40" xlink:href="#hd"/>
<path d="M330.50 69.40v21.00" class="stroke"/>
<use x="361.50" y="72.40" xlink:href="#hd"/>
<path d="M358.00 72.40v21.00" class="stroke"/>
<use x="388.90" y="75.40" xlink:href="#hd"/>
<path d="M385.40 75.40v21.00" class="stroke"/>
<use x="413.60" y="78.40" xlink:href="#hd"/>
<path d="M417.10 78.40v-21.00" class="stroke"/>
<use x="446.00" y="75.40" xlink:href="#hd"/>
<path d="M449.50 75.40v-21.00" class="stroke"/>
<use x="473.40" y="81.40" xlink:href="#hd"/>
<path d="M476.90 81.40v-21.00" class="stroke"/>
<path class="fill"
	d="M476.90 60.40c0.6 5.6 9.6 9 5.6 18.4
	1.6 -6 -1.3 -11.6 -5.6 -12.8
"/>
<use x="493.50" y="84.40" xlink:href="#hd"/>
<path d="M497.00 84.40v-21.00" class="stroke"/>
<path class="fill"
	d="M497.00 63.40c0.6 5.6 9.6 9 5.6 18.4
	1.6 -6 -1.3 -11.6 -5.6 -12.8
"/>
<use x="513.60" y="87.40" xlink:href="#hd"/>
<path d="M517.10 87.40v-21.00" class="stroke"/>
<use x="541.10" y="90.40" xlink:href="#hd"/>
<path d="M544.60 90.40v-21.00" class="stroke"/>
<use x="574.90" y="69.40" xlink:href="#hd"/>
<path d="M571.40 69.40v21.00" class="stroke"/>
<use x="602.30" y="69.40" xlink:href="#hd"/>
<path d="M598.80 69.40v21.00" class="stroke"/>
<use x="629.70" y="69.40" xlink:href="#hd"/>
<path d="M626.20 69.40v21.00" class="stroke"/>
<use x="654.50" y="78.40" xlink:href="#hd"/>
<path d="M658.00 78.40v-21.00" class="stroke"/>
<path class="fill"
	d="M658.00 57.40c0.6 5.6 9.6 9 5.6 18.4
	1.6 -6 -1.3 -11.6 -5.6 -12.8
"/>
<use x="674.60" y="75.40" xlink:href="#hd"/>
<path d="M678.10 75.40v-21.00" class="stroke"/>
<path class="fill"
	d="M678.10 54.40c0.6 5.6 9.6 9 5.6 18.4
	1.6 -6 -1.3 -11.6 -5.6 -12.8
"/>
<defs>
<path id="ubclef" class="fill" d="m-200 -87
	c124 -35 222 -78 254 -236
	43 -228 -167 -246 -192 -103
	59 -80 157 22 92 78
	-62 47 -115 -22 -106 -88
	21 -141 270 -136 274 52
	-1 175 -106 264 -322 297
	m357 -250
	c0 -36 51 -34 51 0
	0 37 -51 36 -51 0
	m-2 -129
	c0 -36 51 -34 51 0
	0 38 -51 37 -51 0"/>
<use id="bclef" transform="translate(0,18) scale(0.045)"
	xlink:href="#ubclef"/>
</defs>
<use x="22.00" y="127.40" xlink:href="#bclef"/>
<use x="37.00" y="127.40" xlink:href="#sh0"/>
<use x="42.50" y="136.40" xlink:href="#sh0"/>
<g style="font:bold 16px serif"
	transform="translate(58.50,144.90) scale(1.2,1)">
	<text text-anchor="middle">4</text>
	<text y="-12" text-anchor="middle">4</text>
</g>
<defs>
<path id="hl1" class="stroke" d="m-7 0h14"/>
</defs>
<use x="79.00" y="151.40" xlink:href="#hl1"/>
<use x="79.00" y="157.40" xlink:href="#hl1"/>
<use x="79.00" y="163.40" xlink:href="#hl1"/>
<use x="79.00" y="169.40" xlink:href="#hl1"/>
<use x="79.00" y="175.40" xlink:href="#hl1"/>
<defs>
<path id="HD" class="fill" d="m-2.7 -1.4
	c1.5 -2.8 6.9 0 5.3 2.7
	-1.5 2.8 -6.9 0 -5.3 -2.7
	m8.3 1.4
	c0 -1.5 -2.2 -3 -5.6 -3
	-3.4 0 -5.6 1.5 -5.6 3
	0 1.5 2.2 3 5.6 3
	3.4 0 5.6 -1.5 5.6 -3"/>
</defs>
<use x="79.00" y="175.40" xlink:href="#HD"/>
<use x="79.00" y="154.40" xlink:href="#HD"/>
<use x="79.00" y="148.40" xlink:href="#HD"/>
<use x="79.00" y="142.40" xlink:href="#HD"/>
<use x="209.70" y="151.40" xlink:href="#hl1"/>
<use x="209.70" y="157.40" xlink:href="#hl1"/>
<use x="209.70" y="163.40" xlink:href="#hl1"/>
<use x="209.70" y="163.40" xlink:href="#HD"/>
<use x="209.70" y="142.40" xlink:href="#HD"/>
<use x="209.70" y="136.40" xlink:href="#HD"/>
<use x="209.70" y="130.40" xlink:href="#HD"/>
<use x="335.00" y="151.40" xlink:href="#hl1"/>
<use x="335.00" y="157.40" xlink:href="#hl1"/>
<use x="335.00" y="160.40" xlink:href="#HD"/>
<use x="335.00" y="139.40" xlink:href="#HD"/>
<use x="335.00" y="133.40" xlink:href="#HD"/>
<use x="335.00" y="127.40" xlink:href="#HD"/>
<defs>
<path id="hl" class="stroke" d="m-6 0h12"/>
</defs>
<use x="446.00" y="151.40" xlink:href="#hl"/>
<use x="446.00" y="154.40" xlink:href="#hd"/>
<path d="M449.50 154.40v-21.00" class="stroke"/>
<use x="473.40" y="148.40" xlink:href="#hd"/>
<path d="M476.90 148.40v-21.00" class="stroke"/>
<defs>
<path id="Hd" class="fill" d="m3 -1.6
	c-1 -1.8 -7 1.4 -6 3.2
	1 1.8 7 -1.4 6 -3.2
	m0.5 -0.3
	c2 3.8 -5 7.6 -7 3.8
	-2 -3.8 5 -7.6 7 -3.8"/>
</defs>
<use x="513.60" y="142.40" xlink:href="#Hd"/>
<path d="M517.10 142.40v-21.00" class="stroke"/>
<use x="575.90" y="151.40" xlink:href="#hl1"/>
<use x="575.90" y="157.40" xlink:href="#hl1"/>
<use x="575.90" y="163.40" xlink:href="#hl1"/>
<use x="575.90" y="169.40" xlink:href="#hl1"/>
<use x="575.90" y="175.40" xlink:href="#hl1"/>
<use x="575.90" y="175.40" xlink:href="#HD"/>
<use x="575.90" y="154.40" xlink:href="#HD"/>
<use x="575.90" y="148.40" xlink:href="#HD"/>
<use x="575.90" y="142.40" xlink:href="#HD"/>
</g>
<g stroke-width="0.70" style="font:bold 13.00px Times">
<path class="stroke" stroke-width="1"
	d="M10.00 288.80v-82.00"/>
<g transform="translate(10.00,206.80) scale(1,0.82)">
	<use xlink:href="#brace"/>
</g>
<path class="stroke" stroke-width="1"
	d="M160.60 230.80v-24.00"/>
<path class="stroke" stroke-width="1"
	d="M160.60 288.80v-24.00"/>
<path class="stroke" stroke-width="1"
	d="M262.50 230.80v-24.00"/>
<path class="stroke" stroke-width="1"
	d="M262.50 288.80v-24.00"/>
<path class="stroke" stroke-width="1"
	d="M378.60 230.80v-24.00"/>
<path class="stroke" stroke-width="1"
	d="M378.60 288.80v-24.00"/>
<path class="stroke" stroke-width="1"
	d="M482.80 230.80v-24.00"/>
<path class="stroke" stroke-width="1"
	d="M482.80 288.80v-24.00"/>
<path class="stroke" stroke-width="1"
	d="M587.10 230.80v-24.00"/>
<path class="stroke" stroke-width="1"
	d="M587.10 288.80v-24.00"/>
<path class="stroke" stroke-width="1"
	d="M691.60 230.80v-24.00"/>
<path class="stroke" stroke-width="1"
	d="M691.60 288.80v-24.00"/>
<path d="m10.00 230.80
	h681.60
	M10.00 224.80
	h681.60
	M10.00 218.80
	h681.60
	M10.00 212.80
	h681.60
	M10.00 206.80
	h681.60
	" class="stroke"/>
<path d="m10.00 288.80
	h681.60
	M10.00 282.80
	h681.60
	M10.00 276.80
	h681.60
	M10.00 270.80
	h681.60
	M10.00 264.80
	h681.60
	" class="stroke"/>
</g>
<g stroke-width="0.70" style="font:bold 13.00px Times">
<text x="58.10" y="202.20">V</text>
</g>
<g stroke-width="0.70" style="font:bold 13.00px Times">
<text x="170.40" y="202.20">vi</text>
</g>
<g stroke-width="0.70" style="font:bold 13.00px Times">
<text x="274.70" y="191.20">I</text>
</g>
<g stroke-width="0.70" style="font:bold 13.00px Times">
<text x="390.80" y="202.20">I</text>
</g>
<g stroke-width="0.70" style="font:bold 13.00px Times">
<text x="493.80" y="197.20">ii</text>
</g>
<g stroke-width="0.70" style="font:bold 13.00px Times">
<text x="599.20" y="194.20">I</text>
<use x="22.00" y="224.80" xlink:href="#tclef"/>
<use x="37.00" y="206.80" xlink:href="#sh0"/>
<use x="42.50" y="215.80" xlink:href="#sh0"/>
<use x="62.00" y="215.80" xlink:href="#hd"/>
<path d="M58.50 215.80v21.00" class="stroke"/>
<use x="86.20" y="212.80" xlink:href="#hd"/>
<path d="M82.70 212.80v21.00" class="stroke"/>
<path class="fill"
	d="M82.70 233.80c0.6 -5.6 9.6 -9 5.6 -18.4
	1.6 6 -1.3 11.6 -5.6 12.8
"/>
<use x="103.60" y="215.80" xlink:href="#hd"/>
<path d="M100.10 215.80v21.00" class="stroke"/>
<path class="fill"
	d="M100.10 236.80c0.6 -5.6 9.6 -9 5.6 -18.4
	1.6 6 -1.3 11.6 -5.6 12.8
"/>
<use x="121.00" y="218.80" xlink:href="#hd"/>
<path d="M117.50 218.80v21.00" class="stroke"/>
<use x="142.90" y="221.80" xlink:href="#hd"/>
<path d="M146.40 221.80v-21.00" class="stroke"/>
<use x="174.60" y="212.80" xlink:href="#hd"/>
<path d="M171.10 212.80v21.00" class="stroke"/>
<use x="198.80" y="215.80" xlink:href="#hd"/>
<path d="M195.30 215.80v21.00" class="stroke"/>
<use x="223.00" y="218.80" xlink:href="#hd"/>
<path d="M219.50 218.80v21.00" class="stroke"/>
<use x="244.90" y="221.80" xlink:href="#hd"/>
<path d="M248.40 221.80v-21.00" class="stroke"/>
<use x="276.50" y="218.80" xlink:href="#hd"/>
<path d="M280.00 218.80v-21.00" class="stroke"/>
<use x="300.70" y="224.80" xlink:href="#hd"/>
<path d="M304.20 224.80v-21.00" class="stroke"/>
<path class="fill"
	d="M304.20 203.80c0.6 5.6 9.6 9 5.6 18.4
	1.6 -6 -1.3 -11.6 -5.6 -12.8
"/>
<use x="318.70" y="227.80" xlink:href="#hd"/>
<path d="M322.20 227.80v-21.00" class="stroke"/>
<path class="fill"
	d="M322.20 206.80c0.6 5.6 9.6 9 5.6 18.4
	1.6 -6 -1.3 -11.6 -5.6 -12.8
"/>
<use x="336.70" y="230.80" xlink:href="#hd"/>
<path d="M340.20 230.80v-21.00" class="stroke"/>
<use x="360.90" y="233.80" xlink:href="#hd"/>
<path d="M364.40 233.80v-21.00" class="stroke"/>
<use x="392.60" y="233.80" xlink:href="#hd"/>
<path d="M396.10 233.80v-21.00" class="stroke"/>
<use x="416.80" y="227.80" xlink:href="#hd"/>
<path d="M420.30 227.80v-21.00" class="stroke"/>
<use x="440.90" y="221.80" xlink:href="#hd"/>
<path d="M444.40 221.80v-21.00" class="stroke"/>
<use x="465.10" y="218.80" xlink:href="#hd"/>
<path d="M468.60 218.80v-21.00" class="stroke"/>
<use x="496.80" y="224.80" xlink:href="#hd"/>
<path d="M500.30 224.80v-21.00" class="stroke"/>
<use x="521.00" y="221.80" xlink:href="#hd"/>
<path d="M524.50 221.80v-21.00" class="stroke"/>
<use x="545.20" y="233.80" xlink:href="#hd"/>
<path d="M548.70 233.80v-21.00" class="stroke"/>
<use x="569.40" y="221.80" xlink:href="#hd"/>
<path d="M572.90 221.80v-21.00" class="stroke"/>
<use x="601.10" y="221.80" xlink:href="#hd"/>
<path d="M604.60 221.80v-21.00" class="stroke"/>
<use x="625.20" y="218.80" xlink:href="#hd"/>
<path d="M628.70 218.80v-21.00" class="stroke"/>
<use x="649.70" y="215.80" xlink:href="#hd"/>
<path d="M646.20 215.80v21.00" class="stroke"/>
<use x="673.90" y="212.80" xlink:href="#hd"/>
<path d="M670.40 212.80v21.00" class="stroke"/>
<use x="22.00" y="270.80" xlink:href="#bclef"/>
<use x="37.00" y="270.80" xlink:href="#sh0"/>
<use x="42.50" y="279.80" xlink:href="#sh0"/>
<use x="63.00" y="294.80" xlink:href="#hl1"/>
<use x="63.00" y="300.80" xlink:href="#hl1"/>
<use x="63.00" y="306.80" xlink:href="#hl1"/>
<use x="63.00" y="306.80" xlink:href="#HD"/>
<use x="63.00" y="285.80" xlink:href="#HD"/>
<use x="63.00" y="279.80" xlink:href="#HD"/>
<use x="63.00" y="273.80" xlink:href="#HD"/>
<use x="175.60" y="294.80" xlink:href="#hl1"/>
<use x="175.60" y="300.80" xlink:href="#hl1"/>
<use x="175.60" y="303.80" xlink:href="#HD"/>
<use x="175.60" y="282.80" xlink:href="#HD"/>
<use x="175.60" y="276.80" xlink:href="#HD"/>
<use x="175.60" y="270.80" xlink:href="#HD"/>
<use x="277.50" y="294.80" xlink:href="#hl1"/>
<use x="277.50" y="300.80" xlink:href="#hl1"/>
<use x="277.50" y="306.80" xlink:href="#hl1"/>
<use x="277.50" y="312.80" xlink:href="#hl1"/>
<use x="277.50" y="318.80" xlink:href="#hl1"/>
<use x="277.50" y="318.80" xlink:href="#HD"/>
<use x="277.50" y="297.80" xlink:href="#HD"/>
<use x="277.50" y="291.80" xlink:href="#HD"/>
<use x="277.50" y="285.80" xlink:href="#HD"/>
<use x="393.60" y="294.80" xlink:href="#hl1"/>
<use x="393.60" y="300.80" xlink:href="#hl1"/>
<use x="393.60" y="306.80" xlink:href="#hl1"/>
<use x="393.60" y="312.80" xlink:href="#hl1"/>
<use x="393.60" y="318.80" xlink:href="#hl1"/>
<use x="393.60" y="318.80" xlink:href="#HD"/>
<use x="393.60" y="297.80" xlink:href="#HD"/>
<use x="393.60" y="291.80" xlink:href="#HD"/>
<use x="393.60" y="285.80" xlink:href="#HD"/>
<use x="497.80" y="294.80" xlink:href="#hl1"/>
<use x="497.80" y="300.80" xlink:href="#hl1"/>
<use x="497.80" y="306.80" xlink:href="#hl1"/>
<use x="497.80" y="312.80" xlink:href="#hl1"/>
<use x="497.80" y="315.80" xlink:href="#HD"/>
<use x="497.80" y="294.80" xlink:href="#HD"/>
<use x="497.80" y="288.80" xlink:href="#HD"/>
<use x="497.80" y="282.80" xlink:href="#HD"/>
<use x="602.10" y="294.80" xlink:href="#hl1"/>
<use x="602.10" y="300.80" xlink:href="#hl1"/>
<use x="602.10" y="306.80" xlink:href="#hl1"/>
<use x="602.10" y="312.80" xlink:href="#hl1"/>
<use x="602.10" y="318.80" xlink:href="#hl1"/>
<use x="602.10" y="318.80" xlink:href="#HD"/>
<use x="602.10" y="297.80" xlink:href="#HD"/>
<use x="602.10" y="291.80" xlink:href="#HD"/>
<use x="602.10" y="285.80" xlink:href="#HD"/>
</g>
<g stroke-width="0.70" style="font:bold 13.00px Times">
<path class="stroke" stroke-width="1"
	d="M10.00 432.20v-82.00"/>
<g transform="translate(10.00,350.20) scale(1,0.82)">
	<use xlink:href="#brace"/>
</g>
<path class="stroke" stroke-width="1"
	d="M174.90 374.20v-24.00"/>
<path class="stroke" stroke-width="1"
	d="M174.90 432.20v-24.00"/>
<path class="stroke" stroke-width="1"
	d="M300.40 374.20v-24.00"/>
<path class="stroke" stroke-width="1"
	d="M300.40 432.20v-24.00"/>
<path class="stroke" stroke-width="1"
	d="M427.30 374.20v-24.00"/>
<path class="stroke" stroke-width="1"
	d="M427.30 432.20v-24.00"/>
<path class="stroke" stroke-width="1"
	d="M551.30 374.20v-24.00"/>
<path class="stroke" stroke-width="1"
	d="M551.30 432.20v-24.00"/>
<path class="stroke" stroke-width="1"
	d="M691.60 374.20v-24.00"/>
<path class="stroke" stroke-width="1"
	d="M691.60 432.20v-24.00"/>
<path d="m10.00 374.20
	h681.60
	M10.00 368.20
	h681.60
	M10.00 362.20
	h681.60
	M10.00 356.20
	h681.60
	M10.00 350.20
	h681.60
	" class="stroke"/>
<path d="m10.00 432.20
	h681.60
	M10.00 426.20
	h681.60
	M10.00 420.20
	h681.60
	M10.00 414.20
	h681.60
	M10.00 408.20
	h681.60
	" class="stroke"/>
</g>
<g stroke-width="0.70" style="font:bold 13.00px Times">
<text x="57.40" y="345.60">iii</text>
</g>
<g stroke-width="0.70" style="font:bold 13.00px Times">
<text x="184.40" y="343.60">ii</text>
</g>
<g stroke-width="0.70" style="font:bold 13.00px Times">
<text x="312.60" y="337.60">I</text>
</g>
<g stroke-width="0.70" style="font:bold 13.00px Times">
<text x="437.10" y="345.60">vi</text>
</g>
<g stroke-width="0.70" style="font:bold 13.00px Times">
<text x="559.10" y="334.60">vi<tspan
	 style="font:italic 11.00px Times">¹</tspan></text>
</g>
<g stroke-width="0.70" style="font:italic 11.00px Times">
<use x="22.00" y="368.20" xlink:href="#tclef"/>
<use x="37.00" y="350.20" xlink:href="#sh0"/>
<use x="42.50" y="359.20" xlink:href="#sh0"/>
<use x="62.00" y="359.20" xlink:href="#hd"/>
<path d="M58.50 359.20v21.00" class="stroke"/>
<use x="92.40" y="356.20" xlink:href="#hd"/>
<path d="M88.90 356.20v21.00" class="stroke"/>
<use x="122.90" y="359.20" xlink:href="#hd"/>
<path d="M119.40 359.20v21.00" class="stroke"/>
<use x="153.30" y="362.20" xlink:href="#hd"/>
<path d="M149.80 362.20v21.00" class="stroke"/>
<use x="187.40" y="362.20" xlink:href="#hd"/>
<path d="M183.90 362.20v21.00" class="stroke"/>
<use x="217.90" y="365.20" xlink:href="#hd"/>
<path d="M221.40 365.20v-21.00" class="stroke"/>
<use x="248.30" y="362.20" xlink:href="#hd"/>
<path d="M251.80 362.20v-21.00" class="stroke"/>
<use x="278.80" y="362.20" xlink:href="#hd"/>
<path d="M282.30 362.20v-21.00" class="stroke"/>
<use x="314.40" y="365.20" xlink:href="#hd"/>
<path d="M317.90 365.20v-21.00" class="stroke"/>
<use x="344.80" y="362.20" xlink:href="#hd"/>
<path d="M348.30 362.20v-21.00" class="stroke"/>
<use x="375.30" y="368.20" xlink:href="#hd"/>
<path d="M378.80 368.20v-21.00" class="stroke"/>
<use x="405.70" y="371.20" xlink:href="#hd"/>
<path d="M409.20 371.20v-21.00" class="stroke"/>
<use x="441.30" y="356.20" xlink:href="#hd"/>
<path d="M437.80 356.20v21.00" class="stroke"/>
<use x="471.80" y="359.20" xlink:href="#hd"/>
<path d="M468.30 359.20v21.00" class="stroke"/>
<use x="502.20" y="362.20" xlink:href="#hd"/>
<path d="M498.70 362.20v21.00" class="stroke"/>
<use x="529.60" y="365.20" xlink:href="#hd"/>
<path d="M533.10 365.20v-21.00" class="stroke"/>
<use x="565.30" y="362.20" xlink:href="#hd"/>
<path d="M568.80 362.20v-21.00" class="stroke"/>
<use x="595.70" y="368.20" xlink:href="#hd"/>
<path d="M599.20 368.20v-21.00" class="stroke"/>
<path class="fill"
	d="M599.20 347.20c0.6 5.6 9.6 9 5.6 18.4
	1.6 -6 -1.3 -11.6 -5.6 -12.8
"/>
<use x="617.60" y="371.20" xlink:href="#hd"/>
<path d="M621.10 371.20v-21.00" class="stroke"/>
<path class="fill"
	d="M621.10 350.20c0.6 5.6 9.6 9 5.6 18.4
	1.6 -6 -1.3 -11.6 -5.6 -12.8
"/>
<use x="639.50" y="374.20" xlink:href="#hd"/>
<path d="M643.00 374.20v-21.00" class="stroke"/>
<use x="670.00" y="377.20" xlink:href="#hd"/>
<path d="M673.50 377.20v-21.00" class="stroke"/>
<use x="22.00" y="414.20" xlink:href="#bclef"/>
<use x="37.00" y="414.20" xlink:href="#sh0"/>
<use x="42.50" y="423.20" xlink:href="#sh0"/>
<use x="63.00" y="438.20" xlink:href="#hl1"/>
<use x="63.00" y="444.20" xlink:href="#hl1"/>
<use x="63.00" y="450.20" xlink:href="#hl1"/>
<use x="63.00" y="456.20" xlink:href="#hl1"/>
<use x="63.00" y="456.20" xlink:href="#HD"/>
<use x="63.00" y="435.20" xlink:href="#HD"/>
<use x="63.00" y="429.20" xlink:href="#HD"/>
<use x="63.00" y="423.20" xlink:href="#HD"/>
<use x="187.40" y="426.20" xlink:href="#hd"/>
<path d="M190.90 426.20v-21.00" class="stroke"/>
<use x="217.90" y="432.20" xlink:href="#hd"/>
<path d="M221.40 432.20v-21.00" class="stroke"/>
<use x="248.30" y="438.20" xlink:href="#hl"/>
<use x="248.30" y="438.20" xlink:href="#Hd"/>
<path d="M251.80 438.20v-21.00" class="stroke"/>
<use x="315.40" y="438.20" xlink:href="#hl1"/>
<use x="315.40" y="444.20" xlink:href="#hl1"/>
<use x="315.40" y="450.20" xlink:href="#hl1"/>
<use x="315.40" y="456.20" xlink:href="#hl1"/>
<use x="315.40" y="462.20" xlink:href="#hl1"/>
<use x="315.40" y="462.20" xlink:href="#HD"/>
<use x="315.40" y="441.20" xlink:href="#HD"/>
<use x="315.40" y="435.20" xlink:href="#HD"/>
<use x="315.40" y="429.20" xlink:href="#HD"/>
<use x="442.30" y="438.20" xlink:href="#hl1"/>
<use x="442.30" y="444.20" xlink:href="#hl1"/>
<use x="442.30" y="447.20" xlink:href="#HD"/>
<use x="442.30" y="426.20" xlink:href="#HD"/>
<use x="442.30" y="420.20" xlink:href="#HD"/>
<use x="442.30" y="414.20" xlink:href="#HD"/>
<use x="566.30" y="438.20" xlink:href="#hl1"/>
<use x="566.30" y="444.20" xlink:href="#hl1"/>
<use x="566.30" y="447.20" xlink:href="#HD"/>
<use x="566.30" y="426.20" xlink:href="#HD"/>
<use x="566.30" y="420.20" xlink:href="#HD"/>
<use x="566.30" y="414.20" xlink:href="#HD"/>
</g>
</svg>
