<?xml version="1.0" standalone="no"?>
<!DOCTYPE svg PUBLIC "-//W3C//DTD SVG 1.1//EN"
	"http://www.w3.org/Graphics/SVG/1.1/DTD/svg11.dtd">
<svg xmlns="http://www.w3.org/2000/svg" version="1.1"
	xmlns:xlink="http://www.w3.org/1999/xlink"
	color="black"
	width="701.60px" height="438.80px" viewBox="0 0 701.60 438.80" preserveAspectRatio="xMidYMid meet">
<style type="text/css">
.fill {fill: currentColor}
.stroke {stroke: currentColor; fill: none}
text{white-space: pre}
</style>
<title>/tmp/retab_hymnal_L6/i_m_but_a_stranger_here.abc (1) tune 1</title>
<!-- Creator: abcm2ps-8.14.11 -->
<!-- CreationDate: Apr 24, 2026 15:38 -->
<!-- CommandLine: /tmp/retab_hymnal_L6/i_m_but_a_stranger_here.abc -g -O /tmp/retab_hymnal_L6/i_m_but_a_stranger_here -->
<g stroke-width="0.70">
<!-- title: 108. I'm But A Stranger Here -->
</g>
<g stroke-width="0.70" style="font:20.00px Times">
<text x="350.80" y="22.00" text-anchor="middle">108. I&apos;m But A Stranger Here</text>
</g>
<g stroke-width="0.70" style="font:20.00px Times">
<path class="stroke" stroke-width="1"
	d="M10.00 145.40v-82.00"/>
<defs>
<path id="brace" class="fill" d="m-2.5 101
	c-4.5 -4.6 -7.5 -12.2 -4.4 -26.8
	3.5 -14.3 3.2 -21.7 -2.1 -24.2
	7.4 2.4 7.3 14.2 3.5 29.5
	-2.7 9.5 -1.5 16.2 3 21.5
	M-2.5 1c-4.5 4.6 -7.5 12.2 -4.4 26.8
	c3.5 14.3 3.2 21.7 -2.1 24.2
	7.4 -2.4 7.3 -14.2 3.5 -29.5
	-2.7 -9.5 -1.5 -16.2 3 -21.5"/>
</defs>
<g transform="translate(10.00,63.40) scale(1,0.82)">
	<use xlink:href="#brace"/>
</g>
<path class="stroke" stroke-width="1"
	d="M164.20 87.40v-24.00"/>
<path class="stroke" stroke-width="1"
	d="M164.20 145.40v-24.00"/>
<path class="stroke" stroke-width="1"
	d="M286.10 87.40v-24.00"/>
<path class="stroke" stroke-width="1"
	d="M286.10 145.40v-24.00"/>
<path class="stroke" stroke-width="1"
	d="M408.30 87.40v-24.00"/>
<path class="stroke" stroke-width="1"
	d="M408.30 145.40v-24.00"/>
<path class="stroke" stroke-width="1"
	d="M463.50 87.40v-24.00"/>
<path class="stroke" stroke-width="1"
	d="M463.50 145.40v-24.00"/>
<path class="stroke" stroke-width="1"
	d="M569.30 87.40v-24.00"/>
<path class="stroke" stroke-width="1"
	d="M569.30 145.40v-24.00"/>
<path class="stroke" stroke-width="1"
	d="M691.60 87.40v-24.00"/>
<path class="stroke" stroke-width="1"
	d="M691.60 145.40v-24.00"/>
<path d="m10.00 87.40
	h681.60
	M10.00 81.40
	h681.60
	M10.00 75.40
	h681.60
	M10.00 69.40
	h681.60
	M10.00 63.40
	h681.60
	" class="stroke"/>
<path d="m10.00 145.40
	h681.60
	M10.00 139.40
	h681.60
	M10.00 133.40
	h681.60
	M10.00 127.40
	h681.60
	M10.00 121.40
	h681.60
	" class="stroke"/>
</g>
<g stroke-width="0.70" style="font:bold 13.00px Times">
<text x="70.70" y="53.80">I</text>
</g>
<g stroke-width="0.70" style="font:bold 13.00px Times">
<text x="170.80" y="53.80">V<tspan
	 style="font:italic 11.00px Times">⁷</tspan></text>
</g>
<g stroke-width="0.70" style="font:bold 13.00px Times">
<text x="291.30" y="56.80">V<tspan
	 style="font:italic 11.00px Times">⁷¹</tspan></text>
</g>
<g stroke-width="0.70" style="font:bold 13.00px Times">
<text x="420.50" y="58.80">I</text>
</g>
<g stroke-width="0.70" style="font:bold 13.00px Times">
<text x="475.70" y="58.80">I</text>
</g>
<g stroke-width="0.70" style="font:bold 13.00px Times">
<text x="575.80" y="47.80">iii<tspan
	 style="font:italic 11.00px Times">²</tspan></text>
</g>
<g stroke-width="0.70" style="font:italic 11.00px Times">
<defs>
<path id="utclef" class="fill" d="m-50 -90
	c-72 -41 -72 -158 52 -188
	150 -10 220 188 90 256
	-114 52 -275 0 -293 -136
	-15 -181 93 -229 220 -334
	88 -87 79 -133 62 -210
	-51 33 -94 105 -89 186
	17 267 36 374 49 574
	6 96 -19 134 -77 135
	-80 1 -126 -93 -61 -133
	85 -41 133 101 31 105
	23 17 92 37 90 -92
	-10 -223 -39 -342 -50 -617
	0 -90 0 -162 96 -232
	56 72 63 230 22 289
	-74 106 -257 168 -255 316
	9 153 148 185 252 133
	86 -65 29 -192 -80 -176
	-71 12 -105 67 -59 124"/>
<use id="tclef" transform="translate(0,6) scale(0.045)"
	xlink:href="#utclef"/>
</defs>
<use x="22.00" y="81.40" xlink:href="#tclef"/>
<defs>
<path id="usharp" class="fill" d="
	m136 -702
	v890
	h32
	v-890
	m128 840
	h32
	v-888
	h-32
	m-232 286
	v116
	l338 -96
	v-116
	m-338 442
	v116
	l338 -98
	v-114"/>
<use id="sh0" transform="translate(-4,5) scale(0.018)"
	xlink:href="#usharp"/>
</defs>
<use x="37.00" y="63.40" xlink:href="#sh0"/>
<g style="font:bold 16px serif"
	transform="translate(53.00,86.90) scale(1.2,1)">
	<text text-anchor="middle">4</text>
	<text y="-12" text-anchor="middle">4</text>
</g>
<defs>
<path id="Hd" class="fill" d="m3 -1.6
	c-1 -1.8 -7 1.4 -6 3.2
	1 1.8 7 -1.4 6 -3.2
	m0.5 -0.3
	c2 3.8 -5 7.6 -7 3.8
	-2 -3.8 5 -7.6 7 -3.8"/>
</defs>
<use x="72.50" y="81.40" xlink:href="#Hd"/>
<path d="M76.00 81.40v-21.00" class="stroke"/>
<defs>
<ellipse id="hd" rx="4.1" ry="2.9"
	transform="rotate(-20)" class="fill"/>
</defs>
<use x="113.90" y="81.40" xlink:href="#hd"/>
<path d="M117.40 81.40v-21.00" class="stroke"/>
<use x="143.20" y="81.40" xlink:href="#hd"/>
<path d="M146.70 81.40v-21.00" class="stroke"/>
<use x="176.70" y="81.40" xlink:href="#hd"/>
<path d="M180.20 81.40v-21.00" class="stroke"/>
<use x="206.30" y="84.40" xlink:href="#hd"/>
<path d="M209.80 84.40v-21.00" class="stroke"/>
<use x="235.70" y="78.40" xlink:href="#Hd"/>
<path d="M239.20 78.40v-21.00" class="stroke"/>
<use x="299.10" y="90.40" xlink:href="#Hd"/>
<path d="M302.60 90.40v-21.00" class="stroke"/>
<use x="357.90" y="90.40" xlink:href="#hd"/>
<path d="M361.40 90.40v-21.00" class="stroke"/>
<use x="387.30" y="87.40" xlink:href="#hd"/>
<path d="M390.80 87.40v-21.00" class="stroke"/>
<defs>
<path id="HD" class="fill" d="m-2.7 -1.4
	c1.5 -2.8 6.9 0 5.3 2.7
	-1.5 2.8 -6.9 0 -5.3 -2.7
	m8.3 1.4
	c0 -1.5 -2.2 -3 -5.6 -3
	-3.4 0 -5.6 1.5 -5.6 3
	0 1.5 2.2 3 5.6 3
	3.4 0 5.6 -1.5 5.6 -3"/>
</defs>
<use x="423.30" y="90.40" xlink:href="#HD"/>
<use x="477.50" y="90.40" xlink:href="#Hd"/>
<path d="M481.00 90.40v-21.00" class="stroke"/>
<use x="518.90" y="75.40" xlink:href="#hd"/>
<path d="M522.40 75.40v-21.00" class="stroke"/>
<use x="548.30" y="75.40" xlink:href="#hd"/>
<path d="M551.80 75.40v-21.00" class="stroke"/>
<use x="582.30" y="75.40" xlink:href="#hd"/>
<path d="M585.80 75.40v-21.00" class="stroke"/>
<use x="611.70" y="78.40" xlink:href="#hd"/>
<path d="M615.20 78.40v-21.00" class="stroke"/>
<use x="641.20" y="69.40" xlink:href="#Hd"/>
<path d="M637.70 69.40v21.00" class="stroke"/>
<defs>
<path id="ubclef" class="fill" d="m-200 -87
	c124 -35 222 -78 254 -236
	43 -228 -167 -246 -192 -103
	59 -80 157 22 92 78
	-62 47 -115 -22 -106 -88
	21 -141 270 -136 274 52
	-1 175 -106 264 -322 297
	m357 -250
	c0 -36 51 -34 51 0
	0 37 -51 36 -51 0
	m-2 -129
	c0 -36 51 -34 51 0
	0 38 -51 37 -51 0"/>
<use id="bclef" transform="translate(0,18) scale(0.045)"
	xlink:href="#ubclef"/>
</defs>
<use x="22.00" y="127.40" xlink:href="#bclef"/>
<use x="37.00" y="127.40" xlink:href="#sh0"/>
<g style="font:bold 16px serif"
	transform="translate(53.00,144.90) scale(1.2,1)">
	<text text-anchor="middle">4</text>
	<text y="-12" text-anchor="middle">4</text>
</g>
<defs>
<path id="hl1" class="stroke" d="m-7 0h14"/>
</defs>
<use x="73.50" y="151.40" xlink:href="#hl1"/>
<use x="73.50" y="157.40" xlink:href="#hl1"/>
<use x="73.50" y="163.40" xlink:href="#hl1"/>
<use x="73.50" y="166.40" xlink:href="#HD"/>
<use x="73.50" y="145.40" xlink:href="#HD"/>
<use x="73.50" y="139.40" xlink:href="#HD"/>
<use x="73.50" y="133.40" xlink:href="#HD"/>
<use x="176.70" y="133.40" xlink:href="#hd"/>
<path d="M180.20 133.40v-21.00" class="stroke"/>
<use x="206.30" y="127.40" xlink:href="#hd"/>
<path d="M202.80 127.40v21.00" class="stroke"/>
<use x="235.70" y="121.40" xlink:href="#hd"/>
<path d="M232.20 121.40v21.00" class="stroke"/>
<use x="265.10" y="127.40" xlink:href="#hd"/>
<path d="M261.60 127.40v21.00" class="stroke"/>
<use x="299.10" y="133.40" xlink:href="#hd"/>
<path d="M295.60 133.40v21.00" class="stroke"/>
<use x="328.50" y="127.40" xlink:href="#hd"/>
<path d="M325.00 127.40v21.00" class="stroke"/>
<use x="357.90" y="121.40" xlink:href="#Hd"/>
<path d="M354.40 121.40v21.00" class="stroke"/>
<use x="423.30" y="151.40" xlink:href="#hl1"/>
<use x="423.30" y="157.40" xlink:href="#hl1"/>
<use x="423.30" y="163.40" xlink:href="#hl1"/>
<use x="423.30" y="166.40" xlink:href="#HD"/>
<use x="423.30" y="145.40" xlink:href="#HD"/>
<use x="423.30" y="139.40" xlink:href="#HD"/>
<use x="423.30" y="133.40" xlink:href="#HD"/>
<use x="478.50" y="151.40" xlink:href="#hl1"/>
<use x="478.50" y="157.40" xlink:href="#hl1"/>
<use x="478.50" y="163.40" xlink:href="#hl1"/>
<use x="478.50" y="166.40" xlink:href="#HD"/>
<use x="478.50" y="145.40" xlink:href="#HD"/>
<use x="478.50" y="139.40" xlink:href="#HD"/>
<use x="478.50" y="133.40" xlink:href="#HD"/>
<use x="582.30" y="139.40" xlink:href="#Hd"/>
<path d="M585.80 139.40v-31.00" class="stroke"/>
<use x="582.30" y="133.40" xlink:href="#Hd"/>
<use x="582.30" y="127.40" xlink:href="#Hd"/>
<use x="641.20" y="139.40" xlink:href="#hd"/>
<path d="M644.70 139.40v-21.00" class="stroke"/>
<use x="670.60" y="133.40" xlink:href="#hd"/>
<path d="M674.10 133.40v-21.00" class="stroke"/>
</g>
<g stroke-width="0.70" style="font:italic 11.00px Times">
<path class="stroke" stroke-width="1"
	d="M10.00 277.40v-82.00"/>
<g transform="translate(10.00,195.40) scale(1,0.82)">
	<use xlink:href="#brace"/>
</g>
<path class="stroke" stroke-width="1"
	d="M145.90 219.40v-24.00"/>
<path class="stroke" stroke-width="1"
	d="M145.90 277.40v-24.00"/>
<path class="stroke" stroke-width="1"
	d="M267.60 219.40v-24.00"/>
<path class="stroke" stroke-width="1"
	d="M267.60 277.40v-24.00"/>
<path class="stroke" stroke-width="1"
	d="M388.20 219.40v-24.00"/>
<path class="stroke" stroke-width="1"
	d="M388.20 277.40v-24.00"/>
<path class="stroke" stroke-width="1"
	d="M489.10 219.40v-24.00"/>
<path class="stroke" stroke-width="1"
	d="M489.10 277.40v-24.00"/>
<path class="stroke" stroke-width="1"
	d="M590.70 219.40v-24.00"/>
<path class="stroke" stroke-width="1"
	d="M590.70 277.40v-24.00"/>
<path class="stroke" stroke-width="1"
	d="M691.60 219.40v-24.00"/>
<path class="stroke" stroke-width="1"
	d="M691.60 277.40v-24.00"/>
<path d="m10.00 219.40
	h681.60
	M10.00 213.40
	h681.60
	M10.00 207.40
	h681.60
	M10.00 201.40
	h681.60
	M10.00 195.40
	h681.60
	" class="stroke"/>
<path d="m10.00 277.40
	h681.60
	M10.00 271.40
	h681.60
	M10.00 265.40
	h681.60
	M10.00 259.40
	h681.60
	M10.00 253.40
	h681.60
	" class="stroke"/>
</g>
<g stroke-width="0.70" style="font:bold 13.00px Times">
<text x="47.50" y="182.80">vii○<tspan
	 style="font:italic 11.00px Times">¹</tspan></text>
</g>
<g stroke-width="0.70" style="font:bold 13.00px Times">
<text x="156.00" y="188.80">V</text>
</g>
<g stroke-width="0.70" style="font:bold 13.00px Times">
<text x="274.70" y="182.80">V<tspan
	 style="font:italic 11.00px Times">⁷</tspan></text>
</g>
<g stroke-width="0.70" style="font:bold 13.00px Times">
<text x="398.50" y="182.80">I<tspan
	 style="font:italic 11.00px Times">²</tspan></text>
</g>
<g stroke-width="0.70" style="font:bold 13.00px Times">
<text x="497.20" y="190.80">V<tspan
	 style="font:italic 11.00px Times">⁷</tspan></text>
</g>
<g stroke-width="0.70" style="font:bold 13.00px Times">
<text x="602.90" y="182.80">I</text>
<use x="22.00" y="213.40" xlink:href="#tclef"/>
<use x="37.00" y="195.40" xlink:href="#sh0"/>
<use x="55.50" y="210.40" xlink:href="#Hd"/>
<path d="M59.00 210.40v-21.00" class="stroke"/>
<use x="96.30" y="216.40" xlink:href="#hd"/>
<path d="M99.80 216.40v-21.00" class="stroke"/>
<use x="125.20" y="219.40" xlink:href="#hd"/>
<path d="M128.70 219.40v-21.00" class="stroke"/>
<use x="160.90" y="222.40" xlink:href="#HD"/>
<use x="280.60" y="210.40" xlink:href="#Hd"/>
<path d="M284.10 210.40v-21.00" class="stroke"/>
<use x="338.60" y="207.40" xlink:href="#hd"/>
<path d="M342.10 207.40v-21.00" class="stroke"/>
<use x="367.50" y="210.40" xlink:href="#hd"/>
<path d="M371.00 210.40v-21.00" class="stroke"/>
<use x="402.20" y="210.40" xlink:href="#hd"/>
<path d="M405.70 210.40v-21.00" class="stroke"/>
<use x="431.20" y="213.40" xlink:href="#hd"/>
<path d="M434.70 213.40v-21.00" class="stroke"/>
<use x="460.20" y="222.40" xlink:href="#Hd"/>
<path d="M463.70 222.40v-21.00" class="stroke"/>
<use x="503.10" y="204.40" xlink:href="#Hd"/>
<path d="M499.60 204.40v21.00" class="stroke"/>
<use x="543.90" y="207.40" xlink:href="#hd"/>
<path d="M540.40 207.40v21.00" class="stroke"/>
<use x="570.00" y="210.40" xlink:href="#hd"/>
<path d="M573.50 210.40v-21.00" class="stroke"/>
<use x="604.70" y="210.40" xlink:href="#hd"/>
<path d="M608.20 210.40v-21.00" class="stroke"/>
<use x="633.70" y="213.40" xlink:href="#hd"/>
<path d="M637.20 213.40v-21.00" class="stroke"/>
<use x="662.60" y="222.40" xlink:href="#Hd"/>
<path d="M666.10 222.40v-21.00" class="stroke"/>
<use x="22.00" y="259.40" xlink:href="#bclef"/>
<use x="37.00" y="259.40" xlink:href="#sh0"/>
<use x="55.50" y="277.40" xlink:href="#Hd"/>
<path d="M59.00 277.40v-31.00" class="stroke"/>
<use x="55.50" y="271.40" xlink:href="#Hd"/>
<use x="55.50" y="265.40" xlink:href="#Hd"/>
<use x="96.30" y="265.40" xlink:href="#hd"/>
<path d="M99.80 265.40v-21.00" class="stroke"/>
<use x="125.20" y="271.40" xlink:href="#hd"/>
<path d="M128.70 271.40v-21.00" class="stroke"/>
<use x="159.90" y="265.40" xlink:href="#hd"/>
<path d="M163.40 265.40v-21.00" class="stroke"/>
<use x="189.00" y="259.40" xlink:href="#hd"/>
<path d="M185.50 259.40v21.00" class="stroke"/>
<use x="218.00" y="253.40" xlink:href="#hd"/>
<path d="M214.50 253.40v21.00" class="stroke"/>
<use x="246.90" y="259.40" xlink:href="#hd"/>
<path d="M243.40 259.40v21.00" class="stroke"/>
<use x="280.60" y="265.40" xlink:href="#hd"/>
<path d="M277.10 265.40v21.00" class="stroke"/>
<use x="309.60" y="259.40" xlink:href="#hd"/>
<path d="M306.10 259.40v21.00" class="stroke"/>
<use x="338.60" y="253.40" xlink:href="#Hd"/>
<path d="M335.10 253.40v21.00" class="stroke"/>
<use x="403.20" y="283.40" xlink:href="#hl1"/>
<use x="403.20" y="289.40" xlink:href="#hl1"/>
<use x="403.20" y="295.40" xlink:href="#hl1"/>
<use x="403.20" y="298.40" xlink:href="#HD"/>
<use x="403.20" y="277.40" xlink:href="#HD"/>
<use x="403.20" y="271.40" xlink:href="#HD"/>
<use x="403.20" y="265.40" xlink:href="#HD"/>
<use x="504.10" y="283.40" xlink:href="#hl1"/>
<use x="504.10" y="286.40" xlink:href="#HD"/>
<use x="504.10" y="265.40" xlink:href="#HD"/>
<use x="504.10" y="259.40" xlink:href="#HD"/>
<use x="504.10" y="253.40" xlink:href="#HD"/>
<use x="605.70" y="283.40" xlink:href="#hl1"/>
<use x="605.70" y="289.40" xlink:href="#hl1"/>
<use x="605.70" y="295.40" xlink:href="#hl1"/>
<use x="605.70" y="298.40" xlink:href="#HD"/>
<use x="605.70" y="277.40" xlink:href="#HD"/>
<use x="605.70" y="271.40" xlink:href="#HD"/>
<use x="605.70" y="265.40" xlink:href="#HD"/>
</g>
<g stroke-width="0.70" style="font:bold 13.00px Times">
<path class="stroke" stroke-width="1"
	d="M10.00 411.80v-82.00"/>
<g transform="translate(10.00,329.80) scale(1,0.82)">
	<use xlink:href="#brace"/>
</g>
<path class="stroke" stroke-width="1"
	d="M209.00 353.80v-24.00"/>
<path class="stroke" stroke-width="1"
	d="M209.00 411.80v-24.00"/>
<path class="stroke" stroke-width="1"
	d="M407.40 353.80v-24.00"/>
<path class="stroke" stroke-width="1"
	d="M407.40 411.80v-24.00"/>
<path class="stroke" stroke-width="1"
	d="M605.80 353.80v-24.00"/>
<path class="stroke" stroke-width="1"
	d="M605.80 411.80v-24.00"/>
<path class="stroke" stroke-width="1"
	d="M691.60 353.80v-24.00"/>
<path class="stroke" stroke-width="1"
	d="M691.60 411.80v-24.00"/>
<path d="m10.00 353.80
	h681.60
	M10.00 347.80
	h681.60
	M10.00 341.80
	h681.60
	M10.00 335.80
	h681.60
	M10.00 329.80
	h681.60
	" class="stroke"/>
<path d="m10.00 411.80
	h681.60
	M10.00 405.80
	h681.60
	M10.00 399.80
	h681.60
	M10.00 393.80
	h681.60
	M10.00 387.80
	h681.60
	" class="stroke"/>
</g>
<g stroke-width="0.70" style="font:bold 13.00px Times">
<text x="52.30" y="314.20">vi</text>
</g>
<g stroke-width="0.70" style="font:bold 13.00px Times">
<text x="220.10" y="325.20">vi<tspan
	 style="font:italic 11.00px Times">²</tspan></text>
</g>
<g stroke-width="0.70" style="font:bold 13.00px Times">
<text x="420.90" y="320.20">I<tspan
	 style="font:italic 11.00px Times">²</tspan></text>
</g>
<g stroke-width="0.70" style="font:bold 13.00px Times">
<text x="621.30" y="325.20">I</text>
<use x="22.00" y="347.80" xlink:href="#tclef"/>
<use x="37.00" y="329.80" xlink:href="#sh0"/>
<use x="56.50" y="341.80" xlink:href="#Hd"/>
<path d="M60.00 341.80v-21.00" class="stroke"/>
<use x="125.80" y="332.80" xlink:href="#hd"/>
<path d="M122.30 332.80v21.00" class="stroke"/>
<use x="174.70" y="335.80" xlink:href="#hd"/>
<path d="M171.20 335.80v21.00" class="stroke"/>
<use x="226.30" y="335.80" xlink:href="#hd"/>
<path d="M222.80 335.80v21.00" class="stroke"/>
<use x="275.20" y="338.80" xlink:href="#hd"/>
<path d="M271.70 338.80v21.00" class="stroke"/>
<use x="324.20" y="341.80" xlink:href="#hd"/>
<path d="M320.70 341.80v21.00" class="stroke"/>
<use x="373.10" y="344.80" xlink:href="#hd"/>
<path d="M376.60 344.80v-21.00" class="stroke"/>
<use x="424.70" y="347.80" xlink:href="#Hd"/>
<path d="M428.20 347.80v-21.00" class="stroke"/>
<use x="522.60" y="344.80" xlink:href="#hd"/>
<path d="M526.10 344.80v-21.00" class="stroke"/>
<use x="571.50" y="350.80" xlink:href="#hd"/>
<path d="M575.00 350.80v-21.00" class="stroke"/>
<use x="624.10" y="347.80" xlink:href="#HD"/>
<use x="22.00" y="393.80" xlink:href="#bclef"/>
<use x="37.00" y="393.80" xlink:href="#sh0"/>
<use x="57.50" y="417.80" xlink:href="#hl1"/>
<use x="57.50" y="417.80" xlink:href="#HD"/>
<use x="57.50" y="396.80" xlink:href="#HD"/>
<use x="57.50" y="390.80" xlink:href="#HD"/>
<use x="57.50" y="384.80" xlink:href="#HD"/>
<use x="226.30" y="384.80" xlink:href="#Hd"/>
<path d="M222.80 384.80v31.00" class="stroke"/>
<use x="226.30" y="396.80" xlink:href="#Hd"/>
<use x="226.30" y="390.80" xlink:href="#Hd"/>
<use x="324.20" y="390.80" xlink:href="#hd"/>
<path d="M320.70 390.80v21.00" class="stroke"/>
<use x="373.10" y="384.80" xlink:href="#hd"/>
<path d="M369.60 384.80v21.00" class="stroke"/>
<use x="424.70" y="411.80" xlink:href="#hd"/>
<path d="M428.20 411.80v-21.00" class="stroke"/>
<use x="473.60" y="405.80" xlink:href="#hd"/>
<path d="M477.10 405.80v-21.00" class="stroke"/>
<use x="522.60" y="399.80" xlink:href="#Hd"/>
<path d="M526.10 399.80v-21.00" class="stroke"/>
<use x="624.10" y="417.80" xlink:href="#hl1"/>
<use x="624.10" y="423.80" xlink:href="#hl1"/>
<use x="624.10" y="429.80" xlink:href="#hl1"/>
<use x="624.10" y="432.80" xlink:href="#HD"/>
<use x="624.10" y="411.80" xlink:href="#HD"/>
<use x="624.10" y="405.80" xlink:href="#HD"/>
<use x="624.10" y="399.80" xlink:href="#HD"/>
</g>
</svg>
