<?xml version="1.0" standalone="no"?>
<!DOCTYPE svg PUBLIC "-//W3C//DTD SVG 1.1//EN"
	"http://www.w3.org/Graphics/SVG/1.1/DTD/svg11.dtd">
<svg xmlns="http://www.w3.org/2000/svg" version="1.1"
	xmlns:xlink="http://www.w3.org/1999/xlink"
	color="black"
	width="701.60px" height="302.00px" viewBox="0 0 701.60 302.00" preserveAspectRatio="xMidYMid meet">
<style type="text/css">
.fill {fill: currentColor}
.stroke {stroke: currentColor; fill: none}
text{white-space: pre}
</style>
<title>/tmp/retab_hymnal_L6/in_his_temple_now_behold_him.abc (1) tune 1</title>
<!-- Creator: abcm2ps-8.14.11 -->
<!-- CreationDate: Apr 24, 2026 15:38 -->
<!-- CommandLine: /tmp/retab_hymnal_L6/in_his_temple_now_behold_him.abc -g -O /tmp/retab_hymnal_L6/in_his_temple_now_behold_him -->
<g stroke-width="0.70">
<!-- title: 112. In His Temple Now Behold Him -->
</g>
<g stroke-width="0.70" style="font:20.00px Times">
<text x="350.80" y="22.00" text-anchor="middle">112. In His Temple Now Behold Him</text>
</g>
<g stroke-width="0.70" style="font:20.00px Times">
<path class="stroke" stroke-width="1"
	d="M10.00 143.00v-82.00"/>
<defs>
<path id="brace" class="fill" d="m-2.5 101
	c-4.5 -4.6 -7.5 -12.2 -4.4 -26.8
	3.5 -14.3 3.2 -21.7 -2.1 -24.2
	7.4 2.4 7.3 14.2 3.5 29.5
	-2.7 9.5 -1.5 16.2 3 21.5
	M-2.5 1c-4.5 4.6 -7.5 12.2 -4.4 26.8
	c3.5 14.3 3.2 21.7 -2.1 24.2
	7.4 -2.4 7.3 -14.2 3.5 -29.5
	-2.7 -9.5 -1.5 -16.2 3 -21.5"/>
</defs>
<g transform="translate(10.00,61.00) scale(1,0.82)">
	<use xlink:href="#brace"/>
</g>
<path class="stroke" stroke-width="1"
	d="M163.50 85.00v-24.00"/>
<path class="stroke" stroke-width="1"
	d="M163.50 143.00v-24.00"/>
<path class="stroke" stroke-width="1"
	d="M269.10 85.00v-24.00"/>
<path class="stroke" stroke-width="1"
	d="M269.10 143.00v-24.00"/>
<path class="stroke" stroke-width="1"
	d="M388.10 85.00v-24.00"/>
<path class="stroke" stroke-width="1"
	d="M388.10 143.00v-24.00"/>
<path class="stroke" stroke-width="1"
	d="M475.00 85.00v-24.00"/>
<path class="stroke" stroke-width="1"
	d="M475.00 143.00v-24.00"/>
<path class="stroke" stroke-width="1"
	d="M583.30 85.00v-24.00"/>
<path class="stroke" stroke-width="1"
	d="M583.30 143.00v-24.00"/>
<path class="stroke" stroke-width="1"
	d="M691.60 85.00v-24.00"/>
<path class="stroke" stroke-width="1"
	d="M691.60 143.00v-24.00"/>
<path d="m10.00 85.00
	h681.60
	M10.00 79.00
	h681.60
	M10.00 73.00
	h681.60
	M10.00 67.00
	h681.60
	M10.00 61.00
	h681.60
	" class="stroke"/>
<path d="m10.00 143.00
	h681.60
	M10.00 137.00
	h681.60
	M10.00 131.00
	h681.60
	M10.00 125.00
	h681.60
	M10.00 119.00
	h681.60
	" class="stroke"/>
</g>
<g stroke-width="0.70" style="font:bold 13.00px Times">
<text x="69.70" y="56.40">I</text>
</g>
<g stroke-width="0.70" style="font:bold 13.00px Times">
<text x="168.80" y="54.40">IV<tspan
	 style="font:italic 11.00px Times">¹</tspan></text>
</g>
<g stroke-width="0.70" style="font:bold 13.00px Times">
<text x="278.30" y="51.40">I<tspan
	 style="font:italic 11.00px Times">¹</tspan></text>
</g>
<g stroke-width="0.70" style="font:bold 13.00px Times">
<text x="397.20" y="54.40">V</text>
</g>
<g stroke-width="0.70" style="font:bold 13.00px Times">
<text x="486.20" y="54.40">I</text>
</g>
<g stroke-width="0.70" style="font:bold 13.00px Times">
<text x="592.50" y="51.40">I<tspan
	 style="font:italic 11.00px Times">¹</tspan></text>
</g>
<g stroke-width="0.70" style="font:italic 11.00px Times">
<defs>
<path id="utclef" class="fill" d="m-50 -90
	c-72 -41 -72 -158 52 -188
	150 -10 220 188 90 256
	-114 52 -275 0 -293 -136
	-15 -181 93 -229 220 -334
	88 -87 79 -133 62 -210
	-51 33 -94 105 -89 186
	17 267 36 374 49 574
	6 96 -19 134 -77 135
	-80 1 -126 -93 -61 -133
	85 -41 133 101 31 105
	23 17 92 37 90 -92
	-10 -223 -39 -342 -50 -617
	0 -90 0 -162 96 -232
	56 72 63 230 22 289
	-74 106 -257 168 -255 316
	9 153 148 185 252 133
	86 -65 29 -192 -80 -176
	-71 12 -105 67 -59 124"/>
<use id="tclef" transform="translate(0,6) scale(0.045)"
	xlink:href="#utclef"/>
</defs>
<use x="22.00" y="79.00" xlink:href="#tclef"/>
<defs>
<path id="usharp" class="fill" d="
	m136 -702
	v890
	h32
	v-890
	m128 840
	h32
	v-888
	h-32
	m-232 286
	v116
	l338 -96
	v-116
	m-338 442
	v116
	l338 -98
	v-114"/>
<use id="sh0" transform="translate(-4,5) scale(0.018)"
	xlink:href="#usharp"/>
</defs>
<use x="37.00" y="61.00" xlink:href="#sh0"/>
<g style="font:bold 16px serif"
	transform="translate(53.00,84.50) scale(1.2,1)">
	<text text-anchor="middle">8</text>
	<text y="-12" text-anchor="middle">6</text>
</g>
<defs>
<ellipse id="hd" rx="4.1" ry="2.9"
	transform="rotate(-20)" class="fill"/>
</defs>
<use x="71.50" y="73.00" xlink:href="#hd"/>
<path d="M68.00 73.00v21.00" class="stroke"/>
<use x="100.10" y="67.00" xlink:href="#hd"/>
<path d="M96.60 67.00v21.00" class="stroke"/>
<path class="fill"
	d="M96.60 88.00c0.6 -5.6 9.6 -9 5.6 -18.4
	1.6 6 -1.3 11.6 -5.6 12.8
"/>
<use x="120.70" y="73.00" xlink:href="#hd"/>
<path d="M117.20 73.00v21.00" class="stroke"/>
<use x="146.50" y="79.00" xlink:href="#hd"/>
<path d="M150.00 79.00v-21.00" class="stroke"/>
<path class="fill"
	d="M150.00 58.00c0.6 5.6 9.6 9 5.6 18.4
	1.6 -6 -1.3 -11.6 -5.6 -12.8
"/>
<use x="176.50" y="70.00" xlink:href="#hd"/>
<path d="M173.00 70.00v21.00" class="stroke"/>
<use x="202.40" y="76.00" xlink:href="#hd"/>
<path d="M205.90 76.00v-21.00" class="stroke"/>
<path class="fill"
	d="M205.90 55.00c0.6 5.6 9.6 9 5.6 18.4
	1.6 -6 -1.3 -11.6 -5.6 -12.8
"/>
<use x="223.40" y="82.00" xlink:href="#hd"/>
<path d="M226.90 82.00v-21.00" class="stroke"/>
<use x="252.10" y="88.00" xlink:href="#hd"/>
<path d="M255.60 88.00v-21.00" class="stroke"/>
<path class="fill"
	d="M255.60 67.00c0.6 5.6 9.6 9 5.6 18.4
	1.6 -6 -1.3 -11.6 -5.6 -12.8
"/>
<use x="282.10" y="79.00" xlink:href="#hd"/>
<path d="M285.60 79.00v-21.00" class="stroke"/>
<use x="310.70" y="76.00" xlink:href="#hd"/>
<path d="M314.20 76.00v-21.00" class="stroke"/>
<path class="fill"
	d="M314.20 55.00c0.6 5.6 9.6 9 5.6 18.4
	1.6 -6 -1.3 -11.6 -5.6 -12.8
"/>
<use x="331.70" y="73.00" xlink:href="#hd"/>
<circle class="fill" cx="339.40" cy="70.00" r="1.2"/>
<path d="M335.20 73.00v-21.00" class="stroke"/>
<path class="fill"
	d="M335.20 52.00c0.6 5.6 9.6 9 5.6 18.4
	1.6 -6 -1.3 -11.6 -5.6 -12.8
"/>
<use x="355.80" y="76.00" xlink:href="#hd"/>
<path d="M359.30 76.00v-22.00" class="stroke"/>
<path class="fill"
	d="M359.30 54.00c0.9 3.7 9.1 6.4 6 12.4
	1 -5.4 -4.2 -8.4 -6 -8.4
M359.30 59.40c0.9 3.7 9.1 6.4 6 12.4
	1 -5.4 -4.2 -8.4 -6 -8.4
"/>
<use x="371.10" y="79.00" xlink:href="#hd"/>
<path d="M374.60 79.00v-21.00" class="stroke"/>
<path class="fill"
	d="M374.60 58.00c0.6 5.6 9.6 9 5.6 18.4
	1.6 -6 -1.3 -11.6 -5.6 -12.8
"/>
<use x="401.10" y="82.00" xlink:href="#hd"/>
<path d="M404.60 82.00v-21.00" class="stroke"/>
<path class="fill"
	d="M404.60 61.00c0.6 5.6 9.6 9 5.6 18.4
	1.6 -6 -1.3 -11.6 -5.6 -12.8
"/>
<use x="422.20" y="85.00" xlink:href="#hd"/>
<path d="M425.70 85.00v-21.00" class="stroke"/>
<use x="450.80" y="88.00" xlink:href="#hd"/>
<circle class="fill" cx="458.50" cy="88.00" r="1.2"/>
<path d="M454.30 88.00v-21.00" class="stroke"/>
<use x="488.00" y="82.00" xlink:href="#hd"/>
<path d="M491.50 82.00v-21.00" class="stroke"/>
<use x="516.60" y="76.00" xlink:href="#hd"/>
<path d="M520.10 76.00v-21.00" class="stroke"/>
<path class="fill"
	d="M520.10 55.00c0.6 5.6 9.6 9 5.6 18.4
	1.6 -6 -1.3 -11.6 -5.6 -12.8
"/>
<use x="537.70" y="82.00" xlink:href="#hd"/>
<path d="M541.20 82.00v-21.00" class="stroke"/>
<use x="566.30" y="88.00" xlink:href="#hd"/>
<path d="M569.80 88.00v-21.00" class="stroke"/>
<path class="fill"
	d="M569.80 67.00c0.6 5.6 9.6 9 5.6 18.4
	1.6 -6 -1.3 -11.6 -5.6 -12.8
"/>
<use x="596.30" y="79.00" xlink:href="#hd"/>
<path d="M599.80 79.00v-21.00" class="stroke"/>
<use x="624.90" y="76.00" xlink:href="#hd"/>
<path d="M628.40 76.00v-21.00" class="stroke"/>
<path class="fill"
	d="M628.40 55.00c0.6 5.6 9.6 9 5.6 18.4
	1.6 -6 -1.3 -11.6 -5.6 -12.8
"/>
<use x="646.00" y="73.00" xlink:href="#hd"/>
<path d="M649.50 73.00v-21.00" class="stroke"/>
<use x="674.60" y="79.00" xlink:href="#hd"/>
<path d="M678.10 79.00v-21.00" class="stroke"/>
<path class="fill"
	d="M678.10 58.00c0.6 5.6 9.6 9 5.6 18.4
	1.6 -6 -1.3 -11.6 -5.6 -12.8
"/>
<defs>
<path id="ubclef" class="fill" d="m-200 -87
	c124 -35 222 -78 254 -236
	43 -228 -167 -246 -192 -103
	59 -80 157 22 92 78
	-62 47 -115 -22 -106 -88
	21 -141 270 -136 274 52
	-1 175 -106 264 -322 297
	m357 -250
	c0 -36 51 -34 51 0
	0 37 -51 36 -51 0
	m-2 -129
	c0 -36 51 -34 51 0
	0 38 -51 37 -51 0"/>
<use id="bclef" transform="translate(0,18) scale(0.045)"
	xlink:href="#ubclef"/>
</defs>
<use x="22.00" y="125.00" xlink:href="#bclef"/>
<use x="37.00" y="125.00" xlink:href="#sh0"/>
<g style="font:bold 16px serif"
	transform="translate(53.00,142.50) scale(1.2,1)">
	<text text-anchor="middle">8</text>
	<text y="-12" text-anchor="middle">6</text>
</g>
<defs>
<path id="hl" class="stroke" d="m-6 0h12"/>
</defs>
<use x="71.50" y="149.00" xlink:href="#hl"/>
<use x="71.50" y="155.00" xlink:href="#hl"/>
<use x="71.50" y="161.00" xlink:href="#hl"/>
<defs>
<path id="Hd" class="fill" d="m3 -1.6
	c-1 -1.8 -7 1.4 -6 3.2
	1 1.8 7 -1.4 6 -3.2
	m0.5 -0.3
	c2 3.8 -5 7.6 -7 3.8
	-2 -3.8 5 -7.6 7 -3.8"/>
</defs>
<use x="71.50" y="164.00" xlink:href="#Hd"/>
<circle class="fill" cx="81.20" cy="164.00" r="1.2"/>
<path d="M75.00 164.00v-52.00" class="stroke"/>
<use x="71.50" y="143.00" xlink:href="#Hd"/>
<circle class="fill" cx="81.20" cy="140.00" r="1.2"/>
<use x="71.50" y="137.00" xlink:href="#Hd"/>
<circle class="fill" cx="81.20" cy="134.00" r="1.2"/>
<use x="71.50" y="131.00" xlink:href="#Hd"/>
<circle class="fill" cx="81.20" cy="128.00" r="1.2"/>
<use x="176.50" y="122.00" xlink:href="#Hd"/>
<circle class="fill" cx="185.20" cy="122.00" r="1.2"/>
<path d="M173.00 122.00v31.00" class="stroke"/>
<use x="176.50" y="134.00" xlink:href="#Hd"/>
<circle class="fill" cx="185.20" cy="134.00" r="1.2"/>
<use x="176.50" y="128.00" xlink:href="#Hd"/>
<circle class="fill" cx="185.20" cy="128.00" r="1.2"/>
<use x="282.10" y="149.00" xlink:href="#hl"/>
<use x="282.10" y="155.00" xlink:href="#hl"/>
<use x="282.10" y="161.00" xlink:href="#hl"/>
<use x="282.10" y="164.00" xlink:href="#Hd"/>
<circle class="fill" cx="290.80" cy="164.00" r="1.2"/>
<path d="M285.60 164.00v-52.00" class="stroke"/>
<use x="282.10" y="143.00" xlink:href="#Hd"/>
<circle class="fill" cx="290.80" cy="140.00" r="1.2"/>
<use x="282.10" y="137.00" xlink:href="#Hd"/>
<circle class="fill" cx="290.80" cy="134.00" r="1.2"/>
<use x="282.10" y="131.00" xlink:href="#Hd"/>
<circle class="fill" cx="290.80" cy="128.00" r="1.2"/>
<use x="401.10" y="149.00" xlink:href="#hl"/>
<use x="401.10" y="152.00" xlink:href="#Hd"/>
<circle class="fill" cx="409.80" cy="152.00" r="1.2"/>
<path d="M404.60 152.00v-52.00" class="stroke"/>
<use x="401.10" y="131.00" xlink:href="#Hd"/>
<circle class="fill" cx="409.80" cy="128.00" r="1.2"/>
<use x="401.10" y="125.00" xlink:href="#Hd"/>
<circle class="fill" cx="409.80" cy="122.00" r="1.2"/>
<use x="401.10" y="119.00" xlink:href="#Hd"/>
<circle class="fill" cx="409.80" cy="116.00" r="1.2"/>
<use x="488.00" y="143.00" xlink:href="#Hd"/>
<circle class="fill" cx="496.70" cy="140.00" r="1.2"/>
<path d="M491.50 143.00v-31.00" class="stroke"/>
<use x="488.00" y="137.00" xlink:href="#Hd"/>
<circle class="fill" cx="496.70" cy="134.00" r="1.2"/>
<use x="488.00" y="131.00" xlink:href="#Hd"/>
<circle class="fill" cx="496.70" cy="128.00" r="1.2"/>
<use x="596.30" y="149.00" xlink:href="#hl"/>
<use x="596.30" y="155.00" xlink:href="#hl"/>
<use x="596.30" y="161.00" xlink:href="#hl"/>
<use x="596.30" y="164.00" xlink:href="#Hd"/>
<circle class="fill" cx="605.00" cy="164.00" r="1.2"/>
<path d="M599.80 164.00v-52.00" class="stroke"/>
<use x="596.30" y="143.00" xlink:href="#Hd"/>
<circle class="fill" cx="605.00" cy="140.00" r="1.2"/>
<use x="596.30" y="137.00" xlink:href="#Hd"/>
<circle class="fill" cx="605.00" cy="134.00" r="1.2"/>
<use x="596.30" y="131.00" xlink:href="#Hd"/>
<circle class="fill" cx="605.00" cy="128.00" r="1.2"/>
</g>
<g stroke-width="0.70" style="font:italic 11.00px Times">
<path class="stroke" stroke-width="1"
	d="M10.00 275.00v-82.00"/>
<g transform="translate(10.00,193.00) scale(1,0.82)">
	<use xlink:href="#brace"/>
</g>
<path class="stroke" stroke-width="1"
	d="M163.40 217.00v-24.00"/>
<path class="stroke" stroke-width="1"
	d="M163.40 275.00v-24.00"/>
<path class="stroke" stroke-width="1"
	d="M263.00 217.00v-24.00"/>
<path class="stroke" stroke-width="1"
	d="M263.00 275.00v-24.00"/>
<path class="stroke" stroke-width="1"
	d="M375.70 217.00v-24.00"/>
<path class="stroke" stroke-width="1"
	d="M375.70 275.00v-24.00"/>
<path class="stroke" stroke-width="1"
	d="M488.40 217.00v-24.00"/>
<path class="stroke" stroke-width="1"
	d="M488.40 275.00v-24.00"/>
<path class="stroke" stroke-width="1"
	d="M601.10 217.00v-24.00"/>
<path class="stroke" stroke-width="1"
	d="M601.10 275.00v-24.00"/>
<path class="stroke" stroke-width="1"
	d="M691.60 217.00v-24.00"/>
<path class="stroke" stroke-width="1"
	d="M691.60 275.00v-24.00"/>
<path d="m10.00 217.00
	h681.60
	M10.00 211.00
	h681.60
	M10.00 205.00
	h681.60
	M10.00 199.00
	h681.60
	M10.00 193.00
	h681.60
	" class="stroke"/>
<path d="m10.00 275.00
	h681.60
	M10.00 269.00
	h681.60
	M10.00 263.00
	h681.60
	M10.00 257.00
	h681.60
	M10.00 251.00
	h681.60
	" class="stroke"/>
</g>
<g stroke-width="0.70" style="font:bold 13.00px Times">
<text x="47.80" y="188.40">IV<tspan
	 style="font:italic 11.00px Times">¹</tspan></text>
</g>
<g stroke-width="0.70" style="font:bold 13.00px Times">
<text x="170.90" y="182.40">ii<tspan
	 style="font:italic 11.00px Times">⁷</tspan></text>
</g>
<g stroke-width="0.70" style="font:bold 13.00px Times">
<text x="271.80" y="183.40">vi</text>
</g>
<g stroke-width="0.70" style="font:bold 13.00px Times">
<text x="384.80" y="186.40">V</text>
</g>
<g stroke-width="0.70" style="font:bold 13.00px Times">
<text x="495.70" y="186.40">IV</text>
</g>
<g stroke-width="0.70" style="font:bold 13.00px Times">
<text x="612.30" y="183.40">I</text>
<use x="22.00" y="211.00" xlink:href="#tclef"/>
<use x="37.00" y="193.00" xlink:href="#sh0"/>
<use x="55.50" y="202.00" xlink:href="#hd"/>
<path d="M52.00 202.00v21.00" class="stroke"/>
<use x="85.80" y="205.00" xlink:href="#hd"/>
<path d="M82.30 205.00v21.00" class="stroke"/>
<path class="fill"
	d="M82.30 226.00c0.6 -5.6 9.6 -9 5.6 -18.4
	1.6 6 -1.3 11.6 -5.6 12.8
"/>
<use x="105.40" y="208.00" xlink:href="#hd"/>
<circle class="fill" cx="113.10" cy="208.00" r="1.2"/>
<path d="M108.90 208.00v-21.00" class="stroke"/>
<path class="fill"
	d="M108.90 187.00c0.6 5.6 9.6 9 5.6 18.4
	1.6 -6 -1.3 -11.6 -5.6 -12.8
"/>
<use x="130.50" y="205.00" xlink:href="#hd"/>
<path d="M134.00 205.00v-22.00" class="stroke"/>
<path class="fill"
	d="M134.00 183.00c0.9 3.7 9.1 6.4 6 12.4
	1 -5.4 -4.2 -8.4 -6 -8.4
M134.00 188.40c0.9 3.7 9.1 6.4 6 12.4
	1 -5.4 -4.2 -8.4 -6 -8.4
"/>
<use x="146.40" y="211.00" xlink:href="#hd"/>
<path d="M149.90 211.00v-21.00" class="stroke"/>
<path class="fill"
	d="M149.90 190.00c0.6 5.6 9.6 9 5.6 18.4
	1.6 -6 -1.3 -11.6 -5.6 -12.8
"/>
<use x="175.90" y="211.00" xlink:href="#hd"/>
<path d="M179.40 211.00v-22.00" class="stroke"/>
<path class="fill"
	d="M179.40 189.00c0.9 3.7 9.1 6.4 6 12.4
	1 -5.4 -4.2 -8.4 -6 -8.4
M179.40 194.40c0.9 3.7 9.1 6.4 6 12.4
	1 -5.4 -4.2 -8.4 -6 -8.4
"/>
<use x="191.70" y="214.00" xlink:href="#hd"/>
<path d="M195.20 214.00v-22.00" class="stroke"/>
<path class="fill"
	d="M195.20 192.00c0.9 3.7 9.1 6.4 6 12.4
	1 -5.4 -4.2 -8.4 -6 -8.4
M195.20 197.40c0.9 3.7 9.1 6.4 6 12.4
	1 -5.4 -4.2 -8.4 -6 -8.4
"/>
<use x="207.60" y="214.00" xlink:href="#hd"/>
<path d="M211.10 214.00v-21.00" class="stroke"/>
<use x="237.90" y="217.00" xlink:href="#hd"/>
<circle class="fill" cx="245.60" cy="214.00" r="1.2"/>
<path d="M241.40 217.00v-21.00" class="stroke"/>
<use x="276.00" y="211.00" xlink:href="#hd"/>
<path d="M279.50 211.00v-21.00" class="stroke"/>
<use x="306.40" y="211.00" xlink:href="#hd"/>
<path d="M309.90 211.00v-21.00" class="stroke"/>
<path class="fill"
	d="M309.90 190.00c0.6 5.6 9.6 9 5.6 18.4
	1.6 -6 -1.3 -11.6 -5.6 -12.8
"/>
<use x="328.40" y="208.00" xlink:href="#hd"/>
<path d="M331.90 208.00v-21.00" class="stroke"/>
<use x="358.70" y="208.00" xlink:href="#hd"/>
<path d="M362.20 208.00v-21.00" class="stroke"/>
<path class="fill"
	d="M362.20 187.00c0.6 5.6 9.6 9 5.6 18.4
	1.6 -6 -1.3 -11.6 -5.6 -12.8
"/>
<use x="388.70" y="214.00" xlink:href="#hd"/>
<path d="M392.20 214.00v-21.00" class="stroke"/>
<use x="419.10" y="214.00" xlink:href="#hd"/>
<path d="M422.60 214.00v-21.00" class="stroke"/>
<path class="fill"
	d="M422.60 193.00c0.6 5.6 9.6 9 5.6 18.4
	1.6 -6 -1.3 -11.6 -5.6 -12.8
"/>
<use x="441.10" y="211.00" xlink:href="#hd"/>
<path d="M444.60 211.00v-21.00" class="stroke"/>
<use x="471.40" y="211.00" xlink:href="#hd"/>
<path d="M474.90 211.00v-21.00" class="stroke"/>
<path class="fill"
	d="M474.90 190.00c0.6 5.6 9.6 9 5.6 18.4
	1.6 -6 -1.3 -11.6 -5.6 -12.8
"/>
<use x="501.40" y="217.00" xlink:href="#hd"/>
<path d="M504.90 217.00v-21.00" class="stroke"/>
<use x="531.80" y="217.00" xlink:href="#hd"/>
<path d="M535.30 217.00v-21.00" class="stroke"/>
<path class="fill"
	d="M535.30 196.00c0.6 5.6 9.6 9 5.6 18.4
	1.6 -6 -1.3 -11.6 -5.6 -12.8
"/>
<use x="553.80" y="214.00" xlink:href="#hd"/>
<path d="M557.30 214.00v-21.00" class="stroke"/>
<use x="584.10" y="211.00" xlink:href="#hd"/>
<path d="M587.60 211.00v-21.00" class="stroke"/>
<path class="fill"
	d="M587.60 190.00c0.6 5.6 9.6 9 5.6 18.4
	1.6 -6 -1.3 -11.6 -5.6 -12.8
"/>
<use x="614.10" y="211.00" xlink:href="#hd"/>
<path d="M617.60 211.00v-21.00" class="stroke"/>
<use x="644.50" y="214.00" xlink:href="#hd"/>
<path d="M648.00 214.00v-21.00" class="stroke"/>
<path class="fill"
	d="M648.00 193.00c0.6 5.6 9.6 9 5.6 18.4
	1.6 -6 -1.3 -11.6 -5.6 -12.8
"/>
<use x="666.50" y="211.00" xlink:href="#hd"/>
<circle class="fill" cx="674.20" cy="208.00" r="1.2"/>
<path d="M670.00 211.00v-21.00" class="stroke"/>
<use x="22.00" y="257.00" xlink:href="#bclef"/>
<use x="37.00" y="257.00" xlink:href="#sh0"/>
<use x="55.50" y="281.00" xlink:href="#hl"/>
<use x="55.50" y="287.00" xlink:href="#hl"/>
<use x="55.50" y="287.00" xlink:href="#Hd"/>
<circle class="fill" cx="65.20" cy="284.00" r="1.2"/>
<path d="M59.00 287.00v-52.00" class="stroke"/>
<use x="55.50" y="266.00" xlink:href="#Hd"/>
<circle class="fill" cx="65.20" cy="266.00" r="1.2"/>
<use x="55.50" y="260.00" xlink:href="#Hd"/>
<circle class="fill" cx="65.20" cy="260.00" r="1.2"/>
<use x="55.50" y="254.00" xlink:href="#Hd"/>
<circle class="fill" cx="65.20" cy="254.00" r="1.2"/>
<use x="175.90" y="272.00" xlink:href="#hd"/>
<circle class="fill" cx="183.60" cy="272.00" r="1.2"/>
<path d="M179.40 272.00v-21.00" class="stroke"/>
<use x="237.90" y="272.00" xlink:href="#hd"/>
<circle class="fill" cx="245.60" cy="272.00" r="1.2"/>
<path d="M241.40 272.00v-21.00" class="stroke"/>
<use x="276.00" y="248.00" xlink:href="#Hd"/>
<circle class="fill" cx="284.70" cy="248.00" r="1.2"/>
<path d="M272.50 248.00v31.00" class="stroke"/>
<use x="276.00" y="260.00" xlink:href="#Hd"/>
<circle class="fill" cx="284.70" cy="260.00" r="1.2"/>
<use x="276.00" y="254.00" xlink:href="#Hd"/>
<circle class="fill" cx="284.70" cy="254.00" r="1.2"/>
<use x="388.70" y="281.00" xlink:href="#hl"/>
<use x="388.70" y="284.00" xlink:href="#Hd"/>
<circle class="fill" cx="397.40" cy="284.00" r="1.2"/>
<path d="M392.20 284.00v-52.00" class="stroke"/>
<use x="388.70" y="263.00" xlink:href="#Hd"/>
<circle class="fill" cx="397.40" cy="260.00" r="1.2"/>
<use x="388.70" y="257.00" xlink:href="#Hd"/>
<circle class="fill" cx="397.40" cy="254.00" r="1.2"/>
<use x="388.70" y="251.00" xlink:href="#Hd"/>
<circle class="fill" cx="397.40" cy="248.00" r="1.2"/>
<use x="501.40" y="281.00" xlink:href="#hl"/>
<use x="501.40" y="287.00" xlink:href="#hl"/>
<use x="501.40" y="287.00" xlink:href="#Hd"/>
<circle class="fill" cx="510.10" cy="284.00" r="1.2"/>
<path d="M504.90 287.00v-52.00" class="stroke"/>
<use x="501.40" y="266.00" xlink:href="#Hd"/>
<circle class="fill" cx="510.10" cy="266.00" r="1.2"/>
<use x="501.40" y="260.00" xlink:href="#Hd"/>
<circle class="fill" cx="510.10" cy="260.00" r="1.2"/>
<use x="501.40" y="254.00" xlink:href="#Hd"/>
<circle class="fill" cx="510.10" cy="254.00" r="1.2"/>
<use x="614.10" y="281.00" xlink:href="#hl"/>
<use x="614.10" y="287.00" xlink:href="#hl"/>
<use x="614.10" y="293.00" xlink:href="#hl"/>
<use x="614.10" y="296.00" xlink:href="#Hd"/>
<circle class="fill" cx="622.80" cy="296.00" r="1.2"/>
<path d="M617.60 296.00v-52.00" class="stroke"/>
<use x="614.10" y="275.00" xlink:href="#Hd"/>
<circle class="fill" cx="622.80" cy="272.00" r="1.2"/>
<use x="614.10" y="269.00" xlink:href="#Hd"/>
<circle class="fill" cx="622.80" cy="266.00" r="1.2"/>
<use x="614.10" y="263.00" xlink:href="#Hd"/>
<circle class="fill" cx="622.80" cy="260.00" r="1.2"/>
</g>
</svg>
