<?xml version="1.0" standalone="no"?>
<!DOCTYPE svg PUBLIC "-//W3C//DTD SVG 1.1//EN"
	"http://www.w3.org/Graphics/SVG/1.1/DTD/svg11.dtd">
<svg xmlns="http://www.w3.org/2000/svg" version="1.1"
	xmlns:xlink="http://www.w3.org/1999/xlink"
	color="black"
	width="701.60px" height="426.80px" viewBox="0 0 701.60 426.80" preserveAspectRatio="xMidYMid meet">
<style type="text/css">
.fill {fill: currentColor}
.stroke {stroke: currentColor; fill: none}
text{white-space: pre}
</style>
<title>/tmp/retab_hymnal_L6/open_now_thy_gates_of_beauty.abc (1) tune 1</title>
<!-- Creator: abcm2ps-8.14.11 -->
<!-- CreationDate: Apr 24, 2026 15:38 -->
<!-- CommandLine: /tmp/retab_hymnal_L6/open_now_thy_gates_of_beauty.abc -g -O /tmp/retab_hymnal_L6/open_now_thy_gates_of_beauty -->
<g stroke-width="0.70">
<!-- title: 197. Open Now Thy Gates of Beauty -->
</g>
<g stroke-width="0.70" style="font:20.00px Times">
<text x="350.80" y="22.00" text-anchor="middle">197. Open Now Thy Gates of Beauty</text>
</g>
<g stroke-width="0.70" style="font:20.00px Times">
<path class="stroke" stroke-width="1"
	d="M10.00 145.40v-82.00"/>
<defs>
<path id="brace" class="fill" d="m-2.5 101
	c-4.5 -4.6 -7.5 -12.2 -4.4 -26.8
	3.5 -14.3 3.2 -21.7 -2.1 -24.2
	7.4 2.4 7.3 14.2 3.5 29.5
	-2.7 9.5 -1.5 16.2 3 21.5
	M-2.5 1c-4.5 4.6 -7.5 12.2 -4.4 26.8
	c3.5 14.3 3.2 21.7 -2.1 24.2
	7.4 -2.4 7.3 -14.2 3.5 -29.5
	-2.7 -9.5 -1.5 -16.2 3 -21.5"/>
</defs>
<g transform="translate(10.00,63.40) scale(1,0.82)">
	<use xlink:href="#brace"/>
</g>
<path class="stroke" stroke-width="1"
	d="M189.30 87.40v-24.00"/>
<path class="stroke" stroke-width="1"
	d="M189.30 145.40v-24.00"/>
<path class="stroke" stroke-width="1"
	d="M317.60 87.40v-24.00"/>
<path class="stroke" stroke-width="1"
	d="M317.60 145.40v-24.00"/>
<path class="stroke" stroke-width="1"
	d="M459.20 87.40v-24.00"/>
<path class="stroke" stroke-width="1"
	d="M459.20 145.40v-24.00"/>
<path class="stroke" stroke-width="1"
	d="M566.30 87.40v-24.00"/>
<path class="stroke" stroke-width="1"
	d="M566.30 145.40v-24.00"/>
<path class="stroke" stroke-width="1"
	d="M691.60 87.40v-24.00"/>
<path class="stroke" stroke-width="1"
	d="M691.60 145.40v-24.00"/>
<path d="m10.00 87.40
	h681.60
	M10.00 81.40
	h681.60
	M10.00 75.40
	h681.60
	M10.00 69.40
	h681.60
	M10.00 63.40
	h681.60
	" class="stroke"/>
<path d="m10.00 145.40
	h681.60
	M10.00 139.40
	h681.60
	M10.00 133.40
	h681.60
	M10.00 127.40
	h681.60
	M10.00 121.40
	h681.60
	" class="stroke"/>
</g>
<g stroke-width="0.70" style="font:bold 13.00px Times">
<text x="76.20" y="58.80">I</text>
</g>
<g stroke-width="0.70" style="font:bold 13.00px Times">
<text x="200.50" y="56.80">I</text>
</g>
<g stroke-width="0.70" style="font:bold 13.00px Times">
<text x="325.80" y="47.80">vi</text>
</g>
<g stroke-width="0.70" style="font:bold 13.00px Times">
<text x="471.30" y="58.80">I</text>
</g>
<g stroke-width="0.70" style="font:bold 13.00px Times">
<text x="578.50" y="58.80">I</text>
<defs>
<path id="utclef" class="fill" d="m-50 -90
	c-72 -41 -72 -158 52 -188
	150 -10 220 188 90 256
	-114 52 -275 0 -293 -136
	-15 -181 93 -229 220 -334
	88 -87 79 -133 62 -210
	-51 33 -94 105 -89 186
	17 267 36 374 49 574
	6 96 -19 134 -77 135
	-80 1 -126 -93 -61 -133
	85 -41 133 101 31 105
	23 17 92 37 90 -92
	-10 -223 -39 -342 -50 -617
	0 -90 0 -162 96 -232
	56 72 63 230 22 289
	-74 106 -257 168 -255 316
	9 153 148 185 252 133
	86 -65 29 -192 -80 -176
	-71 12 -105 67 -59 124"/>
<use id="tclef" transform="translate(0,6) scale(0.045)"
	xlink:href="#utclef"/>
</defs>
<use x="22.00" y="81.40" xlink:href="#tclef"/>
<defs>
<path id="uflat" class="fill" d="
	m100 -746
	h32
	v734
	l-32 4
	m32 -332
	c46 -72 152 -90 208 -20
	100 110 -120 326 -208 348
	m0 -28
	c54 0 200 -206 130 -290
	-50 -60 -130 -4 -130 34"/>
<use id="ft0" transform="translate(-3.5,3.5) scale(0.018)"
	xlink:href="#uflat"/>
</defs>
<use x="37.00" y="75.40" xlink:href="#ft0"/>
<use x="42.50" y="66.40" xlink:href="#ft0"/>
<g style="font:bold 16px serif"
	transform="translate(58.50,86.90) scale(1.2,1)">
	<text text-anchor="middle">4</text>
	<text y="-12" text-anchor="middle">4</text>
</g>
<defs>
<path id="hl" class="stroke" d="m-6 0h12"/>
</defs>
<use x="78.00" y="93.40" xlink:href="#hl"/>
<defs>
<ellipse id="hd" rx="4.1" ry="2.9"
	transform="rotate(-20)" class="fill"/>
</defs>
<use x="78.00" y="96.40" xlink:href="#hd"/>
<circle class="fill" cx="85.70" cy="96.40" r="1.2"/>
<path d="M81.50 96.40v-21.00" class="stroke"/>
<use x="113.80" y="93.40" xlink:href="#hl"/>
<use x="113.80" y="93.40" xlink:href="#hd"/>
<path d="M117.30 93.40v-21.00" class="stroke"/>
<path class="fill"
	d="M117.30 72.40c0.6 5.6 9.6 9 5.6 18.4
	1.6 -6 -1.3 -11.6 -5.6 -12.8
"/>
<use x="136.20" y="90.40" xlink:href="#hd"/>
<path d="M139.70 90.40v-21.00" class="stroke"/>
<use x="167.20" y="93.40" xlink:href="#hl"/>
<use x="167.20" y="96.40" xlink:href="#hd"/>
<path d="M170.70 96.40v-21.00" class="stroke"/>
<use x="202.30" y="90.40" xlink:href="#hd"/>
<path d="M205.80 90.40v-21.00" class="stroke"/>
<use x="233.40" y="87.40" xlink:href="#hd"/>
<path d="M236.90 87.40v-21.00" class="stroke"/>
<use x="264.40" y="84.40" xlink:href="#hd"/>
<path d="M267.90 84.40v-21.00" class="stroke"/>
<use x="295.50" y="84.40" xlink:href="#hd"/>
<path d="M299.00 84.40v-21.00" class="stroke"/>
<use x="330.10" y="75.40" xlink:href="#hd"/>
<path d="M333.60 75.40v-21.00" class="stroke"/>
<use x="361.10" y="78.40" xlink:href="#hd"/>
<path d="M364.60 78.40v-21.00" class="stroke"/>
<path class="fill"
	d="M364.60 57.40c0.6 5.6 9.6 9 5.6 18.4
	1.6 -6 -1.3 -11.6 -5.6 -12.8
"/>
<use x="383.50" y="81.40" xlink:href="#hd"/>
<path d="M387.00 81.40v-21.00" class="stroke"/>
<path class="fill"
	d="M387.00 60.40c0.6 5.6 9.6 9 5.6 18.4
	1.6 -6 -1.3 -11.6 -5.6 -12.8
"/>
<use x="405.90" y="84.40" xlink:href="#hd"/>
<path d="M409.40 84.40v-21.00" class="stroke"/>
<use x="437.10" y="69.40" xlink:href="#hd"/>
<path d="M433.60 69.40v21.00" class="stroke"/>
<use x="473.20" y="72.40" xlink:href="#hd"/>
<path d="M469.70 72.40v21.00" class="stroke"/>
<use x="504.20" y="72.40" xlink:href="#hd"/>
<path d="M500.70 72.40v21.00" class="stroke"/>
<defs>
<path id="Hd" class="fill" d="m3 -1.6
	c-1 -1.8 -7 1.4 -6 3.2
	1 1.8 7 -1.4 6 -3.2
	m0.5 -0.3
	c2 3.8 -5 7.6 -7 3.8
	-2 -3.8 5 -7.6 7 -3.8"/>
</defs>
<use x="535.30" y="75.40" xlink:href="#Hd"/>
<path d="M531.80 75.40v21.00" class="stroke"/>
<use x="580.30" y="93.40" xlink:href="#hl"/>
<use x="580.30" y="96.40" xlink:href="#hd"/>
<circle class="fill" cx="588.00" cy="96.40" r="1.2"/>
<path d="M583.80 96.40v-21.00" class="stroke"/>
<use x="616.10" y="93.40" xlink:href="#hl"/>
<use x="616.10" y="93.40" xlink:href="#hd"/>
<path d="M619.60 93.40v-21.00" class="stroke"/>
<path class="fill"
	d="M619.60 72.40c0.6 5.6 9.6 9 5.6 18.4
	1.6 -6 -1.3 -11.6 -5.6 -12.8
"/>
<use x="638.50" y="90.40" xlink:href="#hd"/>
<path d="M642.00 90.40v-21.00" class="stroke"/>
<use x="669.50" y="93.40" xlink:href="#hl"/>
<use x="669.50" y="96.40" xlink:href="#hd"/>
<path d="M673.00 96.40v-21.00" class="stroke"/>
<defs>
<path id="ubclef" class="fill" d="m-200 -87
	c124 -35 222 -78 254 -236
	43 -228 -167 -246 -192 -103
	59 -80 157 22 92 78
	-62 47 -115 -22 -106 -88
	21 -141 270 -136 274 52
	-1 175 -106 264 -322 297
	m357 -250
	c0 -36 51 -34 51 0
	0 37 -51 36 -51 0
	m-2 -129
	c0 -36 51 -34 51 0
	0 38 -51 37 -51 0"/>
<use id="bclef" transform="translate(0,18) scale(0.045)"
	xlink:href="#ubclef"/>
</defs>
<use x="22.00" y="127.40" xlink:href="#bclef"/>
<use x="37.00" y="139.40" xlink:href="#ft0"/>
<use x="42.50" y="130.40" xlink:href="#ft0"/>
<g style="font:bold 16px serif"
	transform="translate(58.50,144.90) scale(1.2,1)">
	<text text-anchor="middle">4</text>
	<text y="-12" text-anchor="middle">4</text>
</g>
<defs>
<path id="hl1" class="stroke" d="m-7 0h14"/>
</defs>
<use x="79.00" y="151.40" xlink:href="#hl1"/>
<use x="79.00" y="157.40" xlink:href="#hl1"/>
<defs>
<path id="HD" class="fill" d="m-2.7 -1.4
	c1.5 -2.8 6.9 0 5.3 2.7
	-1.5 2.8 -6.9 0 -5.3 -2.7
	m8.3 1.4
	c0 -1.5 -2.2 -3 -5.6 -3
	-3.4 0 -5.6 1.5 -5.6 3
	0 1.5 2.2 3 5.6 3
	3.4 0 5.6 -1.5 5.6 -3"/>
</defs>
<use x="79.00" y="160.40" xlink:href="#HD"/>
<use x="79.00" y="139.40" xlink:href="#HD"/>
<use x="79.00" y="133.40" xlink:href="#HD"/>
<use x="79.00" y="127.40" xlink:href="#HD"/>
<use x="202.30" y="139.40" xlink:href="#Hd"/>
<path d="M205.80 139.40v-31.00" class="stroke"/>
<use x="202.30" y="133.40" xlink:href="#Hd"/>
<use x="202.30" y="127.40" xlink:href="#Hd"/>
<use x="264.40" y="139.40" xlink:href="#hd"/>
<path d="M267.90 139.40v-21.00" class="stroke"/>
<use x="295.50" y="133.40" xlink:href="#hd"/>
<path d="M299.00 133.40v-21.00" class="stroke"/>
<use x="330.10" y="124.40" xlink:href="#hd"/>
<path d="M326.60 124.40v21.00" class="stroke"/>
<use x="361.10" y="118.40" xlink:href="#hd"/>
<path d="M357.60 118.40v21.00" class="stroke"/>
<use x="405.90" y="115.40" xlink:href="#hl"/>
<use x="405.90" y="112.40" xlink:href="#Hd"/>
<path d="M402.40 112.40v21.00" class="stroke"/>
<use x="474.20" y="151.40" xlink:href="#hl1"/>
<use x="474.20" y="157.40" xlink:href="#hl1"/>
<use x="474.20" y="160.40" xlink:href="#HD"/>
<use x="474.20" y="139.40" xlink:href="#HD"/>
<use x="474.20" y="133.40" xlink:href="#HD"/>
<use x="474.20" y="127.40" xlink:href="#HD"/>
<use x="581.30" y="151.40" xlink:href="#hl1"/>
<use x="581.30" y="157.40" xlink:href="#hl1"/>
<use x="581.30" y="160.40" xlink:href="#HD"/>
<use x="581.30" y="139.40" xlink:href="#HD"/>
<use x="581.30" y="133.40" xlink:href="#HD"/>
<use x="581.30" y="127.40" xlink:href="#HD"/>
</g>
<g stroke-width="0.70" style="font:bold 13.00px Times">
<path class="stroke" stroke-width="1"
	d="M10.00 275.80v-82.00"/>
<g transform="translate(10.00,193.80) scale(1,0.82)">
	<use xlink:href="#brace"/>
</g>
<path class="stroke" stroke-width="1"
	d="M179.10 217.80v-24.00"/>
<path class="stroke" stroke-width="1"
	d="M179.10 275.80v-24.00"/>
<path class="stroke" stroke-width="1"
	d="M323.60 217.80v-24.00"/>
<path class="stroke" stroke-width="1"
	d="M323.60 275.80v-24.00"/>
<path class="stroke" stroke-width="1"
	d="M433.00 217.80v-24.00"/>
<path class="stroke" stroke-width="1"
	d="M433.00 275.80v-24.00"/>
<path class="stroke" stroke-width="1"
	d="M560.50 217.80v-24.00"/>
<path class="stroke" stroke-width="1"
	d="M560.50 275.80v-24.00"/>
<path class="stroke" stroke-width="1"
	d="M691.60 217.80v-24.00"/>
<path class="stroke" stroke-width="1"
	d="M691.60 275.80v-24.00"/>
<path d="m10.00 217.80
	h681.60
	M10.00 211.80
	h681.60
	M10.00 205.80
	h681.60
	M10.00 199.80
	h681.60
	M10.00 193.80
	h681.60
	" class="stroke"/>
<path d="m10.00 275.80
	h681.60
	M10.00 269.80
	h681.60
	M10.00 263.80
	h681.60
	M10.00 257.80
	h681.60
	M10.00 251.80
	h681.60
	" class="stroke"/>
</g>
<g stroke-width="0.70" style="font:bold 13.00px Times">
<text x="59.20" y="189.20">I</text>
</g>
<g stroke-width="0.70" style="font:bold 13.00px Times">
<text x="187.30" y="178.20">vi</text>
</g>
<g stroke-width="0.70" style="font:bold 13.00px Times">
<text x="335.70" y="189.20">I</text>
</g>
<g stroke-width="0.70" style="font:bold 13.00px Times">
<text x="445.20" y="189.20">I</text>
</g>
<g stroke-width="0.70" style="font:bold 13.00px Times">
<text x="569.30" y="189.20">vi</text>
<use x="22.00" y="211.80" xlink:href="#tclef"/>
<use x="37.00" y="205.80" xlink:href="#ft0"/>
<use x="42.50" y="196.80" xlink:href="#ft0"/>
<use x="61.00" y="220.80" xlink:href="#hd"/>
<path d="M64.50 220.80v-21.00" class="stroke"/>
<use x="92.80" y="217.80" xlink:href="#hd"/>
<path d="M96.30 217.80v-21.00" class="stroke"/>
<use x="124.70" y="214.80" xlink:href="#hd"/>
<path d="M128.20 214.80v-21.00" class="stroke"/>
<use x="156.50" y="214.80" xlink:href="#hd"/>
<path d="M160.00 214.80v-21.00" class="stroke"/>
<use x="191.60" y="205.80" xlink:href="#hd"/>
<path d="M195.10 205.80v-21.00" class="stroke"/>
<use x="223.40" y="208.80" xlink:href="#hd"/>
<path d="M226.90 208.80v-21.00" class="stroke"/>
<path class="fill"
	d="M226.90 187.80c0.6 5.6 9.6 9 5.6 18.4
	1.6 -6 -1.3 -11.6 -5.6 -12.8
"/>
<use x="246.20" y="211.80" xlink:href="#hd"/>
<path d="M249.70 211.80v-21.00" class="stroke"/>
<path class="fill"
	d="M249.70 190.80c0.6 5.6 9.6 9 5.6 18.4
	1.6 -6 -1.3 -11.6 -5.6 -12.8
"/>
<use x="269.10" y="214.80" xlink:href="#hd"/>
<path d="M272.60 214.80v-21.00" class="stroke"/>
<use x="301.00" y="199.80" xlink:href="#hd"/>
<path d="M297.50 199.80v21.00" class="stroke"/>
<use x="337.60" y="202.80" xlink:href="#hd"/>
<path d="M334.10 202.80v21.00" class="stroke"/>
<use x="369.40" y="202.80" xlink:href="#hd"/>
<path d="M365.90 202.80v21.00" class="stroke"/>
<use x="401.30" y="205.80" xlink:href="#Hd"/>
<path d="M397.80 205.80v21.00" class="stroke"/>
<use x="447.00" y="199.80" xlink:href="#hd"/>
<circle class="fill" cx="454.70" cy="196.80" r="1.2"/>
<path d="M443.50 199.80v21.00" class="stroke"/>
<use x="483.50" y="199.80" xlink:href="#hd"/>
<path d="M480.00 199.80v21.00" class="stroke"/>
<path class="fill"
	d="M480.00 220.80c0.6 -5.6 9.6 -9 5.6 -18.4
	1.6 6 -1.3 11.6 -5.6 12.8
"/>
<use x="506.10" y="202.80" xlink:href="#hd"/>
<path d="M502.60 202.80v21.00" class="stroke"/>
<use x="538.00" y="202.80" xlink:href="#hd"/>
<path d="M534.50 202.80v21.00" class="stroke"/>
<use x="573.50" y="205.80" xlink:href="#hd"/>
<path d="M570.00 205.80v21.00" class="stroke"/>
<use x="605.40" y="205.80" xlink:href="#hd"/>
<path d="M601.90 205.80v21.00" class="stroke"/>
<use x="637.20" y="208.80" xlink:href="#Hd"/>
<path d="M640.70 208.80v-21.00" class="stroke"/>
<use x="22.00" y="257.80" xlink:href="#bclef"/>
<use x="37.00" y="269.80" xlink:href="#ft0"/>
<use x="42.50" y="260.80" xlink:href="#ft0"/>
<use x="61.00" y="269.80" xlink:href="#Hd"/>
<path d="M64.50 269.80v-31.00" class="stroke"/>
<use x="61.00" y="263.80" xlink:href="#Hd"/>
<use x="61.00" y="257.80" xlink:href="#Hd"/>
<use x="124.70" y="269.80" xlink:href="#hd"/>
<path d="M128.20 269.80v-21.00" class="stroke"/>
<use x="156.50" y="263.80" xlink:href="#hd"/>
<path d="M160.00 263.80v-21.00" class="stroke"/>
<use x="191.60" y="254.80" xlink:href="#hd"/>
<path d="M188.10 254.80v21.00" class="stroke"/>
<use x="223.40" y="248.80" xlink:href="#hd"/>
<path d="M219.90 248.80v21.00" class="stroke"/>
<use x="269.10" y="245.80" xlink:href="#hl"/>
<use x="269.10" y="242.80" xlink:href="#Hd"/>
<path d="M265.60 242.80v21.00" class="stroke"/>
<use x="338.60" y="281.80" xlink:href="#hl1"/>
<use x="338.60" y="287.80" xlink:href="#hl1"/>
<use x="338.60" y="290.80" xlink:href="#HD"/>
<use x="338.60" y="269.80" xlink:href="#HD"/>
<use x="338.60" y="263.80" xlink:href="#HD"/>
<use x="338.60" y="257.80" xlink:href="#HD"/>
<use x="448.00" y="281.80" xlink:href="#hl1"/>
<use x="448.00" y="287.80" xlink:href="#hl1"/>
<use x="448.00" y="290.80" xlink:href="#HD"/>
<use x="448.00" y="269.80" xlink:href="#HD"/>
<use x="448.00" y="263.80" xlink:href="#HD"/>
<use x="448.00" y="257.80" xlink:href="#HD"/>
<use x="573.50" y="245.80" xlink:href="#hl"/>
<use x="573.50" y="242.80" xlink:href="#Hd"/>
<path d="M570.00 242.80v31.00" class="stroke"/>
<use x="573.50" y="254.80" xlink:href="#Hd"/>
<use x="573.50" y="248.80" xlink:href="#Hd"/>
<use x="637.20" y="254.80" xlink:href="#hd"/>
<path d="M633.70 254.80v21.00" class="stroke"/>
<use x="669.00" y="248.80" xlink:href="#hd"/>
<path d="M665.50 248.80v21.00" class="stroke"/>
</g>
<g stroke-width="0.70" style="font:bold 13.00px Times">
<path class="stroke" stroke-width="1"
	d="M10.00 403.80v-82.00"/>
<g transform="translate(10.00,321.80) scale(1,0.82)">
	<use xlink:href="#brace"/>
</g>
<path class="stroke" stroke-width="1"
	d="M222.30 345.80v-24.00"/>
<path class="stroke" stroke-width="1"
	d="M222.30 403.80v-24.00"/>
<path class="stroke" stroke-width="1"
	d="M356.00 345.80v-24.00"/>
<path class="stroke" stroke-width="1"
	d="M356.00 403.80v-24.00"/>
<path d="m10.00 345.80
	h346.00
	M10.00 339.80
	h346.00
	M10.00 333.80
	h346.00
	M10.00 327.80
	h346.00
	M10.00 321.80
	h346.00
	" class="stroke"/>
<path d="m10.00 403.80
	h346.00
	M10.00 397.80
	h346.00
	M10.00 391.80
	h346.00
	M10.00 385.80
	h346.00
	M10.00 379.80
	h346.00
	" class="stroke"/>
</g>
<g stroke-width="0.70" style="font:bold 13.00px Times">
<text x="54.70" y="312.20">IV</text>
</g>
<g stroke-width="0.70" style="font:bold 13.00px Times">
<text x="231.40" y="317.20">ii<tspan
	 style="font:italic 11.00px Times">¹</tspan></text>
</g>
<g stroke-width="0.70" style="font:italic 11.00px Times">
<use x="22.00" y="339.80" xlink:href="#tclef"/>
<use x="37.00" y="333.80" xlink:href="#ft0"/>
<use x="42.50" y="324.80" xlink:href="#ft0"/>
<use x="60.50" y="339.80" xlink:href="#hd"/>
<circle class="fill" cx="68.20" cy="336.80" r="1.2"/>
<path d="M64.00 339.80v-21.00" class="stroke"/>
<use x="126.00" y="339.80" xlink:href="#hd"/>
<path d="M129.50 339.80v-21.00" class="stroke"/>
<path class="fill"
	d="M129.50 318.80c0.6 5.6 9.6 9 5.6 18.4
	1.6 -6 -1.3 -11.6 -5.6 -12.8
"/>
<use x="154.30" y="342.80" xlink:href="#hd"/>
<path d="M157.80 342.80v-21.00" class="stroke"/>
<use x="194.30" y="333.80" xlink:href="#hd"/>
<path d="M197.80 333.80v-21.00" class="stroke"/>
<use x="236.40" y="330.80" xlink:href="#hd"/>
<path d="M232.90 330.80v21.00" class="stroke"/>
<use x="276.40" y="336.80" xlink:href="#hd"/>
<path d="M279.90 336.80v-21.00" class="stroke"/>
<use x="316.40" y="333.80" xlink:href="#Hd"/>
<path d="M319.90 333.80v-21.00" class="stroke"/>
<use x="22.00" y="385.80" xlink:href="#bclef"/>
<use x="37.00" y="397.80" xlink:href="#ft0"/>
<use x="42.50" y="388.80" xlink:href="#ft0"/>
<use x="60.50" y="376.80" xlink:href="#hd"/>
<path d="M57.00 376.80v21.00" class="stroke"/>
<use x="100.50" y="382.80" xlink:href="#hd"/>
<path d="M97.00 382.80v21.00" class="stroke"/>
<use x="154.30" y="388.80" xlink:href="#Hd"/>
<path d="M150.80 388.80v21.00" class="stroke"/>
<use x="237.40" y="409.80" xlink:href="#hl1"/>
<use x="237.40" y="415.80" xlink:href="#hl1"/>
<use x="237.40" y="415.80" xlink:href="#HD"/>
<use x="237.40" y="394.80" xlink:href="#HD"/>
<use x="237.40" y="388.80" xlink:href="#HD"/>
<use x="237.40" y="382.80" xlink:href="#HD"/>
</g>
</svg>
