<?xml version="1.0" standalone="no"?>
<!DOCTYPE svg PUBLIC "-//W3C//DTD SVG 1.1//EN"
	"http://www.w3.org/Graphics/SVG/1.1/DTD/svg11.dtd">
<svg xmlns="http://www.w3.org/2000/svg" version="1.1"
	xmlns:xlink="http://www.w3.org/1999/xlink"
	color="black"
	width="701.60px" height="424.40px" viewBox="0 0 701.60 424.40" preserveAspectRatio="xMidYMid meet">
<style type="text/css">
.fill {fill: currentColor}
.stroke {stroke: currentColor; fill: none}
text{white-space: pre}
</style>
<title>/tmp/retab_hymnal_L5/be_thou_my_vision.abc (1) tune 1</title>
<!-- Creator: abcm2ps-8.14.11 -->
<!-- CreationDate: Apr 24, 2026 15:38 -->
<!-- CommandLine: /tmp/retab_hymnal_L5/be_thou_my_vision.abc -g -O /tmp/retab_hymnal_L5/be_thou_my_vision -->
<g stroke-width="0.70">
<!-- title: 033. Be Thou My Vision -->
</g>
<g stroke-width="0.70" style="font:20.00px Times">
<text x="350.80" y="22.00" text-anchor="middle">033. Be Thou My Vision</text>
</g>
<g stroke-width="0.70" style="font:20.00px Times">
<path class="stroke" stroke-width="1"
	d="M10.00 143.00v-82.00"/>
<defs>
<path id="brace" class="fill" d="m-2.5 101
	c-4.5 -4.6 -7.5 -12.2 -4.4 -26.8
	3.5 -14.3 3.2 -21.7 -2.1 -24.2
	7.4 2.4 7.3 14.2 3.5 29.5
	-2.7 9.5 -1.5 16.2 3 21.5
	M-2.5 1c-4.5 4.6 -7.5 12.2 -4.4 26.8
	c3.5 14.3 3.2 21.7 -2.1 24.2
	7.4 -2.4 7.3 -14.2 3.5 -29.5
	-2.7 -9.5 -1.5 -16.2 3 -21.5"/>
</defs>
<g transform="translate(10.00,61.00) scale(1,0.82)">
	<use xlink:href="#brace"/>
</g>
<path class="stroke" stroke-width="1"
	d="M180.30 85.00v-24.00"/>
<path class="stroke" stroke-width="1"
	d="M180.30 143.00v-24.00"/>
<path class="stroke" stroke-width="1"
	d="M296.40 85.00v-24.00"/>
<path class="stroke" stroke-width="1"
	d="M296.40 143.00v-24.00"/>
<path class="stroke" stroke-width="1"
	d="M395.00 85.00v-24.00"/>
<path class="stroke" stroke-width="1"
	d="M395.00 143.00v-24.00"/>
<path class="stroke" stroke-width="1"
	d="M494.00 85.00v-24.00"/>
<path class="stroke" stroke-width="1"
	d="M494.00 143.00v-24.00"/>
<path class="stroke" stroke-width="1"
	d="M592.60 85.00v-24.00"/>
<path class="stroke" stroke-width="1"
	d="M592.60 143.00v-24.00"/>
<path class="stroke" stroke-width="1"
	d="M691.60 85.00v-24.00"/>
<path class="stroke" stroke-width="1"
	d="M691.60 143.00v-24.00"/>
<path d="m10.00 85.00
	h681.60
	M10.00 79.00
	h681.60
	M10.00 73.00
	h681.60
	M10.00 67.00
	h681.60
	M10.00 61.00
	h681.60
	" class="stroke"/>
<path d="m10.00 143.00
	h681.60
	M10.00 137.00
	h681.60
	M10.00 131.00
	h681.60
	M10.00 125.00
	h681.60
	M10.00 119.00
	h681.60
	" class="stroke"/>
</g>
<g stroke-width="0.70" style="font:bold 13.00px Times">
<text x="69.60" y="56.40">III<tspan
	 style="font:italic 11.00px Times">²</tspan></text>
</g>
<g stroke-width="0.70" style="font:bold 13.00px Times">
<text x="185.40" y="54.40">III<tspan
	 style="font:italic 11.00px Times">¹</tspan></text>
</g>
<g stroke-width="0.70" style="font:bold 13.00px Times">
<text x="301.40" y="54.40">III<tspan
	 style="font:italic 11.00px Times">²</tspan></text>
</g>
<g stroke-width="0.70" style="font:bold 13.00px Times">
<text x="402.20" y="51.40">VI</text>
</g>
<g stroke-width="0.70" style="font:bold 13.00px Times">
<text x="501.00" y="54.40">III</text>
</g>
<g stroke-width="0.70" style="font:bold 13.00px Times">
<text x="603.80" y="54.40">I</text>
<defs>
<path id="utclef" class="fill" d="m-50 -90
	c-72 -41 -72 -158 52 -188
	150 -10 220 188 90 256
	-114 52 -275 0 -293 -136
	-15 -181 93 -229 220 -334
	88 -87 79 -133 62 -210
	-51 33 -94 105 -89 186
	17 267 36 374 49 574
	6 96 -19 134 -77 135
	-80 1 -126 -93 -61 -133
	85 -41 133 101 31 105
	23 17 92 37 90 -92
	-10 -223 -39 -342 -50 -617
	0 -90 0 -162 96 -232
	56 72 63 230 22 289
	-74 106 -257 168 -255 316
	9 153 148 185 252 133
	86 -65 29 -192 -80 -176
	-71 12 -105 67 -59 124"/>
<use id="tclef" transform="translate(0,6) scale(0.045)"
	xlink:href="#utclef"/>
</defs>
<use x="22.00" y="79.00" xlink:href="#tclef"/>
<defs>
<path id="uflat" class="fill" d="
	m100 -746
	h32
	v734
	l-32 4
	m32 -332
	c46 -72 152 -90 208 -20
	100 110 -120 326 -208 348
	m0 -28
	c54 0 200 -206 130 -290
	-50 -60 -130 -4 -130 34"/>
<use id="ft0" transform="translate(-3.5,3.5) scale(0.018)"
	xlink:href="#uflat"/>
</defs>
<use x="37.00" y="73.00" xlink:href="#ft0"/>
<use x="42.50" y="64.00" xlink:href="#ft0"/>
<g style="font:bold 16px serif"
	transform="translate(58.50,84.50) scale(1.2,1)">
	<text text-anchor="middle">4</text>
	<text y="-12" text-anchor="middle">3</text>
</g>
<defs>
<ellipse id="hd" rx="4.1" ry="2.9"
	transform="rotate(-20)" class="fill"/>
</defs>
<use x="77.00" y="85.00" xlink:href="#hd"/>
<path d="M80.50 85.00v-21.00" class="stroke"/>
<use x="108.70" y="85.00" xlink:href="#hd"/>
<path d="M112.20 85.00v-21.00" class="stroke"/>
<use x="140.50" y="82.00" xlink:href="#hd"/>
<path d="M144.00 82.00v-21.00" class="stroke"/>
<path class="fill"
	d="M144.00 61.00c0.6 5.6 9.6 9 5.6 18.4
	1.6 -6 -1.3 -11.6 -5.6 -12.8
"/>
<use x="163.30" y="85.00" xlink:href="#hd"/>
<path d="M166.80 85.00v-21.00" class="stroke"/>
<path class="fill"
	d="M166.80 64.00c0.6 5.6 9.6 9 5.6 18.4
	1.6 -6 -1.3 -11.6 -5.6 -12.8
"/>
<defs>
<path id="hl" class="stroke" d="m-6 0h12"/>
</defs>
<use x="192.80" y="91.00" xlink:href="#hl"/>
<use x="192.80" y="91.00" xlink:href="#hd"/>
<path d="M196.30 91.00v-21.00" class="stroke"/>
<use x="224.60" y="91.00" xlink:href="#hl"/>
<use x="224.60" y="94.00" xlink:href="#hd"/>
<path d="M228.10 94.00v-21.00" class="stroke"/>
<use x="256.40" y="91.00" xlink:href="#hl"/>
<use x="256.40" y="94.00" xlink:href="#hd"/>
<path d="M259.90 94.00v-21.00" class="stroke"/>
<path class="fill"
	d="M259.90 73.00c0.6 5.6 9.6 9 5.6 18.4
	1.6 -6 -1.3 -11.6 -5.6 -12.8
"/>
<use x="279.40" y="91.00" xlink:href="#hl"/>
<use x="279.40" y="91.00" xlink:href="#hd"/>
<path d="M282.90 91.00v-21.00" class="stroke"/>
<path class="fill"
	d="M282.90 70.00c0.6 5.6 9.6 9 5.6 18.4
	1.6 -6 -1.3 -11.6 -5.6 -12.8
"/>
<use x="308.90" y="85.00" xlink:href="#hd"/>
<path d="M312.40 85.00v-21.00" class="stroke"/>
<use x="340.60" y="85.00" xlink:href="#hd"/>
<path d="M344.10 85.00v-21.00" class="stroke"/>
<use x="372.40" y="82.00" xlink:href="#hd"/>
<path d="M375.90 82.00v-21.00" class="stroke"/>
<defs>
<path id="Hd" class="fill" d="m3 -1.6
	c-1 -1.8 -7 1.4 -6 3.2
	1 1.8 7 -1.4 6 -3.2
	m0.5 -0.3
	c2 3.8 -5 7.6 -7 3.8
	-2 -3.8 5 -7.6 7 -3.8"/>
</defs>
<use x="408.00" y="79.00" xlink:href="#Hd"/>
<circle class="fill" cx="416.70" cy="76.00" r="1.2"/>
<path d="M411.50 79.00v-21.00" class="stroke"/>
<use x="506.50" y="82.00" xlink:href="#hd"/>
<path d="M510.00 82.00v-21.00" class="stroke"/>
<use x="538.20" y="82.00" xlink:href="#hd"/>
<path d="M541.70 82.00v-21.00" class="stroke"/>
<use x="570.10" y="82.00" xlink:href="#hd"/>
<path d="M573.60 82.00v-21.00" class="stroke"/>
<use x="605.60" y="82.00" xlink:href="#hd"/>
<path d="M609.10 82.00v-21.00" class="stroke"/>
<use x="637.30" y="79.00" xlink:href="#hd"/>
<path d="M640.80 79.00v-21.00" class="stroke"/>
<use x="669.10" y="73.00" xlink:href="#hd"/>
<path d="M672.60 73.00v-21.00" class="stroke"/>
<defs>
<path id="ubclef" class="fill" d="m-200 -87
	c124 -35 222 -78 254 -236
	43 -228 -167 -246 -192 -103
	59 -80 157 22 92 78
	-62 47 -115 -22 -106 -88
	21 -141 270 -136 274 52
	-1 175 -106 264 -322 297
	m357 -250
	c0 -36 51 -34 51 0
	0 37 -51 36 -51 0
	m-2 -129
	c0 -36 51 -34 51 0
	0 38 -51 37 -51 0"/>
<use id="bclef" transform="translate(0,18) scale(0.045)"
	xlink:href="#ubclef"/>
</defs>
<use x="22.00" y="125.00" xlink:href="#bclef"/>
<use x="37.00" y="137.00" xlink:href="#ft0"/>
<use x="42.50" y="128.00" xlink:href="#ft0"/>
<g style="font:bold 16px serif"
	transform="translate(58.50,142.50) scale(1.2,1)">
	<text text-anchor="middle">4</text>
	<text y="-12" text-anchor="middle">3</text>
</g>
<use x="77.00" y="149.00" xlink:href="#hl"/>
<use x="77.00" y="155.00" xlink:href="#hl"/>
<use x="77.00" y="158.00" xlink:href="#Hd"/>
<circle class="fill" cx="86.70" cy="158.00" r="1.2"/>
<path d="M80.50 158.00v-52.00" class="stroke"/>
<use x="77.00" y="137.00" xlink:href="#Hd"/>
<circle class="fill" cx="86.70" cy="134.00" r="1.2"/>
<use x="77.00" y="131.00" xlink:href="#Hd"/>
<circle class="fill" cx="86.70" cy="128.00" r="1.2"/>
<use x="77.00" y="125.00" xlink:href="#Hd"/>
<circle class="fill" cx="86.70" cy="122.00" r="1.2"/>
<use x="192.80" y="137.00" xlink:href="#hd"/>
<path d="M196.30 137.00v-21.00" class="stroke"/>
<use x="224.60" y="131.00" xlink:href="#hd"/>
<path d="M228.10 131.00v-21.00" class="stroke"/>
<use x="256.40" y="125.00" xlink:href="#hd"/>
<path d="M252.90 125.00v21.00" class="stroke"/>
<use x="308.90" y="137.00" xlink:href="#hd"/>
<path d="M312.40 137.00v-21.00" class="stroke"/>
<use x="340.60" y="131.00" xlink:href="#hd"/>
<path d="M344.10 131.00v-21.00" class="stroke"/>
<use x="372.40" y="125.00" xlink:href="#hd"/>
<path d="M368.90 125.00v21.00" class="stroke"/>
<use x="408.00" y="128.00" xlink:href="#hd"/>
<path d="M404.50 128.00v21.00" class="stroke"/>
<use x="439.70" y="122.00" xlink:href="#hd"/>
<path d="M436.20 122.00v21.00" class="stroke"/>
<use x="471.40" y="116.00" xlink:href="#hd"/>
<path d="M467.90 116.00v21.00" class="stroke"/>
<use x="506.50" y="137.00" xlink:href="#hd"/>
<path d="M510.00 137.00v-21.00" class="stroke"/>
<use x="538.20" y="131.00" xlink:href="#hd"/>
<path d="M541.70 131.00v-21.00" class="stroke"/>
<use x="570.10" y="125.00" xlink:href="#hd"/>
<path d="M566.60 125.00v21.00" class="stroke"/>
<use x="605.60" y="149.00" xlink:href="#hl"/>
<use x="605.60" y="155.00" xlink:href="#hl"/>
<use x="605.60" y="158.00" xlink:href="#Hd"/>
<circle class="fill" cx="614.30" cy="158.00" r="1.2"/>
<path d="M609.10 158.00v-52.00" class="stroke"/>
<use x="605.60" y="137.00" xlink:href="#Hd"/>
<circle class="fill" cx="614.30" cy="134.00" r="1.2"/>
<use x="605.60" y="131.00" xlink:href="#Hd"/>
<circle class="fill" cx="614.30" cy="128.00" r="1.2"/>
<use x="605.60" y="125.00" xlink:href="#Hd"/>
<circle class="fill" cx="614.30" cy="122.00" r="1.2"/>
</g>
<g stroke-width="0.70" style="font:bold 13.00px Times">
<path class="stroke" stroke-width="1"
	d="M10.00 273.40v-82.00"/>
<g transform="translate(10.00,191.40) scale(1,0.82)">
	<use xlink:href="#brace"/>
</g>
<path class="stroke" stroke-width="1"
	d="M147.60 215.40v-24.00"/>
<path class="stroke" stroke-width="1"
	d="M147.60 273.40v-24.00"/>
<path class="stroke" stroke-width="1"
	d="M250.50 215.40v-24.00"/>
<path class="stroke" stroke-width="1"
	d="M250.50 273.40v-24.00"/>
<path class="stroke" stroke-width="1"
	d="M383.80 215.40v-24.00"/>
<path class="stroke" stroke-width="1"
	d="M383.80 273.40v-24.00"/>
<path class="stroke" stroke-width="1"
	d="M486.30 215.40v-24.00"/>
<path class="stroke" stroke-width="1"
	d="M486.30 273.40v-24.00"/>
<path class="stroke" stroke-width="1"
	d="M588.70 215.40v-24.00"/>
<path class="stroke" stroke-width="1"
	d="M588.70 273.40v-24.00"/>
<path class="stroke" stroke-width="1"
	d="M691.60 215.40v-24.00"/>
<path class="stroke" stroke-width="1"
	d="M691.60 273.40v-24.00"/>
<path d="m10.00 215.40
	h681.60
	M10.00 209.40
	h681.60
	M10.00 203.40
	h681.60
	M10.00 197.40
	h681.60
	M10.00 191.40
	h681.60
	" class="stroke"/>
<path d="m10.00 273.40
	h681.60
	M10.00 267.40
	h681.60
	M10.00 261.40
	h681.60
	M10.00 255.40
	h681.60
	M10.00 249.40
	h681.60
	" class="stroke"/>
</g>
<g stroke-width="0.70" style="font:bold 13.00px Times">
<text x="59.20" y="186.80">I</text>
</g>
<g stroke-width="0.70" style="font:bold 13.00px Times">
<text x="152.90" y="175.80">VI<tspan
	 style="font:italic 11.00px Times">¹</tspan></text>
</g>
<g stroke-width="0.70" style="font:bold 13.00px Times">
<text x="255.60" y="186.80">ii○<tspan
	 style="font:italic 11.00px Times">¹</tspan></text>
</g>
<g stroke-width="0.70" style="font:bold 13.00px Times">
<text x="390.80" y="186.80">III</text>
</g>
<g stroke-width="0.70" style="font:bold 13.00px Times">
<text x="491.00" y="175.80">VI<tspan
	 style="font:italic 11.00px Times">¹</tspan></text>
</g>
<g stroke-width="0.70" style="font:bold 13.00px Times">
<text x="600.20" y="184.80">i</text>
<use x="22.00" y="209.40" xlink:href="#tclef"/>
<use x="37.00" y="203.40" xlink:href="#ft0"/>
<use x="42.50" y="194.40" xlink:href="#ft0"/>
<use x="61.00" y="200.40" xlink:href="#hd"/>
<path d="M57.50 200.40v21.00" class="stroke"/>
<use x="94.20" y="203.40" xlink:href="#hd"/>
<path d="M90.70 203.40v21.00" class="stroke"/>
<use x="124.20" y="209.40" xlink:href="#hd"/>
<path d="M127.70 209.40v-21.00" class="stroke"/>
<use x="160.60" y="203.40" xlink:href="#Hd"/>
<circle class="fill" cx="169.30" cy="200.40" r="1.2"/>
<path d="M164.10 203.40v-21.00" class="stroke"/>
<use x="263.00" y="200.40" xlink:href="#hd"/>
<path d="M259.50 200.40v21.00" class="stroke"/>
<use x="296.30" y="200.40" xlink:href="#hd"/>
<path d="M292.80 200.40v21.00" class="stroke"/>
<path class="fill"
	d="M292.80 221.40c0.6 -5.6 9.6 -9 5.6 -18.4
	1.6 6 -1.3 11.6 -5.6 12.8
"/>
<use x="319.90" y="197.40" xlink:href="#hd"/>
<path d="M316.40 197.40v21.00" class="stroke"/>
<path class="fill"
	d="M316.40 218.40c0.6 -5.6 9.6 -9 5.6 -18.4
	1.6 6 -1.3 11.6 -5.6 12.8
"/>
<use x="343.50" y="194.40" xlink:href="#hd"/>
<path d="M340.00 194.40v21.00" class="stroke"/>
<path class="fill"
	d="M340.00 215.40c0.6 -5.6 9.6 -9 5.6 -18.4
	1.6 6 -1.3 11.6 -5.6 12.8
"/>
<use x="367.10" y="197.40" xlink:href="#hd"/>
<path d="M363.60 197.40v21.00" class="stroke"/>
<path class="fill"
	d="M363.60 218.40c0.6 -5.6 9.6 -9 5.6 -18.4
	1.6 6 -1.3 11.6 -5.6 12.8
"/>
<use x="396.30" y="200.40" xlink:href="#hd"/>
<path d="M392.80 200.40v21.00" class="stroke"/>
<use x="429.50" y="203.40" xlink:href="#hd"/>
<path d="M426.00 203.40v21.00" class="stroke"/>
<use x="462.80" y="209.40" xlink:href="#hd"/>
<path d="M466.30 209.40v-21.00" class="stroke"/>
<use x="498.80" y="203.40" xlink:href="#hd"/>
<path d="M502.30 203.40v-21.00" class="stroke"/>
<use x="532.00" y="215.40" xlink:href="#hd"/>
<path d="M535.50 215.40v-21.00" class="stroke"/>
<use x="565.20" y="218.40" xlink:href="#hd"/>
<path d="M568.70 218.40v-21.00" class="stroke"/>
<use x="601.70" y="221.40" xlink:href="#hl"/>
<use x="601.70" y="221.40" xlink:href="#Hd"/>
<path d="M605.20 221.40v-21.00" class="stroke"/>
<use x="668.20" y="221.40" xlink:href="#hl"/>
<use x="668.20" y="224.40" xlink:href="#hd"/>
<path d="M671.70 224.40v-21.00" class="stroke"/>
<use x="22.00" y="255.40" xlink:href="#bclef"/>
<use x="37.00" y="267.40" xlink:href="#ft0"/>
<use x="42.50" y="258.40" xlink:href="#ft0"/>
<use x="61.00" y="279.40" xlink:href="#hl"/>
<use x="61.00" y="285.40" xlink:href="#hl"/>
<use x="61.00" y="288.40" xlink:href="#Hd"/>
<circle class="fill" cx="70.70" cy="288.40" r="1.2"/>
<path d="M64.50 288.40v-52.00" class="stroke"/>
<use x="61.00" y="267.40" xlink:href="#Hd"/>
<circle class="fill" cx="70.70" cy="264.40" r="1.2"/>
<use x="61.00" y="261.40" xlink:href="#Hd"/>
<circle class="fill" cx="70.70" cy="258.40" r="1.2"/>
<use x="61.00" y="255.40" xlink:href="#Hd"/>
<circle class="fill" cx="70.70" cy="252.40" r="1.2"/>
<use x="160.60" y="258.40" xlink:href="#hd"/>
<path d="M157.10 258.40v21.00" class="stroke"/>
<use x="193.90" y="252.40" xlink:href="#hd"/>
<path d="M190.40 252.40v21.00" class="stroke"/>
<use x="227.10" y="246.40" xlink:href="#hd"/>
<path d="M223.60 246.40v21.00" class="stroke"/>
<use x="263.00" y="267.40" xlink:href="#hd"/>
<path d="M266.50 267.40v-21.00" class="stroke"/>
<use x="296.30" y="261.40" xlink:href="#hd"/>
<path d="M299.80 261.40v-21.00" class="stroke"/>
<use x="343.50" y="255.40" xlink:href="#hd"/>
<path d="M340.00 255.40v21.00" class="stroke"/>
<use x="396.30" y="267.40" xlink:href="#hd"/>
<path d="M399.80 267.40v-21.00" class="stroke"/>
<use x="429.50" y="261.40" xlink:href="#hd"/>
<path d="M433.00 261.40v-21.00" class="stroke"/>
<use x="462.80" y="255.40" xlink:href="#hd"/>
<path d="M459.30 255.40v21.00" class="stroke"/>
<use x="498.80" y="258.40" xlink:href="#hd"/>
<path d="M495.30 258.40v21.00" class="stroke"/>
<use x="532.00" y="252.40" xlink:href="#hd"/>
<path d="M528.50 252.40v21.00" class="stroke"/>
<use x="565.20" y="246.40" xlink:href="#hd"/>
<path d="M561.70 246.40v21.00" class="stroke"/>
<use x="601.70" y="252.40" xlink:href="#hd"/>
<path d="M598.20 252.40v21.00" class="stroke"/>
<use x="634.90" y="246.40" xlink:href="#hd"/>
<path d="M631.40 246.40v21.00" class="stroke"/>
<use x="668.20" y="243.40" xlink:href="#hl"/>
<use x="668.20" y="240.40" xlink:href="#hd"/>
<path d="M664.70 240.40v21.00" class="stroke"/>
</g>
<g stroke-width="0.70" style="font:bold 13.00px Times">
<path class="stroke" stroke-width="1"
	d="M10.00 401.40v-82.00"/>
<g transform="translate(10.00,319.40) scale(1,0.82)">
	<use xlink:href="#brace"/>
</g>
<path class="stroke" stroke-width="1"
	d="M168.50 343.40v-24.00"/>
<path class="stroke" stroke-width="1"
	d="M168.50 401.40v-24.00"/>
<path class="stroke" stroke-width="1"
	d="M324.50 343.40v-24.00"/>
<path class="stroke" stroke-width="1"
	d="M324.50 401.40v-24.00"/>
<path class="stroke" stroke-width="1"
	d="M446.70 343.40v-24.00"/>
<path class="stroke" stroke-width="1"
	d="M446.70 401.40v-24.00"/>
<path class="stroke" stroke-width="1"
	d="M505.90 343.40v-24.00"/>
<path class="stroke" stroke-width="1"
	d="M505.90 401.40v-24.00"/>
<path d="m10.00 343.40
	h495.90
	M10.00 337.40
	h495.90
	M10.00 331.40
	h495.90
	M10.00 325.40
	h495.90
	M10.00 319.40
	h495.90
	" class="stroke"/>
<path d="m10.00 401.40
	h495.90
	M10.00 395.40
	h495.90
	M10.00 389.40
	h495.90
	M10.00 383.40
	h495.90
	M10.00 377.40
	h495.90
	" class="stroke"/>
</g>
<g stroke-width="0.70" style="font:bold 13.00px Times">
<text x="58.70" y="314.80">I</text>
</g>
<g stroke-width="0.70" style="font:bold 13.00px Times">
<text x="177.20" y="314.80">ii○</text>
</g>
<g stroke-width="0.70" style="font:bold 13.00px Times">
<text x="331.30" y="312.80">III<tspan
	 style="font:italic 11.00px Times">²</tspan></text>
</g>
<g stroke-width="0.70" style="font:bold 13.00px Times">
<text x="453.10" y="314.80">VI<tspan
	 style="font:italic 11.00px Times">¹</tspan></text>
</g>
<g stroke-width="0.70" style="font:italic 11.00px Times">
<use x="22.00" y="337.40" xlink:href="#tclef"/>
<use x="37.00" y="331.40" xlink:href="#ft0"/>
<use x="42.50" y="322.40" xlink:href="#ft0"/>
<use x="60.50" y="343.40" xlink:href="#hd"/>
<path d="M64.00 343.40v-21.00" class="stroke"/>
<use x="100.50" y="337.40" xlink:href="#hd"/>
<path d="M104.00 337.40v-21.00" class="stroke"/>
<use x="140.50" y="331.40" xlink:href="#hd"/>
<path d="M144.00 331.40v-21.00" class="stroke"/>
<use x="182.60" y="328.40" xlink:href="#hd"/>
<path d="M179.10 328.40v21.00" class="stroke"/>
<path class="fill"
	d="M179.10 349.40c0.6 -5.6 9.6 -9 5.6 -18.4
	1.6 6 -1.3 11.6 -5.6 12.8
"/>
<use x="210.90" y="331.40" xlink:href="#hd"/>
<path d="M207.40 331.40v21.00" class="stroke"/>
<path class="fill"
	d="M207.40 352.40c0.6 -5.6 9.6 -9 5.6 -18.4
	1.6 6 -1.3 11.6 -5.6 12.8
"/>
<use x="236.40" y="337.40" xlink:href="#hd"/>
<path d="M239.90 337.40v-21.00" class="stroke"/>
<use x="276.40" y="343.40" xlink:href="#hd"/>
<path d="M279.90 343.40v-21.00" class="stroke"/>
<path class="fill"
	d="M279.90 322.40c0.6 5.6 9.6 9 5.6 18.4
	1.6 -6 -1.3 -11.6 -5.6 -12.8
"/>
<use x="304.70" y="337.40" xlink:href="#hd"/>
<path d="M308.20 337.40v-21.00" class="stroke"/>
<path class="fill"
	d="M308.20 316.40c0.6 5.6 9.6 9 5.6 18.4
	1.6 -6 -1.3 -11.6 -5.6 -12.8
"/>
<use x="338.70" y="340.40" xlink:href="#hd"/>
<path d="M342.20 340.40v-21.00" class="stroke"/>
<use x="378.70" y="343.40" xlink:href="#hd"/>
<path d="M382.20 343.40v-21.00" class="stroke"/>
<use x="418.70" y="343.40" xlink:href="#hd"/>
<path d="M422.20 343.40v-21.00" class="stroke"/>
<use x="460.80" y="343.40" xlink:href="#Hd"/>
<circle class="fill" cx="469.50" cy="340.40" r="1.2"/>
<path d="M464.30 343.40v-21.00" class="stroke"/>
<use x="22.00" y="383.40" xlink:href="#bclef"/>
<use x="37.00" y="395.40" xlink:href="#ft0"/>
<use x="42.50" y="386.40" xlink:href="#ft0"/>
<use x="60.50" y="395.40" xlink:href="#hd"/>
<path d="M64.00 395.40v-21.00" class="stroke"/>
<use x="100.50" y="389.40" xlink:href="#hd"/>
<path d="M104.00 389.40v-21.00" class="stroke"/>
<use x="140.50" y="383.40" xlink:href="#hd"/>
<path d="M137.00 383.40v21.00" class="stroke"/>
<use x="182.60" y="395.40" xlink:href="#hd"/>
<path d="M186.10 395.40v-21.00" class="stroke"/>
<use x="236.40" y="389.40" xlink:href="#hd"/>
<path d="M239.90 389.40v-21.00" class="stroke"/>
<use x="276.40" y="383.40" xlink:href="#hd"/>
<path d="M272.90 383.40v21.00" class="stroke"/>
<use x="338.70" y="395.40" xlink:href="#hd"/>
<path d="M342.20 395.40v-21.00" class="stroke"/>
<use x="378.70" y="389.40" xlink:href="#hd"/>
<path d="M382.20 389.40v-21.00" class="stroke"/>
<use x="418.70" y="383.40" xlink:href="#hd"/>
<path d="M415.20 383.40v21.00" class="stroke"/>
<use x="460.80" y="407.40" xlink:href="#hl"/>
<use x="460.80" y="407.40" xlink:href="#Hd"/>
<circle class="fill" cx="469.50" cy="404.40" r="1.2"/>
<path d="M464.30 407.40v-50.00" class="stroke"/>
<use x="460.80" y="386.40" xlink:href="#Hd"/>
<circle class="fill" cx="469.50" cy="386.40" r="1.2"/>
<use x="460.80" y="380.40" xlink:href="#Hd"/>
<circle class="fill" cx="469.50" cy="380.40" r="1.2"/>
<use x="460.80" y="374.40" xlink:href="#Hd"/>
<circle class="fill" cx="469.50" cy="374.40" r="1.2"/>
</g>
</svg>
