<?xml version="1.0" standalone="no"?>
<!DOCTYPE svg PUBLIC "-//W3C//DTD SVG 1.1//EN"
	"http://www.w3.org/Graphics/SVG/1.1/DTD/svg11.dtd">
<svg xmlns="http://www.w3.org/2000/svg" version="1.1"
	xmlns:xlink="http://www.w3.org/1999/xlink"
	color="black"
	width="701.60px" height="752.60px" viewBox="0 0 701.60 752.60" preserveAspectRatio="xMidYMid meet">
<style type="text/css">
.fill {fill: currentColor}
.stroke {stroke: currentColor; fill: none}
text{white-space: pre}
</style>
<title>/tmp/retab_hymnal_L5/come_thou_long_expected_jesus.abc (1) tune 1</title>
<!-- Creator: abcm2ps-8.14.11 -->
<!-- CreationDate: Apr 24, 2026 15:38 -->
<!-- CommandLine: /tmp/retab_hymnal_L5/come_thou_long_expected_jesus.abc -g -O /tmp/retab_hymnal_L5/come_thou_long_expected_jesus -->
<g stroke-width="0.70">
<!-- title: 053. Come, Thou Long-Expected Jesus -->
</g>
<g stroke-width="0.70" style="font:20.00px Times">
<text x="350.80" y="22.00" text-anchor="middle">053. Come, Thou Long-Expected Jesus</text>
</g>
<g stroke-width="0.70" style="font:20.00px Times">
<path class="stroke" stroke-width="1"
	d="M10.00 145.40v-82.00"/>
<defs>
<path id="brace" class="fill" d="m-2.5 101
	c-4.5 -4.6 -7.5 -12.2 -4.4 -26.8
	3.5 -14.3 3.2 -21.7 -2.1 -24.2
	7.4 2.4 7.3 14.2 3.5 29.5
	-2.7 9.5 -1.5 16.2 3 21.5
	M-2.5 1c-4.5 4.6 -7.5 12.2 -4.4 26.8
	c3.5 14.3 3.2 21.7 -2.1 24.2
	7.4 -2.4 7.3 -14.2 3.5 -29.5
	-2.7 -9.5 -1.5 -16.2 3 -21.5"/>
</defs>
<g transform="translate(10.00,63.40) scale(1,0.82)">
	<use xlink:href="#brace"/>
</g>
<path class="stroke" stroke-width="1"
	d="M141.50 87.40v-24.00"/>
<path class="stroke" stroke-width="1"
	d="M141.50 145.40v-24.00"/>
<path class="stroke" stroke-width="1"
	d="M237.30 87.40v-24.00"/>
<path class="stroke" stroke-width="1"
	d="M237.30 145.40v-24.00"/>
<path class="stroke" stroke-width="1"
	d="M330.50 87.40v-24.00"/>
<path class="stroke" stroke-width="1"
	d="M330.50 145.40v-24.00"/>
<path class="stroke" stroke-width="1"
	d="M407.40 87.40v-24.00"/>
<path class="stroke" stroke-width="1"
	d="M407.40 145.40v-24.00"/>
<path class="stroke" stroke-width="1"
	d="M518.90 87.40v-24.00"/>
<path class="stroke" stroke-width="1"
	d="M518.90 145.40v-24.00"/>
<path class="stroke" stroke-width="1"
	d="M614.70 87.40v-24.00"/>
<path class="stroke" stroke-width="1"
	d="M614.70 145.40v-24.00"/>
<path class="stroke" stroke-width="1"
	d="M691.60 87.40v-24.00"/>
<path class="stroke" stroke-width="1"
	d="M691.60 145.40v-24.00"/>
<path d="m10.00 87.40
	h681.60
	M10.00 81.40
	h681.60
	M10.00 75.40
	h681.60
	M10.00 69.40
	h681.60
	M10.00 63.40
	h681.60
	" class="stroke"/>
<path d="m10.00 145.40
	h681.60
	M10.00 139.40
	h681.60
	M10.00 133.40
	h681.60
	M10.00 127.40
	h681.60
	M10.00 121.40
	h681.60
	" class="stroke"/>
</g>
<g stroke-width="0.70" style="font:bold 13.00px Times">
<text x="57.50" y="50.80">i</text>
</g>
<g stroke-width="0.70" style="font:bold 13.00px Times">
<text x="153.30" y="56.80">i</text>
</g>
<g stroke-width="0.70" style="font:bold 13.00px Times">
<text x="243.20" y="56.80">III<tspan
	 style="font:italic 11.00px Times">²</tspan></text>
</g>
<g stroke-width="0.70" style="font:bold 13.00px Times">
<text x="342.30" y="47.80">i</text>
</g>
<g stroke-width="0.70" style="font:bold 13.00px Times">
<text x="417.20" y="50.80">i<tspan
	 style="font:italic 11.00px Times">¹</tspan></text>
</g>
<g stroke-width="0.70" style="font:bold 13.00px Times">
<text x="530.70" y="56.80">i</text>
</g>
<g stroke-width="0.70" style="font:bold 13.00px Times">
<text x="620.60" y="56.80">III<tspan
	 style="font:italic 11.00px Times">¹</tspan></text>
</g>
<g stroke-width="0.70" style="font:italic 11.00px Times">
<defs>
<path id="utclef" class="fill" d="m-50 -90
	c-72 -41 -72 -158 52 -188
	150 -10 220 188 90 256
	-114 52 -275 0 -293 -136
	-15 -181 93 -229 220 -334
	88 -87 79 -133 62 -210
	-51 33 -94 105 -89 186
	17 267 36 374 49 574
	6 96 -19 134 -77 135
	-80 1 -126 -93 -61 -133
	85 -41 133 101 31 105
	23 17 92 37 90 -92
	-10 -223 -39 -342 -50 -617
	0 -90 0 -162 96 -232
	56 72 63 230 22 289
	-74 106 -257 168 -255 316
	9 153 148 185 252 133
	86 -65 29 -192 -80 -176
	-71 12 -105 67 -59 124"/>
<use id="tclef" transform="translate(0,6) scale(0.045)"
	xlink:href="#utclef"/>
</defs>
<use x="22.00" y="81.40" xlink:href="#tclef"/>
<g style="font:bold 16px serif"
	transform="translate(40.50,86.90) scale(1.2,1)">
	<text text-anchor="middle">4</text>
	<text y="-12" text-anchor="middle">2</text>
</g>
<defs>
<ellipse id="hd" rx="4.1" ry="2.9"
	transform="rotate(-20)" class="fill"/>
</defs>
<use x="59.00" y="78.40" xlink:href="#hd"/>
<path d="M62.50 78.40v-21.00" class="stroke"/>
<use x="96.40" y="78.40" xlink:href="#hd"/>
<path d="M99.90 78.40v-21.00" class="stroke"/>
<path class="fill"
	d="M99.90 57.40c0.6 5.6 9.6 9 5.6 18.4
	1.6 -6 -1.3 -11.6 -5.6 -12.8
"/>
<use x="122.90" y="81.40" xlink:href="#hd"/>
<path d="M126.40 81.40v-21.00" class="stroke"/>
<path class="fill"
	d="M126.40 60.40c0.6 5.6 9.6 9 5.6 18.4
	1.6 -6 -1.3 -11.6 -5.6 -12.8
"/>
<use x="154.80" y="87.40" xlink:href="#hd"/>
<path d="M158.30 87.40v-21.00" class="stroke"/>
<use x="192.20" y="81.40" xlink:href="#hd"/>
<path d="M195.70 81.40v-21.00" class="stroke"/>
<path class="fill"
	d="M195.70 60.40c0.6 5.6 9.6 9 5.6 18.4
	1.6 -6 -1.3 -11.6 -5.6 -12.8
"/>
<use x="218.70" y="78.40" xlink:href="#hd"/>
<path d="M222.20 78.40v-21.00" class="stroke"/>
<path class="fill"
	d="M222.20 57.40c0.6 5.6 9.6 9 5.6 18.4
	1.6 -6 -1.3 -11.6 -5.6 -12.8
"/>
<use x="250.60" y="72.40" xlink:href="#hd"/>
<path d="M247.10 72.40v21.00" class="stroke"/>
<use x="288.00" y="75.40" xlink:href="#hd"/>
<path d="M284.50 75.40v21.00" class="stroke"/>
<path class="fill"
	d="M284.50 96.40c0.6 -5.6 9.6 -9 5.6 -18.4
	1.6 6 -1.3 11.6 -5.6 12.8
"/>
<use x="311.90" y="78.40" xlink:href="#hd"/>
<path d="M315.40 78.40v-21.00" class="stroke"/>
<path class="fill"
	d="M315.40 57.40c0.6 5.6 9.6 9 5.6 18.4
	1.6 -6 -1.3 -11.6 -5.6 -12.8
"/>
<use x="343.80" y="75.40" xlink:href="#hd"/>
<path d="M347.30 75.40v-21.00" class="stroke"/>
<use x="381.20" y="78.40" xlink:href="#hd"/>
<path d="M384.70 78.40v-21.00" class="stroke"/>
<use x="420.70" y="78.40" xlink:href="#hd"/>
<path d="M424.20 78.40v-21.00" class="stroke"/>
<path class="fill"
	d="M424.20 57.40c0.6 5.6 9.6 9 5.6 18.4
	1.6 -6 -1.3 -11.6 -5.6 -12.8
"/>
<use x="447.20" y="81.40" xlink:href="#hd"/>
<path d="M450.70 81.40v-21.00" class="stroke"/>
<path class="fill"
	d="M450.70 60.40c0.6 5.6 9.6 9 5.6 18.4
	1.6 -6 -1.3 -11.6 -5.6 -12.8
"/>
<use x="473.70" y="87.40" xlink:href="#hd"/>
<path d="M477.20 87.40v-21.00" class="stroke"/>
<path class="fill"
	d="M477.20 66.40c0.6 5.6 9.6 9 5.6 18.4
	1.6 -6 -1.3 -11.6 -5.6 -12.8
"/>
<use x="500.20" y="90.40" xlink:href="#hd"/>
<path d="M503.70 90.40v-21.00" class="stroke"/>
<path class="fill"
	d="M503.70 69.40c0.6 5.6 9.6 9 5.6 18.4
	1.6 -6 -1.3 -11.6 -5.6 -12.8
"/>
<use x="532.20" y="87.40" xlink:href="#hd"/>
<path d="M535.70 87.40v-21.00" class="stroke"/>
<use x="569.60" y="81.40" xlink:href="#hd"/>
<path d="M573.10 81.40v-21.00" class="stroke"/>
<path class="fill"
	d="M573.10 60.40c0.6 5.6 9.6 9 5.6 18.4
	1.6 -6 -1.3 -11.6 -5.6 -12.8
"/>
<use x="596.10" y="78.40" xlink:href="#hd"/>
<path d="M599.60 78.40v-21.00" class="stroke"/>
<path class="fill"
	d="M599.60 57.40c0.6 5.6 9.6 9 5.6 18.4
	1.6 -6 -1.3 -11.6 -5.6 -12.8
"/>
<use x="628.00" y="72.40" xlink:href="#hd"/>
<path d="M624.50 72.40v21.00" class="stroke"/>
<use x="665.40" y="75.40" xlink:href="#hd"/>
<path d="M661.90 75.40v21.00" class="stroke"/>
<defs>
<path id="ubclef" class="fill" d="m-200 -87
	c124 -35 222 -78 254 -236
	43 -228 -167 -246 -192 -103
	59 -80 157 22 92 78
	-62 47 -115 -22 -106 -88
	21 -141 270 -136 274 52
	-1 175 -106 264 -322 297
	m357 -250
	c0 -36 51 -34 51 0
	0 37 -51 36 -51 0
	m-2 -129
	c0 -36 51 -34 51 0
	0 38 -51 37 -51 0"/>
<use id="bclef" transform="translate(0,18) scale(0.045)"
	xlink:href="#ubclef"/>
</defs>
<use x="22.00" y="127.40" xlink:href="#bclef"/>
<g style="font:bold 16px serif"
	transform="translate(40.50,144.90) scale(1.2,1)">
	<text text-anchor="middle">4</text>
	<text y="-12" text-anchor="middle">2</text>
</g>
<defs>
<path id="hl" class="stroke" d="m-6 0h12"/>
</defs>
<use x="59.00" y="151.40" xlink:href="#hl"/>
<use x="59.00" y="157.40" xlink:href="#hl"/>
<use x="59.00" y="163.40" xlink:href="#hl"/>
<defs>
<path id="Hd" class="fill" d="m3 -1.6
	c-1 -1.8 -7 1.4 -6 3.2
	1 1.8 7 -1.4 6 -3.2
	m0.5 -0.3
	c2 3.8 -5 7.6 -7 3.8
	-2 -3.8 5 -7.6 7 -3.8"/>
</defs>
<use x="59.00" y="163.40" xlink:href="#Hd"/>
<path d="M62.50 163.40v-52.00" class="stroke"/>
<use x="59.00" y="142.40" xlink:href="#Hd"/>
<use x="59.00" y="136.40" xlink:href="#Hd"/>
<use x="59.00" y="130.40" xlink:href="#Hd"/>
<use x="154.80" y="142.40" xlink:href="#hd"/>
<path d="M158.30 142.40v-21.00" class="stroke"/>
<use x="192.20" y="136.40" xlink:href="#hd"/>
<path d="M195.70 136.40v-21.00" class="stroke"/>
<use x="250.60" y="151.40" xlink:href="#hl"/>
<use x="250.60" y="157.40" xlink:href="#hl"/>
<use x="250.60" y="157.40" xlink:href="#Hd"/>
<path d="M254.10 157.40v-31.00" class="stroke"/>
<use x="250.60" y="151.40" xlink:href="#Hd"/>
<use x="250.60" y="145.40" xlink:href="#Hd"/>
<use x="343.80" y="151.40" xlink:href="#hl"/>
<use x="343.80" y="157.40" xlink:href="#hl"/>
<use x="343.80" y="163.40" xlink:href="#hl"/>
<use x="343.80" y="163.40" xlink:href="#Hd"/>
<path d="M347.30 163.40v-52.00" class="stroke"/>
<use x="343.80" y="142.40" xlink:href="#Hd"/>
<use x="343.80" y="136.40" xlink:href="#Hd"/>
<use x="343.80" y="130.40" xlink:href="#Hd"/>
<use x="420.70" y="151.40" xlink:href="#hl"/>
<use x="420.70" y="157.40" xlink:href="#hl"/>
<use x="420.70" y="163.40" xlink:href="#hl"/>
<use x="420.70" y="163.40" xlink:href="#Hd"/>
<path d="M424.20 163.40v-52.00" class="stroke"/>
<use x="420.70" y="142.40" xlink:href="#Hd"/>
<use x="420.70" y="136.40" xlink:href="#Hd"/>
<use x="420.70" y="130.40" xlink:href="#Hd"/>
<use x="532.20" y="151.40" xlink:href="#hl"/>
<use x="532.20" y="157.40" xlink:href="#hl"/>
<use x="532.20" y="163.40" xlink:href="#hl"/>
<use x="532.20" y="163.40" xlink:href="#Hd"/>
<path d="M535.70 163.40v-52.00" class="stroke"/>
<use x="532.20" y="142.40" xlink:href="#Hd"/>
<use x="532.20" y="136.40" xlink:href="#Hd"/>
<use x="532.20" y="130.40" xlink:href="#Hd"/>
<use x="628.00" y="151.40" xlink:href="#hl"/>
<use x="628.00" y="157.40" xlink:href="#hl"/>
<use x="628.00" y="163.40" xlink:href="#hl"/>
<use x="628.00" y="169.40" xlink:href="#hl"/>
<use x="628.00" y="175.40" xlink:href="#hl"/>
<use x="628.00" y="178.40" xlink:href="#Hd"/>
<path d="M631.50 178.40v-52.00" class="stroke"/>
<use x="628.00" y="157.40" xlink:href="#Hd"/>
<use x="628.00" y="151.40" xlink:href="#Hd"/>
<use x="628.00" y="145.40" xlink:href="#Hd"/>
</g>
<g stroke-width="0.70" style="font:italic 11.00px Times">
<path class="stroke" stroke-width="1"
	d="M10.00 291.80v-82.00"/>
<g transform="translate(10.00,209.80) scale(1,0.82)">
	<use xlink:href="#brace"/>
</g>
<path class="stroke" stroke-width="1"
	d="M86.50 233.80v-24.00"/>
<path class="stroke" stroke-width="1"
	d="M86.50 291.80v-24.00"/>
<path class="stroke" stroke-width="1"
	d="M188.40 233.80v-24.00"/>
<path class="stroke" stroke-width="1"
	d="M188.40 291.80v-24.00"/>
<path class="stroke" stroke-width="1"
	d="M290.30 233.80v-24.00"/>
<path class="stroke" stroke-width="1"
	d="M290.30 291.80v-24.00"/>
<path class="stroke" stroke-width="1"
	d="M389.40 233.80v-24.00"/>
<path class="stroke" stroke-width="1"
	d="M389.40 291.80v-24.00"/>
<path class="stroke" stroke-width="1"
	d="M471.20 233.80v-24.00"/>
<path class="stroke" stroke-width="1"
	d="M471.20 291.80v-24.00"/>
<path class="stroke" stroke-width="1"
	d="M589.70 233.80v-24.00"/>
<path class="stroke" stroke-width="1"
	d="M589.70 291.80v-24.00"/>
<path class="stroke" stroke-width="1"
	d="M691.60 233.80v-24.00"/>
<path class="stroke" stroke-width="1"
	d="M691.60 291.80v-24.00"/>
<path d="m10.00 233.80
	h681.60
	M10.00 227.80
	h681.60
	M10.00 221.80
	h681.60
	M10.00 215.80
	h681.60
	M10.00 209.80
	h681.60
	" class="stroke"/>
<path d="m10.00 291.80
	h681.60
	M10.00 285.80
	h681.60
	M10.00 279.80
	h681.60
	M10.00 273.80
	h681.60
	M10.00 267.80
	h681.60
	" class="stroke"/>
</g>
<g stroke-width="0.70" style="font:bold 13.00px Times">
<text x="45.50" y="197.20">i</text>
</g>
<g stroke-width="0.70" style="font:bold 13.00px Times">
<text x="99.10" y="197.20">i</text>
</g>
<g stroke-width="0.70" style="font:bold 13.00px Times">
<text x="201.00" y="203.20">i</text>
</g>
<g stroke-width="0.70" style="font:bold 13.00px Times">
<text x="297.00" y="203.20">III<tspan
	 style="font:italic 11.00px Times">²</tspan></text>
</g>
<g stroke-width="0.70" style="font:bold 13.00px Times">
<text x="402.00" y="194.20">i</text>
</g>
<g stroke-width="0.70" style="font:bold 13.00px Times">
<text x="481.90" y="197.20">i<tspan
	 style="font:italic 11.00px Times">¹</tspan></text>
</g>
<g stroke-width="0.70" style="font:bold 13.00px Times">
<text x="602.30" y="205.20">i</text>
<use x="22.00" y="227.80" xlink:href="#tclef"/>
<use x="47.00" y="224.80" xlink:href="#Hd"/>
<path d="M50.50 224.80v-21.00" class="stroke"/>
<use x="100.60" y="224.80" xlink:href="#hd"/>
<path d="M104.10 224.80v-21.00" class="stroke"/>
<use x="140.40" y="224.80" xlink:href="#hd"/>
<path d="M143.90 224.80v-21.00" class="stroke"/>
<path class="fill"
	d="M143.90 203.80c0.6 5.6 9.6 9 5.6 18.4
	1.6 -6 -1.3 -11.6 -5.6 -12.8
"/>
<use x="168.60" y="227.80" xlink:href="#hd"/>
<path d="M172.10 227.80v-21.00" class="stroke"/>
<path class="fill"
	d="M172.10 206.80c0.6 5.6 9.6 9 5.6 18.4
	1.6 -6 -1.3 -11.6 -5.6 -12.8
"/>
<use x="202.50" y="233.80" xlink:href="#hd"/>
<path d="M206.00 233.80v-21.00" class="stroke"/>
<use x="242.30" y="227.80" xlink:href="#hd"/>
<path d="M245.80 227.80v-21.00" class="stroke"/>
<path class="fill"
	d="M245.80 206.80c0.6 5.6 9.6 9 5.6 18.4
	1.6 -6 -1.3 -11.6 -5.6 -12.8
"/>
<use x="270.50" y="224.80" xlink:href="#hd"/>
<path d="M274.00 224.80v-21.00" class="stroke"/>
<path class="fill"
	d="M274.00 203.80c0.6 5.6 9.6 9 5.6 18.4
	1.6 -6 -1.3 -11.6 -5.6 -12.8
"/>
<use x="304.40" y="218.80" xlink:href="#hd"/>
<path d="M300.90 218.80v21.00" class="stroke"/>
<use x="344.30" y="221.80" xlink:href="#hd"/>
<path d="M340.80 221.80v21.00" class="stroke"/>
<path class="fill"
	d="M340.80 242.80c0.6 -5.6 9.6 -9 5.6 -18.4
	1.6 6 -1.3 11.6 -5.6 12.8
"/>
<use x="369.60" y="224.80" xlink:href="#hd"/>
<path d="M373.10 224.80v-21.00" class="stroke"/>
<path class="fill"
	d="M373.10 203.80c0.6 5.6 9.6 9 5.6 18.4
	1.6 -6 -1.3 -11.6 -5.6 -12.8
"/>
<use x="403.50" y="221.80" xlink:href="#hd"/>
<path d="M407.00 221.80v-21.00" class="stroke"/>
<use x="443.30" y="224.80" xlink:href="#hd"/>
<path d="M446.80 224.80v-21.00" class="stroke"/>
<use x="485.30" y="224.80" xlink:href="#hd"/>
<path d="M488.80 224.80v-21.00" class="stroke"/>
<path class="fill"
	d="M488.80 203.80c0.6 5.6 9.6 9 5.6 18.4
	1.6 -6 -1.3 -11.6 -5.6 -12.8
"/>
<use x="513.50" y="227.80" xlink:href="#hd"/>
<path d="M517.00 227.80v-21.00" class="stroke"/>
<path class="fill"
	d="M517.00 206.80c0.6 5.6 9.6 9 5.6 18.4
	1.6 -6 -1.3 -11.6 -5.6 -12.8
"/>
<use x="541.70" y="233.80" xlink:href="#hd"/>
<path d="M545.20 233.80v-21.00" class="stroke"/>
<path class="fill"
	d="M545.20 212.80c0.6 5.6 9.6 9 5.6 18.4
	1.6 -6 -1.3 -11.6 -5.6 -12.8
"/>
<use x="569.90" y="236.80" xlink:href="#hd"/>
<path d="M573.40 236.80v-21.00" class="stroke"/>
<path class="fill"
	d="M573.40 215.80c0.6 5.6 9.6 9 5.6 18.4
	1.6 -6 -1.3 -11.6 -5.6 -12.8
"/>
<use x="603.80" y="233.80" xlink:href="#hd"/>
<path d="M607.30 233.80v-21.00" class="stroke"/>
<use x="643.70" y="227.80" xlink:href="#hd"/>
<path d="M647.20 227.80v-21.00" class="stroke"/>
<path class="fill"
	d="M647.20 206.80c0.6 5.6 9.6 9 5.6 18.4
	1.6 -6 -1.3 -11.6 -5.6 -12.8
"/>
<use x="671.90" y="224.80" xlink:href="#hd"/>
<path d="M675.40 224.80v-21.00" class="stroke"/>
<path class="fill"
	d="M675.40 203.80c0.6 5.6 9.6 9 5.6 18.4
	1.6 -6 -1.3 -11.6 -5.6 -12.8
"/>
<use x="22.00" y="273.80" xlink:href="#bclef"/>
<use x="47.00" y="297.80" xlink:href="#hl"/>
<use x="47.00" y="303.80" xlink:href="#hl"/>
<use x="47.00" y="309.80" xlink:href="#hl"/>
<use x="47.00" y="309.80" xlink:href="#Hd"/>
<path d="M50.50 309.80v-52.00" class="stroke"/>
<use x="47.00" y="288.80" xlink:href="#Hd"/>
<use x="47.00" y="282.80" xlink:href="#Hd"/>
<use x="47.00" y="276.80" xlink:href="#Hd"/>
<use x="100.60" y="297.80" xlink:href="#hl"/>
<use x="100.60" y="303.80" xlink:href="#hl"/>
<use x="100.60" y="309.80" xlink:href="#hl"/>
<use x="100.60" y="309.80" xlink:href="#Hd"/>
<path d="M104.10 309.80v-52.00" class="stroke"/>
<use x="100.60" y="288.80" xlink:href="#Hd"/>
<use x="100.60" y="282.80" xlink:href="#Hd"/>
<use x="100.60" y="276.80" xlink:href="#Hd"/>
<use x="202.50" y="288.80" xlink:href="#hd"/>
<path d="M206.00 288.80v-21.00" class="stroke"/>
<use x="242.30" y="282.80" xlink:href="#hd"/>
<path d="M245.80 282.80v-21.00" class="stroke"/>
<use x="304.40" y="297.80" xlink:href="#hl"/>
<use x="304.40" y="303.80" xlink:href="#hl"/>
<use x="304.40" y="303.80" xlink:href="#Hd"/>
<path d="M307.90 303.80v-31.00" class="stroke"/>
<use x="304.40" y="297.80" xlink:href="#Hd"/>
<use x="304.40" y="291.80" xlink:href="#Hd"/>
<use x="403.50" y="297.80" xlink:href="#hl"/>
<use x="403.50" y="303.80" xlink:href="#hl"/>
<use x="403.50" y="309.80" xlink:href="#hl"/>
<use x="403.50" y="309.80" xlink:href="#Hd"/>
<path d="M407.00 309.80v-52.00" class="stroke"/>
<use x="403.50" y="288.80" xlink:href="#Hd"/>
<use x="403.50" y="282.80" xlink:href="#Hd"/>
<use x="403.50" y="276.80" xlink:href="#Hd"/>
<use x="485.30" y="297.80" xlink:href="#hl"/>
<use x="485.30" y="303.80" xlink:href="#hl"/>
<use x="485.30" y="309.80" xlink:href="#hl"/>
<use x="485.30" y="309.80" xlink:href="#Hd"/>
<path d="M488.80 309.80v-52.00" class="stroke"/>
<use x="485.30" y="288.80" xlink:href="#Hd"/>
<use x="485.30" y="282.80" xlink:href="#Hd"/>
<use x="485.30" y="276.80" xlink:href="#Hd"/>
<use x="603.80" y="297.80" xlink:href="#hl"/>
<use x="603.80" y="303.80" xlink:href="#hl"/>
<use x="603.80" y="309.80" xlink:href="#hl"/>
<use x="603.80" y="309.80" xlink:href="#Hd"/>
<path d="M607.30 309.80v-52.00" class="stroke"/>
<use x="603.80" y="288.80" xlink:href="#Hd"/>
<use x="603.80" y="282.80" xlink:href="#Hd"/>
<use x="603.80" y="276.80" xlink:href="#Hd"/>
</g>
<g stroke-width="0.70" style="font:bold 13.00px Times">
<path class="stroke" stroke-width="1"
	d="M10.00 423.20v-82.00"/>
<g transform="translate(10.00,341.20) scale(1,0.82)">
	<use xlink:href="#brace"/>
</g>
<path class="stroke" stroke-width="1"
	d="M114.20 365.20v-24.00"/>
<path class="stroke" stroke-width="1"
	d="M114.20 423.20v-24.00"/>
<path class="stroke" stroke-width="1"
	d="M167.40 365.20v-24.00"/>
<path class="stroke" stroke-width="1"
	d="M167.40 423.20v-24.00"/>
<path class="stroke" stroke-width="1"
	d="M248.60 365.20v-24.00"/>
<path class="stroke" stroke-width="1"
	d="M248.60 423.20v-24.00"/>
<path class="stroke" stroke-width="1"
	d="M329.80 365.20v-24.00"/>
<path class="stroke" stroke-width="1"
	d="M329.80 423.20v-24.00"/>
<path class="stroke" stroke-width="1"
	d="M428.10 365.20v-24.00"/>
<path class="stroke" stroke-width="1"
	d="M428.10 423.20v-24.00"/>
<path class="stroke" stroke-width="1"
	d="M509.30 365.20v-24.00"/>
<path class="stroke" stroke-width="1"
	d="M509.30 423.20v-24.00"/>
<path class="stroke" stroke-width="1"
	d="M590.50 365.20v-24.00"/>
<path class="stroke" stroke-width="1"
	d="M590.50 423.20v-24.00"/>
<path class="stroke" stroke-width="1"
	d="M691.60 365.20v-24.00"/>
<path class="stroke" stroke-width="1"
	d="M691.60 423.20v-24.00"/>
<path d="m10.00 365.20
	h681.60
	M10.00 359.20
	h681.60
	M10.00 353.20
	h681.60
	M10.00 347.20
	h681.60
	M10.00 341.20
	h681.60
	" class="stroke"/>
<path d="m10.00 423.20
	h681.60
	M10.00 417.20
	h681.60
	M10.00 411.20
	h681.60
	M10.00 405.20
	h681.60
	M10.00 399.20
	h681.60
	" class="stroke"/>
</g>
<g stroke-width="0.70" style="font:bold 13.00px Times">
<text x="39.60" y="336.60">III<tspan
	 style="font:italic 11.00px Times">¹</tspan></text>
</g>
<g stroke-width="0.70" style="font:bold 13.00px Times">
<text x="126.70" y="328.60">i</text>
</g>
<g stroke-width="0.70" style="font:bold 13.00px Times">
<text x="174.00" y="334.60">III<tspan
	 style="font:italic 11.00px Times">¹</tspan></text>
</g>
<g stroke-width="0.70" style="font:bold 13.00px Times">
<text x="261.10" y="335.60">i</text>
</g>
<g stroke-width="0.70" style="font:bold 13.00px Times">
<text x="338.30" y="336.60">III</text>
</g>
<g stroke-width="0.70" style="font:bold 13.00px Times">
<text x="440.60" y="325.60">i</text>
</g>
<g stroke-width="0.70" style="font:bold 13.00px Times">
<text x="517.80" y="336.60">III</text>
</g>
<g stroke-width="0.70" style="font:bold 13.00px Times">
<text x="597.10" y="335.60">III<tspan
	 style="font:italic 11.00px Times">¹</tspan></text>
</g>
<g stroke-width="0.70" style="font:italic 11.00px Times">
<use x="22.00" y="359.20" xlink:href="#tclef"/>
<use x="47.00" y="350.20" xlink:href="#hd"/>
<path d="M43.50 350.20v21.00" class="stroke"/>
<use x="86.50" y="353.20" xlink:href="#hd"/>
<path d="M83.00 353.20v21.00" class="stroke"/>
<use x="128.20" y="356.20" xlink:href="#Hd"/>
<path d="M131.70 356.20v-21.00" class="stroke"/>
<use x="181.40" y="350.20" xlink:href="#hd"/>
<path d="M177.90 350.20v21.00" class="stroke"/>
<use x="220.90" y="347.20" xlink:href="#hd"/>
<path d="M217.40 347.20v21.00" class="stroke"/>
<use x="262.60" y="344.20" xlink:href="#hd"/>
<path d="M259.10 344.20v21.00" class="stroke"/>
<use x="302.10" y="344.20" xlink:href="#hd"/>
<path d="M298.60 344.20v21.00" class="stroke"/>
<use x="343.80" y="350.20" xlink:href="#hd"/>
<path d="M340.30 350.20v21.00" class="stroke"/>
<use x="383.30" y="353.20" xlink:href="#hd"/>
<path d="M379.80 353.20v21.00" class="stroke"/>
<path class="fill"
	d="M379.80 374.20c0.6 -5.6 9.6 -9 5.6 -18.4
	1.6 6 -1.3 11.6 -5.6 12.8
"/>
<use x="408.50" y="356.20" xlink:href="#hd"/>
<path d="M412.00 356.20v-21.00" class="stroke"/>
<path class="fill"
	d="M412.00 335.20c0.6 5.6 9.6 9 5.6 18.4
	1.6 -6 -1.3 -11.6 -5.6 -12.8
"/>
<use x="442.10" y="353.20" xlink:href="#hd"/>
<path d="M445.60 353.20v-21.00" class="stroke"/>
<use x="481.60" y="356.20" xlink:href="#hd"/>
<path d="M485.10 356.20v-21.00" class="stroke"/>
<use x="523.30" y="350.20" xlink:href="#hd"/>
<path d="M519.80 350.20v21.00" class="stroke"/>
<use x="562.80" y="347.20" xlink:href="#hd"/>
<path d="M559.30 347.20v21.00" class="stroke"/>
<use x="604.50" y="344.20" xlink:href="#hd"/>
<path d="M601.00 344.20v21.00" class="stroke"/>
<use x="644.00" y="344.20" xlink:href="#hd"/>
<path d="M640.50 344.20v21.00" class="stroke"/>
<path class="fill"
	d="M640.50 365.20c0.6 -5.6 9.6 -9 5.6 -18.4
	1.6 6 -1.3 11.6 -5.6 12.8
"/>
<use x="672.00" y="347.20" xlink:href="#hd"/>
<path d="M668.50 347.20v21.00" class="stroke"/>
<path class="fill"
	d="M668.50 368.20c0.6 -5.6 9.6 -9 5.6 -18.4
	1.6 6 -1.3 11.6 -5.6 12.8
"/>
<use x="22.00" y="405.20" xlink:href="#bclef"/>
<use x="47.00" y="429.20" xlink:href="#hl"/>
<use x="47.00" y="435.20" xlink:href="#hl"/>
<use x="47.00" y="441.20" xlink:href="#hl"/>
<use x="47.00" y="447.20" xlink:href="#hl"/>
<use x="47.00" y="453.20" xlink:href="#hl"/>
<use x="47.00" y="456.20" xlink:href="#Hd"/>
<path d="M50.50 456.20v-52.00" class="stroke"/>
<use x="47.00" y="435.20" xlink:href="#Hd"/>
<use x="47.00" y="429.20" xlink:href="#Hd"/>
<use x="47.00" y="423.20" xlink:href="#Hd"/>
<use x="128.20" y="429.20" xlink:href="#hl"/>
<use x="128.20" y="435.20" xlink:href="#hl"/>
<use x="128.20" y="441.20" xlink:href="#hl"/>
<use x="128.20" y="441.20" xlink:href="#Hd"/>
<path d="M131.70 441.20v-52.00" class="stroke"/>
<use x="128.20" y="420.20" xlink:href="#Hd"/>
<use x="128.20" y="414.20" xlink:href="#Hd"/>
<use x="128.20" y="408.20" xlink:href="#Hd"/>
<use x="181.40" y="429.20" xlink:href="#hl"/>
<use x="181.40" y="435.20" xlink:href="#hl"/>
<use x="181.40" y="441.20" xlink:href="#hl"/>
<use x="181.40" y="447.20" xlink:href="#hl"/>
<use x="181.40" y="453.20" xlink:href="#hl"/>
<use x="181.40" y="456.20" xlink:href="#Hd"/>
<path d="M184.90 456.20v-52.00" class="stroke"/>
<use x="181.40" y="435.20" xlink:href="#Hd"/>
<use x="181.40" y="429.20" xlink:href="#Hd"/>
<use x="181.40" y="423.20" xlink:href="#Hd"/>
<use x="262.60" y="429.20" xlink:href="#hl"/>
<use x="262.60" y="435.20" xlink:href="#hl"/>
<use x="262.60" y="441.20" xlink:href="#hl"/>
<use x="262.60" y="441.20" xlink:href="#Hd"/>
<path d="M266.10 441.20v-52.00" class="stroke"/>
<use x="262.60" y="420.20" xlink:href="#Hd"/>
<use x="262.60" y="414.20" xlink:href="#Hd"/>
<use x="262.60" y="408.20" xlink:href="#Hd"/>
<use x="343.80" y="429.20" xlink:href="#hl"/>
<use x="343.80" y="435.20" xlink:href="#hl"/>
<use x="343.80" y="441.20" xlink:href="#hl"/>
<use x="343.80" y="447.20" xlink:href="#hl"/>
<use x="343.80" y="453.20" xlink:href="#hl"/>
<use x="343.80" y="456.20" xlink:href="#Hd"/>
<path d="M347.30 456.20v-52.00" class="stroke"/>
<use x="343.80" y="435.20" xlink:href="#Hd"/>
<use x="343.80" y="429.20" xlink:href="#Hd"/>
<use x="343.80" y="423.20" xlink:href="#Hd"/>
<use x="442.10" y="429.20" xlink:href="#hl"/>
<use x="442.10" y="435.20" xlink:href="#hl"/>
<use x="442.10" y="441.20" xlink:href="#hl"/>
<use x="442.10" y="441.20" xlink:href="#Hd"/>
<path d="M445.60 441.20v-52.00" class="stroke"/>
<use x="442.10" y="420.20" xlink:href="#Hd"/>
<use x="442.10" y="414.20" xlink:href="#Hd"/>
<use x="442.10" y="408.20" xlink:href="#Hd"/>
<use x="523.30" y="429.20" xlink:href="#hl"/>
<use x="523.30" y="435.20" xlink:href="#hl"/>
<use x="523.30" y="441.20" xlink:href="#hl"/>
<use x="523.30" y="447.20" xlink:href="#hl"/>
<use x="523.30" y="453.20" xlink:href="#hl"/>
<use x="523.30" y="456.20" xlink:href="#Hd"/>
<path d="M526.80 456.20v-52.00" class="stroke"/>
<use x="523.30" y="435.20" xlink:href="#Hd"/>
<use x="523.30" y="429.20" xlink:href="#Hd"/>
<use x="523.30" y="423.20" xlink:href="#Hd"/>
<use x="604.50" y="429.20" xlink:href="#hl"/>
<use x="604.50" y="435.20" xlink:href="#hl"/>
<use x="604.50" y="441.20" xlink:href="#hl"/>
<use x="604.50" y="447.20" xlink:href="#hl"/>
<use x="604.50" y="453.20" xlink:href="#hl"/>
<use x="604.50" y="456.20" xlink:href="#Hd"/>
<path d="M608.00 456.20v-52.00" class="stroke"/>
<use x="604.50" y="435.20" xlink:href="#Hd"/>
<use x="604.50" y="429.20" xlink:href="#Hd"/>
<use x="604.50" y="423.20" xlink:href="#Hd"/>
</g>
<g stroke-width="0.70" style="font:italic 11.00px Times">
<path class="stroke" stroke-width="1"
	d="M10.00 569.60v-82.00"/>
<g transform="translate(10.00,487.60) scale(1,0.82)">
	<use xlink:href="#brace"/>
</g>
<path class="stroke" stroke-width="1"
	d="M134.70 511.60v-24.00"/>
<path class="stroke" stroke-width="1"
	d="M134.70 569.60v-24.00"/>
<path class="stroke" stroke-width="1"
	d="M190.00 511.60v-24.00"/>
<path class="stroke" stroke-width="1"
	d="M190.00 569.60v-24.00"/>
<path class="stroke" stroke-width="1"
	d="M295.20 511.60v-24.00"/>
<path class="stroke" stroke-width="1"
	d="M295.20 569.60v-24.00"/>
<path class="stroke" stroke-width="1"
	d="M379.70 511.60v-24.00"/>
<path class="stroke" stroke-width="1"
	d="M379.70 569.60v-24.00"/>
<path class="stroke" stroke-width="1"
	d="M484.90 511.60v-24.00"/>
<path class="stroke" stroke-width="1"
	d="M484.90 569.60v-24.00"/>
<path class="stroke" stroke-width="1"
	d="M569.40 511.60v-24.00"/>
<path class="stroke" stroke-width="1"
	d="M569.40 569.60v-24.00"/>
<path class="stroke" stroke-width="1"
	d="M691.60 511.60v-24.00"/>
<path class="stroke" stroke-width="1"
	d="M691.60 569.60v-24.00"/>
<path d="m10.00 511.60
	h681.60
	M10.00 505.60
	h681.60
	M10.00 499.60
	h681.60
	M10.00 493.60
	h681.60
	M10.00 487.60
	h681.60
	" class="stroke"/>
<path d="m10.00 569.60
	h681.60
	M10.00 563.60
	h681.60
	M10.00 557.60
	h681.60
	M10.00 551.60
	h681.60
	M10.00 545.60
	h681.60
	" class="stroke"/>
</g>
<g stroke-width="0.70" style="font:bold 13.00px Times">
<text x="41.50" y="483.00">III</text>
</g>
<g stroke-width="0.70" style="font:bold 13.00px Times">
<text x="145.30" y="472.00">V</text>
</g>
<g stroke-width="0.70" style="font:bold 13.00px Times">
<text x="197.20" y="475.00">III<tspan
	 style="font:italic 11.00px Times">²</tspan></text>
</g>
<g stroke-width="0.70" style="font:bold 13.00px Times">
<text x="305.80" y="481.00">V</text>
</g>
<g stroke-width="0.70" style="font:bold 13.00px Times">
<text x="392.70" y="483.00">i</text>
</g>
<g stroke-width="0.70" style="font:bold 13.00px Times">
<text x="492.00" y="472.00">ii○<tspan
	 style="font:italic 11.00px Times">¹</tspan></text>
</g>
<g stroke-width="0.70" style="font:bold 13.00px Times">
<text x="582.40" y="475.00">i</text>
<use x="22.00" y="505.60" xlink:href="#tclef"/>
<use x="47.00" y="496.60" xlink:href="#hd"/>
<path d="M43.50 496.60v21.00" class="stroke"/>
<use x="88.10" y="499.60" xlink:href="#hd"/>
<path d="M84.60 499.60v21.00" class="stroke"/>
<path class="fill"
	d="M84.60 520.60c0.6 -5.6 9.6 -9 5.6 -18.4
	1.6 6 -1.3 11.6 -5.6 12.8
"/>
<use x="114.30" y="502.60" xlink:href="#hd"/>
<path d="M117.80 502.60v-21.00" class="stroke"/>
<path class="fill"
	d="M117.80 481.60c0.6 5.6 9.6 9 5.6 18.4
	1.6 -6 -1.3 -11.6 -5.6 -12.8
"/>
<use x="149.30" y="499.60" xlink:href="#Hd"/>
<path d="M152.80 499.60v-21.00" class="stroke"/>
<use x="204.60" y="502.60" xlink:href="#hd"/>
<path d="M208.10 502.60v-21.00" class="stroke"/>
<use x="245.70" y="496.60" xlink:href="#hd"/>
<path d="M242.20 496.60v21.00" class="stroke"/>
<path class="fill"
	d="M242.20 517.60c0.6 -5.6 9.6 -9 5.6 -18.4
	1.6 6 -1.3 11.6 -5.6 12.8
"/>
<use x="274.80" y="493.60" xlink:href="#hd"/>
<path d="M271.30 493.60v21.00" class="stroke"/>
<path class="fill"
	d="M271.30 514.60c0.6 -5.6 9.6 -9 5.6 -18.4
	1.6 6 -1.3 11.6 -5.6 12.8
"/>
<use x="309.70" y="490.60" xlink:href="#hd"/>
<path d="M306.20 490.60v21.00" class="stroke"/>
<use x="350.90" y="490.60" xlink:href="#hd"/>
<path d="M347.40 490.60v21.00" class="stroke"/>
<use x="394.20" y="496.60" xlink:href="#hd"/>
<path d="M390.70 496.60v21.00" class="stroke"/>
<use x="435.40" y="499.60" xlink:href="#hd"/>
<path d="M431.90 499.60v21.00" class="stroke"/>
<path class="fill"
	d="M431.90 520.60c0.6 -5.6 9.6 -9 5.6 -18.4
	1.6 6 -1.3 11.6 -5.6 12.8
"/>
<use x="464.50" y="502.60" xlink:href="#hd"/>
<path d="M468.00 502.60v-21.00" class="stroke"/>
<path class="fill"
	d="M468.00 481.60c0.6 5.6 9.6 9 5.6 18.4
	1.6 -6 -1.3 -11.6 -5.6 -12.8
"/>
<use x="499.40" y="499.60" xlink:href="#hd"/>
<path d="M502.90 499.60v-21.00" class="stroke"/>
<use x="540.60" y="502.60" xlink:href="#hd"/>
<path d="M544.10 502.60v-21.00" class="stroke"/>
<use x="583.90" y="502.60" xlink:href="#hd"/>
<path d="M587.40 502.60v-21.00" class="stroke"/>
<path class="fill"
	d="M587.40 481.60c0.6 5.6 9.6 9 5.6 18.4
	1.6 -6 -1.3 -11.6 -5.6 -12.8
"/>
<use x="613.00" y="505.60" xlink:href="#hd"/>
<path d="M616.50 505.60v-21.00" class="stroke"/>
<path class="fill"
	d="M616.50 484.60c0.6 5.6 9.6 9 5.6 18.4
	1.6 -6 -1.3 -11.6 -5.6 -12.8
"/>
<use x="642.10" y="511.60" xlink:href="#hd"/>
<path d="M645.60 511.60v-21.00" class="stroke"/>
<path class="fill"
	d="M645.60 490.60c0.6 5.6 9.6 9 5.6 18.4
	1.6 -6 -1.3 -11.6 -5.6 -12.8
"/>
<use x="671.20" y="514.60" xlink:href="#hd"/>
<path d="M674.70 514.60v-21.00" class="stroke"/>
<path class="fill"
	d="M674.70 493.60c0.6 5.6 9.6 9 5.6 18.4
	1.6 -6 -1.3 -11.6 -5.6 -12.8
"/>
<use x="22.00" y="551.60" xlink:href="#bclef"/>
<use x="47.00" y="575.60" xlink:href="#hl"/>
<use x="47.00" y="581.60" xlink:href="#hl"/>
<use x="47.00" y="587.60" xlink:href="#hl"/>
<use x="47.00" y="593.60" xlink:href="#hl"/>
<use x="47.00" y="599.60" xlink:href="#hl"/>
<use x="47.00" y="602.60" xlink:href="#Hd"/>
<path d="M50.50 602.60v-52.00" class="stroke"/>
<use x="47.00" y="581.60" xlink:href="#Hd"/>
<use x="47.00" y="575.60" xlink:href="#Hd"/>
<use x="47.00" y="569.60" xlink:href="#Hd"/>
<use x="149.30" y="575.60" xlink:href="#hl"/>
<use x="149.30" y="575.60" xlink:href="#Hd"/>
<path d="M152.80 575.60v-31.00" class="stroke"/>
<use x="149.30" y="569.60" xlink:href="#Hd"/>
<use x="149.30" y="563.60" xlink:href="#Hd"/>
<use x="204.60" y="575.60" xlink:href="#hl"/>
<use x="204.60" y="581.60" xlink:href="#hl"/>
<use x="204.60" y="587.60" xlink:href="#hl"/>
<use x="204.60" y="593.60" xlink:href="#hl"/>
<use x="204.60" y="599.60" xlink:href="#hl"/>
<use x="204.60" y="602.60" xlink:href="#Hd"/>
<path d="M208.10 602.60v-52.00" class="stroke"/>
<use x="204.60" y="581.60" xlink:href="#Hd"/>
<use x="204.60" y="575.60" xlink:href="#Hd"/>
<use x="204.60" y="569.60" xlink:href="#Hd"/>
<use x="309.70" y="575.60" xlink:href="#hl"/>
<use x="309.70" y="581.60" xlink:href="#hl"/>
<use x="309.70" y="587.60" xlink:href="#hl"/>
<use x="309.70" y="593.60" xlink:href="#hl"/>
<use x="309.70" y="596.60" xlink:href="#Hd"/>
<path d="M313.20 596.60v-52.00" class="stroke"/>
<use x="309.70" y="575.60" xlink:href="#Hd"/>
<use x="309.70" y="569.60" xlink:href="#Hd"/>
<use x="309.70" y="563.60" xlink:href="#Hd"/>
<use x="394.20" y="566.60" xlink:href="#hd"/>
<path d="M397.70 566.60v-21.00" class="stroke"/>
<use x="435.40" y="560.60" xlink:href="#hd"/>
<path d="M438.90 560.60v-21.00" class="stroke"/>
<use x="499.40" y="575.60" xlink:href="#hl"/>
<use x="499.40" y="581.60" xlink:href="#hl"/>
<use x="499.40" y="581.60" xlink:href="#hd"/>
<path d="M502.90 581.60v-24.00" class="stroke"/>
<use x="540.60" y="575.60" xlink:href="#hl"/>
<use x="540.60" y="575.60" xlink:href="#hd"/>
<path d="M544.10 575.60v-21.00" class="stroke"/>
<use x="583.90" y="566.60" xlink:href="#Hd"/>
<path d="M587.40 566.60v-31.00" class="stroke"/>
<use x="583.90" y="560.60" xlink:href="#Hd"/>
<use x="583.90" y="554.60" xlink:href="#Hd"/>
</g>
<g stroke-width="0.70" style="font:bold 13.00px Times">
<path class="stroke" stroke-width="1"
	d="M10.00 713.60v-82.00"/>
<g transform="translate(10.00,631.60) scale(1,0.82)">
	<use xlink:href="#brace"/>
</g>
<path class="stroke" stroke-width="1"
	d="M137.90 655.60v-24.00"/>
<path class="stroke" stroke-width="1"
	d="M137.90 713.60v-24.00"/>
<path class="stroke" stroke-width="1"
	d="M222.60 655.60v-24.00"/>
<path class="stroke" stroke-width="1"
	d="M222.60 713.60v-24.00"/>
<path class="stroke" stroke-width="1"
	d="M278.10 655.60v-24.00"/>
<path class="stroke" stroke-width="1"
	d="M278.10 713.60v-24.00"/>
<path d="m10.00 655.60
	h268.10
	M10.00 649.60
	h268.10
	M10.00 643.60
	h268.10
	M10.00 637.60
	h268.10
	M10.00 631.60
	h268.10
	" class="stroke"/>
<path d="m10.00 713.60
	h268.10
	M10.00 707.60
	h268.10
	M10.00 701.60
	h268.10
	M10.00 695.60
	h268.10
	M10.00 689.60
	h268.10
	" class="stroke"/>
</g>
<g stroke-width="0.70" style="font:bold 13.00px Times">
<text x="45.50" y="627.00">i</text>
</g>
<g stroke-width="0.70" style="font:bold 13.00px Times">
<text x="145.10" y="627.00">III<tspan
	 style="font:italic 11.00px Times">¹</tspan></text>
</g>
<g stroke-width="0.70" style="font:bold 13.00px Times">
<text x="235.70" y="619.00">i</text>
<use x="22.00" y="649.60" xlink:href="#tclef"/>
<use x="47.00" y="655.60" xlink:href="#hd"/>
<path d="M50.50 655.60v-21.00" class="stroke"/>
<use x="88.30" y="649.60" xlink:href="#hd"/>
<path d="M91.80 649.60v-21.00" class="stroke"/>
<path class="fill"
	d="M91.80 628.60c0.6 5.6 9.6 9 5.6 18.4
	1.6 -6 -1.3 -11.6 -5.6 -12.8
"/>
<use x="117.40" y="646.60" xlink:href="#hd"/>
<path d="M120.90 646.60v-21.00" class="stroke"/>
<path class="fill"
	d="M120.90 625.60c0.6 5.6 9.6 9 5.6 18.4
	1.6 -6 -1.3 -11.6 -5.6 -12.8
"/>
<use x="152.50" y="640.60" xlink:href="#hd"/>
<path d="M149.00 640.60v21.00" class="stroke"/>
<use x="193.70" y="643.60" xlink:href="#hd"/>
<path d="M190.20 643.60v21.00" class="stroke"/>
<use x="237.20" y="646.60" xlink:href="#Hd"/>
<path d="M240.70 646.60v-21.00" class="stroke"/>
<use x="22.00" y="695.60" xlink:href="#bclef"/>
<use x="47.00" y="719.60" xlink:href="#hl"/>
<use x="47.00" y="725.60" xlink:href="#hl"/>
<use x="47.00" y="731.60" xlink:href="#hl"/>
<use x="47.00" y="731.60" xlink:href="#Hd"/>
<path d="M50.50 731.60v-52.00" class="stroke"/>
<use x="47.00" y="710.60" xlink:href="#Hd"/>
<use x="47.00" y="704.60" xlink:href="#Hd"/>
<use x="47.00" y="698.60" xlink:href="#Hd"/>
<use x="152.50" y="719.60" xlink:href="#hl"/>
<use x="152.50" y="725.60" xlink:href="#hl"/>
<use x="152.50" y="731.60" xlink:href="#hl"/>
<use x="152.50" y="737.60" xlink:href="#hl"/>
<use x="152.50" y="743.60" xlink:href="#hl"/>
<use x="152.50" y="746.60" xlink:href="#Hd"/>
<path d="M156.00 746.60v-52.00" class="stroke"/>
<use x="152.50" y="725.60" xlink:href="#Hd"/>
<use x="152.50" y="719.60" xlink:href="#Hd"/>
<use x="152.50" y="713.60" xlink:href="#Hd"/>
<use x="237.20" y="719.60" xlink:href="#hl"/>
<use x="237.20" y="725.60" xlink:href="#hl"/>
<use x="237.20" y="731.60" xlink:href="#hl"/>
<use x="237.20" y="731.60" xlink:href="#Hd"/>
<path d="M240.70 731.60v-52.00" class="stroke"/>
<use x="237.20" y="710.60" xlink:href="#Hd"/>
<use x="237.20" y="704.60" xlink:href="#Hd"/>
<use x="237.20" y="698.60" xlink:href="#Hd"/>
</g>
</svg>
