<?xml version="1.0" standalone="no"?>
<!DOCTYPE svg PUBLIC "-//W3C//DTD SVG 1.1//EN"
	"http://www.w3.org/Graphics/SVG/1.1/DTD/svg11.dtd">
<svg xmlns="http://www.w3.org/2000/svg" version="1.1"
	xmlns:xlink="http://www.w3.org/1999/xlink"
	color="black"
	width="701.60px" height="443.00px" viewBox="0 0 701.60 443.00" preserveAspectRatio="xMidYMid meet">
<style type="text/css">
.fill {fill: currentColor}
.stroke {stroke: currentColor; fill: none}
text{white-space: pre}
</style>
<title>/tmp/retab_hymnal_L5/comfort_comfort_ye_my_people.abc (1) tune 1</title>
<!-- Creator: abcm2ps-8.14.11 -->
<!-- CreationDate: Apr 24, 2026 15:38 -->
<!-- CommandLine: /tmp/retab_hymnal_L5/comfort_comfort_ye_my_people.abc -g -O /tmp/retab_hymnal_L5/comfort_comfort_ye_my_people -->
<g stroke-width="0.70">
<!-- title: 056. Comfort, Comfort Ye My People -->
</g>
<g stroke-width="0.70" style="font:20.00px Times">
<text x="350.80" y="22.00" text-anchor="middle">056. Comfort, Comfort Ye My People</text>
</g>
<g stroke-width="0.70" style="font:20.00px Times">
<path class="stroke" stroke-width="1"
	d="M10.00 143.00v-82.00"/>
<defs>
<path id="brace" class="fill" d="m-2.5 101
	c-4.5 -4.6 -7.5 -12.2 -4.4 -26.8
	3.5 -14.3 3.2 -21.7 -2.1 -24.2
	7.4 2.4 7.3 14.2 3.5 29.5
	-2.7 9.5 -1.5 16.2 3 21.5
	M-2.5 1c-4.5 4.6 -7.5 12.2 -4.4 26.8
	c3.5 14.3 3.2 21.7 -2.1 24.2
	7.4 -2.4 7.3 -14.2 3.5 -29.5
	-2.7 -9.5 -1.5 -16.2 3 -21.5"/>
</defs>
<g transform="translate(10.00,61.00) scale(1,0.82)">
	<use xlink:href="#brace"/>
</g>
<path class="stroke" stroke-width="1"
	d="M180.80 85.00v-24.00"/>
<path class="stroke" stroke-width="1"
	d="M180.80 143.00v-24.00"/>
<path class="stroke" stroke-width="1"
	d="M328.10 85.00v-24.00"/>
<path class="stroke" stroke-width="1"
	d="M328.10 143.00v-24.00"/>
<path class="stroke" stroke-width="1"
	d="M464.20 85.00v-24.00"/>
<path class="stroke" stroke-width="1"
	d="M464.20 143.00v-24.00"/>
<path class="stroke" stroke-width="1"
	d="M569.30 85.00v-24.00"/>
<path class="stroke" stroke-width="1"
	d="M569.30 143.00v-24.00"/>
<path class="stroke" stroke-width="1"
	d="M691.60 85.00v-24.00"/>
<path class="stroke" stroke-width="1"
	d="M691.60 143.00v-24.00"/>
<path d="m10.00 85.00
	h681.60
	M10.00 79.00
	h681.60
	M10.00 73.00
	h681.60
	M10.00 67.00
	h681.60
	M10.00 61.00
	h681.60
	" class="stroke"/>
<path d="m10.00 143.00
	h681.60
	M10.00 137.00
	h681.60
	M10.00 131.00
	h681.60
	M10.00 125.00
	h681.60
	M10.00 119.00
	h681.60
	" class="stroke"/>
</g>
<g stroke-width="0.70" style="font:bold 13.00px Times">
<text x="70.70" y="54.40">I</text>
</g>
<g stroke-width="0.70" style="font:bold 13.00px Times">
<text x="187.50" y="54.40">IV</text>
</g>
<g stroke-width="0.70" style="font:bold 13.00px Times">
<text x="336.90" y="54.40">vi</text>
</g>
<g stroke-width="0.70" style="font:bold 13.00px Times">
<text x="474.40" y="48.40">I<tspan
	 style="font:italic 11.00px Times">²</tspan></text>
</g>
<g stroke-width="0.70" style="font:bold 13.00px Times">
<text x="581.50" y="54.40">I</text>
<defs>
<path id="utclef" class="fill" d="m-50 -90
	c-72 -41 -72 -158 52 -188
	150 -10 220 188 90 256
	-114 52 -275 0 -293 -136
	-15 -181 93 -229 220 -334
	88 -87 79 -133 62 -210
	-51 33 -94 105 -89 186
	17 267 36 374 49 574
	6 96 -19 134 -77 135
	-80 1 -126 -93 -61 -133
	85 -41 133 101 31 105
	23 17 92 37 90 -92
	-10 -223 -39 -342 -50 -617
	0 -90 0 -162 96 -232
	56 72 63 230 22 289
	-74 106 -257 168 -255 316
	9 153 148 185 252 133
	86 -65 29 -192 -80 -176
	-71 12 -105 67 -59 124"/>
<use id="tclef" transform="translate(0,6) scale(0.045)"
	xlink:href="#utclef"/>
</defs>
<use x="22.00" y="79.00" xlink:href="#tclef"/>
<defs>
<path id="uflat" class="fill" d="
	m100 -746
	h32
	v734
	l-32 4
	m32 -332
	c46 -72 152 -90 208 -20
	100 110 -120 326 -208 348
	m0 -28
	c54 0 200 -206 130 -290
	-50 -60 -130 -4 -130 34"/>
<use id="ft0" transform="translate(-3.5,3.5) scale(0.018)"
	xlink:href="#uflat"/>
</defs>
<use x="37.00" y="73.00" xlink:href="#ft0"/>
<g style="font:bold 16px serif"
	transform="translate(53.00,84.50) scale(1.2,1)">
	<text text-anchor="middle">4</text>
	<text y="-12" text-anchor="middle">6</text>
</g>
<defs>
<path id="Hd" class="fill" d="m3 -1.6
	c-1 -1.8 -7 1.4 -6 3.2
	1 1.8 7 -1.4 6 -3.2
	m0.5 -0.3
	c2 3.8 -5 7.6 -7 3.8
	-2 -3.8 5 -7.6 7 -3.8"/>
</defs>
<use x="72.50" y="82.00" xlink:href="#Hd"/>
<path d="M76.00 82.00v-21.00" class="stroke"/>
<defs>
<ellipse id="hd" rx="4.1" ry="2.9"
	transform="rotate(-20)" class="fill"/>
</defs>
<use x="106.00" y="79.00" xlink:href="#hd"/>
<path d="M109.50 79.00v-21.00" class="stroke"/>
<use x="129.90" y="76.00" xlink:href="#Hd"/>
<path d="M133.40 76.00v-21.00" class="stroke"/>
<use x="163.40" y="79.00" xlink:href="#hd"/>
<path d="M166.90 79.00v-21.00" class="stroke"/>
<use x="193.30" y="82.00" xlink:href="#hd"/>
<path d="M196.80 82.00v-21.00" class="stroke"/>
<use x="217.20" y="85.00" xlink:href="#hd"/>
<path d="M220.70 85.00v-21.00" class="stroke"/>
<use x="241.30" y="88.00" xlink:href="#Hd"/>
<path d="M244.80 88.00v-21.00" class="stroke"/>
<defs>
<path id="hl" class="stroke" d="m-6 0h12"/>
</defs>
<use x="286.80" y="91.00" xlink:href="#hl"/>
<use x="286.80" y="91.00" xlink:href="#Hd"/>
<path d="M290.30 91.00v-21.00" class="stroke"/>
<use x="341.10" y="82.00" xlink:href="#Hd"/>
<path d="M344.60 82.00v-21.00" class="stroke"/>
<use x="389.30" y="79.00" xlink:href="#hd"/>
<path d="M392.80 79.00v-21.00" class="stroke"/>
<use x="413.30" y="76.00" xlink:href="#Hd"/>
<path d="M416.80 76.00v-21.00" class="stroke"/>
<use x="446.80" y="73.00" xlink:href="#hd"/>
<path d="M450.30 73.00v-21.00" class="stroke"/>
<use x="478.20" y="76.00" xlink:href="#Hd"/>
<path d="M481.70 76.00v-21.00" class="stroke"/>
<use x="511.70" y="79.00" xlink:href="#Hd"/>
<path d="M515.20 79.00v-21.00" class="stroke"/>
<use x="545.20" y="82.00" xlink:href="#Hd"/>
<path d="M548.70 82.00v-21.00" class="stroke"/>
<use x="583.30" y="82.00" xlink:href="#Hd"/>
<path d="M586.80 82.00v-21.00" class="stroke"/>
<use x="616.80" y="79.00" xlink:href="#hd"/>
<path d="M620.30 79.00v-21.00" class="stroke"/>
<use x="640.70" y="76.00" xlink:href="#Hd"/>
<path d="M644.20 76.00v-21.00" class="stroke"/>
<use x="674.20" y="79.00" xlink:href="#hd"/>
<path d="M677.70 79.00v-21.00" class="stroke"/>
<defs>
<path id="ubclef" class="fill" d="m-200 -87
	c124 -35 222 -78 254 -236
	43 -228 -167 -246 -192 -103
	59 -80 157 22 92 78
	-62 47 -115 -22 -106 -88
	21 -141 270 -136 274 52
	-1 175 -106 264 -322 297
	m357 -250
	c0 -36 51 -34 51 0
	0 37 -51 36 -51 0
	m-2 -129
	c0 -36 51 -34 51 0
	0 38 -51 37 -51 0"/>
<use id="bclef" transform="translate(0,18) scale(0.045)"
	xlink:href="#ubclef"/>
</defs>
<use x="22.00" y="125.00" xlink:href="#bclef"/>
<use x="37.00" y="137.00" xlink:href="#ft0"/>
<g style="font:bold 16px serif"
	transform="translate(53.00,142.50) scale(1.2,1)">
	<text text-anchor="middle">4</text>
	<text y="-12" text-anchor="middle">6</text>
</g>
<defs>
<path id="hl1" class="stroke" d="m-7 0h14"/>
</defs>
<use x="73.50" y="149.00" xlink:href="#hl1"/>
<use x="73.50" y="155.00" xlink:href="#hl1"/>
<use x="73.50" y="161.00" xlink:href="#hl1"/>
<use x="73.50" y="167.00" xlink:href="#hl1"/>
<defs>
<path id="HD" class="fill" d="m-2.7 -1.4
	c1.5 -2.8 6.9 0 5.3 2.7
	-1.5 2.8 -6.9 0 -5.3 -2.7
	m8.3 1.4
	c0 -1.5 -2.2 -3 -5.6 -3
	-3.4 0 -5.6 1.5 -5.6 3
	0 1.5 2.2 3 5.6 3
	3.4 0 5.6 -1.5 5.6 -3"/>
</defs>
<use x="73.50" y="167.00" xlink:href="#HD"/>
<circle class="fill" cx="85.20" cy="164.00" r="1.2"/>
<use x="73.50" y="146.00" xlink:href="#HD"/>
<circle class="fill" cx="85.20" cy="146.00" r="1.2"/>
<use x="73.50" y="140.00" xlink:href="#HD"/>
<circle class="fill" cx="85.20" cy="140.00" r="1.2"/>
<use x="73.50" y="134.00" xlink:href="#HD"/>
<circle class="fill" cx="85.20" cy="134.00" r="1.2"/>
<use x="193.30" y="137.00" xlink:href="#hd"/>
<path d="M196.80 137.00v-21.00" class="stroke"/>
<use x="217.20" y="131.00" xlink:href="#hd"/>
<path d="M220.70 131.00v-21.00" class="stroke"/>
<use x="241.30" y="125.00" xlink:href="#hd"/>
<path d="M237.80 125.00v21.00" class="stroke"/>
<use x="265.20" y="131.00" xlink:href="#hd"/>
<path d="M261.70 131.00v21.00" class="stroke"/>
<use x="286.80" y="137.00" xlink:href="#hd"/>
<path d="M290.30 137.00v-21.00" class="stroke"/>
<use x="310.70" y="131.00" xlink:href="#hd"/>
<path d="M314.20 131.00v-21.00" class="stroke"/>
<use x="341.10" y="131.00" xlink:href="#hd"/>
<path d="M344.60 131.00v-21.00" class="stroke"/>
<use x="365.30" y="125.00" xlink:href="#hd"/>
<path d="M361.80 125.00v21.00" class="stroke"/>
<use x="390.30" y="119.00" xlink:href="#HD"/>
<use x="479.20" y="149.00" xlink:href="#hl1"/>
<use x="479.20" y="155.00" xlink:href="#hl1"/>
<use x="479.20" y="161.00" xlink:href="#hl1"/>
<use x="479.20" y="167.00" xlink:href="#hl1"/>
<use x="479.20" y="167.00" xlink:href="#HD"/>
<circle class="fill" cx="488.90" cy="164.00" r="1.2"/>
<use x="479.20" y="146.00" xlink:href="#HD"/>
<circle class="fill" cx="488.90" cy="146.00" r="1.2"/>
<use x="479.20" y="140.00" xlink:href="#HD"/>
<circle class="fill" cx="488.90" cy="140.00" r="1.2"/>
<use x="479.20" y="134.00" xlink:href="#HD"/>
<circle class="fill" cx="488.90" cy="134.00" r="1.2"/>
<use x="584.30" y="149.00" xlink:href="#hl1"/>
<use x="584.30" y="155.00" xlink:href="#hl1"/>
<use x="584.30" y="161.00" xlink:href="#hl1"/>
<use x="584.30" y="167.00" xlink:href="#hl1"/>
<use x="584.30" y="167.00" xlink:href="#HD"/>
<circle class="fill" cx="594.00" cy="164.00" r="1.2"/>
<use x="584.30" y="146.00" xlink:href="#HD"/>
<circle class="fill" cx="594.00" cy="146.00" r="1.2"/>
<use x="584.30" y="140.00" xlink:href="#HD"/>
<circle class="fill" cx="594.00" cy="140.00" r="1.2"/>
<use x="584.30" y="134.00" xlink:href="#HD"/>
<circle class="fill" cx="594.00" cy="134.00" r="1.2"/>
</g>
<g stroke-width="0.70" style="font:bold 13.00px Times">
<path class="stroke" stroke-width="1"
	d="M10.00 278.00v-82.00"/>
<g transform="translate(10.00,196.00) scale(1,0.82)">
	<use xlink:href="#brace"/>
</g>
<path class="stroke" stroke-width="1"
	d="M194.20 220.00v-24.00"/>
<path class="stroke" stroke-width="1"
	d="M194.20 278.00v-24.00"/>
<path class="stroke" stroke-width="1"
	d="M334.20 220.00v-24.00"/>
<path class="stroke" stroke-width="1"
	d="M334.20 278.00v-24.00"/>
<path class="stroke" stroke-width="1"
	d="M442.50 220.00v-24.00"/>
<path class="stroke" stroke-width="1"
	d="M442.50 278.00v-24.00"/>
<path class="stroke" stroke-width="1"
	d="M568.60 220.00v-24.00"/>
<path class="stroke" stroke-width="1"
	d="M568.60 278.00v-24.00"/>
<path class="stroke" stroke-width="1"
	d="M691.60 220.00v-24.00"/>
<path class="stroke" stroke-width="1"
	d="M691.60 278.00v-24.00"/>
<path d="m10.00 220.00
	h681.60
	M10.00 214.00
	h681.60
	M10.00 208.00
	h681.60
	M10.00 202.00
	h681.60
	M10.00 196.00
	h681.60
	" class="stroke"/>
<path d="m10.00 278.00
	h681.60
	M10.00 272.00
	h681.60
	M10.00 266.00
	h681.60
	M10.00 260.00
	h681.60
	M10.00 254.00
	h681.60
	" class="stroke"/>
</g>
<g stroke-width="0.70" style="font:bold 13.00px Times">
<text x="49.20" y="189.40">IV</text>
</g>
<g stroke-width="0.70" style="font:bold 13.00px Times">
<text x="202.90" y="189.40">vi</text>
</g>
<g stroke-width="0.70" style="font:bold 13.00px Times">
<text x="344.40" y="183.40">I<tspan
	 style="font:italic 11.00px Times">²</tspan></text>
</g>
<g stroke-width="0.70" style="font:bold 13.00px Times">
<text x="454.70" y="183.40">I</text>
</g>
<g stroke-width="0.70" style="font:bold 13.00px Times">
<text x="580.80" y="183.40">I</text>
<use x="22.00" y="214.00" xlink:href="#tclef"/>
<use x="37.00" y="208.00" xlink:href="#ft0"/>
<use x="55.00" y="217.00" xlink:href="#hd"/>
<path d="M58.50 217.00v-21.00" class="stroke"/>
<use x="79.70" y="220.00" xlink:href="#hd"/>
<path d="M83.20 220.00v-21.00" class="stroke"/>
<use x="104.60" y="223.00" xlink:href="#Hd"/>
<path d="M108.10 223.00v-21.00" class="stroke"/>
<use x="151.70" y="226.00" xlink:href="#hl"/>
<use x="151.70" y="226.00" xlink:href="#Hd"/>
<path d="M155.20 226.00v-21.00" class="stroke"/>
<use x="207.20" y="217.00" xlink:href="#Hd"/>
<path d="M210.70 217.00v-21.00" class="stroke"/>
<use x="257.00" y="214.00" xlink:href="#hd"/>
<path d="M260.50 214.00v-21.00" class="stroke"/>
<use x="281.70" y="211.00" xlink:href="#Hd"/>
<path d="M285.20 211.00v-21.00" class="stroke"/>
<use x="316.40" y="208.00" xlink:href="#hd"/>
<path d="M319.90 208.00v-21.00" class="stroke"/>
<use x="348.20" y="211.00" xlink:href="#Hd"/>
<path d="M351.70 211.00v-21.00" class="stroke"/>
<use x="382.90" y="214.00" xlink:href="#Hd"/>
<path d="M386.40 214.00v-21.00" class="stroke"/>
<use x="417.70" y="217.00" xlink:href="#Hd"/>
<path d="M421.20 217.00v-21.00" class="stroke"/>
<use x="456.50" y="211.00" xlink:href="#Hd"/>
<path d="M460.00 211.00v-21.00" class="stroke"/>
<use x="491.20" y="211.00" xlink:href="#hd"/>
<path d="M494.70 211.00v-21.00" class="stroke"/>
<use x="516.10" y="205.00" xlink:href="#Hd"/>
<path d="M512.60 205.00v21.00" class="stroke"/>
<use x="550.80" y="208.00" xlink:href="#hd"/>
<path d="M547.30 208.00v21.00" class="stroke"/>
<use x="582.60" y="211.00" xlink:href="#hd"/>
<path d="M586.10 211.00v-21.00" class="stroke"/>
<use x="607.30" y="214.00" xlink:href="#hd"/>
<path d="M610.80 214.00v-21.00" class="stroke"/>
<use x="632.10" y="211.00" xlink:href="#Hd"/>
<path d="M635.60 211.00v-21.00" class="stroke"/>
<defs>
<rect id="r2" class="fill"
	x="-3.5" y="-3" width="7" height="3"/>
</defs>
<use x="666.80" y="208.00" xlink:href="#r2"/>
<use x="22.00" y="260.00" xlink:href="#bclef"/>
<use x="37.00" y="272.00" xlink:href="#ft0"/>
<use x="55.00" y="272.00" xlink:href="#hd"/>
<path d="M58.50 272.00v-21.00" class="stroke"/>
<use x="79.70" y="266.00" xlink:href="#hd"/>
<path d="M83.20 266.00v-21.00" class="stroke"/>
<use x="104.60" y="260.00" xlink:href="#hd"/>
<path d="M101.10 260.00v21.00" class="stroke"/>
<use x="129.30" y="266.00" xlink:href="#hd"/>
<path d="M125.80 266.00v21.00" class="stroke"/>
<use x="151.70" y="272.00" xlink:href="#hd"/>
<path d="M155.20 272.00v-21.00" class="stroke"/>
<use x="176.40" y="266.00" xlink:href="#hd"/>
<path d="M179.90 266.00v-21.00" class="stroke"/>
<use x="207.20" y="266.00" xlink:href="#hd"/>
<path d="M210.70 266.00v-21.00" class="stroke"/>
<use x="232.10" y="260.00" xlink:href="#hd"/>
<path d="M228.60 260.00v21.00" class="stroke"/>
<use x="258.00" y="254.00" xlink:href="#HD"/>
<use x="349.20" y="284.00" xlink:href="#hl1"/>
<use x="349.20" y="290.00" xlink:href="#hl1"/>
<use x="349.20" y="296.00" xlink:href="#hl1"/>
<use x="349.20" y="302.00" xlink:href="#hl1"/>
<use x="349.20" y="302.00" xlink:href="#HD"/>
<circle class="fill" cx="358.90" cy="299.00" r="1.2"/>
<use x="349.20" y="281.00" xlink:href="#HD"/>
<circle class="fill" cx="358.90" cy="281.00" r="1.2"/>
<use x="349.20" y="275.00" xlink:href="#HD"/>
<circle class="fill" cx="358.90" cy="275.00" r="1.2"/>
<use x="349.20" y="269.00" xlink:href="#HD"/>
<circle class="fill" cx="358.90" cy="269.00" r="1.2"/>
<use x="457.50" y="284.00" xlink:href="#hl1"/>
<use x="457.50" y="290.00" xlink:href="#hl1"/>
<use x="457.50" y="296.00" xlink:href="#hl1"/>
<use x="457.50" y="302.00" xlink:href="#hl1"/>
<use x="457.50" y="302.00" xlink:href="#HD"/>
<circle class="fill" cx="467.20" cy="299.00" r="1.2"/>
<use x="457.50" y="281.00" xlink:href="#HD"/>
<circle class="fill" cx="467.20" cy="281.00" r="1.2"/>
<use x="457.50" y="275.00" xlink:href="#HD"/>
<circle class="fill" cx="467.20" cy="275.00" r="1.2"/>
<use x="457.50" y="269.00" xlink:href="#HD"/>
<circle class="fill" cx="467.20" cy="269.00" r="1.2"/>
<use x="583.60" y="284.00" xlink:href="#hl1"/>
<use x="583.60" y="290.00" xlink:href="#hl1"/>
<use x="583.60" y="296.00" xlink:href="#hl1"/>
<use x="583.60" y="302.00" xlink:href="#hl1"/>
<use x="583.60" y="302.00" xlink:href="#HD"/>
<circle class="fill" cx="593.30" cy="299.00" r="1.2"/>
<use x="583.60" y="281.00" xlink:href="#HD"/>
<circle class="fill" cx="593.30" cy="281.00" r="1.2"/>
<use x="583.60" y="275.00" xlink:href="#HD"/>
<circle class="fill" cx="593.30" cy="275.00" r="1.2"/>
<use x="583.60" y="269.00" xlink:href="#HD"/>
<circle class="fill" cx="593.30" cy="269.00" r="1.2"/>
</g>
<g stroke-width="0.70" style="font:bold 13.00px Times">
<path class="stroke" stroke-width="1"
	d="M10.00 413.00v-82.00"/>
<g transform="translate(10.00,331.00) scale(1,0.82)">
	<use xlink:href="#brace"/>
</g>
<path class="stroke" stroke-width="1"
	d="M152.30 355.00v-24.00"/>
<path class="stroke" stroke-width="1"
	d="M152.30 413.00v-24.00"/>
<path class="stroke" stroke-width="1"
	d="M259.70 355.00v-24.00"/>
<path class="stroke" stroke-width="1"
	d="M259.70 413.00v-24.00"/>
<path class="stroke" stroke-width="1"
	d="M367.00 355.00v-24.00"/>
<path class="stroke" stroke-width="1"
	d="M367.00 413.00v-24.00"/>
<path class="stroke" stroke-width="1"
	d="M474.40 355.00v-24.00"/>
<path class="stroke" stroke-width="1"
	d="M474.40 413.00v-24.00"/>
<path class="stroke" stroke-width="1"
	d="M584.20 355.00v-24.00"/>
<path class="stroke" stroke-width="1"
	d="M584.20 413.00v-24.00"/>
<path class="stroke" stroke-width="1"
	d="M691.60 355.00v-24.00"/>
<path class="stroke" stroke-width="1"
	d="M691.60 413.00v-24.00"/>
<path d="m10.00 355.00
	h681.60
	M10.00 349.00
	h681.60
	M10.00 343.00
	h681.60
	M10.00 337.00
	h681.60
	M10.00 331.00
	h681.60
	" class="stroke"/>
<path d="m10.00 413.00
	h681.60
	M10.00 407.00
	h681.60
	M10.00 401.00
	h681.60
	M10.00 395.00
	h681.60
	M10.00 389.00
	h681.60
	" class="stroke"/>
</g>
<g stroke-width="0.70" style="font:bold 13.00px Times">
<text x="50.70" y="326.40">IV</text>
</g>
<g stroke-width="0.70" style="font:bold 13.00px Times">
<text x="162.40" y="324.40">V</text>
</g>
<g stroke-width="0.70" style="font:bold 13.00px Times">
<text x="267.50" y="318.40">vi<tspan
	 style="font:italic 11.00px Times">⁷</tspan></text>
</g>
<g stroke-width="0.70" style="font:bold 13.00px Times">
<text x="373.30" y="321.40">IV<tspan
	 style="font:italic 11.00px Times">⁷</tspan></text>
</g>
<g stroke-width="0.70" style="font:bold 13.00px Times">
<text x="484.60" y="318.40">I<tspan
	 style="font:italic 11.00px Times">⁷</tspan></text>
</g>
<g stroke-width="0.70" style="font:bold 13.00px Times">
<text x="594.40" y="321.40">I<tspan
	 style="font:italic 11.00px Times">¹</tspan></text>
</g>
<g stroke-width="0.70" style="font:italic 11.00px Times">
<use x="22.00" y="349.00" xlink:href="#tclef"/>
<use x="37.00" y="343.00" xlink:href="#ft0"/>
<use x="56.50" y="340.00" xlink:href="#Hd"/>
<path d="M53.00 340.00v21.00" class="stroke"/>
<use x="86.00" y="340.00" xlink:href="#hd"/>
<path d="M82.50 340.00v21.00" class="stroke"/>
<use x="107.20" y="337.00" xlink:href="#Hd"/>
<path d="M103.70 337.00v21.00" class="stroke"/>
<use x="136.70" y="340.00" xlink:href="#hd"/>
<path d="M133.20 340.00v21.00" class="stroke"/>
<use x="166.30" y="343.00" xlink:href="#hd"/>
<path d="M162.80 343.00v21.00" class="stroke"/>
<use x="187.40" y="346.00" xlink:href="#hd"/>
<path d="M190.90 346.00v-21.00" class="stroke"/>
<use x="208.70" y="349.00" xlink:href="#Hd"/>
<path d="M212.20 349.00v-21.00" class="stroke"/>
<use x="238.20" y="343.00" xlink:href="#r2"/>
<use x="273.70" y="346.00" xlink:href="#Hd"/>
<path d="M277.20 346.00v-21.00" class="stroke"/>
<use x="303.50" y="340.00" xlink:href="#hd"/>
<path d="M300.00 340.00v21.00" class="stroke"/>
<use x="324.70" y="343.00" xlink:href="#Hd"/>
<path d="M321.20 343.00v21.00" class="stroke"/>
<use x="351.40" y="346.00" xlink:href="#hd"/>
<path d="M354.90 346.00v-21.00" class="stroke"/>
<use x="381.00" y="352.00" xlink:href="#hd"/>
<path d="M384.50 352.00v-21.00" class="stroke"/>
<use x="402.20" y="349.00" xlink:href="#hd"/>
<path d="M405.70 349.00v-21.00" class="stroke"/>
<use x="423.40" y="346.00" xlink:href="#Hd"/>
<path d="M426.90 346.00v-21.00" class="stroke"/>
<use x="452.90" y="352.00" xlink:href="#Hd"/>
<path d="M456.40 352.00v-21.00" class="stroke"/>
<use x="488.40" y="346.00" xlink:href="#Hd"/>
<path d="M491.90 346.00v-21.00" class="stroke"/>
<use x="517.90" y="346.00" xlink:href="#hd"/>
<path d="M521.40 346.00v-21.00" class="stroke"/>
<use x="539.10" y="343.00" xlink:href="#Hd"/>
<path d="M542.60 343.00v-21.00" class="stroke"/>
<use x="568.60" y="346.00" xlink:href="#hd"/>
<path d="M572.10 346.00v-21.00" class="stroke"/>
<use x="598.20" y="349.00" xlink:href="#hd"/>
<path d="M601.70 349.00v-21.00" class="stroke"/>
<use x="619.40" y="352.00" xlink:href="#hd"/>
<path d="M622.90 352.00v-21.00" class="stroke"/>
<use x="640.60" y="355.00" xlink:href="#Hd"/>
<path d="M644.10 355.00v-21.00" class="stroke"/>
<use x="670.10" y="352.00" xlink:href="#Hd"/>
<path d="M673.60 352.00v-21.00" class="stroke"/>
<use x="22.00" y="395.00" xlink:href="#bclef"/>
<use x="37.00" y="407.00" xlink:href="#ft0"/>
<use x="57.50" y="419.00" xlink:href="#hl1"/>
<use x="57.50" y="425.00" xlink:href="#hl1"/>
<use x="57.50" y="428.00" xlink:href="#HD"/>
<circle class="fill" cx="69.20" cy="428.00" r="1.2"/>
<use x="57.50" y="407.00" xlink:href="#HD"/>
<circle class="fill" cx="69.20" cy="404.00" r="1.2"/>
<use x="57.50" y="401.00" xlink:href="#HD"/>
<circle class="fill" cx="69.20" cy="398.00" r="1.2"/>
<use x="57.50" y="395.00" xlink:href="#HD"/>
<circle class="fill" cx="69.20" cy="392.00" r="1.2"/>
<use x="167.30" y="419.00" xlink:href="#hl1"/>
<use x="167.30" y="425.00" xlink:href="#hl1"/>
<use x="167.30" y="425.00" xlink:href="#HD"/>
<circle class="fill" cx="177.00" cy="422.00" r="1.2"/>
<use x="167.30" y="404.00" xlink:href="#HD"/>
<circle class="fill" cx="177.00" cy="404.00" r="1.2"/>
<use x="167.30" y="398.00" xlink:href="#HD"/>
<circle class="fill" cx="177.00" cy="398.00" r="1.2"/>
<use x="167.30" y="392.00" xlink:href="#HD"/>
<circle class="fill" cx="177.00" cy="392.00" r="1.2"/>
<use x="274.70" y="419.00" xlink:href="#hl1"/>
<use x="274.70" y="422.00" xlink:href="#HD"/>
<circle class="fill" cx="284.40" cy="422.00" r="1.2"/>
<use x="274.70" y="401.00" xlink:href="#HD"/>
<circle class="fill" cx="284.40" cy="398.00" r="1.2"/>
<use x="274.70" y="395.00" xlink:href="#HD"/>
<circle class="fill" cx="284.40" cy="392.00" r="1.2"/>
<use x="274.70" y="389.00" xlink:href="#HD"/>
<circle class="fill" cx="284.40" cy="386.00" r="1.2"/>
<use x="382.00" y="419.00" xlink:href="#hl1"/>
<use x="382.00" y="425.00" xlink:href="#hl1"/>
<use x="382.00" y="428.00" xlink:href="#HD"/>
<circle class="fill" cx="391.70" cy="428.00" r="1.2"/>
<use x="382.00" y="407.00" xlink:href="#HD"/>
<circle class="fill" cx="391.70" cy="404.00" r="1.2"/>
<use x="382.00" y="401.00" xlink:href="#HD"/>
<circle class="fill" cx="391.70" cy="398.00" r="1.2"/>
<use x="382.00" y="395.00" xlink:href="#HD"/>
<circle class="fill" cx="391.70" cy="392.00" r="1.2"/>
<use x="489.40" y="419.00" xlink:href="#hl1"/>
<use x="489.40" y="425.00" xlink:href="#hl1"/>
<use x="489.40" y="431.00" xlink:href="#hl1"/>
<use x="489.40" y="437.00" xlink:href="#hl1"/>
<use x="489.40" y="437.00" xlink:href="#HD"/>
<circle class="fill" cx="499.10" cy="434.00" r="1.2"/>
<use x="489.40" y="416.00" xlink:href="#HD"/>
<circle class="fill" cx="499.10" cy="416.00" r="1.2"/>
<use x="489.40" y="410.00" xlink:href="#HD"/>
<circle class="fill" cx="499.10" cy="410.00" r="1.2"/>
<use x="489.40" y="404.00" xlink:href="#HD"/>
<circle class="fill" cx="499.10" cy="404.00" r="1.2"/>
<use x="599.20" y="419.00" xlink:href="#hl1"/>
<use x="599.20" y="425.00" xlink:href="#hl1"/>
<use x="599.20" y="431.00" xlink:href="#hl1"/>
<use x="599.20" y="437.00" xlink:href="#hl1"/>
<use x="599.20" y="437.00" xlink:href="#HD"/>
<circle class="fill" cx="608.90" cy="434.00" r="1.2"/>
<use x="599.20" y="416.00" xlink:href="#HD"/>
<circle class="fill" cx="608.90" cy="416.00" r="1.2"/>
<use x="599.20" y="410.00" xlink:href="#HD"/>
<circle class="fill" cx="608.90" cy="410.00" r="1.2"/>
<use x="599.20" y="404.00" xlink:href="#HD"/>
<circle class="fill" cx="608.90" cy="404.00" r="1.2"/>
</g>
</svg>
