<?xml version="1.0" standalone="no"?>
<!DOCTYPE svg PUBLIC "-//W3C//DTD SVG 1.1//EN"
	"http://www.w3.org/Graphics/SVG/1.1/DTD/svg11.dtd">
<svg xmlns="http://www.w3.org/2000/svg" version="1.1"
	xmlns:xlink="http://www.w3.org/1999/xlink"
	color="black"
	width="701.60px" height="561.40px" viewBox="0 0 701.60 561.40" preserveAspectRatio="xMidYMid meet">
<style type="text/css">
.fill {fill: currentColor}
.stroke {stroke: currentColor; fill: none}
text{white-space: pre}
</style>
<title>/tmp/retab_hymnal_L5/god_rest_ye_merry_gentlemen.abc (1) tune 1</title>
<!-- Creator: abcm2ps-8.14.11 -->
<!-- CreationDate: Apr 24, 2026 15:38 -->
<!-- CommandLine: /tmp/retab_hymnal_L5/god_rest_ye_merry_gentlemen.abc -g -O /tmp/retab_hymnal_L5/god_rest_ye_merry_gentlemen -->
<g stroke-width="0.70">
<!-- title: 075. God Rest Ye Merry Gentlemen -->
</g>
<g stroke-width="0.70" style="font:20.00px Times">
<text x="350.80" y="22.00" text-anchor="middle">075. God Rest Ye Merry Gentlemen</text>
</g>
<g stroke-width="0.70" style="font:20.00px Times">
<path class="stroke" stroke-width="1"
	d="M10.00 143.00v-82.00"/>
<defs>
<path id="brace" class="fill" d="m-2.5 101
	c-4.5 -4.6 -7.5 -12.2 -4.4 -26.8
	3.5 -14.3 3.2 -21.7 -2.1 -24.2
	7.4 2.4 7.3 14.2 3.5 29.5
	-2.7 9.5 -1.5 16.2 3 21.5
	M-2.5 1c-4.5 4.6 -7.5 12.2 -4.4 26.8
	c3.5 14.3 3.2 21.7 -2.1 24.2
	7.4 -2.4 7.3 -14.2 3.5 -29.5
	-2.7 -9.5 -1.5 -16.2 3 -21.5"/>
</defs>
<g transform="translate(10.00,61.00) scale(1,0.82)">
	<use xlink:href="#brace"/>
</g>
<path class="stroke" stroke-width="1"
	d="M167.30 85.00v-24.00"/>
<path class="stroke" stroke-width="1"
	d="M167.30 143.00v-24.00"/>
<path class="stroke" stroke-width="1"
	d="M276.00 85.00v-24.00"/>
<path class="stroke" stroke-width="1"
	d="M276.00 143.00v-24.00"/>
<path class="stroke" stroke-width="1"
	d="M384.80 85.00v-24.00"/>
<path class="stroke" stroke-width="1"
	d="M384.80 143.00v-24.00"/>
<path class="stroke" stroke-width="1"
	d="M474.10 85.00v-24.00"/>
<path class="stroke" stroke-width="1"
	d="M474.10 143.00v-24.00"/>
<path class="stroke" stroke-width="1"
	d="M582.80 85.00v-24.00"/>
<path class="stroke" stroke-width="1"
	d="M582.80 143.00v-24.00"/>
<path class="stroke" stroke-width="1"
	d="M691.60 85.00v-24.00"/>
<path class="stroke" stroke-width="1"
	d="M691.60 143.00v-24.00"/>
<path d="m10.00 85.00
	h681.60
	M10.00 79.00
	h681.60
	M10.00 73.00
	h681.60
	M10.00 67.00
	h681.60
	M10.00 61.00
	h681.60
	" class="stroke"/>
<path d="m10.00 143.00
	h681.60
	M10.00 137.00
	h681.60
	M10.00 131.00
	h681.60
	M10.00 125.00
	h681.60
	M10.00 119.00
	h681.60
	" class="stroke"/>
</g>
<g stroke-width="0.70" style="font:bold 13.00px Times">
<text x="71.00" y="56.40">i</text>
</g>
<g stroke-width="0.70" style="font:bold 13.00px Times">
<text x="177.30" y="48.40">V</text>
</g>
<g stroke-width="0.70" style="font:bold 13.00px Times">
<text x="284.60" y="56.40">III</text>
</g>
<g stroke-width="0.70" style="font:bold 13.00px Times">
<text x="393.30" y="48.40">V</text>
</g>
<g stroke-width="0.70" style="font:bold 13.00px Times">
<text x="486.60" y="56.40">i</text>
</g>
<g stroke-width="0.70" style="font:bold 13.00px Times">
<text x="592.90" y="48.40">V</text>
<defs>
<path id="utclef" class="fill" d="m-50 -90
	c-72 -41 -72 -158 52 -188
	150 -10 220 188 90 256
	-114 52 -275 0 -293 -136
	-15 -181 93 -229 220 -334
	88 -87 79 -133 62 -210
	-51 33 -94 105 -89 186
	17 267 36 374 49 574
	6 96 -19 134 -77 135
	-80 1 -126 -93 -61 -133
	85 -41 133 101 31 105
	23 17 92 37 90 -92
	-10 -223 -39 -342 -50 -617
	0 -90 0 -162 96 -232
	56 72 63 230 22 289
	-74 106 -257 168 -255 316
	9 153 148 185 252 133
	86 -65 29 -192 -80 -176
	-71 12 -105 67 -59 124"/>
<use id="tclef" transform="translate(0,6) scale(0.045)"
	xlink:href="#utclef"/>
</defs>
<use x="22.00" y="79.00" xlink:href="#tclef"/>
<defs>
<path id="usharp" class="fill" d="
	m136 -702
	v890
	h32
	v-890
	m128 840
	h32
	v-888
	h-32
	m-232 286
	v116
	l338 -96
	v-116
	m-338 442
	v116
	l338 -98
	v-114"/>
<use id="sh0" transform="translate(-4,5) scale(0.018)"
	xlink:href="#usharp"/>
</defs>
<use x="37.00" y="61.00" xlink:href="#sh0"/>
<g style="font:bold 16px serif"
	transform="translate(53.00,84.50) scale(1.2,1)">
	<text text-anchor="middle">4</text>
	<text y="-12" text-anchor="middle">4</text>
</g>
<defs>
<ellipse id="hd" rx="4.1" ry="2.9"
	transform="rotate(-20)" class="fill"/>
</defs>
<use x="72.50" y="85.00" xlink:href="#hd"/>
<path d="M76.00 85.00v-21.00" class="stroke"/>
<use x="97.90" y="85.00" xlink:href="#hd"/>
<path d="M101.40 85.00v-21.00" class="stroke"/>
<use x="123.40" y="73.00" xlink:href="#hd"/>
<path d="M126.90 73.00v-21.00" class="stroke"/>
<use x="148.80" y="73.00" xlink:href="#hd"/>
<path d="M152.30 73.00v-21.00" class="stroke"/>
<use x="181.30" y="76.00" xlink:href="#hd"/>
<path d="M184.80 76.00v-21.00" class="stroke"/>
<use x="206.70" y="79.00" xlink:href="#hd"/>
<path d="M210.20 79.00v-21.00" class="stroke"/>
<use x="232.10" y="82.00" xlink:href="#hd"/>
<path d="M235.60 82.00v-21.00" class="stroke"/>
<use x="257.50" y="85.00" xlink:href="#hd"/>
<path d="M261.00 85.00v-21.00" class="stroke"/>
<use x="290.00" y="88.00" xlink:href="#hd"/>
<path d="M293.50 88.00v-21.00" class="stroke"/>
<use x="315.40" y="85.00" xlink:href="#hd"/>
<path d="M318.90 85.00v-21.00" class="stroke"/>
<use x="340.90" y="82.00" xlink:href="#hd"/>
<path d="M344.40 82.00v-21.00" class="stroke"/>
<use x="366.30" y="79.00" xlink:href="#hd"/>
<path d="M369.80 79.00v-21.00" class="stroke"/>
<use x="397.30" y="76.00" xlink:href="#hd"/>
<path d="M400.80 76.00v-21.00" class="stroke"/>
<defs>
<path id="Hd" class="fill" d="m3 -1.6
	c-1 -1.8 -7 1.4 -6 3.2
	1 1.8 7 -1.4 6 -3.2
	m0.5 -0.3
	c2 3.8 -5 7.6 -7 3.8
	-2 -3.8 5 -7.6 7 -3.8"/>
</defs>
<use x="422.80" y="73.00" xlink:href="#Hd"/>
<circle class="fill" cx="431.50" cy="70.00" r="1.2"/>
<path d="M426.30 73.00v-21.00" class="stroke"/>
<use x="488.10" y="85.00" xlink:href="#hd"/>
<path d="M491.60 85.00v-21.00" class="stroke"/>
<use x="513.50" y="85.00" xlink:href="#hd"/>
<path d="M517.00 85.00v-21.00" class="stroke"/>
<use x="538.90" y="73.00" xlink:href="#hd"/>
<path d="M542.40 73.00v-21.00" class="stroke"/>
<use x="564.40" y="73.00" xlink:href="#hd"/>
<path d="M567.90 73.00v-21.00" class="stroke"/>
<use x="596.80" y="76.00" xlink:href="#hd"/>
<path d="M600.30 76.00v-21.00" class="stroke"/>
<use x="622.30" y="79.00" xlink:href="#hd"/>
<path d="M625.80 79.00v-21.00" class="stroke"/>
<use x="647.70" y="82.00" xlink:href="#hd"/>
<path d="M651.20 82.00v-21.00" class="stroke"/>
<use x="673.10" y="85.00" xlink:href="#hd"/>
<path d="M676.60 85.00v-21.00" class="stroke"/>
<defs>
<path id="ubclef" class="fill" d="m-200 -87
	c124 -35 222 -78 254 -236
	43 -228 -167 -246 -192 -103
	59 -80 157 22 92 78
	-62 47 -115 -22 -106 -88
	21 -141 270 -136 274 52
	-1 175 -106 264 -322 297
	m357 -250
	c0 -36 51 -34 51 0
	0 37 -51 36 -51 0
	m-2 -129
	c0 -36 51 -34 51 0
	0 38 -51 37 -51 0"/>
<use id="bclef" transform="translate(0,18) scale(0.045)"
	xlink:href="#ubclef"/>
</defs>
<use x="22.00" y="125.00" xlink:href="#bclef"/>
<use x="37.00" y="125.00" xlink:href="#sh0"/>
<g style="font:bold 16px serif"
	transform="translate(53.00,142.50) scale(1.2,1)">
	<text text-anchor="middle">4</text>
	<text y="-12" text-anchor="middle">4</text>
</g>
<defs>
<path id="hl1" class="stroke" d="m-7 0h14"/>
</defs>
<use x="73.50" y="149.00" xlink:href="#hl1"/>
<defs>
<path id="HD" class="fill" d="m-2.7 -1.4
	c1.5 -2.8 6.9 0 5.3 2.7
	-1.5 2.8 -6.9 0 -5.3 -2.7
	m8.3 1.4
	c0 -1.5 -2.2 -3 -5.6 -3
	-3.4 0 -5.6 1.5 -5.6 3
	0 1.5 2.2 3 5.6 3
	3.4 0 5.6 -1.5 5.6 -3"/>
</defs>
<use x="73.50" y="149.00" xlink:href="#HD"/>
<use x="73.50" y="128.00" xlink:href="#HD"/>
<use x="73.50" y="122.00" xlink:href="#HD"/>
<use x="73.50" y="116.00" xlink:href="#HD"/>
<use x="182.30" y="149.00" xlink:href="#hl1"/>
<use x="182.30" y="155.00" xlink:href="#hl1"/>
<use x="182.30" y="158.00" xlink:href="#HD"/>
<use x="182.30" y="137.00" xlink:href="#HD"/>
<use x="182.30" y="131.00" xlink:href="#HD"/>
<use x="182.30" y="125.00" xlink:href="#HD"/>
<use x="291.00" y="149.00" xlink:href="#hl1"/>
<use x="291.00" y="155.00" xlink:href="#hl1"/>
<use x="291.00" y="161.00" xlink:href="#hl1"/>
<use x="291.00" y="164.00" xlink:href="#HD"/>
<use x="291.00" y="143.00" xlink:href="#HD"/>
<use x="291.00" y="137.00" xlink:href="#HD"/>
<use x="291.00" y="131.00" xlink:href="#HD"/>
<use x="397.30" y="137.00" xlink:href="#hd"/>
<path d="M400.80 137.00v-21.00" class="stroke"/>
<use x="422.80" y="131.00" xlink:href="#hd"/>
<path d="M426.30 131.00v-21.00" class="stroke"/>
<use x="448.50" y="125.00" xlink:href="#Hd"/>
<path d="M445.00 125.00v21.00" class="stroke"/>
<use x="489.10" y="149.00" xlink:href="#hl1"/>
<use x="489.10" y="149.00" xlink:href="#HD"/>
<use x="489.10" y="128.00" xlink:href="#HD"/>
<use x="489.10" y="122.00" xlink:href="#HD"/>
<use x="489.10" y="116.00" xlink:href="#HD"/>
<use x="597.80" y="149.00" xlink:href="#hl1"/>
<use x="597.80" y="155.00" xlink:href="#hl1"/>
<use x="597.80" y="158.00" xlink:href="#HD"/>
<use x="597.80" y="137.00" xlink:href="#HD"/>
<use x="597.80" y="131.00" xlink:href="#HD"/>
<use x="597.80" y="125.00" xlink:href="#HD"/>
</g>
<g stroke-width="0.70" style="font:bold 13.00px Times">
<path class="stroke" stroke-width="1"
	d="M10.00 277.40v-82.00"/>
<g transform="translate(10.00,195.40) scale(1,0.82)">
	<use xlink:href="#brace"/>
</g>
<path class="stroke" stroke-width="1"
	d="M172.40 219.40v-24.00"/>
<path class="stroke" stroke-width="1"
	d="M172.40 277.40v-24.00"/>
<path class="stroke" stroke-width="1"
	d="M302.00 219.40v-24.00"/>
<path class="stroke" stroke-width="1"
	d="M302.00 277.40v-24.00"/>
<path class="stroke" stroke-width="1"
	d="M430.40 219.40v-24.00"/>
<path class="stroke" stroke-width="1"
	d="M430.40 277.40v-24.00"/>
<path class="stroke" stroke-width="1"
	d="M561.70 219.40v-24.00"/>
<path class="stroke" stroke-width="1"
	d="M561.70 277.40v-24.00"/>
<path class="stroke" stroke-width="1"
	d="M691.60 219.40v-24.00"/>
<path class="stroke" stroke-width="1"
	d="M691.60 277.40v-24.00"/>
<path d="m10.00 219.40
	h681.60
	M10.00 213.40
	h681.60
	M10.00 207.40
	h681.60
	M10.00 201.40
	h681.60
	M10.00 195.40
	h681.60
	" class="stroke"/>
<path d="m10.00 277.40
	h681.60
	M10.00 271.40
	h681.60
	M10.00 265.40
	h681.60
	M10.00 259.40
	h681.60
	M10.00 253.40
	h681.60
	" class="stroke"/>
</g>
<g stroke-width="0.70" style="font:bold 13.00px Times">
<text x="49.50" y="190.80">III</text>
</g>
<g stroke-width="0.70" style="font:bold 13.00px Times">
<text x="180.90" y="182.80">V</text>
</g>
<g stroke-width="0.70" style="font:bold 13.00px Times">
<text x="314.50" y="179.80">i</text>
</g>
<g stroke-width="0.70" style="font:bold 13.00px Times">
<text x="437.00" y="190.80">III<tspan
	 style="font:italic 11.00px Times">¹</tspan></text>
</g>
<g stroke-width="0.70" style="font:bold 13.00px Times">
<text x="568.80" y="182.80">ii○</text>
<use x="22.00" y="213.40" xlink:href="#tclef"/>
<use x="37.00" y="195.40" xlink:href="#sh0"/>
<use x="55.00" y="222.40" xlink:href="#hd"/>
<path d="M58.50 222.40v-21.00" class="stroke"/>
<use x="86.70" y="219.40" xlink:href="#hd"/>
<path d="M90.20 219.40v-21.00" class="stroke"/>
<use x="118.30" y="216.40" xlink:href="#hd"/>
<path d="M121.80 216.40v-21.00" class="stroke"/>
<use x="150.00" y="213.40" xlink:href="#hd"/>
<path d="M153.50 213.40v-21.00" class="stroke"/>
<use x="184.90" y="210.40" xlink:href="#hd"/>
<path d="M188.40 210.40v-21.00" class="stroke"/>
<use x="216.50" y="207.40" xlink:href="#Hd"/>
<path d="M220.00 207.40v-21.00" class="stroke"/>
<defs>
<path id="r4" class="fill" d="m-1 -8.5
	l3.6 5.1 -2.1 5.2 2.2 4.3
	c-2.6 -2.3 -5.1 0 -2.4 2.6
	-4.8 -3 -1.5 -6.9 1.4 -4.1
	l-3.1 -4.5 1.9 -5.1 -1.5 -3.5"/>
</defs>
<use x="279.60" y="207.40" xlink:href="#r4"/>
<use x="316.00" y="207.40" xlink:href="#hd"/>
<path d="M319.50 207.40v-21.00" class="stroke"/>
<use x="347.80" y="204.40" xlink:href="#hd"/>
<path d="M344.30 204.40v21.00" class="stroke"/>
<use x="376.30" y="210.40" xlink:href="#hd"/>
<path d="M379.80 210.40v-21.00" class="stroke"/>
<use x="408.00" y="207.40" xlink:href="#hd"/>
<path d="M411.50 207.40v-21.00" class="stroke"/>
<use x="444.40" y="204.40" xlink:href="#hd"/>
<path d="M440.90 204.40v21.00" class="stroke"/>
<use x="476.00" y="201.40" xlink:href="#hd"/>
<path d="M472.50 201.40v21.00" class="stroke"/>
<use x="507.70" y="198.40" xlink:href="#hd"/>
<path d="M504.20 198.40v21.00" class="stroke"/>
<use x="539.30" y="207.40" xlink:href="#hd"/>
<path d="M535.80 207.40v21.00" class="stroke"/>
<use x="574.20" y="210.40" xlink:href="#hd"/>
<path d="M577.70 210.40v-21.00" class="stroke"/>
<use x="605.90" y="213.40" xlink:href="#hd"/>
<path d="M609.40 213.40v-21.00" class="stroke"/>
<use x="637.50" y="219.40" xlink:href="#hd"/>
<path d="M641.00 219.40v-21.00" class="stroke"/>
<use x="669.20" y="216.40" xlink:href="#hd"/>
<path d="M672.70 216.40v-21.00" class="stroke"/>
<use x="22.00" y="259.40" xlink:href="#bclef"/>
<use x="37.00" y="259.40" xlink:href="#sh0"/>
<use x="55.00" y="277.40" xlink:href="#hd"/>
<path d="M58.50 277.40v-21.00" class="stroke"/>
<use x="86.70" y="271.40" xlink:href="#hd"/>
<path d="M90.20 271.40v-21.00" class="stroke"/>
<use x="118.30" y="265.40" xlink:href="#hd"/>
<path d="M121.80 265.40v-21.00" class="stroke"/>
<use x="150.00" y="271.40" xlink:href="#hd"/>
<path d="M153.50 271.40v-21.00" class="stroke"/>
<use x="184.90" y="271.40" xlink:href="#hd"/>
<path d="M188.40 271.40v-21.00" class="stroke"/>
<use x="216.50" y="265.40" xlink:href="#hd"/>
<path d="M220.00 265.40v-21.00" class="stroke"/>
<use x="248.30" y="259.40" xlink:href="#Hd"/>
<path d="M244.80 259.40v21.00" class="stroke"/>
<use x="317.00" y="283.40" xlink:href="#hl1"/>
<use x="317.00" y="283.40" xlink:href="#HD"/>
<use x="317.00" y="262.40" xlink:href="#HD"/>
<use x="317.00" y="256.40" xlink:href="#HD"/>
<use x="317.00" y="250.40" xlink:href="#HD"/>
<use x="445.40" y="283.40" xlink:href="#hl1"/>
<use x="445.40" y="289.40" xlink:href="#hl1"/>
<use x="445.40" y="295.40" xlink:href="#hl1"/>
<use x="445.40" y="298.40" xlink:href="#HD"/>
<use x="445.40" y="277.40" xlink:href="#HD"/>
<use x="445.40" y="271.40" xlink:href="#HD"/>
<use x="445.40" y="265.40" xlink:href="#HD"/>
<use x="574.20" y="277.40" xlink:href="#hd"/>
<path d="M577.70 277.40v-21.00" class="stroke"/>
<use x="605.90" y="271.40" xlink:href="#hd"/>
<path d="M609.40 271.40v-21.00" class="stroke"/>
<use x="637.50" y="265.40" xlink:href="#hd"/>
<path d="M641.00 265.40v-21.00" class="stroke"/>
<use x="669.20" y="271.40" xlink:href="#hd"/>
<path d="M672.70 271.40v-21.00" class="stroke"/>
</g>
<g stroke-width="0.70" style="font:bold 13.00px Times">
<path class="stroke" stroke-width="1"
	d="M10.00 409.40v-82.00"/>
<g transform="translate(10.00,327.40) scale(1,0.82)">
	<use xlink:href="#brace"/>
</g>
<path class="stroke" stroke-width="1"
	d="M150.30 351.40v-24.00"/>
<path class="stroke" stroke-width="1"
	d="M150.30 409.40v-24.00"/>
<path class="stroke" stroke-width="1"
	d="M260.40 351.40v-24.00"/>
<path class="stroke" stroke-width="1"
	d="M260.40 409.40v-24.00"/>
<path class="stroke" stroke-width="1"
	d="M370.60 351.40v-24.00"/>
<path class="stroke" stroke-width="1"
	d="M370.60 409.40v-24.00"/>
<path class="stroke" stroke-width="1"
	d="M483.80 351.40v-24.00"/>
<path class="stroke" stroke-width="1"
	d="M483.80 409.40v-24.00"/>
<path class="stroke" stroke-width="1"
	d="M579.80 351.40v-24.00"/>
<path class="stroke" stroke-width="1"
	d="M579.80 409.40v-24.00"/>
<path class="stroke" stroke-width="1"
	d="M691.60 351.40v-24.00"/>
<path class="stroke" stroke-width="1"
	d="M691.60 409.40v-24.00"/>
<path d="m10.00 351.40
	h681.60
	M10.00 345.40
	h681.60
	M10.00 339.40
	h681.60
	M10.00 333.40
	h681.60
	M10.00 327.40
	h681.60
	" class="stroke"/>
<path d="m10.00 409.40
	h681.60
	M10.00 403.40
	h681.60
	M10.00 397.40
	h681.60
	M10.00 391.40
	h681.60
	M10.00 385.40
	h681.60
	" class="stroke"/>
</g>
<g stroke-width="0.70" style="font:bold 13.00px Times">
<text x="47.00" y="317.80">iv<tspan
	 style="font:italic 11.00px Times">⁷²</tspan></text>
</g>
<g stroke-width="0.70" style="font:bold 13.00px Times">
<text x="157.40" y="314.80">III</text>
</g>
<g stroke-width="0.70" style="font:bold 13.00px Times">
<text x="267.50" y="322.80">III</text>
</g>
<g stroke-width="0.70" style="font:bold 13.00px Times">
<text x="383.00" y="320.80">i</text>
</g>
<g stroke-width="0.70" style="font:bold 13.00px Times">
<text x="491.60" y="322.80">iv<tspan
	 style="font:italic 11.00px Times">⁷</tspan></text>
</g>
<g stroke-width="0.70" style="font:bold 13.00px Times">
<text x="592.30" y="314.80">i</text>
<use x="22.00" y="345.40" xlink:href="#tclef"/>
<use x="37.00" y="327.40" xlink:href="#sh0"/>
<use x="55.00" y="345.40" xlink:href="#hd"/>
<path d="M58.50 345.40v-21.00" class="stroke"/>
<use x="81.30" y="342.40" xlink:href="#Hd"/>
<path d="M84.80 342.40v-21.00" class="stroke"/>
<use x="131.40" y="345.40" xlink:href="#hd"/>
<path d="M134.90 345.40v-21.00" class="stroke"/>
<use x="162.80" y="342.40" xlink:href="#hd"/>
<path d="M166.30 342.40v-21.00" class="stroke"/>
<use x="189.10" y="339.40" xlink:href="#Hd"/>
<path d="M192.60 339.40v-21.00" class="stroke"/>
<use x="241.50" y="336.40" xlink:href="#hd"/>
<path d="M238.00 336.40v21.00" class="stroke"/>
<use x="272.90" y="339.40" xlink:href="#hd"/>
<path d="M269.40 339.40v21.00" class="stroke"/>
<use x="299.10" y="339.40" xlink:href="#hd"/>
<path d="M295.60 339.40v21.00" class="stroke"/>
<use x="325.40" y="342.40" xlink:href="#hd"/>
<path d="M328.90 342.40v-21.00" class="stroke"/>
<use x="351.60" y="345.40" xlink:href="#hd"/>
<path d="M355.10 345.40v-21.00" class="stroke"/>
<use x="384.60" y="348.40" xlink:href="#hd"/>
<path d="M388.10 348.40v-21.00" class="stroke"/>
<use x="410.80" y="351.40" xlink:href="#Hd"/>
<path d="M414.30 351.40v-21.00" class="stroke"/>
<use x="447.60" y="345.40" xlink:href="#hd"/>
<path d="M451.10 345.40v-21.00" class="stroke"/>
<path class="fill"
	d="M451.10 324.40c0.6 5.6 9.6 9 5.6 18.4
	1.6 -6 -1.3 -11.6 -5.6 -12.8
"/>
<use x="466.80" y="348.40" xlink:href="#hd"/>
<path d="M470.30 348.40v-21.00" class="stroke"/>
<path class="fill"
	d="M470.30 327.40c0.6 5.6 9.6 9 5.6 18.4
	1.6 -6 -1.3 -11.6 -5.6 -12.8
"/>
<use x="497.80" y="351.40" xlink:href="#hd"/>
<path d="M501.30 351.40v-21.00" class="stroke"/>
<use x="524.10" y="342.40" xlink:href="#Hd"/>
<path d="M527.60 342.40v-21.00" class="stroke"/>
<use x="560.90" y="345.40" xlink:href="#hd"/>
<path d="M564.40 345.40v-21.00" class="stroke"/>
<use x="593.80" y="342.40" xlink:href="#hd"/>
<path d="M597.30 342.40v-21.00" class="stroke"/>
<use x="620.00" y="339.40" xlink:href="#hd"/>
<path d="M623.50 339.40v-21.00" class="stroke"/>
<use x="646.50" y="336.40" xlink:href="#hd"/>
<path d="M643.00 336.40v21.00" class="stroke"/>
<use x="672.70" y="333.40" xlink:href="#hd"/>
<path d="M669.20 333.40v21.00" class="stroke"/>
<use x="22.00" y="391.40" xlink:href="#bclef"/>
<use x="37.00" y="391.40" xlink:href="#sh0"/>
<use x="55.00" y="406.40" xlink:href="#hd"/>
<path d="M58.50 406.40v-21.00" class="stroke"/>
<use x="81.30" y="400.40" xlink:href="#hd"/>
<path d="M84.80 400.40v-21.00" class="stroke"/>
<use x="107.70" y="394.40" xlink:href="#hd"/>
<path d="M104.20 394.40v21.00" class="stroke"/>
<use x="131.40" y="400.40" xlink:href="#hd"/>
<path d="M134.90 400.40v-21.00" class="stroke"/>
<use x="162.80" y="409.40" xlink:href="#hd"/>
<path d="M166.30 409.40v-21.00" class="stroke"/>
<use x="189.10" y="403.40" xlink:href="#hd"/>
<path d="M192.60 403.40v-21.00" class="stroke"/>
<use x="215.30" y="397.40" xlink:href="#hd"/>
<path d="M218.80 397.40v-21.00" class="stroke"/>
<use x="241.50" y="403.40" xlink:href="#hd"/>
<path d="M245.00 403.40v-21.00" class="stroke"/>
<use x="272.90" y="409.40" xlink:href="#hd"/>
<path d="M276.40 409.40v-21.00" class="stroke"/>
<use x="299.10" y="403.40" xlink:href="#hd"/>
<path d="M302.60 403.40v-21.00" class="stroke"/>
<use x="325.40" y="397.40" xlink:href="#Hd"/>
<path d="M328.90 397.40v-21.00" class="stroke"/>
<use x="385.60" y="415.40" xlink:href="#hl1"/>
<use x="385.60" y="415.40" xlink:href="#HD"/>
<use x="385.60" y="394.40" xlink:href="#HD"/>
<use x="385.60" y="388.40" xlink:href="#HD"/>
<use x="385.60" y="382.40" xlink:href="#HD"/>
<use x="498.80" y="415.40" xlink:href="#hl1"/>
<use x="498.80" y="421.40" xlink:href="#hl1"/>
<use x="498.80" y="427.40" xlink:href="#hl1"/>
<use x="498.80" y="427.40" xlink:href="#HD"/>
<use x="498.80" y="406.40" xlink:href="#HD"/>
<use x="498.80" y="400.40" xlink:href="#HD"/>
<use x="498.80" y="394.40" xlink:href="#HD"/>
<use x="594.80" y="415.40" xlink:href="#hl1"/>
<use x="594.80" y="415.40" xlink:href="#HD"/>
<use x="594.80" y="394.40" xlink:href="#HD"/>
<use x="594.80" y="388.40" xlink:href="#HD"/>
<use x="594.80" y="382.40" xlink:href="#HD"/>
</g>
<g stroke-width="0.70" style="font:bold 13.00px Times">
<path class="stroke" stroke-width="1"
	d="M10.00 538.40v-82.00"/>
<g transform="translate(10.00,456.40) scale(1,0.82)">
	<use xlink:href="#brace"/>
</g>
<path class="stroke" stroke-width="1"
	d="M200.50 480.40v-24.00"/>
<path class="stroke" stroke-width="1"
	d="M200.50 538.40v-24.00"/>
<path class="stroke" stroke-width="1"
	d="M299.70 480.40v-24.00"/>
<path class="stroke" stroke-width="1"
	d="M299.70 538.40v-24.00"/>
<path d="m10.00 480.40
	h289.70
	M10.00 474.40
	h289.70
	M10.00 468.40
	h289.70
	M10.00 462.40
	h289.70
	M10.00 456.40
	h289.70
	" class="stroke"/>
<path d="m10.00 538.40
	h289.70
	M10.00 532.40
	h289.70
	M10.00 526.40
	h289.70
	M10.00 520.40
	h289.70
	M10.00 514.40
	h289.70
	" class="stroke"/>
</g>
<g stroke-width="0.70" style="font:bold 13.00px Times">
<text x="48.70" y="450.80">V<tspan
	 style="font:italic 11.00px Times">⁷³</tspan></text>
</g>
<g stroke-width="0.70" style="font:bold 13.00px Times">
<text x="213.10" y="449.80">i</text>
<use x="22.00" y="474.40" xlink:href="#tclef"/>
<use x="37.00" y="456.40" xlink:href="#sh0"/>
<use x="56.50" y="459.40" xlink:href="#hd"/>
<path d="M53.00 459.40v21.00" class="stroke"/>
<use x="96.50" y="468.40" xlink:href="#hd"/>
<path d="M93.00 468.40v21.00" class="stroke"/>
<use x="132.50" y="471.40" xlink:href="#hd"/>
<path d="M136.00 471.40v-21.00" class="stroke"/>
<use x="172.50" y="474.40" xlink:href="#hd"/>
<path d="M176.00 474.40v-21.00" class="stroke"/>
<use x="214.60" y="477.40" xlink:href="#hd"/>
<path d="M218.10 477.40v-21.00" class="stroke"/>
<use x="254.60" y="480.40" xlink:href="#Hd"/>
<circle class="fill" cx="263.30" cy="477.40" r="1.2"/>
<path d="M258.10 480.40v-21.00" class="stroke"/>
<use x="22.00" y="520.40" xlink:href="#bclef"/>
<use x="37.00" y="520.40" xlink:href="#sh0"/>
<use x="57.50" y="544.40" xlink:href="#hl1"/>
<use x="57.50" y="550.40" xlink:href="#hl1"/>
<use x="57.50" y="553.40" xlink:href="#HD"/>
<use x="57.50" y="532.40" xlink:href="#HD"/>
<use x="57.50" y="526.40" xlink:href="#HD"/>
<use x="57.50" y="520.40" xlink:href="#HD"/>
<use x="215.60" y="544.40" xlink:href="#hl1"/>
<use x="215.60" y="544.40" xlink:href="#HD"/>
<use x="215.60" y="523.40" xlink:href="#HD"/>
<use x="215.60" y="517.40" xlink:href="#HD"/>
<use x="215.60" y="511.40" xlink:href="#HD"/>
</g>
</svg>
