<?xml version="1.0" standalone="no"?>
<!DOCTYPE svg PUBLIC "-//W3C//DTD SVG 1.1//EN"
	"http://www.w3.org/Graphics/SVG/1.1/DTD/svg11.dtd">
<svg xmlns="http://www.w3.org/2000/svg" version="1.1"
	xmlns:xlink="http://www.w3.org/1999/xlink"
	color="black"
	width="701.60px" height="554.00px" viewBox="0 0 701.60 554.00" preserveAspectRatio="xMidYMid meet">
<style type="text/css">
.fill {fill: currentColor}
.stroke {stroke: currentColor; fill: none}
text{white-space: pre}
</style>
<title>/tmp/retab_hymnal_L5/how_firm_a_foundation.abc (1) tune 1</title>
<!-- Creator: abcm2ps-8.14.11 -->
<!-- CreationDate: Apr 24, 2026 15:38 -->
<!-- CommandLine: /tmp/retab_hymnal_L5/how_firm_a_foundation.abc -g -O /tmp/retab_hymnal_L5/how_firm_a_foundation -->
<g stroke-width="0.70">
<!-- title: 097. How Firm A Foundation -->
</g>
<g stroke-width="0.70" style="font:20.00px Times">
<text x="350.80" y="22.00" text-anchor="middle">097. How Firm A Foundation</text>
</g>
<g stroke-width="0.70" style="font:20.00px Times">
<path class="stroke" stroke-width="1"
	d="M10.00 143.00v-82.00"/>
<defs>
<path id="brace" class="fill" d="m-2.5 101
	c-4.5 -4.6 -7.5 -12.2 -4.4 -26.8
	3.5 -14.3 3.2 -21.7 -2.1 -24.2
	7.4 2.4 7.3 14.2 3.5 29.5
	-2.7 9.5 -1.5 16.2 3 21.5
	M-2.5 1c-4.5 4.6 -7.5 12.2 -4.4 26.8
	c3.5 14.3 3.2 21.7 -2.1 24.2
	7.4 -2.4 7.3 -14.2 3.5 -29.5
	-2.7 -9.5 -1.5 -16.2 3 -21.5"/>
</defs>
<g transform="translate(10.00,61.00) scale(1,0.82)">
	<use xlink:href="#brace"/>
</g>
<path class="stroke" stroke-width="1"
	d="M162.40 85.00v-24.00"/>
<path class="stroke" stroke-width="1"
	d="M162.40 143.00v-24.00"/>
<path class="stroke" stroke-width="1"
	d="M220.50 85.00v-24.00"/>
<path class="stroke" stroke-width="1"
	d="M220.50 143.00v-24.00"/>
<path class="stroke" stroke-width="1"
	d="M309.30 85.00v-24.00"/>
<path class="stroke" stroke-width="1"
	d="M309.30 143.00v-24.00"/>
<path class="stroke" stroke-width="1"
	d="M367.30 85.00v-24.00"/>
<path class="stroke" stroke-width="1"
	d="M367.30 143.00v-24.00"/>
<path class="stroke" stroke-width="1"
	d="M456.10 85.00v-24.00"/>
<path class="stroke" stroke-width="1"
	d="M456.10 143.00v-24.00"/>
<path class="stroke" stroke-width="1"
	d="M514.10 85.00v-24.00"/>
<path class="stroke" stroke-width="1"
	d="M514.10 143.00v-24.00"/>
<path class="stroke" stroke-width="1"
	d="M602.90 85.00v-24.00"/>
<path class="stroke" stroke-width="1"
	d="M602.90 143.00v-24.00"/>
<path class="stroke" stroke-width="1"
	d="M691.60 85.00v-24.00"/>
<path class="stroke" stroke-width="1"
	d="M691.60 143.00v-24.00"/>
<path d="m10.00 85.00
	h681.60
	M10.00 79.00
	h681.60
	M10.00 73.00
	h681.60
	M10.00 67.00
	h681.60
	M10.00 61.00
	h681.60
	" class="stroke"/>
<path d="m10.00 143.00
	h681.60
	M10.00 137.00
	h681.60
	M10.00 131.00
	h681.60
	M10.00 125.00
	h681.60
	M10.00 119.00
	h681.60
	" class="stroke"/>
</g>
<g stroke-width="0.70" style="font:bold 13.00px Times">
<text x="81.30" y="56.40">IV<tspan
	 style="font:italic 11.00px Times">²</tspan></text>
</g>
<g stroke-width="0.70" style="font:bold 13.00px Times">
<text x="175.90" y="56.40">I</text>
</g>
<g stroke-width="0.70" style="font:bold 13.00px Times">
<text x="230.00" y="54.40">IV</text>
</g>
<g stroke-width="0.70" style="font:bold 13.00px Times">
<text x="322.70" y="56.40">I</text>
</g>
<g stroke-width="0.70" style="font:bold 13.00px Times">
<text x="380.80" y="48.40">I</text>
</g>
<g stroke-width="0.70" style="font:bold 13.00px Times">
<text x="469.50" y="56.40">I</text>
</g>
<g stroke-width="0.70" style="font:bold 13.00px Times">
<text x="523.50" y="56.40">V<tspan
	 style="font:italic 11.00px Times">²</tspan></text>
</g>
<g stroke-width="0.70" style="font:bold 13.00px Times">
<text x="614.20" y="56.40">V</text>
<defs>
<path id="utclef" class="fill" d="m-50 -90
	c-72 -41 -72 -158 52 -188
	150 -10 220 188 90 256
	-114 52 -275 0 -293 -136
	-15 -181 93 -229 220 -334
	88 -87 79 -133 62 -210
	-51 33 -94 105 -89 186
	17 267 36 374 49 574
	6 96 -19 134 -77 135
	-80 1 -126 -93 -61 -133
	85 -41 133 101 31 105
	23 17 92 37 90 -92
	-10 -223 -39 -342 -50 -617
	0 -90 0 -162 96 -232
	56 72 63 230 22 289
	-74 106 -257 168 -255 316
	9 153 148 185 252 133
	86 -65 29 -192 -80 -176
	-71 12 -105 67 -59 124"/>
<use id="tclef" transform="translate(0,6) scale(0.045)"
	xlink:href="#utclef"/>
</defs>
<use x="22.00" y="79.00" xlink:href="#tclef"/>
<defs>
<path id="uflat" class="fill" d="
	m100 -746
	h32
	v734
	l-32 4
	m32 -332
	c46 -72 152 -90 208 -20
	100 110 -120 326 -208 348
	m0 -28
	c54 0 200 -206 130 -290
	-50 -60 -130 -4 -130 34"/>
<use id="ft0" transform="translate(-3.5,3.5) scale(0.018)"
	xlink:href="#uflat"/>
</defs>
<use x="37.00" y="73.00" xlink:href="#ft0"/>
<use x="42.50" y="64.00" xlink:href="#ft0"/>
<use x="48.00" y="76.00" xlink:href="#ft0"/>
<use x="53.50" y="67.00" xlink:href="#ft0"/>
<g style="font:bold 16px serif"
	transform="translate(69.50,84.50) scale(1.2,1)">
	<text text-anchor="middle">2</text>
	<text y="-12" text-anchor="middle">2</text>
</g>
<defs>
<path id="Hd" class="fill" d="m3 -1.6
	c-1 -1.8 -7 1.4 -6 3.2
	1 1.8 7 -1.4 6 -3.2
	m0.5 -0.3
	c2 3.8 -5 7.6 -7 3.8
	-2 -3.8 5 -7.6 7 -3.8"/>
</defs>
<use x="89.00" y="85.00" xlink:href="#Hd"/>
<path d="M92.50 85.00v-21.00" class="stroke"/>
<use x="132.20" y="82.00" xlink:href="#Hd"/>
<path d="M135.70 82.00v-21.00" class="stroke"/>
<defs>
<path id="HD" class="fill" d="m-2.7 -1.4
	c1.5 -2.8 6.9 0 5.3 2.7
	-1.5 2.8 -6.9 0 -5.3 -2.7
	m8.3 1.4
	c0 -1.5 -2.2 -3 -5.6 -3
	-3.4 0 -5.6 1.5 -5.6 3
	0 1.5 2.2 3 5.6 3
	3.4 0 5.6 -1.5 5.6 -3"/>
</defs>
<use x="178.70" y="76.00" xlink:href="#HD"/>
<use x="235.80" y="82.00" xlink:href="#Hd"/>
<path d="M239.30 82.00v-21.00" class="stroke"/>
<use x="279.00" y="76.00" xlink:href="#Hd"/>
<path d="M282.50 76.00v-21.00" class="stroke"/>
<use x="325.50" y="85.00" xlink:href="#HD"/>
<use x="382.60" y="76.00" xlink:href="#Hd"/>
<path d="M386.10 76.00v-21.00" class="stroke"/>
<use x="425.80" y="73.00" xlink:href="#Hd"/>
<path d="M429.30 73.00v-21.00" class="stroke"/>
<use x="472.30" y="70.00" xlink:href="#HD"/>
<use x="529.40" y="73.00" xlink:href="#Hd"/>
<path d="M525.90 73.00v21.00" class="stroke"/>
<use x="572.60" y="70.00" xlink:href="#Hd"/>
<path d="M569.10 70.00v21.00" class="stroke"/>
<use x="619.20" y="85.00" xlink:href="#HD"/>
<defs>
<path id="ubclef" class="fill" d="m-200 -87
	c124 -35 222 -78 254 -236
	43 -228 -167 -246 -192 -103
	59 -80 157 22 92 78
	-62 47 -115 -22 -106 -88
	21 -141 270 -136 274 52
	-1 175 -106 264 -322 297
	m357 -250
	c0 -36 51 -34 51 0
	0 37 -51 36 -51 0
	m-2 -129
	c0 -36 51 -34 51 0
	0 38 -51 37 -51 0"/>
<use id="bclef" transform="translate(0,18) scale(0.045)"
	xlink:href="#ubclef"/>
</defs>
<use x="22.00" y="125.00" xlink:href="#bclef"/>
<use x="37.00" y="137.00" xlink:href="#ft0"/>
<use x="42.50" y="128.00" xlink:href="#ft0"/>
<use x="48.00" y="140.00" xlink:href="#ft0"/>
<use x="53.50" y="131.00" xlink:href="#ft0"/>
<g style="font:bold 16px serif"
	transform="translate(69.50,142.50) scale(1.2,1)">
	<text text-anchor="middle">2</text>
	<text y="-12" text-anchor="middle">2</text>
</g>
<defs>
<path id="hl1" class="stroke" d="m-7 0h14"/>
</defs>
<use x="90.00" y="149.00" xlink:href="#hl1"/>
<use x="90.00" y="152.00" xlink:href="#HD"/>
<use x="90.00" y="131.00" xlink:href="#HD"/>
<use x="90.00" y="125.00" xlink:href="#HD"/>
<use x="90.00" y="119.00" xlink:href="#HD"/>
<use x="178.70" y="149.00" xlink:href="#hl1"/>
<use x="178.70" y="155.00" xlink:href="#hl1"/>
<use x="178.70" y="161.00" xlink:href="#hl1"/>
<use x="178.70" y="161.00" xlink:href="#HD"/>
<use x="178.70" y="140.00" xlink:href="#HD"/>
<use x="178.70" y="134.00" xlink:href="#HD"/>
<use x="178.70" y="128.00" xlink:href="#HD"/>
<use x="236.80" y="149.00" xlink:href="#hl1"/>
<use x="236.80" y="152.00" xlink:href="#HD"/>
<use x="236.80" y="131.00" xlink:href="#HD"/>
<use x="236.80" y="125.00" xlink:href="#HD"/>
<use x="236.80" y="119.00" xlink:href="#HD"/>
<use x="325.50" y="149.00" xlink:href="#hl1"/>
<use x="325.50" y="155.00" xlink:href="#hl1"/>
<use x="325.50" y="161.00" xlink:href="#hl1"/>
<use x="325.50" y="161.00" xlink:href="#HD"/>
<use x="325.50" y="140.00" xlink:href="#HD"/>
<use x="325.50" y="134.00" xlink:href="#HD"/>
<use x="325.50" y="128.00" xlink:href="#HD"/>
<use x="383.60" y="149.00" xlink:href="#hl1"/>
<use x="383.60" y="155.00" xlink:href="#hl1"/>
<use x="383.60" y="161.00" xlink:href="#hl1"/>
<use x="383.60" y="161.00" xlink:href="#HD"/>
<use x="383.60" y="140.00" xlink:href="#HD"/>
<use x="383.60" y="134.00" xlink:href="#HD"/>
<use x="383.60" y="128.00" xlink:href="#HD"/>
<use x="472.30" y="149.00" xlink:href="#hl1"/>
<use x="472.30" y="155.00" xlink:href="#hl1"/>
<use x="472.30" y="161.00" xlink:href="#hl1"/>
<use x="472.30" y="161.00" xlink:href="#HD"/>
<use x="472.30" y="140.00" xlink:href="#HD"/>
<use x="472.30" y="134.00" xlink:href="#HD"/>
<use x="472.30" y="128.00" xlink:href="#HD"/>
<use x="530.40" y="149.00" xlink:href="#hl1"/>
<use x="530.40" y="149.00" xlink:href="#HD"/>
<use x="530.40" y="128.00" xlink:href="#HD"/>
<use x="530.40" y="122.00" xlink:href="#HD"/>
<use x="530.40" y="116.00" xlink:href="#HD"/>
<use x="618.20" y="128.00" xlink:href="#Hd"/>
<path d="M614.70 128.00v21.00" class="stroke"/>
<use x="661.40" y="122.00" xlink:href="#Hd"/>
<path d="M657.90 122.00v21.00" class="stroke"/>
</g>
<g stroke-width="0.70" style="font:bold 13.00px Times">
<path class="stroke" stroke-width="1"
	d="M10.00 272.00v-82.00"/>
<g transform="translate(10.00,190.00) scale(1,0.82)">
	<use xlink:href="#brace"/>
</g>
<path class="stroke" stroke-width="1"
	d="M121.90 214.00v-24.00"/>
<path class="stroke" stroke-width="1"
	d="M121.90 272.00v-24.00"/>
<path class="stroke" stroke-width="1"
	d="M188.30 214.00v-24.00"/>
<path class="stroke" stroke-width="1"
	d="M188.30 272.00v-24.00"/>
<path class="stroke" stroke-width="1"
	d="M289.70 214.00v-24.00"/>
<path class="stroke" stroke-width="1"
	d="M289.70 272.00v-24.00"/>
<path class="stroke" stroke-width="1"
	d="M356.10 214.00v-24.00"/>
<path class="stroke" stroke-width="1"
	d="M356.10 272.00v-24.00"/>
<path class="stroke" stroke-width="1"
	d="M457.50 214.00v-24.00"/>
<path class="stroke" stroke-width="1"
	d="M457.50 272.00v-24.00"/>
<path class="stroke" stroke-width="1"
	d="M523.80 214.00v-24.00"/>
<path class="stroke" stroke-width="1"
	d="M523.80 272.00v-24.00"/>
<path class="stroke" stroke-width="1"
	d="M625.20 214.00v-24.00"/>
<path class="stroke" stroke-width="1"
	d="M625.20 272.00v-24.00"/>
<path class="stroke" stroke-width="1"
	d="M691.60 214.00v-24.00"/>
<path class="stroke" stroke-width="1"
	d="M691.60 272.00v-24.00"/>
<path d="m10.00 214.00
	h681.60
	M10.00 208.00
	h681.60
	M10.00 202.00
	h681.60
	M10.00 196.00
	h681.60
	M10.00 190.00
	h681.60
	" class="stroke"/>
<path d="m10.00 272.00
	h681.60
	M10.00 266.00
	h681.60
	M10.00 260.00
	h681.60
	M10.00 254.00
	h681.60
	M10.00 248.00
	h681.60
	" class="stroke"/>
</g>
<g stroke-width="0.70" style="font:bold 13.00px Times">
<text x="67.10" y="185.40">V<tspan
	 style="font:italic 11.00px Times">⁷</tspan></text>
</g>
<g stroke-width="0.70" style="font:bold 13.00px Times">
<text x="137.60" y="185.40">I</text>
</g>
<g stroke-width="0.70" style="font:bold 13.00px Times">
<text x="200.00" y="183.40">IV</text>
</g>
<g stroke-width="0.70" style="font:bold 13.00px Times">
<text x="303.40" y="185.40">I<tspan
	 style="font:italic 11.00px Times">¹</tspan></text>
</g>
<g stroke-width="0.70" style="font:bold 13.00px Times">
<text x="369.30" y="177.40">vi</text>
</g>
<g stroke-width="0.70" style="font:bold 13.00px Times">
<text x="471.10" y="185.40">I<tspan
	 style="font:italic 11.00px Times">²</tspan></text>
</g>
<g stroke-width="0.70" style="font:bold 13.00px Times">
<text x="535.40" y="185.40">V<tspan
	 style="font:italic 11.00px Times">⁷</tspan></text>
</g>
<g stroke-width="0.70" style="font:bold 13.00px Times">
<text x="640.90" y="185.40">I</text>
<use x="22.00" y="208.00" xlink:href="#tclef"/>
<use x="37.00" y="202.00" xlink:href="#ft0"/>
<use x="42.50" y="193.00" xlink:href="#ft0"/>
<use x="48.00" y="205.00" xlink:href="#ft0"/>
<use x="53.50" y="196.00" xlink:href="#ft0"/>
<use x="74.00" y="214.00" xlink:href="#HD"/>
<use x="140.40" y="205.00" xlink:href="#HD"/>
<use x="205.70" y="211.00" xlink:href="#Hd"/>
<path d="M209.20 211.00v-21.00" class="stroke"/>
<use x="255.10" y="205.00" xlink:href="#Hd"/>
<path d="M258.60 205.00v-21.00" class="stroke"/>
<use x="308.10" y="214.00" xlink:href="#HD"/>
<use x="373.50" y="205.00" xlink:href="#Hd"/>
<path d="M377.00 205.00v-21.00" class="stroke"/>
<use x="422.90" y="202.00" xlink:href="#Hd"/>
<path d="M426.40 202.00v-21.00" class="stroke"/>
<use x="475.90" y="199.00" xlink:href="#HD"/>
<use x="541.30" y="202.00" xlink:href="#Hd"/>
<path d="M537.80 202.00v21.00" class="stroke"/>
<use x="590.70" y="202.00" xlink:href="#Hd"/>
<path d="M587.20 202.00v21.00" class="stroke"/>
<use x="643.70" y="205.00" xlink:href="#HD"/>
<use x="22.00" y="254.00" xlink:href="#bclef"/>
<use x="37.00" y="266.00" xlink:href="#ft0"/>
<use x="42.50" y="257.00" xlink:href="#ft0"/>
<use x="48.00" y="269.00" xlink:href="#ft0"/>
<use x="53.50" y="260.00" xlink:href="#ft0"/>
<use x="74.00" y="245.00" xlink:href="#HD"/>
<use x="74.00" y="257.00" xlink:href="#HD"/>
<use x="74.00" y="251.00" xlink:href="#HD"/>
<use x="140.40" y="278.00" xlink:href="#hl1"/>
<use x="140.40" y="284.00" xlink:href="#hl1"/>
<use x="140.40" y="290.00" xlink:href="#hl1"/>
<use x="140.40" y="290.00" xlink:href="#HD"/>
<use x="140.40" y="269.00" xlink:href="#HD"/>
<use x="140.40" y="263.00" xlink:href="#HD"/>
<use x="140.40" y="257.00" xlink:href="#HD"/>
<use x="206.70" y="278.00" xlink:href="#hl1"/>
<use x="206.70" y="281.00" xlink:href="#HD"/>
<use x="206.70" y="260.00" xlink:href="#HD"/>
<use x="206.70" y="254.00" xlink:href="#HD"/>
<use x="206.70" y="248.00" xlink:href="#HD"/>
<use x="308.10" y="278.00" xlink:href="#hl1"/>
<use x="308.10" y="284.00" xlink:href="#hl1"/>
<use x="308.10" y="290.00" xlink:href="#hl1"/>
<use x="308.10" y="290.00" xlink:href="#HD"/>
<use x="308.10" y="269.00" xlink:href="#HD"/>
<use x="308.10" y="263.00" xlink:href="#HD"/>
<use x="308.10" y="257.00" xlink:href="#HD"/>
<use x="374.50" y="242.00" xlink:href="#hl1"/>
<use x="374.50" y="242.00" xlink:href="#HD"/>
<use x="374.50" y="275.00" xlink:href="#HD"/>
<use x="374.50" y="254.00" xlink:href="#HD"/>
<use x="374.50" y="248.00" xlink:href="#HD"/>
<use x="475.90" y="278.00" xlink:href="#hl1"/>
<use x="475.90" y="284.00" xlink:href="#hl1"/>
<use x="475.90" y="290.00" xlink:href="#hl1"/>
<use x="475.90" y="290.00" xlink:href="#HD"/>
<use x="475.90" y="269.00" xlink:href="#HD"/>
<use x="475.90" y="263.00" xlink:href="#HD"/>
<use x="475.90" y="257.00" xlink:href="#HD"/>
<use x="542.30" y="278.00" xlink:href="#hl1"/>
<use x="542.30" y="278.00" xlink:href="#HD"/>
<use x="542.30" y="257.00" xlink:href="#HD"/>
<use x="542.30" y="251.00" xlink:href="#HD"/>
<use x="542.30" y="245.00" xlink:href="#HD"/>
<use x="643.70" y="278.00" xlink:href="#hl1"/>
<use x="643.70" y="284.00" xlink:href="#hl1"/>
<use x="643.70" y="290.00" xlink:href="#hl1"/>
<use x="643.70" y="290.00" xlink:href="#HD"/>
<use x="643.70" y="269.00" xlink:href="#HD"/>
<use x="643.70" y="263.00" xlink:href="#HD"/>
<use x="643.70" y="257.00" xlink:href="#HD"/>
</g>
<g stroke-width="0.70" style="font:bold 13.00px Times">
<path class="stroke" stroke-width="1"
	d="M10.00 401.00v-82.00"/>
<g transform="translate(10.00,319.00) scale(1,0.82)">
	<use xlink:href="#brace"/>
</g>
<path class="stroke" stroke-width="1"
	d="M114.80 343.00v-24.00"/>
<path class="stroke" stroke-width="1"
	d="M114.80 401.00v-24.00"/>
<path class="stroke" stroke-width="1"
	d="M201.50 343.00v-24.00"/>
<path class="stroke" stroke-width="1"
	d="M201.50 401.00v-24.00"/>
<path class="stroke" stroke-width="1"
	d="M288.20 343.00v-24.00"/>
<path class="stroke" stroke-width="1"
	d="M288.20 401.00v-24.00"/>
<path class="stroke" stroke-width="1"
	d="M374.80 343.00v-24.00"/>
<path class="stroke" stroke-width="1"
	d="M374.80 401.00v-24.00"/>
<path class="stroke" stroke-width="1"
	d="M461.50 343.00v-24.00"/>
<path class="stroke" stroke-width="1"
	d="M461.50 401.00v-24.00"/>
<path class="stroke" stroke-width="1"
	d="M518.20 343.00v-24.00"/>
<path class="stroke" stroke-width="1"
	d="M518.20 401.00v-24.00"/>
<path class="stroke" stroke-width="1"
	d="M604.90 343.00v-24.00"/>
<path class="stroke" stroke-width="1"
	d="M604.90 401.00v-24.00"/>
<path class="stroke" stroke-width="1"
	d="M691.60 343.00v-24.00"/>
<path class="stroke" stroke-width="1"
	d="M691.60 401.00v-24.00"/>
<path d="m10.00 343.00
	h681.60
	M10.00 337.00
	h681.60
	M10.00 331.00
	h681.60
	M10.00 325.00
	h681.60
	M10.00 319.00
	h681.60
	" class="stroke"/>
<path d="m10.00 401.00
	h681.60
	M10.00 395.00
	h681.60
	M10.00 389.00
	h681.60
	M10.00 383.00
	h681.60
	M10.00 377.00
	h681.60
	" class="stroke"/>
</g>
<g stroke-width="0.70" style="font:bold 13.00px Times">
<text x="71.20" y="314.40">I</text>
</g>
<g stroke-width="0.70" style="font:bold 13.00px Times">
<text x="127.90" y="313.40">I</text>
</g>
<g stroke-width="0.70" style="font:bold 13.00px Times">
<text x="214.60" y="314.40">I</text>
</g>
<g stroke-width="0.70" style="font:bold 13.00px Times">
<text x="298.80" y="314.40">vi</text>
</g>
<g stroke-width="0.70" style="font:bold 13.00px Times">
<text x="386.00" y="306.40">I<tspan
	 style="font:italic 11.00px Times">¹</tspan></text>
</g>
<g stroke-width="0.70" style="font:bold 13.00px Times">
<text x="474.60" y="314.40">I</text>
</g>
<g stroke-width="0.70" style="font:bold 13.00px Times">
<text x="527.30" y="314.40">V<tspan
	 style="font:italic 11.00px Times">²</tspan></text>
</g>
<g stroke-width="0.70" style="font:bold 13.00px Times">
<text x="615.90" y="314.40">V</text>
<use x="22.00" y="337.00" xlink:href="#tclef"/>
<use x="37.00" y="331.00" xlink:href="#ft0"/>
<use x="42.50" y="322.00" xlink:href="#ft0"/>
<use x="48.00" y="334.00" xlink:href="#ft0"/>
<use x="53.50" y="325.00" xlink:href="#ft0"/>
<use x="74.00" y="328.00" xlink:href="#HD"/>
<use x="130.70" y="322.00" xlink:href="#HD"/>
<use x="216.40" y="328.00" xlink:href="#Hd"/>
<path d="M212.90 328.00v21.00" class="stroke"/>
<use x="258.60" y="322.00" xlink:href="#Hd"/>
<path d="M255.10 322.00v21.00" class="stroke"/>
<use x="304.10" y="334.00" xlink:href="#HD"/>
<use x="389.80" y="334.00" xlink:href="#Hd"/>
<path d="M393.30 334.00v-21.00" class="stroke"/>
<use x="432.00" y="331.00" xlink:href="#Hd"/>
<path d="M435.50 331.00v-21.00" class="stroke"/>
<use x="477.40" y="328.00" xlink:href="#HD"/>
<use x="533.20" y="331.00" xlink:href="#Hd"/>
<path d="M529.70 331.00v21.00" class="stroke"/>
<use x="575.40" y="328.00" xlink:href="#Hd"/>
<path d="M571.90 328.00v21.00" class="stroke"/>
<use x="620.90" y="343.00" xlink:href="#HD"/>
<use x="22.00" y="383.00" xlink:href="#bclef"/>
<use x="37.00" y="395.00" xlink:href="#ft0"/>
<use x="42.50" y="386.00" xlink:href="#ft0"/>
<use x="48.00" y="398.00" xlink:href="#ft0"/>
<use x="53.50" y="389.00" xlink:href="#ft0"/>
<use x="74.00" y="407.00" xlink:href="#hl1"/>
<use x="74.00" y="413.00" xlink:href="#hl1"/>
<use x="74.00" y="419.00" xlink:href="#hl1"/>
<use x="74.00" y="419.00" xlink:href="#HD"/>
<use x="74.00" y="398.00" xlink:href="#HD"/>
<use x="74.00" y="392.00" xlink:href="#HD"/>
<use x="74.00" y="386.00" xlink:href="#HD"/>
<use x="129.70" y="398.00" xlink:href="#Hd"/>
<path d="M133.20 398.00v-21.00" class="stroke"/>
<use x="171.90" y="392.00" xlink:href="#Hd"/>
<path d="M175.40 392.00v-21.00" class="stroke"/>
<use x="216.40" y="398.00" xlink:href="#Hd"/>
<path d="M219.90 398.00v-21.00" class="stroke"/>
<use x="258.60" y="392.00" xlink:href="#Hd"/>
<path d="M262.10 392.00v-21.00" class="stroke"/>
<use x="303.10" y="383.00" xlink:href="#Hd"/>
<path d="M299.60 383.00v21.00" class="stroke"/>
<use x="345.30" y="377.00" xlink:href="#Hd"/>
<path d="M341.80 377.00v21.00" class="stroke"/>
<use x="390.80" y="398.00" xlink:href="#HD"/>
<use x="390.80" y="392.00" xlink:href="#HD"/>
<use x="390.80" y="386.00" xlink:href="#HD"/>
<use x="477.40" y="407.00" xlink:href="#hl1"/>
<use x="477.40" y="413.00" xlink:href="#hl1"/>
<use x="477.40" y="419.00" xlink:href="#hl1"/>
<use x="477.40" y="419.00" xlink:href="#HD"/>
<use x="477.40" y="398.00" xlink:href="#HD"/>
<use x="477.40" y="392.00" xlink:href="#HD"/>
<use x="477.40" y="386.00" xlink:href="#HD"/>
<use x="534.20" y="407.00" xlink:href="#hl1"/>
<use x="534.20" y="407.00" xlink:href="#HD"/>
<use x="534.20" y="386.00" xlink:href="#HD"/>
<use x="534.20" y="380.00" xlink:href="#HD"/>
<use x="534.20" y="374.00" xlink:href="#HD"/>
<use x="619.90" y="386.00" xlink:href="#Hd"/>
<path d="M616.40 386.00v21.00" class="stroke"/>
<use x="662.10" y="380.00" xlink:href="#Hd"/>
<path d="M658.60 380.00v21.00" class="stroke"/>
</g>
<g stroke-width="0.70" style="font:bold 13.00px Times">
<path class="stroke" stroke-width="1"
	d="M10.00 530.00v-82.00"/>
<g transform="translate(10.00,448.00) scale(1,0.82)">
	<use xlink:href="#brace"/>
</g>
<path class="stroke" stroke-width="1"
	d="M121.90 472.00v-24.00"/>
<path class="stroke" stroke-width="1"
	d="M121.90 530.00v-24.00"/>
<path class="stroke" stroke-width="1"
	d="M188.30 472.00v-24.00"/>
<path class="stroke" stroke-width="1"
	d="M188.30 530.00v-24.00"/>
<path class="stroke" stroke-width="1"
	d="M289.70 472.00v-24.00"/>
<path class="stroke" stroke-width="1"
	d="M289.70 530.00v-24.00"/>
<path class="stroke" stroke-width="1"
	d="M356.10 472.00v-24.00"/>
<path class="stroke" stroke-width="1"
	d="M356.10 530.00v-24.00"/>
<path class="stroke" stroke-width="1"
	d="M457.50 472.00v-24.00"/>
<path class="stroke" stroke-width="1"
	d="M457.50 530.00v-24.00"/>
<path class="stroke" stroke-width="1"
	d="M523.80 472.00v-24.00"/>
<path class="stroke" stroke-width="1"
	d="M523.80 530.00v-24.00"/>
<path class="stroke" stroke-width="1"
	d="M625.20 472.00v-24.00"/>
<path class="stroke" stroke-width="1"
	d="M625.20 530.00v-24.00"/>
<path class="stroke" stroke-width="1"
	d="M691.60 472.00v-24.00"/>
<path class="stroke" stroke-width="1"
	d="M691.60 530.00v-24.00"/>
<path d="m10.00 472.00
	h681.60
	M10.00 466.00
	h681.60
	M10.00 460.00
	h681.60
	M10.00 454.00
	h681.60
	M10.00 448.00
	h681.60
	" class="stroke"/>
<path d="m10.00 530.00
	h681.60
	M10.00 524.00
	h681.60
	M10.00 518.00
	h681.60
	M10.00 512.00
	h681.60
	M10.00 506.00
	h681.60
	" class="stroke"/>
</g>
<g stroke-width="0.70" style="font:bold 13.00px Times">
<text x="67.10" y="443.40">V<tspan
	 style="font:italic 11.00px Times">⁷</tspan></text>
</g>
<g stroke-width="0.70" style="font:bold 13.00px Times">
<text x="135.60" y="443.40">I<tspan
	 style="font:italic 11.00px Times">¹</tspan></text>
</g>
<g stroke-width="0.70" style="font:bold 13.00px Times">
<text x="200.00" y="441.40">IV</text>
</g>
<g stroke-width="0.70" style="font:bold 13.00px Times">
<text x="303.40" y="443.40">I<tspan
	 style="font:italic 11.00px Times">¹</tspan></text>
</g>
<g stroke-width="0.70" style="font:bold 13.00px Times">
<text x="369.30" y="435.40">vi</text>
</g>
<g stroke-width="0.70" style="font:bold 13.00px Times">
<text x="471.10" y="443.40">I<tspan
	 style="font:italic 11.00px Times">²</tspan></text>
</g>
<g stroke-width="0.70" style="font:bold 13.00px Times">
<text x="535.40" y="443.40">V<tspan
	 style="font:italic 11.00px Times">⁷</tspan></text>
</g>
<g stroke-width="0.70" style="font:bold 13.00px Times">
<text x="640.90" y="443.40">I</text>
<use x="22.00" y="466.00" xlink:href="#tclef"/>
<use x="37.00" y="460.00" xlink:href="#ft0"/>
<use x="42.50" y="451.00" xlink:href="#ft0"/>
<use x="48.00" y="463.00" xlink:href="#ft0"/>
<use x="53.50" y="454.00" xlink:href="#ft0"/>
<use x="74.00" y="472.00" xlink:href="#HD"/>
<use x="140.40" y="463.00" xlink:href="#HD"/>
<use x="205.70" y="469.00" xlink:href="#Hd"/>
<path d="M209.20 469.00v-21.00" class="stroke"/>
<use x="255.10" y="463.00" xlink:href="#Hd"/>
<path d="M258.60 463.00v-21.00" class="stroke"/>
<use x="308.10" y="472.00" xlink:href="#HD"/>
<use x="373.50" y="463.00" xlink:href="#Hd"/>
<path d="M377.00 463.00v-21.00" class="stroke"/>
<use x="422.90" y="460.00" xlink:href="#Hd"/>
<path d="M426.40 460.00v-21.00" class="stroke"/>
<use x="475.90" y="457.00" xlink:href="#HD"/>
<use x="541.30" y="460.00" xlink:href="#Hd"/>
<path d="M537.80 460.00v21.00" class="stroke"/>
<use x="590.70" y="460.00" xlink:href="#Hd"/>
<path d="M587.20 460.00v21.00" class="stroke"/>
<use x="643.70" y="463.00" xlink:href="#HD"/>
<use x="22.00" y="512.00" xlink:href="#bclef"/>
<use x="37.00" y="524.00" xlink:href="#ft0"/>
<use x="42.50" y="515.00" xlink:href="#ft0"/>
<use x="48.00" y="527.00" xlink:href="#ft0"/>
<use x="53.50" y="518.00" xlink:href="#ft0"/>
<use x="74.00" y="503.00" xlink:href="#HD"/>
<use x="74.00" y="515.00" xlink:href="#HD"/>
<use x="74.00" y="509.00" xlink:href="#HD"/>
<use x="140.40" y="536.00" xlink:href="#hl1"/>
<use x="140.40" y="542.00" xlink:href="#hl1"/>
<use x="140.40" y="548.00" xlink:href="#hl1"/>
<use x="140.40" y="548.00" xlink:href="#HD"/>
<use x="140.40" y="527.00" xlink:href="#HD"/>
<use x="140.40" y="521.00" xlink:href="#HD"/>
<use x="140.40" y="515.00" xlink:href="#HD"/>
<use x="206.70" y="536.00" xlink:href="#hl1"/>
<use x="206.70" y="539.00" xlink:href="#HD"/>
<use x="206.70" y="518.00" xlink:href="#HD"/>
<use x="206.70" y="512.00" xlink:href="#HD"/>
<use x="206.70" y="506.00" xlink:href="#HD"/>
<use x="308.10" y="536.00" xlink:href="#hl1"/>
<use x="308.10" y="542.00" xlink:href="#hl1"/>
<use x="308.10" y="548.00" xlink:href="#hl1"/>
<use x="308.10" y="548.00" xlink:href="#HD"/>
<use x="308.10" y="527.00" xlink:href="#HD"/>
<use x="308.10" y="521.00" xlink:href="#HD"/>
<use x="308.10" y="515.00" xlink:href="#HD"/>
<use x="374.50" y="500.00" xlink:href="#hl1"/>
<use x="374.50" y="500.00" xlink:href="#HD"/>
<use x="374.50" y="533.00" xlink:href="#HD"/>
<use x="374.50" y="512.00" xlink:href="#HD"/>
<use x="374.50" y="506.00" xlink:href="#HD"/>
<use x="475.90" y="536.00" xlink:href="#hl1"/>
<use x="475.90" y="542.00" xlink:href="#hl1"/>
<use x="475.90" y="548.00" xlink:href="#hl1"/>
<use x="475.90" y="548.00" xlink:href="#HD"/>
<use x="475.90" y="527.00" xlink:href="#HD"/>
<use x="475.90" y="521.00" xlink:href="#HD"/>
<use x="475.90" y="515.00" xlink:href="#HD"/>
<use x="542.30" y="536.00" xlink:href="#hl1"/>
<use x="542.30" y="536.00" xlink:href="#HD"/>
<use x="542.30" y="515.00" xlink:href="#HD"/>
<use x="542.30" y="509.00" xlink:href="#HD"/>
<use x="542.30" y="503.00" xlink:href="#HD"/>
<use x="643.70" y="536.00" xlink:href="#hl1"/>
<use x="643.70" y="542.00" xlink:href="#hl1"/>
<use x="643.70" y="548.00" xlink:href="#hl1"/>
<use x="643.70" y="548.00" xlink:href="#HD"/>
<use x="643.70" y="527.00" xlink:href="#HD"/>
<use x="643.70" y="521.00" xlink:href="#HD"/>
<use x="643.70" y="515.00" xlink:href="#HD"/>
</g>
</svg>
