<?xml version="1.0" standalone="no"?>
<!DOCTYPE svg PUBLIC "-//W3C//DTD SVG 1.1//EN"
	"http://www.w3.org/Graphics/SVG/1.1/DTD/svg11.dtd">
<svg xmlns="http://www.w3.org/2000/svg" version="1.1"
	xmlns:xlink="http://www.w3.org/1999/xlink"
	color="black"
	width="701.60px" height="309.80px" viewBox="0 0 701.60 309.80" preserveAspectRatio="xMidYMid meet">
<style type="text/css">
.fill {fill: currentColor}
.stroke {stroke: currentColor; fill: none}
text{white-space: pre}
</style>
<title>/tmp/retab_hymnal_L5/jesus_christ_who_came_to_save.abc (1) tune 1</title>
<!-- Creator: abcm2ps-8.14.11 -->
<!-- CreationDate: Apr 24, 2026 15:38 -->
<!-- CommandLine: /tmp/retab_hymnal_L5/jesus_christ_who_came_to_save.abc -g -O /tmp/retab_hymnal_L5/jesus_christ_who_came_to_save -->
<g stroke-width="0.70">
<!-- title: 122. Jesus Christ Who Came to Save -->
</g>
<g stroke-width="0.70" style="font:20.00px Times">
<text x="350.80" y="22.00" text-anchor="middle">122. Jesus Christ Who Came to Save</text>
</g>
<g stroke-width="0.70" style="font:20.00px Times">
<path class="stroke" stroke-width="1"
	d="M10.00 145.40v-82.00"/>
<defs>
<path id="brace" class="fill" d="m-2.5 101
	c-4.5 -4.6 -7.5 -12.2 -4.4 -26.8
	3.5 -14.3 3.2 -21.7 -2.1 -24.2
	7.4 2.4 7.3 14.2 3.5 29.5
	-2.7 9.5 -1.5 16.2 3 21.5
	M-2.5 1c-4.5 4.6 -7.5 12.2 -4.4 26.8
	c3.5 14.3 3.2 21.7 -2.1 24.2
	7.4 -2.4 7.3 -14.2 3.5 -29.5
	-2.7 -9.5 -1.5 -16.2 3 -21.5"/>
</defs>
<g transform="translate(10.00,63.40) scale(1,0.82)">
	<use xlink:href="#brace"/>
</g>
<path class="stroke" stroke-width="1"
	d="M152.40 87.40v-24.00"/>
<path class="stroke" stroke-width="1"
	d="M152.40 145.40v-24.00"/>
<path class="stroke" stroke-width="1"
	d="M257.40 87.40v-24.00"/>
<path class="stroke" stroke-width="1"
	d="M257.40 145.40v-24.00"/>
<path class="stroke" stroke-width="1"
	d="M363.80 87.40v-24.00"/>
<path class="stroke" stroke-width="1"
	d="M363.80 145.40v-24.00"/>
<path class="stroke" stroke-width="1"
	d="M470.40 87.40v-24.00"/>
<path class="stroke" stroke-width="1"
	d="M470.40 145.40v-24.00"/>
<path class="stroke" stroke-width="1"
	d="M585.20 87.40v-24.00"/>
<path class="stroke" stroke-width="1"
	d="M585.20 145.40v-24.00"/>
<path class="stroke" stroke-width="1"
	d="M691.60 87.40v-24.00"/>
<path class="stroke" stroke-width="1"
	d="M691.60 145.40v-24.00"/>
<path d="m10.00 87.40
	h681.60
	M10.00 81.40
	h681.60
	M10.00 75.40
	h681.60
	M10.00 69.40
	h681.60
	M10.00 63.40
	h681.60
	" class="stroke"/>
<path d="m10.00 145.40
	h681.60
	M10.00 139.40
	h681.60
	M10.00 133.40
	h681.60
	M10.00 127.40
	h681.60
	M10.00 121.40
	h681.60
	" class="stroke"/>
</g>
<g stroke-width="0.70" style="font:bold 13.00px Times">
<text x="58.50" y="50.80">i</text>
</g>
<g stroke-width="0.70" style="font:bold 13.00px Times">
<text x="163.00" y="47.80">I</text>
</g>
<g stroke-width="0.70" style="font:bold 13.00px Times">
<text x="267.50" y="58.80">V</text>
</g>
<g stroke-width="0.70" style="font:bold 13.00px Times">
<text x="376.30" y="50.80">i</text>
</g>
<g stroke-width="0.70" style="font:bold 13.00px Times">
<text x="479.40" y="50.80">i<tspan
	 style="font:italic 11.00px Times">¹</tspan></text>
</g>
<g stroke-width="0.70" style="font:bold 13.00px Times">
<text x="595.30" y="47.80">V</text>
<defs>
<path id="utclef" class="fill" d="m-50 -90
	c-72 -41 -72 -158 52 -188
	150 -10 220 188 90 256
	-114 52 -275 0 -293 -136
	-15 -181 93 -229 220 -334
	88 -87 79 -133 62 -210
	-51 33 -94 105 -89 186
	17 267 36 374 49 574
	6 96 -19 134 -77 135
	-80 1 -126 -93 -61 -133
	85 -41 133 101 31 105
	23 17 92 37 90 -92
	-10 -223 -39 -342 -50 -617
	0 -90 0 -162 96 -232
	56 72 63 230 22 289
	-74 106 -257 168 -255 316
	9 153 148 185 252 133
	86 -65 29 -192 -80 -176
	-71 12 -105 67 -59 124"/>
<use id="tclef" transform="translate(0,6) scale(0.045)"
	xlink:href="#utclef"/>
</defs>
<use x="22.00" y="81.40" xlink:href="#tclef"/>
<g style="font:bold 16px serif"
	transform="translate(40.50,86.90) scale(1.2,1)">
	<text text-anchor="middle">4</text>
	<text y="-12" text-anchor="middle">4</text>
</g>
<defs>
<ellipse id="hd" rx="4.1" ry="2.9"
	transform="rotate(-20)" class="fill"/>
</defs>
<use x="60.00" y="78.40" xlink:href="#hd"/>
<path d="M63.50 78.40v-21.00" class="stroke"/>
<use x="84.80" y="78.40" xlink:href="#hd"/>
<path d="M88.30 78.40v-21.00" class="stroke"/>
<use x="109.60" y="81.40" xlink:href="#hd"/>
<path d="M113.10 81.40v-21.00" class="stroke"/>
<use x="134.30" y="78.40" xlink:href="#hd"/>
<path d="M137.80 78.40v-21.00" class="stroke"/>
<use x="164.90" y="75.40" xlink:href="#hd"/>
<path d="M168.40 75.40v-21.00" class="stroke"/>
<use x="189.80" y="78.40" xlink:href="#hd"/>
<path d="M193.30 78.40v-21.00" class="stroke"/>
<use x="214.60" y="81.40" xlink:href="#hd"/>
<path d="M218.10 81.40v-21.00" class="stroke"/>
<use x="239.40" y="84.40" xlink:href="#hd"/>
<path d="M242.90 84.40v-21.00" class="stroke"/>
<use x="271.40" y="87.40" xlink:href="#hd"/>
<path d="M274.90 87.40v-21.00" class="stroke"/>
<use x="296.20" y="81.40" xlink:href="#hd"/>
<path d="M299.70 81.40v-21.00" class="stroke"/>
<use x="321.00" y="78.40" xlink:href="#hd"/>
<path d="M324.50 78.40v-21.00" class="stroke"/>
<use x="345.80" y="75.40" xlink:href="#hd"/>
<path d="M349.30 75.40v-21.00" class="stroke"/>
<use x="377.80" y="78.40" xlink:href="#hd"/>
<path d="M381.30 78.40v-21.00" class="stroke"/>
<use x="402.60" y="81.40" xlink:href="#hd"/>
<path d="M406.10 81.40v-21.00" class="stroke"/>
<use x="427.30" y="78.40" xlink:href="#hd"/>
<path d="M430.80 78.40v-21.00" class="stroke"/>
<use x="452.40" y="69.40" xlink:href="#hd"/>
<path d="M448.90 69.40v21.00" class="stroke"/>
<use x="482.90" y="78.40" xlink:href="#hd"/>
<path d="M486.40 78.40v-21.00" class="stroke"/>
<path class="fill"
	d="M486.40 57.40c0.6 5.6 9.6 9 5.6 18.4
	1.6 -6 -1.3 -11.6 -5.6 -12.8
"/>
<use x="501.20" y="75.40" xlink:href="#hd"/>
<path d="M504.70 75.40v-21.00" class="stroke"/>
<path class="fill"
	d="M504.70 54.40c0.6 5.6 9.6 9 5.6 18.4
	1.6 -6 -1.3 -11.6 -5.6 -12.8
"/>
<use x="519.80" y="72.40" xlink:href="#hd"/>
<path d="M516.30 72.40v21.00" class="stroke"/>
<use x="544.80" y="75.40" xlink:href="#hd"/>
<path d="M541.30 75.40v21.00" class="stroke"/>
<use x="567.20" y="78.40" xlink:href="#hd"/>
<path d="M570.70 78.40v-21.00" class="stroke"/>
<use x="599.20" y="75.40" xlink:href="#hd"/>
<path d="M602.70 75.40v-21.00" class="stroke"/>
<use x="624.00" y="78.40" xlink:href="#hd"/>
<path d="M627.50 78.40v-21.00" class="stroke"/>
<use x="648.80" y="78.40" xlink:href="#hd"/>
<path d="M652.30 78.40v-21.00" class="stroke"/>
<use x="673.60" y="78.40" xlink:href="#hd"/>
<path d="M677.10 78.40v-21.00" class="stroke"/>
<defs>
<path id="ubclef" class="fill" d="m-200 -87
	c124 -35 222 -78 254 -236
	43 -228 -167 -246 -192 -103
	59 -80 157 22 92 78
	-62 47 -115 -22 -106 -88
	21 -141 270 -136 274 52
	-1 175 -106 264 -322 297
	m357 -250
	c0 -36 51 -34 51 0
	0 37 -51 36 -51 0
	m-2 -129
	c0 -36 51 -34 51 0
	0 38 -51 37 -51 0"/>
<use id="bclef" transform="translate(0,18) scale(0.045)"
	xlink:href="#ubclef"/>
</defs>
<use x="22.00" y="127.40" xlink:href="#bclef"/>
<g style="font:bold 16px serif"
	transform="translate(40.50,144.90) scale(1.2,1)">
	<text text-anchor="middle">4</text>
	<text y="-12" text-anchor="middle">4</text>
</g>
<defs>
<path id="hl1" class="stroke" d="m-7 0h14"/>
</defs>
<use x="61.00" y="151.40" xlink:href="#hl1"/>
<use x="61.00" y="157.40" xlink:href="#hl1"/>
<use x="61.00" y="163.40" xlink:href="#hl1"/>
<defs>
<path id="HD" class="fill" d="m-2.7 -1.4
	c1.5 -2.8 6.9 0 5.3 2.7
	-1.5 2.8 -6.9 0 -5.3 -2.7
	m8.3 1.4
	c0 -1.5 -2.2 -3 -5.6 -3
	-3.4 0 -5.6 1.5 -5.6 3
	0 1.5 2.2 3 5.6 3
	3.4 0 5.6 -1.5 5.6 -3"/>
</defs>
<use x="61.00" y="163.40" xlink:href="#HD"/>
<use x="61.00" y="142.40" xlink:href="#HD"/>
<use x="61.00" y="136.40" xlink:href="#HD"/>
<use x="61.00" y="130.40" xlink:href="#HD"/>
<defs>
<path id="hl" class="stroke" d="m-6 0h12"/>
</defs>
<use x="164.90" y="151.40" xlink:href="#hl"/>
<use x="164.90" y="157.40" xlink:href="#hl"/>
<use x="164.90" y="157.40" xlink:href="#hd"/>
<path d="M168.40 157.40v-24.00" class="stroke"/>
<use x="189.80" y="151.40" xlink:href="#hl"/>
<use x="189.80" y="151.40" xlink:href="#hd"/>
<path d="M193.30 151.40v-21.00" class="stroke"/>
<defs>
<path id="Hd" class="fill" d="m3 -1.6
	c-1 -1.8 -7 1.4 -6 3.2
	1 1.8 7 -1.4 6 -3.2
	m0.5 -0.3
	c2 3.8 -5 7.6 -7 3.8
	-2 -3.8 5 -7.6 7 -3.8"/>
</defs>
<use x="214.60" y="145.40" xlink:href="#Hd"/>
<path d="M218.10 145.40v-21.00" class="stroke"/>
<use x="272.40" y="151.40" xlink:href="#hl1"/>
<use x="272.40" y="157.40" xlink:href="#hl1"/>
<use x="272.40" y="163.40" xlink:href="#hl1"/>
<use x="272.40" y="169.40" xlink:href="#hl1"/>
<use x="272.40" y="172.40" xlink:href="#HD"/>
<use x="272.40" y="151.40" xlink:href="#HD"/>
<use x="272.40" y="145.40" xlink:href="#HD"/>
<use x="272.40" y="139.40" xlink:href="#HD"/>
<use x="378.80" y="151.40" xlink:href="#hl1"/>
<use x="378.80" y="157.40" xlink:href="#hl1"/>
<use x="378.80" y="163.40" xlink:href="#hl1"/>
<use x="378.80" y="163.40" xlink:href="#HD"/>
<use x="378.80" y="142.40" xlink:href="#HD"/>
<use x="378.80" y="136.40" xlink:href="#HD"/>
<use x="378.80" y="130.40" xlink:href="#HD"/>
<use x="482.90" y="142.40" xlink:href="#hd"/>
<path d="M486.40 142.40v-21.00" class="stroke"/>
<use x="519.80" y="136.40" xlink:href="#hd"/>
<path d="M523.30 136.40v-21.00" class="stroke"/>
<use x="544.80" y="130.40" xlink:href="#Hd"/>
<path d="M541.30 130.40v21.00" class="stroke"/>
<use x="600.20" y="151.40" xlink:href="#hl1"/>
<use x="600.20" y="157.40" xlink:href="#hl1"/>
<use x="600.20" y="163.40" xlink:href="#hl1"/>
<use x="600.20" y="169.40" xlink:href="#hl1"/>
<use x="600.20" y="172.40" xlink:href="#HD"/>
<use x="600.20" y="151.40" xlink:href="#HD"/>
<use x="600.20" y="145.40" xlink:href="#HD"/>
<use x="600.20" y="139.40" xlink:href="#HD"/>
</g>
<g stroke-width="0.70" style="font:bold 13.00px Times">
<path class="stroke" stroke-width="1"
	d="M10.00 285.80v-82.00"/>
<g transform="translate(10.00,203.80) scale(1,0.82)">
	<use xlink:href="#brace"/>
</g>
<path class="stroke" stroke-width="1"
	d="M196.00 227.80v-24.00"/>
<path class="stroke" stroke-width="1"
	d="M196.00 285.80v-24.00"/>
<path class="stroke" stroke-width="1"
	d="M358.10 227.80v-24.00"/>
<path class="stroke" stroke-width="1"
	d="M358.10 285.80v-24.00"/>
<path class="stroke" stroke-width="1"
	d="M491.90 227.80v-24.00"/>
<path class="stroke" stroke-width="1"
	d="M491.90 285.80v-24.00"/>
<path d="m10.00 227.80
	h481.90
	M10.00 221.80
	h481.90
	M10.00 215.80
	h481.90
	M10.00 209.80
	h481.90
	M10.00 203.80
	h481.90
	" class="stroke"/>
<path d="m10.00 285.80
	h481.90
	M10.00 279.80
	h481.90
	M10.00 273.80
	h481.90
	M10.00 267.80
	h481.90
	M10.00 261.80
	h481.90
	" class="stroke"/>
</g>
<g stroke-width="0.70" style="font:bold 13.00px Times">
<text x="46.50" y="188.20">i</text>
</g>
<g stroke-width="0.70" style="font:bold 13.00px Times">
<text x="206.20" y="199.20">V</text>
</g>
<g stroke-width="0.70" style="font:bold 13.00px Times">
<text x="370.80" y="191.20">i</text>
<use x="22.00" y="221.80" xlink:href="#tclef"/>
<use x="48.00" y="215.80" xlink:href="#hd"/>
<path d="M51.50 215.80v-21.00" class="stroke"/>
<use x="88.00" y="218.80" xlink:href="#hd"/>
<path d="M91.50 218.80v-21.00" class="stroke"/>
<use x="128.00" y="221.80" xlink:href="#hd"/>
<path d="M131.50 221.80v-21.00" class="stroke"/>
<use x="168.00" y="224.80" xlink:href="#hd"/>
<path d="M171.50 224.80v-21.00" class="stroke"/>
<use x="210.10" y="227.80" xlink:href="#hd"/>
<path d="M213.60 227.80v-21.00" class="stroke"/>
<use x="250.10" y="221.80" xlink:href="#hd"/>
<path d="M253.60 221.80v-21.00" class="stroke"/>
<use x="290.10" y="218.80" xlink:href="#hd"/>
<path d="M293.60 218.80v-21.00" class="stroke"/>
<use x="330.10" y="215.80" xlink:href="#hd"/>
<path d="M333.60 215.80v-21.00" class="stroke"/>
<use x="372.30" y="218.80" xlink:href="#hd"/>
<path d="M375.80 218.80v-21.00" class="stroke"/>
<use x="412.30" y="221.80" xlink:href="#hd"/>
<path d="M415.80 221.80v-21.00" class="stroke"/>
<use x="452.30" y="218.80" xlink:href="#Hd"/>
<path d="M455.80 218.80v-21.00" class="stroke"/>
<use x="22.00" y="267.80" xlink:href="#bclef"/>
<use x="49.00" y="291.80" xlink:href="#hl1"/>
<use x="49.00" y="297.80" xlink:href="#hl1"/>
<use x="49.00" y="303.80" xlink:href="#hl1"/>
<use x="49.00" y="303.80" xlink:href="#HD"/>
<use x="49.00" y="282.80" xlink:href="#HD"/>
<use x="49.00" y="276.80" xlink:href="#HD"/>
<use x="49.00" y="270.80" xlink:href="#HD"/>
<use x="210.10" y="291.80" xlink:href="#hl"/>
<use x="210.10" y="291.80" xlink:href="#hd"/>
<path d="M213.60 291.80v-21.00" class="stroke"/>
<use x="250.10" y="285.80" xlink:href="#hd"/>
<path d="M253.60 285.80v-21.00" class="stroke"/>
<use x="290.10" y="279.80" xlink:href="#Hd"/>
<path d="M293.60 279.80v-21.00" class="stroke"/>
<use x="373.30" y="291.80" xlink:href="#hl1"/>
<use x="373.30" y="297.80" xlink:href="#hl1"/>
<use x="373.30" y="303.80" xlink:href="#hl1"/>
<use x="373.30" y="303.80" xlink:href="#HD"/>
<use x="373.30" y="282.80" xlink:href="#HD"/>
<use x="373.30" y="276.80" xlink:href="#HD"/>
<use x="373.30" y="270.80" xlink:href="#HD"/>
</g>
</svg>
