<?xml version="1.0" standalone="no"?>
<!DOCTYPE svg PUBLIC "-//W3C//DTD SVG 1.1//EN"
	"http://www.w3.org/Graphics/SVG/1.1/DTD/svg11.dtd">
<svg xmlns="http://www.w3.org/2000/svg" version="1.1"
	xmlns:xlink="http://www.w3.org/1999/xlink"
	color="black"
	width="701.60px" height="436.40px" viewBox="0 0 701.60 436.40" preserveAspectRatio="xMidYMid meet">
<style type="text/css">
.fill {fill: currentColor}
.stroke {stroke: currentColor; fill: none}
text{white-space: pre}
</style>
<title>/tmp/retab_hymnal_L5/let_our_gladness_have_no_end.abc (1) tune 1</title>
<!-- Creator: abcm2ps-8.14.11 -->
<!-- CreationDate: Apr 24, 2026 15:38 -->
<!-- CommandLine: /tmp/retab_hymnal_L5/let_our_gladness_have_no_end.abc -g -O /tmp/retab_hymnal_L5/let_our_gladness_have_no_end -->
<g stroke-width="0.70">
<!-- title: 137. Let Our Gladness Have No End -->
</g>
<g stroke-width="0.70" style="font:20.00px Times">
<text x="350.80" y="22.00" text-anchor="middle">137. Let Our Gladness Have No End</text>
</g>
<g stroke-width="0.70" style="font:20.00px Times">
<path class="stroke" stroke-width="1"
	d="M10.00 143.00v-82.00"/>
<defs>
<path id="brace" class="fill" d="m-2.5 101
	c-4.5 -4.6 -7.5 -12.2 -4.4 -26.8
	3.5 -14.3 3.2 -21.7 -2.1 -24.2
	7.4 2.4 7.3 14.2 3.5 29.5
	-2.7 9.5 -1.5 16.2 3 21.5
	M-2.5 1c-4.5 4.6 -7.5 12.2 -4.4 26.8
	c3.5 14.3 3.2 21.7 -2.1 24.2
	7.4 -2.4 7.3 -14.2 3.5 -29.5
	-2.7 -9.5 -1.5 -16.2 3 -21.5"/>
</defs>
<g transform="translate(10.00,61.00) scale(1,0.82)">
	<use xlink:href="#brace"/>
</g>
<path class="stroke" stroke-width="1"
	d="M178.10 85.00v-24.00"/>
<path class="stroke" stroke-width="1"
	d="M178.10 143.00v-24.00"/>
<path class="stroke" stroke-width="1"
	d="M276.00 85.00v-24.00"/>
<path class="stroke" stroke-width="1"
	d="M276.00 143.00v-24.00"/>
<path class="stroke" stroke-width="1"
	d="M375.20 85.00v-24.00"/>
<path class="stroke" stroke-width="1"
	d="M375.20 143.00v-24.00"/>
<path class="stroke" stroke-width="1"
	d="M455.50 85.00v-24.00"/>
<path class="stroke" stroke-width="1"
	d="M455.50 143.00v-24.00"/>
<path class="stroke" stroke-width="1"
	d="M573.50 85.00v-24.00"/>
<path class="stroke" stroke-width="1"
	d="M573.50 143.00v-24.00"/>
<path class="stroke" stroke-width="1"
	d="M691.60 85.00v-24.00"/>
<path class="stroke" stroke-width="1"
	d="M691.60 143.00v-24.00"/>
<path d="m10.00 85.00
	h681.60
	M10.00 79.00
	h681.60
	M10.00 73.00
	h681.60
	M10.00 67.00
	h681.60
	M10.00 61.00
	h681.60
	" class="stroke"/>
<path d="m10.00 143.00
	h681.60
	M10.00 137.00
	h681.60
	M10.00 131.00
	h681.60
	M10.00 125.00
	h681.60
	M10.00 119.00
	h681.60
	" class="stroke"/>
</g>
<g stroke-width="0.70" style="font:bold 13.00px Times">
<text x="68.70" y="51.40">I<tspan
	 style="font:italic 11.00px Times">¹</tspan></text>
</g>
<g stroke-width="0.70" style="font:bold 13.00px Times">
<text x="186.70" y="54.40">V</text>
</g>
<g stroke-width="0.70" style="font:bold 13.00px Times">
<text x="288.20" y="56.40">I</text>
</g>
<g stroke-width="0.70" style="font:bold 13.00px Times">
<text x="387.40" y="54.40">I</text>
</g>
<g stroke-width="0.70" style="font:bold 13.00px Times">
<text x="464.20" y="54.40">I<tspan
	 style="font:italic 11.00px Times">¹</tspan></text>
</g>
<g stroke-width="0.70" style="font:bold 13.00px Times">
<text x="581.40" y="54.40">iii</text>
<defs>
<path id="utclef" class="fill" d="m-50 -90
	c-72 -41 -72 -158 52 -188
	150 -10 220 188 90 256
	-114 52 -275 0 -293 -136
	-15 -181 93 -229 220 -334
	88 -87 79 -133 62 -210
	-51 33 -94 105 -89 186
	17 267 36 374 49 574
	6 96 -19 134 -77 135
	-80 1 -126 -93 -61 -133
	85 -41 133 101 31 105
	23 17 92 37 90 -92
	-10 -223 -39 -342 -50 -617
	0 -90 0 -162 96 -232
	56 72 63 230 22 289
	-74 106 -257 168 -255 316
	9 153 148 185 252 133
	86 -65 29 -192 -80 -176
	-71 12 -105 67 -59 124"/>
<use id="tclef" transform="translate(0,6) scale(0.045)"
	xlink:href="#utclef"/>
</defs>
<use x="22.00" y="79.00" xlink:href="#tclef"/>
<defs>
<path id="usharp" class="fill" d="
	m136 -702
	v890
	h32
	v-890
	m128 840
	h32
	v-888
	h-32
	m-232 286
	v116
	l338 -96
	v-116
	m-338 442
	v116
	l338 -98
	v-114"/>
<use id="sh0" transform="translate(-4,5) scale(0.018)"
	xlink:href="#usharp"/>
</defs>
<use x="37.00" y="61.00" xlink:href="#sh0"/>
<g style="font:bold 16px serif"
	transform="translate(53.00,84.50) scale(1.2,1)">
	<text text-anchor="middle">4</text>
	<text y="-12" text-anchor="middle">4</text>
</g>
<defs>
<ellipse id="hd" rx="4.1" ry="2.9"
	transform="rotate(-20)" class="fill"/>
</defs>
<use x="72.50" y="79.00" xlink:href="#hd"/>
<path d="M76.00 79.00v-21.00" class="stroke"/>
<use x="100.90" y="76.00" xlink:href="#hd"/>
<path d="M104.40 76.00v-21.00" class="stroke"/>
<use x="129.20" y="73.00" xlink:href="#hd"/>
<path d="M132.70 73.00v-21.00" class="stroke"/>
<use x="157.80" y="70.00" xlink:href="#hd"/>
<path d="M154.30 70.00v21.00" class="stroke"/>
<use x="190.60" y="67.00" xlink:href="#hd"/>
<path d="M187.10 67.00v21.00" class="stroke"/>
<use x="219.20" y="67.00" xlink:href="#hd"/>
<path d="M215.70 67.00v21.00" class="stroke"/>
<defs>
<path id="Hd" class="fill" d="m3 -1.6
	c-1 -1.8 -7 1.4 -6 3.2
	1 1.8 7 -1.4 6 -3.2
	m0.5 -0.3
	c2 3.8 -5 7.6 -7 3.8
	-2 -3.8 5 -7.6 7 -3.8"/>
</defs>
<use x="247.60" y="67.00" xlink:href="#Hd"/>
<path d="M244.10 67.00v21.00" class="stroke"/>
<use x="290.00" y="70.00" xlink:href="#hd"/>
<path d="M286.50 70.00v21.00" class="stroke"/>
<use x="318.40" y="67.00" xlink:href="#hd"/>
<path d="M314.90 67.00v21.00" class="stroke"/>
<use x="346.80" y="64.00" xlink:href="#Hd"/>
<path d="M343.30 64.00v21.00" class="stroke"/>
<use x="389.20" y="67.00" xlink:href="#Hd"/>
<circle class="fill" cx="397.90" cy="64.00" r="1.2"/>
<path d="M385.70 67.00v21.00" class="stroke"/>
<defs>
<path id="r4" class="fill" d="m-1 -8.5
	l3.6 5.1 -2.1 5.2 2.2 4.3
	c-2.6 -2.3 -5.1 0 -2.4 2.6
	-4.8 -3 -1.5 -6.9 1.4 -4.1
	l-3.1 -4.5 1.9 -5.1 -1.5 -3.5"/>
</defs>
<use x="435.20" y="73.00" xlink:href="#r4"/>
<use x="468.00" y="67.00" xlink:href="#hd"/>
<path d="M464.50 67.00v21.00" class="stroke"/>
<use x="496.40" y="67.00" xlink:href="#hd"/>
<path d="M492.90 67.00v21.00" class="stroke"/>
<use x="524.70" y="70.00" xlink:href="#hd"/>
<path d="M521.20 70.00v21.00" class="stroke"/>
<use x="553.10" y="70.00" xlink:href="#hd"/>
<path d="M549.60 70.00v21.00" class="stroke"/>
<use x="586.00" y="73.00" xlink:href="#hd"/>
<path d="M582.50 73.00v21.00" class="stroke"/>
<use x="614.30" y="73.00" xlink:href="#hd"/>
<path d="M610.80 73.00v21.00" class="stroke"/>
<use x="642.90" y="76.00" xlink:href="#Hd"/>
<path d="M646.40 76.00v-21.00" class="stroke"/>
<defs>
<path id="ubclef" class="fill" d="m-200 -87
	c124 -35 222 -78 254 -236
	43 -228 -167 -246 -192 -103
	59 -80 157 22 92 78
	-62 47 -115 -22 -106 -88
	21 -141 270 -136 274 52
	-1 175 -106 264 -322 297
	m357 -250
	c0 -36 51 -34 51 0
	0 37 -51 36 -51 0
	m-2 -129
	c0 -36 51 -34 51 0
	0 38 -51 37 -51 0"/>
<use id="bclef" transform="translate(0,18) scale(0.045)"
	xlink:href="#ubclef"/>
</defs>
<use x="22.00" y="125.00" xlink:href="#bclef"/>
<use x="37.00" y="125.00" xlink:href="#sh0"/>
<g style="font:bold 16px serif"
	transform="translate(53.00,142.50) scale(1.2,1)">
	<text text-anchor="middle">4</text>
	<text y="-12" text-anchor="middle">4</text>
</g>
<defs>
<path id="hl1" class="stroke" d="m-7 0h14"/>
</defs>
<use x="73.50" y="149.00" xlink:href="#hl1"/>
<use x="73.50" y="155.00" xlink:href="#hl1"/>
<use x="73.50" y="161.00" xlink:href="#hl1"/>
<defs>
<path id="HD" class="fill" d="m-2.7 -1.4
	c1.5 -2.8 6.9 0 5.3 2.7
	-1.5 2.8 -6.9 0 -5.3 -2.7
	m8.3 1.4
	c0 -1.5 -2.2 -3 -5.6 -3
	-3.4 0 -5.6 1.5 -5.6 3
	0 1.5 2.2 3 5.6 3
	3.4 0 5.6 -1.5 5.6 -3"/>
</defs>
<use x="73.50" y="164.00" xlink:href="#HD"/>
<use x="73.50" y="143.00" xlink:href="#HD"/>
<use x="73.50" y="137.00" xlink:href="#HD"/>
<use x="73.50" y="131.00" xlink:href="#HD"/>
<use x="190.60" y="131.00" xlink:href="#hd"/>
<path d="M194.10 131.00v-21.00" class="stroke"/>
<use x="219.20" y="125.00" xlink:href="#hd"/>
<path d="M215.70 125.00v21.00" class="stroke"/>
<use x="247.60" y="119.00" xlink:href="#Hd"/>
<path d="M244.10 119.00v21.00" class="stroke"/>
<use x="291.00" y="149.00" xlink:href="#hl1"/>
<use x="291.00" y="155.00" xlink:href="#hl1"/>
<use x="291.00" y="161.00" xlink:href="#hl1"/>
<use x="291.00" y="164.00" xlink:href="#HD"/>
<use x="291.00" y="143.00" xlink:href="#HD"/>
<use x="291.00" y="137.00" xlink:href="#HD"/>
<use x="291.00" y="131.00" xlink:href="#HD"/>
<use x="390.20" y="149.00" xlink:href="#hl1"/>
<use x="390.20" y="155.00" xlink:href="#hl1"/>
<use x="390.20" y="161.00" xlink:href="#hl1"/>
<use x="390.20" y="164.00" xlink:href="#HD"/>
<use x="390.20" y="143.00" xlink:href="#HD"/>
<use x="390.20" y="137.00" xlink:href="#HD"/>
<use x="390.20" y="131.00" xlink:href="#HD"/>
<use x="468.00" y="143.00" xlink:href="#hd"/>
<path d="M471.50 143.00v-21.00" class="stroke"/>
<use x="496.40" y="137.00" xlink:href="#hd"/>
<path d="M499.90 137.00v-21.00" class="stroke"/>
<use x="524.70" y="131.00" xlink:href="#hd"/>
<path d="M528.20 131.00v-21.00" class="stroke"/>
<use x="553.10" y="137.00" xlink:href="#hd"/>
<path d="M556.60 137.00v-21.00" class="stroke"/>
<use x="586.00" y="137.00" xlink:href="#hd"/>
<path d="M589.50 137.00v-21.00" class="stroke"/>
<use x="614.30" y="131.00" xlink:href="#hd"/>
<path d="M617.80 131.00v-21.00" class="stroke"/>
<use x="642.90" y="125.00" xlink:href="#hd"/>
<path d="M639.40 125.00v21.00" class="stroke"/>
<use x="671.30" y="131.00" xlink:href="#hd"/>
<path d="M667.80 131.00v21.00" class="stroke"/>
</g>
<g stroke-width="0.70" style="font:bold 13.00px Times">
<path class="stroke" stroke-width="1"
	d="M10.00 277.40v-82.00"/>
<g transform="translate(10.00,195.40) scale(1,0.82)">
	<use xlink:href="#brace"/>
</g>
<path class="stroke" stroke-width="1"
	d="M152.50 219.40v-24.00"/>
<path class="stroke" stroke-width="1"
	d="M152.50 277.40v-24.00"/>
<path class="stroke" stroke-width="1"
	d="M242.00 219.40v-24.00"/>
<path class="stroke" stroke-width="1"
	d="M242.00 277.40v-24.00"/>
<path class="stroke" stroke-width="1"
	d="M376.70 219.40v-24.00"/>
<path class="stroke" stroke-width="1"
	d="M376.70 277.40v-24.00"/>
<path class="stroke" stroke-width="1"
	d="M466.20 219.40v-24.00"/>
<path class="stroke" stroke-width="1"
	d="M466.20 277.40v-24.00"/>
<path class="stroke" stroke-width="1"
	d="M558.40 219.40v-24.00"/>
<path class="stroke" stroke-width="1"
	d="M558.40 277.40v-24.00"/>
<path class="stroke" stroke-width="1"
	d="M691.60 219.40v-24.00"/>
<path class="stroke" stroke-width="1"
	d="M691.60 277.40v-24.00"/>
<path d="m10.00 219.40
	h681.60
	M10.00 213.40
	h681.60
	M10.00 207.40
	h681.60
	M10.00 201.40
	h681.60
	M10.00 195.40
	h681.60
	" class="stroke"/>
<path d="m10.00 277.40
	h681.60
	M10.00 271.40
	h681.60
	M10.00 265.40
	h681.60
	M10.00 259.40
	h681.60
	M10.00 253.40
	h681.60
	" class="stroke"/>
</g>
<g stroke-width="0.70" style="font:bold 13.00px Times">
<text x="49.20" y="179.80">IV</text>
</g>
<g stroke-width="0.70" style="font:bold 13.00px Times">
<text x="164.70" y="185.80">I</text>
</g>
<g stroke-width="0.70" style="font:bold 13.00px Times">
<text x="251.80" y="179.80">vi</text>
</g>
<g stroke-width="0.70" style="font:bold 13.00px Times">
<text x="384.80" y="190.80">V<tspan
	 style="font:italic 11.00px Times">¹</tspan></text>
</g>
<g stroke-width="0.70" style="font:bold 13.00px Times">
<text x="474.30" y="188.80">V<tspan
	 style="font:italic 11.00px Times">⁷</tspan></text>
</g>
<g stroke-width="0.70" style="font:bold 13.00px Times">
<text x="569.10" y="188.80">I</text>
<use x="22.00" y="213.40" xlink:href="#tclef"/>
<use x="37.00" y="195.40" xlink:href="#sh0"/>
<use x="55.00" y="207.40" xlink:href="#hd"/>
<path d="M58.50 207.40v-21.00" class="stroke"/>
<use x="87.60" y="204.40" xlink:href="#hd"/>
<path d="M84.10 204.40v21.00" class="stroke"/>
<use x="120.10" y="210.40" xlink:href="#Hd"/>
<path d="M123.60 210.40v-21.00" class="stroke"/>
<use x="166.50" y="213.40" xlink:href="#Hd"/>
<circle class="fill" cx="175.20" cy="210.40" r="1.2"/>
<path d="M170.00 213.40v-21.00" class="stroke"/>
<use x="219.00" y="207.40" xlink:href="#r4"/>
<use x="256.00" y="207.40" xlink:href="#hd"/>
<path d="M259.50 207.40v-21.00" class="stroke"/>
<use x="288.50" y="210.40" xlink:href="#hd"/>
<path d="M292.00 210.40v-21.00" class="stroke"/>
<use x="321.00" y="207.40" xlink:href="#hd"/>
<path d="M324.50 207.40v-21.00" class="stroke"/>
<use x="353.70" y="204.40" xlink:href="#hd"/>
<path d="M350.20 204.40v21.00" class="stroke"/>
<use x="390.70" y="201.40" xlink:href="#Hd"/>
<circle class="fill" cx="399.40" cy="198.40" r="1.2"/>
<path d="M387.20 201.40v21.00" class="stroke"/>
<use x="443.20" y="204.40" xlink:href="#hd"/>
<path d="M439.70 204.40v21.00" class="stroke"/>
<use x="480.20" y="207.40" xlink:href="#Hd"/>
<path d="M476.70 207.40v21.00" class="stroke"/>
<defs>
<rect id="r2" class="fill"
	x="-3.5" y="-3" width="7" height="3"/>
</defs>
<use x="526.10" y="207.40" xlink:href="#r2"/>
<use x="570.90" y="207.40" xlink:href="#hd"/>
<path d="M567.40 207.40v21.00" class="stroke"/>
<use x="603.40" y="210.40" xlink:href="#hd"/>
<path d="M606.90 210.40v-21.00" class="stroke"/>
<use x="636.00" y="207.40" xlink:href="#hd"/>
<path d="M639.50 207.40v-21.00" class="stroke"/>
<use x="668.60" y="204.40" xlink:href="#hd"/>
<path d="M665.10 204.40v21.00" class="stroke"/>
<use x="22.00" y="259.40" xlink:href="#bclef"/>
<use x="37.00" y="259.40" xlink:href="#sh0"/>
<use x="55.00" y="268.40" xlink:href="#hd"/>
<path d="M58.50 268.40v-21.00" class="stroke"/>
<use x="87.60" y="262.40" xlink:href="#hd"/>
<path d="M84.10 262.40v21.00" class="stroke"/>
<use x="120.10" y="256.40" xlink:href="#Hd"/>
<path d="M116.60 256.40v21.00" class="stroke"/>
<use x="167.50" y="283.40" xlink:href="#hl1"/>
<use x="167.50" y="289.40" xlink:href="#hl1"/>
<use x="167.50" y="295.40" xlink:href="#hl1"/>
<use x="167.50" y="298.40" xlink:href="#HD"/>
<use x="167.50" y="277.40" xlink:href="#HD"/>
<use x="167.50" y="271.40" xlink:href="#HD"/>
<use x="167.50" y="265.40" xlink:href="#HD"/>
<use x="257.00" y="283.40" xlink:href="#hl1"/>
<use x="257.00" y="283.40" xlink:href="#HD"/>
<use x="257.00" y="262.40" xlink:href="#HD"/>
<use x="257.00" y="256.40" xlink:href="#HD"/>
<use x="257.00" y="250.40" xlink:href="#HD"/>
<use x="391.70" y="283.40" xlink:href="#hl1"/>
<use x="391.70" y="286.40" xlink:href="#HD"/>
<use x="391.70" y="265.40" xlink:href="#HD"/>
<use x="391.70" y="259.40" xlink:href="#HD"/>
<use x="391.70" y="253.40" xlink:href="#HD"/>
<use x="481.20" y="283.40" xlink:href="#hl1"/>
<use x="481.20" y="286.40" xlink:href="#HD"/>
<use x="481.20" y="265.40" xlink:href="#HD"/>
<use x="481.20" y="259.40" xlink:href="#HD"/>
<use x="481.20" y="253.40" xlink:href="#HD"/>
<use x="570.90" y="277.40" xlink:href="#hd"/>
<path d="M574.40 277.40v-21.00" class="stroke"/>
<use x="603.40" y="271.40" xlink:href="#hd"/>
<path d="M606.90 271.40v-21.00" class="stroke"/>
<use x="636.00" y="265.40" xlink:href="#hd"/>
<path d="M639.50 265.40v-21.00" class="stroke"/>
<use x="668.60" y="271.40" xlink:href="#hd"/>
<path d="M672.10 271.40v-21.00" class="stroke"/>
</g>
<g stroke-width="0.70" style="font:bold 13.00px Times">
<path class="stroke" stroke-width="1"
	d="M10.00 409.40v-82.00"/>
<g transform="translate(10.00,327.40) scale(1,0.82)">
	<use xlink:href="#brace"/>
</g>
<path class="stroke" stroke-width="1"
	d="M165.30 351.40v-24.00"/>
<path class="stroke" stroke-width="1"
	d="M165.30 409.40v-24.00"/>
<path class="stroke" stroke-width="1"
	d="M288.10 351.40v-24.00"/>
<path class="stroke" stroke-width="1"
	d="M288.10 409.40v-24.00"/>
<path class="stroke" stroke-width="1"
	d="M412.00 351.40v-24.00"/>
<path class="stroke" stroke-width="1"
	d="M412.00 409.40v-24.00"/>
<path class="stroke" stroke-width="1"
	d="M534.90 351.40v-24.00"/>
<path class="stroke" stroke-width="1"
	d="M534.90 409.40v-24.00"/>
<path class="stroke" stroke-width="1"
	d="M636.10 351.40v-24.00"/>
<path class="stroke" stroke-width="1"
	d="M636.10 409.40v-24.00"/>
<path class="stroke" stroke-width="1"
	d="M691.60 351.40v-24.00"/>
<path class="stroke" stroke-width="1"
	d="M691.60 409.40v-24.00"/>
<path d="m10.00 351.40
	h681.60
	M10.00 345.40
	h681.60
	M10.00 339.40
	h681.60
	M10.00 333.40
	h681.60
	M10.00 327.40
	h681.60
	" class="stroke"/>
<path d="m10.00 409.40
	h681.60
	M10.00 403.40
	h681.60
	M10.00 397.40
	h681.60
	M10.00 391.40
	h681.60
	M10.00 385.40
	h681.60
	" class="stroke"/>
</g>
<g stroke-width="0.70" style="font:bold 13.00px Times">
<text x="51.70" y="322.80">I<tspan
	 style="font:italic 11.00px Times">⁷</tspan></text>
</g>
<g stroke-width="0.70" style="font:bold 13.00px Times">
<text x="174.00" y="322.80">vi</text>
</g>
<g stroke-width="0.70" style="font:bold 13.00px Times">
<text x="294.30" y="322.80">IV<tspan
	 style="font:italic 11.00px Times">⁷</tspan></text>
</g>
<g stroke-width="0.70" style="font:bold 13.00px Times">
<text x="419.20" y="317.80">IV</text>
</g>
<g stroke-width="0.70" style="font:bold 13.00px Times">
<text x="543.50" y="320.80">V</text>
</g>
<g stroke-width="0.70" style="font:bold 13.00px Times">
<text x="648.30" y="320.80">I</text>
<use x="22.00" y="345.40" xlink:href="#tclef"/>
<use x="37.00" y="327.40" xlink:href="#sh0"/>
<use x="55.50" y="333.40" xlink:href="#Hd"/>
<circle class="fill" cx="65.20" cy="330.40" r="1.2"/>
<path d="M52.00 333.40v21.00" class="stroke"/>
<use x="144.20" y="336.40" xlink:href="#hd"/>
<path d="M140.70 336.40v21.00" class="stroke"/>
<use x="178.30" y="339.40" xlink:href="#Hd"/>
<path d="M174.80 339.40v21.00" class="stroke"/>
<use x="237.40" y="339.40" xlink:href="#r2"/>
<defs>
<rect id="r1" class="fill"
	x="-3.5" y="-6" width="7" height="3"/>
</defs>
<use x="350.00" y="339.40" xlink:href="#r1"/>
<use x="425.00" y="345.40" xlink:href="#Hd"/>
<path d="M428.50 345.40v-21.00" class="stroke"/>
<use x="484.30" y="330.40" xlink:href="#Hd"/>
<path d="M480.80 330.40v21.00" class="stroke"/>
<use x="547.40" y="333.40" xlink:href="#hd"/>
<path d="M543.90 333.40v21.00" class="stroke"/>
<use x="577.00" y="339.40" xlink:href="#hd"/>
<path d="M573.50 339.40v21.00" class="stroke"/>
<use x="606.60" y="342.40" xlink:href="#Hd"/>
<path d="M610.10 342.40v-21.00" class="stroke"/>
<use x="651.10" y="345.40" xlink:href="#HD"/>
<use x="22.00" y="391.40" xlink:href="#bclef"/>
<use x="37.00" y="391.40" xlink:href="#sh0"/>
<use x="55.50" y="409.40" xlink:href="#hd"/>
<path d="M59.00 409.40v-21.00" class="stroke"/>
<use x="85.10" y="403.40" xlink:href="#hd"/>
<path d="M88.60 403.40v-21.00" class="stroke"/>
<use x="114.60" y="397.40" xlink:href="#hd"/>
<path d="M118.10 397.40v-21.00" class="stroke"/>
<use x="144.20" y="403.40" xlink:href="#hd"/>
<path d="M147.70 403.40v-21.00" class="stroke"/>
<use x="178.30" y="394.40" xlink:href="#hd"/>
<path d="M174.80 394.40v21.00" class="stroke"/>
<use x="207.90" y="388.40" xlink:href="#hd"/>
<path d="M204.40 388.40v21.00" class="stroke"/>
<use x="237.40" y="382.40" xlink:href="#hd"/>
<path d="M233.90 382.40v21.00" class="stroke"/>
<use x="267.00" y="388.40" xlink:href="#hd"/>
<path d="M263.50 388.40v21.00" class="stroke"/>
<use x="302.10" y="400.40" xlink:href="#hd"/>
<path d="M305.60 400.40v-21.00" class="stroke"/>
<use x="331.80" y="394.40" xlink:href="#hd"/>
<path d="M328.30 394.40v21.00" class="stroke"/>
<use x="361.40" y="388.40" xlink:href="#hd"/>
<path d="M357.90 388.40v21.00" class="stroke"/>
<use x="390.90" y="394.40" xlink:href="#hd"/>
<path d="M387.40 394.40v21.00" class="stroke"/>
<use x="425.00" y="400.40" xlink:href="#hd"/>
<path d="M428.50 400.40v-21.00" class="stroke"/>
<use x="454.70" y="394.40" xlink:href="#hd"/>
<path d="M451.20 394.40v21.00" class="stroke"/>
<use x="484.30" y="388.40" xlink:href="#hd"/>
<path d="M480.80 388.40v21.00" class="stroke"/>
<use x="513.90" y="394.40" xlink:href="#hd"/>
<path d="M510.40 394.40v21.00" class="stroke"/>
<use x="547.40" y="397.40" xlink:href="#hd"/>
<path d="M543.90 397.40v21.00" class="stroke"/>
<use x="577.00" y="391.40" xlink:href="#hd"/>
<path d="M573.50 391.40v21.00" class="stroke"/>
<use x="606.60" y="385.40" xlink:href="#Hd"/>
<path d="M603.10 385.40v21.00" class="stroke"/>
<use x="651.10" y="415.40" xlink:href="#hl1"/>
<use x="651.10" y="421.40" xlink:href="#hl1"/>
<use x="651.10" y="427.40" xlink:href="#hl1"/>
<use x="651.10" y="430.40" xlink:href="#HD"/>
<use x="651.10" y="409.40" xlink:href="#HD"/>
<use x="651.10" y="403.40" xlink:href="#HD"/>
<use x="651.10" y="397.40" xlink:href="#HD"/>
</g>
</svg>
