<?xml version="1.0" standalone="no"?>
<!DOCTYPE svg PUBLIC "-//W3C//DTD SVG 1.1//EN"
	"http://www.w3.org/Graphics/SVG/1.1/DTD/svg11.dtd">
<svg xmlns="http://www.w3.org/2000/svg" version="1.1"
	xmlns:xlink="http://www.w3.org/1999/xlink"
	color="black"
	width="701.60px" height="436.40px" viewBox="0 0 701.60 436.40" preserveAspectRatio="xMidYMid meet">
<style type="text/css">
.fill {fill: currentColor}
.stroke {stroke: currentColor; fill: none}
text{white-space: pre}
</style>
<title>/tmp/retab_hymnal_L5/o_day_of_rest_and_gladness.abc (1) tune 1</title>
<!-- Creator: abcm2ps-8.14.11 -->
<!-- CreationDate: Apr 24, 2026 15:38 -->
<!-- CommandLine: /tmp/retab_hymnal_L5/o_day_of_rest_and_gladness.abc -g -O /tmp/retab_hymnal_L5/o_day_of_rest_and_gladness -->
<g stroke-width="0.70">
<!-- title: 174. O Day of Rest And Gladness -->
</g>
<g stroke-width="0.70" style="font:20.00px Times">
<text x="350.80" y="22.00" text-anchor="middle">174. O Day of Rest And Gladness</text>
</g>
<g stroke-width="0.70" style="font:20.00px Times">
<path class="stroke" stroke-width="1"
	d="M10.00 143.00v-82.00"/>
<defs>
<path id="brace" class="fill" d="m-2.5 101
	c-4.5 -4.6 -7.5 -12.2 -4.4 -26.8
	3.5 -14.3 3.2 -21.7 -2.1 -24.2
	7.4 2.4 7.3 14.2 3.5 29.5
	-2.7 9.5 -1.5 16.2 3 21.5
	M-2.5 1c-4.5 4.6 -7.5 12.2 -4.4 26.8
	c3.5 14.3 3.2 21.7 -2.1 24.2
	7.4 -2.4 7.3 -14.2 3.5 -29.5
	-2.7 -9.5 -1.5 -16.2 3 -21.5"/>
</defs>
<g transform="translate(10.00,61.00) scale(1,0.82)">
	<use xlink:href="#brace"/>
</g>
<path class="stroke" stroke-width="1"
	d="M172.00 85.00v-24.00"/>
<path class="stroke" stroke-width="1"
	d="M172.00 143.00v-24.00"/>
<path class="stroke" stroke-width="1"
	d="M282.50 85.00v-24.00"/>
<path class="stroke" stroke-width="1"
	d="M282.50 143.00v-24.00"/>
<path class="stroke" stroke-width="1"
	d="M395.70 85.00v-24.00"/>
<path class="stroke" stroke-width="1"
	d="M395.70 143.00v-24.00"/>
<path class="stroke" stroke-width="1"
	d="M467.60 85.00v-24.00"/>
<path class="stroke" stroke-width="1"
	d="M467.60 143.00v-24.00"/>
<path class="stroke" stroke-width="1"
	d="M581.00 85.00v-24.00"/>
<path class="stroke" stroke-width="1"
	d="M581.00 143.00v-24.00"/>
<path class="stroke" stroke-width="1"
	d="M691.60 85.00v-24.00"/>
<path class="stroke" stroke-width="1"
	d="M691.60 143.00v-24.00"/>
<path d="m10.00 85.00
	h681.60
	M10.00 79.00
	h681.60
	M10.00 73.00
	h681.60
	M10.00 67.00
	h681.60
	M10.00 61.00
	h681.60
	" class="stroke"/>
<path d="m10.00 143.00
	h681.60
	M10.00 137.00
	h681.60
	M10.00 131.00
	h681.60
	M10.00 125.00
	h681.60
	M10.00 119.00
	h681.60
	" class="stroke"/>
</g>
<g stroke-width="0.70" style="font:bold 13.00px Times">
<text x="70.70" y="51.40">I</text>
</g>
<g stroke-width="0.70" style="font:bold 13.00px Times">
<text x="182.00" y="51.40">V</text>
</g>
<g stroke-width="0.70" style="font:bold 13.00px Times">
<text x="292.70" y="56.40">I<tspan
	 style="font:italic 11.00px Times">¹</tspan></text>
</g>
<g stroke-width="0.70" style="font:bold 13.00px Times">
<text x="407.90" y="54.40">I</text>
</g>
<g stroke-width="0.70" style="font:bold 13.00px Times">
<text x="479.80" y="51.40">I</text>
</g>
<g stroke-width="0.70" style="font:bold 13.00px Times">
<text x="591.10" y="51.40">V</text>
<defs>
<path id="utclef" class="fill" d="m-50 -90
	c-72 -41 -72 -158 52 -188
	150 -10 220 188 90 256
	-114 52 -275 0 -293 -136
	-15 -181 93 -229 220 -334
	88 -87 79 -133 62 -210
	-51 33 -94 105 -89 186
	17 267 36 374 49 574
	6 96 -19 134 -77 135
	-80 1 -126 -93 -61 -133
	85 -41 133 101 31 105
	23 17 92 37 90 -92
	-10 -223 -39 -342 -50 -617
	0 -90 0 -162 96 -232
	56 72 63 230 22 289
	-74 106 -257 168 -255 316
	9 153 148 185 252 133
	86 -65 29 -192 -80 -176
	-71 12 -105 67 -59 124"/>
<use id="tclef" transform="translate(0,6) scale(0.045)"
	xlink:href="#utclef"/>
</defs>
<use x="22.00" y="79.00" xlink:href="#tclef"/>
<defs>
<path id="usharp" class="fill" d="
	m136 -702
	v890
	h32
	v-890
	m128 840
	h32
	v-888
	h-32
	m-232 286
	v116
	l338 -96
	v-116
	m-338 442
	v116
	l338 -98
	v-114"/>
<use id="sh0" transform="translate(-4,5) scale(0.018)"
	xlink:href="#usharp"/>
</defs>
<use x="37.00" y="61.00" xlink:href="#sh0"/>
<g style="font:bold 16px serif"
	transform="translate(53.00,84.50) scale(1.2,1)">
	<text text-anchor="middle">4</text>
	<text y="-12" text-anchor="middle">4</text>
</g>
<defs>
<ellipse id="hd" rx="4.1" ry="2.9"
	transform="rotate(-20)" class="fill"/>
</defs>
<use x="72.50" y="79.00" xlink:href="#hd"/>
<path d="M76.00 79.00v-21.00" class="stroke"/>
<use x="99.10" y="79.00" xlink:href="#hd"/>
<path d="M102.60 79.00v-21.00" class="stroke"/>
<use x="126.00" y="67.00" xlink:href="#hd"/>
<path d="M122.50 67.00v21.00" class="stroke"/>
<use x="152.60" y="73.00" xlink:href="#hd"/>
<path d="M149.10 73.00v21.00" class="stroke"/>
<use x="186.00" y="79.00" xlink:href="#hd"/>
<path d="M189.50 79.00v-21.00" class="stroke"/>
<use x="212.60" y="82.00" xlink:href="#hd"/>
<circle class="fill" cx="220.30" cy="82.00" r="1.2"/>
<path d="M216.10 82.00v-21.00" class="stroke"/>
<use x="243.60" y="79.00" xlink:href="#hd"/>
<path d="M247.10 79.00v-21.00" class="stroke"/>
<path class="fill"
	d="M247.10 58.00c0.6 5.6 9.6 9 5.6 18.4
	1.6 -6 -1.3 -11.6 -5.6 -12.8
"/>
<use x="263.20" y="76.00" xlink:href="#hd"/>
<path d="M266.70 76.00v-21.00" class="stroke"/>
<use x="296.50" y="88.00" xlink:href="#hd"/>
<path d="M300.00 88.00v-21.00" class="stroke"/>
<use x="323.10" y="85.00" xlink:href="#hd"/>
<path d="M326.60 85.00v-21.00" class="stroke"/>
<use x="349.80" y="79.00" xlink:href="#hd"/>
<path d="M353.30 79.00v-21.00" class="stroke"/>
<use x="376.40" y="79.00" xlink:href="#hd"/>
<path d="M379.90 79.00v-21.00" class="stroke"/>
<use x="409.70" y="82.00" xlink:href="#hd"/>
<path d="M413.20 82.00v-21.00" class="stroke"/>
<defs>
<path id="Hd" class="fill" d="m3 -1.6
	c-1 -1.8 -7 1.4 -6 3.2
	1 1.8 7 -1.4 6 -3.2
	m0.5 -0.3
	c2 3.8 -5 7.6 -7 3.8
	-2 -3.8 5 -7.6 7 -3.8"/>
</defs>
<use x="436.40" y="79.00" xlink:href="#Hd"/>
<circle class="fill" cx="445.10" cy="76.00" r="1.2"/>
<path d="M439.90 79.00v-21.00" class="stroke"/>
<use x="481.60" y="79.00" xlink:href="#hd"/>
<path d="M485.10 79.00v-21.00" class="stroke"/>
<use x="508.20" y="79.00" xlink:href="#hd"/>
<path d="M511.70 79.00v-21.00" class="stroke"/>
<use x="535.10" y="67.00" xlink:href="#hd"/>
<path d="M531.60 67.00v21.00" class="stroke"/>
<use x="561.70" y="73.00" xlink:href="#hd"/>
<path d="M558.20 73.00v21.00" class="stroke"/>
<use x="595.00" y="79.00" xlink:href="#hd"/>
<path d="M598.50 79.00v-21.00" class="stroke"/>
<use x="621.70" y="82.00" xlink:href="#hd"/>
<circle class="fill" cx="629.40" cy="82.00" r="1.2"/>
<path d="M625.20 82.00v-21.00" class="stroke"/>
<use x="652.70" y="79.00" xlink:href="#hd"/>
<path d="M656.20 79.00v-21.00" class="stroke"/>
<path class="fill"
	d="M656.20 58.00c0.6 5.6 9.6 9 5.6 18.4
	1.6 -6 -1.3 -11.6 -5.6 -12.8
"/>
<use x="672.30" y="76.00" xlink:href="#hd"/>
<path d="M675.80 76.00v-21.00" class="stroke"/>
<defs>
<path id="ubclef" class="fill" d="m-200 -87
	c124 -35 222 -78 254 -236
	43 -228 -167 -246 -192 -103
	59 -80 157 22 92 78
	-62 47 -115 -22 -106 -88
	21 -141 270 -136 274 52
	-1 175 -106 264 -322 297
	m357 -250
	c0 -36 51 -34 51 0
	0 37 -51 36 -51 0
	m-2 -129
	c0 -36 51 -34 51 0
	0 38 -51 37 -51 0"/>
<use id="bclef" transform="translate(0,18) scale(0.045)"
	xlink:href="#ubclef"/>
</defs>
<use x="22.00" y="125.00" xlink:href="#bclef"/>
<use x="37.00" y="125.00" xlink:href="#sh0"/>
<g style="font:bold 16px serif"
	transform="translate(53.00,142.50) scale(1.2,1)">
	<text text-anchor="middle">4</text>
	<text y="-12" text-anchor="middle">4</text>
</g>
<defs>
<path id="hl1" class="stroke" d="m-7 0h14"/>
</defs>
<use x="73.50" y="149.00" xlink:href="#hl1"/>
<use x="73.50" y="155.00" xlink:href="#hl1"/>
<use x="73.50" y="161.00" xlink:href="#hl1"/>
<defs>
<path id="HD" class="fill" d="m-2.7 -1.4
	c1.5 -2.8 6.9 0 5.3 2.7
	-1.5 2.8 -6.9 0 -5.3 -2.7
	m8.3 1.4
	c0 -1.5 -2.2 -3 -5.6 -3
	-3.4 0 -5.6 1.5 -5.6 3
	0 1.5 2.2 3 5.6 3
	3.4 0 5.6 -1.5 5.6 -3"/>
</defs>
<use x="73.50" y="164.00" xlink:href="#HD"/>
<use x="73.50" y="143.00" xlink:href="#HD"/>
<use x="73.50" y="137.00" xlink:href="#HD"/>
<use x="73.50" y="131.00" xlink:href="#HD"/>
<use x="187.00" y="149.00" xlink:href="#hl1"/>
<use x="187.00" y="152.00" xlink:href="#HD"/>
<use x="187.00" y="131.00" xlink:href="#HD"/>
<use x="187.00" y="125.00" xlink:href="#HD"/>
<use x="187.00" y="119.00" xlink:href="#HD"/>
<use x="297.50" y="149.00" xlink:href="#hl1"/>
<use x="297.50" y="155.00" xlink:href="#hl1"/>
<use x="297.50" y="161.00" xlink:href="#hl1"/>
<use x="297.50" y="164.00" xlink:href="#HD"/>
<use x="297.50" y="143.00" xlink:href="#HD"/>
<use x="297.50" y="137.00" xlink:href="#HD"/>
<use x="297.50" y="131.00" xlink:href="#HD"/>
<use x="410.70" y="149.00" xlink:href="#hl1"/>
<use x="410.70" y="155.00" xlink:href="#hl1"/>
<use x="410.70" y="161.00" xlink:href="#hl1"/>
<use x="410.70" y="164.00" xlink:href="#HD"/>
<use x="410.70" y="143.00" xlink:href="#HD"/>
<use x="410.70" y="137.00" xlink:href="#HD"/>
<use x="410.70" y="131.00" xlink:href="#HD"/>
<use x="482.60" y="149.00" xlink:href="#hl1"/>
<use x="482.60" y="155.00" xlink:href="#hl1"/>
<use x="482.60" y="161.00" xlink:href="#hl1"/>
<use x="482.60" y="164.00" xlink:href="#HD"/>
<use x="482.60" y="143.00" xlink:href="#HD"/>
<use x="482.60" y="137.00" xlink:href="#HD"/>
<use x="482.60" y="131.00" xlink:href="#HD"/>
<use x="596.00" y="149.00" xlink:href="#hl1"/>
<use x="596.00" y="152.00" xlink:href="#HD"/>
<use x="596.00" y="131.00" xlink:href="#HD"/>
<use x="596.00" y="125.00" xlink:href="#HD"/>
<use x="596.00" y="119.00" xlink:href="#HD"/>
</g>
<g stroke-width="0.70" style="font:bold 13.00px Times">
<path class="stroke" stroke-width="1"
	d="M10.00 277.40v-82.00"/>
<g transform="translate(10.00,195.40) scale(1,0.82)">
	<use xlink:href="#brace"/>
</g>
<path class="stroke" stroke-width="1"
	d="M159.50 219.40v-24.00"/>
<path class="stroke" stroke-width="1"
	d="M159.50 277.40v-24.00"/>
<path class="stroke" stroke-width="1"
	d="M233.30 219.40v-24.00"/>
<path class="stroke" stroke-width="1"
	d="M233.30 277.40v-24.00"/>
<path class="stroke" stroke-width="1"
	d="M364.70 219.40v-24.00"/>
<path class="stroke" stroke-width="1"
	d="M364.70 277.40v-24.00"/>
<path class="stroke" stroke-width="1"
	d="M480.20 219.40v-24.00"/>
<path class="stroke" stroke-width="1"
	d="M480.20 277.40v-24.00"/>
<path class="stroke" stroke-width="1"
	d="M595.90 219.40v-24.00"/>
<path class="stroke" stroke-width="1"
	d="M595.90 277.40v-24.00"/>
<path class="stroke" stroke-width="1"
	d="M691.60 219.40v-24.00"/>
<path class="stroke" stroke-width="1"
	d="M691.60 277.40v-24.00"/>
<path d="m10.00 219.40
	h681.60
	M10.00 213.40
	h681.60
	M10.00 207.40
	h681.60
	M10.00 201.40
	h681.60
	M10.00 195.40
	h681.60
	" class="stroke"/>
<path d="m10.00 277.40
	h681.60
	M10.00 271.40
	h681.60
	M10.00 265.40
	h681.60
	M10.00 259.40
	h681.60
	M10.00 253.40
	h681.60
	" class="stroke"/>
</g>
<g stroke-width="0.70" style="font:bold 13.00px Times">
<text x="52.70" y="190.80">I<tspan
	 style="font:italic 11.00px Times">¹</tspan></text>
</g>
<g stroke-width="0.70" style="font:bold 13.00px Times">
<text x="171.70" y="188.80">I</text>
</g>
<g stroke-width="0.70" style="font:bold 13.00px Times">
<text x="245.40" y="179.80">I</text>
</g>
<g stroke-width="0.70" style="font:bold 13.00px Times">
<text x="372.90" y="188.80">vi</text>
</g>
<g stroke-width="0.70" style="font:bold 13.00px Times">
<text x="486.90" y="190.80">IV</text>
</g>
<g stroke-width="0.70" style="font:bold 13.00px Times">
<text x="604.10" y="185.80">vi</text>
<use x="22.00" y="213.40" xlink:href="#tclef"/>
<use x="37.00" y="195.40" xlink:href="#sh0"/>
<use x="56.50" y="222.40" xlink:href="#hd"/>
<path d="M60.00 222.40v-21.00" class="stroke"/>
<use x="84.20" y="219.40" xlink:href="#hd"/>
<path d="M87.70 219.40v-21.00" class="stroke"/>
<use x="111.90" y="213.40" xlink:href="#hd"/>
<path d="M115.40 213.40v-21.00" class="stroke"/>
<use x="139.60" y="213.40" xlink:href="#hd"/>
<path d="M143.10 213.40v-21.00" class="stroke"/>
<use x="173.50" y="216.40" xlink:href="#hd"/>
<path d="M177.00 216.40v-21.00" class="stroke"/>
<use x="201.20" y="213.40" xlink:href="#Hd"/>
<circle class="fill" cx="209.90" cy="210.40" r="1.2"/>
<path d="M204.70 213.40v-21.00" class="stroke"/>
<use x="247.30" y="207.40" xlink:href="#hd"/>
<path d="M250.80 207.40v-21.00" class="stroke"/>
<use x="275.00" y="213.40" xlink:href="#hd"/>
<path d="M278.50 213.40v-21.00" class="stroke"/>
<use x="302.90" y="201.40" xlink:href="#hd"/>
<path d="M299.40 201.40v21.00" class="stroke"/>
<use x="330.60" y="201.40" xlink:href="#hd"/>
<path d="M327.10 201.40v21.00" class="stroke"/>
<path class="fill"
	d="M327.10 222.40c0.6 -5.6 9.6 -9 5.6 -18.4
	1.6 6 -1.3 11.6 -5.6 12.8
"/>
<use x="350.40" y="204.40" xlink:href="#hd"/>
<path d="M346.90 204.40v21.00" class="stroke"/>
<path class="fill"
	d="M346.90 225.40c0.6 -5.6 9.6 -9 5.6 -18.4
	1.6 6 -1.3 11.6 -5.6 12.8
"/>
<use x="377.20" y="207.40" xlink:href="#hd"/>
<path d="M373.70 207.40v21.00" class="stroke"/>
<use x="404.90" y="210.40" xlink:href="#Hd"/>
<path d="M408.40 210.40v-21.00" class="stroke"/>
<use x="460.30" y="210.40" xlink:href="#hd"/>
<path d="M463.80 210.40v-21.00" class="stroke"/>
<use x="492.70" y="204.40" xlink:href="#hd"/>
<path d="M489.20 204.40v21.00" class="stroke"/>
<use x="520.60" y="207.40" xlink:href="#hd"/>
<path d="M517.10 207.40v21.00" class="stroke"/>
<use x="548.30" y="210.40" xlink:href="#hd"/>
<path d="M551.80 210.40v-21.00" class="stroke"/>
<use x="576.00" y="207.40" xlink:href="#hd"/>
<path d="M579.50 207.40v-21.00" class="stroke"/>
<use x="608.40" y="213.40" xlink:href="#hd"/>
<path d="M611.90 213.40v-21.00" class="stroke"/>
<use x="636.10" y="210.40" xlink:href="#Hd"/>
<circle class="fill" cx="644.80" cy="210.40" r="1.2"/>
<path d="M639.60 210.40v-21.00" class="stroke"/>
<use x="22.00" y="259.40" xlink:href="#bclef"/>
<use x="37.00" y="259.40" xlink:href="#sh0"/>
<use x="57.50" y="283.40" xlink:href="#hl1"/>
<use x="57.50" y="289.40" xlink:href="#hl1"/>
<use x="57.50" y="295.40" xlink:href="#hl1"/>
<use x="57.50" y="298.40" xlink:href="#HD"/>
<use x="57.50" y="277.40" xlink:href="#HD"/>
<use x="57.50" y="271.40" xlink:href="#HD"/>
<use x="57.50" y="265.40" xlink:href="#HD"/>
<use x="174.50" y="283.40" xlink:href="#hl1"/>
<use x="174.50" y="289.40" xlink:href="#hl1"/>
<use x="174.50" y="295.40" xlink:href="#hl1"/>
<use x="174.50" y="298.40" xlink:href="#HD"/>
<use x="174.50" y="277.40" xlink:href="#HD"/>
<use x="174.50" y="271.40" xlink:href="#HD"/>
<use x="174.50" y="265.40" xlink:href="#HD"/>
<use x="248.30" y="283.40" xlink:href="#hl1"/>
<use x="248.30" y="289.40" xlink:href="#hl1"/>
<use x="248.30" y="295.40" xlink:href="#hl1"/>
<use x="248.30" y="298.40" xlink:href="#HD"/>
<use x="248.30" y="277.40" xlink:href="#HD"/>
<use x="248.30" y="271.40" xlink:href="#HD"/>
<use x="248.30" y="265.40" xlink:href="#HD"/>
<use x="377.20" y="262.40" xlink:href="#hd"/>
<path d="M373.70 262.40v21.00" class="stroke"/>
<use x="404.90" y="256.40" xlink:href="#hd"/>
<path d="M401.40 256.40v21.00" class="stroke"/>
<use x="432.60" y="250.40" xlink:href="#hd"/>
<path d="M429.10 250.40v21.00" class="stroke"/>
<use x="460.30" y="256.40" xlink:href="#hd"/>
<path d="M456.80 256.40v21.00" class="stroke"/>
<use x="492.70" y="268.40" xlink:href="#hd"/>
<path d="M496.20 268.40v-21.00" class="stroke"/>
<use x="520.60" y="262.40" xlink:href="#hd"/>
<path d="M517.10 262.40v21.00" class="stroke"/>
<use x="548.30" y="256.40" xlink:href="#hd"/>
<path d="M544.80 256.40v21.00" class="stroke"/>
<use x="576.00" y="262.40" xlink:href="#hd"/>
<path d="M572.50 262.40v21.00" class="stroke"/>
<use x="608.40" y="262.40" xlink:href="#hd"/>
<path d="M604.90 262.40v21.00" class="stroke"/>
<use x="636.10" y="256.40" xlink:href="#hd"/>
<path d="M632.60 256.40v21.00" class="stroke"/>
<use x="663.90" y="250.40" xlink:href="#Hd"/>
<path d="M660.40 250.40v21.00" class="stroke"/>
</g>
<g stroke-width="0.70" style="font:bold 13.00px Times">
<path class="stroke" stroke-width="1"
	d="M10.00 409.40v-82.00"/>
<g transform="translate(10.00,327.40) scale(1,0.82)">
	<use xlink:href="#brace"/>
</g>
<path class="stroke" stroke-width="1"
	d="M219.40 351.40v-24.00"/>
<path class="stroke" stroke-width="1"
	d="M219.40 409.40v-24.00"/>
<path class="stroke" stroke-width="1"
	d="M395.90 351.40v-24.00"/>
<path class="stroke" stroke-width="1"
	d="M395.90 409.40v-24.00"/>
<path class="stroke" stroke-width="1"
	d="M579.30 351.40v-24.00"/>
<path class="stroke" stroke-width="1"
	d="M579.30 409.40v-24.00"/>
<path class="stroke" stroke-width="1"
	d="M691.60 351.40v-24.00"/>
<path class="stroke" stroke-width="1"
	d="M691.60 409.40v-24.00"/>
<path d="m10.00 351.40
	h681.60
	M10.00 345.40
	h681.60
	M10.00 339.40
	h681.60
	M10.00 333.40
	h681.60
	M10.00 327.40
	h681.60
	" class="stroke"/>
<path d="m10.00 409.40
	h681.60
	M10.00 403.40
	h681.60
	M10.00 397.40
	h681.60
	M10.00 391.40
	h681.60
	M10.00 385.40
	h681.60
	" class="stroke"/>
</g>
<g stroke-width="0.70" style="font:bold 13.00px Times">
<text x="52.70" y="322.80">I<tspan
	 style="font:italic 11.00px Times">¹</tspan></text>
</g>
<g stroke-width="0.70" style="font:bold 13.00px Times">
<text x="231.50" y="317.80">V</text>
</g>
<g stroke-width="0.70" style="font:bold 13.00px Times">
<text x="408.10" y="322.80">I<tspan
	 style="font:italic 11.00px Times">¹</tspan></text>
</g>
<g stroke-width="0.70" style="font:bold 13.00px Times">
<text x="593.50" y="320.80">I</text>
<use x="22.00" y="345.40" xlink:href="#tclef"/>
<use x="37.00" y="327.40" xlink:href="#sh0"/>
<use x="56.50" y="333.40" xlink:href="#hd"/>
<path d="M53.00 333.40v21.00" class="stroke"/>
<use x="101.80" y="336.40" xlink:href="#hd"/>
<path d="M98.30 336.40v21.00" class="stroke"/>
<use x="147.00" y="339.40" xlink:href="#hd"/>
<path d="M143.50 339.40v21.00" class="stroke"/>
<use x="187.70" y="342.40" xlink:href="#hd"/>
<path d="M191.20 342.40v-21.00" class="stroke"/>
<use x="235.40" y="345.40" xlink:href="#hd"/>
<path d="M238.90 345.40v-21.00" class="stroke"/>
<use x="280.70" y="348.40" xlink:href="#hd"/>
<circle class="fill" cx="288.40" cy="348.40" r="1.2"/>
<path d="M284.20 348.40v-21.00" class="stroke"/>
<use x="332.20" y="345.40" xlink:href="#hd"/>
<path d="M335.70 345.40v-21.00" class="stroke"/>
<path class="fill"
	d="M335.70 324.40c0.6 5.6 9.6 9 5.6 18.4
	1.6 -6 -1.3 -11.6 -5.6 -12.8
"/>
<use x="364.20" y="342.40" xlink:href="#hd"/>
<path d="M367.70 342.40v-21.00" class="stroke"/>
<use x="411.90" y="354.40" xlink:href="#hd"/>
<path d="M415.40 354.40v-21.00" class="stroke"/>
<use x="457.10" y="351.40" xlink:href="#hd"/>
<path d="M460.60 351.40v-21.00" class="stroke"/>
<use x="502.40" y="345.40" xlink:href="#hd"/>
<path d="M505.90 345.40v-21.00" class="stroke"/>
<use x="547.70" y="345.40" xlink:href="#hd"/>
<path d="M551.20 345.40v-21.00" class="stroke"/>
<use x="595.30" y="348.40" xlink:href="#hd"/>
<path d="M598.80 348.40v-21.00" class="stroke"/>
<use x="640.60" y="345.40" xlink:href="#Hd"/>
<circle class="fill" cx="649.30" cy="342.40" r="1.2"/>
<path d="M644.10 345.40v-21.00" class="stroke"/>
<use x="22.00" y="391.40" xlink:href="#bclef"/>
<use x="37.00" y="391.40" xlink:href="#sh0"/>
<use x="57.50" y="415.40" xlink:href="#hl1"/>
<use x="57.50" y="421.40" xlink:href="#hl1"/>
<use x="57.50" y="427.40" xlink:href="#hl1"/>
<use x="57.50" y="430.40" xlink:href="#HD"/>
<use x="57.50" y="409.40" xlink:href="#HD"/>
<use x="57.50" y="403.40" xlink:href="#HD"/>
<use x="57.50" y="397.40" xlink:href="#HD"/>
<use x="236.40" y="415.40" xlink:href="#hl1"/>
<use x="236.40" y="418.40" xlink:href="#HD"/>
<use x="236.40" y="397.40" xlink:href="#HD"/>
<use x="236.40" y="391.40" xlink:href="#HD"/>
<use x="236.40" y="385.40" xlink:href="#HD"/>
<use x="411.90" y="409.40" xlink:href="#hd"/>
<path d="M415.40 409.40v-21.00" class="stroke"/>
<use x="457.10" y="403.40" xlink:href="#hd"/>
<path d="M460.60 403.40v-21.00" class="stroke"/>
<use x="502.40" y="397.40" xlink:href="#Hd"/>
<path d="M505.90 397.40v-21.00" class="stroke"/>
<use x="596.30" y="415.40" xlink:href="#hl1"/>
<use x="596.30" y="421.40" xlink:href="#hl1"/>
<use x="596.30" y="427.40" xlink:href="#hl1"/>
<use x="596.30" y="430.40" xlink:href="#HD"/>
<use x="596.30" y="409.40" xlink:href="#HD"/>
<use x="596.30" y="403.40" xlink:href="#HD"/>
<use x="596.30" y="397.40" xlink:href="#HD"/>
</g>
</svg>
