<?xml version="1.0" standalone="no"?>
<!DOCTYPE svg PUBLIC "-//W3C//DTD SVG 1.1//EN"
	"http://www.w3.org/Graphics/SVG/1.1/DTD/svg11.dtd">
<svg xmlns="http://www.w3.org/2000/svg" version="1.1"
	xmlns:xlink="http://www.w3.org/1999/xlink"
	color="black"
	width="701.60px" height="450.40px" viewBox="0 0 701.60 450.40" preserveAspectRatio="xMidYMid meet">
<style type="text/css">
.fill {fill: currentColor}
.stroke {stroke: currentColor; fill: none}
text{white-space: pre}
</style>
<title>/tmp/retab_hymnal_L5/o_father_all_creating.abc (1) tune 1</title>
<!-- Creator: abcm2ps-8.14.11 -->
<!-- CreationDate: Apr 24, 2026 15:38 -->
<!-- CommandLine: /tmp/retab_hymnal_L5/o_father_all_creating.abc -g -O /tmp/retab_hymnal_L5/o_father_all_creating -->
<g stroke-width="0.70">
<!-- title: 175. O Father, All Creating -->
</g>
<g stroke-width="0.70" style="font:20.00px Times">
<text x="350.80" y="22.00" text-anchor="middle">175. O Father, All Creating</text>
</g>
<g stroke-width="0.70" style="font:20.00px Times">
<path class="stroke" stroke-width="1"
	d="M10.00 143.00v-82.00"/>
<defs>
<path id="brace" class="fill" d="m-2.5 101
	c-4.5 -4.6 -7.5 -12.2 -4.4 -26.8
	3.5 -14.3 3.2 -21.7 -2.1 -24.2
	7.4 2.4 7.3 14.2 3.5 29.5
	-2.7 9.5 -1.5 16.2 3 21.5
	M-2.5 1c-4.5 4.6 -7.5 12.2 -4.4 26.8
	c3.5 14.3 3.2 21.7 -2.1 24.2
	7.4 -2.4 7.3 -14.2 3.5 -29.5
	-2.7 -9.5 -1.5 -16.2 3 -21.5"/>
</defs>
<g transform="translate(10.00,61.00) scale(1,0.82)">
	<use xlink:href="#brace"/>
</g>
<path class="stroke" stroke-width="1"
	d="M176.10 85.00v-24.00"/>
<path class="stroke" stroke-width="1"
	d="M176.10 143.00v-24.00"/>
<path class="stroke" stroke-width="1"
	d="M286.80 85.00v-24.00"/>
<path class="stroke" stroke-width="1"
	d="M286.80 143.00v-24.00"/>
<path class="stroke" stroke-width="1"
	d="M397.40 85.00v-24.00"/>
<path class="stroke" stroke-width="1"
	d="M397.40 143.00v-24.00"/>
<path class="stroke" stroke-width="1"
	d="M468.60 85.00v-24.00"/>
<path class="stroke" stroke-width="1"
	d="M468.60 143.00v-24.00"/>
<path class="stroke" stroke-width="1"
	d="M580.90 85.00v-24.00"/>
<path class="stroke" stroke-width="1"
	d="M580.90 143.00v-24.00"/>
<path class="stroke" stroke-width="1"
	d="M691.60 85.00v-24.00"/>
<path class="stroke" stroke-width="1"
	d="M691.60 143.00v-24.00"/>
<path d="m10.00 85.00
	h681.60
	M10.00 79.00
	h681.60
	M10.00 73.00
	h681.60
	M10.00 67.00
	h681.60
	M10.00 61.00
	h681.60
	" class="stroke"/>
<path d="m10.00 143.00
	h681.60
	M10.00 137.00
	h681.60
	M10.00 131.00
	h681.60
	M10.00 125.00
	h681.60
	M10.00 119.00
	h681.60
	" class="stroke"/>
</g>
<g stroke-width="0.70" style="font:bold 13.00px Times">
<text x="76.20" y="54.40">I</text>
</g>
<g stroke-width="0.70" style="font:bold 13.00px Times">
<text x="186.80" y="54.40">I</text>
</g>
<g stroke-width="0.70" style="font:bold 13.00px Times">
<text x="295.50" y="54.40">I<tspan
	 style="font:italic 11.00px Times">¹</tspan></text>
</g>
<g stroke-width="0.70" style="font:bold 13.00px Times">
<text x="409.60" y="51.40">I</text>
</g>
<g stroke-width="0.70" style="font:bold 13.00px Times">
<text x="476.70" y="51.40">V<tspan
	 style="font:italic 11.00px Times">²</tspan></text>
</g>
<g stroke-width="0.70" style="font:bold 13.00px Times">
<text x="586.90" y="56.40">iii<tspan
	 style="font:italic 11.00px Times">⁷</tspan></text>
</g>
<g stroke-width="0.70" style="font:italic 11.00px Times">
<defs>
<path id="utclef" class="fill" d="m-50 -90
	c-72 -41 -72 -158 52 -188
	150 -10 220 188 90 256
	-114 52 -275 0 -293 -136
	-15 -181 93 -229 220 -334
	88 -87 79 -133 62 -210
	-51 33 -94 105 -89 186
	17 267 36 374 49 574
	6 96 -19 134 -77 135
	-80 1 -126 -93 -61 -133
	85 -41 133 101 31 105
	23 17 92 37 90 -92
	-10 -223 -39 -342 -50 -617
	0 -90 0 -162 96 -232
	56 72 63 230 22 289
	-74 106 -257 168 -255 316
	9 153 148 185 252 133
	86 -65 29 -192 -80 -176
	-71 12 -105 67 -59 124"/>
<use id="tclef" transform="translate(0,6) scale(0.045)"
	xlink:href="#utclef"/>
</defs>
<use x="22.00" y="79.00" xlink:href="#tclef"/>
<defs>
<path id="usharp" class="fill" d="
	m136 -702
	v890
	h32
	v-890
	m128 840
	h32
	v-888
	h-32
	m-232 286
	v116
	l338 -96
	v-116
	m-338 442
	v116
	l338 -98
	v-114"/>
<use id="sh0" transform="translate(-4,5) scale(0.018)"
	xlink:href="#usharp"/>
</defs>
<use x="37.00" y="61.00" xlink:href="#sh0"/>
<use x="42.50" y="70.00" xlink:href="#sh0"/>
<g style="font:bold 16px serif"
	transform="translate(58.50,84.50) scale(1.2,1)">
	<text text-anchor="middle">4</text>
	<text y="-12" text-anchor="middle">4</text>
</g>
<defs>
<ellipse id="hd" rx="4.1" ry="2.9"
	transform="rotate(-20)" class="fill"/>
</defs>
<use x="78.00" y="82.00" xlink:href="#hd"/>
<path d="M81.50 82.00v-21.00" class="stroke"/>
<use x="104.30" y="82.00" xlink:href="#hd"/>
<path d="M107.80 82.00v-21.00" class="stroke"/>
<use x="130.70" y="82.00" xlink:href="#hd"/>
<path d="M134.20 82.00v-21.00" class="stroke"/>
<use x="157.00" y="79.00" xlink:href="#hd"/>
<path d="M160.50 79.00v-21.00" class="stroke"/>
<use x="188.60" y="82.00" xlink:href="#hd"/>
<path d="M192.10 82.00v-21.00" class="stroke"/>
<defs>
<path id="Hd" class="fill" d="m3 -1.6
	c-1 -1.8 -7 1.4 -6 3.2
	1 1.8 7 -1.4 6 -3.2
	m0.5 -0.3
	c2 3.8 -5 7.6 -7 3.8
	-2 -3.8 5 -7.6 7 -3.8"/>
</defs>
<use x="215.00" y="82.00" xlink:href="#Hd"/>
<path d="M218.50 82.00v-21.00" class="stroke"/>
<use x="267.70" y="85.00" xlink:href="#hd"/>
<path d="M271.20 85.00v-21.00" class="stroke"/>
<use x="299.30" y="88.00" xlink:href="#hd"/>
<path d="M302.80 88.00v-21.00" class="stroke"/>
<use x="325.60" y="88.00" xlink:href="#hd"/>
<path d="M329.10 88.00v-21.00" class="stroke"/>
<use x="352.00" y="73.00" xlink:href="#hd"/>
<path d="M355.50 73.00v-21.00" class="stroke"/>
<use x="378.30" y="76.00" xlink:href="#hd"/>
<path d="M381.80 76.00v-21.00" class="stroke"/>
<use x="411.40" y="79.00" xlink:href="#hd"/>
<path d="M414.90 79.00v-21.00" class="stroke"/>
<use x="437.80" y="82.00" xlink:href="#Hd"/>
<circle class="fill" cx="446.50" cy="82.00" r="1.2"/>
<path d="M441.30 82.00v-21.00" class="stroke"/>
<use x="482.60" y="79.00" xlink:href="#hd"/>
<path d="M486.10 79.00v-21.00" class="stroke"/>
<use x="508.90" y="76.00" xlink:href="#hd"/>
<path d="M512.40 76.00v-21.00" class="stroke"/>
<use x="535.50" y="67.00" xlink:href="#hd"/>
<path d="M532.00 67.00v21.00" class="stroke"/>
<use x="561.90" y="67.00" xlink:href="#hd"/>
<path d="M558.40 67.00v21.00" class="stroke"/>
<use x="593.40" y="70.00" xlink:href="#hd"/>
<path d="M589.90 70.00v21.00" class="stroke"/>
<use x="619.80" y="70.00" xlink:href="#Hd"/>
<path d="M616.30 70.00v21.00" class="stroke"/>
<use x="672.50" y="73.00" xlink:href="#hd"/>
<path d="M669.00 73.00v21.00" class="stroke"/>
<defs>
<path id="ubclef" class="fill" d="m-200 -87
	c124 -35 222 -78 254 -236
	43 -228 -167 -246 -192 -103
	59 -80 157 22 92 78
	-62 47 -115 -22 -106 -88
	21 -141 270 -136 274 52
	-1 175 -106 264 -322 297
	m357 -250
	c0 -36 51 -34 51 0
	0 37 -51 36 -51 0
	m-2 -129
	c0 -36 51 -34 51 0
	0 38 -51 37 -51 0"/>
<use id="bclef" transform="translate(0,18) scale(0.045)"
	xlink:href="#ubclef"/>
</defs>
<use x="22.00" y="125.00" xlink:href="#bclef"/>
<use x="37.00" y="125.00" xlink:href="#sh0"/>
<use x="42.50" y="134.00" xlink:href="#sh0"/>
<g style="font:bold 16px serif"
	transform="translate(58.50,142.50) scale(1.2,1)">
	<text text-anchor="middle">4</text>
	<text y="-12" text-anchor="middle">4</text>
</g>
<defs>
<path id="hl1" class="stroke" d="m-7 0h14"/>
</defs>
<use x="79.00" y="149.00" xlink:href="#hl1"/>
<use x="79.00" y="155.00" xlink:href="#hl1"/>
<use x="79.00" y="161.00" xlink:href="#hl1"/>
<use x="79.00" y="167.00" xlink:href="#hl1"/>
<use x="79.00" y="173.00" xlink:href="#hl1"/>
<defs>
<path id="HD" class="fill" d="m-2.7 -1.4
	c1.5 -2.8 6.9 0 5.3 2.7
	-1.5 2.8 -6.9 0 -5.3 -2.7
	m8.3 1.4
	c0 -1.5 -2.2 -3 -5.6 -3
	-3.4 0 -5.6 1.5 -5.6 3
	0 1.5 2.2 3 5.6 3
	3.4 0 5.6 -1.5 5.6 -3"/>
</defs>
<use x="79.00" y="173.00" xlink:href="#HD"/>
<use x="79.00" y="152.00" xlink:href="#HD"/>
<use x="79.00" y="146.00" xlink:href="#HD"/>
<use x="79.00" y="140.00" xlink:href="#HD"/>
<defs>
<path id="hl" class="stroke" d="m-6 0h12"/>
</defs>
<use x="188.60" y="149.00" xlink:href="#hl"/>
<use x="188.60" y="152.00" xlink:href="#hd"/>
<path d="M192.10 152.00v-21.00" class="stroke"/>
<use x="215.00" y="146.00" xlink:href="#hd"/>
<path d="M218.50 146.00v-21.00" class="stroke"/>
<use x="241.30" y="140.00" xlink:href="#hd"/>
<path d="M244.80 140.00v-21.00" class="stroke"/>
<use x="267.70" y="146.00" xlink:href="#hd"/>
<path d="M271.20 146.00v-21.00" class="stroke"/>
<use x="299.30" y="149.00" xlink:href="#hl"/>
<use x="299.30" y="152.00" xlink:href="#hd"/>
<path d="M302.80 152.00v-21.00" class="stroke"/>
<use x="325.60" y="146.00" xlink:href="#hd"/>
<path d="M329.10 146.00v-21.00" class="stroke"/>
<use x="352.00" y="140.00" xlink:href="#Hd"/>
<path d="M355.50 140.00v-21.00" class="stroke"/>
<use x="412.40" y="149.00" xlink:href="#hl1"/>
<use x="412.40" y="155.00" xlink:href="#hl1"/>
<use x="412.40" y="161.00" xlink:href="#hl1"/>
<use x="412.40" y="167.00" xlink:href="#hl1"/>
<use x="412.40" y="173.00" xlink:href="#hl1"/>
<use x="412.40" y="173.00" xlink:href="#HD"/>
<use x="412.40" y="152.00" xlink:href="#HD"/>
<use x="412.40" y="146.00" xlink:href="#HD"/>
<use x="412.40" y="140.00" xlink:href="#HD"/>
<use x="483.60" y="149.00" xlink:href="#hl1"/>
<use x="483.60" y="155.00" xlink:href="#hl1"/>
<use x="483.60" y="161.00" xlink:href="#hl1"/>
<use x="483.60" y="161.00" xlink:href="#HD"/>
<use x="483.60" y="140.00" xlink:href="#HD"/>
<use x="483.60" y="134.00" xlink:href="#HD"/>
<use x="483.60" y="128.00" xlink:href="#HD"/>
<use x="593.40" y="146.00" xlink:href="#hd"/>
<path d="M596.90 146.00v-21.00" class="stroke"/>
<use x="619.80" y="140.00" xlink:href="#hd"/>
<path d="M623.30 140.00v-21.00" class="stroke"/>
<use x="646.20" y="134.00" xlink:href="#hd"/>
<path d="M649.70 134.00v-21.00" class="stroke"/>
<use x="672.50" y="140.00" xlink:href="#hd"/>
<path d="M676.00 140.00v-21.00" class="stroke"/>
</g>
<g stroke-width="0.70" style="font:italic 11.00px Times">
<path class="stroke" stroke-width="1"
	d="M10.00 286.40v-82.00"/>
<g transform="translate(10.00,204.40) scale(1,0.82)">
	<use xlink:href="#brace"/>
</g>
<path class="stroke" stroke-width="1"
	d="M174.80 228.40v-24.00"/>
<path class="stroke" stroke-width="1"
	d="M174.80 286.40v-24.00"/>
<path class="stroke" stroke-width="1"
	d="M298.60 228.40v-24.00"/>
<path class="stroke" stroke-width="1"
	d="M298.60 286.40v-24.00"/>
<path class="stroke" stroke-width="1"
	d="M425.30 228.40v-24.00"/>
<path class="stroke" stroke-width="1"
	d="M425.30 286.40v-24.00"/>
<path class="stroke" stroke-width="1"
	d="M552.00 228.40v-24.00"/>
<path class="stroke" stroke-width="1"
	d="M552.00 286.40v-24.00"/>
<path class="stroke" stroke-width="1"
	d="M691.60 228.40v-24.00"/>
<path class="stroke" stroke-width="1"
	d="M691.60 286.40v-24.00"/>
<path d="m10.00 228.40
	h681.60
	M10.00 222.40
	h681.60
	M10.00 216.40
	h681.60
	M10.00 210.40
	h681.60
	M10.00 204.40
	h681.60
	" class="stroke"/>
<path d="m10.00 286.40
	h681.60
	M10.00 280.40
	h681.60
	M10.00 274.40
	h681.60
	M10.00 268.40
	h681.60
	M10.00 262.40
	h681.60
	" class="stroke"/>
</g>
<g stroke-width="0.70" style="font:bold 13.00px Times">
<text x="54.60" y="191.80">V<tspan
	 style="font:italic 11.00px Times">⁷</tspan></text>
</g>
<g stroke-width="0.70" style="font:bold 13.00px Times">
<text x="183.40" y="197.80">V</text>
</g>
<g stroke-width="0.70" style="font:bold 13.00px Times">
<text x="309.20" y="199.80">I</text>
</g>
<g stroke-width="0.70" style="font:bold 13.00px Times">
<text x="432.00" y="188.80">IV</text>
</g>
<g stroke-width="0.70" style="font:bold 13.00px Times">
<text x="560.20" y="197.80">vi</text>
<use x="22.00" y="222.40" xlink:href="#tclef"/>
<use x="37.00" y="204.40" xlink:href="#sh0"/>
<use x="42.50" y="213.40" xlink:href="#sh0"/>
<use x="60.50" y="219.40" xlink:href="#hd"/>
<path d="M64.00 219.40v-21.00" class="stroke"/>
<use x="91.30" y="222.40" xlink:href="#hd"/>
<path d="M94.80 222.40v-21.00" class="stroke"/>
<use x="122.20" y="219.40" xlink:href="#hd"/>
<path d="M125.70 219.40v-21.00" class="stroke"/>
<use x="153.00" y="225.40" xlink:href="#hd"/>
<path d="M156.50 225.40v-21.00" class="stroke"/>
<use x="187.30" y="231.40" xlink:href="#hd"/>
<path d="M190.80 231.40v-21.00" class="stroke"/>
<use x="218.10" y="228.40" xlink:href="#Hd"/>
<circle class="fill" cx="226.80" cy="225.40" r="1.2"/>
<path d="M221.60 228.40v-21.00" class="stroke"/>
<use x="311.10" y="228.40" xlink:href="#hd"/>
<path d="M314.60 228.40v-21.00" class="stroke"/>
<use x="341.90" y="225.40" xlink:href="#hd"/>
<path d="M345.40 225.40v-21.00" class="stroke"/>
<use x="372.70" y="222.40" xlink:href="#hd"/>
<path d="M376.20 222.40v-21.00" class="stroke"/>
<use x="403.50" y="219.40" xlink:href="#hd"/>
<path d="M407.00 219.40v-21.00" class="stroke"/>
<use x="437.80" y="216.40" xlink:href="#hd"/>
<path d="M441.30 216.40v-21.00" class="stroke"/>
<use x="468.60" y="216.40" xlink:href="#Hd"/>
<path d="M472.10 216.40v-21.00" class="stroke"/>
<use x="530.20" y="219.40" xlink:href="#hd"/>
<path d="M533.70 219.40v-21.00" class="stroke"/>
<use x="564.50" y="210.40" xlink:href="#hd"/>
<path d="M561.00 210.40v21.00" class="stroke"/>
<use x="595.30" y="210.40" xlink:href="#hd"/>
<circle class="fill" cx="603.00" cy="207.40" r="1.2"/>
<path d="M591.80 210.40v21.00" class="stroke"/>
<use x="647.90" y="213.40" xlink:href="#hd"/>
<path d="M644.40 213.40v21.00" class="stroke"/>
<path class="fill"
	d="M644.40 234.40c0.6 -5.6 9.6 -9 5.6 -18.4
	1.6 6 -1.3 11.6 -5.6 12.8
"/>
<use x="669.80" y="216.40" xlink:href="#hd"/>
<path d="M666.30 216.40v21.00" class="stroke"/>
<use x="22.00" y="268.40" xlink:href="#bclef"/>
<use x="37.00" y="268.40" xlink:href="#sh0"/>
<use x="42.50" y="277.40" xlink:href="#sh0"/>
<use x="60.50" y="283.40" xlink:href="#hd"/>
<path d="M64.00 283.40v-21.00" class="stroke"/>
<use x="91.30" y="277.40" xlink:href="#hd"/>
<path d="M94.80 277.40v-21.00" class="stroke"/>
<use x="122.20" y="271.40" xlink:href="#hd"/>
<path d="M118.70 271.40v21.00" class="stroke"/>
<use x="153.00" y="277.40" xlink:href="#hd"/>
<path d="M156.50 277.40v-21.00" class="stroke"/>
<use x="187.30" y="283.40" xlink:href="#hd"/>
<path d="M190.80 283.40v-21.00" class="stroke"/>
<use x="218.10" y="277.40" xlink:href="#hd"/>
<path d="M221.60 277.40v-21.00" class="stroke"/>
<use x="249.00" y="271.40" xlink:href="#hd"/>
<path d="M245.50 271.40v21.00" class="stroke"/>
<use x="276.80" y="277.40" xlink:href="#hd"/>
<path d="M280.30 277.40v-21.00" class="stroke"/>
<use x="311.10" y="292.40" xlink:href="#hl"/>
<use x="311.10" y="295.40" xlink:href="#hd"/>
<path d="M314.60 295.40v-21.00" class="stroke"/>
<use x="341.90" y="289.40" xlink:href="#hd"/>
<path d="M345.40 289.40v-21.00" class="stroke"/>
<use x="372.70" y="283.40" xlink:href="#hd"/>
<path d="M376.20 283.40v-21.00" class="stroke"/>
<use x="403.50" y="289.40" xlink:href="#hd"/>
<path d="M407.00 289.40v-21.00" class="stroke"/>
<use x="437.80" y="286.40" xlink:href="#hd"/>
<path d="M441.30 286.40v-21.00" class="stroke"/>
<use x="468.60" y="280.40" xlink:href="#hd"/>
<path d="M472.10 280.40v-21.00" class="stroke"/>
<use x="499.40" y="274.40" xlink:href="#hd"/>
<path d="M502.90 274.40v-21.00" class="stroke"/>
<use x="530.20" y="280.40" xlink:href="#hd"/>
<path d="M533.70 280.40v-21.00" class="stroke"/>
<use x="564.50" y="280.40" xlink:href="#hd"/>
<path d="M568.00 280.40v-21.00" class="stroke"/>
<use x="595.30" y="274.40" xlink:href="#hd"/>
<path d="M598.80 274.40v-21.00" class="stroke"/>
<use x="626.20" y="268.40" xlink:href="#hd"/>
<path d="M622.70 268.40v21.00" class="stroke"/>
<use x="669.80" y="274.40" xlink:href="#hd"/>
<path d="M666.30 274.40v21.00" class="stroke"/>
</g>
<g stroke-width="0.70" style="font:bold 13.00px Times">
<path class="stroke" stroke-width="1"
	d="M10.00 414.40v-82.00"/>
<g transform="translate(10.00,332.40) scale(1,0.82)">
	<use xlink:href="#brace"/>
</g>
<path class="stroke" stroke-width="1"
	d="M170.70 356.40v-24.00"/>
<path class="stroke" stroke-width="1"
	d="M170.70 414.40v-24.00"/>
<path class="stroke" stroke-width="1"
	d="M321.00 356.40v-24.00"/>
<path class="stroke" stroke-width="1"
	d="M321.00 414.40v-24.00"/>
<path class="stroke" stroke-width="1"
	d="M449.70 356.40v-24.00"/>
<path class="stroke" stroke-width="1"
	d="M449.70 414.40v-24.00"/>
<path class="stroke" stroke-width="1"
	d="M599.10 356.40v-24.00"/>
<path class="stroke" stroke-width="1"
	d="M599.10 414.40v-24.00"/>
<path class="stroke" stroke-width="1"
	d="M691.60 356.40v-24.00"/>
<path class="stroke" stroke-width="1"
	d="M691.60 414.40v-24.00"/>
<path d="m10.00 356.40
	h681.60
	M10.00 350.40
	h681.60
	M10.00 344.40
	h681.60
	M10.00 338.40
	h681.60
	M10.00 332.40
	h681.60
	" class="stroke"/>
<path d="m10.00 414.40
	h681.60
	M10.00 408.40
	h681.60
	M10.00 402.40
	h681.60
	M10.00 396.40
	h681.60
	M10.00 390.40
	h681.60
	" class="stroke"/>
</g>
<g stroke-width="0.70" style="font:bold 13.00px Times">
<text x="57.50" y="325.80">ii</text>
</g>
<g stroke-width="0.70" style="font:bold 13.00px Times">
<text x="178.80" y="327.80">V<tspan
	 style="font:italic 11.00px Times">¹</tspan></text>
</g>
<g stroke-width="0.70" style="font:bold 13.00px Times">
<text x="333.10" y="325.80">I</text>
</g>
<g stroke-width="0.70" style="font:bold 13.00px Times">
<text x="457.10" y="325.80">IV</text>
</g>
<g stroke-width="0.70" style="font:bold 13.00px Times">
<text x="611.30" y="325.80">I</text>
<use x="22.00" y="350.40" xlink:href="#tclef"/>
<use x="37.00" y="332.40" xlink:href="#sh0"/>
<use x="42.50" y="341.40" xlink:href="#sh0"/>
<use x="60.50" y="353.40" xlink:href="#hd"/>
<path d="M64.00 353.40v-21.00" class="stroke"/>
<use x="97.30" y="350.40" xlink:href="#Hd"/>
<circle class="fill" cx="106.00" cy="347.40" r="1.2"/>
<path d="M100.80 350.40v-21.00" class="stroke"/>
<use x="184.70" y="356.40" xlink:href="#hd"/>
<path d="M188.20 356.40v-21.00" class="stroke"/>
<use x="221.50" y="353.40" xlink:href="#hd"/>
<path d="M225.00 353.40v-21.00" class="stroke"/>
<use x="258.30" y="353.40" xlink:href="#hd"/>
<path d="M261.80 353.40v-21.00" class="stroke"/>
<use x="295.10" y="350.40" xlink:href="#hd"/>
<path d="M298.60 350.40v-21.00" class="stroke"/>
<use x="335.00" y="353.40" xlink:href="#hd"/>
<path d="M338.50 353.40v-21.00" class="stroke"/>
<use x="371.80" y="353.40" xlink:href="#Hd"/>
<path d="M375.30 353.40v-21.00" class="stroke"/>
<use x="423.80" y="356.40" xlink:href="#hd"/>
<path d="M427.30 356.40v-21.00" class="stroke"/>
<use x="462.80" y="359.40" xlink:href="#hd"/>
<path d="M466.30 359.40v-21.00" class="stroke"/>
<use x="499.60" y="359.40" xlink:href="#hd"/>
<path d="M503.10 359.40v-21.00" class="stroke"/>
<use x="536.50" y="356.40" xlink:href="#hd"/>
<path d="M540.00 356.40v-21.00" class="stroke"/>
<use x="573.30" y="359.40" xlink:href="#hd"/>
<path d="M576.80 359.40v-21.00" class="stroke"/>
<use x="613.10" y="362.40" xlink:href="#hl"/>
<use x="613.10" y="362.40" xlink:href="#hd"/>
<path d="M616.60 362.40v-21.00" class="stroke"/>
<use x="650.00" y="359.40" xlink:href="#Hd"/>
<circle class="fill" cx="658.70" cy="359.40" r="1.2"/>
<path d="M653.50 359.40v-21.00" class="stroke"/>
<use x="22.00" y="396.40" xlink:href="#bclef"/>
<use x="37.00" y="396.40" xlink:href="#sh0"/>
<use x="42.50" y="405.40" xlink:href="#sh0"/>
<use x="60.50" y="420.40" xlink:href="#hl"/>
<use x="60.50" y="420.40" xlink:href="#hd"/>
<path d="M64.00 420.40v-21.00" class="stroke"/>
<use x="97.30" y="414.40" xlink:href="#hd"/>
<path d="M100.80 414.40v-21.00" class="stroke"/>
<use x="134.10" y="408.40" xlink:href="#Hd"/>
<path d="M137.60 408.40v-21.00" class="stroke"/>
<use x="185.70" y="420.40" xlink:href="#hl1"/>
<use x="185.70" y="426.40" xlink:href="#hl1"/>
<use x="185.70" y="432.40" xlink:href="#hl1"/>
<use x="185.70" y="432.40" xlink:href="#HD"/>
<use x="185.70" y="411.40" xlink:href="#HD"/>
<use x="185.70" y="405.40" xlink:href="#HD"/>
<use x="185.70" y="399.40" xlink:href="#HD"/>
<use x="336.00" y="420.40" xlink:href="#hl1"/>
<use x="336.00" y="426.40" xlink:href="#hl1"/>
<use x="336.00" y="432.40" xlink:href="#hl1"/>
<use x="336.00" y="438.40" xlink:href="#hl1"/>
<use x="336.00" y="444.40" xlink:href="#hl1"/>
<use x="336.00" y="444.40" xlink:href="#HD"/>
<use x="336.00" y="423.40" xlink:href="#HD"/>
<use x="336.00" y="417.40" xlink:href="#HD"/>
<use x="336.00" y="411.40" xlink:href="#HD"/>
<use x="462.80" y="414.40" xlink:href="#hd"/>
<path d="M466.30 414.40v-21.00" class="stroke"/>
<use x="499.60" y="408.40" xlink:href="#hd"/>
<path d="M503.10 408.40v-21.00" class="stroke"/>
<use x="536.50" y="402.40" xlink:href="#Hd"/>
<path d="M540.00 402.40v-21.00" class="stroke"/>
<use x="614.10" y="420.40" xlink:href="#hl1"/>
<use x="614.10" y="426.40" xlink:href="#hl1"/>
<use x="614.10" y="432.40" xlink:href="#hl1"/>
<use x="614.10" y="438.40" xlink:href="#hl1"/>
<use x="614.10" y="444.40" xlink:href="#hl1"/>
<use x="614.10" y="444.40" xlink:href="#HD"/>
<use x="614.10" y="423.40" xlink:href="#HD"/>
<use x="614.10" y="417.40" xlink:href="#HD"/>
<use x="614.10" y="411.40" xlink:href="#HD"/>
</g>
</svg>
