<?xml version="1.0" standalone="no"?>
<!DOCTYPE svg PUBLIC "-//W3C//DTD SVG 1.1//EN"
	"http://www.w3.org/Graphics/SVG/1.1/DTD/svg11.dtd">
<svg xmlns="http://www.w3.org/2000/svg" version="1.1"
	xmlns:xlink="http://www.w3.org/1999/xlink"
	color="black"
	width="701.60px" height="308.00px" viewBox="0 0 701.60 308.00" preserveAspectRatio="xMidYMid meet">
<style type="text/css">
.fill {fill: currentColor}
.stroke {stroke: currentColor; fill: none}
text{white-space: pre}
</style>
<title>/tmp/retab_hymnal_L5/savior_who_thy_flock_art_feeding.abc (1) tune 1</title>
<!-- Creator: abcm2ps-8.14.11 -->
<!-- CreationDate: Apr 24, 2026 15:38 -->
<!-- CommandLine: /tmp/retab_hymnal_L5/savior_who_thy_flock_art_feeding.abc -g -O /tmp/retab_hymnal_L5/savior_who_thy_flock_art_feeding -->
<g stroke-width="0.70">
<!-- title: 214. Savior, Who Thy Flock Art Feeding -->
</g>
<g stroke-width="0.70" style="font:20.00px Times">
<text x="350.80" y="22.00" text-anchor="middle">214. Savior, Who Thy Flock Art Feeding</text>
</g>
<g stroke-width="0.70" style="font:20.00px Times">
<path class="stroke" stroke-width="1"
	d="M10.00 143.00v-82.00"/>
<defs>
<path id="brace" class="fill" d="m-2.5 101
	c-4.5 -4.6 -7.5 -12.2 -4.4 -26.8
	3.5 -14.3 3.2 -21.7 -2.1 -24.2
	7.4 2.4 7.3 14.2 3.5 29.5
	-2.7 9.5 -1.5 16.2 3 21.5
	M-2.5 1c-4.5 4.6 -7.5 12.2 -4.4 26.8
	c3.5 14.3 3.2 21.7 -2.1 24.2
	7.4 -2.4 7.3 -14.2 3.5 -29.5
	-2.7 -9.5 -1.5 -16.2 3 -21.5"/>
</defs>
<g transform="translate(10.00,61.00) scale(1,0.82)">
	<use xlink:href="#brace"/>
</g>
<path class="stroke" stroke-width="1"
	d="M167.40 85.00v-24.00"/>
<path class="stroke" stroke-width="1"
	d="M167.40 143.00v-24.00"/>
<path class="stroke" stroke-width="1"
	d="M257.20 85.00v-24.00"/>
<path class="stroke" stroke-width="1"
	d="M257.20 143.00v-24.00"/>
<path class="stroke" stroke-width="1"
	d="M351.10 85.00v-24.00"/>
<path class="stroke" stroke-width="1"
	d="M351.10 143.00v-24.00"/>
<path class="stroke" stroke-width="1"
	d="M460.10 85.00v-24.00"/>
<path class="stroke" stroke-width="1"
	d="M460.10 143.00v-24.00"/>
<path class="stroke" stroke-width="1"
	d="M566.90 85.00v-24.00"/>
<path class="stroke" stroke-width="1"
	d="M566.90 143.00v-24.00"/>
<path class="stroke" stroke-width="1"
	d="M691.60 85.00v-24.00"/>
<path class="stroke" stroke-width="1"
	d="M691.60 143.00v-24.00"/>
<path d="m10.00 85.00
	h681.60
	M10.00 79.00
	h681.60
	M10.00 73.00
	h681.60
	M10.00 67.00
	h681.60
	M10.00 61.00
	h681.60
	" class="stroke"/>
<path d="m10.00 143.00
	h681.60
	M10.00 137.00
	h681.60
	M10.00 131.00
	h681.60
	M10.00 125.00
	h681.60
	M10.00 119.00
	h681.60
	" class="stroke"/>
</g>
<g stroke-width="0.70" style="font:bold 13.00px Times">
<text x="70.70" y="54.40">I</text>
</g>
<g stroke-width="0.70" style="font:bold 13.00px Times">
<text x="176.00" y="48.40">V</text>
</g>
<g stroke-width="0.70" style="font:bold 13.00px Times">
<text x="269.30" y="48.40">I</text>
</g>
<g stroke-width="0.70" style="font:bold 13.00px Times">
<text x="362.10" y="56.40">ii</text>
</g>
<g stroke-width="0.70" style="font:bold 13.00px Times">
<text x="469.50" y="54.40">iii</text>
</g>
<g stroke-width="0.70" style="font:bold 13.00px Times">
<text x="577.50" y="54.40">I</text>
<defs>
<path id="utclef" class="fill" d="m-50 -90
	c-72 -41 -72 -158 52 -188
	150 -10 220 188 90 256
	-114 52 -275 0 -293 -136
	-15 -181 93 -229 220 -334
	88 -87 79 -133 62 -210
	-51 33 -94 105 -89 186
	17 267 36 374 49 574
	6 96 -19 134 -77 135
	-80 1 -126 -93 -61 -133
	85 -41 133 101 31 105
	23 17 92 37 90 -92
	-10 -223 -39 -342 -50 -617
	0 -90 0 -162 96 -232
	56 72 63 230 22 289
	-74 106 -257 168 -255 316
	9 153 148 185 252 133
	86 -65 29 -192 -80 -176
	-71 12 -105 67 -59 124"/>
<use id="tclef" transform="translate(0,6) scale(0.045)"
	xlink:href="#utclef"/>
</defs>
<use x="22.00" y="79.00" xlink:href="#tclef"/>
<defs>
<path id="uflat" class="fill" d="
	m100 -746
	h32
	v734
	l-32 4
	m32 -332
	c46 -72 152 -90 208 -20
	100 110 -120 326 -208 348
	m0 -28
	c54 0 200 -206 130 -290
	-50 -60 -130 -4 -130 34"/>
<use id="ft0" transform="translate(-3.5,3.5) scale(0.018)"
	xlink:href="#uflat"/>
</defs>
<use x="37.00" y="73.00" xlink:href="#ft0"/>
<g style="font:bold 16px serif"
	transform="translate(53.00,84.50) scale(1.2,1)">
	<text text-anchor="middle">4</text>
	<text y="-12" text-anchor="middle">4</text>
</g>
<defs>
<ellipse id="hd" rx="4.1" ry="2.9"
	transform="rotate(-20)" class="fill"/>
</defs>
<use x="72.50" y="82.00" xlink:href="#hd"/>
<path d="M76.00 82.00v-21.00" class="stroke"/>
<use x="98.00" y="79.00" xlink:href="#hd"/>
<path d="M101.50 79.00v-21.00" class="stroke"/>
<use x="123.40" y="76.00" xlink:href="#hd"/>
<path d="M126.90 76.00v-21.00" class="stroke"/>
<use x="148.90" y="79.00" xlink:href="#hd"/>
<path d="M152.40 79.00v-21.00" class="stroke"/>
<use x="179.90" y="76.00" xlink:href="#hd"/>
<path d="M183.40 76.00v-21.00" class="stroke"/>
<use x="205.70" y="73.00" xlink:href="#hd"/>
<path d="M209.20 73.00v-21.00" class="stroke"/>
<defs>
<path id="Hd" class="fill" d="m3 -1.6
	c-1 -1.8 -7 1.4 -6 3.2
	1 1.8 7 -1.4 6 -3.2
	m0.5 -0.3
	c2 3.8 -5 7.6 -7 3.8
	-2 -3.8 5 -7.6 7 -3.8"/>
</defs>
<use x="231.50" y="70.00" xlink:href="#Hd"/>
<path d="M228.00 70.00v21.00" class="stroke"/>
<use x="271.20" y="76.00" xlink:href="#Hd"/>
<path d="M274.70 76.00v-21.00" class="stroke"/>
<use x="307.10" y="67.00" xlink:href="#hd"/>
<path d="M303.60 67.00v21.00" class="stroke"/>
<use x="332.60" y="70.00" xlink:href="#hd"/>
<path d="M329.10 70.00v21.00" class="stroke"/>
<use x="365.10" y="73.00" xlink:href="#hd"/>
<path d="M361.60 73.00v21.00" class="stroke"/>
<use x="390.60" y="76.00" xlink:href="#hd"/>
<path d="M394.10 76.00v-21.00" class="stroke"/>
<use x="416.00" y="79.00" xlink:href="#hd"/>
<path d="M419.50 79.00v-21.00" class="stroke"/>
<use x="441.50" y="79.00" xlink:href="#hd"/>
<path d="M445.00 79.00v-21.00" class="stroke"/>
<defs>
<path id="HD" class="fill" d="m-2.7 -1.4
	c1.5 -2.8 6.9 0 5.3 2.7
	-1.5 2.8 -6.9 0 -5.3 -2.7
	m8.3 1.4
	c0 -1.5 -2.2 -3 -5.6 -3
	-3.4 0 -5.6 1.5 -5.6 3
	0 1.5 2.2 3 5.6 3
	3.4 0 5.6 -1.5 5.6 -3"/>
</defs>
<use x="475.10" y="76.00" xlink:href="#HD"/>
<use x="579.40" y="70.00" xlink:href="#hd"/>
<path d="M575.90 70.00v21.00" class="stroke"/>
<use x="604.80" y="70.00" xlink:href="#hd"/>
<path d="M601.30 70.00v21.00" class="stroke"/>
<use x="630.30" y="70.00" xlink:href="#hd"/>
<path d="M626.80 70.00v21.00" class="stroke"/>
<use x="655.70" y="76.00" xlink:href="#hd"/>
<path d="M659.20 76.00v-21.00" class="stroke"/>
<path class="fill"
	d="M659.20 55.00c0.6 5.6 9.6 9 5.6 18.4
	1.6 -6 -1.3 -11.6 -5.6 -12.8
"/>
<use x="674.60" y="73.00" xlink:href="#hd"/>
<path d="M678.10 73.00v-21.00" class="stroke"/>
<path class="fill"
	d="M678.10 52.00c0.6 5.6 9.6 9 5.6 18.4
	1.6 -6 -1.3 -11.6 -5.6 -12.8
"/>
<defs>
<path id="ubclef" class="fill" d="m-200 -87
	c124 -35 222 -78 254 -236
	43 -228 -167 -246 -192 -103
	59 -80 157 22 92 78
	-62 47 -115 -22 -106 -88
	21 -141 270 -136 274 52
	-1 175 -106 264 -322 297
	m357 -250
	c0 -36 51 -34 51 0
	0 37 -51 36 -51 0
	m-2 -129
	c0 -36 51 -34 51 0
	0 38 -51 37 -51 0"/>
<use id="bclef" transform="translate(0,18) scale(0.045)"
	xlink:href="#ubclef"/>
</defs>
<use x="22.00" y="125.00" xlink:href="#bclef"/>
<use x="37.00" y="137.00" xlink:href="#ft0"/>
<g style="font:bold 16px serif"
	transform="translate(53.00,142.50) scale(1.2,1)">
	<text text-anchor="middle">4</text>
	<text y="-12" text-anchor="middle">4</text>
</g>
<defs>
<path id="hl1" class="stroke" d="m-7 0h14"/>
</defs>
<use x="73.50" y="149.00" xlink:href="#hl1"/>
<use x="73.50" y="155.00" xlink:href="#hl1"/>
<use x="73.50" y="161.00" xlink:href="#hl1"/>
<use x="73.50" y="167.00" xlink:href="#hl1"/>
<use x="73.50" y="167.00" xlink:href="#HD"/>
<use x="73.50" y="146.00" xlink:href="#HD"/>
<use x="73.50" y="140.00" xlink:href="#HD"/>
<use x="73.50" y="134.00" xlink:href="#HD"/>
<use x="179.90" y="134.00" xlink:href="#hd"/>
<path d="M183.40 134.00v-21.00" class="stroke"/>
<use x="205.70" y="128.00" xlink:href="#hd"/>
<path d="M202.20 128.00v21.00" class="stroke"/>
<use x="231.50" y="122.00" xlink:href="#Hd"/>
<path d="M228.00 122.00v21.00" class="stroke"/>
<use x="272.20" y="149.00" xlink:href="#hl1"/>
<use x="272.20" y="155.00" xlink:href="#hl1"/>
<use x="272.20" y="161.00" xlink:href="#hl1"/>
<use x="272.20" y="167.00" xlink:href="#hl1"/>
<use x="272.20" y="167.00" xlink:href="#HD"/>
<use x="272.20" y="146.00" xlink:href="#HD"/>
<use x="272.20" y="140.00" xlink:href="#HD"/>
<use x="272.20" y="134.00" xlink:href="#HD"/>
<use x="366.10" y="149.00" xlink:href="#hl1"/>
<use x="366.10" y="155.00" xlink:href="#hl1"/>
<use x="366.10" y="161.00" xlink:href="#hl1"/>
<use x="366.10" y="164.00" xlink:href="#HD"/>
<use x="366.10" y="143.00" xlink:href="#HD"/>
<use x="366.10" y="137.00" xlink:href="#HD"/>
<use x="366.10" y="131.00" xlink:href="#HD"/>
<use x="474.10" y="140.00" xlink:href="#hd"/>
<path d="M477.60 140.00v-21.00" class="stroke"/>
<use x="499.50" y="134.00" xlink:href="#hd"/>
<path d="M503.00 134.00v-21.00" class="stroke"/>
<use x="525.30" y="128.00" xlink:href="#hd"/>
<path d="M521.80 128.00v21.00" class="stroke"/>
<use x="548.30" y="134.00" xlink:href="#hd"/>
<path d="M551.80 134.00v-21.00" class="stroke"/>
<use x="579.40" y="146.00" xlink:href="#hd"/>
<path d="M582.90 146.00v-21.00" class="stroke"/>
<use x="604.80" y="140.00" xlink:href="#hd"/>
<path d="M608.30 140.00v-21.00" class="stroke"/>
<use x="630.30" y="134.00" xlink:href="#hd"/>
<path d="M633.80 134.00v-21.00" class="stroke"/>
<use x="655.70" y="140.00" xlink:href="#hd"/>
<path d="M659.20 140.00v-21.00" class="stroke"/>
</g>
<g stroke-width="0.70" style="font:bold 13.00px Times">
<path class="stroke" stroke-width="1"
	d="M10.00 278.00v-82.00"/>
<g transform="translate(10.00,196.00) scale(1,0.82)">
	<use xlink:href="#brace"/>
</g>
<path class="stroke" stroke-width="1"
	d="M240.10 220.00v-24.00"/>
<path class="stroke" stroke-width="1"
	d="M240.10 278.00v-24.00"/>
<path class="stroke" stroke-width="1"
	d="M425.70 220.00v-24.00"/>
<path class="stroke" stroke-width="1"
	d="M425.70 278.00v-24.00"/>
<path class="stroke" stroke-width="1"
	d="M611.30 220.00v-24.00"/>
<path class="stroke" stroke-width="1"
	d="M611.30 278.00v-24.00"/>
<path class="stroke" stroke-width="1"
	d="M691.60 220.00v-24.00"/>
<path class="stroke" stroke-width="1"
	d="M691.60 278.00v-24.00"/>
<path d="m10.00 220.00
	h681.60
	M10.00 214.00
	h681.60
	M10.00 208.00
	h681.60
	M10.00 202.00
	h681.60
	M10.00 196.00
	h681.60
	" class="stroke"/>
<path d="m10.00 278.00
	h681.60
	M10.00 272.00
	h681.60
	M10.00 266.00
	h681.60
	M10.00 260.00
	h681.60
	M10.00 254.00
	h681.60
	" class="stroke"/>
</g>
<g stroke-width="0.70" style="font:bold 13.00px Times">
<text x="53.20" y="191.40">I</text>
</g>
<g stroke-width="0.70" style="font:bold 13.00px Times">
<text x="252.40" y="186.40">V</text>
</g>
<g stroke-width="0.70" style="font:bold 13.00px Times">
<text x="436.20" y="183.40">IV</text>
</g>
<g stroke-width="0.70" style="font:bold 13.00px Times">
<text x="625.70" y="191.40">I</text>
<use x="22.00" y="214.00" xlink:href="#tclef"/>
<use x="37.00" y="208.00" xlink:href="#ft0"/>
<use x="55.00" y="205.00" xlink:href="#hd"/>
<path d="M51.50 205.00v21.00" class="stroke"/>
<use x="100.80" y="205.00" xlink:href="#hd"/>
<path d="M97.30 205.00v21.00" class="stroke"/>
<path class="fill"
	d="M97.30 226.00c0.6 -5.6 9.6 -9 5.6 -18.4
	1.6 6 -1.3 11.6 -5.6 12.8
"/>
<use x="133.20" y="208.00" xlink:href="#hd"/>
<path d="M129.70 208.00v21.00" class="stroke"/>
<path class="fill"
	d="M129.70 229.00c0.6 -5.6 9.6 -9 5.6 -18.4
	1.6 6 -1.3 11.6 -5.6 12.8
"/>
<use x="162.30" y="211.00" xlink:href="#Hd"/>
<path d="M165.80 211.00v-21.00" class="stroke"/>
<use x="256.30" y="214.00" xlink:href="#Hd"/>
<path d="M259.80 214.00v-21.00" class="stroke"/>
<use x="347.90" y="217.00" xlink:href="#hd"/>
<path d="M351.40 217.00v-21.00" class="stroke"/>
<use x="393.70" y="214.00" xlink:href="#hd"/>
<path d="M397.20 214.00v-21.00" class="stroke"/>
<use x="441.90" y="211.00" xlink:href="#hd"/>
<path d="M445.40 211.00v-21.00" class="stroke"/>
<use x="487.70" y="208.00" xlink:href="#hd"/>
<path d="M491.20 208.00v-21.00" class="stroke"/>
<use x="533.50" y="211.00" xlink:href="#hd"/>
<path d="M537.00 211.00v-21.00" class="stroke"/>
<use x="579.30" y="214.00" xlink:href="#hd"/>
<path d="M582.80 214.00v-21.00" class="stroke"/>
<use x="628.50" y="217.00" xlink:href="#HD"/>
<use x="22.00" y="260.00" xlink:href="#bclef"/>
<use x="37.00" y="272.00" xlink:href="#ft0"/>
<use x="55.00" y="281.00" xlink:href="#hd"/>
<path d="M58.50 281.00v-21.00" class="stroke"/>
<use x="100.80" y="275.00" xlink:href="#hd"/>
<path d="M104.30 275.00v-21.00" class="stroke"/>
<use x="162.30" y="269.00" xlink:href="#hd"/>
<path d="M165.80 269.00v-21.00" class="stroke"/>
<use x="208.10" y="275.00" xlink:href="#hd"/>
<path d="M211.60 275.00v-21.00" class="stroke"/>
<use x="256.30" y="269.00" xlink:href="#hd"/>
<path d="M259.80 269.00v-21.00" class="stroke"/>
<use x="302.10" y="263.00" xlink:href="#hd"/>
<path d="M298.60 263.00v21.00" class="stroke"/>
<use x="347.90" y="257.00" xlink:href="#hd"/>
<path d="M344.40 257.00v21.00" class="stroke"/>
<use x="393.70" y="263.00" xlink:href="#hd"/>
<path d="M390.20 263.00v21.00" class="stroke"/>
<use x="441.90" y="272.00" xlink:href="#hd"/>
<path d="M445.40 272.00v-21.00" class="stroke"/>
<use x="487.70" y="266.00" xlink:href="#hd"/>
<path d="M491.20 266.00v-21.00" class="stroke"/>
<use x="533.50" y="260.00" xlink:href="#Hd"/>
<path d="M530.00 260.00v21.00" class="stroke"/>
<use x="628.50" y="284.00" xlink:href="#hl1"/>
<use x="628.50" y="290.00" xlink:href="#hl1"/>
<use x="628.50" y="296.00" xlink:href="#hl1"/>
<use x="628.50" y="302.00" xlink:href="#hl1"/>
<use x="628.50" y="302.00" xlink:href="#HD"/>
<use x="628.50" y="281.00" xlink:href="#HD"/>
<use x="628.50" y="275.00" xlink:href="#HD"/>
<use x="628.50" y="269.00" xlink:href="#HD"/>
</g>
</svg>
