<?xml version="1.0" standalone="no"?>
<!DOCTYPE svg PUBLIC "-//W3C//DTD SVG 1.1//EN"
	"http://www.w3.org/Graphics/SVG/1.1/DTD/svg11.dtd">
<svg xmlns="http://www.w3.org/2000/svg" version="1.1"
	xmlns:xlink="http://www.w3.org/1999/xlink"
	color="black"
	width="701.60px" height="429.20px" viewBox="0 0 701.60 429.20" preserveAspectRatio="xMidYMid meet">
<style type="text/css">
.fill {fill: currentColor}
.stroke {stroke: currentColor; fill: none}
text{white-space: pre}
</style>
<title>/tmp/retab_hymnal_L5/stricken_smitten_and_afflicted.abc (1) tune 1</title>
<!-- Creator: abcm2ps-8.14.11 -->
<!-- CreationDate: Apr 24, 2026 15:39 -->
<!-- CommandLine: /tmp/retab_hymnal_L5/stricken_smitten_and_afflicted.abc -g -O /tmp/retab_hymnal_L5/stricken_smitten_and_afflicted -->
<g stroke-width="0.70">
<!-- title: 221. Stricken, Smitten, and Afflicted -->
</g>
<g stroke-width="0.70" style="font:20.00px Times">
<text x="350.80" y="22.00" text-anchor="middle">221. Stricken, Smitten, and Afflicted</text>
</g>
<g stroke-width="0.70" style="font:20.00px Times">
<path class="stroke" stroke-width="1"
	d="M10.00 145.40v-82.00"/>
<defs>
<path id="brace" class="fill" d="m-2.5 101
	c-4.5 -4.6 -7.5 -12.2 -4.4 -26.8
	3.5 -14.3 3.2 -21.7 -2.1 -24.2
	7.4 2.4 7.3 14.2 3.5 29.5
	-2.7 9.5 -1.5 16.2 3 21.5
	M-2.5 1c-4.5 4.6 -7.5 12.2 -4.4 26.8
	c3.5 14.3 3.2 21.7 -2.1 24.2
	7.4 -2.4 7.3 -14.2 3.5 -29.5
	-2.7 -9.5 -1.5 -16.2 3 -21.5"/>
</defs>
<g transform="translate(10.00,63.40) scale(1,0.82)">
	<use xlink:href="#brace"/>
</g>
<path class="stroke" stroke-width="1"
	d="M188.90 87.40v-24.00"/>
<path class="stroke" stroke-width="1"
	d="M188.90 145.40v-24.00"/>
<path class="stroke" stroke-width="1"
	d="M343.40 87.40v-24.00"/>
<path class="stroke" stroke-width="1"
	d="M343.40 145.40v-24.00"/>
<path class="stroke" stroke-width="1"
	d="M467.00 87.40v-24.00"/>
<path class="stroke" stroke-width="1"
	d="M467.00 145.40v-24.00"/>
<path class="stroke" stroke-width="1"
	d="M566.70 87.40v-24.00"/>
<path class="stroke" stroke-width="1"
	d="M566.70 145.40v-24.00"/>
<path class="stroke" stroke-width="1"
	d="M691.60 87.40v-24.00"/>
<path class="stroke" stroke-width="1"
	d="M691.60 145.40v-24.00"/>
<path d="m10.00 87.40
	h681.60
	M10.00 81.40
	h681.60
	M10.00 75.40
	h681.60
	M10.00 69.40
	h681.60
	M10.00 63.40
	h681.60
	" class="stroke"/>
<path d="m10.00 145.40
	h681.60
	M10.00 139.40
	h681.60
	M10.00 133.40
	h681.60
	M10.00 127.40
	h681.60
	M10.00 121.40
	h681.60
	" class="stroke"/>
</g>
<g stroke-width="0.70" style="font:bold 13.00px Times">
<text x="76.50" y="53.80">i</text>
</g>
<g stroke-width="0.70" style="font:bold 13.00px Times">
<text x="197.10" y="56.80">iv</text>
</g>
<g stroke-width="0.70" style="font:bold 13.00px Times">
<text x="348.50" y="47.80">ii○<tspan
	 style="font:italic 11.00px Times">¹</tspan></text>
</g>
<g stroke-width="0.70" style="font:bold 13.00px Times">
<text x="479.50" y="53.80">i</text>
</g>
<g stroke-width="0.70" style="font:bold 13.00px Times">
<text x="578.90" y="53.80">I</text>
<defs>
<path id="utclef" class="fill" d="m-50 -90
	c-72 -41 -72 -158 52 -188
	150 -10 220 188 90 256
	-114 52 -275 0 -293 -136
	-15 -181 93 -229 220 -334
	88 -87 79 -133 62 -210
	-51 33 -94 105 -89 186
	17 267 36 374 49 574
	6 96 -19 134 -77 135
	-80 1 -126 -93 -61 -133
	85 -41 133 101 31 105
	23 17 92 37 90 -92
	-10 -223 -39 -342 -50 -617
	0 -90 0 -162 96 -232
	56 72 63 230 22 289
	-74 106 -257 168 -255 316
	9 153 148 185 252 133
	86 -65 29 -192 -80 -176
	-71 12 -105 67 -59 124"/>
<use id="tclef" transform="translate(0,6) scale(0.045)"
	xlink:href="#utclef"/>
</defs>
<use x="22.00" y="81.40" xlink:href="#tclef"/>
<defs>
<path id="uflat" class="fill" d="
	m100 -746
	h32
	v734
	l-32 4
	m32 -332
	c46 -72 152 -90 208 -20
	100 110 -120 326 -208 348
	m0 -28
	c54 0 200 -206 130 -290
	-50 -60 -130 -4 -130 34"/>
<use id="ft0" transform="translate(-3.5,3.5) scale(0.018)"
	xlink:href="#uflat"/>
</defs>
<use x="37.00" y="75.40" xlink:href="#ft0"/>
<use x="42.50" y="66.40" xlink:href="#ft0"/>
<g style="font:bold 16px serif"
	transform="translate(58.50,86.90) scale(1.2,1)">
	<text text-anchor="middle">4</text>
	<text y="-12" text-anchor="middle">6</text>
</g>
<defs>
<ellipse id="hd" rx="4.1" ry="2.9"
	transform="rotate(-20)" class="fill"/>
</defs>
<use x="78.00" y="81.40" xlink:href="#hd"/>
<path d="M81.50 81.40v-21.00" class="stroke"/>
<use x="103.10" y="78.40" xlink:href="#hd"/>
<path d="M106.60 78.40v-21.00" class="stroke"/>
<defs>
<path id="Hd" class="fill" d="m3 -1.6
	c-1 -1.8 -7 1.4 -6 3.2
	1 1.8 7 -1.4 6 -3.2
	m0.5 -0.3
	c2 3.8 -5 7.6 -7 3.8
	-2 -3.8 5 -7.6 7 -3.8"/>
</defs>
<use x="128.30" y="75.40" xlink:href="#Hd"/>
<path d="M131.80 75.40v-21.00" class="stroke"/>
<use x="163.60" y="75.40" xlink:href="#Hd"/>
<path d="M167.10 75.40v-21.00" class="stroke"/>
<use x="201.40" y="72.40" xlink:href="#hd"/>
<path d="M197.90 72.40v21.00" class="stroke"/>
<use x="226.80" y="75.40" xlink:href="#hd"/>
<path d="M223.30 75.40v21.00" class="stroke"/>
<use x="252.00" y="78.40" xlink:href="#Hd"/>
<path d="M255.50 78.40v-21.00" class="stroke"/>
<use x="299.80" y="78.40" xlink:href="#Hd"/>
<path d="M303.30 78.40v-21.00" class="stroke"/>
<use x="355.90" y="75.40" xlink:href="#hd"/>
<path d="M359.40 75.40v-21.00" class="stroke"/>
<use x="381.00" y="78.40" xlink:href="#hd"/>
<path d="M384.50 78.40v-21.00" class="stroke"/>
<use x="406.40" y="81.40" xlink:href="#Hd"/>
<path d="M409.90 81.40v-21.00" class="stroke"/>
<use x="441.70" y="78.40" xlink:href="#Hd"/>
<path d="M445.20 78.40v-21.00" class="stroke"/>
<use x="481.00" y="81.40" xlink:href="#hd"/>
<path d="M484.50 81.40v-21.00" class="stroke"/>
<use x="506.10" y="84.40" xlink:href="#hd"/>
<path d="M509.60 84.40v-21.00" class="stroke"/>
<defs>
<path id="HD" class="fill" d="m-2.7 -1.4
	c1.5 -2.8 6.9 0 5.3 2.7
	-1.5 2.8 -6.9 0 -5.3 -2.7
	m8.3 1.4
	c0 -1.5 -2.2 -3 -5.6 -3
	-3.4 0 -5.6 1.5 -5.6 3
	0 1.5 2.2 3 5.6 3
	3.4 0 5.6 -1.5 5.6 -3"/>
</defs>
<use x="532.40" y="81.40" xlink:href="#HD"/>
<use x="580.70" y="81.40" xlink:href="#hd"/>
<path d="M584.20 81.40v-21.00" class="stroke"/>
<use x="605.80" y="78.40" xlink:href="#hd"/>
<path d="M609.30 78.40v-21.00" class="stroke"/>
<use x="631.00" y="75.40" xlink:href="#Hd"/>
<path d="M634.50 75.40v-21.00" class="stroke"/>
<use x="666.30" y="75.40" xlink:href="#Hd"/>
<path d="M669.80 75.40v-21.00" class="stroke"/>
<defs>
<path id="ubclef" class="fill" d="m-200 -87
	c124 -35 222 -78 254 -236
	43 -228 -167 -246 -192 -103
	59 -80 157 22 92 78
	-62 47 -115 -22 -106 -88
	21 -141 270 -136 274 52
	-1 175 -106 264 -322 297
	m357 -250
	c0 -36 51 -34 51 0
	0 37 -51 36 -51 0
	m-2 -129
	c0 -36 51 -34 51 0
	0 38 -51 37 -51 0"/>
<use id="bclef" transform="translate(0,18) scale(0.045)"
	xlink:href="#ubclef"/>
</defs>
<use x="22.00" y="127.40" xlink:href="#bclef"/>
<use x="37.00" y="139.40" xlink:href="#ft0"/>
<use x="42.50" y="130.40" xlink:href="#ft0"/>
<g style="font:bold 16px serif"
	transform="translate(58.50,144.90) scale(1.2,1)">
	<text text-anchor="middle">4</text>
	<text y="-12" text-anchor="middle">6</text>
</g>
<defs>
<path id="hl1" class="stroke" d="m-7 0h14"/>
</defs>
<use x="79.00" y="115.40" xlink:href="#hl1"/>
<use x="79.00" y="112.40" xlink:href="#HD"/>
<circle class="fill" cx="90.70" cy="112.40" r="1.2"/>
<use x="79.00" y="145.40" xlink:href="#HD"/>
<circle class="fill" cx="90.70" cy="142.40" r="1.2"/>
<use x="79.00" y="124.40" xlink:href="#HD"/>
<circle class="fill" cx="90.70" cy="124.40" r="1.2"/>
<use x="79.00" y="118.40" xlink:href="#HD"/>
<circle class="fill" cx="90.70" cy="118.40" r="1.2"/>
<use x="201.40" y="136.40" xlink:href="#hd"/>
<path d="M204.90 136.40v-21.00" class="stroke"/>
<use x="226.80" y="130.40" xlink:href="#hd"/>
<path d="M223.30 130.40v21.00" class="stroke"/>
<use x="252.00" y="124.40" xlink:href="#hd"/>
<path d="M248.50 124.40v21.00" class="stroke"/>
<use x="277.10" y="130.40" xlink:href="#hd"/>
<path d="M273.60 130.40v21.00" class="stroke"/>
<use x="299.80" y="136.40" xlink:href="#hd"/>
<path d="M303.30 136.40v-21.00" class="stroke"/>
<use x="325.20" y="130.40" xlink:href="#hd"/>
<path d="M321.70 130.40v21.00" class="stroke"/>
<use x="355.90" y="139.40" xlink:href="#hd"/>
<path d="M359.40 139.40v-21.00" class="stroke"/>
<use x="381.00" y="133.40" xlink:href="#hd"/>
<path d="M384.50 133.40v-21.00" class="stroke"/>
<use x="407.40" y="127.40" xlink:href="#HD"/>
<use x="482.00" y="115.40" xlink:href="#hl1"/>
<use x="482.00" y="112.40" xlink:href="#HD"/>
<circle class="fill" cx="491.70" cy="112.40" r="1.2"/>
<use x="482.00" y="145.40" xlink:href="#HD"/>
<circle class="fill" cx="491.70" cy="142.40" r="1.2"/>
<use x="482.00" y="124.40" xlink:href="#HD"/>
<circle class="fill" cx="491.70" cy="124.40" r="1.2"/>
<use x="482.00" y="118.40" xlink:href="#HD"/>
<circle class="fill" cx="491.70" cy="118.40" r="1.2"/>
<use x="581.70" y="151.40" xlink:href="#hl1"/>
<use x="581.70" y="157.40" xlink:href="#hl1"/>
<use x="581.70" y="160.40" xlink:href="#HD"/>
<circle class="fill" cx="591.40" cy="160.40" r="1.2"/>
<use x="581.70" y="139.40" xlink:href="#HD"/>
<circle class="fill" cx="591.40" cy="136.40" r="1.2"/>
<use x="581.70" y="133.40" xlink:href="#HD"/>
<circle class="fill" cx="591.40" cy="130.40" r="1.2"/>
<use x="581.70" y="127.40" xlink:href="#HD"/>
<circle class="fill" cx="591.40" cy="124.40" r="1.2"/>
</g>
<g stroke-width="0.70" style="font:bold 13.00px Times">
<path class="stroke" stroke-width="1"
	d="M10.00 275.80v-82.00"/>
<g transform="translate(10.00,193.80) scale(1,0.82)">
	<use xlink:href="#brace"/>
</g>
<path class="stroke" stroke-width="1"
	d="M206.70 217.80v-24.00"/>
<path class="stroke" stroke-width="1"
	d="M206.70 275.80v-24.00"/>
<path class="stroke" stroke-width="1"
	d="M333.70 217.80v-24.00"/>
<path class="stroke" stroke-width="1"
	d="M333.70 275.80v-24.00"/>
<path class="stroke" stroke-width="1"
	d="M436.00 217.80v-24.00"/>
<path class="stroke" stroke-width="1"
	d="M436.00 275.80v-24.00"/>
<path class="stroke" stroke-width="1"
	d="M564.60 217.80v-24.00"/>
<path class="stroke" stroke-width="1"
	d="M564.60 275.80v-24.00"/>
<path class="stroke" stroke-width="1"
	d="M691.60 217.80v-24.00"/>
<path class="stroke" stroke-width="1"
	d="M691.60 275.80v-24.00"/>
<path d="m10.00 217.80
	h681.60
	M10.00 211.80
	h681.60
	M10.00 205.80
	h681.60
	M10.00 199.80
	h681.60
	M10.00 193.80
	h681.60
	" class="stroke"/>
<path d="m10.00 275.80
	h681.60
	M10.00 269.80
	h681.60
	M10.00 263.80
	h681.60
	M10.00 257.80
	h681.60
	M10.00 251.80
	h681.60
	" class="stroke"/>
</g>
<g stroke-width="0.70" style="font:bold 13.00px Times">
<text x="56.30" y="189.20">iv</text>
</g>
<g stroke-width="0.70" style="font:bold 13.00px Times">
<text x="211.80" y="178.20">ii○<tspan
	 style="font:italic 11.00px Times">¹</tspan></text>
</g>
<g stroke-width="0.70" style="font:bold 13.00px Times">
<text x="346.20" y="184.20">i</text>
</g>
<g stroke-width="0.70" style="font:bold 13.00px Times">
<text x="448.20" y="178.20">I</text>
</g>
<g stroke-width="0.70" style="font:bold 13.00px Times">
<text x="571.60" y="188.20">III</text>
<use x="22.00" y="211.80" xlink:href="#tclef"/>
<use x="37.00" y="205.80" xlink:href="#ft0"/>
<use x="42.50" y="196.80" xlink:href="#ft0"/>
<use x="60.50" y="202.80" xlink:href="#hd"/>
<path d="M57.00 202.80v21.00" class="stroke"/>
<use x="86.60" y="205.80" xlink:href="#hd"/>
<path d="M83.10 205.80v21.00" class="stroke"/>
<use x="112.60" y="208.80" xlink:href="#Hd"/>
<path d="M116.10 208.80v-21.00" class="stroke"/>
<use x="161.90" y="208.80" xlink:href="#Hd"/>
<path d="M165.40 208.80v-21.00" class="stroke"/>
<use x="219.20" y="205.80" xlink:href="#hd"/>
<path d="M222.70 205.80v-21.00" class="stroke"/>
<use x="245.10" y="208.80" xlink:href="#hd"/>
<path d="M248.60 208.80v-21.00" class="stroke"/>
<use x="271.20" y="211.80" xlink:href="#Hd"/>
<path d="M274.70 211.80v-21.00" class="stroke"/>
<use x="307.70" y="208.80" xlink:href="#Hd"/>
<path d="M311.20 208.80v-21.00" class="stroke"/>
<use x="347.70" y="211.80" xlink:href="#hd"/>
<path d="M351.20 211.80v-21.00" class="stroke"/>
<use x="373.60" y="214.80" xlink:href="#hd"/>
<path d="M377.10 214.80v-21.00" class="stroke"/>
<use x="400.60" y="211.80" xlink:href="#HD"/>
<use x="450.00" y="205.80" xlink:href="#hd"/>
<path d="M453.50 205.80v-21.00" class="stroke"/>
<use x="476.20" y="202.80" xlink:href="#hd"/>
<path d="M472.70 202.80v21.00" class="stroke"/>
<use x="502.10" y="199.80" xlink:href="#Hd"/>
<path d="M498.60 199.80v21.00" class="stroke"/>
<use x="538.60" y="199.80" xlink:href="#Hd"/>
<path d="M535.10 199.80v21.00" class="stroke"/>
<use x="577.10" y="196.80" xlink:href="#hd"/>
<path d="M573.60 196.80v21.00" class="stroke"/>
<use x="603.00" y="199.80" xlink:href="#hd"/>
<path d="M599.50 199.80v21.00" class="stroke"/>
<use x="629.10" y="202.80" xlink:href="#Hd"/>
<path d="M625.60 202.80v21.00" class="stroke"/>
<use x="665.60" y="202.80" xlink:href="#Hd"/>
<path d="M662.10 202.80v21.00" class="stroke"/>
<use x="22.00" y="257.80" xlink:href="#bclef"/>
<use x="37.00" y="269.80" xlink:href="#ft0"/>
<use x="42.50" y="260.80" xlink:href="#ft0"/>
<use x="60.50" y="266.80" xlink:href="#hd"/>
<path d="M64.00 266.80v-21.00" class="stroke"/>
<use x="86.60" y="260.80" xlink:href="#hd"/>
<path d="M83.10 260.80v21.00" class="stroke"/>
<use x="112.60" y="254.80" xlink:href="#hd"/>
<path d="M109.10 254.80v21.00" class="stroke"/>
<use x="138.50" y="260.80" xlink:href="#hd"/>
<path d="M135.00 260.80v21.00" class="stroke"/>
<use x="161.90" y="266.80" xlink:href="#hd"/>
<path d="M165.40 266.80v-21.00" class="stroke"/>
<use x="188.00" y="260.80" xlink:href="#hd"/>
<path d="M184.50 260.80v21.00" class="stroke"/>
<use x="219.20" y="269.80" xlink:href="#hd"/>
<path d="M222.70 269.80v-21.00" class="stroke"/>
<use x="245.10" y="263.80" xlink:href="#hd"/>
<path d="M248.60 263.80v-21.00" class="stroke"/>
<use x="272.20" y="257.80" xlink:href="#HD"/>
<use x="348.70" y="245.80" xlink:href="#hl1"/>
<use x="348.70" y="242.80" xlink:href="#HD"/>
<circle class="fill" cx="358.40" cy="242.80" r="1.2"/>
<use x="348.70" y="275.80" xlink:href="#HD"/>
<circle class="fill" cx="358.40" cy="272.80" r="1.2"/>
<use x="348.70" y="254.80" xlink:href="#HD"/>
<circle class="fill" cx="358.40" cy="254.80" r="1.2"/>
<use x="348.70" y="248.80" xlink:href="#HD"/>
<circle class="fill" cx="358.40" cy="248.80" r="1.2"/>
<use x="451.00" y="281.80" xlink:href="#hl1"/>
<use x="451.00" y="287.80" xlink:href="#hl1"/>
<use x="451.00" y="290.80" xlink:href="#HD"/>
<circle class="fill" cx="460.70" cy="290.80" r="1.2"/>
<use x="451.00" y="269.80" xlink:href="#HD"/>
<circle class="fill" cx="460.70" cy="266.80" r="1.2"/>
<use x="451.00" y="263.80" xlink:href="#HD"/>
<circle class="fill" cx="460.70" cy="260.80" r="1.2"/>
<use x="451.00" y="257.80" xlink:href="#HD"/>
<circle class="fill" cx="460.70" cy="254.80" r="1.2"/>
<use x="577.10" y="269.80" xlink:href="#hd"/>
<path d="M580.60 269.80v-21.00" class="stroke"/>
<use x="603.00" y="263.80" xlink:href="#hd"/>
<path d="M606.50 263.80v-21.00" class="stroke"/>
<use x="630.10" y="257.80" xlink:href="#HD"/>
</g>
<g stroke-width="0.70" style="font:bold 13.00px Times">
<path class="stroke" stroke-width="1"
	d="M10.00 406.20v-82.00"/>
<g transform="translate(10.00,324.20) scale(1,0.82)">
	<use xlink:href="#brace"/>
</g>
<path class="stroke" stroke-width="1"
	d="M163.10 348.20v-24.00"/>
<path class="stroke" stroke-width="1"
	d="M163.10 406.20v-24.00"/>
<path class="stroke" stroke-width="1"
	d="M255.30 348.20v-24.00"/>
<path class="stroke" stroke-width="1"
	d="M255.30 406.20v-24.00"/>
<path class="stroke" stroke-width="1"
	d="M370.40 348.20v-24.00"/>
<path class="stroke" stroke-width="1"
	d="M370.40 406.20v-24.00"/>
<path class="stroke" stroke-width="1"
	d="M485.50 348.20v-24.00"/>
<path class="stroke" stroke-width="1"
	d="M485.50 406.20v-24.00"/>
<path class="stroke" stroke-width="1"
	d="M599.40 348.20v-24.00"/>
<path class="stroke" stroke-width="1"
	d="M599.40 406.20v-24.00"/>
<path class="stroke" stroke-width="1"
	d="M691.60 348.20v-24.00"/>
<path class="stroke" stroke-width="1"
	d="M691.60 406.20v-24.00"/>
<path d="m10.00 348.20
	h681.60
	M10.00 342.20
	h681.60
	M10.00 336.20
	h681.60
	M10.00 330.20
	h681.60
	M10.00 324.20
	h681.60
	" class="stroke"/>
<path d="m10.00 406.20
	h681.60
	M10.00 400.20
	h681.60
	M10.00 394.20
	h681.60
	M10.00 388.20
	h681.60
	M10.00 382.20
	h681.60
	" class="stroke"/>
</g>
<g stroke-width="0.70" style="font:bold 13.00px Times">
<text x="60.50" y="319.60">i</text>
</g>
<g stroke-width="0.70" style="font:bold 13.00px Times">
<text x="173.20" y="319.60">V</text>
</g>
<g stroke-width="0.70" style="font:bold 13.00px Times">
<text x="267.80" y="314.60">i</text>
</g>
<g stroke-width="0.70" style="font:bold 13.00px Times">
<text x="380.50" y="311.60">V</text>
</g>
<g stroke-width="0.70" style="font:bold 13.00px Times">
<text x="490.60" y="308.60">ii○<tspan
	 style="font:italic 11.00px Times">¹</tspan></text>
</g>
<g stroke-width="0.70" style="font:bold 13.00px Times">
<text x="611.90" y="314.60">i</text>
<use x="22.00" y="342.20" xlink:href="#tclef"/>
<use x="37.00" y="336.20" xlink:href="#ft0"/>
<use x="42.50" y="327.20" xlink:href="#ft0"/>
<use x="62.00" y="330.20" xlink:href="#hd"/>
<path d="M58.50 330.20v21.00" class="stroke"/>
<use x="84.90" y="333.20" xlink:href="#hd"/>
<path d="M81.40 333.20v21.00" class="stroke"/>
<use x="107.90" y="336.20" xlink:href="#Hd"/>
<path d="M104.40 336.20v21.00" class="stroke"/>
<use x="139.90" y="336.20" xlink:href="#Hd"/>
<path d="M136.40 336.20v21.00" class="stroke"/>
<use x="177.10" y="333.20" xlink:href="#hd"/>
<path d="M173.60 333.20v21.00" class="stroke"/>
<use x="200.00" y="336.20" xlink:href="#hd"/>
<path d="M196.50 336.20v21.00" class="stroke"/>
<use x="224.10" y="339.20" xlink:href="#HD"/>
<use x="269.30" y="342.20" xlink:href="#hd"/>
<path d="M272.80 342.20v-21.00" class="stroke"/>
<use x="292.20" y="345.20" xlink:href="#hd"/>
<path d="M295.70 345.20v-21.00" class="stroke"/>
<use x="315.20" y="342.20" xlink:href="#Hd"/>
<path d="M318.70 342.20v-21.00" class="stroke"/>
<use x="347.30" y="336.20" xlink:href="#Hd"/>
<path d="M350.80 336.20v-21.00" class="stroke"/>
<use x="384.40" y="339.20" xlink:href="#hd"/>
<path d="M387.90 339.20v-21.00" class="stroke"/>
<use x="407.30" y="342.20" xlink:href="#hd"/>
<path d="M410.80 342.20v-21.00" class="stroke"/>
<use x="430.30" y="339.20" xlink:href="#Hd"/>
<path d="M433.80 339.20v-21.00" class="stroke"/>
<use x="462.40" y="339.20" xlink:href="#Hd"/>
<path d="M465.90 339.20v-21.00" class="stroke"/>
<use x="498.00" y="336.20" xlink:href="#hd"/>
<path d="M501.50 336.20v-21.00" class="stroke"/>
<use x="520.90" y="339.20" xlink:href="#hd"/>
<path d="M524.40 339.20v-21.00" class="stroke"/>
<use x="544.10" y="342.20" xlink:href="#Hd"/>
<path d="M547.60 342.20v-21.00" class="stroke"/>
<use x="576.20" y="339.20" xlink:href="#Hd"/>
<path d="M579.70 339.20v-21.00" class="stroke"/>
<use x="613.40" y="342.20" xlink:href="#hd"/>
<path d="M616.90 342.20v-21.00" class="stroke"/>
<use x="636.30" y="345.20" xlink:href="#hd"/>
<path d="M639.80 345.20v-21.00" class="stroke"/>
<use x="660.40" y="342.20" xlink:href="#HD"/>
<use x="22.00" y="388.20" xlink:href="#bclef"/>
<use x="37.00" y="400.20" xlink:href="#ft0"/>
<use x="42.50" y="391.20" xlink:href="#ft0"/>
<use x="63.00" y="376.20" xlink:href="#hl1"/>
<use x="63.00" y="373.20" xlink:href="#HD"/>
<circle class="fill" cx="74.70" cy="373.20" r="1.2"/>
<use x="63.00" y="406.20" xlink:href="#HD"/>
<circle class="fill" cx="74.70" cy="403.20" r="1.2"/>
<use x="63.00" y="385.20" xlink:href="#HD"/>
<circle class="fill" cx="74.70" cy="385.20" r="1.2"/>
<use x="63.00" y="379.20" xlink:href="#HD"/>
<circle class="fill" cx="74.70" cy="379.20" r="1.2"/>
<use x="178.10" y="412.20" xlink:href="#hl1"/>
<use x="178.10" y="415.20" xlink:href="#HD"/>
<circle class="fill" cx="187.80" cy="415.20" r="1.2"/>
<use x="178.10" y="394.20" xlink:href="#HD"/>
<circle class="fill" cx="187.80" cy="391.20" r="1.2"/>
<use x="178.10" y="388.20" xlink:href="#HD"/>
<circle class="fill" cx="187.80" cy="385.20" r="1.2"/>
<use x="178.10" y="382.20" xlink:href="#HD"/>
<circle class="fill" cx="187.80" cy="379.20" r="1.2"/>
<use x="270.30" y="376.20" xlink:href="#hl1"/>
<use x="270.30" y="373.20" xlink:href="#HD"/>
<circle class="fill" cx="280.00" cy="373.20" r="1.2"/>
<use x="270.30" y="406.20" xlink:href="#HD"/>
<circle class="fill" cx="280.00" cy="403.20" r="1.2"/>
<use x="270.30" y="385.20" xlink:href="#HD"/>
<circle class="fill" cx="280.00" cy="385.20" r="1.2"/>
<use x="270.30" y="379.20" xlink:href="#HD"/>
<circle class="fill" cx="280.00" cy="379.20" r="1.2"/>
<use x="385.40" y="412.20" xlink:href="#hl1"/>
<use x="385.40" y="415.20" xlink:href="#HD"/>
<circle class="fill" cx="395.10" cy="415.20" r="1.2"/>
<use x="385.40" y="394.20" xlink:href="#HD"/>
<circle class="fill" cx="395.10" cy="391.20" r="1.2"/>
<use x="385.40" y="388.20" xlink:href="#HD"/>
<circle class="fill" cx="395.10" cy="385.20" r="1.2"/>
<use x="385.40" y="382.20" xlink:href="#HD"/>
<circle class="fill" cx="395.10" cy="379.20" r="1.2"/>
<use x="498.00" y="400.20" xlink:href="#hd"/>
<path d="M501.50 400.20v-21.00" class="stroke"/>
<use x="520.90" y="394.20" xlink:href="#hd"/>
<path d="M524.40 394.20v-21.00" class="stroke"/>
<use x="545.10" y="388.20" xlink:href="#HD"/>
<use x="614.40" y="376.20" xlink:href="#hl1"/>
<use x="614.40" y="373.20" xlink:href="#HD"/>
<circle class="fill" cx="624.10" cy="373.20" r="1.2"/>
<use x="614.40" y="406.20" xlink:href="#HD"/>
<circle class="fill" cx="624.10" cy="403.20" r="1.2"/>
<use x="614.40" y="385.20" xlink:href="#HD"/>
<circle class="fill" cx="624.10" cy="385.20" r="1.2"/>
<use x="614.40" y="379.20" xlink:href="#HD"/>
<circle class="fill" cx="624.10" cy="379.20" r="1.2"/>
</g>
</svg>
