<?xml version="1.0" standalone="no"?>
<!DOCTYPE svg PUBLIC "-//W3C//DTD SVG 1.1//EN"
	"http://www.w3.org/Graphics/SVG/1.1/DTD/svg11.dtd">
<svg xmlns="http://www.w3.org/2000/svg" version="1.1"
	xmlns:xlink="http://www.w3.org/1999/xlink"
	color="black"
	width="701.60px" height="432.40px" viewBox="0 0 701.60 432.40" preserveAspectRatio="xMidYMid meet">
<style type="text/css">
.fill {fill: currentColor}
.stroke {stroke: currentColor; fill: none}
text{white-space: pre}
</style>
<title>/tmp/retab_hymnal_L5/that_men_a_godly_life_might_live.abc (1) tune 1</title>
<!-- Creator: abcm2ps-8.14.11 -->
<!-- CreationDate: Apr 24, 2026 15:39 -->
<!-- CommandLine: /tmp/retab_hymnal_L5/that_men_a_godly_life_might_live.abc -g -O /tmp/retab_hymnal_L5/that_men_a_godly_life_might_live -->
<g stroke-width="0.70">
<!-- title: 224. That Men a godly Life Might Live -->
</g>
<g stroke-width="0.70" style="font:20.00px Times">
<text x="350.80" y="22.00" text-anchor="middle">224. That Men a godly Life Might Live</text>
</g>
<g stroke-width="0.70" style="font:20.00px Times">
<path class="stroke" stroke-width="1"
	d="M10.00 143.00v-82.00"/>
<defs>
<path id="brace" class="fill" d="m-2.5 101
	c-4.5 -4.6 -7.5 -12.2 -4.4 -26.8
	3.5 -14.3 3.2 -21.7 -2.1 -24.2
	7.4 2.4 7.3 14.2 3.5 29.5
	-2.7 9.5 -1.5 16.2 3 21.5
	M-2.5 1c-4.5 4.6 -7.5 12.2 -4.4 26.8
	c3.5 14.3 3.2 21.7 -2.1 24.2
	7.4 -2.4 7.3 -14.2 3.5 -29.5
	-2.7 -9.5 -1.5 -16.2 3 -21.5"/>
</defs>
<g transform="translate(10.00,61.00) scale(1,0.82)">
	<use xlink:href="#brace"/>
</g>
<path class="stroke" stroke-width="1"
	d="M187.80 85.00v-24.00"/>
<path class="stroke" stroke-width="1"
	d="M187.80 143.00v-24.00"/>
<path class="stroke" stroke-width="1"
	d="M329.50 85.00v-24.00"/>
<path class="stroke" stroke-width="1"
	d="M329.50 143.00v-24.00"/>
<path class="stroke" stroke-width="1"
	d="M458.00 85.00v-24.00"/>
<path class="stroke" stroke-width="1"
	d="M458.00 143.00v-24.00"/>
<path class="stroke" stroke-width="1"
	d="M584.30 85.00v-24.00"/>
<path class="stroke" stroke-width="1"
	d="M584.30 143.00v-24.00"/>
<path class="stroke" stroke-width="1"
	d="M691.60 85.00v-24.00"/>
<path class="stroke" stroke-width="1"
	d="M691.60 143.00v-24.00"/>
<path d="m10.00 85.00
	h681.60
	M10.00 79.00
	h681.60
	M10.00 73.00
	h681.60
	M10.00 67.00
	h681.60
	M10.00 61.00
	h681.60
	" class="stroke"/>
<path d="m10.00 143.00
	h681.60
	M10.00 137.00
	h681.60
	M10.00 131.00
	h681.60
	M10.00 125.00
	h681.60
	M10.00 119.00
	h681.60
	" class="stroke"/>
</g>
<g stroke-width="0.70" style="font:bold 13.00px Times">
<text x="68.30" y="56.40">vi</text>
</g>
<g stroke-width="0.70" style="font:bold 13.00px Times">
<text x="192.60" y="51.40">IV<tspan
	 style="font:italic 11.00px Times">⁷</tspan></text>
</g>
<g stroke-width="0.70" style="font:bold 13.00px Times">
<text x="336.70" y="56.40">IV</text>
</g>
<g stroke-width="0.70" style="font:bold 13.00px Times">
<text x="466.10" y="56.40">V<tspan
	 style="font:italic 11.00px Times">⁷</tspan></text>
</g>
<g stroke-width="0.70" style="font:bold 13.00px Times">
<text x="592.50" y="48.40">IV</text>
<defs>
<path id="utclef" class="fill" d="m-50 -90
	c-72 -41 -72 -158 52 -188
	150 -10 220 188 90 256
	-114 52 -275 0 -293 -136
	-15 -181 93 -229 220 -334
	88 -87 79 -133 62 -210
	-51 33 -94 105 -89 186
	17 267 36 374 49 574
	6 96 -19 134 -77 135
	-80 1 -126 -93 -61 -133
	85 -41 133 101 31 105
	23 17 92 37 90 -92
	-10 -223 -39 -342 -50 -617
	0 -90 0 -162 96 -232
	56 72 63 230 22 289
	-74 106 -257 168 -255 316
	9 153 148 185 252 133
	86 -65 29 -192 -80 -176
	-71 12 -105 67 -59 124"/>
<use id="tclef" transform="translate(0,6) scale(0.045)"
	xlink:href="#utclef"/>
</defs>
<use x="22.00" y="79.00" xlink:href="#tclef"/>
<defs>
<path id="usharp" class="fill" d="
	m136 -702
	v890
	h32
	v-890
	m128 840
	h32
	v-888
	h-32
	m-232 286
	v116
	l338 -96
	v-116
	m-338 442
	v116
	l338 -98
	v-114"/>
<use id="sh0" transform="translate(-4,5) scale(0.018)"
	xlink:href="#usharp"/>
</defs>
<use x="37.00" y="61.00" xlink:href="#sh0"/>
<g style="font:bold 16px serif"
	transform="translate(53.00,84.50) scale(1.2,1)">
	<text text-anchor="middle">4</text>
	<text y="-12" text-anchor="middle">4</text>
</g>
<defs>
<path id="r4" class="fill" d="m-1 -8.5
	l3.6 5.1 -2.1 5.2 2.2 4.3
	c-2.6 -2.3 -5.1 0 -2.4 2.6
	-4.8 -3 -1.5 -6.9 1.4 -4.1
	l-3.1 -4.5 1.9 -5.1 -1.5 -3.5"/>
</defs>
<use x="72.50" y="73.00" xlink:href="#r4"/>
<defs>
<ellipse id="hd" rx="4.1" ry="2.9"
	transform="rotate(-20)" class="fill"/>
</defs>
<use x="103.60" y="79.00" xlink:href="#hd"/>
<path d="M107.10 79.00v-21.00" class="stroke"/>
<use x="134.70" y="79.00" xlink:href="#hd"/>
<path d="M138.20 79.00v-21.00" class="stroke"/>
<use x="165.80" y="79.00" xlink:href="#hd"/>
<path d="M169.30 79.00v-21.00" class="stroke"/>
<use x="200.30" y="79.00" xlink:href="#hd"/>
<path d="M203.80 79.00v-21.00" class="stroke"/>
<use x="231.60" y="79.00" xlink:href="#hd"/>
<path d="M235.10 79.00v-21.00" class="stroke"/>
<use x="262.70" y="79.00" xlink:href="#hd"/>
<path d="M266.20 79.00v-21.00" class="stroke"/>
<path class="fill"
	d="M266.20 58.00c0.6 5.6 9.6 9 5.6 18.4
	1.6 -6 -1.3 -11.6 -5.6 -12.8
"/>
<use x="285.00" y="76.00" xlink:href="#hd"/>
<path d="M288.50 76.00v-21.00" class="stroke"/>
<path class="fill"
	d="M288.50 55.00c0.6 5.6 9.6 9 5.6 18.4
	1.6 -6 -1.3 -11.6 -5.6 -12.8
"/>
<use x="307.40" y="73.00" xlink:href="#hd"/>
<path d="M310.90 73.00v-21.00" class="stroke"/>
<defs>
<path id="Hd" class="fill" d="m3 -1.6
	c-1 -1.8 -7 1.4 -6 3.2
	1 1.8 7 -1.4 6 -3.2
	m0.5 -0.3
	c2 3.8 -5 7.6 -7 3.8
	-2 -3.8 5 -7.6 7 -3.8"/>
</defs>
<use x="342.50" y="70.00" xlink:href="#Hd"/>
<path d="M339.00 70.00v21.00" class="stroke"/>
<use x="404.80" y="73.00" xlink:href="#r4"/>
<use x="435.90" y="70.00" xlink:href="#hd"/>
<path d="M432.40 70.00v21.00" class="stroke"/>
<use x="472.00" y="67.00" xlink:href="#hd"/>
<path d="M468.50 67.00v21.00" class="stroke"/>
<use x="503.10" y="67.00" xlink:href="#hd"/>
<path d="M499.60 67.00v21.00" class="stroke"/>
<use x="534.20" y="70.00" xlink:href="#hd"/>
<path d="M530.70 70.00v21.00" class="stroke"/>
<use x="562.20" y="79.00" xlink:href="#hd"/>
<path d="M565.70 79.00v-21.00" class="stroke"/>
<use x="598.30" y="76.00" xlink:href="#hd"/>
<path d="M601.80 76.00v-21.00" class="stroke"/>
<use x="629.40" y="73.00" xlink:href="#hd"/>
<path d="M632.90 73.00v-21.00" class="stroke"/>
<use x="660.60" y="70.00" xlink:href="#Hd"/>
<path d="M657.10 70.00v21.00" class="stroke"/>
<defs>
<path id="ubclef" class="fill" d="m-200 -87
	c124 -35 222 -78 254 -236
	43 -228 -167 -246 -192 -103
	59 -80 157 22 92 78
	-62 47 -115 -22 -106 -88
	21 -141 270 -136 274 52
	-1 175 -106 264 -322 297
	m357 -250
	c0 -36 51 -34 51 0
	0 37 -51 36 -51 0
	m-2 -129
	c0 -36 51 -34 51 0
	0 38 -51 37 -51 0"/>
<use id="bclef" transform="translate(0,18) scale(0.045)"
	xlink:href="#ubclef"/>
</defs>
<use x="22.00" y="125.00" xlink:href="#bclef"/>
<use x="37.00" y="125.00" xlink:href="#sh0"/>
<g style="font:bold 16px serif"
	transform="translate(53.00,142.50) scale(1.2,1)">
	<text text-anchor="middle">4</text>
	<text y="-12" text-anchor="middle">4</text>
</g>
<defs>
<path id="hl1" class="stroke" d="m-7 0h14"/>
</defs>
<use x="73.50" y="149.00" xlink:href="#hl1"/>
<defs>
<path id="HD" class="fill" d="m-2.7 -1.4
	c1.5 -2.8 6.9 0 5.3 2.7
	-1.5 2.8 -6.9 0 -5.3 -2.7
	m8.3 1.4
	c0 -1.5 -2.2 -3 -5.6 -3
	-3.4 0 -5.6 1.5 -5.6 3
	0 1.5 2.2 3 5.6 3
	3.4 0 5.6 -1.5 5.6 -3"/>
</defs>
<use x="73.50" y="149.00" xlink:href="#HD"/>
<use x="73.50" y="128.00" xlink:href="#HD"/>
<use x="73.50" y="122.00" xlink:href="#HD"/>
<use x="73.50" y="116.00" xlink:href="#HD"/>
<use x="200.30" y="134.00" xlink:href="#hd"/>
<path d="M203.80 134.00v-21.00" class="stroke"/>
<use x="231.60" y="128.00" xlink:href="#hd"/>
<path d="M228.10 128.00v21.00" class="stroke"/>
<use x="262.70" y="122.00" xlink:href="#hd"/>
<path d="M259.20 122.00v21.00" class="stroke"/>
<use x="307.40" y="128.00" xlink:href="#hd"/>
<path d="M303.90 128.00v21.00" class="stroke"/>
<use x="342.50" y="134.00" xlink:href="#hd"/>
<path d="M346.00 134.00v-21.00" class="stroke"/>
<use x="373.70" y="128.00" xlink:href="#hd"/>
<path d="M370.20 128.00v21.00" class="stroke"/>
<use x="404.80" y="122.00" xlink:href="#Hd"/>
<path d="M401.30 122.00v21.00" class="stroke"/>
<use x="473.00" y="149.00" xlink:href="#hl1"/>
<use x="473.00" y="152.00" xlink:href="#HD"/>
<use x="473.00" y="131.00" xlink:href="#HD"/>
<use x="473.00" y="125.00" xlink:href="#HD"/>
<use x="473.00" y="119.00" xlink:href="#HD"/>
<use x="599.30" y="149.00" xlink:href="#hl1"/>
<use x="599.30" y="155.00" xlink:href="#hl1"/>
<use x="599.30" y="155.00" xlink:href="#HD"/>
<use x="599.30" y="134.00" xlink:href="#HD"/>
<use x="599.30" y="128.00" xlink:href="#HD"/>
<use x="599.30" y="122.00" xlink:href="#HD"/>
</g>
<g stroke-width="0.70" style="font:bold 13.00px Times">
<path class="stroke" stroke-width="1"
	d="M10.00 271.00v-82.00"/>
<g transform="translate(10.00,189.00) scale(1,0.82)">
	<use xlink:href="#brace"/>
</g>
<path class="stroke" stroke-width="1"
	d="M181.30 213.00v-24.00"/>
<path class="stroke" stroke-width="1"
	d="M181.30 271.00v-24.00"/>
<path class="stroke" stroke-width="1"
	d="M320.20 213.00v-24.00"/>
<path class="stroke" stroke-width="1"
	d="M320.20 271.00v-24.00"/>
<path class="stroke" stroke-width="1"
	d="M459.50 213.00v-24.00"/>
<path class="stroke" stroke-width="1"
	d="M459.50 271.00v-24.00"/>
<path class="stroke" stroke-width="1"
	d="M575.60 213.00v-24.00"/>
<path class="stroke" stroke-width="1"
	d="M575.60 271.00v-24.00"/>
<path class="stroke" stroke-width="1"
	d="M691.60 213.00v-24.00"/>
<path class="stroke" stroke-width="1"
	d="M691.60 271.00v-24.00"/>
<path d="m10.00 213.00
	h681.60
	M10.00 207.00
	h681.60
	M10.00 201.00
	h681.60
	M10.00 195.00
	h681.60
	M10.00 189.00
	h681.60
	" class="stroke"/>
<path d="m10.00 271.00
	h681.60
	M10.00 265.00
	h681.60
	M10.00 259.00
	h681.60
	M10.00 253.00
	h681.60
	M10.00 247.00
	h681.60
	" class="stroke"/>
</g>
<g stroke-width="0.70" style="font:bold 13.00px Times">
<text x="51.10" y="184.40">V</text>
</g>
<g stroke-width="0.70" style="font:bold 13.00px Times">
<text x="188.10" y="184.40">IV</text>
</g>
<g stroke-width="0.70" style="font:bold 13.00px Times">
<text x="325.20" y="182.40">vii○</text>
</g>
<g stroke-width="0.70" style="font:bold 13.00px Times">
<text x="471.60" y="176.40">I</text>
</g>
<g stroke-width="0.70" style="font:bold 13.00px Times">
<text x="587.70" y="184.40">I</text>
<use x="22.00" y="207.00" xlink:href="#tclef"/>
<use x="37.00" y="189.00" xlink:href="#sh0"/>
<use x="55.00" y="201.00" xlink:href="#r4"/>
<use x="89.10" y="198.00" xlink:href="#hd"/>
<path d="M85.60 198.00v21.00" class="stroke"/>
<use x="123.20" y="195.00" xlink:href="#hd"/>
<path d="M119.70 195.00v21.00" class="stroke"/>
<use x="157.30" y="195.00" xlink:href="#hd"/>
<path d="M153.80 195.00v21.00" class="stroke"/>
<use x="193.80" y="198.00" xlink:href="#hd"/>
<path d="M190.30 198.00v21.00" class="stroke"/>
<use x="228.00" y="207.00" xlink:href="#hd"/>
<path d="M231.50 207.00v-21.00" class="stroke"/>
<use x="262.10" y="204.00" xlink:href="#hd"/>
<path d="M265.60 204.00v-21.00" class="stroke"/>
<use x="296.20" y="207.00" xlink:href="#hd"/>
<path d="M299.70 207.00v-21.00" class="stroke"/>
<use x="333.20" y="210.00" xlink:href="#Hd"/>
<path d="M336.70 210.00v-21.00" class="stroke"/>
<use x="401.40" y="201.00" xlink:href="#r4"/>
<use x="435.40" y="210.00" xlink:href="#hd"/>
<path d="M438.90 210.00v-21.00" class="stroke"/>
<use x="473.50" y="204.00" xlink:href="#hd"/>
<path d="M477.00 204.00v-21.00" class="stroke"/>
<use x="507.50" y="201.00" xlink:href="#hd"/>
<path d="M511.00 201.00v-21.00" class="stroke"/>
<use x="541.70" y="198.00" xlink:href="#Hd"/>
<path d="M538.20 198.00v21.00" class="stroke"/>
<use x="589.60" y="201.00" xlink:href="#hd"/>
<path d="M586.10 201.00v21.00" class="stroke"/>
<use x="623.60" y="207.00" xlink:href="#hd"/>
<path d="M627.10 207.00v-21.00" class="stroke"/>
<use x="657.70" y="201.00" xlink:href="#Hd"/>
<path d="M661.20 201.00v-21.00" class="stroke"/>
<use x="22.00" y="253.00" xlink:href="#bclef"/>
<use x="37.00" y="253.00" xlink:href="#sh0"/>
<use x="55.00" y="259.00" xlink:href="#hd"/>
<path d="M58.50 259.00v-21.00" class="stroke"/>
<use x="89.10" y="253.00" xlink:href="#hd"/>
<path d="M85.60 253.00v21.00" class="stroke"/>
<use x="123.20" y="247.00" xlink:href="#hd"/>
<path d="M119.70 247.00v21.00" class="stroke"/>
<use x="157.30" y="253.00" xlink:href="#hd"/>
<path d="M153.80 253.00v21.00" class="stroke"/>
<use x="193.80" y="262.00" xlink:href="#hd"/>
<path d="M197.30 262.00v-21.00" class="stroke"/>
<use x="228.00" y="256.00" xlink:href="#hd"/>
<path d="M224.50 256.00v21.00" class="stroke"/>
<use x="262.10" y="250.00" xlink:href="#hd"/>
<path d="M258.60 250.00v21.00" class="stroke"/>
<use x="296.20" y="256.00" xlink:href="#hd"/>
<path d="M292.70 256.00v21.00" class="stroke"/>
<use x="333.20" y="271.00" xlink:href="#hd"/>
<path d="M336.70 271.00v-21.00" class="stroke"/>
<use x="367.30" y="265.00" xlink:href="#hd"/>
<path d="M370.80 265.00v-21.00" class="stroke"/>
<use x="401.40" y="259.00" xlink:href="#Hd"/>
<path d="M404.90 259.00v-21.00" class="stroke"/>
<use x="474.50" y="277.00" xlink:href="#hl1"/>
<use x="474.50" y="283.00" xlink:href="#hl1"/>
<use x="474.50" y="289.00" xlink:href="#hl1"/>
<use x="474.50" y="292.00" xlink:href="#HD"/>
<use x="474.50" y="271.00" xlink:href="#HD"/>
<use x="474.50" y="265.00" xlink:href="#HD"/>
<use x="474.50" y="259.00" xlink:href="#HD"/>
<use x="590.60" y="277.00" xlink:href="#hl1"/>
<use x="590.60" y="283.00" xlink:href="#hl1"/>
<use x="590.60" y="289.00" xlink:href="#hl1"/>
<use x="590.60" y="292.00" xlink:href="#HD"/>
<use x="590.60" y="271.00" xlink:href="#HD"/>
<use x="590.60" y="265.00" xlink:href="#HD"/>
<use x="590.60" y="259.00" xlink:href="#HD"/>
</g>
<g stroke-width="0.70" style="font:bold 13.00px Times">
<path class="stroke" stroke-width="1"
	d="M10.00 405.40v-82.00"/>
<g transform="translate(10.00,323.40) scale(1,0.82)">
	<use xlink:href="#brace"/>
</g>
<path class="stroke" stroke-width="1"
	d="M191.20 347.40v-24.00"/>
<path class="stroke" stroke-width="1"
	d="M191.20 405.40v-24.00"/>
<path class="stroke" stroke-width="1"
	d="M261.40 347.40v-24.00"/>
<path class="stroke" stroke-width="1"
	d="M261.40 405.40v-24.00"/>
<path d="m10.00 347.40
	h251.40
	M10.00 341.40
	h251.40
	M10.00 335.40
	h251.40
	M10.00 329.40
	h251.40
	M10.00 323.40
	h251.40
	" class="stroke"/>
<path d="m10.00 405.40
	h251.40
	M10.00 399.40
	h251.40
	M10.00 393.40
	h251.40
	M10.00 387.40
	h251.40
	M10.00 381.40
	h251.40
	" class="stroke"/>
</g>
<g stroke-width="0.70" style="font:bold 13.00px Times">
<text x="53.20" y="307.80">I</text>
</g>
<g stroke-width="0.70" style="font:bold 13.00px Times">
<text x="201.60" y="318.80">I<tspan
	 style="font:italic 11.00px Times">¹</tspan></text>
</g>
<g stroke-width="0.70" style="font:italic 11.00px Times">
<use x="22.00" y="341.40" xlink:href="#tclef"/>
<use x="37.00" y="323.40" xlink:href="#sh0"/>
<use x="55.00" y="335.40" xlink:href="#hd"/>
<circle class="fill" cx="62.70" cy="332.40" r="1.2"/>
<path d="M58.50 335.40v-21.00" class="stroke"/>
<use x="123.30" y="338.40" xlink:href="#hd"/>
<path d="M126.80 338.40v-21.00" class="stroke"/>
<path class="fill"
	d="M126.80 317.40c0.6 5.6 9.6 9 5.6 18.4
	1.6 -6 -1.3 -11.6 -5.6 -12.8
"/>
<use x="151.60" y="341.40" xlink:href="#Hd"/>
<path d="M155.10 341.40v-21.00" class="stroke"/>
<use x="206.40" y="341.40" xlink:href="#HD"/>
<use x="22.00" y="387.40" xlink:href="#bclef"/>
<use x="37.00" y="387.40" xlink:href="#sh0"/>
<use x="55.00" y="405.40" xlink:href="#hd"/>
<path d="M58.50 405.40v-21.00" class="stroke"/>
<use x="95.00" y="399.40" xlink:href="#hd"/>
<path d="M98.50 399.40v-21.00" class="stroke"/>
<use x="151.60" y="393.40" xlink:href="#Hd"/>
<path d="M155.10 393.40v-21.00" class="stroke"/>
<use x="206.40" y="411.40" xlink:href="#hl1"/>
<use x="206.40" y="417.40" xlink:href="#hl1"/>
<use x="206.40" y="423.40" xlink:href="#hl1"/>
<use x="206.40" y="426.40" xlink:href="#HD"/>
<use x="206.40" y="405.40" xlink:href="#HD"/>
<use x="206.40" y="399.40" xlink:href="#HD"/>
<use x="206.40" y="393.40" xlink:href="#HD"/>
</g>
</svg>
