<?xml version="1.0" standalone="no"?>
<!DOCTYPE svg PUBLIC "-//W3C//DTD SVG 1.1//EN"
	"http://www.w3.org/Graphics/SVG/1.1/DTD/svg11.dtd">
<svg xmlns="http://www.w3.org/2000/svg" version="1.1"
	xmlns:xlink="http://www.w3.org/1999/xlink"
	color="black"
	width="701.60px" height="562.00px" viewBox="0 0 701.60 562.00" preserveAspectRatio="xMidYMid meet">
<style type="text/css">
.fill {fill: currentColor}
.stroke {stroke: currentColor; fill: none}
text{white-space: pre}
</style>
<title>/tmp/retab_hymnal_L5/the_mouth_of_fools_doth_god_confess.abc (1) tune 1</title>
<!-- Creator: abcm2ps-8.14.11 -->
<!-- CreationDate: Apr 24, 2026 15:39 -->
<!-- CommandLine: /tmp/retab_hymnal_L5/the_mouth_of_fools_doth_god_confess.abc -g -O /tmp/retab_hymnal_L5/the_mouth_of_fools_doth_god_confess -->
<g stroke-width="0.70">
<!-- title: 242. The Mouth of Fools Doth God Confess -->
</g>
<g stroke-width="0.70" style="font:20.00px Times">
<text x="350.80" y="22.00" text-anchor="middle">242. The Mouth of Fools Doth God Confess</text>
</g>
<g stroke-width="0.70" style="font:20.00px Times">
<path class="stroke" stroke-width="1"
	d="M10.00 143.00v-82.00"/>
<defs>
<path id="brace" class="fill" d="m-2.5 101
	c-4.5 -4.6 -7.5 -12.2 -4.4 -26.8
	3.5 -14.3 3.2 -21.7 -2.1 -24.2
	7.4 2.4 7.3 14.2 3.5 29.5
	-2.7 9.5 -1.5 16.2 3 21.5
	M-2.5 1c-4.5 4.6 -7.5 12.2 -4.4 26.8
	c3.5 14.3 3.2 21.7 -2.1 24.2
	7.4 -2.4 7.3 -14.2 3.5 -29.5
	-2.7 -9.5 -1.5 -16.2 3 -21.5"/>
</defs>
<g transform="translate(10.00,61.00) scale(1,0.82)">
	<use xlink:href="#brace"/>
</g>
<path class="stroke" stroke-width="1"
	d="M159.60 85.00v-24.00"/>
<path class="stroke" stroke-width="1"
	d="M159.60 143.00v-24.00"/>
<path class="stroke" stroke-width="1"
	d="M275.90 85.00v-24.00"/>
<path class="stroke" stroke-width="1"
	d="M275.90 143.00v-24.00"/>
<path class="stroke" stroke-width="1"
	d="M392.80 85.00v-24.00"/>
<path class="stroke" stroke-width="1"
	d="M392.80 143.00v-24.00"/>
<path class="stroke" stroke-width="1"
	d="M509.40 85.00v-24.00"/>
<path class="stroke" stroke-width="1"
	d="M509.40 143.00v-24.00"/>
<path class="stroke" stroke-width="1"
	d="M590.50 85.00v-24.00"/>
<path class="stroke" stroke-width="1"
	d="M590.50 143.00v-24.00"/>
<path class="stroke" stroke-width="1"
	d="M691.60 85.00v-24.00"/>
<path class="stroke" stroke-width="1"
	d="M691.60 143.00v-24.00"/>
<path d="m10.00 85.00
	h681.60
	M10.00 79.00
	h681.60
	M10.00 73.00
	h681.60
	M10.00 67.00
	h681.60
	M10.00 61.00
	h681.60
	" class="stroke"/>
<path d="m10.00 143.00
	h681.60
	M10.00 137.00
	h681.60
	M10.00 131.00
	h681.60
	M10.00 125.00
	h681.60
	M10.00 119.00
	h681.60
	" class="stroke"/>
</g>
<g stroke-width="0.70" style="font:bold 13.00px Times">
<text x="70.70" y="51.40">I</text>
</g>
<g stroke-width="0.70" style="font:bold 13.00px Times">
<text x="167.50" y="56.40">iii</text>
</g>
<g stroke-width="0.70" style="font:bold 13.00px Times">
<text x="283.20" y="51.40">IV</text>
</g>
<g stroke-width="0.70" style="font:bold 13.00px Times">
<text x="397.60" y="51.40">IV<tspan
	 style="font:italic 11.00px Times">⁷</tspan></text>
</g>
<g stroke-width="0.70" style="font:bold 13.00px Times">
<text x="519.40" y="48.40">V</text>
</g>
<g stroke-width="0.70" style="font:bold 13.00px Times">
<text x="602.70" y="51.40">I</text>
<defs>
<path id="utclef" class="fill" d="m-50 -90
	c-72 -41 -72 -158 52 -188
	150 -10 220 188 90 256
	-114 52 -275 0 -293 -136
	-15 -181 93 -229 220 -334
	88 -87 79 -133 62 -210
	-51 33 -94 105 -89 186
	17 267 36 374 49 574
	6 96 -19 134 -77 135
	-80 1 -126 -93 -61 -133
	85 -41 133 101 31 105
	23 17 92 37 90 -92
	-10 -223 -39 -342 -50 -617
	0 -90 0 -162 96 -232
	56 72 63 230 22 289
	-74 106 -257 168 -255 316
	9 153 148 185 252 133
	86 -65 29 -192 -80 -176
	-71 12 -105 67 -59 124"/>
<use id="tclef" transform="translate(0,6) scale(0.045)"
	xlink:href="#utclef"/>
</defs>
<use x="22.00" y="79.00" xlink:href="#tclef"/>
<defs>
<path id="usharp" class="fill" d="
	m136 -702
	v890
	h32
	v-890
	m128 840
	h32
	v-888
	h-32
	m-232 286
	v116
	l338 -96
	v-116
	m-338 442
	v116
	l338 -98
	v-114"/>
<use id="sh0" transform="translate(-4,5) scale(0.018)"
	xlink:href="#usharp"/>
</defs>
<use x="37.00" y="61.00" xlink:href="#sh0"/>
<g style="font:bold 16px serif"
	transform="translate(53.00,84.50) scale(1.2,1)">
	<text text-anchor="middle">4</text>
	<text y="-12" text-anchor="middle">4</text>
</g>
<defs>
<path id="Hd" class="fill" d="m3 -1.6
	c-1 -1.8 -7 1.4 -6 3.2
	1 1.8 7 -1.4 6 -3.2
	m0.5 -0.3
	c2 3.8 -5 7.6 -7 3.8
	-2 -3.8 5 -7.6 7 -3.8"/>
</defs>
<use x="72.50" y="79.00" xlink:href="#Hd"/>
<path d="M76.00 79.00v-21.00" class="stroke"/>
<defs>
<ellipse id="hd" rx="4.1" ry="2.9"
	transform="rotate(-20)" class="fill"/>
</defs>
<use x="111.70" y="79.00" xlink:href="#hd"/>
<path d="M115.20 79.00v-21.00" class="stroke"/>
<use x="139.60" y="85.00" xlink:href="#hd"/>
<path d="M143.10 85.00v-21.00" class="stroke"/>
<use x="172.10" y="88.00" xlink:href="#hd"/>
<path d="M175.60 88.00v-21.00" class="stroke"/>
<use x="199.90" y="79.00" xlink:href="#hd"/>
<path d="M203.40 79.00v-21.00" class="stroke"/>
<use x="228.00" y="76.00" xlink:href="#hd"/>
<path d="M231.50 76.00v-21.00" class="stroke"/>
<use x="255.90" y="73.00" xlink:href="#hd"/>
<path d="M259.40 73.00v-21.00" class="stroke"/>
<use x="288.90" y="79.00" xlink:href="#Hd"/>
<path d="M292.40 79.00v-21.00" class="stroke"/>
<defs>
<path id="r4" class="fill" d="m-1 -8.5
	l3.6 5.1 -2.1 5.2 2.2 4.3
	c-2.6 -2.3 -5.1 0 -2.4 2.6
	-4.8 -3 -1.5 -6.9 1.4 -4.1
	l-3.1 -4.5 1.9 -5.1 -1.5 -3.5"/>
</defs>
<use x="344.90" y="73.00" xlink:href="#r4"/>
<use x="372.80" y="79.00" xlink:href="#hd"/>
<path d="M376.30 79.00v-21.00" class="stroke"/>
<use x="405.30" y="79.00" xlink:href="#hd"/>
<path d="M408.80 79.00v-21.00" class="stroke"/>
<use x="433.30" y="76.00" xlink:href="#hd"/>
<path d="M436.80 76.00v-21.00" class="stroke"/>
<use x="461.30" y="73.00" xlink:href="#hd"/>
<path d="M464.80 73.00v-21.00" class="stroke"/>
<use x="489.30" y="70.00" xlink:href="#hd"/>
<path d="M485.80 70.00v21.00" class="stroke"/>
<use x="523.40" y="76.00" xlink:href="#Hd"/>
<path d="M526.90 76.00v-21.00" class="stroke"/>
<use x="562.60" y="79.00" xlink:href="#Hd"/>
<path d="M566.10 79.00v-21.00" class="stroke"/>
<use x="604.50" y="79.00" xlink:href="#Hd"/>
<path d="M608.00 79.00v-21.00" class="stroke"/>
<use x="643.70" y="79.00" xlink:href="#hd"/>
<path d="M647.20 79.00v-21.00" class="stroke"/>
<use x="671.60" y="85.00" xlink:href="#hd"/>
<path d="M675.10 85.00v-21.00" class="stroke"/>
<defs>
<path id="ubclef" class="fill" d="m-200 -87
	c124 -35 222 -78 254 -236
	43 -228 -167 -246 -192 -103
	59 -80 157 22 92 78
	-62 47 -115 -22 -106 -88
	21 -141 270 -136 274 52
	-1 175 -106 264 -322 297
	m357 -250
	c0 -36 51 -34 51 0
	0 37 -51 36 -51 0
	m-2 -129
	c0 -36 51 -34 51 0
	0 38 -51 37 -51 0"/>
<use id="bclef" transform="translate(0,18) scale(0.045)"
	xlink:href="#ubclef"/>
</defs>
<use x="22.00" y="125.00" xlink:href="#bclef"/>
<use x="37.00" y="125.00" xlink:href="#sh0"/>
<g style="font:bold 16px serif"
	transform="translate(53.00,142.50) scale(1.2,1)">
	<text text-anchor="middle">4</text>
	<text y="-12" text-anchor="middle">4</text>
</g>
<defs>
<path id="hl1" class="stroke" d="m-7 0h14"/>
</defs>
<use x="73.50" y="149.00" xlink:href="#hl1"/>
<use x="73.50" y="155.00" xlink:href="#hl1"/>
<use x="73.50" y="161.00" xlink:href="#hl1"/>
<defs>
<path id="HD" class="fill" d="m-2.7 -1.4
	c1.5 -2.8 6.9 0 5.3 2.7
	-1.5 2.8 -6.9 0 -5.3 -2.7
	m8.3 1.4
	c0 -1.5 -2.2 -3 -5.6 -3
	-3.4 0 -5.6 1.5 -5.6 3
	0 1.5 2.2 3 5.6 3
	3.4 0 5.6 -1.5 5.6 -3"/>
</defs>
<use x="73.50" y="164.00" xlink:href="#HD"/>
<use x="73.50" y="143.00" xlink:href="#HD"/>
<use x="73.50" y="137.00" xlink:href="#HD"/>
<use x="73.50" y="131.00" xlink:href="#HD"/>
<use x="172.10" y="137.00" xlink:href="#hd"/>
<path d="M175.60 137.00v-21.00" class="stroke"/>
<use x="199.90" y="131.00" xlink:href="#hd"/>
<path d="M203.40 131.00v-21.00" class="stroke"/>
<use x="228.00" y="125.00" xlink:href="#hd"/>
<path d="M224.50 125.00v21.00" class="stroke"/>
<use x="255.90" y="131.00" xlink:href="#hd"/>
<path d="M252.40 131.00v21.00" class="stroke"/>
<use x="288.90" y="134.00" xlink:href="#hd"/>
<path d="M292.40 134.00v-21.00" class="stroke"/>
<use x="317.00" y="128.00" xlink:href="#hd"/>
<path d="M313.50 128.00v21.00" class="stroke"/>
<use x="344.90" y="122.00" xlink:href="#hd"/>
<path d="M341.40 122.00v21.00" class="stroke"/>
<use x="372.80" y="128.00" xlink:href="#hd"/>
<path d="M369.30 128.00v21.00" class="stroke"/>
<use x="405.30" y="134.00" xlink:href="#hd"/>
<path d="M408.80 134.00v-21.00" class="stroke"/>
<use x="433.30" y="128.00" xlink:href="#hd"/>
<path d="M429.80 128.00v21.00" class="stroke"/>
<use x="461.30" y="122.00" xlink:href="#Hd"/>
<path d="M457.80 122.00v21.00" class="stroke"/>
<use x="524.40" y="149.00" xlink:href="#hl1"/>
<use x="524.40" y="152.00" xlink:href="#HD"/>
<use x="524.40" y="131.00" xlink:href="#HD"/>
<use x="524.40" y="125.00" xlink:href="#HD"/>
<use x="524.40" y="119.00" xlink:href="#HD"/>
<use x="605.50" y="149.00" xlink:href="#hl1"/>
<use x="605.50" y="155.00" xlink:href="#hl1"/>
<use x="605.50" y="161.00" xlink:href="#hl1"/>
<use x="605.50" y="164.00" xlink:href="#HD"/>
<use x="605.50" y="143.00" xlink:href="#HD"/>
<use x="605.50" y="137.00" xlink:href="#HD"/>
<use x="605.50" y="131.00" xlink:href="#HD"/>
</g>
<g stroke-width="0.70" style="font:bold 13.00px Times">
<path class="stroke" stroke-width="1"
	d="M10.00 275.00v-82.00"/>
<g transform="translate(10.00,193.00) scale(1,0.82)">
	<use xlink:href="#brace"/>
</g>
<path class="stroke" stroke-width="1"
	d="M155.80 217.00v-24.00"/>
<path class="stroke" stroke-width="1"
	d="M155.80 275.00v-24.00"/>
<path class="stroke" stroke-width="1"
	d="M269.70 217.00v-24.00"/>
<path class="stroke" stroke-width="1"
	d="M269.70 275.00v-24.00"/>
<path class="stroke" stroke-width="1"
	d="M383.10 217.00v-24.00"/>
<path class="stroke" stroke-width="1"
	d="M383.10 275.00v-24.00"/>
<path class="stroke" stroke-width="1"
	d="M462.30 217.00v-24.00"/>
<path class="stroke" stroke-width="1"
	d="M462.30 275.00v-24.00"/>
<path class="stroke" stroke-width="1"
	d="M577.00 217.00v-24.00"/>
<path class="stroke" stroke-width="1"
	d="M577.00 275.00v-24.00"/>
<path class="stroke" stroke-width="1"
	d="M691.60 217.00v-24.00"/>
<path class="stroke" stroke-width="1"
	d="M691.60 275.00v-24.00"/>
<path d="m10.00 217.00
	h681.60
	M10.00 211.00
	h681.60
	M10.00 205.00
	h681.60
	M10.00 199.00
	h681.60
	M10.00 193.00
	h681.60
	" class="stroke"/>
<path d="m10.00 275.00
	h681.60
	M10.00 269.00
	h681.60
	M10.00 263.00
	h681.60
	M10.00 257.00
	h681.60
	M10.00 251.00
	h681.60
	" class="stroke"/>
</g>
<g stroke-width="0.70" style="font:bold 13.00px Times">
<text x="48.50" y="188.40">iii<tspan
	 style="font:italic 11.00px Times">⁷</tspan></text>
</g>
<g stroke-width="0.70" style="font:bold 13.00px Times">
<text x="163.10" y="183.40">IV</text>
</g>
<g stroke-width="0.70" style="font:bold 13.00px Times">
<text x="278.40" y="183.40">I<tspan
	 style="font:italic 11.00px Times">¹</tspan></text>
</g>
<g stroke-width="0.70" style="font:bold 13.00px Times">
<text x="393.30" y="180.40">I<tspan
	 style="font:italic 11.00px Times">⁷</tspan></text>
</g>
<g stroke-width="0.70" style="font:bold 13.00px Times">
<text x="472.10" y="188.40">vi</text>
</g>
<g stroke-width="0.70" style="font:bold 13.00px Times">
<text x="587.20" y="183.40">I<tspan
	 style="font:italic 11.00px Times">⁷</tspan></text>
</g>
<g stroke-width="0.70" style="font:italic 11.00px Times">
<use x="22.00" y="211.00" xlink:href="#tclef"/>
<use x="37.00" y="193.00" xlink:href="#sh0"/>
<use x="55.00" y="220.00" xlink:href="#hd"/>
<path d="M58.50 220.00v-21.00" class="stroke"/>
<use x="82.10" y="211.00" xlink:href="#hd"/>
<path d="M85.60 211.00v-21.00" class="stroke"/>
<use x="109.30" y="208.00" xlink:href="#hd"/>
<path d="M112.80 208.00v-21.00" class="stroke"/>
<use x="136.40" y="205.00" xlink:href="#hd"/>
<path d="M139.90 205.00v-21.00" class="stroke"/>
<use x="168.80" y="211.00" xlink:href="#Hd"/>
<path d="M172.30 211.00v-21.00" class="stroke"/>
<use x="223.20" y="205.00" xlink:href="#r4"/>
<use x="250.30" y="211.00" xlink:href="#hd"/>
<path d="M253.80 211.00v-21.00" class="stroke"/>
<use x="282.20" y="211.00" xlink:href="#hd"/>
<path d="M285.70 211.00v-21.00" class="stroke"/>
<use x="309.30" y="208.00" xlink:href="#hd"/>
<path d="M312.80 208.00v-21.00" class="stroke"/>
<use x="336.40" y="205.00" xlink:href="#hd"/>
<path d="M339.90 205.00v-21.00" class="stroke"/>
<use x="363.60" y="202.00" xlink:href="#hd"/>
<path d="M360.10 202.00v21.00" class="stroke"/>
<use x="397.10" y="208.00" xlink:href="#Hd"/>
<path d="M400.60 208.00v-21.00" class="stroke"/>
<use x="435.20" y="211.00" xlink:href="#Hd"/>
<path d="M438.70 211.00v-21.00" class="stroke"/>
<use x="476.30" y="205.00" xlink:href="#r4"/>
<use x="503.40" y="211.00" xlink:href="#hd"/>
<path d="M506.90 211.00v-21.00" class="stroke"/>
<use x="530.40" y="217.00" xlink:href="#hd"/>
<path d="M533.90 217.00v-21.00" class="stroke"/>
<use x="557.50" y="214.00" xlink:href="#hd"/>
<path d="M561.00 214.00v-21.00" class="stroke"/>
<use x="591.00" y="211.00" xlink:href="#hd"/>
<path d="M594.50 211.00v-21.00" class="stroke"/>
<use x="618.00" y="217.00" xlink:href="#hd"/>
<path d="M621.50 217.00v-21.00" class="stroke"/>
<use x="645.10" y="220.00" xlink:href="#hd"/>
<path d="M648.60 220.00v-21.00" class="stroke"/>
<defs>
<path id="hl" class="stroke" d="m-6 0h12"/>
</defs>
<use x="672.20" y="223.00" xlink:href="#hl"/>
<use x="672.20" y="223.00" xlink:href="#hd"/>
<path d="M675.70 223.00v-21.00" class="stroke"/>
<use x="22.00" y="257.00" xlink:href="#bclef"/>
<use x="37.00" y="257.00" xlink:href="#sh0"/>
<use x="55.00" y="269.00" xlink:href="#hd"/>
<path d="M58.50 269.00v-21.00" class="stroke"/>
<use x="82.10" y="263.00" xlink:href="#hd"/>
<path d="M85.60 263.00v-21.00" class="stroke"/>
<use x="109.30" y="257.00" xlink:href="#hd"/>
<path d="M105.80 257.00v21.00" class="stroke"/>
<use x="136.40" y="263.00" xlink:href="#hd"/>
<path d="M132.90 263.00v21.00" class="stroke"/>
<use x="168.80" y="266.00" xlink:href="#hd"/>
<path d="M172.30 266.00v-21.00" class="stroke"/>
<use x="196.10" y="260.00" xlink:href="#hd"/>
<path d="M192.60 260.00v21.00" class="stroke"/>
<use x="223.20" y="254.00" xlink:href="#hd"/>
<path d="M219.70 254.00v21.00" class="stroke"/>
<use x="250.30" y="260.00" xlink:href="#hd"/>
<path d="M246.80 260.00v21.00" class="stroke"/>
<use x="282.20" y="275.00" xlink:href="#hd"/>
<path d="M285.70 275.00v-21.00" class="stroke"/>
<use x="309.30" y="269.00" xlink:href="#hd"/>
<path d="M312.80 269.00v-21.00" class="stroke"/>
<use x="336.40" y="263.00" xlink:href="#Hd"/>
<path d="M339.90 263.00v-21.00" class="stroke"/>
<use x="398.10" y="281.00" xlink:href="#hl1"/>
<use x="398.10" y="287.00" xlink:href="#hl1"/>
<use x="398.10" y="293.00" xlink:href="#hl1"/>
<use x="398.10" y="296.00" xlink:href="#HD"/>
<use x="398.10" y="275.00" xlink:href="#HD"/>
<use x="398.10" y="269.00" xlink:href="#HD"/>
<use x="398.10" y="263.00" xlink:href="#HD"/>
<use x="477.30" y="281.00" xlink:href="#hl1"/>
<use x="477.30" y="281.00" xlink:href="#HD"/>
<use x="477.30" y="260.00" xlink:href="#HD"/>
<use x="477.30" y="254.00" xlink:href="#HD"/>
<use x="477.30" y="248.00" xlink:href="#HD"/>
<use x="592.00" y="281.00" xlink:href="#hl1"/>
<use x="592.00" y="287.00" xlink:href="#hl1"/>
<use x="592.00" y="293.00" xlink:href="#hl1"/>
<use x="592.00" y="296.00" xlink:href="#HD"/>
<use x="592.00" y="275.00" xlink:href="#HD"/>
<use x="592.00" y="269.00" xlink:href="#HD"/>
<use x="592.00" y="263.00" xlink:href="#HD"/>
</g>
<g stroke-width="0.70" style="font:italic 11.00px Times">
<path class="stroke" stroke-width="1"
	d="M10.00 407.00v-82.00"/>
<g transform="translate(10.00,325.00) scale(1,0.82)">
	<use xlink:href="#brace"/>
</g>
<path class="stroke" stroke-width="1"
	d="M153.10 349.00v-24.00"/>
<path class="stroke" stroke-width="1"
	d="M153.10 407.00v-24.00"/>
<path class="stroke" stroke-width="1"
	d="M284.30 349.00v-24.00"/>
<path class="stroke" stroke-width="1"
	d="M284.30 407.00v-24.00"/>
<path class="stroke" stroke-width="1"
	d="M415.50 349.00v-24.00"/>
<path class="stroke" stroke-width="1"
	d="M415.50 407.00v-24.00"/>
<path class="stroke" stroke-width="1"
	d="M546.70 349.00v-24.00"/>
<path class="stroke" stroke-width="1"
	d="M546.70 407.00v-24.00"/>
<path class="stroke" stroke-width="1"
	d="M691.60 349.00v-24.00"/>
<path class="stroke" stroke-width="1"
	d="M691.60 407.00v-24.00"/>
<path d="m10.00 349.00
	h681.60
	M10.00 343.00
	h681.60
	M10.00 337.00
	h681.60
	M10.00 331.00
	h681.60
	M10.00 325.00
	h681.60
	" class="stroke"/>
<path d="m10.00 407.00
	h681.60
	M10.00 401.00
	h681.60
	M10.00 395.00
	h681.60
	M10.00 389.00
	h681.60
	M10.00 383.00
	h681.60
	" class="stroke"/>
</g>
<g stroke-width="0.70" style="font:bold 13.00px Times">
<text x="50.60" y="320.40">V<tspan
	 style="font:italic 11.00px Times">⁷</tspan></text>
</g>
<g stroke-width="0.70" style="font:bold 13.00px Times">
<text x="161.40" y="315.40">vi</text>
</g>
<g stroke-width="0.70" style="font:bold 13.00px Times">
<text x="295.00" y="318.40">I</text>
</g>
<g stroke-width="0.70" style="font:bold 13.00px Times">
<text x="423.00" y="320.40">ii<tspan
	 style="font:italic 11.00px Times">¹</tspan></text>
</g>
<g stroke-width="0.70" style="font:bold 13.00px Times">
<text x="557.40" y="318.40">I</text>
<use x="22.00" y="343.00" xlink:href="#tclef"/>
<use x="37.00" y="325.00" xlink:href="#sh0"/>
<use x="56.50" y="352.00" xlink:href="#Hd"/>
<path d="M60.00 352.00v-21.00" class="stroke"/>
<use x="101.70" y="337.00" xlink:href="#r4"/>
<use x="130.50" y="352.00" xlink:href="#hd"/>
<path d="M134.00 352.00v-21.00" class="stroke"/>
<use x="165.60" y="343.00" xlink:href="#hd"/>
<path d="M169.10 343.00v-21.00" class="stroke"/>
<use x="197.60" y="340.00" xlink:href="#hd"/>
<path d="M201.10 340.00v-21.00" class="stroke"/>
<use x="229.60" y="337.00" xlink:href="#hd"/>
<path d="M233.10 337.00v-21.00" class="stroke"/>
<use x="261.70" y="334.00" xlink:href="#hd"/>
<path d="M258.20 334.00v21.00" class="stroke"/>
<use x="296.80" y="337.00" xlink:href="#hd"/>
<path d="M293.30 337.00v21.00" class="stroke"/>
<use x="328.80" y="340.00" xlink:href="#hd"/>
<path d="M332.30 340.00v-21.00" class="stroke"/>
<use x="360.80" y="337.00" xlink:href="#Hd"/>
<path d="M364.30 337.00v-21.00" class="stroke"/>
<use x="428.00" y="337.00" xlink:href="#r4"/>
<use x="460.00" y="340.00" xlink:href="#hd"/>
<path d="M463.50 340.00v-21.00" class="stroke"/>
<use x="492.00" y="337.00" xlink:href="#hd"/>
<path d="M495.50 337.00v-21.00" class="stroke"/>
<use x="524.10" y="334.00" xlink:href="#hd"/>
<path d="M520.60 334.00v21.00" class="stroke"/>
<use x="559.20" y="331.00" xlink:href="#hd"/>
<path d="M555.70 331.00v21.00" class="stroke"/>
<use x="591.20" y="337.00" xlink:href="#hd"/>
<path d="M587.70 337.00v21.00" class="stroke"/>
<use x="623.30" y="340.00" xlink:href="#hd"/>
<path d="M626.80 340.00v-21.00" class="stroke"/>
<path class="fill"
	d="M626.80 319.00c0.6 5.6 9.6 9 5.6 18.4
	1.6 -6 -1.3 -11.6 -5.6 -12.8
"/>
<use x="646.10" y="343.00" xlink:href="#hd"/>
<path d="M649.60 343.00v-21.00" class="stroke"/>
<path class="fill"
	d="M649.60 322.00c0.6 5.6 9.6 9 5.6 18.4
	1.6 -6 -1.3 -11.6 -5.6 -12.8
"/>
<use x="669.00" y="340.00" xlink:href="#hd"/>
<path d="M672.50 340.00v-21.00" class="stroke"/>
<use x="22.00" y="389.00" xlink:href="#bclef"/>
<use x="37.00" y="389.00" xlink:href="#sh0"/>
<use x="57.50" y="413.00" xlink:href="#hl1"/>
<use x="57.50" y="416.00" xlink:href="#HD"/>
<use x="57.50" y="395.00" xlink:href="#HD"/>
<use x="57.50" y="389.00" xlink:href="#HD"/>
<use x="57.50" y="383.00" xlink:href="#HD"/>
<use x="165.60" y="392.00" xlink:href="#hd"/>
<path d="M162.10 392.00v21.00" class="stroke"/>
<use x="197.60" y="386.00" xlink:href="#hd"/>
<path d="M194.10 386.00v21.00" class="stroke"/>
<use x="229.60" y="380.00" xlink:href="#hd"/>
<path d="M226.10 380.00v21.00" class="stroke"/>
<use x="261.70" y="386.00" xlink:href="#hd"/>
<path d="M258.20 386.00v21.00" class="stroke"/>
<use x="296.80" y="407.00" xlink:href="#hd"/>
<path d="M300.30 407.00v-21.00" class="stroke"/>
<use x="328.80" y="401.00" xlink:href="#hd"/>
<path d="M332.30 401.00v-21.00" class="stroke"/>
<use x="360.80" y="395.00" xlink:href="#hd"/>
<path d="M364.30 395.00v-21.00" class="stroke"/>
<use x="392.90" y="401.00" xlink:href="#hd"/>
<path d="M396.40 401.00v-21.00" class="stroke"/>
<use x="428.00" y="404.00" xlink:href="#hd"/>
<path d="M431.50 404.00v-21.00" class="stroke"/>
<use x="460.00" y="398.00" xlink:href="#hd"/>
<path d="M463.50 398.00v-21.00" class="stroke"/>
<use x="492.00" y="392.00" xlink:href="#hd"/>
<path d="M488.50 392.00v21.00" class="stroke"/>
<use x="524.10" y="398.00" xlink:href="#hd"/>
<path d="M527.60 398.00v-21.00" class="stroke"/>
<use x="559.20" y="407.00" xlink:href="#hd"/>
<path d="M562.70 407.00v-21.00" class="stroke"/>
<use x="591.20" y="401.00" xlink:href="#hd"/>
<path d="M594.70 401.00v-21.00" class="stroke"/>
<use x="623.30" y="395.00" xlink:href="#Hd"/>
<path d="M626.80 395.00v-21.00" class="stroke"/>
</g>
<g stroke-width="0.70" style="font:bold 13.00px Times">
<path class="stroke" stroke-width="1"
	d="M10.00 535.00v-82.00"/>
<g transform="translate(10.00,453.00) scale(1,0.82)">
	<use xlink:href="#brace"/>
</g>
<path class="stroke" stroke-width="1"
	d="M112.50 477.00v-24.00"/>
<path class="stroke" stroke-width="1"
	d="M112.50 535.00v-24.00"/>
<path d="m10.00 477.00
	h102.50
	M10.00 471.00
	h102.50
	M10.00 465.00
	h102.50
	M10.00 459.00
	h102.50
	M10.00 453.00
	h102.50
	" class="stroke"/>
<path d="m10.00 535.00
	h102.50
	M10.00 529.00
	h102.50
	M10.00 523.00
	h102.50
	M10.00 517.00
	h102.50
	M10.00 511.00
	h102.50
	" class="stroke"/>
</g>
<g stroke-width="0.70" style="font:bold 13.00px Times">
<text x="52.70" y="448.40">I<tspan
	 style="font:italic 11.00px Times">¹</tspan></text>
</g>
<g stroke-width="0.70" style="font:italic 11.00px Times">
<use x="22.00" y="471.00" xlink:href="#tclef"/>
<use x="37.00" y="453.00" xlink:href="#sh0"/>
<use x="57.50" y="471.00" xlink:href="#HD"/>
<use x="22.00" y="517.00" xlink:href="#bclef"/>
<use x="37.00" y="517.00" xlink:href="#sh0"/>
<use x="57.50" y="541.00" xlink:href="#hl1"/>
<use x="57.50" y="547.00" xlink:href="#hl1"/>
<use x="57.50" y="553.00" xlink:href="#hl1"/>
<use x="57.50" y="556.00" xlink:href="#HD"/>
<use x="57.50" y="535.00" xlink:href="#HD"/>
<use x="57.50" y="529.00" xlink:href="#HD"/>
<use x="57.50" y="523.00" xlink:href="#HD"/>
</g>
</svg>
