<?xml version="1.0" standalone="no"?>
<!DOCTYPE svg PUBLIC "-//W3C//DTD SVG 1.1//EN"
	"http://www.w3.org/Graphics/SVG/1.1/DTD/svg11.dtd">
<svg xmlns="http://www.w3.org/2000/svg" version="1.1"
	xmlns:xlink="http://www.w3.org/1999/xlink"
	color="black"
	width="701.60px" height="443.00px" viewBox="0 0 701.60 443.00" preserveAspectRatio="xMidYMid meet">
<style type="text/css">
.fill {fill: currentColor}
.stroke {stroke: currentColor; fill: none}
text{white-space: pre}
</style>
<title>/tmp/retab_hymnal_L5/we_now_implore_god_the_holy_ghost.abc (1) tune 1</title>
<!-- Creator: abcm2ps-8.14.11 -->
<!-- CreationDate: Apr 24, 2026 15:39 -->
<!-- CommandLine: /tmp/retab_hymnal_L5/we_now_implore_god_the_holy_ghost.abc -g -O /tmp/retab_hymnal_L5/we_now_implore_god_the_holy_ghost -->
<g stroke-width="0.70">
<!-- title: 266. We Now Implore God the Holy Ghost -->
</g>
<g stroke-width="0.70" style="font:20.00px Times">
<text x="350.80" y="22.00" text-anchor="middle">266. We Now Implore God the Holy Ghost</text>
</g>
<g stroke-width="0.70" style="font:20.00px Times">
<path class="stroke" stroke-width="1"
	d="M10.00 143.00v-82.00"/>
<defs>
<path id="brace" class="fill" d="m-2.5 101
	c-4.5 -4.6 -7.5 -12.2 -4.4 -26.8
	3.5 -14.3 3.2 -21.7 -2.1 -24.2
	7.4 2.4 7.3 14.2 3.5 29.5
	-2.7 9.5 -1.5 16.2 3 21.5
	M-2.5 1c-4.5 4.6 -7.5 12.2 -4.4 26.8
	c3.5 14.3 3.2 21.7 -2.1 24.2
	7.4 -2.4 7.3 -14.2 3.5 -29.5
	-2.7 -9.5 -1.5 -16.2 3 -21.5"/>
</defs>
<g transform="translate(10.00,61.00) scale(1,0.82)">
	<use xlink:href="#brace"/>
</g>
<path class="stroke" stroke-width="1"
	d="M160.00 85.00v-24.00"/>
<path class="stroke" stroke-width="1"
	d="M160.00 143.00v-24.00"/>
<path class="stroke" stroke-width="1"
	d="M241.50 85.00v-24.00"/>
<path class="stroke" stroke-width="1"
	d="M241.50 143.00v-24.00"/>
<path class="stroke" stroke-width="1"
	d="M323.00 85.00v-24.00"/>
<path class="stroke" stroke-width="1"
	d="M323.00 143.00v-24.00"/>
<path class="stroke" stroke-width="1"
	d="M415.90 85.00v-24.00"/>
<path class="stroke" stroke-width="1"
	d="M415.90 143.00v-24.00"/>
<path class="stroke" stroke-width="1"
	d="M457.00 85.00v-24.00"/>
<path class="stroke" stroke-width="1"
	d="M457.00 143.00v-24.00"/>
<path class="stroke" stroke-width="1"
	d="M574.20 85.00v-24.00"/>
<path class="stroke" stroke-width="1"
	d="M574.20 143.00v-24.00"/>
<path class="stroke" stroke-width="1"
	d="M691.60 85.00v-24.00"/>
<path class="stroke" stroke-width="1"
	d="M691.60 143.00v-24.00"/>
<path d="m10.00 85.00
	h681.60
	M10.00 79.00
	h681.60
	M10.00 73.00
	h681.60
	M10.00 67.00
	h681.60
	M10.00 61.00
	h681.60
	" class="stroke"/>
<path d="m10.00 143.00
	h681.60
	M10.00 137.00
	h681.60
	M10.00 131.00
	h681.60
	M10.00 125.00
	h681.60
	M10.00 119.00
	h681.60
	" class="stroke"/>
</g>
<g stroke-width="0.70" style="font:bold 13.00px Times">
<text x="70.70" y="54.40">I</text>
</g>
<g stroke-width="0.70" style="font:bold 13.00px Times">
<text x="170.30" y="54.40">I<tspan
	 style="font:italic 11.00px Times">¹</tspan></text>
</g>
<g stroke-width="0.70" style="font:bold 13.00px Times">
<text x="253.70" y="56.40">I</text>
</g>
<g stroke-width="0.70" style="font:bold 13.00px Times">
<text x="329.00" y="56.40">vii○<tspan
	 style="font:italic 11.00px Times">¹</tspan></text>
</g>
<g stroke-width="0.70" style="font:bold 13.00px Times">
<text x="427.00" y="48.40">I</text>
</g>
<g stroke-width="0.70" style="font:bold 13.00px Times">
<text x="466.20" y="56.40">I<tspan
	 style="font:italic 11.00px Times">¹</tspan></text>
</g>
<g stroke-width="0.70" style="font:bold 13.00px Times">
<text x="583.20" y="56.40">V</text>
<defs>
<path id="utclef" class="fill" d="m-50 -90
	c-72 -41 -72 -158 52 -188
	150 -10 220 188 90 256
	-114 52 -275 0 -293 -136
	-15 -181 93 -229 220 -334
	88 -87 79 -133 62 -210
	-51 33 -94 105 -89 186
	17 267 36 374 49 574
	6 96 -19 134 -77 135
	-80 1 -126 -93 -61 -133
	85 -41 133 101 31 105
	23 17 92 37 90 -92
	-10 -223 -39 -342 -50 -617
	0 -90 0 -162 96 -232
	56 72 63 230 22 289
	-74 106 -257 168 -255 316
	9 153 148 185 252 133
	86 -65 29 -192 -80 -176
	-71 12 -105 67 -59 124"/>
<use id="tclef" transform="translate(0,6) scale(0.045)"
	xlink:href="#utclef"/>
</defs>
<use x="22.00" y="79.00" xlink:href="#tclef"/>
<defs>
<path id="uflat" class="fill" d="
	m100 -746
	h32
	v734
	l-32 4
	m32 -332
	c46 -72 152 -90 208 -20
	100 110 -120 326 -208 348
	m0 -28
	c54 0 200 -206 130 -290
	-50 -60 -130 -4 -130 34"/>
<use id="ft0" transform="translate(-3.5,3.5) scale(0.018)"
	xlink:href="#uflat"/>
</defs>
<use x="37.00" y="73.00" xlink:href="#ft0"/>
<g style="font:bold 16px serif"
	transform="translate(53.00,84.50) scale(1.2,1)">
	<text text-anchor="middle">4</text>
	<text y="-12" text-anchor="middle">4</text>
</g>
<defs>
<path id="Hd" class="fill" d="m3 -1.6
	c-1 -1.8 -7 1.4 -6 3.2
	1 1.8 7 -1.4 6 -3.2
	m0.5 -0.3
	c2 3.8 -5 7.6 -7 3.8
	-2 -3.8 5 -7.6 7 -3.8"/>
</defs>
<use x="72.50" y="82.00" xlink:href="#Hd"/>
<path d="M76.00 82.00v-21.00" class="stroke"/>
<defs>
<ellipse id="hd" rx="4.1" ry="2.9"
	transform="rotate(-20)" class="fill"/>
</defs>
<use x="111.90" y="79.00" xlink:href="#hd"/>
<path d="M115.40 79.00v-21.00" class="stroke"/>
<use x="139.90" y="79.00" xlink:href="#hd"/>
<path d="M143.40 79.00v-21.00" class="stroke"/>
<use x="174.00" y="82.00" xlink:href="#Hd"/>
<path d="M177.50 82.00v-21.00" class="stroke"/>
<use x="213.40" y="88.00" xlink:href="#Hd"/>
<path d="M216.90 88.00v-21.00" class="stroke"/>
<defs>
<path id="hl" class="stroke" d="m-6 0h12"/>
</defs>
<use x="255.50" y="91.00" xlink:href="#hl"/>
<use x="255.50" y="91.00" xlink:href="#Hd"/>
<path d="M259.00 91.00v-21.00" class="stroke"/>
<use x="294.90" y="88.00" xlink:href="#Hd"/>
<path d="M298.40 88.00v-21.00" class="stroke"/>
<use x="337.00" y="85.00" xlink:href="#Hd"/>
<path d="M340.50 85.00v-21.00" class="stroke"/>
<defs>
<path id="HD" class="fill" d="m-2.7 -1.4
	c1.5 -2.8 6.9 0 5.3 2.7
	-1.5 2.8 -6.9 0 -5.3 -2.7
	m8.3 1.4
	c0 -1.5 -2.2 -3 -5.6 -3
	-3.4 0 -5.6 1.5 -5.6 3
	0 1.5 2.2 3 5.6 3
	3.4 0 5.6 -1.5 5.6 -3"/>
</defs>
<use x="377.50" y="82.00" xlink:href="#HD"/>
<use x="428.90" y="76.00" xlink:href="#Hd"/>
<path d="M432.40 76.00v-21.00" class="stroke"/>
<use x="470.00" y="70.00" xlink:href="#Hd"/>
<path d="M466.50 70.00v21.00" class="stroke"/>
<use x="526.00" y="67.00" xlink:href="#Hd"/>
<path d="M522.50 67.00v21.00" class="stroke"/>
<use x="587.20" y="70.00" xlink:href="#Hd"/>
<path d="M583.70 70.00v21.00" class="stroke"/>
<use x="643.40" y="76.00" xlink:href="#Hd"/>
<path d="M646.90 76.00v-21.00" class="stroke"/>
<defs>
<path id="ubclef" class="fill" d="m-200 -87
	c124 -35 222 -78 254 -236
	43 -228 -167 -246 -192 -103
	59 -80 157 22 92 78
	-62 47 -115 -22 -106 -88
	21 -141 270 -136 274 52
	-1 175 -106 264 -322 297
	m357 -250
	c0 -36 51 -34 51 0
	0 37 -51 36 -51 0
	m-2 -129
	c0 -36 51 -34 51 0
	0 38 -51 37 -51 0"/>
<use id="bclef" transform="translate(0,18) scale(0.045)"
	xlink:href="#ubclef"/>
</defs>
<use x="22.00" y="125.00" xlink:href="#bclef"/>
<use x="37.00" y="137.00" xlink:href="#ft0"/>
<g style="font:bold 16px serif"
	transform="translate(53.00,142.50) scale(1.2,1)">
	<text text-anchor="middle">4</text>
	<text y="-12" text-anchor="middle">4</text>
</g>
<defs>
<path id="hl1" class="stroke" d="m-7 0h14"/>
</defs>
<use x="73.50" y="149.00" xlink:href="#hl1"/>
<use x="73.50" y="155.00" xlink:href="#hl1"/>
<use x="73.50" y="161.00" xlink:href="#hl1"/>
<use x="73.50" y="167.00" xlink:href="#hl1"/>
<use x="73.50" y="167.00" xlink:href="#HD"/>
<use x="73.50" y="146.00" xlink:href="#HD"/>
<use x="73.50" y="140.00" xlink:href="#HD"/>
<use x="73.50" y="134.00" xlink:href="#HD"/>
<use x="175.00" y="149.00" xlink:href="#hl1"/>
<use x="175.00" y="155.00" xlink:href="#hl1"/>
<use x="175.00" y="161.00" xlink:href="#hl1"/>
<use x="175.00" y="167.00" xlink:href="#hl1"/>
<use x="175.00" y="167.00" xlink:href="#HD"/>
<use x="175.00" y="146.00" xlink:href="#HD"/>
<use x="175.00" y="140.00" xlink:href="#HD"/>
<use x="175.00" y="134.00" xlink:href="#HD"/>
<use x="256.50" y="149.00" xlink:href="#hl1"/>
<use x="256.50" y="155.00" xlink:href="#hl1"/>
<use x="256.50" y="161.00" xlink:href="#hl1"/>
<use x="256.50" y="167.00" xlink:href="#hl1"/>
<use x="256.50" y="167.00" xlink:href="#HD"/>
<use x="256.50" y="146.00" xlink:href="#HD"/>
<use x="256.50" y="140.00" xlink:href="#HD"/>
<use x="256.50" y="134.00" xlink:href="#HD"/>
<use x="338.00" y="149.00" xlink:href="#hl1"/>
<use x="338.00" y="155.00" xlink:href="#hl1"/>
<use x="338.00" y="161.00" xlink:href="#hl1"/>
<use x="338.00" y="167.00" xlink:href="#hl1"/>
<use x="338.00" y="167.00" xlink:href="#HD"/>
<circle class="fill" cx="347.70" cy="164.00" r="1.2"/>
<use x="338.00" y="146.00" xlink:href="#HD"/>
<circle class="fill" cx="347.70" cy="146.00" r="1.2"/>
<use x="338.00" y="140.00" xlink:href="#HD"/>
<circle class="fill" cx="347.70" cy="140.00" r="1.2"/>
<use x="338.00" y="134.00" xlink:href="#HD"/>
<circle class="fill" cx="347.70" cy="134.00" r="1.2"/>
<use x="428.90" y="149.00" xlink:href="#hl"/>
<use x="428.90" y="155.00" xlink:href="#hl"/>
<use x="428.90" y="161.00" xlink:href="#hl"/>
<use x="428.90" y="167.00" xlink:href="#hl"/>
<use x="428.90" y="167.00" xlink:href="#Hd"/>
<path d="M432.40 167.00v-52.00" class="stroke"/>
<use x="428.90" y="146.00" xlink:href="#Hd"/>
<use x="428.90" y="140.00" xlink:href="#Hd"/>
<use x="428.90" y="134.00" xlink:href="#Hd"/>
<use x="470.00" y="146.00" xlink:href="#hd"/>
<path d="M473.50 146.00v-21.00" class="stroke"/>
<use x="498.00" y="140.00" xlink:href="#hd"/>
<path d="M501.50 140.00v-21.00" class="stroke"/>
<use x="526.00" y="134.00" xlink:href="#hd"/>
<path d="M529.50 134.00v-21.00" class="stroke"/>
<use x="554.00" y="140.00" xlink:href="#hd"/>
<path d="M557.50 140.00v-21.00" class="stroke"/>
<use x="587.20" y="134.00" xlink:href="#hd"/>
<path d="M590.70 134.00v-21.00" class="stroke"/>
<use x="615.40" y="128.00" xlink:href="#hd"/>
<path d="M611.90 128.00v21.00" class="stroke"/>
<use x="643.40" y="122.00" xlink:href="#hd"/>
<path d="M639.90 122.00v21.00" class="stroke"/>
<use x="671.40" y="128.00" xlink:href="#hd"/>
<path d="M667.90 128.00v21.00" class="stroke"/>
</g>
<g stroke-width="0.70" style="font:bold 13.00px Times">
<path class="stroke" stroke-width="1"
	d="M10.00 278.00v-82.00"/>
<g transform="translate(10.00,196.00) scale(1,0.82)">
	<use xlink:href="#brace"/>
</g>
<path class="stroke" stroke-width="1"
	d="M151.10 220.00v-24.00"/>
<path class="stroke" stroke-width="1"
	d="M151.10 278.00v-24.00"/>
<path class="stroke" stroke-width="1"
	d="M254.80 220.00v-24.00"/>
<path class="stroke" stroke-width="1"
	d="M254.80 278.00v-24.00"/>
<path class="stroke" stroke-width="1"
	d="M321.40 220.00v-24.00"/>
<path class="stroke" stroke-width="1"
	d="M321.40 278.00v-24.00"/>
<path class="stroke" stroke-width="1"
	d="M452.20 220.00v-24.00"/>
<path class="stroke" stroke-width="1"
	d="M452.20 278.00v-24.00"/>
<path class="stroke" stroke-width="1"
	d="M582.90 220.00v-24.00"/>
<path class="stroke" stroke-width="1"
	d="M582.90 278.00v-24.00"/>
<path class="stroke" stroke-width="1"
	d="M691.60 220.00v-24.00"/>
<path class="stroke" stroke-width="1"
	d="M691.60 278.00v-24.00"/>
<path d="m10.00 220.00
	h681.60
	M10.00 214.00
	h681.60
	M10.00 208.00
	h681.60
	M10.00 202.00
	h681.60
	M10.00 196.00
	h681.60
	" class="stroke"/>
<path d="m10.00 278.00
	h681.60
	M10.00 272.00
	h681.60
	M10.00 266.00
	h681.60
	M10.00 260.00
	h681.60
	M10.00 254.00
	h681.60
	" class="stroke"/>
</g>
<g stroke-width="0.70" style="font:bold 13.00px Times">
<text x="51.70" y="189.40">I<tspan
	 style="font:italic 11.00px Times">¹</tspan></text>
</g>
<g stroke-width="0.70" style="font:bold 13.00px Times">
<text x="157.10" y="191.40">vii○<tspan
	 style="font:italic 11.00px Times">¹</tspan></text>
</g>
<g stroke-width="0.70" style="font:bold 13.00px Times">
<text x="266.00" y="183.40">I</text>
</g>
<g stroke-width="0.70" style="font:bold 13.00px Times">
<text x="330.10" y="183.40">I<tspan
	 style="font:italic 11.00px Times">¹</tspan></text>
</g>
<g stroke-width="0.70" style="font:bold 13.00px Times">
<text x="462.90" y="189.40">I</text>
</g>
<g stroke-width="0.70" style="font:bold 13.00px Times">
<text x="591.40" y="183.40">iii</text>
<use x="22.00" y="214.00" xlink:href="#tclef"/>
<use x="37.00" y="208.00" xlink:href="#ft0"/>
<use x="55.50" y="217.00" xlink:href="#Hd"/>
<path d="M59.00 217.00v-21.00" class="stroke"/>
<use x="119.30" y="223.00" xlink:href="#Hd"/>
<path d="M122.80 223.00v-21.00" class="stroke"/>
<use x="165.10" y="220.00" xlink:href="#Hd"/>
<path d="M168.60 220.00v-21.00" class="stroke"/>
<use x="211.10" y="217.00" xlink:href="#HD"/>
<use x="267.80" y="211.00" xlink:href="#hd"/>
<circle class="fill" cx="275.50" cy="211.00" r="1.2"/>
<path d="M271.30 211.00v-21.00" class="stroke"/>
<use x="304.40" y="211.00" xlink:href="#hd"/>
<path d="M307.90 211.00v-21.00" class="stroke"/>
<path class="fill"
	d="M307.90 190.00c0.6 5.6 9.6 9 5.6 18.4
	1.6 -6 -1.3 -11.6 -5.6 -12.8
"/>
<use x="333.90" y="211.00" xlink:href="#hd"/>
<path d="M337.40 211.00v-21.00" class="stroke"/>
<use x="365.80" y="214.00" xlink:href="#hd"/>
<path d="M369.30 214.00v-21.00" class="stroke"/>
<use x="397.70" y="211.00" xlink:href="#Hd"/>
<path d="M401.20 211.00v-21.00" class="stroke"/>
<use x="464.70" y="217.00" xlink:href="#hd"/>
<path d="M468.20 217.00v-21.00" class="stroke"/>
<use x="496.60" y="217.00" xlink:href="#hd"/>
<path d="M500.10 217.00v-21.00" class="stroke"/>
<use x="528.50" y="214.00" xlink:href="#hd"/>
<path d="M532.00 214.00v-21.00" class="stroke"/>
<use x="560.40" y="214.00" xlink:href="#hd"/>
<path d="M563.90 214.00v-21.00" class="stroke"/>
<use x="595.90" y="211.00" xlink:href="#Hd"/>
<path d="M599.40 211.00v-21.00" class="stroke"/>
<use x="659.80" y="217.00" xlink:href="#Hd"/>
<path d="M663.30 217.00v-21.00" class="stroke"/>
<use x="22.00" y="260.00" xlink:href="#bclef"/>
<use x="37.00" y="272.00" xlink:href="#ft0"/>
<use x="55.50" y="281.00" xlink:href="#hd"/>
<path d="M59.00 281.00v-21.00" class="stroke"/>
<use x="87.40" y="275.00" xlink:href="#hd"/>
<path d="M90.90 275.00v-21.00" class="stroke"/>
<use x="119.30" y="269.00" xlink:href="#Hd"/>
<path d="M122.80 269.00v-21.00" class="stroke"/>
<use x="166.10" y="284.00" xlink:href="#hl1"/>
<use x="166.10" y="290.00" xlink:href="#hl1"/>
<use x="166.10" y="296.00" xlink:href="#hl1"/>
<use x="166.10" y="302.00" xlink:href="#hl1"/>
<use x="166.10" y="302.00" xlink:href="#HD"/>
<circle class="fill" cx="175.80" cy="299.00" r="1.2"/>
<use x="166.10" y="281.00" xlink:href="#HD"/>
<circle class="fill" cx="175.80" cy="281.00" r="1.2"/>
<use x="166.10" y="275.00" xlink:href="#HD"/>
<circle class="fill" cx="175.80" cy="275.00" r="1.2"/>
<use x="166.10" y="269.00" xlink:href="#HD"/>
<circle class="fill" cx="175.80" cy="269.00" r="1.2"/>
<use x="267.80" y="284.00" xlink:href="#hl"/>
<use x="267.80" y="290.00" xlink:href="#hl"/>
<use x="267.80" y="296.00" xlink:href="#hl"/>
<use x="267.80" y="302.00" xlink:href="#hl"/>
<use x="267.80" y="302.00" xlink:href="#Hd"/>
<path d="M271.30 302.00v-52.00" class="stroke"/>
<use x="267.80" y="281.00" xlink:href="#Hd"/>
<use x="267.80" y="275.00" xlink:href="#Hd"/>
<use x="267.80" y="269.00" xlink:href="#Hd"/>
<use x="333.90" y="281.00" xlink:href="#hd"/>
<path d="M337.40 281.00v-21.00" class="stroke"/>
<use x="365.80" y="275.00" xlink:href="#hd"/>
<path d="M369.30 275.00v-21.00" class="stroke"/>
<use x="397.70" y="269.00" xlink:href="#hd"/>
<path d="M401.20 269.00v-21.00" class="stroke"/>
<use x="429.60" y="275.00" xlink:href="#hd"/>
<path d="M433.10 275.00v-21.00" class="stroke"/>
<use x="464.70" y="281.00" xlink:href="#hd"/>
<path d="M468.20 281.00v-21.00" class="stroke"/>
<use x="496.60" y="275.00" xlink:href="#hd"/>
<path d="M500.10 275.00v-21.00" class="stroke"/>
<use x="528.50" y="269.00" xlink:href="#hd"/>
<path d="M532.00 269.00v-21.00" class="stroke"/>
<use x="560.40" y="275.00" xlink:href="#hd"/>
<path d="M563.90 275.00v-21.00" class="stroke"/>
<use x="595.90" y="275.00" xlink:href="#hd"/>
<path d="M599.40 275.00v-21.00" class="stroke"/>
<use x="627.80" y="269.00" xlink:href="#hd"/>
<path d="M631.30 269.00v-21.00" class="stroke"/>
<use x="659.80" y="263.00" xlink:href="#Hd"/>
<path d="M656.30 263.00v21.00" class="stroke"/>
</g>
<g stroke-width="0.70" style="font:bold 13.00px Times">
<path class="stroke" stroke-width="1"
	d="M10.00 413.00v-82.00"/>
<g transform="translate(10.00,331.00) scale(1,0.82)">
	<use xlink:href="#brace"/>
</g>
<path class="stroke" stroke-width="1"
	d="M150.90 355.00v-24.00"/>
<path class="stroke" stroke-width="1"
	d="M150.90 413.00v-24.00"/>
<path class="stroke" stroke-width="1"
	d="M263.20 355.00v-24.00"/>
<path class="stroke" stroke-width="1"
	d="M263.20 413.00v-24.00"/>
<path class="stroke" stroke-width="1"
	d="M371.60 355.00v-24.00"/>
<path class="stroke" stroke-width="1"
	d="M371.60 413.00v-24.00"/>
<path class="stroke" stroke-width="1"
	d="M474.20 355.00v-24.00"/>
<path class="stroke" stroke-width="1"
	d="M474.20 413.00v-24.00"/>
<path class="stroke" stroke-width="1"
	d="M555.40 355.00v-24.00"/>
<path class="stroke" stroke-width="1"
	d="M555.40 413.00v-24.00"/>
<path class="stroke" stroke-width="1"
	d="M675.60 355.00v-24.00"/>
<path class="stroke" stroke-width="1"
	d="M675.60 413.00v-24.00"/>
<path class="stroke" stroke-width="1"
	d="M691.60 355.00v-24.00"/>
<path class="stroke" stroke-width="1"
	d="M691.60 413.00v-24.00"/>
<path d="m10.00 355.00
	h681.60
	M10.00 349.00
	h681.60
	M10.00 343.00
	h681.60
	M10.00 337.00
	h681.60
	M10.00 331.00
	h681.60
	" class="stroke"/>
<path d="m10.00 413.00
	h681.60
	M10.00 407.00
	h681.60
	M10.00 401.00
	h681.60
	M10.00 395.00
	h681.60
	M10.00 389.00
	h681.60
	" class="stroke"/>
</g>
<g stroke-width="0.70" style="font:bold 13.00px Times">
<text x="53.50" y="321.40">ii</text>
</g>
<g stroke-width="0.70" style="font:bold 13.00px Times">
<text x="161.20" y="324.40">I<tspan
	 style="font:italic 11.00px Times">¹</tspan></text>
</g>
<g stroke-width="0.70" style="font:bold 13.00px Times">
<text x="275.40" y="324.40">I</text>
</g>
<g stroke-width="0.70" style="font:bold 13.00px Times">
<text x="382.60" y="326.40">ii</text>
</g>
<g stroke-width="0.70" style="font:bold 13.00px Times">
<text x="482.80" y="326.40">V</text>
</g>
<g stroke-width="0.70" style="font:bold 13.00px Times">
<text x="566.60" y="324.40">I</text>
<use x="22.00" y="349.00" xlink:href="#tclef"/>
<use x="37.00" y="343.00" xlink:href="#ft0"/>
<use x="56.50" y="349.00" xlink:href="#hd"/>
<path d="M60.00 349.00v-21.00" class="stroke"/>
<use x="88.00" y="349.00" xlink:href="#hd"/>
<path d="M91.50 349.00v-21.00" class="stroke"/>
<use x="119.50" y="346.00" xlink:href="#Hd"/>
<path d="M123.00 346.00v-21.00" class="stroke"/>
<use x="164.90" y="352.00" xlink:href="#Hd"/>
<path d="M168.40 352.00v-21.00" class="stroke"/>
<use x="209.30" y="358.00" xlink:href="#hd"/>
<path d="M212.80 358.00v-21.00" class="stroke"/>
<use x="240.80" y="352.00" xlink:href="#hd"/>
<path d="M244.30 352.00v-21.00" class="stroke"/>
<use x="277.20" y="352.00" xlink:href="#hd"/>
<path d="M280.70 352.00v-21.00" class="stroke"/>
<use x="308.70" y="349.00" xlink:href="#hd"/>
<path d="M312.20 349.00v-21.00" class="stroke"/>
<use x="340.20" y="352.00" xlink:href="#Hd"/>
<path d="M343.70 352.00v-21.00" class="stroke"/>
<use x="385.60" y="358.00" xlink:href="#Hd"/>
<path d="M389.10 358.00v-21.00" class="stroke"/>
<use x="431.10" y="361.00" xlink:href="#hl1"/>
<use x="431.10" y="361.00" xlink:href="#HD"/>
<use x="486.70" y="358.00" xlink:href="#hd"/>
<circle class="fill" cx="494.40" cy="358.00" r="1.2"/>
<path d="M490.20 358.00v-21.00" class="stroke"/>
<use x="538.40" y="355.00" xlink:href="#hd"/>
<path d="M541.90 355.00v-21.00" class="stroke"/>
<path class="fill"
	d="M541.90 334.00c0.6 5.6 9.6 9 5.6 18.4
	1.6 -6 -1.3 -11.6 -5.6 -12.8
"/>
<use x="568.40" y="352.00" xlink:href="#Hd"/>
<path d="M571.90 352.00v-21.00" class="stroke"/>
<use x="632.40" y="352.00" xlink:href="#HD"/>
<use x="22.00" y="395.00" xlink:href="#bclef"/>
<use x="37.00" y="407.00" xlink:href="#ft0"/>
<use x="57.50" y="419.00" xlink:href="#hl1"/>
<use x="57.50" y="425.00" xlink:href="#hl1"/>
<use x="57.50" y="431.00" xlink:href="#hl1"/>
<use x="57.50" y="434.00" xlink:href="#HD"/>
<use x="57.50" y="413.00" xlink:href="#HD"/>
<use x="57.50" y="407.00" xlink:href="#HD"/>
<use x="57.50" y="401.00" xlink:href="#HD"/>
<use x="165.90" y="419.00" xlink:href="#hl1"/>
<use x="165.90" y="425.00" xlink:href="#hl1"/>
<use x="165.90" y="431.00" xlink:href="#hl1"/>
<use x="165.90" y="437.00" xlink:href="#hl1"/>
<use x="165.90" y="437.00" xlink:href="#HD"/>
<use x="165.90" y="416.00" xlink:href="#HD"/>
<use x="165.90" y="410.00" xlink:href="#HD"/>
<use x="165.90" y="404.00" xlink:href="#HD"/>
<use x="278.20" y="419.00" xlink:href="#hl1"/>
<use x="278.20" y="425.00" xlink:href="#hl1"/>
<use x="278.20" y="431.00" xlink:href="#hl1"/>
<use x="278.20" y="437.00" xlink:href="#hl1"/>
<use x="278.20" y="437.00" xlink:href="#HD"/>
<use x="278.20" y="416.00" xlink:href="#HD"/>
<use x="278.20" y="410.00" xlink:href="#HD"/>
<use x="278.20" y="404.00" xlink:href="#HD"/>
<use x="386.60" y="419.00" xlink:href="#hl1"/>
<use x="386.60" y="425.00" xlink:href="#hl1"/>
<use x="386.60" y="431.00" xlink:href="#hl1"/>
<use x="386.60" y="434.00" xlink:href="#HD"/>
<circle class="fill" cx="396.30" cy="434.00" r="1.2"/>
<use x="386.60" y="413.00" xlink:href="#HD"/>
<circle class="fill" cx="396.30" cy="410.00" r="1.2"/>
<use x="386.60" y="407.00" xlink:href="#HD"/>
<circle class="fill" cx="396.30" cy="404.00" r="1.2"/>
<use x="386.60" y="401.00" xlink:href="#HD"/>
<circle class="fill" cx="396.30" cy="398.00" r="1.2"/>
<use x="486.70" y="404.00" xlink:href="#hd"/>
<path d="M490.20 404.00v-21.00" class="stroke"/>
<use x="518.40" y="398.00" xlink:href="#hd"/>
<path d="M514.90 398.00v21.00" class="stroke"/>
<use x="568.40" y="416.00" xlink:href="#hd"/>
<path d="M571.90 416.00v-21.00" class="stroke"/>
<use x="599.90" y="410.00" xlink:href="#hd"/>
<path d="M603.40 410.00v-21.00" class="stroke"/>
<use x="632.40" y="404.00" xlink:href="#HD"/>
</g>
</svg>
