<?xml version="1.0" standalone="no"?>
<!DOCTYPE svg PUBLIC "-//W3C//DTD SVG 1.1//EN"
	"http://www.w3.org/Graphics/SVG/1.1/DTD/svg11.dtd">
<svg xmlns="http://www.w3.org/2000/svg" version="1.1"
	xmlns:xlink="http://www.w3.org/1999/xlink"
	color="black"
	width="701.60px" height="445.40px" viewBox="0 0 701.60 445.40" preserveAspectRatio="xMidYMid meet">
<style type="text/css">
.fill {fill: currentColor}
.stroke {stroke: currentColor; fill: none}
text{white-space: pre}
</style>
<title>/tmp/retab_hymnal_L5/while_o_er_our_guilty_land_o_lord.abc (1) tune 1</title>
<!-- Creator: abcm2ps-8.14.11 -->
<!-- CreationDate: Apr 24, 2026 15:39 -->
<!-- CommandLine: /tmp/retab_hymnal_L5/while_o_er_our_guilty_land_o_lord.abc -g -O /tmp/retab_hymnal_L5/while_o_er_our_guilty_land_o_lord -->
<g stroke-width="0.70">
<!-- title: 273. While O'er Our Guilty Land, O Lord -->
</g>
<g stroke-width="0.70" style="font:20.00px Times">
<text x="350.80" y="22.00" text-anchor="middle">273. While O&apos;er Our Guilty Land, O Lord</text>
</g>
<g stroke-width="0.70" style="font:20.00px Times">
<path class="stroke" stroke-width="1"
	d="M10.00 145.40v-82.00"/>
<defs>
<path id="brace" class="fill" d="m-2.5 101
	c-4.5 -4.6 -7.5 -12.2 -4.4 -26.8
	3.5 -14.3 3.2 -21.7 -2.1 -24.2
	7.4 2.4 7.3 14.2 3.5 29.5
	-2.7 9.5 -1.5 16.2 3 21.5
	M-2.5 1c-4.5 4.6 -7.5 12.2 -4.4 26.8
	c3.5 14.3 3.2 21.7 -2.1 24.2
	7.4 -2.4 7.3 -14.2 3.5 -29.5
	-2.7 -9.5 -1.5 -16.2 3 -21.5"/>
</defs>
<g transform="translate(10.00,63.40) scale(1,0.82)">
	<use xlink:href="#brace"/>
</g>
<path class="stroke" stroke-width="1"
	d="M165.70 87.40v-24.00"/>
<path class="stroke" stroke-width="1"
	d="M165.70 145.40v-24.00"/>
<path class="stroke" stroke-width="1"
	d="M273.10 87.40v-24.00"/>
<path class="stroke" stroke-width="1"
	d="M273.10 145.40v-24.00"/>
<path class="stroke" stroke-width="1"
	d="M359.00 87.40v-24.00"/>
<path class="stroke" stroke-width="1"
	d="M359.00 145.40v-24.00"/>
<path class="stroke" stroke-width="1"
	d="M414.90 87.40v-24.00"/>
<path class="stroke" stroke-width="1"
	d="M414.90 145.40v-24.00"/>
<path class="stroke" stroke-width="1"
	d="M522.00 87.40v-24.00"/>
<path class="stroke" stroke-width="1"
	d="M522.00 145.40v-24.00"/>
<path class="stroke" stroke-width="1"
	d="M605.70 87.40v-24.00"/>
<path class="stroke" stroke-width="1"
	d="M605.70 145.40v-24.00"/>
<path class="stroke" stroke-width="1"
	d="M691.60 87.40v-24.00"/>
<path class="stroke" stroke-width="1"
	d="M691.60 145.40v-24.00"/>
<path d="m10.00 87.40
	h681.60
	M10.00 81.40
	h681.60
	M10.00 75.40
	h681.60
	M10.00 69.40
	h681.60
	M10.00 63.40
	h681.60
	" class="stroke"/>
<path d="m10.00 145.40
	h681.60
	M10.00 139.40
	h681.60
	M10.00 133.40
	h681.60
	M10.00 127.40
	h681.60
	M10.00 121.40
	h681.60
	" class="stroke"/>
</g>
<g stroke-width="0.70" style="font:bold 13.00px Times">
<text x="70.70" y="50.80">I</text>
</g>
<g stroke-width="0.70" style="font:bold 13.00px Times">
<text x="172.00" y="47.80">IV<tspan
	 style="font:italic 11.00px Times">²</tspan></text>
</g>
<g stroke-width="0.70" style="font:bold 13.00px Times">
<text x="281.20" y="58.80">V<tspan
	 style="font:italic 11.00px Times">¹</tspan></text>
</g>
<g stroke-width="0.70" style="font:bold 13.00px Times">
<text x="371.20" y="56.80">I</text>
</g>
<g stroke-width="0.70" style="font:bold 13.00px Times">
<text x="423.00" y="47.80">V<tspan
	 style="font:italic 11.00px Times">⁷</tspan></text>
</g>
<g stroke-width="0.70" style="font:bold 13.00px Times">
<text x="534.20" y="50.80">I</text>
</g>
<g stroke-width="0.70" style="font:bold 13.00px Times">
<text x="612.80" y="47.80">ii<tspan
	 style="font:italic 11.00px Times">⁷²</tspan></text>
</g>
<g stroke-width="0.70" style="font:italic 11.00px Times">
<defs>
<path id="utclef" class="fill" d="m-50 -90
	c-72 -41 -72 -158 52 -188
	150 -10 220 188 90 256
	-114 52 -275 0 -293 -136
	-15 -181 93 -229 220 -334
	88 -87 79 -133 62 -210
	-51 33 -94 105 -89 186
	17 267 36 374 49 574
	6 96 -19 134 -77 135
	-80 1 -126 -93 -61 -133
	85 -41 133 101 31 105
	23 17 92 37 90 -92
	-10 -223 -39 -342 -50 -617
	0 -90 0 -162 96 -232
	56 72 63 230 22 289
	-74 106 -257 168 -255 316
	9 153 148 185 252 133
	86 -65 29 -192 -80 -176
	-71 12 -105 67 -59 124"/>
<use id="tclef" transform="translate(0,6) scale(0.045)"
	xlink:href="#utclef"/>
</defs>
<use x="22.00" y="81.40" xlink:href="#tclef"/>
<defs>
<path id="uflat" class="fill" d="
	m100 -746
	h32
	v734
	l-32 4
	m32 -332
	c46 -72 152 -90 208 -20
	100 110 -120 326 -208 348
	m0 -28
	c54 0 200 -206 130 -290
	-50 -60 -130 -4 -130 34"/>
<use id="ft0" transform="translate(-3.5,3.5) scale(0.018)"
	xlink:href="#uflat"/>
</defs>
<use x="37.00" y="75.40" xlink:href="#ft0"/>
<g style="font:bold 16px serif"
	transform="translate(53.00,86.90) scale(1.2,1)">
	<text text-anchor="middle">4</text>
	<text y="-12" text-anchor="middle">4</text>
</g>
<defs>
<path id="Hd" class="fill" d="m3 -1.6
	c-1 -1.8 -7 1.4 -6 3.2
	1 1.8 7 -1.4 6 -3.2
	m0.5 -0.3
	c2 3.8 -5 7.6 -7 3.8
	-2 -3.8 5 -7.6 7 -3.8"/>
</defs>
<use x="72.50" y="78.40" xlink:href="#Hd"/>
<path d="M76.00 78.40v-21.00" class="stroke"/>
<defs>
<ellipse id="hd" rx="4.1" ry="2.9"
	transform="rotate(-20)" class="fill"/>
</defs>
<use x="114.50" y="78.40" xlink:href="#hd"/>
<path d="M118.00 78.40v-21.00" class="stroke"/>
<use x="144.30" y="78.40" xlink:href="#hd"/>
<path d="M147.80 78.40v-21.00" class="stroke"/>
<use x="179.70" y="75.40" xlink:href="#Hd"/>
<path d="M183.20 75.40v-21.00" class="stroke"/>
<use x="221.70" y="78.40" xlink:href="#hd"/>
<path d="M225.20 78.40v-21.00" class="stroke"/>
<use x="251.70" y="72.40" xlink:href="#hd"/>
<path d="M248.20 72.40v21.00" class="stroke"/>
<use x="287.10" y="72.40" xlink:href="#Hd"/>
<path d="M283.60 72.40v21.00" class="stroke"/>
<use x="329.10" y="75.40" xlink:href="#Hd"/>
<path d="M325.60 75.40v21.00" class="stroke"/>
<defs>
<path id="HD" class="fill" d="m-2.7 -1.4
	c1.5 -2.8 6.9 0 5.3 2.7
	-1.5 2.8 -6.9 0 -5.3 -2.7
	m8.3 1.4
	c0 -1.5 -2.2 -3 -5.6 -3
	-3.4 0 -5.6 1.5 -5.6 3
	0 1.5 2.2 3 5.6 3
	3.4 0 5.6 -1.5 5.6 -3"/>
</defs>
<use x="374.00" y="78.40" xlink:href="#HD"/>
<use x="428.90" y="75.40" xlink:href="#Hd"/>
<path d="M432.40 75.40v-21.00" class="stroke"/>
<use x="470.80" y="75.40" xlink:href="#hd"/>
<path d="M474.30 75.40v-21.00" class="stroke"/>
<use x="500.70" y="75.40" xlink:href="#hd"/>
<path d="M504.20 75.40v-21.00" class="stroke"/>
<use x="536.00" y="78.40" xlink:href="#Hd"/>
<circle class="fill" cx="544.70" cy="78.40" r="1.2"/>
<path d="M539.50 78.40v-21.00" class="stroke"/>
<use x="584.30" y="78.40" xlink:href="#hd"/>
<path d="M587.80 78.40v-21.00" class="stroke"/>
<use x="619.70" y="75.40" xlink:href="#Hd"/>
<path d="M623.20 75.40v-21.00" class="stroke"/>
<use x="661.70" y="75.40" xlink:href="#Hd"/>
<path d="M665.20 75.40v-21.00" class="stroke"/>
<defs>
<path id="ubclef" class="fill" d="m-200 -87
	c124 -35 222 -78 254 -236
	43 -228 -167 -246 -192 -103
	59 -80 157 22 92 78
	-62 47 -115 -22 -106 -88
	21 -141 270 -136 274 52
	-1 175 -106 264 -322 297
	m357 -250
	c0 -36 51 -34 51 0
	0 37 -51 36 -51 0
	m-2 -129
	c0 -36 51 -34 51 0
	0 38 -51 37 -51 0"/>
<use id="bclef" transform="translate(0,18) scale(0.045)"
	xlink:href="#ubclef"/>
</defs>
<use x="22.00" y="127.40" xlink:href="#bclef"/>
<use x="37.00" y="139.40" xlink:href="#ft0"/>
<g style="font:bold 16px serif"
	transform="translate(53.00,144.90) scale(1.2,1)">
	<text text-anchor="middle">4</text>
	<text y="-12" text-anchor="middle">4</text>
</g>
<defs>
<path id="hl1" class="stroke" d="m-7 0h14"/>
</defs>
<use x="73.50" y="151.40" xlink:href="#hl1"/>
<use x="73.50" y="157.40" xlink:href="#hl1"/>
<use x="73.50" y="163.40" xlink:href="#hl1"/>
<use x="73.50" y="169.40" xlink:href="#hl1"/>
<use x="73.50" y="169.40" xlink:href="#HD"/>
<use x="73.50" y="148.40" xlink:href="#HD"/>
<use x="73.50" y="142.40" xlink:href="#HD"/>
<use x="73.50" y="136.40" xlink:href="#HD"/>
<use x="180.70" y="151.40" xlink:href="#hl1"/>
<use x="180.70" y="157.40" xlink:href="#hl1"/>
<use x="180.70" y="160.40" xlink:href="#HD"/>
<use x="180.70" y="139.40" xlink:href="#HD"/>
<use x="180.70" y="133.40" xlink:href="#HD"/>
<use x="180.70" y="127.40" xlink:href="#HD"/>
<use x="288.10" y="151.40" xlink:href="#hl1"/>
<use x="288.10" y="157.40" xlink:href="#hl1"/>
<use x="288.10" y="157.40" xlink:href="#HD"/>
<use x="288.10" y="136.40" xlink:href="#HD"/>
<use x="288.10" y="130.40" xlink:href="#HD"/>
<use x="288.10" y="124.40" xlink:href="#HD"/>
<use x="374.00" y="151.40" xlink:href="#hl1"/>
<use x="374.00" y="157.40" xlink:href="#hl1"/>
<use x="374.00" y="163.40" xlink:href="#hl1"/>
<use x="374.00" y="169.40" xlink:href="#hl1"/>
<use x="374.00" y="169.40" xlink:href="#HD"/>
<use x="374.00" y="148.40" xlink:href="#HD"/>
<use x="374.00" y="142.40" xlink:href="#HD"/>
<use x="374.00" y="136.40" xlink:href="#HD"/>
<use x="429.90" y="151.40" xlink:href="#hl1"/>
<use x="429.90" y="157.40" xlink:href="#hl1"/>
<use x="429.90" y="157.40" xlink:href="#HD"/>
<use x="429.90" y="136.40" xlink:href="#HD"/>
<use x="429.90" y="130.40" xlink:href="#HD"/>
<use x="429.90" y="124.40" xlink:href="#HD"/>
<use x="537.00" y="151.40" xlink:href="#hl1"/>
<use x="537.00" y="157.40" xlink:href="#hl1"/>
<use x="537.00" y="163.40" xlink:href="#hl1"/>
<use x="537.00" y="169.40" xlink:href="#hl1"/>
<use x="537.00" y="169.40" xlink:href="#HD"/>
<use x="537.00" y="148.40" xlink:href="#HD"/>
<use x="537.00" y="142.40" xlink:href="#HD"/>
<use x="537.00" y="136.40" xlink:href="#HD"/>
<use x="620.70" y="151.40" xlink:href="#hl1"/>
<use x="620.70" y="157.40" xlink:href="#hl1"/>
<use x="620.70" y="163.40" xlink:href="#hl1"/>
<use x="620.70" y="166.40" xlink:href="#HD"/>
<use x="620.70" y="145.40" xlink:href="#HD"/>
<use x="620.70" y="139.40" xlink:href="#HD"/>
<use x="620.70" y="133.40" xlink:href="#HD"/>
</g>
<g stroke-width="0.70" style="font:italic 11.00px Times">
<path class="stroke" stroke-width="1"
	d="M10.00 280.40v-82.00"/>
<g transform="translate(10.00,198.40) scale(1,0.82)">
	<use xlink:href="#brace"/>
</g>
<path class="stroke" stroke-width="1"
	d="M136.50 222.40v-24.00"/>
<path class="stroke" stroke-width="1"
	d="M136.50 280.40v-24.00"/>
<path class="stroke" stroke-width="1"
	d="M233.40 222.40v-24.00"/>
<path class="stroke" stroke-width="1"
	d="M233.40 280.40v-24.00"/>
<path class="stroke" stroke-width="1"
	d="M311.30 222.40v-24.00"/>
<path class="stroke" stroke-width="1"
	d="M311.30 280.40v-24.00"/>
<path class="stroke" stroke-width="1"
	d="M422.80 222.40v-24.00"/>
<path class="stroke" stroke-width="1"
	d="M422.80 280.40v-24.00"/>
<path class="stroke" stroke-width="1"
	d="M516.50 222.40v-24.00"/>
<path class="stroke" stroke-width="1"
	d="M516.50 280.40v-24.00"/>
<path class="stroke" stroke-width="1"
	d="M613.70 222.40v-24.00"/>
<path class="stroke" stroke-width="1"
	d="M613.70 280.40v-24.00"/>
<path class="stroke" stroke-width="1"
	d="M691.60 222.40v-24.00"/>
<path class="stroke" stroke-width="1"
	d="M691.60 280.40v-24.00"/>
<path d="m10.00 222.40
	h681.60
	M10.00 216.40
	h681.60
	M10.00 210.40
	h681.60
	M10.00 204.40
	h681.60
	M10.00 198.40
	h681.60
	" class="stroke"/>
<path d="m10.00 280.40
	h681.60
	M10.00 274.40
	h681.60
	M10.00 268.40
	h681.60
	M10.00 262.40
	h681.60
	M10.00 256.40
	h681.60
	" class="stroke"/>
</g>
<g stroke-width="0.70" style="font:bold 13.00px Times">
<text x="52.60" y="193.80">V</text>
</g>
<g stroke-width="0.70" style="font:bold 13.00px Times">
<text x="148.70" y="193.80">I</text>
</g>
<g stroke-width="0.70" style="font:bold 13.00px Times">
<text x="245.60" y="185.80">I</text>
</g>
<g stroke-width="0.70" style="font:bold 13.00px Times">
<text x="317.90" y="191.80">V<tspan
	 style="font:italic 11.00px Times">⁷</tspan></text>
</g>
<g stroke-width="0.70" style="font:bold 13.00px Times">
<text x="435.00" y="191.80">I</text>
</g>
<g stroke-width="0.70" style="font:bold 13.00px Times">
<text x="528.70" y="185.80">I</text>
</g>
<g stroke-width="0.70" style="font:bold 13.00px Times">
<text x="625.90" y="193.80">I</text>
<use x="22.00" y="216.40" xlink:href="#tclef"/>
<use x="37.00" y="210.40" xlink:href="#ft0"/>
<use x="57.50" y="207.40" xlink:href="#HD"/>
<use x="150.50" y="207.40" xlink:href="#Hd"/>
<path d="M147.00 207.40v21.00" class="stroke"/>
<use x="187.70" y="207.40" xlink:href="#hd"/>
<path d="M184.20 207.40v21.00" class="stroke"/>
<use x="214.20" y="210.40" xlink:href="#hd"/>
<path d="M210.70 210.40v21.00" class="stroke"/>
<use x="247.40" y="213.40" xlink:href="#Hd"/>
<path d="M250.90 213.40v-21.00" class="stroke"/>
<use x="284.70" y="219.40" xlink:href="#Hd"/>
<path d="M288.20 219.40v-21.00" class="stroke"/>
<use x="323.80" y="222.40" xlink:href="#hd"/>
<path d="M327.30 222.40v-21.00" class="stroke"/>
<use x="350.60" y="219.40" xlink:href="#hd"/>
<path d="M354.10 219.40v-21.00" class="stroke"/>
<use x="377.10" y="216.40" xlink:href="#hd"/>
<path d="M380.60 216.40v-21.00" class="stroke"/>
<use x="403.60" y="213.40" xlink:href="#hd"/>
<path d="M407.10 213.40v-21.00" class="stroke"/>
<use x="437.80" y="210.40" xlink:href="#HD"/>
<use x="530.50" y="213.40" xlink:href="#Hd"/>
<path d="M534.00 213.40v-21.00" class="stroke"/>
<use x="568.00" y="204.40" xlink:href="#hd"/>
<path d="M564.50 204.40v21.00" class="stroke"/>
<use x="594.50" y="204.40" xlink:href="#hd"/>
<path d="M591.00 204.40v21.00" class="stroke"/>
<use x="627.70" y="207.40" xlink:href="#Hd"/>
<path d="M624.20 207.40v21.00" class="stroke"/>
<use x="664.90" y="213.40" xlink:href="#Hd"/>
<path d="M668.40 213.40v-21.00" class="stroke"/>
<use x="22.00" y="262.40" xlink:href="#bclef"/>
<use x="37.00" y="274.40" xlink:href="#ft0"/>
<use x="56.50" y="271.40" xlink:href="#hd"/>
<path d="M60.00 271.40v-21.00" class="stroke"/>
<use x="83.30" y="265.40" xlink:href="#hd"/>
<path d="M79.80 265.40v21.00" class="stroke"/>
<use x="109.80" y="259.40" xlink:href="#Hd"/>
<path d="M106.30 259.40v21.00" class="stroke"/>
<use x="151.50" y="286.40" xlink:href="#hl1"/>
<use x="151.50" y="292.40" xlink:href="#hl1"/>
<use x="151.50" y="298.40" xlink:href="#hl1"/>
<use x="151.50" y="304.40" xlink:href="#hl1"/>
<use x="151.50" y="304.40" xlink:href="#HD"/>
<use x="151.50" y="283.40" xlink:href="#HD"/>
<use x="151.50" y="277.40" xlink:href="#HD"/>
<use x="151.50" y="271.40" xlink:href="#HD"/>
<use x="248.40" y="286.40" xlink:href="#hl1"/>
<use x="248.40" y="292.40" xlink:href="#hl1"/>
<use x="248.40" y="298.40" xlink:href="#hl1"/>
<use x="248.40" y="304.40" xlink:href="#hl1"/>
<use x="248.40" y="304.40" xlink:href="#HD"/>
<use x="248.40" y="283.40" xlink:href="#HD"/>
<use x="248.40" y="277.40" xlink:href="#HD"/>
<use x="248.40" y="271.40" xlink:href="#HD"/>
<use x="323.80" y="271.40" xlink:href="#hd"/>
<path d="M327.30 271.40v-21.00" class="stroke"/>
<use x="350.60" y="265.40" xlink:href="#hd"/>
<path d="M347.10 265.40v21.00" class="stroke"/>
<use x="377.10" y="259.40" xlink:href="#hd"/>
<path d="M373.60 259.40v21.00" class="stroke"/>
<use x="403.60" y="265.40" xlink:href="#hd"/>
<path d="M400.10 265.40v21.00" class="stroke"/>
<use x="436.80" y="283.40" xlink:href="#hd"/>
<path d="M440.30 283.40v-21.00" class="stroke"/>
<use x="463.30" y="277.40" xlink:href="#hd"/>
<path d="M466.80 277.40v-21.00" class="stroke"/>
<use x="489.90" y="271.40" xlink:href="#Hd"/>
<path d="M493.40 271.40v-21.00" class="stroke"/>
<use x="531.50" y="286.40" xlink:href="#hl1"/>
<use x="531.50" y="292.40" xlink:href="#hl1"/>
<use x="531.50" y="298.40" xlink:href="#hl1"/>
<use x="531.50" y="304.40" xlink:href="#hl1"/>
<use x="531.50" y="304.40" xlink:href="#HD"/>
<use x="531.50" y="283.40" xlink:href="#HD"/>
<use x="531.50" y="277.40" xlink:href="#HD"/>
<use x="531.50" y="271.40" xlink:href="#HD"/>
<use x="628.70" y="286.40" xlink:href="#hl1"/>
<use x="628.70" y="292.40" xlink:href="#hl1"/>
<use x="628.70" y="298.40" xlink:href="#hl1"/>
<use x="628.70" y="304.40" xlink:href="#hl1"/>
<use x="628.70" y="304.40" xlink:href="#HD"/>
<use x="628.70" y="283.40" xlink:href="#HD"/>
<use x="628.70" y="277.40" xlink:href="#HD"/>
<use x="628.70" y="271.40" xlink:href="#HD"/>
</g>
<g stroke-width="0.70" style="font:bold 13.00px Times">
<path class="stroke" stroke-width="1"
	d="M10.00 415.40v-82.00"/>
<g transform="translate(10.00,333.40) scale(1,0.82)">
	<use xlink:href="#brace"/>
</g>
<path class="stroke" stroke-width="1"
	d="M175.10 357.40v-24.00"/>
<path class="stroke" stroke-width="1"
	d="M175.10 415.40v-24.00"/>
<path class="stroke" stroke-width="1"
	d="M245.30 357.40v-24.00"/>
<path class="stroke" stroke-width="1"
	d="M245.30 415.40v-24.00"/>
<path d="m10.00 357.40
	h235.30
	M10.00 351.40
	h235.30
	M10.00 345.40
	h235.30
	M10.00 339.40
	h235.30
	M10.00 333.40
	h235.30
	" class="stroke"/>
<path d="m10.00 415.40
	h235.30
	M10.00 409.40
	h235.30
	M10.00 403.40
	h235.30
	M10.00 397.40
	h235.30
	M10.00 391.40
	h235.30
	" class="stroke"/>
</g>
<g stroke-width="0.70" style="font:bold 13.00px Times">
<text x="51.70" y="326.80">I<tspan
	 style="font:italic 11.00px Times">²</tspan></text>
</g>
<g stroke-width="0.70" style="font:bold 13.00px Times">
<text x="187.50" y="328.80">I</text>
<use x="22.00" y="351.40" xlink:href="#tclef"/>
<use x="37.00" y="345.40" xlink:href="#ft0"/>
<use x="55.50" y="354.40" xlink:href="#Hd"/>
<path d="M59.00 354.40v-21.00" class="stroke"/>
<use x="135.50" y="351.40" xlink:href="#Hd"/>
<path d="M139.00 351.40v-21.00" class="stroke"/>
<use x="190.30" y="354.40" xlink:href="#HD"/>
<use x="22.00" y="397.40" xlink:href="#bclef"/>
<use x="37.00" y="409.40" xlink:href="#ft0"/>
<use x="55.50" y="418.40" xlink:href="#hd"/>
<path d="M59.00 418.40v-21.00" class="stroke"/>
<use x="95.50" y="412.40" xlink:href="#hd"/>
<path d="M99.00 412.40v-21.00" class="stroke"/>
<use x="135.50" y="406.40" xlink:href="#Hd"/>
<path d="M139.00 406.40v-21.00" class="stroke"/>
<use x="190.30" y="421.40" xlink:href="#hl1"/>
<use x="190.30" y="427.40" xlink:href="#hl1"/>
<use x="190.30" y="433.40" xlink:href="#hl1"/>
<use x="190.30" y="439.40" xlink:href="#hl1"/>
<use x="190.30" y="439.40" xlink:href="#HD"/>
<use x="190.30" y="418.40" xlink:href="#HD"/>
<use x="190.30" y="412.40" xlink:href="#HD"/>
<use x="190.30" y="406.40" xlink:href="#HD"/>
</g>
</svg>
