<?xml version="1.0" standalone="no"?>
<!DOCTYPE svg PUBLIC "-//W3C//DTD SVG 1.1//EN"
	"http://www.w3.org/Graphics/SVG/1.1/DTD/svg11.dtd">
<svg xmlns="http://www.w3.org/2000/svg" version="1.1"
	xmlns:xlink="http://www.w3.org/1999/xlink"
	color="black"
	width="701.60px" height="426.80px" viewBox="0 0 701.60 426.80" preserveAspectRatio="xMidYMid meet">
<style type="text/css">
.fill {fill: currentColor}
.stroke {stroke: currentColor; fill: none}
text{white-space: pre}
</style>
<title>/tmp/retab_hymnal_L3/be_thou_my_vision.abc (1) tune 1</title>
<!-- Creator: abcm2ps-8.14.11 -->
<!-- CreationDate: Apr 24, 2026 15:38 -->
<!-- CommandLine: /tmp/retab_hymnal_L3/be_thou_my_vision.abc -g -O /tmp/retab_hymnal_L3/be_thou_my_vision -->
<g stroke-width="0.70">
<!-- title: 033. Be Thou My Vision -->
</g>
<g stroke-width="0.70" style="font:20.00px Times">
<text x="350.80" y="22.00" text-anchor="middle">033. Be Thou My Vision</text>
</g>
<g stroke-width="0.70" style="font:20.00px Times">
<path class="stroke" stroke-width="1"
	d="M10.00 143.00v-82.00"/>
<defs>
<path id="brace" class="fill" d="m-2.5 101
	c-4.5 -4.6 -7.5 -12.2 -4.4 -26.8
	3.5 -14.3 3.2 -21.7 -2.1 -24.2
	7.4 2.4 7.3 14.2 3.5 29.5
	-2.7 9.5 -1.5 16.2 3 21.5
	M-2.5 1c-4.5 4.6 -7.5 12.2 -4.4 26.8
	c3.5 14.3 3.2 21.7 -2.1 24.2
	7.4 -2.4 7.3 -14.2 3.5 -29.5
	-2.7 -9.5 -1.5 -16.2 3 -21.5"/>
</defs>
<g transform="translate(10.00,61.00) scale(1,0.82)">
	<use xlink:href="#brace"/>
</g>
<path class="stroke" stroke-width="1"
	d="M200.20 85.00v-24.00"/>
<path class="stroke" stroke-width="1"
	d="M200.20 143.00v-24.00"/>
<path class="stroke" stroke-width="1"
	d="M337.70 85.00v-24.00"/>
<path class="stroke" stroke-width="1"
	d="M337.70 143.00v-24.00"/>
<path class="stroke" stroke-width="1"
	d="M455.70 85.00v-24.00"/>
<path class="stroke" stroke-width="1"
	d="M455.70 143.00v-24.00"/>
<path class="stroke" stroke-width="1"
	d="M573.60 85.00v-24.00"/>
<path class="stroke" stroke-width="1"
	d="M573.60 143.00v-24.00"/>
<path class="stroke" stroke-width="1"
	d="M691.60 85.00v-24.00"/>
<path class="stroke" stroke-width="1"
	d="M691.60 143.00v-24.00"/>
<path d="m10.00 85.00
	h681.60
	M10.00 79.00
	h681.60
	M10.00 73.00
	h681.60
	M10.00 67.00
	h681.60
	M10.00 61.00
	h681.60
	" class="stroke"/>
<path d="m10.00 143.00
	h681.60
	M10.00 137.00
	h681.60
	M10.00 131.00
	h681.60
	M10.00 125.00
	h681.60
	M10.00 119.00
	h681.60
	" class="stroke"/>
</g>
<g stroke-width="0.70" style="font:bold 13.00px Times">
<text x="69.10" y="56.40">III<tspan
	 style="font:italic 11.00px Times">²</tspan></text>
</g>
<g stroke-width="0.70" style="font:bold 13.00px Times">
<text x="206.50" y="54.40">III<tspan
	 style="font:italic 11.00px Times">¹</tspan></text>
</g>
<g stroke-width="0.70" style="font:bold 13.00px Times">
<text x="344.00" y="54.40">III<tspan
	 style="font:italic 11.00px Times">²</tspan></text>
</g>
<g stroke-width="0.70" style="font:bold 13.00px Times">
<text x="463.60" y="51.40">VI</text>
</g>
<g stroke-width="0.70" style="font:bold 13.00px Times">
<text x="581.90" y="54.40">III</text>
<defs>
<path id="utclef" class="fill" d="m-50 -90
	c-72 -41 -72 -158 52 -188
	150 -10 220 188 90 256
	-114 52 -275 0 -293 -136
	-15 -181 93 -229 220 -334
	88 -87 79 -133 62 -210
	-51 33 -94 105 -89 186
	17 267 36 374 49 574
	6 96 -19 134 -77 135
	-80 1 -126 -93 -61 -133
	85 -41 133 101 31 105
	23 17 92 37 90 -92
	-10 -223 -39 -342 -50 -617
	0 -90 0 -162 96 -232
	56 72 63 230 22 289
	-74 106 -257 168 -255 316
	9 153 148 185 252 133
	86 -65 29 -192 -80 -176
	-71 12 -105 67 -59 124"/>
<use id="tclef" transform="translate(0,6) scale(0.045)"
	xlink:href="#utclef"/>
</defs>
<use x="22.00" y="79.00" xlink:href="#tclef"/>
<defs>
<path id="uflat" class="fill" d="
	m100 -746
	h32
	v734
	l-32 4
	m32 -332
	c46 -72 152 -90 208 -20
	100 110 -120 326 -208 348
	m0 -28
	c54 0 200 -206 130 -290
	-50 -60 -130 -4 -130 34"/>
<use id="ft0" transform="translate(-3.5,3.5) scale(0.018)"
	xlink:href="#uflat"/>
</defs>
<use x="37.00" y="73.00" xlink:href="#ft0"/>
<use x="42.50" y="64.00" xlink:href="#ft0"/>
<g style="font:bold 16px serif"
	transform="translate(58.50,84.50) scale(1.2,1)">
	<text text-anchor="middle">4</text>
	<text y="-12" text-anchor="middle">3</text>
</g>
<defs>
<ellipse id="hd" rx="4.1" ry="2.9"
	transform="rotate(-20)" class="fill"/>
</defs>
<use x="76.50" y="85.00" xlink:href="#hd"/>
<path d="M80.00 85.00v-21.00" class="stroke"/>
<use x="115.10" y="85.00" xlink:href="#hd"/>
<path d="M118.60 85.00v-21.00" class="stroke"/>
<use x="153.70" y="82.00" xlink:href="#hd"/>
<path d="M157.20 82.00v-21.00" class="stroke"/>
<path class="fill"
	d="M157.20 61.00c0.6 5.6 9.6 9 5.6 18.4
	1.6 -6 -1.3 -11.6 -5.6 -12.8
"/>
<use x="181.10" y="85.00" xlink:href="#hd"/>
<path d="M184.60 85.00v-21.00" class="stroke"/>
<path class="fill"
	d="M184.60 64.00c0.6 5.6 9.6 9 5.6 18.4
	1.6 -6 -1.3 -11.6 -5.6 -12.8
"/>
<defs>
<path id="hl" class="stroke" d="m-6 0h12"/>
</defs>
<use x="213.90" y="91.00" xlink:href="#hl"/>
<use x="213.90" y="91.00" xlink:href="#hd"/>
<path d="M217.40 91.00v-21.00" class="stroke"/>
<use x="252.60" y="91.00" xlink:href="#hl"/>
<use x="252.60" y="94.00" xlink:href="#hd"/>
<path d="M256.10 94.00v-21.00" class="stroke"/>
<use x="291.20" y="91.00" xlink:href="#hl"/>
<use x="291.20" y="94.00" xlink:href="#hd"/>
<path d="M294.70 94.00v-21.00" class="stroke"/>
<path class="fill"
	d="M294.70 73.00c0.6 5.6 9.6 9 5.6 18.4
	1.6 -6 -1.3 -11.6 -5.6 -12.8
"/>
<use x="318.50" y="91.00" xlink:href="#hl"/>
<use x="318.50" y="91.00" xlink:href="#hd"/>
<path d="M322.00 91.00v-21.00" class="stroke"/>
<path class="fill"
	d="M322.00 70.00c0.6 5.6 9.6 9 5.6 18.4
	1.6 -6 -1.3 -11.6 -5.6 -12.8
"/>
<use x="351.40" y="85.00" xlink:href="#hd"/>
<path d="M354.90 85.00v-21.00" class="stroke"/>
<use x="390.00" y="85.00" xlink:href="#hd"/>
<path d="M393.50 85.00v-21.00" class="stroke"/>
<use x="428.60" y="82.00" xlink:href="#hd"/>
<path d="M432.10 82.00v-21.00" class="stroke"/>
<defs>
<path id="Hd" class="fill" d="m3 -1.6
	c-1 -1.8 -7 1.4 -6 3.2
	1 1.8 7 -1.4 6 -3.2
	m0.5 -0.3
	c2 3.8 -5 7.6 -7 3.8
	-2 -3.8 5 -7.6 7 -3.8"/>
</defs>
<use x="469.40" y="79.00" xlink:href="#Hd"/>
<circle class="fill" cx="478.10" cy="76.00" r="1.2"/>
<path d="M472.90 79.00v-21.00" class="stroke"/>
<use x="587.30" y="82.00" xlink:href="#hd"/>
<path d="M590.80 82.00v-21.00" class="stroke"/>
<use x="625.90" y="82.00" xlink:href="#hd"/>
<path d="M629.40 82.00v-21.00" class="stroke"/>
<use x="664.50" y="82.00" xlink:href="#hd"/>
<path d="M668.00 82.00v-21.00" class="stroke"/>
<defs>
<path id="ubclef" class="fill" d="m-200 -87
	c124 -35 222 -78 254 -236
	43 -228 -167 -246 -192 -103
	59 -80 157 22 92 78
	-62 47 -115 -22 -106 -88
	21 -141 270 -136 274 52
	-1 175 -106 264 -322 297
	m357 -250
	c0 -36 51 -34 51 0
	0 37 -51 36 -51 0
	m-2 -129
	c0 -36 51 -34 51 0
	0 38 -51 37 -51 0"/>
<use id="bclef" transform="translate(0,18) scale(0.045)"
	xlink:href="#ubclef"/>
</defs>
<use x="22.00" y="125.00" xlink:href="#bclef"/>
<use x="37.00" y="137.00" xlink:href="#ft0"/>
<use x="42.50" y="128.00" xlink:href="#ft0"/>
<g style="font:bold 16px serif"
	transform="translate(58.50,142.50) scale(1.2,1)">
	<text text-anchor="middle">4</text>
	<text y="-12" text-anchor="middle">3</text>
</g>
<use x="76.50" y="137.00" xlink:href="#hd"/>
<path d="M80.00 137.00v-21.00" class="stroke"/>
<use x="115.10" y="131.00" xlink:href="#hd"/>
<path d="M118.60 131.00v-21.00" class="stroke"/>
<use x="153.70" y="125.00" xlink:href="#hd"/>
<path d="M150.20 125.00v21.00" class="stroke"/>
<use x="213.90" y="137.00" xlink:href="#hd"/>
<path d="M217.40 137.00v-21.00" class="stroke"/>
<use x="252.60" y="131.00" xlink:href="#hd"/>
<path d="M256.10 131.00v-21.00" class="stroke"/>
<use x="291.20" y="125.00" xlink:href="#hd"/>
<path d="M287.70 125.00v21.00" class="stroke"/>
<use x="351.40" y="137.00" xlink:href="#hd"/>
<path d="M354.90 137.00v-21.00" class="stroke"/>
<use x="390.00" y="131.00" xlink:href="#hd"/>
<path d="M393.50 131.00v-21.00" class="stroke"/>
<use x="428.60" y="125.00" xlink:href="#hd"/>
<path d="M425.10 125.00v21.00" class="stroke"/>
<use x="469.40" y="128.00" xlink:href="#hd"/>
<path d="M465.90 128.00v21.00" class="stroke"/>
<use x="508.00" y="122.00" xlink:href="#hd"/>
<path d="M504.50 122.00v21.00" class="stroke"/>
<use x="546.60" y="116.00" xlink:href="#hd"/>
<path d="M543.10 116.00v21.00" class="stroke"/>
<use x="587.30" y="137.00" xlink:href="#hd"/>
<path d="M590.80 137.00v-21.00" class="stroke"/>
<use x="625.90" y="131.00" xlink:href="#hd"/>
<path d="M629.40 131.00v-21.00" class="stroke"/>
<use x="664.50" y="125.00" xlink:href="#hd"/>
<path d="M661.00 125.00v21.00" class="stroke"/>
</g>
<g stroke-width="0.70" style="font:bold 13.00px Times">
<path class="stroke" stroke-width="1"
	d="M10.00 273.40v-82.00"/>
<g transform="translate(10.00,191.40) scale(1,0.82)">
	<use xlink:href="#brace"/>
</g>
<path class="stroke" stroke-width="1"
	d="M168.10 215.40v-24.00"/>
<path class="stroke" stroke-width="1"
	d="M168.10 273.40v-24.00"/>
<path class="stroke" stroke-width="1"
	d="M289.80 215.40v-24.00"/>
<path class="stroke" stroke-width="1"
	d="M289.80 273.40v-24.00"/>
<path class="stroke" stroke-width="1"
	d="M411.60 215.40v-24.00"/>
<path class="stroke" stroke-width="1"
	d="M411.60 273.40v-24.00"/>
<path class="stroke" stroke-width="1"
	d="M569.90 215.40v-24.00"/>
<path class="stroke" stroke-width="1"
	d="M569.90 273.40v-24.00"/>
<path class="stroke" stroke-width="1"
	d="M691.60 215.40v-24.00"/>
<path class="stroke" stroke-width="1"
	d="M691.60 273.40v-24.00"/>
<path d="m10.00 215.40
	h681.60
	M10.00 209.40
	h681.60
	M10.00 203.40
	h681.60
	M10.00 197.40
	h681.60
	M10.00 191.40
	h681.60
	" class="stroke"/>
<path d="m10.00 273.40
	h681.60
	M10.00 267.40
	h681.60
	M10.00 261.40
	h681.60
	M10.00 255.40
	h681.60
	M10.00 249.40
	h681.60
	" class="stroke"/>
</g>
<g stroke-width="0.70" style="font:bold 13.00px Times">
<text x="58.70" y="184.80">I</text>
</g>
<g stroke-width="0.70" style="font:bold 13.00px Times">
<text x="180.40" y="184.80">I</text>
</g>
<g stroke-width="0.70" style="font:bold 13.00px Times">
<text x="296.20" y="175.80">VI<tspan
	 style="font:italic 11.00px Times">¹</tspan></text>
</g>
<g stroke-width="0.70" style="font:bold 13.00px Times">
<text x="418.30" y="186.80">ii○<tspan
	 style="font:italic 11.00px Times">¹</tspan></text>
</g>
<g stroke-width="0.70" style="font:bold 13.00px Times">
<text x="578.50" y="186.80">III</text>
<use x="22.00" y="209.40" xlink:href="#tclef"/>
<use x="37.00" y="203.40" xlink:href="#ft0"/>
<use x="42.50" y="194.40" xlink:href="#ft0"/>
<use x="60.50" y="212.40" xlink:href="#hd"/>
<path d="M64.00 212.40v-21.00" class="stroke"/>
<use x="100.40" y="209.40" xlink:href="#hd"/>
<path d="M103.90 209.40v-21.00" class="stroke"/>
<use x="140.20" y="203.40" xlink:href="#hd"/>
<path d="M143.70 203.40v-21.00" class="stroke"/>
<use x="182.20" y="200.40" xlink:href="#hd"/>
<path d="M178.70 200.40v21.00" class="stroke"/>
<use x="222.10" y="203.40" xlink:href="#hd"/>
<path d="M218.60 203.40v21.00" class="stroke"/>
<use x="261.90" y="209.40" xlink:href="#hd"/>
<path d="M265.40 209.40v-21.00" class="stroke"/>
<use x="303.90" y="203.40" xlink:href="#Hd"/>
<circle class="fill" cx="312.60" cy="200.40" r="1.2"/>
<path d="M307.40 203.40v-21.00" class="stroke"/>
<use x="425.70" y="200.40" xlink:href="#hd"/>
<path d="M422.20 200.40v21.00" class="stroke"/>
<use x="465.50" y="200.40" xlink:href="#hd"/>
<path d="M462.00 200.40v21.00" class="stroke"/>
<path class="fill"
	d="M462.00 221.40c0.6 -5.6 9.6 -9 5.6 -18.4
	1.6 6 -1.3 11.6 -5.6 12.8
"/>
<use x="493.70" y="197.40" xlink:href="#hd"/>
<path d="M490.20 197.40v21.00" class="stroke"/>
<path class="fill"
	d="M490.20 218.40c0.6 -5.6 9.6 -9 5.6 -18.4
	1.6 6 -1.3 11.6 -5.6 12.8
"/>
<use x="521.90" y="194.40" xlink:href="#hd"/>
<path d="M518.40 194.40v21.00" class="stroke"/>
<path class="fill"
	d="M518.40 215.40c0.6 -5.6 9.6 -9 5.6 -18.4
	1.6 6 -1.3 11.6 -5.6 12.8
"/>
<use x="550.10" y="197.40" xlink:href="#hd"/>
<path d="M546.60 197.40v21.00" class="stroke"/>
<path class="fill"
	d="M546.60 218.40c0.6 -5.6 9.6 -9 5.6 -18.4
	1.6 6 -1.3 11.6 -5.6 12.8
"/>
<use x="584.00" y="200.40" xlink:href="#hd"/>
<path d="M580.50 200.40v21.00" class="stroke"/>
<use x="623.80" y="203.40" xlink:href="#hd"/>
<path d="M620.30 203.40v21.00" class="stroke"/>
<use x="663.70" y="209.40" xlink:href="#hd"/>
<path d="M667.20 209.40v-21.00" class="stroke"/>
<use x="22.00" y="255.40" xlink:href="#bclef"/>
<use x="37.00" y="267.40" xlink:href="#ft0"/>
<use x="42.50" y="258.40" xlink:href="#ft0"/>
<use x="60.50" y="267.40" xlink:href="#hd"/>
<path d="M64.00 267.40v-21.00" class="stroke"/>
<use x="100.40" y="261.40" xlink:href="#hd"/>
<path d="M103.90 261.40v-21.00" class="stroke"/>
<use x="140.20" y="255.40" xlink:href="#hd"/>
<path d="M136.70 255.40v21.00" class="stroke"/>
<use x="182.20" y="267.40" xlink:href="#hd"/>
<path d="M185.70 267.40v-21.00" class="stroke"/>
<use x="222.10" y="261.40" xlink:href="#hd"/>
<path d="M225.60 261.40v-21.00" class="stroke"/>
<use x="261.90" y="255.40" xlink:href="#hd"/>
<path d="M258.40 255.40v21.00" class="stroke"/>
<use x="303.90" y="258.40" xlink:href="#hd"/>
<path d="M300.40 258.40v21.00" class="stroke"/>
<use x="343.80" y="252.40" xlink:href="#hd"/>
<path d="M340.30 252.40v21.00" class="stroke"/>
<use x="383.70" y="246.40" xlink:href="#hd"/>
<path d="M380.20 246.40v21.00" class="stroke"/>
<use x="425.70" y="267.40" xlink:href="#hd"/>
<path d="M429.20 267.40v-21.00" class="stroke"/>
<use x="465.50" y="261.40" xlink:href="#hd"/>
<path d="M469.00 261.40v-21.00" class="stroke"/>
<use x="521.90" y="255.40" xlink:href="#hd"/>
<path d="M518.40 255.40v21.00" class="stroke"/>
<use x="584.00" y="267.40" xlink:href="#hd"/>
<path d="M587.50 267.40v-21.00" class="stroke"/>
<use x="623.80" y="261.40" xlink:href="#hd"/>
<path d="M627.30 261.40v-21.00" class="stroke"/>
<use x="663.70" y="255.40" xlink:href="#hd"/>
<path d="M660.20 255.40v21.00" class="stroke"/>
</g>
<g stroke-width="0.70" style="font:bold 13.00px Times">
<path class="stroke" stroke-width="1"
	d="M10.00 403.80v-82.00"/>
<g transform="translate(10.00,321.80) scale(1,0.82)">
	<use xlink:href="#brace"/>
</g>
<path class="stroke" stroke-width="1"
	d="M150.20 345.80v-24.00"/>
<path class="stroke" stroke-width="1"
	d="M150.20 403.80v-24.00"/>
<path class="stroke" stroke-width="1"
	d="M253.00 345.80v-24.00"/>
<path class="stroke" stroke-width="1"
	d="M253.00 403.80v-24.00"/>
<path class="stroke" stroke-width="1"
	d="M355.30 345.80v-24.00"/>
<path class="stroke" stroke-width="1"
	d="M355.30 403.80v-24.00"/>
<path class="stroke" stroke-width="1"
	d="M486.50 345.80v-24.00"/>
<path class="stroke" stroke-width="1"
	d="M486.50 403.80v-24.00"/>
<path class="stroke" stroke-width="1"
	d="M588.90 345.80v-24.00"/>
<path class="stroke" stroke-width="1"
	d="M588.90 403.80v-24.00"/>
<path class="stroke" stroke-width="1"
	d="M691.60 345.80v-24.00"/>
<path class="stroke" stroke-width="1"
	d="M691.60 403.80v-24.00"/>
<path d="m10.00 345.80
	h681.60
	M10.00 339.80
	h681.60
	M10.00 333.80
	h681.60
	M10.00 327.80
	h681.60
	M10.00 321.80
	h681.60
	" class="stroke"/>
<path d="m10.00 403.80
	h681.60
	M10.00 397.80
	h681.60
	M10.00 391.80
	h681.60
	M10.00 385.80
	h681.60
	M10.00 379.80
	h681.60
	" class="stroke"/>
</g>
<g stroke-width="0.70" style="font:bold 13.00px Times">
<text x="52.80" y="306.20">VI<tspan
	 style="font:italic 11.00px Times">¹</tspan></text>
</g>
<g stroke-width="0.70" style="font:bold 13.00px Times">
<text x="161.70" y="317.20">i</text>
</g>
<g stroke-width="0.70" style="font:bold 13.00px Times">
<text x="263.70" y="315.20">I</text>
</g>
<g stroke-width="0.70" style="font:bold 13.00px Times">
<text x="362.40" y="315.20">ii○</text>
</g>
<g stroke-width="0.70" style="font:bold 13.00px Times">
<text x="491.60" y="315.20">III<tspan
	 style="font:italic 11.00px Times">²</tspan></text>
</g>
<g stroke-width="0.70" style="font:bold 13.00px Times">
<text x="594.10" y="315.20">VI<tspan
	 style="font:italic 11.00px Times">¹</tspan></text>
</g>
<g stroke-width="0.70" style="font:italic 11.00px Times">
<use x="22.00" y="339.80" xlink:href="#tclef"/>
<use x="37.00" y="333.80" xlink:href="#ft0"/>
<use x="42.50" y="324.80" xlink:href="#ft0"/>
<use x="60.50" y="333.80" xlink:href="#hd"/>
<path d="M64.00 333.80v-21.00" class="stroke"/>
<use x="93.70" y="345.80" xlink:href="#hd"/>
<path d="M97.20 345.80v-21.00" class="stroke"/>
<use x="126.80" y="348.80" xlink:href="#hd"/>
<path d="M130.30 348.80v-21.00" class="stroke"/>
<use x="163.20" y="351.80" xlink:href="#hl"/>
<use x="163.20" y="351.80" xlink:href="#Hd"/>
<path d="M166.70 351.80v-21.00" class="stroke"/>
<use x="229.60" y="351.80" xlink:href="#hl"/>
<use x="229.60" y="354.80" xlink:href="#hd"/>
<path d="M233.10 354.80v-21.00" class="stroke"/>
<use x="265.50" y="345.80" xlink:href="#hd"/>
<path d="M269.00 345.80v-21.00" class="stroke"/>
<use x="298.70" y="339.80" xlink:href="#hd"/>
<path d="M302.20 339.80v-21.00" class="stroke"/>
<use x="331.90" y="333.80" xlink:href="#hd"/>
<path d="M335.40 333.80v-21.00" class="stroke"/>
<use x="367.80" y="330.80" xlink:href="#hd"/>
<path d="M364.30 330.80v21.00" class="stroke"/>
<path class="fill"
	d="M364.30 351.80c0.6 -5.6 9.6 -9 5.6 -18.4
	1.6 6 -1.3 11.6 -5.6 12.8
"/>
<use x="391.40" y="333.80" xlink:href="#hd"/>
<path d="M387.90 333.80v21.00" class="stroke"/>
<path class="fill"
	d="M387.90 354.80c0.6 -5.6 9.6 -9 5.6 -18.4
	1.6 6 -1.3 11.6 -5.6 12.8
"/>
<use x="412.60" y="339.80" xlink:href="#hd"/>
<path d="M416.10 339.80v-21.00" class="stroke"/>
<use x="445.80" y="345.80" xlink:href="#hd"/>
<path d="M449.30 345.80v-21.00" class="stroke"/>
<path class="fill"
	d="M449.30 324.80c0.6 5.6 9.6 9 5.6 18.4
	1.6 -6 -1.3 -11.6 -5.6 -12.8
"/>
<use x="469.50" y="339.80" xlink:href="#hd"/>
<path d="M473.00 339.80v-21.00" class="stroke"/>
<path class="fill"
	d="M473.00 318.80c0.6 5.6 9.6 9 5.6 18.4
	1.6 -6 -1.3 -11.6 -5.6 -12.8
"/>
<use x="499.00" y="342.80" xlink:href="#hd"/>
<path d="M502.50 342.80v-21.00" class="stroke"/>
<use x="532.20" y="345.80" xlink:href="#hd"/>
<path d="M535.70 345.80v-21.00" class="stroke"/>
<use x="565.40" y="345.80" xlink:href="#hd"/>
<path d="M568.90 345.80v-21.00" class="stroke"/>
<use x="601.90" y="345.80" xlink:href="#Hd"/>
<circle class="fill" cx="610.60" cy="342.80" r="1.2"/>
<path d="M605.40 345.80v-21.00" class="stroke"/>
<use x="22.00" y="385.80" xlink:href="#bclef"/>
<use x="37.00" y="397.80" xlink:href="#ft0"/>
<use x="42.50" y="388.80" xlink:href="#ft0"/>
<use x="60.50" y="388.80" xlink:href="#hd"/>
<path d="M57.00 388.80v21.00" class="stroke"/>
<use x="93.70" y="382.80" xlink:href="#hd"/>
<path d="M90.20 382.80v21.00" class="stroke"/>
<use x="126.80" y="376.80" xlink:href="#hd"/>
<path d="M123.30 376.80v21.00" class="stroke"/>
<use x="163.20" y="382.80" xlink:href="#hd"/>
<path d="M159.70 382.80v21.00" class="stroke"/>
<use x="196.40" y="376.80" xlink:href="#hd"/>
<path d="M192.90 376.80v21.00" class="stroke"/>
<use x="229.60" y="373.80" xlink:href="#hl"/>
<use x="229.60" y="370.80" xlink:href="#hd"/>
<path d="M226.10 370.80v21.00" class="stroke"/>
<use x="265.50" y="397.80" xlink:href="#hd"/>
<path d="M269.00 397.80v-21.00" class="stroke"/>
<use x="298.70" y="391.80" xlink:href="#hd"/>
<path d="M302.20 391.80v-21.00" class="stroke"/>
<use x="331.90" y="385.80" xlink:href="#hd"/>
<path d="M328.40 385.80v21.00" class="stroke"/>
<use x="367.80" y="397.80" xlink:href="#hd"/>
<path d="M371.30 397.80v-21.00" class="stroke"/>
<use x="412.60" y="391.80" xlink:href="#hd"/>
<path d="M416.10 391.80v-21.00" class="stroke"/>
<use x="445.80" y="385.80" xlink:href="#hd"/>
<path d="M442.30 385.80v21.00" class="stroke"/>
<use x="499.00" y="397.80" xlink:href="#hd"/>
<path d="M502.50 397.80v-21.00" class="stroke"/>
<use x="532.20" y="391.80" xlink:href="#hd"/>
<path d="M535.70 391.80v-21.00" class="stroke"/>
<use x="565.40" y="385.80" xlink:href="#hd"/>
<path d="M561.90 385.80v21.00" class="stroke"/>
<use x="601.90" y="388.80" xlink:href="#hd"/>
<path d="M598.40 388.80v21.00" class="stroke"/>
<use x="635.00" y="382.80" xlink:href="#hd"/>
<path d="M631.50 382.80v21.00" class="stroke"/>
<use x="668.20" y="376.80" xlink:href="#hd"/>
<path d="M664.70 376.80v21.00" class="stroke"/>
</g>
</svg>
