<?xml version="1.0" standalone="no"?>
<!DOCTYPE svg PUBLIC "-//W3C//DTD SVG 1.1//EN"
	"http://www.w3.org/Graphics/SVG/1.1/DTD/svg11.dtd">
<svg xmlns="http://www.w3.org/2000/svg" version="1.1"
	xmlns:xlink="http://www.w3.org/1999/xlink"
	color="black"
	width="701.60px" height="815.60px" viewBox="0 0 701.60 815.60" preserveAspectRatio="xMidYMid meet">
<style type="text/css">
.fill {fill: currentColor}
.stroke {stroke: currentColor; fill: none}
text{white-space: pre}
</style>
<title>/tmp/retab_hymnal_L3/come_thou_long_expected_jesus.abc (1) tune 1</title>
<!-- Creator: abcm2ps-8.14.11 -->
<!-- CreationDate: Apr 24, 2026 15:38 -->
<!-- CommandLine: /tmp/retab_hymnal_L3/come_thou_long_expected_jesus.abc -g -O /tmp/retab_hymnal_L3/come_thou_long_expected_jesus -->
<g stroke-width="0.70">
<!-- title: 053. Come, Thou Long-Expected Jesus -->
</g>
<g stroke-width="0.70" style="font:20.00px Times">
<text x="350.80" y="22.00" text-anchor="middle">053. Come, Thou Long-Expected Jesus</text>
</g>
<g stroke-width="0.70" style="font:20.00px Times">
<path class="stroke" stroke-width="1"
	d="M10.00 145.40v-82.00"/>
<defs>
<path id="brace" class="fill" d="m-2.5 101
	c-4.5 -4.6 -7.5 -12.2 -4.4 -26.8
	3.5 -14.3 3.2 -21.7 -2.1 -24.2
	7.4 2.4 7.3 14.2 3.5 29.5
	-2.7 9.5 -1.5 16.2 3 21.5
	M-2.5 1c-4.5 4.6 -7.5 12.2 -4.4 26.8
	c3.5 14.3 3.2 21.7 -2.1 24.2
	7.4 -2.4 7.3 -14.2 3.5 -29.5
	-2.7 -9.5 -1.5 -16.2 3 -21.5"/>
</defs>
<g transform="translate(10.00,63.40) scale(1,0.82)">
	<use xlink:href="#brace"/>
</g>
<path class="stroke" stroke-width="1"
	d="M152.10 87.40v-24.00"/>
<path class="stroke" stroke-width="1"
	d="M152.10 145.40v-24.00"/>
<path class="stroke" stroke-width="1"
	d="M260.80 87.40v-24.00"/>
<path class="stroke" stroke-width="1"
	d="M260.80 145.40v-24.00"/>
<path class="stroke" stroke-width="1"
	d="M369.40 87.40v-24.00"/>
<path class="stroke" stroke-width="1"
	d="M369.40 145.40v-24.00"/>
<path class="stroke" stroke-width="1"
	d="M456.70 87.40v-24.00"/>
<path class="stroke" stroke-width="1"
	d="M456.70 145.40v-24.00"/>
<path class="stroke" stroke-width="1"
	d="M583.00 87.40v-24.00"/>
<path class="stroke" stroke-width="1"
	d="M583.00 145.40v-24.00"/>
<path class="stroke" stroke-width="1"
	d="M691.60 87.40v-24.00"/>
<path class="stroke" stroke-width="1"
	d="M691.60 145.40v-24.00"/>
<path d="m10.00 87.40
	h681.60
	M10.00 81.40
	h681.60
	M10.00 75.40
	h681.60
	M10.00 69.40
	h681.60
	M10.00 63.40
	h681.60
	" class="stroke"/>
<path d="m10.00 145.40
	h681.60
	M10.00 139.40
	h681.60
	M10.00 133.40
	h681.60
	M10.00 127.40
	h681.60
	M10.00 121.40
	h681.60
	" class="stroke"/>
</g>
<g stroke-width="0.70" style="font:bold 13.00px Times">
<text x="57.00" y="50.80">i</text>
</g>
<g stroke-width="0.70" style="font:bold 13.00px Times">
<text x="165.60" y="58.80">i</text>
</g>
<g stroke-width="0.70" style="font:bold 13.00px Times">
<text x="268.40" y="58.80">III<tspan
	 style="font:italic 11.00px Times">²</tspan></text>
</g>
<g stroke-width="0.70" style="font:bold 13.00px Times">
<text x="382.90" y="47.80">i</text>
</g>
<g stroke-width="0.70" style="font:bold 13.00px Times">
<text x="468.20" y="50.80">i<tspan
	 style="font:italic 11.00px Times">¹</tspan></text>
</g>
<g stroke-width="0.70" style="font:bold 13.00px Times">
<text x="596.50" y="58.80">i</text>
<defs>
<path id="utclef" class="fill" d="m-50 -90
	c-72 -41 -72 -158 52 -188
	150 -10 220 188 90 256
	-114 52 -275 0 -293 -136
	-15 -181 93 -229 220 -334
	88 -87 79 -133 62 -210
	-51 33 -94 105 -89 186
	17 267 36 374 49 574
	6 96 -19 134 -77 135
	-80 1 -126 -93 -61 -133
	85 -41 133 101 31 105
	23 17 92 37 90 -92
	-10 -223 -39 -342 -50 -617
	0 -90 0 -162 96 -232
	56 72 63 230 22 289
	-74 106 -257 168 -255 316
	9 153 148 185 252 133
	86 -65 29 -192 -80 -176
	-71 12 -105 67 -59 124"/>
<use id="tclef" transform="translate(0,6) scale(0.045)"
	xlink:href="#utclef"/>
</defs>
<use x="22.00" y="81.40" xlink:href="#tclef"/>
<g style="font:bold 16px serif"
	transform="translate(40.50,86.90) scale(1.2,1)">
	<text text-anchor="middle">4</text>
	<text y="-12" text-anchor="middle">2</text>
</g>
<defs>
<ellipse id="hd" rx="4.1" ry="2.9"
	transform="rotate(-20)" class="fill"/>
</defs>
<use x="58.50" y="78.40" xlink:href="#hd"/>
<path d="M62.00 78.40v-21.00" class="stroke"/>
<use x="101.00" y="78.40" xlink:href="#hd"/>
<path d="M104.50 78.40v-21.00" class="stroke"/>
<path class="fill"
	d="M104.50 57.40c0.6 5.6 9.6 9 5.6 18.4
	1.6 -6 -1.3 -11.6 -5.6 -12.8
"/>
<use x="131.10" y="81.40" xlink:href="#hd"/>
<path d="M134.60 81.40v-21.00" class="stroke"/>
<path class="fill"
	d="M134.60 60.40c0.6 5.6 9.6 9 5.6 18.4
	1.6 -6 -1.3 -11.6 -5.6 -12.8
"/>
<use x="167.10" y="87.40" xlink:href="#hd"/>
<path d="M170.60 87.40v-21.00" class="stroke"/>
<use x="209.60" y="81.40" xlink:href="#hd"/>
<path d="M213.10 81.40v-21.00" class="stroke"/>
<path class="fill"
	d="M213.10 60.40c0.6 5.6 9.6 9 5.6 18.4
	1.6 -6 -1.3 -11.6 -5.6 -12.8
"/>
<use x="239.70" y="78.40" xlink:href="#hd"/>
<path d="M243.20 78.40v-21.00" class="stroke"/>
<path class="fill"
	d="M243.20 57.40c0.6 5.6 9.6 9 5.6 18.4
	1.6 -6 -1.3 -11.6 -5.6 -12.8
"/>
<use x="275.80" y="72.40" xlink:href="#hd"/>
<path d="M272.30 72.40v21.00" class="stroke"/>
<use x="318.30" y="75.40" xlink:href="#hd"/>
<path d="M314.80 75.40v21.00" class="stroke"/>
<path class="fill"
	d="M314.80 96.40c0.6 -5.6 9.6 -9 5.6 -18.4
	1.6 6 -1.3 11.6 -5.6 12.8
"/>
<use x="348.40" y="78.40" xlink:href="#hd"/>
<path d="M351.90 78.40v-21.00" class="stroke"/>
<path class="fill"
	d="M351.90 57.40c0.6 5.6 9.6 9 5.6 18.4
	1.6 -6 -1.3 -11.6 -5.6 -12.8
"/>
<use x="384.40" y="75.40" xlink:href="#hd"/>
<path d="M387.90 75.40v-21.00" class="stroke"/>
<use x="426.90" y="78.40" xlink:href="#hd"/>
<path d="M430.40 78.40v-21.00" class="stroke"/>
<use x="471.70" y="78.40" xlink:href="#hd"/>
<path d="M475.20 78.40v-21.00" class="stroke"/>
<path class="fill"
	d="M475.20 57.40c0.6 5.6 9.6 9 5.6 18.4
	1.6 -6 -1.3 -11.6 -5.6 -12.8
"/>
<use x="501.80" y="81.40" xlink:href="#hd"/>
<path d="M505.30 81.40v-21.00" class="stroke"/>
<path class="fill"
	d="M505.30 60.40c0.6 5.6 9.6 9 5.6 18.4
	1.6 -6 -1.3 -11.6 -5.6 -12.8
"/>
<use x="531.80" y="87.40" xlink:href="#hd"/>
<path d="M535.30 87.40v-21.00" class="stroke"/>
<path class="fill"
	d="M535.30 66.40c0.6 5.6 9.6 9 5.6 18.4
	1.6 -6 -1.3 -11.6 -5.6 -12.8
"/>
<use x="561.90" y="90.40" xlink:href="#hd"/>
<path d="M565.40 90.40v-21.00" class="stroke"/>
<path class="fill"
	d="M565.40 69.40c0.6 5.6 9.6 9 5.6 18.4
	1.6 -6 -1.3 -11.6 -5.6 -12.8
"/>
<use x="598.00" y="87.40" xlink:href="#hd"/>
<path d="M601.50 87.40v-21.00" class="stroke"/>
<use x="640.50" y="81.40" xlink:href="#hd"/>
<path d="M644.00 81.40v-21.00" class="stroke"/>
<path class="fill"
	d="M644.00 60.40c0.6 5.6 9.6 9 5.6 18.4
	1.6 -6 -1.3 -11.6 -5.6 -12.8
"/>
<use x="670.60" y="78.40" xlink:href="#hd"/>
<path d="M674.10 78.40v-21.00" class="stroke"/>
<path class="fill"
	d="M674.10 57.40c0.6 5.6 9.6 9 5.6 18.4
	1.6 -6 -1.3 -11.6 -5.6 -12.8
"/>
<defs>
<path id="ubclef" class="fill" d="m-200 -87
	c124 -35 222 -78 254 -236
	43 -228 -167 -246 -192 -103
	59 -80 157 22 92 78
	-62 47 -115 -22 -106 -88
	21 -141 270 -136 274 52
	-1 175 -106 264 -322 297
	m357 -250
	c0 -36 51 -34 51 0
	0 37 -51 36 -51 0
	m-2 -129
	c0 -36 51 -34 51 0
	0 38 -51 37 -51 0"/>
<use id="bclef" transform="translate(0,18) scale(0.045)"
	xlink:href="#ubclef"/>
</defs>
<use x="22.00" y="127.40" xlink:href="#bclef"/>
<g style="font:bold 16px serif"
	transform="translate(40.50,144.90) scale(1.2,1)">
	<text text-anchor="middle">4</text>
	<text y="-12" text-anchor="middle">2</text>
</g>
<use x="58.50" y="142.40" xlink:href="#hd"/>
<path d="M62.00 142.40v-21.00" class="stroke"/>
<use x="101.00" y="136.40" xlink:href="#hd"/>
<path d="M104.50 136.40v-21.00" class="stroke"/>
<use x="167.10" y="142.40" xlink:href="#hd"/>
<path d="M170.60 142.40v-21.00" class="stroke"/>
<use x="209.60" y="136.40" xlink:href="#hd"/>
<path d="M213.10 136.40v-21.00" class="stroke"/>
<defs>
<path id="hl" class="stroke" d="m-6 0h12"/>
</defs>
<use x="275.80" y="151.40" xlink:href="#hl"/>
<use x="275.80" y="157.40" xlink:href="#hl"/>
<use x="275.80" y="157.40" xlink:href="#hd"/>
<path d="M279.30 157.40v-24.00" class="stroke"/>
<use x="318.30" y="151.40" xlink:href="#hl"/>
<use x="318.30" y="151.40" xlink:href="#hd"/>
<path d="M321.80 151.40v-21.00" class="stroke"/>
<use x="384.40" y="142.40" xlink:href="#hd"/>
<path d="M387.90 142.40v-21.00" class="stroke"/>
<use x="426.90" y="136.40" xlink:href="#hd"/>
<path d="M430.40 136.40v-21.00" class="stroke"/>
<use x="471.70" y="142.40" xlink:href="#hd"/>
<path d="M475.20 142.40v-21.00" class="stroke"/>
<use x="531.80" y="136.40" xlink:href="#hd"/>
<path d="M535.30 136.40v-21.00" class="stroke"/>
<use x="598.00" y="142.40" xlink:href="#hd"/>
<path d="M601.50 142.40v-21.00" class="stroke"/>
<use x="640.50" y="136.40" xlink:href="#hd"/>
<path d="M644.00 136.40v-21.00" class="stroke"/>
</g>
<g stroke-width="0.70" style="font:bold 13.00px Times">
<path class="stroke" stroke-width="1"
	d="M10.00 275.80v-82.00"/>
<g transform="translate(10.00,193.80) scale(1,0.82)">
	<use xlink:href="#brace"/>
</g>
<path class="stroke" stroke-width="1"
	d="M127.90 217.80v-24.00"/>
<path class="stroke" stroke-width="1"
	d="M127.90 275.80v-24.00"/>
<path class="stroke" stroke-width="1"
	d="M226.20 217.80v-24.00"/>
<path class="stroke" stroke-width="1"
	d="M226.20 275.80v-24.00"/>
<path class="stroke" stroke-width="1"
	d="M348.60 217.80v-24.00"/>
<path class="stroke" stroke-width="1"
	d="M348.60 275.80v-24.00"/>
<path class="stroke" stroke-width="1"
	d="M470.90 217.80v-24.00"/>
<path class="stroke" stroke-width="1"
	d="M470.90 275.80v-24.00"/>
<path class="stroke" stroke-width="1"
	d="M593.30 217.80v-24.00"/>
<path class="stroke" stroke-width="1"
	d="M593.30 275.80v-24.00"/>
<path class="stroke" stroke-width="1"
	d="M691.60 217.80v-24.00"/>
<path class="stroke" stroke-width="1"
	d="M691.60 275.80v-24.00"/>
<path d="m10.00 217.80
	h681.60
	M10.00 211.80
	h681.60
	M10.00 205.80
	h681.60
	M10.00 199.80
	h681.60
	M10.00 193.80
	h681.60
	" class="stroke"/>
<path d="m10.00 275.80
	h681.60
	M10.00 269.80
	h681.60
	M10.00 263.80
	h681.60
	M10.00 257.80
	h681.60
	M10.00 251.80
	h681.60
	" class="stroke"/>
</g>
<g stroke-width="0.70" style="font:bold 13.00px Times">
<text x="39.10" y="189.20">III<tspan
	 style="font:italic 11.00px Times">¹</tspan></text>
</g>
<g stroke-width="0.70" style="font:bold 13.00px Times">
<text x="143.30" y="181.20">i</text>
</g>
<g stroke-width="0.70" style="font:bold 13.00px Times">
<text x="241.60" y="181.20">i</text>
</g>
<g stroke-width="0.70" style="font:bold 13.00px Times">
<text x="364.00" y="189.20">i</text>
</g>
<g stroke-width="0.70" style="font:bold 13.00px Times">
<text x="480.40" y="189.20">III<tspan
	 style="font:italic 11.00px Times">²</tspan></text>
</g>
<g stroke-width="0.70" style="font:bold 13.00px Times">
<text x="608.70" y="178.20">i</text>
<use x="22.00" y="211.80" xlink:href="#tclef"/>
<use x="46.50" y="202.80" xlink:href="#hd"/>
<path d="M43.00 202.80v21.00" class="stroke"/>
<use x="94.40" y="205.80" xlink:href="#hd"/>
<path d="M90.90 205.80v21.00" class="stroke"/>
<defs>
<path id="Hd" class="fill" d="m3 -1.6
	c-1 -1.8 -7 1.4 -6 3.2
	1 1.8 7 -1.4 6 -3.2
	m0.5 -0.3
	c2 3.8 -5 7.6 -7 3.8
	-2 -3.8 5 -7.6 7 -3.8"/>
</defs>
<use x="144.80" y="208.80" xlink:href="#Hd"/>
<path d="M148.30 208.80v-21.00" class="stroke"/>
<use x="243.10" y="208.80" xlink:href="#hd"/>
<path d="M246.60 208.80v-21.00" class="stroke"/>
<use x="291.00" y="208.80" xlink:href="#hd"/>
<path d="M294.50 208.80v-21.00" class="stroke"/>
<path class="fill"
	d="M294.50 187.80c0.6 5.6 9.6 9 5.6 18.4
	1.6 -6 -1.3 -11.6 -5.6 -12.8
"/>
<use x="324.80" y="211.80" xlink:href="#hd"/>
<path d="M328.30 211.80v-21.00" class="stroke"/>
<path class="fill"
	d="M328.30 190.80c0.6 5.6 9.6 9 5.6 18.4
	1.6 -6 -1.3 -11.6 -5.6 -12.8
"/>
<use x="365.50" y="217.80" xlink:href="#hd"/>
<path d="M369.00 217.80v-21.00" class="stroke"/>
<use x="413.40" y="211.80" xlink:href="#hd"/>
<path d="M416.90 211.80v-21.00" class="stroke"/>
<path class="fill"
	d="M416.90 190.80c0.6 5.6 9.6 9 5.6 18.4
	1.6 -6 -1.3 -11.6 -5.6 -12.8
"/>
<use x="447.20" y="208.80" xlink:href="#hd"/>
<path d="M450.70 208.80v-21.00" class="stroke"/>
<path class="fill"
	d="M450.70 187.80c0.6 5.6 9.6 9 5.6 18.4
	1.6 -6 -1.3 -11.6 -5.6 -12.8
"/>
<use x="487.90" y="202.80" xlink:href="#hd"/>
<path d="M484.40 202.80v21.00" class="stroke"/>
<use x="535.70" y="205.80" xlink:href="#hd"/>
<path d="M532.20 205.80v21.00" class="stroke"/>
<path class="fill"
	d="M532.20 226.80c0.6 -5.6 9.6 -9 5.6 -18.4
	1.6 6 -1.3 11.6 -5.6 12.8
"/>
<use x="569.60" y="208.80" xlink:href="#hd"/>
<path d="M573.10 208.80v-21.00" class="stroke"/>
<path class="fill"
	d="M573.10 187.80c0.6 5.6 9.6 9 5.6 18.4
	1.6 -6 -1.3 -11.6 -5.6 -12.8
"/>
<use x="610.20" y="205.80" xlink:href="#hd"/>
<path d="M613.70 205.80v-21.00" class="stroke"/>
<use x="658.10" y="208.80" xlink:href="#hd"/>
<path d="M661.60 208.80v-21.00" class="stroke"/>
<use x="22.00" y="257.80" xlink:href="#bclef"/>
<use x="46.50" y="281.80" xlink:href="#hl"/>
<use x="46.50" y="287.80" xlink:href="#hl"/>
<use x="46.50" y="287.80" xlink:href="#hd"/>
<path d="M50.00 287.80v-24.00" class="stroke"/>
<use x="94.40" y="281.80" xlink:href="#hl"/>
<use x="94.40" y="281.80" xlink:href="#hd"/>
<path d="M97.90 281.80v-21.00" class="stroke"/>
<use x="144.80" y="272.80" xlink:href="#hd"/>
<path d="M148.30 272.80v-21.00" class="stroke"/>
<use x="192.70" y="266.80" xlink:href="#hd"/>
<path d="M196.20 266.80v-21.00" class="stroke"/>
<use x="243.10" y="272.80" xlink:href="#hd"/>
<path d="M246.60 272.80v-21.00" class="stroke"/>
<use x="291.00" y="266.80" xlink:href="#hd"/>
<path d="M294.50 266.80v-21.00" class="stroke"/>
<use x="365.50" y="272.80" xlink:href="#hd"/>
<path d="M369.00 272.80v-21.00" class="stroke"/>
<use x="413.40" y="266.80" xlink:href="#hd"/>
<path d="M416.90 266.80v-21.00" class="stroke"/>
<use x="487.90" y="281.80" xlink:href="#hl"/>
<use x="487.90" y="287.80" xlink:href="#hl"/>
<use x="487.90" y="287.80" xlink:href="#hd"/>
<path d="M491.40 287.80v-24.00" class="stroke"/>
<use x="535.70" y="281.80" xlink:href="#hl"/>
<use x="535.70" y="281.80" xlink:href="#hd"/>
<path d="M539.20 281.80v-21.00" class="stroke"/>
<use x="610.20" y="272.80" xlink:href="#hd"/>
<path d="M613.70 272.80v-21.00" class="stroke"/>
<use x="658.10" y="266.80" xlink:href="#hd"/>
<path d="M661.60 266.80v-21.00" class="stroke"/>
</g>
<g stroke-width="0.70" style="font:bold 13.00px Times">
<path class="stroke" stroke-width="1"
	d="M10.00 403.80v-82.00"/>
<g transform="translate(10.00,321.80) scale(1,0.82)">
	<use xlink:href="#brace"/>
</g>
<path class="stroke" stroke-width="1"
	d="M172.60 345.80v-24.00"/>
<path class="stroke" stroke-width="1"
	d="M172.60 403.80v-24.00"/>
<path class="stroke" stroke-width="1"
	d="M295.80 345.80v-24.00"/>
<path class="stroke" stroke-width="1"
	d="M295.80 403.80v-24.00"/>
<path class="stroke" stroke-width="1"
	d="M394.70 345.80v-24.00"/>
<path class="stroke" stroke-width="1"
	d="M394.70 403.80v-24.00"/>
<path class="stroke" stroke-width="1"
	d="M493.70 345.80v-24.00"/>
<path class="stroke" stroke-width="1"
	d="M493.70 403.80v-24.00"/>
<path class="stroke" stroke-width="1"
	d="M592.60 345.80v-24.00"/>
<path class="stroke" stroke-width="1"
	d="M592.60 403.80v-24.00"/>
<path class="stroke" stroke-width="1"
	d="M691.60 345.80v-24.00"/>
<path class="stroke" stroke-width="1"
	d="M691.60 403.80v-24.00"/>
<path d="m10.00 345.80
	h681.60
	M10.00 339.80
	h681.60
	M10.00 333.80
	h681.60
	M10.00 327.80
	h681.60
	M10.00 321.80
	h681.60
	" class="stroke"/>
<path d="m10.00 403.80
	h681.60
	M10.00 397.80
	h681.60
	M10.00 391.80
	h681.60
	M10.00 385.80
	h681.60
	M10.00 379.80
	h681.60
	" class="stroke"/>
</g>
<g stroke-width="0.70" style="font:bold 13.00px Times">
<text x="43.00" y="309.20">i<tspan
	 style="font:italic 11.00px Times">¹</tspan></text>
</g>
<g stroke-width="0.70" style="font:bold 13.00px Times">
<text x="188.20" y="317.20">i</text>
</g>
<g stroke-width="0.70" style="font:bold 13.00px Times">
<text x="305.40" y="317.20">III<tspan
	 style="font:italic 11.00px Times">¹</tspan></text>
</g>
<g stroke-width="0.70" style="font:bold 13.00px Times">
<text x="410.30" y="309.20">i</text>
</g>
<g stroke-width="0.70" style="font:bold 13.00px Times">
<text x="503.30" y="317.20">III<tspan
	 style="font:italic 11.00px Times">¹</tspan></text>
</g>
<g stroke-width="0.70" style="font:bold 13.00px Times">
<text x="608.20" y="316.20">i</text>
<use x="22.00" y="339.80" xlink:href="#tclef"/>
<use x="46.50" y="336.80" xlink:href="#hd"/>
<path d="M50.00 336.80v-21.00" class="stroke"/>
<path class="fill"
	d="M50.00 315.80c0.6 5.6 9.6 9 5.6 18.4
	1.6 -6 -1.3 -11.6 -5.6 -12.8
"/>
<use x="80.60" y="339.80" xlink:href="#hd"/>
<path d="M84.10 339.80v-21.00" class="stroke"/>
<path class="fill"
	d="M84.10 318.80c0.6 5.6 9.6 9 5.6 18.4
	1.6 -6 -1.3 -11.6 -5.6 -12.8
"/>
<use x="114.70" y="345.80" xlink:href="#hd"/>
<path d="M118.20 345.80v-21.00" class="stroke"/>
<path class="fill"
	d="M118.20 324.80c0.6 5.6 9.6 9 5.6 18.4
	1.6 -6 -1.3 -11.6 -5.6 -12.8
"/>
<use x="148.80" y="348.80" xlink:href="#hd"/>
<path d="M152.30 348.80v-21.00" class="stroke"/>
<path class="fill"
	d="M152.30 327.80c0.6 5.6 9.6 9 5.6 18.4
	1.6 -6 -1.3 -11.6 -5.6 -12.8
"/>
<use x="189.70" y="345.80" xlink:href="#hd"/>
<path d="M193.20 345.80v-21.00" class="stroke"/>
<use x="237.80" y="339.80" xlink:href="#hd"/>
<path d="M241.30 339.80v-21.00" class="stroke"/>
<path class="fill"
	d="M241.30 318.80c0.6 5.6 9.6 9 5.6 18.4
	1.6 -6 -1.3 -11.6 -5.6 -12.8
"/>
<use x="271.90" y="336.80" xlink:href="#hd"/>
<path d="M275.40 336.80v-21.00" class="stroke"/>
<path class="fill"
	d="M275.40 315.80c0.6 5.6 9.6 9 5.6 18.4
	1.6 -6 -1.3 -11.6 -5.6 -12.8
"/>
<use x="312.80" y="330.80" xlink:href="#hd"/>
<path d="M309.30 330.80v21.00" class="stroke"/>
<use x="361.00" y="333.80" xlink:href="#hd"/>
<path d="M357.50 333.80v21.00" class="stroke"/>
<use x="411.80" y="336.80" xlink:href="#Hd"/>
<path d="M415.30 336.80v-21.00" class="stroke"/>
<use x="510.70" y="330.80" xlink:href="#hd"/>
<path d="M507.20 330.80v21.00" class="stroke"/>
<use x="558.90" y="327.80" xlink:href="#hd"/>
<path d="M555.40 327.80v21.00" class="stroke"/>
<use x="609.70" y="324.80" xlink:href="#hd"/>
<path d="M606.20 324.80v21.00" class="stroke"/>
<use x="657.90" y="324.80" xlink:href="#hd"/>
<path d="M654.40 324.80v21.00" class="stroke"/>
<use x="22.00" y="385.80" xlink:href="#bclef"/>
<use x="46.50" y="400.80" xlink:href="#hd"/>
<path d="M50.00 400.80v-21.00" class="stroke"/>
<use x="114.70" y="394.80" xlink:href="#hd"/>
<path d="M118.20 394.80v-21.00" class="stroke"/>
<use x="189.70" y="400.80" xlink:href="#hd"/>
<path d="M193.20 400.80v-21.00" class="stroke"/>
<use x="237.80" y="394.80" xlink:href="#hd"/>
<path d="M241.30 394.80v-21.00" class="stroke"/>
<use x="312.80" y="409.80" xlink:href="#hl"/>
<use x="312.80" y="415.80" xlink:href="#hl"/>
<use x="312.80" y="415.80" xlink:href="#hd"/>
<path d="M316.30 415.80v-24.00" class="stroke"/>
<use x="361.00" y="409.80" xlink:href="#hl"/>
<use x="361.00" y="409.80" xlink:href="#hd"/>
<path d="M364.50 409.80v-21.00" class="stroke"/>
<use x="411.80" y="400.80" xlink:href="#hd"/>
<path d="M415.30 400.80v-21.00" class="stroke"/>
<use x="460.00" y="394.80" xlink:href="#hd"/>
<path d="M463.50 394.80v-21.00" class="stroke"/>
<use x="510.70" y="409.80" xlink:href="#hl"/>
<use x="510.70" y="415.80" xlink:href="#hl"/>
<use x="510.70" y="415.80" xlink:href="#hd"/>
<path d="M514.20 415.80v-24.00" class="stroke"/>
<use x="558.90" y="409.80" xlink:href="#hl"/>
<use x="558.90" y="409.80" xlink:href="#hd"/>
<path d="M562.40 409.80v-21.00" class="stroke"/>
<use x="609.70" y="400.80" xlink:href="#hd"/>
<path d="M613.20 400.80v-21.00" class="stroke"/>
<use x="657.90" y="394.80" xlink:href="#hd"/>
<path d="M661.40 394.80v-21.00" class="stroke"/>
</g>
<g stroke-width="0.70" style="font:bold 13.00px Times">
<path class="stroke" stroke-width="1"
	d="M10.00 534.20v-82.00"/>
<g transform="translate(10.00,452.20) scale(1,0.82)">
	<use xlink:href="#brace"/>
</g>
<path class="stroke" stroke-width="1"
	d="M151.90 476.20v-24.00"/>
<path class="stroke" stroke-width="1"
	d="M151.90 534.20v-24.00"/>
<path class="stroke" stroke-width="1"
	d="M250.20 476.20v-24.00"/>
<path class="stroke" stroke-width="1"
	d="M250.20 534.20v-24.00"/>
<path class="stroke" stroke-width="1"
	d="M348.60 476.20v-24.00"/>
<path class="stroke" stroke-width="1"
	d="M348.60 534.20v-24.00"/>
<path class="stroke" stroke-width="1"
	d="M470.90 476.20v-24.00"/>
<path class="stroke" stroke-width="1"
	d="M470.90 534.20v-24.00"/>
<path class="stroke" stroke-width="1"
	d="M593.30 476.20v-24.00"/>
<path class="stroke" stroke-width="1"
	d="M593.30 534.20v-24.00"/>
<path class="stroke" stroke-width="1"
	d="M691.60 476.20v-24.00"/>
<path class="stroke" stroke-width="1"
	d="M691.60 534.20v-24.00"/>
<path d="m10.00 476.20
	h681.60
	M10.00 470.20
	h681.60
	M10.00 464.20
	h681.60
	M10.00 458.20
	h681.60
	M10.00 452.20
	h681.60
	" class="stroke"/>
<path d="m10.00 534.20
	h681.60
	M10.00 528.20
	h681.60
	M10.00 522.20
	h681.60
	M10.00 516.20
	h681.60
	M10.00 510.20
	h681.60
	" class="stroke"/>
</g>
<g stroke-width="0.70" style="font:bold 13.00px Times">
<text x="41.00" y="447.60">III</text>
</g>
<g stroke-width="0.70" style="font:bold 13.00px Times">
<text x="167.40" y="436.60">i</text>
</g>
<g stroke-width="0.70" style="font:bold 13.00px Times">
<text x="261.70" y="447.60">III</text>
</g>
<g stroke-width="0.70" style="font:bold 13.00px Times">
<text x="358.10" y="446.60">III<tspan
	 style="font:italic 11.00px Times">¹</tspan></text>
</g>
<g stroke-width="0.70" style="font:bold 13.00px Times">
<text x="482.40" y="447.60">III</text>
</g>
<g stroke-width="0.70" style="font:bold 13.00px Times">
<text x="606.30" y="436.60">V</text>
<use x="22.00" y="470.20" xlink:href="#tclef"/>
<use x="46.50" y="461.20" xlink:href="#hd"/>
<path d="M43.00 461.20v21.00" class="stroke"/>
<use x="94.40" y="464.20" xlink:href="#hd"/>
<path d="M90.90 464.20v21.00" class="stroke"/>
<path class="fill"
	d="M90.90 485.20c0.6 -5.6 9.6 -9 5.6 -18.4
	1.6 6 -1.3 11.6 -5.6 12.8
"/>
<use x="128.20" y="467.20" xlink:href="#hd"/>
<path d="M131.70 467.20v-21.00" class="stroke"/>
<path class="fill"
	d="M131.70 446.20c0.6 5.6 9.6 9 5.6 18.4
	1.6 -6 -1.3 -11.6 -5.6 -12.8
"/>
<use x="168.90" y="464.20" xlink:href="#hd"/>
<path d="M172.40 464.20v-21.00" class="stroke"/>
<use x="216.70" y="467.20" xlink:href="#hd"/>
<path d="M220.20 467.20v-21.00" class="stroke"/>
<use x="267.20" y="461.20" xlink:href="#hd"/>
<path d="M263.70 461.20v21.00" class="stroke"/>
<use x="315.00" y="458.20" xlink:href="#hd"/>
<path d="M311.50 458.20v21.00" class="stroke"/>
<use x="365.50" y="455.20" xlink:href="#hd"/>
<path d="M362.00 455.20v21.00" class="stroke"/>
<use x="413.40" y="455.20" xlink:href="#hd"/>
<path d="M409.90 455.20v21.00" class="stroke"/>
<path class="fill"
	d="M409.90 476.20c0.6 -5.6 9.6 -9 5.6 -18.4
	1.6 6 -1.3 11.6 -5.6 12.8
"/>
<use x="447.20" y="458.20" xlink:href="#hd"/>
<path d="M443.70 458.20v21.00" class="stroke"/>
<path class="fill"
	d="M443.70 479.20c0.6 -5.6 9.6 -9 5.6 -18.4
	1.6 6 -1.3 11.6 -5.6 12.8
"/>
<use x="487.90" y="461.20" xlink:href="#hd"/>
<path d="M484.40 461.20v21.00" class="stroke"/>
<use x="535.70" y="464.20" xlink:href="#hd"/>
<path d="M532.20 464.20v21.00" class="stroke"/>
<path class="fill"
	d="M532.20 485.20c0.6 -5.6 9.6 -9 5.6 -18.4
	1.6 6 -1.3 11.6 -5.6 12.8
"/>
<use x="569.60" y="467.20" xlink:href="#hd"/>
<path d="M573.10 467.20v-21.00" class="stroke"/>
<path class="fill"
	d="M573.10 446.20c0.6 5.6 9.6 9 5.6 18.4
	1.6 -6 -1.3 -11.6 -5.6 -12.8
"/>
<use x="610.20" y="464.20" xlink:href="#Hd"/>
<path d="M613.70 464.20v-21.00" class="stroke"/>
<use x="22.00" y="516.20" xlink:href="#bclef"/>
<use x="46.50" y="540.20" xlink:href="#hl"/>
<use x="46.50" y="546.20" xlink:href="#hl"/>
<use x="46.50" y="546.20" xlink:href="#hd"/>
<path d="M50.00 546.20v-24.00" class="stroke"/>
<use x="94.40" y="540.20" xlink:href="#hl"/>
<use x="94.40" y="540.20" xlink:href="#hd"/>
<path d="M97.90 540.20v-21.00" class="stroke"/>
<use x="168.90" y="531.20" xlink:href="#hd"/>
<path d="M172.40 531.20v-21.00" class="stroke"/>
<use x="216.70" y="525.20" xlink:href="#hd"/>
<path d="M220.20 525.20v-21.00" class="stroke"/>
<use x="267.20" y="540.20" xlink:href="#hl"/>
<use x="267.20" y="546.20" xlink:href="#hl"/>
<use x="267.20" y="546.20" xlink:href="#hd"/>
<path d="M270.70 546.20v-24.00" class="stroke"/>
<use x="315.00" y="540.20" xlink:href="#hl"/>
<use x="315.00" y="540.20" xlink:href="#hd"/>
<path d="M318.50 540.20v-21.00" class="stroke"/>
<use x="365.50" y="540.20" xlink:href="#hl"/>
<use x="365.50" y="546.20" xlink:href="#hl"/>
<use x="365.50" y="546.20" xlink:href="#hd"/>
<path d="M369.00 546.20v-24.00" class="stroke"/>
<use x="413.40" y="540.20" xlink:href="#hl"/>
<use x="413.40" y="540.20" xlink:href="#hd"/>
<path d="M416.90 540.20v-21.00" class="stroke"/>
<use x="487.90" y="540.20" xlink:href="#hl"/>
<use x="487.90" y="546.20" xlink:href="#hl"/>
<use x="487.90" y="546.20" xlink:href="#hd"/>
<path d="M491.40 546.20v-24.00" class="stroke"/>
<use x="535.70" y="540.20" xlink:href="#hl"/>
<use x="535.70" y="540.20" xlink:href="#hd"/>
<path d="M539.20 540.20v-21.00" class="stroke"/>
<use x="610.20" y="540.20" xlink:href="#hl"/>
<use x="610.20" y="540.20" xlink:href="#hd"/>
<path d="M613.70 540.20v-21.00" class="stroke"/>
<use x="658.10" y="534.20" xlink:href="#hd"/>
<path d="M661.60 534.20v-21.00" class="stroke"/>
</g>
<g stroke-width="0.70" style="font:bold 13.00px Times">
<path class="stroke" stroke-width="1"
	d="M10.00 664.60v-82.00"/>
<g transform="translate(10.00,582.60) scale(1,0.82)">
	<use xlink:href="#brace"/>
</g>
<path class="stroke" stroke-width="1"
	d="M145.20 606.60v-24.00"/>
<path class="stroke" stroke-width="1"
	d="M145.20 664.60v-24.00"/>
<path class="stroke" stroke-width="1"
	d="M237.30 606.60v-24.00"/>
<path class="stroke" stroke-width="1"
	d="M237.30 664.60v-24.00"/>
<path class="stroke" stroke-width="1"
	d="M351.80 606.60v-24.00"/>
<path class="stroke" stroke-width="1"
	d="M351.80 664.60v-24.00"/>
<path class="stroke" stroke-width="1"
	d="M443.90 606.60v-24.00"/>
<path class="stroke" stroke-width="1"
	d="M443.90 664.60v-24.00"/>
<path class="stroke" stroke-width="1"
	d="M577.00 606.60v-24.00"/>
<path class="stroke" stroke-width="1"
	d="M577.00 664.60v-24.00"/>
<path class="stroke" stroke-width="1"
	d="M691.60 606.60v-24.00"/>
<path class="stroke" stroke-width="1"
	d="M691.60 664.60v-24.00"/>
<path d="m10.00 606.60
	h681.60
	M10.00 600.60
	h681.60
	M10.00 594.60
	h681.60
	M10.00 588.60
	h681.60
	M10.00 582.60
	h681.60
	" class="stroke"/>
<path d="m10.00 664.60
	h681.60
	M10.00 658.60
	h681.60
	M10.00 652.60
	h681.60
	M10.00 646.60
	h681.60
	M10.00 640.60
	h681.60
	" class="stroke"/>
</g>
<g stroke-width="0.70" style="font:bold 13.00px Times">
<text x="39.10" y="570.00">III<tspan
	 style="font:italic 11.00px Times">²</tspan></text>
</g>
<g stroke-width="0.70" style="font:bold 13.00px Times">
<text x="157.10" y="577.00">V</text>
</g>
<g stroke-width="0.70" style="font:bold 13.00px Times">
<text x="251.60" y="578.00">i</text>
</g>
<g stroke-width="0.70" style="font:bold 13.00px Times">
<text x="360.30" y="567.00">ii○<tspan
	 style="font:italic 11.00px Times">¹</tspan></text>
</g>
<g stroke-width="0.70" style="font:bold 13.00px Times">
<text x="458.20" y="570.00">i</text>
</g>
<g stroke-width="0.70" style="font:bold 13.00px Times">
<text x="591.40" y="578.00">i</text>
<use x="22.00" y="600.60" xlink:href="#tclef"/>
<use x="46.50" y="597.60" xlink:href="#hd"/>
<path d="M50.00 597.60v-21.00" class="stroke"/>
<use x="91.30" y="591.60" xlink:href="#hd"/>
<path d="M87.80 591.60v21.00" class="stroke"/>
<path class="fill"
	d="M87.80 612.60c0.6 -5.6 9.6 -9 5.6 -18.4
	1.6 6 -1.3 11.6 -5.6 12.8
"/>
<use x="123.00" y="588.60" xlink:href="#hd"/>
<path d="M119.50 588.60v21.00" class="stroke"/>
<path class="fill"
	d="M119.50 609.60c0.6 -5.6 9.6 -9 5.6 -18.4
	1.6 6 -1.3 11.6 -5.6 12.8
"/>
<use x="161.10" y="585.60" xlink:href="#hd"/>
<path d="M157.60 585.60v21.00" class="stroke"/>
<use x="205.90" y="585.60" xlink:href="#hd"/>
<path d="M202.40 585.60v21.00" class="stroke"/>
<use x="253.10" y="591.60" xlink:href="#hd"/>
<path d="M249.60 591.60v21.00" class="stroke"/>
<use x="297.90" y="594.60" xlink:href="#hd"/>
<path d="M294.40 594.60v21.00" class="stroke"/>
<path class="fill"
	d="M294.40 615.60c0.6 -5.6 9.6 -9 5.6 -18.4
	1.6 6 -1.3 11.6 -5.6 12.8
"/>
<use x="329.60" y="597.60" xlink:href="#hd"/>
<path d="M333.10 597.60v-21.00" class="stroke"/>
<path class="fill"
	d="M333.10 576.60c0.6 5.6 9.6 9 5.6 18.4
	1.6 -6 -1.3 -11.6 -5.6 -12.8
"/>
<use x="367.70" y="594.60" xlink:href="#hd"/>
<path d="M371.20 594.60v-21.00" class="stroke"/>
<use x="412.50" y="597.60" xlink:href="#hd"/>
<path d="M416.00 597.60v-21.00" class="stroke"/>
<use x="459.70" y="597.60" xlink:href="#hd"/>
<path d="M463.20 597.60v-21.00" class="stroke"/>
<path class="fill"
	d="M463.20 576.60c0.6 5.6 9.6 9 5.6 18.4
	1.6 -6 -1.3 -11.6 -5.6 -12.8
"/>
<use x="491.40" y="600.60" xlink:href="#hd"/>
<path d="M494.90 600.60v-21.00" class="stroke"/>
<path class="fill"
	d="M494.90 579.60c0.6 5.6 9.6 9 5.6 18.4
	1.6 -6 -1.3 -11.6 -5.6 -12.8
"/>
<use x="523.10" y="606.60" xlink:href="#hd"/>
<path d="M526.60 606.60v-21.00" class="stroke"/>
<path class="fill"
	d="M526.60 585.60c0.6 5.6 9.6 9 5.6 18.4
	1.6 -6 -1.3 -11.6 -5.6 -12.8
"/>
<use x="554.80" y="609.60" xlink:href="#hd"/>
<path d="M558.30 609.60v-21.00" class="stroke"/>
<path class="fill"
	d="M558.30 588.60c0.6 5.6 9.6 9 5.6 18.4
	1.6 -6 -1.3 -11.6 -5.6 -12.8
"/>
<use x="592.90" y="606.60" xlink:href="#hd"/>
<path d="M596.40 606.60v-21.00" class="stroke"/>
<use x="637.70" y="600.60" xlink:href="#hd"/>
<path d="M641.20 600.60v-21.00" class="stroke"/>
<path class="fill"
	d="M641.20 579.60c0.6 5.6 9.6 9 5.6 18.4
	1.6 -6 -1.3 -11.6 -5.6 -12.8
"/>
<use x="669.40" y="597.60" xlink:href="#hd"/>
<path d="M672.90 597.60v-21.00" class="stroke"/>
<path class="fill"
	d="M672.90 576.60c0.6 5.6 9.6 9 5.6 18.4
	1.6 -6 -1.3 -11.6 -5.6 -12.8
"/>
<use x="22.00" y="646.60" xlink:href="#bclef"/>
<use x="46.50" y="670.60" xlink:href="#hl"/>
<use x="46.50" y="676.60" xlink:href="#hl"/>
<use x="46.50" y="676.60" xlink:href="#hd"/>
<path d="M50.00 676.60v-24.00" class="stroke"/>
<use x="91.30" y="670.60" xlink:href="#hl"/>
<use x="91.30" y="670.60" xlink:href="#hd"/>
<path d="M94.80 670.60v-21.00" class="stroke"/>
<use x="161.10" y="670.60" xlink:href="#hl"/>
<use x="161.10" y="670.60" xlink:href="#hd"/>
<path d="M164.60 670.60v-21.00" class="stroke"/>
<use x="205.90" y="664.60" xlink:href="#hd"/>
<path d="M209.40 664.60v-21.00" class="stroke"/>
<use x="253.10" y="661.60" xlink:href="#hd"/>
<path d="M256.60 661.60v-21.00" class="stroke"/>
<use x="297.90" y="655.60" xlink:href="#hd"/>
<path d="M301.40 655.60v-21.00" class="stroke"/>
<use x="367.70" y="670.60" xlink:href="#hl"/>
<use x="367.70" y="676.60" xlink:href="#hl"/>
<use x="367.70" y="676.60" xlink:href="#hd"/>
<path d="M371.20 676.60v-24.00" class="stroke"/>
<use x="412.50" y="670.60" xlink:href="#hl"/>
<use x="412.50" y="670.60" xlink:href="#hd"/>
<path d="M416.00 670.60v-21.00" class="stroke"/>
<use x="459.70" y="661.60" xlink:href="#hd"/>
<path d="M463.20 661.60v-21.00" class="stroke"/>
<use x="523.10" y="655.60" xlink:href="#hd"/>
<path d="M526.60 655.60v-21.00" class="stroke"/>
<use x="592.90" y="661.60" xlink:href="#hd"/>
<path d="M596.40 661.60v-21.00" class="stroke"/>
<use x="637.70" y="655.60" xlink:href="#hd"/>
<path d="M641.20 655.60v-21.00" class="stroke"/>
</g>
<g stroke-width="0.70" style="font:bold 13.00px Times">
<path class="stroke" stroke-width="1"
	d="M10.00 792.60v-82.00"/>
<g transform="translate(10.00,710.60) scale(1,0.82)">
	<use xlink:href="#brace"/>
</g>
<path class="stroke" stroke-width="1"
	d="M124.10 734.60v-24.00"/>
<path class="stroke" stroke-width="1"
	d="M124.10 792.60v-24.00"/>
<path class="stroke" stroke-width="1"
	d="M217.80 734.60v-24.00"/>
<path class="stroke" stroke-width="1"
	d="M217.80 792.60v-24.00"/>
<path d="m10.00 734.60
	h207.80
	M10.00 728.60
	h207.80
	M10.00 722.60
	h207.80
	M10.00 716.60
	h207.80
	M10.00 710.60
	h207.80
	" class="stroke"/>
<path d="m10.00 792.60
	h207.80
	M10.00 786.60
	h207.80
	M10.00 780.60
	h207.80
	M10.00 774.60
	h207.80
	M10.00 768.60
	h207.80
	" class="stroke"/>
</g>
<g stroke-width="0.70" style="font:bold 13.00px Times">
<text x="39.10" y="706.00">III<tspan
	 style="font:italic 11.00px Times">¹</tspan></text>
</g>
<g stroke-width="0.70" style="font:bold 13.00px Times">
<text x="138.70" y="698.00">i</text>
<use x="22.00" y="728.60" xlink:href="#tclef"/>
<use x="46.50" y="719.60" xlink:href="#hd"/>
<path d="M43.00 719.60v21.00" class="stroke"/>
<use x="92.10" y="722.60" xlink:href="#hd"/>
<path d="M88.60 722.60v21.00" class="stroke"/>
<use x="140.20" y="725.60" xlink:href="#Hd"/>
<path d="M143.70 725.60v-21.00" class="stroke"/>
<use x="22.00" y="774.60" xlink:href="#bclef"/>
<use x="46.50" y="798.60" xlink:href="#hl"/>
<use x="46.50" y="804.60" xlink:href="#hl"/>
<use x="46.50" y="804.60" xlink:href="#hd"/>
<path d="M50.00 804.60v-24.00" class="stroke"/>
<use x="92.10" y="798.60" xlink:href="#hl"/>
<use x="92.10" y="798.60" xlink:href="#hd"/>
<path d="M95.60 798.60v-21.00" class="stroke"/>
<use x="140.20" y="789.60" xlink:href="#hd"/>
<path d="M143.70 789.60v-21.00" class="stroke"/>
<use x="185.80" y="783.60" xlink:href="#hd"/>
<path d="M189.30 783.60v-21.00" class="stroke"/>
</g>
</svg>
