<?xml version="1.0" standalone="no"?>
<!DOCTYPE svg PUBLIC "-//W3C//DTD SVG 1.1//EN"
	"http://www.w3.org/Graphics/SVG/1.1/DTD/svg11.dtd">
<svg xmlns="http://www.w3.org/2000/svg" version="1.1"
	xmlns:xlink="http://www.w3.org/1999/xlink"
	color="black"
	width="701.60px" height="552.40px" viewBox="0 0 701.60 552.40" preserveAspectRatio="xMidYMid meet">
<style type="text/css">
.fill {fill: currentColor}
.stroke {stroke: currentColor; fill: none}
text{white-space: pre}
</style>
<title>/tmp/retab_hymnal_L3/come_down_o_love_divine.abc (1) tune 1</title>
<!-- Creator: abcm2ps-8.14.11 -->
<!-- CreationDate: Apr 24, 2026 15:38 -->
<!-- CommandLine: /tmp/retab_hymnal_L3/come_down_o_love_divine.abc -g -O /tmp/retab_hymnal_L3/come_down_o_love_divine -->
<g stroke-width="0.70">
<!-- title: 049. Come Down, O Love Divine -->
</g>
<g stroke-width="0.70" style="font:20.00px Times">
<text x="350.80" y="22.00" text-anchor="middle">049. Come Down, O Love Divine</text>
</g>
<g stroke-width="0.70" style="font:20.00px Times">
<path class="stroke" stroke-width="1"
	d="M10.00 143.00v-82.00"/>
<defs>
<path id="brace" class="fill" d="m-2.5 101
	c-4.5 -4.6 -7.5 -12.2 -4.4 -26.8
	3.5 -14.3 3.2 -21.7 -2.1 -24.2
	7.4 2.4 7.3 14.2 3.5 29.5
	-2.7 9.5 -1.5 16.2 3 21.5
	M-2.5 1c-4.5 4.6 -7.5 12.2 -4.4 26.8
	c3.5 14.3 3.2 21.7 -2.1 24.2
	7.4 -2.4 7.3 -14.2 3.5 -29.5
	-2.7 -9.5 -1.5 -16.2 3 -21.5"/>
</defs>
<g transform="translate(10.00,61.00) scale(1,0.82)">
	<use xlink:href="#brace"/>
</g>
<path class="stroke" stroke-width="1"
	d="M189.40 85.00v-24.00"/>
<path class="stroke" stroke-width="1"
	d="M189.40 143.00v-24.00"/>
<path class="stroke" stroke-width="1"
	d="M314.90 85.00v-24.00"/>
<path class="stroke" stroke-width="1"
	d="M314.90 143.00v-24.00"/>
<path class="stroke" stroke-width="1"
	d="M441.20 85.00v-24.00"/>
<path class="stroke" stroke-width="1"
	d="M441.20 143.00v-24.00"/>
<path class="stroke" stroke-width="1"
	d="M566.60 85.00v-24.00"/>
<path class="stroke" stroke-width="1"
	d="M566.60 143.00v-24.00"/>
<path class="stroke" stroke-width="1"
	d="M691.60 85.00v-24.00"/>
<path class="stroke" stroke-width="1"
	d="M691.60 143.00v-24.00"/>
<path d="m10.00 85.00
	h681.60
	M10.00 79.00
	h681.60
	M10.00 73.00
	h681.60
	M10.00 67.00
	h681.60
	M10.00 61.00
	h681.60
	" class="stroke"/>
<path d="m10.00 143.00
	h681.60
	M10.00 137.00
	h681.60
	M10.00 131.00
	h681.60
	M10.00 125.00
	h681.60
	M10.00 119.00
	h681.60
	" class="stroke"/>
</g>
<g stroke-width="0.70" style="font:bold 13.00px Times">
<text x="75.20" y="56.40">I</text>
</g>
<g stroke-width="0.70" style="font:bold 13.00px Times">
<text x="198.40" y="48.40">V</text>
</g>
<g stroke-width="0.70" style="font:bold 13.00px Times">
<text x="327.10" y="56.40">I</text>
</g>
<g stroke-width="0.70" style="font:bold 13.00px Times">
<text x="452.40" y="48.40">I</text>
</g>
<g stroke-width="0.70" style="font:bold 13.00px Times">
<text x="574.80" y="54.40">vi</text>
<defs>
<path id="utclef" class="fill" d="m-50 -90
	c-72 -41 -72 -158 52 -188
	150 -10 220 188 90 256
	-114 52 -275 0 -293 -136
	-15 -181 93 -229 220 -334
	88 -87 79 -133 62 -210
	-51 33 -94 105 -89 186
	17 267 36 374 49 574
	6 96 -19 134 -77 135
	-80 1 -126 -93 -61 -133
	85 -41 133 101 31 105
	23 17 92 37 90 -92
	-10 -223 -39 -342 -50 -617
	0 -90 0 -162 96 -232
	56 72 63 230 22 289
	-74 106 -257 168 -255 316
	9 153 148 185 252 133
	86 -65 29 -192 -80 -176
	-71 12 -105 67 -59 124"/>
<use id="tclef" transform="translate(0,6) scale(0.045)"
	xlink:href="#utclef"/>
</defs>
<use x="22.00" y="79.00" xlink:href="#tclef"/>
<defs>
<path id="usharp" class="fill" d="
	m136 -702
	v890
	h32
	v-890
	m128 840
	h32
	v-888
	h-32
	m-232 286
	v116
	l338 -96
	v-116
	m-338 442
	v116
	l338 -98
	v-114"/>
<use id="sh0" transform="translate(-4,5) scale(0.018)"
	xlink:href="#usharp"/>
</defs>
<use x="37.00" y="61.00" xlink:href="#sh0"/>
<use x="42.50" y="70.00" xlink:href="#sh0"/>
<g style="font:bold 16px serif"
	transform="translate(58.50,84.50) scale(1.2,1)">
	<text text-anchor="middle">4</text>
	<text y="-12" text-anchor="middle">4</text>
</g>
<defs>
<path id="Hd" class="fill" d="m3 -1.6
	c-1 -1.8 -7 1.4 -6 3.2
	1 1.8 7 -1.4 6 -3.2
	m0.5 -0.3
	c2 3.8 -5 7.6 -7 3.8
	-2 -3.8 5 -7.6 7 -3.8"/>
</defs>
<use x="77.00" y="88.00" xlink:href="#Hd"/>
<path d="M80.50 88.00v-21.00" class="stroke"/>
<defs>
<ellipse id="hd" rx="4.1" ry="2.9"
	transform="rotate(-20)" class="fill"/>
</defs>
<use x="137.50" y="85.00" xlink:href="#hd"/>
<path d="M141.00 85.00v-21.00" class="stroke"/>
<use x="167.80" y="82.00" xlink:href="#hd"/>
<path d="M171.30 82.00v-21.00" class="stroke"/>
<use x="202.40" y="76.00" xlink:href="#Hd"/>
<path d="M205.90 76.00v-21.00" class="stroke"/>
<use x="263.00" y="73.00" xlink:href="#Hd"/>
<path d="M266.50 73.00v-21.00" class="stroke"/>
<defs>
<path id="HD" class="fill" d="m-2.7 -1.4
	c1.5 -2.8 6.9 0 5.3 2.7
	-1.5 2.8 -6.9 0 -5.3 -2.7
	m8.3 1.4
	c0 -1.5 -2.2 -3 -5.6 -3
	-3.4 0 -5.6 1.5 -5.6 3
	0 1.5 2.2 3 5.6 3
	3.4 0 5.6 -1.5 5.6 -3"/>
</defs>
<use x="329.90" y="76.00" xlink:href="#HD"/>
<use x="454.20" y="76.00" xlink:href="#Hd"/>
<path d="M457.70 76.00v-21.00" class="stroke"/>
<use x="514.80" y="73.00" xlink:href="#hd"/>
<path d="M518.30 73.00v-21.00" class="stroke"/>
<use x="545.00" y="76.00" xlink:href="#hd"/>
<path d="M548.50 76.00v-21.00" class="stroke"/>
<use x="579.10" y="67.00" xlink:href="#hd"/>
<path d="M575.60 67.00v21.00" class="stroke"/>
<use x="609.40" y="70.00" xlink:href="#hd"/>
<path d="M605.90 70.00v21.00" class="stroke"/>
<use x="639.80" y="73.00" xlink:href="#Hd"/>
<path d="M636.30 73.00v21.00" class="stroke"/>
<defs>
<path id="ubclef" class="fill" d="m-200 -87
	c124 -35 222 -78 254 -236
	43 -228 -167 -246 -192 -103
	59 -80 157 22 92 78
	-62 47 -115 -22 -106 -88
	21 -141 270 -136 274 52
	-1 175 -106 264 -322 297
	m357 -250
	c0 -36 51 -34 51 0
	0 37 -51 36 -51 0
	m-2 -129
	c0 -36 51 -34 51 0
	0 38 -51 37 -51 0"/>
<use id="bclef" transform="translate(0,18) scale(0.045)"
	xlink:href="#ubclef"/>
</defs>
<use x="22.00" y="125.00" xlink:href="#bclef"/>
<use x="37.00" y="125.00" xlink:href="#sh0"/>
<use x="42.50" y="134.00" xlink:href="#sh0"/>
<g style="font:bold 16px serif"
	transform="translate(58.50,142.50) scale(1.2,1)">
	<text text-anchor="middle">4</text>
	<text y="-12" text-anchor="middle">4</text>
</g>
<defs>
<path id="hl" class="stroke" d="m-6 0h12"/>
</defs>
<use x="77.00" y="149.00" xlink:href="#hl"/>
<use x="77.00" y="152.00" xlink:href="#hd"/>
<path d="M80.50 152.00v-21.00" class="stroke"/>
<use x="107.30" y="146.00" xlink:href="#hd"/>
<path d="M110.80 146.00v-21.00" class="stroke"/>
<use x="137.50" y="140.00" xlink:href="#hd"/>
<path d="M141.00 140.00v-21.00" class="stroke"/>
<use x="167.80" y="146.00" xlink:href="#hd"/>
<path d="M171.30 146.00v-21.00" class="stroke"/>
<use x="202.40" y="140.00" xlink:href="#hd"/>
<path d="M205.90 140.00v-21.00" class="stroke"/>
<use x="232.60" y="134.00" xlink:href="#hd"/>
<path d="M236.10 134.00v-21.00" class="stroke"/>
<use x="263.00" y="128.00" xlink:href="#hd"/>
<path d="M259.50 128.00v21.00" class="stroke"/>
<use x="293.30" y="134.00" xlink:href="#hd"/>
<path d="M296.80 134.00v-21.00" class="stroke"/>
<use x="328.90" y="149.00" xlink:href="#hl"/>
<use x="328.90" y="152.00" xlink:href="#hd"/>
<path d="M332.40 152.00v-21.00" class="stroke"/>
<use x="359.10" y="146.00" xlink:href="#hd"/>
<path d="M362.60 146.00v-21.00" class="stroke"/>
<use x="389.40" y="140.00" xlink:href="#hd"/>
<path d="M392.90 140.00v-21.00" class="stroke"/>
<use x="419.70" y="146.00" xlink:href="#hd"/>
<path d="M423.20 146.00v-21.00" class="stroke"/>
<use x="454.20" y="149.00" xlink:href="#hl"/>
<use x="454.20" y="152.00" xlink:href="#hd"/>
<path d="M457.70 152.00v-21.00" class="stroke"/>
<use x="484.50" y="146.00" xlink:href="#hd"/>
<path d="M488.00 146.00v-21.00" class="stroke"/>
<use x="514.80" y="140.00" xlink:href="#hd"/>
<path d="M518.30 140.00v-21.00" class="stroke"/>
<use x="545.00" y="146.00" xlink:href="#hd"/>
<path d="M548.50 146.00v-21.00" class="stroke"/>
<use x="579.10" y="137.00" xlink:href="#hd"/>
<path d="M582.60 137.00v-21.00" class="stroke"/>
<use x="609.40" y="131.00" xlink:href="#hd"/>
<path d="M612.90 131.00v-21.00" class="stroke"/>
<use x="639.80" y="125.00" xlink:href="#hd"/>
<path d="M636.30 125.00v21.00" class="stroke"/>
<use x="670.10" y="131.00" xlink:href="#hd"/>
<path d="M666.60 131.00v21.00" class="stroke"/>
</g>
<g stroke-width="0.70" style="font:bold 13.00px Times">
<path class="stroke" stroke-width="1"
	d="M10.00 273.40v-82.00"/>
<g transform="translate(10.00,191.40) scale(1,0.82)">
	<use xlink:href="#brace"/>
</g>
<path class="stroke" stroke-width="1"
	d="M173.50 215.40v-24.00"/>
<path class="stroke" stroke-width="1"
	d="M173.50 273.40v-24.00"/>
<path class="stroke" stroke-width="1"
	d="M298.50 215.40v-24.00"/>
<path class="stroke" stroke-width="1"
	d="M298.50 273.40v-24.00"/>
<path class="stroke" stroke-width="1"
	d="M440.60 215.40v-24.00"/>
<path class="stroke" stroke-width="1"
	d="M440.60 273.40v-24.00"/>
<path class="stroke" stroke-width="1"
	d="M566.10 215.40v-24.00"/>
<path class="stroke" stroke-width="1"
	d="M566.10 273.40v-24.00"/>
<path class="stroke" stroke-width="1"
	d="M691.60 215.40v-24.00"/>
<path class="stroke" stroke-width="1"
	d="M691.60 273.40v-24.00"/>
<path d="m10.00 215.40
	h681.60
	M10.00 209.40
	h681.60
	M10.00 203.40
	h681.60
	M10.00 197.40
	h681.60
	M10.00 191.40
	h681.60
	" class="stroke"/>
<path d="m10.00 273.40
	h681.60
	M10.00 267.40
	h681.60
	M10.00 261.40
	h681.60
	M10.00 255.40
	h681.60
	M10.00 249.40
	h681.60
	" class="stroke"/>
</g>
<g stroke-width="0.70" style="font:bold 13.00px Times">
<text x="57.10" y="178.80">V</text>
</g>
<g stroke-width="0.70" style="font:bold 13.00px Times">
<text x="184.20" y="175.80">I</text>
</g>
<g stroke-width="0.70" style="font:bold 13.00px Times">
<text x="305.20" y="186.80">IV</text>
</g>
<g stroke-width="0.70" style="font:bold 13.00px Times">
<text x="451.80" y="184.80">I</text>
</g>
<g stroke-width="0.70" style="font:bold 13.00px Times">
<text x="574.80" y="186.80">vi</text>
<use x="22.00" y="209.40" xlink:href="#tclef"/>
<use x="37.00" y="191.40" xlink:href="#sh0"/>
<use x="42.50" y="200.40" xlink:href="#sh0"/>
<use x="61.00" y="206.40" xlink:href="#Hd"/>
<path d="M64.50 206.40v-21.00" class="stroke"/>
<use x="121.70" y="206.40" xlink:href="#Hd"/>
<path d="M125.20 206.40v-21.00" class="stroke"/>
<use x="186.00" y="203.40" xlink:href="#hd"/>
<path d="M189.50 203.40v-21.00" class="stroke"/>
<use x="216.30" y="206.40" xlink:href="#hd"/>
<path d="M219.80 206.40v-21.00" class="stroke"/>
<use x="246.60" y="209.40" xlink:href="#hd"/>
<path d="M250.10 209.40v-21.00" class="stroke"/>
<use x="276.90" y="212.40" xlink:href="#hd"/>
<path d="M280.40 212.40v-21.00" class="stroke"/>
<use x="311.00" y="215.40" xlink:href="#hd"/>
<path d="M314.50 215.40v-21.00" class="stroke"/>
<use x="341.30" y="218.40" xlink:href="#hd"/>
<path d="M344.80 218.40v-21.00" class="stroke"/>
<use x="371.60" y="215.40" xlink:href="#hd"/>
<path d="M375.10 215.40v-21.00" class="stroke"/>
<use x="401.90" y="212.40" xlink:href="#hd"/>
<path d="M405.40 212.40v-21.00" class="stroke"/>
<path class="fill"
	d="M405.40 191.40c0.6 5.6 9.6 9 5.6 18.4
	1.6 -6 -1.3 -11.6 -5.6 -12.8
"/>
<use x="423.60" y="209.40" xlink:href="#hd"/>
<path d="M427.10 209.40v-21.00" class="stroke"/>
<path class="fill"
	d="M427.10 188.40c0.6 5.6 9.6 9 5.6 18.4
	1.6 -6 -1.3 -11.6 -5.6 -12.8
"/>
<use x="453.60" y="215.40" xlink:href="#Hd"/>
<path d="M457.10 215.40v-21.00" class="stroke"/>
<use x="514.20" y="218.40" xlink:href="#Hd"/>
<path d="M517.70 218.40v-21.00" class="stroke"/>
<use x="579.10" y="197.40" xlink:href="#Hd"/>
<path d="M575.60 197.40v21.00" class="stroke"/>
<use x="639.80" y="200.40" xlink:href="#hd"/>
<path d="M636.30 200.40v21.00" class="stroke"/>
<use x="670.10" y="203.40" xlink:href="#hd"/>
<path d="M666.60 203.40v21.00" class="stroke"/>
<use x="22.00" y="255.40" xlink:href="#bclef"/>
<use x="37.00" y="255.40" xlink:href="#sh0"/>
<use x="42.50" y="264.40" xlink:href="#sh0"/>
<use x="61.00" y="270.40" xlink:href="#hd"/>
<path d="M64.50 270.40v-21.00" class="stroke"/>
<use x="91.30" y="264.40" xlink:href="#hd"/>
<path d="M94.80 264.40v-21.00" class="stroke"/>
<use x="121.70" y="258.40" xlink:href="#hd"/>
<path d="M118.20 258.40v21.00" class="stroke"/>
<use x="152.00" y="264.40" xlink:href="#hd"/>
<path d="M155.50 264.40v-21.00" class="stroke"/>
<use x="186.00" y="279.40" xlink:href="#hl"/>
<use x="186.00" y="282.40" xlink:href="#hd"/>
<path d="M189.50 282.40v-21.00" class="stroke"/>
<use x="216.30" y="276.40" xlink:href="#hd"/>
<path d="M219.80 276.40v-21.00" class="stroke"/>
<use x="246.60" y="270.40" xlink:href="#hd"/>
<path d="M250.10 270.40v-21.00" class="stroke"/>
<use x="276.90" y="276.40" xlink:href="#hd"/>
<path d="M280.40 276.40v-21.00" class="stroke"/>
<use x="311.00" y="273.40" xlink:href="#hd"/>
<path d="M314.50 273.40v-21.00" class="stroke"/>
<use x="341.30" y="267.40" xlink:href="#hd"/>
<path d="M344.80 267.40v-21.00" class="stroke"/>
<use x="371.60" y="261.40" xlink:href="#hd"/>
<path d="M375.10 261.40v-21.00" class="stroke"/>
<use x="401.90" y="267.40" xlink:href="#hd"/>
<path d="M405.40 267.40v-21.00" class="stroke"/>
<use x="453.60" y="279.40" xlink:href="#hl"/>
<use x="453.60" y="282.40" xlink:href="#hd"/>
<path d="M457.10 282.40v-21.00" class="stroke"/>
<use x="483.90" y="276.40" xlink:href="#hd"/>
<path d="M487.40 276.40v-21.00" class="stroke"/>
<use x="514.20" y="270.40" xlink:href="#hd"/>
<path d="M517.70 270.40v-21.00" class="stroke"/>
<use x="544.50" y="276.40" xlink:href="#hd"/>
<path d="M548.00 276.40v-21.00" class="stroke"/>
<use x="579.10" y="267.40" xlink:href="#hd"/>
<path d="M582.60 267.40v-21.00" class="stroke"/>
<use x="609.40" y="261.40" xlink:href="#hd"/>
<path d="M612.90 261.40v-21.00" class="stroke"/>
<use x="639.80" y="255.40" xlink:href="#hd"/>
<path d="M636.30 255.40v21.00" class="stroke"/>
<use x="670.10" y="261.40" xlink:href="#hd"/>
<path d="M666.60 261.40v21.00" class="stroke"/>
</g>
<g stroke-width="0.70" style="font:bold 13.00px Times">
<path class="stroke" stroke-width="1"
	d="M10.00 401.40v-82.00"/>
<g transform="translate(10.00,319.40) scale(1,0.82)">
	<use xlink:href="#brace"/>
</g>
<path class="stroke" stroke-width="1"
	d="M177.10 343.40v-24.00"/>
<path class="stroke" stroke-width="1"
	d="M177.10 401.40v-24.00"/>
<path class="stroke" stroke-width="1"
	d="M304.20 343.40v-24.00"/>
<path class="stroke" stroke-width="1"
	d="M304.20 401.40v-24.00"/>
<path class="stroke" stroke-width="1"
	d="M433.30 343.40v-24.00"/>
<path class="stroke" stroke-width="1"
	d="M433.30 401.40v-24.00"/>
<path class="stroke" stroke-width="1"
	d="M562.40 343.40v-24.00"/>
<path class="stroke" stroke-width="1"
	d="M562.40 401.40v-24.00"/>
<path class="stroke" stroke-width="1"
	d="M691.60 343.40v-24.00"/>
<path class="stroke" stroke-width="1"
	d="M691.60 401.40v-24.00"/>
<path d="m10.00 343.40
	h681.60
	M10.00 337.40
	h681.60
	M10.00 331.40
	h681.60
	M10.00 325.40
	h681.60
	M10.00 319.40
	h681.60
	" class="stroke"/>
<path d="m10.00 401.40
	h681.60
	M10.00 395.40
	h681.60
	M10.00 389.40
	h681.60
	M10.00 383.40
	h681.60
	M10.00 377.40
	h681.60
	" class="stroke"/>
</g>
<g stroke-width="0.70" style="font:bold 13.00px Times">
<text x="59.20" y="306.80">I</text>
</g>
<g stroke-width="0.70" style="font:bold 13.00px Times">
<text x="187.20" y="314.80">V</text>
</g>
<g stroke-width="0.70" style="font:bold 13.00px Times">
<text x="309.20" y="314.80">iii<tspan
	 style="font:italic 11.00px Times">ø7</tspan></text>
</g>
<g stroke-width="0.70" style="font:bold 13.00px Times">
<text x="443.30" y="309.80">ii</text>
</g>
<g stroke-width="0.70" style="font:bold 13.00px Times">
<text x="571.50" y="312.80">V</text>
<use x="22.00" y="337.40" xlink:href="#tclef"/>
<use x="37.00" y="319.40" xlink:href="#sh0"/>
<use x="42.50" y="328.40" xlink:href="#sh0"/>
<use x="61.00" y="334.40" xlink:href="#Hd"/>
<path d="M64.50 334.40v-21.00" class="stroke"/>
<use x="123.60" y="331.40" xlink:href="#Hd"/>
<path d="M127.10 331.40v-21.00" class="stroke"/>
<use x="192.10" y="334.40" xlink:href="#HD"/>
<use x="317.20" y="328.40" xlink:href="#Hd"/>
<path d="M313.70 328.40v21.00" class="stroke"/>
<use x="379.80" y="331.40" xlink:href="#hd"/>
<path d="M376.30 331.40v21.00" class="stroke"/>
<use x="411.10" y="334.40" xlink:href="#hd"/>
<path d="M414.60 334.40v-21.00" class="stroke"/>
<use x="446.30" y="337.40" xlink:href="#Hd"/>
<path d="M449.80 337.40v-21.00" class="stroke"/>
<use x="508.90" y="340.40" xlink:href="#Hd"/>
<path d="M512.40 340.40v-21.00" class="stroke"/>
<use x="575.40" y="343.40" xlink:href="#Hd"/>
<path d="M578.90 343.40v-21.00" class="stroke"/>
<use x="638.10" y="343.40" xlink:href="#Hd"/>
<path d="M641.60 343.40v-21.00" class="stroke"/>
<use x="22.00" y="383.40" xlink:href="#bclef"/>
<use x="37.00" y="383.40" xlink:href="#sh0"/>
<use x="42.50" y="392.40" xlink:href="#sh0"/>
<use x="61.00" y="407.40" xlink:href="#hl"/>
<use x="61.00" y="410.40" xlink:href="#hd"/>
<path d="M64.50 410.40v-21.00" class="stroke"/>
<use x="92.30" y="404.40" xlink:href="#hd"/>
<path d="M95.80 404.40v-21.00" class="stroke"/>
<use x="123.60" y="398.40" xlink:href="#hd"/>
<path d="M127.10 398.40v-21.00" class="stroke"/>
<use x="154.90" y="404.40" xlink:href="#hd"/>
<path d="M158.40 404.40v-21.00" class="stroke"/>
<use x="191.10" y="398.40" xlink:href="#hd"/>
<path d="M194.60 398.40v-21.00" class="stroke"/>
<use x="222.40" y="392.40" xlink:href="#hd"/>
<path d="M225.90 392.40v-21.00" class="stroke"/>
<use x="253.80" y="386.40" xlink:href="#hd"/>
<path d="M250.30 386.40v21.00" class="stroke"/>
<use x="282.00" y="392.40" xlink:href="#hd"/>
<path d="M285.50 392.40v-21.00" class="stroke"/>
<use x="317.20" y="404.40" xlink:href="#hd"/>
<path d="M320.70 404.40v-21.00" class="stroke"/>
<use x="348.50" y="398.40" xlink:href="#hd"/>
<path d="M352.00 398.40v-21.00" class="stroke"/>
<use x="379.80" y="392.40" xlink:href="#hd"/>
<path d="M383.30 392.40v-21.00" class="stroke"/>
<use x="411.10" y="398.40" xlink:href="#hd"/>
<path d="M414.60 398.40v-21.00" class="stroke"/>
<use x="446.30" y="407.40" xlink:href="#hl"/>
<use x="446.30" y="407.40" xlink:href="#hd"/>
<path d="M449.80 407.40v-21.00" class="stroke"/>
<use x="477.60" y="401.40" xlink:href="#hd"/>
<path d="M481.10 401.40v-21.00" class="stroke"/>
<use x="508.90" y="395.40" xlink:href="#hd"/>
<path d="M512.40 395.40v-21.00" class="stroke"/>
<use x="540.20" y="401.40" xlink:href="#hd"/>
<path d="M543.70 401.40v-21.00" class="stroke"/>
<use x="575.40" y="398.40" xlink:href="#hd"/>
<path d="M578.90 398.40v-21.00" class="stroke"/>
<use x="606.70" y="392.40" xlink:href="#hd"/>
<path d="M610.20 392.40v-21.00" class="stroke"/>
<use x="638.10" y="386.40" xlink:href="#hd"/>
<path d="M634.60 386.40v21.00" class="stroke"/>
<use x="669.40" y="392.40" xlink:href="#hd"/>
<path d="M672.90 392.40v-21.00" class="stroke"/>
</g>
<g stroke-width="0.70" style="font:bold 13.00px Times">
<path class="stroke" stroke-width="1"
	d="M10.00 529.40v-82.00"/>
<g transform="translate(10.00,447.40) scale(1,0.82)">
	<use xlink:href="#brace"/>
</g>
<path class="stroke" stroke-width="1"
	d="M250.20 471.40v-24.00"/>
<path class="stroke" stroke-width="1"
	d="M250.20 529.40v-24.00"/>
<path class="stroke" stroke-width="1"
	d="M483.80 471.40v-24.00"/>
<path class="stroke" stroke-width="1"
	d="M483.80 529.40v-24.00"/>
<path class="stroke" stroke-width="1"
	d="M691.60 471.40v-24.00"/>
<path class="stroke" stroke-width="1"
	d="M691.60 529.40v-24.00"/>
<path d="m10.00 471.40
	h681.60
	M10.00 465.40
	h681.60
	M10.00 459.40
	h681.60
	M10.00 453.40
	h681.60
	M10.00 447.40
	h681.60
	" class="stroke"/>
<path d="m10.00 529.40
	h681.60
	M10.00 523.40
	h681.60
	M10.00 517.40
	h681.60
	M10.00 511.40
	h681.60
	M10.00 505.40
	h681.60
	" class="stroke"/>
</g>
<g stroke-width="0.70" style="font:bold 13.00px Times">
<text x="56.70" y="434.80">I<tspan
	 style="font:italic 11.00px Times">¹</tspan></text>
</g>
<g stroke-width="0.70" style="font:bold 13.00px Times">
<text x="266.50" y="440.80">I</text>
</g>
<g stroke-width="0.70" style="font:bold 13.00px Times">
<text x="500.10" y="442.80">I</text>
<use x="22.00" y="465.40" xlink:href="#tclef"/>
<use x="37.00" y="447.40" xlink:href="#sh0"/>
<use x="42.50" y="456.40" xlink:href="#sh0"/>
<use x="60.50" y="462.40" xlink:href="#hd"/>
<path d="M64.00 462.40v-21.00" class="stroke"/>
<use x="111.80" y="459.40" xlink:href="#hd"/>
<path d="M115.30 459.40v-21.00" class="stroke"/>
<use x="163.00" y="462.40" xlink:href="#hd"/>
<path d="M166.50 462.40v-21.00" class="stroke"/>
<use x="214.30" y="465.40" xlink:href="#hd"/>
<path d="M217.80 465.40v-21.00" class="stroke"/>
<use x="268.30" y="468.40" xlink:href="#hd"/>
<path d="M271.80 468.40v-21.00" class="stroke"/>
<use x="319.60" y="474.40" xlink:href="#hd"/>
<path d="M323.10 474.40v-21.00" class="stroke"/>
<use x="370.90" y="471.40" xlink:href="#hd"/>
<path d="M374.40 471.40v-21.00" class="stroke"/>
<use x="422.10" y="468.40" xlink:href="#hd"/>
<path d="M425.60 468.40v-21.00" class="stroke"/>
<path class="fill"
	d="M425.60 447.40c0.6 5.6 9.6 9 5.6 18.4
	1.6 -6 -1.3 -11.6 -5.6 -12.8
"/>
<use x="458.40" y="465.40" xlink:href="#hd"/>
<path d="M461.90 465.40v-21.00" class="stroke"/>
<path class="fill"
	d="M461.90 444.40c0.6 5.6 9.6 9 5.6 18.4
	1.6 -6 -1.3 -11.6 -5.6 -12.8
"/>
<use x="501.90" y="471.40" xlink:href="#Hd"/>
<path d="M505.40 471.40v-21.00" class="stroke"/>
<use x="604.40" y="474.40" xlink:href="#Hd"/>
<path d="M607.90 474.40v-21.00" class="stroke"/>
<use x="22.00" y="511.40" xlink:href="#bclef"/>
<use x="37.00" y="511.40" xlink:href="#sh0"/>
<use x="42.50" y="520.40" xlink:href="#sh0"/>
<use x="60.50" y="535.40" xlink:href="#hl"/>
<use x="60.50" y="538.40" xlink:href="#hd"/>
<path d="M64.00 538.40v-21.00" class="stroke"/>
<use x="111.80" y="532.40" xlink:href="#hd"/>
<path d="M115.30 532.40v-21.00" class="stroke"/>
<use x="163.00" y="526.40" xlink:href="#hd"/>
<path d="M166.50 526.40v-21.00" class="stroke"/>
<use x="214.30" y="532.40" xlink:href="#hd"/>
<path d="M217.80 532.40v-21.00" class="stroke"/>
<use x="268.30" y="535.40" xlink:href="#hl"/>
<use x="268.30" y="538.40" xlink:href="#hd"/>
<path d="M271.80 538.40v-21.00" class="stroke"/>
<use x="319.60" y="532.40" xlink:href="#hd"/>
<path d="M323.10 532.40v-21.00" class="stroke"/>
<use x="370.90" y="526.40" xlink:href="#hd"/>
<path d="M374.40 526.40v-21.00" class="stroke"/>
<use x="422.10" y="532.40" xlink:href="#hd"/>
<path d="M425.60 532.40v-21.00" class="stroke"/>
<use x="501.90" y="535.40" xlink:href="#hl"/>
<use x="501.90" y="538.40" xlink:href="#hd"/>
<path d="M505.40 538.40v-21.00" class="stroke"/>
<use x="553.20" y="532.40" xlink:href="#hd"/>
<path d="M556.70 532.40v-21.00" class="stroke"/>
<use x="604.40" y="526.40" xlink:href="#hd"/>
<path d="M607.90 526.40v-21.00" class="stroke"/>
<use x="655.70" y="532.40" xlink:href="#hd"/>
<path d="M659.20 532.40v-21.00" class="stroke"/>
</g>
</svg>
