<?xml version="1.0" standalone="no"?>
<!DOCTYPE svg PUBLIC "-//W3C//DTD SVG 1.1//EN"
	"http://www.w3.org/Graphics/SVG/1.1/DTD/svg11.dtd">
<svg xmlns="http://www.w3.org/2000/svg" version="1.1"
	xmlns:xlink="http://www.w3.org/1999/xlink"
	color="black"
	width="701.60px" height="1076.40px" viewBox="0 0 701.60 1076.40" preserveAspectRatio="xMidYMid meet">
<style type="text/css">
.fill {fill: currentColor}
.stroke {stroke: currentColor; fill: none}
text{white-space: pre}
</style>
<title>/tmp/retab_hymnal_L3/come_holy_spirit_lord_our_god.abc (1) tune 1</title>
<!-- Creator: abcm2ps-8.14.11 -->
<!-- CreationDate: Apr 24, 2026 15:38 -->
<!-- CommandLine: /tmp/retab_hymnal_L3/come_holy_spirit_lord_our_god.abc -g -O /tmp/retab_hymnal_L3/come_holy_spirit_lord_our_god -->
<g stroke-width="0.70">
<!-- title: 050. Come Holy Spirit, Lord Our God -->
</g>
<g stroke-width="0.70" style="font:20.00px Times">
<text x="350.80" y="22.00" text-anchor="middle">050. Come Holy Spirit, Lord Our God</text>
</g>
<g stroke-width="0.70" style="font:20.00px Times">
<path class="stroke" stroke-width="1"
	d="M10.00 145.40v-82.00"/>
<defs>
<path id="brace" class="fill" d="m-2.5 101
	c-4.5 -4.6 -7.5 -12.2 -4.4 -26.8
	3.5 -14.3 3.2 -21.7 -2.1 -24.2
	7.4 2.4 7.3 14.2 3.5 29.5
	-2.7 9.5 -1.5 16.2 3 21.5
	M-2.5 1c-4.5 4.6 -7.5 12.2 -4.4 26.8
	c3.5 14.3 3.2 21.7 -2.1 24.2
	7.4 -2.4 7.3 -14.2 3.5 -29.5
	-2.7 -9.5 -1.5 -16.2 3 -21.5"/>
</defs>
<g transform="translate(10.00,63.40) scale(1,0.82)">
	<use xlink:href="#brace"/>
</g>
<path class="stroke" stroke-width="1"
	d="M185.20 87.40v-24.00"/>
<path class="stroke" stroke-width="1"
	d="M185.20 145.40v-24.00"/>
<path class="stroke" stroke-width="1"
	d="M311.60 87.40v-24.00"/>
<path class="stroke" stroke-width="1"
	d="M311.60 145.40v-24.00"/>
<path class="stroke" stroke-width="1"
	d="M437.90 87.40v-24.00"/>
<path class="stroke" stroke-width="1"
	d="M437.90 145.40v-24.00"/>
<path class="stroke" stroke-width="1"
	d="M564.80 87.40v-24.00"/>
<path class="stroke" stroke-width="1"
	d="M564.80 145.40v-24.00"/>
<path class="stroke" stroke-width="1"
	d="M691.60 87.40v-24.00"/>
<path class="stroke" stroke-width="1"
	d="M691.60 145.40v-24.00"/>
<path d="m10.00 87.40
	h681.60
	M10.00 81.40
	h681.60
	M10.00 75.40
	h681.60
	M10.00 69.40
	h681.60
	M10.00 63.40
	h681.60
	" class="stroke"/>
<path d="m10.00 145.40
	h681.60
	M10.00 139.40
	h681.60
	M10.00 133.40
	h681.60
	M10.00 127.40
	h681.60
	M10.00 121.40
	h681.60
	" class="stroke"/>
</g>
<g stroke-width="0.70" style="font:bold 13.00px Times">
<text x="69.70" y="58.80">I</text>
</g>
<g stroke-width="0.70" style="font:bold 13.00px Times">
<text x="193.80" y="56.80">V</text>
</g>
<g stroke-width="0.70" style="font:bold 13.00px Times">
<text x="322.30" y="47.80">I</text>
</g>
<g stroke-width="0.70" style="font:bold 13.00px Times">
<text x="447.00" y="58.80">V</text>
</g>
<g stroke-width="0.70" style="font:bold 13.00px Times">
<text x="572.00" y="57.80">IV</text>
<defs>
<path id="utclef" class="fill" d="m-50 -90
	c-72 -41 -72 -158 52 -188
	150 -10 220 188 90 256
	-114 52 -275 0 -293 -136
	-15 -181 93 -229 220 -334
	88 -87 79 -133 62 -210
	-51 33 -94 105 -89 186
	17 267 36 374 49 574
	6 96 -19 134 -77 135
	-80 1 -126 -93 -61 -133
	85 -41 133 101 31 105
	23 17 92 37 90 -92
	-10 -223 -39 -342 -50 -617
	0 -90 0 -162 96 -232
	56 72 63 230 22 289
	-74 106 -257 168 -255 316
	9 153 148 185 252 133
	86 -65 29 -192 -80 -176
	-71 12 -105 67 -59 124"/>
<use id="tclef" transform="translate(0,6) scale(0.045)"
	xlink:href="#utclef"/>
</defs>
<use x="22.00" y="81.40" xlink:href="#tclef"/>
<defs>
<path id="usharp" class="fill" d="
	m136 -702
	v890
	h32
	v-890
	m128 840
	h32
	v-888
	h-32
	m-232 286
	v116
	l338 -96
	v-116
	m-338 442
	v116
	l338 -98
	v-114"/>
<use id="sh0" transform="translate(-4,5) scale(0.018)"
	xlink:href="#usharp"/>
</defs>
<use x="37.00" y="63.40" xlink:href="#sh0"/>
<g style="font:bold 16px serif"
	transform="translate(53.00,86.90) scale(1.2,1)">
	<text text-anchor="middle">4</text>
	<text y="-12" text-anchor="middle">4</text>
</g>
<defs>
<path id="Hd" class="fill" d="m3 -1.6
	c-1 -1.8 -7 1.4 -6 3.2
	1 1.8 7 -1.4 6 -3.2
	m0.5 -0.3
	c2 3.8 -5 7.6 -7 3.8
	-2 -3.8 5 -7.6 7 -3.8"/>
</defs>
<use x="71.50" y="69.40" xlink:href="#Hd"/>
<path d="M68.00 69.40v21.00" class="stroke"/>
<defs>
<ellipse id="hd" rx="4.1" ry="2.9"
	transform="rotate(-20)" class="fill"/>
</defs>
<use x="132.80" y="66.40" xlink:href="#hd"/>
<path d="M129.30 66.40v21.00" class="stroke"/>
<use x="163.50" y="69.40" xlink:href="#hd"/>
<path d="M160.00 69.40v21.00" class="stroke"/>
<use x="197.70" y="75.40" xlink:href="#hd"/>
<path d="M194.20 75.40v21.00" class="stroke"/>
<use x="228.50" y="69.40" xlink:href="#hd"/>
<path d="M225.00 69.40v21.00" class="stroke"/>
<use x="259.20" y="78.40" xlink:href="#Hd"/>
<path d="M262.70 78.40v-21.00" class="stroke"/>
<use x="324.10" y="75.40" xlink:href="#hd"/>
<path d="M327.60 75.40v-21.00" class="stroke"/>
<use x="354.70" y="81.40" xlink:href="#hd"/>
<path d="M358.20 81.40v-21.00" class="stroke"/>
<use x="385.40" y="75.40" xlink:href="#hd"/>
<path d="M388.90 75.40v-21.00" class="stroke"/>
<use x="416.20" y="72.40" xlink:href="#hd"/>
<path d="M412.70 72.40v21.00" class="stroke"/>
<use x="450.90" y="69.40" xlink:href="#Hd"/>
<path d="M447.40 69.40v21.00" class="stroke"/>
<defs>
<path id="r4" class="fill" d="m-1 -8.5
	l3.6 5.1 -2.1 5.2 2.2 4.3
	c-2.6 -2.3 -5.1 0 -2.4 2.6
	-4.8 -3 -1.5 -6.9 1.4 -4.1
	l-3.1 -4.5 1.9 -5.1 -1.5 -3.5"/>
</defs>
<use x="512.30" y="75.40" xlink:href="#r4"/>
<use x="543.00" y="69.40" xlink:href="#hd"/>
<path d="M539.50 69.40v21.00" class="stroke"/>
<use x="577.80" y="66.40" xlink:href="#Hd"/>
<path d="M574.30 66.40v21.00" class="stroke"/>
<use x="639.20" y="69.40" xlink:href="#hd"/>
<path d="M635.70 69.40v21.00" class="stroke"/>
<use x="669.80" y="75.40" xlink:href="#hd"/>
<path d="M666.30 75.40v21.00" class="stroke"/>
<defs>
<path id="ubclef" class="fill" d="m-200 -87
	c124 -35 222 -78 254 -236
	43 -228 -167 -246 -192 -103
	59 -80 157 22 92 78
	-62 47 -115 -22 -106 -88
	21 -141 270 -136 274 52
	-1 175 -106 264 -322 297
	m357 -250
	c0 -36 51 -34 51 0
	0 37 -51 36 -51 0
	m-2 -129
	c0 -36 51 -34 51 0
	0 38 -51 37 -51 0"/>
<use id="bclef" transform="translate(0,18) scale(0.045)"
	xlink:href="#ubclef"/>
</defs>
<use x="22.00" y="127.40" xlink:href="#bclef"/>
<use x="37.00" y="127.40" xlink:href="#sh0"/>
<g style="font:bold 16px serif"
	transform="translate(53.00,144.90) scale(1.2,1)">
	<text text-anchor="middle">4</text>
	<text y="-12" text-anchor="middle">4</text>
</g>
<use x="71.50" y="145.40" xlink:href="#hd"/>
<path d="M75.00 145.40v-21.00" class="stroke"/>
<use x="102.20" y="139.40" xlink:href="#hd"/>
<path d="M105.70 139.40v-21.00" class="stroke"/>
<use x="132.80" y="133.40" xlink:href="#hd"/>
<path d="M136.30 133.40v-21.00" class="stroke"/>
<use x="163.50" y="139.40" xlink:href="#hd"/>
<path d="M167.00 139.40v-21.00" class="stroke"/>
<use x="197.70" y="133.40" xlink:href="#hd"/>
<path d="M201.20 133.40v-21.00" class="stroke"/>
<use x="228.50" y="127.40" xlink:href="#hd"/>
<path d="M225.00 127.40v21.00" class="stroke"/>
<use x="259.20" y="121.40" xlink:href="#hd"/>
<path d="M255.70 121.40v21.00" class="stroke"/>
<use x="289.80" y="127.40" xlink:href="#hd"/>
<path d="M286.30 127.40v21.00" class="stroke"/>
<use x="324.10" y="145.40" xlink:href="#hd"/>
<path d="M327.60 145.40v-21.00" class="stroke"/>
<use x="354.70" y="139.40" xlink:href="#hd"/>
<path d="M358.20 139.40v-21.00" class="stroke"/>
<use x="385.40" y="133.40" xlink:href="#hd"/>
<path d="M388.90 133.40v-21.00" class="stroke"/>
<use x="416.20" y="139.40" xlink:href="#hd"/>
<path d="M419.70 139.40v-21.00" class="stroke"/>
<use x="450.90" y="133.40" xlink:href="#hd"/>
<path d="M454.40 133.40v-21.00" class="stroke"/>
<use x="481.70" y="127.40" xlink:href="#hd"/>
<path d="M478.20 127.40v21.00" class="stroke"/>
<use x="512.30" y="121.40" xlink:href="#hd"/>
<path d="M508.80 121.40v21.00" class="stroke"/>
<use x="543.00" y="127.40" xlink:href="#hd"/>
<path d="M539.50 127.40v21.00" class="stroke"/>
<use x="577.80" y="136.40" xlink:href="#hd"/>
<path d="M581.30 136.40v-21.00" class="stroke"/>
<use x="608.50" y="130.40" xlink:href="#hd"/>
<path d="M605.00 130.40v21.00" class="stroke"/>
<use x="639.20" y="124.40" xlink:href="#hd"/>
<path d="M635.70 124.40v21.00" class="stroke"/>
<use x="669.80" y="130.40" xlink:href="#hd"/>
<path d="M666.30 130.40v21.00" class="stroke"/>
</g>
<g stroke-width="0.70" style="font:bold 13.00px Times">
<path class="stroke" stroke-width="1"
	d="M10.00 273.40v-82.00"/>
<g transform="translate(10.00,191.40) scale(1,0.82)">
	<use xlink:href="#brace"/>
</g>
<path class="stroke" stroke-width="1"
	d="M165.10 215.40v-24.00"/>
<path class="stroke" stroke-width="1"
	d="M165.10 273.40v-24.00"/>
<path class="stroke" stroke-width="1"
	d="M300.50 215.40v-24.00"/>
<path class="stroke" stroke-width="1"
	d="M300.50 273.40v-24.00"/>
<path class="stroke" stroke-width="1"
	d="M423.40 215.40v-24.00"/>
<path class="stroke" stroke-width="1"
	d="M423.40 273.40v-24.00"/>
<path class="stroke" stroke-width="1"
	d="M556.60 215.40v-24.00"/>
<path class="stroke" stroke-width="1"
	d="M556.60 273.40v-24.00"/>
<path class="stroke" stroke-width="1"
	d="M691.60 215.40v-24.00"/>
<path class="stroke" stroke-width="1"
	d="M691.60 273.40v-24.00"/>
<path d="m10.00 215.40
	h681.60
	M10.00 209.40
	h681.60
	M10.00 203.40
	h681.60
	M10.00 197.40
	h681.60
	M10.00 191.40
	h681.60
	" class="stroke"/>
<path d="m10.00 273.40
	h681.60
	M10.00 267.40
	h681.60
	M10.00 261.40
	h681.60
	M10.00 255.40
	h681.60
	M10.00 249.40
	h681.60
	" class="stroke"/>
</g>
<g stroke-width="0.70" style="font:bold 13.00px Times">
<text x="51.10" y="186.80">V</text>
</g>
<g stroke-width="0.70" style="font:bold 13.00px Times">
<text x="175.70" y="186.80">I</text>
</g>
<g stroke-width="0.70" style="font:bold 13.00px Times">
<text x="311.70" y="181.80">I</text>
</g>
<g stroke-width="0.70" style="font:bold 13.00px Times">
<text x="432.00" y="178.80">V</text>
</g>
<g stroke-width="0.70" style="font:bold 13.00px Times">
<text x="567.30" y="184.80">I</text>
<use x="22.00" y="209.40" xlink:href="#tclef"/>
<use x="37.00" y="191.40" xlink:href="#sh0"/>
<use x="55.00" y="197.40" xlink:href="#hd"/>
<path d="M51.50 197.40v21.00" class="stroke"/>
<use x="84.60" y="206.40" xlink:href="#hd"/>
<path d="M88.10 206.40v-21.00" class="stroke"/>
<use x="114.30" y="209.40" xlink:href="#hd"/>
<path d="M117.80 209.40v-21.00" class="stroke"/>
<use x="144.00" y="200.40" xlink:href="#hd"/>
<path d="M140.50 200.40v21.00" class="stroke"/>
<use x="177.60" y="203.40" xlink:href="#hd"/>
<path d="M174.10 203.40v21.00" class="stroke"/>
<use x="207.20" y="206.40" xlink:href="#hd"/>
<path d="M210.70 206.40v-21.00" class="stroke"/>
<use x="236.80" y="209.40" xlink:href="#hd"/>
<path d="M240.30 209.40v-21.00" class="stroke"/>
<path class="fill"
	d="M240.30 188.40c0.6 5.6 9.6 9 5.6 18.4
	1.6 -6 -1.3 -11.6 -5.6 -12.8
"/>
<use x="258.10" y="215.40" xlink:href="#hd"/>
<path d="M261.60 215.40v-21.00" class="stroke"/>
<path class="fill"
	d="M261.60 194.40c0.6 5.6 9.6 9 5.6 18.4
	1.6 -6 -1.3 -11.6 -5.6 -12.8
"/>
<use x="279.50" y="212.40" xlink:href="#hd"/>
<path d="M283.00 212.40v-21.00" class="stroke"/>
<use x="313.50" y="209.40" xlink:href="#Hd"/>
<path d="M317.00 209.40v-21.00" class="stroke"/>
<use x="372.80" y="203.40" xlink:href="#r4"/>
<use x="402.40" y="209.40" xlink:href="#hd"/>
<path d="M405.90 209.40v-21.00" class="stroke"/>
<use x="435.90" y="206.40" xlink:href="#hd"/>
<circle class="fill" cx="443.60" cy="206.40" r="1.2"/>
<path d="M439.40 206.40v-21.00" class="stroke"/>
<use x="484.50" y="203.40" xlink:href="#hd"/>
<path d="M488.00 203.40v-21.00" class="stroke"/>
<path class="fill"
	d="M488.00 182.40c0.6 5.6 9.6 9 5.6 18.4
	1.6 -6 -1.3 -11.6 -5.6 -12.8
"/>
<use x="506.00" y="200.40" xlink:href="#Hd"/>
<path d="M502.50 200.40v21.00" class="stroke"/>
<use x="569.10" y="203.40" xlink:href="#hd"/>
<circle class="fill" cx="576.80" cy="200.40" r="1.2"/>
<path d="M565.60 203.40v21.00" class="stroke"/>
<use x="619.80" y="200.40" xlink:href="#hd"/>
<path d="M616.30 200.40v21.00" class="stroke"/>
<path class="fill"
	d="M616.30 221.40c0.6 -5.6 9.6 -9 5.6 -18.4
	1.6 6 -1.3 11.6 -5.6 12.8
"/>
<use x="640.90" y="197.40" xlink:href="#Hd"/>
<path d="M637.40 197.40v21.00" class="stroke"/>
<use x="22.00" y="255.40" xlink:href="#bclef"/>
<use x="37.00" y="255.40" xlink:href="#sh0"/>
<use x="55.00" y="261.40" xlink:href="#hd"/>
<path d="M51.50 261.40v21.00" class="stroke"/>
<use x="84.60" y="255.40" xlink:href="#hd"/>
<path d="M81.10 255.40v21.00" class="stroke"/>
<use x="114.30" y="249.40" xlink:href="#hd"/>
<path d="M110.80 249.40v21.00" class="stroke"/>
<use x="144.00" y="255.40" xlink:href="#hd"/>
<path d="M140.50 255.40v21.00" class="stroke"/>
<use x="177.60" y="273.40" xlink:href="#hd"/>
<path d="M181.10 273.40v-21.00" class="stroke"/>
<use x="207.20" y="267.40" xlink:href="#hd"/>
<path d="M210.70 267.40v-21.00" class="stroke"/>
<use x="236.80" y="261.40" xlink:href="#hd"/>
<path d="M240.30 261.40v-21.00" class="stroke"/>
<use x="279.50" y="267.40" xlink:href="#hd"/>
<path d="M283.00 267.40v-21.00" class="stroke"/>
<use x="313.50" y="273.40" xlink:href="#hd"/>
<path d="M317.00 273.40v-21.00" class="stroke"/>
<use x="343.10" y="267.40" xlink:href="#hd"/>
<path d="M346.60 267.40v-21.00" class="stroke"/>
<use x="372.80" y="261.40" xlink:href="#hd"/>
<path d="M376.30 261.40v-21.00" class="stroke"/>
<use x="402.40" y="267.40" xlink:href="#hd"/>
<path d="M405.90 267.40v-21.00" class="stroke"/>
<use x="435.90" y="261.40" xlink:href="#hd"/>
<path d="M439.40 261.40v-21.00" class="stroke"/>
<use x="465.70" y="255.40" xlink:href="#hd"/>
<path d="M462.20 255.40v21.00" class="stroke"/>
<use x="506.00" y="249.40" xlink:href="#hd"/>
<path d="M502.50 249.40v21.00" class="stroke"/>
<use x="535.60" y="255.40" xlink:href="#hd"/>
<path d="M532.10 255.40v21.00" class="stroke"/>
<use x="569.10" y="273.40" xlink:href="#hd"/>
<path d="M572.60 273.40v-21.00" class="stroke"/>
<use x="598.80" y="267.40" xlink:href="#hd"/>
<path d="M602.30 267.40v-21.00" class="stroke"/>
<use x="640.90" y="261.40" xlink:href="#hd"/>
<path d="M644.40 261.40v-21.00" class="stroke"/>
<use x="670.60" y="267.40" xlink:href="#hd"/>
<path d="M674.10 267.40v-21.00" class="stroke"/>
</g>
<g stroke-width="0.70" style="font:bold 13.00px Times">
<path class="stroke" stroke-width="1"
	d="M10.00 403.80v-82.00"/>
<g transform="translate(10.00,321.80) scale(1,0.82)">
	<use xlink:href="#brace"/>
</g>
<path class="stroke" stroke-width="1"
	d="M172.30 345.80v-24.00"/>
<path class="stroke" stroke-width="1"
	d="M172.30 403.80v-24.00"/>
<path class="stroke" stroke-width="1"
	d="M302.00 345.80v-24.00"/>
<path class="stroke" stroke-width="1"
	d="M302.00 403.80v-24.00"/>
<path class="stroke" stroke-width="1"
	d="M432.20 345.80v-24.00"/>
<path class="stroke" stroke-width="1"
	d="M432.20 403.80v-24.00"/>
<path class="stroke" stroke-width="1"
	d="M561.90 345.80v-24.00"/>
<path class="stroke" stroke-width="1"
	d="M561.90 403.80v-24.00"/>
<path class="stroke" stroke-width="1"
	d="M691.60 345.80v-24.00"/>
<path class="stroke" stroke-width="1"
	d="M691.60 403.80v-24.00"/>
<path d="m10.00 345.80
	h681.60
	M10.00 339.80
	h681.60
	M10.00 333.80
	h681.60
	M10.00 327.80
	h681.60
	M10.00 321.80
	h681.60
	" class="stroke"/>
<path d="m10.00 403.80
	h681.60
	M10.00 397.80
	h681.60
	M10.00 391.80
	h681.60
	M10.00 385.80
	h681.60
	M10.00 379.80
	h681.60
	" class="stroke"/>
</g>
<g stroke-width="0.70" style="font:bold 13.00px Times">
<text x="50.00" y="309.20">ii<tspan
	 style="font:italic 11.00px Times">¹</tspan></text>
</g>
<g stroke-width="0.70" style="font:bold 13.00px Times">
<text x="180.80" y="317.20">V</text>
</g>
<g stroke-width="0.70" style="font:bold 13.00px Times">
<text x="310.80" y="312.20">vi</text>
</g>
<g stroke-width="0.70" style="font:bold 13.00px Times">
<text x="442.80" y="306.20">I</text>
</g>
<g stroke-width="0.70" style="font:bold 13.00px Times">
<text x="572.60" y="315.20">I</text>
<use x="22.00" y="339.80" xlink:href="#tclef"/>
<use x="37.00" y="321.80" xlink:href="#sh0"/>
<use x="55.00" y="336.80" xlink:href="#hd"/>
<path d="M58.50 336.80v-21.00" class="stroke"/>
<use x="86.60" y="342.80" xlink:href="#hd"/>
<path d="M90.10 342.80v-21.00" class="stroke"/>
<use x="118.30" y="339.80" xlink:href="#hd"/>
<path d="M121.80 339.80v-21.00" class="stroke"/>
<use x="149.90" y="345.80" xlink:href="#hd"/>
<path d="M153.40 345.80v-21.00" class="stroke"/>
<use x="184.80" y="348.80" xlink:href="#hd"/>
<path d="M188.30 348.80v-21.00" class="stroke"/>
<use x="216.40" y="348.80" xlink:href="#hd"/>
<path d="M219.90 348.80v-21.00" class="stroke"/>
<use x="248.10" y="333.80" xlink:href="#r4"/>
<use x="279.70" y="348.80" xlink:href="#hd"/>
<path d="M283.20 348.80v-21.00" class="stroke"/>
<use x="315.00" y="339.80" xlink:href="#Hd"/>
<path d="M318.50 339.80v-21.00" class="stroke"/>
<use x="378.20" y="336.80" xlink:href="#Hd"/>
<path d="M381.70 336.80v-21.00" class="stroke"/>
<use x="444.70" y="333.80" xlink:href="#hd"/>
<path d="M448.20 333.80v-21.00" class="stroke"/>
<use x="476.40" y="327.80" xlink:href="#Hd"/>
<path d="M472.90 327.80v21.00" class="stroke"/>
<use x="539.60" y="330.80" xlink:href="#hd"/>
<path d="M536.10 330.80v21.00" class="stroke"/>
<use x="574.40" y="333.80" xlink:href="#hd"/>
<path d="M570.90 333.80v21.00" class="stroke"/>
<use x="606.00" y="339.80" xlink:href="#hd"/>
<path d="M609.50 339.80v-21.00" class="stroke"/>
<use x="637.70" y="336.80" xlink:href="#Hd"/>
<path d="M641.20 336.80v-21.00" class="stroke"/>
<use x="22.00" y="385.80" xlink:href="#bclef"/>
<use x="37.00" y="385.80" xlink:href="#sh0"/>
<use x="55.00" y="400.80" xlink:href="#hd"/>
<path d="M58.50 400.80v-21.00" class="stroke"/>
<use x="86.60" y="394.80" xlink:href="#hd"/>
<path d="M90.10 394.80v-21.00" class="stroke"/>
<use x="118.30" y="388.80" xlink:href="#hd"/>
<path d="M114.80 388.80v21.00" class="stroke"/>
<use x="149.90" y="394.80" xlink:href="#hd"/>
<path d="M153.40 394.80v-21.00" class="stroke"/>
<use x="184.80" y="391.80" xlink:href="#hd"/>
<path d="M188.30 391.80v-21.00" class="stroke"/>
<use x="216.40" y="385.80" xlink:href="#hd"/>
<path d="M212.90 385.80v21.00" class="stroke"/>
<use x="248.10" y="379.80" xlink:href="#hd"/>
<path d="M244.60 379.80v21.00" class="stroke"/>
<use x="279.70" y="385.80" xlink:href="#hd"/>
<path d="M276.20 385.80v21.00" class="stroke"/>
<use x="315.00" y="388.80" xlink:href="#hd"/>
<path d="M311.50 388.80v21.00" class="stroke"/>
<use x="346.60" y="382.80" xlink:href="#hd"/>
<path d="M343.10 382.80v21.00" class="stroke"/>
<use x="378.20" y="376.80" xlink:href="#hd"/>
<path d="M374.70 376.80v21.00" class="stroke"/>
<use x="409.80" y="382.80" xlink:href="#hd"/>
<path d="M406.30 382.80v21.00" class="stroke"/>
<use x="444.70" y="403.80" xlink:href="#hd"/>
<path d="M448.20 403.80v-21.00" class="stroke"/>
<use x="476.40" y="397.80" xlink:href="#hd"/>
<path d="M479.90 397.80v-21.00" class="stroke"/>
<use x="508.00" y="391.80" xlink:href="#hd"/>
<path d="M511.50 391.80v-21.00" class="stroke"/>
<use x="539.60" y="397.80" xlink:href="#hd"/>
<path d="M543.10 397.80v-21.00" class="stroke"/>
<use x="574.40" y="403.80" xlink:href="#hd"/>
<path d="M577.90 403.80v-21.00" class="stroke"/>
<use x="606.00" y="397.80" xlink:href="#hd"/>
<path d="M609.50 397.80v-21.00" class="stroke"/>
<use x="637.70" y="391.80" xlink:href="#hd"/>
<path d="M641.20 391.80v-21.00" class="stroke"/>
<use x="669.30" y="397.80" xlink:href="#hd"/>
<path d="M672.80 397.80v-21.00" class="stroke"/>
</g>
<g stroke-width="0.70" style="font:bold 13.00px Times">
<path class="stroke" stroke-width="1"
	d="M10.00 534.20v-82.00"/>
<g transform="translate(10.00,452.20) scale(1,0.82)">
	<use xlink:href="#brace"/>
</g>
<path class="stroke" stroke-width="1"
	d="M173.30 476.20v-24.00"/>
<path class="stroke" stroke-width="1"
	d="M173.30 534.20v-24.00"/>
<path class="stroke" stroke-width="1"
	d="M303.00 476.20v-24.00"/>
<path class="stroke" stroke-width="1"
	d="M303.00 534.20v-24.00"/>
<path class="stroke" stroke-width="1"
	d="M432.40 476.20v-24.00"/>
<path class="stroke" stroke-width="1"
	d="M432.40 534.20v-24.00"/>
<path class="stroke" stroke-width="1"
	d="M561.70 476.20v-24.00"/>
<path class="stroke" stroke-width="1"
	d="M561.70 534.20v-24.00"/>
<path class="stroke" stroke-width="1"
	d="M691.60 476.20v-24.00"/>
<path class="stroke" stroke-width="1"
	d="M691.60 534.20v-24.00"/>
<path d="m10.00 476.20
	h681.60
	M10.00 470.20
	h681.60
	M10.00 464.20
	h681.60
	M10.00 458.20
	h681.60
	M10.00 452.20
	h681.60
	" class="stroke"/>
<path d="m10.00 534.20
	h681.60
	M10.00 528.20
	h681.60
	M10.00 522.20
	h681.60
	M10.00 516.20
	h681.60
	M10.00 510.20
	h681.60
	" class="stroke"/>
</g>
<g stroke-width="0.70" style="font:bold 13.00px Times">
<text x="54.70" y="447.60">I</text>
</g>
<g stroke-width="0.70" style="font:bold 13.00px Times">
<text x="184.40" y="445.60">I</text>
</g>
<g stroke-width="0.70" style="font:bold 13.00px Times">
<text x="311.60" y="445.60">V</text>
</g>
<g stroke-width="0.70" style="font:bold 13.00px Times">
<text x="443.10" y="436.60">I</text>
</g>
<g stroke-width="0.70" style="font:bold 13.00px Times">
<text x="570.80" y="445.60">V</text>
<use x="22.00" y="470.20" xlink:href="#tclef"/>
<use x="37.00" y="452.20" xlink:href="#sh0"/>
<defs>
<path id="HD" class="fill" d="m-2.7 -1.4
	c1.5 -2.8 6.9 0 5.3 2.7
	-1.5 2.8 -6.9 0 -5.3 -2.7
	m8.3 1.4
	c0 -1.5 -2.2 -3 -5.6 -3
	-3.4 0 -5.6 1.5 -5.6 3
	0 1.5 2.2 3 5.6 3
	3.4 0 5.6 -1.5 5.6 -3"/>
</defs>
<use x="57.50" y="464.20" xlink:href="#HD"/>
<use x="186.30" y="458.20" xlink:href="#Hd"/>
<path d="M182.80 458.20v21.00" class="stroke"/>
<use x="249.30" y="455.20" xlink:href="#hd"/>
<path d="M245.80 455.20v21.00" class="stroke"/>
<use x="280.80" y="458.20" xlink:href="#hd"/>
<path d="M277.30 458.20v21.00" class="stroke"/>
<use x="315.50" y="464.20" xlink:href="#hd"/>
<path d="M312.00 464.20v21.00" class="stroke"/>
<use x="347.10" y="458.20" xlink:href="#hd"/>
<path d="M343.60 458.20v21.00" class="stroke"/>
<use x="378.60" y="467.20" xlink:href="#Hd"/>
<path d="M382.10 467.20v-21.00" class="stroke"/>
<use x="444.90" y="464.20" xlink:href="#hd"/>
<path d="M448.40 464.20v-21.00" class="stroke"/>
<use x="476.40" y="470.20" xlink:href="#hd"/>
<path d="M479.90 470.20v-21.00" class="stroke"/>
<use x="507.90" y="464.20" xlink:href="#hd"/>
<path d="M511.40 464.20v-21.00" class="stroke"/>
<use x="539.50" y="461.20" xlink:href="#hd"/>
<path d="M536.00 461.20v21.00" class="stroke"/>
<use x="574.70" y="458.20" xlink:href="#Hd"/>
<path d="M571.20 458.20v21.00" class="stroke"/>
<use x="637.80" y="464.20" xlink:href="#r4"/>
<use x="669.30" y="458.20" xlink:href="#hd"/>
<path d="M665.80 458.20v21.00" class="stroke"/>
<use x="22.00" y="516.20" xlink:href="#bclef"/>
<use x="37.00" y="516.20" xlink:href="#sh0"/>
<use x="56.50" y="534.20" xlink:href="#hd"/>
<path d="M60.00 534.20v-21.00" class="stroke"/>
<use x="88.00" y="528.20" xlink:href="#hd"/>
<path d="M91.50 528.20v-21.00" class="stroke"/>
<use x="119.50" y="522.20" xlink:href="#hd"/>
<path d="M123.00 522.20v-21.00" class="stroke"/>
<use x="151.00" y="528.20" xlink:href="#hd"/>
<path d="M154.50 528.20v-21.00" class="stroke"/>
<use x="186.30" y="534.20" xlink:href="#hd"/>
<path d="M189.80 534.20v-21.00" class="stroke"/>
<use x="217.80" y="528.20" xlink:href="#hd"/>
<path d="M221.30 528.20v-21.00" class="stroke"/>
<use x="249.30" y="522.20" xlink:href="#hd"/>
<path d="M252.80 522.20v-21.00" class="stroke"/>
<use x="280.80" y="528.20" xlink:href="#hd"/>
<path d="M284.30 528.20v-21.00" class="stroke"/>
<use x="315.50" y="522.20" xlink:href="#hd"/>
<path d="M319.00 522.20v-21.00" class="stroke"/>
<use x="347.10" y="516.20" xlink:href="#hd"/>
<path d="M343.60 516.20v21.00" class="stroke"/>
<use x="378.60" y="510.20" xlink:href="#hd"/>
<path d="M375.10 510.20v21.00" class="stroke"/>
<use x="410.10" y="516.20" xlink:href="#hd"/>
<path d="M406.60 516.20v21.00" class="stroke"/>
<use x="444.90" y="534.20" xlink:href="#hd"/>
<path d="M448.40 534.20v-21.00" class="stroke"/>
<use x="476.40" y="528.20" xlink:href="#hd"/>
<path d="M479.90 528.20v-21.00" class="stroke"/>
<use x="507.90" y="522.20" xlink:href="#hd"/>
<path d="M511.40 522.20v-21.00" class="stroke"/>
<use x="539.50" y="528.20" xlink:href="#hd"/>
<path d="M543.00 528.20v-21.00" class="stroke"/>
<use x="574.70" y="522.20" xlink:href="#hd"/>
<path d="M578.20 522.20v-21.00" class="stroke"/>
<use x="606.30" y="516.20" xlink:href="#hd"/>
<path d="M602.80 516.20v21.00" class="stroke"/>
<use x="637.80" y="510.20" xlink:href="#hd"/>
<path d="M634.30 510.20v21.00" class="stroke"/>
<use x="669.30" y="516.20" xlink:href="#hd"/>
<path d="M665.80 516.20v21.00" class="stroke"/>
</g>
<g stroke-width="0.70" style="font:bold 13.00px Times">
<path class="stroke" stroke-width="1"
	d="M10.00 662.20v-82.00"/>
<g transform="translate(10.00,580.20) scale(1,0.82)">
	<use xlink:href="#brace"/>
</g>
<path class="stroke" stroke-width="1"
	d="M167.90 604.20v-24.00"/>
<path class="stroke" stroke-width="1"
	d="M167.90 662.20v-24.00"/>
<path class="stroke" stroke-width="1"
	d="M292.70 604.20v-24.00"/>
<path class="stroke" stroke-width="1"
	d="M292.70 662.20v-24.00"/>
<path class="stroke" stroke-width="1"
	d="M430.70 604.20v-24.00"/>
<path class="stroke" stroke-width="1"
	d="M430.70 662.20v-24.00"/>
<path class="stroke" stroke-width="1"
	d="M555.90 604.20v-24.00"/>
<path class="stroke" stroke-width="1"
	d="M555.90 662.20v-24.00"/>
<path class="stroke" stroke-width="1"
	d="M691.60 604.20v-24.00"/>
<path class="stroke" stroke-width="1"
	d="M691.60 662.20v-24.00"/>
<path d="m10.00 604.20
	h681.60
	M10.00 598.20
	h681.60
	M10.00 592.20
	h681.60
	M10.00 586.20
	h681.60
	M10.00 580.20
	h681.60
	" class="stroke"/>
<path d="m10.00 662.20
	h681.60
	M10.00 656.20
	h681.60
	M10.00 650.20
	h681.60
	M10.00 644.20
	h681.60
	M10.00 638.20
	h681.60
	" class="stroke"/>
</g>
<g stroke-width="0.70" style="font:bold 13.00px Times">
<text x="49.70" y="574.60">IV</text>
</g>
<g stroke-width="0.70" style="font:bold 13.00px Times">
<text x="176.40" y="573.60">V</text>
</g>
<g stroke-width="0.70" style="font:bold 13.00px Times">
<text x="303.40" y="575.60">I</text>
</g>
<g stroke-width="0.70" style="font:bold 13.00px Times">
<text x="441.90" y="570.60">I</text>
</g>
<g stroke-width="0.70" style="font:bold 13.00px Times">
<text x="564.50" y="567.60">V</text>
<use x="22.00" y="598.20" xlink:href="#tclef"/>
<use x="37.00" y="580.20" xlink:href="#sh0"/>
<use x="55.50" y="583.20" xlink:href="#Hd"/>
<path d="M52.00 583.20v21.00" class="stroke"/>
<use x="116.10" y="586.20" xlink:href="#hd"/>
<path d="M112.60 586.20v21.00" class="stroke"/>
<use x="146.40" y="592.20" xlink:href="#hd"/>
<path d="M142.90 592.20v21.00" class="stroke"/>
<use x="180.40" y="586.20" xlink:href="#hd"/>
<path d="M176.90 586.20v21.00" class="stroke"/>
<use x="210.60" y="595.20" xlink:href="#hd"/>
<path d="M214.10 595.20v-21.00" class="stroke"/>
<use x="240.90" y="598.20" xlink:href="#hd"/>
<path d="M244.40 598.20v-21.00" class="stroke"/>
<use x="271.30" y="589.20" xlink:href="#hd"/>
<path d="M267.80 589.20v21.00" class="stroke"/>
<use x="305.20" y="592.20" xlink:href="#hd"/>
<path d="M301.70 592.20v21.00" class="stroke"/>
<use x="335.50" y="595.20" xlink:href="#hd"/>
<path d="M339.00 595.20v-21.00" class="stroke"/>
<use x="365.80" y="598.20" xlink:href="#hd"/>
<path d="M369.30 598.20v-21.00" class="stroke"/>
<path class="fill"
	d="M369.30 577.20c0.6 5.6 9.6 9 5.6 18.4
	1.6 -6 -1.3 -11.6 -5.6 -12.8
"/>
<use x="387.50" y="604.20" xlink:href="#hd"/>
<path d="M391.00 604.20v-21.00" class="stroke"/>
<path class="fill"
	d="M391.00 583.20c0.6 5.6 9.6 9 5.6 18.4
	1.6 -6 -1.3 -11.6 -5.6 -12.8
"/>
<use x="409.20" y="601.20" xlink:href="#hd"/>
<path d="M412.70 601.20v-21.00" class="stroke"/>
<use x="443.70" y="598.20" xlink:href="#Hd"/>
<path d="M447.20 598.20v-21.00" class="stroke"/>
<use x="504.20" y="592.20" xlink:href="#r4"/>
<use x="534.50" y="598.20" xlink:href="#hd"/>
<path d="M538.00 598.20v-21.00" class="stroke"/>
<use x="568.40" y="595.20" xlink:href="#hd"/>
<circle class="fill" cx="576.10" cy="595.20" r="1.2"/>
<path d="M571.90 595.20v-21.00" class="stroke"/>
<use x="618.00" y="592.20" xlink:href="#hd"/>
<path d="M621.50 592.20v-21.00" class="stroke"/>
<path class="fill"
	d="M621.50 571.20c0.6 5.6 9.6 9 5.6 18.4
	1.6 -6 -1.3 -11.6 -5.6 -12.8
"/>
<use x="639.90" y="589.20" xlink:href="#Hd"/>
<path d="M636.40 589.20v21.00" class="stroke"/>
<use x="22.00" y="644.20" xlink:href="#bclef"/>
<use x="37.00" y="644.20" xlink:href="#sh0"/>
<use x="55.50" y="653.20" xlink:href="#hd"/>
<path d="M59.00 653.20v-21.00" class="stroke"/>
<use x="85.90" y="647.20" xlink:href="#hd"/>
<path d="M82.40 647.20v21.00" class="stroke"/>
<use x="116.10" y="641.20" xlink:href="#hd"/>
<path d="M112.60 641.20v21.00" class="stroke"/>
<use x="146.40" y="647.20" xlink:href="#hd"/>
<path d="M142.90 647.20v21.00" class="stroke"/>
<use x="180.40" y="650.20" xlink:href="#hd"/>
<path d="M176.90 650.20v21.00" class="stroke"/>
<use x="210.60" y="644.20" xlink:href="#hd"/>
<path d="M207.10 644.20v21.00" class="stroke"/>
<use x="240.90" y="638.20" xlink:href="#hd"/>
<path d="M237.40 638.20v21.00" class="stroke"/>
<use x="271.30" y="644.20" xlink:href="#hd"/>
<path d="M267.80 644.20v21.00" class="stroke"/>
<use x="305.20" y="662.20" xlink:href="#hd"/>
<path d="M308.70 662.20v-21.00" class="stroke"/>
<use x="335.50" y="656.20" xlink:href="#hd"/>
<path d="M339.00 656.20v-21.00" class="stroke"/>
<use x="365.80" y="650.20" xlink:href="#hd"/>
<path d="M369.30 650.20v-21.00" class="stroke"/>
<use x="409.20" y="656.20" xlink:href="#hd"/>
<path d="M412.70 656.20v-21.00" class="stroke"/>
<use x="443.70" y="662.20" xlink:href="#hd"/>
<path d="M447.20 662.20v-21.00" class="stroke"/>
<use x="473.90" y="656.20" xlink:href="#hd"/>
<path d="M477.40 656.20v-21.00" class="stroke"/>
<use x="504.20" y="650.20" xlink:href="#hd"/>
<path d="M507.70 650.20v-21.00" class="stroke"/>
<use x="534.50" y="656.20" xlink:href="#hd"/>
<path d="M538.00 656.20v-21.00" class="stroke"/>
<use x="568.40" y="650.20" xlink:href="#hd"/>
<path d="M571.90 650.20v-21.00" class="stroke"/>
<use x="598.80" y="644.20" xlink:href="#hd"/>
<path d="M595.30 644.20v21.00" class="stroke"/>
<use x="639.90" y="638.20" xlink:href="#hd"/>
<path d="M636.40 638.20v21.00" class="stroke"/>
<use x="670.10" y="644.20" xlink:href="#hd"/>
<path d="M666.60 644.20v21.00" class="stroke"/>
</g>
<g stroke-width="0.70" style="font:bold 13.00px Times">
<path class="stroke" stroke-width="1"
	d="M10.00 792.60v-82.00"/>
<g transform="translate(10.00,710.60) scale(1,0.82)">
	<use xlink:href="#brace"/>
</g>
<path class="stroke" stroke-width="1"
	d="M182.60 734.60v-24.00"/>
<path class="stroke" stroke-width="1"
	d="M182.60 792.60v-24.00"/>
<path class="stroke" stroke-width="1"
	d="M309.70 734.60v-24.00"/>
<path class="stroke" stroke-width="1"
	d="M309.70 792.60v-24.00"/>
<path class="stroke" stroke-width="1"
	d="M436.90 734.60v-24.00"/>
<path class="stroke" stroke-width="1"
	d="M436.90 792.60v-24.00"/>
<path class="stroke" stroke-width="1"
	d="M564.40 734.60v-24.00"/>
<path class="stroke" stroke-width="1"
	d="M564.40 792.60v-24.00"/>
<path class="stroke" stroke-width="1"
	d="M691.60 734.60v-24.00"/>
<path class="stroke" stroke-width="1"
	d="M691.60 792.60v-24.00"/>
<path d="m10.00 734.60
	h681.60
	M10.00 728.60
	h681.60
	M10.00 722.60
	h681.60
	M10.00 716.60
	h681.60
	M10.00 710.60
	h681.60
	" class="stroke"/>
<path d="m10.00 792.60
	h681.60
	M10.00 786.60
	h681.60
	M10.00 780.60
	h681.60
	M10.00 774.60
	h681.60
	M10.00 768.60
	h681.60
	" class="stroke"/>
</g>
<g stroke-width="0.70" style="font:bold 13.00px Times">
<text x="53.20" y="706.00">I</text>
</g>
<g stroke-width="0.70" style="font:bold 13.00px Times">
<text x="190.10" y="698.00">ii<tspan
	 style="font:italic 11.00px Times">¹</tspan></text>
</g>
<g stroke-width="0.70" style="font:bold 13.00px Times">
<text x="318.30" y="706.00">V</text>
</g>
<g stroke-width="0.70" style="font:bold 13.00px Times">
<text x="445.60" y="701.00">vi</text>
</g>
<g stroke-width="0.70" style="font:bold 13.00px Times">
<text x="575.10" y="695.00">I</text>
<use x="22.00" y="728.60" xlink:href="#tclef"/>
<use x="37.00" y="710.60" xlink:href="#sh0"/>
<use x="55.00" y="722.60" xlink:href="#hd"/>
<circle class="fill" cx="62.70" cy="719.60" r="1.2"/>
<path d="M51.50 722.60v21.00" class="stroke"/>
<use x="107.80" y="719.60" xlink:href="#hd"/>
<path d="M104.30 719.60v21.00" class="stroke"/>
<path class="fill"
	d="M104.30 740.60c0.6 -5.6 9.6 -9 5.6 -18.4
	1.6 6 -1.3 11.6 -5.6 12.8
"/>
<use x="129.80" y="716.60" xlink:href="#Hd"/>
<path d="M126.30 716.60v21.00" class="stroke"/>
<use x="195.10" y="725.60" xlink:href="#hd"/>
<path d="M198.60 725.60v-21.00" class="stroke"/>
<use x="226.00" y="731.60" xlink:href="#hd"/>
<path d="M229.50 731.60v-21.00" class="stroke"/>
<use x="256.90" y="728.60" xlink:href="#hd"/>
<path d="M260.40 728.60v-21.00" class="stroke"/>
<use x="287.80" y="734.60" xlink:href="#hd"/>
<path d="M291.30 734.60v-21.00" class="stroke"/>
<use x="322.20" y="737.60" xlink:href="#hd"/>
<path d="M325.70 737.60v-21.00" class="stroke"/>
<use x="353.20" y="737.60" xlink:href="#hd"/>
<path d="M356.70 737.60v-21.00" class="stroke"/>
<use x="384.10" y="722.60" xlink:href="#r4"/>
<use x="415.00" y="737.60" xlink:href="#hd"/>
<path d="M418.50 737.60v-21.00" class="stroke"/>
<use x="449.90" y="728.60" xlink:href="#Hd"/>
<path d="M453.40 728.60v-21.00" class="stroke"/>
<use x="511.70" y="725.60" xlink:href="#Hd"/>
<path d="M515.20 725.60v-21.00" class="stroke"/>
<use x="576.90" y="722.60" xlink:href="#hd"/>
<path d="M580.40 722.60v-21.00" class="stroke"/>
<use x="607.90" y="716.60" xlink:href="#Hd"/>
<path d="M604.40 716.60v21.00" class="stroke"/>
<use x="669.70" y="719.60" xlink:href="#hd"/>
<path d="M666.20 719.60v21.00" class="stroke"/>
<use x="22.00" y="774.60" xlink:href="#bclef"/>
<use x="37.00" y="774.60" xlink:href="#sh0"/>
<use x="55.00" y="792.60" xlink:href="#hd"/>
<path d="M58.50 792.60v-21.00" class="stroke"/>
<use x="85.90" y="786.60" xlink:href="#hd"/>
<path d="M89.40 786.60v-21.00" class="stroke"/>
<use x="129.80" y="780.60" xlink:href="#hd"/>
<path d="M133.30 780.60v-21.00" class="stroke"/>
<use x="160.70" y="786.60" xlink:href="#hd"/>
<path d="M164.20 786.60v-21.00" class="stroke"/>
<use x="195.10" y="789.60" xlink:href="#hd"/>
<path d="M198.60 789.60v-21.00" class="stroke"/>
<use x="226.00" y="783.60" xlink:href="#hd"/>
<path d="M229.50 783.60v-21.00" class="stroke"/>
<use x="256.90" y="777.60" xlink:href="#hd"/>
<path d="M253.40 777.60v21.00" class="stroke"/>
<use x="287.80" y="783.60" xlink:href="#hd"/>
<path d="M291.30 783.60v-21.00" class="stroke"/>
<use x="322.20" y="780.60" xlink:href="#hd"/>
<path d="M325.70 780.60v-21.00" class="stroke"/>
<use x="353.20" y="774.60" xlink:href="#hd"/>
<path d="M349.70 774.60v21.00" class="stroke"/>
<use x="384.10" y="768.60" xlink:href="#hd"/>
<path d="M380.60 768.60v21.00" class="stroke"/>
<use x="415.00" y="774.60" xlink:href="#hd"/>
<path d="M411.50 774.60v21.00" class="stroke"/>
<use x="449.90" y="777.60" xlink:href="#hd"/>
<path d="M446.40 777.60v21.00" class="stroke"/>
<use x="480.80" y="771.60" xlink:href="#hd"/>
<path d="M477.30 771.60v21.00" class="stroke"/>
<use x="511.70" y="765.60" xlink:href="#hd"/>
<path d="M508.20 765.60v21.00" class="stroke"/>
<use x="542.60" y="771.60" xlink:href="#hd"/>
<path d="M539.10 771.60v21.00" class="stroke"/>
<use x="576.90" y="792.60" xlink:href="#hd"/>
<path d="M580.40 792.60v-21.00" class="stroke"/>
<use x="607.90" y="786.60" xlink:href="#hd"/>
<path d="M611.40 786.60v-21.00" class="stroke"/>
<use x="638.80" y="780.60" xlink:href="#hd"/>
<path d="M642.30 780.60v-21.00" class="stroke"/>
<use x="669.70" y="786.60" xlink:href="#hd"/>
<path d="M673.20 786.60v-21.00" class="stroke"/>
</g>
<g stroke-width="0.70" style="font:bold 13.00px Times">
<path class="stroke" stroke-width="1"
	d="M10.00 923.00v-82.00"/>
<g transform="translate(10.00,841.00) scale(1,0.82)">
	<use xlink:href="#brace"/>
</g>
<path class="stroke" stroke-width="1"
	d="M170.40 865.00v-24.00"/>
<path class="stroke" stroke-width="1"
	d="M170.40 923.00v-24.00"/>
<path class="stroke" stroke-width="1"
	d="M298.00 865.00v-24.00"/>
<path class="stroke" stroke-width="1"
	d="M298.00 923.00v-24.00"/>
<path class="stroke" stroke-width="1"
	d="M425.90 865.00v-24.00"/>
<path class="stroke" stroke-width="1"
	d="M425.90 923.00v-24.00"/>
<path class="stroke" stroke-width="1"
	d="M563.60 865.00v-24.00"/>
<path class="stroke" stroke-width="1"
	d="M563.60 923.00v-24.00"/>
<path class="stroke" stroke-width="1"
	d="M691.60 865.00v-24.00"/>
<path class="stroke" stroke-width="1"
	d="M691.60 923.00v-24.00"/>
<path d="m10.00 865.00
	h681.60
	M10.00 859.00
	h681.60
	M10.00 853.00
	h681.60
	M10.00 847.00
	h681.60
	M10.00 841.00
	h681.60
	" class="stroke"/>
<path d="m10.00 923.00
	h681.60
	M10.00 917.00
	h681.60
	M10.00 911.00
	h681.60
	M10.00 905.00
	h681.60
	M10.00 899.00
	h681.60
	" class="stroke"/>
</g>
<g stroke-width="0.70" style="font:bold 13.00px Times">
<text x="53.70" y="836.40">I</text>
</g>
<g stroke-width="0.70" style="font:bold 13.00px Times">
<text x="177.20" y="836.40">IV</text>
</g>
<g stroke-width="0.70" style="font:bold 13.00px Times">
<text x="307.10" y="836.40">V</text>
</g>
<g stroke-width="0.70" style="font:bold 13.00px Times">
<text x="436.60" y="825.40">I</text>
</g>
<g stroke-width="0.70" style="font:bold 13.00px Times">
<text x="572.60" y="836.40">V</text>
<use x="22.00" y="859.00" xlink:href="#tclef"/>
<use x="37.00" y="841.00" xlink:href="#sh0"/>
<use x="55.50" y="853.00" xlink:href="#Hd"/>
<path d="M52.00 853.00v21.00" class="stroke"/>
<use x="117.50" y="856.00" xlink:href="#Hd"/>
<path d="M121.00 856.00v-21.00" class="stroke"/>
<use x="182.90" y="865.00" xlink:href="#hd"/>
<path d="M186.40 865.00v-21.00" class="stroke"/>
<use x="214.00" y="862.00" xlink:href="#hd"/>
<path d="M217.50 862.00v-21.00" class="stroke"/>
<use x="245.10" y="859.00" xlink:href="#Hd"/>
<path d="M248.60 859.00v-21.00" class="stroke"/>
<defs>
<rect id="r2" class="fill"
	x="-3.5" y="-3" width="7" height="3"/>
</defs>
<use x="311.00" y="853.00" xlink:href="#r2"/>
<use x="373.00" y="856.00" xlink:href="#Hd"/>
<path d="M376.50 856.00v-21.00" class="stroke"/>
<use x="438.40" y="853.00" xlink:href="#hd"/>
<path d="M441.90 853.00v-21.00" class="stroke"/>
<use x="469.40" y="856.00" xlink:href="#hd"/>
<path d="M472.90 856.00v-21.00" class="stroke"/>
<use x="500.40" y="859.00" xlink:href="#hd"/>
<circle class="fill" cx="508.10" cy="856.00" r="1.2"/>
<path d="M503.90 859.00v-21.00" class="stroke"/>
<path class="fill"
	d="M503.90 838.00c0.6 5.6 9.6 9 5.6 18.4
	1.6 -6 -1.3 -11.6 -5.6 -12.8
"/>
<use x="525.80" y="862.00" xlink:href="#hd"/>
<path d="M529.30 862.00v-22.00" class="stroke"/>
<path class="fill"
	d="M529.30 840.00c0.9 3.7 9.1 6.4 6 12.4
	1 -5.4 -4.2 -8.4 -6 -8.4
M529.30 845.40c0.9 3.7 9.1 6.4 6 12.4
	1 -5.4 -4.2 -8.4 -6 -8.4
"/>
<use x="541.60" y="865.00" xlink:href="#hd"/>
<path d="M545.10 865.00v-21.00" class="stroke"/>
<use x="576.60" y="868.00" xlink:href="#Hd"/>
<path d="M580.10 868.00v-21.00" class="stroke"/>
<use x="638.70" y="856.00" xlink:href="#Hd"/>
<path d="M642.20 856.00v-21.00" class="stroke"/>
<use x="22.00" y="905.00" xlink:href="#bclef"/>
<use x="37.00" y="905.00" xlink:href="#sh0"/>
<use x="55.50" y="923.00" xlink:href="#hd"/>
<path d="M59.00 923.00v-21.00" class="stroke"/>
<use x="86.50" y="917.00" xlink:href="#hd"/>
<path d="M90.00 917.00v-21.00" class="stroke"/>
<use x="117.50" y="911.00" xlink:href="#hd"/>
<path d="M121.00 911.00v-21.00" class="stroke"/>
<use x="148.50" y="917.00" xlink:href="#hd"/>
<path d="M152.00 917.00v-21.00" class="stroke"/>
<use x="182.90" y="914.00" xlink:href="#hd"/>
<path d="M186.40 914.00v-21.00" class="stroke"/>
<use x="214.00" y="908.00" xlink:href="#hd"/>
<path d="M210.50 908.00v21.00" class="stroke"/>
<use x="245.10" y="902.00" xlink:href="#hd"/>
<path d="M241.60 902.00v21.00" class="stroke"/>
<use x="276.10" y="908.00" xlink:href="#hd"/>
<path d="M272.60 908.00v21.00" class="stroke"/>
<use x="311.00" y="911.00" xlink:href="#hd"/>
<path d="M307.50 911.00v21.00" class="stroke"/>
<use x="342.00" y="905.00" xlink:href="#hd"/>
<path d="M338.50 905.00v21.00" class="stroke"/>
<use x="373.00" y="899.00" xlink:href="#hd"/>
<path d="M369.50 899.00v21.00" class="stroke"/>
<use x="404.00" y="905.00" xlink:href="#hd"/>
<path d="M400.50 905.00v21.00" class="stroke"/>
<use x="438.40" y="923.00" xlink:href="#hd"/>
<path d="M441.90 923.00v-21.00" class="stroke"/>
<use x="469.40" y="917.00" xlink:href="#hd"/>
<path d="M472.90 917.00v-21.00" class="stroke"/>
<use x="500.40" y="911.00" xlink:href="#hd"/>
<path d="M503.90 911.00v-21.00" class="stroke"/>
<use x="541.60" y="917.00" xlink:href="#hd"/>
<path d="M545.10 917.00v-21.00" class="stroke"/>
<use x="576.60" y="911.00" xlink:href="#hd"/>
<path d="M580.10 911.00v-21.00" class="stroke"/>
<use x="607.70" y="905.00" xlink:href="#hd"/>
<path d="M604.20 905.00v21.00" class="stroke"/>
<use x="638.70" y="899.00" xlink:href="#hd"/>
<path d="M635.20 899.00v21.00" class="stroke"/>
<use x="669.70" y="905.00" xlink:href="#hd"/>
<path d="M666.20 905.00v21.00" class="stroke"/>
</g>
<g stroke-width="0.70" style="font:bold 13.00px Times">
<path class="stroke" stroke-width="1"
	d="M10.00 1053.40v-82.00"/>
<g transform="translate(10.00,971.40) scale(1,0.82)">
	<use xlink:href="#brace"/>
</g>
<path class="stroke" stroke-width="1"
	d="M219.60 995.40v-24.00"/>
<path class="stroke" stroke-width="1"
	d="M219.60 1053.40v-24.00"/>
<path class="stroke" stroke-width="1"
	d="M381.80 995.40v-24.00"/>
<path class="stroke" stroke-width="1"
	d="M381.80 1053.40v-24.00"/>
<path d="m10.00 995.40
	h371.80
	M10.00 989.40
	h371.80
	M10.00 983.40
	h371.80
	M10.00 977.40
	h371.80
	M10.00 971.40
	h371.80
	" class="stroke"/>
<path d="m10.00 1053.40
	h371.80
	M10.00 1047.40
	h371.80
	M10.00 1041.40
	h371.80
	M10.00 1035.40
	h371.80
	M10.00 1029.40
	h371.80
	" class="stroke"/>
</g>
<g stroke-width="0.70" style="font:bold 13.00px Times">
<text x="50.40" y="955.80">iii</text>
</g>
<g stroke-width="0.70" style="font:bold 13.00px Times">
<text x="231.90" y="966.80">I</text>
<use x="22.00" y="989.40" xlink:href="#tclef"/>
<use x="37.00" y="971.40" xlink:href="#sh0"/>
<use x="55.00" y="983.40" xlink:href="#hd"/>
<path d="M58.50 983.40v-21.00" class="stroke"/>
<use x="95.00" y="986.40" xlink:href="#hd"/>
<path d="M98.50 986.40v-21.00" class="stroke"/>
<use x="135.00" y="989.40" xlink:href="#hd"/>
<path d="M138.50 989.40v-21.00" class="stroke"/>
<path class="fill"
	d="M138.50 968.40c0.6 5.6 9.6 9 5.6 18.4
	1.6 -6 -1.3 -11.6 -5.6 -12.8
"/>
<use x="163.30" y="995.40" xlink:href="#hd"/>
<path d="M166.80 995.40v-21.00" class="stroke"/>
<path class="fill"
	d="M166.80 974.40c0.6 5.6 9.6 9 5.6 18.4
	1.6 -6 -1.3 -11.6 -5.6 -12.8
"/>
<use x="191.60" y="992.40" xlink:href="#hd"/>
<path d="M195.10 992.40v-21.00" class="stroke"/>
<use x="234.80" y="989.40" xlink:href="#HD"/>
<use x="22.00" y="1035.40" xlink:href="#bclef"/>
<use x="37.00" y="1035.40" xlink:href="#sh0"/>
<use x="55.00" y="1047.40" xlink:href="#hd"/>
<path d="M58.50 1047.40v-21.00" class="stroke"/>
<use x="95.00" y="1041.40" xlink:href="#hd"/>
<path d="M98.50 1041.40v-21.00" class="stroke"/>
<use x="135.00" y="1035.40" xlink:href="#hd"/>
<path d="M131.50 1035.40v21.00" class="stroke"/>
<use x="191.60" y="1041.40" xlink:href="#hd"/>
<path d="M188.10 1041.40v21.00" class="stroke"/>
<use x="233.80" y="1053.40" xlink:href="#hd"/>
<path d="M237.30 1053.40v-21.00" class="stroke"/>
<use x="273.80" y="1047.40" xlink:href="#hd"/>
<path d="M277.30 1047.40v-21.00" class="stroke"/>
<use x="313.80" y="1041.40" xlink:href="#hd"/>
<path d="M317.30 1041.40v-21.00" class="stroke"/>
<use x="353.80" y="1047.40" xlink:href="#hd"/>
<path d="M357.30 1047.40v-21.00" class="stroke"/>
</g>
</svg>
