<?xml version="1.0" standalone="no"?>
<!DOCTYPE svg PUBLIC "-//W3C//DTD SVG 1.1//EN"
	"http://www.w3.org/Graphics/SVG/1.1/DTD/svg11.dtd">
<svg xmlns="http://www.w3.org/2000/svg" version="1.1"
	xmlns:xlink="http://www.w3.org/1999/xlink"
	color="black"
	width="701.60px" height="424.40px" viewBox="0 0 701.60 424.40" preserveAspectRatio="xMidYMid meet">
<style type="text/css">
.fill {fill: currentColor}
.stroke {stroke: currentColor; fill: none}
text{white-space: pre}
</style>
<title>/tmp/retab_hymnal_L3/for_the_beauty_of_the_earth.abc (1) tune 1</title>
<!-- Creator: abcm2ps-8.14.11 -->
<!-- CreationDate: Apr 24, 2026 15:38 -->
<!-- CommandLine: /tmp/retab_hymnal_L3/for_the_beauty_of_the_earth.abc -g -O /tmp/retab_hymnal_L3/for_the_beauty_of_the_earth -->
<g stroke-width="0.70">
<!-- title: 067. For The Beauty Of The Earth -->
</g>
<g stroke-width="0.70" style="font:20.00px Times">
<text x="350.80" y="22.00" text-anchor="middle">067. For The Beauty Of The Earth</text>
</g>
<g stroke-width="0.70" style="font:20.00px Times">
<path class="stroke" stroke-width="1"
	d="M10.00 143.00v-82.00"/>
<defs>
<path id="brace" class="fill" d="m-2.5 101
	c-4.5 -4.6 -7.5 -12.2 -4.4 -26.8
	3.5 -14.3 3.2 -21.7 -2.1 -24.2
	7.4 2.4 7.3 14.2 3.5 29.5
	-2.7 9.5 -1.5 16.2 3 21.5
	M-2.5 1c-4.5 4.6 -7.5 12.2 -4.4 26.8
	c3.5 14.3 3.2 21.7 -2.1 24.2
	7.4 -2.4 7.3 -14.2 3.5 -29.5
	-2.7 -9.5 -1.5 -16.2 3 -21.5"/>
</defs>
<g transform="translate(10.00,61.00) scale(1,0.82)">
	<use xlink:href="#brace"/>
</g>
<path class="stroke" stroke-width="1"
	d="M192.90 85.00v-24.00"/>
<path class="stroke" stroke-width="1"
	d="M192.90 143.00v-24.00"/>
<path class="stroke" stroke-width="1"
	d="M314.40 85.00v-24.00"/>
<path class="stroke" stroke-width="1"
	d="M314.40 143.00v-24.00"/>
<path class="stroke" stroke-width="1"
	d="M435.90 85.00v-24.00"/>
<path class="stroke" stroke-width="1"
	d="M435.90 143.00v-24.00"/>
<path class="stroke" stroke-width="1"
	d="M557.20 85.00v-24.00"/>
<path class="stroke" stroke-width="1"
	d="M557.20 143.00v-24.00"/>
<path class="stroke" stroke-width="1"
	d="M691.60 85.00v-24.00"/>
<path class="stroke" stroke-width="1"
	d="M691.60 143.00v-24.00"/>
<path d="m10.00 85.00
	h681.60
	M10.00 79.00
	h681.60
	M10.00 73.00
	h681.60
	M10.00 67.00
	h681.60
	M10.00 61.00
	h681.60
	" class="stroke"/>
<path d="m10.00 143.00
	h681.60
	M10.00 137.00
	h681.60
	M10.00 131.00
	h681.60
	M10.00 125.00
	h681.60
	M10.00 119.00
	h681.60
	" class="stroke"/>
</g>
<g stroke-width="0.70" style="font:bold 13.00px Times">
<text x="69.20" y="51.40">I</text>
</g>
<g stroke-width="0.70" style="font:bold 13.00px Times">
<text x="197.60" y="56.40">IV<tspan
	 style="font:italic 11.00px Times">¹</tspan></text>
</g>
<g stroke-width="0.70" style="font:bold 13.00px Times">
<text x="321.10" y="56.40">IV</text>
</g>
<g stroke-width="0.70" style="font:bold 13.00px Times">
<text x="444.60" y="54.40">I<tspan
	 style="font:italic 11.00px Times">²</tspan></text>
</g>
<g stroke-width="0.70" style="font:bold 13.00px Times">
<text x="567.90" y="51.40">I</text>
<defs>
<path id="utclef" class="fill" d="m-50 -90
	c-72 -41 -72 -158 52 -188
	150 -10 220 188 90 256
	-114 52 -275 0 -293 -136
	-15 -181 93 -229 220 -334
	88 -87 79 -133 62 -210
	-51 33 -94 105 -89 186
	17 267 36 374 49 574
	6 96 -19 134 -77 135
	-80 1 -126 -93 -61 -133
	85 -41 133 101 31 105
	23 17 92 37 90 -92
	-10 -223 -39 -342 -50 -617
	0 -90 0 -162 96 -232
	56 72 63 230 22 289
	-74 106 -257 168 -255 316
	9 153 148 185 252 133
	86 -65 29 -192 -80 -176
	-71 12 -105 67 -59 124"/>
<use id="tclef" transform="translate(0,6) scale(0.045)"
	xlink:href="#utclef"/>
</defs>
<use x="22.00" y="79.00" xlink:href="#tclef"/>
<defs>
<path id="usharp" class="fill" d="
	m136 -702
	v890
	h32
	v-890
	m128 840
	h32
	v-888
	h-32
	m-232 286
	v116
	l338 -96
	v-116
	m-338 442
	v116
	l338 -98
	v-114"/>
<use id="sh0" transform="translate(-4,5) scale(0.018)"
	xlink:href="#usharp"/>
</defs>
<use x="37.00" y="61.00" xlink:href="#sh0"/>
<g style="font:bold 16px serif"
	transform="translate(53.00,84.50) scale(1.2,1)">
	<text text-anchor="middle">4</text>
	<text y="-12" text-anchor="middle">4</text>
</g>
<defs>
<ellipse id="hd" rx="4.1" ry="2.9"
	transform="rotate(-20)" class="fill"/>
</defs>
<use x="71.00" y="79.00" xlink:href="#hd"/>
<path d="M74.50 79.00v-21.00" class="stroke"/>
<use x="100.30" y="82.00" xlink:href="#hd"/>
<path d="M103.80 82.00v-21.00" class="stroke"/>
<path class="fill"
	d="M103.80 61.00c0.6 5.6 9.6 9 5.6 18.4
	1.6 -6 -1.3 -11.6 -5.6 -12.8
"/>
<use x="121.50" y="79.00" xlink:href="#hd"/>
<path d="M125.00 79.00v-21.00" class="stroke"/>
<path class="fill"
	d="M125.00 58.00c0.6 5.6 9.6 9 5.6 18.4
	1.6 -6 -1.3 -11.6 -5.6 -12.8
"/>
<use x="142.70" y="76.00" xlink:href="#hd"/>
<path d="M146.20 76.00v-21.00" class="stroke"/>
<use x="172.00" y="79.00" xlink:href="#hd"/>
<path d="M175.50 79.00v-21.00" class="stroke"/>
<use x="205.40" y="70.00" xlink:href="#hd"/>
<path d="M201.90 70.00v21.00" class="stroke"/>
<use x="234.80" y="70.00" xlink:href="#hd"/>
<path d="M231.30 70.00v21.00" class="stroke"/>
<defs>
<path id="Hd" class="fill" d="m3 -1.6
	c-1 -1.8 -7 1.4 -6 3.2
	1 1.8 7 -1.4 6 -3.2
	m0.5 -0.3
	c2 3.8 -5 7.6 -7 3.8
	-2 -3.8 5 -7.6 7 -3.8"/>
</defs>
<use x="264.20" y="73.00" xlink:href="#Hd"/>
<path d="M260.70 73.00v21.00" class="stroke"/>
<use x="326.90" y="85.00" xlink:href="#hd"/>
<path d="M330.40 85.00v-21.00" class="stroke"/>
<use x="356.30" y="82.00" xlink:href="#hd"/>
<path d="M359.80 82.00v-21.00" class="stroke"/>
<use x="385.70" y="79.00" xlink:href="#hd"/>
<path d="M389.20 79.00v-21.00" class="stroke"/>
<use x="415.00" y="85.00" xlink:href="#hd"/>
<path d="M418.50 85.00v-21.00" class="stroke"/>
<use x="448.40" y="88.00" xlink:href="#hd"/>
<path d="M451.90 88.00v-21.00" class="stroke"/>
<use x="477.70" y="88.00" xlink:href="#hd"/>
<path d="M481.20 88.00v-21.00" class="stroke"/>
<use x="507.00" y="88.00" xlink:href="#Hd"/>
<path d="M510.50 88.00v-21.00" class="stroke"/>
<use x="569.70" y="79.00" xlink:href="#hd"/>
<path d="M573.20 79.00v-21.00" class="stroke"/>
<use x="599.10" y="82.00" xlink:href="#hd"/>
<path d="M602.60 82.00v-21.00" class="stroke"/>
<path class="fill"
	d="M602.60 61.00c0.6 5.6 9.6 9 5.6 18.4
	1.6 -6 -1.3 -11.6 -5.6 -12.8
"/>
<use x="620.20" y="79.00" xlink:href="#hd"/>
<path d="M623.70 79.00v-21.00" class="stroke"/>
<path class="fill"
	d="M623.70 58.00c0.6 5.6 9.6 9 5.6 18.4
	1.6 -6 -1.3 -11.6 -5.6 -12.8
"/>
<use x="641.40" y="76.00" xlink:href="#hd"/>
<path d="M644.90 76.00v-21.00" class="stroke"/>
<use x="670.70" y="79.00" xlink:href="#hd"/>
<path d="M674.20 79.00v-21.00" class="stroke"/>
<defs>
<path id="ubclef" class="fill" d="m-200 -87
	c124 -35 222 -78 254 -236
	43 -228 -167 -246 -192 -103
	59 -80 157 22 92 78
	-62 47 -115 -22 -106 -88
	21 -141 270 -136 274 52
	-1 175 -106 264 -322 297
	m357 -250
	c0 -36 51 -34 51 0
	0 37 -51 36 -51 0
	m-2 -129
	c0 -36 51 -34 51 0
	0 38 -51 37 -51 0"/>
<use id="bclef" transform="translate(0,18) scale(0.045)"
	xlink:href="#ubclef"/>
</defs>
<use x="22.00" y="125.00" xlink:href="#bclef"/>
<use x="37.00" y="125.00" xlink:href="#sh0"/>
<g style="font:bold 16px serif"
	transform="translate(53.00,142.50) scale(1.2,1)">
	<text text-anchor="middle">4</text>
	<text y="-12" text-anchor="middle">4</text>
</g>
<use x="71.00" y="143.00" xlink:href="#hd"/>
<path d="M74.50 143.00v-21.00" class="stroke"/>
<use x="100.30" y="137.00" xlink:href="#hd"/>
<path d="M103.80 137.00v-21.00" class="stroke"/>
<use x="142.70" y="131.00" xlink:href="#hd"/>
<path d="M146.20 131.00v-21.00" class="stroke"/>
<use x="172.00" y="137.00" xlink:href="#hd"/>
<path d="M175.50 137.00v-21.00" class="stroke"/>
<use x="205.40" y="134.00" xlink:href="#hd"/>
<path d="M208.90 134.00v-21.00" class="stroke"/>
<use x="234.80" y="128.00" xlink:href="#hd"/>
<path d="M231.30 128.00v21.00" class="stroke"/>
<use x="264.20" y="122.00" xlink:href="#hd"/>
<path d="M260.70 122.00v21.00" class="stroke"/>
<use x="293.50" y="128.00" xlink:href="#hd"/>
<path d="M290.00 128.00v21.00" class="stroke"/>
<use x="326.90" y="134.00" xlink:href="#hd"/>
<path d="M330.40 134.00v-21.00" class="stroke"/>
<use x="356.30" y="128.00" xlink:href="#hd"/>
<path d="M352.80 128.00v21.00" class="stroke"/>
<use x="385.70" y="122.00" xlink:href="#hd"/>
<path d="M382.20 122.00v21.00" class="stroke"/>
<use x="415.00" y="128.00" xlink:href="#hd"/>
<path d="M411.50 128.00v21.00" class="stroke"/>
<use x="448.40" y="143.00" xlink:href="#hd"/>
<path d="M451.90 143.00v-21.00" class="stroke"/>
<use x="477.70" y="137.00" xlink:href="#hd"/>
<path d="M481.20 137.00v-21.00" class="stroke"/>
<use x="507.00" y="131.00" xlink:href="#hd"/>
<path d="M510.50 131.00v-21.00" class="stroke"/>
<use x="536.30" y="137.00" xlink:href="#hd"/>
<path d="M539.80 137.00v-21.00" class="stroke"/>
<use x="569.70" y="143.00" xlink:href="#hd"/>
<path d="M573.20 143.00v-21.00" class="stroke"/>
<use x="599.10" y="137.00" xlink:href="#hd"/>
<path d="M602.60 137.00v-21.00" class="stroke"/>
<use x="641.40" y="131.00" xlink:href="#hd"/>
<path d="M644.90 131.00v-21.00" class="stroke"/>
<use x="670.70" y="137.00" xlink:href="#hd"/>
<path d="M674.20 137.00v-21.00" class="stroke"/>
</g>
<g stroke-width="0.70" style="font:bold 13.00px Times">
<path class="stroke" stroke-width="1"
	d="M10.00 273.40v-82.00"/>
<g transform="translate(10.00,191.40) scale(1,0.82)">
	<use xlink:href="#brace"/>
</g>
<path class="stroke" stroke-width="1"
	d="M169.80 215.40v-24.00"/>
<path class="stroke" stroke-width="1"
	d="M169.80 273.40v-24.00"/>
<path class="stroke" stroke-width="1"
	d="M297.10 215.40v-24.00"/>
<path class="stroke" stroke-width="1"
	d="M297.10 273.40v-24.00"/>
<path class="stroke" stroke-width="1"
	d="M424.30 215.40v-24.00"/>
<path class="stroke" stroke-width="1"
	d="M424.30 273.40v-24.00"/>
<path class="stroke" stroke-width="1"
	d="M551.40 215.40v-24.00"/>
<path class="stroke" stroke-width="1"
	d="M551.40 273.40v-24.00"/>
<path class="stroke" stroke-width="1"
	d="M691.60 215.40v-24.00"/>
<path class="stroke" stroke-width="1"
	d="M691.60 273.40v-24.00"/>
<path d="m10.00 215.40
	h681.60
	M10.00 209.40
	h681.60
	M10.00 203.40
	h681.60
	M10.00 197.40
	h681.60
	M10.00 191.40
	h681.60
	" class="stroke"/>
<path d="m10.00 273.40
	h681.60
	M10.00 267.40
	h681.60
	M10.00 261.40
	h681.60
	M10.00 255.40
	h681.60
	M10.00 249.40
	h681.60
	" class="stroke"/>
</g>
<g stroke-width="0.70" style="font:bold 13.00px Times">
<text x="47.30" y="186.80">IV<tspan
	 style="font:italic 11.00px Times">¹</tspan></text>
</g>
<g stroke-width="0.70" style="font:bold 13.00px Times">
<text x="176.50" y="184.80">IV</text>
</g>
<g stroke-width="0.70" style="font:bold 13.00px Times">
<text x="305.80" y="184.80">I<tspan
	 style="font:italic 11.00px Times">²</tspan></text>
</g>
<g stroke-width="0.70" style="font:bold 13.00px Times">
<text x="434.90" y="175.80">I</text>
</g>
<g stroke-width="0.70" style="font:bold 13.00px Times">
<text x="558.00" y="184.80">V<tspan
	 style="font:italic 11.00px Times">¹</tspan></text>
</g>
<g stroke-width="0.70" style="font:italic 11.00px Times">
<use x="22.00" y="209.40" xlink:href="#tclef"/>
<use x="37.00" y="191.40" xlink:href="#sh0"/>
<use x="55.00" y="200.40" xlink:href="#hd"/>
<path d="M51.50 200.40v21.00" class="stroke"/>
<use x="86.00" y="200.40" xlink:href="#hd"/>
<path d="M82.50 200.40v21.00" class="stroke"/>
<use x="117.00" y="203.40" xlink:href="#Hd"/>
<path d="M113.50 203.40v21.00" class="stroke"/>
<use x="182.30" y="215.40" xlink:href="#hd"/>
<path d="M185.80 215.40v-21.00" class="stroke"/>
<use x="213.30" y="212.40" xlink:href="#hd"/>
<path d="M216.80 212.40v-21.00" class="stroke"/>
<use x="244.20" y="209.40" xlink:href="#hd"/>
<path d="M247.70 209.40v-21.00" class="stroke"/>
<use x="275.20" y="215.40" xlink:href="#hd"/>
<path d="M278.70 215.40v-21.00" class="stroke"/>
<use x="309.60" y="218.40" xlink:href="#hd"/>
<path d="M313.10 218.40v-21.00" class="stroke"/>
<use x="340.50" y="218.40" xlink:href="#hd"/>
<path d="M344.00 218.40v-21.00" class="stroke"/>
<use x="371.40" y="218.40" xlink:href="#Hd"/>
<path d="M374.90 218.40v-21.00" class="stroke"/>
<use x="436.80" y="203.40" xlink:href="#hd"/>
<path d="M440.30 203.40v-21.00" class="stroke"/>
<use x="467.70" y="206.40" xlink:href="#hd"/>
<path d="M471.20 206.40v-21.00" class="stroke"/>
<use x="498.60" y="209.40" xlink:href="#hd"/>
<path d="M502.10 209.40v-21.00" class="stroke"/>
<use x="529.50" y="203.40" xlink:href="#hd"/>
<path d="M533.00 203.40v-21.00" class="stroke"/>
<use x="563.90" y="197.40" xlink:href="#hd"/>
<circle class="fill" cx="571.60" cy="194.40" r="1.2"/>
<path d="M560.40 197.40v21.00" class="stroke"/>
<use x="616.80" y="200.40" xlink:href="#hd"/>
<path d="M613.30 200.40v21.00" class="stroke"/>
<path class="fill"
	d="M613.30 221.40c0.6 -5.6 9.6 -9 5.6 -18.4
	1.6 6 -1.3 11.6 -5.6 12.8
"/>
<use x="638.80" y="203.40" xlink:href="#Hd"/>
<path d="M635.30 203.40v21.00" class="stroke"/>
<use x="22.00" y="255.40" xlink:href="#bclef"/>
<use x="37.00" y="255.40" xlink:href="#sh0"/>
<use x="55.00" y="264.40" xlink:href="#hd"/>
<path d="M58.50 264.40v-21.00" class="stroke"/>
<use x="86.00" y="258.40" xlink:href="#hd"/>
<path d="M82.50 258.40v21.00" class="stroke"/>
<use x="117.00" y="252.40" xlink:href="#hd"/>
<path d="M113.50 252.40v21.00" class="stroke"/>
<use x="147.90" y="258.40" xlink:href="#hd"/>
<path d="M144.40 258.40v21.00" class="stroke"/>
<use x="182.30" y="264.40" xlink:href="#hd"/>
<path d="M185.80 264.40v-21.00" class="stroke"/>
<use x="213.30" y="258.40" xlink:href="#hd"/>
<path d="M209.80 258.40v21.00" class="stroke"/>
<use x="244.20" y="252.40" xlink:href="#hd"/>
<path d="M240.70 252.40v21.00" class="stroke"/>
<use x="275.20" y="258.40" xlink:href="#hd"/>
<path d="M271.70 258.40v21.00" class="stroke"/>
<use x="309.60" y="273.40" xlink:href="#hd"/>
<path d="M313.10 273.40v-21.00" class="stroke"/>
<use x="340.50" y="267.40" xlink:href="#hd"/>
<path d="M344.00 267.40v-21.00" class="stroke"/>
<use x="371.40" y="261.40" xlink:href="#hd"/>
<path d="M374.90 261.40v-21.00" class="stroke"/>
<use x="402.40" y="267.40" xlink:href="#hd"/>
<path d="M405.90 267.40v-21.00" class="stroke"/>
<use x="436.80" y="273.40" xlink:href="#hd"/>
<path d="M440.30 273.40v-21.00" class="stroke"/>
<use x="467.70" y="267.40" xlink:href="#hd"/>
<path d="M471.20 267.40v-21.00" class="stroke"/>
<use x="498.60" y="261.40" xlink:href="#hd"/>
<path d="M502.10 261.40v-21.00" class="stroke"/>
<use x="529.50" y="267.40" xlink:href="#hd"/>
<path d="M533.00 267.40v-21.00" class="stroke"/>
<use x="563.90" y="261.40" xlink:href="#hd"/>
<path d="M567.40 261.40v-21.00" class="stroke"/>
<use x="595.00" y="255.40" xlink:href="#hd"/>
<path d="M591.50 255.40v21.00" class="stroke"/>
<use x="638.80" y="249.40" xlink:href="#hd"/>
<path d="M635.30 249.40v21.00" class="stroke"/>
<use x="669.70" y="255.40" xlink:href="#hd"/>
<path d="M666.20 255.40v21.00" class="stroke"/>
</g>
<g stroke-width="0.70" style="font:italic 11.00px Times">
<path class="stroke" stroke-width="1"
	d="M10.00 401.40v-82.00"/>
<g transform="translate(10.00,319.40) scale(1,0.82)">
	<use xlink:href="#brace"/>
</g>
<path class="stroke" stroke-width="1"
	d="M203.00 343.40v-24.00"/>
<path class="stroke" stroke-width="1"
	d="M203.00 401.40v-24.00"/>
<path class="stroke" stroke-width="1"
	d="M365.10 343.40v-24.00"/>
<path class="stroke" stroke-width="1"
	d="M365.10 401.40v-24.00"/>
<path d="m10.00 343.40
	h355.10
	M10.00 337.40
	h355.10
	M10.00 331.40
	h355.10
	M10.00 325.40
	h355.10
	M10.00 319.40
	h355.10
	" class="stroke"/>
<path d="m10.00 401.40
	h355.10
	M10.00 395.40
	h355.10
	M10.00 389.40
	h355.10
	M10.00 383.40
	h355.10
	M10.00 377.40
	h355.10
	" class="stroke"/>
</g>
<g stroke-width="0.70" style="font:bold 13.00px Times">
<text x="49.20" y="314.80">IV</text>
</g>
<g stroke-width="0.70" style="font:bold 13.00px Times">
<text x="215.30" y="314.80">I</text>
<use x="22.00" y="337.40" xlink:href="#tclef"/>
<use x="37.00" y="319.40" xlink:href="#sh0"/>
<use x="55.00" y="343.40" xlink:href="#hd"/>
<path d="M58.50 343.40v-21.00" class="stroke"/>
<use x="95.00" y="340.40" xlink:href="#hd"/>
<path d="M98.50 340.40v-21.00" class="stroke"/>
<use x="135.00" y="337.40" xlink:href="#hd"/>
<path d="M138.50 337.40v-21.00" class="stroke"/>
<use x="175.00" y="328.40" xlink:href="#hd"/>
<path d="M171.50 328.40v21.00" class="stroke"/>
<use x="217.10" y="331.40" xlink:href="#hd"/>
<path d="M213.60 331.40v21.00" class="stroke"/>
<use x="257.10" y="334.40" xlink:href="#hd"/>
<path d="M260.60 334.40v-21.00" class="stroke"/>
<use x="297.10" y="337.40" xlink:href="#Hd"/>
<path d="M300.60 337.40v-21.00" class="stroke"/>
<use x="22.00" y="383.40" xlink:href="#bclef"/>
<use x="37.00" y="383.40" xlink:href="#sh0"/>
<use x="55.00" y="392.40" xlink:href="#hd"/>
<path d="M58.50 392.40v-21.00" class="stroke"/>
<use x="95.00" y="386.40" xlink:href="#hd"/>
<path d="M91.50 386.40v21.00" class="stroke"/>
<use x="135.00" y="380.40" xlink:href="#hd"/>
<path d="M131.50 380.40v21.00" class="stroke"/>
<use x="175.00" y="386.40" xlink:href="#hd"/>
<path d="M171.50 386.40v21.00" class="stroke"/>
<use x="217.10" y="401.40" xlink:href="#hd"/>
<path d="M220.60 401.40v-21.00" class="stroke"/>
<use x="257.10" y="395.40" xlink:href="#hd"/>
<path d="M260.60 395.40v-21.00" class="stroke"/>
<use x="297.10" y="389.40" xlink:href="#hd"/>
<path d="M300.60 389.40v-21.00" class="stroke"/>
<use x="337.10" y="395.40" xlink:href="#hd"/>
<path d="M340.60 395.40v-21.00" class="stroke"/>
</g>
</svg>
