<?xml version="1.0" standalone="no"?>
<!DOCTYPE svg PUBLIC "-//W3C//DTD SVG 1.1//EN"
	"http://www.w3.org/Graphics/SVG/1.1/DTD/svg11.dtd">
<svg xmlns="http://www.w3.org/2000/svg" version="1.1"
	xmlns:xlink="http://www.w3.org/1999/xlink"
	color="black"
	width="701.60px" height="296.40px" viewBox="0 0 701.60 296.40" preserveAspectRatio="xMidYMid meet">
<style type="text/css">
.fill {fill: currentColor}
.stroke {stroke: currentColor; fill: none}
text{white-space: pre}
</style>
<title>/tmp/retab_hymnal_L3/from_heaven_above_to_earth_i_come.abc (1) tune 1</title>
<!-- Creator: abcm2ps-8.14.11 -->
<!-- CreationDate: Apr 24, 2026 15:38 -->
<!-- CommandLine: /tmp/retab_hymnal_L3/from_heaven_above_to_earth_i_come.abc -g -O /tmp/retab_hymnal_L3/from_heaven_above_to_earth_i_come -->
<g stroke-width="0.70">
<!-- title: 068. From Heaven Above To Earth I Come -->
</g>
<g stroke-width="0.70" style="font:20.00px Times">
<text x="350.80" y="22.00" text-anchor="middle">068. From Heaven Above To Earth I Come</text>
</g>
<g stroke-width="0.70" style="font:20.00px Times">
<path class="stroke" stroke-width="1"
	d="M10.00 145.40v-82.00"/>
<defs>
<path id="brace" class="fill" d="m-2.5 101
	c-4.5 -4.6 -7.5 -12.2 -4.4 -26.8
	3.5 -14.3 3.2 -21.7 -2.1 -24.2
	7.4 2.4 7.3 14.2 3.5 29.5
	-2.7 9.5 -1.5 16.2 3 21.5
	M-2.5 1c-4.5 4.6 -7.5 12.2 -4.4 26.8
	c3.5 14.3 3.2 21.7 -2.1 24.2
	7.4 -2.4 7.3 -14.2 3.5 -29.5
	-2.7 -9.5 -1.5 -16.2 3 -21.5"/>
</defs>
<g transform="translate(10.00,63.40) scale(1,0.82)">
	<use xlink:href="#brace"/>
</g>
<path class="stroke" stroke-width="1"
	d="M185.90 87.40v-24.00"/>
<path class="stroke" stroke-width="1"
	d="M185.90 145.40v-24.00"/>
<path class="stroke" stroke-width="1"
	d="M273.50 87.40v-24.00"/>
<path class="stroke" stroke-width="1"
	d="M273.50 145.40v-24.00"/>
<path class="stroke" stroke-width="1"
	d="M395.40 87.40v-24.00"/>
<path class="stroke" stroke-width="1"
	d="M395.40 145.40v-24.00"/>
<path class="stroke" stroke-width="1"
	d="M482.50 87.40v-24.00"/>
<path class="stroke" stroke-width="1"
	d="M482.50 145.40v-24.00"/>
<path class="stroke" stroke-width="1"
	d="M606.40 87.40v-24.00"/>
<path class="stroke" stroke-width="1"
	d="M606.40 145.40v-24.00"/>
<path class="stroke" stroke-width="1"
	d="M691.60 87.40v-24.00"/>
<path class="stroke" stroke-width="1"
	d="M691.60 145.40v-24.00"/>
<path d="m10.00 87.40
	h681.60
	M10.00 81.40
	h681.60
	M10.00 75.40
	h681.60
	M10.00 69.40
	h681.60
	M10.00 63.40
	h681.60
	" class="stroke"/>
<path d="m10.00 145.40
	h681.60
	M10.00 139.40
	h681.60
	M10.00 133.40
	h681.60
	M10.00 127.40
	h681.60
	M10.00 121.40
	h681.60
	" class="stroke"/>
</g>
<g stroke-width="0.70" style="font:bold 13.00px Times">
<text x="76.20" y="58.80">I</text>
</g>
<g stroke-width="0.70" style="font:bold 13.00px Times">
<text x="197.00" y="47.80">I</text>
</g>
<g stroke-width="0.70" style="font:bold 13.00px Times">
<text x="281.30" y="58.80">vi<tspan
	 style="font:italic 11.00px Times">⁷</tspan></text>
</g>
<g stroke-width="0.70" style="font:bold 13.00px Times">
<text x="406.60" y="50.80">I</text>
</g>
<g stroke-width="0.70" style="font:bold 13.00px Times">
<text x="490.80" y="47.80">IV</text>
</g>
<g stroke-width="0.70" style="font:bold 13.00px Times">
<text x="613.20" y="58.80">vi<tspan
	 style="font:italic 11.00px Times">⁷</tspan></text>
</g>
<g stroke-width="0.70" style="font:italic 11.00px Times">
<defs>
<path id="utclef" class="fill" d="m-50 -90
	c-72 -41 -72 -158 52 -188
	150 -10 220 188 90 256
	-114 52 -275 0 -293 -136
	-15 -181 93 -229 220 -334
	88 -87 79 -133 62 -210
	-51 33 -94 105 -89 186
	17 267 36 374 49 574
	6 96 -19 134 -77 135
	-80 1 -126 -93 -61 -133
	85 -41 133 101 31 105
	23 17 92 37 90 -92
	-10 -223 -39 -342 -50 -617
	0 -90 0 -162 96 -232
	56 72 63 230 22 289
	-74 106 -257 168 -255 316
	9 153 148 185 252 133
	86 -65 29 -192 -80 -176
	-71 12 -105 67 -59 124"/>
<use id="tclef" transform="translate(0,6) scale(0.045)"
	xlink:href="#utclef"/>
</defs>
<use x="22.00" y="81.40" xlink:href="#tclef"/>
<defs>
<path id="usharp" class="fill" d="
	m136 -702
	v890
	h32
	v-890
	m128 840
	h32
	v-888
	h-32
	m-232 286
	v116
	l338 -96
	v-116
	m-338 442
	v116
	l338 -98
	v-114"/>
<use id="sh0" transform="translate(-4,5) scale(0.018)"
	xlink:href="#usharp"/>
</defs>
<use x="37.00" y="63.40" xlink:href="#sh0"/>
<use x="42.50" y="72.40" xlink:href="#sh0"/>
<g style="font:bold 16px serif"
	transform="translate(58.50,86.90) scale(1.2,1)">
	<text text-anchor="middle">4</text>
	<text y="-12" text-anchor="middle">4</text>
</g>
<defs>
<ellipse id="hd" rx="4.1" ry="2.9"
	transform="rotate(-20)" class="fill"/>
</defs>
<use x="78.00" y="69.40" xlink:href="#hd"/>
<path d="M74.50 69.40v21.00" class="stroke"/>
<path class="fill"
	d="M74.50 90.40c0.6 -5.6 9.6 -9 5.6 -18.4
	1.6 6 -1.3 11.6 -5.6 12.8
"/>
<use x="93.50" y="72.40" xlink:href="#hd"/>
<path d="M90.00 72.40v21.00" class="stroke"/>
<use x="114.70" y="75.40" xlink:href="#hd"/>
<path d="M111.20 75.40v21.00" class="stroke"/>
<use x="135.90" y="72.40" xlink:href="#hd"/>
<path d="M132.40 72.40v21.00" class="stroke"/>
<use x="155.20" y="78.40" xlink:href="#hd"/>
<path d="M158.70 78.40v-21.00" class="stroke"/>
<use x="198.90" y="75.40" xlink:href="#hd"/>
<path d="M202.40 75.40v-21.00" class="stroke"/>
<use x="220.60" y="72.40" xlink:href="#hd"/>
<path d="M217.10 72.40v21.00" class="stroke"/>
<use x="241.80" y="69.40" xlink:href="#hd"/>
<path d="M238.30 69.40v21.00" class="stroke"/>
<defs>
<path id="r8e" class="fill" d="m 0 0
	c-1.5 1.5 -2.4 2 -3.6 2
	2.4 -2.8 -2.8 -4 -2.8 -1.2
	c0 2.7 4.3 2.4 5.9 0.6"/>
<g id="r8">
	<path d="m3.3 -4l-3.4 9.6" class="stroke"/>
	<use x="3.4" y="-4" xlink:href="#r8e"/>
</g>
</defs>
<use x="261.00" y="75.40" xlink:href="#r8"/>
<use x="287.50" y="69.40" xlink:href="#hd"/>
<path d="M284.00 69.40v21.00" class="stroke"/>
<path class="fill"
	d="M284.00 90.40c0.6 -5.6 9.6 -9 5.6 -18.4
	1.6 6 -1.3 11.6 -5.6 12.8
"/>
<use x="303.10" y="69.40" xlink:href="#hd"/>
<path d="M299.60 69.40v21.00" class="stroke"/>
<use x="322.30" y="78.40" xlink:href="#hd"/>
<path d="M325.80 78.40v-21.00" class="stroke"/>
<use x="343.50" y="78.40" xlink:href="#hd"/>
<path d="M347.00 78.40v-21.00" class="stroke"/>
<use x="364.70" y="84.40" xlink:href="#hd"/>
<path d="M368.20 84.40v-21.00" class="stroke"/>
<use x="408.40" y="78.40" xlink:href="#hd"/>
<path d="M411.90 78.40v-21.00" class="stroke"/>
<use x="429.60" y="81.40" xlink:href="#hd"/>
<path d="M433.10 81.40v-21.00" class="stroke"/>
<use x="450.80" y="84.40" xlink:href="#hd"/>
<path d="M454.30 84.40v-21.00" class="stroke"/>
<use x="470.00" y="75.40" xlink:href="#r8"/>
<use x="496.50" y="84.40" xlink:href="#hd"/>
<path d="M500.00 84.40v-21.00" class="stroke"/>
<path class="fill"
	d="M500.00 63.40c0.6 5.6 9.6 9 5.6 18.4
	1.6 -6 -1.3 -11.6 -5.6 -12.8
"/>
<use x="513.00" y="75.40" xlink:href="#hd"/>
<path d="M516.50 75.40v-21.00" class="stroke"/>
<use x="534.20" y="75.40" xlink:href="#hd"/>
<path d="M537.70 75.40v-21.00" class="stroke"/>
<use x="555.40" y="78.40" xlink:href="#hd"/>
<path d="M558.90 78.40v-21.00" class="stroke"/>
<use x="577.10" y="72.40" xlink:href="#hd"/>
<path d="M573.60 72.40v21.00" class="stroke"/>
<use x="619.40" y="69.40" xlink:href="#hd"/>
<path d="M615.90 69.40v21.00" class="stroke"/>
<use x="640.60" y="75.40" xlink:href="#hd"/>
<path d="M637.10 75.40v21.00" class="stroke"/>
<use x="659.80" y="78.40" xlink:href="#hd"/>
<path d="M663.30 78.40v-21.00" class="stroke"/>
<use x="679.10" y="75.40" xlink:href="#r8"/>
<defs>
<path id="ubclef" class="fill" d="m-200 -87
	c124 -35 222 -78 254 -236
	43 -228 -167 -246 -192 -103
	59 -80 157 22 92 78
	-62 47 -115 -22 -106 -88
	21 -141 270 -136 274 52
	-1 175 -106 264 -322 297
	m357 -250
	c0 -36 51 -34 51 0
	0 37 -51 36 -51 0
	m-2 -129
	c0 -36 51 -34 51 0
	0 38 -51 37 -51 0"/>
<use id="bclef" transform="translate(0,18) scale(0.045)"
	xlink:href="#ubclef"/>
</defs>
<use x="22.00" y="127.40" xlink:href="#bclef"/>
<use x="37.00" y="127.40" xlink:href="#sh0"/>
<use x="42.50" y="136.40" xlink:href="#sh0"/>
<g style="font:bold 16px serif"
	transform="translate(58.50,144.90) scale(1.2,1)">
	<text text-anchor="middle">4</text>
	<text y="-12" text-anchor="middle">4</text>
</g>
<defs>
<path id="hl1" class="stroke" d="m-7 0h14"/>
</defs>
<use x="79.00" y="151.40" xlink:href="#hl1"/>
<defs>
<path id="HD" class="fill" d="m-2.7 -1.4
	c1.5 -2.8 6.9 0 5.3 2.7
	-1.5 2.8 -6.9 0 -5.3 -2.7
	m8.3 1.4
	c0 -1.5 -2.2 -3 -5.6 -3
	-3.4 0 -5.6 1.5 -5.6 3
	0 1.5 2.2 3 5.6 3
	3.4 0 5.6 -1.5 5.6 -3"/>
</defs>
<use x="79.00" y="154.40" xlink:href="#HD"/>
<use x="79.00" y="148.40" xlink:href="#HD"/>
<use x="79.00" y="142.40" xlink:href="#HD"/>
<defs>
<path id="hl" class="stroke" d="m-6 0h12"/>
</defs>
<use x="168.90" y="151.40" xlink:href="#hl"/>
<use x="168.90" y="154.40" xlink:href="#hd"/>
<path d="M172.40 154.40v-31.00" class="stroke"/>
<path class="fill"
	d="M172.40 123.40c0.6 5.6 9.6 9 5.6 18.4
	1.6 -6 -1.3 -11.6 -5.6 -12.8
"/>
<use x="168.90" y="148.40" xlink:href="#hd"/>
<use x="168.90" y="142.40" xlink:href="#hd"/>
<use x="198.90" y="151.40" xlink:href="#hl"/>
<defs>
<path id="Hd" class="fill" d="m3 -1.6
	c-1 -1.8 -7 1.4 -6 3.2
	1 1.8 7 -1.4 6 -3.2
	m0.5 -0.3
	c2 3.8 -5 7.6 -7 3.8
	-2 -3.8 5 -7.6 7 -3.8"/>
</defs>
<use x="198.90" y="154.40" xlink:href="#Hd"/>
<circle class="fill" cx="207.60" cy="154.40" r="1.2"/>
<circle class="fill" cx="211.10" cy="154.40" r="1.2"/>
<path d="M202.40 154.40v-31.00" class="stroke"/>
<use x="198.90" y="148.40" xlink:href="#Hd"/>
<circle class="fill" cx="207.60" cy="148.40" r="1.2"/>
<circle class="fill" cx="211.10" cy="148.40" r="1.2"/>
<use x="198.90" y="142.40" xlink:href="#Hd"/>
<circle class="fill" cx="207.60" cy="142.40" r="1.2"/>
<circle class="fill" cx="211.10" cy="142.40" r="1.2"/>
<use x="288.50" y="139.40" xlink:href="#HD"/>
<use x="288.50" y="133.40" xlink:href="#HD"/>
<use x="288.50" y="127.40" xlink:href="#HD"/>
<use x="378.40" y="139.40" xlink:href="#hd"/>
<path d="M381.90 139.40v-31.00" class="stroke"/>
<path class="fill"
	d="M381.90 108.40c0.6 5.6 9.6 9 5.6 18.4
	1.6 -6 -1.3 -11.6 -5.6 -12.8
"/>
<use x="378.40" y="133.40" xlink:href="#hd"/>
<use x="378.40" y="127.40" xlink:href="#hd"/>
<use x="408.40" y="151.40" xlink:href="#hl"/>
<use x="408.40" y="154.40" xlink:href="#Hd"/>
<circle class="fill" cx="417.10" cy="154.40" r="1.2"/>
<circle class="fill" cx="420.60" cy="154.40" r="1.2"/>
<path d="M411.90 154.40v-31.00" class="stroke"/>
<use x="408.40" y="148.40" xlink:href="#Hd"/>
<circle class="fill" cx="417.10" cy="148.40" r="1.2"/>
<circle class="fill" cx="420.60" cy="148.40" r="1.2"/>
<use x="408.40" y="142.40" xlink:href="#Hd"/>
<circle class="fill" cx="417.10" cy="142.40" r="1.2"/>
<circle class="fill" cx="420.60" cy="142.40" r="1.2"/>
<use x="497.50" y="145.40" xlink:href="#HD"/>
<use x="497.50" y="139.40" xlink:href="#HD"/>
<use x="497.50" y="133.40" xlink:href="#HD"/>
<use x="589.40" y="145.40" xlink:href="#hd"/>
<path d="M592.90 145.40v-31.00" class="stroke"/>
<path class="fill"
	d="M592.90 114.40c0.6 5.6 9.6 9 5.6 18.4
	1.6 -6 -1.3 -11.6 -5.6 -12.8
"/>
<use x="589.40" y="139.40" xlink:href="#hd"/>
<use x="589.40" y="133.40" xlink:href="#hd"/>
<use x="619.40" y="139.40" xlink:href="#Hd"/>
<circle class="fill" cx="628.10" cy="136.40" r="1.2"/>
<circle class="fill" cx="631.60" cy="136.40" r="1.2"/>
<path d="M622.90 139.40v-31.00" class="stroke"/>
<use x="619.40" y="133.40" xlink:href="#Hd"/>
<circle class="fill" cx="628.10" cy="130.40" r="1.2"/>
<circle class="fill" cx="631.60" cy="130.40" r="1.2"/>
<use x="619.40" y="127.40" xlink:href="#Hd"/>
<circle class="fill" cx="628.10" cy="124.40" r="1.2"/>
<circle class="fill" cx="631.60" cy="124.40" r="1.2"/>
<path class="fill"
	d="M81.50 154.40c11.55 6.01 72.31 6.01 83.87 -0.00
	v0.28c-14.07 7.73 -69.80 7.73 -83.87 -0.28"/>
<path class="fill"
	d="M81.50 148.40c11.55 6.01 72.31 6.01 83.87 -0.00
	v0.28c-14.07 7.73 -69.80 7.73 -83.87 -0.28"/>
<path class="fill"
	d="M81.50 142.40c11.55 -6.01 72.31 -6.01 83.87 -0.00
	v-0.28c-14.07 -7.73 -69.80 -7.73 -83.87 0.28"/>
<path class="fill"
	d="M291.00 139.40c11.55 6.01 72.31 6.01 83.87 -0.00
	v0.28c-14.07 7.73 -69.80 7.73 -83.87 -0.28"/>
<path class="fill"
	d="M291.00 133.40c11.55 -6.01 72.31 -6.01 83.87 -0.00
	v-0.28c-14.07 -7.73 -69.80 -7.73 -83.87 0.28"/>
<path class="fill"
	d="M291.00 127.40c11.55 -6.01 72.31 -6.01 83.87 -0.00
	v-0.28c-14.07 -7.73 -69.80 -7.73 -83.87 0.28"/>
<path class="fill"
	d="M500.00 145.40c11.75 6.05 74.11 6.05 85.86 -0.00
	v0.29c-14.33 7.76 -71.54 7.76 -85.86 -0.29"/>
<path class="fill"
	d="M500.00 139.40c11.75 6.05 74.11 6.05 85.86 -0.00
	v0.29c-14.33 7.76 -71.54 7.76 -85.86 -0.29"/>
<path class="fill"
	d="M500.00 133.40c11.75 -6.05 74.11 -6.05 85.86 -0.00
	v-0.29c-14.33 -7.76 -71.54 -7.76 -85.86 0.29"/>
</g>
<g stroke-width="0.70" style="font:italic 11.00px Times">
<path class="stroke" stroke-width="1"
	d="M10.00 273.40v-82.00"/>
<g transform="translate(10.00,191.40) scale(1,0.82)">
	<use xlink:href="#brace"/>
</g>
<path class="stroke" stroke-width="1"
	d="M254.40 215.40v-24.00"/>
<path class="stroke" stroke-width="1"
	d="M254.40 273.40v-24.00"/>
<path class="stroke" stroke-width="1"
	d="M421.00 215.40v-24.00"/>
<path class="stroke" stroke-width="1"
	d="M421.00 273.40v-24.00"/>
<path d="m10.00 215.40
	h411.00
	M10.00 209.40
	h411.00
	M10.00 203.40
	h411.00
	M10.00 197.40
	h411.00
	M10.00 191.40
	h411.00
	" class="stroke"/>
<path d="m10.00 273.40
	h411.00
	M10.00 267.40
	h411.00
	M10.00 261.40
	h411.00
	M10.00 255.40
	h411.00
	M10.00 249.40
	h411.00
	" class="stroke"/>
</g>
<g stroke-width="0.70" style="font:bold 13.00px Times">
<text x="56.20" y="186.80">IV</text>
</g>
<g stroke-width="0.70" style="font:bold 13.00px Times">
<text x="266.70" y="181.80">I</text>
<use x="22.00" y="209.40" xlink:href="#tclef"/>
<use x="37.00" y="191.40" xlink:href="#sh0"/>
<use x="42.50" y="200.40" xlink:href="#sh0"/>
<use x="62.00" y="197.40" xlink:href="#hd"/>
<path d="M58.50 197.40v21.00" class="stroke"/>
<path class="fill"
	d="M58.50 218.40c0.6 -5.6 9.6 -9 5.6 -18.4
	1.6 6 -1.3 11.6 -5.6 12.8
"/>
<use x="90.30" y="200.40" xlink:href="#hd"/>
<path d="M86.80 200.40v21.00" class="stroke"/>
<use x="130.30" y="203.40" xlink:href="#hd"/>
<path d="M126.80 203.40v21.00" class="stroke"/>
<use x="166.30" y="206.40" xlink:href="#hd"/>
<path d="M169.80 206.40v-21.00" class="stroke"/>
<use x="206.30" y="206.40" xlink:href="#hd"/>
<path d="M209.80 206.40v-21.00" class="stroke"/>
<use x="268.60" y="209.40" xlink:href="#hd"/>
<path d="M272.10 209.40v-21.00" class="stroke"/>
<path class="fill"
	d="M272.10 188.40c0.6 5.6 9.6 9 5.6 18.4
	1.6 -6 -1.3 -11.6 -5.6 -12.8
"/>
<use x="296.90" y="212.40" xlink:href="#hd"/>
<path d="M300.40 212.40v-21.00" class="stroke"/>
<path class="fill"
	d="M300.40 191.40c0.6 5.6 9.6 9 5.6 18.4
	1.6 -6 -1.3 -11.6 -5.6 -12.8
"/>
<use x="325.20" y="215.40" xlink:href="#hd"/>
<path d="M328.70 215.40v-21.00" class="stroke"/>
<use x="365.20" y="218.40" xlink:href="#hd"/>
<path d="M368.70 218.40v-21.00" class="stroke"/>
<use x="401.20" y="203.40" xlink:href="#r8"/>
<use x="22.00" y="255.40" xlink:href="#bclef"/>
<use x="37.00" y="255.40" xlink:href="#sh0"/>
<use x="42.50" y="264.40" xlink:href="#sh0"/>
<use x="63.00" y="273.40" xlink:href="#HD"/>
<use x="63.00" y="267.40" xlink:href="#HD"/>
<use x="63.00" y="261.40" xlink:href="#HD"/>
<use x="234.60" y="273.40" xlink:href="#hd"/>
<path d="M238.10 273.40v-31.00" class="stroke"/>
<path class="fill"
	d="M238.10 242.40c0.6 5.6 9.6 9 5.6 18.4
	1.6 -6 -1.3 -11.6 -5.6 -12.8
"/>
<use x="234.60" y="267.40" xlink:href="#hd"/>
<use x="234.60" y="261.40" xlink:href="#hd"/>
<use x="268.60" y="279.40" xlink:href="#hl"/>
<use x="268.60" y="282.40" xlink:href="#Hd"/>
<circle class="fill" cx="277.30" cy="282.40" r="1.2"/>
<circle class="fill" cx="280.80" cy="282.40" r="1.2"/>
<path d="M272.10 282.40v-31.00" class="stroke"/>
<use x="268.60" y="276.40" xlink:href="#Hd"/>
<circle class="fill" cx="277.30" cy="276.40" r="1.2"/>
<circle class="fill" cx="280.80" cy="276.40" r="1.2"/>
<use x="268.60" y="270.40" xlink:href="#Hd"/>
<circle class="fill" cx="277.30" cy="270.40" r="1.2"/>
<circle class="fill" cx="280.80" cy="270.40" r="1.2"/>
<path class="fill"
	d="M65.50 273.40c16.72 7.48 148.88 7.48 165.60 -0.00
	v0.37c-21.69 9.12 -143.91 9.12 -165.60 -0.37"/>
<path class="fill"
	d="M65.50 267.40c16.72 7.48 148.88 7.48 165.60 -0.00
	v0.37c-21.69 9.12 -143.91 9.12 -165.60 -0.37"/>
<path class="fill"
	d="M65.50 261.40c16.72 -7.48 148.88 -7.48 165.60 -0.00
	v-0.37c-21.69 -9.12 -143.91 -9.12 -165.60 0.37"/>
</g>
</svg>
