<?xml version="1.0" standalone="no"?>
<!DOCTYPE svg PUBLIC "-//W3C//DTD SVG 1.1//EN"
	"http://www.w3.org/Graphics/SVG/1.1/DTD/svg11.dtd">
<svg xmlns="http://www.w3.org/2000/svg" version="1.1"
	xmlns:xlink="http://www.w3.org/1999/xlink"
	color="black"
	width="701.60px" height="552.40px" viewBox="0 0 701.60 552.40" preserveAspectRatio="xMidYMid meet">
<style type="text/css">
.fill {fill: currentColor}
.stroke {stroke: currentColor; fill: none}
text{white-space: pre}
</style>
<title>/tmp/retab_hymnal_L3/holy_god_we_praise_thy_name.abc (1) tune 1</title>
<!-- Creator: abcm2ps-8.14.11 -->
<!-- CreationDate: Apr 24, 2026 15:38 -->
<!-- CommandLine: /tmp/retab_hymnal_L3/holy_god_we_praise_thy_name.abc -g -O /tmp/retab_hymnal_L3/holy_god_we_praise_thy_name -->
<g stroke-width="0.70">
<!-- title: 093. Holy God, We Praise Thy Name -->
</g>
<g stroke-width="0.70" style="font:20.00px Times">
<text x="350.80" y="22.00" text-anchor="middle">093. Holy God, We Praise Thy Name</text>
</g>
<g stroke-width="0.70" style="font:20.00px Times">
<path class="stroke" stroke-width="1"
	d="M10.00 143.00v-82.00"/>
<defs>
<path id="brace" class="fill" d="m-2.5 101
	c-4.5 -4.6 -7.5 -12.2 -4.4 -26.8
	3.5 -14.3 3.2 -21.7 -2.1 -24.2
	7.4 2.4 7.3 14.2 3.5 29.5
	-2.7 9.5 -1.5 16.2 3 21.5
	M-2.5 1c-4.5 4.6 -7.5 12.2 -4.4 26.8
	c3.5 14.3 3.2 21.7 -2.1 24.2
	7.4 -2.4 7.3 -14.2 3.5 -29.5
	-2.7 -9.5 -1.5 -16.2 3 -21.5"/>
</defs>
<g transform="translate(10.00,61.00) scale(1,0.82)">
	<use xlink:href="#brace"/>
</g>
<path class="stroke" stroke-width="1"
	d="M164.30 85.00v-24.00"/>
<path class="stroke" stroke-width="1"
	d="M164.30 143.00v-24.00"/>
<path class="stroke" stroke-width="1"
	d="M269.50 85.00v-24.00"/>
<path class="stroke" stroke-width="1"
	d="M269.50 143.00v-24.00"/>
<path class="stroke" stroke-width="1"
	d="M374.80 85.00v-24.00"/>
<path class="stroke" stroke-width="1"
	d="M374.80 143.00v-24.00"/>
<path class="stroke" stroke-width="1"
	d="M480.60 85.00v-24.00"/>
<path class="stroke" stroke-width="1"
	d="M480.60 143.00v-24.00"/>
<path class="stroke" stroke-width="1"
	d="M586.30 85.00v-24.00"/>
<path class="stroke" stroke-width="1"
	d="M586.30 143.00v-24.00"/>
<path class="stroke" stroke-width="1"
	d="M691.60 85.00v-24.00"/>
<path class="stroke" stroke-width="1"
	d="M691.60 143.00v-24.00"/>
<path d="m10.00 85.00
	h681.60
	M10.00 79.00
	h681.60
	M10.00 73.00
	h681.60
	M10.00 67.00
	h681.60
	M10.00 61.00
	h681.60
	" class="stroke"/>
<path d="m10.00 143.00
	h681.60
	M10.00 137.00
	h681.60
	M10.00 131.00
	h681.60
	M10.00 125.00
	h681.60
	M10.00 119.00
	h681.60
	" class="stroke"/>
</g>
<g stroke-width="0.70" style="font:bold 13.00px Times">
<text x="69.70" y="54.40">I</text>
</g>
<g stroke-width="0.70" style="font:bold 13.00px Times">
<text x="174.90" y="54.40">I</text>
</g>
<g stroke-width="0.70" style="font:bold 13.00px Times">
<text x="276.10" y="51.40">V<tspan
	 style="font:italic 11.00px Times">⁷</tspan></text>
</g>
<g stroke-width="0.70" style="font:bold 13.00px Times">
<text x="386.00" y="54.40">I</text>
</g>
<g stroke-width="0.70" style="font:bold 13.00px Times">
<text x="491.80" y="48.40">I</text>
</g>
<g stroke-width="0.70" style="font:bold 13.00px Times">
<text x="597.00" y="48.40">I</text>
<defs>
<path id="utclef" class="fill" d="m-50 -90
	c-72 -41 -72 -158 52 -188
	150 -10 220 188 90 256
	-114 52 -275 0 -293 -136
	-15 -181 93 -229 220 -334
	88 -87 79 -133 62 -210
	-51 33 -94 105 -89 186
	17 267 36 374 49 574
	6 96 -19 134 -77 135
	-80 1 -126 -93 -61 -133
	85 -41 133 101 31 105
	23 17 92 37 90 -92
	-10 -223 -39 -342 -50 -617
	0 -90 0 -162 96 -232
	56 72 63 230 22 289
	-74 106 -257 168 -255 316
	9 153 148 185 252 133
	86 -65 29 -192 -80 -176
	-71 12 -105 67 -59 124"/>
<use id="tclef" transform="translate(0,6) scale(0.045)"
	xlink:href="#utclef"/>
</defs>
<use x="22.00" y="79.00" xlink:href="#tclef"/>
<defs>
<path id="uflat" class="fill" d="
	m100 -746
	h32
	v734
	l-32 4
	m32 -332
	c46 -72 152 -90 208 -20
	100 110 -120 326 -208 348
	m0 -28
	c54 0 200 -206 130 -290
	-50 -60 -130 -4 -130 34"/>
<use id="ft0" transform="translate(-3.5,3.5) scale(0.018)"
	xlink:href="#uflat"/>
</defs>
<use x="37.00" y="73.00" xlink:href="#ft0"/>
<g style="font:bold 16px serif"
	transform="translate(53.00,84.50) scale(1.2,1)">
	<text text-anchor="middle">4</text>
	<text y="-12" text-anchor="middle">3</text>
</g>
<defs>
<path id="Hd" class="fill" d="m3 -1.6
	c-1 -1.8 -7 1.4 -6 3.2
	1 1.8 7 -1.4 6 -3.2
	m0.5 -0.3
	c2 3.8 -5 7.6 -7 3.8
	-2 -3.8 5 -7.6 7 -3.8"/>
</defs>
<use x="71.50" y="82.00" xlink:href="#Hd"/>
<path d="M75.00 82.00v-21.00" class="stroke"/>
<defs>
<ellipse id="hd" rx="4.1" ry="2.9"
	transform="rotate(-20)" class="fill"/>
</defs>
<use x="140.10" y="82.00" xlink:href="#hd"/>
<path d="M143.60 82.00v-21.00" class="stroke"/>
<use x="176.80" y="82.00" xlink:href="#hd"/>
<path d="M180.30 82.00v-21.00" class="stroke"/>
<use x="211.10" y="85.00" xlink:href="#hd"/>
<path d="M214.60 85.00v-21.00" class="stroke"/>
<use x="245.40" y="82.00" xlink:href="#hd"/>
<path d="M248.90 82.00v-21.00" class="stroke"/>
<use x="282.00" y="79.00" xlink:href="#hd"/>
<path d="M285.50 79.00v-21.00" class="stroke"/>
<use x="316.40" y="76.00" xlink:href="#hd"/>
<path d="M319.90 76.00v-21.00" class="stroke"/>
<use x="350.70" y="79.00" xlink:href="#hd"/>
<path d="M354.20 79.00v-21.00" class="stroke"/>
<use x="387.80" y="82.00" xlink:href="#Hd"/>
<circle class="fill" cx="396.50" cy="82.00" r="1.2"/>
<path d="M391.30 82.00v-21.00" class="stroke"/>
<use x="493.60" y="76.00" xlink:href="#Hd"/>
<path d="M497.10 76.00v-21.00" class="stroke"/>
<use x="562.20" y="76.00" xlink:href="#hd"/>
<path d="M565.70 76.00v-21.00" class="stroke"/>
<use x="598.80" y="76.00" xlink:href="#hd"/>
<path d="M602.30 76.00v-21.00" class="stroke"/>
<use x="633.10" y="79.00" xlink:href="#hd"/>
<path d="M636.60 79.00v-21.00" class="stroke"/>
<use x="667.40" y="76.00" xlink:href="#hd"/>
<path d="M670.90 76.00v-21.00" class="stroke"/>
<defs>
<path id="ubclef" class="fill" d="m-200 -87
	c124 -35 222 -78 254 -236
	43 -228 -167 -246 -192 -103
	59 -80 157 22 92 78
	-62 47 -115 -22 -106 -88
	21 -141 270 -136 274 52
	-1 175 -106 264 -322 297
	m357 -250
	c0 -36 51 -34 51 0
	0 37 -51 36 -51 0
	m-2 -129
	c0 -36 51 -34 51 0
	0 38 -51 37 -51 0"/>
<use id="bclef" transform="translate(0,18) scale(0.045)"
	xlink:href="#ubclef"/>
</defs>
<use x="22.00" y="125.00" xlink:href="#bclef"/>
<use x="37.00" y="137.00" xlink:href="#ft0"/>
<g style="font:bold 16px serif"
	transform="translate(53.00,142.50) scale(1.2,1)">
	<text text-anchor="middle">4</text>
	<text y="-12" text-anchor="middle">3</text>
</g>
<use x="71.50" y="146.00" xlink:href="#hd"/>
<path d="M75.00 146.00v-21.00" class="stroke"/>
<use x="105.80" y="140.00" xlink:href="#hd"/>
<path d="M109.30 140.00v-21.00" class="stroke"/>
<use x="140.10" y="134.00" xlink:href="#hd"/>
<path d="M143.60 134.00v-21.00" class="stroke"/>
<use x="176.80" y="146.00" xlink:href="#hd"/>
<path d="M180.30 146.00v-21.00" class="stroke"/>
<use x="211.10" y="140.00" xlink:href="#hd"/>
<path d="M214.60 140.00v-21.00" class="stroke"/>
<use x="245.40" y="134.00" xlink:href="#hd"/>
<path d="M248.90 134.00v-21.00" class="stroke"/>
<use x="282.00" y="134.00" xlink:href="#hd"/>
<path d="M285.50 134.00v-21.00" class="stroke"/>
<use x="316.40" y="128.00" xlink:href="#hd"/>
<path d="M312.90 128.00v21.00" class="stroke"/>
<use x="350.70" y="122.00" xlink:href="#hd"/>
<path d="M347.20 122.00v21.00" class="stroke"/>
<use x="387.80" y="146.00" xlink:href="#hd"/>
<path d="M391.30 146.00v-21.00" class="stroke"/>
<use x="422.10" y="140.00" xlink:href="#hd"/>
<path d="M425.60 140.00v-21.00" class="stroke"/>
<use x="456.40" y="134.00" xlink:href="#hd"/>
<path d="M459.90 134.00v-21.00" class="stroke"/>
<use x="493.60" y="146.00" xlink:href="#hd"/>
<path d="M497.10 146.00v-21.00" class="stroke"/>
<use x="527.90" y="140.00" xlink:href="#hd"/>
<path d="M531.40 140.00v-21.00" class="stroke"/>
<use x="562.20" y="134.00" xlink:href="#hd"/>
<path d="M565.70 134.00v-21.00" class="stroke"/>
<use x="598.80" y="146.00" xlink:href="#hd"/>
<path d="M602.30 146.00v-21.00" class="stroke"/>
<use x="633.10" y="140.00" xlink:href="#hd"/>
<path d="M636.60 140.00v-21.00" class="stroke"/>
<use x="667.40" y="134.00" xlink:href="#hd"/>
<path d="M670.90 134.00v-21.00" class="stroke"/>
</g>
<g stroke-width="0.70" style="font:bold 13.00px Times">
<path class="stroke" stroke-width="1"
	d="M10.00 271.00v-82.00"/>
<g transform="translate(10.00,189.00) scale(1,0.82)">
	<use xlink:href="#brace"/>
</g>
<path class="stroke" stroke-width="1"
	d="M150.40 213.00v-24.00"/>
<path class="stroke" stroke-width="1"
	d="M150.40 271.00v-24.00"/>
<path class="stroke" stroke-width="1"
	d="M258.50 213.00v-24.00"/>
<path class="stroke" stroke-width="1"
	d="M258.50 271.00v-24.00"/>
<path class="stroke" stroke-width="1"
	d="M367.00 213.00v-24.00"/>
<path class="stroke" stroke-width="1"
	d="M367.00 271.00v-24.00"/>
<path class="stroke" stroke-width="1"
	d="M475.00 213.00v-24.00"/>
<path class="stroke" stroke-width="1"
	d="M475.00 271.00v-24.00"/>
<path class="stroke" stroke-width="1"
	d="M583.20 213.00v-24.00"/>
<path class="stroke" stroke-width="1"
	d="M583.20 271.00v-24.00"/>
<path class="stroke" stroke-width="1"
	d="M691.60 213.00v-24.00"/>
<path class="stroke" stroke-width="1"
	d="M691.60 271.00v-24.00"/>
<path d="m10.00 213.00
	h681.60
	M10.00 207.00
	h681.60
	M10.00 201.00
	h681.60
	M10.00 195.00
	h681.60
	M10.00 189.00
	h681.60
	" class="stroke"/>
<path d="m10.00 271.00
	h681.60
	M10.00 265.00
	h681.60
	M10.00 259.00
	h681.60
	M10.00 253.00
	h681.60
	M10.00 247.00
	h681.60
	" class="stroke"/>
</g>
<g stroke-width="0.70" style="font:bold 13.00px Times">
<text x="53.20" y="184.40">I</text>
</g>
<g stroke-width="0.70" style="font:bold 13.00px Times">
<text x="159.30" y="176.40">I<tspan
	 style="font:italic 11.00px Times">²</tspan></text>
</g>
<g stroke-width="0.70" style="font:bold 13.00px Times">
<text x="269.70" y="182.40">I</text>
</g>
<g stroke-width="0.70" style="font:bold 13.00px Times">
<text x="377.80" y="182.40">I</text>
</g>
<g stroke-width="0.70" style="font:bold 13.00px Times">
<text x="481.80" y="179.40">V<tspan
	 style="font:italic 11.00px Times">⁷</tspan></text>
</g>
<g stroke-width="0.70" style="font:bold 13.00px Times">
<text x="594.30" y="182.40">I</text>
<use x="22.00" y="207.00" xlink:href="#tclef"/>
<use x="37.00" y="201.00" xlink:href="#ft0"/>
<use x="55.00" y="198.00" xlink:href="#hd"/>
<path d="M51.50 198.00v21.00" class="stroke"/>
<use x="90.30" y="201.00" xlink:href="#hd"/>
<path d="M86.80 201.00v21.00" class="stroke"/>
<use x="125.60" y="204.00" xlink:href="#hd"/>
<path d="M129.10 204.00v-21.00" class="stroke"/>
<use x="163.10" y="204.00" xlink:href="#hd"/>
<path d="M166.60 204.00v-21.00" class="stroke"/>
<use x="198.40" y="207.00" xlink:href="#Hd"/>
<path d="M201.90 207.00v-21.00" class="stroke"/>
<use x="271.50" y="210.00" xlink:href="#Hd"/>
<path d="M275.00 210.00v-21.00" class="stroke"/>
<use x="342.20" y="210.00" xlink:href="#hd"/>
<path d="M345.70 210.00v-21.00" class="stroke"/>
<use x="379.60" y="210.00" xlink:href="#hd"/>
<path d="M383.10 210.00v-21.00" class="stroke"/>
<use x="414.90" y="213.00" xlink:href="#hd"/>
<path d="M418.40 213.00v-21.00" class="stroke"/>
<use x="450.20" y="210.00" xlink:href="#hd"/>
<path d="M453.70 210.00v-21.00" class="stroke"/>
<use x="487.70" y="207.00" xlink:href="#hd"/>
<path d="M491.20 207.00v-21.00" class="stroke"/>
<use x="523.00" y="204.00" xlink:href="#hd"/>
<path d="M526.50 204.00v-21.00" class="stroke"/>
<use x="558.30" y="207.00" xlink:href="#hd"/>
<path d="M561.80 207.00v-21.00" class="stroke"/>
<use x="596.20" y="210.00" xlink:href="#Hd"/>
<circle class="fill" cx="604.90" cy="210.00" r="1.2"/>
<path d="M599.70 210.00v-21.00" class="stroke"/>
<use x="22.00" y="253.00" xlink:href="#bclef"/>
<use x="37.00" y="265.00" xlink:href="#ft0"/>
<use x="55.00" y="274.00" xlink:href="#hd"/>
<path d="M58.50 274.00v-21.00" class="stroke"/>
<use x="90.30" y="268.00" xlink:href="#hd"/>
<path d="M93.80 268.00v-21.00" class="stroke"/>
<use x="125.60" y="262.00" xlink:href="#hd"/>
<path d="M129.10 262.00v-21.00" class="stroke"/>
<use x="163.10" y="274.00" xlink:href="#hd"/>
<path d="M166.60 274.00v-21.00" class="stroke"/>
<use x="198.40" y="268.00" xlink:href="#hd"/>
<path d="M201.90 268.00v-21.00" class="stroke"/>
<use x="233.70" y="262.00" xlink:href="#hd"/>
<path d="M237.20 262.00v-21.00" class="stroke"/>
<use x="271.50" y="274.00" xlink:href="#hd"/>
<path d="M275.00 274.00v-21.00" class="stroke"/>
<use x="306.80" y="268.00" xlink:href="#hd"/>
<path d="M310.30 268.00v-21.00" class="stroke"/>
<use x="342.20" y="262.00" xlink:href="#hd"/>
<path d="M345.70 262.00v-21.00" class="stroke"/>
<use x="379.60" y="274.00" xlink:href="#hd"/>
<path d="M383.10 274.00v-21.00" class="stroke"/>
<use x="414.90" y="268.00" xlink:href="#hd"/>
<path d="M418.40 268.00v-21.00" class="stroke"/>
<use x="450.20" y="262.00" xlink:href="#hd"/>
<path d="M453.70 262.00v-21.00" class="stroke"/>
<use x="487.70" y="262.00" xlink:href="#hd"/>
<path d="M491.20 262.00v-21.00" class="stroke"/>
<use x="523.00" y="256.00" xlink:href="#hd"/>
<path d="M519.50 256.00v21.00" class="stroke"/>
<use x="558.30" y="250.00" xlink:href="#hd"/>
<path d="M554.80 250.00v21.00" class="stroke"/>
<use x="596.20" y="274.00" xlink:href="#hd"/>
<path d="M599.70 274.00v-21.00" class="stroke"/>
<use x="631.50" y="268.00" xlink:href="#hd"/>
<path d="M635.00 268.00v-21.00" class="stroke"/>
<use x="666.80" y="262.00" xlink:href="#hd"/>
<path d="M670.30 262.00v-21.00" class="stroke"/>
</g>
<g stroke-width="0.70" style="font:bold 13.00px Times">
<path class="stroke" stroke-width="1"
	d="M10.00 399.00v-82.00"/>
<g transform="translate(10.00,317.00) scale(1,0.82)">
	<use xlink:href="#brace"/>
</g>
<path class="stroke" stroke-width="1"
	d="M148.10 341.00v-24.00"/>
<path class="stroke" stroke-width="1"
	d="M148.10 399.00v-24.00"/>
<path class="stroke" stroke-width="1"
	d="M253.20 341.00v-24.00"/>
<path class="stroke" stroke-width="1"
	d="M253.20 399.00v-24.00"/>
<path class="stroke" stroke-width="1"
	d="M358.30 341.00v-24.00"/>
<path class="stroke" stroke-width="1"
	d="M358.30 399.00v-24.00"/>
<path class="stroke" stroke-width="1"
	d="M463.40 341.00v-24.00"/>
<path class="stroke" stroke-width="1"
	d="M463.40 399.00v-24.00"/>
<path class="stroke" stroke-width="1"
	d="M586.50 341.00v-24.00"/>
<path class="stroke" stroke-width="1"
	d="M586.50 399.00v-24.00"/>
<path class="stroke" stroke-width="1"
	d="M691.60 341.00v-24.00"/>
<path class="stroke" stroke-width="1"
	d="M691.60 399.00v-24.00"/>
<path d="m10.00 341.00
	h681.60
	M10.00 335.00
	h681.60
	M10.00 329.00
	h681.60
	M10.00 323.00
	h681.60
	M10.00 317.00
	h681.60
	" class="stroke"/>
<path d="m10.00 399.00
	h681.60
	M10.00 393.00
	h681.60
	M10.00 387.00
	h681.60
	M10.00 381.00
	h681.60
	M10.00 375.00
	h681.60
	" class="stroke"/>
</g>
<g stroke-width="0.70" style="font:bold 13.00px Times">
<text x="53.70" y="304.40">I</text>
</g>
<g stroke-width="0.70" style="font:bold 13.00px Times">
<text x="158.80" y="304.40">I</text>
</g>
<g stroke-width="0.70" style="font:bold 13.00px Times">
<text x="263.90" y="310.40">I</text>
</g>
<g stroke-width="0.70" style="font:bold 13.00px Times">
<text x="367.00" y="304.40">I<tspan
	 style="font:italic 11.00px Times">²</tspan></text>
</g>
<g stroke-width="0.70" style="font:bold 13.00px Times">
<text x="472.50" y="307.40">V</text>
</g>
<g stroke-width="0.70" style="font:bold 13.00px Times">
<text x="596.00" y="312.40">ii</text>
<use x="22.00" y="335.00" xlink:href="#tclef"/>
<use x="37.00" y="329.00" xlink:href="#ft0"/>
<use x="55.50" y="332.00" xlink:href="#Hd"/>
<path d="M59.00 332.00v-21.00" class="stroke"/>
<use x="124.00" y="332.00" xlink:href="#hd"/>
<path d="M127.50 332.00v-21.00" class="stroke"/>
<use x="160.60" y="332.00" xlink:href="#hd"/>
<path d="M164.10 332.00v-21.00" class="stroke"/>
<use x="194.80" y="335.00" xlink:href="#hd"/>
<path d="M198.30 335.00v-21.00" class="stroke"/>
<use x="229.10" y="332.00" xlink:href="#hd"/>
<path d="M232.60 332.00v-21.00" class="stroke"/>
<use x="265.70" y="326.00" xlink:href="#hd"/>
<path d="M262.20 326.00v21.00" class="stroke"/>
<use x="299.90" y="329.00" xlink:href="#hd"/>
<path d="M296.40 329.00v21.00" class="stroke"/>
<use x="334.20" y="332.00" xlink:href="#hd"/>
<path d="M337.70 332.00v-21.00" class="stroke"/>
<use x="370.80" y="332.00" xlink:href="#hd"/>
<path d="M374.30 332.00v-21.00" class="stroke"/>
<use x="405.10" y="335.00" xlink:href="#Hd"/>
<path d="M408.60 335.00v-21.00" class="stroke"/>
<use x="476.40" y="335.00" xlink:href="#Hd"/>
<path d="M479.90 335.00v-21.00" class="stroke"/>
<use x="545.00" y="332.00" xlink:href="#hd"/>
<path d="M548.50 332.00v-21.00" class="stroke"/>
<path class="fill"
	d="M548.50 311.00c0.6 5.6 9.6 9 5.6 18.4
	1.6 -6 -1.3 -11.6 -5.6 -12.8
"/>
<use x="569.40" y="326.00" xlink:href="#hd"/>
<path d="M565.90 326.00v21.00" class="stroke"/>
<path class="fill"
	d="M565.90 347.00c0.6 -5.6 9.6 -9 5.6 -18.4
	1.6 6 -1.3 11.6 -5.6 12.8
"/>
<use x="599.00" y="329.00" xlink:href="#hd"/>
<path d="M595.50 329.00v21.00" class="stroke"/>
<use x="633.30" y="332.00" xlink:href="#hd"/>
<path d="M636.80 332.00v-21.00" class="stroke"/>
<use x="667.50" y="335.00" xlink:href="#hd"/>
<path d="M671.00 335.00v-21.00" class="stroke"/>
<use x="22.00" y="381.00" xlink:href="#bclef"/>
<use x="37.00" y="393.00" xlink:href="#ft0"/>
<use x="55.50" y="402.00" xlink:href="#hd"/>
<path d="M59.00 402.00v-21.00" class="stroke"/>
<use x="89.80" y="396.00" xlink:href="#hd"/>
<path d="M93.30 396.00v-21.00" class="stroke"/>
<use x="124.00" y="390.00" xlink:href="#hd"/>
<path d="M127.50 390.00v-21.00" class="stroke"/>
<use x="160.60" y="402.00" xlink:href="#hd"/>
<path d="M164.10 402.00v-21.00" class="stroke"/>
<use x="194.80" y="396.00" xlink:href="#hd"/>
<path d="M198.30 396.00v-21.00" class="stroke"/>
<use x="229.10" y="390.00" xlink:href="#hd"/>
<path d="M232.60 390.00v-21.00" class="stroke"/>
<use x="265.70" y="402.00" xlink:href="#hd"/>
<path d="M269.20 402.00v-21.00" class="stroke"/>
<use x="299.90" y="396.00" xlink:href="#hd"/>
<path d="M303.40 396.00v-21.00" class="stroke"/>
<use x="334.20" y="390.00" xlink:href="#hd"/>
<path d="M337.70 390.00v-21.00" class="stroke"/>
<use x="370.80" y="402.00" xlink:href="#hd"/>
<path d="M374.30 402.00v-21.00" class="stroke"/>
<use x="405.10" y="396.00" xlink:href="#hd"/>
<path d="M408.60 396.00v-21.00" class="stroke"/>
<use x="439.30" y="390.00" xlink:href="#hd"/>
<path d="M442.80 390.00v-21.00" class="stroke"/>
<use x="476.40" y="390.00" xlink:href="#hd"/>
<path d="M479.90 390.00v-21.00" class="stroke"/>
<use x="510.70" y="384.00" xlink:href="#hd"/>
<path d="M507.20 384.00v21.00" class="stroke"/>
<use x="545.00" y="378.00" xlink:href="#hd"/>
<path d="M541.50 378.00v21.00" class="stroke"/>
<use x="599.00" y="399.00" xlink:href="#hd"/>
<path d="M602.50 399.00v-21.00" class="stroke"/>
<use x="633.30" y="393.00" xlink:href="#hd"/>
<path d="M636.80 393.00v-21.00" class="stroke"/>
<use x="667.50" y="387.00" xlink:href="#hd"/>
<path d="M671.00 387.00v-21.00" class="stroke"/>
</g>
<g stroke-width="0.70" style="font:bold 13.00px Times">
<path class="stroke" stroke-width="1"
	d="M10.00 529.40v-82.00"/>
<g transform="translate(10.00,447.40) scale(1,0.82)">
	<use xlink:href="#brace"/>
</g>
<path class="stroke" stroke-width="1"
	d="M165.30 471.40v-24.00"/>
<path class="stroke" stroke-width="1"
	d="M165.30 529.40v-24.00"/>
<path class="stroke" stroke-width="1"
	d="M270.80 471.40v-24.00"/>
<path class="stroke" stroke-width="1"
	d="M270.80 529.40v-24.00"/>
<path class="stroke" stroke-width="1"
	d="M376.30 471.40v-24.00"/>
<path class="stroke" stroke-width="1"
	d="M376.30 529.40v-24.00"/>
<path class="stroke" stroke-width="1"
	d="M481.20 471.40v-24.00"/>
<path class="stroke" stroke-width="1"
	d="M481.20 529.40v-24.00"/>
<path class="stroke" stroke-width="1"
	d="M586.20 471.40v-24.00"/>
<path class="stroke" stroke-width="1"
	d="M586.20 529.40v-24.00"/>
<path class="stroke" stroke-width="1"
	d="M691.60 471.40v-24.00"/>
<path class="stroke" stroke-width="1"
	d="M691.60 529.40v-24.00"/>
<path d="m10.00 471.40
	h681.60
	M10.00 465.40
	h681.60
	M10.00 459.40
	h681.60
	M10.00 453.40
	h681.60
	M10.00 447.40
	h681.60
	" class="stroke"/>
<path d="m10.00 529.40
	h681.60
	M10.00 523.40
	h681.60
	M10.00 517.40
	h681.60
	M10.00 511.40
	h681.60
	M10.00 505.40
	h681.60
	" class="stroke"/>
</g>
<g stroke-width="0.70" style="font:bold 13.00px Times">
<text x="53.70" y="434.80">I</text>
</g>
<g stroke-width="0.70" style="font:bold 13.00px Times">
<text x="174.40" y="442.80">V</text>
</g>
<g stroke-width="0.70" style="font:bold 13.00px Times">
<text x="278.00" y="442.80">IV</text>
</g>
<g stroke-width="0.70" style="font:bold 13.00px Times">
<text x="384.80" y="440.80">V</text>
</g>
<g stroke-width="0.70" style="font:bold 13.00px Times">
<text x="488.00" y="431.80">IV</text>
</g>
<g stroke-width="0.70" style="font:bold 13.00px Times">
<text x="597.40" y="440.80">I</text>
<use x="22.00" y="465.40" xlink:href="#tclef"/>
<use x="37.00" y="459.40" xlink:href="#ft0"/>
<use x="55.50" y="462.40" xlink:href="#Hd"/>
<path d="M59.00 462.40v-21.00" class="stroke"/>
<use x="123.80" y="459.40" xlink:href="#hd"/>
<path d="M127.30 459.40v-21.00" class="stroke"/>
<path class="fill"
	d="M127.30 438.40c0.6 5.6 9.6 9 5.6 18.4
	1.6 -6 -1.3 -11.6 -5.6 -12.8
"/>
<use x="148.20" y="453.40" xlink:href="#hd"/>
<path d="M144.70 453.40v21.00" class="stroke"/>
<path class="fill"
	d="M144.70 474.40c0.6 -5.6 9.6 -9 5.6 -18.4
	1.6 6 -1.3 11.6 -5.6 12.8
"/>
<use x="178.30" y="456.40" xlink:href="#Hd"/>
<circle class="fill" cx="187.00" cy="456.40" r="1.2"/>
<path d="M174.80 456.40v21.00" class="stroke"/>
<use x="283.80" y="453.40" xlink:href="#Hd"/>
<path d="M280.30 453.40v21.00" class="stroke"/>
<use x="352.20" y="453.40" xlink:href="#hd"/>
<path d="M348.70 453.40v21.00" class="stroke"/>
<use x="388.80" y="456.40" xlink:href="#hd"/>
<path d="M385.30 456.40v21.00" class="stroke"/>
<use x="423.00" y="459.40" xlink:href="#hd"/>
<path d="M419.50 459.40v21.00" class="stroke"/>
<use x="457.20" y="462.40" xlink:href="#hd"/>
<path d="M460.70 462.40v-21.00" class="stroke"/>
<use x="493.70" y="459.40" xlink:href="#hd"/>
<path d="M497.20 459.40v-21.00" class="stroke"/>
<use x="527.90" y="462.40" xlink:href="#hd"/>
<path d="M531.40 462.40v-21.00" class="stroke"/>
<use x="562.10" y="465.40" xlink:href="#hd"/>
<path d="M565.60 465.40v-21.00" class="stroke"/>
<use x="599.20" y="468.40" xlink:href="#Hd"/>
<circle class="fill" cx="607.90" cy="468.40" r="1.2"/>
<path d="M602.70 468.40v-21.00" class="stroke"/>
<use x="22.00" y="511.40" xlink:href="#bclef"/>
<use x="37.00" y="523.40" xlink:href="#ft0"/>
<use x="55.50" y="532.40" xlink:href="#hd"/>
<path d="M59.00 532.40v-21.00" class="stroke"/>
<use x="89.70" y="526.40" xlink:href="#hd"/>
<path d="M93.20 526.40v-21.00" class="stroke"/>
<use x="123.80" y="520.40" xlink:href="#hd"/>
<path d="M127.30 520.40v-21.00" class="stroke"/>
<use x="178.30" y="520.40" xlink:href="#hd"/>
<path d="M181.80 520.40v-21.00" class="stroke"/>
<use x="212.60" y="514.40" xlink:href="#hd"/>
<path d="M209.10 514.40v21.00" class="stroke"/>
<use x="246.70" y="508.40" xlink:href="#hd"/>
<path d="M243.20 508.40v21.00" class="stroke"/>
<use x="283.80" y="523.40" xlink:href="#hd"/>
<path d="M287.30 523.40v-21.00" class="stroke"/>
<use x="318.00" y="517.40" xlink:href="#hd"/>
<path d="M321.50 517.40v-21.00" class="stroke"/>
<use x="352.20" y="511.40" xlink:href="#hd"/>
<path d="M348.70 511.40v21.00" class="stroke"/>
<use x="388.80" y="520.40" xlink:href="#hd"/>
<path d="M392.30 520.40v-21.00" class="stroke"/>
<use x="423.00" y="514.40" xlink:href="#hd"/>
<path d="M419.50 514.40v21.00" class="stroke"/>
<use x="457.20" y="508.40" xlink:href="#hd"/>
<path d="M453.70 508.40v21.00" class="stroke"/>
<use x="493.70" y="523.40" xlink:href="#hd"/>
<path d="M497.20 523.40v-21.00" class="stroke"/>
<use x="527.90" y="517.40" xlink:href="#hd"/>
<path d="M531.40 517.40v-21.00" class="stroke"/>
<use x="562.10" y="511.40" xlink:href="#hd"/>
<path d="M558.60 511.40v21.00" class="stroke"/>
<use x="599.20" y="532.40" xlink:href="#hd"/>
<path d="M602.70 532.40v-21.00" class="stroke"/>
<use x="633.40" y="526.40" xlink:href="#hd"/>
<path d="M636.90 526.40v-21.00" class="stroke"/>
<use x="667.50" y="520.40" xlink:href="#hd"/>
<path d="M671.00 520.40v-21.00" class="stroke"/>
</g>
</svg>
