<?xml version="1.0" standalone="no"?>
<!DOCTYPE svg PUBLIC "-//W3C//DTD SVG 1.1//EN"
	"http://www.w3.org/Graphics/SVG/1.1/DTD/svg11.dtd">
<svg xmlns="http://www.w3.org/2000/svg" version="1.1"
	xmlns:xlink="http://www.w3.org/1999/xlink"
	color="black"
	width="701.60px" height="552.40px" viewBox="0 0 701.60 552.40" preserveAspectRatio="xMidYMid meet">
<style type="text/css">
.fill {fill: currentColor}
.stroke {stroke: currentColor; fill: none}
text{white-space: pre}
</style>
<title>/tmp/retab_hymnal_L3/let_our_gladness_have_no_end.abc (1) tune 1</title>
<!-- Creator: abcm2ps-8.14.11 -->
<!-- CreationDate: Apr 24, 2026 15:38 -->
<!-- CommandLine: /tmp/retab_hymnal_L3/let_our_gladness_have_no_end.abc -g -O /tmp/retab_hymnal_L3/let_our_gladness_have_no_end -->
<g stroke-width="0.70">
<!-- title: 137. Let Our Gladness Have No End -->
</g>
<g stroke-width="0.70" style="font:20.00px Times">
<text x="350.80" y="22.00" text-anchor="middle">137. Let Our Gladness Have No End</text>
</g>
<g stroke-width="0.70" style="font:20.00px Times">
<path class="stroke" stroke-width="1"
	d="M10.00 143.00v-82.00"/>
<defs>
<path id="brace" class="fill" d="m-2.5 101
	c-4.5 -4.6 -7.5 -12.2 -4.4 -26.8
	3.5 -14.3 3.2 -21.7 -2.1 -24.2
	7.4 2.4 7.3 14.2 3.5 29.5
	-2.7 9.5 -1.5 16.2 3 21.5
	M-2.5 1c-4.5 4.6 -7.5 12.2 -4.4 26.8
	c3.5 14.3 3.2 21.7 -2.1 24.2
	7.4 -2.4 7.3 -14.2 3.5 -29.5
	-2.7 -9.5 -1.5 -16.2 3 -21.5"/>
</defs>
<g transform="translate(10.00,61.00) scale(1,0.82)">
	<use xlink:href="#brace"/>
</g>
<path class="stroke" stroke-width="1"
	d="M185.10 85.00v-24.00"/>
<path class="stroke" stroke-width="1"
	d="M185.10 143.00v-24.00"/>
<path class="stroke" stroke-width="1"
	d="M311.70 85.00v-24.00"/>
<path class="stroke" stroke-width="1"
	d="M311.70 143.00v-24.00"/>
<path class="stroke" stroke-width="1"
	d="M438.20 85.00v-24.00"/>
<path class="stroke" stroke-width="1"
	d="M438.20 143.00v-24.00"/>
<path class="stroke" stroke-width="1"
	d="M565.10 85.00v-24.00"/>
<path class="stroke" stroke-width="1"
	d="M565.10 143.00v-24.00"/>
<path class="stroke" stroke-width="1"
	d="M691.60 85.00v-24.00"/>
<path class="stroke" stroke-width="1"
	d="M691.60 143.00v-24.00"/>
<path d="m10.00 85.00
	h681.60
	M10.00 79.00
	h681.60
	M10.00 73.00
	h681.60
	M10.00 67.00
	h681.60
	M10.00 61.00
	h681.60
	" class="stroke"/>
<path d="m10.00 143.00
	h681.60
	M10.00 137.00
	h681.60
	M10.00 131.00
	h681.60
	M10.00 125.00
	h681.60
	M10.00 119.00
	h681.60
	" class="stroke"/>
</g>
<g stroke-width="0.70" style="font:bold 13.00px Times">
<text x="67.20" y="51.40">I<tspan
	 style="font:italic 11.00px Times">¹</tspan></text>
</g>
<g stroke-width="0.70" style="font:bold 13.00px Times">
<text x="193.60" y="54.40">V</text>
</g>
<g stroke-width="0.70" style="font:bold 13.00px Times">
<text x="322.40" y="54.40">I</text>
</g>
<g stroke-width="0.70" style="font:bold 13.00px Times">
<text x="449.40" y="56.40">I</text>
</g>
<g stroke-width="0.70" style="font:bold 13.00px Times">
<text x="573.90" y="56.40">I<tspan
	 style="font:italic 11.00px Times">¹</tspan></text>
</g>
<g stroke-width="0.70" style="font:italic 11.00px Times">
<defs>
<path id="utclef" class="fill" d="m-50 -90
	c-72 -41 -72 -158 52 -188
	150 -10 220 188 90 256
	-114 52 -275 0 -293 -136
	-15 -181 93 -229 220 -334
	88 -87 79 -133 62 -210
	-51 33 -94 105 -89 186
	17 267 36 374 49 574
	6 96 -19 134 -77 135
	-80 1 -126 -93 -61 -133
	85 -41 133 101 31 105
	23 17 92 37 90 -92
	-10 -223 -39 -342 -50 -617
	0 -90 0 -162 96 -232
	56 72 63 230 22 289
	-74 106 -257 168 -255 316
	9 153 148 185 252 133
	86 -65 29 -192 -80 -176
	-71 12 -105 67 -59 124"/>
<use id="tclef" transform="translate(0,6) scale(0.045)"
	xlink:href="#utclef"/>
</defs>
<use x="22.00" y="79.00" xlink:href="#tclef"/>
<defs>
<path id="usharp" class="fill" d="
	m136 -702
	v890
	h32
	v-890
	m128 840
	h32
	v-888
	h-32
	m-232 286
	v116
	l338 -96
	v-116
	m-338 442
	v116
	l338 -98
	v-114"/>
<use id="sh0" transform="translate(-4,5) scale(0.018)"
	xlink:href="#usharp"/>
</defs>
<use x="37.00" y="61.00" xlink:href="#sh0"/>
<g style="font:bold 16px serif"
	transform="translate(53.00,84.50) scale(1.2,1)">
	<text text-anchor="middle">4</text>
	<text y="-12" text-anchor="middle">4</text>
</g>
<defs>
<ellipse id="hd" rx="4.1" ry="2.9"
	transform="rotate(-20)" class="fill"/>
</defs>
<use x="71.00" y="79.00" xlink:href="#hd"/>
<path d="M74.50 79.00v-21.00" class="stroke"/>
<use x="101.70" y="76.00" xlink:href="#hd"/>
<path d="M105.20 76.00v-21.00" class="stroke"/>
<use x="132.40" y="73.00" xlink:href="#hd"/>
<path d="M135.90 73.00v-21.00" class="stroke"/>
<use x="163.30" y="70.00" xlink:href="#hd"/>
<path d="M159.80 70.00v21.00" class="stroke"/>
<use x="197.60" y="67.00" xlink:href="#hd"/>
<path d="M194.10 67.00v21.00" class="stroke"/>
<use x="228.40" y="67.00" xlink:href="#hd"/>
<path d="M224.90 67.00v21.00" class="stroke"/>
<defs>
<path id="Hd" class="fill" d="m3 -1.6
	c-1 -1.8 -7 1.4 -6 3.2
	1 1.8 7 -1.4 6 -3.2
	m0.5 -0.3
	c2 3.8 -5 7.6 -7 3.8
	-2 -3.8 5 -7.6 7 -3.8"/>
</defs>
<use x="259.20" y="67.00" xlink:href="#Hd"/>
<path d="M255.70 67.00v21.00" class="stroke"/>
<use x="324.20" y="70.00" xlink:href="#hd"/>
<path d="M320.70 70.00v21.00" class="stroke"/>
<use x="354.90" y="67.00" xlink:href="#hd"/>
<path d="M351.40 67.00v21.00" class="stroke"/>
<use x="385.70" y="64.00" xlink:href="#Hd"/>
<path d="M382.20 64.00v21.00" class="stroke"/>
<use x="451.20" y="67.00" xlink:href="#Hd"/>
<circle class="fill" cx="459.90" cy="64.00" r="1.2"/>
<path d="M447.70 67.00v21.00" class="stroke"/>
<defs>
<path id="r4" class="fill" d="m-1 -8.5
	l3.6 5.1 -2.1 5.2 2.2 4.3
	c-2.6 -2.3 -5.1 0 -2.4 2.6
	-4.8 -3 -1.5 -6.9 1.4 -4.1
	l-3.1 -4.5 1.9 -5.1 -1.5 -3.5"/>
</defs>
<use x="543.30" y="73.00" xlink:href="#r4"/>
<use x="577.60" y="67.00" xlink:href="#hd"/>
<path d="M574.10 67.00v21.00" class="stroke"/>
<use x="608.40" y="67.00" xlink:href="#hd"/>
<path d="M604.90 67.00v21.00" class="stroke"/>
<use x="639.10" y="70.00" xlink:href="#hd"/>
<path d="M635.60 70.00v21.00" class="stroke"/>
<use x="669.80" y="70.00" xlink:href="#hd"/>
<path d="M666.30 70.00v21.00" class="stroke"/>
<defs>
<path id="ubclef" class="fill" d="m-200 -87
	c124 -35 222 -78 254 -236
	43 -228 -167 -246 -192 -103
	59 -80 157 22 92 78
	-62 47 -115 -22 -106 -88
	21 -141 270 -136 274 52
	-1 175 -106 264 -322 297
	m357 -250
	c0 -36 51 -34 51 0
	0 37 -51 36 -51 0
	m-2 -129
	c0 -36 51 -34 51 0
	0 38 -51 37 -51 0"/>
<use id="bclef" transform="translate(0,18) scale(0.045)"
	xlink:href="#ubclef"/>
</defs>
<use x="22.00" y="125.00" xlink:href="#bclef"/>
<use x="37.00" y="125.00" xlink:href="#sh0"/>
<g style="font:bold 16px serif"
	transform="translate(53.00,142.50) scale(1.2,1)">
	<text text-anchor="middle">4</text>
	<text y="-12" text-anchor="middle">4</text>
</g>
<use x="71.00" y="143.00" xlink:href="#hd"/>
<path d="M74.50 143.00v-21.00" class="stroke"/>
<use x="101.70" y="137.00" xlink:href="#hd"/>
<path d="M105.20 137.00v-21.00" class="stroke"/>
<use x="132.40" y="131.00" xlink:href="#hd"/>
<path d="M135.90 131.00v-21.00" class="stroke"/>
<use x="163.30" y="137.00" xlink:href="#hd"/>
<path d="M166.80 137.00v-21.00" class="stroke"/>
<use x="197.60" y="131.00" xlink:href="#hd"/>
<path d="M201.10 131.00v-21.00" class="stroke"/>
<use x="228.40" y="125.00" xlink:href="#hd"/>
<path d="M224.90 125.00v21.00" class="stroke"/>
<use x="259.20" y="119.00" xlink:href="#hd"/>
<path d="M255.70 119.00v21.00" class="stroke"/>
<use x="289.90" y="125.00" xlink:href="#hd"/>
<path d="M286.40 125.00v21.00" class="stroke"/>
<use x="324.20" y="143.00" xlink:href="#hd"/>
<path d="M327.70 143.00v-21.00" class="stroke"/>
<use x="354.90" y="137.00" xlink:href="#hd"/>
<path d="M358.40 137.00v-21.00" class="stroke"/>
<use x="385.70" y="131.00" xlink:href="#hd"/>
<path d="M389.20 131.00v-21.00" class="stroke"/>
<use x="416.40" y="137.00" xlink:href="#hd"/>
<path d="M419.90 137.00v-21.00" class="stroke"/>
<use x="451.20" y="143.00" xlink:href="#hd"/>
<path d="M454.70 143.00v-21.00" class="stroke"/>
<use x="481.90" y="137.00" xlink:href="#hd"/>
<path d="M485.40 137.00v-21.00" class="stroke"/>
<use x="512.60" y="131.00" xlink:href="#hd"/>
<path d="M516.10 131.00v-21.00" class="stroke"/>
<use x="543.30" y="137.00" xlink:href="#hd"/>
<path d="M546.80 137.00v-21.00" class="stroke"/>
<use x="577.60" y="143.00" xlink:href="#hd"/>
<path d="M581.10 143.00v-21.00" class="stroke"/>
<use x="608.40" y="137.00" xlink:href="#hd"/>
<path d="M611.90 137.00v-21.00" class="stroke"/>
<use x="639.10" y="131.00" xlink:href="#hd"/>
<path d="M642.60 131.00v-21.00" class="stroke"/>
<use x="669.80" y="137.00" xlink:href="#hd"/>
<path d="M673.30 137.00v-21.00" class="stroke"/>
</g>
<g stroke-width="0.70" style="font:italic 11.00px Times">
<path class="stroke" stroke-width="1"
	d="M10.00 273.40v-82.00"/>
<g transform="translate(10.00,191.40) scale(1,0.82)">
	<use xlink:href="#brace"/>
</g>
<path class="stroke" stroke-width="1"
	d="M172.20 215.40v-24.00"/>
<path class="stroke" stroke-width="1"
	d="M172.20 273.40v-24.00"/>
<path class="stroke" stroke-width="1"
	d="M301.80 215.40v-24.00"/>
<path class="stroke" stroke-width="1"
	d="M301.80 273.40v-24.00"/>
<path class="stroke" stroke-width="1"
	d="M431.90 215.40v-24.00"/>
<path class="stroke" stroke-width="1"
	d="M431.90 273.40v-24.00"/>
<path class="stroke" stroke-width="1"
	d="M561.50 215.40v-24.00"/>
<path class="stroke" stroke-width="1"
	d="M561.50 273.40v-24.00"/>
<path class="stroke" stroke-width="1"
	d="M691.60 215.40v-24.00"/>
<path class="stroke" stroke-width="1"
	d="M691.60 273.40v-24.00"/>
<path d="m10.00 215.40
	h681.60
	M10.00 209.40
	h681.60
	M10.00 203.40
	h681.60
	M10.00 197.40
	h681.60
	M10.00 191.40
	h681.60
	" class="stroke"/>
<path d="m10.00 273.40
	h681.60
	M10.00 267.40
	h681.60
	M10.00 261.40
	h681.60
	M10.00 255.40
	h681.60
	M10.00 249.40
	h681.60
	" class="stroke"/>
</g>
<g stroke-width="0.70" style="font:bold 13.00px Times">
<text x="50.40" y="186.80">iii</text>
</g>
<g stroke-width="0.70" style="font:bold 13.00px Times">
<text x="178.90" y="175.80">IV</text>
</g>
<g stroke-width="0.70" style="font:bold 13.00px Times">
<text x="313.00" y="181.80">I</text>
</g>
<g stroke-width="0.70" style="font:bold 13.00px Times">
<text x="440.10" y="175.80">vi</text>
</g>
<g stroke-width="0.70" style="font:bold 13.00px Times">
<text x="568.60" y="184.80">V<tspan
	 style="font:italic 11.00px Times">¹</tspan></text>
</g>
<g stroke-width="0.70" style="font:italic 11.00px Times">
<use x="22.00" y="209.40" xlink:href="#tclef"/>
<use x="37.00" y="191.40" xlink:href="#sh0"/>
<use x="55.00" y="203.40" xlink:href="#hd"/>
<path d="M51.50 203.40v21.00" class="stroke"/>
<use x="86.60" y="203.40" xlink:href="#hd"/>
<path d="M83.10 203.40v21.00" class="stroke"/>
<use x="118.20" y="206.40" xlink:href="#Hd"/>
<path d="M121.70 206.40v-21.00" class="stroke"/>
<use x="184.70" y="203.40" xlink:href="#hd"/>
<path d="M188.20 203.40v-21.00" class="stroke"/>
<use x="216.30" y="200.40" xlink:href="#hd"/>
<path d="M212.80 200.40v21.00" class="stroke"/>
<use x="247.90" y="206.40" xlink:href="#Hd"/>
<path d="M251.40 206.40v-21.00" class="stroke"/>
<use x="314.80" y="209.40" xlink:href="#Hd"/>
<circle class="fill" cx="323.50" cy="206.40" r="1.2"/>
<path d="M318.30 209.40v-21.00" class="stroke"/>
<use x="409.60" y="203.40" xlink:href="#r4"/>
<use x="444.40" y="203.40" xlink:href="#hd"/>
<path d="M447.90 203.40v-21.00" class="stroke"/>
<use x="476.00" y="206.40" xlink:href="#hd"/>
<path d="M479.50 206.40v-21.00" class="stroke"/>
<use x="507.50" y="203.40" xlink:href="#hd"/>
<path d="M511.00 203.40v-21.00" class="stroke"/>
<use x="539.20" y="200.40" xlink:href="#hd"/>
<path d="M535.70 200.40v21.00" class="stroke"/>
<use x="574.50" y="197.40" xlink:href="#Hd"/>
<circle class="fill" cx="583.20" cy="194.40" r="1.2"/>
<path d="M571.00 197.40v21.00" class="stroke"/>
<use x="669.30" y="200.40" xlink:href="#hd"/>
<path d="M665.80 200.40v21.00" class="stroke"/>
<use x="22.00" y="255.40" xlink:href="#bclef"/>
<use x="37.00" y="255.40" xlink:href="#sh0"/>
<use x="55.00" y="267.40" xlink:href="#hd"/>
<path d="M58.50 267.40v-21.00" class="stroke"/>
<use x="86.60" y="261.40" xlink:href="#hd"/>
<path d="M90.10 261.40v-21.00" class="stroke"/>
<use x="118.20" y="255.40" xlink:href="#hd"/>
<path d="M114.70 255.40v21.00" class="stroke"/>
<use x="149.80" y="261.40" xlink:href="#hd"/>
<path d="M146.30 261.40v21.00" class="stroke"/>
<use x="184.70" y="264.40" xlink:href="#hd"/>
<path d="M188.20 264.40v-21.00" class="stroke"/>
<use x="216.30" y="258.40" xlink:href="#hd"/>
<path d="M212.80 258.40v21.00" class="stroke"/>
<use x="247.90" y="252.40" xlink:href="#hd"/>
<path d="M244.40 252.40v21.00" class="stroke"/>
<use x="279.50" y="258.40" xlink:href="#hd"/>
<path d="M276.00 258.40v21.00" class="stroke"/>
<use x="314.80" y="273.40" xlink:href="#hd"/>
<path d="M318.30 273.40v-21.00" class="stroke"/>
<use x="346.40" y="267.40" xlink:href="#hd"/>
<path d="M349.90 267.40v-21.00" class="stroke"/>
<use x="378.00" y="261.40" xlink:href="#hd"/>
<path d="M381.50 261.40v-21.00" class="stroke"/>
<use x="409.60" y="267.40" xlink:href="#hd"/>
<path d="M413.10 267.40v-21.00" class="stroke"/>
<use x="444.40" y="258.40" xlink:href="#hd"/>
<path d="M440.90 258.40v21.00" class="stroke"/>
<use x="476.00" y="252.40" xlink:href="#hd"/>
<path d="M472.50 252.40v21.00" class="stroke"/>
<use x="507.50" y="246.40" xlink:href="#hd"/>
<path d="M504.00 246.40v21.00" class="stroke"/>
<use x="539.20" y="252.40" xlink:href="#hd"/>
<path d="M535.70 252.40v21.00" class="stroke"/>
<use x="574.50" y="261.40" xlink:href="#hd"/>
<path d="M571.00 261.40v21.00" class="stroke"/>
<use x="606.10" y="255.40" xlink:href="#hd"/>
<path d="M602.60 255.40v21.00" class="stroke"/>
<use x="637.70" y="249.40" xlink:href="#hd"/>
<path d="M634.20 249.40v21.00" class="stroke"/>
<use x="669.30" y="255.40" xlink:href="#hd"/>
<path d="M665.80 255.40v21.00" class="stroke"/>
</g>
<g stroke-width="0.70" style="font:italic 11.00px Times">
<path class="stroke" stroke-width="1"
	d="M10.00 401.40v-82.00"/>
<g transform="translate(10.00,319.40) scale(1,0.82)">
	<use xlink:href="#brace"/>
</g>
<path class="stroke" stroke-width="1"
	d="M172.20 343.40v-24.00"/>
<path class="stroke" stroke-width="1"
	d="M172.20 401.40v-24.00"/>
<path class="stroke" stroke-width="1"
	d="M301.50 343.40v-24.00"/>
<path class="stroke" stroke-width="1"
	d="M301.50 401.40v-24.00"/>
<path class="stroke" stroke-width="1"
	d="M431.10 343.40v-24.00"/>
<path class="stroke" stroke-width="1"
	d="M431.10 401.40v-24.00"/>
<path class="stroke" stroke-width="1"
	d="M560.80 343.40v-24.00"/>
<path class="stroke" stroke-width="1"
	d="M560.80 401.40v-24.00"/>
<path class="stroke" stroke-width="1"
	d="M691.60 343.40v-24.00"/>
<path class="stroke" stroke-width="1"
	d="M691.60 401.40v-24.00"/>
<path d="m10.00 343.40
	h681.60
	M10.00 337.40
	h681.60
	M10.00 331.40
	h681.60
	M10.00 325.40
	h681.60
	M10.00 319.40
	h681.60
	" class="stroke"/>
<path d="m10.00 401.40
	h681.60
	M10.00 395.40
	h681.60
	M10.00 389.40
	h681.60
	M10.00 383.40
	h681.60
	M10.00 377.40
	h681.60
	" class="stroke"/>
</g>
<g stroke-width="0.70" style="font:bold 13.00px Times">
<text x="49.60" y="314.80">V<tspan
	 style="font:italic 11.00px Times">⁷</tspan></text>
</g>
<g stroke-width="0.70" style="font:bold 13.00px Times">
<text x="182.90" y="314.80">I</text>
</g>
<g stroke-width="0.70" style="font:bold 13.00px Times">
<text x="310.70" y="312.80">I<tspan
	 style="font:italic 11.00px Times">⁷</tspan></text>
</g>
<g stroke-width="0.70" style="font:bold 13.00px Times">
<text x="439.90" y="314.80">vi</text>
</g>
<g stroke-width="0.70" style="font:bold 13.00px Times">
<text x="567.10" y="314.80">IV<tspan
	 style="font:italic 11.00px Times">⁷</tspan></text>
</g>
<g stroke-width="0.70" style="font:italic 11.00px Times">
<use x="22.00" y="337.40" xlink:href="#tclef"/>
<use x="37.00" y="319.40" xlink:href="#sh0"/>
<use x="55.50" y="331.40" xlink:href="#Hd"/>
<path d="M52.00 331.40v21.00" class="stroke"/>
<defs>
<rect id="r2" class="fill"
	x="-3.5" y="-3" width="7" height="3"/>
</defs>
<use x="118.40" y="331.40" xlink:href="#r2"/>
<use x="184.70" y="331.40" xlink:href="#hd"/>
<path d="M181.20 331.40v21.00" class="stroke"/>
<use x="216.20" y="334.40" xlink:href="#hd"/>
<path d="M219.70 334.40v-21.00" class="stroke"/>
<use x="247.60" y="331.40" xlink:href="#hd"/>
<path d="M251.10 331.40v-21.00" class="stroke"/>
<use x="279.20" y="328.40" xlink:href="#hd"/>
<path d="M275.70 328.40v21.00" class="stroke"/>
<use x="314.50" y="325.40" xlink:href="#Hd"/>
<circle class="fill" cx="323.20" cy="322.40" r="1.2"/>
<path d="M311.00 325.40v21.00" class="stroke"/>
<use x="408.90" y="328.40" xlink:href="#hd"/>
<path d="M405.40 328.40v21.00" class="stroke"/>
<use x="444.10" y="331.40" xlink:href="#Hd"/>
<path d="M440.60 331.40v21.00" class="stroke"/>
<use x="507.10" y="331.40" xlink:href="#r2"/>
<defs>
<rect id="r1" class="fill"
	x="-3.5" y="-6" width="7" height="3"/>
</defs>
<use x="626.20" y="331.40" xlink:href="#r1"/>
<use x="22.00" y="383.40" xlink:href="#bclef"/>
<use x="37.00" y="383.40" xlink:href="#sh0"/>
<use x="55.50" y="389.40" xlink:href="#hd"/>
<path d="M52.00 389.40v21.00" class="stroke"/>
<use x="87.00" y="383.40" xlink:href="#hd"/>
<path d="M83.50 383.40v21.00" class="stroke"/>
<use x="118.40" y="377.40" xlink:href="#hd"/>
<path d="M114.90 377.40v21.00" class="stroke"/>
<use x="149.90" y="383.40" xlink:href="#hd"/>
<path d="M146.40 383.40v21.00" class="stroke"/>
<use x="184.70" y="401.40" xlink:href="#hd"/>
<path d="M188.20 401.40v-21.00" class="stroke"/>
<use x="216.20" y="395.40" xlink:href="#hd"/>
<path d="M219.70 395.40v-21.00" class="stroke"/>
<use x="247.60" y="389.40" xlink:href="#hd"/>
<path d="M251.10 389.40v-21.00" class="stroke"/>
<use x="279.20" y="395.40" xlink:href="#hd"/>
<path d="M282.70 395.40v-21.00" class="stroke"/>
<use x="314.50" y="401.40" xlink:href="#hd"/>
<path d="M318.00 401.40v-21.00" class="stroke"/>
<use x="345.90" y="395.40" xlink:href="#hd"/>
<path d="M349.40 395.40v-21.00" class="stroke"/>
<use x="377.40" y="389.40" xlink:href="#hd"/>
<path d="M380.90 389.40v-21.00" class="stroke"/>
<use x="408.90" y="395.40" xlink:href="#hd"/>
<path d="M412.40 395.40v-21.00" class="stroke"/>
<use x="444.10" y="386.40" xlink:href="#hd"/>
<path d="M440.60 386.40v21.00" class="stroke"/>
<use x="475.60" y="380.40" xlink:href="#hd"/>
<path d="M472.10 380.40v21.00" class="stroke"/>
<use x="507.10" y="374.40" xlink:href="#hd"/>
<path d="M503.60 374.40v21.00" class="stroke"/>
<use x="538.60" y="380.40" xlink:href="#hd"/>
<path d="M535.10 380.40v21.00" class="stroke"/>
<use x="574.80" y="392.40" xlink:href="#hd"/>
<path d="M578.30 392.40v-21.00" class="stroke"/>
<use x="606.40" y="386.40" xlink:href="#hd"/>
<path d="M602.90 386.40v21.00" class="stroke"/>
<use x="637.90" y="380.40" xlink:href="#hd"/>
<path d="M634.40 380.40v21.00" class="stroke"/>
<use x="669.30" y="386.40" xlink:href="#hd"/>
<path d="M665.80 386.40v21.00" class="stroke"/>
</g>
<g stroke-width="0.70" style="font:italic 11.00px Times">
<path class="stroke" stroke-width="1"
	d="M10.00 529.40v-82.00"/>
<g transform="translate(10.00,447.40) scale(1,0.82)">
	<use xlink:href="#brace"/>
</g>
<path class="stroke" stroke-width="1"
	d="M254.80 471.40v-24.00"/>
<path class="stroke" stroke-width="1"
	d="M254.80 529.40v-24.00"/>
<path class="stroke" stroke-width="1"
	d="M473.20 471.40v-24.00"/>
<path class="stroke" stroke-width="1"
	d="M473.20 529.40v-24.00"/>
<path class="stroke" stroke-width="1"
	d="M691.60 471.40v-24.00"/>
<path class="stroke" stroke-width="1"
	d="M691.60 529.40v-24.00"/>
<path d="m10.00 471.40
	h681.60
	M10.00 465.40
	h681.60
	M10.00 459.40
	h681.60
	M10.00 453.40
	h681.60
	M10.00 447.40
	h681.60
	" class="stroke"/>
<path d="m10.00 529.40
	h681.60
	M10.00 523.40
	h681.60
	M10.00 517.40
	h681.60
	M10.00 511.40
	h681.60
	M10.00 505.40
	h681.60
	" class="stroke"/>
</g>
<g stroke-width="0.70" style="font:bold 13.00px Times">
<text x="49.70" y="437.80">IV</text>
</g>
<g stroke-width="0.70" style="font:bold 13.00px Times">
<text x="269.90" y="442.80">V</text>
</g>
<g stroke-width="0.70" style="font:bold 13.00px Times">
<text x="490.50" y="442.80">I</text>
<use x="22.00" y="465.40" xlink:href="#tclef"/>
<use x="37.00" y="447.40" xlink:href="#sh0"/>
<use x="55.50" y="465.40" xlink:href="#Hd"/>
<path d="M59.00 465.40v-21.00" class="stroke"/>
<use x="163.20" y="450.40" xlink:href="#Hd"/>
<path d="M159.70 450.40v21.00" class="stroke"/>
<use x="273.90" y="453.40" xlink:href="#hd"/>
<path d="M270.40 453.40v21.00" class="stroke"/>
<use x="327.80" y="459.40" xlink:href="#hd"/>
<path d="M324.30 459.40v21.00" class="stroke"/>
<use x="381.60" y="462.40" xlink:href="#Hd"/>
<path d="M385.10 462.40v-21.00" class="stroke"/>
<defs>
<path id="HD" class="fill" d="m-2.7 -1.4
	c1.5 -2.8 6.9 0 5.3 2.7
	-1.5 2.8 -6.9 0 -5.3 -2.7
	m8.3 1.4
	c0 -1.5 -2.2 -3 -5.6 -3
	-3.4 0 -5.6 1.5 -5.6 3
	0 1.5 2.2 3 5.6 3
	3.4 0 5.6 -1.5 5.6 -3"/>
</defs>
<use x="493.30" y="465.40" xlink:href="#HD"/>
<use x="22.00" y="511.40" xlink:href="#bclef"/>
<use x="37.00" y="511.40" xlink:href="#sh0"/>
<use x="55.50" y="520.40" xlink:href="#hd"/>
<path d="M59.00 520.40v-21.00" class="stroke"/>
<use x="109.40" y="514.40" xlink:href="#hd"/>
<path d="M105.90 514.40v21.00" class="stroke"/>
<use x="163.20" y="508.40" xlink:href="#hd"/>
<path d="M159.70 508.40v21.00" class="stroke"/>
<use x="217.10" y="514.40" xlink:href="#hd"/>
<path d="M213.60 514.40v21.00" class="stroke"/>
<use x="273.90" y="517.40" xlink:href="#hd"/>
<path d="M270.40 517.40v21.00" class="stroke"/>
<use x="327.80" y="511.40" xlink:href="#hd"/>
<path d="M324.30 511.40v21.00" class="stroke"/>
<use x="381.60" y="505.40" xlink:href="#hd"/>
<path d="M378.10 505.40v21.00" class="stroke"/>
<use x="435.50" y="511.40" xlink:href="#hd"/>
<path d="M432.00 511.40v21.00" class="stroke"/>
<use x="492.30" y="529.40" xlink:href="#hd"/>
<path d="M495.80 529.40v-21.00" class="stroke"/>
<use x="546.10" y="523.40" xlink:href="#hd"/>
<path d="M549.60 523.40v-21.00" class="stroke"/>
<use x="600.00" y="517.40" xlink:href="#hd"/>
<path d="M603.50 517.40v-21.00" class="stroke"/>
<use x="653.90" y="523.40" xlink:href="#hd"/>
<path d="M657.40 523.40v-21.00" class="stroke"/>
</g>
</svg>
