<?xml version="1.0" standalone="no"?>
<!DOCTYPE svg PUBLIC "-//W3C//DTD SVG 1.1//EN"
	"http://www.w3.org/Graphics/SVG/1.1/DTD/svg11.dtd">
<svg xmlns="http://www.w3.org/2000/svg" version="1.1"
	xmlns:xlink="http://www.w3.org/1999/xlink"
	color="black"
	width="701.60px" height="943.60px" viewBox="0 0 701.60 943.60" preserveAspectRatio="xMidYMid meet">
<style type="text/css">
.fill {fill: currentColor}
.stroke {stroke: currentColor; fill: none}
text{white-space: pre}
</style>
<title>/tmp/retab_hymnal_L3/lord_thee_i_love_with_all_my_heart.abc (1) tune 1</title>
<!-- Creator: abcm2ps-8.14.11 -->
<!-- CreationDate: Apr 24, 2026 15:38 -->
<!-- CommandLine: /tmp/retab_hymnal_L3/lord_thee_i_love_with_all_my_heart.abc -g -O /tmp/retab_hymnal_L3/lord_thee_i_love_with_all_my_heart -->
<g stroke-width="0.70">
<!-- title: 151. Lord, Thee I Love with All My Heart -->
</g>
<g stroke-width="0.70" style="font:20.00px Times">
<text x="350.80" y="22.00" text-anchor="middle">151. Lord, Thee I Love with All My Heart</text>
</g>
<g stroke-width="0.70" style="font:20.00px Times">
<path class="stroke" stroke-width="1"
	d="M10.00 143.00v-82.00"/>
<defs>
<path id="brace" class="fill" d="m-2.5 101
	c-4.5 -4.6 -7.5 -12.2 -4.4 -26.8
	3.5 -14.3 3.2 -21.7 -2.1 -24.2
	7.4 2.4 7.3 14.2 3.5 29.5
	-2.7 9.5 -1.5 16.2 3 21.5
	M-2.5 1c-4.5 4.6 -7.5 12.2 -4.4 26.8
	c3.5 14.3 3.2 21.7 -2.1 24.2
	7.4 -2.4 7.3 -14.2 3.5 -29.5
	-2.7 -9.5 -1.5 -16.2 3 -21.5"/>
</defs>
<g transform="translate(10.00,61.00) scale(1,0.82)">
	<use xlink:href="#brace"/>
</g>
<path class="stroke" stroke-width="1"
	d="M183.90 85.00v-24.00"/>
<path class="stroke" stroke-width="1"
	d="M183.90 143.00v-24.00"/>
<path class="stroke" stroke-width="1"
	d="M316.00 85.00v-24.00"/>
<path class="stroke" stroke-width="1"
	d="M316.00 143.00v-24.00"/>
<path class="stroke" stroke-width="1"
	d="M435.90 85.00v-24.00"/>
<path class="stroke" stroke-width="1"
	d="M435.90 143.00v-24.00"/>
<path class="stroke" stroke-width="1"
	d="M572.40 85.00v-24.00"/>
<path class="stroke" stroke-width="1"
	d="M572.40 143.00v-24.00"/>
<path class="stroke" stroke-width="1"
	d="M691.60 85.00v-24.00"/>
<path class="stroke" stroke-width="1"
	d="M691.60 143.00v-24.00"/>
<path d="m10.00 85.00
	h681.60
	M10.00 79.00
	h681.60
	M10.00 73.00
	h681.60
	M10.00 67.00
	h681.60
	M10.00 61.00
	h681.60
	" class="stroke"/>
<path d="m10.00 143.00
	h681.60
	M10.00 137.00
	h681.60
	M10.00 131.00
	h681.60
	M10.00 125.00
	h681.60
	M10.00 119.00
	h681.60
	" class="stroke"/>
</g>
<g stroke-width="0.70" style="font:bold 13.00px Times">
<text x="75.20" y="56.40">I</text>
</g>
<g stroke-width="0.70" style="font:bold 13.00px Times">
<text x="190.50" y="54.40">V<tspan
	 style="font:italic 11.00px Times">¹</tspan></text>
</g>
<g stroke-width="0.70" style="font:bold 13.00px Times">
<text x="327.20" y="54.40">I</text>
</g>
<g stroke-width="0.70" style="font:bold 13.00px Times">
<text x="443.90" y="48.40">iii</text>
</g>
<g stroke-width="0.70" style="font:bold 13.00px Times">
<text x="579.10" y="51.40">IV</text>
<defs>
<path id="utclef" class="fill" d="m-50 -90
	c-72 -41 -72 -158 52 -188
	150 -10 220 188 90 256
	-114 52 -275 0 -293 -136
	-15 -181 93 -229 220 -334
	88 -87 79 -133 62 -210
	-51 33 -94 105 -89 186
	17 267 36 374 49 574
	6 96 -19 134 -77 135
	-80 1 -126 -93 -61 -133
	85 -41 133 101 31 105
	23 17 92 37 90 -92
	-10 -223 -39 -342 -50 -617
	0 -90 0 -162 96 -232
	56 72 63 230 22 289
	-74 106 -257 168 -255 316
	9 153 148 185 252 133
	86 -65 29 -192 -80 -176
	-71 12 -105 67 -59 124"/>
<use id="tclef" transform="translate(0,6) scale(0.045)"
	xlink:href="#utclef"/>
</defs>
<use x="22.00" y="79.00" xlink:href="#tclef"/>
<defs>
<path id="uflat" class="fill" d="
	m100 -746
	h32
	v734
	l-32 4
	m32 -332
	c46 -72 152 -90 208 -20
	100 110 -120 326 -208 348
	m0 -28
	c54 0 200 -206 130 -290
	-50 -60 -130 -4 -130 34"/>
<use id="ft0" transform="translate(-3.5,3.5) scale(0.018)"
	xlink:href="#uflat"/>
</defs>
<use x="37.00" y="73.00" xlink:href="#ft0"/>
<use x="42.50" y="64.00" xlink:href="#ft0"/>
<g style="font:bold 16px serif"
	transform="translate(58.50,84.50) scale(1.2,1)">
	<text text-anchor="middle">4</text>
	<text y="-12" text-anchor="middle">4</text>
</g>
<defs>
<path id="Hd" class="fill" d="m3 -1.6
	c-1 -1.8 -7 1.4 -6 3.2
	1 1.8 7 -1.4 6 -3.2
	m0.5 -0.3
	c2 3.8 -5 7.6 -7 3.8
	-2 -3.8 5 -7.6 7 -3.8"/>
</defs>
<use x="77.00" y="73.00" xlink:href="#Hd"/>
<path d="M73.50 73.00v21.00" class="stroke"/>
<defs>
<ellipse id="hd" rx="4.1" ry="2.9"
	transform="rotate(-20)" class="fill"/>
</defs>
<use x="134.60" y="76.00" xlink:href="#hd"/>
<path d="M138.10 76.00v-21.00" class="stroke"/>
<use x="163.30" y="79.00" xlink:href="#hd"/>
<path d="M166.80 79.00v-21.00" class="stroke"/>
<use x="196.40" y="82.00" xlink:href="#hd"/>
<path d="M199.90 82.00v-21.00" class="stroke"/>
<use x="225.10" y="85.00" xlink:href="#hd"/>
<path d="M228.60 85.00v-21.00" class="stroke"/>
<path class="fill"
	d="M228.60 64.00c0.6 5.6 9.6 9 5.6 18.4
	1.6 -6 -1.3 -11.6 -5.6 -12.8
"/>
<use x="245.90" y="88.00" xlink:href="#hd"/>
<path d="M249.40 88.00v-21.00" class="stroke"/>
<path class="fill"
	d="M249.40 67.00c0.6 5.6 9.6 9 5.6 18.4
	1.6 -6 -1.3 -11.6 -5.6 -12.8
"/>
<use x="266.80" y="79.00" xlink:href="#hd"/>
<path d="M270.30 79.00v-21.00" class="stroke"/>
<use x="295.50" y="79.00" xlink:href="#hd"/>
<path d="M299.00 79.00v-21.00" class="stroke"/>
<use x="329.00" y="82.00" xlink:href="#Hd"/>
<path d="M332.50 82.00v-21.00" class="stroke"/>
<use x="386.70" y="73.00" xlink:href="#Hd"/>
<path d="M390.20 73.00v-21.00" class="stroke"/>
<use x="448.40" y="76.00" xlink:href="#hd"/>
<path d="M451.90 76.00v-21.00" class="stroke"/>
<use x="477.10" y="79.00" xlink:href="#hd"/>
<path d="M480.60 79.00v-21.00" class="stroke"/>
<use x="505.90" y="82.00" xlink:href="#hd"/>
<path d="M509.40 82.00v-21.00" class="stroke"/>
<use x="534.60" y="85.00" xlink:href="#hd"/>
<path d="M538.10 85.00v-21.00" class="stroke"/>
<path class="fill"
	d="M538.10 64.00c0.6 5.6 9.6 9 5.6 18.4
	1.6 -6 -1.3 -11.6 -5.6 -12.8
"/>
<use x="555.40" y="88.00" xlink:href="#hd"/>
<path d="M558.90 88.00v-21.00" class="stroke"/>
<path class="fill"
	d="M558.90 67.00c0.6 5.6 9.6 9 5.6 18.4
	1.6 -6 -1.3 -11.6 -5.6 -12.8
"/>
<use x="584.90" y="79.00" xlink:href="#hd"/>
<path d="M588.40 79.00v-21.00" class="stroke"/>
<use x="613.60" y="79.00" xlink:href="#hd"/>
<path d="M617.10 79.00v-21.00" class="stroke"/>
<use x="642.30" y="82.00" xlink:href="#hd"/>
<path d="M645.80 82.00v-21.00" class="stroke"/>
<use x="671.00" y="82.00" xlink:href="#hd"/>
<path d="M674.50 82.00v-21.00" class="stroke"/>
<defs>
<path id="ubclef" class="fill" d="m-200 -87
	c124 -35 222 -78 254 -236
	43 -228 -167 -246 -192 -103
	59 -80 157 22 92 78
	-62 47 -115 -22 -106 -88
	21 -141 270 -136 274 52
	-1 175 -106 264 -322 297
	m357 -250
	c0 -36 51 -34 51 0
	0 37 -51 36 -51 0
	m-2 -129
	c0 -36 51 -34 51 0
	0 38 -51 37 -51 0"/>
<use id="bclef" transform="translate(0,18) scale(0.045)"
	xlink:href="#ubclef"/>
</defs>
<use x="22.00" y="125.00" xlink:href="#bclef"/>
<use x="37.00" y="137.00" xlink:href="#ft0"/>
<use x="42.50" y="128.00" xlink:href="#ft0"/>
<g style="font:bold 16px serif"
	transform="translate(58.50,142.50) scale(1.2,1)">
	<text text-anchor="middle">4</text>
	<text y="-12" text-anchor="middle">4</text>
</g>
<use x="77.00" y="137.00" xlink:href="#hd"/>
<path d="M80.50 137.00v-21.00" class="stroke"/>
<use x="105.70" y="131.00" xlink:href="#hd"/>
<path d="M109.20 131.00v-21.00" class="stroke"/>
<use x="134.60" y="125.00" xlink:href="#hd"/>
<path d="M131.10 125.00v21.00" class="stroke"/>
<use x="163.30" y="131.00" xlink:href="#hd"/>
<path d="M159.80 131.00v21.00" class="stroke"/>
<use x="196.40" y="125.00" xlink:href="#hd"/>
<path d="M192.90 125.00v21.00" class="stroke"/>
<use x="225.10" y="119.00" xlink:href="#hd"/>
<path d="M221.60 119.00v21.00" class="stroke"/>
<defs>
<path id="hl" class="stroke" d="m-6 0h12"/>
</defs>
<use x="266.80" y="113.00" xlink:href="#hl"/>
<use x="266.80" y="113.00" xlink:href="#hd"/>
<path d="M263.30 113.00v21.00" class="stroke"/>
<use x="295.50" y="119.00" xlink:href="#hd"/>
<path d="M292.00 119.00v21.00" class="stroke"/>
<use x="329.00" y="137.00" xlink:href="#hd"/>
<path d="M332.50 137.00v-21.00" class="stroke"/>
<use x="357.80" y="131.00" xlink:href="#hd"/>
<path d="M361.30 131.00v-21.00" class="stroke"/>
<use x="386.70" y="125.00" xlink:href="#hd"/>
<path d="M383.20 125.00v21.00" class="stroke"/>
<use x="415.40" y="131.00" xlink:href="#hd"/>
<path d="M411.90 131.00v21.00" class="stroke"/>
<use x="448.40" y="131.00" xlink:href="#hd"/>
<path d="M444.90 131.00v21.00" class="stroke"/>
<use x="477.10" y="125.00" xlink:href="#hd"/>
<path d="M473.60 125.00v21.00" class="stroke"/>
<use x="505.90" y="119.00" xlink:href="#hd"/>
<path d="M502.40 119.00v21.00" class="stroke"/>
<use x="534.60" y="125.00" xlink:href="#hd"/>
<path d="M531.10 125.00v21.00" class="stroke"/>
<use x="584.90" y="128.00" xlink:href="#hd"/>
<path d="M581.40 128.00v21.00" class="stroke"/>
<use x="613.60" y="122.00" xlink:href="#hd"/>
<path d="M610.10 122.00v21.00" class="stroke"/>
<use x="642.30" y="116.00" xlink:href="#hd"/>
<path d="M638.80 116.00v21.00" class="stroke"/>
<use x="671.00" y="122.00" xlink:href="#hd"/>
<path d="M667.50 122.00v21.00" class="stroke"/>
</g>
<g stroke-width="0.70" style="font:bold 13.00px Times">
<path class="stroke" stroke-width="1"
	d="M10.00 273.40v-82.00"/>
<g transform="translate(10.00,191.40) scale(1,0.82)">
	<use xlink:href="#brace"/>
</g>
<path class="stroke" stroke-width="1"
	d="M173.80 215.40v-24.00"/>
<path class="stroke" stroke-width="1"
	d="M173.80 273.40v-24.00"/>
<path class="stroke" stroke-width="1"
	d="M299.40 215.40v-24.00"/>
<path class="stroke" stroke-width="1"
	d="M299.40 273.40v-24.00"/>
<path class="stroke" stroke-width="1"
	d="M426.50 215.40v-24.00"/>
<path class="stroke" stroke-width="1"
	d="M426.50 273.40v-24.00"/>
<path class="stroke" stroke-width="1"
	d="M552.70 215.40v-24.00"/>
<path class="stroke" stroke-width="1"
	d="M552.70 273.40v-24.00"/>
<path class="stroke" stroke-width="1"
	d="M691.60 215.40v-24.00"/>
<path class="stroke" stroke-width="1"
	d="M691.60 273.40v-24.00"/>
<path d="m10.00 215.40
	h681.60
	M10.00 209.40
	h681.60
	M10.00 203.40
	h681.60
	M10.00 197.40
	h681.60
	M10.00 191.40
	h681.60
	" class="stroke"/>
<path d="m10.00 273.40
	h681.60
	M10.00 267.40
	h681.60
	M10.00 261.40
	h681.60
	M10.00 255.40
	h681.60
	M10.00 249.40
	h681.60
	" class="stroke"/>
</g>
<g stroke-width="0.70" style="font:bold 13.00px Times">
<text x="57.50" y="181.80">ii</text>
</g>
<g stroke-width="0.70" style="font:bold 13.00px Times">
<text x="182.40" y="184.80">V</text>
</g>
<g stroke-width="0.70" style="font:bold 13.00px Times">
<text x="311.50" y="186.80">I</text>
</g>
<g stroke-width="0.70" style="font:bold 13.00px Times">
<text x="437.70" y="175.80">I</text>
</g>
<g stroke-width="0.70" style="font:bold 13.00px Times">
<text x="559.30" y="184.80">V<tspan
	 style="font:italic 11.00px Times">¹</tspan></text>
</g>
<g stroke-width="0.70" style="font:italic 11.00px Times">
<use x="22.00" y="209.40" xlink:href="#tclef"/>
<use x="37.00" y="203.40" xlink:href="#ft0"/>
<use x="42.50" y="194.40" xlink:href="#ft0"/>
<use x="60.50" y="209.40" xlink:href="#hd"/>
<path d="M64.00 209.40v-21.00" class="stroke"/>
<use x="91.10" y="206.40" xlink:href="#hd"/>
<path d="M94.60 206.40v-21.00" class="stroke"/>
<use x="121.60" y="203.40" xlink:href="#hd"/>
<path d="M125.10 203.40v-21.00" class="stroke"/>
<use x="152.20" y="197.40" xlink:href="#hd"/>
<path d="M148.70 197.40v21.00" class="stroke"/>
<use x="186.30" y="200.40" xlink:href="#hd"/>
<path d="M182.80 200.40v21.00" class="stroke"/>
<use x="216.80" y="203.40" xlink:href="#Hd"/>
<path d="M213.30 203.40v21.00" class="stroke"/>
<use x="277.70" y="206.40" xlink:href="#hd"/>
<path d="M281.20 206.40v-21.00" class="stroke"/>
<defs>
<path id="HD" class="fill" d="m-2.7 -1.4
	c1.5 -2.8 6.9 0 5.3 2.7
	-1.5 2.8 -6.9 0 -5.3 -2.7
	m8.3 1.4
	c0 -1.5 -2.2 -3 -5.6 -3
	-3.4 0 -5.6 1.5 -5.6 3
	0 1.5 2.2 3 5.6 3
	3.4 0 5.6 -1.5 5.6 -3"/>
</defs>
<use x="314.40" y="203.40" xlink:href="#HD"/>
<use x="439.50" y="203.40" xlink:href="#Hd"/>
<path d="M443.00 203.40v-21.00" class="stroke"/>
<use x="500.60" y="206.40" xlink:href="#hd"/>
<path d="M504.10 206.40v-21.00" class="stroke"/>
<use x="531.10" y="209.40" xlink:href="#hd"/>
<path d="M534.60 209.40v-21.00" class="stroke"/>
<use x="565.20" y="212.40" xlink:href="#hd"/>
<path d="M568.70 212.40v-21.00" class="stroke"/>
<use x="595.70" y="215.40" xlink:href="#hd"/>
<path d="M599.20 215.40v-21.00" class="stroke"/>
<path class="fill"
	d="M599.20 194.40c0.6 5.6 9.6 9 5.6 18.4
	1.6 -6 -1.3 -11.6 -5.6 -12.8
"/>
<use x="617.60" y="218.40" xlink:href="#hd"/>
<path d="M621.10 218.40v-21.00" class="stroke"/>
<path class="fill"
	d="M621.10 197.40c0.6 5.6 9.6 9 5.6 18.4
	1.6 -6 -1.3 -11.6 -5.6 -12.8
"/>
<use x="639.50" y="209.40" xlink:href="#hd"/>
<path d="M643.00 209.40v-21.00" class="stroke"/>
<use x="670.00" y="209.40" xlink:href="#hd"/>
<path d="M673.50 209.40v-21.00" class="stroke"/>
<use x="22.00" y="255.40" xlink:href="#bclef"/>
<use x="37.00" y="267.40" xlink:href="#ft0"/>
<use x="42.50" y="258.40" xlink:href="#ft0"/>
<use x="60.50" y="264.40" xlink:href="#hd"/>
<path d="M64.00 264.40v-21.00" class="stroke"/>
<use x="91.10" y="258.40" xlink:href="#hd"/>
<path d="M87.60 258.40v21.00" class="stroke"/>
<use x="121.60" y="252.40" xlink:href="#hd"/>
<path d="M118.10 252.40v21.00" class="stroke"/>
<use x="152.20" y="258.40" xlink:href="#hd"/>
<path d="M148.70 258.40v21.00" class="stroke"/>
<use x="186.30" y="255.40" xlink:href="#hd"/>
<path d="M182.80 255.40v21.00" class="stroke"/>
<use x="216.80" y="249.40" xlink:href="#hd"/>
<path d="M213.30 249.40v21.00" class="stroke"/>
<use x="247.30" y="243.40" xlink:href="#hl"/>
<use x="247.30" y="243.40" xlink:href="#hd"/>
<path d="M243.80 243.40v21.00" class="stroke"/>
<use x="277.70" y="249.40" xlink:href="#hd"/>
<path d="M274.20 249.40v21.00" class="stroke"/>
<use x="313.40" y="267.40" xlink:href="#hd"/>
<path d="M316.90 267.40v-21.00" class="stroke"/>
<use x="343.80" y="261.40" xlink:href="#hd"/>
<path d="M347.30 261.40v-21.00" class="stroke"/>
<use x="374.40" y="255.40" xlink:href="#hd"/>
<path d="M370.90 255.40v21.00" class="stroke"/>
<use x="404.90" y="261.40" xlink:href="#hd"/>
<path d="M401.40 261.40v21.00" class="stroke"/>
<use x="439.50" y="267.40" xlink:href="#hd"/>
<path d="M443.00 267.40v-21.00" class="stroke"/>
<use x="470.00" y="261.40" xlink:href="#hd"/>
<path d="M473.50 261.40v-21.00" class="stroke"/>
<use x="500.60" y="255.40" xlink:href="#hd"/>
<path d="M497.10 255.40v21.00" class="stroke"/>
<use x="531.10" y="261.40" xlink:href="#hd"/>
<path d="M527.60 261.40v21.00" class="stroke"/>
<use x="565.20" y="255.40" xlink:href="#hd"/>
<path d="M561.70 255.40v21.00" class="stroke"/>
<use x="595.70" y="249.40" xlink:href="#hd"/>
<path d="M592.20 249.40v21.00" class="stroke"/>
<use x="639.50" y="243.40" xlink:href="#hl"/>
<use x="639.50" y="243.40" xlink:href="#hd"/>
<path d="M636.00 243.40v21.00" class="stroke"/>
<use x="670.00" y="249.40" xlink:href="#hd"/>
<path d="M666.50 249.40v21.00" class="stroke"/>
</g>
<g stroke-width="0.70" style="font:italic 11.00px Times">
<path class="stroke" stroke-width="1"
	d="M10.00 401.40v-82.00"/>
<g transform="translate(10.00,319.40) scale(1,0.82)">
	<use xlink:href="#brace"/>
</g>
<path class="stroke" stroke-width="1"
	d="M173.70 343.40v-24.00"/>
<path class="stroke" stroke-width="1"
	d="M173.70 401.40v-24.00"/>
<path class="stroke" stroke-width="1"
	d="M316.10 343.40v-24.00"/>
<path class="stroke" stroke-width="1"
	d="M316.10 401.40v-24.00"/>
<path class="stroke" stroke-width="1"
	d="M441.20 343.40v-24.00"/>
<path class="stroke" stroke-width="1"
	d="M441.20 401.40v-24.00"/>
<path class="stroke" stroke-width="1"
	d="M566.50 343.40v-24.00"/>
<path class="stroke" stroke-width="1"
	d="M566.50 401.40v-24.00"/>
<path class="stroke" stroke-width="1"
	d="M691.60 343.40v-24.00"/>
<path class="stroke" stroke-width="1"
	d="M691.60 401.40v-24.00"/>
<path d="m10.00 343.40
	h681.60
	M10.00 337.40
	h681.60
	M10.00 331.40
	h681.60
	M10.00 325.40
	h681.60
	M10.00 319.40
	h681.60
	" class="stroke"/>
<path d="m10.00 401.40
	h681.60
	M10.00 395.40
	h681.60
	M10.00 389.40
	h681.60
	M10.00 383.40
	h681.60
	M10.00 377.40
	h681.60
	" class="stroke"/>
</g>
<g stroke-width="0.70" style="font:bold 13.00px Times">
<text x="59.20" y="312.80">I</text>
</g>
<g stroke-width="0.70" style="font:bold 13.00px Times">
<text x="181.70" y="306.80">iii</text>
</g>
<g stroke-width="0.70" style="font:bold 13.00px Times">
<text x="322.80" y="309.80">IV</text>
</g>
<g stroke-width="0.70" style="font:bold 13.00px Times">
<text x="450.60" y="309.80">ii</text>
</g>
<g stroke-width="0.70" style="font:bold 13.00px Times">
<text x="575.00" y="312.80">V</text>
<use x="22.00" y="337.40" xlink:href="#tclef"/>
<use x="37.00" y="331.40" xlink:href="#ft0"/>
<use x="42.50" y="322.40" xlink:href="#ft0"/>
<use x="61.00" y="340.40" xlink:href="#Hd"/>
<path d="M64.50 340.40v-21.00" class="stroke"/>
<use x="121.80" y="331.40" xlink:href="#Hd"/>
<path d="M125.30 331.40v-21.00" class="stroke"/>
<use x="186.20" y="334.40" xlink:href="#hd"/>
<path d="M189.70 334.40v-21.00" class="stroke"/>
<use x="216.60" y="337.40" xlink:href="#hd"/>
<path d="M220.10 337.40v-21.00" class="stroke"/>
<use x="246.90" y="340.40" xlink:href="#hd"/>
<path d="M250.40 340.40v-21.00" class="stroke"/>
<use x="277.30" y="343.40" xlink:href="#hd"/>
<path d="M280.80 343.40v-21.00" class="stroke"/>
<path class="fill"
	d="M280.80 322.40c0.6 5.6 9.6 9 5.6 18.4
	1.6 -6 -1.3 -11.6 -5.6 -12.8
"/>
<use x="299.10" y="346.40" xlink:href="#hd"/>
<path d="M302.60 346.40v-21.00" class="stroke"/>
<path class="fill"
	d="M302.60 325.40c0.6 5.6 9.6 9 5.6 18.4
	1.6 -6 -1.3 -11.6 -5.6 -12.8
"/>
<use x="328.60" y="337.40" xlink:href="#hd"/>
<path d="M332.10 337.40v-21.00" class="stroke"/>
<use x="358.90" y="337.40" xlink:href="#hd"/>
<path d="M362.40 337.40v-21.00" class="stroke"/>
<use x="389.30" y="340.40" xlink:href="#hd"/>
<path d="M392.80 340.40v-21.00" class="stroke"/>
<use x="419.60" y="340.40" xlink:href="#hd"/>
<path d="M423.10 340.40v-21.00" class="stroke"/>
<use x="453.70" y="337.40" xlink:href="#hd"/>
<path d="M457.20 337.40v-21.00" class="stroke"/>
<use x="484.10" y="334.40" xlink:href="#hd"/>
<path d="M487.60 334.40v-21.00" class="stroke"/>
<use x="514.50" y="331.40" xlink:href="#hd"/>
<path d="M518.00 331.40v-21.00" class="stroke"/>
<use x="544.90" y="325.40" xlink:href="#hd"/>
<path d="M541.40 325.40v21.00" class="stroke"/>
<use x="579.00" y="328.40" xlink:href="#hd"/>
<path d="M575.50 328.40v21.00" class="stroke"/>
<use x="609.40" y="331.40" xlink:href="#Hd"/>
<path d="M605.90 331.40v21.00" class="stroke"/>
<use x="670.10" y="334.40" xlink:href="#hd"/>
<path d="M673.60 334.40v-21.00" class="stroke"/>
<use x="22.00" y="383.40" xlink:href="#bclef"/>
<use x="37.00" y="395.40" xlink:href="#ft0"/>
<use x="42.50" y="386.40" xlink:href="#ft0"/>
<use x="61.00" y="395.40" xlink:href="#hd"/>
<path d="M64.50 395.40v-21.00" class="stroke"/>
<use x="91.30" y="389.40" xlink:href="#hd"/>
<path d="M94.80 389.40v-21.00" class="stroke"/>
<use x="121.80" y="383.40" xlink:href="#hd"/>
<path d="M118.30 383.40v21.00" class="stroke"/>
<use x="152.20" y="389.40" xlink:href="#hd"/>
<path d="M148.70 389.40v21.00" class="stroke"/>
<use x="186.20" y="389.40" xlink:href="#hd"/>
<path d="M182.70 389.40v21.00" class="stroke"/>
<use x="216.60" y="383.40" xlink:href="#hd"/>
<path d="M213.10 383.40v21.00" class="stroke"/>
<use x="246.90" y="377.40" xlink:href="#hd"/>
<path d="M243.40 377.40v21.00" class="stroke"/>
<use x="277.30" y="383.40" xlink:href="#hd"/>
<path d="M273.80 383.40v21.00" class="stroke"/>
<use x="328.60" y="386.40" xlink:href="#hd"/>
<path d="M325.10 386.40v21.00" class="stroke"/>
<use x="358.90" y="380.40" xlink:href="#hd"/>
<path d="M355.40 380.40v21.00" class="stroke"/>
<use x="389.30" y="374.40" xlink:href="#hd"/>
<path d="M385.80 374.40v21.00" class="stroke"/>
<use x="419.60" y="380.40" xlink:href="#hd"/>
<path d="M416.10 380.40v21.00" class="stroke"/>
<use x="453.70" y="392.40" xlink:href="#hd"/>
<path d="M457.20 392.40v-21.00" class="stroke"/>
<use x="484.10" y="386.40" xlink:href="#hd"/>
<path d="M480.60 386.40v21.00" class="stroke"/>
<use x="514.50" y="380.40" xlink:href="#hd"/>
<path d="M511.00 380.40v21.00" class="stroke"/>
<use x="544.90" y="386.40" xlink:href="#hd"/>
<path d="M541.40 386.40v21.00" class="stroke"/>
<use x="579.00" y="383.40" xlink:href="#hd"/>
<path d="M575.50 383.40v21.00" class="stroke"/>
<use x="609.40" y="377.40" xlink:href="#hd"/>
<path d="M605.90 377.40v21.00" class="stroke"/>
<use x="639.70" y="371.40" xlink:href="#hl"/>
<use x="639.70" y="371.40" xlink:href="#hd"/>
<path d="M636.20 371.40v21.00" class="stroke"/>
<use x="670.10" y="377.40" xlink:href="#hd"/>
<path d="M666.60 377.40v21.00" class="stroke"/>
</g>
<g stroke-width="0.70" style="font:bold 13.00px Times">
<path class="stroke" stroke-width="1"
	d="M10.00 531.80v-82.00"/>
<g transform="translate(10.00,449.80) scale(1,0.82)">
	<use xlink:href="#brace"/>
</g>
<path class="stroke" stroke-width="1"
	d="M177.10 473.80v-24.00"/>
<path class="stroke" stroke-width="1"
	d="M177.10 531.80v-24.00"/>
<path class="stroke" stroke-width="1"
	d="M305.80 473.80v-24.00"/>
<path class="stroke" stroke-width="1"
	d="M305.80 531.80v-24.00"/>
<path class="stroke" stroke-width="1"
	d="M434.30 473.80v-24.00"/>
<path class="stroke" stroke-width="1"
	d="M434.30 531.80v-24.00"/>
<path class="stroke" stroke-width="1"
	d="M563.00 473.80v-24.00"/>
<path class="stroke" stroke-width="1"
	d="M563.00 531.80v-24.00"/>
<path class="stroke" stroke-width="1"
	d="M691.60 473.80v-24.00"/>
<path class="stroke" stroke-width="1"
	d="M691.60 531.80v-24.00"/>
<path d="m10.00 473.80
	h681.60
	M10.00 467.80
	h681.60
	M10.00 461.80
	h681.60
	M10.00 455.80
	h681.60
	M10.00 449.80
	h681.60
	" class="stroke"/>
<path d="m10.00 531.80
	h681.60
	M10.00 525.80
	h681.60
	M10.00 519.80
	h681.60
	M10.00 513.80
	h681.60
	M10.00 507.80
	h681.60
	" class="stroke"/>
</g>
<g stroke-width="0.70" style="font:bold 13.00px Times">
<text x="59.20" y="434.20">I</text>
</g>
<g stroke-width="0.70" style="font:bold 13.00px Times">
<text x="187.80" y="434.20">I</text>
</g>
<g stroke-width="0.70" style="font:bold 13.00px Times">
<text x="314.00" y="434.20">vi</text>
</g>
<g stroke-width="0.70" style="font:bold 13.00px Times">
<text x="445.00" y="434.20">I</text>
</g>
<g stroke-width="0.70" style="font:bold 13.00px Times">
<text x="571.70" y="434.20">I<tspan
	 style="font:italic 11.00px Times">¹</tspan></text>
</g>
<g stroke-width="0.70" style="font:italic 11.00px Times">
<use x="22.00" y="467.80" xlink:href="#tclef"/>
<use x="37.00" y="461.80" xlink:href="#ft0"/>
<use x="42.50" y="452.80" xlink:href="#ft0"/>
<use x="61.00" y="461.80" xlink:href="#Hd"/>
<circle class="fill" cx="70.70" cy="458.80" r="1.2"/>
<path d="M64.50 461.80v-21.00" class="stroke"/>
<use x="155.00" y="461.80" xlink:href="#hd"/>
<path d="M158.50 461.80v-21.00" class="stroke"/>
<use x="189.60" y="461.80" xlink:href="#hd"/>
<path d="M193.10 461.80v-21.00" class="stroke"/>
<use x="221.00" y="458.80" xlink:href="#hd"/>
<path d="M217.50 458.80v21.00" class="stroke"/>
<use x="252.40" y="461.80" xlink:href="#hd"/>
<path d="M248.90 461.80v21.00" class="stroke"/>
<use x="283.70" y="467.80" xlink:href="#hd"/>
<path d="M287.20 467.80v-21.00" class="stroke"/>
<use x="318.30" y="461.80" xlink:href="#hd"/>
<path d="M321.80 461.80v-21.00" class="stroke"/>
<use x="349.60" y="461.80" xlink:href="#hd"/>
<path d="M353.10 461.80v-21.00" class="stroke"/>
<use x="380.90" y="464.80" xlink:href="#hd"/>
<path d="M384.40 464.80v-21.00" class="stroke"/>
<use x="412.20" y="464.80" xlink:href="#hd"/>
<path d="M415.70 464.80v-21.00" class="stroke"/>
<use x="446.80" y="461.80" xlink:href="#hd"/>
<path d="M450.30 461.80v-21.00" class="stroke"/>
<use x="478.20" y="458.80" xlink:href="#hd"/>
<path d="M474.70 458.80v21.00" class="stroke"/>
<use x="509.60" y="461.80" xlink:href="#hd"/>
<path d="M506.10 461.80v21.00" class="stroke"/>
<use x="540.90" y="467.80" xlink:href="#hd"/>
<path d="M544.40 467.80v-21.00" class="stroke"/>
<use x="575.50" y="461.80" xlink:href="#hd"/>
<path d="M579.00 461.80v-21.00" class="stroke"/>
<use x="606.80" y="461.80" xlink:href="#hd"/>
<path d="M610.30 461.80v-21.00" class="stroke"/>
<use x="638.20" y="464.80" xlink:href="#Hd"/>
<path d="M641.70 464.80v-21.00" class="stroke"/>
<use x="22.00" y="513.80" xlink:href="#bclef"/>
<use x="37.00" y="525.80" xlink:href="#ft0"/>
<use x="42.50" y="516.80" xlink:href="#ft0"/>
<use x="61.00" y="525.80" xlink:href="#hd"/>
<path d="M64.50 525.80v-21.00" class="stroke"/>
<use x="92.30" y="519.80" xlink:href="#hd"/>
<path d="M95.80 519.80v-21.00" class="stroke"/>
<use x="123.70" y="513.80" xlink:href="#hd"/>
<path d="M120.20 513.80v21.00" class="stroke"/>
<use x="155.00" y="519.80" xlink:href="#hd"/>
<path d="M151.50 519.80v21.00" class="stroke"/>
<use x="189.60" y="525.80" xlink:href="#hd"/>
<path d="M193.10 525.80v-21.00" class="stroke"/>
<use x="221.00" y="519.80" xlink:href="#hd"/>
<path d="M224.50 519.80v-21.00" class="stroke"/>
<use x="252.40" y="513.80" xlink:href="#hd"/>
<path d="M248.90 513.80v21.00" class="stroke"/>
<use x="283.70" y="519.80" xlink:href="#hd"/>
<path d="M280.20 519.80v21.00" class="stroke"/>
<use x="318.30" y="510.80" xlink:href="#hd"/>
<path d="M314.80 510.80v21.00" class="stroke"/>
<use x="349.60" y="504.80" xlink:href="#hd"/>
<path d="M346.10 504.80v21.00" class="stroke"/>
<use x="380.90" y="501.80" xlink:href="#hl"/>
<use x="380.90" y="498.80" xlink:href="#hd"/>
<path d="M377.40 498.80v21.00" class="stroke"/>
<use x="412.20" y="504.80" xlink:href="#hd"/>
<path d="M408.70 504.80v21.00" class="stroke"/>
<use x="446.80" y="525.80" xlink:href="#hd"/>
<path d="M450.30 525.80v-21.00" class="stroke"/>
<use x="478.20" y="519.80" xlink:href="#hd"/>
<path d="M481.70 519.80v-21.00" class="stroke"/>
<use x="509.60" y="513.80" xlink:href="#hd"/>
<path d="M506.10 513.80v21.00" class="stroke"/>
<use x="540.90" y="519.80" xlink:href="#hd"/>
<path d="M537.40 519.80v21.00" class="stroke"/>
<use x="575.50" y="525.80" xlink:href="#hd"/>
<path d="M579.00 525.80v-21.00" class="stroke"/>
<use x="606.80" y="519.80" xlink:href="#hd"/>
<path d="M610.30 519.80v-21.00" class="stroke"/>
<use x="638.20" y="513.80" xlink:href="#hd"/>
<path d="M634.70 513.80v21.00" class="stroke"/>
<use x="669.50" y="519.80" xlink:href="#hd"/>
<path d="M666.00 519.80v21.00" class="stroke"/>
</g>
<g stroke-width="0.70" style="font:italic 11.00px Times">
<path class="stroke" stroke-width="1"
	d="M10.00 662.20v-82.00"/>
<g transform="translate(10.00,580.20) scale(1,0.82)">
	<use xlink:href="#brace"/>
</g>
<path class="stroke" stroke-width="1"
	d="M208.50 604.20v-24.00"/>
<path class="stroke" stroke-width="1"
	d="M208.50 662.20v-24.00"/>
<path class="stroke" stroke-width="1"
	d="M329.10 604.20v-24.00"/>
<path class="stroke" stroke-width="1"
	d="M329.10 662.20v-24.00"/>
<path class="stroke" stroke-width="1"
	d="M449.80 604.20v-24.00"/>
<path class="stroke" stroke-width="1"
	d="M449.80 662.20v-24.00"/>
<path class="stroke" stroke-width="1"
	d="M570.40 604.20v-24.00"/>
<path class="stroke" stroke-width="1"
	d="M570.40 662.20v-24.00"/>
<path class="stroke" stroke-width="1"
	d="M691.60 604.20v-24.00"/>
<path class="stroke" stroke-width="1"
	d="M691.60 662.20v-24.00"/>
<path d="m10.00 604.20
	h681.60
	M10.00 598.20
	h681.60
	M10.00 592.20
	h681.60
	M10.00 586.20
	h681.60
	M10.00 580.20
	h681.60
	" class="stroke"/>
<path d="m10.00 662.20
	h681.60
	M10.00 656.20
	h681.60
	M10.00 650.20
	h681.60
	M10.00 644.20
	h681.60
	M10.00 638.20
	h681.60
	" class="stroke"/>
</g>
<g stroke-width="0.70" style="font:bold 13.00px Times">
<text x="58.70" y="564.60">I</text>
</g>
<g stroke-width="0.70" style="font:bold 13.00px Times">
<text x="219.10" y="564.60">I</text>
</g>
<g stroke-width="0.70" style="font:bold 13.00px Times">
<text x="339.80" y="564.60">I</text>
</g>
<g stroke-width="0.70" style="font:bold 13.00px Times">
<text x="458.40" y="573.60">V</text>
</g>
<g stroke-width="0.70" style="font:bold 13.00px Times">
<text x="579.60" y="575.60">I<tspan
	 style="font:italic 11.00px Times">²</tspan></text>
</g>
<g stroke-width="0.70" style="font:italic 11.00px Times">
<use x="22.00" y="598.20" xlink:href="#tclef"/>
<use x="37.00" y="592.20" xlink:href="#ft0"/>
<use x="42.50" y="583.20" xlink:href="#ft0"/>
<use x="60.50" y="592.20" xlink:href="#hd"/>
<path d="M64.00 592.20v-21.00" class="stroke"/>
<use x="89.70" y="586.20" xlink:href="#hd"/>
<path d="M86.20 586.20v21.00" class="stroke"/>
<path class="fill"
	d="M86.20 607.20c0.6 -5.6 9.6 -9 5.6 -18.4
	1.6 6 -1.3 11.6 -5.6 12.8
"/>
<use x="110.50" y="586.20" xlink:href="#hd"/>
<path d="M107.00 586.20v21.00" class="stroke"/>
<path class="fill"
	d="M107.00 607.20c0.6 -5.6 9.6 -9 5.6 -18.4
	1.6 6 -1.3 11.6 -5.6 12.8
"/>
<use x="131.20" y="589.20" xlink:href="#hd"/>
<path d="M127.70 589.20v21.00" class="stroke"/>
<path class="fill"
	d="M127.70 610.20c0.6 -5.6 9.6 -9 5.6 -18.4
	1.6 6 -1.3 11.6 -5.6 12.8
"/>
<use x="152.00" y="592.20" xlink:href="#hd"/>
<path d="M148.50 592.20v21.00" class="stroke"/>
<path class="fill"
	d="M148.50 613.20c0.6 -5.6 9.6 -9 5.6 -18.4
	1.6 6 -1.3 11.6 -5.6 12.8
"/>
<use x="172.70" y="592.20" xlink:href="#hd"/>
<path d="M169.20 592.20v21.00" class="stroke"/>
<path class="fill"
	d="M169.20 613.20c0.6 -5.6 9.6 -9 5.6 -18.4
	1.6 6 -1.3 11.6 -5.6 12.8
"/>
<use x="191.50" y="595.20" xlink:href="#hd"/>
<path d="M195.00 595.20v-21.00" class="stroke"/>
<path class="fill"
	d="M195.00 574.20c0.6 5.6 9.6 9 5.6 18.4
	1.6 -6 -1.3 -11.6 -5.6 -12.8
"/>
<use x="221.00" y="592.20" xlink:href="#hd"/>
<path d="M224.50 592.20v-21.00" class="stroke"/>
<use x="250.10" y="595.20" xlink:href="#hd"/>
<path d="M253.60 595.20v-21.00" class="stroke"/>
<use x="279.30" y="592.20" xlink:href="#Hd"/>
<path d="M282.80 592.20v-21.00" class="stroke"/>
<use x="341.60" y="592.20" xlink:href="#hd"/>
<path d="M345.10 592.20v-21.00" class="stroke"/>
<use x="370.70" y="595.20" xlink:href="#hd"/>
<path d="M374.20 595.20v-21.00" class="stroke"/>
<use x="400.00" y="598.20" xlink:href="#hd"/>
<path d="M403.50 598.20v-21.00" class="stroke"/>
<use x="429.10" y="601.20" xlink:href="#hd"/>
<path d="M432.60 601.20v-21.00" class="stroke"/>
<use x="462.30" y="601.20" xlink:href="#hd"/>
<path d="M465.80 601.20v-21.00" class="stroke"/>
<use x="491.40" y="604.20" xlink:href="#hd"/>
<path d="M494.90 604.20v-21.00" class="stroke"/>
<use x="520.60" y="601.20" xlink:href="#Hd"/>
<path d="M524.10 601.20v-21.00" class="stroke"/>
<defs>
<rect id="r2" class="fill"
	x="-3.5" y="-3" width="7" height="3"/>
</defs>
<use x="583.40" y="592.20" xlink:href="#r2"/>
<use x="641.80" y="586.20" xlink:href="#Hd"/>
<path d="M638.30 586.20v21.00" class="stroke"/>
<use x="22.00" y="644.20" xlink:href="#bclef"/>
<use x="37.00" y="656.20" xlink:href="#ft0"/>
<use x="42.50" y="647.20" xlink:href="#ft0"/>
<use x="60.50" y="656.20" xlink:href="#hd"/>
<path d="M64.00 656.20v-21.00" class="stroke"/>
<use x="89.70" y="650.20" xlink:href="#hd"/>
<path d="M93.20 650.20v-21.00" class="stroke"/>
<use x="131.20" y="644.20" xlink:href="#hd"/>
<path d="M127.70 644.20v21.00" class="stroke"/>
<use x="172.70" y="650.20" xlink:href="#hd"/>
<path d="M169.20 650.20v21.00" class="stroke"/>
<use x="221.00" y="656.20" xlink:href="#hd"/>
<path d="M224.50 656.20v-21.00" class="stroke"/>
<use x="250.10" y="650.20" xlink:href="#hd"/>
<path d="M253.60 650.20v-21.00" class="stroke"/>
<use x="279.30" y="644.20" xlink:href="#hd"/>
<path d="M275.80 644.20v21.00" class="stroke"/>
<use x="308.40" y="650.20" xlink:href="#hd"/>
<path d="M304.90 650.20v21.00" class="stroke"/>
<use x="341.60" y="656.20" xlink:href="#hd"/>
<path d="M345.10 656.20v-21.00" class="stroke"/>
<use x="370.70" y="650.20" xlink:href="#hd"/>
<path d="M374.20 650.20v-21.00" class="stroke"/>
<use x="400.00" y="644.20" xlink:href="#hd"/>
<path d="M396.50 644.20v21.00" class="stroke"/>
<use x="429.10" y="650.20" xlink:href="#hd"/>
<path d="M425.60 650.20v21.00" class="stroke"/>
<use x="462.30" y="644.20" xlink:href="#hd"/>
<path d="M458.80 644.20v21.00" class="stroke"/>
<use x="491.40" y="638.20" xlink:href="#hd"/>
<path d="M487.90 638.20v21.00" class="stroke"/>
<use x="520.60" y="632.20" xlink:href="#hl"/>
<use x="520.60" y="632.20" xlink:href="#hd"/>
<path d="M517.10 632.20v21.00" class="stroke"/>
<use x="549.70" y="638.20" xlink:href="#hd"/>
<path d="M546.20 638.20v21.00" class="stroke"/>
<use x="583.40" y="656.20" xlink:href="#hd"/>
<path d="M586.90 656.20v-21.00" class="stroke"/>
<use x="612.50" y="650.20" xlink:href="#hd"/>
<path d="M616.00 650.20v-21.00" class="stroke"/>
<use x="641.80" y="644.20" xlink:href="#hd"/>
<path d="M638.30 644.20v21.00" class="stroke"/>
<use x="670.90" y="650.20" xlink:href="#hd"/>
<path d="M667.40 650.20v21.00" class="stroke"/>
</g>
<g stroke-width="0.70" style="font:italic 11.00px Times">
<path class="stroke" stroke-width="1"
	d="M10.00 792.60v-82.00"/>
<g transform="translate(10.00,710.60) scale(1,0.82)">
	<use xlink:href="#brace"/>
</g>
<path class="stroke" stroke-width="1"
	d="M174.90 734.60v-24.00"/>
<path class="stroke" stroke-width="1"
	d="M174.90 792.60v-24.00"/>
<path class="stroke" stroke-width="1"
	d="M301.50 734.60v-24.00"/>
<path class="stroke" stroke-width="1"
	d="M301.50 792.60v-24.00"/>
<path class="stroke" stroke-width="1"
	d="M427.90 734.60v-24.00"/>
<path class="stroke" stroke-width="1"
	d="M427.90 792.60v-24.00"/>
<path class="stroke" stroke-width="1"
	d="M565.20 734.60v-24.00"/>
<path class="stroke" stroke-width="1"
	d="M565.20 792.60v-24.00"/>
<path class="stroke" stroke-width="1"
	d="M691.60 734.60v-24.00"/>
<path class="stroke" stroke-width="1"
	d="M691.60 792.60v-24.00"/>
<path d="m10.00 734.60
	h681.60
	M10.00 728.60
	h681.60
	M10.00 722.60
	h681.60
	M10.00 716.60
	h681.60
	M10.00 710.60
	h681.60
	" class="stroke"/>
<path d="m10.00 792.60
	h681.60
	M10.00 786.60
	h681.60
	M10.00 780.60
	h681.60
	M10.00 774.60
	h681.60
	M10.00 768.60
	h681.60
	" class="stroke"/>
</g>
<g stroke-width="0.70" style="font:bold 13.00px Times">
<text x="53.00" y="706.00">vii○</text>
</g>
<g stroke-width="0.70" style="font:bold 13.00px Times">
<text x="179.40" y="698.00">vii<tspan
	 style="font:italic 11.00px Times">ø7²</tspan></text>
</g>
<g stroke-width="0.70" style="font:bold 13.00px Times">
<text x="310.20" y="704.00">I<tspan
	 style="font:italic 11.00px Times">¹</tspan></text>
</g>
<g stroke-width="0.70" style="font:bold 13.00px Times">
<text x="432.70" y="695.00">IV<tspan
	 style="font:italic 11.00px Times">⁷</tspan></text>
</g>
<g stroke-width="0.70" style="font:bold 13.00px Times">
<text x="572.70" y="706.00">ii<tspan
	 style="font:italic 11.00px Times">¹</tspan></text>
</g>
<g stroke-width="0.70" style="font:italic 11.00px Times">
<use x="22.00" y="728.60" xlink:href="#tclef"/>
<use x="37.00" y="722.60" xlink:href="#ft0"/>
<use x="42.50" y="713.60" xlink:href="#ft0"/>
<use x="61.00" y="719.60" xlink:href="#Hd"/>
<path d="M57.50 719.60v21.00" class="stroke"/>
<use x="122.50" y="722.60" xlink:href="#Hd"/>
<path d="M119.00 722.60v21.00" class="stroke"/>
<use x="187.40" y="725.60" xlink:href="#hd"/>
<path d="M190.90 725.60v-21.00" class="stroke"/>
<use x="218.20" y="716.60" xlink:href="#hd"/>
<path d="M214.70 716.60v21.00" class="stroke"/>
<use x="249.00" y="713.60" xlink:href="#hd"/>
<path d="M245.50 713.60v21.00" class="stroke"/>
<use x="279.70" y="719.60" xlink:href="#hd"/>
<path d="M276.20 719.60v21.00" class="stroke"/>
<use x="314.00" y="722.60" xlink:href="#hd"/>
<path d="M310.50 722.60v21.00" class="stroke"/>
<use x="344.70" y="719.60" xlink:href="#hd"/>
<path d="M341.20 719.60v21.00" class="stroke"/>
<use x="375.50" y="722.60" xlink:href="#hd"/>
<path d="M372.00 722.60v21.00" class="stroke"/>
<use x="406.20" y="725.60" xlink:href="#hd"/>
<path d="M409.70 725.60v-21.00" class="stroke"/>
<use x="440.40" y="722.60" xlink:href="#hd"/>
<circle class="fill" cx="448.10" cy="719.60" r="1.2"/>
<path d="M443.90 722.60v-21.00" class="stroke"/>
<use x="490.70" y="722.60" xlink:href="#hd"/>
<path d="M494.20 722.60v-21.00" class="stroke"/>
<path class="fill"
	d="M494.20 701.60c0.6 5.6 9.6 9 5.6 18.4
	1.6 -6 -1.3 -11.6 -5.6 -12.8
"/>
<use x="512.70" y="722.60" xlink:href="#hd"/>
<path d="M516.20 722.60v-21.00" class="stroke"/>
<use x="543.40" y="722.60" xlink:href="#hd"/>
<path d="M546.90 722.60v-21.00" class="stroke"/>
<use x="577.70" y="719.60" xlink:href="#hd"/>
<path d="M574.20 719.60v21.00" class="stroke"/>
<use x="608.50" y="722.60" xlink:href="#hd"/>
<path d="M605.00 722.60v21.00" class="stroke"/>
<use x="639.20" y="722.60" xlink:href="#hd"/>
<path d="M635.70 722.60v21.00" class="stroke"/>
<use x="669.90" y="725.60" xlink:href="#hd"/>
<path d="M673.40 725.60v-21.00" class="stroke"/>
<use x="22.00" y="774.60" xlink:href="#bclef"/>
<use x="37.00" y="786.60" xlink:href="#ft0"/>
<use x="42.50" y="777.60" xlink:href="#ft0"/>
<use x="61.00" y="786.60" xlink:href="#hd"/>
<path d="M64.50 786.60v-21.00" class="stroke"/>
<use x="91.70" y="780.60" xlink:href="#hd"/>
<path d="M95.20 780.60v-21.00" class="stroke"/>
<use x="122.50" y="774.60" xlink:href="#hd"/>
<path d="M119.00 774.60v21.00" class="stroke"/>
<use x="153.20" y="780.60" xlink:href="#hd"/>
<path d="M149.70 780.60v21.00" class="stroke"/>
<use x="187.40" y="768.60" xlink:href="#hd"/>
<path d="M183.90 768.60v21.00" class="stroke"/>
<use x="218.20" y="762.60" xlink:href="#hl"/>
<use x="218.20" y="762.60" xlink:href="#hd"/>
<path d="M214.70 762.60v21.00" class="stroke"/>
<use x="249.00" y="762.60" xlink:href="#hl"/>
<use x="249.00" y="756.60" xlink:href="#hl"/>
<use x="249.00" y="756.60" xlink:href="#hd"/>
<path d="M245.50 756.60v24.00" class="stroke"/>
<use x="279.70" y="762.60" xlink:href="#hl"/>
<use x="279.70" y="762.60" xlink:href="#hd"/>
<path d="M276.20 762.60v21.00" class="stroke"/>
<use x="314.00" y="786.60" xlink:href="#hd"/>
<path d="M317.50 786.60v-21.00" class="stroke"/>
<use x="344.70" y="780.60" xlink:href="#hd"/>
<path d="M348.20 780.60v-21.00" class="stroke"/>
<use x="375.50" y="774.60" xlink:href="#hd"/>
<path d="M372.00 774.60v21.00" class="stroke"/>
<use x="406.20" y="780.60" xlink:href="#hd"/>
<path d="M402.70 780.60v21.00" class="stroke"/>
<use x="440.40" y="777.60" xlink:href="#hd"/>
<path d="M436.90 777.60v21.00" class="stroke"/>
<use x="471.10" y="771.60" xlink:href="#hd"/>
<path d="M467.60 771.60v21.00" class="stroke"/>
<use x="512.70" y="765.60" xlink:href="#hd"/>
<path d="M509.20 765.60v21.00" class="stroke"/>
<use x="543.40" y="771.60" xlink:href="#hd"/>
<path d="M539.90 771.60v21.00" class="stroke"/>
<use x="577.70" y="783.60" xlink:href="#hd"/>
<path d="M581.20 783.60v-21.00" class="stroke"/>
<use x="608.50" y="777.60" xlink:href="#hd"/>
<path d="M605.00 777.60v21.00" class="stroke"/>
<use x="639.20" y="771.60" xlink:href="#hd"/>
<path d="M635.70 771.60v21.00" class="stroke"/>
<use x="669.90" y="777.60" xlink:href="#hd"/>
<path d="M666.40 777.60v21.00" class="stroke"/>
</g>
<g stroke-width="0.70" style="font:italic 11.00px Times">
<path class="stroke" stroke-width="1"
	d="M10.00 920.60v-82.00"/>
<g transform="translate(10.00,838.60) scale(1,0.82)">
	<use xlink:href="#brace"/>
</g>
<path class="stroke" stroke-width="1"
	d="M210.00 862.60v-24.00"/>
<path class="stroke" stroke-width="1"
	d="M210.00 920.60v-24.00"/>
<path d="m10.00 862.60
	h200.00
	M10.00 856.60
	h200.00
	M10.00 850.60
	h200.00
	M10.00 844.60
	h200.00
	M10.00 838.60
	h200.00
	" class="stroke"/>
<path d="m10.00 920.60
	h200.00
	M10.00 914.60
	h200.00
	M10.00 908.60
	h200.00
	M10.00 902.60
	h200.00
	M10.00 896.60
	h200.00
	" class="stroke"/>
</g>
<g stroke-width="0.70" style="font:bold 13.00px Times">
<text x="60.20" y="834.00">I</text>
<use x="22.00" y="856.60" xlink:href="#tclef"/>
<use x="37.00" y="850.60" xlink:href="#ft0"/>
<use x="42.50" y="841.60" xlink:href="#ft0"/>
<use x="63.00" y="850.60" xlink:href="#HD"/>
<use x="22.00" y="902.60" xlink:href="#bclef"/>
<use x="37.00" y="914.60" xlink:href="#ft0"/>
<use x="42.50" y="905.60" xlink:href="#ft0"/>
<use x="62.00" y="914.60" xlink:href="#hd"/>
<path d="M65.50 914.60v-21.00" class="stroke"/>
<use x="102.00" y="908.60" xlink:href="#hd"/>
<path d="M105.50 908.60v-21.00" class="stroke"/>
<use x="142.00" y="902.60" xlink:href="#hd"/>
<path d="M138.50 902.60v21.00" class="stroke"/>
<use x="182.00" y="908.60" xlink:href="#hd"/>
<path d="M178.50 908.60v21.00" class="stroke"/>
</g>
</svg>
