<?xml version="1.0" standalone="no"?>
<!DOCTYPE svg PUBLIC "-//W3C//DTD SVG 1.1//EN"
	"http://www.w3.org/Graphics/SVG/1.1/DTD/svg11.dtd">
<svg xmlns="http://www.w3.org/2000/svg" version="1.1"
	xmlns:xlink="http://www.w3.org/1999/xlink"
	color="black"
	width="701.60px" height="550.00px" viewBox="0 0 701.60 550.00" preserveAspectRatio="xMidYMid meet">
<style type="text/css">
.fill {fill: currentColor}
.stroke {stroke: currentColor; fill: none}
text{white-space: pre}
</style>
<title>/tmp/retab_hymnal_L3/o_little_town_of_bethlehem.abc (1) tune 1</title>
<!-- Creator: abcm2ps-8.14.11 -->
<!-- CreationDate: Apr 24, 2026 15:38 -->
<!-- CommandLine: /tmp/retab_hymnal_L3/o_little_town_of_bethlehem.abc -g -O /tmp/retab_hymnal_L3/o_little_town_of_bethlehem -->
<g stroke-width="0.70">
<!-- title: 179. O Little Town of Bethlehem -->
</g>
<g stroke-width="0.70" style="font:20.00px Times">
<text x="350.80" y="22.00" text-anchor="middle">179. O Little Town of Bethlehem</text>
</g>
<g stroke-width="0.70" style="font:20.00px Times">
<path class="stroke" stroke-width="1"
	d="M10.00 143.00v-82.00"/>
<defs>
<path id="brace" class="fill" d="m-2.5 101
	c-4.5 -4.6 -7.5 -12.2 -4.4 -26.8
	3.5 -14.3 3.2 -21.7 -2.1 -24.2
	7.4 2.4 7.3 14.2 3.5 29.5
	-2.7 9.5 -1.5 16.2 3 21.5
	M-2.5 1c-4.5 4.6 -7.5 12.2 -4.4 26.8
	c3.5 14.3 3.2 21.7 -2.1 24.2
	7.4 -2.4 7.3 -14.2 3.5 -29.5
	-2.7 -9.5 -1.5 -16.2 3 -21.5"/>
</defs>
<g transform="translate(10.00,61.00) scale(1,0.82)">
	<use xlink:href="#brace"/>
</g>
<path class="stroke" stroke-width="1"
	d="M182.40 85.00v-24.00"/>
<path class="stroke" stroke-width="1"
	d="M182.40 143.00v-24.00"/>
<path class="stroke" stroke-width="1"
	d="M306.50 85.00v-24.00"/>
<path class="stroke" stroke-width="1"
	d="M306.50 143.00v-24.00"/>
<path class="stroke" stroke-width="1"
	d="M443.60 85.00v-24.00"/>
<path class="stroke" stroke-width="1"
	d="M443.60 143.00v-24.00"/>
<path class="stroke" stroke-width="1"
	d="M567.50 85.00v-24.00"/>
<path class="stroke" stroke-width="1"
	d="M567.50 143.00v-24.00"/>
<path class="stroke" stroke-width="1"
	d="M691.60 85.00v-24.00"/>
<path class="stroke" stroke-width="1"
	d="M691.60 143.00v-24.00"/>
<path d="m10.00 85.00
	h681.60
	M10.00 79.00
	h681.60
	M10.00 73.00
	h681.60
	M10.00 67.00
	h681.60
	M10.00 61.00
	h681.60
	" class="stroke"/>
<path d="m10.00 143.00
	h681.60
	M10.00 137.00
	h681.60
	M10.00 131.00
	h681.60
	M10.00 125.00
	h681.60
	M10.00 119.00
	h681.60
	" class="stroke"/>
</g>
<g stroke-width="0.70" style="font:bold 13.00px Times">
<text x="69.20" y="48.40">I</text>
</g>
<g stroke-width="0.70" style="font:bold 13.00px Times">
<text x="193.10" y="48.40">I</text>
</g>
<g stroke-width="0.70" style="font:bold 13.00px Times">
<text x="314.00" y="51.40">ii<tspan
	 style="font:italic 11.00px Times">¹</tspan></text>
</g>
<g stroke-width="0.70" style="font:bold 13.00px Times">
<text x="454.30" y="56.40">I</text>
</g>
<g stroke-width="0.70" style="font:bold 13.00px Times">
<text x="578.20" y="48.40">I</text>
<defs>
<path id="utclef" class="fill" d="m-50 -90
	c-72 -41 -72 -158 52 -188
	150 -10 220 188 90 256
	-114 52 -275 0 -293 -136
	-15 -181 93 -229 220 -334
	88 -87 79 -133 62 -210
	-51 33 -94 105 -89 186
	17 267 36 374 49 574
	6 96 -19 134 -77 135
	-80 1 -126 -93 -61 -133
	85 -41 133 101 31 105
	23 17 92 37 90 -92
	-10 -223 -39 -342 -50 -617
	0 -90 0 -162 96 -232
	56 72 63 230 22 289
	-74 106 -257 168 -255 316
	9 153 148 185 252 133
	86 -65 29 -192 -80 -176
	-71 12 -105 67 -59 124"/>
<use id="tclef" transform="translate(0,6) scale(0.045)"
	xlink:href="#utclef"/>
</defs>
<use x="22.00" y="79.00" xlink:href="#tclef"/>
<defs>
<path id="uflat" class="fill" d="
	m100 -746
	h32
	v734
	l-32 4
	m32 -332
	c46 -72 152 -90 208 -20
	100 110 -120 326 -208 348
	m0 -28
	c54 0 200 -206 130 -290
	-50 -60 -130 -4 -130 34"/>
<use id="ft0" transform="translate(-3.5,3.5) scale(0.018)"
	xlink:href="#uflat"/>
</defs>
<use x="37.00" y="73.00" xlink:href="#ft0"/>
<g style="font:bold 16px serif"
	transform="translate(53.00,84.50) scale(1.2,1)">
	<text text-anchor="middle">4</text>
	<text y="-12" text-anchor="middle">4</text>
</g>
<defs>
<ellipse id="hd" rx="4.1" ry="2.9"
	transform="rotate(-20)" class="fill"/>
</defs>
<use x="71.00" y="76.00" xlink:href="#hd"/>
<path d="M74.50 76.00v-21.00" class="stroke"/>
<use x="101.00" y="76.00" xlink:href="#hd"/>
<path d="M104.50 76.00v-21.00" class="stroke"/>
<use x="131.10" y="76.00" xlink:href="#hd"/>
<path d="M134.60 76.00v-21.00" class="stroke"/>
<use x="161.10" y="79.00" xlink:href="#hd"/>
<path d="M164.60 79.00v-21.00" class="stroke"/>
<use x="194.90" y="76.00" xlink:href="#hd"/>
<path d="M198.40 76.00v-21.00" class="stroke"/>
<use x="225.10" y="70.00" xlink:href="#hd"/>
<path d="M221.60 70.00v21.00" class="stroke"/>
<use x="255.10" y="73.00" xlink:href="#hd"/>
<path d="M251.60 73.00v21.00" class="stroke"/>
<use x="285.10" y="88.00" xlink:href="#hd"/>
<path d="M288.60 88.00v-21.00" class="stroke"/>
<use x="319.00" y="79.00" xlink:href="#hd"/>
<path d="M322.50 79.00v-21.00" class="stroke"/>
<use x="349.00" y="82.00" xlink:href="#hd"/>
<path d="M352.50 82.00v-21.00" class="stroke"/>
<use x="379.00" y="85.00" xlink:href="#hd"/>
<path d="M382.50 85.00v-21.00" class="stroke"/>
<path class="fill"
	d="M382.50 64.00c0.6 5.6 9.6 9 5.6 18.4
	1.6 -6 -1.3 -11.6 -5.6 -12.8
"/>
<use x="400.60" y="82.00" xlink:href="#hd"/>
<path d="M404.10 82.00v-21.00" class="stroke"/>
<path class="fill"
	d="M404.10 61.00c0.6 5.6 9.6 9 5.6 18.4
	1.6 -6 -1.3 -11.6 -5.6 -12.8
"/>
<use x="422.30" y="79.00" xlink:href="#hd"/>
<path d="M425.80 79.00v-21.00" class="stroke"/>
<defs>
<path id="hl" class="stroke" d="m-6 0h12"/>
</defs>
<use x="456.10" y="91.00" xlink:href="#hl"/>
<use x="456.10" y="91.00" xlink:href="#hd"/>
<path d="M459.60 91.00v-21.00" class="stroke"/>
<defs>
<path id="Hd" class="fill" d="m3 -1.6
	c-1 -1.8 -7 1.4 -6 3.2
	1 1.8 7 -1.4 6 -3.2
	m0.5 -0.3
	c2 3.8 -5 7.6 -7 3.8
	-2 -3.8 5 -7.6 7 -3.8"/>
</defs>
<use x="486.20" y="76.00" xlink:href="#Hd"/>
<circle class="fill" cx="494.90" cy="76.00" r="1.2"/>
<path d="M489.70 76.00v-21.00" class="stroke"/>
<use x="580.00" y="76.00" xlink:href="#hd"/>
<path d="M583.50 76.00v-21.00" class="stroke"/>
<use x="610.10" y="76.00" xlink:href="#hd"/>
<path d="M613.60 76.00v-21.00" class="stroke"/>
<use x="640.10" y="76.00" xlink:href="#hd"/>
<path d="M643.60 76.00v-21.00" class="stroke"/>
<use x="670.30" y="67.00" xlink:href="#hd"/>
<path d="M666.80 67.00v21.00" class="stroke"/>
<defs>
<path id="ubclef" class="fill" d="m-200 -87
	c124 -35 222 -78 254 -236
	43 -228 -167 -246 -192 -103
	59 -80 157 22 92 78
	-62 47 -115 -22 -106 -88
	21 -141 270 -136 274 52
	-1 175 -106 264 -322 297
	m357 -250
	c0 -36 51 -34 51 0
	0 37 -51 36 -51 0
	m-2 -129
	c0 -36 51 -34 51 0
	0 38 -51 37 -51 0"/>
<use id="bclef" transform="translate(0,18) scale(0.045)"
	xlink:href="#ubclef"/>
</defs>
<use x="22.00" y="125.00" xlink:href="#bclef"/>
<use x="37.00" y="137.00" xlink:href="#ft0"/>
<g style="font:bold 16px serif"
	transform="translate(53.00,142.50) scale(1.2,1)">
	<text text-anchor="middle">4</text>
	<text y="-12" text-anchor="middle">4</text>
</g>
<use x="71.00" y="146.00" xlink:href="#hd"/>
<path d="M74.50 146.00v-21.00" class="stroke"/>
<use x="101.00" y="140.00" xlink:href="#hd"/>
<path d="M104.50 140.00v-21.00" class="stroke"/>
<use x="131.10" y="134.00" xlink:href="#hd"/>
<path d="M134.60 134.00v-21.00" class="stroke"/>
<use x="161.10" y="140.00" xlink:href="#hd"/>
<path d="M164.60 140.00v-21.00" class="stroke"/>
<use x="194.90" y="146.00" xlink:href="#hd"/>
<path d="M198.40 146.00v-21.00" class="stroke"/>
<use x="225.10" y="140.00" xlink:href="#hd"/>
<path d="M228.60 140.00v-21.00" class="stroke"/>
<use x="255.10" y="134.00" xlink:href="#hd"/>
<path d="M258.60 134.00v-21.00" class="stroke"/>
<use x="285.10" y="140.00" xlink:href="#hd"/>
<path d="M288.60 140.00v-21.00" class="stroke"/>
<use x="319.00" y="143.00" xlink:href="#hd"/>
<path d="M322.50 143.00v-21.00" class="stroke"/>
<use x="349.00" y="137.00" xlink:href="#hd"/>
<path d="M352.50 137.00v-21.00" class="stroke"/>
<use x="379.00" y="131.00" xlink:href="#hd"/>
<path d="M382.50 131.00v-21.00" class="stroke"/>
<use x="422.30" y="137.00" xlink:href="#hd"/>
<path d="M425.80 137.00v-21.00" class="stroke"/>
<use x="456.10" y="146.00" xlink:href="#hd"/>
<path d="M459.60 146.00v-21.00" class="stroke"/>
<use x="486.20" y="140.00" xlink:href="#hd"/>
<path d="M489.70 140.00v-21.00" class="stroke"/>
<use x="516.20" y="134.00" xlink:href="#hd"/>
<path d="M519.70 134.00v-21.00" class="stroke"/>
<use x="546.20" y="140.00" xlink:href="#hd"/>
<path d="M549.70 140.00v-21.00" class="stroke"/>
<use x="580.00" y="146.00" xlink:href="#hd"/>
<path d="M583.50 146.00v-21.00" class="stroke"/>
<use x="610.10" y="140.00" xlink:href="#hd"/>
<path d="M613.60 140.00v-21.00" class="stroke"/>
<use x="640.10" y="134.00" xlink:href="#hd"/>
<path d="M643.60 134.00v-21.00" class="stroke"/>
<use x="670.30" y="140.00" xlink:href="#hd"/>
<path d="M673.80 140.00v-21.00" class="stroke"/>
</g>
<g stroke-width="0.70" style="font:bold 13.00px Times">
<path class="stroke" stroke-width="1"
	d="M10.00 271.00v-82.00"/>
<g transform="translate(10.00,189.00) scale(1,0.82)">
	<use xlink:href="#brace"/>
</g>
<path class="stroke" stroke-width="1"
	d="M170.30 213.00v-24.00"/>
<path class="stroke" stroke-width="1"
	d="M170.30 271.00v-24.00"/>
<path class="stroke" stroke-width="1"
	d="M311.40 213.00v-24.00"/>
<path class="stroke" stroke-width="1"
	d="M311.40 271.00v-24.00"/>
<path class="stroke" stroke-width="1"
	d="M439.20 213.00v-24.00"/>
<path class="stroke" stroke-width="1"
	d="M439.20 271.00v-24.00"/>
<path class="stroke" stroke-width="1"
	d="M566.90 213.00v-24.00"/>
<path class="stroke" stroke-width="1"
	d="M566.90 271.00v-24.00"/>
<path class="stroke" stroke-width="1"
	d="M691.60 213.00v-24.00"/>
<path class="stroke" stroke-width="1"
	d="M691.60 271.00v-24.00"/>
<path d="m10.00 213.00
	h681.60
	M10.00 207.00
	h681.60
	M10.00 201.00
	h681.60
	M10.00 195.00
	h681.60
	M10.00 189.00
	h681.60
	" class="stroke"/>
<path d="m10.00 271.00
	h681.60
	M10.00 265.00
	h681.60
	M10.00 259.00
	h681.60
	M10.00 253.00
	h681.60
	M10.00 247.00
	h681.60
	" class="stroke"/>
</g>
<g stroke-width="0.70" style="font:bold 13.00px Times">
<text x="48.80" y="184.40">vi<tspan
	 style="font:italic 11.00px Times">⁷</tspan></text>
</g>
<g stroke-width="0.70" style="font:bold 13.00px Times">
<text x="177.80" y="179.40">ii<tspan
	 style="font:italic 11.00px Times">¹</tspan></text>
</g>
<g stroke-width="0.70" style="font:bold 13.00px Times">
<text x="322.10" y="179.40">I</text>
</g>
<g stroke-width="0.70" style="font:bold 13.00px Times">
<text x="449.80" y="176.40">I</text>
</g>
<g stroke-width="0.70" style="font:bold 13.00px Times">
<text x="574.80" y="182.40">iii</text>
<use x="22.00" y="207.00" xlink:href="#tclef"/>
<use x="37.00" y="201.00" xlink:href="#ft0"/>
<use x="55.00" y="198.00" xlink:href="#hd"/>
<path d="M51.50 198.00v21.00" class="stroke"/>
<use x="86.20" y="198.00" xlink:href="#hd"/>
<path d="M82.70 198.00v21.00" class="stroke"/>
<use x="117.20" y="201.00" xlink:href="#hd"/>
<path d="M113.70 201.00v21.00" class="stroke"/>
<use x="148.30" y="216.00" xlink:href="#hd"/>
<path d="M151.80 216.00v-21.00" class="stroke"/>
<use x="182.80" y="207.00" xlink:href="#hd"/>
<path d="M186.30 207.00v-21.00" class="stroke"/>
<use x="213.90" y="210.00" xlink:href="#hd"/>
<path d="M217.40 210.00v-21.00" class="stroke"/>
<use x="244.90" y="213.00" xlink:href="#hd"/>
<path d="M248.40 213.00v-21.00" class="stroke"/>
<path class="fill"
	d="M248.40 192.00c0.6 5.6 9.6 9 5.6 18.4
	1.6 -6 -1.3 -11.6 -5.6 -12.8
"/>
<use x="267.20" y="210.00" xlink:href="#hd"/>
<path d="M270.70 210.00v-21.00" class="stroke"/>
<path class="fill"
	d="M270.70 189.00c0.6 5.6 9.6 9 5.6 18.4
	1.6 -6 -1.3 -11.6 -5.6 -12.8
"/>
<use x="289.40" y="204.00" xlink:href="#hd"/>
<path d="M292.90 204.00v-21.00" class="stroke"/>
<use x="323.90" y="207.00" xlink:href="#hd"/>
<path d="M327.40 207.00v-21.00" class="stroke"/>
<use x="355.00" y="210.00" xlink:href="#Hd"/>
<circle class="fill" cx="363.70" cy="210.00" r="1.2"/>
<path d="M358.50 210.00v-21.00" class="stroke"/>
<use x="451.70" y="204.00" xlink:href="#hd"/>
<path d="M455.20 204.00v-21.00" class="stroke"/>
<use x="482.70" y="204.00" xlink:href="#hd"/>
<path d="M486.20 204.00v-21.00" class="stroke"/>
<use x="513.80" y="204.00" xlink:href="#hd"/>
<path d="M517.30 204.00v-21.00" class="stroke"/>
<use x="544.90" y="207.00" xlink:href="#hd"/>
<path d="M548.40 207.00v-21.00" class="stroke"/>
<use x="579.40" y="210.00" xlink:href="#hd"/>
<path d="M582.90 210.00v-21.00" class="stroke"/>
<use x="610.50" y="213.00" xlink:href="#Hd"/>
<path d="M614.00 213.00v-21.00" class="stroke"/>
<use x="669.60" y="213.00" xlink:href="#hd"/>
<path d="M673.10 213.00v-21.00" class="stroke"/>
<use x="22.00" y="253.00" xlink:href="#bclef"/>
<use x="37.00" y="265.00" xlink:href="#ft0"/>
<use x="55.00" y="259.00" xlink:href="#hd"/>
<path d="M58.50 259.00v-21.00" class="stroke"/>
<use x="86.20" y="253.00" xlink:href="#hd"/>
<path d="M82.70 253.00v21.00" class="stroke"/>
<use x="117.20" y="247.00" xlink:href="#hd"/>
<path d="M113.70 247.00v21.00" class="stroke"/>
<use x="148.30" y="253.00" xlink:href="#hd"/>
<path d="M144.80 253.00v21.00" class="stroke"/>
<use x="182.80" y="271.00" xlink:href="#hd"/>
<path d="M186.30 271.00v-21.00" class="stroke"/>
<use x="213.90" y="265.00" xlink:href="#hd"/>
<path d="M217.40 265.00v-21.00" class="stroke"/>
<use x="244.90" y="259.00" xlink:href="#hd"/>
<path d="M248.40 259.00v-21.00" class="stroke"/>
<use x="289.40" y="265.00" xlink:href="#hd"/>
<path d="M292.90 265.00v-21.00" class="stroke"/>
<use x="323.90" y="274.00" xlink:href="#hd"/>
<path d="M327.40 274.00v-21.00" class="stroke"/>
<use x="355.00" y="268.00" xlink:href="#hd"/>
<path d="M358.50 268.00v-21.00" class="stroke"/>
<use x="386.10" y="262.00" xlink:href="#hd"/>
<path d="M389.60 262.00v-21.00" class="stroke"/>
<use x="417.20" y="268.00" xlink:href="#hd"/>
<path d="M420.70 268.00v-21.00" class="stroke"/>
<use x="451.70" y="274.00" xlink:href="#hd"/>
<path d="M455.20 274.00v-21.00" class="stroke"/>
<use x="482.70" y="268.00" xlink:href="#hd"/>
<path d="M486.20 268.00v-21.00" class="stroke"/>
<use x="513.80" y="262.00" xlink:href="#hd"/>
<path d="M517.30 262.00v-21.00" class="stroke"/>
<use x="544.90" y="268.00" xlink:href="#hd"/>
<path d="M548.40 268.00v-21.00" class="stroke"/>
<use x="579.40" y="268.00" xlink:href="#hd"/>
<path d="M582.90 268.00v-21.00" class="stroke"/>
<use x="610.50" y="262.00" xlink:href="#hd"/>
<path d="M614.00 262.00v-21.00" class="stroke"/>
<use x="641.60" y="256.00" xlink:href="#hd"/>
<path d="M638.10 256.00v21.00" class="stroke"/>
<use x="669.60" y="262.00" xlink:href="#hd"/>
<path d="M673.10 262.00v-21.00" class="stroke"/>
</g>
<g stroke-width="0.70" style="font:bold 13.00px Times">
<path class="stroke" stroke-width="1"
	d="M10.00 399.00v-82.00"/>
<g transform="translate(10.00,317.00) scale(1,0.82)">
	<use xlink:href="#brace"/>
</g>
<path class="stroke" stroke-width="1"
	d="M167.00 341.00v-24.00"/>
<path class="stroke" stroke-width="1"
	d="M167.00 399.00v-24.00"/>
<path class="stroke" stroke-width="1"
	d="M291.50 341.00v-24.00"/>
<path class="stroke" stroke-width="1"
	d="M291.50 399.00v-24.00"/>
<path class="stroke" stroke-width="1"
	d="M415.90 341.00v-24.00"/>
<path class="stroke" stroke-width="1"
	d="M415.90 399.00v-24.00"/>
<path class="stroke" stroke-width="1"
	d="M540.40 341.00v-24.00"/>
<path class="stroke" stroke-width="1"
	d="M540.40 399.00v-24.00"/>
<path class="stroke" stroke-width="1"
	d="M691.60 341.00v-24.00"/>
<path class="stroke" stroke-width="1"
	d="M691.60 399.00v-24.00"/>
<path d="m10.00 341.00
	h681.60
	M10.00 335.00
	h681.60
	M10.00 329.00
	h681.60
	M10.00 323.00
	h681.60
	M10.00 317.00
	h681.60
	" class="stroke"/>
<path d="m10.00 399.00
	h681.60
	M10.00 393.00
	h681.60
	M10.00 387.00
	h681.60
	M10.00 381.00
	h681.60
	M10.00 375.00
	h681.60
	" class="stroke"/>
</g>
<g stroke-width="0.70" style="font:bold 13.00px Times">
<text x="50.40" y="312.40">iii</text>
</g>
<g stroke-width="0.70" style="font:bold 13.00px Times">
<text x="177.70" y="307.40">I</text>
</g>
<g stroke-width="0.70" style="font:bold 13.00px Times">
<text x="302.20" y="304.40">I</text>
</g>
<g stroke-width="0.70" style="font:bold 13.00px Times">
<text x="426.60" y="304.40">I</text>
</g>
<g stroke-width="0.70" style="font:bold 13.00px Times">
<text x="548.70" y="310.40">IV</text>
<use x="22.00" y="335.00" xlink:href="#tclef"/>
<use x="37.00" y="329.00" xlink:href="#ft0"/>
<use x="55.00" y="341.00" xlink:href="#hd"/>
<path d="M58.50 341.00v-21.00" class="stroke"/>
<use x="85.20" y="344.00" xlink:href="#hd"/>
<path d="M88.70 344.00v-21.00" class="stroke"/>
<use x="115.40" y="341.00" xlink:href="#hd"/>
<path d="M118.90 341.00v-21.00" class="stroke"/>
<use x="145.60" y="338.00" xlink:href="#hd"/>
<path d="M149.10 338.00v-21.00" class="stroke"/>
<use x="179.50" y="335.00" xlink:href="#hd"/>
<path d="M183.00 335.00v-21.00" class="stroke"/>
<use x="209.70" y="332.00" xlink:href="#Hd"/>
<circle class="fill" cx="218.40" cy="332.00" r="1.2"/>
<path d="M213.20 332.00v-21.00" class="stroke"/>
<use x="304.00" y="332.00" xlink:href="#hd"/>
<path d="M307.50 332.00v-21.00" class="stroke"/>
<use x="334.10" y="332.00" xlink:href="#hd"/>
<path d="M337.60 332.00v-21.00" class="stroke"/>
<use x="364.30" y="332.00" xlink:href="#hd"/>
<path d="M367.80 332.00v-21.00" class="stroke"/>
<use x="394.40" y="335.00" xlink:href="#hd"/>
<path d="M397.90 335.00v-21.00" class="stroke"/>
<use x="428.40" y="332.00" xlink:href="#hd"/>
<path d="M431.90 332.00v-21.00" class="stroke"/>
<use x="458.70" y="326.00" xlink:href="#hd"/>
<path d="M455.20 326.00v21.00" class="stroke"/>
<use x="488.80" y="329.00" xlink:href="#hd"/>
<path d="M485.30 329.00v21.00" class="stroke"/>
<use x="519.00" y="344.00" xlink:href="#hd"/>
<path d="M522.50 344.00v-21.00" class="stroke"/>
<use x="554.40" y="323.00" xlink:href="#hd"/>
<path d="M550.90 323.00v21.00" class="stroke"/>
<use x="584.60" y="326.00" xlink:href="#hd"/>
<path d="M581.10 326.00v21.00" class="stroke"/>
<use x="611.80" y="338.00" xlink:href="#hd"/>
<path d="M615.30 338.00v-21.00" class="stroke"/>
<use x="641.90" y="332.00" xlink:href="#hd"/>
<circle class="fill" cx="649.60" cy="332.00" r="1.2"/>
<path d="M645.40 332.00v-21.00" class="stroke"/>
<use x="22.00" y="381.00" xlink:href="#bclef"/>
<use x="37.00" y="393.00" xlink:href="#ft0"/>
<use x="55.00" y="396.00" xlink:href="#hd"/>
<path d="M58.50 396.00v-21.00" class="stroke"/>
<use x="85.20" y="390.00" xlink:href="#hd"/>
<path d="M88.70 390.00v-21.00" class="stroke"/>
<use x="115.40" y="384.00" xlink:href="#hd"/>
<path d="M111.90 384.00v21.00" class="stroke"/>
<use x="145.60" y="390.00" xlink:href="#hd"/>
<path d="M149.10 390.00v-21.00" class="stroke"/>
<use x="179.50" y="402.00" xlink:href="#hd"/>
<path d="M183.00 402.00v-21.00" class="stroke"/>
<use x="209.70" y="396.00" xlink:href="#hd"/>
<path d="M213.20 396.00v-21.00" class="stroke"/>
<use x="239.90" y="390.00" xlink:href="#hd"/>
<path d="M243.40 390.00v-21.00" class="stroke"/>
<use x="270.00" y="396.00" xlink:href="#hd"/>
<path d="M273.50 396.00v-21.00" class="stroke"/>
<use x="304.00" y="402.00" xlink:href="#hd"/>
<path d="M307.50 402.00v-21.00" class="stroke"/>
<use x="334.10" y="396.00" xlink:href="#hd"/>
<path d="M337.60 396.00v-21.00" class="stroke"/>
<use x="364.30" y="390.00" xlink:href="#hd"/>
<path d="M367.80 390.00v-21.00" class="stroke"/>
<use x="394.40" y="396.00" xlink:href="#hd"/>
<path d="M397.90 396.00v-21.00" class="stroke"/>
<use x="428.40" y="402.00" xlink:href="#hd"/>
<path d="M431.90 402.00v-21.00" class="stroke"/>
<use x="458.70" y="396.00" xlink:href="#hd"/>
<path d="M462.20 396.00v-21.00" class="stroke"/>
<use x="488.80" y="390.00" xlink:href="#hd"/>
<path d="M492.30 390.00v-21.00" class="stroke"/>
<use x="519.00" y="396.00" xlink:href="#hd"/>
<path d="M522.50 396.00v-21.00" class="stroke"/>
<defs>
<path id="HD" class="fill" d="m-2.7 -1.4
	c1.5 -2.8 6.9 0 5.3 2.7
	-1.5 2.8 -6.9 0 -5.3 -2.7
	m8.3 1.4
	c0 -1.5 -2.2 -3 -5.6 -3
	-3.4 0 -5.6 1.5 -5.6 3
	0 1.5 2.2 3 5.6 3
	3.4 0 5.6 -1.5 5.6 -3"/>
</defs>
<use x="555.40" y="393.00" xlink:href="#HD"/>
<use x="555.40" y="387.00" xlink:href="#HD"/>
<use x="555.40" y="381.00" xlink:href="#HD"/>
<use x="671.60" y="393.00" xlink:href="#hd"/>
<path d="M675.10 393.00v-31.00" class="stroke"/>
<path class="fill"
	d="M675.10 362.00c0.6 5.6 9.6 9 5.6 18.4
	1.6 -6 -1.3 -11.6 -5.6 -12.8
"/>
<use x="671.60" y="387.00" xlink:href="#hd"/>
<use x="671.60" y="381.00" xlink:href="#hd"/>
<path class="fill"
	d="M557.90 393.00c13.87 6.48 96.30 6.48 110.17 -0.00
	v0.31c-17.18 8.17 -93.00 8.17 -110.17 -0.31"/>
<path class="fill"
	d="M557.90 387.00c13.87 -6.48 96.30 -6.48 110.17 -0.00
	v-0.31c-17.18 -8.17 -93.00 -8.17 -110.17 0.31"/>
<path class="fill"
	d="M557.90 381.00c13.87 -6.48 96.30 -6.48 110.17 -0.00
	v-0.31c-17.18 -8.17 -93.00 -8.17 -110.17 0.31"/>
</g>
<g stroke-width="0.70" style="font:bold 13.00px Times">
<path class="stroke" stroke-width="1"
	d="M10.00 527.00v-82.00"/>
<g transform="translate(10.00,445.00) scale(1,0.82)">
	<use xlink:href="#brace"/>
</g>
<path class="stroke" stroke-width="1"
	d="M128.90 469.00v-24.00"/>
<path class="stroke" stroke-width="1"
	d="M128.90 527.00v-24.00"/>
<path d="m10.00 469.00
	h118.90
	M10.00 463.00
	h118.90
	M10.00 457.00
	h118.90
	M10.00 451.00
	h118.90
	M10.00 445.00
	h118.90
	" class="stroke"/>
<path d="m10.00 527.00
	h118.90
	M10.00 521.00
	h118.90
	M10.00 515.00
	h118.90
	M10.00 509.00
	h118.90
	M10.00 503.00
	h118.90
	" class="stroke"/>
</g>
<g stroke-width="0.70" style="font:bold 13.00px Times">
<text x="53.70" y="435.40">I</text>
<use x="22.00" y="463.00" xlink:href="#tclef"/>
<use x="37.00" y="457.00" xlink:href="#ft0"/>
<use x="55.50" y="463.00" xlink:href="#hd"/>
<path d="M59.00 463.00v-21.00" class="stroke"/>
<path class="fill"
	d="M59.00 442.00c0.6 5.6 9.6 9 5.6 18.4
	1.6 -6 -1.3 -11.6 -5.6 -12.8
"/>
<use x="83.80" y="466.00" xlink:href="#Hd"/>
<circle class="fill" cx="92.50" cy="466.00" r="1.2"/>
<path d="M87.30 466.00v-21.00" class="stroke"/>
<use x="22.00" y="509.00" xlink:href="#bclef"/>
<use x="37.00" y="521.00" xlink:href="#ft0"/>
<use x="55.50" y="530.00" xlink:href="#Hd"/>
<circle class="fill" cx="65.20" cy="530.00" r="1.2"/>
<circle class="fill" cx="68.70" cy="530.00" r="1.2"/>
<path d="M59.00 530.00v-31.00" class="stroke"/>
<use x="55.50" y="524.00" xlink:href="#Hd"/>
<circle class="fill" cx="65.20" cy="524.00" r="1.2"/>
<circle class="fill" cx="68.70" cy="524.00" r="1.2"/>
<use x="55.50" y="518.00" xlink:href="#Hd"/>
<circle class="fill" cx="65.20" cy="518.00" r="1.2"/>
<circle class="fill" cx="68.70" cy="518.00" r="1.2"/>
</g>
</svg>
