<?xml version="1.0" standalone="no"?>
<!DOCTYPE svg PUBLIC "-//W3C//DTD SVG 1.1//EN"
	"http://www.w3.org/Graphics/SVG/1.1/DTD/svg11.dtd">
<svg xmlns="http://www.w3.org/2000/svg" version="1.1"
	xmlns:xlink="http://www.w3.org/1999/xlink"
	color="black"
	width="701.60px" height="1074.00px" viewBox="0 0 701.60 1074.00" preserveAspectRatio="xMidYMid meet">
<style type="text/css">
.fill {fill: currentColor}
.stroke {stroke: currentColor; fill: none}
text{white-space: pre}
</style>
<title>/tmp/retab_hymnal_L3/o_lord_we_praise_thee.abc (1) tune 1</title>
<!-- Creator: abcm2ps-8.14.11 -->
<!-- CreationDate: Apr 24, 2026 15:38 -->
<!-- CommandLine: /tmp/retab_hymnal_L3/o_lord_we_praise_thee.abc -g -O /tmp/retab_hymnal_L3/o_lord_we_praise_thee -->
<g stroke-width="0.70">
<!-- title: 182. O Lord We Praise Thee -->
</g>
<g stroke-width="0.70" style="font:20.00px Times">
<text x="350.80" y="22.00" text-anchor="middle">182. O Lord We Praise Thee</text>
</g>
<g stroke-width="0.70" style="font:20.00px Times">
<path class="stroke" stroke-width="1"
	d="M10.00 145.40v-82.00"/>
<defs>
<path id="brace" class="fill" d="m-2.5 101
	c-4.5 -4.6 -7.5 -12.2 -4.4 -26.8
	3.5 -14.3 3.2 -21.7 -2.1 -24.2
	7.4 2.4 7.3 14.2 3.5 29.5
	-2.7 9.5 -1.5 16.2 3 21.5
	M-2.5 1c-4.5 4.6 -7.5 12.2 -4.4 26.8
	c3.5 14.3 3.2 21.7 -2.1 24.2
	7.4 -2.4 7.3 -14.2 3.5 -29.5
	-2.7 -9.5 -1.5 -16.2 3 -21.5"/>
</defs>
<g transform="translate(10.00,63.40) scale(1,0.82)">
	<use xlink:href="#brace"/>
</g>
<path class="stroke" stroke-width="1"
	d="M192.20 87.40v-24.00"/>
<path class="stroke" stroke-width="1"
	d="M192.20 145.40v-24.00"/>
<path class="stroke" stroke-width="1"
	d="M314.70 87.40v-24.00"/>
<path class="stroke" stroke-width="1"
	d="M314.70 145.40v-24.00"/>
<path class="stroke" stroke-width="1"
	d="M449.30 87.40v-24.00"/>
<path class="stroke" stroke-width="1"
	d="M449.30 145.40v-24.00"/>
<path class="stroke" stroke-width="1"
	d="M571.80 87.40v-24.00"/>
<path class="stroke" stroke-width="1"
	d="M571.80 145.40v-24.00"/>
<path class="stroke" stroke-width="1"
	d="M691.60 87.40v-24.00"/>
<path class="stroke" stroke-width="1"
	d="M691.60 145.40v-24.00"/>
<path d="m10.00 87.40
	h681.60
	M10.00 81.40
	h681.60
	M10.00 75.40
	h681.60
	M10.00 69.40
	h681.60
	M10.00 63.40
	h681.60
	" class="stroke"/>
<path d="m10.00 145.40
	h681.60
	M10.00 139.40
	h681.60
	M10.00 133.40
	h681.60
	M10.00 127.40
	h681.60
	M10.00 121.40
	h681.60
	" class="stroke"/>
</g>
<g stroke-width="0.70" style="font:bold 13.00px Times">
<text x="80.70" y="50.80">I</text>
</g>
<g stroke-width="0.70" style="font:bold 13.00px Times">
<text x="201.30" y="47.80">V</text>
</g>
<g stroke-width="0.70" style="font:bold 13.00px Times">
<text x="324.20" y="58.80">ii</text>
</g>
<g stroke-width="0.70" style="font:bold 13.00px Times">
<text x="458.30" y="58.80">V</text>
</g>
<g stroke-width="0.70" style="font:bold 13.00px Times">
<text x="583.00" y="47.80">I</text>
<defs>
<path id="utclef" class="fill" d="m-50 -90
	c-72 -41 -72 -158 52 -188
	150 -10 220 188 90 256
	-114 52 -275 0 -293 -136
	-15 -181 93 -229 220 -334
	88 -87 79 -133 62 -210
	-51 33 -94 105 -89 186
	17 267 36 374 49 574
	6 96 -19 134 -77 135
	-80 1 -126 -93 -61 -133
	85 -41 133 101 31 105
	23 17 92 37 90 -92
	-10 -223 -39 -342 -50 -617
	0 -90 0 -162 96 -232
	56 72 63 230 22 289
	-74 106 -257 168 -255 316
	9 153 148 185 252 133
	86 -65 29 -192 -80 -176
	-71 12 -105 67 -59 124"/>
<use id="tclef" transform="translate(0,6) scale(0.045)"
	xlink:href="#utclef"/>
</defs>
<use x="22.00" y="81.40" xlink:href="#tclef"/>
<defs>
<path id="usharp" class="fill" d="
	m136 -702
	v890
	h32
	v-890
	m128 840
	h32
	v-888
	h-32
	m-232 286
	v116
	l338 -96
	v-116
	m-338 442
	v116
	l338 -98
	v-114"/>
<use id="sh0" transform="translate(-4,5) scale(0.018)"
	xlink:href="#usharp"/>
</defs>
<use x="37.00" y="63.40" xlink:href="#sh0"/>
<use x="42.50" y="72.40" xlink:href="#sh0"/>
<use x="48.00" y="60.40" xlink:href="#sh0"/>
<g style="font:bold 16px serif"
	transform="translate(64.00,86.90) scale(1.2,1)">
	<text text-anchor="middle">4</text>
	<text y="-12" text-anchor="middle">4</text>
</g>
<defs>
<path id="Hd" class="fill" d="m3 -1.6
	c-1 -1.8 -7 1.4 -6 3.2
	1 1.8 7 -1.4 6 -3.2
	m0.5 -0.3
	c2 3.8 -5 7.6 -7 3.8
	-2 -3.8 5 -7.6 7 -3.8"/>
</defs>
<use x="82.50" y="78.40" xlink:href="#Hd"/>
<path d="M86.00 78.40v-21.00" class="stroke"/>
<defs>
<ellipse id="hd" rx="4.1" ry="2.9"
	transform="rotate(-20)" class="fill"/>
</defs>
<use x="141.70" y="78.40" xlink:href="#hd"/>
<path d="M145.20 78.40v-21.00" class="stroke"/>
<use x="171.10" y="78.40" xlink:href="#hd"/>
<path d="M174.60 78.40v-21.00" class="stroke"/>
<use x="205.20" y="75.40" xlink:href="#Hd"/>
<path d="M208.70 75.40v-21.00" class="stroke"/>
<use x="264.20" y="78.40" xlink:href="#Hd"/>
<path d="M267.70 78.40v-21.00" class="stroke"/>
<use x="327.20" y="69.40" xlink:href="#hd"/>
<circle class="fill" cx="334.90" cy="66.40" r="1.2"/>
<path d="M323.70 69.40v21.00" class="stroke"/>
<use x="377.70" y="66.40" xlink:href="#hd"/>
<path d="M374.20 66.40v21.00" class="stroke"/>
<path class="fill"
	d="M374.20 87.40c0.6 -5.6 9.6 -9 5.6 -18.4
	1.6 6 -1.3 11.6 -5.6 12.8
"/>
<use x="398.70" y="69.40" xlink:href="#hd"/>
<path d="M395.20 69.40v21.00" class="stroke"/>
<use x="428.20" y="72.40" xlink:href="#hd"/>
<path d="M424.70 72.40v21.00" class="stroke"/>
<use x="462.30" y="75.40" xlink:href="#Hd"/>
<path d="M458.80 75.40v21.00" class="stroke"/>
<use x="521.20" y="78.40" xlink:href="#Hd"/>
<path d="M524.70 78.40v-21.00" class="stroke"/>
<use x="584.80" y="75.40" xlink:href="#Hd"/>
<path d="M588.30 75.40v-21.00" class="stroke"/>
<use x="643.90" y="69.40" xlink:href="#Hd"/>
<path d="M640.40 69.40v21.00" class="stroke"/>
<defs>
<path id="ubclef" class="fill" d="m-200 -87
	c124 -35 222 -78 254 -236
	43 -228 -167 -246 -192 -103
	59 -80 157 22 92 78
	-62 47 -115 -22 -106 -88
	21 -141 270 -136 274 52
	-1 175 -106 264 -322 297
	m357 -250
	c0 -36 51 -34 51 0
	0 37 -51 36 -51 0
	m-2 -129
	c0 -36 51 -34 51 0
	0 38 -51 37 -51 0"/>
<use id="bclef" transform="translate(0,18) scale(0.045)"
	xlink:href="#ubclef"/>
</defs>
<use x="22.00" y="127.40" xlink:href="#bclef"/>
<use x="37.00" y="127.40" xlink:href="#sh0"/>
<use x="42.50" y="136.40" xlink:href="#sh0"/>
<use x="48.00" y="124.40" xlink:href="#sh0"/>
<g style="font:bold 16px serif"
	transform="translate(64.00,144.90) scale(1.2,1)">
	<text text-anchor="middle">4</text>
	<text y="-12" text-anchor="middle">4</text>
</g>
<use x="82.50" y="142.40" xlink:href="#hd"/>
<path d="M86.00 142.40v-21.00" class="stroke"/>
<use x="112.00" y="136.40" xlink:href="#hd"/>
<path d="M115.50 136.40v-21.00" class="stroke"/>
<use x="141.70" y="130.40" xlink:href="#hd"/>
<path d="M138.20 130.40v21.00" class="stroke"/>
<use x="171.10" y="136.40" xlink:href="#hd"/>
<path d="M174.60 136.40v-21.00" class="stroke"/>
<use x="205.20" y="130.40" xlink:href="#hd"/>
<path d="M201.70 130.40v21.00" class="stroke"/>
<use x="234.70" y="124.40" xlink:href="#hd"/>
<path d="M231.20 124.40v21.00" class="stroke"/>
<use x="264.20" y="118.40" xlink:href="#hd"/>
<path d="M260.70 118.40v21.00" class="stroke"/>
<use x="293.70" y="124.40" xlink:href="#hd"/>
<path d="M290.20 124.40v21.00" class="stroke"/>
<use x="327.20" y="139.40" xlink:href="#hd"/>
<path d="M330.70 139.40v-21.00" class="stroke"/>
<use x="356.70" y="133.40" xlink:href="#hd"/>
<path d="M360.20 133.40v-21.00" class="stroke"/>
<use x="398.70" y="127.40" xlink:href="#hd"/>
<path d="M395.20 127.40v21.00" class="stroke"/>
<use x="428.20" y="133.40" xlink:href="#hd"/>
<path d="M424.70 133.40v21.00" class="stroke"/>
<use x="462.30" y="130.40" xlink:href="#hd"/>
<path d="M458.80 130.40v21.00" class="stroke"/>
<use x="491.80" y="124.40" xlink:href="#hd"/>
<path d="M488.30 124.40v21.00" class="stroke"/>
<use x="521.20" y="118.40" xlink:href="#hd"/>
<path d="M517.70 118.40v21.00" class="stroke"/>
<use x="550.70" y="124.40" xlink:href="#hd"/>
<path d="M547.20 124.40v21.00" class="stroke"/>
<use x="584.80" y="142.40" xlink:href="#hd"/>
<path d="M588.30 142.40v-21.00" class="stroke"/>
<use x="614.30" y="136.40" xlink:href="#hd"/>
<path d="M617.80 136.40v-21.00" class="stroke"/>
<use x="643.90" y="130.40" xlink:href="#hd"/>
<path d="M640.40 130.40v21.00" class="stroke"/>
<use x="670.50" y="136.40" xlink:href="#hd"/>
<path d="M674.00 136.40v-21.00" class="stroke"/>
</g>
<g stroke-width="0.70" style="font:bold 13.00px Times">
<path class="stroke" stroke-width="1"
	d="M10.00 273.40v-82.00"/>
<g transform="translate(10.00,191.40) scale(1,0.82)">
	<use xlink:href="#brace"/>
</g>
<path class="stroke" stroke-width="1"
	d="M181.00 215.40v-24.00"/>
<path class="stroke" stroke-width="1"
	d="M181.00 273.40v-24.00"/>
<path class="stroke" stroke-width="1"
	d="M308.40 215.40v-24.00"/>
<path class="stroke" stroke-width="1"
	d="M308.40 273.40v-24.00"/>
<path class="stroke" stroke-width="1"
	d="M435.70 215.40v-24.00"/>
<path class="stroke" stroke-width="1"
	d="M435.70 273.40v-24.00"/>
<path class="stroke" stroke-width="1"
	d="M564.10 215.40v-24.00"/>
<path class="stroke" stroke-width="1"
	d="M564.10 273.40v-24.00"/>
<path class="stroke" stroke-width="1"
	d="M691.60 215.40v-24.00"/>
<path class="stroke" stroke-width="1"
	d="M691.60 273.40v-24.00"/>
<path d="m10.00 215.40
	h681.60
	M10.00 209.40
	h681.60
	M10.00 203.40
	h681.60
	M10.00 197.40
	h681.60
	M10.00 191.40
	h681.60
	" class="stroke"/>
<path d="m10.00 273.40
	h681.60
	M10.00 267.40
	h681.60
	M10.00 261.40
	h681.60
	M10.00 255.40
	h681.60
	M10.00 249.40
	h681.60
	" class="stroke"/>
</g>
<g stroke-width="0.70" style="font:bold 13.00px Times">
<text x="62.70" y="178.80">I<tspan
	 style="font:italic 11.00px Times">¹</tspan></text>
</g>
<g stroke-width="0.70" style="font:bold 13.00px Times">
<text x="188.10" y="181.80">V<tspan
	 style="font:italic 11.00px Times">⁷</tspan></text>
</g>
<g stroke-width="0.70" style="font:bold 13.00px Times">
<text x="313.40" y="186.80">vi<tspan
	 style="font:italic 11.00px Times">⁷²</tspan></text>
</g>
<g stroke-width="0.70" style="font:bold 13.00px Times">
<text x="443.50" y="186.80">vi<tspan
	 style="font:italic 11.00px Times">⁷</tspan></text>
</g>
<g stroke-width="0.70" style="font:bold 13.00px Times">
<text x="575.30" y="178.80">I</text>
<use x="22.00" y="209.40" xlink:href="#tclef"/>
<use x="37.00" y="191.40" xlink:href="#sh0"/>
<use x="42.50" y="200.40" xlink:href="#sh0"/>
<use x="48.00" y="188.40" xlink:href="#sh0"/>
<use x="66.50" y="206.40" xlink:href="#Hd"/>
<path d="M70.00 206.40v-21.00" class="stroke"/>
<use x="128.30" y="212.40" xlink:href="#Hd"/>
<path d="M131.80 212.40v-21.00" class="stroke"/>
<use x="194.00" y="209.40" xlink:href="#Hd"/>
<path d="M197.50 209.40v-21.00" class="stroke"/>
<use x="255.70" y="212.40" xlink:href="#Hd"/>
<path d="M259.20 212.40v-21.00" class="stroke"/>
<use x="321.40" y="215.40" xlink:href="#Hd"/>
<path d="M324.90 215.40v-21.00" class="stroke"/>
<use x="383.00" y="209.40" xlink:href="#Hd"/>
<path d="M386.50 209.40v-21.00" class="stroke"/>
<defs>
<path id="HD" class="fill" d="m-2.7 -1.4
	c1.5 -2.8 6.9 0 5.3 2.7
	-1.5 2.8 -6.9 0 -5.3 -2.7
	m8.3 1.4
	c0 -1.5 -2.2 -3 -5.6 -3
	-3.4 0 -5.6 1.5 -5.6 3
	0 1.5 2.2 3 5.6 3
	3.4 0 5.6 -1.5 5.6 -3"/>
</defs>
<use x="450.70" y="206.40" xlink:href="#HD"/>
<use x="577.10" y="206.40" xlink:href="#Hd"/>
<path d="M580.60 206.40v-21.00" class="stroke"/>
<use x="638.90" y="206.40" xlink:href="#hd"/>
<path d="M642.40 206.40v-21.00" class="stroke"/>
<use x="669.70" y="206.40" xlink:href="#hd"/>
<path d="M673.20 206.40v-21.00" class="stroke"/>
<use x="22.00" y="255.40" xlink:href="#bclef"/>
<use x="37.00" y="255.40" xlink:href="#sh0"/>
<use x="42.50" y="264.40" xlink:href="#sh0"/>
<use x="48.00" y="252.40" xlink:href="#sh0"/>
<use x="66.50" y="270.40" xlink:href="#hd"/>
<path d="M70.00 270.40v-21.00" class="stroke"/>
<use x="97.30" y="264.40" xlink:href="#hd"/>
<path d="M100.80 264.40v-21.00" class="stroke"/>
<use x="128.30" y="258.40" xlink:href="#hd"/>
<path d="M124.80 258.40v21.00" class="stroke"/>
<use x="159.10" y="264.40" xlink:href="#hd"/>
<path d="M162.60 264.40v-21.00" class="stroke"/>
<use x="194.00" y="258.40" xlink:href="#hd"/>
<path d="M190.50 258.40v21.00" class="stroke"/>
<use x="224.80" y="252.40" xlink:href="#hd"/>
<path d="M221.30 252.40v21.00" class="stroke"/>
<use x="255.70" y="246.40" xlink:href="#hd"/>
<path d="M252.20 246.40v21.00" class="stroke"/>
<use x="286.50" y="252.40" xlink:href="#hd"/>
<path d="M283.00 252.40v21.00" class="stroke"/>
<use x="321.40" y="255.40" xlink:href="#hd"/>
<path d="M317.90 255.40v21.00" class="stroke"/>
<use x="352.20" y="249.40" xlink:href="#hd"/>
<path d="M348.70 249.40v21.00" class="stroke"/>
<defs>
<path id="hl" class="stroke" d="m-6 0h12"/>
</defs>
<use x="383.00" y="243.40" xlink:href="#hl"/>
<use x="383.00" y="243.40" xlink:href="#hd"/>
<path d="M379.50 243.40v21.00" class="stroke"/>
<use x="413.90" y="249.40" xlink:href="#hd"/>
<path d="M410.40 249.40v21.00" class="stroke"/>
<use x="449.70" y="255.40" xlink:href="#hd"/>
<path d="M446.20 255.40v21.00" class="stroke"/>
<use x="480.60" y="249.40" xlink:href="#hd"/>
<path d="M477.10 249.40v21.00" class="stroke"/>
<use x="511.40" y="243.40" xlink:href="#hl"/>
<use x="511.40" y="243.40" xlink:href="#hd"/>
<path d="M507.90 243.40v21.00" class="stroke"/>
<use x="542.20" y="249.40" xlink:href="#hd"/>
<path d="M538.70 249.40v21.00" class="stroke"/>
<use x="577.10" y="270.40" xlink:href="#hd"/>
<path d="M580.60 270.40v-21.00" class="stroke"/>
<use x="607.90" y="264.40" xlink:href="#hd"/>
<path d="M611.40 264.40v-21.00" class="stroke"/>
<use x="638.90" y="258.40" xlink:href="#hd"/>
<path d="M635.40 258.40v21.00" class="stroke"/>
<use x="669.70" y="264.40" xlink:href="#hd"/>
<path d="M673.20 264.40v-21.00" class="stroke"/>
</g>
<g stroke-width="0.70" style="font:bold 13.00px Times">
<path class="stroke" stroke-width="1"
	d="M10.00 403.80v-82.00"/>
<g transform="translate(10.00,321.80) scale(1,0.82)">
	<use xlink:href="#brace"/>
</g>
<path class="stroke" stroke-width="1"
	d="M179.20 345.80v-24.00"/>
<path class="stroke" stroke-width="1"
	d="M179.20 403.80v-24.00"/>
<path class="stroke" stroke-width="1"
	d="M317.20 345.80v-24.00"/>
<path class="stroke" stroke-width="1"
	d="M317.20 403.80v-24.00"/>
<path class="stroke" stroke-width="1"
	d="M442.90 345.80v-24.00"/>
<path class="stroke" stroke-width="1"
	d="M442.90 403.80v-24.00"/>
<path class="stroke" stroke-width="1"
	d="M565.80 345.80v-24.00"/>
<path class="stroke" stroke-width="1"
	d="M565.80 403.80v-24.00"/>
<path class="stroke" stroke-width="1"
	d="M691.60 345.80v-24.00"/>
<path class="stroke" stroke-width="1"
	d="M691.60 403.80v-24.00"/>
<path d="m10.00 345.80
	h681.60
	M10.00 339.80
	h681.60
	M10.00 333.80
	h681.60
	M10.00 327.80
	h681.60
	M10.00 321.80
	h681.60
	" class="stroke"/>
<path d="m10.00 403.80
	h681.60
	M10.00 397.80
	h681.60
	M10.00 391.80
	h681.60
	M10.00 385.80
	h681.60
	M10.00 379.80
	h681.60
	" class="stroke"/>
</g>
<g stroke-width="0.70" style="font:bold 13.00px Times">
<text x="62.60" y="306.20">V</text>
</g>
<g stroke-width="0.70" style="font:bold 13.00px Times">
<text x="188.70" y="315.20">ii</text>
</g>
<g stroke-width="0.70" style="font:bold 13.00px Times">
<text x="326.30" y="315.20">V</text>
</g>
<g stroke-width="0.70" style="font:bold 13.00px Times">
<text x="454.10" y="306.20">I</text>
</g>
<g stroke-width="0.70" style="font:bold 13.00px Times">
<text x="575.00" y="309.20">I<tspan
	 style="font:italic 11.00px Times">¹</tspan></text>
</g>
<g stroke-width="0.70" style="font:italic 11.00px Times">
<use x="22.00" y="339.80" xlink:href="#tclef"/>
<use x="37.00" y="321.80" xlink:href="#sh0"/>
<use x="42.50" y="330.80" xlink:href="#sh0"/>
<use x="48.00" y="318.80" xlink:href="#sh0"/>
<use x="66.50" y="333.80" xlink:href="#Hd"/>
<path d="M70.00 333.80v-21.00" class="stroke"/>
<use x="127.30" y="336.80" xlink:href="#Hd"/>
<path d="M130.80 336.80v-21.00" class="stroke"/>
<use x="191.70" y="327.80" xlink:href="#hd"/>
<circle class="fill" cx="199.40" cy="324.80" r="1.2"/>
<path d="M188.20 327.80v21.00" class="stroke"/>
<use x="243.60" y="324.80" xlink:href="#hd"/>
<path d="M240.10 324.80v21.00" class="stroke"/>
<path class="fill"
	d="M240.10 345.80c0.6 -5.6 9.6 -9 5.6 -18.4
	1.6 6 -1.3 11.6 -5.6 12.8
"/>
<use x="265.30" y="327.80" xlink:href="#hd"/>
<path d="M261.80 327.80v21.00" class="stroke"/>
<use x="295.60" y="330.80" xlink:href="#hd"/>
<path d="M292.10 330.80v21.00" class="stroke"/>
<use x="330.20" y="333.80" xlink:href="#Hd"/>
<path d="M326.70 333.80v21.00" class="stroke"/>
<use x="391.00" y="336.80" xlink:href="#Hd"/>
<path d="M394.50 336.80v-21.00" class="stroke"/>
<use x="455.90" y="333.80" xlink:href="#Hd"/>
<path d="M459.40 333.80v-21.00" class="stroke"/>
<use x="516.80" y="327.80" xlink:href="#Hd"/>
<path d="M513.30 327.80v21.00" class="stroke"/>
<use x="578.80" y="336.80" xlink:href="#Hd"/>
<path d="M582.30 336.80v-21.00" class="stroke"/>
<use x="639.60" y="342.80" xlink:href="#Hd"/>
<path d="M643.10 342.80v-21.00" class="stroke"/>
<use x="22.00" y="385.80" xlink:href="#bclef"/>
<use x="37.00" y="385.80" xlink:href="#sh0"/>
<use x="42.50" y="394.80" xlink:href="#sh0"/>
<use x="48.00" y="382.80" xlink:href="#sh0"/>
<use x="66.50" y="388.80" xlink:href="#hd"/>
<path d="M63.00 388.80v21.00" class="stroke"/>
<use x="96.90" y="382.80" xlink:href="#hd"/>
<path d="M93.40 382.80v21.00" class="stroke"/>
<use x="127.30" y="376.80" xlink:href="#hd"/>
<path d="M123.80 376.80v21.00" class="stroke"/>
<use x="157.60" y="382.80" xlink:href="#hd"/>
<path d="M154.10 382.80v21.00" class="stroke"/>
<use x="191.70" y="397.80" xlink:href="#hd"/>
<path d="M195.20 397.80v-21.00" class="stroke"/>
<use x="222.10" y="391.80" xlink:href="#hd"/>
<path d="M225.60 391.80v-21.00" class="stroke"/>
<use x="265.30" y="385.80" xlink:href="#hd"/>
<path d="M261.80 385.80v21.00" class="stroke"/>
<use x="295.60" y="391.80" xlink:href="#hd"/>
<path d="M292.10 391.80v21.00" class="stroke"/>
<use x="330.20" y="388.80" xlink:href="#hd"/>
<path d="M326.70 388.80v21.00" class="stroke"/>
<use x="360.60" y="382.80" xlink:href="#hd"/>
<path d="M357.10 382.80v21.00" class="stroke"/>
<use x="391.00" y="376.80" xlink:href="#hd"/>
<path d="M387.50 376.80v21.00" class="stroke"/>
<use x="421.40" y="382.80" xlink:href="#hd"/>
<path d="M417.90 382.80v21.00" class="stroke"/>
<use x="455.90" y="400.80" xlink:href="#hd"/>
<path d="M459.40 400.80v-21.00" class="stroke"/>
<use x="486.30" y="394.80" xlink:href="#hd"/>
<path d="M489.80 394.80v-21.00" class="stroke"/>
<use x="516.80" y="388.80" xlink:href="#hd"/>
<path d="M513.30 388.80v21.00" class="stroke"/>
<use x="544.20" y="394.80" xlink:href="#hd"/>
<path d="M547.70 394.80v-21.00" class="stroke"/>
<use x="578.80" y="400.80" xlink:href="#hd"/>
<path d="M582.30 400.80v-21.00" class="stroke"/>
<use x="609.10" y="394.80" xlink:href="#hd"/>
<path d="M612.60 394.80v-21.00" class="stroke"/>
<use x="639.60" y="388.80" xlink:href="#hd"/>
<path d="M636.10 388.80v21.00" class="stroke"/>
<use x="670.00" y="394.80" xlink:href="#hd"/>
<path d="M673.50 394.80v-21.00" class="stroke"/>
</g>
<g stroke-width="0.70" style="font:italic 11.00px Times">
<path class="stroke" stroke-width="1"
	d="M10.00 534.20v-82.00"/>
<g transform="translate(10.00,452.20) scale(1,0.82)">
	<use xlink:href="#brace"/>
</g>
<path class="stroke" stroke-width="1"
	d="M178.40 476.20v-24.00"/>
<path class="stroke" stroke-width="1"
	d="M178.40 534.20v-24.00"/>
<path class="stroke" stroke-width="1"
	d="M303.30 476.20v-24.00"/>
<path class="stroke" stroke-width="1"
	d="M303.30 534.20v-24.00"/>
<path class="stroke" stroke-width="1"
	d="M429.30 476.20v-24.00"/>
<path class="stroke" stroke-width="1"
	d="M429.30 534.20v-24.00"/>
<path class="stroke" stroke-width="1"
	d="M554.20 476.20v-24.00"/>
<path class="stroke" stroke-width="1"
	d="M554.20 534.20v-24.00"/>
<path class="stroke" stroke-width="1"
	d="M691.60 476.20v-24.00"/>
<path class="stroke" stroke-width="1"
	d="M691.60 534.20v-24.00"/>
<path d="m10.00 476.20
	h681.60
	M10.00 470.20
	h681.60
	M10.00 464.20
	h681.60
	M10.00 458.20
	h681.60
	M10.00 452.20
	h681.60
	" class="stroke"/>
<path d="m10.00 534.20
	h681.60
	M10.00 528.20
	h681.60
	M10.00 522.20
	h681.60
	M10.00 516.20
	h681.60
	M10.00 510.20
	h681.60
	" class="stroke"/>
</g>
<g stroke-width="0.70" style="font:bold 13.00px Times">
<text x="60.60" y="442.60">V<tspan
	 style="font:italic 11.00px Times">⁷</tspan></text>
</g>
<g stroke-width="0.70" style="font:bold 13.00px Times">
<text x="183.40" y="445.60">vi<tspan
	 style="font:italic 11.00px Times">⁷²</tspan></text>
</g>
<g stroke-width="0.70" style="font:bold 13.00px Times">
<text x="311.10" y="447.60">vi<tspan
	 style="font:italic 11.00px Times">⁷</tspan></text>
</g>
<g stroke-width="0.70" style="font:bold 13.00px Times">
<text x="436.50" y="439.60">IV</text>
</g>
<g stroke-width="0.70" style="font:bold 13.00px Times">
<text x="563.70" y="436.60">ii</text>
<use x="22.00" y="470.20" xlink:href="#tclef"/>
<use x="37.00" y="452.20" xlink:href="#sh0"/>
<use x="42.50" y="461.20" xlink:href="#sh0"/>
<use x="48.00" y="449.20" xlink:href="#sh0"/>
<use x="66.50" y="470.20" xlink:href="#Hd"/>
<path d="M70.00 470.20v-21.00" class="stroke"/>
<use x="126.80" y="473.20" xlink:href="#Hd"/>
<path d="M130.30 473.20v-21.00" class="stroke"/>
<use x="191.40" y="476.20" xlink:href="#Hd"/>
<path d="M194.90 476.20v-21.00" class="stroke"/>
<use x="251.70" y="470.20" xlink:href="#Hd"/>
<path d="M255.20 470.20v-21.00" class="stroke"/>
<use x="318.30" y="467.20" xlink:href="#HD"/>
<use x="442.30" y="467.20" xlink:href="#Hd"/>
<path d="M445.80 467.20v-21.00" class="stroke"/>
<use x="502.60" y="467.20" xlink:href="#hd"/>
<path d="M506.10 467.20v-21.00" class="stroke"/>
<use x="532.80" y="467.20" xlink:href="#hd"/>
<path d="M536.30 467.20v-21.00" class="stroke"/>
<use x="566.70" y="464.20" xlink:href="#hd"/>
<circle class="fill" cx="574.40" cy="461.20" r="1.2"/>
<path d="M570.20 464.20v-21.00" class="stroke"/>
<use x="618.30" y="467.20" xlink:href="#hd"/>
<path d="M621.80 467.20v-21.00" class="stroke"/>
<path class="fill"
	d="M621.80 446.20c0.6 5.6 9.6 9 5.6 18.4
	1.6 -6 -1.3 -11.6 -5.6 -12.8
"/>
<use x="640.00" y="470.20" xlink:href="#Hd"/>
<path d="M643.50 470.20v-21.00" class="stroke"/>
<use x="22.00" y="516.20" xlink:href="#bclef"/>
<use x="37.00" y="516.20" xlink:href="#sh0"/>
<use x="42.50" y="525.20" xlink:href="#sh0"/>
<use x="48.00" y="513.20" xlink:href="#sh0"/>
<use x="66.50" y="519.20" xlink:href="#hd"/>
<path d="M63.00 519.20v21.00" class="stroke"/>
<use x="96.70" y="513.20" xlink:href="#hd"/>
<path d="M93.20 513.20v21.00" class="stroke"/>
<use x="126.80" y="507.20" xlink:href="#hd"/>
<path d="M123.30 507.20v21.00" class="stroke"/>
<use x="157.00" y="513.20" xlink:href="#hd"/>
<path d="M153.50 513.20v21.00" class="stroke"/>
<use x="191.40" y="516.20" xlink:href="#hd"/>
<path d="M187.90 516.20v21.00" class="stroke"/>
<use x="221.60" y="510.20" xlink:href="#hd"/>
<path d="M218.10 510.20v21.00" class="stroke"/>
<use x="251.70" y="504.20" xlink:href="#hl"/>
<use x="251.70" y="504.20" xlink:href="#hd"/>
<path d="M248.20 504.20v21.00" class="stroke"/>
<use x="281.90" y="510.20" xlink:href="#hd"/>
<path d="M278.40 510.20v21.00" class="stroke"/>
<use x="317.30" y="516.20" xlink:href="#hd"/>
<path d="M313.80 516.20v21.00" class="stroke"/>
<use x="347.50" y="510.20" xlink:href="#hd"/>
<path d="M344.00 510.20v21.00" class="stroke"/>
<use x="377.70" y="504.20" xlink:href="#hl"/>
<use x="377.70" y="504.20" xlink:href="#hd"/>
<path d="M374.20 504.20v21.00" class="stroke"/>
<use x="407.80" y="510.20" xlink:href="#hd"/>
<path d="M404.30 510.20v21.00" class="stroke"/>
<use x="442.30" y="522.20" xlink:href="#hd"/>
<path d="M438.80 522.20v21.00" class="stroke"/>
<use x="472.40" y="516.20" xlink:href="#hd"/>
<path d="M468.90 516.20v21.00" class="stroke"/>
<use x="502.60" y="510.20" xlink:href="#hd"/>
<path d="M499.10 510.20v21.00" class="stroke"/>
<use x="532.80" y="516.20" xlink:href="#hd"/>
<path d="M529.30 516.20v21.00" class="stroke"/>
<use x="566.70" y="528.20" xlink:href="#hd"/>
<path d="M570.20 528.20v-21.00" class="stroke"/>
<use x="596.90" y="522.20" xlink:href="#hd"/>
<path d="M600.40 522.20v-21.00" class="stroke"/>
<use x="640.00" y="516.20" xlink:href="#hd"/>
<path d="M636.50 516.20v21.00" class="stroke"/>
<use x="670.20" y="522.20" xlink:href="#hd"/>
<path d="M666.70 522.20v21.00" class="stroke"/>
</g>
<g stroke-width="0.70" style="font:bold 13.00px Times">
<path class="stroke" stroke-width="1"
	d="M10.00 664.60v-82.00"/>
<g transform="translate(10.00,582.60) scale(1,0.82)">
	<use xlink:href="#brace"/>
</g>
<path class="stroke" stroke-width="1"
	d="M179.50 606.60v-24.00"/>
<path class="stroke" stroke-width="1"
	d="M179.50 664.60v-24.00"/>
<path class="stroke" stroke-width="1"
	d="M307.60 606.60v-24.00"/>
<path class="stroke" stroke-width="1"
	d="M307.60 664.60v-24.00"/>
<path class="stroke" stroke-width="1"
	d="M435.60 606.60v-24.00"/>
<path class="stroke" stroke-width="1"
	d="M435.60 664.60v-24.00"/>
<path class="stroke" stroke-width="1"
	d="M563.60 606.60v-24.00"/>
<path class="stroke" stroke-width="1"
	d="M563.60 664.60v-24.00"/>
<path class="stroke" stroke-width="1"
	d="M691.60 606.60v-24.00"/>
<path class="stroke" stroke-width="1"
	d="M691.60 664.60v-24.00"/>
<path d="m10.00 606.60
	h681.60
	M10.00 600.60
	h681.60
	M10.00 594.60
	h681.60
	M10.00 588.60
	h681.60
	M10.00 582.60
	h681.60
	" class="stroke"/>
<path d="m10.00 664.60
	h681.60
	M10.00 658.60
	h681.60
	M10.00 652.60
	h681.60
	M10.00 646.60
	h681.60
	M10.00 640.60
	h681.60
	" class="stroke"/>
</g>
<g stroke-width="0.70" style="font:bold 13.00px Times">
<text x="65.70" y="578.00">I</text>
</g>
<g stroke-width="0.70" style="font:bold 13.00px Times">
<text x="190.70" y="570.00">I</text>
</g>
<g stroke-width="0.70" style="font:bold 13.00px Times">
<text x="316.70" y="567.00">V</text>
</g>
<g stroke-width="0.70" style="font:bold 13.00px Times">
<text x="442.90" y="576.00">IV</text>
</g>
<g stroke-width="0.70" style="font:bold 13.00px Times">
<text x="572.70" y="567.00">V</text>
<use x="22.00" y="600.60" xlink:href="#tclef"/>
<use x="37.00" y="582.60" xlink:href="#sh0"/>
<use x="42.50" y="591.60" xlink:href="#sh0"/>
<use x="48.00" y="579.60" xlink:href="#sh0"/>
<use x="68.50" y="597.60" xlink:href="#HD"/>
<use x="192.50" y="597.60" xlink:href="#Hd"/>
<path d="M196.00 597.60v-21.00" class="stroke"/>
<use x="254.70" y="597.60" xlink:href="#Hd"/>
<path d="M258.20 597.60v-21.00" class="stroke"/>
<use x="320.60" y="594.60" xlink:href="#Hd"/>
<path d="M324.10 594.60v-21.00" class="stroke"/>
<use x="382.60" y="591.60" xlink:href="#Hd"/>
<path d="M379.10 591.60v21.00" class="stroke"/>
<use x="448.60" y="588.60" xlink:href="#Hd"/>
<path d="M445.10 588.60v21.00" class="stroke"/>
<use x="510.60" y="597.60" xlink:href="#hd"/>
<path d="M514.10 597.60v-21.00" class="stroke"/>
<use x="541.60" y="597.60" xlink:href="#hd"/>
<path d="M545.10 597.60v-21.00" class="stroke"/>
<use x="576.60" y="594.60" xlink:href="#Hd"/>
<path d="M580.10 594.60v-21.00" class="stroke"/>
<use x="638.60" y="597.60" xlink:href="#Hd"/>
<path d="M642.10 597.60v-21.00" class="stroke"/>
<use x="22.00" y="646.60" xlink:href="#bclef"/>
<use x="37.00" y="646.60" xlink:href="#sh0"/>
<use x="42.50" y="655.60" xlink:href="#sh0"/>
<use x="48.00" y="643.60" xlink:href="#sh0"/>
<use x="67.50" y="661.60" xlink:href="#hd"/>
<path d="M71.00 661.60v-21.00" class="stroke"/>
<use x="98.50" y="655.60" xlink:href="#hd"/>
<path d="M102.00 655.60v-21.00" class="stroke"/>
<use x="129.60" y="649.60" xlink:href="#hd"/>
<path d="M126.10 649.60v21.00" class="stroke"/>
<use x="157.60" y="655.60" xlink:href="#hd"/>
<path d="M161.10 655.60v-21.00" class="stroke"/>
<use x="192.50" y="661.60" xlink:href="#hd"/>
<path d="M196.00 661.60v-21.00" class="stroke"/>
<use x="223.50" y="655.60" xlink:href="#hd"/>
<path d="M227.00 655.60v-21.00" class="stroke"/>
<use x="254.70" y="649.60" xlink:href="#hd"/>
<path d="M251.20 649.60v21.00" class="stroke"/>
<use x="285.70" y="655.60" xlink:href="#hd"/>
<path d="M289.20 655.60v-21.00" class="stroke"/>
<use x="320.60" y="649.60" xlink:href="#hd"/>
<path d="M317.10 649.60v21.00" class="stroke"/>
<use x="351.60" y="643.60" xlink:href="#hd"/>
<path d="M348.10 643.60v21.00" class="stroke"/>
<use x="382.60" y="637.60" xlink:href="#hd"/>
<path d="M379.10 637.60v21.00" class="stroke"/>
<use x="413.60" y="643.60" xlink:href="#hd"/>
<path d="M410.10 643.60v21.00" class="stroke"/>
<use x="448.60" y="652.60" xlink:href="#hd"/>
<path d="M445.10 652.60v21.00" class="stroke"/>
<use x="479.60" y="646.60" xlink:href="#hd"/>
<path d="M476.10 646.60v21.00" class="stroke"/>
<use x="510.60" y="640.60" xlink:href="#hd"/>
<path d="M507.10 640.60v21.00" class="stroke"/>
<use x="541.60" y="646.60" xlink:href="#hd"/>
<path d="M538.10 646.60v21.00" class="stroke"/>
<use x="576.60" y="649.60" xlink:href="#hd"/>
<path d="M573.10 649.60v21.00" class="stroke"/>
<use x="607.60" y="643.60" xlink:href="#hd"/>
<path d="M604.10 643.60v21.00" class="stroke"/>
<use x="638.60" y="637.60" xlink:href="#hd"/>
<path d="M635.10 637.60v21.00" class="stroke"/>
<use x="669.60" y="643.60" xlink:href="#hd"/>
<path d="M666.10 643.60v21.00" class="stroke"/>
</g>
<g stroke-width="0.70" style="font:bold 13.00px Times">
<path class="stroke" stroke-width="1"
	d="M10.00 792.60v-82.00"/>
<g transform="translate(10.00,710.60) scale(1,0.82)">
	<use xlink:href="#brace"/>
</g>
<path class="stroke" stroke-width="1"
	d="M173.50 734.60v-24.00"/>
<path class="stroke" stroke-width="1"
	d="M173.50 792.60v-24.00"/>
<path class="stroke" stroke-width="1"
	d="M296.20 734.60v-24.00"/>
<path class="stroke" stroke-width="1"
	d="M296.20 792.60v-24.00"/>
<path class="stroke" stroke-width="1"
	d="M430.90 734.60v-24.00"/>
<path class="stroke" stroke-width="1"
	d="M430.90 792.60v-24.00"/>
<path class="stroke" stroke-width="1"
	d="M570.60 734.60v-24.00"/>
<path class="stroke" stroke-width="1"
	d="M570.60 792.60v-24.00"/>
<path class="stroke" stroke-width="1"
	d="M691.60 734.60v-24.00"/>
<path class="stroke" stroke-width="1"
	d="M691.60 792.60v-24.00"/>
<path d="m10.00 734.60
	h681.60
	M10.00 728.60
	h681.60
	M10.00 722.60
	h681.60
	M10.00 716.60
	h681.60
	M10.00 710.60
	h681.60
	" class="stroke"/>
<path d="m10.00 792.60
	h681.60
	M10.00 786.60
	h681.60
	M10.00 780.60
	h681.60
	M10.00 774.60
	h681.60
	M10.00 768.60
	h681.60
	" class="stroke"/>
</g>
<g stroke-width="0.70" style="font:bold 13.00px Times">
<text x="64.70" y="706.00">I</text>
</g>
<g stroke-width="0.70" style="font:bold 13.00px Times">
<text x="182.50" y="704.00">V</text>
</g>
<g stroke-width="0.70" style="font:bold 13.00px Times">
<text x="302.90" y="704.00">IV</text>
</g>
<g stroke-width="0.70" style="font:bold 13.00px Times">
<text x="442.10" y="698.00">I</text>
</g>
<g stroke-width="0.70" style="font:bold 13.00px Times">
<text x="582.80" y="706.00">I</text>
<use x="22.00" y="728.60" xlink:href="#tclef"/>
<use x="37.00" y="710.60" xlink:href="#sh0"/>
<use x="42.50" y="719.60" xlink:href="#sh0"/>
<use x="48.00" y="707.60" xlink:href="#sh0"/>
<use x="66.50" y="719.60" xlink:href="#Hd"/>
<path d="M63.00 719.60v21.00" class="stroke"/>
<use x="125.70" y="716.60" xlink:href="#Hd"/>
<path d="M122.20 716.60v21.00" class="stroke"/>
<use x="186.50" y="713.60" xlink:href="#Hd"/>
<path d="M183.00 713.60v21.00" class="stroke"/>
<use x="245.50" y="713.60" xlink:href="#Hd"/>
<path d="M242.00 713.60v21.00" class="stroke"/>
<use x="308.70" y="716.60" xlink:href="#hd"/>
<circle class="fill" cx="316.40" cy="713.60" r="1.2"/>
<path d="M305.20 716.60v21.00" class="stroke"/>
<use x="359.20" y="719.60" xlink:href="#hd"/>
<path d="M355.70 719.60v21.00" class="stroke"/>
<path class="fill"
	d="M355.70 740.60c0.6 -5.6 9.6 -9 5.6 -18.4
	1.6 6 -1.3 11.6 -5.6 12.8
"/>
<use x="380.30" y="722.60" xlink:href="#Hd"/>
<path d="M376.80 722.60v21.00" class="stroke"/>
<use x="443.90" y="725.60" xlink:href="#Hd"/>
<path d="M447.40 725.60v-21.00" class="stroke"/>
<use x="503.10" y="725.60" xlink:href="#hd"/>
<circle class="fill" cx="510.80" cy="725.60" r="1.2"/>
<path d="M506.60 725.60v-21.00" class="stroke"/>
<use x="553.60" y="728.60" xlink:href="#hd"/>
<path d="M557.10 728.60v-21.00" class="stroke"/>
<path class="fill"
	d="M557.10 707.60c0.6 5.6 9.6 9 5.6 18.4
	1.6 -6 -1.3 -11.6 -5.6 -12.8
"/>
<use x="585.60" y="734.60" xlink:href="#HD"/>
<use x="22.00" y="774.60" xlink:href="#bclef"/>
<use x="37.00" y="774.60" xlink:href="#sh0"/>
<use x="42.50" y="783.60" xlink:href="#sh0"/>
<use x="48.00" y="771.60" xlink:href="#sh0"/>
<use x="66.50" y="789.60" xlink:href="#hd"/>
<path d="M70.00 789.60v-21.00" class="stroke"/>
<use x="96.00" y="783.60" xlink:href="#hd"/>
<path d="M99.50 783.60v-21.00" class="stroke"/>
<use x="125.70" y="777.60" xlink:href="#hd"/>
<path d="M122.20 777.60v21.00" class="stroke"/>
<use x="152.40" y="783.60" xlink:href="#hd"/>
<path d="M155.90 783.60v-21.00" class="stroke"/>
<use x="186.50" y="777.60" xlink:href="#hd"/>
<path d="M183.00 777.60v21.00" class="stroke"/>
<use x="216.00" y="771.60" xlink:href="#hd"/>
<path d="M212.50 771.60v21.00" class="stroke"/>
<use x="245.50" y="765.60" xlink:href="#hd"/>
<path d="M242.00 765.60v21.00" class="stroke"/>
<use x="275.10" y="771.60" xlink:href="#hd"/>
<path d="M271.60 771.60v21.00" class="stroke"/>
<use x="308.70" y="780.60" xlink:href="#hd"/>
<path d="M305.20 780.60v21.00" class="stroke"/>
<use x="338.20" y="774.60" xlink:href="#hd"/>
<path d="M334.70 774.60v21.00" class="stroke"/>
<use x="380.30" y="768.60" xlink:href="#hd"/>
<path d="M376.80 768.60v21.00" class="stroke"/>
<use x="409.80" y="774.60" xlink:href="#hd"/>
<path d="M406.30 774.60v21.00" class="stroke"/>
<use x="443.90" y="789.60" xlink:href="#hd"/>
<path d="M447.40 789.60v-21.00" class="stroke"/>
<use x="473.40" y="783.60" xlink:href="#hd"/>
<path d="M476.90 783.60v-21.00" class="stroke"/>
<use x="503.10" y="777.60" xlink:href="#hd"/>
<path d="M499.60 777.60v21.00" class="stroke"/>
<use x="532.70" y="783.60" xlink:href="#hd"/>
<path d="M536.20 783.60v-21.00" class="stroke"/>
<use x="584.60" y="789.60" xlink:href="#hd"/>
<path d="M588.10 789.60v-21.00" class="stroke"/>
<use x="614.20" y="783.60" xlink:href="#hd"/>
<path d="M617.70 783.60v-21.00" class="stroke"/>
<use x="643.90" y="777.60" xlink:href="#hd"/>
<path d="M640.40 777.60v21.00" class="stroke"/>
<use x="670.50" y="783.60" xlink:href="#hd"/>
<path d="M674.00 783.60v-21.00" class="stroke"/>
</g>
<g stroke-width="0.70" style="font:bold 13.00px Times">
<path class="stroke" stroke-width="1"
	d="M10.00 920.60v-82.00"/>
<g transform="translate(10.00,838.60) scale(1,0.82)">
	<use xlink:href="#brace"/>
</g>
<path class="stroke" stroke-width="1"
	d="M160.30 862.60v-24.00"/>
<path class="stroke" stroke-width="1"
	d="M160.30 920.60v-24.00"/>
<path class="stroke" stroke-width="1"
	d="M265.70 862.60v-24.00"/>
<path class="stroke" stroke-width="1"
	d="M265.70 920.60v-24.00"/>
<path class="stroke" stroke-width="1"
	d="M372.50 862.60v-24.00"/>
<path class="stroke" stroke-width="1"
	d="M372.50 920.60v-24.00"/>
<path class="stroke" stroke-width="1"
	d="M478.00 862.60v-24.00"/>
<path class="stroke" stroke-width="1"
	d="M478.00 920.60v-24.00"/>
<path class="stroke" stroke-width="1"
	d="M584.80 862.60v-24.00"/>
<path class="stroke" stroke-width="1"
	d="M584.80 920.60v-24.00"/>
<path class="stroke" stroke-width="1"
	d="M691.60 862.60v-24.00"/>
<path class="stroke" stroke-width="1"
	d="M691.60 920.60v-24.00"/>
<path d="m10.00 862.60
	h681.60
	M10.00 856.60
	h681.60
	M10.00 850.60
	h681.60
	M10.00 844.60
	h681.60
	M10.00 838.60
	h681.60
	" class="stroke"/>
<path d="m10.00 920.60
	h681.60
	M10.00 914.60
	h681.60
	M10.00 908.60
	h681.60
	M10.00 902.60
	h681.60
	M10.00 896.60
	h681.60
	" class="stroke"/>
</g>
<g stroke-width="0.70" style="font:bold 13.00px Times">
<text x="60.70" y="832.00">IV</text>
</g>
<g stroke-width="0.70" style="font:bold 13.00px Times">
<text x="172.50" y="834.00">I</text>
</g>
<g stroke-width="0.70" style="font:bold 13.00px Times">
<text x="273.70" y="832.00">ii<tspan
	 style="font:italic 11.00px Times">¹</tspan></text>
</g>
<g stroke-width="0.70" style="font:bold 13.00px Times">
<text x="384.70" y="834.00">I</text>
</g>
<g stroke-width="0.70" style="font:bold 13.00px Times">
<text x="489.10" y="832.00">I</text>
</g>
<g stroke-width="0.70" style="font:bold 13.00px Times">
<text x="592.00" y="832.00">IV</text>
<use x="22.00" y="856.60" xlink:href="#tclef"/>
<use x="37.00" y="838.60" xlink:href="#sh0"/>
<use x="42.50" y="847.60" xlink:href="#sh0"/>
<use x="48.00" y="835.60" xlink:href="#sh0"/>
<use x="66.50" y="859.60" xlink:href="#Hd"/>
<path d="M70.00 859.60v-21.00" class="stroke"/>
<use x="117.00" y="856.60" xlink:href="#Hd"/>
<path d="M120.50 856.60v-21.00" class="stroke"/>
<use x="175.30" y="853.60" xlink:href="#HD"/>
<use x="278.70" y="859.60" xlink:href="#Hd"/>
<path d="M282.20 859.60v-21.00" class="stroke"/>
<use x="329.20" y="856.60" xlink:href="#Hd"/>
<path d="M332.70 856.60v-21.00" class="stroke"/>
<use x="387.50" y="853.60" xlink:href="#HD"/>
<use x="491.00" y="862.60" xlink:href="#Hd"/>
<path d="M494.50 862.60v-21.00" class="stroke"/>
<use x="541.40" y="856.60" xlink:href="#Hd"/>
<path d="M544.90 856.60v-21.00" class="stroke"/>
<use x="597.80" y="859.60" xlink:href="#Hd"/>
<path d="M601.30 859.60v-21.00" class="stroke"/>
<use x="648.30" y="862.60" xlink:href="#Hd"/>
<path d="M651.80 862.60v-21.00" class="stroke"/>
<use x="22.00" y="902.60" xlink:href="#bclef"/>
<use x="37.00" y="902.60" xlink:href="#sh0"/>
<use x="42.50" y="911.60" xlink:href="#sh0"/>
<use x="48.00" y="899.60" xlink:href="#sh0"/>
<use x="66.50" y="908.60" xlink:href="#hd"/>
<path d="M70.00 908.60v-21.00" class="stroke"/>
<use x="91.90" y="902.60" xlink:href="#hd"/>
<path d="M88.40 902.60v21.00" class="stroke"/>
<use x="117.00" y="896.60" xlink:href="#hd"/>
<path d="M113.50 896.60v21.00" class="stroke"/>
<use x="142.10" y="902.60" xlink:href="#hd"/>
<path d="M138.60 902.60v21.00" class="stroke"/>
<use x="174.30" y="917.60" xlink:href="#hd"/>
<path d="M177.80 917.60v-21.00" class="stroke"/>
<use x="199.40" y="911.60" xlink:href="#hd"/>
<path d="M202.90 911.60v-21.00" class="stroke"/>
<use x="224.80" y="905.60" xlink:href="#hd"/>
<path d="M221.30 905.60v21.00" class="stroke"/>
<use x="247.50" y="911.60" xlink:href="#hd"/>
<path d="M251.00 911.60v-21.00" class="stroke"/>
<use x="278.70" y="914.60" xlink:href="#hd"/>
<path d="M282.20 914.60v-21.00" class="stroke"/>
<use x="303.80" y="908.60" xlink:href="#hd"/>
<path d="M307.30 908.60v-21.00" class="stroke"/>
<use x="329.20" y="902.60" xlink:href="#hd"/>
<path d="M325.70 902.60v21.00" class="stroke"/>
<use x="354.30" y="908.60" xlink:href="#hd"/>
<path d="M350.80 908.60v21.00" class="stroke"/>
<use x="386.50" y="917.60" xlink:href="#hd"/>
<path d="M390.00 917.60v-21.00" class="stroke"/>
<use x="411.70" y="911.60" xlink:href="#hd"/>
<path d="M415.20 911.60v-21.00" class="stroke"/>
<use x="437.00" y="905.60" xlink:href="#hd"/>
<path d="M433.50 905.60v21.00" class="stroke"/>
<use x="459.70" y="911.60" xlink:href="#hd"/>
<path d="M463.20 911.60v-21.00" class="stroke"/>
<use x="491.00" y="917.60" xlink:href="#hd"/>
<path d="M494.50 917.60v-21.00" class="stroke"/>
<use x="516.10" y="911.60" xlink:href="#hd"/>
<path d="M519.60 911.60v-21.00" class="stroke"/>
<use x="541.40" y="905.60" xlink:href="#hd"/>
<path d="M537.90 905.60v21.00" class="stroke"/>
<use x="566.50" y="911.60" xlink:href="#hd"/>
<path d="M570.00 911.60v-21.00" class="stroke"/>
<use x="597.80" y="908.60" xlink:href="#hd"/>
<path d="M601.30 908.60v-21.00" class="stroke"/>
<use x="623.20" y="902.60" xlink:href="#hd"/>
<path d="M619.70 902.60v21.00" class="stroke"/>
<use x="648.30" y="896.60" xlink:href="#hd"/>
<path d="M644.80 896.60v21.00" class="stroke"/>
<use x="673.40" y="902.60" xlink:href="#hd"/>
<path d="M669.90 902.60v21.00" class="stroke"/>
</g>
<g stroke-width="0.70" style="font:bold 13.00px Times">
<path class="stroke" stroke-width="1"
	d="M10.00 1051.00v-82.00"/>
<g transform="translate(10.00,969.00) scale(1,0.82)">
	<use xlink:href="#brace"/>
</g>
<path class="stroke" stroke-width="1"
	d="M179.40 993.00v-24.00"/>
<path class="stroke" stroke-width="1"
	d="M179.40 1051.00v-24.00"/>
<path class="stroke" stroke-width="1"
	d="M303.40 993.00v-24.00"/>
<path class="stroke" stroke-width="1"
	d="M303.40 1051.00v-24.00"/>
<path class="stroke" stroke-width="1"
	d="M429.30 993.00v-24.00"/>
<path class="stroke" stroke-width="1"
	d="M429.30 1051.00v-24.00"/>
<path class="stroke" stroke-width="1"
	d="M567.70 993.00v-24.00"/>
<path class="stroke" stroke-width="1"
	d="M567.70 1051.00v-24.00"/>
<path class="stroke" stroke-width="1"
	d="M691.60 993.00v-24.00"/>
<path class="stroke" stroke-width="1"
	d="M691.60 1051.00v-24.00"/>
<path d="m10.00 993.00
	h681.60
	M10.00 987.00
	h681.60
	M10.00 981.00
	h681.60
	M10.00 975.00
	h681.60
	M10.00 969.00
	h681.60
	" class="stroke"/>
<path d="m10.00 1051.00
	h681.60
	M10.00 1045.00
	h681.60
	M10.00 1039.00
	h681.60
	M10.00 1033.00
	h681.60
	M10.00 1027.00
	h681.60
	" class="stroke"/>
</g>
<g stroke-width="0.70" style="font:bold 13.00px Times">
<text x="64.70" y="962.40">I</text>
</g>
<g stroke-width="0.70" style="font:bold 13.00px Times">
<text x="191.60" y="964.40">I</text>
</g>
<g stroke-width="0.70" style="font:bold 13.00px Times">
<text x="314.50" y="956.40">I</text>
</g>
<g stroke-width="0.70" style="font:bold 13.00px Times">
<text x="438.70" y="953.40">ii</text>
</g>
<g stroke-width="0.70" style="font:bold 13.00px Times">
<text x="579.80" y="962.40">I</text>
<use x="22.00" y="987.00" xlink:href="#tclef"/>
<use x="37.00" y="969.00" xlink:href="#sh0"/>
<use x="42.50" y="978.00" xlink:href="#sh0"/>
<use x="48.00" y="966.00" xlink:href="#sh0"/>
<use x="66.50" y="990.00" xlink:href="#Hd"/>
<path d="M70.00 990.00v-21.00" class="stroke"/>
<use x="127.40" y="993.00" xlink:href="#Hd"/>
<path d="M130.90 993.00v-21.00" class="stroke"/>
<use x="194.40" y="996.00" xlink:href="#HD"/>
<use x="316.40" y="984.00" xlink:href="#Hd"/>
<path d="M319.90 984.00v-21.00" class="stroke"/>
<use x="377.30" y="984.00" xlink:href="#hd"/>
<path d="M380.80 984.00v-21.00" class="stroke"/>
<use x="407.70" y="984.00" xlink:href="#hd"/>
<path d="M411.20 984.00v-21.00" class="stroke"/>
<use x="441.80" y="981.00" xlink:href="#hd"/>
<circle class="fill" cx="449.50" cy="978.00" r="1.2"/>
<path d="M445.30 981.00v-21.00" class="stroke"/>
<use x="493.70" y="984.00" xlink:href="#hd"/>
<path d="M497.20 984.00v-21.00" class="stroke"/>
<path class="fill"
	d="M497.20 963.00c0.6 5.6 9.6 9 5.6 18.4
	1.6 -6 -1.3 -11.6 -5.6 -12.8
"/>
<use x="515.70" y="987.00" xlink:href="#Hd"/>
<path d="M519.20 987.00v-21.00" class="stroke"/>
<use x="582.70" y="984.00" xlink:href="#HD"/>
<use x="22.00" y="1033.00" xlink:href="#bclef"/>
<use x="37.00" y="1033.00" xlink:href="#sh0"/>
<use x="42.50" y="1042.00" xlink:href="#sh0"/>
<use x="48.00" y="1030.00" xlink:href="#sh0"/>
<use x="66.50" y="1048.00" xlink:href="#hd"/>
<path d="M70.00 1048.00v-21.00" class="stroke"/>
<use x="96.90" y="1042.00" xlink:href="#hd"/>
<path d="M100.40 1042.00v-21.00" class="stroke"/>
<use x="127.40" y="1036.00" xlink:href="#hd"/>
<path d="M123.90 1036.00v21.00" class="stroke"/>
<use x="157.80" y="1042.00" xlink:href="#hd"/>
<path d="M161.30 1042.00v-21.00" class="stroke"/>
<use x="193.40" y="1048.00" xlink:href="#hd"/>
<path d="M196.90 1048.00v-21.00" class="stroke"/>
<use x="223.80" y="1042.00" xlink:href="#hd"/>
<path d="M227.30 1042.00v-21.00" class="stroke"/>
<use x="254.30" y="1036.00" xlink:href="#hd"/>
<path d="M250.80 1036.00v21.00" class="stroke"/>
<use x="281.70" y="1042.00" xlink:href="#hd"/>
<path d="M285.20 1042.00v-21.00" class="stroke"/>
<use x="316.40" y="1048.00" xlink:href="#hd"/>
<path d="M319.90 1048.00v-21.00" class="stroke"/>
<use x="346.70" y="1042.00" xlink:href="#hd"/>
<path d="M350.20 1042.00v-21.00" class="stroke"/>
<use x="377.30" y="1036.00" xlink:href="#hd"/>
<path d="M373.80 1036.00v21.00" class="stroke"/>
<use x="407.70" y="1042.00" xlink:href="#hd"/>
<path d="M411.20 1042.00v-21.00" class="stroke"/>
<use x="441.80" y="1045.00" xlink:href="#hd"/>
<path d="M445.30 1045.00v-21.00" class="stroke"/>
<use x="472.20" y="1039.00" xlink:href="#hd"/>
<path d="M475.70 1039.00v-21.00" class="stroke"/>
<use x="515.70" y="1033.00" xlink:href="#hd"/>
<path d="M512.20 1033.00v21.00" class="stroke"/>
<use x="546.00" y="1039.00" xlink:href="#hd"/>
<path d="M542.50 1039.00v21.00" class="stroke"/>
<use x="581.70" y="1048.00" xlink:href="#hd"/>
<path d="M585.20 1048.00v-21.00" class="stroke"/>
<use x="612.10" y="1042.00" xlink:href="#hd"/>
<path d="M615.60 1042.00v-21.00" class="stroke"/>
<use x="642.60" y="1036.00" xlink:href="#hd"/>
<path d="M639.10 1036.00v21.00" class="stroke"/>
<use x="670.00" y="1042.00" xlink:href="#hd"/>
<path d="M673.50 1042.00v-21.00" class="stroke"/>
</g>
</svg>
