<?xml version="1.0" standalone="no"?>
<!DOCTYPE svg PUBLIC "-//W3C//DTD SVG 1.1//EN"
	"http://www.w3.org/Graphics/SVG/1.1/DTD/svg11.dtd">
<svg xmlns="http://www.w3.org/2000/svg" version="1.1"
	xmlns:xlink="http://www.w3.org/1999/xlink"
	color="black"
	width="701.60px" height="554.80px" viewBox="0 0 701.60 554.80" preserveAspectRatio="xMidYMid meet">
<style type="text/css">
.fill {fill: currentColor}
.stroke {stroke: currentColor; fill: none}
text{white-space: pre}
</style>
<title>/tmp/retab_hymnal_L3/while_o_er_our_guilty_land_o_lord.abc (1) tune 1</title>
<!-- Creator: abcm2ps-8.14.11 -->
<!-- CreationDate: Apr 24, 2026 15:39 -->
<!-- CommandLine: /tmp/retab_hymnal_L3/while_o_er_our_guilty_land_o_lord.abc -g -O /tmp/retab_hymnal_L3/while_o_er_our_guilty_land_o_lord -->
<g stroke-width="0.70">
<!-- title: 273. While O'er Our Guilty Land, O Lord -->
</g>
<g stroke-width="0.70" style="font:20.00px Times">
<text x="350.80" y="22.00" text-anchor="middle">273. While O&apos;er Our Guilty Land, O Lord</text>
</g>
<g stroke-width="0.70" style="font:20.00px Times">
<path class="stroke" stroke-width="1"
	d="M10.00 145.40v-82.00"/>
<defs>
<path id="brace" class="fill" d="m-2.5 101
	c-4.5 -4.6 -7.5 -12.2 -4.4 -26.8
	3.5 -14.3 3.2 -21.7 -2.1 -24.2
	7.4 2.4 7.3 14.2 3.5 29.5
	-2.7 9.5 -1.5 16.2 3 21.5
	M-2.5 1c-4.5 4.6 -7.5 12.2 -4.4 26.8
	c3.5 14.3 3.2 21.7 -2.1 24.2
	7.4 -2.4 7.3 -14.2 3.5 -29.5
	-2.7 -9.5 -1.5 -16.2 3 -21.5"/>
</defs>
<g transform="translate(10.00,63.40) scale(1,0.82)">
	<use xlink:href="#brace"/>
</g>
<path class="stroke" stroke-width="1"
	d="M184.80 87.40v-24.00"/>
<path class="stroke" stroke-width="1"
	d="M184.80 145.40v-24.00"/>
<path class="stroke" stroke-width="1"
	d="M311.40 87.40v-24.00"/>
<path class="stroke" stroke-width="1"
	d="M311.40 145.40v-24.00"/>
<path class="stroke" stroke-width="1"
	d="M437.80 87.40v-24.00"/>
<path class="stroke" stroke-width="1"
	d="M437.80 145.40v-24.00"/>
<path class="stroke" stroke-width="1"
	d="M565.20 87.40v-24.00"/>
<path class="stroke" stroke-width="1"
	d="M565.20 145.40v-24.00"/>
<path class="stroke" stroke-width="1"
	d="M691.60 87.40v-24.00"/>
<path class="stroke" stroke-width="1"
	d="M691.60 145.40v-24.00"/>
<path d="m10.00 87.40
	h681.60
	M10.00 81.40
	h681.60
	M10.00 75.40
	h681.60
	M10.00 69.40
	h681.60
	M10.00 63.40
	h681.60
	" class="stroke"/>
<path d="m10.00 145.40
	h681.60
	M10.00 139.40
	h681.60
	M10.00 133.40
	h681.60
	M10.00 127.40
	h681.60
	M10.00 121.40
	h681.60
	" class="stroke"/>
</g>
<g stroke-width="0.70" style="font:bold 13.00px Times">
<text x="69.70" y="50.80">I</text>
</g>
<g stroke-width="0.70" style="font:bold 13.00px Times">
<text x="190.10" y="47.80">IV<tspan
	 style="font:italic 11.00px Times">²</tspan></text>
</g>
<g stroke-width="0.70" style="font:bold 13.00px Times">
<text x="318.50" y="56.80">V<tspan
	 style="font:italic 11.00px Times">¹</tspan></text>
</g>
<g stroke-width="0.70" style="font:bold 13.00px Times">
<text x="450.00" y="58.80">I</text>
</g>
<g stroke-width="0.70" style="font:bold 13.00px Times">
<text x="572.30" y="47.80">V<tspan
	 style="font:italic 11.00px Times">⁷</tspan></text>
</g>
<g stroke-width="0.70" style="font:italic 11.00px Times">
<defs>
<path id="utclef" class="fill" d="m-50 -90
	c-72 -41 -72 -158 52 -188
	150 -10 220 188 90 256
	-114 52 -275 0 -293 -136
	-15 -181 93 -229 220 -334
	88 -87 79 -133 62 -210
	-51 33 -94 105 -89 186
	17 267 36 374 49 574
	6 96 -19 134 -77 135
	-80 1 -126 -93 -61 -133
	85 -41 133 101 31 105
	23 17 92 37 90 -92
	-10 -223 -39 -342 -50 -617
	0 -90 0 -162 96 -232
	56 72 63 230 22 289
	-74 106 -257 168 -255 316
	9 153 148 185 252 133
	86 -65 29 -192 -80 -176
	-71 12 -105 67 -59 124"/>
<use id="tclef" transform="translate(0,6) scale(0.045)"
	xlink:href="#utclef"/>
</defs>
<use x="22.00" y="81.40" xlink:href="#tclef"/>
<defs>
<path id="uflat" class="fill" d="
	m100 -746
	h32
	v734
	l-32 4
	m32 -332
	c46 -72 152 -90 208 -20
	100 110 -120 326 -208 348
	m0 -28
	c54 0 200 -206 130 -290
	-50 -60 -130 -4 -130 34"/>
<use id="ft0" transform="translate(-3.5,3.5) scale(0.018)"
	xlink:href="#uflat"/>
</defs>
<use x="37.00" y="75.40" xlink:href="#ft0"/>
<g style="font:bold 16px serif"
	transform="translate(53.00,86.90) scale(1.2,1)">
	<text text-anchor="middle">4</text>
	<text y="-12" text-anchor="middle">4</text>
</g>
<defs>
<path id="Hd" class="fill" d="m3 -1.6
	c-1 -1.8 -7 1.4 -6 3.2
	1 1.8 7 -1.4 6 -3.2
	m0.5 -0.3
	c2 3.8 -5 7.6 -7 3.8
	-2 -3.8 5 -7.6 7 -3.8"/>
</defs>
<use x="71.50" y="78.40" xlink:href="#Hd"/>
<path d="M75.00 78.40v-21.00" class="stroke"/>
<defs>
<ellipse id="hd" rx="4.1" ry="2.9"
	transform="rotate(-20)" class="fill"/>
</defs>
<use x="132.60" y="78.40" xlink:href="#hd"/>
<path d="M136.10 78.40v-21.00" class="stroke"/>
<use x="163.10" y="78.40" xlink:href="#hd"/>
<path d="M166.60 78.40v-21.00" class="stroke"/>
<use x="197.80" y="75.40" xlink:href="#Hd"/>
<path d="M201.30 75.40v-21.00" class="stroke"/>
<use x="259.00" y="78.40" xlink:href="#hd"/>
<path d="M262.50 78.40v-21.00" class="stroke"/>
<use x="289.70" y="72.40" xlink:href="#hd"/>
<path d="M286.20 72.40v21.00" class="stroke"/>
<use x="324.40" y="72.40" xlink:href="#Hd"/>
<path d="M320.90 72.40v21.00" class="stroke"/>
<use x="385.60" y="75.40" xlink:href="#Hd"/>
<path d="M382.10 75.40v21.00" class="stroke"/>
<defs>
<path id="HD" class="fill" d="m-2.7 -1.4
	c1.5 -2.8 6.9 0 5.3 2.7
	-1.5 2.8 -6.9 0 -5.3 -2.7
	m8.3 1.4
	c0 -1.5 -2.2 -3 -5.6 -3
	-3.4 0 -5.6 1.5 -5.6 3
	0 1.5 2.2 3 5.6 3
	3.4 0 5.6 -1.5 5.6 -3"/>
</defs>
<use x="452.80" y="78.40" xlink:href="#HD"/>
<use x="578.20" y="75.40" xlink:href="#Hd"/>
<path d="M581.70 75.40v-21.00" class="stroke"/>
<use x="639.40" y="75.40" xlink:href="#hd"/>
<path d="M642.90 75.40v-21.00" class="stroke"/>
<use x="669.90" y="75.40" xlink:href="#hd"/>
<path d="M673.40 75.40v-21.00" class="stroke"/>
<defs>
<path id="ubclef" class="fill" d="m-200 -87
	c124 -35 222 -78 254 -236
	43 -228 -167 -246 -192 -103
	59 -80 157 22 92 78
	-62 47 -115 -22 -106 -88
	21 -141 270 -136 274 52
	-1 175 -106 264 -322 297
	m357 -250
	c0 -36 51 -34 51 0
	0 37 -51 36 -51 0
	m-2 -129
	c0 -36 51 -34 51 0
	0 38 -51 37 -51 0"/>
<use id="bclef" transform="translate(0,18) scale(0.045)"
	xlink:href="#ubclef"/>
</defs>
<use x="22.00" y="127.40" xlink:href="#bclef"/>
<use x="37.00" y="139.40" xlink:href="#ft0"/>
<g style="font:bold 16px serif"
	transform="translate(53.00,144.90) scale(1.2,1)">
	<text text-anchor="middle">4</text>
	<text y="-12" text-anchor="middle">4</text>
</g>
<use x="71.50" y="148.40" xlink:href="#hd"/>
<path d="M75.00 148.40v-21.00" class="stroke"/>
<use x="102.00" y="142.40" xlink:href="#hd"/>
<path d="M105.50 142.40v-21.00" class="stroke"/>
<use x="132.60" y="136.40" xlink:href="#hd"/>
<path d="M136.10 136.40v-21.00" class="stroke"/>
<use x="163.10" y="142.40" xlink:href="#hd"/>
<path d="M166.60 142.40v-21.00" class="stroke"/>
<use x="197.80" y="139.40" xlink:href="#hd"/>
<path d="M201.30 139.40v-21.00" class="stroke"/>
<use x="228.30" y="133.40" xlink:href="#hd"/>
<path d="M231.80 133.40v-21.00" class="stroke"/>
<use x="259.00" y="127.40" xlink:href="#hd"/>
<path d="M255.50 127.40v21.00" class="stroke"/>
<use x="289.70" y="133.40" xlink:href="#hd"/>
<path d="M286.20 133.40v21.00" class="stroke"/>
<use x="324.40" y="136.40" xlink:href="#hd"/>
<path d="M327.90 136.40v-21.00" class="stroke"/>
<use x="355.10" y="130.40" xlink:href="#hd"/>
<path d="M351.60 130.40v21.00" class="stroke"/>
<use x="385.60" y="124.40" xlink:href="#hd"/>
<path d="M382.10 124.40v21.00" class="stroke"/>
<use x="416.10" y="130.40" xlink:href="#hd"/>
<path d="M412.60 130.40v21.00" class="stroke"/>
<use x="451.80" y="148.40" xlink:href="#hd"/>
<path d="M455.30 148.40v-21.00" class="stroke"/>
<use x="482.40" y="142.40" xlink:href="#hd"/>
<path d="M485.90 142.40v-21.00" class="stroke"/>
<use x="512.90" y="136.40" xlink:href="#hd"/>
<path d="M516.40 136.40v-21.00" class="stroke"/>
<use x="543.40" y="142.40" xlink:href="#hd"/>
<path d="M546.90 142.40v-21.00" class="stroke"/>
<use x="578.20" y="136.40" xlink:href="#hd"/>
<path d="M581.70 136.40v-21.00" class="stroke"/>
<use x="608.80" y="130.40" xlink:href="#hd"/>
<path d="M605.30 130.40v21.00" class="stroke"/>
<use x="639.40" y="124.40" xlink:href="#hd"/>
<path d="M635.90 124.40v21.00" class="stroke"/>
<use x="669.90" y="130.40" xlink:href="#hd"/>
<path d="M666.40 130.40v21.00" class="stroke"/>
</g>
<g stroke-width="0.70" style="font:italic 11.00px Times">
<path class="stroke" stroke-width="1"
	d="M10.00 275.80v-82.00"/>
<g transform="translate(10.00,193.80) scale(1,0.82)">
	<use xlink:href="#brace"/>
</g>
<path class="stroke" stroke-width="1"
	d="M172.10 217.80v-24.00"/>
<path class="stroke" stroke-width="1"
	d="M172.10 275.80v-24.00"/>
<path class="stroke" stroke-width="1"
	d="M301.70 217.80v-24.00"/>
<path class="stroke" stroke-width="1"
	d="M301.70 275.80v-24.00"/>
<path class="stroke" stroke-width="1"
	d="M432.40 217.80v-24.00"/>
<path class="stroke" stroke-width="1"
	d="M432.40 275.80v-24.00"/>
<path class="stroke" stroke-width="1"
	d="M562.00 217.80v-24.00"/>
<path class="stroke" stroke-width="1"
	d="M562.00 275.80v-24.00"/>
<path class="stroke" stroke-width="1"
	d="M691.60 217.80v-24.00"/>
<path class="stroke" stroke-width="1"
	d="M691.60 275.80v-24.00"/>
<path d="m10.00 217.80
	h681.60
	M10.00 211.80
	h681.60
	M10.00 205.80
	h681.60
	M10.00 199.80
	h681.60
	M10.00 193.80
	h681.60
	" class="stroke"/>
<path d="m10.00 275.80
	h681.60
	M10.00 269.80
	h681.60
	M10.00 263.80
	h681.60
	M10.00 257.80
	h681.60
	M10.00 251.80
	h681.60
	" class="stroke"/>
</g>
<g stroke-width="0.70" style="font:bold 13.00px Times">
<text x="53.70" y="181.20">I</text>
</g>
<g stroke-width="0.70" style="font:bold 13.00px Times">
<text x="178.20" y="178.20">ii<tspan
	 style="font:italic 11.00px Times">⁷²</tspan></text>
</g>
<g stroke-width="0.70" style="font:bold 13.00px Times">
<text x="311.80" y="189.20">V</text>
</g>
<g stroke-width="0.70" style="font:bold 13.00px Times">
<text x="443.60" y="189.20">I</text>
</g>
<g stroke-width="0.70" style="font:bold 13.00px Times">
<text x="573.20" y="181.20">I</text>
<use x="22.00" y="211.80" xlink:href="#tclef"/>
<use x="37.00" y="205.80" xlink:href="#ft0"/>
<use x="55.50" y="208.80" xlink:href="#Hd"/>
<circle class="fill" cx="65.20" cy="208.80" r="1.2"/>
<path d="M59.00 208.80v-21.00" class="stroke"/>
<use x="149.80" y="208.80" xlink:href="#hd"/>
<path d="M153.30 208.80v-21.00" class="stroke"/>
<use x="185.10" y="205.80" xlink:href="#Hd"/>
<path d="M188.60 205.80v-21.00" class="stroke"/>
<use x="248.00" y="205.80" xlink:href="#Hd"/>
<path d="M251.50 205.80v-21.00" class="stroke"/>
<use x="316.70" y="202.80" xlink:href="#HD"/>
<use x="445.40" y="202.80" xlink:href="#Hd"/>
<path d="M441.90 202.80v21.00" class="stroke"/>
<use x="508.30" y="202.80" xlink:href="#hd"/>
<path d="M504.80 202.80v21.00" class="stroke"/>
<use x="539.70" y="205.80" xlink:href="#hd"/>
<path d="M536.20 205.80v21.00" class="stroke"/>
<use x="575.00" y="208.80" xlink:href="#Hd"/>
<path d="M578.50 208.80v-21.00" class="stroke"/>
<use x="637.90" y="214.80" xlink:href="#Hd"/>
<path d="M641.40 214.80v-21.00" class="stroke"/>
<use x="22.00" y="257.80" xlink:href="#bclef"/>
<use x="37.00" y="269.80" xlink:href="#ft0"/>
<use x="55.50" y="278.80" xlink:href="#hd"/>
<path d="M59.00 278.80v-21.00" class="stroke"/>
<use x="86.90" y="272.80" xlink:href="#hd"/>
<path d="M90.40 272.80v-21.00" class="stroke"/>
<use x="118.40" y="266.80" xlink:href="#hd"/>
<path d="M121.90 266.80v-21.00" class="stroke"/>
<use x="149.80" y="272.80" xlink:href="#hd"/>
<path d="M153.30 272.80v-21.00" class="stroke"/>
<use x="185.10" y="275.80" xlink:href="#hd"/>
<path d="M188.60 275.80v-21.00" class="stroke"/>
<use x="216.50" y="269.80" xlink:href="#hd"/>
<path d="M220.00 269.80v-21.00" class="stroke"/>
<use x="248.00" y="263.80" xlink:href="#hd"/>
<path d="M251.50 263.80v-21.00" class="stroke"/>
<use x="279.40" y="269.80" xlink:href="#hd"/>
<path d="M282.90 269.80v-21.00" class="stroke"/>
<use x="315.70" y="266.80" xlink:href="#hd"/>
<path d="M319.20 266.80v-21.00" class="stroke"/>
<use x="347.20" y="260.80" xlink:href="#hd"/>
<path d="M343.70 260.80v21.00" class="stroke"/>
<use x="378.70" y="254.80" xlink:href="#hd"/>
<path d="M375.20 254.80v21.00" class="stroke"/>
<use x="410.10" y="260.80" xlink:href="#hd"/>
<path d="M406.60 260.80v21.00" class="stroke"/>
<use x="445.40" y="278.80" xlink:href="#hd"/>
<path d="M448.90 278.80v-21.00" class="stroke"/>
<use x="476.80" y="272.80" xlink:href="#hd"/>
<path d="M480.30 272.80v-21.00" class="stroke"/>
<use x="508.30" y="266.80" xlink:href="#hd"/>
<path d="M511.80 266.80v-21.00" class="stroke"/>
<use x="539.70" y="272.80" xlink:href="#hd"/>
<path d="M543.20 272.80v-21.00" class="stroke"/>
<use x="575.00" y="278.80" xlink:href="#hd"/>
<path d="M578.50 278.80v-21.00" class="stroke"/>
<use x="606.40" y="272.80" xlink:href="#hd"/>
<path d="M609.90 272.80v-21.00" class="stroke"/>
<use x="637.90" y="266.80" xlink:href="#hd"/>
<path d="M641.40 266.80v-21.00" class="stroke"/>
<use x="669.30" y="272.80" xlink:href="#hd"/>
<path d="M672.80 272.80v-21.00" class="stroke"/>
</g>
<g stroke-width="0.70" style="font:bold 13.00px Times">
<path class="stroke" stroke-width="1"
	d="M10.00 403.80v-82.00"/>
<g transform="translate(10.00,321.80) scale(1,0.82)">
	<use xlink:href="#brace"/>
</g>
<path class="stroke" stroke-width="1"
	d="M171.80 345.80v-24.00"/>
<path class="stroke" stroke-width="1"
	d="M171.80 403.80v-24.00"/>
<path class="stroke" stroke-width="1"
	d="M302.50 345.80v-24.00"/>
<path class="stroke" stroke-width="1"
	d="M302.50 403.80v-24.00"/>
<path class="stroke" stroke-width="1"
	d="M432.20 345.80v-24.00"/>
<path class="stroke" stroke-width="1"
	d="M432.20 403.80v-24.00"/>
<path class="stroke" stroke-width="1"
	d="M561.90 345.80v-24.00"/>
<path class="stroke" stroke-width="1"
	d="M561.90 403.80v-24.00"/>
<path class="stroke" stroke-width="1"
	d="M691.60 345.80v-24.00"/>
<path class="stroke" stroke-width="1"
	d="M691.60 403.80v-24.00"/>
<path d="m10.00 345.80
	h681.60
	M10.00 339.80
	h681.60
	M10.00 333.80
	h681.60
	M10.00 327.80
	h681.60
	M10.00 321.80
	h681.60
	" class="stroke"/>
<path d="m10.00 403.80
	h681.60
	M10.00 397.80
	h681.60
	M10.00 391.80
	h681.60
	M10.00 385.80
	h681.60
	M10.00 379.80
	h681.60
	" class="stroke"/>
</g>
<g stroke-width="0.70" style="font:bold 13.00px Times">
<text x="49.10" y="317.20">V<tspan
	 style="font:italic 11.00px Times">⁷</tspan></text>
</g>
<g stroke-width="0.70" style="font:bold 13.00px Times">
<text x="184.00" y="317.20">I</text>
</g>
<g stroke-width="0.70" style="font:bold 13.00px Times">
<text x="313.70" y="309.20">I</text>
</g>
<g stroke-width="0.70" style="font:bold 13.00px Times">
<text x="443.40" y="317.20">I</text>
</g>
<g stroke-width="0.70" style="font:bold 13.00px Times">
<text x="571.10" y="315.20">I<tspan
	 style="font:italic 11.00px Times">²</tspan></text>
</g>
<g stroke-width="0.70" style="font:italic 11.00px Times">
<use x="22.00" y="339.80" xlink:href="#tclef"/>
<use x="37.00" y="333.80" xlink:href="#ft0"/>
<use x="55.00" y="345.80" xlink:href="#hd"/>
<path d="M58.50 345.80v-21.00" class="stroke"/>
<use x="86.60" y="342.80" xlink:href="#hd"/>
<path d="M90.10 342.80v-21.00" class="stroke"/>
<use x="118.00" y="339.80" xlink:href="#hd"/>
<path d="M121.50 339.80v-21.00" class="stroke"/>
<use x="149.50" y="336.80" xlink:href="#hd"/>
<path d="M153.00 336.80v-21.00" class="stroke"/>
<use x="186.80" y="333.80" xlink:href="#HD"/>
<use x="315.50" y="336.80" xlink:href="#Hd"/>
<path d="M319.00 336.80v-21.00" class="stroke"/>
<use x="378.40" y="327.80" xlink:href="#hd"/>
<path d="M374.90 327.80v21.00" class="stroke"/>
<use x="409.90" y="327.80" xlink:href="#hd"/>
<path d="M406.40 327.80v21.00" class="stroke"/>
<use x="445.20" y="330.80" xlink:href="#Hd"/>
<path d="M441.70 330.80v21.00" class="stroke"/>
<use x="508.10" y="336.80" xlink:href="#Hd"/>
<path d="M511.60 336.80v-21.00" class="stroke"/>
<use x="574.90" y="342.80" xlink:href="#Hd"/>
<path d="M578.40 342.80v-21.00" class="stroke"/>
<use x="637.80" y="339.80" xlink:href="#Hd"/>
<path d="M641.30 339.80v-21.00" class="stroke"/>
<use x="22.00" y="385.80" xlink:href="#bclef"/>
<use x="37.00" y="397.80" xlink:href="#ft0"/>
<use x="55.00" y="394.80" xlink:href="#hd"/>
<path d="M58.50 394.80v-21.00" class="stroke"/>
<use x="86.60" y="388.80" xlink:href="#hd"/>
<path d="M83.10 388.80v21.00" class="stroke"/>
<use x="118.00" y="382.80" xlink:href="#hd"/>
<path d="M114.50 382.80v21.00" class="stroke"/>
<use x="149.50" y="388.80" xlink:href="#hd"/>
<path d="M146.00 388.80v21.00" class="stroke"/>
<use x="185.80" y="406.80" xlink:href="#hd"/>
<path d="M189.30 406.80v-21.00" class="stroke"/>
<use x="217.30" y="400.80" xlink:href="#hd"/>
<path d="M220.80 400.80v-21.00" class="stroke"/>
<use x="248.70" y="394.80" xlink:href="#hd"/>
<path d="M252.20 394.80v-21.00" class="stroke"/>
<use x="280.20" y="400.80" xlink:href="#hd"/>
<path d="M283.70 400.80v-21.00" class="stroke"/>
<use x="315.50" y="406.80" xlink:href="#hd"/>
<path d="M319.00 406.80v-21.00" class="stroke"/>
<use x="347.00" y="400.80" xlink:href="#hd"/>
<path d="M350.50 400.80v-21.00" class="stroke"/>
<use x="378.40" y="394.80" xlink:href="#hd"/>
<path d="M381.90 394.80v-21.00" class="stroke"/>
<use x="409.90" y="400.80" xlink:href="#hd"/>
<path d="M413.40 400.80v-21.00" class="stroke"/>
<use x="445.20" y="406.80" xlink:href="#hd"/>
<path d="M448.70 406.80v-21.00" class="stroke"/>
<use x="476.70" y="400.80" xlink:href="#hd"/>
<path d="M480.20 400.80v-21.00" class="stroke"/>
<use x="508.10" y="394.80" xlink:href="#hd"/>
<path d="M511.60 394.80v-21.00" class="stroke"/>
<use x="539.60" y="400.80" xlink:href="#hd"/>
<path d="M543.10 400.80v-21.00" class="stroke"/>
<use x="574.90" y="406.80" xlink:href="#hd"/>
<path d="M578.40 406.80v-21.00" class="stroke"/>
<use x="606.40" y="400.80" xlink:href="#hd"/>
<path d="M609.90 400.80v-21.00" class="stroke"/>
<use x="637.80" y="394.80" xlink:href="#hd"/>
<path d="M641.30 394.80v-21.00" class="stroke"/>
<use x="669.30" y="400.80" xlink:href="#hd"/>
<path d="M672.80 400.80v-21.00" class="stroke"/>
</g>
<g stroke-width="0.70" style="font:italic 11.00px Times">
<path class="stroke" stroke-width="1"
	d="M10.00 531.80v-82.00"/>
<g transform="translate(10.00,449.80) scale(1,0.82)">
	<use xlink:href="#brace"/>
</g>
<path class="stroke" stroke-width="1"
	d="M204.50 473.80v-24.00"/>
<path class="stroke" stroke-width="1"
	d="M204.50 531.80v-24.00"/>
<path d="m10.00 473.80
	h194.50
	M10.00 467.80
	h194.50
	M10.00 461.80
	h194.50
	M10.00 455.80
	h194.50
	M10.00 449.80
	h194.50
	" class="stroke"/>
<path d="m10.00 531.80
	h194.50
	M10.00 525.80
	h194.50
	M10.00 519.80
	h194.50
	M10.00 513.80
	h194.50
	M10.00 507.80
	h194.50
	" class="stroke"/>
</g>
<g stroke-width="0.70" style="font:bold 13.00px Times">
<text x="54.70" y="445.20">I</text>
<use x="22.00" y="467.80" xlink:href="#tclef"/>
<use x="37.00" y="461.80" xlink:href="#ft0"/>
<use x="57.50" y="470.80" xlink:href="#HD"/>
<use x="22.00" y="513.80" xlink:href="#bclef"/>
<use x="37.00" y="525.80" xlink:href="#ft0"/>
<use x="56.50" y="534.80" xlink:href="#hd"/>
<path d="M60.00 534.80v-21.00" class="stroke"/>
<use x="96.50" y="528.80" xlink:href="#hd"/>
<path d="M100.00 528.80v-21.00" class="stroke"/>
<use x="136.50" y="522.80" xlink:href="#hd"/>
<path d="M140.00 522.80v-21.00" class="stroke"/>
<use x="176.50" y="528.80" xlink:href="#hd"/>
<path d="M180.00 528.80v-21.00" class="stroke"/>
</g>
</svg>
