<?xml version="1.0" standalone="no"?>
<!DOCTYPE svg PUBLIC "-//W3C//DTD SVG 1.1//EN"
	"http://www.w3.org/Graphics/SVG/1.1/DTD/svg11.dtd">
<svg xmlns="http://www.w3.org/2000/svg" version="1.1"
	xmlns:xlink="http://www.w3.org/1999/xlink"
	color="black"
	width="776.00px" height="440.04px" viewBox="0 0 776.00 440.04" preserveAspectRatio="xMidYMid meet">
<style type="text/css">
.fill {fill: currentColor}
.stroke {stroke: currentColor; fill: none}
text{white-space: pre}
</style>
<title>/tmp/eb_shapes_stage/05_33.abc (5) tune 1</title>
<!-- Creator: abcm2ps-8.14.11 -->
<!-- CreationDate: Apr 30, 2026 13:26 -->
<!-- CommandLine: /tmp/eb_shapes_stage/05_33.abc -g -O /tmp/eb_shapes_stage/05_33 -->
<g stroke-width="0.70" style="font:20.00px Times">
<text x="380.20" y="22.00" text-anchor="middle">Shape 33 sweep -- Triad: stacked 3rds</text>
</g>
<g stroke-width="0.70" style="font:20.00px Times">
<!-- subtitle: Eb 33-string harp - low to high -->
</g>
<g stroke-width="0.70" style="font:16.00px Times">
<text x="380.20" y="41.80" text-anchor="middle">Eb 33-string harp - low to high</text>
</g>
<g stroke-width="0.70" transform="scale(0.672)" style="font:16.00px Times">
<defs>
<ellipse id="hd" rx="4.1" ry="2.9"
	transform="rotate(-20)" class="fill"/>
</defs>
<use x="138.60" y="106.11" xlink:href="#hd"/>
<path d="M142.10 106.11v-21.00" class="stroke"/>
</g>
<g stroke-width="0.70" transform="scale(0.960)" style="font:bold 15.00px Times">
<text x="104.72" y="76.38">= 72</text>
<path class="stroke" stroke-width="1"
	d="M10.42 172.38v-82.00"/>
<defs>
<path id="brace" class="fill" d="m-2.5 101
	c-4.5 -4.6 -7.5 -12.2 -4.4 -26.8
	3.5 -14.3 3.2 -21.7 -2.1 -24.2
	7.4 2.4 7.3 14.2 3.5 29.5
	-2.7 9.5 -1.5 16.2 3 21.5
	M-2.5 1c-4.5 4.6 -7.5 12.2 -4.4 26.8
	c3.5 14.3 3.2 21.7 -2.1 24.2
	7.4 -2.4 7.3 -14.2 3.5 -29.5
	-2.7 -9.5 -1.5 -16.2 3 -21.5"/>
</defs>
<g transform="translate(10.42,90.38) scale(1,0.82)">
	<use xlink:href="#brace"/>
</g>
<path class="stroke" stroke-width="1"
	d="M315.52 114.38v-24.00"/>
<path class="stroke" stroke-width="1"
	d="M315.52 172.38v-24.00"/>
<path class="stroke" stroke-width="1"
	d="M559.72 114.38v-24.00"/>
<path class="stroke" stroke-width="1"
	d="M559.72 172.38v-24.00"/>
<path class="stroke" stroke-width="1"
	d="M797.92 114.38v-24.00"/>
<path class="stroke" stroke-width="1"
	d="M797.92 172.38v-24.00"/>
<path d="m10.42 114.38
	h787.50
	M10.42 108.38
	h787.50
	M10.42 102.38
	h787.50
	M10.42 96.38
	h787.50
	M10.42 90.38
	h787.50
	" class="stroke"/>
<path d="m10.42 172.38
	h787.50
	M10.42 166.38
	h787.50
	M10.42 160.38
	h787.50
	M10.42 154.38
	h787.50
	M10.42 148.38
	h787.50
	" class="stroke"/>
<defs>
<path id="utclef" class="fill" d="m-50 -90
	c-72 -41 -72 -158 52 -188
	150 -10 220 188 90 256
	-114 52 -275 0 -293 -136
	-15 -181 93 -229 220 -334
	88 -87 79 -133 62 -210
	-51 33 -94 105 -89 186
	17 267 36 374 49 574
	6 96 -19 134 -77 135
	-80 1 -126 -93 -61 -133
	85 -41 133 101 31 105
	23 17 92 37 90 -92
	-10 -223 -39 -342 -50 -617
	0 -90 0 -162 96 -232
	56 72 63 230 22 289
	-74 106 -257 168 -255 316
	9 153 148 185 252 133
	86 -65 29 -192 -80 -176
	-71 12 -105 67 -59 124"/>
<use id="tclef" transform="translate(0,6) scale(0.045)"
	xlink:href="#utclef"/>
</defs>
<use x="22.42" y="108.38" xlink:href="#tclef"/>
<defs>
<path id="uflat" class="fill" d="
	m100 -746
	h32
	v734
	l-32 4
	m32 -332
	c46 -72 152 -90 208 -20
	100 110 -120 326 -208 348
	m0 -28
	c54 0 200 -206 130 -290
	-50 -60 -130 -4 -130 34"/>
<use id="ft0" transform="translate(-3.5,3.5) scale(0.018)"
	xlink:href="#uflat"/>
</defs>
<use x="37.42" y="102.38" xlink:href="#ft0"/>
<use x="42.92" y="93.38" xlink:href="#ft0"/>
<use x="48.42" y="105.38" xlink:href="#ft0"/>
<g style="font:bold 16px serif"
	transform="translate(64.42,113.88) scale(1.2,1)">
	<text text-anchor="middle">4</text>
	<text y="-12" text-anchor="middle">4</text>
</g>
<defs>
<path id="r4" class="fill" d="m-1 -8.5
	l3.6 5.1 -2.1 5.2 2.2 4.3
	c-2.6 -2.3 -5.1 0 -2.4 2.6
	-4.8 -3 -1.5 -6.9 1.4 -4.1
	l-3.1 -4.5 1.9 -5.1 -1.5 -3.5"/>
</defs>
<use x="96.42" y="102.38" xlink:href="#r4"/>
<use x="155.62" y="102.38" xlink:href="#r4"/>
<use x="214.92" y="102.38" xlink:href="#r4"/>
<use x="274.12" y="102.38" xlink:href="#r4"/>
<use x="340.52" y="102.38" xlink:href="#r4"/>
<use x="399.82" y="102.38" xlink:href="#r4"/>
<use x="459.02" y="102.38" xlink:href="#r4"/>
<use x="518.22" y="102.38" xlink:href="#r4"/>
<use x="584.72" y="102.38" xlink:href="#r4"/>
<use x="643.92" y="102.38" xlink:href="#r4"/>
<use x="703.12" y="102.38" xlink:href="#r4"/>
<defs>
<path id="hl" class="stroke" d="m-6 0h12"/>
</defs>
<use x="756.42" y="120.38" xlink:href="#hl"/>
<use x="756.42" y="126.38" xlink:href="#hl"/>
<use x="756.42" y="129.38" xlink:href="#hd"/>
<path d="M759.92 129.38v-31.00" class="stroke"/>
<use x="756.42" y="123.38" xlink:href="#hd"/>
<use x="756.42" y="117.38" xlink:href="#hd"/>
<defs>
<path id="ubclef" class="fill" d="m-200 -87
	c124 -35 222 -78 254 -236
	43 -228 -167 -246 -192 -103
	59 -80 157 22 92 78
	-62 47 -115 -22 -106 -88
	21 -141 270 -136 274 52
	-1 175 -106 264 -322 297
	m357 -250
	c0 -36 51 -34 51 0
	0 37 -51 36 -51 0
	m-2 -129
	c0 -36 51 -34 51 0
	0 38 -51 37 -51 0"/>
<use id="bclef" transform="translate(0,18) scale(0.045)"
	xlink:href="#ubclef"/>
</defs>
<use x="22.42" y="154.38" xlink:href="#bclef"/>
<use x="37.42" y="166.38" xlink:href="#ft0"/>
<use x="42.92" y="157.38" xlink:href="#ft0"/>
<use x="48.42" y="169.38" xlink:href="#ft0"/>
<g style="font:bold 16px serif"
	transform="translate(64.42,171.88) scale(1.2,1)">
	<text text-anchor="middle">4</text>
	<text y="-12" text-anchor="middle">4</text>
</g>
<use x="96.42" y="178.38" xlink:href="#hl"/>
<use x="96.42" y="184.38" xlink:href="#hl"/>
<use x="96.42" y="184.38" xlink:href="#hd"/>
<path d="M99.92 184.38v-31.00" class="stroke"/>
<use x="96.42" y="178.38" xlink:href="#hd"/>
<use x="96.42" y="172.38" xlink:href="#hd"/>
<use x="155.62" y="178.38" xlink:href="#hl"/>
<use x="155.62" y="181.38" xlink:href="#hd"/>
<path d="M159.12 181.38v-31.00" class="stroke"/>
<use x="155.62" y="175.38" xlink:href="#hd"/>
<use x="155.62" y="169.38" xlink:href="#hd"/>
<use x="214.92" y="178.38" xlink:href="#hl"/>
<use x="214.92" y="178.38" xlink:href="#hd"/>
<path d="M218.42 178.38v-31.00" class="stroke"/>
<use x="214.92" y="172.38" xlink:href="#hd"/>
<use x="214.92" y="166.38" xlink:href="#hd"/>
<use x="274.12" y="175.38" xlink:href="#hd"/>
<path d="M277.62 175.38v-31.00" class="stroke"/>
<use x="274.12" y="169.38" xlink:href="#hd"/>
<use x="274.12" y="163.38" xlink:href="#hd"/>
<use x="340.52" y="172.38" xlink:href="#hd"/>
<path d="M344.02 172.38v-31.00" class="stroke"/>
<use x="340.52" y="166.38" xlink:href="#hd"/>
<use x="340.52" y="160.38" xlink:href="#hd"/>
<use x="399.82" y="169.38" xlink:href="#hd"/>
<path d="M403.32 169.38v-31.00" class="stroke"/>
<use x="399.82" y="163.38" xlink:href="#hd"/>
<use x="399.82" y="157.38" xlink:href="#hd"/>
<use x="459.02" y="166.38" xlink:href="#hd"/>
<path d="M462.52 166.38v-31.00" class="stroke"/>
<use x="459.02" y="160.38" xlink:href="#hd"/>
<use x="459.02" y="154.38" xlink:href="#hd"/>
<use x="518.22" y="151.38" xlink:href="#hd"/>
<path d="M514.72 151.38v31.00" class="stroke"/>
<use x="518.22" y="163.38" xlink:href="#hd"/>
<use x="518.22" y="157.38" xlink:href="#hd"/>
<use x="584.72" y="148.38" xlink:href="#hd"/>
<path d="M581.22 148.38v31.00" class="stroke"/>
<use x="584.72" y="160.38" xlink:href="#hd"/>
<use x="584.72" y="154.38" xlink:href="#hd"/>
<use x="643.92" y="145.38" xlink:href="#hd"/>
<path d="M640.42 145.38v31.00" class="stroke"/>
<use x="643.92" y="157.38" xlink:href="#hd"/>
<use x="643.92" y="151.38" xlink:href="#hd"/>
<use x="703.12" y="142.38" xlink:href="#hl"/>
<use x="703.12" y="142.38" xlink:href="#hd"/>
<path d="M699.62 142.38v31.00" class="stroke"/>
<use x="703.12" y="154.38" xlink:href="#hd"/>
<use x="703.12" y="148.38" xlink:href="#hd"/>
<use x="756.42" y="160.38" xlink:href="#r4"/>
<defs>
<path id="ltr" class="fill"
    d="m0 -0.4c2 -1.5 3.4 -1.9 3.9 0.4
	c0.2 0.8 0.7 0.7 2.1 -0.4
	v0.8c-2 1.5 -3.4 1.9 -3.9 -0.4
	c-0.2 -0.8 -0.7 -0.7 -2.1 0.4z"/>
</defs>
<g transform="rotate(270)">
<use x="-187.38" y="86.42" xlink:href="#ltr"/>
<use x="-181.38" y="86.42" xlink:href="#ltr"/>
<use x="-175.38" y="86.42" xlink:href="#ltr"/>
</g>
<g transform="rotate(270)">
<use x="-184.38" y="145.62" xlink:href="#ltr"/>
<use x="-178.38" y="145.62" xlink:href="#ltr"/>
<use x="-172.38" y="145.62" xlink:href="#ltr"/>
</g>
<g transform="rotate(270)">
<use x="-181.38" y="204.92" xlink:href="#ltr"/>
<use x="-175.38" y="204.92" xlink:href="#ltr"/>
<use x="-169.38" y="204.92" xlink:href="#ltr"/>
</g>
<g transform="rotate(270)">
<use x="-178.38" y="264.12" xlink:href="#ltr"/>
<use x="-172.38" y="264.12" xlink:href="#ltr"/>
<use x="-166.38" y="264.12" xlink:href="#ltr"/>
</g>
<g transform="rotate(270)">
<use x="-175.38" y="330.52" xlink:href="#ltr"/>
<use x="-169.38" y="330.52" xlink:href="#ltr"/>
<use x="-163.38" y="330.52" xlink:href="#ltr"/>
</g>
<g transform="rotate(270)">
<use x="-172.38" y="389.82" xlink:href="#ltr"/>
<use x="-166.38" y="389.82" xlink:href="#ltr"/>
<use x="-160.38" y="389.82" xlink:href="#ltr"/>
</g>
<g transform="rotate(270)">
<use x="-169.38" y="449.02" xlink:href="#ltr"/>
<use x="-163.38" y="449.02" xlink:href="#ltr"/>
<use x="-157.38" y="449.02" xlink:href="#ltr"/>
</g>
<g transform="rotate(270)">
<use x="-166.38" y="508.22" xlink:href="#ltr"/>
<use x="-160.38" y="508.22" xlink:href="#ltr"/>
<use x="-154.38" y="508.22" xlink:href="#ltr"/>
</g>
<g transform="rotate(270)">
<use x="-163.38" y="574.72" xlink:href="#ltr"/>
<use x="-157.38" y="574.72" xlink:href="#ltr"/>
<use x="-151.38" y="574.72" xlink:href="#ltr"/>
</g>
<g transform="rotate(270)">
<use x="-160.38" y="633.92" xlink:href="#ltr"/>
<use x="-154.38" y="633.92" xlink:href="#ltr"/>
<use x="-148.38" y="633.92" xlink:href="#ltr"/>
</g>
<g transform="rotate(270)">
<use x="-157.38" y="693.12" xlink:href="#ltr"/>
<use x="-151.38" y="693.12" xlink:href="#ltr"/>
<use x="-145.38" y="693.12" xlink:href="#ltr"/>
</g>
<g transform="rotate(270)">
<use x="-132.38" y="746.42" xlink:href="#ltr"/>
<use x="-126.38" y="746.42" xlink:href="#ltr"/>
<use x="-120.38" y="746.42" xlink:href="#ltr"/>
</g>
</g>
<g stroke-width="0.70" transform="scale(0.960)" style="font:bold 15.00px Times">
<path class="stroke" stroke-width="1"
	d="M10.42 300.38v-82.00"/>
<g transform="translate(10.42,218.38) scale(1,0.82)">
	<use xlink:href="#brace"/>
</g>
<path class="stroke" stroke-width="1"
	d="M303.02 242.38v-24.00"/>
<path class="stroke" stroke-width="1"
	d="M303.02 300.38v-24.00"/>
<path class="stroke" stroke-width="1"
	d="M550.42 242.38v-24.00"/>
<path class="stroke" stroke-width="1"
	d="M550.42 300.38v-24.00"/>
<path class="stroke" stroke-width="1"
	d="M797.92 242.38v-24.00"/>
<path class="stroke" stroke-width="1"
	d="M797.92 300.38v-24.00"/>
<path d="m10.42 242.38
	h787.50
	M10.42 236.38
	h787.50
	M10.42 230.38
	h787.50
	M10.42 224.38
	h787.50
	M10.42 218.38
	h787.50
	" class="stroke"/>
<path d="m10.42 300.38
	h787.50
	M10.42 294.38
	h787.50
	M10.42 288.38
	h787.50
	M10.42 282.38
	h787.50
	M10.42 276.38
	h787.50
	" class="stroke"/>
<use x="22.42" y="236.38" xlink:href="#tclef"/>
<use x="37.42" y="230.38" xlink:href="#ft0"/>
<use x="42.92" y="221.38" xlink:href="#ft0"/>
<use x="48.42" y="233.38" xlink:href="#ft0"/>
<use x="80.42" y="248.38" xlink:href="#hl"/>
<use x="80.42" y="254.38" xlink:href="#hl"/>
<use x="80.42" y="254.38" xlink:href="#hd"/>
<path d="M83.92 254.38v-31.00" class="stroke"/>
<use x="80.42" y="248.38" xlink:href="#hd"/>
<use x="80.42" y="242.38" xlink:href="#hd"/>
<use x="140.62" y="248.38" xlink:href="#hl"/>
<use x="140.62" y="251.38" xlink:href="#hd"/>
<path d="M144.12 251.38v-31.00" class="stroke"/>
<use x="140.62" y="245.38" xlink:href="#hd"/>
<use x="140.62" y="239.38" xlink:href="#hd"/>
<use x="200.72" y="248.38" xlink:href="#hl"/>
<use x="200.72" y="248.38" xlink:href="#hd"/>
<path d="M204.22 248.38v-31.00" class="stroke"/>
<use x="200.72" y="242.38" xlink:href="#hd"/>
<use x="200.72" y="236.38" xlink:href="#hd"/>
<use x="260.92" y="245.38" xlink:href="#hd"/>
<path d="M264.42 245.38v-31.00" class="stroke"/>
<use x="260.92" y="239.38" xlink:href="#hd"/>
<use x="260.92" y="233.38" xlink:href="#hd"/>
<use x="327.92" y="242.38" xlink:href="#hd"/>
<path d="M331.42 242.38v-31.00" class="stroke"/>
<use x="327.92" y="236.38" xlink:href="#hd"/>
<use x="327.92" y="230.38" xlink:href="#hd"/>
<use x="388.02" y="239.38" xlink:href="#hd"/>
<path d="M391.52 239.38v-31.00" class="stroke"/>
<use x="388.02" y="233.38" xlink:href="#hd"/>
<use x="388.02" y="227.38" xlink:href="#hd"/>
<use x="448.22" y="236.38" xlink:href="#hd"/>
<path d="M451.72 236.38v-31.00" class="stroke"/>
<use x="448.22" y="230.38" xlink:href="#hd"/>
<use x="448.22" y="224.38" xlink:href="#hd"/>
<use x="508.32" y="221.38" xlink:href="#hd"/>
<path d="M504.82 221.38v31.00" class="stroke"/>
<use x="508.32" y="233.38" xlink:href="#hd"/>
<use x="508.32" y="227.38" xlink:href="#hd"/>
<use x="575.32" y="218.38" xlink:href="#hd"/>
<path d="M571.82 218.38v31.00" class="stroke"/>
<use x="575.32" y="230.38" xlink:href="#hd"/>
<use x="575.32" y="224.38" xlink:href="#hd"/>
<use x="635.52" y="215.38" xlink:href="#hd"/>
<path d="M632.02 215.38v31.00" class="stroke"/>
<use x="635.52" y="227.38" xlink:href="#hd"/>
<use x="635.52" y="221.38" xlink:href="#hd"/>
<use x="695.62" y="212.38" xlink:href="#hl"/>
<use x="695.62" y="212.38" xlink:href="#hd"/>
<path d="M692.12 212.38v31.00" class="stroke"/>
<use x="695.62" y="224.38" xlink:href="#hd"/>
<use x="695.62" y="218.38" xlink:href="#hd"/>
<use x="755.82" y="212.38" xlink:href="#hl"/>
<use x="755.82" y="209.38" xlink:href="#hd"/>
<path d="M752.32 209.38v31.00" class="stroke"/>
<use x="755.82" y="221.38" xlink:href="#hd"/>
<use x="755.82" y="215.38" xlink:href="#hd"/>
<use x="22.42" y="282.38" xlink:href="#bclef"/>
<use x="37.42" y="294.38" xlink:href="#ft0"/>
<use x="42.92" y="285.38" xlink:href="#ft0"/>
<use x="48.42" y="297.38" xlink:href="#ft0"/>
<use x="80.42" y="288.38" xlink:href="#r4"/>
<use x="140.62" y="288.38" xlink:href="#r4"/>
<use x="200.72" y="288.38" xlink:href="#r4"/>
<use x="260.92" y="288.38" xlink:href="#r4"/>
<use x="327.92" y="288.38" xlink:href="#r4"/>
<use x="388.02" y="288.38" xlink:href="#r4"/>
<use x="448.22" y="288.38" xlink:href="#r4"/>
<use x="508.32" y="288.38" xlink:href="#r4"/>
<use x="575.32" y="288.38" xlink:href="#r4"/>
<use x="635.52" y="288.38" xlink:href="#r4"/>
<use x="695.62" y="288.38" xlink:href="#r4"/>
<use x="755.82" y="288.38" xlink:href="#r4"/>
<g transform="rotate(270)">
<use x="-257.38" y="70.42" xlink:href="#ltr"/>
<use x="-251.38" y="70.42" xlink:href="#ltr"/>
<use x="-245.38" y="70.42" xlink:href="#ltr"/>
</g>
<g transform="rotate(270)">
<use x="-254.38" y="130.62" xlink:href="#ltr"/>
<use x="-248.38" y="130.62" xlink:href="#ltr"/>
<use x="-242.38" y="130.62" xlink:href="#ltr"/>
</g>
<g transform="rotate(270)">
<use x="-251.38" y="190.72" xlink:href="#ltr"/>
<use x="-245.38" y="190.72" xlink:href="#ltr"/>
<use x="-239.38" y="190.72" xlink:href="#ltr"/>
</g>
<g transform="rotate(270)">
<use x="-248.38" y="250.92" xlink:href="#ltr"/>
<use x="-242.38" y="250.92" xlink:href="#ltr"/>
<use x="-236.38" y="250.92" xlink:href="#ltr"/>
</g>
<g transform="rotate(270)">
<use x="-245.38" y="317.92" xlink:href="#ltr"/>
<use x="-239.38" y="317.92" xlink:href="#ltr"/>
<use x="-233.38" y="317.92" xlink:href="#ltr"/>
</g>
<g transform="rotate(270)">
<use x="-242.38" y="378.02" xlink:href="#ltr"/>
<use x="-236.38" y="378.02" xlink:href="#ltr"/>
<use x="-230.38" y="378.02" xlink:href="#ltr"/>
</g>
<g transform="rotate(270)">
<use x="-239.38" y="438.22" xlink:href="#ltr"/>
<use x="-233.38" y="438.22" xlink:href="#ltr"/>
<use x="-227.38" y="438.22" xlink:href="#ltr"/>
</g>
<g transform="rotate(270)">
<use x="-236.38" y="498.32" xlink:href="#ltr"/>
<use x="-230.38" y="498.32" xlink:href="#ltr"/>
<use x="-224.38" y="498.32" xlink:href="#ltr"/>
</g>
<g transform="rotate(270)">
<use x="-233.38" y="565.32" xlink:href="#ltr"/>
<use x="-227.38" y="565.32" xlink:href="#ltr"/>
<use x="-221.38" y="565.32" xlink:href="#ltr"/>
</g>
<g transform="rotate(270)">
<use x="-230.38" y="625.52" xlink:href="#ltr"/>
<use x="-224.38" y="625.52" xlink:href="#ltr"/>
<use x="-218.38" y="625.52" xlink:href="#ltr"/>
</g>
<g transform="rotate(270)">
<use x="-227.38" y="685.62" xlink:href="#ltr"/>
<use x="-221.38" y="685.62" xlink:href="#ltr"/>
<use x="-215.38" y="685.62" xlink:href="#ltr"/>
</g>
<g transform="rotate(270)">
<use x="-224.38" y="745.82" xlink:href="#ltr"/>
<use x="-218.38" y="745.82" xlink:href="#ltr"/>
<use x="-212.38" y="745.82" xlink:href="#ltr"/>
</g>
</g>
<g stroke-width="0.70" transform="scale(0.960)" style="font:bold 15.00px Times">
<path class="stroke" stroke-width="1"
	d="M10.42 435.38v-82.00"/>
<g transform="translate(10.42,353.38) scale(1,0.82)">
	<use xlink:href="#brace"/>
</g>
<path class="stroke" stroke-width="1"
	d="M306.22 377.38v-24.00"/>
<path class="stroke" stroke-width="1"
	d="M306.22 435.38v-24.00"/>
<path class="stroke" stroke-width="1"
	d="M557.22 377.38v-24.00"/>
<path class="stroke" stroke-width="1"
	d="M557.22 435.38v-24.00"/>
<path d="m10.42 377.38
	h546.80
	M10.42 371.38
	h546.80
	M10.42 365.38
	h546.80
	M10.42 359.38
	h546.80
	M10.42 353.38
	h546.80
	" class="stroke"/>
<path d="m10.42 435.38
	h546.80
	M10.42 429.38
	h546.80
	M10.42 423.38
	h546.80
	M10.42 417.38
	h546.80
	M10.42 411.38
	h546.80
	" class="stroke"/>
<use x="22.42" y="371.38" xlink:href="#tclef"/>
<use x="37.42" y="365.38" xlink:href="#ft0"/>
<use x="42.92" y="356.38" xlink:href="#ft0"/>
<use x="48.42" y="368.38" xlink:href="#ft0"/>
<use x="80.42" y="347.38" xlink:href="#hl"/>
<use x="80.42" y="341.38" xlink:href="#hl"/>
<use x="80.42" y="341.38" xlink:href="#hd"/>
<path d="M76.92 341.38v31.00" class="stroke"/>
<use x="80.42" y="353.38" xlink:href="#hd"/>
<use x="80.42" y="347.38" xlink:href="#hd"/>
<use x="141.42" y="347.38" xlink:href="#hl"/>
<use x="141.42" y="341.38" xlink:href="#hl"/>
<use x="141.42" y="338.38" xlink:href="#hd"/>
<path d="M137.92 338.38v31.00" class="stroke"/>
<use x="141.42" y="350.38" xlink:href="#hd"/>
<use x="141.42" y="344.38" xlink:href="#hd"/>
<use x="202.42" y="347.38" xlink:href="#hl"/>
<use x="202.42" y="341.38" xlink:href="#hl"/>
<use x="202.42" y="335.38" xlink:href="#hl"/>
<use x="202.42" y="335.38" xlink:href="#hd"/>
<path d="M198.92 335.38v31.00" class="stroke"/>
<use x="202.42" y="347.38" xlink:href="#hd"/>
<use x="202.42" y="341.38" xlink:href="#hd"/>
<use x="263.52" y="347.38" xlink:href="#hl"/>
<use x="263.52" y="341.38" xlink:href="#hl"/>
<use x="263.52" y="335.38" xlink:href="#hl"/>
<use x="263.52" y="332.38" xlink:href="#hd"/>
<path d="M260.02 332.38v33.00" class="stroke"/>
<use x="263.52" y="344.38" xlink:href="#hd"/>
<use x="263.52" y="338.38" xlink:href="#hd"/>
<use x="331.42" y="347.38" xlink:href="#hl"/>
<use x="331.42" y="341.38" xlink:href="#hl"/>
<use x="331.42" y="335.38" xlink:href="#hl"/>
<use x="331.42" y="329.38" xlink:href="#hl"/>
<use x="331.42" y="329.38" xlink:href="#hd"/>
<path d="M327.92 329.38v36.00" class="stroke"/>
<use x="331.42" y="341.38" xlink:href="#hd"/>
<use x="331.42" y="335.38" xlink:href="#hd"/>
<use x="392.42" y="365.38" xlink:href="#r4"/>
<use x="453.42" y="365.38" xlink:href="#r4"/>
<use x="514.42" y="365.38" xlink:href="#r4"/>
<use x="22.42" y="417.38" xlink:href="#bclef"/>
<use x="37.42" y="429.38" xlink:href="#ft0"/>
<use x="42.92" y="420.38" xlink:href="#ft0"/>
<use x="48.42" y="432.38" xlink:href="#ft0"/>
<use x="80.42" y="423.38" xlink:href="#r4"/>
<use x="141.42" y="423.38" xlink:href="#r4"/>
<use x="202.42" y="423.38" xlink:href="#r4"/>
<use x="263.52" y="423.38" xlink:href="#r4"/>
<use x="331.42" y="423.38" xlink:href="#r4"/>
<use x="392.42" y="423.38" xlink:href="#r4"/>
<use x="453.42" y="423.38" xlink:href="#r4"/>
<use x="514.42" y="423.38" xlink:href="#r4"/>
<g transform="rotate(270)">
<use x="-356.38" y="70.42" xlink:href="#ltr"/>
<use x="-350.38" y="70.42" xlink:href="#ltr"/>
<use x="-344.38" y="70.42" xlink:href="#ltr"/>
</g>
<g transform="rotate(270)">
<use x="-353.38" y="131.42" xlink:href="#ltr"/>
<use x="-347.38" y="131.42" xlink:href="#ltr"/>
<use x="-341.38" y="131.42" xlink:href="#ltr"/>
</g>
<g transform="rotate(270)">
<use x="-350.38" y="192.42" xlink:href="#ltr"/>
<use x="-344.38" y="192.42" xlink:href="#ltr"/>
<use x="-338.38" y="192.42" xlink:href="#ltr"/>
</g>
<g transform="rotate(270)">
<use x="-347.38" y="253.52" xlink:href="#ltr"/>
<use x="-341.38" y="253.52" xlink:href="#ltr"/>
<use x="-335.38" y="253.52" xlink:href="#ltr"/>
</g>
<g transform="rotate(270)">
<use x="-344.38" y="321.42" xlink:href="#ltr"/>
<use x="-338.38" y="321.42" xlink:href="#ltr"/>
<use x="-332.38" y="321.42" xlink:href="#ltr"/>
</g>
</g>
</svg>
