<?xml version="1.0" standalone="no"?>
<!DOCTYPE svg PUBLIC "-//W3C//DTD SVG 1.1//EN"
	"http://www.w3.org/Graphics/SVG/1.1/DTD/svg11.dtd">
<svg xmlns="http://www.w3.org/2000/svg" version="1.1"
	xmlns:xlink="http://www.w3.org/1999/xlink"
	color="black"
	width="701.60px" height="426.80px" viewBox="0 0 701.60 426.80" preserveAspectRatio="xMidYMid meet">
<style type="text/css">
.fill {fill: currentColor}
.stroke {stroke: currentColor; fill: none}
text{white-space: pre}
</style>
<title>/tmp/retab_hymnal_L4/amazing_grace.abc (1) tune 1</title>
<!-- Creator: abcm2ps-8.14.11 -->
<!-- CreationDate: Apr 24, 2026 15:38 -->
<!-- CommandLine: /tmp/retab_hymnal_L4/amazing_grace.abc -g -O /tmp/retab_hymnal_L4/amazing_grace -->
<g stroke-width="0.70">
<!-- title: 020. Amazing Grace -->
</g>
<g stroke-width="0.70" style="font:20.00px Times">
<text x="350.80" y="22.00" text-anchor="middle">020. Amazing Grace</text>
</g>
<g stroke-width="0.70" style="font:20.00px Times">
<path class="stroke" stroke-width="1"
	d="M10.00 145.40v-82.00"/>
<defs>
<path id="brace" class="fill" d="m-2.5 101
	c-4.5 -4.6 -7.5 -12.2 -4.4 -26.8
	3.5 -14.3 3.2 -21.7 -2.1 -24.2
	7.4 2.4 7.3 14.2 3.5 29.5
	-2.7 9.5 -1.5 16.2 3 21.5
	M-2.5 1c-4.5 4.6 -7.5 12.2 -4.4 26.8
	c3.5 14.3 3.2 21.7 -2.1 24.2
	7.4 -2.4 7.3 -14.2 3.5 -29.5
	-2.7 -9.5 -1.5 -16.2 3 -21.5"/>
</defs>
<g transform="translate(10.00,63.40) scale(1,0.82)">
	<use xlink:href="#brace"/>
</g>
<path class="stroke" stroke-width="1"
	d="M134.70 87.40v-24.00"/>
<path class="stroke" stroke-width="1"
	d="M134.70 145.40v-24.00"/>
<path class="stroke" stroke-width="1"
	d="M246.80 87.40v-24.00"/>
<path class="stroke" stroke-width="1"
	d="M246.80 145.40v-24.00"/>
<path class="stroke" stroke-width="1"
	d="M345.10 87.40v-24.00"/>
<path class="stroke" stroke-width="1"
	d="M345.10 145.40v-24.00"/>
<path class="stroke" stroke-width="1"
	d="M421.30 87.40v-24.00"/>
<path class="stroke" stroke-width="1"
	d="M421.30 145.40v-24.00"/>
<path class="stroke" stroke-width="1"
	d="M497.50 87.40v-24.00"/>
<path class="stroke" stroke-width="1"
	d="M497.50 145.40v-24.00"/>
<path class="stroke" stroke-width="1"
	d="M609.60 87.40v-24.00"/>
<path class="stroke" stroke-width="1"
	d="M609.60 145.40v-24.00"/>
<path class="stroke" stroke-width="1"
	d="M691.60 87.40v-24.00"/>
<path class="stroke" stroke-width="1"
	d="M691.60 145.40v-24.00"/>
<path d="m10.00 87.40
	h681.60
	M10.00 81.40
	h681.60
	M10.00 75.40
	h681.60
	M10.00 69.40
	h681.60
	M10.00 63.40
	h681.60
	" class="stroke"/>
<path d="m10.00 145.40
	h681.60
	M10.00 139.40
	h681.60
	M10.00 133.40
	h681.60
	M10.00 127.40
	h681.60
	M10.00 121.40
	h681.60
	" class="stroke"/>
</g>
<g stroke-width="0.70" style="font:bold 13.00px Times">
<text x="69.70" y="58.80">I</text>
</g>
<g stroke-width="0.70" style="font:bold 13.00px Times">
<text x="145.40" y="47.80">I</text>
</g>
<g stroke-width="0.70" style="font:bold 13.00px Times">
<text x="253.40" y="50.80">V<tspan
	 style="font:italic 11.00px Times">⁷</tspan></text>
</g>
<g stroke-width="0.70" style="font:bold 13.00px Times">
<text x="352.40" y="58.80">IV</text>
</g>
<g stroke-width="0.70" style="font:bold 13.00px Times">
<text x="432.50" y="58.80">I</text>
</g>
<g stroke-width="0.70" style="font:bold 13.00px Times">
<text x="508.20" y="47.80">I</text>
</g>
<g stroke-width="0.70" style="font:bold 13.00px Times">
<text x="615.80" y="50.80">V<tspan
	 style="font:italic 11.00px Times">⁷³</tspan></text>
</g>
<g stroke-width="0.70" style="font:italic 11.00px Times">
<defs>
<path id="utclef" class="fill" d="m-50 -90
	c-72 -41 -72 -158 52 -188
	150 -10 220 188 90 256
	-114 52 -275 0 -293 -136
	-15 -181 93 -229 220 -334
	88 -87 79 -133 62 -210
	-51 33 -94 105 -89 186
	17 267 36 374 49 574
	6 96 -19 134 -77 135
	-80 1 -126 -93 -61 -133
	85 -41 133 101 31 105
	23 17 92 37 90 -92
	-10 -223 -39 -342 -50 -617
	0 -90 0 -162 96 -232
	56 72 63 230 22 289
	-74 106 -257 168 -255 316
	9 153 148 185 252 133
	86 -65 29 -192 -80 -176
	-71 12 -105 67 -59 124"/>
<use id="tclef" transform="translate(0,6) scale(0.045)"
	xlink:href="#utclef"/>
</defs>
<use x="22.00" y="81.40" xlink:href="#tclef"/>
<defs>
<path id="usharp" class="fill" d="
	m136 -702
	v890
	h32
	v-890
	m128 840
	h32
	v-888
	h-32
	m-232 286
	v116
	l338 -96
	v-116
	m-338 442
	v116
	l338 -98
	v-114"/>
<use id="sh0" transform="translate(-4,5) scale(0.018)"
	xlink:href="#usharp"/>
</defs>
<use x="37.00" y="63.40" xlink:href="#sh0"/>
<g style="font:bold 16px serif"
	transform="translate(53.00,86.90) scale(1.2,1)">
	<text text-anchor="middle">4</text>
	<text y="-12" text-anchor="middle">3</text>
</g>
<defs>
<ellipse id="hd" rx="4.1" ry="2.9"
	transform="rotate(-20)" class="fill"/>
</defs>
<use x="71.50" y="90.40" xlink:href="#hd"/>
<path d="M75.00 90.40v-21.00" class="stroke"/>
<defs>
<path id="Hd" class="fill" d="m3 -1.6
	c-1 -1.8 -7 1.4 -6 3.2
	1 1.8 7 -1.4 6 -3.2
	m0.5 -0.3
	c2 3.8 -5 7.6 -7 3.8
	-2 -3.8 5 -7.6 7 -3.8"/>
</defs>
<use x="103.10" y="81.40" xlink:href="#Hd"/>
<path d="M106.60 81.40v-21.00" class="stroke"/>
<use x="147.20" y="75.40" xlink:href="#hd"/>
<path d="M150.70 75.40v-21.00" class="stroke"/>
<path class="fill"
	d="M150.70 54.40c0.6 5.6 9.6 9 5.6 18.4
	1.6 -6 -1.3 -11.6 -5.6 -12.8
"/>
<use x="169.90" y="81.40" xlink:href="#hd"/>
<path d="M173.40 81.40v-21.00" class="stroke"/>
<path class="fill"
	d="M173.40 60.40c0.6 5.6 9.6 9 5.6 18.4
	1.6 -6 -1.3 -11.6 -5.6 -12.8
"/>
<use x="192.70" y="75.40" xlink:href="#Hd"/>
<path d="M196.20 75.40v-21.00" class="stroke"/>
<use x="259.30" y="78.40" xlink:href="#hd"/>
<path d="M262.80 78.40v-21.00" class="stroke"/>
<use x="291.10" y="81.40" xlink:href="#Hd"/>
<path d="M294.60 81.40v-21.00" class="stroke"/>
<use x="358.10" y="87.40" xlink:href="#hd"/>
<path d="M361.60 87.40v-21.00" class="stroke"/>
<use x="389.80" y="90.40" xlink:href="#Hd"/>
<path d="M393.30 90.40v-21.00" class="stroke"/>
<use x="434.30" y="90.40" xlink:href="#hd"/>
<path d="M437.80 90.40v-21.00" class="stroke"/>
<use x="466.00" y="81.40" xlink:href="#Hd"/>
<path d="M469.50 81.40v-21.00" class="stroke"/>
<use x="510.00" y="75.40" xlink:href="#hd"/>
<path d="M513.50 75.40v-21.00" class="stroke"/>
<path class="fill"
	d="M513.50 54.40c0.6 5.6 9.6 9 5.6 18.4
	1.6 -6 -1.3 -11.6 -5.6 -12.8
"/>
<use x="532.70" y="81.40" xlink:href="#hd"/>
<path d="M536.20 81.40v-21.00" class="stroke"/>
<path class="fill"
	d="M536.20 60.40c0.6 5.6 9.6 9 5.6 18.4
	1.6 -6 -1.3 -11.6 -5.6 -12.8
"/>
<use x="555.50" y="75.40" xlink:href="#Hd"/>
<path d="M559.00 75.40v-21.00" class="stroke"/>
<use x="623.60" y="78.40" xlink:href="#hd"/>
<path d="M627.10 78.40v-21.00" class="stroke"/>
<use x="655.40" y="69.40" xlink:href="#Hd"/>
<circle class="fill" cx="664.10" cy="66.40" r="1.2"/>
<path d="M651.90 69.40v21.00" class="stroke"/>
<defs>
<path id="ubclef" class="fill" d="m-200 -87
	c124 -35 222 -78 254 -236
	43 -228 -167 -246 -192 -103
	59 -80 157 22 92 78
	-62 47 -115 -22 -106 -88
	21 -141 270 -136 274 52
	-1 175 -106 264 -322 297
	m357 -250
	c0 -36 51 -34 51 0
	0 37 -51 36 -51 0
	m-2 -129
	c0 -36 51 -34 51 0
	0 38 -51 37 -51 0"/>
<use id="bclef" transform="translate(0,18) scale(0.045)"
	xlink:href="#ubclef"/>
</defs>
<use x="22.00" y="127.40" xlink:href="#bclef"/>
<use x="37.00" y="127.40" xlink:href="#sh0"/>
<g style="font:bold 16px serif"
	transform="translate(53.00,144.90) scale(1.2,1)">
	<text text-anchor="middle">4</text>
	<text y="-12" text-anchor="middle">3</text>
</g>
<use x="71.50" y="145.40" xlink:href="#Hd"/>
<circle class="fill" cx="81.20" cy="142.40" r="1.2"/>
<path d="M75.00 145.40v-31.00" class="stroke"/>
<use x="71.50" y="139.40" xlink:href="#Hd"/>
<circle class="fill" cx="81.20" cy="136.40" r="1.2"/>
<use x="71.50" y="133.40" xlink:href="#Hd"/>
<circle class="fill" cx="81.20" cy="130.40" r="1.2"/>
<use x="147.20" y="145.40" xlink:href="#hd"/>
<path d="M150.70 145.40v-21.00" class="stroke"/>
<use x="192.70" y="139.40" xlink:href="#hd"/>
<path d="M196.20 139.40v-21.00" class="stroke"/>
<use x="224.30" y="133.40" xlink:href="#hd"/>
<path d="M227.80 133.40v-21.00" class="stroke"/>
<use x="259.30" y="133.40" xlink:href="#hd"/>
<path d="M262.80 133.40v-21.00" class="stroke"/>
<use x="291.10" y="127.40" xlink:href="#hd"/>
<path d="M287.60 127.40v21.00" class="stroke"/>
<use x="322.70" y="121.40" xlink:href="#hd"/>
<path d="M319.20 121.40v21.00" class="stroke"/>
<use x="358.10" y="124.40" xlink:href="#Hd"/>
<circle class="fill" cx="366.80" cy="124.40" r="1.2"/>
<path d="M354.60 124.40v31.00" class="stroke"/>
<use x="358.10" y="136.40" xlink:href="#Hd"/>
<circle class="fill" cx="366.80" cy="136.40" r="1.2"/>
<use x="358.10" y="130.40" xlink:href="#Hd"/>
<circle class="fill" cx="366.80" cy="130.40" r="1.2"/>
<use x="434.30" y="145.40" xlink:href="#Hd"/>
<circle class="fill" cx="443.00" cy="142.40" r="1.2"/>
<path d="M437.80 145.40v-31.00" class="stroke"/>
<use x="434.30" y="139.40" xlink:href="#Hd"/>
<circle class="fill" cx="443.00" cy="136.40" r="1.2"/>
<use x="434.30" y="133.40" xlink:href="#Hd"/>
<circle class="fill" cx="443.00" cy="130.40" r="1.2"/>
<use x="510.00" y="145.40" xlink:href="#hd"/>
<path d="M513.50 145.40v-21.00" class="stroke"/>
<use x="555.50" y="139.40" xlink:href="#hd"/>
<path d="M559.00 139.40v-21.00" class="stroke"/>
<use x="587.10" y="133.40" xlink:href="#hd"/>
<path d="M590.60 133.40v-21.00" class="stroke"/>
<defs>
<path id="HD" class="fill" d="m-2.7 -1.4
	c1.5 -2.8 6.9 0 5.3 2.7
	-1.5 2.8 -6.9 0 -5.3 -2.7
	m8.3 1.4
	c0 -1.5 -2.2 -3 -5.6 -3
	-3.4 0 -5.6 1.5 -5.6 3
	0 1.5 2.2 3 5.6 3
	3.4 0 5.6 -1.5 5.6 -3"/>
</defs>
<use x="624.60" y="121.40" xlink:href="#HD"/>
<use x="624.60" y="133.40" xlink:href="#HD"/>
<use x="624.60" y="127.40" xlink:href="#HD"/>
</g>
<g stroke-width="0.70" style="font:italic 11.00px Times">
<path class="stroke" stroke-width="1"
	d="M10.00 273.40v-82.00"/>
<g transform="translate(10.00,191.40) scale(1,0.82)">
	<use xlink:href="#brace"/>
</g>
<path class="stroke" stroke-width="1"
	d="M93.40 215.40v-24.00"/>
<path class="stroke" stroke-width="1"
	d="M93.40 273.40v-24.00"/>
<path class="stroke" stroke-width="1"
	d="M229.60 215.40v-24.00"/>
<path class="stroke" stroke-width="1"
	d="M229.60 273.40v-24.00"/>
<path class="stroke" stroke-width="1"
	d="M359.80 215.40v-24.00"/>
<path class="stroke" stroke-width="1"
	d="M359.80 273.40v-24.00"/>
<path class="stroke" stroke-width="1"
	d="M496.10 215.40v-24.00"/>
<path class="stroke" stroke-width="1"
	d="M496.10 273.40v-24.00"/>
<path class="stroke" stroke-width="1"
	d="M601.80 215.40v-24.00"/>
<path class="stroke" stroke-width="1"
	d="M601.80 273.40v-24.00"/>
<path class="stroke" stroke-width="1"
	d="M691.60 215.40v-24.00"/>
<path class="stroke" stroke-width="1"
	d="M691.60 273.40v-24.00"/>
<path d="m10.00 215.40
	h681.60
	M10.00 209.40
	h681.60
	M10.00 203.40
	h681.60
	M10.00 197.40
	h681.60
	M10.00 191.40
	h681.60
	" class="stroke"/>
<path d="m10.00 273.40
	h681.60
	M10.00 267.40
	h681.60
	M10.00 261.40
	h681.60
	M10.00 255.40
	h681.60
	M10.00 249.40
	h681.60
	" class="stroke"/>
</g>
<g stroke-width="0.70" style="font:bold 13.00px Times">
<text x="51.70" y="186.80">I<tspan
	 style="font:italic 11.00px Times">¹</tspan></text>
</g>
<g stroke-width="0.70" style="font:bold 13.00px Times">
<text x="105.20" y="184.80">I</text>
</g>
<g stroke-width="0.70" style="font:bold 13.00px Times">
<text x="241.40" y="186.80">I</text>
</g>
<g stroke-width="0.70" style="font:bold 13.00px Times">
<text x="369.60" y="184.80">I<tspan
	 style="font:italic 11.00px Times">¹</tspan></text>
</g>
<g stroke-width="0.70" style="font:bold 13.00px Times">
<text x="503.90" y="181.80">IV</text>
</g>
<g stroke-width="0.70" style="font:bold 13.00px Times">
<text x="611.60" y="186.80">I<tspan
	 style="font:italic 11.00px Times">¹</tspan></text>
</g>
<g stroke-width="0.70" style="font:italic 11.00px Times">
<use x="22.00" y="209.40" xlink:href="#tclef"/>
<use x="37.00" y="191.40" xlink:href="#sh0"/>
<use x="55.50" y="197.40" xlink:href="#Hd"/>
<path d="M52.00 197.40v21.00" class="stroke"/>
<use x="107.00" y="203.40" xlink:href="#hd"/>
<path d="M103.50 203.40v21.00" class="stroke"/>
<use x="145.30" y="197.40" xlink:href="#hd"/>
<circle class="fill" cx="153.00" cy="194.40" r="1.2"/>
<path d="M141.80 197.40v21.00" class="stroke"/>
<use x="210.70" y="203.40" xlink:href="#hd"/>
<path d="M207.20 203.40v21.00" class="stroke"/>
<path class="fill"
	d="M207.20 224.40c0.6 -5.6 9.6 -9 5.6 -18.4
	1.6 6 -1.3 11.6 -5.6 12.8
"/>
<use x="243.20" y="197.40" xlink:href="#hd"/>
<path d="M239.70 197.40v21.00" class="stroke"/>
<path class="fill"
	d="M239.70 218.40c0.6 -5.6 9.6 -9 5.6 -18.4
	1.6 6 -1.3 11.6 -5.6 12.8
"/>
<use x="270.30" y="203.40" xlink:href="#hd"/>
<path d="M266.80 203.40v21.00" class="stroke"/>
<path class="fill"
	d="M266.80 224.40c0.6 -5.6 9.6 -9 5.6 -18.4
	1.6 6 -1.3 11.6 -5.6 12.8
"/>
<use x="294.70" y="209.40" xlink:href="#Hd"/>
<path d="M298.20 209.40v-21.00" class="stroke"/>
<use x="373.40" y="218.40" xlink:href="#hd"/>
<path d="M376.90 218.40v-21.00" class="stroke"/>
<use x="411.70" y="215.40" xlink:href="#hd"/>
<circle class="fill" cx="419.40" cy="212.40" r="1.2"/>
<path d="M415.20 215.40v-21.00" class="stroke"/>
<use x="477.00" y="209.40" xlink:href="#hd"/>
<path d="M480.50 209.40v-21.00" class="stroke"/>
<path class="fill"
	d="M480.50 188.40c0.6 5.6 9.6 9 5.6 18.4
	1.6 -6 -1.3 -11.6 -5.6 -12.8
"/>
<use x="509.60" y="209.40" xlink:href="#hd"/>
<path d="M513.10 209.40v-21.00" class="stroke"/>
<path class="fill"
	d="M513.10 188.40c0.6 5.6 9.6 9 5.6 18.4
	1.6 -6 -1.3 -11.6 -5.6 -12.8
"/>
<use x="536.80" y="215.40" xlink:href="#hd"/>
<path d="M540.30 215.40v-21.00" class="stroke"/>
<path class="fill"
	d="M540.30 194.40c0.6 5.6 9.6 9 5.6 18.4
	1.6 -6 -1.3 -11.6 -5.6 -12.8
"/>
<use x="563.90" y="218.40" xlink:href="#Hd"/>
<path d="M567.40 218.40v-21.00" class="stroke"/>
<use x="615.40" y="218.40" xlink:href="#hd"/>
<path d="M618.90 218.40v-21.00" class="stroke"/>
<use x="653.70" y="209.40" xlink:href="#Hd"/>
<path d="M657.20 209.40v-21.00" class="stroke"/>
<use x="22.00" y="255.40" xlink:href="#bclef"/>
<use x="37.00" y="255.40" xlink:href="#sh0"/>
<use x="55.50" y="273.40" xlink:href="#Hd"/>
<path d="M59.00 273.40v-31.00" class="stroke"/>
<use x="55.50" y="267.40" xlink:href="#Hd"/>
<use x="55.50" y="261.40" xlink:href="#Hd"/>
<use x="107.00" y="273.40" xlink:href="#hd"/>
<path d="M110.50 273.40v-21.00" class="stroke"/>
<use x="145.30" y="267.40" xlink:href="#hd"/>
<path d="M148.80 267.40v-21.00" class="stroke"/>
<use x="183.60" y="261.40" xlink:href="#hd"/>
<path d="M187.10 261.40v-21.00" class="stroke"/>
<use x="243.20" y="273.40" xlink:href="#hd"/>
<path d="M246.70 273.40v-21.00" class="stroke"/>
<use x="294.70" y="267.40" xlink:href="#hd"/>
<path d="M298.20 267.40v-21.00" class="stroke"/>
<use x="333.00" y="261.40" xlink:href="#hd"/>
<path d="M336.50 261.40v-21.00" class="stroke"/>
<use x="373.40" y="273.40" xlink:href="#hd"/>
<path d="M376.90 273.40v-21.00" class="stroke"/>
<use x="411.70" y="267.40" xlink:href="#hd"/>
<path d="M415.20 267.40v-21.00" class="stroke"/>
<use x="450.00" y="261.40" xlink:href="#hd"/>
<path d="M453.50 261.40v-21.00" class="stroke"/>
<use x="509.60" y="252.40" xlink:href="#Hd"/>
<circle class="fill" cx="518.30" cy="252.40" r="1.2"/>
<path d="M506.10 252.40v31.00" class="stroke"/>
<use x="509.60" y="264.40" xlink:href="#Hd"/>
<circle class="fill" cx="518.30" cy="264.40" r="1.2"/>
<use x="509.60" y="258.40" xlink:href="#Hd"/>
<circle class="fill" cx="518.30" cy="258.40" r="1.2"/>
<use x="615.40" y="273.40" xlink:href="#Hd"/>
<circle class="fill" cx="624.10" cy="270.40" r="1.2"/>
<path d="M618.90 273.40v-31.00" class="stroke"/>
<use x="615.40" y="267.40" xlink:href="#Hd"/>
<circle class="fill" cx="624.10" cy="264.40" r="1.2"/>
<use x="615.40" y="261.40" xlink:href="#Hd"/>
<circle class="fill" cx="624.10" cy="258.40" r="1.2"/>
</g>
<g stroke-width="0.70" style="font:italic 11.00px Times">
<path class="stroke" stroke-width="1"
	d="M10.00 403.80v-82.00"/>
<g transform="translate(10.00,321.80) scale(1,0.82)">
	<use xlink:href="#brace"/>
</g>
<path class="stroke" stroke-width="1"
	d="M179.60 345.80v-24.00"/>
<path class="stroke" stroke-width="1"
	d="M179.60 403.80v-24.00"/>
<path class="stroke" stroke-width="1"
	d="M313.40 345.80v-24.00"/>
<path class="stroke" stroke-width="1"
	d="M313.40 403.80v-24.00"/>
<path class="stroke" stroke-width="1"
	d="M367.10 345.80v-24.00"/>
<path class="stroke" stroke-width="1"
	d="M367.10 403.80v-24.00"/>
<path d="m10.00 345.80
	h357.10
	M10.00 339.80
	h357.10
	M10.00 333.80
	h357.10
	M10.00 327.80
	h357.10
	M10.00 321.80
	h357.10
	" class="stroke"/>
<path d="m10.00 403.80
	h357.10
	M10.00 397.80
	h357.10
	M10.00 391.80
	h357.10
	M10.00 385.80
	h357.10
	M10.00 379.80
	h357.10
	" class="stroke"/>
</g>
<g stroke-width="0.70" style="font:bold 13.00px Times">
<text x="51.20" y="306.20">I<tspan
	 style="font:italic 11.00px Times">²</tspan></text>
</g>
<g stroke-width="0.70" style="font:bold 13.00px Times">
<text x="187.90" y="309.20">V<tspan
	 style="font:italic 11.00px Times">⁷</tspan></text>
</g>
<g stroke-width="0.70" style="font:bold 13.00px Times">
<text x="325.70" y="312.20">I</text>
<use x="22.00" y="339.80" xlink:href="#tclef"/>
<use x="37.00" y="321.80" xlink:href="#sh0"/>
<use x="55.00" y="333.80" xlink:href="#hd"/>
<path d="M58.50 333.80v-21.00" class="stroke"/>
<path class="fill"
	d="M58.50 312.80c0.6 5.6 9.6 9 5.6 18.4
	1.6 -6 -1.3 -11.6 -5.6 -12.8
"/>
<use x="83.30" y="339.80" xlink:href="#hd"/>
<path d="M86.80 339.80v-21.00" class="stroke"/>
<path class="fill"
	d="M86.80 318.80c0.6 5.6 9.6 9 5.6 18.4
	1.6 -6 -1.3 -11.6 -5.6 -12.8
"/>
<use x="111.60" y="333.80" xlink:href="#Hd"/>
<path d="M115.10 333.80v-21.00" class="stroke"/>
<use x="193.80" y="336.80" xlink:href="#hd"/>
<path d="M197.30 336.80v-21.00" class="stroke"/>
<use x="233.80" y="339.80" xlink:href="#Hd"/>
<circle class="fill" cx="242.50" cy="336.80" r="1.2"/>
<path d="M237.30 339.80v-21.00" class="stroke"/>
<use x="327.50" y="339.80" xlink:href="#Hd"/>
<path d="M331.00 339.80v-21.00" class="stroke"/>
<use x="22.00" y="385.80" xlink:href="#bclef"/>
<use x="37.00" y="385.80" xlink:href="#sh0"/>
<use x="55.00" y="403.80" xlink:href="#hd"/>
<path d="M58.50 403.80v-21.00" class="stroke"/>
<use x="111.60" y="397.80" xlink:href="#hd"/>
<path d="M115.10 397.80v-21.00" class="stroke"/>
<use x="151.60" y="391.80" xlink:href="#hd"/>
<path d="M155.10 391.80v-21.00" class="stroke"/>
<use x="193.80" y="391.80" xlink:href="#hd"/>
<path d="M197.30 391.80v-21.00" class="stroke"/>
<use x="233.80" y="385.80" xlink:href="#hd"/>
<path d="M230.30 385.80v21.00" class="stroke"/>
<use x="273.80" y="379.80" xlink:href="#Hd"/>
<path d="M270.30 379.80v21.00" class="stroke"/>
<use x="327.50" y="403.80" xlink:href="#Hd"/>
<path d="M331.00 403.80v-31.00" class="stroke"/>
<use x="327.50" y="397.80" xlink:href="#Hd"/>
<use x="327.50" y="391.80" xlink:href="#Hd"/>
</g>
</svg>
