<?xml version="1.0" standalone="no"?>
<!DOCTYPE svg PUBLIC "-//W3C//DTD SVG 1.1//EN"
	"http://www.w3.org/Graphics/SVG/1.1/DTD/svg11.dtd">
<svg xmlns="http://www.w3.org/2000/svg" version="1.1"
	xmlns:xlink="http://www.w3.org/1999/xlink"
	color="black"
	width="701.60px" height="552.40px" viewBox="0 0 701.60 552.40" preserveAspectRatio="xMidYMid meet">
<style type="text/css">
.fill {fill: currentColor}
.stroke {stroke: currentColor; fill: none}
text{white-space: pre}
</style>
<title>/tmp/retab_hymnal_L4/god_rest_ye_merry_gentlemen.abc (1) tune 1</title>
<!-- Creator: abcm2ps-8.14.11 -->
<!-- CreationDate: Apr 24, 2026 15:38 -->
<!-- CommandLine: /tmp/retab_hymnal_L4/god_rest_ye_merry_gentlemen.abc -g -O /tmp/retab_hymnal_L4/god_rest_ye_merry_gentlemen -->
<g stroke-width="0.70">
<!-- title: 075. God Rest Ye Merry Gentlemen -->
</g>
<g stroke-width="0.70" style="font:20.00px Times">
<text x="350.80" y="22.00" text-anchor="middle">075. God Rest Ye Merry Gentlemen</text>
</g>
<g stroke-width="0.70" style="font:20.00px Times">
<path class="stroke" stroke-width="1"
	d="M10.00 143.00v-82.00"/>
<defs>
<path id="brace" class="fill" d="m-2.5 101
	c-4.5 -4.6 -7.5 -12.2 -4.4 -26.8
	3.5 -14.3 3.2 -21.7 -2.1 -24.2
	7.4 2.4 7.3 14.2 3.5 29.5
	-2.7 9.5 -1.5 16.2 3 21.5
	M-2.5 1c-4.5 4.6 -7.5 12.2 -4.4 26.8
	c3.5 14.3 3.2 21.7 -2.1 24.2
	7.4 -2.4 7.3 -14.2 3.5 -29.5
	-2.7 -9.5 -1.5 -16.2 3 -21.5"/>
</defs>
<g transform="translate(10.00,61.00) scale(1,0.82)">
	<use xlink:href="#brace"/>
</g>
<path class="stroke" stroke-width="1"
	d="M167.30 85.00v-24.00"/>
<path class="stroke" stroke-width="1"
	d="M167.30 143.00v-24.00"/>
<path class="stroke" stroke-width="1"
	d="M276.00 85.00v-24.00"/>
<path class="stroke" stroke-width="1"
	d="M276.00 143.00v-24.00"/>
<path class="stroke" stroke-width="1"
	d="M384.80 85.00v-24.00"/>
<path class="stroke" stroke-width="1"
	d="M384.80 143.00v-24.00"/>
<path class="stroke" stroke-width="1"
	d="M474.10 85.00v-24.00"/>
<path class="stroke" stroke-width="1"
	d="M474.10 143.00v-24.00"/>
<path class="stroke" stroke-width="1"
	d="M582.80 85.00v-24.00"/>
<path class="stroke" stroke-width="1"
	d="M582.80 143.00v-24.00"/>
<path class="stroke" stroke-width="1"
	d="M691.60 85.00v-24.00"/>
<path class="stroke" stroke-width="1"
	d="M691.60 143.00v-24.00"/>
<path d="m10.00 85.00
	h681.60
	M10.00 79.00
	h681.60
	M10.00 73.00
	h681.60
	M10.00 67.00
	h681.60
	M10.00 61.00
	h681.60
	" class="stroke"/>
<path d="m10.00 143.00
	h681.60
	M10.00 137.00
	h681.60
	M10.00 131.00
	h681.60
	M10.00 125.00
	h681.60
	M10.00 119.00
	h681.60
	" class="stroke"/>
</g>
<g stroke-width="0.70" style="font:bold 13.00px Times">
<text x="71.00" y="56.40">i</text>
</g>
<g stroke-width="0.70" style="font:bold 13.00px Times">
<text x="177.30" y="48.40">V</text>
</g>
<g stroke-width="0.70" style="font:bold 13.00px Times">
<text x="284.60" y="56.40">III</text>
</g>
<g stroke-width="0.70" style="font:bold 13.00px Times">
<text x="393.30" y="48.40">V</text>
</g>
<g stroke-width="0.70" style="font:bold 13.00px Times">
<text x="486.60" y="56.40">i</text>
</g>
<g stroke-width="0.70" style="font:bold 13.00px Times">
<text x="592.90" y="48.40">V</text>
<defs>
<path id="utclef" class="fill" d="m-50 -90
	c-72 -41 -72 -158 52 -188
	150 -10 220 188 90 256
	-114 52 -275 0 -293 -136
	-15 -181 93 -229 220 -334
	88 -87 79 -133 62 -210
	-51 33 -94 105 -89 186
	17 267 36 374 49 574
	6 96 -19 134 -77 135
	-80 1 -126 -93 -61 -133
	85 -41 133 101 31 105
	23 17 92 37 90 -92
	-10 -223 -39 -342 -50 -617
	0 -90 0 -162 96 -232
	56 72 63 230 22 289
	-74 106 -257 168 -255 316
	9 153 148 185 252 133
	86 -65 29 -192 -80 -176
	-71 12 -105 67 -59 124"/>
<use id="tclef" transform="translate(0,6) scale(0.045)"
	xlink:href="#utclef"/>
</defs>
<use x="22.00" y="79.00" xlink:href="#tclef"/>
<defs>
<path id="usharp" class="fill" d="
	m136 -702
	v890
	h32
	v-890
	m128 840
	h32
	v-888
	h-32
	m-232 286
	v116
	l338 -96
	v-116
	m-338 442
	v116
	l338 -98
	v-114"/>
<use id="sh0" transform="translate(-4,5) scale(0.018)"
	xlink:href="#usharp"/>
</defs>
<use x="37.00" y="61.00" xlink:href="#sh0"/>
<g style="font:bold 16px serif"
	transform="translate(53.00,84.50) scale(1.2,1)">
	<text text-anchor="middle">4</text>
	<text y="-12" text-anchor="middle">4</text>
</g>
<defs>
<ellipse id="hd" rx="4.1" ry="2.9"
	transform="rotate(-20)" class="fill"/>
</defs>
<use x="72.50" y="85.00" xlink:href="#hd"/>
<path d="M76.00 85.00v-21.00" class="stroke"/>
<use x="97.90" y="85.00" xlink:href="#hd"/>
<path d="M101.40 85.00v-21.00" class="stroke"/>
<use x="123.40" y="73.00" xlink:href="#hd"/>
<path d="M126.90 73.00v-21.00" class="stroke"/>
<use x="148.80" y="73.00" xlink:href="#hd"/>
<path d="M152.30 73.00v-21.00" class="stroke"/>
<use x="181.30" y="76.00" xlink:href="#hd"/>
<path d="M184.80 76.00v-21.00" class="stroke"/>
<use x="206.70" y="79.00" xlink:href="#hd"/>
<path d="M210.20 79.00v-21.00" class="stroke"/>
<use x="232.10" y="82.00" xlink:href="#hd"/>
<path d="M235.60 82.00v-21.00" class="stroke"/>
<use x="257.50" y="85.00" xlink:href="#hd"/>
<path d="M261.00 85.00v-21.00" class="stroke"/>
<use x="290.00" y="88.00" xlink:href="#hd"/>
<path d="M293.50 88.00v-21.00" class="stroke"/>
<use x="315.40" y="85.00" xlink:href="#hd"/>
<path d="M318.90 85.00v-21.00" class="stroke"/>
<use x="340.90" y="82.00" xlink:href="#hd"/>
<path d="M344.40 82.00v-21.00" class="stroke"/>
<use x="366.30" y="79.00" xlink:href="#hd"/>
<path d="M369.80 79.00v-21.00" class="stroke"/>
<use x="397.30" y="76.00" xlink:href="#hd"/>
<path d="M400.80 76.00v-21.00" class="stroke"/>
<defs>
<path id="Hd" class="fill" d="m3 -1.6
	c-1 -1.8 -7 1.4 -6 3.2
	1 1.8 7 -1.4 6 -3.2
	m0.5 -0.3
	c2 3.8 -5 7.6 -7 3.8
	-2 -3.8 5 -7.6 7 -3.8"/>
</defs>
<use x="422.80" y="73.00" xlink:href="#Hd"/>
<circle class="fill" cx="431.50" cy="70.00" r="1.2"/>
<path d="M426.30 73.00v-21.00" class="stroke"/>
<use x="488.10" y="85.00" xlink:href="#hd"/>
<path d="M491.60 85.00v-21.00" class="stroke"/>
<use x="513.50" y="85.00" xlink:href="#hd"/>
<path d="M517.00 85.00v-21.00" class="stroke"/>
<use x="538.90" y="73.00" xlink:href="#hd"/>
<path d="M542.40 73.00v-21.00" class="stroke"/>
<use x="564.40" y="73.00" xlink:href="#hd"/>
<path d="M567.90 73.00v-21.00" class="stroke"/>
<use x="596.80" y="76.00" xlink:href="#hd"/>
<path d="M600.30 76.00v-21.00" class="stroke"/>
<use x="622.30" y="79.00" xlink:href="#hd"/>
<path d="M625.80 79.00v-21.00" class="stroke"/>
<use x="647.70" y="82.00" xlink:href="#hd"/>
<path d="M651.20 82.00v-21.00" class="stroke"/>
<use x="673.10" y="85.00" xlink:href="#hd"/>
<path d="M676.60 85.00v-21.00" class="stroke"/>
<defs>
<path id="ubclef" class="fill" d="m-200 -87
	c124 -35 222 -78 254 -236
	43 -228 -167 -246 -192 -103
	59 -80 157 22 92 78
	-62 47 -115 -22 -106 -88
	21 -141 270 -136 274 52
	-1 175 -106 264 -322 297
	m357 -250
	c0 -36 51 -34 51 0
	0 37 -51 36 -51 0
	m-2 -129
	c0 -36 51 -34 51 0
	0 38 -51 37 -51 0"/>
<use id="bclef" transform="translate(0,18) scale(0.045)"
	xlink:href="#ubclef"/>
</defs>
<use x="22.00" y="125.00" xlink:href="#bclef"/>
<use x="37.00" y="125.00" xlink:href="#sh0"/>
<g style="font:bold 16px serif"
	transform="translate(53.00,142.50) scale(1.2,1)">
	<text text-anchor="middle">4</text>
	<text y="-12" text-anchor="middle">4</text>
</g>
<defs>
<path id="HD" class="fill" d="m-2.7 -1.4
	c1.5 -2.8 6.9 0 5.3 2.7
	-1.5 2.8 -6.9 0 -5.3 -2.7
	m8.3 1.4
	c0 -1.5 -2.2 -3 -5.6 -3
	-3.4 0 -5.6 1.5 -5.6 3
	0 1.5 2.2 3 5.6 3
	3.4 0 5.6 -1.5 5.6 -3"/>
</defs>
<use x="73.50" y="116.00" xlink:href="#HD"/>
<use x="73.50" y="128.00" xlink:href="#HD"/>
<use x="73.50" y="122.00" xlink:href="#HD"/>
<use x="182.30" y="125.00" xlink:href="#HD"/>
<use x="182.30" y="137.00" xlink:href="#HD"/>
<use x="182.30" y="131.00" xlink:href="#HD"/>
<use x="291.00" y="143.00" xlink:href="#HD"/>
<use x="291.00" y="137.00" xlink:href="#HD"/>
<use x="291.00" y="131.00" xlink:href="#HD"/>
<use x="397.30" y="137.00" xlink:href="#hd"/>
<path d="M400.80 137.00v-21.00" class="stroke"/>
<use x="422.80" y="131.00" xlink:href="#hd"/>
<path d="M426.30 131.00v-21.00" class="stroke"/>
<use x="448.50" y="125.00" xlink:href="#Hd"/>
<path d="M445.00 125.00v21.00" class="stroke"/>
<use x="489.10" y="116.00" xlink:href="#HD"/>
<use x="489.10" y="128.00" xlink:href="#HD"/>
<use x="489.10" y="122.00" xlink:href="#HD"/>
<use x="597.80" y="125.00" xlink:href="#HD"/>
<use x="597.80" y="137.00" xlink:href="#HD"/>
<use x="597.80" y="131.00" xlink:href="#HD"/>
</g>
<g stroke-width="0.70" style="font:bold 13.00px Times">
<path class="stroke" stroke-width="1"
	d="M10.00 273.40v-82.00"/>
<g transform="translate(10.00,191.40) scale(1,0.82)">
	<use xlink:href="#brace"/>
</g>
<path class="stroke" stroke-width="1"
	d="M172.40 215.40v-24.00"/>
<path class="stroke" stroke-width="1"
	d="M172.40 273.40v-24.00"/>
<path class="stroke" stroke-width="1"
	d="M302.00 215.40v-24.00"/>
<path class="stroke" stroke-width="1"
	d="M302.00 273.40v-24.00"/>
<path class="stroke" stroke-width="1"
	d="M430.40 215.40v-24.00"/>
<path class="stroke" stroke-width="1"
	d="M430.40 273.40v-24.00"/>
<path class="stroke" stroke-width="1"
	d="M561.70 215.40v-24.00"/>
<path class="stroke" stroke-width="1"
	d="M561.70 273.40v-24.00"/>
<path class="stroke" stroke-width="1"
	d="M691.60 215.40v-24.00"/>
<path class="stroke" stroke-width="1"
	d="M691.60 273.40v-24.00"/>
<path d="m10.00 215.40
	h681.60
	M10.00 209.40
	h681.60
	M10.00 203.40
	h681.60
	M10.00 197.40
	h681.60
	M10.00 191.40
	h681.60
	" class="stroke"/>
<path d="m10.00 273.40
	h681.60
	M10.00 267.40
	h681.60
	M10.00 261.40
	h681.60
	M10.00 255.40
	h681.60
	M10.00 249.40
	h681.60
	" class="stroke"/>
</g>
<g stroke-width="0.70" style="font:bold 13.00px Times">
<text x="49.50" y="186.80">III</text>
</g>
<g stroke-width="0.70" style="font:bold 13.00px Times">
<text x="180.90" y="178.80">V</text>
</g>
<g stroke-width="0.70" style="font:bold 13.00px Times">
<text x="314.50" y="175.80">i</text>
</g>
<g stroke-width="0.70" style="font:bold 13.00px Times">
<text x="437.00" y="186.80">III<tspan
	 style="font:italic 11.00px Times">¹</tspan></text>
</g>
<g stroke-width="0.70" style="font:bold 13.00px Times">
<text x="568.80" y="178.80">ii○</text>
<use x="22.00" y="209.40" xlink:href="#tclef"/>
<use x="37.00" y="191.40" xlink:href="#sh0"/>
<use x="55.00" y="218.40" xlink:href="#hd"/>
<path d="M58.50 218.40v-21.00" class="stroke"/>
<use x="86.70" y="215.40" xlink:href="#hd"/>
<path d="M90.20 215.40v-21.00" class="stroke"/>
<use x="118.30" y="212.40" xlink:href="#hd"/>
<path d="M121.80 212.40v-21.00" class="stroke"/>
<use x="150.00" y="209.40" xlink:href="#hd"/>
<path d="M153.50 209.40v-21.00" class="stroke"/>
<use x="184.90" y="206.40" xlink:href="#hd"/>
<path d="M188.40 206.40v-21.00" class="stroke"/>
<use x="216.50" y="203.40" xlink:href="#Hd"/>
<path d="M220.00 203.40v-21.00" class="stroke"/>
<defs>
<path id="r4" class="fill" d="m-1 -8.5
	l3.6 5.1 -2.1 5.2 2.2 4.3
	c-2.6 -2.3 -5.1 0 -2.4 2.6
	-4.8 -3 -1.5 -6.9 1.4 -4.1
	l-3.1 -4.5 1.9 -5.1 -1.5 -3.5"/>
</defs>
<use x="279.60" y="203.40" xlink:href="#r4"/>
<use x="316.00" y="203.40" xlink:href="#hd"/>
<path d="M319.50 203.40v-21.00" class="stroke"/>
<use x="347.80" y="200.40" xlink:href="#hd"/>
<path d="M344.30 200.40v21.00" class="stroke"/>
<use x="376.30" y="206.40" xlink:href="#hd"/>
<path d="M379.80 206.40v-21.00" class="stroke"/>
<use x="408.00" y="203.40" xlink:href="#hd"/>
<path d="M411.50 203.40v-21.00" class="stroke"/>
<use x="444.40" y="200.40" xlink:href="#hd"/>
<path d="M440.90 200.40v21.00" class="stroke"/>
<use x="476.00" y="197.40" xlink:href="#hd"/>
<path d="M472.50 197.40v21.00" class="stroke"/>
<use x="507.70" y="194.40" xlink:href="#hd"/>
<path d="M504.20 194.40v21.00" class="stroke"/>
<use x="539.30" y="203.40" xlink:href="#hd"/>
<path d="M535.80 203.40v21.00" class="stroke"/>
<use x="574.20" y="206.40" xlink:href="#hd"/>
<path d="M577.70 206.40v-21.00" class="stroke"/>
<use x="605.90" y="209.40" xlink:href="#hd"/>
<path d="M609.40 209.40v-21.00" class="stroke"/>
<use x="637.50" y="215.40" xlink:href="#hd"/>
<path d="M641.00 215.40v-21.00" class="stroke"/>
<use x="669.20" y="212.40" xlink:href="#hd"/>
<path d="M672.70 212.40v-21.00" class="stroke"/>
<use x="22.00" y="255.40" xlink:href="#bclef"/>
<use x="37.00" y="255.40" xlink:href="#sh0"/>
<use x="55.00" y="273.40" xlink:href="#hd"/>
<path d="M58.50 273.40v-21.00" class="stroke"/>
<use x="86.70" y="267.40" xlink:href="#hd"/>
<path d="M90.20 267.40v-21.00" class="stroke"/>
<use x="118.30" y="261.40" xlink:href="#hd"/>
<path d="M121.80 261.40v-21.00" class="stroke"/>
<use x="150.00" y="267.40" xlink:href="#hd"/>
<path d="M153.50 267.40v-21.00" class="stroke"/>
<use x="184.90" y="267.40" xlink:href="#hd"/>
<path d="M188.40 267.40v-21.00" class="stroke"/>
<use x="216.50" y="261.40" xlink:href="#hd"/>
<path d="M220.00 261.40v-21.00" class="stroke"/>
<use x="248.30" y="255.40" xlink:href="#Hd"/>
<path d="M244.80 255.40v21.00" class="stroke"/>
<use x="317.00" y="246.40" xlink:href="#HD"/>
<use x="317.00" y="258.40" xlink:href="#HD"/>
<use x="317.00" y="252.40" xlink:href="#HD"/>
<use x="445.40" y="273.40" xlink:href="#HD"/>
<use x="445.40" y="267.40" xlink:href="#HD"/>
<use x="445.40" y="261.40" xlink:href="#HD"/>
<use x="574.20" y="273.40" xlink:href="#hd"/>
<path d="M577.70 273.40v-21.00" class="stroke"/>
<use x="605.90" y="267.40" xlink:href="#hd"/>
<path d="M609.40 267.40v-21.00" class="stroke"/>
<use x="637.50" y="261.40" xlink:href="#hd"/>
<path d="M641.00 261.40v-21.00" class="stroke"/>
<use x="669.20" y="267.40" xlink:href="#hd"/>
<path d="M672.70 267.40v-21.00" class="stroke"/>
</g>
<g stroke-width="0.70" style="font:bold 13.00px Times">
<path class="stroke" stroke-width="1"
	d="M10.00 401.40v-82.00"/>
<g transform="translate(10.00,319.40) scale(1,0.82)">
	<use xlink:href="#brace"/>
</g>
<path class="stroke" stroke-width="1"
	d="M150.30 343.40v-24.00"/>
<path class="stroke" stroke-width="1"
	d="M150.30 401.40v-24.00"/>
<path class="stroke" stroke-width="1"
	d="M260.40 343.40v-24.00"/>
<path class="stroke" stroke-width="1"
	d="M260.40 401.40v-24.00"/>
<path class="stroke" stroke-width="1"
	d="M370.60 343.40v-24.00"/>
<path class="stroke" stroke-width="1"
	d="M370.60 401.40v-24.00"/>
<path class="stroke" stroke-width="1"
	d="M483.80 343.40v-24.00"/>
<path class="stroke" stroke-width="1"
	d="M483.80 401.40v-24.00"/>
<path class="stroke" stroke-width="1"
	d="M579.80 343.40v-24.00"/>
<path class="stroke" stroke-width="1"
	d="M579.80 401.40v-24.00"/>
<path class="stroke" stroke-width="1"
	d="M691.60 343.40v-24.00"/>
<path class="stroke" stroke-width="1"
	d="M691.60 401.40v-24.00"/>
<path d="m10.00 343.40
	h681.60
	M10.00 337.40
	h681.60
	M10.00 331.40
	h681.60
	M10.00 325.40
	h681.60
	M10.00 319.40
	h681.60
	" class="stroke"/>
<path d="m10.00 401.40
	h681.60
	M10.00 395.40
	h681.60
	M10.00 389.40
	h681.60
	M10.00 383.40
	h681.60
	M10.00 377.40
	h681.60
	" class="stroke"/>
</g>
<g stroke-width="0.70" style="font:bold 13.00px Times">
<text x="47.00" y="309.80">iv<tspan
	 style="font:italic 11.00px Times">⁷²</tspan></text>
</g>
<g stroke-width="0.70" style="font:bold 13.00px Times">
<text x="157.40" y="306.80">III</text>
</g>
<g stroke-width="0.70" style="font:bold 13.00px Times">
<text x="267.50" y="314.80">III</text>
</g>
<g stroke-width="0.70" style="font:bold 13.00px Times">
<text x="383.00" y="312.80">i</text>
</g>
<g stroke-width="0.70" style="font:bold 13.00px Times">
<text x="491.60" y="314.80">iv<tspan
	 style="font:italic 11.00px Times">⁷</tspan></text>
</g>
<g stroke-width="0.70" style="font:bold 13.00px Times">
<text x="592.30" y="306.80">i</text>
<use x="22.00" y="337.40" xlink:href="#tclef"/>
<use x="37.00" y="319.40" xlink:href="#sh0"/>
<use x="55.00" y="337.40" xlink:href="#hd"/>
<path d="M58.50 337.40v-21.00" class="stroke"/>
<use x="81.30" y="334.40" xlink:href="#Hd"/>
<path d="M84.80 334.40v-21.00" class="stroke"/>
<use x="131.40" y="337.40" xlink:href="#hd"/>
<path d="M134.90 337.40v-21.00" class="stroke"/>
<use x="162.80" y="334.40" xlink:href="#hd"/>
<path d="M166.30 334.40v-21.00" class="stroke"/>
<use x="189.10" y="331.40" xlink:href="#Hd"/>
<path d="M192.60 331.40v-21.00" class="stroke"/>
<use x="241.50" y="328.40" xlink:href="#hd"/>
<path d="M238.00 328.40v21.00" class="stroke"/>
<use x="272.90" y="331.40" xlink:href="#hd"/>
<path d="M269.40 331.40v21.00" class="stroke"/>
<use x="299.10" y="331.40" xlink:href="#hd"/>
<path d="M295.60 331.40v21.00" class="stroke"/>
<use x="325.40" y="334.40" xlink:href="#hd"/>
<path d="M328.90 334.40v-21.00" class="stroke"/>
<use x="351.60" y="337.40" xlink:href="#hd"/>
<path d="M355.10 337.40v-21.00" class="stroke"/>
<use x="384.60" y="340.40" xlink:href="#hd"/>
<path d="M388.10 340.40v-21.00" class="stroke"/>
<use x="410.80" y="343.40" xlink:href="#Hd"/>
<path d="M414.30 343.40v-21.00" class="stroke"/>
<use x="447.60" y="337.40" xlink:href="#hd"/>
<path d="M451.10 337.40v-21.00" class="stroke"/>
<path class="fill"
	d="M451.10 316.40c0.6 5.6 9.6 9 5.6 18.4
	1.6 -6 -1.3 -11.6 -5.6 -12.8
"/>
<use x="466.80" y="340.40" xlink:href="#hd"/>
<path d="M470.30 340.40v-21.00" class="stroke"/>
<path class="fill"
	d="M470.30 319.40c0.6 5.6 9.6 9 5.6 18.4
	1.6 -6 -1.3 -11.6 -5.6 -12.8
"/>
<use x="497.80" y="343.40" xlink:href="#hd"/>
<path d="M501.30 343.40v-21.00" class="stroke"/>
<use x="524.10" y="334.40" xlink:href="#Hd"/>
<path d="M527.60 334.40v-21.00" class="stroke"/>
<use x="560.90" y="337.40" xlink:href="#hd"/>
<path d="M564.40 337.40v-21.00" class="stroke"/>
<use x="593.80" y="334.40" xlink:href="#hd"/>
<path d="M597.30 334.40v-21.00" class="stroke"/>
<use x="620.00" y="331.40" xlink:href="#hd"/>
<path d="M623.50 331.40v-21.00" class="stroke"/>
<use x="646.50" y="328.40" xlink:href="#hd"/>
<path d="M643.00 328.40v21.00" class="stroke"/>
<use x="672.70" y="325.40" xlink:href="#hd"/>
<path d="M669.20 325.40v21.00" class="stroke"/>
<use x="22.00" y="383.40" xlink:href="#bclef"/>
<use x="37.00" y="383.40" xlink:href="#sh0"/>
<use x="55.00" y="398.40" xlink:href="#hd"/>
<path d="M58.50 398.40v-21.00" class="stroke"/>
<use x="81.30" y="392.40" xlink:href="#hd"/>
<path d="M84.80 392.40v-21.00" class="stroke"/>
<use x="107.70" y="386.40" xlink:href="#hd"/>
<path d="M104.20 386.40v21.00" class="stroke"/>
<use x="131.40" y="392.40" xlink:href="#hd"/>
<path d="M134.90 392.40v-21.00" class="stroke"/>
<use x="162.80" y="401.40" xlink:href="#hd"/>
<path d="M166.30 401.40v-21.00" class="stroke"/>
<use x="189.10" y="395.40" xlink:href="#hd"/>
<path d="M192.60 395.40v-21.00" class="stroke"/>
<use x="215.30" y="389.40" xlink:href="#hd"/>
<path d="M218.80 389.40v-21.00" class="stroke"/>
<use x="241.50" y="395.40" xlink:href="#hd"/>
<path d="M245.00 395.40v-21.00" class="stroke"/>
<use x="272.90" y="401.40" xlink:href="#hd"/>
<path d="M276.40 401.40v-21.00" class="stroke"/>
<use x="299.10" y="395.40" xlink:href="#hd"/>
<path d="M302.60 395.40v-21.00" class="stroke"/>
<use x="325.40" y="389.40" xlink:href="#Hd"/>
<path d="M328.90 389.40v-21.00" class="stroke"/>
<use x="385.60" y="374.40" xlink:href="#HD"/>
<use x="385.60" y="386.40" xlink:href="#HD"/>
<use x="385.60" y="380.40" xlink:href="#HD"/>
<use x="498.80" y="398.40" xlink:href="#HD"/>
<use x="498.80" y="392.40" xlink:href="#HD"/>
<use x="498.80" y="386.40" xlink:href="#HD"/>
<use x="594.80" y="374.40" xlink:href="#HD"/>
<use x="594.80" y="386.40" xlink:href="#HD"/>
<use x="594.80" y="380.40" xlink:href="#HD"/>
</g>
<g stroke-width="0.70" style="font:bold 13.00px Times">
<path class="stroke" stroke-width="1"
	d="M10.00 529.40v-82.00"/>
<g transform="translate(10.00,447.40) scale(1,0.82)">
	<use xlink:href="#brace"/>
</g>
<path class="stroke" stroke-width="1"
	d="M200.50 471.40v-24.00"/>
<path class="stroke" stroke-width="1"
	d="M200.50 529.40v-24.00"/>
<path class="stroke" stroke-width="1"
	d="M299.70 471.40v-24.00"/>
<path class="stroke" stroke-width="1"
	d="M299.70 529.40v-24.00"/>
<path d="m10.00 471.40
	h289.70
	M10.00 465.40
	h289.70
	M10.00 459.40
	h289.70
	M10.00 453.40
	h289.70
	M10.00 447.40
	h289.70
	" class="stroke"/>
<path d="m10.00 529.40
	h289.70
	M10.00 523.40
	h289.70
	M10.00 517.40
	h289.70
	M10.00 511.40
	h289.70
	M10.00 505.40
	h289.70
	" class="stroke"/>
</g>
<g stroke-width="0.70" style="font:bold 13.00px Times">
<text x="48.70" y="441.80">V<tspan
	 style="font:italic 11.00px Times">⁷³</tspan></text>
</g>
<g stroke-width="0.70" style="font:bold 13.00px Times">
<text x="213.10" y="440.80">i</text>
<use x="22.00" y="465.40" xlink:href="#tclef"/>
<use x="37.00" y="447.40" xlink:href="#sh0"/>
<use x="56.50" y="450.40" xlink:href="#hd"/>
<path d="M53.00 450.40v21.00" class="stroke"/>
<use x="96.50" y="459.40" xlink:href="#hd"/>
<path d="M93.00 459.40v21.00" class="stroke"/>
<use x="132.50" y="462.40" xlink:href="#hd"/>
<path d="M136.00 462.40v-21.00" class="stroke"/>
<use x="172.50" y="465.40" xlink:href="#hd"/>
<path d="M176.00 465.40v-21.00" class="stroke"/>
<use x="214.60" y="468.40" xlink:href="#hd"/>
<path d="M218.10 468.40v-21.00" class="stroke"/>
<use x="254.60" y="471.40" xlink:href="#Hd"/>
<circle class="fill" cx="263.30" cy="468.40" r="1.2"/>
<path d="M258.10 471.40v-21.00" class="stroke"/>
<use x="22.00" y="511.40" xlink:href="#bclef"/>
<use x="37.00" y="511.40" xlink:href="#sh0"/>
<use x="57.50" y="511.40" xlink:href="#HD"/>
<use x="57.50" y="523.40" xlink:href="#HD"/>
<use x="57.50" y="517.40" xlink:href="#HD"/>
<use x="215.60" y="502.40" xlink:href="#HD"/>
<use x="215.60" y="514.40" xlink:href="#HD"/>
<use x="215.60" y="508.40" xlink:href="#HD"/>
</g>
</svg>
