<?xml version="1.0" standalone="no"?>
<!DOCTYPE svg PUBLIC "-//W3C//DTD SVG 1.1//EN"
	"http://www.w3.org/Graphics/SVG/1.1/DTD/svg11.dtd">
<svg xmlns="http://www.w3.org/2000/svg" version="1.1"
	xmlns:xlink="http://www.w3.org/1999/xlink"
	color="black"
	width="701.60px" height="424.40px" viewBox="0 0 701.60 424.40" preserveAspectRatio="xMidYMid meet">
<style type="text/css">
.fill {fill: currentColor}
.stroke {stroke: currentColor; fill: none}
text{white-space: pre}
</style>
<title>/tmp/retab_hymnal_L4/joy_to_the_world.abc (1) tune 1</title>
<!-- Creator: abcm2ps-8.14.11 -->
<!-- CreationDate: Apr 24, 2026 15:38 -->
<!-- CommandLine: /tmp/retab_hymnal_L4/joy_to_the_world.abc -g -O /tmp/retab_hymnal_L4/joy_to_the_world -->
<g stroke-width="0.70">
<!-- title: 132. Joy to the World -->
</g>
<g stroke-width="0.70" style="font:20.00px Times">
<text x="350.80" y="22.00" text-anchor="middle">132. Joy to the World</text>
</g>
<g stroke-width="0.70" style="font:20.00px Times">
<path class="stroke" stroke-width="1"
	d="M10.00 145.40v-82.00"/>
<defs>
<path id="brace" class="fill" d="m-2.5 101
	c-4.5 -4.6 -7.5 -12.2 -4.4 -26.8
	3.5 -14.3 3.2 -21.7 -2.1 -24.2
	7.4 2.4 7.3 14.2 3.5 29.5
	-2.7 9.5 -1.5 16.2 3 21.5
	M-2.5 1c-4.5 4.6 -7.5 12.2 -4.4 26.8
	c3.5 14.3 3.2 21.7 -2.1 24.2
	7.4 -2.4 7.3 -14.2 3.5 -29.5
	-2.7 -9.5 -1.5 -16.2 3 -21.5"/>
</defs>
<g transform="translate(10.00,63.40) scale(1,0.82)">
	<use xlink:href="#brace"/>
</g>
<path class="stroke" stroke-width="1"
	d="M167.00 87.40v-24.00"/>
<path class="stroke" stroke-width="1"
	d="M167.00 145.40v-24.00"/>
<path class="stroke" stroke-width="1"
	d="M273.80 87.40v-24.00"/>
<path class="stroke" stroke-width="1"
	d="M273.80 145.40v-24.00"/>
<path class="stroke" stroke-width="1"
	d="M359.60 87.40v-24.00"/>
<path class="stroke" stroke-width="1"
	d="M359.60 145.40v-24.00"/>
<path class="stroke" stroke-width="1"
	d="M442.60 87.40v-24.00"/>
<path class="stroke" stroke-width="1"
	d="M442.60 145.40v-24.00"/>
<path class="stroke" stroke-width="1"
	d="M525.60 87.40v-24.00"/>
<path class="stroke" stroke-width="1"
	d="M525.60 145.40v-24.00"/>
<path class="stroke" stroke-width="1"
	d="M608.60 87.40v-24.00"/>
<path class="stroke" stroke-width="1"
	d="M608.60 145.40v-24.00"/>
<path class="stroke" stroke-width="1"
	d="M691.60 87.40v-24.00"/>
<path class="stroke" stroke-width="1"
	d="M691.60 145.40v-24.00"/>
<path d="m10.00 87.40
	h681.60
	M10.00 81.40
	h681.60
	M10.00 75.40
	h681.60
	M10.00 69.40
	h681.60
	M10.00 63.40
	h681.60
	" class="stroke"/>
<path d="m10.00 145.40
	h681.60
	M10.00 139.40
	h681.60
	M10.00 133.40
	h681.60
	M10.00 127.40
	h681.60
	M10.00 121.40
	h681.60
	" class="stroke"/>
</g>
<g stroke-width="0.70" style="font:bold 13.00px Times">
<text x="75.20" y="58.80">I</text>
</g>
<g stroke-width="0.70" style="font:bold 13.00px Times">
<text x="180.00" y="50.80">I</text>
</g>
<g stroke-width="0.70" style="font:bold 13.00px Times">
<text x="284.80" y="56.80">I<tspan
	 style="font:italic 11.00px Times">²</tspan></text>
</g>
<g stroke-width="0.70" style="font:bold 13.00px Times">
<text x="372.50" y="58.80">I</text>
</g>
<g stroke-width="0.70" style="font:bold 13.00px Times">
<text x="451.60" y="47.80">IV</text>
</g>
<g stroke-width="0.70" style="font:bold 13.00px Times">
<text x="536.40" y="58.80">V</text>
</g>
<g stroke-width="0.70" style="font:bold 13.00px Times">
<text x="621.60" y="58.80">I</text>
<defs>
<path id="utclef" class="fill" d="m-50 -90
	c-72 -41 -72 -158 52 -188
	150 -10 220 188 90 256
	-114 52 -275 0 -293 -136
	-15 -181 93 -229 220 -334
	88 -87 79 -133 62 -210
	-51 33 -94 105 -89 186
	17 267 36 374 49 574
	6 96 -19 134 -77 135
	-80 1 -126 -93 -61 -133
	85 -41 133 101 31 105
	23 17 92 37 90 -92
	-10 -223 -39 -342 -50 -617
	0 -90 0 -162 96 -232
	56 72 63 230 22 289
	-74 106 -257 168 -255 316
	9 153 148 185 252 133
	86 -65 29 -192 -80 -176
	-71 12 -105 67 -59 124"/>
<use id="tclef" transform="translate(0,6) scale(0.045)"
	xlink:href="#utclef"/>
</defs>
<use x="22.00" y="81.40" xlink:href="#tclef"/>
<defs>
<path id="usharp" class="fill" d="
	m136 -702
	v890
	h32
	v-890
	m128 840
	h32
	v-888
	h-32
	m-232 286
	v116
	l338 -96
	v-116
	m-338 442
	v116
	l338 -98
	v-114"/>
<use id="sh0" transform="translate(-4,5) scale(0.018)"
	xlink:href="#usharp"/>
</defs>
<use x="37.00" y="63.40" xlink:href="#sh0"/>
<use x="42.50" y="72.40" xlink:href="#sh0"/>
<g style="font:bold 16px serif"
	transform="translate(58.50,86.90) scale(1.2,1)">
	<text text-anchor="middle">4</text>
	<text y="-12" text-anchor="middle">2</text>
</g>
<defs>
<ellipse id="hd" rx="4.1" ry="2.9"
	transform="rotate(-20)" class="fill"/>
</defs>
<use x="77.00" y="69.40" xlink:href="#hd"/>
<path d="M73.50 69.40v21.00" class="stroke"/>
<use x="118.80" y="72.40" xlink:href="#hd"/>
<circle class="fill" cx="126.50" cy="72.40" r="1.2"/>
<path d="M115.30 72.40v21.00" class="stroke"/>
<path class="fill"
	d="M115.30 93.40c0.6 -5.6 9.6 -9 5.6 -18.4
	1.6 6 -1.3 11.6 -5.6 12.8
"/>
<use x="152.40" y="75.40" xlink:href="#hd"/>
<path d="M148.90 75.40v23.00" class="stroke"/>
<path class="fill"
	d="M148.90 98.40c0.9 -3.7 9.1 -6.4 6 -12.4
	1 5.4 -4.2 8.4 -6 8.4
M148.90 93.00c0.9 -3.7 9.1 -6.4 6 -12.4
	1 5.4 -4.2 8.4 -6 8.4
"/>
<use x="181.80" y="78.40" xlink:href="#hd"/>
<circle class="fill" cx="189.50" cy="78.40" r="1.2"/>
<path d="M185.30 78.40v-21.00" class="stroke"/>
<use x="253.10" y="81.40" xlink:href="#hd"/>
<path d="M256.60 81.40v-21.00" class="stroke"/>
<path class="fill"
	d="M256.60 60.40c0.6 5.6 9.6 9 5.6 18.4
	1.6 -6 -1.3 -11.6 -5.6 -12.8
"/>
<use x="288.60" y="84.40" xlink:href="#hd"/>
<path d="M292.10 84.40v-21.00" class="stroke"/>
<use x="330.30" y="87.40" xlink:href="#hd"/>
<path d="M333.80 87.40v-21.00" class="stroke"/>
<use x="374.30" y="90.40" xlink:href="#hd"/>
<circle class="fill" cx="382.00" cy="90.40" r="1.2"/>
<path d="M377.80 90.40v-21.00" class="stroke"/>
<use x="421.90" y="78.40" xlink:href="#hd"/>
<path d="M425.40 78.40v-21.00" class="stroke"/>
<path class="fill"
	d="M425.40 57.40c0.6 5.6 9.6 9 5.6 18.4
	1.6 -6 -1.3 -11.6 -5.6 -12.8
"/>
<use x="457.40" y="75.40" xlink:href="#hd"/>
<circle class="fill" cx="465.10" cy="72.40" r="1.2"/>
<path d="M460.90 75.40v-21.00" class="stroke"/>
<use x="504.90" y="75.40" xlink:href="#hd"/>
<path d="M508.40 75.40v-21.00" class="stroke"/>
<path class="fill"
	d="M508.40 54.40c0.6 5.6 9.6 9 5.6 18.4
	1.6 -6 -1.3 -11.6 -5.6 -12.8
"/>
<use x="540.40" y="72.40" xlink:href="#hd"/>
<circle class="fill" cx="548.10" cy="72.40" r="1.2"/>
<path d="M536.90 72.40v21.00" class="stroke"/>
<use x="587.90" y="72.40" xlink:href="#hd"/>
<path d="M584.40 72.40v21.00" class="stroke"/>
<path class="fill"
	d="M584.40 93.40c0.6 -5.6 9.6 -9 5.6 -18.4
	1.6 6 -1.3 11.6 -5.6 12.8
"/>
<use x="623.40" y="69.40" xlink:href="#hd"/>
<circle class="fill" cx="631.10" cy="66.40" r="1.2"/>
<path d="M619.90 69.40v21.00" class="stroke"/>
<use x="670.90" y="69.40" xlink:href="#hd"/>
<path d="M667.40 69.40v21.00" class="stroke"/>
<path class="fill"
	d="M667.40 90.40c0.6 -5.6 9.6 -9 5.6 -18.4
	1.6 6 -1.3 11.6 -5.6 12.8
"/>
<defs>
<path id="ubclef" class="fill" d="m-200 -87
	c124 -35 222 -78 254 -236
	43 -228 -167 -246 -192 -103
	59 -80 157 22 92 78
	-62 47 -115 -22 -106 -88
	21 -141 270 -136 274 52
	-1 175 -106 264 -322 297
	m357 -250
	c0 -36 51 -34 51 0
	0 37 -51 36 -51 0
	m-2 -129
	c0 -36 51 -34 51 0
	0 38 -51 37 -51 0"/>
<use id="bclef" transform="translate(0,18) scale(0.045)"
	xlink:href="#ubclef"/>
</defs>
<use x="22.00" y="127.40" xlink:href="#bclef"/>
<use x="37.00" y="127.40" xlink:href="#sh0"/>
<use x="42.50" y="136.40" xlink:href="#sh0"/>
<g style="font:bold 16px serif"
	transform="translate(58.50,144.90) scale(1.2,1)">
	<text text-anchor="middle">4</text>
	<text y="-12" text-anchor="middle">2</text>
</g>
<defs>
<path id="hl" class="stroke" d="m-6 0h12"/>
</defs>
<use x="77.00" y="151.40" xlink:href="#hl"/>
<defs>
<path id="Hd" class="fill" d="m3 -1.6
	c-1 -1.8 -7 1.4 -6 3.2
	1 1.8 7 -1.4 6 -3.2
	m0.5 -0.3
	c2 3.8 -5 7.6 -7 3.8
	-2 -3.8 5 -7.6 7 -3.8"/>
</defs>
<use x="77.00" y="154.40" xlink:href="#Hd"/>
<path d="M80.50 154.40v-31.00" class="stroke"/>
<use x="77.00" y="148.40" xlink:href="#Hd"/>
<use x="77.00" y="142.40" xlink:href="#Hd"/>
<use x="181.80" y="151.40" xlink:href="#hl"/>
<use x="181.80" y="154.40" xlink:href="#hd"/>
<path d="M185.30 154.40v-21.00" class="stroke"/>
<use x="223.60" y="148.40" xlink:href="#hd"/>
<path d="M227.10 148.40v-21.00" class="stroke"/>
<use x="288.60" y="151.40" xlink:href="#hl"/>
<use x="288.60" y="154.40" xlink:href="#Hd"/>
<path d="M292.10 154.40v-31.00" class="stroke"/>
<use x="288.60" y="148.40" xlink:href="#Hd"/>
<use x="288.60" y="142.40" xlink:href="#Hd"/>
<use x="374.30" y="151.40" xlink:href="#hl"/>
<use x="374.30" y="154.40" xlink:href="#Hd"/>
<path d="M377.80 154.40v-31.00" class="stroke"/>
<use x="374.30" y="148.40" xlink:href="#Hd"/>
<use x="374.30" y="142.40" xlink:href="#Hd"/>
<use x="457.40" y="145.40" xlink:href="#Hd"/>
<path d="M460.90 145.40v-31.00" class="stroke"/>
<use x="457.40" y="139.40" xlink:href="#Hd"/>
<use x="457.40" y="133.40" xlink:href="#Hd"/>
<use x="540.40" y="142.40" xlink:href="#Hd"/>
<path d="M543.90 142.40v-31.00" class="stroke"/>
<use x="540.40" y="136.40" xlink:href="#Hd"/>
<use x="540.40" y="130.40" xlink:href="#Hd"/>
<use x="623.40" y="151.40" xlink:href="#hl"/>
<use x="623.40" y="154.40" xlink:href="#Hd"/>
<path d="M626.90 154.40v-31.00" class="stroke"/>
<use x="623.40" y="148.40" xlink:href="#Hd"/>
<use x="623.40" y="142.40" xlink:href="#Hd"/>
</g>
<g stroke-width="0.70" style="font:bold 13.00px Times">
<path class="stroke" stroke-width="1"
	d="M10.00 273.40v-82.00"/>
<g transform="translate(10.00,191.40) scale(1,0.82)">
	<use xlink:href="#brace"/>
</g>
<path class="stroke" stroke-width="1"
	d="M151.50 215.40v-24.00"/>
<path class="stroke" stroke-width="1"
	d="M151.50 273.40v-24.00"/>
<path class="stroke" stroke-width="1"
	d="M254.10 215.40v-24.00"/>
<path class="stroke" stroke-width="1"
	d="M254.10 273.40v-24.00"/>
<path class="stroke" stroke-width="1"
	d="M357.50 215.40v-24.00"/>
<path class="stroke" stroke-width="1"
	d="M357.50 273.40v-24.00"/>
<path class="stroke" stroke-width="1"
	d="M460.20 215.40v-24.00"/>
<path class="stroke" stroke-width="1"
	d="M460.20 273.40v-24.00"/>
<path class="stroke" stroke-width="1"
	d="M583.70 215.40v-24.00"/>
<path class="stroke" stroke-width="1"
	d="M583.70 273.40v-24.00"/>
<path class="stroke" stroke-width="1"
	d="M691.60 215.40v-24.00"/>
<path class="stroke" stroke-width="1"
	d="M691.60 273.40v-24.00"/>
<path d="m10.00 215.40
	h681.60
	M10.00 209.40
	h681.60
	M10.00 203.40
	h681.60
	M10.00 197.40
	h681.60
	M10.00 191.40
	h681.60
	" class="stroke"/>
<path d="m10.00 273.40
	h681.60
	M10.00 267.40
	h681.60
	M10.00 261.40
	h681.60
	M10.00 255.40
	h681.60
	M10.00 249.40
	h681.60
	" class="stroke"/>
</g>
<g stroke-width="0.70" style="font:bold 13.00px Times">
<text x="59.20" y="186.80">I</text>
</g>
<g stroke-width="0.70" style="font:bold 13.00px Times">
<text x="162.60" y="178.80">I</text>
</g>
<g stroke-width="0.70" style="font:bold 13.00px Times">
<text x="265.30" y="184.80">I</text>
</g>
<g stroke-width="0.70" style="font:bold 13.00px Times">
<text x="368.70" y="178.80">I</text>
</g>
<g stroke-width="0.70" style="font:bold 13.00px Times">
<text x="471.40" y="184.80">I</text>
</g>
<g stroke-width="0.70" style="font:bold 13.00px Times">
<text x="590.60" y="178.80">V<tspan
	 style="font:italic 11.00px Times">⁷</tspan></text>
</g>
<g stroke-width="0.70" style="font:italic 11.00px Times">
<use x="22.00" y="209.40" xlink:href="#tclef"/>
<use x="37.00" y="191.40" xlink:href="#sh0"/>
<use x="42.50" y="200.40" xlink:href="#sh0"/>
<use x="61.00" y="197.40" xlink:href="#hd"/>
<path d="M57.50 197.40v21.00" class="stroke"/>
<path class="fill"
	d="M57.50 218.40c0.6 -5.6 9.6 -9 5.6 -18.4
	1.6 6 -1.3 11.6 -5.6 12.8
"/>
<use x="86.00" y="200.40" xlink:href="#hd"/>
<path d="M82.50 200.40v21.00" class="stroke"/>
<path class="fill"
	d="M82.50 221.40c0.6 -5.6 9.6 -9 5.6 -18.4
	1.6 6 -1.3 11.6 -5.6 12.8
"/>
<use x="111.00" y="203.40" xlink:href="#hd"/>
<path d="M107.50 203.40v21.00" class="stroke"/>
<path class="fill"
	d="M107.50 224.40c0.6 -5.6 9.6 -9 5.6 -18.4
	1.6 6 -1.3 11.6 -5.6 12.8
"/>
<use x="133.60" y="206.40" xlink:href="#hd"/>
<path d="M137.10 206.40v-21.00" class="stroke"/>
<path class="fill"
	d="M137.10 185.40c0.6 5.6 9.6 9 5.6 18.4
	1.6 -6 -1.3 -11.6 -5.6 -12.8
"/>
<use x="164.50" y="206.40" xlink:href="#hd"/>
<circle class="fill" cx="172.20" cy="206.40" r="1.2"/>
<path d="M168.00 206.40v-21.00" class="stroke"/>
<path class="fill"
	d="M168.00 185.40c0.6 5.6 9.6 9 5.6 18.4
	1.6 -6 -1.3 -11.6 -5.6 -12.8
"/>
<use x="193.20" y="209.40" xlink:href="#hd"/>
<path d="M196.70 209.40v-22.00" class="stroke"/>
<path class="fill"
	d="M196.70 187.40c0.9 3.7 9.1 6.4 6 12.4
	1 -5.4 -4.2 -8.4 -6 -8.4
M196.70 192.80c0.9 3.7 9.1 6.4 6 12.4
	1 -5.4 -4.2 -8.4 -6 -8.4
"/>
<use x="211.10" y="212.40" xlink:href="#hd"/>
<path d="M214.60 212.40v-21.00" class="stroke"/>
<path class="fill"
	d="M214.60 191.40c0.6 5.6 9.6 9 5.6 18.4
	1.6 -6 -1.3 -11.6 -5.6 -12.8
"/>
<use x="236.30" y="197.40" xlink:href="#hd"/>
<path d="M232.80 197.40v21.00" class="stroke"/>
<path class="fill"
	d="M232.80 218.40c0.6 -5.6 9.6 -9 5.6 -18.4
	1.6 6 -1.3 11.6 -5.6 12.8
"/>
<use x="267.10" y="197.40" xlink:href="#hd"/>
<path d="M263.60 197.40v21.00" class="stroke"/>
<path class="fill"
	d="M263.60 218.40c0.6 -5.6 9.6 -9 5.6 -18.4
	1.6 6 -1.3 11.6 -5.6 12.8
"/>
<use x="292.10" y="200.40" xlink:href="#hd"/>
<path d="M288.60 200.40v21.00" class="stroke"/>
<path class="fill"
	d="M288.60 221.40c0.6 -5.6 9.6 -9 5.6 -18.4
	1.6 6 -1.3 11.6 -5.6 12.8
"/>
<use x="317.10" y="203.40" xlink:href="#hd"/>
<path d="M313.60 203.40v21.00" class="stroke"/>
<path class="fill"
	d="M313.60 224.40c0.6 -5.6 9.6 -9 5.6 -18.4
	1.6 6 -1.3 11.6 -5.6 12.8
"/>
<use x="339.70" y="206.40" xlink:href="#hd"/>
<path d="M343.20 206.40v-21.00" class="stroke"/>
<path class="fill"
	d="M343.20 185.40c0.6 5.6 9.6 9 5.6 18.4
	1.6 -6 -1.3 -11.6 -5.6 -12.8
"/>
<use x="370.50" y="206.40" xlink:href="#hd"/>
<circle class="fill" cx="378.20" cy="206.40" r="1.2"/>
<path d="M374.00 206.40v-21.00" class="stroke"/>
<path class="fill"
	d="M374.00 185.40c0.6 5.6 9.6 9 5.6 18.4
	1.6 -6 -1.3 -11.6 -5.6 -12.8
"/>
<use x="399.20" y="209.40" xlink:href="#hd"/>
<path d="M402.70 209.40v-22.00" class="stroke"/>
<path class="fill"
	d="M402.70 187.40c0.9 3.7 9.1 6.4 6 12.4
	1 -5.4 -4.2 -8.4 -6 -8.4
M402.70 192.80c0.9 3.7 9.1 6.4 6 12.4
	1 -5.4 -4.2 -8.4 -6 -8.4
"/>
<use x="417.20" y="212.40" xlink:href="#hd"/>
<path d="M420.70 212.40v-21.00" class="stroke"/>
<path class="fill"
	d="M420.70 191.40c0.6 5.6 9.6 9 5.6 18.4
	1.6 -6 -1.3 -11.6 -5.6 -12.8
"/>
<use x="442.30" y="212.40" xlink:href="#hd"/>
<path d="M445.80 212.40v-21.00" class="stroke"/>
<path class="fill"
	d="M445.80 191.40c0.6 5.6 9.6 9 5.6 18.4
	1.6 -6 -1.3 -11.6 -5.6 -12.8
"/>
<use x="473.20" y="212.40" xlink:href="#hd"/>
<path d="M476.70 212.40v-21.00" class="stroke"/>
<path class="fill"
	d="M476.70 191.40c0.6 5.6 9.6 9 5.6 18.4
	1.6 -6 -1.3 -11.6 -5.6 -12.8
"/>
<use x="498.40" y="212.40" xlink:href="#hd"/>
<path d="M501.90 212.40v-21.00" class="stroke"/>
<path class="fill"
	d="M501.90 191.40c0.6 5.6 9.6 9 5.6 18.4
	1.6 -6 -1.3 -11.6 -5.6 -12.8
"/>
<use x="523.60" y="212.40" xlink:href="#hd"/>
<path d="M527.10 212.40v-21.00" class="stroke"/>
<path class="fill"
	d="M527.10 191.40c0.6 5.6 9.6 9 5.6 18.4
	1.6 -6 -1.3 -11.6 -5.6 -12.8
"/>
<use x="548.80" y="212.40" xlink:href="#hd"/>
<path d="M552.30 212.40v-22.00" class="stroke"/>
<path class="fill"
	d="M552.30 190.40c0.9 3.7 9.1 6.4 6 12.4
	1 -5.4 -4.2 -8.4 -6 -8.4
M552.30 195.80c0.9 3.7 9.1 6.4 6 12.4
	1 -5.4 -4.2 -8.4 -6 -8.4
"/>
<use x="566.70" y="209.40" xlink:href="#hd"/>
<path d="M570.20 209.40v-22.00" class="stroke"/>
<path class="fill"
	d="M570.20 187.40c0.9 3.7 9.1 6.4 6 12.4
	1 -5.4 -4.2 -8.4 -6 -8.4
M570.20 192.80c0.9 3.7 9.1 6.4 6 12.4
	1 -5.4 -4.2 -8.4 -6 -8.4
"/>
<use x="596.50" y="206.40" xlink:href="#hd"/>
<circle class="fill" cx="604.20" cy="206.40" r="1.2"/>
<path d="M600.00 206.40v-21.00" class="stroke"/>
<use x="656.70" y="209.40" xlink:href="#hd"/>
<path d="M660.20 209.40v-22.00" class="stroke"/>
<path class="fill"
	d="M660.20 187.40c0.9 3.7 9.1 6.4 6 12.4
	1 -5.4 -4.2 -8.4 -6 -8.4
M660.20 192.80c0.9 3.7 9.1 6.4 6 12.4
	1 -5.4 -4.2 -8.4 -6 -8.4
"/>
<use x="674.60" y="212.40" xlink:href="#hd"/>
<path d="M678.10 212.40v-22.00" class="stroke"/>
<path class="fill"
	d="M678.10 190.40c0.9 3.7 9.1 6.4 6 12.4
	1 -5.4 -4.2 -8.4 -6 -8.4
M678.10 195.80c0.9 3.7 9.1 6.4 6 12.4
	1 -5.4 -4.2 -8.4 -6 -8.4
"/>
<use x="22.00" y="255.40" xlink:href="#bclef"/>
<use x="37.00" y="255.40" xlink:href="#sh0"/>
<use x="42.50" y="264.40" xlink:href="#sh0"/>
<use x="61.00" y="279.40" xlink:href="#hl"/>
<use x="61.00" y="282.40" xlink:href="#Hd"/>
<path d="M64.50 282.40v-31.00" class="stroke"/>
<use x="61.00" y="276.40" xlink:href="#Hd"/>
<use x="61.00" y="270.40" xlink:href="#Hd"/>
<use x="164.50" y="279.40" xlink:href="#hl"/>
<use x="164.50" y="282.40" xlink:href="#Hd"/>
<path d="M168.00 282.40v-31.00" class="stroke"/>
<use x="164.50" y="276.40" xlink:href="#Hd"/>
<use x="164.50" y="270.40" xlink:href="#Hd"/>
<use x="267.10" y="279.40" xlink:href="#hl"/>
<use x="267.10" y="282.40" xlink:href="#Hd"/>
<path d="M270.60 282.40v-31.00" class="stroke"/>
<use x="267.10" y="276.40" xlink:href="#Hd"/>
<use x="267.10" y="270.40" xlink:href="#Hd"/>
<use x="370.50" y="279.40" xlink:href="#hl"/>
<use x="370.50" y="282.40" xlink:href="#Hd"/>
<path d="M374.00 282.40v-31.00" class="stroke"/>
<use x="370.50" y="276.40" xlink:href="#Hd"/>
<use x="370.50" y="270.40" xlink:href="#Hd"/>
<use x="473.20" y="279.40" xlink:href="#hl"/>
<use x="473.20" y="282.40" xlink:href="#Hd"/>
<path d="M476.70 282.40v-31.00" class="stroke"/>
<use x="473.20" y="276.40" xlink:href="#Hd"/>
<use x="473.20" y="270.40" xlink:href="#Hd"/>
<use x="596.50" y="270.40" xlink:href="#hd"/>
<path d="M600.00 270.40v-21.00" class="stroke"/>
<use x="631.70" y="264.40" xlink:href="#hd"/>
<path d="M635.20 264.40v-21.00" class="stroke"/>
</g>
<g stroke-width="0.70" style="font:italic 11.00px Times">
<path class="stroke" stroke-width="1"
	d="M10.00 401.40v-82.00"/>
<g transform="translate(10.00,319.40) scale(1,0.82)">
	<use xlink:href="#brace"/>
</g>
<path class="stroke" stroke-width="1"
	d="M194.20 343.40v-24.00"/>
<path class="stroke" stroke-width="1"
	d="M194.20 401.40v-24.00"/>
<path class="stroke" stroke-width="1"
	d="M299.90 343.40v-24.00"/>
<path class="stroke" stroke-width="1"
	d="M299.90 401.40v-24.00"/>
<path class="stroke" stroke-width="1"
	d="M413.50 343.40v-24.00"/>
<path class="stroke" stroke-width="1"
	d="M413.50 401.40v-24.00"/>
<path class="stroke" stroke-width="1"
	d="M540.60 343.40v-24.00"/>
<path class="stroke" stroke-width="1"
	d="M540.60 401.40v-24.00"/>
<path class="stroke" stroke-width="1"
	d="M631.90 343.40v-24.00"/>
<path class="stroke" stroke-width="1"
	d="M631.90 401.40v-24.00"/>
<path class="stroke" stroke-width="1"
	d="M691.60 343.40v-24.00"/>
<path class="stroke" stroke-width="1"
	d="M691.60 401.40v-24.00"/>
<path d="m10.00 343.40
	h681.60
	M10.00 337.40
	h681.60
	M10.00 331.40
	h681.60
	M10.00 325.40
	h681.60
	M10.00 319.40
	h681.60
	" class="stroke"/>
<path d="m10.00 401.40
	h681.60
	M10.00 395.40
	h681.60
	M10.00 389.40
	h681.60
	M10.00 383.40
	h681.60
	M10.00 377.40
	h681.60
	" class="stroke"/>
</g>
<g stroke-width="0.70" style="font:bold 13.00px Times">
<text x="56.60" y="314.80">V</text>
</g>
<g stroke-width="0.70" style="font:bold 13.00px Times">
<text x="208.10" y="309.80">I</text>
</g>
<g stroke-width="0.70" style="font:bold 13.00px Times">
<text x="313.80" y="314.80">I</text>
</g>
<g stroke-width="0.70" style="font:bold 13.00px Times">
<text x="425.40" y="306.80">I<tspan
	 style="font:italic 11.00px Times">²</tspan></text>
</g>
<g stroke-width="0.70" style="font:bold 13.00px Times">
<text x="554.50" y="312.80">I</text>
</g>
<g stroke-width="0.70" style="font:bold 13.00px Times">
<text x="643.80" y="314.80">I<tspan
	 style="font:italic 11.00px Times">¹</tspan></text>
</g>
<g stroke-width="0.70" style="font:italic 11.00px Times">
<use x="22.00" y="337.40" xlink:href="#tclef"/>
<use x="37.00" y="319.40" xlink:href="#sh0"/>
<use x="42.50" y="328.40" xlink:href="#sh0"/>
<use x="60.50" y="343.40" xlink:href="#hd"/>
<path d="M64.00 343.40v-21.00" class="stroke"/>
<path class="fill"
	d="M64.00 322.40c0.6 5.6 9.6 9 5.6 18.4
	1.6 -6 -1.3 -11.6 -5.6 -12.8
"/>
<use x="91.90" y="343.40" xlink:href="#hd"/>
<path d="M95.40 343.40v-21.00" class="stroke"/>
<path class="fill"
	d="M95.40 322.40c0.6 5.6 9.6 9 5.6 18.4
	1.6 -6 -1.3 -11.6 -5.6 -12.8
"/>
<use x="123.40" y="343.40" xlink:href="#hd"/>
<path d="M126.90 343.40v-21.00" class="stroke"/>
<path class="fill"
	d="M126.90 322.40c0.6 5.6 9.6 9 5.6 18.4
	1.6 -6 -1.3 -11.6 -5.6 -12.8
"/>
<use x="154.80" y="343.40" xlink:href="#hd"/>
<path d="M158.30 343.40v-22.00" class="stroke"/>
<path class="fill"
	d="M158.30 321.40c0.9 3.7 9.1 6.4 6 12.4
	1 -5.4 -4.2 -8.4 -6 -8.4
M158.30 326.80c0.9 3.7 9.1 6.4 6 12.4
	1 -5.4 -4.2 -8.4 -6 -8.4
"/>
<use x="177.00" y="340.40" xlink:href="#hd"/>
<path d="M180.50 340.40v-22.00" class="stroke"/>
<path class="fill"
	d="M180.50 318.40c0.9 3.7 9.1 6.4 6 12.4
	1 -5.4 -4.2 -8.4 -6 -8.4
M180.50 323.80c0.9 3.7 9.1 6.4 6 12.4
	1 -5.4 -4.2 -8.4 -6 -8.4
"/>
<use x="209.90" y="337.40" xlink:href="#hd"/>
<circle class="fill" cx="217.60" cy="334.40" r="1.2"/>
<path d="M213.40 337.40v-21.00" class="stroke"/>
<use x="260.50" y="340.40" xlink:href="#hd"/>
<path d="M264.00 340.40v-22.00" class="stroke"/>
<path class="fill"
	d="M264.00 318.40c0.9 3.7 9.1 6.4 6 12.4
	1 -5.4 -4.2 -8.4 -6 -8.4
M264.00 323.80c0.9 3.7 9.1 6.4 6 12.4
	1 -5.4 -4.2 -8.4 -6 -8.4
"/>
<use x="282.70" y="343.40" xlink:href="#hd"/>
<path d="M286.20 343.40v-22.00" class="stroke"/>
<path class="fill"
	d="M286.20 321.40c0.9 3.7 9.1 6.4 6 12.4
	1 -5.4 -4.2 -8.4 -6 -8.4
M286.20 326.80c0.9 3.7 9.1 6.4 6 12.4
	1 -5.4 -4.2 -8.4 -6 -8.4
"/>
<use x="315.60" y="346.40" xlink:href="#hd"/>
<path d="M319.10 346.40v-21.00" class="stroke"/>
<path class="fill"
	d="M319.10 325.40c0.6 5.6 9.6 9 5.6 18.4
	1.6 -6 -1.3 -11.6 -5.6 -12.8
"/>
<use x="347.10" y="325.40" xlink:href="#hd"/>
<path d="M343.60 325.40v21.00" class="stroke"/>
<use x="391.50" y="331.40" xlink:href="#hd"/>
<path d="M388.00 331.40v21.00" class="stroke"/>
<path class="fill"
	d="M388.00 352.40c0.6 -5.6 9.6 -9 5.6 -18.4
	1.6 6 -1.3 11.6 -5.6 12.8
"/>
<use x="429.20" y="334.40" xlink:href="#hd"/>
<circle class="fill" cx="436.90" cy="334.40" r="1.2"/>
<path d="M432.70 334.40v-21.00" class="stroke"/>
<path class="fill"
	d="M432.70 313.40c0.6 5.6 9.6 9 5.6 18.4
	1.6 -6 -1.3 -11.6 -5.6 -12.8
"/>
<use x="465.00" y="337.40" xlink:href="#hd"/>
<path d="M468.50 337.40v-22.00" class="stroke"/>
<path class="fill"
	d="M468.50 315.40c0.9 3.7 9.1 6.4 6 12.4
	1 -5.4 -4.2 -8.4 -6 -8.4
M468.50 320.80c0.9 3.7 9.1 6.4 6 12.4
	1 -5.4 -4.2 -8.4 -6 -8.4
"/>
<use x="487.20" y="340.40" xlink:href="#hd"/>
<path d="M490.70 340.40v-21.00" class="stroke"/>
<path class="fill"
	d="M490.70 319.40c0.6 5.6 9.6 9 5.6 18.4
	1.6 -6 -1.3 -11.6 -5.6 -12.8
"/>
<use x="518.60" y="337.40" xlink:href="#hd"/>
<path d="M522.10 337.40v-21.00" class="stroke"/>
<path class="fill"
	d="M522.10 316.40c0.6 5.6 9.6 9 5.6 18.4
	1.6 -6 -1.3 -11.6 -5.6 -12.8
"/>
<use x="556.30" y="340.40" xlink:href="#hd"/>
<path d="M559.80 340.40v-21.00" class="stroke"/>
<use x="600.80" y="343.40" xlink:href="#hd"/>
<path d="M604.30 343.40v-21.00" class="stroke"/>
<use x="647.60" y="346.40" xlink:href="#Hd"/>
<path d="M651.10 346.40v-21.00" class="stroke"/>
<use x="22.00" y="383.40" xlink:href="#bclef"/>
<use x="37.00" y="383.40" xlink:href="#sh0"/>
<use x="42.50" y="392.40" xlink:href="#sh0"/>
<use x="60.50" y="398.40" xlink:href="#hd"/>
<path d="M64.00 398.40v-21.00" class="stroke"/>
<use x="123.40" y="392.40" xlink:href="#hd"/>
<path d="M126.90 392.40v-21.00" class="stroke"/>
<use x="209.90" y="407.40" xlink:href="#hl"/>
<use x="209.90" y="410.40" xlink:href="#Hd"/>
<path d="M213.40 410.40v-31.00" class="stroke"/>
<use x="209.90" y="404.40" xlink:href="#Hd"/>
<use x="209.90" y="398.40" xlink:href="#Hd"/>
<use x="315.60" y="407.40" xlink:href="#hl"/>
<use x="315.60" y="410.40" xlink:href="#Hd"/>
<path d="M319.10 410.40v-31.00" class="stroke"/>
<use x="315.60" y="404.40" xlink:href="#Hd"/>
<use x="315.60" y="398.40" xlink:href="#Hd"/>
<use x="429.20" y="407.40" xlink:href="#hl"/>
<use x="429.20" y="410.40" xlink:href="#Hd"/>
<path d="M432.70 410.40v-31.00" class="stroke"/>
<use x="429.20" y="404.40" xlink:href="#Hd"/>
<use x="429.20" y="398.40" xlink:href="#Hd"/>
<use x="556.30" y="407.40" xlink:href="#hl"/>
<use x="556.30" y="410.40" xlink:href="#Hd"/>
<path d="M559.80 410.40v-31.00" class="stroke"/>
<use x="556.30" y="404.40" xlink:href="#Hd"/>
<use x="556.30" y="398.40" xlink:href="#Hd"/>
<use x="647.60" y="407.40" xlink:href="#hl"/>
<use x="647.60" y="410.40" xlink:href="#Hd"/>
<path d="M651.10 410.40v-31.00" class="stroke"/>
<use x="647.60" y="404.40" xlink:href="#Hd"/>
<use x="647.60" y="398.40" xlink:href="#Hd"/>
</g>
</svg>
