<?xml version="1.0" standalone="no"?>
<!DOCTYPE svg PUBLIC "-//W3C//DTD SVG 1.1//EN"
	"http://www.w3.org/Graphics/SVG/1.1/DTD/svg11.dtd">
<svg xmlns="http://www.w3.org/2000/svg" version="1.1"
	xmlns:xlink="http://www.w3.org/1999/xlink"
	color="black"
	width="701.60px" height="424.40px" viewBox="0 0 701.60 424.40" preserveAspectRatio="xMidYMid meet">
<style type="text/css">
.fill {fill: currentColor}
.stroke {stroke: currentColor; fill: none}
text{white-space: pre}
</style>
<title>/tmp/retab_hymnal_L4/let_our_gladness_have_no_end.abc (1) tune 1</title>
<!-- Creator: abcm2ps-8.14.11 -->
<!-- CreationDate: Apr 24, 2026 15:38 -->
<!-- CommandLine: /tmp/retab_hymnal_L4/let_our_gladness_have_no_end.abc -g -O /tmp/retab_hymnal_L4/let_our_gladness_have_no_end -->
<g stroke-width="0.70">
<!-- title: 137. Let Our Gladness Have No End -->
</g>
<g stroke-width="0.70" style="font:20.00px Times">
<text x="350.80" y="22.00" text-anchor="middle">137. Let Our Gladness Have No End</text>
</g>
<g stroke-width="0.70" style="font:20.00px Times">
<path class="stroke" stroke-width="1"
	d="M10.00 143.00v-82.00"/>
<defs>
<path id="brace" class="fill" d="m-2.5 101
	c-4.5 -4.6 -7.5 -12.2 -4.4 -26.8
	3.5 -14.3 3.2 -21.7 -2.1 -24.2
	7.4 2.4 7.3 14.2 3.5 29.5
	-2.7 9.5 -1.5 16.2 3 21.5
	M-2.5 1c-4.5 4.6 -7.5 12.2 -4.4 26.8
	c3.5 14.3 3.2 21.7 -2.1 24.2
	7.4 -2.4 7.3 -14.2 3.5 -29.5
	-2.7 -9.5 -1.5 -16.2 3 -21.5"/>
</defs>
<g transform="translate(10.00,61.00) scale(1,0.82)">
	<use xlink:href="#brace"/>
</g>
<path class="stroke" stroke-width="1"
	d="M178.10 85.00v-24.00"/>
<path class="stroke" stroke-width="1"
	d="M178.10 143.00v-24.00"/>
<path class="stroke" stroke-width="1"
	d="M276.00 85.00v-24.00"/>
<path class="stroke" stroke-width="1"
	d="M276.00 143.00v-24.00"/>
<path class="stroke" stroke-width="1"
	d="M375.20 85.00v-24.00"/>
<path class="stroke" stroke-width="1"
	d="M375.20 143.00v-24.00"/>
<path class="stroke" stroke-width="1"
	d="M455.50 85.00v-24.00"/>
<path class="stroke" stroke-width="1"
	d="M455.50 143.00v-24.00"/>
<path class="stroke" stroke-width="1"
	d="M573.50 85.00v-24.00"/>
<path class="stroke" stroke-width="1"
	d="M573.50 143.00v-24.00"/>
<path class="stroke" stroke-width="1"
	d="M691.60 85.00v-24.00"/>
<path class="stroke" stroke-width="1"
	d="M691.60 143.00v-24.00"/>
<path d="m10.00 85.00
	h681.60
	M10.00 79.00
	h681.60
	M10.00 73.00
	h681.60
	M10.00 67.00
	h681.60
	M10.00 61.00
	h681.60
	" class="stroke"/>
<path d="m10.00 143.00
	h681.60
	M10.00 137.00
	h681.60
	M10.00 131.00
	h681.60
	M10.00 125.00
	h681.60
	M10.00 119.00
	h681.60
	" class="stroke"/>
</g>
<g stroke-width="0.70" style="font:bold 13.00px Times">
<text x="68.70" y="51.40">I<tspan
	 style="font:italic 11.00px Times">¹</tspan></text>
</g>
<g stroke-width="0.70" style="font:bold 13.00px Times">
<text x="186.70" y="54.40">V</text>
</g>
<g stroke-width="0.70" style="font:bold 13.00px Times">
<text x="288.20" y="56.40">I</text>
</g>
<g stroke-width="0.70" style="font:bold 13.00px Times">
<text x="387.40" y="54.40">I</text>
</g>
<g stroke-width="0.70" style="font:bold 13.00px Times">
<text x="464.20" y="54.40">I<tspan
	 style="font:italic 11.00px Times">¹</tspan></text>
</g>
<g stroke-width="0.70" style="font:bold 13.00px Times">
<text x="581.40" y="54.40">iii</text>
<defs>
<path id="utclef" class="fill" d="m-50 -90
	c-72 -41 -72 -158 52 -188
	150 -10 220 188 90 256
	-114 52 -275 0 -293 -136
	-15 -181 93 -229 220 -334
	88 -87 79 -133 62 -210
	-51 33 -94 105 -89 186
	17 267 36 374 49 574
	6 96 -19 134 -77 135
	-80 1 -126 -93 -61 -133
	85 -41 133 101 31 105
	23 17 92 37 90 -92
	-10 -223 -39 -342 -50 -617
	0 -90 0 -162 96 -232
	56 72 63 230 22 289
	-74 106 -257 168 -255 316
	9 153 148 185 252 133
	86 -65 29 -192 -80 -176
	-71 12 -105 67 -59 124"/>
<use id="tclef" transform="translate(0,6) scale(0.045)"
	xlink:href="#utclef"/>
</defs>
<use x="22.00" y="79.00" xlink:href="#tclef"/>
<defs>
<path id="usharp" class="fill" d="
	m136 -702
	v890
	h32
	v-890
	m128 840
	h32
	v-888
	h-32
	m-232 286
	v116
	l338 -96
	v-116
	m-338 442
	v116
	l338 -98
	v-114"/>
<use id="sh0" transform="translate(-4,5) scale(0.018)"
	xlink:href="#usharp"/>
</defs>
<use x="37.00" y="61.00" xlink:href="#sh0"/>
<g style="font:bold 16px serif"
	transform="translate(53.00,84.50) scale(1.2,1)">
	<text text-anchor="middle">4</text>
	<text y="-12" text-anchor="middle">4</text>
</g>
<defs>
<ellipse id="hd" rx="4.1" ry="2.9"
	transform="rotate(-20)" class="fill"/>
</defs>
<use x="72.50" y="79.00" xlink:href="#hd"/>
<path d="M76.00 79.00v-21.00" class="stroke"/>
<use x="100.90" y="76.00" xlink:href="#hd"/>
<path d="M104.40 76.00v-21.00" class="stroke"/>
<use x="129.20" y="73.00" xlink:href="#hd"/>
<path d="M132.70 73.00v-21.00" class="stroke"/>
<use x="157.80" y="70.00" xlink:href="#hd"/>
<path d="M154.30 70.00v21.00" class="stroke"/>
<use x="190.60" y="67.00" xlink:href="#hd"/>
<path d="M187.10 67.00v21.00" class="stroke"/>
<use x="219.20" y="67.00" xlink:href="#hd"/>
<path d="M215.70 67.00v21.00" class="stroke"/>
<defs>
<path id="Hd" class="fill" d="m3 -1.6
	c-1 -1.8 -7 1.4 -6 3.2
	1 1.8 7 -1.4 6 -3.2
	m0.5 -0.3
	c2 3.8 -5 7.6 -7 3.8
	-2 -3.8 5 -7.6 7 -3.8"/>
</defs>
<use x="247.60" y="67.00" xlink:href="#Hd"/>
<path d="M244.10 67.00v21.00" class="stroke"/>
<use x="290.00" y="70.00" xlink:href="#hd"/>
<path d="M286.50 70.00v21.00" class="stroke"/>
<use x="318.40" y="67.00" xlink:href="#hd"/>
<path d="M314.90 67.00v21.00" class="stroke"/>
<use x="346.80" y="64.00" xlink:href="#Hd"/>
<path d="M343.30 64.00v21.00" class="stroke"/>
<use x="389.20" y="67.00" xlink:href="#Hd"/>
<circle class="fill" cx="397.90" cy="64.00" r="1.2"/>
<path d="M385.70 67.00v21.00" class="stroke"/>
<defs>
<path id="r4" class="fill" d="m-1 -8.5
	l3.6 5.1 -2.1 5.2 2.2 4.3
	c-2.6 -2.3 -5.1 0 -2.4 2.6
	-4.8 -3 -1.5 -6.9 1.4 -4.1
	l-3.1 -4.5 1.9 -5.1 -1.5 -3.5"/>
</defs>
<use x="435.20" y="73.00" xlink:href="#r4"/>
<use x="468.00" y="67.00" xlink:href="#hd"/>
<path d="M464.50 67.00v21.00" class="stroke"/>
<use x="496.40" y="67.00" xlink:href="#hd"/>
<path d="M492.90 67.00v21.00" class="stroke"/>
<use x="524.70" y="70.00" xlink:href="#hd"/>
<path d="M521.20 70.00v21.00" class="stroke"/>
<use x="553.10" y="70.00" xlink:href="#hd"/>
<path d="M549.60 70.00v21.00" class="stroke"/>
<use x="586.00" y="73.00" xlink:href="#hd"/>
<path d="M582.50 73.00v21.00" class="stroke"/>
<use x="614.30" y="73.00" xlink:href="#hd"/>
<path d="M610.80 73.00v21.00" class="stroke"/>
<use x="642.90" y="76.00" xlink:href="#Hd"/>
<path d="M646.40 76.00v-21.00" class="stroke"/>
<defs>
<path id="ubclef" class="fill" d="m-200 -87
	c124 -35 222 -78 254 -236
	43 -228 -167 -246 -192 -103
	59 -80 157 22 92 78
	-62 47 -115 -22 -106 -88
	21 -141 270 -136 274 52
	-1 175 -106 264 -322 297
	m357 -250
	c0 -36 51 -34 51 0
	0 37 -51 36 -51 0
	m-2 -129
	c0 -36 51 -34 51 0
	0 38 -51 37 -51 0"/>
<use id="bclef" transform="translate(0,18) scale(0.045)"
	xlink:href="#ubclef"/>
</defs>
<use x="22.00" y="125.00" xlink:href="#bclef"/>
<use x="37.00" y="125.00" xlink:href="#sh0"/>
<g style="font:bold 16px serif"
	transform="translate(53.00,142.50) scale(1.2,1)">
	<text text-anchor="middle">4</text>
	<text y="-12" text-anchor="middle">4</text>
</g>
<defs>
<path id="HD" class="fill" d="m-2.7 -1.4
	c1.5 -2.8 6.9 0 5.3 2.7
	-1.5 2.8 -6.9 0 -5.3 -2.7
	m8.3 1.4
	c0 -1.5 -2.2 -3 -5.6 -3
	-3.4 0 -5.6 1.5 -5.6 3
	0 1.5 2.2 3 5.6 3
	3.4 0 5.6 -1.5 5.6 -3"/>
</defs>
<use x="73.50" y="143.00" xlink:href="#HD"/>
<use x="73.50" y="137.00" xlink:href="#HD"/>
<use x="73.50" y="131.00" xlink:href="#HD"/>
<use x="190.60" y="131.00" xlink:href="#hd"/>
<path d="M194.10 131.00v-21.00" class="stroke"/>
<use x="219.20" y="125.00" xlink:href="#hd"/>
<path d="M215.70 125.00v21.00" class="stroke"/>
<use x="247.60" y="119.00" xlink:href="#Hd"/>
<path d="M244.10 119.00v21.00" class="stroke"/>
<use x="291.00" y="143.00" xlink:href="#HD"/>
<use x="291.00" y="137.00" xlink:href="#HD"/>
<use x="291.00" y="131.00" xlink:href="#HD"/>
<use x="390.20" y="143.00" xlink:href="#HD"/>
<use x="390.20" y="137.00" xlink:href="#HD"/>
<use x="390.20" y="131.00" xlink:href="#HD"/>
<use x="468.00" y="143.00" xlink:href="#hd"/>
<path d="M471.50 143.00v-21.00" class="stroke"/>
<use x="496.40" y="137.00" xlink:href="#hd"/>
<path d="M499.90 137.00v-21.00" class="stroke"/>
<use x="524.70" y="131.00" xlink:href="#hd"/>
<path d="M528.20 131.00v-21.00" class="stroke"/>
<use x="553.10" y="137.00" xlink:href="#hd"/>
<path d="M556.60 137.00v-21.00" class="stroke"/>
<use x="586.00" y="137.00" xlink:href="#hd"/>
<path d="M589.50 137.00v-21.00" class="stroke"/>
<use x="614.30" y="131.00" xlink:href="#hd"/>
<path d="M617.80 131.00v-21.00" class="stroke"/>
<use x="642.90" y="125.00" xlink:href="#hd"/>
<path d="M639.40 125.00v21.00" class="stroke"/>
<use x="671.30" y="131.00" xlink:href="#hd"/>
<path d="M667.80 131.00v21.00" class="stroke"/>
</g>
<g stroke-width="0.70" style="font:bold 13.00px Times">
<path class="stroke" stroke-width="1"
	d="M10.00 273.40v-82.00"/>
<g transform="translate(10.00,191.40) scale(1,0.82)">
	<use xlink:href="#brace"/>
</g>
<path class="stroke" stroke-width="1"
	d="M152.50 215.40v-24.00"/>
<path class="stroke" stroke-width="1"
	d="M152.50 273.40v-24.00"/>
<path class="stroke" stroke-width="1"
	d="M242.00 215.40v-24.00"/>
<path class="stroke" stroke-width="1"
	d="M242.00 273.40v-24.00"/>
<path class="stroke" stroke-width="1"
	d="M376.70 215.40v-24.00"/>
<path class="stroke" stroke-width="1"
	d="M376.70 273.40v-24.00"/>
<path class="stroke" stroke-width="1"
	d="M466.20 215.40v-24.00"/>
<path class="stroke" stroke-width="1"
	d="M466.20 273.40v-24.00"/>
<path class="stroke" stroke-width="1"
	d="M558.40 215.40v-24.00"/>
<path class="stroke" stroke-width="1"
	d="M558.40 273.40v-24.00"/>
<path class="stroke" stroke-width="1"
	d="M691.60 215.40v-24.00"/>
<path class="stroke" stroke-width="1"
	d="M691.60 273.40v-24.00"/>
<path d="m10.00 215.40
	h681.60
	M10.00 209.40
	h681.60
	M10.00 203.40
	h681.60
	M10.00 197.40
	h681.60
	M10.00 191.40
	h681.60
	" class="stroke"/>
<path d="m10.00 273.40
	h681.60
	M10.00 267.40
	h681.60
	M10.00 261.40
	h681.60
	M10.00 255.40
	h681.60
	M10.00 249.40
	h681.60
	" class="stroke"/>
</g>
<g stroke-width="0.70" style="font:bold 13.00px Times">
<text x="49.20" y="175.80">IV</text>
</g>
<g stroke-width="0.70" style="font:bold 13.00px Times">
<text x="164.70" y="181.80">I</text>
</g>
<g stroke-width="0.70" style="font:bold 13.00px Times">
<text x="251.80" y="175.80">vi</text>
</g>
<g stroke-width="0.70" style="font:bold 13.00px Times">
<text x="384.80" y="186.80">V<tspan
	 style="font:italic 11.00px Times">¹</tspan></text>
</g>
<g stroke-width="0.70" style="font:bold 13.00px Times">
<text x="474.30" y="184.80">V<tspan
	 style="font:italic 11.00px Times">⁷</tspan></text>
</g>
<g stroke-width="0.70" style="font:bold 13.00px Times">
<text x="569.10" y="184.80">I</text>
<use x="22.00" y="209.40" xlink:href="#tclef"/>
<use x="37.00" y="191.40" xlink:href="#sh0"/>
<use x="55.00" y="203.40" xlink:href="#hd"/>
<path d="M58.50 203.40v-21.00" class="stroke"/>
<use x="87.60" y="200.40" xlink:href="#hd"/>
<path d="M84.10 200.40v21.00" class="stroke"/>
<use x="120.10" y="206.40" xlink:href="#Hd"/>
<path d="M123.60 206.40v-21.00" class="stroke"/>
<use x="166.50" y="209.40" xlink:href="#Hd"/>
<circle class="fill" cx="175.20" cy="206.40" r="1.2"/>
<path d="M170.00 209.40v-21.00" class="stroke"/>
<use x="219.00" y="203.40" xlink:href="#r4"/>
<use x="256.00" y="203.40" xlink:href="#hd"/>
<path d="M259.50 203.40v-21.00" class="stroke"/>
<use x="288.50" y="206.40" xlink:href="#hd"/>
<path d="M292.00 206.40v-21.00" class="stroke"/>
<use x="321.00" y="203.40" xlink:href="#hd"/>
<path d="M324.50 203.40v-21.00" class="stroke"/>
<use x="353.70" y="200.40" xlink:href="#hd"/>
<path d="M350.20 200.40v21.00" class="stroke"/>
<use x="390.70" y="197.40" xlink:href="#Hd"/>
<circle class="fill" cx="399.40" cy="194.40" r="1.2"/>
<path d="M387.20 197.40v21.00" class="stroke"/>
<use x="443.20" y="200.40" xlink:href="#hd"/>
<path d="M439.70 200.40v21.00" class="stroke"/>
<use x="480.20" y="203.40" xlink:href="#Hd"/>
<path d="M476.70 203.40v21.00" class="stroke"/>
<defs>
<rect id="r2" class="fill"
	x="-3.5" y="-3" width="7" height="3"/>
</defs>
<use x="526.10" y="203.40" xlink:href="#r2"/>
<use x="570.90" y="203.40" xlink:href="#hd"/>
<path d="M567.40 203.40v21.00" class="stroke"/>
<use x="603.40" y="206.40" xlink:href="#hd"/>
<path d="M606.90 206.40v-21.00" class="stroke"/>
<use x="636.00" y="203.40" xlink:href="#hd"/>
<path d="M639.50 203.40v-21.00" class="stroke"/>
<use x="668.60" y="200.40" xlink:href="#hd"/>
<path d="M665.10 200.40v21.00" class="stroke"/>
<use x="22.00" y="255.40" xlink:href="#bclef"/>
<use x="37.00" y="255.40" xlink:href="#sh0"/>
<use x="55.00" y="264.40" xlink:href="#hd"/>
<path d="M58.50 264.40v-21.00" class="stroke"/>
<use x="87.60" y="258.40" xlink:href="#hd"/>
<path d="M84.10 258.40v21.00" class="stroke"/>
<use x="120.10" y="252.40" xlink:href="#Hd"/>
<path d="M116.60 252.40v21.00" class="stroke"/>
<use x="167.50" y="273.40" xlink:href="#HD"/>
<use x="167.50" y="267.40" xlink:href="#HD"/>
<use x="167.50" y="261.40" xlink:href="#HD"/>
<use x="257.00" y="246.40" xlink:href="#HD"/>
<use x="257.00" y="258.40" xlink:href="#HD"/>
<use x="257.00" y="252.40" xlink:href="#HD"/>
<use x="391.70" y="249.40" xlink:href="#HD"/>
<use x="391.70" y="261.40" xlink:href="#HD"/>
<use x="391.70" y="255.40" xlink:href="#HD"/>
<use x="481.20" y="249.40" xlink:href="#HD"/>
<use x="481.20" y="261.40" xlink:href="#HD"/>
<use x="481.20" y="255.40" xlink:href="#HD"/>
<use x="570.90" y="273.40" xlink:href="#hd"/>
<path d="M574.40 273.40v-21.00" class="stroke"/>
<use x="603.40" y="267.40" xlink:href="#hd"/>
<path d="M606.90 267.40v-21.00" class="stroke"/>
<use x="636.00" y="261.40" xlink:href="#hd"/>
<path d="M639.50 261.40v-21.00" class="stroke"/>
<use x="668.60" y="267.40" xlink:href="#hd"/>
<path d="M672.10 267.40v-21.00" class="stroke"/>
</g>
<g stroke-width="0.70" style="font:bold 13.00px Times">
<path class="stroke" stroke-width="1"
	d="M10.00 401.40v-82.00"/>
<g transform="translate(10.00,319.40) scale(1,0.82)">
	<use xlink:href="#brace"/>
</g>
<path class="stroke" stroke-width="1"
	d="M165.30 343.40v-24.00"/>
<path class="stroke" stroke-width="1"
	d="M165.30 401.40v-24.00"/>
<path class="stroke" stroke-width="1"
	d="M288.10 343.40v-24.00"/>
<path class="stroke" stroke-width="1"
	d="M288.10 401.40v-24.00"/>
<path class="stroke" stroke-width="1"
	d="M412.00 343.40v-24.00"/>
<path class="stroke" stroke-width="1"
	d="M412.00 401.40v-24.00"/>
<path class="stroke" stroke-width="1"
	d="M534.90 343.40v-24.00"/>
<path class="stroke" stroke-width="1"
	d="M534.90 401.40v-24.00"/>
<path class="stroke" stroke-width="1"
	d="M636.10 343.40v-24.00"/>
<path class="stroke" stroke-width="1"
	d="M636.10 401.40v-24.00"/>
<path class="stroke" stroke-width="1"
	d="M691.60 343.40v-24.00"/>
<path class="stroke" stroke-width="1"
	d="M691.60 401.40v-24.00"/>
<path d="m10.00 343.40
	h681.60
	M10.00 337.40
	h681.60
	M10.00 331.40
	h681.60
	M10.00 325.40
	h681.60
	M10.00 319.40
	h681.60
	" class="stroke"/>
<path d="m10.00 401.40
	h681.60
	M10.00 395.40
	h681.60
	M10.00 389.40
	h681.60
	M10.00 383.40
	h681.60
	M10.00 377.40
	h681.60
	" class="stroke"/>
</g>
<g stroke-width="0.70" style="font:bold 13.00px Times">
<text x="51.70" y="314.80">I<tspan
	 style="font:italic 11.00px Times">⁷</tspan></text>
</g>
<g stroke-width="0.70" style="font:bold 13.00px Times">
<text x="174.00" y="314.80">vi</text>
</g>
<g stroke-width="0.70" style="font:bold 13.00px Times">
<text x="294.30" y="314.80">IV<tspan
	 style="font:italic 11.00px Times">⁷</tspan></text>
</g>
<g stroke-width="0.70" style="font:bold 13.00px Times">
<text x="419.20" y="309.80">IV</text>
</g>
<g stroke-width="0.70" style="font:bold 13.00px Times">
<text x="543.50" y="312.80">V</text>
</g>
<g stroke-width="0.70" style="font:bold 13.00px Times">
<text x="648.30" y="312.80">I</text>
<use x="22.00" y="337.40" xlink:href="#tclef"/>
<use x="37.00" y="319.40" xlink:href="#sh0"/>
<use x="55.50" y="325.40" xlink:href="#Hd"/>
<circle class="fill" cx="65.20" cy="322.40" r="1.2"/>
<path d="M52.00 325.40v21.00" class="stroke"/>
<use x="144.20" y="328.40" xlink:href="#hd"/>
<path d="M140.70 328.40v21.00" class="stroke"/>
<use x="178.30" y="331.40" xlink:href="#Hd"/>
<path d="M174.80 331.40v21.00" class="stroke"/>
<use x="237.40" y="331.40" xlink:href="#r2"/>
<defs>
<rect id="r1" class="fill"
	x="-3.5" y="-6" width="7" height="3"/>
</defs>
<use x="350.00" y="331.40" xlink:href="#r1"/>
<use x="425.00" y="337.40" xlink:href="#Hd"/>
<path d="M428.50 337.40v-21.00" class="stroke"/>
<use x="484.30" y="322.40" xlink:href="#Hd"/>
<path d="M480.80 322.40v21.00" class="stroke"/>
<use x="547.40" y="325.40" xlink:href="#hd"/>
<path d="M543.90 325.40v21.00" class="stroke"/>
<use x="577.00" y="331.40" xlink:href="#hd"/>
<path d="M573.50 331.40v21.00" class="stroke"/>
<use x="606.60" y="334.40" xlink:href="#Hd"/>
<path d="M610.10 334.40v-21.00" class="stroke"/>
<use x="651.10" y="337.40" xlink:href="#HD"/>
<use x="22.00" y="383.40" xlink:href="#bclef"/>
<use x="37.00" y="383.40" xlink:href="#sh0"/>
<use x="55.50" y="401.40" xlink:href="#hd"/>
<path d="M59.00 401.40v-21.00" class="stroke"/>
<use x="85.10" y="395.40" xlink:href="#hd"/>
<path d="M88.60 395.40v-21.00" class="stroke"/>
<use x="114.60" y="389.40" xlink:href="#hd"/>
<path d="M118.10 389.40v-21.00" class="stroke"/>
<use x="144.20" y="395.40" xlink:href="#hd"/>
<path d="M147.70 395.40v-21.00" class="stroke"/>
<use x="178.30" y="386.40" xlink:href="#hd"/>
<path d="M174.80 386.40v21.00" class="stroke"/>
<use x="207.90" y="380.40" xlink:href="#hd"/>
<path d="M204.40 380.40v21.00" class="stroke"/>
<use x="237.40" y="374.40" xlink:href="#hd"/>
<path d="M233.90 374.40v21.00" class="stroke"/>
<use x="267.00" y="380.40" xlink:href="#hd"/>
<path d="M263.50 380.40v21.00" class="stroke"/>
<use x="302.10" y="392.40" xlink:href="#hd"/>
<path d="M305.60 392.40v-21.00" class="stroke"/>
<use x="331.80" y="386.40" xlink:href="#hd"/>
<path d="M328.30 386.40v21.00" class="stroke"/>
<use x="361.40" y="380.40" xlink:href="#hd"/>
<path d="M357.90 380.40v21.00" class="stroke"/>
<use x="390.90" y="386.40" xlink:href="#hd"/>
<path d="M387.40 386.40v21.00" class="stroke"/>
<use x="425.00" y="392.40" xlink:href="#hd"/>
<path d="M428.50 392.40v-21.00" class="stroke"/>
<use x="454.70" y="386.40" xlink:href="#hd"/>
<path d="M451.20 386.40v21.00" class="stroke"/>
<use x="484.30" y="380.40" xlink:href="#hd"/>
<path d="M480.80 380.40v21.00" class="stroke"/>
<use x="513.90" y="386.40" xlink:href="#hd"/>
<path d="M510.40 386.40v21.00" class="stroke"/>
<use x="547.40" y="389.40" xlink:href="#hd"/>
<path d="M543.90 389.40v21.00" class="stroke"/>
<use x="577.00" y="383.40" xlink:href="#hd"/>
<path d="M573.50 383.40v21.00" class="stroke"/>
<use x="606.60" y="377.40" xlink:href="#Hd"/>
<path d="M603.10 377.40v21.00" class="stroke"/>
<use x="651.10" y="401.40" xlink:href="#HD"/>
<use x="651.10" y="395.40" xlink:href="#HD"/>
<use x="651.10" y="389.40" xlink:href="#HD"/>
</g>
</svg>
