<?xml version="1.0" standalone="no"?>
<!DOCTYPE svg PUBLIC "-//W3C//DTD SVG 1.1//EN"
	"http://www.w3.org/Graphics/SVG/1.1/DTD/svg11.dtd">
<svg xmlns="http://www.w3.org/2000/svg" version="1.1"
	xmlns:xlink="http://www.w3.org/1999/xlink"
	color="black"
	width="701.60px" height="296.40px" viewBox="0 0 701.60 296.40" preserveAspectRatio="xMidYMid meet">
<style type="text/css">
.fill {fill: currentColor}
.stroke {stroke: currentColor; fill: none}
text{white-space: pre}
</style>
<title>/tmp/retab_hymnal_L4/let_children_hear_the_mighty_deeds.abc (1) tune 1</title>
<!-- Creator: abcm2ps-8.14.11 -->
<!-- CreationDate: Apr 24, 2026 15:38 -->
<!-- CommandLine: /tmp/retab_hymnal_L4/let_children_hear_the_mighty_deeds.abc -g -O /tmp/retab_hymnal_L4/let_children_hear_the_mighty_deeds -->
<g stroke-width="0.70">
<!-- title: 136. Let Children Hear The Mighty Deeds -->
</g>
<g stroke-width="0.70" style="font:20.00px Times">
<text x="350.80" y="22.00" text-anchor="middle">136. Let Children Hear The Mighty Deeds</text>
</g>
<g stroke-width="0.70" style="font:20.00px Times">
<path class="stroke" stroke-width="1"
	d="M10.00 145.40v-82.00"/>
<defs>
<path id="brace" class="fill" d="m-2.5 101
	c-4.5 -4.6 -7.5 -12.2 -4.4 -26.8
	3.5 -14.3 3.2 -21.7 -2.1 -24.2
	7.4 2.4 7.3 14.2 3.5 29.5
	-2.7 9.5 -1.5 16.2 3 21.5
	M-2.5 1c-4.5 4.6 -7.5 12.2 -4.4 26.8
	c3.5 14.3 3.2 21.7 -2.1 24.2
	7.4 -2.4 7.3 -14.2 3.5 -29.5
	-2.7 -9.5 -1.5 -16.2 3 -21.5"/>
</defs>
<g transform="translate(10.00,63.40) scale(1,0.82)">
	<use xlink:href="#brace"/>
</g>
<path class="stroke" stroke-width="1"
	d="M176.70 87.40v-24.00"/>
<path class="stroke" stroke-width="1"
	d="M176.70 145.40v-24.00"/>
<path class="stroke" stroke-width="1"
	d="M285.20 87.40v-24.00"/>
<path class="stroke" stroke-width="1"
	d="M285.20 145.40v-24.00"/>
<path class="stroke" stroke-width="1"
	d="M392.20 87.40v-24.00"/>
<path class="stroke" stroke-width="1"
	d="M392.20 145.40v-24.00"/>
<path class="stroke" stroke-width="1"
	d="M461.90 87.40v-24.00"/>
<path class="stroke" stroke-width="1"
	d="M461.90 145.40v-24.00"/>
<path class="stroke" stroke-width="1"
	d="M582.20 87.40v-24.00"/>
<path class="stroke" stroke-width="1"
	d="M582.20 145.40v-24.00"/>
<path class="stroke" stroke-width="1"
	d="M691.60 87.40v-24.00"/>
<path class="stroke" stroke-width="1"
	d="M691.60 145.40v-24.00"/>
<path d="m10.00 87.40
	h681.60
	M10.00 81.40
	h681.60
	M10.00 75.40
	h681.60
	M10.00 69.40
	h681.60
	M10.00 63.40
	h681.60
	" class="stroke"/>
<path d="m10.00 145.40
	h681.60
	M10.00 139.40
	h681.60
	M10.00 133.40
	h681.60
	M10.00 127.40
	h681.60
	M10.00 121.40
	h681.60
	" class="stroke"/>
</g>
<g stroke-width="0.70" style="font:bold 13.00px Times">
<text x="81.70" y="58.80">I</text>
</g>
<g stroke-width="0.70" style="font:bold 13.00px Times">
<text x="185.50" y="58.80">I<tspan
	 style="font:italic 11.00px Times">¹</tspan></text>
</g>
<g stroke-width="0.70" style="font:bold 13.00px Times">
<text x="293.30" y="56.80">V<tspan
	 style="font:italic 11.00px Times">¹</tspan></text>
</g>
<g stroke-width="0.70" style="font:bold 13.00px Times">
<text x="402.20" y="56.80">V</text>
</g>
<g stroke-width="0.70" style="font:bold 13.00px Times">
<text x="472.60" y="47.80">I</text>
</g>
<g stroke-width="0.70" style="font:bold 13.00px Times">
<text x="592.50" y="50.80">I<tspan
	 style="font:italic 11.00px Times">¹</tspan></text>
</g>
<g stroke-width="0.70" style="font:italic 11.00px Times">
<defs>
<path id="utclef" class="fill" d="m-50 -90
	c-72 -41 -72 -158 52 -188
	150 -10 220 188 90 256
	-114 52 -275 0 -293 -136
	-15 -181 93 -229 220 -334
	88 -87 79 -133 62 -210
	-51 33 -94 105 -89 186
	17 267 36 374 49 574
	6 96 -19 134 -77 135
	-80 1 -126 -93 -61 -133
	85 -41 133 101 31 105
	23 17 92 37 90 -92
	-10 -223 -39 -342 -50 -617
	0 -90 0 -162 96 -232
	56 72 63 230 22 289
	-74 106 -257 168 -255 316
	9 153 148 185 252 133
	86 -65 29 -192 -80 -176
	-71 12 -105 67 -59 124"/>
<use id="tclef" transform="translate(0,6) scale(0.045)"
	xlink:href="#utclef"/>
</defs>
<use x="22.00" y="81.40" xlink:href="#tclef"/>
<defs>
<path id="usharp" class="fill" d="
	m136 -702
	v890
	h32
	v-890
	m128 840
	h32
	v-888
	h-32
	m-232 286
	v116
	l338 -96
	v-116
	m-338 442
	v116
	l338 -98
	v-114"/>
<use id="sh0" transform="translate(-4,5) scale(0.018)"
	xlink:href="#usharp"/>
</defs>
<use x="37.00" y="63.40" xlink:href="#sh0"/>
<use x="42.50" y="72.40" xlink:href="#sh0"/>
<use x="48.00" y="60.40" xlink:href="#sh0"/>
<g style="font:bold 16px serif"
	transform="translate(64.00,86.90) scale(1.2,1)">
	<text text-anchor="middle">4</text>
	<text y="-12" text-anchor="middle">4</text>
</g>
<defs>
<ellipse id="hd" rx="4.1" ry="2.9"
	transform="rotate(-20)" class="fill"/>
</defs>
<use x="83.50" y="87.40" xlink:href="#hd"/>
<path d="M87.00 87.40v-21.00" class="stroke"/>
<use x="109.40" y="72.40" xlink:href="#hd"/>
<path d="M105.90 72.40v21.00" class="stroke"/>
<use x="132.50" y="78.40" xlink:href="#hd"/>
<path d="M136.00 78.40v-21.00" class="stroke"/>
<use x="158.10" y="84.40" xlink:href="#hd"/>
<path d="M161.60 84.40v-21.00" class="stroke"/>
<use x="189.20" y="87.40" xlink:href="#hd"/>
<path d="M192.70 87.40v-21.00" class="stroke"/>
<use x="214.80" y="78.40" xlink:href="#hd"/>
<path d="M218.30 78.40v-21.00" class="stroke"/>
<use x="240.70" y="75.40" xlink:href="#hd"/>
<path d="M244.20 75.40v-21.00" class="stroke"/>
<use x="266.60" y="72.40" xlink:href="#hd"/>
<path d="M263.10 72.40v21.00" class="stroke"/>
<use x="299.20" y="66.40" xlink:href="#hd"/>
<path d="M295.70 66.40v21.00" class="stroke"/>
<use x="324.80" y="72.40" xlink:href="#hd"/>
<path d="M321.30 72.40v21.00" class="stroke"/>
<use x="347.90" y="78.40" xlink:href="#hd"/>
<path d="M351.40 78.40v-21.00" class="stroke"/>
<use x="373.50" y="84.40" xlink:href="#hd"/>
<path d="M377.00 84.40v-21.00" class="stroke"/>
<use x="406.20" y="84.40" xlink:href="#hd"/>
<path d="M409.70 84.40v-21.00" class="stroke"/>
<defs>
<path id="Hd" class="fill" d="m3 -1.6
	c-1 -1.8 -7 1.4 -6 3.2
	1 1.8 7 -1.4 6 -3.2
	m0.5 -0.3
	c2 3.8 -5 7.6 -7 3.8
	-2 -3.8 5 -7.6 7 -3.8"/>
</defs>
<use x="431.80" y="87.40" xlink:href="#Hd"/>
<circle class="fill" cx="440.50" cy="84.40" r="1.2"/>
<path d="M435.30 87.40v-21.00" class="stroke"/>
<use x="474.40" y="75.40" xlink:href="#hd"/>
<path d="M477.90 75.40v-21.00" class="stroke"/>
<path class="fill"
	d="M477.90 54.40c0.6 5.6 9.6 9 5.6 18.4
	1.6 -6 -1.3 -11.6 -5.6 -12.8
"/>
<use x="493.70" y="72.40" xlink:href="#hd"/>
<path d="M490.20 72.40v21.00" class="stroke"/>
<path class="fill"
	d="M490.20 93.40c0.6 -5.6 9.6 -9 5.6 -18.4
	1.6 6 -1.3 11.6 -5.6 12.8
"/>
<use x="512.10" y="69.40" xlink:href="#hd"/>
<path d="M508.60 69.40v21.00" class="stroke"/>
<use x="538.00" y="69.40" xlink:href="#hd"/>
<path d="M534.50 69.40v21.00" class="stroke"/>
<use x="563.60" y="72.40" xlink:href="#hd"/>
<path d="M560.10 72.40v21.00" class="stroke"/>
<use x="596.20" y="78.40" xlink:href="#hd"/>
<path d="M599.70 78.40v-21.00" class="stroke"/>
<use x="621.80" y="84.40" xlink:href="#hd"/>
<path d="M625.30 84.40v-21.00" class="stroke"/>
<use x="647.40" y="75.40" xlink:href="#hd"/>
<path d="M650.90 75.40v-21.00" class="stroke"/>
<use x="672.90" y="81.40" xlink:href="#hd"/>
<path d="M676.40 81.40v-21.00" class="stroke"/>
<defs>
<path id="ubclef" class="fill" d="m-200 -87
	c124 -35 222 -78 254 -236
	43 -228 -167 -246 -192 -103
	59 -80 157 22 92 78
	-62 47 -115 -22 -106 -88
	21 -141 270 -136 274 52
	-1 175 -106 264 -322 297
	m357 -250
	c0 -36 51 -34 51 0
	0 37 -51 36 -51 0
	m-2 -129
	c0 -36 51 -34 51 0
	0 38 -51 37 -51 0"/>
<use id="bclef" transform="translate(0,18) scale(0.045)"
	xlink:href="#ubclef"/>
</defs>
<use x="22.00" y="127.40" xlink:href="#bclef"/>
<use x="37.00" y="127.40" xlink:href="#sh0"/>
<use x="42.50" y="136.40" xlink:href="#sh0"/>
<use x="48.00" y="124.40" xlink:href="#sh0"/>
<g style="font:bold 16px serif"
	transform="translate(64.00,144.90) scale(1.2,1)">
	<text text-anchor="middle">4</text>
	<text y="-12" text-anchor="middle">4</text>
</g>
<defs>
<path id="HD" class="fill" d="m-2.7 -1.4
	c1.5 -2.8 6.9 0 5.3 2.7
	-1.5 2.8 -6.9 0 -5.3 -2.7
	m8.3 1.4
	c0 -1.5 -2.2 -3 -5.6 -3
	-3.4 0 -5.6 1.5 -5.6 3
	0 1.5 2.2 3 5.6 3
	3.4 0 5.6 -1.5 5.6 -3"/>
</defs>
<use x="84.50" y="142.40" xlink:href="#HD"/>
<use x="84.50" y="136.40" xlink:href="#HD"/>
<use x="84.50" y="130.40" xlink:href="#HD"/>
<use x="189.20" y="142.40" xlink:href="#hd"/>
<path d="M192.70 142.40v-21.00" class="stroke"/>
<use x="214.80" y="136.40" xlink:href="#hd"/>
<path d="M218.30 136.40v-21.00" class="stroke"/>
<use x="240.70" y="130.40" xlink:href="#Hd"/>
<path d="M237.20 130.40v21.00" class="stroke"/>
<use x="300.20" y="118.40" xlink:href="#HD"/>
<use x="300.20" y="130.40" xlink:href="#HD"/>
<use x="300.20" y="124.40" xlink:href="#HD"/>
<use x="407.20" y="118.40" xlink:href="#HD"/>
<use x="407.20" y="130.40" xlink:href="#HD"/>
<use x="407.20" y="124.40" xlink:href="#HD"/>
<use x="474.40" y="142.40" xlink:href="#hd"/>
<path d="M477.90 142.40v-21.00" class="stroke"/>
<use x="512.10" y="136.40" xlink:href="#hd"/>
<path d="M515.60 136.40v-21.00" class="stroke"/>
<use x="538.00" y="130.40" xlink:href="#Hd"/>
<path d="M534.50 130.40v21.00" class="stroke"/>
<use x="597.20" y="142.40" xlink:href="#HD"/>
<use x="597.20" y="136.40" xlink:href="#HD"/>
<use x="597.20" y="130.40" xlink:href="#HD"/>
</g>
<g stroke-width="0.70" style="font:italic 11.00px Times">
<path class="stroke" stroke-width="1"
	d="M10.00 273.40v-82.00"/>
<g transform="translate(10.00,191.40) scale(1,0.82)">
	<use xlink:href="#brace"/>
</g>
<path class="stroke" stroke-width="1"
	d="M232.10 215.40v-24.00"/>
<path class="stroke" stroke-width="1"
	d="M232.10 273.40v-24.00"/>
<path class="stroke" stroke-width="1"
	d="M331.30 215.40v-24.00"/>
<path class="stroke" stroke-width="1"
	d="M331.30 273.40v-24.00"/>
<path d="m10.00 215.40
	h321.30
	M10.00 209.40
	h321.30
	M10.00 203.40
	h321.30
	M10.00 197.40
	h321.30
	M10.00 191.40
	h321.30
	" class="stroke"/>
<path d="m10.00 273.40
	h321.30
	M10.00 267.40
	h321.30
	M10.00 261.40
	h321.30
	M10.00 255.40
	h321.30
	M10.00 249.40
	h321.30
	" class="stroke"/>
</g>
<g stroke-width="0.70" style="font:bold 13.00px Times">
<text x="61.60" y="185.80">V<tspan
	 style="font:italic 11.00px Times">¹</tspan></text>
</g>
<g stroke-width="0.70" style="font:bold 13.00px Times">
<text x="244.40" y="181.80">I</text>
<use x="22.00" y="209.40" xlink:href="#tclef"/>
<use x="37.00" y="191.40" xlink:href="#sh0"/>
<use x="42.50" y="200.40" xlink:href="#sh0"/>
<use x="48.00" y="188.40" xlink:href="#sh0"/>
<use x="67.50" y="194.40" xlink:href="#hd"/>
<path d="M64.00 194.40v21.00" class="stroke"/>
<path class="fill"
	d="M64.00 215.40c0.6 -5.6 9.6 -9 5.6 -18.4
	1.6 6 -1.3 11.6 -5.6 12.8
"/>
<use x="95.80" y="197.40" xlink:href="#hd"/>
<path d="M92.30 197.40v21.00" class="stroke"/>
<path class="fill"
	d="M92.30 218.40c0.6 -5.6 9.6 -9 5.6 -18.4
	1.6 6 -1.3 11.6 -5.6 12.8
"/>
<use x="124.10" y="200.40" xlink:href="#hd"/>
<path d="M120.60 200.40v21.00" class="stroke"/>
<use x="164.10" y="200.40" xlink:href="#hd"/>
<path d="M160.60 200.40v21.00" class="stroke"/>
<use x="204.10" y="203.40" xlink:href="#hd"/>
<path d="M200.60 203.40v21.00" class="stroke"/>
<use x="246.20" y="209.40" xlink:href="#hd"/>
<path d="M249.70 209.40v-21.00" class="stroke"/>
<use x="286.20" y="206.40" xlink:href="#Hd"/>
<circle class="fill" cx="294.90" cy="206.40" r="1.2"/>
<path d="M289.70 206.40v-21.00" class="stroke"/>
<use x="22.00" y="255.40" xlink:href="#bclef"/>
<use x="37.00" y="255.40" xlink:href="#sh0"/>
<use x="42.50" y="264.40" xlink:href="#sh0"/>
<use x="48.00" y="252.40" xlink:href="#sh0"/>
<use x="68.50" y="246.40" xlink:href="#HD"/>
<use x="68.50" y="258.40" xlink:href="#HD"/>
<use x="68.50" y="252.40" xlink:href="#HD"/>
<use x="247.20" y="270.40" xlink:href="#HD"/>
<use x="247.20" y="264.40" xlink:href="#HD"/>
<use x="247.20" y="258.40" xlink:href="#HD"/>
</g>
</svg>
