<?xml version="1.0" standalone="no"?>
<!DOCTYPE svg PUBLIC "-//W3C//DTD SVG 1.1//EN"
	"http://www.w3.org/Graphics/SVG/1.1/DTD/svg11.dtd">
<svg xmlns="http://www.w3.org/2000/svg" version="1.1"
	xmlns:xlink="http://www.w3.org/1999/xlink"
	color="black"
	width="701.60px" height="422.00px" viewBox="0 0 701.60 422.00" preserveAspectRatio="xMidYMid meet">
<style type="text/css">
.fill {fill: currentColor}
.stroke {stroke: currentColor; fill: none}
text{white-space: pre}
</style>
<title>/tmp/retab_hymnal_L4/lo_how_a_rose_e_er_blooming.abc (1) tune 1</title>
<!-- Creator: abcm2ps-8.14.11 -->
<!-- CreationDate: Apr 24, 2026 15:38 -->
<!-- CommandLine: /tmp/retab_hymnal_L4/lo_how_a_rose_e_er_blooming.abc -g -O /tmp/retab_hymnal_L4/lo_how_a_rose_e_er_blooming -->
<g stroke-width="0.70">
<!-- title: 142. Lo, How A Rose E'er Blooming -->
</g>
<g stroke-width="0.70" style="font:20.00px Times">
<text x="350.80" y="22.00" text-anchor="middle">142. Lo, How A Rose E&apos;er Blooming</text>
</g>
<g stroke-width="0.70" style="font:20.00px Times">
<path class="stroke" stroke-width="1"
	d="M10.00 143.00v-82.00"/>
<defs>
<path id="brace" class="fill" d="m-2.5 101
	c-4.5 -4.6 -7.5 -12.2 -4.4 -26.8
	3.5 -14.3 3.2 -21.7 -2.1 -24.2
	7.4 2.4 7.3 14.2 3.5 29.5
	-2.7 9.5 -1.5 16.2 3 21.5
	M-2.5 1c-4.5 4.6 -7.5 12.2 -4.4 26.8
	c3.5 14.3 3.2 21.7 -2.1 24.2
	7.4 -2.4 7.3 -14.2 3.5 -29.5
	-2.7 -9.5 -1.5 -16.2 3 -21.5"/>
</defs>
<g transform="translate(10.00,61.00) scale(1,0.82)">
	<use xlink:href="#brace"/>
</g>
<path class="stroke" stroke-width="1"
	d="M164.20 85.00v-24.00"/>
<path class="stroke" stroke-width="1"
	d="M164.20 143.00v-24.00"/>
<path class="stroke" stroke-width="1"
	d="M286.00 85.00v-24.00"/>
<path class="stroke" stroke-width="1"
	d="M286.00 143.00v-24.00"/>
<path class="stroke" stroke-width="1"
	d="M387.10 85.00v-24.00"/>
<path class="stroke" stroke-width="1"
	d="M387.10 143.00v-24.00"/>
<path class="stroke" stroke-width="1"
	d="M521.60 85.00v-24.00"/>
<path class="stroke" stroke-width="1"
	d="M521.60 143.00v-24.00"/>
<path class="stroke" stroke-width="1"
	d="M598.90 85.00v-24.00"/>
<path class="stroke" stroke-width="1"
	d="M598.90 143.00v-24.00"/>
<path class="stroke" stroke-width="1"
	d="M691.60 85.00v-24.00"/>
<path class="stroke" stroke-width="1"
	d="M691.60 143.00v-24.00"/>
<path d="m10.00 85.00
	h681.60
	M10.00 79.00
	h681.60
	M10.00 73.00
	h681.60
	M10.00 67.00
	h681.60
	M10.00 61.00
	h681.60
	" class="stroke"/>
<path d="m10.00 143.00
	h681.60
	M10.00 137.00
	h681.60
	M10.00 131.00
	h681.60
	M10.00 125.00
	h681.60
	M10.00 119.00
	h681.60
	" class="stroke"/>
</g>
<g stroke-width="0.70" style="font:bold 13.00px Times">
<text x="70.70" y="56.40">I</text>
</g>
<g stroke-width="0.70" style="font:bold 13.00px Times">
<text x="172.70" y="54.40">V</text>
</g>
<g stroke-width="0.70" style="font:bold 13.00px Times">
<text x="294.70" y="48.40">vi</text>
</g>
<g stroke-width="0.70" style="font:bold 13.00px Times">
<text x="399.30" y="48.40">I</text>
</g>
<g stroke-width="0.70" style="font:bold 13.00px Times">
<text x="531.90" y="56.40">I<tspan
	 style="font:italic 11.00px Times">²</tspan></text>
</g>
<g stroke-width="0.70" style="font:bold 13.00px Times">
<text x="610.10" y="54.40">I</text>
<defs>
<path id="utclef" class="fill" d="m-50 -90
	c-72 -41 -72 -158 52 -188
	150 -10 220 188 90 256
	-114 52 -275 0 -293 -136
	-15 -181 93 -229 220 -334
	88 -87 79 -133 62 -210
	-51 33 -94 105 -89 186
	17 267 36 374 49 574
	6 96 -19 134 -77 135
	-80 1 -126 -93 -61 -133
	85 -41 133 101 31 105
	23 17 92 37 90 -92
	-10 -223 -39 -342 -50 -617
	0 -90 0 -162 96 -232
	56 72 63 230 22 289
	-74 106 -257 168 -255 316
	9 153 148 185 252 133
	86 -65 29 -192 -80 -176
	-71 12 -105 67 -59 124"/>
<use id="tclef" transform="translate(0,6) scale(0.045)"
	xlink:href="#utclef"/>
</defs>
<use x="22.00" y="79.00" xlink:href="#tclef"/>
<defs>
<path id="uflat" class="fill" d="
	m100 -746
	h32
	v734
	l-32 4
	m32 -332
	c46 -72 152 -90 208 -20
	100 110 -120 326 -208 348
	m0 -28
	c54 0 200 -206 130 -290
	-50 -60 -130 -4 -130 34"/>
<use id="ft0" transform="translate(-3.5,3.5) scale(0.018)"
	xlink:href="#uflat"/>
</defs>
<use x="37.00" y="73.00" xlink:href="#ft0"/>
<g style="font:bold 16px serif"
	transform="translate(53.00,84.50) scale(1.2,1)">
	<text text-anchor="middle">4</text>
	<text y="-12" text-anchor="middle">4</text>
</g>
<defs>
<path id="Hd" class="fill" d="m3 -1.6
	c-1 -1.8 -7 1.4 -6 3.2
	1 1.8 7 -1.4 6 -3.2
	m0.5 -0.3
	c2 3.8 -5 7.6 -7 3.8
	-2 -3.8 5 -7.6 7 -3.8"/>
</defs>
<use x="72.50" y="70.00" xlink:href="#Hd"/>
<path d="M69.00 70.00v21.00" class="stroke"/>
<defs>
<ellipse id="hd" rx="4.1" ry="2.9"
	transform="rotate(-20)" class="fill"/>
</defs>
<use x="113.80" y="70.00" xlink:href="#hd"/>
<path d="M110.30 70.00v21.00" class="stroke"/>
<use x="143.20" y="70.00" xlink:href="#hd"/>
<path d="M139.70 70.00v21.00" class="stroke"/>
<use x="176.70" y="67.00" xlink:href="#hd"/>
<path d="M173.20 67.00v21.00" class="stroke"/>
<use x="206.20" y="70.00" xlink:href="#hd"/>
<path d="M202.70 70.00v21.00" class="stroke"/>
<use x="235.60" y="70.00" xlink:href="#Hd"/>
<path d="M232.10 70.00v21.00" class="stroke"/>
<use x="299.00" y="76.00" xlink:href="#Hd"/>
<path d="M302.50 76.00v-21.00" class="stroke"/>
<use x="357.70" y="73.00" xlink:href="#Hd"/>
<path d="M361.20 73.00v-21.00" class="stroke"/>
<use x="401.10" y="76.00" xlink:href="#hd"/>
<path d="M404.60 76.00v-21.00" class="stroke"/>
<use x="430.50" y="79.00" xlink:href="#Hd"/>
<path d="M434.00 79.00v-21.00" class="stroke"/>
<use x="471.90" y="82.00" xlink:href="#Hd"/>
<path d="M475.40 82.00v-21.00" class="stroke"/>
<use x="535.60" y="85.00" xlink:href="#hd"/>
<path d="M539.10 85.00v-21.00" class="stroke"/>
<use x="565.00" y="82.00" xlink:href="#Hd"/>
<circle class="fill" cx="573.70" cy="82.00" r="1.2"/>
<path d="M568.50 82.00v-21.00" class="stroke"/>
<use x="611.90" y="70.00" xlink:href="#Hd"/>
<path d="M608.40 70.00v21.00" class="stroke"/>
<use x="670.60" y="70.00" xlink:href="#hd"/>
<path d="M667.10 70.00v21.00" class="stroke"/>
<defs>
<path id="ubclef" class="fill" d="m-200 -87
	c124 -35 222 -78 254 -236
	43 -228 -167 -246 -192 -103
	59 -80 157 22 92 78
	-62 47 -115 -22 -106 -88
	21 -141 270 -136 274 52
	-1 175 -106 264 -322 297
	m357 -250
	c0 -36 51 -34 51 0
	0 37 -51 36 -51 0
	m-2 -129
	c0 -36 51 -34 51 0
	0 38 -51 37 -51 0"/>
<use id="bclef" transform="translate(0,18) scale(0.045)"
	xlink:href="#ubclef"/>
</defs>
<use x="22.00" y="125.00" xlink:href="#bclef"/>
<use x="37.00" y="137.00" xlink:href="#ft0"/>
<g style="font:bold 16px serif"
	transform="translate(53.00,142.50) scale(1.2,1)">
	<text text-anchor="middle">4</text>
	<text y="-12" text-anchor="middle">4</text>
</g>
<defs>
<path id="HD" class="fill" d="m-2.7 -1.4
	c1.5 -2.8 6.9 0 5.3 2.7
	-1.5 2.8 -6.9 0 -5.3 -2.7
	m8.3 1.4
	c0 -1.5 -2.2 -3 -5.6 -3
	-3.4 0 -5.6 1.5 -5.6 3
	0 1.5 2.2 3 5.6 3
	3.4 0 5.6 -1.5 5.6 -3"/>
</defs>
<use x="73.50" y="146.00" xlink:href="#HD"/>
<use x="73.50" y="140.00" xlink:href="#HD"/>
<use x="73.50" y="134.00" xlink:href="#HD"/>
<use x="176.70" y="134.00" xlink:href="#hd"/>
<path d="M180.20 134.00v-21.00" class="stroke"/>
<use x="206.20" y="128.00" xlink:href="#hd"/>
<path d="M202.70 128.00v21.00" class="stroke"/>
<use x="235.60" y="122.00" xlink:href="#hd"/>
<path d="M232.10 122.00v21.00" class="stroke"/>
<use x="265.00" y="128.00" xlink:href="#hd"/>
<path d="M261.50 128.00v21.00" class="stroke"/>
<use x="299.00" y="131.00" xlink:href="#hd"/>
<path d="M295.50 131.00v21.00" class="stroke"/>
<use x="328.30" y="125.00" xlink:href="#hd"/>
<path d="M324.80 125.00v21.00" class="stroke"/>
<use x="357.70" y="119.00" xlink:href="#Hd"/>
<path d="M354.20 119.00v21.00" class="stroke"/>
<use x="402.10" y="146.00" xlink:href="#HD"/>
<use x="402.10" y="140.00" xlink:href="#HD"/>
<use x="402.10" y="134.00" xlink:href="#HD"/>
<use x="500.70" y="146.00" xlink:href="#hd"/>
<path d="M504.20 146.00v-31.00" class="stroke"/>
<use x="500.70" y="140.00" xlink:href="#hd"/>
<use x="500.70" y="134.00" xlink:href="#hd"/>
<use x="536.60" y="146.00" xlink:href="#HD"/>
<use x="536.60" y="140.00" xlink:href="#HD"/>
<use x="536.60" y="134.00" xlink:href="#HD"/>
<use x="611.90" y="146.00" xlink:href="#hd"/>
<path d="M615.40 146.00v-21.00" class="stroke"/>
<use x="641.30" y="140.00" xlink:href="#hd"/>
<path d="M644.80 140.00v-21.00" class="stroke"/>
<use x="670.60" y="134.00" xlink:href="#hd"/>
<path d="M674.10 134.00v-21.00" class="stroke"/>
<path class="fill"
	d="M404.60 146.00c12.39 6.17 80.16 6.17 92.55 -0.00
	v0.29c-15.16 7.87 -77.38 7.87 -92.55 -0.29"/>
<path class="fill"
	d="M404.60 140.00c12.39 6.17 80.16 6.17 92.55 -0.00
	v0.29c-15.16 7.87 -77.38 7.87 -92.55 -0.29"/>
<path class="fill"
	d="M404.60 134.00c12.39 -6.17 80.16 -6.17 92.55 -0.00
	v-0.29c-15.16 -7.87 -77.38 -7.87 -92.55 0.29"/>
</g>
<g stroke-width="0.70" style="font:bold 13.00px Times">
<path class="stroke" stroke-width="1"
	d="M10.00 271.00v-82.00"/>
<g transform="translate(10.00,189.00) scale(1,0.82)">
	<use xlink:href="#brace"/>
</g>
<path class="stroke" stroke-width="1"
	d="M202.40 213.00v-24.00"/>
<path class="stroke" stroke-width="1"
	d="M202.40 271.00v-24.00"/>
<path class="stroke" stroke-width="1"
	d="M305.20 213.00v-24.00"/>
<path class="stroke" stroke-width="1"
	d="M305.20 271.00v-24.00"/>
<path class="stroke" stroke-width="1"
	d="M391.90 213.00v-24.00"/>
<path class="stroke" stroke-width="1"
	d="M391.90 271.00v-24.00"/>
<path class="stroke" stroke-width="1"
	d="M615.60 213.00v-24.00"/>
<path class="stroke" stroke-width="1"
	d="M615.60 271.00v-24.00"/>
<path class="stroke" stroke-width="1"
	d="M691.60 213.00v-24.00"/>
<path class="stroke" stroke-width="1"
	d="M691.60 271.00v-24.00"/>
<path d="m10.00 213.00
	h681.60
	M10.00 207.00
	h681.60
	M10.00 201.00
	h681.60
	M10.00 195.00
	h681.60
	M10.00 189.00
	h681.60
	" class="stroke"/>
<path d="m10.00 271.00
	h681.60
	M10.00 265.00
	h681.60
	M10.00 259.00
	h681.60
	M10.00 253.00
	h681.60
	M10.00 247.00
	h681.60
	" class="stroke"/>
</g>
<g stroke-width="0.70" style="font:bold 13.00px Times">
<text x="53.20" y="184.40">I</text>
</g>
<g stroke-width="0.70" style="font:bold 13.00px Times">
<text x="212.50" y="176.40">V</text>
</g>
<g stroke-width="0.70" style="font:bold 13.00px Times">
<text x="312.60" y="176.40">IV</text>
</g>
<g stroke-width="0.70" style="font:bold 13.00px Times">
<text x="400.80" y="182.40">vi</text>
</g>
<g stroke-width="0.70" style="font:bold 13.00px Times">
<text x="627.00" y="176.40">I</text>
<use x="22.00" y="207.00" xlink:href="#tclef"/>
<use x="37.00" y="201.00" xlink:href="#ft0"/>
<use x="55.00" y="198.00" xlink:href="#hd"/>
<path d="M51.50 198.00v21.00" class="stroke"/>
<use x="91.90" y="195.00" xlink:href="#hd"/>
<path d="M88.40 195.00v21.00" class="stroke"/>
<use x="128.90" y="198.00" xlink:href="#hd"/>
<path d="M125.40 198.00v21.00" class="stroke"/>
<use x="165.80" y="198.00" xlink:href="#Hd"/>
<path d="M162.30 198.00v21.00" class="stroke"/>
<use x="216.40" y="204.00" xlink:href="#Hd"/>
<path d="M219.90 204.00v-21.00" class="stroke"/>
<use x="268.60" y="201.00" xlink:href="#Hd"/>
<path d="M272.10 201.00v-21.00" class="stroke"/>
<use x="318.40" y="204.00" xlink:href="#hd"/>
<path d="M321.90 204.00v-21.00" class="stroke"/>
<use x="355.30" y="207.00" xlink:href="#Hd"/>
<path d="M358.80 207.00v-21.00" class="stroke"/>
<use x="405.10" y="210.00" xlink:href="#Hd"/>
<path d="M408.60 210.00v-21.00" class="stroke"/>
<use x="478.90" y="213.00" xlink:href="#hd"/>
<path d="M482.40 213.00v-21.00" class="stroke"/>
<use x="515.90" y="210.00" xlink:href="#Hd"/>
<circle class="fill" cx="524.60" cy="210.00" r="1.2"/>
<path d="M519.40 210.00v-21.00" class="stroke"/>
<use x="628.80" y="204.00" xlink:href="#hd"/>
<path d="M632.30 204.00v-21.00" class="stroke"/>
<use x="665.70" y="207.00" xlink:href="#hd"/>
<path d="M669.20 207.00v-21.00" class="stroke"/>
<use x="22.00" y="253.00" xlink:href="#bclef"/>
<use x="37.00" y="265.00" xlink:href="#ft0"/>
<use x="55.00" y="274.00" xlink:href="#hd"/>
<path d="M58.50 274.00v-21.00" class="stroke"/>
<use x="91.90" y="268.00" xlink:href="#hd"/>
<path d="M95.40 268.00v-21.00" class="stroke"/>
<use x="128.90" y="262.00" xlink:href="#Hd"/>
<circle class="fill" cx="137.60" cy="262.00" r="1.2"/>
<path d="M132.40 262.00v-21.00" class="stroke"/>
<use x="217.40" y="250.00" xlink:href="#HD"/>
<use x="217.40" y="262.00" xlink:href="#HD"/>
<use x="217.40" y="256.00" xlink:href="#HD"/>
<use x="318.40" y="253.00" xlink:href="#Hd"/>
<circle class="fill" cx="327.10" cy="250.00" r="1.2"/>
<path d="M314.90 253.00v31.00" class="stroke"/>
<use x="318.40" y="265.00" xlink:href="#Hd"/>
<circle class="fill" cx="327.10" cy="262.00" r="1.2"/>
<use x="318.40" y="259.00" xlink:href="#Hd"/>
<circle class="fill" cx="327.10" cy="256.00" r="1.2"/>
<use x="405.10" y="259.00" xlink:href="#hd"/>
<path d="M401.60 259.00v21.00" class="stroke"/>
<use x="442.00" y="253.00" xlink:href="#hd"/>
<path d="M438.50 253.00v21.00" class="stroke"/>
<use x="478.90" y="247.00" xlink:href="#hd"/>
<path d="M475.40 247.00v21.00" class="stroke"/>
<use x="515.90" y="253.00" xlink:href="#hd"/>
<path d="M512.40 253.00v21.00" class="stroke"/>
<use x="552.80" y="259.00" xlink:href="#hd"/>
<path d="M549.30 259.00v21.00" class="stroke"/>
<use x="589.70" y="253.00" xlink:href="#hd"/>
<path d="M586.20 253.00v21.00" class="stroke"/>
<use x="628.80" y="274.00" xlink:href="#hd"/>
<path d="M632.30 274.00v-21.00" class="stroke"/>
<use x="665.70" y="268.00" xlink:href="#hd"/>
<path d="M669.20 268.00v-21.00" class="stroke"/>
</g>
<g stroke-width="0.70" style="font:bold 13.00px Times">
<path class="stroke" stroke-width="1"
	d="M10.00 399.00v-82.00"/>
<g transform="translate(10.00,317.00) scale(1,0.82)">
	<use xlink:href="#brace"/>
</g>
<path class="stroke" stroke-width="1"
	d="M203.70 341.00v-24.00"/>
<path class="stroke" stroke-width="1"
	d="M203.70 399.00v-24.00"/>
<path class="stroke" stroke-width="1"
	d="M261.40 341.00v-24.00"/>
<path class="stroke" stroke-width="1"
	d="M261.40 399.00v-24.00"/>
<path class="stroke" stroke-width="1"
	d="M394.60 341.00v-24.00"/>
<path class="stroke" stroke-width="1"
	d="M394.60 399.00v-24.00"/>
<path class="stroke" stroke-width="1"
	d="M471.10 341.00v-24.00"/>
<path class="stroke" stroke-width="1"
	d="M471.10 399.00v-24.00"/>
<path class="stroke" stroke-width="1"
	d="M554.30 341.00v-24.00"/>
<path class="stroke" stroke-width="1"
	d="M554.30 399.00v-24.00"/>
<path class="stroke" stroke-width="1"
	d="M675.60 341.00v-24.00"/>
<path class="stroke" stroke-width="1"
	d="M675.60 399.00v-24.00"/>
<path class="stroke" stroke-width="1"
	d="M691.60 341.00v-24.00"/>
<path class="stroke" stroke-width="1"
	d="M691.60 399.00v-24.00"/>
<path d="m10.00 341.00
	h681.60
	M10.00 335.00
	h681.60
	M10.00 329.00
	h681.60
	M10.00 323.00
	h681.60
	M10.00 317.00
	h681.60
	" class="stroke"/>
<path d="m10.00 399.00
	h681.60
	M10.00 393.00
	h681.60
	M10.00 387.00
	h681.60
	M10.00 381.00
	h681.60
	M10.00 375.00
	h681.60
	" class="stroke"/>
</g>
<g stroke-width="0.70" style="font:bold 13.00px Times">
<text x="50.40" y="312.40">iii</text>
</g>
<g stroke-width="0.70" style="font:bold 13.00px Times">
<text x="212.80" y="312.40">V</text>
</g>
<g stroke-width="0.70" style="font:bold 13.00px Times">
<text x="273.60" y="312.40">I</text>
</g>
<g stroke-width="0.70" style="font:bold 13.00px Times">
<text x="404.70" y="304.40">V</text>
</g>
<g stroke-width="0.70" style="font:bold 13.00px Times">
<text x="480.60" y="304.40">ii</text>
</g>
<g stroke-width="0.70" style="font:bold 13.00px Times">
<text x="563.50" y="310.40">I<tspan
	 style="font:italic 11.00px Times">²</tspan></text>
</g>
<g stroke-width="0.70" style="font:italic 11.00px Times">
<use x="22.00" y="335.00" xlink:href="#tclef"/>
<use x="37.00" y="329.00" xlink:href="#ft0"/>
<use x="55.00" y="341.00" xlink:href="#hd"/>
<path d="M58.50 341.00v-21.00" class="stroke"/>
<use x="80.90" y="338.00" xlink:href="#hd"/>
<path d="M84.40 338.00v-21.00" class="stroke"/>
<use x="107.10" y="344.00" xlink:href="#hd"/>
<path d="M110.60 344.00v-21.00" class="stroke"/>
<defs>
<path id="hl" class="stroke" d="m-6 0h12"/>
</defs>
<use x="133.10" y="347.00" xlink:href="#hl"/>
<use x="133.10" y="347.00" xlink:href="#Hd"/>
<circle class="fill" cx="141.80" cy="344.00" r="1.2"/>
<path d="M136.60 347.00v-21.00" class="stroke"/>
<use x="216.70" y="326.00" xlink:href="#hd"/>
<path d="M213.20 326.00v21.00" class="stroke"/>
<use x="242.70" y="326.00" xlink:href="#hd"/>
<path d="M239.20 326.00v21.00" class="stroke"/>
<use x="275.40" y="326.00" xlink:href="#hd"/>
<path d="M271.90 326.00v21.00" class="stroke"/>
<use x="301.40" y="323.00" xlink:href="#hd"/>
<path d="M297.90 323.00v21.00" class="stroke"/>
<use x="327.30" y="326.00" xlink:href="#hd"/>
<path d="M323.80 326.00v21.00" class="stroke"/>
<use x="353.30" y="326.00" xlink:href="#Hd"/>
<path d="M349.80 326.00v21.00" class="stroke"/>
<use x="408.60" y="332.00" xlink:href="#Hd"/>
<path d="M412.10 332.00v-21.00" class="stroke"/>
<use x="445.00" y="329.00" xlink:href="#Hd"/>
<path d="M448.50 329.00v-21.00" class="stroke"/>
<use x="483.60" y="332.00" xlink:href="#hd"/>
<path d="M487.10 332.00v-21.00" class="stroke"/>
<use x="509.60" y="335.00" xlink:href="#Hd"/>
<path d="M513.10 335.00v-21.00" class="stroke"/>
<use x="567.30" y="338.00" xlink:href="#Hd"/>
<path d="M570.80 338.00v-21.00" class="stroke"/>
<use x="619.30" y="341.00" xlink:href="#hd"/>
<path d="M622.80 341.00v-21.00" class="stroke"/>
<use x="645.30" y="338.00" xlink:href="#Hd"/>
<circle class="fill" cx="654.00" cy="338.00" r="1.2"/>
<path d="M648.80 338.00v-21.00" class="stroke"/>
<use x="22.00" y="381.00" xlink:href="#bclef"/>
<use x="37.00" y="393.00" xlink:href="#ft0"/>
<use x="55.00" y="396.00" xlink:href="#hd"/>
<path d="M58.50 396.00v-21.00" class="stroke"/>
<use x="80.90" y="390.00" xlink:href="#hd"/>
<path d="M84.40 390.00v-21.00" class="stroke"/>
<use x="107.10" y="384.00" xlink:href="#hd"/>
<path d="M103.60 384.00v21.00" class="stroke"/>
<use x="133.10" y="390.00" xlink:href="#hd"/>
<path d="M136.60 390.00v-21.00" class="stroke"/>
<use x="159.00" y="396.00" xlink:href="#hd"/>
<path d="M162.50 396.00v-21.00" class="stroke"/>
<use x="185.00" y="390.00" xlink:href="#hd"/>
<path d="M188.50 390.00v-21.00" class="stroke"/>
<use x="216.70" y="378.00" xlink:href="#Hd"/>
<path d="M213.20 378.00v31.00" class="stroke"/>
<use x="216.70" y="390.00" xlink:href="#Hd"/>
<use x="216.70" y="384.00" xlink:href="#Hd"/>
<use x="276.40" y="402.00" xlink:href="#HD"/>
<use x="276.40" y="396.00" xlink:href="#HD"/>
<use x="276.40" y="390.00" xlink:href="#HD"/>
<use x="375.80" y="402.00" xlink:href="#hd"/>
<path d="M379.30 402.00v-31.00" class="stroke"/>
<use x="375.80" y="396.00" xlink:href="#hd"/>
<use x="375.80" y="390.00" xlink:href="#hd"/>
<use x="409.60" y="378.00" xlink:href="#HD"/>
<use x="409.60" y="390.00" xlink:href="#HD"/>
<use x="409.60" y="384.00" xlink:href="#HD"/>
<use x="483.60" y="399.00" xlink:href="#hd"/>
<path d="M487.10 399.00v-21.00" class="stroke"/>
<use x="509.60" y="393.00" xlink:href="#hd"/>
<path d="M513.10 393.00v-21.00" class="stroke"/>
<use x="535.50" y="387.00" xlink:href="#hd"/>
<path d="M539.00 387.00v-21.00" class="stroke"/>
<use x="567.30" y="402.00" xlink:href="#hd"/>
<path d="M570.80 402.00v-21.00" class="stroke"/>
<use x="593.20" y="396.00" xlink:href="#hd"/>
<path d="M596.70 396.00v-21.00" class="stroke"/>
<use x="620.30" y="390.00" xlink:href="#HD"/>
<path class="fill"
	d="M278.90 402.00c12.46 6.18 80.92 6.18 93.38 -0.00
	v0.29c-15.27 7.89 -78.12 7.89 -93.38 -0.29"/>
<path class="fill"
	d="M278.90 396.00c12.46 6.18 80.92 6.18 93.38 -0.00
	v0.29c-15.27 7.89 -78.12 7.89 -93.38 -0.29"/>
<path class="fill"
	d="M278.90 390.00c12.46 -6.18 80.92 -6.18 93.38 -0.00
	v-0.29c-15.27 -7.89 -78.12 -7.89 -93.38 0.29"/>
</g>
</svg>
