<?xml version="1.0" standalone="no"?>
<!DOCTYPE svg PUBLIC "-//W3C//DTD SVG 1.1//EN"
	"http://www.w3.org/Graphics/SVG/1.1/DTD/svg11.dtd">
<svg xmlns="http://www.w3.org/2000/svg" version="1.1"
	xmlns:xlink="http://www.w3.org/1999/xlink"
	color="black"
	width="701.60px" height="424.40px" viewBox="0 0 701.60 424.40" preserveAspectRatio="xMidYMid meet">
<style type="text/css">
.fill {fill: currentColor}
.stroke {stroke: currentColor; fill: none}
text{white-space: pre}
</style>
<title>/tmp/retab_hymnal_L4/look_down_o_lord_from_heaven_behold.abc (1) tune 1</title>
<!-- Creator: abcm2ps-8.14.11 -->
<!-- CreationDate: Apr 24, 2026 15:38 -->
<!-- CommandLine: /tmp/retab_hymnal_L4/look_down_o_lord_from_heaven_behold.abc -g -O /tmp/retab_hymnal_L4/look_down_o_lord_from_heaven_behold -->
<g stroke-width="0.70">
<!-- title: 143. Look Down, O Lord, From Heaven Behold -->
</g>
<g stroke-width="0.70" style="font:20.00px Times">
<text x="350.80" y="22.00" text-anchor="middle">143. Look Down, O Lord, From Heaven Behold</text>
</g>
<g stroke-width="0.70" style="font:20.00px Times">
<path class="stroke" stroke-width="1"
	d="M10.00 143.00v-82.00"/>
<defs>
<path id="brace" class="fill" d="m-2.5 101
	c-4.5 -4.6 -7.5 -12.2 -4.4 -26.8
	3.5 -14.3 3.2 -21.7 -2.1 -24.2
	7.4 2.4 7.3 14.2 3.5 29.5
	-2.7 9.5 -1.5 16.2 3 21.5
	M-2.5 1c-4.5 4.6 -7.5 12.2 -4.4 26.8
	c3.5 14.3 3.2 21.7 -2.1 24.2
	7.4 -2.4 7.3 -14.2 3.5 -29.5
	-2.7 -9.5 -1.5 -16.2 3 -21.5"/>
</defs>
<g transform="translate(10.00,61.00) scale(1,0.82)">
	<use xlink:href="#brace"/>
</g>
<path class="stroke" stroke-width="1"
	d="M165.50 85.00v-24.00"/>
<path class="stroke" stroke-width="1"
	d="M165.50 143.00v-24.00"/>
<path class="stroke" stroke-width="1"
	d="M271.00 85.00v-24.00"/>
<path class="stroke" stroke-width="1"
	d="M271.00 143.00v-24.00"/>
<path class="stroke" stroke-width="1"
	d="M375.50 85.00v-24.00"/>
<path class="stroke" stroke-width="1"
	d="M375.50 143.00v-24.00"/>
<path class="stroke" stroke-width="1"
	d="M480.10 85.00v-24.00"/>
<path class="stroke" stroke-width="1"
	d="M480.10 143.00v-24.00"/>
<path class="stroke" stroke-width="1"
	d="M587.00 85.00v-24.00"/>
<path class="stroke" stroke-width="1"
	d="M587.00 143.00v-24.00"/>
<path class="stroke" stroke-width="1"
	d="M691.60 85.00v-24.00"/>
<path class="stroke" stroke-width="1"
	d="M691.60 143.00v-24.00"/>
<path d="m10.00 85.00
	h681.60
	M10.00 79.00
	h681.60
	M10.00 73.00
	h681.60
	M10.00 67.00
	h681.60
	M10.00 61.00
	h681.60
	" class="stroke"/>
<path d="m10.00 143.00
	h681.60
	M10.00 137.00
	h681.60
	M10.00 131.00
	h681.60
	M10.00 125.00
	h681.60
	M10.00 119.00
	h681.60
	" class="stroke"/>
</g>
<g stroke-width="0.70" style="font:bold 13.00px Times">
<text x="71.00" y="48.40">i</text>
</g>
<g stroke-width="0.70" style="font:bold 13.00px Times">
<text x="176.10" y="56.40">I</text>
</g>
<g stroke-width="0.70" style="font:bold 13.00px Times">
<text x="283.10" y="56.40">I</text>
</g>
<g stroke-width="0.70" style="font:bold 13.00px Times">
<text x="385.30" y="54.40">iv</text>
</g>
<g stroke-width="0.70" style="font:bold 13.00px Times">
<text x="492.30" y="51.40">I</text>
</g>
<g stroke-width="0.70" style="font:bold 13.00px Times">
<text x="599.50" y="56.40">i</text>
<defs>
<path id="utclef" class="fill" d="m-50 -90
	c-72 -41 -72 -158 52 -188
	150 -10 220 188 90 256
	-114 52 -275 0 -293 -136
	-15 -181 93 -229 220 -334
	88 -87 79 -133 62 -210
	-51 33 -94 105 -89 186
	17 267 36 374 49 574
	6 96 -19 134 -77 135
	-80 1 -126 -93 -61 -133
	85 -41 133 101 31 105
	23 17 92 37 90 -92
	-10 -223 -39 -342 -50 -617
	0 -90 0 -162 96 -232
	56 72 63 230 22 289
	-74 106 -257 168 -255 316
	9 153 148 185 252 133
	86 -65 29 -192 -80 -176
	-71 12 -105 67 -59 124"/>
<use id="tclef" transform="translate(0,6) scale(0.045)"
	xlink:href="#utclef"/>
</defs>
<use x="22.00" y="79.00" xlink:href="#tclef"/>
<defs>
<path id="uflat" class="fill" d="
	m100 -746
	h32
	v734
	l-32 4
	m32 -332
	c46 -72 152 -90 208 -20
	100 110 -120 326 -208 348
	m0 -28
	c54 0 200 -206 130 -290
	-50 -60 -130 -4 -130 34"/>
<use id="ft0" transform="translate(-3.5,3.5) scale(0.018)"
	xlink:href="#uflat"/>
</defs>
<use x="37.00" y="73.00" xlink:href="#ft0"/>
<g style="font:bold 16px serif"
	transform="translate(53.00,84.50) scale(1.2,1)">
	<text text-anchor="middle">4</text>
	<text y="-12" text-anchor="middle">4</text>
</g>
<defs>
<ellipse id="hd" rx="4.1" ry="2.9"
	transform="rotate(-20)" class="fill"/>
</defs>
<use x="72.50" y="76.00" xlink:href="#hd"/>
<path d="M76.00 76.00v-21.00" class="stroke"/>
<use x="97.40" y="73.00" xlink:href="#hd"/>
<path d="M100.90 73.00v-21.00" class="stroke"/>
<use x="122.40" y="76.00" xlink:href="#hd"/>
<path d="M125.90 76.00v-21.00" class="stroke"/>
<use x="147.30" y="79.00" xlink:href="#hd"/>
<path d="M150.80 79.00v-21.00" class="stroke"/>
<use x="178.00" y="67.00" xlink:href="#hd"/>
<path d="M174.50 67.00v21.00" class="stroke"/>
<use x="202.90" y="67.00" xlink:href="#hd"/>
<path d="M199.40 67.00v21.00" class="stroke"/>
<use x="227.90" y="73.00" xlink:href="#hd"/>
<path d="M224.40 73.00v21.00" class="stroke"/>
<use x="252.80" y="76.00" xlink:href="#hd"/>
<path d="M256.30 76.00v-21.00" class="stroke"/>
<use x="285.00" y="70.00" xlink:href="#hd"/>
<path d="M281.50 70.00v21.00" class="stroke"/>
<use x="309.90" y="73.00" xlink:href="#hd"/>
<path d="M306.40 73.00v21.00" class="stroke"/>
<use x="332.40" y="76.00" xlink:href="#hd"/>
<path d="M335.90 76.00v-21.00" class="stroke"/>
<use x="357.40" y="79.00" xlink:href="#hd"/>
<path d="M360.90 79.00v-21.00" class="stroke"/>
<use x="389.50" y="70.00" xlink:href="#hd"/>
<path d="M386.00 70.00v21.00" class="stroke"/>
<use x="414.50" y="73.00" xlink:href="#hd"/>
<path d="M411.00 73.00v21.00" class="stroke"/>
<use x="437.00" y="76.00" xlink:href="#hd"/>
<path d="M440.50 76.00v-21.00" class="stroke"/>
<use x="461.90" y="79.00" xlink:href="#hd"/>
<path d="M465.40 79.00v-21.00" class="stroke"/>
<use x="494.10" y="79.00" xlink:href="#hd"/>
<path d="M497.60 79.00v-21.00" class="stroke"/>
<use x="519.00" y="73.00" xlink:href="#hd"/>
<path d="M522.50 73.00v-21.00" class="stroke"/>
<use x="543.90" y="76.00" xlink:href="#hd"/>
<path d="M547.40 76.00v-21.00" class="stroke"/>
<use x="568.90" y="79.00" xlink:href="#hd"/>
<path d="M572.40 79.00v-21.00" class="stroke"/>
<use x="601.00" y="67.00" xlink:href="#hd"/>
<path d="M597.50 67.00v21.00" class="stroke"/>
<use x="626.00" y="67.00" xlink:href="#hd"/>
<path d="M622.50 67.00v21.00" class="stroke"/>
<use x="650.90" y="73.00" xlink:href="#hd"/>
<path d="M647.40 73.00v21.00" class="stroke"/>
<use x="673.40" y="76.00" xlink:href="#hd"/>
<path d="M676.90 76.00v-21.00" class="stroke"/>
<defs>
<path id="ubclef" class="fill" d="m-200 -87
	c124 -35 222 -78 254 -236
	43 -228 -167 -246 -192 -103
	59 -80 157 22 92 78
	-62 47 -115 -22 -106 -88
	21 -141 270 -136 274 52
	-1 175 -106 264 -322 297
	m357 -250
	c0 -36 51 -34 51 0
	0 37 -51 36 -51 0
	m-2 -129
	c0 -36 51 -34 51 0
	0 38 -51 37 -51 0"/>
<use id="bclef" transform="translate(0,18) scale(0.045)"
	xlink:href="#ubclef"/>
</defs>
<use x="22.00" y="125.00" xlink:href="#bclef"/>
<use x="37.00" y="137.00" xlink:href="#ft0"/>
<g style="font:bold 16px serif"
	transform="translate(53.00,142.50) scale(1.2,1)">
	<text text-anchor="middle">4</text>
	<text y="-12" text-anchor="middle">4</text>
</g>
<defs>
<path id="HD" class="fill" d="m-2.7 -1.4
	c1.5 -2.8 6.9 0 5.3 2.7
	-1.5 2.8 -6.9 0 -5.3 -2.7
	m8.3 1.4
	c0 -1.5 -2.2 -3 -5.6 -3
	-3.4 0 -5.6 1.5 -5.6 3
	0 1.5 2.2 3 5.6 3
	3.4 0 5.6 -1.5 5.6 -3"/>
</defs>
<use x="73.50" y="119.00" xlink:href="#HD"/>
<use x="73.50" y="131.00" xlink:href="#HD"/>
<use x="73.50" y="125.00" xlink:href="#HD"/>
<use x="178.00" y="146.00" xlink:href="#hd"/>
<path d="M181.50 146.00v-21.00" class="stroke"/>
<use x="202.90" y="140.00" xlink:href="#hd"/>
<path d="M206.40 140.00v-21.00" class="stroke"/>
<defs>
<path id="Hd" class="fill" d="m3 -1.6
	c-1 -1.8 -7 1.4 -6 3.2
	1 1.8 7 -1.4 6 -3.2
	m0.5 -0.3
	c2 3.8 -5 7.6 -7 3.8
	-2 -3.8 5 -7.6 7 -3.8"/>
</defs>
<use x="227.90" y="134.00" xlink:href="#Hd"/>
<path d="M231.40 134.00v-21.00" class="stroke"/>
<use x="286.00" y="146.00" xlink:href="#HD"/>
<use x="286.00" y="140.00" xlink:href="#HD"/>
<use x="286.00" y="134.00" xlink:href="#HD"/>
<use x="390.50" y="143.00" xlink:href="#HD"/>
<use x="390.50" y="137.00" xlink:href="#HD"/>
<use x="390.50" y="131.00" xlink:href="#HD"/>
<use x="495.10" y="146.00" xlink:href="#HD"/>
<use x="495.10" y="140.00" xlink:href="#HD"/>
<use x="495.10" y="134.00" xlink:href="#HD"/>
<use x="602.00" y="119.00" xlink:href="#HD"/>
<use x="602.00" y="131.00" xlink:href="#HD"/>
<use x="602.00" y="125.00" xlink:href="#HD"/>
</g>
<g stroke-width="0.70" style="font:bold 13.00px Times">
<path class="stroke" stroke-width="1"
	d="M10.00 273.40v-82.00"/>
<g transform="translate(10.00,191.40) scale(1,0.82)">
	<use xlink:href="#brace"/>
</g>
<path class="stroke" stroke-width="1"
	d="M149.00 215.40v-24.00"/>
<path class="stroke" stroke-width="1"
	d="M149.00 273.40v-24.00"/>
<path class="stroke" stroke-width="1"
	d="M255.60 215.40v-24.00"/>
<path class="stroke" stroke-width="1"
	d="M255.60 273.40v-24.00"/>
<path class="stroke" stroke-width="1"
	d="M364.60 215.40v-24.00"/>
<path class="stroke" stroke-width="1"
	d="M364.60 273.40v-24.00"/>
<path class="stroke" stroke-width="1"
	d="M473.60 215.40v-24.00"/>
<path class="stroke" stroke-width="1"
	d="M473.60 273.40v-24.00"/>
<path class="stroke" stroke-width="1"
	d="M582.60 215.40v-24.00"/>
<path class="stroke" stroke-width="1"
	d="M582.60 273.40v-24.00"/>
<path class="stroke" stroke-width="1"
	d="M691.60 215.40v-24.00"/>
<path class="stroke" stroke-width="1"
	d="M691.60 273.40v-24.00"/>
<path d="m10.00 215.40
	h681.60
	M10.00 209.40
	h681.60
	M10.00 203.40
	h681.60
	M10.00 197.40
	h681.60
	M10.00 191.40
	h681.60
	" class="stroke"/>
<path d="m10.00 273.40
	h681.60
	M10.00 267.40
	h681.60
	M10.00 261.40
	h681.60
	M10.00 255.40
	h681.60
	M10.00 249.40
	h681.60
	" class="stroke"/>
</g>
<g stroke-width="0.70" style="font:bold 13.00px Times">
<text x="54.70" y="186.80">I</text>
</g>
<g stroke-width="0.70" style="font:bold 13.00px Times">
<text x="158.80" y="186.80">iv</text>
</g>
<g stroke-width="0.70" style="font:bold 13.00px Times">
<text x="264.10" y="181.80">III</text>
</g>
<g stroke-width="0.70" style="font:bold 13.00px Times">
<text x="377.10" y="184.80">i</text>
</g>
<g stroke-width="0.70" style="font:bold 13.00px Times">
<text x="485.80" y="184.80">I</text>
</g>
<g stroke-width="0.70" style="font:bold 13.00px Times">
<text x="592.30" y="175.80">iv</text>
<use x="22.00" y="209.40" xlink:href="#tclef"/>
<use x="37.00" y="203.40" xlink:href="#ft0"/>
<use x="56.50" y="200.40" xlink:href="#hd"/>
<path d="M53.00 200.40v21.00" class="stroke"/>
<use x="82.00" y="203.40" xlink:href="#hd"/>
<path d="M78.50 203.40v21.00" class="stroke"/>
<use x="105.10" y="206.40" xlink:href="#hd"/>
<path d="M108.60 206.40v-21.00" class="stroke"/>
<use x="130.60" y="209.40" xlink:href="#hd"/>
<path d="M134.10 209.40v-21.00" class="stroke"/>
<use x="163.00" y="200.40" xlink:href="#hd"/>
<path d="M159.50 200.40v21.00" class="stroke"/>
<use x="188.60" y="203.40" xlink:href="#hd"/>
<path d="M185.10 203.40v21.00" class="stroke"/>
<use x="211.60" y="206.40" xlink:href="#hd"/>
<path d="M215.10 206.40v-21.00" class="stroke"/>
<use x="237.10" y="209.40" xlink:href="#hd"/>
<path d="M240.60 209.40v-21.00" class="stroke"/>
<use x="269.60" y="209.40" xlink:href="#hd"/>
<path d="M273.10 209.40v-21.00" class="stroke"/>
<use x="295.10" y="206.40" xlink:href="#hd"/>
<path d="M298.60 206.40v-21.00" class="stroke"/>
<use x="320.60" y="212.40" xlink:href="#hd"/>
<path d="M324.10 212.40v-21.00" class="stroke"/>
<use x="346.10" y="215.40" xlink:href="#hd"/>
<path d="M349.60 215.40v-21.00" class="stroke"/>
<use x="378.60" y="218.40" xlink:href="#hd"/>
<path d="M382.10 218.40v-21.00" class="stroke"/>
<use x="404.10" y="212.40" xlink:href="#hd"/>
<path d="M407.60 212.40v-21.00" class="stroke"/>
<use x="429.60" y="209.40" xlink:href="#hd"/>
<path d="M433.10 209.40v-21.00" class="stroke"/>
<use x="455.10" y="206.40" xlink:href="#hd"/>
<path d="M458.60 206.40v-21.00" class="stroke"/>
<use x="487.60" y="212.40" xlink:href="#hd"/>
<path d="M491.10 212.40v-21.00" class="stroke"/>
<use x="513.10" y="209.40" xlink:href="#hd"/>
<path d="M516.60 209.40v-21.00" class="stroke"/>
<use x="538.60" y="203.40" xlink:href="#hd"/>
<path d="M542.10 203.40v-21.00" class="stroke"/>
<use x="564.10" y="206.40" xlink:href="#hd"/>
<path d="M567.60 206.40v-21.00" class="stroke"/>
<use x="596.60" y="203.40" xlink:href="#hd"/>
<path d="M600.10 203.40v-21.00" class="stroke"/>
<use x="622.10" y="209.40" xlink:href="#hd"/>
<path d="M625.60 209.40v-21.00" class="stroke"/>
<use x="647.60" y="212.40" xlink:href="#hd"/>
<path d="M651.10 212.40v-21.00" class="stroke"/>
<use x="673.10" y="209.40" xlink:href="#hd"/>
<path d="M676.60 209.40v-21.00" class="stroke"/>
<use x="22.00" y="255.40" xlink:href="#bclef"/>
<use x="37.00" y="267.40" xlink:href="#ft0"/>
<use x="57.50" y="276.40" xlink:href="#HD"/>
<use x="57.50" y="270.40" xlink:href="#HD"/>
<use x="57.50" y="264.40" xlink:href="#HD"/>
<use x="164.00" y="273.40" xlink:href="#HD"/>
<use x="164.00" y="267.40" xlink:href="#HD"/>
<use x="164.00" y="261.40" xlink:href="#HD"/>
<use x="270.60" y="276.40" xlink:href="#HD"/>
<use x="270.60" y="270.40" xlink:href="#HD"/>
<use x="270.60" y="264.40" xlink:href="#HD"/>
<use x="379.60" y="249.40" xlink:href="#HD"/>
<use x="379.60" y="261.40" xlink:href="#HD"/>
<use x="379.60" y="255.40" xlink:href="#HD"/>
<use x="488.60" y="276.40" xlink:href="#HD"/>
<use x="488.60" y="270.40" xlink:href="#HD"/>
<use x="488.60" y="264.40" xlink:href="#HD"/>
<use x="597.60" y="273.40" xlink:href="#HD"/>
<use x="597.60" y="267.40" xlink:href="#HD"/>
<use x="597.60" y="261.40" xlink:href="#HD"/>
</g>
<g stroke-width="0.70" style="font:bold 13.00px Times">
<path class="stroke" stroke-width="1"
	d="M10.00 401.40v-82.00"/>
<g transform="translate(10.00,319.40) scale(1,0.82)">
	<use xlink:href="#brace"/>
</g>
<path class="stroke" stroke-width="1"
	d="M203.00 343.40v-24.00"/>
<path class="stroke" stroke-width="1"
	d="M203.00 401.40v-24.00"/>
<path class="stroke" stroke-width="1"
	d="M361.10 343.40v-24.00"/>
<path class="stroke" stroke-width="1"
	d="M361.10 401.40v-24.00"/>
<path d="m10.00 343.40
	h351.10
	M10.00 337.40
	h351.10
	M10.00 331.40
	h351.10
	M10.00 325.40
	h351.10
	M10.00 319.40
	h351.10
	" class="stroke"/>
<path d="m10.00 401.40
	h351.10
	M10.00 395.40
	h351.10
	M10.00 389.40
	h351.10
	M10.00 383.40
	h351.10
	M10.00 377.40
	h351.10
	" class="stroke"/>
</g>
<g stroke-width="0.70" style="font:bold 13.00px Times">
<text x="53.20" y="309.80">I</text>
</g>
<g stroke-width="0.70" style="font:bold 13.00px Times">
<text x="211.70" y="314.80">III</text>
<use x="22.00" y="337.40" xlink:href="#tclef"/>
<use x="37.00" y="331.40" xlink:href="#ft0"/>
<use x="55.00" y="337.40" xlink:href="#hd"/>
<path d="M58.50 337.40v-21.00" class="stroke"/>
<use x="95.00" y="325.40" xlink:href="#hd"/>
<path d="M91.50 325.40v21.00" class="stroke"/>
<use x="135.00" y="331.40" xlink:href="#hd"/>
<path d="M131.50 331.40v21.00" class="stroke"/>
<use x="175.00" y="328.40" xlink:href="#hd"/>
<path d="M171.50 328.40v21.00" class="stroke"/>
<use x="217.10" y="325.40" xlink:href="#hd"/>
<path d="M213.60 325.40v21.00" class="stroke"/>
<use x="257.10" y="328.40" xlink:href="#hd"/>
<path d="M253.60 328.40v21.00" class="stroke"/>
<use x="297.10" y="331.40" xlink:href="#hd"/>
<path d="M293.60 331.40v21.00" class="stroke"/>
<use x="333.10" y="334.40" xlink:href="#hd"/>
<path d="M336.60 334.40v-21.00" class="stroke"/>
<use x="22.00" y="383.40" xlink:href="#bclef"/>
<use x="37.00" y="395.40" xlink:href="#ft0"/>
<use x="55.00" y="404.40" xlink:href="#hd"/>
<path d="M58.50 404.40v-21.00" class="stroke"/>
<use x="95.00" y="398.40" xlink:href="#hd"/>
<path d="M98.50 398.40v-21.00" class="stroke"/>
<use x="135.00" y="392.40" xlink:href="#Hd"/>
<path d="M138.50 392.40v-21.00" class="stroke"/>
<use x="218.10" y="404.40" xlink:href="#HD"/>
<use x="218.10" y="398.40" xlink:href="#HD"/>
<use x="218.10" y="392.40" xlink:href="#HD"/>
</g>
</svg>
