<?xml version="1.0" standalone="no"?>
<!DOCTYPE svg PUBLIC "-//W3C//DTD SVG 1.1//EN"
	"http://www.w3.org/Graphics/SVG/1.1/DTD/svg11.dtd">
<svg xmlns="http://www.w3.org/2000/svg" version="1.1"
	xmlns:xlink="http://www.w3.org/1999/xlink"
	color="black"
	width="701.60px" height="424.40px" viewBox="0 0 701.60 424.40" preserveAspectRatio="xMidYMid meet">
<style type="text/css">
.fill {fill: currentColor}
.stroke {stroke: currentColor; fill: none}
text{white-space: pre}
</style>
<title>/tmp/retab_hymnal_L4/o_love_how_deep_how_broad_how_high.abc (1) tune 1</title>
<!-- Creator: abcm2ps-8.14.11 -->
<!-- CreationDate: Apr 24, 2026 15:38 -->
<!-- CommandLine: /tmp/retab_hymnal_L4/o_love_how_deep_how_broad_how_high.abc -g -O /tmp/retab_hymnal_L4/o_love_how_deep_how_broad_how_high -->
<g stroke-width="0.70">
<!-- title: 186. O Love, How Deep, How Broad, How High -->
</g>
<g stroke-width="0.70" style="font:20.00px Times">
<text x="350.80" y="22.00" text-anchor="middle">186. O Love, How Deep, How Broad, How High</text>
</g>
<g stroke-width="0.70" style="font:20.00px Times">
<path class="stroke" stroke-width="1"
	d="M10.00 143.00v-82.00"/>
<defs>
<path id="brace" class="fill" d="m-2.5 101
	c-4.5 -4.6 -7.5 -12.2 -4.4 -26.8
	3.5 -14.3 3.2 -21.7 -2.1 -24.2
	7.4 2.4 7.3 14.2 3.5 29.5
	-2.7 9.5 -1.5 16.2 3 21.5
	M-2.5 1c-4.5 4.6 -7.5 12.2 -4.4 26.8
	c3.5 14.3 3.2 21.7 -2.1 24.2
	7.4 -2.4 7.3 -14.2 3.5 -29.5
	-2.7 -9.5 -1.5 -16.2 3 -21.5"/>
</defs>
<g transform="translate(10.00,61.00) scale(1,0.82)">
	<use xlink:href="#brace"/>
</g>
<path class="stroke" stroke-width="1"
	d="M164.20 85.00v-24.00"/>
<path class="stroke" stroke-width="1"
	d="M164.20 143.00v-24.00"/>
<path class="stroke" stroke-width="1"
	d="M281.30 85.00v-24.00"/>
<path class="stroke" stroke-width="1"
	d="M281.30 143.00v-24.00"/>
<path class="stroke" stroke-width="1"
	d="M406.00 85.00v-24.00"/>
<path class="stroke" stroke-width="1"
	d="M406.00 143.00v-24.00"/>
<path class="stroke" stroke-width="1"
	d="M457.50 85.00v-24.00"/>
<path class="stroke" stroke-width="1"
	d="M457.50 143.00v-24.00"/>
<path class="stroke" stroke-width="1"
	d="M574.60 85.00v-24.00"/>
<path class="stroke" stroke-width="1"
	d="M574.60 143.00v-24.00"/>
<path class="stroke" stroke-width="1"
	d="M691.60 85.00v-24.00"/>
<path class="stroke" stroke-width="1"
	d="M691.60 143.00v-24.00"/>
<path d="m10.00 85.00
	h681.60
	M10.00 79.00
	h681.60
	M10.00 73.00
	h681.60
	M10.00 67.00
	h681.60
	M10.00 61.00
	h681.60
	" class="stroke"/>
<path d="m10.00 143.00
	h681.60
	M10.00 137.00
	h681.60
	M10.00 131.00
	h681.60
	M10.00 125.00
	h681.60
	M10.00 119.00
	h681.60
	" class="stroke"/>
</g>
<g stroke-width="0.70" style="font:bold 13.00px Times">
<text x="86.50" y="56.40">i</text>
</g>
<g stroke-width="0.70" style="font:bold 13.00px Times">
<text x="172.40" y="56.40">III</text>
</g>
<g stroke-width="0.70" style="font:bold 13.00px Times">
<text x="291.30" y="56.40">V</text>
</g>
<g stroke-width="0.70" style="font:bold 13.00px Times">
<text x="416.10" y="51.40">i<tspan
	 style="font:italic 11.00px Times">¹</tspan></text>
</g>
<g stroke-width="0.70" style="font:bold 13.00px Times">
<text x="463.80" y="56.40">III<tspan
	 style="font:italic 11.00px Times">¹</tspan></text>
</g>
<g stroke-width="0.70" style="font:bold 13.00px Times">
<text x="582.70" y="51.40">III</text>
<defs>
<path id="utclef" class="fill" d="m-50 -90
	c-72 -41 -72 -158 52 -188
	150 -10 220 188 90 256
	-114 52 -275 0 -293 -136
	-15 -181 93 -229 220 -334
	88 -87 79 -133 62 -210
	-51 33 -94 105 -89 186
	17 267 36 374 49 574
	6 96 -19 134 -77 135
	-80 1 -126 -93 -61 -133
	85 -41 133 101 31 105
	23 17 92 37 90 -92
	-10 -223 -39 -342 -50 -617
	0 -90 0 -162 96 -232
	56 72 63 230 22 289
	-74 106 -257 168 -255 316
	9 153 148 185 252 133
	86 -65 29 -192 -80 -176
	-71 12 -105 67 -59 124"/>
<use id="tclef" transform="translate(0,6) scale(0.045)"
	xlink:href="#utclef"/>
</defs>
<use x="22.00" y="79.00" xlink:href="#tclef"/>
<defs>
<path id="usharp" class="fill" d="
	m136 -702
	v890
	h32
	v-890
	m128 840
	h32
	v-888
	h-32
	m-232 286
	v116
	l338 -96
	v-116
	m-338 442
	v116
	l338 -98
	v-114"/>
<use id="sh0" transform="translate(-4,5) scale(0.018)"
	xlink:href="#usharp"/>
</defs>
<use x="37.00" y="61.00" xlink:href="#sh0"/>
<use x="42.50" y="70.00" xlink:href="#sh0"/>
<use x="48.00" y="58.00" xlink:href="#sh0"/>
<use x="53.50" y="67.00" xlink:href="#sh0"/>
<g style="font:bold 16px serif"
	transform="translate(69.50,84.50) scale(1.2,1)">
	<text text-anchor="middle">4</text>
	<text y="-12" text-anchor="middle">3</text>
</g>
<defs>
<ellipse id="hd" rx="4.1" ry="2.9"
	transform="rotate(-20)" class="fill"/>
</defs>
<use x="88.00" y="70.00" xlink:href="#hd"/>
<path d="M84.50 70.00v21.00" class="stroke"/>
<defs>
<path id="Hd" class="fill" d="m3 -1.6
	c-1 -1.8 -7 1.4 -6 3.2
	1 1.8 7 -1.4 6 -3.2
	m0.5 -0.3
	c2 3.8 -5 7.6 -7 3.8
	-2 -3.8 5 -7.6 7 -3.8"/>
</defs>
<use x="126.30" y="70.00" xlink:href="#Hd"/>
<path d="M122.80 70.00v21.00" class="stroke"/>
<use x="177.90" y="73.00" xlink:href="#hd"/>
<path d="M174.40 73.00v21.00" class="stroke"/>
<use x="216.10" y="70.00" xlink:href="#Hd"/>
<path d="M212.60 70.00v21.00" class="stroke"/>
<use x="295.30" y="73.00" xlink:href="#hd"/>
<path d="M291.80 73.00v21.00" class="stroke"/>
<use x="333.50" y="73.00" xlink:href="#hd"/>
<path d="M330.00 73.00v21.00" class="stroke"/>
<use x="368.00" y="76.00" xlink:href="#Hd"/>
<path d="M371.50 76.00v-21.00" class="stroke"/>
<use x="419.60" y="79.00" xlink:href="#Hd"/>
<path d="M423.10 79.00v-21.00" class="stroke"/>
<use x="471.20" y="70.00" xlink:href="#hd"/>
<path d="M467.70 70.00v21.00" class="stroke"/>
<use x="509.40" y="70.00" xlink:href="#hd"/>
<path d="M505.90 70.00v21.00" class="stroke"/>
<use x="547.70" y="73.00" xlink:href="#hd"/>
<path d="M544.20 73.00v21.00" class="stroke"/>
<use x="588.20" y="79.00" xlink:href="#hd"/>
<path d="M591.70 79.00v-21.00" class="stroke"/>
<use x="626.50" y="82.00" xlink:href="#hd"/>
<path d="M630.00 82.00v-21.00" class="stroke"/>
<use x="664.80" y="79.00" xlink:href="#hd"/>
<path d="M668.30 79.00v-21.00" class="stroke"/>
<defs>
<path id="ubclef" class="fill" d="m-200 -87
	c124 -35 222 -78 254 -236
	43 -228 -167 -246 -192 -103
	59 -80 157 22 92 78
	-62 47 -115 -22 -106 -88
	21 -141 270 -136 274 52
	-1 175 -106 264 -322 297
	m357 -250
	c0 -36 51 -34 51 0
	0 37 -51 36 -51 0
	m-2 -129
	c0 -36 51 -34 51 0
	0 38 -51 37 -51 0"/>
<use id="bclef" transform="translate(0,18) scale(0.045)"
	xlink:href="#ubclef"/>
</defs>
<use x="22.00" y="125.00" xlink:href="#bclef"/>
<use x="37.00" y="125.00" xlink:href="#sh0"/>
<use x="42.50" y="134.00" xlink:href="#sh0"/>
<use x="48.00" y="122.00" xlink:href="#sh0"/>
<use x="53.50" y="131.00" xlink:href="#sh0"/>
<g style="font:bold 16px serif"
	transform="translate(69.50,142.50) scale(1.2,1)">
	<text text-anchor="middle">4</text>
	<text y="-12" text-anchor="middle">3</text>
</g>
<use x="88.00" y="122.00" xlink:href="#Hd"/>
<circle class="fill" cx="97.70" cy="122.00" r="1.2"/>
<path d="M84.50 122.00v31.00" class="stroke"/>
<use x="88.00" y="134.00" xlink:href="#Hd"/>
<circle class="fill" cx="97.70" cy="134.00" r="1.2"/>
<use x="88.00" y="128.00" xlink:href="#Hd"/>
<circle class="fill" cx="97.70" cy="128.00" r="1.2"/>
<defs>
<path id="hl" class="stroke" d="m-6 0h12"/>
</defs>
<use x="177.90" y="149.00" xlink:href="#hl"/>
<use x="177.90" y="149.00" xlink:href="#hd"/>
<path d="M181.40 149.00v-21.00" class="stroke"/>
<use x="216.10" y="143.00" xlink:href="#hd"/>
<path d="M219.60 143.00v-21.00" class="stroke"/>
<use x="254.40" y="137.00" xlink:href="#hd"/>
<path d="M257.90 137.00v-21.00" class="stroke"/>
<defs>
<path id="HD" class="fill" d="m-2.7 -1.4
	c1.5 -2.8 6.9 0 5.3 2.7
	-1.5 2.8 -6.9 0 -5.3 -2.7
	m8.3 1.4
	c0 -1.5 -2.2 -3 -5.6 -3
	-3.4 0 -5.6 1.5 -5.6 3
	0 1.5 2.2 3 5.6 3
	3.4 0 5.6 -1.5 5.6 -3"/>
</defs>
<use x="296.30" y="143.00" xlink:href="#HD"/>
<use x="296.30" y="137.00" xlink:href="#HD"/>
<use x="296.30" y="131.00" xlink:href="#HD"/>
<use x="419.60" y="122.00" xlink:href="#Hd"/>
<path d="M416.10 122.00v31.00" class="stroke"/>
<use x="419.60" y="134.00" xlink:href="#Hd"/>
<use x="419.60" y="128.00" xlink:href="#Hd"/>
<use x="471.20" y="149.00" xlink:href="#hl"/>
<use x="471.20" y="149.00" xlink:href="#hd"/>
<path d="M474.70 149.00v-21.00" class="stroke"/>
<use x="509.40" y="143.00" xlink:href="#hd"/>
<path d="M512.90 143.00v-21.00" class="stroke"/>
<use x="547.70" y="137.00" xlink:href="#hd"/>
<path d="M551.20 137.00v-21.00" class="stroke"/>
<use x="588.20" y="149.00" xlink:href="#hl"/>
<use x="588.20" y="149.00" xlink:href="#hd"/>
<path d="M591.70 149.00v-21.00" class="stroke"/>
<use x="626.50" y="143.00" xlink:href="#hd"/>
<path d="M630.00 143.00v-21.00" class="stroke"/>
<use x="664.80" y="137.00" xlink:href="#hd"/>
<path d="M668.30 137.00v-21.00" class="stroke"/>
</g>
<g stroke-width="0.70" style="font:bold 13.00px Times">
<path class="stroke" stroke-width="1"
	d="M10.00 273.40v-82.00"/>
<g transform="translate(10.00,191.40) scale(1,0.82)">
	<use xlink:href="#brace"/>
</g>
<path class="stroke" stroke-width="1"
	d="M201.40 215.40v-24.00"/>
<path class="stroke" stroke-width="1"
	d="M201.40 273.40v-24.00"/>
<path class="stroke" stroke-width="1"
	d="M252.70 215.40v-24.00"/>
<path class="stroke" stroke-width="1"
	d="M252.70 273.40v-24.00"/>
<path class="stroke" stroke-width="1"
	d="M342.20 215.40v-24.00"/>
<path class="stroke" stroke-width="1"
	d="M342.20 273.40v-24.00"/>
<path class="stroke" stroke-width="1"
	d="M458.60 215.40v-24.00"/>
<path class="stroke" stroke-width="1"
	d="M458.60 273.40v-24.00"/>
<path class="stroke" stroke-width="1"
	d="M613.20 215.40v-24.00"/>
<path class="stroke" stroke-width="1"
	d="M613.20 273.40v-24.00"/>
<path class="stroke" stroke-width="1"
	d="M691.60 215.40v-24.00"/>
<path class="stroke" stroke-width="1"
	d="M691.60 273.40v-24.00"/>
<path d="m10.00 215.40
	h681.60
	M10.00 209.40
	h681.60
	M10.00 203.40
	h681.60
	M10.00 197.40
	h681.60
	M10.00 191.40
	h681.60
	" class="stroke"/>
<path d="m10.00 273.40
	h681.60
	M10.00 267.40
	h681.60
	M10.00 261.40
	h681.60
	M10.00 255.40
	h681.60
	M10.00 249.40
	h681.60
	" class="stroke"/>
</g>
<g stroke-width="0.70" style="font:bold 13.00px Times">
<text x="68.00" y="184.80">i<tspan
	 style="font:italic 11.00px Times">¹</tspan></text>
</g>
<g stroke-width="0.70" style="font:bold 13.00px Times">
<text x="211.00" y="186.80">V</text>
</g>
<g stroke-width="0.70" style="font:bold 13.00px Times">
<text x="264.80" y="181.80">i</text>
</g>
<g stroke-width="0.70" style="font:bold 13.00px Times">
<text x="350.20" y="175.80">III</text>
</g>
<g stroke-width="0.70" style="font:bold 13.00px Times">
<text x="464.80" y="178.80">III<tspan
	 style="font:italic 11.00px Times">¹</tspan></text>
</g>
<g stroke-width="0.70" style="font:bold 13.00px Times">
<text x="621.30" y="186.80">III</text>
<use x="22.00" y="209.40" xlink:href="#tclef"/>
<use x="37.00" y="191.40" xlink:href="#sh0"/>
<use x="42.50" y="200.40" xlink:href="#sh0"/>
<use x="48.00" y="188.40" xlink:href="#sh0"/>
<use x="53.50" y="197.40" xlink:href="#sh0"/>
<use x="71.50" y="212.40" xlink:href="#hd"/>
<path d="M75.00 212.40v-21.00" class="stroke"/>
<path class="fill"
	d="M75.00 191.40c0.6 5.6 9.6 9 5.6 18.4
	1.6 -6 -1.3 -11.6 -5.6 -12.8
"/>
<use x="98.50" y="221.40" xlink:href="#hl"/>
<use x="98.50" y="221.40" xlink:href="#hd"/>
<path d="M102.00 221.40v-21.00" class="stroke"/>
<path class="fill"
	d="M102.00 200.40c0.6 5.6 9.6 9 5.6 18.4
	1.6 -6 -1.3 -11.6 -5.6 -12.8
"/>
<use x="125.50" y="215.40" xlink:href="#hd"/>
<path d="M129.00 215.40v-21.00" class="stroke"/>
<use x="163.60" y="218.40" xlink:href="#Hd"/>
<path d="M167.10 218.40v-21.00" class="stroke"/>
<use x="214.90" y="221.40" xlink:href="#hl"/>
<use x="214.90" y="221.40" xlink:href="#Hd"/>
<path d="M218.40 221.40v-21.00" class="stroke"/>
<use x="266.30" y="209.40" xlink:href="#hd"/>
<path d="M269.80 209.40v-21.00" class="stroke"/>
<use x="304.40" y="203.40" xlink:href="#Hd"/>
<path d="M307.90 203.40v-21.00" class="stroke"/>
<use x="355.70" y="203.40" xlink:href="#hd"/>
<path d="M359.20 203.40v-21.00" class="stroke"/>
<use x="393.80" y="200.40" xlink:href="#hd"/>
<path d="M390.30 200.40v21.00" class="stroke"/>
<use x="431.90" y="203.40" xlink:href="#hd"/>
<path d="M428.40 203.40v21.00" class="stroke"/>
<use x="472.20" y="206.40" xlink:href="#hd"/>
<path d="M475.70 206.40v-21.00" class="stroke"/>
<use x="510.30" y="209.40" xlink:href="#hd"/>
<path d="M513.80 209.40v-21.00" class="stroke"/>
<use x="548.40" y="212.40" xlink:href="#Hd"/>
<path d="M551.90 212.40v-21.00" class="stroke"/>
<use x="626.80" y="215.40" xlink:href="#Hd"/>
<path d="M630.30 215.40v-21.00" class="stroke"/>
<use x="22.00" y="255.40" xlink:href="#bclef"/>
<use x="37.00" y="255.40" xlink:href="#sh0"/>
<use x="42.50" y="264.40" xlink:href="#sh0"/>
<use x="48.00" y="252.40" xlink:href="#sh0"/>
<use x="53.50" y="261.40" xlink:href="#sh0"/>
<use x="71.50" y="264.40" xlink:href="#hd"/>
<path d="M75.00 264.40v-21.00" class="stroke"/>
<use x="125.50" y="258.40" xlink:href="#hd"/>
<path d="M122.00 258.40v21.00" class="stroke"/>
<use x="163.60" y="252.40" xlink:href="#Hd"/>
<path d="M160.10 252.40v21.00" class="stroke"/>
<use x="214.90" y="273.40" xlink:href="#Hd"/>
<path d="M218.40 273.40v-31.00" class="stroke"/>
<use x="214.90" y="267.40" xlink:href="#Hd"/>
<use x="214.90" y="261.40" xlink:href="#Hd"/>
<use x="266.30" y="252.40" xlink:href="#Hd"/>
<circle class="fill" cx="275.00" cy="252.40" r="1.2"/>
<path d="M262.80 252.40v31.00" class="stroke"/>
<use x="266.30" y="264.40" xlink:href="#Hd"/>
<circle class="fill" cx="275.00" cy="264.40" r="1.2"/>
<use x="266.30" y="258.40" xlink:href="#Hd"/>
<circle class="fill" cx="275.00" cy="258.40" r="1.2"/>
<use x="355.70" y="279.40" xlink:href="#hl"/>
<use x="355.70" y="279.40" xlink:href="#hd"/>
<path d="M359.20 279.40v-21.00" class="stroke"/>
<use x="393.80" y="273.40" xlink:href="#hd"/>
<path d="M397.30 273.40v-21.00" class="stroke"/>
<use x="431.90" y="267.40" xlink:href="#hd"/>
<path d="M435.40 267.40v-21.00" class="stroke"/>
<use x="472.20" y="279.40" xlink:href="#hl"/>
<use x="472.20" y="279.40" xlink:href="#hd"/>
<path d="M475.70 279.40v-21.00" class="stroke"/>
<use x="510.30" y="273.40" xlink:href="#hd"/>
<path d="M513.80 273.40v-21.00" class="stroke"/>
<use x="548.40" y="267.40" xlink:href="#hd"/>
<path d="M551.90 267.40v-21.00" class="stroke"/>
<use x="586.50" y="273.40" xlink:href="#hd"/>
<path d="M590.00 273.40v-21.00" class="stroke"/>
<use x="626.80" y="279.40" xlink:href="#hl"/>
<use x="626.80" y="279.40" xlink:href="#hd"/>
<path d="M630.30 279.40v-21.00" class="stroke"/>
<use x="664.90" y="273.40" xlink:href="#hd"/>
<path d="M668.40 273.40v-21.00" class="stroke"/>
</g>
<g stroke-width="0.70" style="font:bold 13.00px Times">
<path class="stroke" stroke-width="1"
	d="M10.00 401.40v-82.00"/>
<g transform="translate(10.00,319.40) scale(1,0.82)">
	<use xlink:href="#brace"/>
</g>
<path class="stroke" stroke-width="1"
	d="M179.50 343.40v-24.00"/>
<path class="stroke" stroke-width="1"
	d="M179.50 401.40v-24.00"/>
<path class="stroke" stroke-width="1"
	d="M273.30 343.40v-24.00"/>
<path class="stroke" stroke-width="1"
	d="M273.30 401.40v-24.00"/>
<path class="stroke" stroke-width="1"
	d="M407.00 343.40v-24.00"/>
<path class="stroke" stroke-width="1"
	d="M407.00 401.40v-24.00"/>
<path class="stroke" stroke-width="1"
	d="M460.80 343.40v-24.00"/>
<path class="stroke" stroke-width="1"
	d="M460.80 401.40v-24.00"/>
<path d="m10.00 343.40
	h450.80
	M10.00 337.40
	h450.80
	M10.00 331.40
	h450.80
	M10.00 325.40
	h450.80
	M10.00 319.40
	h450.80
	" class="stroke"/>
<path d="m10.00 401.40
	h450.80
	M10.00 395.40
	h450.80
	M10.00 389.40
	h450.80
	M10.00 383.40
	h450.80
	M10.00 377.40
	h450.80
	" class="stroke"/>
</g>
<g stroke-width="0.70" style="font:bold 13.00px Times">
<text x="69.70" y="314.80">I</text>
</g>
<g stroke-width="0.70" style="font:bold 13.00px Times">
<text x="192.10" y="309.80">i</text>
</g>
<g stroke-width="0.70" style="font:bold 13.00px Times">
<text x="283.90" y="314.80">i<tspan
	 style="font:italic 11.00px Times">¹</tspan></text>
</g>
<g stroke-width="0.70" style="font:bold 13.00px Times">
<text x="417.20" y="314.80">V</text>
<use x="22.00" y="337.40" xlink:href="#tclef"/>
<use x="37.00" y="319.40" xlink:href="#sh0"/>
<use x="42.50" y="328.40" xlink:href="#sh0"/>
<use x="48.00" y="316.40" xlink:href="#sh0"/>
<use x="53.50" y="325.40" xlink:href="#sh0"/>
<use x="71.50" y="343.40" xlink:href="#hd"/>
<path d="M75.00 343.40v-21.00" class="stroke"/>
<use x="111.50" y="337.40" xlink:href="#Hd"/>
<path d="M115.00 337.40v-21.00" class="stroke"/>
<use x="193.60" y="337.40" xlink:href="#hd"/>
<path d="M197.10 337.40v-21.00" class="stroke"/>
<use x="233.60" y="340.40" xlink:href="#Hd"/>
<path d="M237.10 340.40v-21.00" class="stroke"/>
<use x="287.40" y="343.40" xlink:href="#hd"/>
<path d="M290.90 343.40v-21.00" class="stroke"/>
<use x="327.40" y="343.40" xlink:href="#hd"/>
<path d="M330.90 343.40v-21.00" class="stroke"/>
<use x="367.40" y="346.40" xlink:href="#Hd"/>
<path d="M370.90 346.40v-21.00" class="stroke"/>
<use x="421.20" y="349.40" xlink:href="#hl"/>
<use x="421.20" y="349.40" xlink:href="#Hd"/>
<path d="M424.70 349.40v-21.00" class="stroke"/>
<use x="22.00" y="383.40" xlink:href="#bclef"/>
<use x="37.00" y="383.40" xlink:href="#sh0"/>
<use x="42.50" y="392.40" xlink:href="#sh0"/>
<use x="48.00" y="380.40" xlink:href="#sh0"/>
<use x="53.50" y="389.40" xlink:href="#sh0"/>
<use x="71.50" y="407.40" xlink:href="#hl"/>
<use x="71.50" y="407.40" xlink:href="#hd"/>
<path d="M75.00 407.40v-21.00" class="stroke"/>
<use x="111.50" y="401.40" xlink:href="#hd"/>
<path d="M115.00 401.40v-21.00" class="stroke"/>
<use x="151.50" y="395.40" xlink:href="#hd"/>
<path d="M155.00 395.40v-21.00" class="stroke"/>
<use x="193.60" y="380.40" xlink:href="#Hd"/>
<circle class="fill" cx="202.30" cy="380.40" r="1.2"/>
<path d="M190.10 380.40v31.00" class="stroke"/>
<use x="193.60" y="392.40" xlink:href="#Hd"/>
<circle class="fill" cx="202.30" cy="392.40" r="1.2"/>
<use x="193.60" y="386.40" xlink:href="#Hd"/>
<circle class="fill" cx="202.30" cy="386.40" r="1.2"/>
<use x="288.40" y="380.40" xlink:href="#HD"/>
<use x="288.40" y="392.40" xlink:href="#HD"/>
<use x="288.40" y="386.40" xlink:href="#HD"/>
<use x="421.20" y="401.40" xlink:href="#Hd"/>
<path d="M424.70 401.40v-31.00" class="stroke"/>
<use x="421.20" y="395.40" xlink:href="#Hd"/>
<use x="421.20" y="389.40" xlink:href="#Hd"/>
</g>
</svg>
