<?xml version="1.0" standalone="no"?>
<!DOCTYPE svg PUBLIC "-//W3C//DTD SVG 1.1//EN"
	"http://www.w3.org/Graphics/SVG/1.1/DTD/svg11.dtd">
<svg xmlns="http://www.w3.org/2000/svg" version="1.1"
	xmlns:xlink="http://www.w3.org/1999/xlink"
	color="black"
	width="701.60px" height="424.40px" viewBox="0 0 701.60 424.40" preserveAspectRatio="xMidYMid meet">
<style type="text/css">
.fill {fill: currentColor}
.stroke {stroke: currentColor; fill: none}
text{white-space: pre}
</style>
<title>/tmp/retab_hymnal_L4/our_father_thou_in_heaven_above.abc (1) tune 1</title>
<!-- Creator: abcm2ps-8.14.11 -->
<!-- CreationDate: Apr 24, 2026 15:38 -->
<!-- CommandLine: /tmp/retab_hymnal_L4/our_father_thou_in_heaven_above.abc -g -O /tmp/retab_hymnal_L4/our_father_thou_in_heaven_above -->
<g stroke-width="0.70">
<!-- title: 198. Our Father Thou in Heaven Above -->
</g>
<g stroke-width="0.70" style="font:20.00px Times">
<text x="350.80" y="22.00" text-anchor="middle">198. Our Father Thou in Heaven Above</text>
</g>
<g stroke-width="0.70" style="font:20.00px Times">
<path class="stroke" stroke-width="1"
	d="M10.00 143.00v-82.00"/>
<defs>
<path id="brace" class="fill" d="m-2.5 101
	c-4.5 -4.6 -7.5 -12.2 -4.4 -26.8
	3.5 -14.3 3.2 -21.7 -2.1 -24.2
	7.4 2.4 7.3 14.2 3.5 29.5
	-2.7 9.5 -1.5 16.2 3 21.5
	M-2.5 1c-4.5 4.6 -7.5 12.2 -4.4 26.8
	c3.5 14.3 3.2 21.7 -2.1 24.2
	7.4 -2.4 7.3 -14.2 3.5 -29.5
	-2.7 -9.5 -1.5 -16.2 3 -21.5"/>
</defs>
<g transform="translate(10.00,61.00) scale(1,0.82)">
	<use xlink:href="#brace"/>
</g>
<path class="stroke" stroke-width="1"
	d="M172.00 85.00v-24.00"/>
<path class="stroke" stroke-width="1"
	d="M172.00 143.00v-24.00"/>
<path class="stroke" stroke-width="1"
	d="M291.30 85.00v-24.00"/>
<path class="stroke" stroke-width="1"
	d="M291.30 143.00v-24.00"/>
<path class="stroke" stroke-width="1"
	d="M373.50 85.00v-24.00"/>
<path class="stroke" stroke-width="1"
	d="M373.50 143.00v-24.00"/>
<path class="stroke" stroke-width="1"
	d="M491.30 85.00v-24.00"/>
<path class="stroke" stroke-width="1"
	d="M491.30 143.00v-24.00"/>
<path class="stroke" stroke-width="1"
	d="M588.90 85.00v-24.00"/>
<path class="stroke" stroke-width="1"
	d="M588.90 143.00v-24.00"/>
<path class="stroke" stroke-width="1"
	d="M691.60 85.00v-24.00"/>
<path class="stroke" stroke-width="1"
	d="M691.60 143.00v-24.00"/>
<path d="m10.00 85.00
	h681.60
	M10.00 79.00
	h681.60
	M10.00 73.00
	h681.60
	M10.00 67.00
	h681.60
	M10.00 61.00
	h681.60
	" class="stroke"/>
<path d="m10.00 143.00
	h681.60
	M10.00 137.00
	h681.60
	M10.00 131.00
	h681.60
	M10.00 125.00
	h681.60
	M10.00 119.00
	h681.60
	" class="stroke"/>
</g>
<g stroke-width="0.70" style="font:bold 13.00px Times">
<text x="82.00" y="51.40">i</text>
</g>
<g stroke-width="0.70" style="font:bold 13.00px Times">
<text x="182.00" y="54.40">V</text>
</g>
<g stroke-width="0.70" style="font:bold 13.00px Times">
<text x="303.80" y="56.40">i</text>
</g>
<g stroke-width="0.70" style="font:bold 13.00px Times">
<text x="382.10" y="51.40">V</text>
</g>
<g stroke-width="0.70" style="font:bold 13.00px Times">
<text x="502.00" y="56.40">I</text>
</g>
<g stroke-width="0.70" style="font:bold 13.00px Times">
<text x="601.40" y="51.40">i</text>
<defs>
<path id="utclef" class="fill" d="m-50 -90
	c-72 -41 -72 -158 52 -188
	150 -10 220 188 90 256
	-114 52 -275 0 -293 -136
	-15 -181 93 -229 220 -334
	88 -87 79 -133 62 -210
	-51 33 -94 105 -89 186
	17 267 36 374 49 574
	6 96 -19 134 -77 135
	-80 1 -126 -93 -61 -133
	85 -41 133 101 31 105
	23 17 92 37 90 -92
	-10 -223 -39 -342 -50 -617
	0 -90 0 -162 96 -232
	56 72 63 230 22 289
	-74 106 -257 168 -255 316
	9 153 148 185 252 133
	86 -65 29 -192 -80 -176
	-71 12 -105 67 -59 124"/>
<use id="tclef" transform="translate(0,6) scale(0.045)"
	xlink:href="#utclef"/>
</defs>
<use x="22.00" y="79.00" xlink:href="#tclef"/>
<defs>
<path id="uflat" class="fill" d="
	m100 -746
	h32
	v734
	l-32 4
	m32 -332
	c46 -72 152 -90 208 -20
	100 110 -120 326 -208 348
	m0 -28
	c54 0 200 -206 130 -290
	-50 -60 -130 -4 -130 34"/>
<use id="ft0" transform="translate(-3.5,3.5) scale(0.018)"
	xlink:href="#uflat"/>
</defs>
<use x="37.00" y="73.00" xlink:href="#ft0"/>
<use x="42.50" y="64.00" xlink:href="#ft0"/>
<use x="48.00" y="76.00" xlink:href="#ft0"/>
<g style="font:bold 16px serif"
	transform="translate(64.00,84.50) scale(1.2,1)">
	<text text-anchor="middle">4</text>
	<text y="-12" text-anchor="middle">4</text>
</g>
<defs>
<path id="Hd" class="fill" d="m3 -1.6
	c-1 -1.8 -7 1.4 -6 3.2
	1 1.8 7 -1.4 6 -3.2
	m0.5 -0.3
	c2 3.8 -5 7.6 -7 3.8
	-2 -3.8 5 -7.6 7 -3.8"/>
</defs>
<use x="83.50" y="79.00" xlink:href="#Hd"/>
<path d="M87.00 79.00v-21.00" class="stroke"/>
<defs>
<ellipse id="hd" rx="4.1" ry="2.9"
	transform="rotate(-20)" class="fill"/>
</defs>
<use x="123.30" y="79.00" xlink:href="#hd"/>
<path d="M126.80 79.00v-21.00" class="stroke"/>
<use x="151.60" y="85.00" xlink:href="#hd"/>
<path d="M155.10 85.00v-21.00" class="stroke"/>
<use x="186.00" y="82.00" xlink:href="#hd"/>
<path d="M189.50 82.00v-21.00" class="stroke"/>
<use x="214.30" y="79.00" xlink:href="#hd"/>
<path d="M217.80 79.00v-21.00" class="stroke"/>
<use x="242.60" y="85.00" xlink:href="#hd"/>
<path d="M246.10 85.00v-21.00" class="stroke"/>
<use x="270.90" y="88.00" xlink:href="#hd"/>
<path d="M274.40 88.00v-21.00" class="stroke"/>
<defs>
<path id="hl" class="stroke" d="m-6 0h12"/>
</defs>
<use x="305.30" y="91.00" xlink:href="#hl"/>
<use x="305.30" y="91.00" xlink:href="#Hd"/>
<path d="M308.80 91.00v-21.00" class="stroke"/>
<use x="345.10" y="79.00" xlink:href="#Hd"/>
<path d="M348.60 79.00v-21.00" class="stroke"/>
<use x="386.00" y="79.00" xlink:href="#hd"/>
<path d="M389.50 79.00v-21.00" class="stroke"/>
<use x="414.30" y="82.00" xlink:href="#hd"/>
<path d="M417.80 82.00v-21.00" class="stroke"/>
<use x="442.70" y="73.00" xlink:href="#hd"/>
<path d="M446.20 73.00v-21.00" class="stroke"/>
<use x="471.00" y="79.00" xlink:href="#hd"/>
<path d="M474.50 79.00v-21.00" class="stroke"/>
<use x="503.80" y="85.00" xlink:href="#hd"/>
<path d="M507.30 85.00v-21.00" class="stroke"/>
<use x="532.20" y="82.00" xlink:href="#hd"/>
<path d="M535.70 82.00v-21.00" class="stroke"/>
<use x="560.50" y="79.00" xlink:href="#Hd"/>
<path d="M564.00 79.00v-21.00" class="stroke"/>
<use x="602.90" y="79.00" xlink:href="#Hd"/>
<path d="M606.40 79.00v-21.00" class="stroke"/>
<use x="642.70" y="73.00" xlink:href="#hd"/>
<path d="M646.20 73.00v-21.00" class="stroke"/>
<use x="671.20" y="70.00" xlink:href="#hd"/>
<path d="M667.70 70.00v21.00" class="stroke"/>
<defs>
<path id="ubclef" class="fill" d="m-200 -87
	c124 -35 222 -78 254 -236
	43 -228 -167 -246 -192 -103
	59 -80 157 22 92 78
	-62 47 -115 -22 -106 -88
	21 -141 270 -136 274 52
	-1 175 -106 264 -322 297
	m357 -250
	c0 -36 51 -34 51 0
	0 37 -51 36 -51 0
	m-2 -129
	c0 -36 51 -34 51 0
	0 38 -51 37 -51 0"/>
<use id="bclef" transform="translate(0,18) scale(0.045)"
	xlink:href="#ubclef"/>
</defs>
<use x="22.00" y="125.00" xlink:href="#bclef"/>
<use x="37.00" y="137.00" xlink:href="#ft0"/>
<use x="42.50" y="128.00" xlink:href="#ft0"/>
<use x="48.00" y="140.00" xlink:href="#ft0"/>
<g style="font:bold 16px serif"
	transform="translate(64.00,142.50) scale(1.2,1)">
	<text text-anchor="middle">4</text>
	<text y="-12" text-anchor="middle">4</text>
</g>
<defs>
<path id="HD" class="fill" d="m-2.7 -1.4
	c1.5 -2.8 6.9 0 5.3 2.7
	-1.5 2.8 -6.9 0 -5.3 -2.7
	m8.3 1.4
	c0 -1.5 -2.2 -3 -5.6 -3
	-3.4 0 -5.6 1.5 -5.6 3
	0 1.5 2.2 3 5.6 3
	3.4 0 5.6 -1.5 5.6 -3"/>
</defs>
<use x="84.50" y="122.00" xlink:href="#HD"/>
<use x="84.50" y="134.00" xlink:href="#HD"/>
<use x="84.50" y="128.00" xlink:href="#HD"/>
<use x="187.00" y="143.00" xlink:href="#HD"/>
<use x="187.00" y="137.00" xlink:href="#HD"/>
<use x="187.00" y="131.00" xlink:href="#HD"/>
<use x="306.30" y="122.00" xlink:href="#HD"/>
<use x="306.30" y="134.00" xlink:href="#HD"/>
<use x="306.30" y="128.00" xlink:href="#HD"/>
<use x="386.00" y="143.00" xlink:href="#hd"/>
<path d="M389.50 143.00v-21.00" class="stroke"/>
<use x="414.30" y="137.00" xlink:href="#hd"/>
<path d="M417.80 137.00v-21.00" class="stroke"/>
<use x="442.70" y="131.00" xlink:href="#hd"/>
<path d="M446.20 131.00v-21.00" class="stroke"/>
<use x="471.00" y="137.00" xlink:href="#hd"/>
<path d="M474.50 137.00v-21.00" class="stroke"/>
<use x="503.80" y="149.00" xlink:href="#hl"/>
<use x="503.80" y="149.00" xlink:href="#hd"/>
<path d="M507.30 149.00v-21.00" class="stroke"/>
<use x="532.20" y="143.00" xlink:href="#hd"/>
<path d="M535.70 143.00v-21.00" class="stroke"/>
<use x="560.50" y="137.00" xlink:href="#Hd"/>
<path d="M564.00 137.00v-21.00" class="stroke"/>
<use x="603.90" y="122.00" xlink:href="#HD"/>
<use x="603.90" y="134.00" xlink:href="#HD"/>
<use x="603.90" y="128.00" xlink:href="#HD"/>
</g>
<g stroke-width="0.70" style="font:bold 13.00px Times">
<path class="stroke" stroke-width="1"
	d="M10.00 273.40v-82.00"/>
<g transform="translate(10.00,191.40) scale(1,0.82)">
	<use xlink:href="#brace"/>
</g>
<path class="stroke" stroke-width="1"
	d="M166.70 215.40v-24.00"/>
<path class="stroke" stroke-width="1"
	d="M166.70 273.40v-24.00"/>
<path class="stroke" stroke-width="1"
	d="M279.20 215.40v-24.00"/>
<path class="stroke" stroke-width="1"
	d="M279.20 273.40v-24.00"/>
<path class="stroke" stroke-width="1"
	d="M390.90 215.40v-24.00"/>
<path class="stroke" stroke-width="1"
	d="M390.90 273.40v-24.00"/>
<path class="stroke" stroke-width="1"
	d="M485.10 215.40v-24.00"/>
<path class="stroke" stroke-width="1"
	d="M485.10 273.40v-24.00"/>
<path class="stroke" stroke-width="1"
	d="M579.80 215.40v-24.00"/>
<path class="stroke" stroke-width="1"
	d="M579.80 273.40v-24.00"/>
<path class="stroke" stroke-width="1"
	d="M691.60 215.40v-24.00"/>
<path class="stroke" stroke-width="1"
	d="M691.60 273.40v-24.00"/>
<path d="m10.00 215.40
	h681.60
	M10.00 209.40
	h681.60
	M10.00 203.40
	h681.60
	M10.00 197.40
	h681.60
	M10.00 191.40
	h681.60
	" class="stroke"/>
<path d="m10.00 273.40
	h681.60
	M10.00 267.40
	h681.60
	M10.00 261.40
	h681.60
	M10.00 255.40
	h681.60
	M10.00 249.40
	h681.60
	" class="stroke"/>
</g>
<g stroke-width="0.70" style="font:bold 13.00px Times">
<text x="62.00" y="185.80">III</text>
</g>
<g stroke-width="0.70" style="font:bold 13.00px Times">
<text x="178.20" y="186.80">i</text>
</g>
<g stroke-width="0.70" style="font:bold 13.00px Times">
<text x="285.50" y="184.80">iv<tspan
	 style="font:italic 11.00px Times">¹</tspan></text>
</g>
<g stroke-width="0.70" style="font:bold 13.00px Times">
<text x="401.00" y="181.80">V</text>
</g>
<g stroke-width="0.70" style="font:bold 13.00px Times">
<text x="494.80" y="186.80">iv</text>
</g>
<g stroke-width="0.70" style="font:bold 13.00px Times">
<text x="588.40" y="175.80">V</text>
<use x="22.00" y="209.40" xlink:href="#tclef"/>
<use x="37.00" y="203.40" xlink:href="#ft0"/>
<use x="42.50" y="194.40" xlink:href="#ft0"/>
<use x="48.00" y="206.40" xlink:href="#ft0"/>
<use x="67.50" y="194.40" xlink:href="#hd"/>
<path d="M64.00 194.40v21.00" class="stroke"/>
<use x="94.20" y="197.40" xlink:href="#hd"/>
<path d="M90.70 197.40v21.00" class="stroke"/>
<use x="120.80" y="200.40" xlink:href="#hd"/>
<path d="M117.30 200.40v21.00" class="stroke"/>
<use x="147.50" y="203.40" xlink:href="#hd"/>
<path d="M144.00 203.40v21.00" class="stroke"/>
<use x="179.70" y="200.40" xlink:href="#Hd"/>
<path d="M176.20 200.40v21.00" class="stroke"/>
<use x="233.30" y="200.40" xlink:href="#Hd"/>
<path d="M229.80 200.40v21.00" class="stroke"/>
<use x="291.70" y="197.40" xlink:href="#hd"/>
<path d="M288.20 197.40v21.00" class="stroke"/>
<use x="318.30" y="200.40" xlink:href="#hd"/>
<path d="M314.80 200.40v21.00" class="stroke"/>
<use x="345.00" y="203.40" xlink:href="#hd"/>
<path d="M341.50 203.40v21.00" class="stroke"/>
<use x="371.70" y="206.40" xlink:href="#hd"/>
<path d="M375.20 206.40v-21.00" class="stroke"/>
<use x="404.90" y="209.40" xlink:href="#hd"/>
<path d="M408.40 209.40v-21.00" class="stroke"/>
<use x="431.60" y="212.40" xlink:href="#hd"/>
<path d="M435.10 212.40v-21.00" class="stroke"/>
<use x="458.30" y="209.40" xlink:href="#Hd"/>
<path d="M461.80 209.40v-21.00" class="stroke"/>
<use x="499.10" y="200.40" xlink:href="#Hd"/>
<path d="M495.60 200.40v21.00" class="stroke"/>
<use x="536.50" y="203.40" xlink:href="#hd"/>
<path d="M533.00 203.40v21.00" class="stroke"/>
<use x="560.60" y="206.40" xlink:href="#hd"/>
<path d="M564.10 206.40v-21.00" class="stroke"/>
<use x="592.30" y="203.40" xlink:href="#hd"/>
<path d="M595.80 203.40v-21.00" class="stroke"/>
<use x="619.00" y="209.40" xlink:href="#hd"/>
<path d="M622.50 209.40v-21.00" class="stroke"/>
<use x="645.70" y="209.40" xlink:href="#hd"/>
<path d="M649.20 209.40v-21.00" class="stroke"/>
<use x="672.40" y="212.40" xlink:href="#hd"/>
<path d="M675.90 212.40v-21.00" class="stroke"/>
<use x="22.00" y="255.40" xlink:href="#bclef"/>
<use x="37.00" y="267.40" xlink:href="#ft0"/>
<use x="42.50" y="258.40" xlink:href="#ft0"/>
<use x="48.00" y="270.40" xlink:href="#ft0"/>
<defs>
<path id="hl1" class="stroke" d="m-7 0h14"/>
</defs>
<use x="68.50" y="279.40" xlink:href="#hl1"/>
<use x="68.50" y="279.40" xlink:href="#HD"/>
<use x="68.50" y="273.40" xlink:href="#HD"/>
<use x="68.50" y="267.40" xlink:href="#HD"/>
<use x="179.70" y="264.40" xlink:href="#hd"/>
<path d="M183.20 264.40v-21.00" class="stroke"/>
<use x="206.60" y="258.40" xlink:href="#hd"/>
<path d="M203.10 258.40v21.00" class="stroke"/>
<use x="233.30" y="252.40" xlink:href="#hd"/>
<path d="M229.80 252.40v21.00" class="stroke"/>
<use x="259.90" y="258.40" xlink:href="#hd"/>
<path d="M256.40 258.40v21.00" class="stroke"/>
<use x="291.70" y="276.40" xlink:href="#hd"/>
<path d="M295.20 276.40v-21.00" class="stroke"/>
<use x="318.30" y="270.40" xlink:href="#hd"/>
<path d="M321.80 270.40v-21.00" class="stroke"/>
<use x="345.00" y="264.40" xlink:href="#Hd"/>
<path d="M348.50 264.40v-21.00" class="stroke"/>
<use x="405.90" y="273.40" xlink:href="#HD"/>
<use x="405.90" y="267.40" xlink:href="#HD"/>
<use x="405.90" y="261.40" xlink:href="#HD"/>
<use x="500.10" y="276.40" xlink:href="#HD"/>
<use x="500.10" y="270.40" xlink:href="#HD"/>
<use x="500.10" y="264.40" xlink:href="#HD"/>
<use x="592.30" y="273.40" xlink:href="#hd"/>
<path d="M595.80 273.40v-21.00" class="stroke"/>
<use x="619.00" y="267.40" xlink:href="#hd"/>
<path d="M622.50 267.40v-21.00" class="stroke"/>
<use x="645.70" y="261.40" xlink:href="#Hd"/>
<path d="M649.20 261.40v-21.00" class="stroke"/>
</g>
<g stroke-width="0.70" style="font:bold 13.00px Times">
<path class="stroke" stroke-width="1"
	d="M10.00 401.40v-82.00"/>
<g transform="translate(10.00,319.40) scale(1,0.82)">
	<use xlink:href="#brace"/>
</g>
<path class="stroke" stroke-width="1"
	d="M163.70 343.40v-24.00"/>
<path class="stroke" stroke-width="1"
	d="M163.70 401.40v-24.00"/>
<path class="stroke" stroke-width="1"
	d="M325.90 343.40v-24.00"/>
<path class="stroke" stroke-width="1"
	d="M325.90 401.40v-24.00"/>
<path class="stroke" stroke-width="1"
	d="M459.60 343.40v-24.00"/>
<path class="stroke" stroke-width="1"
	d="M459.60 401.40v-24.00"/>
<path d="m10.00 343.40
	h449.60
	M10.00 337.40
	h449.60
	M10.00 331.40
	h449.60
	M10.00 325.40
	h449.60
	M10.00 319.40
	h449.60
	" class="stroke"/>
<path d="m10.00 401.40
	h449.60
	M10.00 395.40
	h449.60
	M10.00 389.40
	h449.60
	M10.00 383.40
	h449.60
	M10.00 377.40
	h449.60
	" class="stroke"/>
</g>
<g stroke-width="0.70" style="font:bold 13.00px Times">
<text x="62.00" y="314.80">III</text>
</g>
<g stroke-width="0.70" style="font:bold 13.00px Times">
<text x="173.90" y="306.80">V</text>
</g>
<g stroke-width="0.70" style="font:bold 13.00px Times">
<text x="338.50" y="314.80">i</text>
<use x="22.00" y="337.40" xlink:href="#tclef"/>
<use x="37.00" y="331.40" xlink:href="#ft0"/>
<use x="42.50" y="322.40" xlink:href="#ft0"/>
<use x="48.00" y="334.40" xlink:href="#ft0"/>
<use x="67.50" y="343.40" xlink:href="#Hd"/>
<path d="M71.00 343.40v-21.00" class="stroke"/>
<use x="124.10" y="337.40" xlink:href="#Hd"/>
<path d="M127.60 337.40v-21.00" class="stroke"/>
<use x="177.90" y="334.40" xlink:href="#hd"/>
<path d="M181.40 334.40v-21.00" class="stroke"/>
<use x="217.90" y="337.40" xlink:href="#hd"/>
<path d="M221.40 337.40v-21.00" class="stroke"/>
<use x="257.90" y="343.40" xlink:href="#hd"/>
<path d="M261.40 343.40v-21.00" class="stroke"/>
<use x="297.90" y="340.40" xlink:href="#hd"/>
<path d="M301.40 340.40v-21.00" class="stroke"/>
<use x="340.00" y="343.40" xlink:href="#hd"/>
<path d="M343.50 343.40v-21.00" class="stroke"/>
<use x="380.00" y="346.40" xlink:href="#hd"/>
<path d="M383.50 346.40v-21.00" class="stroke"/>
<use x="420.00" y="349.40" xlink:href="#hl"/>
<use x="420.00" y="349.40" xlink:href="#Hd"/>
<path d="M423.50 349.40v-21.00" class="stroke"/>
<use x="22.00" y="383.40" xlink:href="#bclef"/>
<use x="37.00" y="395.40" xlink:href="#ft0"/>
<use x="42.50" y="386.40" xlink:href="#ft0"/>
<use x="48.00" y="398.40" xlink:href="#ft0"/>
<use x="68.50" y="407.40" xlink:href="#hl1"/>
<use x="68.50" y="407.40" xlink:href="#HD"/>
<use x="68.50" y="401.40" xlink:href="#HD"/>
<use x="68.50" y="395.40" xlink:href="#HD"/>
<use x="178.90" y="401.40" xlink:href="#HD"/>
<use x="178.90" y="395.40" xlink:href="#HD"/>
<use x="178.90" y="389.40" xlink:href="#HD"/>
<use x="341.00" y="380.40" xlink:href="#HD"/>
<use x="341.00" y="392.40" xlink:href="#HD"/>
<use x="341.00" y="386.40" xlink:href="#HD"/>
</g>
</svg>
