<?xml version="1.0" standalone="no"?>
<!DOCTYPE svg PUBLIC "-//W3C//DTD SVG 1.1//EN"
	"http://www.w3.org/Graphics/SVG/1.1/DTD/svg11.dtd">
<svg xmlns="http://www.w3.org/2000/svg" version="1.1"
	xmlns:xlink="http://www.w3.org/1999/xlink"
	color="black"
	width="701.60px" height="552.40px" viewBox="0 0 701.60 552.40" preserveAspectRatio="xMidYMid meet">
<style type="text/css">
.fill {fill: currentColor}
.stroke {stroke: currentColor; fill: none}
text{white-space: pre}
</style>
<title>/tmp/retab_hymnal_L4/over_kidron_jesus_treadeth.abc (1) tune 1</title>
<!-- Creator: abcm2ps-8.14.11 -->
<!-- CreationDate: Apr 24, 2026 15:38 -->
<!-- CommandLine: /tmp/retab_hymnal_L4/over_kidron_jesus_treadeth.abc -g -O /tmp/retab_hymnal_L4/over_kidron_jesus_treadeth -->
<g stroke-width="0.70">
<!-- title: 201. Over Kidron Jesus Treadeth -->
</g>
<g stroke-width="0.70" style="font:20.00px Times">
<text x="350.80" y="22.00" text-anchor="middle">201. Over Kidron Jesus Treadeth</text>
</g>
<g stroke-width="0.70" style="font:20.00px Times">
<path class="stroke" stroke-width="1"
	d="M10.00 143.00v-82.00"/>
<defs>
<path id="brace" class="fill" d="m-2.5 101
	c-4.5 -4.6 -7.5 -12.2 -4.4 -26.8
	3.5 -14.3 3.2 -21.7 -2.1 -24.2
	7.4 2.4 7.3 14.2 3.5 29.5
	-2.7 9.5 -1.5 16.2 3 21.5
	M-2.5 1c-4.5 4.6 -7.5 12.2 -4.4 26.8
	c3.5 14.3 3.2 21.7 -2.1 24.2
	7.4 -2.4 7.3 -14.2 3.5 -29.5
	-2.7 -9.5 -1.5 -16.2 3 -21.5"/>
</defs>
<g transform="translate(10.00,61.00) scale(1,0.82)">
	<use xlink:href="#brace"/>
</g>
<path class="stroke" stroke-width="1"
	d="M196.20 85.00v-24.00"/>
<path class="stroke" stroke-width="1"
	d="M196.20 143.00v-24.00"/>
<path class="stroke" stroke-width="1"
	d="M318.80 85.00v-24.00"/>
<path class="stroke" stroke-width="1"
	d="M318.80 143.00v-24.00"/>
<path class="stroke" stroke-width="1"
	d="M452.30 85.00v-24.00"/>
<path class="stroke" stroke-width="1"
	d="M452.30 143.00v-24.00"/>
<path class="stroke" stroke-width="1"
	d="M570.40 85.00v-24.00"/>
<path class="stroke" stroke-width="1"
	d="M570.40 143.00v-24.00"/>
<path class="stroke" stroke-width="1"
	d="M691.60 85.00v-24.00"/>
<path class="stroke" stroke-width="1"
	d="M691.60 143.00v-24.00"/>
<path d="m10.00 85.00
	h681.60
	M10.00 79.00
	h681.60
	M10.00 73.00
	h681.60
	M10.00 67.00
	h681.60
	M10.00 61.00
	h681.60
	" class="stroke"/>
<path d="m10.00 143.00
	h681.60
	M10.00 137.00
	h681.60
	M10.00 131.00
	h681.60
	M10.00 125.00
	h681.60
	M10.00 119.00
	h681.60
	" class="stroke"/>
</g>
<g stroke-width="0.70" style="font:bold 13.00px Times">
<text x="87.50" y="56.40">i</text>
</g>
<g stroke-width="0.70" style="font:bold 13.00px Times">
<text x="205.20" y="48.40">i<tspan
	 style="font:italic 11.00px Times">¹</tspan></text>
</g>
<g stroke-width="0.70" style="font:bold 13.00px Times">
<text x="329.80" y="54.40">i</text>
</g>
<g stroke-width="0.70" style="font:bold 13.00px Times">
<text x="457.40" y="56.40">III<tspan
	 style="font:italic 11.00px Times">¹</tspan></text>
</g>
<g stroke-width="0.70" style="font:bold 13.00px Times">
<text x="580.90" y="56.40">i<tspan
	 style="font:italic 11.00px Times">¹</tspan></text>
</g>
<g stroke-width="0.70" style="font:italic 11.00px Times">
<defs>
<path id="utclef" class="fill" d="m-50 -90
	c-72 -41 -72 -158 52 -188
	150 -10 220 188 90 256
	-114 52 -275 0 -293 -136
	-15 -181 93 -229 220 -334
	88 -87 79 -133 62 -210
	-51 33 -94 105 -89 186
	17 267 36 374 49 574
	6 96 -19 134 -77 135
	-80 1 -126 -93 -61 -133
	85 -41 133 101 31 105
	23 17 92 37 90 -92
	-10 -223 -39 -342 -50 -617
	0 -90 0 -162 96 -232
	56 72 63 230 22 289
	-74 106 -257 168 -255 316
	9 153 148 185 252 133
	86 -65 29 -192 -80 -176
	-71 12 -105 67 -59 124"/>
<use id="tclef" transform="translate(0,6) scale(0.045)"
	xlink:href="#utclef"/>
</defs>
<use x="22.00" y="79.00" xlink:href="#tclef"/>
<defs>
<path id="uflat" class="fill" d="
	m100 -746
	h32
	v734
	l-32 4
	m32 -332
	c46 -72 152 -90 208 -20
	100 110 -120 326 -208 348
	m0 -28
	c54 0 200 -206 130 -290
	-50 -60 -130 -4 -130 34"/>
<use id="ft0" transform="translate(-3.5,3.5) scale(0.018)"
	xlink:href="#uflat"/>
</defs>
<use x="37.00" y="73.00" xlink:href="#ft0"/>
<use x="42.50" y="64.00" xlink:href="#ft0"/>
<use x="48.00" y="76.00" xlink:href="#ft0"/>
<use x="53.50" y="67.00" xlink:href="#ft0"/>
<g style="font:bold 16px serif"
	transform="translate(69.50,84.50) scale(1.2,1)">
	<text text-anchor="middle">4</text>
	<text y="-12" text-anchor="middle">4</text>
</g>
<defs>
<ellipse id="hd" rx="4.1" ry="2.9"
	transform="rotate(-20)" class="fill"/>
</defs>
<use x="89.00" y="70.00" xlink:href="#hd"/>
<path d="M85.50 70.00v21.00" class="stroke"/>
<use x="118.60" y="73.00" xlink:href="#hd"/>
<path d="M115.10 73.00v21.00" class="stroke"/>
<use x="145.40" y="76.00" xlink:href="#hd"/>
<path d="M148.90 76.00v-21.00" class="stroke"/>
<use x="175.00" y="82.00" xlink:href="#hd"/>
<path d="M178.50 82.00v-21.00" class="stroke"/>
<use x="208.70" y="76.00" xlink:href="#hd"/>
<path d="M212.20 76.00v-21.00" class="stroke"/>
<use x="238.40" y="79.00" xlink:href="#hd"/>
<path d="M241.90 79.00v-21.00" class="stroke"/>
<use x="268.00" y="85.00" xlink:href="#hd"/>
<path d="M271.50 85.00v-21.00" class="stroke"/>
<defs>
<path id="hl" class="stroke" d="m-6 0h12"/>
</defs>
<use x="297.70" y="91.00" xlink:href="#hl"/>
<use x="297.70" y="91.00" xlink:href="#hd"/>
<path d="M301.20 91.00v-21.00" class="stroke"/>
<use x="331.30" y="82.00" xlink:href="#hd"/>
<circle class="fill" cx="339.00" cy="82.00" r="1.2"/>
<path d="M334.80 82.00v-21.00" class="stroke"/>
<use x="380.00" y="79.00" xlink:href="#hd"/>
<path d="M383.50 79.00v-21.00" class="stroke"/>
<path class="fill"
	d="M383.50 58.00c0.6 5.6 9.6 9 5.6 18.4
	1.6 -6 -1.3 -11.6 -5.6 -12.8
"/>
<use x="401.50" y="76.00" xlink:href="#hd"/>
<path d="M405.00 76.00v-21.00" class="stroke"/>
<use x="431.10" y="79.00" xlink:href="#hd"/>
<path d="M434.60 79.00v-21.00" class="stroke"/>
<use x="464.80" y="70.00" xlink:href="#hd"/>
<path d="M461.30 70.00v21.00" class="stroke"/>
<use x="494.40" y="73.00" xlink:href="#hd"/>
<path d="M490.90 73.00v21.00" class="stroke"/>
<use x="524.30" y="76.00" xlink:href="#hd"/>
<circle class="fill" cx="532.00" cy="76.00" r="1.2"/>
<path d="M527.80 76.00v-21.00" class="stroke"/>
<defs>
<path id="r8e" class="fill" d="m 0 0
	c-1.5 1.5 -2.4 2 -3.6 2
	2.4 -2.8 -2.8 -4 -2.8 -1.2
	c0 2.7 4.3 2.4 5.9 0.6"/>
<g id="r8">
	<path d="m3.3 -4l-3.4 9.6" class="stroke"/>
	<use x="3.4" y="-4" xlink:href="#r8e"/>
</g>
</defs>
<use x="555.10" y="73.00" xlink:href="#r8"/>
<use x="584.40" y="70.00" xlink:href="#hd"/>
<path d="M580.90 70.00v21.00" class="stroke"/>
<use x="614.00" y="73.00" xlink:href="#hd"/>
<path d="M610.50 73.00v21.00" class="stroke"/>
<use x="640.80" y="76.00" xlink:href="#hd"/>
<path d="M644.30 76.00v-21.00" class="stroke"/>
<use x="670.40" y="82.00" xlink:href="#hd"/>
<path d="M673.90 82.00v-21.00" class="stroke"/>
<defs>
<path id="ubclef" class="fill" d="m-200 -87
	c124 -35 222 -78 254 -236
	43 -228 -167 -246 -192 -103
	59 -80 157 22 92 78
	-62 47 -115 -22 -106 -88
	21 -141 270 -136 274 52
	-1 175 -106 264 -322 297
	m357 -250
	c0 -36 51 -34 51 0
	0 37 -51 36 -51 0
	m-2 -129
	c0 -36 51 -34 51 0
	0 38 -51 37 -51 0"/>
<use id="bclef" transform="translate(0,18) scale(0.045)"
	xlink:href="#ubclef"/>
</defs>
<use x="22.00" y="125.00" xlink:href="#bclef"/>
<use x="37.00" y="137.00" xlink:href="#ft0"/>
<use x="42.50" y="128.00" xlink:href="#ft0"/>
<use x="48.00" y="140.00" xlink:href="#ft0"/>
<use x="53.50" y="131.00" xlink:href="#ft0"/>
<g style="font:bold 16px serif"
	transform="translate(69.50,142.50) scale(1.2,1)">
	<text text-anchor="middle">4</text>
	<text y="-12" text-anchor="middle">4</text>
</g>
<defs>
<path id="hl1" class="stroke" d="m-7 0h14"/>
</defs>
<use x="90.00" y="113.00" xlink:href="#hl1"/>
<defs>
<path id="HD" class="fill" d="m-2.7 -1.4
	c1.5 -2.8 6.9 0 5.3 2.7
	-1.5 2.8 -6.9 0 -5.3 -2.7
	m8.3 1.4
	c0 -1.5 -2.2 -3 -5.6 -3
	-3.4 0 -5.6 1.5 -5.6 3
	0 1.5 2.2 3 5.6 3
	3.4 0 5.6 -1.5 5.6 -3"/>
</defs>
<use x="90.00" y="113.00" xlink:href="#HD"/>
<use x="90.00" y="125.00" xlink:href="#HD"/>
<use x="90.00" y="119.00" xlink:href="#HD"/>
<use x="208.70" y="125.00" xlink:href="#hd"/>
<path d="M205.20 125.00v21.00" class="stroke"/>
<use x="238.40" y="119.00" xlink:href="#hd"/>
<path d="M234.90 119.00v21.00" class="stroke"/>
<use x="268.00" y="113.00" xlink:href="#hl"/>
<use x="268.00" y="113.00" xlink:href="#hd"/>
<path d="M264.50 113.00v21.00" class="stroke"/>
<use x="297.70" y="119.00" xlink:href="#hd"/>
<path d="M294.20 119.00v21.00" class="stroke"/>
<use x="331.30" y="125.00" xlink:href="#hd"/>
<path d="M327.80 125.00v21.00" class="stroke"/>
<use x="361.00" y="119.00" xlink:href="#hd"/>
<path d="M357.50 119.00v21.00" class="stroke"/>
<use x="401.50" y="113.00" xlink:href="#hl"/>
<use x="401.50" y="113.00" xlink:href="#hd"/>
<path d="M398.00 113.00v21.00" class="stroke"/>
<use x="431.10" y="119.00" xlink:href="#hd"/>
<path d="M427.60 119.00v21.00" class="stroke"/>
<use x="464.80" y="140.00" xlink:href="#hd"/>
<path d="M468.30 140.00v-21.00" class="stroke"/>
<use x="494.40" y="134.00" xlink:href="#hd"/>
<path d="M497.90 134.00v-21.00" class="stroke"/>
<defs>
<path id="Hd" class="fill" d="m3 -1.6
	c-1 -1.8 -7 1.4 -6 3.2
	1 1.8 7 -1.4 6 -3.2
	m0.5 -0.3
	c2 3.8 -5 7.6 -7 3.8
	-2 -3.8 5 -7.6 7 -3.8"/>
</defs>
<use x="524.30" y="128.00" xlink:href="#Hd"/>
<path d="M520.80 128.00v21.00" class="stroke"/>
<use x="585.40" y="113.00" xlink:href="#hl1"/>
<use x="585.40" y="113.00" xlink:href="#HD"/>
<use x="585.40" y="125.00" xlink:href="#HD"/>
<use x="585.40" y="119.00" xlink:href="#HD"/>
</g>
<g stroke-width="0.70" style="font:italic 11.00px Times">
<path class="stroke" stroke-width="1"
	d="M10.00 273.40v-82.00"/>
<g transform="translate(10.00,191.40) scale(1,0.82)">
	<use xlink:href="#brace"/>
</g>
<path class="stroke" stroke-width="1"
	d="M186.00 215.40v-24.00"/>
<path class="stroke" stroke-width="1"
	d="M186.00 273.40v-24.00"/>
<path class="stroke" stroke-width="1"
	d="M324.70 215.40v-24.00"/>
<path class="stroke" stroke-width="1"
	d="M324.70 273.40v-24.00"/>
<path class="stroke" stroke-width="1"
	d="M445.40 215.40v-24.00"/>
<path class="stroke" stroke-width="1"
	d="M445.40 273.40v-24.00"/>
<path class="stroke" stroke-width="1"
	d="M569.50 215.40v-24.00"/>
<path class="stroke" stroke-width="1"
	d="M569.50 273.40v-24.00"/>
<path class="stroke" stroke-width="1"
	d="M691.60 215.40v-24.00"/>
<path class="stroke" stroke-width="1"
	d="M691.60 273.40v-24.00"/>
<path d="m10.00 215.40
	h681.60
	M10.00 209.40
	h681.60
	M10.00 203.40
	h681.60
	M10.00 197.40
	h681.60
	M10.00 191.40
	h681.60
	" class="stroke"/>
<path d="m10.00 273.40
	h681.60
	M10.00 267.40
	h681.60
	M10.00 261.40
	h681.60
	M10.00 255.40
	h681.60
	M10.00 249.40
	h681.60
	" class="stroke"/>
</g>
<g stroke-width="0.70" style="font:bold 13.00px Times">
<text x="66.80" y="178.80">iv<tspan
	 style="font:italic 11.00px Times">⁷</tspan></text>
</g>
<g stroke-width="0.70" style="font:bold 13.00px Times">
<text x="196.70" y="184.80">I</text>
</g>
<g stroke-width="0.70" style="font:bold 13.00px Times">
<text x="329.70" y="186.80">III<tspan
	 style="font:italic 11.00px Times">²</tspan></text>
</g>
<g stroke-width="0.70" style="font:bold 13.00px Times">
<text x="452.00" y="175.80">III<tspan
	 style="font:italic 11.00px Times">⁷</tspan></text>
</g>
<g stroke-width="0.70" style="font:bold 13.00px Times">
<text x="578.10" y="186.80">III</text>
<use x="22.00" y="209.40" xlink:href="#tclef"/>
<use x="37.00" y="203.40" xlink:href="#ft0"/>
<use x="42.50" y="194.40" xlink:href="#ft0"/>
<use x="48.00" y="206.40" xlink:href="#ft0"/>
<use x="53.50" y="197.40" xlink:href="#ft0"/>
<use x="73.00" y="206.40" xlink:href="#hd"/>
<path d="M76.50 206.40v-21.00" class="stroke"/>
<use x="103.40" y="209.40" xlink:href="#hd"/>
<path d="M106.90 209.40v-21.00" class="stroke"/>
<use x="133.90" y="215.40" xlink:href="#hd"/>
<path d="M137.40 215.40v-21.00" class="stroke"/>
<use x="164.30" y="221.40" xlink:href="#hl"/>
<use x="164.30" y="221.40" xlink:href="#hd"/>
<path d="M167.80 221.40v-21.00" class="stroke"/>
<use x="198.50" y="212.40" xlink:href="#hd"/>
<circle class="fill" cx="206.20" cy="212.40" r="1.2"/>
<path d="M202.00 212.40v-21.00" class="stroke"/>
<use x="250.60" y="209.40" xlink:href="#hd"/>
<path d="M254.10 209.40v-21.00" class="stroke"/>
<path class="fill"
	d="M254.10 188.40c0.6 5.6 9.6 9 5.6 18.4
	1.6 -6 -1.3 -11.6 -5.6 -12.8
"/>
<use x="272.50" y="206.40" xlink:href="#hd"/>
<path d="M276.00 206.40v-21.00" class="stroke"/>
<use x="303.00" y="209.40" xlink:href="#hd"/>
<path d="M306.50 209.40v-21.00" class="stroke"/>
<use x="337.20" y="200.40" xlink:href="#hd"/>
<path d="M333.70 200.40v21.00" class="stroke"/>
<use x="367.60" y="203.40" xlink:href="#hd"/>
<path d="M364.10 203.40v21.00" class="stroke"/>
<use x="398.20" y="206.40" xlink:href="#hd"/>
<circle class="fill" cx="405.90" cy="206.40" r="1.2"/>
<path d="M401.70 206.40v-21.00" class="stroke"/>
<use x="429.80" y="203.40" xlink:href="#r8"/>
<use x="459.40" y="203.40" xlink:href="#hd"/>
<path d="M462.90 203.40v-21.00" class="stroke"/>
<use x="489.80" y="203.40" xlink:href="#hd"/>
<path d="M493.30 203.40v-21.00" class="stroke"/>
<use x="520.40" y="200.40" xlink:href="#hd"/>
<path d="M516.90 200.40v21.00" class="stroke"/>
<use x="547.90" y="206.40" xlink:href="#hd"/>
<path d="M551.40 206.40v-21.00" class="stroke"/>
<use x="583.50" y="197.40" xlink:href="#hd"/>
<path d="M580.00 197.40v21.00" class="stroke"/>
<use x="614.00" y="200.40" xlink:href="#hd"/>
<path d="M610.50 200.40v21.00" class="stroke"/>
<use x="644.40" y="203.40" xlink:href="#hd"/>
<circle class="fill" cx="652.10" cy="200.40" r="1.2"/>
<path d="M640.90 203.40v21.00" class="stroke"/>
<use x="676.00" y="203.40" xlink:href="#r8"/>
<use x="22.00" y="255.40" xlink:href="#bclef"/>
<use x="37.00" y="267.40" xlink:href="#ft0"/>
<use x="42.50" y="258.40" xlink:href="#ft0"/>
<use x="48.00" y="270.40" xlink:href="#ft0"/>
<use x="53.50" y="261.40" xlink:href="#ft0"/>
<use x="74.00" y="255.40" xlink:href="#HD"/>
<use x="74.00" y="267.40" xlink:href="#HD"/>
<use x="74.00" y="261.40" xlink:href="#HD"/>
<use x="198.50" y="270.40" xlink:href="#hd"/>
<path d="M202.00 270.40v-21.00" class="stroke"/>
<use x="229.00" y="264.40" xlink:href="#hd"/>
<path d="M232.50 264.40v-21.00" class="stroke"/>
<use x="272.50" y="258.40" xlink:href="#hd"/>
<path d="M269.00 258.40v21.00" class="stroke"/>
<use x="303.00" y="264.40" xlink:href="#hd"/>
<path d="M306.50 264.40v-21.00" class="stroke"/>
<use x="337.20" y="270.40" xlink:href="#hd"/>
<path d="M340.70 270.40v-21.00" class="stroke"/>
<use x="367.60" y="264.40" xlink:href="#hd"/>
<path d="M371.10 264.40v-21.00" class="stroke"/>
<use x="398.20" y="258.40" xlink:href="#Hd"/>
<path d="M394.70 258.40v21.00" class="stroke"/>
<use x="460.40" y="270.40" xlink:href="#HD"/>
<use x="460.40" y="264.40" xlink:href="#HD"/>
<use x="460.40" y="258.40" xlink:href="#HD"/>
<use x="584.50" y="270.40" xlink:href="#HD"/>
<use x="584.50" y="264.40" xlink:href="#HD"/>
<use x="584.50" y="258.40" xlink:href="#HD"/>
</g>
<g stroke-width="0.70" style="font:bold 13.00px Times">
<path class="stroke" stroke-width="1"
	d="M10.00 401.40v-82.00"/>
<g transform="translate(10.00,319.40) scale(1,0.82)">
	<use xlink:href="#brace"/>
</g>
<path class="stroke" stroke-width="1"
	d="M164.90 343.40v-24.00"/>
<path class="stroke" stroke-width="1"
	d="M164.90 401.40v-24.00"/>
<path class="stroke" stroke-width="1"
	d="M268.60 343.40v-24.00"/>
<path class="stroke" stroke-width="1"
	d="M268.60 401.40v-24.00"/>
<path class="stroke" stroke-width="1"
	d="M375.70 343.40v-24.00"/>
<path class="stroke" stroke-width="1"
	d="M375.70 401.40v-24.00"/>
<path class="stroke" stroke-width="1"
	d="M482.70 343.40v-24.00"/>
<path class="stroke" stroke-width="1"
	d="M482.70 401.40v-24.00"/>
<path class="stroke" stroke-width="1"
	d="M587.60 343.40v-24.00"/>
<path class="stroke" stroke-width="1"
	d="M587.60 401.40v-24.00"/>
<path class="stroke" stroke-width="1"
	d="M691.60 343.40v-24.00"/>
<path class="stroke" stroke-width="1"
	d="M691.60 401.40v-24.00"/>
<path d="m10.00 343.40
	h681.60
	M10.00 337.40
	h681.60
	M10.00 331.40
	h681.60
	M10.00 325.40
	h681.60
	M10.00 319.40
	h681.60
	" class="stroke"/>
<path d="m10.00 401.40
	h681.60
	M10.00 395.40
	h681.60
	M10.00 389.40
	h681.60
	M10.00 383.40
	h681.60
	M10.00 377.40
	h681.60
	" class="stroke"/>
</g>
<g stroke-width="0.70" style="font:bold 13.00px Times">
<text x="63.50" y="314.80">V<tspan
	 style="font:italic 11.00px Times">ø7²</tspan></text>
</g>
<g stroke-width="0.70" style="font:bold 13.00px Times">
<text x="177.40" y="313.80">i</text>
</g>
<g stroke-width="0.70" style="font:bold 13.00px Times">
<text x="278.70" y="312.80">V</text>
</g>
<g stroke-width="0.70" style="font:bold 13.00px Times">
<text x="384.20" y="306.80">III</text>
</g>
<g stroke-width="0.70" style="font:bold 13.00px Times">
<text x="494.90" y="314.80">I</text>
</g>
<g stroke-width="0.70" style="font:bold 13.00px Times">
<text x="593.20" y="314.80">ii○<tspan
	 style="font:italic 11.00px Times">¹</tspan></text>
</g>
<g stroke-width="0.70" style="font:italic 11.00px Times">
<use x="22.00" y="337.40" xlink:href="#tclef"/>
<use x="37.00" y="331.40" xlink:href="#ft0"/>
<use x="42.50" y="322.40" xlink:href="#ft0"/>
<use x="48.00" y="334.40" xlink:href="#ft0"/>
<use x="53.50" y="325.40" xlink:href="#ft0"/>
<use x="71.50" y="328.40" xlink:href="#hd"/>
<path d="M68.00 328.40v21.00" class="stroke"/>
<use x="96.80" y="328.40" xlink:href="#hd"/>
<path d="M93.30 328.40v21.00" class="stroke"/>
<use x="121.80" y="325.40" xlink:href="#hd"/>
<path d="M118.30 325.40v21.00" class="stroke"/>
<use x="146.70" y="331.40" xlink:href="#hd"/>
<path d="M143.20 331.40v21.00" class="stroke"/>
<use x="178.90" y="322.40" xlink:href="#hd"/>
<path d="M175.40 322.40v21.00" class="stroke"/>
<use x="203.90" y="325.40" xlink:href="#hd"/>
<path d="M200.40 325.40v21.00" class="stroke"/>
<use x="228.80" y="328.40" xlink:href="#hd"/>
<circle class="fill" cx="236.50" cy="328.40" r="1.2"/>
<path d="M225.30 328.40v21.00" class="stroke"/>
<use x="255.30" y="331.40" xlink:href="#r8"/>
<use x="282.60" y="325.40" xlink:href="#hd"/>
<path d="M279.10 325.40v21.00" class="stroke"/>
<use x="307.60" y="328.40" xlink:href="#hd"/>
<path d="M304.10 328.40v21.00" class="stroke"/>
<use x="332.50" y="331.40" xlink:href="#hd"/>
<path d="M329.00 331.40v21.00" class="stroke"/>
<use x="357.50" y="328.40" xlink:href="#hd"/>
<path d="M354.00 328.40v21.00" class="stroke"/>
<use x="389.70" y="334.40" xlink:href="#hd"/>
<path d="M393.20 334.40v-21.00" class="stroke"/>
<use x="414.60" y="337.40" xlink:href="#hd"/>
<path d="M418.10 337.40v-21.00" class="stroke"/>
<use x="439.60" y="340.40" xlink:href="#hd"/>
<path d="M443.10 340.40v-21.00" class="stroke"/>
<use x="464.50" y="346.40" xlink:href="#hd"/>
<path d="M468.00 346.40v-21.00" class="stroke"/>
<use x="496.70" y="349.40" xlink:href="#hl"/>
<use x="496.70" y="349.40" xlink:href="#hd"/>
<circle class="fill" cx="504.40" cy="346.40" r="1.2"/>
<path d="M500.20 349.40v-21.00" class="stroke"/>
<use x="525.90" y="343.40" xlink:href="#hd"/>
<path d="M529.40 343.40v-21.00" class="stroke"/>
<path class="fill"
	d="M529.40 322.40c0.6 5.6 9.6 9 5.6 18.4
	1.6 -6 -1.3 -11.6 -5.6 -12.8
"/>
<use x="544.40" y="340.40" xlink:href="#hd"/>
<path d="M547.90 340.40v-21.00" class="stroke"/>
<use x="569.40" y="334.40" xlink:href="#hd"/>
<path d="M572.90 334.40v-21.00" class="stroke"/>
<use x="600.60" y="328.40" xlink:href="#Hd"/>
<path d="M597.10 328.40v21.00" class="stroke"/>
<use x="650.80" y="331.40" xlink:href="#hd"/>
<path d="M647.30 331.40v21.00" class="stroke"/>
<use x="673.40" y="334.40" xlink:href="#hd"/>
<path d="M676.90 334.40v-21.00" class="stroke"/>
<use x="22.00" y="383.40" xlink:href="#bclef"/>
<use x="37.00" y="395.40" xlink:href="#ft0"/>
<use x="42.50" y="386.40" xlink:href="#ft0"/>
<use x="48.00" y="398.40" xlink:href="#ft0"/>
<use x="53.50" y="389.40" xlink:href="#ft0"/>
<use x="71.50" y="392.40" xlink:href="#hd"/>
<path d="M75.00 392.40v-21.00" class="stroke"/>
<use x="96.80" y="386.40" xlink:href="#hd"/>
<path d="M93.30 386.40v21.00" class="stroke"/>
<use x="121.80" y="380.40" xlink:href="#Hd"/>
<path d="M118.30 380.40v21.00" class="stroke"/>
<use x="179.90" y="371.40" xlink:href="#hl1"/>
<use x="179.90" y="371.40" xlink:href="#HD"/>
<use x="179.90" y="383.40" xlink:href="#HD"/>
<use x="179.90" y="377.40" xlink:href="#HD"/>
<use x="283.60" y="380.40" xlink:href="#HD"/>
<use x="283.60" y="392.40" xlink:href="#HD"/>
<use x="283.60" y="386.40" xlink:href="#HD"/>
<use x="390.70" y="398.40" xlink:href="#HD"/>
<use x="390.70" y="392.40" xlink:href="#HD"/>
<use x="390.70" y="386.40" xlink:href="#HD"/>
<use x="497.70" y="398.40" xlink:href="#HD"/>
<use x="497.70" y="392.40" xlink:href="#HD"/>
<use x="497.70" y="386.40" xlink:href="#HD"/>
<use x="600.60" y="398.40" xlink:href="#hd"/>
<path d="M604.10 398.40v-21.00" class="stroke"/>
<use x="625.60" y="392.40" xlink:href="#hd"/>
<path d="M629.10 392.40v-21.00" class="stroke"/>
<use x="650.80" y="386.40" xlink:href="#hd"/>
<path d="M647.30 386.40v21.00" class="stroke"/>
<use x="673.40" y="392.40" xlink:href="#hd"/>
<path d="M676.90 392.40v-21.00" class="stroke"/>
</g>
<g stroke-width="0.70" style="font:italic 11.00px Times">
<path class="stroke" stroke-width="1"
	d="M10.00 529.40v-82.00"/>
<g transform="translate(10.00,447.40) scale(1,0.82)">
	<use xlink:href="#brace"/>
</g>
<path class="stroke" stroke-width="1"
	d="M192.60 471.40v-24.00"/>
<path class="stroke" stroke-width="1"
	d="M192.60 529.40v-24.00"/>
<path class="stroke" stroke-width="1"
	d="M262.80 471.40v-24.00"/>
<path class="stroke" stroke-width="1"
	d="M262.80 529.40v-24.00"/>
<path d="m10.00 471.40
	h252.80
	M10.00 465.40
	h252.80
	M10.00 459.40
	h252.80
	M10.00 453.40
	h252.80
	M10.00 447.40
	h252.80
	" class="stroke"/>
<path d="m10.00 529.40
	h252.80
	M10.00 523.40
	h252.80
	M10.00 517.40
	h252.80
	M10.00 511.40
	h252.80
	M10.00 505.40
	h252.80
	" class="stroke"/>
</g>
<g stroke-width="0.70" style="font:bold 13.00px Times">
<text x="69.10" y="442.80">V</text>
</g>
<g stroke-width="0.70" style="font:bold 13.00px Times">
<text x="205.30" y="442.80">i</text>
<use x="22.00" y="465.40" xlink:href="#tclef"/>
<use x="37.00" y="459.40" xlink:href="#ft0"/>
<use x="42.50" y="450.40" xlink:href="#ft0"/>
<use x="48.00" y="462.40" xlink:href="#ft0"/>
<use x="53.50" y="453.40" xlink:href="#ft0"/>
<use x="74.00" y="465.40" xlink:href="#HD"/>
<use x="207.80" y="468.40" xlink:href="#HD"/>
<use x="22.00" y="511.40" xlink:href="#bclef"/>
<use x="37.00" y="523.40" xlink:href="#ft0"/>
<use x="42.50" y="514.40" xlink:href="#ft0"/>
<use x="48.00" y="526.40" xlink:href="#ft0"/>
<use x="53.50" y="517.40" xlink:href="#ft0"/>
<use x="73.00" y="520.40" xlink:href="#hd"/>
<path d="M76.50 520.40v-21.00" class="stroke"/>
<use x="113.00" y="514.40" xlink:href="#hd"/>
<path d="M109.50 514.40v21.00" class="stroke"/>
<use x="153.00" y="508.40" xlink:href="#Hd"/>
<path d="M149.50 508.40v21.00" class="stroke"/>
<use x="207.80" y="499.40" xlink:href="#hl1"/>
<use x="207.80" y="499.40" xlink:href="#HD"/>
<use x="207.80" y="511.40" xlink:href="#HD"/>
<use x="207.80" y="505.40" xlink:href="#HD"/>
</g>
</svg>
