<?xml version="1.0" standalone="no"?>
<!DOCTYPE svg PUBLIC "-//W3C//DTD SVG 1.1//EN"
	"http://www.w3.org/Graphics/SVG/1.1/DTD/svg11.dtd">
<svg xmlns="http://www.w3.org/2000/svg" version="1.1"
	xmlns:xlink="http://www.w3.org/1999/xlink"
	color="black"
	width="701.60px" height="296.40px" viewBox="0 0 701.60 296.40" preserveAspectRatio="xMidYMid meet">
<style type="text/css">
.fill {fill: currentColor}
.stroke {stroke: currentColor; fill: none}
text{white-space: pre}
</style>
<title>/tmp/retab_hymnal_L4/take_up_thy_cross_the_savior_said.abc (1) tune 1</title>
<!-- Creator: abcm2ps-8.14.11 -->
<!-- CreationDate: Apr 24, 2026 15:38 -->
<!-- CommandLine: /tmp/retab_hymnal_L4/take_up_thy_cross_the_savior_said.abc -g -O /tmp/retab_hymnal_L4/take_up_thy_cross_the_savior_said -->
<g stroke-width="0.70">
<!-- title: 001. 'Take Up Thy Cross', the Savior Said -->
</g>
<g stroke-width="0.70" style="font:20.00px Times">
<text x="350.80" y="22.00" text-anchor="middle">001. &apos;Take Up Thy Cross&apos;, the Savior Said</text>
</g>
<g stroke-width="0.70" style="font:20.00px Times">
<path class="stroke" stroke-width="1"
	d="M10.00 143.00v-82.00"/>
<defs>
<path id="brace" class="fill" d="m-2.5 101
	c-4.5 -4.6 -7.5 -12.2 -4.4 -26.8
	3.5 -14.3 3.2 -21.7 -2.1 -24.2
	7.4 2.4 7.3 14.2 3.5 29.5
	-2.7 9.5 -1.5 16.2 3 21.5
	M-2.5 1c-4.5 4.6 -7.5 12.2 -4.4 26.8
	c3.5 14.3 3.2 21.7 -2.1 24.2
	7.4 -2.4 7.3 -14.2 3.5 -29.5
	-2.7 -9.5 -1.5 -16.2 3 -21.5"/>
</defs>
<g transform="translate(10.00,61.00) scale(1,0.82)">
	<use xlink:href="#brace"/>
</g>
<path class="stroke" stroke-width="1"
	d="M155.10 85.00v-24.00"/>
<path class="stroke" stroke-width="1"
	d="M155.10 143.00v-24.00"/>
<path class="stroke" stroke-width="1"
	d="M266.10 85.00v-24.00"/>
<path class="stroke" stroke-width="1"
	d="M266.10 143.00v-24.00"/>
<path class="stroke" stroke-width="1"
	d="M374.30 85.00v-24.00"/>
<path class="stroke" stroke-width="1"
	d="M374.30 143.00v-24.00"/>
<path class="stroke" stroke-width="1"
	d="M486.90 85.00v-24.00"/>
<path class="stroke" stroke-width="1"
	d="M486.90 143.00v-24.00"/>
<path class="stroke" stroke-width="1"
	d="M580.30 85.00v-24.00"/>
<path class="stroke" stroke-width="1"
	d="M580.30 143.00v-24.00"/>
<path class="stroke" stroke-width="1"
	d="M691.60 85.00v-24.00"/>
<path class="stroke" stroke-width="1"
	d="M691.60 143.00v-24.00"/>
<path d="m10.00 85.00
	h681.60
	M10.00 79.00
	h681.60
	M10.00 73.00
	h681.60
	M10.00 67.00
	h681.60
	M10.00 61.00
	h681.60
	" class="stroke"/>
<path d="m10.00 143.00
	h681.60
	M10.00 137.00
	h681.60
	M10.00 131.00
	h681.60
	M10.00 125.00
	h681.60
	M10.00 119.00
	h681.60
	" class="stroke"/>
</g>
<g stroke-width="0.70" style="font:bold 13.00px Times">
<text x="70.70" y="51.40">I</text>
</g>
<g stroke-width="0.70" style="font:bold 13.00px Times">
<text x="163.00" y="54.40">iii</text>
</g>
<g stroke-width="0.70" style="font:bold 13.00px Times">
<text x="273.30" y="51.40">IV</text>
</g>
<g stroke-width="0.70" style="font:bold 13.00px Times">
<text x="382.40" y="48.40">V<tspan
	 style="font:italic 11.00px Times">¹</tspan></text>
</g>
<g stroke-width="0.70" style="font:bold 13.00px Times">
<text x="496.60" y="51.40">vi</text>
</g>
<g stroke-width="0.70" style="font:bold 13.00px Times">
<text x="591.50" y="51.40">I</text>
<defs>
<path id="utclef" class="fill" d="m-50 -90
	c-72 -41 -72 -158 52 -188
	150 -10 220 188 90 256
	-114 52 -275 0 -293 -136
	-15 -181 93 -229 220 -334
	88 -87 79 -133 62 -210
	-51 33 -94 105 -89 186
	17 267 36 374 49 574
	6 96 -19 134 -77 135
	-80 1 -126 -93 -61 -133
	85 -41 133 101 31 105
	23 17 92 37 90 -92
	-10 -223 -39 -342 -50 -617
	0 -90 0 -162 96 -232
	56 72 63 230 22 289
	-74 106 -257 168 -255 316
	9 153 148 185 252 133
	86 -65 29 -192 -80 -176
	-71 12 -105 67 -59 124"/>
<use id="tclef" transform="translate(0,6) scale(0.045)"
	xlink:href="#utclef"/>
</defs>
<use x="22.00" y="79.00" xlink:href="#tclef"/>
<defs>
<path id="usharp" class="fill" d="
	m136 -702
	v890
	h32
	v-890
	m128 840
	h32
	v-888
	h-32
	m-232 286
	v116
	l338 -96
	v-116
	m-338 442
	v116
	l338 -98
	v-114"/>
<use id="sh0" transform="translate(-4,5) scale(0.018)"
	xlink:href="#usharp"/>
</defs>
<use x="37.00" y="61.00" xlink:href="#sh0"/>
<g style="font:bold 16px serif"
	transform="translate(53.00,84.50) scale(1.2,1)">
	<text text-anchor="middle">4</text>
	<text y="-12" text-anchor="middle">4</text>
</g>
<defs>
<path id="Hd" class="fill" d="m3 -1.6
	c-1 -1.8 -7 1.4 -6 3.2
	1 1.8 7 -1.4 6 -3.2
	m0.5 -0.3
	c2 3.8 -5 7.6 -7 3.8
	-2 -3.8 5 -7.6 7 -3.8"/>
</defs>
<use x="72.50" y="79.00" xlink:href="#Hd"/>
<path d="M76.00 79.00v-21.00" class="stroke"/>
<defs>
<ellipse id="hd" rx="4.1" ry="2.9"
	transform="rotate(-20)" class="fill"/>
</defs>
<use x="109.60" y="76.00" xlink:href="#hd"/>
<path d="M113.10 76.00v-21.00" class="stroke"/>
<use x="136.00" y="79.00" xlink:href="#hd"/>
<path d="M139.50 79.00v-21.00" class="stroke"/>
<use x="167.60" y="82.00" xlink:href="#hd"/>
<path d="M171.10 82.00v-21.00" class="stroke"/>
<use x="194.00" y="79.00" xlink:href="#hd"/>
<path d="M197.50 79.00v-21.00" class="stroke"/>
<use x="220.60" y="76.00" xlink:href="#hd"/>
<path d="M224.10 76.00v-21.00" class="stroke"/>
<use x="247.00" y="73.00" xlink:href="#hd"/>
<path d="M250.50 73.00v-21.00" class="stroke"/>
<use x="279.10" y="79.00" xlink:href="#Hd"/>
<circle class="fill" cx="287.80" cy="76.00" r="1.2"/>
<path d="M282.60 79.00v-21.00" class="stroke"/>
<use x="355.20" y="79.00" xlink:href="#hd"/>
<path d="M358.70 79.00v-21.00" class="stroke"/>
<use x="388.30" y="76.00" xlink:href="#hd"/>
<path d="M391.80 76.00v-21.00" class="stroke"/>
<use x="414.70" y="73.00" xlink:href="#hd"/>
<path d="M418.20 73.00v-21.00" class="stroke"/>
<use x="441.40" y="70.00" xlink:href="#hd"/>
<path d="M437.90 70.00v21.00" class="stroke"/>
<use x="467.80" y="73.00" xlink:href="#hd"/>
<path d="M464.30 73.00v21.00" class="stroke"/>
<use x="500.90" y="79.00" xlink:href="#hd"/>
<path d="M504.40 79.00v-21.00" class="stroke"/>
<use x="527.30" y="76.00" xlink:href="#hd"/>
<path d="M530.80 76.00v-21.00" class="stroke"/>
<use x="553.70" y="73.00" xlink:href="#Hd"/>
<path d="M557.20 73.00v-21.00" class="stroke"/>
<use x="593.30" y="79.00" xlink:href="#Hd"/>
<path d="M596.80 79.00v-21.00" class="stroke"/>
<use x="646.10" y="76.00" xlink:href="#hd"/>
<path d="M649.60 76.00v-21.00" class="stroke"/>
<use x="672.50" y="76.00" xlink:href="#hd"/>
<path d="M676.00 76.00v-21.00" class="stroke"/>
<defs>
<path id="ubclef" class="fill" d="m-200 -87
	c124 -35 222 -78 254 -236
	43 -228 -167 -246 -192 -103
	59 -80 157 22 92 78
	-62 47 -115 -22 -106 -88
	21 -141 270 -136 274 52
	-1 175 -106 264 -322 297
	m357 -250
	c0 -36 51 -34 51 0
	0 37 -51 36 -51 0
	m-2 -129
	c0 -36 51 -34 51 0
	0 38 -51 37 -51 0"/>
<use id="bclef" transform="translate(0,18) scale(0.045)"
	xlink:href="#ubclef"/>
</defs>
<use x="22.00" y="125.00" xlink:href="#bclef"/>
<use x="37.00" y="125.00" xlink:href="#sh0"/>
<g style="font:bold 16px serif"
	transform="translate(53.00,142.50) scale(1.2,1)">
	<text text-anchor="middle">4</text>
	<text y="-12" text-anchor="middle">4</text>
</g>
<defs>
<path id="HD" class="fill" d="m-2.7 -1.4
	c1.5 -2.8 6.9 0 5.3 2.7
	-1.5 2.8 -6.9 0 -5.3 -2.7
	m8.3 1.4
	c0 -1.5 -2.2 -3 -5.6 -3
	-3.4 0 -5.6 1.5 -5.6 3
	0 1.5 2.2 3 5.6 3
	3.4 0 5.6 -1.5 5.6 -3"/>
</defs>
<use x="73.50" y="143.00" xlink:href="#HD"/>
<use x="73.50" y="137.00" xlink:href="#HD"/>
<use x="73.50" y="131.00" xlink:href="#HD"/>
<use x="167.60" y="137.00" xlink:href="#hd"/>
<path d="M171.10 137.00v-21.00" class="stroke"/>
<use x="194.00" y="131.00" xlink:href="#hd"/>
<path d="M197.50 131.00v-21.00" class="stroke"/>
<use x="220.60" y="125.00" xlink:href="#hd"/>
<path d="M217.10 125.00v21.00" class="stroke"/>
<use x="247.00" y="131.00" xlink:href="#hd"/>
<path d="M243.50 131.00v21.00" class="stroke"/>
<use x="279.10" y="134.00" xlink:href="#hd"/>
<path d="M282.60 134.00v-21.00" class="stroke"/>
<use x="305.70" y="128.00" xlink:href="#hd"/>
<path d="M302.20 128.00v21.00" class="stroke"/>
<use x="332.20" y="122.00" xlink:href="#Hd"/>
<path d="M328.70 122.00v21.00" class="stroke"/>
<use x="389.30" y="119.00" xlink:href="#HD"/>
<use x="389.30" y="131.00" xlink:href="#HD"/>
<use x="389.30" y="125.00" xlink:href="#HD"/>
<use x="501.90" y="116.00" xlink:href="#HD"/>
<use x="501.90" y="128.00" xlink:href="#HD"/>
<use x="501.90" y="122.00" xlink:href="#HD"/>
<use x="593.30" y="143.00" xlink:href="#hd"/>
<path d="M596.80 143.00v-21.00" class="stroke"/>
<use x="619.70" y="137.00" xlink:href="#hd"/>
<path d="M623.20 137.00v-21.00" class="stroke"/>
<use x="646.10" y="131.00" xlink:href="#hd"/>
<path d="M649.60 131.00v-21.00" class="stroke"/>
<use x="672.50" y="137.00" xlink:href="#hd"/>
<path d="M676.00 137.00v-21.00" class="stroke"/>
</g>
<g stroke-width="0.70" style="font:bold 13.00px Times">
<path class="stroke" stroke-width="1"
	d="M10.00 273.40v-82.00"/>
<g transform="translate(10.00,191.40) scale(1,0.82)">
	<use xlink:href="#brace"/>
</g>
<path class="stroke" stroke-width="1"
	d="M210.50 215.40v-24.00"/>
<path class="stroke" stroke-width="1"
	d="M210.50 273.40v-24.00"/>
<path class="stroke" stroke-width="1"
	d="M380.80 215.40v-24.00"/>
<path class="stroke" stroke-width="1"
	d="M380.80 273.40v-24.00"/>
<path class="stroke" stroke-width="1"
	d="M551.10 215.40v-24.00"/>
<path class="stroke" stroke-width="1"
	d="M551.10 273.40v-24.00"/>
<path class="stroke" stroke-width="1"
	d="M691.60 215.40v-24.00"/>
<path class="stroke" stroke-width="1"
	d="M691.60 273.40v-24.00"/>
<path d="m10.00 215.40
	h681.60
	M10.00 209.40
	h681.60
	M10.00 203.40
	h681.60
	M10.00 197.40
	h681.60
	M10.00 191.40
	h681.60
	" class="stroke"/>
<path d="m10.00 273.40
	h681.60
	M10.00 267.40
	h681.60
	M10.00 261.40
	h681.60
	M10.00 255.40
	h681.60
	M10.00 249.40
	h681.60
	" class="stroke"/>
</g>
<g stroke-width="0.70" style="font:bold 13.00px Times">
<text x="47.00" y="175.80">vii○<tspan
	 style="font:italic 11.00px Times">¹</tspan></text>
</g>
<g stroke-width="0.70" style="font:bold 13.00px Times">
<text x="219.60" y="186.80">IV</text>
</g>
<g stroke-width="0.70" style="font:bold 13.00px Times">
<text x="392.60" y="175.80">ii</text>
</g>
<g stroke-width="0.70" style="font:bold 13.00px Times">
<text x="561.70" y="181.80">vi</text>
<use x="22.00" y="209.40" xlink:href="#tclef"/>
<use x="37.00" y="191.40" xlink:href="#sh0"/>
<use x="55.00" y="203.40" xlink:href="#hd"/>
<path d="M58.50 203.40v-21.00" class="stroke"/>
<use x="97.00" y="206.40" xlink:href="#hd"/>
<path d="M100.50 206.40v-21.00" class="stroke"/>
<use x="139.00" y="209.40" xlink:href="#hd"/>
<path d="M142.50 209.40v-21.00" class="stroke"/>
<use x="181.00" y="212.40" xlink:href="#hd"/>
<path d="M184.50 212.40v-21.00" class="stroke"/>
<use x="225.30" y="215.40" xlink:href="#Hd"/>
<circle class="fill" cx="234.00" cy="212.40" r="1.2"/>
<path d="M228.80 215.40v-21.00" class="stroke"/>
<use x="351.40" y="206.40" xlink:href="#hd"/>
<path d="M354.90 206.40v-21.00" class="stroke"/>
<use x="395.60" y="203.40" xlink:href="#hd"/>
<path d="M399.10 203.40v-21.00" class="stroke"/>
<use x="437.70" y="206.40" xlink:href="#hd"/>
<path d="M441.20 206.40v-21.00" class="stroke"/>
<use x="479.70" y="209.40" xlink:href="#hd"/>
<path d="M483.20 209.40v-21.00" class="stroke"/>
<use x="521.70" y="215.40" xlink:href="#hd"/>
<path d="M525.20 215.40v-21.00" class="stroke"/>
<use x="566.00" y="209.40" xlink:href="#hd"/>
<path d="M569.50 209.40v-21.00" class="stroke"/>
<use x="608.00" y="206.40" xlink:href="#hd"/>
<path d="M611.50 206.40v-21.00" class="stroke"/>
<use x="650.00" y="209.40" xlink:href="#Hd"/>
<path d="M653.50 209.40v-21.00" class="stroke"/>
<use x="22.00" y="255.40" xlink:href="#bclef"/>
<use x="37.00" y="255.40" xlink:href="#sh0"/>
<use x="55.00" y="273.40" xlink:href="#hd"/>
<path d="M58.50 273.40v-21.00" class="stroke"/>
<use x="97.00" y="267.40" xlink:href="#hd"/>
<path d="M100.50 267.40v-21.00" class="stroke"/>
<use x="139.00" y="261.40" xlink:href="#hd"/>
<path d="M142.50 261.40v-21.00" class="stroke"/>
<use x="181.00" y="267.40" xlink:href="#hd"/>
<path d="M184.50 267.40v-21.00" class="stroke"/>
<use x="225.30" y="264.40" xlink:href="#hd"/>
<path d="M228.80 264.40v-21.00" class="stroke"/>
<use x="267.30" y="258.40" xlink:href="#hd"/>
<path d="M263.80 258.40v21.00" class="stroke"/>
<use x="309.30" y="252.40" xlink:href="#hd"/>
<path d="M305.80 252.40v21.00" class="stroke"/>
<use x="351.40" y="258.40" xlink:href="#hd"/>
<path d="M347.90 258.40v21.00" class="stroke"/>
<use x="395.60" y="270.40" xlink:href="#hd"/>
<path d="M399.10 270.40v-21.00" class="stroke"/>
<use x="437.70" y="264.40" xlink:href="#hd"/>
<path d="M441.20 264.40v-21.00" class="stroke"/>
<use x="479.70" y="258.40" xlink:href="#Hd"/>
<path d="M476.20 258.40v21.00" class="stroke"/>
<use x="567.00" y="246.40" xlink:href="#HD"/>
<use x="567.00" y="258.40" xlink:href="#HD"/>
<use x="567.00" y="252.40" xlink:href="#HD"/>
</g>
</svg>
