<?xml version="1.0" standalone="no"?>
<!DOCTYPE svg PUBLIC "-//W3C//DTD SVG 1.1//EN"
	"http://www.w3.org/Graphics/SVG/1.1/DTD/svg11.dtd">
<svg xmlns="http://www.w3.org/2000/svg" version="1.1"
	xmlns:xlink="http://www.w3.org/1999/xlink"
	color="black"
	width="701.60px" height="552.40px" viewBox="0 0 701.60 552.40" preserveAspectRatio="xMidYMid meet">
<style type="text/css">
.fill {fill: currentColor}
.stroke {stroke: currentColor; fill: none}
text{white-space: pre}
</style>
<title>/tmp/retab_hymnal_L4/the_apostle_looked_and_heard_a_voice.abc (1) tune 1</title>
<!-- Creator: abcm2ps-8.14.11 -->
<!-- CreationDate: Apr 24, 2026 15:39 -->
<!-- CommandLine: /tmp/retab_hymnal_L4/the_apostle_looked_and_heard_a_voice.abc -g -O /tmp/retab_hymnal_L4/the_apostle_looked_and_heard_a_voice -->
<g stroke-width="0.70">
<!-- title: 226. The Apostle Looked and Heard a Voice -->
</g>
<g stroke-width="0.70" style="font:20.00px Times">
<text x="350.80" y="22.00" text-anchor="middle">226. The Apostle Looked and Heard a Voice</text>
</g>
<g stroke-width="0.70" style="font:20.00px Times">
<path class="stroke" stroke-width="1"
	d="M10.00 143.00v-82.00"/>
<defs>
<path id="brace" class="fill" d="m-2.5 101
	c-4.5 -4.6 -7.5 -12.2 -4.4 -26.8
	3.5 -14.3 3.2 -21.7 -2.1 -24.2
	7.4 2.4 7.3 14.2 3.5 29.5
	-2.7 9.5 -1.5 16.2 3 21.5
	M-2.5 1c-4.5 4.6 -7.5 12.2 -4.4 26.8
	c3.5 14.3 3.2 21.7 -2.1 24.2
	7.4 -2.4 7.3 -14.2 3.5 -29.5
	-2.7 -9.5 -1.5 -16.2 3 -21.5"/>
</defs>
<g transform="translate(10.00,61.00) scale(1,0.82)">
	<use xlink:href="#brace"/>
</g>
<path class="stroke" stroke-width="1"
	d="M173.20 85.00v-24.00"/>
<path class="stroke" stroke-width="1"
	d="M173.20 143.00v-24.00"/>
<path class="stroke" stroke-width="1"
	d="M311.00 85.00v-24.00"/>
<path class="stroke" stroke-width="1"
	d="M311.00 143.00v-24.00"/>
<path class="stroke" stroke-width="1"
	d="M438.30 85.00v-24.00"/>
<path class="stroke" stroke-width="1"
	d="M438.30 143.00v-24.00"/>
<path class="stroke" stroke-width="1"
	d="M578.10 85.00v-24.00"/>
<path class="stroke" stroke-width="1"
	d="M578.10 143.00v-24.00"/>
<path class="stroke" stroke-width="1"
	d="M691.60 85.00v-24.00"/>
<path class="stroke" stroke-width="1"
	d="M691.60 143.00v-24.00"/>
<path d="m10.00 85.00
	h681.60
	M10.00 79.00
	h681.60
	M10.00 73.00
	h681.60
	M10.00 67.00
	h681.60
	M10.00 61.00
	h681.60
	" class="stroke"/>
<path d="m10.00 143.00
	h681.60
	M10.00 137.00
	h681.60
	M10.00 131.00
	h681.60
	M10.00 125.00
	h681.60
	M10.00 119.00
	h681.60
	" class="stroke"/>
</g>
<g stroke-width="0.70" style="font:bold 13.00px Times">
<text x="70.70" y="51.40">I</text>
</g>
<g stroke-width="0.70" style="font:bold 13.00px Times">
<text x="181.80" y="54.40">V</text>
</g>
<g stroke-width="0.70" style="font:bold 13.00px Times">
<text x="317.10" y="54.40">V<tspan
	 style="font:italic 11.00px Times">⁷³</tspan></text>
</g>
<g stroke-width="0.70" style="font:bold 13.00px Times">
<text x="448.00" y="51.40">vi</text>
</g>
<g stroke-width="0.70" style="font:bold 13.00px Times">
<text x="584.70" y="48.40">V<tspan
	 style="font:italic 11.00px Times">¹</tspan></text>
</g>
<g stroke-width="0.70" style="font:italic 11.00px Times">
<defs>
<path id="utclef" class="fill" d="m-50 -90
	c-72 -41 -72 -158 52 -188
	150 -10 220 188 90 256
	-114 52 -275 0 -293 -136
	-15 -181 93 -229 220 -334
	88 -87 79 -133 62 -210
	-51 33 -94 105 -89 186
	17 267 36 374 49 574
	6 96 -19 134 -77 135
	-80 1 -126 -93 -61 -133
	85 -41 133 101 31 105
	23 17 92 37 90 -92
	-10 -223 -39 -342 -50 -617
	0 -90 0 -162 96 -232
	56 72 63 230 22 289
	-74 106 -257 168 -255 316
	9 153 148 185 252 133
	86 -65 29 -192 -80 -176
	-71 12 -105 67 -59 124"/>
<use id="tclef" transform="translate(0,6) scale(0.045)"
	xlink:href="#utclef"/>
</defs>
<use x="22.00" y="79.00" xlink:href="#tclef"/>
<defs>
<path id="usharp" class="fill" d="
	m136 -702
	v890
	h32
	v-890
	m128 840
	h32
	v-888
	h-32
	m-232 286
	v116
	l338 -96
	v-116
	m-338 442
	v116
	l338 -98
	v-114"/>
<use id="sh0" transform="translate(-4,5) scale(0.018)"
	xlink:href="#usharp"/>
</defs>
<use x="37.00" y="61.00" xlink:href="#sh0"/>
<g style="font:bold 16px serif"
	transform="translate(53.00,84.50) scale(1.2,1)">
	<text text-anchor="middle">4</text>
	<text y="-12" text-anchor="middle">4</text>
</g>
<defs>
<ellipse id="hd" rx="4.1" ry="2.9"
	transform="rotate(-20)" class="fill"/>
</defs>
<use x="72.50" y="79.00" xlink:href="#hd"/>
<path d="M76.00 79.00v-21.00" class="stroke"/>
<use x="99.60" y="73.00" xlink:href="#hd"/>
<path d="M103.10 73.00v-21.00" class="stroke"/>
<use x="126.60" y="73.00" xlink:href="#hd"/>
<path d="M130.10 73.00v-21.00" class="stroke"/>
<use x="153.70" y="76.00" xlink:href="#hd"/>
<path d="M157.20 76.00v-21.00" class="stroke"/>
<use x="185.70" y="67.00" xlink:href="#hd"/>
<path d="M182.20 67.00v21.00" class="stroke"/>
<use x="213.00" y="70.00" xlink:href="#hd"/>
<path d="M209.50 70.00v21.00" class="stroke"/>
<path class="fill"
	d="M209.50 91.00c0.6 -5.6 9.6 -9 5.6 -18.4
	1.6 6 -1.3 11.6 -5.6 12.8
"/>
<use x="232.40" y="73.00" xlink:href="#hd"/>
<path d="M228.90 73.00v21.00" class="stroke"/>
<path class="fill"
	d="M228.90 94.00c0.6 -5.6 9.6 -9 5.6 -18.4
	1.6 6 -1.3 11.6 -5.6 12.8
"/>
<use x="251.80" y="76.00" xlink:href="#hd"/>
<path d="M255.30 76.00v-21.00" class="stroke"/>
<path class="fill"
	d="M255.30 55.00c0.6 5.6 9.6 9 5.6 18.4
	1.6 -6 -1.3 -11.6 -5.6 -12.8
"/>
<use x="271.60" y="79.00" xlink:href="#hd"/>
<path d="M275.10 79.00v-21.00" class="stroke"/>
<path class="fill"
	d="M275.10 58.00c0.6 5.6 9.6 9 5.6 18.4
	1.6 -6 -1.3 -11.6 -5.6 -12.8
"/>
<use x="291.50" y="76.00" xlink:href="#hd"/>
<path d="M295.00 76.00v-21.00" class="stroke"/>
<use x="325.00" y="88.00" xlink:href="#hd"/>
<path d="M328.50 88.00v-21.00" class="stroke"/>
<use x="352.00" y="79.00" xlink:href="#hd"/>
<path d="M355.50 79.00v-21.00" class="stroke"/>
<path class="fill"
	d="M355.50 58.00c0.6 5.6 9.6 9 5.6 18.4
	1.6 -6 -1.3 -11.6 -5.6 -12.8
"/>
<use x="371.90" y="76.00" xlink:href="#hd"/>
<path d="M375.40 76.00v-21.00" class="stroke"/>
<path class="fill"
	d="M375.40 55.00c0.6 5.6 9.6 9 5.6 18.4
	1.6 -6 -1.3 -11.6 -5.6 -12.8
"/>
<use x="391.70" y="73.00" xlink:href="#hd"/>
<path d="M395.20 73.00v-21.00" class="stroke"/>
<use x="418.70" y="76.00" xlink:href="#hd"/>
<path d="M422.20 76.00v-21.00" class="stroke"/>
<use x="452.30" y="79.00" xlink:href="#hd"/>
<path d="M455.80 79.00v-21.00" class="stroke"/>
<path class="fill"
	d="M455.80 58.00c0.6 5.6 9.6 9 5.6 18.4
	1.6 -6 -1.3 -11.6 -5.6 -12.8
"/>
<use x="472.10" y="82.00" xlink:href="#hd"/>
<path d="M475.60 82.00v-21.00" class="stroke"/>
<path class="fill"
	d="M475.60 61.00c0.6 5.6 9.6 9 5.6 18.4
	1.6 -6 -1.3 -11.6 -5.6 -12.8
"/>
<use x="491.90" y="79.00" xlink:href="#hd"/>
<path d="M495.40 79.00v-21.00" class="stroke"/>
<use x="519.00" y="82.00" xlink:href="#hd"/>
<path d="M522.50 82.00v-21.00" class="stroke"/>
<path class="fill"
	d="M522.50 61.00c0.6 5.6 9.6 9 5.6 18.4
	1.6 -6 -1.3 -11.6 -5.6 -12.8
"/>
<use x="538.80" y="85.00" xlink:href="#hd"/>
<path d="M542.30 85.00v-21.00" class="stroke"/>
<path class="fill"
	d="M542.30 64.00c0.6 5.6 9.6 9 5.6 18.4
	1.6 -6 -1.3 -11.6 -5.6 -12.8
"/>
<use x="558.60" y="82.00" xlink:href="#hd"/>
<path d="M562.10 82.00v-21.00" class="stroke"/>
<use x="590.60" y="76.00" xlink:href="#hd"/>
<path d="M594.10 76.00v-21.00" class="stroke"/>
<use x="617.70" y="73.00" xlink:href="#hd"/>
<path d="M621.20 73.00v-21.00" class="stroke"/>
<use x="645.00" y="64.00" xlink:href="#hd"/>
<path d="M641.50 64.00v21.00" class="stroke"/>
<use x="672.10" y="76.00" xlink:href="#hd"/>
<path d="M675.60 76.00v-21.00" class="stroke"/>
<defs>
<path id="ubclef" class="fill" d="m-200 -87
	c124 -35 222 -78 254 -236
	43 -228 -167 -246 -192 -103
	59 -80 157 22 92 78
	-62 47 -115 -22 -106 -88
	21 -141 270 -136 274 52
	-1 175 -106 264 -322 297
	m357 -250
	c0 -36 51 -34 51 0
	0 37 -51 36 -51 0
	m-2 -129
	c0 -36 51 -34 51 0
	0 38 -51 37 -51 0"/>
<use id="bclef" transform="translate(0,18) scale(0.045)"
	xlink:href="#ubclef"/>
</defs>
<use x="22.00" y="125.00" xlink:href="#bclef"/>
<use x="37.00" y="125.00" xlink:href="#sh0"/>
<g style="font:bold 16px serif"
	transform="translate(53.00,142.50) scale(1.2,1)">
	<text text-anchor="middle">4</text>
	<text y="-12" text-anchor="middle">4</text>
</g>
<defs>
<path id="HD" class="fill" d="m-2.7 -1.4
	c1.5 -2.8 6.9 0 5.3 2.7
	-1.5 2.8 -6.9 0 -5.3 -2.7
	m8.3 1.4
	c0 -1.5 -2.2 -3 -5.6 -3
	-3.4 0 -5.6 1.5 -5.6 3
	0 1.5 2.2 3 5.6 3
	3.4 0 5.6 -1.5 5.6 -3"/>
</defs>
<use x="73.50" y="143.00" xlink:href="#HD"/>
<use x="73.50" y="137.00" xlink:href="#HD"/>
<use x="73.50" y="131.00" xlink:href="#HD"/>
<use x="185.70" y="131.00" xlink:href="#hd"/>
<path d="M189.20 131.00v-21.00" class="stroke"/>
<use x="213.00" y="125.00" xlink:href="#hd"/>
<path d="M209.50 125.00v21.00" class="stroke"/>
<defs>
<path id="Hd" class="fill" d="m3 -1.6
	c-1 -1.8 -7 1.4 -6 3.2
	1 1.8 7 -1.4 6 -3.2
	m0.5 -0.3
	c2 3.8 -5 7.6 -7 3.8
	-2 -3.8 5 -7.6 7 -3.8"/>
</defs>
<use x="251.80" y="119.00" xlink:href="#Hd"/>
<path d="M248.30 119.00v21.00" class="stroke"/>
<use x="326.00" y="119.00" xlink:href="#HD"/>
<use x="326.00" y="131.00" xlink:href="#HD"/>
<use x="326.00" y="125.00" xlink:href="#HD"/>
<use x="453.30" y="116.00" xlink:href="#HD"/>
<use x="453.30" y="128.00" xlink:href="#HD"/>
<use x="453.30" y="122.00" xlink:href="#HD"/>
<use x="590.60" y="131.00" xlink:href="#hd"/>
<path d="M587.10 131.00v21.00" class="stroke"/>
<use x="617.70" y="125.00" xlink:href="#hd"/>
<path d="M614.20 125.00v21.00" class="stroke"/>
<use x="645.00" y="119.00" xlink:href="#hd"/>
<path d="M641.50 119.00v21.00" class="stroke"/>
<use x="672.10" y="125.00" xlink:href="#hd"/>
<path d="M668.60 125.00v21.00" class="stroke"/>
</g>
<g stroke-width="0.70" style="font:italic 11.00px Times">
<path class="stroke" stroke-width="1"
	d="M10.00 271.00v-82.00"/>
<g transform="translate(10.00,189.00) scale(1,0.82)">
	<use xlink:href="#brace"/>
</g>
<path class="stroke" stroke-width="1"
	d="M179.60 213.00v-24.00"/>
<path class="stroke" stroke-width="1"
	d="M179.60 271.00v-24.00"/>
<path class="stroke" stroke-width="1"
	d="M303.60 213.00v-24.00"/>
<path class="stroke" stroke-width="1"
	d="M303.60 271.00v-24.00"/>
<path class="stroke" stroke-width="1"
	d="M427.60 213.00v-24.00"/>
<path class="stroke" stroke-width="1"
	d="M427.60 271.00v-24.00"/>
<path class="stroke" stroke-width="1"
	d="M553.00 213.00v-24.00"/>
<path class="stroke" stroke-width="1"
	d="M553.00 271.00v-24.00"/>
<path class="stroke" stroke-width="1"
	d="M691.60 213.00v-24.00"/>
<path class="stroke" stroke-width="1"
	d="M691.60 271.00v-24.00"/>
<path d="m10.00 213.00
	h681.60
	M10.00 207.00
	h681.60
	M10.00 201.00
	h681.60
	M10.00 195.00
	h681.60
	M10.00 189.00
	h681.60
	" class="stroke"/>
<path d="m10.00 271.00
	h681.60
	M10.00 265.00
	h681.60
	M10.00 259.00
	h681.60
	M10.00 253.00
	h681.60
	M10.00 247.00
	h681.60
	" class="stroke"/>
</g>
<g stroke-width="0.70" style="font:bold 13.00px Times">
<text x="49.10" y="184.40">V<tspan
	 style="font:italic 11.00px Times">⁷</tspan></text>
</g>
<g stroke-width="0.70" style="font:bold 13.00px Times">
<text x="186.20" y="176.40">V<tspan
	 style="font:italic 11.00px Times">¹</tspan></text>
</g>
<g stroke-width="0.70" style="font:bold 13.00px Times">
<text x="309.90" y="179.40">vi<tspan
	 style="font:italic 11.00px Times">¹</tspan></text>
</g>
<g stroke-width="0.70" style="font:bold 13.00px Times">
<text x="439.80" y="184.40">I</text>
</g>
<g stroke-width="0.70" style="font:bold 13.00px Times">
<text x="559.00" y="184.40">vii<tspan
	 style="font:italic 11.00px Times">ø7²</tspan></text>
</g>
<g stroke-width="0.70" style="font:italic 11.00px Times">
<use x="22.00" y="207.00" xlink:href="#tclef"/>
<use x="37.00" y="189.00" xlink:href="#sh0"/>
<use x="55.00" y="195.00" xlink:href="#hd"/>
<path d="M51.50 195.00v21.00" class="stroke"/>
<use x="85.00" y="207.00" xlink:href="#hd"/>
<path d="M88.50 207.00v-21.00" class="stroke"/>
<use x="115.00" y="204.00" xlink:href="#hd"/>
<path d="M118.50 204.00v-21.00" class="stroke"/>
<path class="fill"
	d="M118.50 183.00c0.6 5.6 9.6 9 5.6 18.4
	1.6 -6 -1.3 -11.6 -5.6 -12.8
"/>
<use x="136.70" y="207.00" xlink:href="#hd"/>
<path d="M140.20 207.00v-21.00" class="stroke"/>
<path class="fill"
	d="M140.20 186.00c0.6 5.6 9.6 9 5.6 18.4
	1.6 -6 -1.3 -11.6 -5.6 -12.8
"/>
<use x="158.30" y="210.00" xlink:href="#hd"/>
<path d="M161.80 210.00v-21.00" class="stroke"/>
<use x="192.10" y="204.00" xlink:href="#hd"/>
<path d="M195.60 204.00v-21.00" class="stroke"/>
<use x="222.10" y="201.00" xlink:href="#hd"/>
<path d="M225.60 201.00v-21.00" class="stroke"/>
<use x="252.30" y="198.00" xlink:href="#hd"/>
<path d="M248.80 198.00v21.00" class="stroke"/>
<use x="282.30" y="195.00" xlink:href="#hd"/>
<path d="M278.80 195.00v21.00" class="stroke"/>
<use x="316.10" y="207.00" xlink:href="#hd"/>
<path d="M319.60 207.00v-21.00" class="stroke"/>
<use x="346.20" y="210.00" xlink:href="#hd"/>
<path d="M349.70 210.00v-21.00" class="stroke"/>
<use x="376.20" y="213.00" xlink:href="#hd"/>
<path d="M379.70 213.00v-21.00" class="stroke"/>
<use x="406.20" y="216.00" xlink:href="#hd"/>
<path d="M409.70 216.00v-21.00" class="stroke"/>
<use x="441.60" y="216.00" xlink:href="#hd"/>
<path d="M445.10 216.00v-21.00" class="stroke"/>
<use x="471.60" y="204.00" xlink:href="#hd"/>
<path d="M475.10 204.00v-21.00" class="stroke"/>
<use x="501.60" y="204.00" xlink:href="#hd"/>
<path d="M505.10 204.00v-21.00" class="stroke"/>
<use x="531.70" y="210.00" xlink:href="#hd"/>
<path d="M535.20 210.00v-21.00" class="stroke"/>
<use x="567.00" y="213.00" xlink:href="#hd"/>
<path d="M570.50 213.00v-21.00" class="stroke"/>
<path class="fill"
	d="M570.50 192.00c0.6 5.6 9.6 9 5.6 18.4
	1.6 -6 -1.3 -11.6 -5.6 -12.8
"/>
<use x="588.60" y="216.00" xlink:href="#hd"/>
<path d="M592.10 216.00v-21.00" class="stroke"/>
<path class="fill"
	d="M592.10 195.00c0.6 5.6 9.6 9 5.6 18.4
	1.6 -6 -1.3 -11.6 -5.6 -12.8
"/>
<use x="610.20" y="207.00" xlink:href="#hd"/>
<path d="M613.70 207.00v-21.00" class="stroke"/>
<use x="640.20" y="204.00" xlink:href="#hd"/>
<path d="M643.70 204.00v-21.00" class="stroke"/>
<use x="670.30" y="201.00" xlink:href="#hd"/>
<path d="M673.80 201.00v-21.00" class="stroke"/>
<use x="22.00" y="253.00" xlink:href="#bclef"/>
<use x="37.00" y="253.00" xlink:href="#sh0"/>
<use x="55.00" y="259.00" xlink:href="#hd"/>
<path d="M51.50 259.00v21.00" class="stroke"/>
<use x="85.00" y="253.00" xlink:href="#hd"/>
<path d="M81.50 253.00v21.00" class="stroke"/>
<use x="115.00" y="247.00" xlink:href="#hd"/>
<path d="M111.50 247.00v21.00" class="stroke"/>
<use x="158.30" y="253.00" xlink:href="#hd"/>
<path d="M154.80 253.00v21.00" class="stroke"/>
<use x="192.10" y="259.00" xlink:href="#hd"/>
<path d="M188.60 259.00v21.00" class="stroke"/>
<use x="222.10" y="253.00" xlink:href="#hd"/>
<path d="M218.60 253.00v21.00" class="stroke"/>
<use x="252.30" y="247.00" xlink:href="#hd"/>
<path d="M248.80 247.00v21.00" class="stroke"/>
<use x="282.30" y="253.00" xlink:href="#hd"/>
<path d="M278.80 253.00v21.00" class="stroke"/>
<use x="316.10" y="256.00" xlink:href="#hd"/>
<path d="M312.60 256.00v21.00" class="stroke"/>
<use x="346.20" y="250.00" xlink:href="#hd"/>
<path d="M342.70 250.00v21.00" class="stroke"/>
<use x="376.20" y="244.00" xlink:href="#Hd"/>
<path d="M372.70 244.00v21.00" class="stroke"/>
<use x="442.60" y="271.00" xlink:href="#HD"/>
<use x="442.60" y="265.00" xlink:href="#HD"/>
<use x="442.60" y="259.00" xlink:href="#HD"/>
<defs>
<path id="hl1" class="stroke" d="m-7 0h14"/>
</defs>
<use x="568.00" y="241.00" xlink:href="#hl1"/>
<use x="568.00" y="241.00" xlink:href="#HD"/>
<use x="568.00" y="253.00" xlink:href="#HD"/>
<use x="568.00" y="247.00" xlink:href="#HD"/>
</g>
<g stroke-width="0.70" style="font:italic 11.00px Times">
<path class="stroke" stroke-width="1"
	d="M10.00 401.40v-82.00"/>
<g transform="translate(10.00,319.40) scale(1,0.82)">
	<use xlink:href="#brace"/>
</g>
<path class="stroke" stroke-width="1"
	d="M177.60 343.40v-24.00"/>
<path class="stroke" stroke-width="1"
	d="M177.60 401.40v-24.00"/>
<path class="stroke" stroke-width="1"
	d="M310.80 343.40v-24.00"/>
<path class="stroke" stroke-width="1"
	d="M310.80 401.40v-24.00"/>
<path class="stroke" stroke-width="1"
	d="M441.80 343.40v-24.00"/>
<path class="stroke" stroke-width="1"
	d="M441.80 401.40v-24.00"/>
<path class="stroke" stroke-width="1"
	d="M571.30 343.40v-24.00"/>
<path class="stroke" stroke-width="1"
	d="M571.30 401.40v-24.00"/>
<path class="stroke" stroke-width="1"
	d="M691.60 343.40v-24.00"/>
<path class="stroke" stroke-width="1"
	d="M691.60 401.40v-24.00"/>
<path d="m10.00 343.40
	h681.60
	M10.00 337.40
	h681.60
	M10.00 331.40
	h681.60
	M10.00 325.40
	h681.60
	M10.00 319.40
	h681.60
	" class="stroke"/>
<path d="m10.00 401.40
	h681.60
	M10.00 395.40
	h681.60
	M10.00 389.40
	h681.60
	M10.00 383.40
	h681.60
	M10.00 377.40
	h681.60
	" class="stroke"/>
</g>
<g stroke-width="0.70" style="font:bold 13.00px Times">
<text x="54.70" y="303.80">I</text>
</g>
<g stroke-width="0.70" style="font:bold 13.00px Times">
<text x="183.60" y="306.80">iii<tspan
	 style="font:italic 11.00px Times">ø7²</tspan></text>
</g>
<g stroke-width="0.70" style="font:bold 13.00px Times">
<text x="321.50" y="314.80">I</text>
</g>
<g stroke-width="0.70" style="font:bold 13.00px Times">
<text x="450.10" y="309.80">vi</text>
</g>
<g stroke-width="0.70" style="font:bold 13.00px Times">
<text x="581.50" y="309.80">I<tspan
	 style="font:italic 11.00px Times">¹</tspan></text>
</g>
<g stroke-width="0.70" style="font:italic 11.00px Times">
<use x="22.00" y="337.40" xlink:href="#tclef"/>
<use x="37.00" y="319.40" xlink:href="#sh0"/>
<use x="56.50" y="331.40" xlink:href="#hd"/>
<path d="M60.00 331.40v-21.00" class="stroke"/>
<use x="85.30" y="325.40" xlink:href="#hd"/>
<path d="M81.80 325.40v21.00" class="stroke"/>
<use x="113.90" y="325.40" xlink:href="#hd"/>
<path d="M110.40 325.40v21.00" class="stroke"/>
<use x="142.50" y="328.40" xlink:href="#hd"/>
<path d="M139.00 328.40v21.00" class="stroke"/>
<path class="fill"
	d="M139.00 349.40c0.6 -5.6 9.6 -9 5.6 -18.4
	1.6 6 -1.3 11.6 -5.6 12.8
"/>
<use x="162.90" y="331.40" xlink:href="#hd"/>
<path d="M159.40 331.40v21.00" class="stroke"/>
<path class="fill"
	d="M159.40 352.40c0.6 -5.6 9.6 -9 5.6 -18.4
	1.6 6 -1.3 11.6 -5.6 12.8
"/>
<use x="191.60" y="334.40" xlink:href="#hd"/>
<path d="M195.10 334.40v-21.00" class="stroke"/>
<path class="fill"
	d="M195.10 313.40c0.6 5.6 9.6 9 5.6 18.4
	1.6 -6 -1.3 -11.6 -5.6 -12.8
"/>
<use x="212.30" y="337.40" xlink:href="#hd"/>
<path d="M215.80 337.40v-21.00" class="stroke"/>
<path class="fill"
	d="M215.80 316.40c0.6 5.6 9.6 9 5.6 18.4
	1.6 -6 -1.3 -11.6 -5.6 -12.8
"/>
<use x="233.20" y="328.40" xlink:href="#hd"/>
<path d="M229.70 328.40v21.00" class="stroke"/>
<use x="261.80" y="325.40" xlink:href="#hd"/>
<path d="M258.30 325.40v21.00" class="stroke"/>
<use x="290.40" y="322.40" xlink:href="#hd"/>
<path d="M286.90 322.40v21.00" class="stroke"/>
<use x="323.30" y="325.40" xlink:href="#hd"/>
<path d="M319.80 325.40v21.00" class="stroke"/>
<use x="352.00" y="322.40" xlink:href="#hd"/>
<path d="M348.50 322.40v21.00" class="stroke"/>
<use x="380.60" y="325.40" xlink:href="#hd"/>
<path d="M377.10 325.40v21.00" class="stroke"/>
<path class="fill"
	d="M377.10 346.40c0.6 -5.6 9.6 -9 5.6 -18.4
	1.6 6 -1.3 11.6 -5.6 12.8
"/>
<use x="401.00" y="328.40" xlink:href="#hd"/>
<path d="M397.50 328.40v21.00" class="stroke"/>
<path class="fill"
	d="M397.50 349.40c0.6 -5.6 9.6 -9 5.6 -18.4
	1.6 6 -1.3 11.6 -5.6 12.8
"/>
<use x="421.40" y="325.40" xlink:href="#hd"/>
<path d="M417.90 325.40v21.00" class="stroke"/>
<use x="454.30" y="337.40" xlink:href="#hd"/>
<path d="M457.80 337.40v-21.00" class="stroke"/>
<use x="483.10" y="328.40" xlink:href="#hd"/>
<path d="M479.60 328.40v21.00" class="stroke"/>
<use x="511.80" y="331.40" xlink:href="#hd"/>
<path d="M508.30 331.40v21.00" class="stroke"/>
<path class="fill"
	d="M508.30 352.40c0.6 -5.6 9.6 -9 5.6 -18.4
	1.6 6 -1.3 11.6 -5.6 12.8
"/>
<use x="530.20" y="334.40" xlink:href="#hd"/>
<path d="M533.70 334.40v-21.00" class="stroke"/>
<path class="fill"
	d="M533.70 313.40c0.6 5.6 9.6 9 5.6 18.4
	1.6 -6 -1.3 -11.6 -5.6 -12.8
"/>
<use x="550.90" y="331.40" xlink:href="#hd"/>
<path d="M554.40 331.40v-21.00" class="stroke"/>
<use x="585.30" y="337.40" xlink:href="#hd"/>
<path d="M588.80 337.40v-21.00" class="stroke"/>
<use x="613.90" y="334.40" xlink:href="#hd"/>
<path d="M617.40 334.40v-21.00" class="stroke"/>
<use x="642.60" y="337.40" xlink:href="#hd"/>
<path d="M646.10 337.40v-21.00" class="stroke"/>
<use x="671.20" y="340.40" xlink:href="#hd"/>
<path d="M674.70 340.40v-21.00" class="stroke"/>
<use x="22.00" y="383.40" xlink:href="#bclef"/>
<use x="37.00" y="383.40" xlink:href="#sh0"/>
<use x="57.50" y="401.40" xlink:href="#HD"/>
<use x="57.50" y="395.40" xlink:href="#HD"/>
<use x="57.50" y="389.40" xlink:href="#HD"/>
<use x="192.60" y="395.40" xlink:href="#HD"/>
<use x="192.60" y="389.40" xlink:href="#HD"/>
<use x="192.60" y="383.40" xlink:href="#HD"/>
<use x="323.30" y="401.40" xlink:href="#hd"/>
<path d="M326.80 401.40v-21.00" class="stroke"/>
<use x="352.00" y="395.40" xlink:href="#hd"/>
<path d="M355.50 395.40v-21.00" class="stroke"/>
<use x="380.60" y="389.40" xlink:href="#hd"/>
<path d="M384.10 389.40v-21.00" class="stroke"/>
<use x="421.40" y="395.40" xlink:href="#hd"/>
<path d="M424.90 395.40v-21.00" class="stroke"/>
<use x="454.30" y="386.40" xlink:href="#hd"/>
<path d="M450.80 386.40v21.00" class="stroke"/>
<use x="483.10" y="380.40" xlink:href="#hd"/>
<path d="M479.60 380.40v21.00" class="stroke"/>
<use x="511.80" y="374.40" xlink:href="#Hd"/>
<path d="M508.30 374.40v21.00" class="stroke"/>
<use x="586.30" y="401.40" xlink:href="#HD"/>
<use x="586.30" y="395.40" xlink:href="#HD"/>
<use x="586.30" y="389.40" xlink:href="#HD"/>
</g>
<g stroke-width="0.70" style="font:italic 11.00px Times">
<path class="stroke" stroke-width="1"
	d="M10.00 529.40v-82.00"/>
<g transform="translate(10.00,447.40) scale(1,0.82)">
	<use xlink:href="#brace"/>
</g>
<path class="stroke" stroke-width="1"
	d="M238.90 471.40v-24.00"/>
<path class="stroke" stroke-width="1"
	d="M238.90 529.40v-24.00"/>
<path class="stroke" stroke-width="1"
	d="M444.20 471.40v-24.00"/>
<path class="stroke" stroke-width="1"
	d="M444.20 529.40v-24.00"/>
<path class="stroke" stroke-width="1"
	d="M691.60 471.40v-24.00"/>
<path class="stroke" stroke-width="1"
	d="M691.60 529.40v-24.00"/>
<path d="m10.00 471.40
	h681.60
	M10.00 465.40
	h681.60
	M10.00 459.40
	h681.60
	M10.00 453.40
	h681.60
	M10.00 447.40
	h681.60
	" class="stroke"/>
<path d="m10.00 529.40
	h681.60
	M10.00 523.40
	h681.60
	M10.00 517.40
	h681.60
	M10.00 511.40
	h681.60
	M10.00 505.40
	h681.60
	" class="stroke"/>
</g>
<g stroke-width="0.70" style="font:bold 13.00px Times">
<text x="54.70" y="437.80">I</text>
</g>
<g stroke-width="0.70" style="font:bold 13.00px Times">
<text x="253.00" y="442.80">I<tspan
	 style="font:italic 11.00px Times">¹</tspan></text>
</g>
<g stroke-width="0.70" style="font:bold 13.00px Times">
<text x="457.90" y="437.80">vi</text>
<use x="22.00" y="465.40" xlink:href="#tclef"/>
<use x="37.00" y="447.40" xlink:href="#sh0"/>
<use x="56.50" y="465.40" xlink:href="#hd"/>
<path d="M60.00 465.40v-21.00" class="stroke"/>
<use x="107.20" y="456.40" xlink:href="#hd"/>
<path d="M103.70 456.40v21.00" class="stroke"/>
<use x="157.80" y="459.40" xlink:href="#hd"/>
<path d="M154.30 459.40v21.00" class="stroke"/>
<use x="203.40" y="462.40" xlink:href="#hd"/>
<path d="M206.90 462.40v-21.00" class="stroke"/>
<use x="256.80" y="453.40" xlink:href="#hd"/>
<path d="M253.30 453.40v21.00" class="stroke"/>
<use x="307.40" y="450.40" xlink:href="#hd"/>
<path d="M303.90 450.40v21.00" class="stroke"/>
<use x="358.10" y="453.40" xlink:href="#hd"/>
<path d="M354.60 453.40v21.00" class="stroke"/>
<use x="408.70" y="468.40" xlink:href="#hd"/>
<path d="M412.20 468.40v-21.00" class="stroke"/>
<use x="462.10" y="465.40" xlink:href="#hd"/>
<path d="M465.60 465.40v-21.00" class="stroke"/>
<path class="fill"
	d="M465.60 444.40c0.6 5.6 9.6 9 5.6 18.4
	1.6 -6 -1.3 -11.6 -5.6 -12.8
"/>
<use x="498.00" y="462.40" xlink:href="#hd"/>
<path d="M501.50 462.40v-21.00" class="stroke"/>
<path class="fill"
	d="M501.50 441.40c0.6 5.6 9.6 9 5.6 18.4
	1.6 -6 -1.3 -11.6 -5.6 -12.8
"/>
<use x="533.80" y="459.40" xlink:href="#hd"/>
<path d="M537.30 459.40v-21.00" class="stroke"/>
<use x="584.50" y="462.40" xlink:href="#hd"/>
<path d="M588.00 462.40v-21.00" class="stroke"/>
<path class="fill"
	d="M588.00 441.40c0.6 5.6 9.6 9 5.6 18.4
	1.6 -6 -1.3 -11.6 -5.6 -12.8
"/>
<use x="620.30" y="465.40" xlink:href="#hd"/>
<path d="M623.80 465.40v-21.00" class="stroke"/>
<path class="fill"
	d="M623.80 444.40c0.6 5.6 9.6 9 5.6 18.4
	1.6 -6 -1.3 -11.6 -5.6 -12.8
"/>
<use x="656.10" y="465.40" xlink:href="#hd"/>
<path d="M659.60 465.40v-21.00" class="stroke"/>
<use x="22.00" y="511.40" xlink:href="#bclef"/>
<use x="37.00" y="511.40" xlink:href="#sh0"/>
<use x="57.50" y="529.40" xlink:href="#HD"/>
<use x="57.50" y="523.40" xlink:href="#HD"/>
<use x="57.50" y="517.40" xlink:href="#HD"/>
<use x="256.80" y="529.40" xlink:href="#hd"/>
<path d="M260.30 529.40v-21.00" class="stroke"/>
<use x="307.40" y="523.40" xlink:href="#hd"/>
<path d="M310.90 523.40v-21.00" class="stroke"/>
<use x="358.10" y="517.40" xlink:href="#Hd"/>
<path d="M361.60 517.40v-21.00" class="stroke"/>
<use x="463.10" y="502.40" xlink:href="#HD"/>
<use x="463.10" y="514.40" xlink:href="#HD"/>
<use x="463.10" y="508.40" xlink:href="#HD"/>
</g>
</svg>
