<?xml version="1.0" standalone="no"?>
<!DOCTYPE svg PUBLIC "-//W3C//DTD SVG 1.1//EN"
	"http://www.w3.org/Graphics/SVG/1.1/DTD/svg11.dtd">
<svg xmlns="http://www.w3.org/2000/svg" version="1.1"
	xmlns:xlink="http://www.w3.org/1999/xlink"
	color="black" viewBox="0 0 760.40 127.65" preserveAspectRatio="xMidYMid meet">
<style type="text/css">
.fill {fill: currentColor}
.stroke {stroke: currentColor; fill: none}
text{white-space: pre}
</style>
<title>/home/james.clements/projects/retab/drills.abc (47) tune 47</title>
<!-- Creator: abcm2ps-8.14.11 -->
<!-- CreationDate: Apr 23, 2026 20:44 -->
<!-- CommandLine: -g -O drill /home/james.clements/projects/retab/drills.abc -->
<g stroke-width="0.70">
<!-- title: 47. Boogie-Woogie — 8th-note walking -->
</g>
<g stroke-width="0.70" style="font:12.00px Georgia">
<text x="380.20" y="15.60" text-anchor="middle">47. Boogie-Woogie — 8th-note walking</text>
</g>
<g stroke-width="0.70" style="font:7.00px Georgia">
<text x="750.40" y="31.00" text-anchor="end">1-3-5-6-b7-6-5-3 pattern</text>
</g>
<g stroke-width="0.70" transform="scale(0.700)" style="font:7.00px Georgia">
<defs>
<ellipse id="hd" rx="4.1" ry="2.9"
	transform="rotate(-20)" class="fill"/>
</defs>
<use x="84.43" y="71.64" xlink:href="#hd"/>
<path d="M87.93 71.64v-21.00" class="stroke"/>
</g>
<g stroke-width="0.70" style="font:bold 15.00px Times">
<text x="66.80" y="52.25">= 120</text>
<path class="stroke" stroke-width="1"
	d="M221.50 104.25v-24.00"/>
<path class="stroke" stroke-width="1"
	d="M396.80 104.25v-24.00"/>
<path class="stroke" stroke-width="1"
	d="M572.70 104.25v-24.00"/>
<path class="stroke" stroke-width="3"
	d="M748.90 104.25v-24.00"/>
<path class="stroke" stroke-width="1"
	d="M744.40 104.25v-24.00"/>
<path d="m10.00 104.25
	h740.40
	M10.00 98.25
	h740.40
	M10.00 92.25
	h740.40
	M10.00 86.25
	h740.40
	M10.00 80.25
	h740.40
	" class="stroke"/>
</g>
<g stroke-width="0.70" style="font:12.00px Helvetica">
<text x="55.00" y="67.85">C</text>
<text x="55.90" y="115.85">8</text>
<text x="231.00" y="67.85">F</text>
<text x="231.30" y="120.85">8</text>
<text x="405.50" y="67.85">G</text>
<text x="406.70" y="119.85">8</text>
<text x="581.70" y="67.85">C</text>
<text x="582.60" y="115.85">8</text>
<defs>
<path id="ubclef" class="fill" d="m-200 -87
	c124 -35 222 -78 254 -236
	43 -228 -167 -246 -192 -103
	59 -80 157 22 92 78
	-62 47 -115 -22 -106 -88
	21 -141 270 -136 274 52
	-1 175 -106 264 -322 297
	m357 -250
	c0 -36 51 -34 51 0
	0 37 -51 36 -51 0
	m-2 -129
	c0 -36 51 -34 51 0
	0 38 -51 37 -51 0"/>
<use id="bclef" transform="translate(0,18) scale(0.045)"
	xlink:href="#ubclef"/>
</defs>
<use x="22.00" y="86.25" xlink:href="#bclef"/>
<g style="font:bold 16px serif"
	transform="translate(40.50,103.75) scale(1.2,1)">
	<text text-anchor="middle">4</text>
	<text y="-12" text-anchor="middle">4</text>
</g>
<use x="58.50" y="95.25" xlink:href="#hd"/>
<path d="M62.00 95.25v-21.00" class="stroke"/>
<path class="fill"
	d="M62.00 74.25c0.6 5.6 9.6 9 5.6 18.4
	1.6 -6 -1.3 -11.6 -5.6 -12.8
"/>
<use x="79.90" y="89.25" xlink:href="#hd"/>
<path d="M76.40 89.25v21.00" class="stroke"/>
<path class="fill"
	d="M76.40 110.25c0.6 -5.6 9.6 -9 5.6 -18.4
	1.6 6 -1.3 11.6 -5.6 12.8
"/>
<use x="100.90" y="83.25" xlink:href="#hd"/>
<path d="M97.40 83.25v21.00" class="stroke"/>
<path class="fill"
	d="M97.40 104.25c0.6 -5.6 9.6 -9 5.6 -18.4
	1.6 6 -1.3 11.6 -5.6 12.8
"/>
<use x="121.90" y="80.25" xlink:href="#hd"/>
<path d="M118.40 80.25v21.00" class="stroke"/>
<path class="fill"
	d="M118.40 101.25c0.6 -5.6 9.6 -9 5.6 -18.4
	1.6 6 -1.3 11.6 -5.6 12.8
"/>
<use x="143.40" y="77.25" xlink:href="#hd"/>
<defs>
<path id="uflat" class="fill" d="
	m100 -746
	h32
	v734
	l-32 4
	m32 -332
	c46 -72 152 -90 208 -20
	100 110 -120 326 -208 348
	m0 -28
	c54 0 200 -206 130 -290
	-50 -60 -130 -4 -130 34"/>
<use id="ft0" transform="translate(-3.5,3.5) scale(0.018)"
	xlink:href="#uflat"/>
</defs>
<use x="134.40" y="77.25" xlink:href="#ft0"/>
<path d="M139.90 77.25v21.00" class="stroke"/>
<path class="fill"
	d="M139.90 98.25c0.6 -5.6 9.6 -9 5.6 -18.4
	1.6 6 -1.3 11.6 -5.6 12.8
"/>
<use x="164.40" y="80.25" xlink:href="#hd"/>
<path d="M160.90 80.25v21.00" class="stroke"/>
<path class="fill"
	d="M160.90 101.25c0.6 -5.6 9.6 -9 5.6 -18.4
	1.6 6 -1.3 11.6 -5.6 12.8
"/>
<use x="185.40" y="83.25" xlink:href="#hd"/>
<path d="M181.90 83.25v21.00" class="stroke"/>
<path class="fill"
	d="M181.90 104.25c0.6 -5.6 9.6 -9 5.6 -18.4
	1.6 6 -1.3 11.6 -5.6 12.8
"/>
<use x="206.40" y="89.25" xlink:href="#hd"/>
<path d="M202.90 89.25v21.00" class="stroke"/>
<path class="fill"
	d="M202.90 110.25c0.6 -5.6 9.6 -9 5.6 -18.4
	1.6 6 -1.3 11.6 -5.6 12.8
"/>
<use x="234.00" y="86.25" xlink:href="#hd"/>
<path d="M230.50 86.25v21.00" class="stroke"/>
<path class="fill"
	d="M230.50 107.25c0.6 -5.6 9.6 -9 5.6 -18.4
	1.6 6 -1.3 11.6 -5.6 12.8
"/>
<use x="255.00" y="80.25" xlink:href="#hd"/>
<path d="M251.50 80.25v21.00" class="stroke"/>
<path class="fill"
	d="M251.50 101.25c0.6 -5.6 9.6 -9 5.6 -18.4
	1.6 6 -1.3 11.6 -5.6 12.8
"/>
<defs>
<path id="hl" class="stroke" d="m-6 0h12"/>
</defs>
<use x="276.00" y="74.25" xlink:href="#hl"/>
<use x="276.00" y="74.25" xlink:href="#hd"/>
<path d="M272.50 74.25v21.00" class="stroke"/>
<path class="fill"
	d="M272.50 95.25c0.6 -5.6 9.6 -9 5.6 -18.4
	1.6 6 -1.3 11.6 -5.6 12.8
"/>
<use x="297.00" y="74.25" xlink:href="#hl"/>
<use x="297.00" y="71.25" xlink:href="#hd"/>
<path d="M293.50 71.25v21.00" class="stroke"/>
<path class="fill"
	d="M293.50 92.25c0.6 -5.6 9.6 -9 5.6 -18.4
	1.6 6 -1.3 11.6 -5.6 12.8
"/>
<use x="318.60" y="74.25" xlink:href="#hl"/>
<use x="318.60" y="68.25" xlink:href="#hl"/>
<use x="318.60" y="68.25" xlink:href="#hd"/>
<use x="309.60" y="68.25" xlink:href="#ft0"/>
<path d="M315.10 68.25v24.00" class="stroke"/>
<path class="fill"
	d="M315.10 92.25c0.6 -5.6 9.6 -9 5.6 -18.4
	1.6 6 -1.3 11.6 -5.6 12.8
"/>
<use x="339.70" y="74.25" xlink:href="#hl"/>
<use x="339.70" y="71.25" xlink:href="#hd"/>
<path d="M336.20 71.25v21.00" class="stroke"/>
<path class="fill"
	d="M336.20 92.25c0.6 -5.6 9.6 -9 5.6 -18.4
	1.6 6 -1.3 11.6 -5.6 12.8
"/>
<use x="360.70" y="74.25" xlink:href="#hl"/>
<use x="360.70" y="74.25" xlink:href="#hd"/>
<path d="M357.20 74.25v21.00" class="stroke"/>
<path class="fill"
	d="M357.20 95.25c0.6 -5.6 9.6 -9 5.6 -18.4
	1.6 6 -1.3 11.6 -5.6 12.8
"/>
<use x="381.70" y="80.25" xlink:href="#hd"/>
<path d="M378.20 80.25v21.00" class="stroke"/>
<path class="fill"
	d="M378.20 101.25c0.6 -5.6 9.6 -9 5.6 -18.4
	1.6 6 -1.3 11.6 -5.6 12.8
"/>
<use x="409.30" y="104.25" xlink:href="#hd"/>
<path d="M412.80 104.25v-21.00" class="stroke"/>
<path class="fill"
	d="M412.80 83.25c0.6 5.6 9.6 9 5.6 18.4
	1.6 -6 -1.3 -11.6 -5.6 -12.8
"/>
<use x="430.60" y="98.25" xlink:href="#hd"/>
<path d="M434.10 98.25v-21.00" class="stroke"/>
<path class="fill"
	d="M434.10 77.25c0.6 5.6 9.6 9 5.6 18.4
	1.6 -6 -1.3 -11.6 -5.6 -12.8
"/>
<use x="451.80" y="92.25" xlink:href="#hd"/>
<path d="M455.30 92.25v-21.00" class="stroke"/>
<path class="fill"
	d="M455.30 71.25c0.6 5.6 9.6 9 5.6 18.4
	1.6 -6 -1.3 -11.6 -5.6 -12.8
"/>
<use x="473.20" y="89.25" xlink:href="#hd"/>
<path d="M469.70 89.25v21.00" class="stroke"/>
<path class="fill"
	d="M469.70 110.25c0.6 -5.6 9.6 -9 5.6 -18.4
	1.6 6 -1.3 11.6 -5.6 12.8
"/>
<use x="494.80" y="86.25" xlink:href="#hd"/>
<use x="485.80" y="86.25" xlink:href="#ft0"/>
<path d="M491.30 86.25v21.00" class="stroke"/>
<path class="fill"
	d="M491.30 107.25c0.6 -5.6 9.6 -9 5.6 -18.4
	1.6 6 -1.3 11.6 -5.6 12.8
"/>
<use x="515.80" y="89.25" xlink:href="#hd"/>
<path d="M512.30 89.25v21.00" class="stroke"/>
<path class="fill"
	d="M512.30 110.25c0.6 -5.6 9.6 -9 5.6 -18.4
	1.6 6 -1.3 11.6 -5.6 12.8
"/>
<use x="536.80" y="92.25" xlink:href="#hd"/>
<path d="M533.30 92.25v21.00" class="stroke"/>
<path class="fill"
	d="M533.30 113.25c0.6 -5.6 9.6 -9 5.6 -18.4
	1.6 6 -1.3 11.6 -5.6 12.8
"/>
<use x="555.70" y="98.25" xlink:href="#hd"/>
<path d="M559.20 98.25v-21.00" class="stroke"/>
<path class="fill"
	d="M559.20 77.25c0.6 5.6 9.6 9 5.6 18.4
	1.6 -6 -1.3 -11.6 -5.6 -12.8
"/>
<use x="585.20" y="95.25" xlink:href="#hd"/>
<path d="M588.70 95.25v-21.00" class="stroke"/>
<path class="fill"
	d="M588.70 74.25c0.6 5.6 9.6 9 5.6 18.4
	1.6 -6 -1.3 -11.6 -5.6 -12.8
"/>
<use x="606.60" y="89.25" xlink:href="#hd"/>
<path d="M603.10 89.25v21.00" class="stroke"/>
<path class="fill"
	d="M603.10 110.25c0.6 -5.6 9.6 -9 5.6 -18.4
	1.6 6 -1.3 11.6 -5.6 12.8
"/>
<use x="627.60" y="83.25" xlink:href="#hd"/>
<path d="M624.10 83.25v21.00" class="stroke"/>
<path class="fill"
	d="M624.10 104.25c0.6 -5.6 9.6 -9 5.6 -18.4
	1.6 6 -1.3 11.6 -5.6 12.8
"/>
<use x="648.60" y="80.25" xlink:href="#hd"/>
<path d="M645.10 80.25v21.00" class="stroke"/>
<path class="fill"
	d="M645.10 101.25c0.6 -5.6 9.6 -9 5.6 -18.4
	1.6 6 -1.3 11.6 -5.6 12.8
"/>
<use x="670.10" y="77.25" xlink:href="#hd"/>
<use x="661.10" y="77.25" xlink:href="#ft0"/>
<path d="M666.60 77.25v21.00" class="stroke"/>
<path class="fill"
	d="M666.60 98.25c0.6 -5.6 9.6 -9 5.6 -18.4
	1.6 6 -1.3 11.6 -5.6 12.8
"/>
<use x="691.10" y="80.25" xlink:href="#hd"/>
<path d="M687.60 80.25v21.00" class="stroke"/>
<path class="fill"
	d="M687.60 101.25c0.6 -5.6 9.6 -9 5.6 -18.4
	1.6 6 -1.3 11.6 -5.6 12.8
"/>
<use x="712.10" y="83.25" xlink:href="#hd"/>
<path d="M708.60 83.25v21.00" class="stroke"/>
<path class="fill"
	d="M708.60 104.25c0.6 -5.6 9.6 -9 5.6 -18.4
	1.6 6 -1.3 11.6 -5.6 12.8
"/>
<use x="733.10" y="89.25" xlink:href="#hd"/>
<path d="M729.60 89.25v21.00" class="stroke"/>
<path class="fill"
	d="M729.60 110.25c0.6 -5.6 9.6 -9 5.6 -18.4
	1.6 6 -1.3 11.6 -5.6 12.8
"/>
</g>
</svg>
