<?xml version="1.0" standalone="no"?>
<!DOCTYPE svg PUBLIC "-//W3C//DTD SVG 1.1//EN"
	"http://www.w3.org/Graphics/SVG/1.1/DTD/svg11.dtd">
<svg xmlns="http://www.w3.org/2000/svg" version="1.1"
	xmlns:xlink="http://www.w3.org/1999/xlink"
	color="black" viewBox="0 0 760.40 198.65" preserveAspectRatio="xMidYMid meet">
<style type="text/css">
.fill {fill: currentColor}
.stroke {stroke: currentColor; fill: none}
text{white-space: pre}
</style>
<title>/home/james.clements/projects/retab/drills.abc (96) tune 96</title>
<!-- Creator: abcm2ps-8.14.11 -->
<!-- CreationDate: Apr 23, 2026 20:44 -->
<!-- CommandLine: -g -O drill /home/james.clements/projects/retab/drills.abc -->
<g stroke-width="0.70">
<!-- title: 96. Spiritual Antiphon (3rds CCW) — bass-and-chord LH + call-response RH -->
</g>
<g stroke-width="0.70" style="font:12.00px Georgia">
<text x="380.20" y="15.60" text-anchor="middle">96. Spiritual Antiphon (3rds CCW) — bass-and-chord LH + call-response RH</text>
</g>
<g stroke-width="0.70" style="font:12.00px Georgia">
<!-- subtitle: Antiphonal texture — LH drives, RH trades with rhythm on off-beats -->
</g>
<g stroke-width="0.70" style="font:8.00px Georgia">
<text x="380.20" y="27.40" text-anchor="middle">Antiphonal texture — LH drives, RH trades with rhythm on off-beats</text>
</g>
<g stroke-width="0.70" style="font:7.00px Georgia">
<text x="750.40" y="42.00" text-anchor="end">Full 7-mode cycle</text>
</g>
<g stroke-width="0.70" transform="scale(0.700)" style="font:7.00px Georgia">
<defs>
<ellipse id="hd" rx="4.1" ry="2.9"
	transform="rotate(-20)" class="fill"/>
</defs>
<use x="85.14" y="87.36" xlink:href="#hd"/>
<path d="M88.64 87.36v-21.00" class="stroke"/>
</g>
<g stroke-width="0.70" style="font:bold 15.00px Times">
<text x="67.30" y="63.25">= 80</text>
<path class="stroke" stroke-width="1"
	d="M10.00 169.25v-82.00"/>
<defs>
<path id="brace" class="fill" d="m-2.5 101
	c-4.5 -4.6 -7.5 -12.2 -4.4 -26.8
	3.5 -14.3 3.2 -21.7 -2.1 -24.2
	7.4 2.4 7.3 14.2 3.5 29.5
	-2.7 9.5 -1.5 16.2 3 21.5
	M-2.5 1c-4.5 4.6 -7.5 12.2 -4.4 26.8
	c3.5 14.3 3.2 21.7 -2.1 24.2
	7.4 -2.4 7.3 -14.2 3.5 -29.5
	-2.7 -9.5 -1.5 -16.2 3 -21.5"/>
</defs>
<g transform="translate(10.00,87.25) scale(1,0.82)">
	<use xlink:href="#brace"/>
</g>
<path class="stroke" stroke-width="1"
	d="M134.30 111.25v-24.00"/>
<path class="stroke" stroke-width="1"
	d="M134.30 169.25v-24.00"/>
<path class="stroke" stroke-width="1"
	d="M222.00 111.25v-24.00"/>
<path class="stroke" stroke-width="1"
	d="M222.00 169.25v-24.00"/>
<path class="stroke" stroke-width="1"
	d="M309.60 111.25v-24.00"/>
<path class="stroke" stroke-width="1"
	d="M309.60 169.25v-24.00"/>
<path class="stroke" stroke-width="1"
	d="M397.00 111.25v-24.00"/>
<path class="stroke" stroke-width="1"
	d="M397.00 169.25v-24.00"/>
<path class="stroke" stroke-width="1"
	d="M484.70 111.25v-24.00"/>
<path class="stroke" stroke-width="1"
	d="M484.70 169.25v-24.00"/>
<path class="stroke" stroke-width="1"
	d="M572.40 111.25v-24.00"/>
<path class="stroke" stroke-width="1"
	d="M572.40 169.25v-24.00"/>
<path class="stroke" stroke-width="1"
	d="M659.70 111.25v-24.00"/>
<path class="stroke" stroke-width="1"
	d="M659.70 169.25v-24.00"/>
<path class="stroke" stroke-width="3"
	d="M748.90 111.25v-24.00"/>
<path class="stroke" stroke-width="1"
	d="M744.40 111.25v-24.00"/>
<path class="stroke" stroke-width="3"
	d="M748.90 169.25v-24.00"/>
<path class="stroke" stroke-width="1"
	d="M744.40 169.25v-24.00"/>
<path d="m10.00 111.25
	h740.40
	M10.00 105.25
	h740.40
	M10.00 99.25
	h740.40
	M10.00 93.25
	h740.40
	M10.00 87.25
	h740.40
	" class="stroke"/>
<path d="m10.00 169.25
	h740.40
	M10.00 163.25
	h740.40
	M10.00 157.25
	h740.40
	M10.00 151.25
	h740.40
	M10.00 145.25
	h740.40
	" class="stroke"/>
</g>
<g stroke-width="0.70" style="font:12.00px Helvetica">
<text x="55.50" y="78.85">C</text>
<text x="56.40" y="180.85">8</text>
<text x="139.40" y="78.85">Am</text>
<text x="144.70" y="180.85">8</text>
<text x="232.00" y="78.85">F</text>
<text x="232.30" y="185.85">8</text>
<text x="314.70" y="78.85">Dm</text>
<text x="320.00" y="191.85">8</text>
<text x="404.20" y="78.85">B°</text>
<text x="407.40" y="182.85">8</text>
<text x="493.90" y="78.85">G</text>
<text x="495.00" y="182.85">8</text>
<text x="578.00" y="78.85">Em</text>
<text x="582.70" y="188.85">8</text>
<text x="669.20" y="78.85">C</text>
<text x="670.10" y="180.85">8</text>
<defs>
<path id="utclef" class="fill" d="m-50 -90
	c-72 -41 -72 -158 52 -188
	150 -10 220 188 90 256
	-114 52 -275 0 -293 -136
	-15 -181 93 -229 220 -334
	88 -87 79 -133 62 -210
	-51 33 -94 105 -89 186
	17 267 36 374 49 574
	6 96 -19 134 -77 135
	-80 1 -126 -93 -61 -133
	85 -41 133 101 31 105
	23 17 92 37 90 -92
	-10 -223 -39 -342 -50 -617
	0 -90 0 -162 96 -232
	56 72 63 230 22 289
	-74 106 -257 168 -255 316
	9 153 148 185 252 133
	86 -65 29 -192 -80 -176
	-71 12 -105 67 -59 124"/>
<use id="tclef" transform="translate(0,6) scale(0.045)"
	xlink:href="#utclef"/>
</defs>
<use x="22.00" y="105.25" xlink:href="#tclef"/>
<g style="font:bold 16px serif"
	transform="translate(40.50,110.75) scale(1.2,1)">
	<text text-anchor="middle">4</text>
	<text y="-12" text-anchor="middle">4</text>
</g>
<defs>
<rect id="r2" class="fill"
	x="-3.5" y="-3" width="7" height="3"/>
</defs>
<use x="59.00" y="99.25" xlink:href="#r2"/>
<use x="99.10" y="90.25" xlink:href="#hd"/>
<path d="M95.60 90.25v21.00" class="stroke"/>
<use x="119.30" y="84.25" xlink:href="#hd"/>
<path d="M115.80 84.25v21.00" class="stroke"/>
<use x="147.30" y="99.25" xlink:href="#r2"/>
<defs>
<path id="hl" class="stroke" d="m-6 0h12"/>
</defs>
<use x="186.90" y="81.25" xlink:href="#hl"/>
<use x="186.90" y="75.25" xlink:href="#hl"/>
<use x="186.90" y="75.25" xlink:href="#hd"/>
<path d="M183.40 75.25v24.00" class="stroke"/>
<use x="207.00" y="81.25" xlink:href="#hl"/>
<use x="207.00" y="75.25" xlink:href="#hl"/>
<use x="207.00" y="69.25" xlink:href="#hl"/>
<use x="207.00" y="69.25" xlink:href="#hd"/>
<path d="M203.50 69.25v30.00" class="stroke"/>
<use x="235.00" y="99.25" xlink:href="#r2"/>
<use x="274.60" y="81.25" xlink:href="#hl"/>
<use x="274.60" y="81.25" xlink:href="#hd"/>
<path d="M271.10 81.25v21.00" class="stroke"/>
<use x="294.60" y="81.25" xlink:href="#hl"/>
<use x="294.60" y="75.25" xlink:href="#hl"/>
<use x="294.60" y="75.25" xlink:href="#hd"/>
<path d="M291.10 75.25v24.00" class="stroke"/>
<use x="322.60" y="99.25" xlink:href="#r2"/>
<use x="362.20" y="87.25" xlink:href="#hd"/>
<path d="M358.70 87.25v21.00" class="stroke"/>
<use x="382.00" y="81.25" xlink:href="#hl"/>
<use x="382.00" y="81.25" xlink:href="#hd"/>
<path d="M378.50 81.25v21.00" class="stroke"/>
<use x="410.00" y="99.25" xlink:href="#r2"/>
<use x="449.60" y="81.25" xlink:href="#hl"/>
<use x="449.60" y="75.25" xlink:href="#hl"/>
<use x="449.60" y="72.25" xlink:href="#hd"/>
<path d="M446.10 72.25v27.00" class="stroke"/>
<use x="469.70" y="81.25" xlink:href="#hl"/>
<use x="469.70" y="75.25" xlink:href="#hl"/>
<use x="469.70" y="69.25" xlink:href="#hl"/>
<use x="469.70" y="66.25" xlink:href="#hd"/>
<path d="M466.20 66.25v33.00" class="stroke"/>
<use x="497.70" y="99.25" xlink:href="#r2"/>
<use x="537.30" y="81.25" xlink:href="#hl"/>
<use x="537.30" y="78.25" xlink:href="#hd"/>
<path d="M533.80 78.25v21.00" class="stroke"/>
<use x="557.40" y="81.25" xlink:href="#hl"/>
<use x="557.40" y="75.25" xlink:href="#hl"/>
<use x="557.40" y="72.25" xlink:href="#hd"/>
<path d="M553.90 72.25v27.00" class="stroke"/>
<use x="585.40" y="99.25" xlink:href="#r2"/>
<use x="625.00" y="84.25" xlink:href="#hd"/>
<path d="M621.50 84.25v21.00" class="stroke"/>
<use x="644.80" y="81.25" xlink:href="#hl"/>
<use x="644.80" y="78.25" xlink:href="#hd"/>
<path d="M641.30 78.25v21.00" class="stroke"/>
<use x="672.80" y="99.25" xlink:href="#r2"/>
<use x="712.80" y="90.25" xlink:href="#hd"/>
<path d="M709.30 90.25v21.00" class="stroke"/>
<use x="733.10" y="84.25" xlink:href="#hd"/>
<path d="M729.60 84.25v21.00" class="stroke"/>
<defs>
<path id="ubclef" class="fill" d="m-200 -87
	c124 -35 222 -78 254 -236
	43 -228 -167 -246 -192 -103
	59 -80 157 22 92 78
	-62 47 -115 -22 -106 -88
	21 -141 270 -136 274 52
	-1 175 -106 264 -322 297
	m357 -250
	c0 -36 51 -34 51 0
	0 37 -51 36 -51 0
	m-2 -129
	c0 -36 51 -34 51 0
	0 38 -51 37 -51 0"/>
<use id="bclef" transform="translate(0,18) scale(0.045)"
	xlink:href="#ubclef"/>
</defs>
<use x="22.00" y="151.25" xlink:href="#bclef"/>
<g style="font:bold 16px serif"
	transform="translate(40.50,168.75) scale(1.2,1)">
	<text text-anchor="middle">4</text>
	<text y="-12" text-anchor="middle">4</text>
</g>
<use x="59.00" y="160.25" xlink:href="#hd"/>
<path d="M62.50 160.25v-21.00" class="stroke"/>
<use x="79.30" y="139.25" xlink:href="#hl"/>
<use x="79.30" y="139.25" xlink:href="#hd"/>
<path d="M75.80 139.25v34.00" class="stroke"/>
<use x="79.30" y="154.25" xlink:href="#hd"/>
<use x="79.30" y="148.25" xlink:href="#hd"/>
<use x="99.10" y="160.25" xlink:href="#hd"/>
<path d="M102.60 160.25v-21.00" class="stroke"/>
<use x="119.30" y="139.25" xlink:href="#hl"/>
<use x="119.30" y="139.25" xlink:href="#hd"/>
<path d="M115.80 139.25v34.00" class="stroke"/>
<use x="119.30" y="154.25" xlink:href="#hd"/>
<use x="119.30" y="148.25" xlink:href="#hd"/>
<use x="147.30" y="145.25" xlink:href="#hd"/>
<path d="M143.80 145.25v21.00" class="stroke"/>
<use x="167.10" y="139.25" xlink:href="#hl"/>
<use x="167.10" y="133.25" xlink:href="#hl"/>
<use x="167.10" y="127.25" xlink:href="#hl"/>
<use x="167.10" y="124.25" xlink:href="#hd"/>
<path d="M163.60 124.25v34.00" class="stroke"/>
<use x="167.10" y="139.25" xlink:href="#hd"/>
<use x="167.10" y="133.25" xlink:href="#hd"/>
<use x="186.90" y="145.25" xlink:href="#hd"/>
<path d="M183.40 145.25v21.00" class="stroke"/>
<use x="207.00" y="139.25" xlink:href="#hl"/>
<use x="207.00" y="133.25" xlink:href="#hl"/>
<use x="207.00" y="127.25" xlink:href="#hl"/>
<use x="207.00" y="124.25" xlink:href="#hd"/>
<path d="M203.50 124.25v34.00" class="stroke"/>
<use x="207.00" y="139.25" xlink:href="#hd"/>
<use x="207.00" y="133.25" xlink:href="#hd"/>
<use x="235.00" y="151.25" xlink:href="#hd"/>
<path d="M231.50 151.25v21.00" class="stroke"/>
<use x="254.80" y="139.25" xlink:href="#hl"/>
<use x="254.80" y="133.25" xlink:href="#hl"/>
<use x="254.80" y="130.25" xlink:href="#hd"/>
<path d="M251.30 130.25v34.00" class="stroke"/>
<use x="254.80" y="145.25" xlink:href="#hd"/>
<use x="254.80" y="139.25" xlink:href="#hd"/>
<use x="274.60" y="151.25" xlink:href="#hd"/>
<path d="M271.10 151.25v21.00" class="stroke"/>
<use x="294.60" y="139.25" xlink:href="#hl"/>
<use x="294.60" y="133.25" xlink:href="#hl"/>
<use x="294.60" y="130.25" xlink:href="#hd"/>
<path d="M291.10 130.25v34.00" class="stroke"/>
<use x="294.60" y="145.25" xlink:href="#hd"/>
<use x="294.60" y="139.25" xlink:href="#hd"/>
<use x="322.60" y="157.25" xlink:href="#hd"/>
<path d="M319.10 157.25v21.00" class="stroke"/>
<use x="342.40" y="139.25" xlink:href="#hl"/>
<use x="342.40" y="136.25" xlink:href="#hd"/>
<path d="M338.90 136.25v34.00" class="stroke"/>
<use x="342.40" y="151.25" xlink:href="#hd"/>
<use x="342.40" y="145.25" xlink:href="#hd"/>
<use x="362.20" y="157.25" xlink:href="#hd"/>
<path d="M358.70 157.25v21.00" class="stroke"/>
<use x="382.00" y="139.25" xlink:href="#hl"/>
<use x="382.00" y="136.25" xlink:href="#hd"/>
<path d="M378.50 136.25v34.00" class="stroke"/>
<use x="382.00" y="151.25" xlink:href="#hd"/>
<use x="382.00" y="145.25" xlink:href="#hd"/>
<use x="410.00" y="142.25" xlink:href="#hd"/>
<path d="M406.50 142.25v21.00" class="stroke"/>
<use x="429.80" y="139.25" xlink:href="#hl"/>
<use x="429.80" y="133.25" xlink:href="#hl"/>
<use x="429.80" y="127.25" xlink:href="#hl"/>
<use x="429.80" y="121.25" xlink:href="#hl"/>
<use x="429.80" y="121.25" xlink:href="#hd"/>
<path d="M426.30 121.25v36.00" class="stroke"/>
<use x="429.80" y="136.25" xlink:href="#hd"/>
<use x="429.80" y="130.25" xlink:href="#hd"/>
<use x="449.60" y="142.25" xlink:href="#hd"/>
<path d="M446.10 142.25v21.00" class="stroke"/>
<use x="469.70" y="139.25" xlink:href="#hl"/>
<use x="469.70" y="133.25" xlink:href="#hl"/>
<use x="469.70" y="127.25" xlink:href="#hl"/>
<use x="469.70" y="121.25" xlink:href="#hl"/>
<use x="469.70" y="121.25" xlink:href="#hd"/>
<path d="M466.20 121.25v36.00" class="stroke"/>
<use x="469.70" y="136.25" xlink:href="#hd"/>
<use x="469.70" y="130.25" xlink:href="#hd"/>
<use x="497.70" y="148.25" xlink:href="#hd"/>
<path d="M494.20 148.25v21.00" class="stroke"/>
<use x="517.50" y="139.25" xlink:href="#hl"/>
<use x="517.50" y="133.25" xlink:href="#hl"/>
<use x="517.50" y="127.25" xlink:href="#hl"/>
<use x="517.50" y="127.25" xlink:href="#hd"/>
<path d="M514.00 127.25v34.00" class="stroke"/>
<use x="517.50" y="142.25" xlink:href="#hd"/>
<use x="517.50" y="136.25" xlink:href="#hd"/>
<use x="537.30" y="148.25" xlink:href="#hd"/>
<path d="M533.80 148.25v21.00" class="stroke"/>
<use x="557.40" y="139.25" xlink:href="#hl"/>
<use x="557.40" y="133.25" xlink:href="#hl"/>
<use x="557.40" y="127.25" xlink:href="#hl"/>
<use x="557.40" y="127.25" xlink:href="#hd"/>
<path d="M553.90 127.25v34.00" class="stroke"/>
<use x="557.40" y="142.25" xlink:href="#hd"/>
<use x="557.40" y="136.25" xlink:href="#hd"/>
<use x="585.40" y="154.25" xlink:href="#hd"/>
<path d="M581.90 154.25v21.00" class="stroke"/>
<use x="605.20" y="139.25" xlink:href="#hl"/>
<use x="605.20" y="133.25" xlink:href="#hl"/>
<use x="605.20" y="133.25" xlink:href="#hd"/>
<path d="M601.70 133.25v34.00" class="stroke"/>
<use x="605.20" y="148.25" xlink:href="#hd"/>
<use x="605.20" y="142.25" xlink:href="#hd"/>
<use x="625.00" y="154.25" xlink:href="#hd"/>
<path d="M621.50 154.25v21.00" class="stroke"/>
<use x="644.80" y="139.25" xlink:href="#hl"/>
<use x="644.80" y="133.25" xlink:href="#hl"/>
<use x="644.80" y="133.25" xlink:href="#hd"/>
<path d="M641.30 133.25v34.00" class="stroke"/>
<use x="644.80" y="148.25" xlink:href="#hd"/>
<use x="644.80" y="142.25" xlink:href="#hd"/>
<use x="672.80" y="160.25" xlink:href="#hd"/>
<path d="M676.30 160.25v-21.00" class="stroke"/>
<use x="693.00" y="139.25" xlink:href="#hl"/>
<use x="693.00" y="139.25" xlink:href="#hd"/>
<path d="M689.50 139.25v34.00" class="stroke"/>
<use x="693.00" y="154.25" xlink:href="#hd"/>
<use x="693.00" y="148.25" xlink:href="#hd"/>
<use x="712.80" y="160.25" xlink:href="#hd"/>
<path d="M716.30 160.25v-21.00" class="stroke"/>
<use x="733.10" y="139.25" xlink:href="#hl"/>
<use x="733.10" y="139.25" xlink:href="#hd"/>
<path d="M729.60 139.25v34.00" class="stroke"/>
<use x="733.10" y="154.25" xlink:href="#hd"/>
<use x="733.10" y="148.25" xlink:href="#hd"/>
</g>
</svg>
