<?xml version="1.0" standalone="no"?>
<!DOCTYPE svg PUBLIC "-//W3C//DTD SVG 1.1//EN"
	"http://www.w3.org/Graphics/SVG/1.1/DTD/svg11.dtd">
<svg xmlns="http://www.w3.org/2000/svg" version="1.1"
	xmlns:xlink="http://www.w3.org/1999/xlink"
	color="black" viewBox="0 0 760.40 127.65" preserveAspectRatio="xMidYMid meet">
<style type="text/css">
.fill {fill: currentColor}
.stroke {stroke: currentColor; fill: none}
text{white-space: pre}
</style>
<title>/home/james.clements/projects/retab/drills.abc (44) tune 44</title>
<!-- Creator: abcm2ps-8.14.11 -->
<!-- CreationDate: Apr 23, 2026 20:44 -->
<!-- CommandLine: -g -O drill /home/james.clements/projects/retab/drills.abc -->
<g stroke-width="0.70">
<!-- title: 44. Rumba — clave-based stride -->
</g>
<g stroke-width="0.70" style="font:12.00px Georgia">
<text x="380.20" y="15.60" text-anchor="middle">44. Rumba — clave-based stride</text>
</g>
<g stroke-width="0.70" style="font:7.00px Georgia">
<text x="750.40" y="31.00" text-anchor="end">Bass hits on 3-3-2 clave pattern</text>
</g>
<g stroke-width="0.70" transform="scale(0.700)" style="font:7.00px Georgia">
<defs>
<ellipse id="hd" rx="4.1" ry="2.9"
	transform="rotate(-20)" class="fill"/>
</defs>
<use x="84.43" y="71.64" xlink:href="#hd"/>
<path d="M87.93 71.64v-21.00" class="stroke"/>
</g>
<g stroke-width="0.70" style="font:bold 15.00px Times">
<text x="66.80" y="52.25">= 100</text>
<path class="stroke" stroke-width="1"
	d="M221.50 104.25v-24.00"/>
<path class="stroke" stroke-width="1"
	d="M399.30 104.25v-24.00"/>
<path class="stroke" stroke-width="1"
	d="M571.50 104.25v-24.00"/>
<path class="stroke" stroke-width="3"
	d="M748.90 104.25v-24.00"/>
<path class="stroke" stroke-width="1"
	d="M744.40 104.25v-24.00"/>
<path d="m10.00 104.25
	h740.40
	M10.00 98.25
	h740.40
	M10.00 92.25
	h740.40
	M10.00 86.25
	h740.40
	M10.00 80.25
	h740.40
	" class="stroke"/>
</g>
<g stroke-width="0.70" style="font:12.00px Helvetica">
<text x="55.00" y="67.85">C</text>
<text x="55.90" y="115.85">8</text>
<text x="231.10" y="67.85">F</text>
<text x="231.40" y="120.85">8</text>
<text x="408.00" y="67.85">G</text>
<text x="409.10" y="119.85">8</text>
<text x="580.50" y="67.85">C</text>
<text x="581.40" y="117.85">8</text>
<defs>
<path id="ubclef" class="fill" d="m-200 -87
	c124 -35 222 -78 254 -236
	43 -228 -167 -246 -192 -103
	59 -80 157 22 92 78
	-62 47 -115 -22 -106 -88
	21 -141 270 -136 274 52
	-1 175 -106 264 -322 297
	m357 -250
	c0 -36 51 -34 51 0
	0 37 -51 36 -51 0
	m-2 -129
	c0 -36 51 -34 51 0
	0 38 -51 37 -51 0"/>
<use id="bclef" transform="translate(0,18) scale(0.045)"
	xlink:href="#ubclef"/>
</defs>
<use x="22.00" y="86.25" xlink:href="#bclef"/>
<g style="font:bold 16px serif"
	transform="translate(40.50,103.75) scale(1.2,1)">
	<text text-anchor="middle">4</text>
	<text y="-12" text-anchor="middle">4</text>
</g>
<use x="58.50" y="95.25" xlink:href="#hd"/>
<path d="M62.00 95.25v-21.00" class="stroke"/>
<defs>
<path id="r8e" class="fill" d="m 0 0
	c-1.5 1.5 -2.4 2 -3.6 2
	2.4 -2.8 -2.8 -4 -2.8 -1.2
	c0 2.7 4.3 2.4 5.9 0.6"/>
<g id="r8">
	<path d="m3.3 -4l-3.4 9.6" class="stroke"/>
	<use x="3.4" y="-4" xlink:href="#r8e"/>
</g>
</defs>
<use x="88.10" y="92.25" xlink:href="#r8"/>
<use x="109.10" y="95.25" xlink:href="#hd"/>
<path d="M112.60 95.25v-21.00" class="stroke"/>
<path class="fill"
	d="M112.60 74.25c0.6 5.6 9.6 9 5.6 18.4
	1.6 -6 -1.3 -11.6 -5.6 -12.8
"/>
<defs>
<path id="r4" class="fill" d="m-1 -8.5
	l3.6 5.1 -2.1 5.2 2.2 4.3
	c-2.6 -2.3 -5.1 0 -2.4 2.6
	-4.8 -3 -1.5 -6.9 1.4 -4.1
	l-3.1 -4.5 1.9 -5.1 -1.5 -3.5"/>
</defs>
<use x="132.60" y="92.25" xlink:href="#r4"/>
<use x="165.50" y="83.25" xlink:href="#hd"/>
<path d="M162.00 83.25v25.00" class="stroke"/>
<use x="165.50" y="89.25" xlink:href="#hd"/>
<use x="198.40" y="83.25" xlink:href="#hd"/>
<path d="M194.90 83.25v25.00" class="stroke"/>
<use x="198.40" y="89.25" xlink:href="#hd"/>
<use x="234.00" y="86.25" xlink:href="#hd"/>
<path d="M230.50 86.25v21.00" class="stroke"/>
<use x="263.60" y="92.25" xlink:href="#r8"/>
<use x="287.00" y="86.25" xlink:href="#hd"/>
<path d="M283.50 86.25v21.00" class="stroke"/>
<path class="fill"
	d="M283.50 107.25c0.6 -5.6 9.6 -9 5.6 -18.4
	1.6 6 -1.3 11.6 -5.6 12.8
"/>
<use x="310.30" y="92.25" xlink:href="#r4"/>
<defs>
<path id="hl" class="stroke" d="m-6 0h12"/>
</defs>
<use x="343.20" y="74.25" xlink:href="#hl"/>
<use x="343.20" y="74.25" xlink:href="#hd"/>
<path d="M339.70 74.25v25.00" class="stroke"/>
<use x="343.20" y="80.25" xlink:href="#hd"/>
<use x="376.10" y="74.25" xlink:href="#hl"/>
<use x="376.10" y="74.25" xlink:href="#hd"/>
<path d="M372.60 74.25v25.00" class="stroke"/>
<use x="376.10" y="80.25" xlink:href="#hd"/>
<use x="411.80" y="104.25" xlink:href="#hd"/>
<path d="M415.30 104.25v-21.00" class="stroke"/>
<use x="441.40" y="92.25" xlink:href="#r8"/>
<use x="462.40" y="104.25" xlink:href="#hd"/>
<path d="M465.90 104.25v-21.00" class="stroke"/>
<path class="fill"
	d="M465.90 83.25c0.6 5.6 9.6 9 5.6 18.4
	1.6 -6 -1.3 -11.6 -5.6 -12.8
"/>
<use x="485.90" y="92.25" xlink:href="#r4"/>
<use x="515.50" y="98.25" xlink:href="#hd"/>
<path d="M519.00 98.25v-25.00" class="stroke"/>
<use x="515.50" y="92.25" xlink:href="#hd"/>
<use x="548.40" y="98.25" xlink:href="#hd"/>
<path d="M551.90 98.25v-25.00" class="stroke"/>
<use x="548.40" y="92.25" xlink:href="#hd"/>
<use x="584.00" y="95.25" xlink:href="#hd"/>
<path d="M587.50 95.25v-21.00" class="stroke"/>
<use x="613.70" y="92.25" xlink:href="#r8"/>
<use x="634.70" y="95.25" xlink:href="#hd"/>
<path d="M638.20 95.25v-21.00" class="stroke"/>
<path class="fill"
	d="M638.20 74.25c0.6 5.6 9.6 9 5.6 18.4
	1.6 -6 -1.3 -11.6 -5.6 -12.8
"/>
<use x="658.10" y="92.25" xlink:href="#r4"/>
<use x="691.00" y="83.25" xlink:href="#hd"/>
<path d="M687.50 83.25v25.00" class="stroke"/>
<use x="691.00" y="89.25" xlink:href="#hd"/>
<use x="723.90" y="83.25" xlink:href="#hd"/>
<path d="M720.40 83.25v25.00" class="stroke"/>
<use x="723.90" y="89.25" xlink:href="#hd"/>
</g>
</svg>
