<?xml version="1.0" standalone="no"?>
<!DOCTYPE svg PUBLIC "-//W3C//DTD SVG 1.1//EN"
	"http://www.w3.org/Graphics/SVG/1.1/DTD/svg11.dtd">
<svg xmlns="http://www.w3.org/2000/svg" version="1.1"
	xmlns:xlink="http://www.w3.org/1999/xlink"
	color="black" viewBox="0 0 760.40 127.65" preserveAspectRatio="xMidYMid meet">
<style type="text/css">
.fill {fill: currentColor}
.stroke {stroke: currentColor; fill: none}
text{white-space: pre}
</style>
<title>/home/james.clements/projects/retab/drills.abc (51) tune 51</title>
<!-- Creator: abcm2ps-8.14.11 -->
<!-- CreationDate: Apr 23, 2026 20:44 -->
<!-- CommandLine: -g -O drill /home/james.clements/projects/retab/drills.abc -->
<g stroke-width="0.70">
<!-- title: 51. Chromatic Passing Bass -->
</g>
<g stroke-width="0.70" style="font:12.00px Georgia">
<text x="380.20" y="15.60" text-anchor="middle">51. Chromatic Passing Bass</text>
</g>
<g stroke-width="0.70" style="font:7.00px Georgia">
<text x="750.40" y="31.00" text-anchor="end">Approach each chord by semitone below</text>
</g>
<g stroke-width="0.70" transform="scale(0.700)" style="font:7.00px Georgia">
<defs>
<ellipse id="hd" rx="4.1" ry="2.9"
	transform="rotate(-20)" class="fill"/>
</defs>
<use x="84.43" y="71.64" xlink:href="#hd"/>
<path d="M87.93 71.64v-21.00" class="stroke"/>
</g>
<g stroke-width="0.70" style="font:bold 15.00px Times">
<text x="66.80" y="52.25">= 96</text>
<path class="stroke" stroke-width="1"
	d="M224.20 104.25v-24.00"/>
<path class="stroke" stroke-width="1"
	d="M404.00 104.25v-24.00"/>
<path class="stroke" stroke-width="1"
	d="M583.90 104.25v-24.00"/>
<path class="stroke" stroke-width="3"
	d="M748.90 104.25v-24.00"/>
<path class="stroke" stroke-width="1"
	d="M744.40 104.25v-24.00"/>
<path d="m10.00 104.25
	h740.40
	M10.00 98.25
	h740.40
	M10.00 92.25
	h740.40
	M10.00 86.25
	h740.40
	M10.00 80.25
	h740.40
	" class="stroke"/>
</g>
<g stroke-width="0.70" style="font:12.00px Helvetica">
<text x="55.00" y="67.85">C</text>
<text x="55.90" y="115.85">8</text>
<text x="235.40" y="67.85">F</text>
<text x="235.70" y="120.85">8</text>
<text x="414.40" y="67.85">G</text>
<text x="415.60" y="119.85">8</text>
<text x="594.50" y="67.85">C</text>
<text x="595.40" y="115.85">8</text>
<defs>
<path id="ubclef" class="fill" d="m-200 -87
	c124 -35 222 -78 254 -236
	43 -228 -167 -246 -192 -103
	59 -80 157 22 92 78
	-62 47 -115 -22 -106 -88
	21 -141 270 -136 274 52
	-1 175 -106 264 -322 297
	m357 -250
	c0 -36 51 -34 51 0
	0 37 -51 36 -51 0
	m-2 -129
	c0 -36 51 -34 51 0
	0 38 -51 37 -51 0"/>
<use id="bclef" transform="translate(0,18) scale(0.045)"
	xlink:href="#ubclef"/>
</defs>
<use x="22.00" y="86.25" xlink:href="#bclef"/>
<g style="font:bold 16px serif"
	transform="translate(40.50,103.75) scale(1.2,1)">
	<text text-anchor="middle">4</text>
	<text y="-12" text-anchor="middle">4</text>
</g>
<use x="58.50" y="95.25" xlink:href="#hd"/>
<path d="M62.00 95.25v-21.00" class="stroke"/>
<use x="98.60" y="89.25" xlink:href="#hd"/>
<path d="M95.10 89.25v21.00" class="stroke"/>
<use x="138.70" y="83.25" xlink:href="#hd"/>
<path d="M135.20 83.25v21.00" class="stroke"/>
<path class="fill"
	d="M174.90 110.25l26.20 0.00v-3.20l-26.20 -0.00"/>
<use x="178.80" y="89.25" xlink:href="#hd"/>
<defs>
<path id="unat" class="fill" d="
	m96 -750
	h-32
	v716
	l32 -8
	182 -54
	v282
	h32
	v-706
	l-34 10
	-180 50
	v-290
	m0 592
	v-190
	l182 -52
	v188"/>
<use id="nt0" transform="translate(-3,5) scale(0.018)"
	xlink:href="#unat"/>
</defs>
<use x="169.80" y="89.25" xlink:href="#nt0"/>
<path d="M175.30 89.25v20.00" class="stroke"/>
<use x="204.30" y="89.25" xlink:href="#hd"/>
<defs>
<path id="uflat" class="fill" d="
	m100 -746
	h32
	v734
	l-32 4
	m32 -332
	c46 -72 152 -90 208 -20
	100 110 -120 326 -208 348
	m0 -28
	c54 0 200 -206 130 -290
	-50 -60 -130 -4 -130 34"/>
<use id="ft0" transform="translate(-3.5,3.5) scale(0.018)"
	xlink:href="#uflat"/>
</defs>
<use x="195.30" y="89.25" xlink:href="#ft0"/>
<path d="M200.80 89.25v20.00" class="stroke"/>
<use x="238.30" y="86.25" xlink:href="#hd"/>
<path d="M234.80 86.25v21.00" class="stroke"/>
<use x="278.40" y="80.25" xlink:href="#hd"/>
<path d="M274.90 80.25v21.00" class="stroke"/>
<defs>
<path id="hl" class="stroke" d="m-6 0h12"/>
</defs>
<use x="318.50" y="74.25" xlink:href="#hl"/>
<use x="318.50" y="74.25" xlink:href="#hd"/>
<path d="M315.00 74.25v21.00" class="stroke"/>
<path class="fill"
	d="M354.80 98.45l26.20 0.00v-3.20l-26.20 -0.00"/>
<use x="358.60" y="77.25" xlink:href="#hd"/>
<use x="349.60" y="77.25" xlink:href="#nt0"/>
<path d="M355.10 77.25v20.20" class="stroke"/>
<use x="384.20" y="77.25" xlink:href="#hd"/>
<use x="375.20" y="77.25" xlink:href="#ft0"/>
<path d="M380.70 77.25v20.20" class="stroke"/>
<use x="418.20" y="104.25" xlink:href="#hd"/>
<path d="M421.70 104.25v-21.00" class="stroke"/>
<use x="458.30" y="98.25" xlink:href="#hd"/>
<path d="M461.80 98.25v-21.00" class="stroke"/>
<use x="498.40" y="92.25" xlink:href="#hd"/>
<path d="M501.90 92.25v-21.00" class="stroke"/>
<path class="fill"
	d="M534.60 107.15l26.20 0.00v-3.20l-26.20 -0.00"/>
<use x="538.50" y="86.25" xlink:href="#hd"/>
<use x="529.50" y="86.25" xlink:href="#nt0"/>
<path d="M535.00 86.25v20.00" class="stroke"/>
<use x="564.00" y="86.25" xlink:href="#hd"/>
<use x="555.00" y="86.25" xlink:href="#ft0"/>
<path d="M560.50 86.25v20.00" class="stroke"/>
<use x="598.00" y="95.25" xlink:href="#hd"/>
<path d="M601.50 95.25v-21.00" class="stroke"/>
<use x="638.10" y="89.25" xlink:href="#hd"/>
<path d="M634.60 89.25v21.00" class="stroke"/>
<use x="678.20" y="83.25" xlink:href="#hd"/>
<path d="M674.70 83.25v21.00" class="stroke"/>
<use x="718.30" y="74.25" xlink:href="#hl"/>
<use x="718.30" y="74.25" xlink:href="#hd"/>
<path d="M714.80 74.25v21.00" class="stroke"/>
</g>
</svg>
