<?xml version="1.0" standalone="no"?>
<!DOCTYPE svg PUBLIC "-//W3C//DTD SVG 1.1//EN"
	"http://www.w3.org/Graphics/SVG/1.1/DTD/svg11.dtd">
<svg xmlns="http://www.w3.org/2000/svg" version="1.1"
	xmlns:xlink="http://www.w3.org/1999/xlink"
	color="black" viewBox="0 0 760.40 123.25" preserveAspectRatio="xMidYMid meet">
<style type="text/css">
.fill {fill: currentColor}
.stroke {stroke: currentColor; fill: none}
text{white-space: pre}
</style>
<title>/home/james.clements/projects/retab/drills.abc (53) tune 53</title>
<!-- Creator: abcm2ps-8.14.11 -->
<!-- CreationDate: Apr 23, 2026 20:44 -->
<!-- CommandLine: -g -O drill /home/james.clements/projects/retab/drills.abc -->
<g stroke-width="0.70">
<!-- title: 53. 1-3-5-10 Spread Arpeggio -->
</g>
<g stroke-width="0.70" style="font:12.00px Georgia">
<text x="380.20" y="15.60" text-anchor="middle">53. 1-3-5-10 Spread Arpeggio</text>
</g>
<g stroke-width="0.70" style="font:7.00px Georgia">
<text x="750.40" y="31.00" text-anchor="end">Widely voiced, open sound</text>
</g>
<g stroke-width="0.70" transform="scale(0.700)" style="font:7.00px Georgia">
<defs>
<ellipse id="hd" rx="4.1" ry="2.9"
	transform="rotate(-20)" class="fill"/>
</defs>
<use x="84.43" y="71.64" xlink:href="#hd"/>
<path d="M87.93 71.64v-21.00" class="stroke"/>
</g>
<g stroke-width="0.70" style="font:bold 15.00px Times">
<text x="66.80" y="52.25">= 92</text>
<path class="stroke" stroke-width="1"
	d="M218.90 100.25v-24.00"/>
<path class="stroke" stroke-width="1"
	d="M394.60 100.25v-24.00"/>
<path class="stroke" stroke-width="1"
	d="M570.30 100.25v-24.00"/>
<path class="stroke" stroke-width="3"
	d="M748.90 100.25v-24.00"/>
<path class="stroke" stroke-width="1"
	d="M744.40 100.25v-24.00"/>
<path d="m10.00 100.25
	h740.40
	M10.00 94.25
	h740.40
	M10.00 88.25
	h740.40
	M10.00 82.25
	h740.40
	M10.00 76.25
	h740.40
	" class="stroke"/>
</g>
<g stroke-width="0.70" style="font:12.00px Helvetica">
<text x="55.00" y="67.85">C</text>
<text x="231.30" y="67.85">F</text>
<text x="406.10" y="67.85">G</text>
<text x="582.20" y="67.85">C</text>
<defs>
<path id="ubclef" class="fill" d="m-200 -87
	c124 -35 222 -78 254 -236
	43 -228 -167 -246 -192 -103
	59 -80 157 22 92 78
	-62 47 -115 -22 -106 -88
	21 -141 270 -136 274 52
	-1 175 -106 264 -322 297
	m357 -250
	c0 -36 51 -34 51 0
	0 37 -51 36 -51 0
	m-2 -129
	c0 -36 51 -34 51 0
	0 38 -51 37 -51 0"/>
<use id="bclef" transform="translate(0,18) scale(0.045)"
	xlink:href="#ubclef"/>
</defs>
<use x="22.00" y="82.25" xlink:href="#bclef"/>
<g style="font:bold 16px serif"
	transform="translate(40.50,99.75) scale(1.2,1)">
	<text text-anchor="middle">4</text>
	<text y="-12" text-anchor="middle">4</text>
</g>
<defs>
<path id="hl" class="stroke" d="m-6 0h12"/>
</defs>
<use x="58.50" y="106.25" xlink:href="#hl"/>
<use x="58.50" y="112.25" xlink:href="#hl"/>
<use x="58.50" y="112.25" xlink:href="#hd"/>
<path d="M62.00 112.25v-24.00" class="stroke"/>
<use x="101.80" y="85.25" xlink:href="#hd"/>
<path d="M98.30 85.25v21.00" class="stroke"/>
<use x="145.20" y="79.25" xlink:href="#hd"/>
<path d="M141.70 79.25v21.00" class="stroke"/>
<use x="188.50" y="70.25" xlink:href="#hl"/>
<use x="188.50" y="64.25" xlink:href="#hl"/>
<use x="188.50" y="64.25" xlink:href="#hd"/>
<path d="M185.00 64.25v24.00" class="stroke"/>
<use x="234.20" y="103.25" xlink:href="#hd"/>
<path d="M237.70 103.25v-21.00" class="stroke"/>
<use x="277.60" y="76.25" xlink:href="#hd"/>
<path d="M274.10 76.25v21.00" class="stroke"/>
<use x="320.90" y="70.25" xlink:href="#hl"/>
<use x="320.90" y="70.25" xlink:href="#hd"/>
<path d="M317.40 70.25v21.00" class="stroke"/>
<use x="364.30" y="70.25" xlink:href="#hl"/>
<use x="364.30" y="64.25" xlink:href="#hl"/>
<use x="364.30" y="58.25" xlink:href="#hl"/>
<use x="364.30" y="55.25" xlink:href="#hd"/>
<path d="M360.80 55.25v33.00" class="stroke"/>
<use x="409.90" y="100.25" xlink:href="#hd"/>
<path d="M413.40 100.25v-21.00" class="stroke"/>
<use x="453.30" y="94.25" xlink:href="#hd"/>
<path d="M456.80 94.25v-21.00" class="stroke"/>
<use x="496.60" y="88.25" xlink:href="#hd"/>
<path d="M500.10 88.25v-21.00" class="stroke"/>
<use x="540.00" y="70.25" xlink:href="#hl"/>
<use x="540.00" y="64.25" xlink:href="#hl"/>
<use x="540.00" y="58.25" xlink:href="#hl"/>
<use x="540.00" y="52.25" xlink:href="#hl"/>
<use x="540.00" y="52.25" xlink:href="#hd"/>
<path d="M536.50 52.25v36.00" class="stroke"/>
<use x="585.70" y="106.25" xlink:href="#hl"/>
<use x="585.70" y="112.25" xlink:href="#hl"/>
<use x="585.70" y="112.25" xlink:href="#hd"/>
<path d="M589.20 112.25v-24.00" class="stroke"/>
<use x="629.00" y="85.25" xlink:href="#hd"/>
<path d="M625.50 85.25v21.00" class="stroke"/>
<use x="672.40" y="79.25" xlink:href="#hd"/>
<path d="M668.90 79.25v21.00" class="stroke"/>
<use x="715.70" y="70.25" xlink:href="#hl"/>
<use x="715.70" y="64.25" xlink:href="#hl"/>
<use x="715.70" y="64.25" xlink:href="#hd"/>
<path d="M712.20 64.25v24.00" class="stroke"/>
</g>
</svg>
