<?xml version="1.0" standalone="no"?>
<!DOCTYPE svg PUBLIC "-//W3C//DTD SVG 1.1//EN"
	"http://www.w3.org/Graphics/SVG/1.1/DTD/svg11.dtd">
<svg xmlns="http://www.w3.org/2000/svg" version="1.1"
	xmlns:xlink="http://www.w3.org/1999/xlink"
	color="black" viewBox="0 0 760.40 134.65" preserveAspectRatio="xMidYMid meet">
<style type="text/css">
.fill {fill: currentColor}
.stroke {stroke: currentColor; fill: none}
text{white-space: pre}
</style>
<title>/home/james.clements/projects/retab/drills.abc (8) tune 8</title>
<!-- Creator: abcm2ps-8.14.11 -->
<!-- CreationDate: Apr 23, 2026 20:44 -->
<!-- CommandLine: -g -O drill /home/james.clements/projects/retab/drills.abc -->
<g stroke-width="0.70">
<!-- title: 8. Alberti Bass (1-5-3-5 sixteenths) -->
</g>
<g stroke-width="0.70" style="font:12.00px Georgia">
<text x="380.20" y="15.60" text-anchor="middle">8. Alberti Bass (1-5-3-5 sixteenths)</text>
</g>
<g stroke-width="0.70" transform="scale(0.700)" style="font:12.00px Georgia">
<defs>
<ellipse id="hd" rx="4.1" ry="2.9"
	transform="rotate(-20)" class="fill"/>
</defs>
<use x="84.43" y="61.64" xlink:href="#hd"/>
<path d="M87.93 61.64v-21.00" class="stroke"/>
</g>
<g stroke-width="0.70" style="font:bold 15.00px Times">
<text x="66.80" y="45.25">= 88</text>
<path class="stroke" stroke-width="1"
	d="M220.70 101.25v-24.00"/>
<path class="stroke" stroke-width="1"
	d="M398.00 101.25v-24.00"/>
<path class="stroke" stroke-width="1"
	d="M572.70 101.25v-24.00"/>
<path class="stroke" stroke-width="3"
	d="M748.90 101.25v-24.00"/>
<path class="stroke" stroke-width="1"
	d="M744.40 101.25v-24.00"/>
<path d="m10.00 101.25
	h740.40
	M10.00 95.25
	h740.40
	M10.00 89.25
	h740.40
	M10.00 83.25
	h740.40
	M10.00 77.25
	h740.40
	" class="stroke"/>
</g>
<g stroke-width="0.70" style="font:12.00px Helvetica">
<text x="55.00" y="60.85">C</text>
<text x="55.90" y="127.85">8</text>
<text x="230.30" y="60.85">F</text>
<text x="230.60" y="118.85">8</text>
<text x="406.70" y="60.85">G</text>
<text x="407.80" y="116.85">8</text>
<text x="581.70" y="60.85">C</text>
<text x="582.50" y="127.85">8</text>
<defs>
<path id="ubclef" class="fill" d="m-200 -87
	c124 -35 222 -78 254 -236
	43 -228 -167 -246 -192 -103
	59 -80 157 22 92 78
	-62 47 -115 -22 -106 -88
	21 -141 270 -136 274 52
	-1 175 -106 264 -322 297
	m357 -250
	c0 -36 51 -34 51 0
	0 37 -51 36 -51 0
	m-2 -129
	c0 -36 51 -34 51 0
	0 38 -51 37 -51 0"/>
<use id="bclef" transform="translate(0,18) scale(0.045)"
	xlink:href="#ubclef"/>
</defs>
<use x="22.00" y="83.25" xlink:href="#bclef"/>
<g style="font:bold 16px serif"
	transform="translate(40.50,100.75) scale(1.2,1)">
	<text text-anchor="middle">4</text>
	<text y="-12" text-anchor="middle">4</text>
</g>
<path class="fill"
	d="M54.70 114.45l30.20 -4.00v-3.20l-30.20 4.00"/>
<path class="fill"
	d="M55.00 109.45l29.60 -4.00v-3.20l-29.60 4.00"/>
<use x="58.50" y="92.25" xlink:href="#hd"/>
<path d="M55.00 92.25v21.20" class="stroke"/>
<use x="68.40" y="80.25" xlink:href="#hd"/>
<path d="M64.90 80.25v31.90" class="stroke"/>
<use x="78.20" y="86.25" xlink:href="#hd"/>
<path d="M74.70 86.25v24.60" class="stroke"/>
<use x="88.10" y="80.25" xlink:href="#hd"/>
<path d="M84.60 80.25v29.20" class="stroke"/>
<path class="fill"
	d="M94.70 114.45l30.20 -4.00v-3.20l-30.20 4.00"/>
<path class="fill"
	d="M95.10 109.45l29.60 -4.00v-3.20l-29.60 4.00"/>
<use x="98.60" y="92.25" xlink:href="#hd"/>
<path d="M95.10 92.25v21.20" class="stroke"/>
<use x="108.40" y="80.25" xlink:href="#hd"/>
<path d="M104.90 80.25v31.90" class="stroke"/>
<use x="118.30" y="86.25" xlink:href="#hd"/>
<path d="M114.80 86.25v24.60" class="stroke"/>
<use x="128.10" y="80.25" xlink:href="#hd"/>
<path d="M124.60 80.25v29.20" class="stroke"/>
<path class="fill"
	d="M134.80 114.45l30.20 -4.00v-3.20l-30.20 4.00"/>
<path class="fill"
	d="M135.10 109.45l29.60 -4.00v-3.20l-29.60 4.00"/>
<use x="138.60" y="92.25" xlink:href="#hd"/>
<path d="M135.10 92.25v21.20" class="stroke"/>
<use x="148.50" y="80.25" xlink:href="#hd"/>
<path d="M145.00 80.25v31.90" class="stroke"/>
<use x="158.30" y="86.25" xlink:href="#hd"/>
<path d="M154.80 86.25v24.60" class="stroke"/>
<use x="168.20" y="80.25" xlink:href="#hd"/>
<path d="M164.70 80.25v29.20" class="stroke"/>
<path class="fill"
	d="M174.80 114.45l30.20 -4.00v-3.20l-30.20 4.00"/>
<path class="fill"
	d="M175.20 109.45l29.60 -4.00v-3.20l-29.60 4.00"/>
<use x="178.70" y="92.25" xlink:href="#hd"/>
<path d="M175.20 92.25v21.20" class="stroke"/>
<use x="188.50" y="80.25" xlink:href="#hd"/>
<path d="M185.00 80.25v31.90" class="stroke"/>
<use x="198.40" y="86.25" xlink:href="#hd"/>
<path d="M194.90 86.25v24.60" class="stroke"/>
<use x="208.20" y="80.25" xlink:href="#hd"/>
<path d="M204.70 80.25v29.20" class="stroke"/>
<path class="fill"
	d="M229.40 105.55l10.50 -3.70v-3.20l-10.50 3.70"/>
<path class="fill"
	d="M229.70 100.45l9.90 -3.50v-3.20l-9.90 3.50"/>
<use x="233.20" y="83.25" xlink:href="#hd"/>
<path d="M229.70 83.25v21.20" class="stroke"/>
<defs>
<path id="hl" class="stroke" d="m-6 0h12"/>
</defs>
<use x="243.10" y="71.25" xlink:href="#hl"/>
<use x="243.10" y="71.25" xlink:href="#hd"/>
<path d="M239.60 71.25v29.70" class="stroke"/>
<path class="fill"
	d="M249.70 99.55l10.50 -2.90v-3.20l-10.50 2.90"/>
<path class="fill"
	d="M250.10 94.45l9.90 -2.70v-3.20l-9.90 2.70"/>
<use x="253.60" y="77.25" xlink:href="#hd"/>
<path d="M250.10 77.25v21.20" class="stroke"/>
<use x="263.40" y="71.25" xlink:href="#hl"/>
<use x="263.40" y="71.25" xlink:href="#hd"/>
<path d="M259.90 71.25v24.50" class="stroke"/>
<path class="fill"
	d="M270.10 105.55l10.50 -3.70v-3.20l-10.50 3.70"/>
<path class="fill"
	d="M270.40 100.45l9.90 -3.50v-3.20l-9.90 3.50"/>
<use x="273.90" y="83.25" xlink:href="#hd"/>
<path d="M270.40 83.25v21.20" class="stroke"/>
<use x="283.80" y="71.25" xlink:href="#hl"/>
<use x="283.80" y="71.25" xlink:href="#hd"/>
<path d="M280.30 71.25v29.70" class="stroke"/>
<path class="fill"
	d="M290.40 99.55l10.50 -2.90v-3.20l-10.50 2.90"/>
<path class="fill"
	d="M290.70 94.45l9.90 -2.70v-3.20l-9.90 2.70"/>
<use x="294.20" y="77.25" xlink:href="#hd"/>
<path d="M290.70 77.25v21.20" class="stroke"/>
<use x="304.10" y="71.25" xlink:href="#hl"/>
<use x="304.10" y="71.25" xlink:href="#hd"/>
<path d="M300.60 71.25v24.50" class="stroke"/>
<path class="fill"
	d="M310.80 105.55l10.50 -3.70v-3.20l-10.50 3.70"/>
<path class="fill"
	d="M311.10 100.45l9.90 -3.50v-3.20l-9.90 3.50"/>
<use x="314.60" y="83.25" xlink:href="#hd"/>
<path d="M311.10 83.25v21.20" class="stroke"/>
<use x="324.40" y="71.25" xlink:href="#hl"/>
<use x="324.40" y="71.25" xlink:href="#hd"/>
<path d="M320.90 71.25v29.70" class="stroke"/>
<path class="fill"
	d="M331.10 99.55l10.50 -2.90v-3.20l-10.50 2.90"/>
<path class="fill"
	d="M331.40 94.45l9.90 -2.70v-3.20l-9.90 2.70"/>
<use x="334.90" y="77.25" xlink:href="#hd"/>
<path d="M331.40 77.25v21.20" class="stroke"/>
<use x="344.80" y="71.25" xlink:href="#hl"/>
<use x="344.80" y="71.25" xlink:href="#hd"/>
<path d="M341.30 71.25v24.50" class="stroke"/>
<path class="fill"
	d="M351.40 105.55l10.50 -3.70v-3.20l-10.50 3.70"/>
<path class="fill"
	d="M351.80 100.45l9.90 -3.50v-3.20l-9.90 3.50"/>
<use x="355.30" y="83.25" xlink:href="#hd"/>
<path d="M351.80 83.25v21.20" class="stroke"/>
<use x="365.10" y="71.25" xlink:href="#hl"/>
<use x="365.10" y="71.25" xlink:href="#hd"/>
<path d="M361.60 71.25v29.70" class="stroke"/>
<path class="fill"
	d="M371.80 99.55l10.50 -2.90v-3.20l-10.50 2.90"/>
<path class="fill"
	d="M372.10 94.45l9.90 -2.70v-3.20l-9.90 2.70"/>
<use x="375.60" y="77.25" xlink:href="#hd"/>
<path d="M372.10 77.25v21.20" class="stroke"/>
<use x="385.50" y="71.25" xlink:href="#hl"/>
<use x="385.50" y="71.25" xlink:href="#hd"/>
<path d="M382.00 71.25v24.50" class="stroke"/>
<path class="fill"
	d="M413.60 68.45l30.20 -4.00v3.20l-30.20 4.00"/>
<path class="fill"
	d="M414.00 73.35l29.60 -4.00v3.20l-29.60 4.00"/>
<use x="410.50" y="101.25" xlink:href="#hd"/>
<path d="M414.00 101.25v-31.90" class="stroke"/>
<use x="420.30" y="89.25" xlink:href="#hd"/>
<path d="M423.80 89.25v-21.20" class="stroke"/>
<use x="430.20" y="95.25" xlink:href="#hd"/>
<path d="M433.70 95.25v-28.50" class="stroke"/>
<use x="440.00" y="89.25" xlink:href="#hd"/>
<path d="M443.50 89.25v-23.80" class="stroke"/>
<path class="fill"
	d="M453.70 68.45l30.20 -4.00v3.20l-30.20 4.00"/>
<path class="fill"
	d="M454.00 73.35l29.60 -4.00v3.20l-29.60 4.00"/>
<use x="450.50" y="101.25" xlink:href="#hd"/>
<path d="M454.00 101.25v-31.90" class="stroke"/>
<use x="460.40" y="89.25" xlink:href="#hd"/>
<path d="M463.90 89.25v-21.20" class="stroke"/>
<use x="470.20" y="95.25" xlink:href="#hd"/>
<path d="M473.70 95.25v-28.50" class="stroke"/>
<use x="480.10" y="89.25" xlink:href="#hd"/>
<path d="M483.60 89.25v-23.80" class="stroke"/>
<path class="fill"
	d="M493.70 68.45l30.20 -4.00v3.20l-30.20 4.00"/>
<path class="fill"
	d="M494.10 73.35l29.60 -4.00v3.20l-29.60 4.00"/>
<use x="490.60" y="101.25" xlink:href="#hd"/>
<path d="M494.10 101.25v-31.90" class="stroke"/>
<use x="500.40" y="89.25" xlink:href="#hd"/>
<path d="M503.90 89.25v-21.20" class="stroke"/>
<use x="510.30" y="95.25" xlink:href="#hd"/>
<path d="M513.80 95.25v-28.50" class="stroke"/>
<use x="520.10" y="89.25" xlink:href="#hd"/>
<path d="M523.60 89.25v-23.80" class="stroke"/>
<path class="fill"
	d="M533.80 68.45l30.20 -4.00v3.20l-30.20 4.00"/>
<path class="fill"
	d="M534.10 73.35l29.60 -4.00v3.20l-29.60 4.00"/>
<use x="530.60" y="101.25" xlink:href="#hd"/>
<path d="M534.10 101.25v-31.90" class="stroke"/>
<use x="540.50" y="89.25" xlink:href="#hd"/>
<path d="M544.00 89.25v-21.20" class="stroke"/>
<use x="550.30" y="95.25" xlink:href="#hd"/>
<path d="M553.80 95.25v-28.50" class="stroke"/>
<use x="560.20" y="89.25" xlink:href="#hd"/>
<path d="M563.70 89.25v-23.80" class="stroke"/>
<path class="fill"
	d="M581.30 114.45l30.20 -4.00v-3.20l-30.20 4.00"/>
<path class="fill"
	d="M581.70 109.45l29.60 -4.00v-3.20l-29.60 4.00"/>
<use x="585.20" y="92.25" xlink:href="#hd"/>
<path d="M581.70 92.25v21.20" class="stroke"/>
<use x="595.00" y="80.25" xlink:href="#hd"/>
<path d="M591.50 80.25v31.90" class="stroke"/>
<use x="604.90" y="86.25" xlink:href="#hd"/>
<path d="M601.40 86.25v24.60" class="stroke"/>
<use x="614.70" y="80.25" xlink:href="#hd"/>
<path d="M611.20 80.25v29.20" class="stroke"/>
<path class="fill"
	d="M621.40 114.45l30.20 -4.00v-3.20l-30.20 4.00"/>
<path class="fill"
	d="M621.70 109.45l29.60 -4.00v-3.20l-29.60 4.00"/>
<use x="625.20" y="92.25" xlink:href="#hd"/>
<path d="M621.70 92.25v21.20" class="stroke"/>
<use x="635.10" y="80.25" xlink:href="#hd"/>
<path d="M631.60 80.25v31.90" class="stroke"/>
<use x="644.90" y="86.25" xlink:href="#hd"/>
<path d="M641.40 86.25v24.60" class="stroke"/>
<use x="654.80" y="80.25" xlink:href="#hd"/>
<path d="M651.30 80.25v29.20" class="stroke"/>
<path class="fill"
	d="M661.50 114.45l30.20 -4.00v-3.20l-30.20 4.00"/>
<path class="fill"
	d="M661.80 109.45l29.60 -4.00v-3.20l-29.60 4.00"/>
<use x="665.30" y="92.25" xlink:href="#hd"/>
<path d="M661.80 92.25v21.20" class="stroke"/>
<use x="675.10" y="80.25" xlink:href="#hd"/>
<path d="M671.60 80.25v31.90" class="stroke"/>
<use x="685.00" y="86.25" xlink:href="#hd"/>
<path d="M681.50 86.25v24.60" class="stroke"/>
<use x="694.80" y="80.25" xlink:href="#hd"/>
<path d="M691.30 80.25v29.20" class="stroke"/>
<path class="fill"
	d="M701.50 114.45l30.20 -4.00v-3.20l-30.20 4.00"/>
<path class="fill"
	d="M701.80 109.45l29.60 -4.00v-3.20l-29.60 4.00"/>
<use x="705.30" y="92.25" xlink:href="#hd"/>
<path d="M701.80 92.25v21.20" class="stroke"/>
<use x="715.20" y="80.25" xlink:href="#hd"/>
<path d="M711.70 80.25v31.90" class="stroke"/>
<use x="725.00" y="86.25" xlink:href="#hd"/>
<path d="M721.50 86.25v24.60" class="stroke"/>
<use x="734.90" y="80.25" xlink:href="#hd"/>
<path d="M731.40 80.25v29.20" class="stroke"/>
</g>
</svg>
