<?xml version="1.0" standalone="no"?>
<!DOCTYPE svg PUBLIC "-//W3C//DTD SVG 1.1//EN"
	"http://www.w3.org/Graphics/SVG/1.1/DTD/svg11.dtd">
<svg xmlns="http://www.w3.org/2000/svg" version="1.1"
	xmlns:xlink="http://www.w3.org/1999/xlink"
	color="black" viewBox="0 0 760.40 132.25" preserveAspectRatio="xMidYMid meet">
<style type="text/css">
.fill {fill: currentColor}
.stroke {stroke: currentColor; fill: none}
text{white-space: pre}
</style>
<title>/home/james.clements/projects/retab/drills.abc (71) tune 71</title>
<!-- Creator: abcm2ps-8.14.11 -->
<!-- CreationDate: Apr 23, 2026 20:44 -->
<!-- CommandLine: -g -O drill /home/james.clements/projects/retab/drills.abc -->
<g stroke-width="0.70">
<!-- title: 71. Counter-Melody -->
</g>
<g stroke-width="0.70" style="font:12.00px Georgia">
<text x="380.20" y="15.60" text-anchor="middle">71. Counter-Melody</text>
</g>
<g stroke-width="0.70" style="font:7.00px Georgia">
<text x="750.40" y="31.00" text-anchor="end">Independent melodic line above chord tones</text>
</g>
<g stroke-width="0.70" transform="scale(0.700)" style="font:7.00px Georgia">
<defs>
<ellipse id="hd" rx="4.1" ry="2.9"
	transform="rotate(-20)" class="fill"/>
</defs>
<use x="84.43" y="71.64" xlink:href="#hd"/>
<path d="M87.93 71.64v-21.00" class="stroke"/>
</g>
<g stroke-width="0.70" style="font:bold 15.00px Times">
<text x="66.80" y="52.25">= 84</text>
<path class="stroke" stroke-width="1"
	d="M218.90 109.25v-24.00"/>
<path class="stroke" stroke-width="1"
	d="M394.60 109.25v-24.00"/>
<path class="stroke" stroke-width="1"
	d="M570.30 109.25v-24.00"/>
<path class="stroke" stroke-width="3"
	d="M748.90 109.25v-24.00"/>
<path class="stroke" stroke-width="1"
	d="M744.40 109.25v-24.00"/>
<path d="m10.00 109.25
	h740.40
	M10.00 103.25
	h740.40
	M10.00 97.25
	h740.40
	M10.00 91.25
	h740.40
	M10.00 85.25
	h740.40
	" class="stroke"/>
</g>
<g stroke-width="0.70" style="font:12.00px Helvetica">
<text x="55.00" y="67.85">C</text>
<text x="231.30" y="67.85">F</text>
<text x="406.10" y="67.85">G</text>
<text x="582.20" y="67.85">C</text>
<defs>
<path id="utclef" class="fill" d="m-50 -90
	c-72 -41 -72 -158 52 -188
	150 -10 220 188 90 256
	-114 52 -275 0 -293 -136
	-15 -181 93 -229 220 -334
	88 -87 79 -133 62 -210
	-51 33 -94 105 -89 186
	17 267 36 374 49 574
	6 96 -19 134 -77 135
	-80 1 -126 -93 -61 -133
	85 -41 133 101 31 105
	23 17 92 37 90 -92
	-10 -223 -39 -342 -50 -617
	0 -90 0 -162 96 -232
	56 72 63 230 22 289
	-74 106 -257 168 -255 316
	9 153 148 185 252 133
	86 -65 29 -192 -80 -176
	-71 12 -105 67 -59 124"/>
<use id="tclef" transform="translate(0,6) scale(0.045)"
	xlink:href="#utclef"/>
</defs>
<use x="22.00" y="103.25" xlink:href="#tclef"/>
<g style="font:bold 16px serif"
	transform="translate(40.50,108.75) scale(1.2,1)">
	<text text-anchor="middle">4</text>
	<text y="-12" text-anchor="middle">4</text>
</g>
<use x="58.50" y="88.25" xlink:href="#hd"/>
<path d="M55.00 88.25v21.00" class="stroke"/>
<use x="101.80" y="82.25" xlink:href="#hd"/>
<path d="M98.30 82.25v21.00" class="stroke"/>
<use x="145.20" y="85.25" xlink:href="#hd"/>
<path d="M141.70 85.25v21.00" class="stroke"/>
<use x="188.50" y="88.25" xlink:href="#hd"/>
<path d="M185.00 88.25v21.00" class="stroke"/>
<defs>
<path id="hl" class="stroke" d="m-6 0h12"/>
</defs>
<use x="234.20" y="79.25" xlink:href="#hl"/>
<use x="234.20" y="79.25" xlink:href="#hd"/>
<path d="M230.70 79.25v21.00" class="stroke"/>
<use x="277.60" y="79.25" xlink:href="#hl"/>
<use x="277.60" y="73.25" xlink:href="#hl"/>
<use x="277.60" y="73.25" xlink:href="#hd"/>
<path d="M274.10 73.25v24.00" class="stroke"/>
<use x="320.90" y="97.25" xlink:href="#hd"/>
<path d="M317.40 97.25v21.00" class="stroke"/>
<use x="364.30" y="79.25" xlink:href="#hl"/>
<use x="364.30" y="79.25" xlink:href="#hd"/>
<path d="M360.80 79.25v21.00" class="stroke"/>
<use x="409.90" y="79.25" xlink:href="#hl"/>
<use x="409.90" y="76.25" xlink:href="#hd"/>
<path d="M406.40 76.25v21.00" class="stroke"/>
<use x="453.30" y="79.25" xlink:href="#hl"/>
<use x="453.30" y="73.25" xlink:href="#hl"/>
<use x="453.30" y="70.25" xlink:href="#hd"/>
<path d="M449.80 70.25v27.00" class="stroke"/>
<use x="496.60" y="79.25" xlink:href="#hl"/>
<use x="496.60" y="73.25" xlink:href="#hl"/>
<use x="496.60" y="73.25" xlink:href="#hd"/>
<path d="M493.10 73.25v24.00" class="stroke"/>
<use x="540.00" y="79.25" xlink:href="#hl"/>
<use x="540.00" y="76.25" xlink:href="#hd"/>
<path d="M536.50 76.25v21.00" class="stroke"/>
<use x="585.70" y="88.25" xlink:href="#hd"/>
<path d="M582.20 88.25v21.00" class="stroke"/>
<use x="629.00" y="82.25" xlink:href="#hd"/>
<path d="M625.50 82.25v21.00" class="stroke"/>
<use x="672.40" y="85.25" xlink:href="#hd"/>
<path d="M668.90 85.25v21.00" class="stroke"/>
<use x="715.70" y="88.25" xlink:href="#hd"/>
<path d="M712.20 88.25v21.00" class="stroke"/>
</g>
</svg>
