<?xml version="1.0" standalone="no"?>
<!DOCTYPE svg PUBLIC "-//W3C//DTD SVG 1.1//EN"
	"http://www.w3.org/Graphics/SVG/1.1/DTD/svg11.dtd">
<svg xmlns="http://www.w3.org/2000/svg" version="1.1"
	xmlns:xlink="http://www.w3.org/1999/xlink"
	color="black"
	width="701.60px" height="438.80px" viewBox="0 0 701.60 438.80" preserveAspectRatio="xMidYMid meet">
<style type="text/css">
.fill {fill: currentColor}
.stroke {stroke: currentColor; fill: none}
text{white-space: pre}
</style>
<title>/tmp/reharm_hymnal_L4/amazing_grace.abc (1) tune 1</title>
<!-- Creator: abcm2ps-8.14.11 -->
<!-- CreationDate: Apr 24, 2026 15:32 -->
<!-- CommandLine: /tmp/reharm_hymnal_L4/amazing_grace.abc -g -O /tmp/reharm_hymnal_L4/amazing_grace -->
<g stroke-width="0.70">
<!-- title: 020. Amazing Grace -->
</g>
<g stroke-width="0.70" style="font:20.00px Times">
<text x="350.80" y="22.00" text-anchor="middle">020. Amazing Grace</text>
</g>
<g stroke-width="0.70" style="font:20.00px Times">
<path class="stroke" stroke-width="1"
	d="M10.00 145.40v-82.00"/>
<defs>
<path id="brace" class="fill" d="m-2.5 101
	c-4.5 -4.6 -7.5 -12.2 -4.4 -26.8
	3.5 -14.3 3.2 -21.7 -2.1 -24.2
	7.4 2.4 7.3 14.2 3.5 29.5
	-2.7 9.5 -1.5 16.2 3 21.5
	M-2.5 1c-4.5 4.6 -7.5 12.2 -4.4 26.8
	c3.5 14.3 3.2 21.7 -2.1 24.2
	7.4 -2.4 7.3 -14.2 3.5 -29.5
	-2.7 -9.5 -1.5 -16.2 3 -21.5"/>
</defs>
<g transform="translate(10.00,63.40) scale(1,0.82)">
	<use xlink:href="#brace"/>
</g>
<path class="stroke" stroke-width="1"
	d="M142.90 87.40v-24.00"/>
<path class="stroke" stroke-width="1"
	d="M142.90 145.40v-24.00"/>
<path class="stroke" stroke-width="1"
	d="M246.90 87.40v-24.00"/>
<path class="stroke" stroke-width="1"
	d="M246.90 145.40v-24.00"/>
<path class="stroke" stroke-width="1"
	d="M337.50 87.40v-24.00"/>
<path class="stroke" stroke-width="1"
	d="M337.50 145.40v-24.00"/>
<path class="stroke" stroke-width="1"
	d="M418.90 87.40v-24.00"/>
<path class="stroke" stroke-width="1"
	d="M418.90 145.40v-24.00"/>
<path class="stroke" stroke-width="1"
	d="M500.30 87.40v-24.00"/>
<path class="stroke" stroke-width="1"
	d="M500.30 145.40v-24.00"/>
<path class="stroke" stroke-width="1"
	d="M604.30 87.40v-24.00"/>
<path class="stroke" stroke-width="1"
	d="M604.30 145.40v-24.00"/>
<path class="stroke" stroke-width="1"
	d="M691.60 87.40v-24.00"/>
<path class="stroke" stroke-width="1"
	d="M691.60 145.40v-24.00"/>
<path d="m10.00 87.40
	h681.60
	M10.00 81.40
	h681.60
	M10.00 75.40
	h681.60
	M10.00 69.40
	h681.60
	M10.00 63.40
	h681.60
	" class="stroke"/>
<path d="m10.00 145.40
	h681.60
	M10.00 139.40
	h681.60
	M10.00 133.40
	h681.60
	M10.00 127.40
	h681.60
	M10.00 121.40
	h681.60
	" class="stroke"/>
</g>
<g stroke-width="0.70" style="font:bold 13.00px Times">
<text x="79.80" y="58.80">I<tspan
	 style="font:italic 11.00px Times">Δ⁷</tspan></text>
</g>
<g stroke-width="0.70" style="font:bold 13.00px Times">
<text x="149.70" y="47.80">I<tspan
	 style="font:italic 11.00px Times">Δ⁷</tspan></text>
</g>
<g stroke-width="0.70" style="font:bold 13.00px Times">
<text x="253.50" y="50.80">V<tspan
	 style="font:italic 11.00px Times">⁷</tspan></text>
</g>
<g stroke-width="0.70" style="font:bold 13.00px Times">
<text x="353.50" y="58.80">IV<tspan
	 style="font:italic 11.00px Times">Δ⁷</tspan></text>
</g>
<g stroke-width="0.70" style="font:bold 13.00px Times">
<text x="437.20" y="58.80">I<tspan
	 style="font:italic 11.00px Times">Δ⁷</tspan></text>
</g>
<g stroke-width="0.70" style="font:bold 13.00px Times">
<text x="507.00" y="47.80">I<tspan
	 style="font:italic 11.00px Times">Δ⁷</tspan></text>
</g>
<g stroke-width="0.70" style="font:bold 13.00px Times">
<text x="621.40" y="50.80">V<tspan
	 style="font:italic 11.00px Times">⁷³</tspan></text>
</g>
<g stroke-width="0.70" style="font:italic 11.00px Times">
<defs>
<path id="utclef" class="fill" d="m-50 -90
	c-72 -41 -72 -158 52 -188
	150 -10 220 188 90 256
	-114 52 -275 0 -293 -136
	-15 -181 93 -229 220 -334
	88 -87 79 -133 62 -210
	-51 33 -94 105 -89 186
	17 267 36 374 49 574
	6 96 -19 134 -77 135
	-80 1 -126 -93 -61 -133
	85 -41 133 101 31 105
	23 17 92 37 90 -92
	-10 -223 -39 -342 -50 -617
	0 -90 0 -162 96 -232
	56 72 63 230 22 289
	-74 106 -257 168 -255 316
	9 153 148 185 252 133
	86 -65 29 -192 -80 -176
	-71 12 -105 67 -59 124"/>
<use id="tclef" transform="translate(0,6) scale(0.045)"
	xlink:href="#utclef"/>
</defs>
<use x="22.00" y="81.40" xlink:href="#tclef"/>
<defs>
<path id="usharp" class="fill" d="
	m136 -702
	v890
	h32
	v-890
	m128 840
	h32
	v-888
	h-32
	m-232 286
	v116
	l338 -96
	v-116
	m-338 442
	v116
	l338 -98
	v-114"/>
<use id="sh0" transform="translate(-4,5) scale(0.018)"
	xlink:href="#usharp"/>
</defs>
<use x="37.00" y="63.40" xlink:href="#sh0"/>
<g style="font:bold 16px serif"
	transform="translate(53.00,86.90) scale(1.2,1)">
	<text text-anchor="middle">4</text>
	<text y="-12" text-anchor="middle">3</text>
</g>
<defs>
<ellipse id="hd" rx="4.1" ry="2.9"
	transform="rotate(-20)" class="fill"/>
</defs>
<use x="85.50" y="90.40" xlink:href="#hd"/>
<path d="M89.00 90.40v-21.00" class="stroke"/>
<defs>
<path id="Hd" class="fill" d="m3 -1.6
	c-1 -1.8 -7 1.4 -6 3.2
	1 1.8 7 -1.4 6 -3.2
	m0.5 -0.3
	c2 3.8 -5 7.6 -7 3.8
	-2 -3.8 5 -7.6 7 -3.8"/>
</defs>
<use x="114.10" y="81.40" xlink:href="#Hd"/>
<path d="M117.60 81.40v-21.00" class="stroke"/>
<use x="155.40" y="75.40" xlink:href="#hd"/>
<path d="M158.90 75.40v-21.00" class="stroke"/>
<path class="fill"
	d="M158.90 54.40c0.6 5.6 9.6 9 5.6 18.4
	1.6 -6 -1.3 -11.6 -5.6 -12.8
"/>
<use x="176.40" y="81.40" xlink:href="#hd"/>
<path d="M179.90 81.40v-21.00" class="stroke"/>
<path class="fill"
	d="M179.90 60.40c0.6 5.6 9.6 9 5.6 18.4
	1.6 -6 -1.3 -11.6 -5.6 -12.8
"/>
<use x="197.60" y="75.40" xlink:href="#Hd"/>
<path d="M201.10 75.40v-21.00" class="stroke"/>
<use x="259.40" y="78.40" xlink:href="#hd"/>
<path d="M262.90 78.40v-21.00" class="stroke"/>
<use x="288.20" y="81.40" xlink:href="#Hd"/>
<path d="M291.70 81.40v-21.00" class="stroke"/>
<use x="361.50" y="87.40" xlink:href="#hd"/>
<path d="M365.00 87.40v-21.00" class="stroke"/>
<use x="390.10" y="90.40" xlink:href="#Hd"/>
<path d="M393.60 90.40v-21.00" class="stroke"/>
<use x="442.90" y="90.40" xlink:href="#hd"/>
<path d="M446.40 90.40v-21.00" class="stroke"/>
<use x="471.50" y="81.40" xlink:href="#Hd"/>
<path d="M475.00 81.40v-21.00" class="stroke"/>
<use x="512.80" y="75.40" xlink:href="#hd"/>
<path d="M516.30 75.40v-21.00" class="stroke"/>
<path class="fill"
	d="M516.30 54.40c0.6 5.6 9.6 9 5.6 18.4
	1.6 -6 -1.3 -11.6 -5.6 -12.8
"/>
<use x="533.80" y="81.40" xlink:href="#hd"/>
<path d="M537.30 81.40v-21.00" class="stroke"/>
<path class="fill"
	d="M537.30 60.40c0.6 5.6 9.6 9 5.6 18.4
	1.6 -6 -1.3 -11.6 -5.6 -12.8
"/>
<use x="555.00" y="75.40" xlink:href="#Hd"/>
<path d="M558.50 75.40v-21.00" class="stroke"/>
<use x="629.30" y="78.40" xlink:href="#hd"/>
<path d="M632.80 78.40v-21.00" class="stroke"/>
<use x="658.10" y="69.40" xlink:href="#Hd"/>
<circle class="fill" cx="666.80" cy="66.40" r="1.2"/>
<path d="M654.60 69.40v21.00" class="stroke"/>
<defs>
<path id="ubclef" class="fill" d="m-200 -87
	c124 -35 222 -78 254 -236
	43 -228 -167 -246 -192 -103
	59 -80 157 22 92 78
	-62 47 -115 -22 -106 -88
	21 -141 270 -136 274 52
	-1 175 -106 264 -322 297
	m357 -250
	c0 -36 51 -34 51 0
	0 37 -51 36 -51 0
	m-2 -129
	c0 -36 51 -34 51 0
	0 38 -51 37 -51 0"/>
<use id="bclef" transform="translate(0,18) scale(0.045)"
	xlink:href="#ubclef"/>
</defs>
<use x="22.00" y="127.40" xlink:href="#bclef"/>
<use x="37.00" y="127.40" xlink:href="#sh0"/>
<g style="font:bold 16px serif"
	transform="translate(53.00,144.90) scale(1.2,1)">
	<text text-anchor="middle">4</text>
	<text y="-12" text-anchor="middle">3</text>
</g>
<defs>
<path id="hl" class="stroke" d="m-6 0h12"/>
</defs>
<use x="85.50" y="151.40" xlink:href="#hl"/>
<use x="85.50" y="157.40" xlink:href="#hl"/>
<use x="85.50" y="163.40" xlink:href="#hl"/>
<use x="85.50" y="166.40" xlink:href="#Hd"/>
<circle class="fill" cx="95.20" cy="166.40" r="1.2"/>
<path d="M89.00 166.40v-58.00" class="stroke"/>
<use x="85.50" y="145.40" xlink:href="#Hd"/>
<circle class="fill" cx="95.20" cy="142.40" r="1.2"/>
<use x="85.50" y="139.40" xlink:href="#Hd"/>
<circle class="fill" cx="95.20" cy="136.40" r="1.2"/>
<use x="85.50" y="133.40" xlink:href="#Hd"/>
<circle class="fill" cx="95.20" cy="130.40" r="1.2"/>
<use x="85.50" y="127.40" xlink:href="#Hd"/>
<circle class="fill" cx="95.20" cy="124.40" r="1.2"/>
<use x="155.40" y="145.40" xlink:href="#hd"/>
<path d="M158.90 145.40v-21.00" class="stroke"/>
<use x="197.60" y="139.40" xlink:href="#hd"/>
<path d="M201.10 139.40v-21.00" class="stroke"/>
<use x="226.10" y="133.40" xlink:href="#hd"/>
<path d="M229.60 133.40v-21.00" class="stroke"/>
<use x="259.40" y="133.40" xlink:href="#hd"/>
<path d="M262.90 133.40v-21.00" class="stroke"/>
<use x="288.20" y="127.40" xlink:href="#hd"/>
<path d="M284.70 127.40v21.00" class="stroke"/>
<use x="316.80" y="121.40" xlink:href="#hd"/>
<path d="M313.30 121.40v21.00" class="stroke"/>
<use x="361.50" y="151.40" xlink:href="#hl"/>
<use x="361.50" y="157.40" xlink:href="#hl"/>
<use x="361.50" y="157.40" xlink:href="#Hd"/>
<circle class="fill" cx="370.20" cy="154.40" r="1.2"/>
<path d="M365.00 157.40v-56.00" class="stroke"/>
<use x="361.50" y="136.40" xlink:href="#Hd"/>
<circle class="fill" cx="370.20" cy="136.40" r="1.2"/>
<use x="361.50" y="130.40" xlink:href="#Hd"/>
<circle class="fill" cx="370.20" cy="130.40" r="1.2"/>
<use x="361.50" y="124.40" xlink:href="#Hd"/>
<circle class="fill" cx="370.20" cy="124.40" r="1.2"/>
<use x="361.50" y="118.40" xlink:href="#Hd"/>
<circle class="fill" cx="370.20" cy="118.40" r="1.2"/>
<use x="442.90" y="151.40" xlink:href="#hl"/>
<use x="442.90" y="157.40" xlink:href="#hl"/>
<use x="442.90" y="163.40" xlink:href="#hl"/>
<use x="442.90" y="166.40" xlink:href="#Hd"/>
<circle class="fill" cx="451.60" cy="166.40" r="1.2"/>
<path d="M446.40 166.40v-58.00" class="stroke"/>
<use x="442.90" y="145.40" xlink:href="#Hd"/>
<circle class="fill" cx="451.60" cy="142.40" r="1.2"/>
<use x="442.90" y="139.40" xlink:href="#Hd"/>
<circle class="fill" cx="451.60" cy="136.40" r="1.2"/>
<use x="442.90" y="133.40" xlink:href="#Hd"/>
<circle class="fill" cx="451.60" cy="130.40" r="1.2"/>
<use x="442.90" y="127.40" xlink:href="#Hd"/>
<circle class="fill" cx="451.60" cy="124.40" r="1.2"/>
<use x="512.80" y="145.40" xlink:href="#hd"/>
<path d="M516.30 145.40v-21.00" class="stroke"/>
<use x="555.00" y="139.40" xlink:href="#hd"/>
<path d="M558.50 139.40v-21.00" class="stroke"/>
<use x="583.50" y="133.40" xlink:href="#hd"/>
<path d="M587.00 133.40v-21.00" class="stroke"/>
<defs>
<path id="hl1" class="stroke" d="m-7 0h14"/>
</defs>
<use x="630.30" y="151.40" xlink:href="#hl1"/>
<use x="630.30" y="115.40" xlink:href="#hl1"/>
<defs>
<path id="HD" class="fill" d="m-2.7 -1.4
	c1.5 -2.8 6.9 0 5.3 2.7
	-1.5 2.8 -6.9 0 -5.3 -2.7
	m8.3 1.4
	c0 -1.5 -2.2 -3 -5.6 -3
	-3.4 0 -5.6 1.5 -5.6 3
	0 1.5 2.2 3 5.6 3
	3.4 0 5.6 -1.5 5.6 -3"/>
</defs>
<use x="630.30" y="154.40" xlink:href="#HD"/>
<use x="630.30" y="133.40" xlink:href="#HD"/>
<use x="630.30" y="127.40" xlink:href="#HD"/>
<use x="630.30" y="121.40" xlink:href="#HD"/>
<use x="630.30" y="115.40" xlink:href="#HD"/>
<defs>
<path id="ltr" class="fill"
    d="m0 -0.4c2 -1.5 3.4 -1.9 3.9 0.4
	c0.2 0.8 0.7 0.7 2.1 -0.4
	v0.8c-2 1.5 -3.4 1.9 -3.9 -0.4
	c-0.2 -0.8 -0.7 -0.7 -2.1 0.4z"/>
</defs>
<g transform="rotate(270)">
<use x="-169.40" y="75.50" xlink:href="#ltr"/>
<use x="-163.40" y="75.50" xlink:href="#ltr"/>
<use x="-157.40" y="75.50" xlink:href="#ltr"/>
<use x="-151.40" y="75.50" xlink:href="#ltr"/>
<use x="-145.40" y="75.50" xlink:href="#ltr"/>
<use x="-139.40" y="75.50" xlink:href="#ltr"/>
<use x="-133.40" y="75.50" xlink:href="#ltr"/>
<use x="-127.40" y="75.50" xlink:href="#ltr"/>
</g>
<g transform="rotate(270)">
<use x="-160.40" y="351.50" xlink:href="#ltr"/>
<use x="-154.40" y="351.50" xlink:href="#ltr"/>
<use x="-148.40" y="351.50" xlink:href="#ltr"/>
<use x="-142.40" y="351.50" xlink:href="#ltr"/>
<use x="-136.40" y="351.50" xlink:href="#ltr"/>
<use x="-130.40" y="351.50" xlink:href="#ltr"/>
<use x="-124.40" y="351.50" xlink:href="#ltr"/>
<use x="-118.40" y="351.50" xlink:href="#ltr"/>
</g>
<g transform="rotate(270)">
<use x="-169.40" y="432.90" xlink:href="#ltr"/>
<use x="-163.40" y="432.90" xlink:href="#ltr"/>
<use x="-157.40" y="432.90" xlink:href="#ltr"/>
<use x="-151.40" y="432.90" xlink:href="#ltr"/>
<use x="-145.40" y="432.90" xlink:href="#ltr"/>
<use x="-139.40" y="432.90" xlink:href="#ltr"/>
<use x="-133.40" y="432.90" xlink:href="#ltr"/>
<use x="-127.40" y="432.90" xlink:href="#ltr"/>
</g>
<g transform="rotate(270)">
<use x="-157.40" y="616.80" xlink:href="#ltr"/>
<use x="-151.40" y="616.80" xlink:href="#ltr"/>
<use x="-145.40" y="616.80" xlink:href="#ltr"/>
<use x="-139.40" y="616.80" xlink:href="#ltr"/>
<use x="-133.40" y="616.80" xlink:href="#ltr"/>
<use x="-127.40" y="616.80" xlink:href="#ltr"/>
<use x="-121.40" y="616.80" xlink:href="#ltr"/>
<use x="-115.40" y="616.80" xlink:href="#ltr"/>
</g>
</g>
<g stroke-width="0.70" style="font:italic 11.00px Times">
<path class="stroke" stroke-width="1"
	d="M10.00 277.40v-82.00"/>
<g transform="translate(10.00,195.40) scale(1,0.82)">
	<use xlink:href="#brace"/>
</g>
<path class="stroke" stroke-width="1"
	d="M105.20 219.40v-24.00"/>
<path class="stroke" stroke-width="1"
	d="M105.20 277.40v-24.00"/>
<path class="stroke" stroke-width="1"
	d="M233.60 219.40v-24.00"/>
<path class="stroke" stroke-width="1"
	d="M233.60 277.40v-24.00"/>
<path class="stroke" stroke-width="1"
	d="M356.40 219.40v-24.00"/>
<path class="stroke" stroke-width="1"
	d="M356.40 277.40v-24.00"/>
<path class="stroke" stroke-width="1"
	d="M484.90 219.40v-24.00"/>
<path class="stroke" stroke-width="1"
	d="M484.90 277.40v-24.00"/>
<path class="stroke" stroke-width="1"
	d="M595.90 219.40v-24.00"/>
<path class="stroke" stroke-width="1"
	d="M595.90 277.40v-24.00"/>
<path class="stroke" stroke-width="1"
	d="M691.60 219.40v-24.00"/>
<path class="stroke" stroke-width="1"
	d="M691.60 277.40v-24.00"/>
<path d="m10.00 219.40
	h681.60
	M10.00 213.40
	h681.60
	M10.00 207.40
	h681.60
	M10.00 201.40
	h681.60
	M10.00 195.40
	h681.60
	" class="stroke"/>
<path d="m10.00 277.40
	h681.60
	M10.00 271.40
	h681.60
	M10.00 265.40
	h681.60
	M10.00 259.40
	h681.60
	M10.00 253.40
	h681.60
	" class="stroke"/>
</g>
<g stroke-width="0.70" style="font:bold 13.00px Times">
<text x="61.80" y="190.80">I<tspan
	 style="font:italic 11.00px Times">Δ⁷¹</tspan></text>
</g>
<g stroke-width="0.70" style="font:bold 13.00px Times">
<text x="112.50" y="188.80">I<tspan
	 style="font:italic 11.00px Times">Δ⁷</tspan></text>
</g>
<g stroke-width="0.70" style="font:bold 13.00px Times">
<text x="240.90" y="190.80">I<tspan
	 style="font:italic 11.00px Times">Δ⁷</tspan></text>
</g>
<g stroke-width="0.70" style="font:bold 13.00px Times">
<text x="361.70" y="190.80">I<tspan
	 style="font:italic 11.00px Times">Δ⁷¹</tspan></text>
</g>
<g stroke-width="0.70" style="font:bold 13.00px Times">
<text x="500.90" y="185.80">IV<tspan
	 style="font:italic 11.00px Times">Δ⁷</tspan></text>
</g>
<g stroke-width="0.70" style="font:bold 13.00px Times">
<text x="612.20" y="190.80">I<tspan
	 style="font:italic 11.00px Times">Δ⁷¹</tspan></text>
</g>
<g stroke-width="0.70" style="font:italic 11.00px Times">
<use x="22.00" y="213.40" xlink:href="#tclef"/>
<use x="37.00" y="195.40" xlink:href="#sh0"/>
<use x="69.50" y="201.40" xlink:href="#Hd"/>
<path d="M66.00 201.40v21.00" class="stroke"/>
<use x="118.20" y="207.40" xlink:href="#hd"/>
<path d="M114.70 207.40v21.00" class="stroke"/>
<use x="154.20" y="201.40" xlink:href="#hd"/>
<circle class="fill" cx="161.90" cy="198.40" r="1.2"/>
<path d="M150.70 201.40v21.00" class="stroke"/>
<use x="215.60" y="207.40" xlink:href="#hd"/>
<path d="M212.10 207.40v21.00" class="stroke"/>
<path class="fill"
	d="M212.10 228.40c0.6 -5.6 9.6 -9 5.6 -18.4
	1.6 6 -1.3 11.6 -5.6 12.8
"/>
<use x="246.60" y="201.40" xlink:href="#hd"/>
<path d="M243.10 201.40v21.00" class="stroke"/>
<path class="fill"
	d="M243.10 222.40c0.6 -5.6 9.6 -9 5.6 -18.4
	1.6 6 -1.3 11.6 -5.6 12.8
"/>
<use x="272.10" y="207.40" xlink:href="#hd"/>
<path d="M268.60 207.40v21.00" class="stroke"/>
<path class="fill"
	d="M268.60 228.40c0.6 -5.6 9.6 -9 5.6 -18.4
	1.6 6 -1.3 11.6 -5.6 12.8
"/>
<use x="295.10" y="213.40" xlink:href="#Hd"/>
<path d="M298.60 213.40v-21.00" class="stroke"/>
<use x="369.40" y="222.40" xlink:href="#hd"/>
<path d="M372.90 222.40v-21.00" class="stroke"/>
<use x="405.30" y="219.40" xlink:href="#hd"/>
<circle class="fill" cx="413.00" cy="216.40" r="1.2"/>
<path d="M408.80 219.40v-21.00" class="stroke"/>
<use x="466.80" y="213.40" xlink:href="#hd"/>
<path d="M470.30 213.40v-21.00" class="stroke"/>
<path class="fill"
	d="M470.30 192.40c0.6 5.6 9.6 9 5.6 18.4
	1.6 -6 -1.3 -11.6 -5.6 -12.8
"/>
<use x="508.90" y="213.40" xlink:href="#hd"/>
<path d="M512.40 213.40v-21.00" class="stroke"/>
<path class="fill"
	d="M512.40 192.40c0.6 5.6 9.6 9 5.6 18.4
	1.6 -6 -1.3 -11.6 -5.6 -12.8
"/>
<use x="534.50" y="219.40" xlink:href="#hd"/>
<path d="M538.00 219.40v-21.00" class="stroke"/>
<path class="fill"
	d="M538.00 198.40c0.6 5.6 9.6 9 5.6 18.4
	1.6 -6 -1.3 -11.6 -5.6 -12.8
"/>
<use x="560.20" y="222.40" xlink:href="#Hd"/>
<path d="M563.70 222.40v-21.00" class="stroke"/>
<use x="619.90" y="222.40" xlink:href="#hd"/>
<path d="M623.40 222.40v-21.00" class="stroke"/>
<use x="655.90" y="213.40" xlink:href="#Hd"/>
<path d="M659.40 213.40v-21.00" class="stroke"/>
<use x="22.00" y="259.40" xlink:href="#bclef"/>
<use x="37.00" y="259.40" xlink:href="#sh0"/>
<use x="69.50" y="283.40" xlink:href="#hl"/>
<use x="69.50" y="289.40" xlink:href="#hl"/>
<use x="69.50" y="295.40" xlink:href="#hl"/>
<use x="69.50" y="298.40" xlink:href="#Hd"/>
<path d="M73.00 298.40v-58.00" class="stroke"/>
<use x="69.50" y="277.40" xlink:href="#Hd"/>
<use x="69.50" y="271.40" xlink:href="#Hd"/>
<use x="69.50" y="265.40" xlink:href="#Hd"/>
<use x="69.50" y="259.40" xlink:href="#Hd"/>
<use x="118.20" y="277.40" xlink:href="#hd"/>
<path d="M121.70 277.40v-21.00" class="stroke"/>
<use x="154.20" y="271.40" xlink:href="#hd"/>
<path d="M157.70 271.40v-21.00" class="stroke"/>
<use x="190.10" y="265.40" xlink:href="#hd"/>
<path d="M193.60 265.40v-21.00" class="stroke"/>
<use x="246.60" y="277.40" xlink:href="#hd"/>
<path d="M250.10 277.40v-21.00" class="stroke"/>
<use x="295.10" y="271.40" xlink:href="#hd"/>
<path d="M298.60 271.40v-21.00" class="stroke"/>
<use x="331.10" y="265.40" xlink:href="#hd"/>
<path d="M334.60 265.40v-21.00" class="stroke"/>
<use x="369.40" y="277.40" xlink:href="#hd"/>
<path d="M372.90 277.40v-21.00" class="stroke"/>
<use x="405.30" y="271.40" xlink:href="#hd"/>
<path d="M408.80 271.40v-21.00" class="stroke"/>
<use x="441.30" y="265.40" xlink:href="#hd"/>
<path d="M444.80 265.40v-21.00" class="stroke"/>
<use x="508.90" y="283.40" xlink:href="#hl"/>
<use x="508.90" y="289.40" xlink:href="#hl"/>
<use x="508.90" y="289.40" xlink:href="#Hd"/>
<circle class="fill" cx="517.60" cy="286.40" r="1.2"/>
<path d="M512.40 289.40v-56.00" class="stroke"/>
<use x="508.90" y="268.40" xlink:href="#Hd"/>
<circle class="fill" cx="517.60" cy="268.40" r="1.2"/>
<use x="508.90" y="262.40" xlink:href="#Hd"/>
<circle class="fill" cx="517.60" cy="262.40" r="1.2"/>
<use x="508.90" y="256.40" xlink:href="#Hd"/>
<circle class="fill" cx="517.60" cy="256.40" r="1.2"/>
<use x="508.90" y="250.40" xlink:href="#Hd"/>
<circle class="fill" cx="517.60" cy="250.40" r="1.2"/>
<use x="619.90" y="283.40" xlink:href="#hl"/>
<use x="619.90" y="289.40" xlink:href="#hl"/>
<use x="619.90" y="295.40" xlink:href="#hl"/>
<use x="619.90" y="298.40" xlink:href="#Hd"/>
<circle class="fill" cx="628.60" cy="298.40" r="1.2"/>
<path d="M623.40 298.40v-58.00" class="stroke"/>
<use x="619.90" y="277.40" xlink:href="#Hd"/>
<circle class="fill" cx="628.60" cy="274.40" r="1.2"/>
<use x="619.90" y="271.40" xlink:href="#Hd"/>
<circle class="fill" cx="628.60" cy="268.40" r="1.2"/>
<use x="619.90" y="265.40" xlink:href="#Hd"/>
<circle class="fill" cx="628.60" cy="262.40" r="1.2"/>
<use x="619.90" y="259.40" xlink:href="#Hd"/>
<circle class="fill" cx="628.60" cy="256.40" r="1.2"/>
<g transform="rotate(270)">
<use x="-301.40" y="59.50" xlink:href="#ltr"/>
<use x="-295.40" y="59.50" xlink:href="#ltr"/>
<use x="-289.40" y="59.50" xlink:href="#ltr"/>
<use x="-283.40" y="59.50" xlink:href="#ltr"/>
<use x="-277.40" y="59.50" xlink:href="#ltr"/>
<use x="-271.40" y="59.50" xlink:href="#ltr"/>
<use x="-265.40" y="59.50" xlink:href="#ltr"/>
<use x="-259.40" y="59.50" xlink:href="#ltr"/>
</g>
<g transform="rotate(270)">
<use x="-292.40" y="498.90" xlink:href="#ltr"/>
<use x="-286.40" y="498.90" xlink:href="#ltr"/>
<use x="-280.40" y="498.90" xlink:href="#ltr"/>
<use x="-274.40" y="498.90" xlink:href="#ltr"/>
<use x="-268.40" y="498.90" xlink:href="#ltr"/>
<use x="-262.40" y="498.90" xlink:href="#ltr"/>
<use x="-256.40" y="498.90" xlink:href="#ltr"/>
<use x="-250.40" y="498.90" xlink:href="#ltr"/>
</g>
<g transform="rotate(270)">
<use x="-301.40" y="609.90" xlink:href="#ltr"/>
<use x="-295.40" y="609.90" xlink:href="#ltr"/>
<use x="-289.40" y="609.90" xlink:href="#ltr"/>
<use x="-283.40" y="609.90" xlink:href="#ltr"/>
<use x="-277.40" y="609.90" xlink:href="#ltr"/>
<use x="-271.40" y="609.90" xlink:href="#ltr"/>
<use x="-265.40" y="609.90" xlink:href="#ltr"/>
<use x="-259.40" y="609.90" xlink:href="#ltr"/>
</g>
</g>
<g stroke-width="0.70" style="font:italic 11.00px Times">
<path class="stroke" stroke-width="1"
	d="M10.00 411.80v-82.00"/>
<g transform="translate(10.00,329.80) scale(1,0.82)">
	<use xlink:href="#brace"/>
</g>
<path class="stroke" stroke-width="1"
	d="M179.60 353.80v-24.00"/>
<path class="stroke" stroke-width="1"
	d="M179.60 411.80v-24.00"/>
<path class="stroke" stroke-width="1"
	d="M341.80 353.80v-24.00"/>
<path class="stroke" stroke-width="1"
	d="M341.80 411.80v-24.00"/>
<path class="stroke" stroke-width="1"
	d="M405.40 353.80v-24.00"/>
<path class="stroke" stroke-width="1"
	d="M405.40 411.80v-24.00"/>
<path d="m10.00 353.80
	h395.40
	M10.00 347.80
	h395.40
	M10.00 341.80
	h395.40
	M10.00 335.80
	h395.40
	M10.00 329.80
	h395.40
	" class="stroke"/>
<path d="m10.00 411.80
	h395.40
	M10.00 405.80
	h395.40
	M10.00 399.80
	h395.40
	M10.00 393.80
	h395.40
	M10.00 387.80
	h395.40
	" class="stroke"/>
</g>
<g stroke-width="0.70" style="font:bold 13.00px Times">
<text x="47.30" y="314.20">I<tspan
	 style="font:italic 11.00px Times">Δ⁷²</tspan></text>
</g>
<g stroke-width="0.70" style="font:bold 13.00px Times">
<text x="187.90" y="317.20">V<tspan
	 style="font:italic 11.00px Times">⁷</tspan></text>
</g>
<g stroke-width="0.70" style="font:bold 13.00px Times">
<text x="360.00" y="318.20">I<tspan
	 style="font:italic 11.00px Times">Δ⁷</tspan></text>
</g>
<g stroke-width="0.70" style="font:italic 11.00px Times">
<use x="22.00" y="347.80" xlink:href="#tclef"/>
<use x="37.00" y="329.80" xlink:href="#sh0"/>
<use x="55.00" y="341.80" xlink:href="#hd"/>
<path d="M58.50 341.80v-21.00" class="stroke"/>
<path class="fill"
	d="M58.50 320.80c0.6 5.6 9.6 9 5.6 18.4
	1.6 -6 -1.3 -11.6 -5.6 -12.8
"/>
<use x="83.30" y="347.80" xlink:href="#hd"/>
<path d="M86.80 347.80v-21.00" class="stroke"/>
<path class="fill"
	d="M86.80 326.80c0.6 5.6 9.6 9 5.6 18.4
	1.6 -6 -1.3 -11.6 -5.6 -12.8
"/>
<use x="111.60" y="341.80" xlink:href="#Hd"/>
<path d="M115.10 341.80v-21.00" class="stroke"/>
<use x="193.80" y="344.80" xlink:href="#hd"/>
<path d="M197.30 344.80v-21.00" class="stroke"/>
<use x="233.80" y="347.80" xlink:href="#Hd"/>
<circle class="fill" cx="242.50" cy="344.80" r="1.2"/>
<path d="M237.30 347.80v-21.00" class="stroke"/>
<use x="365.80" y="326.80" xlink:href="#Hd"/>
<path d="M362.30 326.80v40.00" class="stroke"/>
<use x="365.80" y="347.80" xlink:href="#Hd"/>
<use x="22.00" y="393.80" xlink:href="#bclef"/>
<use x="37.00" y="393.80" xlink:href="#sh0"/>
<use x="55.00" y="411.80" xlink:href="#hd"/>
<path d="M58.50 411.80v-21.00" class="stroke"/>
<use x="111.60" y="405.80" xlink:href="#hd"/>
<path d="M115.10 405.80v-21.00" class="stroke"/>
<use x="151.60" y="399.80" xlink:href="#hd"/>
<path d="M155.10 399.80v-21.00" class="stroke"/>
<use x="193.80" y="399.80" xlink:href="#hd"/>
<path d="M197.30 399.80v-21.00" class="stroke"/>
<use x="233.80" y="393.80" xlink:href="#hd"/>
<path d="M230.30 393.80v21.00" class="stroke"/>
<use x="273.80" y="387.80" xlink:href="#hd"/>
<path d="M270.30 387.80v21.00" class="stroke"/>
<use x="313.80" y="381.80" xlink:href="#hl"/>
<use x="313.80" y="381.80" xlink:href="#hd"/>
<path d="M310.30 381.80v21.00" class="stroke"/>
<use x="365.80" y="417.80" xlink:href="#hl"/>
<use x="365.80" y="423.80" xlink:href="#hl"/>
<use x="365.80" y="429.80" xlink:href="#hl"/>
<use x="365.80" y="432.80" xlink:href="#Hd"/>
<path d="M369.30 432.80v-58.00" class="stroke"/>
<use x="365.80" y="411.80" xlink:href="#Hd"/>
<use x="365.80" y="405.80" xlink:href="#Hd"/>
<use x="365.80" y="399.80" xlink:href="#Hd"/>
<use x="365.80" y="393.80" xlink:href="#Hd"/>
<g transform="rotate(270)">
<use x="-435.80" y="355.80" xlink:href="#ltr"/>
<use x="-429.80" y="355.80" xlink:href="#ltr"/>
<use x="-423.80" y="355.80" xlink:href="#ltr"/>
<use x="-417.80" y="355.80" xlink:href="#ltr"/>
<use x="-411.80" y="355.80" xlink:href="#ltr"/>
<use x="-405.80" y="355.80" xlink:href="#ltr"/>
<use x="-399.80" y="355.80" xlink:href="#ltr"/>
<use x="-393.80" y="355.80" xlink:href="#ltr"/>
</g>
</g>
</svg>
