<?xml version="1.0" standalone="no"?>
<!DOCTYPE svg PUBLIC "-//W3C//DTD SVG 1.1//EN"
	"http://www.w3.org/Graphics/SVG/1.1/DTD/svg11.dtd">
<svg xmlns="http://www.w3.org/2000/svg" version="1.1"
	xmlns:xlink="http://www.w3.org/1999/xlink"
	color="black"
	width="701.60px" height="423.00px" viewBox="0 0 701.60 423.00" preserveAspectRatio="xMidYMid meet">
<style type="text/css">
.fill {fill: currentColor}
.stroke {stroke: currentColor; fill: none}
text{white-space: pre}
</style>
<title>/tmp/reharm_hymnal_L4/tis_midnight_and_on_olive_s_brow.abc (1) tune 1</title>
<!-- Creator: abcm2ps-8.14.11 -->
<!-- CreationDate: Apr 24, 2026 15:32 -->
<!-- CommandLine: /tmp/reharm_hymnal_L4/tis_midnight_and_on_olive_s_brow.abc -g -O /tmp/reharm_hymnal_L4/tis_midnight_and_on_olive_s_brow -->
<g stroke-width="0.70">
<!-- title: 002. 'Tis Midnight and On Olive's Brow -->
</g>
<g stroke-width="0.70" style="font:20.00px Times">
<text x="350.80" y="22.00" text-anchor="middle">002. &apos;Tis Midnight and On Olive&apos;s Brow</text>
</g>
<g stroke-width="0.70" style="font:20.00px Times">
<path class="stroke" stroke-width="1"
	d="M10.00 143.00v-82.00"/>
<defs>
<path id="brace" class="fill" d="m-2.5 101
	c-4.5 -4.6 -7.5 -12.2 -4.4 -26.8
	3.5 -14.3 3.2 -21.7 -2.1 -24.2
	7.4 2.4 7.3 14.2 3.5 29.5
	-2.7 9.5 -1.5 16.2 3 21.5
	M-2.5 1c-4.5 4.6 -7.5 12.2 -4.4 26.8
	c3.5 14.3 3.2 21.7 -2.1 24.2
	7.4 -2.4 7.3 -14.2 3.5 -29.5
	-2.7 -9.5 -1.5 -16.2 3 -21.5"/>
</defs>
<g transform="translate(10.00,61.00) scale(1,0.82)">
	<use xlink:href="#brace"/>
</g>
<path class="stroke" stroke-width="1"
	d="M167.50 85.00v-24.00"/>
<path class="stroke" stroke-width="1"
	d="M167.50 143.00v-24.00"/>
<path class="stroke" stroke-width="1"
	d="M277.40 85.00v-24.00"/>
<path class="stroke" stroke-width="1"
	d="M277.40 143.00v-24.00"/>
<path class="stroke" stroke-width="1"
	d="M387.30 85.00v-24.00"/>
<path class="stroke" stroke-width="1"
	d="M387.30 143.00v-24.00"/>
<path class="stroke" stroke-width="1"
	d="M498.20 85.00v-24.00"/>
<path class="stroke" stroke-width="1"
	d="M498.20 143.00v-24.00"/>
<path class="stroke" stroke-width="1"
	d="M604.20 85.00v-24.00"/>
<path class="stroke" stroke-width="1"
	d="M604.20 143.00v-24.00"/>
<path class="stroke" stroke-width="1"
	d="M691.60 85.00v-24.00"/>
<path class="stroke" stroke-width="1"
	d="M691.60 143.00v-24.00"/>
<path d="m10.00 85.00
	h681.60
	M10.00 79.00
	h681.60
	M10.00 73.00
	h681.60
	M10.00 67.00
	h681.60
	M10.00 61.00
	h681.60
	" class="stroke"/>
<path d="m10.00 143.00
	h681.60
	M10.00 137.00
	h681.60
	M10.00 131.00
	h681.60
	M10.00 125.00
	h681.60
	M10.00 119.00
	h681.60
	" class="stroke"/>
</g>
<g stroke-width="0.70" style="font:bold 13.00px Times">
<text x="78.50" y="54.40">vi<tspan
	 style="font:italic 11.00px Times">m⁷</tspan></text>
</g>
<g stroke-width="0.70" style="font:bold 13.00px Times">
<text x="172.50" y="48.40">ii<tspan
	 style="font:italic 11.00px Times">m⁷</tspan></text>
</g>
<g stroke-width="0.70" style="font:bold 13.00px Times">
<text x="282.40" y="56.40">IV<tspan
	 style="font:italic 11.00px Times">Δ⁷²</tspan></text>
</g>
<g stroke-width="0.70" style="font:bold 13.00px Times">
<text x="393.30" y="56.40">iii<tspan
	 style="font:italic 11.00px Times">m⁷</tspan></text>
</g>
<g stroke-width="0.70" style="font:bold 13.00px Times">
<text x="515.20" y="48.40">vi<tspan
	 style="font:italic 11.00px Times">m⁷</tspan></text>
</g>
<g stroke-width="0.70" style="font:bold 13.00px Times">
<text x="621.20" y="56.40">vi<tspan
	 style="font:italic 11.00px Times">m⁷¹</tspan></text>
</g>
<g stroke-width="0.70" style="font:italic 11.00px Times">
<defs>
<path id="utclef" class="fill" d="m-50 -90
	c-72 -41 -72 -158 52 -188
	150 -10 220 188 90 256
	-114 52 -275 0 -293 -136
	-15 -181 93 -229 220 -334
	88 -87 79 -133 62 -210
	-51 33 -94 105 -89 186
	17 267 36 374 49 574
	6 96 -19 134 -77 135
	-80 1 -126 -93 -61 -133
	85 -41 133 101 31 105
	23 17 92 37 90 -92
	-10 -223 -39 -342 -50 -617
	0 -90 0 -162 96 -232
	56 72 63 230 22 289
	-74 106 -257 168 -255 316
	9 153 148 185 252 133
	86 -65 29 -192 -80 -176
	-71 12 -105 67 -59 124"/>
<use id="tclef" transform="translate(0,6) scale(0.045)"
	xlink:href="#utclef"/>
</defs>
<use x="22.00" y="79.00" xlink:href="#tclef"/>
<defs>
<path id="uflat" class="fill" d="
	m100 -746
	h32
	v734
	l-32 4
	m32 -332
	c46 -72 152 -90 208 -20
	100 110 -120 326 -208 348
	m0 -28
	c54 0 200 -206 130 -290
	-50 -60 -130 -4 -130 34"/>
<use id="ft0" transform="translate(-3.5,3.5) scale(0.018)"
	xlink:href="#uflat"/>
</defs>
<use x="37.00" y="73.00" xlink:href="#ft0"/>
<g style="font:bold 16px serif"
	transform="translate(53.00,84.50) scale(1.2,1)">
	<text text-anchor="middle">4</text>
	<text y="-12" text-anchor="middle">4</text>
</g>
<defs>
<path id="Hd" class="fill" d="m3 -1.6
	c-1 -1.8 -7 1.4 -6 3.2
	1 1.8 7 -1.4 6 -3.2
	m0.5 -0.3
	c2 3.8 -5 7.6 -7 3.8
	-2 -3.8 5 -7.6 7 -3.8"/>
</defs>
<use x="86.50" y="82.00" xlink:href="#Hd"/>
<path d="M90.00 82.00v-21.00" class="stroke"/>
<defs>
<ellipse id="hd" rx="4.1" ry="2.9"
	transform="rotate(-20)" class="fill"/>
</defs>
<use x="122.70" y="82.00" xlink:href="#hd"/>
<path d="M126.20 82.00v-21.00" class="stroke"/>
<use x="148.60" y="79.00" xlink:href="#hd"/>
<path d="M152.10 79.00v-21.00" class="stroke"/>
<use x="180.50" y="76.00" xlink:href="#Hd"/>
<circle class="fill" cx="189.20" cy="76.00" r="1.2"/>
<path d="M184.00 76.00v-21.00" class="stroke"/>
<use x="258.50" y="67.00" xlink:href="#hd"/>
<path d="M255.00 67.00v21.00" class="stroke"/>
<use x="290.40" y="70.00" xlink:href="#Hd"/>
<path d="M286.90 70.00v21.00" class="stroke"/>
<use x="342.50" y="73.00" xlink:href="#Hd"/>
<path d="M339.00 73.00v21.00" class="stroke"/>
<defs>
<path id="HD" class="fill" d="m-2.7 -1.4
	c1.5 -2.8 6.9 0 5.3 2.7
	-1.5 2.8 -6.9 0 -5.3 -2.7
	m8.3 1.4
	c0 -1.5 -2.2 -3 -5.6 -3
	-3.4 0 -5.6 1.5 -5.6 3
	0 1.5 2.2 3 5.6 3
	3.4 0 5.6 -1.5 5.6 -3"/>
</defs>
<use x="402.30" y="76.00" xlink:href="#HD"/>
<use x="523.20" y="76.00" xlink:href="#Hd"/>
<path d="M526.70 76.00v-21.00" class="stroke"/>
<use x="559.40" y="76.00" xlink:href="#hd"/>
<path d="M562.90 76.00v-21.00" class="stroke"/>
<use x="585.20" y="73.00" xlink:href="#hd"/>
<path d="M588.70 73.00v-21.00" class="stroke"/>
<use x="629.20" y="70.00" xlink:href="#Hd"/>
<path d="M625.70 70.00v21.00" class="stroke"/>
<use x="665.40" y="82.00" xlink:href="#Hd"/>
<path d="M668.90 82.00v-21.00" class="stroke"/>
<defs>
<path id="ubclef" class="fill" d="m-200 -87
	c124 -35 222 -78 254 -236
	43 -228 -167 -246 -192 -103
	59 -80 157 22 92 78
	-62 47 -115 -22 -106 -88
	21 -141 270 -136 274 52
	-1 175 -106 264 -322 297
	m357 -250
	c0 -36 51 -34 51 0
	0 37 -51 36 -51 0
	m-2 -129
	c0 -36 51 -34 51 0
	0 38 -51 37 -51 0"/>
<use id="bclef" transform="translate(0,18) scale(0.045)"
	xlink:href="#ubclef"/>
</defs>
<use x="22.00" y="125.00" xlink:href="#bclef"/>
<use x="37.00" y="137.00" xlink:href="#ft0"/>
<g style="font:bold 16px serif"
	transform="translate(53.00,142.50) scale(1.2,1)">
	<text text-anchor="middle">4</text>
	<text y="-12" text-anchor="middle">4</text>
</g>
<defs>
<path id="hl1" class="stroke" d="m-7 0h14"/>
</defs>
<use x="87.50" y="149.00" xlink:href="#hl1"/>
<use x="87.50" y="113.00" xlink:href="#hl1"/>
<use x="87.50" y="152.00" xlink:href="#HD"/>
<use x="87.50" y="131.00" xlink:href="#HD"/>
<use x="87.50" y="125.00" xlink:href="#HD"/>
<use x="87.50" y="119.00" xlink:href="#HD"/>
<use x="87.50" y="113.00" xlink:href="#HD"/>
<use x="180.50" y="143.00" xlink:href="#hd"/>
<path d="M184.00 143.00v-21.00" class="stroke"/>
<use x="206.40" y="137.00" xlink:href="#hd"/>
<path d="M209.90 137.00v-21.00" class="stroke"/>
<use x="232.30" y="131.00" xlink:href="#hd"/>
<path d="M235.80 131.00v-21.00" class="stroke"/>
<use x="258.50" y="125.00" xlink:href="#hd"/>
<path d="M255.00 125.00v21.00" class="stroke"/>
<use x="290.40" y="137.00" xlink:href="#hd"/>
<path d="M293.90 137.00v-21.00" class="stroke"/>
<use x="316.30" y="131.00" xlink:href="#hd"/>
<path d="M319.80 131.00v-21.00" class="stroke"/>
<use x="342.50" y="125.00" xlink:href="#hd"/>
<path d="M339.00 125.00v21.00" class="stroke"/>
<use x="368.40" y="119.00" xlink:href="#hd"/>
<path d="M364.90 119.00v21.00" class="stroke"/>
<use x="401.30" y="140.00" xlink:href="#hd"/>
<path d="M404.80 140.00v-21.00" class="stroke"/>
<use x="427.20" y="134.00" xlink:href="#hd"/>
<path d="M430.70 134.00v-21.00" class="stroke"/>
<use x="453.40" y="128.00" xlink:href="#hd"/>
<path d="M449.90 128.00v21.00" class="stroke"/>
<use x="479.20" y="122.00" xlink:href="#hd"/>
<path d="M475.70 122.00v21.00" class="stroke"/>
<use x="524.20" y="149.00" xlink:href="#hl1"/>
<use x="524.20" y="113.00" xlink:href="#hl1"/>
<use x="524.20" y="152.00" xlink:href="#HD"/>
<use x="524.20" y="131.00" xlink:href="#HD"/>
<use x="524.20" y="125.00" xlink:href="#HD"/>
<use x="524.20" y="119.00" xlink:href="#HD"/>
<use x="524.20" y="113.00" xlink:href="#HD"/>
<use x="630.20" y="149.00" xlink:href="#hl1"/>
<use x="630.20" y="113.00" xlink:href="#hl1"/>
<use x="630.20" y="152.00" xlink:href="#HD"/>
<use x="630.20" y="131.00" xlink:href="#HD"/>
<use x="630.20" y="125.00" xlink:href="#HD"/>
<use x="630.20" y="119.00" xlink:href="#HD"/>
<use x="630.20" y="113.00" xlink:href="#HD"/>
<defs>
<path id="ltr" class="fill"
    d="m0 -0.4c2 -1.5 3.4 -1.9 3.9 0.4
	c0.2 0.8 0.7 0.7 2.1 -0.4
	v0.8c-2 1.5 -3.4 1.9 -3.9 -0.4
	c-0.2 -0.8 -0.7 -0.7 -2.1 0.4z"/>
</defs>
<g transform="rotate(270)">
<use x="-155.00" y="74.00" xlink:href="#ltr"/>
<use x="-149.00" y="74.00" xlink:href="#ltr"/>
<use x="-143.00" y="74.00" xlink:href="#ltr"/>
<use x="-137.00" y="74.00" xlink:href="#ltr"/>
<use x="-131.00" y="74.00" xlink:href="#ltr"/>
<use x="-125.00" y="74.00" xlink:href="#ltr"/>
<use x="-119.00" y="74.00" xlink:href="#ltr"/>
<use x="-113.00" y="74.00" xlink:href="#ltr"/>
</g>
<g transform="rotate(270)">
<use x="-155.00" y="510.70" xlink:href="#ltr"/>
<use x="-149.00" y="510.70" xlink:href="#ltr"/>
<use x="-143.00" y="510.70" xlink:href="#ltr"/>
<use x="-137.00" y="510.70" xlink:href="#ltr"/>
<use x="-131.00" y="510.70" xlink:href="#ltr"/>
<use x="-125.00" y="510.70" xlink:href="#ltr"/>
<use x="-119.00" y="510.70" xlink:href="#ltr"/>
<use x="-113.00" y="510.70" xlink:href="#ltr"/>
</g>
<g transform="rotate(270)">
<use x="-155.00" y="616.70" xlink:href="#ltr"/>
<use x="-149.00" y="616.70" xlink:href="#ltr"/>
<use x="-143.00" y="616.70" xlink:href="#ltr"/>
<use x="-137.00" y="616.70" xlink:href="#ltr"/>
<use x="-131.00" y="616.70" xlink:href="#ltr"/>
<use x="-125.00" y="616.70" xlink:href="#ltr"/>
<use x="-119.00" y="616.70" xlink:href="#ltr"/>
<use x="-113.00" y="616.70" xlink:href="#ltr"/>
</g>
</g>
<g stroke-width="0.70" style="font:italic 11.00px Times">
<path class="stroke" stroke-width="1"
	d="M10.00 271.00v-82.00"/>
<g transform="translate(10.00,189.00) scale(1,0.82)">
	<use xlink:href="#brace"/>
</g>
<path class="stroke" stroke-width="1"
	d="M164.40 213.00v-24.00"/>
<path class="stroke" stroke-width="1"
	d="M164.40 271.00v-24.00"/>
<path class="stroke" stroke-width="1"
	d="M286.30 213.00v-24.00"/>
<path class="stroke" stroke-width="1"
	d="M286.30 271.00v-24.00"/>
<path class="stroke" stroke-width="1"
	d="M408.20 213.00v-24.00"/>
<path class="stroke" stroke-width="1"
	d="M408.20 271.00v-24.00"/>
<path class="stroke" stroke-width="1"
	d="M530.10 213.00v-24.00"/>
<path class="stroke" stroke-width="1"
	d="M530.10 271.00v-24.00"/>
<path class="stroke" stroke-width="1"
	d="M625.50 213.00v-24.00"/>
<path class="stroke" stroke-width="1"
	d="M625.50 271.00v-24.00"/>
<path class="stroke" stroke-width="1"
	d="M691.60 213.00v-24.00"/>
<path class="stroke" stroke-width="1"
	d="M691.60 271.00v-24.00"/>
<path d="m10.00 213.00
	h681.60
	M10.00 207.00
	h681.60
	M10.00 201.00
	h681.60
	M10.00 195.00
	h681.60
	M10.00 189.00
	h681.60
	" class="stroke"/>
<path d="m10.00 271.00
	h681.60
	M10.00 265.00
	h681.60
	M10.00 259.00
	h681.60
	M10.00 253.00
	h681.60
	M10.00 247.00
	h681.60
	" class="stroke"/>
</g>
<g stroke-width="0.70" style="font:bold 13.00px Times">
<text x="47.50" y="176.40">ii<tspan
	 style="font:italic 11.00px Times">m⁷²</tspan></text>
</g>
<g stroke-width="0.70" style="font:bold 13.00px Times">
<text x="169.40" y="182.40">IV<tspan
	 style="font:italic 11.00px Times">Δ⁷</tspan></text>
</g>
<g stroke-width="0.70" style="font:bold 13.00px Times">
<text x="291.30" y="182.40">ii<tspan
	 style="font:italic 11.00px Times">m⁷</tspan></text>
</g>
<g stroke-width="0.70" style="font:bold 13.00px Times">
<text x="413.20" y="179.40">iii<tspan
	 style="font:italic 11.00px Times">m⁷</tspan></text>
</g>
<g stroke-width="0.70" style="font:bold 13.00px Times">
<text x="547.10" y="182.40">vi<tspan
	 style="font:italic 11.00px Times">m⁷</tspan></text>
</g>
<g stroke-width="0.70" style="font:bold 13.00px Times">
<text x="642.50" y="184.40">vi<tspan
	 style="font:italic 11.00px Times">m⁷</tspan></text>
</g>
<g stroke-width="0.70" style="font:italic 11.00px Times">
<use x="22.00" y="207.00" xlink:href="#tclef"/>
<use x="37.00" y="201.00" xlink:href="#ft0"/>
<use x="55.50" y="204.00" xlink:href="#Hd"/>
<path d="M59.00 204.00v-21.00" class="stroke"/>
<use x="114.00" y="207.00" xlink:href="#Hd"/>
<path d="M117.50 207.00v-21.00" class="stroke"/>
<use x="177.40" y="210.00" xlink:href="#Hd"/>
<circle class="fill" cx="186.10" cy="210.00" r="1.2"/>
<path d="M180.90 210.00v-21.00" class="stroke"/>
<use x="265.30" y="204.00" xlink:href="#hd"/>
<path d="M268.80 204.00v-21.00" class="stroke"/>
<use x="299.30" y="210.00" xlink:href="#Hd"/>
<circle class="fill" cx="308.00" cy="210.00" r="1.2"/>
<path d="M302.80 210.00v-21.00" class="stroke"/>
<use x="387.20" y="204.00" xlink:href="#hd"/>
<path d="M390.70 204.00v-21.00" class="stroke"/>
<use x="421.20" y="207.00" xlink:href="#Hd"/>
<path d="M424.70 207.00v-21.00" class="stroke"/>
<use x="479.90" y="204.00" xlink:href="#Hd"/>
<path d="M483.40 204.00v-21.00" class="stroke"/>
<use x="555.10" y="210.00" xlink:href="#Hd"/>
<path d="M558.60 210.00v-21.00" class="stroke"/>
<use x="596.30" y="207.00" xlink:href="#Hd"/>
<path d="M599.80 207.00v-21.00" class="stroke"/>
<use x="651.50" y="213.00" xlink:href="#HD"/>
<use x="22.00" y="253.00" xlink:href="#bclef"/>
<use x="37.00" y="265.00" xlink:href="#ft0"/>
<use x="55.50" y="271.00" xlink:href="#hd"/>
<path d="M59.00 271.00v-21.00" class="stroke"/>
<use x="84.80" y="265.00" xlink:href="#hd"/>
<path d="M88.30 265.00v-21.00" class="stroke"/>
<use x="114.00" y="259.00" xlink:href="#hd"/>
<path d="M117.50 259.00v-21.00" class="stroke"/>
<use x="143.40" y="253.00" xlink:href="#hd"/>
<path d="M139.90 253.00v21.00" class="stroke"/>
<use x="177.40" y="265.00" xlink:href="#hd"/>
<path d="M180.90 265.00v-21.00" class="stroke"/>
<use x="206.60" y="259.00" xlink:href="#hd"/>
<path d="M210.10 259.00v-21.00" class="stroke"/>
<use x="236.10" y="253.00" xlink:href="#hd"/>
<path d="M232.60 253.00v21.00" class="stroke"/>
<use x="265.30" y="247.00" xlink:href="#hd"/>
<path d="M261.80 247.00v21.00" class="stroke"/>
<use x="299.30" y="271.00" xlink:href="#hd"/>
<path d="M302.80 271.00v-21.00" class="stroke"/>
<use x="328.50" y="265.00" xlink:href="#hd"/>
<path d="M332.00 265.00v-21.00" class="stroke"/>
<use x="357.80" y="259.00" xlink:href="#hd"/>
<path d="M361.30 259.00v-21.00" class="stroke"/>
<use x="387.20" y="253.00" xlink:href="#hd"/>
<path d="M383.70 253.00v21.00" class="stroke"/>
<use x="421.20" y="268.00" xlink:href="#hd"/>
<path d="M424.70 268.00v-21.00" class="stroke"/>
<use x="450.40" y="262.00" xlink:href="#hd"/>
<path d="M453.90 262.00v-21.00" class="stroke"/>
<use x="479.90" y="256.00" xlink:href="#hd"/>
<path d="M476.40 256.00v21.00" class="stroke"/>
<use x="509.10" y="250.00" xlink:href="#hd"/>
<path d="M505.60 250.00v21.00" class="stroke"/>
<use x="556.10" y="277.00" xlink:href="#hl1"/>
<use x="556.10" y="241.00" xlink:href="#hl1"/>
<use x="556.10" y="280.00" xlink:href="#HD"/>
<use x="556.10" y="259.00" xlink:href="#HD"/>
<use x="556.10" y="253.00" xlink:href="#HD"/>
<use x="556.10" y="247.00" xlink:href="#HD"/>
<use x="556.10" y="241.00" xlink:href="#HD"/>
<use x="651.50" y="277.00" xlink:href="#hl1"/>
<use x="651.50" y="241.00" xlink:href="#hl1"/>
<use x="651.50" y="280.00" xlink:href="#HD"/>
<use x="651.50" y="259.00" xlink:href="#HD"/>
<use x="651.50" y="253.00" xlink:href="#HD"/>
<use x="651.50" y="247.00" xlink:href="#HD"/>
<use x="651.50" y="241.00" xlink:href="#HD"/>
<g transform="rotate(270)">
<use x="-283.00" y="542.60" xlink:href="#ltr"/>
<use x="-277.00" y="542.60" xlink:href="#ltr"/>
<use x="-271.00" y="542.60" xlink:href="#ltr"/>
<use x="-265.00" y="542.60" xlink:href="#ltr"/>
<use x="-259.00" y="542.60" xlink:href="#ltr"/>
<use x="-253.00" y="542.60" xlink:href="#ltr"/>
<use x="-247.00" y="542.60" xlink:href="#ltr"/>
<use x="-241.00" y="542.60" xlink:href="#ltr"/>
</g>
<g transform="rotate(270)">
<use x="-283.00" y="638.00" xlink:href="#ltr"/>
<use x="-277.00" y="638.00" xlink:href="#ltr"/>
<use x="-271.00" y="638.00" xlink:href="#ltr"/>
<use x="-265.00" y="638.00" xlink:href="#ltr"/>
<use x="-259.00" y="638.00" xlink:href="#ltr"/>
<use x="-253.00" y="638.00" xlink:href="#ltr"/>
<use x="-247.00" y="638.00" xlink:href="#ltr"/>
<use x="-241.00" y="638.00" xlink:href="#ltr"/>
</g>
</g>
<g stroke-width="0.70" style="font:italic 11.00px Times">
<path class="stroke" stroke-width="1"
	d="M10.00 399.00v-82.00"/>
<g transform="translate(10.00,317.00) scale(1,0.82)">
	<use xlink:href="#brace"/>
</g>
<path class="stroke" stroke-width="1"
	d="M233.50 341.00v-24.00"/>
<path class="stroke" stroke-width="1"
	d="M233.50 399.00v-24.00"/>
<path class="stroke" stroke-width="1"
	d="M380.30 341.00v-24.00"/>
<path class="stroke" stroke-width="1"
	d="M380.30 399.00v-24.00"/>
<path class="stroke" stroke-width="1"
	d="M592.50 341.00v-24.00"/>
<path class="stroke" stroke-width="1"
	d="M592.50 399.00v-24.00"/>
<path class="stroke" stroke-width="1"
	d="M691.60 341.00v-24.00"/>
<path class="stroke" stroke-width="1"
	d="M691.60 399.00v-24.00"/>
<path d="m10.00 341.00
	h681.60
	M10.00 335.00
	h681.60
	M10.00 329.00
	h681.60
	M10.00 323.00
	h681.60
	M10.00 317.00
	h681.60
	" class="stroke"/>
<path d="m10.00 399.00
	h681.60
	M10.00 393.00
	h681.60
	M10.00 387.00
	h681.60
	M10.00 381.00
	h681.60
	M10.00 375.00
	h681.60
	" class="stroke"/>
</g>
<g stroke-width="0.70" style="font:bold 13.00px Times">
<text x="62.50" y="312.40">vi<tspan
	 style="font:italic 11.00px Times">m⁷</tspan></text>
</g>
<g stroke-width="0.70" style="font:bold 13.00px Times">
<text x="251.40" y="304.40">iii<tspan
	 style="font:italic 11.00px Times">m⁷</tspan></text>
</g>
<g stroke-width="0.70" style="font:bold 13.00px Times">
<text x="390.80" y="310.40">vi<tspan
	 style="font:italic 11.00px Times">m⁷²</tspan></text>
</g>
<g stroke-width="0.70" style="font:bold 13.00px Times">
<text x="610.30" y="312.40">vi<tspan
	 style="font:italic 11.00px Times">m⁷</tspan></text>
</g>
<g stroke-width="0.70" style="font:italic 11.00px Times">
<use x="22.00" y="335.00" xlink:href="#tclef"/>
<use x="37.00" y="329.00" xlink:href="#ft0"/>
<use x="70.50" y="344.00" xlink:href="#Hd"/>
<path d="M74.00 344.00v-21.00" class="stroke"/>
<use x="144.60" y="344.00" xlink:href="#hd"/>
<path d="M148.10 344.00v-21.00" class="stroke"/>
<use x="196.90" y="344.00" xlink:href="#hd"/>
<path d="M200.40 344.00v-21.00" class="stroke"/>
<use x="259.40" y="332.00" xlink:href="#Hd"/>
<circle class="fill" cx="268.10" cy="332.00" r="1.2"/>
<path d="M262.90 332.00v-21.00" class="stroke"/>
<use x="343.70" y="335.00" xlink:href="#hd"/>
<path d="M347.20 335.00v-21.00" class="stroke"/>
<use x="398.80" y="338.00" xlink:href="#Hd"/>
<path d="M402.30 338.00v-21.00" class="stroke"/>
<use x="503.50" y="341.00" xlink:href="#Hd"/>
<path d="M507.00 341.00v-21.00" class="stroke"/>
<use x="619.30" y="344.00" xlink:href="#HD"/>
<use x="619.30" y="323.00" xlink:href="#HD"/>
<use x="22.00" y="381.00" xlink:href="#bclef"/>
<use x="37.00" y="393.00" xlink:href="#ft0"/>
<use x="71.50" y="405.00" xlink:href="#hl1"/>
<use x="71.50" y="369.00" xlink:href="#hl1"/>
<use x="71.50" y="408.00" xlink:href="#HD"/>
<use x="71.50" y="387.00" xlink:href="#HD"/>
<use x="71.50" y="381.00" xlink:href="#HD"/>
<use x="71.50" y="375.00" xlink:href="#HD"/>
<use x="71.50" y="369.00" xlink:href="#HD"/>
<use x="260.40" y="405.00" xlink:href="#hl1"/>
<use x="260.40" y="411.00" xlink:href="#hl1"/>
<use x="260.40" y="417.00" xlink:href="#hl1"/>
<use x="260.40" y="417.00" xlink:href="#HD"/>
<use x="260.40" y="396.00" xlink:href="#HD"/>
<use x="260.40" y="390.00" xlink:href="#HD"/>
<use x="260.40" y="384.00" xlink:href="#HD"/>
<use x="260.40" y="378.00" xlink:href="#HD"/>
<use x="398.80" y="387.00" xlink:href="#hd"/>
<path d="M402.30 387.00v-21.00" class="stroke"/>
<use x="451.20" y="381.00" xlink:href="#hd"/>
<path d="M447.70 381.00v21.00" class="stroke"/>
<use x="503.50" y="375.00" xlink:href="#hd"/>
<path d="M500.00 375.00v21.00" class="stroke"/>
<defs>
<path id="hl" class="stroke" d="m-6 0h12"/>
</defs>
<use x="555.80" y="369.00" xlink:href="#hl"/>
<use x="555.80" y="369.00" xlink:href="#hd"/>
<path d="M552.30 369.00v21.00" class="stroke"/>
<use x="619.30" y="405.00" xlink:href="#hl1"/>
<use x="619.30" y="369.00" xlink:href="#hl1"/>
<use x="619.30" y="408.00" xlink:href="#HD"/>
<use x="619.30" y="387.00" xlink:href="#HD"/>
<use x="619.30" y="381.00" xlink:href="#HD"/>
<use x="619.30" y="375.00" xlink:href="#HD"/>
<use x="619.30" y="369.00" xlink:href="#HD"/>
<g transform="rotate(270)">
<use x="-411.00" y="58.00" xlink:href="#ltr"/>
<use x="-405.00" y="58.00" xlink:href="#ltr"/>
<use x="-399.00" y="58.00" xlink:href="#ltr"/>
<use x="-393.00" y="58.00" xlink:href="#ltr"/>
<use x="-387.00" y="58.00" xlink:href="#ltr"/>
<use x="-381.00" y="58.00" xlink:href="#ltr"/>
<use x="-375.00" y="58.00" xlink:href="#ltr"/>
<use x="-369.00" y="58.00" xlink:href="#ltr"/>
</g>
<g transform="rotate(270)">
<use x="-420.00" y="246.90" xlink:href="#ltr"/>
<use x="-414.00" y="246.90" xlink:href="#ltr"/>
<use x="-408.00" y="246.90" xlink:href="#ltr"/>
<use x="-402.00" y="246.90" xlink:href="#ltr"/>
<use x="-396.00" y="246.90" xlink:href="#ltr"/>
<use x="-390.00" y="246.90" xlink:href="#ltr"/>
<use x="-384.00" y="246.90" xlink:href="#ltr"/>
<use x="-378.00" y="246.90" xlink:href="#ltr"/>
</g>
<g transform="rotate(270)">
<use x="-411.00" y="605.80" xlink:href="#ltr"/>
<use x="-405.00" y="605.80" xlink:href="#ltr"/>
<use x="-399.00" y="605.80" xlink:href="#ltr"/>
<use x="-393.00" y="605.80" xlink:href="#ltr"/>
<use x="-387.00" y="605.80" xlink:href="#ltr"/>
<use x="-381.00" y="605.80" xlink:href="#ltr"/>
<use x="-375.00" y="605.80" xlink:href="#ltr"/>
<use x="-369.00" y="605.80" xlink:href="#ltr"/>
</g>
</g>
</svg>
