<?xml version="1.0" standalone="no"?>
<!DOCTYPE svg PUBLIC "-//W3C//DTD SVG 1.1//EN"
	"http://www.w3.org/Graphics/SVG/1.1/DTD/svg11.dtd">
<svg xmlns="http://www.w3.org/2000/svg" version="1.1"
	xmlns:xlink="http://www.w3.org/1999/xlink"
	color="black"
	width="701.60px" height="608.20px" viewBox="0 0 701.60 608.20" preserveAspectRatio="xMidYMid meet">
<style type="text/css">
.fill {fill: currentColor}
.stroke {stroke: currentColor; fill: none}
text{white-space: pre}
</style>
<title>/tmp/reharm_hymnal_L7/christ_returneth.abc (1) tune 1</title>
<!-- Creator: abcm2ps-8.14.11 -->
<!-- CreationDate: Apr 24, 2026 15:32 -->
<!-- CommandLine: /tmp/reharm_hymnal_L7/christ_returneth.abc -g -O /tmp/reharm_hymnal_L7/christ_returneth -->
<g stroke-width="0.70">
<!-- title: 047. Christ Returneth -->
</g>
<g stroke-width="0.70" style="font:20.00px Times">
<text x="350.80" y="22.00" text-anchor="middle">047. Christ Returneth</text>
</g>
<g stroke-width="0.70" style="font:20.00px Times">
<path class="stroke" stroke-width="1"
	d="M10.00 143.00v-82.00"/>
<defs>
<path id="brace" class="fill" d="m-2.5 101
	c-4.5 -4.6 -7.5 -12.2 -4.4 -26.8
	3.5 -14.3 3.2 -21.7 -2.1 -24.2
	7.4 2.4 7.3 14.2 3.5 29.5
	-2.7 9.5 -1.5 16.2 3 21.5
	M-2.5 1c-4.5 4.6 -7.5 12.2 -4.4 26.8
	c3.5 14.3 3.2 21.7 -2.1 24.2
	7.4 -2.4 7.3 -14.2 3.5 -29.5
	-2.7 -9.5 -1.5 -16.2 3 -21.5"/>
</defs>
<g transform="translate(10.00,61.00) scale(1,0.82)">
	<use xlink:href="#brace"/>
</g>
<path class="stroke" stroke-width="1"
	d="M173.50 85.00v-24.00"/>
<path class="stroke" stroke-width="1"
	d="M173.50 143.00v-24.00"/>
<path class="stroke" stroke-width="1"
	d="M278.10 85.00v-24.00"/>
<path class="stroke" stroke-width="1"
	d="M278.10 143.00v-24.00"/>
<path class="stroke" stroke-width="1"
	d="M384.60 85.00v-24.00"/>
<path class="stroke" stroke-width="1"
	d="M384.60 143.00v-24.00"/>
<path class="stroke" stroke-width="1"
	d="M491.10 85.00v-24.00"/>
<path class="stroke" stroke-width="1"
	d="M491.10 143.00v-24.00"/>
<path class="stroke" stroke-width="1"
	d="M597.00 85.00v-24.00"/>
<path class="stroke" stroke-width="1"
	d="M597.00 143.00v-24.00"/>
<path class="stroke" stroke-width="1"
	d="M691.60 85.00v-24.00"/>
<path class="stroke" stroke-width="1"
	d="M691.60 143.00v-24.00"/>
<path d="m10.00 85.00
	h681.60
	M10.00 79.00
	h681.60
	M10.00 73.00
	h681.60
	M10.00 67.00
	h681.60
	M10.00 61.00
	h681.60
	" class="stroke"/>
<path d="m10.00 143.00
	h681.60
	M10.00 137.00
	h681.60
	M10.00 131.00
	h681.60
	M10.00 125.00
	h681.60
	M10.00 119.00
	h681.60
	" class="stroke"/>
</g>
<g stroke-width="0.70" style="font:bold 13.00px Times">
<text x="84.00" y="54.40">vi<tspan
	 style="font:italic 11.00px Times">m⁷</tspan></text>
</g>
<g stroke-width="0.70" style="font:bold 13.00px Times">
<text x="192.60" y="48.40">V<tspan
	 style="font:italic 11.00px Times">⁷</tspan></text>
</g>
<g stroke-width="0.70" style="font:bold 13.00px Times">
<text x="295.10" y="56.40">vi<tspan
	 style="font:italic 11.00px Times">m⁷</tspan></text>
</g>
<g stroke-width="0.70" style="font:bold 13.00px Times">
<text x="403.70" y="56.40">V<tspan
	 style="font:italic 11.00px Times">⁷</tspan></text>
</g>
<g stroke-width="0.70" style="font:bold 13.00px Times">
<text x="508.10" y="48.40">vi<tspan
	 style="font:italic 11.00px Times">m⁷</tspan></text>
</g>
<g stroke-width="0.70" style="font:bold 13.00px Times">
<text x="603.60" y="56.40">V<tspan
	 style="font:italic 11.00px Times">⁷</tspan></text>
</g>
<g stroke-width="0.70" style="font:italic 11.00px Times">
<defs>
<path id="utclef" class="fill" d="m-50 -90
	c-72 -41 -72 -158 52 -188
	150 -10 220 188 90 256
	-114 52 -275 0 -293 -136
	-15 -181 93 -229 220 -334
	88 -87 79 -133 62 -210
	-51 33 -94 105 -89 186
	17 267 36 374 49 574
	6 96 -19 134 -77 135
	-80 1 -126 -93 -61 -133
	85 -41 133 101 31 105
	23 17 92 37 90 -92
	-10 -223 -39 -342 -50 -617
	0 -90 0 -162 96 -232
	56 72 63 230 22 289
	-74 106 -257 168 -255 316
	9 153 148 185 252 133
	86 -65 29 -192 -80 -176
	-71 12 -105 67 -59 124"/>
<use id="tclef" transform="translate(0,6) scale(0.045)"
	xlink:href="#utclef"/>
</defs>
<use x="22.00" y="79.00" xlink:href="#tclef"/>
<defs>
<path id="usharp" class="fill" d="
	m136 -702
	v890
	h32
	v-890
	m128 840
	h32
	v-888
	h-32
	m-232 286
	v116
	l338 -96
	v-116
	m-338 442
	v116
	l338 -98
	v-114"/>
<use id="sh0" transform="translate(-4,5) scale(0.018)"
	xlink:href="#usharp"/>
</defs>
<use x="37.00" y="61.00" xlink:href="#sh0"/>
<use x="42.50" y="70.00" xlink:href="#sh0"/>
<g style="font:bold 16px serif"
	transform="translate(58.50,84.50) scale(1.2,1)">
	<text text-anchor="middle">4</text>
	<text y="-12" text-anchor="middle">4</text>
</g>
<defs>
<ellipse id="hd" rx="4.1" ry="2.9"
	transform="rotate(-20)" class="fill"/>
</defs>
<use x="92.00" y="88.00" xlink:href="#hd"/>
<path d="M95.50 88.00v-21.00" class="stroke"/>
<use x="113.60" y="82.00" xlink:href="#hd"/>
<path d="M117.10 82.00v-21.00" class="stroke"/>
<use x="135.30" y="85.00" xlink:href="#hd"/>
<path d="M138.80 85.00v-21.00" class="stroke"/>
<use x="156.90" y="88.00" xlink:href="#hd"/>
<path d="M160.40 88.00v-21.00" class="stroke"/>
<defs>
<path id="Hd" class="fill" d="m3 -1.6
	c-1 -1.8 -7 1.4 -6 3.2
	1 1.8 7 -1.4 6 -3.2
	m0.5 -0.3
	c2 3.8 -5 7.6 -7 3.8
	-2 -3.8 5 -7.6 7 -3.8"/>
</defs>
<use x="198.50" y="76.00" xlink:href="#Hd"/>
<path d="M202.00 76.00v-21.00" class="stroke"/>
<use x="228.40" y="73.00" xlink:href="#hd"/>
<circle class="fill" cx="236.10" cy="70.00" r="1.2"/>
<path d="M231.90 73.00v-21.00" class="stroke"/>
<path class="fill"
	d="M231.90 52.00c0.6 5.6 9.6 9 5.6 18.4
	1.6 -6 -1.3 -11.6 -5.6 -12.8
"/>
<use x="248.00" y="76.00" xlink:href="#hd"/>
<path d="M251.50 76.00v-22.00" class="stroke"/>
<path class="fill"
	d="M251.50 54.00c0.9 3.7 9.1 6.4 6 12.4
	1 -5.4 -4.2 -8.4 -6 -8.4
M251.50 59.40c0.9 3.7 9.1 6.4 6 12.4
	1 -5.4 -4.2 -8.4 -6 -8.4
"/>
<use x="261.50" y="82.00" xlink:href="#hd"/>
<path d="M265.00 82.00v-21.00" class="stroke"/>
<use x="303.10" y="85.00" xlink:href="#hd"/>
<path d="M306.60 85.00v-21.00" class="stroke"/>
<use x="324.70" y="88.00" xlink:href="#hd"/>
<path d="M328.20 88.00v-21.00" class="stroke"/>
<use x="346.40" y="82.00" xlink:href="#hd"/>
<path d="M349.90 82.00v-21.00" class="stroke"/>
<use x="368.00" y="85.00" xlink:href="#hd"/>
<path d="M371.50 85.00v-21.00" class="stroke"/>
<defs>
<path id="r4" class="fill" d="m-1 -8.5
	l3.6 5.1 -2.1 5.2 2.2 4.3
	c-2.6 -2.3 -5.1 0 -2.4 2.6
	-4.8 -3 -1.5 -6.9 1.4 -4.1
	l-3.1 -4.5 1.9 -5.1 -1.5 -3.5"/>
</defs>
<use x="409.60" y="73.00" xlink:href="#r4"/>
<use x="431.20" y="85.00" xlink:href="#hd"/>
<path d="M434.70 85.00v-21.00" class="stroke"/>
<use x="452.90" y="82.00" xlink:href="#hd"/>
<path d="M456.40 82.00v-21.00" class="stroke"/>
<use x="474.50" y="82.00" xlink:href="#hd"/>
<path d="M478.00 82.00v-21.00" class="stroke"/>
<use x="516.10" y="76.00" xlink:href="#hd"/>
<path d="M519.60 76.00v-21.00" class="stroke"/>
<use x="538.30" y="67.00" xlink:href="#hd"/>
<circle class="fill" cx="546.00" cy="64.00" r="1.2"/>
<path d="M534.80 67.00v21.00" class="stroke"/>
<use x="564.40" y="64.00" xlink:href="#hd"/>
<path d="M560.90 64.00v21.00" class="stroke"/>
<path class="fill"
	d="M560.90 85.00c0.6 -5.6 9.6 -9 5.6 -18.4
	1.6 6 -1.3 11.6 -5.6 12.8
"/>
<use x="580.40" y="67.00" xlink:href="#hd"/>
<path d="M576.90 67.00v21.00" class="stroke"/>
<use x="609.50" y="70.00" xlink:href="#hd"/>
<path d="M606.00 70.00v21.00" class="stroke"/>
<use x="631.10" y="67.00" xlink:href="#hd"/>
<path d="M627.60 67.00v21.00" class="stroke"/>
<use x="653.40" y="73.00" xlink:href="#hd"/>
<path d="M649.90 73.00v21.00" class="stroke"/>
<use x="675.00" y="73.00" xlink:href="#hd"/>
<path d="M671.50 73.00v21.00" class="stroke"/>
<defs>
<path id="ubclef" class="fill" d="m-200 -87
	c124 -35 222 -78 254 -236
	43 -228 -167 -246 -192 -103
	59 -80 157 22 92 78
	-62 47 -115 -22 -106 -88
	21 -141 270 -136 274 52
	-1 175 -106 264 -322 297
	m357 -250
	c0 -36 51 -34 51 0
	0 37 -51 36 -51 0
	m-2 -129
	c0 -36 51 -34 51 0
	0 38 -51 37 -51 0"/>
<use id="bclef" transform="translate(0,18) scale(0.045)"
	xlink:href="#ubclef"/>
</defs>
<use x="22.00" y="125.00" xlink:href="#bclef"/>
<use x="37.00" y="125.00" xlink:href="#sh0"/>
<use x="42.50" y="134.00" xlink:href="#sh0"/>
<g style="font:bold 16px serif"
	transform="translate(58.50,142.50) scale(1.2,1)">
	<text text-anchor="middle">4</text>
	<text y="-12" text-anchor="middle">4</text>
</g>
<defs>
<path id="hl1" class="stroke" d="m-7 0h14"/>
</defs>
<use x="93.00" y="149.00" xlink:href="#hl1"/>
<use x="93.00" y="155.00" xlink:href="#hl1"/>
<defs>
<path id="HD" class="fill" d="m-2.7 -1.4
	c1.5 -2.8 6.9 0 5.3 2.7
	-1.5 2.8 -6.9 0 -5.3 -2.7
	m8.3 1.4
	c0 -1.5 -2.2 -3 -5.6 -3
	-3.4 0 -5.6 1.5 -5.6 3
	0 1.5 2.2 3 5.6 3
	3.4 0 5.6 -1.5 5.6 -3"/>
</defs>
<use x="93.00" y="158.00" xlink:href="#HD"/>
<use x="93.00" y="137.00" xlink:href="#HD"/>
<use x="93.00" y="131.00" xlink:href="#HD"/>
<use x="93.00" y="125.00" xlink:href="#HD"/>
<use x="93.00" y="119.00" xlink:href="#HD"/>
<use x="199.50" y="149.00" xlink:href="#hl1"/>
<use x="199.50" y="155.00" xlink:href="#hl1"/>
<use x="199.50" y="161.00" xlink:href="#hl1"/>
<use x="199.50" y="161.00" xlink:href="#HD"/>
<use x="199.50" y="140.00" xlink:href="#HD"/>
<use x="199.50" y="134.00" xlink:href="#HD"/>
<use x="199.50" y="128.00" xlink:href="#HD"/>
<use x="199.50" y="122.00" xlink:href="#HD"/>
<use x="304.10" y="149.00" xlink:href="#hl1"/>
<use x="304.10" y="155.00" xlink:href="#hl1"/>
<use x="304.10" y="158.00" xlink:href="#HD"/>
<use x="304.10" y="137.00" xlink:href="#HD"/>
<use x="304.10" y="131.00" xlink:href="#HD"/>
<use x="304.10" y="125.00" xlink:href="#HD"/>
<use x="304.10" y="119.00" xlink:href="#HD"/>
<use x="410.60" y="149.00" xlink:href="#hl1"/>
<use x="410.60" y="155.00" xlink:href="#hl1"/>
<use x="410.60" y="161.00" xlink:href="#hl1"/>
<use x="410.60" y="161.00" xlink:href="#HD"/>
<use x="410.60" y="140.00" xlink:href="#HD"/>
<use x="410.60" y="134.00" xlink:href="#HD"/>
<use x="410.60" y="128.00" xlink:href="#HD"/>
<use x="410.60" y="122.00" xlink:href="#HD"/>
<use x="517.10" y="149.00" xlink:href="#hl1"/>
<use x="517.10" y="155.00" xlink:href="#hl1"/>
<use x="517.10" y="158.00" xlink:href="#HD"/>
<use x="517.10" y="137.00" xlink:href="#HD"/>
<use x="517.10" y="131.00" xlink:href="#HD"/>
<use x="517.10" y="125.00" xlink:href="#HD"/>
<use x="517.10" y="119.00" xlink:href="#HD"/>
<use x="609.50" y="140.00" xlink:href="#hd"/>
<path d="M613.00 140.00v-21.00" class="stroke"/>
<use x="631.10" y="134.00" xlink:href="#hd"/>
<path d="M634.60 134.00v-21.00" class="stroke"/>
<use x="653.40" y="128.00" xlink:href="#hd"/>
<path d="M649.90 128.00v21.00" class="stroke"/>
<use x="675.00" y="122.00" xlink:href="#hd"/>
<path d="M671.50 122.00v21.00" class="stroke"/>
<defs>
<path id="ltr" class="fill"
    d="m0 -0.4c2 -1.5 3.4 -1.9 3.9 0.4
	c0.2 0.8 0.7 0.7 2.1 -0.4
	v0.8c-2 1.5 -3.4 1.9 -3.9 -0.4
	c-0.2 -0.8 -0.7 -0.7 -2.1 0.4z"/>
</defs>
<g transform="rotate(270)">
<use x="-161.00" y="79.50" xlink:href="#ltr"/>
<use x="-155.00" y="79.50" xlink:href="#ltr"/>
<use x="-149.00" y="79.50" xlink:href="#ltr"/>
<use x="-143.00" y="79.50" xlink:href="#ltr"/>
<use x="-137.00" y="79.50" xlink:href="#ltr"/>
<use x="-131.00" y="79.50" xlink:href="#ltr"/>
<use x="-125.00" y="79.50" xlink:href="#ltr"/>
<use x="-119.00" y="79.50" xlink:href="#ltr"/>
</g>
<g transform="rotate(270)">
<use x="-164.00" y="186.00" xlink:href="#ltr"/>
<use x="-158.00" y="186.00" xlink:href="#ltr"/>
<use x="-152.00" y="186.00" xlink:href="#ltr"/>
<use x="-146.00" y="186.00" xlink:href="#ltr"/>
<use x="-140.00" y="186.00" xlink:href="#ltr"/>
<use x="-134.00" y="186.00" xlink:href="#ltr"/>
<use x="-128.00" y="186.00" xlink:href="#ltr"/>
<use x="-122.00" y="186.00" xlink:href="#ltr"/>
</g>
<g transform="rotate(270)">
<use x="-161.00" y="290.60" xlink:href="#ltr"/>
<use x="-155.00" y="290.60" xlink:href="#ltr"/>
<use x="-149.00" y="290.60" xlink:href="#ltr"/>
<use x="-143.00" y="290.60" xlink:href="#ltr"/>
<use x="-137.00" y="290.60" xlink:href="#ltr"/>
<use x="-131.00" y="290.60" xlink:href="#ltr"/>
<use x="-125.00" y="290.60" xlink:href="#ltr"/>
<use x="-119.00" y="290.60" xlink:href="#ltr"/>
</g>
<g transform="rotate(270)">
<use x="-164.00" y="397.10" xlink:href="#ltr"/>
<use x="-158.00" y="397.10" xlink:href="#ltr"/>
<use x="-152.00" y="397.10" xlink:href="#ltr"/>
<use x="-146.00" y="397.10" xlink:href="#ltr"/>
<use x="-140.00" y="397.10" xlink:href="#ltr"/>
<use x="-134.00" y="397.10" xlink:href="#ltr"/>
<use x="-128.00" y="397.10" xlink:href="#ltr"/>
<use x="-122.00" y="397.10" xlink:href="#ltr"/>
</g>
<g transform="rotate(270)">
<use x="-161.00" y="503.60" xlink:href="#ltr"/>
<use x="-155.00" y="503.60" xlink:href="#ltr"/>
<use x="-149.00" y="503.60" xlink:href="#ltr"/>
<use x="-143.00" y="503.60" xlink:href="#ltr"/>
<use x="-137.00" y="503.60" xlink:href="#ltr"/>
<use x="-131.00" y="503.60" xlink:href="#ltr"/>
<use x="-125.00" y="503.60" xlink:href="#ltr"/>
<use x="-119.00" y="503.60" xlink:href="#ltr"/>
</g>
</g>
<g stroke-width="0.70" style="font:italic 11.00px Times">
<path class="stroke" stroke-width="1"
	d="M10.00 276.40v-84.00"/>
<g transform="translate(10.00,192.40) scale(1,0.84)">
	<use xlink:href="#brace"/>
</g>
<path class="stroke" stroke-width="1"
	d="M144.70 216.40v-24.00"/>
<path class="stroke" stroke-width="1"
	d="M144.70 276.40v-24.00"/>
<path class="stroke" stroke-width="1"
	d="M237.80 216.40v-24.00"/>
<path class="stroke" stroke-width="1"
	d="M237.80 276.40v-24.00"/>
<path class="stroke" stroke-width="1"
	d="M354.70 216.40v-24.00"/>
<path class="stroke" stroke-width="1"
	d="M354.70 276.40v-24.00"/>
<path class="stroke" stroke-width="1"
	d="M494.50 216.40v-24.00"/>
<path class="stroke" stroke-width="1"
	d="M494.50 276.40v-24.00"/>
<path class="stroke" stroke-width="1"
	d="M594.80 216.40v-24.00"/>
<path class="stroke" stroke-width="1"
	d="M594.80 276.40v-24.00"/>
<path class="stroke" stroke-width="1"
	d="M691.60 216.40v-24.00"/>
<path class="stroke" stroke-width="1"
	d="M691.60 276.40v-24.00"/>
<path d="m10.00 216.40
	h681.60
	M10.00 210.40
	h681.60
	M10.00 204.40
	h681.60
	M10.00 198.40
	h681.60
	M10.00 192.40
	h681.60
	" class="stroke"/>
<path d="m10.00 276.40
	h681.60
	M10.00 270.40
	h681.60
	M10.00 264.40
	h681.60
	M10.00 258.40
	h681.60
	M10.00 252.40
	h681.60
	" class="stroke"/>
</g>
<g stroke-width="0.70" style="font:bold 13.00px Times">
<text x="52.50" y="179.80">IV<tspan
	 style="font:italic 11.00px Times">Δ⁷</tspan></text>
</g>
<g stroke-width="0.70" style="font:bold 13.00px Times">
<text x="161.70" y="176.80">iii<tspan
	 style="font:italic 11.00px Times">m⁷</tspan></text>
</g>
<g stroke-width="0.70" style="font:bold 13.00px Times">
<text x="254.80" y="187.80">vi<tspan
	 style="font:italic 11.00px Times">m⁷</tspan></text>
</g>
<g stroke-width="0.70" style="font:bold 13.00px Times">
<text x="371.90" y="183.80">V<tspan
	 style="font:italic 11.00px Times">⁷¹</tspan></text>
</g>
<g stroke-width="0.70" style="font:bold 13.00px Times">
<text x="510.50" y="187.80">vi<tspan
	 style="font:italic 11.00px Times">m⁷</tspan></text>
</g>
<g stroke-width="0.70" style="font:bold 13.00px Times">
<text x="601.40" y="185.80">V<tspan
	 style="font:italic 11.00px Times">⁷</tspan></text>
</g>
<g stroke-width="0.70" style="font:italic 11.00px Times">
<use x="22.00" y="210.40" xlink:href="#tclef"/>
<use x="37.00" y="192.40" xlink:href="#sh0"/>
<use x="42.50" y="201.40" xlink:href="#sh0"/>
<use x="60.50" y="207.40" xlink:href="#hd"/>
<path d="M64.00 207.40v-21.00" class="stroke"/>
<use x="82.80" y="204.40" xlink:href="#r4"/>
<use x="105.00" y="207.40" xlink:href="#hd"/>
<path d="M108.50 207.40v-21.00" class="stroke"/>
<use x="127.80" y="207.40" xlink:href="#hd"/>
<path d="M131.30 207.40v-21.00" class="stroke"/>
<use x="169.70" y="204.40" xlink:href="#hd"/>
<path d="M173.20 204.40v-21.00" class="stroke"/>
<use x="192.50" y="201.40" xlink:href="#hd"/>
<path d="M189.00 201.40v21.00" class="stroke"/>
<use x="214.90" y="198.40" xlink:href="#Hd"/>
<path d="M211.40 198.40v21.00" class="stroke"/>
<use x="262.80" y="201.40" xlink:href="#hd"/>
<circle class="fill" cx="270.50" cy="201.40" r="1.2"/>
<path d="M259.30 201.40v21.00" class="stroke"/>
<path class="fill"
	d="M259.30 222.40c0.6 -5.6 9.6 -9 5.6 -18.4
	1.6 6 -1.3 11.6 -5.6 12.8
"/>
<use x="282.70" y="198.40" xlink:href="#hd"/>
<path d="M279.20 198.40v23.00" class="stroke"/>
<path class="fill"
	d="M279.20 221.40c0.9 -3.7 9.1 -6.4 6 -12.4
	1 5.4 -4.2 8.4 -6 8.4
M279.20 216.00c0.9 -3.7 9.1 -6.4 6 -12.4
	1 5.4 -4.2 8.4 -6 8.4
"/>
<use x="294.80" y="195.40" xlink:href="#hd"/>
<circle class="fill" cx="302.50" cy="195.40" r="1.2"/>
<path d="M291.30 195.40v21.00" class="stroke"/>
<use x="321.50" y="198.40" xlink:href="#hd"/>
<path d="M318.00 198.40v21.00" class="stroke"/>
<path class="fill"
	d="M318.00 219.40c0.6 -5.6 9.6 -9 5.6 -18.4
	1.6 6 -1.3 11.6 -5.6 12.8
"/>
<use x="337.80" y="195.40" xlink:href="#hd"/>
<path d="M334.30 195.40v21.00" class="stroke"/>
<use x="379.70" y="192.40" xlink:href="#hd"/>
<path d="M376.20 192.40v21.00" class="stroke"/>
<use x="402.00" y="198.40" xlink:href="#hd"/>
<path d="M398.50 198.40v21.00" class="stroke"/>
<use x="424.20" y="198.40" xlink:href="#hd"/>
<circle class="fill" cx="431.90" cy="195.40" r="1.2"/>
<path d="M420.70 198.40v21.00" class="stroke"/>
<path class="fill"
	d="M420.70 219.40c0.6 -5.6 9.6 -9 5.6 -18.4
	1.6 6 -1.3 11.6 -5.6 12.8
"/>
<use x="444.10" y="198.40" xlink:href="#hd"/>
<path d="M440.60 198.40v23.00" class="stroke"/>
<path class="fill"
	d="M440.60 221.40c0.9 -3.7 9.1 -6.4 6 -12.4
	1 5.4 -4.2 8.4 -6 8.4
M440.60 216.00c0.9 -3.7 9.1 -6.4 6 -12.4
	1 5.4 -4.2 8.4 -6 8.4
"/>
<use x="456.20" y="198.40" xlink:href="#hd"/>
<circle class="fill" cx="463.90" cy="195.40" r="1.2"/>
<path d="M452.70 198.40v21.00" class="stroke"/>
<use x="518.50" y="201.40" xlink:href="#hd"/>
<path d="M515.00 201.40v21.00" class="stroke"/>
<path class="fill"
	d="M515.00 222.40c0.6 -5.6 9.6 -9 5.6 -18.4
	1.6 6 -1.3 11.6 -5.6 12.8
"/>
<use x="534.80" y="204.40" xlink:href="#hd"/>
<path d="M531.30 204.40v21.00" class="stroke"/>
<use x="555.10" y="207.40" xlink:href="#hd"/>
<path d="M558.60 207.40v-21.00" class="stroke"/>
<use x="577.90" y="198.40" xlink:href="#hd"/>
<path d="M574.40 198.40v21.00" class="stroke"/>
<use x="607.30" y="201.40" xlink:href="#hd"/>
<path d="M603.80 201.40v21.00" class="stroke"/>
<use x="629.60" y="198.40" xlink:href="#Hd"/>
<circle class="fill" cx="638.30" cy="195.40" r="1.2"/>
<path d="M626.10 198.40v21.00" class="stroke"/>
<use x="22.00" y="258.40" xlink:href="#bclef"/>
<use x="37.00" y="258.40" xlink:href="#sh0"/>
<use x="42.50" y="267.40" xlink:href="#sh0"/>
<use x="60.50" y="276.40" xlink:href="#hd"/>
<path d="M64.00 276.40v-21.00" class="stroke"/>
<use x="82.80" y="270.40" xlink:href="#hd"/>
<path d="M86.30 270.40v-21.00" class="stroke"/>
<use x="105.00" y="264.40" xlink:href="#hd"/>
<path d="M108.50 264.40v-21.00" class="stroke"/>
<use x="127.80" y="258.40" xlink:href="#hd"/>
<path d="M124.30 258.40v21.00" class="stroke"/>
<use x="170.70" y="282.40" xlink:href="#hl1"/>
<use x="170.70" y="288.40" xlink:href="#hl1"/>
<use x="170.70" y="294.40" xlink:href="#hl1"/>
<use x="170.70" y="300.40" xlink:href="#hl1"/>
<use x="170.70" y="300.40" xlink:href="#HD"/>
<use x="170.70" y="279.40" xlink:href="#HD"/>
<use x="170.70" y="273.40" xlink:href="#HD"/>
<use x="170.70" y="267.40" xlink:href="#HD"/>
<use x="170.70" y="261.40" xlink:href="#HD"/>
<use x="263.80" y="282.40" xlink:href="#hl1"/>
<use x="263.80" y="288.40" xlink:href="#hl1"/>
<use x="263.80" y="291.40" xlink:href="#HD"/>
<use x="263.80" y="270.40" xlink:href="#HD"/>
<use x="263.80" y="264.40" xlink:href="#HD"/>
<use x="263.80" y="258.40" xlink:href="#HD"/>
<use x="263.80" y="252.40" xlink:href="#HD"/>
<use x="380.70" y="282.40" xlink:href="#hl1"/>
<use x="380.70" y="288.40" xlink:href="#hl1"/>
<use x="380.70" y="294.40" xlink:href="#hl1"/>
<use x="380.70" y="294.40" xlink:href="#HD"/>
<use x="380.70" y="273.40" xlink:href="#HD"/>
<use x="380.70" y="267.40" xlink:href="#HD"/>
<use x="380.70" y="261.40" xlink:href="#HD"/>
<use x="380.70" y="255.40" xlink:href="#HD"/>
<defs>
<path id="hl" class="stroke" d="m-6 0h12"/>
</defs>
<use x="474.50" y="282.40" xlink:href="#hl"/>
<use x="474.50" y="288.40" xlink:href="#hl"/>
<use x="474.50" y="294.40" xlink:href="#hl"/>
<use x="474.50" y="294.40" xlink:href="#hd"/>
<path d="M478.00 294.40v-58.00" class="stroke"/>
<path class="fill"
	d="M478.00 236.40c0.6 5.6 9.6 9 5.6 18.4
	1.6 -6 -1.3 -11.6 -5.6 -12.8
"/>
<use x="474.50" y="273.40" xlink:href="#hd"/>
<use x="474.50" y="267.40" xlink:href="#hd"/>
<use x="474.50" y="261.40" xlink:href="#hd"/>
<use x="474.50" y="255.40" xlink:href="#hd"/>
<use x="518.50" y="282.40" xlink:href="#hl"/>
<use x="518.50" y="288.40" xlink:href="#hl"/>
<use x="518.50" y="291.40" xlink:href="#Hd"/>
<circle class="fill" cx="527.20" cy="291.40" r="1.2"/>
<circle class="fill" cx="530.70" cy="291.40" r="1.2"/>
<path d="M522.00 291.40v-58.00" class="stroke"/>
<use x="518.50" y="270.40" xlink:href="#Hd"/>
<circle class="fill" cx="527.20" cy="267.40" r="1.2"/>
<circle class="fill" cx="530.70" cy="267.40" r="1.2"/>
<use x="518.50" y="264.40" xlink:href="#Hd"/>
<circle class="fill" cx="527.20" cy="261.40" r="1.2"/>
<circle class="fill" cx="530.70" cy="261.40" r="1.2"/>
<use x="518.50" y="258.40" xlink:href="#Hd"/>
<circle class="fill" cx="527.20" cy="255.40" r="1.2"/>
<circle class="fill" cx="530.70" cy="255.40" r="1.2"/>
<use x="518.50" y="252.40" xlink:href="#Hd"/>
<circle class="fill" cx="527.20" cy="249.40" r="1.2"/>
<circle class="fill" cx="530.70" cy="249.40" r="1.2"/>
<use x="607.30" y="273.40" xlink:href="#hd"/>
<path d="M610.80 273.40v-21.00" class="stroke"/>
<use x="629.60" y="267.40" xlink:href="#hd"/>
<path d="M633.10 267.40v-21.00" class="stroke"/>
<use x="652.40" y="261.40" xlink:href="#hd"/>
<path d="M648.90 261.40v21.00" class="stroke"/>
<use x="674.70" y="255.40" xlink:href="#hd"/>
<path d="M671.20 255.40v21.00" class="stroke"/>
<path class="fill"
	d="M383.20 294.40c11.94 6.08 75.87 6.08 87.82 -0.00
	v0.29c-14.58 7.79 -73.24 7.79 -87.82 -0.29"/>
<path class="fill"
	d="M383.20 273.40c11.94 6.08 75.87 6.08 87.82 -0.00
	v0.29c-14.58 7.79 -73.24 7.79 -87.82 -0.29"/>
<path class="fill"
	d="M383.20 267.40c11.94 6.08 75.87 6.08 87.82 -0.00
	v0.29c-14.58 7.79 -73.24 7.79 -87.82 -0.29"/>
<path class="fill"
	d="M383.20 261.40c11.94 -6.08 75.87 -6.08 87.82 -0.00
	v-0.29c-14.58 -7.79 -73.24 -7.79 -87.82 0.29"/>
<path class="fill"
	d="M383.20 255.40c11.94 -6.08 75.87 -6.08 87.82 -0.00
	v-0.29c-14.58 -7.79 -73.24 -7.79 -87.82 0.29"/>
<g transform="rotate(270)">
<use x="-303.40" y="157.20" xlink:href="#ltr"/>
<use x="-297.40" y="157.20" xlink:href="#ltr"/>
<use x="-291.40" y="157.20" xlink:href="#ltr"/>
<use x="-285.40" y="157.20" xlink:href="#ltr"/>
<use x="-279.40" y="157.20" xlink:href="#ltr"/>
<use x="-273.40" y="157.20" xlink:href="#ltr"/>
<use x="-267.40" y="157.20" xlink:href="#ltr"/>
<use x="-261.40" y="157.20" xlink:href="#ltr"/>
</g>
<g transform="rotate(270)">
<use x="-294.40" y="250.30" xlink:href="#ltr"/>
<use x="-288.40" y="250.30" xlink:href="#ltr"/>
<use x="-282.40" y="250.30" xlink:href="#ltr"/>
<use x="-276.40" y="250.30" xlink:href="#ltr"/>
<use x="-270.40" y="250.30" xlink:href="#ltr"/>
<use x="-264.40" y="250.30" xlink:href="#ltr"/>
<use x="-258.40" y="250.30" xlink:href="#ltr"/>
<use x="-252.40" y="250.30" xlink:href="#ltr"/>
</g>
<g transform="rotate(270)">
<use x="-297.40" y="367.20" xlink:href="#ltr"/>
<use x="-291.40" y="367.20" xlink:href="#ltr"/>
<use x="-285.40" y="367.20" xlink:href="#ltr"/>
<use x="-279.40" y="367.20" xlink:href="#ltr"/>
<use x="-273.40" y="367.20" xlink:href="#ltr"/>
<use x="-267.40" y="367.20" xlink:href="#ltr"/>
<use x="-261.40" y="367.20" xlink:href="#ltr"/>
<use x="-255.40" y="367.20" xlink:href="#ltr"/>
</g>
<g transform="rotate(270)">
<use x="-297.40" y="464.50" xlink:href="#ltr"/>
<use x="-291.40" y="464.50" xlink:href="#ltr"/>
<use x="-285.40" y="464.50" xlink:href="#ltr"/>
<use x="-279.40" y="464.50" xlink:href="#ltr"/>
<use x="-273.40" y="464.50" xlink:href="#ltr"/>
<use x="-267.40" y="464.50" xlink:href="#ltr"/>
<use x="-261.40" y="464.50" xlink:href="#ltr"/>
<use x="-255.40" y="464.50" xlink:href="#ltr"/>
</g>
<g transform="rotate(270)">
<use x="-294.40" y="508.50" xlink:href="#ltr"/>
<use x="-288.40" y="508.50" xlink:href="#ltr"/>
<use x="-282.40" y="508.50" xlink:href="#ltr"/>
<use x="-276.40" y="508.50" xlink:href="#ltr"/>
<use x="-270.40" y="508.50" xlink:href="#ltr"/>
<use x="-264.40" y="508.50" xlink:href="#ltr"/>
<use x="-258.40" y="508.50" xlink:href="#ltr"/>
<use x="-252.40" y="508.50" xlink:href="#ltr"/>
</g>
</g>
<g stroke-width="0.70" style="font:italic 11.00px Times">
<path class="stroke" stroke-width="1"
	d="M10.00 413.80v-82.00"/>
<g transform="translate(10.00,331.80) scale(1,0.82)">
	<use xlink:href="#brace"/>
</g>
<path class="stroke" stroke-width="1"
	d="M168.00 355.80v-24.00"/>
<path class="stroke" stroke-width="1"
	d="M168.00 413.80v-24.00"/>
<path class="stroke" stroke-width="1"
	d="M287.40 355.80v-24.00"/>
<path class="stroke" stroke-width="1"
	d="M287.40 413.80v-24.00"/>
<path class="stroke" stroke-width="1"
	d="M422.70 355.80v-24.00"/>
<path class="stroke" stroke-width="1"
	d="M422.70 413.80v-24.00"/>
<path class="stroke" stroke-width="1"
	d="M579.70 355.80v-24.00"/>
<path class="stroke" stroke-width="1"
	d="M579.70 413.80v-24.00"/>
<path class="stroke" stroke-width="1"
	d="M691.60 355.80v-24.00"/>
<path class="stroke" stroke-width="1"
	d="M691.60 413.80v-24.00"/>
<path d="m10.00 355.80
	h681.60
	M10.00 349.80
	h681.60
	M10.00 343.80
	h681.60
	M10.00 337.80
	h681.60
	M10.00 331.80
	h681.60
	" class="stroke"/>
<path d="m10.00 413.80
	h681.60
	M10.00 407.80
	h681.60
	M10.00 401.80
	h681.60
	M10.00 395.80
	h681.60
	M10.00 389.80
	h681.60
	" class="stroke"/>
</g>
<g stroke-width="0.70" style="font:bold 13.00px Times">
<text x="53.00" y="319.20">IV<tspan
	 style="font:italic 11.00px Times">Δ⁷</tspan></text>
</g>
<g stroke-width="0.70" style="font:bold 13.00px Times">
<text x="172.50" y="319.20">iii<tspan
	 style="font:italic 11.00px Times">m⁷</tspan></text>
</g>
<g stroke-width="0.70" style="font:bold 13.00px Times">
<text x="291.90" y="316.20">ii<tspan
	 style="font:italic 11.00px Times">m⁷</tspan></text>
</g>
<g stroke-width="0.70" style="font:bold 13.00px Times">
<text x="441.90" y="327.20">I<tspan
	 style="font:italic 11.00px Times">Δ⁷</tspan></text>
</g>
<g stroke-width="0.70" style="font:bold 13.00px Times">
<text x="598.00" y="327.20">I<tspan
	 style="font:italic 11.00px Times">Δ⁷</tspan></text>
</g>
<g stroke-width="0.70" style="font:italic 11.00px Times">
<use x="22.00" y="349.80" xlink:href="#tclef"/>
<use x="37.00" y="331.80" xlink:href="#sh0"/>
<use x="42.50" y="340.80" xlink:href="#sh0"/>
<use x="61.00" y="346.80" xlink:href="#Hd"/>
<path d="M64.50 346.80v-21.00" class="stroke"/>
<use x="118.40" y="352.80" xlink:href="#hd"/>
<path d="M121.90 352.80v-21.00" class="stroke"/>
<use x="147.30" y="352.80" xlink:href="#hd"/>
<path d="M150.80 352.80v-21.00" class="stroke"/>
<use x="180.50" y="349.80" xlink:href="#hd"/>
<path d="M184.00 349.80v-21.00" class="stroke"/>
<use x="209.20" y="346.80" xlink:href="#hd"/>
<path d="M212.70 346.80v-21.00" class="stroke"/>
<use x="237.90" y="343.80" xlink:href="#Hd"/>
<path d="M241.40 343.80v-21.00" class="stroke"/>
<use x="299.90" y="343.80" xlink:href="#hd"/>
<path d="M303.40 343.80v-21.00" class="stroke"/>
<use x="328.90" y="337.80" xlink:href="#Hd"/>
<path d="M325.40 337.80v21.00" class="stroke"/>
<use x="386.30" y="337.80" xlink:href="#hd"/>
<circle class="fill" cx="394.00" cy="334.80" r="1.2"/>
<path d="M382.80 337.80v21.00" class="stroke"/>
<path class="fill"
	d="M382.80 358.80c0.6 -5.6 9.6 -9 5.6 -18.4
	1.6 6 -1.3 11.6 -5.6 12.8
"/>
<use x="410.20" y="337.80" xlink:href="#hd"/>
<path d="M406.70 337.80v23.00" class="stroke"/>
<path class="fill"
	d="M406.70 360.80c0.9 -3.7 9.1 -6.4 6 -12.4
	1 5.4 -4.2 8.4 -6 8.4
M406.70 355.40c0.9 -3.7 9.1 -6.4 6 -12.4
	1 5.4 -4.2 8.4 -6 8.4
"/>
<use x="447.70" y="337.80" xlink:href="#hd"/>
<path d="M444.20 337.80v21.00" class="stroke"/>
<use x="476.40" y="340.80" xlink:href="#hd"/>
<path d="M472.90 340.80v21.00" class="stroke"/>
<use x="505.10" y="343.80" xlink:href="#hd"/>
<path d="M501.60 343.80v21.00" class="stroke"/>
<use x="531.10" y="346.80" xlink:href="#Hd"/>
<path d="M534.60 346.80v-21.00" class="stroke"/>
<use x="603.70" y="340.80" xlink:href="#hd"/>
<circle class="fill" cx="611.40" cy="340.80" r="1.2"/>
<path d="M600.20 340.80v21.00" class="stroke"/>
<path class="fill"
	d="M600.20 361.80c0.6 -5.6 9.6 -9 5.6 -18.4
	1.6 6 -1.3 11.6 -5.6 12.8
"/>
<use x="627.60" y="340.80" xlink:href="#hd"/>
<path d="M624.10 340.80v23.00" class="stroke"/>
<path class="fill"
	d="M624.10 363.80c0.9 -3.7 9.1 -6.4 6 -12.4
	1 5.4 -4.2 8.4 -6 8.4
M624.10 358.40c0.9 -3.7 9.1 -6.4 6 -12.4
	1 5.4 -4.2 8.4 -6 8.4
"/>
<use x="642.30" y="337.80" xlink:href="#hd"/>
<path d="M638.80 337.80v21.00" class="stroke"/>
<use x="671.00" y="337.80" xlink:href="#hd"/>
<path d="M667.50 337.80v21.00" class="stroke"/>
<use x="22.00" y="395.80" xlink:href="#bclef"/>
<use x="37.00" y="395.80" xlink:href="#sh0"/>
<use x="42.50" y="404.80" xlink:href="#sh0"/>
<use x="61.00" y="413.80" xlink:href="#hd"/>
<path d="M64.50 413.80v-21.00" class="stroke"/>
<use x="89.70" y="407.80" xlink:href="#hd"/>
<path d="M93.20 407.80v-21.00" class="stroke"/>
<use x="118.40" y="401.80" xlink:href="#hd"/>
<path d="M121.90 401.80v-21.00" class="stroke"/>
<use x="147.30" y="395.80" xlink:href="#hd"/>
<path d="M143.80 395.80v21.00" class="stroke"/>
<use x="180.50" y="416.80" xlink:href="#hd"/>
<path d="M184.00 416.80v-21.00" class="stroke"/>
<use x="209.20" y="410.80" xlink:href="#hd"/>
<path d="M212.70 410.80v-21.00" class="stroke"/>
<use x="237.90" y="404.80" xlink:href="#hd"/>
<path d="M241.40 404.80v-21.00" class="stroke"/>
<use x="266.80" y="398.80" xlink:href="#hd"/>
<path d="M263.30 398.80v21.00" class="stroke"/>
<use x="299.90" y="419.80" xlink:href="#hl"/>
<use x="299.90" y="419.80" xlink:href="#hd"/>
<path d="M303.40 419.80v-21.00" class="stroke"/>
<use x="328.90" y="413.80" xlink:href="#hd"/>
<path d="M332.40 413.80v-21.00" class="stroke"/>
<use x="357.60" y="407.80" xlink:href="#hd"/>
<path d="M361.10 407.80v-21.00" class="stroke"/>
<use x="386.30" y="401.80" xlink:href="#hd"/>
<path d="M389.80 401.80v-21.00" class="stroke"/>
<use x="448.70" y="419.80" xlink:href="#hl1"/>
<use x="448.70" y="425.80" xlink:href="#hl1"/>
<use x="448.70" y="431.80" xlink:href="#hl1"/>
<use x="448.70" y="437.80" xlink:href="#hl1"/>
<use x="448.70" y="443.80" xlink:href="#hl1"/>
<use x="448.70" y="443.80" xlink:href="#HD"/>
<use x="448.70" y="422.80" xlink:href="#HD"/>
<use x="448.70" y="416.80" xlink:href="#HD"/>
<use x="448.70" y="410.80" xlink:href="#HD"/>
<use x="448.70" y="404.80" xlink:href="#HD"/>
<use x="559.00" y="419.80" xlink:href="#hl"/>
<use x="559.00" y="425.80" xlink:href="#hl"/>
<use x="559.00" y="431.80" xlink:href="#hl"/>
<use x="559.00" y="437.80" xlink:href="#hl"/>
<use x="559.00" y="443.80" xlink:href="#hl"/>
<use x="559.00" y="443.80" xlink:href="#hd"/>
<path d="M562.50 443.80v-58.00" class="stroke"/>
<use x="559.00" y="422.80" xlink:href="#hd"/>
<use x="559.00" y="416.80" xlink:href="#hd"/>
<use x="559.00" y="410.80" xlink:href="#hd"/>
<use x="559.00" y="404.80" xlink:href="#hd"/>
<use x="603.70" y="419.80" xlink:href="#hl"/>
<use x="603.70" y="425.80" xlink:href="#hl"/>
<use x="603.70" y="431.80" xlink:href="#hl"/>
<use x="603.70" y="437.80" xlink:href="#hl"/>
<use x="603.70" y="443.80" xlink:href="#hl"/>
<use x="603.70" y="443.80" xlink:href="#Hd"/>
<circle class="fill" cx="612.40" cy="440.80" r="1.2"/>
<path d="M607.20 443.80v-58.00" class="stroke"/>
<use x="603.70" y="422.80" xlink:href="#Hd"/>
<circle class="fill" cx="612.40" cy="422.80" r="1.2"/>
<use x="603.70" y="416.80" xlink:href="#Hd"/>
<circle class="fill" cx="612.40" cy="416.80" r="1.2"/>
<use x="603.70" y="410.80" xlink:href="#Hd"/>
<circle class="fill" cx="612.40" cy="410.80" r="1.2"/>
<use x="603.70" y="404.80" xlink:href="#Hd"/>
<circle class="fill" cx="612.40" cy="404.80" r="1.2"/>
<path class="fill"
	d="M451.20 443.80c13.41 6.38 90.95 6.38 104.36 -0.00
	v0.30c-16.55 8.07 -87.82 8.07 -104.36 -0.30"/>
<path class="fill"
	d="M451.20 422.80c13.41 6.38 90.95 6.38 104.36 -0.00
	v0.30c-16.55 8.07 -87.82 8.07 -104.36 -0.30"/>
<path class="fill"
	d="M451.20 416.80c13.41 6.38 90.95 6.38 104.36 -0.00
	v0.30c-16.55 8.07 -87.82 8.07 -104.36 -0.30"/>
<path class="fill"
	d="M451.20 410.80c13.41 -6.38 90.95 -6.38 104.36 -0.00
	v-0.30c-16.55 -8.07 -87.82 -8.07 -104.36 0.30"/>
<path class="fill"
	d="M451.20 404.80c13.41 -6.38 90.95 -6.38 104.36 -0.00
	v-0.30c-16.55 -8.07 -87.82 -8.07 -104.36 0.30"/>
<g transform="rotate(270)">
<use x="-446.80" y="435.20" xlink:href="#ltr"/>
<use x="-440.80" y="435.20" xlink:href="#ltr"/>
<use x="-434.80" y="435.20" xlink:href="#ltr"/>
<use x="-428.80" y="435.20" xlink:href="#ltr"/>
<use x="-422.80" y="435.20" xlink:href="#ltr"/>
<use x="-416.80" y="435.20" xlink:href="#ltr"/>
<use x="-410.80" y="435.20" xlink:href="#ltr"/>
<use x="-404.80" y="435.20" xlink:href="#ltr"/>
</g>
<g transform="rotate(270)">
<use x="-446.80" y="549.00" xlink:href="#ltr"/>
<use x="-440.80" y="549.00" xlink:href="#ltr"/>
<use x="-434.80" y="549.00" xlink:href="#ltr"/>
<use x="-428.80" y="549.00" xlink:href="#ltr"/>
<use x="-422.80" y="549.00" xlink:href="#ltr"/>
<use x="-416.80" y="549.00" xlink:href="#ltr"/>
<use x="-410.80" y="549.00" xlink:href="#ltr"/>
<use x="-404.80" y="549.00" xlink:href="#ltr"/>
</g>
<g transform="rotate(270)">
<use x="-446.80" y="593.70" xlink:href="#ltr"/>
<use x="-440.80" y="593.70" xlink:href="#ltr"/>
<use x="-434.80" y="593.70" xlink:href="#ltr"/>
<use x="-428.80" y="593.70" xlink:href="#ltr"/>
<use x="-422.80" y="593.70" xlink:href="#ltr"/>
<use x="-416.80" y="593.70" xlink:href="#ltr"/>
<use x="-410.80" y="593.70" xlink:href="#ltr"/>
<use x="-404.80" y="593.70" xlink:href="#ltr"/>
</g>
</g>
<g stroke-width="0.70" style="font:italic 11.00px Times">
<path class="stroke" stroke-width="1"
	d="M10.00 572.20v-82.00"/>
<g transform="translate(10.00,490.20) scale(1,0.82)">
	<use xlink:href="#brace"/>
</g>
<path class="stroke" stroke-width="1"
	d="M242.70 514.20v-24.00"/>
<path class="stroke" stroke-width="1"
	d="M242.70 572.20v-24.00"/>
<path class="stroke" stroke-width="1"
	d="M449.10 514.20v-24.00"/>
<path class="stroke" stroke-width="1"
	d="M449.10 572.20v-24.00"/>
<path class="stroke" stroke-width="1"
	d="M586.30 514.20v-24.00"/>
<path class="stroke" stroke-width="1"
	d="M586.30 572.20v-24.00"/>
<path class="stroke" stroke-width="1"
	d="M691.60 514.20v-24.00"/>
<path class="stroke" stroke-width="1"
	d="M691.60 572.20v-24.00"/>
<path d="m10.00 514.20
	h681.60
	M10.00 508.20
	h681.60
	M10.00 502.20
	h681.60
	M10.00 496.20
	h681.60
	M10.00 490.20
	h681.60
	" class="stroke"/>
<path d="m10.00 572.20
	h681.60
	M10.00 566.20
	h681.60
	M10.00 560.20
	h681.60
	M10.00 554.20
	h681.60
	M10.00 548.20
	h681.60
	" class="stroke"/>
</g>
<g stroke-width="0.70" style="font:bold 13.00px Times">
<text x="54.80" y="485.60">I<tspan
	 style="font:italic 11.00px Times">Δ⁷</tspan></text>
</g>
<g stroke-width="0.70" style="font:bold 13.00px Times">
<text x="249.40" y="481.60">I<tspan
	 style="font:italic 11.00px Times">Δ⁷²</tspan></text>
</g>
<g stroke-width="0.70" style="font:bold 13.00px Times">
<text x="457.80" y="483.60">I<tspan
	 style="font:italic 11.00px Times">Δ⁷</tspan></text>
</g>
<g stroke-width="0.70" style="font:bold 13.00px Times">
<text x="602.60" y="467.60">I<tspan
	 style="font:italic 11.00px Times">Δ⁷¹</tspan></text>
</g>
<g stroke-width="0.70" style="font:italic 11.00px Times">
<use x="22.00" y="508.20" xlink:href="#tclef"/>
<use x="37.00" y="490.20" xlink:href="#sh0"/>
<use x="42.50" y="499.20" xlink:href="#sh0"/>
<use x="60.50" y="499.20" xlink:href="#hd"/>
<circle class="fill" cx="68.20" cy="499.20" r="1.2"/>
<path d="M57.00 499.20v21.00" class="stroke"/>
<path class="fill"
	d="M57.00 520.20c0.6 -5.6 9.6 -9 5.6 -18.4
	1.6 6 -1.3 11.6 -5.6 12.8
"/>
<use x="93.40" y="499.20" xlink:href="#hd"/>
<path d="M89.90 499.20v23.00" class="stroke"/>
<path class="fill"
	d="M89.90 522.20c0.9 -3.7 9.1 -6.4 6 -12.4
	1 5.4 -4.2 8.4 -6 8.4
M89.90 516.80c0.9 -3.7 9.1 -6.4 6 -12.4
	1 5.4 -4.2 8.4 -6 8.4
"/>
<use x="113.80" y="496.20" xlink:href="#hd"/>
<path d="M110.30 496.20v21.00" class="stroke"/>
<use x="154.60" y="496.20" xlink:href="#hd"/>
<path d="M151.10 496.20v21.00" class="stroke"/>
<use x="195.50" y="493.20" xlink:href="#hd"/>
<circle class="fill" cx="203.20" cy="493.20" r="1.2"/>
<path d="M192.00 493.20v21.00" class="stroke"/>
<path class="fill"
	d="M192.00 514.20c0.6 -5.6 9.6 -9 5.6 -18.4
	1.6 6 -1.3 11.6 -5.6 12.8
"/>
<use x="228.40" y="493.20" xlink:href="#hd"/>
<path d="M224.90 493.20v23.00" class="stroke"/>
<path class="fill"
	d="M224.90 516.20c0.9 -3.7 9.1 -6.4 6 -12.4
	1 5.4 -4.2 8.4 -6 8.4
M224.90 510.80c0.9 -3.7 9.1 -6.4 6 -12.4
	1 5.4 -4.2 8.4 -6 8.4
"/>
<use x="257.10" y="490.20" xlink:href="#hd"/>
<path d="M253.60 490.20v21.00" class="stroke"/>
<use x="298.00" y="496.20" xlink:href="#hd"/>
<path d="M294.50 496.20v21.00" class="stroke"/>
<use x="338.80" y="499.20" xlink:href="#hd"/>
<path d="M335.30 499.20v21.00" class="stroke"/>
<use x="379.60" y="496.20" xlink:href="#Hd"/>
<path d="M376.10 496.20v21.00" class="stroke"/>
<use x="463.50" y="511.20" xlink:href="#hd"/>
<circle class="fill" cx="471.20" cy="511.20" r="1.2"/>
<path d="M467.00 511.20v-21.00" class="stroke"/>
<path class="fill"
	d="M467.00 490.20c0.6 5.6 9.6 9 5.6 18.4
	1.6 -6 -1.3 -11.6 -5.6 -12.8
"/>
<use x="496.40" y="511.20" xlink:href="#hd"/>
<path d="M499.90 511.20v-22.00" class="stroke"/>
<path class="fill"
	d="M499.90 489.20c0.9 3.7 9.1 6.4 6 12.4
	1 -5.4 -4.2 -8.4 -6 -8.4
M499.90 494.60c0.9 3.7 9.1 6.4 6 12.4
	1 -5.4 -4.2 -8.4 -6 -8.4
"/>
<use x="516.80" y="505.20" xlink:href="#hd"/>
<path d="M520.30 505.20v-21.00" class="stroke"/>
<use x="557.70" y="508.20" xlink:href="#hd"/>
<path d="M561.20 508.20v-21.00" class="stroke"/>
<use x="610.30" y="514.20" xlink:href="#hd"/>
<path d="M613.80 514.20v-40.00" class="stroke"/>
<use x="610.30" y="493.20" xlink:href="#hd"/>
<use x="651.10" y="517.20" xlink:href="#Hd"/>
<path d="M654.60 517.20v-40.00" class="stroke"/>
<use x="651.10" y="496.20" xlink:href="#Hd"/>
<use x="22.00" y="554.20" xlink:href="#bclef"/>
<use x="37.00" y="554.20" xlink:href="#sh0"/>
<use x="42.50" y="563.20" xlink:href="#sh0"/>
<use x="60.50" y="578.20" xlink:href="#hl"/>
<use x="60.50" y="581.20" xlink:href="#hd"/>
<path d="M64.00 581.20v-21.00" class="stroke"/>
<use x="113.80" y="575.20" xlink:href="#hd"/>
<path d="M117.30 575.20v-21.00" class="stroke"/>
<use x="154.60" y="569.20" xlink:href="#hd"/>
<path d="M158.10 569.20v-21.00" class="stroke"/>
<use x="195.50" y="563.20" xlink:href="#hd"/>
<path d="M199.00 563.20v-21.00" class="stroke"/>
<use x="257.10" y="578.20" xlink:href="#hl"/>
<use x="257.10" y="581.20" xlink:href="#hd"/>
<path d="M260.60 581.20v-21.00" class="stroke"/>
<use x="298.00" y="575.20" xlink:href="#hd"/>
<path d="M301.50 575.20v-21.00" class="stroke"/>
<use x="338.80" y="569.20" xlink:href="#hd"/>
<path d="M342.30 569.20v-21.00" class="stroke"/>
<use x="379.60" y="563.20" xlink:href="#hd"/>
<path d="M383.10 563.20v-21.00" class="stroke"/>
<use x="420.50" y="569.20" xlink:href="#hd"/>
<path d="M424.00 569.20v-21.00" class="stroke"/>
<use x="463.50" y="578.20" xlink:href="#hl"/>
<use x="463.50" y="581.20" xlink:href="#hd"/>
<path d="M467.00 581.20v-21.00" class="stroke"/>
<use x="516.80" y="575.20" xlink:href="#hd"/>
<path d="M520.30 575.20v-21.00" class="stroke"/>
<use x="557.70" y="569.20" xlink:href="#hd"/>
<path d="M561.20 569.20v-21.00" class="stroke"/>
<use x="610.30" y="578.20" xlink:href="#hl"/>
<use x="610.30" y="584.20" xlink:href="#hl"/>
<use x="610.30" y="590.20" xlink:href="#hl"/>
<use x="610.30" y="596.20" xlink:href="#hl"/>
<use x="610.30" y="602.20" xlink:href="#hl"/>
<use x="610.30" y="602.20" xlink:href="#Hd"/>
<circle class="fill" cx="619.00" cy="599.20" r="1.2"/>
<path d="M613.80 602.20v-58.00" class="stroke"/>
<use x="610.30" y="581.20" xlink:href="#Hd"/>
<circle class="fill" cx="619.00" cy="581.20" r="1.2"/>
<use x="610.30" y="575.20" xlink:href="#Hd"/>
<circle class="fill" cx="619.00" cy="575.20" r="1.2"/>
<use x="610.30" y="569.20" xlink:href="#Hd"/>
<circle class="fill" cx="619.00" cy="569.20" r="1.2"/>
<use x="610.30" y="563.20" xlink:href="#Hd"/>
<circle class="fill" cx="619.00" cy="563.20" r="1.2"/>
<g transform="rotate(270)">
<use x="-605.20" y="600.30" xlink:href="#ltr"/>
<use x="-599.20" y="600.30" xlink:href="#ltr"/>
<use x="-593.20" y="600.30" xlink:href="#ltr"/>
<use x="-587.20" y="600.30" xlink:href="#ltr"/>
<use x="-581.20" y="600.30" xlink:href="#ltr"/>
<use x="-575.20" y="600.30" xlink:href="#ltr"/>
<use x="-569.20" y="600.30" xlink:href="#ltr"/>
<use x="-563.20" y="600.30" xlink:href="#ltr"/>
</g>
</g>
</svg>
