<?xml version="1.0" standalone="no"?>
<!DOCTYPE svg PUBLIC "-//W3C//DTD SVG 1.1//EN"
	"http://www.w3.org/Graphics/SVG/1.1/DTD/svg11.dtd">
<svg xmlns="http://www.w3.org/2000/svg" version="1.1"
	xmlns:xlink="http://www.w3.org/1999/xlink"
	color="black"
	width="701.60px" height="454.80px" viewBox="0 0 701.60 454.80" preserveAspectRatio="xMidYMid meet">
<style type="text/css">
.fill {fill: currentColor}
.stroke {stroke: currentColor; fill: none}
text{white-space: pre}
</style>
<title>/tmp/reharm_hymnal_L7/come_down_o_love_divine.abc (1) tune 1</title>
<!-- Creator: abcm2ps-8.14.11 -->
<!-- CreationDate: Apr 24, 2026 15:32 -->
<!-- CommandLine: /tmp/reharm_hymnal_L7/come_down_o_love_divine.abc -g -O /tmp/reharm_hymnal_L7/come_down_o_love_divine -->
<g stroke-width="0.70">
<!-- title: 049. Come Down, O Love Divine -->
</g>
<g stroke-width="0.70" style="font:20.00px Times">
<text x="350.80" y="22.00" text-anchor="middle">049. Come Down, O Love Divine</text>
</g>
<g stroke-width="0.70" style="font:20.00px Times">
<path class="stroke" stroke-width="1"
	d="M10.00 143.00v-82.00"/>
<defs>
<path id="brace" class="fill" d="m-2.5 101
	c-4.5 -4.6 -7.5 -12.2 -4.4 -26.8
	3.5 -14.3 3.2 -21.7 -2.1 -24.2
	7.4 2.4 7.3 14.2 3.5 29.5
	-2.7 9.5 -1.5 16.2 3 21.5
	M-2.5 1c-4.5 4.6 -7.5 12.2 -4.4 26.8
	c3.5 14.3 3.2 21.7 -2.1 24.2
	7.4 -2.4 7.3 -14.2 3.5 -29.5
	-2.7 -9.5 -1.5 -16.2 3 -21.5"/>
</defs>
<g transform="translate(10.00,61.00) scale(1,0.82)">
	<use xlink:href="#brace"/>
</g>
<path class="stroke" stroke-width="1"
	d="M181.00 85.00v-24.00"/>
<path class="stroke" stroke-width="1"
	d="M181.00 143.00v-24.00"/>
<path class="stroke" stroke-width="1"
	d="M300.20 85.00v-24.00"/>
<path class="stroke" stroke-width="1"
	d="M300.20 143.00v-24.00"/>
<path class="stroke" stroke-width="1"
	d="M365.20 85.00v-24.00"/>
<path class="stroke" stroke-width="1"
	d="M365.20 143.00v-24.00"/>
<path class="stroke" stroke-width="1"
	d="M479.20 85.00v-24.00"/>
<path class="stroke" stroke-width="1"
	d="M479.20 143.00v-24.00"/>
<path class="stroke" stroke-width="1"
	d="M598.00 85.00v-24.00"/>
<path class="stroke" stroke-width="1"
	d="M598.00 143.00v-24.00"/>
<path class="stroke" stroke-width="1"
	d="M691.60 85.00v-24.00"/>
<path class="stroke" stroke-width="1"
	d="M691.60 143.00v-24.00"/>
<path d="m10.00 85.00
	h681.60
	M10.00 79.00
	h681.60
	M10.00 73.00
	h681.60
	M10.00 67.00
	h681.60
	M10.00 61.00
	h681.60
	" class="stroke"/>
<path d="m10.00 143.00
	h681.60
	M10.00 137.00
	h681.60
	M10.00 131.00
	h681.60
	M10.00 125.00
	h681.60
	M10.00 119.00
	h681.60
	" class="stroke"/>
</g>
<g stroke-width="0.70" style="font:bold 13.00px Times">
<text x="84.00" y="56.40">vi<tspan
	 style="font:italic 11.00px Times">m⁷</tspan></text>
</g>
<g stroke-width="0.70" style="font:bold 13.00px Times">
<text x="188.10" y="48.40">V<tspan
	 style="font:italic 11.00px Times">⁷</tspan></text>
</g>
<g stroke-width="0.70" style="font:bold 13.00px Times">
<text x="317.20" y="56.40">IV<tspan
	 style="font:italic 11.00px Times">Δ⁷</tspan></text>
</g>
<g stroke-width="0.70" style="font:bold 13.00px Times">
<text x="382.20" y="48.40">vi<tspan
	 style="font:italic 11.00px Times">m⁷</tspan></text>
</g>
<g stroke-width="0.70" style="font:bold 13.00px Times">
<text x="485.80" y="56.40">V<tspan
	 style="font:italic 11.00px Times">⁷</tspan></text>
</g>
<g stroke-width="0.70" style="font:bold 13.00px Times">
<text x="615.00" y="48.40">IV<tspan
	 style="font:italic 11.00px Times">Δ⁷</tspan></text>
</g>
<g stroke-width="0.70" style="font:italic 11.00px Times">
<defs>
<path id="utclef" class="fill" d="m-50 -90
	c-72 -41 -72 -158 52 -188
	150 -10 220 188 90 256
	-114 52 -275 0 -293 -136
	-15 -181 93 -229 220 -334
	88 -87 79 -133 62 -210
	-51 33 -94 105 -89 186
	17 267 36 374 49 574
	6 96 -19 134 -77 135
	-80 1 -126 -93 -61 -133
	85 -41 133 101 31 105
	23 17 92 37 90 -92
	-10 -223 -39 -342 -50 -617
	0 -90 0 -162 96 -232
	56 72 63 230 22 289
	-74 106 -257 168 -255 316
	9 153 148 185 252 133
	86 -65 29 -192 -80 -176
	-71 12 -105 67 -59 124"/>
<use id="tclef" transform="translate(0,6) scale(0.045)"
	xlink:href="#utclef"/>
</defs>
<use x="22.00" y="79.00" xlink:href="#tclef"/>
<defs>
<path id="usharp" class="fill" d="
	m136 -702
	v890
	h32
	v-890
	m128 840
	h32
	v-888
	h-32
	m-232 286
	v116
	l338 -96
	v-116
	m-338 442
	v116
	l338 -98
	v-114"/>
<use id="sh0" transform="translate(-4,5) scale(0.018)"
	xlink:href="#usharp"/>
</defs>
<use x="37.00" y="61.00" xlink:href="#sh0"/>
<use x="42.50" y="70.00" xlink:href="#sh0"/>
<g style="font:bold 16px serif"
	transform="translate(58.50,84.50) scale(1.2,1)">
	<text text-anchor="middle">4</text>
	<text y="-12" text-anchor="middle">4</text>
</g>
<defs>
<path id="Hd" class="fill" d="m3 -1.6
	c-1 -1.8 -7 1.4 -6 3.2
	1 1.8 7 -1.4 6 -3.2
	m0.5 -0.3
	c2 3.8 -5 7.6 -7 3.8
	-2 -3.8 5 -7.6 7 -3.8"/>
</defs>
<use x="92.00" y="88.00" xlink:href="#Hd"/>
<path d="M95.50 88.00v-21.00" class="stroke"/>
<defs>
<ellipse id="hd" rx="4.1" ry="2.9"
	transform="rotate(-20)" class="fill"/>
</defs>
<use x="131.90" y="85.00" xlink:href="#hd"/>
<path d="M135.40 85.00v-21.00" class="stroke"/>
<use x="160.40" y="82.00" xlink:href="#hd"/>
<path d="M163.90 82.00v-21.00" class="stroke"/>
<use x="194.00" y="76.00" xlink:href="#Hd"/>
<path d="M197.50 76.00v-21.00" class="stroke"/>
<use x="251.20" y="73.00" xlink:href="#Hd"/>
<path d="M254.70 73.00v-21.00" class="stroke"/>
<defs>
<path id="HD" class="fill" d="m-2.7 -1.4
	c1.5 -2.8 6.9 0 5.3 2.7
	-1.5 2.8 -6.9 0 -5.3 -2.7
	m8.3 1.4
	c0 -1.5 -2.2 -3 -5.6 -3
	-3.4 0 -5.6 1.5 -5.6 3
	0 1.5 2.2 3 5.6 3
	3.4 0 5.6 -1.5 5.6 -3"/>
</defs>
<use x="326.20" y="76.00" xlink:href="#HD"/>
<use x="390.20" y="76.00" xlink:href="#Hd"/>
<path d="M393.70 76.00v-21.00" class="stroke"/>
<use x="430.20" y="73.00" xlink:href="#hd"/>
<path d="M433.70 73.00v-21.00" class="stroke"/>
<use x="458.60" y="76.00" xlink:href="#hd"/>
<path d="M462.10 76.00v-21.00" class="stroke"/>
<use x="491.70" y="67.00" xlink:href="#hd"/>
<path d="M488.20 67.00v21.00" class="stroke"/>
<use x="520.20" y="70.00" xlink:href="#hd"/>
<path d="M516.70 70.00v21.00" class="stroke"/>
<use x="548.90" y="73.00" xlink:href="#Hd"/>
<path d="M545.40 73.00v21.00" class="stroke"/>
<use x="623.00" y="76.00" xlink:href="#Hd"/>
<path d="M626.50 76.00v-21.00" class="stroke"/>
<use x="663.00" y="76.00" xlink:href="#Hd"/>
<path d="M666.50 76.00v-21.00" class="stroke"/>
<defs>
<path id="ubclef" class="fill" d="m-200 -87
	c124 -35 222 -78 254 -236
	43 -228 -167 -246 -192 -103
	59 -80 157 22 92 78
	-62 47 -115 -22 -106 -88
	21 -141 270 -136 274 52
	-1 175 -106 264 -322 297
	m357 -250
	c0 -36 51 -34 51 0
	0 37 -51 36 -51 0
	m-2 -129
	c0 -36 51 -34 51 0
	0 38 -51 37 -51 0"/>
<use id="bclef" transform="translate(0,18) scale(0.045)"
	xlink:href="#ubclef"/>
</defs>
<use x="22.00" y="125.00" xlink:href="#bclef"/>
<use x="37.00" y="125.00" xlink:href="#sh0"/>
<use x="42.50" y="134.00" xlink:href="#sh0"/>
<g style="font:bold 16px serif"
	transform="translate(58.50,142.50) scale(1.2,1)">
	<text text-anchor="middle">4</text>
	<text y="-12" text-anchor="middle">4</text>
</g>
<defs>
<path id="hl1" class="stroke" d="m-7 0h14"/>
</defs>
<use x="93.00" y="149.00" xlink:href="#hl1"/>
<use x="93.00" y="155.00" xlink:href="#hl1"/>
<use x="93.00" y="158.00" xlink:href="#HD"/>
<use x="93.00" y="137.00" xlink:href="#HD"/>
<use x="93.00" y="131.00" xlink:href="#HD"/>
<use x="93.00" y="125.00" xlink:href="#HD"/>
<use x="93.00" y="119.00" xlink:href="#HD"/>
<use x="194.00" y="140.00" xlink:href="#hd"/>
<path d="M197.50 140.00v-21.00" class="stroke"/>
<use x="222.40" y="134.00" xlink:href="#hd"/>
<path d="M225.90 134.00v-21.00" class="stroke"/>
<use x="251.20" y="128.00" xlink:href="#hd"/>
<path d="M247.70 128.00v21.00" class="stroke"/>
<use x="279.60" y="122.00" xlink:href="#hd"/>
<path d="M276.10 122.00v21.00" class="stroke"/>
<use x="326.20" y="149.00" xlink:href="#hl1"/>
<use x="326.20" y="155.00" xlink:href="#hl1"/>
<use x="326.20" y="161.00" xlink:href="#hl1"/>
<use x="326.20" y="164.00" xlink:href="#HD"/>
<use x="326.20" y="143.00" xlink:href="#HD"/>
<use x="326.20" y="137.00" xlink:href="#HD"/>
<use x="326.20" y="131.00" xlink:href="#HD"/>
<use x="326.20" y="125.00" xlink:href="#HD"/>
<use x="391.20" y="149.00" xlink:href="#hl1"/>
<use x="391.20" y="155.00" xlink:href="#hl1"/>
<use x="391.20" y="158.00" xlink:href="#HD"/>
<use x="391.20" y="137.00" xlink:href="#HD"/>
<use x="391.20" y="131.00" xlink:href="#HD"/>
<use x="391.20" y="125.00" xlink:href="#HD"/>
<use x="391.20" y="119.00" xlink:href="#HD"/>
<use x="491.70" y="140.00" xlink:href="#hd"/>
<path d="M495.20 140.00v-21.00" class="stroke"/>
<use x="520.20" y="134.00" xlink:href="#hd"/>
<path d="M523.70 134.00v-21.00" class="stroke"/>
<use x="548.90" y="128.00" xlink:href="#hd"/>
<path d="M545.40 128.00v21.00" class="stroke"/>
<use x="577.40" y="122.00" xlink:href="#hd"/>
<path d="M573.90 122.00v21.00" class="stroke"/>
<use x="624.00" y="149.00" xlink:href="#hl1"/>
<use x="624.00" y="155.00" xlink:href="#hl1"/>
<use x="624.00" y="161.00" xlink:href="#hl1"/>
<use x="624.00" y="164.00" xlink:href="#HD"/>
<use x="624.00" y="143.00" xlink:href="#HD"/>
<use x="624.00" y="137.00" xlink:href="#HD"/>
<use x="624.00" y="131.00" xlink:href="#HD"/>
<use x="624.00" y="125.00" xlink:href="#HD"/>
<defs>
<path id="ltr" class="fill"
    d="m0 -0.4c2 -1.5 3.4 -1.9 3.9 0.4
	c0.2 0.8 0.7 0.7 2.1 -0.4
	v0.8c-2 1.5 -3.4 1.9 -3.9 -0.4
	c-0.2 -0.8 -0.7 -0.7 -2.1 0.4z"/>
</defs>
<g transform="rotate(270)">
<use x="-161.00" y="79.50" xlink:href="#ltr"/>
<use x="-155.00" y="79.50" xlink:href="#ltr"/>
<use x="-149.00" y="79.50" xlink:href="#ltr"/>
<use x="-143.00" y="79.50" xlink:href="#ltr"/>
<use x="-137.00" y="79.50" xlink:href="#ltr"/>
<use x="-131.00" y="79.50" xlink:href="#ltr"/>
<use x="-125.00" y="79.50" xlink:href="#ltr"/>
<use x="-119.00" y="79.50" xlink:href="#ltr"/>
</g>
<g transform="rotate(270)">
<use x="-167.00" y="312.70" xlink:href="#ltr"/>
<use x="-161.00" y="312.70" xlink:href="#ltr"/>
<use x="-155.00" y="312.70" xlink:href="#ltr"/>
<use x="-149.00" y="312.70" xlink:href="#ltr"/>
<use x="-143.00" y="312.70" xlink:href="#ltr"/>
<use x="-137.00" y="312.70" xlink:href="#ltr"/>
<use x="-131.00" y="312.70" xlink:href="#ltr"/>
<use x="-125.00" y="312.70" xlink:href="#ltr"/>
</g>
<g transform="rotate(270)">
<use x="-161.00" y="377.70" xlink:href="#ltr"/>
<use x="-155.00" y="377.70" xlink:href="#ltr"/>
<use x="-149.00" y="377.70" xlink:href="#ltr"/>
<use x="-143.00" y="377.70" xlink:href="#ltr"/>
<use x="-137.00" y="377.70" xlink:href="#ltr"/>
<use x="-131.00" y="377.70" xlink:href="#ltr"/>
<use x="-125.00" y="377.70" xlink:href="#ltr"/>
<use x="-119.00" y="377.70" xlink:href="#ltr"/>
</g>
<g transform="rotate(270)">
<use x="-167.00" y="610.50" xlink:href="#ltr"/>
<use x="-161.00" y="610.50" xlink:href="#ltr"/>
<use x="-155.00" y="610.50" xlink:href="#ltr"/>
<use x="-149.00" y="610.50" xlink:href="#ltr"/>
<use x="-143.00" y="610.50" xlink:href="#ltr"/>
<use x="-137.00" y="610.50" xlink:href="#ltr"/>
<use x="-131.00" y="610.50" xlink:href="#ltr"/>
<use x="-125.00" y="610.50" xlink:href="#ltr"/>
</g>
</g>
<g stroke-width="0.70" style="font:italic 11.00px Times">
<path class="stroke" stroke-width="1"
	d="M10.00 277.40v-82.00"/>
<g transform="translate(10.00,195.40) scale(1,0.82)">
	<use xlink:href="#brace"/>
</g>
<path class="stroke" stroke-width="1"
	d="M168.60 219.40v-24.00"/>
<path class="stroke" stroke-width="1"
	d="M168.60 277.40v-24.00"/>
<path class="stroke" stroke-width="1"
	d="M291.30 219.40v-24.00"/>
<path class="stroke" stroke-width="1"
	d="M291.30 277.40v-24.00"/>
<path class="stroke" stroke-width="1"
	d="M376.10 219.40v-24.00"/>
<path class="stroke" stroke-width="1"
	d="M376.10 277.40v-24.00"/>
<path class="stroke" stroke-width="1"
	d="M478.70 219.40v-24.00"/>
<path class="stroke" stroke-width="1"
	d="M478.70 277.40v-24.00"/>
<path class="stroke" stroke-width="1"
	d="M584.70 219.40v-24.00"/>
<path class="stroke" stroke-width="1"
	d="M584.70 277.40v-24.00"/>
<path class="stroke" stroke-width="1"
	d="M691.60 219.40v-24.00"/>
<path class="stroke" stroke-width="1"
	d="M691.60 277.40v-24.00"/>
<path d="m10.00 219.40
	h681.60
	M10.00 213.40
	h681.60
	M10.00 207.40
	h681.60
	M10.00 201.40
	h681.60
	M10.00 195.40
	h681.60
	" class="stroke"/>
<path d="m10.00 277.40
	h681.60
	M10.00 271.40
	h681.60
	M10.00 265.40
	h681.60
	M10.00 259.40
	h681.60
	M10.00 253.40
	h681.60
	" class="stroke"/>
</g>
<g stroke-width="0.70" style="font:bold 13.00px Times">
<text x="68.00" y="179.80">vi<tspan
	 style="font:italic 11.00px Times">m⁷</tspan></text>
</g>
<g stroke-width="0.70" style="font:bold 13.00px Times">
<text x="175.20" y="188.80">V<tspan
	 style="font:italic 11.00px Times">⁷</tspan></text>
</g>
<g stroke-width="0.70" style="font:bold 13.00px Times">
<text x="308.30" y="190.80">IV<tspan
	 style="font:italic 11.00px Times">Δ⁷</tspan></text>
</g>
<g stroke-width="0.70" style="font:bold 13.00px Times">
<text x="393.10" y="190.80">vi<tspan
	 style="font:italic 11.00px Times">m⁷</tspan></text>
</g>
<g stroke-width="0.70" style="font:bold 13.00px Times">
<text x="485.80" y="182.80">V<tspan
	 style="font:italic 11.00px Times">⁷</tspan></text>
</g>
<g stroke-width="0.70" style="font:bold 13.00px Times">
<text x="590.70" y="190.80">IV<tspan
	 style="font:italic 11.00px Times">Δ⁷</tspan></text>
</g>
<g stroke-width="0.70" style="font:italic 11.00px Times">
<use x="22.00" y="213.40" xlink:href="#tclef"/>
<use x="37.00" y="195.40" xlink:href="#sh0"/>
<use x="42.50" y="204.40" xlink:href="#sh0"/>
<use x="76.00" y="207.40" xlink:href="#hd"/>
<path d="M79.50 207.40v-21.00" class="stroke"/>
<use x="100.80" y="210.40" xlink:href="#hd"/>
<path d="M104.30 210.40v-21.00" class="stroke"/>
<use x="125.50" y="213.40" xlink:href="#hd"/>
<path d="M129.00 213.40v-21.00" class="stroke"/>
<use x="150.30" y="216.40" xlink:href="#hd"/>
<path d="M153.80 216.40v-21.00" class="stroke"/>
<use x="181.10" y="219.40" xlink:href="#hd"/>
<path d="M184.60 219.40v-21.00" class="stroke"/>
<use x="205.80" y="222.40" xlink:href="#hd"/>
<path d="M209.30 222.40v-21.00" class="stroke"/>
<use x="231.00" y="219.40" xlink:href="#hd"/>
<path d="M234.50 219.40v-21.00" class="stroke"/>
<use x="255.80" y="216.40" xlink:href="#hd"/>
<path d="M259.30 216.40v-21.00" class="stroke"/>
<path class="fill"
	d="M259.30 195.40c0.6 5.6 9.6 9 5.6 18.4
	1.6 -6 -1.3 -11.6 -5.6 -12.8
"/>
<use x="274.30" y="213.40" xlink:href="#hd"/>
<path d="M277.80 213.40v-21.00" class="stroke"/>
<path class="fill"
	d="M277.80 192.40c0.6 5.6 9.6 9 5.6 18.4
	1.6 -6 -1.3 -11.6 -5.6 -12.8
"/>
<use x="316.30" y="219.40" xlink:href="#Hd"/>
<path d="M319.80 219.40v-21.00" class="stroke"/>
<use x="351.00" y="222.40" xlink:href="#Hd"/>
<path d="M354.50 222.40v-21.00" class="stroke"/>
<use x="401.10" y="201.40" xlink:href="#Hd"/>
<path d="M397.60 201.40v21.00" class="stroke"/>
<use x="435.70" y="204.40" xlink:href="#hd"/>
<path d="M432.20 204.40v21.00" class="stroke"/>
<use x="460.50" y="207.40" xlink:href="#hd"/>
<path d="M457.00 207.40v21.00" class="stroke"/>
<use x="491.70" y="210.40" xlink:href="#Hd"/>
<path d="M495.20 210.40v-21.00" class="stroke"/>
<use x="541.60" y="207.40" xlink:href="#Hd"/>
<path d="M545.10 207.40v-21.00" class="stroke"/>
<use x="599.70" y="210.40" xlink:href="#HD"/>
<use x="22.00" y="259.40" xlink:href="#bclef"/>
<use x="37.00" y="259.40" xlink:href="#sh0"/>
<use x="42.50" y="268.40" xlink:href="#sh0"/>
<use x="77.00" y="283.40" xlink:href="#hl1"/>
<use x="77.00" y="289.40" xlink:href="#hl1"/>
<use x="77.00" y="292.40" xlink:href="#HD"/>
<use x="77.00" y="271.40" xlink:href="#HD"/>
<use x="77.00" y="265.40" xlink:href="#HD"/>
<use x="77.00" y="259.40" xlink:href="#HD"/>
<use x="77.00" y="253.40" xlink:href="#HD"/>
<use x="181.10" y="274.40" xlink:href="#hd"/>
<path d="M184.60 274.40v-21.00" class="stroke"/>
<use x="205.80" y="268.40" xlink:href="#hd"/>
<path d="M209.30 268.40v-21.00" class="stroke"/>
<use x="231.00" y="262.40" xlink:href="#hd"/>
<path d="M227.50 262.40v21.00" class="stroke"/>
<use x="255.80" y="256.40" xlink:href="#hd"/>
<path d="M252.30 256.40v21.00" class="stroke"/>
<use x="317.30" y="283.40" xlink:href="#hl1"/>
<use x="317.30" y="289.40" xlink:href="#hl1"/>
<use x="317.30" y="295.40" xlink:href="#hl1"/>
<use x="317.30" y="298.40" xlink:href="#HD"/>
<use x="317.30" y="277.40" xlink:href="#HD"/>
<use x="317.30" y="271.40" xlink:href="#HD"/>
<use x="317.30" y="265.40" xlink:href="#HD"/>
<use x="317.30" y="259.40" xlink:href="#HD"/>
<use x="402.10" y="283.40" xlink:href="#hl1"/>
<use x="402.10" y="289.40" xlink:href="#hl1"/>
<use x="402.10" y="292.40" xlink:href="#HD"/>
<use x="402.10" y="271.40" xlink:href="#HD"/>
<use x="402.10" y="265.40" xlink:href="#HD"/>
<use x="402.10" y="259.40" xlink:href="#HD"/>
<use x="402.10" y="253.40" xlink:href="#HD"/>
<use x="491.70" y="274.40" xlink:href="#hd"/>
<path d="M495.20 274.40v-21.00" class="stroke"/>
<use x="516.50" y="268.40" xlink:href="#hd"/>
<path d="M520.00 268.40v-21.00" class="stroke"/>
<use x="541.60" y="262.40" xlink:href="#hd"/>
<path d="M538.10 262.40v21.00" class="stroke"/>
<use x="566.40" y="256.40" xlink:href="#hd"/>
<path d="M562.90 256.40v21.00" class="stroke"/>
<use x="598.70" y="277.40" xlink:href="#hd"/>
<path d="M602.20 277.40v-21.00" class="stroke"/>
<use x="623.40" y="271.40" xlink:href="#hd"/>
<path d="M626.90 271.40v-21.00" class="stroke"/>
<use x="648.20" y="265.40" xlink:href="#hd"/>
<path d="M651.70 265.40v-21.00" class="stroke"/>
<use x="673.30" y="259.40" xlink:href="#hd"/>
<path d="M669.80 259.40v21.00" class="stroke"/>
<g transform="rotate(270)">
<use x="-295.40" y="63.50" xlink:href="#ltr"/>
<use x="-289.40" y="63.50" xlink:href="#ltr"/>
<use x="-283.40" y="63.50" xlink:href="#ltr"/>
<use x="-277.40" y="63.50" xlink:href="#ltr"/>
<use x="-271.40" y="63.50" xlink:href="#ltr"/>
<use x="-265.40" y="63.50" xlink:href="#ltr"/>
<use x="-259.40" y="63.50" xlink:href="#ltr"/>
<use x="-253.40" y="63.50" xlink:href="#ltr"/>
</g>
<g transform="rotate(270)">
<use x="-301.40" y="303.80" xlink:href="#ltr"/>
<use x="-295.40" y="303.80" xlink:href="#ltr"/>
<use x="-289.40" y="303.80" xlink:href="#ltr"/>
<use x="-283.40" y="303.80" xlink:href="#ltr"/>
<use x="-277.40" y="303.80" xlink:href="#ltr"/>
<use x="-271.40" y="303.80" xlink:href="#ltr"/>
<use x="-265.40" y="303.80" xlink:href="#ltr"/>
<use x="-259.40" y="303.80" xlink:href="#ltr"/>
</g>
<g transform="rotate(270)">
<use x="-295.40" y="388.60" xlink:href="#ltr"/>
<use x="-289.40" y="388.60" xlink:href="#ltr"/>
<use x="-283.40" y="388.60" xlink:href="#ltr"/>
<use x="-277.40" y="388.60" xlink:href="#ltr"/>
<use x="-271.40" y="388.60" xlink:href="#ltr"/>
<use x="-265.40" y="388.60" xlink:href="#ltr"/>
<use x="-259.40" y="388.60" xlink:href="#ltr"/>
<use x="-253.40" y="388.60" xlink:href="#ltr"/>
</g>
</g>
<g stroke-width="0.70" style="font:italic 11.00px Times">
<path class="stroke" stroke-width="1"
	d="M10.00 418.80v-82.00"/>
<g transform="translate(10.00,336.80) scale(1,0.82)">
	<use xlink:href="#brace"/>
</g>
<path class="stroke" stroke-width="1"
	d="M160.10 360.80v-24.00"/>
<path class="stroke" stroke-width="1"
	d="M160.10 418.80v-24.00"/>
<path class="stroke" stroke-width="1"
	d="M249.00 360.80v-24.00"/>
<path class="stroke" stroke-width="1"
	d="M249.00 418.80v-24.00"/>
<path class="stroke" stroke-width="1"
	d="M337.80 360.80v-24.00"/>
<path class="stroke" stroke-width="1"
	d="M337.80 418.80v-24.00"/>
<path class="stroke" stroke-width="1"
	d="M461.60 360.80v-24.00"/>
<path class="stroke" stroke-width="1"
	d="M461.60 418.80v-24.00"/>
<path class="stroke" stroke-width="1"
	d="M602.80 360.80v-24.00"/>
<path class="stroke" stroke-width="1"
	d="M602.80 418.80v-24.00"/>
<path class="stroke" stroke-width="1"
	d="M691.60 360.80v-24.00"/>
<path class="stroke" stroke-width="1"
	d="M691.60 418.80v-24.00"/>
<path d="m10.00 360.80
	h681.60
	M10.00 354.80
	h681.60
	M10.00 348.80
	h681.60
	M10.00 342.80
	h681.60
	M10.00 336.80
	h681.60
	" class="stroke"/>
<path d="m10.00 418.80
	h681.60
	M10.00 412.80
	h681.60
	M10.00 406.80
	h681.60
	M10.00 400.80
	h681.60
	M10.00 394.80
	h681.60
	" class="stroke"/>
</g>
<g stroke-width="0.70" style="font:bold 13.00px Times">
<text x="53.00" y="332.20">iii<tspan
	 style="font:italic 11.00px Times">m⁷</tspan></text>
</g>
<g stroke-width="0.70" style="font:bold 13.00px Times">
<text x="177.10" y="327.20">ii<tspan
	 style="font:italic 11.00px Times">m⁷</tspan></text>
</g>
<g stroke-width="0.70" style="font:bold 13.00px Times">
<text x="266.00" y="332.20">vi<tspan
	 style="font:italic 11.00px Times">m⁷</tspan></text>
</g>
<g stroke-width="0.70" style="font:bold 13.00px Times">
<text x="355.00" y="324.20">V<tspan
	 style="font:italic 11.00px Times">⁷¹</tspan></text>
</g>
<g stroke-width="0.70" style="font:bold 13.00px Times">
<text x="480.90" y="330.20">I<tspan
	 style="font:italic 11.00px Times">Δ⁷</tspan></text>
</g>
<g stroke-width="0.70" style="font:bold 13.00px Times">
<text x="622.00" y="314.20">I<tspan
	 style="font:italic 11.00px Times">Δ⁷</tspan></text>
</g>
<g stroke-width="0.70" style="font:italic 11.00px Times">
<use x="22.00" y="354.80" xlink:href="#tclef"/>
<use x="37.00" y="336.80" xlink:href="#sh0"/>
<use x="42.50" y="345.80" xlink:href="#sh0"/>
<use x="61.00" y="345.80" xlink:href="#Hd"/>
<path d="M57.50 345.80v21.00" class="stroke"/>
<use x="113.90" y="348.80" xlink:href="#hd"/>
<path d="M110.40 348.80v21.00" class="stroke"/>
<use x="140.70" y="351.80" xlink:href="#hd"/>
<path d="M144.20 351.80v-21.00" class="stroke"/>
<use x="185.10" y="354.80" xlink:href="#Hd"/>
<path d="M188.60 354.80v-21.00" class="stroke"/>
<use x="222.20" y="357.80" xlink:href="#Hd"/>
<path d="M225.70 357.80v-21.00" class="stroke"/>
<use x="274.00" y="360.80" xlink:href="#Hd"/>
<path d="M277.50 360.80v-21.00" class="stroke"/>
<use x="311.00" y="360.80" xlink:href="#Hd"/>
<path d="M314.50 360.80v-21.00" class="stroke"/>
<use x="362.80" y="351.80" xlink:href="#hd"/>
<path d="M366.30 351.80v-21.00" class="stroke"/>
<use x="389.30" y="348.80" xlink:href="#hd"/>
<path d="M392.80 348.80v-21.00" class="stroke"/>
<use x="415.80" y="351.80" xlink:href="#hd"/>
<path d="M419.30 351.80v-21.00" class="stroke"/>
<use x="442.20" y="354.80" xlink:href="#hd"/>
<path d="M445.70 354.80v-21.00" class="stroke"/>
<use x="486.60" y="357.80" xlink:href="#hd"/>
<path d="M490.10 357.80v-21.00" class="stroke"/>
<use x="513.10" y="363.80" xlink:href="#hd"/>
<path d="M516.60 363.80v-21.00" class="stroke"/>
<use x="539.60" y="360.80" xlink:href="#hd"/>
<path d="M543.10 360.80v-21.00" class="stroke"/>
<use x="566.00" y="357.80" xlink:href="#hd"/>
<path d="M569.50 357.80v-21.00" class="stroke"/>
<path class="fill"
	d="M569.50 336.80c0.6 5.6 9.6 9 5.6 18.4
	1.6 -6 -1.3 -11.6 -5.6 -12.8
"/>
<use x="585.80" y="354.80" xlink:href="#hd"/>
<path d="M589.30 354.80v-21.00" class="stroke"/>
<path class="fill"
	d="M589.30 333.80c0.6 5.6 9.6 9 5.6 18.4
	1.6 -6 -1.3 -11.6 -5.6 -12.8
"/>
<use x="627.80" y="360.80" xlink:href="#Hd"/>
<path d="M631.30 360.80v-40.00" class="stroke"/>
<use x="627.80" y="339.80" xlink:href="#Hd"/>
<use x="664.80" y="363.80" xlink:href="#Hd"/>
<path d="M668.30 363.80v-40.00" class="stroke"/>
<use x="664.80" y="342.80" xlink:href="#Hd"/>
<use x="22.00" y="400.80" xlink:href="#bclef"/>
<use x="37.00" y="400.80" xlink:href="#sh0"/>
<use x="42.50" y="409.80" xlink:href="#sh0"/>
<use x="61.00" y="421.80" xlink:href="#hd"/>
<path d="M64.50 421.80v-21.00" class="stroke"/>
<use x="87.50" y="415.80" xlink:href="#hd"/>
<path d="M91.00 415.80v-21.00" class="stroke"/>
<use x="113.90" y="409.80" xlink:href="#hd"/>
<path d="M117.40 409.80v-21.00" class="stroke"/>
<use x="140.70" y="403.80" xlink:href="#hd"/>
<path d="M137.20 403.80v21.00" class="stroke"/>
<use x="186.10" y="424.80" xlink:href="#hl1"/>
<use x="186.10" y="430.80" xlink:href="#hl1"/>
<use x="186.10" y="436.80" xlink:href="#hl1"/>
<use x="186.10" y="442.80" xlink:href="#hl1"/>
<use x="186.10" y="445.80" xlink:href="#HD"/>
<use x="186.10" y="424.80" xlink:href="#HD"/>
<use x="186.10" y="418.80" xlink:href="#HD"/>
<use x="186.10" y="412.80" xlink:href="#HD"/>
<use x="186.10" y="406.80" xlink:href="#HD"/>
<use x="275.00" y="424.80" xlink:href="#hl1"/>
<use x="275.00" y="430.80" xlink:href="#hl1"/>
<use x="275.00" y="433.80" xlink:href="#HD"/>
<use x="275.00" y="412.80" xlink:href="#HD"/>
<use x="275.00" y="406.80" xlink:href="#HD"/>
<use x="275.00" y="400.80" xlink:href="#HD"/>
<use x="275.00" y="394.80" xlink:href="#HD"/>
<use x="363.80" y="424.80" xlink:href="#hl1"/>
<use x="363.80" y="430.80" xlink:href="#hl1"/>
<use x="363.80" y="436.80" xlink:href="#hl1"/>
<use x="363.80" y="436.80" xlink:href="#HD"/>
<use x="363.80" y="415.80" xlink:href="#HD"/>
<use x="363.80" y="409.80" xlink:href="#HD"/>
<use x="363.80" y="403.80" xlink:href="#HD"/>
<use x="363.80" y="397.80" xlink:href="#HD"/>
<use x="487.60" y="424.80" xlink:href="#hl1"/>
<use x="487.60" y="430.80" xlink:href="#hl1"/>
<use x="487.60" y="436.80" xlink:href="#hl1"/>
<use x="487.60" y="442.80" xlink:href="#hl1"/>
<use x="487.60" y="448.80" xlink:href="#hl1"/>
<use x="487.60" y="448.80" xlink:href="#HD"/>
<use x="487.60" y="427.80" xlink:href="#HD"/>
<use x="487.60" y="421.80" xlink:href="#HD"/>
<use x="487.60" y="415.80" xlink:href="#HD"/>
<use x="487.60" y="409.80" xlink:href="#HD"/>
<use x="628.80" y="424.80" xlink:href="#hl1"/>
<use x="628.80" y="430.80" xlink:href="#hl1"/>
<use x="628.80" y="436.80" xlink:href="#hl1"/>
<use x="628.80" y="442.80" xlink:href="#hl1"/>
<use x="628.80" y="448.80" xlink:href="#hl1"/>
<use x="628.80" y="448.80" xlink:href="#HD"/>
<use x="628.80" y="427.80" xlink:href="#HD"/>
<use x="628.80" y="421.80" xlink:href="#HD"/>
<use x="628.80" y="415.80" xlink:href="#HD"/>
<use x="628.80" y="409.80" xlink:href="#HD"/>
<g transform="rotate(270)">
<use x="-448.80" y="172.60" xlink:href="#ltr"/>
<use x="-442.80" y="172.60" xlink:href="#ltr"/>
<use x="-436.80" y="172.60" xlink:href="#ltr"/>
<use x="-430.80" y="172.60" xlink:href="#ltr"/>
<use x="-424.80" y="172.60" xlink:href="#ltr"/>
<use x="-418.80" y="172.60" xlink:href="#ltr"/>
<use x="-412.80" y="172.60" xlink:href="#ltr"/>
<use x="-406.80" y="172.60" xlink:href="#ltr"/>
</g>
<g transform="rotate(270)">
<use x="-436.80" y="261.50" xlink:href="#ltr"/>
<use x="-430.80" y="261.50" xlink:href="#ltr"/>
<use x="-424.80" y="261.50" xlink:href="#ltr"/>
<use x="-418.80" y="261.50" xlink:href="#ltr"/>
<use x="-412.80" y="261.50" xlink:href="#ltr"/>
<use x="-406.80" y="261.50" xlink:href="#ltr"/>
<use x="-400.80" y="261.50" xlink:href="#ltr"/>
<use x="-394.80" y="261.50" xlink:href="#ltr"/>
</g>
<g transform="rotate(270)">
<use x="-439.80" y="350.30" xlink:href="#ltr"/>
<use x="-433.80" y="350.30" xlink:href="#ltr"/>
<use x="-427.80" y="350.30" xlink:href="#ltr"/>
<use x="-421.80" y="350.30" xlink:href="#ltr"/>
<use x="-415.80" y="350.30" xlink:href="#ltr"/>
<use x="-409.80" y="350.30" xlink:href="#ltr"/>
<use x="-403.80" y="350.30" xlink:href="#ltr"/>
<use x="-397.80" y="350.30" xlink:href="#ltr"/>
</g>
<g transform="rotate(270)">
<use x="-451.80" y="474.10" xlink:href="#ltr"/>
<use x="-445.80" y="474.10" xlink:href="#ltr"/>
<use x="-439.80" y="474.10" xlink:href="#ltr"/>
<use x="-433.80" y="474.10" xlink:href="#ltr"/>
<use x="-427.80" y="474.10" xlink:href="#ltr"/>
<use x="-421.80" y="474.10" xlink:href="#ltr"/>
<use x="-415.80" y="474.10" xlink:href="#ltr"/>
<use x="-409.80" y="474.10" xlink:href="#ltr"/>
</g>
<g transform="rotate(270)">
<use x="-451.80" y="615.30" xlink:href="#ltr"/>
<use x="-445.80" y="615.30" xlink:href="#ltr"/>
<use x="-439.80" y="615.30" xlink:href="#ltr"/>
<use x="-433.80" y="615.30" xlink:href="#ltr"/>
<use x="-427.80" y="615.30" xlink:href="#ltr"/>
<use x="-421.80" y="615.30" xlink:href="#ltr"/>
<use x="-415.80" y="615.30" xlink:href="#ltr"/>
<use x="-409.80" y="615.30" xlink:href="#ltr"/>
</g>
</g>
</svg>
