<?xml version="1.0" standalone="no"?>
<!DOCTYPE svg PUBLIC "-//W3C//DTD SVG 1.1//EN"
	"http://www.w3.org/Graphics/SVG/1.1/DTD/svg11.dtd">
<svg xmlns="http://www.w3.org/2000/svg" version="1.1"
	xmlns:xlink="http://www.w3.org/1999/xlink"
	color="black"
	width="701.60px" height="444.80px" viewBox="0 0 701.60 444.80" preserveAspectRatio="xMidYMid meet">
<style type="text/css">
.fill {fill: currentColor}
.stroke {stroke: currentColor; fill: none}
text{white-space: pre}
</style>
<title>/tmp/reharm_hymnal_L7/crown_him_with_many_crowns.abc (1) tune 1</title>
<!-- Creator: abcm2ps-8.14.11 -->
<!-- CreationDate: Apr 24, 2026 15:32 -->
<!-- CommandLine: /tmp/reharm_hymnal_L7/crown_him_with_many_crowns.abc -g -O /tmp/reharm_hymnal_L7/crown_him_with_many_crowns -->
<g stroke-width="0.70">
<!-- title: 057. Crown Him With Many Crowns -->
</g>
<g stroke-width="0.70" style="font:20.00px Times">
<text x="350.80" y="22.00" text-anchor="middle">057. Crown Him With Many Crowns</text>
</g>
<g stroke-width="0.70" style="font:20.00px Times">
<path class="stroke" stroke-width="1"
	d="M10.00 145.40v-82.00"/>
<defs>
<path id="brace" class="fill" d="m-2.5 101
	c-4.5 -4.6 -7.5 -12.2 -4.4 -26.8
	3.5 -14.3 3.2 -21.7 -2.1 -24.2
	7.4 2.4 7.3 14.2 3.5 29.5
	-2.7 9.5 -1.5 16.2 3 21.5
	M-2.5 1c-4.5 4.6 -7.5 12.2 -4.4 26.8
	c3.5 14.3 3.2 21.7 -2.1 24.2
	7.4 -2.4 7.3 -14.2 3.5 -29.5
	-2.7 -9.5 -1.5 -16.2 3 -21.5"/>
</defs>
<g transform="translate(10.00,63.40) scale(1,0.82)">
	<use xlink:href="#brace"/>
</g>
<path class="stroke" stroke-width="1"
	d="M186.10 87.40v-24.00"/>
<path class="stroke" stroke-width="1"
	d="M186.10 145.40v-24.00"/>
<path class="stroke" stroke-width="1"
	d="M281.30 87.40v-24.00"/>
<path class="stroke" stroke-width="1"
	d="M281.30 145.40v-24.00"/>
<path class="stroke" stroke-width="1"
	d="M388.00 87.40v-24.00"/>
<path class="stroke" stroke-width="1"
	d="M388.00 145.40v-24.00"/>
<path class="stroke" stroke-width="1"
	d="M465.30 87.40v-24.00"/>
<path class="stroke" stroke-width="1"
	d="M465.30 145.40v-24.00"/>
<path class="stroke" stroke-width="1"
	d="M571.90 87.40v-24.00"/>
<path class="stroke" stroke-width="1"
	d="M571.90 145.40v-24.00"/>
<path class="stroke" stroke-width="1"
	d="M691.60 87.40v-24.00"/>
<path class="stroke" stroke-width="1"
	d="M691.60 145.40v-24.00"/>
<path d="m10.00 87.40
	h681.60
	M10.00 81.40
	h681.60
	M10.00 75.40
	h681.60
	M10.00 69.40
	h681.60
	M10.00 63.40
	h681.60
	" class="stroke"/>
<path d="m10.00 145.40
	h681.60
	M10.00 139.40
	h681.60
	M10.00 133.40
	h681.60
	M10.00 127.40
	h681.60
	M10.00 121.40
	h681.60
	" class="stroke"/>
</g>
<g stroke-width="0.70" style="font:bold 13.00px Times">
<text x="84.00" y="58.80">vi<tspan
	 style="font:italic 11.00px Times">m⁷</tspan></text>
</g>
<g stroke-width="0.70" style="font:bold 13.00px Times">
<text x="193.20" y="47.80">V<tspan
	 style="font:italic 11.00px Times">⁷</tspan></text>
</g>
<g stroke-width="0.70" style="font:bold 13.00px Times">
<text x="298.30" y="50.80">IV<tspan
	 style="font:italic 11.00px Times">Δ⁷¹</tspan></text>
</g>
<g stroke-width="0.70" style="font:bold 13.00px Times">
<text x="405.00" y="58.80">vi<tspan
	 style="font:italic 11.00px Times">m⁷</tspan></text>
</g>
<g stroke-width="0.70" style="font:bold 13.00px Times">
<text x="484.40" y="56.80">V<tspan
	 style="font:italic 11.00px Times">⁷</tspan></text>
</g>
<g stroke-width="0.70" style="font:bold 13.00px Times">
<text x="588.90" y="53.80">vi<tspan
	 style="font:italic 11.00px Times">m⁷¹</tspan></text>
</g>
<g stroke-width="0.70" style="font:italic 11.00px Times">
<defs>
<path id="utclef" class="fill" d="m-50 -90
	c-72 -41 -72 -158 52 -188
	150 -10 220 188 90 256
	-114 52 -275 0 -293 -136
	-15 -181 93 -229 220 -334
	88 -87 79 -133 62 -210
	-51 33 -94 105 -89 186
	17 267 36 374 49 574
	6 96 -19 134 -77 135
	-80 1 -126 -93 -61 -133
	85 -41 133 101 31 105
	23 17 92 37 90 -92
	-10 -223 -39 -342 -50 -617
	0 -90 0 -162 96 -232
	56 72 63 230 22 289
	-74 106 -257 168 -255 316
	9 153 148 185 252 133
	86 -65 29 -192 -80 -176
	-71 12 -105 67 -59 124"/>
<use id="tclef" transform="translate(0,6) scale(0.045)"
	xlink:href="#utclef"/>
</defs>
<use x="22.00" y="81.40" xlink:href="#tclef"/>
<defs>
<path id="usharp" class="fill" d="
	m136 -702
	v890
	h32
	v-890
	m128 840
	h32
	v-888
	h-32
	m-232 286
	v116
	l338 -96
	v-116
	m-338 442
	v116
	l338 -98
	v-114"/>
<use id="sh0" transform="translate(-4,5) scale(0.018)"
	xlink:href="#usharp"/>
</defs>
<use x="37.00" y="63.40" xlink:href="#sh0"/>
<use x="42.50" y="72.40" xlink:href="#sh0"/>
<g style="font:bold 16px serif"
	transform="translate(58.50,86.90) scale(1.2,1)">
	<text text-anchor="middle">4</text>
	<text y="-12" text-anchor="middle">4</text>
</g>
<defs>
<ellipse id="hd" rx="4.1" ry="2.9"
	transform="rotate(-20)" class="fill"/>
</defs>
<use x="92.00" y="90.40" xlink:href="#hd"/>
<path d="M95.50 90.40v-21.00" class="stroke"/>
<use x="113.70" y="90.40" xlink:href="#hd"/>
<path d="M117.20 90.40v-21.00" class="stroke"/>
<path class="fill"
	d="M117.20 69.40c0.6 5.6 9.6 9 5.6 18.4
	1.6 -6 -1.3 -11.6 -5.6 -12.8
"/>
<use x="130.70" y="90.40" xlink:href="#hd"/>
<path d="M134.20 90.40v-21.00" class="stroke"/>
<path class="fill"
	d="M134.20 69.40c0.6 5.6 9.6 9 5.6 18.4
	1.6 -6 -1.3 -11.6 -5.6 -12.8
"/>
<use x="147.80" y="84.40" xlink:href="#hd"/>
<path d="M151.30 84.40v-21.00" class="stroke"/>
<use x="169.40" y="84.40" xlink:href="#hd"/>
<path d="M172.90 84.40v-21.00" class="stroke"/>
<defs>
<path id="Hd" class="fill" d="m3 -1.6
	c-1 -1.8 -7 1.4 -6 3.2
	1 1.8 7 -1.4 6 -3.2
	m0.5 -0.3
	c2 3.8 -5 7.6 -7 3.8
	-2 -3.8 5 -7.6 7 -3.8"/>
</defs>
<use x="199.10" y="75.40" xlink:href="#Hd"/>
<circle class="fill" cx="207.80" cy="72.40" r="1.2"/>
<path d="M202.60 75.40v-21.00" class="stroke"/>
<use x="264.70" y="75.40" xlink:href="#hd"/>
<path d="M268.20 75.40v-21.00" class="stroke"/>
<use x="306.30" y="78.40" xlink:href="#hd"/>
<path d="M309.80 78.40v-21.00" class="stroke"/>
<use x="328.00" y="90.40" xlink:href="#hd"/>
<path d="M331.50 90.40v-21.00" class="stroke"/>
<use x="349.70" y="81.40" xlink:href="#hd"/>
<path d="M353.20 81.40v-21.00" class="stroke"/>
<use x="371.30" y="84.40" xlink:href="#hd"/>
<path d="M374.80 84.40v-21.00" class="stroke"/>
<use x="413.00" y="87.40" xlink:href="#Hd"/>
<circle class="fill" cx="421.70" cy="84.40" r="1.2"/>
<path d="M416.50 87.40v-21.00" class="stroke"/>
<use x="448.60" y="87.40" xlink:href="#hd"/>
<path d="M452.10 87.40v-21.00" class="stroke"/>
<use x="490.30" y="84.40" xlink:href="#hd"/>
<path d="M493.80 84.40v-21.00" class="stroke"/>
<use x="511.90" y="78.40" xlink:href="#hd"/>
<path d="M515.40 78.40v-21.00" class="stroke"/>
<use x="533.60" y="75.40" xlink:href="#hd"/>
<path d="M537.10 75.40v-21.00" class="stroke"/>
<use x="555.30" y="78.40" xlink:href="#hd"/>
<path d="M558.80 78.40v-21.00" class="stroke"/>
<use x="596.90" y="81.40" xlink:href="#hd"/>
<path d="M600.40 81.40v-21.00" class="stroke"/>
<use x="618.60" y="84.40" xlink:href="#hd"/>
<path d="M622.10 84.40v-21.00" class="stroke"/>
<path class="fill"
	d="M622.10 63.40c0.6 5.6 9.6 9 5.6 18.4
	1.6 -6 -1.3 -11.6 -5.6 -12.8
"/>
<use x="635.60" y="87.40" xlink:href="#hd"/>
<path d="M639.10 87.40v-21.00" class="stroke"/>
<path class="fill"
	d="M639.10 66.40c0.6 5.6 9.6 9 5.6 18.4
	1.6 -6 -1.3 -11.6 -5.6 -12.8
"/>
<use x="652.70" y="78.40" xlink:href="#hd"/>
<path d="M656.20 78.40v-21.00" class="stroke"/>
<use x="674.90" y="69.40" xlink:href="#hd"/>
<path d="M671.40 69.40v21.00" class="stroke"/>
<defs>
<path id="ubclef" class="fill" d="m-200 -87
	c124 -35 222 -78 254 -236
	43 -228 -167 -246 -192 -103
	59 -80 157 22 92 78
	-62 47 -115 -22 -106 -88
	21 -141 270 -136 274 52
	-1 175 -106 264 -322 297
	m357 -250
	c0 -36 51 -34 51 0
	0 37 -51 36 -51 0
	m-2 -129
	c0 -36 51 -34 51 0
	0 38 -51 37 -51 0"/>
<use id="bclef" transform="translate(0,18) scale(0.045)"
	xlink:href="#ubclef"/>
</defs>
<use x="22.00" y="127.40" xlink:href="#bclef"/>
<use x="37.00" y="127.40" xlink:href="#sh0"/>
<use x="42.50" y="136.40" xlink:href="#sh0"/>
<g style="font:bold 16px serif"
	transform="translate(58.50,144.90) scale(1.2,1)">
	<text text-anchor="middle">4</text>
	<text y="-12" text-anchor="middle">4</text>
</g>
<defs>
<path id="hl1" class="stroke" d="m-7 0h14"/>
</defs>
<use x="93.00" y="151.40" xlink:href="#hl1"/>
<use x="93.00" y="157.40" xlink:href="#hl1"/>
<defs>
<path id="HD" class="fill" d="m-2.7 -1.4
	c1.5 -2.8 6.9 0 5.3 2.7
	-1.5 2.8 -6.9 0 -5.3 -2.7
	m8.3 1.4
	c0 -1.5 -2.2 -3 -5.6 -3
	-3.4 0 -5.6 1.5 -5.6 3
	0 1.5 2.2 3 5.6 3
	3.4 0 5.6 -1.5 5.6 -3"/>
</defs>
<use x="93.00" y="160.40" xlink:href="#HD"/>
<use x="93.00" y="139.40" xlink:href="#HD"/>
<use x="93.00" y="133.40" xlink:href="#HD"/>
<use x="93.00" y="127.40" xlink:href="#HD"/>
<use x="93.00" y="121.40" xlink:href="#HD"/>
<use x="199.10" y="142.40" xlink:href="#hd"/>
<path d="M202.60 142.40v-21.00" class="stroke"/>
<use x="220.70" y="136.40" xlink:href="#hd"/>
<path d="M224.20 136.40v-21.00" class="stroke"/>
<use x="243.00" y="130.40" xlink:href="#hd"/>
<path d="M239.50 130.40v21.00" class="stroke"/>
<use x="264.70" y="124.40" xlink:href="#hd"/>
<path d="M261.20 124.40v21.00" class="stroke"/>
<use x="307.30" y="151.40" xlink:href="#hl1"/>
<use x="307.30" y="157.40" xlink:href="#hl1"/>
<use x="307.30" y="163.40" xlink:href="#hl1"/>
<use x="307.30" y="166.40" xlink:href="#HD"/>
<use x="307.30" y="145.40" xlink:href="#HD"/>
<use x="307.30" y="139.40" xlink:href="#HD"/>
<use x="307.30" y="133.40" xlink:href="#HD"/>
<use x="307.30" y="127.40" xlink:href="#HD"/>
<use x="414.00" y="151.40" xlink:href="#hl1"/>
<use x="414.00" y="157.40" xlink:href="#hl1"/>
<use x="414.00" y="160.40" xlink:href="#HD"/>
<use x="414.00" y="139.40" xlink:href="#HD"/>
<use x="414.00" y="133.40" xlink:href="#HD"/>
<use x="414.00" y="127.40" xlink:href="#HD"/>
<use x="414.00" y="121.40" xlink:href="#HD"/>
<use x="491.30" y="151.40" xlink:href="#hl1"/>
<use x="491.30" y="157.40" xlink:href="#hl1"/>
<use x="491.30" y="163.40" xlink:href="#hl1"/>
<use x="491.30" y="163.40" xlink:href="#HD"/>
<use x="491.30" y="142.40" xlink:href="#HD"/>
<use x="491.30" y="136.40" xlink:href="#HD"/>
<use x="491.30" y="130.40" xlink:href="#HD"/>
<use x="491.30" y="124.40" xlink:href="#HD"/>
<use x="597.90" y="151.40" xlink:href="#hl1"/>
<use x="597.90" y="157.40" xlink:href="#hl1"/>
<use x="597.90" y="160.40" xlink:href="#HD"/>
<use x="597.90" y="139.40" xlink:href="#HD"/>
<use x="597.90" y="133.40" xlink:href="#HD"/>
<use x="597.90" y="127.40" xlink:href="#HD"/>
<use x="597.90" y="121.40" xlink:href="#HD"/>
<defs>
<path id="ltr" class="fill"
    d="m0 -0.4c2 -1.5 3.4 -1.9 3.9 0.4
	c0.2 0.8 0.7 0.7 2.1 -0.4
	v0.8c-2 1.5 -3.4 1.9 -3.9 -0.4
	c-0.2 -0.8 -0.7 -0.7 -2.1 0.4z"/>
</defs>
<g transform="rotate(270)">
<use x="-163.40" y="79.50" xlink:href="#ltr"/>
<use x="-157.40" y="79.50" xlink:href="#ltr"/>
<use x="-151.40" y="79.50" xlink:href="#ltr"/>
<use x="-145.40" y="79.50" xlink:href="#ltr"/>
<use x="-139.40" y="79.50" xlink:href="#ltr"/>
<use x="-133.40" y="79.50" xlink:href="#ltr"/>
<use x="-127.40" y="79.50" xlink:href="#ltr"/>
<use x="-121.40" y="79.50" xlink:href="#ltr"/>
</g>
<g transform="rotate(270)">
<use x="-169.40" y="293.80" xlink:href="#ltr"/>
<use x="-163.40" y="293.80" xlink:href="#ltr"/>
<use x="-157.40" y="293.80" xlink:href="#ltr"/>
<use x="-151.40" y="293.80" xlink:href="#ltr"/>
<use x="-145.40" y="293.80" xlink:href="#ltr"/>
<use x="-139.40" y="293.80" xlink:href="#ltr"/>
<use x="-133.40" y="293.80" xlink:href="#ltr"/>
<use x="-127.40" y="293.80" xlink:href="#ltr"/>
</g>
<g transform="rotate(270)">
<use x="-163.40" y="400.50" xlink:href="#ltr"/>
<use x="-157.40" y="400.50" xlink:href="#ltr"/>
<use x="-151.40" y="400.50" xlink:href="#ltr"/>
<use x="-145.40" y="400.50" xlink:href="#ltr"/>
<use x="-139.40" y="400.50" xlink:href="#ltr"/>
<use x="-133.40" y="400.50" xlink:href="#ltr"/>
<use x="-127.40" y="400.50" xlink:href="#ltr"/>
<use x="-121.40" y="400.50" xlink:href="#ltr"/>
</g>
<g transform="rotate(270)">
<use x="-166.40" y="477.80" xlink:href="#ltr"/>
<use x="-160.40" y="477.80" xlink:href="#ltr"/>
<use x="-154.40" y="477.80" xlink:href="#ltr"/>
<use x="-148.40" y="477.80" xlink:href="#ltr"/>
<use x="-142.40" y="477.80" xlink:href="#ltr"/>
<use x="-136.40" y="477.80" xlink:href="#ltr"/>
<use x="-130.40" y="477.80" xlink:href="#ltr"/>
<use x="-124.40" y="477.80" xlink:href="#ltr"/>
</g>
<g transform="rotate(270)">
<use x="-163.40" y="584.40" xlink:href="#ltr"/>
<use x="-157.40" y="584.40" xlink:href="#ltr"/>
<use x="-151.40" y="584.40" xlink:href="#ltr"/>
<use x="-145.40" y="584.40" xlink:href="#ltr"/>
<use x="-139.40" y="584.40" xlink:href="#ltr"/>
<use x="-133.40" y="584.40" xlink:href="#ltr"/>
<use x="-127.40" y="584.40" xlink:href="#ltr"/>
<use x="-121.40" y="584.40" xlink:href="#ltr"/>
</g>
</g>
<g stroke-width="0.70" style="font:italic 11.00px Times">
<path class="stroke" stroke-width="1"
	d="M10.00 279.80v-82.00"/>
<g transform="translate(10.00,197.80) scale(1,0.82)">
	<use xlink:href="#brace"/>
</g>
<path class="stroke" stroke-width="1"
	d="M155.00 221.80v-24.00"/>
<path class="stroke" stroke-width="1"
	d="M155.00 279.80v-24.00"/>
<path class="stroke" stroke-width="1"
	d="M230.80 221.80v-24.00"/>
<path class="stroke" stroke-width="1"
	d="M230.80 279.80v-24.00"/>
<path class="stroke" stroke-width="1"
	d="M334.70 221.80v-24.00"/>
<path class="stroke" stroke-width="1"
	d="M334.70 279.80v-24.00"/>
<path class="stroke" stroke-width="1"
	d="M410.50 221.80v-24.00"/>
<path class="stroke" stroke-width="1"
	d="M410.50 279.80v-24.00"/>
<path class="stroke" stroke-width="1"
	d="M514.50 221.80v-24.00"/>
<path class="stroke" stroke-width="1"
	d="M514.50 279.80v-24.00"/>
<path class="stroke" stroke-width="1"
	d="M590.30 221.80v-24.00"/>
<path class="stroke" stroke-width="1"
	d="M590.30 279.80v-24.00"/>
<path class="stroke" stroke-width="1"
	d="M691.60 221.80v-24.00"/>
<path class="stroke" stroke-width="1"
	d="M691.60 279.80v-24.00"/>
<path d="m10.00 221.80
	h681.60
	M10.00 215.80
	h681.60
	M10.00 209.80
	h681.60
	M10.00 203.80
	h681.60
	M10.00 197.80
	h681.60
	" class="stroke"/>
<path d="m10.00 279.80
	h681.60
	M10.00 273.80
	h681.60
	M10.00 267.80
	h681.60
	M10.00 261.80
	h681.60
	M10.00 255.80
	h681.60
	" class="stroke"/>
</g>
<g stroke-width="0.70" style="font:bold 13.00px Times">
<text x="70.10" y="193.20">V<tspan
	 style="font:italic 11.00px Times">⁷</tspan></text>
</g>
<g stroke-width="0.70" style="font:bold 13.00px Times">
<text x="172.00" y="185.20">vi<tspan
	 style="font:italic 11.00px Times">m⁷</tspan></text>
</g>
<g stroke-width="0.70" style="font:bold 13.00px Times">
<text x="247.90" y="185.20">V<tspan
	 style="font:italic 11.00px Times">⁷¹</tspan></text>
</g>
<g stroke-width="0.70" style="font:bold 13.00px Times">
<text x="351.70" y="182.20">vi<tspan
	 style="font:italic 11.00px Times">m⁷</tspan></text>
</g>
<g stroke-width="0.70" style="font:bold 13.00px Times">
<text x="429.60" y="182.20">V<tspan
	 style="font:italic 11.00px Times">⁷</tspan></text>
</g>
<g stroke-width="0.70" style="font:bold 13.00px Times">
<text x="531.50" y="193.20">vi<tspan
	 style="font:italic 11.00px Times">m⁷</tspan></text>
</g>
<g stroke-width="0.70" style="font:bold 13.00px Times">
<text x="607.40" y="193.20">V<tspan
	 style="font:italic 11.00px Times">⁷¹</tspan></text>
</g>
<g stroke-width="0.70" style="font:italic 11.00px Times">
<use x="22.00" y="215.80" xlink:href="#tclef"/>
<use x="37.00" y="197.80" xlink:href="#sh0"/>
<use x="42.50" y="206.80" xlink:href="#sh0"/>
<use x="76.00" y="206.80" xlink:href="#hd"/>
<path d="M72.50 206.80v21.00" class="stroke"/>
<use x="96.90" y="203.80" xlink:href="#hd"/>
<path d="M93.40 203.80v21.00" class="stroke"/>
<use x="117.80" y="209.80" xlink:href="#hd"/>
<path d="M114.30 209.80v21.00" class="stroke"/>
<use x="138.70" y="209.80" xlink:href="#hd"/>
<path d="M135.20 209.80v21.00" class="stroke"/>
<use x="180.00" y="212.80" xlink:href="#Hd"/>
<circle class="fill" cx="188.70" cy="212.80" r="1.2"/>
<path d="M183.50 212.80v-21.00" class="stroke"/>
<use x="214.40" y="212.80" xlink:href="#hd"/>
<path d="M217.90 212.80v-21.00" class="stroke"/>
<use x="255.80" y="212.80" xlink:href="#hd"/>
<path d="M259.30 212.80v-21.00" class="stroke"/>
<use x="276.60" y="218.80" xlink:href="#hd"/>
<path d="M280.10 218.80v-21.00" class="stroke"/>
<use x="297.50" y="221.80" xlink:href="#hd"/>
<path d="M301.00 221.80v-21.00" class="stroke"/>
<use x="318.40" y="224.80" xlink:href="#hd"/>
<path d="M321.90 224.80v-21.00" class="stroke"/>
<use x="359.70" y="209.80" xlink:href="#Hd"/>
<circle class="fill" cx="368.40" cy="206.80" r="1.2"/>
<path d="M363.20 209.80v-21.00" class="stroke"/>
<use x="394.20" y="209.80" xlink:href="#hd"/>
<path d="M397.70 209.80v-21.00" class="stroke"/>
<use x="435.50" y="209.80" xlink:href="#hd"/>
<path d="M439.00 209.80v-21.00" class="stroke"/>
<use x="456.40" y="215.80" xlink:href="#hd"/>
<path d="M459.90 215.80v-21.00" class="stroke"/>
<use x="477.30" y="218.80" xlink:href="#hd"/>
<path d="M480.80 218.80v-21.00" class="stroke"/>
<use x="498.20" y="221.80" xlink:href="#hd"/>
<path d="M501.70 221.80v-21.00" class="stroke"/>
<use x="539.50" y="206.80" xlink:href="#Hd"/>
<circle class="fill" cx="548.20" cy="206.80" r="1.2"/>
<path d="M536.00 206.80v21.00" class="stroke"/>
<use x="573.90" y="206.80" xlink:href="#hd"/>
<path d="M570.40 206.80v21.00" class="stroke"/>
<use x="615.30" y="203.80" xlink:href="#hd"/>
<circle class="fill" cx="623.00" cy="200.80" r="1.2"/>
<path d="M611.80 203.80v21.00" class="stroke"/>
<use x="640.70" y="206.80" xlink:href="#hd"/>
<path d="M637.20 206.80v21.00" class="stroke"/>
<path class="fill"
	d="M637.20 227.80c0.6 -5.6 9.6 -9 5.6 -18.4
	1.6 6 -1.3 11.6 -5.6 12.8
"/>
<use x="656.20" y="209.80" xlink:href="#hd"/>
<path d="M652.70 209.80v21.00" class="stroke"/>
<use x="675.30" y="212.80" xlink:href="#hd"/>
<path d="M678.80 212.80v-21.00" class="stroke"/>
<use x="22.00" y="261.80" xlink:href="#bclef"/>
<use x="37.00" y="261.80" xlink:href="#sh0"/>
<use x="42.50" y="270.80" xlink:href="#sh0"/>
<use x="77.00" y="285.80" xlink:href="#hl1"/>
<use x="77.00" y="291.80" xlink:href="#hl1"/>
<use x="77.00" y="297.80" xlink:href="#hl1"/>
<use x="77.00" y="297.80" xlink:href="#HD"/>
<use x="77.00" y="276.80" xlink:href="#HD"/>
<use x="77.00" y="270.80" xlink:href="#HD"/>
<use x="77.00" y="264.80" xlink:href="#HD"/>
<use x="77.00" y="258.80" xlink:href="#HD"/>
<use x="181.00" y="285.80" xlink:href="#hl1"/>
<use x="181.00" y="291.80" xlink:href="#hl1"/>
<use x="181.00" y="294.80" xlink:href="#HD"/>
<use x="181.00" y="273.80" xlink:href="#HD"/>
<use x="181.00" y="267.80" xlink:href="#HD"/>
<use x="181.00" y="261.80" xlink:href="#HD"/>
<use x="181.00" y="255.80" xlink:href="#HD"/>
<use x="256.80" y="285.80" xlink:href="#hl1"/>
<use x="256.80" y="291.80" xlink:href="#hl1"/>
<use x="256.80" y="297.80" xlink:href="#hl1"/>
<use x="256.80" y="297.80" xlink:href="#HD"/>
<use x="256.80" y="276.80" xlink:href="#HD"/>
<use x="256.80" y="270.80" xlink:href="#HD"/>
<use x="256.80" y="264.80" xlink:href="#HD"/>
<use x="256.80" y="258.80" xlink:href="#HD"/>
<use x="360.70" y="285.80" xlink:href="#hl1"/>
<use x="360.70" y="291.80" xlink:href="#hl1"/>
<use x="360.70" y="294.80" xlink:href="#HD"/>
<use x="360.70" y="273.80" xlink:href="#HD"/>
<use x="360.70" y="267.80" xlink:href="#HD"/>
<use x="360.70" y="261.80" xlink:href="#HD"/>
<use x="360.70" y="255.80" xlink:href="#HD"/>
<use x="436.50" y="285.80" xlink:href="#hl1"/>
<use x="436.50" y="291.80" xlink:href="#hl1"/>
<use x="436.50" y="297.80" xlink:href="#hl1"/>
<use x="436.50" y="297.80" xlink:href="#HD"/>
<use x="436.50" y="276.80" xlink:href="#HD"/>
<use x="436.50" y="270.80" xlink:href="#HD"/>
<use x="436.50" y="264.80" xlink:href="#HD"/>
<use x="436.50" y="258.80" xlink:href="#HD"/>
<use x="540.50" y="285.80" xlink:href="#hl1"/>
<use x="540.50" y="291.80" xlink:href="#hl1"/>
<use x="540.50" y="294.80" xlink:href="#HD"/>
<use x="540.50" y="273.80" xlink:href="#HD"/>
<use x="540.50" y="267.80" xlink:href="#HD"/>
<use x="540.50" y="261.80" xlink:href="#HD"/>
<use x="540.50" y="255.80" xlink:href="#HD"/>
<use x="616.30" y="285.80" xlink:href="#hl1"/>
<use x="616.30" y="291.80" xlink:href="#hl1"/>
<use x="616.30" y="297.80" xlink:href="#hl1"/>
<use x="616.30" y="297.80" xlink:href="#HD"/>
<use x="616.30" y="276.80" xlink:href="#HD"/>
<use x="616.30" y="270.80" xlink:href="#HD"/>
<use x="616.30" y="264.80" xlink:href="#HD"/>
<use x="616.30" y="258.80" xlink:href="#HD"/>
<g transform="rotate(270)">
<use x="-300.80" y="63.50" xlink:href="#ltr"/>
<use x="-294.80" y="63.50" xlink:href="#ltr"/>
<use x="-288.80" y="63.50" xlink:href="#ltr"/>
<use x="-282.80" y="63.50" xlink:href="#ltr"/>
<use x="-276.80" y="63.50" xlink:href="#ltr"/>
<use x="-270.80" y="63.50" xlink:href="#ltr"/>
<use x="-264.80" y="63.50" xlink:href="#ltr"/>
<use x="-258.80" y="63.50" xlink:href="#ltr"/>
</g>
<g transform="rotate(270)">
<use x="-297.80" y="167.50" xlink:href="#ltr"/>
<use x="-291.80" y="167.50" xlink:href="#ltr"/>
<use x="-285.80" y="167.50" xlink:href="#ltr"/>
<use x="-279.80" y="167.50" xlink:href="#ltr"/>
<use x="-273.80" y="167.50" xlink:href="#ltr"/>
<use x="-267.80" y="167.50" xlink:href="#ltr"/>
<use x="-261.80" y="167.50" xlink:href="#ltr"/>
<use x="-255.80" y="167.50" xlink:href="#ltr"/>
</g>
<g transform="rotate(270)">
<use x="-300.80" y="243.30" xlink:href="#ltr"/>
<use x="-294.80" y="243.30" xlink:href="#ltr"/>
<use x="-288.80" y="243.30" xlink:href="#ltr"/>
<use x="-282.80" y="243.30" xlink:href="#ltr"/>
<use x="-276.80" y="243.30" xlink:href="#ltr"/>
<use x="-270.80" y="243.30" xlink:href="#ltr"/>
<use x="-264.80" y="243.30" xlink:href="#ltr"/>
<use x="-258.80" y="243.30" xlink:href="#ltr"/>
</g>
<g transform="rotate(270)">
<use x="-297.80" y="347.20" xlink:href="#ltr"/>
<use x="-291.80" y="347.20" xlink:href="#ltr"/>
<use x="-285.80" y="347.20" xlink:href="#ltr"/>
<use x="-279.80" y="347.20" xlink:href="#ltr"/>
<use x="-273.80" y="347.20" xlink:href="#ltr"/>
<use x="-267.80" y="347.20" xlink:href="#ltr"/>
<use x="-261.80" y="347.20" xlink:href="#ltr"/>
<use x="-255.80" y="347.20" xlink:href="#ltr"/>
</g>
<g transform="rotate(270)">
<use x="-300.80" y="423.00" xlink:href="#ltr"/>
<use x="-294.80" y="423.00" xlink:href="#ltr"/>
<use x="-288.80" y="423.00" xlink:href="#ltr"/>
<use x="-282.80" y="423.00" xlink:href="#ltr"/>
<use x="-276.80" y="423.00" xlink:href="#ltr"/>
<use x="-270.80" y="423.00" xlink:href="#ltr"/>
<use x="-264.80" y="423.00" xlink:href="#ltr"/>
<use x="-258.80" y="423.00" xlink:href="#ltr"/>
</g>
<g transform="rotate(270)">
<use x="-297.80" y="527.00" xlink:href="#ltr"/>
<use x="-291.80" y="527.00" xlink:href="#ltr"/>
<use x="-285.80" y="527.00" xlink:href="#ltr"/>
<use x="-279.80" y="527.00" xlink:href="#ltr"/>
<use x="-273.80" y="527.00" xlink:href="#ltr"/>
<use x="-267.80" y="527.00" xlink:href="#ltr"/>
<use x="-261.80" y="527.00" xlink:href="#ltr"/>
<use x="-255.80" y="527.00" xlink:href="#ltr"/>
</g>
<g transform="rotate(270)">
<use x="-300.80" y="602.80" xlink:href="#ltr"/>
<use x="-294.80" y="602.80" xlink:href="#ltr"/>
<use x="-288.80" y="602.80" xlink:href="#ltr"/>
<use x="-282.80" y="602.80" xlink:href="#ltr"/>
<use x="-276.80" y="602.80" xlink:href="#ltr"/>
<use x="-270.80" y="602.80" xlink:href="#ltr"/>
<use x="-264.80" y="602.80" xlink:href="#ltr"/>
<use x="-258.80" y="602.80" xlink:href="#ltr"/>
</g>
</g>
<g stroke-width="0.70" style="font:italic 11.00px Times">
<path class="stroke" stroke-width="1"
	d="M10.00 408.80v-82.00"/>
<g transform="translate(10.00,326.80) scale(1,0.82)">
	<use xlink:href="#brace"/>
</g>
<path class="stroke" stroke-width="1"
	d="M224.00 350.80v-24.00"/>
<path class="stroke" stroke-width="1"
	d="M224.00 408.80v-24.00"/>
<path class="stroke" stroke-width="1"
	d="M386.10 350.80v-24.00"/>
<path class="stroke" stroke-width="1"
	d="M386.10 408.80v-24.00"/>
<path class="stroke" stroke-width="1"
	d="M467.10 350.80v-24.00"/>
<path class="stroke" stroke-width="1"
	d="M467.10 408.80v-24.00"/>
<path d="m10.00 350.80
	h457.10
	M10.00 344.80
	h457.10
	M10.00 338.80
	h457.10
	M10.00 332.80
	h457.10
	M10.00 326.80
	h457.10
	" class="stroke"/>
<path d="m10.00 408.80
	h457.10
	M10.00 402.80
	h457.10
	M10.00 396.80
	h457.10
	M10.00 390.80
	h457.10
	M10.00 384.80
	h457.10
	" class="stroke"/>
</g>
<g stroke-width="0.70" style="font:bold 13.00px Times">
<text x="68.00" y="317.20">ii<tspan
	 style="font:italic 11.00px Times">m⁷</tspan></text>
</g>
<g stroke-width="0.70" style="font:bold 13.00px Times">
<text x="230.10" y="317.20">IV<tspan
	 style="font:italic 11.00px Times">Δ⁷</tspan></text>
</g>
<g stroke-width="0.70" style="font:bold 13.00px Times">
<text x="405.40" y="322.20">I<tspan
	 style="font:italic 11.00px Times">Δ⁷</tspan></text>
</g>
<g stroke-width="0.70" style="font:italic 11.00px Times">
<use x="22.00" y="344.80" xlink:href="#tclef"/>
<use x="37.00" y="326.80" xlink:href="#sh0"/>
<use x="42.50" y="335.80" xlink:href="#sh0"/>
<use x="76.00" y="344.80" xlink:href="#hd"/>
<path d="M79.50 344.80v-21.00" class="stroke"/>
<use x="116.00" y="350.80" xlink:href="#hd"/>
<path d="M119.50 350.80v-21.00" class="stroke"/>
<use x="156.00" y="347.80" xlink:href="#hd"/>
<path d="M159.50 347.80v-21.00" class="stroke"/>
<use x="196.00" y="341.80" xlink:href="#hd"/>
<path d="M199.50 341.80v-21.00" class="stroke"/>
<use x="238.10" y="344.80" xlink:href="#hd"/>
<path d="M241.60 344.80v-21.00" class="stroke"/>
<use x="278.10" y="347.80" xlink:href="#hd"/>
<path d="M281.60 347.80v-21.00" class="stroke"/>
<use x="318.10" y="350.80" xlink:href="#hd"/>
<path d="M321.60 350.80v-21.00" class="stroke"/>
<use x="358.10" y="350.80" xlink:href="#hd"/>
<path d="M361.60 350.80v-21.00" class="stroke"/>
<use x="412.10" y="353.80" xlink:href="#HD"/>
<use x="412.10" y="332.80" xlink:href="#HD"/>
<use x="22.00" y="390.80" xlink:href="#bclef"/>
<use x="37.00" y="390.80" xlink:href="#sh0"/>
<use x="42.50" y="399.80" xlink:href="#sh0"/>
<use x="77.00" y="414.80" xlink:href="#hl1"/>
<use x="77.00" y="420.80" xlink:href="#hl1"/>
<use x="77.00" y="426.80" xlink:href="#hl1"/>
<use x="77.00" y="432.80" xlink:href="#hl1"/>
<use x="77.00" y="435.80" xlink:href="#HD"/>
<use x="77.00" y="414.80" xlink:href="#HD"/>
<use x="77.00" y="408.80" xlink:href="#HD"/>
<use x="77.00" y="402.80" xlink:href="#HD"/>
<use x="77.00" y="396.80" xlink:href="#HD"/>
<use x="238.10" y="408.80" xlink:href="#hd"/>
<path d="M241.60 408.80v-21.00" class="stroke"/>
<use x="278.10" y="402.80" xlink:href="#hd"/>
<path d="M281.60 402.80v-21.00" class="stroke"/>
<use x="318.10" y="396.80" xlink:href="#hd"/>
<path d="M321.60 396.80v-21.00" class="stroke"/>
<use x="358.10" y="390.80" xlink:href="#hd"/>
<path d="M354.60 390.80v21.00" class="stroke"/>
<use x="412.10" y="414.80" xlink:href="#hl1"/>
<use x="412.10" y="420.80" xlink:href="#hl1"/>
<use x="412.10" y="426.80" xlink:href="#hl1"/>
<use x="412.10" y="432.80" xlink:href="#hl1"/>
<use x="412.10" y="438.80" xlink:href="#hl1"/>
<use x="412.10" y="438.80" xlink:href="#HD"/>
<use x="412.10" y="417.80" xlink:href="#HD"/>
<use x="412.10" y="411.80" xlink:href="#HD"/>
<use x="412.10" y="405.80" xlink:href="#HD"/>
<use x="412.10" y="399.80" xlink:href="#HD"/>
<g transform="rotate(270)">
<use x="-438.80" y="63.50" xlink:href="#ltr"/>
<use x="-432.80" y="63.50" xlink:href="#ltr"/>
<use x="-426.80" y="63.50" xlink:href="#ltr"/>
<use x="-420.80" y="63.50" xlink:href="#ltr"/>
<use x="-414.80" y="63.50" xlink:href="#ltr"/>
<use x="-408.80" y="63.50" xlink:href="#ltr"/>
<use x="-402.80" y="63.50" xlink:href="#ltr"/>
<use x="-396.80" y="63.50" xlink:href="#ltr"/>
</g>
<g transform="rotate(270)">
<use x="-441.80" y="398.60" xlink:href="#ltr"/>
<use x="-435.80" y="398.60" xlink:href="#ltr"/>
<use x="-429.80" y="398.60" xlink:href="#ltr"/>
<use x="-423.80" y="398.60" xlink:href="#ltr"/>
<use x="-417.80" y="398.60" xlink:href="#ltr"/>
<use x="-411.80" y="398.60" xlink:href="#ltr"/>
<use x="-405.80" y="398.60" xlink:href="#ltr"/>
<use x="-399.80" y="398.60" xlink:href="#ltr"/>
</g>
</g>
</svg>
