<?xml version="1.0" standalone="no"?>
<!DOCTYPE svg PUBLIC "-//W3C//DTD SVG 1.1//EN"
	"http://www.w3.org/Graphics/SVG/1.1/DTD/svg11.dtd">
<svg xmlns="http://www.w3.org/2000/svg" version="1.1"
	xmlns:xlink="http://www.w3.org/1999/xlink"
	color="black"
	width="701.60px" height="453.40px" viewBox="0 0 701.60 453.40" preserveAspectRatio="xMidYMid meet">
<style type="text/css">
.fill {fill: currentColor}
.stroke {stroke: currentColor; fill: none}
text{white-space: pre}
</style>
<title>/tmp/reharm_hymnal_L7/he_who_would_valiant_be.abc (1) tune 1</title>
<!-- Creator: abcm2ps-8.14.11 -->
<!-- CreationDate: Apr 24, 2026 15:32 -->
<!-- CommandLine: /tmp/reharm_hymnal_L7/he_who_would_valiant_be.abc -g -O /tmp/reharm_hymnal_L7/he_who_would_valiant_be -->
<g stroke-width="0.70">
<!-- title: 090. He Who Would Valiant Be -->
</g>
<g stroke-width="0.70" style="font:20.00px Times">
<text x="350.80" y="22.00" text-anchor="middle">090. He Who Would Valiant Be</text>
</g>
<g stroke-width="0.70" style="font:20.00px Times">
<path class="stroke" stroke-width="1"
	d="M10.00 143.00v-82.00"/>
<defs>
<path id="brace" class="fill" d="m-2.5 101
	c-4.5 -4.6 -7.5 -12.2 -4.4 -26.8
	3.5 -14.3 3.2 -21.7 -2.1 -24.2
	7.4 2.4 7.3 14.2 3.5 29.5
	-2.7 9.5 -1.5 16.2 3 21.5
	M-2.5 1c-4.5 4.6 -7.5 12.2 -4.4 26.8
	c3.5 14.3 3.2 21.7 -2.1 24.2
	7.4 -2.4 7.3 -14.2 3.5 -29.5
	-2.7 -9.5 -1.5 -16.2 3 -21.5"/>
</defs>
<g transform="translate(10.00,61.00) scale(1,0.82)">
	<use xlink:href="#brace"/>
</g>
<path class="stroke" stroke-width="1"
	d="M196.70 85.00v-24.00"/>
<path class="stroke" stroke-width="1"
	d="M196.70 143.00v-24.00"/>
<path class="stroke" stroke-width="1"
	d="M330.70 85.00v-24.00"/>
<path class="stroke" stroke-width="1"
	d="M330.70 143.00v-24.00"/>
<path class="stroke" stroke-width="1"
	d="M446.30 85.00v-24.00"/>
<path class="stroke" stroke-width="1"
	d="M446.30 143.00v-24.00"/>
<path class="stroke" stroke-width="1"
	d="M558.40 85.00v-24.00"/>
<path class="stroke" stroke-width="1"
	d="M558.40 143.00v-24.00"/>
<path class="stroke" stroke-width="1"
	d="M691.60 85.00v-24.00"/>
<path class="stroke" stroke-width="1"
	d="M691.60 143.00v-24.00"/>
<path d="m10.00 85.00
	h681.60
	M10.00 79.00
	h681.60
	M10.00 73.00
	h681.60
	M10.00 67.00
	h681.60
	M10.00 61.00
	h681.60
	" class="stroke"/>
<path d="m10.00 143.00
	h681.60
	M10.00 137.00
	h681.60
	M10.00 131.00
	h681.60
	M10.00 125.00
	h681.60
	M10.00 119.00
	h681.60
	" class="stroke"/>
</g>
<g stroke-width="0.70" style="font:bold 13.00px Times">
<text x="84.00" y="56.40">vi<tspan
	 style="font:italic 11.00px Times">m⁷</tspan></text>
</g>
<g stroke-width="0.70" style="font:bold 13.00px Times">
<text x="203.30" y="54.40">V<tspan
	 style="font:italic 11.00px Times">⁷</tspan></text>
</g>
<g stroke-width="0.70" style="font:bold 13.00px Times">
<text x="347.70" y="48.40">IV<tspan
	 style="font:italic 11.00px Times">Δ⁷³</tspan></text>
</g>
<g stroke-width="0.70" style="font:bold 13.00px Times">
<text x="463.30" y="56.40">vi<tspan
	 style="font:italic 11.00px Times">m⁷</tspan></text>
</g>
<g stroke-width="0.70" style="font:bold 13.00px Times">
<text x="565.00" y="54.40">V<tspan
	 style="font:italic 11.00px Times">⁷</tspan></text>
</g>
<g stroke-width="0.70" style="font:italic 11.00px Times">
<defs>
<path id="utclef" class="fill" d="m-50 -90
	c-72 -41 -72 -158 52 -188
	150 -10 220 188 90 256
	-114 52 -275 0 -293 -136
	-15 -181 93 -229 220 -334
	88 -87 79 -133 62 -210
	-51 33 -94 105 -89 186
	17 267 36 374 49 574
	6 96 -19 134 -77 135
	-80 1 -126 -93 -61 -133
	85 -41 133 101 31 105
	23 17 92 37 90 -92
	-10 -223 -39 -342 -50 -617
	0 -90 0 -162 96 -232
	56 72 63 230 22 289
	-74 106 -257 168 -255 316
	9 153 148 185 252 133
	86 -65 29 -192 -80 -176
	-71 12 -105 67 -59 124"/>
<use id="tclef" transform="translate(0,6) scale(0.045)"
	xlink:href="#utclef"/>
</defs>
<use x="22.00" y="79.00" xlink:href="#tclef"/>
<defs>
<path id="usharp" class="fill" d="
	m136 -702
	v890
	h32
	v-890
	m128 840
	h32
	v-888
	h-32
	m-232 286
	v116
	l338 -96
	v-116
	m-338 442
	v116
	l338 -98
	v-114"/>
<use id="sh0" transform="translate(-4,5) scale(0.018)"
	xlink:href="#usharp"/>
</defs>
<use x="37.00" y="61.00" xlink:href="#sh0"/>
<use x="42.50" y="70.00" xlink:href="#sh0"/>
<g style="font:bold 16px serif"
	transform="translate(58.50,84.50) scale(1.2,1)">
	<text text-anchor="middle">4</text>
	<text y="-12" text-anchor="middle">4</text>
</g>
<defs>
<ellipse id="hd" rx="4.1" ry="2.9"
	transform="rotate(-20)" class="fill"/>
</defs>
<use x="92.00" y="88.00" xlink:href="#hd"/>
<circle class="fill" cx="99.70" cy="88.00" r="1.2"/>
<path d="M95.50 88.00v-21.00" class="stroke"/>
<use x="125.60" y="85.00" xlink:href="#hd"/>
<path d="M129.10 85.00v-21.00" class="stroke"/>
<path class="fill"
	d="M129.10 64.00c0.6 5.6 9.6 9 5.6 18.4
	1.6 -6 -1.3 -11.6 -5.6 -12.8
"/>
<use x="146.80" y="82.00" xlink:href="#hd"/>
<path d="M150.30 82.00v-21.00" class="stroke"/>
<use x="175.80" y="88.00" xlink:href="#hd"/>
<path d="M179.30 88.00v-21.00" class="stroke"/>
<use x="209.20" y="82.00" xlink:href="#hd"/>
<path d="M212.70 82.00v-21.00" class="stroke"/>
<path class="fill"
	d="M212.70 61.00c0.6 5.6 9.6 9 5.6 18.4
	1.6 -6 -1.3 -11.6 -5.6 -12.8
"/>
<use x="230.40" y="79.00" xlink:href="#hd"/>
<path d="M233.90 79.00v-21.00" class="stroke"/>
<path class="fill"
	d="M233.90 58.00c0.6 5.6 9.6 9 5.6 18.4
	1.6 -6 -1.3 -11.6 -5.6 -12.8
"/>
<use x="251.60" y="76.00" xlink:href="#hd"/>
<path d="M255.10 76.00v-21.00" class="stroke"/>
<defs>
<path id="Hd" class="fill" d="m3 -1.6
	c-1 -1.8 -7 1.4 -6 3.2
	1 1.8 7 -1.4 6 -3.2
	m0.5 -0.3
	c2 3.8 -5 7.6 -7 3.8
	-2 -3.8 5 -7.6 7 -3.8"/>
</defs>
<use x="280.80" y="73.00" xlink:href="#Hd"/>
<path d="M284.30 73.00v-21.00" class="stroke"/>
<use x="355.70" y="76.00" xlink:href="#Hd"/>
<path d="M359.20 76.00v-21.00" class="stroke"/>
<use x="396.40" y="76.00" xlink:href="#hd"/>
<path d="M399.90 76.00v-21.00" class="stroke"/>
<use x="425.40" y="88.00" xlink:href="#hd"/>
<path d="M428.90 88.00v-21.00" class="stroke"/>
<defs>
<path id="hl" class="stroke" d="m-6 0h12"/>
</defs>
<use x="471.30" y="91.00" xlink:href="#hl"/>
<use x="471.30" y="91.00" xlink:href="#hd"/>
<path d="M474.80 91.00v-21.00" class="stroke"/>
<use x="500.30" y="88.00" xlink:href="#hd"/>
<path d="M503.80 88.00v-21.00" class="stroke"/>
<use x="529.30" y="88.00" xlink:href="#Hd"/>
<path d="M532.80 88.00v-21.00" class="stroke"/>
<use x="570.90" y="88.00" xlink:href="#hd"/>
<circle class="fill" cx="578.60" cy="88.00" r="1.2"/>
<path d="M574.40 88.00v-21.00" class="stroke"/>
<use x="620.50" y="85.00" xlink:href="#hd"/>
<path d="M624.00 85.00v-21.00" class="stroke"/>
<path class="fill"
	d="M624.00 64.00c0.6 5.6 9.6 9 5.6 18.4
	1.6 -6 -1.3 -11.6 -5.6 -12.8
"/>
<use x="641.70" y="82.00" xlink:href="#hd"/>
<path d="M645.20 82.00v-21.00" class="stroke"/>
<use x="670.70" y="88.00" xlink:href="#hd"/>
<path d="M674.20 88.00v-21.00" class="stroke"/>
<defs>
<path id="ubclef" class="fill" d="m-200 -87
	c124 -35 222 -78 254 -236
	43 -228 -167 -246 -192 -103
	59 -80 157 22 92 78
	-62 47 -115 -22 -106 -88
	21 -141 270 -136 274 52
	-1 175 -106 264 -322 297
	m357 -250
	c0 -36 51 -34 51 0
	0 37 -51 36 -51 0
	m-2 -129
	c0 -36 51 -34 51 0
	0 38 -51 37 -51 0"/>
<use id="bclef" transform="translate(0,18) scale(0.045)"
	xlink:href="#ubclef"/>
</defs>
<use x="22.00" y="125.00" xlink:href="#bclef"/>
<use x="37.00" y="125.00" xlink:href="#sh0"/>
<use x="42.50" y="134.00" xlink:href="#sh0"/>
<g style="font:bold 16px serif"
	transform="translate(58.50,142.50) scale(1.2,1)">
	<text text-anchor="middle">4</text>
	<text y="-12" text-anchor="middle">4</text>
</g>
<defs>
<path id="hl1" class="stroke" d="m-7 0h14"/>
</defs>
<use x="93.00" y="149.00" xlink:href="#hl1"/>
<use x="93.00" y="155.00" xlink:href="#hl1"/>
<defs>
<path id="HD" class="fill" d="m-2.7 -1.4
	c1.5 -2.8 6.9 0 5.3 2.7
	-1.5 2.8 -6.9 0 -5.3 -2.7
	m8.3 1.4
	c0 -1.5 -2.2 -3 -5.6 -3
	-3.4 0 -5.6 1.5 -5.6 3
	0 1.5 2.2 3 5.6 3
	3.4 0 5.6 -1.5 5.6 -3"/>
</defs>
<use x="93.00" y="158.00" xlink:href="#HD"/>
<use x="93.00" y="137.00" xlink:href="#HD"/>
<use x="93.00" y="131.00" xlink:href="#HD"/>
<use x="93.00" y="125.00" xlink:href="#HD"/>
<use x="93.00" y="119.00" xlink:href="#HD"/>
<use x="209.20" y="140.00" xlink:href="#hd"/>
<path d="M212.70 140.00v-21.00" class="stroke"/>
<use x="251.60" y="134.00" xlink:href="#hd"/>
<path d="M255.10 134.00v-21.00" class="stroke"/>
<use x="280.80" y="128.00" xlink:href="#hd"/>
<path d="M277.30 128.00v21.00" class="stroke"/>
<use x="309.80" y="122.00" xlink:href="#hd"/>
<path d="M306.30 122.00v21.00" class="stroke"/>
<use x="356.70" y="149.00" xlink:href="#hl1"/>
<use x="356.70" y="155.00" xlink:href="#hl1"/>
<use x="356.70" y="161.00" xlink:href="#hl1"/>
<use x="356.70" y="164.00" xlink:href="#HD"/>
<use x="356.70" y="143.00" xlink:href="#HD"/>
<use x="356.70" y="137.00" xlink:href="#HD"/>
<use x="356.70" y="131.00" xlink:href="#HD"/>
<use x="356.70" y="125.00" xlink:href="#HD"/>
<use x="472.30" y="149.00" xlink:href="#hl1"/>
<use x="472.30" y="155.00" xlink:href="#hl1"/>
<use x="472.30" y="158.00" xlink:href="#HD"/>
<use x="472.30" y="137.00" xlink:href="#HD"/>
<use x="472.30" y="131.00" xlink:href="#HD"/>
<use x="472.30" y="125.00" xlink:href="#HD"/>
<use x="472.30" y="119.00" xlink:href="#HD"/>
<use x="570.90" y="140.00" xlink:href="#hd"/>
<path d="M574.40 140.00v-21.00" class="stroke"/>
<use x="599.90" y="134.00" xlink:href="#hd"/>
<path d="M603.40 134.00v-21.00" class="stroke"/>
<use x="641.70" y="128.00" xlink:href="#hd"/>
<path d="M638.20 128.00v21.00" class="stroke"/>
<use x="670.70" y="122.00" xlink:href="#hd"/>
<path d="M667.20 122.00v21.00" class="stroke"/>
<defs>
<path id="ltr" class="fill"
    d="m0 -0.4c2 -1.5 3.4 -1.9 3.9 0.4
	c0.2 0.8 0.7 0.7 2.1 -0.4
	v0.8c-2 1.5 -3.4 1.9 -3.9 -0.4
	c-0.2 -0.8 -0.7 -0.7 -2.1 0.4z"/>
</defs>
<g transform="rotate(270)">
<use x="-161.00" y="79.50" xlink:href="#ltr"/>
<use x="-155.00" y="79.50" xlink:href="#ltr"/>
<use x="-149.00" y="79.50" xlink:href="#ltr"/>
<use x="-143.00" y="79.50" xlink:href="#ltr"/>
<use x="-137.00" y="79.50" xlink:href="#ltr"/>
<use x="-131.00" y="79.50" xlink:href="#ltr"/>
<use x="-125.00" y="79.50" xlink:href="#ltr"/>
<use x="-119.00" y="79.50" xlink:href="#ltr"/>
</g>
<g transform="rotate(270)">
<use x="-167.00" y="343.20" xlink:href="#ltr"/>
<use x="-161.00" y="343.20" xlink:href="#ltr"/>
<use x="-155.00" y="343.20" xlink:href="#ltr"/>
<use x="-149.00" y="343.20" xlink:href="#ltr"/>
<use x="-143.00" y="343.20" xlink:href="#ltr"/>
<use x="-137.00" y="343.20" xlink:href="#ltr"/>
<use x="-131.00" y="343.20" xlink:href="#ltr"/>
<use x="-125.00" y="343.20" xlink:href="#ltr"/>
</g>
<g transform="rotate(270)">
<use x="-161.00" y="458.80" xlink:href="#ltr"/>
<use x="-155.00" y="458.80" xlink:href="#ltr"/>
<use x="-149.00" y="458.80" xlink:href="#ltr"/>
<use x="-143.00" y="458.80" xlink:href="#ltr"/>
<use x="-137.00" y="458.80" xlink:href="#ltr"/>
<use x="-131.00" y="458.80" xlink:href="#ltr"/>
<use x="-125.00" y="458.80" xlink:href="#ltr"/>
<use x="-119.00" y="458.80" xlink:href="#ltr"/>
</g>
</g>
<g stroke-width="0.70" style="font:italic 11.00px Times">
<path class="stroke" stroke-width="1"
	d="M10.00 275.00v-82.00"/>
<g transform="translate(10.00,193.00) scale(1,0.82)">
	<use xlink:href="#brace"/>
</g>
<path class="stroke" stroke-width="1"
	d="M181.50 217.00v-24.00"/>
<path class="stroke" stroke-width="1"
	d="M181.50 275.00v-24.00"/>
<path class="stroke" stroke-width="1"
	d="M297.00 217.00v-24.00"/>
<path class="stroke" stroke-width="1"
	d="M297.00 275.00v-24.00"/>
<path class="stroke" stroke-width="1"
	d="M409.00 217.00v-24.00"/>
<path class="stroke" stroke-width="1"
	d="M409.00 275.00v-24.00"/>
<path class="stroke" stroke-width="1"
	d="M529.80 217.00v-24.00"/>
<path class="stroke" stroke-width="1"
	d="M529.80 275.00v-24.00"/>
<path class="stroke" stroke-width="1"
	d="M691.60 217.00v-24.00"/>
<path class="stroke" stroke-width="1"
	d="M691.60 275.00v-24.00"/>
<path d="m10.00 217.00
	h681.60
	M10.00 211.00
	h681.60
	M10.00 205.00
	h681.60
	M10.00 199.00
	h681.60
	M10.00 193.00
	h681.60
	" class="stroke"/>
<path d="m10.00 275.00
	h681.60
	M10.00 269.00
	h681.60
	M10.00 263.00
	h681.60
	M10.00 257.00
	h681.60
	M10.00 251.00
	h681.60
	" class="stroke"/>
</g>
<g stroke-width="0.70" style="font:bold 13.00px Times">
<text x="52.50" y="183.40">IV<tspan
	 style="font:italic 11.00px Times">Δ⁷</tspan></text>
</g>
<g stroke-width="0.70" style="font:bold 13.00px Times">
<text x="198.50" y="180.40">iii<tspan
	 style="font:italic 11.00px Times">m⁷³</tspan></text>
</g>
<g stroke-width="0.70" style="font:bold 13.00px Times">
<text x="314.00" y="188.40">vi<tspan
	 style="font:italic 11.00px Times">m⁷</tspan></text>
</g>
<g stroke-width="0.70" style="font:bold 13.00px Times">
<text x="416.10" y="180.40">V<tspan
	 style="font:italic 11.00px Times">⁷</tspan></text>
</g>
<g stroke-width="0.70" style="font:bold 13.00px Times">
<text x="534.30" y="186.40">IV<tspan
	 style="font:italic 11.00px Times">Δ⁷</tspan></text>
</g>
<g stroke-width="0.70" style="font:italic 11.00px Times">
<use x="22.00" y="211.00" xlink:href="#tclef"/>
<use x="37.00" y="193.00" xlink:href="#sh0"/>
<use x="42.50" y="202.00" xlink:href="#sh0"/>
<use x="60.50" y="214.00" xlink:href="#hd"/>
<path d="M64.00 214.00v-21.00" class="stroke"/>
<path class="fill"
	d="M64.00 193.00c0.6 5.6 9.6 9 5.6 18.4
	1.6 -6 -1.3 -11.6 -5.6 -12.8
"/>
<use x="81.50" y="211.00" xlink:href="#hd"/>
<path d="M85.00 211.00v-21.00" class="stroke"/>
<path class="fill"
	d="M85.00 190.00c0.6 5.6 9.6 9 5.6 18.4
	1.6 -6 -1.3 -11.6 -5.6 -12.8
"/>
<use x="102.60" y="208.00" xlink:href="#hd"/>
<path d="M106.10 208.00v-21.00" class="stroke"/>
<use x="131.60" y="205.00" xlink:href="#Hd"/>
<path d="M135.10 205.00v-21.00" class="stroke"/>
<use x="206.50" y="208.00" xlink:href="#Hd"/>
<path d="M210.00 208.00v-21.00" class="stroke"/>
<use x="247.30" y="208.00" xlink:href="#hd"/>
<path d="M250.80 208.00v-21.00" class="stroke"/>
<use x="276.20" y="220.00" xlink:href="#hd"/>
<path d="M279.70 220.00v-21.00" class="stroke"/>
<use x="322.00" y="223.00" xlink:href="#hl"/>
<use x="322.00" y="223.00" xlink:href="#hd"/>
<path d="M325.50 223.00v-21.00" class="stroke"/>
<use x="350.90" y="220.00" xlink:href="#hd"/>
<path d="M354.40 220.00v-21.00" class="stroke"/>
<use x="380.00" y="220.00" xlink:href="#Hd"/>
<path d="M383.50 220.00v-21.00" class="stroke"/>
<use x="422.00" y="208.00" xlink:href="#Hd"/>
<path d="M425.50 208.00v-21.00" class="stroke"/>
<use x="480.10" y="199.00" xlink:href="#hd"/>
<path d="M476.60 199.00v21.00" class="stroke"/>
<use x="509.10" y="205.00" xlink:href="#hd"/>
<path d="M505.60 205.00v21.00" class="stroke"/>
<use x="542.30" y="202.00" xlink:href="#hd"/>
<path d="M538.80 202.00v21.00" class="stroke"/>
<use x="571.30" y="199.00" xlink:href="#hd"/>
<path d="M567.80 199.00v21.00" class="stroke"/>
<path class="fill"
	d="M567.80 220.00c0.6 -5.6 9.6 -9 5.6 -18.4
	1.6 6 -1.3 11.6 -5.6 12.8
"/>
<use x="592.00" y="202.00" xlink:href="#hd"/>
<path d="M588.50 202.00v21.00" class="stroke"/>
<path class="fill"
	d="M588.50 223.00c0.6 -5.6 9.6 -9 5.6 -18.4
	1.6 6 -1.3 11.6 -5.6 12.8
"/>
<use x="612.70" y="205.00" xlink:href="#Hd"/>
<circle class="fill" cx="621.40" cy="202.00" r="1.2"/>
<path d="M609.20 205.00v21.00" class="stroke"/>
<use x="22.00" y="257.00" xlink:href="#bclef"/>
<use x="37.00" y="257.00" xlink:href="#sh0"/>
<use x="42.50" y="266.00" xlink:href="#sh0"/>
<use x="60.50" y="275.00" xlink:href="#hd"/>
<path d="M64.00 275.00v-21.00" class="stroke"/>
<use x="102.60" y="269.00" xlink:href="#hd"/>
<path d="M106.10 269.00v-21.00" class="stroke"/>
<use x="131.60" y="263.00" xlink:href="#hd"/>
<path d="M135.10 263.00v-21.00" class="stroke"/>
<use x="160.80" y="257.00" xlink:href="#hd"/>
<path d="M157.30 257.00v21.00" class="stroke"/>
<use x="207.50" y="281.00" xlink:href="#hl1"/>
<use x="207.50" y="287.00" xlink:href="#hl1"/>
<use x="207.50" y="293.00" xlink:href="#hl1"/>
<use x="207.50" y="299.00" xlink:href="#hl1"/>
<use x="207.50" y="299.00" xlink:href="#HD"/>
<use x="207.50" y="278.00" xlink:href="#HD"/>
<use x="207.50" y="272.00" xlink:href="#HD"/>
<use x="207.50" y="266.00" xlink:href="#HD"/>
<use x="207.50" y="260.00" xlink:href="#HD"/>
<use x="323.00" y="281.00" xlink:href="#hl1"/>
<use x="323.00" y="287.00" xlink:href="#hl1"/>
<use x="323.00" y="290.00" xlink:href="#HD"/>
<use x="323.00" y="269.00" xlink:href="#HD"/>
<use x="323.00" y="263.00" xlink:href="#HD"/>
<use x="323.00" y="257.00" xlink:href="#HD"/>
<use x="323.00" y="251.00" xlink:href="#HD"/>
<use x="422.00" y="272.00" xlink:href="#hd"/>
<path d="M425.50 272.00v-21.00" class="stroke"/>
<use x="450.90" y="266.00" xlink:href="#hd"/>
<path d="M454.40 266.00v-21.00" class="stroke"/>
<use x="480.10" y="260.00" xlink:href="#hd"/>
<path d="M476.60 260.00v21.00" class="stroke"/>
<use x="509.10" y="254.00" xlink:href="#hd"/>
<path d="M505.60 254.00v21.00" class="stroke"/>
<use x="542.30" y="275.00" xlink:href="#hd"/>
<path d="M545.80 275.00v-21.00" class="stroke"/>
<use x="571.30" y="269.00" xlink:href="#hd"/>
<path d="M574.80 269.00v-21.00" class="stroke"/>
<use x="612.70" y="263.00" xlink:href="#hd"/>
<path d="M616.20 263.00v-21.00" class="stroke"/>
<use x="641.90" y="257.00" xlink:href="#hd"/>
<path d="M638.40 257.00v21.00" class="stroke"/>
<use x="670.80" y="263.00" xlink:href="#hd"/>
<path d="M667.30 263.00v21.00" class="stroke"/>
<g transform="rotate(270)">
<use x="-302.00" y="194.00" xlink:href="#ltr"/>
<use x="-296.00" y="194.00" xlink:href="#ltr"/>
<use x="-290.00" y="194.00" xlink:href="#ltr"/>
<use x="-284.00" y="194.00" xlink:href="#ltr"/>
<use x="-278.00" y="194.00" xlink:href="#ltr"/>
<use x="-272.00" y="194.00" xlink:href="#ltr"/>
<use x="-266.00" y="194.00" xlink:href="#ltr"/>
<use x="-260.00" y="194.00" xlink:href="#ltr"/>
</g>
<g transform="rotate(270)">
<use x="-293.00" y="309.50" xlink:href="#ltr"/>
<use x="-287.00" y="309.50" xlink:href="#ltr"/>
<use x="-281.00" y="309.50" xlink:href="#ltr"/>
<use x="-275.00" y="309.50" xlink:href="#ltr"/>
<use x="-269.00" y="309.50" xlink:href="#ltr"/>
<use x="-263.00" y="309.50" xlink:href="#ltr"/>
<use x="-257.00" y="309.50" xlink:href="#ltr"/>
<use x="-251.00" y="309.50" xlink:href="#ltr"/>
</g>
</g>
<g stroke-width="0.70" style="font:italic 11.00px Times">
<path class="stroke" stroke-width="1"
	d="M10.00 412.40v-82.00"/>
<g transform="translate(10.00,330.40) scale(1,0.82)">
	<use xlink:href="#brace"/>
</g>
<path class="stroke" stroke-width="1"
	d="M161.10 354.40v-24.00"/>
<path class="stroke" stroke-width="1"
	d="M161.10 412.40v-24.00"/>
<path class="stroke" stroke-width="1"
	d="M296.90 354.40v-24.00"/>
<path class="stroke" stroke-width="1"
	d="M296.90 412.40v-24.00"/>
<path class="stroke" stroke-width="1"
	d="M397.50 354.40v-24.00"/>
<path class="stroke" stroke-width="1"
	d="M397.50 412.40v-24.00"/>
<path class="stroke" stroke-width="1"
	d="M536.00 354.40v-24.00"/>
<path class="stroke" stroke-width="1"
	d="M536.00 412.40v-24.00"/>
<path class="stroke" stroke-width="1"
	d="M675.60 354.40v-24.00"/>
<path class="stroke" stroke-width="1"
	d="M675.60 412.40v-24.00"/>
<path class="stroke" stroke-width="1"
	d="M691.60 354.40v-24.00"/>
<path class="stroke" stroke-width="1"
	d="M691.60 412.40v-24.00"/>
<path d="m10.00 354.40
	h681.60
	M10.00 348.40
	h681.60
	M10.00 342.40
	h681.60
	M10.00 336.40
	h681.60
	M10.00 330.40
	h681.60
	" class="stroke"/>
<path d="m10.00 412.40
	h681.60
	M10.00 406.40
	h681.60
	M10.00 400.40
	h681.60
	M10.00 394.40
	h681.60
	M10.00 388.40
	h681.60
	" class="stroke"/>
</g>
<g stroke-width="0.70" style="font:bold 13.00px Times">
<text x="67.00" y="317.80">iii<tspan
	 style="font:italic 11.00px Times">m⁷¹</tspan></text>
</g>
<g stroke-width="0.70" style="font:bold 13.00px Times">
<text x="180.40" y="323.80">I<tspan
	 style="font:italic 11.00px Times">Δ⁷</tspan></text>
</g>
<g stroke-width="0.70" style="font:bold 13.00px Times">
<text x="301.60" y="323.80">V<tspan
	 style="font:italic 11.00px Times">⁷³</tspan></text>
</g>
<g stroke-width="0.70" style="font:bold 13.00px Times">
<text x="402.00" y="314.80">IV<tspan
	 style="font:italic 11.00px Times">Δ⁷</tspan></text>
</g>
<g stroke-width="0.70" style="font:bold 13.00px Times">
<text x="540.90" y="317.80">I<tspan
	 style="font:italic 11.00px Times">Δ⁷¹</tspan></text>
</g>
<g stroke-width="0.70" style="font:italic 11.00px Times">
<use x="22.00" y="348.40" xlink:href="#tclef"/>
<use x="37.00" y="330.40" xlink:href="#sh0"/>
<use x="42.50" y="339.40" xlink:href="#sh0"/>
<use x="75.00" y="345.40" xlink:href="#hd"/>
<path d="M78.50 345.40v-21.00" class="stroke"/>
<use x="101.90" y="351.40" xlink:href="#hd"/>
<path d="M105.40 351.40v-21.00" class="stroke"/>
<path class="fill"
	d="M105.40 330.40c0.6 5.6 9.6 9 5.6 18.4
	1.6 -6 -1.3 -11.6 -5.6 -12.8
"/>
<use x="121.70" y="354.40" xlink:href="#hd"/>
<path d="M125.20 354.40v-21.00" class="stroke"/>
<path class="fill"
	d="M125.20 333.40c0.6 5.6 9.6 9 5.6 18.4
	1.6 -6 -1.3 -11.6 -5.6 -12.8
"/>
<use x="141.60" y="357.40" xlink:href="#hd"/>
<path d="M145.10 357.40v-21.00" class="stroke"/>
<use x="186.10" y="351.40" xlink:href="#hd"/>
<path d="M189.60 351.40v-21.00" class="stroke"/>
<use x="213.00" y="348.40" xlink:href="#hd"/>
<path d="M216.50 348.40v-21.00" class="stroke"/>
<use x="239.90" y="345.40" xlink:href="#Hd"/>
<circle class="fill" cx="248.60" cy="345.40" r="1.2"/>
<path d="M243.40 345.40v-21.00" class="stroke"/>
<use x="309.40" y="336.40" xlink:href="#hd"/>
<path d="M305.90 336.40v21.00" class="stroke"/>
<use x="336.30" y="345.40" xlink:href="#hd"/>
<circle class="fill" cx="344.00" cy="345.40" r="1.2"/>
<path d="M339.80 345.40v-21.00" class="stroke"/>
<use x="380.50" y="345.40" xlink:href="#hd"/>
<path d="M384.00 345.40v-21.00" class="stroke"/>
<path class="fill"
	d="M384.00 324.40c0.6 5.6 9.6 9 5.6 18.4
	1.6 -6 -1.3 -11.6 -5.6 -12.8
"/>
<use x="410.00" y="342.40" xlink:href="#hd"/>
<path d="M413.50 342.40v-21.00" class="stroke"/>
<path class="fill"
	d="M413.50 321.40c0.6 5.6 9.6 9 5.6 18.4
	1.6 -6 -1.3 -11.6 -5.6 -12.8
"/>
<use x="429.80" y="345.40" xlink:href="#hd"/>
<path d="M433.30 345.40v-21.00" class="stroke"/>
<path class="fill"
	d="M433.30 324.40c0.6 5.6 9.6 9 5.6 18.4
	1.6 -6 -1.3 -11.6 -5.6 -12.8
"/>
<use x="449.70" y="348.40" xlink:href="#hd"/>
<path d="M453.20 348.40v-21.00" class="stroke"/>
<path class="fill"
	d="M453.20 327.40c0.6 5.6 9.6 9 5.6 18.4
	1.6 -6 -1.3 -11.6 -5.6 -12.8
"/>
<use x="469.50" y="351.40" xlink:href="#hd"/>
<path d="M473.00 351.40v-21.00" class="stroke"/>
<path class="fill"
	d="M473.00 330.40c0.6 5.6 9.6 9 5.6 18.4
	1.6 -6 -1.3 -11.6 -5.6 -12.8
"/>
<use x="489.40" y="354.40" xlink:href="#hd"/>
<path d="M492.90 354.40v-21.00" class="stroke"/>
<use x="516.50" y="342.40" xlink:href="#hd"/>
<path d="M520.00 342.40v-21.00" class="stroke"/>
<use x="548.50" y="345.40" xlink:href="#hd"/>
<path d="M552.00 345.40v-21.00" class="stroke"/>
<use x="575.40" y="357.40" xlink:href="#hd"/>
<path d="M578.90 357.40v-21.00" class="stroke"/>
<use x="602.30" y="360.40" xlink:href="#hl"/>
<use x="602.30" y="360.40" xlink:href="#hd"/>
<path d="M605.80 360.40v-21.00" class="stroke"/>
<use x="629.20" y="357.40" xlink:href="#Hd"/>
<path d="M632.70 357.40v-21.00" class="stroke"/>
<use x="22.00" y="394.40" xlink:href="#bclef"/>
<use x="37.00" y="394.40" xlink:href="#sh0"/>
<use x="42.50" y="403.40" xlink:href="#sh0"/>
<use x="75.00" y="418.40" xlink:href="#hl"/>
<use x="75.00" y="424.40" xlink:href="#hl"/>
<use x="75.00" y="430.40" xlink:href="#hl"/>
<use x="75.00" y="436.40" xlink:href="#hl"/>
<use x="75.00" y="436.40" xlink:href="#Hd"/>
<circle class="fill" cx="84.70" cy="433.40" r="1.2"/>
<path d="M78.50 436.40v-58.00" class="stroke"/>
<use x="75.00" y="415.40" xlink:href="#Hd"/>
<circle class="fill" cx="84.70" cy="415.40" r="1.2"/>
<use x="75.00" y="409.40" xlink:href="#Hd"/>
<circle class="fill" cx="84.70" cy="409.40" r="1.2"/>
<use x="75.00" y="403.40" xlink:href="#Hd"/>
<circle class="fill" cx="84.70" cy="403.40" r="1.2"/>
<use x="75.00" y="397.40" xlink:href="#Hd"/>
<circle class="fill" cx="84.70" cy="397.40" r="1.2"/>
<use x="187.10" y="418.40" xlink:href="#hl1"/>
<use x="187.10" y="424.40" xlink:href="#hl1"/>
<use x="187.10" y="430.40" xlink:href="#hl1"/>
<use x="187.10" y="436.40" xlink:href="#hl1"/>
<use x="187.10" y="442.40" xlink:href="#hl1"/>
<use x="187.10" y="442.40" xlink:href="#HD"/>
<use x="187.10" y="421.40" xlink:href="#HD"/>
<use x="187.10" y="415.40" xlink:href="#HD"/>
<use x="187.10" y="409.40" xlink:href="#HD"/>
<use x="187.10" y="403.40" xlink:href="#HD"/>
<use x="277.10" y="418.40" xlink:href="#hl"/>
<use x="277.10" y="424.40" xlink:href="#hl"/>
<use x="277.10" y="430.40" xlink:href="#hl"/>
<use x="277.10" y="436.40" xlink:href="#hl"/>
<use x="277.10" y="442.40" xlink:href="#hl"/>
<use x="277.10" y="442.40" xlink:href="#hd"/>
<path d="M280.60 442.40v-58.00" class="stroke"/>
<use x="277.10" y="421.40" xlink:href="#hd"/>
<use x="277.10" y="415.40" xlink:href="#hd"/>
<use x="277.10" y="409.40" xlink:href="#hd"/>
<use x="277.10" y="403.40" xlink:href="#hd"/>
<use x="309.40" y="409.40" xlink:href="#hd"/>
<path d="M312.90 409.40v-21.00" class="stroke"/>
<use x="336.30" y="403.40" xlink:href="#hd"/>
<path d="M339.80 403.40v-21.00" class="stroke"/>
<use x="363.50" y="397.40" xlink:href="#hd"/>
<path d="M360.00 397.40v21.00" class="stroke"/>
<use x="410.00" y="412.40" xlink:href="#hd"/>
<path d="M413.50 412.40v-21.00" class="stroke"/>
<use x="449.70" y="406.40" xlink:href="#hd"/>
<path d="M453.20 406.40v-21.00" class="stroke"/>
<use x="489.40" y="400.40" xlink:href="#hd"/>
<path d="M492.90 400.40v-21.00" class="stroke"/>
<use x="516.50" y="394.40" xlink:href="#hd"/>
<path d="M513.00 394.40v21.00" class="stroke"/>
<use x="548.50" y="418.40" xlink:href="#hl"/>
<use x="548.50" y="421.40" xlink:href="#hd"/>
<path d="M552.00 421.40v-21.00" class="stroke"/>
<use x="575.40" y="415.40" xlink:href="#hd"/>
<path d="M578.90 415.40v-21.00" class="stroke"/>
<use x="602.30" y="409.40" xlink:href="#hd"/>
<path d="M605.80 409.40v-21.00" class="stroke"/>
<use x="629.20" y="403.40" xlink:href="#hd"/>
<path d="M632.70 403.40v-21.00" class="stroke"/>
<use x="656.10" y="409.40" xlink:href="#hd"/>
<path d="M659.60 409.40v-21.00" class="stroke"/>
<path class="fill"
	d="M189.60 442.40c11.57 6.01 72.44 6.01 84.01 -0.00
	v0.28c-14.09 7.73 -69.92 7.73 -84.01 -0.28"/>
<path class="fill"
	d="M189.60 421.40c11.57 6.01 72.44 6.01 84.01 -0.00
	v0.28c-14.09 7.73 -69.92 7.73 -84.01 -0.28"/>
<path class="fill"
	d="M189.60 415.40c11.57 6.01 72.44 6.01 84.01 -0.00
	v0.28c-14.09 7.73 -69.92 7.73 -84.01 -0.28"/>
<path class="fill"
	d="M189.60 409.40c11.57 -6.01 72.44 -6.01 84.01 -0.00
	v-0.28c-14.09 -7.73 -69.92 -7.73 -84.01 0.28"/>
<path class="fill"
	d="M189.60 403.40c11.57 -6.01 72.44 -6.01 84.01 -0.00
	v-0.28c-14.09 -7.73 -69.92 -7.73 -84.01 0.28"/>
<g transform="rotate(270)">
<use x="-439.40" y="65.00" xlink:href="#ltr"/>
<use x="-433.40" y="65.00" xlink:href="#ltr"/>
<use x="-427.40" y="65.00" xlink:href="#ltr"/>
<use x="-421.40" y="65.00" xlink:href="#ltr"/>
<use x="-415.40" y="65.00" xlink:href="#ltr"/>
<use x="-409.40" y="65.00" xlink:href="#ltr"/>
<use x="-403.40" y="65.00" xlink:href="#ltr"/>
<use x="-397.40" y="65.00" xlink:href="#ltr"/>
</g>
<g transform="rotate(270)">
<use x="-445.40" y="173.60" xlink:href="#ltr"/>
<use x="-439.40" y="173.60" xlink:href="#ltr"/>
<use x="-433.40" y="173.60" xlink:href="#ltr"/>
<use x="-427.40" y="173.60" xlink:href="#ltr"/>
<use x="-421.40" y="173.60" xlink:href="#ltr"/>
<use x="-415.40" y="173.60" xlink:href="#ltr"/>
<use x="-409.40" y="173.60" xlink:href="#ltr"/>
<use x="-403.40" y="173.60" xlink:href="#ltr"/>
</g>
<g transform="rotate(270)">
<use x="-445.40" y="267.10" xlink:href="#ltr"/>
<use x="-439.40" y="267.10" xlink:href="#ltr"/>
<use x="-433.40" y="267.10" xlink:href="#ltr"/>
<use x="-427.40" y="267.10" xlink:href="#ltr"/>
<use x="-421.40" y="267.10" xlink:href="#ltr"/>
<use x="-415.40" y="267.10" xlink:href="#ltr"/>
<use x="-409.40" y="267.10" xlink:href="#ltr"/>
<use x="-403.40" y="267.10" xlink:href="#ltr"/>
</g>
</g>
</svg>
