<?xml version="1.0" standalone="no"?>
<!DOCTYPE svg PUBLIC "-//W3C//DTD SVG 1.1//EN"
	"http://www.w3.org/Graphics/SVG/1.1/DTD/svg11.dtd">
<svg xmlns="http://www.w3.org/2000/svg" version="1.1"
	xmlns:xlink="http://www.w3.org/1999/xlink"
	color="black"
	width="701.60px" height="565.40px" viewBox="0 0 701.60 565.40" preserveAspectRatio="xMidYMid meet">
<style type="text/css">
.fill {fill: currentColor}
.stroke {stroke: currentColor; fill: none}
text{white-space: pre}
</style>
<title>/tmp/reharm_hymnal_L7/holy_god_we_praise_thy_name.abc (1) tune 1</title>
<!-- Creator: abcm2ps-8.14.11 -->
<!-- CreationDate: Apr 24, 2026 15:32 -->
<!-- CommandLine: /tmp/reharm_hymnal_L7/holy_god_we_praise_thy_name.abc -g -O /tmp/reharm_hymnal_L7/holy_god_we_praise_thy_name -->
<g stroke-width="0.70">
<!-- title: 093. Holy God, We Praise Thy Name -->
</g>
<g stroke-width="0.70" style="font:20.00px Times">
<text x="350.80" y="22.00" text-anchor="middle">093. Holy God, We Praise Thy Name</text>
</g>
<g stroke-width="0.70" style="font:20.00px Times">
<path class="stroke" stroke-width="1"
	d="M10.00 143.00v-82.00"/>
<defs>
<path id="brace" class="fill" d="m-2.5 101
	c-4.5 -4.6 -7.5 -12.2 -4.4 -26.8
	3.5 -14.3 3.2 -21.7 -2.1 -24.2
	7.4 2.4 7.3 14.2 3.5 29.5
	-2.7 9.5 -1.5 16.2 3 21.5
	M-2.5 1c-4.5 4.6 -7.5 12.2 -4.4 26.8
	c3.5 14.3 3.2 21.7 -2.1 24.2
	7.4 -2.4 7.3 -14.2 3.5 -29.5
	-2.7 -9.5 -1.5 -16.2 3 -21.5"/>
</defs>
<g transform="translate(10.00,61.00) scale(1,0.82)">
	<use xlink:href="#brace"/>
</g>
<path class="stroke" stroke-width="1"
	d="M166.70 85.00v-24.00"/>
<path class="stroke" stroke-width="1"
	d="M166.70 143.00v-24.00"/>
<path class="stroke" stroke-width="1"
	d="M284.10 85.00v-24.00"/>
<path class="stroke" stroke-width="1"
	d="M284.10 143.00v-24.00"/>
<path class="stroke" stroke-width="1"
	d="M401.60 85.00v-24.00"/>
<path class="stroke" stroke-width="1"
	d="M401.60 143.00v-24.00"/>
<path class="stroke" stroke-width="1"
	d="M469.00 85.00v-24.00"/>
<path class="stroke" stroke-width="1"
	d="M469.00 143.00v-24.00"/>
<path class="stroke" stroke-width="1"
	d="M574.20 85.00v-24.00"/>
<path class="stroke" stroke-width="1"
	d="M574.20 143.00v-24.00"/>
<path class="stroke" stroke-width="1"
	d="M691.60 85.00v-24.00"/>
<path class="stroke" stroke-width="1"
	d="M691.60 143.00v-24.00"/>
<path d="m10.00 85.00
	h681.60
	M10.00 79.00
	h681.60
	M10.00 73.00
	h681.60
	M10.00 67.00
	h681.60
	M10.00 61.00
	h681.60
	" class="stroke"/>
<path d="m10.00 143.00
	h681.60
	M10.00 137.00
	h681.60
	M10.00 131.00
	h681.60
	M10.00 125.00
	h681.60
	M10.00 119.00
	h681.60
	" class="stroke"/>
</g>
<g stroke-width="0.70" style="font:bold 13.00px Times">
<text x="77.50" y="54.40">vi<tspan
	 style="font:italic 11.00px Times">m⁷</tspan></text>
</g>
<g stroke-width="0.70" style="font:bold 13.00px Times">
<text x="174.50" y="54.40">V<tspan
	 style="font:italic 11.00px Times">⁷</tspan></text>
</g>
<g stroke-width="0.70" style="font:bold 13.00px Times">
<text x="289.80" y="51.40">IV<tspan
	 style="font:italic 11.00px Times">Δ⁷</tspan></text>
</g>
<g stroke-width="0.70" style="font:bold 13.00px Times">
<text x="417.60" y="54.40">iii<tspan
	 style="font:italic 11.00px Times">m⁷</tspan></text>
</g>
<g stroke-width="0.70" style="font:bold 13.00px Times">
<text x="485.00" y="48.40">vi<tspan
	 style="font:italic 11.00px Times">m⁷</tspan></text>
</g>
<g stroke-width="0.70" style="font:bold 13.00px Times">
<text x="582.00" y="48.40">V<tspan
	 style="font:italic 11.00px Times">⁷</tspan></text>
</g>
<g stroke-width="0.70" style="font:italic 11.00px Times">
<defs>
<path id="utclef" class="fill" d="m-50 -90
	c-72 -41 -72 -158 52 -188
	150 -10 220 188 90 256
	-114 52 -275 0 -293 -136
	-15 -181 93 -229 220 -334
	88 -87 79 -133 62 -210
	-51 33 -94 105 -89 186
	17 267 36 374 49 574
	6 96 -19 134 -77 135
	-80 1 -126 -93 -61 -133
	85 -41 133 101 31 105
	23 17 92 37 90 -92
	-10 -223 -39 -342 -50 -617
	0 -90 0 -162 96 -232
	56 72 63 230 22 289
	-74 106 -257 168 -255 316
	9 153 148 185 252 133
	86 -65 29 -192 -80 -176
	-71 12 -105 67 -59 124"/>
<use id="tclef" transform="translate(0,6) scale(0.045)"
	xlink:href="#utclef"/>
</defs>
<use x="22.00" y="79.00" xlink:href="#tclef"/>
<defs>
<path id="uflat" class="fill" d="
	m100 -746
	h32
	v734
	l-32 4
	m32 -332
	c46 -72 152 -90 208 -20
	100 110 -120 326 -208 348
	m0 -28
	c54 0 200 -206 130 -290
	-50 -60 -130 -4 -130 34"/>
<use id="ft0" transform="translate(-3.5,3.5) scale(0.018)"
	xlink:href="#uflat"/>
</defs>
<use x="37.00" y="73.00" xlink:href="#ft0"/>
<g style="font:bold 16px serif"
	transform="translate(53.00,84.50) scale(1.2,1)">
	<text text-anchor="middle">4</text>
	<text y="-12" text-anchor="middle">3</text>
</g>
<defs>
<path id="Hd" class="fill" d="m3 -1.6
	c-1 -1.8 -7 1.4 -6 3.2
	1 1.8 7 -1.4 6 -3.2
	m0.5 -0.3
	c2 3.8 -5 7.6 -7 3.8
	-2 -3.8 5 -7.6 7 -3.8"/>
</defs>
<use x="85.50" y="82.00" xlink:href="#Hd"/>
<path d="M89.00 82.00v-21.00" class="stroke"/>
<defs>
<ellipse id="hd" rx="4.1" ry="2.9"
	transform="rotate(-20)" class="fill"/>
</defs>
<use x="139.80" y="82.00" xlink:href="#hd"/>
<path d="M143.30 82.00v-21.00" class="stroke"/>
<use x="180.40" y="82.00" xlink:href="#hd"/>
<path d="M183.90 82.00v-21.00" class="stroke"/>
<use x="218.80" y="85.00" xlink:href="#hd"/>
<path d="M222.30 85.00v-21.00" class="stroke"/>
<use x="257.20" y="82.00" xlink:href="#hd"/>
<path d="M260.70 82.00v-21.00" class="stroke"/>
<use x="297.80" y="79.00" xlink:href="#hd"/>
<path d="M301.30 79.00v-21.00" class="stroke"/>
<use x="336.20" y="76.00" xlink:href="#hd"/>
<path d="M339.70 76.00v-21.00" class="stroke"/>
<use x="374.60" y="79.00" xlink:href="#hd"/>
<path d="M378.10 79.00v-21.00" class="stroke"/>
<use x="425.60" y="82.00" xlink:href="#Hd"/>
<circle class="fill" cx="434.30" cy="82.00" r="1.2"/>
<path d="M429.10 82.00v-21.00" class="stroke"/>
<use x="493.00" y="76.00" xlink:href="#Hd"/>
<path d="M496.50 76.00v-21.00" class="stroke"/>
<use x="547.20" y="76.00" xlink:href="#hd"/>
<path d="M550.70 76.00v-21.00" class="stroke"/>
<use x="587.90" y="76.00" xlink:href="#hd"/>
<path d="M591.40 76.00v-21.00" class="stroke"/>
<use x="626.30" y="79.00" xlink:href="#hd"/>
<path d="M629.80 79.00v-21.00" class="stroke"/>
<use x="664.70" y="76.00" xlink:href="#hd"/>
<path d="M668.20 76.00v-21.00" class="stroke"/>
<defs>
<path id="ubclef" class="fill" d="m-200 -87
	c124 -35 222 -78 254 -236
	43 -228 -167 -246 -192 -103
	59 -80 157 22 92 78
	-62 47 -115 -22 -106 -88
	21 -141 270 -136 274 52
	-1 175 -106 264 -322 297
	m357 -250
	c0 -36 51 -34 51 0
	0 37 -51 36 -51 0
	m-2 -129
	c0 -36 51 -34 51 0
	0 38 -51 37 -51 0"/>
<use id="bclef" transform="translate(0,18) scale(0.045)"
	xlink:href="#ubclef"/>
</defs>
<use x="22.00" y="125.00" xlink:href="#bclef"/>
<use x="37.00" y="137.00" xlink:href="#ft0"/>
<g style="font:bold 16px serif"
	transform="translate(53.00,142.50) scale(1.2,1)">
	<text text-anchor="middle">4</text>
	<text y="-12" text-anchor="middle">3</text>
</g>
<defs>
<path id="hl" class="stroke" d="m-6 0h12"/>
</defs>
<use x="85.50" y="149.00" xlink:href="#hl"/>
<use x="85.50" y="113.00" xlink:href="#hl"/>
<use x="85.50" y="152.00" xlink:href="#Hd"/>
<circle class="fill" cx="95.20" cy="152.00" r="1.2"/>
<path d="M89.00 152.00v-56.00" class="stroke"/>
<use x="85.50" y="131.00" xlink:href="#Hd"/>
<circle class="fill" cx="95.20" cy="128.00" r="1.2"/>
<use x="85.50" y="125.00" xlink:href="#Hd"/>
<circle class="fill" cx="95.20" cy="122.00" r="1.2"/>
<use x="85.50" y="119.00" xlink:href="#Hd"/>
<circle class="fill" cx="95.20" cy="116.00" r="1.2"/>
<use x="85.50" y="113.00" xlink:href="#Hd"/>
<circle class="fill" cx="95.20" cy="110.00" r="1.2"/>
<use x="180.40" y="134.00" xlink:href="#hd"/>
<path d="M183.90 134.00v-21.00" class="stroke"/>
<use x="218.80" y="128.00" xlink:href="#hd"/>
<path d="M215.30 128.00v21.00" class="stroke"/>
<use x="257.20" y="122.00" xlink:href="#hd"/>
<path d="M253.70 122.00v21.00" class="stroke"/>
<use x="297.80" y="137.00" xlink:href="#hd"/>
<path d="M301.30 137.00v-21.00" class="stroke"/>
<use x="336.20" y="131.00" xlink:href="#hd"/>
<path d="M339.70 131.00v-21.00" class="stroke"/>
<use x="374.60" y="125.00" xlink:href="#hd"/>
<path d="M371.10 125.00v21.00" class="stroke"/>
<use x="425.60" y="149.00" xlink:href="#hl"/>
<use x="425.60" y="155.00" xlink:href="#hl"/>
<use x="425.60" y="161.00" xlink:href="#hl"/>
<use x="425.60" y="161.00" xlink:href="#Hd"/>
<circle class="fill" cx="434.30" cy="158.00" r="1.2"/>
<path d="M429.10 161.00v-58.00" class="stroke"/>
<use x="425.60" y="140.00" xlink:href="#Hd"/>
<circle class="fill" cx="434.30" cy="140.00" r="1.2"/>
<use x="425.60" y="134.00" xlink:href="#Hd"/>
<circle class="fill" cx="434.30" cy="134.00" r="1.2"/>
<use x="425.60" y="128.00" xlink:href="#Hd"/>
<circle class="fill" cx="434.30" cy="128.00" r="1.2"/>
<use x="425.60" y="122.00" xlink:href="#Hd"/>
<circle class="fill" cx="434.30" cy="122.00" r="1.2"/>
<use x="493.00" y="149.00" xlink:href="#hl"/>
<use x="493.00" y="113.00" xlink:href="#hl"/>
<use x="493.00" y="152.00" xlink:href="#Hd"/>
<circle class="fill" cx="501.70" cy="152.00" r="1.2"/>
<path d="M496.50 152.00v-56.00" class="stroke"/>
<use x="493.00" y="131.00" xlink:href="#Hd"/>
<circle class="fill" cx="501.70" cy="128.00" r="1.2"/>
<use x="493.00" y="125.00" xlink:href="#Hd"/>
<circle class="fill" cx="501.70" cy="122.00" r="1.2"/>
<use x="493.00" y="119.00" xlink:href="#Hd"/>
<circle class="fill" cx="501.70" cy="116.00" r="1.2"/>
<use x="493.00" y="113.00" xlink:href="#Hd"/>
<circle class="fill" cx="501.70" cy="110.00" r="1.2"/>
<use x="587.90" y="134.00" xlink:href="#hd"/>
<path d="M591.40 134.00v-21.00" class="stroke"/>
<use x="626.30" y="128.00" xlink:href="#hd"/>
<path d="M622.80 128.00v21.00" class="stroke"/>
<use x="664.70" y="122.00" xlink:href="#hd"/>
<path d="M661.20 122.00v21.00" class="stroke"/>
<defs>
<path id="ltr" class="fill"
    d="m0 -0.4c2 -1.5 3.4 -1.9 3.9 0.4
	c0.2 0.8 0.7 0.7 2.1 -0.4
	v0.8c-2 1.5 -3.4 1.9 -3.9 -0.4
	c-0.2 -0.8 -0.7 -0.7 -2.1 0.4z"/>
</defs>
<g transform="rotate(270)">
<use x="-155.00" y="75.50" xlink:href="#ltr"/>
<use x="-149.00" y="75.50" xlink:href="#ltr"/>
<use x="-143.00" y="75.50" xlink:href="#ltr"/>
<use x="-137.00" y="75.50" xlink:href="#ltr"/>
<use x="-131.00" y="75.50" xlink:href="#ltr"/>
<use x="-125.00" y="75.50" xlink:href="#ltr"/>
<use x="-119.00" y="75.50" xlink:href="#ltr"/>
<use x="-113.00" y="75.50" xlink:href="#ltr"/>
</g>
<g transform="rotate(270)">
<use x="-164.00" y="415.60" xlink:href="#ltr"/>
<use x="-158.00" y="415.60" xlink:href="#ltr"/>
<use x="-152.00" y="415.60" xlink:href="#ltr"/>
<use x="-146.00" y="415.60" xlink:href="#ltr"/>
<use x="-140.00" y="415.60" xlink:href="#ltr"/>
<use x="-134.00" y="415.60" xlink:href="#ltr"/>
<use x="-128.00" y="415.60" xlink:href="#ltr"/>
<use x="-122.00" y="415.60" xlink:href="#ltr"/>
</g>
<g transform="rotate(270)">
<use x="-155.00" y="483.00" xlink:href="#ltr"/>
<use x="-149.00" y="483.00" xlink:href="#ltr"/>
<use x="-143.00" y="483.00" xlink:href="#ltr"/>
<use x="-137.00" y="483.00" xlink:href="#ltr"/>
<use x="-131.00" y="483.00" xlink:href="#ltr"/>
<use x="-125.00" y="483.00" xlink:href="#ltr"/>
<use x="-119.00" y="483.00" xlink:href="#ltr"/>
<use x="-113.00" y="483.00" xlink:href="#ltr"/>
</g>
</g>
<g stroke-width="0.70" style="font:italic 11.00px Times">
<path class="stroke" stroke-width="1"
	d="M10.00 272.00v-82.00"/>
<g transform="translate(10.00,190.00) scale(1,0.82)">
	<use xlink:href="#brace"/>
</g>
<path class="stroke" stroke-width="1"
	d="M145.10 214.00v-24.00"/>
<path class="stroke" stroke-width="1"
	d="M145.10 272.00v-24.00"/>
<path class="stroke" stroke-width="1"
	d="M235.50 214.00v-24.00"/>
<path class="stroke" stroke-width="1"
	d="M235.50 272.00v-24.00"/>
<path class="stroke" stroke-width="1"
	d="M329.90 214.00v-24.00"/>
<path class="stroke" stroke-width="1"
	d="M329.90 272.00v-24.00"/>
<path class="stroke" stroke-width="1"
	d="M432.50 214.00v-24.00"/>
<path class="stroke" stroke-width="1"
	d="M432.50 272.00v-24.00"/>
<path class="stroke" stroke-width="1"
	d="M535.20 214.00v-24.00"/>
<path class="stroke" stroke-width="1"
	d="M535.20 272.00v-24.00"/>
<path class="stroke" stroke-width="1"
	d="M597.20 214.00v-24.00"/>
<path class="stroke" stroke-width="1"
	d="M597.20 272.00v-24.00"/>
<path class="stroke" stroke-width="1"
	d="M691.60 214.00v-24.00"/>
<path class="stroke" stroke-width="1"
	d="M691.60 272.00v-24.00"/>
<path d="m10.00 214.00
	h681.60
	M10.00 208.00
	h681.60
	M10.00 202.00
	h681.60
	M10.00 196.00
	h681.60
	M10.00 190.00
	h681.60
	" class="stroke"/>
<path d="m10.00 272.00
	h681.60
	M10.00 266.00
	h681.60
	M10.00 260.00
	h681.60
	M10.00 254.00
	h681.60
	M10.00 248.00
	h681.60
	" class="stroke"/>
</g>
<g stroke-width="0.70" style="font:bold 13.00px Times">
<text x="47.00" y="185.40">IV<tspan
	 style="font:italic 11.00px Times">Δ⁷</tspan></text>
</g>
<g stroke-width="0.70" style="font:bold 13.00px Times">
<text x="161.10" y="177.40">iii<tspan
	 style="font:italic 11.00px Times">m⁷²</tspan></text>
</g>
<g stroke-width="0.70" style="font:bold 13.00px Times">
<text x="251.50" y="183.40">vi<tspan
	 style="font:italic 11.00px Times">m⁷</tspan></text>
</g>
<g stroke-width="0.70" style="font:bold 13.00px Times">
<text x="336.50" y="183.40">V<tspan
	 style="font:italic 11.00px Times">⁷</tspan></text>
</g>
<g stroke-width="0.70" style="font:bold 13.00px Times">
<text x="437.00" y="180.40">IV<tspan
	 style="font:italic 11.00px Times">Δ⁷</tspan></text>
</g>
<g stroke-width="0.70" style="font:bold 13.00px Times">
<text x="551.20" y="183.40">iii<tspan
	 style="font:italic 11.00px Times">m⁷</tspan></text>
</g>
<g stroke-width="0.70" style="font:bold 13.00px Times">
<text x="613.20" y="177.40">vi<tspan
	 style="font:italic 11.00px Times">m⁷</tspan></text>
</g>
<g stroke-width="0.70" style="font:italic 11.00px Times">
<use x="22.00" y="208.00" xlink:href="#tclef"/>
<use x="37.00" y="202.00" xlink:href="#ft0"/>
<use x="55.00" y="199.00" xlink:href="#hd"/>
<path d="M51.50 199.00v21.00" class="stroke"/>
<use x="88.20" y="202.00" xlink:href="#hd"/>
<path d="M84.70 202.00v21.00" class="stroke"/>
<use x="121.60" y="205.00" xlink:href="#hd"/>
<path d="M125.10 205.00v-21.00" class="stroke"/>
<use x="169.10" y="205.00" xlink:href="#hd"/>
<path d="M172.60 205.00v-21.00" class="stroke"/>
<use x="202.40" y="208.00" xlink:href="#Hd"/>
<path d="M205.90 208.00v-21.00" class="stroke"/>
<use x="259.50" y="211.00" xlink:href="#Hd"/>
<path d="M263.00 211.00v-21.00" class="stroke"/>
<use x="306.30" y="211.00" xlink:href="#hd"/>
<path d="M309.80 211.00v-21.00" class="stroke"/>
<use x="342.40" y="211.00" xlink:href="#hd"/>
<path d="M345.90 211.00v-21.00" class="stroke"/>
<use x="375.70" y="214.00" xlink:href="#hd"/>
<path d="M379.20 214.00v-21.00" class="stroke"/>
<use x="408.90" y="211.00" xlink:href="#hd"/>
<path d="M412.40 211.00v-21.00" class="stroke"/>
<use x="445.00" y="208.00" xlink:href="#hd"/>
<path d="M448.50 208.00v-21.00" class="stroke"/>
<use x="478.20" y="205.00" xlink:href="#hd"/>
<path d="M481.70 205.00v-21.00" class="stroke"/>
<use x="511.60" y="208.00" xlink:href="#hd"/>
<path d="M515.10 208.00v-21.00" class="stroke"/>
<use x="559.20" y="211.00" xlink:href="#Hd"/>
<circle class="fill" cx="567.90" cy="211.00" r="1.2"/>
<path d="M562.70 211.00v-21.00" class="stroke"/>
<use x="621.20" y="205.00" xlink:href="#Hd"/>
<path d="M624.70 205.00v-21.00" class="stroke"/>
<use x="668.00" y="205.00" xlink:href="#hd"/>
<path d="M671.50 205.00v-21.00" class="stroke"/>
<use x="22.00" y="254.00" xlink:href="#bclef"/>
<use x="37.00" y="266.00" xlink:href="#ft0"/>
<use x="55.00" y="266.00" xlink:href="#hd"/>
<path d="M58.50 266.00v-21.00" class="stroke"/>
<use x="88.20" y="260.00" xlink:href="#hd"/>
<path d="M91.70 260.00v-21.00" class="stroke"/>
<use x="121.60" y="254.00" xlink:href="#hd"/>
<path d="M118.10 254.00v21.00" class="stroke"/>
<use x="169.10" y="278.00" xlink:href="#hl"/>
<use x="169.10" y="284.00" xlink:href="#hl"/>
<use x="169.10" y="290.00" xlink:href="#hl"/>
<use x="169.10" y="290.00" xlink:href="#Hd"/>
<circle class="fill" cx="177.80" cy="287.00" r="1.2"/>
<path d="M172.60 290.00v-58.00" class="stroke"/>
<use x="169.10" y="269.00" xlink:href="#Hd"/>
<circle class="fill" cx="177.80" cy="269.00" r="1.2"/>
<use x="169.10" y="263.00" xlink:href="#Hd"/>
<circle class="fill" cx="177.80" cy="263.00" r="1.2"/>
<use x="169.10" y="257.00" xlink:href="#Hd"/>
<circle class="fill" cx="177.80" cy="257.00" r="1.2"/>
<use x="169.10" y="251.00" xlink:href="#Hd"/>
<circle class="fill" cx="177.80" cy="251.00" r="1.2"/>
<use x="259.50" y="278.00" xlink:href="#hl"/>
<use x="259.50" y="242.00" xlink:href="#hl"/>
<use x="259.50" y="281.00" xlink:href="#Hd"/>
<circle class="fill" cx="268.20" cy="281.00" r="1.2"/>
<path d="M263.00 281.00v-56.00" class="stroke"/>
<use x="259.50" y="260.00" xlink:href="#Hd"/>
<circle class="fill" cx="268.20" cy="257.00" r="1.2"/>
<use x="259.50" y="254.00" xlink:href="#Hd"/>
<circle class="fill" cx="268.20" cy="251.00" r="1.2"/>
<use x="259.50" y="248.00" xlink:href="#Hd"/>
<circle class="fill" cx="268.20" cy="245.00" r="1.2"/>
<use x="259.50" y="242.00" xlink:href="#Hd"/>
<circle class="fill" cx="268.20" cy="239.00" r="1.2"/>
<use x="342.40" y="263.00" xlink:href="#hd"/>
<path d="M345.90 263.00v-21.00" class="stroke"/>
<use x="375.70" y="257.00" xlink:href="#hd"/>
<path d="M372.20 257.00v21.00" class="stroke"/>
<use x="408.90" y="251.00" xlink:href="#hd"/>
<path d="M405.40 251.00v21.00" class="stroke"/>
<use x="445.00" y="266.00" xlink:href="#hd"/>
<path d="M448.50 266.00v-21.00" class="stroke"/>
<use x="478.20" y="260.00" xlink:href="#hd"/>
<path d="M481.70 260.00v-21.00" class="stroke"/>
<use x="511.60" y="254.00" xlink:href="#hd"/>
<path d="M508.10 254.00v21.00" class="stroke"/>
<use x="559.20" y="278.00" xlink:href="#hl"/>
<use x="559.20" y="284.00" xlink:href="#hl"/>
<use x="559.20" y="290.00" xlink:href="#hl"/>
<use x="559.20" y="290.00" xlink:href="#Hd"/>
<circle class="fill" cx="567.90" cy="287.00" r="1.2"/>
<path d="M562.70 290.00v-58.00" class="stroke"/>
<use x="559.20" y="269.00" xlink:href="#Hd"/>
<circle class="fill" cx="567.90" cy="269.00" r="1.2"/>
<use x="559.20" y="263.00" xlink:href="#Hd"/>
<circle class="fill" cx="567.90" cy="263.00" r="1.2"/>
<use x="559.20" y="257.00" xlink:href="#Hd"/>
<circle class="fill" cx="567.90" cy="257.00" r="1.2"/>
<use x="559.20" y="251.00" xlink:href="#Hd"/>
<circle class="fill" cx="567.90" cy="251.00" r="1.2"/>
<use x="621.20" y="278.00" xlink:href="#hl"/>
<use x="621.20" y="242.00" xlink:href="#hl"/>
<use x="621.20" y="281.00" xlink:href="#Hd"/>
<circle class="fill" cx="629.90" cy="281.00" r="1.2"/>
<path d="M624.70 281.00v-56.00" class="stroke"/>
<use x="621.20" y="260.00" xlink:href="#Hd"/>
<circle class="fill" cx="629.90" cy="257.00" r="1.2"/>
<use x="621.20" y="254.00" xlink:href="#Hd"/>
<circle class="fill" cx="629.90" cy="251.00" r="1.2"/>
<use x="621.20" y="248.00" xlink:href="#Hd"/>
<circle class="fill" cx="629.90" cy="245.00" r="1.2"/>
<use x="621.20" y="242.00" xlink:href="#Hd"/>
<circle class="fill" cx="629.90" cy="239.00" r="1.2"/>
<g transform="rotate(270)">
<use x="-293.00" y="159.10" xlink:href="#ltr"/>
<use x="-287.00" y="159.10" xlink:href="#ltr"/>
<use x="-281.00" y="159.10" xlink:href="#ltr"/>
<use x="-275.00" y="159.10" xlink:href="#ltr"/>
<use x="-269.00" y="159.10" xlink:href="#ltr"/>
<use x="-263.00" y="159.10" xlink:href="#ltr"/>
<use x="-257.00" y="159.10" xlink:href="#ltr"/>
<use x="-251.00" y="159.10" xlink:href="#ltr"/>
</g>
<g transform="rotate(270)">
<use x="-284.00" y="249.50" xlink:href="#ltr"/>
<use x="-278.00" y="249.50" xlink:href="#ltr"/>
<use x="-272.00" y="249.50" xlink:href="#ltr"/>
<use x="-266.00" y="249.50" xlink:href="#ltr"/>
<use x="-260.00" y="249.50" xlink:href="#ltr"/>
<use x="-254.00" y="249.50" xlink:href="#ltr"/>
<use x="-248.00" y="249.50" xlink:href="#ltr"/>
<use x="-242.00" y="249.50" xlink:href="#ltr"/>
</g>
<g transform="rotate(270)">
<use x="-293.00" y="549.20" xlink:href="#ltr"/>
<use x="-287.00" y="549.20" xlink:href="#ltr"/>
<use x="-281.00" y="549.20" xlink:href="#ltr"/>
<use x="-275.00" y="549.20" xlink:href="#ltr"/>
<use x="-269.00" y="549.20" xlink:href="#ltr"/>
<use x="-263.00" y="549.20" xlink:href="#ltr"/>
<use x="-257.00" y="549.20" xlink:href="#ltr"/>
<use x="-251.00" y="549.20" xlink:href="#ltr"/>
</g>
<g transform="rotate(270)">
<use x="-284.00" y="611.20" xlink:href="#ltr"/>
<use x="-278.00" y="611.20" xlink:href="#ltr"/>
<use x="-272.00" y="611.20" xlink:href="#ltr"/>
<use x="-266.00" y="611.20" xlink:href="#ltr"/>
<use x="-260.00" y="611.20" xlink:href="#ltr"/>
<use x="-254.00" y="611.20" xlink:href="#ltr"/>
<use x="-248.00" y="611.20" xlink:href="#ltr"/>
<use x="-242.00" y="611.20" xlink:href="#ltr"/>
</g>
</g>
<g stroke-width="0.70" style="font:italic 11.00px Times">
<path class="stroke" stroke-width="1"
	d="M10.00 401.00v-82.00"/>
<g transform="translate(10.00,319.00) scale(1,0.82)">
	<use xlink:href="#brace"/>
</g>
<path class="stroke" stroke-width="1"
	d="M149.90 343.00v-24.00"/>
<path class="stroke" stroke-width="1"
	d="M149.90 401.00v-24.00"/>
<path class="stroke" stroke-width="1"
	d="M257.60 343.00v-24.00"/>
<path class="stroke" stroke-width="1"
	d="M257.60 401.00v-24.00"/>
<path class="stroke" stroke-width="1"
	d="M351.50 343.00v-24.00"/>
<path class="stroke" stroke-width="1"
	d="M351.50 401.00v-24.00"/>
<path class="stroke" stroke-width="1"
	d="M467.70 343.00v-24.00"/>
<path class="stroke" stroke-width="1"
	d="M467.70 401.00v-24.00"/>
<path class="stroke" stroke-width="1"
	d="M575.40 343.00v-24.00"/>
<path class="stroke" stroke-width="1"
	d="M575.40 401.00v-24.00"/>
<path class="stroke" stroke-width="1"
	d="M691.60 343.00v-24.00"/>
<path class="stroke" stroke-width="1"
	d="M691.60 401.00v-24.00"/>
<path d="m10.00 343.00
	h681.60
	M10.00 337.00
	h681.60
	M10.00 331.00
	h681.60
	M10.00 325.00
	h681.60
	M10.00 319.00
	h681.60
	" class="stroke"/>
<path d="m10.00 401.00
	h681.60
	M10.00 395.00
	h681.60
	M10.00 389.00
	h681.60
	M10.00 383.00
	h681.60
	M10.00 377.00
	h681.60
	" class="stroke"/>
</g>
<g stroke-width="0.70" style="font:bold 13.00px Times">
<text x="49.10" y="306.40">V<tspan
	 style="font:italic 11.00px Times">⁷</tspan></text>
</g>
<g stroke-width="0.70" style="font:bold 13.00px Times">
<text x="154.60" y="314.40">IV<tspan
	 style="font:italic 11.00px Times">Δ⁷</tspan></text>
</g>
<g stroke-width="0.70" style="font:bold 13.00px Times">
<text x="273.60" y="306.40">iii<tspan
	 style="font:italic 11.00px Times">m⁷²</tspan></text>
</g>
<g stroke-width="0.70" style="font:bold 13.00px Times">
<text x="367.50" y="309.40">vi<tspan
	 style="font:italic 11.00px Times">m⁷</tspan></text>
</g>
<g stroke-width="0.70" style="font:bold 13.00px Times">
<text x="474.50" y="312.40">V<tspan
	 style="font:italic 11.00px Times">⁷</tspan></text>
</g>
<g stroke-width="0.70" style="font:bold 13.00px Times">
<text x="591.40" y="306.40">IV<tspan
	 style="font:italic 11.00px Times">Δ⁷</tspan></text>
</g>
<g stroke-width="0.70" style="font:italic 11.00px Times">
<use x="22.00" y="337.00" xlink:href="#tclef"/>
<use x="37.00" y="331.00" xlink:href="#ft0"/>
<use x="55.00" y="334.00" xlink:href="#hd"/>
<path d="M58.50 334.00v-21.00" class="stroke"/>
<use x="90.10" y="337.00" xlink:href="#hd"/>
<path d="M93.60 337.00v-21.00" class="stroke"/>
<use x="125.20" y="334.00" xlink:href="#hd"/>
<path d="M128.70 334.00v-21.00" class="stroke"/>
<use x="162.60" y="328.00" xlink:href="#hd"/>
<path d="M159.10 328.00v21.00" class="stroke"/>
<use x="197.70" y="331.00" xlink:href="#hd"/>
<path d="M194.20 331.00v21.00" class="stroke"/>
<use x="232.80" y="334.00" xlink:href="#hd"/>
<path d="M236.30 334.00v-21.00" class="stroke"/>
<use x="281.60" y="334.00" xlink:href="#hd"/>
<path d="M285.10 334.00v-21.00" class="stroke"/>
<use x="316.60" y="337.00" xlink:href="#Hd"/>
<path d="M320.10 337.00v-21.00" class="stroke"/>
<use x="375.50" y="337.00" xlink:href="#Hd"/>
<path d="M379.00 337.00v-21.00" class="stroke"/>
<use x="425.00" y="334.00" xlink:href="#hd"/>
<path d="M428.50 334.00v-21.00" class="stroke"/>
<path class="fill"
	d="M428.50 313.00c0.6 5.6 9.6 9 5.6 18.4
	1.6 -6 -1.3 -11.6 -5.6 -12.8
"/>
<use x="450.10" y="328.00" xlink:href="#hd"/>
<path d="M446.60 328.00v21.00" class="stroke"/>
<path class="fill"
	d="M446.60 349.00c0.6 -5.6 9.6 -9 5.6 -18.4
	1.6 6 -1.3 11.6 -5.6 12.8
"/>
<use x="480.40" y="331.00" xlink:href="#hd"/>
<path d="M476.90 331.00v21.00" class="stroke"/>
<use x="515.60" y="334.00" xlink:href="#hd"/>
<path d="M519.10 334.00v-21.00" class="stroke"/>
<use x="550.60" y="337.00" xlink:href="#hd"/>
<path d="M554.10 337.00v-21.00" class="stroke"/>
<use x="599.40" y="334.00" xlink:href="#Hd"/>
<path d="M602.90 334.00v-21.00" class="stroke"/>
<use x="648.90" y="331.00" xlink:href="#hd"/>
<path d="M652.40 331.00v-21.00" class="stroke"/>
<path class="fill"
	d="M652.40 310.00c0.6 5.6 9.6 9 5.6 18.4
	1.6 -6 -1.3 -11.6 -5.6 -12.8
"/>
<use x="674.00" y="325.00" xlink:href="#hd"/>
<path d="M670.50 325.00v21.00" class="stroke"/>
<path class="fill"
	d="M670.50 346.00c0.6 -5.6 9.6 -9 5.6 -18.4
	1.6 6 -1.3 11.6 -5.6 12.8
"/>
<use x="22.00" y="383.00" xlink:href="#bclef"/>
<use x="37.00" y="395.00" xlink:href="#ft0"/>
<use x="55.00" y="392.00" xlink:href="#hd"/>
<path d="M58.50 392.00v-21.00" class="stroke"/>
<use x="90.10" y="386.00" xlink:href="#hd"/>
<path d="M86.60 386.00v21.00" class="stroke"/>
<use x="125.20" y="380.00" xlink:href="#hd"/>
<path d="M121.70 380.00v21.00" class="stroke"/>
<use x="162.60" y="395.00" xlink:href="#hd"/>
<path d="M166.10 395.00v-21.00" class="stroke"/>
<use x="197.70" y="389.00" xlink:href="#hd"/>
<path d="M201.20 389.00v-21.00" class="stroke"/>
<use x="232.80" y="383.00" xlink:href="#hd"/>
<path d="M229.30 383.00v21.00" class="stroke"/>
<use x="281.60" y="407.00" xlink:href="#hl"/>
<use x="281.60" y="413.00" xlink:href="#hl"/>
<use x="281.60" y="419.00" xlink:href="#hl"/>
<use x="281.60" y="419.00" xlink:href="#Hd"/>
<circle class="fill" cx="290.30" cy="416.00" r="1.2"/>
<path d="M285.10 419.00v-58.00" class="stroke"/>
<use x="281.60" y="398.00" xlink:href="#Hd"/>
<circle class="fill" cx="290.30" cy="398.00" r="1.2"/>
<use x="281.60" y="392.00" xlink:href="#Hd"/>
<circle class="fill" cx="290.30" cy="392.00" r="1.2"/>
<use x="281.60" y="386.00" xlink:href="#Hd"/>
<circle class="fill" cx="290.30" cy="386.00" r="1.2"/>
<use x="281.60" y="380.00" xlink:href="#Hd"/>
<circle class="fill" cx="290.30" cy="380.00" r="1.2"/>
<use x="375.50" y="407.00" xlink:href="#hl"/>
<use x="375.50" y="371.00" xlink:href="#hl"/>
<use x="375.50" y="410.00" xlink:href="#Hd"/>
<circle class="fill" cx="384.20" cy="410.00" r="1.2"/>
<path d="M379.00 410.00v-56.00" class="stroke"/>
<use x="375.50" y="389.00" xlink:href="#Hd"/>
<circle class="fill" cx="384.20" cy="386.00" r="1.2"/>
<use x="375.50" y="383.00" xlink:href="#Hd"/>
<circle class="fill" cx="384.20" cy="380.00" r="1.2"/>
<use x="375.50" y="377.00" xlink:href="#Hd"/>
<circle class="fill" cx="384.20" cy="374.00" r="1.2"/>
<use x="375.50" y="371.00" xlink:href="#Hd"/>
<circle class="fill" cx="384.20" cy="368.00" r="1.2"/>
<use x="480.40" y="392.00" xlink:href="#hd"/>
<path d="M483.90 392.00v-21.00" class="stroke"/>
<use x="515.60" y="386.00" xlink:href="#hd"/>
<path d="M512.10 386.00v21.00" class="stroke"/>
<use x="550.60" y="380.00" xlink:href="#hd"/>
<path d="M547.10 380.00v21.00" class="stroke"/>
<use x="599.40" y="407.00" xlink:href="#hl"/>
<use x="599.40" y="413.00" xlink:href="#hl"/>
<use x="599.40" y="416.00" xlink:href="#Hd"/>
<circle class="fill" cx="608.10" cy="416.00" r="1.2"/>
<path d="M602.90 416.00v-58.00" class="stroke"/>
<use x="599.40" y="395.00" xlink:href="#Hd"/>
<circle class="fill" cx="608.10" cy="392.00" r="1.2"/>
<use x="599.40" y="389.00" xlink:href="#Hd"/>
<circle class="fill" cx="608.10" cy="386.00" r="1.2"/>
<use x="599.40" y="383.00" xlink:href="#Hd"/>
<circle class="fill" cx="608.10" cy="380.00" r="1.2"/>
<use x="599.40" y="377.00" xlink:href="#Hd"/>
<circle class="fill" cx="608.10" cy="374.00" r="1.2"/>
<g transform="rotate(270)">
<use x="-422.00" y="271.60" xlink:href="#ltr"/>
<use x="-416.00" y="271.60" xlink:href="#ltr"/>
<use x="-410.00" y="271.60" xlink:href="#ltr"/>
<use x="-404.00" y="271.60" xlink:href="#ltr"/>
<use x="-398.00" y="271.60" xlink:href="#ltr"/>
<use x="-392.00" y="271.60" xlink:href="#ltr"/>
<use x="-386.00" y="271.60" xlink:href="#ltr"/>
<use x="-380.00" y="271.60" xlink:href="#ltr"/>
</g>
<g transform="rotate(270)">
<use x="-413.00" y="365.50" xlink:href="#ltr"/>
<use x="-407.00" y="365.50" xlink:href="#ltr"/>
<use x="-401.00" y="365.50" xlink:href="#ltr"/>
<use x="-395.00" y="365.50" xlink:href="#ltr"/>
<use x="-389.00" y="365.50" xlink:href="#ltr"/>
<use x="-383.00" y="365.50" xlink:href="#ltr"/>
<use x="-377.00" y="365.50" xlink:href="#ltr"/>
<use x="-371.00" y="365.50" xlink:href="#ltr"/>
</g>
<g transform="rotate(270)">
<use x="-419.00" y="589.40" xlink:href="#ltr"/>
<use x="-413.00" y="589.40" xlink:href="#ltr"/>
<use x="-407.00" y="589.40" xlink:href="#ltr"/>
<use x="-401.00" y="589.40" xlink:href="#ltr"/>
<use x="-395.00" y="589.40" xlink:href="#ltr"/>
<use x="-389.00" y="589.40" xlink:href="#ltr"/>
<use x="-383.00" y="589.40" xlink:href="#ltr"/>
<use x="-377.00" y="589.40" xlink:href="#ltr"/>
</g>
</g>
<g stroke-width="0.70" style="font:italic 11.00px Times">
<path class="stroke" stroke-width="1"
	d="M10.00 535.40v-85.00"/>
<g transform="translate(10.00,450.40) scale(1,0.85)">
	<use xlink:href="#brace"/>
</g>
<path class="stroke" stroke-width="1"
	d="M127.70 474.40v-24.00"/>
<path class="stroke" stroke-width="1"
	d="M127.70 535.40v-24.00"/>
<path class="stroke" stroke-width="1"
	d="M285.20 474.40v-24.00"/>
<path class="stroke" stroke-width="1"
	d="M285.20 535.40v-24.00"/>
<path class="stroke" stroke-width="1"
	d="M444.30 474.40v-24.00"/>
<path class="stroke" stroke-width="1"
	d="M444.30 535.40v-24.00"/>
<path class="stroke" stroke-width="1"
	d="M608.50 474.40v-24.00"/>
<path class="stroke" stroke-width="1"
	d="M608.50 535.40v-24.00"/>
<path class="stroke" stroke-width="1"
	d="M691.60 474.40v-24.00"/>
<path class="stroke" stroke-width="1"
	d="M691.60 535.40v-24.00"/>
<path d="m10.00 474.40
	h681.60
	M10.00 468.40
	h681.60
	M10.00 462.40
	h681.60
	M10.00 456.40
	h681.60
	M10.00 450.40
	h681.60
	" class="stroke"/>
<path d="m10.00 535.40
	h681.60
	M10.00 529.40
	h681.60
	M10.00 523.40
	h681.60
	M10.00 517.40
	h681.60
	M10.00 511.40
	h681.60
	" class="stroke"/>
</g>
<g stroke-width="0.70" style="font:bold 13.00px Times">
<text x="61.50" y="445.80">vi<tspan
	 style="font:italic 11.00px Times">m⁷</tspan></text>
</g>
<g stroke-width="0.70" style="font:bold 13.00px Times">
<text x="140.00" y="445.80">V<tspan
	 style="font:italic 11.00px Times">⁷</tspan></text>
</g>
<g stroke-width="0.70" style="font:bold 13.00px Times">
<text x="302.10" y="445.80">IV<tspan
	 style="font:italic 11.00px Times">Δ⁷</tspan></text>
</g>
<g stroke-width="0.70" style="font:bold 13.00px Times">
<text x="461.20" y="434.80">IV<tspan
	 style="font:italic 11.00px Times">Δ⁷</tspan></text>
</g>
<g stroke-width="0.70" style="font:bold 13.00px Times">
<text x="627.70" y="441.80">I<tspan
	 style="font:italic 11.00px Times">Δ⁷</tspan></text>
</g>
<g stroke-width="0.70" style="font:italic 11.00px Times">
<use x="22.00" y="468.40" xlink:href="#tclef"/>
<use x="37.00" y="462.40" xlink:href="#ft0"/>
<use x="69.50" y="459.40" xlink:href="#Hd"/>
<circle class="fill" cx="79.20" cy="459.40" r="1.2"/>
<path d="M66.00 459.40v21.00" class="stroke"/>
<use x="145.90" y="456.40" xlink:href="#Hd"/>
<path d="M142.40 456.40v21.00" class="stroke"/>
<use x="249.10" y="456.40" xlink:href="#hd"/>
<path d="M245.60 456.40v21.00" class="stroke"/>
<use x="310.10" y="459.40" xlink:href="#hd"/>
<path d="M306.60 459.40v21.00" class="stroke"/>
<use x="361.70" y="462.40" xlink:href="#hd"/>
<path d="M358.20 462.40v21.00" class="stroke"/>
<use x="408.20" y="465.40" xlink:href="#hd"/>
<path d="M411.70 465.40v-21.00" class="stroke"/>
<use x="469.20" y="462.40" xlink:href="#hd"/>
<path d="M472.70 462.40v-21.00" class="stroke"/>
<use x="520.80" y="465.40" xlink:href="#hd"/>
<path d="M524.30 465.40v-21.00" class="stroke"/>
<use x="572.40" y="468.40" xlink:href="#hd"/>
<path d="M575.90 468.40v-21.00" class="stroke"/>
<use x="633.40" y="450.40" xlink:href="#Hd"/>
<circle class="fill" cx="642.10" cy="447.40" r="1.2"/>
<path d="M629.90 450.40v40.00" class="stroke"/>
<use x="633.40" y="471.40" xlink:href="#Hd"/>
<circle class="fill" cx="642.10" cy="471.40" r="1.2"/>
<use x="22.00" y="517.40" xlink:href="#bclef"/>
<use x="37.00" y="529.40" xlink:href="#ft0"/>
<use x="69.50" y="541.40" xlink:href="#hl"/>
<use x="69.50" y="505.40" xlink:href="#hl"/>
<use x="69.50" y="544.40" xlink:href="#Hd"/>
<circle class="fill" cx="79.20" cy="544.40" r="1.2"/>
<path d="M73.00 544.40v-56.00" class="stroke"/>
<use x="69.50" y="523.40" xlink:href="#Hd"/>
<circle class="fill" cx="79.20" cy="520.40" r="1.2"/>
<use x="69.50" y="517.40" xlink:href="#Hd"/>
<circle class="fill" cx="79.20" cy="514.40" r="1.2"/>
<use x="69.50" y="511.40" xlink:href="#Hd"/>
<circle class="fill" cx="79.20" cy="508.40" r="1.2"/>
<use x="69.50" y="505.40" xlink:href="#Hd"/>
<circle class="fill" cx="79.20" cy="502.40" r="1.2"/>
<use x="145.90" y="526.40" xlink:href="#hd"/>
<path d="M149.40 526.40v-21.00" class="stroke"/>
<use x="197.50" y="520.40" xlink:href="#hd"/>
<path d="M194.00 520.40v21.00" class="stroke"/>
<use x="249.10" y="514.40" xlink:href="#hd"/>
<path d="M245.60 514.40v21.00" class="stroke"/>
<use x="310.10" y="541.40" xlink:href="#hl"/>
<use x="310.10" y="547.40" xlink:href="#hl"/>
<use x="310.10" y="550.40" xlink:href="#Hd"/>
<circle class="fill" cx="318.80" cy="550.40" r="1.2"/>
<path d="M313.60 550.40v-58.00" class="stroke"/>
<use x="310.10" y="529.40" xlink:href="#Hd"/>
<circle class="fill" cx="318.80" cy="526.40" r="1.2"/>
<use x="310.10" y="523.40" xlink:href="#Hd"/>
<circle class="fill" cx="318.80" cy="520.40" r="1.2"/>
<use x="310.10" y="517.40" xlink:href="#Hd"/>
<circle class="fill" cx="318.80" cy="514.40" r="1.2"/>
<use x="310.10" y="511.40" xlink:href="#Hd"/>
<circle class="fill" cx="318.80" cy="508.40" r="1.2"/>
<use x="469.20" y="541.40" xlink:href="#hl"/>
<use x="469.20" y="547.40" xlink:href="#hl"/>
<use x="469.20" y="550.40" xlink:href="#Hd"/>
<circle class="fill" cx="477.90" cy="550.40" r="1.2"/>
<path d="M472.70 550.40v-58.00" class="stroke"/>
<use x="469.20" y="529.40" xlink:href="#Hd"/>
<circle class="fill" cx="477.90" cy="526.40" r="1.2"/>
<use x="469.20" y="523.40" xlink:href="#Hd"/>
<circle class="fill" cx="477.90" cy="520.40" r="1.2"/>
<use x="469.20" y="517.40" xlink:href="#Hd"/>
<circle class="fill" cx="477.90" cy="514.40" r="1.2"/>
<use x="469.20" y="511.40" xlink:href="#Hd"/>
<circle class="fill" cx="477.90" cy="508.40" r="1.2"/>
<use x="633.40" y="541.40" xlink:href="#hl"/>
<use x="633.40" y="547.40" xlink:href="#hl"/>
<use x="633.40" y="553.40" xlink:href="#hl"/>
<use x="633.40" y="559.40" xlink:href="#hl"/>
<use x="633.40" y="559.40" xlink:href="#Hd"/>
<circle class="fill" cx="642.10" cy="556.40" r="1.2"/>
<path d="M636.90 559.40v-58.00" class="stroke"/>
<use x="633.40" y="538.40" xlink:href="#Hd"/>
<circle class="fill" cx="642.10" cy="538.40" r="1.2"/>
<use x="633.40" y="532.40" xlink:href="#Hd"/>
<circle class="fill" cx="642.10" cy="532.40" r="1.2"/>
<use x="633.40" y="526.40" xlink:href="#Hd"/>
<circle class="fill" cx="642.10" cy="526.40" r="1.2"/>
<use x="633.40" y="520.40" xlink:href="#Hd"/>
<circle class="fill" cx="642.10" cy="520.40" r="1.2"/>
<g transform="rotate(270)">
<use x="-547.40" y="59.50" xlink:href="#ltr"/>
<use x="-541.40" y="59.50" xlink:href="#ltr"/>
<use x="-535.40" y="59.50" xlink:href="#ltr"/>
<use x="-529.40" y="59.50" xlink:href="#ltr"/>
<use x="-523.40" y="59.50" xlink:href="#ltr"/>
<use x="-517.40" y="59.50" xlink:href="#ltr"/>
<use x="-511.40" y="59.50" xlink:href="#ltr"/>
<use x="-505.40" y="59.50" xlink:href="#ltr"/>
</g>
<g transform="rotate(270)">
<use x="-553.40" y="300.10" xlink:href="#ltr"/>
<use x="-547.40" y="300.10" xlink:href="#ltr"/>
<use x="-541.40" y="300.10" xlink:href="#ltr"/>
<use x="-535.40" y="300.10" xlink:href="#ltr"/>
<use x="-529.40" y="300.10" xlink:href="#ltr"/>
<use x="-523.40" y="300.10" xlink:href="#ltr"/>
<use x="-517.40" y="300.10" xlink:href="#ltr"/>
<use x="-511.40" y="300.10" xlink:href="#ltr"/>
</g>
<g transform="rotate(270)">
<use x="-553.40" y="459.20" xlink:href="#ltr"/>
<use x="-547.40" y="459.20" xlink:href="#ltr"/>
<use x="-541.40" y="459.20" xlink:href="#ltr"/>
<use x="-535.40" y="459.20" xlink:href="#ltr"/>
<use x="-529.40" y="459.20" xlink:href="#ltr"/>
<use x="-523.40" y="459.20" xlink:href="#ltr"/>
<use x="-517.40" y="459.20" xlink:href="#ltr"/>
<use x="-511.40" y="459.20" xlink:href="#ltr"/>
</g>
<g transform="rotate(270)">
<use x="-562.40" y="623.40" xlink:href="#ltr"/>
<use x="-556.40" y="623.40" xlink:href="#ltr"/>
<use x="-550.40" y="623.40" xlink:href="#ltr"/>
<use x="-544.40" y="623.40" xlink:href="#ltr"/>
<use x="-538.40" y="623.40" xlink:href="#ltr"/>
<use x="-532.40" y="623.40" xlink:href="#ltr"/>
<use x="-526.40" y="623.40" xlink:href="#ltr"/>
<use x="-520.40" y="623.40" xlink:href="#ltr"/>
</g>
</g>
</svg>
