<?xml version="1.0" standalone="no"?>
<!DOCTYPE svg PUBLIC "-//W3C//DTD SVG 1.1//EN"
	"http://www.w3.org/Graphics/SVG/1.1/DTD/svg11.dtd">
<svg xmlns="http://www.w3.org/2000/svg" version="1.1"
	xmlns:xlink="http://www.w3.org/1999/xlink"
	color="black"
	width="701.60px" height="429.00px" viewBox="0 0 701.60 429.00" preserveAspectRatio="xMidYMid meet">
<style type="text/css">
.fill {fill: currentColor}
.stroke {stroke: currentColor; fill: none}
text{white-space: pre}
</style>
<title>/tmp/reharm_hymnal_L7/in_peace_and_joy_i_now_depart.abc (1) tune 1</title>
<!-- Creator: abcm2ps-8.14.11 -->
<!-- CreationDate: Apr 24, 2026 15:32 -->
<!-- CommandLine: /tmp/reharm_hymnal_L7/in_peace_and_joy_i_now_depart.abc -g -O /tmp/reharm_hymnal_L7/in_peace_and_joy_i_now_depart -->
<g stroke-width="0.70">
<!-- title: 113. In Peace and Joy I Now Depart -->
</g>
<g stroke-width="0.70" style="font:20.00px Times">
<text x="350.80" y="22.00" text-anchor="middle">113. In Peace and Joy I Now Depart</text>
</g>
<g stroke-width="0.70" style="font:20.00px Times">
<path class="stroke" stroke-width="1"
	d="M10.00 143.00v-82.00"/>
<defs>
<path id="brace" class="fill" d="m-2.5 101
	c-4.5 -4.6 -7.5 -12.2 -4.4 -26.8
	3.5 -14.3 3.2 -21.7 -2.1 -24.2
	7.4 2.4 7.3 14.2 3.5 29.5
	-2.7 9.5 -1.5 16.2 3 21.5
	M-2.5 1c-4.5 4.6 -7.5 12.2 -4.4 26.8
	c3.5 14.3 3.2 21.7 -2.1 24.2
	7.4 -2.4 7.3 -14.2 3.5 -29.5
	-2.7 -9.5 -1.5 -16.2 3 -21.5"/>
</defs>
<g transform="translate(10.00,61.00) scale(1,0.82)">
	<use xlink:href="#brace"/>
</g>
<path class="stroke" stroke-width="1"
	d="M179.10 85.00v-24.00"/>
<path class="stroke" stroke-width="1"
	d="M179.10 143.00v-24.00"/>
<path class="stroke" stroke-width="1"
	d="M302.00 85.00v-24.00"/>
<path class="stroke" stroke-width="1"
	d="M302.00 143.00v-24.00"/>
<path class="stroke" stroke-width="1"
	d="M398.60 85.00v-24.00"/>
<path class="stroke" stroke-width="1"
	d="M398.60 143.00v-24.00"/>
<path class="stroke" stroke-width="1"
	d="M545.10 85.00v-24.00"/>
<path class="stroke" stroke-width="1"
	d="M545.10 143.00v-24.00"/>
<path class="stroke" stroke-width="1"
	d="M691.60 85.00v-24.00"/>
<path class="stroke" stroke-width="1"
	d="M691.60 143.00v-24.00"/>
<path d="m10.00 85.00
	h681.60
	M10.00 79.00
	h681.60
	M10.00 73.00
	h681.60
	M10.00 67.00
	h681.60
	M10.00 61.00
	h681.60
	" class="stroke"/>
<path d="m10.00 143.00
	h681.60
	M10.00 137.00
	h681.60
	M10.00 131.00
	h681.60
	M10.00 125.00
	h681.60
	M10.00 119.00
	h681.60
	" class="stroke"/>
</g>
<g stroke-width="0.70" style="font:bold 13.00px Times">
<text x="78.50" y="56.40">vi<tspan
	 style="font:italic 11.00px Times">m⁷</tspan></text>
</g>
<g stroke-width="0.70" style="font:bold 13.00px Times">
<text x="185.70" y="51.40">V<tspan
	 style="font:italic 11.00px Times">⁷</tspan></text>
</g>
<g stroke-width="0.70" style="font:bold 13.00px Times">
<text x="319.00" y="48.40">IV<tspan
	 style="font:italic 11.00px Times">Δ⁷</tspan></text>
</g>
<g stroke-width="0.70" style="font:bold 13.00px Times">
<text x="415.60" y="48.40">vi<tspan
	 style="font:italic 11.00px Times">m⁷</tspan></text>
</g>
<g stroke-width="0.70" style="font:bold 13.00px Times">
<text x="551.70" y="48.40">V<tspan
	 style="font:italic 11.00px Times">⁷</tspan></text>
</g>
<g stroke-width="0.70" style="font:italic 11.00px Times">
<defs>
<path id="utclef" class="fill" d="m-50 -90
	c-72 -41 -72 -158 52 -188
	150 -10 220 188 90 256
	-114 52 -275 0 -293 -136
	-15 -181 93 -229 220 -334
	88 -87 79 -133 62 -210
	-51 33 -94 105 -89 186
	17 267 36 374 49 574
	6 96 -19 134 -77 135
	-80 1 -126 -93 -61 -133
	85 -41 133 101 31 105
	23 17 92 37 90 -92
	-10 -223 -39 -342 -50 -617
	0 -90 0 -162 96 -232
	56 72 63 230 22 289
	-74 106 -257 168 -255 316
	9 153 148 185 252 133
	86 -65 29 -192 -80 -176
	-71 12 -105 67 -59 124"/>
<use id="tclef" transform="translate(0,6) scale(0.045)"
	xlink:href="#utclef"/>
</defs>
<use x="22.00" y="79.00" xlink:href="#tclef"/>
<defs>
<path id="uflat" class="fill" d="
	m100 -746
	h32
	v734
	l-32 4
	m32 -332
	c46 -72 152 -90 208 -20
	100 110 -120 326 -208 348
	m0 -28
	c54 0 200 -206 130 -290
	-50 -60 -130 -4 -130 34"/>
<use id="ft0" transform="translate(-3.5,3.5) scale(0.018)"
	xlink:href="#uflat"/>
</defs>
<use x="37.00" y="73.00" xlink:href="#ft0"/>
<g style="font:bold 16px serif"
	transform="translate(53.00,84.50) scale(1.2,1)">
	<text text-anchor="middle">4</text>
	<text y="-12" text-anchor="middle">4</text>
</g>
<defs>
<path id="Hd" class="fill" d="m3 -1.6
	c-1 -1.8 -7 1.4 -6 3.2
	1 1.8 7 -1.4 6 -3.2
	m0.5 -0.3
	c2 3.8 -5 7.6 -7 3.8
	-2 -3.8 5 -7.6 7 -3.8"/>
</defs>
<use x="86.50" y="88.00" xlink:href="#Hd"/>
<path d="M90.00 88.00v-21.00" class="stroke"/>
<defs>
<ellipse id="hd" rx="4.1" ry="2.9"
	transform="rotate(-20)" class="fill"/>
</defs>
<use x="128.20" y="76.00" xlink:href="#hd"/>
<path d="M131.70 76.00v-21.00" class="stroke"/>
<use x="157.80" y="76.00" xlink:href="#hd"/>
<path d="M161.30 76.00v-21.00" class="stroke"/>
<use x="191.60" y="79.00" xlink:href="#hd"/>
<path d="M195.10 79.00v-21.00" class="stroke"/>
<use x="221.40" y="67.00" xlink:href="#hd"/>
<path d="M217.90 67.00v21.00" class="stroke"/>
<use x="251.10" y="70.00" xlink:href="#hd"/>
<path d="M247.60 70.00v21.00" class="stroke"/>
<use x="280.70" y="73.00" xlink:href="#hd"/>
<path d="M277.20 73.00v21.00" class="stroke"/>
<use x="327.00" y="76.00" xlink:href="#Hd"/>
<path d="M330.50 76.00v-21.00" class="stroke"/>
<use x="368.90" y="70.00" xlink:href="#Hd"/>
<path d="M365.40 70.00v21.00" class="stroke"/>
<use x="423.60" y="76.00" xlink:href="#hd"/>
<path d="M427.10 76.00v-21.00" class="stroke"/>
<use x="453.40" y="70.00" xlink:href="#hd"/>
<path d="M449.90 70.00v21.00" class="stroke"/>
<use x="483.10" y="73.00" xlink:href="#hd"/>
<path d="M479.60 73.00v21.00" class="stroke"/>
<path class="fill"
	d="M479.60 94.00c0.6 -5.6 9.6 -9 5.6 -18.4
	1.6 6 -1.3 11.6 -5.6 12.8
"/>
<use x="502.20" y="76.00" xlink:href="#hd"/>
<path d="M505.70 76.00v-21.00" class="stroke"/>
<path class="fill"
	d="M505.70 55.00c0.6 5.6 9.6 9 5.6 18.4
	1.6 -6 -1.3 -11.6 -5.6 -12.8
"/>
<use x="523.80" y="73.00" xlink:href="#hd"/>
<path d="M527.30 73.00v-21.00" class="stroke"/>
<use x="557.60" y="76.00" xlink:href="#hd"/>
<path d="M561.10 76.00v-21.00" class="stroke"/>
<defs>
<path id="r8e" class="fill" d="m 0 0
	c-1.5 1.5 -2.4 2 -3.6 2
	2.4 -2.8 -2.8 -4 -2.8 -1.2
	c0 2.7 4.3 2.4 5.9 0.6"/>
<g id="r8">
	<path d="m3.3 -4l-3.4 9.6" class="stroke"/>
	<use x="3.4" y="-4" xlink:href="#r8e"/>
</g>
</defs>
<use x="584.60" y="73.00" xlink:href="#r8"/>
<use x="603.70" y="76.00" xlink:href="#hd"/>
<path d="M607.20 76.00v-21.00" class="stroke"/>
<path class="fill"
	d="M607.20 55.00c0.6 5.6 9.6 9 5.6 18.4
	1.6 -6 -1.3 -11.6 -5.6 -12.8
"/>
<use x="625.50" y="70.00" xlink:href="#hd"/>
<circle class="fill" cx="633.20" cy="70.00" r="1.2"/>
<path d="M622.00 70.00v21.00" class="stroke"/>
<use x="676.20" y="73.00" xlink:href="#hd"/>
<path d="M672.70 73.00v21.00" class="stroke"/>
<path class="fill"
	d="M672.70 94.00c0.6 -5.6 9.6 -9 5.6 -18.4
	1.6 6 -1.3 11.6 -5.6 12.8
"/>
<defs>
<path id="ubclef" class="fill" d="m-200 -87
	c124 -35 222 -78 254 -236
	43 -228 -167 -246 -192 -103
	59 -80 157 22 92 78
	-62 47 -115 -22 -106 -88
	21 -141 270 -136 274 52
	-1 175 -106 264 -322 297
	m357 -250
	c0 -36 51 -34 51 0
	0 37 -51 36 -51 0
	m-2 -129
	c0 -36 51 -34 51 0
	0 38 -51 37 -51 0"/>
<use id="bclef" transform="translate(0,18) scale(0.045)"
	xlink:href="#ubclef"/>
</defs>
<use x="22.00" y="125.00" xlink:href="#bclef"/>
<use x="37.00" y="137.00" xlink:href="#ft0"/>
<g style="font:bold 16px serif"
	transform="translate(53.00,142.50) scale(1.2,1)">
	<text text-anchor="middle">4</text>
	<text y="-12" text-anchor="middle">4</text>
</g>
<defs>
<path id="hl1" class="stroke" d="m-7 0h14"/>
</defs>
<use x="87.50" y="149.00" xlink:href="#hl1"/>
<use x="87.50" y="113.00" xlink:href="#hl1"/>
<defs>
<path id="HD" class="fill" d="m-2.7 -1.4
	c1.5 -2.8 6.9 0 5.3 2.7
	-1.5 2.8 -6.9 0 -5.3 -2.7
	m8.3 1.4
	c0 -1.5 -2.2 -3 -5.6 -3
	-3.4 0 -5.6 1.5 -5.6 3
	0 1.5 2.2 3 5.6 3
	3.4 0 5.6 -1.5 5.6 -3"/>
</defs>
<use x="87.50" y="152.00" xlink:href="#HD"/>
<use x="87.50" y="131.00" xlink:href="#HD"/>
<use x="87.50" y="125.00" xlink:href="#HD"/>
<use x="87.50" y="119.00" xlink:href="#HD"/>
<use x="87.50" y="113.00" xlink:href="#HD"/>
<use x="191.60" y="134.00" xlink:href="#hd"/>
<path d="M195.10 134.00v-21.00" class="stroke"/>
<use x="221.40" y="128.00" xlink:href="#hd"/>
<path d="M217.90 128.00v21.00" class="stroke"/>
<use x="251.10" y="122.00" xlink:href="#hd"/>
<path d="M247.60 122.00v21.00" class="stroke"/>
<use x="280.70" y="116.00" xlink:href="#hd"/>
<path d="M277.20 116.00v21.00" class="stroke"/>
<use x="328.00" y="149.00" xlink:href="#hl1"/>
<use x="328.00" y="155.00" xlink:href="#hl1"/>
<use x="328.00" y="158.00" xlink:href="#HD"/>
<use x="328.00" y="137.00" xlink:href="#HD"/>
<use x="328.00" y="131.00" xlink:href="#HD"/>
<use x="328.00" y="125.00" xlink:href="#HD"/>
<use x="328.00" y="119.00" xlink:href="#HD"/>
<use x="424.60" y="149.00" xlink:href="#hl1"/>
<use x="424.60" y="113.00" xlink:href="#hl1"/>
<use x="424.60" y="152.00" xlink:href="#HD"/>
<use x="424.60" y="131.00" xlink:href="#HD"/>
<use x="424.60" y="125.00" xlink:href="#HD"/>
<use x="424.60" y="119.00" xlink:href="#HD"/>
<use x="424.60" y="113.00" xlink:href="#HD"/>
<use x="557.60" y="134.00" xlink:href="#hd"/>
<path d="M561.10 134.00v-21.00" class="stroke"/>
<use x="584.60" y="128.00" xlink:href="#hd"/>
<path d="M581.10 128.00v21.00" class="stroke"/>
<use x="625.50" y="122.00" xlink:href="#hd"/>
<path d="M622.00 122.00v21.00" class="stroke"/>
<use x="655.20" y="116.00" xlink:href="#hd"/>
<path d="M651.70 116.00v21.00" class="stroke"/>
<defs>
<path id="ltr" class="fill"
    d="m0 -0.4c2 -1.5 3.4 -1.9 3.9 0.4
	c0.2 0.8 0.7 0.7 2.1 -0.4
	v0.8c-2 1.5 -3.4 1.9 -3.9 -0.4
	c-0.2 -0.8 -0.7 -0.7 -2.1 0.4z"/>
</defs>
<g transform="rotate(270)">
<use x="-155.00" y="74.00" xlink:href="#ltr"/>
<use x="-149.00" y="74.00" xlink:href="#ltr"/>
<use x="-143.00" y="74.00" xlink:href="#ltr"/>
<use x="-137.00" y="74.00" xlink:href="#ltr"/>
<use x="-131.00" y="74.00" xlink:href="#ltr"/>
<use x="-125.00" y="74.00" xlink:href="#ltr"/>
<use x="-119.00" y="74.00" xlink:href="#ltr"/>
<use x="-113.00" y="74.00" xlink:href="#ltr"/>
</g>
<g transform="rotate(270)">
<use x="-161.00" y="314.50" xlink:href="#ltr"/>
<use x="-155.00" y="314.50" xlink:href="#ltr"/>
<use x="-149.00" y="314.50" xlink:href="#ltr"/>
<use x="-143.00" y="314.50" xlink:href="#ltr"/>
<use x="-137.00" y="314.50" xlink:href="#ltr"/>
<use x="-131.00" y="314.50" xlink:href="#ltr"/>
<use x="-125.00" y="314.50" xlink:href="#ltr"/>
<use x="-119.00" y="314.50" xlink:href="#ltr"/>
</g>
<g transform="rotate(270)">
<use x="-155.00" y="411.10" xlink:href="#ltr"/>
<use x="-149.00" y="411.10" xlink:href="#ltr"/>
<use x="-143.00" y="411.10" xlink:href="#ltr"/>
<use x="-137.00" y="411.10" xlink:href="#ltr"/>
<use x="-131.00" y="411.10" xlink:href="#ltr"/>
<use x="-125.00" y="411.10" xlink:href="#ltr"/>
<use x="-119.00" y="411.10" xlink:href="#ltr"/>
<use x="-113.00" y="411.10" xlink:href="#ltr"/>
</g>
</g>
<g stroke-width="0.70" style="font:italic 11.00px Times">
<path class="stroke" stroke-width="1"
	d="M10.00 271.00v-82.00"/>
<g transform="translate(10.00,189.00) scale(1,0.82)">
	<use xlink:href="#brace"/>
</g>
<path class="stroke" stroke-width="1"
	d="M183.60 213.00v-24.00"/>
<path class="stroke" stroke-width="1"
	d="M183.60 271.00v-24.00"/>
<path class="stroke" stroke-width="1"
	d="M298.40 213.00v-24.00"/>
<path class="stroke" stroke-width="1"
	d="M298.40 271.00v-24.00"/>
<path class="stroke" stroke-width="1"
	d="M408.90 213.00v-24.00"/>
<path class="stroke" stroke-width="1"
	d="M408.90 271.00v-24.00"/>
<path class="stroke" stroke-width="1"
	d="M537.00 213.00v-24.00"/>
<path class="stroke" stroke-width="1"
	d="M537.00 271.00v-24.00"/>
<path class="stroke" stroke-width="1"
	d="M691.60 213.00v-24.00"/>
<path class="stroke" stroke-width="1"
	d="M691.60 271.00v-24.00"/>
<path d="m10.00 213.00
	h681.60
	M10.00 207.00
	h681.60
	M10.00 201.00
	h681.60
	M10.00 195.00
	h681.60
	M10.00 189.00
	h681.60
	" class="stroke"/>
<path d="m10.00 271.00
	h681.60
	M10.00 265.00
	h681.60
	M10.00 259.00
	h681.60
	M10.00 253.00
	h681.60
	M10.00 247.00
	h681.60
	" class="stroke"/>
</g>
<g stroke-width="0.70" style="font:bold 13.00px Times">
<text x="47.00" y="176.40">IV<tspan
	 style="font:italic 11.00px Times">Δ⁷²</tspan></text>
</g>
<g stroke-width="0.70" style="font:bold 13.00px Times">
<text x="200.60" y="184.40">iii<tspan
	 style="font:italic 11.00px Times">m⁷</tspan></text>
</g>
<g stroke-width="0.70" style="font:bold 13.00px Times">
<text x="315.40" y="182.40">vi<tspan
	 style="font:italic 11.00px Times">m⁷</tspan></text>
</g>
<g stroke-width="0.70" style="font:bold 13.00px Times">
<text x="428.00" y="176.40">V<tspan
	 style="font:italic 11.00px Times">⁷</tspan></text>
</g>
<g stroke-width="0.70" style="font:bold 13.00px Times">
<text x="556.30" y="184.40">I<tspan
	 style="font:italic 11.00px Times">Δ⁷</tspan></text>
</g>
<g stroke-width="0.70" style="font:italic 11.00px Times">
<use x="22.00" y="207.00" xlink:href="#tclef"/>
<use x="37.00" y="201.00" xlink:href="#ft0"/>
<use x="55.00" y="198.00" xlink:href="#hd"/>
<path d="M51.50 198.00v21.00" class="stroke"/>
<use x="83.40" y="204.00" xlink:href="#hd"/>
<path d="M86.90 204.00v-21.00" class="stroke"/>
<path class="fill"
	d="M86.90 183.00c0.6 5.6 9.6 9 5.6 18.4
	1.6 -6 -1.3 -11.6 -5.6 -12.8
"/>
<use x="104.30" y="207.00" xlink:href="#hd"/>
<path d="M107.80 207.00v-21.00" class="stroke"/>
<use x="142.10" y="210.00" xlink:href="#hd"/>
<path d="M145.60 210.00v-21.00" class="stroke"/>
<path class="fill"
	d="M145.60 189.00c0.6 5.6 9.6 9 5.6 18.4
	1.6 -6 -1.3 -11.6 -5.6 -12.8
"/>
<use x="163.00" y="213.00" xlink:href="#hd"/>
<path d="M166.50 213.00v-21.00" class="stroke"/>
<use x="208.60" y="216.00" xlink:href="#Hd"/>
<path d="M212.10 216.00v-21.00" class="stroke"/>
<use x="248.40" y="204.00" xlink:href="#hd"/>
<circle class="fill" cx="256.10" cy="204.00" r="1.2"/>
<path d="M251.90 204.00v-21.00" class="stroke"/>
<use x="281.40" y="207.00" xlink:href="#hd"/>
<path d="M284.90 207.00v-21.00" class="stroke"/>
<path class="fill"
	d="M284.90 186.00c0.6 5.6 9.6 9 5.6 18.4
	1.6 -6 -1.3 -11.6 -5.6 -12.8
"/>
<use x="323.40" y="210.00" xlink:href="#hd"/>
<path d="M326.90 210.00v-21.00" class="stroke"/>
<use x="351.80" y="216.00" xlink:href="#hd"/>
<path d="M355.30 216.00v-21.00" class="stroke"/>
<defs>
<path id="hl" class="stroke" d="m-6 0h12"/>
</defs>
<use x="380.30" y="219.00" xlink:href="#hl"/>
<use x="380.30" y="219.00" xlink:href="#Hd"/>
<path d="M383.80 219.00v-21.00" class="stroke"/>
<use x="433.90" y="204.00" xlink:href="#hd"/>
<circle class="fill" cx="441.60" cy="204.00" r="1.2"/>
<path d="M437.40 204.00v-21.00" class="stroke"/>
<use x="466.90" y="207.00" xlink:href="#hd"/>
<path d="M470.40 207.00v-21.00" class="stroke"/>
<path class="fill"
	d="M470.40 186.00c0.6 5.6 9.6 9 5.6 18.4
	1.6 -6 -1.3 -11.6 -5.6 -12.8
"/>
<use x="487.80" y="210.00" xlink:href="#hd"/>
<path d="M491.30 210.00v-21.00" class="stroke"/>
<use x="516.50" y="198.00" xlink:href="#hd"/>
<path d="M513.00 198.00v21.00" class="stroke"/>
<use x="562.00" y="198.00" xlink:href="#hd"/>
<path d="M558.50 198.00v21.00" class="stroke"/>
<path class="fill"
	d="M558.50 219.00c0.6 -5.6 9.6 -9 5.6 -18.4
	1.6 6 -1.3 11.6 -5.6 12.8
"/>
<use x="582.40" y="201.00" xlink:href="#hd"/>
<path d="M578.90 201.00v21.00" class="stroke"/>
<path class="fill"
	d="M578.90 222.00c0.6 -5.6 9.6 -9 5.6 -18.4
	1.6 6 -1.3 11.6 -5.6 12.8
"/>
<use x="600.90" y="204.00" xlink:href="#hd"/>
<path d="M604.40 204.00v-21.00" class="stroke"/>
<use x="629.30" y="207.00" xlink:href="#hd"/>
<path d="M632.80 207.00v-21.00" class="stroke"/>
<path class="fill"
	d="M632.80 186.00c0.6 5.6 9.6 9 5.6 18.4
	1.6 -6 -1.3 -11.6 -5.6 -12.8
"/>
<use x="650.20" y="210.00" xlink:href="#hd"/>
<path d="M653.70 210.00v-21.00" class="stroke"/>
<path class="fill"
	d="M653.70 189.00c0.6 5.6 9.6 9 5.6 18.4
	1.6 -6 -1.3 -11.6 -5.6 -12.8
"/>
<use x="671.00" y="207.00" xlink:href="#hd"/>
<path d="M674.50 207.00v-21.00" class="stroke"/>
<use x="22.00" y="253.00" xlink:href="#bclef"/>
<use x="37.00" y="265.00" xlink:href="#ft0"/>
<use x="55.00" y="265.00" xlink:href="#hd"/>
<path d="M58.50 265.00v-21.00" class="stroke"/>
<use x="83.40" y="259.00" xlink:href="#hd"/>
<path d="M86.90 259.00v-21.00" class="stroke"/>
<use x="123.70" y="253.00" xlink:href="#hd"/>
<path d="M120.20 253.00v21.00" class="stroke"/>
<use x="163.00" y="247.00" xlink:href="#hd"/>
<path d="M159.50 247.00v21.00" class="stroke"/>
<use x="209.60" y="277.00" xlink:href="#hl1"/>
<use x="209.60" y="283.00" xlink:href="#hl1"/>
<use x="209.60" y="289.00" xlink:href="#hl1"/>
<use x="209.60" y="289.00" xlink:href="#HD"/>
<use x="209.60" y="268.00" xlink:href="#HD"/>
<use x="209.60" y="262.00" xlink:href="#HD"/>
<use x="209.60" y="256.00" xlink:href="#HD"/>
<use x="209.60" y="250.00" xlink:href="#HD"/>
<use x="324.40" y="277.00" xlink:href="#hl1"/>
<use x="324.40" y="241.00" xlink:href="#hl1"/>
<use x="324.40" y="280.00" xlink:href="#HD"/>
<use x="324.40" y="259.00" xlink:href="#HD"/>
<use x="324.40" y="253.00" xlink:href="#HD"/>
<use x="324.40" y="247.00" xlink:href="#HD"/>
<use x="324.40" y="241.00" xlink:href="#HD"/>
<use x="434.90" y="277.00" xlink:href="#hl1"/>
<use x="434.90" y="283.00" xlink:href="#hl1"/>
<use x="434.90" y="283.00" xlink:href="#HD"/>
<use x="434.90" y="262.00" xlink:href="#HD"/>
<use x="434.90" y="256.00" xlink:href="#HD"/>
<use x="434.90" y="250.00" xlink:href="#HD"/>
<use x="434.90" y="244.00" xlink:href="#HD"/>
<use x="563.00" y="277.00" xlink:href="#hl1"/>
<use x="563.00" y="283.00" xlink:href="#hl1"/>
<use x="563.00" y="289.00" xlink:href="#hl1"/>
<use x="563.00" y="295.00" xlink:href="#hl1"/>
<use x="563.00" y="295.00" xlink:href="#HD"/>
<use x="563.00" y="274.00" xlink:href="#HD"/>
<use x="563.00" y="268.00" xlink:href="#HD"/>
<use x="563.00" y="262.00" xlink:href="#HD"/>
<use x="563.00" y="256.00" xlink:href="#HD"/>
<g transform="rotate(270)">
<use x="-292.00" y="196.10" xlink:href="#ltr"/>
<use x="-286.00" y="196.10" xlink:href="#ltr"/>
<use x="-280.00" y="196.10" xlink:href="#ltr"/>
<use x="-274.00" y="196.10" xlink:href="#ltr"/>
<use x="-268.00" y="196.10" xlink:href="#ltr"/>
<use x="-262.00" y="196.10" xlink:href="#ltr"/>
<use x="-256.00" y="196.10" xlink:href="#ltr"/>
<use x="-250.00" y="196.10" xlink:href="#ltr"/>
</g>
<g transform="rotate(270)">
<use x="-283.00" y="310.90" xlink:href="#ltr"/>
<use x="-277.00" y="310.90" xlink:href="#ltr"/>
<use x="-271.00" y="310.90" xlink:href="#ltr"/>
<use x="-265.00" y="310.90" xlink:href="#ltr"/>
<use x="-259.00" y="310.90" xlink:href="#ltr"/>
<use x="-253.00" y="310.90" xlink:href="#ltr"/>
<use x="-247.00" y="310.90" xlink:href="#ltr"/>
<use x="-241.00" y="310.90" xlink:href="#ltr"/>
</g>
<g transform="rotate(270)">
<use x="-286.00" y="421.40" xlink:href="#ltr"/>
<use x="-280.00" y="421.40" xlink:href="#ltr"/>
<use x="-274.00" y="421.40" xlink:href="#ltr"/>
<use x="-268.00" y="421.40" xlink:href="#ltr"/>
<use x="-262.00" y="421.40" xlink:href="#ltr"/>
<use x="-256.00" y="421.40" xlink:href="#ltr"/>
<use x="-250.00" y="421.40" xlink:href="#ltr"/>
<use x="-244.00" y="421.40" xlink:href="#ltr"/>
</g>
<g transform="rotate(270)">
<use x="-298.00" y="549.50" xlink:href="#ltr"/>
<use x="-292.00" y="549.50" xlink:href="#ltr"/>
<use x="-286.00" y="549.50" xlink:href="#ltr"/>
<use x="-280.00" y="549.50" xlink:href="#ltr"/>
<use x="-274.00" y="549.50" xlink:href="#ltr"/>
<use x="-268.00" y="549.50" xlink:href="#ltr"/>
<use x="-262.00" y="549.50" xlink:href="#ltr"/>
<use x="-256.00" y="549.50" xlink:href="#ltr"/>
</g>
</g>
<g stroke-width="0.70" style="font:italic 11.00px Times">
<path class="stroke" stroke-width="1"
	d="M10.00 406.00v-82.00"/>
<g transform="translate(10.00,324.00) scale(1,0.82)">
	<use xlink:href="#brace"/>
</g>
<path class="stroke" stroke-width="1"
	d="M215.60 348.00v-24.00"/>
<path class="stroke" stroke-width="1"
	d="M215.60 406.00v-24.00"/>
<path class="stroke" stroke-width="1"
	d="M394.30 348.00v-24.00"/>
<path class="stroke" stroke-width="1"
	d="M394.30 406.00v-24.00"/>
<path class="stroke" stroke-width="1"
	d="M475.30 348.00v-24.00"/>
<path class="stroke" stroke-width="1"
	d="M475.30 406.00v-24.00"/>
<path d="m10.00 348.00
	h465.30
	M10.00 342.00
	h465.30
	M10.00 336.00
	h465.30
	M10.00 330.00
	h465.30
	M10.00 324.00
	h465.30
	" class="stroke"/>
<path d="m10.00 406.00
	h465.30
	M10.00 400.00
	h465.30
	M10.00 394.00
	h465.30
	M10.00 388.00
	h465.30
	M10.00 382.00
	h465.30
	" class="stroke"/>
</g>
<g stroke-width="0.70" style="font:bold 13.00px Times">
<text x="49.30" y="311.40">I<tspan
	 style="font:italic 11.00px Times">Δ⁷</tspan></text>
</g>
<g stroke-width="0.70" style="font:bold 13.00px Times">
<text x="221.80" y="319.40">vi<tspan
	 style="font:italic 11.00px Times">m⁷</tspan></text>
</g>
<g stroke-width="0.70" style="font:bold 13.00px Times">
<text x="411.30" y="319.40">vi<tspan
	 style="font:italic 11.00px Times">m⁷</tspan></text>
</g>
<g stroke-width="0.70" style="font:italic 11.00px Times">
<use x="22.00" y="342.00" xlink:href="#tclef"/>
<use x="37.00" y="336.00" xlink:href="#ft0"/>
<use x="55.00" y="339.00" xlink:href="#hd"/>
<path d="M58.50 339.00v-21.00" class="stroke"/>
<use x="91.00" y="336.00" xlink:href="#r8"/>
<use x="119.30" y="342.00" xlink:href="#hd"/>
<path d="M122.80 342.00v-21.00" class="stroke"/>
<path class="fill"
	d="M122.80 321.00c0.6 5.6 9.6 9 5.6 18.4
	1.6 -6 -1.3 -11.6 -5.6 -12.8
"/>
<use x="147.60" y="345.00" xlink:href="#hd"/>
<path d="M151.10 345.00v-21.00" class="stroke"/>
<use x="187.60" y="351.00" xlink:href="#hd"/>
<path d="M191.10 351.00v-21.00" class="stroke"/>
<use x="229.80" y="354.00" xlink:href="#hl"/>
<use x="229.80" y="354.00" xlink:href="#hd"/>
<path d="M233.30 354.00v-21.00" class="stroke"/>
<use x="269.80" y="345.00" xlink:href="#hd"/>
<path d="M273.30 345.00v-21.00" class="stroke"/>
<use x="309.80" y="348.00" xlink:href="#hd"/>
<path d="M313.30 348.00v-21.00" class="stroke"/>
<path class="fill"
	d="M313.30 327.00c0.6 5.6 9.6 9 5.6 18.4
	1.6 -6 -1.3 -11.6 -5.6 -12.8
"/>
<use x="338.00" y="351.00" xlink:href="#hd"/>
<path d="M341.50 351.00v-21.00" class="stroke"/>
<path class="fill"
	d="M341.50 330.00c0.6 5.6 9.6 9 5.6 18.4
	1.6 -6 -1.3 -11.6 -5.6 -12.8
"/>
<use x="366.30" y="348.00" xlink:href="#hd"/>
<path d="M369.80 348.00v-21.00" class="stroke"/>
<use x="420.30" y="351.00" xlink:href="#HD"/>
<use x="420.30" y="330.00" xlink:href="#HD"/>
<use x="22.00" y="388.00" xlink:href="#bclef"/>
<use x="37.00" y="400.00" xlink:href="#ft0"/>
<use x="55.00" y="409.00" xlink:href="#hd"/>
<path d="M58.50 409.00v-21.00" class="stroke"/>
<use x="91.00" y="403.00" xlink:href="#hd"/>
<path d="M94.50 403.00v-21.00" class="stroke"/>
<use x="147.60" y="397.00" xlink:href="#hd"/>
<path d="M151.10 397.00v-21.00" class="stroke"/>
<use x="187.60" y="391.00" xlink:href="#hd"/>
<path d="M184.10 391.00v21.00" class="stroke"/>
<use x="229.80" y="394.00" xlink:href="#hd"/>
<path d="M226.30 394.00v21.00" class="stroke"/>
<use x="269.80" y="388.00" xlink:href="#hd"/>
<path d="M266.30 388.00v21.00" class="stroke"/>
<use x="309.80" y="382.00" xlink:href="#hd"/>
<path d="M306.30 382.00v21.00" class="stroke"/>
<use x="366.30" y="376.00" xlink:href="#hl"/>
<use x="366.30" y="376.00" xlink:href="#hd"/>
<path d="M362.80 376.00v21.00" class="stroke"/>
<use x="420.30" y="412.00" xlink:href="#hl1"/>
<use x="420.30" y="376.00" xlink:href="#hl1"/>
<use x="420.30" y="415.00" xlink:href="#HD"/>
<use x="420.30" y="394.00" xlink:href="#HD"/>
<use x="420.30" y="388.00" xlink:href="#HD"/>
<use x="420.30" y="382.00" xlink:href="#HD"/>
<use x="420.30" y="376.00" xlink:href="#HD"/>
<g transform="rotate(270)">
<use x="-418.00" y="406.80" xlink:href="#ltr"/>
<use x="-412.00" y="406.80" xlink:href="#ltr"/>
<use x="-406.00" y="406.80" xlink:href="#ltr"/>
<use x="-400.00" y="406.80" xlink:href="#ltr"/>
<use x="-394.00" y="406.80" xlink:href="#ltr"/>
<use x="-388.00" y="406.80" xlink:href="#ltr"/>
<use x="-382.00" y="406.80" xlink:href="#ltr"/>
<use x="-376.00" y="406.80" xlink:href="#ltr"/>
</g>
</g>
</svg>
