<?xml version="1.0" standalone="no"?>
<!DOCTYPE svg PUBLIC "-//W3C//DTD SVG 1.1//EN"
	"http://www.w3.org/Graphics/SVG/1.1/DTD/svg11.dtd">
<svg xmlns="http://www.w3.org/2000/svg" version="1.1"
	xmlns:xlink="http://www.w3.org/1999/xlink"
	color="black"
	width="701.60px" height="690.20px" viewBox="0 0 701.60 690.20" preserveAspectRatio="xMidYMid meet">
<style type="text/css">
.fill {fill: currentColor}
.stroke {stroke: currentColor; fill: none}
text{white-space: pre}
</style>
<title>/tmp/reharm_hymnal_L7/lo_he_comes_with_clouds_descending.abc (1) tune 1</title>
<!-- Creator: abcm2ps-8.14.11 -->
<!-- CreationDate: Apr 24, 2026 15:32 -->
<!-- CommandLine: /tmp/reharm_hymnal_L7/lo_he_comes_with_clouds_descending.abc -g -O /tmp/reharm_hymnal_L7/lo_he_comes_with_clouds_descending -->
<g stroke-width="0.70">
<!-- title: 140. Lo! He Comes With Clouds Descending -->
</g>
<g stroke-width="0.70" style="font:20.00px Times">
<text x="350.80" y="22.00" text-anchor="middle">140. Lo! He Comes With Clouds Descending</text>
</g>
<g stroke-width="0.70" style="font:20.00px Times">
<path class="stroke" stroke-width="1"
	d="M10.00 143.00v-82.00"/>
<defs>
<path id="brace" class="fill" d="m-2.5 101
	c-4.5 -4.6 -7.5 -12.2 -4.4 -26.8
	3.5 -14.3 3.2 -21.7 -2.1 -24.2
	7.4 2.4 7.3 14.2 3.5 29.5
	-2.7 9.5 -1.5 16.2 3 21.5
	M-2.5 1c-4.5 4.6 -7.5 12.2 -4.4 26.8
	c3.5 14.3 3.2 21.7 -2.1 24.2
	7.4 -2.4 7.3 -14.2 3.5 -29.5
	-2.7 -9.5 -1.5 -16.2 3 -21.5"/>
</defs>
<g transform="translate(10.00,61.00) scale(1,0.82)">
	<use xlink:href="#brace"/>
</g>
<path class="stroke" stroke-width="1"
	d="M168.40 85.00v-24.00"/>
<path class="stroke" stroke-width="1"
	d="M168.40 143.00v-24.00"/>
<path class="stroke" stroke-width="1"
	d="M278.10 85.00v-24.00"/>
<path class="stroke" stroke-width="1"
	d="M278.10 143.00v-24.00"/>
<path class="stroke" stroke-width="1"
	d="M415.50 85.00v-24.00"/>
<path class="stroke" stroke-width="1"
	d="M415.50 143.00v-24.00"/>
<path class="stroke" stroke-width="1"
	d="M517.30 85.00v-24.00"/>
<path class="stroke" stroke-width="1"
	d="M517.30 143.00v-24.00"/>
<path class="stroke" stroke-width="1"
	d="M603.80 85.00v-24.00"/>
<path class="stroke" stroke-width="1"
	d="M603.80 143.00v-24.00"/>
<path class="stroke" stroke-width="1"
	d="M691.60 85.00v-24.00"/>
<path class="stroke" stroke-width="1"
	d="M691.60 143.00v-24.00"/>
<path d="m10.00 85.00
	h681.60
	M10.00 79.00
	h681.60
	M10.00 73.00
	h681.60
	M10.00 67.00
	h681.60
	M10.00 61.00
	h681.60
	" class="stroke"/>
<path d="m10.00 143.00
	h681.60
	M10.00 137.00
	h681.60
	M10.00 131.00
	h681.60
	M10.00 125.00
	h681.60
	M10.00 119.00
	h681.60
	" class="stroke"/>
</g>
<g stroke-width="0.70" style="font:bold 13.00px Times">
<text x="78.50" y="51.40">vi<tspan
	 style="font:italic 11.00px Times">m⁷</tspan></text>
</g>
<g stroke-width="0.70" style="font:bold 13.00px Times">
<text x="175.00" y="51.40">V<tspan
	 style="font:italic 11.00px Times">⁷</tspan></text>
</g>
<g stroke-width="0.70" style="font:bold 13.00px Times">
<text x="282.60" y="56.40">IV<tspan
	 style="font:italic 11.00px Times">Δ⁷</tspan></text>
</g>
<g stroke-width="0.70" style="font:bold 13.00px Times">
<text x="432.50" y="56.40">iii<tspan
	 style="font:italic 11.00px Times">m⁷</tspan></text>
</g>
<g stroke-width="0.70" style="font:bold 13.00px Times">
<text x="534.30" y="56.40">vi<tspan
	 style="font:italic 11.00px Times">m⁷</tspan></text>
</g>
<g stroke-width="0.70" style="font:bold 13.00px Times">
<text x="620.90" y="51.40">V<tspan
	 style="font:italic 11.00px Times">⁷¹</tspan></text>
</g>
<g stroke-width="0.70" style="font:italic 11.00px Times">
<defs>
<path id="utclef" class="fill" d="m-50 -90
	c-72 -41 -72 -158 52 -188
	150 -10 220 188 90 256
	-114 52 -275 0 -293 -136
	-15 -181 93 -229 220 -334
	88 -87 79 -133 62 -210
	-51 33 -94 105 -89 186
	17 267 36 374 49 574
	6 96 -19 134 -77 135
	-80 1 -126 -93 -61 -133
	85 -41 133 101 31 105
	23 17 92 37 90 -92
	-10 -223 -39 -342 -50 -617
	0 -90 0 -162 96 -232
	56 72 63 230 22 289
	-74 106 -257 168 -255 316
	9 153 148 185 252 133
	86 -65 29 -192 -80 -176
	-71 12 -105 67 -59 124"/>
<use id="tclef" transform="translate(0,6) scale(0.045)"
	xlink:href="#utclef"/>
</defs>
<use x="22.00" y="79.00" xlink:href="#tclef"/>
<defs>
<path id="usharp" class="fill" d="
	m136 -702
	v890
	h32
	v-890
	m128 840
	h32
	v-888
	h-32
	m-232 286
	v116
	l338 -96
	v-116
	m-338 442
	v116
	l338 -98
	v-114"/>
<use id="sh0" transform="translate(-4,5) scale(0.018)"
	xlink:href="#usharp"/>
</defs>
<use x="37.00" y="61.00" xlink:href="#sh0"/>
<g style="font:bold 16px serif"
	transform="translate(53.00,84.50) scale(1.2,1)">
	<text text-anchor="middle">4</text>
	<text y="-12" text-anchor="middle">4</text>
</g>
<defs>
<path id="Hd" class="fill" d="m3 -1.6
	c-1 -1.8 -7 1.4 -6 3.2
	1 1.8 7 -1.4 6 -3.2
	m0.5 -0.3
	c2 3.8 -5 7.6 -7 3.8
	-2 -3.8 5 -7.6 7 -3.8"/>
</defs>
<use x="86.50" y="79.00" xlink:href="#Hd"/>
<path d="M90.00 79.00v-21.00" class="stroke"/>
<defs>
<ellipse id="hd" rx="4.1" ry="2.9"
	transform="rotate(-20)" class="fill"/>
</defs>
<use x="122.80" y="73.00" xlink:href="#hd"/>
<path d="M126.30 73.00v-21.00" class="stroke"/>
<use x="149.20" y="67.00" xlink:href="#hd"/>
<path d="M145.70 67.00v21.00" class="stroke"/>
<use x="180.90" y="79.00" xlink:href="#hd"/>
<path d="M184.40 79.00v-21.00" class="stroke"/>
<use x="206.90" y="82.00" xlink:href="#hd"/>
<path d="M210.40 82.00v-21.00" class="stroke"/>
<use x="232.90" y="85.00" xlink:href="#hd"/>
<path d="M236.40 85.00v-21.00" class="stroke"/>
<use x="259.00" y="88.00" xlink:href="#hd"/>
<path d="M262.50 88.00v-21.00" class="stroke"/>
<use x="290.60" y="85.00" xlink:href="#hd"/>
<circle class="fill" cx="298.30" cy="82.00" r="1.2"/>
<path d="M294.10 85.00v-21.00" class="stroke"/>
<use x="333.50" y="82.00" xlink:href="#hd"/>
<path d="M337.00 82.00v-21.00" class="stroke"/>
<path class="fill"
	d="M337.00 61.00c0.6 5.6 9.6 9 5.6 18.4
	1.6 -6 -1.3 -11.6 -5.6 -12.8
"/>
<use x="353.00" y="79.00" xlink:href="#hd"/>
<path d="M356.50 79.00v-21.00" class="stroke"/>
<use x="379.00" y="82.00" xlink:href="#hd"/>
<path d="M382.50 82.00v-21.00" class="stroke"/>
<path class="fill"
	d="M382.50 61.00c0.6 5.6 9.6 9 5.6 18.4
	1.6 -6 -1.3 -11.6 -5.6 -12.8
"/>
<use x="398.50" y="85.00" xlink:href="#hd"/>
<path d="M402.00 85.00v-21.00" class="stroke"/>
<path class="fill"
	d="M402.00 64.00c0.6 5.6 9.6 9 5.6 18.4
	1.6 -6 -1.3 -11.6 -5.6 -12.8
"/>
<use x="440.50" y="88.00" xlink:href="#hd"/>
<circle class="fill" cx="448.20" cy="88.00" r="1.2"/>
<path d="M444.00 88.00v-21.00" class="stroke"/>
<defs>
<path id="hl" class="stroke" d="m-6 0h12"/>
</defs>
<use x="471.10" y="91.00" xlink:href="#hl"/>
<use x="471.10" y="91.00" xlink:href="#hd"/>
<path d="M474.60 91.00v-21.00" class="stroke"/>
<path class="fill"
	d="M474.60 70.00c0.6 5.6 9.6 9 5.6 18.4
	1.6 -6 -1.3 -11.6 -5.6 -12.8
"/>
<use x="490.90" y="91.00" xlink:href="#hl"/>
<use x="490.90" y="94.00" xlink:href="#Hd"/>
<path d="M494.40 94.00v-21.00" class="stroke"/>
<use x="542.30" y="88.00" xlink:href="#Hd"/>
<circle class="fill" cx="551.00" cy="88.00" r="1.2"/>
<path d="M545.80 88.00v-21.00" class="stroke"/>
<use x="584.60" y="88.00" xlink:href="#hd"/>
<path d="M588.10 88.00v-21.00" class="stroke"/>
<use x="628.80" y="79.00" xlink:href="#Hd"/>
<path d="M632.30 79.00v-21.00" class="stroke"/>
<use x="665.20" y="76.00" xlink:href="#Hd"/>
<path d="M668.70 76.00v-21.00" class="stroke"/>
<defs>
<path id="ubclef" class="fill" d="m-200 -87
	c124 -35 222 -78 254 -236
	43 -228 -167 -246 -192 -103
	59 -80 157 22 92 78
	-62 47 -115 -22 -106 -88
	21 -141 270 -136 274 52
	-1 175 -106 264 -322 297
	m357 -250
	c0 -36 51 -34 51 0
	0 37 -51 36 -51 0
	m-2 -129
	c0 -36 51 -34 51 0
	0 38 -51 37 -51 0"/>
<use id="bclef" transform="translate(0,18) scale(0.045)"
	xlink:href="#ubclef"/>
</defs>
<use x="22.00" y="125.00" xlink:href="#bclef"/>
<use x="37.00" y="125.00" xlink:href="#sh0"/>
<g style="font:bold 16px serif"
	transform="translate(53.00,142.50) scale(1.2,1)">
	<text text-anchor="middle">4</text>
	<text y="-12" text-anchor="middle">4</text>
</g>
<defs>
<path id="hl1" class="stroke" d="m-7 0h14"/>
</defs>
<use x="87.50" y="149.00" xlink:href="#hl1"/>
<use x="87.50" y="113.00" xlink:href="#hl1"/>
<defs>
<path id="HD" class="fill" d="m-2.7 -1.4
	c1.5 -2.8 6.9 0 5.3 2.7
	-1.5 2.8 -6.9 0 -5.3 -2.7
	m8.3 1.4
	c0 -1.5 -2.2 -3 -5.6 -3
	-3.4 0 -5.6 1.5 -5.6 3
	0 1.5 2.2 3 5.6 3
	3.4 0 5.6 -1.5 5.6 -3"/>
</defs>
<use x="87.50" y="110.00" xlink:href="#HD"/>
<use x="87.50" y="149.00" xlink:href="#HD"/>
<use x="87.50" y="128.00" xlink:href="#HD"/>
<use x="87.50" y="122.00" xlink:href="#HD"/>
<use x="87.50" y="116.00" xlink:href="#HD"/>
<use x="180.90" y="131.00" xlink:href="#hd"/>
<path d="M177.40 131.00v21.00" class="stroke"/>
<use x="206.90" y="125.00" xlink:href="#hd"/>
<path d="M203.40 125.00v21.00" class="stroke"/>
<use x="232.90" y="119.00" xlink:href="#hd"/>
<path d="M229.40 119.00v21.00" class="stroke"/>
<use x="259.00" y="113.00" xlink:href="#hl"/>
<use x="259.00" y="113.00" xlink:href="#hd"/>
<path d="M255.50 113.00v21.00" class="stroke"/>
<use x="290.60" y="134.00" xlink:href="#hd"/>
<path d="M294.10 134.00v-21.00" class="stroke"/>
<use x="317.00" y="128.00" xlink:href="#hd"/>
<path d="M313.50 128.00v21.00" class="stroke"/>
<use x="353.00" y="122.00" xlink:href="#hd"/>
<path d="M349.50 122.00v21.00" class="stroke"/>
<use x="379.00" y="116.00" xlink:href="#hd"/>
<path d="M375.50 116.00v21.00" class="stroke"/>
<use x="441.50" y="149.00" xlink:href="#hl1"/>
<use x="441.50" y="155.00" xlink:href="#hl1"/>
<use x="441.50" y="158.00" xlink:href="#HD"/>
<use x="441.50" y="137.00" xlink:href="#HD"/>
<use x="441.50" y="131.00" xlink:href="#HD"/>
<use x="441.50" y="125.00" xlink:href="#HD"/>
<use x="441.50" y="119.00" xlink:href="#HD"/>
<use x="543.30" y="149.00" xlink:href="#hl1"/>
<use x="543.30" y="113.00" xlink:href="#hl1"/>
<use x="543.30" y="110.00" xlink:href="#HD"/>
<use x="543.30" y="149.00" xlink:href="#HD"/>
<use x="543.30" y="128.00" xlink:href="#HD"/>
<use x="543.30" y="122.00" xlink:href="#HD"/>
<use x="543.30" y="116.00" xlink:href="#HD"/>
<use x="629.80" y="149.00" xlink:href="#hl1"/>
<use x="629.80" y="113.00" xlink:href="#hl1"/>
<use x="629.80" y="152.00" xlink:href="#HD"/>
<use x="629.80" y="131.00" xlink:href="#HD"/>
<use x="629.80" y="125.00" xlink:href="#HD"/>
<use x="629.80" y="119.00" xlink:href="#HD"/>
<use x="629.80" y="113.00" xlink:href="#HD"/>
<defs>
<path id="ltr" class="fill"
    d="m0 -0.4c2 -1.5 3.4 -1.9 3.9 0.4
	c0.2 0.8 0.7 0.7 2.1 -0.4
	v0.8c-2 1.5 -3.4 1.9 -3.9 -0.4
	c-0.2 -0.8 -0.7 -0.7 -2.1 0.4z"/>
</defs>
<g transform="rotate(270)">
<use x="-152.00" y="74.00" xlink:href="#ltr"/>
<use x="-146.00" y="74.00" xlink:href="#ltr"/>
<use x="-140.00" y="74.00" xlink:href="#ltr"/>
<use x="-134.00" y="74.00" xlink:href="#ltr"/>
<use x="-128.00" y="74.00" xlink:href="#ltr"/>
<use x="-122.00" y="74.00" xlink:href="#ltr"/>
<use x="-116.00" y="74.00" xlink:href="#ltr"/>
<use x="-110.00" y="74.00" xlink:href="#ltr"/>
</g>
<g transform="rotate(270)">
<use x="-161.00" y="428.00" xlink:href="#ltr"/>
<use x="-155.00" y="428.00" xlink:href="#ltr"/>
<use x="-149.00" y="428.00" xlink:href="#ltr"/>
<use x="-143.00" y="428.00" xlink:href="#ltr"/>
<use x="-137.00" y="428.00" xlink:href="#ltr"/>
<use x="-131.00" y="428.00" xlink:href="#ltr"/>
<use x="-125.00" y="428.00" xlink:href="#ltr"/>
<use x="-119.00" y="428.00" xlink:href="#ltr"/>
</g>
<g transform="rotate(270)">
<use x="-152.00" y="529.80" xlink:href="#ltr"/>
<use x="-146.00" y="529.80" xlink:href="#ltr"/>
<use x="-140.00" y="529.80" xlink:href="#ltr"/>
<use x="-134.00" y="529.80" xlink:href="#ltr"/>
<use x="-128.00" y="529.80" xlink:href="#ltr"/>
<use x="-122.00" y="529.80" xlink:href="#ltr"/>
<use x="-116.00" y="529.80" xlink:href="#ltr"/>
<use x="-110.00" y="529.80" xlink:href="#ltr"/>
</g>
<g transform="rotate(270)">
<use x="-155.00" y="616.30" xlink:href="#ltr"/>
<use x="-149.00" y="616.30" xlink:href="#ltr"/>
<use x="-143.00" y="616.30" xlink:href="#ltr"/>
<use x="-137.00" y="616.30" xlink:href="#ltr"/>
<use x="-131.00" y="616.30" xlink:href="#ltr"/>
<use x="-125.00" y="616.30" xlink:href="#ltr"/>
<use x="-119.00" y="616.30" xlink:href="#ltr"/>
<use x="-113.00" y="616.30" xlink:href="#ltr"/>
</g>
</g>
<g stroke-width="0.70" style="font:italic 11.00px Times">
<path class="stroke" stroke-width="1"
	d="M10.00 273.40v-82.00"/>
<g transform="translate(10.00,191.40) scale(1,0.82)">
	<use xlink:href="#brace"/>
</g>
<path class="stroke" stroke-width="1"
	d="M164.40 215.40v-24.00"/>
<path class="stroke" stroke-width="1"
	d="M164.40 273.40v-24.00"/>
<path class="stroke" stroke-width="1"
	d="M249.70 215.40v-24.00"/>
<path class="stroke" stroke-width="1"
	d="M249.70 273.40v-24.00"/>
<path class="stroke" stroke-width="1"
	d="M353.50 215.40v-24.00"/>
<path class="stroke" stroke-width="1"
	d="M353.50 273.40v-24.00"/>
<path class="stroke" stroke-width="1"
	d="M459.40 215.40v-24.00"/>
<path class="stroke" stroke-width="1"
	d="M459.40 273.40v-24.00"/>
<path class="stroke" stroke-width="1"
	d="M592.70 215.40v-24.00"/>
<path class="stroke" stroke-width="1"
	d="M592.70 273.40v-24.00"/>
<path class="stroke" stroke-width="1"
	d="M691.60 215.40v-24.00"/>
<path class="stroke" stroke-width="1"
	d="M691.60 273.40v-24.00"/>
<path d="m10.00 215.40
	h681.60
	M10.00 209.40
	h681.60
	M10.00 203.40
	h681.60
	M10.00 197.40
	h681.60
	M10.00 191.40
	h681.60
	" class="stroke"/>
<path d="m10.00 273.40
	h681.60
	M10.00 267.40
	h681.60
	M10.00 261.40
	h681.60
	M10.00 255.40
	h681.60
	M10.00 249.40
	h681.60
	" class="stroke"/>
</g>
<g stroke-width="0.70" style="font:bold 13.00px Times">
<text x="62.50" y="175.80">vi<tspan
	 style="font:italic 11.00px Times">m⁷</tspan></text>
</g>
<g stroke-width="0.70" style="font:bold 13.00px Times">
<text x="181.50" y="186.80">V<tspan
	 style="font:italic 11.00px Times">⁷²</tspan></text>
</g>
<g stroke-width="0.70" style="font:bold 13.00px Times">
<text x="266.70" y="181.80">vi<tspan
	 style="font:italic 11.00px Times">m⁷</tspan></text>
</g>
<g stroke-width="0.70" style="font:bold 13.00px Times">
<text x="360.10" y="181.80">V<tspan
	 style="font:italic 11.00px Times">⁷</tspan></text>
</g>
<g stroke-width="0.70" style="font:bold 13.00px Times">
<text x="463.90" y="186.80">IV<tspan
	 style="font:italic 11.00px Times">Δ⁷</tspan></text>
</g>
<g stroke-width="0.70" style="font:bold 13.00px Times">
<text x="609.70" y="186.80">iii<tspan
	 style="font:italic 11.00px Times">m⁷</tspan></text>
</g>
<g stroke-width="0.70" style="font:italic 11.00px Times">
<use x="22.00" y="209.40" xlink:href="#tclef"/>
<use x="37.00" y="191.40" xlink:href="#sh0"/>
<use x="70.50" y="203.40" xlink:href="#hd"/>
<path d="M74.00 203.40v-21.00" class="stroke"/>
<use x="95.90" y="197.40" xlink:href="#hd"/>
<path d="M92.40 197.40v21.00" class="stroke"/>
<use x="120.90" y="200.40" xlink:href="#hd"/>
<path d="M117.40 200.40v21.00" class="stroke"/>
<use x="145.90" y="203.40" xlink:href="#hd"/>
<path d="M142.40 203.40v21.00" class="stroke"/>
<use x="189.40" y="203.40" xlink:href="#Hd"/>
<path d="M185.90 203.40v21.00" class="stroke"/>
<use x="224.30" y="206.40" xlink:href="#Hd"/>
<path d="M227.80 206.40v-21.00" class="stroke"/>
<use x="274.70" y="209.40" xlink:href="#Hd"/>
<path d="M278.20 209.40v-21.00" class="stroke"/>
<use x="309.60" y="203.40" xlink:href="#hd"/>
<path d="M313.10 203.40v-21.00" class="stroke"/>
<use x="335.00" y="197.40" xlink:href="#hd"/>
<path d="M331.50 197.40v21.00" class="stroke"/>
<use x="366.00" y="209.40" xlink:href="#hd"/>
<path d="M369.50 209.40v-21.00" class="stroke"/>
<use x="391.00" y="212.40" xlink:href="#hd"/>
<path d="M394.50 212.40v-21.00" class="stroke"/>
<use x="416.00" y="215.40" xlink:href="#hd"/>
<path d="M419.50 215.40v-21.00" class="stroke"/>
<use x="441.00" y="218.40" xlink:href="#hd"/>
<path d="M444.50 218.40v-21.00" class="stroke"/>
<use x="471.90" y="215.40" xlink:href="#hd"/>
<circle class="fill" cx="479.60" cy="212.40" r="1.2"/>
<path d="M475.40 215.40v-21.00" class="stroke"/>
<use x="513.10" y="212.40" xlink:href="#hd"/>
<path d="M516.60 212.40v-21.00" class="stroke"/>
<path class="fill"
	d="M516.60 191.40c0.6 5.6 9.6 9 5.6 18.4
	1.6 -6 -1.3 -11.6 -5.6 -12.8
"/>
<use x="531.90" y="209.40" xlink:href="#hd"/>
<path d="M535.40 209.40v-21.00" class="stroke"/>
<use x="556.90" y="212.40" xlink:href="#hd"/>
<path d="M560.40 212.40v-21.00" class="stroke"/>
<path class="fill"
	d="M560.40 191.40c0.6 5.6 9.6 9 5.6 18.4
	1.6 -6 -1.3 -11.6 -5.6 -12.8
"/>
<use x="575.70" y="215.40" xlink:href="#hd"/>
<path d="M579.20 215.40v-21.00" class="stroke"/>
<path class="fill"
	d="M579.20 194.40c0.6 5.6 9.6 9 5.6 18.4
	1.6 -6 -1.3 -11.6 -5.6 -12.8
"/>
<use x="617.70" y="218.40" xlink:href="#hd"/>
<circle class="fill" cx="625.40" cy="218.40" r="1.2"/>
<path d="M621.20 218.40v-21.00" class="stroke"/>
<use x="647.20" y="221.40" xlink:href="#hl"/>
<use x="647.20" y="221.40" xlink:href="#hd"/>
<path d="M650.70 221.40v-21.00" class="stroke"/>
<path class="fill"
	d="M650.70 200.40c0.6 5.6 9.6 9 5.6 18.4
	1.6 -6 -1.3 -11.6 -5.6 -12.8
"/>
<use x="666.20" y="221.40" xlink:href="#hl"/>
<use x="666.20" y="224.40" xlink:href="#Hd"/>
<path d="M669.70 224.40v-21.00" class="stroke"/>
<use x="22.00" y="255.40" xlink:href="#bclef"/>
<use x="37.00" y="255.40" xlink:href="#sh0"/>
<use x="71.50" y="279.40" xlink:href="#hl1"/>
<use x="71.50" y="243.40" xlink:href="#hl1"/>
<use x="71.50" y="240.40" xlink:href="#HD"/>
<use x="71.50" y="279.40" xlink:href="#HD"/>
<use x="71.50" y="258.40" xlink:href="#HD"/>
<use x="71.50" y="252.40" xlink:href="#HD"/>
<use x="71.50" y="246.40" xlink:href="#HD"/>
<use x="190.40" y="279.40" xlink:href="#hl1"/>
<use x="190.40" y="243.40" xlink:href="#hl1"/>
<use x="190.40" y="282.40" xlink:href="#HD"/>
<use x="190.40" y="261.40" xlink:href="#HD"/>
<use x="190.40" y="255.40" xlink:href="#HD"/>
<use x="190.40" y="249.40" xlink:href="#HD"/>
<use x="190.40" y="243.40" xlink:href="#HD"/>
<use x="275.70" y="279.40" xlink:href="#hl1"/>
<use x="275.70" y="243.40" xlink:href="#hl1"/>
<use x="275.70" y="240.40" xlink:href="#HD"/>
<use x="275.70" y="279.40" xlink:href="#HD"/>
<use x="275.70" y="258.40" xlink:href="#HD"/>
<use x="275.70" y="252.40" xlink:href="#HD"/>
<use x="275.70" y="246.40" xlink:href="#HD"/>
<use x="366.00" y="261.40" xlink:href="#hd"/>
<path d="M362.50 261.40v21.00" class="stroke"/>
<use x="391.00" y="255.40" xlink:href="#hd"/>
<path d="M387.50 255.40v21.00" class="stroke"/>
<use x="416.00" y="249.40" xlink:href="#hd"/>
<path d="M412.50 249.40v21.00" class="stroke"/>
<use x="441.00" y="243.40" xlink:href="#hl"/>
<use x="441.00" y="243.40" xlink:href="#hd"/>
<path d="M437.50 243.40v21.00" class="stroke"/>
<use x="471.90" y="264.40" xlink:href="#hd"/>
<path d="M475.40 264.40v-21.00" class="stroke"/>
<use x="497.30" y="258.40" xlink:href="#hd"/>
<path d="M493.80 258.40v21.00" class="stroke"/>
<use x="531.90" y="252.40" xlink:href="#hd"/>
<path d="M528.40 252.40v21.00" class="stroke"/>
<use x="556.90" y="246.40" xlink:href="#hd"/>
<path d="M553.40 246.40v21.00" class="stroke"/>
<use x="618.70" y="279.40" xlink:href="#hl1"/>
<use x="618.70" y="285.40" xlink:href="#hl1"/>
<use x="618.70" y="288.40" xlink:href="#HD"/>
<use x="618.70" y="267.40" xlink:href="#HD"/>
<use x="618.70" y="261.40" xlink:href="#HD"/>
<use x="618.70" y="255.40" xlink:href="#HD"/>
<use x="618.70" y="249.40" xlink:href="#HD"/>
<g transform="rotate(270)">
<use x="-282.40" y="58.00" xlink:href="#ltr"/>
<use x="-276.40" y="58.00" xlink:href="#ltr"/>
<use x="-270.40" y="58.00" xlink:href="#ltr"/>
<use x="-264.40" y="58.00" xlink:href="#ltr"/>
<use x="-258.40" y="58.00" xlink:href="#ltr"/>
<use x="-252.40" y="58.00" xlink:href="#ltr"/>
<use x="-246.40" y="58.00" xlink:href="#ltr"/>
<use x="-240.40" y="58.00" xlink:href="#ltr"/>
</g>
<g transform="rotate(270)">
<use x="-285.40" y="176.90" xlink:href="#ltr"/>
<use x="-279.40" y="176.90" xlink:href="#ltr"/>
<use x="-273.40" y="176.90" xlink:href="#ltr"/>
<use x="-267.40" y="176.90" xlink:href="#ltr"/>
<use x="-261.40" y="176.90" xlink:href="#ltr"/>
<use x="-255.40" y="176.90" xlink:href="#ltr"/>
<use x="-249.40" y="176.90" xlink:href="#ltr"/>
<use x="-243.40" y="176.90" xlink:href="#ltr"/>
</g>
<g transform="rotate(270)">
<use x="-282.40" y="262.20" xlink:href="#ltr"/>
<use x="-276.40" y="262.20" xlink:href="#ltr"/>
<use x="-270.40" y="262.20" xlink:href="#ltr"/>
<use x="-264.40" y="262.20" xlink:href="#ltr"/>
<use x="-258.40" y="262.20" xlink:href="#ltr"/>
<use x="-252.40" y="262.20" xlink:href="#ltr"/>
<use x="-246.40" y="262.20" xlink:href="#ltr"/>
<use x="-240.40" y="262.20" xlink:href="#ltr"/>
</g>
<g transform="rotate(270)">
<use x="-291.40" y="605.20" xlink:href="#ltr"/>
<use x="-285.40" y="605.20" xlink:href="#ltr"/>
<use x="-279.40" y="605.20" xlink:href="#ltr"/>
<use x="-273.40" y="605.20" xlink:href="#ltr"/>
<use x="-267.40" y="605.20" xlink:href="#ltr"/>
<use x="-261.40" y="605.20" xlink:href="#ltr"/>
<use x="-255.40" y="605.20" xlink:href="#ltr"/>
<use x="-249.40" y="605.20" xlink:href="#ltr"/>
</g>
</g>
<g stroke-width="0.70" style="font:italic 11.00px Times">
<path class="stroke" stroke-width="1"
	d="M10.00 403.80v-82.00"/>
<g transform="translate(10.00,321.80) scale(1,0.82)">
	<use xlink:href="#brace"/>
</g>
<path class="stroke" stroke-width="1"
	d="M124.50 345.80v-24.00"/>
<path class="stroke" stroke-width="1"
	d="M124.50 403.80v-24.00"/>
<path class="stroke" stroke-width="1"
	d="M203.80 345.80v-24.00"/>
<path class="stroke" stroke-width="1"
	d="M203.80 403.80v-24.00"/>
<path class="stroke" stroke-width="1"
	d="M313.90 345.80v-24.00"/>
<path class="stroke" stroke-width="1"
	d="M313.90 403.80v-24.00"/>
<path class="stroke" stroke-width="1"
	d="M393.20 345.80v-24.00"/>
<path class="stroke" stroke-width="1"
	d="M393.20 403.80v-24.00"/>
<path class="stroke" stroke-width="1"
	d="M502.50 345.80v-24.00"/>
<path class="stroke" stroke-width="1"
	d="M502.50 403.80v-24.00"/>
<path class="stroke" stroke-width="1"
	d="M581.80 345.80v-24.00"/>
<path class="stroke" stroke-width="1"
	d="M581.80 403.80v-24.00"/>
<path class="stroke" stroke-width="1"
	d="M691.60 345.80v-24.00"/>
<path class="stroke" stroke-width="1"
	d="M691.60 403.80v-24.00"/>
<path d="m10.00 345.80
	h681.60
	M10.00 339.80
	h681.60
	M10.00 333.80
	h681.60
	M10.00 327.80
	h681.60
	M10.00 321.80
	h681.60
	" class="stroke"/>
<path d="m10.00 403.80
	h681.60
	M10.00 397.80
	h681.60
	M10.00 391.80
	h681.60
	M10.00 385.80
	h681.60
	M10.00 379.80
	h681.60
	" class="stroke"/>
</g>
<g stroke-width="0.70" style="font:bold 13.00px Times">
<text x="62.50" y="317.20">vi<tspan
	 style="font:italic 11.00px Times">m⁷</tspan></text>
</g>
<g stroke-width="0.70" style="font:bold 13.00px Times">
<text x="141.70" y="312.20">V<tspan
	 style="font:italic 11.00px Times">⁷¹</tspan></text>
</g>
<g stroke-width="0.70" style="font:bold 13.00px Times">
<text x="220.80" y="306.20">vi<tspan
	 style="font:italic 11.00px Times">m⁷</tspan></text>
</g>
<g stroke-width="0.70" style="font:bold 13.00px Times">
<text x="331.10" y="317.20">V<tspan
	 style="font:italic 11.00px Times">⁷²</tspan></text>
</g>
<g stroke-width="0.70" style="font:bold 13.00px Times">
<text x="410.20" y="306.20">vi<tspan
	 style="font:italic 11.00px Times">m⁷</tspan></text>
</g>
<g stroke-width="0.70" style="font:bold 13.00px Times">
<text x="521.60" y="317.20">V<tspan
	 style="font:italic 11.00px Times">⁷</tspan></text>
</g>
<g stroke-width="0.70" style="font:bold 13.00px Times">
<text x="598.80" y="309.20">vi<tspan
	 style="font:italic 11.00px Times">m⁷</tspan></text>
</g>
<g stroke-width="0.70" style="font:italic 11.00px Times">
<use x="22.00" y="339.80" xlink:href="#tclef"/>
<use x="37.00" y="321.80" xlink:href="#sh0"/>
<use x="70.50" y="348.80" xlink:href="#Hd"/>
<circle class="fill" cx="80.20" cy="348.80" r="1.2"/>
<path d="M74.00 348.80v-21.00" class="stroke"/>
<use x="107.30" y="348.80" xlink:href="#hd"/>
<path d="M110.80 348.80v-21.00" class="stroke"/>
<use x="149.50" y="339.80" xlink:href="#Hd"/>
<path d="M153.00 339.80v-21.00" class="stroke"/>
<use x="180.60" y="336.80" xlink:href="#Hd"/>
<path d="M184.10 336.80v-21.00" class="stroke"/>
<use x="228.80" y="333.80" xlink:href="#hd"/>
<path d="M232.30 333.80v-21.00" class="stroke"/>
<use x="251.90" y="327.80" xlink:href="#hd"/>
<path d="M248.40 327.80v21.00" class="stroke"/>
<use x="274.30" y="330.80" xlink:href="#hd"/>
<path d="M270.80 330.80v21.00" class="stroke"/>
<use x="296.70" y="333.80" xlink:href="#hd"/>
<path d="M293.20 333.80v21.00" class="stroke"/>
<use x="338.90" y="333.80" xlink:href="#Hd"/>
<path d="M335.40 333.80v21.00" class="stroke"/>
<use x="370.00" y="336.80" xlink:href="#Hd"/>
<path d="M373.50 336.80v-21.00" class="stroke"/>
<use x="418.20" y="336.80" xlink:href="#hd"/>
<circle class="fill" cx="425.90" cy="336.80" r="1.2"/>
<path d="M421.70 336.80v-21.00" class="stroke"/>
<use x="445.30" y="333.80" xlink:href="#hd"/>
<path d="M448.80 333.80v-21.00" class="stroke"/>
<path class="fill"
	d="M448.80 312.80c0.6 5.6 9.6 9 5.6 18.4
	1.6 -6 -1.3 -11.6 -5.6 -12.8
"/>
<use x="462.80" y="336.80" xlink:href="#hd"/>
<path d="M466.30 336.80v-21.00" class="stroke"/>
<use x="485.30" y="333.80" xlink:href="#hd"/>
<path d="M488.80 333.80v-21.00" class="stroke"/>
<use x="527.50" y="330.80" xlink:href="#Hd"/>
<path d="M524.00 330.80v21.00" class="stroke"/>
<use x="558.60" y="333.80" xlink:href="#Hd"/>
<path d="M555.10 333.80v21.00" class="stroke"/>
<use x="606.80" y="339.80" xlink:href="#hd"/>
<circle class="fill" cx="614.50" cy="336.80" r="1.2"/>
<path d="M610.30 339.80v-21.00" class="stroke"/>
<use x="633.80" y="336.80" xlink:href="#hd"/>
<path d="M637.30 336.80v-21.00" class="stroke"/>
<path class="fill"
	d="M637.30 315.80c0.6 5.6 9.6 9 5.6 18.4
	1.6 -6 -1.3 -11.6 -5.6 -12.8
"/>
<use x="651.40" y="339.80" xlink:href="#hd"/>
<path d="M654.90 339.80v-21.00" class="stroke"/>
<use x="674.40" y="330.80" xlink:href="#hd"/>
<path d="M670.90 330.80v21.00" class="stroke"/>
<use x="22.00" y="385.80" xlink:href="#bclef"/>
<use x="37.00" y="385.80" xlink:href="#sh0"/>
<use x="71.50" y="409.80" xlink:href="#hl1"/>
<use x="71.50" y="373.80" xlink:href="#hl1"/>
<use x="71.50" y="370.80" xlink:href="#HD"/>
<use x="71.50" y="409.80" xlink:href="#HD"/>
<use x="71.50" y="388.80" xlink:href="#HD"/>
<use x="71.50" y="382.80" xlink:href="#HD"/>
<use x="71.50" y="376.80" xlink:href="#HD"/>
<use x="150.50" y="409.80" xlink:href="#hl1"/>
<use x="150.50" y="373.80" xlink:href="#hl1"/>
<use x="150.50" y="412.80" xlink:href="#HD"/>
<use x="150.50" y="391.80" xlink:href="#HD"/>
<use x="150.50" y="385.80" xlink:href="#HD"/>
<use x="150.50" y="379.80" xlink:href="#HD"/>
<use x="150.50" y="373.80" xlink:href="#HD"/>
<use x="229.80" y="409.80" xlink:href="#hl1"/>
<use x="229.80" y="373.80" xlink:href="#hl1"/>
<use x="229.80" y="370.80" xlink:href="#HD"/>
<use x="229.80" y="409.80" xlink:href="#HD"/>
<use x="229.80" y="388.80" xlink:href="#HD"/>
<use x="229.80" y="382.80" xlink:href="#HD"/>
<use x="229.80" y="376.80" xlink:href="#HD"/>
<use x="339.90" y="409.80" xlink:href="#hl1"/>
<use x="339.90" y="373.80" xlink:href="#hl1"/>
<use x="339.90" y="412.80" xlink:href="#HD"/>
<use x="339.90" y="391.80" xlink:href="#HD"/>
<use x="339.90" y="385.80" xlink:href="#HD"/>
<use x="339.90" y="379.80" xlink:href="#HD"/>
<use x="339.90" y="373.80" xlink:href="#HD"/>
<use x="419.20" y="409.80" xlink:href="#hl1"/>
<use x="419.20" y="373.80" xlink:href="#hl1"/>
<use x="419.20" y="370.80" xlink:href="#HD"/>
<use x="419.20" y="409.80" xlink:href="#HD"/>
<use x="419.20" y="388.80" xlink:href="#HD"/>
<use x="419.20" y="382.80" xlink:href="#HD"/>
<use x="419.20" y="376.80" xlink:href="#HD"/>
<use x="528.50" y="409.80" xlink:href="#hl1"/>
<use x="528.50" y="373.80" xlink:href="#hl1"/>
<use x="528.50" y="412.80" xlink:href="#HD"/>
<use x="528.50" y="391.80" xlink:href="#HD"/>
<use x="528.50" y="385.80" xlink:href="#HD"/>
<use x="528.50" y="379.80" xlink:href="#HD"/>
<use x="528.50" y="373.80" xlink:href="#HD"/>
<use x="607.80" y="409.80" xlink:href="#hl1"/>
<use x="607.80" y="373.80" xlink:href="#hl1"/>
<use x="607.80" y="370.80" xlink:href="#HD"/>
<use x="607.80" y="409.80" xlink:href="#HD"/>
<use x="607.80" y="388.80" xlink:href="#HD"/>
<use x="607.80" y="382.80" xlink:href="#HD"/>
<use x="607.80" y="376.80" xlink:href="#HD"/>
<g transform="rotate(270)">
<use x="-412.80" y="58.00" xlink:href="#ltr"/>
<use x="-406.80" y="58.00" xlink:href="#ltr"/>
<use x="-400.80" y="58.00" xlink:href="#ltr"/>
<use x="-394.80" y="58.00" xlink:href="#ltr"/>
<use x="-388.80" y="58.00" xlink:href="#ltr"/>
<use x="-382.80" y="58.00" xlink:href="#ltr"/>
<use x="-376.80" y="58.00" xlink:href="#ltr"/>
<use x="-370.80" y="58.00" xlink:href="#ltr"/>
</g>
<g transform="rotate(270)">
<use x="-415.80" y="137.00" xlink:href="#ltr"/>
<use x="-409.80" y="137.00" xlink:href="#ltr"/>
<use x="-403.80" y="137.00" xlink:href="#ltr"/>
<use x="-397.80" y="137.00" xlink:href="#ltr"/>
<use x="-391.80" y="137.00" xlink:href="#ltr"/>
<use x="-385.80" y="137.00" xlink:href="#ltr"/>
<use x="-379.80" y="137.00" xlink:href="#ltr"/>
<use x="-373.80" y="137.00" xlink:href="#ltr"/>
</g>
<g transform="rotate(270)">
<use x="-412.80" y="216.30" xlink:href="#ltr"/>
<use x="-406.80" y="216.30" xlink:href="#ltr"/>
<use x="-400.80" y="216.30" xlink:href="#ltr"/>
<use x="-394.80" y="216.30" xlink:href="#ltr"/>
<use x="-388.80" y="216.30" xlink:href="#ltr"/>
<use x="-382.80" y="216.30" xlink:href="#ltr"/>
<use x="-376.80" y="216.30" xlink:href="#ltr"/>
<use x="-370.80" y="216.30" xlink:href="#ltr"/>
</g>
<g transform="rotate(270)">
<use x="-415.80" y="326.40" xlink:href="#ltr"/>
<use x="-409.80" y="326.40" xlink:href="#ltr"/>
<use x="-403.80" y="326.40" xlink:href="#ltr"/>
<use x="-397.80" y="326.40" xlink:href="#ltr"/>
<use x="-391.80" y="326.40" xlink:href="#ltr"/>
<use x="-385.80" y="326.40" xlink:href="#ltr"/>
<use x="-379.80" y="326.40" xlink:href="#ltr"/>
<use x="-373.80" y="326.40" xlink:href="#ltr"/>
</g>
<g transform="rotate(270)">
<use x="-412.80" y="405.70" xlink:href="#ltr"/>
<use x="-406.80" y="405.70" xlink:href="#ltr"/>
<use x="-400.80" y="405.70" xlink:href="#ltr"/>
<use x="-394.80" y="405.70" xlink:href="#ltr"/>
<use x="-388.80" y="405.70" xlink:href="#ltr"/>
<use x="-382.80" y="405.70" xlink:href="#ltr"/>
<use x="-376.80" y="405.70" xlink:href="#ltr"/>
<use x="-370.80" y="405.70" xlink:href="#ltr"/>
</g>
<g transform="rotate(270)">
<use x="-415.80" y="515.00" xlink:href="#ltr"/>
<use x="-409.80" y="515.00" xlink:href="#ltr"/>
<use x="-403.80" y="515.00" xlink:href="#ltr"/>
<use x="-397.80" y="515.00" xlink:href="#ltr"/>
<use x="-391.80" y="515.00" xlink:href="#ltr"/>
<use x="-385.80" y="515.00" xlink:href="#ltr"/>
<use x="-379.80" y="515.00" xlink:href="#ltr"/>
<use x="-373.80" y="515.00" xlink:href="#ltr"/>
</g>
<g transform="rotate(270)">
<use x="-412.80" y="594.30" xlink:href="#ltr"/>
<use x="-406.80" y="594.30" xlink:href="#ltr"/>
<use x="-400.80" y="594.30" xlink:href="#ltr"/>
<use x="-394.80" y="594.30" xlink:href="#ltr"/>
<use x="-388.80" y="594.30" xlink:href="#ltr"/>
<use x="-382.80" y="594.30" xlink:href="#ltr"/>
<use x="-376.80" y="594.30" xlink:href="#ltr"/>
<use x="-370.80" y="594.30" xlink:href="#ltr"/>
</g>
</g>
<g stroke-width="0.70" style="font:italic 11.00px Times">
<path class="stroke" stroke-width="1"
	d="M10.00 534.20v-82.00"/>
<g transform="translate(10.00,452.20) scale(1,0.82)">
	<use xlink:href="#brace"/>
</g>
<path class="stroke" stroke-width="1"
	d="M152.80 476.20v-24.00"/>
<path class="stroke" stroke-width="1"
	d="M152.80 534.20v-24.00"/>
<path class="stroke" stroke-width="1"
	d="M274.60 476.20v-24.00"/>
<path class="stroke" stroke-width="1"
	d="M274.60 534.20v-24.00"/>
<path class="stroke" stroke-width="1"
	d="M385.10 476.20v-24.00"/>
<path class="stroke" stroke-width="1"
	d="M385.10 534.20v-24.00"/>
<path class="stroke" stroke-width="1"
	d="M492.10 476.20v-24.00"/>
<path class="stroke" stroke-width="1"
	d="M492.10 534.20v-24.00"/>
<path class="stroke" stroke-width="1"
	d="M580.60 476.20v-24.00"/>
<path class="stroke" stroke-width="1"
	d="M580.60 534.20v-24.00"/>
<path class="stroke" stroke-width="1"
	d="M691.60 476.20v-24.00"/>
<path class="stroke" stroke-width="1"
	d="M691.60 534.20v-24.00"/>
<path d="m10.00 476.20
	h681.60
	M10.00 470.20
	h681.60
	M10.00 464.20
	h681.60
	M10.00 458.20
	h681.60
	M10.00 452.20
	h681.60
	" class="stroke"/>
<path d="m10.00 534.20
	h681.60
	M10.00 528.20
	h681.60
	M10.00 522.20
	h681.60
	M10.00 516.20
	h681.60
	M10.00 510.20
	h681.60
	" class="stroke"/>
</g>
<g stroke-width="0.70" style="font:bold 13.00px Times">
<text x="47.20" y="447.60">V<tspan
	 style="font:italic 11.00px Times">⁷¹</tspan></text>
</g>
<g stroke-width="0.70" style="font:bold 13.00px Times">
<text x="157.30" y="436.60">IV<tspan
	 style="font:italic 11.00px Times">Δ⁷</tspan></text>
</g>
<g stroke-width="0.70" style="font:bold 13.00px Times">
<text x="279.10" y="445.60">iii<tspan
	 style="font:italic 11.00px Times">m⁷¹</tspan></text>
</g>
<g stroke-width="0.70" style="font:bold 13.00px Times">
<text x="402.10" y="442.60">ii<tspan
	 style="font:italic 11.00px Times">m⁷¹</tspan></text>
</g>
<g stroke-width="0.70" style="font:bold 13.00px Times">
<text x="509.30" y="447.60">V<tspan
	 style="font:italic 11.00px Times">⁷¹</tspan></text>
</g>
<g stroke-width="0.70" style="font:bold 13.00px Times">
<text x="585.90" y="447.60">I<tspan
	 style="font:italic 11.00px Times">Δ⁷²</tspan></text>
</g>
<g stroke-width="0.70" style="font:italic 11.00px Times">
<use x="22.00" y="470.20" xlink:href="#tclef"/>
<use x="37.00" y="452.20" xlink:href="#sh0"/>
<use x="55.00" y="464.20" xlink:href="#hd"/>
<path d="M51.50 464.20v21.00" class="stroke"/>
<use x="81.20" y="467.20" xlink:href="#hd"/>
<path d="M84.70 467.20v-21.00" class="stroke"/>
<use x="107.50" y="470.20" xlink:href="#Hd"/>
<path d="M111.00 470.20v-21.00" class="stroke"/>
<use x="165.30" y="464.20" xlink:href="#hd"/>
<circle class="fill" cx="173.00" cy="461.20" r="1.2"/>
<path d="M168.80 464.20v-21.00" class="stroke"/>
<use x="210.50" y="461.20" xlink:href="#hd"/>
<path d="M207.00 461.20v21.00" class="stroke"/>
<path class="fill"
	d="M207.00 482.20c0.6 -5.6 9.6 -9 5.6 -18.4
	1.6 6 -1.3 11.6 -5.6 12.8
"/>
<use x="229.30" y="464.20" xlink:href="#hd"/>
<path d="M225.80 464.20v21.00" class="stroke"/>
<use x="255.60" y="458.20" xlink:href="#hd"/>
<path d="M252.10 458.20v21.00" class="stroke"/>
<use x="287.10" y="461.20" xlink:href="#hd"/>
<path d="M283.60 461.20v21.00" class="stroke"/>
<use x="313.30" y="464.20" xlink:href="#hd"/>
<path d="M309.80 464.20v21.00" class="stroke"/>
<use x="339.80" y="467.20" xlink:href="#Hd"/>
<path d="M343.30 467.20v-21.00" class="stroke"/>
<use x="410.10" y="470.20" xlink:href="#Hd"/>
<path d="M413.60 470.20v-21.00" class="stroke"/>
<use x="446.90" y="467.20" xlink:href="#hd"/>
<path d="M450.40 467.20v-21.00" class="stroke"/>
<use x="473.10" y="464.20" xlink:href="#hd"/>
<path d="M476.60 464.20v-21.00" class="stroke"/>
<use x="517.10" y="479.20" xlink:href="#Hd"/>
<path d="M520.60 479.20v-21.00" class="stroke"/>
<use x="554.20" y="461.20" xlink:href="#Hd"/>
<path d="M550.70 461.20v21.00" class="stroke"/>
<use x="593.60" y="464.20" xlink:href="#Hd"/>
<path d="M590.10 464.20v21.00" class="stroke"/>
<use x="646.10" y="467.20" xlink:href="#Hd"/>
<path d="M649.60 467.20v-21.00" class="stroke"/>
<use x="22.00" y="516.20" xlink:href="#bclef"/>
<use x="37.00" y="516.20" xlink:href="#sh0"/>
<use x="55.00" y="522.20" xlink:href="#hd"/>
<path d="M51.50 522.20v21.00" class="stroke"/>
<use x="81.20" y="516.20" xlink:href="#hd"/>
<path d="M77.70 516.20v21.00" class="stroke"/>
<use x="107.50" y="510.20" xlink:href="#hd"/>
<path d="M104.00 510.20v21.00" class="stroke"/>
<use x="133.80" y="504.20" xlink:href="#hl"/>
<use x="133.80" y="504.20" xlink:href="#hd"/>
<path d="M130.30 504.20v21.00" class="stroke"/>
<use x="165.30" y="525.20" xlink:href="#hd"/>
<path d="M168.80 525.20v-21.00" class="stroke"/>
<use x="191.80" y="519.20" xlink:href="#hd"/>
<path d="M188.30 519.20v21.00" class="stroke"/>
<use x="229.30" y="513.20" xlink:href="#hd"/>
<path d="M225.80 513.20v21.00" class="stroke"/>
<use x="255.60" y="507.20" xlink:href="#hd"/>
<path d="M252.10 507.20v21.00" class="stroke"/>
<use x="287.10" y="528.20" xlink:href="#hd"/>
<path d="M290.60 528.20v-21.00" class="stroke"/>
<use x="313.30" y="522.20" xlink:href="#hd"/>
<path d="M316.80 522.20v-21.00" class="stroke"/>
<use x="339.80" y="516.20" xlink:href="#hd"/>
<path d="M336.30 516.20v21.00" class="stroke"/>
<use x="366.10" y="510.20" xlink:href="#hd"/>
<path d="M362.60 510.20v21.00" class="stroke"/>
<use x="411.10" y="540.20" xlink:href="#hl1"/>
<use x="411.10" y="546.20" xlink:href="#hl1"/>
<use x="411.10" y="552.20" xlink:href="#hl1"/>
<use x="411.10" y="552.20" xlink:href="#HD"/>
<use x="411.10" y="531.20" xlink:href="#HD"/>
<use x="411.10" y="525.20" xlink:href="#HD"/>
<use x="411.10" y="519.20" xlink:href="#HD"/>
<use x="411.10" y="513.20" xlink:href="#HD"/>
<use x="518.10" y="540.20" xlink:href="#hl1"/>
<use x="518.10" y="504.20" xlink:href="#hl1"/>
<use x="518.10" y="543.20" xlink:href="#HD"/>
<use x="518.10" y="522.20" xlink:href="#HD"/>
<use x="518.10" y="516.20" xlink:href="#HD"/>
<use x="518.10" y="510.20" xlink:href="#HD"/>
<use x="518.10" y="504.20" xlink:href="#HD"/>
<use x="593.60" y="534.20" xlink:href="#hd"/>
<path d="M597.10 534.20v-21.00" class="stroke"/>
<use x="619.80" y="528.20" xlink:href="#hd"/>
<path d="M623.30 528.20v-21.00" class="stroke"/>
<use x="646.10" y="522.20" xlink:href="#hd"/>
<path d="M649.60 522.20v-21.00" class="stroke"/>
<use x="672.60" y="516.20" xlink:href="#hd"/>
<path d="M669.10 516.20v21.00" class="stroke"/>
<g transform="rotate(270)">
<use x="-555.20" y="397.60" xlink:href="#ltr"/>
<use x="-549.20" y="397.60" xlink:href="#ltr"/>
<use x="-543.20" y="397.60" xlink:href="#ltr"/>
<use x="-537.20" y="397.60" xlink:href="#ltr"/>
<use x="-531.20" y="397.60" xlink:href="#ltr"/>
<use x="-525.20" y="397.60" xlink:href="#ltr"/>
<use x="-519.20" y="397.60" xlink:href="#ltr"/>
<use x="-513.20" y="397.60" xlink:href="#ltr"/>
</g>
<g transform="rotate(270)">
<use x="-546.20" y="504.60" xlink:href="#ltr"/>
<use x="-540.20" y="504.60" xlink:href="#ltr"/>
<use x="-534.20" y="504.60" xlink:href="#ltr"/>
<use x="-528.20" y="504.60" xlink:href="#ltr"/>
<use x="-522.20" y="504.60" xlink:href="#ltr"/>
<use x="-516.20" y="504.60" xlink:href="#ltr"/>
<use x="-510.20" y="504.60" xlink:href="#ltr"/>
<use x="-504.20" y="504.60" xlink:href="#ltr"/>
</g>
</g>
<g stroke-width="0.70" style="font:italic 11.00px Times">
<path class="stroke" stroke-width="1"
	d="M10.00 663.20v-82.00"/>
<g transform="translate(10.00,581.20) scale(1,0.82)">
	<use xlink:href="#brace"/>
</g>
<path class="stroke" stroke-width="1"
	d="M126.50 605.20v-24.00"/>
<path class="stroke" stroke-width="1"
	d="M126.50 663.20v-24.00"/>
<path d="m10.00 605.20
	h116.50
	M10.00 599.20
	h116.50
	M10.00 593.20
	h116.50
	M10.00 587.20
	h116.50
	M10.00 581.20
	h116.50
	" class="stroke"/>
<path d="m10.00 663.20
	h116.50
	M10.00 657.20
	h116.50
	M10.00 651.20
	h116.50
	M10.00 645.20
	h116.50
	M10.00 639.20
	h116.50
	" class="stroke"/>
</g>
<g stroke-width="0.70" style="font:bold 13.00px Times">
<text x="64.80" y="569.60">I<tspan
	 style="font:italic 11.00px Times">Δ⁷</tspan></text>
</g>
<g stroke-width="0.70" style="font:italic 11.00px Times">
<use x="22.00" y="599.20" xlink:href="#tclef"/>
<use x="37.00" y="581.20" xlink:href="#sh0"/>
<use x="71.50" y="578.20" xlink:href="#HD"/>
<use x="71.50" y="599.20" xlink:href="#HD"/>
<use x="22.00" y="645.20" xlink:href="#bclef"/>
<use x="37.00" y="645.20" xlink:href="#sh0"/>
<use x="71.50" y="669.20" xlink:href="#hl1"/>
<use x="71.50" y="675.20" xlink:href="#hl1"/>
<use x="71.50" y="681.20" xlink:href="#hl1"/>
<use x="71.50" y="684.20" xlink:href="#HD"/>
<use x="71.50" y="663.20" xlink:href="#HD"/>
<use x="71.50" y="657.20" xlink:href="#HD"/>
<use x="71.50" y="651.20" xlink:href="#HD"/>
<use x="71.50" y="645.20" xlink:href="#HD"/>
<g transform="rotate(270)">
<use x="-687.20" y="58.00" xlink:href="#ltr"/>
<use x="-681.20" y="58.00" xlink:href="#ltr"/>
<use x="-675.20" y="58.00" xlink:href="#ltr"/>
<use x="-669.20" y="58.00" xlink:href="#ltr"/>
<use x="-663.20" y="58.00" xlink:href="#ltr"/>
<use x="-657.20" y="58.00" xlink:href="#ltr"/>
<use x="-651.20" y="58.00" xlink:href="#ltr"/>
<use x="-645.20" y="58.00" xlink:href="#ltr"/>
</g>
</g>
</svg>
