<?xml version="1.0" standalone="no"?>
<!DOCTYPE svg PUBLIC "-//W3C//DTD SVG 1.1//EN"
	"http://www.w3.org/Graphics/SVG/1.1/DTD/svg11.dtd">
<svg xmlns="http://www.w3.org/2000/svg" version="1.1"
	xmlns:xlink="http://www.w3.org/1999/xlink"
	color="black"
	width="701.60px" height="441.20px" viewBox="0 0 701.60 441.20" preserveAspectRatio="xMidYMid meet">
<style type="text/css">
.fill {fill: currentColor}
.stroke {stroke: currentColor; fill: none}
text{white-space: pre}
</style>
<title>/tmp/reharm_hymnal_L7/my_jesus_as_thou_wilt.abc (1) tune 1</title>
<!-- Creator: abcm2ps-8.14.11 -->
<!-- CreationDate: Apr 24, 2026 15:32 -->
<!-- CommandLine: /tmp/reharm_hymnal_L7/my_jesus_as_thou_wilt.abc -g -O /tmp/reharm_hymnal_L7/my_jesus_as_thou_wilt -->
<g stroke-width="0.70">
<!-- title: 158. My Jesus, As Thou Wilt -->
</g>
<g stroke-width="0.70" style="font:20.00px Times">
<text x="350.80" y="22.00" text-anchor="middle">158. My Jesus, As Thou Wilt</text>
</g>
<g stroke-width="0.70" style="font:20.00px Times">
<path class="stroke" stroke-width="1"
	d="M10.00 145.40v-82.00"/>
<defs>
<path id="brace" class="fill" d="m-2.5 101
	c-4.5 -4.6 -7.5 -12.2 -4.4 -26.8
	3.5 -14.3 3.2 -21.7 -2.1 -24.2
	7.4 2.4 7.3 14.2 3.5 29.5
	-2.7 9.5 -1.5 16.2 3 21.5
	M-2.5 1c-4.5 4.6 -7.5 12.2 -4.4 26.8
	c3.5 14.3 3.2 21.7 -2.1 24.2
	7.4 -2.4 7.3 -14.2 3.5 -29.5
	-2.7 -9.5 -1.5 -16.2 3 -21.5"/>
</defs>
<g transform="translate(10.00,63.40) scale(1,0.82)">
	<use xlink:href="#brace"/>
</g>
<path class="stroke" stroke-width="1"
	d="M198.70 87.40v-24.00"/>
<path class="stroke" stroke-width="1"
	d="M198.70 145.40v-24.00"/>
<path class="stroke" stroke-width="1"
	d="M333.10 87.40v-24.00"/>
<path class="stroke" stroke-width="1"
	d="M333.10 145.40v-24.00"/>
<path class="stroke" stroke-width="1"
	d="M459.40 87.40v-24.00"/>
<path class="stroke" stroke-width="1"
	d="M459.40 145.40v-24.00"/>
<path class="stroke" stroke-width="1"
	d="M563.00 87.40v-24.00"/>
<path class="stroke" stroke-width="1"
	d="M563.00 145.40v-24.00"/>
<path class="stroke" stroke-width="1"
	d="M691.60 87.40v-24.00"/>
<path class="stroke" stroke-width="1"
	d="M691.60 145.40v-24.00"/>
<path d="m10.00 87.40
	h681.60
	M10.00 81.40
	h681.60
	M10.00 75.40
	h681.60
	M10.00 69.40
	h681.60
	M10.00 63.40
	h681.60
	" class="stroke"/>
<path d="m10.00 145.40
	h681.60
	M10.00 139.40
	h681.60
	M10.00 133.40
	h681.60
	M10.00 127.40
	h681.60
	M10.00 121.40
	h681.60
	" class="stroke"/>
</g>
<g stroke-width="0.70" style="font:bold 13.00px Times">
<text x="89.50" y="58.80">vi<tspan
	 style="font:italic 11.00px Times">m⁷</tspan></text>
</g>
<g stroke-width="0.70" style="font:bold 13.00px Times">
<text x="205.30" y="56.80">V<tspan
	 style="font:italic 11.00px Times">⁷</tspan></text>
</g>
<g stroke-width="0.70" style="font:bold 13.00px Times">
<text x="350.10" y="53.80">IV<tspan
	 style="font:italic 11.00px Times">Δ⁷</tspan></text>
</g>
<g stroke-width="0.70" style="font:bold 13.00px Times">
<text x="476.40" y="47.80">vi<tspan
	 style="font:italic 11.00px Times">m⁷²</tspan></text>
</g>
<g stroke-width="0.70" style="font:bold 13.00px Times">
<text x="568.20" y="56.80">V<tspan
	 style="font:italic 11.00px Times">⁷²</tspan></text>
</g>
<g stroke-width="0.70" style="font:italic 11.00px Times">
<defs>
<path id="utclef" class="fill" d="m-50 -90
	c-72 -41 -72 -158 52 -188
	150 -10 220 188 90 256
	-114 52 -275 0 -293 -136
	-15 -181 93 -229 220 -334
	88 -87 79 -133 62 -210
	-51 33 -94 105 -89 186
	17 267 36 374 49 574
	6 96 -19 134 -77 135
	-80 1 -126 -93 -61 -133
	85 -41 133 101 31 105
	23 17 92 37 90 -92
	-10 -223 -39 -342 -50 -617
	0 -90 0 -162 96 -232
	56 72 63 230 22 289
	-74 106 -257 168 -255 316
	9 153 148 185 252 133
	86 -65 29 -192 -80 -176
	-71 12 -105 67 -59 124"/>
<use id="tclef" transform="translate(0,6) scale(0.045)"
	xlink:href="#utclef"/>
</defs>
<use x="22.00" y="81.40" xlink:href="#tclef"/>
<defs>
<path id="uflat" class="fill" d="
	m100 -746
	h32
	v734
	l-32 4
	m32 -332
	c46 -72 152 -90 208 -20
	100 110 -120 326 -208 348
	m0 -28
	c54 0 200 -206 130 -290
	-50 -60 -130 -4 -130 34"/>
<use id="ft0" transform="translate(-3.5,3.5) scale(0.018)"
	xlink:href="#uflat"/>
</defs>
<use x="37.00" y="75.40" xlink:href="#ft0"/>
<use x="42.50" y="66.40" xlink:href="#ft0"/>
<use x="48.00" y="78.40" xlink:href="#ft0"/>
<g style="font:bold 16px serif"
	transform="translate(64.00,86.90) scale(1.2,1)">
	<text text-anchor="middle">4</text>
	<text y="-12" text-anchor="middle">4</text>
</g>
<defs>
<path id="Hd" class="fill" d="m3 -1.6
	c-1 -1.8 -7 1.4 -6 3.2
	1 1.8 7 -1.4 6 -3.2
	m0.5 -0.3
	c2 3.8 -5 7.6 -7 3.8
	-2 -3.8 5 -7.6 7 -3.8"/>
</defs>
<use x="97.50" y="75.40" xlink:href="#Hd"/>
<path d="M94.00 75.40v21.00" class="stroke"/>
<defs>
<ellipse id="hd" rx="4.1" ry="2.9"
	transform="rotate(-20)" class="fill"/>
</defs>
<use x="134.90" y="81.40" xlink:href="#hd"/>
<path d="M138.40 81.40v-21.00" class="stroke"/>
<use x="161.70" y="87.40" xlink:href="#hd"/>
<path d="M165.20 87.40v-21.00" class="stroke"/>
<path class="fill"
	d="M165.20 66.40c0.6 5.6 9.6 9 5.6 18.4
	1.6 -6 -1.3 -11.6 -5.6 -12.8
"/>
<use x="181.70" y="81.40" xlink:href="#hd"/>
<path d="M185.20 81.40v-21.00" class="stroke"/>
<path class="fill"
	d="M185.20 60.40c0.6 5.6 9.6 9 5.6 18.4
	1.6 -6 -1.3 -11.6 -5.6 -12.8
"/>
<use x="211.20" y="84.40" xlink:href="#hd"/>
<circle class="fill" cx="218.90" cy="84.40" r="1.2"/>
<path d="M214.70 84.40v-21.00" class="stroke"/>
<use x="257.20" y="78.40" xlink:href="#hd"/>
<path d="M260.70 78.40v-22.00" class="stroke"/>
<path class="fill"
	d="M260.70 56.40c0.9 3.7 9.1 6.4 6 12.4
	1 -5.4 -4.2 -8.4 -6 -8.4
M260.70 61.80c0.9 3.7 9.1 6.4 6 12.4
	1 -5.4 -4.2 -8.4 -6 -8.4
"/>
<use x="271.90" y="81.40" xlink:href="#hd"/>
<path d="M275.40 81.40v-22.00" class="stroke"/>
<path class="fill"
	d="M275.40 59.40c0.9 3.7 9.1 6.4 6 12.4
	1 -5.4 -4.2 -8.4 -6 -8.4
M275.40 64.80c0.9 3.7 9.1 6.4 6 12.4
	1 -5.4 -4.2 -8.4 -6 -8.4
"/>
<use x="286.70" y="84.40" xlink:href="#Hd"/>
<path d="M290.20 84.40v-21.00" class="stroke"/>
<use x="358.10" y="81.40" xlink:href="#Hd"/>
<path d="M361.60 81.40v-21.00" class="stroke"/>
<use x="395.60" y="87.40" xlink:href="#hd"/>
<path d="M399.10 87.40v-21.00" class="stroke"/>
<use x="422.40" y="81.40" xlink:href="#hd"/>
<path d="M425.90 81.40v-21.00" class="stroke"/>
<path class="fill"
	d="M425.90 60.40c0.6 5.6 9.6 9 5.6 18.4
	1.6 -6 -1.3 -11.6 -5.6 -12.8
"/>
<use x="442.40" y="75.40" xlink:href="#hd"/>
<path d="M445.90 75.40v-21.00" class="stroke"/>
<path class="fill"
	d="M445.90 54.40c0.6 5.6 9.6 9 5.6 18.4
	1.6 -6 -1.3 -11.6 -5.6 -12.8
"/>
<use x="484.40" y="75.40" xlink:href="#hd"/>
<circle class="fill" cx="492.10" cy="72.40" r="1.2"/>
<path d="M487.90 75.40v-21.00" class="stroke"/>
<use x="515.80" y="78.40" xlink:href="#hd"/>
<path d="M519.30 78.40v-21.00" class="stroke"/>
<path class="fill"
	d="M519.30 57.40c0.6 5.6 9.6 9 5.6 18.4
	1.6 -6 -1.3 -11.6 -5.6 -12.8
"/>
<use x="535.90" y="81.40" xlink:href="#Hd"/>
<path d="M539.40 81.40v-21.00" class="stroke"/>
<use x="576.00" y="66.40" xlink:href="#Hd"/>
<path d="M572.50 66.40v21.00" class="stroke"/>
<use x="630.00" y="72.40" xlink:href="#hd"/>
<path d="M626.50 72.40v21.00" class="stroke"/>
<use x="656.80" y="78.40" xlink:href="#hd"/>
<path d="M660.30 78.40v-21.00" class="stroke"/>
<path class="fill"
	d="M660.30 57.40c0.6 5.6 9.6 9 5.6 18.4
	1.6 -6 -1.3 -11.6 -5.6 -12.8
"/>
<use x="677.10" y="72.40" xlink:href="#hd"/>
<path d="M673.60 72.40v21.00" class="stroke"/>
<path class="fill"
	d="M673.60 93.40c0.6 -5.6 9.6 -9 5.6 -18.4
	1.6 6 -1.3 11.6 -5.6 12.8
"/>
<defs>
<path id="ubclef" class="fill" d="m-200 -87
	c124 -35 222 -78 254 -236
	43 -228 -167 -246 -192 -103
	59 -80 157 22 92 78
	-62 47 -115 -22 -106 -88
	21 -141 270 -136 274 52
	-1 175 -106 264 -322 297
	m357 -250
	c0 -36 51 -34 51 0
	0 37 -51 36 -51 0
	m-2 -129
	c0 -36 51 -34 51 0
	0 38 -51 37 -51 0"/>
<use id="bclef" transform="translate(0,18) scale(0.045)"
	xlink:href="#ubclef"/>
</defs>
<use x="22.00" y="127.40" xlink:href="#bclef"/>
<use x="37.00" y="139.40" xlink:href="#ft0"/>
<use x="42.50" y="130.40" xlink:href="#ft0"/>
<use x="48.00" y="142.40" xlink:href="#ft0"/>
<g style="font:bold 16px serif"
	transform="translate(64.00,144.90) scale(1.2,1)">
	<text text-anchor="middle">4</text>
	<text y="-12" text-anchor="middle">4</text>
</g>
<defs>
<path id="hl1" class="stroke" d="m-7 0h14"/>
</defs>
<use x="98.50" y="151.40" xlink:href="#hl1"/>
<use x="98.50" y="157.40" xlink:href="#hl1"/>
<defs>
<path id="HD" class="fill" d="m-2.7 -1.4
	c1.5 -2.8 6.9 0 5.3 2.7
	-1.5 2.8 -6.9 0 -5.3 -2.7
	m8.3 1.4
	c0 -1.5 -2.2 -3 -5.6 -3
	-3.4 0 -5.6 1.5 -5.6 3
	0 1.5 2.2 3 5.6 3
	3.4 0 5.6 -1.5 5.6 -3"/>
</defs>
<use x="98.50" y="157.40" xlink:href="#HD"/>
<use x="98.50" y="136.40" xlink:href="#HD"/>
<use x="98.50" y="130.40" xlink:href="#HD"/>
<use x="98.50" y="124.40" xlink:href="#HD"/>
<use x="98.50" y="118.40" xlink:href="#HD"/>
<use x="211.20" y="139.40" xlink:href="#hd"/>
<path d="M214.70 139.40v-21.00" class="stroke"/>
<use x="238.00" y="133.40" xlink:href="#hd"/>
<path d="M241.50 133.40v-21.00" class="stroke"/>
<use x="286.70" y="127.40" xlink:href="#hd"/>
<path d="M283.20 127.40v21.00" class="stroke"/>
<use x="313.50" y="121.40" xlink:href="#hd"/>
<path d="M310.00 121.40v21.00" class="stroke"/>
<use x="359.10" y="151.40" xlink:href="#hl1"/>
<use x="359.10" y="157.40" xlink:href="#hl1"/>
<use x="359.10" y="163.40" xlink:href="#hl1"/>
<use x="359.10" y="163.40" xlink:href="#HD"/>
<use x="359.10" y="142.40" xlink:href="#HD"/>
<use x="359.10" y="136.40" xlink:href="#HD"/>
<use x="359.10" y="130.40" xlink:href="#HD"/>
<use x="359.10" y="124.40" xlink:href="#HD"/>
<use x="485.40" y="151.40" xlink:href="#hl1"/>
<use x="485.40" y="157.40" xlink:href="#hl1"/>
<use x="485.40" y="157.40" xlink:href="#HD"/>
<use x="485.40" y="136.40" xlink:href="#HD"/>
<use x="485.40" y="130.40" xlink:href="#HD"/>
<use x="485.40" y="124.40" xlink:href="#HD"/>
<use x="485.40" y="118.40" xlink:href="#HD"/>
<use x="576.00" y="139.40" xlink:href="#hd"/>
<path d="M579.50 139.40v-21.00" class="stroke"/>
<use x="602.80" y="133.40" xlink:href="#hd"/>
<path d="M606.30 133.40v-21.00" class="stroke"/>
<use x="630.00" y="127.40" xlink:href="#hd"/>
<path d="M626.50 127.40v21.00" class="stroke"/>
<use x="656.80" y="121.40" xlink:href="#hd"/>
<path d="M653.30 121.40v21.00" class="stroke"/>
<defs>
<path id="ltr" class="fill"
    d="m0 -0.4c2 -1.5 3.4 -1.9 3.9 0.4
	c0.2 0.8 0.7 0.7 2.1 -0.4
	v0.8c-2 1.5 -3.4 1.9 -3.9 -0.4
	c-0.2 -0.8 -0.7 -0.7 -2.1 0.4z"/>
</defs>
<g transform="rotate(270)">
<use x="-160.40" y="85.00" xlink:href="#ltr"/>
<use x="-154.40" y="85.00" xlink:href="#ltr"/>
<use x="-148.40" y="85.00" xlink:href="#ltr"/>
<use x="-142.40" y="85.00" xlink:href="#ltr"/>
<use x="-136.40" y="85.00" xlink:href="#ltr"/>
<use x="-130.40" y="85.00" xlink:href="#ltr"/>
<use x="-124.40" y="85.00" xlink:href="#ltr"/>
<use x="-118.40" y="85.00" xlink:href="#ltr"/>
</g>
<g transform="rotate(270)">
<use x="-166.40" y="345.60" xlink:href="#ltr"/>
<use x="-160.40" y="345.60" xlink:href="#ltr"/>
<use x="-154.40" y="345.60" xlink:href="#ltr"/>
<use x="-148.40" y="345.60" xlink:href="#ltr"/>
<use x="-142.40" y="345.60" xlink:href="#ltr"/>
<use x="-136.40" y="345.60" xlink:href="#ltr"/>
<use x="-130.40" y="345.60" xlink:href="#ltr"/>
<use x="-124.40" y="345.60" xlink:href="#ltr"/>
</g>
<g transform="rotate(270)">
<use x="-160.40" y="471.90" xlink:href="#ltr"/>
<use x="-154.40" y="471.90" xlink:href="#ltr"/>
<use x="-148.40" y="471.90" xlink:href="#ltr"/>
<use x="-142.40" y="471.90" xlink:href="#ltr"/>
<use x="-136.40" y="471.90" xlink:href="#ltr"/>
<use x="-130.40" y="471.90" xlink:href="#ltr"/>
<use x="-124.40" y="471.90" xlink:href="#ltr"/>
<use x="-118.40" y="471.90" xlink:href="#ltr"/>
</g>
</g>
<g stroke-width="0.70" style="font:italic 11.00px Times">
<path class="stroke" stroke-width="1"
	d="M10.00 276.80v-82.00"/>
<g transform="translate(10.00,194.80) scale(1,0.82)">
	<use xlink:href="#brace"/>
</g>
<path class="stroke" stroke-width="1"
	d="M172.10 218.80v-24.00"/>
<path class="stroke" stroke-width="1"
	d="M172.10 276.80v-24.00"/>
<path class="stroke" stroke-width="1"
	d="M297.50 218.80v-24.00"/>
<path class="stroke" stroke-width="1"
	d="M297.50 276.80v-24.00"/>
<path class="stroke" stroke-width="1"
	d="M385.60 218.80v-24.00"/>
<path class="stroke" stroke-width="1"
	d="M385.60 276.80v-24.00"/>
<path class="stroke" stroke-width="1"
	d="M489.80 218.80v-24.00"/>
<path class="stroke" stroke-width="1"
	d="M489.80 276.80v-24.00"/>
<path class="stroke" stroke-width="1"
	d="M587.40 218.80v-24.00"/>
<path class="stroke" stroke-width="1"
	d="M587.40 276.80v-24.00"/>
<path class="stroke" stroke-width="1"
	d="M691.60 218.80v-24.00"/>
<path class="stroke" stroke-width="1"
	d="M691.60 276.80v-24.00"/>
<path d="m10.00 218.80
	h681.60
	M10.00 212.80
	h681.60
	M10.00 206.80
	h681.60
	M10.00 200.80
	h681.60
	M10.00 194.80
	h681.60
	" class="stroke"/>
<path d="m10.00 276.80
	h681.60
	M10.00 270.80
	h681.60
	M10.00 264.80
	h681.60
	M10.00 258.80
	h681.60
	M10.00 252.80
	h681.60
	" class="stroke"/>
</g>
<g stroke-width="0.70" style="font:bold 13.00px Times">
<text x="73.50" y="190.20">IV<tspan
	 style="font:italic 11.00px Times">Δ⁷</tspan></text>
</g>
<g stroke-width="0.70" style="font:bold 13.00px Times">
<text x="189.10" y="179.20">vi<tspan
	 style="font:italic 11.00px Times">m⁷</tspan></text>
</g>
<g stroke-width="0.70" style="font:bold 13.00px Times">
<text x="304.60" y="188.20">V<tspan
	 style="font:italic 11.00px Times">⁷</tspan></text>
</g>
<g stroke-width="0.70" style="font:bold 13.00px Times">
<text x="402.60" y="179.20">IV<tspan
	 style="font:italic 11.00px Times">Δ⁷</tspan></text>
</g>
<g stroke-width="0.70" style="font:bold 13.00px Times">
<text x="506.80" y="181.20">vi<tspan
	 style="font:italic 11.00px Times">m⁷</tspan></text>
</g>
<g stroke-width="0.70" style="font:bold 13.00px Times">
<text x="606.50" y="185.20">V<tspan
	 style="font:italic 11.00px Times">⁷</tspan></text>
</g>
<g stroke-width="0.70" style="font:italic 11.00px Times">
<use x="22.00" y="212.80" xlink:href="#tclef"/>
<use x="37.00" y="206.80" xlink:href="#ft0"/>
<use x="42.50" y="197.80" xlink:href="#ft0"/>
<use x="48.00" y="209.80" xlink:href="#ft0"/>
<use x="81.50" y="206.80" xlink:href="#hd"/>
<circle class="fill" cx="89.20" cy="203.80" r="1.2"/>
<path d="M78.00 206.80v21.00" class="stroke"/>
<use x="105.90" y="206.80" xlink:href="#hd"/>
<path d="M102.40 206.80v21.00" class="stroke"/>
<path class="fill"
	d="M102.40 227.80c0.6 -5.6 9.6 -9 5.6 -18.4
	1.6 6 -1.3 11.6 -5.6 12.8
"/>
<use x="119.40" y="212.80" xlink:href="#hd"/>
<path d="M122.90 212.80v-21.00" class="stroke"/>
<use x="138.90" y="218.80" xlink:href="#hd"/>
<path d="M142.40 218.80v-21.00" class="stroke"/>
<path class="fill"
	d="M142.40 197.80c0.6 5.6 9.6 9 5.6 18.4
	1.6 -6 -1.3 -11.6 -5.6 -12.8
"/>
<use x="155.10" y="212.80" xlink:href="#hd"/>
<path d="M158.60 212.80v-21.00" class="stroke"/>
<path class="fill"
	d="M158.60 191.80c0.6 5.6 9.6 9 5.6 18.4
	1.6 -6 -1.3 -11.6 -5.6 -12.8
"/>
<use x="197.10" y="206.80" xlink:href="#hd"/>
<path d="M200.60 206.80v-21.00" class="stroke"/>
<path class="fill"
	d="M200.60 185.80c0.6 5.6 9.6 9 5.6 18.4
	1.6 -6 -1.3 -11.6 -5.6 -12.8
"/>
<use x="213.40" y="209.80" xlink:href="#hd"/>
<path d="M216.90 209.80v-21.00" class="stroke"/>
<path class="fill"
	d="M216.90 188.80c0.6 5.6 9.6 9 5.6 18.4
	1.6 -6 -1.3 -11.6 -5.6 -12.8
"/>
<use x="229.70" y="215.80" xlink:href="#hd"/>
<path d="M233.20 215.80v-21.00" class="stroke"/>
<use x="249.20" y="209.80" xlink:href="#hd"/>
<path d="M252.70 209.80v-21.00" class="stroke"/>
<path class="fill"
	d="M252.70 188.80c0.6 5.6 9.6 9 5.6 18.4
	1.6 -6 -1.3 -11.6 -5.6 -12.8
"/>
<use x="265.40" y="212.80" xlink:href="#hd"/>
<path d="M268.90 212.80v-21.00" class="stroke"/>
<path class="fill"
	d="M268.90 191.80c0.6 5.6 9.6 9 5.6 18.4
	1.6 -6 -1.3 -11.6 -5.6 -12.8
"/>
<use x="281.70" y="218.80" xlink:href="#hd"/>
<path d="M285.20 218.80v-21.00" class="stroke"/>
<use x="310.50" y="215.80" xlink:href="#Hd"/>
<path d="M314.00 215.80v-21.00" class="stroke"/>
<use x="350.30" y="206.80" xlink:href="#hd"/>
<path d="M353.80 206.80v-21.00" class="stroke"/>
<defs>
<path id="r4" class="fill" d="m-1 -8.5
	l3.6 5.1 -2.1 5.2 2.2 4.3
	c-2.6 -2.3 -5.1 0 -2.4 2.6
	-4.8 -3 -1.5 -6.9 1.4 -4.1
	l-3.1 -4.5 1.9 -5.1 -1.5 -3.5"/>
</defs>
<use x="369.80" y="206.80" xlink:href="#r4"/>
<use x="410.60" y="206.80" xlink:href="#Hd"/>
<path d="M414.10 206.80v-21.00" class="stroke"/>
<use x="437.10" y="212.80" xlink:href="#hd"/>
<path d="M440.60 212.80v-21.00" class="stroke"/>
<use x="456.60" y="218.80" xlink:href="#hd"/>
<path d="M460.10 218.80v-21.00" class="stroke"/>
<path class="fill"
	d="M460.10 197.80c0.6 5.6 9.6 9 5.6 18.4
	1.6 -6 -1.3 -11.6 -5.6 -12.8
"/>
<use x="472.80" y="212.80" xlink:href="#hd"/>
<path d="M476.30 212.80v-21.00" class="stroke"/>
<path class="fill"
	d="M476.30 191.80c0.6 5.6 9.6 9 5.6 18.4
	1.6 -6 -1.3 -11.6 -5.6 -12.8
"/>
<use x="514.80" y="215.80" xlink:href="#hd"/>
<circle class="fill" cx="522.50" cy="215.80" r="1.2"/>
<path d="M518.30 215.80v-21.00" class="stroke"/>
<use x="539.20" y="209.80" xlink:href="#hd"/>
<path d="M542.70 209.80v-22.00" class="stroke"/>
<path class="fill"
	d="M542.70 187.80c0.9 3.7 9.1 6.4 6 12.4
	1 -5.4 -4.2 -8.4 -6 -8.4
M542.70 193.20c0.9 3.7 9.1 6.4 6 12.4
	1 -5.4 -4.2 -8.4 -6 -8.4
"/>
<use x="552.70" y="212.80" xlink:href="#hd"/>
<path d="M556.20 212.80v-22.00" class="stroke"/>
<path class="fill"
	d="M556.20 190.80c0.9 3.7 9.1 6.4 6 12.4
	1 -5.4 -4.2 -8.4 -6 -8.4
M556.20 196.20c0.9 3.7 9.1 6.4 6 12.4
	1 -5.4 -4.2 -8.4 -6 -8.4
"/>
<use x="566.70" y="215.80" xlink:href="#Hd"/>
<path d="M570.20 215.80v-21.00" class="stroke"/>
<use x="612.40" y="212.80" xlink:href="#Hd"/>
<path d="M615.90 212.80v-21.00" class="stroke"/>
<use x="638.80" y="218.80" xlink:href="#hd"/>
<path d="M642.30 218.80v-21.00" class="stroke"/>
<use x="658.30" y="212.80" xlink:href="#hd"/>
<path d="M661.80 212.80v-21.00" class="stroke"/>
<path class="fill"
	d="M661.80 191.80c0.6 5.6 9.6 9 5.6 18.4
	1.6 -6 -1.3 -11.6 -5.6 -12.8
"/>
<use x="674.60" y="206.80" xlink:href="#hd"/>
<path d="M678.10 206.80v-21.00" class="stroke"/>
<path class="fill"
	d="M678.10 185.80c0.6 5.6 9.6 9 5.6 18.4
	1.6 -6 -1.3 -11.6 -5.6 -12.8
"/>
<use x="22.00" y="258.80" xlink:href="#bclef"/>
<use x="37.00" y="270.80" xlink:href="#ft0"/>
<use x="42.50" y="261.80" xlink:href="#ft0"/>
<use x="48.00" y="273.80" xlink:href="#ft0"/>
<use x="82.50" y="282.80" xlink:href="#hl1"/>
<use x="82.50" y="288.80" xlink:href="#hl1"/>
<use x="82.50" y="294.80" xlink:href="#hl1"/>
<use x="82.50" y="294.80" xlink:href="#HD"/>
<use x="82.50" y="273.80" xlink:href="#HD"/>
<use x="82.50" y="267.80" xlink:href="#HD"/>
<use x="82.50" y="261.80" xlink:href="#HD"/>
<use x="82.50" y="255.80" xlink:href="#HD"/>
<use x="198.10" y="282.80" xlink:href="#hl1"/>
<use x="198.10" y="288.80" xlink:href="#hl1"/>
<use x="198.10" y="288.80" xlink:href="#HD"/>
<use x="198.10" y="267.80" xlink:href="#HD"/>
<use x="198.10" y="261.80" xlink:href="#HD"/>
<use x="198.10" y="255.80" xlink:href="#HD"/>
<use x="198.10" y="249.80" xlink:href="#HD"/>
<use x="310.50" y="270.80" xlink:href="#hd"/>
<path d="M314.00 270.80v-21.00" class="stroke"/>
<use x="330.00" y="264.80" xlink:href="#hd"/>
<path d="M333.50 264.80v-21.00" class="stroke"/>
<use x="350.30" y="258.80" xlink:href="#hd"/>
<path d="M346.80 258.80v21.00" class="stroke"/>
<use x="369.80" y="252.80" xlink:href="#hd"/>
<path d="M366.30 252.80v21.00" class="stroke"/>
<use x="411.60" y="282.80" xlink:href="#hl1"/>
<use x="411.60" y="288.80" xlink:href="#hl1"/>
<use x="411.60" y="294.80" xlink:href="#hl1"/>
<use x="411.60" y="294.80" xlink:href="#HD"/>
<use x="411.60" y="273.80" xlink:href="#HD"/>
<use x="411.60" y="267.80" xlink:href="#HD"/>
<use x="411.60" y="261.80" xlink:href="#HD"/>
<use x="411.60" y="255.80" xlink:href="#HD"/>
<use x="515.80" y="282.80" xlink:href="#hl1"/>
<use x="515.80" y="288.80" xlink:href="#hl1"/>
<use x="515.80" y="288.80" xlink:href="#HD"/>
<use x="515.80" y="267.80" xlink:href="#HD"/>
<use x="515.80" y="261.80" xlink:href="#HD"/>
<use x="515.80" y="255.80" xlink:href="#HD"/>
<use x="515.80" y="249.80" xlink:href="#HD"/>
<use x="613.40" y="282.80" xlink:href="#hl1"/>
<use x="613.40" y="288.80" xlink:href="#hl1"/>
<use x="613.40" y="291.80" xlink:href="#HD"/>
<use x="613.40" y="270.80" xlink:href="#HD"/>
<use x="613.40" y="264.80" xlink:href="#HD"/>
<use x="613.40" y="258.80" xlink:href="#HD"/>
<use x="613.40" y="252.80" xlink:href="#HD"/>
<g transform="rotate(270)">
<use x="-297.80" y="69.00" xlink:href="#ltr"/>
<use x="-291.80" y="69.00" xlink:href="#ltr"/>
<use x="-285.80" y="69.00" xlink:href="#ltr"/>
<use x="-279.80" y="69.00" xlink:href="#ltr"/>
<use x="-273.80" y="69.00" xlink:href="#ltr"/>
<use x="-267.80" y="69.00" xlink:href="#ltr"/>
<use x="-261.80" y="69.00" xlink:href="#ltr"/>
<use x="-255.80" y="69.00" xlink:href="#ltr"/>
</g>
<g transform="rotate(270)">
<use x="-291.80" y="184.60" xlink:href="#ltr"/>
<use x="-285.80" y="184.60" xlink:href="#ltr"/>
<use x="-279.80" y="184.60" xlink:href="#ltr"/>
<use x="-273.80" y="184.60" xlink:href="#ltr"/>
<use x="-267.80" y="184.60" xlink:href="#ltr"/>
<use x="-261.80" y="184.60" xlink:href="#ltr"/>
<use x="-255.80" y="184.60" xlink:href="#ltr"/>
<use x="-249.80" y="184.60" xlink:href="#ltr"/>
</g>
<g transform="rotate(270)">
<use x="-297.80" y="398.10" xlink:href="#ltr"/>
<use x="-291.80" y="398.10" xlink:href="#ltr"/>
<use x="-285.80" y="398.10" xlink:href="#ltr"/>
<use x="-279.80" y="398.10" xlink:href="#ltr"/>
<use x="-273.80" y="398.10" xlink:href="#ltr"/>
<use x="-267.80" y="398.10" xlink:href="#ltr"/>
<use x="-261.80" y="398.10" xlink:href="#ltr"/>
<use x="-255.80" y="398.10" xlink:href="#ltr"/>
</g>
<g transform="rotate(270)">
<use x="-291.80" y="502.30" xlink:href="#ltr"/>
<use x="-285.80" y="502.30" xlink:href="#ltr"/>
<use x="-279.80" y="502.30" xlink:href="#ltr"/>
<use x="-273.80" y="502.30" xlink:href="#ltr"/>
<use x="-267.80" y="502.30" xlink:href="#ltr"/>
<use x="-261.80" y="502.30" xlink:href="#ltr"/>
<use x="-255.80" y="502.30" xlink:href="#ltr"/>
<use x="-249.80" y="502.30" xlink:href="#ltr"/>
</g>
<g transform="rotate(270)">
<use x="-294.80" y="599.90" xlink:href="#ltr"/>
<use x="-288.80" y="599.90" xlink:href="#ltr"/>
<use x="-282.80" y="599.90" xlink:href="#ltr"/>
<use x="-276.80" y="599.90" xlink:href="#ltr"/>
<use x="-270.80" y="599.90" xlink:href="#ltr"/>
<use x="-264.80" y="599.90" xlink:href="#ltr"/>
<use x="-258.80" y="599.90" xlink:href="#ltr"/>
<use x="-252.80" y="599.90" xlink:href="#ltr"/>
</g>
</g>
<g stroke-width="0.70" style="font:italic 11.00px Times">
<path class="stroke" stroke-width="1"
	d="M10.00 408.20v-82.00"/>
<g transform="translate(10.00,326.20) scale(1,0.82)">
	<use xlink:href="#brace"/>
</g>
<path class="stroke" stroke-width="1"
	d="M175.20 350.20v-24.00"/>
<path class="stroke" stroke-width="1"
	d="M175.20 408.20v-24.00"/>
<path class="stroke" stroke-width="1"
	d="M326.50 350.20v-24.00"/>
<path class="stroke" stroke-width="1"
	d="M326.50 408.20v-24.00"/>
<path class="stroke" stroke-width="1"
	d="M483.00 350.20v-24.00"/>
<path class="stroke" stroke-width="1"
	d="M483.00 408.20v-24.00"/>
<path class="stroke" stroke-width="1"
	d="M620.90 350.20v-24.00"/>
<path class="stroke" stroke-width="1"
	d="M620.90 408.20v-24.00"/>
<path class="stroke" stroke-width="1"
	d="M691.60 350.20v-24.00"/>
<path class="stroke" stroke-width="1"
	d="M691.60 408.20v-24.00"/>
<path d="m10.00 350.20
	h681.60
	M10.00 344.20
	h681.60
	M10.00 338.20
	h681.60
	M10.00 332.20
	h681.60
	M10.00 326.20
	h681.60
	" class="stroke"/>
<path d="m10.00 408.20
	h681.60
	M10.00 402.20
	h681.60
	M10.00 396.20
	h681.60
	M10.00 390.20
	h681.60
	M10.00 384.20
	h681.60
	" class="stroke"/>
</g>
<g stroke-width="0.70" style="font:bold 13.00px Times">
<text x="73.50" y="310.60">vi<tspan
	 style="font:italic 11.00px Times">m⁷¹</tspan></text>
</g>
<g stroke-width="0.70" style="font:bold 13.00px Times">
<text x="182.30" y="320.60">V<tspan
	 style="font:italic 11.00px Times">⁷</tspan></text>
</g>
<g stroke-width="0.70" style="font:bold 13.00px Times">
<text x="343.50" y="321.60">IV<tspan
	 style="font:italic 11.00px Times">Δ⁷</tspan></text>
</g>
<g stroke-width="0.70" style="font:bold 13.00px Times">
<text x="502.30" y="310.60">I<tspan
	 style="font:italic 11.00px Times">Δ⁷</tspan></text>
</g>
<g stroke-width="0.70" style="font:bold 13.00px Times">
<text x="640.20" y="320.60">I<tspan
	 style="font:italic 11.00px Times">Δ⁷</tspan></text>
</g>
<g stroke-width="0.70" style="font:italic 11.00px Times">
<use x="22.00" y="344.20" xlink:href="#tclef"/>
<use x="37.00" y="338.20" xlink:href="#ft0"/>
<use x="42.50" y="329.20" xlink:href="#ft0"/>
<use x="48.00" y="341.20" xlink:href="#ft0"/>
<use x="81.50" y="338.20" xlink:href="#hd"/>
<circle class="fill" cx="89.20" cy="335.20" r="1.2"/>
<path d="M85.00 338.20v-21.00" class="stroke"/>
<use x="119.00" y="338.20" xlink:href="#hd"/>
<path d="M122.50 338.20v-21.00" class="stroke"/>
<path class="fill"
	d="M122.50 317.20c0.6 5.6 9.6 9 5.6 18.4
	1.6 -6 -1.3 -11.6 -5.6 -12.8
"/>
<use x="142.70" y="335.20" xlink:href="#Hd"/>
<path d="M139.20 335.20v21.00" class="stroke"/>
<use x="188.20" y="329.20" xlink:href="#Hd"/>
<path d="M184.70 329.20v21.00" class="stroke"/>
<use x="253.50" y="335.20" xlink:href="#hd"/>
<path d="M250.00 335.20v21.00" class="stroke"/>
<use x="286.10" y="341.20" xlink:href="#hd"/>
<path d="M289.60 341.20v-21.00" class="stroke"/>
<path class="fill"
	d="M289.60 320.20c0.6 5.6 9.6 9 5.6 18.4
	1.6 -6 -1.3 -11.6 -5.6 -12.8
"/>
<use x="309.80" y="335.20" xlink:href="#hd"/>
<path d="M306.30 335.20v21.00" class="stroke"/>
<path class="fill"
	d="M306.30 356.20c0.6 -5.6 9.6 -9 5.6 -18.4
	1.6 6 -1.3 11.6 -5.6 12.8
"/>
<use x="351.50" y="338.20" xlink:href="#hd"/>
<circle class="fill" cx="359.20" cy="335.20" r="1.2"/>
<path d="M348.00 338.20v21.00" class="stroke"/>
<use x="389.00" y="338.20" xlink:href="#hd"/>
<path d="M385.50 338.20v21.00" class="stroke"/>
<path class="fill"
	d="M385.50 359.20c0.6 -5.6 9.6 -9 5.6 -18.4
	1.6 6 -1.3 11.6 -5.6 12.8
"/>
<use x="410.00" y="344.20" xlink:href="#hd"/>
<path d="M413.50 344.20v-21.00" class="stroke"/>
<use x="442.50" y="350.20" xlink:href="#hd"/>
<path d="M446.00 350.20v-21.00" class="stroke"/>
<path class="fill"
	d="M446.00 329.20c0.6 5.6 9.6 9 5.6 18.4
	1.6 -6 -1.3 -11.6 -5.6 -12.8
"/>
<use x="466.00" y="344.20" xlink:href="#hd"/>
<path d="M469.50 344.20v-21.00" class="stroke"/>
<path class="fill"
	d="M469.50 323.20c0.6 5.6 9.6 9 5.6 18.4
	1.6 -6 -1.3 -11.6 -5.6 -12.8
"/>
<use x="508.00" y="338.20" xlink:href="#hd"/>
<circle class="fill" cx="515.70" cy="335.20" r="1.2"/>
<path d="M511.50 338.20v-21.00" class="stroke"/>
<path class="fill"
	d="M511.50 317.20c0.6 5.6 9.6 9 5.6 18.4
	1.6 -6 -1.3 -11.6 -5.6 -12.8
"/>
<use x="534.90" y="350.20" xlink:href="#hd"/>
<path d="M538.40 350.20v-22.00" class="stroke"/>
<path class="fill"
	d="M538.40 328.20c0.9 3.7 9.1 6.4 6 12.4
	1 -5.4 -4.2 -8.4 -6 -8.4
M538.40 333.60c0.9 3.7 9.1 6.4 6 12.4
	1 -5.4 -4.2 -8.4 -6 -8.4
"/>
<use x="551.90" y="344.20" xlink:href="#Hd"/>
<path d="M555.40 344.20v-21.00" class="stroke"/>
<use x="597.70" y="347.20" xlink:href="#hd"/>
<path d="M601.20 347.20v-21.00" class="stroke"/>
<use x="646.90" y="350.20" xlink:href="#HD"/>
<use x="646.90" y="329.20" xlink:href="#HD"/>
<use x="22.00" y="390.20" xlink:href="#bclef"/>
<use x="37.00" y="402.20" xlink:href="#ft0"/>
<use x="42.50" y="393.20" xlink:href="#ft0"/>
<use x="48.00" y="405.20" xlink:href="#ft0"/>
<use x="82.50" y="414.20" xlink:href="#hl1"/>
<use x="82.50" y="420.20" xlink:href="#hl1"/>
<use x="82.50" y="420.20" xlink:href="#HD"/>
<use x="82.50" y="399.20" xlink:href="#HD"/>
<use x="82.50" y="393.20" xlink:href="#HD"/>
<use x="82.50" y="387.20" xlink:href="#HD"/>
<use x="82.50" y="381.20" xlink:href="#HD"/>
<use x="188.20" y="402.20" xlink:href="#hd"/>
<path d="M191.70 402.20v-21.00" class="stroke"/>
<use x="220.80" y="396.20" xlink:href="#hd"/>
<path d="M224.30 396.20v-21.00" class="stroke"/>
<use x="253.50" y="390.20" xlink:href="#hd"/>
<path d="M250.00 390.20v21.00" class="stroke"/>
<use x="286.10" y="384.20" xlink:href="#hd"/>
<path d="M282.60 384.20v21.00" class="stroke"/>
<use x="352.50" y="414.20" xlink:href="#hl1"/>
<use x="352.50" y="420.20" xlink:href="#hl1"/>
<use x="352.50" y="426.20" xlink:href="#hl1"/>
<use x="352.50" y="426.20" xlink:href="#HD"/>
<use x="352.50" y="405.20" xlink:href="#HD"/>
<use x="352.50" y="399.20" xlink:href="#HD"/>
<use x="352.50" y="393.20" xlink:href="#HD"/>
<use x="352.50" y="387.20" xlink:href="#HD"/>
<use x="509.00" y="414.20" xlink:href="#hl1"/>
<use x="509.00" y="420.20" xlink:href="#hl1"/>
<use x="509.00" y="426.20" xlink:href="#hl1"/>
<use x="509.00" y="432.20" xlink:href="#hl1"/>
<use x="509.00" y="435.20" xlink:href="#HD"/>
<use x="509.00" y="414.20" xlink:href="#HD"/>
<use x="509.00" y="408.20" xlink:href="#HD"/>
<use x="509.00" y="402.20" xlink:href="#HD"/>
<use x="509.00" y="396.20" xlink:href="#HD"/>
<use x="646.90" y="414.20" xlink:href="#hl1"/>
<use x="646.90" y="420.20" xlink:href="#hl1"/>
<use x="646.90" y="426.20" xlink:href="#hl1"/>
<use x="646.90" y="432.20" xlink:href="#hl1"/>
<use x="646.90" y="435.20" xlink:href="#HD"/>
<use x="646.90" y="414.20" xlink:href="#HD"/>
<use x="646.90" y="408.20" xlink:href="#HD"/>
<use x="646.90" y="402.20" xlink:href="#HD"/>
<use x="646.90" y="396.20" xlink:href="#HD"/>
<g transform="rotate(270)">
<use x="-423.20" y="69.00" xlink:href="#ltr"/>
<use x="-417.20" y="69.00" xlink:href="#ltr"/>
<use x="-411.20" y="69.00" xlink:href="#ltr"/>
<use x="-405.20" y="69.00" xlink:href="#ltr"/>
<use x="-399.20" y="69.00" xlink:href="#ltr"/>
<use x="-393.20" y="69.00" xlink:href="#ltr"/>
<use x="-387.20" y="69.00" xlink:href="#ltr"/>
<use x="-381.20" y="69.00" xlink:href="#ltr"/>
</g>
<g transform="rotate(270)">
<use x="-429.20" y="339.00" xlink:href="#ltr"/>
<use x="-423.20" y="339.00" xlink:href="#ltr"/>
<use x="-417.20" y="339.00" xlink:href="#ltr"/>
<use x="-411.20" y="339.00" xlink:href="#ltr"/>
<use x="-405.20" y="339.00" xlink:href="#ltr"/>
<use x="-399.20" y="339.00" xlink:href="#ltr"/>
<use x="-393.20" y="339.00" xlink:href="#ltr"/>
<use x="-387.20" y="339.00" xlink:href="#ltr"/>
</g>
<g transform="rotate(270)">
<use x="-438.20" y="495.50" xlink:href="#ltr"/>
<use x="-432.20" y="495.50" xlink:href="#ltr"/>
<use x="-426.20" y="495.50" xlink:href="#ltr"/>
<use x="-420.20" y="495.50" xlink:href="#ltr"/>
<use x="-414.20" y="495.50" xlink:href="#ltr"/>
<use x="-408.20" y="495.50" xlink:href="#ltr"/>
<use x="-402.20" y="495.50" xlink:href="#ltr"/>
<use x="-396.20" y="495.50" xlink:href="#ltr"/>
</g>
<g transform="rotate(270)">
<use x="-438.20" y="633.40" xlink:href="#ltr"/>
<use x="-432.20" y="633.40" xlink:href="#ltr"/>
<use x="-426.20" y="633.40" xlink:href="#ltr"/>
<use x="-420.20" y="633.40" xlink:href="#ltr"/>
<use x="-414.20" y="633.40" xlink:href="#ltr"/>
<use x="-408.20" y="633.40" xlink:href="#ltr"/>
<use x="-402.20" y="633.40" xlink:href="#ltr"/>
<use x="-396.20" y="633.40" xlink:href="#ltr"/>
</g>
</g>
</svg>
