<?xml version="1.0" standalone="no"?>
<!DOCTYPE svg PUBLIC "-//W3C//DTD SVG 1.1//EN"
	"http://www.w3.org/Graphics/SVG/1.1/DTD/svg11.dtd">
<svg xmlns="http://www.w3.org/2000/svg" version="1.1"
	xmlns:xlink="http://www.w3.org/1999/xlink"
	color="black"
	width="701.60px" height="559.40px" viewBox="0 0 701.60 559.40" preserveAspectRatio="xMidYMid meet">
<style type="text/css">
.fill {fill: currentColor}
.stroke {stroke: currentColor; fill: none}
text{white-space: pre}
</style>
<title>/tmp/reharm_hymnal_L7/no_not_one.abc (1) tune 1</title>
<!-- Creator: abcm2ps-8.14.11 -->
<!-- CreationDate: Apr 24, 2026 15:32 -->
<!-- CommandLine: /tmp/reharm_hymnal_L7/no_not_one.abc -g -O /tmp/reharm_hymnal_L7/no_not_one -->
<g stroke-width="0.70">
<!-- title: 163. No, Not One! -->
</g>
<g stroke-width="0.70" style="font:20.00px Times">
<text x="350.80" y="22.00" text-anchor="middle">163. No, Not One!</text>
</g>
<g stroke-width="0.70" style="font:20.00px Times">
<path class="stroke" stroke-width="1"
	d="M10.00 143.00v-82.00"/>
<defs>
<path id="brace" class="fill" d="m-2.5 101
	c-4.5 -4.6 -7.5 -12.2 -4.4 -26.8
	3.5 -14.3 3.2 -21.7 -2.1 -24.2
	7.4 2.4 7.3 14.2 3.5 29.5
	-2.7 9.5 -1.5 16.2 3 21.5
	M-2.5 1c-4.5 4.6 -7.5 12.2 -4.4 26.8
	c3.5 14.3 3.2 21.7 -2.1 24.2
	7.4 -2.4 7.3 -14.2 3.5 -29.5
	-2.7 -9.5 -1.5 -16.2 3 -21.5"/>
</defs>
<g transform="translate(10.00,61.00) scale(1,0.82)">
	<use xlink:href="#brace"/>
</g>
<path class="stroke" stroke-width="1"
	d="M208.40 85.00v-24.00"/>
<path class="stroke" stroke-width="1"
	d="M208.40 143.00v-24.00"/>
<path class="stroke" stroke-width="1"
	d="M325.00 85.00v-24.00"/>
<path class="stroke" stroke-width="1"
	d="M325.00 143.00v-24.00"/>
<path class="stroke" stroke-width="1"
	d="M440.90 85.00v-24.00"/>
<path class="stroke" stroke-width="1"
	d="M440.90 143.00v-24.00"/>
<path class="stroke" stroke-width="1"
	d="M556.70 85.00v-24.00"/>
<path class="stroke" stroke-width="1"
	d="M556.70 143.00v-24.00"/>
<path class="stroke" stroke-width="1"
	d="M691.60 85.00v-24.00"/>
<path class="stroke" stroke-width="1"
	d="M691.60 143.00v-24.00"/>
<path d="m10.00 85.00
	h681.60
	M10.00 79.00
	h681.60
	M10.00 73.00
	h681.60
	M10.00 67.00
	h681.60
	M10.00 61.00
	h681.60
	" class="stroke"/>
<path d="m10.00 143.00
	h681.60
	M10.00 137.00
	h681.60
	M10.00 131.00
	h681.60
	M10.00 125.00
	h681.60
	M10.00 119.00
	h681.60
	" class="stroke"/>
</g>
<g stroke-width="0.70" style="font:bold 13.00px Times">
<text x="78.50" y="48.40">vi<tspan
	 style="font:italic 11.00px Times">m⁷</tspan></text>
</g>
<g stroke-width="0.70" style="font:bold 13.00px Times">
<text x="215.00" y="56.40">V<tspan
	 style="font:italic 11.00px Times">⁷</tspan></text>
</g>
<g stroke-width="0.70" style="font:bold 13.00px Times">
<text x="342.00" y="48.40">IV<tspan
	 style="font:italic 11.00px Times">Δ⁷</tspan></text>
</g>
<g stroke-width="0.70" style="font:bold 13.00px Times">
<text x="457.90" y="48.40">vi<tspan
	 style="font:italic 11.00px Times">m⁷</tspan></text>
</g>
<g stroke-width="0.70" style="font:bold 13.00px Times">
<text x="563.30" y="48.40">V<tspan
	 style="font:italic 11.00px Times">⁷</tspan></text>
</g>
<g stroke-width="0.70" style="font:italic 11.00px Times">
<defs>
<path id="utclef" class="fill" d="m-50 -90
	c-72 -41 -72 -158 52 -188
	150 -10 220 188 90 256
	-114 52 -275 0 -293 -136
	-15 -181 93 -229 220 -334
	88 -87 79 -133 62 -210
	-51 33 -94 105 -89 186
	17 267 36 374 49 574
	6 96 -19 134 -77 135
	-80 1 -126 -93 -61 -133
	85 -41 133 101 31 105
	23 17 92 37 90 -92
	-10 -223 -39 -342 -50 -617
	0 -90 0 -162 96 -232
	56 72 63 230 22 289
	-74 106 -257 168 -255 316
	9 153 148 185 252 133
	86 -65 29 -192 -80 -176
	-71 12 -105 67 -59 124"/>
<use id="tclef" transform="translate(0,6) scale(0.045)"
	xlink:href="#utclef"/>
</defs>
<use x="22.00" y="79.00" xlink:href="#tclef"/>
<defs>
<path id="uflat" class="fill" d="
	m100 -746
	h32
	v734
	l-32 4
	m32 -332
	c46 -72 152 -90 208 -20
	100 110 -120 326 -208 348
	m0 -28
	c54 0 200 -206 130 -290
	-50 -60 -130 -4 -130 34"/>
<use id="ft0" transform="translate(-3.5,3.5) scale(0.018)"
	xlink:href="#uflat"/>
</defs>
<use x="37.00" y="73.00" xlink:href="#ft0"/>
<g style="font:bold 16px serif"
	transform="translate(53.00,84.50) scale(1.2,1)">
	<text text-anchor="middle">4</text>
	<text y="-12" text-anchor="middle">4</text>
</g>
<defs>
<ellipse id="hd" rx="4.1" ry="2.9"
	transform="rotate(-20)" class="fill"/>
</defs>
<use x="86.50" y="76.00" xlink:href="#hd"/>
<path d="M90.00 76.00v-21.00" class="stroke"/>
<use x="110.70" y="76.00" xlink:href="#hd"/>
<circle class="fill" cx="118.40" cy="76.00" r="1.2"/>
<path d="M114.20 76.00v-21.00" class="stroke"/>
<path class="fill"
	d="M114.20 55.00c0.6 5.6 9.6 9 5.6 18.4
	1.6 -6 -1.3 -11.6 -5.6 -12.8
"/>
<use x="132.00" y="79.00" xlink:href="#hd"/>
<path d="M135.50 79.00v-22.00" class="stroke"/>
<path class="fill"
	d="M135.50 57.00c0.9 3.7 9.1 6.4 6 12.4
	1 -5.4 -4.2 -8.4 -6 -8.4
M135.50 62.40c0.9 3.7 9.1 6.4 6 12.4
	1 -5.4 -4.2 -8.4 -6 -8.4
"/>
<use x="145.90" y="82.00" xlink:href="#hd"/>
<path d="M149.40 82.00v-21.00" class="stroke"/>
<use x="170.10" y="82.00" xlink:href="#hd"/>
<circle class="fill" cx="177.80" cy="82.00" r="1.2"/>
<path d="M173.60 82.00v-21.00" class="stroke"/>
<path class="fill"
	d="M173.60 61.00c0.6 5.6 9.6 9 5.6 18.4
	1.6 -6 -1.3 -11.6 -5.6 -12.8
"/>
<use x="191.40" y="85.00" xlink:href="#hd"/>
<path d="M194.90 85.00v-22.00" class="stroke"/>
<path class="fill"
	d="M194.90 63.00c0.9 3.7 9.1 6.4 6 12.4
	1 -5.4 -4.2 -8.4 -6 -8.4
M194.90 68.40c0.9 3.7 9.1 6.4 6 12.4
	1 -5.4 -4.2 -8.4 -6 -8.4
"/>
<use x="220.90" y="88.00" xlink:href="#hd"/>
<path d="M224.40 88.00v-21.00" class="stroke"/>
<use x="245.60" y="82.00" xlink:href="#hd"/>
<path d="M249.10 82.00v-21.00" class="stroke"/>
<use x="269.80" y="88.00" xlink:href="#hd"/>
<path d="M273.30 88.00v-21.00" class="stroke"/>
<path class="fill"
	d="M273.30 67.00c0.6 5.6 9.6 9 5.6 18.4
	1.6 -6 -1.3 -11.6 -5.6 -12.8
"/>
<defs>
<path id="hl" class="stroke" d="m-6 0h12"/>
</defs>
<use x="288.40" y="91.00" xlink:href="#hl"/>
<use x="288.40" y="91.00" xlink:href="#hd"/>
<path d="M291.90 91.00v-21.00" class="stroke"/>
<path class="fill"
	d="M291.90 70.00c0.6 5.6 9.6 9 5.6 18.4
	1.6 -6 -1.3 -11.6 -5.6 -12.8
"/>
<defs>
<path id="r4" class="fill" d="m-1 -8.5
	l3.6 5.1 -2.1 5.2 2.2 4.3
	c-2.6 -2.3 -5.1 0 -2.4 2.6
	-4.8 -3 -1.5 -6.9 1.4 -4.1
	l-3.1 -4.5 1.9 -5.1 -1.5 -3.5"/>
</defs>
<use x="306.90" y="73.00" xlink:href="#r4"/>
<use x="350.00" y="76.00" xlink:href="#hd"/>
<path d="M353.50 76.00v-21.00" class="stroke"/>
<use x="374.30" y="76.00" xlink:href="#hd"/>
<path d="M377.80 76.00v-21.00" class="stroke"/>
<use x="398.50" y="79.00" xlink:href="#hd"/>
<path d="M402.00 79.00v-21.00" class="stroke"/>
<use x="422.70" y="73.00" xlink:href="#r4"/>
<use x="465.90" y="76.00" xlink:href="#hd"/>
<path d="M469.40 76.00v-21.00" class="stroke"/>
<use x="490.10" y="79.00" xlink:href="#hd"/>
<path d="M493.60 79.00v-21.00" class="stroke"/>
<use x="514.30" y="82.00" xlink:href="#hd"/>
<path d="M517.80 82.00v-21.00" class="stroke"/>
<use x="538.60" y="73.00" xlink:href="#r4"/>
<use x="569.20" y="76.00" xlink:href="#hd"/>
<path d="M572.70 76.00v-21.00" class="stroke"/>
<use x="593.90" y="76.00" xlink:href="#hd"/>
<circle class="fill" cx="601.60" cy="76.00" r="1.2"/>
<path d="M597.40 76.00v-21.00" class="stroke"/>
<path class="fill"
	d="M597.40 55.00c0.6 5.6 9.6 9 5.6 18.4
	1.6 -6 -1.3 -11.6 -5.6 -12.8
"/>
<use x="615.20" y="79.00" xlink:href="#hd"/>
<path d="M618.70 79.00v-22.00" class="stroke"/>
<path class="fill"
	d="M618.70 57.00c0.9 3.7 9.1 6.4 6 12.4
	1 -5.4 -4.2 -8.4 -6 -8.4
M618.70 62.40c0.9 3.7 9.1 6.4 6 12.4
	1 -5.4 -4.2 -8.4 -6 -8.4
"/>
<use x="629.10" y="82.00" xlink:href="#hd"/>
<path d="M632.60 82.00v-21.00" class="stroke"/>
<use x="653.30" y="82.00" xlink:href="#hd"/>
<circle class="fill" cx="661.00" cy="82.00" r="1.2"/>
<path d="M656.80 82.00v-21.00" class="stroke"/>
<path class="fill"
	d="M656.80 61.00c0.6 5.6 9.6 9 5.6 18.4
	1.6 -6 -1.3 -11.6 -5.6 -12.8
"/>
<use x="674.60" y="85.00" xlink:href="#hd"/>
<path d="M678.10 85.00v-22.00" class="stroke"/>
<path class="fill"
	d="M678.10 63.00c0.9 3.7 9.1 6.4 6 12.4
	1 -5.4 -4.2 -8.4 -6 -8.4
M678.10 68.40c0.9 3.7 9.1 6.4 6 12.4
	1 -5.4 -4.2 -8.4 -6 -8.4
"/>
<defs>
<path id="ubclef" class="fill" d="m-200 -87
	c124 -35 222 -78 254 -236
	43 -228 -167 -246 -192 -103
	59 -80 157 22 92 78
	-62 47 -115 -22 -106 -88
	21 -141 270 -136 274 52
	-1 175 -106 264 -322 297
	m357 -250
	c0 -36 51 -34 51 0
	0 37 -51 36 -51 0
	m-2 -129
	c0 -36 51 -34 51 0
	0 38 -51 37 -51 0"/>
<use id="bclef" transform="translate(0,18) scale(0.045)"
	xlink:href="#ubclef"/>
</defs>
<use x="22.00" y="125.00" xlink:href="#bclef"/>
<use x="37.00" y="137.00" xlink:href="#ft0"/>
<g style="font:bold 16px serif"
	transform="translate(53.00,142.50) scale(1.2,1)">
	<text text-anchor="middle">4</text>
	<text y="-12" text-anchor="middle">4</text>
</g>
<defs>
<path id="hl1" class="stroke" d="m-7 0h14"/>
</defs>
<use x="87.50" y="149.00" xlink:href="#hl1"/>
<use x="87.50" y="113.00" xlink:href="#hl1"/>
<defs>
<path id="HD" class="fill" d="m-2.7 -1.4
	c1.5 -2.8 6.9 0 5.3 2.7
	-1.5 2.8 -6.9 0 -5.3 -2.7
	m8.3 1.4
	c0 -1.5 -2.2 -3 -5.6 -3
	-3.4 0 -5.6 1.5 -5.6 3
	0 1.5 2.2 3 5.6 3
	3.4 0 5.6 -1.5 5.6 -3"/>
</defs>
<use x="87.50" y="152.00" xlink:href="#HD"/>
<use x="87.50" y="131.00" xlink:href="#HD"/>
<use x="87.50" y="125.00" xlink:href="#HD"/>
<use x="87.50" y="119.00" xlink:href="#HD"/>
<use x="87.50" y="113.00" xlink:href="#HD"/>
<use x="220.90" y="134.00" xlink:href="#hd"/>
<path d="M224.40 134.00v-21.00" class="stroke"/>
<use x="245.60" y="128.00" xlink:href="#hd"/>
<path d="M242.10 128.00v21.00" class="stroke"/>
<use x="269.80" y="122.00" xlink:href="#hd"/>
<path d="M266.30 122.00v21.00" class="stroke"/>
<use x="306.90" y="116.00" xlink:href="#hd"/>
<path d="M303.40 116.00v21.00" class="stroke"/>
<use x="351.00" y="149.00" xlink:href="#hl1"/>
<use x="351.00" y="155.00" xlink:href="#hl1"/>
<use x="351.00" y="158.00" xlink:href="#HD"/>
<use x="351.00" y="137.00" xlink:href="#HD"/>
<use x="351.00" y="131.00" xlink:href="#HD"/>
<use x="351.00" y="125.00" xlink:href="#HD"/>
<use x="351.00" y="119.00" xlink:href="#HD"/>
<use x="466.90" y="149.00" xlink:href="#hl1"/>
<use x="466.90" y="113.00" xlink:href="#hl1"/>
<use x="466.90" y="152.00" xlink:href="#HD"/>
<use x="466.90" y="131.00" xlink:href="#HD"/>
<use x="466.90" y="125.00" xlink:href="#HD"/>
<use x="466.90" y="119.00" xlink:href="#HD"/>
<use x="466.90" y="113.00" xlink:href="#HD"/>
<use x="569.20" y="134.00" xlink:href="#hd"/>
<path d="M572.70 134.00v-21.00" class="stroke"/>
<use x="593.90" y="128.00" xlink:href="#hd"/>
<path d="M590.40 128.00v21.00" class="stroke"/>
<use x="629.10" y="122.00" xlink:href="#hd"/>
<path d="M625.60 122.00v21.00" class="stroke"/>
<use x="653.30" y="116.00" xlink:href="#hd"/>
<path d="M649.80 116.00v21.00" class="stroke"/>
<defs>
<path id="ltr" class="fill"
    d="m0 -0.4c2 -1.5 3.4 -1.9 3.9 0.4
	c0.2 0.8 0.7 0.7 2.1 -0.4
	v0.8c-2 1.5 -3.4 1.9 -3.9 -0.4
	c-0.2 -0.8 -0.7 -0.7 -2.1 0.4z"/>
</defs>
<g transform="rotate(270)">
<use x="-155.00" y="74.00" xlink:href="#ltr"/>
<use x="-149.00" y="74.00" xlink:href="#ltr"/>
<use x="-143.00" y="74.00" xlink:href="#ltr"/>
<use x="-137.00" y="74.00" xlink:href="#ltr"/>
<use x="-131.00" y="74.00" xlink:href="#ltr"/>
<use x="-125.00" y="74.00" xlink:href="#ltr"/>
<use x="-119.00" y="74.00" xlink:href="#ltr"/>
<use x="-113.00" y="74.00" xlink:href="#ltr"/>
</g>
<g transform="rotate(270)">
<use x="-161.00" y="337.50" xlink:href="#ltr"/>
<use x="-155.00" y="337.50" xlink:href="#ltr"/>
<use x="-149.00" y="337.50" xlink:href="#ltr"/>
<use x="-143.00" y="337.50" xlink:href="#ltr"/>
<use x="-137.00" y="337.50" xlink:href="#ltr"/>
<use x="-131.00" y="337.50" xlink:href="#ltr"/>
<use x="-125.00" y="337.50" xlink:href="#ltr"/>
<use x="-119.00" y="337.50" xlink:href="#ltr"/>
</g>
<g transform="rotate(270)">
<use x="-155.00" y="453.40" xlink:href="#ltr"/>
<use x="-149.00" y="453.40" xlink:href="#ltr"/>
<use x="-143.00" y="453.40" xlink:href="#ltr"/>
<use x="-137.00" y="453.40" xlink:href="#ltr"/>
<use x="-131.00" y="453.40" xlink:href="#ltr"/>
<use x="-125.00" y="453.40" xlink:href="#ltr"/>
<use x="-119.00" y="453.40" xlink:href="#ltr"/>
<use x="-113.00" y="453.40" xlink:href="#ltr"/>
</g>
</g>
<g stroke-width="0.70" style="font:italic 11.00px Times">
<path class="stroke" stroke-width="1"
	d="M10.00 271.00v-82.00"/>
<g transform="translate(10.00,189.00) scale(1,0.82)">
	<use xlink:href="#brace"/>
</g>
<path class="stroke" stroke-width="1"
	d="M167.10 213.00v-24.00"/>
<path class="stroke" stroke-width="1"
	d="M167.10 271.00v-24.00"/>
<path class="stroke" stroke-width="1"
	d="M291.00 213.00v-24.00"/>
<path class="stroke" stroke-width="1"
	d="M291.00 271.00v-24.00"/>
<path class="stroke" stroke-width="1"
	d="M414.90 213.00v-24.00"/>
<path class="stroke" stroke-width="1"
	d="M414.90 271.00v-24.00"/>
<path class="stroke" stroke-width="1"
	d="M554.80 213.00v-24.00"/>
<path class="stroke" stroke-width="1"
	d="M554.80 271.00v-24.00"/>
<path class="stroke" stroke-width="1"
	d="M691.60 213.00v-24.00"/>
<path class="stroke" stroke-width="1"
	d="M691.60 271.00v-24.00"/>
<path d="m10.00 213.00
	h681.60
	M10.00 207.00
	h681.60
	M10.00 201.00
	h681.60
	M10.00 195.00
	h681.60
	M10.00 189.00
	h681.60
	" class="stroke"/>
<path d="m10.00 271.00
	h681.60
	M10.00 265.00
	h681.60
	M10.00 259.00
	h681.60
	M10.00 253.00
	h681.60
	M10.00 247.00
	h681.60
	" class="stroke"/>
</g>
<g stroke-width="0.70" style="font:bold 13.00px Times">
<text x="47.00" y="182.40">IV<tspan
	 style="font:italic 11.00px Times">Δ⁷¹</tspan></text>
</g>
<g stroke-width="0.70" style="font:bold 13.00px Times">
<text x="184.10" y="176.40">iii<tspan
	 style="font:italic 11.00px Times">m⁷</tspan></text>
</g>
<g stroke-width="0.70" style="font:bold 13.00px Times">
<text x="308.00" y="176.40">vi<tspan
	 style="font:italic 11.00px Times">m⁷</tspan></text>
</g>
<g stroke-width="0.70" style="font:bold 13.00px Times">
<text x="434.00" y="176.40">V<tspan
	 style="font:italic 11.00px Times">⁷</tspan></text>
</g>
<g stroke-width="0.70" style="font:bold 13.00px Times">
<text x="571.80" y="176.40">vi<tspan
	 style="font:italic 11.00px Times">m⁷</tspan></text>
</g>
<g stroke-width="0.70" style="font:italic 11.00px Times">
<use x="22.00" y="207.00" xlink:href="#tclef"/>
<use x="37.00" y="201.00" xlink:href="#ft0"/>
<use x="55.00" y="216.00" xlink:href="#hd"/>
<path d="M58.50 216.00v-21.00" class="stroke"/>
<use x="81.50" y="210.00" xlink:href="#hd"/>
<path d="M85.00 210.00v-21.00" class="stroke"/>
<use x="108.40" y="216.00" xlink:href="#hd"/>
<path d="M111.90 216.00v-21.00" class="stroke"/>
<path class="fill"
	d="M111.90 195.00c0.6 5.6 9.6 9 5.6 18.4
	1.6 -6 -1.3 -11.6 -5.6 -12.8
"/>
<use x="128.00" y="219.00" xlink:href="#hl"/>
<use x="128.00" y="219.00" xlink:href="#hd"/>
<path d="M131.50 219.00v-21.00" class="stroke"/>
<path class="fill"
	d="M131.50 198.00c0.6 5.6 9.6 9 5.6 18.4
	1.6 -6 -1.3 -11.6 -5.6 -12.8
"/>
<use x="147.70" y="201.00" xlink:href="#r4"/>
<use x="192.10" y="204.00" xlink:href="#hd"/>
<path d="M195.60 204.00v-21.00" class="stroke"/>
<use x="218.60" y="204.00" xlink:href="#hd"/>
<path d="M222.10 204.00v-21.00" class="stroke"/>
<use x="245.10" y="207.00" xlink:href="#hd"/>
<path d="M248.60 207.00v-21.00" class="stroke"/>
<use x="271.60" y="201.00" xlink:href="#r4"/>
<use x="316.00" y="204.00" xlink:href="#hd"/>
<path d="M319.50 204.00v-21.00" class="stroke"/>
<use x="342.50" y="207.00" xlink:href="#hd"/>
<path d="M346.00 207.00v-21.00" class="stroke"/>
<use x="369.00" y="210.00" xlink:href="#hd"/>
<path d="M372.50 210.00v-21.00" class="stroke"/>
<use x="395.60" y="201.00" xlink:href="#r4"/>
<use x="439.90" y="204.00" xlink:href="#hd"/>
<path d="M443.40 204.00v-21.00" class="stroke"/>
<use x="466.80" y="198.00" xlink:href="#hd"/>
<path d="M463.30 198.00v21.00" class="stroke"/>
<use x="493.30" y="198.00" xlink:href="#hd"/>
<path d="M489.80 198.00v21.00" class="stroke"/>
<use x="519.80" y="195.00" xlink:href="#hd"/>
<circle class="fill" cx="527.50" cy="192.00" r="1.2"/>
<path d="M516.30 195.00v21.00" class="stroke"/>
<path class="fill"
	d="M516.30 216.00c0.6 -5.6 9.6 -9 5.6 -18.4
	1.6 6 -1.3 11.6 -5.6 12.8
"/>
<use x="542.30" y="198.00" xlink:href="#hd"/>
<path d="M538.80 198.00v23.00" class="stroke"/>
<path class="fill"
	d="M538.80 221.00c0.9 -3.7 9.1 -6.4 6 -12.4
	1 5.4 -4.2 8.4 -6 8.4
M538.80 215.60c0.9 -3.7 9.1 -6.4 6 -12.4
	1 5.4 -4.2 8.4 -6 8.4
"/>
<use x="579.80" y="204.00" xlink:href="#hd"/>
<path d="M583.30 204.00v-21.00" class="stroke"/>
<use x="606.40" y="204.00" xlink:href="#hd"/>
<path d="M609.90 204.00v-21.00" class="stroke"/>
<use x="632.90" y="207.00" xlink:href="#hd"/>
<path d="M636.40 207.00v-21.00" class="stroke"/>
<path class="fill"
	d="M636.40 186.00c0.6 5.6 9.6 9 5.6 18.4
	1.6 -6 -1.3 -11.6 -5.6 -12.8
"/>
<use x="652.60" y="210.00" xlink:href="#hd"/>
<path d="M656.10 210.00v-21.00" class="stroke"/>
<path class="fill"
	d="M656.10 189.00c0.6 5.6 9.6 9 5.6 18.4
	1.6 -6 -1.3 -11.6 -5.6 -12.8
"/>
<use x="672.20" y="201.00" xlink:href="#r4"/>
<use x="22.00" y="253.00" xlink:href="#bclef"/>
<use x="37.00" y="265.00" xlink:href="#ft0"/>
<use x="55.00" y="265.00" xlink:href="#hd"/>
<path d="M58.50 265.00v-21.00" class="stroke"/>
<use x="81.50" y="259.00" xlink:href="#hd"/>
<path d="M85.00 259.00v-21.00" class="stroke"/>
<use x="108.40" y="253.00" xlink:href="#hd"/>
<path d="M104.90 253.00v21.00" class="stroke"/>
<use x="147.70" y="247.00" xlink:href="#hd"/>
<path d="M144.20 247.00v21.00" class="stroke"/>
<use x="193.10" y="277.00" xlink:href="#hl1"/>
<use x="193.10" y="283.00" xlink:href="#hl1"/>
<use x="193.10" y="289.00" xlink:href="#hl1"/>
<use x="193.10" y="289.00" xlink:href="#HD"/>
<use x="193.10" y="268.00" xlink:href="#HD"/>
<use x="193.10" y="262.00" xlink:href="#HD"/>
<use x="193.10" y="256.00" xlink:href="#HD"/>
<use x="193.10" y="250.00" xlink:href="#HD"/>
<use x="317.00" y="277.00" xlink:href="#hl1"/>
<use x="317.00" y="241.00" xlink:href="#hl1"/>
<use x="317.00" y="280.00" xlink:href="#HD"/>
<use x="317.00" y="259.00" xlink:href="#HD"/>
<use x="317.00" y="253.00" xlink:href="#HD"/>
<use x="317.00" y="247.00" xlink:href="#HD"/>
<use x="317.00" y="241.00" xlink:href="#HD"/>
<use x="440.90" y="277.00" xlink:href="#hl1"/>
<use x="440.90" y="283.00" xlink:href="#hl1"/>
<use x="440.90" y="283.00" xlink:href="#HD"/>
<use x="440.90" y="262.00" xlink:href="#HD"/>
<use x="440.90" y="256.00" xlink:href="#HD"/>
<use x="440.90" y="250.00" xlink:href="#HD"/>
<use x="440.90" y="244.00" xlink:href="#HD"/>
<use x="580.80" y="277.00" xlink:href="#hl1"/>
<use x="580.80" y="241.00" xlink:href="#hl1"/>
<use x="580.80" y="280.00" xlink:href="#HD"/>
<use x="580.80" y="259.00" xlink:href="#HD"/>
<use x="580.80" y="253.00" xlink:href="#HD"/>
<use x="580.80" y="247.00" xlink:href="#HD"/>
<use x="580.80" y="241.00" xlink:href="#HD"/>
<g transform="rotate(270)">
<use x="-292.00" y="179.60" xlink:href="#ltr"/>
<use x="-286.00" y="179.60" xlink:href="#ltr"/>
<use x="-280.00" y="179.60" xlink:href="#ltr"/>
<use x="-274.00" y="179.60" xlink:href="#ltr"/>
<use x="-268.00" y="179.60" xlink:href="#ltr"/>
<use x="-262.00" y="179.60" xlink:href="#ltr"/>
<use x="-256.00" y="179.60" xlink:href="#ltr"/>
<use x="-250.00" y="179.60" xlink:href="#ltr"/>
</g>
<g transform="rotate(270)">
<use x="-283.00" y="303.50" xlink:href="#ltr"/>
<use x="-277.00" y="303.50" xlink:href="#ltr"/>
<use x="-271.00" y="303.50" xlink:href="#ltr"/>
<use x="-265.00" y="303.50" xlink:href="#ltr"/>
<use x="-259.00" y="303.50" xlink:href="#ltr"/>
<use x="-253.00" y="303.50" xlink:href="#ltr"/>
<use x="-247.00" y="303.50" xlink:href="#ltr"/>
<use x="-241.00" y="303.50" xlink:href="#ltr"/>
</g>
<g transform="rotate(270)">
<use x="-286.00" y="427.40" xlink:href="#ltr"/>
<use x="-280.00" y="427.40" xlink:href="#ltr"/>
<use x="-274.00" y="427.40" xlink:href="#ltr"/>
<use x="-268.00" y="427.40" xlink:href="#ltr"/>
<use x="-262.00" y="427.40" xlink:href="#ltr"/>
<use x="-256.00" y="427.40" xlink:href="#ltr"/>
<use x="-250.00" y="427.40" xlink:href="#ltr"/>
<use x="-244.00" y="427.40" xlink:href="#ltr"/>
</g>
<g transform="rotate(270)">
<use x="-283.00" y="567.30" xlink:href="#ltr"/>
<use x="-277.00" y="567.30" xlink:href="#ltr"/>
<use x="-271.00" y="567.30" xlink:href="#ltr"/>
<use x="-265.00" y="567.30" xlink:href="#ltr"/>
<use x="-259.00" y="567.30" xlink:href="#ltr"/>
<use x="-253.00" y="567.30" xlink:href="#ltr"/>
<use x="-247.00" y="567.30" xlink:href="#ltr"/>
<use x="-241.00" y="567.30" xlink:href="#ltr"/>
</g>
</g>
<g stroke-width="0.70" style="font:italic 11.00px Times">
<path class="stroke" stroke-width="1"
	d="M10.00 400.00v-82.00"/>
<g transform="translate(10.00,318.00) scale(1,0.82)">
	<use xlink:href="#brace"/>
</g>
<path class="stroke" stroke-width="1"
	d="M185.00 342.00v-24.00"/>
<path class="stroke" stroke-width="1"
	d="M185.00 400.00v-24.00"/>
<path class="stroke" stroke-width="1"
	d="M289.50 342.00v-24.00"/>
<path class="stroke" stroke-width="1"
	d="M289.50 400.00v-24.00"/>
<path class="stroke" stroke-width="1"
	d="M443.90 342.00v-24.00"/>
<path class="stroke" stroke-width="1"
	d="M443.90 400.00v-24.00"/>
<path class="stroke" stroke-width="1"
	d="M580.30 342.00v-24.00"/>
<path class="stroke" stroke-width="1"
	d="M580.30 400.00v-24.00"/>
<path class="stroke" stroke-width="1"
	d="M691.60 342.00v-24.00"/>
<path class="stroke" stroke-width="1"
	d="M691.60 400.00v-24.00"/>
<path d="m10.00 342.00
	h681.60
	M10.00 336.00
	h681.60
	M10.00 330.00
	h681.60
	M10.00 324.00
	h681.60
	M10.00 318.00
	h681.60
	" class="stroke"/>
<path d="m10.00 400.00
	h681.60
	M10.00 394.00
	h681.60
	M10.00 388.00
	h681.60
	M10.00 382.00
	h681.60
	M10.00 376.00
	h681.60
	" class="stroke"/>
</g>
<g stroke-width="0.70" style="font:bold 13.00px Times">
<text x="64.60" y="305.40">V<tspan
	 style="font:italic 11.00px Times">⁷</tspan></text>
</g>
<g stroke-width="0.70" style="font:bold 13.00px Times">
<text x="202.00" y="305.40">vi<tspan
	 style="font:italic 11.00px Times">m⁷</tspan></text>
</g>
<g stroke-width="0.70" style="font:bold 13.00px Times">
<text x="308.60" y="305.40">V<tspan
	 style="font:italic 11.00px Times">⁷</tspan></text>
</g>
<g stroke-width="0.70" style="font:bold 13.00px Times">
<text x="460.90" y="311.40">vi<tspan
	 style="font:italic 11.00px Times">m⁷</tspan></text>
</g>
<g stroke-width="0.70" style="font:bold 13.00px Times">
<text x="586.90" y="305.40">V<tspan
	 style="font:italic 11.00px Times">⁷</tspan></text>
</g>
<g stroke-width="0.70" style="font:italic 11.00px Times">
<use x="22.00" y="336.00" xlink:href="#tclef"/>
<use x="37.00" y="330.00" xlink:href="#ft0"/>
<use x="70.50" y="333.00" xlink:href="#hd"/>
<path d="M74.00 333.00v-21.00" class="stroke"/>
<use x="97.20" y="327.00" xlink:href="#hd"/>
<path d="M93.70 327.00v21.00" class="stroke"/>
<use x="123.60" y="327.00" xlink:href="#hd"/>
<path d="M120.10 327.00v21.00" class="stroke"/>
<use x="149.90" y="324.00" xlink:href="#hd"/>
<circle class="fill" cx="157.60" cy="321.00" r="1.2"/>
<path d="M146.40 324.00v21.00" class="stroke"/>
<path class="fill"
	d="M146.40 345.00c0.6 -5.6 9.6 -9 5.6 -18.4
	1.6 6 -1.3 11.6 -5.6 12.8
"/>
<use x="172.50" y="327.00" xlink:href="#hd"/>
<path d="M169.00 327.00v23.00" class="stroke"/>
<path class="fill"
	d="M169.00 350.00c0.9 -3.7 9.1 -6.4 6 -12.4
	1 5.4 -4.2 8.4 -6 8.4
M169.00 344.60c0.9 -3.7 9.1 -6.4 6 -12.4
	1 5.4 -4.2 8.4 -6 8.4
"/>
<use x="210.00" y="333.00" xlink:href="#hd"/>
<path d="M213.50 333.00v-21.00" class="stroke"/>
<use x="236.40" y="333.00" xlink:href="#hd"/>
<path d="M239.90 333.00v-21.00" class="stroke"/>
<defs>
<path id="Hd" class="fill" d="m3 -1.6
	c-1 -1.8 -7 1.4 -6 3.2
	1 1.8 7 -1.4 6 -3.2
	m0.5 -0.3
	c2 3.8 -5 7.6 -7 3.8
	-2 -3.8 5 -7.6 7 -3.8"/>
</defs>
<use x="262.80" y="336.00" xlink:href="#Hd"/>
<path d="M266.30 336.00v-21.00" class="stroke"/>
<use x="314.50" y="333.00" xlink:href="#hd"/>
<path d="M318.00 333.00v-21.00" class="stroke"/>
<use x="340.90" y="333.00" xlink:href="#hd"/>
<circle class="fill" cx="348.60" cy="333.00" r="1.2"/>
<path d="M344.40 333.00v-21.00" class="stroke"/>
<path class="fill"
	d="M344.40 312.00c0.6 5.6 9.6 9 5.6 18.4
	1.6 -6 -1.3 -11.6 -5.6 -12.8
"/>
<use x="363.40" y="336.00" xlink:href="#hd"/>
<path d="M366.90 336.00v-22.00" class="stroke"/>
<path class="fill"
	d="M366.90 314.00c0.9 3.7 9.1 6.4 6 12.4
	1 -5.4 -4.2 -8.4 -6 -8.4
M366.90 319.40c0.9 3.7 9.1 6.4 6 12.4
	1 -5.4 -4.2 -8.4 -6 -8.4
"/>
<use x="377.90" y="339.00" xlink:href="#hd"/>
<path d="M381.40 339.00v-21.00" class="stroke"/>
<use x="404.30" y="339.00" xlink:href="#hd"/>
<circle class="fill" cx="412.00" cy="339.00" r="1.2"/>
<path d="M407.80 339.00v-21.00" class="stroke"/>
<path class="fill"
	d="M407.80 318.00c0.6 5.6 9.6 9 5.6 18.4
	1.6 -6 -1.3 -11.6 -5.6 -12.8
"/>
<use x="426.90" y="342.00" xlink:href="#hd"/>
<path d="M430.40 342.00v-22.00" class="stroke"/>
<path class="fill"
	d="M430.40 320.00c0.9 3.7 9.1 6.4 6 12.4
	1 -5.4 -4.2 -8.4 -6 -8.4
M430.40 325.40c0.9 3.7 9.1 6.4 6 12.4
	1 -5.4 -4.2 -8.4 -6 -8.4
"/>
<use x="468.90" y="345.00" xlink:href="#hd"/>
<path d="M472.40 345.00v-21.00" class="stroke"/>
<use x="495.20" y="339.00" xlink:href="#hd"/>
<path d="M498.70 339.00v-21.00" class="stroke"/>
<use x="521.60" y="345.00" xlink:href="#hd"/>
<path d="M525.10 345.00v-21.00" class="stroke"/>
<path class="fill"
	d="M525.10 324.00c0.6 5.6 9.6 9 5.6 18.4
	1.6 -6 -1.3 -11.6 -5.6 -12.8
"/>
<use x="541.30" y="348.00" xlink:href="#hl"/>
<use x="541.30" y="348.00" xlink:href="#hd"/>
<path d="M544.80 348.00v-21.00" class="stroke"/>
<path class="fill"
	d="M544.80 327.00c0.6 5.6 9.6 9 5.6 18.4
	1.6 -6 -1.3 -11.6 -5.6 -12.8
"/>
<use x="560.90" y="330.00" xlink:href="#r4"/>
<use x="592.80" y="333.00" xlink:href="#hd"/>
<path d="M596.30 333.00v-21.00" class="stroke"/>
<use x="619.50" y="333.00" xlink:href="#hd"/>
<path d="M623.00 333.00v-21.00" class="stroke"/>
<use x="645.90" y="336.00" xlink:href="#hd"/>
<path d="M649.40 336.00v-21.00" class="stroke"/>
<use x="672.20" y="330.00" xlink:href="#r4"/>
<use x="22.00" y="382.00" xlink:href="#bclef"/>
<use x="37.00" y="394.00" xlink:href="#ft0"/>
<use x="71.50" y="406.00" xlink:href="#hl1"/>
<use x="71.50" y="412.00" xlink:href="#hl1"/>
<use x="71.50" y="412.00" xlink:href="#HD"/>
<use x="71.50" y="391.00" xlink:href="#HD"/>
<use x="71.50" y="385.00" xlink:href="#HD"/>
<use x="71.50" y="379.00" xlink:href="#HD"/>
<use x="71.50" y="373.00" xlink:href="#HD"/>
<use x="211.00" y="406.00" xlink:href="#hl1"/>
<use x="211.00" y="370.00" xlink:href="#hl1"/>
<use x="211.00" y="409.00" xlink:href="#HD"/>
<use x="211.00" y="388.00" xlink:href="#HD"/>
<use x="211.00" y="382.00" xlink:href="#HD"/>
<use x="211.00" y="376.00" xlink:href="#HD"/>
<use x="211.00" y="370.00" xlink:href="#HD"/>
<use x="315.50" y="406.00" xlink:href="#hl1"/>
<use x="315.50" y="412.00" xlink:href="#hl1"/>
<use x="315.50" y="412.00" xlink:href="#HD"/>
<use x="315.50" y="391.00" xlink:href="#HD"/>
<use x="315.50" y="385.00" xlink:href="#HD"/>
<use x="315.50" y="379.00" xlink:href="#HD"/>
<use x="315.50" y="373.00" xlink:href="#HD"/>
<use x="469.90" y="406.00" xlink:href="#hl1"/>
<use x="469.90" y="370.00" xlink:href="#hl1"/>
<use x="469.90" y="409.00" xlink:href="#HD"/>
<use x="469.90" y="388.00" xlink:href="#HD"/>
<use x="469.90" y="382.00" xlink:href="#HD"/>
<use x="469.90" y="376.00" xlink:href="#HD"/>
<use x="469.90" y="370.00" xlink:href="#HD"/>
<use x="592.80" y="391.00" xlink:href="#hd"/>
<path d="M596.30 391.00v-21.00" class="stroke"/>
<use x="619.50" y="385.00" xlink:href="#hd"/>
<path d="M616.00 385.00v21.00" class="stroke"/>
<use x="645.90" y="379.00" xlink:href="#hd"/>
<path d="M642.40 379.00v21.00" class="stroke"/>
<use x="672.20" y="373.00" xlink:href="#hd"/>
<path d="M668.70 373.00v21.00" class="stroke"/>
<g transform="rotate(270)">
<use x="-415.00" y="58.00" xlink:href="#ltr"/>
<use x="-409.00" y="58.00" xlink:href="#ltr"/>
<use x="-403.00" y="58.00" xlink:href="#ltr"/>
<use x="-397.00" y="58.00" xlink:href="#ltr"/>
<use x="-391.00" y="58.00" xlink:href="#ltr"/>
<use x="-385.00" y="58.00" xlink:href="#ltr"/>
<use x="-379.00" y="58.00" xlink:href="#ltr"/>
<use x="-373.00" y="58.00" xlink:href="#ltr"/>
</g>
<g transform="rotate(270)">
<use x="-412.00" y="197.50" xlink:href="#ltr"/>
<use x="-406.00" y="197.50" xlink:href="#ltr"/>
<use x="-400.00" y="197.50" xlink:href="#ltr"/>
<use x="-394.00" y="197.50" xlink:href="#ltr"/>
<use x="-388.00" y="197.50" xlink:href="#ltr"/>
<use x="-382.00" y="197.50" xlink:href="#ltr"/>
<use x="-376.00" y="197.50" xlink:href="#ltr"/>
<use x="-370.00" y="197.50" xlink:href="#ltr"/>
</g>
<g transform="rotate(270)">
<use x="-415.00" y="302.00" xlink:href="#ltr"/>
<use x="-409.00" y="302.00" xlink:href="#ltr"/>
<use x="-403.00" y="302.00" xlink:href="#ltr"/>
<use x="-397.00" y="302.00" xlink:href="#ltr"/>
<use x="-391.00" y="302.00" xlink:href="#ltr"/>
<use x="-385.00" y="302.00" xlink:href="#ltr"/>
<use x="-379.00" y="302.00" xlink:href="#ltr"/>
<use x="-373.00" y="302.00" xlink:href="#ltr"/>
</g>
<g transform="rotate(270)">
<use x="-412.00" y="456.40" xlink:href="#ltr"/>
<use x="-406.00" y="456.40" xlink:href="#ltr"/>
<use x="-400.00" y="456.40" xlink:href="#ltr"/>
<use x="-394.00" y="456.40" xlink:href="#ltr"/>
<use x="-388.00" y="456.40" xlink:href="#ltr"/>
<use x="-382.00" y="456.40" xlink:href="#ltr"/>
<use x="-376.00" y="456.40" xlink:href="#ltr"/>
<use x="-370.00" y="456.40" xlink:href="#ltr"/>
</g>
</g>
<g stroke-width="0.70" style="font:italic 11.00px Times">
<path class="stroke" stroke-width="1"
	d="M10.00 529.40v-82.00"/>
<g transform="translate(10.00,447.40) scale(1,0.82)">
	<use xlink:href="#brace"/>
</g>
<path class="stroke" stroke-width="1"
	d="M218.50 471.40v-24.00"/>
<path class="stroke" stroke-width="1"
	d="M218.50 529.40v-24.00"/>
<path d="m10.00 471.40
	h208.50
	M10.00 465.40
	h208.50
	M10.00 459.40
	h208.50
	M10.00 453.40
	h208.50
	M10.00 447.40
	h208.50
	" class="stroke"/>
<path d="m10.00 529.40
	h208.50
	M10.00 523.40
	h208.50
	M10.00 517.40
	h208.50
	M10.00 511.40
	h208.50
	M10.00 505.40
	h208.50
	" class="stroke"/>
</g>
<g stroke-width="0.70" style="font:bold 13.00px Times">
<text x="64.80" y="432.80">I<tspan
	 style="font:italic 11.00px Times">Δ⁷</tspan></text>
</g>
<g stroke-width="0.70" style="font:italic 11.00px Times">
<use x="22.00" y="465.40" xlink:href="#tclef"/>
<use x="37.00" y="459.40" xlink:href="#ft0"/>
<use x="70.50" y="441.40" xlink:href="#hl"/>
<use x="70.50" y="441.40" xlink:href="#hd"/>
<path d="M67.00 441.40v40.00" class="stroke"/>
<use x="70.50" y="462.40" xlink:href="#hd"/>
<use x="110.50" y="444.40" xlink:href="#hd"/>
<path d="M107.00 444.40v40.00" class="stroke"/>
<use x="110.50" y="465.40" xlink:href="#hd"/>
<use x="150.50" y="447.40" xlink:href="#hd"/>
<path d="M147.00 447.40v40.00" class="stroke"/>
<use x="150.50" y="468.40" xlink:href="#hd"/>
<use x="190.50" y="459.40" xlink:href="#r4"/>
<use x="22.00" y="511.40" xlink:href="#bclef"/>
<use x="37.00" y="523.40" xlink:href="#ft0"/>
<use x="71.50" y="535.40" xlink:href="#hl1"/>
<use x="71.50" y="541.40" xlink:href="#hl1"/>
<use x="71.50" y="547.40" xlink:href="#hl1"/>
<use x="71.50" y="553.40" xlink:href="#hl1"/>
<use x="71.50" y="553.40" xlink:href="#HD"/>
<use x="71.50" y="532.40" xlink:href="#HD"/>
<use x="71.50" y="526.40" xlink:href="#HD"/>
<use x="71.50" y="520.40" xlink:href="#HD"/>
<use x="71.50" y="514.40" xlink:href="#HD"/>
<g transform="rotate(270)">
<use x="-556.40" y="58.00" xlink:href="#ltr"/>
<use x="-550.40" y="58.00" xlink:href="#ltr"/>
<use x="-544.40" y="58.00" xlink:href="#ltr"/>
<use x="-538.40" y="58.00" xlink:href="#ltr"/>
<use x="-532.40" y="58.00" xlink:href="#ltr"/>
<use x="-526.40" y="58.00" xlink:href="#ltr"/>
<use x="-520.40" y="58.00" xlink:href="#ltr"/>
<use x="-514.40" y="58.00" xlink:href="#ltr"/>
</g>
</g>
</svg>
