<?xml version="1.0" standalone="no"?>
<!DOCTYPE svg PUBLIC "-//W3C//DTD SVG 1.1//EN"
	"http://www.w3.org/Graphics/SVG/1.1/DTD/svg11.dtd">
<svg xmlns="http://www.w3.org/2000/svg" version="1.1"
	xmlns:xlink="http://www.w3.org/1999/xlink"
	color="black"
	width="701.60px" height="569.20px" viewBox="0 0 701.60 569.20" preserveAspectRatio="xMidYMid meet">
<style type="text/css">
.fill {fill: currentColor}
.stroke {stroke: currentColor; fill: none}
text{white-space: pre}
</style>
<title>/tmp/reharm_hymnal_L7/o_come_o_come_emmanuel.abc (1) tune 1</title>
<!-- Creator: abcm2ps-8.14.11 -->
<!-- CreationDate: Apr 24, 2026 15:32 -->
<!-- CommandLine: /tmp/reharm_hymnal_L7/o_come_o_come_emmanuel.abc -g -O /tmp/reharm_hymnal_L7/o_come_o_come_emmanuel -->
<g stroke-width="0.70">
<!-- title: 172. O Come O Come Emmanuel -->
</g>
<g stroke-width="0.70" style="font:20.00px Times">
<text x="350.80" y="22.00" text-anchor="middle">172. O Come O Come Emmanuel</text>
</g>
<g stroke-width="0.70" style="font:20.00px Times">
<path class="stroke" stroke-width="1"
	d="M10.00 145.40v-82.00"/>
<defs>
<path id="brace" class="fill" d="m-2.5 101
	c-4.5 -4.6 -7.5 -12.2 -4.4 -26.8
	3.5 -14.3 3.2 -21.7 -2.1 -24.2
	7.4 2.4 7.3 14.2 3.5 29.5
	-2.7 9.5 -1.5 16.2 3 21.5
	M-2.5 1c-4.5 4.6 -7.5 12.2 -4.4 26.8
	c3.5 14.3 3.2 21.7 -2.1 24.2
	7.4 -2.4 7.3 -14.2 3.5 -29.5
	-2.7 -9.5 -1.5 -16.2 3 -21.5"/>
</defs>
<g transform="translate(10.00,63.40) scale(1,0.82)">
	<use xlink:href="#brace"/>
</g>
<path class="stroke" stroke-width="1"
	d="M197.40 87.40v-24.00"/>
<path class="stroke" stroke-width="1"
	d="M197.40 145.40v-24.00"/>
<path class="stroke" stroke-width="1"
	d="M320.90 87.40v-24.00"/>
<path class="stroke" stroke-width="1"
	d="M320.90 145.40v-24.00"/>
<path class="stroke" stroke-width="1"
	d="M444.50 87.40v-24.00"/>
<path class="stroke" stroke-width="1"
	d="M444.50 145.40v-24.00"/>
<path class="stroke" stroke-width="1"
	d="M568.00 87.40v-24.00"/>
<path class="stroke" stroke-width="1"
	d="M568.00 145.40v-24.00"/>
<path class="stroke" stroke-width="1"
	d="M691.60 87.40v-24.00"/>
<path class="stroke" stroke-width="1"
	d="M691.60 145.40v-24.00"/>
<path d="m10.00 87.40
	h681.60
	M10.00 81.40
	h681.60
	M10.00 75.40
	h681.60
	M10.00 69.40
	h681.60
	M10.00 63.40
	h681.60
	" class="stroke"/>
<path d="m10.00 145.40
	h681.60
	M10.00 139.40
	h681.60
	M10.00 133.40
	h681.60
	M10.00 127.40
	h681.60
	M10.00 121.40
	h681.60
	" class="stroke"/>
</g>
<g stroke-width="0.70" style="font:bold 13.00px Times">
<text x="78.50" y="58.80">vi<tspan
	 style="font:italic 11.00px Times">m⁷</tspan></text>
</g>
<g stroke-width="0.70" style="font:bold 13.00px Times">
<text x="204.00" y="47.80">V<tspan
	 style="font:italic 11.00px Times">⁷</tspan></text>
</g>
<g stroke-width="0.70" style="font:bold 13.00px Times">
<text x="325.40" y="50.80">IV<tspan
	 style="font:italic 11.00px Times">Δ⁷</tspan></text>
</g>
<g stroke-width="0.70" style="font:bold 13.00px Times">
<text x="449.00" y="47.80">iii<tspan
	 style="font:italic 11.00px Times">m⁷</tspan></text>
</g>
<g stroke-width="0.70" style="font:bold 13.00px Times">
<text x="572.50" y="50.80">ii<tspan
	 style="font:italic 11.00px Times">m⁷¹</tspan></text>
</g>
<g stroke-width="0.70" style="font:italic 11.00px Times">
<defs>
<path id="utclef" class="fill" d="m-50 -90
	c-72 -41 -72 -158 52 -188
	150 -10 220 188 90 256
	-114 52 -275 0 -293 -136
	-15 -181 93 -229 220 -334
	88 -87 79 -133 62 -210
	-51 33 -94 105 -89 186
	17 267 36 374 49 574
	6 96 -19 134 -77 135
	-80 1 -126 -93 -61 -133
	85 -41 133 101 31 105
	23 17 92 37 90 -92
	-10 -223 -39 -342 -50 -617
	0 -90 0 -162 96 -232
	56 72 63 230 22 289
	-74 106 -257 168 -255 316
	9 153 148 185 252 133
	86 -65 29 -192 -80 -176
	-71 12 -105 67 -59 124"/>
<use id="tclef" transform="translate(0,6) scale(0.045)"
	xlink:href="#utclef"/>
</defs>
<use x="22.00" y="81.40" xlink:href="#tclef"/>
<defs>
<path id="usharp" class="fill" d="
	m136 -702
	v890
	h32
	v-890
	m128 840
	h32
	v-888
	h-32
	m-232 286
	v116
	l338 -96
	v-116
	m-338 442
	v116
	l338 -98
	v-114"/>
<use id="sh0" transform="translate(-4,5) scale(0.018)"
	xlink:href="#usharp"/>
</defs>
<use x="37.00" y="63.40" xlink:href="#sh0"/>
<g style="font:bold 16px serif"
	transform="translate(53.00,86.90) scale(1.2,1)">
	<text text-anchor="middle">4</text>
	<text y="-12" text-anchor="middle">4</text>
</g>
<defs>
<ellipse id="hd" rx="4.1" ry="2.9"
	transform="rotate(-20)" class="fill"/>
</defs>
<use x="86.50" y="87.40" xlink:href="#hd"/>
<path d="M90.00 87.40v-21.00" class="stroke"/>
<use x="116.40" y="81.40" xlink:href="#hd"/>
<path d="M119.90 81.40v-21.00" class="stroke"/>
<use x="146.20" y="75.40" xlink:href="#hd"/>
<path d="M149.70 75.40v-21.00" class="stroke"/>
<use x="176.10" y="75.40" xlink:href="#hd"/>
<path d="M179.60 75.40v-21.00" class="stroke"/>
<use x="209.90" y="75.40" xlink:href="#hd"/>
<path d="M213.40 75.40v-21.00" class="stroke"/>
<use x="239.80" y="78.40" xlink:href="#hd"/>
<path d="M243.30 78.40v-21.00" class="stroke"/>
<use x="269.80" y="72.40" xlink:href="#hd"/>
<path d="M266.30 72.40v21.00" class="stroke"/>
<use x="299.70" y="75.40" xlink:href="#hd"/>
<path d="M296.20 75.40v21.00" class="stroke"/>
<use x="333.40" y="78.40" xlink:href="#hd"/>
<path d="M336.90 78.40v-21.00" class="stroke"/>
<defs>
<path id="Hd" class="fill" d="m3 -1.6
	c-1 -1.8 -7 1.4 -6 3.2
	1 1.8 7 -1.4 6 -3.2
	m0.5 -0.3
	c2 3.8 -5 7.6 -7 3.8
	-2 -3.8 5 -7.6 7 -3.8"/>
</defs>
<use x="363.50" y="81.40" xlink:href="#Hd"/>
<circle class="fill" cx="372.20" cy="78.40" r="1.2"/>
<path d="M367.00 81.40v-21.00" class="stroke"/>
<use x="457.00" y="78.40" xlink:href="#hd"/>
<path d="M460.50 78.40v-21.00" class="stroke"/>
<use x="486.90" y="75.40" xlink:href="#hd"/>
<path d="M490.40 75.40v-21.00" class="stroke"/>
<use x="516.90" y="81.40" xlink:href="#hd"/>
<path d="M520.40 81.40v-21.00" class="stroke"/>
<use x="546.80" y="87.40" xlink:href="#hd"/>
<path d="M550.30 87.40v-21.00" class="stroke"/>
<use x="580.50" y="81.40" xlink:href="#hd"/>
<path d="M584.00 81.40v-21.00" class="stroke"/>
<use x="610.40" y="78.40" xlink:href="#hd"/>
<path d="M613.90 78.40v-21.00" class="stroke"/>
<use x="640.40" y="84.40" xlink:href="#hd"/>
<path d="M643.90 84.40v-21.00" class="stroke"/>
<use x="670.30" y="87.40" xlink:href="#hd"/>
<path d="M673.80 87.40v-21.00" class="stroke"/>
<defs>
<path id="ubclef" class="fill" d="m-200 -87
	c124 -35 222 -78 254 -236
	43 -228 -167 -246 -192 -103
	59 -80 157 22 92 78
	-62 47 -115 -22 -106 -88
	21 -141 270 -136 274 52
	-1 175 -106 264 -322 297
	m357 -250
	c0 -36 51 -34 51 0
	0 37 -51 36 -51 0
	m-2 -129
	c0 -36 51 -34 51 0
	0 38 -51 37 -51 0"/>
<use id="bclef" transform="translate(0,18) scale(0.045)"
	xlink:href="#ubclef"/>
</defs>
<use x="22.00" y="127.40" xlink:href="#bclef"/>
<use x="37.00" y="127.40" xlink:href="#sh0"/>
<g style="font:bold 16px serif"
	transform="translate(53.00,144.90) scale(1.2,1)">
	<text text-anchor="middle">4</text>
	<text y="-12" text-anchor="middle">4</text>
</g>
<defs>
<path id="hl1" class="stroke" d="m-7 0h14"/>
</defs>
<use x="87.50" y="151.40" xlink:href="#hl1"/>
<use x="87.50" y="115.40" xlink:href="#hl1"/>
<defs>
<path id="HD" class="fill" d="m-2.7 -1.4
	c1.5 -2.8 6.9 0 5.3 2.7
	-1.5 2.8 -6.9 0 -5.3 -2.7
	m8.3 1.4
	c0 -1.5 -2.2 -3 -5.6 -3
	-3.4 0 -5.6 1.5 -5.6 3
	0 1.5 2.2 3 5.6 3
	3.4 0 5.6 -1.5 5.6 -3"/>
</defs>
<use x="87.50" y="112.40" xlink:href="#HD"/>
<use x="87.50" y="151.40" xlink:href="#HD"/>
<use x="87.50" y="130.40" xlink:href="#HD"/>
<use x="87.50" y="124.40" xlink:href="#HD"/>
<use x="87.50" y="118.40" xlink:href="#HD"/>
<use x="209.90" y="133.40" xlink:href="#hd"/>
<path d="M206.40 133.40v21.00" class="stroke"/>
<use x="239.80" y="127.40" xlink:href="#hd"/>
<path d="M236.30 127.40v21.00" class="stroke"/>
<use x="269.80" y="121.40" xlink:href="#hd"/>
<path d="M266.30 121.40v21.00" class="stroke"/>
<defs>
<path id="hl" class="stroke" d="m-6 0h12"/>
</defs>
<use x="299.70" y="115.40" xlink:href="#hl"/>
<use x="299.70" y="115.40" xlink:href="#hd"/>
<path d="M296.20 115.40v21.00" class="stroke"/>
<use x="333.40" y="136.40" xlink:href="#hd"/>
<path d="M336.90 136.40v-21.00" class="stroke"/>
<use x="363.50" y="130.40" xlink:href="#hd"/>
<path d="M360.00 130.40v21.00" class="stroke"/>
<use x="393.30" y="124.40" xlink:href="#hd"/>
<path d="M389.80 124.40v21.00" class="stroke"/>
<use x="423.20" y="118.40" xlink:href="#hd"/>
<path d="M419.70 118.40v21.00" class="stroke"/>
<use x="457.00" y="139.40" xlink:href="#hd"/>
<path d="M460.50 139.40v-21.00" class="stroke"/>
<use x="486.90" y="133.40" xlink:href="#hd"/>
<path d="M490.40 133.40v-21.00" class="stroke"/>
<use x="516.90" y="127.40" xlink:href="#hd"/>
<path d="M513.40 127.40v21.00" class="stroke"/>
<use x="546.80" y="121.40" xlink:href="#hd"/>
<path d="M543.30 121.40v21.00" class="stroke"/>
<use x="580.50" y="142.40" xlink:href="#hd"/>
<path d="M584.00 142.40v-21.00" class="stroke"/>
<use x="610.40" y="136.40" xlink:href="#hd"/>
<path d="M613.90 136.40v-21.00" class="stroke"/>
<use x="640.40" y="130.40" xlink:href="#hd"/>
<path d="M636.90 130.40v21.00" class="stroke"/>
<use x="670.30" y="124.40" xlink:href="#hd"/>
<path d="M666.80 124.40v21.00" class="stroke"/>
<defs>
<path id="ltr" class="fill"
    d="m0 -0.4c2 -1.5 3.4 -1.9 3.9 0.4
	c0.2 0.8 0.7 0.7 2.1 -0.4
	v0.8c-2 1.5 -3.4 1.9 -3.9 -0.4
	c-0.2 -0.8 -0.7 -0.7 -2.1 0.4z"/>
</defs>
<g transform="rotate(270)">
<use x="-154.40" y="74.00" xlink:href="#ltr"/>
<use x="-148.40" y="74.00" xlink:href="#ltr"/>
<use x="-142.40" y="74.00" xlink:href="#ltr"/>
<use x="-136.40" y="74.00" xlink:href="#ltr"/>
<use x="-130.40" y="74.00" xlink:href="#ltr"/>
<use x="-124.40" y="74.00" xlink:href="#ltr"/>
<use x="-118.40" y="74.00" xlink:href="#ltr"/>
<use x="-112.40" y="74.00" xlink:href="#ltr"/>
</g>
</g>
<g stroke-width="0.70" style="font:italic 11.00px Times">
<path class="stroke" stroke-width="1"
	d="M10.00 275.80v-82.00"/>
<g transform="translate(10.00,193.80) scale(1,0.82)">
	<use xlink:href="#brace"/>
</g>
<path class="stroke" stroke-width="1"
	d="M125.10 217.80v-24.00"/>
<path class="stroke" stroke-width="1"
	d="M125.10 275.80v-24.00"/>
<path class="stroke" stroke-width="1"
	d="M243.30 217.80v-24.00"/>
<path class="stroke" stroke-width="1"
	d="M243.30 275.80v-24.00"/>
<path class="stroke" stroke-width="1"
	d="M349.00 217.80v-24.00"/>
<path class="stroke" stroke-width="1"
	d="M349.00 275.80v-24.00"/>
<path class="stroke" stroke-width="1"
	d="M455.00 217.80v-24.00"/>
<path class="stroke" stroke-width="1"
	d="M455.00 275.80v-24.00"/>
<path class="stroke" stroke-width="1"
	d="M573.10 217.80v-24.00"/>
<path class="stroke" stroke-width="1"
	d="M573.10 275.80v-24.00"/>
<path class="stroke" stroke-width="1"
	d="M691.60 217.80v-24.00"/>
<path class="stroke" stroke-width="1"
	d="M691.60 275.80v-24.00"/>
<path d="m10.00 217.80
	h681.60
	M10.00 211.80
	h681.60
	M10.00 205.80
	h681.60
	M10.00 199.80
	h681.60
	M10.00 193.80
	h681.60
	" class="stroke"/>
<path d="m10.00 275.80
	h681.60
	M10.00 269.80
	h681.60
	M10.00 263.80
	h681.60
	M10.00 257.80
	h681.60
	M10.00 251.80
	h681.60
	" class="stroke"/>
</g>
<g stroke-width="0.70" style="font:bold 13.00px Times">
<text x="64.80" y="189.20">I<tspan
	 style="font:italic 11.00px Times">Δ⁷</tspan></text>
</g>
<g stroke-width="0.70" style="font:bold 13.00px Times">
<text x="142.10" y="181.20">vi<tspan
	 style="font:italic 11.00px Times">m⁷¹</tspan></text>
</g>
<g stroke-width="0.70" style="font:bold 13.00px Times">
<text x="249.90" y="187.20">V<tspan
	 style="font:italic 11.00px Times">⁷</tspan></text>
</g>
<g stroke-width="0.70" style="font:bold 13.00px Times">
<text x="353.50" y="187.20">IV<tspan
	 style="font:italic 11.00px Times">Δ⁷</tspan></text>
</g>
<g stroke-width="0.70" style="font:bold 13.00px Times">
<text x="472.00" y="181.20">iii<tspan
	 style="font:italic 11.00px Times">m⁷</tspan></text>
</g>
<g stroke-width="0.70" style="font:bold 13.00px Times">
<text x="590.10" y="178.20">vi<tspan
	 style="font:italic 11.00px Times">m⁷¹</tspan></text>
</g>
<g stroke-width="0.70" style="font:italic 11.00px Times">
<use x="22.00" y="211.80" xlink:href="#tclef"/>
<use x="37.00" y="193.80" xlink:href="#sh0"/>
<use x="70.50" y="220.80" xlink:href="#hd"/>
<path d="M74.00 220.80v-21.00" class="stroke"/>
<use x="95.50" y="217.80" xlink:href="#Hd"/>
<circle class="fill" cx="104.20" cy="214.80" r="1.2"/>
<path d="M99.00 217.80v-21.00" class="stroke"/>
<use x="150.10" y="208.80" xlink:href="#hd"/>
<path d="M153.60 208.80v-21.00" class="stroke"/>
<use x="175.10" y="208.80" xlink:href="#hd"/>
<path d="M178.60 208.80v-21.00" class="stroke"/>
<use x="200.00" y="217.80" xlink:href="#hd"/>
<path d="M203.50 217.80v-21.00" class="stroke"/>
<use x="224.90" y="217.80" xlink:href="#hd"/>
<path d="M228.40 217.80v-21.00" class="stroke"/>
<use x="255.80" y="214.80" xlink:href="#hd"/>
<path d="M259.30 214.80v-21.00" class="stroke"/>
<use x="280.80" y="211.80" xlink:href="#Hd"/>
<path d="M284.30 211.80v-21.00" class="stroke"/>
<use x="330.70" y="214.80" xlink:href="#hd"/>
<path d="M334.20 214.80v-21.00" class="stroke"/>
<use x="361.50" y="217.80" xlink:href="#hd"/>
<path d="M365.00 217.80v-21.00" class="stroke"/>
<use x="386.80" y="220.80" xlink:href="#Hd"/>
<circle class="fill" cx="395.50" cy="220.80" r="1.2"/>
<path d="M390.30 220.80v-21.00" class="stroke"/>
<use x="480.00" y="211.80" xlink:href="#hd"/>
<path d="M483.50 211.80v-21.00" class="stroke"/>
<use x="504.90" y="208.80" xlink:href="#hd"/>
<path d="M508.40 208.80v-21.00" class="stroke"/>
<use x="529.80" y="205.80" xlink:href="#hd"/>
<path d="M533.30 205.80v-21.00" class="stroke"/>
<use x="554.80" y="205.80" xlink:href="#hd"/>
<path d="M558.30 205.80v-21.00" class="stroke"/>
<use x="598.10" y="205.80" xlink:href="#hd"/>
<path d="M601.60 205.80v-21.00" class="stroke"/>
<use x="623.00" y="208.80" xlink:href="#hd"/>
<path d="M626.50 208.80v-21.00" class="stroke"/>
<use x="648.30" y="202.80" xlink:href="#hd"/>
<path d="M644.80 202.80v21.00" class="stroke"/>
<use x="673.30" y="205.80" xlink:href="#hd"/>
<path d="M669.80 205.80v21.00" class="stroke"/>
<use x="22.00" y="257.80" xlink:href="#bclef"/>
<use x="37.00" y="257.80" xlink:href="#sh0"/>
<use x="71.50" y="281.80" xlink:href="#hl1"/>
<use x="71.50" y="287.80" xlink:href="#hl1"/>
<use x="71.50" y="293.80" xlink:href="#hl1"/>
<use x="71.50" y="296.80" xlink:href="#HD"/>
<use x="71.50" y="275.80" xlink:href="#HD"/>
<use x="71.50" y="269.80" xlink:href="#HD"/>
<use x="71.50" y="263.80" xlink:href="#HD"/>
<use x="71.50" y="257.80" xlink:href="#HD"/>
<use x="151.10" y="281.80" xlink:href="#hl1"/>
<use x="151.10" y="245.80" xlink:href="#hl1"/>
<use x="151.10" y="242.80" xlink:href="#HD"/>
<use x="151.10" y="281.80" xlink:href="#HD"/>
<use x="151.10" y="260.80" xlink:href="#HD"/>
<use x="151.10" y="254.80" xlink:href="#HD"/>
<use x="151.10" y="248.80" xlink:href="#HD"/>
<use x="255.80" y="263.80" xlink:href="#hd"/>
<path d="M252.30 263.80v21.00" class="stroke"/>
<use x="280.80" y="257.80" xlink:href="#hd"/>
<path d="M277.30 257.80v21.00" class="stroke"/>
<use x="305.70" y="251.80" xlink:href="#hd"/>
<path d="M302.20 251.80v21.00" class="stroke"/>
<use x="330.70" y="245.80" xlink:href="#hl"/>
<use x="330.70" y="245.80" xlink:href="#hd"/>
<path d="M327.20 245.80v21.00" class="stroke"/>
<use x="361.50" y="266.80" xlink:href="#hd"/>
<path d="M365.00 266.80v-21.00" class="stroke"/>
<use x="386.80" y="260.80" xlink:href="#hd"/>
<path d="M383.30 260.80v21.00" class="stroke"/>
<use x="411.70" y="254.80" xlink:href="#hd"/>
<path d="M408.20 254.80v21.00" class="stroke"/>
<use x="436.60" y="248.80" xlink:href="#hd"/>
<path d="M433.10 248.80v21.00" class="stroke"/>
<use x="481.00" y="281.80" xlink:href="#hl1"/>
<use x="481.00" y="287.80" xlink:href="#hl1"/>
<use x="481.00" y="290.80" xlink:href="#HD"/>
<use x="481.00" y="269.80" xlink:href="#HD"/>
<use x="481.00" y="263.80" xlink:href="#HD"/>
<use x="481.00" y="257.80" xlink:href="#HD"/>
<use x="481.00" y="251.80" xlink:href="#HD"/>
<use x="599.10" y="281.80" xlink:href="#hl1"/>
<use x="599.10" y="245.80" xlink:href="#hl1"/>
<use x="599.10" y="242.80" xlink:href="#HD"/>
<use x="599.10" y="281.80" xlink:href="#HD"/>
<use x="599.10" y="260.80" xlink:href="#HD"/>
<use x="599.10" y="254.80" xlink:href="#HD"/>
<use x="599.10" y="248.80" xlink:href="#HD"/>
<g transform="rotate(270)">
<use x="-299.80" y="58.00" xlink:href="#ltr"/>
<use x="-293.80" y="58.00" xlink:href="#ltr"/>
<use x="-287.80" y="58.00" xlink:href="#ltr"/>
<use x="-281.80" y="58.00" xlink:href="#ltr"/>
<use x="-275.80" y="58.00" xlink:href="#ltr"/>
<use x="-269.80" y="58.00" xlink:href="#ltr"/>
<use x="-263.80" y="58.00" xlink:href="#ltr"/>
<use x="-257.80" y="58.00" xlink:href="#ltr"/>
</g>
<g transform="rotate(270)">
<use x="-284.80" y="137.60" xlink:href="#ltr"/>
<use x="-278.80" y="137.60" xlink:href="#ltr"/>
<use x="-272.80" y="137.60" xlink:href="#ltr"/>
<use x="-266.80" y="137.60" xlink:href="#ltr"/>
<use x="-260.80" y="137.60" xlink:href="#ltr"/>
<use x="-254.80" y="137.60" xlink:href="#ltr"/>
<use x="-248.80" y="137.60" xlink:href="#ltr"/>
<use x="-242.80" y="137.60" xlink:href="#ltr"/>
</g>
<g transform="rotate(270)">
<use x="-293.80" y="467.50" xlink:href="#ltr"/>
<use x="-287.80" y="467.50" xlink:href="#ltr"/>
<use x="-281.80" y="467.50" xlink:href="#ltr"/>
<use x="-275.80" y="467.50" xlink:href="#ltr"/>
<use x="-269.80" y="467.50" xlink:href="#ltr"/>
<use x="-263.80" y="467.50" xlink:href="#ltr"/>
<use x="-257.80" y="467.50" xlink:href="#ltr"/>
<use x="-251.80" y="467.50" xlink:href="#ltr"/>
</g>
<g transform="rotate(270)">
<use x="-284.80" y="585.60" xlink:href="#ltr"/>
<use x="-278.80" y="585.60" xlink:href="#ltr"/>
<use x="-272.80" y="585.60" xlink:href="#ltr"/>
<use x="-266.80" y="585.60" xlink:href="#ltr"/>
<use x="-260.80" y="585.60" xlink:href="#ltr"/>
<use x="-254.80" y="585.60" xlink:href="#ltr"/>
<use x="-248.80" y="585.60" xlink:href="#ltr"/>
<use x="-242.80" y="585.60" xlink:href="#ltr"/>
</g>
</g>
<g stroke-width="0.70" style="font:italic 11.00px Times">
<path class="stroke" stroke-width="1"
	d="M10.00 407.80v-82.00"/>
<g transform="translate(10.00,325.80) scale(1,0.82)">
	<use xlink:href="#brace"/>
</g>
<path class="stroke" stroke-width="1"
	d="M156.40 349.80v-24.00"/>
<path class="stroke" stroke-width="1"
	d="M156.40 407.80v-24.00"/>
<path class="stroke" stroke-width="1"
	d="M270.40 349.80v-24.00"/>
<path class="stroke" stroke-width="1"
	d="M270.40 407.80v-24.00"/>
<path class="stroke" stroke-width="1"
	d="M354.60 349.80v-24.00"/>
<path class="stroke" stroke-width="1"
	d="M354.60 407.80v-24.00"/>
<path class="stroke" stroke-width="1"
	d="M481.20 349.80v-24.00"/>
<path class="stroke" stroke-width="1"
	d="M481.20 407.80v-24.00"/>
<path class="stroke" stroke-width="1"
	d="M565.30 349.80v-24.00"/>
<path class="stroke" stroke-width="1"
	d="M565.30 407.80v-24.00"/>
<path class="stroke" stroke-width="1"
	d="M691.60 349.80v-24.00"/>
<path class="stroke" stroke-width="1"
	d="M691.60 407.80v-24.00"/>
<path d="m10.00 349.80
	h681.60
	M10.00 343.80
	h681.60
	M10.00 337.80
	h681.60
	M10.00 331.80
	h681.60
	M10.00 325.80
	h681.60
	" class="stroke"/>
<path d="m10.00 407.80
	h681.60
	M10.00 401.80
	h681.60
	M10.00 395.80
	h681.60
	M10.00 389.80
	h681.60
	M10.00 383.80
	h681.60
	" class="stroke"/>
</g>
<g stroke-width="0.70" style="font:bold 13.00px Times">
<text x="49.10" y="313.20">V<tspan
	 style="font:italic 11.00px Times">⁷</tspan></text>
</g>
<g stroke-width="0.70" style="font:bold 13.00px Times">
<text x="160.90" y="321.20">IV<tspan
	 style="font:italic 11.00px Times">Δ⁷</tspan></text>
</g>
<g stroke-width="0.70" style="font:bold 13.00px Times">
<text x="287.40" y="321.20">iii<tspan
	 style="font:italic 11.00px Times">m⁷</tspan></text>
</g>
<g stroke-width="0.70" style="font:bold 13.00px Times">
<text x="371.60" y="313.20">vi<tspan
	 style="font:italic 11.00px Times">m⁷</tspan></text>
</g>
<g stroke-width="0.70" style="font:bold 13.00px Times">
<text x="500.30" y="313.20">V<tspan
	 style="font:italic 11.00px Times">⁷</tspan></text>
</g>
<g stroke-width="0.70" style="font:bold 13.00px Times">
<text x="584.60" y="313.20">I<tspan
	 style="font:italic 11.00px Times">Δ⁷</tspan></text>
</g>
<g stroke-width="0.70" style="font:italic 11.00px Times">
<use x="22.00" y="343.80" xlink:href="#tclef"/>
<use x="37.00" y="325.80" xlink:href="#sh0"/>
<use x="55.00" y="340.80" xlink:href="#hd"/>
<path d="M58.50 340.80v-21.00" class="stroke"/>
<use x="82.20" y="343.80" xlink:href="#Hd"/>
<circle class="fill" cx="90.90" cy="340.80" r="1.2"/>
<path d="M85.70 343.80v-21.00" class="stroke"/>
<use x="168.90" y="331.80" xlink:href="#hd"/>
<path d="M165.40 331.80v21.00" class="stroke"/>
<use x="196.30" y="331.80" xlink:href="#Hd"/>
<circle class="fill" cx="205.00" cy="328.80" r="1.2"/>
<path d="M192.80 331.80v21.00" class="stroke"/>
<use x="295.40" y="337.80" xlink:href="#hd"/>
<path d="M291.90 337.80v21.00" class="stroke"/>
<use x="322.70" y="337.80" xlink:href="#Hd"/>
<circle class="fill" cx="331.40" cy="334.80" r="1.2"/>
<path d="M319.20 337.80v21.00" class="stroke"/>
<use x="379.60" y="337.80" xlink:href="#hd"/>
<path d="M376.10 337.80v21.00" class="stroke"/>
<use x="406.80" y="340.80" xlink:href="#hd"/>
<path d="M410.30 340.80v-21.00" class="stroke"/>
<use x="434.20" y="334.80" xlink:href="#hd"/>
<path d="M430.70 334.80v21.00" class="stroke"/>
<use x="461.40" y="337.80" xlink:href="#hd"/>
<path d="M457.90 337.80v21.00" class="stroke"/>
<use x="506.20" y="340.80" xlink:href="#hd"/>
<path d="M509.70 340.80v-21.00" class="stroke"/>
<use x="533.40" y="343.80" xlink:href="#Hd"/>
<circle class="fill" cx="542.10" cy="340.80" r="1.2"/>
<path d="M536.90 343.80v-21.00" class="stroke"/>
<use x="590.30" y="340.80" xlink:href="#hd"/>
<path d="M593.80 340.80v-21.00" class="stroke"/>
<use x="617.50" y="337.80" xlink:href="#hd"/>
<path d="M621.00 337.80v-21.00" class="stroke"/>
<use x="644.70" y="343.80" xlink:href="#hd"/>
<path d="M648.20 343.80v-21.00" class="stroke"/>
<use x="671.80" y="349.80" xlink:href="#hd"/>
<path d="M675.30 349.80v-21.00" class="stroke"/>
<use x="22.00" y="389.80" xlink:href="#bclef"/>
<use x="37.00" y="389.80" xlink:href="#sh0"/>
<use x="55.00" y="395.80" xlink:href="#hd"/>
<path d="M51.50 395.80v21.00" class="stroke"/>
<use x="82.20" y="389.80" xlink:href="#hd"/>
<path d="M78.70 389.80v21.00" class="stroke"/>
<use x="109.40" y="383.80" xlink:href="#hd"/>
<path d="M105.90 383.80v21.00" class="stroke"/>
<use x="136.60" y="377.80" xlink:href="#hl"/>
<use x="136.60" y="377.80" xlink:href="#hd"/>
<path d="M133.10 377.80v21.00" class="stroke"/>
<use x="168.90" y="398.80" xlink:href="#hd"/>
<path d="M172.40 398.80v-21.00" class="stroke"/>
<use x="196.30" y="392.80" xlink:href="#hd"/>
<path d="M192.80 392.80v21.00" class="stroke"/>
<use x="223.50" y="386.80" xlink:href="#hd"/>
<path d="M220.00 386.80v21.00" class="stroke"/>
<use x="250.70" y="380.80" xlink:href="#hd"/>
<path d="M247.20 380.80v21.00" class="stroke"/>
<use x="296.40" y="413.80" xlink:href="#hl1"/>
<use x="296.40" y="419.80" xlink:href="#hl1"/>
<use x="296.40" y="422.80" xlink:href="#HD"/>
<use x="296.40" y="401.80" xlink:href="#HD"/>
<use x="296.40" y="395.80" xlink:href="#HD"/>
<use x="296.40" y="389.80" xlink:href="#HD"/>
<use x="296.40" y="383.80" xlink:href="#HD"/>
<use x="380.60" y="413.80" xlink:href="#hl1"/>
<use x="380.60" y="377.80" xlink:href="#hl1"/>
<use x="380.60" y="374.80" xlink:href="#HD"/>
<use x="380.60" y="413.80" xlink:href="#HD"/>
<use x="380.60" y="392.80" xlink:href="#HD"/>
<use x="380.60" y="386.80" xlink:href="#HD"/>
<use x="380.60" y="380.80" xlink:href="#HD"/>
<use x="507.20" y="413.80" xlink:href="#hl1"/>
<use x="507.20" y="377.80" xlink:href="#hl1"/>
<use x="507.20" y="416.80" xlink:href="#HD"/>
<use x="507.20" y="395.80" xlink:href="#HD"/>
<use x="507.20" y="389.80" xlink:href="#HD"/>
<use x="507.20" y="383.80" xlink:href="#HD"/>
<use x="507.20" y="377.80" xlink:href="#HD"/>
<use x="591.30" y="413.80" xlink:href="#hl1"/>
<use x="591.30" y="419.80" xlink:href="#hl1"/>
<use x="591.30" y="425.80" xlink:href="#hl1"/>
<use x="591.30" y="428.80" xlink:href="#HD"/>
<use x="591.30" y="407.80" xlink:href="#HD"/>
<use x="591.30" y="401.80" xlink:href="#HD"/>
<use x="591.30" y="395.80" xlink:href="#HD"/>
<use x="591.30" y="389.80" xlink:href="#HD"/>
<g transform="rotate(270)">
<use x="-425.80" y="282.90" xlink:href="#ltr"/>
<use x="-419.80" y="282.90" xlink:href="#ltr"/>
<use x="-413.80" y="282.90" xlink:href="#ltr"/>
<use x="-407.80" y="282.90" xlink:href="#ltr"/>
<use x="-401.80" y="282.90" xlink:href="#ltr"/>
<use x="-395.80" y="282.90" xlink:href="#ltr"/>
<use x="-389.80" y="282.90" xlink:href="#ltr"/>
<use x="-383.80" y="282.90" xlink:href="#ltr"/>
</g>
<g transform="rotate(270)">
<use x="-416.80" y="367.10" xlink:href="#ltr"/>
<use x="-410.80" y="367.10" xlink:href="#ltr"/>
<use x="-404.80" y="367.10" xlink:href="#ltr"/>
<use x="-398.80" y="367.10" xlink:href="#ltr"/>
<use x="-392.80" y="367.10" xlink:href="#ltr"/>
<use x="-386.80" y="367.10" xlink:href="#ltr"/>
<use x="-380.80" y="367.10" xlink:href="#ltr"/>
<use x="-374.80" y="367.10" xlink:href="#ltr"/>
</g>
<g transform="rotate(270)">
<use x="-419.80" y="493.70" xlink:href="#ltr"/>
<use x="-413.80" y="493.70" xlink:href="#ltr"/>
<use x="-407.80" y="493.70" xlink:href="#ltr"/>
<use x="-401.80" y="493.70" xlink:href="#ltr"/>
<use x="-395.80" y="493.70" xlink:href="#ltr"/>
<use x="-389.80" y="493.70" xlink:href="#ltr"/>
<use x="-383.80" y="493.70" xlink:href="#ltr"/>
<use x="-377.80" y="493.70" xlink:href="#ltr"/>
</g>
<g transform="rotate(270)">
<use x="-431.80" y="577.80" xlink:href="#ltr"/>
<use x="-425.80" y="577.80" xlink:href="#ltr"/>
<use x="-419.80" y="577.80" xlink:href="#ltr"/>
<use x="-413.80" y="577.80" xlink:href="#ltr"/>
<use x="-407.80" y="577.80" xlink:href="#ltr"/>
<use x="-401.80" y="577.80" xlink:href="#ltr"/>
<use x="-395.80" y="577.80" xlink:href="#ltr"/>
<use x="-389.80" y="577.80" xlink:href="#ltr"/>
</g>
</g>
<g stroke-width="0.70" style="font:italic 11.00px Times">
<path class="stroke" stroke-width="1"
	d="M10.00 546.20v-82.00"/>
<g transform="translate(10.00,464.20) scale(1,0.82)">
	<use xlink:href="#brace"/>
</g>
<path class="stroke" stroke-width="1"
	d="M203.00 488.20v-24.00"/>
<path class="stroke" stroke-width="1"
	d="M203.00 546.20v-24.00"/>
<path class="stroke" stroke-width="1"
	d="M313.10 488.20v-24.00"/>
<path class="stroke" stroke-width="1"
	d="M313.10 546.20v-24.00"/>
<path d="m10.00 488.20
	h303.10
	M10.00 482.20
	h303.10
	M10.00 476.20
	h303.10
	M10.00 470.20
	h303.10
	M10.00 464.20
	h303.10
	" class="stroke"/>
<path d="m10.00 546.20
	h303.10
	M10.00 540.20
	h303.10
	M10.00 534.20
	h303.10
	M10.00 528.20
	h303.10
	M10.00 522.20
	h303.10
	" class="stroke"/>
</g>
<g stroke-width="0.70" style="font:bold 13.00px Times">
<text x="47.30" y="454.60">I<tspan
	 style="font:italic 11.00px Times">Δ⁷¹</tspan></text>
</g>
<g stroke-width="0.70" style="font:bold 13.00px Times">
<text x="220.00" y="444.60">vi<tspan
	 style="font:italic 11.00px Times">m⁷</tspan></text>
</g>
<g stroke-width="0.70" style="font:italic 11.00px Times">
<use x="22.00" y="482.20" xlink:href="#tclef"/>
<use x="37.00" y="464.20" xlink:href="#sh0"/>
<use x="55.00" y="482.20" xlink:href="#hd"/>
<path d="M58.50 482.20v-21.00" class="stroke"/>
<use x="95.00" y="479.20" xlink:href="#hd"/>
<path d="M98.50 479.20v-21.00" class="stroke"/>
<use x="135.00" y="485.20" xlink:href="#hd"/>
<path d="M138.50 485.20v-21.00" class="stroke"/>
<use x="175.00" y="488.20" xlink:href="#hd"/>
<path d="M178.50 488.20v-21.00" class="stroke"/>
<use x="228.00" y="491.20" xlink:href="#hd"/>
<path d="M231.50 491.20v-40.00" class="stroke"/>
<use x="228.00" y="470.20" xlink:href="#hd"/>
<use x="268.00" y="488.20" xlink:href="#Hd"/>
<circle class="fill" cx="276.70" cy="485.20" r="1.2"/>
<path d="M271.50 488.20v-40.00" class="stroke"/>
<use x="268.00" y="467.20" xlink:href="#Hd"/>
<circle class="fill" cx="276.70" cy="467.20" r="1.2"/>
<use x="22.00" y="528.20" xlink:href="#bclef"/>
<use x="37.00" y="528.20" xlink:href="#sh0"/>
<use x="55.00" y="546.20" xlink:href="#hd"/>
<path d="M58.50 546.20v-21.00" class="stroke"/>
<use x="95.00" y="540.20" xlink:href="#hd"/>
<path d="M98.50 540.20v-21.00" class="stroke"/>
<use x="135.00" y="534.20" xlink:href="#hd"/>
<path d="M138.50 534.20v-21.00" class="stroke"/>
<use x="175.00" y="528.20" xlink:href="#hd"/>
<path d="M171.50 528.20v21.00" class="stroke"/>
<use x="229.00" y="552.20" xlink:href="#hl1"/>
<use x="229.00" y="516.20" xlink:href="#hl1"/>
<use x="229.00" y="513.20" xlink:href="#HD"/>
<use x="229.00" y="552.20" xlink:href="#HD"/>
<use x="229.00" y="531.20" xlink:href="#HD"/>
<use x="229.00" y="525.20" xlink:href="#HD"/>
<use x="229.00" y="519.20" xlink:href="#HD"/>
<g transform="rotate(270)">
<use x="-555.20" y="215.50" xlink:href="#ltr"/>
<use x="-549.20" y="215.50" xlink:href="#ltr"/>
<use x="-543.20" y="215.50" xlink:href="#ltr"/>
<use x="-537.20" y="215.50" xlink:href="#ltr"/>
<use x="-531.20" y="215.50" xlink:href="#ltr"/>
<use x="-525.20" y="215.50" xlink:href="#ltr"/>
<use x="-519.20" y="215.50" xlink:href="#ltr"/>
<use x="-513.20" y="215.50" xlink:href="#ltr"/>
</g>
</g>
</svg>
