<?xml version="1.0" standalone="no"?>
<!DOCTYPE svg PUBLIC "-//W3C//DTD SVG 1.1//EN"
	"http://www.w3.org/Graphics/SVG/1.1/DTD/svg11.dtd">
<svg xmlns="http://www.w3.org/2000/svg" version="1.1"
	xmlns:xlink="http://www.w3.org/1999/xlink"
	color="black"
	width="701.60px" height="436.20px" viewBox="0 0 701.60 436.20" preserveAspectRatio="xMidYMid meet">
<style type="text/css">
.fill {fill: currentColor}
.stroke {stroke: currentColor; fill: none}
text{white-space: pre}
</style>
<title>/tmp/reharm_hymnal_L7/open_now_thy_gates_of_beauty.abc (1) tune 1</title>
<!-- Creator: abcm2ps-8.14.11 -->
<!-- CreationDate: Apr 24, 2026 15:32 -->
<!-- CommandLine: /tmp/reharm_hymnal_L7/open_now_thy_gates_of_beauty.abc -g -O /tmp/reharm_hymnal_L7/open_now_thy_gates_of_beauty -->
<g stroke-width="0.70">
<!-- title: 197. Open Now Thy Gates of Beauty -->
</g>
<g stroke-width="0.70" style="font:20.00px Times">
<text x="350.80" y="22.00" text-anchor="middle">197. Open Now Thy Gates of Beauty</text>
</g>
<g stroke-width="0.70" style="font:20.00px Times">
<path class="stroke" stroke-width="1"
	d="M10.00 147.40v-84.00"/>
<defs>
<path id="brace" class="fill" d="m-2.5 101
	c-4.5 -4.6 -7.5 -12.2 -4.4 -26.8
	3.5 -14.3 3.2 -21.7 -2.1 -24.2
	7.4 2.4 7.3 14.2 3.5 29.5
	-2.7 9.5 -1.5 16.2 3 21.5
	M-2.5 1c-4.5 4.6 -7.5 12.2 -4.4 26.8
	c3.5 14.3 3.2 21.7 -2.1 24.2
	7.4 -2.4 7.3 -14.2 3.5 -29.5
	-2.7 -9.5 -1.5 -16.2 3 -21.5"/>
</defs>
<g transform="translate(10.00,63.40) scale(1,0.84)">
	<use xlink:href="#brace"/>
</g>
<path class="stroke" stroke-width="1"
	d="M196.50 87.40v-24.00"/>
<path class="stroke" stroke-width="1"
	d="M196.50 147.40v-24.00"/>
<path class="stroke" stroke-width="1"
	d="M316.60 87.40v-24.00"/>
<path class="stroke" stroke-width="1"
	d="M316.60 147.40v-24.00"/>
<path class="stroke" stroke-width="1"
	d="M450.30 87.40v-24.00"/>
<path class="stroke" stroke-width="1"
	d="M450.30 147.40v-24.00"/>
<path class="stroke" stroke-width="1"
	d="M562.10 87.40v-24.00"/>
<path class="stroke" stroke-width="1"
	d="M562.10 147.40v-24.00"/>
<path class="stroke" stroke-width="1"
	d="M691.60 87.40v-24.00"/>
<path class="stroke" stroke-width="1"
	d="M691.60 147.40v-24.00"/>
<path d="m10.00 87.40
	h681.60
	M10.00 81.40
	h681.60
	M10.00 75.40
	h681.60
	M10.00 69.40
	h681.60
	M10.00 63.40
	h681.60
	" class="stroke"/>
<path d="m10.00 147.40
	h681.60
	M10.00 141.40
	h681.60
	M10.00 135.40
	h681.60
	M10.00 129.40
	h681.60
	M10.00 123.40
	h681.60
	" class="stroke"/>
</g>
<g stroke-width="0.70" style="font:bold 13.00px Times">
<text x="84.00" y="58.80">vi<tspan
	 style="font:italic 11.00px Times">m⁷</tspan></text>
</g>
<g stroke-width="0.70" style="font:bold 13.00px Times">
<text x="203.10" y="56.80">V<tspan
	 style="font:italic 11.00px Times">⁷</tspan></text>
</g>
<g stroke-width="0.70" style="font:bold 13.00px Times">
<text x="321.10" y="47.80">IV<tspan
	 style="font:italic 11.00px Times">Δ⁷</tspan></text>
</g>
<g stroke-width="0.70" style="font:bold 13.00px Times">
<text x="467.30" y="58.80">iii<tspan
	 style="font:italic 11.00px Times">m⁷</tspan></text>
</g>
<g stroke-width="0.70" style="font:bold 13.00px Times">
<text x="579.10" y="58.80">vi<tspan
	 style="font:italic 11.00px Times">m⁷</tspan></text>
</g>
<g stroke-width="0.70" style="font:italic 11.00px Times">
<defs>
<path id="utclef" class="fill" d="m-50 -90
	c-72 -41 -72 -158 52 -188
	150 -10 220 188 90 256
	-114 52 -275 0 -293 -136
	-15 -181 93 -229 220 -334
	88 -87 79 -133 62 -210
	-51 33 -94 105 -89 186
	17 267 36 374 49 574
	6 96 -19 134 -77 135
	-80 1 -126 -93 -61 -133
	85 -41 133 101 31 105
	23 17 92 37 90 -92
	-10 -223 -39 -342 -50 -617
	0 -90 0 -162 96 -232
	56 72 63 230 22 289
	-74 106 -257 168 -255 316
	9 153 148 185 252 133
	86 -65 29 -192 -80 -176
	-71 12 -105 67 -59 124"/>
<use id="tclef" transform="translate(0,6) scale(0.045)"
	xlink:href="#utclef"/>
</defs>
<use x="22.00" y="81.40" xlink:href="#tclef"/>
<defs>
<path id="uflat" class="fill" d="
	m100 -746
	h32
	v734
	l-32 4
	m32 -332
	c46 -72 152 -90 208 -20
	100 110 -120 326 -208 348
	m0 -28
	c54 0 200 -206 130 -290
	-50 -60 -130 -4 -130 34"/>
<use id="ft0" transform="translate(-3.5,3.5) scale(0.018)"
	xlink:href="#uflat"/>
</defs>
<use x="37.00" y="75.40" xlink:href="#ft0"/>
<use x="42.50" y="66.40" xlink:href="#ft0"/>
<g style="font:bold 16px serif"
	transform="translate(58.50,86.90) scale(1.2,1)">
	<text text-anchor="middle">4</text>
	<text y="-12" text-anchor="middle">4</text>
</g>
<defs>
<path id="hl" class="stroke" d="m-6 0h12"/>
</defs>
<use x="92.00" y="93.40" xlink:href="#hl"/>
<defs>
<ellipse id="hd" rx="4.1" ry="2.9"
	transform="rotate(-20)" class="fill"/>
</defs>
<use x="92.00" y="96.40" xlink:href="#hd"/>
<circle class="fill" cx="99.70" cy="96.40" r="1.2"/>
<path d="M95.50 96.40v-21.00" class="stroke"/>
<use x="125.70" y="93.40" xlink:href="#hl"/>
<use x="125.70" y="93.40" xlink:href="#hd"/>
<path d="M129.20 93.40v-21.00" class="stroke"/>
<path class="fill"
	d="M129.20 72.40c0.6 5.6 9.6 9 5.6 18.4
	1.6 -6 -1.3 -11.6 -5.6 -12.8
"/>
<use x="146.80" y="90.40" xlink:href="#hd"/>
<path d="M150.30 90.40v-21.00" class="stroke"/>
<use x="175.70" y="93.40" xlink:href="#hl"/>
<use x="175.70" y="96.40" xlink:href="#hd"/>
<path d="M179.20 96.40v-21.00" class="stroke"/>
<use x="209.00" y="90.40" xlink:href="#hd"/>
<path d="M212.50 90.40v-21.00" class="stroke"/>
<use x="237.90" y="87.40" xlink:href="#hd"/>
<path d="M241.40 87.40v-21.00" class="stroke"/>
<use x="266.80" y="84.40" xlink:href="#hd"/>
<path d="M270.30 84.40v-21.00" class="stroke"/>
<use x="295.80" y="84.40" xlink:href="#hd"/>
<path d="M299.30 84.40v-21.00" class="stroke"/>
<use x="329.10" y="75.40" xlink:href="#hd"/>
<path d="M332.60 75.40v-21.00" class="stroke"/>
<use x="358.00" y="78.40" xlink:href="#hd"/>
<path d="M361.50 78.40v-21.00" class="stroke"/>
<path class="fill"
	d="M361.50 57.40c0.6 5.6 9.6 9 5.6 18.4
	1.6 -6 -1.3 -11.6 -5.6 -12.8
"/>
<use x="379.20" y="81.40" xlink:href="#hd"/>
<path d="M382.70 81.40v-21.00" class="stroke"/>
<path class="fill"
	d="M382.70 60.40c0.6 5.6 9.6 9 5.6 18.4
	1.6 -6 -1.3 -11.6 -5.6 -12.8
"/>
<use x="400.30" y="84.40" xlink:href="#hd"/>
<path d="M403.80 84.40v-21.00" class="stroke"/>
<use x="429.40" y="69.40" xlink:href="#hd"/>
<path d="M425.90 69.40v21.00" class="stroke"/>
<use x="475.30" y="72.40" xlink:href="#hd"/>
<path d="M471.80 72.40v21.00" class="stroke"/>
<use x="504.10" y="72.40" xlink:href="#hd"/>
<path d="M500.60 72.40v21.00" class="stroke"/>
<defs>
<path id="Hd" class="fill" d="m3 -1.6
	c-1 -1.8 -7 1.4 -6 3.2
	1 1.8 7 -1.4 6 -3.2
	m0.5 -0.3
	c2 3.8 -5 7.6 -7 3.8
	-2 -3.8 5 -7.6 7 -3.8"/>
</defs>
<use x="533.10" y="75.40" xlink:href="#Hd"/>
<path d="M529.60 75.40v21.00" class="stroke"/>
<use x="587.10" y="93.40" xlink:href="#hl"/>
<use x="587.10" y="96.40" xlink:href="#hd"/>
<circle class="fill" cx="594.80" cy="96.40" r="1.2"/>
<path d="M590.60 96.40v-21.00" class="stroke"/>
<use x="620.70" y="93.40" xlink:href="#hl"/>
<use x="620.70" y="93.40" xlink:href="#hd"/>
<path d="M624.20 93.40v-21.00" class="stroke"/>
<path class="fill"
	d="M624.20 72.40c0.6 5.6 9.6 9 5.6 18.4
	1.6 -6 -1.3 -11.6 -5.6 -12.8
"/>
<use x="641.90" y="90.40" xlink:href="#hd"/>
<path d="M645.40 90.40v-21.00" class="stroke"/>
<use x="670.80" y="93.40" xlink:href="#hl"/>
<use x="670.80" y="96.40" xlink:href="#hd"/>
<path d="M674.30 96.40v-21.00" class="stroke"/>
<defs>
<path id="ubclef" class="fill" d="m-200 -87
	c124 -35 222 -78 254 -236
	43 -228 -167 -246 -192 -103
	59 -80 157 22 92 78
	-62 47 -115 -22 -106 -88
	21 -141 270 -136 274 52
	-1 175 -106 264 -322 297
	m357 -250
	c0 -36 51 -34 51 0
	0 37 -51 36 -51 0
	m-2 -129
	c0 -36 51 -34 51 0
	0 38 -51 37 -51 0"/>
<use id="bclef" transform="translate(0,18) scale(0.045)"
	xlink:href="#ubclef"/>
</defs>
<use x="22.00" y="129.40" xlink:href="#bclef"/>
<use x="37.00" y="141.40" xlink:href="#ft0"/>
<use x="42.50" y="132.40" xlink:href="#ft0"/>
<g style="font:bold 16px serif"
	transform="translate(58.50,146.90) scale(1.2,1)">
	<text text-anchor="middle">4</text>
	<text y="-12" text-anchor="middle">4</text>
</g>
<defs>
<path id="hl1" class="stroke" d="m-7 0h14"/>
</defs>
<use x="93.00" y="117.40" xlink:href="#hl1"/>
<use x="93.00" y="111.40" xlink:href="#hl1"/>
<defs>
<path id="HD" class="fill" d="m-2.7 -1.4
	c1.5 -2.8 6.9 0 5.3 2.7
	-1.5 2.8 -6.9 0 -5.3 -2.7
	m8.3 1.4
	c0 -1.5 -2.2 -3 -5.6 -3
	-3.4 0 -5.6 1.5 -5.6 3
	0 1.5 2.2 3 5.6 3
	3.4 0 5.6 -1.5 5.6 -3"/>
</defs>
<use x="93.00" y="108.40" xlink:href="#HD"/>
<use x="93.00" y="147.40" xlink:href="#HD"/>
<use x="93.00" y="126.40" xlink:href="#HD"/>
<use x="93.00" y="120.40" xlink:href="#HD"/>
<use x="93.00" y="114.40" xlink:href="#HD"/>
<use x="209.00" y="129.40" xlink:href="#hd"/>
<path d="M205.50 129.40v21.00" class="stroke"/>
<use x="237.90" y="123.40" xlink:href="#hd"/>
<path d="M234.40 123.40v21.00" class="stroke"/>
<use x="266.80" y="117.40" xlink:href="#hl"/>
<use x="266.80" y="117.40" xlink:href="#hd"/>
<path d="M263.30 117.40v21.00" class="stroke"/>
<use x="295.80" y="117.40" xlink:href="#hl"/>
<use x="295.80" y="111.40" xlink:href="#hl"/>
<use x="295.80" y="111.40" xlink:href="#hd"/>
<path d="M292.30 111.40v24.00" class="stroke"/>
<use x="329.10" y="132.40" xlink:href="#hd"/>
<path d="M325.60 132.40v21.00" class="stroke"/>
<use x="358.00" y="126.40" xlink:href="#hd"/>
<path d="M354.50 126.40v21.00" class="stroke"/>
<use x="400.30" y="120.40" xlink:href="#hd"/>
<path d="M396.80 120.40v21.00" class="stroke"/>
<use x="429.40" y="117.40" xlink:href="#hl"/>
<use x="429.40" y="114.40" xlink:href="#hd"/>
<path d="M425.90 114.40v21.00" class="stroke"/>
<use x="476.30" y="153.40" xlink:href="#hl1"/>
<use x="476.30" y="117.40" xlink:href="#hl1"/>
<use x="476.30" y="156.40" xlink:href="#HD"/>
<use x="476.30" y="135.40" xlink:href="#HD"/>
<use x="476.30" y="129.40" xlink:href="#HD"/>
<use x="476.30" y="123.40" xlink:href="#HD"/>
<use x="476.30" y="117.40" xlink:href="#HD"/>
<use x="588.10" y="117.40" xlink:href="#hl1"/>
<use x="588.10" y="111.40" xlink:href="#hl1"/>
<use x="588.10" y="108.40" xlink:href="#HD"/>
<use x="588.10" y="147.40" xlink:href="#HD"/>
<use x="588.10" y="126.40" xlink:href="#HD"/>
<use x="588.10" y="120.40" xlink:href="#HD"/>
<use x="588.10" y="114.40" xlink:href="#HD"/>
<defs>
<path id="ltr" class="fill"
    d="m0 -0.4c2 -1.5 3.4 -1.9 3.9 0.4
	c0.2 0.8 0.7 0.7 2.1 -0.4
	v0.8c-2 1.5 -3.4 1.9 -3.9 -0.4
	c-0.2 -0.8 -0.7 -0.7 -2.1 0.4z"/>
</defs>
<g transform="rotate(270)">
<use x="-150.40" y="79.50" xlink:href="#ltr"/>
<use x="-144.40" y="79.50" xlink:href="#ltr"/>
<use x="-138.40" y="79.50" xlink:href="#ltr"/>
<use x="-132.40" y="79.50" xlink:href="#ltr"/>
<use x="-126.40" y="79.50" xlink:href="#ltr"/>
<use x="-120.40" y="79.50" xlink:href="#ltr"/>
<use x="-114.40" y="79.50" xlink:href="#ltr"/>
<use x="-108.40" y="79.50" xlink:href="#ltr"/>
</g>
<g transform="rotate(270)">
<use x="-159.40" y="462.80" xlink:href="#ltr"/>
<use x="-153.40" y="462.80" xlink:href="#ltr"/>
<use x="-147.40" y="462.80" xlink:href="#ltr"/>
<use x="-141.40" y="462.80" xlink:href="#ltr"/>
<use x="-135.40" y="462.80" xlink:href="#ltr"/>
<use x="-129.40" y="462.80" xlink:href="#ltr"/>
<use x="-123.40" y="462.80" xlink:href="#ltr"/>
<use x="-117.40" y="462.80" xlink:href="#ltr"/>
</g>
<g transform="rotate(270)">
<use x="-150.40" y="574.60" xlink:href="#ltr"/>
<use x="-144.40" y="574.60" xlink:href="#ltr"/>
<use x="-138.40" y="574.60" xlink:href="#ltr"/>
<use x="-132.40" y="574.60" xlink:href="#ltr"/>
<use x="-126.40" y="574.60" xlink:href="#ltr"/>
<use x="-120.40" y="574.60" xlink:href="#ltr"/>
<use x="-114.40" y="574.60" xlink:href="#ltr"/>
<use x="-108.40" y="574.60" xlink:href="#ltr"/>
</g>
</g>
<g stroke-width="0.70" style="font:italic 11.00px Times">
<path class="stroke" stroke-width="1"
	d="M10.00 277.80v-82.00"/>
<g transform="translate(10.00,195.80) scale(1,0.82)">
	<use xlink:href="#brace"/>
</g>
<path class="stroke" stroke-width="1"
	d="M174.20 219.80v-24.00"/>
<path class="stroke" stroke-width="1"
	d="M174.20 277.80v-24.00"/>
<path class="stroke" stroke-width="1"
	d="M314.10 219.80v-24.00"/>
<path class="stroke" stroke-width="1"
	d="M314.10 277.80v-24.00"/>
<path class="stroke" stroke-width="1"
	d="M430.90 219.80v-24.00"/>
<path class="stroke" stroke-width="1"
	d="M430.90 277.80v-24.00"/>
<path class="stroke" stroke-width="1"
	d="M565.40 219.80v-24.00"/>
<path class="stroke" stroke-width="1"
	d="M565.40 277.80v-24.00"/>
<path class="stroke" stroke-width="1"
	d="M691.60 219.80v-24.00"/>
<path class="stroke" stroke-width="1"
	d="M691.60 277.80v-24.00"/>
<path d="m10.00 219.80
	h681.60
	M10.00 213.80
	h681.60
	M10.00 207.80
	h681.60
	M10.00 201.80
	h681.60
	M10.00 195.80
	h681.60
	" class="stroke"/>
<path d="m10.00 277.80
	h681.60
	M10.00 271.80
	h681.60
	M10.00 265.80
	h681.60
	M10.00 259.80
	h681.60
	M10.00 253.80
	h681.60
	" class="stroke"/>
</g>
<g stroke-width="0.70" style="font:bold 13.00px Times">
<text x="54.60" y="191.20">V<tspan
	 style="font:italic 11.00px Times">⁷</tspan></text>
</g>
<g stroke-width="0.70" style="font:bold 13.00px Times">
<text x="178.70" y="180.20">IV<tspan
	 style="font:italic 11.00px Times">Δ⁷</tspan></text>
</g>
<g stroke-width="0.70" style="font:bold 13.00px Times">
<text x="331.10" y="191.20">iii<tspan
	 style="font:italic 11.00px Times">m⁷</tspan></text>
</g>
<g stroke-width="0.70" style="font:bold 13.00px Times">
<text x="450.20" y="191.20">I<tspan
	 style="font:italic 11.00px Times">Δ⁷</tspan></text>
</g>
<g stroke-width="0.70" style="font:bold 13.00px Times">
<text x="569.90" y="191.20">vi<tspan
	 style="font:italic 11.00px Times">m⁷</tspan></text>
</g>
<g stroke-width="0.70" style="font:italic 11.00px Times">
<use x="22.00" y="213.80" xlink:href="#tclef"/>
<use x="37.00" y="207.80" xlink:href="#ft0"/>
<use x="42.50" y="198.80" xlink:href="#ft0"/>
<use x="60.50" y="222.80" xlink:href="#hd"/>
<path d="M64.00 222.80v-21.00" class="stroke"/>
<use x="91.10" y="219.80" xlink:href="#hd"/>
<path d="M94.60 219.80v-21.00" class="stroke"/>
<use x="121.70" y="216.80" xlink:href="#hd"/>
<path d="M125.20 216.80v-21.00" class="stroke"/>
<use x="152.40" y="216.80" xlink:href="#hd"/>
<path d="M155.90 216.80v-21.00" class="stroke"/>
<use x="186.70" y="207.80" xlink:href="#hd"/>
<path d="M190.20 207.80v-21.00" class="stroke"/>
<use x="217.30" y="210.80" xlink:href="#hd"/>
<path d="M220.80 210.80v-21.00" class="stroke"/>
<path class="fill"
	d="M220.80 189.80c0.6 5.6 9.6 9 5.6 18.4
	1.6 -6 -1.3 -11.6 -5.6 -12.8
"/>
<use x="239.40" y="213.80" xlink:href="#hd"/>
<path d="M242.90 213.80v-21.00" class="stroke"/>
<path class="fill"
	d="M242.90 192.80c0.6 5.6 9.6 9 5.6 18.4
	1.6 -6 -1.3 -11.6 -5.6 -12.8
"/>
<use x="261.50" y="216.80" xlink:href="#hd"/>
<path d="M265.00 216.80v-21.00" class="stroke"/>
<use x="292.30" y="201.80" xlink:href="#hd"/>
<path d="M288.80 201.80v21.00" class="stroke"/>
<use x="339.10" y="204.80" xlink:href="#hd"/>
<path d="M335.60 204.80v21.00" class="stroke"/>
<use x="369.70" y="204.80" xlink:href="#hd"/>
<path d="M366.20 204.80v21.00" class="stroke"/>
<use x="400.30" y="207.80" xlink:href="#Hd"/>
<path d="M396.80 207.80v21.00" class="stroke"/>
<use x="455.90" y="201.80" xlink:href="#hd"/>
<circle class="fill" cx="463.60" cy="198.80" r="1.2"/>
<path d="M452.40 201.80v21.00" class="stroke"/>
<use x="491.10" y="201.80" xlink:href="#hd"/>
<path d="M487.60 201.80v21.00" class="stroke"/>
<path class="fill"
	d="M487.60 222.80c0.6 -5.6 9.6 -9 5.6 -18.4
	1.6 6 -1.3 11.6 -5.6 12.8
"/>
<use x="512.90" y="204.80" xlink:href="#hd"/>
<path d="M509.40 204.80v21.00" class="stroke"/>
<use x="543.50" y="204.80" xlink:href="#hd"/>
<path d="M540.00 204.80v21.00" class="stroke"/>
<use x="577.90" y="207.80" xlink:href="#hd"/>
<path d="M574.40 207.80v21.00" class="stroke"/>
<use x="608.50" y="207.80" xlink:href="#hd"/>
<path d="M605.00 207.80v21.00" class="stroke"/>
<use x="639.10" y="210.80" xlink:href="#Hd"/>
<path d="M642.60 210.80v-21.00" class="stroke"/>
<use x="22.00" y="259.80" xlink:href="#bclef"/>
<use x="37.00" y="271.80" xlink:href="#ft0"/>
<use x="42.50" y="262.80" xlink:href="#ft0"/>
<use x="60.50" y="259.80" xlink:href="#hd"/>
<path d="M57.00 259.80v21.00" class="stroke"/>
<use x="91.10" y="253.80" xlink:href="#hd"/>
<path d="M87.60 253.80v21.00" class="stroke"/>
<use x="121.70" y="247.80" xlink:href="#hl"/>
<use x="121.70" y="247.80" xlink:href="#hd"/>
<path d="M118.20 247.80v21.00" class="stroke"/>
<use x="152.40" y="247.80" xlink:href="#hl"/>
<use x="152.40" y="241.80" xlink:href="#hl"/>
<use x="152.40" y="241.80" xlink:href="#hd"/>
<path d="M148.90 241.80v24.00" class="stroke"/>
<use x="186.70" y="262.80" xlink:href="#hd"/>
<path d="M183.20 262.80v21.00" class="stroke"/>
<use x="217.30" y="256.80" xlink:href="#hd"/>
<path d="M213.80 256.80v21.00" class="stroke"/>
<use x="261.50" y="250.80" xlink:href="#hd"/>
<path d="M258.00 250.80v21.00" class="stroke"/>
<use x="292.30" y="247.80" xlink:href="#hl"/>
<use x="292.30" y="244.80" xlink:href="#hd"/>
<path d="M288.80 244.80v21.00" class="stroke"/>
<use x="340.10" y="283.80" xlink:href="#hl1"/>
<use x="340.10" y="247.80" xlink:href="#hl1"/>
<use x="340.10" y="286.80" xlink:href="#HD"/>
<use x="340.10" y="265.80" xlink:href="#HD"/>
<use x="340.10" y="259.80" xlink:href="#HD"/>
<use x="340.10" y="253.80" xlink:href="#HD"/>
<use x="340.10" y="247.80" xlink:href="#HD"/>
<use x="456.90" y="283.80" xlink:href="#hl1"/>
<use x="456.90" y="289.80" xlink:href="#hl1"/>
<use x="456.90" y="292.80" xlink:href="#HD"/>
<use x="456.90" y="271.80" xlink:href="#HD"/>
<use x="456.90" y="265.80" xlink:href="#HD"/>
<use x="456.90" y="259.80" xlink:href="#HD"/>
<use x="456.90" y="253.80" xlink:href="#HD"/>
<use x="577.90" y="256.80" xlink:href="#hd"/>
<path d="M574.40 256.80v21.00" class="stroke"/>
<use x="608.50" y="250.80" xlink:href="#hd"/>
<path d="M605.00 250.80v21.00" class="stroke"/>
<use x="639.10" y="247.80" xlink:href="#hl"/>
<use x="639.10" y="244.80" xlink:href="#hd"/>
<path d="M635.60 244.80v21.00" class="stroke"/>
<use x="669.80" y="247.80" xlink:href="#hl"/>
<use x="669.80" y="241.80" xlink:href="#hl"/>
<use x="669.80" y="238.80" xlink:href="#hd"/>
<path d="M666.30 238.80v27.00" class="stroke"/>
<g transform="rotate(270)">
<use x="-289.80" y="326.60" xlink:href="#ltr"/>
<use x="-283.80" y="326.60" xlink:href="#ltr"/>
<use x="-277.80" y="326.60" xlink:href="#ltr"/>
<use x="-271.80" y="326.60" xlink:href="#ltr"/>
<use x="-265.80" y="326.60" xlink:href="#ltr"/>
<use x="-259.80" y="326.60" xlink:href="#ltr"/>
<use x="-253.80" y="326.60" xlink:href="#ltr"/>
<use x="-247.80" y="326.60" xlink:href="#ltr"/>
</g>
<g transform="rotate(270)">
<use x="-295.80" y="443.40" xlink:href="#ltr"/>
<use x="-289.80" y="443.40" xlink:href="#ltr"/>
<use x="-283.80" y="443.40" xlink:href="#ltr"/>
<use x="-277.80" y="443.40" xlink:href="#ltr"/>
<use x="-271.80" y="443.40" xlink:href="#ltr"/>
<use x="-265.80" y="443.40" xlink:href="#ltr"/>
<use x="-259.80" y="443.40" xlink:href="#ltr"/>
<use x="-253.80" y="443.40" xlink:href="#ltr"/>
</g>
</g>
<g stroke-width="0.70" style="font:italic 11.00px Times">
<path class="stroke" stroke-width="1"
	d="M10.00 413.20v-82.00"/>
<g transform="translate(10.00,331.20) scale(1,0.82)">
	<use xlink:href="#brace"/>
</g>
<path class="stroke" stroke-width="1"
	d="M222.30 355.20v-24.00"/>
<path class="stroke" stroke-width="1"
	d="M222.30 413.20v-24.00"/>
<path class="stroke" stroke-width="1"
	d="M366.90 355.20v-24.00"/>
<path class="stroke" stroke-width="1"
	d="M366.90 413.20v-24.00"/>
<path d="m10.00 355.20
	h356.90
	M10.00 349.20
	h356.90
	M10.00 343.20
	h356.90
	M10.00 337.20
	h356.90
	M10.00 331.20
	h356.90
	" class="stroke"/>
<path d="m10.00 413.20
	h356.90
	M10.00 407.20
	h356.90
	M10.00 401.20
	h356.90
	M10.00 395.20
	h356.90
	M10.00 389.20
	h356.90
	" class="stroke"/>
</g>
<g stroke-width="0.70" style="font:bold 13.00px Times">
<text x="52.50" y="321.60">IV<tspan
	 style="font:italic 11.00px Times">Δ⁷</tspan></text>
</g>
<g stroke-width="0.70" style="font:bold 13.00px Times">
<text x="239.30" y="310.60">ii<tspan
	 style="font:italic 11.00px Times">m⁷¹</tspan></text>
</g>
<g stroke-width="0.70" style="font:italic 11.00px Times">
<use x="22.00" y="349.20" xlink:href="#tclef"/>
<use x="37.00" y="343.20" xlink:href="#ft0"/>
<use x="42.50" y="334.20" xlink:href="#ft0"/>
<use x="60.50" y="349.20" xlink:href="#hd"/>
<circle class="fill" cx="68.20" cy="346.20" r="1.2"/>
<path d="M64.00 349.20v-21.00" class="stroke"/>
<use x="126.00" y="349.20" xlink:href="#hd"/>
<path d="M129.50 349.20v-21.00" class="stroke"/>
<path class="fill"
	d="M129.50 328.20c0.6 5.6 9.6 9 5.6 18.4
	1.6 -6 -1.3 -11.6 -5.6 -12.8
"/>
<use x="154.30" y="352.20" xlink:href="#hd"/>
<path d="M157.80 352.20v-21.00" class="stroke"/>
<use x="194.30" y="343.20" xlink:href="#hd"/>
<path d="M197.80 343.20v-21.00" class="stroke"/>
<use x="247.30" y="325.20" xlink:href="#hl"/>
<use x="247.30" y="319.20" xlink:href="#hl"/>
<use x="247.30" y="319.20" xlink:href="#hd"/>
<path d="M243.80 319.20v40.00" class="stroke"/>
<use x="247.30" y="340.20" xlink:href="#hd"/>
<use x="287.30" y="325.20" xlink:href="#hl"/>
<use x="287.30" y="325.20" xlink:href="#hd"/>
<path d="M283.80 325.20v40.00" class="stroke"/>
<use x="287.30" y="346.20" xlink:href="#hd"/>
<use x="327.30" y="325.20" xlink:href="#hl"/>
<use x="327.30" y="322.20" xlink:href="#Hd"/>
<path d="M323.80 322.20v40.00" class="stroke"/>
<use x="327.30" y="343.20" xlink:href="#Hd"/>
<use x="22.00" y="395.20" xlink:href="#bclef"/>
<use x="37.00" y="407.20" xlink:href="#ft0"/>
<use x="42.50" y="398.20" xlink:href="#ft0"/>
<use x="60.50" y="398.20" xlink:href="#hd"/>
<path d="M57.00 398.20v21.00" class="stroke"/>
<use x="100.50" y="392.20" xlink:href="#hd"/>
<path d="M97.00 392.20v21.00" class="stroke"/>
<use x="154.30" y="386.20" xlink:href="#hd"/>
<path d="M150.80 386.20v21.00" class="stroke"/>
<use x="194.30" y="383.20" xlink:href="#hl"/>
<use x="194.30" y="380.20" xlink:href="#hd"/>
<path d="M190.80 380.20v21.00" class="stroke"/>
<use x="248.30" y="419.20" xlink:href="#hl1"/>
<use x="248.30" y="425.20" xlink:href="#hl1"/>
<use x="248.30" y="425.20" xlink:href="#HD"/>
<use x="248.30" y="404.20" xlink:href="#HD"/>
<use x="248.30" y="398.20" xlink:href="#HD"/>
<use x="248.30" y="392.20" xlink:href="#HD"/>
<use x="248.30" y="386.20" xlink:href="#HD"/>
<g transform="rotate(270)">
<use x="-428.20" y="234.80" xlink:href="#ltr"/>
<use x="-422.20" y="234.80" xlink:href="#ltr"/>
<use x="-416.20" y="234.80" xlink:href="#ltr"/>
<use x="-410.20" y="234.80" xlink:href="#ltr"/>
<use x="-404.20" y="234.80" xlink:href="#ltr"/>
<use x="-398.20" y="234.80" xlink:href="#ltr"/>
<use x="-392.20" y="234.80" xlink:href="#ltr"/>
<use x="-386.20" y="234.80" xlink:href="#ltr"/>
</g>
</g>
</svg>
