<?xml version="1.0" standalone="no"?>
<!DOCTYPE svg PUBLIC "-//W3C//DTD SVG 1.1//EN"
	"http://www.w3.org/Graphics/SVG/1.1/DTD/svg11.dtd">
<svg xmlns="http://www.w3.org/2000/svg" version="1.1"
	xmlns:xlink="http://www.w3.org/1999/xlink"
	color="black"
	width="701.60px" height="303.40px" viewBox="0 0 701.60 303.40" preserveAspectRatio="xMidYMid meet">
<style type="text/css">
.fill {fill: currentColor}
.stroke {stroke: currentColor; fill: none}
text{white-space: pre}
</style>
<title>/tmp/reharm_hymnal_L7/rejoice_o_pilgrim_throng.abc (1) tune 1</title>
<!-- Creator: abcm2ps-8.14.11 -->
<!-- CreationDate: Apr 24, 2026 15:32 -->
<!-- CommandLine: /tmp/reharm_hymnal_L7/rejoice_o_pilgrim_throng.abc -g -O /tmp/reharm_hymnal_L7/rejoice_o_pilgrim_throng -->
<g stroke-width="0.70">
<!-- title: 208. Rejoice, O Pilgrim Throng -->
</g>
<g stroke-width="0.70" style="font:20.00px Times">
<text x="350.80" y="22.00" text-anchor="middle">208. Rejoice, O Pilgrim Throng</text>
</g>
<g stroke-width="0.70" style="font:20.00px Times">
<path class="stroke" stroke-width="1"
	d="M10.00 145.40v-82.00"/>
<defs>
<path id="brace" class="fill" d="m-2.5 101
	c-4.5 -4.6 -7.5 -12.2 -4.4 -26.8
	3.5 -14.3 3.2 -21.7 -2.1 -24.2
	7.4 2.4 7.3 14.2 3.5 29.5
	-2.7 9.5 -1.5 16.2 3 21.5
	M-2.5 1c-4.5 4.6 -7.5 12.2 -4.4 26.8
	c3.5 14.3 3.2 21.7 -2.1 24.2
	7.4 -2.4 7.3 -14.2 3.5 -29.5
	-2.7 -9.5 -1.5 -16.2 3 -21.5"/>
</defs>
<g transform="translate(10.00,63.40) scale(1,0.82)">
	<use xlink:href="#brace"/>
</g>
<path class="stroke" stroke-width="1"
	d="M175.40 87.40v-24.00"/>
<path class="stroke" stroke-width="1"
	d="M175.40 145.40v-24.00"/>
<path class="stroke" stroke-width="1"
	d="M247.20 87.40v-24.00"/>
<path class="stroke" stroke-width="1"
	d="M247.20 145.40v-24.00"/>
<path class="stroke" stroke-width="1"
	d="M362.20 87.40v-24.00"/>
<path class="stroke" stroke-width="1"
	d="M362.20 145.40v-24.00"/>
<path class="stroke" stroke-width="1"
	d="M452.90 87.40v-24.00"/>
<path class="stroke" stroke-width="1"
	d="M452.90 145.40v-24.00"/>
<path class="stroke" stroke-width="1"
	d="M564.10 87.40v-24.00"/>
<path class="stroke" stroke-width="1"
	d="M564.10 145.40v-24.00"/>
<path class="stroke" stroke-width="1"
	d="M691.60 87.40v-24.00"/>
<path class="stroke" stroke-width="1"
	d="M691.60 145.40v-24.00"/>
<path d="m10.00 87.40
	h681.60
	M10.00 81.40
	h681.60
	M10.00 75.40
	h681.60
	M10.00 69.40
	h681.60
	M10.00 63.40
	h681.60
	" class="stroke"/>
<path d="m10.00 145.40
	h681.60
	M10.00 139.40
	h681.60
	M10.00 133.40
	h681.60
	M10.00 127.40
	h681.60
	M10.00 121.40
	h681.60
	" class="stroke"/>
</g>
<g stroke-width="0.70" style="font:bold 13.00px Times">
<text x="78.50" y="56.80">vi<tspan
	 style="font:italic 11.00px Times">m⁷</tspan></text>
</g>
<g stroke-width="0.70" style="font:bold 13.00px Times">
<text x="194.50" y="50.80">V<tspan
	 style="font:italic 11.00px Times">⁷</tspan></text>
</g>
<g stroke-width="0.70" style="font:bold 13.00px Times">
<text x="264.20" y="50.80">vi<tspan
	 style="font:italic 11.00px Times">m⁷²</tspan></text>
</g>
<g stroke-width="0.70" style="font:bold 13.00px Times">
<text x="368.80" y="47.80">V<tspan
	 style="font:italic 11.00px Times">⁷</tspan></text>
</g>
<g stroke-width="0.70" style="font:bold 13.00px Times">
<text x="469.90" y="58.80">IV<tspan
	 style="font:italic 11.00px Times">Δ⁷</tspan></text>
</g>
<g stroke-width="0.70" style="font:bold 13.00px Times">
<text x="581.10" y="50.80">vi<tspan
	 style="font:italic 11.00px Times">m⁷</tspan></text>
</g>
<g stroke-width="0.70" style="font:italic 11.00px Times">
<defs>
<path id="utclef" class="fill" d="m-50 -90
	c-72 -41 -72 -158 52 -188
	150 -10 220 188 90 256
	-114 52 -275 0 -293 -136
	-15 -181 93 -229 220 -334
	88 -87 79 -133 62 -210
	-51 33 -94 105 -89 186
	17 267 36 374 49 574
	6 96 -19 134 -77 135
	-80 1 -126 -93 -61 -133
	85 -41 133 101 31 105
	23 17 92 37 90 -92
	-10 -223 -39 -342 -50 -617
	0 -90 0 -162 96 -232
	56 72 63 230 22 289
	-74 106 -257 168 -255 316
	9 153 148 185 252 133
	86 -65 29 -192 -80 -176
	-71 12 -105 67 -59 124"/>
<use id="tclef" transform="translate(0,6) scale(0.045)"
	xlink:href="#utclef"/>
</defs>
<use x="22.00" y="81.40" xlink:href="#tclef"/>
<defs>
<path id="uflat" class="fill" d="
	m100 -746
	h32
	v734
	l-32 4
	m32 -332
	c46 -72 152 -90 208 -20
	100 110 -120 326 -208 348
	m0 -28
	c54 0 200 -206 130 -290
	-50 -60 -130 -4 -130 34"/>
<use id="ft0" transform="translate(-3.5,3.5) scale(0.018)"
	xlink:href="#uflat"/>
</defs>
<use x="37.00" y="75.40" xlink:href="#ft0"/>
<g style="font:bold 16px serif"
	transform="translate(53.00,86.90) scale(1.2,1)">
	<text text-anchor="middle">4</text>
	<text y="-12" text-anchor="middle">4</text>
</g>
<defs>
<ellipse id="hd" rx="4.1" ry="2.9"
	transform="rotate(-20)" class="fill"/>
</defs>
<use x="86.50" y="84.40" xlink:href="#hd"/>
<path d="M90.00 84.40v-21.00" class="stroke"/>
<use x="107.70" y="72.40" xlink:href="#hd"/>
<path d="M104.20 72.40v21.00" class="stroke"/>
<use x="126.40" y="78.40" xlink:href="#hd"/>
<path d="M129.90 78.40v-21.00" class="stroke"/>
<path class="fill"
	d="M129.90 57.40c0.6 5.6 9.6 9 5.6 18.4
	1.6 -6 -1.3 -11.6 -5.6 -12.8
"/>
<use x="142.80" y="81.40" xlink:href="#hd"/>
<path d="M146.30 81.40v-21.00" class="stroke"/>
<path class="fill"
	d="M146.30 60.40c0.6 5.6 9.6 9 5.6 18.4
	1.6 -6 -1.3 -11.6 -5.6 -12.8
"/>
<use x="159.30" y="84.40" xlink:href="#hd"/>
<path d="M162.80 84.40v-21.00" class="stroke"/>
<use x="200.40" y="81.40" xlink:href="#hd"/>
<path d="M203.90 81.40v-21.00" class="stroke"/>
<defs>
<path id="Hd" class="fill" d="m3 -1.6
	c-1 -1.8 -7 1.4 -6 3.2
	1 1.8 7 -1.4 6 -3.2
	m0.5 -0.3
	c2 3.8 -5 7.6 -7 3.8
	-2 -3.8 5 -7.6 7 -3.8"/>
</defs>
<use x="221.00" y="78.40" xlink:href="#Hd"/>
<circle class="fill" cx="229.70" cy="78.40" r="1.2"/>
<path d="M224.50 78.40v-21.00" class="stroke"/>
<use x="272.20" y="78.40" xlink:href="#hd"/>
<path d="M275.70 78.40v-21.00" class="stroke"/>
<use x="292.60" y="78.40" xlink:href="#hd"/>
<path d="M296.10 78.40v-21.00" class="stroke"/>
<use x="313.10" y="84.40" xlink:href="#hd"/>
<path d="M316.60 84.40v-21.00" class="stroke"/>
<path class="fill"
	d="M316.60 63.40c0.6 5.6 9.6 9 5.6 18.4
	1.6 -6 -1.3 -11.6 -5.6 -12.8
"/>
<use x="329.60" y="81.40" xlink:href="#hd"/>
<path d="M333.10 81.40v-21.00" class="stroke"/>
<path class="fill"
	d="M333.10 60.40c0.6 5.6 9.6 9 5.6 18.4
	1.6 -6 -1.3 -11.6 -5.6 -12.8
"/>
<use x="346.10" y="78.40" xlink:href="#hd"/>
<path d="M349.60 78.40v-21.00" class="stroke"/>
<use x="374.70" y="75.40" xlink:href="#hd"/>
<path d="M378.20 75.40v-21.00" class="stroke"/>
<use x="395.80" y="72.40" xlink:href="#Hd"/>
<circle class="fill" cx="404.50" cy="72.40" r="1.2"/>
<path d="M392.30 72.40v21.00" class="stroke"/>
<use x="477.90" y="72.40" xlink:href="#hd"/>
<path d="M474.40 72.40v21.00" class="stroke"/>
<use x="498.30" y="69.40" xlink:href="#hd"/>
<path d="M494.80 69.40v21.00" class="stroke"/>
<use x="518.80" y="72.40" xlink:href="#hd"/>
<path d="M515.30 72.40v21.00" class="stroke"/>
<path class="fill"
	d="M515.30 93.40c0.6 -5.6 9.6 -9 5.6 -18.4
	1.6 6 -1.3 11.6 -5.6 12.8
"/>
<use x="534.00" y="75.40" xlink:href="#hd"/>
<path d="M530.50 75.40v21.00" class="stroke"/>
<path class="fill"
	d="M530.50 96.40c0.6 -5.6 9.6 -9 5.6 -18.4
	1.6 6 -1.3 11.6 -5.6 12.8
"/>
<use x="548.00" y="78.40" xlink:href="#hd"/>
<path d="M551.50 78.40v-21.00" class="stroke"/>
<use x="589.10" y="78.40" xlink:href="#hd"/>
<path d="M592.60 78.40v-21.00" class="stroke"/>
<use x="609.60" y="78.40" xlink:href="#hd"/>
<path d="M613.10 78.40v-21.00" class="stroke"/>
<path class="fill"
	d="M613.10 57.40c0.6 5.6 9.6 9 5.6 18.4
	1.6 -6 -1.3 -11.6 -5.6 -12.8
"/>
<use x="626.00" y="81.40" xlink:href="#hd"/>
<path d="M629.50 81.40v-21.00" class="stroke"/>
<path class="fill"
	d="M629.50 60.40c0.6 5.6 9.6 9 5.6 18.4
	1.6 -6 -1.3 -11.6 -5.6 -12.8
"/>
<use x="642.50" y="84.40" xlink:href="#hd"/>
<path d="M646.00 84.40v-21.00" class="stroke"/>
<path class="fill"
	d="M646.00 63.40c0.6 5.6 9.6 9 5.6 18.4
	1.6 -6 -1.3 -11.6 -5.6 -12.8
"/>
<use x="659.00" y="81.40" xlink:href="#hd"/>
<path d="M662.50 81.40v-21.00" class="stroke"/>
<path class="fill"
	d="M662.50 60.40c0.6 5.6 9.6 9 5.6 18.4
	1.6 -6 -1.3 -11.6 -5.6 -12.8
"/>
<use x="675.50" y="78.40" xlink:href="#hd"/>
<path d="M679.00 78.40v-21.00" class="stroke"/>
<defs>
<path id="ubclef" class="fill" d="m-200 -87
	c124 -35 222 -78 254 -236
	43 -228 -167 -246 -192 -103
	59 -80 157 22 92 78
	-62 47 -115 -22 -106 -88
	21 -141 270 -136 274 52
	-1 175 -106 264 -322 297
	m357 -250
	c0 -36 51 -34 51 0
	0 37 -51 36 -51 0
	m-2 -129
	c0 -36 51 -34 51 0
	0 38 -51 37 -51 0"/>
<use id="bclef" transform="translate(0,18) scale(0.045)"
	xlink:href="#ubclef"/>
</defs>
<use x="22.00" y="127.40" xlink:href="#bclef"/>
<use x="37.00" y="139.40" xlink:href="#ft0"/>
<g style="font:bold 16px serif"
	transform="translate(53.00,144.90) scale(1.2,1)">
	<text text-anchor="middle">4</text>
	<text y="-12" text-anchor="middle">4</text>
</g>
<defs>
<path id="hl1" class="stroke" d="m-7 0h14"/>
</defs>
<use x="87.50" y="151.40" xlink:href="#hl1"/>
<use x="87.50" y="115.40" xlink:href="#hl1"/>
<defs>
<path id="HD" class="fill" d="m-2.7 -1.4
	c1.5 -2.8 6.9 0 5.3 2.7
	-1.5 2.8 -6.9 0 -5.3 -2.7
	m8.3 1.4
	c0 -1.5 -2.2 -3 -5.6 -3
	-3.4 0 -5.6 1.5 -5.6 3
	0 1.5 2.2 3 5.6 3
	3.4 0 5.6 -1.5 5.6 -3"/>
</defs>
<use x="87.50" y="154.40" xlink:href="#HD"/>
<use x="87.50" y="133.40" xlink:href="#HD"/>
<use x="87.50" y="127.40" xlink:href="#HD"/>
<use x="87.50" y="121.40" xlink:href="#HD"/>
<use x="87.50" y="115.40" xlink:href="#HD"/>
<use x="201.40" y="151.40" xlink:href="#hl1"/>
<use x="201.40" y="157.40" xlink:href="#hl1"/>
<use x="201.40" y="157.40" xlink:href="#HD"/>
<use x="201.40" y="136.40" xlink:href="#HD"/>
<use x="201.40" y="130.40" xlink:href="#HD"/>
<use x="201.40" y="124.40" xlink:href="#HD"/>
<use x="201.40" y="118.40" xlink:href="#HD"/>
<use x="273.20" y="151.40" xlink:href="#hl1"/>
<use x="273.20" y="115.40" xlink:href="#hl1"/>
<use x="273.20" y="154.40" xlink:href="#HD"/>
<use x="273.20" y="133.40" xlink:href="#HD"/>
<use x="273.20" y="127.40" xlink:href="#HD"/>
<use x="273.20" y="121.40" xlink:href="#HD"/>
<use x="273.20" y="115.40" xlink:href="#HD"/>
<use x="374.70" y="136.40" xlink:href="#hd"/>
<path d="M378.20 136.40v-21.00" class="stroke"/>
<use x="395.80" y="130.40" xlink:href="#hd"/>
<path d="M392.30 130.40v21.00" class="stroke"/>
<use x="416.30" y="124.40" xlink:href="#hd"/>
<path d="M412.80 124.40v21.00" class="stroke"/>
<use x="436.80" y="118.40" xlink:href="#hd"/>
<path d="M433.30 118.40v21.00" class="stroke"/>
<use x="478.90" y="151.40" xlink:href="#hl1"/>
<use x="478.90" y="157.40" xlink:href="#hl1"/>
<use x="478.90" y="160.40" xlink:href="#HD"/>
<use x="478.90" y="139.40" xlink:href="#HD"/>
<use x="478.90" y="133.40" xlink:href="#HD"/>
<use x="478.90" y="127.40" xlink:href="#HD"/>
<use x="478.90" y="121.40" xlink:href="#HD"/>
<use x="590.10" y="151.40" xlink:href="#hl1"/>
<use x="590.10" y="115.40" xlink:href="#hl1"/>
<use x="590.10" y="154.40" xlink:href="#HD"/>
<use x="590.10" y="133.40" xlink:href="#HD"/>
<use x="590.10" y="127.40" xlink:href="#HD"/>
<use x="590.10" y="121.40" xlink:href="#HD"/>
<use x="590.10" y="115.40" xlink:href="#HD"/>
<defs>
<path id="ltr" class="fill"
    d="m0 -0.4c2 -1.5 3.4 -1.9 3.9 0.4
	c0.2 0.8 0.7 0.7 2.1 -0.4
	v0.8c-2 1.5 -3.4 1.9 -3.9 -0.4
	c-0.2 -0.8 -0.7 -0.7 -2.1 0.4z"/>
</defs>
<g transform="rotate(270)">
<use x="-157.40" y="74.00" xlink:href="#ltr"/>
<use x="-151.40" y="74.00" xlink:href="#ltr"/>
<use x="-145.40" y="74.00" xlink:href="#ltr"/>
<use x="-139.40" y="74.00" xlink:href="#ltr"/>
<use x="-133.40" y="74.00" xlink:href="#ltr"/>
<use x="-127.40" y="74.00" xlink:href="#ltr"/>
<use x="-121.40" y="74.00" xlink:href="#ltr"/>
<use x="-115.40" y="74.00" xlink:href="#ltr"/>
</g>
<g transform="rotate(270)">
<use x="-160.40" y="187.90" xlink:href="#ltr"/>
<use x="-154.40" y="187.90" xlink:href="#ltr"/>
<use x="-148.40" y="187.90" xlink:href="#ltr"/>
<use x="-142.40" y="187.90" xlink:href="#ltr"/>
<use x="-136.40" y="187.90" xlink:href="#ltr"/>
<use x="-130.40" y="187.90" xlink:href="#ltr"/>
<use x="-124.40" y="187.90" xlink:href="#ltr"/>
<use x="-118.40" y="187.90" xlink:href="#ltr"/>
</g>
<g transform="rotate(270)">
<use x="-157.40" y="259.70" xlink:href="#ltr"/>
<use x="-151.40" y="259.70" xlink:href="#ltr"/>
<use x="-145.40" y="259.70" xlink:href="#ltr"/>
<use x="-139.40" y="259.70" xlink:href="#ltr"/>
<use x="-133.40" y="259.70" xlink:href="#ltr"/>
<use x="-127.40" y="259.70" xlink:href="#ltr"/>
<use x="-121.40" y="259.70" xlink:href="#ltr"/>
<use x="-115.40" y="259.70" xlink:href="#ltr"/>
</g>
<g transform="rotate(270)">
<use x="-163.40" y="465.40" xlink:href="#ltr"/>
<use x="-157.40" y="465.40" xlink:href="#ltr"/>
<use x="-151.40" y="465.40" xlink:href="#ltr"/>
<use x="-145.40" y="465.40" xlink:href="#ltr"/>
<use x="-139.40" y="465.40" xlink:href="#ltr"/>
<use x="-133.40" y="465.40" xlink:href="#ltr"/>
<use x="-127.40" y="465.40" xlink:href="#ltr"/>
<use x="-121.40" y="465.40" xlink:href="#ltr"/>
</g>
<g transform="rotate(270)">
<use x="-157.40" y="576.60" xlink:href="#ltr"/>
<use x="-151.40" y="576.60" xlink:href="#ltr"/>
<use x="-145.40" y="576.60" xlink:href="#ltr"/>
<use x="-139.40" y="576.60" xlink:href="#ltr"/>
<use x="-133.40" y="576.60" xlink:href="#ltr"/>
<use x="-127.40" y="576.60" xlink:href="#ltr"/>
<use x="-121.40" y="576.60" xlink:href="#ltr"/>
<use x="-115.40" y="576.60" xlink:href="#ltr"/>
</g>
</g>
<g stroke-width="0.70" style="font:italic 11.00px Times">
<path class="stroke" stroke-width="1"
	d="M10.00 273.40v-82.00"/>
<g transform="translate(10.00,191.40) scale(1,0.82)">
	<use xlink:href="#brace"/>
</g>
<path class="stroke" stroke-width="1"
	d="M157.00 215.40v-24.00"/>
<path class="stroke" stroke-width="1"
	d="M157.00 273.40v-24.00"/>
<path class="stroke" stroke-width="1"
	d="M271.50 215.40v-24.00"/>
<path class="stroke" stroke-width="1"
	d="M271.50 273.40v-24.00"/>
<path class="stroke" stroke-width="1"
	d="M386.00 215.40v-24.00"/>
<path class="stroke" stroke-width="1"
	d="M386.00 273.40v-24.00"/>
<path class="stroke" stroke-width="1"
	d="M470.30 215.40v-24.00"/>
<path class="stroke" stroke-width="1"
	d="M470.30 273.40v-24.00"/>
<path class="stroke" stroke-width="1"
	d="M607.30 215.40v-24.00"/>
<path class="stroke" stroke-width="1"
	d="M607.30 273.40v-24.00"/>
<path class="stroke" stroke-width="1"
	d="M691.60 215.40v-24.00"/>
<path class="stroke" stroke-width="1"
	d="M691.60 273.40v-24.00"/>
<path d="m10.00 215.40
	h681.60
	M10.00 209.40
	h681.60
	M10.00 203.40
	h681.60
	M10.00 197.40
	h681.60
	M10.00 191.40
	h681.60
	" class="stroke"/>
<path d="m10.00 273.40
	h681.60
	M10.00 267.40
	h681.60
	M10.00 261.40
	h681.60
	M10.00 255.40
	h681.60
	M10.00 249.40
	h681.60
	" class="stroke"/>
</g>
<g stroke-width="0.70" style="font:bold 13.00px Times">
<text x="47.20" y="186.80">V<tspan
	 style="font:italic 11.00px Times">⁷¹</tspan></text>
</g>
<g stroke-width="0.70" style="font:bold 13.00px Times">
<text x="161.50" y="178.80">IV<tspan
	 style="font:italic 11.00px Times">Δ⁷</tspan></text>
</g>
<g stroke-width="0.70" style="font:bold 13.00px Times">
<text x="276.00" y="186.80">iii<tspan
	 style="font:italic 11.00px Times">m⁷</tspan></text>
</g>
<g stroke-width="0.70" style="font:bold 13.00px Times">
<text x="403.00" y="186.80">ii<tspan
	 style="font:italic 11.00px Times">m⁷</tspan></text>
</g>
<g stroke-width="0.70" style="font:bold 13.00px Times">
<text x="487.70" y="186.80">I<tspan
	 style="font:italic 11.00px Times">Δ⁷²</tspan></text>
</g>
<g stroke-width="0.70" style="font:bold 13.00px Times">
<text x="624.60" y="179.80">I<tspan
	 style="font:italic 11.00px Times">Δ⁷¹</tspan></text>
</g>
<g stroke-width="0.70" style="font:italic 11.00px Times">
<use x="22.00" y="209.40" xlink:href="#tclef"/>
<use x="37.00" y="203.40" xlink:href="#ft0"/>
<use x="55.00" y="218.40" xlink:href="#hd"/>
<path d="M58.50 218.40v-21.00" class="stroke"/>
<use x="82.60" y="209.40" xlink:href="#hd"/>
<path d="M86.10 209.40v-21.00" class="stroke"/>
<use x="109.90" y="206.40" xlink:href="#hd"/>
<path d="M113.40 206.40v-21.00" class="stroke"/>
<use x="137.20" y="203.40" xlink:href="#hd"/>
<path d="M140.70 203.40v-21.00" class="stroke"/>
<use x="169.50" y="206.40" xlink:href="#hd"/>
<path d="M173.00 206.40v-21.00" class="stroke"/>
<use x="196.80" y="209.40" xlink:href="#Hd"/>
<circle class="fill" cx="205.50" cy="206.40" r="1.2"/>
<path d="M200.30 209.40v-21.00" class="stroke"/>
<use x="284.00" y="200.40" xlink:href="#hd"/>
<path d="M280.50 200.40v21.00" class="stroke"/>
<use x="311.40" y="200.40" xlink:href="#Hd"/>
<circle class="fill" cx="320.10" cy="200.40" r="1.2"/>
<path d="M307.90 200.40v21.00" class="stroke"/>
<use x="411.00" y="200.40" xlink:href="#hd"/>
<path d="M407.50 200.40v21.00" class="stroke"/>
<use x="438.40" y="200.40" xlink:href="#Hd"/>
<circle class="fill" cx="447.10" cy="200.40" r="1.2"/>
<path d="M434.90 200.40v21.00" class="stroke"/>
<use x="495.30" y="200.40" xlink:href="#hd"/>
<path d="M491.80 200.40v21.00" class="stroke"/>
<use x="522.60" y="203.40" xlink:href="#hd"/>
<path d="M519.10 203.40v21.00" class="stroke"/>
<use x="547.30" y="206.40" xlink:href="#hd"/>
<path d="M550.80 206.40v-21.00" class="stroke"/>
<path class="fill"
	d="M550.80 185.40c0.6 5.6 9.6 9 5.6 18.4
	1.6 -6 -1.3 -11.6 -5.6 -12.8
"/>
<use x="567.40" y="209.40" xlink:href="#hd"/>
<path d="M570.90 209.40v-21.00" class="stroke"/>
<path class="fill"
	d="M570.90 188.40c0.6 5.6 9.6 9 5.6 18.4
	1.6 -6 -1.3 -11.6 -5.6 -12.8
"/>
<use x="587.50" y="206.40" xlink:href="#hd"/>
<path d="M591.00 206.40v-21.00" class="stroke"/>
<use x="632.30" y="188.40" xlink:href="#hd"/>
<path d="M628.80 188.40v40.00" class="stroke"/>
<use x="632.30" y="209.40" xlink:href="#hd"/>
<use x="659.60" y="191.40" xlink:href="#Hd"/>
<circle class="fill" cx="668.30" cy="188.40" r="1.2"/>
<path d="M656.10 191.40v40.00" class="stroke"/>
<use x="659.60" y="212.40" xlink:href="#Hd"/>
<circle class="fill" cx="668.30" cy="212.40" r="1.2"/>
<use x="22.00" y="255.40" xlink:href="#bclef"/>
<use x="37.00" y="267.40" xlink:href="#ft0"/>
<use x="55.00" y="264.40" xlink:href="#hd"/>
<path d="M58.50 264.40v-21.00" class="stroke"/>
<use x="82.60" y="258.40" xlink:href="#hd"/>
<path d="M79.10 258.40v21.00" class="stroke"/>
<use x="109.90" y="252.40" xlink:href="#hd"/>
<path d="M106.40 252.40v21.00" class="stroke"/>
<use x="137.20" y="246.40" xlink:href="#hd"/>
<path d="M133.70 246.40v21.00" class="stroke"/>
<use x="169.50" y="267.40" xlink:href="#hd"/>
<path d="M173.00 267.40v-21.00" class="stroke"/>
<use x="196.80" y="261.40" xlink:href="#hd"/>
<path d="M200.30 261.40v-21.00" class="stroke"/>
<use x="224.40" y="255.40" xlink:href="#hd"/>
<path d="M220.90 255.40v21.00" class="stroke"/>
<use x="251.70" y="249.40" xlink:href="#hd"/>
<path d="M248.20 249.40v21.00" class="stroke"/>
<use x="284.00" y="270.40" xlink:href="#hd"/>
<path d="M287.50 270.40v-21.00" class="stroke"/>
<use x="311.40" y="264.40" xlink:href="#hd"/>
<path d="M314.90 264.40v-21.00" class="stroke"/>
<use x="338.90" y="258.40" xlink:href="#hd"/>
<path d="M335.40 258.40v21.00" class="stroke"/>
<use x="366.20" y="252.40" xlink:href="#hd"/>
<path d="M362.70 252.40v21.00" class="stroke"/>
<use x="412.00" y="279.40" xlink:href="#hl1"/>
<use x="412.00" y="285.40" xlink:href="#hl1"/>
<use x="412.00" y="291.40" xlink:href="#hl1"/>
<use x="412.00" y="294.40" xlink:href="#HD"/>
<use x="412.00" y="273.40" xlink:href="#HD"/>
<use x="412.00" y="267.40" xlink:href="#HD"/>
<use x="412.00" y="261.40" xlink:href="#HD"/>
<use x="412.00" y="255.40" xlink:href="#HD"/>
<use x="496.30" y="279.40" xlink:href="#hl1"/>
<use x="496.30" y="285.40" xlink:href="#hl1"/>
<use x="496.30" y="291.40" xlink:href="#hl1"/>
<use x="496.30" y="297.40" xlink:href="#hl1"/>
<use x="496.30" y="297.40" xlink:href="#HD"/>
<use x="496.30" y="276.40" xlink:href="#HD"/>
<use x="496.30" y="270.40" xlink:href="#HD"/>
<use x="496.30" y="264.40" xlink:href="#HD"/>
<use x="496.30" y="258.40" xlink:href="#HD"/>
<use x="633.30" y="279.40" xlink:href="#hl1"/>
<use x="633.30" y="285.40" xlink:href="#hl1"/>
<use x="633.30" y="291.40" xlink:href="#hl1"/>
<use x="633.30" y="297.40" xlink:href="#hl1"/>
<use x="633.30" y="297.40" xlink:href="#HD"/>
<use x="633.30" y="276.40" xlink:href="#HD"/>
<use x="633.30" y="270.40" xlink:href="#HD"/>
<use x="633.30" y="264.40" xlink:href="#HD"/>
<use x="633.30" y="258.40" xlink:href="#HD"/>
<g transform="rotate(270)">
<use x="-297.40" y="398.50" xlink:href="#ltr"/>
<use x="-291.40" y="398.50" xlink:href="#ltr"/>
<use x="-285.40" y="398.50" xlink:href="#ltr"/>
<use x="-279.40" y="398.50" xlink:href="#ltr"/>
<use x="-273.40" y="398.50" xlink:href="#ltr"/>
<use x="-267.40" y="398.50" xlink:href="#ltr"/>
<use x="-261.40" y="398.50" xlink:href="#ltr"/>
<use x="-255.40" y="398.50" xlink:href="#ltr"/>
</g>
<g transform="rotate(270)">
<use x="-300.40" y="482.80" xlink:href="#ltr"/>
<use x="-294.40" y="482.80" xlink:href="#ltr"/>
<use x="-288.40" y="482.80" xlink:href="#ltr"/>
<use x="-282.40" y="482.80" xlink:href="#ltr"/>
<use x="-276.40" y="482.80" xlink:href="#ltr"/>
<use x="-270.40" y="482.80" xlink:href="#ltr"/>
<use x="-264.40" y="482.80" xlink:href="#ltr"/>
<use x="-258.40" y="482.80" xlink:href="#ltr"/>
</g>
<g transform="rotate(270)">
<use x="-300.40" y="619.80" xlink:href="#ltr"/>
<use x="-294.40" y="619.80" xlink:href="#ltr"/>
<use x="-288.40" y="619.80" xlink:href="#ltr"/>
<use x="-282.40" y="619.80" xlink:href="#ltr"/>
<use x="-276.40" y="619.80" xlink:href="#ltr"/>
<use x="-270.40" y="619.80" xlink:href="#ltr"/>
<use x="-264.40" y="619.80" xlink:href="#ltr"/>
<use x="-258.40" y="619.80" xlink:href="#ltr"/>
</g>
</g>
</svg>
