<?xml version="1.0" standalone="no"?>
<!DOCTYPE svg PUBLIC "-//W3C//DTD SVG 1.1//EN"
	"http://www.w3.org/Graphics/SVG/1.1/DTD/svg11.dtd">
<svg xmlns="http://www.w3.org/2000/svg" version="1.1"
	xmlns:xlink="http://www.w3.org/1999/xlink"
	color="black"
	width="701.60px" height="436.80px" viewBox="0 0 701.60 436.80" preserveAspectRatio="xMidYMid meet">
<style type="text/css">
.fill {fill: currentColor}
.stroke {stroke: currentColor; fill: none}
text{white-space: pre}
</style>
<title>/tmp/reharm_hymnal_L7/the_god_of_abraham_praise.abc (1) tune 1</title>
<!-- Creator: abcm2ps-8.14.11 -->
<!-- CreationDate: Apr 24, 2026 15:32 -->
<!-- CommandLine: /tmp/reharm_hymnal_L7/the_god_of_abraham_praise.abc -g -O /tmp/reharm_hymnal_L7/the_god_of_abraham_praise -->
<g stroke-width="0.70">
<!-- title: 234. The God of Abraham Praise -->
</g>
<g stroke-width="0.70" style="font:20.00px Times">
<text x="350.80" y="22.00" text-anchor="middle">234. The God of Abraham Praise</text>
</g>
<g stroke-width="0.70" style="font:20.00px Times">
<path class="stroke" stroke-width="1"
	d="M10.00 145.40v-82.00"/>
<defs>
<path id="brace" class="fill" d="m-2.5 101
	c-4.5 -4.6 -7.5 -12.2 -4.4 -26.8
	3.5 -14.3 3.2 -21.7 -2.1 -24.2
	7.4 2.4 7.3 14.2 3.5 29.5
	-2.7 9.5 -1.5 16.2 3 21.5
	M-2.5 1c-4.5 4.6 -7.5 12.2 -4.4 26.8
	c3.5 14.3 3.2 21.7 -2.1 24.2
	7.4 -2.4 7.3 -14.2 3.5 -29.5
	-2.7 -9.5 -1.5 -16.2 3 -21.5"/>
</defs>
<g transform="translate(10.00,63.40) scale(1,0.82)">
	<use xlink:href="#brace"/>
</g>
<path class="stroke" stroke-width="1"
	d="M190.50 87.40v-24.00"/>
<path class="stroke" stroke-width="1"
	d="M190.50 145.40v-24.00"/>
<path class="stroke" stroke-width="1"
	d="M291.00 87.40v-24.00"/>
<path class="stroke" stroke-width="1"
	d="M291.00 145.40v-24.00"/>
<path class="stroke" stroke-width="1"
	d="M404.00 87.40v-24.00"/>
<path class="stroke" stroke-width="1"
	d="M404.00 145.40v-24.00"/>
<path class="stroke" stroke-width="1"
	d="M480.80 87.40v-24.00"/>
<path class="stroke" stroke-width="1"
	d="M480.80 145.40v-24.00"/>
<path class="stroke" stroke-width="1"
	d="M581.30 87.40v-24.00"/>
<path class="stroke" stroke-width="1"
	d="M581.30 145.40v-24.00"/>
<path class="stroke" stroke-width="1"
	d="M691.60 87.40v-24.00"/>
<path class="stroke" stroke-width="1"
	d="M691.60 145.40v-24.00"/>
<path d="m10.00 87.40
	h681.60
	M10.00 81.40
	h681.60
	M10.00 75.40
	h681.60
	M10.00 69.40
	h681.60
	M10.00 63.40
	h681.60
	" class="stroke"/>
<path d="m10.00 145.40
	h681.60
	M10.00 139.40
	h681.60
	M10.00 133.40
	h681.60
	M10.00 127.40
	h681.60
	M10.00 121.40
	h681.60
	" class="stroke"/>
</g>
<g stroke-width="0.70" style="font:bold 13.00px Times">
<text x="95.00" y="56.80">vi<tspan
	 style="font:italic 11.00px Times">m⁷</tspan></text>
</g>
<g stroke-width="0.70" style="font:bold 13.00px Times">
<text x="197.10" y="47.80">V<tspan
	 style="font:italic 11.00px Times">⁷</tspan></text>
</g>
<g stroke-width="0.70" style="font:bold 13.00px Times">
<text x="308.00" y="47.80">IV<tspan
	 style="font:italic 11.00px Times">Δ⁷</tspan></text>
</g>
<g stroke-width="0.70" style="font:bold 13.00px Times">
<text x="421.00" y="57.80">vi<tspan
	 style="font:italic 11.00px Times">m⁷</tspan></text>
</g>
<g stroke-width="0.70" style="font:bold 13.00px Times">
<text x="485.40" y="50.80">V<tspan
	 style="font:italic 11.00px Times">⁷¹</tspan></text>
</g>
<g stroke-width="0.70" style="font:bold 13.00px Times">
<text x="598.30" y="57.80">IV<tspan
	 style="font:italic 11.00px Times">Δ⁷</tspan></text>
</g>
<g stroke-width="0.70" style="font:italic 11.00px Times">
<defs>
<path id="utclef" class="fill" d="m-50 -90
	c-72 -41 -72 -158 52 -188
	150 -10 220 188 90 256
	-114 52 -275 0 -293 -136
	-15 -181 93 -229 220 -334
	88 -87 79 -133 62 -210
	-51 33 -94 105 -89 186
	17 267 36 374 49 574
	6 96 -19 134 -77 135
	-80 1 -126 -93 -61 -133
	85 -41 133 101 31 105
	23 17 92 37 90 -92
	-10 -223 -39 -342 -50 -617
	0 -90 0 -162 96 -232
	56 72 63 230 22 289
	-74 106 -257 168 -255 316
	9 153 148 185 252 133
	86 -65 29 -192 -80 -176
	-71 12 -105 67 -59 124"/>
<use id="tclef" transform="translate(0,6) scale(0.045)"
	xlink:href="#utclef"/>
</defs>
<use x="22.00" y="81.40" xlink:href="#tclef"/>
<defs>
<path id="uflat" class="fill" d="
	m100 -746
	h32
	v734
	l-32 4
	m32 -332
	c46 -72 152 -90 208 -20
	100 110 -120 326 -208 348
	m0 -28
	c54 0 200 -206 130 -290
	-50 -60 -130 -4 -130 34"/>
<use id="ft0" transform="translate(-3.5,3.5) scale(0.018)"
	xlink:href="#uflat"/>
</defs>
<use x="37.00" y="75.40" xlink:href="#ft0"/>
<use x="42.50" y="66.40" xlink:href="#ft0"/>
<use x="48.00" y="78.40" xlink:href="#ft0"/>
<use x="53.50" y="69.40" xlink:href="#ft0"/>
<g style="font:bold 16px serif"
	transform="translate(69.50,86.90) scale(1.2,1)">
	<text text-anchor="middle">4</text>
	<text y="-12" text-anchor="middle">4</text>
</g>
<defs>
<path id="hl" class="stroke" d="m-6 0h12"/>
</defs>
<use x="103.00" y="93.40" xlink:href="#hl"/>
<defs>
<ellipse id="hd" rx="4.1" ry="2.9"
	transform="rotate(-20)" class="fill"/>
</defs>
<use x="103.00" y="93.40" xlink:href="#hd"/>
<path d="M106.50 93.40v-21.00" class="stroke"/>
<use x="126.30" y="84.40" xlink:href="#hd"/>
<path d="M129.80 84.40v-21.00" class="stroke"/>
<use x="149.60" y="81.40" xlink:href="#hd"/>
<path d="M153.10 81.40v-21.00" class="stroke"/>
<use x="173.00" y="78.40" xlink:href="#hd"/>
<path d="M176.50 78.40v-21.00" class="stroke"/>
<use x="203.00" y="75.40" xlink:href="#hd"/>
<path d="M206.50 75.40v-21.00" class="stroke"/>
<defs>
<path id="Hd" class="fill" d="m3 -1.6
	c-1 -1.8 -7 1.4 -6 3.2
	1 1.8 7 -1.4 6 -3.2
	m0.5 -0.3
	c2 3.8 -5 7.6 -7 3.8
	-2 -3.8 5 -7.6 7 -3.8"/>
</defs>
<use x="226.80" y="72.40" xlink:href="#Hd"/>
<circle class="fill" cx="235.50" cy="72.40" r="1.2"/>
<path d="M223.30 72.40v21.00" class="stroke"/>
<use x="316.00" y="78.40" xlink:href="#hd"/>
<path d="M319.50 78.40v-21.00" class="stroke"/>
<use x="339.30" y="75.40" xlink:href="#hd"/>
<path d="M342.80 75.40v-21.00" class="stroke"/>
<use x="363.10" y="72.40" xlink:href="#hd"/>
<path d="M359.60 72.40v21.00" class="stroke"/>
<use x="386.40" y="69.40" xlink:href="#hd"/>
<path d="M382.90 69.40v21.00" class="stroke"/>
<use x="429.00" y="66.40" xlink:href="#hd"/>
<path d="M425.50 66.40v21.00" class="stroke"/>
<use x="452.40" y="72.40" xlink:href="#Hd"/>
<circle class="fill" cx="461.10" cy="72.40" r="1.2"/>
<path d="M448.90 72.40v21.00" class="stroke"/>
<use x="493.30" y="81.40" xlink:href="#hd"/>
<path d="M496.80 81.40v-21.00" class="stroke"/>
<use x="516.60" y="78.40" xlink:href="#hd"/>
<path d="M520.10 78.40v-21.00" class="stroke"/>
<use x="539.90" y="75.40" xlink:href="#hd"/>
<path d="M543.40 75.40v-21.00" class="stroke"/>
<use x="563.70" y="72.40" xlink:href="#hd"/>
<path d="M560.20 72.40v21.00" class="stroke"/>
<use x="606.30" y="69.40" xlink:href="#hd"/>
<path d="M602.80 69.40v21.00" class="stroke"/>
<use x="629.60" y="66.40" xlink:href="#hd"/>
<path d="M626.10 66.40v21.00" class="stroke"/>
<use x="650.70" y="81.40" xlink:href="#hd"/>
<path d="M654.20 81.40v-21.00" class="stroke"/>
<use x="674.10" y="78.40" xlink:href="#hd"/>
<path d="M677.60 78.40v-21.00" class="stroke"/>
<defs>
<path id="ubclef" class="fill" d="m-200 -87
	c124 -35 222 -78 254 -236
	43 -228 -167 -246 -192 -103
	59 -80 157 22 92 78
	-62 47 -115 -22 -106 -88
	21 -141 270 -136 274 52
	-1 175 -106 264 -322 297
	m357 -250
	c0 -36 51 -34 51 0
	0 37 -51 36 -51 0
	m-2 -129
	c0 -36 51 -34 51 0
	0 38 -51 37 -51 0"/>
<use id="bclef" transform="translate(0,18) scale(0.045)"
	xlink:href="#ubclef"/>
</defs>
<use x="22.00" y="127.40" xlink:href="#bclef"/>
<use x="37.00" y="139.40" xlink:href="#ft0"/>
<use x="42.50" y="130.40" xlink:href="#ft0"/>
<use x="48.00" y="142.40" xlink:href="#ft0"/>
<use x="53.50" y="133.40" xlink:href="#ft0"/>
<g style="font:bold 16px serif"
	transform="translate(69.50,144.90) scale(1.2,1)">
	<text text-anchor="middle">4</text>
	<text y="-12" text-anchor="middle">4</text>
</g>
<defs>
<path id="hl1" class="stroke" d="m-7 0h14"/>
</defs>
<use x="104.00" y="115.40" xlink:href="#hl1"/>
<use x="104.00" y="109.40" xlink:href="#hl1"/>
<defs>
<path id="HD" class="fill" d="m-2.7 -1.4
	c1.5 -2.8 6.9 0 5.3 2.7
	-1.5 2.8 -6.9 0 -5.3 -2.7
	m8.3 1.4
	c0 -1.5 -2.2 -3 -5.6 -3
	-3.4 0 -5.6 1.5 -5.6 3
	0 1.5 2.2 3 5.6 3
	3.4 0 5.6 -1.5 5.6 -3"/>
</defs>
<use x="104.00" y="109.40" xlink:href="#HD"/>
<use x="104.00" y="148.40" xlink:href="#HD"/>
<use x="104.00" y="127.40" xlink:href="#HD"/>
<use x="104.00" y="121.40" xlink:href="#HD"/>
<use x="104.00" y="115.40" xlink:href="#HD"/>
<use x="203.00" y="130.40" xlink:href="#hd"/>
<path d="M199.50 130.40v21.00" class="stroke"/>
<use x="226.80" y="124.40" xlink:href="#hd"/>
<path d="M223.30 124.40v21.00" class="stroke"/>
<use x="250.10" y="118.40" xlink:href="#hd"/>
<path d="M246.60 118.40v21.00" class="stroke"/>
<use x="273.40" y="115.40" xlink:href="#hl"/>
<use x="273.40" y="112.40" xlink:href="#hd"/>
<path d="M269.90 112.40v21.00" class="stroke"/>
<use x="317.00" y="151.40" xlink:href="#hl1"/>
<use x="317.00" y="115.40" xlink:href="#hl1"/>
<use x="317.00" y="154.40" xlink:href="#HD"/>
<use x="317.00" y="133.40" xlink:href="#HD"/>
<use x="317.00" y="127.40" xlink:href="#HD"/>
<use x="317.00" y="121.40" xlink:href="#HD"/>
<use x="317.00" y="115.40" xlink:href="#HD"/>
<use x="430.00" y="115.40" xlink:href="#hl1"/>
<use x="430.00" y="109.40" xlink:href="#hl1"/>
<use x="430.00" y="109.40" xlink:href="#HD"/>
<use x="430.00" y="148.40" xlink:href="#HD"/>
<use x="430.00" y="127.40" xlink:href="#HD"/>
<use x="430.00" y="121.40" xlink:href="#HD"/>
<use x="430.00" y="115.40" xlink:href="#HD"/>
<use x="493.30" y="130.40" xlink:href="#hd"/>
<path d="M489.80 130.40v21.00" class="stroke"/>
<use x="516.60" y="124.40" xlink:href="#hd"/>
<path d="M513.10 124.40v21.00" class="stroke"/>
<use x="539.90" y="118.40" xlink:href="#hd"/>
<path d="M536.40 118.40v21.00" class="stroke"/>
<use x="563.70" y="115.40" xlink:href="#hl"/>
<use x="563.70" y="112.40" xlink:href="#hd"/>
<path d="M560.20 112.40v21.00" class="stroke"/>
<use x="607.30" y="151.40" xlink:href="#hl1"/>
<use x="607.30" y="115.40" xlink:href="#hl1"/>
<use x="607.30" y="154.40" xlink:href="#HD"/>
<use x="607.30" y="133.40" xlink:href="#HD"/>
<use x="607.30" y="127.40" xlink:href="#HD"/>
<use x="607.30" y="121.40" xlink:href="#HD"/>
<use x="607.30" y="115.40" xlink:href="#HD"/>
<defs>
<path id="ltr" class="fill"
    d="m0 -0.4c2 -1.5 3.4 -1.9 3.9 0.4
	c0.2 0.8 0.7 0.7 2.1 -0.4
	v0.8c-2 1.5 -3.4 1.9 -3.9 -0.4
	c-0.2 -0.8 -0.7 -0.7 -2.1 0.4z"/>
</defs>
<g transform="rotate(270)">
<use x="-151.40" y="90.50" xlink:href="#ltr"/>
<use x="-145.40" y="90.50" xlink:href="#ltr"/>
<use x="-139.40" y="90.50" xlink:href="#ltr"/>
<use x="-133.40" y="90.50" xlink:href="#ltr"/>
<use x="-127.40" y="90.50" xlink:href="#ltr"/>
<use x="-121.40" y="90.50" xlink:href="#ltr"/>
<use x="-115.40" y="90.50" xlink:href="#ltr"/>
<use x="-109.40" y="90.50" xlink:href="#ltr"/>
</g>
<g transform="rotate(270)">
<use x="-157.40" y="303.50" xlink:href="#ltr"/>
<use x="-151.40" y="303.50" xlink:href="#ltr"/>
<use x="-145.40" y="303.50" xlink:href="#ltr"/>
<use x="-139.40" y="303.50" xlink:href="#ltr"/>
<use x="-133.40" y="303.50" xlink:href="#ltr"/>
<use x="-127.40" y="303.50" xlink:href="#ltr"/>
<use x="-121.40" y="303.50" xlink:href="#ltr"/>
<use x="-115.40" y="303.50" xlink:href="#ltr"/>
</g>
<g transform="rotate(270)">
<use x="-151.40" y="416.50" xlink:href="#ltr"/>
<use x="-145.40" y="416.50" xlink:href="#ltr"/>
<use x="-139.40" y="416.50" xlink:href="#ltr"/>
<use x="-133.40" y="416.50" xlink:href="#ltr"/>
<use x="-127.40" y="416.50" xlink:href="#ltr"/>
<use x="-121.40" y="416.50" xlink:href="#ltr"/>
<use x="-115.40" y="416.50" xlink:href="#ltr"/>
<use x="-109.40" y="416.50" xlink:href="#ltr"/>
</g>
<g transform="rotate(270)">
<use x="-157.40" y="593.80" xlink:href="#ltr"/>
<use x="-151.40" y="593.80" xlink:href="#ltr"/>
<use x="-145.40" y="593.80" xlink:href="#ltr"/>
<use x="-139.40" y="593.80" xlink:href="#ltr"/>
<use x="-133.40" y="593.80" xlink:href="#ltr"/>
<use x="-127.40" y="593.80" xlink:href="#ltr"/>
<use x="-121.40" y="593.80" xlink:href="#ltr"/>
<use x="-115.40" y="593.80" xlink:href="#ltr"/>
</g>
</g>
<g stroke-width="0.70" style="font:italic 11.00px Times">
<path class="stroke" stroke-width="1"
	d="M10.00 275.40v-84.00"/>
<g transform="translate(10.00,191.40) scale(1,0.84)">
	<use xlink:href="#brace"/>
</g>
<path class="stroke" stroke-width="1"
	d="M202.50 215.40v-24.00"/>
<path class="stroke" stroke-width="1"
	d="M202.50 275.40v-24.00"/>
<path class="stroke" stroke-width="1"
	d="M293.80 215.40v-24.00"/>
<path class="stroke" stroke-width="1"
	d="M293.80 275.40v-24.00"/>
<path class="stroke" stroke-width="1"
	d="M413.50 215.40v-24.00"/>
<path class="stroke" stroke-width="1"
	d="M413.50 275.40v-24.00"/>
<path class="stroke" stroke-width="1"
	d="M532.90 215.40v-24.00"/>
<path class="stroke" stroke-width="1"
	d="M532.90 275.40v-24.00"/>
<path class="stroke" stroke-width="1"
	d="M691.60 215.40v-24.00"/>
<path class="stroke" stroke-width="1"
	d="M691.60 275.40v-24.00"/>
<path d="m10.00 215.40
	h681.60
	M10.00 209.40
	h681.60
	M10.00 203.40
	h681.60
	M10.00 197.40
	h681.60
	M10.00 191.40
	h681.60
	" class="stroke"/>
<path d="m10.00 275.40
	h681.60
	M10.00 269.40
	h681.60
	M10.00 263.40
	h681.60
	M10.00 257.40
	h681.60
	M10.00 251.40
	h681.60
	" class="stroke"/>
</g>
<g stroke-width="0.70" style="font:bold 13.00px Times">
<text x="79.00" y="186.80">ii<tspan
	 style="font:italic 11.00px Times">m⁷</tspan></text>
</g>
<g stroke-width="0.70" style="font:bold 13.00px Times">
<text x="209.80" y="178.80">I<tspan
	 style="font:italic 11.00px Times">Δ⁷</tspan></text>
</g>
<g stroke-width="0.70" style="font:bold 13.00px Times">
<text x="300.60" y="178.80">I<tspan
	 style="font:italic 11.00px Times">Δ⁷</tspan></text>
</g>
<g stroke-width="0.70" style="font:bold 13.00px Times">
<text x="418.00" y="184.80">IV<tspan
	 style="font:italic 11.00px Times">Δ⁷</tspan></text>
</g>
<g stroke-width="0.70" style="font:bold 13.00px Times">
<text x="537.70" y="178.80">I<tspan
	 style="font:italic 11.00px Times">Δ⁷¹</tspan></text>
</g>
<g stroke-width="0.70" style="font:italic 11.00px Times">
<use x="22.00" y="209.40" xlink:href="#tclef"/>
<use x="37.00" y="203.40" xlink:href="#ft0"/>
<use x="42.50" y="194.40" xlink:href="#ft0"/>
<use x="48.00" y="206.40" xlink:href="#ft0"/>
<use x="53.50" y="197.40" xlink:href="#ft0"/>
<use x="87.00" y="197.40" xlink:href="#hd"/>
<path d="M83.50 197.40v21.00" class="stroke"/>
<use x="115.80" y="200.40" xlink:href="#Hd"/>
<path d="M112.30 200.40v21.00" class="stroke"/>
<use x="156.20" y="203.40" xlink:href="#Hd"/>
<path d="M152.70 203.40v21.00" class="stroke"/>
<use x="215.50" y="206.40" xlink:href="#Hd"/>
<circle class="fill" cx="224.20" cy="206.40" r="1.2"/>
<path d="M219.00 206.40v-21.00" class="stroke"/>
<use x="306.30" y="206.40" xlink:href="#hd"/>
<path d="M309.80 206.40v-21.00" class="stroke"/>
<use x="335.20" y="200.40" xlink:href="#hd"/>
<path d="M331.70 200.40v21.00" class="stroke"/>
<use x="364.20" y="200.40" xlink:href="#hd"/>
<path d="M360.70 200.40v21.00" class="stroke"/>
<use x="392.90" y="200.40" xlink:href="#hd"/>
<path d="M389.40 200.40v21.00" class="stroke"/>
<use x="426.00" y="200.40" xlink:href="#hd"/>
<path d="M422.50 200.40v21.00" class="stroke"/>
<use x="454.80" y="203.40" xlink:href="#Hd"/>
<circle class="fill" cx="463.50" cy="200.40" r="1.2"/>
<path d="M451.30 203.40v21.00" class="stroke"/>
<use x="545.40" y="206.40" xlink:href="#hd"/>
<path d="M548.90 206.40v-21.00" class="stroke"/>
<path class="fill"
	d="M548.90 185.40c0.6 5.6 9.6 9 5.6 18.4
	1.6 -6 -1.3 -11.6 -5.6 -12.8
"/>
<use x="566.30" y="209.40" xlink:href="#hd"/>
<path d="M569.80 209.40v-21.00" class="stroke"/>
<path class="fill"
	d="M569.80 188.40c0.6 5.6 9.6 9 5.6 18.4
	1.6 -6 -1.3 -11.6 -5.6 -12.8
"/>
<use x="587.20" y="212.40" xlink:href="#hd"/>
<path d="M590.70 212.40v-21.00" class="stroke"/>
<path class="fill"
	d="M590.70 191.40c0.6 5.6 9.6 9 5.6 18.4
	1.6 -6 -1.3 -11.6 -5.6 -12.8
"/>
<use x="608.10" y="209.40" xlink:href="#hd"/>
<path d="M611.60 209.40v-21.00" class="stroke"/>
<path class="fill"
	d="M611.60 188.40c0.6 5.6 9.6 9 5.6 18.4
	1.6 -6 -1.3 -11.6 -5.6 -12.8
"/>
<use x="629.00" y="206.40" xlink:href="#hd"/>
<path d="M632.50 206.40v-21.00" class="stroke"/>
<path class="fill"
	d="M632.50 185.40c0.6 5.6 9.6 9 5.6 18.4
	1.6 -6 -1.3 -11.6 -5.6 -12.8
"/>
<use x="649.90" y="203.40" xlink:href="#hd"/>
<path d="M653.40 203.40v-21.00" class="stroke"/>
<path class="fill"
	d="M653.40 182.40c0.6 5.6 9.6 9 5.6 18.4
	1.6 -6 -1.3 -11.6 -5.6 -12.8
"/>
<use x="671.00" y="200.40" xlink:href="#hd"/>
<path d="M667.50 200.40v21.00" class="stroke"/>
<use x="22.00" y="257.40" xlink:href="#bclef"/>
<use x="37.00" y="269.40" xlink:href="#ft0"/>
<use x="42.50" y="260.40" xlink:href="#ft0"/>
<use x="48.00" y="272.40" xlink:href="#ft0"/>
<use x="53.50" y="263.40" xlink:href="#ft0"/>
<use x="88.00" y="281.40" xlink:href="#hl1"/>
<use x="88.00" y="287.40" xlink:href="#hl1"/>
<use x="88.00" y="290.40" xlink:href="#HD"/>
<use x="88.00" y="269.40" xlink:href="#HD"/>
<use x="88.00" y="263.40" xlink:href="#HD"/>
<use x="88.00" y="257.40" xlink:href="#HD"/>
<use x="88.00" y="251.40" xlink:href="#HD"/>
<use x="181.90" y="281.40" xlink:href="#hl"/>
<use x="181.90" y="287.40" xlink:href="#hl"/>
<use x="181.90" y="290.40" xlink:href="#hd"/>
<path d="M185.40 290.40v-58.00" class="stroke"/>
<use x="181.90" y="269.40" xlink:href="#hd"/>
<use x="181.90" y="263.40" xlink:href="#hd"/>
<use x="181.90" y="257.40" xlink:href="#hd"/>
<use x="181.90" y="251.40" xlink:href="#hd"/>
<use x="215.50" y="272.40" xlink:href="#hd"/>
<path d="M219.00 272.40v-21.00" class="stroke"/>
<use x="244.20" y="266.40" xlink:href="#hd"/>
<path d="M247.70 266.40v-21.00" class="stroke"/>
<use x="273.20" y="260.40" xlink:href="#hd"/>
<path d="M269.70 260.40v21.00" class="stroke"/>
<use x="306.30" y="272.40" xlink:href="#hd"/>
<path d="M309.80 272.40v-21.00" class="stroke"/>
<use x="335.20" y="266.40" xlink:href="#hd"/>
<path d="M338.70 266.40v-21.00" class="stroke"/>
<use x="364.20" y="260.40" xlink:href="#hd"/>
<path d="M360.70 260.40v21.00" class="stroke"/>
<use x="392.90" y="254.40" xlink:href="#hd"/>
<path d="M389.40 254.40v21.00" class="stroke"/>
<use x="426.00" y="263.40" xlink:href="#hd"/>
<path d="M422.50 263.40v21.00" class="stroke"/>
<use x="454.80" y="257.40" xlink:href="#hd"/>
<path d="M451.30 257.40v21.00" class="stroke"/>
<use x="483.60" y="251.40" xlink:href="#hd"/>
<path d="M480.10 251.40v21.00" class="stroke"/>
<use x="512.30" y="245.40" xlink:href="#hl"/>
<use x="512.30" y="245.40" xlink:href="#hd"/>
<path d="M508.80 245.40v21.00" class="stroke"/>
<use x="545.40" y="272.40" xlink:href="#hd"/>
<path d="M548.90 272.40v-21.00" class="stroke"/>
<use x="587.20" y="266.40" xlink:href="#hd"/>
<path d="M590.70 266.40v-21.00" class="stroke"/>
<use x="629.00" y="260.40" xlink:href="#hd"/>
<path d="M625.50 260.40v21.00" class="stroke"/>
<use x="671.00" y="254.40" xlink:href="#hd"/>
<path d="M667.50 254.40v21.00" class="stroke"/>
<path class="fill"
	d="M90.50 290.40c11.95 6.08 75.93 6.08 87.87 -0.00
	v0.29c-14.58 7.79 -73.29 7.79 -87.87 -0.29"/>
<path class="fill"
	d="M90.50 269.40c11.95 6.08 75.93 6.08 87.87 -0.00
	v0.29c-14.58 7.79 -73.29 7.79 -87.87 -0.29"/>
<path class="fill"
	d="M90.50 263.40c11.95 -6.08 75.93 -6.08 87.87 -0.00
	v-0.29c-14.58 -7.79 -73.29 -7.79 -87.87 0.29"/>
<path class="fill"
	d="M90.50 257.40c11.95 -6.08 75.93 -6.08 87.87 -0.00
	v-0.29c-14.58 -7.79 -73.29 -7.79 -87.87 0.29"/>
<path class="fill"
	d="M90.50 251.40c11.95 -6.08 75.93 -6.08 87.87 -0.00
	v-0.29c-14.58 -7.79 -73.29 -7.79 -87.87 0.29"/>
<g transform="rotate(270)">
<use x="-293.40" y="74.50" xlink:href="#ltr"/>
<use x="-287.40" y="74.50" xlink:href="#ltr"/>
<use x="-281.40" y="74.50" xlink:href="#ltr"/>
<use x="-275.40" y="74.50" xlink:href="#ltr"/>
<use x="-269.40" y="74.50" xlink:href="#ltr"/>
<use x="-263.40" y="74.50" xlink:href="#ltr"/>
<use x="-257.40" y="74.50" xlink:href="#ltr"/>
<use x="-251.40" y="74.50" xlink:href="#ltr"/>
</g>
<g transform="rotate(270)">
<use x="-293.40" y="171.90" xlink:href="#ltr"/>
<use x="-287.40" y="171.90" xlink:href="#ltr"/>
<use x="-281.40" y="171.90" xlink:href="#ltr"/>
<use x="-275.40" y="171.90" xlink:href="#ltr"/>
<use x="-269.40" y="171.90" xlink:href="#ltr"/>
<use x="-263.40" y="171.90" xlink:href="#ltr"/>
<use x="-257.40" y="171.90" xlink:href="#ltr"/>
<use x="-251.40" y="171.90" xlink:href="#ltr"/>
</g>
</g>
<g stroke-width="0.70" style="font:italic 11.00px Times">
<path class="stroke" stroke-width="1"
	d="M10.00 412.80v-86.00"/>
<g transform="translate(10.00,326.80) scale(1,0.86)">
	<use xlink:href="#brace"/>
</g>
<path class="stroke" stroke-width="1"
	d="M187.70 350.80v-24.00"/>
<path class="stroke" stroke-width="1"
	d="M187.70 412.80v-24.00"/>
<path class="stroke" stroke-width="1"
	d="M316.40 350.80v-24.00"/>
<path class="stroke" stroke-width="1"
	d="M316.40 412.80v-24.00"/>
<path class="stroke" stroke-width="1"
	d="M458.50 350.80v-24.00"/>
<path class="stroke" stroke-width="1"
	d="M458.50 412.80v-24.00"/>
<path class="stroke" stroke-width="1"
	d="M631.80 350.80v-24.00"/>
<path class="stroke" stroke-width="1"
	d="M631.80 412.80v-24.00"/>
<path class="stroke" stroke-width="1"
	d="M691.60 350.80v-24.00"/>
<path class="stroke" stroke-width="1"
	d="M691.60 412.80v-24.00"/>
<path d="m10.00 350.80
	h681.60
	M10.00 344.80
	h681.60
	M10.00 338.80
	h681.60
	M10.00 332.80
	h681.60
	M10.00 326.80
	h681.60
	" class="stroke"/>
<path d="m10.00 412.80
	h681.60
	M10.00 406.80
	h681.60
	M10.00 400.80
	h681.60
	M10.00 394.80
	h681.60
	M10.00 388.80
	h681.60
	" class="stroke"/>
</g>
<g stroke-width="0.70" style="font:bold 13.00px Times">
<text x="63.50" y="320.20">ii<tspan
	 style="font:italic 11.00px Times">m⁷</tspan></text>
</g>
<g stroke-width="0.70" style="font:bold 13.00px Times">
<text x="192.20" y="320.20">iii<tspan
	 style="font:italic 11.00px Times">m⁷</tspan></text>
</g>
<g stroke-width="0.70" style="font:bold 13.00px Times">
<text x="320.90" y="311.20">ii<tspan
	 style="font:italic 11.00px Times">m⁷</tspan></text>
</g>
<g stroke-width="0.70" style="font:bold 13.00px Times">
<text x="463.00" y="322.20">vi<tspan
	 style="font:italic 11.00px Times">m⁷²</tspan></text>
</g>
<g stroke-width="0.70" style="font:bold 13.00px Times">
<text x="647.80" y="318.20">vi<tspan
	 style="font:italic 11.00px Times">m⁷</tspan></text>
</g>
<g stroke-width="0.70" style="font:italic 11.00px Times">
<use x="22.00" y="344.80" xlink:href="#tclef"/>
<use x="37.00" y="338.80" xlink:href="#ft0"/>
<use x="42.50" y="329.80" xlink:href="#ft0"/>
<use x="48.00" y="341.80" xlink:href="#ft0"/>
<use x="53.50" y="332.80" xlink:href="#ft0"/>
<use x="71.50" y="347.80" xlink:href="#hd"/>
<path d="M75.00 347.80v-21.00" class="stroke"/>
<use x="102.80" y="347.80" xlink:href="#hd"/>
<path d="M106.30 347.80v-21.00" class="stroke"/>
<use x="134.20" y="350.80" xlink:href="#Hd"/>
<path d="M137.70 350.80v-21.00" class="stroke"/>
<use x="200.20" y="356.80" xlink:href="#hl"/>
<use x="200.20" y="356.80" xlink:href="#hd"/>
<path d="M203.70 356.80v-21.00" class="stroke"/>
<use x="231.60" y="347.80" xlink:href="#hd"/>
<path d="M235.10 347.80v-21.00" class="stroke"/>
<use x="262.90" y="344.80" xlink:href="#hd"/>
<path d="M266.40 344.80v-21.00" class="stroke"/>
<use x="294.20" y="341.80" xlink:href="#hd"/>
<path d="M297.70 341.80v-21.00" class="stroke"/>
<use x="328.90" y="338.80" xlink:href="#hd"/>
<path d="M332.40 338.80v-21.00" class="stroke"/>
<use x="360.30" y="335.80" xlink:href="#hd"/>
<path d="M356.80 335.80v21.00" class="stroke"/>
<use x="391.70" y="338.80" xlink:href="#hd"/>
<path d="M388.20 338.80v21.00" class="stroke"/>
<path class="fill"
	d="M388.20 359.80c0.6 -5.6 9.6 -9 5.6 -18.4
	1.6 6 -1.3 11.6 -5.6 12.8
"/>
<use x="414.00" y="335.80" xlink:href="#hd"/>
<path d="M410.50 335.80v21.00" class="stroke"/>
<path class="fill"
	d="M410.50 356.80c0.6 -5.6 9.6 -9 5.6 -18.4
	1.6 6 -1.3 11.6 -5.6 12.8
"/>
<use x="436.30" y="332.80" xlink:href="#hd"/>
<path d="M432.80 332.80v21.00" class="stroke"/>
<use x="471.00" y="335.80" xlink:href="#hd"/>
<path d="M467.50 335.80v21.00" class="stroke"/>
<path class="fill"
	d="M467.50 356.80c0.6 -5.6 9.6 -9 5.6 -18.4
	1.6 6 -1.3 11.6 -5.6 12.8
"/>
<use x="493.30" y="338.80" xlink:href="#hd"/>
<path d="M489.80 338.80v21.00" class="stroke"/>
<path class="fill"
	d="M489.80 359.80c0.6 -5.6 9.6 -9 5.6 -18.4
	1.6 6 -1.3 11.6 -5.6 12.8
"/>
<use x="515.50" y="341.80" xlink:href="#Hd"/>
<path d="M519.00 341.80v-21.00" class="stroke"/>
<use x="578.20" y="344.80" xlink:href="#Hd"/>
<path d="M581.70 344.80v-21.00" class="stroke"/>
<use x="655.80" y="326.80" xlink:href="#Hd"/>
<circle class="fill" cx="664.50" cy="323.80" r="1.2"/>
<path d="M652.30 326.80v40.00" class="stroke"/>
<use x="655.80" y="347.80" xlink:href="#Hd"/>
<circle class="fill" cx="664.50" cy="347.80" r="1.2"/>
<use x="22.00" y="394.80" xlink:href="#bclef"/>
<use x="37.00" y="406.80" xlink:href="#ft0"/>
<use x="42.50" y="397.80" xlink:href="#ft0"/>
<use x="48.00" y="409.80" xlink:href="#ft0"/>
<use x="53.50" y="400.80" xlink:href="#ft0"/>
<use x="71.50" y="406.80" xlink:href="#hd"/>
<path d="M75.00 406.80v-21.00" class="stroke"/>
<use x="102.80" y="400.80" xlink:href="#hd"/>
<path d="M106.30 400.80v-21.00" class="stroke"/>
<use x="134.20" y="394.80" xlink:href="#hd"/>
<path d="M130.70 394.80v21.00" class="stroke"/>
<use x="165.50" y="388.80" xlink:href="#hd"/>
<path d="M162.00 388.80v21.00" class="stroke"/>
<use x="200.20" y="403.80" xlink:href="#hd"/>
<path d="M203.70 403.80v-21.00" class="stroke"/>
<use x="231.60" y="397.80" xlink:href="#hd"/>
<path d="M228.10 397.80v21.00" class="stroke"/>
<use x="262.90" y="391.80" xlink:href="#hd"/>
<path d="M259.40 391.80v21.00" class="stroke"/>
<use x="294.20" y="385.80" xlink:href="#hd"/>
<path d="M290.70 385.80v21.00" class="stroke"/>
<use x="328.90" y="406.80" xlink:href="#hd"/>
<path d="M332.40 406.80v-21.00" class="stroke"/>
<use x="360.30" y="400.80" xlink:href="#hd"/>
<path d="M363.80 400.80v-21.00" class="stroke"/>
<use x="391.70" y="394.80" xlink:href="#hd"/>
<path d="M388.20 394.80v21.00" class="stroke"/>
<use x="436.30" y="388.80" xlink:href="#hd"/>
<path d="M432.80 388.80v21.00" class="stroke"/>
<use x="471.00" y="394.80" xlink:href="#hd"/>
<path d="M467.50 394.80v21.00" class="stroke"/>
<use x="515.50" y="388.80" xlink:href="#hd"/>
<path d="M512.00 388.80v21.00" class="stroke"/>
<use x="546.80" y="382.80" xlink:href="#hl"/>
<use x="546.80" y="382.80" xlink:href="#hd"/>
<path d="M543.30 382.80v21.00" class="stroke"/>
<use x="578.20" y="382.80" xlink:href="#hl"/>
<use x="578.20" y="376.80" xlink:href="#hl"/>
<use x="578.20" y="376.80" xlink:href="#hd"/>
<path d="M574.70 376.80v24.00" class="stroke"/>
<use x="609.50" y="382.80" xlink:href="#hl"/>
<use x="609.50" y="382.80" xlink:href="#hd"/>
<path d="M606.00 382.80v21.00" class="stroke"/>
<use x="655.80" y="382.80" xlink:href="#hl"/>
<use x="655.80" y="376.80" xlink:href="#hl"/>
<use x="655.80" y="376.80" xlink:href="#Hd"/>
<circle class="fill" cx="664.50" cy="373.80" r="1.2"/>
<path d="M652.30 376.80v56.00" class="stroke"/>
<use x="655.80" y="415.80" xlink:href="#Hd"/>
<circle class="fill" cx="664.50" cy="415.80" r="1.2"/>
<use x="655.80" y="394.80" xlink:href="#Hd"/>
<circle class="fill" cx="664.50" cy="391.80" r="1.2"/>
<use x="655.80" y="388.80" xlink:href="#Hd"/>
<circle class="fill" cx="664.50" cy="385.80" r="1.2"/>
<use x="655.80" y="382.80" xlink:href="#Hd"/>
<circle class="fill" cx="664.50" cy="379.80" r="1.2"/>
<g transform="rotate(270)">
<use x="-418.80" y="645.80" xlink:href="#ltr"/>
<use x="-412.80" y="645.80" xlink:href="#ltr"/>
<use x="-406.80" y="645.80" xlink:href="#ltr"/>
<use x="-400.80" y="645.80" xlink:href="#ltr"/>
<use x="-394.80" y="645.80" xlink:href="#ltr"/>
<use x="-388.80" y="645.80" xlink:href="#ltr"/>
<use x="-382.80" y="645.80" xlink:href="#ltr"/>
<use x="-376.80" y="645.80" xlink:href="#ltr"/>
</g>
</g>
</svg>
