<?xml version="1.0" standalone="no"?>
<!DOCTYPE svg PUBLIC "-//W3C//DTD SVG 1.1//EN"
	"http://www.w3.org/Graphics/SVG/1.1/DTD/svg11.dtd">
<svg xmlns="http://www.w3.org/2000/svg" version="1.1"
	xmlns:xlink="http://www.w3.org/1999/xlink"
	color="black"
	width="701.60px" height="750.40px" viewBox="0 0 701.60 750.40" preserveAspectRatio="xMidYMid meet">
<style type="text/css">
.fill {fill: currentColor}
.stroke {stroke: currentColor; fill: none}
text{white-space: pre}
</style>
<title>/tmp/reharm_hymnal_L7/the_comforter_has_come.abc (1) tune 1</title>
<!-- Creator: abcm2ps-8.14.11 -->
<!-- CreationDate: Apr 24, 2026 15:32 -->
<!-- CommandLine: /tmp/reharm_hymnal_L7/the_comforter_has_come.abc -g -O /tmp/reharm_hymnal_L7/the_comforter_has_come -->
<g stroke-width="0.70">
<!-- title: 230. The Comforter Has Come -->
</g>
<g stroke-width="0.70" style="font:20.00px Times">
<text x="350.80" y="22.00" text-anchor="middle">230. The Comforter Has Come</text>
</g>
<g stroke-width="0.70" style="font:20.00px Times">
<path class="stroke" stroke-width="1"
	d="M10.00 143.00v-82.00"/>
<defs>
<path id="brace" class="fill" d="m-2.5 101
	c-4.5 -4.6 -7.5 -12.2 -4.4 -26.8
	3.5 -14.3 3.2 -21.7 -2.1 -24.2
	7.4 2.4 7.3 14.2 3.5 29.5
	-2.7 9.5 -1.5 16.2 3 21.5
	M-2.5 1c-4.5 4.6 -7.5 12.2 -4.4 26.8
	c3.5 14.3 3.2 21.7 -2.1 24.2
	7.4 -2.4 7.3 -14.2 3.5 -29.5
	-2.7 -9.5 -1.5 -16.2 3 -21.5"/>
</defs>
<g transform="translate(10.00,61.00) scale(1,0.82)">
	<use xlink:href="#brace"/>
</g>
<path class="stroke" stroke-width="1"
	d="M155.90 85.00v-24.00"/>
<path class="stroke" stroke-width="1"
	d="M155.90 143.00v-24.00"/>
<path class="stroke" stroke-width="1"
	d="M265.30 85.00v-24.00"/>
<path class="stroke" stroke-width="1"
	d="M265.30 143.00v-24.00"/>
<path class="stroke" stroke-width="1"
	d="M376.40 85.00v-24.00"/>
<path class="stroke" stroke-width="1"
	d="M376.40 143.00v-24.00"/>
<path class="stroke" stroke-width="1"
	d="M485.70 85.00v-24.00"/>
<path class="stroke" stroke-width="1"
	d="M485.70 143.00v-24.00"/>
<path class="stroke" stroke-width="1"
	d="M592.50 85.00v-24.00"/>
<path class="stroke" stroke-width="1"
	d="M592.50 143.00v-24.00"/>
<path class="stroke" stroke-width="1"
	d="M691.60 85.00v-24.00"/>
<path class="stroke" stroke-width="1"
	d="M691.60 143.00v-24.00"/>
<path d="m10.00 85.00
	h681.60
	M10.00 79.00
	h681.60
	M10.00 73.00
	h681.60
	M10.00 67.00
	h681.60
	M10.00 61.00
	h681.60
	" class="stroke"/>
<path d="m10.00 143.00
	h681.60
	M10.00 137.00
	h681.60
	M10.00 131.00
	h681.60
	M10.00 125.00
	h681.60
	M10.00 119.00
	h681.60
	" class="stroke"/>
</g>
<g stroke-width="0.70" style="font:bold 13.00px Times">
<text x="65.00" y="51.40">vi<tspan
	 style="font:italic 11.00px Times">m⁷</tspan></text>
</g>
<g stroke-width="0.70" style="font:bold 13.00px Times">
<text x="162.50" y="51.40">V<tspan
	 style="font:italic 11.00px Times">⁷</tspan></text>
</g>
<g stroke-width="0.70" style="font:bold 13.00px Times">
<text x="269.80" y="54.40">IV<tspan
	 style="font:italic 11.00px Times">Δ⁷</tspan></text>
</g>
<g stroke-width="0.70" style="font:bold 13.00px Times">
<text x="380.90" y="48.40">iii<tspan
	 style="font:italic 11.00px Times">m⁷</tspan></text>
</g>
<g stroke-width="0.70" style="font:bold 13.00px Times">
<text x="501.70" y="48.40">ii<tspan
	 style="font:italic 11.00px Times">m⁷</tspan></text>
</g>
<g stroke-width="0.70" style="font:bold 13.00px Times">
<text x="608.50" y="51.40">vi<tspan
	 style="font:italic 11.00px Times">m⁷</tspan></text>
</g>
<g stroke-width="0.70" style="font:italic 11.00px Times">
<defs>
<path id="utclef" class="fill" d="m-50 -90
	c-72 -41 -72 -158 52 -188
	150 -10 220 188 90 256
	-114 52 -275 0 -293 -136
	-15 -181 93 -229 220 -334
	88 -87 79 -133 62 -210
	-51 33 -94 105 -89 186
	17 267 36 374 49 574
	6 96 -19 134 -77 135
	-80 1 -126 -93 -61 -133
	85 -41 133 101 31 105
	23 17 92 37 90 -92
	-10 -223 -39 -342 -50 -617
	0 -90 0 -162 96 -232
	56 72 63 230 22 289
	-74 106 -257 168 -255 316
	9 153 148 185 252 133
	86 -65 29 -192 -80 -176
	-71 12 -105 67 -59 124"/>
<use id="tclef" transform="translate(0,6) scale(0.045)"
	xlink:href="#utclef"/>
</defs>
<use x="22.00" y="79.00" xlink:href="#tclef"/>
<g style="font:bold 16px serif"
	transform="translate(40.50,84.50) scale(1.2,1)">
	<text text-anchor="middle">4</text>
	<text y="-12" text-anchor="middle">3</text>
</g>
<defs>
<ellipse id="hd" rx="4.1" ry="2.9"
	transform="rotate(-20)" class="fill"/>
</defs>
<use x="73.00" y="79.00" xlink:href="#hd"/>
<path d="M76.50 79.00v-21.00" class="stroke"/>
<use x="103.60" y="79.00" xlink:href="#hd"/>
<circle class="fill" cx="111.30" cy="76.00" r="1.2"/>
<path d="M107.10 79.00v-21.00" class="stroke"/>
<use x="138.90" y="76.00" xlink:href="#hd"/>
<path d="M142.40 76.00v-21.00" class="stroke"/>
<path class="fill"
	d="M142.40 55.00c0.6 5.6 9.6 9 5.6 18.4
	1.6 -6 -1.3 -11.6 -5.6 -12.8
"/>
<use x="168.40" y="79.00" xlink:href="#hd"/>
<path d="M171.90 79.00v-21.00" class="stroke"/>
<path class="fill"
	d="M171.90 58.00c0.6 5.6 9.6 9 5.6 18.4
	1.6 -6 -1.3 -11.6 -5.6 -12.8
"/>
<use x="190.60" y="85.00" xlink:href="#hd"/>
<path d="M194.10 85.00v-21.00" class="stroke"/>
<path class="fill"
	d="M194.10 64.00c0.6 5.6 9.6 9 5.6 18.4
	1.6 -6 -1.3 -11.6 -5.6 -12.8
"/>
<defs>
<path id="Hd" class="fill" d="m3 -1.6
	c-1 -1.8 -7 1.4 -6 3.2
	1 1.8 7 -1.4 6 -3.2
	m0.5 -0.3
	c2 3.8 -5 7.6 -7 3.8
	-2 -3.8 5 -7.6 7 -3.8"/>
</defs>
<use x="212.80" y="79.00" xlink:href="#Hd"/>
<path d="M216.30 79.00v-21.00" class="stroke"/>
<use x="277.80" y="70.00" xlink:href="#hd"/>
<path d="M274.30 70.00v21.00" class="stroke"/>
<use x="308.40" y="70.00" xlink:href="#hd"/>
<circle class="fill" cx="316.10" cy="70.00" r="1.2"/>
<path d="M304.90 70.00v21.00" class="stroke"/>
<use x="360.60" y="67.00" xlink:href="#hd"/>
<path d="M357.10 67.00v21.00" class="stroke"/>
<path class="fill"
	d="M357.10 88.00c0.6 -5.6 9.6 -9 5.6 -18.4
	1.6 6 -1.3 11.6 -5.6 12.8
"/>
<use x="388.90" y="70.00" xlink:href="#hd"/>
<path d="M385.40 70.00v21.00" class="stroke"/>
<path class="fill"
	d="M385.40 91.00c0.6 -5.6 9.6 -9 5.6 -18.4
	1.6 6 -1.3 11.6 -5.6 12.8
"/>
<use x="410.80" y="76.00" xlink:href="#hd"/>
<path d="M414.30 76.00v-21.00" class="stroke"/>
<path class="fill"
	d="M414.30 55.00c0.6 5.6 9.6 9 5.6 18.4
	1.6 -6 -1.3 -11.6 -5.6 -12.8
"/>
<use x="433.20" y="70.00" xlink:href="#Hd"/>
<path d="M429.70 70.00v21.00" class="stroke"/>
<use x="509.70" y="76.00" xlink:href="#hd"/>
<path d="M513.20 76.00v-21.00" class="stroke"/>
<use x="540.20" y="79.00" xlink:href="#hd"/>
<circle class="fill" cx="547.90" cy="76.00" r="1.2"/>
<path d="M543.70 79.00v-21.00" class="stroke"/>
<use x="575.50" y="76.00" xlink:href="#hd"/>
<path d="M579.00 76.00v-21.00" class="stroke"/>
<path class="fill"
	d="M579.00 55.00c0.6 5.6 9.6 9 5.6 18.4
	1.6 -6 -1.3 -11.6 -5.6 -12.8
"/>
<use x="616.50" y="79.00" xlink:href="#hd"/>
<path d="M620.00 79.00v-21.00" class="stroke"/>
<path class="fill"
	d="M620.00 58.00c0.6 5.6 9.6 9 5.6 18.4
	1.6 -6 -1.3 -11.6 -5.6 -12.8
"/>
<use x="638.70" y="85.00" xlink:href="#hd"/>
<path d="M642.20 85.00v-21.00" class="stroke"/>
<path class="fill"
	d="M642.20 64.00c0.6 5.6 9.6 9 5.6 18.4
	1.6 -6 -1.3 -11.6 -5.6 -12.8
"/>
<use x="661.00" y="79.00" xlink:href="#Hd"/>
<path d="M664.50 79.00v-21.00" class="stroke"/>
<defs>
<path id="ubclef" class="fill" d="m-200 -87
	c124 -35 222 -78 254 -236
	43 -228 -167 -246 -192 -103
	59 -80 157 22 92 78
	-62 47 -115 -22 -106 -88
	21 -141 270 -136 274 52
	-1 175 -106 264 -322 297
	m357 -250
	c0 -36 51 -34 51 0
	0 37 -51 36 -51 0
	m-2 -129
	c0 -36 51 -34 51 0
	0 38 -51 37 -51 0"/>
<use id="bclef" transform="translate(0,18) scale(0.045)"
	xlink:href="#ubclef"/>
</defs>
<use x="22.00" y="125.00" xlink:href="#bclef"/>
<g style="font:bold 16px serif"
	transform="translate(40.50,142.50) scale(1.2,1)">
	<text text-anchor="middle">4</text>
	<text y="-12" text-anchor="middle">3</text>
</g>
<defs>
<path id="hl" class="stroke" d="m-6 0h12"/>
</defs>
<use x="73.00" y="149.00" xlink:href="#hl"/>
<use x="73.00" y="155.00" xlink:href="#hl"/>
<use x="73.00" y="161.00" xlink:href="#hl"/>
<use x="73.00" y="161.00" xlink:href="#Hd"/>
<circle class="fill" cx="82.70" cy="158.00" r="1.2"/>
<path d="M76.50 161.00v-58.00" class="stroke"/>
<use x="73.00" y="140.00" xlink:href="#Hd"/>
<circle class="fill" cx="82.70" cy="140.00" r="1.2"/>
<use x="73.00" y="134.00" xlink:href="#Hd"/>
<circle class="fill" cx="82.70" cy="134.00" r="1.2"/>
<use x="73.00" y="128.00" xlink:href="#Hd"/>
<circle class="fill" cx="82.70" cy="128.00" r="1.2"/>
<use x="73.00" y="122.00" xlink:href="#Hd"/>
<circle class="fill" cx="82.70" cy="122.00" r="1.2"/>
<use x="168.40" y="143.00" xlink:href="#hd"/>
<path d="M171.90 143.00v-21.00" class="stroke"/>
<use x="212.80" y="137.00" xlink:href="#hd"/>
<path d="M216.30 137.00v-21.00" class="stroke"/>
<use x="243.40" y="131.00" xlink:href="#hd"/>
<path d="M246.90 131.00v-21.00" class="stroke"/>
<use x="277.80" y="146.00" xlink:href="#hd"/>
<path d="M281.30 146.00v-21.00" class="stroke"/>
<use x="308.40" y="140.00" xlink:href="#hd"/>
<path d="M311.90 140.00v-21.00" class="stroke"/>
<use x="338.90" y="134.00" xlink:href="#hd"/>
<path d="M342.40 134.00v-21.00" class="stroke"/>
<use x="388.90" y="149.00" xlink:href="#hl"/>
<use x="388.90" y="149.00" xlink:href="#hd"/>
<path d="M392.40 149.00v-21.00" class="stroke"/>
<use x="433.20" y="143.00" xlink:href="#hd"/>
<path d="M436.70 143.00v-21.00" class="stroke"/>
<use x="463.70" y="137.00" xlink:href="#hd"/>
<path d="M467.20 137.00v-21.00" class="stroke"/>
<use x="509.70" y="149.00" xlink:href="#hl"/>
<use x="509.70" y="155.00" xlink:href="#hl"/>
<use x="509.70" y="161.00" xlink:href="#hl"/>
<use x="509.70" y="167.00" xlink:href="#hl"/>
<use x="509.70" y="173.00" xlink:href="#hl"/>
<use x="509.70" y="173.00" xlink:href="#Hd"/>
<circle class="fill" cx="518.40" cy="170.00" r="1.2"/>
<path d="M513.20 173.00v-58.00" class="stroke"/>
<use x="509.70" y="152.00" xlink:href="#Hd"/>
<circle class="fill" cx="518.40" cy="152.00" r="1.2"/>
<use x="509.70" y="146.00" xlink:href="#Hd"/>
<circle class="fill" cx="518.40" cy="146.00" r="1.2"/>
<use x="509.70" y="140.00" xlink:href="#Hd"/>
<circle class="fill" cx="518.40" cy="140.00" r="1.2"/>
<use x="509.70" y="134.00" xlink:href="#Hd"/>
<circle class="fill" cx="518.40" cy="134.00" r="1.2"/>
<use x="616.50" y="149.00" xlink:href="#hl"/>
<use x="616.50" y="155.00" xlink:href="#hl"/>
<use x="616.50" y="161.00" xlink:href="#hl"/>
<use x="616.50" y="161.00" xlink:href="#Hd"/>
<circle class="fill" cx="625.20" cy="158.00" r="1.2"/>
<path d="M620.00 161.00v-58.00" class="stroke"/>
<use x="616.50" y="140.00" xlink:href="#Hd"/>
<circle class="fill" cx="625.20" cy="140.00" r="1.2"/>
<use x="616.50" y="134.00" xlink:href="#Hd"/>
<circle class="fill" cx="625.20" cy="134.00" r="1.2"/>
<use x="616.50" y="128.00" xlink:href="#Hd"/>
<circle class="fill" cx="625.20" cy="128.00" r="1.2"/>
<use x="616.50" y="122.00" xlink:href="#Hd"/>
<circle class="fill" cx="625.20" cy="122.00" r="1.2"/>
<defs>
<path id="ltr" class="fill"
    d="m0 -0.4c2 -1.5 3.4 -1.9 3.9 0.4
	c0.2 0.8 0.7 0.7 2.1 -0.4
	v0.8c-2 1.5 -3.4 1.9 -3.9 -0.4
	c-0.2 -0.8 -0.7 -0.7 -2.1 0.4z"/>
</defs>
<g transform="rotate(270)">
<use x="-164.00" y="63.00" xlink:href="#ltr"/>
<use x="-158.00" y="63.00" xlink:href="#ltr"/>
<use x="-152.00" y="63.00" xlink:href="#ltr"/>
<use x="-146.00" y="63.00" xlink:href="#ltr"/>
<use x="-140.00" y="63.00" xlink:href="#ltr"/>
<use x="-134.00" y="63.00" xlink:href="#ltr"/>
<use x="-128.00" y="63.00" xlink:href="#ltr"/>
<use x="-122.00" y="63.00" xlink:href="#ltr"/>
</g>
<g transform="rotate(270)">
<use x="-176.00" y="499.70" xlink:href="#ltr"/>
<use x="-170.00" y="499.70" xlink:href="#ltr"/>
<use x="-164.00" y="499.70" xlink:href="#ltr"/>
<use x="-158.00" y="499.70" xlink:href="#ltr"/>
<use x="-152.00" y="499.70" xlink:href="#ltr"/>
<use x="-146.00" y="499.70" xlink:href="#ltr"/>
<use x="-140.00" y="499.70" xlink:href="#ltr"/>
<use x="-134.00" y="499.70" xlink:href="#ltr"/>
</g>
<g transform="rotate(270)">
<use x="-164.00" y="606.50" xlink:href="#ltr"/>
<use x="-158.00" y="606.50" xlink:href="#ltr"/>
<use x="-152.00" y="606.50" xlink:href="#ltr"/>
<use x="-146.00" y="606.50" xlink:href="#ltr"/>
<use x="-140.00" y="606.50" xlink:href="#ltr"/>
<use x="-134.00" y="606.50" xlink:href="#ltr"/>
<use x="-128.00" y="606.50" xlink:href="#ltr"/>
<use x="-122.00" y="606.50" xlink:href="#ltr"/>
</g>
</g>
<g stroke-width="0.70" style="font:italic 11.00px Times">
<path class="stroke" stroke-width="1"
	d="M10.00 284.00v-82.00"/>
<g transform="translate(10.00,202.00) scale(1,0.82)">
	<use xlink:href="#brace"/>
</g>
<path class="stroke" stroke-width="1"
	d="M148.10 226.00v-24.00"/>
<path class="stroke" stroke-width="1"
	d="M148.10 284.00v-24.00"/>
<path class="stroke" stroke-width="1"
	d="M259.20 226.00v-24.00"/>
<path class="stroke" stroke-width="1"
	d="M259.20 284.00v-24.00"/>
<path class="stroke" stroke-width="1"
	d="M367.30 226.00v-24.00"/>
<path class="stroke" stroke-width="1"
	d="M367.30 284.00v-24.00"/>
<path class="stroke" stroke-width="1"
	d="M467.60 226.00v-24.00"/>
<path class="stroke" stroke-width="1"
	d="M467.60 284.00v-24.00"/>
<path class="stroke" stroke-width="1"
	d="M580.70 226.00v-24.00"/>
<path class="stroke" stroke-width="1"
	d="M580.70 284.00v-24.00"/>
<path class="stroke" stroke-width="1"
	d="M691.60 226.00v-24.00"/>
<path class="stroke" stroke-width="1"
	d="M691.60 284.00v-24.00"/>
<path d="m10.00 226.00
	h681.60
	M10.00 220.00
	h681.60
	M10.00 214.00
	h681.60
	M10.00 208.00
	h681.60
	M10.00 202.00
	h681.60
	" class="stroke"/>
<path d="m10.00 284.00
	h681.60
	M10.00 278.00
	h681.60
	M10.00 272.00
	h681.60
	M10.00 266.00
	h681.60
	M10.00 260.00
	h681.60
	" class="stroke"/>
</g>
<g stroke-width="0.70" style="font:bold 13.00px Times">
<text x="40.60" y="197.40">V<tspan
	 style="font:italic 11.00px Times">⁷</tspan></text>
</g>
<g stroke-width="0.70" style="font:bold 13.00px Times">
<text x="152.60" y="195.40">IV<tspan
	 style="font:italic 11.00px Times">Δ⁷</tspan></text>
</g>
<g stroke-width="0.70" style="font:bold 13.00px Times">
<text x="275.20" y="192.40">iii<tspan
	 style="font:italic 11.00px Times">m⁷</tspan></text>
</g>
<g stroke-width="0.70" style="font:bold 13.00px Times">
<text x="383.30" y="192.40">vi<tspan
	 style="font:italic 11.00px Times">m⁷</tspan></text>
</g>
<g stroke-width="0.70" style="font:bold 13.00px Times">
<text x="472.30" y="195.40">V<tspan
	 style="font:italic 11.00px Times">⁷¹</tspan></text>
</g>
<g stroke-width="0.70" style="font:bold 13.00px Times">
<text x="585.20" y="189.40">IV<tspan
	 style="font:italic 11.00px Times">Δ⁷</tspan></text>
</g>
<g stroke-width="0.70" style="font:italic 11.00px Times">
<use x="22.00" y="220.00" xlink:href="#tclef"/>
<use x="46.50" y="226.00" xlink:href="#hd"/>
<path d="M50.00 226.00v-21.00" class="stroke"/>
<use x="77.70" y="226.00" xlink:href="#hd"/>
<circle class="fill" cx="85.40" cy="223.00" r="1.2"/>
<path d="M81.20 226.00v-21.00" class="stroke"/>
<use x="131.10" y="226.00" xlink:href="#hd"/>
<path d="M134.60 226.00v-21.00" class="stroke"/>
<path class="fill"
	d="M134.60 205.00c0.6 5.6 9.6 9 5.6 18.4
	1.6 -6 -1.3 -11.6 -5.6 -12.8
"/>
<use x="160.60" y="229.00" xlink:href="#hd"/>
<path d="M164.10 229.00v-21.00" class="stroke"/>
<path class="fill"
	d="M164.10 208.00c0.6 5.6 9.6 9 5.6 18.4
	1.6 -6 -1.3 -11.6 -5.6 -12.8
"/>
<use x="183.10" y="232.00" xlink:href="#hl"/>
<use x="183.10" y="232.00" xlink:href="#hd"/>
<path d="M186.60 232.00v-21.00" class="stroke"/>
<path class="fill"
	d="M186.60 211.00c0.6 5.6 9.6 9 5.6 18.4
	1.6 -6 -1.3 -11.6 -5.6 -12.8
"/>
<use x="205.70" y="229.00" xlink:href="#Hd"/>
<path d="M209.20 229.00v-21.00" class="stroke"/>
<use x="283.20" y="220.00" xlink:href="#hd"/>
<path d="M286.70 220.00v-21.00" class="stroke"/>
<use x="314.40" y="220.00" xlink:href="#hd"/>
<circle class="fill" cx="322.10" cy="217.00" r="1.2"/>
<path d="M317.90 220.00v-21.00" class="stroke"/>
<use x="350.30" y="217.00" xlink:href="#hd"/>
<path d="M353.80 217.00v-21.00" class="stroke"/>
<path class="fill"
	d="M353.80 196.00c0.6 5.6 9.6 9 5.6 18.4
	1.6 -6 -1.3 -11.6 -5.6 -12.8
"/>
<use x="391.30" y="220.00" xlink:href="#hd"/>
<path d="M394.80 220.00v-21.00" class="stroke"/>
<path class="fill"
	d="M394.80 199.00c0.6 5.6 9.6 9 5.6 18.4
	1.6 -6 -1.3 -11.6 -5.6 -12.8
"/>
<use x="413.90" y="226.00" xlink:href="#hd"/>
<path d="M417.40 226.00v-21.00" class="stroke"/>
<path class="fill"
	d="M417.40 205.00c0.6 5.6 9.6 9 5.6 18.4
	1.6 -6 -1.3 -11.6 -5.6 -12.8
"/>
<use x="436.40" y="220.00" xlink:href="#Hd"/>
<path d="M439.90 220.00v-21.00" class="stroke"/>
<use x="480.10" y="211.00" xlink:href="#hd"/>
<path d="M476.60 211.00v21.00" class="stroke"/>
<use x="511.30" y="211.00" xlink:href="#hd"/>
<circle class="fill" cx="519.00" cy="211.00" r="1.2"/>
<path d="M507.80 211.00v21.00" class="stroke"/>
<use x="564.70" y="208.00" xlink:href="#hd"/>
<path d="M561.20 208.00v21.00" class="stroke"/>
<path class="fill"
	d="M561.20 229.00c0.6 -5.6 9.6 -9 5.6 -18.4
	1.6 6 -1.3 11.6 -5.6 12.8
"/>
<use x="593.20" y="211.00" xlink:href="#hd"/>
<path d="M589.70 211.00v21.00" class="stroke"/>
<path class="fill"
	d="M589.70 232.00c0.6 -5.6 9.6 -9 5.6 -18.4
	1.6 6 -1.3 11.6 -5.6 12.8
"/>
<use x="615.40" y="217.00" xlink:href="#hd"/>
<path d="M618.90 217.00v-21.00" class="stroke"/>
<path class="fill"
	d="M618.90 196.00c0.6 5.6 9.6 9 5.6 18.4
	1.6 -6 -1.3 -11.6 -5.6 -12.8
"/>
<use x="638.10" y="211.00" xlink:href="#Hd"/>
<path d="M634.60 211.00v21.00" class="stroke"/>
<use x="22.00" y="266.00" xlink:href="#bclef"/>
<use x="46.50" y="284.00" xlink:href="#hd"/>
<path d="M50.00 284.00v-21.00" class="stroke"/>
<use x="77.70" y="278.00" xlink:href="#hd"/>
<path d="M81.20 278.00v-21.00" class="stroke"/>
<use x="109.00" y="272.00" xlink:href="#hd"/>
<path d="M112.50 272.00v-21.00" class="stroke"/>
<use x="160.60" y="287.00" xlink:href="#hd"/>
<path d="M164.10 287.00v-21.00" class="stroke"/>
<use x="205.70" y="281.00" xlink:href="#hd"/>
<path d="M209.20 281.00v-21.00" class="stroke"/>
<use x="236.90" y="275.00" xlink:href="#hd"/>
<path d="M240.40 275.00v-21.00" class="stroke"/>
<use x="283.20" y="290.00" xlink:href="#hl"/>
<use x="283.20" y="296.00" xlink:href="#hl"/>
<use x="283.20" y="302.00" xlink:href="#hl"/>
<use x="283.20" y="308.00" xlink:href="#hl"/>
<use x="283.20" y="311.00" xlink:href="#Hd"/>
<circle class="fill" cx="291.90" cy="311.00" r="1.2"/>
<path d="M286.70 311.00v-58.00" class="stroke"/>
<use x="283.20" y="290.00" xlink:href="#Hd"/>
<circle class="fill" cx="291.90" cy="287.00" r="1.2"/>
<use x="283.20" y="284.00" xlink:href="#Hd"/>
<circle class="fill" cx="291.90" cy="281.00" r="1.2"/>
<use x="283.20" y="278.00" xlink:href="#Hd"/>
<circle class="fill" cx="291.90" cy="275.00" r="1.2"/>
<use x="283.20" y="272.00" xlink:href="#Hd"/>
<circle class="fill" cx="291.90" cy="269.00" r="1.2"/>
<use x="391.30" y="290.00" xlink:href="#hl"/>
<use x="391.30" y="296.00" xlink:href="#hl"/>
<use x="391.30" y="302.00" xlink:href="#hl"/>
<use x="391.30" y="302.00" xlink:href="#Hd"/>
<circle class="fill" cx="400.00" cy="299.00" r="1.2"/>
<path d="M394.80 302.00v-58.00" class="stroke"/>
<use x="391.30" y="281.00" xlink:href="#Hd"/>
<circle class="fill" cx="400.00" cy="281.00" r="1.2"/>
<use x="391.30" y="275.00" xlink:href="#Hd"/>
<circle class="fill" cx="400.00" cy="275.00" r="1.2"/>
<use x="391.30" y="269.00" xlink:href="#Hd"/>
<circle class="fill" cx="400.00" cy="269.00" r="1.2"/>
<use x="391.30" y="263.00" xlink:href="#Hd"/>
<circle class="fill" cx="400.00" cy="263.00" r="1.2"/>
<use x="480.10" y="284.00" xlink:href="#hd"/>
<path d="M483.60 284.00v-21.00" class="stroke"/>
<use x="511.30" y="278.00" xlink:href="#hd"/>
<path d="M514.80 278.00v-21.00" class="stroke"/>
<use x="542.60" y="272.00" xlink:href="#hd"/>
<path d="M546.10 272.00v-21.00" class="stroke"/>
<use x="593.20" y="287.00" xlink:href="#hd"/>
<path d="M596.70 287.00v-21.00" class="stroke"/>
<use x="638.10" y="281.00" xlink:href="#hd"/>
<path d="M641.60 281.00v-21.00" class="stroke"/>
<use x="669.40" y="275.00" xlink:href="#hd"/>
<path d="M672.90 275.00v-21.00" class="stroke"/>
<g transform="rotate(270)">
<use x="-314.00" y="273.20" xlink:href="#ltr"/>
<use x="-308.00" y="273.20" xlink:href="#ltr"/>
<use x="-302.00" y="273.20" xlink:href="#ltr"/>
<use x="-296.00" y="273.20" xlink:href="#ltr"/>
<use x="-290.00" y="273.20" xlink:href="#ltr"/>
<use x="-284.00" y="273.20" xlink:href="#ltr"/>
<use x="-278.00" y="273.20" xlink:href="#ltr"/>
<use x="-272.00" y="273.20" xlink:href="#ltr"/>
</g>
<g transform="rotate(270)">
<use x="-305.00" y="381.30" xlink:href="#ltr"/>
<use x="-299.00" y="381.30" xlink:href="#ltr"/>
<use x="-293.00" y="381.30" xlink:href="#ltr"/>
<use x="-287.00" y="381.30" xlink:href="#ltr"/>
<use x="-281.00" y="381.30" xlink:href="#ltr"/>
<use x="-275.00" y="381.30" xlink:href="#ltr"/>
<use x="-269.00" y="381.30" xlink:href="#ltr"/>
<use x="-263.00" y="381.30" xlink:href="#ltr"/>
</g>
</g>
<g stroke-width="0.70" style="font:italic 11.00px Times">
<path class="stroke" stroke-width="1"
	d="M10.00 422.00v-82.00"/>
<g transform="translate(10.00,340.00) scale(1,0.82)">
	<use xlink:href="#brace"/>
</g>
<path class="stroke" stroke-width="1"
	d="M132.00 364.00v-24.00"/>
<path class="stroke" stroke-width="1"
	d="M132.00 422.00v-24.00"/>
<path class="stroke" stroke-width="1"
	d="M227.00 364.00v-24.00"/>
<path class="stroke" stroke-width="1"
	d="M227.00 422.00v-24.00"/>
<path class="stroke" stroke-width="1"
	d="M322.00 364.00v-24.00"/>
<path class="stroke" stroke-width="1"
	d="M322.00 422.00v-24.00"/>
<path class="stroke" stroke-width="1"
	d="M440.20 364.00v-24.00"/>
<path class="stroke" stroke-width="1"
	d="M440.20 422.00v-24.00"/>
<path class="stroke" stroke-width="1"
	d="M564.40 364.00v-24.00"/>
<path class="stroke" stroke-width="1"
	d="M564.40 422.00v-24.00"/>
<path class="stroke" stroke-width="1"
	d="M691.60 364.00v-24.00"/>
<path class="stroke" stroke-width="1"
	d="M691.60 422.00v-24.00"/>
<path d="m10.00 364.00
	h681.60
	M10.00 358.00
	h681.60
	M10.00 352.00
	h681.60
	M10.00 346.00
	h681.60
	M10.00 340.00
	h681.60
	" class="stroke"/>
<path d="m10.00 422.00
	h681.60
	M10.00 416.00
	h681.60
	M10.00 410.00
	h681.60
	M10.00 404.00
	h681.60
	M10.00 398.00
	h681.60
	" class="stroke"/>
</g>
<g stroke-width="0.70" style="font:bold 13.00px Times">
<text x="53.00" y="327.40">iii<tspan
	 style="font:italic 11.00px Times">m⁷</tspan></text>
</g>
<g stroke-width="0.70" style="font:bold 13.00px Times">
<text x="148.00" y="335.40">vi<tspan
	 style="font:italic 11.00px Times">m⁷²</tspan></text>
</g>
<g stroke-width="0.70" style="font:bold 13.00px Times">
<text x="245.10" y="335.40">V<tspan
	 style="font:italic 11.00px Times">⁷</tspan></text>
</g>
<g stroke-width="0.70" style="font:bold 13.00px Times">
<text x="338.00" y="335.40">vi<tspan
	 style="font:italic 11.00px Times">m⁷</tspan></text>
</g>
<g stroke-width="0.70" style="font:bold 13.00px Times">
<text x="447.20" y="333.40">V<tspan
	 style="font:italic 11.00px Times">⁷</tspan></text>
</g>
<g stroke-width="0.70" style="font:bold 13.00px Times">
<text x="569.30" y="335.40">IV<tspan
	 style="font:italic 11.00px Times">Δ⁷</tspan></text>
</g>
<g stroke-width="0.70" style="font:italic 11.00px Times">
<use x="22.00" y="358.00" xlink:href="#tclef"/>
<use x="61.00" y="355.00" xlink:href="#hd"/>
<path d="M64.50 355.00v-21.00" class="stroke"/>
<use x="96.60" y="358.00" xlink:href="#Hd"/>
<path d="M100.10 358.00v-21.00" class="stroke"/>
<use x="156.00" y="349.00" xlink:href="#hd"/>
<path d="M152.50 349.00v21.00" class="stroke"/>
<use x="191.60" y="343.00" xlink:href="#Hd"/>
<path d="M188.10 343.00v21.00" class="stroke"/>
<use x="251.00" y="346.00" xlink:href="#hd"/>
<path d="M247.50 346.00v21.00" class="stroke"/>
<use x="286.60" y="349.00" xlink:href="#Hd"/>
<path d="M283.10 349.00v21.00" class="stroke"/>
<use x="346.00" y="349.00" xlink:href="#hd"/>
<path d="M342.50 349.00v21.00" class="stroke"/>
<use x="381.60" y="343.00" xlink:href="#hd"/>
<circle class="fill" cx="389.30" cy="343.00" r="1.2"/>
<path d="M378.10 343.00v21.00" class="stroke"/>
<use x="422.40" y="346.00" xlink:href="#hd"/>
<path d="M418.90 346.00v21.00" class="stroke"/>
<path class="fill"
	d="M418.90 367.00c0.6 -5.6 9.6 -9 5.6 -18.4
	1.6 6 -1.3 11.6 -5.6 12.8
"/>
<use x="453.10" y="349.00" xlink:href="#hd"/>
<path d="M449.60 349.00v21.00" class="stroke"/>
<path class="fill"
	d="M449.60 370.00c0.6 -5.6 9.6 -9 5.6 -18.4
	1.6 6 -1.3 11.6 -5.6 12.8
"/>
<use x="478.40" y="346.00" xlink:href="#hd"/>
<path d="M474.90 346.00v21.00" class="stroke"/>
<path class="fill"
	d="M474.90 367.00c0.6 -5.6 9.6 -9 5.6 -18.4
	1.6 6 -1.3 11.6 -5.6 12.8
"/>
<use x="503.70" y="343.00" xlink:href="#Hd"/>
<path d="M500.20 343.00v21.00" class="stroke"/>
<use x="577.30" y="349.00" xlink:href="#hd"/>
<path d="M573.80 349.00v21.00" class="stroke"/>
<use x="612.90" y="349.00" xlink:href="#hd"/>
<circle class="fill" cx="620.60" cy="349.00" r="1.2"/>
<path d="M609.40 349.00v21.00" class="stroke"/>
<use x="673.70" y="346.00" xlink:href="#hd"/>
<path d="M670.20 346.00v21.00" class="stroke"/>
<path class="fill"
	d="M670.20 367.00c0.6 -5.6 9.6 -9 5.6 -18.4
	1.6 6 -1.3 11.6 -5.6 12.8
"/>
<use x="22.00" y="404.00" xlink:href="#bclef"/>
<use x="61.00" y="428.00" xlink:href="#hl"/>
<use x="61.00" y="434.00" xlink:href="#hl"/>
<use x="61.00" y="440.00" xlink:href="#hl"/>
<use x="61.00" y="446.00" xlink:href="#hl"/>
<use x="61.00" y="449.00" xlink:href="#Hd"/>
<circle class="fill" cx="70.70" cy="449.00" r="1.2"/>
<path d="M64.50 449.00v-58.00" class="stroke"/>
<use x="61.00" y="428.00" xlink:href="#Hd"/>
<circle class="fill" cx="70.70" cy="425.00" r="1.2"/>
<use x="61.00" y="422.00" xlink:href="#Hd"/>
<circle class="fill" cx="70.70" cy="419.00" r="1.2"/>
<use x="61.00" y="416.00" xlink:href="#Hd"/>
<circle class="fill" cx="70.70" cy="413.00" r="1.2"/>
<use x="61.00" y="410.00" xlink:href="#Hd"/>
<circle class="fill" cx="70.70" cy="407.00" r="1.2"/>
<use x="156.00" y="428.00" xlink:href="#hl"/>
<use x="156.00" y="434.00" xlink:href="#hl"/>
<use x="156.00" y="440.00" xlink:href="#hl"/>
<use x="156.00" y="440.00" xlink:href="#Hd"/>
<circle class="fill" cx="164.70" cy="437.00" r="1.2"/>
<path d="M159.50 440.00v-58.00" class="stroke"/>
<use x="156.00" y="419.00" xlink:href="#Hd"/>
<circle class="fill" cx="164.70" cy="419.00" r="1.2"/>
<use x="156.00" y="413.00" xlink:href="#Hd"/>
<circle class="fill" cx="164.70" cy="413.00" r="1.2"/>
<use x="156.00" y="407.00" xlink:href="#Hd"/>
<circle class="fill" cx="164.70" cy="407.00" r="1.2"/>
<use x="156.00" y="401.00" xlink:href="#Hd"/>
<circle class="fill" cx="164.70" cy="401.00" r="1.2"/>
<use x="251.00" y="428.00" xlink:href="#hl"/>
<use x="251.00" y="434.00" xlink:href="#hl"/>
<use x="251.00" y="440.00" xlink:href="#hl"/>
<use x="251.00" y="443.00" xlink:href="#Hd"/>
<circle class="fill" cx="259.70" cy="443.00" r="1.2"/>
<path d="M254.50 443.00v-58.00" class="stroke"/>
<use x="251.00" y="422.00" xlink:href="#Hd"/>
<circle class="fill" cx="259.70" cy="419.00" r="1.2"/>
<use x="251.00" y="416.00" xlink:href="#Hd"/>
<circle class="fill" cx="259.70" cy="413.00" r="1.2"/>
<use x="251.00" y="410.00" xlink:href="#Hd"/>
<circle class="fill" cx="259.70" cy="407.00" r="1.2"/>
<use x="251.00" y="404.00" xlink:href="#Hd"/>
<circle class="fill" cx="259.70" cy="401.00" r="1.2"/>
<use x="346.00" y="428.00" xlink:href="#hl"/>
<use x="346.00" y="434.00" xlink:href="#hl"/>
<use x="346.00" y="440.00" xlink:href="#hl"/>
<use x="346.00" y="440.00" xlink:href="#Hd"/>
<circle class="fill" cx="354.70" cy="437.00" r="1.2"/>
<path d="M349.50 440.00v-58.00" class="stroke"/>
<use x="346.00" y="419.00" xlink:href="#Hd"/>
<circle class="fill" cx="354.70" cy="419.00" r="1.2"/>
<use x="346.00" y="413.00" xlink:href="#Hd"/>
<circle class="fill" cx="354.70" cy="413.00" r="1.2"/>
<use x="346.00" y="407.00" xlink:href="#Hd"/>
<circle class="fill" cx="354.70" cy="407.00" r="1.2"/>
<use x="346.00" y="401.00" xlink:href="#Hd"/>
<circle class="fill" cx="354.70" cy="401.00" r="1.2"/>
<use x="453.10" y="422.00" xlink:href="#hd"/>
<path d="M456.60 422.00v-21.00" class="stroke"/>
<use x="503.70" y="416.00" xlink:href="#hd"/>
<path d="M507.20 416.00v-21.00" class="stroke"/>
<use x="539.30" y="410.00" xlink:href="#hd"/>
<path d="M542.80 410.00v-21.00" class="stroke"/>
<use x="577.30" y="425.00" xlink:href="#hd"/>
<path d="M580.80 425.00v-21.00" class="stroke"/>
<use x="612.90" y="419.00" xlink:href="#hd"/>
<path d="M616.40 419.00v-21.00" class="stroke"/>
<use x="648.50" y="413.00" xlink:href="#hd"/>
<path d="M652.00 413.00v-21.00" class="stroke"/>
<g transform="rotate(270)">
<use x="-452.00" y="51.00" xlink:href="#ltr"/>
<use x="-446.00" y="51.00" xlink:href="#ltr"/>
<use x="-440.00" y="51.00" xlink:href="#ltr"/>
<use x="-434.00" y="51.00" xlink:href="#ltr"/>
<use x="-428.00" y="51.00" xlink:href="#ltr"/>
<use x="-422.00" y="51.00" xlink:href="#ltr"/>
<use x="-416.00" y="51.00" xlink:href="#ltr"/>
<use x="-410.00" y="51.00" xlink:href="#ltr"/>
</g>
<g transform="rotate(270)">
<use x="-443.00" y="146.00" xlink:href="#ltr"/>
<use x="-437.00" y="146.00" xlink:href="#ltr"/>
<use x="-431.00" y="146.00" xlink:href="#ltr"/>
<use x="-425.00" y="146.00" xlink:href="#ltr"/>
<use x="-419.00" y="146.00" xlink:href="#ltr"/>
<use x="-413.00" y="146.00" xlink:href="#ltr"/>
<use x="-407.00" y="146.00" xlink:href="#ltr"/>
<use x="-401.00" y="146.00" xlink:href="#ltr"/>
</g>
<g transform="rotate(270)">
<use x="-446.00" y="241.00" xlink:href="#ltr"/>
<use x="-440.00" y="241.00" xlink:href="#ltr"/>
<use x="-434.00" y="241.00" xlink:href="#ltr"/>
<use x="-428.00" y="241.00" xlink:href="#ltr"/>
<use x="-422.00" y="241.00" xlink:href="#ltr"/>
<use x="-416.00" y="241.00" xlink:href="#ltr"/>
<use x="-410.00" y="241.00" xlink:href="#ltr"/>
<use x="-404.00" y="241.00" xlink:href="#ltr"/>
</g>
<g transform="rotate(270)">
<use x="-443.00" y="336.00" xlink:href="#ltr"/>
<use x="-437.00" y="336.00" xlink:href="#ltr"/>
<use x="-431.00" y="336.00" xlink:href="#ltr"/>
<use x="-425.00" y="336.00" xlink:href="#ltr"/>
<use x="-419.00" y="336.00" xlink:href="#ltr"/>
<use x="-413.00" y="336.00" xlink:href="#ltr"/>
<use x="-407.00" y="336.00" xlink:href="#ltr"/>
<use x="-401.00" y="336.00" xlink:href="#ltr"/>
</g>
</g>
<g stroke-width="0.70" style="font:italic 11.00px Times">
<path class="stroke" stroke-width="1"
	d="M10.00 560.00v-82.00"/>
<g transform="translate(10.00,478.00) scale(1,0.82)">
	<use xlink:href="#brace"/>
</g>
<path class="stroke" stroke-width="1"
	d="M145.90 502.00v-24.00"/>
<path class="stroke" stroke-width="1"
	d="M145.90 560.00v-24.00"/>
<path class="stroke" stroke-width="1"
	d="M254.70 502.00v-24.00"/>
<path class="stroke" stroke-width="1"
	d="M254.70 560.00v-24.00"/>
<path class="stroke" stroke-width="1"
	d="M355.80 502.00v-24.00"/>
<path class="stroke" stroke-width="1"
	d="M355.80 560.00v-24.00"/>
<path class="stroke" stroke-width="1"
	d="M470.70 502.00v-24.00"/>
<path class="stroke" stroke-width="1"
	d="M470.70 560.00v-24.00"/>
<path class="stroke" stroke-width="1"
	d="M582.80 502.00v-24.00"/>
<path class="stroke" stroke-width="1"
	d="M582.80 560.00v-24.00"/>
<path class="stroke" stroke-width="1"
	d="M691.60 502.00v-24.00"/>
<path class="stroke" stroke-width="1"
	d="M691.60 560.00v-24.00"/>
<path d="m10.00 502.00
	h681.60
	M10.00 496.00
	h681.60
	M10.00 490.00
	h681.60
	M10.00 484.00
	h681.60
	M10.00 478.00
	h681.60
	" class="stroke"/>
<path d="m10.00 560.00
	h681.60
	M10.00 554.00
	h681.60
	M10.00 548.00
	h681.60
	M10.00 542.00
	h681.60
	M10.00 536.00
	h681.60
	" class="stroke"/>
</g>
<g stroke-width="0.70" style="font:bold 13.00px Times">
<text x="38.50" y="465.40">iii<tspan
	 style="font:italic 11.00px Times">m⁷</tspan></text>
</g>
<g stroke-width="0.70" style="font:bold 13.00px Times">
<text x="161.90" y="465.40">ii<tspan
	 style="font:italic 11.00px Times">m⁷</tspan></text>
</g>
<g stroke-width="0.70" style="font:bold 13.00px Times">
<text x="270.70" y="468.40">vi<tspan
	 style="font:italic 11.00px Times">m⁷</tspan></text>
</g>
<g stroke-width="0.70" style="font:bold 13.00px Times">
<text x="362.40" y="471.40">V<tspan
	 style="font:italic 11.00px Times">⁷</tspan></text>
</g>
<g stroke-width="0.70" style="font:bold 13.00px Times">
<text x="475.20" y="471.40">IV<tspan
	 style="font:italic 11.00px Times">Δ⁷</tspan></text>
</g>
<g stroke-width="0.70" style="font:bold 13.00px Times">
<text x="598.80" y="468.40">iii<tspan
	 style="font:italic 11.00px Times">m⁷</tspan></text>
</g>
<g stroke-width="0.70" style="font:italic 11.00px Times">
<use x="22.00" y="496.00" xlink:href="#tclef"/>
<use x="46.50" y="487.00" xlink:href="#hd"/>
<path d="M43.00 487.00v21.00" class="stroke"/>
<path class="fill"
	d="M43.00 508.00c0.6 -5.6 9.6 -9 5.6 -18.4
	1.6 6 -1.3 11.6 -5.6 12.8
"/>
<use x="69.00" y="493.00" xlink:href="#hd"/>
<path d="M72.50 493.00v-21.00" class="stroke"/>
<path class="fill"
	d="M72.50 472.00c0.6 5.6 9.6 9 5.6 18.4
	1.6 -6 -1.3 -11.6 -5.6 -12.8
"/>
<use x="91.90" y="487.00" xlink:href="#Hd"/>
<path d="M88.40 487.00v21.00" class="stroke"/>
<use x="169.90" y="493.00" xlink:href="#hd"/>
<path d="M173.40 493.00v-21.00" class="stroke"/>
<use x="201.40" y="496.00" xlink:href="#hd"/>
<circle class="fill" cx="209.10" cy="493.00" r="1.2"/>
<path d="M204.90 496.00v-21.00" class="stroke"/>
<use x="237.70" y="493.00" xlink:href="#hd"/>
<path d="M241.20 493.00v-21.00" class="stroke"/>
<path class="fill"
	d="M241.20 472.00c0.6 5.6 9.6 9 5.6 18.4
	1.6 -6 -1.3 -11.6 -5.6 -12.8
"/>
<use x="278.70" y="496.00" xlink:href="#hd"/>
<path d="M282.20 496.00v-21.00" class="stroke"/>
<path class="fill"
	d="M282.20 475.00c0.6 5.6 9.6 9 5.6 18.4
	1.6 -6 -1.3 -11.6 -5.6 -12.8
"/>
<use x="301.50" y="502.00" xlink:href="#hd"/>
<path d="M305.00 502.00v-21.00" class="stroke"/>
<path class="fill"
	d="M305.00 481.00c0.6 5.6 9.6 9 5.6 18.4
	1.6 -6 -1.3 -11.6 -5.6 -12.8
"/>
<use x="324.30" y="496.00" xlink:href="#Hd"/>
<path d="M327.80 496.00v-21.00" class="stroke"/>
<use x="368.30" y="502.00" xlink:href="#hd"/>
<path d="M371.80 502.00v-21.00" class="stroke"/>
<use x="399.80" y="502.00" xlink:href="#hd"/>
<circle class="fill" cx="407.50" cy="499.00" r="1.2"/>
<path d="M403.30 502.00v-21.00" class="stroke"/>
<use x="453.70" y="502.00" xlink:href="#hd"/>
<path d="M457.20 502.00v-21.00" class="stroke"/>
<path class="fill"
	d="M457.20 481.00c0.6 5.6 9.6 9 5.6 18.4
	1.6 -6 -1.3 -11.6 -5.6 -12.8
"/>
<use x="483.20" y="505.00" xlink:href="#hd"/>
<path d="M486.70 505.00v-21.00" class="stroke"/>
<path class="fill"
	d="M486.70 484.00c0.6 5.6 9.6 9 5.6 18.4
	1.6 -6 -1.3 -11.6 -5.6 -12.8
"/>
<use x="506.00" y="508.00" xlink:href="#hl"/>
<use x="506.00" y="508.00" xlink:href="#hd"/>
<path d="M509.50 508.00v-21.00" class="stroke"/>
<path class="fill"
	d="M509.50 487.00c0.6 5.6 9.6 9 5.6 18.4
	1.6 -6 -1.3 -11.6 -5.6 -12.8
"/>
<use x="528.80" y="505.00" xlink:href="#Hd"/>
<path d="M532.30 505.00v-21.00" class="stroke"/>
<use x="606.80" y="496.00" xlink:href="#hd"/>
<path d="M610.30 496.00v-21.00" class="stroke"/>
<use x="638.30" y="496.00" xlink:href="#hd"/>
<circle class="fill" cx="646.00" cy="493.00" r="1.2"/>
<path d="M641.80 496.00v-21.00" class="stroke"/>
<use x="674.60" y="493.00" xlink:href="#hd"/>
<path d="M678.10 493.00v-21.00" class="stroke"/>
<path class="fill"
	d="M678.10 472.00c0.6 5.6 9.6 9 5.6 18.4
	1.6 -6 -1.3 -11.6 -5.6 -12.8
"/>
<use x="22.00" y="542.00" xlink:href="#bclef"/>
<use x="46.50" y="566.00" xlink:href="#hl"/>
<use x="46.50" y="566.00" xlink:href="#hd"/>
<path d="M50.00 566.00v-21.00" class="stroke"/>
<use x="91.90" y="560.00" xlink:href="#hd"/>
<path d="M95.40 560.00v-21.00" class="stroke"/>
<use x="123.40" y="554.00" xlink:href="#hd"/>
<path d="M126.90 554.00v-21.00" class="stroke"/>
<use x="169.90" y="566.00" xlink:href="#hl"/>
<use x="169.90" y="572.00" xlink:href="#hl"/>
<use x="169.90" y="578.00" xlink:href="#hl"/>
<use x="169.90" y="584.00" xlink:href="#hl"/>
<use x="169.90" y="590.00" xlink:href="#hl"/>
<use x="169.90" y="590.00" xlink:href="#Hd"/>
<circle class="fill" cx="178.60" cy="587.00" r="1.2"/>
<path d="M173.40 590.00v-58.00" class="stroke"/>
<use x="169.90" y="569.00" xlink:href="#Hd"/>
<circle class="fill" cx="178.60" cy="569.00" r="1.2"/>
<use x="169.90" y="563.00" xlink:href="#Hd"/>
<circle class="fill" cx="178.60" cy="563.00" r="1.2"/>
<use x="169.90" y="557.00" xlink:href="#Hd"/>
<circle class="fill" cx="178.60" cy="557.00" r="1.2"/>
<use x="169.90" y="551.00" xlink:href="#Hd"/>
<circle class="fill" cx="178.60" cy="551.00" r="1.2"/>
<use x="278.70" y="566.00" xlink:href="#hl"/>
<use x="278.70" y="572.00" xlink:href="#hl"/>
<use x="278.70" y="578.00" xlink:href="#hl"/>
<use x="278.70" y="578.00" xlink:href="#Hd"/>
<circle class="fill" cx="287.40" cy="575.00" r="1.2"/>
<path d="M282.20 578.00v-58.00" class="stroke"/>
<use x="278.70" y="557.00" xlink:href="#Hd"/>
<circle class="fill" cx="287.40" cy="557.00" r="1.2"/>
<use x="278.70" y="551.00" xlink:href="#Hd"/>
<circle class="fill" cx="287.40" cy="551.00" r="1.2"/>
<use x="278.70" y="545.00" xlink:href="#Hd"/>
<circle class="fill" cx="287.40" cy="545.00" r="1.2"/>
<use x="278.70" y="539.00" xlink:href="#Hd"/>
<circle class="fill" cx="287.40" cy="539.00" r="1.2"/>
<use x="368.30" y="560.00" xlink:href="#hd"/>
<path d="M371.80 560.00v-21.00" class="stroke"/>
<use x="399.80" y="554.00" xlink:href="#hd"/>
<path d="M403.30 554.00v-21.00" class="stroke"/>
<use x="431.30" y="548.00" xlink:href="#hd"/>
<path d="M434.80 548.00v-21.00" class="stroke"/>
<use x="483.20" y="563.00" xlink:href="#hd"/>
<path d="M486.70 563.00v-21.00" class="stroke"/>
<use x="528.80" y="557.00" xlink:href="#hd"/>
<path d="M532.30 557.00v-21.00" class="stroke"/>
<use x="560.30" y="551.00" xlink:href="#hd"/>
<path d="M563.80 551.00v-21.00" class="stroke"/>
<use x="606.80" y="566.00" xlink:href="#hl"/>
<use x="606.80" y="572.00" xlink:href="#hl"/>
<use x="606.80" y="578.00" xlink:href="#hl"/>
<use x="606.80" y="584.00" xlink:href="#hl"/>
<use x="606.80" y="587.00" xlink:href="#Hd"/>
<circle class="fill" cx="615.50" cy="587.00" r="1.2"/>
<path d="M610.30 587.00v-58.00" class="stroke"/>
<use x="606.80" y="566.00" xlink:href="#Hd"/>
<circle class="fill" cx="615.50" cy="563.00" r="1.2"/>
<use x="606.80" y="560.00" xlink:href="#Hd"/>
<circle class="fill" cx="615.50" cy="557.00" r="1.2"/>
<use x="606.80" y="554.00" xlink:href="#Hd"/>
<circle class="fill" cx="615.50" cy="551.00" r="1.2"/>
<use x="606.80" y="548.00" xlink:href="#Hd"/>
<circle class="fill" cx="615.50" cy="545.00" r="1.2"/>
<g transform="rotate(270)">
<use x="-593.00" y="159.90" xlink:href="#ltr"/>
<use x="-587.00" y="159.90" xlink:href="#ltr"/>
<use x="-581.00" y="159.90" xlink:href="#ltr"/>
<use x="-575.00" y="159.90" xlink:href="#ltr"/>
<use x="-569.00" y="159.90" xlink:href="#ltr"/>
<use x="-563.00" y="159.90" xlink:href="#ltr"/>
<use x="-557.00" y="159.90" xlink:href="#ltr"/>
<use x="-551.00" y="159.90" xlink:href="#ltr"/>
</g>
<g transform="rotate(270)">
<use x="-581.00" y="268.70" xlink:href="#ltr"/>
<use x="-575.00" y="268.70" xlink:href="#ltr"/>
<use x="-569.00" y="268.70" xlink:href="#ltr"/>
<use x="-563.00" y="268.70" xlink:href="#ltr"/>
<use x="-557.00" y="268.70" xlink:href="#ltr"/>
<use x="-551.00" y="268.70" xlink:href="#ltr"/>
<use x="-545.00" y="268.70" xlink:href="#ltr"/>
<use x="-539.00" y="268.70" xlink:href="#ltr"/>
</g>
<g transform="rotate(270)">
<use x="-590.00" y="596.80" xlink:href="#ltr"/>
<use x="-584.00" y="596.80" xlink:href="#ltr"/>
<use x="-578.00" y="596.80" xlink:href="#ltr"/>
<use x="-572.00" y="596.80" xlink:href="#ltr"/>
<use x="-566.00" y="596.80" xlink:href="#ltr"/>
<use x="-560.00" y="596.80" xlink:href="#ltr"/>
<use x="-554.00" y="596.80" xlink:href="#ltr"/>
<use x="-548.00" y="596.80" xlink:href="#ltr"/>
</g>
</g>
<g stroke-width="0.70" style="font:italic 11.00px Times">
<path class="stroke" stroke-width="1"
	d="M10.00 711.40v-82.00"/>
<g transform="translate(10.00,629.40) scale(1,0.82)">
	<use xlink:href="#brace"/>
</g>
<path class="stroke" stroke-width="1"
	d="M148.40 653.40v-24.00"/>
<path class="stroke" stroke-width="1"
	d="M148.40 711.40v-24.00"/>
<path class="stroke" stroke-width="1"
	d="M277.40 653.40v-24.00"/>
<path class="stroke" stroke-width="1"
	d="M277.40 711.40v-24.00"/>
<path class="stroke" stroke-width="1"
	d="M403.50 653.40v-24.00"/>
<path class="stroke" stroke-width="1"
	d="M403.50 711.40v-24.00"/>
<path class="stroke" stroke-width="1"
	d="M499.50 653.40v-24.00"/>
<path class="stroke" stroke-width="1"
	d="M499.50 711.40v-24.00"/>
<path class="stroke" stroke-width="1"
	d="M595.50 653.40v-24.00"/>
<path class="stroke" stroke-width="1"
	d="M595.50 711.40v-24.00"/>
<path class="stroke" stroke-width="1"
	d="M691.60 653.40v-24.00"/>
<path class="stroke" stroke-width="1"
	d="M691.60 711.40v-24.00"/>
<path d="m10.00 653.40
	h681.60
	M10.00 647.40
	h681.60
	M10.00 641.40
	h681.60
	M10.00 635.40
	h681.60
	M10.00 629.40
	h681.60
	" class="stroke"/>
<path d="m10.00 711.40
	h681.60
	M10.00 705.40
	h681.60
	M10.00 699.40
	h681.60
	M10.00 693.40
	h681.60
	M10.00 687.40
	h681.60
	" class="stroke"/>
</g>
<g stroke-width="0.70" style="font:bold 13.00px Times">
<text x="53.00" y="619.80">vi<tspan
	 style="font:italic 11.00px Times">m⁷</tspan></text>
</g>
<g stroke-width="0.70" style="font:bold 13.00px Times">
<text x="153.60" y="624.80">V<tspan
	 style="font:italic 11.00px Times">⁷¹</tspan></text>
</g>
<g stroke-width="0.70" style="font:bold 13.00px Times">
<text x="282.40" y="616.80">IV<tspan
	 style="font:italic 11.00px Times">Δ⁷</tspan></text>
</g>
<g stroke-width="0.70" style="font:bold 13.00px Times">
<text x="419.50" y="616.80">iii<tspan
	 style="font:italic 11.00px Times">m⁷</tspan></text>
</g>
<g stroke-width="0.70" style="font:bold 13.00px Times">
<text x="515.80" y="624.80">I<tspan
	 style="font:italic 11.00px Times">Δ⁷²</tspan></text>
</g>
<g stroke-width="0.70" style="font:bold 13.00px Times">
<text x="613.60" y="605.80">V<tspan
	 style="font:italic 11.00px Times">⁷</tspan></text>
</g>
<g stroke-width="0.70" style="font:italic 11.00px Times">
<use x="22.00" y="647.40" xlink:href="#tclef"/>
<use x="61.00" y="647.40" xlink:href="#hd"/>
<path d="M64.50 647.40v-21.00" class="stroke"/>
<path class="fill"
	d="M64.50 626.40c0.6 5.6 9.6 9 5.6 18.4
	1.6 -6 -1.3 -11.6 -5.6 -12.8
"/>
<use x="86.80" y="653.40" xlink:href="#hd"/>
<path d="M90.30 653.40v-21.00" class="stroke"/>
<path class="fill"
	d="M90.30 632.40c0.6 5.6 9.6 9 5.6 18.4
	1.6 -6 -1.3 -11.6 -5.6 -12.8
"/>
<use x="112.50" y="647.40" xlink:href="#Hd"/>
<path d="M116.00 647.40v-21.00" class="stroke"/>
<use x="161.50" y="638.40" xlink:href="#hd"/>
<path d="M158.00 638.40v21.00" class="stroke"/>
<use x="197.60" y="638.40" xlink:href="#hd"/>
<circle class="fill" cx="205.30" cy="638.40" r="1.2"/>
<path d="M194.10 638.40v21.00" class="stroke"/>
<use x="259.30" y="635.40" xlink:href="#hd"/>
<path d="M255.80 635.40v21.00" class="stroke"/>
<path class="fill"
	d="M255.80 656.40c0.6 -5.6 9.6 -9 5.6 -18.4
	1.6 6 -1.3 11.6 -5.6 12.8
"/>
<use x="290.40" y="638.40" xlink:href="#hd"/>
<path d="M286.90 638.40v21.00" class="stroke"/>
<path class="fill"
	d="M286.90 659.40c0.6 -5.6 9.6 -9 5.6 -18.4
	1.6 6 -1.3 11.6 -5.6 12.8
"/>
<use x="316.10" y="644.40" xlink:href="#hd"/>
<path d="M319.60 644.40v-21.00" class="stroke"/>
<path class="fill"
	d="M319.60 623.40c0.6 5.6 9.6 9 5.6 18.4
	1.6 -6 -1.3 -11.6 -5.6 -12.8
"/>
<use x="341.90" y="638.40" xlink:href="#Hd"/>
<path d="M338.40 638.40v21.00" class="stroke"/>
<use x="427.50" y="644.40" xlink:href="#hd"/>
<path d="M431.00 644.40v-21.00" class="stroke"/>
<use x="463.60" y="647.40" xlink:href="#Hd"/>
<path d="M467.10 647.40v-21.00" class="stroke"/>
<use x="523.50" y="638.40" xlink:href="#hd"/>
<path d="M520.00 638.40v21.00" class="stroke"/>
<use x="559.60" y="632.40" xlink:href="#Hd"/>
<path d="M556.10 632.40v21.00" class="stroke"/>
<use x="619.50" y="623.40" xlink:href="#hl"/>
<use x="619.50" y="617.40" xlink:href="#hl"/>
<use x="619.50" y="614.40" xlink:href="#hd"/>
<path d="M616.00 614.40v40.00" class="stroke"/>
<use x="619.50" y="635.40" xlink:href="#hd"/>
<use x="655.70" y="623.40" xlink:href="#hl"/>
<use x="655.70" y="617.40" xlink:href="#hl"/>
<use x="655.70" y="617.40" xlink:href="#Hd"/>
<path d="M652.20 617.40v40.00" class="stroke"/>
<use x="655.70" y="638.40" xlink:href="#Hd"/>
<use x="22.00" y="693.40" xlink:href="#bclef"/>
<use x="61.00" y="717.40" xlink:href="#hl"/>
<use x="61.00" y="723.40" xlink:href="#hl"/>
<use x="61.00" y="729.40" xlink:href="#hl"/>
<use x="61.00" y="729.40" xlink:href="#Hd"/>
<circle class="fill" cx="70.70" cy="726.40" r="1.2"/>
<path d="M64.50 729.40v-58.00" class="stroke"/>
<use x="61.00" y="708.40" xlink:href="#Hd"/>
<circle class="fill" cx="70.70" cy="708.40" r="1.2"/>
<use x="61.00" y="702.40" xlink:href="#Hd"/>
<circle class="fill" cx="70.70" cy="702.40" r="1.2"/>
<use x="61.00" y="696.40" xlink:href="#Hd"/>
<circle class="fill" cx="70.70" cy="696.40" r="1.2"/>
<use x="61.00" y="690.40" xlink:href="#Hd"/>
<circle class="fill" cx="70.70" cy="690.40" r="1.2"/>
<use x="161.50" y="711.40" xlink:href="#hd"/>
<path d="M165.00 711.40v-21.00" class="stroke"/>
<use x="197.60" y="705.40" xlink:href="#hd"/>
<path d="M201.10 705.40v-21.00" class="stroke"/>
<use x="233.70" y="699.40" xlink:href="#hd"/>
<path d="M237.20 699.40v-21.00" class="stroke"/>
<use x="290.40" y="714.40" xlink:href="#hd"/>
<path d="M293.90 714.40v-21.00" class="stroke"/>
<use x="341.90" y="708.40" xlink:href="#hd"/>
<path d="M345.40 708.40v-21.00" class="stroke"/>
<use x="378.00" y="702.40" xlink:href="#hd"/>
<path d="M381.50 702.40v-21.00" class="stroke"/>
<use x="427.50" y="717.40" xlink:href="#hl"/>
<use x="427.50" y="723.40" xlink:href="#hl"/>
<use x="427.50" y="729.40" xlink:href="#hl"/>
<use x="427.50" y="735.40" xlink:href="#hl"/>
<use x="427.50" y="738.40" xlink:href="#Hd"/>
<circle class="fill" cx="436.20" cy="738.40" r="1.2"/>
<path d="M431.00 738.40v-58.00" class="stroke"/>
<use x="427.50" y="717.40" xlink:href="#Hd"/>
<circle class="fill" cx="436.20" cy="714.40" r="1.2"/>
<use x="427.50" y="711.40" xlink:href="#Hd"/>
<circle class="fill" cx="436.20" cy="708.40" r="1.2"/>
<use x="427.50" y="705.40" xlink:href="#Hd"/>
<circle class="fill" cx="436.20" cy="702.40" r="1.2"/>
<use x="427.50" y="699.40" xlink:href="#Hd"/>
<circle class="fill" cx="436.20" cy="696.40" r="1.2"/>
<use x="523.50" y="717.40" xlink:href="#hl"/>
<use x="523.50" y="723.40" xlink:href="#hl"/>
<use x="523.50" y="729.40" xlink:href="#hl"/>
<use x="523.50" y="735.40" xlink:href="#hl"/>
<use x="523.50" y="741.40" xlink:href="#hl"/>
<use x="523.50" y="744.40" xlink:href="#Hd"/>
<circle class="fill" cx="532.20" cy="744.40" r="1.2"/>
<path d="M527.00 744.40v-58.00" class="stroke"/>
<use x="523.50" y="723.40" xlink:href="#Hd"/>
<circle class="fill" cx="532.20" cy="720.40" r="1.2"/>
<use x="523.50" y="717.40" xlink:href="#Hd"/>
<circle class="fill" cx="532.20" cy="714.40" r="1.2"/>
<use x="523.50" y="711.40" xlink:href="#Hd"/>
<circle class="fill" cx="532.20" cy="708.40" r="1.2"/>
<use x="523.50" y="705.40" xlink:href="#Hd"/>
<circle class="fill" cx="532.20" cy="702.40" r="1.2"/>
<use x="619.50" y="717.40" xlink:href="#hl"/>
<use x="619.50" y="723.40" xlink:href="#hl"/>
<use x="619.50" y="729.40" xlink:href="#hl"/>
<use x="619.50" y="732.40" xlink:href="#Hd"/>
<circle class="fill" cx="628.20" cy="732.40" r="1.2"/>
<path d="M623.00 732.40v-58.00" class="stroke"/>
<use x="619.50" y="711.40" xlink:href="#Hd"/>
<circle class="fill" cx="628.20" cy="708.40" r="1.2"/>
<use x="619.50" y="705.40" xlink:href="#Hd"/>
<circle class="fill" cx="628.20" cy="702.40" r="1.2"/>
<use x="619.50" y="699.40" xlink:href="#Hd"/>
<circle class="fill" cx="628.20" cy="696.40" r="1.2"/>
<use x="619.50" y="693.40" xlink:href="#Hd"/>
<circle class="fill" cx="628.20" cy="690.40" r="1.2"/>
<g transform="rotate(270)">
<use x="-732.40" y="51.00" xlink:href="#ltr"/>
<use x="-726.40" y="51.00" xlink:href="#ltr"/>
<use x="-720.40" y="51.00" xlink:href="#ltr"/>
<use x="-714.40" y="51.00" xlink:href="#ltr"/>
<use x="-708.40" y="51.00" xlink:href="#ltr"/>
<use x="-702.40" y="51.00" xlink:href="#ltr"/>
<use x="-696.40" y="51.00" xlink:href="#ltr"/>
<use x="-690.40" y="51.00" xlink:href="#ltr"/>
</g>
<g transform="rotate(270)">
<use x="-741.40" y="417.50" xlink:href="#ltr"/>
<use x="-735.40" y="417.50" xlink:href="#ltr"/>
<use x="-729.40" y="417.50" xlink:href="#ltr"/>
<use x="-723.40" y="417.50" xlink:href="#ltr"/>
<use x="-717.40" y="417.50" xlink:href="#ltr"/>
<use x="-711.40" y="417.50" xlink:href="#ltr"/>
<use x="-705.40" y="417.50" xlink:href="#ltr"/>
<use x="-699.40" y="417.50" xlink:href="#ltr"/>
</g>
<g transform="rotate(270)">
<use x="-747.40" y="513.50" xlink:href="#ltr"/>
<use x="-741.40" y="513.50" xlink:href="#ltr"/>
<use x="-735.40" y="513.50" xlink:href="#ltr"/>
<use x="-729.40" y="513.50" xlink:href="#ltr"/>
<use x="-723.40" y="513.50" xlink:href="#ltr"/>
<use x="-717.40" y="513.50" xlink:href="#ltr"/>
<use x="-711.40" y="513.50" xlink:href="#ltr"/>
<use x="-705.40" y="513.50" xlink:href="#ltr"/>
</g>
<g transform="rotate(270)">
<use x="-735.40" y="609.50" xlink:href="#ltr"/>
<use x="-729.40" y="609.50" xlink:href="#ltr"/>
<use x="-723.40" y="609.50" xlink:href="#ltr"/>
<use x="-717.40" y="609.50" xlink:href="#ltr"/>
<use x="-711.40" y="609.50" xlink:href="#ltr"/>
<use x="-705.40" y="609.50" xlink:href="#ltr"/>
<use x="-699.40" y="609.50" xlink:href="#ltr"/>
<use x="-693.40" y="609.50" xlink:href="#ltr"/>
</g>
</g>
</svg>
