<?xml version="1.0" standalone="no"?>
<!DOCTYPE svg PUBLIC "-//W3C//DTD SVG 1.1//EN"
	"http://www.w3.org/Graphics/SVG/1.1/DTD/svg11.dtd">
<svg xmlns="http://www.w3.org/2000/svg" version="1.1"
	xmlns:xlink="http://www.w3.org/1999/xlink"
	color="black"
	width="701.60px" height="597.40px" viewBox="0 0 701.60 597.40" preserveAspectRatio="xMidYMid meet">
<style type="text/css">
.fill {fill: currentColor}
.stroke {stroke: currentColor; fill: none}
text{white-space: pre}
</style>
<title>/tmp/reharm_hymnal_L7/to_jordan_came_our_lord_the_christ.abc (1) tune 1</title>
<!-- Creator: abcm2ps-8.14.11 -->
<!-- CreationDate: Apr 24, 2026 15:33 -->
<!-- CommandLine: /tmp/reharm_hymnal_L7/to_jordan_came_our_lord_the_christ.abc -g -O /tmp/reharm_hymnal_L7/to_jordan_came_our_lord_the_christ -->
<g stroke-width="0.70">
<!-- title: 256. To Jordan Came Our Lord, The Christ -->
</g>
<g stroke-width="0.70" style="font:20.00px Times">
<text x="350.80" y="22.00" text-anchor="middle">256. To Jordan Came Our Lord, The Christ</text>
</g>
<g stroke-width="0.70" style="font:20.00px Times">
<path class="stroke" stroke-width="1"
	d="M10.00 143.00v-82.00"/>
<defs>
<path id="brace" class="fill" d="m-2.5 101
	c-4.5 -4.6 -7.5 -12.2 -4.4 -26.8
	3.5 -14.3 3.2 -21.7 -2.1 -24.2
	7.4 2.4 7.3 14.2 3.5 29.5
	-2.7 9.5 -1.5 16.2 3 21.5
	M-2.5 1c-4.5 4.6 -7.5 12.2 -4.4 26.8
	c3.5 14.3 3.2 21.7 -2.1 24.2
	7.4 -2.4 7.3 -14.2 3.5 -29.5
	-2.7 -9.5 -1.5 -16.2 3 -21.5"/>
</defs>
<g transform="translate(10.00,61.00) scale(1,0.82)">
	<use xlink:href="#brace"/>
</g>
<path class="stroke" stroke-width="1"
	d="M155.10 85.00v-24.00"/>
<path class="stroke" stroke-width="1"
	d="M155.10 143.00v-24.00"/>
<path class="stroke" stroke-width="1"
	d="M277.00 85.00v-24.00"/>
<path class="stroke" stroke-width="1"
	d="M277.00 143.00v-24.00"/>
<path class="stroke" stroke-width="1"
	d="M363.00 85.00v-24.00"/>
<path class="stroke" stroke-width="1"
	d="M363.00 143.00v-24.00"/>
<path class="stroke" stroke-width="1"
	d="M472.50 85.00v-24.00"/>
<path class="stroke" stroke-width="1"
	d="M472.50 143.00v-24.00"/>
<path class="stroke" stroke-width="1"
	d="M582.00 85.00v-24.00"/>
<path class="stroke" stroke-width="1"
	d="M582.00 143.00v-24.00"/>
<path class="stroke" stroke-width="1"
	d="M691.60 85.00v-24.00"/>
<path class="stroke" stroke-width="1"
	d="M691.60 143.00v-24.00"/>
<path d="m10.00 85.00
	h681.60
	M10.00 79.00
	h681.60
	M10.00 73.00
	h681.60
	M10.00 67.00
	h681.60
	M10.00 61.00
	h681.60
	" class="stroke"/>
<path d="m10.00 143.00
	h681.60
	M10.00 137.00
	h681.60
	M10.00 131.00
	h681.60
	M10.00 125.00
	h681.60
	M10.00 119.00
	h681.60
	" class="stroke"/>
</g>
<g stroke-width="0.70" style="font:bold 13.00px Times">
<text x="66.00" y="56.40">vi<tspan
	 style="font:italic 11.00px Times">m⁷</tspan></text>
</g>
<g stroke-width="0.70" style="font:bold 13.00px Times">
<text x="174.20" y="48.40">V<tspan
	 style="font:italic 11.00px Times">⁷</tspan></text>
</g>
<g stroke-width="0.70" style="font:bold 13.00px Times">
<text x="294.00" y="48.40">vi<tspan
	 style="font:italic 11.00px Times">m⁷</tspan></text>
</g>
<g stroke-width="0.70" style="font:bold 13.00px Times">
<text x="369.60" y="56.40">V<tspan
	 style="font:italic 11.00px Times">⁷</tspan></text>
</g>
<g stroke-width="0.70" style="font:bold 13.00px Times">
<text x="477.00" y="54.40">IV<tspan
	 style="font:italic 11.00px Times">Δ⁷</tspan></text>
</g>
<g stroke-width="0.70" style="font:bold 13.00px Times">
<text x="587.00" y="56.40">iii<tspan
	 style="font:italic 11.00px Times">m⁷</tspan></text>
</g>
<g stroke-width="0.70" style="font:italic 11.00px Times">
<defs>
<path id="utclef" class="fill" d="m-50 -90
	c-72 -41 -72 -158 52 -188
	150 -10 220 188 90 256
	-114 52 -275 0 -293 -136
	-15 -181 93 -229 220 -334
	88 -87 79 -133 62 -210
	-51 33 -94 105 -89 186
	17 267 36 374 49 574
	6 96 -19 134 -77 135
	-80 1 -126 -93 -61 -133
	85 -41 133 101 31 105
	23 17 92 37 90 -92
	-10 -223 -39 -342 -50 -617
	0 -90 0 -162 96 -232
	56 72 63 230 22 289
	-74 106 -257 168 -255 316
	9 153 148 185 252 133
	86 -65 29 -192 -80 -176
	-71 12 -105 67 -59 124"/>
<use id="tclef" transform="translate(0,6) scale(0.045)"
	xlink:href="#utclef"/>
</defs>
<use x="22.00" y="79.00" xlink:href="#tclef"/>
<g style="font:bold 16px serif"
	transform="translate(40.50,84.50) scale(1.2,1)">
	<text text-anchor="middle">4</text>
	<text y="-12" text-anchor="middle">4</text>
</g>
<defs>
<path id="Hd" class="fill" d="m3 -1.6
	c-1 -1.8 -7 1.4 -6 3.2
	1 1.8 7 -1.4 6 -3.2
	m0.5 -0.3
	c2 3.8 -5 7.6 -7 3.8
	-2 -3.8 5 -7.6 7 -3.8"/>
</defs>
<use x="74.00" y="88.00" xlink:href="#Hd"/>
<path d="M77.50 88.00v-21.00" class="stroke"/>
<defs>
<ellipse id="hd" rx="4.1" ry="2.9"
	transform="rotate(-20)" class="fill"/>
</defs>
<use x="110.30" y="82.00" xlink:href="#hd"/>
<path d="M113.80 82.00v-21.00" class="stroke"/>
<use x="136.20" y="79.00" xlink:href="#hd"/>
<path d="M139.70 79.00v-21.00" class="stroke"/>
<use x="180.10" y="76.00" xlink:href="#hd"/>
<path d="M183.60 76.00v-21.00" class="stroke"/>
<use x="206.00" y="79.00" xlink:href="#hd"/>
<path d="M209.50 79.00v-21.00" class="stroke"/>
<use x="232.20" y="70.00" xlink:href="#hd"/>
<path d="M228.70 70.00v21.00" class="stroke"/>
<use x="258.10" y="73.00" xlink:href="#hd"/>
<path d="M254.60 73.00v21.00" class="stroke"/>
<use x="302.00" y="76.00" xlink:href="#Hd"/>
<circle class="fill" cx="310.70" cy="76.00" r="1.2"/>
<path d="M305.50 76.00v-21.00" class="stroke"/>
<use x="344.10" y="76.00" xlink:href="#hd"/>
<path d="M347.60 76.00v-21.00" class="stroke"/>
<use x="375.50" y="70.00" xlink:href="#hd"/>
<path d="M372.00 70.00v21.00" class="stroke"/>
<use x="401.40" y="73.00" xlink:href="#hd"/>
<path d="M397.90 73.00v21.00" class="stroke"/>
<use x="427.30" y="76.00" xlink:href="#hd"/>
<path d="M430.80 76.00v-21.00" class="stroke"/>
<use x="453.60" y="79.00" xlink:href="#hd"/>
<path d="M457.10 79.00v-21.00" class="stroke"/>
<use x="485.00" y="82.00" xlink:href="#hd"/>
<path d="M488.50 82.00v-21.00" class="stroke"/>
<use x="510.90" y="85.00" xlink:href="#hd"/>
<path d="M514.40 85.00v-21.00" class="stroke"/>
<use x="536.80" y="88.00" xlink:href="#Hd"/>
<path d="M540.30 88.00v-21.00" class="stroke"/>
<use x="595.00" y="88.00" xlink:href="#Hd"/>
<path d="M598.50 88.00v-21.00" class="stroke"/>
<use x="646.80" y="82.00" xlink:href="#hd"/>
<path d="M650.30 82.00v-21.00" class="stroke"/>
<use x="672.70" y="79.00" xlink:href="#hd"/>
<path d="M676.20 79.00v-21.00" class="stroke"/>
<defs>
<path id="ubclef" class="fill" d="m-200 -87
	c124 -35 222 -78 254 -236
	43 -228 -167 -246 -192 -103
	59 -80 157 22 92 78
	-62 47 -115 -22 -106 -88
	21 -141 270 -136 274 52
	-1 175 -106 264 -322 297
	m357 -250
	c0 -36 51 -34 51 0
	0 37 -51 36 -51 0
	m-2 -129
	c0 -36 51 -34 51 0
	0 38 -51 37 -51 0"/>
<use id="bclef" transform="translate(0,18) scale(0.045)"
	xlink:href="#ubclef"/>
</defs>
<use x="22.00" y="125.00" xlink:href="#bclef"/>
<g style="font:bold 16px serif"
	transform="translate(40.50,142.50) scale(1.2,1)">
	<text text-anchor="middle">4</text>
	<text y="-12" text-anchor="middle">4</text>
</g>
<defs>
<path id="hl1" class="stroke" d="m-7 0h14"/>
</defs>
<use x="75.00" y="149.00" xlink:href="#hl1"/>
<use x="75.00" y="155.00" xlink:href="#hl1"/>
<use x="75.00" y="161.00" xlink:href="#hl1"/>
<defs>
<path id="HD" class="fill" d="m-2.7 -1.4
	c1.5 -2.8 6.9 0 5.3 2.7
	-1.5 2.8 -6.9 0 -5.3 -2.7
	m8.3 1.4
	c0 -1.5 -2.2 -3 -5.6 -3
	-3.4 0 -5.6 1.5 -5.6 3
	0 1.5 2.2 3 5.6 3
	3.4 0 5.6 -1.5 5.6 -3"/>
</defs>
<use x="75.00" y="161.00" xlink:href="#HD"/>
<use x="75.00" y="140.00" xlink:href="#HD"/>
<use x="75.00" y="134.00" xlink:href="#HD"/>
<use x="75.00" y="128.00" xlink:href="#HD"/>
<use x="75.00" y="122.00" xlink:href="#HD"/>
<use x="181.10" y="149.00" xlink:href="#hl1"/>
<use x="181.10" y="155.00" xlink:href="#hl1"/>
<use x="181.10" y="161.00" xlink:href="#hl1"/>
<use x="181.10" y="164.00" xlink:href="#HD"/>
<use x="181.10" y="143.00" xlink:href="#HD"/>
<use x="181.10" y="137.00" xlink:href="#HD"/>
<use x="181.10" y="131.00" xlink:href="#HD"/>
<use x="181.10" y="125.00" xlink:href="#HD"/>
<use x="303.00" y="149.00" xlink:href="#hl1"/>
<use x="303.00" y="155.00" xlink:href="#hl1"/>
<use x="303.00" y="161.00" xlink:href="#hl1"/>
<use x="303.00" y="161.00" xlink:href="#HD"/>
<use x="303.00" y="140.00" xlink:href="#HD"/>
<use x="303.00" y="134.00" xlink:href="#HD"/>
<use x="303.00" y="128.00" xlink:href="#HD"/>
<use x="303.00" y="122.00" xlink:href="#HD"/>
<use x="375.50" y="143.00" xlink:href="#hd"/>
<path d="M379.00 143.00v-21.00" class="stroke"/>
<use x="401.40" y="137.00" xlink:href="#hd"/>
<path d="M404.90 137.00v-21.00" class="stroke"/>
<use x="427.30" y="131.00" xlink:href="#hd"/>
<path d="M430.80 131.00v-21.00" class="stroke"/>
<use x="453.60" y="125.00" xlink:href="#hd"/>
<path d="M450.10 125.00v21.00" class="stroke"/>
<use x="485.00" y="146.00" xlink:href="#hd"/>
<path d="M488.50 146.00v-21.00" class="stroke"/>
<use x="510.90" y="140.00" xlink:href="#hd"/>
<path d="M514.40 140.00v-21.00" class="stroke"/>
<use x="536.80" y="134.00" xlink:href="#hd"/>
<path d="M540.30 134.00v-21.00" class="stroke"/>
<use x="563.10" y="128.00" xlink:href="#hd"/>
<path d="M559.60 128.00v21.00" class="stroke"/>
<defs>
<path id="hl" class="stroke" d="m-6 0h12"/>
</defs>
<use x="595.00" y="149.00" xlink:href="#hl"/>
<use x="595.00" y="149.00" xlink:href="#hd"/>
<path d="M598.50 149.00v-21.00" class="stroke"/>
<use x="620.90" y="143.00" xlink:href="#hd"/>
<path d="M624.40 143.00v-21.00" class="stroke"/>
<use x="646.80" y="137.00" xlink:href="#hd"/>
<path d="M650.30 137.00v-21.00" class="stroke"/>
<use x="672.70" y="131.00" xlink:href="#hd"/>
<path d="M676.20 131.00v-21.00" class="stroke"/>
<defs>
<path id="ltr" class="fill"
    d="m0 -0.4c2 -1.5 3.4 -1.9 3.9 0.4
	c0.2 0.8 0.7 0.7 2.1 -0.4
	v0.8c-2 1.5 -3.4 1.9 -3.9 -0.4
	c-0.2 -0.8 -0.7 -0.7 -2.1 0.4z"/>
</defs>
<g transform="rotate(270)">
<use x="-164.00" y="61.50" xlink:href="#ltr"/>
<use x="-158.00" y="61.50" xlink:href="#ltr"/>
<use x="-152.00" y="61.50" xlink:href="#ltr"/>
<use x="-146.00" y="61.50" xlink:href="#ltr"/>
<use x="-140.00" y="61.50" xlink:href="#ltr"/>
<use x="-134.00" y="61.50" xlink:href="#ltr"/>
<use x="-128.00" y="61.50" xlink:href="#ltr"/>
<use x="-122.00" y="61.50" xlink:href="#ltr"/>
</g>
<g transform="rotate(270)">
<use x="-167.00" y="167.60" xlink:href="#ltr"/>
<use x="-161.00" y="167.60" xlink:href="#ltr"/>
<use x="-155.00" y="167.60" xlink:href="#ltr"/>
<use x="-149.00" y="167.60" xlink:href="#ltr"/>
<use x="-143.00" y="167.60" xlink:href="#ltr"/>
<use x="-137.00" y="167.60" xlink:href="#ltr"/>
<use x="-131.00" y="167.60" xlink:href="#ltr"/>
<use x="-125.00" y="167.60" xlink:href="#ltr"/>
</g>
<g transform="rotate(270)">
<use x="-164.00" y="289.50" xlink:href="#ltr"/>
<use x="-158.00" y="289.50" xlink:href="#ltr"/>
<use x="-152.00" y="289.50" xlink:href="#ltr"/>
<use x="-146.00" y="289.50" xlink:href="#ltr"/>
<use x="-140.00" y="289.50" xlink:href="#ltr"/>
<use x="-134.00" y="289.50" xlink:href="#ltr"/>
<use x="-128.00" y="289.50" xlink:href="#ltr"/>
<use x="-122.00" y="289.50" xlink:href="#ltr"/>
</g>
</g>
<g stroke-width="0.70" style="font:italic 11.00px Times">
<path class="stroke" stroke-width="1"
	d="M10.00 275.00v-82.00"/>
<g transform="translate(10.00,193.00) scale(1,0.82)">
	<use xlink:href="#brace"/>
</g>
<path class="stroke" stroke-width="1"
	d="M184.60 217.00v-24.00"/>
<path class="stroke" stroke-width="1"
	d="M184.60 275.00v-24.00"/>
<path class="stroke" stroke-width="1"
	d="M286.30 217.00v-24.00"/>
<path class="stroke" stroke-width="1"
	d="M286.30 275.00v-24.00"/>
<path class="stroke" stroke-width="1"
	d="M421.40 217.00v-24.00"/>
<path class="stroke" stroke-width="1"
	d="M421.40 275.00v-24.00"/>
<path class="stroke" stroke-width="1"
	d="M556.60 217.00v-24.00"/>
<path class="stroke" stroke-width="1"
	d="M556.60 275.00v-24.00"/>
<path class="stroke" stroke-width="1"
	d="M691.60 217.00v-24.00"/>
<path class="stroke" stroke-width="1"
	d="M691.60 275.00v-24.00"/>
<path d="m10.00 217.00
	h681.60
	M10.00 211.00
	h681.60
	M10.00 205.00
	h681.60
	M10.00 199.00
	h681.60
	M10.00 193.00
	h681.60
	" class="stroke"/>
<path d="m10.00 275.00
	h681.60
	M10.00 269.00
	h681.60
	M10.00 263.00
	h681.60
	M10.00 257.00
	h681.60
	M10.00 251.00
	h681.60
	" class="stroke"/>
</g>
<g stroke-width="0.70" style="font:bold 13.00px Times">
<text x="54.00" y="180.40">ii<tspan
	 style="font:italic 11.00px Times">m⁷</tspan></text>
</g>
<g stroke-width="0.70" style="font:bold 13.00px Times">
<text x="201.60" y="180.40">vi<tspan
	 style="font:italic 11.00px Times">m⁷</tspan></text>
</g>
<g stroke-width="0.70" style="font:bold 13.00px Times">
<text x="292.90" y="186.40">V<tspan
	 style="font:italic 11.00px Times">⁷</tspan></text>
</g>
<g stroke-width="0.70" style="font:bold 13.00px Times">
<text x="425.90" y="186.40">IV<tspan
	 style="font:italic 11.00px Times">Δ⁷</tspan></text>
</g>
<g stroke-width="0.70" style="font:bold 13.00px Times">
<text x="561.10" y="186.40">iii<tspan
	 style="font:italic 11.00px Times">m⁷</tspan></text>
</g>
<g stroke-width="0.70" style="font:italic 11.00px Times">
<use x="22.00" y="211.00" xlink:href="#tclef"/>
<use x="62.00" y="208.00" xlink:href="#hd"/>
<path d="M65.50 208.00v-21.00" class="stroke"/>
<use x="95.10" y="211.00" xlink:href="#hd"/>
<path d="M98.60 211.00v-21.00" class="stroke"/>
<use x="128.20" y="202.00" xlink:href="#hd"/>
<path d="M124.70 202.00v21.00" class="stroke"/>
<use x="161.30" y="205.00" xlink:href="#hd"/>
<path d="M157.80 205.00v21.00" class="stroke"/>
<use x="209.60" y="208.00" xlink:href="#Hd"/>
<circle class="fill" cx="218.30" cy="208.00" r="1.2"/>
<path d="M213.10 208.00v-21.00" class="stroke"/>
<use x="263.00" y="208.00" xlink:href="#hd"/>
<path d="M266.50 208.00v-21.00" class="stroke"/>
<use x="298.80" y="202.00" xlink:href="#hd"/>
<path d="M295.30 202.00v21.00" class="stroke"/>
<use x="331.90" y="205.00" xlink:href="#hd"/>
<path d="M328.40 205.00v21.00" class="stroke"/>
<use x="364.90" y="208.00" xlink:href="#hd"/>
<path d="M368.40 208.00v-21.00" class="stroke"/>
<use x="398.10" y="211.00" xlink:href="#hd"/>
<path d="M401.60 211.00v-21.00" class="stroke"/>
<use x="433.90" y="214.00" xlink:href="#hd"/>
<path d="M437.40 214.00v-21.00" class="stroke"/>
<use x="467.00" y="217.00" xlink:href="#hd"/>
<path d="M470.50 217.00v-21.00" class="stroke"/>
<use x="500.10" y="220.00" xlink:href="#Hd"/>
<path d="M503.60 220.00v-21.00" class="stroke"/>
<defs>
<path id="r4" class="fill" d="m-1 -8.5
	l3.6 5.1 -2.1 5.2 2.2 4.3
	c-2.6 -2.3 -5.1 0 -2.4 2.6
	-4.8 -3 -1.5 -6.9 1.4 -4.1
	l-3.1 -4.5 1.9 -5.1 -1.5 -3.5"/>
</defs>
<use x="569.10" y="205.00" xlink:href="#r4"/>
<use x="602.10" y="220.00" xlink:href="#hd"/>
<path d="M605.60 220.00v-21.00" class="stroke"/>
<use x="635.20" y="211.00" xlink:href="#hd"/>
<path d="M638.70 211.00v-21.00" class="stroke"/>
<use x="668.20" y="211.00" xlink:href="#hd"/>
<path d="M671.70 211.00v-21.00" class="stroke"/>
<use x="22.00" y="257.00" xlink:href="#bclef"/>
<use x="63.00" y="281.00" xlink:href="#hl1"/>
<use x="63.00" y="287.00" xlink:href="#hl1"/>
<use x="63.00" y="293.00" xlink:href="#hl1"/>
<use x="63.00" y="299.00" xlink:href="#hl1"/>
<use x="63.00" y="305.00" xlink:href="#hl1"/>
<use x="63.00" y="305.00" xlink:href="#HD"/>
<use x="63.00" y="284.00" xlink:href="#HD"/>
<use x="63.00" y="278.00" xlink:href="#HD"/>
<use x="63.00" y="272.00" xlink:href="#HD"/>
<use x="63.00" y="266.00" xlink:href="#HD"/>
<use x="210.60" y="281.00" xlink:href="#hl1"/>
<use x="210.60" y="287.00" xlink:href="#hl1"/>
<use x="210.60" y="293.00" xlink:href="#hl1"/>
<use x="210.60" y="293.00" xlink:href="#HD"/>
<use x="210.60" y="272.00" xlink:href="#HD"/>
<use x="210.60" y="266.00" xlink:href="#HD"/>
<use x="210.60" y="260.00" xlink:href="#HD"/>
<use x="210.60" y="254.00" xlink:href="#HD"/>
<use x="298.80" y="275.00" xlink:href="#hd"/>
<path d="M302.30 275.00v-21.00" class="stroke"/>
<use x="331.90" y="269.00" xlink:href="#hd"/>
<path d="M335.40 269.00v-21.00" class="stroke"/>
<use x="364.90" y="263.00" xlink:href="#hd"/>
<path d="M368.40 263.00v-21.00" class="stroke"/>
<use x="398.10" y="257.00" xlink:href="#hd"/>
<path d="M394.60 257.00v21.00" class="stroke"/>
<use x="433.90" y="278.00" xlink:href="#hd"/>
<path d="M437.40 278.00v-21.00" class="stroke"/>
<use x="467.00" y="272.00" xlink:href="#hd"/>
<path d="M470.50 272.00v-21.00" class="stroke"/>
<use x="500.10" y="266.00" xlink:href="#hd"/>
<path d="M503.60 266.00v-21.00" class="stroke"/>
<use x="533.20" y="260.00" xlink:href="#hd"/>
<path d="M529.70 260.00v21.00" class="stroke"/>
<use x="569.10" y="281.00" xlink:href="#hl"/>
<use x="569.10" y="281.00" xlink:href="#hd"/>
<path d="M572.60 281.00v-21.00" class="stroke"/>
<use x="602.10" y="275.00" xlink:href="#hd"/>
<path d="M605.60 275.00v-21.00" class="stroke"/>
<use x="635.20" y="269.00" xlink:href="#hd"/>
<path d="M638.70 269.00v-21.00" class="stroke"/>
<use x="668.20" y="263.00" xlink:href="#hd"/>
<path d="M671.70 263.00v-21.00" class="stroke"/>
<g transform="rotate(270)">
<use x="-308.00" y="49.50" xlink:href="#ltr"/>
<use x="-302.00" y="49.50" xlink:href="#ltr"/>
<use x="-296.00" y="49.50" xlink:href="#ltr"/>
<use x="-290.00" y="49.50" xlink:href="#ltr"/>
<use x="-284.00" y="49.50" xlink:href="#ltr"/>
<use x="-278.00" y="49.50" xlink:href="#ltr"/>
<use x="-272.00" y="49.50" xlink:href="#ltr"/>
<use x="-266.00" y="49.50" xlink:href="#ltr"/>
</g>
<g transform="rotate(270)">
<use x="-296.00" y="197.10" xlink:href="#ltr"/>
<use x="-290.00" y="197.10" xlink:href="#ltr"/>
<use x="-284.00" y="197.10" xlink:href="#ltr"/>
<use x="-278.00" y="197.10" xlink:href="#ltr"/>
<use x="-272.00" y="197.10" xlink:href="#ltr"/>
<use x="-266.00" y="197.10" xlink:href="#ltr"/>
<use x="-260.00" y="197.10" xlink:href="#ltr"/>
<use x="-254.00" y="197.10" xlink:href="#ltr"/>
</g>
</g>
<g stroke-width="0.70" style="font:italic 11.00px Times">
<path class="stroke" stroke-width="1"
	d="M10.00 416.00v-82.00"/>
<g transform="translate(10.00,334.00) scale(1,0.82)">
	<use xlink:href="#brace"/>
</g>
<path class="stroke" stroke-width="1"
	d="M153.00 358.00v-24.00"/>
<path class="stroke" stroke-width="1"
	d="M153.00 416.00v-24.00"/>
<path class="stroke" stroke-width="1"
	d="M235.70 358.00v-24.00"/>
<path class="stroke" stroke-width="1"
	d="M235.70 416.00v-24.00"/>
<path class="stroke" stroke-width="1"
	d="M352.00 358.00v-24.00"/>
<path class="stroke" stroke-width="1"
	d="M352.00 416.00v-24.00"/>
<path class="stroke" stroke-width="1"
	d="M459.10 358.00v-24.00"/>
<path class="stroke" stroke-width="1"
	d="M459.10 416.00v-24.00"/>
<path class="stroke" stroke-width="1"
	d="M575.60 358.00v-24.00"/>
<path class="stroke" stroke-width="1"
	d="M575.60 416.00v-24.00"/>
<path class="stroke" stroke-width="1"
	d="M691.60 358.00v-24.00"/>
<path class="stroke" stroke-width="1"
	d="M691.60 416.00v-24.00"/>
<path d="m10.00 358.00
	h681.60
	M10.00 352.00
	h681.60
	M10.00 346.00
	h681.60
	M10.00 340.00
	h681.60
	M10.00 334.00
	h681.60
	" class="stroke"/>
<path d="m10.00 416.00
	h681.60
	M10.00 410.00
	h681.60
	M10.00 404.00
	h681.60
	M10.00 398.00
	h681.60
	M10.00 392.00
	h681.60
	" class="stroke"/>
</g>
<g stroke-width="0.70" style="font:bold 13.00px Times">
<text x="54.00" y="321.40">ii<tspan
	 style="font:italic 11.00px Times">m⁷</tspan></text>
</g>
<g stroke-width="0.70" style="font:bold 13.00px Times">
<text x="170.00" y="321.40">vi<tspan
	 style="font:italic 11.00px Times">m⁷</tspan></text>
</g>
<g stroke-width="0.70" style="font:bold 13.00px Times">
<text x="240.40" y="329.40">V<tspan
	 style="font:italic 11.00px Times">⁷²</tspan></text>
</g>
<g stroke-width="0.70" style="font:bold 13.00px Times">
<text x="369.00" y="329.40">IV<tspan
	 style="font:italic 11.00px Times">Δ⁷</tspan></text>
</g>
<g stroke-width="0.70" style="font:bold 13.00px Times">
<text x="476.10" y="321.40">vi<tspan
	 style="font:italic 11.00px Times">m⁷</tspan></text>
</g>
<g stroke-width="0.70" style="font:bold 13.00px Times">
<text x="594.70" y="321.40">V<tspan
	 style="font:italic 11.00px Times">⁷</tspan></text>
</g>
<g stroke-width="0.70" style="font:italic 11.00px Times">
<use x="22.00" y="352.00" xlink:href="#tclef"/>
<use x="62.00" y="358.00" xlink:href="#hd"/>
<path d="M65.50 358.00v-21.00" class="stroke"/>
<use x="86.30" y="349.00" xlink:href="#hd"/>
<path d="M89.80 349.00v-21.00" class="stroke"/>
<use x="110.70" y="349.00" xlink:href="#hd"/>
<path d="M114.20 349.00v-21.00" class="stroke"/>
<use x="135.00" y="352.00" xlink:href="#hd"/>
<path d="M138.50 352.00v-21.00" class="stroke"/>
<use x="178.00" y="349.00" xlink:href="#Hd"/>
<circle class="fill" cx="186.70" cy="349.00" r="1.2"/>
<path d="M181.50 349.00v-21.00" class="stroke"/>
<use x="217.70" y="349.00" xlink:href="#hd"/>
<path d="M221.20 349.00v-21.00" class="stroke"/>
<use x="248.20" y="340.00" xlink:href="#hd"/>
<path d="M244.70 340.00v21.00" class="stroke"/>
<use x="272.60" y="340.00" xlink:href="#hd"/>
<path d="M269.10 340.00v21.00" class="stroke"/>
<use x="296.90" y="337.00" xlink:href="#hd"/>
<circle class="fill" cx="304.60" cy="337.00" r="1.2"/>
<path d="M293.40 337.00v21.00" class="stroke"/>
<use x="338.70" y="343.00" xlink:href="#hd"/>
<path d="M335.20 343.00v21.00" class="stroke"/>
<path class="fill"
	d="M335.20 364.00c0.6 -5.6 9.6 -9 5.6 -18.4
	1.6 6 -1.3 11.6 -5.6 12.8
"/>
<use x="377.00" y="340.00" xlink:href="#hd"/>
<path d="M373.50 340.00v21.00" class="stroke"/>
<path class="fill"
	d="M373.50 361.00c0.6 -5.6 9.6 -9 5.6 -18.4
	1.6 6 -1.3 11.6 -5.6 12.8
"/>
<use x="394.60" y="343.00" xlink:href="#hd"/>
<path d="M391.10 343.00v21.00" class="stroke"/>
<path class="fill"
	d="M391.10 364.00c0.6 -5.6 9.6 -9 5.6 -18.4
	1.6 6 -1.3 11.6 -5.6 12.8
"/>
<use x="412.20" y="346.00" xlink:href="#hd"/>
<path d="M408.70 346.00v21.00" class="stroke"/>
<use x="434.40" y="349.00" xlink:href="#Hd"/>
<path d="M437.90 349.00v-21.00" class="stroke"/>
<use x="484.10" y="346.00" xlink:href="#r4"/>
<use x="508.50" y="349.00" xlink:href="#hd"/>
<path d="M512.00 349.00v-21.00" class="stroke"/>
<use x="533.20" y="343.00" xlink:href="#hd"/>
<path d="M529.70 343.00v21.00" class="stroke"/>
<use x="557.50" y="346.00" xlink:href="#hd"/>
<path d="M554.00 346.00v21.00" class="stroke"/>
<use x="600.60" y="349.00" xlink:href="#hd"/>
<path d="M604.10 349.00v-21.00" class="stroke"/>
<use x="624.90" y="352.00" xlink:href="#hd"/>
<path d="M628.40 352.00v-21.00" class="stroke"/>
<use x="649.20" y="349.00" xlink:href="#hd"/>
<path d="M652.70 349.00v-21.00" class="stroke"/>
<use x="673.60" y="355.00" xlink:href="#hd"/>
<path d="M677.10 355.00v-21.00" class="stroke"/>
<use x="22.00" y="398.00" xlink:href="#bclef"/>
<use x="63.00" y="422.00" xlink:href="#hl1"/>
<use x="63.00" y="428.00" xlink:href="#hl1"/>
<use x="63.00" y="434.00" xlink:href="#hl1"/>
<use x="63.00" y="440.00" xlink:href="#hl1"/>
<use x="63.00" y="446.00" xlink:href="#hl1"/>
<use x="63.00" y="446.00" xlink:href="#HD"/>
<use x="63.00" y="425.00" xlink:href="#HD"/>
<use x="63.00" y="419.00" xlink:href="#HD"/>
<use x="63.00" y="413.00" xlink:href="#HD"/>
<use x="63.00" y="407.00" xlink:href="#HD"/>
<use x="179.00" y="422.00" xlink:href="#hl1"/>
<use x="179.00" y="428.00" xlink:href="#hl1"/>
<use x="179.00" y="434.00" xlink:href="#hl1"/>
<use x="179.00" y="434.00" xlink:href="#HD"/>
<use x="179.00" y="413.00" xlink:href="#HD"/>
<use x="179.00" y="407.00" xlink:href="#HD"/>
<use x="179.00" y="401.00" xlink:href="#HD"/>
<use x="179.00" y="395.00" xlink:href="#HD"/>
<use x="248.20" y="416.00" xlink:href="#hd"/>
<path d="M251.70 416.00v-21.00" class="stroke"/>
<use x="272.60" y="410.00" xlink:href="#hd"/>
<path d="M276.10 410.00v-21.00" class="stroke"/>
<use x="296.90" y="404.00" xlink:href="#hd"/>
<path d="M300.40 404.00v-21.00" class="stroke"/>
<use x="321.60" y="398.00" xlink:href="#hd"/>
<path d="M318.10 398.00v21.00" class="stroke"/>
<use x="378.00" y="422.00" xlink:href="#hl1"/>
<use x="378.00" y="428.00" xlink:href="#hl1"/>
<use x="378.00" y="434.00" xlink:href="#hl1"/>
<use x="378.00" y="440.00" xlink:href="#hl1"/>
<use x="378.00" y="440.00" xlink:href="#HD"/>
<use x="378.00" y="419.00" xlink:href="#HD"/>
<use x="378.00" y="413.00" xlink:href="#HD"/>
<use x="378.00" y="407.00" xlink:href="#HD"/>
<use x="378.00" y="401.00" xlink:href="#HD"/>
<use x="485.10" y="422.00" xlink:href="#hl1"/>
<use x="485.10" y="428.00" xlink:href="#hl1"/>
<use x="485.10" y="434.00" xlink:href="#hl1"/>
<use x="485.10" y="434.00" xlink:href="#HD"/>
<use x="485.10" y="413.00" xlink:href="#HD"/>
<use x="485.10" y="407.00" xlink:href="#HD"/>
<use x="485.10" y="401.00" xlink:href="#HD"/>
<use x="485.10" y="395.00" xlink:href="#HD"/>
<use x="601.60" y="422.00" xlink:href="#hl1"/>
<use x="601.60" y="428.00" xlink:href="#hl1"/>
<use x="601.60" y="434.00" xlink:href="#hl1"/>
<use x="601.60" y="437.00" xlink:href="#HD"/>
<use x="601.60" y="416.00" xlink:href="#HD"/>
<use x="601.60" y="410.00" xlink:href="#HD"/>
<use x="601.60" y="404.00" xlink:href="#HD"/>
<use x="601.60" y="398.00" xlink:href="#HD"/>
<g transform="rotate(270)">
<use x="-449.00" y="49.50" xlink:href="#ltr"/>
<use x="-443.00" y="49.50" xlink:href="#ltr"/>
<use x="-437.00" y="49.50" xlink:href="#ltr"/>
<use x="-431.00" y="49.50" xlink:href="#ltr"/>
<use x="-425.00" y="49.50" xlink:href="#ltr"/>
<use x="-419.00" y="49.50" xlink:href="#ltr"/>
<use x="-413.00" y="49.50" xlink:href="#ltr"/>
<use x="-407.00" y="49.50" xlink:href="#ltr"/>
</g>
<g transform="rotate(270)">
<use x="-437.00" y="165.50" xlink:href="#ltr"/>
<use x="-431.00" y="165.50" xlink:href="#ltr"/>
<use x="-425.00" y="165.50" xlink:href="#ltr"/>
<use x="-419.00" y="165.50" xlink:href="#ltr"/>
<use x="-413.00" y="165.50" xlink:href="#ltr"/>
<use x="-407.00" y="165.50" xlink:href="#ltr"/>
<use x="-401.00" y="165.50" xlink:href="#ltr"/>
<use x="-395.00" y="165.50" xlink:href="#ltr"/>
</g>
<g transform="rotate(270)">
<use x="-443.00" y="364.50" xlink:href="#ltr"/>
<use x="-437.00" y="364.50" xlink:href="#ltr"/>
<use x="-431.00" y="364.50" xlink:href="#ltr"/>
<use x="-425.00" y="364.50" xlink:href="#ltr"/>
<use x="-419.00" y="364.50" xlink:href="#ltr"/>
<use x="-413.00" y="364.50" xlink:href="#ltr"/>
<use x="-407.00" y="364.50" xlink:href="#ltr"/>
<use x="-401.00" y="364.50" xlink:href="#ltr"/>
</g>
<g transform="rotate(270)">
<use x="-437.00" y="471.60" xlink:href="#ltr"/>
<use x="-431.00" y="471.60" xlink:href="#ltr"/>
<use x="-425.00" y="471.60" xlink:href="#ltr"/>
<use x="-419.00" y="471.60" xlink:href="#ltr"/>
<use x="-413.00" y="471.60" xlink:href="#ltr"/>
<use x="-407.00" y="471.60" xlink:href="#ltr"/>
<use x="-401.00" y="471.60" xlink:href="#ltr"/>
<use x="-395.00" y="471.60" xlink:href="#ltr"/>
</g>
<g transform="rotate(270)">
<use x="-440.00" y="588.10" xlink:href="#ltr"/>
<use x="-434.00" y="588.10" xlink:href="#ltr"/>
<use x="-428.00" y="588.10" xlink:href="#ltr"/>
<use x="-422.00" y="588.10" xlink:href="#ltr"/>
<use x="-416.00" y="588.10" xlink:href="#ltr"/>
<use x="-410.00" y="588.10" xlink:href="#ltr"/>
<use x="-404.00" y="588.10" xlink:href="#ltr"/>
<use x="-398.00" y="588.10" xlink:href="#ltr"/>
</g>
</g>
<g stroke-width="0.70" style="font:italic 11.00px Times">
<path class="stroke" stroke-width="1"
	d="M10.00 558.40v-82.00"/>
<g transform="translate(10.00,476.40) scale(1,0.82)">
	<use xlink:href="#brace"/>
</g>
<path class="stroke" stroke-width="1"
	d="M125.20 500.40v-24.00"/>
<path class="stroke" stroke-width="1"
	d="M125.20 558.40v-24.00"/>
<path class="stroke" stroke-width="1"
	d="M252.60 500.40v-24.00"/>
<path class="stroke" stroke-width="1"
	d="M252.60 558.40v-24.00"/>
<path class="stroke" stroke-width="1"
	d="M378.50 500.40v-24.00"/>
<path class="stroke" stroke-width="1"
	d="M378.50 558.40v-24.00"/>
<path class="stroke" stroke-width="1"
	d="M503.70 500.40v-24.00"/>
<path class="stroke" stroke-width="1"
	d="M503.70 558.40v-24.00"/>
<path class="stroke" stroke-width="1"
	d="M628.80 500.40v-24.00"/>
<path class="stroke" stroke-width="1"
	d="M628.80 558.40v-24.00"/>
<path class="stroke" stroke-width="1"
	d="M691.60 500.40v-24.00"/>
<path class="stroke" stroke-width="1"
	d="M691.60 558.40v-24.00"/>
<path d="m10.00 500.40
	h681.60
	M10.00 494.40
	h681.60
	M10.00 488.40
	h681.60
	M10.00 482.40
	h681.60
	M10.00 476.40
	h681.60
	" class="stroke"/>
<path d="m10.00 558.40
	h681.60
	M10.00 552.40
	h681.60
	M10.00 546.40
	h681.60
	M10.00 540.40
	h681.60
	M10.00 534.40
	h681.60
	" class="stroke"/>
</g>
<g stroke-width="0.70" style="font:bold 13.00px Times">
<text x="54.00" y="471.80">vi<tspan
	 style="font:italic 11.00px Times">m⁷</tspan></text>
</g>
<g stroke-width="0.70" style="font:bold 13.00px Times">
<text x="131.80" y="469.80">V<tspan
	 style="font:italic 11.00px Times">⁷</tspan></text>
</g>
<g stroke-width="0.70" style="font:bold 13.00px Times">
<text x="257.10" y="466.80">IV<tspan
	 style="font:italic 11.00px Times">Δ⁷</tspan></text>
</g>
<g stroke-width="0.70" style="font:bold 13.00px Times">
<text x="395.50" y="471.80">iii<tspan
	 style="font:italic 11.00px Times">m⁷¹</tspan></text>
</g>
<g stroke-width="0.70" style="font:bold 13.00px Times">
<text x="520.70" y="470.80">vi<tspan
	 style="font:italic 11.00px Times">m⁷</tspan></text>
</g>
<g stroke-width="0.70" style="font:bold 13.00px Times">
<text x="648.10" y="461.80">I<tspan
	 style="font:italic 11.00px Times">Δ⁷</tspan></text>
</g>
<g stroke-width="0.70" style="font:italic 11.00px Times">
<use x="22.00" y="494.40" xlink:href="#tclef"/>
<use x="62.00" y="500.40" xlink:href="#Hd"/>
<circle class="fill" cx="71.70" cy="497.40" r="1.2"/>
<path d="M65.50 500.40v-21.00" class="stroke"/>
<use x="105.60" y="503.40" xlink:href="#hd"/>
<path d="M109.10 503.40v-21.00" class="stroke"/>
<use x="137.70" y="497.40" xlink:href="#hd"/>
<path d="M141.20 497.40v-21.00" class="stroke"/>
<use x="164.50" y="494.40" xlink:href="#hd"/>
<path d="M168.00 494.40v-21.00" class="stroke"/>
<use x="191.40" y="491.40" xlink:href="#hd"/>
<circle class="fill" cx="199.10" cy="491.40" r="1.2"/>
<path d="M194.90 491.40v-21.00" class="stroke"/>
<use x="235.60" y="497.40" xlink:href="#hd"/>
<path d="M239.10 497.40v-21.00" class="stroke"/>
<path class="fill"
	d="M239.10 476.40c0.6 5.6 9.6 9 5.6 18.4
	1.6 -6 -1.3 -11.6 -5.6 -12.8
"/>
<use x="265.10" y="494.40" xlink:href="#hd"/>
<path d="M268.60 494.40v-21.00" class="stroke"/>
<path class="fill"
	d="M268.60 473.40c0.6 5.6 9.6 9 5.6 18.4
	1.6 -6 -1.3 -11.6 -5.6 -12.8
"/>
<use x="285.00" y="497.40" xlink:href="#hd"/>
<path d="M288.50 497.40v-21.00" class="stroke"/>
<path class="fill"
	d="M288.50 476.40c0.6 5.6 9.6 9 5.6 18.4
	1.6 -6 -1.3 -11.6 -5.6 -12.8
"/>
<use x="304.80" y="500.40" xlink:href="#hd"/>
<path d="M308.30 500.40v-21.00" class="stroke"/>
<use x="331.80" y="503.40" xlink:href="#Hd"/>
<path d="M335.30 503.40v-21.00" class="stroke"/>
<use x="403.50" y="488.40" xlink:href="#r4"/>
<use x="430.40" y="482.40" xlink:href="#hd"/>
<path d="M426.90 482.40v21.00" class="stroke"/>
<use x="457.20" y="482.40" xlink:href="#hd"/>
<path d="M453.70 482.40v21.00" class="stroke"/>
<use x="484.10" y="482.40" xlink:href="#hd"/>
<path d="M480.60 482.40v21.00" class="stroke"/>
<use x="528.70" y="479.40" xlink:href="#hd"/>
<path d="M525.20 479.40v21.00" class="stroke"/>
<use x="555.50" y="482.40" xlink:href="#hd"/>
<path d="M552.00 482.40v21.00" class="stroke"/>
<use x="582.40" y="485.40" xlink:href="#hd"/>
<path d="M578.90 485.40v21.00" class="stroke"/>
<use x="609.30" y="488.40" xlink:href="#hd"/>
<path d="M605.80 488.40v21.00" class="stroke"/>
<use x="654.80" y="470.40" xlink:href="#hl1"/>
<use x="654.80" y="470.40" xlink:href="#HD"/>
<use x="654.80" y="491.40" xlink:href="#HD"/>
<use x="22.00" y="540.40" xlink:href="#bclef"/>
<use x="63.00" y="564.40" xlink:href="#hl1"/>
<use x="63.00" y="570.40" xlink:href="#hl1"/>
<use x="63.00" y="576.40" xlink:href="#hl1"/>
<use x="63.00" y="576.40" xlink:href="#HD"/>
<use x="63.00" y="555.40" xlink:href="#HD"/>
<use x="63.00" y="549.40" xlink:href="#HD"/>
<use x="63.00" y="543.40" xlink:href="#HD"/>
<use x="63.00" y="537.40" xlink:href="#HD"/>
<use x="137.70" y="558.40" xlink:href="#hd"/>
<path d="M141.20 558.40v-21.00" class="stroke"/>
<use x="164.50" y="552.40" xlink:href="#hd"/>
<path d="M168.00 552.40v-21.00" class="stroke"/>
<use x="191.40" y="546.40" xlink:href="#hd"/>
<path d="M194.90 546.40v-21.00" class="stroke"/>
<use x="218.60" y="540.40" xlink:href="#hd"/>
<path d="M215.10 540.40v21.00" class="stroke"/>
<use x="265.10" y="561.40" xlink:href="#hd"/>
<path d="M268.60 561.40v-21.00" class="stroke"/>
<use x="304.80" y="555.40" xlink:href="#hd"/>
<path d="M308.30 555.40v-21.00" class="stroke"/>
<use x="331.80" y="549.40" xlink:href="#hd"/>
<path d="M335.30 549.40v-21.00" class="stroke"/>
<use x="358.90" y="543.40" xlink:href="#hd"/>
<path d="M355.40 543.40v21.00" class="stroke"/>
<use x="404.50" y="564.40" xlink:href="#hl1"/>
<use x="404.50" y="570.40" xlink:href="#hl1"/>
<use x="404.50" y="576.40" xlink:href="#hl1"/>
<use x="404.50" y="582.40" xlink:href="#hl1"/>
<use x="404.50" y="585.40" xlink:href="#HD"/>
<use x="404.50" y="564.40" xlink:href="#HD"/>
<use x="404.50" y="558.40" xlink:href="#HD"/>
<use x="404.50" y="552.40" xlink:href="#HD"/>
<use x="404.50" y="546.40" xlink:href="#HD"/>
<use x="529.70" y="564.40" xlink:href="#hl1"/>
<use x="529.70" y="570.40" xlink:href="#hl1"/>
<use x="529.70" y="576.40" xlink:href="#hl1"/>
<use x="529.70" y="576.40" xlink:href="#HD"/>
<use x="529.70" y="555.40" xlink:href="#HD"/>
<use x="529.70" y="549.40" xlink:href="#HD"/>
<use x="529.70" y="543.40" xlink:href="#HD"/>
<use x="529.70" y="537.40" xlink:href="#HD"/>
<use x="654.80" y="564.40" xlink:href="#hl1"/>
<use x="654.80" y="570.40" xlink:href="#hl1"/>
<use x="654.80" y="576.40" xlink:href="#hl1"/>
<use x="654.80" y="582.40" xlink:href="#hl1"/>
<use x="654.80" y="588.40" xlink:href="#hl1"/>
<use x="654.80" y="591.40" xlink:href="#HD"/>
<use x="654.80" y="570.40" xlink:href="#HD"/>
<use x="654.80" y="564.40" xlink:href="#HD"/>
<use x="654.80" y="558.40" xlink:href="#HD"/>
<use x="654.80" y="552.40" xlink:href="#HD"/>
<g transform="rotate(270)">
<use x="-579.40" y="49.50" xlink:href="#ltr"/>
<use x="-573.40" y="49.50" xlink:href="#ltr"/>
<use x="-567.40" y="49.50" xlink:href="#ltr"/>
<use x="-561.40" y="49.50" xlink:href="#ltr"/>
<use x="-555.40" y="49.50" xlink:href="#ltr"/>
<use x="-549.40" y="49.50" xlink:href="#ltr"/>
<use x="-543.40" y="49.50" xlink:href="#ltr"/>
<use x="-537.40" y="49.50" xlink:href="#ltr"/>
</g>
<g transform="rotate(270)">
<use x="-588.40" y="391.00" xlink:href="#ltr"/>
<use x="-582.40" y="391.00" xlink:href="#ltr"/>
<use x="-576.40" y="391.00" xlink:href="#ltr"/>
<use x="-570.40" y="391.00" xlink:href="#ltr"/>
<use x="-564.40" y="391.00" xlink:href="#ltr"/>
<use x="-558.40" y="391.00" xlink:href="#ltr"/>
<use x="-552.40" y="391.00" xlink:href="#ltr"/>
<use x="-546.40" y="391.00" xlink:href="#ltr"/>
</g>
<g transform="rotate(270)">
<use x="-579.40" y="516.20" xlink:href="#ltr"/>
<use x="-573.40" y="516.20" xlink:href="#ltr"/>
<use x="-567.40" y="516.20" xlink:href="#ltr"/>
<use x="-561.40" y="516.20" xlink:href="#ltr"/>
<use x="-555.40" y="516.20" xlink:href="#ltr"/>
<use x="-549.40" y="516.20" xlink:href="#ltr"/>
<use x="-543.40" y="516.20" xlink:href="#ltr"/>
<use x="-537.40" y="516.20" xlink:href="#ltr"/>
</g>
<g transform="rotate(270)">
<use x="-594.40" y="641.30" xlink:href="#ltr"/>
<use x="-588.40" y="641.30" xlink:href="#ltr"/>
<use x="-582.40" y="641.30" xlink:href="#ltr"/>
<use x="-576.40" y="641.30" xlink:href="#ltr"/>
<use x="-570.40" y="641.30" xlink:href="#ltr"/>
<use x="-564.40" y="641.30" xlink:href="#ltr"/>
<use x="-558.40" y="641.30" xlink:href="#ltr"/>
<use x="-552.40" y="641.30" xlink:href="#ltr"/>
</g>
</g>
</svg>
