<?xml version="1.0" standalone="no"?>
<!DOCTYPE svg PUBLIC "-//W3C//DTD SVG 1.1//EN"
	"http://www.w3.org/Graphics/SVG/1.1/DTD/svg11.dtd">
<svg xmlns="http://www.w3.org/2000/svg" version="1.1"
	xmlns:xlink="http://www.w3.org/1999/xlink"
	color="black"
	width="701.60px" height="477.40px" viewBox="0 0 701.60 477.40" preserveAspectRatio="xMidYMid meet">
<style type="text/css">
.fill {fill: currentColor}
.stroke {stroke: currentColor; fill: none}
text{white-space: pre}
</style>
<title>/tmp/reharm_hymnal_L3/angel_voices_ever_singing.abc (1) tune 1</title>
<!-- Creator: abcm2ps-8.14.11 -->
<!-- CreationDate: Apr 24, 2026 15:32 -->
<!-- CommandLine: /tmp/reharm_hymnal_L3/angel_voices_ever_singing.abc -g -O /tmp/reharm_hymnal_L3/angel_voices_ever_singing -->
<g stroke-width="0.70">
<!-- title: 022. Angel Voices, Ever Singing -->
</g>
<g stroke-width="0.70" style="font:20.00px Times">
<text x="350.80" y="22.00" text-anchor="middle">022. Angel Voices, Ever Singing</text>
</g>
<g stroke-width="0.70" style="font:20.00px Times">
<path class="stroke" stroke-width="1"
	d="M10.00 143.00v-82.00"/>
<defs>
<path id="brace" class="fill" d="m-2.5 101
	c-4.5 -4.6 -7.5 -12.2 -4.4 -26.8
	3.5 -14.3 3.2 -21.7 -2.1 -24.2
	7.4 2.4 7.3 14.2 3.5 29.5
	-2.7 9.5 -1.5 16.2 3 21.5
	M-2.5 1c-4.5 4.6 -7.5 12.2 -4.4 26.8
	c3.5 14.3 3.2 21.7 -2.1 24.2
	7.4 -2.4 7.3 -14.2 3.5 -29.5
	-2.7 -9.5 -1.5 -16.2 3 -21.5"/>
</defs>
<g transform="translate(10.00,61.00) scale(1,0.82)">
	<use xlink:href="#brace"/>
</g>
<path class="stroke" stroke-width="1"
	d="M185.20 85.00v-24.00"/>
<path class="stroke" stroke-width="1"
	d="M185.20 143.00v-24.00"/>
<path class="stroke" stroke-width="1"
	d="M309.00 85.00v-24.00"/>
<path class="stroke" stroke-width="1"
	d="M309.00 143.00v-24.00"/>
<path class="stroke" stroke-width="1"
	d="M432.90 85.00v-24.00"/>
<path class="stroke" stroke-width="1"
	d="M432.90 143.00v-24.00"/>
<path class="stroke" stroke-width="1"
	d="M558.20 85.00v-24.00"/>
<path class="stroke" stroke-width="1"
	d="M558.20 143.00v-24.00"/>
<path class="stroke" stroke-width="1"
	d="M691.60 85.00v-24.00"/>
<path class="stroke" stroke-width="1"
	d="M691.60 143.00v-24.00"/>
<path d="m10.00 85.00
	h681.60
	M10.00 79.00
	h681.60
	M10.00 73.00
	h681.60
	M10.00 67.00
	h681.60
	M10.00 61.00
	h681.60
	" class="stroke"/>
<path d="m10.00 143.00
	h681.60
	M10.00 137.00
	h681.60
	M10.00 131.00
	h681.60
	M10.00 125.00
	h681.60
	M10.00 119.00
	h681.60
	" class="stroke"/>
</g>
<g stroke-width="0.70" style="font:bold 13.00px Times">
<text x="68.30" y="56.40">I<tspan
	 style="font:italic 11.00px Times">Δ⁷</tspan></text>
</g>
<g stroke-width="0.70" style="font:bold 13.00px Times">
<text x="189.70" y="48.40">IV<tspan
	 style="font:italic 11.00px Times">Δ⁷²</tspan></text>
</g>
<g stroke-width="0.70" style="font:bold 13.00px Times">
<text x="313.50" y="56.40">vi<tspan
	 style="font:italic 11.00px Times">m⁷</tspan></text>
</g>
<g stroke-width="0.70" style="font:bold 13.00px Times">
<text x="441.00" y="56.40">V<tspan
	 style="font:italic 11.00px Times">⁷</tspan></text>
</g>
<g stroke-width="0.70" style="font:bold 13.00px Times">
<text x="577.50" y="56.40">I<tspan
	 style="font:italic 11.00px Times">Δ⁷</tspan></text>
</g>
<g stroke-width="0.70" style="font:italic 11.00px Times">
<defs>
<path id="utclef" class="fill" d="m-50 -90
	c-72 -41 -72 -158 52 -188
	150 -10 220 188 90 256
	-114 52 -275 0 -293 -136
	-15 -181 93 -229 220 -334
	88 -87 79 -133 62 -210
	-51 33 -94 105 -89 186
	17 267 36 374 49 574
	6 96 -19 134 -77 135
	-80 1 -126 -93 -61 -133
	85 -41 133 101 31 105
	23 17 92 37 90 -92
	-10 -223 -39 -342 -50 -617
	0 -90 0 -162 96 -232
	56 72 63 230 22 289
	-74 106 -257 168 -255 316
	9 153 148 185 252 133
	86 -65 29 -192 -80 -176
	-71 12 -105 67 -59 124"/>
<use id="tclef" transform="translate(0,6) scale(0.045)"
	xlink:href="#utclef"/>
</defs>
<use x="22.00" y="79.00" xlink:href="#tclef"/>
<g style="font:bold 16px serif"
	transform="translate(40.50,84.50) scale(1.2,1)">
	<text text-anchor="middle">4</text>
	<text y="-12" text-anchor="middle">4</text>
</g>
<defs>
<ellipse id="hd" rx="4.1" ry="2.9"
	transform="rotate(-20)" class="fill"/>
</defs>
<use x="74.00" y="85.00" xlink:href="#hd"/>
<path d="M77.50 85.00v-21.00" class="stroke"/>
<use x="103.90" y="79.00" xlink:href="#hd"/>
<path d="M107.40 79.00v-21.00" class="stroke"/>
<use x="133.90" y="76.00" xlink:href="#hd"/>
<path d="M137.40 76.00v-21.00" class="stroke"/>
<use x="163.80" y="79.00" xlink:href="#hd"/>
<path d="M167.30 79.00v-21.00" class="stroke"/>
<use x="197.70" y="70.00" xlink:href="#hd"/>
<path d="M194.20 70.00v21.00" class="stroke"/>
<use x="227.60" y="76.00" xlink:href="#hd"/>
<path d="M231.10 76.00v-21.00" class="stroke"/>
<use x="257.50" y="79.00" xlink:href="#hd"/>
<path d="M261.00 79.00v-21.00" class="stroke"/>
<use x="287.60" y="85.00" xlink:href="#hd"/>
<path d="M291.10 85.00v-21.00" class="stroke"/>
<defs>
<path id="hl" class="stroke" d="m-6 0h12"/>
</defs>
<use x="321.50" y="91.00" xlink:href="#hl"/>
<use x="321.50" y="91.00" xlink:href="#hd"/>
<path d="M325.00 91.00v-21.00" class="stroke"/>
<use x="351.40" y="88.00" xlink:href="#hd"/>
<path d="M354.90 88.00v-21.00" class="stroke"/>
<use x="381.60" y="85.00" xlink:href="#hd"/>
<path d="M385.10 85.00v-21.00" class="stroke"/>
<use x="411.50" y="82.00" xlink:href="#hd"/>
<path d="M415.00 82.00v-21.00" class="stroke"/>
<defs>
<path id="HD" class="fill" d="m-2.7 -1.4
	c1.5 -2.8 6.9 0 5.3 2.7
	-1.5 2.8 -6.9 0 -5.3 -2.7
	m8.3 1.4
	c0 -1.5 -2.2 -3 -5.6 -3
	-3.4 0 -5.6 1.5 -5.6 3
	0 1.5 2.2 3 5.6 3
	3.4 0 5.6 -1.5 5.6 -3"/>
</defs>
<use x="447.90" y="88.00" xlink:href="#HD"/>
<use x="583.20" y="85.00" xlink:href="#hd"/>
<path d="M586.70 85.00v-21.00" class="stroke"/>
<use x="613.10" y="79.00" xlink:href="#hd"/>
<path d="M616.60 79.00v-21.00" class="stroke"/>
<use x="643.20" y="70.00" xlink:href="#hd"/>
<path d="M639.70 70.00v21.00" class="stroke"/>
<use x="670.20" y="76.00" xlink:href="#hd"/>
<path d="M673.70 76.00v-21.00" class="stroke"/>
<defs>
<path id="ubclef" class="fill" d="m-200 -87
	c124 -35 222 -78 254 -236
	43 -228 -167 -246 -192 -103
	59 -80 157 22 92 78
	-62 47 -115 -22 -106 -88
	21 -141 270 -136 274 52
	-1 175 -106 264 -322 297
	m357 -250
	c0 -36 51 -34 51 0
	0 37 -51 36 -51 0
	m-2 -129
	c0 -36 51 -34 51 0
	0 38 -51 37 -51 0"/>
<use id="bclef" transform="translate(0,18) scale(0.045)"
	xlink:href="#ubclef"/>
</defs>
<use x="22.00" y="125.00" xlink:href="#bclef"/>
<g style="font:bold 16px serif"
	transform="translate(40.50,142.50) scale(1.2,1)">
	<text text-anchor="middle">4</text>
	<text y="-12" text-anchor="middle">4</text>
</g>
<defs>
<path id="hl1" class="stroke" d="m-7 0h14"/>
</defs>
<use x="75.00" y="149.00" xlink:href="#hl1"/>
<use x="75.00" y="155.00" xlink:href="#hl1"/>
<use x="75.00" y="161.00" xlink:href="#hl1"/>
<use x="75.00" y="167.00" xlink:href="#hl1"/>
<use x="75.00" y="173.00" xlink:href="#hl1"/>
<use x="75.00" y="176.00" xlink:href="#HD"/>
<use x="75.00" y="155.00" xlink:href="#HD"/>
<use x="75.00" y="149.00" xlink:href="#HD"/>
<use x="75.00" y="143.00" xlink:href="#HD"/>
<use x="75.00" y="137.00" xlink:href="#HD"/>
<use x="197.70" y="146.00" xlink:href="#hd"/>
<path d="M201.20 146.00v-21.00" class="stroke"/>
<use x="227.60" y="140.00" xlink:href="#hd"/>
<path d="M231.10 140.00v-21.00" class="stroke"/>
<use x="257.50" y="134.00" xlink:href="#hd"/>
<path d="M261.00 134.00v-21.00" class="stroke"/>
<use x="287.60" y="128.00" xlink:href="#hd"/>
<path d="M284.10 128.00v21.00" class="stroke"/>
<use x="321.50" y="140.00" xlink:href="#hd"/>
<path d="M325.00 140.00v-21.00" class="stroke"/>
<use x="351.40" y="134.00" xlink:href="#hd"/>
<path d="M354.90 134.00v-21.00" class="stroke"/>
<use x="381.60" y="128.00" xlink:href="#hd"/>
<path d="M378.10 128.00v21.00" class="stroke"/>
<use x="411.50" y="122.00" xlink:href="#hd"/>
<path d="M408.00 122.00v21.00" class="stroke"/>
<use x="446.90" y="143.00" xlink:href="#hd"/>
<path d="M450.40 143.00v-21.00" class="stroke"/>
<use x="476.80" y="137.00" xlink:href="#hd"/>
<path d="M480.30 137.00v-21.00" class="stroke"/>
<use x="506.70" y="131.00" xlink:href="#hd"/>
<path d="M510.20 131.00v-21.00" class="stroke"/>
<use x="536.80" y="125.00" xlink:href="#hd"/>
<path d="M533.30 125.00v21.00" class="stroke"/>
<use x="584.20" y="149.00" xlink:href="#hl1"/>
<use x="584.20" y="155.00" xlink:href="#hl1"/>
<use x="584.20" y="161.00" xlink:href="#hl1"/>
<use x="584.20" y="167.00" xlink:href="#hl1"/>
<use x="584.20" y="173.00" xlink:href="#hl1"/>
<use x="584.20" y="176.00" xlink:href="#HD"/>
<use x="584.20" y="155.00" xlink:href="#HD"/>
<use x="584.20" y="149.00" xlink:href="#HD"/>
<use x="584.20" y="143.00" xlink:href="#HD"/>
<use x="584.20" y="137.00" xlink:href="#HD"/>
<defs>
<path id="ltr" class="fill"
    d="m0 -0.4c2 -1.5 3.4 -1.9 3.9 0.4
	c0.2 0.8 0.7 0.7 2.1 -0.4
	v0.8c-2 1.5 -3.4 1.9 -3.9 -0.4
	c-0.2 -0.8 -0.7 -0.7 -2.1 0.4z"/>
</defs>
<g transform="rotate(270)">
<use x="-179.00" y="61.50" xlink:href="#ltr"/>
<use x="-173.00" y="61.50" xlink:href="#ltr"/>
<use x="-167.00" y="61.50" xlink:href="#ltr"/>
<use x="-161.00" y="61.50" xlink:href="#ltr"/>
<use x="-155.00" y="61.50" xlink:href="#ltr"/>
<use x="-149.00" y="61.50" xlink:href="#ltr"/>
<use x="-143.00" y="61.50" xlink:href="#ltr"/>
<use x="-137.00" y="61.50" xlink:href="#ltr"/>
</g>
<g transform="rotate(270)">
<use x="-179.00" y="570.70" xlink:href="#ltr"/>
<use x="-173.00" y="570.70" xlink:href="#ltr"/>
<use x="-167.00" y="570.70" xlink:href="#ltr"/>
<use x="-161.00" y="570.70" xlink:href="#ltr"/>
<use x="-155.00" y="570.70" xlink:href="#ltr"/>
<use x="-149.00" y="570.70" xlink:href="#ltr"/>
<use x="-143.00" y="570.70" xlink:href="#ltr"/>
<use x="-137.00" y="570.70" xlink:href="#ltr"/>
</g>
</g>
<g stroke-width="0.70" style="font:italic 11.00px Times">
<path class="stroke" stroke-width="1"
	d="M10.00 287.00v-82.00"/>
<g transform="translate(10.00,205.00) scale(1,0.82)">
	<use xlink:href="#brace"/>
</g>
<path class="stroke" stroke-width="1"
	d="M155.80 229.00v-24.00"/>
<path class="stroke" stroke-width="1"
	d="M155.80 287.00v-24.00"/>
<path class="stroke" stroke-width="1"
	d="M268.00 229.00v-24.00"/>
<path class="stroke" stroke-width="1"
	d="M268.00 287.00v-24.00"/>
<path class="stroke" stroke-width="1"
	d="M330.50 229.00v-24.00"/>
<path class="stroke" stroke-width="1"
	d="M330.50 287.00v-24.00"/>
<path class="stroke" stroke-width="1"
	d="M454.90 229.00v-24.00"/>
<path class="stroke" stroke-width="1"
	d="M454.90 287.00v-24.00"/>
<path class="stroke" stroke-width="1"
	d="M566.90 229.00v-24.00"/>
<path class="stroke" stroke-width="1"
	d="M566.90 287.00v-24.00"/>
<path class="stroke" stroke-width="1"
	d="M691.60 229.00v-24.00"/>
<path class="stroke" stroke-width="1"
	d="M691.60 287.00v-24.00"/>
<path d="m10.00 229.00
	h681.60
	M10.00 223.00
	h681.60
	M10.00 217.00
	h681.60
	M10.00 211.00
	h681.60
	M10.00 205.00
	h681.60
	" class="stroke"/>
<path d="m10.00 287.00
	h681.60
	M10.00 281.00
	h681.60
	M10.00 275.00
	h681.60
	M10.00 269.00
	h681.60
	M10.00 263.00
	h681.60
	" class="stroke"/>
</g>
<g stroke-width="0.70" style="font:bold 13.00px Times">
<text x="54.00" y="200.40">ii<tspan
	 style="font:italic 11.00px Times">m⁷¹</tspan></text>
</g>
<g stroke-width="0.70" style="font:bold 13.00px Times">
<text x="160.30" y="192.40">vi<tspan
	 style="font:italic 11.00px Times">m⁷¹</tspan></text>
</g>
<g stroke-width="0.70" style="font:bold 13.00px Times">
<text x="287.10" y="200.40">V<tspan
	 style="font:italic 11.00px Times">⁷</tspan></text>
</g>
<g stroke-width="0.70" style="font:bold 13.00px Times">
<text x="347.50" y="195.40">iii<tspan
	 style="font:italic 11.00px Times">m⁷</tspan></text>
</g>
<g stroke-width="0.70" style="font:bold 13.00px Times">
<text x="459.40" y="198.40">ii<tspan
	 style="font:italic 11.00px Times">m⁷</tspan></text>
</g>
<g stroke-width="0.70" style="font:bold 13.00px Times">
<text x="586.20" y="200.40">I<tspan
	 style="font:italic 11.00px Times">Δ⁷</tspan></text>
</g>
<g stroke-width="0.70" style="font:italic 11.00px Times">
<use x="22.00" y="223.00" xlink:href="#tclef"/>
<use x="62.00" y="211.00" xlink:href="#hd"/>
<circle class="fill" cx="69.70" cy="208.00" r="1.2"/>
<path d="M58.50 211.00v21.00" class="stroke"/>
<use x="93.10" y="214.00" xlink:href="#hd"/>
<path d="M89.60 214.00v21.00" class="stroke"/>
<path class="fill"
	d="M89.60 235.00c0.6 -5.6 9.6 -9 5.6 -18.4
	1.6 6 -1.3 11.6 -5.6 12.8
"/>
<use x="112.30" y="217.00" xlink:href="#hd"/>
<path d="M108.80 217.00v21.00" class="stroke"/>
<use x="136.40" y="223.00" xlink:href="#hd"/>
<path d="M139.90 223.00v-21.00" class="stroke"/>
<use x="168.30" y="220.00" xlink:href="#hd"/>
<path d="M171.80 220.00v-21.00" class="stroke"/>
<use x="195.00" y="229.00" xlink:href="#hd"/>
<path d="M198.50 229.00v-21.00" class="stroke"/>
<use x="221.90" y="223.00" xlink:href="#hd"/>
<path d="M225.40 223.00v-21.00" class="stroke"/>
<use x="248.60" y="226.00" xlink:href="#hd"/>
<path d="M252.10 226.00v-21.00" class="stroke"/>
<use x="294.00" y="223.00" xlink:href="#HD"/>
<use x="355.50" y="223.00" xlink:href="#hd"/>
<path d="M359.00 223.00v-21.00" class="stroke"/>
<use x="382.20" y="223.00" xlink:href="#hd"/>
<path d="M385.70 223.00v-21.00" class="stroke"/>
<use x="408.90" y="223.00" xlink:href="#hd"/>
<path d="M412.40 223.00v-21.00" class="stroke"/>
<use x="435.60" y="220.00" xlink:href="#hd"/>
<path d="M439.10 220.00v-21.00" class="stroke"/>
<use x="467.40" y="226.00" xlink:href="#hd"/>
<path d="M470.90 226.00v-21.00" class="stroke"/>
<use x="494.10" y="226.00" xlink:href="#hd"/>
<path d="M497.60 226.00v-21.00" class="stroke"/>
<use x="520.80" y="226.00" xlink:href="#hd"/>
<path d="M524.30 226.00v-21.00" class="stroke"/>
<use x="547.50" y="223.00" xlink:href="#hd"/>
<path d="M551.00 223.00v-21.00" class="stroke"/>
<use x="591.90" y="229.00" xlink:href="#hd"/>
<path d="M595.40 229.00v-21.00" class="stroke"/>
<use x="618.60" y="223.00" xlink:href="#hd"/>
<path d="M622.10 223.00v-21.00" class="stroke"/>
<use x="645.20" y="220.00" xlink:href="#hd"/>
<path d="M648.70 220.00v-21.00" class="stroke"/>
<use x="672.20" y="214.00" xlink:href="#hd"/>
<path d="M668.70 214.00v21.00" class="stroke"/>
<use x="22.00" y="269.00" xlink:href="#bclef"/>
<use x="63.00" y="293.00" xlink:href="#hl1"/>
<use x="63.00" y="299.00" xlink:href="#hl1"/>
<use x="63.00" y="305.00" xlink:href="#hl1"/>
<use x="63.00" y="311.00" xlink:href="#hl1"/>
<use x="63.00" y="317.00" xlink:href="#hl1"/>
<use x="63.00" y="317.00" xlink:href="#HD"/>
<use x="63.00" y="296.00" xlink:href="#HD"/>
<use x="63.00" y="290.00" xlink:href="#HD"/>
<use x="63.00" y="284.00" xlink:href="#HD"/>
<use x="63.00" y="278.00" xlink:href="#HD"/>
<use x="168.30" y="284.00" xlink:href="#hd"/>
<path d="M171.80 284.00v-21.00" class="stroke"/>
<use x="195.00" y="278.00" xlink:href="#hd"/>
<path d="M198.50 278.00v-21.00" class="stroke"/>
<use x="221.90" y="272.00" xlink:href="#hd"/>
<path d="M218.40 272.00v21.00" class="stroke"/>
<use x="248.60" y="266.00" xlink:href="#hd"/>
<path d="M245.10 266.00v21.00" class="stroke"/>
<use x="294.00" y="293.00" xlink:href="#hl1"/>
<use x="294.00" y="299.00" xlink:href="#hl1"/>
<use x="294.00" y="305.00" xlink:href="#hl1"/>
<use x="294.00" y="308.00" xlink:href="#HD"/>
<use x="294.00" y="287.00" xlink:href="#HD"/>
<use x="294.00" y="281.00" xlink:href="#HD"/>
<use x="294.00" y="275.00" xlink:href="#HD"/>
<use x="294.00" y="269.00" xlink:href="#HD"/>
<use x="356.50" y="293.00" xlink:href="#hl1"/>
<use x="356.50" y="299.00" xlink:href="#hl1"/>
<use x="356.50" y="305.00" xlink:href="#hl1"/>
<use x="356.50" y="311.00" xlink:href="#hl1"/>
<use x="356.50" y="314.00" xlink:href="#HD"/>
<use x="356.50" y="293.00" xlink:href="#HD"/>
<use x="356.50" y="287.00" xlink:href="#HD"/>
<use x="356.50" y="281.00" xlink:href="#HD"/>
<use x="356.50" y="275.00" xlink:href="#HD"/>
<use x="467.40" y="293.00" xlink:href="#hl"/>
<use x="467.40" y="296.00" xlink:href="#hd"/>
<path d="M470.90 296.00v-21.00" class="stroke"/>
<use x="494.10" y="290.00" xlink:href="#hd"/>
<path d="M497.60 290.00v-21.00" class="stroke"/>
<use x="520.80" y="284.00" xlink:href="#hd"/>
<path d="M524.30 284.00v-21.00" class="stroke"/>
<use x="547.50" y="278.00" xlink:href="#hd"/>
<path d="M551.00 278.00v-21.00" class="stroke"/>
<use x="592.90" y="293.00" xlink:href="#hl1"/>
<use x="592.90" y="299.00" xlink:href="#hl1"/>
<use x="592.90" y="305.00" xlink:href="#hl1"/>
<use x="592.90" y="311.00" xlink:href="#hl1"/>
<use x="592.90" y="317.00" xlink:href="#hl1"/>
<use x="592.90" y="320.00" xlink:href="#HD"/>
<use x="592.90" y="299.00" xlink:href="#HD"/>
<use x="592.90" y="293.00" xlink:href="#HD"/>
<use x="592.90" y="287.00" xlink:href="#HD"/>
<use x="592.90" y="281.00" xlink:href="#HD"/>
<g transform="rotate(270)">
<use x="-320.00" y="49.50" xlink:href="#ltr"/>
<use x="-314.00" y="49.50" xlink:href="#ltr"/>
<use x="-308.00" y="49.50" xlink:href="#ltr"/>
<use x="-302.00" y="49.50" xlink:href="#ltr"/>
<use x="-296.00" y="49.50" xlink:href="#ltr"/>
<use x="-290.00" y="49.50" xlink:href="#ltr"/>
<use x="-284.00" y="49.50" xlink:href="#ltr"/>
<use x="-278.00" y="49.50" xlink:href="#ltr"/>
</g>
<g transform="rotate(270)">
<use x="-311.00" y="280.50" xlink:href="#ltr"/>
<use x="-305.00" y="280.50" xlink:href="#ltr"/>
<use x="-299.00" y="280.50" xlink:href="#ltr"/>
<use x="-293.00" y="280.50" xlink:href="#ltr"/>
<use x="-287.00" y="280.50" xlink:href="#ltr"/>
<use x="-281.00" y="280.50" xlink:href="#ltr"/>
<use x="-275.00" y="280.50" xlink:href="#ltr"/>
<use x="-269.00" y="280.50" xlink:href="#ltr"/>
</g>
<g transform="rotate(270)">
<use x="-317.00" y="343.00" xlink:href="#ltr"/>
<use x="-311.00" y="343.00" xlink:href="#ltr"/>
<use x="-305.00" y="343.00" xlink:href="#ltr"/>
<use x="-299.00" y="343.00" xlink:href="#ltr"/>
<use x="-293.00" y="343.00" xlink:href="#ltr"/>
<use x="-287.00" y="343.00" xlink:href="#ltr"/>
<use x="-281.00" y="343.00" xlink:href="#ltr"/>
<use x="-275.00" y="343.00" xlink:href="#ltr"/>
</g>
<g transform="rotate(270)">
<use x="-323.00" y="579.40" xlink:href="#ltr"/>
<use x="-317.00" y="579.40" xlink:href="#ltr"/>
<use x="-311.00" y="579.40" xlink:href="#ltr"/>
<use x="-305.00" y="579.40" xlink:href="#ltr"/>
<use x="-299.00" y="579.40" xlink:href="#ltr"/>
<use x="-293.00" y="579.40" xlink:href="#ltr"/>
<use x="-287.00" y="579.40" xlink:href="#ltr"/>
<use x="-281.00" y="579.40" xlink:href="#ltr"/>
</g>
</g>
<g stroke-width="0.70" style="font:italic 11.00px Times">
<path class="stroke" stroke-width="1"
	d="M10.00 438.40v-82.00"/>
<g transform="translate(10.00,356.40) scale(1,0.82)">
	<use xlink:href="#brace"/>
</g>
<path class="stroke" stroke-width="1"
	d="M154.40 380.40v-24.00"/>
<path class="stroke" stroke-width="1"
	d="M154.40 438.40v-24.00"/>
<path class="stroke" stroke-width="1"
	d="M235.40 380.40v-24.00"/>
<path class="stroke" stroke-width="1"
	d="M235.40 438.40v-24.00"/>
<path d="m10.00 380.40
	h225.40
	M10.00 374.40
	h225.40
	M10.00 368.40
	h225.40
	M10.00 362.40
	h225.40
	M10.00 356.40
	h225.40
	" class="stroke"/>
<path d="m10.00 438.40
	h225.40
	M10.00 432.40
	h225.40
	M10.00 426.40
	h225.40
	M10.00 420.40
	h225.40
	M10.00 414.40
	h225.40
	" class="stroke"/>
</g>
<g stroke-width="0.70" style="font:bold 13.00px Times">
<text x="56.10" y="351.80">V<tspan
	 style="font:italic 11.00px Times">⁷</tspan></text>
</g>
<g stroke-width="0.70" style="font:bold 13.00px Times">
<text x="173.70" y="335.80">I<tspan
	 style="font:italic 11.00px Times">Δ⁷</tspan></text>
</g>
<g stroke-width="0.70" style="font:italic 11.00px Times">
<use x="22.00" y="374.40" xlink:href="#tclef"/>
<defs>
<path id="Hd" class="fill" d="m3 -1.6
	c-1 -1.8 -7 1.4 -6 3.2
	1 1.8 7 -1.4 6 -3.2
	m0.5 -0.3
	c2 3.8 -5 7.6 -7 3.8
	-2 -3.8 5 -7.6 7 -3.8"/>
</defs>
<use x="62.00" y="362.40" xlink:href="#Hd"/>
<circle class="fill" cx="71.70" cy="359.40" r="1.2"/>
<path d="M58.50 362.40v21.00" class="stroke"/>
<use x="126.40" y="368.40" xlink:href="#hd"/>
<path d="M122.90 368.40v21.00" class="stroke"/>
<use x="180.40" y="350.40" xlink:href="#hl1"/>
<use x="180.40" y="344.40" xlink:href="#hl1"/>
<use x="180.40" y="344.40" xlink:href="#HD"/>
<use x="180.40" y="365.40" xlink:href="#HD"/>
<use x="22.00" y="420.40" xlink:href="#bclef"/>
<use x="63.00" y="444.40" xlink:href="#hl1"/>
<use x="63.00" y="450.40" xlink:href="#hl1"/>
<use x="63.00" y="456.40" xlink:href="#hl1"/>
<use x="63.00" y="459.40" xlink:href="#HD"/>
<use x="63.00" y="438.40" xlink:href="#HD"/>
<use x="63.00" y="432.40" xlink:href="#HD"/>
<use x="63.00" y="426.40" xlink:href="#HD"/>
<use x="63.00" y="420.40" xlink:href="#HD"/>
<use x="180.40" y="444.40" xlink:href="#hl1"/>
<use x="180.40" y="450.40" xlink:href="#hl1"/>
<use x="180.40" y="456.40" xlink:href="#hl1"/>
<use x="180.40" y="462.40" xlink:href="#hl1"/>
<use x="180.40" y="468.40" xlink:href="#hl1"/>
<use x="180.40" y="471.40" xlink:href="#HD"/>
<use x="180.40" y="450.40" xlink:href="#HD"/>
<use x="180.40" y="444.40" xlink:href="#HD"/>
<use x="180.40" y="438.40" xlink:href="#HD"/>
<use x="180.40" y="432.40" xlink:href="#HD"/>
<g transform="rotate(270)">
<use x="-462.40" y="49.50" xlink:href="#ltr"/>
<use x="-456.40" y="49.50" xlink:href="#ltr"/>
<use x="-450.40" y="49.50" xlink:href="#ltr"/>
<use x="-444.40" y="49.50" xlink:href="#ltr"/>
<use x="-438.40" y="49.50" xlink:href="#ltr"/>
<use x="-432.40" y="49.50" xlink:href="#ltr"/>
<use x="-426.40" y="49.50" xlink:href="#ltr"/>
<use x="-420.40" y="49.50" xlink:href="#ltr"/>
</g>
<g transform="rotate(270)">
<use x="-474.40" y="166.90" xlink:href="#ltr"/>
<use x="-468.40" y="166.90" xlink:href="#ltr"/>
<use x="-462.40" y="166.90" xlink:href="#ltr"/>
<use x="-456.40" y="166.90" xlink:href="#ltr"/>
<use x="-450.40" y="166.90" xlink:href="#ltr"/>
<use x="-444.40" y="166.90" xlink:href="#ltr"/>
<use x="-438.40" y="166.90" xlink:href="#ltr"/>
<use x="-432.40" y="166.90" xlink:href="#ltr"/>
</g>
</g>
</svg>
