<?xml version="1.0" standalone="no"?>
<!DOCTYPE svg PUBLIC "-//W3C//DTD SVG 1.1//EN"
	"http://www.w3.org/Graphics/SVG/1.1/DTD/svg11.dtd">
<svg xmlns="http://www.w3.org/2000/svg" version="1.1"
	xmlns:xlink="http://www.w3.org/1999/xlink"
	color="black"
	width="701.60px" height="722.40px" viewBox="0 0 701.60 722.40" preserveAspectRatio="xMidYMid meet">
<style type="text/css">
.fill {fill: currentColor}
.stroke {stroke: currentColor; fill: none}
text{white-space: pre}
</style>
<title>/tmp/reharm_hymnal_L3/gabriel_s_message.abc (1) tune 1</title>
<!-- Creator: abcm2ps-8.14.11 -->
<!-- CreationDate: Apr 24, 2026 15:32 -->
<!-- CommandLine: /tmp/reharm_hymnal_L3/gabriel_s_message.abc -g -O /tmp/reharm_hymnal_L3/gabriel_s_message -->
<g stroke-width="0.70">
<!-- title: 070. Gabriel's Message -->
</g>
<g stroke-width="0.70" style="font:20.00px Times">
<text x="350.80" y="22.00" text-anchor="middle">070. Gabriel&apos;s Message</text>
</g>
<g stroke-width="0.70" style="font:20.00px Times">
<path class="stroke" stroke-width="1"
	d="M10.00 145.40v-82.00"/>
<defs>
<path id="brace" class="fill" d="m-2.5 101
	c-4.5 -4.6 -7.5 -12.2 -4.4 -26.8
	3.5 -14.3 3.2 -21.7 -2.1 -24.2
	7.4 2.4 7.3 14.2 3.5 29.5
	-2.7 9.5 -1.5 16.2 3 21.5
	M-2.5 1c-4.5 4.6 -7.5 12.2 -4.4 26.8
	c3.5 14.3 3.2 21.7 -2.1 24.2
	7.4 -2.4 7.3 -14.2 3.5 -29.5
	-2.7 -9.5 -1.5 -16.2 3 -21.5"/>
</defs>
<g transform="translate(10.00,63.40) scale(1,0.82)">
	<use xlink:href="#brace"/>
</g>
<path class="stroke" stroke-width="1"
	d="M137.70 87.40v-24.00"/>
<path class="stroke" stroke-width="1"
	d="M137.70 145.40v-24.00"/>
<path class="stroke" stroke-width="1"
	d="M238.20 87.40v-24.00"/>
<path class="stroke" stroke-width="1"
	d="M238.20 145.40v-24.00"/>
<path class="stroke" stroke-width="1"
	d="M326.90 87.40v-24.00"/>
<path class="stroke" stroke-width="1"
	d="M326.90 145.40v-24.00"/>
<path class="stroke" stroke-width="1"
	d="M421.40 87.40v-24.00"/>
<path class="stroke" stroke-width="1"
	d="M421.40 145.40v-24.00"/>
<path class="stroke" stroke-width="1"
	d="M522.30 87.40v-24.00"/>
<path class="stroke" stroke-width="1"
	d="M522.30 145.40v-24.00"/>
<path class="stroke" stroke-width="1"
	d="M623.10 87.40v-24.00"/>
<path class="stroke" stroke-width="1"
	d="M623.10 145.40v-24.00"/>
<path class="stroke" stroke-width="1"
	d="M691.60 87.40v-24.00"/>
<path class="stroke" stroke-width="1"
	d="M691.60 145.40v-24.00"/>
<path d="m10.00 87.40
	h681.60
	M10.00 81.40
	h681.60
	M10.00 75.40
	h681.60
	M10.00 69.40
	h681.60
	M10.00 63.40
	h681.60
	" class="stroke"/>
<path d="m10.00 145.40
	h681.60
	M10.00 139.40
	h681.60
	M10.00 133.40
	h681.60
	M10.00 127.40
	h681.60
	M10.00 121.40
	h681.60
	" class="stroke"/>
</g>
<g stroke-width="0.70" style="font:bold 13.00px Times">
<text x="65.00" y="50.80">iii<tspan
	 style="font:italic 11.00px Times">m⁷</tspan></text>
</g>
<g stroke-width="0.70" style="font:bold 13.00px Times">
<text x="142.20" y="56.80">vi<tspan
	 style="font:italic 11.00px Times">m⁷</tspan></text>
</g>
<g stroke-width="0.70" style="font:bold 13.00px Times">
<text x="254.20" y="58.80">ii<tspan
	 style="font:italic 11.00px Times">m⁷¹</tspan></text>
</g>
<g stroke-width="0.70" style="font:bold 13.00px Times">
<text x="343.90" y="58.80">vi<tspan
	 style="font:italic 11.00px Times">m⁷</tspan></text>
</g>
<g stroke-width="0.70" style="font:bold 13.00px Times">
<text x="428.70" y="47.80">I<tspan
	 style="font:italic 11.00px Times">Δ⁷</tspan></text>
</g>
<g stroke-width="0.70" style="font:bold 13.00px Times">
<text x="527.30" y="58.80">iii<tspan
	 style="font:italic 11.00px Times">m⁷</tspan></text>
</g>
<g stroke-width="0.70" style="font:bold 13.00px Times">
<text x="630.40" y="58.80">I<tspan
	 style="font:italic 11.00px Times">Δ⁷</tspan></text>
</g>
<g stroke-width="0.70" style="font:italic 11.00px Times">
<defs>
<path id="utclef" class="fill" d="m-50 -90
	c-72 -41 -72 -158 52 -188
	150 -10 220 188 90 256
	-114 52 -275 0 -293 -136
	-15 -181 93 -229 220 -334
	88 -87 79 -133 62 -210
	-51 33 -94 105 -89 186
	17 267 36 374 49 574
	6 96 -19 134 -77 135
	-80 1 -126 -93 -61 -133
	85 -41 133 101 31 105
	23 17 92 37 90 -92
	-10 -223 -39 -342 -50 -617
	0 -90 0 -162 96 -232
	56 72 63 230 22 289
	-74 106 -257 168 -255 316
	9 153 148 185 252 133
	86 -65 29 -192 -80 -176
	-71 12 -105 67 -59 124"/>
<use id="tclef" transform="translate(0,6) scale(0.045)"
	xlink:href="#utclef"/>
</defs>
<use x="22.00" y="81.40" xlink:href="#tclef"/>
<g style="font:bold 16px serif"
	transform="translate(40.50,86.90) scale(1.2,1)">
	<text text-anchor="middle">4</text>
	<text y="-12" text-anchor="middle">3</text>
</g>
<defs>
<ellipse id="hd" rx="4.1" ry="2.9"
	transform="rotate(-20)" class="fill"/>
</defs>
<use x="73.00" y="87.40" xlink:href="#hd"/>
<path d="M76.50 87.40v-21.00" class="stroke"/>
<defs>
<path id="Hd" class="fill" d="m3 -1.6
	c-1 -1.8 -7 1.4 -6 3.2
	1 1.8 7 -1.4 6 -3.2
	m0.5 -0.3
	c2 3.8 -5 7.6 -7 3.8
	-2 -3.8 5 -7.6 7 -3.8"/>
</defs>
<use x="105.40" y="78.40" xlink:href="#Hd"/>
<path d="M108.90 78.40v-21.00" class="stroke"/>
<use x="150.20" y="72.40" xlink:href="#hd"/>
<path d="M146.70 72.40v21.00" class="stroke"/>
<use x="182.60" y="75.40" xlink:href="#Hd"/>
<path d="M179.10 75.40v21.00" class="stroke"/>
<use x="262.20" y="69.40" xlink:href="#hd"/>
<path d="M258.70 69.40v21.00" class="stroke"/>
<use x="294.60" y="72.40" xlink:href="#Hd"/>
<path d="M291.10 72.40v21.00" class="stroke"/>
<use x="351.90" y="75.40" xlink:href="#hd"/>
<path d="M348.40 75.40v21.00" class="stroke"/>
<use x="384.30" y="78.40" xlink:href="#Hd"/>
<circle class="fill" cx="393.00" cy="78.40" r="1.2"/>
<path d="M387.80 78.40v-21.00" class="stroke"/>
<use x="434.40" y="75.40" xlink:href="#Hd"/>
<circle class="fill" cx="443.10" cy="72.40" r="1.2"/>
<path d="M437.90 75.40v-21.00" class="stroke"/>
<use x="535.30" y="87.40" xlink:href="#Hd"/>
<circle class="fill" cx="544.00" cy="84.40" r="1.2"/>
<path d="M538.80 87.40v-21.00" class="stroke"/>
<use x="636.10" y="87.40" xlink:href="#Hd"/>
<path d="M639.60 87.40v-21.00" class="stroke"/>
<defs>
<path id="ubclef" class="fill" d="m-200 -87
	c124 -35 222 -78 254 -236
	43 -228 -167 -246 -192 -103
	59 -80 157 22 92 78
	-62 47 -115 -22 -106 -88
	21 -141 270 -136 274 52
	-1 175 -106 264 -322 297
	m357 -250
	c0 -36 51 -34 51 0
	0 37 -51 36 -51 0
	m-2 -129
	c0 -36 51 -34 51 0
	0 38 -51 37 -51 0"/>
<use id="bclef" transform="translate(0,18) scale(0.045)"
	xlink:href="#ubclef"/>
</defs>
<use x="22.00" y="127.40" xlink:href="#bclef"/>
<g style="font:bold 16px serif"
	transform="translate(40.50,144.90) scale(1.2,1)">
	<text text-anchor="middle">4</text>
	<text y="-12" text-anchor="middle">3</text>
</g>
<defs>
<path id="hl" class="stroke" d="m-6 0h12"/>
</defs>
<use x="73.00" y="151.40" xlink:href="#hl"/>
<use x="73.00" y="157.40" xlink:href="#hl"/>
<use x="73.00" y="163.40" xlink:href="#hl"/>
<use x="73.00" y="169.40" xlink:href="#hl"/>
<use x="73.00" y="172.40" xlink:href="#Hd"/>
<circle class="fill" cx="82.70" cy="172.40" r="1.2"/>
<path d="M76.50 172.40v-58.00" class="stroke"/>
<use x="73.00" y="151.40" xlink:href="#Hd"/>
<circle class="fill" cx="82.70" cy="148.40" r="1.2"/>
<use x="73.00" y="145.40" xlink:href="#Hd"/>
<circle class="fill" cx="82.70" cy="142.40" r="1.2"/>
<use x="73.00" y="139.40" xlink:href="#Hd"/>
<circle class="fill" cx="82.70" cy="136.40" r="1.2"/>
<use x="73.00" y="133.40" xlink:href="#Hd"/>
<circle class="fill" cx="82.70" cy="130.40" r="1.2"/>
<use x="150.20" y="142.40" xlink:href="#hd"/>
<path d="M153.70 142.40v-21.00" class="stroke"/>
<use x="182.60" y="136.40" xlink:href="#hd"/>
<path d="M186.10 136.40v-21.00" class="stroke"/>
<use x="215.10" y="130.40" xlink:href="#hd"/>
<path d="M211.60 130.40v21.00" class="stroke"/>
<use x="262.20" y="151.40" xlink:href="#hl"/>
<use x="262.20" y="157.40" xlink:href="#hl"/>
<use x="262.20" y="163.40" xlink:href="#hl"/>
<use x="262.20" y="169.40" xlink:href="#hl"/>
<use x="262.20" y="175.40" xlink:href="#hl"/>
<use x="262.20" y="175.40" xlink:href="#Hd"/>
<circle class="fill" cx="270.90" cy="172.40" r="1.2"/>
<path d="M265.70 175.40v-58.00" class="stroke"/>
<use x="262.20" y="154.40" xlink:href="#Hd"/>
<circle class="fill" cx="270.90" cy="154.40" r="1.2"/>
<use x="262.20" y="148.40" xlink:href="#Hd"/>
<circle class="fill" cx="270.90" cy="148.40" r="1.2"/>
<use x="262.20" y="142.40" xlink:href="#Hd"/>
<circle class="fill" cx="270.90" cy="142.40" r="1.2"/>
<use x="262.20" y="136.40" xlink:href="#Hd"/>
<circle class="fill" cx="270.90" cy="136.40" r="1.2"/>
<defs>
<path id="hl1" class="stroke" d="m-7 0h14"/>
</defs>
<use x="352.90" y="151.40" xlink:href="#hl1"/>
<use x="352.90" y="157.40" xlink:href="#hl1"/>
<use x="352.90" y="163.40" xlink:href="#hl1"/>
<defs>
<path id="HD" class="fill" d="m-2.7 -1.4
	c1.5 -2.8 6.9 0 5.3 2.7
	-1.5 2.8 -6.9 0 -5.3 -2.7
	m8.3 1.4
	c0 -1.5 -2.2 -3 -5.6 -3
	-3.4 0 -5.6 1.5 -5.6 3
	0 1.5 2.2 3 5.6 3
	3.4 0 5.6 -1.5 5.6 -3"/>
</defs>
<use x="352.90" y="163.40" xlink:href="#HD"/>
<use x="352.90" y="142.40" xlink:href="#HD"/>
<use x="352.90" y="136.40" xlink:href="#HD"/>
<use x="352.90" y="130.40" xlink:href="#HD"/>
<use x="352.90" y="124.40" xlink:href="#HD"/>
<use x="434.40" y="151.40" xlink:href="#hl"/>
<use x="434.40" y="157.40" xlink:href="#hl"/>
<use x="434.40" y="157.40" xlink:href="#hd"/>
<path d="M437.90 157.40v-24.00" class="stroke"/>
<use x="466.90" y="151.40" xlink:href="#hl"/>
<use x="466.90" y="151.40" xlink:href="#hd"/>
<path d="M470.40 151.40v-21.00" class="stroke"/>
<use x="499.30" y="145.40" xlink:href="#hd"/>
<path d="M502.80 145.40v-21.00" class="stroke"/>
<use x="535.30" y="151.40" xlink:href="#hl"/>
<use x="535.30" y="151.40" xlink:href="#hd"/>
<path d="M538.80 151.40v-21.00" class="stroke"/>
<use x="567.70" y="145.40" xlink:href="#hd"/>
<path d="M571.20 145.40v-21.00" class="stroke"/>
<use x="600.10" y="139.40" xlink:href="#hd"/>
<path d="M603.60 139.40v-21.00" class="stroke"/>
<use x="636.10" y="151.40" xlink:href="#hl"/>
<use x="636.10" y="157.40" xlink:href="#hl"/>
<use x="636.10" y="157.40" xlink:href="#hd"/>
<path d="M639.60 157.40v-24.00" class="stroke"/>
<use x="668.60" y="151.40" xlink:href="#hl"/>
<use x="668.60" y="151.40" xlink:href="#hd"/>
<path d="M672.10 151.40v-21.00" class="stroke"/>
<defs>
<path id="ltr" class="fill"
    d="m0 -0.4c2 -1.5 3.4 -1.9 3.9 0.4
	c0.2 0.8 0.7 0.7 2.1 -0.4
	v0.8c-2 1.5 -3.4 1.9 -3.9 -0.4
	c-0.2 -0.8 -0.7 -0.7 -2.1 0.4z"/>
</defs>
<g transform="rotate(270)">
<use x="-175.40" y="63.00" xlink:href="#ltr"/>
<use x="-169.40" y="63.00" xlink:href="#ltr"/>
<use x="-163.40" y="63.00" xlink:href="#ltr"/>
<use x="-157.40" y="63.00" xlink:href="#ltr"/>
<use x="-151.40" y="63.00" xlink:href="#ltr"/>
<use x="-145.40" y="63.00" xlink:href="#ltr"/>
<use x="-139.40" y="63.00" xlink:href="#ltr"/>
<use x="-133.40" y="63.00" xlink:href="#ltr"/>
</g>
<g transform="rotate(270)">
<use x="-178.40" y="252.20" xlink:href="#ltr"/>
<use x="-172.40" y="252.20" xlink:href="#ltr"/>
<use x="-166.40" y="252.20" xlink:href="#ltr"/>
<use x="-160.40" y="252.20" xlink:href="#ltr"/>
<use x="-154.40" y="252.20" xlink:href="#ltr"/>
<use x="-148.40" y="252.20" xlink:href="#ltr"/>
<use x="-142.40" y="252.20" xlink:href="#ltr"/>
<use x="-136.40" y="252.20" xlink:href="#ltr"/>
</g>
<g transform="rotate(270)">
<use x="-166.40" y="339.40" xlink:href="#ltr"/>
<use x="-160.40" y="339.40" xlink:href="#ltr"/>
<use x="-154.40" y="339.40" xlink:href="#ltr"/>
<use x="-148.40" y="339.40" xlink:href="#ltr"/>
<use x="-142.40" y="339.40" xlink:href="#ltr"/>
<use x="-136.40" y="339.40" xlink:href="#ltr"/>
<use x="-130.40" y="339.40" xlink:href="#ltr"/>
<use x="-124.40" y="339.40" xlink:href="#ltr"/>
</g>
</g>
<g stroke-width="0.70" style="font:italic 11.00px Times">
<path class="stroke" stroke-width="1"
	d="M10.00 286.40v-82.00"/>
<g transform="translate(10.00,204.40) scale(1,0.82)">
	<use xlink:href="#brace"/>
</g>
<path class="stroke" stroke-width="1"
	d="M122.30 228.40v-24.00"/>
<path class="stroke" stroke-width="1"
	d="M122.30 286.40v-24.00"/>
<path class="stroke" stroke-width="1"
	d="M207.60 228.40v-24.00"/>
<path class="stroke" stroke-width="1"
	d="M207.60 286.40v-24.00"/>
<path class="stroke" stroke-width="1"
	d="M293.00 228.40v-24.00"/>
<path class="stroke" stroke-width="1"
	d="M293.00 286.40v-24.00"/>
<path class="stroke" stroke-width="1"
	d="M384.10 228.40v-24.00"/>
<path class="stroke" stroke-width="1"
	d="M384.10 286.40v-24.00"/>
<path class="stroke" stroke-width="1"
	d="M449.70 228.40v-24.00"/>
<path class="stroke" stroke-width="1"
	d="M449.70 286.40v-24.00"/>
<path class="stroke" stroke-width="1"
	d="M540.90 228.40v-24.00"/>
<path class="stroke" stroke-width="1"
	d="M540.90 286.40v-24.00"/>
<path class="stroke" stroke-width="1"
	d="M595.60 228.40v-24.00"/>
<path class="stroke" stroke-width="1"
	d="M595.60 286.40v-24.00"/>
<path class="stroke" stroke-width="1"
	d="M691.60 228.40v-24.00"/>
<path class="stroke" stroke-width="1"
	d="M691.60 286.40v-24.00"/>
<path d="m10.00 228.40
	h681.60
	M10.00 222.40
	h681.60
	M10.00 216.40
	h681.60
	M10.00 210.40
	h681.60
	M10.00 204.40
	h681.60
	" class="stroke"/>
<path d="m10.00 286.40
	h681.60
	M10.00 280.40
	h681.60
	M10.00 274.40
	h681.60
	M10.00 268.40
	h681.60
	M10.00 262.40
	h681.60
	" class="stroke"/>
</g>
<g stroke-width="0.70" style="font:bold 13.00px Times">
<text x="53.00" y="191.80">iii<tspan
	 style="font:italic 11.00px Times">m⁷¹</tspan></text>
</g>
<g stroke-width="0.70" style="font:bold 13.00px Times">
<text x="138.30" y="199.80">vi<tspan
	 style="font:italic 11.00px Times">m⁷</tspan></text>
</g>
<g stroke-width="0.70" style="font:bold 13.00px Times">
<text x="223.60" y="199.80">ii<tspan
	 style="font:italic 11.00px Times">m⁷²</tspan></text>
</g>
<g stroke-width="0.70" style="font:bold 13.00px Times">
<text x="310.00" y="191.80">vii<tspan
	 style="font:italic 11.00px Times">ø⁷¹</tspan></text>
</g>
<g stroke-width="0.70" style="font:bold 13.00px Times">
<text x="389.10" y="191.80">vi<tspan
	 style="font:italic 11.00px Times">m⁷¹</tspan></text>
</g>
<g stroke-width="0.70" style="font:bold 13.00px Times">
<text x="466.70" y="194.80">vi<tspan
	 style="font:italic 11.00px Times">m⁷</tspan></text>
</g>
<g stroke-width="0.70" style="font:bold 13.00px Times">
<text x="556.90" y="191.80">iii<tspan
	 style="font:italic 11.00px Times">m⁷</tspan></text>
</g>
<g stroke-width="0.70" style="font:bold 13.00px Times">
<text x="600.10" y="197.80">vi<tspan
	 style="font:italic 11.00px Times">m⁷</tspan></text>
</g>
<g stroke-width="0.70" style="font:italic 11.00px Times">
<use x="22.00" y="222.40" xlink:href="#tclef"/>
<use x="61.00" y="228.40" xlink:href="#hd"/>
<path d="M64.50 228.40v-21.00" class="stroke"/>
<use x="91.60" y="219.40" xlink:href="#Hd"/>
<path d="M95.10 219.40v-21.00" class="stroke"/>
<use x="146.30" y="213.40" xlink:href="#hd"/>
<path d="M142.80 213.40v21.00" class="stroke"/>
<use x="176.90" y="216.40" xlink:href="#Hd"/>
<path d="M173.40 216.40v21.00" class="stroke"/>
<use x="231.60" y="210.40" xlink:href="#hd"/>
<path d="M228.10 210.40v21.00" class="stroke"/>
<use x="262.30" y="213.40" xlink:href="#Hd"/>
<path d="M258.80 213.40v21.00" class="stroke"/>
<use x="318.00" y="216.40" xlink:href="#hd"/>
<path d="M314.50 216.40v21.00" class="stroke"/>
<use x="348.60" y="219.40" xlink:href="#Hd"/>
<circle class="fill" cx="357.30" cy="219.40" r="1.2"/>
<path d="M352.10 219.40v-21.00" class="stroke"/>
<use x="397.10" y="219.40" xlink:href="#Hd"/>
<path d="M400.60 219.40v-21.00" class="stroke"/>
<use x="474.70" y="222.40" xlink:href="#hd"/>
<path d="M478.20 222.40v-21.00" class="stroke"/>
<use x="505.40" y="219.40" xlink:href="#Hd"/>
<circle class="fill" cx="514.10" cy="219.40" r="1.2"/>
<path d="M508.90 219.40v-21.00" class="stroke"/>
<use x="564.90" y="219.40" xlink:href="#Hd"/>
<path d="M568.40 219.40v-21.00" class="stroke"/>
<use x="608.10" y="213.40" xlink:href="#hd"/>
<path d="M604.60 213.40v21.00" class="stroke"/>
<use x="638.70" y="213.40" xlink:href="#Hd"/>
<path d="M635.20 213.40v21.00" class="stroke"/>
<use x="22.00" y="268.40" xlink:href="#bclef"/>
<use x="61.00" y="292.40" xlink:href="#hl"/>
<use x="61.00" y="298.40" xlink:href="#hl"/>
<use x="61.00" y="304.40" xlink:href="#hl"/>
<use x="61.00" y="310.40" xlink:href="#hl"/>
<use x="61.00" y="313.40" xlink:href="#Hd"/>
<circle class="fill" cx="70.70" cy="313.40" r="1.2"/>
<path d="M64.50 313.40v-58.00" class="stroke"/>
<use x="61.00" y="292.40" xlink:href="#Hd"/>
<circle class="fill" cx="70.70" cy="289.40" r="1.2"/>
<use x="61.00" y="286.40" xlink:href="#Hd"/>
<circle class="fill" cx="70.70" cy="283.40" r="1.2"/>
<use x="61.00" y="280.40" xlink:href="#Hd"/>
<circle class="fill" cx="70.70" cy="277.40" r="1.2"/>
<use x="61.00" y="274.40" xlink:href="#Hd"/>
<circle class="fill" cx="70.70" cy="271.40" r="1.2"/>
<use x="146.30" y="292.40" xlink:href="#hl"/>
<use x="146.30" y="298.40" xlink:href="#hl"/>
<use x="146.30" y="304.40" xlink:href="#hl"/>
<use x="146.30" y="304.40" xlink:href="#Hd"/>
<circle class="fill" cx="155.00" cy="301.40" r="1.2"/>
<path d="M149.80 304.40v-58.00" class="stroke"/>
<use x="146.30" y="283.40" xlink:href="#Hd"/>
<circle class="fill" cx="155.00" cy="283.40" r="1.2"/>
<use x="146.30" y="277.40" xlink:href="#Hd"/>
<circle class="fill" cx="155.00" cy="277.40" r="1.2"/>
<use x="146.30" y="271.40" xlink:href="#Hd"/>
<circle class="fill" cx="155.00" cy="271.40" r="1.2"/>
<use x="146.30" y="265.40" xlink:href="#Hd"/>
<circle class="fill" cx="155.00" cy="265.40" r="1.2"/>
<use x="231.60" y="292.40" xlink:href="#hl"/>
<use x="231.60" y="298.40" xlink:href="#hl"/>
<use x="231.60" y="304.40" xlink:href="#hl"/>
<use x="231.60" y="310.40" xlink:href="#hl"/>
<use x="231.60" y="316.40" xlink:href="#hl"/>
<use x="231.60" y="316.40" xlink:href="#Hd"/>
<circle class="fill" cx="240.30" cy="313.40" r="1.2"/>
<path d="M235.10 316.40v-58.00" class="stroke"/>
<use x="231.60" y="295.40" xlink:href="#Hd"/>
<circle class="fill" cx="240.30" cy="295.40" r="1.2"/>
<use x="231.60" y="289.40" xlink:href="#Hd"/>
<circle class="fill" cx="240.30" cy="289.40" r="1.2"/>
<use x="231.60" y="283.40" xlink:href="#Hd"/>
<circle class="fill" cx="240.30" cy="283.40" r="1.2"/>
<use x="231.60" y="277.40" xlink:href="#Hd"/>
<circle class="fill" cx="240.30" cy="277.40" r="1.2"/>
<use x="319.00" y="292.40" xlink:href="#hl1"/>
<use x="319.00" y="298.40" xlink:href="#hl1"/>
<use x="319.00" y="301.40" xlink:href="#HD"/>
<use x="319.00" y="280.40" xlink:href="#HD"/>
<use x="319.00" y="274.40" xlink:href="#HD"/>
<use x="319.00" y="268.40" xlink:href="#HD"/>
<use x="319.00" y="262.40" xlink:href="#HD"/>
<use x="397.10" y="283.40" xlink:href="#hd"/>
<path d="M400.60 283.40v-21.00" class="stroke"/>
<use x="427.70" y="277.40" xlink:href="#hd"/>
<path d="M431.20 277.40v-21.00" class="stroke"/>
<use x="475.70" y="292.40" xlink:href="#hl1"/>
<use x="475.70" y="298.40" xlink:href="#hl1"/>
<use x="475.70" y="304.40" xlink:href="#hl1"/>
<use x="475.70" y="304.40" xlink:href="#HD"/>
<use x="475.70" y="283.40" xlink:href="#HD"/>
<use x="475.70" y="277.40" xlink:href="#HD"/>
<use x="475.70" y="271.40" xlink:href="#HD"/>
<use x="475.70" y="265.40" xlink:href="#HD"/>
<use x="564.90" y="292.40" xlink:href="#hl"/>
<use x="564.90" y="298.40" xlink:href="#hl"/>
<use x="564.90" y="304.40" xlink:href="#hl"/>
<use x="564.90" y="310.40" xlink:href="#hl"/>
<use x="564.90" y="313.40" xlink:href="#Hd"/>
<path d="M568.40 313.40v-58.00" class="stroke"/>
<use x="564.90" y="292.40" xlink:href="#Hd"/>
<use x="564.90" y="286.40" xlink:href="#Hd"/>
<use x="564.90" y="280.40" xlink:href="#Hd"/>
<use x="564.90" y="274.40" xlink:href="#Hd"/>
<use x="608.10" y="283.40" xlink:href="#hd"/>
<path d="M611.60 283.40v-21.00" class="stroke"/>
<use x="638.70" y="277.40" xlink:href="#hd"/>
<path d="M642.20 277.40v-21.00" class="stroke"/>
<use x="669.60" y="271.40" xlink:href="#hd"/>
<path d="M666.10 271.40v21.00" class="stroke"/>
<g transform="rotate(270)">
<use x="-316.40" y="51.00" xlink:href="#ltr"/>
<use x="-310.40" y="51.00" xlink:href="#ltr"/>
<use x="-304.40" y="51.00" xlink:href="#ltr"/>
<use x="-298.40" y="51.00" xlink:href="#ltr"/>
<use x="-292.40" y="51.00" xlink:href="#ltr"/>
<use x="-286.40" y="51.00" xlink:href="#ltr"/>
<use x="-280.40" y="51.00" xlink:href="#ltr"/>
<use x="-274.40" y="51.00" xlink:href="#ltr"/>
</g>
<g transform="rotate(270)">
<use x="-307.40" y="136.30" xlink:href="#ltr"/>
<use x="-301.40" y="136.30" xlink:href="#ltr"/>
<use x="-295.40" y="136.30" xlink:href="#ltr"/>
<use x="-289.40" y="136.30" xlink:href="#ltr"/>
<use x="-283.40" y="136.30" xlink:href="#ltr"/>
<use x="-277.40" y="136.30" xlink:href="#ltr"/>
<use x="-271.40" y="136.30" xlink:href="#ltr"/>
<use x="-265.40" y="136.30" xlink:href="#ltr"/>
</g>
<g transform="rotate(270)">
<use x="-319.40" y="221.60" xlink:href="#ltr"/>
<use x="-313.40" y="221.60" xlink:href="#ltr"/>
<use x="-307.40" y="221.60" xlink:href="#ltr"/>
<use x="-301.40" y="221.60" xlink:href="#ltr"/>
<use x="-295.40" y="221.60" xlink:href="#ltr"/>
<use x="-289.40" y="221.60" xlink:href="#ltr"/>
<use x="-283.40" y="221.60" xlink:href="#ltr"/>
<use x="-277.40" y="221.60" xlink:href="#ltr"/>
</g>
<g transform="rotate(270)">
<use x="-304.40" y="305.50" xlink:href="#ltr"/>
<use x="-298.40" y="305.50" xlink:href="#ltr"/>
<use x="-292.40" y="305.50" xlink:href="#ltr"/>
<use x="-286.40" y="305.50" xlink:href="#ltr"/>
<use x="-280.40" y="305.50" xlink:href="#ltr"/>
<use x="-274.40" y="305.50" xlink:href="#ltr"/>
<use x="-268.40" y="305.50" xlink:href="#ltr"/>
<use x="-262.40" y="305.50" xlink:href="#ltr"/>
</g>
<g transform="rotate(270)">
<use x="-307.40" y="462.20" xlink:href="#ltr"/>
<use x="-301.40" y="462.20" xlink:href="#ltr"/>
<use x="-295.40" y="462.20" xlink:href="#ltr"/>
<use x="-289.40" y="462.20" xlink:href="#ltr"/>
<use x="-283.40" y="462.20" xlink:href="#ltr"/>
<use x="-277.40" y="462.20" xlink:href="#ltr"/>
<use x="-271.40" y="462.20" xlink:href="#ltr"/>
<use x="-265.40" y="462.20" xlink:href="#ltr"/>
</g>
<g transform="rotate(270)">
<use x="-316.40" y="554.90" xlink:href="#ltr"/>
<use x="-310.40" y="554.90" xlink:href="#ltr"/>
<use x="-304.40" y="554.90" xlink:href="#ltr"/>
<use x="-298.40" y="554.90" xlink:href="#ltr"/>
<use x="-292.40" y="554.90" xlink:href="#ltr"/>
<use x="-286.40" y="554.90" xlink:href="#ltr"/>
<use x="-280.40" y="554.90" xlink:href="#ltr"/>
<use x="-274.40" y="554.90" xlink:href="#ltr"/>
</g>
</g>
<g stroke-width="0.70" style="font:italic 11.00px Times">
<path class="stroke" stroke-width="1"
	d="M10.00 427.40v-82.00"/>
<g transform="translate(10.00,345.40) scale(1,0.82)">
	<use xlink:href="#brace"/>
</g>
<path class="stroke" stroke-width="1"
	d="M137.80 369.40v-24.00"/>
<path class="stroke" stroke-width="1"
	d="M137.80 427.40v-24.00"/>
<path class="stroke" stroke-width="1"
	d="M241.60 369.40v-24.00"/>
<path class="stroke" stroke-width="1"
	d="M241.60 427.40v-24.00"/>
<path class="stroke" stroke-width="1"
	d="M345.50 369.40v-24.00"/>
<path class="stroke" stroke-width="1"
	d="M345.50 427.40v-24.00"/>
<path class="stroke" stroke-width="1"
	d="M483.00 369.40v-24.00"/>
<path class="stroke" stroke-width="1"
	d="M483.00 427.40v-24.00"/>
<path class="stroke" stroke-width="1"
	d="M587.30 369.40v-24.00"/>
<path class="stroke" stroke-width="1"
	d="M587.30 427.40v-24.00"/>
<path class="stroke" stroke-width="1"
	d="M691.60 369.40v-24.00"/>
<path class="stroke" stroke-width="1"
	d="M691.60 427.40v-24.00"/>
<path d="m10.00 369.40
	h681.60
	M10.00 363.40
	h681.60
	M10.00 357.40
	h681.60
	M10.00 351.40
	h681.60
	M10.00 345.40
	h681.60
	" class="stroke"/>
<path d="m10.00 427.40
	h681.60
	M10.00 421.40
	h681.60
	M10.00 415.40
	h681.60
	M10.00 409.40
	h681.60
	M10.00 403.40
	h681.60
	" class="stroke"/>
</g>
<g stroke-width="0.70" style="font:bold 13.00px Times">
<text x="40.80" y="340.80">I<tspan
	 style="font:italic 11.00px Times">Δ⁷</tspan></text>
</g>
<g stroke-width="0.70" style="font:bold 13.00px Times">
<text x="142.30" y="338.80">ii<tspan
	 style="font:italic 11.00px Times">m⁷</tspan></text>
</g>
<g stroke-width="0.70" style="font:bold 13.00px Times">
<text x="246.10" y="340.80">vii<tspan
	 style="font:italic 11.00px Times">ø⁷¹</tspan></text>
</g>
<g stroke-width="0.70" style="font:bold 13.00px Times">
<text x="352.20" y="338.80">I<tspan
	 style="font:italic 11.00px Times">Δ⁷</tspan></text>
</g>
<g stroke-width="0.70" style="font:bold 13.00px Times">
<text x="488.00" y="338.80">ii<tspan
	 style="font:italic 11.00px Times">m⁷¹</tspan></text>
</g>
<g stroke-width="0.70" style="font:bold 13.00px Times">
<text x="592.30" y="340.80">iii<tspan
	 style="font:italic 11.00px Times">m⁷</tspan></text>
</g>
<g stroke-width="0.70" style="font:italic 11.00px Times">
<use x="22.00" y="363.40" xlink:href="#tclef"/>
<use x="46.50" y="351.40" xlink:href="#hd"/>
<path d="M43.00 351.40v21.00" class="stroke"/>
<use x="80.30" y="354.40" xlink:href="#Hd"/>
<path d="M76.80 354.40v21.00" class="stroke"/>
<use x="150.30" y="357.40" xlink:href="#hd"/>
<path d="M146.80 357.40v21.00" class="stroke"/>
<use x="184.10" y="354.40" xlink:href="#Hd"/>
<path d="M180.60 354.40v21.00" class="stroke"/>
<use x="254.10" y="351.40" xlink:href="#hd"/>
<path d="M250.60 351.40v21.00" class="stroke"/>
<use x="287.90" y="348.40" xlink:href="#Hd"/>
<path d="M284.40 348.40v21.00" class="stroke"/>
<use x="358.00" y="348.40" xlink:href="#hd"/>
<path d="M354.50 348.40v21.00" class="stroke"/>
<use x="391.70" y="351.40" xlink:href="#Hd"/>
<circle class="fill" cx="400.40" cy="348.40" r="1.2"/>
<path d="M388.20 351.40v21.00" class="stroke"/>
<use x="496.00" y="354.40" xlink:href="#Hd"/>
<circle class="fill" cx="504.70" cy="354.40" r="1.2"/>
<path d="M492.50 354.40v21.00" class="stroke"/>
<use x="600.30" y="357.40" xlink:href="#Hd"/>
<circle class="fill" cx="609.00" cy="354.40" r="1.2"/>
<path d="M596.80 357.40v21.00" class="stroke"/>
<use x="22.00" y="409.40" xlink:href="#bclef"/>
<use x="46.50" y="433.40" xlink:href="#hl"/>
<use x="46.50" y="439.40" xlink:href="#hl"/>
<use x="46.50" y="439.40" xlink:href="#hd"/>
<path d="M50.00 439.40v-24.00" class="stroke"/>
<use x="80.30" y="433.40" xlink:href="#hl"/>
<use x="80.30" y="433.40" xlink:href="#hd"/>
<path d="M83.80 433.40v-21.00" class="stroke"/>
<use x="114.10" y="427.40" xlink:href="#hd"/>
<path d="M117.60 427.40v-21.00" class="stroke"/>
<use x="150.30" y="433.40" xlink:href="#hl"/>
<use x="150.30" y="436.40" xlink:href="#hd"/>
<path d="M153.80 436.40v-21.00" class="stroke"/>
<use x="184.10" y="430.40" xlink:href="#hd"/>
<path d="M187.60 430.40v-21.00" class="stroke"/>
<use x="217.80" y="424.40" xlink:href="#hd"/>
<path d="M221.30 424.40v-21.00" class="stroke"/>
<use x="254.10" y="421.40" xlink:href="#hd"/>
<path d="M257.60 421.40v-21.00" class="stroke"/>
<use x="287.90" y="415.40" xlink:href="#hd"/>
<path d="M291.40 415.40v-21.00" class="stroke"/>
<use x="321.70" y="409.40" xlink:href="#hd"/>
<path d="M318.20 409.40v21.00" class="stroke"/>
<use x="358.00" y="433.40" xlink:href="#hl"/>
<use x="358.00" y="439.40" xlink:href="#hl"/>
<use x="358.00" y="439.40" xlink:href="#hd"/>
<path d="M361.50 439.40v-24.00" class="stroke"/>
<use x="391.70" y="433.40" xlink:href="#hl"/>
<use x="391.70" y="433.40" xlink:href="#hd"/>
<path d="M395.20 433.40v-21.00" class="stroke"/>
<use x="425.50" y="427.40" xlink:href="#hd"/>
<path d="M429.00 427.40v-21.00" class="stroke"/>
<use x="459.30" y="421.40" xlink:href="#hd"/>
<path d="M462.80 421.40v-21.00" class="stroke"/>
<use x="496.00" y="433.40" xlink:href="#hl"/>
<use x="496.00" y="436.40" xlink:href="#hd"/>
<path d="M499.50 436.40v-21.00" class="stroke"/>
<use x="529.80" y="430.40" xlink:href="#hd"/>
<path d="M533.30 430.40v-21.00" class="stroke"/>
<use x="563.60" y="424.40" xlink:href="#hd"/>
<path d="M567.10 424.40v-21.00" class="stroke"/>
<use x="600.30" y="433.40" xlink:href="#hl"/>
<use x="600.30" y="433.40" xlink:href="#hd"/>
<path d="M603.80 433.40v-21.00" class="stroke"/>
<use x="634.10" y="427.40" xlink:href="#hd"/>
<path d="M637.60 427.40v-21.00" class="stroke"/>
<use x="667.80" y="421.40" xlink:href="#hd"/>
<path d="M671.30 421.40v-21.00" class="stroke"/>
</g>
<g stroke-width="0.70" style="font:italic 11.00px Times">
<path class="stroke" stroke-width="1"
	d="M10.00 555.40v-82.00"/>
<g transform="translate(10.00,473.40) scale(1,0.82)">
	<use xlink:href="#brace"/>
</g>
<path class="stroke" stroke-width="1"
	d="M107.90 497.40v-24.00"/>
<path class="stroke" stroke-width="1"
	d="M107.90 555.40v-24.00"/>
<path class="stroke" stroke-width="1"
	d="M217.40 497.40v-24.00"/>
<path class="stroke" stroke-width="1"
	d="M217.40 555.40v-24.00"/>
<path class="stroke" stroke-width="1"
	d="M326.90 497.40v-24.00"/>
<path class="stroke" stroke-width="1"
	d="M326.90 555.40v-24.00"/>
<path class="stroke" stroke-width="1"
	d="M472.20 497.40v-24.00"/>
<path class="stroke" stroke-width="1"
	d="M472.20 555.40v-24.00"/>
<path class="stroke" stroke-width="1"
	d="M581.90 497.40v-24.00"/>
<path class="stroke" stroke-width="1"
	d="M581.90 555.40v-24.00"/>
<path class="stroke" stroke-width="1"
	d="M691.60 497.40v-24.00"/>
<path class="stroke" stroke-width="1"
	d="M691.60 555.40v-24.00"/>
<path d="m10.00 497.40
	h681.60
	M10.00 491.40
	h681.60
	M10.00 485.40
	h681.60
	M10.00 479.40
	h681.60
	M10.00 473.40
	h681.60
	" class="stroke"/>
<path d="m10.00 555.40
	h681.60
	M10.00 549.40
	h681.60
	M10.00 543.40
	h681.60
	M10.00 537.40
	h681.60
	M10.00 531.40
	h681.60
	" class="stroke"/>
</g>
<g stroke-width="0.70" style="font:bold 13.00px Times">
<text x="39.00" y="468.80">iii<tspan
	 style="font:italic 11.00px Times">m⁷</tspan></text>
</g>
<g stroke-width="0.70" style="font:bold 13.00px Times">
<text x="113.00" y="468.80">I<tspan
	 style="font:italic 11.00px Times">Δ⁷¹</tspan></text>
</g>
<g stroke-width="0.70" style="font:bold 13.00px Times">
<text x="222.20" y="466.80">ii<tspan
	 style="font:italic 11.00px Times">m⁷¹</tspan></text>
</g>
<g stroke-width="0.70" style="font:bold 13.00px Times">
<text x="333.90" y="460.80">I<tspan
	 style="font:italic 11.00px Times">Δ⁷</tspan></text>
</g>
<g stroke-width="0.70" style="font:bold 13.00px Times">
<text x="477.20" y="466.80">vii<tspan
	 style="font:italic 11.00px Times">ø⁷</tspan></text>
</g>
<g stroke-width="0.70" style="font:bold 13.00px Times">
<text x="586.90" y="460.80">iii<tspan
	 style="font:italic 11.00px Times">m⁷</tspan></text>
</g>
<g stroke-width="0.70" style="font:italic 11.00px Times">
<use x="22.00" y="491.40" xlink:href="#tclef"/>
<use x="47.00" y="485.40" xlink:href="#Hd"/>
<path d="M43.50 485.40v21.00" class="stroke"/>
<use x="120.70" y="482.40" xlink:href="#hd"/>
<path d="M117.20 482.40v21.00" class="stroke"/>
<use x="156.50" y="479.40" xlink:href="#Hd"/>
<path d="M153.00 479.40v21.00" class="stroke"/>
<use x="230.20" y="482.40" xlink:href="#hd"/>
<path d="M226.70 482.40v21.00" class="stroke"/>
<use x="266.00" y="485.40" xlink:href="#Hd"/>
<path d="M262.50 485.40v21.00" class="stroke"/>
<use x="339.60" y="488.40" xlink:href="#hd"/>
<path d="M343.10 488.40v-21.00" class="stroke"/>
<use x="375.40" y="485.40" xlink:href="#Hd"/>
<circle class="fill" cx="384.10" cy="482.40" r="1.2"/>
<path d="M378.90 485.40v-21.00" class="stroke"/>
<use x="485.20" y="497.40" xlink:href="#Hd"/>
<circle class="fill" cx="493.90" cy="494.40" r="1.2"/>
<path d="M488.70 497.40v-21.00" class="stroke"/>
<use x="594.90" y="488.40" xlink:href="#Hd"/>
<circle class="fill" cx="603.60" cy="488.40" r="1.2"/>
<path d="M598.40 488.40v-21.00" class="stroke"/>
<use x="22.00" y="537.40" xlink:href="#bclef"/>
<use x="47.00" y="561.40" xlink:href="#hl"/>
<use x="47.00" y="561.40" xlink:href="#hd"/>
<path d="M50.50 561.40v-21.00" class="stroke"/>
<use x="82.80" y="555.40" xlink:href="#hd"/>
<path d="M86.30 555.40v-21.00" class="stroke"/>
<use x="120.70" y="561.40" xlink:href="#hl"/>
<use x="120.70" y="567.40" xlink:href="#hl"/>
<use x="120.70" y="567.40" xlink:href="#hd"/>
<path d="M124.20 567.40v-24.00" class="stroke"/>
<use x="156.50" y="561.40" xlink:href="#hl"/>
<use x="156.50" y="561.40" xlink:href="#hd"/>
<path d="M160.00 561.40v-21.00" class="stroke"/>
<use x="192.30" y="555.40" xlink:href="#hd"/>
<path d="M195.80 555.40v-21.00" class="stroke"/>
<use x="230.20" y="561.40" xlink:href="#hl"/>
<use x="230.20" y="564.40" xlink:href="#hd"/>
<path d="M233.70 564.40v-21.00" class="stroke"/>
<use x="266.00" y="558.40" xlink:href="#hd"/>
<path d="M269.50 558.40v-21.00" class="stroke"/>
<use x="301.80" y="552.40" xlink:href="#hd"/>
<path d="M305.30 552.40v-21.00" class="stroke"/>
<use x="339.60" y="561.40" xlink:href="#hl"/>
<use x="339.60" y="567.40" xlink:href="#hl"/>
<use x="339.60" y="567.40" xlink:href="#hd"/>
<path d="M343.10 567.40v-24.00" class="stroke"/>
<use x="375.40" y="561.40" xlink:href="#hl"/>
<use x="375.40" y="561.40" xlink:href="#hd"/>
<path d="M378.90 561.40v-21.00" class="stroke"/>
<use x="411.20" y="555.40" xlink:href="#hd"/>
<path d="M414.70 555.40v-21.00" class="stroke"/>
<use x="447.00" y="549.40" xlink:href="#hd"/>
<path d="M450.50 549.40v-21.00" class="stroke"/>
<use x="485.20" y="549.40" xlink:href="#hd"/>
<path d="M488.70 549.40v-21.00" class="stroke"/>
<use x="520.90" y="543.40" xlink:href="#hd"/>
<path d="M524.40 543.40v-21.00" class="stroke"/>
<use x="556.80" y="537.40" xlink:href="#hd"/>
<path d="M553.30 537.40v21.00" class="stroke"/>
<use x="594.90" y="561.40" xlink:href="#hl"/>
<use x="594.90" y="561.40" xlink:href="#hd"/>
<path d="M598.40 561.40v-21.00" class="stroke"/>
<use x="630.70" y="555.40" xlink:href="#hd"/>
<path d="M634.20 555.40v-21.00" class="stroke"/>
<use x="666.50" y="549.40" xlink:href="#hd"/>
<path d="M670.00 549.40v-21.00" class="stroke"/>
</g>
<g stroke-width="0.70" style="font:italic 11.00px Times">
<path class="stroke" stroke-width="1"
	d="M10.00 683.40v-82.00"/>
<g transform="translate(10.00,601.40) scale(1,0.82)">
	<use xlink:href="#brace"/>
</g>
<path class="stroke" stroke-width="1"
	d="M114.50 625.40v-24.00"/>
<path class="stroke" stroke-width="1"
	d="M114.50 683.40v-24.00"/>
<path class="stroke" stroke-width="1"
	d="M224.60 625.40v-24.00"/>
<path class="stroke" stroke-width="1"
	d="M224.60 683.40v-24.00"/>
<path class="stroke" stroke-width="1"
	d="M288.20 625.40v-24.00"/>
<path class="stroke" stroke-width="1"
	d="M288.20 683.40v-24.00"/>
<path class="stroke" stroke-width="1"
	d="M398.30 625.40v-24.00"/>
<path class="stroke" stroke-width="1"
	d="M398.30 683.40v-24.00"/>
<path class="stroke" stroke-width="1"
	d="M467.40 625.40v-24.00"/>
<path class="stroke" stroke-width="1"
	d="M467.40 683.40v-24.00"/>
<path class="stroke" stroke-width="1"
	d="M483.40 625.40v-24.00"/>
<path class="stroke" stroke-width="1"
	d="M483.40 683.40v-24.00"/>
<path d="m10.00 625.40
	h473.40
	M10.00 619.40
	h473.40
	M10.00 613.40
	h473.40
	M10.00 607.40
	h473.40
	M10.00 601.40
	h473.40
	" class="stroke"/>
<path d="m10.00 683.40
	h473.40
	M10.00 677.40
	h473.40
	M10.00 671.40
	h473.40
	M10.00 665.40
	h473.40
	M10.00 659.40
	h473.40
	" class="stroke"/>
</g>
<g stroke-width="0.70" style="font:bold 13.00px Times">
<text x="38.50" y="596.80">ii<tspan
	 style="font:italic 11.00px Times">m⁷</tspan></text>
</g>
<g stroke-width="0.70" style="font:bold 13.00px Times">
<text x="133.80" y="596.80">I<tspan
	 style="font:italic 11.00px Times">Δ⁷</tspan></text>
</g>
<g stroke-width="0.70" style="font:bold 13.00px Times">
<text x="240.60" y="588.80">vi<tspan
	 style="font:italic 11.00px Times">m⁷¹</tspan></text>
</g>
<g stroke-width="0.70" style="font:bold 13.00px Times">
<text x="305.20" y="591.80">vi<tspan
	 style="font:italic 11.00px Times">m⁷</tspan></text>
</g>
<g stroke-width="0.70" style="font:bold 13.00px Times">
<text x="414.30" y="588.80">iii<tspan
	 style="font:italic 11.00px Times">m⁷</tspan></text>
</g>
<g stroke-width="0.70" style="font:italic 11.00px Times">
<use x="22.00" y="619.40" xlink:href="#tclef"/>
<use x="46.50" y="610.40" xlink:href="#hd"/>
<path d="M43.00 610.40v21.00" class="stroke"/>
<use x="86.50" y="613.40" xlink:href="#hd"/>
<path d="M83.00 613.40v21.00" class="stroke"/>
<use x="139.50" y="610.40" xlink:href="#hd"/>
<path d="M136.00 610.40v21.00" class="stroke"/>
<use x="179.50" y="616.40" xlink:href="#Hd"/>
<circle class="fill" cx="188.20" cy="616.40" r="1.2"/>
<path d="M183.00 616.40v-21.00" class="stroke"/>
<use x="248.60" y="616.40" xlink:href="#Hd"/>
<path d="M252.10 616.40v-21.00" class="stroke"/>
<use x="313.20" y="619.40" xlink:href="#hd"/>
<path d="M316.70 619.40v-21.00" class="stroke"/>
<use x="353.20" y="616.40" xlink:href="#Hd"/>
<circle class="fill" cx="361.90" cy="616.40" r="1.2"/>
<path d="M356.70 616.40v-21.00" class="stroke"/>
<use x="422.30" y="616.40" xlink:href="#Hd"/>
<circle class="fill" cx="431.00" cy="616.40" r="1.2"/>
<path d="M425.80 616.40v-21.00" class="stroke"/>
<use x="22.00" y="665.40" xlink:href="#bclef"/>
<use x="46.50" y="689.40" xlink:href="#hl"/>
<use x="46.50" y="692.40" xlink:href="#hd"/>
<path d="M50.00 692.40v-21.00" class="stroke"/>
<use x="86.50" y="686.40" xlink:href="#hd"/>
<path d="M90.00 686.40v-21.00" class="stroke"/>
<use x="140.50" y="689.40" xlink:href="#hl1"/>
<use x="140.50" y="695.40" xlink:href="#hl1"/>
<use x="140.50" y="701.40" xlink:href="#hl1"/>
<use x="140.50" y="707.40" xlink:href="#hl1"/>
<use x="140.50" y="713.40" xlink:href="#hl1"/>
<use x="140.50" y="716.40" xlink:href="#HD"/>
<use x="140.50" y="695.40" xlink:href="#HD"/>
<use x="140.50" y="689.40" xlink:href="#HD"/>
<use x="140.50" y="683.40" xlink:href="#HD"/>
<use x="140.50" y="677.40" xlink:href="#HD"/>
<use x="248.60" y="689.40" xlink:href="#hl"/>
<use x="248.60" y="695.40" xlink:href="#hl"/>
<use x="248.60" y="701.40" xlink:href="#hl"/>
<use x="248.60" y="701.40" xlink:href="#Hd"/>
<path d="M252.10 701.40v-58.00" class="stroke"/>
<use x="248.60" y="680.40" xlink:href="#Hd"/>
<use x="248.60" y="674.40" xlink:href="#Hd"/>
<use x="248.60" y="668.40" xlink:href="#Hd"/>
<use x="248.60" y="662.40" xlink:href="#Hd"/>
<use x="314.20" y="689.40" xlink:href="#hl1"/>
<use x="314.20" y="695.40" xlink:href="#hl1"/>
<use x="314.20" y="701.40" xlink:href="#hl1"/>
<use x="314.20" y="701.40" xlink:href="#HD"/>
<use x="314.20" y="680.40" xlink:href="#HD"/>
<use x="314.20" y="674.40" xlink:href="#HD"/>
<use x="314.20" y="668.40" xlink:href="#HD"/>
<use x="314.20" y="662.40" xlink:href="#HD"/>
<use x="422.30" y="689.40" xlink:href="#hl"/>
<use x="422.30" y="695.40" xlink:href="#hl"/>
<use x="422.30" y="701.40" xlink:href="#hl"/>
<use x="422.30" y="707.40" xlink:href="#hl"/>
<use x="422.30" y="710.40" xlink:href="#Hd"/>
<circle class="fill" cx="431.00" cy="710.40" r="1.2"/>
<path d="M425.80 710.40v-58.00" class="stroke"/>
<use x="422.30" y="689.40" xlink:href="#Hd"/>
<circle class="fill" cx="431.00" cy="686.40" r="1.2"/>
<use x="422.30" y="683.40" xlink:href="#Hd"/>
<circle class="fill" cx="431.00" cy="680.40" r="1.2"/>
<use x="422.30" y="677.40" xlink:href="#Hd"/>
<circle class="fill" cx="431.00" cy="674.40" r="1.2"/>
<use x="422.30" y="671.40" xlink:href="#Hd"/>
<circle class="fill" cx="431.00" cy="668.40" r="1.2"/>
<g transform="rotate(270)">
<use x="-719.40" y="127.00" xlink:href="#ltr"/>
<use x="-713.40" y="127.00" xlink:href="#ltr"/>
<use x="-707.40" y="127.00" xlink:href="#ltr"/>
<use x="-701.40" y="127.00" xlink:href="#ltr"/>
<use x="-695.40" y="127.00" xlink:href="#ltr"/>
<use x="-689.40" y="127.00" xlink:href="#ltr"/>
<use x="-683.40" y="127.00" xlink:href="#ltr"/>
<use x="-677.40" y="127.00" xlink:href="#ltr"/>
</g>
<g transform="rotate(270)">
<use x="-704.40" y="238.60" xlink:href="#ltr"/>
<use x="-698.40" y="238.60" xlink:href="#ltr"/>
<use x="-692.40" y="238.60" xlink:href="#ltr"/>
<use x="-686.40" y="238.60" xlink:href="#ltr"/>
<use x="-680.40" y="238.60" xlink:href="#ltr"/>
<use x="-674.40" y="238.60" xlink:href="#ltr"/>
<use x="-668.40" y="238.60" xlink:href="#ltr"/>
<use x="-662.40" y="238.60" xlink:href="#ltr"/>
</g>
<g transform="rotate(270)">
<use x="-704.40" y="300.70" xlink:href="#ltr"/>
<use x="-698.40" y="300.70" xlink:href="#ltr"/>
<use x="-692.40" y="300.70" xlink:href="#ltr"/>
<use x="-686.40" y="300.70" xlink:href="#ltr"/>
<use x="-680.40" y="300.70" xlink:href="#ltr"/>
<use x="-674.40" y="300.70" xlink:href="#ltr"/>
<use x="-668.40" y="300.70" xlink:href="#ltr"/>
<use x="-662.40" y="300.70" xlink:href="#ltr"/>
</g>
<g transform="rotate(270)">
<use x="-713.40" y="412.30" xlink:href="#ltr"/>
<use x="-707.40" y="412.30" xlink:href="#ltr"/>
<use x="-701.40" y="412.30" xlink:href="#ltr"/>
<use x="-695.40" y="412.30" xlink:href="#ltr"/>
<use x="-689.40" y="412.30" xlink:href="#ltr"/>
<use x="-683.40" y="412.30" xlink:href="#ltr"/>
<use x="-677.40" y="412.30" xlink:href="#ltr"/>
<use x="-671.40" y="412.30" xlink:href="#ltr"/>
</g>
</g>
</svg>
