<?xml version="1.0" standalone="no"?>
<!DOCTYPE svg PUBLIC "-//W3C//DTD SVG 1.1//EN"
	"http://www.w3.org/Graphics/SVG/1.1/DTD/svg11.dtd">
<svg xmlns="http://www.w3.org/2000/svg" version="1.1"
	xmlns:xlink="http://www.w3.org/1999/xlink"
	color="black"
	width="701.60px" height="427.80px" viewBox="0 0 701.60 427.80" preserveAspectRatio="xMidYMid meet">
<style type="text/css">
.fill {fill: currentColor}
.stroke {stroke: currentColor; fill: none}
text{white-space: pre}
</style>
<title>/tmp/reharm_hymnal_L3/wilt_thou_o_man_live_happily.abc (1) tune 1</title>
<!-- Creator: abcm2ps-8.14.11 -->
<!-- CreationDate: Apr 24, 2026 15:33 -->
<!-- CommandLine: /tmp/reharm_hymnal_L3/wilt_thou_o_man_live_happily.abc -g -O /tmp/reharm_hymnal_L3/wilt_thou_o_man_live_happily -->
<g stroke-width="0.70">
<!-- title: 275. Wilt Thou, O Man, Live Happily -->
</g>
<g stroke-width="0.70" style="font:20.00px Times">
<text x="350.80" y="22.00" text-anchor="middle">275. Wilt Thou, O Man, Live Happily</text>
</g>
<g stroke-width="0.70" style="font:20.00px Times">
<path class="stroke" stroke-width="1"
	d="M10.00 145.40v-82.00"/>
<defs>
<path id="brace" class="fill" d="m-2.5 101
	c-4.5 -4.6 -7.5 -12.2 -4.4 -26.8
	3.5 -14.3 3.2 -21.7 -2.1 -24.2
	7.4 2.4 7.3 14.2 3.5 29.5
	-2.7 9.5 -1.5 16.2 3 21.5
	M-2.5 1c-4.5 4.6 -7.5 12.2 -4.4 26.8
	c3.5 14.3 3.2 21.7 -2.1 24.2
	7.4 -2.4 7.3 -14.2 3.5 -29.5
	-2.7 -9.5 -1.5 -16.2 3 -21.5"/>
</defs>
<g transform="translate(10.00,63.40) scale(1,0.82)">
	<use xlink:href="#brace"/>
</g>
<path class="stroke" stroke-width="1"
	d="M165.40 87.40v-24.00"/>
<path class="stroke" stroke-width="1"
	d="M165.40 145.40v-24.00"/>
<path class="stroke" stroke-width="1"
	d="M284.80 87.40v-24.00"/>
<path class="stroke" stroke-width="1"
	d="M284.80 145.40v-24.00"/>
<path class="stroke" stroke-width="1"
	d="M370.60 87.40v-24.00"/>
<path class="stroke" stroke-width="1"
	d="M370.60 145.40v-24.00"/>
<path class="stroke" stroke-width="1"
	d="M477.50 87.40v-24.00"/>
<path class="stroke" stroke-width="1"
	d="M477.50 145.40v-24.00"/>
<path class="stroke" stroke-width="1"
	d="M585.00 87.40v-24.00"/>
<path class="stroke" stroke-width="1"
	d="M585.00 145.40v-24.00"/>
<path class="stroke" stroke-width="1"
	d="M691.60 87.40v-24.00"/>
<path class="stroke" stroke-width="1"
	d="M691.60 145.40v-24.00"/>
<path d="m10.00 87.40
	h681.60
	M10.00 81.40
	h681.60
	M10.00 75.40
	h681.60
	M10.00 69.40
	h681.60
	M10.00 63.40
	h681.60
	" class="stroke"/>
<path d="m10.00 145.40
	h681.60
	M10.00 139.40
	h681.60
	M10.00 133.40
	h681.60
	M10.00 127.40
	h681.60
	M10.00 121.40
	h681.60
	" class="stroke"/>
</g>
<g stroke-width="0.70" style="font:bold 13.00px Times">
<text x="78.50" y="58.80">vi<tspan
	 style="font:italic 11.00px Times">m⁷</tspan></text>
</g>
<g stroke-width="0.70" style="font:bold 13.00px Times">
<text x="182.40" y="47.80">ii<tspan
	 style="font:italic 11.00px Times">m⁷</tspan></text>
</g>
<g stroke-width="0.70" style="font:bold 13.00px Times">
<text x="301.80" y="50.80">iii<tspan
	 style="font:italic 11.00px Times">m⁷</tspan></text>
</g>
<g stroke-width="0.70" style="font:bold 13.00px Times">
<text x="375.10" y="53.80">ii<tspan
	 style="font:italic 11.00px Times">m⁷¹</tspan></text>
</g>
<g stroke-width="0.70" style="font:bold 13.00px Times">
<text x="484.80" y="53.80">I<tspan
	 style="font:italic 11.00px Times">Δ⁷</tspan></text>
</g>
<g stroke-width="0.70" style="font:bold 13.00px Times">
<text x="589.50" y="53.80">vi<tspan
	 style="font:italic 11.00px Times">m⁷</tspan></text>
</g>
<g stroke-width="0.70" style="font:italic 11.00px Times">
<defs>
<path id="utclef" class="fill" d="m-50 -90
	c-72 -41 -72 -158 52 -188
	150 -10 220 188 90 256
	-114 52 -275 0 -293 -136
	-15 -181 93 -229 220 -334
	88 -87 79 -133 62 -210
	-51 33 -94 105 -89 186
	17 267 36 374 49 574
	6 96 -19 134 -77 135
	-80 1 -126 -93 -61 -133
	85 -41 133 101 31 105
	23 17 92 37 90 -92
	-10 -223 -39 -342 -50 -617
	0 -90 0 -162 96 -232
	56 72 63 230 22 289
	-74 106 -257 168 -255 316
	9 153 148 185 252 133
	86 -65 29 -192 -80 -176
	-71 12 -105 67 -59 124"/>
<use id="tclef" transform="translate(0,6) scale(0.045)"
	xlink:href="#utclef"/>
</defs>
<use x="22.00" y="81.40" xlink:href="#tclef"/>
<defs>
<path id="usharp" class="fill" d="
	m136 -702
	v890
	h32
	v-890
	m128 840
	h32
	v-888
	h-32
	m-232 286
	v116
	l338 -96
	v-116
	m-338 442
	v116
	l338 -98
	v-114"/>
<use id="sh0" transform="translate(-4,5) scale(0.018)"
	xlink:href="#usharp"/>
</defs>
<use x="37.00" y="63.40" xlink:href="#sh0"/>
<g style="font:bold 16px serif"
	transform="translate(53.00,86.90) scale(1.2,1)">
	<text text-anchor="middle">4</text>
	<text y="-12" text-anchor="middle">4</text>
</g>
<defs>
<path id="Hd" class="fill" d="m3 -1.6
	c-1 -1.8 -7 1.4 -6 3.2
	1 1.8 7 -1.4 6 -3.2
	m0.5 -0.3
	c2 3.8 -5 7.6 -7 3.8
	-2 -3.8 5 -7.6 7 -3.8"/>
</defs>
<use x="86.50" y="87.40" xlink:href="#Hd"/>
<path d="M90.00 87.40v-21.00" class="stroke"/>
<defs>
<ellipse id="hd" rx="4.1" ry="2.9"
	transform="rotate(-20)" class="fill"/>
</defs>
<use x="121.70" y="81.40" xlink:href="#hd"/>
<path d="M125.20 81.40v-21.00" class="stroke"/>
<use x="146.90" y="81.40" xlink:href="#hd"/>
<path d="M150.40 81.40v-21.00" class="stroke"/>
<use x="190.40" y="78.40" xlink:href="#hd"/>
<path d="M193.90 78.40v-21.00" class="stroke"/>
<use x="215.60" y="75.40" xlink:href="#hd"/>
<path d="M219.10 75.40v-21.00" class="stroke"/>
<use x="241.10" y="72.40" xlink:href="#hd"/>
<path d="M237.60 72.40v21.00" class="stroke"/>
<use x="266.30" y="75.40" xlink:href="#hd"/>
<path d="M262.80 75.40v21.00" class="stroke"/>
<use x="309.80" y="78.40" xlink:href="#Hd"/>
<path d="M313.30 78.40v-21.00" class="stroke"/>
<use x="345.10" y="75.40" xlink:href="#Hd"/>
<path d="M348.60 75.40v-21.00" class="stroke"/>
<use x="383.10" y="72.40" xlink:href="#hd"/>
<path d="M379.60 72.40v21.00" class="stroke"/>
<use x="408.30" y="81.40" xlink:href="#hd"/>
<path d="M411.80 81.40v-21.00" class="stroke"/>
<use x="433.80" y="78.40" xlink:href="#hd"/>
<path d="M437.30 78.40v-21.00" class="stroke"/>
<use x="459.00" y="87.40" xlink:href="#hd"/>
<path d="M462.50 87.40v-21.00" class="stroke"/>
<use x="490.50" y="81.40" xlink:href="#Hd"/>
<path d="M494.00 81.40v-21.00" class="stroke"/>
<use x="540.90" y="87.40" xlink:href="#hd"/>
<path d="M544.40 87.40v-21.00" class="stroke"/>
<defs>
<path id="hl" class="stroke" d="m-6 0h12"/>
</defs>
<use x="566.50" y="93.40" xlink:href="#hl"/>
<use x="566.50" y="93.40" xlink:href="#hd"/>
<path d="M570.00 93.40v-21.00" class="stroke"/>
<use x="597.50" y="81.40" xlink:href="#hd"/>
<path d="M601.00 81.40v-21.00" class="stroke"/>
<use x="622.70" y="84.40" xlink:href="#hd"/>
<path d="M626.20 84.40v-21.00" class="stroke"/>
<use x="647.90" y="87.40" xlink:href="#Hd"/>
<path d="M651.40 87.40v-21.00" class="stroke"/>
<defs>
<path id="ubclef" class="fill" d="m-200 -87
	c124 -35 222 -78 254 -236
	43 -228 -167 -246 -192 -103
	59 -80 157 22 92 78
	-62 47 -115 -22 -106 -88
	21 -141 270 -136 274 52
	-1 175 -106 264 -322 297
	m357 -250
	c0 -36 51 -34 51 0
	0 37 -51 36 -51 0
	m-2 -129
	c0 -36 51 -34 51 0
	0 38 -51 37 -51 0"/>
<use id="bclef" transform="translate(0,18) scale(0.045)"
	xlink:href="#ubclef"/>
</defs>
<use x="22.00" y="127.40" xlink:href="#bclef"/>
<use x="37.00" y="127.40" xlink:href="#sh0"/>
<g style="font:bold 16px serif"
	transform="translate(53.00,144.90) scale(1.2,1)">
	<text text-anchor="middle">4</text>
	<text y="-12" text-anchor="middle">4</text>
</g>
<defs>
<path id="hl1" class="stroke" d="m-7 0h14"/>
</defs>
<use x="87.50" y="151.40" xlink:href="#hl1"/>
<use x="87.50" y="115.40" xlink:href="#hl1"/>
<defs>
<path id="HD" class="fill" d="m-2.7 -1.4
	c1.5 -2.8 6.9 0 5.3 2.7
	-1.5 2.8 -6.9 0 -5.3 -2.7
	m8.3 1.4
	c0 -1.5 -2.2 -3 -5.6 -3
	-3.4 0 -5.6 1.5 -5.6 3
	0 1.5 2.2 3 5.6 3
	3.4 0 5.6 -1.5 5.6 -3"/>
</defs>
<use x="87.50" y="112.40" xlink:href="#HD"/>
<use x="87.50" y="151.40" xlink:href="#HD"/>
<use x="87.50" y="130.40" xlink:href="#HD"/>
<use x="87.50" y="124.40" xlink:href="#HD"/>
<use x="87.50" y="118.40" xlink:href="#HD"/>
<use x="191.40" y="151.40" xlink:href="#hl1"/>
<use x="191.40" y="157.40" xlink:href="#hl1"/>
<use x="191.40" y="163.40" xlink:href="#hl1"/>
<use x="191.40" y="163.40" xlink:href="#HD"/>
<use x="191.40" y="142.40" xlink:href="#HD"/>
<use x="191.40" y="136.40" xlink:href="#HD"/>
<use x="191.40" y="130.40" xlink:href="#HD"/>
<use x="191.40" y="124.40" xlink:href="#HD"/>
<use x="310.80" y="151.40" xlink:href="#hl1"/>
<use x="310.80" y="157.40" xlink:href="#hl1"/>
<use x="310.80" y="160.40" xlink:href="#HD"/>
<use x="310.80" y="139.40" xlink:href="#HD"/>
<use x="310.80" y="133.40" xlink:href="#HD"/>
<use x="310.80" y="127.40" xlink:href="#HD"/>
<use x="310.80" y="121.40" xlink:href="#HD"/>
<use x="383.10" y="142.40" xlink:href="#hd"/>
<path d="M386.60 142.40v-21.00" class="stroke"/>
<use x="408.30" y="136.40" xlink:href="#hd"/>
<path d="M411.80 136.40v-21.00" class="stroke"/>
<use x="433.80" y="130.40" xlink:href="#hd"/>
<path d="M430.30 130.40v21.00" class="stroke"/>
<use x="459.00" y="124.40" xlink:href="#hd"/>
<path d="M455.50 124.40v21.00" class="stroke"/>
<use x="490.50" y="145.40" xlink:href="#hd"/>
<path d="M494.00 145.40v-21.00" class="stroke"/>
<use x="515.70" y="139.40" xlink:href="#hd"/>
<path d="M519.20 139.40v-21.00" class="stroke"/>
<use x="540.90" y="133.40" xlink:href="#hd"/>
<path d="M544.40 133.40v-21.00" class="stroke"/>
<use x="566.50" y="127.40" xlink:href="#hd"/>
<path d="M563.00 127.40v21.00" class="stroke"/>
<use x="597.50" y="130.40" xlink:href="#hd"/>
<path d="M594.00 130.40v21.00" class="stroke"/>
<use x="622.70" y="124.40" xlink:href="#hd"/>
<path d="M619.20 124.40v21.00" class="stroke"/>
<use x="647.90" y="118.40" xlink:href="#hd"/>
<path d="M644.40 118.40v21.00" class="stroke"/>
<use x="673.10" y="115.40" xlink:href="#hl"/>
<use x="673.10" y="112.40" xlink:href="#hd"/>
<path d="M669.60 112.40v21.00" class="stroke"/>
<defs>
<path id="ltr" class="fill"
    d="m0 -0.4c2 -1.5 3.4 -1.9 3.9 0.4
	c0.2 0.8 0.7 0.7 2.1 -0.4
	v0.8c-2 1.5 -3.4 1.9 -3.9 -0.4
	c-0.2 -0.8 -0.7 -0.7 -2.1 0.4z"/>
</defs>
<g transform="rotate(270)">
<use x="-154.40" y="74.00" xlink:href="#ltr"/>
<use x="-148.40" y="74.00" xlink:href="#ltr"/>
<use x="-142.40" y="74.00" xlink:href="#ltr"/>
<use x="-136.40" y="74.00" xlink:href="#ltr"/>
<use x="-130.40" y="74.00" xlink:href="#ltr"/>
<use x="-124.40" y="74.00" xlink:href="#ltr"/>
<use x="-118.40" y="74.00" xlink:href="#ltr"/>
<use x="-112.40" y="74.00" xlink:href="#ltr"/>
</g>
<g transform="rotate(270)">
<use x="-166.40" y="177.90" xlink:href="#ltr"/>
<use x="-160.40" y="177.90" xlink:href="#ltr"/>
<use x="-154.40" y="177.90" xlink:href="#ltr"/>
<use x="-148.40" y="177.90" xlink:href="#ltr"/>
<use x="-142.40" y="177.90" xlink:href="#ltr"/>
<use x="-136.40" y="177.90" xlink:href="#ltr"/>
<use x="-130.40" y="177.90" xlink:href="#ltr"/>
<use x="-124.40" y="177.90" xlink:href="#ltr"/>
</g>
<g transform="rotate(270)">
<use x="-163.40" y="297.30" xlink:href="#ltr"/>
<use x="-157.40" y="297.30" xlink:href="#ltr"/>
<use x="-151.40" y="297.30" xlink:href="#ltr"/>
<use x="-145.40" y="297.30" xlink:href="#ltr"/>
<use x="-139.40" y="297.30" xlink:href="#ltr"/>
<use x="-133.40" y="297.30" xlink:href="#ltr"/>
<use x="-127.40" y="297.30" xlink:href="#ltr"/>
<use x="-121.40" y="297.30" xlink:href="#ltr"/>
</g>
</g>
<g stroke-width="0.70" style="font:italic 11.00px Times">
<path class="stroke" stroke-width="1"
	d="M10.00 276.80v-82.00"/>
<g transform="translate(10.00,194.80) scale(1,0.82)">
	<use xlink:href="#brace"/>
</g>
<path class="stroke" stroke-width="1"
	d="M176.90 218.80v-24.00"/>
<path class="stroke" stroke-width="1"
	d="M176.90 276.80v-24.00"/>
<path class="stroke" stroke-width="1"
	d="M310.80 218.80v-24.00"/>
<path class="stroke" stroke-width="1"
	d="M310.80 276.80v-24.00"/>
<path class="stroke" stroke-width="1"
	d="M414.50 218.80v-24.00"/>
<path class="stroke" stroke-width="1"
	d="M414.50 276.80v-24.00"/>
<path class="stroke" stroke-width="1"
	d="M557.70 218.80v-24.00"/>
<path class="stroke" stroke-width="1"
	d="M557.70 276.80v-24.00"/>
<path class="stroke" stroke-width="1"
	d="M691.60 218.80v-24.00"/>
<path class="stroke" stroke-width="1"
	d="M691.60 276.80v-24.00"/>
<path d="m10.00 218.80
	h681.60
	M10.00 212.80
	h681.60
	M10.00 206.80
	h681.60
	M10.00 200.80
	h681.60
	M10.00 194.80
	h681.60
	" class="stroke"/>
<path d="m10.00 276.80
	h681.60
	M10.00 270.80
	h681.60
	M10.00 264.80
	h681.60
	M10.00 258.80
	h681.60
	M10.00 252.80
	h681.60
	" class="stroke"/>
</g>
<g stroke-width="0.70" style="font:bold 13.00px Times">
<text x="49.80" y="179.20">I<tspan
	 style="font:italic 11.00px Times">Δ⁷</tspan></text>
</g>
<g stroke-width="0.70" style="font:bold 13.00px Times">
<text x="181.40" y="190.20">ii<tspan
	 style="font:italic 11.00px Times">m⁷</tspan></text>
</g>
<g stroke-width="0.70" style="font:bold 13.00px Times">
<text x="327.80" y="179.20">vi<tspan
	 style="font:italic 11.00px Times">m⁷</tspan></text>
</g>
<g stroke-width="0.70" style="font:bold 13.00px Times">
<text x="431.50" y="179.20">iii<tspan
	 style="font:italic 11.00px Times">m⁷</tspan></text>
</g>
<g stroke-width="0.70" style="font:bold 13.00px Times">
<text x="562.20" y="182.20">ii<tspan
	 style="font:italic 11.00px Times">m⁷¹</tspan></text>
</g>
<g stroke-width="0.70" style="font:italic 11.00px Times">
<use x="22.00" y="212.80" xlink:href="#tclef"/>
<use x="37.00" y="194.80" xlink:href="#sh0"/>
<use x="55.50" y="206.80" xlink:href="#Hd"/>
<path d="M59.00 206.80v-21.00" class="stroke"/>
<use x="120.90" y="203.80" xlink:href="#hd"/>
<path d="M117.40 203.80v21.00" class="stroke"/>
<use x="153.70" y="200.80" xlink:href="#hd"/>
<path d="M150.20 200.80v21.00" class="stroke"/>
<use x="189.40" y="203.80" xlink:href="#hd"/>
<path d="M185.90 203.80v21.00" class="stroke"/>
<use x="222.10" y="209.80" xlink:href="#hd"/>
<path d="M225.60 209.80v-21.00" class="stroke"/>
<use x="254.90" y="212.80" xlink:href="#hd"/>
<path d="M258.40 212.80v-21.00" class="stroke"/>
<use x="287.60" y="209.80" xlink:href="#hd"/>
<path d="M291.10 209.80v-21.00" class="stroke"/>
<use x="335.80" y="206.80" xlink:href="#Hd"/>
<path d="M339.30 206.80v-21.00" class="stroke"/>
<use x="382.00" y="218.80" xlink:href="#Hd"/>
<path d="M385.50 218.80v-21.00" class="stroke"/>
<use x="439.50" y="206.80" xlink:href="#hd"/>
<path d="M443.00 206.80v-21.00" class="stroke"/>
<use x="472.40" y="203.80" xlink:href="#hd"/>
<path d="M468.90 203.80v21.00" class="stroke"/>
<use x="505.10" y="206.80" xlink:href="#hd"/>
<path d="M501.60 206.80v21.00" class="stroke"/>
<use x="534.50" y="212.80" xlink:href="#hd"/>
<path d="M538.00 212.80v-21.00" class="stroke"/>
<use x="570.20" y="209.80" xlink:href="#hd"/>
<path d="M573.70 209.80v-21.00" class="stroke"/>
<use x="602.90" y="215.80" xlink:href="#hd"/>
<path d="M606.40 215.80v-21.00" class="stroke"/>
<use x="635.70" y="218.80" xlink:href="#hd"/>
<path d="M639.20 218.80v-21.00" class="stroke"/>
<use x="668.40" y="224.80" xlink:href="#hl"/>
<use x="668.40" y="224.80" xlink:href="#hd"/>
<path d="M671.90 224.80v-21.00" class="stroke"/>
<use x="22.00" y="258.80" xlink:href="#bclef"/>
<use x="37.00" y="258.80" xlink:href="#sh0"/>
<use x="55.50" y="276.80" xlink:href="#hd"/>
<path d="M59.00 276.80v-21.00" class="stroke"/>
<use x="88.20" y="270.80" xlink:href="#hd"/>
<path d="M91.70 270.80v-21.00" class="stroke"/>
<use x="120.90" y="264.80" xlink:href="#hd"/>
<path d="M124.40 264.80v-21.00" class="stroke"/>
<use x="153.70" y="258.80" xlink:href="#hd"/>
<path d="M150.20 258.80v21.00" class="stroke"/>
<use x="189.40" y="273.80" xlink:href="#hd"/>
<path d="M192.90 273.80v-21.00" class="stroke"/>
<use x="222.10" y="267.80" xlink:href="#hd"/>
<path d="M225.60 267.80v-21.00" class="stroke"/>
<use x="254.90" y="261.80" xlink:href="#hd"/>
<path d="M251.40 261.80v21.00" class="stroke"/>
<use x="287.60" y="255.80" xlink:href="#hd"/>
<path d="M284.10 255.80v21.00" class="stroke"/>
<use x="336.80" y="282.80" xlink:href="#hl1"/>
<use x="336.80" y="246.80" xlink:href="#hl1"/>
<use x="336.80" y="243.80" xlink:href="#HD"/>
<use x="336.80" y="282.80" xlink:href="#HD"/>
<use x="336.80" y="261.80" xlink:href="#HD"/>
<use x="336.80" y="255.80" xlink:href="#HD"/>
<use x="336.80" y="249.80" xlink:href="#HD"/>
<use x="440.50" y="282.80" xlink:href="#hl1"/>
<use x="440.50" y="288.80" xlink:href="#hl1"/>
<use x="440.50" y="291.80" xlink:href="#HD"/>
<use x="440.50" y="270.80" xlink:href="#HD"/>
<use x="440.50" y="264.80" xlink:href="#HD"/>
<use x="440.50" y="258.80" xlink:href="#HD"/>
<use x="440.50" y="252.80" xlink:href="#HD"/>
<use x="570.20" y="273.80" xlink:href="#hd"/>
<path d="M573.70 273.80v-21.00" class="stroke"/>
<use x="602.90" y="267.80" xlink:href="#hd"/>
<path d="M606.40 267.80v-21.00" class="stroke"/>
<use x="635.70" y="261.80" xlink:href="#hd"/>
<path d="M632.20 261.80v21.00" class="stroke"/>
<use x="668.40" y="255.80" xlink:href="#hd"/>
<path d="M664.90 255.80v21.00" class="stroke"/>
<g transform="rotate(270)">
<use x="-285.80" y="323.30" xlink:href="#ltr"/>
<use x="-279.80" y="323.30" xlink:href="#ltr"/>
<use x="-273.80" y="323.30" xlink:href="#ltr"/>
<use x="-267.80" y="323.30" xlink:href="#ltr"/>
<use x="-261.80" y="323.30" xlink:href="#ltr"/>
<use x="-255.80" y="323.30" xlink:href="#ltr"/>
<use x="-249.80" y="323.30" xlink:href="#ltr"/>
<use x="-243.80" y="323.30" xlink:href="#ltr"/>
</g>
<g transform="rotate(270)">
<use x="-294.80" y="427.00" xlink:href="#ltr"/>
<use x="-288.80" y="427.00" xlink:href="#ltr"/>
<use x="-282.80" y="427.00" xlink:href="#ltr"/>
<use x="-276.80" y="427.00" xlink:href="#ltr"/>
<use x="-270.80" y="427.00" xlink:href="#ltr"/>
<use x="-264.80" y="427.00" xlink:href="#ltr"/>
<use x="-258.80" y="427.00" xlink:href="#ltr"/>
<use x="-252.80" y="427.00" xlink:href="#ltr"/>
</g>
</g>
<g stroke-width="0.70" style="font:italic 11.00px Times">
<path class="stroke" stroke-width="1"
	d="M10.00 404.80v-82.00"/>
<g transform="translate(10.00,322.80) scale(1,0.82)">
	<use xlink:href="#brace"/>
</g>
<path class="stroke" stroke-width="1"
	d="M219.60 346.80v-24.00"/>
<path class="stroke" stroke-width="1"
	d="M219.60 404.80v-24.00"/>
<path class="stroke" stroke-width="1"
	d="M300.60 346.80v-24.00"/>
<path class="stroke" stroke-width="1"
	d="M300.60 404.80v-24.00"/>
<path d="m10.00 346.80
	h290.60
	M10.00 340.80
	h290.60
	M10.00 334.80
	h290.60
	M10.00 328.80
	h290.60
	M10.00 322.80
	h290.60
	" class="stroke"/>
<path d="m10.00 404.80
	h290.60
	M10.00 398.80
	h290.60
	M10.00 392.80
	h290.60
	M10.00 386.80
	h290.60
	M10.00 380.80
	h290.60
	" class="stroke"/>
</g>
<g stroke-width="0.70" style="font:bold 13.00px Times">
<text x="49.30" y="313.20">I<tspan
	 style="font:italic 11.00px Times">Δ⁷</tspan></text>
</g>
<g stroke-width="0.70" style="font:bold 13.00px Times">
<text x="236.60" y="317.20">vi<tspan
	 style="font:italic 11.00px Times">m⁷</tspan></text>
</g>
<g stroke-width="0.70" style="font:italic 11.00px Times">
<use x="22.00" y="340.80" xlink:href="#tclef"/>
<use x="37.00" y="322.80" xlink:href="#sh0"/>
<use x="55.00" y="340.80" xlink:href="#hd"/>
<circle class="fill" cx="62.70" cy="337.80" r="1.2"/>
<path d="M58.50 340.80v-21.00" class="stroke"/>
<use x="123.30" y="343.80" xlink:href="#hd"/>
<path d="M126.80 343.80v-21.00" class="stroke"/>
<path class="fill"
	d="M126.80 322.80c0.6 5.6 9.6 9 5.6 18.4
	1.6 -6 -1.3 -11.6 -5.6 -12.8
"/>
<use x="151.60" y="346.80" xlink:href="#Hd"/>
<path d="M155.10 346.80v-21.00" class="stroke"/>
<use x="245.60" y="346.80" xlink:href="#HD"/>
<use x="245.60" y="325.80" xlink:href="#HD"/>
<use x="22.00" y="386.80" xlink:href="#bclef"/>
<use x="37.00" y="386.80" xlink:href="#sh0"/>
<use x="55.00" y="404.80" xlink:href="#hd"/>
<path d="M58.50 404.80v-21.00" class="stroke"/>
<use x="95.00" y="398.80" xlink:href="#hd"/>
<path d="M98.50 398.80v-21.00" class="stroke"/>
<use x="151.60" y="392.80" xlink:href="#hd"/>
<path d="M155.10 392.80v-21.00" class="stroke"/>
<use x="191.60" y="386.80" xlink:href="#hd"/>
<path d="M188.10 386.80v21.00" class="stroke"/>
<use x="245.60" y="410.80" xlink:href="#hl1"/>
<use x="245.60" y="374.80" xlink:href="#hl1"/>
<use x="245.60" y="371.80" xlink:href="#HD"/>
<use x="245.60" y="410.80" xlink:href="#HD"/>
<use x="245.60" y="389.80" xlink:href="#HD"/>
<use x="245.60" y="383.80" xlink:href="#HD"/>
<use x="245.60" y="377.80" xlink:href="#HD"/>
<g transform="rotate(270)">
<use x="-413.80" y="232.10" xlink:href="#ltr"/>
<use x="-407.80" y="232.10" xlink:href="#ltr"/>
<use x="-401.80" y="232.10" xlink:href="#ltr"/>
<use x="-395.80" y="232.10" xlink:href="#ltr"/>
<use x="-389.80" y="232.10" xlink:href="#ltr"/>
<use x="-383.80" y="232.10" xlink:href="#ltr"/>
<use x="-377.80" y="232.10" xlink:href="#ltr"/>
<use x="-371.80" y="232.10" xlink:href="#ltr"/>
</g>
</g>
</svg>
