<?xml version="1.0" standalone="no"?>
<!DOCTYPE svg PUBLIC "-//W3C//DTD SVG 1.1//EN"
	"http://www.w3.org/Graphics/SVG/1.1/DTD/svg11.dtd">
<svg xmlns="http://www.w3.org/2000/svg" version="1.1"
	xmlns:xlink="http://www.w3.org/1999/xlink"
	color="black"
	width="701.60px" height="511.80px" viewBox="0 0 701.60 511.80" preserveAspectRatio="xMidYMid meet">
<style type="text/css">
.fill {fill: currentColor}
.stroke {stroke: currentColor; fill: none}
text{white-space: pre}
</style>
<title>/tmp/boddie_hymnal_stage/away_in_a_manger.abc (1) tune 1</title>
<!-- Creator: abcm2ps-8.14.11 -->
<!-- CreationDate: Apr 30, 2026 12:59 -->
<!-- CommandLine: /tmp/boddie_hymnal_stage/away_in_a_manger.abc -g -O /tmp/boddie_hymnal_stage/away_in_a_manger -->
<g stroke-width="0.70">
<!-- title: 030. Away In A Manger -->
</g>
<g stroke-width="0.70" style="font:20.00px Times">
<text x="350.80" y="22.00" text-anchor="middle">030. Away In A Manger</text>
</g>
<g stroke-width="0.70" transform="scale(0.700)" style="font:20.00px Times">
<defs>
<ellipse id="hd" rx="4.1" ry="2.9"
	transform="rotate(-20)" class="fill"/>
</defs>
<use x="102.29" y="75.57" xlink:href="#hd"/>
<path d="M105.79 75.57v-21.00" class="stroke"/>
</g>
<g stroke-width="0.70" style="font:bold 15.00px Times">
<text x="79.30" y="55.00">= 72Slowly, with great expression</text>
<path class="stroke" stroke-width="1"
	d="M10.00 177.40v-94.00"/>
<defs>
<path id="brace" class="fill" d="m-2.5 101
	c-4.5 -4.6 -7.5 -12.2 -4.4 -26.8
	3.5 -14.3 3.2 -21.7 -2.1 -24.2
	7.4 2.4 7.3 14.2 3.5 29.5
	-2.7 9.5 -1.5 16.2 3 21.5
	M-2.5 1c-4.5 4.6 -7.5 12.2 -4.4 26.8
	c3.5 14.3 3.2 21.7 -2.1 24.2
	7.4 -2.4 7.3 -14.2 3.5 -29.5
	-2.7 -9.5 -1.5 -16.2 3 -21.5"/>
</defs>
<g transform="translate(10.00,83.40) scale(1,0.94)">
	<use xlink:href="#brace"/>
</g>
<path class="stroke" stroke-width="1"
	d="M208.40 107.40v-24.00"/>
<path class="stroke" stroke-width="1"
	d="M208.40 177.40v-24.00"/>
<path class="stroke" stroke-width="1"
	d="M313.90 107.40v-24.00"/>
<path class="stroke" stroke-width="1"
	d="M313.90 177.40v-24.00"/>
<path class="stroke" stroke-width="1"
	d="M441.90 107.40v-24.00"/>
<path class="stroke" stroke-width="1"
	d="M441.90 177.40v-24.00"/>
<path class="stroke" stroke-width="1"
	d="M541.50 107.40v-24.00"/>
<path class="stroke" stroke-width="1"
	d="M541.50 177.40v-24.00"/>
<path class="stroke" stroke-width="1"
	d="M691.60 107.40v-24.00"/>
<path class="stroke" stroke-width="1"
	d="M691.60 177.40v-24.00"/>
<path d="m10.00 107.40
	h681.60
	M10.00 101.40
	h681.60
	M10.00 95.40
	h681.60
	M10.00 89.40
	h681.60
	M10.00 83.40
	h681.60
	" class="stroke"/>
<path d="m10.00 177.40
	h681.60
	M10.00 171.40
	h681.60
	M10.00 165.40
	h681.60
	M10.00 159.40
	h681.60
	M10.00 153.40
	h681.60
	" class="stroke"/>
</g>
<g stroke-width="0.70" style="font:bold 13.00px Times">
<text x="65.30" y="78.80">I<tspan
	 style="font:italic 11.00px Times">Δ⁷</tspan></text>
</g>
<g stroke-width="0.70" style="font:bold 13.00px Times">
<text x="224.40" y="68.80">IV<tspan
	 style="font:italic 11.00px Times">Δ⁷</tspan></text>
</g>
<g stroke-width="0.70" style="font:bold 13.00px Times">
<text x="318.40" y="76.80">vi<tspan
	 style="font:italic 11.00px Times">m⁷</tspan></text>
</g>
<g stroke-width="0.70" style="font:bold 13.00px Times">
<text x="460.10" y="66.80">I<tspan
	 style="font:italic 11.00px Times">Δ⁷</tspan></text>
</g>
<g stroke-width="0.70" style="font:bold 13.00px Times">
<text x="546.00" y="76.80">IV<tspan
	 style="font:italic 11.00px Times">Δ⁷</tspan></text>
</g>
<g stroke-width="0.70" style="font:italic 11.00px Times">
<defs>
<path id="utclef" class="fill" d="m-50 -90
	c-72 -41 -72 -158 52 -188
	150 -10 220 188 90 256
	-114 52 -275 0 -293 -136
	-15 -181 93 -229 220 -334
	88 -87 79 -133 62 -210
	-51 33 -94 105 -89 186
	17 267 36 374 49 574
	6 96 -19 134 -77 135
	-80 1 -126 -93 -61 -133
	85 -41 133 101 31 105
	23 17 92 37 90 -92
	-10 -223 -39 -342 -50 -617
	0 -90 0 -162 96 -232
	56 72 63 230 22 289
	-74 106 -257 168 -255 316
	9 153 148 185 252 133
	86 -65 29 -192 -80 -176
	-71 12 -105 67 -59 124"/>
<use id="tclef" transform="translate(0,6) scale(0.045)"
	xlink:href="#utclef"/>
</defs>
<use x="22.00" y="101.40" xlink:href="#tclef"/>
<defs>
<path id="uflat" class="fill" d="
	m100 -746
	h32
	v734
	l-32 4
	m32 -332
	c46 -72 152 -90 208 -20
	100 110 -120 326 -208 348
	m0 -28
	c54 0 200 -206 130 -290
	-50 -60 -130 -4 -130 34"/>
<use id="ft0" transform="translate(-3.5,3.5) scale(0.018)"
	xlink:href="#uflat"/>
</defs>
<use x="37.00" y="95.40" xlink:href="#ft0"/>
<g style="font:bold 16px serif"
	transform="translate(53.00,106.90) scale(1.2,1)">
	<text text-anchor="middle">4</text>
	<text y="-12" text-anchor="middle">3</text>
</g>
<use x="71.00" y="92.40" xlink:href="#hd"/>
<path d="M67.50 92.40v21.00" class="stroke"/>
<use x="111.50" y="92.40" xlink:href="#hd"/>
<path d="M108.00 92.40v21.00" class="stroke"/>
<use x="151.60" y="95.40" xlink:href="#hd"/>
<path d="M148.10 95.40v21.00" class="stroke"/>
<path class="fill"
	d="M148.10 116.40c0.6 -5.6 9.6 -9 5.6 -18.4
	1.6 6 -1.3 11.6 -5.6 12.8
"/>
<use x="171.60" y="98.40" xlink:href="#hd"/>
<path d="M175.10 98.40v-21.00" class="stroke"/>
<defs>
<path id="hl" class="stroke" d="m-6 0h12"/>
</defs>
<use x="232.40" y="77.40" xlink:href="#hl"/>
<use x="232.40" y="77.40" xlink:href="#hd"/>
<path d="M228.90 77.40v40.00" class="stroke"/>
<use x="232.40" y="98.40" xlink:href="#hd"/>
<use x="260.00" y="80.40" xlink:href="#hd"/>
<path d="M256.50 80.40v40.00" class="stroke"/>
<path class="fill"
	d="M256.50 120.40c0.6 -5.6 9.6 -9 5.6 -18.4
	1.6 6 -1.3 11.6 -5.6 12.8
"/>
<use x="260.00" y="101.40" xlink:href="#hd"/>
<use x="279.90" y="83.40" xlink:href="#hd"/>
<path d="M276.40 83.40v40.00" class="stroke"/>
<use x="279.90" y="104.40" xlink:href="#hd"/>
<use x="326.40" y="104.40" xlink:href="#hd"/>
<path d="M329.90 104.40v-21.00" class="stroke"/>
<use x="367.10" y="107.40" xlink:href="#hd"/>
<path d="M370.60 107.40v-21.00" class="stroke"/>
<use x="407.20" y="110.40" xlink:href="#hd"/>
<path d="M410.70 110.40v-21.00" class="stroke"/>
<use x="465.90" y="113.40" xlink:href="#hl"/>
<use x="465.90" y="113.40" xlink:href="#hd"/>
<path d="M469.40 113.40v-40.00" class="stroke"/>
<use x="465.90" y="92.40" xlink:href="#hd"/>
<use x="493.60" y="113.40" xlink:href="#hl"/>
<use x="493.60" y="113.40" xlink:href="#hd"/>
<path d="M497.10 113.40v-40.00" class="stroke"/>
<use x="493.60" y="92.40" xlink:href="#hd"/>
<use x="521.40" y="113.40" xlink:href="#hl"/>
<use x="521.40" y="113.40" xlink:href="#hd"/>
<path d="M524.90 113.40v-40.00" class="stroke"/>
<use x="521.40" y="92.40" xlink:href="#hd"/>
<use x="554.00" y="110.40" xlink:href="#hd"/>
<path d="M557.50 110.40v-21.00" class="stroke"/>
<path class="fill"
	d="M557.50 89.40c0.6 5.6 9.6 9 5.6 18.4
	1.6 -6 -1.3 -11.6 -5.6 -12.8
"/>
<use x="574.70" y="113.40" xlink:href="#hl"/>
<use x="574.70" y="113.40" xlink:href="#hd"/>
<path d="M578.20 113.40v-21.00" class="stroke"/>
<use x="614.70" y="113.40" xlink:href="#hl"/>
<use x="614.70" y="113.40" xlink:href="#hd"/>
<path d="M618.20 113.40v-21.00" class="stroke"/>
<use x="654.80" y="101.40" xlink:href="#hd"/>
<path d="M658.30 101.40v-21.00" class="stroke"/>
<defs>
<path id="ubclef" class="fill" d="m-200 -87
	c124 -35 222 -78 254 -236
	43 -228 -167 -246 -192 -103
	59 -80 157 22 92 78
	-62 47 -115 -22 -106 -88
	21 -141 270 -136 274 52
	-1 175 -106 264 -322 297
	m357 -250
	c0 -36 51 -34 51 0
	0 37 -51 36 -51 0
	m-2 -129
	c0 -36 51 -34 51 0
	0 38 -51 37 -51 0"/>
<use id="bclef" transform="translate(0,18) scale(0.045)"
	xlink:href="#ubclef"/>
</defs>
<use x="22.00" y="159.40" xlink:href="#bclef"/>
<use x="37.00" y="171.40" xlink:href="#ft0"/>
<g style="font:bold 16px serif"
	transform="translate(53.00,176.90) scale(1.2,1)">
	<text text-anchor="middle">4</text>
	<text y="-12" text-anchor="middle">3</text>
</g>
<use x="71.00" y="183.40" xlink:href="#hl"/>
<use x="71.00" y="189.40" xlink:href="#hl"/>
<use x="71.00" y="195.40" xlink:href="#hl"/>
<use x="71.00" y="201.40" xlink:href="#hl"/>
<use x="71.00" y="201.40" xlink:href="#hd"/>
<path d="M74.50 201.40v-40.00" class="stroke"/>
<path class="fill"
	d="M74.50 161.40c0.6 5.6 9.6 9 5.6 18.4
	1.6 -6 -1.3 -11.6 -5.6 -12.8
"/>
<use x="71.00" y="180.40" xlink:href="#hd"/>
<use x="91.70" y="153.40" xlink:href="#hd"/>
<path d="M88.20 153.40v21.00" class="stroke"/>
<path class="fill"
	d="M88.20 174.40c0.6 -5.6 9.6 -9 5.6 -18.4
	1.6 6 -1.3 11.6 -5.6 12.8
"/>
<use x="111.50" y="147.40" xlink:href="#hl"/>
<use x="111.50" y="147.40" xlink:href="#hd"/>
<path d="M108.00 147.40v21.00" class="stroke"/>
<path class="fill"
	d="M108.00 168.40c0.6 -5.6 9.6 -9 5.6 -18.4
	1.6 6 -1.3 11.6 -5.6 12.8
"/>
<use x="131.60" y="147.40" xlink:href="#hl"/>
<use x="131.60" y="141.40" xlink:href="#hl"/>
<use x="131.60" y="141.40" xlink:href="#hd"/>
<path d="M128.10 141.40v24.00" class="stroke"/>
<path class="fill"
	d="M128.10 165.40c0.6 -5.6 9.6 -9 5.6 -18.4
	1.6 6 -1.3 11.6 -5.6 12.8
"/>
<use x="151.60" y="147.40" xlink:href="#hl"/>
<use x="151.60" y="141.40" xlink:href="#hl"/>
<use x="151.60" y="138.40" xlink:href="#hd"/>
<path d="M148.10 138.40v27.00" class="stroke"/>
<path class="fill"
	d="M148.10 165.40c0.6 -5.6 9.6 -9 5.6 -18.4
	1.6 6 -1.3 11.6 -5.6 12.8
"/>
<use x="171.60" y="147.40" xlink:href="#hl"/>
<use x="171.60" y="141.40" xlink:href="#hl"/>
<use x="171.60" y="135.40" xlink:href="#hl"/>
<use x="171.60" y="132.40" xlink:href="#hd"/>
<path d="M168.10 132.40v33.00" class="stroke"/>
<path class="fill"
	d="M168.10 165.40c0.6 -5.6 9.6 -9 5.6 -18.4
	1.6 6 -1.3 11.6 -5.6 12.8
"/>
<use x="191.40" y="180.40" xlink:href="#hd"/>
<path d="M194.90 180.40v-21.00" class="stroke"/>
<path class="fill"
	d="M194.90 159.40c0.6 5.6 9.6 9 5.6 18.4
	1.6 -6 -1.3 -11.6 -5.6 -12.8
"/>
<defs>
<path id="Hd" class="fill" d="m3 -1.6
	c-1 -1.8 -7 1.4 -6 3.2
	1 1.8 7 -1.4 6 -3.2
	m0.5 -0.3
	c2 3.8 -5 7.6 -7 3.8
	-2 -3.8 5 -7.6 7 -3.8"/>
</defs>
<use x="232.40" y="153.40" xlink:href="#Hd"/>
<path d="M228.90 153.40v37.00" class="stroke"/>
<use x="232.40" y="171.40" xlink:href="#Hd"/>
<use x="232.40" y="165.40" xlink:href="#Hd"/>
<use x="232.40" y="159.40" xlink:href="#Hd"/>
<use x="299.30" y="153.40" xlink:href="#hd"/>
<path d="M295.80 153.40v37.00" class="stroke"/>
<path class="fill"
	d="M295.80 190.40c0.6 -5.6 9.6 -9 5.6 -18.4
	1.6 6 -1.3 11.6 -5.6 12.8
"/>
<use x="299.30" y="171.40" xlink:href="#hd"/>
<use x="299.30" y="165.40" xlink:href="#hd"/>
<use x="299.30" y="159.40" xlink:href="#hd"/>
<use x="326.40" y="183.40" xlink:href="#hl"/>
<use x="326.40" y="186.40" xlink:href="#hd"/>
<path d="M329.90 186.40v-40.00" class="stroke"/>
<path class="fill"
	d="M329.90 146.40c0.6 5.6 9.6 9 5.6 18.4
	1.6 -6 -1.3 -11.6 -5.6 -12.8
"/>
<use x="326.40" y="165.40" xlink:href="#hd"/>
<use x="347.10" y="147.40" xlink:href="#hl"/>
<use x="347.10" y="141.40" xlink:href="#hl"/>
<use x="347.10" y="138.40" xlink:href="#hd"/>
<path d="M343.60 138.40v27.00" class="stroke"/>
<path class="fill"
	d="M343.60 165.40c0.6 -5.6 9.6 -9 5.6 -18.4
	1.6 6 -1.3 11.6 -5.6 12.8
"/>
<use x="367.10" y="147.40" xlink:href="#hl"/>
<use x="367.10" y="141.40" xlink:href="#hl"/>
<use x="367.10" y="135.40" xlink:href="#hl"/>
<use x="367.10" y="132.40" xlink:href="#hd"/>
<path d="M363.60 132.40v33.00" class="stroke"/>
<path class="fill"
	d="M363.60 165.40c0.6 -5.6 9.6 -9 5.6 -18.4
	1.6 6 -1.3 11.6 -5.6 12.8
"/>
<use x="387.20" y="147.40" xlink:href="#hl"/>
<use x="387.20" y="141.40" xlink:href="#hl"/>
<use x="387.20" y="135.40" xlink:href="#hl"/>
<use x="387.20" y="129.40" xlink:href="#hl"/>
<use x="387.20" y="126.40" xlink:href="#hd"/>
<path d="M383.70 126.40v39.00" class="stroke"/>
<path class="fill"
	d="M383.70 165.40c0.6 -5.6 9.6 -9 5.6 -18.4
	1.6 6 -1.3 11.6 -5.6 12.8
"/>
<use x="407.20" y="147.40" xlink:href="#hl"/>
<use x="407.20" y="141.40" xlink:href="#hl"/>
<use x="407.20" y="135.40" xlink:href="#hl"/>
<use x="407.20" y="129.40" xlink:href="#hl"/>
<use x="407.20" y="123.40" xlink:href="#hl"/>
<use x="407.20" y="123.40" xlink:href="#hd"/>
<path d="M403.70 123.40v42.00" class="stroke"/>
<path class="fill"
	d="M403.70 165.40c0.6 -5.6 9.6 -9 5.6 -18.4
	1.6 6 -1.3 11.6 -5.6 12.8
"/>
<use x="427.20" y="147.40" xlink:href="#hl"/>
<use x="427.20" y="141.40" xlink:href="#hl"/>
<use x="427.20" y="135.40" xlink:href="#hl"/>
<use x="427.20" y="129.40" xlink:href="#hl"/>
<use x="427.20" y="123.40" xlink:href="#hl"/>
<use x="427.20" y="117.40" xlink:href="#hl"/>
<use x="427.20" y="117.40" xlink:href="#hd"/>
<path d="M423.70 117.40v48.00" class="stroke"/>
<path class="fill"
	d="M423.70 165.40c0.6 -5.6 9.6 -9 5.6 -18.4
	1.6 6 -1.3 11.6 -5.6 12.8
"/>
<use x="465.90" y="180.40" xlink:href="#Hd"/>
<circle class="fill" cx="474.60" cy="180.40" r="1.2"/>
<path d="M469.40 180.40v-37.00" class="stroke"/>
<use x="465.90" y="174.40" xlink:href="#Hd"/>
<circle class="fill" cx="474.60" cy="174.40" r="1.2"/>
<use x="465.90" y="168.40" xlink:href="#Hd"/>
<circle class="fill" cx="474.60" cy="168.40" r="1.2"/>
<use x="465.90" y="162.40" xlink:href="#Hd"/>
<circle class="fill" cx="474.60" cy="162.40" r="1.2"/>
<use x="554.00" y="183.40" xlink:href="#hl"/>
<use x="554.00" y="189.40" xlink:href="#hl"/>
<use x="554.00" y="192.40" xlink:href="#hd"/>
<path d="M557.50 192.40v-40.00" class="stroke"/>
<path class="fill"
	d="M557.50 152.40c0.6 5.6 9.6 9 5.6 18.4
	1.6 -6 -1.3 -11.6 -5.6 -12.8
"/>
<use x="554.00" y="171.40" xlink:href="#hd"/>
<use x="574.70" y="147.40" xlink:href="#hl"/>
<use x="574.70" y="144.40" xlink:href="#hd"/>
<path d="M571.20 144.40v21.00" class="stroke"/>
<path class="fill"
	d="M571.20 165.40c0.6 -5.6 9.6 -9 5.6 -18.4
	1.6 6 -1.3 11.6 -5.6 12.8
"/>
<use x="594.70" y="147.40" xlink:href="#hl"/>
<use x="594.70" y="141.40" xlink:href="#hl"/>
<use x="594.70" y="138.40" xlink:href="#hd"/>
<path d="M591.20 138.40v27.00" class="stroke"/>
<path class="fill"
	d="M591.20 165.40c0.6 -5.6 9.6 -9 5.6 -18.4
	1.6 6 -1.3 11.6 -5.6 12.8
"/>
<use x="614.70" y="147.40" xlink:href="#hl"/>
<use x="614.70" y="141.40" xlink:href="#hl"/>
<use x="614.70" y="135.40" xlink:href="#hl"/>
<use x="614.70" y="132.40" xlink:href="#hd"/>
<path d="M611.20 132.40v33.00" class="stroke"/>
<path class="fill"
	d="M611.20 165.40c0.6 -5.6 9.6 -9 5.6 -18.4
	1.6 6 -1.3 11.6 -5.6 12.8
"/>
<use x="634.70" y="147.40" xlink:href="#hl"/>
<use x="634.70" y="141.40" xlink:href="#hl"/>
<use x="634.70" y="135.40" xlink:href="#hl"/>
<use x="634.70" y="129.40" xlink:href="#hl"/>
<use x="634.70" y="129.40" xlink:href="#hd"/>
<path d="M631.20 129.40v36.00" class="stroke"/>
<path class="fill"
	d="M631.20 165.40c0.6 -5.6 9.6 -9 5.6 -18.4
	1.6 6 -1.3 11.6 -5.6 12.8
"/>
<use x="654.80" y="147.40" xlink:href="#hl"/>
<use x="654.80" y="141.40" xlink:href="#hl"/>
<use x="654.80" y="135.40" xlink:href="#hl"/>
<use x="654.80" y="129.40" xlink:href="#hl"/>
<use x="654.80" y="123.40" xlink:href="#hl"/>
<use x="654.80" y="123.40" xlink:href="#hd"/>
<path d="M651.30 123.40v42.00" class="stroke"/>
<path class="fill"
	d="M651.30 165.40c0.6 -5.6 9.6 -9 5.6 -18.4
	1.6 6 -1.3 11.6 -5.6 12.8
"/>
<use x="674.60" y="171.40" xlink:href="#hd"/>
<path d="M678.10 171.40v-21.00" class="stroke"/>
<path class="fill"
	d="M678.10 150.40c0.6 5.6 9.6 9 5.6 18.4
	1.6 -6 -1.3 -11.6 -5.6 -12.8
"/>
<path class="fill"
	d="M235.90 171.40c8.89 5.58 50.92 5.58 59.81 -0.00
	v0.26c-10.68 7.32 -49.13 7.32 -59.81 -0.26"/>
<path class="fill"
	d="M235.90 165.40c8.89 5.58 50.92 5.58 59.81 -0.00
	v0.26c-10.68 7.32 -49.13 7.32 -59.81 -0.26"/>
<path class="fill"
	d="M235.90 159.40c8.89 -5.58 50.92 -5.58 59.81 -0.00
	v-0.26c-10.68 -7.32 -49.13 -7.32 -59.81 0.26"/>
<path class="fill"
	d="M235.90 153.40c8.89 -5.58 50.92 -5.58 59.81 -0.00
	v-0.26c-10.68 -7.32 -49.13 -7.32 -59.81 0.26"/>
<defs>
<path id="ltr" class="fill"
    d="m0 -0.4c2 -1.5 3.4 -1.9 3.9 0.4
	c0.2 0.8 0.7 0.7 2.1 -0.4
	v0.8c-2 1.5 -3.4 1.9 -3.9 -0.4
	c-0.2 -0.8 -0.7 -0.7 -2.1 0.4z"/>
</defs>
<g transform="rotate(270)">
<use x="-174.40" y="222.40" xlink:href="#ltr"/>
<use x="-168.40" y="222.40" xlink:href="#ltr"/>
<use x="-162.40" y="222.40" xlink:href="#ltr"/>
<use x="-156.40" y="222.40" xlink:href="#ltr"/>
</g>
<g transform="rotate(270)">
<use x="-174.40" y="289.30" xlink:href="#ltr"/>
<use x="-168.40" y="289.30" xlink:href="#ltr"/>
<use x="-162.40" y="289.30" xlink:href="#ltr"/>
<use x="-156.40" y="289.30" xlink:href="#ltr"/>
</g>
<text x="318.90" y="74.40" style="font:bold italic 30px serif">,</text>
<g transform="rotate(270)">
<use x="-183.40" y="455.90" xlink:href="#ltr"/>
<use x="-177.40" y="455.90" xlink:href="#ltr"/>
<use x="-171.40" y="455.90" xlink:href="#ltr"/>
<use x="-165.40" y="455.90" xlink:href="#ltr"/>
</g>
<text x="546.50" y="74.40" style="font:bold italic 30px serif">,</text>
</g>
<g stroke-width="0.70" style="font:italic 11.00px Times">
<path class="stroke" stroke-width="1"
	d="M10.00 329.40v-99.00"/>
<g transform="translate(10.00,230.40) scale(1,0.99)">
	<use xlink:href="#brace"/>
</g>
<path class="stroke" stroke-width="1"
	d="M177.70 254.40v-24.00"/>
<path class="stroke" stroke-width="1"
	d="M177.70 329.40v-24.00"/>
<path class="stroke" stroke-width="1"
	d="M283.10 254.40v-24.00"/>
<path class="stroke" stroke-width="1"
	d="M283.10 329.40v-24.00"/>
<path class="stroke" stroke-width="1"
	d="M397.20 254.40v-24.00"/>
<path class="stroke" stroke-width="1"
	d="M397.20 329.40v-24.00"/>
<path class="stroke" stroke-width="1"
	d="M555.90 254.40v-24.00"/>
<path class="stroke" stroke-width="1"
	d="M555.90 329.40v-24.00"/>
<path class="stroke" stroke-width="1"
	d="M691.60 254.40v-24.00"/>
<path class="stroke" stroke-width="1"
	d="M691.60 329.40v-24.00"/>
<path d="m10.00 254.40
	h681.60
	M10.00 248.40
	h681.60
	M10.00 242.40
	h681.60
	M10.00 236.40
	h681.60
	M10.00 230.40
	h681.60
	" class="stroke"/>
<path d="m10.00 329.40
	h681.60
	M10.00 323.40
	h681.60
	M10.00 317.40
	h681.60
	M10.00 311.40
	h681.60
	M10.00 305.40
	h681.60
	" class="stroke"/>
</g>
<g stroke-width="0.70" style="font:bold 13.00px Times">
<text x="47.00" y="225.80">vii<tspan
	 style="font:italic 11.00px Times">ø⁷</tspan></text>
</g>
<g stroke-width="0.70" style="font:bold 13.00px Times">
<text x="196.00" y="221.80">I<tspan
	 style="font:italic 11.00px Times">Δ⁷</tspan></text>
</g>
<g stroke-width="0.70" style="font:bold 13.00px Times">
<text x="289.90" y="225.80">I<tspan
	 style="font:italic 11.00px Times">Δ⁷</tspan></text>
</g>
<g stroke-width="0.70" style="font:bold 13.00px Times">
<text x="403.90" y="217.80">I<tspan
	 style="font:italic 11.00px Times">Δ⁷</tspan></text>
</g>
<g stroke-width="0.70" style="font:bold 13.00px Times">
<text x="560.40" y="223.80">vi<tspan
	 style="font:italic 11.00px Times">m⁷</tspan></text>
</g>
<g stroke-width="0.70" style="font:italic 11.00px Times">
<use x="22.00" y="248.40" xlink:href="#tclef"/>
<use x="37.00" y="242.40" xlink:href="#ft0"/>
<use x="55.00" y="254.40" xlink:href="#hd"/>
<path d="M58.50 254.40v-21.00" class="stroke"/>
<use x="97.90" y="257.40" xlink:href="#hd"/>
<path d="M101.40 257.40v-21.00" class="stroke"/>
<use x="140.80" y="260.40" xlink:href="#hl"/>
<use x="140.80" y="260.40" xlink:href="#hd"/>
<path d="M144.30 260.40v-21.00" class="stroke"/>
<use x="201.70" y="230.40" xlink:href="#hd"/>
<path d="M198.20 230.40v40.00" class="stroke"/>
<use x="201.70" y="251.40" xlink:href="#hd"/>
<use x="231.60" y="224.40" xlink:href="#hl"/>
<use x="231.60" y="224.40" xlink:href="#hd"/>
<path d="M228.10 224.40v40.00" class="stroke"/>
<use x="231.60" y="245.40" xlink:href="#hd"/>
<use x="261.70" y="224.40" xlink:href="#hl"/>
<use x="261.70" y="218.40" xlink:href="#hl"/>
<use x="261.70" y="218.40" xlink:href="#hd"/>
<path d="M258.20 218.40v40.00" class="stroke"/>
<use x="261.70" y="239.40" xlink:href="#hd"/>
<use x="295.60" y="239.40" xlink:href="#hd"/>
<path d="M292.10 239.40v21.00" class="stroke"/>
<use x="338.80" y="242.40" xlink:href="#hd"/>
<path d="M335.30 242.40v21.00" class="stroke"/>
<path class="fill"
	d="M335.30 263.40c0.6 -5.6 9.6 -9 5.6 -18.4
	1.6 6 -1.3 11.6 -5.6 12.8
"/>
<use x="360.30" y="245.40" xlink:href="#hd"/>
<path d="M363.80 245.40v-21.00" class="stroke"/>
<use x="409.70" y="245.40" xlink:href="#hd"/>
<path d="M413.20 245.40v-21.00" class="stroke"/>
<use x="452.90" y="248.40" xlink:href="#hd"/>
<path d="M456.40 248.40v-21.00" class="stroke"/>
<path class="fill"
	d="M456.40 227.40c0.6 5.6 9.6 9 5.6 18.4
	1.6 -6 -1.3 -11.6 -5.6 -12.8
"/>
<use x="474.60" y="251.40" xlink:href="#hd"/>
<path d="M478.10 251.40v-21.00" class="stroke"/>
<use x="517.60" y="251.40" xlink:href="#hd"/>
<path d="M521.10 251.40v-21.00" class="stroke"/>
<use x="568.40" y="254.40" xlink:href="#hd"/>
<path d="M571.90 254.40v-21.00" class="stroke"/>
<use x="611.80" y="257.40" xlink:href="#hd"/>
<path d="M615.30 257.40v-21.00" class="stroke"/>
<use x="654.70" y="260.40" xlink:href="#hl"/>
<use x="654.70" y="260.40" xlink:href="#hd"/>
<path d="M658.20 260.40v-21.00" class="stroke"/>
<use x="22.00" y="311.40" xlink:href="#bclef"/>
<use x="37.00" y="323.40" xlink:href="#ft0"/>
<use x="55.00" y="314.40" xlink:href="#hd"/>
<path d="M51.50 314.40v21.00" class="stroke"/>
<path class="fill"
	d="M51.50 335.40c0.6 -5.6 9.6 -9 5.6 -18.4
	1.6 6 -1.3 11.6 -5.6 12.8
"/>
<use x="76.40" y="299.40" xlink:href="#hl"/>
<use x="76.40" y="293.40" xlink:href="#hl"/>
<use x="76.40" y="287.40" xlink:href="#hl"/>
<use x="76.40" y="287.40" xlink:href="#hd"/>
<path d="M72.90 287.40v30.00" class="stroke"/>
<path class="fill"
	d="M72.90 317.40c0.6 -5.6 9.6 -9 5.6 -18.4
	1.6 6 -1.3 11.6 -5.6 12.8
"/>
<use x="97.90" y="299.40" xlink:href="#hl"/>
<use x="97.90" y="293.40" xlink:href="#hl"/>
<use x="97.90" y="287.40" xlink:href="#hl"/>
<use x="97.90" y="281.40" xlink:href="#hl"/>
<use x="97.90" y="281.40" xlink:href="#hd"/>
<path d="M94.40 281.40v36.00" class="stroke"/>
<path class="fill"
	d="M94.40 317.40c0.6 -5.6 9.6 -9 5.6 -18.4
	1.6 6 -1.3 11.6 -5.6 12.8
"/>
<use x="119.30" y="299.40" xlink:href="#hl"/>
<use x="119.30" y="293.40" xlink:href="#hl"/>
<use x="119.30" y="287.40" xlink:href="#hl"/>
<use x="119.30" y="281.40" xlink:href="#hl"/>
<use x="119.30" y="275.40" xlink:href="#hl"/>
<use x="119.30" y="275.40" xlink:href="#hd"/>
<path d="M115.80 275.40v42.00" class="stroke"/>
<path class="fill"
	d="M115.80 317.40c0.6 -5.6 9.6 -9 5.6 -18.4
	1.6 6 -1.3 11.6 -5.6 12.8
"/>
<use x="140.80" y="299.40" xlink:href="#hl"/>
<use x="140.80" y="293.40" xlink:href="#hl"/>
<use x="140.80" y="287.40" xlink:href="#hl"/>
<use x="140.80" y="281.40" xlink:href="#hl"/>
<use x="140.80" y="275.40" xlink:href="#hl"/>
<use x="140.80" y="272.40" xlink:href="#hd"/>
<path d="M137.30 272.40v45.00" class="stroke"/>
<path class="fill"
	d="M137.30 317.40c0.6 -5.6 9.6 -9 5.6 -18.4
	1.6 6 -1.3 11.6 -5.6 12.8
"/>
<use x="162.30" y="299.40" xlink:href="#hl"/>
<use x="162.30" y="293.40" xlink:href="#hl"/>
<use x="162.30" y="287.40" xlink:href="#hl"/>
<use x="162.30" y="281.40" xlink:href="#hl"/>
<use x="162.30" y="275.40" xlink:href="#hl"/>
<use x="162.30" y="269.40" xlink:href="#hl"/>
<use x="162.30" y="266.40" xlink:href="#hd"/>
<path d="M158.80 266.40v51.00" class="stroke"/>
<path class="fill"
	d="M158.80 317.40c0.6 -5.6 9.6 -9 5.6 -18.4
	1.6 6 -1.3 11.6 -5.6 12.8
"/>
<use x="201.70" y="332.40" xlink:href="#Hd"/>
<circle class="fill" cx="210.40" cy="332.40" r="1.2"/>
<path d="M205.20 332.40v-37.00" class="stroke"/>
<use x="201.70" y="326.40" xlink:href="#Hd"/>
<circle class="fill" cx="210.40" cy="326.40" r="1.2"/>
<use x="201.70" y="320.40" xlink:href="#Hd"/>
<circle class="fill" cx="210.40" cy="320.40" r="1.2"/>
<use x="201.70" y="314.40" xlink:href="#Hd"/>
<circle class="fill" cx="210.40" cy="314.40" r="1.2"/>
<use x="295.60" y="335.40" xlink:href="#hl"/>
<use x="295.60" y="341.40" xlink:href="#hl"/>
<use x="295.60" y="347.40" xlink:href="#hl"/>
<use x="295.60" y="353.40" xlink:href="#hl"/>
<use x="295.60" y="353.40" xlink:href="#hd"/>
<path d="M299.10 353.40v-40.00" class="stroke"/>
<path class="fill"
	d="M299.10 313.40c0.6 5.6 9.6 9 5.6 18.4
	1.6 -6 -1.3 -11.6 -5.6 -12.8
"/>
<use x="295.60" y="332.40" xlink:href="#hd"/>
<use x="317.40" y="305.40" xlink:href="#hd"/>
<path d="M313.90 305.40v21.00" class="stroke"/>
<path class="fill"
	d="M313.90 326.40c0.6 -5.6 9.6 -9 5.6 -18.4
	1.6 6 -1.3 11.6 -5.6 12.8
"/>
<use x="338.80" y="299.40" xlink:href="#hl"/>
<use x="338.80" y="299.40" xlink:href="#hd"/>
<path d="M335.30 299.40v21.00" class="stroke"/>
<path class="fill"
	d="M335.30 320.40c0.6 -5.6 9.6 -9 5.6 -18.4
	1.6 6 -1.3 11.6 -5.6 12.8
"/>
<use x="360.30" y="299.40" xlink:href="#hl"/>
<use x="360.30" y="293.40" xlink:href="#hl"/>
<use x="360.30" y="293.40" xlink:href="#hd"/>
<path d="M356.80 293.40v24.00" class="stroke"/>
<path class="fill"
	d="M356.80 317.40c0.6 -5.6 9.6 -9 5.6 -18.4
	1.6 6 -1.3 11.6 -5.6 12.8
"/>
<use x="381.80" y="299.40" xlink:href="#hl"/>
<use x="381.80" y="293.40" xlink:href="#hl"/>
<use x="381.80" y="290.40" xlink:href="#hd"/>
<path d="M378.30 290.40v27.00" class="stroke"/>
<path class="fill"
	d="M378.30 317.40c0.6 -5.6 9.6 -9 5.6 -18.4
	1.6 6 -1.3 11.6 -5.6 12.8
"/>
<use x="409.70" y="332.40" xlink:href="#hd"/>
<path d="M413.20 332.40v-21.00" class="stroke"/>
<path class="fill"
	d="M413.20 311.40c0.6 5.6 9.6 9 5.6 18.4
	1.6 -6 -1.3 -11.6 -5.6 -12.8
"/>
<use x="431.50" y="305.40" xlink:href="#hd"/>
<path d="M428.00 305.40v21.00" class="stroke"/>
<path class="fill"
	d="M428.00 326.40c0.6 -5.6 9.6 -9 5.6 -18.4
	1.6 6 -1.3 11.6 -5.6 12.8
"/>
<use x="452.90" y="299.40" xlink:href="#hl"/>
<use x="452.90" y="299.40" xlink:href="#hd"/>
<path d="M449.40 299.40v21.00" class="stroke"/>
<path class="fill"
	d="M449.40 320.40c0.6 -5.6 9.6 -9 5.6 -18.4
	1.6 6 -1.3 11.6 -5.6 12.8
"/>
<use x="474.60" y="299.40" xlink:href="#hl"/>
<use x="474.60" y="293.40" xlink:href="#hl"/>
<use x="474.60" y="293.40" xlink:href="#hd"/>
<path d="M471.10 293.40v24.00" class="stroke"/>
<path class="fill"
	d="M471.10 317.40c0.6 -5.6 9.6 -9 5.6 -18.4
	1.6 6 -1.3 11.6 -5.6 12.8
"/>
<use x="496.10" y="299.40" xlink:href="#hl"/>
<use x="496.10" y="293.40" xlink:href="#hl"/>
<use x="496.10" y="290.40" xlink:href="#hd"/>
<path d="M492.60 290.40v27.00" class="stroke"/>
<path class="fill"
	d="M492.60 317.40c0.6 -5.6 9.6 -9 5.6 -18.4
	1.6 6 -1.3 11.6 -5.6 12.8
"/>
<use x="517.60" y="299.40" xlink:href="#hl"/>
<use x="517.60" y="293.40" xlink:href="#hl"/>
<use x="517.60" y="287.40" xlink:href="#hl"/>
<use x="517.60" y="284.40" xlink:href="#hd"/>
<path d="M514.10 284.40v33.00" class="stroke"/>
<path class="fill"
	d="M514.10 317.40c0.6 -5.6 9.6 -9 5.6 -18.4
	1.6 6 -1.3 11.6 -5.6 12.8
"/>
<use x="538.90" y="332.40" xlink:href="#hd"/>
<path d="M542.40 332.40v-21.00" class="stroke"/>
<path class="fill"
	d="M542.40 311.40c0.6 5.6 9.6 9 5.6 18.4
	1.6 -6 -1.3 -11.6 -5.6 -12.8
"/>
<use x="568.40" y="317.40" xlink:href="#hd"/>
<path d="M571.90 317.40v-21.00" class="stroke"/>
<path class="fill"
	d="M571.90 296.40c0.6 5.6 9.6 9 5.6 18.4
	1.6 -6 -1.3 -11.6 -5.6 -12.8
"/>
<use x="590.30" y="299.40" xlink:href="#hl"/>
<use x="590.30" y="293.40" xlink:href="#hl"/>
<use x="590.30" y="290.40" xlink:href="#hd"/>
<path d="M586.80 290.40v27.00" class="stroke"/>
<path class="fill"
	d="M586.80 317.40c0.6 -5.6 9.6 -9 5.6 -18.4
	1.6 6 -1.3 11.6 -5.6 12.8
"/>
<use x="611.80" y="299.40" xlink:href="#hl"/>
<use x="611.80" y="293.40" xlink:href="#hl"/>
<use x="611.80" y="287.40" xlink:href="#hl"/>
<use x="611.80" y="284.40" xlink:href="#hd"/>
<path d="M608.30 284.40v33.00" class="stroke"/>
<path class="fill"
	d="M608.30 317.40c0.6 -5.6 9.6 -9 5.6 -18.4
	1.6 6 -1.3 11.6 -5.6 12.8
"/>
<use x="633.20" y="299.40" xlink:href="#hl"/>
<use x="633.20" y="293.40" xlink:href="#hl"/>
<use x="633.20" y="287.40" xlink:href="#hl"/>
<use x="633.20" y="281.40" xlink:href="#hl"/>
<use x="633.20" y="278.40" xlink:href="#hd"/>
<path d="M629.70 278.40v39.00" class="stroke"/>
<path class="fill"
	d="M629.70 317.40c0.6 -5.6 9.6 -9 5.6 -18.4
	1.6 6 -1.3 11.6 -5.6 12.8
"/>
<use x="654.70" y="299.40" xlink:href="#hl"/>
<use x="654.70" y="293.40" xlink:href="#hl"/>
<use x="654.70" y="287.40" xlink:href="#hl"/>
<use x="654.70" y="281.40" xlink:href="#hl"/>
<use x="654.70" y="275.40" xlink:href="#hl"/>
<use x="654.70" y="275.40" xlink:href="#hd"/>
<path d="M651.20 275.40v42.00" class="stroke"/>
<path class="fill"
	d="M651.20 317.40c0.6 -5.6 9.6 -9 5.6 -18.4
	1.6 6 -1.3 11.6 -5.6 12.8
"/>
<use x="676.20" y="299.40" xlink:href="#hl"/>
<use x="676.20" y="293.40" xlink:href="#hl"/>
<use x="676.20" y="287.40" xlink:href="#hl"/>
<use x="676.20" y="281.40" xlink:href="#hl"/>
<use x="676.20" y="275.40" xlink:href="#hl"/>
<use x="676.20" y="269.40" xlink:href="#hl"/>
<use x="676.20" y="269.40" xlink:href="#hd"/>
<path d="M672.70 269.40v48.00" class="stroke"/>
<path class="fill"
	d="M672.70 317.40c0.6 -5.6 9.6 -9 5.6 -18.4
	1.6 6 -1.3 11.6 -5.6 12.8
"/>
<g transform="rotate(270)">
<use x="-335.40" y="191.70" xlink:href="#ltr"/>
<use x="-329.40" y="191.70" xlink:href="#ltr"/>
<use x="-323.40" y="191.70" xlink:href="#ltr"/>
<use x="-317.40" y="191.70" xlink:href="#ltr"/>
</g>
<text x="288.10" y="221.40" style="font:bold italic 30px serif">,</text>
</g>
<g stroke-width="0.70" style="font:italic 11.00px Times">
<path class="stroke" stroke-width="1"
	d="M10.00 481.80v-90.00"/>
<g transform="translate(10.00,391.80) scale(1,0.90)">
	<use xlink:href="#brace"/>
</g>
<path class="stroke" stroke-width="1"
	d="M216.30 415.80v-24.00"/>
<path class="stroke" stroke-width="1"
	d="M216.30 481.80v-24.00"/>
<path class="stroke" stroke-width="1"
	d="M371.80 415.80v-24.00"/>
<path class="stroke" stroke-width="1"
	d="M371.80 481.80v-24.00"/>
<path class="stroke" stroke-width="1"
	d="M584.70 415.80v-24.00"/>
<path class="stroke" stroke-width="1"
	d="M584.70 481.80v-24.00"/>
<path class="stroke" stroke-width="1"
	d="M691.60 415.80v-24.00"/>
<path class="stroke" stroke-width="1"
	d="M691.60 481.80v-24.00"/>
<path d="m10.00 415.80
	h681.60
	M10.00 409.80
	h681.60
	M10.00 403.80
	h681.60
	M10.00 397.80
	h681.60
	M10.00 391.80
	h681.60
	" class="stroke"/>
<path d="m10.00 481.80
	h681.60
	M10.00 475.80
	h681.60
	M10.00 469.80
	h681.60
	M10.00 463.80
	h681.60
	M10.00 457.80
	h681.60
	" class="stroke"/>
</g>
<g stroke-width="0.70" style="font:bold 13.00px Times">
<text x="47.00" y="387.20">iii<tspan
	 style="font:italic 11.00px Times">m⁷</tspan></text>
</g>
<g stroke-width="0.70" style="font:bold 13.00px Times">
<text x="232.80" y="380.20">vii<tspan
	 style="font:italic 11.00px Times">ø⁷</tspan></text>
</g>
<g stroke-width="0.70" style="font:bold 13.00px Times">
<text x="383.10" y="385.20">V<tspan
	 style="font:italic 11.00px Times">⁷</tspan></text>
</g>
<g stroke-width="0.70" style="font:bold 13.00px Times">
<text x="603.40" y="369.20">I<tspan
	 style="font:italic 11.00px Times">Δ⁷</tspan></text>
</g>
<g stroke-width="0.70" style="font:italic 11.00px Times">
<use x="22.00" y="409.80" xlink:href="#tclef"/>
<use x="37.00" y="403.80" xlink:href="#ft0"/>
<use x="55.00" y="421.80" xlink:href="#hl"/>
<use x="55.00" y="421.80" xlink:href="#hd"/>
<path d="M58.50 421.80v-21.00" class="stroke"/>
<use x="123.70" y="403.80" xlink:href="#hd"/>
<path d="M127.20 403.80v-21.00" class="stroke"/>
<use x="192.30" y="406.80" xlink:href="#hd"/>
<path d="M195.80 406.80v-21.00" class="stroke"/>
<path class="fill"
	d="M195.80 385.80c0.6 5.6 9.6 9 5.6 18.4
	1.6 -6 -1.3 -11.6 -5.6 -12.8
"/>
<use x="240.80" y="388.80" xlink:href="#hd"/>
<path d="M237.30 388.80v40.00" class="stroke"/>
<use x="240.80" y="409.80" xlink:href="#hd"/>
<use x="289.30" y="385.80" xlink:href="#hl"/>
<use x="289.30" y="385.80" xlink:href="#hd"/>
<path d="M285.80 385.80v40.00" class="stroke"/>
<use x="289.30" y="406.80" xlink:href="#hd"/>
<use x="337.80" y="388.80" xlink:href="#hd"/>
<path d="M334.30 388.80v40.00" class="stroke"/>
<use x="337.80" y="409.80" xlink:href="#hd"/>
<use x="389.00" y="412.80" xlink:href="#hd"/>
<path d="M392.50 412.80v-21.00" class="stroke"/>
<use x="457.60" y="409.80" xlink:href="#hd"/>
<path d="M461.10 409.80v-21.00" class="stroke"/>
<use x="526.30" y="418.80" xlink:href="#hd"/>
<path d="M529.80 418.80v-21.00" class="stroke"/>
<use x="609.10" y="415.80" xlink:href="#hd"/>
<path d="M612.60 415.80v-40.00" class="stroke"/>
<use x="609.10" y="394.80" xlink:href="#hd"/>
<use x="657.60" y="391.80" xlink:href="#hd"/>
<path d="M654.10 391.80v40.00" class="stroke"/>
<use x="657.60" y="412.80" xlink:href="#hd"/>
<use x="22.00" y="463.80" xlink:href="#bclef"/>
<use x="37.00" y="475.80" xlink:href="#ft0"/>
<use x="55.00" y="478.80" xlink:href="#hd"/>
<path d="M58.50 478.80v-21.00" class="stroke"/>
<path class="fill"
	d="M58.50 457.80c0.6 5.6 9.6 9 5.6 18.4
	1.6 -6 -1.3 -11.6 -5.6 -12.8
"/>
<use x="89.30" y="451.80" xlink:href="#hl"/>
<use x="89.30" y="451.80" xlink:href="#hd"/>
<path d="M85.80 451.80v21.00" class="stroke"/>
<path class="fill"
	d="M85.80 472.80c0.6 -5.6 9.6 -9 5.6 -18.4
	1.6 6 -1.3 11.6 -5.6 12.8
"/>
<use x="123.70" y="451.80" xlink:href="#hl"/>
<use x="123.70" y="445.80" xlink:href="#hl"/>
<use x="123.70" y="445.80" xlink:href="#hd"/>
<path d="M120.20 445.80v24.00" class="stroke"/>
<path class="fill"
	d="M120.20 469.80c0.6 -5.6 9.6 -9 5.6 -18.4
	1.6 6 -1.3 11.6 -5.6 12.8
"/>
<use x="158.00" y="451.80" xlink:href="#hl"/>
<use x="158.00" y="445.80" xlink:href="#hl"/>
<use x="158.00" y="439.80" xlink:href="#hl"/>
<use x="158.00" y="439.80" xlink:href="#hd"/>
<path d="M154.50 439.80v30.00" class="stroke"/>
<path class="fill"
	d="M154.50 469.80c0.6 -5.6 9.6 -9 5.6 -18.4
	1.6 6 -1.3 11.6 -5.6 12.8
"/>
<use x="192.30" y="451.80" xlink:href="#hl"/>
<use x="192.30" y="445.80" xlink:href="#hl"/>
<use x="192.30" y="439.80" xlink:href="#hl"/>
<use x="192.30" y="436.80" xlink:href="#hd"/>
<path d="M188.80 436.80v33.00" class="stroke"/>
<path class="fill"
	d="M188.80 469.80c0.6 -5.6 9.6 -9 5.6 -18.4
	1.6 6 -1.3 11.6 -5.6 12.8
"/>
<use x="240.80" y="451.80" xlink:href="#hl"/>
<use x="240.80" y="448.80" xlink:href="#Hd"/>
<circle class="fill" cx="249.50" cy="448.80" r="1.2"/>
<path d="M237.30 448.80v37.00" class="stroke"/>
<use x="240.80" y="466.80" xlink:href="#Hd"/>
<circle class="fill" cx="249.50" cy="466.80" r="1.2"/>
<use x="240.80" y="460.80" xlink:href="#Hd"/>
<circle class="fill" cx="249.50" cy="460.80" r="1.2"/>
<use x="240.80" y="454.80" xlink:href="#Hd"/>
<circle class="fill" cx="249.50" cy="454.80" r="1.2"/>
<use x="389.00" y="487.80" xlink:href="#hl"/>
<use x="389.00" y="493.80" xlink:href="#hl"/>
<use x="389.00" y="493.80" xlink:href="#hd"/>
<path d="M392.50 493.80v-40.00" class="stroke"/>
<path class="fill"
	d="M392.50 453.80c0.6 5.6 9.6 9 5.6 18.4
	1.6 -6 -1.3 -11.6 -5.6 -12.8
"/>
<use x="389.00" y="472.80" xlink:href="#hd"/>
<use x="423.30" y="451.80" xlink:href="#hl"/>
<use x="423.30" y="445.80" xlink:href="#hl"/>
<use x="423.30" y="445.80" xlink:href="#hd"/>
<path d="M419.80 445.80v24.00" class="stroke"/>
<path class="fill"
	d="M419.80 469.80c0.6 -5.6 9.6 -9 5.6 -18.4
	1.6 6 -1.3 11.6 -5.6 12.8
"/>
<use x="457.60" y="451.80" xlink:href="#hl"/>
<use x="457.60" y="445.80" xlink:href="#hl"/>
<use x="457.60" y="439.80" xlink:href="#hl"/>
<use x="457.60" y="439.80" xlink:href="#hd"/>
<path d="M454.10 439.80v30.00" class="stroke"/>
<path class="fill"
	d="M454.10 469.80c0.6 -5.6 9.6 -9 5.6 -18.4
	1.6 6 -1.3 11.6 -5.6 12.8
"/>
<use x="492.00" y="451.80" xlink:href="#hl"/>
<use x="492.00" y="445.80" xlink:href="#hl"/>
<use x="492.00" y="439.80" xlink:href="#hl"/>
<use x="492.00" y="433.80" xlink:href="#hl"/>
<use x="492.00" y="433.80" xlink:href="#hd"/>
<path d="M488.50 433.80v36.00" class="stroke"/>
<path class="fill"
	d="M488.50 469.80c0.6 -5.6 9.6 -9 5.6 -18.4
	1.6 6 -1.3 11.6 -5.6 12.8
"/>
<use x="526.30" y="451.80" xlink:href="#hl"/>
<use x="526.30" y="445.80" xlink:href="#hl"/>
<use x="526.30" y="439.80" xlink:href="#hl"/>
<use x="526.30" y="433.80" xlink:href="#hl"/>
<use x="526.30" y="430.80" xlink:href="#hd"/>
<path d="M522.80 430.80v39.00" class="stroke"/>
<path class="fill"
	d="M522.80 469.80c0.6 -5.6 9.6 -9 5.6 -18.4
	1.6 6 -1.3 11.6 -5.6 12.8
"/>
<use x="560.60" y="451.80" xlink:href="#hl"/>
<use x="560.60" y="445.80" xlink:href="#hl"/>
<use x="560.60" y="439.80" xlink:href="#hl"/>
<use x="560.60" y="433.80" xlink:href="#hl"/>
<use x="560.60" y="427.80" xlink:href="#hl"/>
<use x="560.60" y="424.80" xlink:href="#hd"/>
<path d="M557.10 424.80v45.00" class="stroke"/>
<path class="fill"
	d="M557.10 469.80c0.6 -5.6 9.6 -9 5.6 -18.4
	1.6 6 -1.3 11.6 -5.6 12.8
"/>
<use x="609.10" y="487.80" xlink:href="#hl"/>
<use x="609.10" y="493.80" xlink:href="#hl"/>
<use x="609.10" y="499.80" xlink:href="#hl"/>
<use x="609.10" y="505.80" xlink:href="#hl"/>
<use x="609.10" y="505.80" xlink:href="#Hd"/>
<path d="M612.60 505.80v-58.00" class="stroke"/>
<use x="609.10" y="484.80" xlink:href="#Hd"/>
<use x="609.10" y="478.80" xlink:href="#Hd"/>
<use x="609.10" y="472.80" xlink:href="#Hd"/>
<use x="609.10" y="466.80" xlink:href="#Hd"/>
<g transform="rotate(270)">
<use x="-469.80" y="230.80" xlink:href="#ltr"/>
<use x="-463.80" y="230.80" xlink:href="#ltr"/>
<use x="-457.80" y="230.80" xlink:href="#ltr"/>
<use x="-451.80" y="230.80" xlink:href="#ltr"/>
</g>
<text x="378.70" y="382.80" style="font:bold italic 30px serif">,</text>
<defs>
<g id="hld" class="fill">
	<circle cx="0" cy="-3" r="1.3"/>
	<path d="m-7.5 -1.5
		c0 -11.5 15 -11.5 15 0
		h-0.25
		c-1.25 -9 -13.25 -9 -14.5 0"/>
</g>
</defs>
<use x="609.10" y="443.80" xlink:href="#hld"/>
<g transform="rotate(270)">
<use x="-508.80" y="599.10" xlink:href="#ltr"/>
<use x="-502.80" y="599.10" xlink:href="#ltr"/>
<use x="-496.80" y="599.10" xlink:href="#ltr"/>
<use x="-490.80" y="599.10" xlink:href="#ltr"/>
<use x="-484.80" y="599.10" xlink:href="#ltr"/>
<use x="-478.80" y="599.10" xlink:href="#ltr"/>
<use x="-472.80" y="599.10" xlink:href="#ltr"/>
<use x="-466.80" y="599.10" xlink:href="#ltr"/>
</g>
<use x="657.60" y="385.80" xlink:href="#hld"/>
<g transform="rotate(270)">
<use x="-415.80" y="647.60" xlink:href="#ltr"/>
<use x="-409.80" y="647.60" xlink:href="#ltr"/>
<use x="-403.80" y="647.60" xlink:href="#ltr"/>
<use x="-397.80" y="647.60" xlink:href="#ltr"/>
<use x="-391.80" y="647.60" xlink:href="#ltr"/>
</g>
</g>
</svg>
