<?xml version="1.0" standalone="no"?>
<!DOCTYPE svg PUBLIC "-//W3C//DTD SVG 1.1//EN"
	"http://www.w3.org/Graphics/SVG/1.1/DTD/svg11.dtd">
<svg xmlns="http://www.w3.org/2000/svg" version="1.1"
	xmlns:xlink="http://www.w3.org/1999/xlink"
	color="black"
	width="701.60px" height="633.80px" viewBox="0 0 701.60 633.80" preserveAspectRatio="xMidYMid meet">
<style type="text/css">
.fill {fill: currentColor}
.stroke {stroke: currentColor; fill: none}
text{white-space: pre}
</style>
<title>/tmp/boddie_hymnal_stage/come_ye_disconsolate.abc (1) tune 1</title>
<!-- Creator: abcm2ps-8.14.11 -->
<!-- CreationDate: Apr 30, 2026 12:59 -->
<!-- CommandLine: /tmp/boddie_hymnal_stage/come_ye_disconsolate.abc -g -O /tmp/boddie_hymnal_stage/come_ye_disconsolate -->
<g stroke-width="0.70">
<!-- title: 054. Come, Ye Disconsolate -->
</g>
<g stroke-width="0.70" style="font:20.00px Times">
<text x="350.80" y="22.00" text-anchor="middle">054. Come, Ye Disconsolate</text>
</g>
<g stroke-width="0.70" transform="scale(0.700)" style="font:20.00px Times">
<defs>
<ellipse id="hd" rx="4.1" ry="2.9"
	transform="rotate(-20)" class="fill"/>
</defs>
<use x="85.14" y="75.57" xlink:href="#hd"/>
<path d="M88.64 75.57v-21.00" class="stroke"/>
</g>
<g stroke-width="0.70" style="font:bold 15.00px Times">
<text x="67.30" y="55.00">= 72Slowly, with great expression</text>
<path class="stroke" stroke-width="1"
	d="M10.00 165.40v-82.00"/>
<defs>
<path id="brace" class="fill" d="m-2.5 101
	c-4.5 -4.6 -7.5 -12.2 -4.4 -26.8
	3.5 -14.3 3.2 -21.7 -2.1 -24.2
	7.4 2.4 7.3 14.2 3.5 29.5
	-2.7 9.5 -1.5 16.2 3 21.5
	M-2.5 1c-4.5 4.6 -7.5 12.2 -4.4 26.8
	c3.5 14.3 3.2 21.7 -2.1 24.2
	7.4 -2.4 7.3 -14.2 3.5 -29.5
	-2.7 -9.5 -1.5 -16.2 3 -21.5"/>
</defs>
<g transform="translate(10.00,83.40) scale(1,0.82)">
	<use xlink:href="#brace"/>
</g>
<path class="stroke" stroke-width="1"
	d="M195.60 107.40v-24.00"/>
<path class="stroke" stroke-width="1"
	d="M195.60 165.40v-24.00"/>
<path class="stroke" stroke-width="1"
	d="M291.30 107.40v-24.00"/>
<path class="stroke" stroke-width="1"
	d="M291.30 165.40v-24.00"/>
<path class="stroke" stroke-width="1"
	d="M441.20 107.40v-24.00"/>
<path class="stroke" stroke-width="1"
	d="M441.20 165.40v-24.00"/>
<path class="stroke" stroke-width="1"
	d="M542.00 107.40v-24.00"/>
<path class="stroke" stroke-width="1"
	d="M542.00 165.40v-24.00"/>
<path class="stroke" stroke-width="1"
	d="M691.60 107.40v-24.00"/>
<path class="stroke" stroke-width="1"
	d="M691.60 165.40v-24.00"/>
<path d="m10.00 107.40
	h681.60
	M10.00 101.40
	h681.60
	M10.00 95.40
	h681.60
	M10.00 89.40
	h681.60
	M10.00 83.40
	h681.60
	" class="stroke"/>
<path d="m10.00 165.40
	h681.60
	M10.00 159.40
	h681.60
	M10.00 153.40
	h681.60
	M10.00 147.40
	h681.60
	M10.00 141.40
	h681.60
	" class="stroke"/>
</g>
<g stroke-width="0.70" style="font:bold 13.00px Times">
<text x="53.30" y="73.80">I<tspan
	 style="font:italic 11.00px Times">Δ⁷</tspan></text>
</g>
<g stroke-width="0.70" style="font:bold 13.00px Times">
<text x="212.60" y="68.80">IV<tspan
	 style="font:italic 11.00px Times">Δ⁷²</tspan></text>
</g>
<g stroke-width="0.70" style="font:bold 13.00px Times">
<text x="298.10" y="76.80">I<tspan
	 style="font:italic 11.00px Times">Δ⁷</tspan></text>
</g>
<g stroke-width="0.70" style="font:bold 13.00px Times">
<text x="460.40" y="62.80">I<tspan
	 style="font:italic 11.00px Times">Δ⁷</tspan></text>
</g>
<g stroke-width="0.70" style="font:bold 13.00px Times">
<text x="549.20" y="76.80">I<tspan
	 style="font:italic 11.00px Times">Δ⁷</tspan></text>
</g>
<g stroke-width="0.70" style="font:italic 11.00px Times">
<defs>
<path id="utclef" class="fill" d="m-50 -90
	c-72 -41 -72 -158 52 -188
	150 -10 220 188 90 256
	-114 52 -275 0 -293 -136
	-15 -181 93 -229 220 -334
	88 -87 79 -133 62 -210
	-51 33 -94 105 -89 186
	17 267 36 374 49 574
	6 96 -19 134 -77 135
	-80 1 -126 -93 -61 -133
	85 -41 133 101 31 105
	23 17 92 37 90 -92
	-10 -223 -39 -342 -50 -617
	0 -90 0 -162 96 -232
	56 72 63 230 22 289
	-74 106 -257 168 -255 316
	9 153 148 185 252 133
	86 -65 29 -192 -80 -176
	-71 12 -105 67 -59 124"/>
<use id="tclef" transform="translate(0,6) scale(0.045)"
	xlink:href="#utclef"/>
</defs>
<use x="22.00" y="101.40" xlink:href="#tclef"/>
<g style="font:bold 16px serif"
	transform="translate(40.50,106.90) scale(1.2,1)">
	<text text-anchor="middle">4</text>
	<text y="-12" text-anchor="middle">4</text>
</g>
<defs>
<path id="Hd" class="fill" d="m3 -1.6
	c-1 -1.8 -7 1.4 -6 3.2
	1 1.8 7 -1.4 6 -3.2
	m0.5 -0.3
	c2 3.8 -5 7.6 -7 3.8
	-2 -3.8 5 -7.6 7 -3.8"/>
</defs>
<use x="59.00" y="101.40" xlink:href="#Hd"/>
<path d="M62.50 101.40v-21.00" class="stroke"/>
<use x="130.20" y="107.40" xlink:href="#hd"/>
<path d="M133.70 107.40v-21.00" class="stroke"/>
<defs>
<path id="hl" class="stroke" d="m-6 0h12"/>
</defs>
<use x="163.80" y="113.40" xlink:href="#hl"/>
<use x="163.80" y="113.40" xlink:href="#hd"/>
<path d="M167.30 113.40v-21.00" class="stroke"/>
<use x="220.60" y="77.40" xlink:href="#hl"/>
<use x="220.60" y="77.40" xlink:href="#hd"/>
<circle class="fill" cx="228.30" cy="74.40" r="1.2"/>
<path d="M217.10 77.40v40.00" class="stroke"/>
<use x="220.60" y="98.40" xlink:href="#hd"/>
<circle class="fill" cx="228.30" cy="98.40" r="1.2"/>
<use x="249.10" y="80.40" xlink:href="#hd"/>
<path d="M245.60 80.40v40.00" class="stroke"/>
<path class="fill"
	d="M245.60 120.40c0.6 -5.6 9.6 -9 5.6 -18.4
	1.6 6 -1.3 11.6 -5.6 12.8
"/>
<use x="249.10" y="101.40" xlink:href="#hd"/>
<use x="266.70" y="80.40" xlink:href="#Hd"/>
<path d="M263.20 80.40v40.00" class="stroke"/>
<use x="266.70" y="101.40" xlink:href="#Hd"/>
<use x="303.80" y="104.40" xlink:href="#hd"/>
<circle class="fill" cx="311.50" cy="104.40" r="1.2"/>
<path d="M307.30 104.40v-21.00" class="stroke"/>
<use x="357.50" y="101.40" xlink:href="#hd"/>
<path d="M361.00 101.40v-21.00" class="stroke"/>
<path class="fill"
	d="M361.00 80.40c0.6 5.6 9.6 9 5.6 18.4
	1.6 -6 -1.3 -11.6 -5.6 -12.8
"/>
<use x="375.70" y="98.40" xlink:href="#hd"/>
<path d="M379.20 98.40v-21.00" class="stroke"/>
<use x="409.30" y="95.40" xlink:href="#hd"/>
<path d="M412.80 95.40v-21.00" class="stroke"/>
<use x="466.20" y="77.40" xlink:href="#hl"/>
<use x="466.20" y="71.40" xlink:href="#hl"/>
<use x="466.20" y="71.40" xlink:href="#Hd"/>
<path d="M462.70 71.40v40.00" class="stroke"/>
<use x="466.20" y="92.40" xlink:href="#Hd"/>
<use x="499.90" y="80.40" xlink:href="#hd"/>
<path d="M496.40 80.40v40.00" class="stroke"/>
<use x="499.90" y="101.40" xlink:href="#hd"/>
<defs>
<path id="r4" class="fill" d="m-1 -8.5
	l3.6 5.1 -2.1 5.2 2.2 4.3
	c-2.6 -2.3 -5.1 0 -2.4 2.6
	-4.8 -3 -1.5 -6.9 1.4 -4.1
	l-3.1 -4.5 1.9 -5.1 -1.5 -3.5"/>
</defs>
<use x="524.10" y="95.40" xlink:href="#r4"/>
<use x="555.00" y="107.40" xlink:href="#Hd"/>
<path d="M558.50 107.40v-21.00" class="stroke"/>
<use x="626.10" y="107.40" xlink:href="#hd"/>
<path d="M629.60 107.40v-21.00" class="stroke"/>
<use x="659.80" y="107.40" xlink:href="#hd"/>
<path d="M663.30 107.40v-21.00" class="stroke"/>
<defs>
<path id="ubclef" class="fill" d="m-200 -87
	c124 -35 222 -78 254 -236
	43 -228 -167 -246 -192 -103
	59 -80 157 22 92 78
	-62 47 -115 -22 -106 -88
	21 -141 270 -136 274 52
	-1 175 -106 264 -322 297
	m357 -250
	c0 -36 51 -34 51 0
	0 37 -51 36 -51 0
	m-2 -129
	c0 -36 51 -34 51 0
	0 38 -51 37 -51 0"/>
<use id="bclef" transform="translate(0,18) scale(0.045)"
	xlink:href="#ubclef"/>
</defs>
<use x="22.00" y="147.40" xlink:href="#bclef"/>
<g style="font:bold 16px serif"
	transform="translate(40.50,164.90) scale(1.2,1)">
	<text text-anchor="middle">4</text>
	<text y="-12" text-anchor="middle">4</text>
</g>
<use x="59.00" y="171.40" xlink:href="#hl"/>
<use x="59.00" y="177.40" xlink:href="#hl"/>
<use x="59.00" y="183.40" xlink:href="#hl"/>
<use x="59.00" y="189.40" xlink:href="#hl"/>
<use x="59.00" y="195.40" xlink:href="#hl"/>
<use x="59.00" y="198.40" xlink:href="#hd"/>
<path d="M62.50 198.40v-45.00" class="stroke"/>
<path class="fill"
	d="M62.50 153.40c0.6 5.6 9.6 9 5.6 18.4
	1.6 -6 -1.3 -11.6 -5.6 -12.8
"/>
<use x="59.00" y="177.40" xlink:href="#hd"/>
<use x="77.60" y="150.40" xlink:href="#hd"/>
<path d="M74.10 150.40v21.00" class="stroke"/>
<path class="fill"
	d="M74.10 171.40c0.6 -5.6 9.6 -9 5.6 -18.4
	1.6 6 -1.3 11.6 -5.6 12.8
"/>
<use x="95.10" y="144.40" xlink:href="#hd"/>
<path d="M91.60 144.40v21.00" class="stroke"/>
<path class="fill"
	d="M91.60 165.40c0.6 -5.6 9.6 -9 5.6 -18.4
	1.6 6 -1.3 11.6 -5.6 12.8
"/>
<use x="112.60" y="138.40" xlink:href="#hd"/>
<path d="M109.10 138.40v21.00" class="stroke"/>
<path class="fill"
	d="M109.10 159.40c0.6 -5.6 9.6 -9 5.6 -18.4
	1.6 6 -1.3 11.6 -5.6 12.8
"/>
<use x="130.20" y="135.40" xlink:href="#hl"/>
<use x="130.20" y="135.40" xlink:href="#hd"/>
<path d="M126.70 135.40v21.00" class="stroke"/>
<path class="fill"
	d="M126.70 156.40c0.6 -5.6 9.6 -9 5.6 -18.4
	1.6 6 -1.3 11.6 -5.6 12.8
"/>
<use x="147.90" y="135.40" xlink:href="#hl"/>
<use x="147.90" y="129.40" xlink:href="#hl"/>
<use x="147.90" y="129.40" xlink:href="#hd"/>
<path d="M144.40 129.40v24.00" class="stroke"/>
<path class="fill"
	d="M144.40 153.40c0.6 -5.6 9.6 -9 5.6 -18.4
	1.6 6 -1.3 11.6 -5.6 12.8
"/>
<use x="163.80" y="171.40" xlink:href="#hl"/>
<use x="163.80" y="177.40" xlink:href="#hl"/>
<use x="163.80" y="177.40" xlink:href="#hd"/>
<path d="M167.30 177.40v-24.00" class="stroke"/>
<path class="fill"
	d="M167.30 153.40c0.6 5.6 9.6 9 5.6 18.4
	1.6 -6 -1.3 -11.6 -5.6 -12.8
"/>
<use x="182.40" y="150.40" xlink:href="#hd"/>
<path d="M178.90 150.40v21.00" class="stroke"/>
<path class="fill"
	d="M178.90 171.40c0.6 -5.6 9.6 -9 5.6 -18.4
	1.6 6 -1.3 11.6 -5.6 12.8
"/>
<defs>
<path id="HD" class="fill" d="m-2.7 -1.4
	c1.5 -2.8 6.9 0 5.3 2.7
	-1.5 2.8 -6.9 0 -5.3 -2.7
	m8.3 1.4
	c0 -1.5 -2.2 -3 -5.6 -3
	-3.4 0 -5.6 1.5 -5.6 3
	0 1.5 2.2 3 5.6 3
	3.4 0 5.6 -1.5 5.6 -3"/>
</defs>
<use x="221.60" y="168.40" xlink:href="#HD"/>
<use x="221.60" y="162.40" xlink:href="#HD"/>
<use x="221.60" y="156.40" xlink:href="#HD"/>
<use x="221.60" y="150.40" xlink:href="#HD"/>
<use x="303.80" y="171.40" xlink:href="#hl"/>
<use x="303.80" y="177.40" xlink:href="#hl"/>
<use x="303.80" y="183.40" xlink:href="#hl"/>
<use x="303.80" y="189.40" xlink:href="#hl"/>
<use x="303.80" y="195.40" xlink:href="#hl"/>
<use x="303.80" y="198.40" xlink:href="#hd"/>
<path d="M307.30 198.40v-45.00" class="stroke"/>
<path class="fill"
	d="M307.30 153.40c0.6 5.6 9.6 9 5.6 18.4
	1.6 -6 -1.3 -11.6 -5.6 -12.8
"/>
<use x="303.80" y="177.40" xlink:href="#hd"/>
<use x="322.40" y="150.40" xlink:href="#hd"/>
<path d="M318.90 150.40v21.00" class="stroke"/>
<path class="fill"
	d="M318.90 171.40c0.6 -5.6 9.6 -9 5.6 -18.4
	1.6 6 -1.3 11.6 -5.6 12.8
"/>
<use x="339.90" y="144.40" xlink:href="#hd"/>
<path d="M336.40 144.40v21.00" class="stroke"/>
<path class="fill"
	d="M336.40 165.40c0.6 -5.6 9.6 -9 5.6 -18.4
	1.6 6 -1.3 11.6 -5.6 12.8
"/>
<use x="357.50" y="138.40" xlink:href="#hd"/>
<path d="M354.00 138.40v21.00" class="stroke"/>
<path class="fill"
	d="M354.00 159.40c0.6 -5.6 9.6 -9 5.6 -18.4
	1.6 6 -1.3 11.6 -5.6 12.8
"/>
<use x="375.70" y="135.40" xlink:href="#hl"/>
<use x="375.70" y="135.40" xlink:href="#hd"/>
<path d="M372.20 135.40v21.00" class="stroke"/>
<path class="fill"
	d="M372.20 156.40c0.6 -5.6 9.6 -9 5.6 -18.4
	1.6 6 -1.3 11.6 -5.6 12.8
"/>
<use x="393.40" y="135.40" xlink:href="#hl"/>
<use x="393.40" y="129.40" xlink:href="#hl"/>
<use x="393.40" y="129.40" xlink:href="#hd"/>
<path d="M389.90 129.40v24.00" class="stroke"/>
<path class="fill"
	d="M389.90 153.40c0.6 -5.6 9.6 -9 5.6 -18.4
	1.6 6 -1.3 11.6 -5.6 12.8
"/>
<use x="409.30" y="171.40" xlink:href="#hl"/>
<use x="409.30" y="177.40" xlink:href="#hl"/>
<use x="409.30" y="177.40" xlink:href="#hd"/>
<path d="M412.80 177.40v-24.00" class="stroke"/>
<path class="fill"
	d="M412.80 153.40c0.6 5.6 9.6 9 5.6 18.4
	1.6 -6 -1.3 -11.6 -5.6 -12.8
"/>
<use x="427.90" y="150.40" xlink:href="#hd"/>
<path d="M424.40 150.40v21.00" class="stroke"/>
<path class="fill"
	d="M424.40 171.40c0.6 -5.6 9.6 -9 5.6 -18.4
	1.6 6 -1.3 11.6 -5.6 12.8
"/>
<defs>
<path id="hl1" class="stroke" d="m-7 0h14"/>
</defs>
<use x="467.20" y="171.40" xlink:href="#hl1"/>
<use x="467.20" y="177.40" xlink:href="#hl1"/>
<use x="467.20" y="177.40" xlink:href="#HD"/>
<use x="467.20" y="171.40" xlink:href="#HD"/>
<use x="467.20" y="165.40" xlink:href="#HD"/>
<use x="467.20" y="159.40" xlink:href="#HD"/>
<use x="555.00" y="171.40" xlink:href="#hl"/>
<use x="555.00" y="177.40" xlink:href="#hl"/>
<use x="555.00" y="183.40" xlink:href="#hl"/>
<use x="555.00" y="189.40" xlink:href="#hl"/>
<use x="555.00" y="195.40" xlink:href="#hl"/>
<use x="555.00" y="198.40" xlink:href="#hd"/>
<path d="M558.50 198.40v-45.00" class="stroke"/>
<path class="fill"
	d="M558.50 153.40c0.6 5.6 9.6 9 5.6 18.4
	1.6 -6 -1.3 -11.6 -5.6 -12.8
"/>
<use x="555.00" y="177.40" xlink:href="#hd"/>
<use x="573.60" y="150.40" xlink:href="#hd"/>
<path d="M570.10 150.40v21.00" class="stroke"/>
<path class="fill"
	d="M570.10 171.40c0.6 -5.6 9.6 -9 5.6 -18.4
	1.6 6 -1.3 11.6 -5.6 12.8
"/>
<use x="591.10" y="144.40" xlink:href="#hd"/>
<path d="M587.60 144.40v21.00" class="stroke"/>
<path class="fill"
	d="M587.60 165.40c0.6 -5.6 9.6 -9 5.6 -18.4
	1.6 6 -1.3 11.6 -5.6 12.8
"/>
<use x="608.60" y="138.40" xlink:href="#hd"/>
<path d="M605.10 138.40v21.00" class="stroke"/>
<path class="fill"
	d="M605.10 159.40c0.6 -5.6 9.6 -9 5.6 -18.4
	1.6 6 -1.3 11.6 -5.6 12.8
"/>
<use x="626.10" y="135.40" xlink:href="#hl"/>
<use x="626.10" y="135.40" xlink:href="#hd"/>
<path d="M622.60 135.40v21.00" class="stroke"/>
<path class="fill"
	d="M622.60 156.40c0.6 -5.6 9.6 -9 5.6 -18.4
	1.6 6 -1.3 11.6 -5.6 12.8
"/>
<use x="643.90" y="135.40" xlink:href="#hl"/>
<use x="643.90" y="129.40" xlink:href="#hl"/>
<use x="643.90" y="129.40" xlink:href="#hd"/>
<path d="M640.40 129.40v24.00" class="stroke"/>
<path class="fill"
	d="M640.40 153.40c0.6 -5.6 9.6 -9 5.6 -18.4
	1.6 6 -1.3 11.6 -5.6 12.8
"/>
<use x="659.80" y="171.40" xlink:href="#hl"/>
<use x="659.80" y="177.40" xlink:href="#hl"/>
<use x="659.80" y="177.40" xlink:href="#hd"/>
<path d="M663.30 177.40v-24.00" class="stroke"/>
<path class="fill"
	d="M663.30 153.40c0.6 5.6 9.6 9 5.6 18.4
	1.6 -6 -1.3 -11.6 -5.6 -12.8
"/>
<use x="678.40" y="150.40" xlink:href="#hd"/>
<path d="M674.90 150.40v21.00" class="stroke"/>
<path class="fill"
	d="M674.90 171.40c0.6 -5.6 9.6 -9 5.6 -18.4
	1.6 6 -1.3 11.6 -5.6 12.8
"/>
<defs>
<path id="ltr" class="fill"
    d="m0 -0.4c2 -1.5 3.4 -1.9 3.9 0.4
	c0.2 0.8 0.7 0.7 2.1 -0.4
	v0.8c-2 1.5 -3.4 1.9 -3.9 -0.4
	c-0.2 -0.8 -0.7 -0.7 -2.1 0.4z"/>
</defs>
<g transform="rotate(270)">
<use x="-171.40" y="208.10" xlink:href="#ltr"/>
<use x="-165.40" y="208.10" xlink:href="#ltr"/>
<use x="-159.40" y="208.10" xlink:href="#ltr"/>
<use x="-153.40" y="208.10" xlink:href="#ltr"/>
</g>
<text x="296.30" y="74.40" style="font:bold italic 30px serif">,</text>
<g transform="rotate(270)">
<use x="-180.40" y="453.70" xlink:href="#ltr"/>
<use x="-174.40" y="453.70" xlink:href="#ltr"/>
<use x="-168.40" y="453.70" xlink:href="#ltr"/>
<use x="-162.40" y="453.70" xlink:href="#ltr"/>
</g>
<text x="547.20" y="74.40" style="font:bold italic 30px serif">,</text>
</g>
<g stroke-width="0.70" style="font:italic 11.00px Times">
<path class="stroke" stroke-width="1"
	d="M10.00 309.40v-82.00"/>
<g transform="translate(10.00,227.40) scale(1,0.82)">
	<use xlink:href="#brace"/>
</g>
<path class="stroke" stroke-width="1"
	d="M191.40 251.40v-24.00"/>
<path class="stroke" stroke-width="1"
	d="M191.40 309.40v-24.00"/>
<path class="stroke" stroke-width="1"
	d="M349.00 251.40v-24.00"/>
<path class="stroke" stroke-width="1"
	d="M349.00 309.40v-24.00"/>
<path class="stroke" stroke-width="1"
	d="M436.30 251.40v-24.00"/>
<path class="stroke" stroke-width="1"
	d="M436.30 309.40v-24.00"/>
<path class="stroke" stroke-width="1"
	d="M593.40 251.40v-24.00"/>
<path class="stroke" stroke-width="1"
	d="M593.40 309.40v-24.00"/>
<path class="stroke" stroke-width="1"
	d="M691.60 251.40v-24.00"/>
<path class="stroke" stroke-width="1"
	d="M691.60 309.40v-24.00"/>
<path d="m10.00 251.40
	h681.60
	M10.00 245.40
	h681.60
	M10.00 239.40
	h681.60
	M10.00 233.40
	h681.60
	M10.00 227.40
	h681.60
	" class="stroke"/>
<path d="m10.00 309.40
	h681.60
	M10.00 303.40
	h681.60
	M10.00 297.40
	h681.60
	M10.00 291.40
	h681.60
	M10.00 285.40
	h681.60
	" class="stroke"/>
</g>
<g stroke-width="0.70" style="font:bold 13.00px Times">
<text x="38.50" y="220.80">IV<tspan
	 style="font:italic 11.00px Times">Δ⁷¹</tspan></text>
</g>
<g stroke-width="0.70" style="font:bold 13.00px Times">
<text x="196.60" y="217.80">V<tspan
	 style="font:italic 11.00px Times">⁷²</tspan></text>
</g>
<g stroke-width="0.70" style="font:bold 13.00px Times">
<text x="368.10" y="215.80">V<tspan
	 style="font:italic 11.00px Times">⁷</tspan></text>
</g>
<g stroke-width="0.70" style="font:bold 13.00px Times">
<text x="443.50" y="222.80">I<tspan
	 style="font:italic 11.00px Times">Δ⁷</tspan></text>
</g>
<g stroke-width="0.70" style="font:bold 13.00px Times">
<text x="612.70" y="215.80">I<tspan
	 style="font:italic 11.00px Times">Δ⁷</tspan></text>
</g>
<g stroke-width="0.70" style="font:italic 11.00px Times">
<use x="22.00" y="245.40" xlink:href="#tclef"/>
<use x="46.50" y="248.40" xlink:href="#hd"/>
<circle class="fill" cx="54.20" cy="248.40" r="1.2"/>
<path d="M50.00 248.40v-21.00" class="stroke"/>
<use x="103.30" y="248.40" xlink:href="#hd"/>
<path d="M106.80 248.40v-21.00" class="stroke"/>
<path class="fill"
	d="M106.80 227.40c0.6 5.6 9.6 9 5.6 18.4
	1.6 -6 -1.3 -11.6 -5.6 -12.8
"/>
<use x="122.60" y="242.40" xlink:href="#Hd"/>
<path d="M126.10 242.40v-21.00" class="stroke"/>
<use x="204.40" y="245.40" xlink:href="#Hd"/>
<path d="M207.90 245.40v-21.00" class="stroke"/>
<use x="280.10" y="248.40" xlink:href="#hd"/>
<path d="M283.60 248.40v-21.00" class="stroke"/>
<use x="315.70" y="248.40" xlink:href="#hd"/>
<path d="M319.20 248.40v-21.00" class="stroke"/>
<use x="374.00" y="224.40" xlink:href="#Hd"/>
<path d="M370.50 224.40v40.00" class="stroke"/>
<use x="374.00" y="245.40" xlink:href="#Hd"/>
<defs>
<rect id="r2" class="fill"
	x="-3.5" y="-3" width="7" height="3"/>
</defs>
<use x="410.20" y="239.40" xlink:href="#r2"/>
<use x="449.30" y="236.40" xlink:href="#Hd"/>
<path d="M445.80 236.40v21.00" class="stroke"/>
<use x="524.50" y="239.40" xlink:href="#hd"/>
<path d="M521.00 239.40v21.00" class="stroke"/>
<use x="560.20" y="242.40" xlink:href="#hd"/>
<path d="M563.70 242.40v-21.00" class="stroke"/>
<use x="618.40" y="224.40" xlink:href="#hd"/>
<circle class="fill" cx="626.10" cy="224.40" r="1.2"/>
<path d="M614.90 224.40v40.00" class="stroke"/>
<use x="618.40" y="245.40" xlink:href="#hd"/>
<circle class="fill" cx="626.10" cy="242.40" r="1.2"/>
<use x="648.60" y="227.40" xlink:href="#hd"/>
<path d="M645.10 227.40v40.00" class="stroke"/>
<path class="fill"
	d="M645.10 267.40c0.6 -5.6 9.6 -9 5.6 -18.4
	1.6 6 -1.3 11.6 -5.6 12.8
"/>
<use x="648.60" y="248.40" xlink:href="#hd"/>
<use x="665.50" y="251.40" xlink:href="#Hd"/>
<path d="M669.00 251.40v-40.00" class="stroke"/>
<use x="665.50" y="230.40" xlink:href="#Hd"/>
<use x="22.00" y="291.40" xlink:href="#bclef"/>
<use x="46.50" y="312.40" xlink:href="#hd"/>
<path d="M50.00 312.40v-21.00" class="stroke"/>
<path class="fill"
	d="M50.00 291.40c0.6 5.6 9.6 9 5.6 18.4
	1.6 -6 -1.3 -11.6 -5.6 -12.8
"/>
<use x="66.00" y="285.40" xlink:href="#hd"/>
<path d="M62.50 285.40v21.00" class="stroke"/>
<path class="fill"
	d="M62.50 306.40c0.6 -5.6 9.6 -9 5.6 -18.4
	1.6 6 -1.3 11.6 -5.6 12.8
"/>
<use x="84.60" y="279.40" xlink:href="#hl"/>
<use x="84.60" y="279.40" xlink:href="#hd"/>
<path d="M81.10 279.40v21.00" class="stroke"/>
<path class="fill"
	d="M81.10 300.40c0.6 -5.6 9.6 -9 5.6 -18.4
	1.6 6 -1.3 11.6 -5.6 12.8
"/>
<use x="103.30" y="279.40" xlink:href="#hl"/>
<use x="103.30" y="273.40" xlink:href="#hl"/>
<use x="103.30" y="273.40" xlink:href="#hd"/>
<path d="M99.80 273.40v24.00" class="stroke"/>
<path class="fill"
	d="M99.80 297.40c0.6 -5.6 9.6 -9 5.6 -18.4
	1.6 6 -1.3 11.6 -5.6 12.8
"/>
<use x="122.60" y="279.40" xlink:href="#hl"/>
<use x="122.60" y="273.40" xlink:href="#hl"/>
<use x="122.60" y="270.40" xlink:href="#hd"/>
<path d="M119.10 270.40v27.00" class="stroke"/>
<path class="fill"
	d="M119.10 297.40c0.6 -5.6 9.6 -9 5.6 -18.4
	1.6 6 -1.3 11.6 -5.6 12.8
"/>
<use x="141.40" y="279.40" xlink:href="#hl"/>
<use x="141.40" y="273.40" xlink:href="#hl"/>
<use x="141.40" y="267.40" xlink:href="#hl"/>
<use x="141.40" y="264.40" xlink:href="#hd"/>
<path d="M137.90 264.40v33.00" class="stroke"/>
<path class="fill"
	d="M137.90 297.40c0.6 -5.6 9.6 -9 5.6 -18.4
	1.6 6 -1.3 11.6 -5.6 12.8
"/>
<use x="158.20" y="312.40" xlink:href="#hd"/>
<path d="M161.70 312.40v-21.00" class="stroke"/>
<path class="fill"
	d="M161.70 291.40c0.6 5.6 9.6 9 5.6 18.4
	1.6 -6 -1.3 -11.6 -5.6 -12.8
"/>
<use x="177.70" y="285.40" xlink:href="#hd"/>
<path d="M174.20 285.40v21.00" class="stroke"/>
<path class="fill"
	d="M174.20 306.40c0.6 -5.6 9.6 -9 5.6 -18.4
	1.6 6 -1.3 11.6 -5.6 12.8
"/>
<use x="204.40" y="309.40" xlink:href="#hd"/>
<path d="M207.90 309.40v-21.00" class="stroke"/>
<path class="fill"
	d="M207.90 288.40c0.6 5.6 9.6 9 5.6 18.4
	1.6 -6 -1.3 -11.6 -5.6 -12.8
"/>
<use x="223.90" y="282.40" xlink:href="#hd"/>
<path d="M220.40 282.40v21.00" class="stroke"/>
<path class="fill"
	d="M220.40 303.40c0.6 -5.6 9.6 -9 5.6 -18.4
	1.6 6 -1.3 11.6 -5.6 12.8
"/>
<use x="242.50" y="279.40" xlink:href="#hl"/>
<use x="242.50" y="276.40" xlink:href="#hd"/>
<path d="M239.00 276.40v21.00" class="stroke"/>
<path class="fill"
	d="M239.00 297.40c0.6 -5.6 9.6 -9 5.6 -18.4
	1.6 6 -1.3 11.6 -5.6 12.8
"/>
<use x="261.30" y="279.40" xlink:href="#hl"/>
<use x="261.30" y="273.40" xlink:href="#hl"/>
<use x="261.30" y="270.40" xlink:href="#hd"/>
<path d="M257.80 270.40v27.00" class="stroke"/>
<path class="fill"
	d="M257.80 297.40c0.6 -5.6 9.6 -9 5.6 -18.4
	1.6 6 -1.3 11.6 -5.6 12.8
"/>
<use x="280.10" y="279.40" xlink:href="#hl"/>
<use x="280.10" y="273.40" xlink:href="#hl"/>
<use x="280.10" y="267.40" xlink:href="#hl"/>
<use x="280.10" y="267.40" xlink:href="#hd"/>
<path d="M276.60 267.40v30.00" class="stroke"/>
<path class="fill"
	d="M276.60 297.40c0.6 -5.6 9.6 -9 5.6 -18.4
	1.6 6 -1.3 11.6 -5.6 12.8
"/>
<use x="298.90" y="279.40" xlink:href="#hl"/>
<use x="298.90" y="273.40" xlink:href="#hl"/>
<use x="298.90" y="267.40" xlink:href="#hl"/>
<use x="298.90" y="261.40" xlink:href="#hl"/>
<use x="298.90" y="261.40" xlink:href="#hd"/>
<path d="M295.40 261.40v36.00" class="stroke"/>
<path class="fill"
	d="M295.40 297.40c0.6 -5.6 9.6 -9 5.6 -18.4
	1.6 6 -1.3 11.6 -5.6 12.8
"/>
<use x="315.70" y="309.40" xlink:href="#hd"/>
<path d="M319.20 309.40v-21.00" class="stroke"/>
<path class="fill"
	d="M319.20 288.40c0.6 5.6 9.6 9 5.6 18.4
	1.6 -6 -1.3 -11.6 -5.6 -12.8
"/>
<use x="335.20" y="282.40" xlink:href="#hd"/>
<path d="M331.70 282.40v21.00" class="stroke"/>
<path class="fill"
	d="M331.70 303.40c0.6 -5.6 9.6 -9 5.6 -18.4
	1.6 6 -1.3 11.6 -5.6 12.8
"/>
<use x="375.00" y="309.40" xlink:href="#HD"/>
<use x="375.00" y="303.40" xlink:href="#HD"/>
<use x="375.00" y="297.40" xlink:href="#HD"/>
<use x="375.00" y="291.40" xlink:href="#HD"/>
<use x="449.30" y="315.40" xlink:href="#hl"/>
<use x="449.30" y="321.40" xlink:href="#hl"/>
<use x="449.30" y="327.40" xlink:href="#hl"/>
<use x="449.30" y="333.40" xlink:href="#hl"/>
<use x="449.30" y="339.40" xlink:href="#hl"/>
<use x="449.30" y="342.40" xlink:href="#hd"/>
<path d="M452.80 342.40v-45.00" class="stroke"/>
<path class="fill"
	d="M452.80 297.40c0.6 5.6 9.6 9 5.6 18.4
	1.6 -6 -1.3 -11.6 -5.6 -12.8
"/>
<use x="449.30" y="321.40" xlink:href="#hd"/>
<use x="468.70" y="294.40" xlink:href="#hd"/>
<path d="M465.20 294.40v21.00" class="stroke"/>
<path class="fill"
	d="M465.20 315.40c0.6 -5.6 9.6 -9 5.6 -18.4
	1.6 6 -1.3 11.6 -5.6 12.8
"/>
<use x="487.30" y="288.40" xlink:href="#hd"/>
<path d="M483.80 288.40v21.00" class="stroke"/>
<path class="fill"
	d="M483.80 309.40c0.6 -5.6 9.6 -9 5.6 -18.4
	1.6 6 -1.3 11.6 -5.6 12.8
"/>
<use x="505.90" y="282.40" xlink:href="#hd"/>
<path d="M502.40 282.40v21.00" class="stroke"/>
<path class="fill"
	d="M502.40 303.40c0.6 -5.6 9.6 -9 5.6 -18.4
	1.6 6 -1.3 11.6 -5.6 12.8
"/>
<use x="524.50" y="279.40" xlink:href="#hl"/>
<use x="524.50" y="279.40" xlink:href="#hd"/>
<path d="M521.00 279.40v21.00" class="stroke"/>
<path class="fill"
	d="M521.00 300.40c0.6 -5.6 9.6 -9 5.6 -18.4
	1.6 6 -1.3 11.6 -5.6 12.8
"/>
<use x="543.30" y="279.40" xlink:href="#hl"/>
<use x="543.30" y="273.40" xlink:href="#hl"/>
<use x="543.30" y="273.40" xlink:href="#hd"/>
<path d="M539.80 273.40v24.00" class="stroke"/>
<path class="fill"
	d="M539.80 297.40c0.6 -5.6 9.6 -9 5.6 -18.4
	1.6 6 -1.3 11.6 -5.6 12.8
"/>
<use x="560.20" y="315.40" xlink:href="#hl"/>
<use x="560.20" y="321.40" xlink:href="#hl"/>
<use x="560.20" y="321.40" xlink:href="#hd"/>
<path d="M563.70 321.40v-24.00" class="stroke"/>
<path class="fill"
	d="M563.70 297.40c0.6 5.6 9.6 9 5.6 18.4
	1.6 -6 -1.3 -11.6 -5.6 -12.8
"/>
<use x="579.60" y="294.40" xlink:href="#hd"/>
<path d="M576.10 294.40v21.00" class="stroke"/>
<path class="fill"
	d="M576.10 315.40c0.6 -5.6 9.6 -9 5.6 -18.4
	1.6 6 -1.3 11.6 -5.6 12.8
"/>
<use x="619.40" y="315.40" xlink:href="#hl1"/>
<use x="619.40" y="321.40" xlink:href="#hl1"/>
<use x="619.40" y="321.40" xlink:href="#HD"/>
<use x="619.40" y="315.40" xlink:href="#HD"/>
<use x="619.40" y="309.40" xlink:href="#HD"/>
<use x="619.40" y="303.40" xlink:href="#HD"/>
<g transform="rotate(270)">
<use x="-312.40" y="361.50" xlink:href="#ltr"/>
<use x="-306.40" y="361.50" xlink:href="#ltr"/>
<use x="-300.40" y="361.50" xlink:href="#ltr"/>
<use x="-294.40" y="361.50" xlink:href="#ltr"/>
</g>
<text x="441.50" y="218.40" style="font:bold italic 30px serif">,</text>
<g transform="rotate(270)">
<use x="-324.40" y="605.90" xlink:href="#ltr"/>
<use x="-318.40" y="605.90" xlink:href="#ltr"/>
<use x="-312.40" y="605.90" xlink:href="#ltr"/>
<use x="-306.40" y="605.90" xlink:href="#ltr"/>
</g>
<text x="691.60" y="218.40" style="font:bold italic 30px serif">,</text>
</g>
<g stroke-width="0.70" style="font:italic 11.00px Times">
<path class="stroke" stroke-width="1"
	d="M10.00 462.40v-91.00"/>
<g transform="translate(10.00,371.40) scale(1,0.91)">
	<use xlink:href="#brace"/>
</g>
<path class="stroke" stroke-width="1"
	d="M201.50 395.40v-24.00"/>
<path class="stroke" stroke-width="1"
	d="M201.50 462.40v-24.00"/>
<path class="stroke" stroke-width="1"
	d="M365.80 395.40v-24.00"/>
<path class="stroke" stroke-width="1"
	d="M365.80 462.40v-24.00"/>
<path class="stroke" stroke-width="1"
	d="M529.50 395.40v-24.00"/>
<path class="stroke" stroke-width="1"
	d="M529.50 462.40v-24.00"/>
<path class="stroke" stroke-width="1"
	d="M691.60 395.40v-24.00"/>
<path class="stroke" stroke-width="1"
	d="M691.60 462.40v-24.00"/>
<path d="m10.00 395.40
	h681.60
	M10.00 389.40
	h681.60
	M10.00 383.40
	h681.60
	M10.00 377.40
	h681.60
	M10.00 371.40
	h681.60
	" class="stroke"/>
<path d="m10.00 462.40
	h681.60
	M10.00 456.40
	h681.60
	M10.00 450.40
	h681.60
	M10.00 444.40
	h681.60
	M10.00 438.40
	h681.60
	" class="stroke"/>
</g>
<g stroke-width="0.70" style="font:bold 13.00px Times">
<text x="39.00" y="366.80">vi<tspan
	 style="font:italic 11.00px Times">m⁷</tspan></text>
</g>
<g stroke-width="0.70" style="font:bold 13.00px Times">
<text x="206.50" y="361.80">iii<tspan
	 style="font:italic 11.00px Times">m⁷</tspan></text>
</g>
<g stroke-width="0.70" style="font:bold 13.00px Times">
<text x="370.60" y="361.80">I<tspan
	 style="font:italic 11.00px Times">Δ⁷¹</tspan></text>
</g>
<g stroke-width="0.70" style="font:bold 13.00px Times">
<text x="536.10" y="364.80">V<tspan
	 style="font:italic 11.00px Times">⁷</tspan></text>
</g>
<g stroke-width="0.70" style="font:italic 11.00px Times">
<use x="22.00" y="389.40" xlink:href="#tclef"/>
<use x="47.00" y="380.40" xlink:href="#Hd"/>
<path d="M43.50 380.40v21.00" class="stroke"/>
<use x="125.60" y="377.40" xlink:href="#hd"/>
<path d="M122.10 377.40v21.00" class="stroke"/>
<path class="fill"
	d="M122.10 398.40c0.6 -5.6 9.6 -9 5.6 -18.4
	1.6 6 -1.3 11.6 -5.6 12.8
"/>
<use x="145.10" y="380.40" xlink:href="#hd"/>
<path d="M141.60 380.40v21.00" class="stroke"/>
<path class="fill"
	d="M141.60 401.40c0.6 -5.6 9.6 -9 5.6 -18.4
	1.6 6 -1.3 11.6 -5.6 12.8
"/>
<use x="164.50" y="383.40" xlink:href="#hd"/>
<path d="M161.00 383.40v21.00" class="stroke"/>
<path class="fill"
	d="M161.00 404.40c0.6 -5.6 9.6 -9 5.6 -18.4
	1.6 6 -1.3 11.6 -5.6 12.8
"/>
<use x="184.50" y="386.40" xlink:href="#hd"/>
<path d="M188.00 386.40v-21.00" class="stroke"/>
<path class="fill"
	d="M188.00 365.40c0.6 5.6 9.6 9 5.6 18.4
	1.6 -6 -1.3 -11.6 -5.6 -12.8
"/>
<use x="214.50" y="389.40" xlink:href="#Hd"/>
<path d="M218.00 389.40v-21.00" class="stroke"/>
<use x="292.80" y="395.40" xlink:href="#hd"/>
<path d="M296.30 395.40v-21.00" class="stroke"/>
<use x="331.70" y="383.40" xlink:href="#r4"/>
<use x="378.30" y="389.40" xlink:href="#hd"/>
<path d="M381.80 389.40v-21.00" class="stroke"/>
<use x="417.70" y="374.40" xlink:href="#hd"/>
<path d="M414.20 374.40v21.00" class="stroke"/>
<use x="456.50" y="374.40" xlink:href="#hd"/>
<path d="M453.00 374.40v21.00" class="stroke"/>
<use x="495.40" y="380.40" xlink:href="#hd"/>
<path d="M491.90 380.40v21.00" class="stroke"/>
<use x="542.00" y="380.40" xlink:href="#hd"/>
<path d="M538.50 380.40v21.00" class="stroke"/>
<use x="581.40" y="386.40" xlink:href="#Hd"/>
<path d="M584.90 386.40v-21.00" class="stroke"/>
<use x="657.50" y="392.40" xlink:href="#hd"/>
<path d="M661.00 392.40v-21.00" class="stroke"/>
<use x="22.00" y="444.40" xlink:href="#bclef"/>
<use x="47.00" y="468.40" xlink:href="#hl"/>
<use x="47.00" y="474.40" xlink:href="#hl"/>
<use x="47.00" y="480.40" xlink:href="#hl"/>
<use x="47.00" y="480.40" xlink:href="#hd"/>
<path d="M50.50 480.40v-40.00" class="stroke"/>
<path class="fill"
	d="M50.50 440.40c0.6 5.6 9.6 9 5.6 18.4
	1.6 -6 -1.3 -11.6 -5.6 -12.8
"/>
<use x="47.00" y="459.40" xlink:href="#hd"/>
<use x="67.00" y="432.40" xlink:href="#hl"/>
<use x="67.00" y="432.40" xlink:href="#hd"/>
<path d="M63.50 432.40v21.00" class="stroke"/>
<path class="fill"
	d="M63.50 453.40c0.6 -5.6 9.6 -9 5.6 -18.4
	1.6 6 -1.3 11.6 -5.6 12.8
"/>
<use x="86.50" y="432.40" xlink:href="#hl"/>
<use x="86.50" y="426.40" xlink:href="#hl"/>
<use x="86.50" y="426.40" xlink:href="#hd"/>
<path d="M83.00 426.40v24.00" class="stroke"/>
<path class="fill"
	d="M83.00 450.40c0.6 -5.6 9.6 -9 5.6 -18.4
	1.6 6 -1.3 11.6 -5.6 12.8
"/>
<use x="106.00" y="432.40" xlink:href="#hl"/>
<use x="106.00" y="426.40" xlink:href="#hl"/>
<use x="106.00" y="420.40" xlink:href="#hl"/>
<use x="106.00" y="420.40" xlink:href="#hd"/>
<path d="M102.50 420.40v30.00" class="stroke"/>
<path class="fill"
	d="M102.50 450.40c0.6 -5.6 9.6 -9 5.6 -18.4
	1.6 6 -1.3 11.6 -5.6 12.8
"/>
<use x="125.60" y="432.40" xlink:href="#hl"/>
<use x="125.60" y="426.40" xlink:href="#hl"/>
<use x="125.60" y="420.40" xlink:href="#hl"/>
<use x="125.60" y="417.40" xlink:href="#hd"/>
<path d="M122.10 417.40v33.00" class="stroke"/>
<path class="fill"
	d="M122.10 450.40c0.6 -5.6 9.6 -9 5.6 -18.4
	1.6 6 -1.3 11.6 -5.6 12.8
"/>
<use x="145.10" y="432.40" xlink:href="#hl"/>
<use x="145.10" y="426.40" xlink:href="#hl"/>
<use x="145.10" y="420.40" xlink:href="#hl"/>
<use x="145.10" y="414.40" xlink:href="#hl"/>
<use x="145.10" y="411.40" xlink:href="#hd"/>
<path d="M141.60 411.40v39.00" class="stroke"/>
<path class="fill"
	d="M141.60 450.40c0.6 -5.6 9.6 -9 5.6 -18.4
	1.6 6 -1.3 11.6 -5.6 12.8
"/>
<use x="164.50" y="459.40" xlink:href="#hd"/>
<path d="M168.00 459.40v-21.00" class="stroke"/>
<path class="fill"
	d="M168.00 438.40c0.6 5.6 9.6 9 5.6 18.4
	1.6 -6 -1.3 -11.6 -5.6 -12.8
"/>
<use x="184.50" y="432.40" xlink:href="#hl"/>
<use x="184.50" y="432.40" xlink:href="#hd"/>
<path d="M181.00 432.40v21.00" class="stroke"/>
<path class="fill"
	d="M181.00 453.40c0.6 -5.6 9.6 -9 5.6 -18.4
	1.6 6 -1.3 11.6 -5.6 12.8
"/>
<use x="214.50" y="468.40" xlink:href="#hl"/>
<use x="214.50" y="468.40" xlink:href="#hd"/>
<path d="M218.00 468.40v-21.00" class="stroke"/>
<path class="fill"
	d="M218.00 447.40c0.6 5.6 9.6 9 5.6 18.4
	1.6 -6 -1.3 -11.6 -5.6 -12.8
"/>
<use x="234.50" y="441.40" xlink:href="#hd"/>
<path d="M231.00 441.40v21.00" class="stroke"/>
<path class="fill"
	d="M231.00 462.40c0.6 -5.6 9.6 -9 5.6 -18.4
	1.6 6 -1.3 11.6 -5.6 12.8
"/>
<use x="253.90" y="435.40" xlink:href="#hd"/>
<path d="M250.40 435.40v21.00" class="stroke"/>
<path class="fill"
	d="M250.40 456.40c0.6 -5.6 9.6 -9 5.6 -18.4
	1.6 6 -1.3 11.6 -5.6 12.8
"/>
<use x="273.30" y="432.40" xlink:href="#hl"/>
<use x="273.30" y="429.40" xlink:href="#hd"/>
<path d="M269.80 429.40v21.00" class="stroke"/>
<path class="fill"
	d="M269.80 450.40c0.6 -5.6 9.6 -9 5.6 -18.4
	1.6 6 -1.3 11.6 -5.6 12.8
"/>
<use x="292.80" y="432.40" xlink:href="#hl"/>
<use x="292.80" y="426.40" xlink:href="#hl"/>
<use x="292.80" y="426.40" xlink:href="#hd"/>
<path d="M289.30 426.40v24.00" class="stroke"/>
<path class="fill"
	d="M289.30 450.40c0.6 -5.6 9.6 -9 5.6 -18.4
	1.6 6 -1.3 11.6 -5.6 12.8
"/>
<use x="312.30" y="432.40" xlink:href="#hl"/>
<use x="312.30" y="426.40" xlink:href="#hl"/>
<use x="312.30" y="420.40" xlink:href="#hl"/>
<use x="312.30" y="420.40" xlink:href="#hd"/>
<path d="M308.80 420.40v30.00" class="stroke"/>
<path class="fill"
	d="M308.80 450.40c0.6 -5.6 9.6 -9 5.6 -18.4
	1.6 6 -1.3 11.6 -5.6 12.8
"/>
<use x="331.70" y="468.40" xlink:href="#hl"/>
<use x="331.70" y="468.40" xlink:href="#hd"/>
<path d="M335.20 468.40v-21.00" class="stroke"/>
<path class="fill"
	d="M335.20 447.40c0.6 5.6 9.6 9 5.6 18.4
	1.6 -6 -1.3 -11.6 -5.6 -12.8
"/>
<use x="351.70" y="441.40" xlink:href="#hd"/>
<path d="M348.20 441.40v21.00" class="stroke"/>
<path class="fill"
	d="M348.20 462.40c0.6 -5.6 9.6 -9 5.6 -18.4
	1.6 6 -1.3 11.6 -5.6 12.8
"/>
<use x="378.30" y="468.40" xlink:href="#hl"/>
<use x="378.30" y="474.40" xlink:href="#hl"/>
<use x="378.30" y="474.40" xlink:href="#hd"/>
<path d="M381.80 474.40v-24.00" class="stroke"/>
<path class="fill"
	d="M381.80 450.40c0.6 5.6 9.6 9 5.6 18.4
	1.6 -6 -1.3 -11.6 -5.6 -12.8
"/>
<use x="398.30" y="447.40" xlink:href="#hd"/>
<path d="M394.80 447.40v21.00" class="stroke"/>
<path class="fill"
	d="M394.80 468.40c0.6 -5.6 9.6 -9 5.6 -18.4
	1.6 6 -1.3 11.6 -5.6 12.8
"/>
<use x="417.70" y="441.40" xlink:href="#hd"/>
<path d="M414.20 441.40v21.00" class="stroke"/>
<path class="fill"
	d="M414.20 462.40c0.6 -5.6 9.6 -9 5.6 -18.4
	1.6 6 -1.3 11.6 -5.6 12.8
"/>
<use x="437.10" y="435.40" xlink:href="#hd"/>
<path d="M433.60 435.40v21.00" class="stroke"/>
<path class="fill"
	d="M433.60 456.40c0.6 -5.6 9.6 -9 5.6 -18.4
	1.6 6 -1.3 11.6 -5.6 12.8
"/>
<use x="456.50" y="432.40" xlink:href="#hl"/>
<use x="456.50" y="432.40" xlink:href="#hd"/>
<path d="M453.00 432.40v21.00" class="stroke"/>
<path class="fill"
	d="M453.00 453.40c0.6 -5.6 9.6 -9 5.6 -18.4
	1.6 6 -1.3 11.6 -5.6 12.8
"/>
<use x="476.00" y="432.40" xlink:href="#hl"/>
<use x="476.00" y="426.40" xlink:href="#hl"/>
<use x="476.00" y="426.40" xlink:href="#hd"/>
<path d="M472.50 426.40v24.00" class="stroke"/>
<path class="fill"
	d="M472.50 450.40c0.6 -5.6 9.6 -9 5.6 -18.4
	1.6 6 -1.3 11.6 -5.6 12.8
"/>
<use x="495.40" y="468.40" xlink:href="#hl"/>
<use x="495.40" y="474.40" xlink:href="#hl"/>
<use x="495.40" y="474.40" xlink:href="#hd"/>
<path d="M498.90 474.40v-24.00" class="stroke"/>
<path class="fill"
	d="M498.90 450.40c0.6 5.6 9.6 9 5.6 18.4
	1.6 -6 -1.3 -11.6 -5.6 -12.8
"/>
<use x="515.40" y="447.40" xlink:href="#hd"/>
<path d="M511.90 447.40v21.00" class="stroke"/>
<path class="fill"
	d="M511.90 468.40c0.6 -5.6 9.6 -9 5.6 -18.4
	1.6 6 -1.3 11.6 -5.6 12.8
"/>
<use x="542.00" y="462.40" xlink:href="#hd"/>
<path d="M545.50 462.40v-21.00" class="stroke"/>
<path class="fill"
	d="M545.50 441.40c0.6 5.6 9.6 9 5.6 18.4
	1.6 -6 -1.3 -11.6 -5.6 -12.8
"/>
<use x="562.00" y="435.40" xlink:href="#hd"/>
<path d="M558.50 435.40v21.00" class="stroke"/>
<path class="fill"
	d="M558.50 456.40c0.6 -5.6 9.6 -9 5.6 -18.4
	1.6 6 -1.3 11.6 -5.6 12.8
"/>
<use x="581.40" y="432.40" xlink:href="#hl"/>
<use x="581.40" y="429.40" xlink:href="#hd"/>
<path d="M577.90 429.40v21.00" class="stroke"/>
<path class="fill"
	d="M577.90 450.40c0.6 -5.6 9.6 -9 5.6 -18.4
	1.6 6 -1.3 11.6 -5.6 12.8
"/>
<use x="600.90" y="432.40" xlink:href="#hl"/>
<use x="600.90" y="426.40" xlink:href="#hl"/>
<use x="600.90" y="423.40" xlink:href="#hd"/>
<path d="M597.40 423.40v27.00" class="stroke"/>
<path class="fill"
	d="M597.40 450.40c0.6 -5.6 9.6 -9 5.6 -18.4
	1.6 6 -1.3 11.6 -5.6 12.8
"/>
<use x="620.50" y="432.40" xlink:href="#hl"/>
<use x="620.50" y="426.40" xlink:href="#hl"/>
<use x="620.50" y="420.40" xlink:href="#hl"/>
<use x="620.50" y="420.40" xlink:href="#hd"/>
<path d="M617.00 420.40v30.00" class="stroke"/>
<path class="fill"
	d="M617.00 450.40c0.6 -5.6 9.6 -9 5.6 -18.4
	1.6 6 -1.3 11.6 -5.6 12.8
"/>
<use x="640.00" y="432.40" xlink:href="#hl"/>
<use x="640.00" y="426.40" xlink:href="#hl"/>
<use x="640.00" y="420.40" xlink:href="#hl"/>
<use x="640.00" y="414.40" xlink:href="#hl"/>
<use x="640.00" y="414.40" xlink:href="#hd"/>
<path d="M636.50 414.40v36.00" class="stroke"/>
<path class="fill"
	d="M636.50 450.40c0.6 -5.6 9.6 -9 5.6 -18.4
	1.6 6 -1.3 11.6 -5.6 12.8
"/>
<use x="657.50" y="462.40" xlink:href="#hd"/>
<path d="M661.00 462.40v-21.00" class="stroke"/>
<path class="fill"
	d="M661.00 441.40c0.6 5.6 9.6 9 5.6 18.4
	1.6 -6 -1.3 -11.6 -5.6 -12.8
"/>
<use x="677.50" y="435.40" xlink:href="#hd"/>
<path d="M674.00 435.40v21.00" class="stroke"/>
<path class="fill"
	d="M674.00 456.40c0.6 -5.6 9.6 -9 5.6 -18.4
	1.6 6 -1.3 11.6 -5.6 12.8
"/>
</g>
<g stroke-width="0.70" style="font:italic 11.00px Times">
<path class="stroke" stroke-width="1"
	d="M10.00 594.80v-82.00"/>
<g transform="translate(10.00,512.80) scale(1,0.82)">
	<use xlink:href="#brace"/>
</g>
<path class="stroke" stroke-width="1"
	d="M262.10 536.80v-24.00"/>
<path class="stroke" stroke-width="1"
	d="M262.10 594.80v-24.00"/>
<path class="stroke" stroke-width="1"
	d="M343.10 536.80v-24.00"/>
<path class="stroke" stroke-width="1"
	d="M343.10 594.80v-24.00"/>
<path d="m10.00 536.80
	h333.10
	M10.00 530.80
	h333.10
	M10.00 524.80
	h333.10
	M10.00 518.80
	h333.10
	M10.00 512.80
	h333.10
	" class="stroke"/>
<path d="m10.00 594.80
	h333.10
	M10.00 588.80
	h333.10
	M10.00 582.80
	h333.10
	M10.00 576.80
	h333.10
	M10.00 570.80
	h333.10
	" class="stroke"/>
</g>
<g stroke-width="0.70" style="font:bold 13.00px Times">
<text x="39.30" y="508.20">I<tspan
	 style="font:italic 11.00px Times">Δ⁷²</tspan></text>
</g>
<g stroke-width="0.70" style="font:bold 13.00px Times">
<text x="281.40" y="496.20">I<tspan
	 style="font:italic 11.00px Times">Δ⁷</tspan></text>
</g>
<g stroke-width="0.70" style="font:italic 11.00px Times">
<use x="22.00" y="530.80" xlink:href="#tclef"/>
<use x="47.00" y="536.80" xlink:href="#Hd"/>
<path d="M50.50 536.80v-21.00" class="stroke"/>
<use x="160.20" y="539.80" xlink:href="#hd"/>
<circle class="fill" cx="167.90" cy="539.80" r="1.2"/>
<path d="M163.70 539.80v-21.00" class="stroke"/>
<use x="242.30" y="542.80" xlink:href="#hl"/>
<use x="242.30" y="542.80" xlink:href="#hd"/>
<path d="M245.80 542.80v-21.00" class="stroke"/>
<path class="fill"
	d="M245.80 521.80c0.6 5.6 9.6 9 5.6 18.4
	1.6 -6 -1.3 -11.6 -5.6 -12.8
"/>
<use x="288.10" y="542.80" xlink:href="#hl1"/>
<use x="288.10" y="542.80" xlink:href="#HD"/>
<use x="288.10" y="521.80" xlink:href="#HD"/>
<use x="22.00" y="576.80" xlink:href="#bclef"/>
<use x="47.00" y="600.80" xlink:href="#hl"/>
<use x="47.00" y="606.80" xlink:href="#hl"/>
<use x="47.00" y="606.80" xlink:href="#hd"/>
<path d="M50.50 606.80v-24.00" class="stroke"/>
<path class="fill"
	d="M50.50 582.80c0.6 5.6 9.6 9 5.6 18.4
	1.6 -6 -1.3 -11.6 -5.6 -12.8
"/>
<use x="75.30" y="579.80" xlink:href="#hd"/>
<path d="M71.80 579.80v21.00" class="stroke"/>
<path class="fill"
	d="M71.80 600.80c0.6 -5.6 9.6 -9 5.6 -18.4
	1.6 6 -1.3 11.6 -5.6 12.8
"/>
<use x="103.60" y="573.80" xlink:href="#hd"/>
<path d="M100.10 573.80v21.00" class="stroke"/>
<path class="fill"
	d="M100.10 594.80c0.6 -5.6 9.6 -9 5.6 -18.4
	1.6 6 -1.3 11.6 -5.6 12.8
"/>
<use x="131.90" y="567.80" xlink:href="#hd"/>
<path d="M128.40 567.80v21.00" class="stroke"/>
<path class="fill"
	d="M128.40 588.80c0.6 -5.6 9.6 -9 5.6 -18.4
	1.6 6 -1.3 11.6 -5.6 12.8
"/>
<use x="160.20" y="564.80" xlink:href="#hl"/>
<use x="160.20" y="564.80" xlink:href="#hd"/>
<path d="M156.70 564.80v21.00" class="stroke"/>
<path class="fill"
	d="M156.70 585.80c0.6 -5.6 9.6 -9 5.6 -18.4
	1.6 6 -1.3 11.6 -5.6 12.8
"/>
<use x="188.50" y="564.80" xlink:href="#hl"/>
<use x="188.50" y="558.80" xlink:href="#hl"/>
<use x="188.50" y="558.80" xlink:href="#hd"/>
<path d="M185.00 558.80v24.00" class="stroke"/>
<path class="fill"
	d="M185.00 582.80c0.6 -5.6 9.6 -9 5.6 -18.4
	1.6 6 -1.3 11.6 -5.6 12.8
"/>
<use x="214.00" y="600.80" xlink:href="#hl"/>
<use x="214.00" y="606.80" xlink:href="#hl"/>
<use x="214.00" y="606.80" xlink:href="#hd"/>
<path d="M217.50 606.80v-24.00" class="stroke"/>
<path class="fill"
	d="M217.50 582.80c0.6 5.6 9.6 9 5.6 18.4
	1.6 -6 -1.3 -11.6 -5.6 -12.8
"/>
<use x="242.30" y="579.80" xlink:href="#hd"/>
<path d="M238.80 579.80v21.00" class="stroke"/>
<path class="fill"
	d="M238.80 600.80c0.6 -5.6 9.6 -9 5.6 -18.4
	1.6 6 -1.3 11.6 -5.6 12.8
"/>
<use x="288.10" y="600.80" xlink:href="#hl1"/>
<use x="288.10" y="606.80" xlink:href="#hl1"/>
<use x="288.10" y="612.80" xlink:href="#hl1"/>
<use x="288.10" y="618.80" xlink:href="#hl1"/>
<use x="288.10" y="624.80" xlink:href="#hl1"/>
<use x="288.10" y="627.80" xlink:href="#HD"/>
<use x="288.10" y="606.80" xlink:href="#HD"/>
<use x="288.10" y="600.80" xlink:href="#HD"/>
<use x="288.10" y="594.80" xlink:href="#HD"/>
<use x="288.10" y="588.80" xlink:href="#HD"/>
<defs>
<g id="hld" class="fill">
	<circle cx="0" cy="-3" r="1.3"/>
	<path d="m-7.5 -1.5
		c0 -11.5 15 -11.5 15 0
		h-0.25
		c-1.25 -9 -13.25 -9 -14.5 0"/>
</g>
</defs>
<use x="287.10" y="510.80" xlink:href="#hld"/>
<g transform="rotate(270)">
<use x="-545.80" y="274.60" xlink:href="#ltr"/>
<use x="-539.80" y="274.60" xlink:href="#ltr"/>
<use x="-533.80" y="274.60" xlink:href="#ltr"/>
<use x="-527.80" y="274.60" xlink:href="#ltr"/>
<use x="-521.80" y="274.60" xlink:href="#ltr"/>
</g>
<use x="287.10" y="568.80" xlink:href="#hld"/>
<g transform="rotate(270)">
<use x="-630.80" y="274.60" xlink:href="#ltr"/>
<use x="-624.80" y="274.60" xlink:href="#ltr"/>
<use x="-618.80" y="274.60" xlink:href="#ltr"/>
<use x="-612.80" y="274.60" xlink:href="#ltr"/>
<use x="-606.80" y="274.60" xlink:href="#ltr"/>
<use x="-600.80" y="274.60" xlink:href="#ltr"/>
<use x="-594.80" y="274.60" xlink:href="#ltr"/>
<use x="-588.80" y="274.60" xlink:href="#ltr"/>
</g>
</g>
</svg>
