<?xml version="1.0" standalone="no"?>
<!DOCTYPE svg PUBLIC "-//W3C//DTD SVG 1.1//EN"
	"http://www.w3.org/Graphics/SVG/1.1/DTD/svg11.dtd">
<svg xmlns="http://www.w3.org/2000/svg" version="1.1"
	xmlns:xlink="http://www.w3.org/1999/xlink"
	color="black"
	width="701.60px" height="645.20px" viewBox="0 0 701.60 645.20" preserveAspectRatio="xMidYMid meet">
<style type="text/css">
.fill {fill: currentColor}
.stroke {stroke: currentColor; fill: none}
text{white-space: pre}
</style>
<title>/tmp/boddie_hymnal_stage/come_down_o_love_divine.abc (1) tune 1</title>
<!-- Creator: abcm2ps-8.14.11 -->
<!-- CreationDate: Apr 30, 2026 12:59 -->
<!-- CommandLine: /tmp/boddie_hymnal_stage/come_down_o_love_divine.abc -g -O /tmp/boddie_hymnal_stage/come_down_o_love_divine -->
<g stroke-width="0.70">
<!-- title: 049. Come Down, O Love Divine -->
</g>
<g stroke-width="0.70" style="font:20.00px Times">
<text x="350.80" y="22.00" text-anchor="middle">049. Come Down, O Love Divine</text>
</g>
<g stroke-width="0.70" transform="scale(0.700)" style="font:20.00px Times">
<defs>
<ellipse id="hd" rx="4.1" ry="2.9"
	transform="rotate(-20)" class="fill"/>
</defs>
<use x="110.86" y="75.57" xlink:href="#hd"/>
<path d="M114.36 75.57v-21.00" class="stroke"/>
</g>
<g stroke-width="0.70" style="font:bold 15.00px Times">
<text x="85.30" y="55.00">= 72Slowly, with great expression</text>
<path class="stroke" stroke-width="1"
	d="M10.00 172.40v-91.00"/>
<defs>
<path id="brace" class="fill" d="m-2.5 101
	c-4.5 -4.6 -7.5 -12.2 -4.4 -26.8
	3.5 -14.3 3.2 -21.7 -2.1 -24.2
	7.4 2.4 7.3 14.2 3.5 29.5
	-2.7 9.5 -1.5 16.2 3 21.5
	M-2.5 1c-4.5 4.6 -7.5 12.2 -4.4 26.8
	c3.5 14.3 3.2 21.7 -2.1 24.2
	7.4 -2.4 7.3 -14.2 3.5 -29.5
	-2.7 -9.5 -1.5 -16.2 3 -21.5"/>
</defs>
<g transform="translate(10.00,81.40) scale(1,0.91)">
	<use xlink:href="#brace"/>
</g>
<path class="stroke" stroke-width="1"
	d="M206.60 105.40v-24.00"/>
<path class="stroke" stroke-width="1"
	d="M206.60 172.40v-24.00"/>
<path class="stroke" stroke-width="1"
	d="M349.80 105.40v-24.00"/>
<path class="stroke" stroke-width="1"
	d="M349.80 172.40v-24.00"/>
<path class="stroke" stroke-width="1"
	d="M406.30 105.40v-24.00"/>
<path class="stroke" stroke-width="1"
	d="M406.30 172.40v-24.00"/>
<path class="stroke" stroke-width="1"
	d="M548.90 105.40v-24.00"/>
<path class="stroke" stroke-width="1"
	d="M548.90 172.40v-24.00"/>
<path class="stroke" stroke-width="1"
	d="M691.60 105.40v-24.00"/>
<path class="stroke" stroke-width="1"
	d="M691.60 172.40v-24.00"/>
<path d="m10.00 105.40
	h681.60
	M10.00 99.40
	h681.60
	M10.00 93.40
	h681.60
	M10.00 87.40
	h681.60
	M10.00 81.40
	h681.60
	" class="stroke"/>
<path d="m10.00 172.40
	h681.60
	M10.00 166.40
	h681.60
	M10.00 160.40
	h681.60
	M10.00 154.40
	h681.60
	M10.00 148.40
	h681.60
	" class="stroke"/>
</g>
<g stroke-width="0.70" style="font:bold 13.00px Times">
<text x="71.30" y="76.80">I<tspan
	 style="font:italic 11.00px Times">Δ⁷</tspan></text>
</g>
<g stroke-width="0.70" style="font:bold 13.00px Times">
<text x="213.70" y="68.80">V<tspan
	 style="font:italic 11.00px Times">⁷</tspan></text>
</g>
<g stroke-width="0.70" style="font:bold 13.00px Times">
<text x="369.00" y="66.80">I<tspan
	 style="font:italic 11.00px Times">Δ⁷</tspan></text>
</g>
<g stroke-width="0.70" style="font:bold 13.00px Times">
<text x="413.60" y="68.80">I<tspan
	 style="font:italic 11.00px Times">Δ⁷</tspan></text>
</g>
<g stroke-width="0.70" style="font:bold 13.00px Times">
<text x="553.40" y="76.80">vi<tspan
	 style="font:italic 11.00px Times">m⁷</tspan></text>
</g>
<g stroke-width="0.70" style="font:italic 11.00px Times">
<defs>
<path id="utclef" class="fill" d="m-50 -90
	c-72 -41 -72 -158 52 -188
	150 -10 220 188 90 256
	-114 52 -275 0 -293 -136
	-15 -181 93 -229 220 -334
	88 -87 79 -133 62 -210
	-51 33 -94 105 -89 186
	17 267 36 374 49 574
	6 96 -19 134 -77 135
	-80 1 -126 -93 -61 -133
	85 -41 133 101 31 105
	23 17 92 37 90 -92
	-10 -223 -39 -342 -50 -617
	0 -90 0 -162 96 -232
	56 72 63 230 22 289
	-74 106 -257 168 -255 316
	9 153 148 185 252 133
	86 -65 29 -192 -80 -176
	-71 12 -105 67 -59 124"/>
<use id="tclef" transform="translate(0,6) scale(0.045)"
	xlink:href="#utclef"/>
</defs>
<use x="22.00" y="99.40" xlink:href="#tclef"/>
<defs>
<path id="usharp" class="fill" d="
	m136 -702
	v890
	h32
	v-890
	m128 840
	h32
	v-888
	h-32
	m-232 286
	v116
	l338 -96
	v-116
	m-338 442
	v116
	l338 -98
	v-114"/>
<use id="sh0" transform="translate(-4,5) scale(0.018)"
	xlink:href="#usharp"/>
</defs>
<use x="37.00" y="81.40" xlink:href="#sh0"/>
<use x="42.50" y="90.40" xlink:href="#sh0"/>
<g style="font:bold 16px serif"
	transform="translate(58.50,104.90) scale(1.2,1)">
	<text text-anchor="middle">4</text>
	<text y="-12" text-anchor="middle">4</text>
</g>
<defs>
<path id="Hd" class="fill" d="m3 -1.6
	c-1 -1.8 -7 1.4 -6 3.2
	1 1.8 7 -1.4 6 -3.2
	m0.5 -0.3
	c2 3.8 -5 7.6 -7 3.8
	-2 -3.8 5 -7.6 7 -3.8"/>
</defs>
<use x="77.00" y="108.40" xlink:href="#Hd"/>
<path d="M80.50 108.40v-21.00" class="stroke"/>
<use x="144.30" y="105.40" xlink:href="#hd"/>
<path d="M147.80 105.40v-21.00" class="stroke"/>
<use x="175.90" y="102.40" xlink:href="#hd"/>
<path d="M179.40 102.40v-21.00" class="stroke"/>
<use x="219.60" y="96.40" xlink:href="#Hd"/>
<path d="M223.10 96.40v-21.00" class="stroke"/>
<use x="287.50" y="93.40" xlink:href="#Hd"/>
<path d="M291.00 93.40v-21.00" class="stroke"/>
<defs>
<path id="hl1" class="stroke" d="m-7 0h14"/>
</defs>
<use x="375.80" y="75.40" xlink:href="#hl1"/>
<defs>
<path id="HD" class="fill" d="m-2.7 -1.4
	c1.5 -2.8 6.9 0 5.3 2.7
	-1.5 2.8 -6.9 0 -5.3 -2.7
	m8.3 1.4
	c0 -1.5 -2.2 -3 -5.6 -3
	-3.4 0 -5.6 1.5 -5.6 3
	0 1.5 2.2 3 5.6 3
	3.4 0 5.6 -1.5 5.6 -3"/>
</defs>
<use x="375.80" y="75.40" xlink:href="#HD"/>
<use x="375.80" y="96.40" xlink:href="#HD"/>
<use x="419.30" y="96.40" xlink:href="#Hd"/>
<path d="M422.80 96.40v-21.00" class="stroke"/>
<use x="486.70" y="93.40" xlink:href="#hd"/>
<path d="M490.20 93.40v-21.00" class="stroke"/>
<use x="518.30" y="96.40" xlink:href="#hd"/>
<path d="M521.80 96.40v-21.00" class="stroke"/>
<use x="561.40" y="87.40" xlink:href="#hd"/>
<path d="M557.90 87.40v21.00" class="stroke"/>
<use x="596.00" y="90.40" xlink:href="#hd"/>
<path d="M592.50 90.40v21.00" class="stroke"/>
<use x="629.30" y="93.40" xlink:href="#Hd"/>
<path d="M625.80 93.40v21.00" class="stroke"/>
<defs>
<path id="ubclef" class="fill" d="m-200 -87
	c124 -35 222 -78 254 -236
	43 -228 -167 -246 -192 -103
	59 -80 157 22 92 78
	-62 47 -115 -22 -106 -88
	21 -141 270 -136 274 52
	-1 175 -106 264 -322 297
	m357 -250
	c0 -36 51 -34 51 0
	0 37 -51 36 -51 0
	m-2 -129
	c0 -36 51 -34 51 0
	0 38 -51 37 -51 0"/>
<use id="bclef" transform="translate(0,18) scale(0.045)"
	xlink:href="#ubclef"/>
</defs>
<use x="22.00" y="154.40" xlink:href="#bclef"/>
<use x="37.00" y="154.40" xlink:href="#sh0"/>
<use x="42.50" y="163.40" xlink:href="#sh0"/>
<g style="font:bold 16px serif"
	transform="translate(58.50,171.90) scale(1.2,1)">
	<text text-anchor="middle">4</text>
	<text y="-12" text-anchor="middle">4</text>
</g>
<defs>
<path id="hl" class="stroke" d="m-6 0h12"/>
</defs>
<use x="77.00" y="178.40" xlink:href="#hl"/>
<use x="77.00" y="184.40" xlink:href="#hl"/>
<use x="77.00" y="190.40" xlink:href="#hl"/>
<use x="77.00" y="196.40" xlink:href="#hl"/>
<use x="77.00" y="202.40" xlink:href="#hl"/>
<use x="77.00" y="202.40" xlink:href="#hd"/>
<path d="M80.50 202.40v-42.00" class="stroke"/>
<path class="fill"
	d="M80.50 160.40c0.6 5.6 9.6 9 5.6 18.4
	1.6 -6 -1.3 -11.6 -5.6 -12.8
"/>
<use x="77.00" y="181.40" xlink:href="#hd"/>
<use x="94.90" y="154.40" xlink:href="#hd"/>
<path d="M91.40 154.40v21.00" class="stroke"/>
<path class="fill"
	d="M91.40 175.40c0.6 -5.6 9.6 -9 5.6 -18.4
	1.6 6 -1.3 11.6 -5.6 12.8
"/>
<use x="111.20" y="148.40" xlink:href="#hd"/>
<path d="M107.70 148.40v21.00" class="stroke"/>
<path class="fill"
	d="M107.70 169.40c0.6 -5.6 9.6 -9 5.6 -18.4
	1.6 6 -1.3 11.6 -5.6 12.8
"/>
<use x="127.60" y="142.40" xlink:href="#hl"/>
<use x="127.60" y="142.40" xlink:href="#hd"/>
<path d="M124.10 142.40v21.00" class="stroke"/>
<path class="fill"
	d="M124.10 163.40c0.6 -5.6 9.6 -9 5.6 -18.4
	1.6 6 -1.3 11.6 -5.6 12.8
"/>
<use x="144.30" y="142.40" xlink:href="#hl"/>
<use x="144.30" y="139.40" xlink:href="#hd"/>
<path d="M140.80 139.40v21.00" class="stroke"/>
<path class="fill"
	d="M140.80 160.40c0.6 -5.6 9.6 -9 5.6 -18.4
	1.6 6 -1.3 11.6 -5.6 12.8
"/>
<use x="161.00" y="142.40" xlink:href="#hl"/>
<use x="161.00" y="136.40" xlink:href="#hl"/>
<use x="161.00" y="133.40" xlink:href="#hd"/>
<path d="M157.50 133.40v27.00" class="stroke"/>
<path class="fill"
	d="M157.50 160.40c0.6 -5.6 9.6 -9 5.6 -18.4
	1.6 6 -1.3 11.6 -5.6 12.8
"/>
<use x="175.90" y="178.40" xlink:href="#hl"/>
<use x="175.90" y="181.40" xlink:href="#hd"/>
<path d="M179.40 181.40v-21.00" class="stroke"/>
<path class="fill"
	d="M179.40 160.40c0.6 5.6 9.6 9 5.6 18.4
	1.6 -6 -1.3 -11.6 -5.6 -12.8
"/>
<use x="193.80" y="154.40" xlink:href="#hd"/>
<path d="M190.30 154.40v21.00" class="stroke"/>
<path class="fill"
	d="M190.30 175.40c0.6 -5.6 9.6 -9 5.6 -18.4
	1.6 6 -1.3 11.6 -5.6 12.8
"/>
<use x="219.60" y="169.40" xlink:href="#hd"/>
<path d="M223.10 169.40v-21.00" class="stroke"/>
<path class="fill"
	d="M223.10 148.40c0.6 5.6 9.6 9 5.6 18.4
	1.6 -6 -1.3 -11.6 -5.6 -12.8
"/>
<use x="237.40" y="142.40" xlink:href="#hl"/>
<use x="237.40" y="142.40" xlink:href="#hd"/>
<path d="M233.90 142.40v21.00" class="stroke"/>
<path class="fill"
	d="M233.90 163.40c0.6 -5.6 9.6 -9 5.6 -18.4
	1.6 6 -1.3 11.6 -5.6 12.8
"/>
<use x="254.10" y="142.40" xlink:href="#hl"/>
<use x="254.10" y="136.40" xlink:href="#hl"/>
<use x="254.10" y="136.40" xlink:href="#hd"/>
<path d="M250.60 136.40v24.00" class="stroke"/>
<path class="fill"
	d="M250.60 160.40c0.6 -5.6 9.6 -9 5.6 -18.4
	1.6 6 -1.3 11.6 -5.6 12.8
"/>
<use x="270.80" y="142.40" xlink:href="#hl"/>
<use x="270.80" y="136.40" xlink:href="#hl"/>
<use x="270.80" y="130.40" xlink:href="#hl"/>
<use x="270.80" y="130.40" xlink:href="#hd"/>
<path d="M267.30 130.40v30.00" class="stroke"/>
<path class="fill"
	d="M267.30 160.40c0.6 -5.6 9.6 -9 5.6 -18.4
	1.6 6 -1.3 11.6 -5.6 12.8
"/>
<use x="287.50" y="142.40" xlink:href="#hl"/>
<use x="287.50" y="136.40" xlink:href="#hl"/>
<use x="287.50" y="130.40" xlink:href="#hl"/>
<use x="287.50" y="127.40" xlink:href="#hd"/>
<path d="M284.00 127.40v33.00" class="stroke"/>
<path class="fill"
	d="M284.00 160.40c0.6 -5.6 9.6 -9 5.6 -18.4
	1.6 6 -1.3 11.6 -5.6 12.8
"/>
<use x="304.20" y="142.40" xlink:href="#hl"/>
<use x="304.20" y="136.40" xlink:href="#hl"/>
<use x="304.20" y="130.40" xlink:href="#hl"/>
<use x="304.20" y="124.40" xlink:href="#hl"/>
<use x="304.20" y="121.40" xlink:href="#hd"/>
<path d="M300.70 121.40v39.00" class="stroke"/>
<path class="fill"
	d="M300.70 160.40c0.6 -5.6 9.6 -9 5.6 -18.4
	1.6 6 -1.3 11.6 -5.6 12.8
"/>
<use x="319.10" y="169.40" xlink:href="#hd"/>
<path d="M322.60 169.40v-21.00" class="stroke"/>
<path class="fill"
	d="M322.60 148.40c0.6 5.6 9.6 9 5.6 18.4
	1.6 -6 -1.3 -11.6 -5.6 -12.8
"/>
<use x="337.00" y="142.40" xlink:href="#hl"/>
<use x="337.00" y="142.40" xlink:href="#hd"/>
<path d="M333.50 142.40v21.00" class="stroke"/>
<path class="fill"
	d="M333.50 163.40c0.6 -5.6 9.6 -9 5.6 -18.4
	1.6 6 -1.3 11.6 -5.6 12.8
"/>
<use x="375.80" y="178.40" xlink:href="#hl1"/>
<use x="375.80" y="181.40" xlink:href="#HD"/>
<use x="375.80" y="175.40" xlink:href="#HD"/>
<use x="375.80" y="169.40" xlink:href="#HD"/>
<use x="375.80" y="163.40" xlink:href="#HD"/>
<use x="419.30" y="178.40" xlink:href="#hl"/>
<use x="419.30" y="184.40" xlink:href="#hl"/>
<use x="419.30" y="190.40" xlink:href="#hl"/>
<use x="419.30" y="196.40" xlink:href="#hl"/>
<use x="419.30" y="202.40" xlink:href="#hl"/>
<use x="419.30" y="202.40" xlink:href="#hd"/>
<path d="M422.80 202.40v-42.00" class="stroke"/>
<path class="fill"
	d="M422.80 160.40c0.6 5.6 9.6 9 5.6 18.4
	1.6 -6 -1.3 -11.6 -5.6 -12.8
"/>
<use x="419.30" y="181.40" xlink:href="#hd"/>
<use x="437.20" y="154.40" xlink:href="#hd"/>
<path d="M433.70 154.40v21.00" class="stroke"/>
<path class="fill"
	d="M433.70 175.40c0.6 -5.6 9.6 -9 5.6 -18.4
	1.6 6 -1.3 11.6 -5.6 12.8
"/>
<use x="453.60" y="148.40" xlink:href="#hd"/>
<path d="M450.10 148.40v21.00" class="stroke"/>
<path class="fill"
	d="M450.10 169.40c0.6 -5.6 9.6 -9 5.6 -18.4
	1.6 6 -1.3 11.6 -5.6 12.8
"/>
<use x="470.00" y="142.40" xlink:href="#hl"/>
<use x="470.00" y="142.40" xlink:href="#hd"/>
<path d="M466.50 142.40v21.00" class="stroke"/>
<path class="fill"
	d="M466.50 163.40c0.6 -5.6 9.6 -9 5.6 -18.4
	1.6 6 -1.3 11.6 -5.6 12.8
"/>
<use x="486.70" y="142.40" xlink:href="#hl"/>
<use x="486.70" y="139.40" xlink:href="#hd"/>
<path d="M483.20 139.40v21.00" class="stroke"/>
<path class="fill"
	d="M483.20 160.40c0.6 -5.6 9.6 -9 5.6 -18.4
	1.6 6 -1.3 11.6 -5.6 12.8
"/>
<use x="503.30" y="142.40" xlink:href="#hl"/>
<use x="503.30" y="136.40" xlink:href="#hl"/>
<use x="503.30" y="133.40" xlink:href="#hd"/>
<path d="M499.80 133.40v27.00" class="stroke"/>
<path class="fill"
	d="M499.80 160.40c0.6 -5.6 9.6 -9 5.6 -18.4
	1.6 6 -1.3 11.6 -5.6 12.8
"/>
<use x="518.30" y="178.40" xlink:href="#hl"/>
<use x="518.30" y="181.40" xlink:href="#hd"/>
<path d="M521.80 181.40v-21.00" class="stroke"/>
<path class="fill"
	d="M521.80 160.40c0.6 5.6 9.6 9 5.6 18.4
	1.6 -6 -1.3 -11.6 -5.6 -12.8
"/>
<use x="536.10" y="154.40" xlink:href="#hd"/>
<path d="M532.60 154.40v21.00" class="stroke"/>
<path class="fill"
	d="M532.60 175.40c0.6 -5.6 9.6 -9 5.6 -18.4
	1.6 6 -1.3 11.6 -5.6 12.8
"/>
<use x="561.40" y="166.40" xlink:href="#hd"/>
<path d="M564.90 166.40v-21.00" class="stroke"/>
<path class="fill"
	d="M564.90 145.40c0.6 5.6 9.6 9 5.6 18.4
	1.6 -6 -1.3 -11.6 -5.6 -12.8
"/>
<use x="579.30" y="142.40" xlink:href="#hl"/>
<use x="579.30" y="139.40" xlink:href="#hd"/>
<path d="M575.80 139.40v21.00" class="stroke"/>
<path class="fill"
	d="M575.80 160.40c0.6 -5.6 9.6 -9 5.6 -18.4
	1.6 6 -1.3 11.6 -5.6 12.8
"/>
<use x="596.00" y="142.40" xlink:href="#hl"/>
<use x="596.00" y="136.40" xlink:href="#hl"/>
<use x="596.00" y="133.40" xlink:href="#hd"/>
<path d="M592.50 133.40v27.00" class="stroke"/>
<path class="fill"
	d="M592.50 160.40c0.6 -5.6 9.6 -9 5.6 -18.4
	1.6 6 -1.3 11.6 -5.6 12.8
"/>
<use x="612.70" y="142.40" xlink:href="#hl"/>
<use x="612.70" y="136.40" xlink:href="#hl"/>
<use x="612.70" y="130.40" xlink:href="#hl"/>
<use x="612.70" y="127.40" xlink:href="#hd"/>
<path d="M609.20 127.40v33.00" class="stroke"/>
<path class="fill"
	d="M609.20 160.40c0.6 -5.6 9.6 -9 5.6 -18.4
	1.6 6 -1.3 11.6 -5.6 12.8
"/>
<use x="629.30" y="142.40" xlink:href="#hl"/>
<use x="629.30" y="136.40" xlink:href="#hl"/>
<use x="629.30" y="130.40" xlink:href="#hl"/>
<use x="629.30" y="124.40" xlink:href="#hl"/>
<use x="629.30" y="124.40" xlink:href="#hd"/>
<path d="M625.80 124.40v36.00" class="stroke"/>
<path class="fill"
	d="M625.80 160.40c0.6 -5.6 9.6 -9 5.6 -18.4
	1.6 6 -1.3 11.6 -5.6 12.8
"/>
<use x="646.00" y="142.40" xlink:href="#hl"/>
<use x="646.00" y="136.40" xlink:href="#hl"/>
<use x="646.00" y="130.40" xlink:href="#hl"/>
<use x="646.00" y="124.40" xlink:href="#hl"/>
<use x="646.00" y="118.40" xlink:href="#hl"/>
<use x="646.00" y="118.40" xlink:href="#hd"/>
<path d="M642.50 118.40v42.00" class="stroke"/>
<path class="fill"
	d="M642.50 160.40c0.6 -5.6 9.6 -9 5.6 -18.4
	1.6 6 -1.3 11.6 -5.6 12.8
"/>
<use x="661.00" y="166.40" xlink:href="#hd"/>
<path d="M664.50 166.40v-21.00" class="stroke"/>
<path class="fill"
	d="M664.50 145.40c0.6 5.6 9.6 9 5.6 18.4
	1.6 -6 -1.3 -11.6 -5.6 -12.8
"/>
<use x="678.80" y="142.40" xlink:href="#hl"/>
<use x="678.80" y="139.40" xlink:href="#hd"/>
<path d="M675.30 139.40v21.00" class="stroke"/>
<path class="fill"
	d="M675.30 160.40c0.6 -5.6 9.6 -9 5.6 -18.4
	1.6 6 -1.3 11.6 -5.6 12.8
"/>
<defs>
<path id="ltr" class="fill"
    d="m0 -0.4c2 -1.5 3.4 -1.9 3.9 0.4
	c0.2 0.8 0.7 0.7 2.1 -0.4
	v0.8c-2 1.5 -3.4 1.9 -3.9 -0.4
	c-0.2 -0.8 -0.7 -0.7 -2.1 0.4z"/>
</defs>
<g transform="rotate(270)">
<use x="-184.40" y="362.30" xlink:href="#ltr"/>
<use x="-178.40" y="362.30" xlink:href="#ltr"/>
<use x="-172.40" y="362.30" xlink:href="#ltr"/>
<use x="-166.40" y="362.30" xlink:href="#ltr"/>
</g>
<text x="411.50" y="72.40" style="font:bold italic 30px serif">,</text>
</g>
<g stroke-width="0.70" style="font:italic 11.00px Times">
<path class="stroke" stroke-width="1"
	d="M10.00 328.80v-88.00"/>
<g transform="translate(10.00,240.80) scale(1,0.88)">
	<use xlink:href="#brace"/>
</g>
<path class="stroke" stroke-width="1"
	d="M136.80 264.80v-24.00"/>
<path class="stroke" stroke-width="1"
	d="M136.80 328.80v-24.00"/>
<path class="stroke" stroke-width="1"
	d="M291.10 264.80v-24.00"/>
<path class="stroke" stroke-width="1"
	d="M291.10 328.80v-24.00"/>
<path class="stroke" stroke-width="1"
	d="M449.00 264.80v-24.00"/>
<path class="stroke" stroke-width="1"
	d="M449.00 328.80v-24.00"/>
<path class="stroke" stroke-width="1"
	d="M534.70 264.80v-24.00"/>
<path class="stroke" stroke-width="1"
	d="M534.70 328.80v-24.00"/>
<path class="stroke" stroke-width="1"
	d="M691.60 264.80v-24.00"/>
<path class="stroke" stroke-width="1"
	d="M691.60 328.80v-24.00"/>
<path d="m10.00 264.80
	h681.60
	M10.00 258.80
	h681.60
	M10.00 252.80
	h681.60
	M10.00 246.80
	h681.60
	M10.00 240.80
	h681.60
	" class="stroke"/>
<path d="m10.00 328.80
	h681.60
	M10.00 322.80
	h681.60
	M10.00 316.80
	h681.60
	M10.00 310.80
	h681.60
	M10.00 304.80
	h681.60
	" class="stroke"/>
</g>
<g stroke-width="0.70" style="font:bold 13.00px Times">
<text x="70.10" y="226.20">V<tspan
	 style="font:italic 11.00px Times">⁷</tspan></text>
</g>
<g stroke-width="0.70" style="font:bold 13.00px Times">
<text x="143.60" y="234.20">I<tspan
	 style="font:italic 11.00px Times">Δ⁷</tspan></text>
</g>
<g stroke-width="0.70" style="font:bold 13.00px Times">
<text x="295.60" y="234.20">IV<tspan
	 style="font:italic 11.00px Times">Δ⁷</tspan></text>
</g>
<g stroke-width="0.70" style="font:bold 13.00px Times">
<text x="468.30" y="218.20">I<tspan
	 style="font:italic 11.00px Times">Δ⁷</tspan></text>
</g>
<g stroke-width="0.70" style="font:bold 13.00px Times">
<text x="539.70" y="234.20">vi<tspan
	 style="font:italic 11.00px Times">m⁷</tspan></text>
</g>
<g stroke-width="0.70" style="font:italic 11.00px Times">
<use x="22.00" y="258.80" xlink:href="#tclef"/>
<use x="37.00" y="240.80" xlink:href="#sh0"/>
<use x="42.50" y="249.80" xlink:href="#sh0"/>
<use x="76.00" y="234.80" xlink:href="#hl"/>
<use x="76.00" y="234.80" xlink:href="#Hd"/>
<path d="M72.50 234.80v40.00" class="stroke"/>
<use x="76.00" y="255.80" xlink:href="#Hd"/>
<use x="111.30" y="234.80" xlink:href="#hl"/>
<use x="111.30" y="234.80" xlink:href="#Hd"/>
<path d="M107.80 234.80v40.00" class="stroke"/>
<use x="111.30" y="255.80" xlink:href="#Hd"/>
<use x="149.30" y="252.80" xlink:href="#hd"/>
<path d="M145.80 252.80v21.00" class="stroke"/>
<use x="186.70" y="255.80" xlink:href="#hd"/>
<path d="M190.20 255.80v-21.00" class="stroke"/>
<use x="223.30" y="258.80" xlink:href="#hd"/>
<path d="M226.80 258.80v-21.00" class="stroke"/>
<use x="258.20" y="261.80" xlink:href="#hd"/>
<path d="M261.70 261.80v-21.00" class="stroke"/>
<use x="303.60" y="264.80" xlink:href="#hd"/>
<path d="M307.10 264.80v-21.00" class="stroke"/>
<use x="341.00" y="267.80" xlink:href="#hd"/>
<path d="M344.50 267.80v-21.00" class="stroke"/>
<use x="377.90" y="264.80" xlink:href="#hd"/>
<path d="M381.40 264.80v-21.00" class="stroke"/>
<use x="412.80" y="261.80" xlink:href="#hd"/>
<path d="M416.30 261.80v-21.00" class="stroke"/>
<path class="fill"
	d="M416.30 240.80c0.6 5.6 9.6 9 5.6 18.4
	1.6 -6 -1.3 -11.6 -5.6 -12.8
"/>
<use x="432.00" y="258.80" xlink:href="#hd"/>
<path d="M435.50 258.80v-21.00" class="stroke"/>
<path class="fill"
	d="M435.50 237.80c0.6 5.6 9.6 9 5.6 18.4
	1.6 -6 -1.3 -11.6 -5.6 -12.8
"/>
<use x="474.00" y="264.80" xlink:href="#Hd"/>
<path d="M477.50 264.80v-40.00" class="stroke"/>
<use x="474.00" y="243.80" xlink:href="#Hd"/>
<use x="509.20" y="267.80" xlink:href="#Hd"/>
<path d="M512.70 267.80v-40.00" class="stroke"/>
<use x="509.20" y="246.80" xlink:href="#Hd"/>
<use x="547.70" y="246.80" xlink:href="#Hd"/>
<path d="M544.20 246.80v21.00" class="stroke"/>
<use x="622.10" y="249.80" xlink:href="#hd"/>
<path d="M618.60 249.80v21.00" class="stroke"/>
<use x="658.70" y="252.80" xlink:href="#hd"/>
<path d="M655.20 252.80v21.00" class="stroke"/>
<use x="22.00" y="310.80" xlink:href="#bclef"/>
<use x="37.00" y="310.80" xlink:href="#sh0"/>
<use x="42.50" y="319.80" xlink:href="#sh0"/>
<use x="77.00" y="307.80" xlink:href="#HD"/>
<use x="77.00" y="325.80" xlink:href="#HD"/>
<use x="77.00" y="319.80" xlink:href="#HD"/>
<use x="77.00" y="313.80" xlink:href="#HD"/>
<use x="149.30" y="334.80" xlink:href="#hl"/>
<use x="149.30" y="340.80" xlink:href="#hl"/>
<use x="149.30" y="346.80" xlink:href="#hl"/>
<use x="149.30" y="352.80" xlink:href="#hl"/>
<use x="149.30" y="358.80" xlink:href="#hl"/>
<use x="149.30" y="358.80" xlink:href="#hd"/>
<path d="M152.80 358.80v-42.00" class="stroke"/>
<path class="fill"
	d="M152.80 316.80c0.6 5.6 9.6 9 5.6 18.4
	1.6 -6 -1.3 -11.6 -5.6 -12.8
"/>
<use x="149.30" y="337.80" xlink:href="#hd"/>
<use x="168.60" y="310.80" xlink:href="#hd"/>
<path d="M165.10 310.80v21.00" class="stroke"/>
<path class="fill"
	d="M165.10 331.80c0.6 -5.6 9.6 -9 5.6 -18.4
	1.6 6 -1.3 11.6 -5.6 12.8
"/>
<use x="186.70" y="304.80" xlink:href="#hd"/>
<path d="M183.20 304.80v21.00" class="stroke"/>
<path class="fill"
	d="M183.20 325.80c0.6 -5.6 9.6 -9 5.6 -18.4
	1.6 6 -1.3 11.6 -5.6 12.8
"/>
<use x="204.90" y="298.80" xlink:href="#hl"/>
<use x="204.90" y="298.80" xlink:href="#hd"/>
<path d="M201.40 298.80v21.00" class="stroke"/>
<path class="fill"
	d="M201.40 319.80c0.6 -5.6 9.6 -9 5.6 -18.4
	1.6 6 -1.3 11.6 -5.6 12.8
"/>
<use x="223.30" y="298.80" xlink:href="#hl"/>
<use x="223.30" y="295.80" xlink:href="#hd"/>
<path d="M219.80 295.80v21.00" class="stroke"/>
<path class="fill"
	d="M219.80 316.80c0.6 -5.6 9.6 -9 5.6 -18.4
	1.6 6 -1.3 11.6 -5.6 12.8
"/>
<use x="241.70" y="298.80" xlink:href="#hl"/>
<use x="241.70" y="292.80" xlink:href="#hl"/>
<use x="241.70" y="289.80" xlink:href="#hd"/>
<path d="M238.20 289.80v27.00" class="stroke"/>
<path class="fill"
	d="M238.20 316.80c0.6 -5.6 9.6 -9 5.6 -18.4
	1.6 6 -1.3 11.6 -5.6 12.8
"/>
<use x="258.20" y="334.80" xlink:href="#hl"/>
<use x="258.20" y="337.80" xlink:href="#hd"/>
<path d="M261.70 337.80v-21.00" class="stroke"/>
<path class="fill"
	d="M261.70 316.80c0.6 5.6 9.6 9 5.6 18.4
	1.6 -6 -1.3 -11.6 -5.6 -12.8
"/>
<use x="277.50" y="310.80" xlink:href="#hd"/>
<path d="M274.00 310.80v21.00" class="stroke"/>
<path class="fill"
	d="M274.00 331.80c0.6 -5.6 9.6 -9 5.6 -18.4
	1.6 6 -1.3 11.6 -5.6 12.8
"/>
<use x="303.60" y="328.80" xlink:href="#hd"/>
<path d="M307.10 328.80v-21.00" class="stroke"/>
<path class="fill"
	d="M307.10 307.80c0.6 5.6 9.6 9 5.6 18.4
	1.6 -6 -1.3 -11.6 -5.6 -12.8
"/>
<use x="322.90" y="301.80" xlink:href="#hd"/>
<path d="M319.40 301.80v21.00" class="stroke"/>
<path class="fill"
	d="M319.40 322.80c0.6 -5.6 9.6 -9 5.6 -18.4
	1.6 6 -1.3 11.6 -5.6 12.8
"/>
<use x="341.00" y="298.80" xlink:href="#hl"/>
<use x="341.00" y="295.80" xlink:href="#hd"/>
<path d="M337.50 295.80v21.00" class="stroke"/>
<path class="fill"
	d="M337.50 316.80c0.6 -5.6 9.6 -9 5.6 -18.4
	1.6 6 -1.3 11.6 -5.6 12.8
"/>
<use x="359.40" y="298.80" xlink:href="#hl"/>
<use x="359.40" y="292.80" xlink:href="#hl"/>
<use x="359.40" y="289.80" xlink:href="#hd"/>
<path d="M355.90 289.80v27.00" class="stroke"/>
<path class="fill"
	d="M355.90 316.80c0.6 -5.6 9.6 -9 5.6 -18.4
	1.6 6 -1.3 11.6 -5.6 12.8
"/>
<use x="377.90" y="298.80" xlink:href="#hl"/>
<use x="377.90" y="292.80" xlink:href="#hl"/>
<use x="377.90" y="286.80" xlink:href="#hl"/>
<use x="377.90" y="286.80" xlink:href="#hd"/>
<path d="M374.40 286.80v30.00" class="stroke"/>
<path class="fill"
	d="M374.40 316.80c0.6 -5.6 9.6 -9 5.6 -18.4
	1.6 6 -1.3 11.6 -5.6 12.8
"/>
<use x="396.30" y="298.80" xlink:href="#hl"/>
<use x="396.30" y="292.80" xlink:href="#hl"/>
<use x="396.30" y="286.80" xlink:href="#hl"/>
<use x="396.30" y="280.80" xlink:href="#hl"/>
<use x="396.30" y="280.80" xlink:href="#hd"/>
<path d="M392.80 280.80v36.00" class="stroke"/>
<path class="fill"
	d="M392.80 316.80c0.6 -5.6 9.6 -9 5.6 -18.4
	1.6 6 -1.3 11.6 -5.6 12.8
"/>
<use x="412.80" y="328.80" xlink:href="#hd"/>
<path d="M416.30 328.80v-21.00" class="stroke"/>
<path class="fill"
	d="M416.30 307.80c0.6 5.6 9.6 9 5.6 18.4
	1.6 -6 -1.3 -11.6 -5.6 -12.8
"/>
<use x="432.00" y="301.80" xlink:href="#hd"/>
<path d="M428.50 301.80v21.00" class="stroke"/>
<path class="fill"
	d="M428.50 322.80c0.6 -5.6 9.6 -9 5.6 -18.4
	1.6 6 -1.3 11.6 -5.6 12.8
"/>
<use x="475.00" y="334.80" xlink:href="#hl1"/>
<use x="475.00" y="337.80" xlink:href="#HD"/>
<use x="475.00" y="331.80" xlink:href="#HD"/>
<use x="475.00" y="325.80" xlink:href="#HD"/>
<use x="475.00" y="319.80" xlink:href="#HD"/>
<use x="547.70" y="334.80" xlink:href="#hl"/>
<use x="547.70" y="340.80" xlink:href="#hl"/>
<use x="547.70" y="343.80" xlink:href="#hd"/>
<path d="M551.20 343.80v-40.00" class="stroke"/>
<path class="fill"
	d="M551.20 303.80c0.6 5.6 9.6 9 5.6 18.4
	1.6 -6 -1.3 -11.6 -5.6 -12.8
"/>
<use x="547.70" y="322.80" xlink:href="#hd"/>
<use x="566.90" y="298.80" xlink:href="#hl"/>
<use x="566.90" y="295.80" xlink:href="#hd"/>
<path d="M563.40 295.80v21.00" class="stroke"/>
<path class="fill"
	d="M563.40 316.80c0.6 -5.6 9.6 -9 5.6 -18.4
	1.6 6 -1.3 11.6 -5.6 12.8
"/>
<use x="585.30" y="298.80" xlink:href="#hl"/>
<use x="585.30" y="292.80" xlink:href="#hl"/>
<use x="585.30" y="289.80" xlink:href="#hd"/>
<path d="M581.80 289.80v27.00" class="stroke"/>
<path class="fill"
	d="M581.80 316.80c0.6 -5.6 9.6 -9 5.6 -18.4
	1.6 6 -1.3 11.6 -5.6 12.8
"/>
<use x="603.70" y="298.80" xlink:href="#hl"/>
<use x="603.70" y="292.80" xlink:href="#hl"/>
<use x="603.70" y="286.80" xlink:href="#hl"/>
<use x="603.70" y="283.80" xlink:href="#hd"/>
<path d="M600.20 283.80v33.00" class="stroke"/>
<path class="fill"
	d="M600.20 316.80c0.6 -5.6 9.6 -9 5.6 -18.4
	1.6 6 -1.3 11.6 -5.6 12.8
"/>
<use x="622.10" y="298.80" xlink:href="#hl"/>
<use x="622.10" y="292.80" xlink:href="#hl"/>
<use x="622.10" y="286.80" xlink:href="#hl"/>
<use x="622.10" y="280.80" xlink:href="#hl"/>
<use x="622.10" y="280.80" xlink:href="#hd"/>
<path d="M618.60 280.80v36.00" class="stroke"/>
<path class="fill"
	d="M618.60 316.80c0.6 -5.6 9.6 -9 5.6 -18.4
	1.6 6 -1.3 11.6 -5.6 12.8
"/>
<use x="640.50" y="298.80" xlink:href="#hl"/>
<use x="640.50" y="292.80" xlink:href="#hl"/>
<use x="640.50" y="286.80" xlink:href="#hl"/>
<use x="640.50" y="280.80" xlink:href="#hl"/>
<use x="640.50" y="274.80" xlink:href="#hl"/>
<use x="640.50" y="274.80" xlink:href="#hd"/>
<path d="M637.00 274.80v42.00" class="stroke"/>
<path class="fill"
	d="M637.00 316.80c0.6 -5.6 9.6 -9 5.6 -18.4
	1.6 6 -1.3 11.6 -5.6 12.8
"/>
<use x="658.70" y="322.80" xlink:href="#hd"/>
<path d="M662.20 322.80v-21.00" class="stroke"/>
<path class="fill"
	d="M662.20 301.80c0.6 5.6 9.6 9 5.6 18.4
	1.6 -6 -1.3 -11.6 -5.6 -12.8
"/>
<use x="677.90" y="298.80" xlink:href="#hl"/>
<use x="677.90" y="295.80" xlink:href="#hd"/>
<path d="M674.40 295.80v21.00" class="stroke"/>
<path class="fill"
	d="M674.40 316.80c0.6 -5.6 9.6 -9 5.6 -18.4
	1.6 6 -1.3 11.6 -5.6 12.8
"/>
<g transform="rotate(270)">
<use x="-328.80" y="63.50" xlink:href="#ltr"/>
<use x="-322.80" y="63.50" xlink:href="#ltr"/>
<use x="-316.80" y="63.50" xlink:href="#ltr"/>
<use x="-310.80" y="63.50" xlink:href="#ltr"/>
</g>
<text x="141.80" y="231.80" style="font:bold italic 30px serif">,</text>
<g transform="rotate(270)">
<use x="-340.80" y="461.50" xlink:href="#ltr"/>
<use x="-334.80" y="461.50" xlink:href="#ltr"/>
<use x="-328.80" y="461.50" xlink:href="#ltr"/>
<use x="-322.80" y="461.50" xlink:href="#ltr"/>
</g>
<text x="539.90" y="231.80" style="font:bold italic 30px serif">,</text>
</g>
<g stroke-width="0.70" style="font:italic 11.00px Times">
<path class="stroke" stroke-width="1"
	d="M10.00 470.80v-83.00"/>
<g transform="translate(10.00,387.80) scale(1,0.83)">
	<use xlink:href="#brace"/>
</g>
<path class="stroke" stroke-width="1"
	d="M188.70 411.80v-24.00"/>
<path class="stroke" stroke-width="1"
	d="M188.70 470.80v-24.00"/>
<path class="stroke" stroke-width="1"
	d="M330.90 411.80v-24.00"/>
<path class="stroke" stroke-width="1"
	d="M330.90 470.80v-24.00"/>
<path class="stroke" stroke-width="1"
	d="M471.90 411.80v-24.00"/>
<path class="stroke" stroke-width="1"
	d="M471.90 470.80v-24.00"/>
<path class="stroke" stroke-width="1"
	d="M550.30 411.80v-24.00"/>
<path class="stroke" stroke-width="1"
	d="M550.30 470.80v-24.00"/>
<path class="stroke" stroke-width="1"
	d="M691.60 411.80v-24.00"/>
<path class="stroke" stroke-width="1"
	d="M691.60 470.80v-24.00"/>
<path d="m10.00 411.80
	h681.60
	M10.00 405.80
	h681.60
	M10.00 399.80
	h681.60
	M10.00 393.80
	h681.60
	M10.00 387.80
	h681.60
	" class="stroke"/>
<path d="m10.00 470.80
	h681.60
	M10.00 464.80
	h681.60
	M10.00 458.80
	h681.60
	M10.00 452.80
	h681.60
	M10.00 446.80
	h681.60
	" class="stroke"/>
</g>
<g stroke-width="0.70" style="font:bold 13.00px Times">
<text x="55.30" y="375.20">I<tspan
	 style="font:italic 11.00px Times">Δ⁷</tspan></text>
</g>
<g stroke-width="0.70" style="font:bold 13.00px Times">
<text x="196.80" y="381.20">V<tspan
	 style="font:italic 11.00px Times">⁷</tspan></text>
</g>
<g stroke-width="0.70" style="font:bold 13.00px Times">
<text x="335.90" y="383.20">iii<tspan
	 style="font:italic 11.00px Times">m⁷</tspan></text>
</g>
<g stroke-width="0.70" style="font:bold 13.00px Times">
<text x="488.90" y="376.20">ii<tspan
	 style="font:italic 11.00px Times">m⁷</tspan></text>
</g>
<g stroke-width="0.70" style="font:bold 13.00px Times">
<text x="557.40" y="383.20">V<tspan
	 style="font:italic 11.00px Times">⁷</tspan></text>
</g>
<g stroke-width="0.70" style="font:italic 11.00px Times">
<use x="22.00" y="405.80" xlink:href="#tclef"/>
<use x="37.00" y="387.80" xlink:href="#sh0"/>
<use x="42.50" y="396.80" xlink:href="#sh0"/>
<use x="61.00" y="402.80" xlink:href="#Hd"/>
<path d="M64.50 402.80v-21.00" class="stroke"/>
<use x="127.40" y="399.80" xlink:href="#Hd"/>
<path d="M130.90 399.80v-21.00" class="stroke"/>
<use x="203.70" y="402.80" xlink:href="#HD"/>
<use x="343.90" y="396.80" xlink:href="#Hd"/>
<path d="M340.40 396.80v21.00" class="stroke"/>
<use x="410.60" y="399.80" xlink:href="#hd"/>
<path d="M407.10 399.80v21.00" class="stroke"/>
<use x="441.80" y="402.80" xlink:href="#hd"/>
<path d="M445.30 402.80v-21.00" class="stroke"/>
<use x="496.90" y="384.80" xlink:href="#Hd"/>
<path d="M493.40 384.80v40.00" class="stroke"/>
<use x="496.90" y="405.80" xlink:href="#Hd"/>
<use x="527.60" y="387.80" xlink:href="#Hd"/>
<path d="M524.10 387.80v40.00" class="stroke"/>
<use x="527.60" y="408.80" xlink:href="#Hd"/>
<use x="563.30" y="411.80" xlink:href="#Hd"/>
<path d="M566.80 411.80v-21.00" class="stroke"/>
<use x="630.30" y="411.80" xlink:href="#Hd"/>
<path d="M633.80 411.80v-21.00" class="stroke"/>
<use x="22.00" y="452.80" xlink:href="#bclef"/>
<use x="37.00" y="452.80" xlink:href="#sh0"/>
<use x="42.50" y="461.80" xlink:href="#sh0"/>
<use x="61.00" y="476.80" xlink:href="#hl"/>
<use x="61.00" y="479.80" xlink:href="#hd"/>
<path d="M64.50 479.80v-21.00" class="stroke"/>
<path class="fill"
	d="M64.50 458.80c0.6 5.6 9.6 9 5.6 18.4
	1.6 -6 -1.3 -11.6 -5.6 -12.8
"/>
<use x="78.60" y="452.80" xlink:href="#hd"/>
<path d="M75.10 452.80v21.00" class="stroke"/>
<path class="fill"
	d="M75.10 473.80c0.6 -5.6 9.6 -9 5.6 -18.4
	1.6 6 -1.3 11.6 -5.6 12.8
"/>
<use x="94.70" y="446.80" xlink:href="#hd"/>
<path d="M91.20 446.80v21.00" class="stroke"/>
<path class="fill"
	d="M91.20 467.80c0.6 -5.6 9.6 -9 5.6 -18.4
	1.6 6 -1.3 11.6 -5.6 12.8
"/>
<use x="110.90" y="440.80" xlink:href="#hl"/>
<use x="110.90" y="440.80" xlink:href="#hd"/>
<path d="M107.40 440.80v21.00" class="stroke"/>
<path class="fill"
	d="M107.40 461.80c0.6 -5.6 9.6 -9 5.6 -18.4
	1.6 6 -1.3 11.6 -5.6 12.8
"/>
<use x="127.40" y="440.80" xlink:href="#hl"/>
<use x="127.40" y="437.80" xlink:href="#hd"/>
<path d="M123.90 437.80v21.00" class="stroke"/>
<path class="fill"
	d="M123.90 458.80c0.6 -5.6 9.6 -9 5.6 -18.4
	1.6 6 -1.3 11.6 -5.6 12.8
"/>
<use x="143.80" y="440.80" xlink:href="#hl"/>
<use x="143.80" y="434.80" xlink:href="#hl"/>
<use x="143.80" y="431.80" xlink:href="#hd"/>
<path d="M140.30 431.80v27.00" class="stroke"/>
<path class="fill"
	d="M140.30 458.80c0.6 -5.6 9.6 -9 5.6 -18.4
	1.6 6 -1.3 11.6 -5.6 12.8
"/>
<use x="158.60" y="476.80" xlink:href="#hl"/>
<use x="158.60" y="479.80" xlink:href="#hd"/>
<path d="M162.10 479.80v-21.00" class="stroke"/>
<path class="fill"
	d="M162.10 458.80c0.6 5.6 9.6 9 5.6 18.4
	1.6 -6 -1.3 -11.6 -5.6 -12.8
"/>
<use x="176.10" y="452.80" xlink:href="#hd"/>
<path d="M172.60 452.80v21.00" class="stroke"/>
<path class="fill"
	d="M172.60 473.80c0.6 -5.6 9.6 -9 5.6 -18.4
	1.6 6 -1.3 11.6 -5.6 12.8
"/>
<use x="202.70" y="467.80" xlink:href="#hd"/>
<path d="M206.20 467.80v-21.00" class="stroke"/>
<path class="fill"
	d="M206.20 446.80c0.6 5.6 9.6 9 5.6 18.4
	1.6 -6 -1.3 -11.6 -5.6 -12.8
"/>
<use x="220.20" y="440.80" xlink:href="#hl"/>
<use x="220.20" y="440.80" xlink:href="#hd"/>
<path d="M216.70 440.80v21.00" class="stroke"/>
<path class="fill"
	d="M216.70 461.80c0.6 -5.6 9.6 -9 5.6 -18.4
	1.6 6 -1.3 11.6 -5.6 12.8
"/>
<use x="236.70" y="440.80" xlink:href="#hl"/>
<use x="236.70" y="434.80" xlink:href="#hl"/>
<use x="236.70" y="434.80" xlink:href="#hd"/>
<path d="M233.20 434.80v24.00" class="stroke"/>
<path class="fill"
	d="M233.20 458.80c0.6 -5.6 9.6 -9 5.6 -18.4
	1.6 6 -1.3 11.6 -5.6 12.8
"/>
<use x="253.20" y="440.80" xlink:href="#hl"/>
<use x="253.20" y="434.80" xlink:href="#hl"/>
<use x="253.20" y="428.80" xlink:href="#hl"/>
<use x="253.20" y="428.80" xlink:href="#hd"/>
<path d="M249.70 428.80v30.00" class="stroke"/>
<path class="fill"
	d="M249.70 458.80c0.6 -5.6 9.6 -9 5.6 -18.4
	1.6 6 -1.3 11.6 -5.6 12.8
"/>
<use x="269.60" y="440.80" xlink:href="#hl"/>
<use x="269.60" y="434.80" xlink:href="#hl"/>
<use x="269.60" y="428.80" xlink:href="#hl"/>
<use x="269.60" y="425.80" xlink:href="#hd"/>
<path d="M266.10 425.80v33.00" class="stroke"/>
<path class="fill"
	d="M266.10 458.80c0.6 -5.6 9.6 -9 5.6 -18.4
	1.6 6 -1.3 11.6 -5.6 12.8
"/>
<use x="286.10" y="440.80" xlink:href="#hl"/>
<use x="286.10" y="434.80" xlink:href="#hl"/>
<use x="286.10" y="428.80" xlink:href="#hl"/>
<use x="286.10" y="422.80" xlink:href="#hl"/>
<use x="286.10" y="419.80" xlink:href="#hd"/>
<path d="M282.60 419.80v39.00" class="stroke"/>
<path class="fill"
	d="M282.60 458.80c0.6 -5.6 9.6 -9 5.6 -18.4
	1.6 6 -1.3 11.6 -5.6 12.8
"/>
<use x="300.80" y="467.80" xlink:href="#hd"/>
<path d="M304.30 467.80v-21.00" class="stroke"/>
<path class="fill"
	d="M304.30 446.80c0.6 5.6 9.6 9 5.6 18.4
	1.6 -6 -1.3 -11.6 -5.6 -12.8
"/>
<use x="318.40" y="440.80" xlink:href="#hl"/>
<use x="318.40" y="440.80" xlink:href="#hd"/>
<path d="M314.90 440.80v21.00" class="stroke"/>
<path class="fill"
	d="M314.90 461.80c0.6 -5.6 9.6 -9 5.6 -18.4
	1.6 6 -1.3 11.6 -5.6 12.8
"/>
<use x="343.90" y="473.80" xlink:href="#hd"/>
<path d="M347.40 473.80v-21.00" class="stroke"/>
<path class="fill"
	d="M347.40 452.80c0.6 5.6 9.6 9 5.6 18.4
	1.6 -6 -1.3 -11.6 -5.6 -12.8
"/>
<use x="361.50" y="446.80" xlink:href="#hd"/>
<path d="M358.00 446.80v21.00" class="stroke"/>
<path class="fill"
	d="M358.00 467.80c0.6 -5.6 9.6 -9 5.6 -18.4
	1.6 6 -1.3 11.6 -5.6 12.8
"/>
<use x="377.60" y="440.80" xlink:href="#hl"/>
<use x="377.60" y="440.80" xlink:href="#hd"/>
<path d="M374.10 440.80v21.00" class="stroke"/>
<path class="fill"
	d="M374.10 461.80c0.6 -5.6 9.6 -9 5.6 -18.4
	1.6 6 -1.3 11.6 -5.6 12.8
"/>
<use x="394.10" y="440.80" xlink:href="#hl"/>
<use x="394.10" y="434.80" xlink:href="#hl"/>
<use x="394.10" y="434.80" xlink:href="#hd"/>
<path d="M390.60 434.80v24.00" class="stroke"/>
<path class="fill"
	d="M390.60 458.80c0.6 -5.6 9.6 -9 5.6 -18.4
	1.6 6 -1.3 11.6 -5.6 12.8
"/>
<use x="410.60" y="440.80" xlink:href="#hl"/>
<use x="410.60" y="434.80" xlink:href="#hl"/>
<use x="410.60" y="431.80" xlink:href="#hd"/>
<path d="M407.10 431.80v27.00" class="stroke"/>
<path class="fill"
	d="M407.10 458.80c0.6 -5.6 9.6 -9 5.6 -18.4
	1.6 6 -1.3 11.6 -5.6 12.8
"/>
<use x="427.00" y="440.80" xlink:href="#hl"/>
<use x="427.00" y="434.80" xlink:href="#hl"/>
<use x="427.00" y="428.80" xlink:href="#hl"/>
<use x="427.00" y="425.80" xlink:href="#hd"/>
<path d="M423.50 425.80v33.00" class="stroke"/>
<path class="fill"
	d="M423.50 458.80c0.6 -5.6 9.6 -9 5.6 -18.4
	1.6 6 -1.3 11.6 -5.6 12.8
"/>
<use x="441.80" y="473.80" xlink:href="#hd"/>
<path d="M445.30 473.80v-21.00" class="stroke"/>
<path class="fill"
	d="M445.30 452.80c0.6 5.6 9.6 9 5.6 18.4
	1.6 -6 -1.3 -11.6 -5.6 -12.8
"/>
<use x="459.30" y="446.80" xlink:href="#hd"/>
<path d="M455.80 446.80v21.00" class="stroke"/>
<path class="fill"
	d="M455.80 467.80c0.6 -5.6 9.6 -9 5.6 -18.4
	1.6 6 -1.3 11.6 -5.6 12.8
"/>
<use x="497.90" y="476.80" xlink:href="#hl1"/>
<use x="497.90" y="476.80" xlink:href="#HD"/>
<use x="497.90" y="470.80" xlink:href="#HD"/>
<use x="497.90" y="464.80" xlink:href="#HD"/>
<use x="497.90" y="458.80" xlink:href="#HD"/>
<use x="563.30" y="476.80" xlink:href="#hl"/>
<use x="563.30" y="482.80" xlink:href="#hl"/>
<use x="563.30" y="488.80" xlink:href="#hl"/>
<use x="563.30" y="488.80" xlink:href="#hd"/>
<path d="M566.80 488.80v-40.00" class="stroke"/>
<path class="fill"
	d="M566.80 448.80c0.6 5.6 9.6 9 5.6 18.4
	1.6 -6 -1.3 -11.6 -5.6 -12.8
"/>
<use x="563.30" y="467.80" xlink:href="#hd"/>
<use x="580.90" y="440.80" xlink:href="#hl"/>
<use x="580.90" y="440.80" xlink:href="#hd"/>
<path d="M577.40 440.80v21.00" class="stroke"/>
<path class="fill"
	d="M577.40 461.80c0.6 -5.6 9.6 -9 5.6 -18.4
	1.6 6 -1.3 11.6 -5.6 12.8
"/>
<use x="597.40" y="440.80" xlink:href="#hl"/>
<use x="597.40" y="434.80" xlink:href="#hl"/>
<use x="597.40" y="434.80" xlink:href="#hd"/>
<path d="M593.90 434.80v24.00" class="stroke"/>
<path class="fill"
	d="M593.90 458.80c0.6 -5.6 9.6 -9 5.6 -18.4
	1.6 6 -1.3 11.6 -5.6 12.8
"/>
<use x="613.80" y="440.80" xlink:href="#hl"/>
<use x="613.80" y="434.80" xlink:href="#hl"/>
<use x="613.80" y="428.80" xlink:href="#hl"/>
<use x="613.80" y="428.80" xlink:href="#hd"/>
<path d="M610.30 428.80v30.00" class="stroke"/>
<path class="fill"
	d="M610.30 458.80c0.6 -5.6 9.6 -9 5.6 -18.4
	1.6 6 -1.3 11.6 -5.6 12.8
"/>
<use x="630.30" y="440.80" xlink:href="#hl"/>
<use x="630.30" y="434.80" xlink:href="#hl"/>
<use x="630.30" y="428.80" xlink:href="#hl"/>
<use x="630.30" y="425.80" xlink:href="#hd"/>
<path d="M626.80 425.80v33.00" class="stroke"/>
<path class="fill"
	d="M626.80 458.80c0.6 -5.6 9.6 -9 5.6 -18.4
	1.6 6 -1.3 11.6 -5.6 12.8
"/>
<use x="646.80" y="440.80" xlink:href="#hl"/>
<use x="646.80" y="434.80" xlink:href="#hl"/>
<use x="646.80" y="428.80" xlink:href="#hl"/>
<use x="646.80" y="422.80" xlink:href="#hl"/>
<use x="646.80" y="419.80" xlink:href="#hd"/>
<path d="M643.30 419.80v39.00" class="stroke"/>
<path class="fill"
	d="M643.30 458.80c0.6 -5.6 9.6 -9 5.6 -18.4
	1.6 6 -1.3 11.6 -5.6 12.8
"/>
<use x="661.50" y="467.80" xlink:href="#hd"/>
<path d="M665.00 467.80v-21.00" class="stroke"/>
<path class="fill"
	d="M665.00 446.80c0.6 5.6 9.6 9 5.6 18.4
	1.6 -6 -1.3 -11.6 -5.6 -12.8
"/>
<use x="679.10" y="440.80" xlink:href="#hl"/>
<use x="679.10" y="440.80" xlink:href="#hd"/>
<path d="M675.60 440.80v21.00" class="stroke"/>
<path class="fill"
	d="M675.60 461.80c0.6 -5.6 9.6 -9 5.6 -18.4
	1.6 6 -1.3 11.6 -5.6 12.8
"/>
<g transform="rotate(270)">
<use x="-479.80" y="484.40" xlink:href="#ltr"/>
<use x="-473.80" y="484.40" xlink:href="#ltr"/>
<use x="-467.80" y="484.40" xlink:href="#ltr"/>
<use x="-461.80" y="484.40" xlink:href="#ltr"/>
</g>
<text x="555.50" y="378.80" style="font:bold italic 30px serif">,</text>
</g>
<g stroke-width="0.70" style="font:italic 11.00px Times">
<path class="stroke" stroke-width="1"
	d="M10.00 609.20v-82.00"/>
<g transform="translate(10.00,527.20) scale(1,0.82)">
	<use xlink:href="#brace"/>
</g>
<path class="stroke" stroke-width="1"
	d="M260.40 551.20v-24.00"/>
<path class="stroke" stroke-width="1"
	d="M260.40 609.20v-24.00"/>
<path class="stroke" stroke-width="1"
	d="M546.10 551.20v-24.00"/>
<path class="stroke" stroke-width="1"
	d="M546.10 609.20v-24.00"/>
<path class="stroke" stroke-width="1"
	d="M691.60 551.20v-24.00"/>
<path class="stroke" stroke-width="1"
	d="M691.60 609.20v-24.00"/>
<path d="m10.00 551.20
	h681.60
	M10.00 545.20
	h681.60
	M10.00 539.20
	h681.60
	M10.00 533.20
	h681.60
	M10.00 527.20
	h681.60
	" class="stroke"/>
<path d="m10.00 609.20
	h681.60
	M10.00 603.20
	h681.60
	M10.00 597.20
	h681.60
	M10.00 591.20
	h681.60
	M10.00 585.20
	h681.60
	" class="stroke"/>
</g>
<g stroke-width="0.70" style="font:bold 13.00px Times">
<text x="68.30" y="512.60">I<tspan
	 style="font:italic 11.00px Times">Δ⁷¹</tspan></text>
</g>
<g stroke-width="0.70" style="font:bold 13.00px Times">
<text x="272.40" y="520.60">I<tspan
	 style="font:italic 11.00px Times">Δ⁷</tspan></text>
</g>
<g stroke-width="0.70" style="font:bold 13.00px Times">
<text x="566.00" y="504.60">I<tspan
	 style="font:italic 11.00px Times">Δ⁷</tspan></text>
</g>
<g stroke-width="0.70" style="font:italic 11.00px Times">
<use x="22.00" y="545.20" xlink:href="#tclef"/>
<use x="37.00" y="527.20" xlink:href="#sh0"/>
<use x="42.50" y="536.20" xlink:href="#sh0"/>
<use x="76.00" y="521.20" xlink:href="#hl"/>
<use x="76.00" y="521.20" xlink:href="#hd"/>
<path d="M72.50 521.20v40.00" class="stroke"/>
<use x="76.00" y="542.20" xlink:href="#hd"/>
<use x="125.90" y="521.20" xlink:href="#hl"/>
<use x="125.90" y="518.20" xlink:href="#hd"/>
<path d="M122.40 518.20v40.00" class="stroke"/>
<use x="125.90" y="539.20" xlink:href="#hd"/>
<use x="175.70" y="521.20" xlink:href="#hl"/>
<use x="175.70" y="521.20" xlink:href="#hd"/>
<path d="M172.20 521.20v40.00" class="stroke"/>
<use x="175.70" y="542.20" xlink:href="#hd"/>
<use x="225.60" y="524.20" xlink:href="#hd"/>
<path d="M222.10 524.20v40.00" class="stroke"/>
<use x="225.60" y="545.20" xlink:href="#hd"/>
<use x="278.10" y="548.20" xlink:href="#hd"/>
<path d="M281.60 548.20v-21.00" class="stroke"/>
<use x="348.60" y="554.20" xlink:href="#hd"/>
<path d="M352.10 554.20v-21.00" class="stroke"/>
<use x="419.20" y="551.20" xlink:href="#hd"/>
<path d="M422.70 551.20v-21.00" class="stroke"/>
<use x="486.20" y="548.20" xlink:href="#hd"/>
<path d="M489.70 548.20v-21.00" class="stroke"/>
<path class="fill"
	d="M489.70 527.20c0.6 5.6 9.6 9 5.6 18.4
	1.6 -6 -1.3 -11.6 -5.6 -12.8
"/>
<use x="521.40" y="545.20" xlink:href="#hd"/>
<path d="M524.90 545.20v-21.00" class="stroke"/>
<path class="fill"
	d="M524.90 524.20c0.6 5.6 9.6 9 5.6 18.4
	1.6 -6 -1.3 -11.6 -5.6 -12.8
"/>
<use x="571.70" y="551.20" xlink:href="#Hd"/>
<path d="M575.20 551.20v-40.00" class="stroke"/>
<use x="571.70" y="530.20" xlink:href="#Hd"/>
<use x="642.20" y="554.20" xlink:href="#Hd"/>
<path d="M645.70 554.20v-40.00" class="stroke"/>
<use x="642.20" y="533.20" xlink:href="#Hd"/>
<use x="22.00" y="591.20" xlink:href="#bclef"/>
<use x="37.00" y="591.20" xlink:href="#sh0"/>
<use x="42.50" y="600.20" xlink:href="#sh0"/>
<use x="77.00" y="615.20" xlink:href="#hl1"/>
<use x="77.00" y="618.20" xlink:href="#HD"/>
<use x="77.00" y="612.20" xlink:href="#HD"/>
<use x="77.00" y="606.20" xlink:href="#HD"/>
<use x="77.00" y="600.20" xlink:href="#HD"/>
<use x="278.10" y="615.20" xlink:href="#hl"/>
<use x="278.10" y="621.20" xlink:href="#hl"/>
<use x="278.10" y="627.20" xlink:href="#hl"/>
<use x="278.10" y="633.20" xlink:href="#hl"/>
<use x="278.10" y="639.20" xlink:href="#hl"/>
<use x="278.10" y="639.20" xlink:href="#hd"/>
<path d="M281.60 639.20v-42.00" class="stroke"/>
<path class="fill"
	d="M281.60 597.20c0.6 5.6 9.6 9 5.6 18.4
	1.6 -6 -1.3 -11.6 -5.6 -12.8
"/>
<use x="278.10" y="618.20" xlink:href="#hd"/>
<use x="313.40" y="591.20" xlink:href="#hd"/>
<path d="M309.90 591.20v21.00" class="stroke"/>
<path class="fill"
	d="M309.90 612.20c0.6 -5.6 9.6 -9 5.6 -18.4
	1.6 6 -1.3 11.6 -5.6 12.8
"/>
<use x="348.60" y="585.20" xlink:href="#hd"/>
<path d="M345.10 585.20v21.00" class="stroke"/>
<path class="fill"
	d="M345.10 606.20c0.6 -5.6 9.6 -9 5.6 -18.4
	1.6 6 -1.3 11.6 -5.6 12.8
"/>
<use x="383.90" y="579.20" xlink:href="#hl"/>
<use x="383.90" y="579.20" xlink:href="#hd"/>
<path d="M380.40 579.20v21.00" class="stroke"/>
<path class="fill"
	d="M380.40 600.20c0.6 -5.6 9.6 -9 5.6 -18.4
	1.6 6 -1.3 11.6 -5.6 12.8
"/>
<use x="419.20" y="579.20" xlink:href="#hl"/>
<use x="419.20" y="576.20" xlink:href="#hd"/>
<path d="M415.70 576.20v21.00" class="stroke"/>
<path class="fill"
	d="M415.70 597.20c0.6 -5.6 9.6 -9 5.6 -18.4
	1.6 6 -1.3 11.6 -5.6 12.8
"/>
<use x="454.40" y="579.20" xlink:href="#hl"/>
<use x="454.40" y="573.20" xlink:href="#hl"/>
<use x="454.40" y="570.20" xlink:href="#hd"/>
<path d="M450.90 570.20v27.00" class="stroke"/>
<path class="fill"
	d="M450.90 597.20c0.6 -5.6 9.6 -9 5.6 -18.4
	1.6 6 -1.3 11.6 -5.6 12.8
"/>
<use x="486.20" y="615.20" xlink:href="#hl"/>
<use x="486.20" y="618.20" xlink:href="#hd"/>
<path d="M489.70 618.20v-21.00" class="stroke"/>
<path class="fill"
	d="M489.70 597.20c0.6 5.6 9.6 9 5.6 18.4
	1.6 -6 -1.3 -11.6 -5.6 -12.8
"/>
<use x="521.40" y="591.20" xlink:href="#hd"/>
<path d="M517.90 591.20v21.00" class="stroke"/>
<path class="fill"
	d="M517.90 612.20c0.6 -5.6 9.6 -9 5.6 -18.4
	1.6 6 -1.3 11.6 -5.6 12.8
"/>
<use x="572.70" y="615.20" xlink:href="#hl1"/>
<use x="572.70" y="621.20" xlink:href="#hl1"/>
<use x="572.70" y="627.20" xlink:href="#hl1"/>
<use x="572.70" y="633.20" xlink:href="#hl1"/>
<use x="572.70" y="639.20" xlink:href="#hl1"/>
<use x="572.70" y="639.20" xlink:href="#HD"/>
<use x="572.70" y="618.20" xlink:href="#HD"/>
<use x="572.70" y="612.20" xlink:href="#HD"/>
<use x="572.70" y="606.20" xlink:href="#HD"/>
<use x="572.70" y="600.20" xlink:href="#HD"/>
<g transform="rotate(270)">
<use x="-621.20" y="63.50" xlink:href="#ltr"/>
<use x="-615.20" y="63.50" xlink:href="#ltr"/>
<use x="-609.20" y="63.50" xlink:href="#ltr"/>
<use x="-603.20" y="63.50" xlink:href="#ltr"/>
</g>
<text x="267.50" y="518.20" style="font:bold italic 30px serif">,</text>
<defs>
<g id="hld" class="fill">
	<circle cx="0" cy="-3" r="1.3"/>
	<path d="m-7.5 -1.5
		c0 -11.5 15 -11.5 15 0
		h-0.25
		c-1.25 -9 -13.25 -9 -14.5 0"/>
</g>
</defs>
<use x="571.70" y="583.20" xlink:href="#hld"/>
<g transform="rotate(270)">
<use x="-642.20" y="559.20" xlink:href="#ltr"/>
<use x="-636.20" y="559.20" xlink:href="#ltr"/>
<use x="-630.20" y="559.20" xlink:href="#ltr"/>
<use x="-624.20" y="559.20" xlink:href="#ltr"/>
<use x="-618.20" y="559.20" xlink:href="#ltr"/>
<use x="-612.20" y="559.20" xlink:href="#ltr"/>
<use x="-606.20" y="559.20" xlink:href="#ltr"/>
<use x="-600.20" y="559.20" xlink:href="#ltr"/>
</g>
<use x="642.20" y="510.20" xlink:href="#hld"/>
<g transform="rotate(270)">
<use x="-557.20" y="632.20" xlink:href="#ltr"/>
<use x="-551.20" y="632.20" xlink:href="#ltr"/>
<use x="-545.20" y="632.20" xlink:href="#ltr"/>
<use x="-539.20" y="632.20" xlink:href="#ltr"/>
<use x="-533.20" y="632.20" xlink:href="#ltr"/>
</g>
</g>
</svg>
