<?xml version="1.0" standalone="no"?>
<!DOCTYPE svg PUBLIC "-//W3C//DTD SVG 1.1//EN"
	"http://www.w3.org/Graphics/SVG/1.1/DTD/svg11.dtd">
<svg xmlns="http://www.w3.org/2000/svg" version="1.1"
	xmlns:xlink="http://www.w3.org/1999/xlink"
	color="black"
	width="701.60px" height="504.80px" viewBox="0 0 701.60 504.80" preserveAspectRatio="xMidYMid meet">
<style type="text/css">
.fill {fill: currentColor}
.stroke {stroke: currentColor; fill: none}
text{white-space: pre}
</style>
<title>/tmp/boddie_hymnal_stage/from_nazareth.abc (1) tune 1</title>
<!-- Creator: abcm2ps-8.14.11 -->
<!-- CreationDate: Apr 30, 2026 12:59 -->
<!-- CommandLine: /tmp/boddie_hymnal_stage/from_nazareth.abc -g -O /tmp/boddie_hymnal_stage/from_nazareth -->
<g stroke-width="0.70">
<!-- title: 069. From Nazareth -->
</g>
<g stroke-width="0.70" style="font:20.00px Times">
<text x="350.80" y="22.00" text-anchor="middle">069. From Nazareth</text>
</g>
<g stroke-width="0.70" transform="scale(0.700)" style="font:20.00px Times">
<defs>
<ellipse id="hd" rx="4.1" ry="2.9"
	transform="rotate(-20)" class="fill"/>
</defs>
<use x="110.14" y="75.57" xlink:href="#hd"/>
<path d="M113.64 75.57v-21.00" class="stroke"/>
</g>
<g stroke-width="0.70" style="font:bold 15.00px Times">
<text x="84.80" y="55.00">= 72Slowly, with great expression</text>
<path class="stroke" stroke-width="1"
	d="M10.00 179.40v-88.00"/>
<defs>
<path id="brace" class="fill" d="m-2.5 101
	c-4.5 -4.6 -7.5 -12.2 -4.4 -26.8
	3.5 -14.3 3.2 -21.7 -2.1 -24.2
	7.4 2.4 7.3 14.2 3.5 29.5
	-2.7 9.5 -1.5 16.2 3 21.5
	M-2.5 1c-4.5 4.6 -7.5 12.2 -4.4 26.8
	c3.5 14.3 3.2 21.7 -2.1 24.2
	7.4 -2.4 7.3 -14.2 3.5 -29.5
	-2.7 -9.5 -1.5 -16.2 3 -21.5"/>
</defs>
<g transform="translate(10.00,91.40) scale(1,0.88)">
	<use xlink:href="#brace"/>
</g>
<path class="stroke" stroke-width="1"
	d="M183.20 115.40v-24.00"/>
<path class="stroke" stroke-width="1"
	d="M183.20 179.40v-24.00"/>
<path class="stroke" stroke-width="1"
	d="M258.40 115.40v-24.00"/>
<path class="stroke" stroke-width="1"
	d="M258.40 179.40v-24.00"/>
<path class="stroke" stroke-width="1"
	d="M378.10 115.40v-24.00"/>
<path class="stroke" stroke-width="1"
	d="M378.10 179.40v-24.00"/>
<path class="stroke" stroke-width="1"
	d="M453.00 115.40v-24.00"/>
<path class="stroke" stroke-width="1"
	d="M453.00 179.40v-24.00"/>
<path class="stroke" stroke-width="1"
	d="M572.40 115.40v-24.00"/>
<path class="stroke" stroke-width="1"
	d="M572.40 179.40v-24.00"/>
<path class="stroke" stroke-width="1"
	d="M691.60 115.40v-24.00"/>
<path class="stroke" stroke-width="1"
	d="M691.60 179.40v-24.00"/>
<path d="m10.00 115.40
	h681.60
	M10.00 109.40
	h681.60
	M10.00 103.40
	h681.60
	M10.00 97.40
	h681.60
	M10.00 91.40
	h681.60
	" class="stroke"/>
<path d="m10.00 179.40
	h681.60
	M10.00 173.40
	h681.60
	M10.00 167.40
	h681.60
	M10.00 161.40
	h681.60
	M10.00 155.40
	h681.60
	" class="stroke"/>
</g>
<g stroke-width="0.70" style="font:bold 13.00px Times">
<text x="70.80" y="86.80">I<tspan
	 style="font:italic 11.00px Times">Δ⁷</tspan></text>
</g>
<g stroke-width="0.70" style="font:bold 13.00px Times">
<text x="201.30" y="68.80">V<tspan
	 style="font:italic 11.00px Times">⁷</tspan></text>
</g>
<g stroke-width="0.70" style="font:bold 13.00px Times">
<text x="262.90" y="81.80">vi<tspan
	 style="font:italic 11.00px Times">m⁷</tspan></text>
</g>
<g stroke-width="0.70" style="font:bold 13.00px Times">
<text x="396.20" y="68.80">V<tspan
	 style="font:italic 11.00px Times">⁷</tspan></text>
</g>
<g stroke-width="0.70" style="font:bold 13.00px Times">
<text x="457.50" y="86.80">IV<tspan
	 style="font:italic 11.00px Times">Δ⁷</tspan></text>
</g>
<g stroke-width="0.70" style="font:bold 13.00px Times">
<text x="579.20" y="78.80">I<tspan
	 style="font:italic 11.00px Times">Δ⁷</tspan></text>
</g>
<g stroke-width="0.70" style="font:italic 11.00px Times">
<defs>
<path id="utclef" class="fill" d="m-50 -90
	c-72 -41 -72 -158 52 -188
	150 -10 220 188 90 256
	-114 52 -275 0 -293 -136
	-15 -181 93 -229 220 -334
	88 -87 79 -133 62 -210
	-51 33 -94 105 -89 186
	17 267 36 374 49 574
	6 96 -19 134 -77 135
	-80 1 -126 -93 -61 -133
	85 -41 133 101 31 105
	23 17 92 37 90 -92
	-10 -223 -39 -342 -50 -617
	0 -90 0 -162 96 -232
	56 72 63 230 22 289
	-74 106 -257 168 -255 316
	9 153 148 185 252 133
	86 -65 29 -192 -80 -176
	-71 12 -105 67 -59 124"/>
<use id="tclef" transform="translate(0,6) scale(0.045)"
	xlink:href="#utclef"/>
</defs>
<use x="22.00" y="109.40" xlink:href="#tclef"/>
<defs>
<path id="usharp" class="fill" d="
	m136 -702
	v890
	h32
	v-890
	m128 840
	h32
	v-888
	h-32
	m-232 286
	v116
	l338 -96
	v-116
	m-338 442
	v116
	l338 -98
	v-114"/>
<use id="sh0" transform="translate(-4,5) scale(0.018)"
	xlink:href="#usharp"/>
</defs>
<use x="37.00" y="91.40" xlink:href="#sh0"/>
<use x="42.50" y="100.40" xlink:href="#sh0"/>
<g style="font:bold 16px serif"
	transform="translate(58.50,114.90) scale(1.2,1)">
	<text text-anchor="middle">4</text>
	<text y="-12" text-anchor="middle">3</text>
</g>
<use x="76.50" y="118.40" xlink:href="#hd"/>
<path d="M80.00 118.40v-21.00" class="stroke"/>
<defs>
<path id="Hd" class="fill" d="m3 -1.6
	c-1 -1.8 -7 1.4 -6 3.2
	1 1.8 7 -1.4 6 -3.2
	m0.5 -0.3
	c2 3.8 -5 7.6 -7 3.8
	-2 -3.8 5 -7.6 7 -3.8"/>
</defs>
<use x="114.20" y="118.40" xlink:href="#Hd"/>
<path d="M117.70 118.40v-21.00" class="stroke"/>
<use x="207.20" y="115.40" xlink:href="#hd"/>
<path d="M210.70 115.40v-40.00" class="stroke"/>
<use x="207.20" y="94.40" xlink:href="#hd"/>
<use x="232.80" y="91.40" xlink:href="#Hd"/>
<path d="M229.30 91.40v40.00" class="stroke"/>
<use x="232.80" y="112.40" xlink:href="#Hd"/>
<use x="270.90" y="109.40" xlink:href="#hd"/>
<path d="M274.40 109.40v-21.00" class="stroke"/>
<use x="308.80" y="112.40" xlink:href="#Hd"/>
<path d="M312.30 112.40v-21.00" class="stroke"/>
<use x="402.10" y="115.40" xlink:href="#hd"/>
<path d="M405.60 115.40v-40.00" class="stroke"/>
<use x="402.10" y="94.40" xlink:href="#hd"/>
<use x="427.40" y="118.40" xlink:href="#Hd"/>
<path d="M430.90 118.40v-40.00" class="stroke"/>
<use x="427.40" y="97.40" xlink:href="#Hd"/>
<use x="465.50" y="118.40" xlink:href="#hd"/>
<path d="M469.00 118.40v-21.00" class="stroke"/>
<use x="503.10" y="106.40" xlink:href="#Hd"/>
<path d="M506.60 106.40v-21.00" class="stroke"/>
<use x="584.90" y="106.40" xlink:href="#hd"/>
<path d="M588.40 106.40v-21.00" class="stroke"/>
<use x="622.60" y="106.40" xlink:href="#hd"/>
<path d="M626.10 106.40v-21.00" class="stroke"/>
<use x="659.30" y="103.40" xlink:href="#hd"/>
<path d="M662.80 103.40v-21.00" class="stroke"/>
<defs>
<path id="ubclef" class="fill" d="m-200 -87
	c124 -35 222 -78 254 -236
	43 -228 -167 -246 -192 -103
	59 -80 157 22 92 78
	-62 47 -115 -22 -106 -88
	21 -141 270 -136 274 52
	-1 175 -106 264 -322 297
	m357 -250
	c0 -36 51 -34 51 0
	0 37 -51 36 -51 0
	m-2 -129
	c0 -36 51 -34 51 0
	0 38 -51 37 -51 0"/>
<use id="bclef" transform="translate(0,18) scale(0.045)"
	xlink:href="#ubclef"/>
</defs>
<use x="22.00" y="161.40" xlink:href="#bclef"/>
<use x="37.00" y="161.40" xlink:href="#sh0"/>
<use x="42.50" y="170.40" xlink:href="#sh0"/>
<g style="font:bold 16px serif"
	transform="translate(58.50,178.90) scale(1.2,1)">
	<text text-anchor="middle">4</text>
	<text y="-12" text-anchor="middle">3</text>
</g>
<defs>
<path id="hl" class="stroke" d="m-6 0h12"/>
</defs>
<use x="76.50" y="185.40" xlink:href="#hl"/>
<use x="76.50" y="191.40" xlink:href="#hl"/>
<use x="76.50" y="197.40" xlink:href="#hl"/>
<use x="76.50" y="203.40" xlink:href="#hl"/>
<use x="76.50" y="209.40" xlink:href="#hl"/>
<use x="76.50" y="209.40" xlink:href="#hd"/>
<path d="M80.00 209.40v-42.00" class="stroke"/>
<path class="fill"
	d="M80.00 167.40c0.6 5.6 9.6 9 5.6 18.4
	1.6 -6 -1.3 -11.6 -5.6 -12.8
"/>
<use x="76.50" y="188.40" xlink:href="#hd"/>
<use x="95.90" y="161.40" xlink:href="#hd"/>
<path d="M92.40 161.40v21.00" class="stroke"/>
<path class="fill"
	d="M92.40 182.40c0.6 -5.6 9.6 -9 5.6 -18.4
	1.6 6 -1.3 11.6 -5.6 12.8
"/>
<use x="114.20" y="155.40" xlink:href="#hd"/>
<path d="M110.70 155.40v21.00" class="stroke"/>
<path class="fill"
	d="M110.70 176.40c0.6 -5.6 9.6 -9 5.6 -18.4
	1.6 6 -1.3 11.6 -5.6 12.8
"/>
<use x="132.40" y="149.40" xlink:href="#hl"/>
<use x="132.40" y="149.40" xlink:href="#hd"/>
<path d="M128.90 149.40v21.00" class="stroke"/>
<path class="fill"
	d="M128.90 170.40c0.6 -5.6 9.6 -9 5.6 -18.4
	1.6 6 -1.3 11.6 -5.6 12.8
"/>
<use x="150.90" y="149.40" xlink:href="#hl"/>
<use x="150.90" y="146.40" xlink:href="#hd"/>
<path d="M147.40 146.40v21.00" class="stroke"/>
<path class="fill"
	d="M147.40 167.40c0.6 -5.6 9.6 -9 5.6 -18.4
	1.6 6 -1.3 11.6 -5.6 12.8
"/>
<use x="169.40" y="149.40" xlink:href="#hl"/>
<use x="169.40" y="143.40" xlink:href="#hl"/>
<use x="169.40" y="140.40" xlink:href="#hd"/>
<path d="M165.90 140.40v27.00" class="stroke"/>
<path class="fill"
	d="M165.90 167.40c0.6 -5.6 9.6 -9 5.6 -18.4
	1.6 6 -1.3 11.6 -5.6 12.8
"/>
<use x="207.20" y="158.40" xlink:href="#Hd"/>
<circle class="fill" cx="215.90" cy="158.40" r="1.2"/>
<path d="M203.70 158.40v37.00" class="stroke"/>
<use x="207.20" y="176.40" xlink:href="#Hd"/>
<circle class="fill" cx="215.90" cy="176.40" r="1.2"/>
<use x="207.20" y="170.40" xlink:href="#Hd"/>
<circle class="fill" cx="215.90" cy="170.40" r="1.2"/>
<use x="207.20" y="164.40" xlink:href="#Hd"/>
<circle class="fill" cx="215.90" cy="164.40" r="1.2"/>
<use x="270.90" y="185.40" xlink:href="#hl"/>
<use x="270.90" y="191.40" xlink:href="#hl"/>
<use x="270.90" y="194.40" xlink:href="#hd"/>
<path d="M274.40 194.40v-40.00" class="stroke"/>
<path class="fill"
	d="M274.40 154.40c0.6 5.6 9.6 9 5.6 18.4
	1.6 -6 -1.3 -11.6 -5.6 -12.8
"/>
<use x="270.90" y="173.40" xlink:href="#hd"/>
<use x="290.30" y="149.40" xlink:href="#hl"/>
<use x="290.30" y="146.40" xlink:href="#hd"/>
<path d="M286.80 146.40v21.00" class="stroke"/>
<path class="fill"
	d="M286.80 167.40c0.6 -5.6 9.6 -9 5.6 -18.4
	1.6 6 -1.3 11.6 -5.6 12.8
"/>
<use x="308.80" y="149.40" xlink:href="#hl"/>
<use x="308.80" y="143.40" xlink:href="#hl"/>
<use x="308.80" y="140.40" xlink:href="#hd"/>
<path d="M305.30 140.40v27.00" class="stroke"/>
<path class="fill"
	d="M305.30 167.40c0.6 -5.6 9.6 -9 5.6 -18.4
	1.6 6 -1.3 11.6 -5.6 12.8
"/>
<use x="327.30" y="149.40" xlink:href="#hl"/>
<use x="327.30" y="143.40" xlink:href="#hl"/>
<use x="327.30" y="137.40" xlink:href="#hl"/>
<use x="327.30" y="134.40" xlink:href="#hd"/>
<path d="M323.80 134.40v33.00" class="stroke"/>
<path class="fill"
	d="M323.80 167.40c0.6 -5.6 9.6 -9 5.6 -18.4
	1.6 6 -1.3 11.6 -5.6 12.8
"/>
<use x="345.80" y="149.40" xlink:href="#hl"/>
<use x="345.80" y="143.40" xlink:href="#hl"/>
<use x="345.80" y="137.40" xlink:href="#hl"/>
<use x="345.80" y="131.40" xlink:href="#hl"/>
<use x="345.80" y="131.40" xlink:href="#hd"/>
<path d="M342.30 131.40v36.00" class="stroke"/>
<path class="fill"
	d="M342.30 167.40c0.6 -5.6 9.6 -9 5.6 -18.4
	1.6 6 -1.3 11.6 -5.6 12.8
"/>
<use x="364.30" y="149.40" xlink:href="#hl"/>
<use x="364.30" y="143.40" xlink:href="#hl"/>
<use x="364.30" y="137.40" xlink:href="#hl"/>
<use x="364.30" y="131.40" xlink:href="#hl"/>
<use x="364.30" y="125.40" xlink:href="#hl"/>
<use x="364.30" y="125.40" xlink:href="#hd"/>
<path d="M360.80 125.40v42.00" class="stroke"/>
<path class="fill"
	d="M360.80 167.40c0.6 -5.6 9.6 -9 5.6 -18.4
	1.6 6 -1.3 11.6 -5.6 12.8
"/>
<use x="402.10" y="158.40" xlink:href="#Hd"/>
<circle class="fill" cx="410.80" cy="158.40" r="1.2"/>
<path d="M398.60 158.40v37.00" class="stroke"/>
<use x="402.10" y="176.40" xlink:href="#Hd"/>
<circle class="fill" cx="410.80" cy="176.40" r="1.2"/>
<use x="402.10" y="170.40" xlink:href="#Hd"/>
<circle class="fill" cx="410.80" cy="170.40" r="1.2"/>
<use x="402.10" y="164.40" xlink:href="#Hd"/>
<circle class="fill" cx="410.80" cy="164.40" r="1.2"/>
<use x="465.50" y="185.40" xlink:href="#hl"/>
<use x="465.50" y="191.40" xlink:href="#hl"/>
<use x="465.50" y="197.40" xlink:href="#hl"/>
<use x="465.50" y="200.40" xlink:href="#hd"/>
<path d="M469.00 200.40v-40.00" class="stroke"/>
<path class="fill"
	d="M469.00 160.40c0.6 5.6 9.6 9 5.6 18.4
	1.6 -6 -1.3 -11.6 -5.6 -12.8
"/>
<use x="465.50" y="179.40" xlink:href="#hd"/>
<use x="484.90" y="152.40" xlink:href="#hd"/>
<path d="M481.40 152.40v21.00" class="stroke"/>
<path class="fill"
	d="M481.40 173.40c0.6 -5.6 9.6 -9 5.6 -18.4
	1.6 6 -1.3 11.6 -5.6 12.8
"/>
<use x="503.10" y="149.40" xlink:href="#hl"/>
<use x="503.10" y="146.40" xlink:href="#hd"/>
<path d="M499.60 146.40v21.00" class="stroke"/>
<path class="fill"
	d="M499.60 167.40c0.6 -5.6 9.6 -9 5.6 -18.4
	1.6 6 -1.3 11.6 -5.6 12.8
"/>
<use x="521.60" y="149.40" xlink:href="#hl"/>
<use x="521.60" y="143.40" xlink:href="#hl"/>
<use x="521.60" y="140.40" xlink:href="#hd"/>
<path d="M518.10 140.40v27.00" class="stroke"/>
<path class="fill"
	d="M518.10 167.40c0.6 -5.6 9.6 -9 5.6 -18.4
	1.6 6 -1.3 11.6 -5.6 12.8
"/>
<use x="540.10" y="149.40" xlink:href="#hl"/>
<use x="540.10" y="143.40" xlink:href="#hl"/>
<use x="540.10" y="137.40" xlink:href="#hl"/>
<use x="540.10" y="137.40" xlink:href="#hd"/>
<path d="M536.60 137.40v30.00" class="stroke"/>
<path class="fill"
	d="M536.60 167.40c0.6 -5.6 9.6 -9 5.6 -18.4
	1.6 6 -1.3 11.6 -5.6 12.8
"/>
<use x="558.60" y="149.40" xlink:href="#hl"/>
<use x="558.60" y="143.40" xlink:href="#hl"/>
<use x="558.60" y="137.40" xlink:href="#hl"/>
<use x="558.60" y="131.40" xlink:href="#hl"/>
<use x="558.60" y="131.40" xlink:href="#hd"/>
<path d="M555.10 131.40v36.00" class="stroke"/>
<path class="fill"
	d="M555.10 167.40c0.6 -5.6 9.6 -9 5.6 -18.4
	1.6 6 -1.3 11.6 -5.6 12.8
"/>
<use x="584.90" y="185.40" xlink:href="#hl"/>
<use x="584.90" y="188.40" xlink:href="#hd"/>
<path d="M588.40 188.40v-21.00" class="stroke"/>
<path class="fill"
	d="M588.40 167.40c0.6 5.6 9.6 9 5.6 18.4
	1.6 -6 -1.3 -11.6 -5.6 -12.8
"/>
<use x="604.30" y="161.40" xlink:href="#hd"/>
<path d="M600.80 161.40v21.00" class="stroke"/>
<path class="fill"
	d="M600.80 182.40c0.6 -5.6 9.6 -9 5.6 -18.4
	1.6 6 -1.3 11.6 -5.6 12.8
"/>
<use x="622.60" y="155.40" xlink:href="#hd"/>
<path d="M619.10 155.40v21.00" class="stroke"/>
<path class="fill"
	d="M619.10 176.40c0.6 -5.6 9.6 -9 5.6 -18.4
	1.6 6 -1.3 11.6 -5.6 12.8
"/>
<use x="640.80" y="149.40" xlink:href="#hl"/>
<use x="640.80" y="149.40" xlink:href="#hd"/>
<path d="M637.30 149.40v21.00" class="stroke"/>
<path class="fill"
	d="M637.30 170.40c0.6 -5.6 9.6 -9 5.6 -18.4
	1.6 6 -1.3 11.6 -5.6 12.8
"/>
<use x="659.30" y="149.40" xlink:href="#hl"/>
<use x="659.30" y="146.40" xlink:href="#hd"/>
<path d="M655.80 146.40v21.00" class="stroke"/>
<path class="fill"
	d="M655.80 167.40c0.6 -5.6 9.6 -9 5.6 -18.4
	1.6 6 -1.3 11.6 -5.6 12.8
"/>
<use x="677.80" y="149.40" xlink:href="#hl"/>
<use x="677.80" y="143.40" xlink:href="#hl"/>
<use x="677.80" y="140.40" xlink:href="#hd"/>
<path d="M674.30 140.40v27.00" class="stroke"/>
<path class="fill"
	d="M674.30 167.40c0.6 -5.6 9.6 -9 5.6 -18.4
	1.6 6 -1.3 11.6 -5.6 12.8
"/>
<defs>
<path id="ltr" class="fill"
    d="m0 -0.4c2 -1.5 3.4 -1.9 3.9 0.4
	c0.2 0.8 0.7 0.7 2.1 -0.4
	v0.8c-2 1.5 -3.4 1.9 -3.9 -0.4
	c-0.2 -0.8 -0.7 -0.7 -2.1 0.4z"/>
</defs>
<g transform="rotate(270)">
<use x="-179.40" y="197.20" xlink:href="#ltr"/>
<use x="-173.40" y="197.20" xlink:href="#ltr"/>
<use x="-167.40" y="197.20" xlink:href="#ltr"/>
<use x="-161.40" y="197.20" xlink:href="#ltr"/>
</g>
<text x="263.40" y="82.40" style="font:bold italic 30px serif">,</text>
<g transform="rotate(270)">
<use x="-179.40" y="392.10" xlink:href="#ltr"/>
<use x="-173.40" y="392.10" xlink:href="#ltr"/>
<use x="-167.40" y="392.10" xlink:href="#ltr"/>
<use x="-161.40" y="392.10" xlink:href="#ltr"/>
</g>
<text x="458.00" y="82.40" style="font:bold italic 30px serif">,</text>
</g>
<g stroke-width="0.70" style="font:italic 11.00px Times">
<path class="stroke" stroke-width="1"
	d="M10.00 330.80v-85.00"/>
<g transform="translate(10.00,245.80) scale(1,0.85)">
	<use xlink:href="#brace"/>
</g>
<path class="stroke" stroke-width="1"
	d="M127.50 269.80v-24.00"/>
<path class="stroke" stroke-width="1"
	d="M127.50 330.80v-24.00"/>
<path class="stroke" stroke-width="1"
	d="M249.30 269.80v-24.00"/>
<path class="stroke" stroke-width="1"
	d="M249.30 330.80v-24.00"/>
<path class="stroke" stroke-width="1"
	d="M371.30 269.80v-24.00"/>
<path class="stroke" stroke-width="1"
	d="M371.30 330.80v-24.00"/>
<path class="stroke" stroke-width="1"
	d="M493.30 269.80v-24.00"/>
<path class="stroke" stroke-width="1"
	d="M493.30 330.80v-24.00"/>
<path class="stroke" stroke-width="1"
	d="M569.80 269.80v-24.00"/>
<path class="stroke" stroke-width="1"
	d="M569.80 330.80v-24.00"/>
<path class="stroke" stroke-width="1"
	d="M691.60 269.80v-24.00"/>
<path class="stroke" stroke-width="1"
	d="M691.60 330.80v-24.00"/>
<path d="m10.00 269.80
	h681.60
	M10.00 263.80
	h681.60
	M10.00 257.80
	h681.60
	M10.00 251.80
	h681.60
	M10.00 245.80
	h681.60
	" class="stroke"/>
<path d="m10.00 330.80
	h681.60
	M10.00 324.80
	h681.60
	M10.00 318.80
	h681.60
	M10.00 312.80
	h681.60
	M10.00 306.80
	h681.60
	" class="stroke"/>
</g>
<g stroke-width="0.70" style="font:bold 13.00px Times">
<text x="69.30" y="225.20">I<tspan
	 style="font:italic 11.00px Times">Δ⁷</tspan></text>
</g>
<g stroke-width="0.70" style="font:bold 13.00px Times">
<text x="132.00" y="241.20">IV<tspan
	 style="font:italic 11.00px Times">Δ⁷²</tspan></text>
</g>
<g stroke-width="0.70" style="font:bold 13.00px Times">
<text x="253.90" y="233.20">V<tspan
	 style="font:italic 11.00px Times">⁷¹</tspan></text>
</g>
<g stroke-width="0.70" style="font:bold 13.00px Times">
<text x="377.90" y="239.20">V<tspan
	 style="font:italic 11.00px Times">⁷</tspan></text>
</g>
<g stroke-width="0.70" style="font:bold 13.00px Times">
<text x="511.60" y="231.20">I<tspan
	 style="font:italic 11.00px Times">Δ⁷</tspan></text>
</g>
<g stroke-width="0.70" style="font:bold 13.00px Times">
<text x="574.30" y="241.20">IV<tspan
	 style="font:italic 11.00px Times">Δ⁷¹</tspan></text>
</g>
<g stroke-width="0.70" style="font:italic 11.00px Times">
<use x="22.00" y="263.80" xlink:href="#tclef"/>
<use x="37.00" y="245.80" xlink:href="#sh0"/>
<use x="42.50" y="254.80" xlink:href="#sh0"/>
<use x="75.00" y="239.80" xlink:href="#hl"/>
<use x="75.00" y="233.80" xlink:href="#hl"/>
<use x="75.00" y="233.80" xlink:href="#hd"/>
<path d="M71.50 233.80v40.00" class="stroke"/>
<use x="75.00" y="254.80" xlink:href="#hd"/>
<use x="101.20" y="239.80" xlink:href="#hl"/>
<use x="101.20" y="233.80" xlink:href="#hl"/>
<use x="101.20" y="230.80" xlink:href="#Hd"/>
<path d="M97.70 230.80v40.00" class="stroke"/>
<use x="101.20" y="251.80" xlink:href="#Hd"/>
<use x="140.00" y="251.80" xlink:href="#hd"/>
<path d="M136.50 251.80v21.00" class="stroke"/>
<use x="178.50" y="251.80" xlink:href="#Hd"/>
<path d="M175.00 251.80v21.00" class="stroke"/>
<use x="261.80" y="260.80" xlink:href="#hd"/>
<path d="M265.30 260.80v-21.00" class="stroke"/>
<use x="300.50" y="251.80" xlink:href="#Hd"/>
<path d="M297.00 251.80v21.00" class="stroke"/>
<use x="383.80" y="251.80" xlink:href="#hd"/>
<path d="M380.30 251.80v21.00" class="stroke"/>
<use x="422.50" y="254.80" xlink:href="#Hd"/>
<path d="M419.00 254.80v21.00" class="stroke"/>
<use x="517.30" y="239.80" xlink:href="#hl"/>
<use x="517.30" y="239.80" xlink:href="#hd"/>
<path d="M513.80 239.80v40.00" class="stroke"/>
<use x="517.30" y="260.80" xlink:href="#hd"/>
<use x="543.50" y="239.80" xlink:href="#hl"/>
<use x="543.50" y="236.80" xlink:href="#Hd"/>
<path d="M540.00 236.80v40.00" class="stroke"/>
<use x="543.50" y="257.80" xlink:href="#Hd"/>
<use x="582.30" y="257.80" xlink:href="#hd"/>
<path d="M578.80 257.80v21.00" class="stroke"/>
<use x="620.80" y="260.80" xlink:href="#Hd"/>
<path d="M624.30 260.80v-21.00" class="stroke"/>
<use x="22.00" y="312.80" xlink:href="#bclef"/>
<use x="37.00" y="312.80" xlink:href="#sh0"/>
<use x="42.50" y="321.80" xlink:href="#sh0"/>
<use x="75.00" y="336.80" xlink:href="#hl"/>
<use x="75.00" y="339.80" xlink:href="#Hd"/>
<circle class="fill" cx="84.70" cy="339.80" r="1.2"/>
<path d="M78.50 339.80v-37.00" class="stroke"/>
<use x="75.00" y="333.80" xlink:href="#Hd"/>
<circle class="fill" cx="84.70" cy="333.80" r="1.2"/>
<use x="75.00" y="327.80" xlink:href="#Hd"/>
<circle class="fill" cx="84.70" cy="327.80" r="1.2"/>
<use x="75.00" y="321.80" xlink:href="#Hd"/>
<circle class="fill" cx="84.70" cy="321.80" r="1.2"/>
<use x="140.00" y="336.80" xlink:href="#hl"/>
<use x="140.00" y="342.80" xlink:href="#hl"/>
<use x="140.00" y="348.80" xlink:href="#hl"/>
<use x="140.00" y="351.80" xlink:href="#hd"/>
<path d="M143.50 351.80v-40.00" class="stroke"/>
<path class="fill"
	d="M143.50 311.80c0.6 5.6 9.6 9 5.6 18.4
	1.6 -6 -1.3 -11.6 -5.6 -12.8
"/>
<use x="140.00" y="330.80" xlink:href="#hd"/>
<use x="159.70" y="303.80" xlink:href="#hd"/>
<path d="M156.20 303.80v21.00" class="stroke"/>
<path class="fill"
	d="M156.20 324.80c0.6 -5.6 9.6 -9 5.6 -18.4
	1.6 6 -1.3 11.6 -5.6 12.8
"/>
<use x="178.50" y="300.80" xlink:href="#hl"/>
<use x="178.50" y="297.80" xlink:href="#hd"/>
<path d="M175.00 297.80v21.00" class="stroke"/>
<path class="fill"
	d="M175.00 318.80c0.6 -5.6 9.6 -9 5.6 -18.4
	1.6 6 -1.3 11.6 -5.6 12.8
"/>
<use x="197.40" y="300.80" xlink:href="#hl"/>
<use x="197.40" y="294.80" xlink:href="#hl"/>
<use x="197.40" y="291.80" xlink:href="#hd"/>
<path d="M193.90 291.80v27.00" class="stroke"/>
<path class="fill"
	d="M193.90 318.80c0.6 -5.6 9.6 -9 5.6 -18.4
	1.6 6 -1.3 11.6 -5.6 12.8
"/>
<use x="216.40" y="300.80" xlink:href="#hl"/>
<use x="216.40" y="294.80" xlink:href="#hl"/>
<use x="216.40" y="288.80" xlink:href="#hl"/>
<use x="216.40" y="288.80" xlink:href="#hd"/>
<path d="M212.90 288.80v30.00" class="stroke"/>
<path class="fill"
	d="M212.90 318.80c0.6 -5.6 9.6 -9 5.6 -18.4
	1.6 6 -1.3 11.6 -5.6 12.8
"/>
<use x="235.30" y="300.80" xlink:href="#hl"/>
<use x="235.30" y="294.80" xlink:href="#hl"/>
<use x="235.30" y="288.80" xlink:href="#hl"/>
<use x="235.30" y="282.80" xlink:href="#hl"/>
<use x="235.30" y="282.80" xlink:href="#hd"/>
<path d="M231.80 282.80v36.00" class="stroke"/>
<path class="fill"
	d="M231.80 318.80c0.6 -5.6 9.6 -9 5.6 -18.4
	1.6 6 -1.3 11.6 -5.6 12.8
"/>
<use x="261.80" y="327.80" xlink:href="#hd"/>
<path d="M265.30 327.80v-21.00" class="stroke"/>
<path class="fill"
	d="M265.30 306.80c0.6 5.6 9.6 9 5.6 18.4
	1.6 -6 -1.3 -11.6 -5.6 -12.8
"/>
<use x="281.50" y="300.80" xlink:href="#hl"/>
<use x="281.50" y="300.80" xlink:href="#hd"/>
<path d="M278.00 300.80v21.00" class="stroke"/>
<path class="fill"
	d="M278.00 321.80c0.6 -5.6 9.6 -9 5.6 -18.4
	1.6 6 -1.3 11.6 -5.6 12.8
"/>
<use x="300.50" y="300.80" xlink:href="#hl"/>
<use x="300.50" y="294.80" xlink:href="#hl"/>
<use x="300.50" y="294.80" xlink:href="#hd"/>
<path d="M297.00 294.80v24.00" class="stroke"/>
<path class="fill"
	d="M297.00 318.80c0.6 -5.6 9.6 -9 5.6 -18.4
	1.6 6 -1.3 11.6 -5.6 12.8
"/>
<use x="319.40" y="300.80" xlink:href="#hl"/>
<use x="319.40" y="294.80" xlink:href="#hl"/>
<use x="319.40" y="288.80" xlink:href="#hl"/>
<use x="319.40" y="288.80" xlink:href="#hd"/>
<path d="M315.90 288.80v30.00" class="stroke"/>
<path class="fill"
	d="M315.90 318.80c0.6 -5.6 9.6 -9 5.6 -18.4
	1.6 6 -1.3 11.6 -5.6 12.8
"/>
<use x="338.40" y="300.80" xlink:href="#hl"/>
<use x="338.40" y="294.80" xlink:href="#hl"/>
<use x="338.40" y="288.80" xlink:href="#hl"/>
<use x="338.40" y="285.80" xlink:href="#hd"/>
<path d="M334.90 285.80v33.00" class="stroke"/>
<path class="fill"
	d="M334.90 318.80c0.6 -5.6 9.6 -9 5.6 -18.4
	1.6 6 -1.3 11.6 -5.6 12.8
"/>
<use x="357.30" y="300.80" xlink:href="#hl"/>
<use x="357.30" y="294.80" xlink:href="#hl"/>
<use x="357.30" y="288.80" xlink:href="#hl"/>
<use x="357.30" y="282.80" xlink:href="#hl"/>
<use x="357.30" y="279.80" xlink:href="#hd"/>
<path d="M353.80 279.80v39.00" class="stroke"/>
<path class="fill"
	d="M353.80 318.80c0.6 -5.6 9.6 -9 5.6 -18.4
	1.6 6 -1.3 11.6 -5.6 12.8
"/>
<use x="383.80" y="327.80" xlink:href="#hd"/>
<path d="M387.30 327.80v-21.00" class="stroke"/>
<path class="fill"
	d="M387.30 306.80c0.6 5.6 9.6 9 5.6 18.4
	1.6 -6 -1.3 -11.6 -5.6 -12.8
"/>
<use x="403.50" y="300.80" xlink:href="#hl"/>
<use x="403.50" y="300.80" xlink:href="#hd"/>
<path d="M400.00 300.80v21.00" class="stroke"/>
<path class="fill"
	d="M400.00 321.80c0.6 -5.6 9.6 -9 5.6 -18.4
	1.6 6 -1.3 11.6 -5.6 12.8
"/>
<use x="422.50" y="300.80" xlink:href="#hl"/>
<use x="422.50" y="294.80" xlink:href="#hl"/>
<use x="422.50" y="294.80" xlink:href="#hd"/>
<path d="M419.00 294.80v24.00" class="stroke"/>
<path class="fill"
	d="M419.00 318.80c0.6 -5.6 9.6 -9 5.6 -18.4
	1.6 6 -1.3 11.6 -5.6 12.8
"/>
<use x="441.40" y="300.80" xlink:href="#hl"/>
<use x="441.40" y="294.80" xlink:href="#hl"/>
<use x="441.40" y="288.80" xlink:href="#hl"/>
<use x="441.40" y="288.80" xlink:href="#hd"/>
<path d="M437.90 288.80v30.00" class="stroke"/>
<path class="fill"
	d="M437.90 318.80c0.6 -5.6 9.6 -9 5.6 -18.4
	1.6 6 -1.3 11.6 -5.6 12.8
"/>
<use x="460.40" y="300.80" xlink:href="#hl"/>
<use x="460.40" y="294.80" xlink:href="#hl"/>
<use x="460.40" y="288.80" xlink:href="#hl"/>
<use x="460.40" y="285.80" xlink:href="#hd"/>
<path d="M456.90 285.80v33.00" class="stroke"/>
<path class="fill"
	d="M456.90 318.80c0.6 -5.6 9.6 -9 5.6 -18.4
	1.6 6 -1.3 11.6 -5.6 12.8
"/>
<use x="479.30" y="300.80" xlink:href="#hl"/>
<use x="479.30" y="294.80" xlink:href="#hl"/>
<use x="479.30" y="288.80" xlink:href="#hl"/>
<use x="479.30" y="282.80" xlink:href="#hl"/>
<use x="479.30" y="279.80" xlink:href="#hd"/>
<path d="M475.80 279.80v39.00" class="stroke"/>
<path class="fill"
	d="M475.80 318.80c0.6 -5.6 9.6 -9 5.6 -18.4
	1.6 6 -1.3 11.6 -5.6 12.8
"/>
<use x="517.30" y="336.80" xlink:href="#hl"/>
<use x="517.30" y="339.80" xlink:href="#Hd"/>
<circle class="fill" cx="526.00" cy="339.80" r="1.2"/>
<path d="M520.80 339.80v-37.00" class="stroke"/>
<use x="517.30" y="333.80" xlink:href="#Hd"/>
<circle class="fill" cx="526.00" cy="333.80" r="1.2"/>
<use x="517.30" y="327.80" xlink:href="#Hd"/>
<circle class="fill" cx="526.00" cy="327.80" r="1.2"/>
<use x="517.30" y="321.80" xlink:href="#Hd"/>
<circle class="fill" cx="526.00" cy="321.80" r="1.2"/>
<use x="582.30" y="336.80" xlink:href="#hl"/>
<use x="582.30" y="342.80" xlink:href="#hl"/>
<use x="582.30" y="348.80" xlink:href="#hl"/>
<use x="582.30" y="351.80" xlink:href="#hd"/>
<path d="M585.80 351.80v-40.00" class="stroke"/>
<path class="fill"
	d="M585.80 311.80c0.6 5.6 9.6 9 5.6 18.4
	1.6 -6 -1.3 -11.6 -5.6 -12.8
"/>
<use x="582.30" y="330.80" xlink:href="#hd"/>
<use x="602.00" y="303.80" xlink:href="#hd"/>
<path d="M598.50 303.80v21.00" class="stroke"/>
<path class="fill"
	d="M598.50 324.80c0.6 -5.6 9.6 -9 5.6 -18.4
	1.6 6 -1.3 11.6 -5.6 12.8
"/>
<use x="620.80" y="300.80" xlink:href="#hl"/>
<use x="620.80" y="297.80" xlink:href="#hd"/>
<path d="M617.30 297.80v21.00" class="stroke"/>
<path class="fill"
	d="M617.30 318.80c0.6 -5.6 9.6 -9 5.6 -18.4
	1.6 6 -1.3 11.6 -5.6 12.8
"/>
<use x="639.70" y="300.80" xlink:href="#hl"/>
<use x="639.70" y="294.80" xlink:href="#hl"/>
<use x="639.70" y="291.80" xlink:href="#hd"/>
<path d="M636.20 291.80v27.00" class="stroke"/>
<path class="fill"
	d="M636.20 318.80c0.6 -5.6 9.6 -9 5.6 -18.4
	1.6 6 -1.3 11.6 -5.6 12.8
"/>
<use x="658.70" y="300.80" xlink:href="#hl"/>
<use x="658.70" y="294.80" xlink:href="#hl"/>
<use x="658.70" y="288.80" xlink:href="#hl"/>
<use x="658.70" y="288.80" xlink:href="#hd"/>
<path d="M655.20 288.80v30.00" class="stroke"/>
<path class="fill"
	d="M655.20 318.80c0.6 -5.6 9.6 -9 5.6 -18.4
	1.6 6 -1.3 11.6 -5.6 12.8
"/>
<use x="677.60" y="300.80" xlink:href="#hl"/>
<use x="677.60" y="294.80" xlink:href="#hl"/>
<use x="677.60" y="288.80" xlink:href="#hl"/>
<use x="677.60" y="282.80" xlink:href="#hl"/>
<use x="677.60" y="282.80" xlink:href="#hd"/>
<path d="M674.10 282.80v36.00" class="stroke"/>
<path class="fill"
	d="M674.10 318.80c0.6 -5.6 9.6 -9 5.6 -18.4
	1.6 6 -1.3 11.6 -5.6 12.8
"/>
<g transform="rotate(270)">
<use x="-342.80" y="65.00" xlink:href="#ltr"/>
<use x="-336.80" y="65.00" xlink:href="#ltr"/>
<use x="-330.80" y="65.00" xlink:href="#ltr"/>
<use x="-324.80" y="65.00" xlink:href="#ltr"/>
</g>
<text x="132.50" y="236.80" style="font:bold italic 30px serif">,</text>
<g transform="rotate(270)">
<use x="-342.80" y="507.30" xlink:href="#ltr"/>
<use x="-336.80" y="507.30" xlink:href="#ltr"/>
<use x="-330.80" y="507.30" xlink:href="#ltr"/>
<use x="-324.80" y="507.30" xlink:href="#ltr"/>
</g>
<text x="574.80" y="236.80" style="font:bold italic 30px serif">,</text>
</g>
<g stroke-width="0.70" style="font:italic 11.00px Times">
<path class="stroke" stroke-width="1"
	d="M10.00 468.80v-82.00"/>
<g transform="translate(10.00,386.80) scale(1,0.82)">
	<use xlink:href="#brace"/>
</g>
<path class="stroke" stroke-width="1"
	d="M249.90 410.80v-24.00"/>
<path class="stroke" stroke-width="1"
	d="M249.90 468.80v-24.00"/>
<path class="stroke" stroke-width="1"
	d="M367.70 410.80v-24.00"/>
<path class="stroke" stroke-width="1"
	d="M367.70 468.80v-24.00"/>
<path class="stroke" stroke-width="1"
	d="M573.70 410.80v-24.00"/>
<path class="stroke" stroke-width="1"
	d="M573.70 468.80v-24.00"/>
<path class="stroke" stroke-width="1"
	d="M691.60 410.80v-24.00"/>
<path class="stroke" stroke-width="1"
	d="M691.60 468.80v-24.00"/>
<path d="m10.00 410.80
	h681.60
	M10.00 404.80
	h681.60
	M10.00 398.80
	h681.60
	M10.00 392.80
	h681.60
	M10.00 386.80
	h681.60
	" class="stroke"/>
<path d="m10.00 468.80
	h681.60
	M10.00 462.80
	h681.60
	M10.00 456.80
	h681.60
	M10.00 450.80
	h681.60
	M10.00 444.80
	h681.60
	" class="stroke"/>
</g>
<g stroke-width="0.70" style="font:bold 13.00px Times">
<text x="52.50" y="377.20">ii<tspan
	 style="font:italic 11.00px Times">m⁷</tspan></text>
</g>
<g stroke-width="0.70" style="font:bold 13.00px Times">
<text x="268.50" y="378.20">I<tspan
	 style="font:italic 11.00px Times">Δ⁷</tspan></text>
</g>
<g stroke-width="0.70" style="font:bold 13.00px Times">
<text x="376.70" y="380.20">I<tspan
	 style="font:italic 11.00px Times">Δ⁷¹</tspan></text>
</g>
<g stroke-width="0.70" style="font:bold 13.00px Times">
<text x="592.40" y="370.20">I<tspan
	 style="font:italic 11.00px Times">Δ⁷</tspan></text>
</g>
<g stroke-width="0.70" style="font:italic 11.00px Times">
<use x="22.00" y="404.80" xlink:href="#tclef"/>
<use x="37.00" y="386.80" xlink:href="#sh0"/>
<use x="42.50" y="395.80" xlink:href="#sh0"/>
<use x="60.50" y="404.80" xlink:href="#hd"/>
<path d="M64.00 404.80v-21.00" class="stroke"/>
<use x="126.90" y="401.80" xlink:href="#Hd"/>
<path d="M130.40 401.80v-21.00" class="stroke"/>
<use x="274.30" y="386.80" xlink:href="#hd"/>
<path d="M270.80 386.80v40.00" class="stroke"/>
<use x="274.30" y="407.80" xlink:href="#hd"/>
<use x="321.20" y="410.80" xlink:href="#Hd"/>
<path d="M324.70 410.80v-40.00" class="stroke"/>
<use x="321.20" y="389.80" xlink:href="#Hd"/>
<use x="384.40" y="407.80" xlink:href="#hd"/>
<path d="M387.90 407.80v-21.00" class="stroke"/>
<use x="450.80" y="413.80" xlink:href="#Hd"/>
<path d="M454.30 413.80v-21.00" class="stroke"/>
<use x="598.10" y="416.80" xlink:href="#hl"/>
<use x="598.10" y="416.80" xlink:href="#hd"/>
<path d="M601.60 416.80v-40.00" class="stroke"/>
<use x="598.10" y="395.80" xlink:href="#hd"/>
<use x="645.10" y="413.80" xlink:href="#Hd"/>
<path d="M648.60 413.80v-40.00" class="stroke"/>
<use x="645.10" y="392.80" xlink:href="#Hd"/>
<use x="22.00" y="450.80" xlink:href="#bclef"/>
<use x="37.00" y="450.80" xlink:href="#sh0"/>
<use x="42.50" y="459.80" xlink:href="#sh0"/>
<use x="60.50" y="474.80" xlink:href="#hl"/>
<use x="60.50" y="474.80" xlink:href="#hd"/>
<path d="M64.00 474.80v-21.00" class="stroke"/>
<path class="fill"
	d="M64.00 453.80c0.6 5.6 9.6 9 5.6 18.4
	1.6 -6 -1.3 -11.6 -5.6 -12.8
"/>
<use x="93.70" y="447.80" xlink:href="#hd"/>
<path d="M90.20 447.80v21.00" class="stroke"/>
<path class="fill"
	d="M90.20 468.80c0.6 -5.6 9.6 -9 5.6 -18.4
	1.6 6 -1.3 11.6 -5.6 12.8
"/>
<use x="126.90" y="441.80" xlink:href="#hd"/>
<path d="M123.40 441.80v21.00" class="stroke"/>
<path class="fill"
	d="M123.40 462.80c0.6 -5.6 9.6 -9 5.6 -18.4
	1.6 6 -1.3 11.6 -5.6 12.8
"/>
<use x="160.20" y="438.80" xlink:href="#hl"/>
<use x="160.20" y="435.80" xlink:href="#hd"/>
<path d="M156.70 435.80v21.00" class="stroke"/>
<path class="fill"
	d="M156.70 456.80c0.6 -5.6 9.6 -9 5.6 -18.4
	1.6 6 -1.3 11.6 -5.6 12.8
"/>
<use x="193.40" y="438.80" xlink:href="#hl"/>
<use x="193.40" y="432.80" xlink:href="#hl"/>
<use x="193.40" y="432.80" xlink:href="#hd"/>
<path d="M189.90 432.80v24.00" class="stroke"/>
<path class="fill"
	d="M189.90 456.80c0.6 -5.6 9.6 -9 5.6 -18.4
	1.6 6 -1.3 11.6 -5.6 12.8
"/>
<use x="226.60" y="438.80" xlink:href="#hl"/>
<use x="226.60" y="432.80" xlink:href="#hl"/>
<use x="226.60" y="426.80" xlink:href="#hl"/>
<use x="226.60" y="426.80" xlink:href="#hd"/>
<path d="M223.10 426.80v30.00" class="stroke"/>
<path class="fill"
	d="M223.10 456.80c0.6 -5.6 9.6 -9 5.6 -18.4
	1.6 6 -1.3 11.6 -5.6 12.8
"/>
<use x="274.30" y="474.80" xlink:href="#hl"/>
<use x="274.30" y="477.80" xlink:href="#Hd"/>
<circle class="fill" cx="283.00" cy="477.80" r="1.2"/>
<path d="M277.80 477.80v-37.00" class="stroke"/>
<use x="274.30" y="471.80" xlink:href="#Hd"/>
<circle class="fill" cx="283.00" cy="471.80" r="1.2"/>
<use x="274.30" y="465.80" xlink:href="#Hd"/>
<circle class="fill" cx="283.00" cy="465.80" r="1.2"/>
<use x="274.30" y="459.80" xlink:href="#Hd"/>
<circle class="fill" cx="283.00" cy="459.80" r="1.2"/>
<use x="384.40" y="474.80" xlink:href="#hl"/>
<use x="384.40" y="480.80" xlink:href="#hl"/>
<use x="384.40" y="486.80" xlink:href="#hl"/>
<use x="384.40" y="492.80" xlink:href="#hl"/>
<use x="384.40" y="498.80" xlink:href="#hl"/>
<use x="384.40" y="498.80" xlink:href="#hd"/>
<path d="M387.90 498.80v-42.00" class="stroke"/>
<path class="fill"
	d="M387.90 456.80c0.6 5.6 9.6 9 5.6 18.4
	1.6 -6 -1.3 -11.6 -5.6 -12.8
"/>
<use x="384.40" y="477.80" xlink:href="#hd"/>
<use x="417.60" y="450.80" xlink:href="#hd"/>
<path d="M414.10 450.80v21.00" class="stroke"/>
<path class="fill"
	d="M414.10 471.80c0.6 -5.6 9.6 -9 5.6 -18.4
	1.6 6 -1.3 11.6 -5.6 12.8
"/>
<use x="450.80" y="444.80" xlink:href="#hd"/>
<path d="M447.30 444.80v21.00" class="stroke"/>
<path class="fill"
	d="M447.30 465.80c0.6 -5.6 9.6 -9 5.6 -18.4
	1.6 6 -1.3 11.6 -5.6 12.8
"/>
<use x="484.00" y="438.80" xlink:href="#hl"/>
<use x="484.00" y="438.80" xlink:href="#hd"/>
<path d="M480.50 438.80v21.00" class="stroke"/>
<path class="fill"
	d="M480.50 459.80c0.6 -5.6 9.6 -9 5.6 -18.4
	1.6 6 -1.3 11.6 -5.6 12.8
"/>
<use x="517.30" y="438.80" xlink:href="#hl"/>
<use x="517.30" y="435.80" xlink:href="#hd"/>
<path d="M513.80 435.80v21.00" class="stroke"/>
<path class="fill"
	d="M513.80 456.80c0.6 -5.6 9.6 -9 5.6 -18.4
	1.6 6 -1.3 11.6 -5.6 12.8
"/>
<use x="550.50" y="438.80" xlink:href="#hl"/>
<use x="550.50" y="432.80" xlink:href="#hl"/>
<use x="550.50" y="429.80" xlink:href="#hd"/>
<path d="M547.00 429.80v27.00" class="stroke"/>
<path class="fill"
	d="M547.00 456.80c0.6 -5.6 9.6 -9 5.6 -18.4
	1.6 6 -1.3 11.6 -5.6 12.8
"/>
<use x="598.10" y="474.80" xlink:href="#hl"/>
<use x="598.10" y="480.80" xlink:href="#hl"/>
<use x="598.10" y="486.80" xlink:href="#hl"/>
<use x="598.10" y="492.80" xlink:href="#hl"/>
<use x="598.10" y="498.80" xlink:href="#hl"/>
<use x="598.10" y="498.80" xlink:href="#Hd"/>
<circle class="fill" cx="606.80" cy="495.80" r="1.2"/>
<path d="M601.60 498.80v-58.00" class="stroke"/>
<use x="598.10" y="477.80" xlink:href="#Hd"/>
<circle class="fill" cx="606.80" cy="477.80" r="1.2"/>
<use x="598.10" y="471.80" xlink:href="#Hd"/>
<circle class="fill" cx="606.80" cy="471.80" r="1.2"/>
<use x="598.10" y="465.80" xlink:href="#Hd"/>
<circle class="fill" cx="606.80" cy="465.80" r="1.2"/>
<use x="598.10" y="459.80" xlink:href="#Hd"/>
<circle class="fill" cx="606.80" cy="459.80" r="1.2"/>
<g transform="rotate(270)">
<use x="-480.80" y="264.30" xlink:href="#ltr"/>
<use x="-474.80" y="264.30" xlink:href="#ltr"/>
<use x="-468.80" y="264.30" xlink:href="#ltr"/>
<use x="-462.80" y="264.30" xlink:href="#ltr"/>
</g>
<text x="374.40" y="377.80" style="font:bold italic 30px serif">,</text>
<defs>
<g id="hld" class="fill">
	<circle cx="0" cy="-3" r="1.3"/>
	<path d="m-7.5 -1.5
		c0 -11.5 15 -11.5 15 0
		h-0.25
		c-1.25 -9 -13.25 -9 -14.5 0"/>
</g>
</defs>
<use x="598.10" y="436.80" xlink:href="#hld"/>
<g transform="rotate(270)">
<use x="-501.80" y="588.10" xlink:href="#ltr"/>
<use x="-495.80" y="588.10" xlink:href="#ltr"/>
<use x="-489.80" y="588.10" xlink:href="#ltr"/>
<use x="-483.80" y="588.10" xlink:href="#ltr"/>
<use x="-477.80" y="588.10" xlink:href="#ltr"/>
<use x="-471.80" y="588.10" xlink:href="#ltr"/>
<use x="-465.80" y="588.10" xlink:href="#ltr"/>
<use x="-459.80" y="588.10" xlink:href="#ltr"/>
</g>
<use x="645.10" y="369.80" xlink:href="#hld"/>
<g transform="rotate(270)">
<use x="-416.80" y="635.10" xlink:href="#ltr"/>
<use x="-410.80" y="635.10" xlink:href="#ltr"/>
<use x="-404.80" y="635.10" xlink:href="#ltr"/>
<use x="-398.80" y="635.10" xlink:href="#ltr"/>
<use x="-392.80" y="635.10" xlink:href="#ltr"/>
</g>
</g>
</svg>
