<?xml version="1.0" standalone="no"?>
<!DOCTYPE svg PUBLIC "-//W3C//DTD SVG 1.1//EN"
	"http://www.w3.org/Graphics/SVG/1.1/DTD/svg11.dtd">
<svg xmlns="http://www.w3.org/2000/svg" version="1.1"
	xmlns:xlink="http://www.w3.org/1999/xlink"
	color="black"
	width="701.60px" height="899.60px" viewBox="0 0 701.60 899.60" preserveAspectRatio="xMidYMid meet">
<style type="text/css">
.fill {fill: currentColor}
.stroke {stroke: currentColor; fill: none}
text{white-space: pre}
</style>
<title>/tmp/boddie_hymnal_stage/gabriel_s_message.abc (1) tune 1</title>
<!-- Creator: abcm2ps-8.14.11 -->
<!-- CreationDate: Apr 30, 2026 12:59 -->
<!-- CommandLine: /tmp/boddie_hymnal_stage/gabriel_s_message.abc -g -O /tmp/boddie_hymnal_stage/gabriel_s_message -->
<g stroke-width="0.70">
<!-- title: 070. Gabriel's Message -->
</g>
<g stroke-width="0.70" style="font:20.00px Times">
<text x="350.80" y="22.00" text-anchor="middle">070. Gabriel&apos;s Message</text>
</g>
<g stroke-width="0.70" transform="scale(0.700)" style="font:20.00px Times">
<defs>
<ellipse id="hd" rx="4.1" ry="2.9"
	transform="rotate(-20)" class="fill"/>
</defs>
<use x="84.43" y="75.57" xlink:href="#hd"/>
<path d="M87.93 75.57v-21.00" class="stroke"/>
</g>
<g stroke-width="0.70" style="font:bold 15.00px Times">
<text x="66.80" y="55.00">= 72Slowly, with great expression</text>
<path class="stroke" stroke-width="1"
	d="M10.00 160.40v-85.00"/>
<defs>
<path id="brace" class="fill" d="m-2.5 101
	c-4.5 -4.6 -7.5 -12.2 -4.4 -26.8
	3.5 -14.3 3.2 -21.7 -2.1 -24.2
	7.4 2.4 7.3 14.2 3.5 29.5
	-2.7 9.5 -1.5 16.2 3 21.5
	M-2.5 1c-4.5 4.6 -7.5 12.2 -4.4 26.8
	c3.5 14.3 3.2 21.7 -2.1 24.2
	7.4 -2.4 7.3 -14.2 3.5 -29.5
	-2.7 -9.5 -1.5 -16.2 3 -21.5"/>
</defs>
<g transform="translate(10.00,75.40) scale(1,0.85)">
	<use xlink:href="#brace"/>
</g>
<path class="stroke" stroke-width="1"
	d="M176.90 99.40v-24.00"/>
<path class="stroke" stroke-width="1"
	d="M176.90 160.40v-24.00"/>
<path class="stroke" stroke-width="1"
	d="M308.00 99.40v-24.00"/>
<path class="stroke" stroke-width="1"
	d="M308.00 160.40v-24.00"/>
<path class="stroke" stroke-width="1"
	d="M389.60 99.40v-24.00"/>
<path class="stroke" stroke-width="1"
	d="M389.60 160.40v-24.00"/>
<path class="stroke" stroke-width="1"
	d="M560.40 99.40v-24.00"/>
<path class="stroke" stroke-width="1"
	d="M560.40 160.40v-24.00"/>
<path class="stroke" stroke-width="1"
	d="M691.60 99.40v-24.00"/>
<path class="stroke" stroke-width="1"
	d="M691.60 160.40v-24.00"/>
<path d="m10.00 99.40
	h681.60
	M10.00 93.40
	h681.60
	M10.00 87.40
	h681.60
	M10.00 81.40
	h681.60
	M10.00 75.40
	h681.60
	" class="stroke"/>
<path d="m10.00 160.40
	h681.60
	M10.00 154.40
	h681.60
	M10.00 148.40
	h681.60
	M10.00 142.40
	h681.60
	M10.00 136.40
	h681.60
	" class="stroke"/>
</g>
<g stroke-width="0.70" style="font:bold 13.00px Times">
<text x="50.50" y="68.80">iii<tspan
	 style="font:italic 11.00px Times">m⁷</tspan></text>
</g>
<g stroke-width="0.70" style="font:bold 13.00px Times">
<text x="181.40" y="70.80">vi<tspan
	 style="font:italic 11.00px Times">m⁷</tspan></text>
</g>
<g stroke-width="0.70" style="font:bold 13.00px Times">
<text x="324.00" y="51.80">ii<tspan
	 style="font:italic 11.00px Times">m⁷¹</tspan></text>
</g>
<g stroke-width="0.70" style="font:bold 13.00px Times">
<text x="394.10" y="70.80">vi<tspan
	 style="font:italic 11.00px Times">m⁷</tspan></text>
</g>
<g stroke-width="0.70" style="font:bold 13.00px Times">
<text x="567.60" y="59.80">I<tspan
	 style="font:italic 11.00px Times">Δ⁷</tspan></text>
</g>
<g stroke-width="0.70" style="font:italic 11.00px Times">
<defs>
<path id="utclef" class="fill" d="m-50 -90
	c-72 -41 -72 -158 52 -188
	150 -10 220 188 90 256
	-114 52 -275 0 -293 -136
	-15 -181 93 -229 220 -334
	88 -87 79 -133 62 -210
	-51 33 -94 105 -89 186
	17 267 36 374 49 574
	6 96 -19 134 -77 135
	-80 1 -126 -93 -61 -133
	85 -41 133 101 31 105
	23 17 92 37 90 -92
	-10 -223 -39 -342 -50 -617
	0 -90 0 -162 96 -232
	56 72 63 230 22 289
	-74 106 -257 168 -255 316
	9 153 148 185 252 133
	86 -65 29 -192 -80 -176
	-71 12 -105 67 -59 124"/>
<use id="tclef" transform="translate(0,6) scale(0.045)"
	xlink:href="#utclef"/>
</defs>
<use x="22.00" y="93.40" xlink:href="#tclef"/>
<g style="font:bold 16px serif"
	transform="translate(40.50,98.90) scale(1.2,1)">
	<text text-anchor="middle">4</text>
	<text y="-12" text-anchor="middle">3</text>
</g>
<use x="58.50" y="99.40" xlink:href="#hd"/>
<path d="M62.00 99.40v-21.00" class="stroke"/>
<defs>
<path id="Hd" class="fill" d="m3 -1.6
	c-1 -1.8 -7 1.4 -6 3.2
	1 1.8 7 -1.4 6 -3.2
	m0.5 -0.3
	c2 3.8 -5 7.6 -7 3.8
	-2 -3.8 5 -7.6 7 -3.8"/>
</defs>
<use x="100.10" y="90.40" xlink:href="#Hd"/>
<path d="M103.60 90.40v-21.00" class="stroke"/>
<use x="189.40" y="84.40" xlink:href="#hd"/>
<path d="M185.90 84.40v21.00" class="stroke"/>
<use x="231.10" y="87.40" xlink:href="#Hd"/>
<path d="M227.60 87.40v21.00" class="stroke"/>
<defs>
<path id="hl" class="stroke" d="m-6 0h12"/>
</defs>
<use x="332.00" y="69.40" xlink:href="#hl"/>
<use x="332.00" y="63.40" xlink:href="#hl"/>
<use x="332.00" y="60.40" xlink:href="#hd"/>
<path d="M328.50 60.40v40.00" class="stroke"/>
<use x="332.00" y="81.40" xlink:href="#hd"/>
<use x="360.80" y="69.40" xlink:href="#hl"/>
<use x="360.80" y="63.40" xlink:href="#hl"/>
<use x="360.80" y="63.40" xlink:href="#Hd"/>
<path d="M357.30 63.40v40.00" class="stroke"/>
<use x="360.80" y="84.40" xlink:href="#Hd"/>
<use x="402.10" y="87.40" xlink:href="#hd"/>
<path d="M398.60 87.40v21.00" class="stroke"/>
<use x="443.80" y="90.40" xlink:href="#Hd"/>
<circle class="fill" cx="452.50" cy="90.40" r="1.2"/>
<path d="M447.30 90.40v-21.00" class="stroke"/>
<use x="573.40" y="87.40" xlink:href="#Hd"/>
<circle class="fill" cx="582.10" cy="84.40" r="1.2"/>
<path d="M576.90 87.40v-21.00" class="stroke"/>
<defs>
<path id="ubclef" class="fill" d="m-200 -87
	c124 -35 222 -78 254 -236
	43 -228 -167 -246 -192 -103
	59 -80 157 22 92 78
	-62 47 -115 -22 -106 -88
	21 -141 270 -136 274 52
	-1 175 -106 264 -322 297
	m357 -250
	c0 -36 51 -34 51 0
	0 37 -51 36 -51 0
	m-2 -129
	c0 -36 51 -34 51 0
	0 38 -51 37 -51 0"/>
<use id="bclef" transform="translate(0,18) scale(0.045)"
	xlink:href="#ubclef"/>
</defs>
<use x="22.00" y="142.40" xlink:href="#bclef"/>
<g style="font:bold 16px serif"
	transform="translate(40.50,159.90) scale(1.2,1)">
	<text text-anchor="middle">4</text>
	<text y="-12" text-anchor="middle">3</text>
</g>
<use x="58.50" y="166.40" xlink:href="#hl"/>
<use x="58.50" y="172.40" xlink:href="#hl"/>
<use x="58.50" y="178.40" xlink:href="#hl"/>
<use x="58.50" y="184.40" xlink:href="#hl"/>
<use x="58.50" y="187.40" xlink:href="#hd"/>
<path d="M62.00 187.40v-40.00" class="stroke"/>
<path class="fill"
	d="M62.00 147.40c0.6 5.6 9.6 9 5.6 18.4
	1.6 -6 -1.3 -11.6 -5.6 -12.8
"/>
<use x="58.50" y="166.40" xlink:href="#hd"/>
<use x="79.60" y="139.40" xlink:href="#hd"/>
<path d="M76.10 139.40v21.00" class="stroke"/>
<path class="fill"
	d="M76.10 160.40c0.6 -5.6 9.6 -9 5.6 -18.4
	1.6 6 -1.3 11.6 -5.6 12.8
"/>
<use x="100.10" y="133.40" xlink:href="#hd"/>
<path d="M96.60 133.40v21.00" class="stroke"/>
<path class="fill"
	d="M96.60 154.40c0.6 -5.6 9.6 -9 5.6 -18.4
	1.6 6 -1.3 11.6 -5.6 12.8
"/>
<use x="120.70" y="130.40" xlink:href="#hl"/>
<use x="120.70" y="127.40" xlink:href="#hd"/>
<path d="M117.20 127.40v21.00" class="stroke"/>
<path class="fill"
	d="M117.20 148.40c0.6 -5.6 9.6 -9 5.6 -18.4
	1.6 6 -1.3 11.6 -5.6 12.8
"/>
<use x="141.30" y="130.40" xlink:href="#hl"/>
<use x="141.30" y="124.40" xlink:href="#hl"/>
<use x="141.30" y="124.40" xlink:href="#hd"/>
<path d="M137.80 124.40v24.00" class="stroke"/>
<path class="fill"
	d="M137.80 148.40c0.6 -5.6 9.6 -9 5.6 -18.4
	1.6 6 -1.3 11.6 -5.6 12.8
"/>
<use x="162.00" y="130.40" xlink:href="#hl"/>
<use x="162.00" y="124.40" xlink:href="#hl"/>
<use x="162.00" y="118.40" xlink:href="#hl"/>
<use x="162.00" y="118.40" xlink:href="#hd"/>
<path d="M158.50 118.40v30.00" class="stroke"/>
<path class="fill"
	d="M158.50 148.40c0.6 -5.6 9.6 -9 5.6 -18.4
	1.6 6 -1.3 11.6 -5.6 12.8
"/>
<use x="189.40" y="157.40" xlink:href="#hd"/>
<path d="M192.90 157.40v-21.00" class="stroke"/>
<path class="fill"
	d="M192.90 136.40c0.6 5.6 9.6 9 5.6 18.4
	1.6 -6 -1.3 -11.6 -5.6 -12.8
"/>
<use x="210.50" y="130.40" xlink:href="#hl"/>
<use x="210.50" y="130.40" xlink:href="#hd"/>
<path d="M207.00 130.40v21.00" class="stroke"/>
<path class="fill"
	d="M207.00 151.40c0.6 -5.6 9.6 -9 5.6 -18.4
	1.6 6 -1.3 11.6 -5.6 12.8
"/>
<use x="231.10" y="130.40" xlink:href="#hl"/>
<use x="231.10" y="124.40" xlink:href="#hl"/>
<use x="231.10" y="124.40" xlink:href="#hd"/>
<path d="M227.60 124.40v24.00" class="stroke"/>
<path class="fill"
	d="M227.60 148.40c0.6 -5.6 9.6 -9 5.6 -18.4
	1.6 6 -1.3 11.6 -5.6 12.8
"/>
<use x="251.80" y="130.40" xlink:href="#hl"/>
<use x="251.80" y="124.40" xlink:href="#hl"/>
<use x="251.80" y="118.40" xlink:href="#hl"/>
<use x="251.80" y="118.40" xlink:href="#hd"/>
<path d="M248.30 118.40v30.00" class="stroke"/>
<path class="fill"
	d="M248.30 148.40c0.6 -5.6 9.6 -9 5.6 -18.4
	1.6 6 -1.3 11.6 -5.6 12.8
"/>
<use x="272.40" y="130.40" xlink:href="#hl"/>
<use x="272.40" y="124.40" xlink:href="#hl"/>
<use x="272.40" y="118.40" xlink:href="#hl"/>
<use x="272.40" y="115.40" xlink:href="#hd"/>
<path d="M268.90 115.40v33.00" class="stroke"/>
<path class="fill"
	d="M268.90 148.40c0.6 -5.6 9.6 -9 5.6 -18.4
	1.6 6 -1.3 11.6 -5.6 12.8
"/>
<use x="293.10" y="130.40" xlink:href="#hl"/>
<use x="293.10" y="124.40" xlink:href="#hl"/>
<use x="293.10" y="118.40" xlink:href="#hl"/>
<use x="293.10" y="112.40" xlink:href="#hl"/>
<use x="293.10" y="109.40" xlink:href="#hd"/>
<path d="M289.60 109.40v39.00" class="stroke"/>
<path class="fill"
	d="M289.60 148.40c0.6 -5.6 9.6 -9 5.6 -18.4
	1.6 6 -1.3 11.6 -5.6 12.8
"/>
<use x="332.00" y="166.40" xlink:href="#hl"/>
<use x="332.00" y="169.40" xlink:href="#Hd"/>
<circle class="fill" cx="340.70" cy="169.40" r="1.2"/>
<path d="M335.50 169.40v-37.00" class="stroke"/>
<use x="332.00" y="163.40" xlink:href="#Hd"/>
<circle class="fill" cx="340.70" cy="163.40" r="1.2"/>
<use x="332.00" y="157.40" xlink:href="#Hd"/>
<circle class="fill" cx="340.70" cy="157.40" r="1.2"/>
<use x="332.00" y="151.40" xlink:href="#Hd"/>
<circle class="fill" cx="340.70" cy="151.40" r="1.2"/>
<use x="402.10" y="166.40" xlink:href="#hl"/>
<use x="402.10" y="172.40" xlink:href="#hl"/>
<use x="402.10" y="178.40" xlink:href="#hl"/>
<use x="402.10" y="178.40" xlink:href="#hd"/>
<path d="M405.60 178.40v-40.00" class="stroke"/>
<path class="fill"
	d="M405.60 138.40c0.6 5.6 9.6 9 5.6 18.4
	1.6 -6 -1.3 -11.6 -5.6 -12.8
"/>
<use x="402.10" y="157.40" xlink:href="#hd"/>
<use x="423.20" y="130.40" xlink:href="#hl"/>
<use x="423.20" y="130.40" xlink:href="#hd"/>
<path d="M419.70 130.40v21.00" class="stroke"/>
<path class="fill"
	d="M419.70 151.40c0.6 -5.6 9.6 -9 5.6 -18.4
	1.6 6 -1.3 11.6 -5.6 12.8
"/>
<use x="443.80" y="130.40" xlink:href="#hl"/>
<use x="443.80" y="124.40" xlink:href="#hl"/>
<use x="443.80" y="124.40" xlink:href="#hd"/>
<path d="M440.30 124.40v24.00" class="stroke"/>
<path class="fill"
	d="M440.30 148.40c0.6 -5.6 9.6 -9 5.6 -18.4
	1.6 6 -1.3 11.6 -5.6 12.8
"/>
<use x="464.50" y="130.40" xlink:href="#hl"/>
<use x="464.50" y="124.40" xlink:href="#hl"/>
<use x="464.50" y="118.40" xlink:href="#hl"/>
<use x="464.50" y="118.40" xlink:href="#hd"/>
<path d="M461.00 118.40v30.00" class="stroke"/>
<path class="fill"
	d="M461.00 148.40c0.6 -5.6 9.6 -9 5.6 -18.4
	1.6 6 -1.3 11.6 -5.6 12.8
"/>
<use x="485.20" y="130.40" xlink:href="#hl"/>
<use x="485.20" y="124.40" xlink:href="#hl"/>
<use x="485.20" y="118.40" xlink:href="#hl"/>
<use x="485.20" y="115.40" xlink:href="#hd"/>
<path d="M481.70 115.40v33.00" class="stroke"/>
<path class="fill"
	d="M481.70 148.40c0.6 -5.6 9.6 -9 5.6 -18.4
	1.6 6 -1.3 11.6 -5.6 12.8
"/>
<use x="505.80" y="130.40" xlink:href="#hl"/>
<use x="505.80" y="124.40" xlink:href="#hl"/>
<use x="505.80" y="118.40" xlink:href="#hl"/>
<use x="505.80" y="112.40" xlink:href="#hl"/>
<use x="505.80" y="109.40" xlink:href="#hd"/>
<path d="M502.30 109.40v39.00" class="stroke"/>
<path class="fill"
	d="M502.30 148.40c0.6 -5.6 9.6 -9 5.6 -18.4
	1.6 6 -1.3 11.6 -5.6 12.8
"/>
<use x="524.40" y="157.40" xlink:href="#hd"/>
<path d="M527.90 157.40v-21.00" class="stroke"/>
<path class="fill"
	d="M527.90 136.40c0.6 5.6 9.6 9 5.6 18.4
	1.6 -6 -1.3 -11.6 -5.6 -12.8
"/>
<use x="545.50" y="130.40" xlink:href="#hl"/>
<use x="545.50" y="130.40" xlink:href="#hd"/>
<path d="M542.00 130.40v21.00" class="stroke"/>
<path class="fill"
	d="M542.00 151.40c0.6 -5.6 9.6 -9 5.6 -18.4
	1.6 6 -1.3 11.6 -5.6 12.8
"/>
<use x="573.40" y="166.40" xlink:href="#hl"/>
<use x="573.40" y="172.40" xlink:href="#hl"/>
<use x="573.40" y="172.40" xlink:href="#hd"/>
<path d="M576.90 172.40v-24.00" class="stroke"/>
<path class="fill"
	d="M576.90 148.40c0.6 5.6 9.6 9 5.6 18.4
	1.6 -6 -1.3 -11.6 -5.6 -12.8
"/>
<use x="594.50" y="145.40" xlink:href="#hd"/>
<path d="M591.00 145.40v21.00" class="stroke"/>
<path class="fill"
	d="M591.00 166.40c0.6 -5.6 9.6 -9 5.6 -18.4
	1.6 6 -1.3 11.6 -5.6 12.8
"/>
<use x="615.00" y="139.40" xlink:href="#hd"/>
<path d="M611.50 139.40v21.00" class="stroke"/>
<path class="fill"
	d="M611.50 160.40c0.6 -5.6 9.6 -9 5.6 -18.4
	1.6 6 -1.3 11.6 -5.6 12.8
"/>
<use x="635.50" y="133.40" xlink:href="#hd"/>
<path d="M632.00 133.40v21.00" class="stroke"/>
<path class="fill"
	d="M632.00 154.40c0.6 -5.6 9.6 -9 5.6 -18.4
	1.6 6 -1.3 11.6 -5.6 12.8
"/>
<use x="656.10" y="130.40" xlink:href="#hl"/>
<use x="656.10" y="130.40" xlink:href="#hd"/>
<path d="M652.60 130.40v21.00" class="stroke"/>
<path class="fill"
	d="M652.60 151.40c0.6 -5.6 9.6 -9 5.6 -18.4
	1.6 6 -1.3 11.6 -5.6 12.8
"/>
<use x="676.70" y="130.40" xlink:href="#hl"/>
<use x="676.70" y="124.40" xlink:href="#hl"/>
<use x="676.70" y="124.40" xlink:href="#hd"/>
<path d="M673.20 124.40v24.00" class="stroke"/>
<path class="fill"
	d="M673.20 148.40c0.6 -5.6 9.6 -9 5.6 -18.4
	1.6 6 -1.3 11.6 -5.6 12.8
"/>
<defs>
<path id="ltr" class="fill"
    d="m0 -0.4c2 -1.5 3.4 -1.9 3.9 0.4
	c0.2 0.8 0.7 0.7 2.1 -0.4
	v0.8c-2 1.5 -3.4 1.9 -3.9 -0.4
	c-0.2 -0.8 -0.7 -0.7 -2.1 0.4z"/>
</defs>
<g transform="rotate(270)">
<use x="-172.40" y="322.00" xlink:href="#ltr"/>
<use x="-166.40" y="322.00" xlink:href="#ltr"/>
<use x="-160.40" y="322.00" xlink:href="#ltr"/>
<use x="-154.40" y="322.00" xlink:href="#ltr"/>
</g>
<text x="394.60" y="66.40" style="font:bold italic 30px serif">,</text>
</g>
<g stroke-width="0.70" style="font:italic 11.00px Times">
<path class="stroke" stroke-width="1"
	d="M10.00 312.80v-86.00"/>
<g transform="translate(10.00,226.80) scale(1,0.86)">
	<use xlink:href="#brace"/>
</g>
<path class="stroke" stroke-width="1"
	d="M159.60 250.80v-24.00"/>
<path class="stroke" stroke-width="1"
	d="M159.60 312.80v-24.00"/>
<path class="stroke" stroke-width="1"
	d="M246.00 250.80v-24.00"/>
<path class="stroke" stroke-width="1"
	d="M246.00 312.80v-24.00"/>
<path class="stroke" stroke-width="1"
	d="M324.50 250.80v-24.00"/>
<path class="stroke" stroke-width="1"
	d="M324.50 312.80v-24.00"/>
<path class="stroke" stroke-width="1"
	d="M449.90 250.80v-24.00"/>
<path class="stroke" stroke-width="1"
	d="M449.90 312.80v-24.00"/>
<path class="stroke" stroke-width="1"
	d="M528.40 250.80v-24.00"/>
<path class="stroke" stroke-width="1"
	d="M528.40 312.80v-24.00"/>
<path class="stroke" stroke-width="1"
	d="M691.60 250.80v-24.00"/>
<path class="stroke" stroke-width="1"
	d="M691.60 312.80v-24.00"/>
<path d="m10.00 250.80
	h681.60
	M10.00 244.80
	h681.60
	M10.00 238.80
	h681.60
	M10.00 232.80
	h681.60
	M10.00 226.80
	h681.60
	" class="stroke"/>
<path d="m10.00 312.80
	h681.60
	M10.00 306.80
	h681.60
	M10.00 300.80
	h681.60
	M10.00 294.80
	h681.60
	M10.00 288.80
	h681.60
	" class="stroke"/>
</g>
<g stroke-width="0.70" style="font:bold 13.00px Times">
<text x="39.00" y="222.20">iii<tspan
	 style="font:italic 11.00px Times">m⁷</tspan></text>
</g>
<g stroke-width="0.70" style="font:bold 13.00px Times">
<text x="166.80" y="222.20">I<tspan
	 style="font:italic 11.00px Times">Δ⁷</tspan></text>
</g>
<g stroke-width="0.70" style="font:bold 13.00px Times">
<text x="262.00" y="204.20">iii<tspan
	 style="font:italic 11.00px Times">m⁷¹</tspan></text>
</g>
<g stroke-width="0.70" style="font:bold 13.00px Times">
<text x="329.00" y="222.20">vi<tspan
	 style="font:italic 11.00px Times">m⁷</tspan></text>
</g>
<g stroke-width="0.70" style="font:bold 13.00px Times">
<text x="465.90" y="203.20">ii<tspan
	 style="font:italic 11.00px Times">m⁷²</tspan></text>
</g>
<g stroke-width="0.70" style="font:bold 13.00px Times">
<text x="532.90" y="222.20">vii<tspan
	 style="font:italic 11.00px Times">ø⁷¹</tspan></text>
</g>
<g stroke-width="0.70" style="font:italic 11.00px Times">
<use x="22.00" y="244.80" xlink:href="#tclef"/>
<use x="47.00" y="250.80" xlink:href="#Hd"/>
<circle class="fill" cx="56.70" cy="247.80" r="1.2"/>
<path d="M50.50 250.80v-21.00" class="stroke"/>
<use x="172.60" y="250.80" xlink:href="#Hd"/>
<path d="M176.10 250.80v-21.00" class="stroke"/>
<use x="270.00" y="250.80" xlink:href="#hd"/>
<path d="M273.50 250.80v-40.00" class="stroke"/>
<use x="270.00" y="229.80" xlink:href="#hd"/>
<use x="297.30" y="220.80" xlink:href="#hl"/>
<use x="297.30" y="220.80" xlink:href="#Hd"/>
<path d="M293.80 220.80v40.00" class="stroke"/>
<use x="297.30" y="241.80" xlink:href="#Hd"/>
<use x="337.00" y="235.80" xlink:href="#hd"/>
<path d="M333.50 235.80v21.00" class="stroke"/>
<use x="376.80" y="238.80" xlink:href="#Hd"/>
<path d="M373.30 238.80v21.00" class="stroke"/>
<use x="473.90" y="220.80" xlink:href="#hl"/>
<use x="473.90" y="214.80" xlink:href="#hl"/>
<use x="473.90" y="211.80" xlink:href="#hd"/>
<path d="M470.40 211.80v40.00" class="stroke"/>
<use x="473.90" y="232.80" xlink:href="#hd"/>
<use x="501.10" y="220.80" xlink:href="#hl"/>
<use x="501.10" y="214.80" xlink:href="#hl"/>
<use x="501.10" y="214.80" xlink:href="#Hd"/>
<path d="M497.60 214.80v40.00" class="stroke"/>
<use x="501.10" y="235.80" xlink:href="#Hd"/>
<use x="540.90" y="238.80" xlink:href="#hd"/>
<path d="M537.40 238.80v21.00" class="stroke"/>
<use x="580.70" y="241.80" xlink:href="#Hd"/>
<circle class="fill" cx="589.40" cy="241.80" r="1.2"/>
<path d="M584.20 241.80v-21.00" class="stroke"/>
<use x="22.00" y="294.80" xlink:href="#bclef"/>
<use x="47.00" y="318.80" xlink:href="#hl"/>
<use x="47.00" y="318.80" xlink:href="#hd"/>
<path d="M50.50 318.80v-21.00" class="stroke"/>
<path class="fill"
	d="M50.50 297.80c0.6 5.6 9.6 9 5.6 18.4
	1.6 -6 -1.3 -11.6 -5.6 -12.8
"/>
<use x="67.20" y="291.80" xlink:href="#hd"/>
<path d="M63.70 291.80v21.00" class="stroke"/>
<path class="fill"
	d="M63.70 312.80c0.6 -5.6 9.6 -9 5.6 -18.4
	1.6 6 -1.3 11.6 -5.6 12.8
"/>
<use x="86.60" y="285.80" xlink:href="#hd"/>
<path d="M83.10 285.80v21.00" class="stroke"/>
<path class="fill"
	d="M83.10 306.80c0.6 -5.6 9.6 -9 5.6 -18.4
	1.6 6 -1.3 11.6 -5.6 12.8
"/>
<use x="106.10" y="282.80" xlink:href="#hl"/>
<use x="106.10" y="279.80" xlink:href="#hd"/>
<path d="M102.60 279.80v21.00" class="stroke"/>
<path class="fill"
	d="M102.60 300.80c0.6 -5.6 9.6 -9 5.6 -18.4
	1.6 6 -1.3 11.6 -5.6 12.8
"/>
<use x="125.70" y="282.80" xlink:href="#hl"/>
<use x="125.70" y="276.80" xlink:href="#hl"/>
<use x="125.70" y="276.80" xlink:href="#hd"/>
<path d="M122.20 276.80v24.00" class="stroke"/>
<path class="fill"
	d="M122.20 300.80c0.6 -5.6 9.6 -9 5.6 -18.4
	1.6 6 -1.3 11.6 -5.6 12.8
"/>
<use x="145.30" y="282.80" xlink:href="#hl"/>
<use x="145.30" y="276.80" xlink:href="#hl"/>
<use x="145.30" y="270.80" xlink:href="#hl"/>
<use x="145.30" y="270.80" xlink:href="#hd"/>
<path d="M141.80 270.80v30.00" class="stroke"/>
<path class="fill"
	d="M141.80 300.80c0.6 -5.6 9.6 -9 5.6 -18.4
	1.6 6 -1.3 11.6 -5.6 12.8
"/>
<use x="172.60" y="318.80" xlink:href="#hl"/>
<use x="172.60" y="324.80" xlink:href="#hl"/>
<use x="172.60" y="324.80" xlink:href="#hd"/>
<path d="M176.10 324.80v-24.00" class="stroke"/>
<path class="fill"
	d="M176.10 300.80c0.6 5.6 9.6 9 5.6 18.4
	1.6 -6 -1.3 -11.6 -5.6 -12.8
"/>
<use x="192.80" y="297.80" xlink:href="#hd"/>
<path d="M189.30 297.80v21.00" class="stroke"/>
<path class="fill"
	d="M189.30 318.80c0.6 -5.6 9.6 -9 5.6 -18.4
	1.6 6 -1.3 11.6 -5.6 12.8
"/>
<use x="212.20" y="291.80" xlink:href="#hd"/>
<path d="M208.70 291.80v21.00" class="stroke"/>
<path class="fill"
	d="M208.70 312.80c0.6 -5.6 9.6 -9 5.6 -18.4
	1.6 6 -1.3 11.6 -5.6 12.8
"/>
<use x="231.60" y="285.80" xlink:href="#hd"/>
<path d="M228.10 285.80v21.00" class="stroke"/>
<path class="fill"
	d="M228.10 306.80c0.6 -5.6 9.6 -9 5.6 -18.4
	1.6 6 -1.3 11.6 -5.6 12.8
"/>
<use x="270.00" y="318.80" xlink:href="#hl"/>
<use x="270.00" y="318.80" xlink:href="#Hd"/>
<circle class="fill" cx="278.70" cy="315.80" r="1.2"/>
<path d="M273.50 318.80v-37.00" class="stroke"/>
<use x="270.00" y="312.80" xlink:href="#Hd"/>
<circle class="fill" cx="278.70" cy="309.80" r="1.2"/>
<use x="270.00" y="306.80" xlink:href="#Hd"/>
<circle class="fill" cx="278.70" cy="303.80" r="1.2"/>
<use x="270.00" y="300.80" xlink:href="#Hd"/>
<circle class="fill" cx="278.70" cy="297.80" r="1.2"/>
<use x="337.00" y="318.80" xlink:href="#hl"/>
<use x="337.00" y="324.80" xlink:href="#hl"/>
<use x="337.00" y="330.80" xlink:href="#hl"/>
<use x="337.00" y="330.80" xlink:href="#hd"/>
<path d="M340.50 330.80v-40.00" class="stroke"/>
<path class="fill"
	d="M340.50 290.80c0.6 5.6 9.6 9 5.6 18.4
	1.6 -6 -1.3 -11.6 -5.6 -12.8
"/>
<use x="337.00" y="309.80" xlink:href="#hd"/>
<use x="357.20" y="282.80" xlink:href="#hl"/>
<use x="357.20" y="282.80" xlink:href="#hd"/>
<path d="M353.70 282.80v21.00" class="stroke"/>
<path class="fill"
	d="M353.70 303.80c0.6 -5.6 9.6 -9 5.6 -18.4
	1.6 6 -1.3 11.6 -5.6 12.8
"/>
<use x="376.80" y="282.80" xlink:href="#hl"/>
<use x="376.80" y="276.80" xlink:href="#hl"/>
<use x="376.80" y="276.80" xlink:href="#hd"/>
<path d="M373.30 276.80v24.00" class="stroke"/>
<path class="fill"
	d="M373.30 300.80c0.6 -5.6 9.6 -9 5.6 -18.4
	1.6 6 -1.3 11.6 -5.6 12.8
"/>
<use x="396.40" y="282.80" xlink:href="#hl"/>
<use x="396.40" y="276.80" xlink:href="#hl"/>
<use x="396.40" y="270.80" xlink:href="#hl"/>
<use x="396.40" y="270.80" xlink:href="#hd"/>
<path d="M392.90 270.80v30.00" class="stroke"/>
<path class="fill"
	d="M392.90 300.80c0.6 -5.6 9.6 -9 5.6 -18.4
	1.6 6 -1.3 11.6 -5.6 12.8
"/>
<use x="416.00" y="282.80" xlink:href="#hl"/>
<use x="416.00" y="276.80" xlink:href="#hl"/>
<use x="416.00" y="270.80" xlink:href="#hl"/>
<use x="416.00" y="267.80" xlink:href="#hd"/>
<path d="M412.50 267.80v33.00" class="stroke"/>
<path class="fill"
	d="M412.50 300.80c0.6 -5.6 9.6 -9 5.6 -18.4
	1.6 6 -1.3 11.6 -5.6 12.8
"/>
<use x="435.60" y="282.80" xlink:href="#hl"/>
<use x="435.60" y="276.80" xlink:href="#hl"/>
<use x="435.60" y="270.80" xlink:href="#hl"/>
<use x="435.60" y="264.80" xlink:href="#hl"/>
<use x="435.60" y="261.80" xlink:href="#hd"/>
<path d="M432.10 261.80v39.00" class="stroke"/>
<path class="fill"
	d="M432.10 300.80c0.6 -5.6 9.6 -9 5.6 -18.4
	1.6 6 -1.3 11.6 -5.6 12.8
"/>
<use x="473.90" y="318.80" xlink:href="#hl"/>
<use x="473.90" y="321.80" xlink:href="#Hd"/>
<circle class="fill" cx="482.60" cy="321.80" r="1.2"/>
<path d="M477.40 321.80v-37.00" class="stroke"/>
<use x="473.90" y="315.80" xlink:href="#Hd"/>
<circle class="fill" cx="482.60" cy="315.80" r="1.2"/>
<use x="473.90" y="309.80" xlink:href="#Hd"/>
<circle class="fill" cx="482.60" cy="309.80" r="1.2"/>
<use x="473.90" y="303.80" xlink:href="#Hd"/>
<circle class="fill" cx="482.60" cy="303.80" r="1.2"/>
<use x="540.90" y="318.80" xlink:href="#hl"/>
<use x="540.90" y="324.80" xlink:href="#hl"/>
<use x="540.90" y="327.80" xlink:href="#hd"/>
<path d="M544.40 327.80v-40.00" class="stroke"/>
<path class="fill"
	d="M544.40 287.80c0.6 5.6 9.6 9 5.6 18.4
	1.6 -6 -1.3 -11.6 -5.6 -12.8
"/>
<use x="540.90" y="306.80" xlink:href="#hd"/>
<use x="561.10" y="282.80" xlink:href="#hl"/>
<use x="561.10" y="279.80" xlink:href="#hd"/>
<path d="M557.60 279.80v21.00" class="stroke"/>
<path class="fill"
	d="M557.60 300.80c0.6 -5.6 9.6 -9 5.6 -18.4
	1.6 6 -1.3 11.6 -5.6 12.8
"/>
<use x="580.70" y="282.80" xlink:href="#hl"/>
<use x="580.70" y="276.80" xlink:href="#hl"/>
<use x="580.70" y="273.80" xlink:href="#hd"/>
<path d="M577.20 273.80v27.00" class="stroke"/>
<path class="fill"
	d="M577.20 300.80c0.6 -5.6 9.6 -9 5.6 -18.4
	1.6 6 -1.3 11.6 -5.6 12.8
"/>
<use x="600.30" y="282.80" xlink:href="#hl"/>
<use x="600.30" y="276.80" xlink:href="#hl"/>
<use x="600.30" y="270.80" xlink:href="#hl"/>
<use x="600.30" y="267.80" xlink:href="#hd"/>
<path d="M596.80 267.80v33.00" class="stroke"/>
<path class="fill"
	d="M596.80 300.80c0.6 -5.6 9.6 -9 5.6 -18.4
	1.6 6 -1.3 11.6 -5.6 12.8
"/>
<use x="619.90" y="282.80" xlink:href="#hl"/>
<use x="619.90" y="276.80" xlink:href="#hl"/>
<use x="619.90" y="270.80" xlink:href="#hl"/>
<use x="619.90" y="264.80" xlink:href="#hl"/>
<use x="619.90" y="264.80" xlink:href="#hd"/>
<path d="M616.40 264.80v36.00" class="stroke"/>
<path class="fill"
	d="M616.40 300.80c0.6 -5.6 9.6 -9 5.6 -18.4
	1.6 6 -1.3 11.6 -5.6 12.8
"/>
<use x="639.50" y="282.80" xlink:href="#hl"/>
<use x="639.50" y="276.80" xlink:href="#hl"/>
<use x="639.50" y="270.80" xlink:href="#hl"/>
<use x="639.50" y="264.80" xlink:href="#hl"/>
<use x="639.50" y="258.80" xlink:href="#hl"/>
<use x="639.50" y="258.80" xlink:href="#hd"/>
<path d="M636.00 258.80v42.00" class="stroke"/>
<path class="fill"
	d="M636.00 300.80c0.6 -5.6 9.6 -9 5.6 -18.4
	1.6 6 -1.3 11.6 -5.6 12.8
"/>
<use x="657.10" y="306.80" xlink:href="#hd"/>
<path d="M660.60 306.80v-21.00" class="stroke"/>
<path class="fill"
	d="M660.60 285.80c0.6 5.6 9.6 9 5.6 18.4
	1.6 -6 -1.3 -11.6 -5.6 -12.8
"/>
<use x="677.30" y="282.80" xlink:href="#hl"/>
<use x="677.30" y="279.80" xlink:href="#hd"/>
<path d="M673.80 279.80v21.00" class="stroke"/>
<path class="fill"
	d="M673.80 300.80c0.6 -5.6 9.6 -9 5.6 -18.4
	1.6 6 -1.3 11.6 -5.6 12.8
"/>
<g transform="rotate(270)">
<use x="-321.80" y="260.00" xlink:href="#ltr"/>
<use x="-315.80" y="260.00" xlink:href="#ltr"/>
<use x="-309.80" y="260.00" xlink:href="#ltr"/>
<use x="-303.80" y="260.00" xlink:href="#ltr"/>
</g>
<text x="329.50" y="217.80" style="font:bold italic 30px serif">,</text>
<g transform="rotate(270)">
<use x="-324.80" y="463.90" xlink:href="#ltr"/>
<use x="-318.80" y="463.90" xlink:href="#ltr"/>
<use x="-312.80" y="463.90" xlink:href="#ltr"/>
<use x="-306.80" y="463.90" xlink:href="#ltr"/>
</g>
<text x="533.40" y="217.80" style="font:bold italic 30px serif">,</text>
</g>
<g stroke-width="0.70" style="font:italic 11.00px Times">
<path class="stroke" stroke-width="1"
	d="M10.00 443.20v-82.00"/>
<g transform="translate(10.00,361.20) scale(1,0.82)">
	<use xlink:href="#brace"/>
</g>
<path class="stroke" stroke-width="1"
	d="M124.00 385.20v-24.00"/>
<path class="stroke" stroke-width="1"
	d="M124.00 443.20v-24.00"/>
<path class="stroke" stroke-width="1"
	d="M210.80 385.20v-24.00"/>
<path class="stroke" stroke-width="1"
	d="M210.80 443.20v-24.00"/>
<path class="stroke" stroke-width="1"
	d="M300.60 385.20v-24.00"/>
<path class="stroke" stroke-width="1"
	d="M300.60 443.20v-24.00"/>
<path class="stroke" stroke-width="1"
	d="M430.90 385.20v-24.00"/>
<path class="stroke" stroke-width="1"
	d="M430.90 443.20v-24.00"/>
<path class="stroke" stroke-width="1"
	d="M561.20 385.20v-24.00"/>
<path class="stroke" stroke-width="1"
	d="M561.20 443.20v-24.00"/>
<path class="stroke" stroke-width="1"
	d="M691.60 385.20v-24.00"/>
<path class="stroke" stroke-width="1"
	d="M691.60 443.20v-24.00"/>
<path d="m10.00 385.20
	h681.60
	M10.00 379.20
	h681.60
	M10.00 373.20
	h681.60
	M10.00 367.20
	h681.60
	M10.00 361.20
	h681.60
	" class="stroke"/>
<path d="m10.00 443.20
	h681.60
	M10.00 437.20
	h681.60
	M10.00 431.20
	h681.60
	M10.00 425.20
	h681.60
	M10.00 419.20
	h681.60
	" class="stroke"/>
</g>
<g stroke-width="0.70" style="font:bold 13.00px Times">
<text x="39.00" y="348.60">vi<tspan
	 style="font:italic 11.00px Times">m⁷¹</tspan></text>
</g>
<g stroke-width="0.70" style="font:bold 13.00px Times">
<text x="141.00" y="346.60">vi<tspan
	 style="font:italic 11.00px Times">m⁷</tspan></text>
</g>
<g stroke-width="0.70" style="font:bold 13.00px Times">
<text x="218.10" y="348.60">I<tspan
	 style="font:italic 11.00px Times">Δ⁷</tspan></text>
</g>
<g stroke-width="0.70" style="font:bold 13.00px Times">
<text x="307.30" y="354.60">I<tspan
	 style="font:italic 11.00px Times">Δ⁷</tspan></text>
</g>
<g stroke-width="0.70" style="font:bold 13.00px Times">
<text x="437.60" y="356.60">I<tspan
	 style="font:italic 11.00px Times">Δ⁷</tspan></text>
</g>
<g stroke-width="0.70" style="font:bold 13.00px Times">
<text x="565.70" y="354.60">ii<tspan
	 style="font:italic 11.00px Times">m⁷</tspan></text>
</g>
<g stroke-width="0.70" style="font:italic 11.00px Times">
<use x="22.00" y="379.20" xlink:href="#tclef"/>
<use x="47.00" y="376.20" xlink:href="#Hd"/>
<path d="M50.50 376.20v-21.00" class="stroke"/>
<use x="149.00" y="358.20" xlink:href="#hd"/>
<path d="M145.50 358.20v40.00" class="stroke"/>
<use x="149.00" y="379.20" xlink:href="#hd"/>
<use x="177.70" y="355.20" xlink:href="#hl"/>
<use x="177.70" y="355.20" xlink:href="#Hd"/>
<circle class="fill" cx="186.40" cy="352.20" r="1.2"/>
<path d="M174.20 355.20v40.00" class="stroke"/>
<use x="177.70" y="376.20" xlink:href="#Hd"/>
<circle class="fill" cx="186.40" cy="376.20" r="1.2"/>
<use x="223.80" y="376.20" xlink:href="#Hd"/>
<path d="M227.30 376.20v-21.00" class="stroke"/>
<use x="313.10" y="370.20" xlink:href="#hd"/>
<path d="M309.60 370.20v21.00" class="stroke"/>
<use x="354.60" y="370.20" xlink:href="#Hd"/>
<path d="M351.10 370.20v21.00" class="stroke"/>
<use x="443.40" y="367.20" xlink:href="#hd"/>
<path d="M439.90 367.20v21.00" class="stroke"/>
<use x="484.90" y="370.20" xlink:href="#Hd"/>
<path d="M481.40 370.20v21.00" class="stroke"/>
<use x="573.70" y="373.20" xlink:href="#hd"/>
<path d="M570.20 373.20v21.00" class="stroke"/>
<use x="615.20" y="370.20" xlink:href="#Hd"/>
<path d="M611.70 370.20v21.00" class="stroke"/>
<use x="22.00" y="425.20" xlink:href="#bclef"/>
<use x="47.00" y="440.20" xlink:href="#hd"/>
<path d="M50.50 440.20v-21.00" class="stroke"/>
<path class="fill"
	d="M50.50 419.20c0.6 5.6 9.6 9 5.6 18.4
	1.6 -6 -1.3 -11.6 -5.6 -12.8
"/>
<use x="68.00" y="413.20" xlink:href="#hl"/>
<use x="68.00" y="413.20" xlink:href="#hd"/>
<path d="M64.50 413.20v21.00" class="stroke"/>
<path class="fill"
	d="M64.50 434.20c0.6 -5.6 9.6 -9 5.6 -18.4
	1.6 6 -1.3 11.6 -5.6 12.8
"/>
<use x="88.60" y="413.20" xlink:href="#hl"/>
<use x="88.60" y="407.20" xlink:href="#hl"/>
<use x="88.60" y="407.20" xlink:href="#hd"/>
<path d="M85.10 407.20v24.00" class="stroke"/>
<path class="fill"
	d="M85.10 431.20c0.6 -5.6 9.6 -9 5.6 -18.4
	1.6 6 -1.3 11.6 -5.6 12.8
"/>
<use x="109.20" y="413.20" xlink:href="#hl"/>
<use x="109.20" y="407.20" xlink:href="#hl"/>
<use x="109.20" y="401.20" xlink:href="#hl"/>
<use x="109.20" y="401.20" xlink:href="#hd"/>
<path d="M105.70 401.20v30.00" class="stroke"/>
<path class="fill"
	d="M105.70 431.20c0.6 -5.6 9.6 -9 5.6 -18.4
	1.6 6 -1.3 11.6 -5.6 12.8
"/>
<defs>
<path id="HD" class="fill" d="m-2.7 -1.4
	c1.5 -2.8 6.9 0 5.3 2.7
	-1.5 2.8 -6.9 0 -5.3 -2.7
	m8.3 1.4
	c0 -1.5 -2.2 -3 -5.6 -3
	-3.4 0 -5.6 1.5 -5.6 3
	0 1.5 2.2 3 5.6 3
	3.4 0 5.6 -1.5 5.6 -3"/>
</defs>
<use x="150.00" y="422.20" xlink:href="#HD"/>
<use x="150.00" y="440.20" xlink:href="#HD"/>
<use x="150.00" y="434.20" xlink:href="#HD"/>
<use x="150.00" y="428.20" xlink:href="#HD"/>
<use x="223.80" y="449.20" xlink:href="#hl"/>
<use x="223.80" y="455.20" xlink:href="#hl"/>
<use x="223.80" y="461.20" xlink:href="#hl"/>
<use x="223.80" y="467.20" xlink:href="#hl"/>
<use x="223.80" y="473.20" xlink:href="#hl"/>
<use x="223.80" y="476.20" xlink:href="#hd"/>
<path d="M227.30 476.20v-45.00" class="stroke"/>
<path class="fill"
	d="M227.30 431.20c0.6 5.6 9.6 9 5.6 18.4
	1.6 -6 -1.3 -11.6 -5.6 -12.8
"/>
<use x="223.80" y="455.20" xlink:href="#hd"/>
<use x="244.80" y="428.20" xlink:href="#hd"/>
<path d="M241.30 428.20v21.00" class="stroke"/>
<path class="fill"
	d="M241.30 449.20c0.6 -5.6 9.6 -9 5.6 -18.4
	1.6 6 -1.3 11.6 -5.6 12.8
"/>
<use x="265.30" y="422.20" xlink:href="#hd"/>
<path d="M261.80 422.20v21.00" class="stroke"/>
<path class="fill"
	d="M261.80 443.20c0.6 -5.6 9.6 -9 5.6 -18.4
	1.6 6 -1.3 11.6 -5.6 12.8
"/>
<use x="285.70" y="416.20" xlink:href="#hd"/>
<path d="M282.20 416.20v21.00" class="stroke"/>
<path class="fill"
	d="M282.20 437.20c0.6 -5.6 9.6 -9 5.6 -18.4
	1.6 6 -1.3 11.6 -5.6 12.8
"/>
<use x="313.10" y="449.20" xlink:href="#hl"/>
<use x="313.10" y="455.20" xlink:href="#hl"/>
<use x="313.10" y="455.20" xlink:href="#hd"/>
<path d="M316.60 455.20v-24.00" class="stroke"/>
<path class="fill"
	d="M316.60 431.20c0.6 5.6 9.6 9 5.6 18.4
	1.6 -6 -1.3 -11.6 -5.6 -12.8
"/>
<use x="334.10" y="428.20" xlink:href="#hd"/>
<path d="M330.60 428.20v21.00" class="stroke"/>
<path class="fill"
	d="M330.60 449.20c0.6 -5.6 9.6 -9 5.6 -18.4
	1.6 6 -1.3 11.6 -5.6 12.8
"/>
<use x="354.60" y="422.20" xlink:href="#hd"/>
<path d="M351.10 422.20v21.00" class="stroke"/>
<path class="fill"
	d="M351.10 443.20c0.6 -5.6 9.6 -9 5.6 -18.4
	1.6 6 -1.3 11.6 -5.6 12.8
"/>
<use x="375.00" y="416.20" xlink:href="#hd"/>
<path d="M371.50 416.20v21.00" class="stroke"/>
<path class="fill"
	d="M371.50 437.20c0.6 -5.6 9.6 -9 5.6 -18.4
	1.6 6 -1.3 11.6 -5.6 12.8
"/>
<use x="395.50" y="413.20" xlink:href="#hl"/>
<use x="395.50" y="413.20" xlink:href="#hd"/>
<path d="M392.00 413.20v21.00" class="stroke"/>
<path class="fill"
	d="M392.00 434.20c0.6 -5.6 9.6 -9 5.6 -18.4
	1.6 6 -1.3 11.6 -5.6 12.8
"/>
<use x="416.00" y="413.20" xlink:href="#hl"/>
<use x="416.00" y="407.20" xlink:href="#hl"/>
<use x="416.00" y="407.20" xlink:href="#hd"/>
<path d="M412.50 407.20v24.00" class="stroke"/>
<path class="fill"
	d="M412.50 431.20c0.6 -5.6 9.6 -9 5.6 -18.4
	1.6 6 -1.3 11.6 -5.6 12.8
"/>
<use x="443.40" y="449.20" xlink:href="#hl"/>
<use x="443.40" y="455.20" xlink:href="#hl"/>
<use x="443.40" y="455.20" xlink:href="#hd"/>
<path d="M446.90 455.20v-24.00" class="stroke"/>
<path class="fill"
	d="M446.90 431.20c0.6 5.6 9.6 9 5.6 18.4
	1.6 -6 -1.3 -11.6 -5.6 -12.8
"/>
<use x="464.40" y="428.20" xlink:href="#hd"/>
<path d="M460.90 428.20v21.00" class="stroke"/>
<path class="fill"
	d="M460.90 449.20c0.6 -5.6 9.6 -9 5.6 -18.4
	1.6 6 -1.3 11.6 -5.6 12.8
"/>
<use x="484.90" y="422.20" xlink:href="#hd"/>
<path d="M481.40 422.20v21.00" class="stroke"/>
<path class="fill"
	d="M481.40 443.20c0.6 -5.6 9.6 -9 5.6 -18.4
	1.6 6 -1.3 11.6 -5.6 12.8
"/>
<use x="505.30" y="416.20" xlink:href="#hd"/>
<path d="M501.80 416.20v21.00" class="stroke"/>
<path class="fill"
	d="M501.80 437.20c0.6 -5.6 9.6 -9 5.6 -18.4
	1.6 6 -1.3 11.6 -5.6 12.8
"/>
<use x="525.80" y="413.20" xlink:href="#hl"/>
<use x="525.80" y="413.20" xlink:href="#hd"/>
<path d="M522.30 413.20v21.00" class="stroke"/>
<path class="fill"
	d="M522.30 434.20c0.6 -5.6 9.6 -9 5.6 -18.4
	1.6 6 -1.3 11.6 -5.6 12.8
"/>
<use x="546.30" y="413.20" xlink:href="#hl"/>
<use x="546.30" y="407.20" xlink:href="#hl"/>
<use x="546.30" y="407.20" xlink:href="#hd"/>
<path d="M542.80 407.20v24.00" class="stroke"/>
<path class="fill"
	d="M542.80 431.20c0.6 -5.6 9.6 -9 5.6 -18.4
	1.6 6 -1.3 11.6 -5.6 12.8
"/>
<use x="573.70" y="449.20" xlink:href="#hl"/>
<use x="573.70" y="452.20" xlink:href="#hd"/>
<path d="M577.20 452.20v-21.00" class="stroke"/>
<path class="fill"
	d="M577.20 431.20c0.6 5.6 9.6 9 5.6 18.4
	1.6 -6 -1.3 -11.6 -5.6 -12.8
"/>
<use x="594.70" y="425.20" xlink:href="#hd"/>
<path d="M591.20 425.20v21.00" class="stroke"/>
<path class="fill"
	d="M591.20 446.20c0.6 -5.6 9.6 -9 5.6 -18.4
	1.6 6 -1.3 11.6 -5.6 12.8
"/>
<use x="615.20" y="419.20" xlink:href="#hd"/>
<path d="M611.70 419.20v21.00" class="stroke"/>
<path class="fill"
	d="M611.70 440.20c0.6 -5.6 9.6 -9 5.6 -18.4
	1.6 6 -1.3 11.6 -5.6 12.8
"/>
<use x="635.60" y="413.20" xlink:href="#hl"/>
<use x="635.60" y="413.20" xlink:href="#hd"/>
<path d="M632.10 413.20v21.00" class="stroke"/>
<path class="fill"
	d="M632.10 434.20c0.6 -5.6 9.6 -9 5.6 -18.4
	1.6 6 -1.3 11.6 -5.6 12.8
"/>
<use x="656.20" y="413.20" xlink:href="#hl"/>
<use x="656.20" y="410.20" xlink:href="#hd"/>
<path d="M652.70 410.20v21.00" class="stroke"/>
<path class="fill"
	d="M652.70 431.20c0.6 -5.6 9.6 -9 5.6 -18.4
	1.6 6 -1.3 11.6 -5.6 12.8
"/>
<use x="676.80" y="413.20" xlink:href="#hl"/>
<use x="676.80" y="407.20" xlink:href="#hl"/>
<use x="676.80" y="404.20" xlink:href="#hd"/>
<path d="M673.30 404.20v27.00" class="stroke"/>
<path class="fill"
	d="M673.30 431.20c0.6 -5.6 9.6 -9 5.6 -18.4
	1.6 6 -1.3 11.6 -5.6 12.8
"/>
<g transform="rotate(270)">
<use x="-443.20" y="136.50" xlink:href="#ltr"/>
<use x="-437.20" y="136.50" xlink:href="#ltr"/>
<use x="-431.20" y="136.50" xlink:href="#ltr"/>
<use x="-425.20" y="136.50" xlink:href="#ltr"/>
</g>
<text x="216.00" y="352.20" style="font:bold italic 30px serif">,</text>
</g>
<g stroke-width="0.70" style="font:italic 11.00px Times">
<path class="stroke" stroke-width="1"
	d="M10.00 593.20v-88.00"/>
<g transform="translate(10.00,505.20) scale(1,0.88)">
	<use xlink:href="#brace"/>
</g>
<path class="stroke" stroke-width="1"
	d="M165.70 529.20v-24.00"/>
<path class="stroke" stroke-width="1"
	d="M165.70 593.20v-24.00"/>
<path class="stroke" stroke-width="1"
	d="M337.00 529.20v-24.00"/>
<path class="stroke" stroke-width="1"
	d="M337.00 593.20v-24.00"/>
<path class="stroke" stroke-width="1"
	d="M469.00 529.20v-24.00"/>
<path class="stroke" stroke-width="1"
	d="M469.00 593.20v-24.00"/>
<path class="stroke" stroke-width="1"
	d="M601.10 529.20v-24.00"/>
<path class="stroke" stroke-width="1"
	d="M601.10 593.20v-24.00"/>
<path class="stroke" stroke-width="1"
	d="M691.60 529.20v-24.00"/>
<path class="stroke" stroke-width="1"
	d="M691.60 593.20v-24.00"/>
<path d="m10.00 529.20
	h681.60
	M10.00 523.20
	h681.60
	M10.00 517.20
	h681.60
	M10.00 511.20
	h681.60
	M10.00 505.20
	h681.60
	" class="stroke"/>
<path d="m10.00 593.20
	h681.60
	M10.00 587.20
	h681.60
	M10.00 581.20
	h681.60
	M10.00 575.20
	h681.60
	M10.00 569.20
	h681.60
	" class="stroke"/>
</g>
<g stroke-width="0.70" style="font:bold 13.00px Times">
<text x="38.50" y="500.60">vii<tspan
	 style="font:italic 11.00px Times">ø⁷¹</tspan></text>
</g>
<g stroke-width="0.70" style="font:bold 13.00px Times">
<text x="172.50" y="499.60">I<tspan
	 style="font:italic 11.00px Times">Δ⁷</tspan></text>
</g>
<g stroke-width="0.70" style="font:bold 13.00px Times">
<text x="342.00" y="500.60">ii<tspan
	 style="font:italic 11.00px Times">m⁷¹</tspan></text>
</g>
<g stroke-width="0.70" style="font:bold 13.00px Times">
<text x="476.10" y="500.60">V<tspan
	 style="font:italic 11.00px Times">⁷</tspan></text>
</g>
<g stroke-width="0.70" style="font:bold 13.00px Times">
<text x="608.20" y="500.60">V<tspan
	 style="font:italic 11.00px Times">⁷</tspan></text>
</g>
<g stroke-width="0.70" style="font:italic 11.00px Times">
<use x="22.00" y="523.20" xlink:href="#tclef"/>
<use x="46.50" y="511.20" xlink:href="#hd"/>
<path d="M43.00 511.20v21.00" class="stroke"/>
<use x="88.40" y="508.20" xlink:href="#Hd"/>
<path d="M84.90 508.20v21.00" class="stroke"/>
<use x="178.20" y="508.20" xlink:href="#hd"/>
<path d="M174.70 508.20v21.00" class="stroke"/>
<use x="220.10" y="511.20" xlink:href="#Hd"/>
<circle class="fill" cx="228.80" cy="508.20" r="1.2"/>
<path d="M216.60 511.20v21.00" class="stroke"/>
<use x="350.00" y="514.20" xlink:href="#Hd"/>
<circle class="fill" cx="358.70" cy="514.20" r="1.2"/>
<path d="M346.50 514.20v21.00" class="stroke"/>
<use x="482.00" y="517.20" xlink:href="#Hd"/>
<circle class="fill" cx="490.70" cy="514.20" r="1.2"/>
<path d="M478.50 517.20v21.00" class="stroke"/>
<use x="614.10" y="517.20" xlink:href="#Hd"/>
<path d="M610.60 517.20v21.00" class="stroke"/>
<use x="22.00" y="575.20" xlink:href="#bclef"/>
<use x="46.50" y="587.20" xlink:href="#hd"/>
<path d="M50.00 587.20v-21.00" class="stroke"/>
<path class="fill"
	d="M50.00 566.20c0.6 5.6 9.6 9 5.6 18.4
	1.6 -6 -1.3 -11.6 -5.6 -12.8
"/>
<use x="67.60" y="563.20" xlink:href="#hl"/>
<use x="67.60" y="560.20" xlink:href="#hd"/>
<path d="M64.10 560.20v21.00" class="stroke"/>
<path class="fill"
	d="M64.10 581.20c0.6 -5.6 9.6 -9 5.6 -18.4
	1.6 6 -1.3 11.6 -5.6 12.8
"/>
<use x="88.40" y="563.20" xlink:href="#hl"/>
<use x="88.40" y="557.20" xlink:href="#hl"/>
<use x="88.40" y="554.20" xlink:href="#hd"/>
<path d="M84.90 554.20v27.00" class="stroke"/>
<path class="fill"
	d="M84.90 581.20c0.6 -5.6 9.6 -9 5.6 -18.4
	1.6 6 -1.3 11.6 -5.6 12.8
"/>
<use x="109.20" y="563.20" xlink:href="#hl"/>
<use x="109.20" y="557.20" xlink:href="#hl"/>
<use x="109.20" y="551.20" xlink:href="#hl"/>
<use x="109.20" y="548.20" xlink:href="#hd"/>
<path d="M105.70 548.20v33.00" class="stroke"/>
<path class="fill"
	d="M105.70 581.20c0.6 -5.6 9.6 -9 5.6 -18.4
	1.6 6 -1.3 11.6 -5.6 12.8
"/>
<use x="130.00" y="563.20" xlink:href="#hl"/>
<use x="130.00" y="557.20" xlink:href="#hl"/>
<use x="130.00" y="551.20" xlink:href="#hl"/>
<use x="130.00" y="545.20" xlink:href="#hl"/>
<use x="130.00" y="545.20" xlink:href="#hd"/>
<path d="M126.50 545.20v36.00" class="stroke"/>
<path class="fill"
	d="M126.50 581.20c0.6 -5.6 9.6 -9 5.6 -18.4
	1.6 6 -1.3 11.6 -5.6 12.8
"/>
<use x="150.80" y="563.20" xlink:href="#hl"/>
<use x="150.80" y="557.20" xlink:href="#hl"/>
<use x="150.80" y="551.20" xlink:href="#hl"/>
<use x="150.80" y="545.20" xlink:href="#hl"/>
<use x="150.80" y="539.20" xlink:href="#hl"/>
<use x="150.80" y="539.20" xlink:href="#hd"/>
<path d="M147.30 539.20v42.00" class="stroke"/>
<path class="fill"
	d="M147.30 581.20c0.6 -5.6 9.6 -9 5.6 -18.4
	1.6 6 -1.3 11.6 -5.6 12.8
"/>
<use x="178.20" y="599.20" xlink:href="#hl"/>
<use x="178.20" y="605.20" xlink:href="#hl"/>
<use x="178.20" y="605.20" xlink:href="#hd"/>
<path d="M181.70 605.20v-24.00" class="stroke"/>
<path class="fill"
	d="M181.70 581.20c0.6 5.6 9.6 9 5.6 18.4
	1.6 -6 -1.3 -11.6 -5.6 -12.8
"/>
<use x="199.40" y="578.20" xlink:href="#hd"/>
<path d="M195.90 578.20v21.00" class="stroke"/>
<path class="fill"
	d="M195.90 599.20c0.6 -5.6 9.6 -9 5.6 -18.4
	1.6 6 -1.3 11.6 -5.6 12.8
"/>
<use x="220.10" y="572.20" xlink:href="#hd"/>
<path d="M216.60 572.20v21.00" class="stroke"/>
<path class="fill"
	d="M216.60 593.20c0.6 -5.6 9.6 -9 5.6 -18.4
	1.6 6 -1.3 11.6 -5.6 12.8
"/>
<use x="240.70" y="566.20" xlink:href="#hd"/>
<path d="M237.20 566.20v21.00" class="stroke"/>
<path class="fill"
	d="M237.20 587.20c0.6 -5.6 9.6 -9 5.6 -18.4
	1.6 6 -1.3 11.6 -5.6 12.8
"/>
<use x="261.40" y="563.20" xlink:href="#hl"/>
<use x="261.40" y="563.20" xlink:href="#hd"/>
<path d="M257.90 563.20v21.00" class="stroke"/>
<path class="fill"
	d="M257.90 584.20c0.6 -5.6 9.6 -9 5.6 -18.4
	1.6 6 -1.3 11.6 -5.6 12.8
"/>
<use x="282.20" y="563.20" xlink:href="#hl"/>
<use x="282.20" y="557.20" xlink:href="#hl"/>
<use x="282.20" y="557.20" xlink:href="#hd"/>
<path d="M278.70 557.20v24.00" class="stroke"/>
<path class="fill"
	d="M278.70 581.20c0.6 -5.6 9.6 -9 5.6 -18.4
	1.6 6 -1.3 11.6 -5.6 12.8
"/>
<use x="300.90" y="599.20" xlink:href="#hl"/>
<use x="300.90" y="605.20" xlink:href="#hl"/>
<use x="300.90" y="605.20" xlink:href="#hd"/>
<path d="M304.40 605.20v-24.00" class="stroke"/>
<path class="fill"
	d="M304.40 581.20c0.6 5.6 9.6 9 5.6 18.4
	1.6 -6 -1.3 -11.6 -5.6 -12.8
"/>
<use x="322.10" y="578.20" xlink:href="#hd"/>
<path d="M318.60 578.20v21.00" class="stroke"/>
<path class="fill"
	d="M318.60 599.20c0.6 -5.6 9.6 -9 5.6 -18.4
	1.6 6 -1.3 11.6 -5.6 12.8
"/>
<use x="350.00" y="599.20" xlink:href="#hl"/>
<use x="350.00" y="602.20" xlink:href="#hd"/>
<path d="M353.50 602.20v-21.00" class="stroke"/>
<path class="fill"
	d="M353.50 581.20c0.6 5.6 9.6 9 5.6 18.4
	1.6 -6 -1.3 -11.6 -5.6 -12.8
"/>
<use x="371.10" y="575.20" xlink:href="#hd"/>
<path d="M367.60 575.20v21.00" class="stroke"/>
<path class="fill"
	d="M367.60 596.20c0.6 -5.6 9.6 -9 5.6 -18.4
	1.6 6 -1.3 11.6 -5.6 12.8
"/>
<use x="391.80" y="569.20" xlink:href="#hd"/>
<path d="M388.30 569.20v21.00" class="stroke"/>
<path class="fill"
	d="M388.30 590.20c0.6 -5.6 9.6 -9 5.6 -18.4
	1.6 6 -1.3 11.6 -5.6 12.8
"/>
<use x="412.50" y="563.20" xlink:href="#hl"/>
<use x="412.50" y="563.20" xlink:href="#hd"/>
<path d="M409.00 563.20v21.00" class="stroke"/>
<path class="fill"
	d="M409.00 584.20c0.6 -5.6 9.6 -9 5.6 -18.4
	1.6 6 -1.3 11.6 -5.6 12.8
"/>
<use x="433.30" y="563.20" xlink:href="#hl"/>
<use x="433.30" y="560.20" xlink:href="#hd"/>
<path d="M429.80 560.20v21.00" class="stroke"/>
<path class="fill"
	d="M429.80 581.20c0.6 -5.6 9.6 -9 5.6 -18.4
	1.6 6 -1.3 11.6 -5.6 12.8
"/>
<use x="454.10" y="563.20" xlink:href="#hl"/>
<use x="454.10" y="557.20" xlink:href="#hl"/>
<use x="454.10" y="554.20" xlink:href="#hd"/>
<path d="M450.60 554.20v27.00" class="stroke"/>
<path class="fill"
	d="M450.60 581.20c0.6 -5.6 9.6 -9 5.6 -18.4
	1.6 6 -1.3 11.6 -5.6 12.8
"/>
<use x="482.00" y="593.20" xlink:href="#hd"/>
<path d="M485.50 593.20v-21.00" class="stroke"/>
<path class="fill"
	d="M485.50 572.20c0.6 5.6 9.6 9 5.6 18.4
	1.6 -6 -1.3 -11.6 -5.6 -12.8
"/>
<use x="503.10" y="566.20" xlink:href="#hd"/>
<path d="M499.60 566.20v21.00" class="stroke"/>
<path class="fill"
	d="M499.60 587.20c0.6 -5.6 9.6 -9 5.6 -18.4
	1.6 6 -1.3 11.6 -5.6 12.8
"/>
<use x="523.80" y="563.20" xlink:href="#hl"/>
<use x="523.80" y="560.20" xlink:href="#hd"/>
<path d="M520.30 560.20v21.00" class="stroke"/>
<path class="fill"
	d="M520.30 581.20c0.6 -5.6 9.6 -9 5.6 -18.4
	1.6 6 -1.3 11.6 -5.6 12.8
"/>
<use x="544.60" y="563.20" xlink:href="#hl"/>
<use x="544.60" y="557.20" xlink:href="#hl"/>
<use x="544.60" y="554.20" xlink:href="#hd"/>
<path d="M541.10 554.20v27.00" class="stroke"/>
<path class="fill"
	d="M541.10 581.20c0.6 -5.6 9.6 -9 5.6 -18.4
	1.6 6 -1.3 11.6 -5.6 12.8
"/>
<use x="565.40" y="563.20" xlink:href="#hl"/>
<use x="565.40" y="557.20" xlink:href="#hl"/>
<use x="565.40" y="551.20" xlink:href="#hl"/>
<use x="565.40" y="551.20" xlink:href="#hd"/>
<path d="M561.90 551.20v30.00" class="stroke"/>
<path class="fill"
	d="M561.90 581.20c0.6 -5.6 9.6 -9 5.6 -18.4
	1.6 6 -1.3 11.6 -5.6 12.8
"/>
<use x="586.20" y="563.20" xlink:href="#hl"/>
<use x="586.20" y="557.20" xlink:href="#hl"/>
<use x="586.20" y="551.20" xlink:href="#hl"/>
<use x="586.20" y="545.20" xlink:href="#hl"/>
<use x="586.20" y="545.20" xlink:href="#hd"/>
<path d="M582.70 545.20v36.00" class="stroke"/>
<path class="fill"
	d="M582.70 581.20c0.6 -5.6 9.6 -9 5.6 -18.4
	1.6 6 -1.3 11.6 -5.6 12.8
"/>
<use x="614.10" y="593.20" xlink:href="#hd"/>
<path d="M617.60 593.20v-21.00" class="stroke"/>
<path class="fill"
	d="M617.60 572.20c0.6 5.6 9.6 9 5.6 18.4
	1.6 -6 -1.3 -11.6 -5.6 -12.8
"/>
<use x="635.20" y="566.20" xlink:href="#hd"/>
<path d="M631.70 566.20v21.00" class="stroke"/>
<path class="fill"
	d="M631.70 587.20c0.6 -5.6 9.6 -9 5.6 -18.4
	1.6 6 -1.3 11.6 -5.6 12.8
"/>
<use x="655.90" y="563.20" xlink:href="#hl"/>
<use x="655.90" y="560.20" xlink:href="#hd"/>
<path d="M652.40 560.20v21.00" class="stroke"/>
<path class="fill"
	d="M652.40 581.20c0.6 -5.6 9.6 -9 5.6 -18.4
	1.6 6 -1.3 11.6 -5.6 12.8
"/>
<use x="676.70" y="563.20" xlink:href="#hl"/>
<use x="676.70" y="557.20" xlink:href="#hl"/>
<use x="676.70" y="554.20" xlink:href="#hd"/>
<path d="M673.20 554.20v27.00" class="stroke"/>
<path class="fill"
	d="M673.20 581.20c0.6 -5.6 9.6 -9 5.6 -18.4
	1.6 6 -1.3 11.6 -5.6 12.8
"/>
</g>
<g stroke-width="0.70" style="font:italic 11.00px Times">
<path class="stroke" stroke-width="1"
	d="M10.00 725.20v-86.00"/>
<g transform="translate(10.00,639.20) scale(1,0.86)">
	<use xlink:href="#brace"/>
</g>
<path class="stroke" stroke-width="1"
	d="M157.70 663.20v-24.00"/>
<path class="stroke" stroke-width="1"
	d="M157.70 725.20v-24.00"/>
<path class="stroke" stroke-width="1"
	d="M281.60 663.20v-24.00"/>
<path class="stroke" stroke-width="1"
	d="M281.60 725.20v-24.00"/>
<path class="stroke" stroke-width="1"
	d="M442.60 663.20v-24.00"/>
<path class="stroke" stroke-width="1"
	d="M442.60 725.20v-24.00"/>
<path class="stroke" stroke-width="1"
	d="M567.20 663.20v-24.00"/>
<path class="stroke" stroke-width="1"
	d="M567.20 725.20v-24.00"/>
<path class="stroke" stroke-width="1"
	d="M691.60 663.20v-24.00"/>
<path class="stroke" stroke-width="1"
	d="M691.60 725.20v-24.00"/>
<path d="m10.00 663.20
	h681.60
	M10.00 657.20
	h681.60
	M10.00 651.20
	h681.60
	M10.00 645.20
	h681.60
	M10.00 639.20
	h681.60
	" class="stroke"/>
<path d="m10.00 725.20
	h681.60
	M10.00 719.20
	h681.60
	M10.00 713.20
	h681.60
	M10.00 707.20
	h681.60
	M10.00 701.20
	h681.60
	" class="stroke"/>
</g>
<g stroke-width="0.70" style="font:bold 13.00px Times">
<text x="38.80" y="634.60">I<tspan
	 style="font:italic 11.00px Times">Δ⁷¹</tspan></text>
</g>
<g stroke-width="0.70" style="font:bold 13.00px Times">
<text x="162.20" y="632.60">ii<tspan
	 style="font:italic 11.00px Times">m⁷¹</tspan></text>
</g>
<g stroke-width="0.70" style="font:bold 13.00px Times">
<text x="288.40" y="626.60">I<tspan
	 style="font:italic 11.00px Times">Δ⁷</tspan></text>
</g>
<g stroke-width="0.70" style="font:bold 13.00px Times">
<text x="447.60" y="634.60">vii<tspan
	 style="font:italic 11.00px Times">ø⁷</tspan></text>
</g>
<g stroke-width="0.70" style="font:bold 13.00px Times">
<text x="572.20" y="626.60">iii<tspan
	 style="font:italic 11.00px Times">m⁷</tspan></text>
</g>
<g stroke-width="0.70" style="font:italic 11.00px Times">
<use x="22.00" y="657.20" xlink:href="#tclef"/>
<use x="46.50" y="648.20" xlink:href="#hd"/>
<path d="M43.00 648.20v21.00" class="stroke"/>
<use x="85.70" y="645.20" xlink:href="#Hd"/>
<path d="M82.20 645.20v21.00" class="stroke"/>
<use x="170.20" y="648.20" xlink:href="#hd"/>
<path d="M166.70 648.20v21.00" class="stroke"/>
<use x="209.40" y="651.20" xlink:href="#Hd"/>
<path d="M205.90 651.20v21.00" class="stroke"/>
<use x="294.10" y="654.20" xlink:href="#hd"/>
<path d="M297.60 654.20v-21.00" class="stroke"/>
<use x="333.30" y="651.20" xlink:href="#Hd"/>
<circle class="fill" cx="342.00" cy="648.20" r="1.2"/>
<path d="M336.80 651.20v-21.00" class="stroke"/>
<use x="455.60" y="663.20" xlink:href="#Hd"/>
<circle class="fill" cx="464.30" cy="660.20" r="1.2"/>
<path d="M459.10 663.20v-21.00" class="stroke"/>
<use x="580.20" y="654.20" xlink:href="#Hd"/>
<circle class="fill" cx="588.90" cy="654.20" r="1.2"/>
<path d="M583.70 654.20v-21.00" class="stroke"/>
<use x="22.00" y="707.20" xlink:href="#bclef"/>
<use x="46.50" y="731.20" xlink:href="#hl"/>
<use x="46.50" y="737.20" xlink:href="#hl"/>
<use x="46.50" y="737.20" xlink:href="#hd"/>
<path d="M50.00 737.20v-24.00" class="stroke"/>
<path class="fill"
	d="M50.00 713.20c0.6 5.6 9.6 9 5.6 18.4
	1.6 -6 -1.3 -11.6 -5.6 -12.8
"/>
<use x="66.40" y="710.20" xlink:href="#hd"/>
<path d="M62.90 710.20v21.00" class="stroke"/>
<path class="fill"
	d="M62.90 731.20c0.6 -5.6 9.6 -9 5.6 -18.4
	1.6 6 -1.3 11.6 -5.6 12.8
"/>
<use x="85.70" y="704.20" xlink:href="#hd"/>
<path d="M82.20 704.20v21.00" class="stroke"/>
<path class="fill"
	d="M82.20 725.20c0.6 -5.6 9.6 -9 5.6 -18.4
	1.6 6 -1.3 11.6 -5.6 12.8
"/>
<use x="105.00" y="698.20" xlink:href="#hd"/>
<path d="M101.50 698.20v21.00" class="stroke"/>
<path class="fill"
	d="M101.50 719.20c0.6 -5.6 9.6 -9 5.6 -18.4
	1.6 6 -1.3 11.6 -5.6 12.8
"/>
<use x="124.30" y="695.20" xlink:href="#hl"/>
<use x="124.30" y="695.20" xlink:href="#hd"/>
<path d="M120.80 695.20v21.00" class="stroke"/>
<path class="fill"
	d="M120.80 716.20c0.6 -5.6 9.6 -9 5.6 -18.4
	1.6 6 -1.3 11.6 -5.6 12.8
"/>
<use x="143.70" y="695.20" xlink:href="#hl"/>
<use x="143.70" y="689.20" xlink:href="#hl"/>
<use x="143.70" y="689.20" xlink:href="#hd"/>
<path d="M140.20 689.20v24.00" class="stroke"/>
<path class="fill"
	d="M140.20 713.20c0.6 -5.6 9.6 -9 5.6 -18.4
	1.6 6 -1.3 11.6 -5.6 12.8
"/>
<use x="170.20" y="731.20" xlink:href="#hl"/>
<use x="170.20" y="734.20" xlink:href="#hd"/>
<path d="M173.70 734.20v-21.00" class="stroke"/>
<path class="fill"
	d="M173.70 713.20c0.6 5.6 9.6 9 5.6 18.4
	1.6 -6 -1.3 -11.6 -5.6 -12.8
"/>
<use x="190.10" y="707.20" xlink:href="#hd"/>
<path d="M186.60 707.20v21.00" class="stroke"/>
<path class="fill"
	d="M186.60 728.20c0.6 -5.6 9.6 -9 5.6 -18.4
	1.6 6 -1.3 11.6 -5.6 12.8
"/>
<use x="209.40" y="701.20" xlink:href="#hd"/>
<path d="M205.90 701.20v21.00" class="stroke"/>
<path class="fill"
	d="M205.90 722.20c0.6 -5.6 9.6 -9 5.6 -18.4
	1.6 6 -1.3 11.6 -5.6 12.8
"/>
<use x="228.70" y="695.20" xlink:href="#hl"/>
<use x="228.70" y="695.20" xlink:href="#hd"/>
<path d="M225.20 695.20v21.00" class="stroke"/>
<path class="fill"
	d="M225.20 716.20c0.6 -5.6 9.6 -9 5.6 -18.4
	1.6 6 -1.3 11.6 -5.6 12.8
"/>
<use x="248.10" y="695.20" xlink:href="#hl"/>
<use x="248.10" y="692.20" xlink:href="#hd"/>
<path d="M244.60 692.20v21.00" class="stroke"/>
<path class="fill"
	d="M244.60 713.20c0.6 -5.6 9.6 -9 5.6 -18.4
	1.6 6 -1.3 11.6 -5.6 12.8
"/>
<use x="267.60" y="695.20" xlink:href="#hl"/>
<use x="267.60" y="689.20" xlink:href="#hl"/>
<use x="267.60" y="686.20" xlink:href="#hd"/>
<path d="M264.10 686.20v27.00" class="stroke"/>
<path class="fill"
	d="M264.10 713.20c0.6 -5.6 9.6 -9 5.6 -18.4
	1.6 6 -1.3 11.6 -5.6 12.8
"/>
<use x="294.10" y="731.20" xlink:href="#hl"/>
<use x="294.10" y="737.20" xlink:href="#hl"/>
<use x="294.10" y="737.20" xlink:href="#hd"/>
<path d="M297.60 737.20v-24.00" class="stroke"/>
<path class="fill"
	d="M297.60 713.20c0.6 5.6 9.6 9 5.6 18.4
	1.6 -6 -1.3 -11.6 -5.6 -12.8
"/>
<use x="314.00" y="710.20" xlink:href="#hd"/>
<path d="M310.50 710.20v21.00" class="stroke"/>
<path class="fill"
	d="M310.50 731.20c0.6 -5.6 9.6 -9 5.6 -18.4
	1.6 6 -1.3 11.6 -5.6 12.8
"/>
<use x="333.30" y="704.20" xlink:href="#hd"/>
<path d="M329.80 704.20v21.00" class="stroke"/>
<path class="fill"
	d="M329.80 725.20c0.6 -5.6 9.6 -9 5.6 -18.4
	1.6 6 -1.3 11.6 -5.6 12.8
"/>
<use x="352.60" y="698.20" xlink:href="#hd"/>
<path d="M349.10 698.20v21.00" class="stroke"/>
<path class="fill"
	d="M349.10 719.20c0.6 -5.6 9.6 -9 5.6 -18.4
	1.6 6 -1.3 11.6 -5.6 12.8
"/>
<use x="371.90" y="695.20" xlink:href="#hl"/>
<use x="371.90" y="695.20" xlink:href="#hd"/>
<path d="M368.40 695.20v21.00" class="stroke"/>
<path class="fill"
	d="M368.40 716.20c0.6 -5.6 9.6 -9 5.6 -18.4
	1.6 6 -1.3 11.6 -5.6 12.8
"/>
<use x="391.30" y="695.20" xlink:href="#hl"/>
<use x="391.30" y="689.20" xlink:href="#hl"/>
<use x="391.30" y="689.20" xlink:href="#hd"/>
<path d="M387.80 689.20v24.00" class="stroke"/>
<path class="fill"
	d="M387.80 713.20c0.6 -5.6 9.6 -9 5.6 -18.4
	1.6 6 -1.3 11.6 -5.6 12.8
"/>
<use x="408.70" y="731.20" xlink:href="#hl"/>
<use x="408.70" y="737.20" xlink:href="#hl"/>
<use x="408.70" y="737.20" xlink:href="#hd"/>
<path d="M412.20 737.20v-24.00" class="stroke"/>
<path class="fill"
	d="M412.20 713.20c0.6 5.6 9.6 9 5.6 18.4
	1.6 -6 -1.3 -11.6 -5.6 -12.8
"/>
<use x="428.60" y="710.20" xlink:href="#hd"/>
<path d="M425.10 710.20v21.00" class="stroke"/>
<path class="fill"
	d="M425.10 731.20c0.6 -5.6 9.6 -9 5.6 -18.4
	1.6 6 -1.3 11.6 -5.6 12.8
"/>
<use x="455.60" y="719.20" xlink:href="#hd"/>
<path d="M459.10 719.20v-21.00" class="stroke"/>
<path class="fill"
	d="M459.10 698.20c0.6 5.6 9.6 9 5.6 18.4
	1.6 -6 -1.3 -11.6 -5.6 -12.8
"/>
<use x="475.50" y="695.20" xlink:href="#hl"/>
<use x="475.50" y="692.20" xlink:href="#hd"/>
<path d="M472.00 692.20v21.00" class="stroke"/>
<path class="fill"
	d="M472.00 713.20c0.6 -5.6 9.6 -9 5.6 -18.4
	1.6 6 -1.3 11.6 -5.6 12.8
"/>
<use x="494.90" y="695.20" xlink:href="#hl"/>
<use x="494.90" y="689.20" xlink:href="#hl"/>
<use x="494.90" y="686.20" xlink:href="#hd"/>
<path d="M491.40 686.20v27.00" class="stroke"/>
<path class="fill"
	d="M491.40 713.20c0.6 -5.6 9.6 -9 5.6 -18.4
	1.6 6 -1.3 11.6 -5.6 12.8
"/>
<use x="514.40" y="695.20" xlink:href="#hl"/>
<use x="514.40" y="689.20" xlink:href="#hl"/>
<use x="514.40" y="683.20" xlink:href="#hl"/>
<use x="514.40" y="680.20" xlink:href="#hd"/>
<path d="M510.90 680.20v33.00" class="stroke"/>
<path class="fill"
	d="M510.90 713.20c0.6 -5.6 9.6 -9 5.6 -18.4
	1.6 6 -1.3 11.6 -5.6 12.8
"/>
<use x="533.80" y="695.20" xlink:href="#hl"/>
<use x="533.80" y="689.20" xlink:href="#hl"/>
<use x="533.80" y="683.20" xlink:href="#hl"/>
<use x="533.80" y="677.20" xlink:href="#hl"/>
<use x="533.80" y="677.20" xlink:href="#hd"/>
<path d="M530.30 677.20v36.00" class="stroke"/>
<path class="fill"
	d="M530.30 713.20c0.6 -5.6 9.6 -9 5.6 -18.4
	1.6 6 -1.3 11.6 -5.6 12.8
"/>
<use x="553.20" y="695.20" xlink:href="#hl"/>
<use x="553.20" y="689.20" xlink:href="#hl"/>
<use x="553.20" y="683.20" xlink:href="#hl"/>
<use x="553.20" y="677.20" xlink:href="#hl"/>
<use x="553.20" y="671.20" xlink:href="#hl"/>
<use x="553.20" y="671.20" xlink:href="#hd"/>
<path d="M549.70 671.20v42.00" class="stroke"/>
<path class="fill"
	d="M549.70 713.20c0.6 -5.6 9.6 -9 5.6 -18.4
	1.6 6 -1.3 11.6 -5.6 12.8
"/>
<use x="580.20" y="731.20" xlink:href="#hl"/>
<use x="580.20" y="731.20" xlink:href="#hd"/>
<path d="M583.70 731.20v-21.00" class="stroke"/>
<path class="fill"
	d="M583.70 710.20c0.6 5.6 9.6 9 5.6 18.4
	1.6 -6 -1.3 -11.6 -5.6 -12.8
"/>
<use x="600.10" y="704.20" xlink:href="#hd"/>
<path d="M596.60 704.20v21.00" class="stroke"/>
<path class="fill"
	d="M596.60 725.20c0.6 -5.6 9.6 -9 5.6 -18.4
	1.6 6 -1.3 11.6 -5.6 12.8
"/>
<use x="619.40" y="698.20" xlink:href="#hd"/>
<path d="M615.90 698.20v21.00" class="stroke"/>
<path class="fill"
	d="M615.90 719.20c0.6 -5.6 9.6 -9 5.6 -18.4
	1.6 6 -1.3 11.6 -5.6 12.8
"/>
<use x="638.70" y="695.20" xlink:href="#hl"/>
<use x="638.70" y="692.20" xlink:href="#hd"/>
<path d="M635.20 692.20v21.00" class="stroke"/>
<path class="fill"
	d="M635.20 713.20c0.6 -5.6 9.6 -9 5.6 -18.4
	1.6 6 -1.3 11.6 -5.6 12.8
"/>
<use x="658.20" y="695.20" xlink:href="#hl"/>
<use x="658.20" y="689.20" xlink:href="#hl"/>
<use x="658.20" y="689.20" xlink:href="#hd"/>
<path d="M654.70 689.20v24.00" class="stroke"/>
<path class="fill"
	d="M654.70 713.20c0.6 -5.6 9.6 -9 5.6 -18.4
	1.6 6 -1.3 11.6 -5.6 12.8
"/>
<use x="677.60" y="695.20" xlink:href="#hl"/>
<use x="677.60" y="689.20" xlink:href="#hl"/>
<use x="677.60" y="683.20" xlink:href="#hl"/>
<use x="677.60" y="683.20" xlink:href="#hd"/>
<path d="M674.10 683.20v30.00" class="stroke"/>
<path class="fill"
	d="M674.10 713.20c0.6 -5.6 9.6 -9 5.6 -18.4
	1.6 6 -1.3 11.6 -5.6 12.8
"/>
</g>
<g stroke-width="0.70" style="font:italic 11.00px Times">
<path class="stroke" stroke-width="1"
	d="M10.00 860.60v-82.00"/>
<g transform="translate(10.00,778.60) scale(1,0.82)">
	<use xlink:href="#brace"/>
</g>
<path class="stroke" stroke-width="1"
	d="M153.00 802.60v-24.00"/>
<path class="stroke" stroke-width="1"
	d="M153.00 860.60v-24.00"/>
<path class="stroke" stroke-width="1"
	d="M264.60 802.60v-24.00"/>
<path class="stroke" stroke-width="1"
	d="M264.60 860.60v-24.00"/>
<path class="stroke" stroke-width="1"
	d="M385.50 802.60v-24.00"/>
<path class="stroke" stroke-width="1"
	d="M385.50 860.60v-24.00"/>
<path class="stroke" stroke-width="1"
	d="M497.10 802.60v-24.00"/>
<path class="stroke" stroke-width="1"
	d="M497.10 860.60v-24.00"/>
<path class="stroke" stroke-width="1"
	d="M675.60 802.60v-24.00"/>
<path class="stroke" stroke-width="1"
	d="M675.60 860.60v-24.00"/>
<path class="stroke" stroke-width="1"
	d="M691.60 802.60v-24.00"/>
<path class="stroke" stroke-width="1"
	d="M691.60 860.60v-24.00"/>
<path d="m10.00 802.60
	h681.60
	M10.00 796.60
	h681.60
	M10.00 790.60
	h681.60
	M10.00 784.60
	h681.60
	M10.00 778.60
	h681.60
	" class="stroke"/>
<path d="m10.00 860.60
	h681.60
	M10.00 854.60
	h681.60
	M10.00 848.60
	h681.60
	M10.00 842.60
	h681.60
	M10.00 836.60
	h681.60
	" class="stroke"/>
</g>
<g stroke-width="0.70" style="font:bold 13.00px Times">
<text x="38.50" y="774.00">ii<tspan
	 style="font:italic 11.00px Times">m⁷</tspan></text>
</g>
<g stroke-width="0.70" style="font:bold 13.00px Times">
<text x="172.30" y="758.00">I<tspan
	 style="font:italic 11.00px Times">Δ⁷</tspan></text>
</g>
<g stroke-width="0.70" style="font:bold 13.00px Times">
<text x="271.00" y="766.00">vi<tspan
	 style="font:italic 11.00px Times">m⁷¹</tspan></text>
</g>
<g stroke-width="0.70" style="font:bold 13.00px Times">
<text x="402.60" y="767.00">vi<tspan
	 style="font:italic 11.00px Times">m⁷</tspan></text>
</g>
<g stroke-width="0.70" style="font:bold 13.00px Times">
<text x="505.80" y="766.00">I<tspan
	 style="font:italic 11.00px Times">Δ⁷</tspan></text>
</g>
<g stroke-width="0.70" style="font:italic 11.00px Times">
<use x="22.00" y="796.60" xlink:href="#tclef"/>
<use x="46.50" y="787.60" xlink:href="#hd"/>
<path d="M43.00 787.60v21.00" class="stroke"/>
<use x="104.10" y="790.60" xlink:href="#hd"/>
<path d="M100.60 790.60v21.00" class="stroke"/>
<use x="178.10" y="772.60" xlink:href="#hl"/>
<use x="178.10" y="766.60" xlink:href="#hl"/>
<use x="178.10" y="766.60" xlink:href="#hd"/>
<path d="M174.60 766.60v40.00" class="stroke"/>
<use x="178.10" y="787.60" xlink:href="#hd"/>
<use x="218.70" y="772.60" xlink:href="#hl"/>
<use x="218.70" y="772.60" xlink:href="#Hd"/>
<circle class="fill" cx="227.40" cy="769.60" r="1.2"/>
<path d="M215.20 772.60v40.00" class="stroke"/>
<use x="218.70" y="793.60" xlink:href="#Hd"/>
<circle class="fill" cx="227.40" cy="793.60" r="1.2"/>
<use x="279.00" y="793.60" xlink:href="#Hd"/>
<path d="M282.50 793.60v-21.00" class="stroke"/>
<use x="410.60" y="775.60" xlink:href="#hd"/>
<path d="M407.10 775.60v40.00" class="stroke"/>
<use x="410.60" y="796.60" xlink:href="#hd"/>
<use x="451.20" y="772.60" xlink:href="#hl"/>
<use x="451.20" y="772.60" xlink:href="#Hd"/>
<circle class="fill" cx="459.90" cy="769.60" r="1.2"/>
<path d="M447.70 772.60v40.00" class="stroke"/>
<use x="451.20" y="793.60" xlink:href="#Hd"/>
<circle class="fill" cx="459.90" cy="793.60" r="1.2"/>
<use x="511.50" y="793.60" xlink:href="#Hd"/>
<circle class="fill" cx="520.20" cy="793.60" r="1.2"/>
<path d="M515.00 793.60v-21.00" class="stroke"/>
<use x="22.00" y="842.60" xlink:href="#bclef"/>
<use x="46.50" y="866.60" xlink:href="#hl"/>
<use x="46.50" y="869.60" xlink:href="#hd"/>
<path d="M50.00 869.60v-21.00" class="stroke"/>
<path class="fill"
	d="M50.00 848.60c0.6 5.6 9.6 9 5.6 18.4
	1.6 -6 -1.3 -11.6 -5.6 -12.8
"/>
<use x="75.30" y="842.60" xlink:href="#hd"/>
<path d="M71.80 842.60v21.00" class="stroke"/>
<path class="fill"
	d="M71.80 863.60c0.6 -5.6 9.6 -9 5.6 -18.4
	1.6 6 -1.3 11.6 -5.6 12.8
"/>
<use x="104.10" y="836.60" xlink:href="#hd"/>
<path d="M100.60 836.60v21.00" class="stroke"/>
<path class="fill"
	d="M100.60 857.60c0.6 -5.6 9.6 -9 5.6 -18.4
	1.6 6 -1.3 11.6 -5.6 12.8
"/>
<use x="132.90" y="830.60" xlink:href="#hl"/>
<use x="132.90" y="830.60" xlink:href="#hd"/>
<path d="M129.40 830.60v21.00" class="stroke"/>
<path class="fill"
	d="M129.40 851.60c0.6 -5.6 9.6 -9 5.6 -18.4
	1.6 6 -1.3 11.6 -5.6 12.8
"/>
<defs>
<path id="hl1" class="stroke" d="m-7 0h14"/>
</defs>
<use x="179.10" y="866.60" xlink:href="#hl1"/>
<use x="179.10" y="872.60" xlink:href="#hl1"/>
<use x="179.10" y="872.60" xlink:href="#HD"/>
<use x="179.10" y="866.60" xlink:href="#HD"/>
<use x="179.10" y="860.60" xlink:href="#HD"/>
<use x="179.10" y="854.60" xlink:href="#HD"/>
<use x="279.00" y="866.60" xlink:href="#hl"/>
<use x="279.00" y="872.60" xlink:href="#hl"/>
<use x="279.00" y="878.60" xlink:href="#hl"/>
<use x="279.00" y="878.60" xlink:href="#hd"/>
<path d="M282.50 878.60v-40.00" class="stroke"/>
<path class="fill"
	d="M282.50 838.60c0.6 5.6 9.6 9 5.6 18.4
	1.6 -6 -1.3 -11.6 -5.6 -12.8
"/>
<use x="279.00" y="857.60" xlink:href="#hd"/>
<use x="307.80" y="830.60" xlink:href="#hl"/>
<use x="307.80" y="830.60" xlink:href="#hd"/>
<path d="M304.30 830.60v21.00" class="stroke"/>
<path class="fill"
	d="M304.30 851.60c0.6 -5.6 9.6 -9 5.6 -18.4
	1.6 6 -1.3 11.6 -5.6 12.8
"/>
<use x="336.60" y="830.60" xlink:href="#hl"/>
<use x="336.60" y="824.60" xlink:href="#hl"/>
<use x="336.60" y="824.60" xlink:href="#hd"/>
<path d="M333.10 824.60v24.00" class="stroke"/>
<path class="fill"
	d="M333.10 848.60c0.6 -5.6 9.6 -9 5.6 -18.4
	1.6 6 -1.3 11.6 -5.6 12.8
"/>
<use x="365.40" y="830.60" xlink:href="#hl"/>
<use x="365.40" y="824.60" xlink:href="#hl"/>
<use x="365.40" y="818.60" xlink:href="#hl"/>
<use x="365.40" y="818.60" xlink:href="#hd"/>
<path d="M361.90 818.60v30.00" class="stroke"/>
<path class="fill"
	d="M361.90 848.60c0.6 -5.6 9.6 -9 5.6 -18.4
	1.6 6 -1.3 11.6 -5.6 12.8
"/>
<use x="411.60" y="839.60" xlink:href="#HD"/>
<use x="411.60" y="857.60" xlink:href="#HD"/>
<use x="411.60" y="851.60" xlink:href="#HD"/>
<use x="411.60" y="845.60" xlink:href="#HD"/>
<use x="511.50" y="866.60" xlink:href="#hl"/>
<use x="511.50" y="872.60" xlink:href="#hl"/>
<use x="511.50" y="878.60" xlink:href="#hl"/>
<use x="511.50" y="884.60" xlink:href="#hl"/>
<use x="511.50" y="890.60" xlink:href="#hl"/>
<use x="511.50" y="893.60" xlink:href="#hd"/>
<path d="M515.00 893.60v-45.00" class="stroke"/>
<path class="fill"
	d="M515.00 848.60c0.6 5.6 9.6 9 5.6 18.4
	1.6 -6 -1.3 -11.6 -5.6 -12.8
"/>
<use x="511.50" y="872.60" xlink:href="#hd"/>
<use x="540.30" y="845.60" xlink:href="#hd"/>
<path d="M536.80 845.60v21.00" class="stroke"/>
<path class="fill"
	d="M536.80 866.60c0.6 -5.6 9.6 -9 5.6 -18.4
	1.6 6 -1.3 11.6 -5.6 12.8
"/>
<use x="569.10" y="839.60" xlink:href="#hd"/>
<path d="M565.60 839.60v21.00" class="stroke"/>
<path class="fill"
	d="M565.60 860.60c0.6 -5.6 9.6 -9 5.6 -18.4
	1.6 6 -1.3 11.6 -5.6 12.8
"/>
<use x="597.90" y="833.60" xlink:href="#hd"/>
<path d="M594.40 833.60v21.00" class="stroke"/>
<path class="fill"
	d="M594.40 854.60c0.6 -5.6 9.6 -9 5.6 -18.4
	1.6 6 -1.3 11.6 -5.6 12.8
"/>
<use x="626.70" y="830.60" xlink:href="#hl"/>
<use x="626.70" y="830.60" xlink:href="#hd"/>
<path d="M623.20 830.60v21.00" class="stroke"/>
<path class="fill"
	d="M623.20 851.60c0.6 -5.6 9.6 -9 5.6 -18.4
	1.6 6 -1.3 11.6 -5.6 12.8
"/>
<use x="655.40" y="830.60" xlink:href="#hl"/>
<use x="655.40" y="824.60" xlink:href="#hl"/>
<use x="655.40" y="824.60" xlink:href="#hd"/>
<path d="M651.90 824.60v24.00" class="stroke"/>
<path class="fill"
	d="M651.90 848.60c0.6 -5.6 9.6 -9 5.6 -18.4
	1.6 6 -1.3 11.6 -5.6 12.8
"/>
<g transform="rotate(270)">
<use x="-875.60" y="165.60" xlink:href="#ltr"/>
<use x="-869.60" y="165.60" xlink:href="#ltr"/>
<use x="-863.60" y="165.60" xlink:href="#ltr"/>
<use x="-857.60" y="165.60" xlink:href="#ltr"/>
</g>
<text x="270.40" y="769.60" style="font:bold italic 30px serif">,</text>
<g transform="rotate(270)">
<use x="-860.60" y="398.10" xlink:href="#ltr"/>
<use x="-854.60" y="398.10" xlink:href="#ltr"/>
<use x="-848.60" y="398.10" xlink:href="#ltr"/>
<use x="-842.60" y="398.10" xlink:href="#ltr"/>
</g>
<text x="502.90" y="769.60" style="font:bold italic 30px serif">,</text>
</g>
</svg>
