<?xml version="1.0" standalone="no"?>
<!DOCTYPE svg PUBLIC "-//W3C//DTD SVG 1.1//EN"
	"http://www.w3.org/Graphics/SVG/1.1/DTD/svg11.dtd">
<svg xmlns="http://www.w3.org/2000/svg" version="1.1"
	xmlns:xlink="http://www.w3.org/1999/xlink"
	color="black"
	width="701.60px" height="766.20px" viewBox="0 0 701.60 766.20" preserveAspectRatio="xMidYMid meet">
<style type="text/css">
.fill {fill: currentColor}
.stroke {stroke: currentColor; fill: none}
text{white-space: pre}
</style>
<title>/tmp/boddie_hymnal_stage/hark_the_herald_angels_sing.abc (1) tune 1</title>
<!-- Creator: abcm2ps-8.14.11 -->
<!-- CreationDate: Apr 30, 2026 12:59 -->
<!-- CommandLine: /tmp/boddie_hymnal_stage/hark_the_herald_angels_sing.abc -g -O /tmp/boddie_hymnal_stage/hark_the_herald_angels_sing -->
<g stroke-width="0.70">
<!-- title: 084. Hark! The Herald Angels Sing -->
</g>
<g stroke-width="0.70" style="font:20.00px Times">
<text x="350.80" y="22.00" text-anchor="middle">084. Hark! The Herald Angels Sing</text>
</g>
<g stroke-width="0.70" transform="scale(0.700)" style="font:20.00px Times">
<defs>
<ellipse id="hd" rx="4.1" ry="2.9"
	transform="rotate(-20)" class="fill"/>
</defs>
<use x="102.29" y="75.57" xlink:href="#hd"/>
<path d="M105.79 75.57v-21.00" class="stroke"/>
</g>
<g stroke-width="0.70" style="font:bold 15.00px Times">
<text x="79.30" y="55.00">= 72Slowly, with great expression</text>
<path class="stroke" stroke-width="1"
	d="M10.00 157.40v-82.00"/>
<defs>
<path id="brace" class="fill" d="m-2.5 101
	c-4.5 -4.6 -7.5 -12.2 -4.4 -26.8
	3.5 -14.3 3.2 -21.7 -2.1 -24.2
	7.4 2.4 7.3 14.2 3.5 29.5
	-2.7 9.5 -1.5 16.2 3 21.5
	M-2.5 1c-4.5 4.6 -7.5 12.2 -4.4 26.8
	c3.5 14.3 3.2 21.7 -2.1 24.2
	7.4 -2.4 7.3 -14.2 3.5 -29.5
	-2.7 -9.5 -1.5 -16.2 3 -21.5"/>
</defs>
<g transform="translate(10.00,75.40) scale(1,0.82)">
	<use xlink:href="#brace"/>
</g>
<path class="stroke" stroke-width="1"
	d="M233.30 99.40v-24.00"/>
<path class="stroke" stroke-width="1"
	d="M233.30 157.40v-24.00"/>
<path class="stroke" stroke-width="1"
	d="M406.20 99.40v-24.00"/>
<path class="stroke" stroke-width="1"
	d="M406.20 157.40v-24.00"/>
<path class="stroke" stroke-width="1"
	d="M579.20 99.40v-24.00"/>
<path class="stroke" stroke-width="1"
	d="M579.20 157.40v-24.00"/>
<path class="stroke" stroke-width="1"
	d="M691.60 99.40v-24.00"/>
<path class="stroke" stroke-width="1"
	d="M691.60 157.40v-24.00"/>
<path d="m10.00 99.40
	h681.60
	M10.00 93.40
	h681.60
	M10.00 87.40
	h681.60
	M10.00 81.40
	h681.60
	M10.00 75.40
	h681.60
	" class="stroke"/>
<path d="m10.00 157.40
	h681.60
	M10.00 151.40
	h681.60
	M10.00 145.40
	h681.60
	M10.00 139.40
	h681.60
	M10.00 133.40
	h681.60
	" class="stroke"/>
</g>
<g stroke-width="0.70" style="font:bold 13.00px Times">
<text x="65.30" y="70.80">I<tspan
	 style="font:italic 11.00px Times">Δ⁷</tspan></text>
</g>
<g stroke-width="0.70" style="font:bold 13.00px Times">
<text x="238.10" y="68.80">I<tspan
	 style="font:italic 11.00px Times">Δ⁷¹</tspan></text>
</g>
<g stroke-width="0.70" style="font:bold 13.00px Times">
<text x="413.00" y="70.80">I<tspan
	 style="font:italic 11.00px Times">Δ⁷</tspan></text>
</g>
<g stroke-width="0.70" style="font:bold 13.00px Times">
<text x="596.50" y="60.80">I<tspan
	 style="font:italic 11.00px Times">Δ⁷²</tspan></text>
</g>
<g stroke-width="0.70" style="font:italic 11.00px Times">
<defs>
<path id="utclef" class="fill" d="m-50 -90
	c-72 -41 -72 -158 52 -188
	150 -10 220 188 90 256
	-114 52 -275 0 -293 -136
	-15 -181 93 -229 220 -334
	88 -87 79 -133 62 -210
	-51 33 -94 105 -89 186
	17 267 36 374 49 574
	6 96 -19 134 -77 135
	-80 1 -126 -93 -61 -133
	85 -41 133 101 31 105
	23 17 92 37 90 -92
	-10 -223 -39 -342 -50 -617
	0 -90 0 -162 96 -232
	56 72 63 230 22 289
	-74 106 -257 168 -255 316
	9 153 148 185 252 133
	86 -65 29 -192 -80 -176
	-71 12 -105 67 -59 124"/>
<use id="tclef" transform="translate(0,6) scale(0.045)"
	xlink:href="#utclef"/>
</defs>
<use x="22.00" y="93.40" xlink:href="#tclef"/>
<defs>
<path id="uflat" class="fill" d="
	m100 -746
	h32
	v734
	l-32 4
	m32 -332
	c46 -72 152 -90 208 -20
	100 110 -120 326 -208 348
	m0 -28
	c54 0 200 -206 130 -290
	-50 -60 -130 -4 -130 34"/>
<use id="ft0" transform="translate(-3.5,3.5) scale(0.018)"
	xlink:href="#uflat"/>
</defs>
<use x="37.00" y="87.40" xlink:href="#ft0"/>
<g style="font:bold 16px serif"
	transform="translate(53.00,98.90) scale(1.2,1)">
	<text text-anchor="middle">4</text>
	<text y="-12" text-anchor="middle">4</text>
</g>
<defs>
<path id="hl" class="stroke" d="m-6 0h12"/>
</defs>
<use x="71.00" y="105.40" xlink:href="#hl"/>
<use x="71.00" y="105.40" xlink:href="#hd"/>
<path d="M74.50 105.40v-21.00" class="stroke"/>
<use x="113.20" y="96.40" xlink:href="#hd"/>
<path d="M116.70 96.40v-21.00" class="stroke"/>
<use x="155.10" y="96.40" xlink:href="#hd"/>
<circle class="fill" cx="162.80" cy="96.40" r="1.2"/>
<path d="M158.60 96.40v-21.00" class="stroke"/>
<use x="216.30" y="99.40" xlink:href="#hd"/>
<path d="M219.80 99.40v-21.00" class="stroke"/>
<path class="fill"
	d="M219.80 78.40c0.6 5.6 9.6 9 5.6 18.4
	1.6 -6 -1.3 -11.6 -5.6 -12.8
"/>
<use x="245.80" y="96.40" xlink:href="#hd"/>
<path d="M249.30 96.40v-21.00" class="stroke"/>
<use x="288.10" y="90.40" xlink:href="#hd"/>
<path d="M291.60 90.40v-21.00" class="stroke"/>
<use x="330.00" y="90.40" xlink:href="#hd"/>
<path d="M333.50 90.40v-21.00" class="stroke"/>
<use x="369.70" y="93.40" xlink:href="#hd"/>
<path d="M373.20 93.40v-21.00" class="stroke"/>
<use x="418.70" y="84.40" xlink:href="#hd"/>
<path d="M415.20 84.40v21.00" class="stroke"/>
<use x="461.00" y="84.40" xlink:href="#hd"/>
<path d="M457.50 84.40v21.00" class="stroke"/>
<use x="502.90" y="84.40" xlink:href="#hd"/>
<circle class="fill" cx="510.60" cy="84.40" r="1.2"/>
<path d="M499.40 84.40v21.00" class="stroke"/>
<use x="564.10" y="87.40" xlink:href="#hd"/>
<path d="M560.60 87.40v21.00" class="stroke"/>
<path class="fill"
	d="M560.60 108.40c0.6 -5.6 9.6 -9 5.6 -18.4
	1.6 6 -1.3 11.6 -5.6 12.8
"/>
<use x="604.20" y="69.40" xlink:href="#hl"/>
<use x="604.20" y="69.40" xlink:href="#hd"/>
<path d="M600.70 69.40v40.00" class="stroke"/>
<use x="604.20" y="90.40" xlink:href="#hd"/>
<use x="633.30" y="72.40" xlink:href="#hd"/>
<path d="M629.80 72.40v40.00" class="stroke"/>
<use x="633.30" y="93.40" xlink:href="#hd"/>
<use x="662.40" y="69.40" xlink:href="#hl"/>
<defs>
<path id="Hd" class="fill" d="m3 -1.6
	c-1 -1.8 -7 1.4 -6 3.2
	1 1.8 7 -1.4 6 -3.2
	m0.5 -0.3
	c2 3.8 -5 7.6 -7 3.8
	-2 -3.8 5 -7.6 7 -3.8"/>
</defs>
<use x="662.40" y="69.40" xlink:href="#Hd"/>
<path d="M658.90 69.40v40.00" class="stroke"/>
<use x="662.40" y="90.40" xlink:href="#Hd"/>
<defs>
<path id="ubclef" class="fill" d="m-200 -87
	c124 -35 222 -78 254 -236
	43 -228 -167 -246 -192 -103
	59 -80 157 22 92 78
	-62 47 -115 -22 -106 -88
	21 -141 270 -136 274 52
	-1 175 -106 264 -322 297
	m357 -250
	c0 -36 51 -34 51 0
	0 37 -51 36 -51 0
	m-2 -129
	c0 -36 51 -34 51 0
	0 38 -51 37 -51 0"/>
<use id="bclef" transform="translate(0,18) scale(0.045)"
	xlink:href="#ubclef"/>
</defs>
<use x="22.00" y="139.40" xlink:href="#bclef"/>
<use x="37.00" y="151.40" xlink:href="#ft0"/>
<g style="font:bold 16px serif"
	transform="translate(53.00,156.90) scale(1.2,1)">
	<text text-anchor="middle">4</text>
	<text y="-12" text-anchor="middle">4</text>
</g>
<use x="71.00" y="163.40" xlink:href="#hl"/>
<use x="71.00" y="169.40" xlink:href="#hl"/>
<use x="71.00" y="175.40" xlink:href="#hl"/>
<use x="71.00" y="181.40" xlink:href="#hl"/>
<use x="71.00" y="181.40" xlink:href="#hd"/>
<path d="M74.50 181.40v-40.00" class="stroke"/>
<path class="fill"
	d="M74.50 141.40c0.6 5.6 9.6 9 5.6 18.4
	1.6 -6 -1.3 -11.6 -5.6 -12.8
"/>
<use x="71.00" y="160.40" xlink:href="#hd"/>
<use x="92.40" y="133.40" xlink:href="#hd"/>
<path d="M88.90 133.40v21.00" class="stroke"/>
<path class="fill"
	d="M88.90 154.40c0.6 -5.6 9.6 -9 5.6 -18.4
	1.6 6 -1.3 11.6 -5.6 12.8
"/>
<use x="113.20" y="127.40" xlink:href="#hl"/>
<use x="113.20" y="127.40" xlink:href="#hd"/>
<path d="M109.70 127.40v21.00" class="stroke"/>
<path class="fill"
	d="M109.70 148.40c0.6 -5.6 9.6 -9 5.6 -18.4
	1.6 6 -1.3 11.6 -5.6 12.8
"/>
<use x="134.20" y="127.40" xlink:href="#hl"/>
<use x="134.20" y="121.40" xlink:href="#hl"/>
<use x="134.20" y="121.40" xlink:href="#hd"/>
<path d="M130.70 121.40v24.00" class="stroke"/>
<path class="fill"
	d="M130.70 145.40c0.6 -5.6 9.6 -9 5.6 -18.4
	1.6 6 -1.3 11.6 -5.6 12.8
"/>
<use x="155.10" y="127.40" xlink:href="#hl"/>
<use x="155.10" y="121.40" xlink:href="#hl"/>
<use x="155.10" y="118.40" xlink:href="#hd"/>
<path d="M151.60 118.40v27.00" class="stroke"/>
<path class="fill"
	d="M151.60 145.40c0.6 -5.6 9.6 -9 5.6 -18.4
	1.6 6 -1.3 11.6 -5.6 12.8
"/>
<use x="176.10" y="127.40" xlink:href="#hl"/>
<use x="176.10" y="121.40" xlink:href="#hl"/>
<use x="176.10" y="115.40" xlink:href="#hl"/>
<use x="176.10" y="112.40" xlink:href="#hd"/>
<path d="M172.60 112.40v33.00" class="stroke"/>
<path class="fill"
	d="M172.60 145.40c0.6 -5.6 9.6 -9 5.6 -18.4
	1.6 6 -1.3 11.6 -5.6 12.8
"/>
<use x="194.90" y="160.40" xlink:href="#hd"/>
<path d="M198.40 160.40v-21.00" class="stroke"/>
<path class="fill"
	d="M198.40 139.40c0.6 5.6 9.6 9 5.6 18.4
	1.6 -6 -1.3 -11.6 -5.6 -12.8
"/>
<use x="216.30" y="133.40" xlink:href="#hd"/>
<path d="M212.80 133.40v21.00" class="stroke"/>
<path class="fill"
	d="M212.80 154.40c0.6 -5.6 9.6 -9 5.6 -18.4
	1.6 6 -1.3 11.6 -5.6 12.8
"/>
<use x="245.80" y="160.40" xlink:href="#hd"/>
<path d="M249.30 160.40v-21.00" class="stroke"/>
<path class="fill"
	d="M249.30 139.40c0.6 5.6 9.6 9 5.6 18.4
	1.6 -6 -1.3 -11.6 -5.6 -12.8
"/>
<use x="267.20" y="133.40" xlink:href="#hd"/>
<path d="M263.70 133.40v21.00" class="stroke"/>
<path class="fill"
	d="M263.70 154.40c0.6 -5.6 9.6 -9 5.6 -18.4
	1.6 6 -1.3 11.6 -5.6 12.8
"/>
<use x="288.10" y="127.40" xlink:href="#hl"/>
<use x="288.10" y="127.40" xlink:href="#hd"/>
<path d="M284.60 127.40v21.00" class="stroke"/>
<path class="fill"
	d="M284.60 148.40c0.6 -5.6 9.6 -9 5.6 -18.4
	1.6 6 -1.3 11.6 -5.6 12.8
"/>
<use x="309.00" y="127.40" xlink:href="#hl"/>
<use x="309.00" y="121.40" xlink:href="#hl"/>
<use x="309.00" y="121.40" xlink:href="#hd"/>
<path d="M305.50 121.40v24.00" class="stroke"/>
<path class="fill"
	d="M305.50 145.40c0.6 -5.6 9.6 -9 5.6 -18.4
	1.6 6 -1.3 11.6 -5.6 12.8
"/>
<use x="330.00" y="127.40" xlink:href="#hl"/>
<use x="330.00" y="121.40" xlink:href="#hl"/>
<use x="330.00" y="118.40" xlink:href="#hd"/>
<path d="M326.50 118.40v27.00" class="stroke"/>
<path class="fill"
	d="M326.50 145.40c0.6 -5.6 9.6 -9 5.6 -18.4
	1.6 6 -1.3 11.6 -5.6 12.8
"/>
<use x="350.90" y="127.40" xlink:href="#hl"/>
<use x="350.90" y="121.40" xlink:href="#hl"/>
<use x="350.90" y="115.40" xlink:href="#hl"/>
<use x="350.90" y="112.40" xlink:href="#hd"/>
<path d="M347.40 112.40v33.00" class="stroke"/>
<path class="fill"
	d="M347.40 145.40c0.6 -5.6 9.6 -9 5.6 -18.4
	1.6 6 -1.3 11.6 -5.6 12.8
"/>
<use x="369.70" y="160.40" xlink:href="#hd"/>
<path d="M373.20 160.40v-21.00" class="stroke"/>
<path class="fill"
	d="M373.20 139.40c0.6 5.6 9.6 9 5.6 18.4
	1.6 -6 -1.3 -11.6 -5.6 -12.8
"/>
<use x="391.10" y="133.40" xlink:href="#hd"/>
<path d="M387.60 133.40v21.00" class="stroke"/>
<path class="fill"
	d="M387.60 154.40c0.6 -5.6 9.6 -9 5.6 -18.4
	1.6 6 -1.3 11.6 -5.6 12.8
"/>
<use x="418.70" y="160.40" xlink:href="#hd"/>
<path d="M422.20 160.40v-21.00" class="stroke"/>
<path class="fill"
	d="M422.20 139.40c0.6 5.6 9.6 9 5.6 18.4
	1.6 -6 -1.3 -11.6 -5.6 -12.8
"/>
<use x="440.20" y="133.40" xlink:href="#hd"/>
<path d="M436.70 133.40v21.00" class="stroke"/>
<path class="fill"
	d="M436.70 154.40c0.6 -5.6 9.6 -9 5.6 -18.4
	1.6 6 -1.3 11.6 -5.6 12.8
"/>
<use x="461.00" y="127.40" xlink:href="#hl"/>
<use x="461.00" y="127.40" xlink:href="#hd"/>
<path d="M457.50 127.40v21.00" class="stroke"/>
<path class="fill"
	d="M457.50 148.40c0.6 -5.6 9.6 -9 5.6 -18.4
	1.6 6 -1.3 11.6 -5.6 12.8
"/>
<use x="481.90" y="127.40" xlink:href="#hl"/>
<use x="481.90" y="121.40" xlink:href="#hl"/>
<use x="481.90" y="121.40" xlink:href="#hd"/>
<path d="M478.40 121.40v24.00" class="stroke"/>
<path class="fill"
	d="M478.40 145.40c0.6 -5.6 9.6 -9 5.6 -18.4
	1.6 6 -1.3 11.6 -5.6 12.8
"/>
<use x="502.90" y="127.40" xlink:href="#hl"/>
<use x="502.90" y="121.40" xlink:href="#hl"/>
<use x="502.90" y="118.40" xlink:href="#hd"/>
<path d="M499.40 118.40v27.00" class="stroke"/>
<path class="fill"
	d="M499.40 145.40c0.6 -5.6 9.6 -9 5.6 -18.4
	1.6 6 -1.3 11.6 -5.6 12.8
"/>
<use x="523.80" y="127.40" xlink:href="#hl"/>
<use x="523.80" y="121.40" xlink:href="#hl"/>
<use x="523.80" y="115.40" xlink:href="#hl"/>
<use x="523.80" y="112.40" xlink:href="#hd"/>
<path d="M520.30 112.40v33.00" class="stroke"/>
<path class="fill"
	d="M520.30 145.40c0.6 -5.6 9.6 -9 5.6 -18.4
	1.6 6 -1.3 11.6 -5.6 12.8
"/>
<use x="542.60" y="160.40" xlink:href="#hd"/>
<path d="M546.10 160.40v-21.00" class="stroke"/>
<path class="fill"
	d="M546.10 139.40c0.6 5.6 9.6 9 5.6 18.4
	1.6 -6 -1.3 -11.6 -5.6 -12.8
"/>
<use x="564.10" y="133.40" xlink:href="#hd"/>
<path d="M560.60 133.40v21.00" class="stroke"/>
<path class="fill"
	d="M560.60 154.40c0.6 -5.6 9.6 -9 5.6 -18.4
	1.6 6 -1.3 11.6 -5.6 12.8
"/>
<defs>
<path id="HD" class="fill" d="m-2.7 -1.4
	c1.5 -2.8 6.9 0 5.3 2.7
	-1.5 2.8 -6.9 0 -5.3 -2.7
	m8.3 1.4
	c0 -1.5 -2.2 -3 -5.6 -3
	-3.4 0 -5.6 1.5 -5.6 3
	0 1.5 2.2 3 5.6 3
	3.4 0 5.6 -1.5 5.6 -3"/>
</defs>
<use x="605.20" y="160.40" xlink:href="#HD"/>
<use x="605.20" y="154.40" xlink:href="#HD"/>
<use x="605.20" y="148.40" xlink:href="#HD"/>
<use x="605.20" y="142.40" xlink:href="#HD"/>
<defs>
<path id="ltr" class="fill"
    d="m0 -0.4c2 -1.5 3.4 -1.9 3.9 0.4
	c0.2 0.8 0.7 0.7 2.1 -0.4
	v0.8c-2 1.5 -3.4 1.9 -3.9 -0.4
	c-0.2 -0.8 -0.7 -0.7 -2.1 0.4z"/>
</defs>
<g transform="rotate(270)">
<use x="-163.40" y="591.70" xlink:href="#ltr"/>
<use x="-157.40" y="591.70" xlink:href="#ltr"/>
<use x="-151.40" y="591.70" xlink:href="#ltr"/>
<use x="-145.40" y="591.70" xlink:href="#ltr"/>
</g>
<text x="691.60" y="66.40" style="font:bold italic 30px serif">,</text>
</g>
<g stroke-width="0.70" style="font:italic 11.00px Times">
<path class="stroke" stroke-width="1"
	d="M10.00 311.80v-92.00"/>
<g transform="translate(10.00,219.80) scale(1,0.92)">
	<use xlink:href="#brace"/>
</g>
<path class="stroke" stroke-width="1"
	d="M220.70 243.80v-24.00"/>
<path class="stroke" stroke-width="1"
	d="M220.70 311.80v-24.00"/>
<path class="stroke" stroke-width="1"
	d="M398.50 243.80v-24.00"/>
<path class="stroke" stroke-width="1"
	d="M398.50 311.80v-24.00"/>
<path class="stroke" stroke-width="1"
	d="M576.80 243.80v-24.00"/>
<path class="stroke" stroke-width="1"
	d="M576.80 311.80v-24.00"/>
<path class="stroke" stroke-width="1"
	d="M691.60 243.80v-24.00"/>
<path class="stroke" stroke-width="1"
	d="M691.60 311.80v-24.00"/>
<path d="m10.00 243.80
	h681.60
	M10.00 237.80
	h681.60
	M10.00 231.80
	h681.60
	M10.00 225.80
	h681.60
	M10.00 219.80
	h681.60
	" class="stroke"/>
<path d="m10.00 311.80
	h681.60
	M10.00 305.80
	h681.60
	M10.00 299.80
	h681.60
	M10.00 293.80
	h681.60
	M10.00 287.80
	h681.60
	" class="stroke"/>
</g>
<g stroke-width="0.70" style="font:bold 13.00px Times">
<text x="49.30" y="215.20">I<tspan
	 style="font:italic 11.00px Times">Δ⁷</tspan></text>
</g>
<g stroke-width="0.70" style="font:bold 13.00px Times">
<text x="225.20" y="213.20">vi<tspan
	 style="font:italic 11.00px Times">m⁷</tspan></text>
</g>
<g stroke-width="0.70" style="font:bold 13.00px Times">
<text x="403.00" y="213.20">iii<tspan
	 style="font:italic 11.00px Times">m⁷</tspan></text>
</g>
<g stroke-width="0.70" style="font:bold 13.00px Times">
<text x="596.10" y="197.20">I<tspan
	 style="font:italic 11.00px Times">Δ⁷</tspan></text>
</g>
<g stroke-width="0.70" style="font:italic 11.00px Times">
<use x="22.00" y="237.80" xlink:href="#tclef"/>
<use x="37.00" y="231.80" xlink:href="#ft0"/>
<use x="55.00" y="249.80" xlink:href="#hl"/>
<use x="55.00" y="249.80" xlink:href="#hd"/>
<path d="M58.50 249.80v-21.00" class="stroke"/>
<use x="98.20" y="240.80" xlink:href="#hd"/>
<path d="M101.70 240.80v-21.00" class="stroke"/>
<use x="141.10" y="240.80" xlink:href="#hd"/>
<circle class="fill" cx="148.80" cy="240.80" r="1.2"/>
<path d="M144.60 240.80v-21.00" class="stroke"/>
<use x="203.70" y="243.80" xlink:href="#hd"/>
<path d="M207.20 243.80v-21.00" class="stroke"/>
<path class="fill"
	d="M207.20 222.80c0.6 5.6 9.6 9 5.6 18.4
	1.6 -6 -1.3 -11.6 -5.6 -12.8
"/>
<use x="233.20" y="240.80" xlink:href="#hd"/>
<path d="M236.70 240.80v-21.00" class="stroke"/>
<use x="276.00" y="234.80" xlink:href="#hd"/>
<path d="M279.50 234.80v-21.00" class="stroke"/>
<use x="318.90" y="234.80" xlink:href="#hd"/>
<path d="M322.40 234.80v-21.00" class="stroke"/>
<use x="361.70" y="237.80" xlink:href="#hd"/>
<path d="M365.20 237.80v-21.00" class="stroke"/>
<use x="411.00" y="228.80" xlink:href="#hd"/>
<path d="M407.50 228.80v21.00" class="stroke"/>
<use x="454.30" y="237.80" xlink:href="#hd"/>
<path d="M457.80 237.80v-21.00" class="stroke"/>
<use x="497.20" y="237.80" xlink:href="#hd"/>
<circle class="fill" cx="504.90" cy="234.80" r="1.2"/>
<path d="M500.70 237.80v-21.00" class="stroke"/>
<use x="559.80" y="243.80" xlink:href="#hd"/>
<path d="M563.30 243.80v-21.00" class="stroke"/>
<path class="fill"
	d="M563.30 222.80c0.6 5.6 9.6 9 5.6 18.4
	1.6 -6 -1.3 -11.6 -5.6 -12.8
"/>
<use x="601.80" y="243.80" xlink:href="#hd"/>
<path d="M605.30 243.80v-40.00" class="stroke"/>
<use x="601.80" y="222.80" xlink:href="#hd"/>
<use x="631.70" y="246.80" xlink:href="#hd"/>
<path d="M635.20 246.80v-40.00" class="stroke"/>
<use x="631.70" y="225.80" xlink:href="#hd"/>
<use x="661.70" y="249.80" xlink:href="#hl"/>
<use x="661.70" y="249.80" xlink:href="#Hd"/>
<path d="M665.20 249.80v-40.00" class="stroke"/>
<use x="661.70" y="228.80" xlink:href="#Hd"/>
<use x="22.00" y="293.80" xlink:href="#bclef"/>
<use x="37.00" y="305.80" xlink:href="#ft0"/>
<use x="55.00" y="317.80" xlink:href="#hl"/>
<use x="55.00" y="323.80" xlink:href="#hl"/>
<use x="55.00" y="329.80" xlink:href="#hl"/>
<use x="55.00" y="335.80" xlink:href="#hl"/>
<use x="55.00" y="335.80" xlink:href="#hd"/>
<path d="M58.50 335.80v-40.00" class="stroke"/>
<path class="fill"
	d="M58.50 295.80c0.6 5.6 9.6 9 5.6 18.4
	1.6 -6 -1.3 -11.6 -5.6 -12.8
"/>
<use x="55.00" y="314.80" xlink:href="#hd"/>
<use x="76.80" y="287.80" xlink:href="#hd"/>
<path d="M73.30 287.80v21.00" class="stroke"/>
<path class="fill"
	d="M73.30 308.80c0.6 -5.6 9.6 -9 5.6 -18.4
	1.6 6 -1.3 11.6 -5.6 12.8
"/>
<use x="98.20" y="281.80" xlink:href="#hl"/>
<use x="98.20" y="281.80" xlink:href="#hd"/>
<path d="M94.70 281.80v21.00" class="stroke"/>
<path class="fill"
	d="M94.70 302.80c0.6 -5.6 9.6 -9 5.6 -18.4
	1.6 6 -1.3 11.6 -5.6 12.8
"/>
<use x="119.70" y="281.80" xlink:href="#hl"/>
<use x="119.70" y="275.80" xlink:href="#hl"/>
<use x="119.70" y="275.80" xlink:href="#hd"/>
<path d="M116.20 275.80v24.00" class="stroke"/>
<path class="fill"
	d="M116.20 299.80c0.6 -5.6 9.6 -9 5.6 -18.4
	1.6 6 -1.3 11.6 -5.6 12.8
"/>
<use x="141.10" y="281.80" xlink:href="#hl"/>
<use x="141.10" y="275.80" xlink:href="#hl"/>
<use x="141.10" y="272.80" xlink:href="#hd"/>
<path d="M137.60 272.80v27.00" class="stroke"/>
<path class="fill"
	d="M137.60 299.80c0.6 -5.6 9.6 -9 5.6 -18.4
	1.6 6 -1.3 11.6 -5.6 12.8
"/>
<use x="162.60" y="281.80" xlink:href="#hl"/>
<use x="162.60" y="275.80" xlink:href="#hl"/>
<use x="162.60" y="269.80" xlink:href="#hl"/>
<use x="162.60" y="266.80" xlink:href="#hd"/>
<path d="M159.10 266.80v33.00" class="stroke"/>
<path class="fill"
	d="M159.10 299.80c0.6 -5.6 9.6 -9 5.6 -18.4
	1.6 6 -1.3 11.6 -5.6 12.8
"/>
<use x="181.90" y="314.80" xlink:href="#hd"/>
<path d="M185.40 314.80v-21.00" class="stroke"/>
<path class="fill"
	d="M185.40 293.80c0.6 5.6 9.6 9 5.6 18.4
	1.6 -6 -1.3 -11.6 -5.6 -12.8
"/>
<use x="203.70" y="287.80" xlink:href="#hd"/>
<path d="M200.20 287.80v21.00" class="stroke"/>
<path class="fill"
	d="M200.20 308.80c0.6 -5.6 9.6 -9 5.6 -18.4
	1.6 6 -1.3 11.6 -5.6 12.8
"/>
<use x="233.20" y="299.80" xlink:href="#hd"/>
<path d="M229.70 299.80v21.00" class="stroke"/>
<path class="fill"
	d="M229.70 320.80c0.6 -5.6 9.6 -9 5.6 -18.4
	1.6 6 -1.3 11.6 -5.6 12.8
"/>
<use x="254.60" y="281.80" xlink:href="#hl"/>
<use x="254.60" y="275.80" xlink:href="#hl"/>
<use x="254.60" y="272.80" xlink:href="#hd"/>
<path d="M251.10 272.80v27.00" class="stroke"/>
<path class="fill"
	d="M251.10 299.80c0.6 -5.6 9.6 -9 5.6 -18.4
	1.6 6 -1.3 11.6 -5.6 12.8
"/>
<use x="276.00" y="281.80" xlink:href="#hl"/>
<use x="276.00" y="275.80" xlink:href="#hl"/>
<use x="276.00" y="269.80" xlink:href="#hl"/>
<use x="276.00" y="266.80" xlink:href="#hd"/>
<path d="M272.50 266.80v33.00" class="stroke"/>
<path class="fill"
	d="M272.50 299.80c0.6 -5.6 9.6 -9 5.6 -18.4
	1.6 6 -1.3 11.6 -5.6 12.8
"/>
<use x="297.50" y="281.80" xlink:href="#hl"/>
<use x="297.50" y="275.80" xlink:href="#hl"/>
<use x="297.50" y="269.80" xlink:href="#hl"/>
<use x="297.50" y="263.80" xlink:href="#hl"/>
<use x="297.50" y="260.80" xlink:href="#hd"/>
<path d="M294.00 260.80v39.00" class="stroke"/>
<path class="fill"
	d="M294.00 299.80c0.6 -5.6 9.6 -9 5.6 -18.4
	1.6 6 -1.3 11.6 -5.6 12.8
"/>
<use x="318.90" y="281.80" xlink:href="#hl"/>
<use x="318.90" y="275.80" xlink:href="#hl"/>
<use x="318.90" y="269.80" xlink:href="#hl"/>
<use x="318.90" y="263.80" xlink:href="#hl"/>
<use x="318.90" y="257.80" xlink:href="#hl"/>
<use x="318.90" y="257.80" xlink:href="#hd"/>
<path d="M315.40 257.80v42.00" class="stroke"/>
<path class="fill"
	d="M315.40 299.80c0.6 -5.6 9.6 -9 5.6 -18.4
	1.6 6 -1.3 11.6 -5.6 12.8
"/>
<use x="340.40" y="281.80" xlink:href="#hl"/>
<use x="340.40" y="275.80" xlink:href="#hl"/>
<use x="340.40" y="269.80" xlink:href="#hl"/>
<use x="340.40" y="263.80" xlink:href="#hl"/>
<use x="340.40" y="257.80" xlink:href="#hl"/>
<use x="340.40" y="251.80" xlink:href="#hl"/>
<use x="340.40" y="251.80" xlink:href="#hd"/>
<path d="M336.90 251.80v48.00" class="stroke"/>
<path class="fill"
	d="M336.90 299.80c0.6 -5.6 9.6 -9 5.6 -18.4
	1.6 6 -1.3 11.6 -5.6 12.8
"/>
<use x="361.70" y="299.80" xlink:href="#hd"/>
<path d="M358.20 299.80v21.00" class="stroke"/>
<path class="fill"
	d="M358.20 320.80c0.6 -5.6 9.6 -9 5.6 -18.4
	1.6 6 -1.3 11.6 -5.6 12.8
"/>
<use x="383.10" y="281.80" xlink:href="#hl"/>
<use x="383.10" y="275.80" xlink:href="#hl"/>
<use x="383.10" y="272.80" xlink:href="#hd"/>
<path d="M379.60 272.80v27.00" class="stroke"/>
<path class="fill"
	d="M379.60 299.80c0.6 -5.6 9.6 -9 5.6 -18.4
	1.6 6 -1.3 11.6 -5.6 12.8
"/>
<use x="411.00" y="308.80" xlink:href="#hd"/>
<path d="M414.50 308.80v-21.00" class="stroke"/>
<path class="fill"
	d="M414.50 287.80c0.6 5.6 9.6 9 5.6 18.4
	1.6 -6 -1.3 -11.6 -5.6 -12.8
"/>
<use x="432.80" y="281.80" xlink:href="#hl"/>
<use x="432.80" y="281.80" xlink:href="#hd"/>
<path d="M429.30 281.80v21.00" class="stroke"/>
<path class="fill"
	d="M429.30 302.80c0.6 -5.6 9.6 -9 5.6 -18.4
	1.6 6 -1.3 11.6 -5.6 12.8
"/>
<use x="454.30" y="281.80" xlink:href="#hl"/>
<use x="454.30" y="275.80" xlink:href="#hl"/>
<use x="454.30" y="275.80" xlink:href="#hd"/>
<path d="M450.80 275.80v24.00" class="stroke"/>
<path class="fill"
	d="M450.80 299.80c0.6 -5.6 9.6 -9 5.6 -18.4
	1.6 6 -1.3 11.6 -5.6 12.8
"/>
<use x="475.70" y="281.80" xlink:href="#hl"/>
<use x="475.70" y="275.80" xlink:href="#hl"/>
<use x="475.70" y="269.80" xlink:href="#hl"/>
<use x="475.70" y="269.80" xlink:href="#hd"/>
<path d="M472.20 269.80v30.00" class="stroke"/>
<path class="fill"
	d="M472.20 299.80c0.6 -5.6 9.6 -9 5.6 -18.4
	1.6 6 -1.3 11.6 -5.6 12.8
"/>
<use x="497.20" y="281.80" xlink:href="#hl"/>
<use x="497.20" y="275.80" xlink:href="#hl"/>
<use x="497.20" y="269.80" xlink:href="#hl"/>
<use x="497.20" y="266.80" xlink:href="#hd"/>
<path d="M493.70 266.80v33.00" class="stroke"/>
<path class="fill"
	d="M493.70 299.80c0.6 -5.6 9.6 -9 5.6 -18.4
	1.6 6 -1.3 11.6 -5.6 12.8
"/>
<use x="518.70" y="281.80" xlink:href="#hl"/>
<use x="518.70" y="275.80" xlink:href="#hl"/>
<use x="518.70" y="269.80" xlink:href="#hl"/>
<use x="518.70" y="263.80" xlink:href="#hl"/>
<use x="518.70" y="260.80" xlink:href="#hd"/>
<path d="M515.20 260.80v39.00" class="stroke"/>
<path class="fill"
	d="M515.20 299.80c0.6 -5.6 9.6 -9 5.6 -18.4
	1.6 6 -1.3 11.6 -5.6 12.8
"/>
<use x="537.90" y="308.80" xlink:href="#hd"/>
<path d="M541.40 308.80v-21.00" class="stroke"/>
<path class="fill"
	d="M541.40 287.80c0.6 5.6 9.6 9 5.6 18.4
	1.6 -6 -1.3 -11.6 -5.6 -12.8
"/>
<use x="559.80" y="281.80" xlink:href="#hl"/>
<use x="559.80" y="281.80" xlink:href="#hd"/>
<path d="M556.30 281.80v21.00" class="stroke"/>
<path class="fill"
	d="M556.30 302.80c0.6 -5.6 9.6 -9 5.6 -18.4
	1.6 6 -1.3 11.6 -5.6 12.8
"/>
<use x="602.80" y="314.80" xlink:href="#HD"/>
<use x="602.80" y="308.80" xlink:href="#HD"/>
<use x="602.80" y="302.80" xlink:href="#HD"/>
<use x="602.80" y="296.80" xlink:href="#HD"/>
<g transform="rotate(270)">
<use x="-317.80" y="589.30" xlink:href="#ltr"/>
<use x="-311.80" y="589.30" xlink:href="#ltr"/>
<use x="-305.80" y="589.30" xlink:href="#ltr"/>
<use x="-299.80" y="589.30" xlink:href="#ltr"/>
</g>
<text x="691.60" y="210.80" style="font:bold italic 30px serif">,</text>
</g>
<g stroke-width="0.70" style="font:italic 11.00px Times">
<path class="stroke" stroke-width="1"
	d="M10.00 460.20v-91.00"/>
<g transform="translate(10.00,369.20) scale(1,0.91)">
	<use xlink:href="#brace"/>
</g>
<path class="stroke" stroke-width="1"
	d="M225.80 393.20v-24.00"/>
<path class="stroke" stroke-width="1"
	d="M225.80 460.20v-24.00"/>
<path class="stroke" stroke-width="1"
	d="M367.00 393.20v-24.00"/>
<path class="stroke" stroke-width="1"
	d="M367.00 460.20v-24.00"/>
<path class="stroke" stroke-width="1"
	d="M550.40 393.20v-24.00"/>
<path class="stroke" stroke-width="1"
	d="M550.40 460.20v-24.00"/>
<path class="stroke" stroke-width="1"
	d="M691.60 393.20v-24.00"/>
<path class="stroke" stroke-width="1"
	d="M691.60 460.20v-24.00"/>
<path d="m10.00 393.20
	h681.60
	M10.00 387.20
	h681.60
	M10.00 381.20
	h681.60
	M10.00 375.20
	h681.60
	M10.00 369.20
	h681.60
	" class="stroke"/>
<path d="m10.00 460.20
	h681.60
	M10.00 454.20
	h681.60
	M10.00 448.20
	h681.60
	M10.00 442.20
	h681.60
	M10.00 436.20
	h681.60
	" class="stroke"/>
</g>
<g stroke-width="0.70" style="font:bold 13.00px Times">
<text x="49.10" y="364.60">V<tspan
	 style="font:italic 11.00px Times">⁷</tspan></text>
</g>
<g stroke-width="0.70" style="font:bold 13.00px Times">
<text x="243.00" y="351.60">V<tspan
	 style="font:italic 11.00px Times">⁷¹</tspan></text>
</g>
<g stroke-width="0.70" style="font:bold 13.00px Times">
<text x="373.70" y="364.60">V<tspan
	 style="font:italic 11.00px Times">⁷</tspan></text>
</g>
<g stroke-width="0.70" style="font:bold 13.00px Times">
<text x="567.50" y="351.60">V<tspan
	 style="font:italic 11.00px Times">⁷¹</tspan></text>
</g>
<g stroke-width="0.70" style="font:italic 11.00px Times">
<use x="22.00" y="387.20" xlink:href="#tclef"/>
<use x="37.00" y="381.20" xlink:href="#ft0"/>
<use x="55.00" y="378.20" xlink:href="#hd"/>
<path d="M51.50 378.20v21.00" class="stroke"/>
<use x="100.00" y="378.20" xlink:href="#hd"/>
<path d="M96.50 378.20v21.00" class="stroke"/>
<use x="144.80" y="378.20" xlink:href="#hd"/>
<path d="M141.30 378.20v21.00" class="stroke"/>
<use x="187.20" y="390.20" xlink:href="#hd"/>
<path d="M190.70 390.20v-21.00" class="stroke"/>
<use x="250.80" y="363.20" xlink:href="#hl"/>
<use x="250.80" y="360.20" xlink:href="#hd"/>
<path d="M247.30 360.20v40.00" class="stroke"/>
<use x="250.80" y="381.20" xlink:href="#hd"/>
<use x="282.20" y="363.20" xlink:href="#hl"/>
<use x="282.20" y="363.20" xlink:href="#hd"/>
<path d="M278.70 363.20v40.00" class="stroke"/>
<use x="282.20" y="384.20" xlink:href="#hd"/>
<use x="313.50" y="363.20" xlink:href="#hl"/>
<use x="313.50" y="363.20" xlink:href="#hd"/>
<path d="M310.00 363.20v40.00" class="stroke"/>
<use x="313.50" y="384.20" xlink:href="#hd"/>
<use x="344.80" y="366.20" xlink:href="#hd"/>
<path d="M341.30 366.20v40.00" class="stroke"/>
<use x="344.80" y="387.20" xlink:href="#hd"/>
<use x="379.50" y="378.20" xlink:href="#hd"/>
<path d="M376.00 378.20v21.00" class="stroke"/>
<use x="424.60" y="378.20" xlink:href="#hd"/>
<path d="M421.10 378.20v21.00" class="stroke"/>
<use x="469.30" y="378.20" xlink:href="#hd"/>
<path d="M465.80 378.20v21.00" class="stroke"/>
<use x="511.80" y="390.20" xlink:href="#hd"/>
<path d="M515.30 390.20v-21.00" class="stroke"/>
<use x="575.40" y="363.20" xlink:href="#hl"/>
<use x="575.40" y="360.20" xlink:href="#hd"/>
<path d="M571.90 360.20v40.00" class="stroke"/>
<use x="575.40" y="381.20" xlink:href="#hd"/>
<use x="606.70" y="363.20" xlink:href="#hl"/>
<use x="606.70" y="363.20" xlink:href="#hd"/>
<path d="M603.20 363.20v40.00" class="stroke"/>
<use x="606.70" y="384.20" xlink:href="#hd"/>
<use x="638.10" y="363.20" xlink:href="#hl"/>
<use x="638.10" y="363.20" xlink:href="#hd"/>
<path d="M634.60 363.20v40.00" class="stroke"/>
<use x="638.10" y="384.20" xlink:href="#hd"/>
<use x="669.40" y="366.20" xlink:href="#hd"/>
<path d="M665.90 366.20v40.00" class="stroke"/>
<use x="669.40" y="387.20" xlink:href="#hd"/>
<use x="22.00" y="442.20" xlink:href="#bclef"/>
<use x="37.00" y="454.20" xlink:href="#ft0"/>
<use x="55.00" y="466.20" xlink:href="#hl"/>
<use x="55.00" y="472.20" xlink:href="#hl"/>
<use x="55.00" y="472.20" xlink:href="#hd"/>
<path d="M58.50 472.20v-40.00" class="stroke"/>
<path class="fill"
	d="M58.50 432.20c0.6 5.6 9.6 9 5.6 18.4
	1.6 -6 -1.3 -11.6 -5.6 -12.8
"/>
<use x="55.00" y="451.20" xlink:href="#hd"/>
<use x="77.70" y="430.20" xlink:href="#hl"/>
<use x="77.70" y="424.20" xlink:href="#hl"/>
<use x="77.70" y="424.20" xlink:href="#hd"/>
<path d="M74.20 424.20v24.00" class="stroke"/>
<path class="fill"
	d="M74.20 448.20c0.6 -5.6 9.6 -9 5.6 -18.4
	1.6 6 -1.3 11.6 -5.6 12.8
"/>
<use x="100.00" y="430.20" xlink:href="#hl"/>
<use x="100.00" y="424.20" xlink:href="#hl"/>
<use x="100.00" y="418.20" xlink:href="#hl"/>
<use x="100.00" y="418.20" xlink:href="#hd"/>
<path d="M96.50 418.20v30.00" class="stroke"/>
<path class="fill"
	d="M96.50 448.20c0.6 -5.6 9.6 -9 5.6 -18.4
	1.6 6 -1.3 11.6 -5.6 12.8
"/>
<use x="122.40" y="430.20" xlink:href="#hl"/>
<use x="122.40" y="424.20" xlink:href="#hl"/>
<use x="122.40" y="418.20" xlink:href="#hl"/>
<use x="122.40" y="412.20" xlink:href="#hl"/>
<use x="122.40" y="412.20" xlink:href="#hd"/>
<path d="M118.90 412.20v36.00" class="stroke"/>
<path class="fill"
	d="M118.90 448.20c0.6 -5.6 9.6 -9 5.6 -18.4
	1.6 6 -1.3 11.6 -5.6 12.8
"/>
<use x="144.80" y="430.20" xlink:href="#hl"/>
<use x="144.80" y="424.20" xlink:href="#hl"/>
<use x="144.80" y="418.20" xlink:href="#hl"/>
<use x="144.80" y="412.20" xlink:href="#hl"/>
<use x="144.80" y="409.20" xlink:href="#hd"/>
<path d="M141.30 409.20v39.00" class="stroke"/>
<path class="fill"
	d="M141.30 448.20c0.6 -5.6 9.6 -9 5.6 -18.4
	1.6 6 -1.3 11.6 -5.6 12.8
"/>
<use x="167.10" y="430.20" xlink:href="#hl"/>
<use x="167.10" y="424.20" xlink:href="#hl"/>
<use x="167.10" y="418.20" xlink:href="#hl"/>
<use x="167.10" y="412.20" xlink:href="#hl"/>
<use x="167.10" y="406.20" xlink:href="#hl"/>
<use x="167.10" y="403.20" xlink:href="#hd"/>
<path d="M163.60 403.20v45.00" class="stroke"/>
<path class="fill"
	d="M163.60 448.20c0.6 -5.6 9.6 -9 5.6 -18.4
	1.6 6 -1.3 11.6 -5.6 12.8
"/>
<use x="187.20" y="451.20" xlink:href="#hd"/>
<path d="M190.70 451.20v-21.00" class="stroke"/>
<path class="fill"
	d="M190.70 430.20c0.6 5.6 9.6 9 5.6 18.4
	1.6 -6 -1.3 -11.6 -5.6 -12.8
"/>
<use x="209.90" y="430.20" xlink:href="#hl"/>
<use x="209.90" y="424.20" xlink:href="#hl"/>
<use x="209.90" y="424.20" xlink:href="#hd"/>
<path d="M206.40 424.20v24.00" class="stroke"/>
<path class="fill"
	d="M206.40 448.20c0.6 -5.6 9.6 -9 5.6 -18.4
	1.6 6 -1.3 11.6 -5.6 12.8
"/>
<use x="251.80" y="433.20" xlink:href="#HD"/>
<use x="251.80" y="451.20" xlink:href="#HD"/>
<use x="251.80" y="445.20" xlink:href="#HD"/>
<use x="251.80" y="439.20" xlink:href="#HD"/>
<use x="379.50" y="466.20" xlink:href="#hl"/>
<use x="379.50" y="472.20" xlink:href="#hl"/>
<use x="379.50" y="472.20" xlink:href="#hd"/>
<path d="M383.00 472.20v-40.00" class="stroke"/>
<path class="fill"
	d="M383.00 432.20c0.6 5.6 9.6 9 5.6 18.4
	1.6 -6 -1.3 -11.6 -5.6 -12.8
"/>
<use x="379.50" y="451.20" xlink:href="#hd"/>
<use x="402.20" y="430.20" xlink:href="#hl"/>
<use x="402.20" y="424.20" xlink:href="#hl"/>
<use x="402.20" y="424.20" xlink:href="#hd"/>
<path d="M398.70 424.20v24.00" class="stroke"/>
<path class="fill"
	d="M398.70 448.20c0.6 -5.6 9.6 -9 5.6 -18.4
	1.6 6 -1.3 11.6 -5.6 12.8
"/>
<use x="424.60" y="430.20" xlink:href="#hl"/>
<use x="424.60" y="424.20" xlink:href="#hl"/>
<use x="424.60" y="418.20" xlink:href="#hl"/>
<use x="424.60" y="418.20" xlink:href="#hd"/>
<path d="M421.10 418.20v30.00" class="stroke"/>
<path class="fill"
	d="M421.10 448.20c0.6 -5.6 9.6 -9 5.6 -18.4
	1.6 6 -1.3 11.6 -5.6 12.8
"/>
<use x="446.90" y="430.20" xlink:href="#hl"/>
<use x="446.90" y="424.20" xlink:href="#hl"/>
<use x="446.90" y="418.20" xlink:href="#hl"/>
<use x="446.90" y="412.20" xlink:href="#hl"/>
<use x="446.90" y="412.20" xlink:href="#hd"/>
<path d="M443.40 412.20v36.00" class="stroke"/>
<path class="fill"
	d="M443.40 448.20c0.6 -5.6 9.6 -9 5.6 -18.4
	1.6 6 -1.3 11.6 -5.6 12.8
"/>
<use x="469.30" y="430.20" xlink:href="#hl"/>
<use x="469.30" y="424.20" xlink:href="#hl"/>
<use x="469.30" y="418.20" xlink:href="#hl"/>
<use x="469.30" y="412.20" xlink:href="#hl"/>
<use x="469.30" y="409.20" xlink:href="#hd"/>
<path d="M465.80 409.20v39.00" class="stroke"/>
<path class="fill"
	d="M465.80 448.20c0.6 -5.6 9.6 -9 5.6 -18.4
	1.6 6 -1.3 11.6 -5.6 12.8
"/>
<use x="491.70" y="430.20" xlink:href="#hl"/>
<use x="491.70" y="424.20" xlink:href="#hl"/>
<use x="491.70" y="418.20" xlink:href="#hl"/>
<use x="491.70" y="412.20" xlink:href="#hl"/>
<use x="491.70" y="406.20" xlink:href="#hl"/>
<use x="491.70" y="403.20" xlink:href="#hd"/>
<path d="M488.20 403.20v45.00" class="stroke"/>
<path class="fill"
	d="M488.20 448.20c0.6 -5.6 9.6 -9 5.6 -18.4
	1.6 6 -1.3 11.6 -5.6 12.8
"/>
<use x="511.80" y="451.20" xlink:href="#hd"/>
<path d="M515.30 451.20v-21.00" class="stroke"/>
<path class="fill"
	d="M515.30 430.20c0.6 5.6 9.6 9 5.6 18.4
	1.6 -6 -1.3 -11.6 -5.6 -12.8
"/>
<use x="534.40" y="430.20" xlink:href="#hl"/>
<use x="534.40" y="424.20" xlink:href="#hl"/>
<use x="534.40" y="424.20" xlink:href="#hd"/>
<path d="M530.90 424.20v24.00" class="stroke"/>
<path class="fill"
	d="M530.90 448.20c0.6 -5.6 9.6 -9 5.6 -18.4
	1.6 6 -1.3 11.6 -5.6 12.8
"/>
<use x="576.40" y="433.20" xlink:href="#HD"/>
<use x="576.40" y="451.20" xlink:href="#HD"/>
<use x="576.40" y="445.20" xlink:href="#HD"/>
<use x="576.40" y="439.20" xlink:href="#HD"/>
<g transform="rotate(270)">
<use x="-454.20" y="238.30" xlink:href="#ltr"/>
<use x="-448.20" y="238.30" xlink:href="#ltr"/>
<use x="-442.20" y="238.30" xlink:href="#ltr"/>
<use x="-436.20" y="238.30" xlink:href="#ltr"/>
</g>
<text x="372.00" y="360.20" style="font:bold italic 30px serif">,</text>
<g transform="rotate(270)">
<use x="-454.20" y="562.90" xlink:href="#ltr"/>
<use x="-448.20" y="562.90" xlink:href="#ltr"/>
<use x="-442.20" y="562.90" xlink:href="#ltr"/>
<use x="-436.20" y="562.90" xlink:href="#ltr"/>
</g>
<text x="691.60" y="360.20" style="font:bold italic 30px serif">,</text>
</g>
<g stroke-width="0.70" style="font:italic 11.00px Times">
<path class="stroke" stroke-width="1"
	d="M10.00 592.20v-86.00"/>
<g transform="translate(10.00,506.20) scale(1,0.86)">
	<use xlink:href="#brace"/>
</g>
<path class="stroke" stroke-width="1"
	d="M213.10 530.20v-24.00"/>
<path class="stroke" stroke-width="1"
	d="M213.10 592.20v-24.00"/>
<path class="stroke" stroke-width="1"
	d="M381.60 530.20v-24.00"/>
<path class="stroke" stroke-width="1"
	d="M381.60 592.20v-24.00"/>
<path class="stroke" stroke-width="1"
	d="M523.10 530.20v-24.00"/>
<path class="stroke" stroke-width="1"
	d="M523.10 592.20v-24.00"/>
<path class="stroke" stroke-width="1"
	d="M691.60 530.20v-24.00"/>
<path class="stroke" stroke-width="1"
	d="M691.60 592.20v-24.00"/>
<path d="m10.00 530.20
	h681.60
	M10.00 524.20
	h681.60
	M10.00 518.20
	h681.60
	M10.00 512.20
	h681.60
	M10.00 506.20
	h681.60
	" class="stroke"/>
<path d="m10.00 592.20
	h681.60
	M10.00 586.20
	h681.60
	M10.00 580.20
	h681.60
	M10.00 574.20
	h681.60
	M10.00 568.20
	h681.60
	" class="stroke"/>
</g>
<g stroke-width="0.70" style="font:bold 13.00px Times">
<text x="47.00" y="501.60">IV<tspan
	 style="font:italic 11.00px Times">Δ⁷</tspan></text>
</g>
<g stroke-width="0.70" style="font:bold 13.00px Times">
<text x="217.60" y="501.60">ii<tspan
	 style="font:italic 11.00px Times">m⁷¹</tspan></text>
</g>
<g stroke-width="0.70" style="font:bold 13.00px Times">
<text x="398.70" y="494.60">V<tspan
	 style="font:italic 11.00px Times">⁷³</tspan></text>
</g>
<g stroke-width="0.70" style="font:bold 13.00px Times">
<text x="527.90" y="499.60">I<tspan
	 style="font:italic 11.00px Times">Δ⁷²</tspan></text>
</g>
<g stroke-width="0.70" style="font:italic 11.00px Times">
<use x="22.00" y="524.20" xlink:href="#tclef"/>
<use x="37.00" y="518.20" xlink:href="#ft0"/>
<use x="55.00" y="512.20" xlink:href="#hd"/>
<path d="M51.50 512.20v21.00" class="stroke"/>
<use x="96.20" y="512.20" xlink:href="#hd"/>
<path d="M92.70 512.20v21.00" class="stroke"/>
<use x="136.90" y="512.20" xlink:href="#hd"/>
<path d="M133.40 512.20v21.00" class="stroke"/>
<use x="177.60" y="515.20" xlink:href="#hd"/>
<path d="M174.10 515.20v21.00" class="stroke"/>
<use x="225.60" y="518.20" xlink:href="#hd"/>
<path d="M222.10 518.20v21.00" class="stroke"/>
<use x="266.70" y="521.20" xlink:href="#hd"/>
<path d="M270.20 521.20v-21.00" class="stroke"/>
<use x="307.40" y="518.20" xlink:href="#Hd"/>
<path d="M310.90 518.20v-21.00" class="stroke"/>
<use x="406.60" y="503.20" xlink:href="#hd"/>
<path d="M403.10 503.20v40.00" class="stroke"/>
<use x="406.60" y="524.20" xlink:href="#hd"/>
<use x="434.90" y="500.20" xlink:href="#hl"/>
<use x="434.90" y="500.20" xlink:href="#hd"/>
<path d="M431.40 500.20v40.00" class="stroke"/>
<path class="fill"
	d="M431.40 540.20c0.6 -5.6 9.6 -9 5.6 -18.4
	1.6 6 -1.3 11.6 -5.6 12.8
"/>
<use x="434.90" y="521.20" xlink:href="#hd"/>
<use x="455.30" y="500.20" xlink:href="#hl"/>
<use x="455.30" y="497.20" xlink:href="#hd"/>
<path d="M451.80 497.20v40.00" class="stroke"/>
<path class="fill"
	d="M451.80 537.20c0.6 -5.6 9.6 -9 5.6 -18.4
	1.6 6 -1.3 11.6 -5.6 12.8
"/>
<use x="455.30" y="518.20" xlink:href="#hd"/>
<use x="475.70" y="500.20" xlink:href="#hl"/>
<use x="475.70" y="494.20" xlink:href="#hl"/>
<use x="475.70" y="494.20" xlink:href="#hd"/>
<circle class="fill" cx="483.40" cy="491.20" r="1.2"/>
<path d="M472.20 494.20v40.00" class="stroke"/>
<use x="475.70" y="515.20" xlink:href="#hd"/>
<circle class="fill" cx="483.40" cy="515.20" r="1.2"/>
<use x="508.40" y="506.20" xlink:href="#hd"/>
<path d="M504.90 506.20v40.00" class="stroke"/>
<path class="fill"
	d="M504.90 546.20c0.6 -5.6 9.6 -9 5.6 -18.4
	1.6 6 -1.3 11.6 -5.6 12.8
"/>
<use x="508.40" y="527.20" xlink:href="#hd"/>
<use x="535.60" y="527.20" xlink:href="#hd"/>
<path d="M539.10 527.20v-21.00" class="stroke"/>
<use x="576.70" y="524.20" xlink:href="#hd"/>
<path d="M580.20 524.20v-21.00" class="stroke"/>
<use x="617.40" y="521.20" xlink:href="#Hd"/>
<path d="M620.90 521.20v-21.00" class="stroke"/>
<use x="22.00" y="574.20" xlink:href="#bclef"/>
<use x="37.00" y="586.20" xlink:href="#ft0"/>
<use x="55.00" y="598.20" xlink:href="#hl"/>
<use x="55.00" y="604.20" xlink:href="#hl"/>
<use x="55.00" y="607.20" xlink:href="#hd"/>
<path d="M58.50 607.20v-40.00" class="stroke"/>
<path class="fill"
	d="M58.50 567.20c0.6 5.6 9.6 9 5.6 18.4
	1.6 -6 -1.3 -11.6 -5.6 -12.8
"/>
<use x="55.00" y="586.20" xlink:href="#hd"/>
<use x="75.80" y="562.20" xlink:href="#hl"/>
<use x="75.80" y="559.20" xlink:href="#hd"/>
<path d="M72.30 559.20v21.00" class="stroke"/>
<path class="fill"
	d="M72.30 580.20c0.6 -5.6 9.6 -9 5.6 -18.4
	1.6 6 -1.3 11.6 -5.6 12.8
"/>
<use x="96.20" y="562.20" xlink:href="#hl"/>
<use x="96.20" y="556.20" xlink:href="#hl"/>
<use x="96.20" y="553.20" xlink:href="#hd"/>
<path d="M92.70 553.20v27.00" class="stroke"/>
<path class="fill"
	d="M92.70 580.20c0.6 -5.6 9.6 -9 5.6 -18.4
	1.6 6 -1.3 11.6 -5.6 12.8
"/>
<use x="116.60" y="562.20" xlink:href="#hl"/>
<use x="116.60" y="556.20" xlink:href="#hl"/>
<use x="116.60" y="550.20" xlink:href="#hl"/>
<use x="116.60" y="547.20" xlink:href="#hd"/>
<path d="M113.10 547.20v33.00" class="stroke"/>
<path class="fill"
	d="M113.10 580.20c0.6 -5.6 9.6 -9 5.6 -18.4
	1.6 6 -1.3 11.6 -5.6 12.8
"/>
<use x="136.90" y="562.20" xlink:href="#hl"/>
<use x="136.90" y="556.20" xlink:href="#hl"/>
<use x="136.90" y="550.20" xlink:href="#hl"/>
<use x="136.90" y="544.20" xlink:href="#hl"/>
<use x="136.90" y="544.20" xlink:href="#hd"/>
<path d="M133.40 544.20v36.00" class="stroke"/>
<path class="fill"
	d="M133.40 580.20c0.6 -5.6 9.6 -9 5.6 -18.4
	1.6 6 -1.3 11.6 -5.6 12.8
"/>
<use x="157.30" y="562.20" xlink:href="#hl"/>
<use x="157.30" y="556.20" xlink:href="#hl"/>
<use x="157.30" y="550.20" xlink:href="#hl"/>
<use x="157.30" y="544.20" xlink:href="#hl"/>
<use x="157.30" y="538.20" xlink:href="#hl"/>
<use x="157.30" y="538.20" xlink:href="#hd"/>
<path d="M153.80 538.20v42.00" class="stroke"/>
<path class="fill"
	d="M153.80 580.20c0.6 -5.6 9.6 -9 5.6 -18.4
	1.6 6 -1.3 11.6 -5.6 12.8
"/>
<use x="177.60" y="586.20" xlink:href="#hd"/>
<path d="M181.10 586.20v-21.00" class="stroke"/>
<path class="fill"
	d="M181.10 565.20c0.6 5.6 9.6 9 5.6 18.4
	1.6 -6 -1.3 -11.6 -5.6 -12.8
"/>
<use x="198.40" y="562.20" xlink:href="#hl"/>
<use x="198.40" y="559.20" xlink:href="#hd"/>
<path d="M194.90 559.20v21.00" class="stroke"/>
<path class="fill"
	d="M194.90 580.20c0.6 -5.6 9.6 -9 5.6 -18.4
	1.6 6 -1.3 11.6 -5.6 12.8
"/>
<use x="225.60" y="592.20" xlink:href="#hd"/>
<path d="M229.10 592.20v-21.00" class="stroke"/>
<path class="fill"
	d="M229.10 571.20c0.6 5.6 9.6 9 5.6 18.4
	1.6 -6 -1.3 -11.6 -5.6 -12.8
"/>
<use x="246.40" y="565.20" xlink:href="#hd"/>
<path d="M242.90 565.20v21.00" class="stroke"/>
<path class="fill"
	d="M242.90 586.20c0.6 -5.6 9.6 -9 5.6 -18.4
	1.6 6 -1.3 11.6 -5.6 12.8
"/>
<use x="266.70" y="562.20" xlink:href="#hl"/>
<use x="266.70" y="559.20" xlink:href="#hd"/>
<path d="M263.20 559.20v21.00" class="stroke"/>
<path class="fill"
	d="M263.20 580.20c0.6 -5.6 9.6 -9 5.6 -18.4
	1.6 6 -1.3 11.6 -5.6 12.8
"/>
<use x="287.00" y="562.20" xlink:href="#hl"/>
<use x="287.00" y="556.20" xlink:href="#hl"/>
<use x="287.00" y="553.20" xlink:href="#hd"/>
<path d="M283.50 553.20v27.00" class="stroke"/>
<path class="fill"
	d="M283.50 580.20c0.6 -5.6 9.6 -9 5.6 -18.4
	1.6 6 -1.3 11.6 -5.6 12.8
"/>
<use x="307.40" y="562.20" xlink:href="#hl"/>
<use x="307.40" y="556.20" xlink:href="#hl"/>
<use x="307.40" y="550.20" xlink:href="#hl"/>
<use x="307.40" y="550.20" xlink:href="#hd"/>
<path d="M303.90 550.20v30.00" class="stroke"/>
<path class="fill"
	d="M303.90 580.20c0.6 -5.6 9.6 -9 5.6 -18.4
	1.6 6 -1.3 11.6 -5.6 12.8
"/>
<use x="327.80" y="562.20" xlink:href="#hl"/>
<use x="327.80" y="556.20" xlink:href="#hl"/>
<use x="327.80" y="550.20" xlink:href="#hl"/>
<use x="327.80" y="544.20" xlink:href="#hl"/>
<use x="327.80" y="544.20" xlink:href="#hd"/>
<path d="M324.30 544.20v36.00" class="stroke"/>
<path class="fill"
	d="M324.30 580.20c0.6 -5.6 9.6 -9 5.6 -18.4
	1.6 6 -1.3 11.6 -5.6 12.8
"/>
<use x="346.10" y="592.20" xlink:href="#hd"/>
<path d="M349.60 592.20v-21.00" class="stroke"/>
<path class="fill"
	d="M349.60 571.20c0.6 5.6 9.6 9 5.6 18.4
	1.6 -6 -1.3 -11.6 -5.6 -12.8
"/>
<use x="366.90" y="565.20" xlink:href="#hd"/>
<path d="M363.40 565.20v21.00" class="stroke"/>
<path class="fill"
	d="M363.40 586.20c0.6 -5.6 9.6 -9 5.6 -18.4
	1.6 6 -1.3 11.6 -5.6 12.8
"/>
<use x="407.60" y="565.20" xlink:href="#HD"/>
<use x="407.60" y="583.20" xlink:href="#HD"/>
<use x="407.60" y="577.20" xlink:href="#HD"/>
<use x="407.60" y="571.20" xlink:href="#HD"/>
<use x="535.60" y="598.20" xlink:href="#hl"/>
<use x="535.60" y="604.20" xlink:href="#hl"/>
<use x="535.60" y="610.20" xlink:href="#hl"/>
<use x="535.60" y="616.20" xlink:href="#hl"/>
<use x="535.60" y="616.20" xlink:href="#hd"/>
<path d="M539.10 616.20v-40.00" class="stroke"/>
<path class="fill"
	d="M539.10 576.20c0.6 5.6 9.6 9 5.6 18.4
	1.6 -6 -1.3 -11.6 -5.6 -12.8
"/>
<use x="535.60" y="595.20" xlink:href="#hd"/>
<use x="556.40" y="568.20" xlink:href="#hd"/>
<path d="M552.90 568.20v21.00" class="stroke"/>
<path class="fill"
	d="M552.90 589.20c0.6 -5.6 9.6 -9 5.6 -18.4
	1.6 6 -1.3 11.6 -5.6 12.8
"/>
<use x="576.70" y="562.20" xlink:href="#hl"/>
<use x="576.70" y="562.20" xlink:href="#hd"/>
<path d="M573.20 562.20v21.00" class="stroke"/>
<path class="fill"
	d="M573.20 583.20c0.6 -5.6 9.6 -9 5.6 -18.4
	1.6 6 -1.3 11.6 -5.6 12.8
"/>
<use x="597.00" y="562.20" xlink:href="#hl"/>
<use x="597.00" y="556.20" xlink:href="#hl"/>
<use x="597.00" y="556.20" xlink:href="#hd"/>
<path d="M593.50 556.20v24.00" class="stroke"/>
<path class="fill"
	d="M593.50 580.20c0.6 -5.6 9.6 -9 5.6 -18.4
	1.6 6 -1.3 11.6 -5.6 12.8
"/>
<use x="617.40" y="562.20" xlink:href="#hl"/>
<use x="617.40" y="556.20" xlink:href="#hl"/>
<use x="617.40" y="553.20" xlink:href="#hd"/>
<path d="M613.90 553.20v27.00" class="stroke"/>
<path class="fill"
	d="M613.90 580.20c0.6 -5.6 9.6 -9 5.6 -18.4
	1.6 6 -1.3 11.6 -5.6 12.8
"/>
<use x="637.80" y="562.20" xlink:href="#hl"/>
<use x="637.80" y="556.20" xlink:href="#hl"/>
<use x="637.80" y="550.20" xlink:href="#hl"/>
<use x="637.80" y="547.20" xlink:href="#hd"/>
<path d="M634.30 547.20v33.00" class="stroke"/>
<path class="fill"
	d="M634.30 580.20c0.6 -5.6 9.6 -9 5.6 -18.4
	1.6 6 -1.3 11.6 -5.6 12.8
"/>
<use x="656.10" y="595.20" xlink:href="#hd"/>
<path d="M659.60 595.20v-21.00" class="stroke"/>
<path class="fill"
	d="M659.60 574.20c0.6 5.6 9.6 9 5.6 18.4
	1.6 -6 -1.3 -11.6 -5.6 -12.8
"/>
<use x="676.90" y="568.20" xlink:href="#hd"/>
<path d="M673.40 568.20v21.00" class="stroke"/>
<path class="fill"
	d="M673.40 589.20c0.6 -5.6 9.6 -9 5.6 -18.4
	1.6 6 -1.3 11.6 -5.6 12.8
"/>
<g transform="rotate(270)">
<use x="-586.20" y="394.10" xlink:href="#ltr"/>
<use x="-580.20" y="394.10" xlink:href="#ltr"/>
<use x="-574.20" y="394.10" xlink:href="#ltr"/>
<use x="-568.20" y="394.10" xlink:href="#ltr"/>
</g>
<text x="528.10" y="497.20" style="font:bold italic 30px serif">,</text>
</g>
<g stroke-width="0.70" style="font:italic 11.00px Times">
<path class="stroke" stroke-width="1"
	d="M10.00 736.20v-91.00"/>
<g transform="translate(10.00,645.20) scale(1,0.91)">
	<use xlink:href="#brace"/>
</g>
<path class="stroke" stroke-width="1"
	d="M221.00 669.20v-24.00"/>
<path class="stroke" stroke-width="1"
	d="M221.00 736.20v-24.00"/>
<path class="stroke" stroke-width="1"
	d="M397.30 669.20v-24.00"/>
<path class="stroke" stroke-width="1"
	d="M397.30 736.20v-24.00"/>
<path class="stroke" stroke-width="1"
	d="M576.00 669.20v-24.00"/>
<path class="stroke" stroke-width="1"
	d="M576.00 736.20v-24.00"/>
<path class="stroke" stroke-width="1"
	d="M691.60 669.20v-24.00"/>
<path class="stroke" stroke-width="1"
	d="M691.60 736.20v-24.00"/>
<path d="m10.00 669.20
	h681.60
	M10.00 663.20
	h681.60
	M10.00 657.20
	h681.60
	M10.00 651.20
	h681.60
	M10.00 645.20
	h681.60
	" class="stroke"/>
<path d="m10.00 736.20
	h681.60
	M10.00 730.20
	h681.60
	M10.00 724.20
	h681.60
	M10.00 718.20
	h681.60
	M10.00 712.20
	h681.60
	" class="stroke"/>
</g>
<g stroke-width="0.70" style="font:bold 13.00px Times">
<text x="47.00" y="640.60">IV<tspan
	 style="font:italic 11.00px Times">Δ⁷</tspan></text>
</g>
<g stroke-width="0.70" style="font:bold 13.00px Times">
<text x="225.50" y="638.60">ii<tspan
	 style="font:italic 11.00px Times">m⁷</tspan></text>
</g>
<g stroke-width="0.70" style="font:bold 13.00px Times">
<text x="402.00" y="635.60">V<tspan
	 style="font:italic 11.00px Times">⁷¹</tspan></text>
</g>
<g stroke-width="0.70" style="font:bold 13.00px Times">
<text x="593.30" y="636.60">I<tspan
	 style="font:italic 11.00px Times">Δ⁷²</tspan></text>
</g>
<g stroke-width="0.70" style="font:italic 11.00px Times">
<use x="22.00" y="663.20" xlink:href="#tclef"/>
<use x="37.00" y="657.20" xlink:href="#ft0"/>
<use x="55.00" y="651.20" xlink:href="#hd"/>
<circle class="fill" cx="62.70" cy="648.20" r="1.2"/>
<path d="M51.50 651.20v21.00" class="stroke"/>
<use x="119.70" y="651.20" xlink:href="#hd"/>
<path d="M116.20 651.20v21.00" class="stroke"/>
<path class="fill"
	d="M116.20 672.20c0.6 -5.6 9.6 -9 5.6 -18.4
	1.6 6 -1.3 11.6 -5.6 12.8
"/>
<use x="141.10" y="651.20" xlink:href="#hd"/>
<path d="M137.60 651.20v21.00" class="stroke"/>
<use x="183.80" y="654.20" xlink:href="#hd"/>
<path d="M180.30 654.20v21.00" class="stroke"/>
<use x="233.50" y="657.20" xlink:href="#hd"/>
<path d="M230.00 657.20v21.00" class="stroke"/>
<use x="276.60" y="660.20" xlink:href="#hd"/>
<path d="M280.10 660.20v-21.00" class="stroke"/>
<use x="319.50" y="657.20" xlink:href="#Hd"/>
<path d="M323.00 657.20v-21.00" class="stroke"/>
<use x="409.80" y="663.20" xlink:href="#hd"/>
<path d="M413.30 663.20v-21.00" class="stroke"/>
<use x="453.00" y="660.20" xlink:href="#hd"/>
<path d="M456.50 660.20v-21.00" class="stroke"/>
<path class="fill"
	d="M456.50 639.20c0.6 5.6 9.6 9 5.6 18.4
	1.6 -6 -1.3 -11.6 -5.6 -12.8
"/>
<use x="474.70" y="657.20" xlink:href="#hd"/>
<path d="M478.20 657.20v-21.00" class="stroke"/>
<path class="fill"
	d="M478.20 636.20c0.6 5.6 9.6 9 5.6 18.4
	1.6 -6 -1.3 -11.6 -5.6 -12.8
"/>
<use x="496.50" y="654.20" xlink:href="#hd"/>
<circle class="fill" cx="504.20" cy="654.20" r="1.2"/>
<path d="M493.00 654.20v21.00" class="stroke"/>
<use x="559.00" y="666.20" xlink:href="#hd"/>
<path d="M562.50 666.20v-21.00" class="stroke"/>
<path class="fill"
	d="M562.50 645.20c0.6 5.6 9.6 9 5.6 18.4
	1.6 -6 -1.3 -11.6 -5.6 -12.8
"/>
<use x="601.00" y="645.20" xlink:href="#hd"/>
<path d="M597.50 645.20v40.00" class="stroke"/>
<use x="601.00" y="666.20" xlink:href="#hd"/>
<use x="630.80" y="642.20" xlink:href="#hd"/>
<path d="M627.30 642.20v40.00" class="stroke"/>
<use x="630.80" y="663.20" xlink:href="#hd"/>
<use x="661.70" y="645.20" xlink:href="#Hd"/>
<path d="M658.20 645.20v40.00" class="stroke"/>
<use x="661.70" y="666.20" xlink:href="#Hd"/>
<use x="22.00" y="718.20" xlink:href="#bclef"/>
<use x="37.00" y="730.20" xlink:href="#ft0"/>
<use x="55.00" y="730.20" xlink:href="#hd"/>
<path d="M58.50 730.20v-21.00" class="stroke"/>
<path class="fill"
	d="M58.50 709.20c0.6 5.6 9.6 9 5.6 18.4
	1.6 -6 -1.3 -11.6 -5.6 -12.8
"/>
<use x="76.80" y="706.20" xlink:href="#hl"/>
<use x="76.80" y="703.20" xlink:href="#hd"/>
<path d="M73.30 703.20v21.00" class="stroke"/>
<path class="fill"
	d="M73.30 724.20c0.6 -5.6 9.6 -9 5.6 -18.4
	1.6 6 -1.3 11.6 -5.6 12.8
"/>
<use x="98.20" y="706.20" xlink:href="#hl"/>
<use x="98.20" y="700.20" xlink:href="#hl"/>
<use x="98.20" y="697.20" xlink:href="#hd"/>
<path d="M94.70 697.20v27.00" class="stroke"/>
<path class="fill"
	d="M94.70 724.20c0.6 -5.6 9.6 -9 5.6 -18.4
	1.6 6 -1.3 11.6 -5.6 12.8
"/>
<use x="119.70" y="706.20" xlink:href="#hl"/>
<use x="119.70" y="700.20" xlink:href="#hl"/>
<use x="119.70" y="694.20" xlink:href="#hl"/>
<use x="119.70" y="691.20" xlink:href="#hd"/>
<path d="M116.20 691.20v33.00" class="stroke"/>
<path class="fill"
	d="M116.20 724.20c0.6 -5.6 9.6 -9 5.6 -18.4
	1.6 6 -1.3 11.6 -5.6 12.8
"/>
<use x="141.10" y="706.20" xlink:href="#hl"/>
<use x="141.10" y="700.20" xlink:href="#hl"/>
<use x="141.10" y="694.20" xlink:href="#hl"/>
<use x="141.10" y="688.20" xlink:href="#hl"/>
<use x="141.10" y="688.20" xlink:href="#hd"/>
<path d="M137.60 688.20v36.00" class="stroke"/>
<path class="fill"
	d="M137.60 724.20c0.6 -5.6 9.6 -9 5.6 -18.4
	1.6 6 -1.3 11.6 -5.6 12.8
"/>
<use x="162.50" y="706.20" xlink:href="#hl"/>
<use x="162.50" y="700.20" xlink:href="#hl"/>
<use x="162.50" y="694.20" xlink:href="#hl"/>
<use x="162.50" y="688.20" xlink:href="#hl"/>
<use x="162.50" y="682.20" xlink:href="#hl"/>
<use x="162.50" y="682.20" xlink:href="#hd"/>
<path d="M159.00 682.20v42.00" class="stroke"/>
<path class="fill"
	d="M159.00 724.20c0.6 -5.6 9.6 -9 5.6 -18.4
	1.6 6 -1.3 11.6 -5.6 12.8
"/>
<use x="183.80" y="730.20" xlink:href="#hd"/>
<path d="M187.30 730.20v-21.00" class="stroke"/>
<path class="fill"
	d="M187.30 709.20c0.6 5.6 9.6 9 5.6 18.4
	1.6 -6 -1.3 -11.6 -5.6 -12.8
"/>
<use x="205.60" y="706.20" xlink:href="#hl"/>
<use x="205.60" y="703.20" xlink:href="#hd"/>
<path d="M202.10 703.20v21.00" class="stroke"/>
<path class="fill"
	d="M202.10 724.20c0.6 -5.6 9.6 -9 5.6 -18.4
	1.6 6 -1.3 11.6 -5.6 12.8
"/>
<use x="233.50" y="736.20" xlink:href="#hd"/>
<path d="M237.00 736.20v-21.00" class="stroke"/>
<path class="fill"
	d="M237.00 715.20c0.6 5.6 9.6 9 5.6 18.4
	1.6 -6 -1.3 -11.6 -5.6 -12.8
"/>
<use x="255.30" y="709.20" xlink:href="#hd"/>
<path d="M251.80 709.20v21.00" class="stroke"/>
<path class="fill"
	d="M251.80 730.20c0.6 -5.6 9.6 -9 5.6 -18.4
	1.6 6 -1.3 11.6 -5.6 12.8
"/>
<use x="276.60" y="706.20" xlink:href="#hl"/>
<use x="276.60" y="703.20" xlink:href="#hd"/>
<path d="M273.10 703.20v21.00" class="stroke"/>
<path class="fill"
	d="M273.10 724.20c0.6 -5.6 9.6 -9 5.6 -18.4
	1.6 6 -1.3 11.6 -5.6 12.8
"/>
<use x="298.00" y="706.20" xlink:href="#hl"/>
<use x="298.00" y="700.20" xlink:href="#hl"/>
<use x="298.00" y="697.20" xlink:href="#hd"/>
<path d="M294.50 697.20v27.00" class="stroke"/>
<path class="fill"
	d="M294.50 724.20c0.6 -5.6 9.6 -9 5.6 -18.4
	1.6 6 -1.3 11.6 -5.6 12.8
"/>
<use x="319.50" y="706.20" xlink:href="#hl"/>
<use x="319.50" y="700.20" xlink:href="#hl"/>
<use x="319.50" y="694.20" xlink:href="#hl"/>
<use x="319.50" y="694.20" xlink:href="#hd"/>
<path d="M316.00 694.20v30.00" class="stroke"/>
<path class="fill"
	d="M316.00 724.20c0.6 -5.6 9.6 -9 5.6 -18.4
	1.6 6 -1.3 11.6 -5.6 12.8
"/>
<use x="340.90" y="706.20" xlink:href="#hl"/>
<use x="340.90" y="700.20" xlink:href="#hl"/>
<use x="340.90" y="694.20" xlink:href="#hl"/>
<use x="340.90" y="688.20" xlink:href="#hl"/>
<use x="340.90" y="688.20" xlink:href="#hd"/>
<path d="M337.40 688.20v36.00" class="stroke"/>
<path class="fill"
	d="M337.40 724.20c0.6 -5.6 9.6 -9 5.6 -18.4
	1.6 6 -1.3 11.6 -5.6 12.8
"/>
<use x="360.10" y="736.20" xlink:href="#hd"/>
<path d="M363.60 736.20v-21.00" class="stroke"/>
<path class="fill"
	d="M363.60 715.20c0.6 5.6 9.6 9 5.6 18.4
	1.6 -6 -1.3 -11.6 -5.6 -12.8
"/>
<use x="381.90" y="709.20" xlink:href="#hd"/>
<path d="M378.40 709.20v21.00" class="stroke"/>
<path class="fill"
	d="M378.40 730.20c0.6 -5.6 9.6 -9 5.6 -18.4
	1.6 6 -1.3 11.6 -5.6 12.8
"/>
<use x="409.80" y="727.20" xlink:href="#hd"/>
<path d="M413.30 727.20v-21.00" class="stroke"/>
<path class="fill"
	d="M413.30 706.20c0.6 5.6 9.6 9 5.6 18.4
	1.6 -6 -1.3 -11.6 -5.6 -12.8
"/>
<use x="431.60" y="706.20" xlink:href="#hl"/>
<use x="431.60" y="700.20" xlink:href="#hl"/>
<use x="431.60" y="700.20" xlink:href="#hd"/>
<path d="M428.10 700.20v24.00" class="stroke"/>
<path class="fill"
	d="M428.10 724.20c0.6 -5.6 9.6 -9 5.6 -18.4
	1.6 6 -1.3 11.6 -5.6 12.8
"/>
<use x="453.00" y="706.20" xlink:href="#hl"/>
<use x="453.00" y="700.20" xlink:href="#hl"/>
<use x="453.00" y="694.20" xlink:href="#hl"/>
<use x="453.00" y="694.20" xlink:href="#hd"/>
<path d="M449.50 694.20v30.00" class="stroke"/>
<path class="fill"
	d="M449.50 724.20c0.6 -5.6 9.6 -9 5.6 -18.4
	1.6 6 -1.3 11.6 -5.6 12.8
"/>
<use x="474.70" y="706.20" xlink:href="#hl"/>
<use x="474.70" y="700.20" xlink:href="#hl"/>
<use x="474.70" y="694.20" xlink:href="#hl"/>
<use x="474.70" y="688.20" xlink:href="#hl"/>
<use x="474.70" y="688.20" xlink:href="#hd"/>
<path d="M471.20 688.20v36.00" class="stroke"/>
<path class="fill"
	d="M471.20 724.20c0.6 -5.6 9.6 -9 5.6 -18.4
	1.6 6 -1.3 11.6 -5.6 12.8
"/>
<use x="496.50" y="706.20" xlink:href="#hl"/>
<use x="496.50" y="700.20" xlink:href="#hl"/>
<use x="496.50" y="694.20" xlink:href="#hl"/>
<use x="496.50" y="688.20" xlink:href="#hl"/>
<use x="496.50" y="685.20" xlink:href="#hd"/>
<path d="M493.00 685.20v39.00" class="stroke"/>
<path class="fill"
	d="M493.00 724.20c0.6 -5.6 9.6 -9 5.6 -18.4
	1.6 6 -1.3 11.6 -5.6 12.8
"/>
<use x="517.90" y="706.20" xlink:href="#hl"/>
<use x="517.90" y="700.20" xlink:href="#hl"/>
<use x="517.90" y="694.20" xlink:href="#hl"/>
<use x="517.90" y="688.20" xlink:href="#hl"/>
<use x="517.90" y="682.20" xlink:href="#hl"/>
<use x="517.90" y="679.20" xlink:href="#hd"/>
<path d="M514.40 679.20v45.00" class="stroke"/>
<path class="fill"
	d="M514.40 724.20c0.6 -5.6 9.6 -9 5.6 -18.4
	1.6 6 -1.3 11.6 -5.6 12.8
"/>
<use x="537.20" y="727.20" xlink:href="#hd"/>
<path d="M540.70 727.20v-21.00" class="stroke"/>
<path class="fill"
	d="M540.70 706.20c0.6 5.6 9.6 9 5.6 18.4
	1.6 -6 -1.3 -11.6 -5.6 -12.8
"/>
<use x="559.00" y="706.20" xlink:href="#hl"/>
<use x="559.00" y="700.20" xlink:href="#hl"/>
<use x="559.00" y="700.20" xlink:href="#hd"/>
<path d="M555.50 700.20v24.00" class="stroke"/>
<path class="fill"
	d="M555.50 724.20c0.6 -5.6 9.6 -9 5.6 -18.4
	1.6 6 -1.3 11.6 -5.6 12.8
"/>
<defs>
<path id="hl1" class="stroke" d="m-7 0h14"/>
</defs>
<use x="602.00" y="742.20" xlink:href="#hl1"/>
<use x="602.00" y="748.20" xlink:href="#hl1"/>
<use x="602.00" y="754.20" xlink:href="#hl1"/>
<use x="602.00" y="760.20" xlink:href="#hl1"/>
<use x="602.00" y="760.20" xlink:href="#HD"/>
<use x="602.00" y="739.20" xlink:href="#HD"/>
<use x="602.00" y="733.20" xlink:href="#HD"/>
<use x="602.00" y="727.20" xlink:href="#HD"/>
<use x="602.00" y="721.20" xlink:href="#HD"/>
<defs>
<g id="hld" class="fill">
	<circle cx="0" cy="-3" r="1.3"/>
	<path d="m-7.5 -1.5
		c0 -11.5 15 -11.5 15 0
		h-0.25
		c-1.25 -9 -13.25 -9 -14.5 0"/>
</g>
</defs>
<use x="601.00" y="710.20" xlink:href="#hld"/>
<g transform="rotate(270)">
<use x="-763.20" y="588.50" xlink:href="#ltr"/>
<use x="-757.20" y="588.50" xlink:href="#ltr"/>
<use x="-751.20" y="588.50" xlink:href="#ltr"/>
<use x="-745.20" y="588.50" xlink:href="#ltr"/>
<use x="-739.20" y="588.50" xlink:href="#ltr"/>
<use x="-733.20" y="588.50" xlink:href="#ltr"/>
<use x="-727.20" y="588.50" xlink:href="#ltr"/>
<use x="-721.20" y="588.50" xlink:href="#ltr"/>
</g>
<use x="661.70" y="639.20" xlink:href="#hld"/>
<g transform="rotate(270)">
<use x="-669.20" y="651.70" xlink:href="#ltr"/>
<use x="-663.20" y="651.70" xlink:href="#ltr"/>
<use x="-657.20" y="651.70" xlink:href="#ltr"/>
<use x="-651.20" y="651.70" xlink:href="#ltr"/>
<use x="-645.20" y="651.70" xlink:href="#ltr"/>
</g>
</g>
</svg>
