<?xml version="1.0" standalone="no"?>
<!DOCTYPE svg PUBLIC "-//W3C//DTD SVG 1.1//EN"
	"http://www.w3.org/Graphics/SVG/1.1/DTD/svg11.dtd">
<svg xmlns="http://www.w3.org/2000/svg" version="1.1"
	xmlns:xlink="http://www.w3.org/1999/xlink"
	color="black"
	width="701.60px" height="639.60px" viewBox="0 0 701.60 639.60" preserveAspectRatio="xMidYMid meet">
<style type="text/css">
.fill {fill: currentColor}
.stroke {stroke: currentColor; fill: none}
text{white-space: pre}
</style>
<title>/tmp/boddie_hymnal_stage/he_leadeth_me.abc (1) tune 1</title>
<!-- Creator: abcm2ps-8.14.11 -->
<!-- CreationDate: Apr 30, 2026 12:59 -->
<!-- CommandLine: /tmp/boddie_hymnal_stage/he_leadeth_me.abc -g -O /tmp/boddie_hymnal_stage/he_leadeth_me -->
<g stroke-width="0.70">
<!-- title: 088. He Leadeth Me -->
</g>
<g stroke-width="0.70" style="font:20.00px Times">
<text x="350.80" y="22.00" text-anchor="middle">088. He Leadeth Me</text>
</g>
<g stroke-width="0.70" transform="scale(0.700)" style="font:20.00px Times">
<defs>
<ellipse id="hd" rx="4.1" ry="2.9"
	transform="rotate(-20)" class="fill"/>
</defs>
<use x="110.14" y="75.57" xlink:href="#hd"/>
<path d="M113.64 75.57v-21.00" class="stroke"/>
</g>
<g stroke-width="0.70" style="font:bold 15.00px Times">
<text x="84.80" y="55.00">= 72Slowly, with great expression</text>
<path class="stroke" stroke-width="1"
	d="M10.00 163.40v-82.00"/>
<defs>
<path id="brace" class="fill" d="m-2.5 101
	c-4.5 -4.6 -7.5 -12.2 -4.4 -26.8
	3.5 -14.3 3.2 -21.7 -2.1 -24.2
	7.4 2.4 7.3 14.2 3.5 29.5
	-2.7 9.5 -1.5 16.2 3 21.5
	M-2.5 1c-4.5 4.6 -7.5 12.2 -4.4 26.8
	c3.5 14.3 3.2 21.7 -2.1 24.2
	7.4 -2.4 7.3 -14.2 3.5 -29.5
	-2.7 -9.5 -1.5 -16.2 3 -21.5"/>
</defs>
<g transform="translate(10.00,81.40) scale(1,0.82)">
	<use xlink:href="#brace"/>
</g>
<path class="stroke" stroke-width="1"
	d="M232.80 105.40v-24.00"/>
<path class="stroke" stroke-width="1"
	d="M232.80 163.40v-24.00"/>
<path class="stroke" stroke-width="1"
	d="M399.40 105.40v-24.00"/>
<path class="stroke" stroke-width="1"
	d="M399.40 163.40v-24.00"/>
<path class="stroke" stroke-width="1"
	d="M524.50 105.40v-24.00"/>
<path class="stroke" stroke-width="1"
	d="M524.50 163.40v-24.00"/>
<path class="stroke" stroke-width="1"
	d="M691.60 105.40v-24.00"/>
<path class="stroke" stroke-width="1"
	d="M691.60 163.40v-24.00"/>
<path d="m10.00 105.40
	h681.60
	M10.00 99.40
	h681.60
	M10.00 93.40
	h681.60
	M10.00 87.40
	h681.60
	M10.00 81.40
	h681.60
	" class="stroke"/>
<path d="m10.00 163.40
	h681.60
	M10.00 157.40
	h681.60
	M10.00 151.40
	h681.60
	M10.00 145.40
	h681.60
	M10.00 139.40
	h681.60
	" class="stroke"/>
</g>
<g stroke-width="0.70" style="font:bold 13.00px Times">
<text x="70.80" y="68.80">I<tspan
	 style="font:italic 11.00px Times">Δ⁷</tspan></text>
</g>
<g stroke-width="0.70" style="font:bold 13.00px Times">
<text x="237.30" y="68.80">IV<tspan
	 style="font:italic 11.00px Times">Δ⁷</tspan></text>
</g>
<g stroke-width="0.70" style="font:bold 13.00px Times">
<text x="418.60" y="63.80">I<tspan
	 style="font:italic 11.00px Times">Δ⁷</tspan></text>
</g>
<g stroke-width="0.70" style="font:bold 13.00px Times">
<text x="529.00" y="74.80">IV<tspan
	 style="font:italic 11.00px Times">Δ⁷</tspan></text>
</g>
<g stroke-width="0.70" style="font:italic 11.00px Times">
<defs>
<path id="utclef" class="fill" d="m-50 -90
	c-72 -41 -72 -158 52 -188
	150 -10 220 188 90 256
	-114 52 -275 0 -293 -136
	-15 -181 93 -229 220 -334
	88 -87 79 -133 62 -210
	-51 33 -94 105 -89 186
	17 267 36 374 49 574
	6 96 -19 134 -77 135
	-80 1 -126 -93 -61 -133
	85 -41 133 101 31 105
	23 17 92 37 90 -92
	-10 -223 -39 -342 -50 -617
	0 -90 0 -162 96 -232
	56 72 63 230 22 289
	-74 106 -257 168 -255 316
	9 153 148 185 252 133
	86 -65 29 -192 -80 -176
	-71 12 -105 67 -59 124"/>
<use id="tclef" transform="translate(0,6) scale(0.045)"
	xlink:href="#utclef"/>
</defs>
<use x="22.00" y="99.40" xlink:href="#tclef"/>
<defs>
<path id="usharp" class="fill" d="
	m136 -702
	v890
	h32
	v-890
	m128 840
	h32
	v-888
	h-32
	m-232 286
	v116
	l338 -96
	v-116
	m-338 442
	v116
	l338 -98
	v-114"/>
<use id="sh0" transform="translate(-4,5) scale(0.018)"
	xlink:href="#usharp"/>
</defs>
<use x="37.00" y="81.40" xlink:href="#sh0"/>
<use x="42.50" y="90.40" xlink:href="#sh0"/>
<g style="font:bold 16px serif"
	transform="translate(58.50,104.90) scale(1.2,1)">
	<text text-anchor="middle">4</text>
	<text y="-12" text-anchor="middle">4</text>
</g>
<use x="76.50" y="96.40" xlink:href="#hd"/>
<path d="M80.00 96.40v-21.00" class="stroke"/>
<use x="117.10" y="102.40" xlink:href="#hd"/>
<circle class="fill" cx="124.80" cy="102.40" r="1.2"/>
<path d="M120.60 102.40v-21.00" class="stroke"/>
<use x="177.10" y="105.40" xlink:href="#hd"/>
<path d="M180.60 105.40v-21.00" class="stroke"/>
<path class="fill"
	d="M180.60 84.40c0.6 5.6 9.6 9 5.6 18.4
	1.6 -6 -1.3 -11.6 -5.6 -12.8
"/>
<use x="197.50" y="108.40" xlink:href="#hd"/>
<path d="M201.00 108.40v-21.00" class="stroke"/>
<use x="245.30" y="96.40" xlink:href="#hd"/>
<path d="M248.80 96.40v-21.00" class="stroke"/>
<use x="285.90" y="93.40" xlink:href="#hd"/>
<path d="M289.40 93.40v-21.00" class="stroke"/>
<use x="326.00" y="99.40" xlink:href="#hd"/>
<path d="M329.50 99.40v-21.00" class="stroke"/>
<use x="364.10" y="99.40" xlink:href="#hd"/>
<path d="M367.60 99.40v-21.00" class="stroke"/>
<defs>
<path id="hl" class="stroke" d="m-6 0h12"/>
</defs>
<use x="424.40" y="75.40" xlink:href="#hl"/>
<use x="424.40" y="72.40" xlink:href="#hd"/>
<path d="M420.90 72.40v40.00" class="stroke"/>
<use x="424.40" y="93.40" xlink:href="#hd"/>
<use x="452.30" y="75.40" xlink:href="#hl"/>
<use x="452.30" y="75.40" xlink:href="#hd"/>
<circle class="fill" cx="460.00" cy="72.40" r="1.2"/>
<path d="M448.80 75.40v40.00" class="stroke"/>
<use x="452.30" y="96.40" xlink:href="#hd"/>
<circle class="fill" cx="460.00" cy="96.40" r="1.2"/>
<use x="484.50" y="81.40" xlink:href="#hd"/>
<path d="M481.00 81.40v40.00" class="stroke"/>
<path class="fill"
	d="M481.00 121.40c0.6 -5.6 9.6 -9 5.6 -18.4
	1.6 6 -1.3 11.6 -5.6 12.8
"/>
<use x="484.50" y="102.40" xlink:href="#hd"/>
<use x="504.50" y="81.40" xlink:href="#hd"/>
<path d="M501.00 81.40v40.00" class="stroke"/>
<use x="504.50" y="102.40" xlink:href="#hd"/>
<use x="537.00" y="105.40" xlink:href="#hd"/>
<path d="M540.50 105.40v-21.00" class="stroke"/>
<path class="fill"
	d="M540.50 84.40c0.6 5.6 9.6 9 5.6 18.4
	1.6 -6 -1.3 -11.6 -5.6 -12.8
"/>
<use x="557.70" y="108.40" xlink:href="#hd"/>
<path d="M561.20 108.40v-21.00" class="stroke"/>
<path class="fill"
	d="M561.20 87.40c0.6 5.6 9.6 9 5.6 18.4
	1.6 -6 -1.3 -11.6 -5.6 -12.8
"/>
<use x="578.10" y="102.40" xlink:href="#hd"/>
<path d="M581.60 102.40v-21.00" class="stroke"/>
<use x="618.30" y="102.40" xlink:href="#hd"/>
<path d="M621.80 102.40v-21.00" class="stroke"/>
<use x="656.30" y="105.40" xlink:href="#hd"/>
<path d="M659.80 105.40v-21.00" class="stroke"/>
<defs>
<path id="ubclef" class="fill" d="m-200 -87
	c124 -35 222 -78 254 -236
	43 -228 -167 -246 -192 -103
	59 -80 157 22 92 78
	-62 47 -115 -22 -106 -88
	21 -141 270 -136 274 52
	-1 175 -106 264 -322 297
	m357 -250
	c0 -36 51 -34 51 0
	0 37 -51 36 -51 0
	m-2 -129
	c0 -36 51 -34 51 0
	0 38 -51 37 -51 0"/>
<use id="bclef" transform="translate(0,18) scale(0.045)"
	xlink:href="#ubclef"/>
</defs>
<use x="22.00" y="145.40" xlink:href="#bclef"/>
<use x="37.00" y="145.40" xlink:href="#sh0"/>
<use x="42.50" y="154.40" xlink:href="#sh0"/>
<g style="font:bold 16px serif"
	transform="translate(58.50,162.90) scale(1.2,1)">
	<text text-anchor="middle">4</text>
	<text y="-12" text-anchor="middle">4</text>
</g>
<use x="76.50" y="169.40" xlink:href="#hl"/>
<use x="76.50" y="175.40" xlink:href="#hl"/>
<use x="76.50" y="181.40" xlink:href="#hl"/>
<use x="76.50" y="187.40" xlink:href="#hl"/>
<use x="76.50" y="193.40" xlink:href="#hl"/>
<use x="76.50" y="193.40" xlink:href="#hd"/>
<path d="M80.00 193.40v-42.00" class="stroke"/>
<path class="fill"
	d="M80.00 151.40c0.6 5.6 9.6 9 5.6 18.4
	1.6 -6 -1.3 -11.6 -5.6 -12.8
"/>
<use x="76.50" y="172.40" xlink:href="#hd"/>
<use x="97.20" y="145.40" xlink:href="#hd"/>
<path d="M93.70 145.40v21.00" class="stroke"/>
<path class="fill"
	d="M93.70 166.40c0.6 -5.6 9.6 -9 5.6 -18.4
	1.6 6 -1.3 11.6 -5.6 12.8
"/>
<use x="117.10" y="139.40" xlink:href="#hd"/>
<path d="M113.60 139.40v21.00" class="stroke"/>
<path class="fill"
	d="M113.60 160.40c0.6 -5.6 9.6 -9 5.6 -18.4
	1.6 6 -1.3 11.6 -5.6 12.8
"/>
<use x="137.00" y="133.40" xlink:href="#hl"/>
<use x="137.00" y="133.40" xlink:href="#hd"/>
<path d="M133.50 133.40v21.00" class="stroke"/>
<path class="fill"
	d="M133.50 154.40c0.6 -5.6 9.6 -9 5.6 -18.4
	1.6 6 -1.3 11.6 -5.6 12.8
"/>
<use x="157.10" y="133.40" xlink:href="#hl"/>
<use x="157.10" y="130.40" xlink:href="#hd"/>
<path d="M153.60 130.40v21.00" class="stroke"/>
<path class="fill"
	d="M153.60 151.40c0.6 -5.6 9.6 -9 5.6 -18.4
	1.6 6 -1.3 11.6 -5.6 12.8
"/>
<use x="177.10" y="133.40" xlink:href="#hl"/>
<use x="177.10" y="127.40" xlink:href="#hl"/>
<use x="177.10" y="124.40" xlink:href="#hd"/>
<path d="M173.60 124.40v27.00" class="stroke"/>
<path class="fill"
	d="M173.60 151.40c0.6 -5.6 9.6 -9 5.6 -18.4
	1.6 6 -1.3 11.6 -5.6 12.8
"/>
<use x="197.50" y="169.40" xlink:href="#hl"/>
<use x="197.50" y="172.40" xlink:href="#hd"/>
<path d="M201.00 172.40v-21.00" class="stroke"/>
<path class="fill"
	d="M201.00 151.40c0.6 5.6 9.6 9 5.6 18.4
	1.6 -6 -1.3 -11.6 -5.6 -12.8
"/>
<use x="218.20" y="145.40" xlink:href="#hd"/>
<path d="M214.70 145.40v21.00" class="stroke"/>
<path class="fill"
	d="M214.70 166.40c0.6 -5.6 9.6 -9 5.6 -18.4
	1.6 6 -1.3 11.6 -5.6 12.8
"/>
<use x="245.30" y="163.40" xlink:href="#hd"/>
<path d="M248.80 163.40v-21.00" class="stroke"/>
<path class="fill"
	d="M248.80 142.40c0.6 5.6 9.6 9 5.6 18.4
	1.6 -6 -1.3 -11.6 -5.6 -12.8
"/>
<use x="265.90" y="136.40" xlink:href="#hd"/>
<path d="M262.40 136.40v21.00" class="stroke"/>
<path class="fill"
	d="M262.40 157.40c0.6 -5.6 9.6 -9 5.6 -18.4
	1.6 6 -1.3 11.6 -5.6 12.8
"/>
<use x="285.90" y="133.40" xlink:href="#hl"/>
<use x="285.90" y="130.40" xlink:href="#hd"/>
<path d="M282.40 130.40v21.00" class="stroke"/>
<path class="fill"
	d="M282.40 151.40c0.6 -5.6 9.6 -9 5.6 -18.4
	1.6 6 -1.3 11.6 -5.6 12.8
"/>
<use x="305.90" y="133.40" xlink:href="#hl"/>
<use x="305.90" y="127.40" xlink:href="#hl"/>
<use x="305.90" y="124.40" xlink:href="#hd"/>
<path d="M302.40 124.40v27.00" class="stroke"/>
<path class="fill"
	d="M302.40 151.40c0.6 -5.6 9.6 -9 5.6 -18.4
	1.6 6 -1.3 11.6 -5.6 12.8
"/>
<use x="326.00" y="133.40" xlink:href="#hl"/>
<use x="326.00" y="127.40" xlink:href="#hl"/>
<use x="326.00" y="121.40" xlink:href="#hl"/>
<use x="326.00" y="121.40" xlink:href="#hd"/>
<path d="M322.50 121.40v30.00" class="stroke"/>
<path class="fill"
	d="M322.50 151.40c0.6 -5.6 9.6 -9 5.6 -18.4
	1.6 6 -1.3 11.6 -5.6 12.8
"/>
<use x="346.10" y="133.40" xlink:href="#hl"/>
<use x="346.10" y="127.40" xlink:href="#hl"/>
<use x="346.10" y="121.40" xlink:href="#hl"/>
<use x="346.10" y="115.40" xlink:href="#hl"/>
<use x="346.10" y="115.40" xlink:href="#hd"/>
<path d="M342.60 115.40v36.00" class="stroke"/>
<path class="fill"
	d="M342.60 151.40c0.6 -5.6 9.6 -9 5.6 -18.4
	1.6 6 -1.3 11.6 -5.6 12.8
"/>
<use x="364.10" y="163.40" xlink:href="#hd"/>
<path d="M367.60 163.40v-21.00" class="stroke"/>
<path class="fill"
	d="M367.60 142.40c0.6 5.6 9.6 9 5.6 18.4
	1.6 -6 -1.3 -11.6 -5.6 -12.8
"/>
<use x="384.80" y="136.40" xlink:href="#hd"/>
<path d="M381.30 136.40v21.00" class="stroke"/>
<path class="fill"
	d="M381.30 157.40c0.6 -5.6 9.6 -9 5.6 -18.4
	1.6 6 -1.3 11.6 -5.6 12.8
"/>
<defs>
<path id="hl1" class="stroke" d="m-7 0h14"/>
</defs>
<use x="425.40" y="169.40" xlink:href="#hl1"/>
<defs>
<path id="HD" class="fill" d="m-2.7 -1.4
	c1.5 -2.8 6.9 0 5.3 2.7
	-1.5 2.8 -6.9 0 -5.3 -2.7
	m8.3 1.4
	c0 -1.5 -2.2 -3 -5.6 -3
	-3.4 0 -5.6 1.5 -5.6 3
	0 1.5 2.2 3 5.6 3
	3.4 0 5.6 -1.5 5.6 -3"/>
</defs>
<use x="425.40" y="172.40" xlink:href="#HD"/>
<use x="425.40" y="166.40" xlink:href="#HD"/>
<use x="425.40" y="160.40" xlink:href="#HD"/>
<use x="425.40" y="154.40" xlink:href="#HD"/>
<use x="537.00" y="169.40" xlink:href="#hl"/>
<use x="537.00" y="175.40" xlink:href="#hl"/>
<use x="537.00" y="181.40" xlink:href="#hl"/>
<use x="537.00" y="184.40" xlink:href="#hd"/>
<path d="M540.50 184.40v-40.00" class="stroke"/>
<path class="fill"
	d="M540.50 144.40c0.6 5.6 9.6 9 5.6 18.4
	1.6 -6 -1.3 -11.6 -5.6 -12.8
"/>
<use x="537.00" y="163.40" xlink:href="#hd"/>
<use x="557.70" y="136.40" xlink:href="#hd"/>
<path d="M554.20 136.40v21.00" class="stroke"/>
<path class="fill"
	d="M554.20 157.40c0.6 -5.6 9.6 -9 5.6 -18.4
	1.6 6 -1.3 11.6 -5.6 12.8
"/>
<use x="578.10" y="133.40" xlink:href="#hl"/>
<use x="578.10" y="130.40" xlink:href="#hd"/>
<path d="M574.60 130.40v21.00" class="stroke"/>
<path class="fill"
	d="M574.60 151.40c0.6 -5.6 9.6 -9 5.6 -18.4
	1.6 6 -1.3 11.6 -5.6 12.8
"/>
<use x="598.20" y="133.40" xlink:href="#hl"/>
<use x="598.20" y="127.40" xlink:href="#hl"/>
<use x="598.20" y="124.40" xlink:href="#hd"/>
<path d="M594.70 124.40v27.00" class="stroke"/>
<path class="fill"
	d="M594.70 151.40c0.6 -5.6 9.6 -9 5.6 -18.4
	1.6 6 -1.3 11.6 -5.6 12.8
"/>
<use x="618.30" y="133.40" xlink:href="#hl"/>
<use x="618.30" y="127.40" xlink:href="#hl"/>
<use x="618.30" y="121.40" xlink:href="#hl"/>
<use x="618.30" y="121.40" xlink:href="#hd"/>
<path d="M614.80 121.40v30.00" class="stroke"/>
<path class="fill"
	d="M614.80 151.40c0.6 -5.6 9.6 -9 5.6 -18.4
	1.6 6 -1.3 11.6 -5.6 12.8
"/>
<use x="638.30" y="133.40" xlink:href="#hl"/>
<use x="638.30" y="127.40" xlink:href="#hl"/>
<use x="638.30" y="121.40" xlink:href="#hl"/>
<use x="638.30" y="115.40" xlink:href="#hl"/>
<use x="638.30" y="115.40" xlink:href="#hd"/>
<path d="M634.80 115.40v36.00" class="stroke"/>
<path class="fill"
	d="M634.80 151.40c0.6 -5.6 9.6 -9 5.6 -18.4
	1.6 6 -1.3 11.6 -5.6 12.8
"/>
<use x="656.30" y="163.40" xlink:href="#hd"/>
<path d="M659.80 163.40v-21.00" class="stroke"/>
<path class="fill"
	d="M659.80 142.40c0.6 5.6 9.6 9 5.6 18.4
	1.6 -6 -1.3 -11.6 -5.6 -12.8
"/>
<use x="677.00" y="136.40" xlink:href="#hd"/>
<path d="M673.50 136.40v21.00" class="stroke"/>
<path class="fill"
	d="M673.50 157.40c0.6 -5.6 9.6 -9 5.6 -18.4
	1.6 6 -1.3 11.6 -5.6 12.8
"/>
<defs>
<path id="ltr" class="fill"
    d="m0 -0.4c2 -1.5 3.4 -1.9 3.9 0.4
	c0.2 0.8 0.7 0.7 2.1 -0.4
	v0.8c-2 1.5 -3.4 1.9 -3.9 -0.4
	c-0.2 -0.8 -0.7 -0.7 -2.1 0.4z"/>
</defs>
<g transform="rotate(270)">
<use x="-175.40" y="411.90" xlink:href="#ltr"/>
<use x="-169.40" y="411.90" xlink:href="#ltr"/>
<use x="-163.40" y="411.90" xlink:href="#ltr"/>
<use x="-157.40" y="411.90" xlink:href="#ltr"/>
</g>
<text x="529.50" y="72.40" style="font:bold italic 30px serif">,</text>
</g>
<g stroke-width="0.70" style="font:italic 11.00px Times">
<path class="stroke" stroke-width="1"
	d="M10.00 319.80v-90.00"/>
<g transform="translate(10.00,229.80) scale(1,0.90)">
	<use xlink:href="#brace"/>
</g>
<path class="stroke" stroke-width="1"
	d="M157.10 253.80v-24.00"/>
<path class="stroke" stroke-width="1"
	d="M157.10 319.80v-24.00"/>
<path class="stroke" stroke-width="1"
	d="M300.90 253.80v-24.00"/>
<path class="stroke" stroke-width="1"
	d="M300.90 319.80v-24.00"/>
<path class="stroke" stroke-width="1"
	d="M435.90 253.80v-24.00"/>
<path class="stroke" stroke-width="1"
	d="M435.90 319.80v-24.00"/>
<path class="stroke" stroke-width="1"
	d="M581.70 253.80v-24.00"/>
<path class="stroke" stroke-width="1"
	d="M581.70 319.80v-24.00"/>
<path class="stroke" stroke-width="1"
	d="M691.60 253.80v-24.00"/>
<path class="stroke" stroke-width="1"
	d="M691.60 319.80v-24.00"/>
<path d="m10.00 253.80
	h681.60
	M10.00 247.80
	h681.60
	M10.00 241.80
	h681.60
	M10.00 235.80
	h681.60
	M10.00 229.80
	h681.60
	" class="stroke"/>
<path d="m10.00 319.80
	h681.60
	M10.00 313.80
	h681.60
	M10.00 307.80
	h681.60
	M10.00 301.80
	h681.60
	M10.00 295.80
	h681.60
	" class="stroke"/>
</g>
<g stroke-width="0.70" style="font:bold 13.00px Times">
<text x="70.30" y="215.20">I<tspan
	 style="font:italic 11.00px Times">Δ⁷</tspan></text>
</g>
<g stroke-width="0.70" style="font:bold 13.00px Times">
<text x="161.60" y="217.20">IV<tspan
	 style="font:italic 11.00px Times">Δ⁷</tspan></text>
</g>
<g stroke-width="0.70" style="font:bold 13.00px Times">
<text x="320.20" y="209.20">I<tspan
	 style="font:italic 11.00px Times">Δ⁷</tspan></text>
</g>
<g stroke-width="0.70" style="font:bold 13.00px Times">
<text x="440.40" y="223.20">vi<tspan
	 style="font:italic 11.00px Times">m⁷</tspan></text>
</g>
<g stroke-width="0.70" style="font:bold 13.00px Times">
<text x="601.00" y="215.20">I<tspan
	 style="font:italic 11.00px Times">Δ⁷</tspan></text>
</g>
<g stroke-width="0.70" style="font:italic 11.00px Times">
<use x="22.00" y="247.80" xlink:href="#tclef"/>
<use x="37.00" y="229.80" xlink:href="#sh0"/>
<use x="42.50" y="238.80" xlink:href="#sh0"/>
<use x="76.00" y="223.80" xlink:href="#hl"/>
<use x="76.00" y="223.80" xlink:href="#hd"/>
<path d="M72.50 223.80v40.00" class="stroke"/>
<use x="76.00" y="244.80" xlink:href="#hd"/>
<use x="98.30" y="229.80" xlink:href="#hd"/>
<circle class="fill" cx="106.00" cy="226.80" r="1.2"/>
<path d="M94.80 229.80v40.00" class="stroke"/>
<use x="98.30" y="250.80" xlink:href="#hd"/>
<circle class="fill" cx="106.00" cy="250.80" r="1.2"/>
<use x="122.80" y="253.80" xlink:href="#hd"/>
<path d="M126.30 253.80v-40.00" class="stroke"/>
<path class="fill"
	d="M126.30 213.80c0.6 5.6 9.6 9 5.6 18.4
	1.6 -6 -1.3 -11.6 -5.6 -12.8
"/>
<use x="122.80" y="232.80" xlink:href="#hd"/>
<use x="140.10" y="256.80" xlink:href="#hd"/>
<path d="M143.60 256.80v-40.00" class="stroke"/>
<use x="140.10" y="235.80" xlink:href="#hd"/>
<use x="169.60" y="244.80" xlink:href="#hd"/>
<path d="M173.10 244.80v-21.00" class="stroke"/>
<use x="203.80" y="241.80" xlink:href="#hd"/>
<path d="M207.30 241.80v-21.00" class="stroke"/>
<use x="237.20" y="247.80" xlink:href="#hd"/>
<path d="M240.70 247.80v-21.00" class="stroke"/>
<use x="270.30" y="235.80" xlink:href="#hd"/>
<path d="M266.80 235.80v21.00" class="stroke"/>
<use x="325.90" y="223.80" xlink:href="#hl"/>
<use x="325.90" y="217.80" xlink:href="#hl"/>
<use x="325.90" y="217.80" xlink:href="#hd"/>
<path d="M322.40 217.80v40.00" class="stroke"/>
<path class="fill"
	d="M322.40 257.80c0.6 -5.6 9.6 -9 5.6 -18.4
	1.6 6 -1.3 11.6 -5.6 12.8
"/>
<use x="325.90" y="238.80" xlink:href="#hd"/>
<use x="342.60" y="223.80" xlink:href="#hl"/>
<use x="342.60" y="220.80" xlink:href="#hd"/>
<path d="M339.10 220.80v40.00" class="stroke"/>
<path class="fill"
	d="M339.10 260.80c0.6 -5.6 9.6 -9 5.6 -18.4
	1.6 6 -1.3 11.6 -5.6 12.8
"/>
<use x="342.60" y="241.80" xlink:href="#hd"/>
<use x="359.30" y="223.80" xlink:href="#hl"/>
<use x="359.30" y="223.80" xlink:href="#hd"/>
<path d="M355.80 223.80v40.00" class="stroke"/>
<use x="359.30" y="244.80" xlink:href="#hd"/>
<use x="381.60" y="229.80" xlink:href="#hd"/>
<path d="M378.10 229.80v40.00" class="stroke"/>
<use x="381.60" y="250.80" xlink:href="#hd"/>
<use x="403.90" y="229.80" xlink:href="#hd"/>
<path d="M400.40 229.80v40.00" class="stroke"/>
<path class="fill"
	d="M400.40 269.80c0.6 -5.6 9.6 -9 5.6 -18.4
	1.6 6 -1.3 11.6 -5.6 12.8
"/>
<use x="403.90" y="250.80" xlink:href="#hd"/>
<use x="418.90" y="253.80" xlink:href="#hd"/>
<path d="M422.40 253.80v-40.00" class="stroke"/>
<path class="fill"
	d="M422.40 213.80c0.6 5.6 9.6 9 5.6 18.4
	1.6 -6 -1.3 -11.6 -5.6 -12.8
"/>
<use x="418.90" y="232.80" xlink:href="#hd"/>
<use x="448.40" y="256.80" xlink:href="#hd"/>
<path d="M451.90 256.80v-21.00" class="stroke"/>
<path class="fill"
	d="M451.90 235.80c0.6 5.6 9.6 9 5.6 18.4
	1.6 -6 -1.3 -11.6 -5.6 -12.8
"/>
<use x="466.30" y="253.80" xlink:href="#hd"/>
<path d="M469.80 253.80v-21.00" class="stroke"/>
<path class="fill"
	d="M469.80 232.80c0.6 5.6 9.6 9 5.6 18.4
	1.6 -6 -1.3 -11.6 -5.6 -12.8
"/>
<use x="483.60" y="250.80" xlink:href="#hd"/>
<circle class="fill" cx="491.30" cy="250.80" r="1.2"/>
<path d="M487.10 250.80v-21.00" class="stroke"/>
<use x="533.70" y="253.80" xlink:href="#hd"/>
<path d="M537.20 253.80v-21.00" class="stroke"/>
<path class="fill"
	d="M537.20 232.80c0.6 5.6 9.6 9 5.6 18.4
	1.6 -6 -1.3 -11.6 -5.6 -12.8
"/>
<use x="551.00" y="256.80" xlink:href="#hd"/>
<path d="M554.50 256.80v-21.00" class="stroke"/>
<use x="606.70" y="223.80" xlink:href="#hl"/>
<use x="606.70" y="223.80" xlink:href="#hd"/>
<path d="M603.20 223.80v40.00" class="stroke"/>
<use x="606.70" y="244.80" xlink:href="#hd"/>
<use x="629.30" y="223.80" xlink:href="#hl"/>
<use x="629.30" y="223.80" xlink:href="#hd"/>
<path d="M625.80 223.80v40.00" class="stroke"/>
<use x="629.30" y="244.80" xlink:href="#hd"/>
<use x="652.00" y="223.80" xlink:href="#hl"/>
<use x="652.00" y="217.80" xlink:href="#hl"/>
<use x="652.00" y="214.80" xlink:href="#hd"/>
<path d="M648.50 214.80v40.00" class="stroke"/>
<use x="652.00" y="235.80" xlink:href="#hd"/>
<use x="674.60" y="223.80" xlink:href="#hl"/>
<use x="674.60" y="217.80" xlink:href="#hl"/>
<use x="674.60" y="217.80" xlink:href="#hd"/>
<path d="M671.10 217.80v40.00" class="stroke"/>
<use x="674.60" y="238.80" xlink:href="#hd"/>
<use x="22.00" y="301.80" xlink:href="#bclef"/>
<use x="37.00" y="301.80" xlink:href="#sh0"/>
<use x="42.50" y="310.80" xlink:href="#sh0"/>
<use x="77.00" y="325.80" xlink:href="#hl1"/>
<use x="77.00" y="328.80" xlink:href="#HD"/>
<use x="77.00" y="322.80" xlink:href="#HD"/>
<use x="77.00" y="316.80" xlink:href="#HD"/>
<use x="77.00" y="310.80" xlink:href="#HD"/>
<use x="169.60" y="325.80" xlink:href="#hl"/>
<use x="169.60" y="331.80" xlink:href="#hl"/>
<use x="169.60" y="337.80" xlink:href="#hl"/>
<use x="169.60" y="340.80" xlink:href="#hd"/>
<path d="M173.10 340.80v-40.00" class="stroke"/>
<path class="fill"
	d="M173.10 300.80c0.6 5.6 9.6 9 5.6 18.4
	1.6 -6 -1.3 -11.6 -5.6 -12.8
"/>
<use x="169.60" y="319.80" xlink:href="#hd"/>
<use x="187.50" y="292.80" xlink:href="#hd"/>
<path d="M184.00 292.80v21.00" class="stroke"/>
<path class="fill"
	d="M184.00 313.80c0.6 -5.6 9.6 -9 5.6 -18.4
	1.6 6 -1.3 11.6 -5.6 12.8
"/>
<use x="203.80" y="289.80" xlink:href="#hl"/>
<use x="203.80" y="286.80" xlink:href="#hd"/>
<path d="M200.30 286.80v21.00" class="stroke"/>
<path class="fill"
	d="M200.30 307.80c0.6 -5.6 9.6 -9 5.6 -18.4
	1.6 6 -1.3 11.6 -5.6 12.8
"/>
<use x="220.50" y="289.80" xlink:href="#hl"/>
<use x="220.50" y="283.80" xlink:href="#hl"/>
<use x="220.50" y="280.80" xlink:href="#hd"/>
<path d="M217.00 280.80v27.00" class="stroke"/>
<path class="fill"
	d="M217.00 307.80c0.6 -5.6 9.6 -9 5.6 -18.4
	1.6 6 -1.3 11.6 -5.6 12.8
"/>
<use x="237.20" y="289.80" xlink:href="#hl"/>
<use x="237.20" y="283.80" xlink:href="#hl"/>
<use x="237.20" y="277.80" xlink:href="#hl"/>
<use x="237.20" y="277.80" xlink:href="#hd"/>
<path d="M233.70 277.80v30.00" class="stroke"/>
<path class="fill"
	d="M233.70 307.80c0.6 -5.6 9.6 -9 5.6 -18.4
	1.6 6 -1.3 11.6 -5.6 12.8
"/>
<use x="253.90" y="289.80" xlink:href="#hl"/>
<use x="253.90" y="283.80" xlink:href="#hl"/>
<use x="253.90" y="277.80" xlink:href="#hl"/>
<use x="253.90" y="271.80" xlink:href="#hl"/>
<use x="253.90" y="271.80" xlink:href="#hd"/>
<path d="M250.40 271.80v36.00" class="stroke"/>
<path class="fill"
	d="M250.40 307.80c0.6 -5.6 9.6 -9 5.6 -18.4
	1.6 6 -1.3 11.6 -5.6 12.8
"/>
<use x="270.30" y="319.80" xlink:href="#hd"/>
<path d="M273.80 319.80v-21.00" class="stroke"/>
<path class="fill"
	d="M273.80 298.80c0.6 5.6 9.6 9 5.6 18.4
	1.6 -6 -1.3 -11.6 -5.6 -12.8
"/>
<use x="288.10" y="292.80" xlink:href="#hd"/>
<path d="M284.60 292.80v21.00" class="stroke"/>
<path class="fill"
	d="M284.60 313.80c0.6 -5.6 9.6 -9 5.6 -18.4
	1.6 6 -1.3 11.6 -5.6 12.8
"/>
<use x="326.90" y="325.80" xlink:href="#hl1"/>
<use x="326.90" y="328.80" xlink:href="#HD"/>
<use x="326.90" y="322.80" xlink:href="#HD"/>
<use x="326.90" y="316.80" xlink:href="#HD"/>
<use x="326.90" y="310.80" xlink:href="#HD"/>
<use x="448.40" y="325.80" xlink:href="#hl"/>
<use x="448.40" y="331.80" xlink:href="#hl"/>
<use x="448.40" y="334.80" xlink:href="#hd"/>
<path d="M451.90 334.80v-40.00" class="stroke"/>
<path class="fill"
	d="M451.90 294.80c0.6 5.6 9.6 9 5.6 18.4
	1.6 -6 -1.3 -11.6 -5.6 -12.8
"/>
<use x="448.40" y="313.80" xlink:href="#hd"/>
<use x="466.30" y="289.80" xlink:href="#hl"/>
<use x="466.30" y="286.80" xlink:href="#hd"/>
<path d="M462.80 286.80v21.00" class="stroke"/>
<path class="fill"
	d="M462.80 307.80c0.6 -5.6 9.6 -9 5.6 -18.4
	1.6 6 -1.3 11.6 -5.6 12.8
"/>
<use x="483.60" y="289.80" xlink:href="#hl"/>
<use x="483.60" y="283.80" xlink:href="#hl"/>
<use x="483.60" y="280.80" xlink:href="#hd"/>
<path d="M480.10 280.80v27.00" class="stroke"/>
<path class="fill"
	d="M480.10 307.80c0.6 -5.6 9.6 -9 5.6 -18.4
	1.6 6 -1.3 11.6 -5.6 12.8
"/>
<use x="500.30" y="289.80" xlink:href="#hl"/>
<use x="500.30" y="283.80" xlink:href="#hl"/>
<use x="500.30" y="277.80" xlink:href="#hl"/>
<use x="500.30" y="274.80" xlink:href="#hd"/>
<path d="M496.80 274.80v33.00" class="stroke"/>
<path class="fill"
	d="M496.80 307.80c0.6 -5.6 9.6 -9 5.6 -18.4
	1.6 6 -1.3 11.6 -5.6 12.8
"/>
<use x="517.00" y="289.80" xlink:href="#hl"/>
<use x="517.00" y="283.80" xlink:href="#hl"/>
<use x="517.00" y="277.80" xlink:href="#hl"/>
<use x="517.00" y="271.80" xlink:href="#hl"/>
<use x="517.00" y="271.80" xlink:href="#hd"/>
<path d="M513.50 271.80v36.00" class="stroke"/>
<path class="fill"
	d="M513.50 307.80c0.6 -5.6 9.6 -9 5.6 -18.4
	1.6 6 -1.3 11.6 -5.6 12.8
"/>
<use x="533.70" y="289.80" xlink:href="#hl"/>
<use x="533.70" y="283.80" xlink:href="#hl"/>
<use x="533.70" y="277.80" xlink:href="#hl"/>
<use x="533.70" y="271.80" xlink:href="#hl"/>
<use x="533.70" y="265.80" xlink:href="#hl"/>
<use x="533.70" y="265.80" xlink:href="#hd"/>
<path d="M530.20 265.80v42.00" class="stroke"/>
<path class="fill"
	d="M530.20 307.80c0.6 -5.6 9.6 -9 5.6 -18.4
	1.6 6 -1.3 11.6 -5.6 12.8
"/>
<use x="551.00" y="313.80" xlink:href="#hd"/>
<path d="M554.50 313.80v-21.00" class="stroke"/>
<path class="fill"
	d="M554.50 292.80c0.6 5.6 9.6 9 5.6 18.4
	1.6 -6 -1.3 -11.6 -5.6 -12.8
"/>
<use x="568.90" y="289.80" xlink:href="#hl"/>
<use x="568.90" y="286.80" xlink:href="#hd"/>
<path d="M565.40 286.80v21.00" class="stroke"/>
<path class="fill"
	d="M565.40 307.80c0.6 -5.6 9.6 -9 5.6 -18.4
	1.6 6 -1.3 11.6 -5.6 12.8
"/>
<use x="607.70" y="325.80" xlink:href="#hl1"/>
<use x="607.70" y="328.80" xlink:href="#HD"/>
<use x="607.70" y="322.80" xlink:href="#HD"/>
<use x="607.70" y="316.80" xlink:href="#HD"/>
<use x="607.70" y="310.80" xlink:href="#HD"/>
<g transform="rotate(270)">
<use x="-331.80" y="63.50" xlink:href="#ltr"/>
<use x="-325.80" y="63.50" xlink:href="#ltr"/>
<use x="-319.80" y="63.50" xlink:href="#ltr"/>
<use x="-313.80" y="63.50" xlink:href="#ltr"/>
</g>
<text x="162.10" y="220.80" style="font:bold italic 30px serif">,</text>
<g transform="rotate(270)">
<use x="-331.80" y="313.40" xlink:href="#ltr"/>
<use x="-325.80" y="313.40" xlink:href="#ltr"/>
<use x="-319.80" y="313.40" xlink:href="#ltr"/>
<use x="-313.80" y="313.40" xlink:href="#ltr"/>
</g>
<text x="440.90" y="220.80" style="font:bold italic 30px serif">,</text>
<g transform="rotate(270)">
<use x="-331.80" y="594.20" xlink:href="#ltr"/>
<use x="-325.80" y="594.20" xlink:href="#ltr"/>
<use x="-319.80" y="594.20" xlink:href="#ltr"/>
<use x="-313.80" y="594.20" xlink:href="#ltr"/>
</g>
<text x="691.60" y="220.80" style="font:bold italic 30px serif">,</text>
</g>
<g stroke-width="0.70" style="font:italic 11.00px Times">
<path class="stroke" stroke-width="1"
	d="M10.00 468.20v-94.00"/>
<g transform="translate(10.00,374.20) scale(1,0.94)">
	<use xlink:href="#brace"/>
</g>
<path class="stroke" stroke-width="1"
	d="M225.50 398.20v-24.00"/>
<path class="stroke" stroke-width="1"
	d="M225.50 468.20v-24.00"/>
<path class="stroke" stroke-width="1"
	d="M377.00 398.20v-24.00"/>
<path class="stroke" stroke-width="1"
	d="M377.00 468.20v-24.00"/>
<path class="stroke" stroke-width="1"
	d="M554.70 398.20v-24.00"/>
<path class="stroke" stroke-width="1"
	d="M554.70 468.20v-24.00"/>
<path class="stroke" stroke-width="1"
	d="M691.60 398.20v-24.00"/>
<path class="stroke" stroke-width="1"
	d="M691.60 468.20v-24.00"/>
<path d="m10.00 398.20
	h681.60
	M10.00 392.20
	h681.60
	M10.00 386.20
	h681.60
	M10.00 380.20
	h681.60
	M10.00 374.20
	h681.60
	" class="stroke"/>
<path d="m10.00 468.20
	h681.60
	M10.00 462.20
	h681.60
	M10.00 456.20
	h681.60
	M10.00 450.20
	h681.60
	M10.00 444.20
	h681.60
	" class="stroke"/>
</g>
<g stroke-width="0.70" style="font:bold 13.00px Times">
<text x="54.60" y="369.60">V<tspan
	 style="font:italic 11.00px Times">⁷</tspan></text>
</g>
<g stroke-width="0.70" style="font:bold 13.00px Times">
<text x="242.50" y="356.60">IV<tspan
	 style="font:italic 11.00px Times">Δ⁷</tspan></text>
</g>
<g stroke-width="0.70" style="font:bold 13.00px Times">
<text x="381.50" y="367.60">vi<tspan
	 style="font:italic 11.00px Times">m⁷</tspan></text>
</g>
<g stroke-width="0.70" style="font:bold 13.00px Times">
<text x="573.80" y="359.60">V<tspan
	 style="font:italic 11.00px Times">⁷</tspan></text>
</g>
<g stroke-width="0.70" style="font:italic 11.00px Times">
<use x="22.00" y="392.20" xlink:href="#tclef"/>
<use x="37.00" y="374.20" xlink:href="#sh0"/>
<use x="42.50" y="383.20" xlink:href="#sh0"/>
<use x="60.50" y="380.20" xlink:href="#hd"/>
<path d="M57.00 380.20v21.00" class="stroke"/>
<use x="104.00" y="380.20" xlink:href="#hd"/>
<path d="M100.50 380.20v21.00" class="stroke"/>
<use x="147.10" y="383.20" xlink:href="#hd"/>
<path d="M143.60 383.20v21.00" class="stroke"/>
<path class="fill"
	d="M143.60 404.20c0.6 -5.6 9.6 -9 5.6 -18.4
	1.6 6 -1.3 11.6 -5.6 12.8
"/>
<use x="168.70" y="386.20" xlink:href="#hd"/>
<path d="M165.20 386.20v21.00" class="stroke"/>
<path class="fill"
	d="M165.20 407.20c0.6 -5.6 9.6 -9 5.6 -18.4
	1.6 6 -1.3 11.6 -5.6 12.8
"/>
<use x="188.00" y="389.20" xlink:href="#hd"/>
<path d="M191.50 389.20v-21.00" class="stroke"/>
<use x="250.50" y="368.20" xlink:href="#hl"/>
<use x="250.50" y="365.20" xlink:href="#hd"/>
<path d="M247.00 365.20v40.00" class="stroke"/>
<use x="250.50" y="386.20" xlink:href="#hd"/>
<use x="280.60" y="368.20" xlink:href="#hl"/>
<use x="280.60" y="368.20" xlink:href="#hd"/>
<path d="M277.10 368.20v40.00" class="stroke"/>
<use x="280.60" y="389.20" xlink:href="#hd"/>
<use x="310.60" y="374.20" xlink:href="#hd"/>
<path d="M307.10 374.20v40.00" class="stroke"/>
<use x="310.60" y="395.20" xlink:href="#hd"/>
<use x="340.60" y="374.20" xlink:href="#hd"/>
<path d="M337.10 374.20v40.00" class="stroke"/>
<path class="fill"
	d="M337.10 414.20c0.6 -5.6 9.6 -9 5.6 -18.4
	1.6 6 -1.3 11.6 -5.6 12.8
"/>
<use x="340.60" y="395.20" xlink:href="#hd"/>
<use x="360.00" y="398.20" xlink:href="#hd"/>
<path d="M363.50 398.20v-40.00" class="stroke"/>
<path class="fill"
	d="M363.50 358.20c0.6 5.6 9.6 9 5.6 18.4
	1.6 -6 -1.3 -11.6 -5.6 -12.8
"/>
<use x="360.00" y="377.20" xlink:href="#hd"/>
<use x="389.50" y="401.20" xlink:href="#hd"/>
<path d="M393.00 401.20v-21.00" class="stroke"/>
<path class="fill"
	d="M393.00 380.20c0.6 5.6 9.6 9 5.6 18.4
	1.6 -6 -1.3 -11.6 -5.6 -12.8
"/>
<use x="411.50" y="398.20" xlink:href="#hd"/>
<path d="M415.00 398.20v-21.00" class="stroke"/>
<path class="fill"
	d="M415.00 377.20c0.6 5.6 9.6 9 5.6 18.4
	1.6 -6 -1.3 -11.6 -5.6 -12.8
"/>
<use x="433.30" y="395.20" xlink:href="#hd"/>
<path d="M436.80 395.20v-21.00" class="stroke"/>
<use x="476.40" y="395.20" xlink:href="#hd"/>
<path d="M479.90 395.20v-21.00" class="stroke"/>
<use x="517.30" y="398.20" xlink:href="#hd"/>
<path d="M520.80 398.20v-21.00" class="stroke"/>
<use x="579.70" y="368.20" xlink:href="#hl"/>
<use x="579.70" y="368.20" xlink:href="#hd"/>
<path d="M576.20 368.20v40.00" class="stroke"/>
<use x="579.70" y="389.20" xlink:href="#hd"/>
<use x="609.90" y="368.20" xlink:href="#hl"/>
<use x="609.90" y="368.20" xlink:href="#hd"/>
<path d="M606.40 368.20v40.00" class="stroke"/>
<use x="609.90" y="389.20" xlink:href="#hd"/>
<use x="640.00" y="368.20" xlink:href="#hl"/>
<use x="640.00" y="362.20" xlink:href="#hl"/>
<use x="640.00" y="359.20" xlink:href="#hd"/>
<path d="M636.50 359.20v40.00" class="stroke"/>
<use x="640.00" y="380.20" xlink:href="#hd"/>
<use x="670.10" y="368.20" xlink:href="#hl"/>
<use x="670.10" y="362.20" xlink:href="#hl"/>
<use x="670.10" y="362.20" xlink:href="#hd"/>
<path d="M666.60 362.20v40.00" class="stroke"/>
<use x="670.10" y="383.20" xlink:href="#hd"/>
<use x="22.00" y="450.20" xlink:href="#bclef"/>
<use x="37.00" y="450.20" xlink:href="#sh0"/>
<use x="42.50" y="459.20" xlink:href="#sh0"/>
<use x="60.50" y="474.20" xlink:href="#hl"/>
<use x="60.50" y="480.20" xlink:href="#hl"/>
<use x="60.50" y="486.20" xlink:href="#hl"/>
<use x="60.50" y="486.20" xlink:href="#hd"/>
<path d="M64.00 486.20v-40.00" class="stroke"/>
<path class="fill"
	d="M64.00 446.20c0.6 5.6 9.6 9 5.6 18.4
	1.6 -6 -1.3 -11.6 -5.6 -12.8
"/>
<use x="60.50" y="465.20" xlink:href="#hd"/>
<use x="82.50" y="438.20" xlink:href="#hl"/>
<use x="82.50" y="438.20" xlink:href="#hd"/>
<path d="M79.00 438.20v21.00" class="stroke"/>
<path class="fill"
	d="M79.00 459.20c0.6 -5.6 9.6 -9 5.6 -18.4
	1.6 6 -1.3 11.6 -5.6 12.8
"/>
<use x="104.00" y="438.20" xlink:href="#hl"/>
<use x="104.00" y="432.20" xlink:href="#hl"/>
<use x="104.00" y="432.20" xlink:href="#hd"/>
<path d="M100.50 432.20v24.00" class="stroke"/>
<path class="fill"
	d="M100.50 456.20c0.6 -5.6 9.6 -9 5.6 -18.4
	1.6 6 -1.3 11.6 -5.6 12.8
"/>
<use x="125.60" y="438.20" xlink:href="#hl"/>
<use x="125.60" y="432.20" xlink:href="#hl"/>
<use x="125.60" y="426.20" xlink:href="#hl"/>
<use x="125.60" y="426.20" xlink:href="#hd"/>
<path d="M122.10 426.20v30.00" class="stroke"/>
<path class="fill"
	d="M122.10 456.20c0.6 -5.6 9.6 -9 5.6 -18.4
	1.6 6 -1.3 11.6 -5.6 12.8
"/>
<use x="147.10" y="438.20" xlink:href="#hl"/>
<use x="147.10" y="432.20" xlink:href="#hl"/>
<use x="147.10" y="426.20" xlink:href="#hl"/>
<use x="147.10" y="423.20" xlink:href="#hd"/>
<path d="M143.60 423.20v33.00" class="stroke"/>
<path class="fill"
	d="M143.60 456.20c0.6 -5.6 9.6 -9 5.6 -18.4
	1.6 6 -1.3 11.6 -5.6 12.8
"/>
<use x="168.70" y="438.20" xlink:href="#hl"/>
<use x="168.70" y="432.20" xlink:href="#hl"/>
<use x="168.70" y="426.20" xlink:href="#hl"/>
<use x="168.70" y="420.20" xlink:href="#hl"/>
<use x="168.70" y="417.20" xlink:href="#hd"/>
<path d="M165.20 417.20v39.00" class="stroke"/>
<path class="fill"
	d="M165.20 456.20c0.6 -5.6 9.6 -9 5.6 -18.4
	1.6 6 -1.3 11.6 -5.6 12.8
"/>
<use x="188.00" y="465.20" xlink:href="#hd"/>
<path d="M191.50 465.20v-21.00" class="stroke"/>
<path class="fill"
	d="M191.50 444.20c0.6 5.6 9.6 9 5.6 18.4
	1.6 -6 -1.3 -11.6 -5.6 -12.8
"/>
<use x="210.00" y="438.20" xlink:href="#hl"/>
<use x="210.00" y="438.20" xlink:href="#hd"/>
<path d="M206.50 438.20v21.00" class="stroke"/>
<path class="fill"
	d="M206.50 459.20c0.6 -5.6 9.6 -9 5.6 -18.4
	1.6 6 -1.3 11.6 -5.6 12.8
"/>
<use x="251.50" y="468.20" xlink:href="#HD"/>
<use x="251.50" y="462.20" xlink:href="#HD"/>
<use x="251.50" y="456.20" xlink:href="#HD"/>
<use x="251.50" y="450.20" xlink:href="#HD"/>
<use x="389.50" y="474.20" xlink:href="#hl"/>
<use x="389.50" y="480.20" xlink:href="#hl"/>
<use x="389.50" y="483.20" xlink:href="#hd"/>
<path d="M393.00 483.20v-40.00" class="stroke"/>
<path class="fill"
	d="M393.00 443.20c0.6 5.6 9.6 9 5.6 18.4
	1.6 -6 -1.3 -11.6 -5.6 -12.8
"/>
<use x="389.50" y="462.20" xlink:href="#hd"/>
<use x="411.50" y="438.20" xlink:href="#hl"/>
<use x="411.50" y="435.20" xlink:href="#hd"/>
<path d="M408.00 435.20v21.00" class="stroke"/>
<path class="fill"
	d="M408.00 456.20c0.6 -5.6 9.6 -9 5.6 -18.4
	1.6 6 -1.3 11.6 -5.6 12.8
"/>
<use x="433.30" y="438.20" xlink:href="#hl"/>
<use x="433.30" y="432.20" xlink:href="#hl"/>
<use x="433.30" y="429.20" xlink:href="#hd"/>
<path d="M429.80 429.20v27.00" class="stroke"/>
<path class="fill"
	d="M429.80 456.20c0.6 -5.6 9.6 -9 5.6 -18.4
	1.6 6 -1.3 11.6 -5.6 12.8
"/>
<use x="454.80" y="438.20" xlink:href="#hl"/>
<use x="454.80" y="432.20" xlink:href="#hl"/>
<use x="454.80" y="426.20" xlink:href="#hl"/>
<use x="454.80" y="423.20" xlink:href="#hd"/>
<path d="M451.30 423.20v33.00" class="stroke"/>
<path class="fill"
	d="M451.30 456.20c0.6 -5.6 9.6 -9 5.6 -18.4
	1.6 6 -1.3 11.6 -5.6 12.8
"/>
<use x="476.40" y="438.20" xlink:href="#hl"/>
<use x="476.40" y="432.20" xlink:href="#hl"/>
<use x="476.40" y="426.20" xlink:href="#hl"/>
<use x="476.40" y="420.20" xlink:href="#hl"/>
<use x="476.40" y="420.20" xlink:href="#hd"/>
<path d="M472.90 420.20v36.00" class="stroke"/>
<path class="fill"
	d="M472.90 456.20c0.6 -5.6 9.6 -9 5.6 -18.4
	1.6 6 -1.3 11.6 -5.6 12.8
"/>
<use x="497.90" y="438.20" xlink:href="#hl"/>
<use x="497.90" y="432.20" xlink:href="#hl"/>
<use x="497.90" y="426.20" xlink:href="#hl"/>
<use x="497.90" y="420.20" xlink:href="#hl"/>
<use x="497.90" y="414.20" xlink:href="#hl"/>
<use x="497.90" y="414.20" xlink:href="#hd"/>
<path d="M494.40 414.20v42.00" class="stroke"/>
<path class="fill"
	d="M494.40 456.20c0.6 -5.6 9.6 -9 5.6 -18.4
	1.6 6 -1.3 11.6 -5.6 12.8
"/>
<use x="517.30" y="462.20" xlink:href="#hd"/>
<path d="M520.80 462.20v-21.00" class="stroke"/>
<path class="fill"
	d="M520.80 441.20c0.6 5.6 9.6 9 5.6 18.4
	1.6 -6 -1.3 -11.6 -5.6 -12.8
"/>
<use x="539.30" y="438.20" xlink:href="#hl"/>
<use x="539.30" y="435.20" xlink:href="#hd"/>
<path d="M535.80 435.20v21.00" class="stroke"/>
<path class="fill"
	d="M535.80 456.20c0.6 -5.6 9.6 -9 5.6 -18.4
	1.6 6 -1.3 11.6 -5.6 12.8
"/>
<use x="580.70" y="447.20" xlink:href="#HD"/>
<use x="580.70" y="465.20" xlink:href="#HD"/>
<use x="580.70" y="459.20" xlink:href="#HD"/>
<use x="580.70" y="453.20" xlink:href="#HD"/>
<g transform="rotate(270)">
<use x="-471.20" y="238.00" xlink:href="#ltr"/>
<use x="-465.20" y="238.00" xlink:href="#ltr"/>
<use x="-459.20" y="238.00" xlink:href="#ltr"/>
<use x="-453.20" y="238.00" xlink:href="#ltr"/>
</g>
<text x="382.00" y="365.20" style="font:bold italic 30px serif">,</text>
<g transform="rotate(270)">
<use x="-468.20" y="567.20" xlink:href="#ltr"/>
<use x="-462.20" y="567.20" xlink:href="#ltr"/>
<use x="-456.20" y="567.20" xlink:href="#ltr"/>
<use x="-450.20" y="567.20" xlink:href="#ltr"/>
</g>
<text x="691.60" y="365.20" style="font:bold italic 30px serif">,</text>
</g>
<g stroke-width="0.70" style="font:italic 11.00px Times">
<path class="stroke" stroke-width="1"
	d="M10.00 615.60v-94.00"/>
<g transform="translate(10.00,521.60) scale(1,0.94)">
	<use xlink:href="#brace"/>
</g>
<path class="stroke" stroke-width="1"
	d="M278.40 545.60v-24.00"/>
<path class="stroke" stroke-width="1"
	d="M278.40 615.60v-24.00"/>
<path class="stroke" stroke-width="1"
	d="M510.70 545.60v-24.00"/>
<path class="stroke" stroke-width="1"
	d="M510.70 615.60v-24.00"/>
<path class="stroke" stroke-width="1"
	d="M691.60 545.60v-24.00"/>
<path class="stroke" stroke-width="1"
	d="M691.60 615.60v-24.00"/>
<path d="m10.00 545.60
	h681.60
	M10.00 539.60
	h681.60
	M10.00 533.60
	h681.60
	M10.00 527.60
	h681.60
	M10.00 521.60
	h681.60
	" class="stroke"/>
<path d="m10.00 615.60
	h681.60
	M10.00 609.60
	h681.60
	M10.00 603.60
	h681.60
	M10.00 597.60
	h681.60
	M10.00 591.60
	h681.60
	" class="stroke"/>
</g>
<g stroke-width="0.70" style="font:bold 13.00px Times">
<text x="52.70" y="516.00">V<tspan
	 style="font:italic 11.00px Times">⁷³</tspan></text>
</g>
<g stroke-width="0.70" style="font:bold 13.00px Times">
<text x="284.80" y="506.00">IV<tspan
	 style="font:italic 11.00px Times">Δ⁷</tspan></text>
</g>
<g stroke-width="0.70" style="font:bold 13.00px Times">
<text x="527.70" y="502.00">vi<tspan
	 style="font:italic 11.00px Times">m⁷</tspan></text>
</g>
<g stroke-width="0.70" style="font:italic 11.00px Times">
<use x="22.00" y="539.60" xlink:href="#tclef"/>
<use x="37.00" y="521.60" xlink:href="#sh0"/>
<use x="42.50" y="530.60" xlink:href="#sh0"/>
<use x="60.50" y="524.60" xlink:href="#hd"/>
<path d="M57.00 524.60v21.00" class="stroke"/>
<use x="117.80" y="527.60" xlink:href="#hd"/>
<path d="M114.30 527.60v21.00" class="stroke"/>
<use x="175.20" y="530.60" xlink:href="#hd"/>
<path d="M171.70 530.60v21.00" class="stroke"/>
<path class="fill"
	d="M171.70 551.60c0.6 -5.6 9.6 -9 5.6 -18.4
	1.6 6 -1.3 11.6 -5.6 12.8
"/>
<use x="203.90" y="533.60" xlink:href="#hd"/>
<path d="M200.40 533.60v21.00" class="stroke"/>
<path class="fill"
	d="M200.40 554.60c0.6 -5.6 9.6 -9 5.6 -18.4
	1.6 6 -1.3 11.6 -5.6 12.8
"/>
<use x="229.70" y="536.60" xlink:href="#hd"/>
<path d="M233.20 536.60v-21.00" class="stroke"/>
<use x="292.80" y="533.60" xlink:href="#hd"/>
<path d="M296.30 533.60v-21.00" class="stroke"/>
<use x="350.10" y="536.60" xlink:href="#hd"/>
<path d="M353.60 536.60v-21.00" class="stroke"/>
<use x="407.40" y="542.60" xlink:href="#hd"/>
<path d="M410.90 542.60v-21.00" class="stroke"/>
<use x="461.90" y="542.60" xlink:href="#hd"/>
<path d="M465.40 542.60v-21.00" class="stroke"/>
<path class="fill"
	d="M465.40 521.60c0.6 5.6 9.6 9 5.6 18.4
	1.6 -6 -1.3 -11.6 -5.6 -12.8
"/>
<use x="490.60" y="545.60" xlink:href="#hd"/>
<path d="M494.10 545.60v-21.00" class="stroke"/>
<path class="fill"
	d="M494.10 524.60c0.6 5.6 9.6 9 5.6 18.4
	1.6 -6 -1.3 -11.6 -5.6 -12.8
"/>
<use x="535.70" y="548.60" xlink:href="#hd"/>
<path d="M539.20 548.60v-40.00" class="stroke"/>
<path class="fill"
	d="M539.20 508.60c0.6 5.6 9.6 9 5.6 18.4
	1.6 -6 -1.3 -11.6 -5.6 -12.8
"/>
<use x="535.70" y="527.60" xlink:href="#hd"/>
<use x="564.40" y="545.60" xlink:href="#hd"/>
<path d="M567.90 545.60v-40.00" class="stroke"/>
<path class="fill"
	d="M567.90 505.60c0.6 5.6 9.6 9 5.6 18.4
	1.6 -6 -1.3 -11.6 -5.6 -12.8
"/>
<use x="564.40" y="524.60" xlink:href="#hd"/>
<use x="593.00" y="521.60" xlink:href="#hd"/>
<circle class="fill" cx="600.70" cy="518.60" r="1.2"/>
<path d="M589.50 521.60v40.00" class="stroke"/>
<use x="593.00" y="542.60" xlink:href="#hd"/>
<circle class="fill" cx="600.70" cy="542.60" r="1.2"/>
<use x="634.60" y="545.60" xlink:href="#hd"/>
<path d="M638.10 545.60v-40.00" class="stroke"/>
<path class="fill"
	d="M638.10 505.60c0.6 5.6 9.6 9 5.6 18.4
	1.6 -6 -1.3 -11.6 -5.6 -12.8
"/>
<use x="634.60" y="524.60" xlink:href="#hd"/>
<use x="663.20" y="548.60" xlink:href="#hd"/>
<path d="M666.70 548.60v-40.00" class="stroke"/>
<use x="663.20" y="527.60" xlink:href="#hd"/>
<use x="22.00" y="597.60" xlink:href="#bclef"/>
<use x="37.00" y="597.60" xlink:href="#sh0"/>
<use x="42.50" y="606.60" xlink:href="#sh0"/>
<use x="60.50" y="621.60" xlink:href="#hl"/>
<use x="60.50" y="627.60" xlink:href="#hl"/>
<use x="60.50" y="633.60" xlink:href="#hl"/>
<use x="60.50" y="633.60" xlink:href="#hd"/>
<path d="M64.00 633.60v-40.00" class="stroke"/>
<path class="fill"
	d="M64.00 593.60c0.6 5.6 9.6 9 5.6 18.4
	1.6 -6 -1.3 -11.6 -5.6 -12.8
"/>
<use x="60.50" y="612.60" xlink:href="#hd"/>
<use x="89.20" y="585.60" xlink:href="#hl"/>
<use x="89.20" y="585.60" xlink:href="#hd"/>
<path d="M85.70 585.60v21.00" class="stroke"/>
<path class="fill"
	d="M85.70 606.60c0.6 -5.6 9.6 -9 5.6 -18.4
	1.6 6 -1.3 11.6 -5.6 12.8
"/>
<use x="117.80" y="585.60" xlink:href="#hl"/>
<use x="117.80" y="579.60" xlink:href="#hl"/>
<use x="117.80" y="579.60" xlink:href="#hd"/>
<path d="M114.30 579.60v24.00" class="stroke"/>
<path class="fill"
	d="M114.30 603.60c0.6 -5.6 9.6 -9 5.6 -18.4
	1.6 6 -1.3 11.6 -5.6 12.8
"/>
<use x="146.50" y="585.60" xlink:href="#hl"/>
<use x="146.50" y="579.60" xlink:href="#hl"/>
<use x="146.50" y="573.60" xlink:href="#hl"/>
<use x="146.50" y="573.60" xlink:href="#hd"/>
<path d="M143.00 573.60v30.00" class="stroke"/>
<path class="fill"
	d="M143.00 603.60c0.6 -5.6 9.6 -9 5.6 -18.4
	1.6 6 -1.3 11.6 -5.6 12.8
"/>
<use x="175.20" y="585.60" xlink:href="#hl"/>
<use x="175.20" y="579.60" xlink:href="#hl"/>
<use x="175.20" y="573.60" xlink:href="#hl"/>
<use x="175.20" y="570.60" xlink:href="#hd"/>
<path d="M171.70 570.60v33.00" class="stroke"/>
<path class="fill"
	d="M171.70 603.60c0.6 -5.6 9.6 -9 5.6 -18.4
	1.6 6 -1.3 11.6 -5.6 12.8
"/>
<use x="203.90" y="585.60" xlink:href="#hl"/>
<use x="203.90" y="579.60" xlink:href="#hl"/>
<use x="203.90" y="573.60" xlink:href="#hl"/>
<use x="203.90" y="567.60" xlink:href="#hl"/>
<use x="203.90" y="564.60" xlink:href="#hd"/>
<path d="M200.40 564.60v39.00" class="stroke"/>
<path class="fill"
	d="M200.40 603.60c0.6 -5.6 9.6 -9 5.6 -18.4
	1.6 6 -1.3 11.6 -5.6 12.8
"/>
<use x="229.70" y="612.60" xlink:href="#hd"/>
<path d="M233.20 612.60v-21.00" class="stroke"/>
<path class="fill"
	d="M233.20 591.60c0.6 5.6 9.6 9 5.6 18.4
	1.6 -6 -1.3 -11.6 -5.6 -12.8
"/>
<use x="258.30" y="585.60" xlink:href="#hl"/>
<use x="258.30" y="585.60" xlink:href="#hd"/>
<path d="M254.80 585.60v21.00" class="stroke"/>
<path class="fill"
	d="M254.80 606.60c0.6 -5.6 9.6 -9 5.6 -18.4
	1.6 6 -1.3 11.6 -5.6 12.8
"/>
<use x="292.80" y="615.60" xlink:href="#hd"/>
<path d="M296.30 615.60v-21.00" class="stroke"/>
<path class="fill"
	d="M296.30 594.60c0.6 5.6 9.6 9 5.6 18.4
	1.6 -6 -1.3 -11.6 -5.6 -12.8
"/>
<use x="321.40" y="588.60" xlink:href="#hd"/>
<path d="M317.90 588.60v21.00" class="stroke"/>
<path class="fill"
	d="M317.90 609.60c0.6 -5.6 9.6 -9 5.6 -18.4
	1.6 6 -1.3 11.6 -5.6 12.8
"/>
<use x="350.10" y="585.60" xlink:href="#hl"/>
<use x="350.10" y="582.60" xlink:href="#hd"/>
<path d="M346.60 582.60v21.00" class="stroke"/>
<path class="fill"
	d="M346.60 603.60c0.6 -5.6 9.6 -9 5.6 -18.4
	1.6 6 -1.3 11.6 -5.6 12.8
"/>
<use x="378.80" y="585.60" xlink:href="#hl"/>
<use x="378.80" y="579.60" xlink:href="#hl"/>
<use x="378.80" y="576.60" xlink:href="#hd"/>
<path d="M375.30 576.60v27.00" class="stroke"/>
<path class="fill"
	d="M375.30 603.60c0.6 -5.6 9.6 -9 5.6 -18.4
	1.6 6 -1.3 11.6 -5.6 12.8
"/>
<use x="407.40" y="585.60" xlink:href="#hl"/>
<use x="407.40" y="579.60" xlink:href="#hl"/>
<use x="407.40" y="573.60" xlink:href="#hl"/>
<use x="407.40" y="573.60" xlink:href="#hd"/>
<path d="M403.90 573.60v30.00" class="stroke"/>
<path class="fill"
	d="M403.90 603.60c0.6 -5.6 9.6 -9 5.6 -18.4
	1.6 6 -1.3 11.6 -5.6 12.8
"/>
<use x="436.10" y="585.60" xlink:href="#hl"/>
<use x="436.10" y="579.60" xlink:href="#hl"/>
<use x="436.10" y="573.60" xlink:href="#hl"/>
<use x="436.10" y="567.60" xlink:href="#hl"/>
<use x="436.10" y="567.60" xlink:href="#hd"/>
<path d="M432.60 567.60v36.00" class="stroke"/>
<path class="fill"
	d="M432.60 603.60c0.6 -5.6 9.6 -9 5.6 -18.4
	1.6 6 -1.3 11.6 -5.6 12.8
"/>
<use x="461.90" y="615.60" xlink:href="#hd"/>
<path d="M465.40 615.60v-21.00" class="stroke"/>
<path class="fill"
	d="M465.40 594.60c0.6 5.6 9.6 9 5.6 18.4
	1.6 -6 -1.3 -11.6 -5.6 -12.8
"/>
<use x="490.60" y="588.60" xlink:href="#hd"/>
<path d="M487.10 588.60v21.00" class="stroke"/>
<path class="fill"
	d="M487.10 609.60c0.6 -5.6 9.6 -9 5.6 -18.4
	1.6 6 -1.3 11.6 -5.6 12.8
"/>
<use x="536.70" y="621.60" xlink:href="#hl1"/>
<use x="536.70" y="627.60" xlink:href="#hl1"/>
<use x="536.70" y="630.60" xlink:href="#HD"/>
<use x="536.70" y="609.60" xlink:href="#HD"/>
<use x="536.70" y="603.60" xlink:href="#HD"/>
<use x="536.70" y="597.60" xlink:href="#HD"/>
<use x="536.70" y="591.60" xlink:href="#HD"/>
<defs>
<g id="hld" class="fill">
	<circle cx="0" cy="-3" r="1.3"/>
	<path d="m-7.5 -1.5
		c0 -11.5 15 -11.5 15 0
		h-0.25
		c-1.25 -9 -13.25 -9 -14.5 0"/>
</g>
</defs>
<use x="535.70" y="585.60" xlink:href="#hld"/>
<g transform="rotate(270)">
<use x="-633.60" y="523.20" xlink:href="#ltr"/>
<use x="-627.60" y="523.20" xlink:href="#ltr"/>
<use x="-621.60" y="523.20" xlink:href="#ltr"/>
<use x="-615.60" y="523.20" xlink:href="#ltr"/>
<use x="-609.60" y="523.20" xlink:href="#ltr"/>
<use x="-603.60" y="523.20" xlink:href="#ltr"/>
<use x="-597.60" y="523.20" xlink:href="#ltr"/>
<use x="-591.60" y="523.20" xlink:href="#ltr"/>
</g>
<use x="663.20" y="504.60" xlink:href="#hld"/>
<g transform="rotate(270)">
<use x="-551.60" y="653.20" xlink:href="#ltr"/>
<use x="-545.60" y="653.20" xlink:href="#ltr"/>
<use x="-539.60" y="653.20" xlink:href="#ltr"/>
<use x="-533.60" y="653.20" xlink:href="#ltr"/>
<use x="-527.60" y="653.20" xlink:href="#ltr"/>
</g>
</g>
</svg>
