<?xml version="1.0" standalone="no"?>
<!DOCTYPE svg PUBLIC "-//W3C//DTD SVG 1.1//EN"
	"http://www.w3.org/Graphics/SVG/1.1/DTD/svg11.dtd">
<svg xmlns="http://www.w3.org/2000/svg" version="1.1"
	xmlns:xlink="http://www.w3.org/1999/xlink"
	color="black"
	width="701.60px" height="352.40px" viewBox="0 0 701.60 352.40" preserveAspectRatio="xMidYMid meet">
<style type="text/css">
.fill {fill: currentColor}
.stroke {stroke: currentColor; fill: none}
text{white-space: pre}
</style>
<title>/tmp/boddie_hymnal_stage/i_heard_the_bells_on_christmas_day.abc (1) tune 1</title>
<!-- Creator: abcm2ps-8.14.11 -->
<!-- CreationDate: Apr 30, 2026 12:59 -->
<!-- CommandLine: /tmp/boddie_hymnal_stage/i_heard_the_bells_on_christmas_day.abc -g -O /tmp/boddie_hymnal_stage/i_heard_the_bells_on_christmas_day -->
<g stroke-width="0.70">
<!-- title: 102. I Heard The Bells On Christmas Day -->
</g>
<g stroke-width="0.70" style="font:20.00px Times">
<text x="350.80" y="22.00" text-anchor="middle">102. I Heard The Bells On Christmas Day</text>
</g>
<g stroke-width="0.70" transform="scale(0.700)" style="font:20.00px Times">
<defs>
<ellipse id="hd" rx="4.1" ry="2.9"
	transform="rotate(-20)" class="fill"/>
</defs>
<use x="118.00" y="75.57" xlink:href="#hd"/>
<path d="M121.50 75.57v-21.00" class="stroke"/>
</g>
<g stroke-width="0.70" style="font:bold 15.00px Times">
<text x="90.30" y="55.00">= 72Slowly, with great expression</text>
<path class="stroke" stroke-width="1"
	d="M10.00 178.40v-100.00"/>
<defs>
<path id="brace" class="fill" d="m-2.5 101
	c-4.5 -4.6 -7.5 -12.2 -4.4 -26.8
	3.5 -14.3 3.2 -21.7 -2.1 -24.2
	7.4 2.4 7.3 14.2 3.5 29.5
	-2.7 9.5 -1.5 16.2 3 21.5
	M-2.5 1c-4.5 4.6 -7.5 12.2 -4.4 26.8
	c3.5 14.3 3.2 21.7 -2.1 24.2
	7.4 -2.4 7.3 -14.2 3.5 -29.5
	-2.7 -9.5 -1.5 -16.2 3 -21.5"/>
</defs>
<g transform="translate(10.00,78.40) scale(1,1.00)">
	<use xlink:href="#brace"/>
</g>
<path class="stroke" stroke-width="1"
	d="M234.80 102.40v-24.00"/>
<path class="stroke" stroke-width="1"
	d="M234.80 178.40v-24.00"/>
<path class="stroke" stroke-width="1"
	d="M400.40 102.40v-24.00"/>
<path class="stroke" stroke-width="1"
	d="M400.40 178.40v-24.00"/>
<path class="stroke" stroke-width="1"
	d="M526.50 102.40v-24.00"/>
<path class="stroke" stroke-width="1"
	d="M526.50 178.40v-24.00"/>
<path class="stroke" stroke-width="1"
	d="M691.60 102.40v-24.00"/>
<path class="stroke" stroke-width="1"
	d="M691.60 178.40v-24.00"/>
<path d="m10.00 102.40
	h681.60
	M10.00 96.40
	h681.60
	M10.00 90.40
	h681.60
	M10.00 84.40
	h681.60
	M10.00 78.40
	h681.60
	" class="stroke"/>
<path d="m10.00 178.40
	h681.60
	M10.00 172.40
	h681.60
	M10.00 166.40
	h681.60
	M10.00 160.40
	h681.60
	M10.00 154.40
	h681.60
	" class="stroke"/>
</g>
<g stroke-width="0.70" style="font:bold 13.00px Times">
<text x="76.30" y="73.80">I<tspan
	 style="font:italic 11.00px Times">Δ⁷</tspan></text>
</g>
<g stroke-width="0.70" style="font:bold 13.00px Times">
<text x="239.40" y="68.80">V<tspan
	 style="font:italic 11.00px Times">⁷²</tspan></text>
</g>
<g stroke-width="0.70" style="font:bold 13.00px Times">
<text x="417.70" y="60.80">I<tspan
	 style="font:italic 11.00px Times">Δ⁷¹</tspan></text>
</g>
<g stroke-width="0.70" style="font:bold 13.00px Times">
<text x="531.00" y="71.80">vi<tspan
	 style="font:italic 11.00px Times">m⁷²</tspan></text>
</g>
<g stroke-width="0.70" style="font:italic 11.00px Times">
<defs>
<path id="utclef" class="fill" d="m-50 -90
	c-72 -41 -72 -158 52 -188
	150 -10 220 188 90 256
	-114 52 -275 0 -293 -136
	-15 -181 93 -229 220 -334
	88 -87 79 -133 62 -210
	-51 33 -94 105 -89 186
	17 267 36 374 49 574
	6 96 -19 134 -77 135
	-80 1 -126 -93 -61 -133
	85 -41 133 101 31 105
	23 17 92 37 90 -92
	-10 -223 -39 -342 -50 -617
	0 -90 0 -162 96 -232
	56 72 63 230 22 289
	-74 106 -257 168 -255 316
	9 153 148 185 252 133
	86 -65 29 -192 -80 -176
	-71 12 -105 67 -59 124"/>
<use id="tclef" transform="translate(0,6) scale(0.045)"
	xlink:href="#utclef"/>
</defs>
<use x="22.00" y="96.40" xlink:href="#tclef"/>
<defs>
<path id="uflat" class="fill" d="
	m100 -746
	h32
	v734
	l-32 4
	m32 -332
	c46 -72 152 -90 208 -20
	100 110 -120 326 -208 348
	m0 -28
	c54 0 200 -206 130 -290
	-50 -60 -130 -4 -130 34"/>
<use id="ft0" transform="translate(-3.5,3.5) scale(0.018)"
	xlink:href="#uflat"/>
</defs>
<use x="37.00" y="90.40" xlink:href="#ft0"/>
<use x="42.50" y="81.40" xlink:href="#ft0"/>
<use x="48.00" y="93.40" xlink:href="#ft0"/>
<g style="font:bold 16px serif"
	transform="translate(64.00,101.90) scale(1.2,1)">
	<text text-anchor="middle">4</text>
	<text y="-12" text-anchor="middle">4</text>
</g>
<use x="82.00" y="102.40" xlink:href="#hd"/>
<path d="M85.50 102.40v-21.00" class="stroke"/>
<use x="121.70" y="96.40" xlink:href="#hd"/>
<circle class="fill" cx="129.40" cy="93.40" r="1.2"/>
<path d="M125.20 96.40v-21.00" class="stroke"/>
<use x="180.20" y="99.40" xlink:href="#hd"/>
<path d="M183.70 99.40v-21.00" class="stroke"/>
<path class="fill"
	d="M183.70 78.40c0.6 5.6 9.6 9 5.6 18.4
	1.6 -6 -1.3 -11.6 -5.6 -12.8
"/>
<use x="200.20" y="96.40" xlink:href="#hd"/>
<path d="M203.70 96.40v-21.00" class="stroke"/>
<use x="247.30" y="96.40" xlink:href="#hd"/>
<path d="M250.80 96.40v-21.00" class="stroke"/>
<use x="287.10" y="93.40" xlink:href="#hd"/>
<circle class="fill" cx="294.80" cy="93.40" r="1.2"/>
<path d="M290.60 93.40v-21.00" class="stroke"/>
<use x="345.90" y="96.40" xlink:href="#hd"/>
<path d="M349.40 96.40v-21.00" class="stroke"/>
<path class="fill"
	d="M349.40 75.40c0.6 5.6 9.6 9 5.6 18.4
	1.6 -6 -1.3 -11.6 -5.6 -12.8
"/>
<use x="365.80" y="93.40" xlink:href="#hd"/>
<path d="M369.30 93.40v-21.00" class="stroke"/>
<defs>
<path id="hl" class="stroke" d="m-6 0h12"/>
</defs>
<use x="425.40" y="72.40" xlink:href="#hl"/>
<use x="425.40" y="72.40" xlink:href="#hd"/>
<path d="M421.90 72.40v40.00" class="stroke"/>
<use x="425.40" y="93.40" xlink:href="#hd"/>
<use x="452.50" y="72.40" xlink:href="#hl"/>
<use x="452.50" y="69.40" xlink:href="#hd"/>
<path d="M449.00 69.40v40.00" class="stroke"/>
<use x="452.50" y="90.40" xlink:href="#hd"/>
<use x="479.70" y="72.40" xlink:href="#hl"/>
<use x="479.70" y="66.40" xlink:href="#hl"/>
<use x="479.70" y="60.40" xlink:href="#hl"/>
<use x="479.70" y="60.40" xlink:href="#hd"/>
<path d="M476.20 60.40v40.00" class="stroke"/>
<use x="479.70" y="81.40" xlink:href="#hd"/>
<use x="506.90" y="72.40" xlink:href="#hl"/>
<use x="506.90" y="66.40" xlink:href="#hl"/>
<use x="506.90" y="63.40" xlink:href="#hd"/>
<path d="M503.40 63.40v40.00" class="stroke"/>
<use x="506.90" y="84.40" xlink:href="#hd"/>
<use x="539.00" y="87.40" xlink:href="#hd"/>
<path d="M535.50 87.40v21.00" class="stroke"/>
<use x="578.90" y="87.40" xlink:href="#hd"/>
<circle class="fill" cx="586.60" cy="87.40" r="1.2"/>
<path d="M575.40 87.40v21.00" class="stroke"/>
<use x="637.60" y="90.40" xlink:href="#hd"/>
<path d="M634.10 90.40v21.00" class="stroke"/>
<path class="fill"
	d="M634.10 111.40c0.6 -5.6 9.6 -9 5.6 -18.4
	1.6 6 -1.3 11.6 -5.6 12.8
"/>
<use x="657.00" y="90.40" xlink:href="#hd"/>
<path d="M653.50 90.40v21.00" class="stroke"/>
<defs>
<path id="ubclef" class="fill" d="m-200 -87
	c124 -35 222 -78 254 -236
	43 -228 -167 -246 -192 -103
	59 -80 157 22 92 78
	-62 47 -115 -22 -106 -88
	21 -141 270 -136 274 52
	-1 175 -106 264 -322 297
	m357 -250
	c0 -36 51 -34 51 0
	0 37 -51 36 -51 0
	m-2 -129
	c0 -36 51 -34 51 0
	0 38 -51 37 -51 0"/>
<use id="bclef" transform="translate(0,18) scale(0.045)"
	xlink:href="#ubclef"/>
</defs>
<use x="22.00" y="160.40" xlink:href="#bclef"/>
<use x="37.00" y="172.40" xlink:href="#ft0"/>
<use x="42.50" y="163.40" xlink:href="#ft0"/>
<use x="48.00" y="175.40" xlink:href="#ft0"/>
<g style="font:bold 16px serif"
	transform="translate(64.00,177.90) scale(1.2,1)">
	<text text-anchor="middle">4</text>
	<text y="-12" text-anchor="middle">4</text>
</g>
<use x="82.00" y="184.40" xlink:href="#hl"/>
<use x="82.00" y="190.40" xlink:href="#hl"/>
<use x="82.00" y="196.40" xlink:href="#hl"/>
<use x="82.00" y="202.40" xlink:href="#hl"/>
<use x="82.00" y="205.40" xlink:href="#hd"/>
<path d="M85.50 205.40v-40.00" class="stroke"/>
<path class="fill"
	d="M85.50 165.40c0.6 5.6 9.6 9 5.6 18.4
	1.6 -6 -1.3 -11.6 -5.6 -12.8
"/>
<use x="82.00" y="184.40" xlink:href="#hd"/>
<use x="102.20" y="157.40" xlink:href="#hd"/>
<path d="M98.70 157.40v21.00" class="stroke"/>
<path class="fill"
	d="M98.70 178.40c0.6 -5.6 9.6 -9 5.6 -18.4
	1.6 6 -1.3 11.6 -5.6 12.8
"/>
<use x="121.70" y="151.40" xlink:href="#hd"/>
<path d="M118.20 151.40v21.00" class="stroke"/>
<path class="fill"
	d="M118.20 172.40c0.6 -5.6 9.6 -9 5.6 -18.4
	1.6 6 -1.3 11.6 -5.6 12.8
"/>
<use x="141.10" y="148.40" xlink:href="#hl"/>
<use x="141.10" y="145.40" xlink:href="#hd"/>
<path d="M137.60 145.40v21.00" class="stroke"/>
<path class="fill"
	d="M137.60 166.40c0.6 -5.6 9.6 -9 5.6 -18.4
	1.6 6 -1.3 11.6 -5.6 12.8
"/>
<use x="160.70" y="148.40" xlink:href="#hl"/>
<use x="160.70" y="142.40" xlink:href="#hl"/>
<use x="160.70" y="142.40" xlink:href="#hd"/>
<path d="M157.20 142.40v24.00" class="stroke"/>
<path class="fill"
	d="M157.20 166.40c0.6 -5.6 9.6 -9 5.6 -18.4
	1.6 6 -1.3 11.6 -5.6 12.8
"/>
<use x="180.20" y="148.40" xlink:href="#hl"/>
<use x="180.20" y="142.40" xlink:href="#hl"/>
<use x="180.20" y="136.40" xlink:href="#hl"/>
<use x="180.20" y="136.40" xlink:href="#hd"/>
<path d="M176.70 136.40v30.00" class="stroke"/>
<path class="fill"
	d="M176.70 166.40c0.6 -5.6 9.6 -9 5.6 -18.4
	1.6 6 -1.3 11.6 -5.6 12.8
"/>
<use x="200.20" y="184.40" xlink:href="#hl"/>
<use x="200.20" y="184.40" xlink:href="#hd"/>
<path d="M203.70 184.40v-21.00" class="stroke"/>
<path class="fill"
	d="M203.70 163.40c0.6 5.6 9.6 9 5.6 18.4
	1.6 -6 -1.3 -11.6 -5.6 -12.8
"/>
<use x="220.40" y="157.40" xlink:href="#hd"/>
<path d="M216.90 157.40v21.00" class="stroke"/>
<path class="fill"
	d="M216.90 178.40c0.6 -5.6 9.6 -9 5.6 -18.4
	1.6 6 -1.3 11.6 -5.6 12.8
"/>
<use x="247.30" y="172.40" xlink:href="#hd"/>
<path d="M250.80 172.40v-21.00" class="stroke"/>
<path class="fill"
	d="M250.80 151.40c0.6 5.6 9.6 9 5.6 18.4
	1.6 -6 -1.3 -11.6 -5.6 -12.8
"/>
<use x="267.50" y="148.40" xlink:href="#hl"/>
<use x="267.50" y="145.40" xlink:href="#hd"/>
<path d="M264.00 145.40v21.00" class="stroke"/>
<path class="fill"
	d="M264.00 166.40c0.6 -5.6 9.6 -9 5.6 -18.4
	1.6 6 -1.3 11.6 -5.6 12.8
"/>
<use x="287.10" y="148.40" xlink:href="#hl"/>
<use x="287.10" y="142.40" xlink:href="#hl"/>
<use x="287.10" y="139.40" xlink:href="#hd"/>
<path d="M283.60 139.40v27.00" class="stroke"/>
<path class="fill"
	d="M283.60 166.40c0.6 -5.6 9.6 -9 5.6 -18.4
	1.6 6 -1.3 11.6 -5.6 12.8
"/>
<use x="306.70" y="148.40" xlink:href="#hl"/>
<use x="306.70" y="142.40" xlink:href="#hl"/>
<use x="306.70" y="136.40" xlink:href="#hl"/>
<use x="306.70" y="133.40" xlink:href="#hd"/>
<path d="M303.20 133.40v33.00" class="stroke"/>
<path class="fill"
	d="M303.20 166.40c0.6 -5.6 9.6 -9 5.6 -18.4
	1.6 6 -1.3 11.6 -5.6 12.8
"/>
<use x="326.30" y="148.40" xlink:href="#hl"/>
<use x="326.30" y="142.40" xlink:href="#hl"/>
<use x="326.30" y="136.40" xlink:href="#hl"/>
<use x="326.30" y="130.40" xlink:href="#hl"/>
<use x="326.30" y="130.40" xlink:href="#hd"/>
<path d="M322.80 130.40v36.00" class="stroke"/>
<path class="fill"
	d="M322.80 166.40c0.6 -5.6 9.6 -9 5.6 -18.4
	1.6 6 -1.3 11.6 -5.6 12.8
"/>
<use x="345.90" y="148.40" xlink:href="#hl"/>
<use x="345.90" y="142.40" xlink:href="#hl"/>
<use x="345.90" y="136.40" xlink:href="#hl"/>
<use x="345.90" y="130.40" xlink:href="#hl"/>
<use x="345.90" y="124.40" xlink:href="#hl"/>
<use x="345.90" y="124.40" xlink:href="#hd"/>
<path d="M342.40 124.40v42.00" class="stroke"/>
<path class="fill"
	d="M342.40 166.40c0.6 -5.6 9.6 -9 5.6 -18.4
	1.6 6 -1.3 11.6 -5.6 12.8
"/>
<use x="365.80" y="172.40" xlink:href="#hd"/>
<path d="M369.30 172.40v-21.00" class="stroke"/>
<path class="fill"
	d="M369.30 151.40c0.6 5.6 9.6 9 5.6 18.4
	1.6 -6 -1.3 -11.6 -5.6 -12.8
"/>
<use x="386.00" y="148.40" xlink:href="#hl"/>
<use x="386.00" y="145.40" xlink:href="#hd"/>
<path d="M382.50 145.40v21.00" class="stroke"/>
<path class="fill"
	d="M382.50 166.40c0.6 -5.6 9.6 -9 5.6 -18.4
	1.6 6 -1.3 11.6 -5.6 12.8
"/>
<defs>
<path id="hl1" class="stroke" d="m-7 0h14"/>
</defs>
<use x="426.40" y="184.40" xlink:href="#hl1"/>
<defs>
<path id="HD" class="fill" d="m-2.7 -1.4
	c1.5 -2.8 6.9 0 5.3 2.7
	-1.5 2.8 -6.9 0 -5.3 -2.7
	m8.3 1.4
	c0 -1.5 -2.2 -3 -5.6 -3
	-3.4 0 -5.6 1.5 -5.6 3
	0 1.5 2.2 3 5.6 3
	3.4 0 5.6 -1.5 5.6 -3"/>
</defs>
<use x="426.40" y="184.40" xlink:href="#HD"/>
<use x="426.40" y="178.40" xlink:href="#HD"/>
<use x="426.40" y="172.40" xlink:href="#HD"/>
<use x="426.40" y="166.40" xlink:href="#HD"/>
<use x="539.00" y="184.40" xlink:href="#hl"/>
<use x="539.00" y="190.40" xlink:href="#hl"/>
<use x="539.00" y="190.40" xlink:href="#hd"/>
<path d="M542.50 190.40v-40.00" class="stroke"/>
<path class="fill"
	d="M542.50 150.40c0.6 5.6 9.6 9 5.6 18.4
	1.6 -6 -1.3 -11.6 -5.6 -12.8
"/>
<use x="539.00" y="169.40" xlink:href="#hd"/>
<use x="559.30" y="148.40" xlink:href="#hl"/>
<use x="559.30" y="142.40" xlink:href="#hl"/>
<use x="559.30" y="142.40" xlink:href="#hd"/>
<path d="M555.80 142.40v24.00" class="stroke"/>
<path class="fill"
	d="M555.80 166.40c0.6 -5.6 9.6 -9 5.6 -18.4
	1.6 6 -1.3 11.6 -5.6 12.8
"/>
<use x="578.90" y="148.40" xlink:href="#hl"/>
<use x="578.90" y="142.40" xlink:href="#hl"/>
<use x="578.90" y="136.40" xlink:href="#hl"/>
<use x="578.90" y="136.40" xlink:href="#hd"/>
<path d="M575.40 136.40v30.00" class="stroke"/>
<path class="fill"
	d="M575.40 166.40c0.6 -5.6 9.6 -9 5.6 -18.4
	1.6 6 -1.3 11.6 -5.6 12.8
"/>
<use x="598.40" y="148.40" xlink:href="#hl"/>
<use x="598.40" y="142.40" xlink:href="#hl"/>
<use x="598.40" y="136.40" xlink:href="#hl"/>
<use x="598.40" y="130.40" xlink:href="#hl"/>
<use x="598.40" y="130.40" xlink:href="#hd"/>
<path d="M594.90 130.40v36.00" class="stroke"/>
<path class="fill"
	d="M594.90 166.40c0.6 -5.6 9.6 -9 5.6 -18.4
	1.6 6 -1.3 11.6 -5.6 12.8
"/>
<use x="618.00" y="148.40" xlink:href="#hl"/>
<use x="618.00" y="142.40" xlink:href="#hl"/>
<use x="618.00" y="136.40" xlink:href="#hl"/>
<use x="618.00" y="130.40" xlink:href="#hl"/>
<use x="618.00" y="127.40" xlink:href="#hd"/>
<path d="M614.50 127.40v39.00" class="stroke"/>
<path class="fill"
	d="M614.50 166.40c0.6 -5.6 9.6 -9 5.6 -18.4
	1.6 6 -1.3 11.6 -5.6 12.8
"/>
<use x="637.60" y="148.40" xlink:href="#hl"/>
<use x="637.60" y="142.40" xlink:href="#hl"/>
<use x="637.60" y="136.40" xlink:href="#hl"/>
<use x="637.60" y="130.40" xlink:href="#hl"/>
<use x="637.60" y="124.40" xlink:href="#hl"/>
<use x="637.60" y="121.40" xlink:href="#hd"/>
<path d="M634.10 121.40v45.00" class="stroke"/>
<path class="fill"
	d="M634.10 166.40c0.6 -5.6 9.6 -9 5.6 -18.4
	1.6 6 -1.3 11.6 -5.6 12.8
"/>
<use x="657.00" y="169.40" xlink:href="#hd"/>
<path d="M660.50 169.40v-21.00" class="stroke"/>
<path class="fill"
	d="M660.50 148.40c0.6 5.6 9.6 9 5.6 18.4
	1.6 -6 -1.3 -11.6 -5.6 -12.8
"/>
<use x="677.30" y="148.40" xlink:href="#hl"/>
<use x="677.30" y="142.40" xlink:href="#hl"/>
<use x="677.30" y="142.40" xlink:href="#hd"/>
<path d="M673.80 142.40v24.00" class="stroke"/>
<path class="fill"
	d="M673.80 166.40c0.6 -5.6 9.6 -9 5.6 -18.4
	1.6 6 -1.3 11.6 -5.6 12.8
"/>
<defs>
<path id="ltr" class="fill"
    d="m0 -0.4c2 -1.5 3.4 -1.9 3.9 0.4
	c0.2 0.8 0.7 0.7 2.1 -0.4
	v0.8c-2 1.5 -3.4 1.9 -3.9 -0.4
	c-0.2 -0.8 -0.7 -0.7 -2.1 0.4z"/>
</defs>
<g transform="rotate(270)">
<use x="-187.40" y="412.90" xlink:href="#ltr"/>
<use x="-181.40" y="412.90" xlink:href="#ltr"/>
<use x="-175.40" y="412.90" xlink:href="#ltr"/>
<use x="-169.40" y="412.90" xlink:href="#ltr"/>
</g>
<text x="531.50" y="69.40" style="font:bold italic 30px serif">,</text>
</g>
<g stroke-width="0.70" style="font:italic 11.00px Times">
<path class="stroke" stroke-width="1"
	d="M10.00 325.40v-82.00"/>
<g transform="translate(10.00,243.40) scale(1,0.82)">
	<use xlink:href="#brace"/>
</g>
<path class="stroke" stroke-width="1"
	d="M191.50 267.40v-24.00"/>
<path class="stroke" stroke-width="1"
	d="M191.50 325.40v-24.00"/>
<path class="stroke" stroke-width="1"
	d="M374.70 267.40v-24.00"/>
<path class="stroke" stroke-width="1"
	d="M374.70 325.40v-24.00"/>
<path class="stroke" stroke-width="1"
	d="M555.50 267.40v-24.00"/>
<path class="stroke" stroke-width="1"
	d="M555.50 325.40v-24.00"/>
<path class="stroke" stroke-width="1"
	d="M691.60 267.40v-24.00"/>
<path class="stroke" stroke-width="1"
	d="M691.60 325.40v-24.00"/>
<path d="m10.00 267.40
	h681.60
	M10.00 261.40
	h681.60
	M10.00 255.40
	h681.60
	M10.00 249.40
	h681.60
	M10.00 243.40
	h681.60
	" class="stroke"/>
<path d="m10.00 325.40
	h681.60
	M10.00 319.40
	h681.60
	M10.00 313.40
	h681.60
	M10.00 307.40
	h681.60
	M10.00 301.40
	h681.60
	" class="stroke"/>
</g>
<g stroke-width="0.70" style="font:bold 13.00px Times">
<text x="73.80" y="225.80">I<tspan
	 style="font:italic 11.00px Times">Δ⁷¹</tspan></text>
</g>
<g stroke-width="0.70" style="font:bold 13.00px Times">
<text x="196.00" y="230.80">iii<tspan
	 style="font:italic 11.00px Times">m⁷²</tspan></text>
</g>
<g stroke-width="0.70" style="font:bold 13.00px Times">
<text x="379.20" y="236.80">ii<tspan
	 style="font:italic 11.00px Times">m⁷</tspan></text>
</g>
<g stroke-width="0.70" style="font:bold 13.00px Times">
<text x="574.60" y="222.80">V<tspan
	 style="font:italic 11.00px Times">⁷</tspan></text>
</g>
<g stroke-width="0.70" style="font:italic 11.00px Times">
<use x="22.00" y="261.40" xlink:href="#tclef"/>
<use x="37.00" y="255.40" xlink:href="#ft0"/>
<use x="42.50" y="246.40" xlink:href="#ft0"/>
<use x="48.00" y="258.40" xlink:href="#ft0"/>
<use x="81.50" y="237.40" xlink:href="#hl"/>
<use x="81.50" y="234.40" xlink:href="#hd"/>
<path d="M78.00 234.40v40.00" class="stroke"/>
<use x="81.50" y="255.40" xlink:href="#hd"/>
<use x="112.20" y="237.40" xlink:href="#hl"/>
<use x="112.20" y="234.40" xlink:href="#hd"/>
<circle class="fill" cx="119.90" cy="234.40" r="1.2"/>
<path d="M108.70 234.40v40.00" class="stroke"/>
<use x="112.20" y="255.40" xlink:href="#hd"/>
<circle class="fill" cx="119.90" cy="252.40" r="1.2"/>
<use x="147.70" y="237.40" xlink:href="#hl"/>
<use x="147.70" y="237.40" xlink:href="#hd"/>
<path d="M144.20 237.40v40.00" class="stroke"/>
<path class="fill"
	d="M144.20 277.40c0.6 -5.6 9.6 -9 5.6 -18.4
	1.6 6 -1.3 11.6 -5.6 12.8
"/>
<use x="147.70" y="258.40" xlink:href="#hd"/>
<use x="169.60" y="240.40" xlink:href="#hd"/>
<path d="M166.10 240.40v40.00" class="stroke"/>
<use x="169.60" y="261.40" xlink:href="#hd"/>
<use x="204.00" y="258.40" xlink:href="#hd"/>
<path d="M207.50 258.40v-21.00" class="stroke"/>
<use x="248.30" y="261.40" xlink:href="#hd"/>
<circle class="fill" cx="256.00" cy="258.40" r="1.2"/>
<path d="M251.80 261.40v-21.00" class="stroke"/>
<use x="314.30" y="264.40" xlink:href="#hd"/>
<path d="M317.80 264.40v-21.00" class="stroke"/>
<path class="fill"
	d="M317.80 243.40c0.6 5.6 9.6 9 5.6 18.4
	1.6 -6 -1.3 -11.6 -5.6 -12.8
"/>
<use x="336.50" y="267.40" xlink:href="#hd"/>
<path d="M340.00 267.40v-21.00" class="stroke"/>
<use x="387.20" y="264.40" xlink:href="#hd"/>
<path d="M390.70 264.40v-21.00" class="stroke"/>
<use x="431.50" y="261.40" xlink:href="#hd"/>
<path d="M435.00 261.40v-21.00" class="stroke"/>
<use x="475.50" y="258.40" xlink:href="#hd"/>
<path d="M479.00 258.40v-21.00" class="stroke"/>
<use x="517.30" y="255.40" xlink:href="#hd"/>
<path d="M520.80 255.40v-21.00" class="stroke"/>
<use x="580.50" y="237.40" xlink:href="#hl"/>
<use x="580.50" y="231.40" xlink:href="#hl"/>
<use x="580.50" y="231.40" xlink:href="#hd"/>
<path d="M577.00 231.40v40.00" class="stroke"/>
<use x="580.50" y="252.40" xlink:href="#hd"/>
<use x="611.10" y="270.40" xlink:href="#hd"/>
<circle class="fill" cx="618.80" cy="270.40" r="1.2"/>
<path d="M614.60 270.40v-40.00" class="stroke"/>
<use x="611.10" y="249.40" xlink:href="#hd"/>
<circle class="fill" cx="618.80" cy="246.40" r="1.2"/>
<use x="646.70" y="243.40" xlink:href="#hd"/>
<path d="M643.20 243.40v40.00" class="stroke"/>
<path class="fill"
	d="M643.20 283.40c0.6 -5.6 9.6 -9 5.6 -18.4
	1.6 6 -1.3 11.6 -5.6 12.8
"/>
<use x="646.70" y="264.40" xlink:href="#hd"/>
<use x="669.70" y="267.40" xlink:href="#hd"/>
<path d="M673.20 267.40v-40.00" class="stroke"/>
<use x="669.70" y="246.40" xlink:href="#hd"/>
<use x="22.00" y="307.40" xlink:href="#bclef"/>
<use x="37.00" y="319.40" xlink:href="#ft0"/>
<use x="42.50" y="310.40" xlink:href="#ft0"/>
<use x="48.00" y="322.40" xlink:href="#ft0"/>
<use x="82.50" y="331.40" xlink:href="#hl1"/>
<use x="82.50" y="331.40" xlink:href="#HD"/>
<use x="82.50" y="325.40" xlink:href="#HD"/>
<use x="82.50" y="319.40" xlink:href="#HD"/>
<use x="82.50" y="313.40" xlink:href="#HD"/>
<use x="204.00" y="331.40" xlink:href="#hl"/>
<use x="204.00" y="337.40" xlink:href="#hl"/>
<use x="204.00" y="343.40" xlink:href="#hl"/>
<use x="204.00" y="346.40" xlink:href="#hd"/>
<path d="M207.50 346.40v-40.00" class="stroke"/>
<path class="fill"
	d="M207.50 306.40c0.6 5.6 9.6 9 5.6 18.4
	1.6 -6 -1.3 -11.6 -5.6 -12.8
"/>
<use x="204.00" y="325.40" xlink:href="#hd"/>
<use x="226.40" y="298.40" xlink:href="#hd"/>
<path d="M222.90 298.40v21.00" class="stroke"/>
<path class="fill"
	d="M222.90 319.40c0.6 -5.6 9.6 -9 5.6 -18.4
	1.6 6 -1.3 11.6 -5.6 12.8
"/>
<use x="248.30" y="295.40" xlink:href="#hl"/>
<use x="248.30" y="292.40" xlink:href="#hd"/>
<path d="M244.80 292.40v21.00" class="stroke"/>
<path class="fill"
	d="M244.80 313.40c0.6 -5.6 9.6 -9 5.6 -18.4
	1.6 6 -1.3 11.6 -5.6 12.8
"/>
<use x="270.30" y="295.40" xlink:href="#hl"/>
<use x="270.30" y="289.40" xlink:href="#hl"/>
<use x="270.30" y="286.40" xlink:href="#hd"/>
<path d="M266.80 286.40v27.00" class="stroke"/>
<path class="fill"
	d="M266.80 313.40c0.6 -5.6 9.6 -9 5.6 -18.4
	1.6 6 -1.3 11.6 -5.6 12.8
"/>
<use x="292.30" y="295.40" xlink:href="#hl"/>
<use x="292.30" y="289.40" xlink:href="#hl"/>
<use x="292.30" y="283.40" xlink:href="#hl"/>
<use x="292.30" y="283.40" xlink:href="#hd"/>
<path d="M288.80 283.40v30.00" class="stroke"/>
<path class="fill"
	d="M288.80 313.40c0.6 -5.6 9.6 -9 5.6 -18.4
	1.6 6 -1.3 11.6 -5.6 12.8
"/>
<use x="314.30" y="295.40" xlink:href="#hl"/>
<use x="314.30" y="289.40" xlink:href="#hl"/>
<use x="314.30" y="283.40" xlink:href="#hl"/>
<use x="314.30" y="277.40" xlink:href="#hl"/>
<use x="314.30" y="277.40" xlink:href="#hd"/>
<path d="M310.80 277.40v36.00" class="stroke"/>
<path class="fill"
	d="M310.80 313.40c0.6 -5.6 9.6 -9 5.6 -18.4
	1.6 6 -1.3 11.6 -5.6 12.8
"/>
<use x="336.50" y="325.40" xlink:href="#hd"/>
<path d="M340.00 325.40v-21.00" class="stroke"/>
<path class="fill"
	d="M340.00 304.40c0.6 5.6 9.6 9 5.6 18.4
	1.6 -6 -1.3 -11.6 -5.6 -12.8
"/>
<use x="358.90" y="298.40" xlink:href="#hd"/>
<path d="M355.40 298.40v21.00" class="stroke"/>
<path class="fill"
	d="M355.40 319.40c0.6 -5.6 9.6 -9 5.6 -18.4
	1.6 6 -1.3 11.6 -5.6 12.8
"/>
<use x="387.20" y="328.40" xlink:href="#hd"/>
<path d="M390.70 328.40v-21.00" class="stroke"/>
<path class="fill"
	d="M390.70 307.40c0.6 5.6 9.6 9 5.6 18.4
	1.6 -6 -1.3 -11.6 -5.6 -12.8
"/>
<use x="409.70" y="301.40" xlink:href="#hd"/>
<path d="M406.20 301.40v21.00" class="stroke"/>
<path class="fill"
	d="M406.20 322.40c0.6 -5.6 9.6 -9 5.6 -18.4
	1.6 6 -1.3 11.6 -5.6 12.8
"/>
<use x="431.50" y="295.40" xlink:href="#hl"/>
<use x="431.50" y="295.40" xlink:href="#hd"/>
<path d="M428.00 295.40v21.00" class="stroke"/>
<path class="fill"
	d="M428.00 316.40c0.6 -5.6 9.6 -9 5.6 -18.4
	1.6 6 -1.3 11.6 -5.6 12.8
"/>
<use x="453.50" y="295.40" xlink:href="#hl"/>
<use x="453.50" y="289.40" xlink:href="#hl"/>
<use x="453.50" y="289.40" xlink:href="#hd"/>
<path d="M450.00 289.40v24.00" class="stroke"/>
<path class="fill"
	d="M450.00 313.40c0.6 -5.6 9.6 -9 5.6 -18.4
	1.6 6 -1.3 11.6 -5.6 12.8
"/>
<use x="475.50" y="295.40" xlink:href="#hl"/>
<use x="475.50" y="289.40" xlink:href="#hl"/>
<use x="475.50" y="286.40" xlink:href="#hd"/>
<path d="M472.00 286.40v27.00" class="stroke"/>
<path class="fill"
	d="M472.00 313.40c0.6 -5.6 9.6 -9 5.6 -18.4
	1.6 6 -1.3 11.6 -5.6 12.8
"/>
<use x="497.50" y="295.40" xlink:href="#hl"/>
<use x="497.50" y="289.40" xlink:href="#hl"/>
<use x="497.50" y="283.40" xlink:href="#hl"/>
<use x="497.50" y="280.40" xlink:href="#hd"/>
<path d="M494.00 280.40v33.00" class="stroke"/>
<path class="fill"
	d="M494.00 313.40c0.6 -5.6 9.6 -9 5.6 -18.4
	1.6 6 -1.3 11.6 -5.6 12.8
"/>
<use x="517.30" y="328.40" xlink:href="#hd"/>
<path d="M520.80 328.40v-21.00" class="stroke"/>
<path class="fill"
	d="M520.80 307.40c0.6 5.6 9.6 9 5.6 18.4
	1.6 -6 -1.3 -11.6 -5.6 -12.8
"/>
<use x="539.70" y="301.40" xlink:href="#hd"/>
<path d="M536.20 301.40v21.00" class="stroke"/>
<path class="fill"
	d="M536.20 322.40c0.6 -5.6 9.6 -9 5.6 -18.4
	1.6 6 -1.3 11.6 -5.6 12.8
"/>
<use x="581.50" y="331.40" xlink:href="#hl1"/>
<use x="581.50" y="337.40" xlink:href="#hl1"/>
<use x="581.50" y="340.40" xlink:href="#HD"/>
<use x="581.50" y="319.40" xlink:href="#HD"/>
<use x="581.50" y="313.40" xlink:href="#HD"/>
<use x="581.50" y="307.40" xlink:href="#HD"/>
<use x="581.50" y="301.40" xlink:href="#HD"/>
<g transform="rotate(270)">
<use x="-334.40" y="69.00" xlink:href="#ltr"/>
<use x="-328.40" y="69.00" xlink:href="#ltr"/>
<use x="-322.40" y="69.00" xlink:href="#ltr"/>
<use x="-316.40" y="69.00" xlink:href="#ltr"/>
</g>
<text x="196.50" y="234.40" style="font:bold italic 30px serif">,</text>
<defs>
<g id="hld" class="fill">
	<circle cx="0" cy="-3" r="1.3"/>
	<path d="m-7.5 -1.5
		c0 -11.5 15 -11.5 15 0
		h-0.25
		c-1.25 -9 -13.25 -9 -14.5 0"/>
</g>
</defs>
<use x="580.50" y="295.40" xlink:href="#hld"/>
<g transform="rotate(270)">
<use x="-343.40" y="568.00" xlink:href="#ltr"/>
<use x="-337.40" y="568.00" xlink:href="#ltr"/>
<use x="-331.40" y="568.00" xlink:href="#ltr"/>
<use x="-325.40" y="568.00" xlink:href="#ltr"/>
<use x="-319.40" y="568.00" xlink:href="#ltr"/>
<use x="-313.40" y="568.00" xlink:href="#ltr"/>
<use x="-307.40" y="568.00" xlink:href="#ltr"/>
<use x="-301.40" y="568.00" xlink:href="#ltr"/>
</g>
<use x="669.70" y="223.40" xlink:href="#hld"/>
<g transform="rotate(270)">
<use x="-270.40" y="659.70" xlink:href="#ltr"/>
<use x="-264.40" y="659.70" xlink:href="#ltr"/>
<use x="-258.40" y="659.70" xlink:href="#ltr"/>
<use x="-252.40" y="659.70" xlink:href="#ltr"/>
<use x="-246.40" y="659.70" xlink:href="#ltr"/>
</g>
</g>
</svg>
