<?xml version="1.0" standalone="no"?>
<!DOCTYPE svg PUBLIC "-//W3C//DTD SVG 1.1//EN"
	"http://www.w3.org/Graphics/SVG/1.1/DTD/svg11.dtd">
<svg xmlns="http://www.w3.org/2000/svg" version="1.1"
	xmlns:xlink="http://www.w3.org/1999/xlink"
	color="black"
	width="701.60px" height="654.60px" viewBox="0 0 701.60 654.60" preserveAspectRatio="xMidYMid meet">
<style type="text/css">
.fill {fill: currentColor}
.stroke {stroke: currentColor; fill: none}
text{white-space: pre}
</style>
<title>/tmp/boddie_hymnal_stage/i_m_but_a_stranger_here.abc (1) tune 1</title>
<!-- Creator: abcm2ps-8.14.11 -->
<!-- CreationDate: Apr 30, 2026 12:59 -->
<!-- CommandLine: /tmp/boddie_hymnal_stage/i_m_but_a_stranger_here.abc -g -O /tmp/boddie_hymnal_stage/i_m_but_a_stranger_here -->
<g stroke-width="0.70">
<!-- title: 108. I'm But A Stranger Here -->
</g>
<g stroke-width="0.70" style="font:20.00px Times">
<text x="350.80" y="22.00" text-anchor="middle">108. I&apos;m But A Stranger Here</text>
</g>
<g stroke-width="0.70" transform="scale(0.700)" style="font:20.00px Times">
<defs>
<ellipse id="hd" rx="4.1" ry="2.9"
	transform="rotate(-20)" class="fill"/>
</defs>
<use x="103.00" y="75.57" xlink:href="#hd"/>
<path d="M106.50 75.57v-21.00" class="stroke"/>
</g>
<g stroke-width="0.70" style="font:bold 15.00px Times">
<text x="79.80" y="55.00">= 72Slowly, with great expression</text>
<path class="stroke" stroke-width="1"
	d="M10.00 171.40v-93.00"/>
<defs>
<path id="brace" class="fill" d="m-2.5 101
	c-4.5 -4.6 -7.5 -12.2 -4.4 -26.8
	3.5 -14.3 3.2 -21.7 -2.1 -24.2
	7.4 2.4 7.3 14.2 3.5 29.5
	-2.7 9.5 -1.5 16.2 3 21.5
	M-2.5 1c-4.5 4.6 -7.5 12.2 -4.4 26.8
	c3.5 14.3 3.2 21.7 -2.1 24.2
	7.4 -2.4 7.3 -14.2 3.5 -29.5
	-2.7 -9.5 -1.5 -16.2 3 -21.5"/>
</defs>
<g transform="translate(10.00,78.40) scale(1,0.93)">
	<use xlink:href="#brace"/>
</g>
<path class="stroke" stroke-width="1"
	d="M245.40 102.40v-24.00"/>
<path class="stroke" stroke-width="1"
	d="M245.40 171.40v-24.00"/>
<path class="stroke" stroke-width="1"
	d="M433.40 102.40v-24.00"/>
<path class="stroke" stroke-width="1"
	d="M433.40 171.40v-24.00"/>
<path class="stroke" stroke-width="1"
	d="M621.90 102.40v-24.00"/>
<path class="stroke" stroke-width="1"
	d="M621.90 171.40v-24.00"/>
<path class="stroke" stroke-width="1"
	d="M691.60 102.40v-24.00"/>
<path class="stroke" stroke-width="1"
	d="M691.60 171.40v-24.00"/>
<path d="m10.00 102.40
	h681.60
	M10.00 96.40
	h681.60
	M10.00 90.40
	h681.60
	M10.00 84.40
	h681.60
	M10.00 78.40
	h681.60
	" class="stroke"/>
<path d="m10.00 171.40
	h681.60
	M10.00 165.40
	h681.60
	M10.00 159.40
	h681.60
	M10.00 153.40
	h681.60
	M10.00 147.40
	h681.60
	" class="stroke"/>
</g>
<g stroke-width="0.70" style="font:bold 13.00px Times">
<text x="65.80" y="68.80">I<tspan
	 style="font:italic 11.00px Times">Δ⁷</tspan></text>
</g>
<g stroke-width="0.70" style="font:bold 13.00px Times">
<text x="252.00" y="68.80">V<tspan
	 style="font:italic 11.00px Times">⁷</tspan></text>
</g>
<g stroke-width="0.70" style="font:bold 13.00px Times">
<text x="438.50" y="71.80">V<tspan
	 style="font:italic 11.00px Times">⁷¹</tspan></text>
</g>
<g stroke-width="0.70" style="font:bold 13.00px Times">
<text x="641.10" y="73.80">I<tspan
	 style="font:italic 11.00px Times">Δ⁷</tspan></text>
</g>
<g stroke-width="0.70" style="font:italic 11.00px Times">
<defs>
<path id="utclef" class="fill" d="m-50 -90
	c-72 -41 -72 -158 52 -188
	150 -10 220 188 90 256
	-114 52 -275 0 -293 -136
	-15 -181 93 -229 220 -334
	88 -87 79 -133 62 -210
	-51 33 -94 105 -89 186
	17 267 36 374 49 574
	6 96 -19 134 -77 135
	-80 1 -126 -93 -61 -133
	85 -41 133 101 31 105
	23 17 92 37 90 -92
	-10 -223 -39 -342 -50 -617
	0 -90 0 -162 96 -232
	56 72 63 230 22 289
	-74 106 -257 168 -255 316
	9 153 148 185 252 133
	86 -65 29 -192 -80 -176
	-71 12 -105 67 -59 124"/>
<use id="tclef" transform="translate(0,6) scale(0.045)"
	xlink:href="#utclef"/>
</defs>
<use x="22.00" y="96.40" xlink:href="#tclef"/>
<defs>
<path id="usharp" class="fill" d="
	m136 -702
	v890
	h32
	v-890
	m128 840
	h32
	v-888
	h-32
	m-232 286
	v116
	l338 -96
	v-116
	m-338 442
	v116
	l338 -98
	v-114"/>
<use id="sh0" transform="translate(-4,5) scale(0.018)"
	xlink:href="#usharp"/>
</defs>
<use x="37.00" y="78.40" xlink:href="#sh0"/>
<g style="font:bold 16px serif"
	transform="translate(53.00,101.90) scale(1.2,1)">
	<text text-anchor="middle">4</text>
	<text y="-12" text-anchor="middle">4</text>
</g>
<defs>
<path id="Hd" class="fill" d="m3 -1.6
	c-1 -1.8 -7 1.4 -6 3.2
	1 1.8 7 -1.4 6 -3.2
	m0.5 -0.3
	c2 3.8 -5 7.6 -7 3.8
	-2 -3.8 5 -7.6 7 -3.8"/>
</defs>
<use x="71.50" y="96.40" xlink:href="#Hd"/>
<path d="M75.00 96.40v-21.00" class="stroke"/>
<use x="162.90" y="96.40" xlink:href="#hd"/>
<path d="M166.40 96.40v-21.00" class="stroke"/>
<use x="206.10" y="96.40" xlink:href="#hd"/>
<path d="M209.60 96.40v-21.00" class="stroke"/>
<use x="257.90" y="96.40" xlink:href="#hd"/>
<path d="M261.40 96.40v-21.00" class="stroke"/>
<use x="303.40" y="99.40" xlink:href="#hd"/>
<path d="M306.90 99.40v-21.00" class="stroke"/>
<use x="349.00" y="93.40" xlink:href="#Hd"/>
<path d="M352.50 93.40v-21.00" class="stroke"/>
<use x="446.40" y="105.40" xlink:href="#Hd"/>
<path d="M449.90 105.40v-21.00" class="stroke"/>
<use x="537.50" y="105.40" xlink:href="#hd"/>
<path d="M541.00 105.40v-21.00" class="stroke"/>
<use x="582.90" y="102.40" xlink:href="#hd"/>
<path d="M586.40 102.40v-21.00" class="stroke"/>
<defs>
<path id="HD" class="fill" d="m-2.7 -1.4
	c1.5 -2.8 6.9 0 5.3 2.7
	-1.5 2.8 -6.9 0 -5.3 -2.7
	m8.3 1.4
	c0 -1.5 -2.2 -3 -5.6 -3
	-3.4 0 -5.6 1.5 -5.6 3
	0 1.5 2.2 3 5.6 3
	3.4 0 5.6 -1.5 5.6 -3"/>
</defs>
<use x="647.90" y="105.40" xlink:href="#HD"/>
<use x="647.90" y="84.40" xlink:href="#HD"/>
<defs>
<path id="ubclef" class="fill" d="m-200 -87
	c124 -35 222 -78 254 -236
	43 -228 -167 -246 -192 -103
	59 -80 157 22 92 78
	-62 47 -115 -22 -106 -88
	21 -141 270 -136 274 52
	-1 175 -106 264 -322 297
	m357 -250
	c0 -36 51 -34 51 0
	0 37 -51 36 -51 0
	m-2 -129
	c0 -36 51 -34 51 0
	0 38 -51 37 -51 0"/>
<use id="bclef" transform="translate(0,18) scale(0.045)"
	xlink:href="#ubclef"/>
</defs>
<use x="22.00" y="153.40" xlink:href="#bclef"/>
<use x="37.00" y="153.40" xlink:href="#sh0"/>
<g style="font:bold 16px serif"
	transform="translate(53.00,170.90) scale(1.2,1)">
	<text text-anchor="middle">4</text>
	<text y="-12" text-anchor="middle">4</text>
</g>
<defs>
<path id="hl" class="stroke" d="m-6 0h12"/>
</defs>
<use x="71.50" y="177.40" xlink:href="#hl"/>
<use x="71.50" y="183.40" xlink:href="#hl"/>
<use x="71.50" y="189.40" xlink:href="#hl"/>
<use x="71.50" y="192.40" xlink:href="#hd"/>
<path d="M75.00 192.40v-40.00" class="stroke"/>
<path class="fill"
	d="M75.00 152.40c0.6 5.6 9.6 9 5.6 18.4
	1.6 -6 -1.3 -11.6 -5.6 -12.8
"/>
<use x="71.50" y="171.40" xlink:href="#hd"/>
<use x="94.60" y="144.40" xlink:href="#hd"/>
<path d="M91.10 144.40v21.00" class="stroke"/>
<path class="fill"
	d="M91.10 165.40c0.6 -5.6 9.6 -9 5.6 -18.4
	1.6 6 -1.3 11.6 -5.6 12.8
"/>
<use x="117.30" y="141.40" xlink:href="#hl"/>
<use x="117.30" y="138.40" xlink:href="#hd"/>
<path d="M113.80 138.40v21.00" class="stroke"/>
<path class="fill"
	d="M113.80 159.40c0.6 -5.6 9.6 -9 5.6 -18.4
	1.6 6 -1.3 11.6 -5.6 12.8
"/>
<use x="140.10" y="141.40" xlink:href="#hl"/>
<use x="140.10" y="135.40" xlink:href="#hl"/>
<use x="140.10" y="132.40" xlink:href="#hd"/>
<path d="M136.60 132.40v27.00" class="stroke"/>
<path class="fill"
	d="M136.60 159.40c0.6 -5.6 9.6 -9 5.6 -18.4
	1.6 6 -1.3 11.6 -5.6 12.8
"/>
<use x="162.90" y="141.40" xlink:href="#hl"/>
<use x="162.90" y="135.40" xlink:href="#hl"/>
<use x="162.90" y="129.40" xlink:href="#hl"/>
<use x="162.90" y="129.40" xlink:href="#hd"/>
<path d="M159.40 129.40v30.00" class="stroke"/>
<path class="fill"
	d="M159.40 159.40c0.6 -5.6 9.6 -9 5.6 -18.4
	1.6 6 -1.3 11.6 -5.6 12.8
"/>
<use x="185.60" y="141.40" xlink:href="#hl"/>
<use x="185.60" y="135.40" xlink:href="#hl"/>
<use x="185.60" y="129.40" xlink:href="#hl"/>
<use x="185.60" y="123.40" xlink:href="#hl"/>
<use x="185.60" y="123.40" xlink:href="#hd"/>
<path d="M182.10 123.40v36.00" class="stroke"/>
<path class="fill"
	d="M182.10 159.40c0.6 -5.6 9.6 -9 5.6 -18.4
	1.6 6 -1.3 11.6 -5.6 12.8
"/>
<use x="206.10" y="171.40" xlink:href="#hd"/>
<path d="M209.60 171.40v-21.00" class="stroke"/>
<path class="fill"
	d="M209.60 150.40c0.6 5.6 9.6 9 5.6 18.4
	1.6 -6 -1.3 -11.6 -5.6 -12.8
"/>
<use x="229.20" y="144.40" xlink:href="#hd"/>
<path d="M225.70 144.40v21.00" class="stroke"/>
<path class="fill"
	d="M225.70 165.40c0.6 -5.6 9.6 -9 5.6 -18.4
	1.6 6 -1.3 11.6 -5.6 12.8
"/>
<use x="257.90" y="159.40" xlink:href="#hd"/>
<path d="M254.40 159.40v21.00" class="stroke"/>
<path class="fill"
	d="M254.40 180.40c0.6 -5.6 9.6 -9 5.6 -18.4
	1.6 6 -1.3 11.6 -5.6 12.8
"/>
<use x="280.60" y="141.40" xlink:href="#hl"/>
<use x="280.60" y="135.40" xlink:href="#hl"/>
<use x="280.60" y="132.40" xlink:href="#hd"/>
<path d="M277.10 132.40v27.00" class="stroke"/>
<path class="fill"
	d="M277.10 159.40c0.6 -5.6 9.6 -9 5.6 -18.4
	1.6 6 -1.3 11.6 -5.6 12.8
"/>
<use x="303.40" y="141.40" xlink:href="#hl"/>
<use x="303.40" y="135.40" xlink:href="#hl"/>
<use x="303.40" y="129.40" xlink:href="#hl"/>
<use x="303.40" y="126.40" xlink:href="#hd"/>
<path d="M299.90 126.40v33.00" class="stroke"/>
<path class="fill"
	d="M299.90 159.40c0.6 -5.6 9.6 -9 5.6 -18.4
	1.6 6 -1.3 11.6 -5.6 12.8
"/>
<use x="326.20" y="141.40" xlink:href="#hl"/>
<use x="326.20" y="135.40" xlink:href="#hl"/>
<use x="326.20" y="129.40" xlink:href="#hl"/>
<use x="326.20" y="123.40" xlink:href="#hl"/>
<use x="326.20" y="120.40" xlink:href="#hd"/>
<path d="M322.70 120.40v39.00" class="stroke"/>
<path class="fill"
	d="M322.70 159.40c0.6 -5.6 9.6 -9 5.6 -18.4
	1.6 6 -1.3 11.6 -5.6 12.8
"/>
<use x="349.00" y="141.40" xlink:href="#hl"/>
<use x="349.00" y="135.40" xlink:href="#hl"/>
<use x="349.00" y="129.40" xlink:href="#hl"/>
<use x="349.00" y="123.40" xlink:href="#hl"/>
<use x="349.00" y="117.40" xlink:href="#hl"/>
<use x="349.00" y="117.40" xlink:href="#hd"/>
<path d="M345.50 117.40v42.00" class="stroke"/>
<path class="fill"
	d="M345.50 159.40c0.6 -5.6 9.6 -9 5.6 -18.4
	1.6 6 -1.3 11.6 -5.6 12.8
"/>
<use x="371.80" y="141.40" xlink:href="#hl"/>
<use x="371.80" y="135.40" xlink:href="#hl"/>
<use x="371.80" y="129.40" xlink:href="#hl"/>
<use x="371.80" y="123.40" xlink:href="#hl"/>
<use x="371.80" y="117.40" xlink:href="#hl"/>
<use x="371.80" y="111.40" xlink:href="#hl"/>
<use x="371.80" y="111.40" xlink:href="#hd"/>
<path d="M368.30 111.40v48.00" class="stroke"/>
<path class="fill"
	d="M368.30 159.40c0.6 -5.6 9.6 -9 5.6 -18.4
	1.6 6 -1.3 11.6 -5.6 12.8
"/>
<use x="394.50" y="159.40" xlink:href="#hd"/>
<path d="M391.00 159.40v21.00" class="stroke"/>
<path class="fill"
	d="M391.00 180.40c0.6 -5.6 9.6 -9 5.6 -18.4
	1.6 6 -1.3 11.6 -5.6 12.8
"/>
<use x="417.20" y="141.40" xlink:href="#hl"/>
<use x="417.20" y="135.40" xlink:href="#hl"/>
<use x="417.20" y="132.40" xlink:href="#hd"/>
<path d="M413.70 132.40v27.00" class="stroke"/>
<path class="fill"
	d="M413.70 159.40c0.6 -5.6 9.6 -9 5.6 -18.4
	1.6 6 -1.3 11.6 -5.6 12.8
"/>
<use x="446.40" y="159.40" xlink:href="#hd"/>
<path d="M442.90 159.40v21.00" class="stroke"/>
<path class="fill"
	d="M442.90 180.40c0.6 -5.6 9.6 -9 5.6 -18.4
	1.6 6 -1.3 11.6 -5.6 12.8
"/>
<use x="469.10" y="141.40" xlink:href="#hl"/>
<use x="469.10" y="135.40" xlink:href="#hl"/>
<use x="469.10" y="132.40" xlink:href="#hd"/>
<path d="M465.60 132.40v27.00" class="stroke"/>
<path class="fill"
	d="M465.60 159.40c0.6 -5.6 9.6 -9 5.6 -18.4
	1.6 6 -1.3 11.6 -5.6 12.8
"/>
<use x="491.90" y="141.40" xlink:href="#hl"/>
<use x="491.90" y="135.40" xlink:href="#hl"/>
<use x="491.90" y="129.40" xlink:href="#hl"/>
<use x="491.90" y="126.40" xlink:href="#hd"/>
<path d="M488.40 126.40v33.00" class="stroke"/>
<path class="fill"
	d="M488.40 159.40c0.6 -5.6 9.6 -9 5.6 -18.4
	1.6 6 -1.3 11.6 -5.6 12.8
"/>
<use x="514.70" y="141.40" xlink:href="#hl"/>
<use x="514.70" y="135.40" xlink:href="#hl"/>
<use x="514.70" y="129.40" xlink:href="#hl"/>
<use x="514.70" y="123.40" xlink:href="#hl"/>
<use x="514.70" y="120.40" xlink:href="#hd"/>
<path d="M511.20 120.40v39.00" class="stroke"/>
<path class="fill"
	d="M511.20 159.40c0.6 -5.6 9.6 -9 5.6 -18.4
	1.6 6 -1.3 11.6 -5.6 12.8
"/>
<use x="537.50" y="141.40" xlink:href="#hl"/>
<use x="537.50" y="135.40" xlink:href="#hl"/>
<use x="537.50" y="129.40" xlink:href="#hl"/>
<use x="537.50" y="123.40" xlink:href="#hl"/>
<use x="537.50" y="117.40" xlink:href="#hl"/>
<use x="537.50" y="117.40" xlink:href="#hd"/>
<path d="M534.00 117.40v42.00" class="stroke"/>
<path class="fill"
	d="M534.00 159.40c0.6 -5.6 9.6 -9 5.6 -18.4
	1.6 6 -1.3 11.6 -5.6 12.8
"/>
<use x="560.20" y="141.40" xlink:href="#hl"/>
<use x="560.20" y="135.40" xlink:href="#hl"/>
<use x="560.20" y="129.40" xlink:href="#hl"/>
<use x="560.20" y="123.40" xlink:href="#hl"/>
<use x="560.20" y="117.40" xlink:href="#hl"/>
<use x="560.20" y="111.40" xlink:href="#hl"/>
<use x="560.20" y="111.40" xlink:href="#hd"/>
<path d="M556.70 111.40v48.00" class="stroke"/>
<path class="fill"
	d="M556.70 159.40c0.6 -5.6 9.6 -9 5.6 -18.4
	1.6 6 -1.3 11.6 -5.6 12.8
"/>
<use x="582.90" y="159.40" xlink:href="#hd"/>
<path d="M579.40 159.40v21.00" class="stroke"/>
<path class="fill"
	d="M579.40 180.40c0.6 -5.6 9.6 -9 5.6 -18.4
	1.6 6 -1.3 11.6 -5.6 12.8
"/>
<use x="605.70" y="141.40" xlink:href="#hl"/>
<use x="605.70" y="135.40" xlink:href="#hl"/>
<use x="605.70" y="132.40" xlink:href="#hd"/>
<path d="M602.20 132.40v27.00" class="stroke"/>
<path class="fill"
	d="M602.20 159.40c0.6 -5.6 9.6 -9 5.6 -18.4
	1.6 6 -1.3 11.6 -5.6 12.8
"/>
<use x="647.90" y="171.40" xlink:href="#HD"/>
<use x="647.90" y="165.40" xlink:href="#HD"/>
<use x="647.90" y="159.40" xlink:href="#HD"/>
<use x="647.90" y="153.40" xlink:href="#HD"/>
<defs>
<path id="ltr" class="fill"
    d="m0 -0.4c2 -1.5 3.4 -1.9 3.9 0.4
	c0.2 0.8 0.7 0.7 2.1 -0.4
	v0.8c-2 1.5 -3.4 1.9 -3.9 -0.4
	c-0.2 -0.8 -0.7 -0.7 -2.1 0.4z"/>
</defs>
<g transform="rotate(270)">
<use x="-174.40" y="634.40" xlink:href="#ltr"/>
<use x="-168.40" y="634.40" xlink:href="#ltr"/>
<use x="-162.40" y="634.40" xlink:href="#ltr"/>
<use x="-156.40" y="634.40" xlink:href="#ltr"/>
</g>
<text x="691.60" y="69.40" style="font:bold italic 30px serif">,</text>
</g>
<g stroke-width="0.70" style="font:italic 11.00px Times">
<path class="stroke" stroke-width="1"
	d="M10.00 321.80v-98.00"/>
<g transform="translate(10.00,223.80) scale(1,0.98)">
	<use xlink:href="#brace"/>
</g>
<path class="stroke" stroke-width="1"
	d="M204.20 247.80v-24.00"/>
<path class="stroke" stroke-width="1"
	d="M204.20 321.80v-24.00"/>
<path class="stroke" stroke-width="1"
	d="M365.50 247.80v-24.00"/>
<path class="stroke" stroke-width="1"
	d="M365.50 321.80v-24.00"/>
<path class="stroke" stroke-width="1"
	d="M528.10 247.80v-24.00"/>
<path class="stroke" stroke-width="1"
	d="M528.10 321.80v-24.00"/>
<path class="stroke" stroke-width="1"
	d="M691.60 247.80v-24.00"/>
<path class="stroke" stroke-width="1"
	d="M691.60 321.80v-24.00"/>
<path d="m10.00 247.80
	h681.60
	M10.00 241.80
	h681.60
	M10.00 235.80
	h681.60
	M10.00 229.80
	h681.60
	M10.00 223.80
	h681.60
	" class="stroke"/>
<path d="m10.00 321.80
	h681.60
	M10.00 315.80
	h681.60
	M10.00 309.80
	h681.60
	M10.00 303.80
	h681.60
	M10.00 297.80
	h681.60
	" class="stroke"/>
</g>
<g stroke-width="0.70" style="font:bold 13.00px Times">
<text x="49.80" y="219.20">I<tspan
	 style="font:italic 11.00px Times">Δ⁷</tspan></text>
</g>
<g stroke-width="0.70" style="font:bold 13.00px Times">
<text x="208.70" y="208.20">iii<tspan
	 style="font:italic 11.00px Times">m⁷²</tspan></text>
</g>
<g stroke-width="0.70" style="font:bold 13.00px Times">
<text x="370.50" y="211.20">vii<tspan
	 style="font:italic 11.00px Times">ø⁷¹</tspan></text>
</g>
<g stroke-width="0.70" style="font:bold 13.00px Times">
<text x="536.20" y="219.20">V<tspan
	 style="font:italic 11.00px Times">⁷</tspan></text>
</g>
<g stroke-width="0.70" style="font:italic 11.00px Times">
<use x="22.00" y="241.80" xlink:href="#tclef"/>
<use x="37.00" y="223.80" xlink:href="#sh0"/>
<use x="55.50" y="250.80" xlink:href="#Hd"/>
<path d="M59.00 250.80v-21.00" class="stroke"/>
<use x="133.50" y="235.80" xlink:href="#hd"/>
<path d="M137.00 235.80v-21.00" class="stroke"/>
<use x="170.30" y="235.80" xlink:href="#hd"/>
<path d="M173.80 235.80v-21.00" class="stroke"/>
<use x="216.70" y="235.80" xlink:href="#hd"/>
<path d="M220.20 235.80v-21.00" class="stroke"/>
<use x="256.00" y="238.80" xlink:href="#hd"/>
<path d="M259.50 238.80v-21.00" class="stroke"/>
<use x="294.80" y="229.80" xlink:href="#Hd"/>
<path d="M291.30 229.80v21.00" class="stroke"/>
<use x="378.50" y="238.80" xlink:href="#Hd"/>
<path d="M382.00 238.80v-21.00" class="stroke"/>
<use x="456.10" y="244.80" xlink:href="#hd"/>
<path d="M459.60 244.80v-21.00" class="stroke"/>
<use x="494.80" y="247.80" xlink:href="#hd"/>
<path d="M498.30 247.80v-21.00" class="stroke"/>
<use x="543.10" y="250.80" xlink:href="#HD"/>
<use x="22.00" y="303.80" xlink:href="#bclef"/>
<use x="37.00" y="303.80" xlink:href="#sh0"/>
<use x="55.50" y="327.80" xlink:href="#hl"/>
<use x="55.50" y="333.80" xlink:href="#hl"/>
<use x="55.50" y="339.80" xlink:href="#hl"/>
<use x="55.50" y="342.80" xlink:href="#hd"/>
<path d="M59.00 342.80v-40.00" class="stroke"/>
<path class="fill"
	d="M59.00 302.80c0.6 5.6 9.6 9 5.6 18.4
	1.6 -6 -1.3 -11.6 -5.6 -12.8
"/>
<use x="55.50" y="321.80" xlink:href="#hd"/>
<use x="75.40" y="294.80" xlink:href="#hd"/>
<path d="M71.90 294.80v21.00" class="stroke"/>
<path class="fill"
	d="M71.90 315.80c0.6 -5.6 9.6 -9 5.6 -18.4
	1.6 6 -1.3 11.6 -5.6 12.8
"/>
<use x="94.70" y="291.80" xlink:href="#hl"/>
<use x="94.70" y="288.80" xlink:href="#hd"/>
<path d="M91.20 288.80v21.00" class="stroke"/>
<path class="fill"
	d="M91.20 309.80c0.6 -5.6 9.6 -9 5.6 -18.4
	1.6 6 -1.3 11.6 -5.6 12.8
"/>
<use x="114.10" y="291.80" xlink:href="#hl"/>
<use x="114.10" y="285.80" xlink:href="#hl"/>
<use x="114.10" y="282.80" xlink:href="#hd"/>
<path d="M110.60 282.80v27.00" class="stroke"/>
<path class="fill"
	d="M110.60 309.80c0.6 -5.6 9.6 -9 5.6 -18.4
	1.6 6 -1.3 11.6 -5.6 12.8
"/>
<use x="133.50" y="291.80" xlink:href="#hl"/>
<use x="133.50" y="285.80" xlink:href="#hl"/>
<use x="133.50" y="279.80" xlink:href="#hl"/>
<use x="133.50" y="279.80" xlink:href="#hd"/>
<path d="M130.00 279.80v30.00" class="stroke"/>
<path class="fill"
	d="M130.00 309.80c0.6 -5.6 9.6 -9 5.6 -18.4
	1.6 6 -1.3 11.6 -5.6 12.8
"/>
<use x="152.90" y="291.80" xlink:href="#hl"/>
<use x="152.90" y="285.80" xlink:href="#hl"/>
<use x="152.90" y="279.80" xlink:href="#hl"/>
<use x="152.90" y="273.80" xlink:href="#hl"/>
<use x="152.90" y="273.80" xlink:href="#hd"/>
<path d="M149.40 273.80v36.00" class="stroke"/>
<path class="fill"
	d="M149.40 309.80c0.6 -5.6 9.6 -9 5.6 -18.4
	1.6 6 -1.3 11.6 -5.6 12.8
"/>
<use x="170.30" y="321.80" xlink:href="#hd"/>
<path d="M173.80 321.80v-21.00" class="stroke"/>
<path class="fill"
	d="M173.80 300.80c0.6 5.6 9.6 9 5.6 18.4
	1.6 -6 -1.3 -11.6 -5.6 -12.8
"/>
<use x="190.20" y="294.80" xlink:href="#hd"/>
<path d="M186.70 294.80v21.00" class="stroke"/>
<path class="fill"
	d="M186.70 315.80c0.6 -5.6 9.6 -9 5.6 -18.4
	1.6 6 -1.3 11.6 -5.6 12.8
"/>
<use x="216.70" y="315.80" xlink:href="#hd"/>
<path d="M220.20 315.80v-21.00" class="stroke"/>
<path class="fill"
	d="M220.20 294.80c0.6 5.6 9.6 9 5.6 18.4
	1.6 -6 -1.3 -11.6 -5.6 -12.8
"/>
<use x="236.60" y="291.80" xlink:href="#hl"/>
<use x="236.60" y="288.80" xlink:href="#hd"/>
<path d="M233.10 288.80v21.00" class="stroke"/>
<path class="fill"
	d="M233.10 309.80c0.6 -5.6 9.6 -9 5.6 -18.4
	1.6 6 -1.3 11.6 -5.6 12.8
"/>
<use x="256.00" y="291.80" xlink:href="#hl"/>
<use x="256.00" y="285.80" xlink:href="#hl"/>
<use x="256.00" y="282.80" xlink:href="#hd"/>
<path d="M252.50 282.80v27.00" class="stroke"/>
<path class="fill"
	d="M252.50 309.80c0.6 -5.6 9.6 -9 5.6 -18.4
	1.6 6 -1.3 11.6 -5.6 12.8
"/>
<use x="275.40" y="291.80" xlink:href="#hl"/>
<use x="275.40" y="285.80" xlink:href="#hl"/>
<use x="275.40" y="279.80" xlink:href="#hl"/>
<use x="275.40" y="276.80" xlink:href="#hd"/>
<path d="M271.90 276.80v33.00" class="stroke"/>
<path class="fill"
	d="M271.90 309.80c0.6 -5.6 9.6 -9 5.6 -18.4
	1.6 6 -1.3 11.6 -5.6 12.8
"/>
<use x="294.80" y="291.80" xlink:href="#hl"/>
<use x="294.80" y="285.80" xlink:href="#hl"/>
<use x="294.80" y="279.80" xlink:href="#hl"/>
<use x="294.80" y="273.80" xlink:href="#hl"/>
<use x="294.80" y="273.80" xlink:href="#hd"/>
<path d="M291.30 273.80v36.00" class="stroke"/>
<path class="fill"
	d="M291.30 309.80c0.6 -5.6 9.6 -9 5.6 -18.4
	1.6 6 -1.3 11.6 -5.6 12.8
"/>
<use x="314.20" y="291.80" xlink:href="#hl"/>
<use x="314.20" y="285.80" xlink:href="#hl"/>
<use x="314.20" y="279.80" xlink:href="#hl"/>
<use x="314.20" y="273.80" xlink:href="#hl"/>
<use x="314.20" y="267.80" xlink:href="#hl"/>
<use x="314.20" y="267.80" xlink:href="#hd"/>
<path d="M310.70 267.80v42.00" class="stroke"/>
<path class="fill"
	d="M310.70 309.80c0.6 -5.6 9.6 -9 5.6 -18.4
	1.6 6 -1.3 11.6 -5.6 12.8
"/>
<use x="331.70" y="315.80" xlink:href="#hd"/>
<path d="M335.20 315.80v-21.00" class="stroke"/>
<path class="fill"
	d="M335.20 294.80c0.6 5.6 9.6 9 5.6 18.4
	1.6 -6 -1.3 -11.6 -5.6 -12.8
"/>
<use x="351.50" y="291.80" xlink:href="#hl"/>
<use x="351.50" y="288.80" xlink:href="#hd"/>
<path d="M348.00 288.80v21.00" class="stroke"/>
<path class="fill"
	d="M348.00 309.80c0.6 -5.6 9.6 -9 5.6 -18.4
	1.6 6 -1.3 11.6 -5.6 12.8
"/>
<use x="378.50" y="303.80" xlink:href="#hd"/>
<path d="M375.00 303.80v21.00" class="stroke"/>
<path class="fill"
	d="M375.00 324.80c0.6 -5.6 9.6 -9 5.6 -18.4
	1.6 6 -1.3 11.6 -5.6 12.8
"/>
<use x="397.80" y="291.80" xlink:href="#hl"/>
<use x="397.80" y="285.80" xlink:href="#hl"/>
<use x="397.80" y="279.80" xlink:href="#hl"/>
<use x="397.80" y="276.80" xlink:href="#hd"/>
<path d="M394.30 276.80v33.00" class="stroke"/>
<path class="fill"
	d="M394.30 309.80c0.6 -5.6 9.6 -9 5.6 -18.4
	1.6 6 -1.3 11.6 -5.6 12.8
"/>
<use x="417.20" y="291.80" xlink:href="#hl"/>
<use x="417.20" y="285.80" xlink:href="#hl"/>
<use x="417.20" y="279.80" xlink:href="#hl"/>
<use x="417.20" y="273.80" xlink:href="#hl"/>
<use x="417.20" y="270.80" xlink:href="#hd"/>
<path d="M413.70 270.80v39.00" class="stroke"/>
<path class="fill"
	d="M413.70 309.80c0.6 -5.6 9.6 -9 5.6 -18.4
	1.6 6 -1.3 11.6 -5.6 12.8
"/>
<use x="436.70" y="291.80" xlink:href="#hl"/>
<use x="436.70" y="285.80" xlink:href="#hl"/>
<use x="436.70" y="279.80" xlink:href="#hl"/>
<use x="436.70" y="273.80" xlink:href="#hl"/>
<use x="436.70" y="267.80" xlink:href="#hl"/>
<use x="436.70" y="264.80" xlink:href="#hd"/>
<path d="M433.20 264.80v45.00" class="stroke"/>
<path class="fill"
	d="M433.20 309.80c0.6 -5.6 9.6 -9 5.6 -18.4
	1.6 6 -1.3 11.6 -5.6 12.8
"/>
<use x="456.10" y="291.80" xlink:href="#hl"/>
<use x="456.10" y="285.80" xlink:href="#hl"/>
<use x="456.10" y="279.80" xlink:href="#hl"/>
<use x="456.10" y="273.80" xlink:href="#hl"/>
<use x="456.10" y="267.80" xlink:href="#hl"/>
<use x="456.10" y="261.80" xlink:href="#hl"/>
<use x="456.10" y="261.80" xlink:href="#hd"/>
<path d="M452.60 261.80v48.00" class="stroke"/>
<path class="fill"
	d="M452.60 309.80c0.6 -5.6 9.6 -9 5.6 -18.4
	1.6 6 -1.3 11.6 -5.6 12.8
"/>
<use x="475.50" y="291.80" xlink:href="#hl"/>
<use x="475.50" y="285.80" xlink:href="#hl"/>
<use x="475.50" y="279.80" xlink:href="#hl"/>
<use x="475.50" y="273.80" xlink:href="#hl"/>
<use x="475.50" y="267.80" xlink:href="#hl"/>
<use x="475.50" y="261.80" xlink:href="#hl"/>
<use x="475.50" y="255.80" xlink:href="#hl"/>
<use x="475.50" y="255.80" xlink:href="#hd"/>
<path d="M472.00 255.80v54.00" class="stroke"/>
<path class="fill"
	d="M472.00 309.80c0.6 -5.6 9.6 -9 5.6 -18.4
	1.6 6 -1.3 11.6 -5.6 12.8
"/>
<use x="494.80" y="303.80" xlink:href="#hd"/>
<path d="M491.30 303.80v21.00" class="stroke"/>
<path class="fill"
	d="M491.30 324.80c0.6 -5.6 9.6 -9 5.6 -18.4
	1.6 6 -1.3 11.6 -5.6 12.8
"/>
<use x="514.10" y="291.80" xlink:href="#hl"/>
<use x="514.10" y="285.80" xlink:href="#hl"/>
<use x="514.10" y="279.80" xlink:href="#hl"/>
<use x="514.10" y="276.80" xlink:href="#hd"/>
<path d="M510.60 276.80v33.00" class="stroke"/>
<path class="fill"
	d="M510.60 309.80c0.6 -5.6 9.6 -9 5.6 -18.4
	1.6 6 -1.3 11.6 -5.6 12.8
"/>
<use x="542.10" y="309.80" xlink:href="#hd"/>
<path d="M538.60 309.80v21.00" class="stroke"/>
<path class="fill"
	d="M538.60 330.80c0.6 -5.6 9.6 -9 5.6 -18.4
	1.6 6 -1.3 11.6 -5.6 12.8
"/>
<use x="561.40" y="291.80" xlink:href="#hl"/>
<use x="561.40" y="285.80" xlink:href="#hl"/>
<use x="561.40" y="282.80" xlink:href="#hd"/>
<path d="M557.90 282.80v27.00" class="stroke"/>
<path class="fill"
	d="M557.90 309.80c0.6 -5.6 9.6 -9 5.6 -18.4
	1.6 6 -1.3 11.6 -5.6 12.8
"/>
<use x="580.80" y="291.80" xlink:href="#hl"/>
<use x="580.80" y="285.80" xlink:href="#hl"/>
<use x="580.80" y="279.80" xlink:href="#hl"/>
<use x="580.80" y="276.80" xlink:href="#hd"/>
<path d="M577.30 276.80v33.00" class="stroke"/>
<path class="fill"
	d="M577.30 309.80c0.6 -5.6 9.6 -9 5.6 -18.4
	1.6 6 -1.3 11.6 -5.6 12.8
"/>
<use x="600.20" y="291.80" xlink:href="#hl"/>
<use x="600.20" y="285.80" xlink:href="#hl"/>
<use x="600.20" y="279.80" xlink:href="#hl"/>
<use x="600.20" y="273.80" xlink:href="#hl"/>
<use x="600.20" y="270.80" xlink:href="#hd"/>
<path d="M596.70 270.80v39.00" class="stroke"/>
<path class="fill"
	d="M596.70 309.80c0.6 -5.6 9.6 -9 5.6 -18.4
	1.6 6 -1.3 11.6 -5.6 12.8
"/>
<use x="619.60" y="291.80" xlink:href="#hl"/>
<use x="619.60" y="285.80" xlink:href="#hl"/>
<use x="619.60" y="279.80" xlink:href="#hl"/>
<use x="619.60" y="273.80" xlink:href="#hl"/>
<use x="619.60" y="267.80" xlink:href="#hl"/>
<use x="619.60" y="267.80" xlink:href="#hd"/>
<path d="M616.10 267.80v42.00" class="stroke"/>
<path class="fill"
	d="M616.10 309.80c0.6 -5.6 9.6 -9 5.6 -18.4
	1.6 6 -1.3 11.6 -5.6 12.8
"/>
<use x="639.00" y="291.80" xlink:href="#hl"/>
<use x="639.00" y="285.80" xlink:href="#hl"/>
<use x="639.00" y="279.80" xlink:href="#hl"/>
<use x="639.00" y="273.80" xlink:href="#hl"/>
<use x="639.00" y="267.80" xlink:href="#hl"/>
<use x="639.00" y="261.80" xlink:href="#hl"/>
<use x="639.00" y="261.80" xlink:href="#hd"/>
<path d="M635.50 261.80v48.00" class="stroke"/>
<path class="fill"
	d="M635.50 309.80c0.6 -5.6 9.6 -9 5.6 -18.4
	1.6 6 -1.3 11.6 -5.6 12.8
"/>
<use x="658.30" y="309.80" xlink:href="#hd"/>
<path d="M654.80 309.80v21.00" class="stroke"/>
<path class="fill"
	d="M654.80 330.80c0.6 -5.6 9.6 -9 5.6 -18.4
	1.6 6 -1.3 11.6 -5.6 12.8
"/>
<use x="677.60" y="291.80" xlink:href="#hl"/>
<use x="677.60" y="285.80" xlink:href="#hl"/>
<use x="677.60" y="282.80" xlink:href="#hd"/>
<path d="M674.10 282.80v27.00" class="stroke"/>
<path class="fill"
	d="M674.10 309.80c0.6 -5.6 9.6 -9 5.6 -18.4
	1.6 6 -1.3 11.6 -5.6 12.8
"/>
</g>
<g stroke-width="0.70" style="font:italic 11.00px Times">
<path class="stroke" stroke-width="1"
	d="M10.00 471.20v-97.00"/>
<g transform="translate(10.00,374.20) scale(1,0.97)">
	<use xlink:href="#brace"/>
</g>
<path class="stroke" stroke-width="1"
	d="M193.70 398.20v-24.00"/>
<path class="stroke" stroke-width="1"
	d="M193.70 471.20v-24.00"/>
<path class="stroke" stroke-width="1"
	d="M290.50 398.20v-24.00"/>
<path class="stroke" stroke-width="1"
	d="M290.50 471.20v-24.00"/>
<path class="stroke" stroke-width="1"
	d="M442.70 398.20v-24.00"/>
<path class="stroke" stroke-width="1"
	d="M442.70 471.20v-24.00"/>
<path class="stroke" stroke-width="1"
	d="M539.40 398.20v-24.00"/>
<path class="stroke" stroke-width="1"
	d="M539.40 471.20v-24.00"/>
<path class="stroke" stroke-width="1"
	d="M691.60 398.20v-24.00"/>
<path class="stroke" stroke-width="1"
	d="M691.60 471.20v-24.00"/>
<path d="m10.00 398.20
	h681.60
	M10.00 392.20
	h681.60
	M10.00 386.20
	h681.60
	M10.00 380.20
	h681.60
	M10.00 374.20
	h681.60
	" class="stroke"/>
<path d="m10.00 471.20
	h681.60
	M10.00 465.20
	h681.60
	M10.00 459.20
	h681.60
	M10.00 453.20
	h681.60
	M10.00 447.20
	h681.60
	" class="stroke"/>
</g>
<g stroke-width="0.70" style="font:bold 13.00px Times">
<text x="49.60" y="361.60">V<tspan
	 style="font:italic 11.00px Times">⁷</tspan></text>
</g>
<g stroke-width="0.70" style="font:bold 13.00px Times">
<text x="211.10" y="359.60">I<tspan
	 style="font:italic 11.00px Times">Δ⁷²</tspan></text>
</g>
<g stroke-width="0.70" style="font:bold 13.00px Times">
<text x="297.60" y="367.60">V<tspan
	 style="font:italic 11.00px Times">⁷</tspan></text>
</g>
<g stroke-width="0.70" style="font:bold 13.00px Times">
<text x="461.90" y="359.60">I<tspan
	 style="font:italic 11.00px Times">Δ⁷</tspan></text>
</g>
<g stroke-width="0.70" style="font:bold 13.00px Times">
<text x="544.40" y="358.60">vi<tspan
	 style="font:italic 11.00px Times">m⁷</tspan></text>
</g>
<g stroke-width="0.70" style="font:italic 11.00px Times">
<use x="22.00" y="392.20" xlink:href="#tclef"/>
<use x="37.00" y="374.20" xlink:href="#sh0"/>
<use x="55.50" y="389.20" xlink:href="#Hd"/>
<path d="M59.00 389.20v-21.00" class="stroke"/>
<use x="127.10" y="386.20" xlink:href="#hd"/>
<path d="M130.60 386.20v-21.00" class="stroke"/>
<use x="162.70" y="389.20" xlink:href="#hd"/>
<path d="M166.20 389.20v-21.00" class="stroke"/>
<use x="218.70" y="368.20" xlink:href="#hl"/>
<use x="218.70" y="368.20" xlink:href="#hd"/>
<path d="M215.20 368.20v40.00" class="stroke"/>
<use x="218.70" y="389.20" xlink:href="#hd"/>
<use x="243.30" y="371.20" xlink:href="#hd"/>
<path d="M239.80 371.20v40.00" class="stroke"/>
<use x="243.30" y="392.20" xlink:href="#hd"/>
<use x="265.60" y="401.20" xlink:href="#Hd"/>
<path d="M269.10 401.20v-40.00" class="stroke"/>
<use x="265.60" y="380.20" xlink:href="#Hd"/>
<use x="303.50" y="383.20" xlink:href="#Hd"/>
<path d="M300.00 383.20v21.00" class="stroke"/>
<use x="376.00" y="386.20" xlink:href="#hd"/>
<path d="M372.50 386.20v21.00" class="stroke"/>
<use x="411.70" y="389.20" xlink:href="#hd"/>
<path d="M415.20 389.20v-21.00" class="stroke"/>
<use x="467.70" y="368.20" xlink:href="#hl"/>
<use x="467.70" y="368.20" xlink:href="#hd"/>
<path d="M464.20 368.20v40.00" class="stroke"/>
<use x="467.70" y="389.20" xlink:href="#hd"/>
<use x="492.20" y="371.20" xlink:href="#hd"/>
<path d="M488.70 371.20v40.00" class="stroke"/>
<use x="492.20" y="392.20" xlink:href="#hd"/>
<use x="514.50" y="401.20" xlink:href="#Hd"/>
<path d="M518.00 401.20v-40.00" class="stroke"/>
<use x="514.50" y="380.20" xlink:href="#Hd"/>
<use x="552.40" y="386.20" xlink:href="#Hd"/>
<path d="M555.90 386.20v-21.00" class="stroke"/>
<use x="624.90" y="377.20" xlink:href="#hd"/>
<path d="M621.40 377.20v21.00" class="stroke"/>
<use x="660.60" y="380.20" xlink:href="#hd"/>
<path d="M657.10 380.20v21.00" class="stroke"/>
<use x="22.00" y="453.20" xlink:href="#bclef"/>
<use x="37.00" y="453.20" xlink:href="#sh0"/>
<use x="55.50" y="459.20" xlink:href="#hd"/>
<path d="M52.00 459.20v21.00" class="stroke"/>
<path class="fill"
	d="M52.00 480.20c0.6 -5.6 9.6 -9 5.6 -18.4
	1.6 6 -1.3 11.6 -5.6 12.8
"/>
<use x="73.20" y="441.20" xlink:href="#hl"/>
<use x="73.20" y="435.20" xlink:href="#hl"/>
<use x="73.20" y="432.20" xlink:href="#hd"/>
<path d="M69.70 432.20v27.00" class="stroke"/>
<path class="fill"
	d="M69.70 459.20c0.6 -5.6 9.6 -9 5.6 -18.4
	1.6 6 -1.3 11.6 -5.6 12.8
"/>
<use x="91.20" y="441.20" xlink:href="#hl"/>
<use x="91.20" y="435.20" xlink:href="#hl"/>
<use x="91.20" y="429.20" xlink:href="#hl"/>
<use x="91.20" y="426.20" xlink:href="#hd"/>
<path d="M87.70 426.20v33.00" class="stroke"/>
<path class="fill"
	d="M87.70 459.20c0.6 -5.6 9.6 -9 5.6 -18.4
	1.6 6 -1.3 11.6 -5.6 12.8
"/>
<use x="109.10" y="441.20" xlink:href="#hl"/>
<use x="109.10" y="435.20" xlink:href="#hl"/>
<use x="109.10" y="429.20" xlink:href="#hl"/>
<use x="109.10" y="423.20" xlink:href="#hl"/>
<use x="109.10" y="420.20" xlink:href="#hd"/>
<path d="M105.60 420.20v39.00" class="stroke"/>
<path class="fill"
	d="M105.60 459.20c0.6 -5.6 9.6 -9 5.6 -18.4
	1.6 6 -1.3 11.6 -5.6 12.8
"/>
<use x="127.10" y="441.20" xlink:href="#hl"/>
<use x="127.10" y="435.20" xlink:href="#hl"/>
<use x="127.10" y="429.20" xlink:href="#hl"/>
<use x="127.10" y="423.20" xlink:href="#hl"/>
<use x="127.10" y="417.20" xlink:href="#hl"/>
<use x="127.10" y="417.20" xlink:href="#hd"/>
<path d="M123.60 417.20v42.00" class="stroke"/>
<path class="fill"
	d="M123.60 459.20c0.6 -5.6 9.6 -9 5.6 -18.4
	1.6 6 -1.3 11.6 -5.6 12.8
"/>
<use x="145.00" y="441.20" xlink:href="#hl"/>
<use x="145.00" y="435.20" xlink:href="#hl"/>
<use x="145.00" y="429.20" xlink:href="#hl"/>
<use x="145.00" y="423.20" xlink:href="#hl"/>
<use x="145.00" y="417.20" xlink:href="#hl"/>
<use x="145.00" y="411.20" xlink:href="#hl"/>
<use x="145.00" y="411.20" xlink:href="#hd"/>
<path d="M141.50 411.20v48.00" class="stroke"/>
<path class="fill"
	d="M141.50 459.20c0.6 -5.6 9.6 -9 5.6 -18.4
	1.6 6 -1.3 11.6 -5.6 12.8
"/>
<use x="162.70" y="459.20" xlink:href="#hd"/>
<path d="M159.20 459.20v21.00" class="stroke"/>
<path class="fill"
	d="M159.20 480.20c0.6 -5.6 9.6 -9 5.6 -18.4
	1.6 6 -1.3 11.6 -5.6 12.8
"/>
<use x="180.50" y="441.20" xlink:href="#hl"/>
<use x="180.50" y="435.20" xlink:href="#hl"/>
<use x="180.50" y="432.20" xlink:href="#hd"/>
<path d="M177.00 432.20v27.00" class="stroke"/>
<path class="fill"
	d="M177.00 459.20c0.6 -5.6 9.6 -9 5.6 -18.4
	1.6 6 -1.3 11.6 -5.6 12.8
"/>
<use x="219.70" y="471.20" xlink:href="#HD"/>
<use x="219.70" y="465.20" xlink:href="#HD"/>
<use x="219.70" y="459.20" xlink:href="#HD"/>
<use x="219.70" y="453.20" xlink:href="#HD"/>
<use x="303.50" y="477.20" xlink:href="#hl"/>
<use x="303.50" y="480.20" xlink:href="#hd"/>
<path d="M307.00 480.20v-40.00" class="stroke"/>
<path class="fill"
	d="M307.00 440.20c0.6 5.6 9.6 9 5.6 18.4
	1.6 -6 -1.3 -11.6 -5.6 -12.8
"/>
<use x="303.50" y="459.20" xlink:href="#hd"/>
<use x="322.20" y="441.20" xlink:href="#hl"/>
<use x="322.20" y="435.20" xlink:href="#hl"/>
<use x="322.20" y="432.20" xlink:href="#hd"/>
<path d="M318.70 432.20v27.00" class="stroke"/>
<path class="fill"
	d="M318.70 459.20c0.6 -5.6 9.6 -9 5.6 -18.4
	1.6 6 -1.3 11.6 -5.6 12.8
"/>
<use x="340.10" y="441.20" xlink:href="#hl"/>
<use x="340.10" y="435.20" xlink:href="#hl"/>
<use x="340.10" y="429.20" xlink:href="#hl"/>
<use x="340.10" y="426.20" xlink:href="#hd"/>
<path d="M336.60 426.20v33.00" class="stroke"/>
<path class="fill"
	d="M336.60 459.20c0.6 -5.6 9.6 -9 5.6 -18.4
	1.6 6 -1.3 11.6 -5.6 12.8
"/>
<use x="358.10" y="441.20" xlink:href="#hl"/>
<use x="358.10" y="435.20" xlink:href="#hl"/>
<use x="358.10" y="429.20" xlink:href="#hl"/>
<use x="358.10" y="423.20" xlink:href="#hl"/>
<use x="358.10" y="420.20" xlink:href="#hd"/>
<path d="M354.60 420.20v39.00" class="stroke"/>
<path class="fill"
	d="M354.60 459.20c0.6 -5.6 9.6 -9 5.6 -18.4
	1.6 6 -1.3 11.6 -5.6 12.8
"/>
<use x="376.00" y="441.20" xlink:href="#hl"/>
<use x="376.00" y="435.20" xlink:href="#hl"/>
<use x="376.00" y="429.20" xlink:href="#hl"/>
<use x="376.00" y="423.20" xlink:href="#hl"/>
<use x="376.00" y="417.20" xlink:href="#hl"/>
<use x="376.00" y="417.20" xlink:href="#hd"/>
<path d="M372.50 417.20v42.00" class="stroke"/>
<path class="fill"
	d="M372.50 459.20c0.6 -5.6 9.6 -9 5.6 -18.4
	1.6 6 -1.3 11.6 -5.6 12.8
"/>
<use x="393.90" y="441.20" xlink:href="#hl"/>
<use x="393.90" y="435.20" xlink:href="#hl"/>
<use x="393.90" y="429.20" xlink:href="#hl"/>
<use x="393.90" y="423.20" xlink:href="#hl"/>
<use x="393.90" y="417.20" xlink:href="#hl"/>
<use x="393.90" y="411.20" xlink:href="#hl"/>
<use x="393.90" y="411.20" xlink:href="#hd"/>
<path d="M390.40 411.20v48.00" class="stroke"/>
<path class="fill"
	d="M390.40 459.20c0.6 -5.6 9.6 -9 5.6 -18.4
	1.6 6 -1.3 11.6 -5.6 12.8
"/>
<use x="411.70" y="459.20" xlink:href="#hd"/>
<path d="M408.20 459.20v21.00" class="stroke"/>
<path class="fill"
	d="M408.20 480.20c0.6 -5.6 9.6 -9 5.6 -18.4
	1.6 6 -1.3 11.6 -5.6 12.8
"/>
<use x="429.40" y="441.20" xlink:href="#hl"/>
<use x="429.40" y="435.20" xlink:href="#hl"/>
<use x="429.40" y="432.20" xlink:href="#hd"/>
<path d="M425.90 432.20v27.00" class="stroke"/>
<path class="fill"
	d="M425.90 459.20c0.6 -5.6 9.6 -9 5.6 -18.4
	1.6 6 -1.3 11.6 -5.6 12.8
"/>
<use x="468.70" y="471.20" xlink:href="#HD"/>
<use x="468.70" y="465.20" xlink:href="#HD"/>
<use x="468.70" y="459.20" xlink:href="#HD"/>
<use x="468.70" y="453.20" xlink:href="#HD"/>
<use x="552.40" y="477.20" xlink:href="#hl"/>
<use x="552.40" y="477.20" xlink:href="#hd"/>
<path d="M555.90 477.20v-40.00" class="stroke"/>
<path class="fill"
	d="M555.90 437.20c0.6 5.6 9.6 9 5.6 18.4
	1.6 -6 -1.3 -11.6 -5.6 -12.8
"/>
<use x="552.40" y="456.20" xlink:href="#hd"/>
<use x="571.10" y="441.20" xlink:href="#hl"/>
<use x="571.10" y="435.20" xlink:href="#hl"/>
<use x="571.10" y="429.20" xlink:href="#hl"/>
<use x="571.10" y="429.20" xlink:href="#hd"/>
<path d="M567.60 429.20v30.00" class="stroke"/>
<path class="fill"
	d="M567.60 459.20c0.6 -5.6 9.6 -9 5.6 -18.4
	1.6 6 -1.3 11.6 -5.6 12.8
"/>
<use x="589.00" y="441.20" xlink:href="#hl"/>
<use x="589.00" y="435.20" xlink:href="#hl"/>
<use x="589.00" y="429.20" xlink:href="#hl"/>
<use x="589.00" y="423.20" xlink:href="#hl"/>
<use x="589.00" y="423.20" xlink:href="#hd"/>
<path d="M585.50 423.20v36.00" class="stroke"/>
<path class="fill"
	d="M585.50 459.20c0.6 -5.6 9.6 -9 5.6 -18.4
	1.6 6 -1.3 11.6 -5.6 12.8
"/>
<use x="607.00" y="441.20" xlink:href="#hl"/>
<use x="607.00" y="435.20" xlink:href="#hl"/>
<use x="607.00" y="429.20" xlink:href="#hl"/>
<use x="607.00" y="423.20" xlink:href="#hl"/>
<use x="607.00" y="417.20" xlink:href="#hl"/>
<use x="607.00" y="417.20" xlink:href="#hd"/>
<path d="M603.50 417.20v42.00" class="stroke"/>
<path class="fill"
	d="M603.50 459.20c0.6 -5.6 9.6 -9 5.6 -18.4
	1.6 6 -1.3 11.6 -5.6 12.8
"/>
<use x="624.90" y="441.20" xlink:href="#hl"/>
<use x="624.90" y="435.20" xlink:href="#hl"/>
<use x="624.90" y="429.20" xlink:href="#hl"/>
<use x="624.90" y="423.20" xlink:href="#hl"/>
<use x="624.90" y="417.20" xlink:href="#hl"/>
<use x="624.90" y="414.20" xlink:href="#hd"/>
<path d="M621.40 414.20v45.00" class="stroke"/>
<path class="fill"
	d="M621.40 459.20c0.6 -5.6 9.6 -9 5.6 -18.4
	1.6 6 -1.3 11.6 -5.6 12.8
"/>
<use x="642.90" y="441.20" xlink:href="#hl"/>
<use x="642.90" y="435.20" xlink:href="#hl"/>
<use x="642.90" y="429.20" xlink:href="#hl"/>
<use x="642.90" y="423.20" xlink:href="#hl"/>
<use x="642.90" y="417.20" xlink:href="#hl"/>
<use x="642.90" y="411.20" xlink:href="#hl"/>
<use x="642.90" y="408.20" xlink:href="#hd"/>
<path d="M639.40 408.20v51.00" class="stroke"/>
<path class="fill"
	d="M639.40 459.20c0.6 -5.6 9.6 -9 5.6 -18.4
	1.6 6 -1.3 11.6 -5.6 12.8
"/>
<use x="660.60" y="456.20" xlink:href="#hd"/>
<path d="M657.10 456.20v21.00" class="stroke"/>
<path class="fill"
	d="M657.10 477.20c0.6 -5.6 9.6 -9 5.6 -18.4
	1.6 6 -1.3 11.6 -5.6 12.8
"/>
<use x="678.30" y="441.20" xlink:href="#hl"/>
<use x="678.30" y="435.20" xlink:href="#hl"/>
<use x="678.30" y="429.20" xlink:href="#hl"/>
<use x="678.30" y="429.20" xlink:href="#hd"/>
<path d="M674.80 429.20v30.00" class="stroke"/>
<path class="fill"
	d="M674.80 459.20c0.6 -5.6 9.6 -9 5.6 -18.4
	1.6 6 -1.3 11.6 -5.6 12.8
"/>
<g transform="rotate(270)">
<use x="-474.20" y="206.20" xlink:href="#ltr"/>
<use x="-468.20" y="206.20" xlink:href="#ltr"/>
<use x="-462.20" y="206.20" xlink:href="#ltr"/>
<use x="-456.20" y="206.20" xlink:href="#ltr"/>
</g>
<text x="295.70" y="365.20" style="font:bold italic 30px serif">,</text>
<g transform="rotate(270)">
<use x="-474.20" y="455.20" xlink:href="#ltr"/>
<use x="-468.20" y="455.20" xlink:href="#ltr"/>
<use x="-462.20" y="455.20" xlink:href="#ltr"/>
<use x="-456.20" y="455.20" xlink:href="#ltr"/>
</g>
<text x="544.60" y="365.20" style="font:bold italic 30px serif">,</text>
</g>
<g stroke-width="0.70" style="font:italic 11.00px Times">
<path class="stroke" stroke-width="1"
	d="M10.00 627.60v-100.00"/>
<g transform="translate(10.00,527.60) scale(1,1.00)">
	<use xlink:href="#brace"/>
</g>
<path class="stroke" stroke-width="1"
	d="M319.70 551.60v-24.00"/>
<path class="stroke" stroke-width="1"
	d="M319.70 627.60v-24.00"/>
<path class="stroke" stroke-width="1"
	d="M598.20 551.60v-24.00"/>
<path class="stroke" stroke-width="1"
	d="M598.20 627.60v-24.00"/>
<path class="stroke" stroke-width="1"
	d="M691.60 551.60v-24.00"/>
<path class="stroke" stroke-width="1"
	d="M691.60 627.60v-24.00"/>
<path d="m10.00 551.60
	h681.60
	M10.00 545.60
	h681.60
	M10.00 539.60
	h681.60
	M10.00 533.60
	h681.60
	M10.00 527.60
	h681.60
	" class="stroke"/>
<path d="m10.00 627.60
	h681.60
	M10.00 621.60
	h681.60
	M10.00 615.60
	h681.60
	M10.00 609.60
	h681.60
	M10.00 603.60
	h681.60
	" class="stroke"/>
</g>
<g stroke-width="0.70" style="font:bold 13.00px Times">
<text x="47.00" y="523.00">vi<tspan
	 style="font:italic 11.00px Times">m⁷²</tspan></text>
</g>
<g stroke-width="0.70" style="font:bold 13.00px Times">
<text x="329.20" y="518.00">I<tspan
	 style="font:italic 11.00px Times">Δ⁷²</tspan></text>
</g>
<g stroke-width="0.70" style="font:bold 13.00px Times">
<text x="617.80" y="504.00">I<tspan
	 style="font:italic 11.00px Times">Δ⁷</tspan></text>
</g>
<g stroke-width="0.70" style="font:italic 11.00px Times">
<use x="22.00" y="545.60" xlink:href="#tclef"/>
<use x="37.00" y="527.60" xlink:href="#sh0"/>
<use x="55.00" y="533.60" xlink:href="#hd"/>
<path d="M51.50 533.60v21.00" class="stroke"/>
<use x="123.80" y="536.60" xlink:href="#hd"/>
<path d="M120.30 536.60v21.00" class="stroke"/>
<use x="192.50" y="539.60" xlink:href="#hd"/>
<path d="M189.00 539.60v21.00" class="stroke"/>
<use x="261.30" y="542.60" xlink:href="#hd"/>
<path d="M264.80 542.60v-21.00" class="stroke"/>
<use x="336.90" y="545.60" xlink:href="#Hd"/>
<path d="M340.40 545.60v-21.00" class="stroke"/>
<use x="474.40" y="542.60" xlink:href="#hd"/>
<path d="M477.90 542.60v-21.00" class="stroke"/>
<use x="539.80" y="548.60" xlink:href="#hd"/>
<path d="M543.30 548.60v-21.00" class="stroke"/>
<use x="624.60" y="524.60" xlink:href="#HD"/>
<use x="624.60" y="545.60" xlink:href="#HD"/>
<use x="22.00" y="609.60" xlink:href="#bclef"/>
<use x="37.00" y="609.60" xlink:href="#sh0"/>
<use x="55.00" y="612.60" xlink:href="#hd"/>
<path d="M51.50 612.60v21.00" class="stroke"/>
<path class="fill"
	d="M51.50 633.60c0.6 -5.6 9.6 -9 5.6 -18.4
	1.6 6 -1.3 11.6 -5.6 12.8
"/>
<use x="89.40" y="597.60" xlink:href="#hl"/>
<use x="89.40" y="591.60" xlink:href="#hl"/>
<use x="89.40" y="585.60" xlink:href="#hl"/>
<use x="89.40" y="585.60" xlink:href="#hd"/>
<path d="M85.90 585.60v30.00" class="stroke"/>
<path class="fill"
	d="M85.90 615.60c0.6 -5.6 9.6 -9 5.6 -18.4
	1.6 6 -1.3 11.6 -5.6 12.8
"/>
<use x="123.80" y="597.60" xlink:href="#hl"/>
<use x="123.80" y="591.60" xlink:href="#hl"/>
<use x="123.80" y="585.60" xlink:href="#hl"/>
<use x="123.80" y="579.60" xlink:href="#hl"/>
<use x="123.80" y="579.60" xlink:href="#hd"/>
<path d="M120.30 579.60v36.00" class="stroke"/>
<path class="fill"
	d="M120.30 615.60c0.6 -5.6 9.6 -9 5.6 -18.4
	1.6 6 -1.3 11.6 -5.6 12.8
"/>
<use x="158.10" y="597.60" xlink:href="#hl"/>
<use x="158.10" y="591.60" xlink:href="#hl"/>
<use x="158.10" y="585.60" xlink:href="#hl"/>
<use x="158.10" y="579.60" xlink:href="#hl"/>
<use x="158.10" y="573.60" xlink:href="#hl"/>
<use x="158.10" y="573.60" xlink:href="#hd"/>
<path d="M154.60 573.60v42.00" class="stroke"/>
<path class="fill"
	d="M154.60 615.60c0.6 -5.6 9.6 -9 5.6 -18.4
	1.6 6 -1.3 11.6 -5.6 12.8
"/>
<use x="192.50" y="597.60" xlink:href="#hl"/>
<use x="192.50" y="591.60" xlink:href="#hl"/>
<use x="192.50" y="585.60" xlink:href="#hl"/>
<use x="192.50" y="579.60" xlink:href="#hl"/>
<use x="192.50" y="573.60" xlink:href="#hl"/>
<use x="192.50" y="570.60" xlink:href="#hd"/>
<path d="M189.00 570.60v45.00" class="stroke"/>
<path class="fill"
	d="M189.00 615.60c0.6 -5.6 9.6 -9 5.6 -18.4
	1.6 6 -1.3 11.6 -5.6 12.8
"/>
<use x="226.90" y="597.60" xlink:href="#hl"/>
<use x="226.90" y="591.60" xlink:href="#hl"/>
<use x="226.90" y="585.60" xlink:href="#hl"/>
<use x="226.90" y="579.60" xlink:href="#hl"/>
<use x="226.90" y="573.60" xlink:href="#hl"/>
<use x="226.90" y="567.60" xlink:href="#hl"/>
<use x="226.90" y="564.60" xlink:href="#hd"/>
<path d="M223.40 564.60v51.00" class="stroke"/>
<path class="fill"
	d="M223.40 615.60c0.6 -5.6 9.6 -9 5.6 -18.4
	1.6 6 -1.3 11.6 -5.6 12.8
"/>
<use x="261.30" y="612.60" xlink:href="#hd"/>
<path d="M257.80 612.60v21.00" class="stroke"/>
<path class="fill"
	d="M257.80 633.60c0.6 -5.6 9.6 -9 5.6 -18.4
	1.6 6 -1.3 11.6 -5.6 12.8
"/>
<use x="295.70" y="597.60" xlink:href="#hl"/>
<use x="295.70" y="591.60" xlink:href="#hl"/>
<use x="295.70" y="585.60" xlink:href="#hl"/>
<use x="295.70" y="585.60" xlink:href="#hd"/>
<path d="M292.20 585.60v30.00" class="stroke"/>
<path class="fill"
	d="M292.20 615.60c0.6 -5.6 9.6 -9 5.6 -18.4
	1.6 6 -1.3 11.6 -5.6 12.8
"/>
<use x="336.90" y="627.60" xlink:href="#hd"/>
<path d="M340.40 627.60v-21.00" class="stroke"/>
<path class="fill"
	d="M340.40 606.60c0.6 5.6 9.6 9 5.6 18.4
	1.6 -6 -1.3 -11.6 -5.6 -12.8
"/>
<use x="371.30" y="600.60" xlink:href="#hd"/>
<path d="M367.80 600.60v21.00" class="stroke"/>
<path class="fill"
	d="M367.80 621.60c0.6 -5.6 9.6 -9 5.6 -18.4
	1.6 6 -1.3 11.6 -5.6 12.8
"/>
<use x="405.70" y="597.60" xlink:href="#hl"/>
<use x="405.70" y="594.60" xlink:href="#hd"/>
<path d="M402.20 594.60v21.00" class="stroke"/>
<path class="fill"
	d="M402.20 615.60c0.6 -5.6 9.6 -9 5.6 -18.4
	1.6 6 -1.3 11.6 -5.6 12.8
"/>
<use x="440.10" y="597.60" xlink:href="#hl"/>
<use x="440.10" y="591.60" xlink:href="#hl"/>
<use x="440.10" y="588.60" xlink:href="#hd"/>
<path d="M436.60 588.60v27.00" class="stroke"/>
<path class="fill"
	d="M436.60 615.60c0.6 -5.6 9.6 -9 5.6 -18.4
	1.6 6 -1.3 11.6 -5.6 12.8
"/>
<use x="474.40" y="597.60" xlink:href="#hl"/>
<use x="474.40" y="591.60" xlink:href="#hl"/>
<use x="474.40" y="585.60" xlink:href="#hl"/>
<use x="474.40" y="585.60" xlink:href="#hd"/>
<path d="M470.90 585.60v30.00" class="stroke"/>
<path class="fill"
	d="M470.90 615.60c0.6 -5.6 9.6 -9 5.6 -18.4
	1.6 6 -1.3 11.6 -5.6 12.8
"/>
<use x="508.80" y="597.60" xlink:href="#hl"/>
<use x="508.80" y="591.60" xlink:href="#hl"/>
<use x="508.80" y="585.60" xlink:href="#hl"/>
<use x="508.80" y="579.60" xlink:href="#hl"/>
<use x="508.80" y="579.60" xlink:href="#hd"/>
<path d="M505.30 579.60v36.00" class="stroke"/>
<path class="fill"
	d="M505.30 615.60c0.6 -5.6 9.6 -9 5.6 -18.4
	1.6 6 -1.3 11.6 -5.6 12.8
"/>
<use x="539.80" y="627.60" xlink:href="#hd"/>
<path d="M543.30 627.60v-21.00" class="stroke"/>
<path class="fill"
	d="M543.30 606.60c0.6 5.6 9.6 9 5.6 18.4
	1.6 -6 -1.3 -11.6 -5.6 -12.8
"/>
<use x="574.10" y="600.60" xlink:href="#hd"/>
<path d="M570.60 600.60v21.00" class="stroke"/>
<path class="fill"
	d="M570.60 621.60c0.6 -5.6 9.6 -9 5.6 -18.4
	1.6 6 -1.3 11.6 -5.6 12.8
"/>
<defs>
<path id="hl1" class="stroke" d="m-7 0h14"/>
</defs>
<use x="624.60" y="633.60" xlink:href="#hl1"/>
<use x="624.60" y="639.60" xlink:href="#hl1"/>
<use x="624.60" y="645.60" xlink:href="#hl1"/>
<use x="624.60" y="648.60" xlink:href="#HD"/>
<use x="624.60" y="627.60" xlink:href="#HD"/>
<use x="624.60" y="621.60" xlink:href="#HD"/>
<use x="624.60" y="615.60" xlink:href="#HD"/>
<use x="624.60" y="609.60" xlink:href="#HD"/>
<defs>
<g id="hld" class="fill">
	<circle cx="0" cy="-3" r="1.3"/>
	<path d="m-7.5 -1.5
		c0 -11.5 15 -11.5 15 0
		h-0.25
		c-1.25 -9 -13.25 -9 -14.5 0"/>
</g>
</defs>
<use x="623.60" y="518.60" xlink:href="#hld"/>
<g transform="rotate(270)">
<use x="-548.60" y="611.10" xlink:href="#ltr"/>
<use x="-542.60" y="611.10" xlink:href="#ltr"/>
<use x="-536.60" y="611.10" xlink:href="#ltr"/>
<use x="-530.60" y="611.10" xlink:href="#ltr"/>
<use x="-524.60" y="611.10" xlink:href="#ltr"/>
</g>
<use x="623.60" y="601.60" xlink:href="#hld"/>
<g transform="rotate(270)">
<use x="-651.60" y="611.10" xlink:href="#ltr"/>
<use x="-645.60" y="611.10" xlink:href="#ltr"/>
<use x="-639.60" y="611.10" xlink:href="#ltr"/>
<use x="-633.60" y="611.10" xlink:href="#ltr"/>
<use x="-627.60" y="611.10" xlink:href="#ltr"/>
<use x="-621.60" y="611.10" xlink:href="#ltr"/>
<use x="-615.60" y="611.10" xlink:href="#ltr"/>
<use x="-609.60" y="611.10" xlink:href="#ltr"/>
</g>
</g>
</svg>
