<?xml version="1.0" standalone="no"?>
<!DOCTYPE svg PUBLIC "-//W3C//DTD SVG 1.1//EN"
	"http://www.w3.org/Graphics/SVG/1.1/DTD/svg11.dtd">
<svg xmlns="http://www.w3.org/2000/svg" version="1.1"
	xmlns:xlink="http://www.w3.org/1999/xlink"
	color="black"
	width="701.60px" height="1259.80px" viewBox="0 0 701.60 1259.80" preserveAspectRatio="xMidYMid meet">
<style type="text/css">
.fill {fill: currentColor}
.stroke {stroke: currentColor; fill: none}
text{white-space: pre}
</style>
<title>/tmp/boddie_hymnal_stage/i_place_my_trust_in_god.abc (1) tune 1</title>
<!-- Creator: abcm2ps-8.14.11 -->
<!-- CreationDate: Apr 30, 2026 12:59 -->
<!-- CommandLine: /tmp/boddie_hymnal_stage/i_place_my_trust_in_god.abc -g -O /tmp/boddie_hymnal_stage/i_place_my_trust_in_god -->
<g stroke-width="0.70">
<!-- title: 106. I Place My Trust In God -->
</g>
<g stroke-width="0.70" style="font:20.00px Times">
<text x="350.80" y="22.00" text-anchor="middle">106. I Place My Trust In God</text>
</g>
<g stroke-width="0.70" transform="scale(0.700)" style="font:20.00px Times">
<defs>
<ellipse id="hd" rx="4.1" ry="2.9"
	transform="rotate(-20)" class="fill"/>
</defs>
<use x="110.86" y="75.57" xlink:href="#hd"/>
<path d="M114.36 75.57v-21.00" class="stroke"/>
</g>
<g stroke-width="0.70" style="font:bold 15.00px Times">
<text x="85.30" y="55.00">= 72Slowly, with great expression</text>
<path class="stroke" stroke-width="1"
	d="M10.00 180.40v-97.00"/>
<defs>
<path id="brace" class="fill" d="m-2.5 101
	c-4.5 -4.6 -7.5 -12.2 -4.4 -26.8
	3.5 -14.3 3.2 -21.7 -2.1 -24.2
	7.4 2.4 7.3 14.2 3.5 29.5
	-2.7 9.5 -1.5 16.2 3 21.5
	M-2.5 1c-4.5 4.6 -7.5 12.2 -4.4 26.8
	c3.5 14.3 3.2 21.7 -2.1 24.2
	7.4 -2.4 7.3 -14.2 3.5 -29.5
	-2.7 -9.5 -1.5 -16.2 3 -21.5"/>
</defs>
<g transform="translate(10.00,83.40) scale(1,0.97)">
	<use xlink:href="#brace"/>
</g>
<path class="stroke" stroke-width="1"
	d="M202.00 107.40v-24.00"/>
<path class="stroke" stroke-width="1"
	d="M202.00 180.40v-24.00"/>
<path class="stroke" stroke-width="1"
	d="M278.30 107.40v-24.00"/>
<path class="stroke" stroke-width="1"
	d="M278.30 180.40v-24.00"/>
<path class="stroke" stroke-width="1"
	d="M448.20 107.40v-24.00"/>
<path class="stroke" stroke-width="1"
	d="M448.20 180.40v-24.00"/>
<path class="stroke" stroke-width="1"
	d="M554.10 107.40v-24.00"/>
<path class="stroke" stroke-width="1"
	d="M554.10 180.40v-24.00"/>
<path class="stroke" stroke-width="1"
	d="M691.60 107.40v-24.00"/>
<path class="stroke" stroke-width="1"
	d="M691.60 180.40v-24.00"/>
<path d="m10.00 107.40
	h681.60
	M10.00 101.40
	h681.60
	M10.00 95.40
	h681.60
	M10.00 89.40
	h681.60
	M10.00 83.40
	h681.60
	" class="stroke"/>
<path d="m10.00 180.40
	h681.60
	M10.00 174.40
	h681.60
	M10.00 168.40
	h681.60
	M10.00 162.40
	h681.60
	M10.00 156.40
	h681.60
	" class="stroke"/>
</g>
<g stroke-width="0.70" style="font:bold 13.00px Times">
<text x="71.30" y="76.80">I<tspan
	 style="font:italic 11.00px Times">Δ⁷</tspan></text>
</g>
<g stroke-width="0.70" style="font:bold 13.00px Times">
<text x="221.10" y="68.80">V<tspan
	 style="font:italic 11.00px Times">⁷</tspan></text>
</g>
<g stroke-width="0.70" style="font:bold 13.00px Times">
<text x="285.60" y="78.80">I<tspan
	 style="font:italic 11.00px Times">Δ⁷</tspan></text>
</g>
<g stroke-width="0.70" style="font:bold 13.00px Times">
<text x="454.90" y="73.80">I<tspan
	 style="font:italic 11.00px Times">Δ⁷</tspan></text>
</g>
<g stroke-width="0.70" style="font:bold 13.00px Times">
<text x="559.00" y="76.80">I<tspan
	 style="font:italic 11.00px Times">Δ⁷¹</tspan></text>
</g>
<g stroke-width="0.70" style="font:italic 11.00px Times">
<defs>
<path id="utclef" class="fill" d="m-50 -90
	c-72 -41 -72 -158 52 -188
	150 -10 220 188 90 256
	-114 52 -275 0 -293 -136
	-15 -181 93 -229 220 -334
	88 -87 79 -133 62 -210
	-51 33 -94 105 -89 186
	17 267 36 374 49 574
	6 96 -19 134 -77 135
	-80 1 -126 -93 -61 -133
	85 -41 133 101 31 105
	23 17 92 37 90 -92
	-10 -223 -39 -342 -50 -617
	0 -90 0 -162 96 -232
	56 72 63 230 22 289
	-74 106 -257 168 -255 316
	9 153 148 185 252 133
	86 -65 29 -192 -80 -176
	-71 12 -105 67 -59 124"/>
<use id="tclef" transform="translate(0,6) scale(0.045)"
	xlink:href="#utclef"/>
</defs>
<use x="22.00" y="101.40" xlink:href="#tclef"/>
<defs>
<path id="uflat" class="fill" d="
	m100 -746
	h32
	v734
	l-32 4
	m32 -332
	c46 -72 152 -90 208 -20
	100 110 -120 326 -208 348
	m0 -28
	c54 0 200 -206 130 -290
	-50 -60 -130 -4 -130 34"/>
<use id="ft0" transform="translate(-3.5,3.5) scale(0.018)"
	xlink:href="#uflat"/>
</defs>
<use x="37.00" y="95.40" xlink:href="#ft0"/>
<use x="42.50" y="86.40" xlink:href="#ft0"/>
<g style="font:bold 16px serif"
	transform="translate(58.50,106.90) scale(1.2,1)">
	<text text-anchor="middle">2</text>
	<text y="-12" text-anchor="middle">2</text>
</g>
<defs>
<path id="Hd" class="fill" d="m3 -1.6
	c-1 -1.8 -7 1.4 -6 3.2
	1 1.8 7 -1.4 6 -3.2
	m0.5 -0.3
	c2 3.8 -5 7.6 -7 3.8
	-2 -3.8 5 -7.6 7 -3.8"/>
</defs>
<use x="77.00" y="104.40" xlink:href="#Hd"/>
<path d="M80.50 104.40v-21.00" class="stroke"/>
<use x="142.00" y="101.40" xlink:href="#Hd"/>
<path d="M145.50 101.40v-21.00" class="stroke"/>
<defs>
<path id="hl" class="stroke" d="m-6 0h12"/>
</defs>
<use x="227.00" y="77.40" xlink:href="#hl"/>
<use x="227.00" y="77.40" xlink:href="#Hd"/>
<path d="M223.50 77.40v40.00" class="stroke"/>
<use x="227.00" y="98.40" xlink:href="#Hd"/>
<use x="256.40" y="77.40" xlink:href="#hl"/>
<use x="256.40" y="74.40" xlink:href="#Hd"/>
<path d="M252.90 74.40v40.00" class="stroke"/>
<use x="256.40" y="95.40" xlink:href="#Hd"/>
<use x="291.30" y="95.40" xlink:href="#Hd"/>
<path d="M287.80 95.40v21.00" class="stroke"/>
<use x="356.40" y="95.40" xlink:href="#Hd"/>
<circle class="fill" cx="365.10" cy="92.40" r="1.2"/>
<path d="M352.90 95.40v21.00" class="stroke"/>
<use x="460.70" y="101.40" xlink:href="#hd"/>
<path d="M464.20 101.40v-21.00" class="stroke"/>
<use x="493.80" y="104.40" xlink:href="#Hd"/>
<path d="M497.30 104.40v-21.00" class="stroke"/>
<use x="566.60" y="104.40" xlink:href="#hd"/>
<path d="M570.10 104.40v-21.00" class="stroke"/>
<use x="599.80" y="101.40" xlink:href="#hd"/>
<path d="M603.30 101.40v-21.00" class="stroke"/>
<use x="631.70" y="95.40" xlink:href="#Hd"/>
<path d="M635.20 95.40v-21.00" class="stroke"/>
<defs>
<path id="ubclef" class="fill" d="m-200 -87
	c124 -35 222 -78 254 -236
	43 -228 -167 -246 -192 -103
	59 -80 157 22 92 78
	-62 47 -115 -22 -106 -88
	21 -141 270 -136 274 52
	-1 175 -106 264 -322 297
	m357 -250
	c0 -36 51 -34 51 0
	0 37 -51 36 -51 0
	m-2 -129
	c0 -36 51 -34 51 0
	0 38 -51 37 -51 0"/>
<use id="bclef" transform="translate(0,18) scale(0.045)"
	xlink:href="#ubclef"/>
</defs>
<use x="22.00" y="162.40" xlink:href="#bclef"/>
<use x="37.00" y="174.40" xlink:href="#ft0"/>
<use x="42.50" y="165.40" xlink:href="#ft0"/>
<g style="font:bold 16px serif"
	transform="translate(58.50,179.90) scale(1.2,1)">
	<text text-anchor="middle">2</text>
	<text y="-12" text-anchor="middle">2</text>
</g>
<use x="77.00" y="186.40" xlink:href="#hl"/>
<use x="77.00" y="192.40" xlink:href="#hl"/>
<use x="77.00" y="195.40" xlink:href="#hd"/>
<path d="M80.50 195.40v-40.00" class="stroke"/>
<path class="fill"
	d="M80.50 155.40c0.6 5.6 9.6 9 5.6 18.4
	1.6 -6 -1.3 -11.6 -5.6 -12.8
"/>
<use x="77.00" y="174.40" xlink:href="#hd"/>
<use x="94.20" y="150.40" xlink:href="#hl"/>
<use x="94.20" y="147.40" xlink:href="#hd"/>
<path d="M90.70 147.40v21.00" class="stroke"/>
<path class="fill"
	d="M90.70 168.40c0.6 -5.6 9.6 -9 5.6 -18.4
	1.6 6 -1.3 11.6 -5.6 12.8
"/>
<use x="110.20" y="150.40" xlink:href="#hl"/>
<use x="110.20" y="144.40" xlink:href="#hl"/>
<use x="110.20" y="141.40" xlink:href="#hd"/>
<path d="M106.70 141.40v27.00" class="stroke"/>
<path class="fill"
	d="M106.70 168.40c0.6 -5.6 9.6 -9 5.6 -18.4
	1.6 6 -1.3 11.6 -5.6 12.8
"/>
<use x="126.10" y="150.40" xlink:href="#hl"/>
<use x="126.10" y="144.40" xlink:href="#hl"/>
<use x="126.10" y="138.40" xlink:href="#hl"/>
<use x="126.10" y="135.40" xlink:href="#hd"/>
<path d="M122.60 135.40v33.00" class="stroke"/>
<path class="fill"
	d="M122.60 168.40c0.6 -5.6 9.6 -9 5.6 -18.4
	1.6 6 -1.3 11.6 -5.6 12.8
"/>
<use x="142.00" y="150.40" xlink:href="#hl"/>
<use x="142.00" y="144.40" xlink:href="#hl"/>
<use x="142.00" y="138.40" xlink:href="#hl"/>
<use x="142.00" y="132.40" xlink:href="#hl"/>
<use x="142.00" y="132.40" xlink:href="#hd"/>
<path d="M138.50 132.40v36.00" class="stroke"/>
<path class="fill"
	d="M138.50 168.40c0.6 -5.6 9.6 -9 5.6 -18.4
	1.6 6 -1.3 11.6 -5.6 12.8
"/>
<use x="158.00" y="150.40" xlink:href="#hl"/>
<use x="158.00" y="144.40" xlink:href="#hl"/>
<use x="158.00" y="138.40" xlink:href="#hl"/>
<use x="158.00" y="132.40" xlink:href="#hl"/>
<use x="158.00" y="126.40" xlink:href="#hl"/>
<use x="158.00" y="126.40" xlink:href="#hd"/>
<path d="M154.50 126.40v42.00" class="stroke"/>
<path class="fill"
	d="M154.50 168.40c0.6 -5.6 9.6 -9 5.6 -18.4
	1.6 6 -1.3 11.6 -5.6 12.8
"/>
<use x="172.20" y="174.40" xlink:href="#hd"/>
<path d="M175.70 174.40v-21.00" class="stroke"/>
<path class="fill"
	d="M175.70 153.40c0.6 5.6 9.6 9 5.6 18.4
	1.6 -6 -1.3 -11.6 -5.6 -12.8
"/>
<use x="189.50" y="150.40" xlink:href="#hl"/>
<use x="189.50" y="147.40" xlink:href="#hd"/>
<path d="M186.00 147.40v21.00" class="stroke"/>
<path class="fill"
	d="M186.00 168.40c0.6 -5.6 9.6 -9 5.6 -18.4
	1.6 6 -1.3 11.6 -5.6 12.8
"/>
<defs>
<path id="hl1" class="stroke" d="m-7 0h14"/>
</defs>
<use x="228.00" y="150.40" xlink:href="#hl1"/>
<use x="228.00" y="144.40" xlink:href="#hl1"/>
<defs>
<path id="HD" class="fill" d="m-2.7 -1.4
	c1.5 -2.8 6.9 0 5.3 2.7
	-1.5 2.8 -6.9 0 -5.3 -2.7
	m8.3 1.4
	c0 -1.5 -2.2 -3 -5.6 -3
	-3.4 0 -5.6 1.5 -5.6 3
	0 1.5 2.2 3 5.6 3
	3.4 0 5.6 -1.5 5.6 -3"/>
</defs>
<use x="228.00" y="144.40" xlink:href="#HD"/>
<use x="228.00" y="162.40" xlink:href="#HD"/>
<use x="228.00" y="156.40" xlink:href="#HD"/>
<use x="228.00" y="150.40" xlink:href="#HD"/>
<use x="291.30" y="186.40" xlink:href="#hl"/>
<use x="291.30" y="192.40" xlink:href="#hl"/>
<use x="291.30" y="195.40" xlink:href="#hd"/>
<path d="M294.80 195.40v-40.00" class="stroke"/>
<path class="fill"
	d="M294.80 155.40c0.6 5.6 9.6 9 5.6 18.4
	1.6 -6 -1.3 -11.6 -5.6 -12.8
"/>
<use x="291.30" y="174.40" xlink:href="#hd"/>
<use x="308.60" y="150.40" xlink:href="#hl"/>
<use x="308.60" y="147.40" xlink:href="#hd"/>
<path d="M305.10 147.40v21.00" class="stroke"/>
<path class="fill"
	d="M305.10 168.40c0.6 -5.6 9.6 -9 5.6 -18.4
	1.6 6 -1.3 11.6 -5.6 12.8
"/>
<use x="324.50" y="150.40" xlink:href="#hl"/>
<use x="324.50" y="144.40" xlink:href="#hl"/>
<use x="324.50" y="141.40" xlink:href="#hd"/>
<path d="M321.00 141.40v27.00" class="stroke"/>
<path class="fill"
	d="M321.00 168.40c0.6 -5.6 9.6 -9 5.6 -18.4
	1.6 6 -1.3 11.6 -5.6 12.8
"/>
<use x="340.50" y="150.40" xlink:href="#hl"/>
<use x="340.50" y="144.40" xlink:href="#hl"/>
<use x="340.50" y="138.40" xlink:href="#hl"/>
<use x="340.50" y="135.40" xlink:href="#hd"/>
<path d="M337.00 135.40v33.00" class="stroke"/>
<path class="fill"
	d="M337.00 168.40c0.6 -5.6 9.6 -9 5.6 -18.4
	1.6 6 -1.3 11.6 -5.6 12.8
"/>
<use x="356.40" y="150.40" xlink:href="#hl"/>
<use x="356.40" y="144.40" xlink:href="#hl"/>
<use x="356.40" y="138.40" xlink:href="#hl"/>
<use x="356.40" y="132.40" xlink:href="#hl"/>
<use x="356.40" y="132.40" xlink:href="#hd"/>
<path d="M352.90 132.40v36.00" class="stroke"/>
<path class="fill"
	d="M352.90 168.40c0.6 -5.6 9.6 -9 5.6 -18.4
	1.6 6 -1.3 11.6 -5.6 12.8
"/>
<use x="372.30" y="150.40" xlink:href="#hl"/>
<use x="372.30" y="144.40" xlink:href="#hl"/>
<use x="372.30" y="138.40" xlink:href="#hl"/>
<use x="372.30" y="132.40" xlink:href="#hl"/>
<use x="372.30" y="126.40" xlink:href="#hl"/>
<use x="372.30" y="126.40" xlink:href="#hd"/>
<path d="M368.80 126.40v42.00" class="stroke"/>
<path class="fill"
	d="M368.80 168.40c0.6 -5.6 9.6 -9 5.6 -18.4
	1.6 6 -1.3 11.6 -5.6 12.8
"/>
<use x="386.60" y="174.40" xlink:href="#hd"/>
<path d="M390.10 174.40v-21.00" class="stroke"/>
<path class="fill"
	d="M390.10 153.40c0.6 5.6 9.6 9 5.6 18.4
	1.6 -6 -1.3 -11.6 -5.6 -12.8
"/>
<use x="403.80" y="150.40" xlink:href="#hl"/>
<use x="403.80" y="147.40" xlink:href="#hd"/>
<path d="M400.30 147.40v21.00" class="stroke"/>
<path class="fill"
	d="M400.30 168.40c0.6 -5.6 9.6 -9 5.6 -18.4
	1.6 6 -1.3 11.6 -5.6 12.8
"/>
<use x="419.70" y="150.40" xlink:href="#hl"/>
<use x="419.70" y="144.40" xlink:href="#hl"/>
<use x="419.70" y="141.40" xlink:href="#hd"/>
<path d="M416.20 141.40v27.00" class="stroke"/>
<path class="fill"
	d="M416.20 168.40c0.6 -5.6 9.6 -9 5.6 -18.4
	1.6 6 -1.3 11.6 -5.6 12.8
"/>
<use x="435.70" y="150.40" xlink:href="#hl"/>
<use x="435.70" y="144.40" xlink:href="#hl"/>
<use x="435.70" y="138.40" xlink:href="#hl"/>
<use x="435.70" y="135.40" xlink:href="#hd"/>
<path d="M432.20 135.40v33.00" class="stroke"/>
<path class="fill"
	d="M432.20 168.40c0.6 -5.6 9.6 -9 5.6 -18.4
	1.6 6 -1.3 11.6 -5.6 12.8
"/>
<use x="460.70" y="174.40" xlink:href="#hd"/>
<path d="M464.20 174.40v-21.00" class="stroke"/>
<path class="fill"
	d="M464.20 153.40c0.6 5.6 9.6 9 5.6 18.4
	1.6 -6 -1.3 -11.6 -5.6 -12.8
"/>
<use x="477.90" y="150.40" xlink:href="#hl"/>
<use x="477.90" y="147.40" xlink:href="#hd"/>
<path d="M474.40 147.40v21.00" class="stroke"/>
<path class="fill"
	d="M474.40 168.40c0.6 -5.6 9.6 -9 5.6 -18.4
	1.6 6 -1.3 11.6 -5.6 12.8
"/>
<use x="493.80" y="150.40" xlink:href="#hl"/>
<use x="493.80" y="144.40" xlink:href="#hl"/>
<use x="493.80" y="141.40" xlink:href="#hd"/>
<path d="M490.30 141.40v27.00" class="stroke"/>
<path class="fill"
	d="M490.30 168.40c0.6 -5.6 9.6 -9 5.6 -18.4
	1.6 6 -1.3 11.6 -5.6 12.8
"/>
<use x="509.80" y="150.40" xlink:href="#hl"/>
<use x="509.80" y="144.40" xlink:href="#hl"/>
<use x="509.80" y="138.40" xlink:href="#hl"/>
<use x="509.80" y="135.40" xlink:href="#hd"/>
<path d="M506.30 135.40v33.00" class="stroke"/>
<path class="fill"
	d="M506.30 168.40c0.6 -5.6 9.6 -9 5.6 -18.4
	1.6 6 -1.3 11.6 -5.6 12.8
"/>
<use x="525.70" y="150.40" xlink:href="#hl"/>
<use x="525.70" y="144.40" xlink:href="#hl"/>
<use x="525.70" y="138.40" xlink:href="#hl"/>
<use x="525.70" y="132.40" xlink:href="#hl"/>
<use x="525.70" y="132.40" xlink:href="#hd"/>
<path d="M522.20 132.40v36.00" class="stroke"/>
<path class="fill"
	d="M522.20 168.40c0.6 -5.6 9.6 -9 5.6 -18.4
	1.6 6 -1.3 11.6 -5.6 12.8
"/>
<use x="541.60" y="150.40" xlink:href="#hl"/>
<use x="541.60" y="144.40" xlink:href="#hl"/>
<use x="541.60" y="138.40" xlink:href="#hl"/>
<use x="541.60" y="132.40" xlink:href="#hl"/>
<use x="541.60" y="126.40" xlink:href="#hl"/>
<use x="541.60" y="126.40" xlink:href="#hd"/>
<path d="M538.10 126.40v42.00" class="stroke"/>
<path class="fill"
	d="M538.10 168.40c0.6 -5.6 9.6 -9 5.6 -18.4
	1.6 6 -1.3 11.6 -5.6 12.8
"/>
<use x="566.60" y="174.40" xlink:href="#hd"/>
<path d="M570.10 174.40v-21.00" class="stroke"/>
<path class="fill"
	d="M570.10 153.40c0.6 5.6 9.6 9 5.6 18.4
	1.6 -6 -1.3 -11.6 -5.6 -12.8
"/>
<use x="583.90" y="150.40" xlink:href="#hl"/>
<use x="583.90" y="147.40" xlink:href="#hd"/>
<path d="M580.40 147.40v21.00" class="stroke"/>
<path class="fill"
	d="M580.40 168.40c0.6 -5.6 9.6 -9 5.6 -18.4
	1.6 6 -1.3 11.6 -5.6 12.8
"/>
<use x="599.80" y="150.40" xlink:href="#hl"/>
<use x="599.80" y="144.40" xlink:href="#hl"/>
<use x="599.80" y="141.40" xlink:href="#hd"/>
<path d="M596.30 141.40v27.00" class="stroke"/>
<path class="fill"
	d="M596.30 168.40c0.6 -5.6 9.6 -9 5.6 -18.4
	1.6 6 -1.3 11.6 -5.6 12.8
"/>
<use x="615.80" y="150.40" xlink:href="#hl"/>
<use x="615.80" y="144.40" xlink:href="#hl"/>
<use x="615.80" y="138.40" xlink:href="#hl"/>
<use x="615.80" y="135.40" xlink:href="#hd"/>
<path d="M612.30 135.40v33.00" class="stroke"/>
<path class="fill"
	d="M612.30 168.40c0.6 -5.6 9.6 -9 5.6 -18.4
	1.6 6 -1.3 11.6 -5.6 12.8
"/>
<use x="631.70" y="150.40" xlink:href="#hl"/>
<use x="631.70" y="144.40" xlink:href="#hl"/>
<use x="631.70" y="138.40" xlink:href="#hl"/>
<use x="631.70" y="132.40" xlink:href="#hl"/>
<use x="631.70" y="132.40" xlink:href="#hd"/>
<path d="M628.20 132.40v36.00" class="stroke"/>
<path class="fill"
	d="M628.20 168.40c0.6 -5.6 9.6 -9 5.6 -18.4
	1.6 6 -1.3 11.6 -5.6 12.8
"/>
<use x="647.60" y="150.40" xlink:href="#hl"/>
<use x="647.60" y="144.40" xlink:href="#hl"/>
<use x="647.60" y="138.40" xlink:href="#hl"/>
<use x="647.60" y="132.40" xlink:href="#hl"/>
<use x="647.60" y="126.40" xlink:href="#hl"/>
<use x="647.60" y="126.40" xlink:href="#hd"/>
<path d="M644.10 126.40v42.00" class="stroke"/>
<path class="fill"
	d="M644.10 168.40c0.6 -5.6 9.6 -9 5.6 -18.4
	1.6 6 -1.3 11.6 -5.6 12.8
"/>
<use x="661.90" y="174.40" xlink:href="#hd"/>
<path d="M665.40 174.40v-21.00" class="stroke"/>
<path class="fill"
	d="M665.40 153.40c0.6 5.6 9.6 9 5.6 18.4
	1.6 -6 -1.3 -11.6 -5.6 -12.8
"/>
<use x="679.10" y="150.40" xlink:href="#hl"/>
<use x="679.10" y="147.40" xlink:href="#hd"/>
<path d="M675.60 147.40v21.00" class="stroke"/>
<path class="fill"
	d="M675.60 168.40c0.6 -5.6 9.6 -9 5.6 -18.4
	1.6 6 -1.3 11.6 -5.6 12.8
"/>
<defs>
<path id="ltr" class="fill"
    d="m0 -0.4c2 -1.5 3.4 -1.9 3.9 0.4
	c0.2 0.8 0.7 0.7 2.1 -0.4
	v0.8c-2 1.5 -3.4 1.9 -3.9 -0.4
	c-0.2 -0.8 -0.7 -0.7 -2.1 0.4z"/>
</defs>
<g transform="rotate(270)">
<use x="-165.40" y="214.50" xlink:href="#ltr"/>
<use x="-159.40" y="214.50" xlink:href="#ltr"/>
<use x="-153.40" y="214.50" xlink:href="#ltr"/>
<use x="-147.40" y="214.50" xlink:href="#ltr"/>
</g>
<text x="283.50" y="74.40" style="font:bold italic 30px serif">,</text>
</g>
<g stroke-width="0.70" style="font:italic 11.00px Times">
<path class="stroke" stroke-width="1"
	d="M10.00 325.80v-97.00"/>
<g transform="translate(10.00,228.80) scale(1,0.97)">
	<use xlink:href="#brace"/>
</g>
<path class="stroke" stroke-width="1"
	d="M208.70 252.80v-24.00"/>
<path class="stroke" stroke-width="1"
	d="M208.70 325.80v-24.00"/>
<path class="stroke" stroke-width="1"
	d="M407.80 252.80v-24.00"/>
<path class="stroke" stroke-width="1"
	d="M407.80 325.80v-24.00"/>
<path class="stroke" stroke-width="1"
	d="M530.90 252.80v-24.00"/>
<path class="stroke" stroke-width="1"
	d="M530.90 325.80v-24.00"/>
<path class="stroke" stroke-width="1"
	d="M691.60 252.80v-24.00"/>
<path class="stroke" stroke-width="1"
	d="M691.60 325.80v-24.00"/>
<path d="m10.00 252.80
	h681.60
	M10.00 246.80
	h681.60
	M10.00 240.80
	h681.60
	M10.00 234.80
	h681.60
	M10.00 228.80
	h681.60
	" class="stroke"/>
<path d="m10.00 325.80
	h681.60
	M10.00 319.80
	h681.60
	M10.00 313.80
	h681.60
	M10.00 307.80
	h681.60
	M10.00 301.80
	h681.60
	" class="stroke"/>
</g>
<g stroke-width="0.70" style="font:bold 13.00px Times">
<text x="55.30" y="213.20">I<tspan
	 style="font:italic 11.00px Times">Δ⁷</tspan></text>
</g>
<g stroke-width="0.70" style="font:bold 13.00px Times">
<text x="215.90" y="224.20">I<tspan
	 style="font:italic 11.00px Times">Δ⁷</tspan></text>
</g>
<g stroke-width="0.70" style="font:bold 13.00px Times">
<text x="414.60" y="219.20">I<tspan
	 style="font:italic 11.00px Times">Δ⁷</tspan></text>
</g>
<g stroke-width="0.70" style="font:bold 13.00px Times">
<text x="536.30" y="222.20">I<tspan
	 style="font:italic 11.00px Times">Δ⁷¹</tspan></text>
</g>
<g stroke-width="0.70" style="font:italic 11.00px Times">
<use x="22.00" y="246.80" xlink:href="#tclef"/>
<use x="37.00" y="240.80" xlink:href="#ft0"/>
<use x="42.50" y="231.80" xlink:href="#ft0"/>
<use x="61.00" y="240.80" xlink:href="#Hd"/>
<path d="M64.50 240.80v-21.00" class="stroke"/>
<use x="138.50" y="234.80" xlink:href="#Hd"/>
<path d="M135.00 234.80v21.00" class="stroke"/>
<use x="221.70" y="234.80" xlink:href="#Hd"/>
<path d="M218.20 234.80v21.00" class="stroke"/>
<use x="299.10" y="240.80" xlink:href="#Hd"/>
<circle class="fill" cx="307.80" cy="237.80" r="1.2"/>
<path d="M295.60 240.80v21.00" class="stroke"/>
<use x="420.30" y="246.80" xlink:href="#hd"/>
<path d="M423.80 246.80v-21.00" class="stroke"/>
<use x="459.30" y="249.80" xlink:href="#Hd"/>
<path d="M462.80 249.80v-21.00" class="stroke"/>
<use x="543.90" y="249.80" xlink:href="#Hd"/>
<path d="M547.40 249.80v-21.00" class="stroke"/>
<use x="621.40" y="246.80" xlink:href="#Hd"/>
<path d="M624.90 246.80v-21.00" class="stroke"/>
<use x="22.00" y="307.80" xlink:href="#bclef"/>
<use x="37.00" y="319.80" xlink:href="#ft0"/>
<use x="42.50" y="310.80" xlink:href="#ft0"/>
<use x="61.00" y="319.80" xlink:href="#hd"/>
<path d="M64.50 319.80v-21.00" class="stroke"/>
<path class="fill"
	d="M64.50 298.80c0.6 5.6 9.6 9 5.6 18.4
	1.6 -6 -1.3 -11.6 -5.6 -12.8
"/>
<use x="80.80" y="295.80" xlink:href="#hl"/>
<use x="80.80" y="292.80" xlink:href="#hd"/>
<path d="M77.30 292.80v21.00" class="stroke"/>
<path class="fill"
	d="M77.30 313.80c0.6 -5.6 9.6 -9 5.6 -18.4
	1.6 6 -1.3 11.6 -5.6 12.8
"/>
<use x="100.00" y="295.80" xlink:href="#hl"/>
<use x="100.00" y="289.80" xlink:href="#hl"/>
<use x="100.00" y="286.80" xlink:href="#hd"/>
<path d="M96.50 286.80v27.00" class="stroke"/>
<path class="fill"
	d="M96.50 313.80c0.6 -5.6 9.6 -9 5.6 -18.4
	1.6 6 -1.3 11.6 -5.6 12.8
"/>
<use x="119.20" y="295.80" xlink:href="#hl"/>
<use x="119.20" y="289.80" xlink:href="#hl"/>
<use x="119.20" y="283.80" xlink:href="#hl"/>
<use x="119.20" y="280.80" xlink:href="#hd"/>
<path d="M115.70 280.80v33.00" class="stroke"/>
<path class="fill"
	d="M115.70 313.80c0.6 -5.6 9.6 -9 5.6 -18.4
	1.6 6 -1.3 11.6 -5.6 12.8
"/>
<use x="138.50" y="295.80" xlink:href="#hl"/>
<use x="138.50" y="289.80" xlink:href="#hl"/>
<use x="138.50" y="283.80" xlink:href="#hl"/>
<use x="138.50" y="277.80" xlink:href="#hl"/>
<use x="138.50" y="277.80" xlink:href="#hd"/>
<path d="M135.00 277.80v36.00" class="stroke"/>
<path class="fill"
	d="M135.00 313.80c0.6 -5.6 9.6 -9 5.6 -18.4
	1.6 6 -1.3 11.6 -5.6 12.8
"/>
<use x="157.70" y="295.80" xlink:href="#hl"/>
<use x="157.70" y="289.80" xlink:href="#hl"/>
<use x="157.70" y="283.80" xlink:href="#hl"/>
<use x="157.70" y="277.80" xlink:href="#hl"/>
<use x="157.70" y="271.80" xlink:href="#hl"/>
<use x="157.70" y="271.80" xlink:href="#hd"/>
<path d="M154.20 271.80v42.00" class="stroke"/>
<path class="fill"
	d="M154.20 313.80c0.6 -5.6 9.6 -9 5.6 -18.4
	1.6 6 -1.3 11.6 -5.6 12.8
"/>
<use x="174.90" y="319.80" xlink:href="#hd"/>
<path d="M178.40 319.80v-21.00" class="stroke"/>
<path class="fill"
	d="M178.40 298.80c0.6 5.6 9.6 9 5.6 18.4
	1.6 -6 -1.3 -11.6 -5.6 -12.8
"/>
<use x="194.70" y="295.80" xlink:href="#hl"/>
<use x="194.70" y="292.80" xlink:href="#hd"/>
<path d="M191.20 292.80v21.00" class="stroke"/>
<path class="fill"
	d="M191.20 313.80c0.6 -5.6 9.6 -9 5.6 -18.4
	1.6 6 -1.3 11.6 -5.6 12.8
"/>
<use x="221.70" y="319.80" xlink:href="#hd"/>
<path d="M225.20 319.80v-21.00" class="stroke"/>
<path class="fill"
	d="M225.20 298.80c0.6 5.6 9.6 9 5.6 18.4
	1.6 -6 -1.3 -11.6 -5.6 -12.8
"/>
<use x="241.40" y="295.80" xlink:href="#hl"/>
<use x="241.40" y="292.80" xlink:href="#hd"/>
<path d="M237.90 292.80v21.00" class="stroke"/>
<path class="fill"
	d="M237.90 313.80c0.6 -5.6 9.6 -9 5.6 -18.4
	1.6 6 -1.3 11.6 -5.6 12.8
"/>
<use x="260.70" y="295.80" xlink:href="#hl"/>
<use x="260.70" y="289.80" xlink:href="#hl"/>
<use x="260.70" y="286.80" xlink:href="#hd"/>
<path d="M257.20 286.80v27.00" class="stroke"/>
<path class="fill"
	d="M257.20 313.80c0.6 -5.6 9.6 -9 5.6 -18.4
	1.6 6 -1.3 11.6 -5.6 12.8
"/>
<use x="279.90" y="295.80" xlink:href="#hl"/>
<use x="279.90" y="289.80" xlink:href="#hl"/>
<use x="279.90" y="283.80" xlink:href="#hl"/>
<use x="279.90" y="280.80" xlink:href="#hd"/>
<path d="M276.40 280.80v33.00" class="stroke"/>
<path class="fill"
	d="M276.40 313.80c0.6 -5.6 9.6 -9 5.6 -18.4
	1.6 6 -1.3 11.6 -5.6 12.8
"/>
<use x="299.10" y="295.80" xlink:href="#hl"/>
<use x="299.10" y="289.80" xlink:href="#hl"/>
<use x="299.10" y="283.80" xlink:href="#hl"/>
<use x="299.10" y="277.80" xlink:href="#hl"/>
<use x="299.10" y="277.80" xlink:href="#hd"/>
<path d="M295.60 277.80v36.00" class="stroke"/>
<path class="fill"
	d="M295.60 313.80c0.6 -5.6 9.6 -9 5.6 -18.4
	1.6 6 -1.3 11.6 -5.6 12.8
"/>
<use x="318.30" y="295.80" xlink:href="#hl"/>
<use x="318.30" y="289.80" xlink:href="#hl"/>
<use x="318.30" y="283.80" xlink:href="#hl"/>
<use x="318.30" y="277.80" xlink:href="#hl"/>
<use x="318.30" y="271.80" xlink:href="#hl"/>
<use x="318.30" y="271.80" xlink:href="#hd"/>
<path d="M314.80 271.80v42.00" class="stroke"/>
<path class="fill"
	d="M314.80 313.80c0.6 -5.6 9.6 -9 5.6 -18.4
	1.6 6 -1.3 11.6 -5.6 12.8
"/>
<use x="335.60" y="319.80" xlink:href="#hd"/>
<path d="M339.10 319.80v-21.00" class="stroke"/>
<path class="fill"
	d="M339.10 298.80c0.6 5.6 9.6 9 5.6 18.4
	1.6 -6 -1.3 -11.6 -5.6 -12.8
"/>
<use x="355.40" y="295.80" xlink:href="#hl"/>
<use x="355.40" y="292.80" xlink:href="#hd"/>
<path d="M351.90 292.80v21.00" class="stroke"/>
<path class="fill"
	d="M351.90 313.80c0.6 -5.6 9.6 -9 5.6 -18.4
	1.6 6 -1.3 11.6 -5.6 12.8
"/>
<use x="374.60" y="295.80" xlink:href="#hl"/>
<use x="374.60" y="289.80" xlink:href="#hl"/>
<use x="374.60" y="286.80" xlink:href="#hd"/>
<path d="M371.10 286.80v27.00" class="stroke"/>
<path class="fill"
	d="M371.10 313.80c0.6 -5.6 9.6 -9 5.6 -18.4
	1.6 6 -1.3 11.6 -5.6 12.8
"/>
<use x="393.80" y="295.80" xlink:href="#hl"/>
<use x="393.80" y="289.80" xlink:href="#hl"/>
<use x="393.80" y="283.80" xlink:href="#hl"/>
<use x="393.80" y="280.80" xlink:href="#hd"/>
<path d="M390.30 280.80v33.00" class="stroke"/>
<path class="fill"
	d="M390.30 313.80c0.6 -5.6 9.6 -9 5.6 -18.4
	1.6 6 -1.3 11.6 -5.6 12.8
"/>
<use x="420.30" y="319.80" xlink:href="#hd"/>
<path d="M423.80 319.80v-21.00" class="stroke"/>
<path class="fill"
	d="M423.80 298.80c0.6 5.6 9.6 9 5.6 18.4
	1.6 -6 -1.3 -11.6 -5.6 -12.8
"/>
<use x="440.10" y="295.80" xlink:href="#hl"/>
<use x="440.10" y="292.80" xlink:href="#hd"/>
<path d="M436.60 292.80v21.00" class="stroke"/>
<path class="fill"
	d="M436.60 313.80c0.6 -5.6 9.6 -9 5.6 -18.4
	1.6 6 -1.3 11.6 -5.6 12.8
"/>
<use x="459.30" y="295.80" xlink:href="#hl"/>
<use x="459.30" y="289.80" xlink:href="#hl"/>
<use x="459.30" y="286.80" xlink:href="#hd"/>
<path d="M455.80 286.80v27.00" class="stroke"/>
<path class="fill"
	d="M455.80 313.80c0.6 -5.6 9.6 -9 5.6 -18.4
	1.6 6 -1.3 11.6 -5.6 12.8
"/>
<use x="478.50" y="295.80" xlink:href="#hl"/>
<use x="478.50" y="289.80" xlink:href="#hl"/>
<use x="478.50" y="283.80" xlink:href="#hl"/>
<use x="478.50" y="280.80" xlink:href="#hd"/>
<path d="M475.00 280.80v33.00" class="stroke"/>
<path class="fill"
	d="M475.00 313.80c0.6 -5.6 9.6 -9 5.6 -18.4
	1.6 6 -1.3 11.6 -5.6 12.8
"/>
<use x="497.70" y="295.80" xlink:href="#hl"/>
<use x="497.70" y="289.80" xlink:href="#hl"/>
<use x="497.70" y="283.80" xlink:href="#hl"/>
<use x="497.70" y="277.80" xlink:href="#hl"/>
<use x="497.70" y="277.80" xlink:href="#hd"/>
<path d="M494.20 277.80v36.00" class="stroke"/>
<path class="fill"
	d="M494.20 313.80c0.6 -5.6 9.6 -9 5.6 -18.4
	1.6 6 -1.3 11.6 -5.6 12.8
"/>
<use x="517.00" y="295.80" xlink:href="#hl"/>
<use x="517.00" y="289.80" xlink:href="#hl"/>
<use x="517.00" y="283.80" xlink:href="#hl"/>
<use x="517.00" y="277.80" xlink:href="#hl"/>
<use x="517.00" y="271.80" xlink:href="#hl"/>
<use x="517.00" y="271.80" xlink:href="#hd"/>
<path d="M513.50 271.80v42.00" class="stroke"/>
<path class="fill"
	d="M513.50 313.80c0.6 -5.6 9.6 -9 5.6 -18.4
	1.6 6 -1.3 11.6 -5.6 12.8
"/>
<use x="543.90" y="319.80" xlink:href="#hd"/>
<path d="M547.40 319.80v-21.00" class="stroke"/>
<path class="fill"
	d="M547.40 298.80c0.6 5.6 9.6 9 5.6 18.4
	1.6 -6 -1.3 -11.6 -5.6 -12.8
"/>
<use x="563.70" y="295.80" xlink:href="#hl"/>
<use x="563.70" y="292.80" xlink:href="#hd"/>
<path d="M560.20 292.80v21.00" class="stroke"/>
<path class="fill"
	d="M560.20 313.80c0.6 -5.6 9.6 -9 5.6 -18.4
	1.6 6 -1.3 11.6 -5.6 12.8
"/>
<use x="582.90" y="295.80" xlink:href="#hl"/>
<use x="582.90" y="289.80" xlink:href="#hl"/>
<use x="582.90" y="286.80" xlink:href="#hd"/>
<path d="M579.40 286.80v27.00" class="stroke"/>
<path class="fill"
	d="M579.40 313.80c0.6 -5.6 9.6 -9 5.6 -18.4
	1.6 6 -1.3 11.6 -5.6 12.8
"/>
<use x="602.20" y="295.80" xlink:href="#hl"/>
<use x="602.20" y="289.80" xlink:href="#hl"/>
<use x="602.20" y="283.80" xlink:href="#hl"/>
<use x="602.20" y="280.80" xlink:href="#hd"/>
<path d="M598.70 280.80v33.00" class="stroke"/>
<path class="fill"
	d="M598.70 313.80c0.6 -5.6 9.6 -9 5.6 -18.4
	1.6 6 -1.3 11.6 -5.6 12.8
"/>
<use x="621.40" y="295.80" xlink:href="#hl"/>
<use x="621.40" y="289.80" xlink:href="#hl"/>
<use x="621.40" y="283.80" xlink:href="#hl"/>
<use x="621.40" y="277.80" xlink:href="#hl"/>
<use x="621.40" y="277.80" xlink:href="#hd"/>
<path d="M617.90 277.80v36.00" class="stroke"/>
<path class="fill"
	d="M617.90 313.80c0.6 -5.6 9.6 -9 5.6 -18.4
	1.6 6 -1.3 11.6 -5.6 12.8
"/>
<use x="640.60" y="295.80" xlink:href="#hl"/>
<use x="640.60" y="289.80" xlink:href="#hl"/>
<use x="640.60" y="283.80" xlink:href="#hl"/>
<use x="640.60" y="277.80" xlink:href="#hl"/>
<use x="640.60" y="271.80" xlink:href="#hl"/>
<use x="640.60" y="271.80" xlink:href="#hd"/>
<path d="M637.10 271.80v42.00" class="stroke"/>
<path class="fill"
	d="M637.10 313.80c0.6 -5.6 9.6 -9 5.6 -18.4
	1.6 6 -1.3 11.6 -5.6 12.8
"/>
<use x="657.90" y="319.80" xlink:href="#hd"/>
<path d="M661.40 319.80v-21.00" class="stroke"/>
<path class="fill"
	d="M661.40 298.80c0.6 5.6 9.6 9 5.6 18.4
	1.6 -6 -1.3 -11.6 -5.6 -12.8
"/>
<use x="677.60" y="295.80" xlink:href="#hl"/>
<use x="677.60" y="292.80" xlink:href="#hd"/>
<path d="M674.10 292.80v21.00" class="stroke"/>
<path class="fill"
	d="M674.10 313.80c0.6 -5.6 9.6 -9 5.6 -18.4
	1.6 6 -1.3 11.6 -5.6 12.8
"/>
</g>
<g stroke-width="0.70" style="font:italic 11.00px Times">
<path class="stroke" stroke-width="1"
	d="M10.00 477.20v-95.00"/>
<g transform="translate(10.00,382.20) scale(1,0.95)">
	<use xlink:href="#brace"/>
</g>
<path class="stroke" stroke-width="1"
	d="M191.00 406.20v-24.00"/>
<path class="stroke" stroke-width="1"
	d="M191.00 477.20v-24.00"/>
<path class="stroke" stroke-width="1"
	d="M296.80 406.20v-24.00"/>
<path class="stroke" stroke-width="1"
	d="M296.80 477.20v-24.00"/>
<path class="stroke" stroke-width="1"
	d="M406.60 406.20v-24.00"/>
<path class="stroke" stroke-width="1"
	d="M406.60 477.20v-24.00"/>
<path class="stroke" stroke-width="1"
	d="M549.60 406.20v-24.00"/>
<path class="stroke" stroke-width="1"
	d="M549.60 477.20v-24.00"/>
<path class="stroke" stroke-width="1"
	d="M691.60 406.20v-24.00"/>
<path class="stroke" stroke-width="1"
	d="M691.60 477.20v-24.00"/>
<path d="m10.00 406.20
	h681.60
	M10.00 400.20
	h681.60
	M10.00 394.20
	h681.60
	M10.00 388.20
	h681.60
	M10.00 382.20
	h681.60
	" class="stroke"/>
<path d="m10.00 477.20
	h681.60
	M10.00 471.20
	h681.60
	M10.00 465.20
	h681.60
	M10.00 459.20
	h681.60
	M10.00 453.20
	h681.60
	" class="stroke"/>
</g>
<g stroke-width="0.70" style="font:bold 13.00px Times">
<text x="53.00" y="372.60">ii<tspan
	 style="font:italic 11.00px Times">m⁷</tspan></text>
</g>
<g stroke-width="0.70" style="font:bold 13.00px Times">
<text x="208.30" y="358.60">I<tspan
	 style="font:italic 11.00px Times">Δ⁷²</tspan></text>
</g>
<g stroke-width="0.70" style="font:bold 13.00px Times">
<text x="303.60" y="375.60">I<tspan
	 style="font:italic 11.00px Times">Δ⁷</tspan></text>
</g>
<g stroke-width="0.70" style="font:bold 13.00px Times">
<text x="413.90" y="375.60">I<tspan
	 style="font:italic 11.00px Times">Δ⁷</tspan></text>
</g>
<g stroke-width="0.70" style="font:bold 13.00px Times">
<text x="554.60" y="372.60">IV<tspan
	 style="font:italic 11.00px Times">Δ⁷</tspan></text>
</g>
<g stroke-width="0.70" style="font:italic 11.00px Times">
<use x="22.00" y="400.20" xlink:href="#tclef"/>
<use x="37.00" y="394.20" xlink:href="#ft0"/>
<use x="42.50" y="385.20" xlink:href="#ft0"/>
<use x="61.00" y="400.20" xlink:href="#Hd"/>
<path d="M64.50 400.20v-21.00" class="stroke"/>
<use x="128.90" y="400.20" xlink:href="#Hd"/>
<path d="M132.40 400.20v-21.00" class="stroke"/>
<use x="216.00" y="376.20" xlink:href="#hl"/>
<use x="216.00" y="370.20" xlink:href="#hl"/>
<use x="216.00" y="367.20" xlink:href="#Hd"/>
<path d="M212.50 367.20v40.00" class="stroke"/>
<use x="216.00" y="388.20" xlink:href="#Hd"/>
<use x="247.70" y="376.20" xlink:href="#hl"/>
<use x="247.70" y="373.20" xlink:href="#Hd"/>
<circle class="fill" cx="256.40" cy="373.20" r="1.2"/>
<path d="M244.20 373.20v40.00" class="stroke"/>
<use x="247.70" y="394.20" xlink:href="#Hd"/>
<circle class="fill" cx="256.40" cy="391.20" r="1.2"/>
<use x="309.30" y="394.20" xlink:href="#hd"/>
<path d="M305.80 394.20v21.00" class="stroke"/>
<use x="343.80" y="394.20" xlink:href="#Hd"/>
<path d="M340.30 394.20v21.00" class="stroke"/>
<use x="419.60" y="403.20" xlink:href="#Hd"/>
<path d="M423.10 403.20v-21.00" class="stroke"/>
<use x="487.50" y="400.20" xlink:href="#Hd"/>
<path d="M491.00 400.20v-21.00" class="stroke"/>
<use x="562.60" y="400.20" xlink:href="#Hd"/>
<path d="M566.10 400.20v-21.00" class="stroke"/>
<use x="629.30" y="397.20" xlink:href="#Hd"/>
<path d="M632.80 397.20v-21.00" class="stroke"/>
<use x="22.00" y="459.20" xlink:href="#bclef"/>
<use x="37.00" y="471.20" xlink:href="#ft0"/>
<use x="42.50" y="462.20" xlink:href="#ft0"/>
<use x="61.00" y="468.20" xlink:href="#hd"/>
<path d="M64.50 468.20v-21.00" class="stroke"/>
<path class="fill"
	d="M64.50 447.20c0.6 5.6 9.6 9 5.6 18.4
	1.6 -6 -1.3 -11.6 -5.6 -12.8
"/>
<use x="78.70" y="447.20" xlink:href="#hl"/>
<use x="78.70" y="441.20" xlink:href="#hl"/>
<use x="78.70" y="441.20" xlink:href="#hd"/>
<path d="M75.20 441.20v24.00" class="stroke"/>
<path class="fill"
	d="M75.20 465.20c0.6 -5.6 9.6 -9 5.6 -18.4
	1.6 6 -1.3 11.6 -5.6 12.8
"/>
<use x="95.40" y="447.20" xlink:href="#hl"/>
<use x="95.40" y="441.20" xlink:href="#hl"/>
<use x="95.40" y="435.20" xlink:href="#hl"/>
<use x="95.40" y="435.20" xlink:href="#hd"/>
<path d="M91.90 435.20v30.00" class="stroke"/>
<path class="fill"
	d="M91.90 465.20c0.6 -5.6 9.6 -9 5.6 -18.4
	1.6 6 -1.3 11.6 -5.6 12.8
"/>
<use x="112.20" y="447.20" xlink:href="#hl"/>
<use x="112.20" y="441.20" xlink:href="#hl"/>
<use x="112.20" y="435.20" xlink:href="#hl"/>
<use x="112.20" y="429.20" xlink:href="#hl"/>
<use x="112.20" y="429.20" xlink:href="#hd"/>
<path d="M108.70 429.20v36.00" class="stroke"/>
<path class="fill"
	d="M108.70 465.20c0.6 -5.6 9.6 -9 5.6 -18.4
	1.6 6 -1.3 11.6 -5.6 12.8
"/>
<use x="128.90" y="447.20" xlink:href="#hl"/>
<use x="128.90" y="441.20" xlink:href="#hl"/>
<use x="128.90" y="435.20" xlink:href="#hl"/>
<use x="128.90" y="429.20" xlink:href="#hl"/>
<use x="128.90" y="426.20" xlink:href="#hd"/>
<path d="M125.40 426.20v39.00" class="stroke"/>
<path class="fill"
	d="M125.40 465.20c0.6 -5.6 9.6 -9 5.6 -18.4
	1.6 6 -1.3 11.6 -5.6 12.8
"/>
<use x="145.70" y="447.20" xlink:href="#hl"/>
<use x="145.70" y="441.20" xlink:href="#hl"/>
<use x="145.70" y="435.20" xlink:href="#hl"/>
<use x="145.70" y="429.20" xlink:href="#hl"/>
<use x="145.70" y="423.20" xlink:href="#hl"/>
<use x="145.70" y="420.20" xlink:href="#hd"/>
<path d="M142.20 420.20v45.00" class="stroke"/>
<path class="fill"
	d="M142.20 465.20c0.6 -5.6 9.6 -9 5.6 -18.4
	1.6 6 -1.3 11.6 -5.6 12.8
"/>
<use x="160.70" y="468.20" xlink:href="#hd"/>
<path d="M164.20 468.20v-21.00" class="stroke"/>
<path class="fill"
	d="M164.20 447.20c0.6 5.6 9.6 9 5.6 18.4
	1.6 -6 -1.3 -11.6 -5.6 -12.8
"/>
<use x="178.30" y="447.20" xlink:href="#hl"/>
<use x="178.30" y="441.20" xlink:href="#hl"/>
<use x="178.30" y="441.20" xlink:href="#hd"/>
<path d="M174.80 441.20v24.00" class="stroke"/>
<path class="fill"
	d="M174.80 465.20c0.6 -5.6 9.6 -9 5.6 -18.4
	1.6 6 -1.3 11.6 -5.6 12.8
"/>
<use x="217.00" y="453.20" xlink:href="#HD"/>
<use x="217.00" y="471.20" xlink:href="#HD"/>
<use x="217.00" y="465.20" xlink:href="#HD"/>
<use x="217.00" y="459.20" xlink:href="#HD"/>
<use x="279.90" y="453.20" xlink:href="#hd"/>
<path d="M276.40 453.20v37.00" class="stroke"/>
<use x="279.90" y="471.20" xlink:href="#hd"/>
<use x="279.90" y="465.20" xlink:href="#hd"/>
<use x="279.90" y="459.20" xlink:href="#hd"/>
<use x="309.30" y="483.20" xlink:href="#hl"/>
<use x="309.30" y="489.20" xlink:href="#hl"/>
<use x="309.30" y="492.20" xlink:href="#hd"/>
<path d="M312.80 492.20v-40.00" class="stroke"/>
<path class="fill"
	d="M312.80 452.20c0.6 5.6 9.6 9 5.6 18.4
	1.6 -6 -1.3 -11.6 -5.6 -12.8
"/>
<use x="309.30" y="471.20" xlink:href="#hd"/>
<use x="327.00" y="447.20" xlink:href="#hl"/>
<use x="327.00" y="444.20" xlink:href="#hd"/>
<path d="M323.50 444.20v21.00" class="stroke"/>
<path class="fill"
	d="M323.50 465.20c0.6 -5.6 9.6 -9 5.6 -18.4
	1.6 6 -1.3 11.6 -5.6 12.8
"/>
<use x="343.80" y="447.20" xlink:href="#hl"/>
<use x="343.80" y="441.20" xlink:href="#hl"/>
<use x="343.80" y="438.20" xlink:href="#hd"/>
<path d="M340.30 438.20v27.00" class="stroke"/>
<path class="fill"
	d="M340.30 465.20c0.6 -5.6 9.6 -9 5.6 -18.4
	1.6 6 -1.3 11.6 -5.6 12.8
"/>
<use x="360.50" y="447.20" xlink:href="#hl"/>
<use x="360.50" y="441.20" xlink:href="#hl"/>
<use x="360.50" y="435.20" xlink:href="#hl"/>
<use x="360.50" y="432.20" xlink:href="#hd"/>
<path d="M357.00 432.20v33.00" class="stroke"/>
<path class="fill"
	d="M357.00 465.20c0.6 -5.6 9.6 -9 5.6 -18.4
	1.6 6 -1.3 11.6 -5.6 12.8
"/>
<use x="377.30" y="447.20" xlink:href="#hl"/>
<use x="377.30" y="441.20" xlink:href="#hl"/>
<use x="377.30" y="435.20" xlink:href="#hl"/>
<use x="377.30" y="429.20" xlink:href="#hl"/>
<use x="377.30" y="429.20" xlink:href="#hd"/>
<path d="M373.80 429.20v36.00" class="stroke"/>
<path class="fill"
	d="M373.80 465.20c0.6 -5.6 9.6 -9 5.6 -18.4
	1.6 6 -1.3 11.6 -5.6 12.8
"/>
<use x="394.00" y="447.20" xlink:href="#hl"/>
<use x="394.00" y="441.20" xlink:href="#hl"/>
<use x="394.00" y="435.20" xlink:href="#hl"/>
<use x="394.00" y="429.20" xlink:href="#hl"/>
<use x="394.00" y="423.20" xlink:href="#hl"/>
<use x="394.00" y="423.20" xlink:href="#hd"/>
<path d="M390.50 423.20v42.00" class="stroke"/>
<path class="fill"
	d="M390.50 465.20c0.6 -5.6 9.6 -9 5.6 -18.4
	1.6 6 -1.3 11.6 -5.6 12.8
"/>
<use x="419.60" y="471.20" xlink:href="#hd"/>
<path d="M423.10 471.20v-21.00" class="stroke"/>
<path class="fill"
	d="M423.10 450.20c0.6 5.6 9.6 9 5.6 18.4
	1.6 -6 -1.3 -11.6 -5.6 -12.8
"/>
<use x="437.30" y="447.20" xlink:href="#hl"/>
<use x="437.30" y="444.20" xlink:href="#hd"/>
<path d="M433.80 444.20v21.00" class="stroke"/>
<path class="fill"
	d="M433.80 465.20c0.6 -5.6 9.6 -9 5.6 -18.4
	1.6 6 -1.3 11.6 -5.6 12.8
"/>
<use x="454.00" y="447.20" xlink:href="#hl"/>
<use x="454.00" y="441.20" xlink:href="#hl"/>
<use x="454.00" y="438.20" xlink:href="#hd"/>
<path d="M450.50 438.20v27.00" class="stroke"/>
<path class="fill"
	d="M450.50 465.20c0.6 -5.6 9.6 -9 5.6 -18.4
	1.6 6 -1.3 11.6 -5.6 12.8
"/>
<use x="470.80" y="447.20" xlink:href="#hl"/>
<use x="470.80" y="441.20" xlink:href="#hl"/>
<use x="470.80" y="435.20" xlink:href="#hl"/>
<use x="470.80" y="432.20" xlink:href="#hd"/>
<path d="M467.30 432.20v33.00" class="stroke"/>
<path class="fill"
	d="M467.30 465.20c0.6 -5.6 9.6 -9 5.6 -18.4
	1.6 6 -1.3 11.6 -5.6 12.8
"/>
<use x="487.50" y="447.20" xlink:href="#hl"/>
<use x="487.50" y="441.20" xlink:href="#hl"/>
<use x="487.50" y="435.20" xlink:href="#hl"/>
<use x="487.50" y="429.20" xlink:href="#hl"/>
<use x="487.50" y="429.20" xlink:href="#hd"/>
<path d="M484.00 429.20v36.00" class="stroke"/>
<path class="fill"
	d="M484.00 465.20c0.6 -5.6 9.6 -9 5.6 -18.4
	1.6 6 -1.3 11.6 -5.6 12.8
"/>
<use x="504.30" y="447.20" xlink:href="#hl"/>
<use x="504.30" y="441.20" xlink:href="#hl"/>
<use x="504.30" y="435.20" xlink:href="#hl"/>
<use x="504.30" y="429.20" xlink:href="#hl"/>
<use x="504.30" y="423.20" xlink:href="#hl"/>
<use x="504.30" y="423.20" xlink:href="#hd"/>
<path d="M500.80 423.20v42.00" class="stroke"/>
<path class="fill"
	d="M500.80 465.20c0.6 -5.6 9.6 -9 5.6 -18.4
	1.6 6 -1.3 11.6 -5.6 12.8
"/>
<use x="519.30" y="471.20" xlink:href="#hd"/>
<path d="M522.80 471.20v-21.00" class="stroke"/>
<path class="fill"
	d="M522.80 450.20c0.6 5.6 9.6 9 5.6 18.4
	1.6 -6 -1.3 -11.6 -5.6 -12.8
"/>
<use x="537.00" y="447.20" xlink:href="#hl"/>
<use x="537.00" y="444.20" xlink:href="#hd"/>
<path d="M533.50 444.20v21.00" class="stroke"/>
<path class="fill"
	d="M533.50 465.20c0.6 -5.6 9.6 -9 5.6 -18.4
	1.6 6 -1.3 11.6 -5.6 12.8
"/>
<use x="562.60" y="462.20" xlink:href="#hd"/>
<path d="M559.10 462.20v21.00" class="stroke"/>
<path class="fill"
	d="M559.10 483.20c0.6 -5.6 9.6 -9 5.6 -18.4
	1.6 6 -1.3 11.6 -5.6 12.8
"/>
<use x="579.10" y="447.20" xlink:href="#hl"/>
<use x="579.10" y="441.20" xlink:href="#hl"/>
<use x="579.10" y="435.20" xlink:href="#hl"/>
<use x="579.10" y="435.20" xlink:href="#hd"/>
<path d="M575.60 435.20v30.00" class="stroke"/>
<path class="fill"
	d="M575.60 465.20c0.6 -5.6 9.6 -9 5.6 -18.4
	1.6 6 -1.3 11.6 -5.6 12.8
"/>
<use x="595.80" y="447.20" xlink:href="#hl"/>
<use x="595.80" y="441.20" xlink:href="#hl"/>
<use x="595.80" y="435.20" xlink:href="#hl"/>
<use x="595.80" y="429.20" xlink:href="#hl"/>
<use x="595.80" y="429.20" xlink:href="#hd"/>
<path d="M592.30 429.20v36.00" class="stroke"/>
<path class="fill"
	d="M592.30 465.20c0.6 -5.6 9.6 -9 5.6 -18.4
	1.6 6 -1.3 11.6 -5.6 12.8
"/>
<use x="612.50" y="447.20" xlink:href="#hl"/>
<use x="612.50" y="441.20" xlink:href="#hl"/>
<use x="612.50" y="435.20" xlink:href="#hl"/>
<use x="612.50" y="429.20" xlink:href="#hl"/>
<use x="612.50" y="423.20" xlink:href="#hl"/>
<use x="612.50" y="423.20" xlink:href="#hd"/>
<path d="M609.00 423.20v42.00" class="stroke"/>
<path class="fill"
	d="M609.00 465.20c0.6 -5.6 9.6 -9 5.6 -18.4
	1.6 6 -1.3 11.6 -5.6 12.8
"/>
<use x="629.30" y="447.20" xlink:href="#hl"/>
<use x="629.30" y="441.20" xlink:href="#hl"/>
<use x="629.30" y="435.20" xlink:href="#hl"/>
<use x="629.30" y="429.20" xlink:href="#hl"/>
<use x="629.30" y="423.20" xlink:href="#hl"/>
<use x="629.30" y="420.20" xlink:href="#hd"/>
<path d="M625.80 420.20v45.00" class="stroke"/>
<path class="fill"
	d="M625.80 465.20c0.6 -5.6 9.6 -9 5.6 -18.4
	1.6 6 -1.3 11.6 -5.6 12.8
"/>
<use x="646.00" y="447.20" xlink:href="#hl"/>
<use x="646.00" y="441.20" xlink:href="#hl"/>
<use x="646.00" y="435.20" xlink:href="#hl"/>
<use x="646.00" y="429.20" xlink:href="#hl"/>
<use x="646.00" y="423.20" xlink:href="#hl"/>
<use x="646.00" y="417.20" xlink:href="#hl"/>
<use x="646.00" y="414.20" xlink:href="#hd"/>
<path d="M642.50 414.20v51.00" class="stroke"/>
<path class="fill"
	d="M642.50 465.20c0.6 -5.6 9.6 -9 5.6 -18.4
	1.6 6 -1.3 11.6 -5.6 12.8
"/>
<use x="662.50" y="462.20" xlink:href="#hd"/>
<path d="M659.00 462.20v21.00" class="stroke"/>
<path class="fill"
	d="M659.00 483.20c0.6 -5.6 9.6 -9 5.6 -18.4
	1.6 6 -1.3 11.6 -5.6 12.8
"/>
<use x="679.00" y="447.20" xlink:href="#hl"/>
<use x="679.00" y="441.20" xlink:href="#hl"/>
<use x="679.00" y="435.20" xlink:href="#hl"/>
<use x="679.00" y="435.20" xlink:href="#hd"/>
<path d="M675.50 435.20v30.00" class="stroke"/>
<path class="fill"
	d="M675.50 465.20c0.6 -5.6 9.6 -9 5.6 -18.4
	1.6 6 -1.3 11.6 -5.6 12.8
"/>
<path class="fill"
	d="M219.50 471.20c8.54 5.53 48.42 5.53 56.96 -0.00
	v0.26c-10.24 7.27 -46.71 7.27 -56.96 -0.26"/>
<path class="fill"
	d="M219.50 465.20c8.54 5.53 48.42 5.53 56.96 -0.00
	v0.26c-10.24 7.27 -46.71 7.27 -56.96 -0.26"/>
<path class="fill"
	d="M219.50 459.20c8.54 -5.53 48.42 -5.53 56.96 -0.00
	v-0.26c-10.24 -7.27 -46.71 -7.27 -56.96 0.26"/>
<path class="fill"
	d="M219.50 453.20c8.54 -5.53 48.42 -5.53 56.96 -0.00
	v-0.26c-10.24 -7.27 -46.71 -7.27 -56.96 0.26"/>
<g transform="rotate(270)">
<use x="-474.20" y="203.50" xlink:href="#ltr"/>
<use x="-468.20" y="203.50" xlink:href="#ltr"/>
<use x="-462.20" y="203.50" xlink:href="#ltr"/>
<use x="-456.20" y="203.50" xlink:href="#ltr"/>
</g>
<g transform="rotate(270)">
<use x="-474.20" y="269.90" xlink:href="#ltr"/>
<use x="-468.20" y="269.90" xlink:href="#ltr"/>
<use x="-462.20" y="269.90" xlink:href="#ltr"/>
<use x="-456.20" y="269.90" xlink:href="#ltr"/>
</g>
<text x="301.80" y="373.20" style="font:bold italic 30px serif">,</text>
</g>
<g stroke-width="0.70" style="font:italic 11.00px Times">
<path class="stroke" stroke-width="1"
	d="M10.00 636.60v-106.00"/>
<g transform="translate(10.00,530.60) scale(1,1.06)">
	<use xlink:href="#brace"/>
</g>
<path class="stroke" stroke-width="1"
	d="M263.80 554.60v-24.00"/>
<path class="stroke" stroke-width="1"
	d="M263.80 636.60v-24.00"/>
<path class="stroke" stroke-width="1"
	d="M346.10 554.60v-24.00"/>
<path class="stroke" stroke-width="1"
	d="M346.10 636.60v-24.00"/>
<path class="stroke" stroke-width="1"
	d="M518.60 554.60v-24.00"/>
<path class="stroke" stroke-width="1"
	d="M518.60 636.60v-24.00"/>
<path class="stroke" stroke-width="1"
	d="M691.60 554.60v-24.00"/>
<path class="stroke" stroke-width="1"
	d="M691.60 636.60v-24.00"/>
<path d="m10.00 554.60
	h681.60
	M10.00 548.60
	h681.60
	M10.00 542.60
	h681.60
	M10.00 536.60
	h681.60
	M10.00 530.60
	h681.60
	" class="stroke"/>
<path d="m10.00 636.60
	h681.60
	M10.00 630.60
	h681.60
	M10.00 624.60
	h681.60
	M10.00 618.60
	h681.60
	M10.00 612.60
	h681.60
	" class="stroke"/>
</g>
<g stroke-width="0.70" style="font:bold 13.00px Times">
<text x="53.00" y="518.00">vii<tspan
	 style="font:italic 11.00px Times">ø⁷¹</tspan></text>
</g>
<g stroke-width="0.70" style="font:bold 13.00px Times">
<text x="281.90" y="510.00">V<tspan
	 style="font:italic 11.00px Times">⁷</tspan></text>
</g>
<g stroke-width="0.70" style="font:bold 13.00px Times">
<text x="350.90" y="524.00">I<tspan
	 style="font:italic 11.00px Times">Δ⁷¹</tspan></text>
</g>
<g stroke-width="0.70" style="font:bold 13.00px Times">
<text x="525.90" y="515.00">I<tspan
	 style="font:italic 11.00px Times">Δ⁷</tspan></text>
</g>
<g stroke-width="0.70" style="font:italic 11.00px Times">
<use x="22.00" y="548.60" xlink:href="#tclef"/>
<use x="37.00" y="542.60" xlink:href="#ft0"/>
<use x="42.50" y="533.60" xlink:href="#ft0"/>
<use x="61.00" y="545.60" xlink:href="#Hd"/>
<path d="M64.50 545.60v-21.00" class="stroke"/>
<use x="144.50" y="539.60" xlink:href="#Hd"/>
<circle class="fill" cx="153.20" cy="539.60" r="1.2"/>
<path d="M141.00 539.60v21.00" class="stroke"/>
<use x="287.80" y="524.60" xlink:href="#hl"/>
<use x="287.80" y="518.60" xlink:href="#hl"/>
<use x="287.80" y="518.60" xlink:href="#hd"/>
<path d="M284.30 518.60v40.00" class="stroke"/>
<use x="287.80" y="539.60" xlink:href="#hd"/>
<use x="317.00" y="524.60" xlink:href="#hl"/>
<use x="317.00" y="521.60" xlink:href="#Hd"/>
<path d="M313.50 521.60v40.00" class="stroke"/>
<use x="317.00" y="542.60" xlink:href="#Hd"/>
<use x="358.60" y="551.60" xlink:href="#hd"/>
<path d="M362.10 551.60v-21.00" class="stroke"/>
<use x="400.80" y="548.60" xlink:href="#hd"/>
<path d="M404.30 548.60v-21.00" class="stroke"/>
<use x="442.60" y="542.60" xlink:href="#Hd"/>
<path d="M446.10 542.60v-21.00" class="stroke"/>
<use x="531.60" y="542.60" xlink:href="#Hd"/>
<path d="M535.10 542.60v-21.00" class="stroke"/>
<use x="615.60" y="542.60" xlink:href="#Hd"/>
<path d="M619.10 542.60v-21.00" class="stroke"/>
<use x="22.00" y="618.60" xlink:href="#bclef"/>
<use x="37.00" y="630.60" xlink:href="#ft0"/>
<use x="42.50" y="621.60" xlink:href="#ft0"/>
<use x="61.00" y="612.60" xlink:href="#hd"/>
<path d="M57.50 612.60v21.00" class="stroke"/>
<path class="fill"
	d="M57.50 633.60c0.6 -5.6 9.6 -9 5.6 -18.4
	1.6 6 -1.3 11.6 -5.6 12.8
"/>
<use x="81.80" y="606.60" xlink:href="#hl"/>
<use x="81.80" y="600.60" xlink:href="#hl"/>
<use x="81.80" y="594.60" xlink:href="#hl"/>
<use x="81.80" y="588.60" xlink:href="#hl"/>
<use x="81.80" y="585.60" xlink:href="#hd"/>
<path d="M78.30 585.60v39.00" class="stroke"/>
<path class="fill"
	d="M78.30 624.60c0.6 -5.6 9.6 -9 5.6 -18.4
	1.6 6 -1.3 11.6 -5.6 12.8
"/>
<use x="102.70" y="606.60" xlink:href="#hl"/>
<use x="102.70" y="600.60" xlink:href="#hl"/>
<use x="102.70" y="594.60" xlink:href="#hl"/>
<use x="102.70" y="588.60" xlink:href="#hl"/>
<use x="102.70" y="582.60" xlink:href="#hl"/>
<use x="102.70" y="579.60" xlink:href="#hd"/>
<path d="M99.20 579.60v45.00" class="stroke"/>
<path class="fill"
	d="M99.20 624.60c0.6 -5.6 9.6 -9 5.6 -18.4
	1.6 6 -1.3 11.6 -5.6 12.8
"/>
<use x="123.60" y="606.60" xlink:href="#hl"/>
<use x="123.60" y="600.60" xlink:href="#hl"/>
<use x="123.60" y="594.60" xlink:href="#hl"/>
<use x="123.60" y="588.60" xlink:href="#hl"/>
<use x="123.60" y="582.60" xlink:href="#hl"/>
<use x="123.60" y="576.60" xlink:href="#hl"/>
<use x="123.60" y="573.60" xlink:href="#hd"/>
<path d="M120.10 573.60v51.00" class="stroke"/>
<path class="fill"
	d="M120.10 624.60c0.6 -5.6 9.6 -9 5.6 -18.4
	1.6 6 -1.3 11.6 -5.6 12.8
"/>
<use x="144.50" y="606.60" xlink:href="#hl"/>
<use x="144.50" y="600.60" xlink:href="#hl"/>
<use x="144.50" y="594.60" xlink:href="#hl"/>
<use x="144.50" y="588.60" xlink:href="#hl"/>
<use x="144.50" y="582.60" xlink:href="#hl"/>
<use x="144.50" y="576.60" xlink:href="#hl"/>
<use x="144.50" y="570.60" xlink:href="#hl"/>
<use x="144.50" y="570.60" xlink:href="#hd"/>
<path d="M141.00 570.60v54.00" class="stroke"/>
<path class="fill"
	d="M141.00 624.60c0.6 -5.6 9.6 -9 5.6 -18.4
	1.6 6 -1.3 11.6 -5.6 12.8
"/>
<use x="165.40" y="606.60" xlink:href="#hl"/>
<use x="165.40" y="600.60" xlink:href="#hl"/>
<use x="165.40" y="594.60" xlink:href="#hl"/>
<use x="165.40" y="588.60" xlink:href="#hl"/>
<use x="165.40" y="582.60" xlink:href="#hl"/>
<use x="165.40" y="576.60" xlink:href="#hl"/>
<use x="165.40" y="570.60" xlink:href="#hl"/>
<use x="165.40" y="564.60" xlink:href="#hl"/>
<use x="165.40" y="564.60" xlink:href="#hd"/>
<path d="M161.90 564.60v60.00" class="stroke"/>
<path class="fill"
	d="M161.90 624.60c0.6 -5.6 9.6 -9 5.6 -18.4
	1.6 6 -1.3 11.6 -5.6 12.8
"/>
<use x="186.20" y="612.60" xlink:href="#hd"/>
<path d="M182.70 612.60v21.00" class="stroke"/>
<path class="fill"
	d="M182.70 633.60c0.6 -5.6 9.6 -9 5.6 -18.4
	1.6 6 -1.3 11.6 -5.6 12.8
"/>
<use x="207.00" y="606.60" xlink:href="#hl"/>
<use x="207.00" y="600.60" xlink:href="#hl"/>
<use x="207.00" y="594.60" xlink:href="#hl"/>
<use x="207.00" y="588.60" xlink:href="#hl"/>
<use x="207.00" y="585.60" xlink:href="#hd"/>
<path d="M203.50 585.60v39.00" class="stroke"/>
<path class="fill"
	d="M203.50 624.60c0.6 -5.6 9.6 -9 5.6 -18.4
	1.6 6 -1.3 11.6 -5.6 12.8
"/>
<use x="227.90" y="606.60" xlink:href="#hl"/>
<use x="227.90" y="600.60" xlink:href="#hl"/>
<use x="227.90" y="594.60" xlink:href="#hl"/>
<use x="227.90" y="588.60" xlink:href="#hl"/>
<use x="227.90" y="582.60" xlink:href="#hl"/>
<use x="227.90" y="579.60" xlink:href="#hd"/>
<path d="M224.40 579.60v45.00" class="stroke"/>
<path class="fill"
	d="M224.40 624.60c0.6 -5.6 9.6 -9 5.6 -18.4
	1.6 6 -1.3 11.6 -5.6 12.8
"/>
<use x="248.80" y="606.60" xlink:href="#hl"/>
<use x="248.80" y="600.60" xlink:href="#hl"/>
<use x="248.80" y="594.60" xlink:href="#hl"/>
<use x="248.80" y="588.60" xlink:href="#hl"/>
<use x="248.80" y="582.60" xlink:href="#hl"/>
<use x="248.80" y="576.60" xlink:href="#hl"/>
<use x="248.80" y="573.60" xlink:href="#hd"/>
<path d="M245.30 573.60v51.00" class="stroke"/>
<path class="fill"
	d="M245.30 624.60c0.6 -5.6 9.6 -9 5.6 -18.4
	1.6 6 -1.3 11.6 -5.6 12.8
"/>
<use x="287.80" y="606.60" xlink:href="#hl"/>
<use x="287.80" y="600.60" xlink:href="#hl"/>
<use x="287.80" y="600.60" xlink:href="#Hd"/>
<circle class="fill" cx="296.50" cy="597.60" r="1.2"/>
<path d="M284.30 600.60v37.00" class="stroke"/>
<use x="287.80" y="618.60" xlink:href="#Hd"/>
<circle class="fill" cx="296.50" cy="615.60" r="1.2"/>
<use x="287.80" y="612.60" xlink:href="#Hd"/>
<circle class="fill" cx="296.50" cy="609.60" r="1.2"/>
<use x="287.80" y="606.60" xlink:href="#Hd"/>
<circle class="fill" cx="296.50" cy="603.60" r="1.2"/>
<use x="358.60" y="642.60" xlink:href="#hl"/>
<use x="358.60" y="648.60" xlink:href="#hl"/>
<use x="358.60" y="651.60" xlink:href="#hd"/>
<path d="M362.10 651.60v-40.00" class="stroke"/>
<path class="fill"
	d="M362.10 611.60c0.6 5.6 9.6 9 5.6 18.4
	1.6 -6 -1.3 -11.6 -5.6 -12.8
"/>
<use x="358.60" y="630.60" xlink:href="#hd"/>
<use x="379.90" y="606.60" xlink:href="#hl"/>
<use x="379.90" y="603.60" xlink:href="#hd"/>
<path d="M376.40 603.60v21.00" class="stroke"/>
<path class="fill"
	d="M376.40 624.60c0.6 -5.6 9.6 -9 5.6 -18.4
	1.6 6 -1.3 11.6 -5.6 12.8
"/>
<use x="400.80" y="606.60" xlink:href="#hl"/>
<use x="400.80" y="600.60" xlink:href="#hl"/>
<use x="400.80" y="597.60" xlink:href="#hd"/>
<path d="M397.30 597.60v27.00" class="stroke"/>
<path class="fill"
	d="M397.30 624.60c0.6 -5.6 9.6 -9 5.6 -18.4
	1.6 6 -1.3 11.6 -5.6 12.8
"/>
<use x="421.70" y="606.60" xlink:href="#hl"/>
<use x="421.70" y="600.60" xlink:href="#hl"/>
<use x="421.70" y="594.60" xlink:href="#hl"/>
<use x="421.70" y="591.60" xlink:href="#hd"/>
<path d="M418.20 591.60v33.00" class="stroke"/>
<path class="fill"
	d="M418.20 624.60c0.6 -5.6 9.6 -9 5.6 -18.4
	1.6 6 -1.3 11.6 -5.6 12.8
"/>
<use x="442.60" y="606.60" xlink:href="#hl"/>
<use x="442.60" y="600.60" xlink:href="#hl"/>
<use x="442.60" y="594.60" xlink:href="#hl"/>
<use x="442.60" y="588.60" xlink:href="#hl"/>
<use x="442.60" y="588.60" xlink:href="#hd"/>
<path d="M439.10 588.60v36.00" class="stroke"/>
<path class="fill"
	d="M439.10 624.60c0.6 -5.6 9.6 -9 5.6 -18.4
	1.6 6 -1.3 11.6 -5.6 12.8
"/>
<use x="463.50" y="606.60" xlink:href="#hl"/>
<use x="463.50" y="600.60" xlink:href="#hl"/>
<use x="463.50" y="594.60" xlink:href="#hl"/>
<use x="463.50" y="588.60" xlink:href="#hl"/>
<use x="463.50" y="582.60" xlink:href="#hl"/>
<use x="463.50" y="582.60" xlink:href="#hd"/>
<path d="M460.00 582.60v42.00" class="stroke"/>
<path class="fill"
	d="M460.00 624.60c0.6 -5.6 9.6 -9 5.6 -18.4
	1.6 6 -1.3 11.6 -5.6 12.8
"/>
<use x="482.30" y="630.60" xlink:href="#hd"/>
<path d="M485.80 630.60v-21.00" class="stroke"/>
<path class="fill"
	d="M485.80 609.60c0.6 5.6 9.6 9 5.6 18.4
	1.6 -6 -1.3 -11.6 -5.6 -12.8
"/>
<use x="503.60" y="606.60" xlink:href="#hl"/>
<use x="503.60" y="603.60" xlink:href="#hd"/>
<path d="M500.10 603.60v21.00" class="stroke"/>
<path class="fill"
	d="M500.10 624.60c0.6 -5.6 9.6 -9 5.6 -18.4
	1.6 6 -1.3 11.6 -5.6 12.8
"/>
<use x="531.60" y="630.60" xlink:href="#hd"/>
<path d="M535.10 630.60v-21.00" class="stroke"/>
<path class="fill"
	d="M535.10 609.60c0.6 5.6 9.6 9 5.6 18.4
	1.6 -6 -1.3 -11.6 -5.6 -12.8
"/>
<use x="552.90" y="606.60" xlink:href="#hl"/>
<use x="552.90" y="603.60" xlink:href="#hd"/>
<path d="M549.40 603.60v21.00" class="stroke"/>
<path class="fill"
	d="M549.40 624.60c0.6 -5.6 9.6 -9 5.6 -18.4
	1.6 6 -1.3 11.6 -5.6 12.8
"/>
<use x="573.80" y="606.60" xlink:href="#hl"/>
<use x="573.80" y="600.60" xlink:href="#hl"/>
<use x="573.80" y="597.60" xlink:href="#hd"/>
<path d="M570.30 597.60v27.00" class="stroke"/>
<path class="fill"
	d="M570.30 624.60c0.6 -5.6 9.6 -9 5.6 -18.4
	1.6 6 -1.3 11.6 -5.6 12.8
"/>
<use x="594.70" y="606.60" xlink:href="#hl"/>
<use x="594.70" y="600.60" xlink:href="#hl"/>
<use x="594.70" y="594.60" xlink:href="#hl"/>
<use x="594.70" y="591.60" xlink:href="#hd"/>
<path d="M591.20 591.60v33.00" class="stroke"/>
<path class="fill"
	d="M591.20 624.60c0.6 -5.6 9.6 -9 5.6 -18.4
	1.6 6 -1.3 11.6 -5.6 12.8
"/>
<use x="615.60" y="606.60" xlink:href="#hl"/>
<use x="615.60" y="600.60" xlink:href="#hl"/>
<use x="615.60" y="594.60" xlink:href="#hl"/>
<use x="615.60" y="588.60" xlink:href="#hl"/>
<use x="615.60" y="588.60" xlink:href="#hd"/>
<path d="M612.10 588.60v36.00" class="stroke"/>
<path class="fill"
	d="M612.10 624.60c0.6 -5.6 9.6 -9 5.6 -18.4
	1.6 6 -1.3 11.6 -5.6 12.8
"/>
<use x="636.50" y="606.60" xlink:href="#hl"/>
<use x="636.50" y="600.60" xlink:href="#hl"/>
<use x="636.50" y="594.60" xlink:href="#hl"/>
<use x="636.50" y="588.60" xlink:href="#hl"/>
<use x="636.50" y="582.60" xlink:href="#hl"/>
<use x="636.50" y="582.60" xlink:href="#hd"/>
<path d="M633.00 582.60v42.00" class="stroke"/>
<path class="fill"
	d="M633.00 624.60c0.6 -5.6 9.6 -9 5.6 -18.4
	1.6 6 -1.3 11.6 -5.6 12.8
"/>
<use x="655.30" y="630.60" xlink:href="#hd"/>
<path d="M658.80 630.60v-21.00" class="stroke"/>
<path class="fill"
	d="M658.80 609.60c0.6 5.6 9.6 9 5.6 18.4
	1.6 -6 -1.3 -11.6 -5.6 -12.8
"/>
<use x="676.60" y="606.60" xlink:href="#hl"/>
<use x="676.60" y="603.60" xlink:href="#hd"/>
<path d="M673.10 603.60v21.00" class="stroke"/>
<path class="fill"
	d="M673.10 624.60c0.6 -5.6 9.6 -9 5.6 -18.4
	1.6 6 -1.3 11.6 -5.6 12.8
"/>
<g transform="rotate(270)">
<use x="-621.60" y="277.80" xlink:href="#ltr"/>
<use x="-615.60" y="277.80" xlink:href="#ltr"/>
<use x="-609.60" y="277.80" xlink:href="#ltr"/>
<use x="-603.60" y="277.80" xlink:href="#ltr"/>
</g>
<text x="351.10" y="521.60" style="font:bold italic 30px serif">,</text>
</g>
<g stroke-width="0.70" style="font:italic 11.00px Times">
<path class="stroke" stroke-width="1"
	d="M10.00 782.00v-97.00"/>
<g transform="translate(10.00,685.00) scale(1,0.97)">
	<use xlink:href="#brace"/>
</g>
<path class="stroke" stroke-width="1"
	d="M247.30 709.00v-24.00"/>
<path class="stroke" stroke-width="1"
	d="M247.30 782.00v-24.00"/>
<path class="stroke" stroke-width="1"
	d="M370.50 709.00v-24.00"/>
<path class="stroke" stroke-width="1"
	d="M370.50 782.00v-24.00"/>
<path class="stroke" stroke-width="1"
	d="M530.80 709.00v-24.00"/>
<path class="stroke" stroke-width="1"
	d="M530.80 782.00v-24.00"/>
<path class="stroke" stroke-width="1"
	d="M691.60 709.00v-24.00"/>
<path class="stroke" stroke-width="1"
	d="M691.60 782.00v-24.00"/>
<path d="m10.00 709.00
	h681.60
	M10.00 703.00
	h681.60
	M10.00 697.00
	h681.60
	M10.00 691.00
	h681.60
	M10.00 685.00
	h681.60
	" class="stroke"/>
<path d="m10.00 782.00
	h681.60
	M10.00 776.00
	h681.60
	M10.00 770.00
	h681.60
	M10.00 764.00
	h681.60
	M10.00 758.00
	h681.60
	" class="stroke"/>
</g>
<g stroke-width="0.70" style="font:bold 13.00px Times">
<text x="55.30" y="680.40">I<tspan
	 style="font:italic 11.00px Times">Δ⁷</tspan></text>
</g>
<g stroke-width="0.70" style="font:bold 13.00px Times">
<text x="254.10" y="675.40">I<tspan
	 style="font:italic 11.00px Times">Δ⁷</tspan></text>
</g>
<g stroke-width="0.70" style="font:bold 13.00px Times">
<text x="375.30" y="678.40">I<tspan
	 style="font:italic 11.00px Times">Δ⁷¹</tspan></text>
</g>
<g stroke-width="0.70" style="font:bold 13.00px Times">
<text x="538.10" y="669.40">I<tspan
	 style="font:italic 11.00px Times">Δ⁷</tspan></text>
</g>
<g stroke-width="0.70" style="font:italic 11.00px Times">
<use x="22.00" y="703.00" xlink:href="#tclef"/>
<use x="37.00" y="697.00" xlink:href="#ft0"/>
<use x="42.50" y="688.00" xlink:href="#ft0"/>
<use x="61.00" y="691.00" xlink:href="#Hd"/>
<path d="M57.50 691.00v21.00" class="stroke"/>
<use x="138.50" y="697.00" xlink:href="#Hd"/>
<circle class="fill" cx="147.20" cy="694.00" r="1.2"/>
<path d="M135.00 697.00v21.00" class="stroke"/>
<use x="259.80" y="703.00" xlink:href="#hd"/>
<path d="M263.30 703.00v-21.00" class="stroke"/>
<use x="298.80" y="706.00" xlink:href="#Hd"/>
<path d="M302.30 706.00v-21.00" class="stroke"/>
<use x="383.00" y="706.00" xlink:href="#hd"/>
<path d="M386.50 706.00v-21.00" class="stroke"/>
<use x="422.00" y="703.00" xlink:href="#hd"/>
<path d="M425.50 703.00v-21.00" class="stroke"/>
<use x="460.50" y="697.00" xlink:href="#Hd"/>
<path d="M464.00 697.00v-21.00" class="stroke"/>
<use x="543.80" y="697.00" xlink:href="#Hd"/>
<path d="M547.30 697.00v-21.00" class="stroke"/>
<use x="621.30" y="691.00" xlink:href="#Hd"/>
<path d="M617.80 691.00v21.00" class="stroke"/>
<use x="22.00" y="764.00" xlink:href="#bclef"/>
<use x="37.00" y="776.00" xlink:href="#ft0"/>
<use x="42.50" y="767.00" xlink:href="#ft0"/>
<use x="61.00" y="776.00" xlink:href="#hd"/>
<path d="M64.50 776.00v-21.00" class="stroke"/>
<path class="fill"
	d="M64.50 755.00c0.6 5.6 9.6 9 5.6 18.4
	1.6 -6 -1.3 -11.6 -5.6 -12.8
"/>
<use x="80.80" y="752.00" xlink:href="#hl"/>
<use x="80.80" y="749.00" xlink:href="#hd"/>
<path d="M77.30 749.00v21.00" class="stroke"/>
<path class="fill"
	d="M77.30 770.00c0.6 -5.6 9.6 -9 5.6 -18.4
	1.6 6 -1.3 11.6 -5.6 12.8
"/>
<use x="100.00" y="752.00" xlink:href="#hl"/>
<use x="100.00" y="746.00" xlink:href="#hl"/>
<use x="100.00" y="743.00" xlink:href="#hd"/>
<path d="M96.50 743.00v27.00" class="stroke"/>
<path class="fill"
	d="M96.50 770.00c0.6 -5.6 9.6 -9 5.6 -18.4
	1.6 6 -1.3 11.6 -5.6 12.8
"/>
<use x="119.30" y="752.00" xlink:href="#hl"/>
<use x="119.30" y="746.00" xlink:href="#hl"/>
<use x="119.30" y="740.00" xlink:href="#hl"/>
<use x="119.30" y="737.00" xlink:href="#hd"/>
<path d="M115.80 737.00v33.00" class="stroke"/>
<path class="fill"
	d="M115.80 770.00c0.6 -5.6 9.6 -9 5.6 -18.4
	1.6 6 -1.3 11.6 -5.6 12.8
"/>
<use x="138.50" y="752.00" xlink:href="#hl"/>
<use x="138.50" y="746.00" xlink:href="#hl"/>
<use x="138.50" y="740.00" xlink:href="#hl"/>
<use x="138.50" y="734.00" xlink:href="#hl"/>
<use x="138.50" y="734.00" xlink:href="#hd"/>
<path d="M135.00 734.00v36.00" class="stroke"/>
<path class="fill"
	d="M135.00 770.00c0.6 -5.6 9.6 -9 5.6 -18.4
	1.6 6 -1.3 11.6 -5.6 12.8
"/>
<use x="157.80" y="752.00" xlink:href="#hl"/>
<use x="157.80" y="746.00" xlink:href="#hl"/>
<use x="157.80" y="740.00" xlink:href="#hl"/>
<use x="157.80" y="734.00" xlink:href="#hl"/>
<use x="157.80" y="728.00" xlink:href="#hl"/>
<use x="157.80" y="728.00" xlink:href="#hd"/>
<path d="M154.30 728.00v42.00" class="stroke"/>
<path class="fill"
	d="M154.30 770.00c0.6 -5.6 9.6 -9 5.6 -18.4
	1.6 6 -1.3 11.6 -5.6 12.8
"/>
<use x="175.10" y="776.00" xlink:href="#hd"/>
<path d="M178.60 776.00v-21.00" class="stroke"/>
<path class="fill"
	d="M178.60 755.00c0.6 5.6 9.6 9 5.6 18.4
	1.6 -6 -1.3 -11.6 -5.6 -12.8
"/>
<use x="194.80" y="752.00" xlink:href="#hl"/>
<use x="194.80" y="749.00" xlink:href="#hd"/>
<path d="M191.30 749.00v21.00" class="stroke"/>
<path class="fill"
	d="M191.30 770.00c0.6 -5.6 9.6 -9 5.6 -18.4
	1.6 6 -1.3 11.6 -5.6 12.8
"/>
<use x="214.10" y="752.00" xlink:href="#hl"/>
<use x="214.10" y="746.00" xlink:href="#hl"/>
<use x="214.10" y="743.00" xlink:href="#hd"/>
<path d="M210.60 743.00v27.00" class="stroke"/>
<path class="fill"
	d="M210.60 770.00c0.6 -5.6 9.6 -9 5.6 -18.4
	1.6 6 -1.3 11.6 -5.6 12.8
"/>
<use x="233.30" y="752.00" xlink:href="#hl"/>
<use x="233.30" y="746.00" xlink:href="#hl"/>
<use x="233.30" y="740.00" xlink:href="#hl"/>
<use x="233.30" y="737.00" xlink:href="#hd"/>
<path d="M229.80 737.00v33.00" class="stroke"/>
<path class="fill"
	d="M229.80 770.00c0.6 -5.6 9.6 -9 5.6 -18.4
	1.6 6 -1.3 11.6 -5.6 12.8
"/>
<use x="259.80" y="776.00" xlink:href="#hd"/>
<path d="M263.30 776.00v-21.00" class="stroke"/>
<path class="fill"
	d="M263.30 755.00c0.6 5.6 9.6 9 5.6 18.4
	1.6 -6 -1.3 -11.6 -5.6 -12.8
"/>
<use x="279.60" y="752.00" xlink:href="#hl"/>
<use x="279.60" y="749.00" xlink:href="#hd"/>
<path d="M276.10 749.00v21.00" class="stroke"/>
<path class="fill"
	d="M276.10 770.00c0.6 -5.6 9.6 -9 5.6 -18.4
	1.6 6 -1.3 11.6 -5.6 12.8
"/>
<use x="298.80" y="752.00" xlink:href="#hl"/>
<use x="298.80" y="746.00" xlink:href="#hl"/>
<use x="298.80" y="743.00" xlink:href="#hd"/>
<path d="M295.30 743.00v27.00" class="stroke"/>
<path class="fill"
	d="M295.30 770.00c0.6 -5.6 9.6 -9 5.6 -18.4
	1.6 6 -1.3 11.6 -5.6 12.8
"/>
<use x="318.10" y="752.00" xlink:href="#hl"/>
<use x="318.10" y="746.00" xlink:href="#hl"/>
<use x="318.10" y="740.00" xlink:href="#hl"/>
<use x="318.10" y="737.00" xlink:href="#hd"/>
<path d="M314.60 737.00v33.00" class="stroke"/>
<path class="fill"
	d="M314.60 770.00c0.6 -5.6 9.6 -9 5.6 -18.4
	1.6 6 -1.3 11.6 -5.6 12.8
"/>
<use x="337.30" y="752.00" xlink:href="#hl"/>
<use x="337.30" y="746.00" xlink:href="#hl"/>
<use x="337.30" y="740.00" xlink:href="#hl"/>
<use x="337.30" y="734.00" xlink:href="#hl"/>
<use x="337.30" y="734.00" xlink:href="#hd"/>
<path d="M333.80 734.00v36.00" class="stroke"/>
<path class="fill"
	d="M333.80 770.00c0.6 -5.6 9.6 -9 5.6 -18.4
	1.6 6 -1.3 11.6 -5.6 12.8
"/>
<use x="356.60" y="752.00" xlink:href="#hl"/>
<use x="356.60" y="746.00" xlink:href="#hl"/>
<use x="356.60" y="740.00" xlink:href="#hl"/>
<use x="356.60" y="734.00" xlink:href="#hl"/>
<use x="356.60" y="728.00" xlink:href="#hl"/>
<use x="356.60" y="728.00" xlink:href="#hd"/>
<path d="M353.10 728.00v42.00" class="stroke"/>
<path class="fill"
	d="M353.10 770.00c0.6 -5.6 9.6 -9 5.6 -18.4
	1.6 6 -1.3 11.6 -5.6 12.8
"/>
<use x="383.00" y="776.00" xlink:href="#hd"/>
<path d="M386.50 776.00v-21.00" class="stroke"/>
<path class="fill"
	d="M386.50 755.00c0.6 5.6 9.6 9 5.6 18.4
	1.6 -6 -1.3 -11.6 -5.6 -12.8
"/>
<use x="402.80" y="752.00" xlink:href="#hl"/>
<use x="402.80" y="749.00" xlink:href="#hd"/>
<path d="M399.30 749.00v21.00" class="stroke"/>
<path class="fill"
	d="M399.30 770.00c0.6 -5.6 9.6 -9 5.6 -18.4
	1.6 6 -1.3 11.6 -5.6 12.8
"/>
<use x="422.00" y="752.00" xlink:href="#hl"/>
<use x="422.00" y="746.00" xlink:href="#hl"/>
<use x="422.00" y="743.00" xlink:href="#hd"/>
<path d="M418.50 743.00v27.00" class="stroke"/>
<path class="fill"
	d="M418.50 770.00c0.6 -5.6 9.6 -9 5.6 -18.4
	1.6 6 -1.3 11.6 -5.6 12.8
"/>
<use x="441.30" y="752.00" xlink:href="#hl"/>
<use x="441.30" y="746.00" xlink:href="#hl"/>
<use x="441.30" y="740.00" xlink:href="#hl"/>
<use x="441.30" y="737.00" xlink:href="#hd"/>
<path d="M437.80 737.00v33.00" class="stroke"/>
<path class="fill"
	d="M437.80 770.00c0.6 -5.6 9.6 -9 5.6 -18.4
	1.6 6 -1.3 11.6 -5.6 12.8
"/>
<use x="460.50" y="752.00" xlink:href="#hl"/>
<use x="460.50" y="746.00" xlink:href="#hl"/>
<use x="460.50" y="740.00" xlink:href="#hl"/>
<use x="460.50" y="734.00" xlink:href="#hl"/>
<use x="460.50" y="734.00" xlink:href="#hd"/>
<path d="M457.00 734.00v36.00" class="stroke"/>
<path class="fill"
	d="M457.00 770.00c0.6 -5.6 9.6 -9 5.6 -18.4
	1.6 6 -1.3 11.6 -5.6 12.8
"/>
<use x="479.80" y="752.00" xlink:href="#hl"/>
<use x="479.80" y="746.00" xlink:href="#hl"/>
<use x="479.80" y="740.00" xlink:href="#hl"/>
<use x="479.80" y="734.00" xlink:href="#hl"/>
<use x="479.80" y="728.00" xlink:href="#hl"/>
<use x="479.80" y="728.00" xlink:href="#hd"/>
<path d="M476.30 728.00v42.00" class="stroke"/>
<path class="fill"
	d="M476.30 770.00c0.6 -5.6 9.6 -9 5.6 -18.4
	1.6 6 -1.3 11.6 -5.6 12.8
"/>
<use x="497.10" y="776.00" xlink:href="#hd"/>
<path d="M500.60 776.00v-21.00" class="stroke"/>
<path class="fill"
	d="M500.60 755.00c0.6 5.6 9.6 9 5.6 18.4
	1.6 -6 -1.3 -11.6 -5.6 -12.8
"/>
<use x="516.80" y="752.00" xlink:href="#hl"/>
<use x="516.80" y="749.00" xlink:href="#hd"/>
<path d="M513.30 749.00v21.00" class="stroke"/>
<path class="fill"
	d="M513.30 770.00c0.6 -5.6 9.6 -9 5.6 -18.4
	1.6 6 -1.3 11.6 -5.6 12.8
"/>
<use x="543.80" y="776.00" xlink:href="#hd"/>
<path d="M547.30 776.00v-21.00" class="stroke"/>
<path class="fill"
	d="M547.30 755.00c0.6 5.6 9.6 9 5.6 18.4
	1.6 -6 -1.3 -11.6 -5.6 -12.8
"/>
<use x="563.60" y="752.00" xlink:href="#hl"/>
<use x="563.60" y="749.00" xlink:href="#hd"/>
<path d="M560.10 749.00v21.00" class="stroke"/>
<path class="fill"
	d="M560.10 770.00c0.6 -5.6 9.6 -9 5.6 -18.4
	1.6 6 -1.3 11.6 -5.6 12.8
"/>
<use x="582.80" y="752.00" xlink:href="#hl"/>
<use x="582.80" y="746.00" xlink:href="#hl"/>
<use x="582.80" y="743.00" xlink:href="#hd"/>
<path d="M579.30 743.00v27.00" class="stroke"/>
<path class="fill"
	d="M579.30 770.00c0.6 -5.6 9.6 -9 5.6 -18.4
	1.6 6 -1.3 11.6 -5.6 12.8
"/>
<use x="602.10" y="752.00" xlink:href="#hl"/>
<use x="602.10" y="746.00" xlink:href="#hl"/>
<use x="602.10" y="740.00" xlink:href="#hl"/>
<use x="602.10" y="737.00" xlink:href="#hd"/>
<path d="M598.60 737.00v33.00" class="stroke"/>
<path class="fill"
	d="M598.60 770.00c0.6 -5.6 9.6 -9 5.6 -18.4
	1.6 6 -1.3 11.6 -5.6 12.8
"/>
<use x="621.30" y="752.00" xlink:href="#hl"/>
<use x="621.30" y="746.00" xlink:href="#hl"/>
<use x="621.30" y="740.00" xlink:href="#hl"/>
<use x="621.30" y="734.00" xlink:href="#hl"/>
<use x="621.30" y="734.00" xlink:href="#hd"/>
<path d="M617.80 734.00v36.00" class="stroke"/>
<path class="fill"
	d="M617.80 770.00c0.6 -5.6 9.6 -9 5.6 -18.4
	1.6 6 -1.3 11.6 -5.6 12.8
"/>
<use x="640.60" y="752.00" xlink:href="#hl"/>
<use x="640.60" y="746.00" xlink:href="#hl"/>
<use x="640.60" y="740.00" xlink:href="#hl"/>
<use x="640.60" y="734.00" xlink:href="#hl"/>
<use x="640.60" y="728.00" xlink:href="#hl"/>
<use x="640.60" y="728.00" xlink:href="#hd"/>
<path d="M637.10 728.00v42.00" class="stroke"/>
<path class="fill"
	d="M637.10 770.00c0.6 -5.6 9.6 -9 5.6 -18.4
	1.6 6 -1.3 11.6 -5.6 12.8
"/>
<use x="657.90" y="776.00" xlink:href="#hd"/>
<path d="M661.40 776.00v-21.00" class="stroke"/>
<path class="fill"
	d="M661.40 755.00c0.6 5.6 9.6 9 5.6 18.4
	1.6 -6 -1.3 -11.6 -5.6 -12.8
"/>
<use x="677.60" y="752.00" xlink:href="#hl"/>
<use x="677.60" y="749.00" xlink:href="#hd"/>
<path d="M674.10 749.00v21.00" class="stroke"/>
<path class="fill"
	d="M674.10 770.00c0.6 -5.6 9.6 -9 5.6 -18.4
	1.6 6 -1.3 11.6 -5.6 12.8
"/>
</g>
<g stroke-width="0.70" style="font:italic 11.00px Times">
<path class="stroke" stroke-width="1"
	d="M10.00 938.40v-100.00"/>
<g transform="translate(10.00,838.40) scale(1,1.00)">
	<use xlink:href="#brace"/>
</g>
<path class="stroke" stroke-width="1"
	d="M266.80 862.40v-24.00"/>
<path class="stroke" stroke-width="1"
	d="M266.80 938.40v-24.00"/>
<path class="stroke" stroke-width="1"
	d="M401.10 862.40v-24.00"/>
<path class="stroke" stroke-width="1"
	d="M401.10 938.40v-24.00"/>
<path class="stroke" stroke-width="1"
	d="M515.50 862.40v-24.00"/>
<path class="stroke" stroke-width="1"
	d="M515.50 938.40v-24.00"/>
<path class="stroke" stroke-width="1"
	d="M691.60 862.40v-24.00"/>
<path class="stroke" stroke-width="1"
	d="M691.60 938.40v-24.00"/>
<path d="m10.00 862.40
	h681.60
	M10.00 856.40
	h681.60
	M10.00 850.40
	h681.60
	M10.00 844.40
	h681.60
	M10.00 838.40
	h681.60
	" class="stroke"/>
<path d="m10.00 938.40
	h681.60
	M10.00 932.40
	h681.60
	M10.00 926.40
	h681.60
	M10.00 920.40
	h681.60
	M10.00 914.40
	h681.60
	" class="stroke"/>
</g>
<g stroke-width="0.70" style="font:bold 13.00px Times">
<text x="55.30" y="833.80">I<tspan
	 style="font:italic 11.00px Times">Δ⁷</tspan></text>
</g>
<g stroke-width="0.70" style="font:bold 13.00px Times">
<text x="273.40" y="833.80">V<tspan
	 style="font:italic 11.00px Times">⁷</tspan></text>
</g>
<g stroke-width="0.70" style="font:bold 13.00px Times">
<text x="418.40" y="814.80">I<tspan
	 style="font:italic 11.00px Times">Δ⁷¹</tspan></text>
</g>
<g stroke-width="0.70" style="font:bold 13.00px Times">
<text x="522.70" y="831.80">I<tspan
	 style="font:italic 11.00px Times">Δ⁷</tspan></text>
</g>
<g stroke-width="0.70" style="font:italic 11.00px Times">
<use x="22.00" y="856.40" xlink:href="#tclef"/>
<use x="37.00" y="850.40" xlink:href="#ft0"/>
<use x="42.50" y="841.40" xlink:href="#ft0"/>
<use x="61.00" y="844.40" xlink:href="#Hd"/>
<path d="M57.50 844.40v21.00" class="stroke"/>
<use x="146.70" y="847.40" xlink:href="#Hd"/>
<circle class="fill" cx="155.40" cy="847.40" r="1.2"/>
<path d="M143.20 847.40v21.00" class="stroke"/>
<use x="279.30" y="844.40" xlink:href="#hd"/>
<path d="M275.80 844.40v21.00" class="stroke"/>
<use x="321.80" y="847.40" xlink:href="#Hd"/>
<path d="M318.30 847.40v21.00" class="stroke"/>
<use x="426.10" y="832.40" xlink:href="#hl"/>
<use x="426.10" y="826.40" xlink:href="#hl"/>
<use x="426.10" y="823.40" xlink:href="#hd"/>
<path d="M422.60 823.40v40.00" class="stroke"/>
<use x="426.10" y="844.40" xlink:href="#hd"/>
<use x="455.90" y="832.40" xlink:href="#hl"/>
<use x="455.90" y="826.40" xlink:href="#hl"/>
<use x="455.90" y="826.40" xlink:href="#hd"/>
<path d="M452.40 826.40v40.00" class="stroke"/>
<use x="455.90" y="847.40" xlink:href="#hd"/>
<use x="485.70" y="832.40" xlink:href="#hl"/>
<use x="485.70" y="829.40" xlink:href="#Hd"/>
<path d="M482.20 829.40v40.00" class="stroke"/>
<use x="485.70" y="850.40" xlink:href="#Hd"/>
<use x="528.50" y="850.40" xlink:href="#Hd"/>
<path d="M525.00 850.40v21.00" class="stroke"/>
<use x="614.10" y="850.40" xlink:href="#Hd"/>
<path d="M610.60 850.40v21.00" class="stroke"/>
<use x="22.00" y="920.40" xlink:href="#bclef"/>
<use x="37.00" y="932.40" xlink:href="#ft0"/>
<use x="42.50" y="923.40" xlink:href="#ft0"/>
<use x="61.00" y="932.40" xlink:href="#hd"/>
<path d="M64.50 932.40v-21.00" class="stroke"/>
<path class="fill"
	d="M64.50 911.40c0.6 5.6 9.6 9 5.6 18.4
	1.6 -6 -1.3 -11.6 -5.6 -12.8
"/>
<use x="82.70" y="908.40" xlink:href="#hl"/>
<use x="82.70" y="905.40" xlink:href="#hd"/>
<path d="M79.20 905.40v21.00" class="stroke"/>
<path class="fill"
	d="M79.20 926.40c0.6 -5.6 9.6 -9 5.6 -18.4
	1.6 6 -1.3 11.6 -5.6 12.8
"/>
<use x="104.00" y="908.40" xlink:href="#hl"/>
<use x="104.00" y="902.40" xlink:href="#hl"/>
<use x="104.00" y="899.40" xlink:href="#hd"/>
<path d="M100.50 899.40v27.00" class="stroke"/>
<path class="fill"
	d="M100.50 926.40c0.6 -5.6 9.6 -9 5.6 -18.4
	1.6 6 -1.3 11.6 -5.6 12.8
"/>
<use x="125.30" y="908.40" xlink:href="#hl"/>
<use x="125.30" y="902.40" xlink:href="#hl"/>
<use x="125.30" y="896.40" xlink:href="#hl"/>
<use x="125.30" y="893.40" xlink:href="#hd"/>
<path d="M121.80 893.40v33.00" class="stroke"/>
<path class="fill"
	d="M121.80 926.40c0.6 -5.6 9.6 -9 5.6 -18.4
	1.6 6 -1.3 11.6 -5.6 12.8
"/>
<use x="146.70" y="908.40" xlink:href="#hl"/>
<use x="146.70" y="902.40" xlink:href="#hl"/>
<use x="146.70" y="896.40" xlink:href="#hl"/>
<use x="146.70" y="890.40" xlink:href="#hl"/>
<use x="146.70" y="890.40" xlink:href="#hd"/>
<path d="M143.20 890.40v36.00" class="stroke"/>
<path class="fill"
	d="M143.20 926.40c0.6 -5.6 9.6 -9 5.6 -18.4
	1.6 6 -1.3 11.6 -5.6 12.8
"/>
<use x="168.00" y="908.40" xlink:href="#hl"/>
<use x="168.00" y="902.40" xlink:href="#hl"/>
<use x="168.00" y="896.40" xlink:href="#hl"/>
<use x="168.00" y="890.40" xlink:href="#hl"/>
<use x="168.00" y="884.40" xlink:href="#hl"/>
<use x="168.00" y="884.40" xlink:href="#hd"/>
<path d="M164.50 884.40v42.00" class="stroke"/>
<path class="fill"
	d="M164.50 926.40c0.6 -5.6 9.6 -9 5.6 -18.4
	1.6 6 -1.3 11.6 -5.6 12.8
"/>
<use x="187.10" y="932.40" xlink:href="#hd"/>
<path d="M190.60 932.40v-21.00" class="stroke"/>
<path class="fill"
	d="M190.60 911.40c0.6 5.6 9.6 9 5.6 18.4
	1.6 -6 -1.3 -11.6 -5.6 -12.8
"/>
<use x="208.80" y="908.40" xlink:href="#hl"/>
<use x="208.80" y="905.40" xlink:href="#hd"/>
<path d="M205.30 905.40v21.00" class="stroke"/>
<path class="fill"
	d="M205.30 926.40c0.6 -5.6 9.6 -9 5.6 -18.4
	1.6 6 -1.3 11.6 -5.6 12.8
"/>
<use x="230.20" y="908.40" xlink:href="#hl"/>
<use x="230.20" y="902.40" xlink:href="#hl"/>
<use x="230.20" y="899.40" xlink:href="#hd"/>
<path d="M226.70 899.40v27.00" class="stroke"/>
<path class="fill"
	d="M226.70 926.40c0.6 -5.6 9.6 -9 5.6 -18.4
	1.6 6 -1.3 11.6 -5.6 12.8
"/>
<use x="251.50" y="908.40" xlink:href="#hl"/>
<use x="251.50" y="902.40" xlink:href="#hl"/>
<use x="251.50" y="896.40" xlink:href="#hl"/>
<use x="251.50" y="893.40" xlink:href="#hd"/>
<path d="M248.00 893.40v33.00" class="stroke"/>
<path class="fill"
	d="M248.00 926.40c0.6 -5.6 9.6 -9 5.6 -18.4
	1.6 6 -1.3 11.6 -5.6 12.8
"/>
<use x="279.30" y="920.40" xlink:href="#hd"/>
<path d="M275.80 920.40v21.00" class="stroke"/>
<path class="fill"
	d="M275.80 941.40c0.6 -5.6 9.6 -9 5.6 -18.4
	1.6 6 -1.3 11.6 -5.6 12.8
"/>
<use x="300.50" y="908.40" xlink:href="#hl"/>
<use x="300.50" y="902.40" xlink:href="#hl"/>
<use x="300.50" y="896.40" xlink:href="#hl"/>
<use x="300.50" y="893.40" xlink:href="#hd"/>
<path d="M297.00 893.40v33.00" class="stroke"/>
<path class="fill"
	d="M297.00 926.40c0.6 -5.6 9.6 -9 5.6 -18.4
	1.6 6 -1.3 11.6 -5.6 12.8
"/>
<use x="321.80" y="908.40" xlink:href="#hl"/>
<use x="321.80" y="902.40" xlink:href="#hl"/>
<use x="321.80" y="896.40" xlink:href="#hl"/>
<use x="321.80" y="890.40" xlink:href="#hl"/>
<use x="321.80" y="887.40" xlink:href="#hd"/>
<path d="M318.30 887.40v39.00" class="stroke"/>
<path class="fill"
	d="M318.30 926.40c0.6 -5.6 9.6 -9 5.6 -18.4
	1.6 6 -1.3 11.6 -5.6 12.8
"/>
<use x="343.10" y="908.40" xlink:href="#hl"/>
<use x="343.10" y="902.40" xlink:href="#hl"/>
<use x="343.10" y="896.40" xlink:href="#hl"/>
<use x="343.10" y="890.40" xlink:href="#hl"/>
<use x="343.10" y="884.40" xlink:href="#hl"/>
<use x="343.10" y="881.40" xlink:href="#hd"/>
<path d="M339.60 881.40v45.00" class="stroke"/>
<path class="fill"
	d="M339.60 926.40c0.6 -5.6 9.6 -9 5.6 -18.4
	1.6 6 -1.3 11.6 -5.6 12.8
"/>
<use x="364.50" y="908.40" xlink:href="#hl"/>
<use x="364.50" y="902.40" xlink:href="#hl"/>
<use x="364.50" y="896.40" xlink:href="#hl"/>
<use x="364.50" y="890.40" xlink:href="#hl"/>
<use x="364.50" y="884.40" xlink:href="#hl"/>
<use x="364.50" y="878.40" xlink:href="#hl"/>
<use x="364.50" y="878.40" xlink:href="#hd"/>
<path d="M361.00 878.40v48.00" class="stroke"/>
<path class="fill"
	d="M361.00 926.40c0.6 -5.6 9.6 -9 5.6 -18.4
	1.6 6 -1.3 11.6 -5.6 12.8
"/>
<use x="385.80" y="908.40" xlink:href="#hl"/>
<use x="385.80" y="902.40" xlink:href="#hl"/>
<use x="385.80" y="896.40" xlink:href="#hl"/>
<use x="385.80" y="890.40" xlink:href="#hl"/>
<use x="385.80" y="884.40" xlink:href="#hl"/>
<use x="385.80" y="878.40" xlink:href="#hl"/>
<use x="385.80" y="872.40" xlink:href="#hl"/>
<use x="385.80" y="872.40" xlink:href="#hd"/>
<path d="M382.30 872.40v54.00" class="stroke"/>
<path class="fill"
	d="M382.30 926.40c0.6 -5.6 9.6 -9 5.6 -18.4
	1.6 6 -1.3 11.6 -5.6 12.8
"/>
<use x="427.10" y="914.40" xlink:href="#HD"/>
<use x="427.10" y="932.40" xlink:href="#HD"/>
<use x="427.10" y="926.40" xlink:href="#HD"/>
<use x="427.10" y="920.40" xlink:href="#HD"/>
<use x="528.50" y="944.40" xlink:href="#hl"/>
<use x="528.50" y="950.40" xlink:href="#hl"/>
<use x="528.50" y="953.40" xlink:href="#hd"/>
<path d="M532.00 953.40v-40.00" class="stroke"/>
<path class="fill"
	d="M532.00 913.40c0.6 5.6 9.6 9 5.6 18.4
	1.6 -6 -1.3 -11.6 -5.6 -12.8
"/>
<use x="528.50" y="932.40" xlink:href="#hd"/>
<use x="550.20" y="908.40" xlink:href="#hl"/>
<use x="550.20" y="905.40" xlink:href="#hd"/>
<path d="M546.70 905.40v21.00" class="stroke"/>
<path class="fill"
	d="M546.70 926.40c0.6 -5.6 9.6 -9 5.6 -18.4
	1.6 6 -1.3 11.6 -5.6 12.8
"/>
<use x="571.50" y="908.40" xlink:href="#hl"/>
<use x="571.50" y="902.40" xlink:href="#hl"/>
<use x="571.50" y="899.40" xlink:href="#hd"/>
<path d="M568.00 899.40v27.00" class="stroke"/>
<path class="fill"
	d="M568.00 926.40c0.6 -5.6 9.6 -9 5.6 -18.4
	1.6 6 -1.3 11.6 -5.6 12.8
"/>
<use x="592.80" y="908.40" xlink:href="#hl"/>
<use x="592.80" y="902.40" xlink:href="#hl"/>
<use x="592.80" y="896.40" xlink:href="#hl"/>
<use x="592.80" y="893.40" xlink:href="#hd"/>
<path d="M589.30 893.40v33.00" class="stroke"/>
<path class="fill"
	d="M589.30 926.40c0.6 -5.6 9.6 -9 5.6 -18.4
	1.6 6 -1.3 11.6 -5.6 12.8
"/>
<use x="614.10" y="908.40" xlink:href="#hl"/>
<use x="614.10" y="902.40" xlink:href="#hl"/>
<use x="614.10" y="896.40" xlink:href="#hl"/>
<use x="614.10" y="890.40" xlink:href="#hl"/>
<use x="614.10" y="890.40" xlink:href="#hd"/>
<path d="M610.60 890.40v36.00" class="stroke"/>
<path class="fill"
	d="M610.60 926.40c0.6 -5.6 9.6 -9 5.6 -18.4
	1.6 6 -1.3 11.6 -5.6 12.8
"/>
<use x="635.50" y="908.40" xlink:href="#hl"/>
<use x="635.50" y="902.40" xlink:href="#hl"/>
<use x="635.50" y="896.40" xlink:href="#hl"/>
<use x="635.50" y="890.40" xlink:href="#hl"/>
<use x="635.50" y="884.40" xlink:href="#hl"/>
<use x="635.50" y="884.40" xlink:href="#hd"/>
<path d="M632.00 884.40v42.00" class="stroke"/>
<path class="fill"
	d="M632.00 926.40c0.6 -5.6 9.6 -9 5.6 -18.4
	1.6 6 -1.3 11.6 -5.6 12.8
"/>
<use x="654.60" y="932.40" xlink:href="#hd"/>
<path d="M658.10 932.40v-21.00" class="stroke"/>
<path class="fill"
	d="M658.10 911.40c0.6 5.6 9.6 9 5.6 18.4
	1.6 -6 -1.3 -11.6 -5.6 -12.8
"/>
<use x="676.30" y="908.40" xlink:href="#hl"/>
<use x="676.30" y="905.40" xlink:href="#hd"/>
<path d="M672.80 905.40v21.00" class="stroke"/>
<path class="fill"
	d="M672.80 926.40c0.6 -5.6 9.6 -9 5.6 -18.4
	1.6 6 -1.3 11.6 -5.6 12.8
"/>
<g transform="rotate(270)">
<use x="-935.40" y="413.60" xlink:href="#ltr"/>
<use x="-929.40" y="413.60" xlink:href="#ltr"/>
<use x="-923.40" y="413.60" xlink:href="#ltr"/>
<use x="-917.40" y="413.60" xlink:href="#ltr"/>
</g>
<text x="520.70" y="829.40" style="font:bold italic 30px serif">,</text>
</g>
<g stroke-width="0.70" style="font:italic 11.00px Times">
<path class="stroke" stroke-width="1"
	d="M10.00 1094.80v-97.00"/>
<g transform="translate(10.00,997.80) scale(1,0.97)">
	<use xlink:href="#brace"/>
</g>
<path class="stroke" stroke-width="1"
	d="M222.10 1021.80v-24.00"/>
<path class="stroke" stroke-width="1"
	d="M222.10 1094.80v-24.00"/>
<path class="stroke" stroke-width="1"
	d="M330.50 1021.80v-24.00"/>
<path class="stroke" stroke-width="1"
	d="M330.50 1094.80v-24.00"/>
<path class="stroke" stroke-width="1"
	d="M409.20 1021.80v-24.00"/>
<path class="stroke" stroke-width="1"
	d="M409.20 1094.80v-24.00"/>
<path class="stroke" stroke-width="1"
	d="M550.40 1021.80v-24.00"/>
<path class="stroke" stroke-width="1"
	d="M550.40 1094.80v-24.00"/>
<path class="stroke" stroke-width="1"
	d="M691.60 1021.80v-24.00"/>
<path class="stroke" stroke-width="1"
	d="M691.60 1094.80v-24.00"/>
<path d="m10.00 1021.80
	h681.60
	M10.00 1015.80
	h681.60
	M10.00 1009.80
	h681.60
	M10.00 1003.80
	h681.60
	M10.00 997.80
	h681.60
	" class="stroke"/>
<path d="m10.00 1094.80
	h681.60
	M10.00 1088.80
	h681.60
	M10.00 1082.80
	h681.60
	M10.00 1076.80
	h681.60
	M10.00 1070.80
	h681.60
	" class="stroke"/>
</g>
<g stroke-width="0.70" style="font:bold 13.00px Times">
<text x="53.00" y="993.20">ii<tspan
	 style="font:italic 11.00px Times">m⁷¹</tspan></text>
</g>
<g stroke-width="0.70" style="font:bold 13.00px Times">
<text x="228.90" y="991.20">I<tspan
	 style="font:italic 11.00px Times">Δ⁷</tspan></text>
</g>
<g stroke-width="0.70" style="font:bold 13.00px Times">
<text x="347.50" y="971.20">IV<tspan
	 style="font:italic 11.00px Times">Δ⁷</tspan></text>
</g>
<g stroke-width="0.70" style="font:bold 13.00px Times">
<text x="416.50" y="993.20">I<tspan
	 style="font:italic 11.00px Times">Δ⁷</tspan></text>
</g>
<g stroke-width="0.70" style="font:bold 13.00px Times">
<text x="557.70" y="993.20">I<tspan
	 style="font:italic 11.00px Times">Δ⁷</tspan></text>
</g>
<g stroke-width="0.70" style="font:italic 11.00px Times">
<use x="22.00" y="1015.80" xlink:href="#tclef"/>
<use x="37.00" y="1009.80" xlink:href="#ft0"/>
<use x="42.50" y="1000.80" xlink:href="#ft0"/>
<use x="61.00" y="1006.80" xlink:href="#Hd"/>
<path d="M57.50 1006.80v21.00" class="stroke"/>
<use x="127.90" y="1006.80" xlink:href="#Hd"/>
<circle class="fill" cx="136.60" cy="1006.80" r="1.2"/>
<path d="M124.40 1006.80v21.00" class="stroke"/>
<use x="234.60" y="1003.80" xlink:href="#hd"/>
<path d="M231.10 1003.80v21.00" class="stroke"/>
<use x="268.60" y="1000.80" xlink:href="#Hd"/>
<path d="M265.10 1000.80v21.00" class="stroke"/>
<use x="355.50" y="991.80" xlink:href="#hl"/>
<use x="355.50" y="985.80" xlink:href="#hl"/>
<use x="355.50" y="979.80" xlink:href="#hl"/>
<use x="355.50" y="979.80" xlink:href="#Hd"/>
<path d="M352.00 979.80v40.00" class="stroke"/>
<use x="355.50" y="1000.80" xlink:href="#Hd"/>
<use x="386.50" y="991.80" xlink:href="#hl"/>
<use x="386.50" y="985.80" xlink:href="#hl"/>
<use x="386.50" y="982.80" xlink:href="#Hd"/>
<path d="M383.00 982.80v40.00" class="stroke"/>
<use x="386.50" y="1003.80" xlink:href="#Hd"/>
<use x="422.20" y="1003.80" xlink:href="#Hd"/>
<path d="M418.70 1003.80v21.00" class="stroke"/>
<use x="489.20" y="1003.80" xlink:href="#Hd"/>
<path d="M485.70 1003.80v21.00" class="stroke"/>
<use x="563.40" y="1009.80" xlink:href="#Hd"/>
<path d="M559.90 1009.80v21.00" class="stroke"/>
<use x="630.30" y="1006.80" xlink:href="#Hd"/>
<path d="M626.80 1006.80v21.00" class="stroke"/>
<use x="22.00" y="1076.80" xlink:href="#bclef"/>
<use x="37.00" y="1088.80" xlink:href="#ft0"/>
<use x="42.50" y="1079.80" xlink:href="#ft0"/>
<use x="61.00" y="1085.80" xlink:href="#hd"/>
<path d="M64.50 1085.80v-21.00" class="stroke"/>
<path class="fill"
	d="M64.50 1064.80c0.6 5.6 9.6 9 5.6 18.4
	1.6 -6 -1.3 -11.6 -5.6 -12.8
"/>
<use x="78.50" y="1064.80" xlink:href="#hl"/>
<use x="78.50" y="1058.80" xlink:href="#hl"/>
<use x="78.50" y="1058.80" xlink:href="#hd"/>
<path d="M75.00 1058.80v24.00" class="stroke"/>
<path class="fill"
	d="M75.00 1082.80c0.6 -5.6 9.6 -9 5.6 -18.4
	1.6 6 -1.3 11.6 -5.6 12.8
"/>
<use x="95.00" y="1064.80" xlink:href="#hl"/>
<use x="95.00" y="1058.80" xlink:href="#hl"/>
<use x="95.00" y="1052.80" xlink:href="#hl"/>
<use x="95.00" y="1052.80" xlink:href="#hd"/>
<path d="M91.50 1052.80v30.00" class="stroke"/>
<path class="fill"
	d="M91.50 1082.80c0.6 -5.6 9.6 -9 5.6 -18.4
	1.6 6 -1.3 11.6 -5.6 12.8
"/>
<use x="111.50" y="1064.80" xlink:href="#hl"/>
<use x="111.50" y="1058.80" xlink:href="#hl"/>
<use x="111.50" y="1052.80" xlink:href="#hl"/>
<use x="111.50" y="1046.80" xlink:href="#hl"/>
<use x="111.50" y="1046.80" xlink:href="#hd"/>
<path d="M108.00 1046.80v36.00" class="stroke"/>
<path class="fill"
	d="M108.00 1082.80c0.6 -5.6 9.6 -9 5.6 -18.4
	1.6 6 -1.3 11.6 -5.6 12.8
"/>
<use x="127.90" y="1064.80" xlink:href="#hl"/>
<use x="127.90" y="1058.80" xlink:href="#hl"/>
<use x="127.90" y="1052.80" xlink:href="#hl"/>
<use x="127.90" y="1046.80" xlink:href="#hl"/>
<use x="127.90" y="1043.80" xlink:href="#hd"/>
<path d="M124.40 1043.80v39.00" class="stroke"/>
<path class="fill"
	d="M124.40 1082.80c0.6 -5.6 9.6 -9 5.6 -18.4
	1.6 6 -1.3 11.6 -5.6 12.8
"/>
<use x="144.40" y="1064.80" xlink:href="#hl"/>
<use x="144.40" y="1058.80" xlink:href="#hl"/>
<use x="144.40" y="1052.80" xlink:href="#hl"/>
<use x="144.40" y="1046.80" xlink:href="#hl"/>
<use x="144.40" y="1040.80" xlink:href="#hl"/>
<use x="144.40" y="1037.80" xlink:href="#hd"/>
<path d="M140.90 1037.80v45.00" class="stroke"/>
<path class="fill"
	d="M140.90 1082.80c0.6 -5.6 9.6 -9 5.6 -18.4
	1.6 6 -1.3 11.6 -5.6 12.8
"/>
<use x="159.10" y="1085.80" xlink:href="#hd"/>
<path d="M162.60 1085.80v-21.00" class="stroke"/>
<path class="fill"
	d="M162.60 1064.80c0.6 5.6 9.6 9 5.6 18.4
	1.6 -6 -1.3 -11.6 -5.6 -12.8
"/>
<use x="176.70" y="1064.80" xlink:href="#hl"/>
<use x="176.70" y="1058.80" xlink:href="#hl"/>
<use x="176.70" y="1058.80" xlink:href="#hd"/>
<path d="M173.20 1058.80v24.00" class="stroke"/>
<path class="fill"
	d="M173.20 1082.80c0.6 -5.6 9.6 -9 5.6 -18.4
	1.6 6 -1.3 11.6 -5.6 12.8
"/>
<use x="193.10" y="1064.80" xlink:href="#hl"/>
<use x="193.10" y="1058.80" xlink:href="#hl"/>
<use x="193.10" y="1052.80" xlink:href="#hl"/>
<use x="193.10" y="1052.80" xlink:href="#hd"/>
<path d="M189.60 1052.80v30.00" class="stroke"/>
<path class="fill"
	d="M189.60 1082.80c0.6 -5.6 9.6 -9 5.6 -18.4
	1.6 6 -1.3 11.6 -5.6 12.8
"/>
<use x="209.60" y="1064.80" xlink:href="#hl"/>
<use x="209.60" y="1058.80" xlink:href="#hl"/>
<use x="209.60" y="1052.80" xlink:href="#hl"/>
<use x="209.60" y="1046.80" xlink:href="#hl"/>
<use x="209.60" y="1046.80" xlink:href="#hd"/>
<path d="M206.10 1046.80v36.00" class="stroke"/>
<path class="fill"
	d="M206.10 1082.80c0.6 -5.6 9.6 -9 5.6 -18.4
	1.6 6 -1.3 11.6 -5.6 12.8
"/>
<use x="234.60" y="1088.80" xlink:href="#hd"/>
<path d="M238.10 1088.80v-21.00" class="stroke"/>
<path class="fill"
	d="M238.10 1067.80c0.6 5.6 9.6 9 5.6 18.4
	1.6 -6 -1.3 -11.6 -5.6 -12.8
"/>
<use x="252.10" y="1064.80" xlink:href="#hl"/>
<use x="252.10" y="1061.80" xlink:href="#hd"/>
<path d="M248.60 1061.80v21.00" class="stroke"/>
<path class="fill"
	d="M248.60 1082.80c0.6 -5.6 9.6 -9 5.6 -18.4
	1.6 6 -1.3 11.6 -5.6 12.8
"/>
<use x="268.60" y="1064.80" xlink:href="#hl"/>
<use x="268.60" y="1058.80" xlink:href="#hl"/>
<use x="268.60" y="1055.80" xlink:href="#hd"/>
<path d="M265.10 1055.80v27.00" class="stroke"/>
<path class="fill"
	d="M265.10 1082.80c0.6 -5.6 9.6 -9 5.6 -18.4
	1.6 6 -1.3 11.6 -5.6 12.8
"/>
<use x="285.10" y="1064.80" xlink:href="#hl"/>
<use x="285.10" y="1058.80" xlink:href="#hl"/>
<use x="285.10" y="1052.80" xlink:href="#hl"/>
<use x="285.10" y="1049.80" xlink:href="#hd"/>
<path d="M281.60 1049.80v33.00" class="stroke"/>
<path class="fill"
	d="M281.60 1082.80c0.6 -5.6 9.6 -9 5.6 -18.4
	1.6 6 -1.3 11.6 -5.6 12.8
"/>
<use x="301.50" y="1064.80" xlink:href="#hl"/>
<use x="301.50" y="1058.80" xlink:href="#hl"/>
<use x="301.50" y="1052.80" xlink:href="#hl"/>
<use x="301.50" y="1046.80" xlink:href="#hl"/>
<use x="301.50" y="1046.80" xlink:href="#hd"/>
<path d="M298.00 1046.80v36.00" class="stroke"/>
<path class="fill"
	d="M298.00 1082.80c0.6 -5.6 9.6 -9 5.6 -18.4
	1.6 6 -1.3 11.6 -5.6 12.8
"/>
<use x="318.00" y="1064.80" xlink:href="#hl"/>
<use x="318.00" y="1058.80" xlink:href="#hl"/>
<use x="318.00" y="1052.80" xlink:href="#hl"/>
<use x="318.00" y="1046.80" xlink:href="#hl"/>
<use x="318.00" y="1040.80" xlink:href="#hl"/>
<use x="318.00" y="1040.80" xlink:href="#hd"/>
<path d="M314.50 1040.80v42.00" class="stroke"/>
<path class="fill"
	d="M314.50 1082.80c0.6 -5.6 9.6 -9 5.6 -18.4
	1.6 6 -1.3 11.6 -5.6 12.8
"/>
<use x="356.50" y="1064.80" xlink:href="#hl1"/>
<use x="356.50" y="1061.80" xlink:href="#HD"/>
<use x="356.50" y="1079.80" xlink:href="#HD"/>
<use x="356.50" y="1073.80" xlink:href="#HD"/>
<use x="356.50" y="1067.80" xlink:href="#HD"/>
<use x="422.20" y="1100.80" xlink:href="#hl"/>
<use x="422.20" y="1106.80" xlink:href="#hl"/>
<use x="422.20" y="1109.80" xlink:href="#hd"/>
<path d="M425.70 1109.80v-40.00" class="stroke"/>
<path class="fill"
	d="M425.70 1069.80c0.6 5.6 9.6 9 5.6 18.4
	1.6 -6 -1.3 -11.6 -5.6 -12.8
"/>
<use x="422.20" y="1088.80" xlink:href="#hd"/>
<use x="439.80" y="1064.80" xlink:href="#hl"/>
<use x="439.80" y="1061.80" xlink:href="#hd"/>
<path d="M436.30 1061.80v21.00" class="stroke"/>
<path class="fill"
	d="M436.30 1082.80c0.6 -5.6 9.6 -9 5.6 -18.4
	1.6 6 -1.3 11.6 -5.6 12.8
"/>
<use x="456.20" y="1064.80" xlink:href="#hl"/>
<use x="456.20" y="1058.80" xlink:href="#hl"/>
<use x="456.20" y="1055.80" xlink:href="#hd"/>
<path d="M452.70 1055.80v27.00" class="stroke"/>
<path class="fill"
	d="M452.70 1082.80c0.6 -5.6 9.6 -9 5.6 -18.4
	1.6 6 -1.3 11.6 -5.6 12.8
"/>
<use x="472.70" y="1064.80" xlink:href="#hl"/>
<use x="472.70" y="1058.80" xlink:href="#hl"/>
<use x="472.70" y="1052.80" xlink:href="#hl"/>
<use x="472.70" y="1049.80" xlink:href="#hd"/>
<path d="M469.20 1049.80v33.00" class="stroke"/>
<path class="fill"
	d="M469.20 1082.80c0.6 -5.6 9.6 -9 5.6 -18.4
	1.6 6 -1.3 11.6 -5.6 12.8
"/>
<use x="489.20" y="1064.80" xlink:href="#hl"/>
<use x="489.20" y="1058.80" xlink:href="#hl"/>
<use x="489.20" y="1052.80" xlink:href="#hl"/>
<use x="489.20" y="1046.80" xlink:href="#hl"/>
<use x="489.20" y="1046.80" xlink:href="#hd"/>
<path d="M485.70 1046.80v36.00" class="stroke"/>
<path class="fill"
	d="M485.70 1082.80c0.6 -5.6 9.6 -9 5.6 -18.4
	1.6 6 -1.3 11.6 -5.6 12.8
"/>
<use x="505.60" y="1064.80" xlink:href="#hl"/>
<use x="505.60" y="1058.80" xlink:href="#hl"/>
<use x="505.60" y="1052.80" xlink:href="#hl"/>
<use x="505.60" y="1046.80" xlink:href="#hl"/>
<use x="505.60" y="1040.80" xlink:href="#hl"/>
<use x="505.60" y="1040.80" xlink:href="#hd"/>
<path d="M502.10 1040.80v42.00" class="stroke"/>
<path class="fill"
	d="M502.10 1082.80c0.6 -5.6 9.6 -9 5.6 -18.4
	1.6 6 -1.3 11.6 -5.6 12.8
"/>
<use x="520.40" y="1088.80" xlink:href="#hd"/>
<path d="M523.90 1088.80v-21.00" class="stroke"/>
<path class="fill"
	d="M523.90 1067.80c0.6 5.6 9.6 9 5.6 18.4
	1.6 -6 -1.3 -11.6 -5.6 -12.8
"/>
<use x="537.90" y="1064.80" xlink:href="#hl"/>
<use x="537.90" y="1061.80" xlink:href="#hd"/>
<path d="M534.40 1061.80v21.00" class="stroke"/>
<path class="fill"
	d="M534.40 1082.80c0.6 -5.6 9.6 -9 5.6 -18.4
	1.6 6 -1.3 11.6 -5.6 12.8
"/>
<use x="563.40" y="1088.80" xlink:href="#hd"/>
<path d="M566.90 1088.80v-21.00" class="stroke"/>
<path class="fill"
	d="M566.90 1067.80c0.6 5.6 9.6 9 5.6 18.4
	1.6 -6 -1.3 -11.6 -5.6 -12.8
"/>
<use x="581.00" y="1064.80" xlink:href="#hl"/>
<use x="581.00" y="1061.80" xlink:href="#hd"/>
<path d="M577.50 1061.80v21.00" class="stroke"/>
<path class="fill"
	d="M577.50 1082.80c0.6 -5.6 9.6 -9 5.6 -18.4
	1.6 6 -1.3 11.6 -5.6 12.8
"/>
<use x="597.40" y="1064.80" xlink:href="#hl"/>
<use x="597.40" y="1058.80" xlink:href="#hl"/>
<use x="597.40" y="1055.80" xlink:href="#hd"/>
<path d="M593.90 1055.80v27.00" class="stroke"/>
<path class="fill"
	d="M593.90 1082.80c0.6 -5.6 9.6 -9 5.6 -18.4
	1.6 6 -1.3 11.6 -5.6 12.8
"/>
<use x="613.90" y="1064.80" xlink:href="#hl"/>
<use x="613.90" y="1058.80" xlink:href="#hl"/>
<use x="613.90" y="1052.80" xlink:href="#hl"/>
<use x="613.90" y="1049.80" xlink:href="#hd"/>
<path d="M610.40 1049.80v33.00" class="stroke"/>
<path class="fill"
	d="M610.40 1082.80c0.6 -5.6 9.6 -9 5.6 -18.4
	1.6 6 -1.3 11.6 -5.6 12.8
"/>
<use x="630.30" y="1064.80" xlink:href="#hl"/>
<use x="630.30" y="1058.80" xlink:href="#hl"/>
<use x="630.30" y="1052.80" xlink:href="#hl"/>
<use x="630.30" y="1046.80" xlink:href="#hl"/>
<use x="630.30" y="1046.80" xlink:href="#hd"/>
<path d="M626.80 1046.80v36.00" class="stroke"/>
<path class="fill"
	d="M626.80 1082.80c0.6 -5.6 9.6 -9 5.6 -18.4
	1.6 6 -1.3 11.6 -5.6 12.8
"/>
<use x="646.80" y="1064.80" xlink:href="#hl"/>
<use x="646.80" y="1058.80" xlink:href="#hl"/>
<use x="646.80" y="1052.80" xlink:href="#hl"/>
<use x="646.80" y="1046.80" xlink:href="#hl"/>
<use x="646.80" y="1040.80" xlink:href="#hl"/>
<use x="646.80" y="1040.80" xlink:href="#hd"/>
<path d="M643.30 1040.80v42.00" class="stroke"/>
<path class="fill"
	d="M643.30 1082.80c0.6 -5.6 9.6 -9 5.6 -18.4
	1.6 6 -1.3 11.6 -5.6 12.8
"/>
<use x="661.50" y="1088.80" xlink:href="#hd"/>
<path d="M665.00 1088.80v-21.00" class="stroke"/>
<path class="fill"
	d="M665.00 1067.80c0.6 5.6 9.6 9 5.6 18.4
	1.6 -6 -1.3 -11.6 -5.6 -12.8
"/>
<use x="679.10" y="1064.80" xlink:href="#hl"/>
<use x="679.10" y="1061.80" xlink:href="#hd"/>
<path d="M675.60 1061.80v21.00" class="stroke"/>
<path class="fill"
	d="M675.60 1082.80c0.6 -5.6 9.6 -9 5.6 -18.4
	1.6 6 -1.3 11.6 -5.6 12.8
"/>
<g transform="rotate(270)">
<use x="-1082.80" y="343.00" xlink:href="#ltr"/>
<use x="-1076.80" y="343.00" xlink:href="#ltr"/>
<use x="-1070.80" y="343.00" xlink:href="#ltr"/>
<use x="-1064.80" y="343.00" xlink:href="#ltr"/>
</g>
<text x="414.40" y="988.80" style="font:bold italic 30px serif">,</text>
</g>
<g stroke-width="0.70" style="font:italic 11.00px Times">
<path class="stroke" stroke-width="1"
	d="M10.00 1236.80v-92.00"/>
<g transform="translate(10.00,1144.80) scale(1,0.92)">
	<use xlink:href="#brace"/>
</g>
<path class="stroke" stroke-width="1"
	d="M172.20 1168.80v-24.00"/>
<path class="stroke" stroke-width="1"
	d="M172.20 1236.80v-24.00"/>
<path d="m10.00 1168.80
	h162.20
	M10.00 1162.80
	h162.20
	M10.00 1156.80
	h162.20
	M10.00 1150.80
	h162.20
	M10.00 1144.80
	h162.20
	" class="stroke"/>
<path d="m10.00 1236.80
	h162.20
	M10.00 1230.80
	h162.20
	M10.00 1224.80
	h162.20
	M10.00 1218.80
	h162.20
	M10.00 1212.80
	h162.20
	" class="stroke"/>
</g>
<g stroke-width="0.70" style="font:bold 13.00px Times">
<text x="70.10" y="1130.20">V<tspan
	 style="font:italic 11.00px Times">⁷</tspan></text>
</g>
<g stroke-width="0.70" style="font:italic 11.00px Times">
<use x="22.00" y="1162.80" xlink:href="#tclef"/>
<use x="37.00" y="1156.80" xlink:href="#ft0"/>
<use x="42.50" y="1147.80" xlink:href="#ft0"/>
<use x="76.00" y="1138.80" xlink:href="#hl"/>
<use x="76.00" y="1138.80" xlink:href="#Hd"/>
<path d="M72.50 1138.80v40.00" class="stroke"/>
<use x="76.00" y="1159.80" xlink:href="#Hd"/>
<use x="132.60" y="1138.80" xlink:href="#hl"/>
<use x="132.60" y="1135.80" xlink:href="#Hd"/>
<path d="M129.10 1135.80v40.00" class="stroke"/>
<use x="132.60" y="1156.80" xlink:href="#Hd"/>
<use x="22.00" y="1218.80" xlink:href="#bclef"/>
<use x="37.00" y="1230.80" xlink:href="#ft0"/>
<use x="42.50" y="1221.80" xlink:href="#ft0"/>
<use x="77.00" y="1206.80" xlink:href="#hl1"/>
<use x="77.00" y="1200.80" xlink:href="#hl1"/>
<use x="77.00" y="1200.80" xlink:href="#HD"/>
<use x="77.00" y="1239.80" xlink:href="#HD"/>
<use x="77.00" y="1218.80" xlink:href="#HD"/>
<use x="77.00" y="1212.80" xlink:href="#HD"/>
<use x="77.00" y="1206.80" xlink:href="#HD"/>
<defs>
<g id="hld" class="fill">
	<circle cx="0" cy="-3" r="1.3"/>
	<path d="m-7.5 -1.5
		c0 -11.5 15 -11.5 15 0
		h-0.25
		c-1.25 -9 -13.25 -9 -14.5 0"/>
</g>
</defs>
<use x="76.00" y="1194.80" xlink:href="#hld"/>
<g transform="rotate(270)">
<use x="-1242.80" y="63.50" xlink:href="#ltr"/>
<use x="-1236.80" y="63.50" xlink:href="#ltr"/>
<use x="-1230.80" y="63.50" xlink:href="#ltr"/>
<use x="-1224.80" y="63.50" xlink:href="#ltr"/>
<use x="-1218.80" y="63.50" xlink:href="#ltr"/>
<use x="-1212.80" y="63.50" xlink:href="#ltr"/>
<use x="-1206.80" y="63.50" xlink:href="#ltr"/>
<use x="-1200.80" y="63.50" xlink:href="#ltr"/>
</g>
<use x="132.60" y="1129.80" xlink:href="#hld"/>
<g transform="rotate(270)">
<use x="-1159.80" y="122.60" xlink:href="#ltr"/>
<use x="-1153.80" y="122.60" xlink:href="#ltr"/>
<use x="-1147.80" y="122.60" xlink:href="#ltr"/>
<use x="-1141.80" y="122.60" xlink:href="#ltr"/>
<use x="-1135.80" y="122.60" xlink:href="#ltr"/>
</g>
</g>
</svg>
