<?xml version="1.0" standalone="no"?>
<!DOCTYPE svg PUBLIC "-//W3C//DTD SVG 1.1//EN"
	"http://www.w3.org/Graphics/SVG/1.1/DTD/svg11.dtd">
<svg xmlns="http://www.w3.org/2000/svg" version="1.1"
	xmlns:xlink="http://www.w3.org/1999/xlink"
	color="black"
	width="701.60px" height="491.80px" viewBox="0 0 701.60 491.80" preserveAspectRatio="xMidYMid meet">
<style type="text/css">
.fill {fill: currentColor}
.stroke {stroke: currentColor; fill: none}
text{white-space: pre}
</style>
<title>/tmp/boddie_hymnal_stage/jesus_loves_me.abc (1) tune 1</title>
<!-- Creator: abcm2ps-8.14.11 -->
<!-- CreationDate: Apr 30, 2026 12:59 -->
<!-- CommandLine: /tmp/boddie_hymnal_stage/jesus_loves_me.abc -g -O /tmp/boddie_hymnal_stage/jesus_loves_me -->
<g stroke-width="0.70">
<!-- title: 124. Jesus Loves Me -->
</g>
<g stroke-width="0.70" style="font:20.00px Times">
<text x="350.80" y="22.00" text-anchor="middle">124. Jesus Loves Me</text>
</g>
<g stroke-width="0.70" transform="scale(0.700)" style="font:20.00px Times">
<defs>
<ellipse id="hd" rx="4.1" ry="2.9"
	transform="rotate(-20)" class="fill"/>
</defs>
<use x="118.00" y="75.57" xlink:href="#hd"/>
<path d="M121.50 75.57v-21.00" class="stroke"/>
</g>
<g stroke-width="0.70" style="font:bold 15.00px Times">
<text x="90.30" y="55.00">= 72Slowly, with great expression</text>
<path class="stroke" stroke-width="1"
	d="M10.00 163.40v-85.00"/>
<defs>
<path id="brace" class="fill" d="m-2.5 101
	c-4.5 -4.6 -7.5 -12.2 -4.4 -26.8
	3.5 -14.3 3.2 -21.7 -2.1 -24.2
	7.4 2.4 7.3 14.2 3.5 29.5
	-2.7 9.5 -1.5 16.2 3 21.5
	M-2.5 1c-4.5 4.6 -7.5 12.2 -4.4 26.8
	c3.5 14.3 3.2 21.7 -2.1 24.2
	7.4 -2.4 7.3 -14.2 3.5 -29.5
	-2.7 -9.5 -1.5 -16.2 3 -21.5"/>
</defs>
<g transform="translate(10.00,78.40) scale(1,0.85)">
	<use xlink:href="#brace"/>
</g>
<path class="stroke" stroke-width="1"
	d="M233.30 102.40v-24.00"/>
<path class="stroke" stroke-width="1"
	d="M233.30 163.40v-24.00"/>
<path class="stroke" stroke-width="1"
	d="M398.90 102.40v-24.00"/>
<path class="stroke" stroke-width="1"
	d="M398.90 163.40v-24.00"/>
<path class="stroke" stroke-width="1"
	d="M564.90 102.40v-24.00"/>
<path class="stroke" stroke-width="1"
	d="M564.90 163.40v-24.00"/>
<path class="stroke" stroke-width="1"
	d="M691.60 102.40v-24.00"/>
<path class="stroke" stroke-width="1"
	d="M691.60 163.40v-24.00"/>
<path d="m10.00 102.40
	h681.60
	M10.00 96.40
	h681.60
	M10.00 90.40
	h681.60
	M10.00 84.40
	h681.60
	M10.00 78.40
	h681.60
	" class="stroke"/>
<path d="m10.00 163.40
	h681.60
	M10.00 157.40
	h681.60
	M10.00 151.40
	h681.60
	M10.00 145.40
	h681.60
	M10.00 139.40
	h681.60
	" class="stroke"/>
</g>
<g stroke-width="0.70" style="font:bold 13.00px Times">
<text x="76.30" y="73.80">I<tspan
	 style="font:italic 11.00px Times">Δ⁷</tspan></text>
</g>
<g stroke-width="0.70" style="font:bold 13.00px Times">
<text x="240.00" y="68.80">I<tspan
	 style="font:italic 11.00px Times">Δ⁷</tspan></text>
</g>
<g stroke-width="0.70" style="font:bold 13.00px Times">
<text x="403.40" y="73.80">IV<tspan
	 style="font:italic 11.00px Times">Δ⁷</tspan></text>
</g>
<g stroke-width="0.70" style="font:bold 13.00px Times">
<text x="584.10" y="60.80">I<tspan
	 style="font:italic 11.00px Times">Δ⁷</tspan></text>
</g>
<g stroke-width="0.70" style="font:italic 11.00px Times">
<defs>
<path id="utclef" class="fill" d="m-50 -90
	c-72 -41 -72 -158 52 -188
	150 -10 220 188 90 256
	-114 52 -275 0 -293 -136
	-15 -181 93 -229 220 -334
	88 -87 79 -133 62 -210
	-51 33 -94 105 -89 186
	17 267 36 374 49 574
	6 96 -19 134 -77 135
	-80 1 -126 -93 -61 -133
	85 -41 133 101 31 105
	23 17 92 37 90 -92
	-10 -223 -39 -342 -50 -617
	0 -90 0 -162 96 -232
	56 72 63 230 22 289
	-74 106 -257 168 -255 316
	9 153 148 185 252 133
	86 -65 29 -192 -80 -176
	-71 12 -105 67 -59 124"/>
<use id="tclef" transform="translate(0,6) scale(0.045)"
	xlink:href="#utclef"/>
</defs>
<use x="22.00" y="96.40" xlink:href="#tclef"/>
<defs>
<path id="uflat" class="fill" d="
	m100 -746
	h32
	v734
	l-32 4
	m32 -332
	c46 -72 152 -90 208 -20
	100 110 -120 326 -208 348
	m0 -28
	c54 0 200 -206 130 -290
	-50 -60 -130 -4 -130 34"/>
<use id="ft0" transform="translate(-3.5,3.5) scale(0.018)"
	xlink:href="#uflat"/>
</defs>
<use x="37.00" y="90.40" xlink:href="#ft0"/>
<use x="42.50" y="81.40" xlink:href="#ft0"/>
<use x="48.00" y="93.40" xlink:href="#ft0"/>
<g style="font:bold 16px serif"
	transform="translate(64.00,101.90) scale(1.2,1)">
	<text text-anchor="middle">4</text>
	<text y="-12" text-anchor="middle">4</text>
</g>
<use x="82.00" y="90.40" xlink:href="#hd"/>
<path d="M78.50 90.40v21.00" class="stroke"/>
<use x="121.90" y="96.40" xlink:href="#hd"/>
<path d="M125.40 96.40v-21.00" class="stroke"/>
<use x="161.20" y="96.40" xlink:href="#hd"/>
<path d="M164.70 96.40v-21.00" class="stroke"/>
<use x="198.60" y="99.40" xlink:href="#hd"/>
<path d="M202.10 99.40v-21.00" class="stroke"/>
<use x="245.80" y="96.40" xlink:href="#hd"/>
<path d="M249.30 96.40v-21.00" class="stroke"/>
<use x="285.70" y="90.40" xlink:href="#hd"/>
<path d="M289.20 90.40v-21.00" class="stroke"/>
<use x="324.90" y="90.40" xlink:href="#hd"/>
<path d="M328.40 90.40v-21.00" class="stroke"/>
<use x="364.20" y="87.40" xlink:href="#hd"/>
<path d="M360.70 87.40v21.00" class="stroke"/>
<use x="411.40" y="87.40" xlink:href="#hd"/>
<path d="M407.90 87.40v21.00" class="stroke"/>
<use x="451.40" y="81.40" xlink:href="#hd"/>
<path d="M447.90 81.40v21.00" class="stroke"/>
<use x="490.90" y="87.40" xlink:href="#hd"/>
<path d="M487.40 87.40v21.00" class="stroke"/>
<use x="530.20" y="87.40" xlink:href="#hd"/>
<path d="M526.70 87.40v21.00" class="stroke"/>
<defs>
<path id="hl" class="stroke" d="m-6 0h12"/>
</defs>
<use x="589.90" y="72.40" xlink:href="#hl"/>
<use x="589.90" y="69.40" xlink:href="#hd"/>
<path d="M586.40 69.40v40.00" class="stroke"/>
<use x="589.90" y="90.40" xlink:href="#hd"/>
<use x="617.20" y="72.40" xlink:href="#hl"/>
<use x="617.20" y="69.40" xlink:href="#hd"/>
<path d="M613.70 69.40v40.00" class="stroke"/>
<use x="617.20" y="90.40" xlink:href="#hd"/>
<use x="644.60" y="72.40" xlink:href="#hl"/>
<use x="644.60" y="69.40" xlink:href="#hd"/>
<path d="M641.10 69.40v40.00" class="stroke"/>
<use x="644.60" y="90.40" xlink:href="#hd"/>
<use x="671.90" y="75.40" xlink:href="#hd"/>
<path d="M668.40 75.40v40.00" class="stroke"/>
<use x="671.90" y="96.40" xlink:href="#hd"/>
<defs>
<path id="ubclef" class="fill" d="m-200 -87
	c124 -35 222 -78 254 -236
	43 -228 -167 -246 -192 -103
	59 -80 157 22 92 78
	-62 47 -115 -22 -106 -88
	21 -141 270 -136 274 52
	-1 175 -106 264 -322 297
	m357 -250
	c0 -36 51 -34 51 0
	0 37 -51 36 -51 0
	m-2 -129
	c0 -36 51 -34 51 0
	0 38 -51 37 -51 0"/>
<use id="bclef" transform="translate(0,18) scale(0.045)"
	xlink:href="#ubclef"/>
</defs>
<use x="22.00" y="145.40" xlink:href="#bclef"/>
<use x="37.00" y="157.40" xlink:href="#ft0"/>
<use x="42.50" y="148.40" xlink:href="#ft0"/>
<use x="48.00" y="160.40" xlink:href="#ft0"/>
<g style="font:bold 16px serif"
	transform="translate(64.00,162.90) scale(1.2,1)">
	<text text-anchor="middle">4</text>
	<text y="-12" text-anchor="middle">4</text>
</g>
<use x="82.00" y="169.40" xlink:href="#hl"/>
<use x="82.00" y="175.40" xlink:href="#hl"/>
<use x="82.00" y="181.40" xlink:href="#hl"/>
<use x="82.00" y="187.40" xlink:href="#hl"/>
<use x="82.00" y="190.40" xlink:href="#hd"/>
<path d="M85.50 190.40v-40.00" class="stroke"/>
<path class="fill"
	d="M85.50 150.40c0.6 5.6 9.6 9 5.6 18.4
	1.6 -6 -1.3 -11.6 -5.6 -12.8
"/>
<use x="82.00" y="169.40" xlink:href="#hd"/>
<use x="102.30" y="142.40" xlink:href="#hd"/>
<path d="M98.80 142.40v21.00" class="stroke"/>
<path class="fill"
	d="M98.80 163.40c0.6 -5.6 9.6 -9 5.6 -18.4
	1.6 6 -1.3 11.6 -5.6 12.8
"/>
<use x="121.90" y="136.40" xlink:href="#hd"/>
<path d="M118.40 136.40v21.00" class="stroke"/>
<path class="fill"
	d="M118.40 157.40c0.6 -5.6 9.6 -9 5.6 -18.4
	1.6 6 -1.3 11.6 -5.6 12.8
"/>
<use x="141.40" y="133.40" xlink:href="#hl"/>
<use x="141.40" y="130.40" xlink:href="#hd"/>
<path d="M137.90 130.40v21.00" class="stroke"/>
<path class="fill"
	d="M137.90 151.40c0.6 -5.6 9.6 -9 5.6 -18.4
	1.6 6 -1.3 11.6 -5.6 12.8
"/>
<use x="161.20" y="133.40" xlink:href="#hl"/>
<use x="161.20" y="127.40" xlink:href="#hl"/>
<use x="161.20" y="127.40" xlink:href="#hd"/>
<path d="M157.70 127.40v24.00" class="stroke"/>
<path class="fill"
	d="M157.70 151.40c0.6 -5.6 9.6 -9 5.6 -18.4
	1.6 6 -1.3 11.6 -5.6 12.8
"/>
<use x="180.90" y="133.40" xlink:href="#hl"/>
<use x="180.90" y="127.40" xlink:href="#hl"/>
<use x="180.90" y="121.40" xlink:href="#hl"/>
<use x="180.90" y="121.40" xlink:href="#hd"/>
<path d="M177.40 121.40v30.00" class="stroke"/>
<path class="fill"
	d="M177.40 151.40c0.6 -5.6 9.6 -9 5.6 -18.4
	1.6 6 -1.3 11.6 -5.6 12.8
"/>
<use x="198.60" y="169.40" xlink:href="#hl"/>
<use x="198.60" y="169.40" xlink:href="#hd"/>
<path d="M202.10 169.40v-21.00" class="stroke"/>
<path class="fill"
	d="M202.10 148.40c0.6 5.6 9.6 9 5.6 18.4
	1.6 -6 -1.3 -11.6 -5.6 -12.8
"/>
<use x="218.90" y="142.40" xlink:href="#hd"/>
<path d="M215.40 142.40v21.00" class="stroke"/>
<path class="fill"
	d="M215.40 163.40c0.6 -5.6 9.6 -9 5.6 -18.4
	1.6 6 -1.3 11.6 -5.6 12.8
"/>
<use x="245.80" y="169.40" xlink:href="#hl"/>
<use x="245.80" y="169.40" xlink:href="#hd"/>
<path d="M249.30 169.40v-21.00" class="stroke"/>
<path class="fill"
	d="M249.30 148.40c0.6 5.6 9.6 9 5.6 18.4
	1.6 -6 -1.3 -11.6 -5.6 -12.8
"/>
<use x="266.10" y="142.40" xlink:href="#hd"/>
<path d="M262.60 142.40v21.00" class="stroke"/>
<path class="fill"
	d="M262.60 163.40c0.6 -5.6 9.6 -9 5.6 -18.4
	1.6 6 -1.3 11.6 -5.6 12.8
"/>
<use x="285.70" y="136.40" xlink:href="#hd"/>
<path d="M282.20 136.40v21.00" class="stroke"/>
<path class="fill"
	d="M282.20 157.40c0.6 -5.6 9.6 -9 5.6 -18.4
	1.6 6 -1.3 11.6 -5.6 12.8
"/>
<use x="305.20" y="133.40" xlink:href="#hl"/>
<use x="305.20" y="130.40" xlink:href="#hd"/>
<path d="M301.70 130.40v21.00" class="stroke"/>
<path class="fill"
	d="M301.70 151.40c0.6 -5.6 9.6 -9 5.6 -18.4
	1.6 6 -1.3 11.6 -5.6 12.8
"/>
<use x="324.90" y="133.40" xlink:href="#hl"/>
<use x="324.90" y="127.40" xlink:href="#hl"/>
<use x="324.90" y="127.40" xlink:href="#hd"/>
<path d="M321.40 127.40v24.00" class="stroke"/>
<path class="fill"
	d="M321.40 151.40c0.6 -5.6 9.6 -9 5.6 -18.4
	1.6 6 -1.3 11.6 -5.6 12.8
"/>
<use x="344.60" y="133.40" xlink:href="#hl"/>
<use x="344.60" y="127.40" xlink:href="#hl"/>
<use x="344.60" y="121.40" xlink:href="#hl"/>
<use x="344.60" y="121.40" xlink:href="#hd"/>
<path d="M341.10 121.40v30.00" class="stroke"/>
<path class="fill"
	d="M341.10 151.40c0.6 -5.6 9.6 -9 5.6 -18.4
	1.6 6 -1.3 11.6 -5.6 12.8
"/>
<use x="364.20" y="169.40" xlink:href="#hl"/>
<use x="364.20" y="169.40" xlink:href="#hd"/>
<path d="M367.70 169.40v-21.00" class="stroke"/>
<path class="fill"
	d="M367.70 148.40c0.6 5.6 9.6 9 5.6 18.4
	1.6 -6 -1.3 -11.6 -5.6 -12.8
"/>
<use x="384.50" y="142.40" xlink:href="#hd"/>
<path d="M381.00 142.40v21.00" class="stroke"/>
<path class="fill"
	d="M381.00 163.40c0.6 -5.6 9.6 -9 5.6 -18.4
	1.6 6 -1.3 11.6 -5.6 12.8
"/>
<use x="411.40" y="160.40" xlink:href="#hd"/>
<path d="M414.90 160.40v-21.00" class="stroke"/>
<path class="fill"
	d="M414.90 139.40c0.6 5.6 9.6 9 5.6 18.4
	1.6 -6 -1.3 -11.6 -5.6 -12.8
"/>
<use x="431.70" y="133.40" xlink:href="#hl"/>
<use x="431.70" y="133.40" xlink:href="#hd"/>
<path d="M428.20 133.40v21.00" class="stroke"/>
<path class="fill"
	d="M428.20 154.40c0.6 -5.6 9.6 -9 5.6 -18.4
	1.6 6 -1.3 11.6 -5.6 12.8
"/>
<use x="451.40" y="133.40" xlink:href="#hl"/>
<use x="451.40" y="127.40" xlink:href="#hl"/>
<use x="451.40" y="127.40" xlink:href="#hd"/>
<path d="M447.90 127.40v24.00" class="stroke"/>
<path class="fill"
	d="M447.90 151.40c0.6 -5.6 9.6 -9 5.6 -18.4
	1.6 6 -1.3 11.6 -5.6 12.8
"/>
<use x="471.20" y="133.40" xlink:href="#hl"/>
<use x="471.20" y="127.40" xlink:href="#hl"/>
<use x="471.20" y="121.40" xlink:href="#hl"/>
<use x="471.20" y="121.40" xlink:href="#hd"/>
<path d="M467.70 121.40v30.00" class="stroke"/>
<path class="fill"
	d="M467.70 151.40c0.6 -5.6 9.6 -9 5.6 -18.4
	1.6 6 -1.3 11.6 -5.6 12.8
"/>
<use x="490.90" y="133.40" xlink:href="#hl"/>
<use x="490.90" y="127.40" xlink:href="#hl"/>
<use x="490.90" y="121.40" xlink:href="#hl"/>
<use x="490.90" y="118.40" xlink:href="#hd"/>
<path d="M487.40 118.40v33.00" class="stroke"/>
<path class="fill"
	d="M487.40 151.40c0.6 -5.6 9.6 -9 5.6 -18.4
	1.6 6 -1.3 11.6 -5.6 12.8
"/>
<use x="510.60" y="133.40" xlink:href="#hl"/>
<use x="510.60" y="127.40" xlink:href="#hl"/>
<use x="510.60" y="121.40" xlink:href="#hl"/>
<use x="510.60" y="115.40" xlink:href="#hl"/>
<use x="510.60" y="112.40" xlink:href="#hd"/>
<path d="M507.10 112.40v39.00" class="stroke"/>
<path class="fill"
	d="M507.10 151.40c0.6 -5.6 9.6 -9 5.6 -18.4
	1.6 6 -1.3 11.6 -5.6 12.8
"/>
<use x="530.20" y="160.40" xlink:href="#hd"/>
<path d="M533.70 160.40v-21.00" class="stroke"/>
<path class="fill"
	d="M533.70 139.40c0.6 5.6 9.6 9 5.6 18.4
	1.6 -6 -1.3 -11.6 -5.6 -12.8
"/>
<use x="550.50" y="133.40" xlink:href="#hl"/>
<use x="550.50" y="133.40" xlink:href="#hd"/>
<path d="M547.00 133.40v21.00" class="stroke"/>
<path class="fill"
	d="M547.00 154.40c0.6 -5.6 9.6 -9 5.6 -18.4
	1.6 6 -1.3 11.6 -5.6 12.8
"/>
<defs>
<path id="hl1" class="stroke" d="m-7 0h14"/>
</defs>
<use x="590.90" y="169.40" xlink:href="#hl1"/>
<defs>
<path id="HD" class="fill" d="m-2.7 -1.4
	c1.5 -2.8 6.9 0 5.3 2.7
	-1.5 2.8 -6.9 0 -5.3 -2.7
	m8.3 1.4
	c0 -1.5 -2.2 -3 -5.6 -3
	-3.4 0 -5.6 1.5 -5.6 3
	0 1.5 2.2 3 5.6 3
	3.4 0 5.6 -1.5 5.6 -3"/>
</defs>
<use x="590.90" y="169.40" xlink:href="#HD"/>
<use x="590.90" y="163.40" xlink:href="#HD"/>
<use x="590.90" y="157.40" xlink:href="#HD"/>
<use x="590.90" y="151.40" xlink:href="#HD"/>
<defs>
<path id="ltr" class="fill"
    d="m0 -0.4c2 -1.5 3.4 -1.9 3.9 0.4
	c0.2 0.8 0.7 0.7 2.1 -0.4
	v0.8c-2 1.5 -3.4 1.9 -3.9 -0.4
	c-0.2 -0.8 -0.7 -0.7 -2.1 0.4z"/>
</defs>
<g transform="rotate(270)">
<use x="-172.40" y="577.40" xlink:href="#ltr"/>
<use x="-166.40" y="577.40" xlink:href="#ltr"/>
<use x="-160.40" y="577.40" xlink:href="#ltr"/>
<use x="-154.40" y="577.40" xlink:href="#ltr"/>
</g>
<text x="691.60" y="69.40" style="font:bold italic 30px serif">,</text>
</g>
<g stroke-width="0.70" style="font:italic 11.00px Times">
<path class="stroke" stroke-width="1"
	d="M10.00 314.80v-82.00"/>
<g transform="translate(10.00,232.80) scale(1,0.82)">
	<use xlink:href="#brace"/>
</g>
<path class="stroke" stroke-width="1"
	d="M196.30 256.80v-24.00"/>
<path class="stroke" stroke-width="1"
	d="M196.30 314.80v-24.00"/>
<path class="stroke" stroke-width="1"
	d="M340.60 256.80v-24.00"/>
<path class="stroke" stroke-width="1"
	d="M340.60 314.80v-24.00"/>
<path class="stroke" stroke-width="1"
	d="M470.70 256.80v-24.00"/>
<path class="stroke" stroke-width="1"
	d="M470.70 314.80v-24.00"/>
<path class="stroke" stroke-width="1"
	d="M580.60 256.80v-24.00"/>
<path class="stroke" stroke-width="1"
	d="M580.60 314.80v-24.00"/>
<path class="stroke" stroke-width="1"
	d="M691.60 256.80v-24.00"/>
<path class="stroke" stroke-width="1"
	d="M691.60 314.80v-24.00"/>
<path d="m10.00 256.80
	h681.60
	M10.00 250.80
	h681.60
	M10.00 244.80
	h681.60
	M10.00 238.80
	h681.60
	M10.00 232.80
	h681.60
	" class="stroke"/>
<path d="m10.00 314.80
	h681.60
	M10.00 308.80
	h681.60
	M10.00 302.80
	h681.60
	M10.00 296.80
	h681.60
	M10.00 290.80
	h681.60
	" class="stroke"/>
</g>
<g stroke-width="0.70" style="font:bold 13.00px Times">
<text x="60.30" y="223.20">I<tspan
	 style="font:italic 11.00px Times">Δ⁷</tspan></text>
</g>
<g stroke-width="0.70" style="font:bold 13.00px Times">
<text x="203.10" y="217.20">I<tspan
	 style="font:italic 11.00px Times">Δ⁷</tspan></text>
</g>
<g stroke-width="0.70" style="font:bold 13.00px Times">
<text x="359.80" y="210.20">I<tspan
	 style="font:italic 11.00px Times">Δ⁷</tspan></text>
</g>
<g stroke-width="0.70" style="font:bold 13.00px Times">
<text x="477.50" y="217.20">I<tspan
	 style="font:italic 11.00px Times">Δ⁷</tspan></text>
</g>
<g stroke-width="0.70" style="font:bold 13.00px Times">
<text x="597.60" y="206.20">IV<tspan
	 style="font:italic 11.00px Times">Δ⁷</tspan></text>
</g>
<g stroke-width="0.70" style="font:italic 11.00px Times">
<use x="22.00" y="250.80" xlink:href="#tclef"/>
<use x="37.00" y="244.80" xlink:href="#ft0"/>
<use x="42.50" y="235.80" xlink:href="#ft0"/>
<use x="48.00" y="247.80" xlink:href="#ft0"/>
<use x="66.00" y="250.80" xlink:href="#hd"/>
<path d="M69.50 250.80v-21.00" class="stroke"/>
<use x="100.40" y="253.80" xlink:href="#hd"/>
<path d="M103.90 253.80v-21.00" class="stroke"/>
<use x="133.80" y="250.80" xlink:href="#hd"/>
<path d="M137.30 250.80v-21.00" class="stroke"/>
<use x="165.80" y="244.80" xlink:href="#hd"/>
<path d="M169.30 244.80v-21.00" class="stroke"/>
<use x="208.80" y="244.80" xlink:href="#hd"/>
<path d="M212.30 244.80v-21.00" class="stroke"/>
<use x="243.20" y="241.80" xlink:href="#hd"/>
<path d="M239.70 241.80v21.00" class="stroke"/>
<use x="276.60" y="241.80" xlink:href="#hd"/>
<path d="M273.10 241.80v21.00" class="stroke"/>
<use x="310.10" y="244.80" xlink:href="#hd"/>
<path d="M306.60 244.80v21.00" class="stroke"/>
<use x="365.60" y="256.80" xlink:href="#hd"/>
<path d="M369.10 256.80v-40.00" class="stroke"/>
<use x="365.60" y="235.80" xlink:href="#hd"/>
<use x="388.80" y="229.80" xlink:href="#hd"/>
<path d="M385.30 229.80v40.00" class="stroke"/>
<use x="388.80" y="250.80" xlink:href="#hd"/>
<use x="411.60" y="232.80" xlink:href="#hd"/>
<path d="M408.10 232.80v40.00" class="stroke"/>
<use x="411.60" y="253.80" xlink:href="#hd"/>
<defs>
<path id="Hd" class="fill" d="m3 -1.6
	c-1 -1.8 -7 1.4 -6 3.2
	1 1.8 7 -1.4 6 -3.2
	m0.5 -0.3
	c2 3.8 -5 7.6 -7 3.8
	-2 -3.8 5 -7.6 7 -3.8"/>
</defs>
<use x="432.40" y="256.80" xlink:href="#Hd"/>
<path d="M435.90 256.80v-40.00" class="stroke"/>
<use x="432.40" y="235.80" xlink:href="#Hd"/>
<use x="483.20" y="244.80" xlink:href="#hd"/>
<path d="M486.70 244.80v-21.00" class="stroke"/>
<use x="517.60" y="250.80" xlink:href="#hd"/>
<path d="M521.10 250.80v-21.00" class="stroke"/>
<use x="551.10" y="244.80" xlink:href="#hd"/>
<path d="M554.60 244.80v-21.00" class="stroke"/>
<use x="605.60" y="226.80" xlink:href="#hl"/>
<use x="605.60" y="220.80" xlink:href="#hl"/>
<use x="605.60" y="220.80" xlink:href="#hd"/>
<path d="M602.10 220.80v40.00" class="stroke"/>
<use x="605.60" y="241.80" xlink:href="#hd"/>
<use x="628.70" y="226.80" xlink:href="#hl"/>
<use x="628.70" y="220.80" xlink:href="#hl"/>
<use x="628.70" y="214.80" xlink:href="#hl"/>
<use x="628.70" y="214.80" xlink:href="#hd"/>
<path d="M625.20 214.80v40.00" class="stroke"/>
<use x="628.70" y="235.80" xlink:href="#hd"/>
<use x="651.80" y="226.80" xlink:href="#hl"/>
<use x="651.80" y="223.80" xlink:href="#hd"/>
<path d="M648.30 223.80v40.00" class="stroke"/>
<use x="651.80" y="244.80" xlink:href="#hd"/>
<use x="674.60" y="229.80" xlink:href="#hd"/>
<path d="M671.10 229.80v40.00" class="stroke"/>
<use x="674.60" y="250.80" xlink:href="#hd"/>
<use x="22.00" y="296.80" xlink:href="#bclef"/>
<use x="37.00" y="308.80" xlink:href="#ft0"/>
<use x="42.50" y="299.80" xlink:href="#ft0"/>
<use x="48.00" y="311.80" xlink:href="#ft0"/>
<use x="66.00" y="320.80" xlink:href="#hl"/>
<use x="66.00" y="326.80" xlink:href="#hl"/>
<use x="66.00" y="332.80" xlink:href="#hl"/>
<use x="66.00" y="338.80" xlink:href="#hl"/>
<use x="66.00" y="341.80" xlink:href="#hd"/>
<path d="M69.50 341.80v-40.00" class="stroke"/>
<path class="fill"
	d="M69.50 301.80c0.6 5.6 9.6 9 5.6 18.4
	1.6 -6 -1.3 -11.6 -5.6 -12.8
"/>
<use x="66.00" y="320.80" xlink:href="#hd"/>
<use x="83.80" y="293.80" xlink:href="#hd"/>
<path d="M80.30 293.80v21.00" class="stroke"/>
<path class="fill"
	d="M80.30 314.80c0.6 -5.6 9.6 -9 5.6 -18.4
	1.6 6 -1.3 11.6 -5.6 12.8
"/>
<use x="100.40" y="287.80" xlink:href="#hd"/>
<path d="M96.90 287.80v21.00" class="stroke"/>
<path class="fill"
	d="M96.90 308.80c0.6 -5.6 9.6 -9 5.6 -18.4
	1.6 6 -1.3 11.6 -5.6 12.8
"/>
<use x="117.00" y="284.80" xlink:href="#hl"/>
<use x="117.00" y="281.80" xlink:href="#hd"/>
<path d="M113.50 281.80v21.00" class="stroke"/>
<path class="fill"
	d="M113.50 302.80c0.6 -5.6 9.6 -9 5.6 -18.4
	1.6 6 -1.3 11.6 -5.6 12.8
"/>
<use x="133.80" y="284.80" xlink:href="#hl"/>
<use x="133.80" y="278.80" xlink:href="#hl"/>
<use x="133.80" y="278.80" xlink:href="#hd"/>
<path d="M130.30 278.80v24.00" class="stroke"/>
<path class="fill"
	d="M130.30 302.80c0.6 -5.6 9.6 -9 5.6 -18.4
	1.6 6 -1.3 11.6 -5.6 12.8
"/>
<use x="150.70" y="284.80" xlink:href="#hl"/>
<use x="150.70" y="278.80" xlink:href="#hl"/>
<use x="150.70" y="272.80" xlink:href="#hl"/>
<use x="150.70" y="272.80" xlink:href="#hd"/>
<path d="M147.20 272.80v30.00" class="stroke"/>
<path class="fill"
	d="M147.20 302.80c0.6 -5.6 9.6 -9 5.6 -18.4
	1.6 6 -1.3 11.6 -5.6 12.8
"/>
<use x="165.80" y="320.80" xlink:href="#hl"/>
<use x="165.80" y="320.80" xlink:href="#hd"/>
<path d="M169.30 320.80v-21.00" class="stroke"/>
<path class="fill"
	d="M169.30 299.80c0.6 5.6 9.6 9 5.6 18.4
	1.6 -6 -1.3 -11.6 -5.6 -12.8
"/>
<use x="183.60" y="293.80" xlink:href="#hd"/>
<path d="M180.10 293.80v21.00" class="stroke"/>
<path class="fill"
	d="M180.10 314.80c0.6 -5.6 9.6 -9 5.6 -18.4
	1.6 6 -1.3 11.6 -5.6 12.8
"/>
<use x="208.80" y="320.80" xlink:href="#hl"/>
<use x="208.80" y="320.80" xlink:href="#hd"/>
<path d="M212.30 320.80v-21.00" class="stroke"/>
<path class="fill"
	d="M212.30 299.80c0.6 5.6 9.6 9 5.6 18.4
	1.6 -6 -1.3 -11.6 -5.6 -12.8
"/>
<use x="226.60" y="293.80" xlink:href="#hd"/>
<path d="M223.10 293.80v21.00" class="stroke"/>
<path class="fill"
	d="M223.10 314.80c0.6 -5.6 9.6 -9 5.6 -18.4
	1.6 6 -1.3 11.6 -5.6 12.8
"/>
<use x="243.20" y="287.80" xlink:href="#hd"/>
<path d="M239.70 287.80v21.00" class="stroke"/>
<path class="fill"
	d="M239.70 308.80c0.6 -5.6 9.6 -9 5.6 -18.4
	1.6 6 -1.3 11.6 -5.6 12.8
"/>
<use x="259.80" y="284.80" xlink:href="#hl"/>
<use x="259.80" y="281.80" xlink:href="#hd"/>
<path d="M256.30 281.80v21.00" class="stroke"/>
<path class="fill"
	d="M256.30 302.80c0.6 -5.6 9.6 -9 5.6 -18.4
	1.6 6 -1.3 11.6 -5.6 12.8
"/>
<use x="276.60" y="284.80" xlink:href="#hl"/>
<use x="276.60" y="278.80" xlink:href="#hl"/>
<use x="276.60" y="278.80" xlink:href="#hd"/>
<path d="M273.10 278.80v24.00" class="stroke"/>
<path class="fill"
	d="M273.10 302.80c0.6 -5.6 9.6 -9 5.6 -18.4
	1.6 6 -1.3 11.6 -5.6 12.8
"/>
<use x="293.50" y="284.80" xlink:href="#hl"/>
<use x="293.50" y="278.80" xlink:href="#hl"/>
<use x="293.50" y="272.80" xlink:href="#hl"/>
<use x="293.50" y="272.80" xlink:href="#hd"/>
<path d="M290.00 272.80v30.00" class="stroke"/>
<path class="fill"
	d="M290.00 302.80c0.6 -5.6 9.6 -9 5.6 -18.4
	1.6 6 -1.3 11.6 -5.6 12.8
"/>
<use x="310.10" y="320.80" xlink:href="#hl"/>
<use x="310.10" y="320.80" xlink:href="#hd"/>
<path d="M313.60 320.80v-21.00" class="stroke"/>
<path class="fill"
	d="M313.60 299.80c0.6 5.6 9.6 9 5.6 18.4
	1.6 -6 -1.3 -11.6 -5.6 -12.8
"/>
<use x="327.90" y="293.80" xlink:href="#hd"/>
<path d="M324.40 293.80v21.00" class="stroke"/>
<path class="fill"
	d="M324.40 314.80c0.6 -5.6 9.6 -9 5.6 -18.4
	1.6 6 -1.3 11.6 -5.6 12.8
"/>
<use x="366.60" y="320.80" xlink:href="#hl1"/>
<use x="366.60" y="320.80" xlink:href="#HD"/>
<use x="366.60" y="314.80" xlink:href="#HD"/>
<use x="366.60" y="308.80" xlink:href="#HD"/>
<use x="366.60" y="302.80" xlink:href="#HD"/>
<use x="453.60" y="320.80" xlink:href="#hl"/>
<use x="453.60" y="320.80" xlink:href="#hd"/>
<path d="M457.10 320.80v-37.00" class="stroke"/>
<use x="453.60" y="314.80" xlink:href="#hd"/>
<use x="453.60" y="308.80" xlink:href="#hd"/>
<use x="453.60" y="302.80" xlink:href="#hd"/>
<use x="483.20" y="320.80" xlink:href="#hl"/>
<use x="483.20" y="326.80" xlink:href="#hl"/>
<use x="483.20" y="332.80" xlink:href="#hl"/>
<use x="483.20" y="338.80" xlink:href="#hl"/>
<use x="483.20" y="341.80" xlink:href="#hd"/>
<path d="M486.70 341.80v-40.00" class="stroke"/>
<path class="fill"
	d="M486.70 301.80c0.6 5.6 9.6 9 5.6 18.4
	1.6 -6 -1.3 -11.6 -5.6 -12.8
"/>
<use x="483.20" y="320.80" xlink:href="#hd"/>
<use x="501.00" y="293.80" xlink:href="#hd"/>
<path d="M497.50 293.80v21.00" class="stroke"/>
<path class="fill"
	d="M497.50 314.80c0.6 -5.6 9.6 -9 5.6 -18.4
	1.6 6 -1.3 11.6 -5.6 12.8
"/>
<use x="517.60" y="287.80" xlink:href="#hd"/>
<path d="M514.10 287.80v21.00" class="stroke"/>
<path class="fill"
	d="M514.10 308.80c0.6 -5.6 9.6 -9 5.6 -18.4
	1.6 6 -1.3 11.6 -5.6 12.8
"/>
<use x="534.20" y="284.80" xlink:href="#hl"/>
<use x="534.20" y="281.80" xlink:href="#hd"/>
<path d="M530.70 281.80v21.00" class="stroke"/>
<path class="fill"
	d="M530.70 302.80c0.6 -5.6 9.6 -9 5.6 -18.4
	1.6 6 -1.3 11.6 -5.6 12.8
"/>
<use x="551.10" y="284.80" xlink:href="#hl"/>
<use x="551.10" y="278.80" xlink:href="#hl"/>
<use x="551.10" y="278.80" xlink:href="#hd"/>
<path d="M547.60 278.80v24.00" class="stroke"/>
<path class="fill"
	d="M547.60 302.80c0.6 -5.6 9.6 -9 5.6 -18.4
	1.6 6 -1.3 11.6 -5.6 12.8
"/>
<use x="567.90" y="284.80" xlink:href="#hl"/>
<use x="567.90" y="278.80" xlink:href="#hl"/>
<use x="567.90" y="272.80" xlink:href="#hl"/>
<use x="567.90" y="272.80" xlink:href="#hd"/>
<path d="M564.40 272.80v30.00" class="stroke"/>
<path class="fill"
	d="M564.40 302.80c0.6 -5.6 9.6 -9 5.6 -18.4
	1.6 6 -1.3 11.6 -5.6 12.8
"/>
<use x="606.60" y="293.80" xlink:href="#HD"/>
<use x="606.60" y="311.80" xlink:href="#HD"/>
<use x="606.60" y="305.80" xlink:href="#HD"/>
<use x="606.60" y="299.80" xlink:href="#HD"/>
<path class="fill"
	d="M369.10 320.80c11.27 5.96 69.78 5.96 81.05 -0.00
	v0.28c-13.70 7.68 -67.35 7.68 -81.05 -0.28"/>
<path class="fill"
	d="M369.10 314.80c11.27 5.96 69.78 5.96 81.05 -0.00
	v0.28c-13.70 7.68 -67.35 7.68 -81.05 -0.28"/>
<path class="fill"
	d="M369.10 308.80c11.27 -5.96 69.78 -5.96 81.05 -0.00
	v-0.28c-13.70 -7.68 -67.35 -7.68 -81.05 0.28"/>
<path class="fill"
	d="M369.10 302.80c11.27 -5.96 69.78 -5.96 81.05 -0.00
	v-0.28c-13.70 -7.68 -67.35 -7.68 -81.05 0.28"/>
<g transform="rotate(270)">
<use x="-323.80" y="353.10" xlink:href="#ltr"/>
<use x="-317.80" y="353.10" xlink:href="#ltr"/>
<use x="-311.80" y="353.10" xlink:href="#ltr"/>
<use x="-305.80" y="353.10" xlink:href="#ltr"/>
</g>
<g transform="rotate(270)">
<use x="-323.80" y="443.60" xlink:href="#ltr"/>
<use x="-317.80" y="443.60" xlink:href="#ltr"/>
<use x="-311.80" y="443.60" xlink:href="#ltr"/>
<use x="-305.80" y="443.60" xlink:href="#ltr"/>
</g>
<text x="475.70" y="223.80" style="font:bold italic 30px serif">,</text>
<g transform="rotate(270)">
<use x="-314.80" y="593.10" xlink:href="#ltr"/>
<use x="-308.80" y="593.10" xlink:href="#ltr"/>
<use x="-302.80" y="593.10" xlink:href="#ltr"/>
<use x="-296.80" y="593.10" xlink:href="#ltr"/>
</g>
<text x="691.60" y="223.80" style="font:bold italic 30px serif">,</text>
</g>
<g stroke-width="0.70" style="font:italic 11.00px Times">
<path class="stroke" stroke-width="1"
	d="M10.00 453.80v-83.00"/>
<g transform="translate(10.00,370.80) scale(1,0.83)">
	<use xlink:href="#brace"/>
</g>
<path class="stroke" stroke-width="1"
	d="M227.40 394.80v-24.00"/>
<path class="stroke" stroke-width="1"
	d="M227.40 453.80v-24.00"/>
<path class="stroke" stroke-width="1"
	d="M403.40 394.80v-24.00"/>
<path class="stroke" stroke-width="1"
	d="M403.40 453.80v-24.00"/>
<path class="stroke" stroke-width="1"
	d="M577.60 394.80v-24.00"/>
<path class="stroke" stroke-width="1"
	d="M577.60 453.80v-24.00"/>
<path class="stroke" stroke-width="1"
	d="M691.60 394.80v-24.00"/>
<path class="stroke" stroke-width="1"
	d="M691.60 453.80v-24.00"/>
<path d="m10.00 394.80
	h681.60
	M10.00 388.80
	h681.60
	M10.00 382.80
	h681.60
	M10.00 376.80
	h681.60
	M10.00 370.80
	h681.60
	" class="stroke"/>
<path d="m10.00 453.80
	h681.60
	M10.00 447.80
	h681.60
	M10.00 441.80
	h681.60
	M10.00 435.80
	h681.60
	M10.00 429.80
	h681.60
	" class="stroke"/>
</g>
<g stroke-width="0.70" style="font:bold 13.00px Times">
<text x="60.30" y="366.20">I<tspan
	 style="font:italic 11.00px Times">Δ⁷</tspan></text>
</g>
<g stroke-width="0.70" style="font:bold 13.00px Times">
<text x="234.20" y="361.20">I<tspan
	 style="font:italic 11.00px Times">Δ⁷</tspan></text>
</g>
<g stroke-width="0.70" style="font:bold 13.00px Times">
<text x="407.90" y="364.20">IV<tspan
	 style="font:italic 11.00px Times">Δ⁷²</tspan></text>
</g>
<g stroke-width="0.70" style="font:bold 13.00px Times">
<text x="596.90" y="362.20">I<tspan
	 style="font:italic 11.00px Times">Δ⁷</tspan></text>
</g>
<g stroke-width="0.70" style="font:italic 11.00px Times">
<use x="22.00" y="388.80" xlink:href="#tclef"/>
<use x="37.00" y="382.80" xlink:href="#ft0"/>
<use x="42.50" y="373.80" xlink:href="#ft0"/>
<use x="48.00" y="385.80" xlink:href="#ft0"/>
<use x="66.00" y="394.80" xlink:href="#hd"/>
<path d="M69.50 394.80v-21.00" class="stroke"/>
<use x="108.50" y="388.80" xlink:href="#hd"/>
<path d="M112.00 388.80v-21.00" class="stroke"/>
<use x="150.60" y="391.80" xlink:href="#hd"/>
<path d="M154.10 391.80v-21.00" class="stroke"/>
<use x="190.60" y="382.80" xlink:href="#hd"/>
<path d="M194.10 382.80v-21.00" class="stroke"/>
<use x="239.90" y="388.80" xlink:href="#hd"/>
<path d="M243.40 388.80v-21.00" class="stroke"/>
<use x="282.50" y="382.80" xlink:href="#hd"/>
<path d="M286.00 382.80v-21.00" class="stroke"/>
<use x="324.50" y="379.80" xlink:href="#hd"/>
<path d="M321.00 379.80v21.00" class="stroke"/>
<use x="366.60" y="373.80" xlink:href="#hd"/>
<path d="M363.10 373.80v21.00" class="stroke"/>
<use x="415.90" y="379.80" xlink:href="#hd"/>
<path d="M412.40 379.80v21.00" class="stroke"/>
<use x="458.60" y="382.80" xlink:href="#hd"/>
<path d="M455.10 382.80v21.00" class="stroke"/>
<use x="500.80" y="394.80" xlink:href="#hd"/>
<path d="M504.30 394.80v-21.00" class="stroke"/>
<use x="540.80" y="388.80" xlink:href="#hd"/>
<path d="M544.30 388.80v-21.00" class="stroke"/>
<use x="602.60" y="370.80" xlink:href="#hd"/>
<path d="M599.10 370.80v40.00" class="stroke"/>
<path class="fill"
	d="M599.10 410.80c0.6 -5.6 9.6 -9 5.6 -18.4
	1.6 6 -1.3 11.6 -5.6 12.8
"/>
<use x="602.60" y="391.80" xlink:href="#hd"/>
<use x="628.10" y="394.80" xlink:href="#HD"/>
<use x="628.10" y="373.80" xlink:href="#HD"/>
<use x="22.00" y="435.80" xlink:href="#bclef"/>
<use x="37.00" y="447.80" xlink:href="#ft0"/>
<use x="42.50" y="438.80" xlink:href="#ft0"/>
<use x="48.00" y="450.80" xlink:href="#ft0"/>
<use x="66.00" y="459.80" xlink:href="#hl"/>
<use x="66.00" y="465.80" xlink:href="#hl"/>
<use x="66.00" y="471.80" xlink:href="#hl"/>
<use x="66.00" y="477.80" xlink:href="#hl"/>
<use x="66.00" y="480.80" xlink:href="#hd"/>
<path d="M69.50 480.80v-40.00" class="stroke"/>
<path class="fill"
	d="M69.50 440.80c0.6 5.6 9.6 9 5.6 18.4
	1.6 -6 -1.3 -11.6 -5.6 -12.8
"/>
<use x="66.00" y="459.80" xlink:href="#hd"/>
<use x="87.60" y="432.80" xlink:href="#hd"/>
<path d="M84.10 432.80v21.00" class="stroke"/>
<path class="fill"
	d="M84.10 453.80c0.6 -5.6 9.6 -9 5.6 -18.4
	1.6 6 -1.3 11.6 -5.6 12.8
"/>
<use x="108.50" y="426.80" xlink:href="#hd"/>
<path d="M105.00 426.80v21.00" class="stroke"/>
<path class="fill"
	d="M105.00 447.80c0.6 -5.6 9.6 -9 5.6 -18.4
	1.6 6 -1.3 11.6 -5.6 12.8
"/>
<use x="129.50" y="423.80" xlink:href="#hl"/>
<use x="129.50" y="420.80" xlink:href="#hd"/>
<path d="M126.00 420.80v21.00" class="stroke"/>
<path class="fill"
	d="M126.00 441.80c0.6 -5.6 9.6 -9 5.6 -18.4
	1.6 6 -1.3 11.6 -5.6 12.8
"/>
<use x="150.60" y="423.80" xlink:href="#hl"/>
<use x="150.60" y="417.80" xlink:href="#hl"/>
<use x="150.60" y="417.80" xlink:href="#hd"/>
<path d="M147.10 417.80v24.00" class="stroke"/>
<path class="fill"
	d="M147.10 441.80c0.6 -5.6 9.6 -9 5.6 -18.4
	1.6 6 -1.3 11.6 -5.6 12.8
"/>
<use x="171.70" y="423.80" xlink:href="#hl"/>
<use x="171.70" y="417.80" xlink:href="#hl"/>
<use x="171.70" y="411.80" xlink:href="#hl"/>
<use x="171.70" y="411.80" xlink:href="#hd"/>
<path d="M168.20 411.80v30.00" class="stroke"/>
<path class="fill"
	d="M168.20 441.80c0.6 -5.6 9.6 -9 5.6 -18.4
	1.6 6 -1.3 11.6 -5.6 12.8
"/>
<use x="190.60" y="459.80" xlink:href="#hl"/>
<use x="190.60" y="459.80" xlink:href="#hd"/>
<path d="M194.10 459.80v-21.00" class="stroke"/>
<path class="fill"
	d="M194.10 438.80c0.6 5.6 9.6 9 5.6 18.4
	1.6 -6 -1.3 -11.6 -5.6 -12.8
"/>
<use x="212.20" y="432.80" xlink:href="#hd"/>
<path d="M208.70 432.80v21.00" class="stroke"/>
<path class="fill"
	d="M208.70 453.80c0.6 -5.6 9.6 -9 5.6 -18.4
	1.6 6 -1.3 11.6 -5.6 12.8
"/>
<use x="239.90" y="459.80" xlink:href="#hl"/>
<use x="239.90" y="459.80" xlink:href="#hd"/>
<path d="M243.40 459.80v-21.00" class="stroke"/>
<path class="fill"
	d="M243.40 438.80c0.6 5.6 9.6 9 5.6 18.4
	1.6 -6 -1.3 -11.6 -5.6 -12.8
"/>
<use x="261.50" y="432.80" xlink:href="#hd"/>
<path d="M258.00 432.80v21.00" class="stroke"/>
<path class="fill"
	d="M258.00 453.80c0.6 -5.6 9.6 -9 5.6 -18.4
	1.6 6 -1.3 11.6 -5.6 12.8
"/>
<use x="282.50" y="426.80" xlink:href="#hd"/>
<path d="M279.00 426.80v21.00" class="stroke"/>
<path class="fill"
	d="M279.00 447.80c0.6 -5.6 9.6 -9 5.6 -18.4
	1.6 6 -1.3 11.6 -5.6 12.8
"/>
<use x="303.40" y="423.80" xlink:href="#hl"/>
<use x="303.40" y="420.80" xlink:href="#hd"/>
<path d="M299.90 420.80v21.00" class="stroke"/>
<path class="fill"
	d="M299.90 441.80c0.6 -5.6 9.6 -9 5.6 -18.4
	1.6 6 -1.3 11.6 -5.6 12.8
"/>
<use x="324.50" y="423.80" xlink:href="#hl"/>
<use x="324.50" y="417.80" xlink:href="#hl"/>
<use x="324.50" y="417.80" xlink:href="#hd"/>
<path d="M321.00 417.80v24.00" class="stroke"/>
<path class="fill"
	d="M321.00 441.80c0.6 -5.6 9.6 -9 5.6 -18.4
	1.6 6 -1.3 11.6 -5.6 12.8
"/>
<use x="345.60" y="423.80" xlink:href="#hl"/>
<use x="345.60" y="417.80" xlink:href="#hl"/>
<use x="345.60" y="411.80" xlink:href="#hl"/>
<use x="345.60" y="411.80" xlink:href="#hd"/>
<path d="M342.10 411.80v30.00" class="stroke"/>
<path class="fill"
	d="M342.10 441.80c0.6 -5.6 9.6 -9 5.6 -18.4
	1.6 6 -1.3 11.6 -5.6 12.8
"/>
<use x="366.60" y="459.80" xlink:href="#hl"/>
<use x="366.60" y="459.80" xlink:href="#hd"/>
<path d="M370.10 459.80v-21.00" class="stroke"/>
<path class="fill"
	d="M370.10 438.80c0.6 5.6 9.6 9 5.6 18.4
	1.6 -6 -1.3 -11.6 -5.6 -12.8
"/>
<use x="388.20" y="432.80" xlink:href="#hd"/>
<path d="M384.70 432.80v21.00" class="stroke"/>
<path class="fill"
	d="M384.70 453.80c0.6 -5.6 9.6 -9 5.6 -18.4
	1.6 6 -1.3 11.6 -5.6 12.8
"/>
<use x="415.90" y="450.80" xlink:href="#hd"/>
<path d="M419.40 450.80v-21.00" class="stroke"/>
<path class="fill"
	d="M419.40 429.80c0.6 5.6 9.6 9 5.6 18.4
	1.6 -6 -1.3 -11.6 -5.6 -12.8
"/>
<use x="437.50" y="423.80" xlink:href="#hl"/>
<use x="437.50" y="423.80" xlink:href="#hd"/>
<path d="M434.00 423.80v21.00" class="stroke"/>
<path class="fill"
	d="M434.00 444.80c0.6 -5.6 9.6 -9 5.6 -18.4
	1.6 6 -1.3 11.6 -5.6 12.8
"/>
<use x="458.60" y="423.80" xlink:href="#hl"/>
<use x="458.60" y="417.80" xlink:href="#hl"/>
<use x="458.60" y="417.80" xlink:href="#hd"/>
<path d="M455.10 417.80v24.00" class="stroke"/>
<path class="fill"
	d="M455.10 441.80c0.6 -5.6 9.6 -9 5.6 -18.4
	1.6 6 -1.3 11.6 -5.6 12.8
"/>
<use x="479.70" y="423.80" xlink:href="#hl"/>
<use x="479.70" y="417.80" xlink:href="#hl"/>
<use x="479.70" y="411.80" xlink:href="#hl"/>
<use x="479.70" y="411.80" xlink:href="#hd"/>
<path d="M476.20 411.80v30.00" class="stroke"/>
<path class="fill"
	d="M476.20 441.80c0.6 -5.6 9.6 -9 5.6 -18.4
	1.6 6 -1.3 11.6 -5.6 12.8
"/>
<use x="500.80" y="423.80" xlink:href="#hl"/>
<use x="500.80" y="417.80" xlink:href="#hl"/>
<use x="500.80" y="411.80" xlink:href="#hl"/>
<use x="500.80" y="408.80" xlink:href="#hd"/>
<path d="M497.30 408.80v33.00" class="stroke"/>
<path class="fill"
	d="M497.30 441.80c0.6 -5.6 9.6 -9 5.6 -18.4
	1.6 6 -1.3 11.6 -5.6 12.8
"/>
<use x="521.90" y="423.80" xlink:href="#hl"/>
<use x="521.90" y="417.80" xlink:href="#hl"/>
<use x="521.90" y="411.80" xlink:href="#hl"/>
<use x="521.90" y="405.80" xlink:href="#hl"/>
<use x="521.90" y="402.80" xlink:href="#hd"/>
<path d="M518.40 402.80v39.00" class="stroke"/>
<path class="fill"
	d="M518.40 441.80c0.6 -5.6 9.6 -9 5.6 -18.4
	1.6 6 -1.3 11.6 -5.6 12.8
"/>
<use x="540.80" y="450.80" xlink:href="#hd"/>
<path d="M544.30 450.80v-21.00" class="stroke"/>
<path class="fill"
	d="M544.30 429.80c0.6 5.6 9.6 9 5.6 18.4
	1.6 -6 -1.3 -11.6 -5.6 -12.8
"/>
<use x="562.40" y="423.80" xlink:href="#hl"/>
<use x="562.40" y="423.80" xlink:href="#hd"/>
<path d="M558.90 423.80v21.00" class="stroke"/>
<path class="fill"
	d="M558.90 444.80c0.6 -5.6 9.6 -9 5.6 -18.4
	1.6 6 -1.3 11.6 -5.6 12.8
"/>
<use x="603.60" y="459.80" xlink:href="#hl1"/>
<use x="603.60" y="465.80" xlink:href="#hl1"/>
<use x="603.60" y="471.80" xlink:href="#hl1"/>
<use x="603.60" y="477.80" xlink:href="#hl1"/>
<use x="603.60" y="480.80" xlink:href="#HD"/>
<use x="603.60" y="459.80" xlink:href="#HD"/>
<use x="603.60" y="453.80" xlink:href="#HD"/>
<use x="603.60" y="447.80" xlink:href="#HD"/>
<use x="603.60" y="441.80" xlink:href="#HD"/>
<use x="674.60" y="459.80" xlink:href="#hl"/>
<use x="674.60" y="465.80" xlink:href="#hl"/>
<use x="674.60" y="471.80" xlink:href="#hl"/>
<use x="674.60" y="477.80" xlink:href="#hl"/>
<use x="674.60" y="480.80" xlink:href="#hd"/>
<path d="M678.10 480.80v-58.00" class="stroke"/>
<path class="fill"
	d="M678.10 422.80c0.6 5.6 9.6 9 5.6 18.4
	1.6 -6 -1.3 -11.6 -5.6 -12.8
"/>
<use x="674.60" y="459.80" xlink:href="#hd"/>
<use x="674.60" y="453.80" xlink:href="#hd"/>
<use x="674.60" y="447.80" xlink:href="#hd"/>
<use x="674.60" y="441.80" xlink:href="#hd"/>
<path class="fill"
	d="M606.10 480.80c9.51 5.67 55.49 5.67 64.99 -0.00
	v0.26c-11.45 7.40 -53.54 7.40 -64.99 -0.26"/>
<path class="fill"
	d="M606.10 459.80c9.51 5.67 55.49 5.67 64.99 -0.00
	v0.26c-11.45 7.40 -53.54 7.40 -64.99 -0.26"/>
<path class="fill"
	d="M606.10 453.80c9.51 5.67 55.49 5.67 64.99 -0.00
	v0.26c-11.45 7.40 -53.54 7.40 -64.99 -0.26"/>
<path class="fill"
	d="M606.10 447.80c9.51 -5.67 55.49 -5.67 64.99 -0.00
	v-0.26c-11.45 -7.40 -53.54 -7.40 -64.99 0.26"/>
<path class="fill"
	d="M606.10 441.80c9.51 -5.67 55.49 -5.67 64.99 -0.00
	v-0.26c-11.45 -7.40 -53.54 -7.40 -64.99 0.26"/>
<defs>
<g id="hld" class="fill">
	<circle cx="0" cy="-3" r="1.3"/>
	<path d="m-7.5 -1.5
		c0 -11.5 15 -11.5 15 0
		h-0.25
		c-1.25 -9 -13.25 -9 -14.5 0"/>
</g>
</defs>
<use x="602.60" y="427.80" xlink:href="#hld"/>
<g transform="rotate(270)">
<use x="-483.80" y="590.10" xlink:href="#ltr"/>
<use x="-477.80" y="590.10" xlink:href="#ltr"/>
<use x="-471.80" y="590.10" xlink:href="#ltr"/>
<use x="-465.80" y="590.10" xlink:href="#ltr"/>
<use x="-459.80" y="590.10" xlink:href="#ltr"/>
<use x="-453.80" y="590.10" xlink:href="#ltr"/>
<use x="-447.80" y="590.10" xlink:href="#ltr"/>
<use x="-441.80" y="590.10" xlink:href="#ltr"/>
</g>
<use x="627.10" y="367.80" xlink:href="#hld"/>
<g transform="rotate(270)">
<use x="-397.80" y="614.60" xlink:href="#ltr"/>
<use x="-391.80" y="614.60" xlink:href="#ltr"/>
<use x="-385.80" y="614.60" xlink:href="#ltr"/>
<use x="-379.80" y="614.60" xlink:href="#ltr"/>
<use x="-373.80" y="614.60" xlink:href="#ltr"/>
</g>
<use x="674.60" y="418.80" xlink:href="#hld"/>
<g transform="rotate(270)">
<use x="-483.80" y="664.60" xlink:href="#ltr"/>
<use x="-477.80" y="664.60" xlink:href="#ltr"/>
<use x="-471.80" y="664.60" xlink:href="#ltr"/>
<use x="-465.80" y="664.60" xlink:href="#ltr"/>
<use x="-459.80" y="664.60" xlink:href="#ltr"/>
<use x="-453.80" y="664.60" xlink:href="#ltr"/>
<use x="-447.80" y="664.60" xlink:href="#ltr"/>
<use x="-441.80" y="664.60" xlink:href="#ltr"/>
</g>
</g>
</svg>
