<?xml version="1.0" standalone="no"?>
<!DOCTYPE svg PUBLIC "-//W3C//DTD SVG 1.1//EN"
	"http://www.w3.org/Graphics/SVG/1.1/DTD/svg11.dtd">
<svg xmlns="http://www.w3.org/2000/svg" version="1.1"
	xmlns:xlink="http://www.w3.org/1999/xlink"
	color="black"
	width="701.60px" height="779.60px" viewBox="0 0 701.60 779.60" preserveAspectRatio="xMidYMid meet">
<style type="text/css">
.fill {fill: currentColor}
.stroke {stroke: currentColor; fill: none}
text{white-space: pre}
</style>
<title>/tmp/boddie_hymnal_stage/let_our_gladness_have_no_end.abc (1) tune 1</title>
<!-- Creator: abcm2ps-8.14.11 -->
<!-- CreationDate: Apr 30, 2026 12:59 -->
<!-- CommandLine: /tmp/boddie_hymnal_stage/let_our_gladness_have_no_end.abc -g -O /tmp/boddie_hymnal_stage/let_our_gladness_have_no_end -->
<g stroke-width="0.70">
<!-- title: 137. Let Our Gladness Have No End -->
</g>
<g stroke-width="0.70" style="font:20.00px Times">
<text x="350.80" y="22.00" text-anchor="middle">137. Let Our Gladness Have No End</text>
</g>
<g stroke-width="0.70" transform="scale(0.700)" style="font:20.00px Times">
<defs>
<ellipse id="hd" rx="4.1" ry="2.9"
	transform="rotate(-20)" class="fill"/>
</defs>
<use x="102.29" y="75.57" xlink:href="#hd"/>
<path d="M105.79 75.57v-21.00" class="stroke"/>
</g>
<g stroke-width="0.70" style="font:bold 15.00px Times">
<text x="79.30" y="55.00">= 72Slowly, with great expression</text>
<path class="stroke" stroke-width="1"
	d="M10.00 170.40v-92.00"/>
<defs>
<path id="brace" class="fill" d="m-2.5 101
	c-4.5 -4.6 -7.5 -12.2 -4.4 -26.8
	3.5 -14.3 3.2 -21.7 -2.1 -24.2
	7.4 2.4 7.3 14.2 3.5 29.5
	-2.7 9.5 -1.5 16.2 3 21.5
	M-2.5 1c-4.5 4.6 -7.5 12.2 -4.4 26.8
	c3.5 14.3 3.2 21.7 -2.1 24.2
	7.4 -2.4 7.3 -14.2 3.5 -29.5
	-2.7 -9.5 -1.5 -16.2 3 -21.5"/>
</defs>
<g transform="translate(10.00,78.40) scale(1,0.92)">
	<use xlink:href="#brace"/>
</g>
<path class="stroke" stroke-width="1"
	d="M232.30 102.40v-24.00"/>
<path class="stroke" stroke-width="1"
	d="M232.30 170.40v-24.00"/>
<path class="stroke" stroke-width="1"
	d="M405.10 102.40v-24.00"/>
<path class="stroke" stroke-width="1"
	d="M405.10 170.40v-24.00"/>
<path class="stroke" stroke-width="1"
	d="M517.30 102.40v-24.00"/>
<path class="stroke" stroke-width="1"
	d="M517.30 170.40v-24.00"/>
<path class="stroke" stroke-width="1"
	d="M691.60 102.40v-24.00"/>
<path class="stroke" stroke-width="1"
	d="M691.60 170.40v-24.00"/>
<path d="m10.00 102.40
	h681.60
	M10.00 96.40
	h681.60
	M10.00 90.40
	h681.60
	M10.00 84.40
	h681.60
	M10.00 78.40
	h681.60
	" class="stroke"/>
<path d="m10.00 170.40
	h681.60
	M10.00 164.40
	h681.60
	M10.00 158.40
	h681.60
	M10.00 152.40
	h681.60
	M10.00 146.40
	h681.60
	" class="stroke"/>
</g>
<g stroke-width="0.70" style="font:bold 13.00px Times">
<text x="63.30" y="68.80">I<tspan
	 style="font:italic 11.00px Times">Δ⁷¹</tspan></text>
</g>
<g stroke-width="0.70" style="font:bold 13.00px Times">
<text x="238.90" y="71.80">V<tspan
	 style="font:italic 11.00px Times">⁷</tspan></text>
</g>
<g stroke-width="0.70" style="font:bold 13.00px Times">
<text x="424.40" y="57.80">I<tspan
	 style="font:italic 11.00px Times">Δ⁷</tspan></text>
</g>
<g stroke-width="0.70" style="font:bold 13.00px Times">
<text x="524.50" y="73.80">I<tspan
	 style="font:italic 11.00px Times">Δ⁷</tspan></text>
</g>
<g stroke-width="0.70" style="font:italic 11.00px Times">
<defs>
<path id="utclef" class="fill" d="m-50 -90
	c-72 -41 -72 -158 52 -188
	150 -10 220 188 90 256
	-114 52 -275 0 -293 -136
	-15 -181 93 -229 220 -334
	88 -87 79 -133 62 -210
	-51 33 -94 105 -89 186
	17 267 36 374 49 574
	6 96 -19 134 -77 135
	-80 1 -126 -93 -61 -133
	85 -41 133 101 31 105
	23 17 92 37 90 -92
	-10 -223 -39 -342 -50 -617
	0 -90 0 -162 96 -232
	56 72 63 230 22 289
	-74 106 -257 168 -255 316
	9 153 148 185 252 133
	86 -65 29 -192 -80 -176
	-71 12 -105 67 -59 124"/>
<use id="tclef" transform="translate(0,6) scale(0.045)"
	xlink:href="#utclef"/>
</defs>
<use x="22.00" y="96.40" xlink:href="#tclef"/>
<defs>
<path id="usharp" class="fill" d="
	m136 -702
	v890
	h32
	v-890
	m128 840
	h32
	v-888
	h-32
	m-232 286
	v116
	l338 -96
	v-116
	m-338 442
	v116
	l338 -98
	v-114"/>
<use id="sh0" transform="translate(-4,5) scale(0.018)"
	xlink:href="#usharp"/>
</defs>
<use x="37.00" y="78.40" xlink:href="#sh0"/>
<g style="font:bold 16px serif"
	transform="translate(53.00,101.90) scale(1.2,1)">
	<text text-anchor="middle">4</text>
	<text y="-12" text-anchor="middle">4</text>
</g>
<use x="71.00" y="96.40" xlink:href="#hd"/>
<path d="M74.50 96.40v-21.00" class="stroke"/>
<use x="113.00" y="93.40" xlink:href="#hd"/>
<path d="M116.50 93.40v-21.00" class="stroke"/>
<use x="154.60" y="90.40" xlink:href="#hd"/>
<path d="M158.10 90.40v-21.00" class="stroke"/>
<use x="196.10" y="87.40" xlink:href="#hd"/>
<path d="M192.60 87.40v21.00" class="stroke"/>
<use x="244.80" y="84.40" xlink:href="#hd"/>
<path d="M241.30 84.40v21.00" class="stroke"/>
<use x="286.30" y="84.40" xlink:href="#hd"/>
<path d="M282.80 84.40v21.00" class="stroke"/>
<defs>
<path id="Hd" class="fill" d="m3 -1.6
	c-1 -1.8 -7 1.4 -6 3.2
	1 1.8 7 -1.4 6 -3.2
	m0.5 -0.3
	c2 3.8 -5 7.6 -7 3.8
	-2 -3.8 5 -7.6 7 -3.8"/>
</defs>
<use x="328.00" y="84.40" xlink:href="#Hd"/>
<path d="M324.50 84.40v21.00" class="stroke"/>
<defs>
<path id="hl" class="stroke" d="m-6 0h12"/>
</defs>
<use x="430.10" y="72.40" xlink:href="#hl"/>
<use x="430.10" y="66.40" xlink:href="#hl"/>
<use x="430.10" y="66.40" xlink:href="#hd"/>
<path d="M426.60 66.40v40.00" class="stroke"/>
<use x="430.10" y="87.40" xlink:href="#hd"/>
<use x="459.20" y="72.40" xlink:href="#hl"/>
<use x="459.20" y="66.40" xlink:href="#hl"/>
<use x="459.20" y="63.40" xlink:href="#hd"/>
<path d="M455.70 63.40v40.00" class="stroke"/>
<use x="459.20" y="84.40" xlink:href="#hd"/>
<use x="488.30" y="72.40" xlink:href="#hl"/>
<use x="488.30" y="66.40" xlink:href="#hl"/>
<use x="488.30" y="60.40" xlink:href="#hl"/>
<use x="488.30" y="60.40" xlink:href="#Hd"/>
<path d="M484.80 60.40v40.00" class="stroke"/>
<use x="488.30" y="81.40" xlink:href="#Hd"/>
<use x="530.30" y="84.40" xlink:href="#Hd"/>
<circle class="fill" cx="539.00" cy="81.40" r="1.2"/>
<path d="M526.80 84.40v21.00" class="stroke"/>
<defs>
<path id="r4" class="fill" d="m-1 -8.5
	l3.6 5.1 -2.1 5.2 2.2 4.3
	c-2.6 -2.3 -5.1 0 -2.4 2.6
	-4.8 -3 -1.5 -6.9 1.4 -4.1
	l-3.1 -4.5 1.9 -5.1 -1.5 -3.5"/>
</defs>
<use x="655.30" y="90.40" xlink:href="#r4"/>
<defs>
<path id="ubclef" class="fill" d="m-200 -87
	c124 -35 222 -78 254 -236
	43 -228 -167 -246 -192 -103
	59 -80 157 22 92 78
	-62 47 -115 -22 -106 -88
	21 -141 270 -136 274 52
	-1 175 -106 264 -322 297
	m357 -250
	c0 -36 51 -34 51 0
	0 37 -51 36 -51 0
	m-2 -129
	c0 -36 51 -34 51 0
	0 38 -51 37 -51 0"/>
<use id="bclef" transform="translate(0,18) scale(0.045)"
	xlink:href="#ubclef"/>
</defs>
<use x="22.00" y="152.40" xlink:href="#bclef"/>
<use x="37.00" y="152.40" xlink:href="#sh0"/>
<g style="font:bold 16px serif"
	transform="translate(53.00,169.90) scale(1.2,1)">
	<text text-anchor="middle">4</text>
	<text y="-12" text-anchor="middle">4</text>
</g>
<use x="71.00" y="176.40" xlink:href="#hl"/>
<use x="71.00" y="182.40" xlink:href="#hl"/>
<use x="71.00" y="188.40" xlink:href="#hl"/>
<use x="71.00" y="191.40" xlink:href="#hd"/>
<path d="M74.50 191.40v-40.00" class="stroke"/>
<path class="fill"
	d="M74.50 151.40c0.6 5.6 9.6 9 5.6 18.4
	1.6 -6 -1.3 -11.6 -5.6 -12.8
"/>
<use x="71.00" y="170.40" xlink:href="#hd"/>
<use x="92.30" y="143.40" xlink:href="#hd"/>
<path d="M88.80 143.40v21.00" class="stroke"/>
<path class="fill"
	d="M88.80 164.40c0.6 -5.6 9.6 -9 5.6 -18.4
	1.6 6 -1.3 11.6 -5.6 12.8
"/>
<use x="113.00" y="140.40" xlink:href="#hl"/>
<use x="113.00" y="137.40" xlink:href="#hd"/>
<path d="M109.50 137.40v21.00" class="stroke"/>
<path class="fill"
	d="M109.50 158.40c0.6 -5.6 9.6 -9 5.6 -18.4
	1.6 6 -1.3 11.6 -5.6 12.8
"/>
<use x="133.80" y="140.40" xlink:href="#hl"/>
<use x="133.80" y="134.40" xlink:href="#hl"/>
<use x="133.80" y="131.40" xlink:href="#hd"/>
<path d="M130.30 131.40v27.00" class="stroke"/>
<path class="fill"
	d="M130.30 158.40c0.6 -5.6 9.6 -9 5.6 -18.4
	1.6 6 -1.3 11.6 -5.6 12.8
"/>
<use x="154.60" y="140.40" xlink:href="#hl"/>
<use x="154.60" y="134.40" xlink:href="#hl"/>
<use x="154.60" y="128.40" xlink:href="#hl"/>
<use x="154.60" y="128.40" xlink:href="#hd"/>
<path d="M151.10 128.40v30.00" class="stroke"/>
<path class="fill"
	d="M151.10 158.40c0.6 -5.6 9.6 -9 5.6 -18.4
	1.6 6 -1.3 11.6 -5.6 12.8
"/>
<use x="175.40" y="140.40" xlink:href="#hl"/>
<use x="175.40" y="134.40" xlink:href="#hl"/>
<use x="175.40" y="128.40" xlink:href="#hl"/>
<use x="175.40" y="122.40" xlink:href="#hl"/>
<use x="175.40" y="122.40" xlink:href="#hd"/>
<path d="M171.90 122.40v36.00" class="stroke"/>
<path class="fill"
	d="M171.90 158.40c0.6 -5.6 9.6 -9 5.6 -18.4
	1.6 6 -1.3 11.6 -5.6 12.8
"/>
<use x="196.10" y="170.40" xlink:href="#hd"/>
<path d="M199.60 170.40v-21.00" class="stroke"/>
<path class="fill"
	d="M199.60 149.40c0.6 5.6 9.6 9 5.6 18.4
	1.6 -6 -1.3 -11.6 -5.6 -12.8
"/>
<use x="217.30" y="143.40" xlink:href="#hd"/>
<path d="M213.80 143.40v21.00" class="stroke"/>
<path class="fill"
	d="M213.80 164.40c0.6 -5.6 9.6 -9 5.6 -18.4
	1.6 6 -1.3 11.6 -5.6 12.8
"/>
<use x="244.80" y="158.40" xlink:href="#hd"/>
<path d="M241.30 158.40v21.00" class="stroke"/>
<path class="fill"
	d="M241.30 179.40c0.6 -5.6 9.6 -9 5.6 -18.4
	1.6 6 -1.3 11.6 -5.6 12.8
"/>
<use x="265.50" y="140.40" xlink:href="#hl"/>
<use x="265.50" y="134.40" xlink:href="#hl"/>
<use x="265.50" y="131.40" xlink:href="#hd"/>
<path d="M262.00 131.40v27.00" class="stroke"/>
<path class="fill"
	d="M262.00 158.40c0.6 -5.6 9.6 -9 5.6 -18.4
	1.6 6 -1.3 11.6 -5.6 12.8
"/>
<use x="286.30" y="140.40" xlink:href="#hl"/>
<use x="286.30" y="134.40" xlink:href="#hl"/>
<use x="286.30" y="128.40" xlink:href="#hl"/>
<use x="286.30" y="125.40" xlink:href="#hd"/>
<path d="M282.80 125.40v33.00" class="stroke"/>
<path class="fill"
	d="M282.80 158.40c0.6 -5.6 9.6 -9 5.6 -18.4
	1.6 6 -1.3 11.6 -5.6 12.8
"/>
<use x="307.10" y="140.40" xlink:href="#hl"/>
<use x="307.10" y="134.40" xlink:href="#hl"/>
<use x="307.10" y="128.40" xlink:href="#hl"/>
<use x="307.10" y="122.40" xlink:href="#hl"/>
<use x="307.10" y="119.40" xlink:href="#hd"/>
<path d="M303.60 119.40v39.00" class="stroke"/>
<path class="fill"
	d="M303.60 158.40c0.6 -5.6 9.6 -9 5.6 -18.4
	1.6 6 -1.3 11.6 -5.6 12.8
"/>
<use x="328.00" y="140.40" xlink:href="#hl"/>
<use x="328.00" y="134.40" xlink:href="#hl"/>
<use x="328.00" y="128.40" xlink:href="#hl"/>
<use x="328.00" y="122.40" xlink:href="#hl"/>
<use x="328.00" y="116.40" xlink:href="#hl"/>
<use x="328.00" y="116.40" xlink:href="#hd"/>
<path d="M324.50 116.40v42.00" class="stroke"/>
<path class="fill"
	d="M324.50 158.40c0.6 -5.6 9.6 -9 5.6 -18.4
	1.6 6 -1.3 11.6 -5.6 12.8
"/>
<use x="348.80" y="140.40" xlink:href="#hl"/>
<use x="348.80" y="134.40" xlink:href="#hl"/>
<use x="348.80" y="128.40" xlink:href="#hl"/>
<use x="348.80" y="122.40" xlink:href="#hl"/>
<use x="348.80" y="116.40" xlink:href="#hl"/>
<use x="348.80" y="110.40" xlink:href="#hl"/>
<use x="348.80" y="110.40" xlink:href="#hd"/>
<path d="M345.30 110.40v48.00" class="stroke"/>
<path class="fill"
	d="M345.30 158.40c0.6 -5.6 9.6 -9 5.6 -18.4
	1.6 6 -1.3 11.6 -5.6 12.8
"/>
<use x="369.50" y="158.40" xlink:href="#hd"/>
<path d="M366.00 158.40v21.00" class="stroke"/>
<path class="fill"
	d="M366.00 179.40c0.6 -5.6 9.6 -9 5.6 -18.4
	1.6 6 -1.3 11.6 -5.6 12.8
"/>
<use x="390.20" y="140.40" xlink:href="#hl"/>
<use x="390.20" y="134.40" xlink:href="#hl"/>
<use x="390.20" y="131.40" xlink:href="#hd"/>
<path d="M386.70 131.40v27.00" class="stroke"/>
<path class="fill"
	d="M386.70 158.40c0.6 -5.6 9.6 -9 5.6 -18.4
	1.6 6 -1.3 11.6 -5.6 12.8
"/>
<defs>
<path id="HD" class="fill" d="m-2.7 -1.4
	c1.5 -2.8 6.9 0 5.3 2.7
	-1.5 2.8 -6.9 0 -5.3 -2.7
	m8.3 1.4
	c0 -1.5 -2.2 -3 -5.6 -3
	-3.4 0 -5.6 1.5 -5.6 3
	0 1.5 2.2 3 5.6 3
	3.4 0 5.6 -1.5 5.6 -3"/>
</defs>
<use x="431.10" y="170.40" xlink:href="#HD"/>
<use x="431.10" y="164.40" xlink:href="#HD"/>
<use x="431.10" y="158.40" xlink:href="#HD"/>
<use x="431.10" y="152.40" xlink:href="#HD"/>
<use x="530.30" y="176.40" xlink:href="#hl"/>
<use x="530.30" y="182.40" xlink:href="#hl"/>
<use x="530.30" y="188.40" xlink:href="#hl"/>
<use x="530.30" y="191.40" xlink:href="#hd"/>
<path d="M533.80 191.40v-40.00" class="stroke"/>
<path class="fill"
	d="M533.80 151.40c0.6 5.6 9.6 9 5.6 18.4
	1.6 -6 -1.3 -11.6 -5.6 -12.8
"/>
<use x="530.30" y="170.40" xlink:href="#hd"/>
<use x="551.50" y="143.40" xlink:href="#hd"/>
<path d="M548.00 143.40v21.00" class="stroke"/>
<path class="fill"
	d="M548.00 164.40c0.6 -5.6 9.6 -9 5.6 -18.4
	1.6 6 -1.3 11.6 -5.6 12.8
"/>
<use x="572.20" y="140.40" xlink:href="#hl"/>
<use x="572.20" y="137.40" xlink:href="#hd"/>
<path d="M568.70 137.40v21.00" class="stroke"/>
<path class="fill"
	d="M568.70 158.40c0.6 -5.6 9.6 -9 5.6 -18.4
	1.6 6 -1.3 11.6 -5.6 12.8
"/>
<use x="593.00" y="140.40" xlink:href="#hl"/>
<use x="593.00" y="134.40" xlink:href="#hl"/>
<use x="593.00" y="131.40" xlink:href="#hd"/>
<path d="M589.50 131.40v27.00" class="stroke"/>
<path class="fill"
	d="M589.50 158.40c0.6 -5.6 9.6 -9 5.6 -18.4
	1.6 6 -1.3 11.6 -5.6 12.8
"/>
<use x="613.80" y="140.40" xlink:href="#hl"/>
<use x="613.80" y="134.40" xlink:href="#hl"/>
<use x="613.80" y="128.40" xlink:href="#hl"/>
<use x="613.80" y="128.40" xlink:href="#hd"/>
<path d="M610.30 128.40v30.00" class="stroke"/>
<path class="fill"
	d="M610.30 158.40c0.6 -5.6 9.6 -9 5.6 -18.4
	1.6 6 -1.3 11.6 -5.6 12.8
"/>
<use x="634.70" y="140.40" xlink:href="#hl"/>
<use x="634.70" y="134.40" xlink:href="#hl"/>
<use x="634.70" y="128.40" xlink:href="#hl"/>
<use x="634.70" y="122.40" xlink:href="#hl"/>
<use x="634.70" y="122.40" xlink:href="#hd"/>
<path d="M631.20 122.40v36.00" class="stroke"/>
<path class="fill"
	d="M631.20 158.40c0.6 -5.6 9.6 -9 5.6 -18.4
	1.6 6 -1.3 11.6 -5.6 12.8
"/>
<use x="655.30" y="170.40" xlink:href="#hd"/>
<path d="M658.80 170.40v-21.00" class="stroke"/>
<path class="fill"
	d="M658.80 149.40c0.6 5.6 9.6 9 5.6 18.4
	1.6 -6 -1.3 -11.6 -5.6 -12.8
"/>
<use x="676.60" y="143.40" xlink:href="#hd"/>
<path d="M673.10 143.40v21.00" class="stroke"/>
<path class="fill"
	d="M673.10 164.40c0.6 -5.6 9.6 -9 5.6 -18.4
	1.6 6 -1.3 11.6 -5.6 12.8
"/>
<defs>
<path id="ltr" class="fill"
    d="m0 -0.4c2 -1.5 3.4 -1.9 3.9 0.4
	c0.2 0.8 0.7 0.7 2.1 -0.4
	v0.8c-2 1.5 -3.4 1.9 -3.9 -0.4
	c-0.2 -0.8 -0.7 -0.7 -2.1 0.4z"/>
</defs>
<g transform="rotate(270)">
<use x="-173.40" y="417.60" xlink:href="#ltr"/>
<use x="-167.40" y="417.60" xlink:href="#ltr"/>
<use x="-161.40" y="417.60" xlink:href="#ltr"/>
<use x="-155.40" y="417.60" xlink:href="#ltr"/>
</g>
<text x="522.50" y="69.40" style="font:bold italic 30px serif">,</text>
</g>
<g stroke-width="0.70" style="font:italic 11.00px Times">
<path class="stroke" stroke-width="1"
	d="M10.00 311.80v-89.00"/>
<g transform="translate(10.00,222.80) scale(1,0.89)">
	<use xlink:href="#brace"/>
</g>
<path class="stroke" stroke-width="1"
	d="M227.70 246.80v-24.00"/>
<path class="stroke" stroke-width="1"
	d="M227.70 311.80v-24.00"/>
<path class="stroke" stroke-width="1"
	d="M410.80 246.80v-24.00"/>
<path class="stroke" stroke-width="1"
	d="M410.80 311.80v-24.00"/>
<path class="stroke" stroke-width="1"
	d="M593.90 246.80v-24.00"/>
<path class="stroke" stroke-width="1"
	d="M593.90 311.80v-24.00"/>
<path class="stroke" stroke-width="1"
	d="M691.60 246.80v-24.00"/>
<path class="stroke" stroke-width="1"
	d="M691.60 311.80v-24.00"/>
<path d="m10.00 246.80
	h681.60
	M10.00 240.80
	h681.60
	M10.00 234.80
	h681.60
	M10.00 228.80
	h681.60
	M10.00 222.80
	h681.60
	" class="stroke"/>
<path d="m10.00 311.80
	h681.60
	M10.00 305.80
	h681.60
	M10.00 299.80
	h681.60
	M10.00 293.80
	h681.60
	M10.00 287.80
	h681.60
	" class="stroke"/>
</g>
<g stroke-width="0.70" style="font:bold 13.00px Times">
<text x="47.30" y="218.20">I<tspan
	 style="font:italic 11.00px Times">Δ⁷¹</tspan></text>
</g>
<g stroke-width="0.70" style="font:bold 13.00px Times">
<text x="232.20" y="216.20">iii<tspan
	 style="font:italic 11.00px Times">m⁷</tspan></text>
</g>
<g stroke-width="0.70" style="font:bold 13.00px Times">
<text x="415.30" y="207.20">IV<tspan
	 style="font:italic 11.00px Times">Δ⁷</tspan></text>
</g>
<g stroke-width="0.70" style="font:bold 13.00px Times">
<text x="613.20" y="211.20">I<tspan
	 style="font:italic 11.00px Times">Δ⁷</tspan></text>
</g>
<g stroke-width="0.70" style="font:italic 11.00px Times">
<use x="22.00" y="240.80" xlink:href="#tclef"/>
<use x="37.00" y="222.80" xlink:href="#sh0"/>
<use x="55.00" y="228.80" xlink:href="#hd"/>
<path d="M51.50 228.80v21.00" class="stroke"/>
<use x="99.90" y="228.80" xlink:href="#hd"/>
<path d="M96.40 228.80v21.00" class="stroke"/>
<use x="144.60" y="231.80" xlink:href="#hd"/>
<path d="M141.10 231.80v21.00" class="stroke"/>
<use x="189.20" y="231.80" xlink:href="#hd"/>
<path d="M185.70 231.80v21.00" class="stroke"/>
<use x="240.20" y="234.80" xlink:href="#hd"/>
<path d="M236.70 234.80v21.00" class="stroke"/>
<use x="285.20" y="234.80" xlink:href="#hd"/>
<path d="M281.70 234.80v21.00" class="stroke"/>
<use x="329.80" y="237.80" xlink:href="#Hd"/>
<path d="M333.30 237.80v-21.00" class="stroke"/>
<use x="423.30" y="234.80" xlink:href="#hd"/>
<path d="M426.80 234.80v-21.00" class="stroke"/>
<use x="468.30" y="231.80" xlink:href="#hd"/>
<path d="M464.80 231.80v21.00" class="stroke"/>
<use x="512.90" y="237.80" xlink:href="#Hd"/>
<path d="M516.40 237.80v-21.00" class="stroke"/>
<use x="618.90" y="219.80" xlink:href="#Hd"/>
<circle class="fill" cx="627.60" cy="219.80" r="1.2"/>
<path d="M615.40 219.80v40.00" class="stroke"/>
<use x="618.90" y="240.80" xlink:href="#Hd"/>
<circle class="fill" cx="627.60" cy="237.80" r="1.2"/>
<use x="669.40" y="234.80" xlink:href="#r4"/>
<use x="22.00" y="293.80" xlink:href="#bclef"/>
<use x="37.00" y="293.80" xlink:href="#sh0"/>
<use x="55.00" y="311.80" xlink:href="#hd"/>
<path d="M58.50 311.80v-21.00" class="stroke"/>
<path class="fill"
	d="M58.50 290.80c0.6 5.6 9.6 9 5.6 18.4
	1.6 -6 -1.3 -11.6 -5.6 -12.8
"/>
<use x="77.60" y="284.80" xlink:href="#hd"/>
<path d="M74.10 284.80v21.00" class="stroke"/>
<path class="fill"
	d="M74.10 305.80c0.6 -5.6 9.6 -9 5.6 -18.4
	1.6 6 -1.3 11.6 -5.6 12.8
"/>
<use x="99.90" y="281.80" xlink:href="#hl"/>
<use x="99.90" y="278.80" xlink:href="#hd"/>
<path d="M96.40 278.80v21.00" class="stroke"/>
<path class="fill"
	d="M96.40 299.80c0.6 -5.6 9.6 -9 5.6 -18.4
	1.6 6 -1.3 11.6 -5.6 12.8
"/>
<use x="122.20" y="281.80" xlink:href="#hl"/>
<use x="122.20" y="275.80" xlink:href="#hl"/>
<use x="122.20" y="272.80" xlink:href="#hd"/>
<path d="M118.70 272.80v27.00" class="stroke"/>
<path class="fill"
	d="M118.70 299.80c0.6 -5.6 9.6 -9 5.6 -18.4
	1.6 6 -1.3 11.6 -5.6 12.8
"/>
<use x="144.60" y="281.80" xlink:href="#hl"/>
<use x="144.60" y="275.80" xlink:href="#hl"/>
<use x="144.60" y="269.80" xlink:href="#hl"/>
<use x="144.60" y="269.80" xlink:href="#hd"/>
<path d="M141.10 269.80v30.00" class="stroke"/>
<path class="fill"
	d="M141.10 299.80c0.6 -5.6 9.6 -9 5.6 -18.4
	1.6 6 -1.3 11.6 -5.6 12.8
"/>
<use x="166.90" y="281.80" xlink:href="#hl"/>
<use x="166.90" y="275.80" xlink:href="#hl"/>
<use x="166.90" y="269.80" xlink:href="#hl"/>
<use x="166.90" y="263.80" xlink:href="#hl"/>
<use x="166.90" y="263.80" xlink:href="#hd"/>
<path d="M163.40 263.80v36.00" class="stroke"/>
<path class="fill"
	d="M163.40 299.80c0.6 -5.6 9.6 -9 5.6 -18.4
	1.6 6 -1.3 11.6 -5.6 12.8
"/>
<use x="189.20" y="311.80" xlink:href="#hd"/>
<path d="M192.70 311.80v-21.00" class="stroke"/>
<path class="fill"
	d="M192.70 290.80c0.6 5.6 9.6 9 5.6 18.4
	1.6 -6 -1.3 -11.6 -5.6 -12.8
"/>
<use x="211.80" y="284.80" xlink:href="#hd"/>
<path d="M208.30 284.80v21.00" class="stroke"/>
<path class="fill"
	d="M208.30 305.80c0.6 -5.6 9.6 -9 5.6 -18.4
	1.6 6 -1.3 11.6 -5.6 12.8
"/>
<use x="240.20" y="305.80" xlink:href="#hd"/>
<path d="M243.70 305.80v-21.00" class="stroke"/>
<path class="fill"
	d="M243.70 284.80c0.6 5.6 9.6 9 5.6 18.4
	1.6 -6 -1.3 -11.6 -5.6 -12.8
"/>
<use x="262.80" y="281.80" xlink:href="#hl"/>
<use x="262.80" y="278.80" xlink:href="#hd"/>
<path d="M259.30 278.80v21.00" class="stroke"/>
<path class="fill"
	d="M259.30 299.80c0.6 -5.6 9.6 -9 5.6 -18.4
	1.6 6 -1.3 11.6 -5.6 12.8
"/>
<use x="285.20" y="281.80" xlink:href="#hl"/>
<use x="285.20" y="275.80" xlink:href="#hl"/>
<use x="285.20" y="272.80" xlink:href="#hd"/>
<path d="M281.70 272.80v27.00" class="stroke"/>
<path class="fill"
	d="M281.70 299.80c0.6 -5.6 9.6 -9 5.6 -18.4
	1.6 6 -1.3 11.6 -5.6 12.8
"/>
<use x="307.50" y="281.80" xlink:href="#hl"/>
<use x="307.50" y="275.80" xlink:href="#hl"/>
<use x="307.50" y="269.80" xlink:href="#hl"/>
<use x="307.50" y="266.80" xlink:href="#hd"/>
<path d="M304.00 266.80v33.00" class="stroke"/>
<path class="fill"
	d="M304.00 299.80c0.6 -5.6 9.6 -9 5.6 -18.4
	1.6 6 -1.3 11.6 -5.6 12.8
"/>
<use x="329.80" y="281.80" xlink:href="#hl"/>
<use x="329.80" y="275.80" xlink:href="#hl"/>
<use x="329.80" y="269.80" xlink:href="#hl"/>
<use x="329.80" y="263.80" xlink:href="#hl"/>
<use x="329.80" y="263.80" xlink:href="#hd"/>
<path d="M326.30 263.80v36.00" class="stroke"/>
<path class="fill"
	d="M326.30 299.80c0.6 -5.6 9.6 -9 5.6 -18.4
	1.6 6 -1.3 11.6 -5.6 12.8
"/>
<use x="352.20" y="281.80" xlink:href="#hl"/>
<use x="352.20" y="275.80" xlink:href="#hl"/>
<use x="352.20" y="269.80" xlink:href="#hl"/>
<use x="352.20" y="263.80" xlink:href="#hl"/>
<use x="352.20" y="257.80" xlink:href="#hl"/>
<use x="352.20" y="257.80" xlink:href="#hd"/>
<path d="M348.70 257.80v42.00" class="stroke"/>
<path class="fill"
	d="M348.70 299.80c0.6 -5.6 9.6 -9 5.6 -18.4
	1.6 6 -1.3 11.6 -5.6 12.8
"/>
<use x="372.30" y="305.80" xlink:href="#hd"/>
<path d="M375.80 305.80v-21.00" class="stroke"/>
<path class="fill"
	d="M375.80 284.80c0.6 5.6 9.6 9 5.6 18.4
	1.6 -6 -1.3 -11.6 -5.6 -12.8
"/>
<use x="394.90" y="281.80" xlink:href="#hl"/>
<use x="394.90" y="278.80" xlink:href="#hd"/>
<path d="M391.40 278.80v21.00" class="stroke"/>
<path class="fill"
	d="M391.40 299.80c0.6 -5.6 9.6 -9 5.6 -18.4
	1.6 6 -1.3 11.6 -5.6 12.8
"/>
<use x="423.30" y="302.80" xlink:href="#hd"/>
<path d="M426.80 302.80v-21.00" class="stroke"/>
<path class="fill"
	d="M426.80 281.80c0.6 5.6 9.6 9 5.6 18.4
	1.6 -6 -1.3 -11.6 -5.6 -12.8
"/>
<use x="445.90" y="281.80" xlink:href="#hl"/>
<use x="445.90" y="275.80" xlink:href="#hl"/>
<use x="445.90" y="275.80" xlink:href="#hd"/>
<path d="M442.40 275.80v24.00" class="stroke"/>
<path class="fill"
	d="M442.40 299.80c0.6 -5.6 9.6 -9 5.6 -18.4
	1.6 6 -1.3 11.6 -5.6 12.8
"/>
<use x="468.30" y="281.80" xlink:href="#hl"/>
<use x="468.30" y="275.80" xlink:href="#hl"/>
<use x="468.30" y="269.80" xlink:href="#hl"/>
<use x="468.30" y="269.80" xlink:href="#hd"/>
<path d="M464.80 269.80v30.00" class="stroke"/>
<path class="fill"
	d="M464.80 299.80c0.6 -5.6 9.6 -9 5.6 -18.4
	1.6 6 -1.3 11.6 -5.6 12.8
"/>
<use x="490.60" y="281.80" xlink:href="#hl"/>
<use x="490.60" y="275.80" xlink:href="#hl"/>
<use x="490.60" y="269.80" xlink:href="#hl"/>
<use x="490.60" y="263.80" xlink:href="#hl"/>
<use x="490.60" y="263.80" xlink:href="#hd"/>
<path d="M487.10 263.80v36.00" class="stroke"/>
<path class="fill"
	d="M487.10 299.80c0.6 -5.6 9.6 -9 5.6 -18.4
	1.6 6 -1.3 11.6 -5.6 12.8
"/>
<use x="512.90" y="281.80" xlink:href="#hl"/>
<use x="512.90" y="275.80" xlink:href="#hl"/>
<use x="512.90" y="269.80" xlink:href="#hl"/>
<use x="512.90" y="263.80" xlink:href="#hl"/>
<use x="512.90" y="260.80" xlink:href="#hd"/>
<path d="M509.40 260.80v39.00" class="stroke"/>
<path class="fill"
	d="M509.40 299.80c0.6 -5.6 9.6 -9 5.6 -18.4
	1.6 6 -1.3 11.6 -5.6 12.8
"/>
<use x="535.30" y="281.80" xlink:href="#hl"/>
<use x="535.30" y="275.80" xlink:href="#hl"/>
<use x="535.30" y="269.80" xlink:href="#hl"/>
<use x="535.30" y="263.80" xlink:href="#hl"/>
<use x="535.30" y="257.80" xlink:href="#hl"/>
<use x="535.30" y="254.80" xlink:href="#hd"/>
<path d="M531.80 254.80v45.00" class="stroke"/>
<path class="fill"
	d="M531.80 299.80c0.6 -5.6 9.6 -9 5.6 -18.4
	1.6 6 -1.3 11.6 -5.6 12.8
"/>
<use x="555.40" y="302.80" xlink:href="#hd"/>
<path d="M558.90 302.80v-21.00" class="stroke"/>
<path class="fill"
	d="M558.90 281.80c0.6 5.6 9.6 9 5.6 18.4
	1.6 -6 -1.3 -11.6 -5.6 -12.8
"/>
<use x="578.00" y="281.80" xlink:href="#hl"/>
<use x="578.00" y="275.80" xlink:href="#hl"/>
<use x="578.00" y="275.80" xlink:href="#hd"/>
<path d="M574.50 275.80v24.00" class="stroke"/>
<path class="fill"
	d="M574.50 299.80c0.6 -5.6 9.6 -9 5.6 -18.4
	1.6 6 -1.3 11.6 -5.6 12.8
"/>
<use x="619.90" y="311.80" xlink:href="#HD"/>
<use x="619.90" y="305.80" xlink:href="#HD"/>
<use x="619.90" y="299.80" xlink:href="#HD"/>
<use x="619.90" y="293.80" xlink:href="#HD"/>
<g transform="rotate(270)">
<use x="-314.80" y="606.40" xlink:href="#ltr"/>
<use x="-308.80" y="606.40" xlink:href="#ltr"/>
<use x="-302.80" y="606.40" xlink:href="#ltr"/>
<use x="-296.80" y="606.40" xlink:href="#ltr"/>
</g>
<text x="691.60" y="213.80" style="font:bold italic 30px serif">,</text>
</g>
<g stroke-width="0.70" style="font:italic 11.00px Times">
<path class="stroke" stroke-width="1"
	d="M10.00 463.20v-95.00"/>
<g transform="translate(10.00,368.20) scale(1,0.95)">
	<use xlink:href="#brace"/>
</g>
<path class="stroke" stroke-width="1"
	d="M226.20 392.20v-24.00"/>
<path class="stroke" stroke-width="1"
	d="M226.20 463.20v-24.00"/>
<path class="stroke" stroke-width="1"
	d="M323.40 392.20v-24.00"/>
<path class="stroke" stroke-width="1"
	d="M323.40 463.20v-24.00"/>
<path class="stroke" stroke-width="1"
	d="M507.60 392.20v-24.00"/>
<path class="stroke" stroke-width="1"
	d="M507.60 463.20v-24.00"/>
<path class="stroke" stroke-width="1"
	d="M691.60 392.20v-24.00"/>
<path class="stroke" stroke-width="1"
	d="M691.60 463.20v-24.00"/>
<path d="m10.00 392.20
	h681.60
	M10.00 386.20
	h681.60
	M10.00 380.20
	h681.60
	M10.00 374.20
	h681.60
	M10.00 368.20
	h681.60
	" class="stroke"/>
<path d="m10.00 463.20
	h681.60
	M10.00 457.20
	h681.60
	M10.00 451.20
	h681.60
	M10.00 445.20
	h681.60
	M10.00 439.20
	h681.60
	" class="stroke"/>
</g>
<g stroke-width="0.70" style="font:bold 13.00px Times">
<text x="47.00" y="363.60">vi<tspan
	 style="font:italic 11.00px Times">m⁷</tspan></text>
</g>
<g stroke-width="0.70" style="font:bold 13.00px Times">
<text x="243.30" y="344.60">V<tspan
	 style="font:italic 11.00px Times">⁷¹</tspan></text>
</g>
<g stroke-width="0.70" style="font:bold 13.00px Times">
<text x="330.50" y="361.60">V<tspan
	 style="font:italic 11.00px Times">⁷</tspan></text>
</g>
<g stroke-width="0.70" style="font:bold 13.00px Times">
<text x="514.40" y="363.60">I<tspan
	 style="font:italic 11.00px Times">Δ⁷</tspan></text>
</g>
<g stroke-width="0.70" style="font:italic 11.00px Times">
<use x="22.00" y="386.20" xlink:href="#tclef"/>
<use x="37.00" y="368.20" xlink:href="#sh0"/>
<use x="55.00" y="380.20" xlink:href="#hd"/>
<path d="M51.50 380.20v21.00" class="stroke"/>
<use x="99.70" y="383.20" xlink:href="#hd"/>
<path d="M103.20 383.20v-21.00" class="stroke"/>
<use x="144.00" y="380.20" xlink:href="#hd"/>
<path d="M147.50 380.20v-21.00" class="stroke"/>
<use x="188.30" y="377.20" xlink:href="#hd"/>
<path d="M184.80 377.20v21.00" class="stroke"/>
<use x="251.20" y="362.20" xlink:href="#hl"/>
<use x="251.20" y="356.20" xlink:href="#hl"/>
<use x="251.20" y="353.20" xlink:href="#Hd"/>
<circle class="fill" cx="259.90" cy="353.20" r="1.2"/>
<path d="M247.70 353.20v40.00" class="stroke"/>
<use x="251.20" y="374.20" xlink:href="#Hd"/>
<circle class="fill" cx="259.90" cy="371.20" r="1.2"/>
<use x="301.40" y="362.20" xlink:href="#hl"/>
<use x="301.40" y="356.20" xlink:href="#hl"/>
<use x="301.40" y="356.20" xlink:href="#hd"/>
<path d="M297.90 356.20v40.00" class="stroke"/>
<use x="301.40" y="377.20" xlink:href="#hd"/>
<use x="336.40" y="380.20" xlink:href="#Hd"/>
<path d="M332.90 380.20v21.00" class="stroke"/>
<defs>
<rect id="r2" class="fill"
	x="-3.5" y="-3" width="7" height="3"/>
</defs>
<use x="425.40" y="380.20" xlink:href="#r2"/>
<use x="520.10" y="380.20" xlink:href="#hd"/>
<path d="M516.60 380.20v21.00" class="stroke"/>
<use x="564.70" y="383.20" xlink:href="#hd"/>
<path d="M568.20 383.20v-21.00" class="stroke"/>
<use x="609.00" y="380.20" xlink:href="#hd"/>
<path d="M612.50 380.20v-21.00" class="stroke"/>
<use x="653.30" y="377.20" xlink:href="#hd"/>
<path d="M649.80 377.20v21.00" class="stroke"/>
<use x="22.00" y="445.20" xlink:href="#bclef"/>
<use x="37.00" y="445.20" xlink:href="#sh0"/>
<use x="55.00" y="469.20" xlink:href="#hl"/>
<use x="55.00" y="469.20" xlink:href="#hd"/>
<path d="M58.50 469.20v-40.00" class="stroke"/>
<path class="fill"
	d="M58.50 429.20c0.6 5.6 9.6 9 5.6 18.4
	1.6 -6 -1.3 -11.6 -5.6 -12.8
"/>
<use x="55.00" y="448.20" xlink:href="#hd"/>
<use x="77.50" y="433.20" xlink:href="#hl"/>
<use x="77.50" y="427.20" xlink:href="#hl"/>
<use x="77.50" y="421.20" xlink:href="#hl"/>
<use x="77.50" y="421.20" xlink:href="#hd"/>
<path d="M74.00 421.20v30.00" class="stroke"/>
<path class="fill"
	d="M74.00 451.20c0.6 -5.6 9.6 -9 5.6 -18.4
	1.6 6 -1.3 11.6 -5.6 12.8
"/>
<use x="99.70" y="433.20" xlink:href="#hl"/>
<use x="99.70" y="427.20" xlink:href="#hl"/>
<use x="99.70" y="421.20" xlink:href="#hl"/>
<use x="99.70" y="415.20" xlink:href="#hl"/>
<use x="99.70" y="415.20" xlink:href="#hd"/>
<path d="M96.20 415.20v36.00" class="stroke"/>
<path class="fill"
	d="M96.20 451.20c0.6 -5.6 9.6 -9 5.6 -18.4
	1.6 6 -1.3 11.6 -5.6 12.8
"/>
<use x="121.80" y="433.20" xlink:href="#hl"/>
<use x="121.80" y="427.20" xlink:href="#hl"/>
<use x="121.80" y="421.20" xlink:href="#hl"/>
<use x="121.80" y="415.20" xlink:href="#hl"/>
<use x="121.80" y="409.20" xlink:href="#hl"/>
<use x="121.80" y="409.20" xlink:href="#hd"/>
<path d="M118.30 409.20v42.00" class="stroke"/>
<path class="fill"
	d="M118.30 451.20c0.6 -5.6 9.6 -9 5.6 -18.4
	1.6 6 -1.3 11.6 -5.6 12.8
"/>
<use x="144.00" y="433.20" xlink:href="#hl"/>
<use x="144.00" y="427.20" xlink:href="#hl"/>
<use x="144.00" y="421.20" xlink:href="#hl"/>
<use x="144.00" y="415.20" xlink:href="#hl"/>
<use x="144.00" y="409.20" xlink:href="#hl"/>
<use x="144.00" y="406.20" xlink:href="#hd"/>
<path d="M140.50 406.20v45.00" class="stroke"/>
<path class="fill"
	d="M140.50 451.20c0.6 -5.6 9.6 -9 5.6 -18.4
	1.6 6 -1.3 11.6 -5.6 12.8
"/>
<use x="166.20" y="433.20" xlink:href="#hl"/>
<use x="166.20" y="427.20" xlink:href="#hl"/>
<use x="166.20" y="421.20" xlink:href="#hl"/>
<use x="166.20" y="415.20" xlink:href="#hl"/>
<use x="166.20" y="409.20" xlink:href="#hl"/>
<use x="166.20" y="403.20" xlink:href="#hl"/>
<use x="166.20" y="400.20" xlink:href="#hd"/>
<path d="M162.70 400.20v51.00" class="stroke"/>
<path class="fill"
	d="M162.70 451.20c0.6 -5.6 9.6 -9 5.6 -18.4
	1.6 6 -1.3 11.6 -5.6 12.8
"/>
<use x="188.30" y="448.20" xlink:href="#hd"/>
<path d="M184.80 448.20v21.00" class="stroke"/>
<path class="fill"
	d="M184.80 469.20c0.6 -5.6 9.6 -9 5.6 -18.4
	1.6 6 -1.3 11.6 -5.6 12.8
"/>
<use x="210.40" y="433.20" xlink:href="#hl"/>
<use x="210.40" y="427.20" xlink:href="#hl"/>
<use x="210.40" y="421.20" xlink:href="#hl"/>
<use x="210.40" y="421.20" xlink:href="#hd"/>
<path d="M206.90 421.20v30.00" class="stroke"/>
<path class="fill"
	d="M206.90 451.20c0.6 -5.6 9.6 -9 5.6 -18.4
	1.6 6 -1.3 11.6 -5.6 12.8
"/>
<defs>
<path id="hl1" class="stroke" d="m-7 0h14"/>
</defs>
<use x="252.20" y="433.20" xlink:href="#hl1"/>
<use x="252.20" y="433.20" xlink:href="#HD"/>
<use x="252.20" y="451.20" xlink:href="#HD"/>
<use x="252.20" y="445.20" xlink:href="#HD"/>
<use x="252.20" y="439.20" xlink:href="#HD"/>
<use x="336.40" y="469.20" xlink:href="#hl"/>
<use x="336.40" y="472.20" xlink:href="#hd"/>
<path d="M339.90 472.20v-40.00" class="stroke"/>
<path class="fill"
	d="M339.90 432.20c0.6 5.6 9.6 9 5.6 18.4
	1.6 -6 -1.3 -11.6 -5.6 -12.8
"/>
<use x="336.40" y="451.20" xlink:href="#hd"/>
<use x="358.90" y="433.20" xlink:href="#hl"/>
<use x="358.90" y="427.20" xlink:href="#hl"/>
<use x="358.90" y="424.20" xlink:href="#hd"/>
<path d="M355.40 424.20v27.00" class="stroke"/>
<path class="fill"
	d="M355.40 451.20c0.6 -5.6 9.6 -9 5.6 -18.4
	1.6 6 -1.3 11.6 -5.6 12.8
"/>
<use x="381.10" y="433.20" xlink:href="#hl"/>
<use x="381.10" y="427.20" xlink:href="#hl"/>
<use x="381.10" y="421.20" xlink:href="#hl"/>
<use x="381.10" y="418.20" xlink:href="#hd"/>
<path d="M377.60 418.20v33.00" class="stroke"/>
<path class="fill"
	d="M377.60 451.20c0.6 -5.6 9.6 -9 5.6 -18.4
	1.6 6 -1.3 11.6 -5.6 12.8
"/>
<use x="403.30" y="433.20" xlink:href="#hl"/>
<use x="403.30" y="427.20" xlink:href="#hl"/>
<use x="403.30" y="421.20" xlink:href="#hl"/>
<use x="403.30" y="415.20" xlink:href="#hl"/>
<use x="403.30" y="412.20" xlink:href="#hd"/>
<path d="M399.80 412.20v39.00" class="stroke"/>
<path class="fill"
	d="M399.80 451.20c0.6 -5.6 9.6 -9 5.6 -18.4
	1.6 6 -1.3 11.6 -5.6 12.8
"/>
<use x="425.40" y="433.20" xlink:href="#hl"/>
<use x="425.40" y="427.20" xlink:href="#hl"/>
<use x="425.40" y="421.20" xlink:href="#hl"/>
<use x="425.40" y="415.20" xlink:href="#hl"/>
<use x="425.40" y="409.20" xlink:href="#hl"/>
<use x="425.40" y="409.20" xlink:href="#hd"/>
<path d="M421.90 409.20v42.00" class="stroke"/>
<path class="fill"
	d="M421.90 451.20c0.6 -5.6 9.6 -9 5.6 -18.4
	1.6 6 -1.3 11.6 -5.6 12.8
"/>
<use x="447.60" y="433.20" xlink:href="#hl"/>
<use x="447.60" y="427.20" xlink:href="#hl"/>
<use x="447.60" y="421.20" xlink:href="#hl"/>
<use x="447.60" y="415.20" xlink:href="#hl"/>
<use x="447.60" y="409.20" xlink:href="#hl"/>
<use x="447.60" y="403.20" xlink:href="#hl"/>
<use x="447.60" y="403.20" xlink:href="#hd"/>
<path d="M444.10 403.20v48.00" class="stroke"/>
<path class="fill"
	d="M444.10 451.20c0.6 -5.6 9.6 -9 5.6 -18.4
	1.6 6 -1.3 11.6 -5.6 12.8
"/>
<use x="469.70" y="451.20" xlink:href="#hd"/>
<path d="M466.20 451.20v21.00" class="stroke"/>
<path class="fill"
	d="M466.20 472.20c0.6 -5.6 9.6 -9 5.6 -18.4
	1.6 6 -1.3 11.6 -5.6 12.8
"/>
<use x="491.80" y="433.20" xlink:href="#hl"/>
<use x="491.80" y="427.20" xlink:href="#hl"/>
<use x="491.80" y="424.20" xlink:href="#hd"/>
<path d="M488.30 424.20v27.00" class="stroke"/>
<path class="fill"
	d="M488.30 451.20c0.6 -5.6 9.6 -9 5.6 -18.4
	1.6 6 -1.3 11.6 -5.6 12.8
"/>
<use x="520.10" y="463.20" xlink:href="#hd"/>
<path d="M523.60 463.20v-21.00" class="stroke"/>
<path class="fill"
	d="M523.60 442.20c0.6 5.6 9.6 9 5.6 18.4
	1.6 -6 -1.3 -11.6 -5.6 -12.8
"/>
<use x="542.60" y="436.20" xlink:href="#hd"/>
<path d="M539.10 436.20v21.00" class="stroke"/>
<path class="fill"
	d="M539.10 457.20c0.6 -5.6 9.6 -9 5.6 -18.4
	1.6 6 -1.3 11.6 -5.6 12.8
"/>
<use x="564.70" y="433.20" xlink:href="#hl"/>
<use x="564.70" y="430.20" xlink:href="#hd"/>
<path d="M561.20 430.20v21.00" class="stroke"/>
<path class="fill"
	d="M561.20 451.20c0.6 -5.6 9.6 -9 5.6 -18.4
	1.6 6 -1.3 11.6 -5.6 12.8
"/>
<use x="586.90" y="433.20" xlink:href="#hl"/>
<use x="586.90" y="427.20" xlink:href="#hl"/>
<use x="586.90" y="424.20" xlink:href="#hd"/>
<path d="M583.40 424.20v27.00" class="stroke"/>
<path class="fill"
	d="M583.40 451.20c0.6 -5.6 9.6 -9 5.6 -18.4
	1.6 6 -1.3 11.6 -5.6 12.8
"/>
<use x="609.00" y="433.20" xlink:href="#hl"/>
<use x="609.00" y="427.20" xlink:href="#hl"/>
<use x="609.00" y="421.20" xlink:href="#hl"/>
<use x="609.00" y="421.20" xlink:href="#hd"/>
<path d="M605.50 421.20v30.00" class="stroke"/>
<path class="fill"
	d="M605.50 451.20c0.6 -5.6 9.6 -9 5.6 -18.4
	1.6 6 -1.3 11.6 -5.6 12.8
"/>
<use x="631.20" y="433.20" xlink:href="#hl"/>
<use x="631.20" y="427.20" xlink:href="#hl"/>
<use x="631.20" y="421.20" xlink:href="#hl"/>
<use x="631.20" y="415.20" xlink:href="#hl"/>
<use x="631.20" y="415.20" xlink:href="#hd"/>
<path d="M627.70 415.20v36.00" class="stroke"/>
<path class="fill"
	d="M627.70 451.20c0.6 -5.6 9.6 -9 5.6 -18.4
	1.6 6 -1.3 11.6 -5.6 12.8
"/>
<use x="653.30" y="463.20" xlink:href="#hd"/>
<path d="M656.80 463.20v-21.00" class="stroke"/>
<path class="fill"
	d="M656.80 442.20c0.6 5.6 9.6 9 5.6 18.4
	1.6 -6 -1.3 -11.6 -5.6 -12.8
"/>
<use x="675.80" y="436.20" xlink:href="#hd"/>
<path d="M672.30 436.20v21.00" class="stroke"/>
<path class="fill"
	d="M672.30 457.20c0.6 -5.6 9.6 -9 5.6 -18.4
	1.6 6 -1.3 11.6 -5.6 12.8
"/>
<g transform="rotate(270)">
<use x="-454.20" y="238.70" xlink:href="#ltr"/>
<use x="-448.20" y="238.70" xlink:href="#ltr"/>
<use x="-442.20" y="238.70" xlink:href="#ltr"/>
<use x="-436.20" y="238.70" xlink:href="#ltr"/>
</g>
<text x="328.60" y="359.20" style="font:bold italic 30px serif">,</text>
</g>
<g stroke-width="0.70" style="font:italic 11.00px Times">
<path class="stroke" stroke-width="1"
	d="M10.00 604.20v-95.00"/>
<g transform="translate(10.00,509.20) scale(1,0.95)">
	<use xlink:href="#brace"/>
</g>
<path class="stroke" stroke-width="1"
	d="M205.70 533.20v-24.00"/>
<path class="stroke" stroke-width="1"
	d="M205.70 604.20v-24.00"/>
<path class="stroke" stroke-width="1"
	d="M367.70 533.20v-24.00"/>
<path class="stroke" stroke-width="1"
	d="M367.70 604.20v-24.00"/>
<path class="stroke" stroke-width="1"
	d="M530.10 533.20v-24.00"/>
<path class="stroke" stroke-width="1"
	d="M530.10 604.20v-24.00"/>
<path class="stroke" stroke-width="1"
	d="M691.60 533.20v-24.00"/>
<path class="stroke" stroke-width="1"
	d="M691.60 604.20v-24.00"/>
<path d="m10.00 533.20
	h681.60
	M10.00 527.20
	h681.60
	M10.00 521.20
	h681.60
	M10.00 515.20
	h681.60
	M10.00 509.20
	h681.60
	" class="stroke"/>
<path d="m10.00 604.20
	h681.60
	M10.00 598.20
	h681.60
	M10.00 592.20
	h681.60
	M10.00 586.20
	h681.60
	M10.00 580.20
	h681.60
	" class="stroke"/>
</g>
<g stroke-width="0.70" style="font:bold 13.00px Times">
<text x="49.80" y="504.60">I<tspan
	 style="font:italic 11.00px Times">Δ⁷</tspan></text>
</g>
<g stroke-width="0.70" style="font:bold 13.00px Times">
<text x="210.70" y="502.60">vi<tspan
	 style="font:italic 11.00px Times">m⁷</tspan></text>
</g>
<g stroke-width="0.70" style="font:bold 13.00px Times">
<text x="373.70" y="504.60">IV<tspan
	 style="font:italic 11.00px Times">Δ⁷</tspan></text>
</g>
<g stroke-width="0.70" style="font:bold 13.00px Times">
<text x="535.10" y="499.60">IV<tspan
	 style="font:italic 11.00px Times">Δ⁷</tspan></text>
</g>
<g stroke-width="0.70" style="font:italic 11.00px Times">
<use x="22.00" y="527.20" xlink:href="#tclef"/>
<use x="37.00" y="509.20" xlink:href="#sh0"/>
<use x="55.50" y="515.20" xlink:href="#Hd"/>
<circle class="fill" cx="65.20" cy="512.20" r="1.2"/>
<path d="M52.00 515.20v21.00" class="stroke"/>
<use x="171.80" y="518.20" xlink:href="#hd"/>
<path d="M168.30 518.20v21.00" class="stroke"/>
<use x="218.70" y="521.20" xlink:href="#Hd"/>
<path d="M215.20 521.20v21.00" class="stroke"/>
<use x="295.90" y="521.20" xlink:href="#r2"/>
<defs>
<rect id="r1" class="fill"
	x="-3.5" y="-6" width="7" height="3"/>
</defs>
<use x="448.90" y="521.20" xlink:href="#r1"/>
<use x="543.10" y="527.20" xlink:href="#Hd"/>
<path d="M546.60 527.20v-21.00" class="stroke"/>
<use x="621.00" y="512.20" xlink:href="#Hd"/>
<path d="M617.50 512.20v21.00" class="stroke"/>
<use x="22.00" y="586.20" xlink:href="#bclef"/>
<use x="37.00" y="586.20" xlink:href="#sh0"/>
<use x="55.50" y="604.20" xlink:href="#hd"/>
<path d="M59.00 604.20v-21.00" class="stroke"/>
<path class="fill"
	d="M59.00 583.20c0.6 5.6 9.6 9 5.6 18.4
	1.6 -6 -1.3 -11.6 -5.6 -12.8
"/>
<use x="75.30" y="577.20" xlink:href="#hd"/>
<path d="M71.80 577.20v21.00" class="stroke"/>
<path class="fill"
	d="M71.80 598.20c0.6 -5.6 9.6 -9 5.6 -18.4
	1.6 6 -1.3 11.6 -5.6 12.8
"/>
<use x="94.60" y="574.20" xlink:href="#hl"/>
<use x="94.60" y="571.20" xlink:href="#hd"/>
<path d="M91.10 571.20v21.00" class="stroke"/>
<path class="fill"
	d="M91.10 592.20c0.6 -5.6 9.6 -9 5.6 -18.4
	1.6 6 -1.3 11.6 -5.6 12.8
"/>
<use x="113.90" y="574.20" xlink:href="#hl"/>
<use x="113.90" y="568.20" xlink:href="#hl"/>
<use x="113.90" y="565.20" xlink:href="#hd"/>
<path d="M110.40 565.20v27.00" class="stroke"/>
<path class="fill"
	d="M110.40 592.20c0.6 -5.6 9.6 -9 5.6 -18.4
	1.6 6 -1.3 11.6 -5.6 12.8
"/>
<use x="133.30" y="574.20" xlink:href="#hl"/>
<use x="133.30" y="568.20" xlink:href="#hl"/>
<use x="133.30" y="562.20" xlink:href="#hl"/>
<use x="133.30" y="562.20" xlink:href="#hd"/>
<path d="M129.80 562.20v30.00" class="stroke"/>
<path class="fill"
	d="M129.80 592.20c0.6 -5.6 9.6 -9 5.6 -18.4
	1.6 6 -1.3 11.6 -5.6 12.8
"/>
<use x="152.60" y="574.20" xlink:href="#hl"/>
<use x="152.60" y="568.20" xlink:href="#hl"/>
<use x="152.60" y="562.20" xlink:href="#hl"/>
<use x="152.60" y="556.20" xlink:href="#hl"/>
<use x="152.60" y="556.20" xlink:href="#hd"/>
<path d="M149.10 556.20v36.00" class="stroke"/>
<path class="fill"
	d="M149.10 592.20c0.6 -5.6 9.6 -9 5.6 -18.4
	1.6 6 -1.3 11.6 -5.6 12.8
"/>
<use x="171.80" y="604.20" xlink:href="#hd"/>
<path d="M175.30 604.20v-21.00" class="stroke"/>
<path class="fill"
	d="M175.30 583.20c0.6 5.6 9.6 9 5.6 18.4
	1.6 -6 -1.3 -11.6 -5.6 -12.8
"/>
<use x="191.70" y="577.20" xlink:href="#hd"/>
<path d="M188.20 577.20v21.00" class="stroke"/>
<path class="fill"
	d="M188.20 598.20c0.6 -5.6 9.6 -9 5.6 -18.4
	1.6 6 -1.3 11.6 -5.6 12.8
"/>
<use x="218.70" y="589.20" xlink:href="#hd"/>
<path d="M215.20 589.20v21.00" class="stroke"/>
<path class="fill"
	d="M215.20 610.20c0.6 -5.6 9.6 -9 5.6 -18.4
	1.6 6 -1.3 11.6 -5.6 12.8
"/>
<use x="237.90" y="574.20" xlink:href="#hl"/>
<use x="237.90" y="568.20" xlink:href="#hl"/>
<use x="237.90" y="562.20" xlink:href="#hl"/>
<use x="237.90" y="562.20" xlink:href="#hd"/>
<path d="M234.40 562.20v30.00" class="stroke"/>
<path class="fill"
	d="M234.40 592.20c0.6 -5.6 9.6 -9 5.6 -18.4
	1.6 6 -1.3 11.6 -5.6 12.8
"/>
<use x="257.20" y="574.20" xlink:href="#hl"/>
<use x="257.20" y="568.20" xlink:href="#hl"/>
<use x="257.20" y="562.20" xlink:href="#hl"/>
<use x="257.20" y="556.20" xlink:href="#hl"/>
<use x="257.20" y="556.20" xlink:href="#hd"/>
<path d="M253.70 556.20v36.00" class="stroke"/>
<path class="fill"
	d="M253.70 592.20c0.6 -5.6 9.6 -9 5.6 -18.4
	1.6 6 -1.3 11.6 -5.6 12.8
"/>
<use x="276.60" y="574.20" xlink:href="#hl"/>
<use x="276.60" y="568.20" xlink:href="#hl"/>
<use x="276.60" y="562.20" xlink:href="#hl"/>
<use x="276.60" y="556.20" xlink:href="#hl"/>
<use x="276.60" y="550.20" xlink:href="#hl"/>
<use x="276.60" y="550.20" xlink:href="#hd"/>
<path d="M273.10 550.20v42.00" class="stroke"/>
<path class="fill"
	d="M273.10 592.20c0.6 -5.6 9.6 -9 5.6 -18.4
	1.6 6 -1.3 11.6 -5.6 12.8
"/>
<use x="295.90" y="574.20" xlink:href="#hl"/>
<use x="295.90" y="568.20" xlink:href="#hl"/>
<use x="295.90" y="562.20" xlink:href="#hl"/>
<use x="295.90" y="556.20" xlink:href="#hl"/>
<use x="295.90" y="550.20" xlink:href="#hl"/>
<use x="295.90" y="547.20" xlink:href="#hd"/>
<path d="M292.40 547.20v45.00" class="stroke"/>
<path class="fill"
	d="M292.40 592.20c0.6 -5.6 9.6 -9 5.6 -18.4
	1.6 6 -1.3 11.6 -5.6 12.8
"/>
<use x="315.30" y="574.20" xlink:href="#hl"/>
<use x="315.30" y="568.20" xlink:href="#hl"/>
<use x="315.30" y="562.20" xlink:href="#hl"/>
<use x="315.30" y="556.20" xlink:href="#hl"/>
<use x="315.30" y="550.20" xlink:href="#hl"/>
<use x="315.30" y="544.20" xlink:href="#hl"/>
<use x="315.30" y="541.20" xlink:href="#hd"/>
<path d="M311.80 541.20v51.00" class="stroke"/>
<path class="fill"
	d="M311.80 592.20c0.6 -5.6 9.6 -9 5.6 -18.4
	1.6 6 -1.3 11.6 -5.6 12.8
"/>
<use x="334.50" y="589.20" xlink:href="#hd"/>
<path d="M331.00 589.20v21.00" class="stroke"/>
<path class="fill"
	d="M331.00 610.20c0.6 -5.6 9.6 -9 5.6 -18.4
	1.6 6 -1.3 11.6 -5.6 12.8
"/>
<use x="353.70" y="574.20" xlink:href="#hl"/>
<use x="353.70" y="568.20" xlink:href="#hl"/>
<use x="353.70" y="562.20" xlink:href="#hl"/>
<use x="353.70" y="562.20" xlink:href="#hd"/>
<path d="M350.20 562.20v30.00" class="stroke"/>
<path class="fill"
	d="M350.20 592.20c0.6 -5.6 9.6 -9 5.6 -18.4
	1.6 6 -1.3 11.6 -5.6 12.8
"/>
<use x="381.70" y="595.20" xlink:href="#hd"/>
<path d="M385.20 595.20v-21.00" class="stroke"/>
<path class="fill"
	d="M385.20 574.20c0.6 5.6 9.6 9 5.6 18.4
	1.6 -6 -1.3 -11.6 -5.6 -12.8
"/>
<use x="401.50" y="574.20" xlink:href="#hl"/>
<use x="401.50" y="568.20" xlink:href="#hl"/>
<use x="401.50" y="568.20" xlink:href="#hd"/>
<path d="M398.00 568.20v24.00" class="stroke"/>
<path class="fill"
	d="M398.00 592.20c0.6 -5.6 9.6 -9 5.6 -18.4
	1.6 6 -1.3 11.6 -5.6 12.8
"/>
<use x="420.90" y="574.20" xlink:href="#hl"/>
<use x="420.90" y="568.20" xlink:href="#hl"/>
<use x="420.90" y="562.20" xlink:href="#hl"/>
<use x="420.90" y="562.20" xlink:href="#hd"/>
<path d="M417.40 562.20v30.00" class="stroke"/>
<path class="fill"
	d="M417.40 592.20c0.6 -5.6 9.6 -9 5.6 -18.4
	1.6 6 -1.3 11.6 -5.6 12.8
"/>
<use x="440.20" y="574.20" xlink:href="#hl"/>
<use x="440.20" y="568.20" xlink:href="#hl"/>
<use x="440.20" y="562.20" xlink:href="#hl"/>
<use x="440.20" y="556.20" xlink:href="#hl"/>
<use x="440.20" y="556.20" xlink:href="#hd"/>
<path d="M436.70 556.20v36.00" class="stroke"/>
<path class="fill"
	d="M436.70 592.20c0.6 -5.6 9.6 -9 5.6 -18.4
	1.6 6 -1.3 11.6 -5.6 12.8
"/>
<use x="459.60" y="574.20" xlink:href="#hl"/>
<use x="459.60" y="568.20" xlink:href="#hl"/>
<use x="459.60" y="562.20" xlink:href="#hl"/>
<use x="459.60" y="556.20" xlink:href="#hl"/>
<use x="459.60" y="553.20" xlink:href="#hd"/>
<path d="M456.10 553.20v39.00" class="stroke"/>
<path class="fill"
	d="M456.10 592.20c0.6 -5.6 9.6 -9 5.6 -18.4
	1.6 6 -1.3 11.6 -5.6 12.8
"/>
<use x="478.90" y="574.20" xlink:href="#hl"/>
<use x="478.90" y="568.20" xlink:href="#hl"/>
<use x="478.90" y="562.20" xlink:href="#hl"/>
<use x="478.90" y="556.20" xlink:href="#hl"/>
<use x="478.90" y="550.20" xlink:href="#hl"/>
<use x="478.90" y="547.20" xlink:href="#hd"/>
<path d="M475.40 547.20v45.00" class="stroke"/>
<path class="fill"
	d="M475.40 592.20c0.6 -5.6 9.6 -9 5.6 -18.4
	1.6 6 -1.3 11.6 -5.6 12.8
"/>
<use x="496.30" y="595.20" xlink:href="#hd"/>
<path d="M499.80 595.20v-21.00" class="stroke"/>
<path class="fill"
	d="M499.80 574.20c0.6 5.6 9.6 9 5.6 18.4
	1.6 -6 -1.3 -11.6 -5.6 -12.8
"/>
<use x="516.10" y="574.20" xlink:href="#hl"/>
<use x="516.10" y="568.20" xlink:href="#hl"/>
<use x="516.10" y="568.20" xlink:href="#hd"/>
<path d="M512.60 568.20v24.00" class="stroke"/>
<path class="fill"
	d="M512.60 592.20c0.6 -5.6 9.6 -9 5.6 -18.4
	1.6 6 -1.3 11.6 -5.6 12.8
"/>
<use x="543.10" y="595.20" xlink:href="#hd"/>
<path d="M546.60 595.20v-21.00" class="stroke"/>
<path class="fill"
	d="M546.60 574.20c0.6 5.6 9.6 9 5.6 18.4
	1.6 -6 -1.3 -11.6 -5.6 -12.8
"/>
<use x="563.00" y="574.20" xlink:href="#hl"/>
<use x="563.00" y="568.20" xlink:href="#hl"/>
<use x="563.00" y="568.20" xlink:href="#hd"/>
<path d="M559.50 568.20v24.00" class="stroke"/>
<path class="fill"
	d="M559.50 592.20c0.6 -5.6 9.6 -9 5.6 -18.4
	1.6 6 -1.3 11.6 -5.6 12.8
"/>
<use x="582.30" y="574.20" xlink:href="#hl"/>
<use x="582.30" y="568.20" xlink:href="#hl"/>
<use x="582.30" y="562.20" xlink:href="#hl"/>
<use x="582.30" y="562.20" xlink:href="#hd"/>
<path d="M578.80 562.20v30.00" class="stroke"/>
<path class="fill"
	d="M578.80 592.20c0.6 -5.6 9.6 -9 5.6 -18.4
	1.6 6 -1.3 11.6 -5.6 12.8
"/>
<use x="601.70" y="574.20" xlink:href="#hl"/>
<use x="601.70" y="568.20" xlink:href="#hl"/>
<use x="601.70" y="562.20" xlink:href="#hl"/>
<use x="601.70" y="556.20" xlink:href="#hl"/>
<use x="601.70" y="556.20" xlink:href="#hd"/>
<path d="M598.20 556.20v36.00" class="stroke"/>
<path class="fill"
	d="M598.20 592.20c0.6 -5.6 9.6 -9 5.6 -18.4
	1.6 6 -1.3 11.6 -5.6 12.8
"/>
<use x="621.00" y="574.20" xlink:href="#hl"/>
<use x="621.00" y="568.20" xlink:href="#hl"/>
<use x="621.00" y="562.20" xlink:href="#hl"/>
<use x="621.00" y="556.20" xlink:href="#hl"/>
<use x="621.00" y="553.20" xlink:href="#hd"/>
<path d="M617.50 553.20v39.00" class="stroke"/>
<path class="fill"
	d="M617.50 592.20c0.6 -5.6 9.6 -9 5.6 -18.4
	1.6 6 -1.3 11.6 -5.6 12.8
"/>
<use x="640.40" y="574.20" xlink:href="#hl"/>
<use x="640.40" y="568.20" xlink:href="#hl"/>
<use x="640.40" y="562.20" xlink:href="#hl"/>
<use x="640.40" y="556.20" xlink:href="#hl"/>
<use x="640.40" y="550.20" xlink:href="#hl"/>
<use x="640.40" y="547.20" xlink:href="#hd"/>
<path d="M636.90 547.20v45.00" class="stroke"/>
<path class="fill"
	d="M636.90 592.20c0.6 -5.6 9.6 -9 5.6 -18.4
	1.6 6 -1.3 11.6 -5.6 12.8
"/>
<use x="657.80" y="595.20" xlink:href="#hd"/>
<path d="M661.30 595.20v-21.00" class="stroke"/>
<path class="fill"
	d="M661.30 574.20c0.6 5.6 9.6 9 5.6 18.4
	1.6 -6 -1.3 -11.6 -5.6 -12.8
"/>
<use x="677.60" y="574.20" xlink:href="#hl"/>
<use x="677.60" y="568.20" xlink:href="#hl"/>
<use x="677.60" y="568.20" xlink:href="#hd"/>
<path d="M674.10 568.20v24.00" class="stroke"/>
<path class="fill"
	d="M674.10 592.20c0.6 -5.6 9.6 -9 5.6 -18.4
	1.6 6 -1.3 11.6 -5.6 12.8
"/>
</g>
<g stroke-width="0.70" style="font:italic 11.00px Times">
<path class="stroke" stroke-width="1"
	d="M10.00 752.60v-92.00"/>
<g transform="translate(10.00,660.60) scale(1,0.92)">
	<use xlink:href="#brace"/>
</g>
<path class="stroke" stroke-width="1"
	d="M272.90 684.60v-24.00"/>
<path class="stroke" stroke-width="1"
	d="M272.90 752.60v-24.00"/>
<path class="stroke" stroke-width="1"
	d="M353.90 684.60v-24.00"/>
<path class="stroke" stroke-width="1"
	d="M353.90 752.60v-24.00"/>
<path d="m10.00 684.60
	h343.90
	M10.00 678.60
	h343.90
	M10.00 672.60
	h343.90
	M10.00 666.60
	h343.90
	M10.00 660.60
	h343.90
	" class="stroke"/>
<path d="m10.00 752.60
	h343.90
	M10.00 746.60
	h343.90
	M10.00 740.60
	h343.90
	M10.00 734.60
	h343.90
	M10.00 728.60
	h343.90
	" class="stroke"/>
</g>
<g stroke-width="0.70" style="font:bold 13.00px Times">
<text x="49.10" y="656.00">V<tspan
	 style="font:italic 11.00px Times">⁷</tspan></text>
</g>
<g stroke-width="0.70" style="font:bold 13.00px Times">
<text x="292.20" y="637.00">I<tspan
	 style="font:italic 11.00px Times">Δ⁷</tspan></text>
</g>
<g stroke-width="0.70" style="font:italic 11.00px Times">
<use x="22.00" y="678.60" xlink:href="#tclef"/>
<use x="37.00" y="660.60" xlink:href="#sh0"/>
<use x="55.00" y="666.60" xlink:href="#hd"/>
<path d="M51.50 666.60v21.00" class="stroke"/>
<use x="111.60" y="672.60" xlink:href="#hd"/>
<path d="M108.10 672.60v21.00" class="stroke"/>
<use x="168.20" y="675.60" xlink:href="#Hd"/>
<path d="M171.70 675.60v-21.00" class="stroke"/>
<use x="298.90" y="657.60" xlink:href="#HD"/>
<use x="298.90" y="678.60" xlink:href="#HD"/>
<use x="22.00" y="734.60" xlink:href="#bclef"/>
<use x="37.00" y="734.60" xlink:href="#sh0"/>
<use x="55.00" y="740.60" xlink:href="#hd"/>
<path d="M51.50 740.60v21.00" class="stroke"/>
<path class="fill"
	d="M51.50 761.60c0.6 -5.6 9.6 -9 5.6 -18.4
	1.6 6 -1.3 11.6 -5.6 12.8
"/>
<use x="83.30" y="722.60" xlink:href="#hl"/>
<use x="83.30" y="716.60" xlink:href="#hl"/>
<use x="83.30" y="713.60" xlink:href="#hd"/>
<path d="M79.80 713.60v27.00" class="stroke"/>
<path class="fill"
	d="M79.80 740.60c0.6 -5.6 9.6 -9 5.6 -18.4
	1.6 6 -1.3 11.6 -5.6 12.8
"/>
<use x="111.60" y="722.60" xlink:href="#hl"/>
<use x="111.60" y="716.60" xlink:href="#hl"/>
<use x="111.60" y="710.60" xlink:href="#hl"/>
<use x="111.60" y="707.60" xlink:href="#hd"/>
<path d="M108.10 707.60v33.00" class="stroke"/>
<path class="fill"
	d="M108.10 740.60c0.6 -5.6 9.6 -9 5.6 -18.4
	1.6 6 -1.3 11.6 -5.6 12.8
"/>
<use x="139.90" y="722.60" xlink:href="#hl"/>
<use x="139.90" y="716.60" xlink:href="#hl"/>
<use x="139.90" y="710.60" xlink:href="#hl"/>
<use x="139.90" y="704.60" xlink:href="#hl"/>
<use x="139.90" y="701.60" xlink:href="#hd"/>
<path d="M136.40 701.60v39.00" class="stroke"/>
<path class="fill"
	d="M136.40 740.60c0.6 -5.6 9.6 -9 5.6 -18.4
	1.6 6 -1.3 11.6 -5.6 12.8
"/>
<use x="168.20" y="722.60" xlink:href="#hl"/>
<use x="168.20" y="716.60" xlink:href="#hl"/>
<use x="168.20" y="710.60" xlink:href="#hl"/>
<use x="168.20" y="704.60" xlink:href="#hl"/>
<use x="168.20" y="698.60" xlink:href="#hl"/>
<use x="168.20" y="698.60" xlink:href="#hd"/>
<path d="M164.70 698.60v42.00" class="stroke"/>
<path class="fill"
	d="M164.70 740.60c0.6 -5.6 9.6 -9 5.6 -18.4
	1.6 6 -1.3 11.6 -5.6 12.8
"/>
<use x="196.50" y="722.60" xlink:href="#hl"/>
<use x="196.50" y="716.60" xlink:href="#hl"/>
<use x="196.50" y="710.60" xlink:href="#hl"/>
<use x="196.50" y="704.60" xlink:href="#hl"/>
<use x="196.50" y="698.60" xlink:href="#hl"/>
<use x="196.50" y="692.60" xlink:href="#hl"/>
<use x="196.50" y="692.60" xlink:href="#hd"/>
<path d="M193.00 692.60v48.00" class="stroke"/>
<path class="fill"
	d="M193.00 740.60c0.6 -5.6 9.6 -9 5.6 -18.4
	1.6 6 -1.3 11.6 -5.6 12.8
"/>
<use x="224.80" y="740.60" xlink:href="#hd"/>
<path d="M221.30 740.60v21.00" class="stroke"/>
<path class="fill"
	d="M221.30 761.60c0.6 -5.6 9.6 -9 5.6 -18.4
	1.6 6 -1.3 11.6 -5.6 12.8
"/>
<use x="253.10" y="722.60" xlink:href="#hl"/>
<use x="253.10" y="716.60" xlink:href="#hl"/>
<use x="253.10" y="713.60" xlink:href="#hd"/>
<path d="M249.60 713.60v27.00" class="stroke"/>
<path class="fill"
	d="M249.60 740.60c0.6 -5.6 9.6 -9 5.6 -18.4
	1.6 6 -1.3 11.6 -5.6 12.8
"/>
<use x="298.90" y="758.60" xlink:href="#hl1"/>
<use x="298.90" y="764.60" xlink:href="#hl1"/>
<use x="298.90" y="770.60" xlink:href="#hl1"/>
<use x="298.90" y="773.60" xlink:href="#HD"/>
<use x="298.90" y="752.60" xlink:href="#HD"/>
<use x="298.90" y="746.60" xlink:href="#HD"/>
<use x="298.90" y="740.60" xlink:href="#HD"/>
<use x="298.90" y="734.60" xlink:href="#HD"/>
<defs>
<g id="hld" class="fill">
	<circle cx="0" cy="-3" r="1.3"/>
	<path d="m-7.5 -1.5
		c0 -11.5 15 -11.5 15 0
		h-0.25
		c-1.25 -9 -13.25 -9 -14.5 0"/>
</g>
</defs>
<use x="297.90" y="651.60" xlink:href="#hld"/>
<g transform="rotate(270)">
<use x="-681.60" y="285.40" xlink:href="#ltr"/>
<use x="-675.60" y="285.40" xlink:href="#ltr"/>
<use x="-669.60" y="285.40" xlink:href="#ltr"/>
<use x="-663.60" y="285.40" xlink:href="#ltr"/>
<use x="-657.60" y="285.40" xlink:href="#ltr"/>
</g>
<use x="297.90" y="726.60" xlink:href="#hld"/>
<g transform="rotate(270)">
<use x="-776.60" y="285.40" xlink:href="#ltr"/>
<use x="-770.60" y="285.40" xlink:href="#ltr"/>
<use x="-764.60" y="285.40" xlink:href="#ltr"/>
<use x="-758.60" y="285.40" xlink:href="#ltr"/>
<use x="-752.60" y="285.40" xlink:href="#ltr"/>
<use x="-746.60" y="285.40" xlink:href="#ltr"/>
<use x="-740.60" y="285.40" xlink:href="#ltr"/>
<use x="-734.60" y="285.40" xlink:href="#ltr"/>
</g>
</g>
</svg>
