<?xml version="1.0" standalone="no"?>
<!DOCTYPE svg PUBLIC "-//W3C//DTD SVG 1.1//EN"
	"http://www.w3.org/Graphics/SVG/1.1/DTD/svg11.dtd">
<svg xmlns="http://www.w3.org/2000/svg" version="1.1"
	xmlns:xlink="http://www.w3.org/1999/xlink"
	color="black"
	width="701.60px" height="493.20px" viewBox="0 0 701.60 493.20" preserveAspectRatio="xMidYMid meet">
<style type="text/css">
.fill {fill: currentColor}
.stroke {stroke: currentColor; fill: none}
text{white-space: pre}
</style>
<title>/tmp/boddie_hymnal_stage/now_thank_we_all_our_god.abc (1) tune 1</title>
<!-- Creator: abcm2ps-8.14.11 -->
<!-- CreationDate: Apr 30, 2026 12:59 -->
<!-- CommandLine: /tmp/boddie_hymnal_stage/now_thank_we_all_our_god.abc -g -O /tmp/boddie_hymnal_stage/now_thank_we_all_our_god -->
<g stroke-width="0.70">
<!-- title: 168. Now Thank We All Our God -->
</g>
<g stroke-width="0.70" style="font:20.00px Times">
<text x="350.80" y="22.00" text-anchor="middle">168. Now Thank We All Our God</text>
</g>
<g stroke-width="0.70" transform="scale(0.700)" style="font:20.00px Times">
<defs>
<ellipse id="hd" rx="4.1" ry="2.9"
	transform="rotate(-20)" class="fill"/>
</defs>
<use x="102.29" y="75.57" xlink:href="#hd"/>
<path d="M105.79 75.57v-21.00" class="stroke"/>
</g>
<g stroke-width="0.70" style="font:bold 15.00px Times">
<text x="79.30" y="55.00">= 72Slowly, with great expression</text>
<path class="stroke" stroke-width="1"
	d="M10.00 171.40v-82.00"/>
<defs>
<path id="brace" class="fill" d="m-2.5 101
	c-4.5 -4.6 -7.5 -12.2 -4.4 -26.8
	3.5 -14.3 3.2 -21.7 -2.1 -24.2
	7.4 2.4 7.3 14.2 3.5 29.5
	-2.7 9.5 -1.5 16.2 3 21.5
	M-2.5 1c-4.5 4.6 -7.5 12.2 -4.4 26.8
	c3.5 14.3 3.2 21.7 -2.1 24.2
	7.4 -2.4 7.3 -14.2 3.5 -29.5
	-2.7 -9.5 -1.5 -16.2 3 -21.5"/>
</defs>
<g transform="translate(10.00,89.40) scale(1,0.82)">
	<use xlink:href="#brace"/>
</g>
<path class="stroke" stroke-width="1"
	d="M245.90 113.40v-24.00"/>
<path class="stroke" stroke-width="1"
	d="M245.90 171.40v-24.00"/>
<path class="stroke" stroke-width="1"
	d="M375.30 113.40v-24.00"/>
<path class="stroke" stroke-width="1"
	d="M375.30 171.40v-24.00"/>
<path class="stroke" stroke-width="1"
	d="M542.70 113.40v-24.00"/>
<path class="stroke" stroke-width="1"
	d="M542.70 171.40v-24.00"/>
<path class="stroke" stroke-width="1"
	d="M691.60 113.40v-24.00"/>
<path class="stroke" stroke-width="1"
	d="M691.60 171.40v-24.00"/>
<path d="m10.00 113.40
	h681.60
	M10.00 107.40
	h681.60
	M10.00 101.40
	h681.60
	M10.00 95.40
	h681.60
	M10.00 89.40
	h681.60
	" class="stroke"/>
<path d="m10.00 171.40
	h681.60
	M10.00 165.40
	h681.60
	M10.00 159.40
	h681.60
	M10.00 153.40
	h681.60
	M10.00 147.40
	h681.60
	" class="stroke"/>
</g>
<g stroke-width="0.70" style="font:bold 13.00px Times">
<text x="65.30" y="84.80">I<tspan
	 style="font:italic 11.00px Times">Δ⁷</tspan></text>
</g>
<g stroke-width="0.70" style="font:bold 13.00px Times">
<text x="262.90" y="68.80">IV<tspan
	 style="font:italic 11.00px Times">Δ⁷</tspan></text>
</g>
<g stroke-width="0.70" style="font:bold 13.00px Times">
<text x="379.80" y="79.80">ii<tspan
	 style="font:italic 11.00px Times">m⁷</tspan></text>
</g>
<g stroke-width="0.70" style="font:bold 13.00px Times">
<text x="549.40" y="84.80">I<tspan
	 style="font:italic 11.00px Times">Δ⁷</tspan></text>
</g>
<g stroke-width="0.70" style="font:italic 11.00px Times">
<defs>
<path id="utclef" class="fill" d="m-50 -90
	c-72 -41 -72 -158 52 -188
	150 -10 220 188 90 256
	-114 52 -275 0 -293 -136
	-15 -181 93 -229 220 -334
	88 -87 79 -133 62 -210
	-51 33 -94 105 -89 186
	17 267 36 374 49 574
	6 96 -19 134 -77 135
	-80 1 -126 -93 -61 -133
	85 -41 133 101 31 105
	23 17 92 37 90 -92
	-10 -223 -39 -342 -50 -617
	0 -90 0 -162 96 -232
	56 72 63 230 22 289
	-74 106 -257 168 -255 316
	9 153 148 185 252 133
	86 -65 29 -192 -80 -176
	-71 12 -105 67 -59 124"/>
<use id="tclef" transform="translate(0,6) scale(0.045)"
	xlink:href="#utclef"/>
</defs>
<use x="22.00" y="107.40" xlink:href="#tclef"/>
<defs>
<path id="uflat" class="fill" d="
	m100 -746
	h32
	v734
	l-32 4
	m32 -332
	c46 -72 152 -90 208 -20
	100 110 -120 326 -208 348
	m0 -28
	c54 0 200 -206 130 -290
	-50 -60 -130 -4 -130 34"/>
<use id="ft0" transform="translate(-3.5,3.5) scale(0.018)"
	xlink:href="#uflat"/>
</defs>
<use x="37.00" y="101.40" xlink:href="#ft0"/>
<g style="font:bold 16px serif"
	transform="translate(53.00,112.90) scale(1.2,1)">
	<text text-anchor="middle">4</text>
	<text y="-12" text-anchor="middle">4</text>
</g>
<use x="71.00" y="98.40" xlink:href="#hd"/>
<path d="M67.50 98.40v21.00" class="stroke"/>
<use x="111.80" y="98.40" xlink:href="#hd"/>
<path d="M108.30 98.40v21.00" class="stroke"/>
<use x="152.10" y="98.40" xlink:href="#hd"/>
<path d="M148.60 98.40v21.00" class="stroke"/>
<path class="fill"
	d="M148.60 119.40c0.6 -5.6 9.6 -9 5.6 -18.4
	1.6 6 -1.3 11.6 -5.6 12.8
"/>
<use x="172.30" y="95.40" xlink:href="#hd"/>
<path d="M168.80 95.40v21.00" class="stroke"/>
<use x="211.20" y="95.40" xlink:href="#hd"/>
<path d="M207.70 95.40v21.00" class="stroke"/>
<defs>
<path id="hl" class="stroke" d="m-6 0h12"/>
</defs>
<use x="270.90" y="83.40" xlink:href="#hl"/>
<use x="270.90" y="77.40" xlink:href="#hl"/>
<use x="270.90" y="77.40" xlink:href="#hd"/>
<path d="M267.40 77.40v40.00" class="stroke"/>
<use x="270.90" y="98.40" xlink:href="#hd"/>
<use x="299.00" y="83.40" xlink:href="#hl"/>
<use x="299.00" y="83.40" xlink:href="#hd"/>
<path d="M295.50 83.40v40.00" class="stroke"/>
<use x="299.00" y="104.40" xlink:href="#hd"/>
<use x="327.10" y="83.40" xlink:href="#hl"/>
<use x="327.10" y="80.40" xlink:href="#hd"/>
<path d="M323.60 80.40v40.00" class="stroke"/>
<use x="327.10" y="101.40" xlink:href="#hd"/>
<use x="355.20" y="83.40" xlink:href="#hl"/>
<use x="355.20" y="83.40" xlink:href="#hd"/>
<path d="M351.70 83.40v40.00" class="stroke"/>
<use x="355.20" y="104.40" xlink:href="#hd"/>
<use x="387.80" y="107.40" xlink:href="#hd"/>
<path d="M391.30 107.40v-21.00" class="stroke"/>
<use x="428.60" y="110.40" xlink:href="#hd"/>
<path d="M432.10 110.40v-21.00" class="stroke"/>
<use x="469.00" y="113.40" xlink:href="#hd"/>
<path d="M472.50 113.40v-21.00" class="stroke"/>
<use x="507.30" y="110.40" xlink:href="#hd"/>
<path d="M510.80 110.40v-21.00" class="stroke"/>
<use x="555.20" y="98.40" xlink:href="#hd"/>
<path d="M551.70 98.40v21.00" class="stroke"/>
<use x="595.90" y="98.40" xlink:href="#hd"/>
<path d="M592.40 98.40v21.00" class="stroke"/>
<use x="636.30" y="98.40" xlink:href="#hd"/>
<path d="M632.80 98.40v21.00" class="stroke"/>
<path class="fill"
	d="M632.80 119.40c0.6 -5.6 9.6 -9 5.6 -18.4
	1.6 6 -1.3 11.6 -5.6 12.8
"/>
<use x="656.50" y="95.40" xlink:href="#hd"/>
<path d="M653.00 95.40v21.00" class="stroke"/>
<defs>
<path id="ubclef" class="fill" d="m-200 -87
	c124 -35 222 -78 254 -236
	43 -228 -167 -246 -192 -103
	59 -80 157 22 92 78
	-62 47 -115 -22 -106 -88
	21 -141 270 -136 274 52
	-1 175 -106 264 -322 297
	m357 -250
	c0 -36 51 -34 51 0
	0 37 -51 36 -51 0
	m-2 -129
	c0 -36 51 -34 51 0
	0 38 -51 37 -51 0"/>
<use id="bclef" transform="translate(0,18) scale(0.045)"
	xlink:href="#ubclef"/>
</defs>
<use x="22.00" y="153.40" xlink:href="#bclef"/>
<use x="37.00" y="165.40" xlink:href="#ft0"/>
<g style="font:bold 16px serif"
	transform="translate(53.00,170.90) scale(1.2,1)">
	<text text-anchor="middle">4</text>
	<text y="-12" text-anchor="middle">4</text>
</g>
<use x="71.00" y="177.40" xlink:href="#hl"/>
<use x="71.00" y="183.40" xlink:href="#hl"/>
<use x="71.00" y="189.40" xlink:href="#hl"/>
<use x="71.00" y="195.40" xlink:href="#hl"/>
<use x="71.00" y="195.40" xlink:href="#hd"/>
<path d="M74.50 195.40v-40.00" class="stroke"/>
<path class="fill"
	d="M74.50 155.40c0.6 5.6 9.6 9 5.6 18.4
	1.6 -6 -1.3 -11.6 -5.6 -12.8
"/>
<use x="71.00" y="174.40" xlink:href="#hd"/>
<use x="91.70" y="147.40" xlink:href="#hd"/>
<path d="M88.20 147.40v21.00" class="stroke"/>
<path class="fill"
	d="M88.20 168.40c0.6 -5.6 9.6 -9 5.6 -18.4
	1.6 6 -1.3 11.6 -5.6 12.8
"/>
<use x="111.80" y="141.40" xlink:href="#hl"/>
<use x="111.80" y="141.40" xlink:href="#hd"/>
<path d="M108.30 141.40v21.00" class="stroke"/>
<path class="fill"
	d="M108.30 162.40c0.6 -5.6 9.6 -9 5.6 -18.4
	1.6 6 -1.3 11.6 -5.6 12.8
"/>
<use x="132.00" y="141.40" xlink:href="#hl"/>
<use x="132.00" y="135.40" xlink:href="#hl"/>
<use x="132.00" y="135.40" xlink:href="#hd"/>
<path d="M128.50 135.40v24.00" class="stroke"/>
<path class="fill"
	d="M128.50 159.40c0.6 -5.6 9.6 -9 5.6 -18.4
	1.6 6 -1.3 11.6 -5.6 12.8
"/>
<use x="152.10" y="141.40" xlink:href="#hl"/>
<use x="152.10" y="135.40" xlink:href="#hl"/>
<use x="152.10" y="132.40" xlink:href="#hd"/>
<path d="M148.60 132.40v27.00" class="stroke"/>
<path class="fill"
	d="M148.60 159.40c0.6 -5.6 9.6 -9 5.6 -18.4
	1.6 6 -1.3 11.6 -5.6 12.8
"/>
<use x="172.30" y="141.40" xlink:href="#hl"/>
<use x="172.30" y="135.40" xlink:href="#hl"/>
<use x="172.30" y="129.40" xlink:href="#hl"/>
<use x="172.30" y="126.40" xlink:href="#hd"/>
<path d="M168.80 126.40v33.00" class="stroke"/>
<path class="fill"
	d="M168.80 159.40c0.6 -5.6 9.6 -9 5.6 -18.4
	1.6 6 -1.3 11.6 -5.6 12.8
"/>
<use x="190.40" y="174.40" xlink:href="#hd"/>
<path d="M193.90 174.40v-21.00" class="stroke"/>
<path class="fill"
	d="M193.90 153.40c0.6 5.6 9.6 9 5.6 18.4
	1.6 -6 -1.3 -11.6 -5.6 -12.8
"/>
<use x="211.20" y="147.40" xlink:href="#hd"/>
<path d="M207.70 147.40v21.00" class="stroke"/>
<path class="fill"
	d="M207.70 168.40c0.6 -5.6 9.6 -9 5.6 -18.4
	1.6 6 -1.3 11.6 -5.6 12.8
"/>
<use x="231.20" y="141.40" xlink:href="#hl"/>
<use x="231.20" y="141.40" xlink:href="#hd"/>
<path d="M227.70 141.40v21.00" class="stroke"/>
<path class="fill"
	d="M227.70 162.40c0.6 -5.6 9.6 -9 5.6 -18.4
	1.6 6 -1.3 11.6 -5.6 12.8
"/>
<defs>
<path id="HD" class="fill" d="m-2.7 -1.4
	c1.5 -2.8 6.9 0 5.3 2.7
	-1.5 2.8 -6.9 0 -5.3 -2.7
	m8.3 1.4
	c0 -1.5 -2.2 -3 -5.6 -3
	-3.4 0 -5.6 1.5 -5.6 3
	0 1.5 2.2 3 5.6 3
	3.4 0 5.6 -1.5 5.6 -3"/>
</defs>
<use x="271.90" y="147.40" xlink:href="#HD"/>
<use x="271.90" y="165.40" xlink:href="#HD"/>
<use x="271.90" y="159.40" xlink:href="#HD"/>
<use x="271.90" y="153.40" xlink:href="#HD"/>
<use x="387.80" y="177.40" xlink:href="#hl"/>
<use x="387.80" y="183.40" xlink:href="#hl"/>
<use x="387.80" y="189.40" xlink:href="#hl"/>
<use x="387.80" y="192.40" xlink:href="#hd"/>
<path d="M391.30 192.40v-40.00" class="stroke"/>
<path class="fill"
	d="M391.30 152.40c0.6 5.6 9.6 9 5.6 18.4
	1.6 -6 -1.3 -11.6 -5.6 -12.8
"/>
<use x="387.80" y="171.40" xlink:href="#hd"/>
<use x="408.60" y="144.40" xlink:href="#hd"/>
<path d="M405.10 144.40v21.00" class="stroke"/>
<path class="fill"
	d="M405.10 165.40c0.6 -5.6 9.6 -9 5.6 -18.4
	1.6 6 -1.3 11.6 -5.6 12.8
"/>
<use x="428.60" y="141.40" xlink:href="#hl"/>
<use x="428.60" y="138.40" xlink:href="#hd"/>
<path d="M425.10 138.40v21.00" class="stroke"/>
<path class="fill"
	d="M425.10 159.40c0.6 -5.6 9.6 -9 5.6 -18.4
	1.6 6 -1.3 11.6 -5.6 12.8
"/>
<use x="448.80" y="141.40" xlink:href="#hl"/>
<use x="448.80" y="135.40" xlink:href="#hl"/>
<use x="448.80" y="132.40" xlink:href="#hd"/>
<path d="M445.30 132.40v27.00" class="stroke"/>
<path class="fill"
	d="M445.30 159.40c0.6 -5.6 9.6 -9 5.6 -18.4
	1.6 6 -1.3 11.6 -5.6 12.8
"/>
<use x="469.00" y="141.40" xlink:href="#hl"/>
<use x="469.00" y="135.40" xlink:href="#hl"/>
<use x="469.00" y="129.40" xlink:href="#hl"/>
<use x="469.00" y="129.40" xlink:href="#hd"/>
<path d="M465.50 129.40v30.00" class="stroke"/>
<path class="fill"
	d="M465.50 159.40c0.6 -5.6 9.6 -9 5.6 -18.4
	1.6 6 -1.3 11.6 -5.6 12.8
"/>
<use x="489.20" y="141.40" xlink:href="#hl"/>
<use x="489.20" y="135.40" xlink:href="#hl"/>
<use x="489.20" y="129.40" xlink:href="#hl"/>
<use x="489.20" y="123.40" xlink:href="#hl"/>
<use x="489.20" y="123.40" xlink:href="#hd"/>
<path d="M485.70 123.40v36.00" class="stroke"/>
<path class="fill"
	d="M485.70 159.40c0.6 -5.6 9.6 -9 5.6 -18.4
	1.6 6 -1.3 11.6 -5.6 12.8
"/>
<use x="507.30" y="171.40" xlink:href="#hd"/>
<path d="M510.80 171.40v-21.00" class="stroke"/>
<path class="fill"
	d="M510.80 150.40c0.6 5.6 9.6 9 5.6 18.4
	1.6 -6 -1.3 -11.6 -5.6 -12.8
"/>
<use x="528.00" y="144.40" xlink:href="#hd"/>
<path d="M524.50 144.40v21.00" class="stroke"/>
<path class="fill"
	d="M524.50 165.40c0.6 -5.6 9.6 -9 5.6 -18.4
	1.6 6 -1.3 11.6 -5.6 12.8
"/>
<use x="555.20" y="174.40" xlink:href="#hd"/>
<path d="M558.70 174.40v-21.00" class="stroke"/>
<path class="fill"
	d="M558.70 153.40c0.6 5.6 9.6 9 5.6 18.4
	1.6 -6 -1.3 -11.6 -5.6 -12.8
"/>
<use x="575.90" y="147.40" xlink:href="#hd"/>
<path d="M572.40 147.40v21.00" class="stroke"/>
<path class="fill"
	d="M572.40 168.40c0.6 -5.6 9.6 -9 5.6 -18.4
	1.6 6 -1.3 11.6 -5.6 12.8
"/>
<use x="595.90" y="141.40" xlink:href="#hl"/>
<use x="595.90" y="141.40" xlink:href="#hd"/>
<path d="M592.40 141.40v21.00" class="stroke"/>
<path class="fill"
	d="M592.40 162.40c0.6 -5.6 9.6 -9 5.6 -18.4
	1.6 6 -1.3 11.6 -5.6 12.8
"/>
<use x="616.10" y="141.40" xlink:href="#hl"/>
<use x="616.10" y="135.40" xlink:href="#hl"/>
<use x="616.10" y="135.40" xlink:href="#hd"/>
<path d="M612.60 135.40v24.00" class="stroke"/>
<path class="fill"
	d="M612.60 159.40c0.6 -5.6 9.6 -9 5.6 -18.4
	1.6 6 -1.3 11.6 -5.6 12.8
"/>
<use x="636.30" y="141.40" xlink:href="#hl"/>
<use x="636.30" y="135.40" xlink:href="#hl"/>
<use x="636.30" y="132.40" xlink:href="#hd"/>
<path d="M632.80 132.40v27.00" class="stroke"/>
<path class="fill"
	d="M632.80 159.40c0.6 -5.6 9.6 -9 5.6 -18.4
	1.6 6 -1.3 11.6 -5.6 12.8
"/>
<use x="656.50" y="141.40" xlink:href="#hl"/>
<use x="656.50" y="135.40" xlink:href="#hl"/>
<use x="656.50" y="129.40" xlink:href="#hl"/>
<use x="656.50" y="126.40" xlink:href="#hd"/>
<path d="M653.00 126.40v33.00" class="stroke"/>
<path class="fill"
	d="M653.00 159.40c0.6 -5.6 9.6 -9 5.6 -18.4
	1.6 6 -1.3 11.6 -5.6 12.8
"/>
<use x="674.60" y="174.40" xlink:href="#hd"/>
<path d="M678.10 174.40v-21.00" class="stroke"/>
<path class="fill"
	d="M678.10 153.40c0.6 5.6 9.6 9 5.6 18.4
	1.6 -6 -1.3 -11.6 -5.6 -12.8
"/>
<defs>
<path id="ltr" class="fill"
    d="m0 -0.4c2 -1.5 3.4 -1.9 3.9 0.4
	c0.2 0.8 0.7 0.7 2.1 -0.4
	v0.8c-2 1.5 -3.4 1.9 -3.9 -0.4
	c-0.2 -0.8 -0.7 -0.7 -2.1 0.4z"/>
</defs>
<g transform="rotate(270)">
<use x="-168.40" y="258.40" xlink:href="#ltr"/>
<use x="-162.40" y="258.40" xlink:href="#ltr"/>
<use x="-156.40" y="258.40" xlink:href="#ltr"/>
<use x="-150.40" y="258.40" xlink:href="#ltr"/>
</g>
<text x="380.30" y="80.40" style="font:bold italic 30px serif">,</text>
</g>
<g stroke-width="0.70" style="font:italic 11.00px Times">
<path class="stroke" stroke-width="1"
	d="M10.00 323.80v-89.00"/>
<g transform="translate(10.00,234.80) scale(1,0.89)">
	<use xlink:href="#brace"/>
</g>
<path class="stroke" stroke-width="1"
	d="M181.70 258.80v-24.00"/>
<path class="stroke" stroke-width="1"
	d="M181.70 323.80v-24.00"/>
<path class="stroke" stroke-width="1"
	d="M357.90 258.80v-24.00"/>
<path class="stroke" stroke-width="1"
	d="M357.90 323.80v-24.00"/>
<path class="stroke" stroke-width="1"
	d="M555.70 258.80v-24.00"/>
<path class="stroke" stroke-width="1"
	d="M555.70 323.80v-24.00"/>
<path class="stroke" stroke-width="1"
	d="M691.60 258.80v-24.00"/>
<path class="stroke" stroke-width="1"
	d="M691.60 323.80v-24.00"/>
<path d="m10.00 258.80
	h681.60
	M10.00 252.80
	h681.60
	M10.00 246.80
	h681.60
	M10.00 240.80
	h681.60
	M10.00 234.80
	h681.60
	" class="stroke"/>
<path d="m10.00 323.80
	h681.60
	M10.00 317.80
	h681.60
	M10.00 311.80
	h681.60
	M10.00 305.80
	h681.60
	M10.00 299.80
	h681.60
	" class="stroke"/>
</g>
<g stroke-width="0.70" style="font:bold 13.00px Times">
<text x="62.50" y="211.20">IV<tspan
	 style="font:italic 11.00px Times">Δ⁷</tspan></text>
</g>
<g stroke-width="0.70" style="font:bold 13.00px Times">
<text x="186.20" y="222.20">ii<tspan
	 style="font:italic 11.00px Times">m⁷</tspan></text>
</g>
<g stroke-width="0.70" style="font:bold 13.00px Times">
<text x="364.60" y="228.20">V<tspan
	 style="font:italic 11.00px Times">⁷</tspan></text>
</g>
<g stroke-width="0.70" style="font:bold 13.00px Times">
<text x="574.90" y="220.20">I<tspan
	 style="font:italic 11.00px Times">Δ⁷</tspan></text>
</g>
<g stroke-width="0.70" style="font:italic 11.00px Times">
<use x="22.00" y="252.80" xlink:href="#tclef"/>
<use x="37.00" y="246.80" xlink:href="#ft0"/>
<use x="70.50" y="228.80" xlink:href="#hl"/>
<use x="70.50" y="222.80" xlink:href="#hl"/>
<use x="70.50" y="219.80" xlink:href="#hd"/>
<path d="M67.00 219.80v40.00" class="stroke"/>
<use x="70.50" y="240.80" xlink:href="#hd"/>
<use x="100.50" y="228.80" xlink:href="#hl"/>
<use x="100.50" y="222.80" xlink:href="#hl"/>
<use x="100.50" y="222.80" xlink:href="#hd"/>
<path d="M97.00 222.80v40.00" class="stroke"/>
<use x="100.50" y="243.80" xlink:href="#hd"/>
<use x="130.40" y="228.80" xlink:href="#hl"/>
<use x="130.40" y="228.80" xlink:href="#hd"/>
<path d="M126.90 228.80v40.00" class="stroke"/>
<use x="130.40" y="249.80" xlink:href="#hd"/>
<use x="160.40" y="228.80" xlink:href="#hl"/>
<use x="160.40" y="225.80" xlink:href="#hd"/>
<path d="M156.90 225.80v40.00" class="stroke"/>
<use x="160.40" y="246.80" xlink:href="#hd"/>
<use x="194.20" y="249.80" xlink:href="#hd"/>
<path d="M197.70 249.80v-21.00" class="stroke"/>
<use x="237.30" y="252.80" xlink:href="#hd"/>
<path d="M240.80 252.80v-21.00" class="stroke"/>
<use x="280.20" y="255.80" xlink:href="#hd"/>
<path d="M283.70 255.80v-21.00" class="stroke"/>
<use x="320.80" y="258.80" xlink:href="#hd"/>
<path d="M324.30 258.80v-21.00" class="stroke"/>
<use x="370.40" y="255.80" xlink:href="#hd"/>
<path d="M373.90 255.80v-21.00" class="stroke"/>
<use x="413.60" y="252.80" xlink:href="#hd"/>
<path d="M417.10 252.80v-21.00" class="stroke"/>
<use x="456.50" y="252.80" xlink:href="#hd"/>
<path d="M460.00 252.80v-21.00" class="stroke"/>
<use x="497.10" y="252.80" xlink:href="#hd"/>
<path d="M500.60 252.80v-21.00" class="stroke"/>
<path class="fill"
	d="M500.60 231.80c0.6 5.6 9.6 9 5.6 18.4
	1.6 -6 -1.3 -11.6 -5.6 -12.8
"/>
<use x="518.90" y="249.80" xlink:href="#hd"/>
<path d="M522.40 249.80v-21.00" class="stroke"/>
<use x="580.70" y="228.80" xlink:href="#hl"/>
<use x="580.70" y="228.80" xlink:href="#hd"/>
<path d="M577.20 228.80v40.00" class="stroke"/>
<use x="580.70" y="249.80" xlink:href="#hd"/>
<use x="610.50" y="231.80" xlink:href="#hd"/>
<path d="M607.00 231.80v40.00" class="stroke"/>
<use x="610.50" y="252.80" xlink:href="#hd"/>
<use x="640.40" y="231.80" xlink:href="#hd"/>
<path d="M636.90 231.80v40.00" class="stroke"/>
<use x="640.40" y="252.80" xlink:href="#hd"/>
<use x="670.30" y="228.80" xlink:href="#hl"/>
<use x="670.30" y="228.80" xlink:href="#hd"/>
<path d="M666.80 228.80v40.00" class="stroke"/>
<use x="670.30" y="249.80" xlink:href="#hd"/>
<use x="22.00" y="305.80" xlink:href="#bclef"/>
<use x="37.00" y="317.80" xlink:href="#ft0"/>
<use x="71.50" y="299.80" xlink:href="#HD"/>
<use x="71.50" y="317.80" xlink:href="#HD"/>
<use x="71.50" y="311.80" xlink:href="#HD"/>
<use x="71.50" y="305.80" xlink:href="#HD"/>
<use x="194.20" y="329.80" xlink:href="#hl"/>
<use x="194.20" y="335.80" xlink:href="#hl"/>
<use x="194.20" y="341.80" xlink:href="#hl"/>
<use x="194.20" y="344.80" xlink:href="#hd"/>
<path d="M197.70 344.80v-40.00" class="stroke"/>
<path class="fill"
	d="M197.70 304.80c0.6 5.6 9.6 9 5.6 18.4
	1.6 -6 -1.3 -11.6 -5.6 -12.8
"/>
<use x="194.20" y="323.80" xlink:href="#hd"/>
<use x="216.00" y="296.80" xlink:href="#hd"/>
<path d="M212.50 296.80v21.00" class="stroke"/>
<path class="fill"
	d="M212.50 317.80c0.6 -5.6 9.6 -9 5.6 -18.4
	1.6 6 -1.3 11.6 -5.6 12.8
"/>
<use x="237.30" y="293.80" xlink:href="#hl"/>
<use x="237.30" y="290.80" xlink:href="#hd"/>
<path d="M233.80 290.80v21.00" class="stroke"/>
<path class="fill"
	d="M233.80 311.80c0.6 -5.6 9.6 -9 5.6 -18.4
	1.6 6 -1.3 11.6 -5.6 12.8
"/>
<use x="258.70" y="293.80" xlink:href="#hl"/>
<use x="258.70" y="287.80" xlink:href="#hl"/>
<use x="258.70" y="284.80" xlink:href="#hd"/>
<path d="M255.20 284.80v27.00" class="stroke"/>
<path class="fill"
	d="M255.20 311.80c0.6 -5.6 9.6 -9 5.6 -18.4
	1.6 6 -1.3 11.6 -5.6 12.8
"/>
<use x="280.20" y="293.80" xlink:href="#hl"/>
<use x="280.20" y="287.80" xlink:href="#hl"/>
<use x="280.20" y="281.80" xlink:href="#hl"/>
<use x="280.20" y="281.80" xlink:href="#hd"/>
<path d="M276.70 281.80v30.00" class="stroke"/>
<path class="fill"
	d="M276.70 311.80c0.6 -5.6 9.6 -9 5.6 -18.4
	1.6 6 -1.3 11.6 -5.6 12.8
"/>
<use x="301.60" y="293.80" xlink:href="#hl"/>
<use x="301.60" y="287.80" xlink:href="#hl"/>
<use x="301.60" y="281.80" xlink:href="#hl"/>
<use x="301.60" y="275.80" xlink:href="#hl"/>
<use x="301.60" y="275.80" xlink:href="#hd"/>
<path d="M298.10 275.80v36.00" class="stroke"/>
<path class="fill"
	d="M298.10 311.80c0.6 -5.6 9.6 -9 5.6 -18.4
	1.6 6 -1.3 11.6 -5.6 12.8
"/>
<use x="320.80" y="323.80" xlink:href="#hd"/>
<path d="M324.30 323.80v-21.00" class="stroke"/>
<path class="fill"
	d="M324.30 302.80c0.6 5.6 9.6 9 5.6 18.4
	1.6 -6 -1.3 -11.6 -5.6 -12.8
"/>
<use x="342.60" y="296.80" xlink:href="#hd"/>
<path d="M339.10 296.80v21.00" class="stroke"/>
<path class="fill"
	d="M339.10 317.80c0.6 -5.6 9.6 -9 5.6 -18.4
	1.6 6 -1.3 11.6 -5.6 12.8
"/>
<use x="370.40" y="314.80" xlink:href="#hd"/>
<path d="M373.90 314.80v-21.00" class="stroke"/>
<path class="fill"
	d="M373.90 293.80c0.6 5.6 9.6 9 5.6 18.4
	1.6 -6 -1.3 -11.6 -5.6 -12.8
"/>
<use x="392.20" y="293.80" xlink:href="#hl"/>
<use x="392.20" y="287.80" xlink:href="#hl"/>
<use x="392.20" y="287.80" xlink:href="#hd"/>
<path d="M388.70 287.80v24.00" class="stroke"/>
<path class="fill"
	d="M388.70 311.80c0.6 -5.6 9.6 -9 5.6 -18.4
	1.6 6 -1.3 11.6 -5.6 12.8
"/>
<use x="413.60" y="293.80" xlink:href="#hl"/>
<use x="413.60" y="287.80" xlink:href="#hl"/>
<use x="413.60" y="281.80" xlink:href="#hl"/>
<use x="413.60" y="281.80" xlink:href="#hd"/>
<path d="M410.10 281.80v30.00" class="stroke"/>
<path class="fill"
	d="M410.10 311.80c0.6 -5.6 9.6 -9 5.6 -18.4
	1.6 6 -1.3 11.6 -5.6 12.8
"/>
<use x="435.10" y="293.80" xlink:href="#hl"/>
<use x="435.10" y="287.80" xlink:href="#hl"/>
<use x="435.10" y="281.80" xlink:href="#hl"/>
<use x="435.10" y="275.80" xlink:href="#hl"/>
<use x="435.10" y="275.80" xlink:href="#hd"/>
<path d="M431.60 275.80v36.00" class="stroke"/>
<path class="fill"
	d="M431.60 311.80c0.6 -5.6 9.6 -9 5.6 -18.4
	1.6 6 -1.3 11.6 -5.6 12.8
"/>
<use x="456.50" y="293.80" xlink:href="#hl"/>
<use x="456.50" y="287.80" xlink:href="#hl"/>
<use x="456.50" y="281.80" xlink:href="#hl"/>
<use x="456.50" y="275.80" xlink:href="#hl"/>
<use x="456.50" y="272.80" xlink:href="#hd"/>
<path d="M453.00 272.80v39.00" class="stroke"/>
<path class="fill"
	d="M453.00 311.80c0.6 -5.6 9.6 -9 5.6 -18.4
	1.6 6 -1.3 11.6 -5.6 12.8
"/>
<use x="477.90" y="293.80" xlink:href="#hl"/>
<use x="477.90" y="287.80" xlink:href="#hl"/>
<use x="477.90" y="281.80" xlink:href="#hl"/>
<use x="477.90" y="275.80" xlink:href="#hl"/>
<use x="477.90" y="269.80" xlink:href="#hl"/>
<use x="477.90" y="266.80" xlink:href="#hd"/>
<path d="M474.40 266.80v45.00" class="stroke"/>
<path class="fill"
	d="M474.40 311.80c0.6 -5.6 9.6 -9 5.6 -18.4
	1.6 6 -1.3 11.6 -5.6 12.8
"/>
<use x="497.10" y="314.80" xlink:href="#hd"/>
<path d="M500.60 314.80v-21.00" class="stroke"/>
<path class="fill"
	d="M500.60 293.80c0.6 5.6 9.6 9 5.6 18.4
	1.6 -6 -1.3 -11.6 -5.6 -12.8
"/>
<use x="518.90" y="293.80" xlink:href="#hl"/>
<use x="518.90" y="287.80" xlink:href="#hl"/>
<use x="518.90" y="287.80" xlink:href="#hd"/>
<path d="M515.40 287.80v24.00" class="stroke"/>
<path class="fill"
	d="M515.40 311.80c0.6 -5.6 9.6 -9 5.6 -18.4
	1.6 6 -1.3 11.6 -5.6 12.8
"/>
<use x="540.30" y="293.80" xlink:href="#hl"/>
<use x="540.30" y="287.80" xlink:href="#hl"/>
<use x="540.30" y="281.80" xlink:href="#hl"/>
<use x="540.30" y="281.80" xlink:href="#hd"/>
<path d="M536.80 281.80v30.00" class="stroke"/>
<path class="fill"
	d="M536.80 311.80c0.6 -5.6 9.6 -9 5.6 -18.4
	1.6 6 -1.3 11.6 -5.6 12.8
"/>
<use x="581.70" y="326.80" xlink:href="#HD"/>
<use x="581.70" y="320.80" xlink:href="#HD"/>
<use x="581.70" y="314.80" xlink:href="#HD"/>
<use x="581.70" y="308.80" xlink:href="#HD"/>
<g transform="rotate(270)">
<use x="-320.80" y="58.00" xlink:href="#ltr"/>
<use x="-314.80" y="58.00" xlink:href="#ltr"/>
<use x="-308.80" y="58.00" xlink:href="#ltr"/>
<use x="-302.80" y="58.00" xlink:href="#ltr"/>
</g>
<text x="186.70" y="225.80" style="font:bold italic 30px serif">,</text>
<g transform="rotate(270)">
<use x="-329.80" y="568.20" xlink:href="#ltr"/>
<use x="-323.80" y="568.20" xlink:href="#ltr"/>
<use x="-317.80" y="568.20" xlink:href="#ltr"/>
<use x="-311.80" y="568.20" xlink:href="#ltr"/>
</g>
<text x="691.60" y="225.80" style="font:bold italic 30px serif">,</text>
</g>
<g stroke-width="0.70" style="font:italic 11.00px Times">
<path class="stroke" stroke-width="1"
	d="M10.00 463.20v-82.00"/>
<g transform="translate(10.00,381.20) scale(1,0.82)">
	<use xlink:href="#brace"/>
</g>
<path class="stroke" stroke-width="1"
	d="M228.00 405.20v-24.00"/>
<path class="stroke" stroke-width="1"
	d="M228.00 463.20v-24.00"/>
<path class="stroke" stroke-width="1"
	d="M369.40 405.20v-24.00"/>
<path class="stroke" stroke-width="1"
	d="M369.40 463.20v-24.00"/>
<path class="stroke" stroke-width="1"
	d="M552.80 405.20v-24.00"/>
<path class="stroke" stroke-width="1"
	d="M552.80 463.20v-24.00"/>
<path class="stroke" stroke-width="1"
	d="M691.60 405.20v-24.00"/>
<path class="stroke" stroke-width="1"
	d="M691.60 463.20v-24.00"/>
<path d="m10.00 405.20
	h681.60
	M10.00 399.20
	h681.60
	M10.00 393.20
	h681.60
	M10.00 387.20
	h681.60
	M10.00 381.20
	h681.60
	" class="stroke"/>
<path d="m10.00 463.20
	h681.60
	M10.00 457.20
	h681.60
	M10.00 451.20
	h681.60
	M10.00 445.20
	h681.60
	M10.00 439.20
	h681.60
	" class="stroke"/>
</g>
<g stroke-width="0.70" style="font:bold 13.00px Times">
<text x="49.30" y="376.60">I<tspan
	 style="font:italic 11.00px Times">Δ⁷</tspan></text>
</g>
<g stroke-width="0.70" style="font:bold 13.00px Times">
<text x="245.20" y="360.60">V<tspan
	 style="font:italic 11.00px Times">⁷²</tspan></text>
</g>
<g stroke-width="0.70" style="font:bold 13.00px Times">
<text x="374.20" y="368.60">I<tspan
	 style="font:italic 11.00px Times">Δ⁷¹</tspan></text>
</g>
<g stroke-width="0.70" style="font:bold 13.00px Times">
<text x="569.80" y="372.60">ii<tspan
	 style="font:italic 11.00px Times">m⁷</tspan></text>
</g>
<g stroke-width="0.70" style="font:italic 11.00px Times">
<use x="22.00" y="399.20" xlink:href="#tclef"/>
<use x="37.00" y="393.20" xlink:href="#ft0"/>
<use x="55.00" y="390.20" xlink:href="#hd"/>
<path d="M51.50 390.20v21.00" class="stroke"/>
<use x="100.00" y="390.20" xlink:href="#hd"/>
<path d="M96.50 390.20v21.00" class="stroke"/>
<use x="144.70" y="393.20" xlink:href="#hd"/>
<path d="M141.20 393.20v21.00" class="stroke"/>
<use x="189.40" y="390.20" xlink:href="#hd"/>
<path d="M185.90 390.20v21.00" class="stroke"/>
<use x="253.00" y="375.20" xlink:href="#hl"/>
<use x="253.00" y="369.20" xlink:href="#hl"/>
<use x="253.00" y="369.20" xlink:href="#hd"/>
<path d="M249.50 369.20v40.00" class="stroke"/>
<use x="253.00" y="390.20" xlink:href="#hd"/>
<use x="284.40" y="375.20" xlink:href="#hl"/>
<use x="284.40" y="369.20" xlink:href="#hl"/>
<use x="284.40" y="366.20" xlink:href="#hd"/>
<path d="M280.90 366.20v40.00" class="stroke"/>
<use x="284.40" y="387.20" xlink:href="#hd"/>
<use x="315.80" y="375.20" xlink:href="#hl"/>
<use x="315.80" y="369.20" xlink:href="#hl"/>
<use x="315.80" y="369.20" xlink:href="#hd"/>
<path d="M312.30 369.20v40.00" class="stroke"/>
<use x="315.80" y="390.20" xlink:href="#hd"/>
<use x="347.10" y="375.20" xlink:href="#hl"/>
<use x="347.10" y="372.20" xlink:href="#hd"/>
<path d="M343.60 372.20v40.00" class="stroke"/>
<use x="347.10" y="393.20" xlink:href="#hd"/>
<use x="381.90" y="396.20" xlink:href="#hd"/>
<path d="M385.40 396.20v-21.00" class="stroke"/>
<use x="426.90" y="393.20" xlink:href="#hd"/>
<path d="M430.40 393.20v-21.00" class="stroke"/>
<use x="471.60" y="396.20" xlink:href="#hd"/>
<path d="M475.10 396.20v-21.00" class="stroke"/>
<use x="514.10" y="399.20" xlink:href="#hd"/>
<path d="M517.60 399.20v-21.00" class="stroke"/>
<use x="577.80" y="381.20" xlink:href="#hd"/>
<path d="M574.30 381.20v40.00" class="stroke"/>
<use x="577.80" y="402.20" xlink:href="#hd"/>
<use x="609.00" y="381.20" xlink:href="#hd"/>
<path d="M605.50 381.20v40.00" class="stroke"/>
<use x="609.00" y="402.20" xlink:href="#hd"/>
<use x="637.20" y="405.20" xlink:href="#hd"/>
<path d="M640.70 405.20v-40.00" class="stroke"/>
<use x="637.20" y="384.20" xlink:href="#hd"/>
<use x="669.30" y="381.20" xlink:href="#hd"/>
<path d="M665.80 381.20v40.00" class="stroke"/>
<use x="669.30" y="402.20" xlink:href="#hd"/>
<use x="22.00" y="445.20" xlink:href="#bclef"/>
<use x="37.00" y="457.20" xlink:href="#ft0"/>
<use x="55.00" y="469.20" xlink:href="#hl"/>
<use x="55.00" y="475.20" xlink:href="#hl"/>
<use x="55.00" y="481.20" xlink:href="#hl"/>
<use x="55.00" y="487.20" xlink:href="#hl"/>
<use x="55.00" y="487.20" xlink:href="#hd"/>
<path d="M58.50 487.20v-40.00" class="stroke"/>
<path class="fill"
	d="M58.50 447.20c0.6 5.6 9.6 9 5.6 18.4
	1.6 -6 -1.3 -11.6 -5.6 -12.8
"/>
<use x="55.00" y="466.20" xlink:href="#hd"/>
<use x="77.70" y="439.20" xlink:href="#hd"/>
<path d="M74.20 439.20v21.00" class="stroke"/>
<path class="fill"
	d="M74.20 460.20c0.6 -5.6 9.6 -9 5.6 -18.4
	1.6 6 -1.3 11.6 -5.6 12.8
"/>
<use x="100.00" y="433.20" xlink:href="#hl"/>
<use x="100.00" y="433.20" xlink:href="#hd"/>
<path d="M96.50 433.20v21.00" class="stroke"/>
<path class="fill"
	d="M96.50 454.20c0.6 -5.6 9.6 -9 5.6 -18.4
	1.6 6 -1.3 11.6 -5.6 12.8
"/>
<use x="122.40" y="433.20" xlink:href="#hl"/>
<use x="122.40" y="427.20" xlink:href="#hl"/>
<use x="122.40" y="427.20" xlink:href="#hd"/>
<path d="M118.90 427.20v24.00" class="stroke"/>
<path class="fill"
	d="M118.90 451.20c0.6 -5.6 9.6 -9 5.6 -18.4
	1.6 6 -1.3 11.6 -5.6 12.8
"/>
<use x="144.70" y="433.20" xlink:href="#hl"/>
<use x="144.70" y="427.20" xlink:href="#hl"/>
<use x="144.70" y="424.20" xlink:href="#hd"/>
<path d="M141.20 424.20v27.00" class="stroke"/>
<path class="fill"
	d="M141.20 451.20c0.6 -5.6 9.6 -9 5.6 -18.4
	1.6 6 -1.3 11.6 -5.6 12.8
"/>
<use x="167.10" y="433.20" xlink:href="#hl"/>
<use x="167.10" y="427.20" xlink:href="#hl"/>
<use x="167.10" y="421.20" xlink:href="#hl"/>
<use x="167.10" y="418.20" xlink:href="#hd"/>
<path d="M163.60 418.20v33.00" class="stroke"/>
<path class="fill"
	d="M163.60 451.20c0.6 -5.6 9.6 -9 5.6 -18.4
	1.6 6 -1.3 11.6 -5.6 12.8
"/>
<use x="189.40" y="466.20" xlink:href="#hd"/>
<path d="M192.90 466.20v-21.00" class="stroke"/>
<path class="fill"
	d="M192.90 445.20c0.6 5.6 9.6 9 5.6 18.4
	1.6 -6 -1.3 -11.6 -5.6 -12.8
"/>
<use x="212.10" y="439.20" xlink:href="#hd"/>
<path d="M208.60 439.20v21.00" class="stroke"/>
<path class="fill"
	d="M208.60 460.20c0.6 -5.6 9.6 -9 5.6 -18.4
	1.6 6 -1.3 11.6 -5.6 12.8
"/>
<use x="254.00" y="436.20" xlink:href="#HD"/>
<use x="254.00" y="454.20" xlink:href="#HD"/>
<use x="254.00" y="448.20" xlink:href="#HD"/>
<use x="254.00" y="442.20" xlink:href="#HD"/>
<use x="381.90" y="469.20" xlink:href="#hl"/>
<use x="381.90" y="475.20" xlink:href="#hl"/>
<use x="381.90" y="481.20" xlink:href="#hl"/>
<use x="381.90" y="487.20" xlink:href="#hl"/>
<use x="381.90" y="487.20" xlink:href="#hd"/>
<path d="M385.40 487.20v-40.00" class="stroke"/>
<path class="fill"
	d="M385.40 447.20c0.6 5.6 9.6 9 5.6 18.4
	1.6 -6 -1.3 -11.6 -5.6 -12.8
"/>
<use x="381.90" y="466.20" xlink:href="#hd"/>
<use x="404.60" y="439.20" xlink:href="#hd"/>
<path d="M401.10 439.20v21.00" class="stroke"/>
<path class="fill"
	d="M401.10 460.20c0.6 -5.6 9.6 -9 5.6 -18.4
	1.6 6 -1.3 11.6 -5.6 12.8
"/>
<use x="426.90" y="433.20" xlink:href="#hl"/>
<use x="426.90" y="433.20" xlink:href="#hd"/>
<path d="M423.40 433.20v21.00" class="stroke"/>
<path class="fill"
	d="M423.40 454.20c0.6 -5.6 9.6 -9 5.6 -18.4
	1.6 6 -1.3 11.6 -5.6 12.8
"/>
<use x="449.20" y="433.20" xlink:href="#hl"/>
<use x="449.20" y="427.20" xlink:href="#hl"/>
<use x="449.20" y="427.20" xlink:href="#hd"/>
<path d="M445.70 427.20v24.00" class="stroke"/>
<path class="fill"
	d="M445.70 451.20c0.6 -5.6 9.6 -9 5.6 -18.4
	1.6 6 -1.3 11.6 -5.6 12.8
"/>
<use x="471.60" y="433.20" xlink:href="#hl"/>
<use x="471.60" y="427.20" xlink:href="#hl"/>
<use x="471.60" y="424.20" xlink:href="#hd"/>
<path d="M468.10 424.20v27.00" class="stroke"/>
<path class="fill"
	d="M468.10 451.20c0.6 -5.6 9.6 -9 5.6 -18.4
	1.6 6 -1.3 11.6 -5.6 12.8
"/>
<use x="494.00" y="433.20" xlink:href="#hl"/>
<use x="494.00" y="427.20" xlink:href="#hl"/>
<use x="494.00" y="421.20" xlink:href="#hl"/>
<use x="494.00" y="418.20" xlink:href="#hd"/>
<path d="M490.50 418.20v33.00" class="stroke"/>
<path class="fill"
	d="M490.50 451.20c0.6 -5.6 9.6 -9 5.6 -18.4
	1.6 6 -1.3 11.6 -5.6 12.8
"/>
<use x="514.10" y="466.20" xlink:href="#hd"/>
<path d="M517.60 466.20v-21.00" class="stroke"/>
<path class="fill"
	d="M517.60 445.20c0.6 5.6 9.6 9 5.6 18.4
	1.6 -6 -1.3 -11.6 -5.6 -12.8
"/>
<use x="536.80" y="439.20" xlink:href="#hd"/>
<path d="M533.30 439.20v21.00" class="stroke"/>
<path class="fill"
	d="M533.30 460.20c0.6 -5.6 9.6 -9 5.6 -18.4
	1.6 6 -1.3 11.6 -5.6 12.8
"/>
<defs>
<path id="hl1" class="stroke" d="m-7 0h14"/>
</defs>
<use x="578.80" y="469.20" xlink:href="#hl1"/>
<use x="578.80" y="475.20" xlink:href="#hl1"/>
<use x="578.80" y="481.20" xlink:href="#hl1"/>
<use x="578.80" y="484.20" xlink:href="#HD"/>
<use x="578.80" y="463.20" xlink:href="#HD"/>
<use x="578.80" y="457.20" xlink:href="#HD"/>
<use x="578.80" y="451.20" xlink:href="#HD"/>
<use x="578.80" y="445.20" xlink:href="#HD"/>
<g transform="rotate(270)">
<use x="-457.20" y="240.50" xlink:href="#ltr"/>
<use x="-451.20" y="240.50" xlink:href="#ltr"/>
<use x="-445.20" y="240.50" xlink:href="#ltr"/>
<use x="-439.20" y="240.50" xlink:href="#ltr"/>
</g>
<text x="374.40" y="372.20" style="font:bold italic 30px serif">,</text>
<defs>
<g id="hld" class="fill">
	<circle cx="0" cy="-3" r="1.3"/>
	<path d="m-7.5 -1.5
		c0 -11.5 15 -11.5 15 0
		h-0.25
		c-1.25 -9 -13.25 -9 -14.5 0"/>
</g>
</defs>
<use x="577.80" y="437.20" xlink:href="#hld"/>
<g transform="rotate(270)">
<use x="-487.20" y="565.30" xlink:href="#ltr"/>
<use x="-481.20" y="565.30" xlink:href="#ltr"/>
<use x="-475.20" y="565.30" xlink:href="#ltr"/>
<use x="-469.20" y="565.30" xlink:href="#ltr"/>
<use x="-463.20" y="565.30" xlink:href="#ltr"/>
<use x="-457.20" y="565.30" xlink:href="#ltr"/>
<use x="-451.20" y="565.30" xlink:href="#ltr"/>
<use x="-445.20" y="565.30" xlink:href="#ltr"/>
</g>
<use x="669.30" y="375.20" xlink:href="#hld"/>
<g transform="rotate(270)">
<use x="-405.20" y="659.30" xlink:href="#ltr"/>
<use x="-399.20" y="659.30" xlink:href="#ltr"/>
<use x="-393.20" y="659.30" xlink:href="#ltr"/>
<use x="-387.20" y="659.30" xlink:href="#ltr"/>
<use x="-381.20" y="659.30" xlink:href="#ltr"/>
</g>
</g>
</svg>
