<?xml version="1.0" standalone="no"?>
<!DOCTYPE svg PUBLIC "-//W3C//DTD SVG 1.1//EN"
	"http://www.w3.org/Graphics/SVG/1.1/DTD/svg11.dtd">
<svg xmlns="http://www.w3.org/2000/svg" version="1.1"
	xmlns:xlink="http://www.w3.org/1999/xlink"
	color="black"
	width="701.60px" height="626.60px" viewBox="0 0 701.60 626.60" preserveAspectRatio="xMidYMid meet">
<style type="text/css">
.fill {fill: currentColor}
.stroke {stroke: currentColor; fill: none}
text{white-space: pre}
</style>
<title>/tmp/boddie_hymnal_stage/o_lord_my_god_i_thirst_for_you.abc (1) tune 1</title>
<!-- Creator: abcm2ps-8.14.11 -->
<!-- CreationDate: Apr 30, 2026 12:59 -->
<!-- CommandLine: /tmp/boddie_hymnal_stage/o_lord_my_god_i_thirst_for_you.abc -g -O /tmp/boddie_hymnal_stage/o_lord_my_god_i_thirst_for_you -->
<g stroke-width="0.70">
<!-- title: 185. O Lord, My God, I Thirst For You -->
</g>
<g stroke-width="0.70" style="font:20.00px Times">
<text x="350.80" y="22.00" text-anchor="middle">185. O Lord, My God, I Thirst For You</text>
</g>
<g stroke-width="0.70" transform="scale(0.700)" style="font:20.00px Times">
<defs>
<ellipse id="hd" rx="4.1" ry="2.9"
	transform="rotate(-20)" class="fill"/>
</defs>
<use x="102.29" y="75.57" xlink:href="#hd"/>
<path d="M105.79 75.57v-21.00" class="stroke"/>
</g>
<g stroke-width="0.70" style="font:bold 15.00px Times">
<text x="79.30" y="55.00">= 72Slowly, with great expression</text>
<path class="stroke" stroke-width="1"
	d="M10.00 183.40v-95.00"/>
<defs>
<path id="brace" class="fill" d="m-2.5 101
	c-4.5 -4.6 -7.5 -12.2 -4.4 -26.8
	3.5 -14.3 3.2 -21.7 -2.1 -24.2
	7.4 2.4 7.3 14.2 3.5 29.5
	-2.7 9.5 -1.5 16.2 3 21.5
	M-2.5 1c-4.5 4.6 -7.5 12.2 -4.4 26.8
	c3.5 14.3 3.2 21.7 -2.1 24.2
	7.4 -2.4 7.3 -14.2 3.5 -29.5
	-2.7 -9.5 -1.5 -16.2 3 -21.5"/>
</defs>
<g transform="translate(10.00,88.40) scale(1,0.95)">
	<use xlink:href="#brace"/>
</g>
<path class="stroke" stroke-width="1"
	d="M226.80 112.40v-24.00"/>
<path class="stroke" stroke-width="1"
	d="M226.80 183.40v-24.00"/>
<path class="stroke" stroke-width="1"
	d="M355.50 112.40v-24.00"/>
<path class="stroke" stroke-width="1"
	d="M355.50 183.40v-24.00"/>
<path class="stroke" stroke-width="1"
	d="M525.00 112.40v-24.00"/>
<path class="stroke" stroke-width="1"
	d="M525.00 183.40v-24.00"/>
<path class="stroke" stroke-width="1"
	d="M691.60 112.40v-24.00"/>
<path class="stroke" stroke-width="1"
	d="M691.60 183.40v-24.00"/>
<path d="m10.00 112.40
	h681.60
	M10.00 106.40
	h681.60
	M10.00 100.40
	h681.60
	M10.00 94.40
	h681.60
	M10.00 88.40
	h681.60
	" class="stroke"/>
<path d="m10.00 183.40
	h681.60
	M10.00 177.40
	h681.60
	M10.00 171.40
	h681.60
	M10.00 165.40
	h681.60
	M10.00 159.40
	h681.60
	" class="stroke"/>
</g>
<g stroke-width="0.70" style="font:bold 13.00px Times">
<text x="63.00" y="78.80">vi<tspan
	 style="font:italic 11.00px Times">m⁷</tspan></text>
</g>
<g stroke-width="0.70" style="font:bold 13.00px Times">
<text x="244.10" y="68.80">I<tspan
	 style="font:italic 11.00px Times">Δ⁷¹</tspan></text>
</g>
<g stroke-width="0.70" style="font:bold 13.00px Times">
<text x="362.30" y="78.80">I<tspan
	 style="font:italic 11.00px Times">Δ⁷</tspan></text>
</g>
<g stroke-width="0.70" style="font:bold 13.00px Times">
<text x="531.80" y="81.80">I<tspan
	 style="font:italic 11.00px Times">Δ⁷</tspan></text>
</g>
<g stroke-width="0.70" style="font:italic 11.00px Times">
<defs>
<path id="utclef" class="fill" d="m-50 -90
	c-72 -41 -72 -158 52 -188
	150 -10 220 188 90 256
	-114 52 -275 0 -293 -136
	-15 -181 93 -229 220 -334
	88 -87 79 -133 62 -210
	-51 33 -94 105 -89 186
	17 267 36 374 49 574
	6 96 -19 134 -77 135
	-80 1 -126 -93 -61 -133
	85 -41 133 101 31 105
	23 17 92 37 90 -92
	-10 -223 -39 -342 -50 -617
	0 -90 0 -162 96 -232
	56 72 63 230 22 289
	-74 106 -257 168 -255 316
	9 153 148 185 252 133
	86 -65 29 -192 -80 -176
	-71 12 -105 67 -59 124"/>
<use id="tclef" transform="translate(0,6) scale(0.045)"
	xlink:href="#utclef"/>
</defs>
<use x="22.00" y="106.40" xlink:href="#tclef"/>
<defs>
<path id="usharp" class="fill" d="
	m136 -702
	v890
	h32
	v-890
	m128 840
	h32
	v-888
	h-32
	m-232 286
	v116
	l338 -96
	v-116
	m-338 442
	v116
	l338 -98
	v-114"/>
<use id="sh0" transform="translate(-4,5) scale(0.018)"
	xlink:href="#usharp"/>
</defs>
<use x="37.00" y="88.40" xlink:href="#sh0"/>
<g style="font:bold 16px serif"
	transform="translate(53.00,111.90) scale(1.2,1)">
	<text text-anchor="middle">4</text>
	<text y="-12" text-anchor="middle">4</text>
</g>
<use x="71.00" y="106.40" xlink:href="#hd"/>
<path d="M74.50 106.40v-21.00" class="stroke"/>
<path class="fill"
	d="M74.50 85.40c0.6 5.6 9.6 9 5.6 18.4
	1.6 -6 -1.3 -11.6 -5.6 -12.8
"/>
<use x="91.70" y="109.40" xlink:href="#hd"/>
<path d="M95.20 109.40v-21.00" class="stroke"/>
<path class="fill"
	d="M95.20 88.40c0.6 5.6 9.6 9 5.6 18.4
	1.6 -6 -1.3 -11.6 -5.6 -12.8
"/>
<use x="112.00" y="112.40" xlink:href="#hd"/>
<path d="M115.50 112.40v-21.00" class="stroke"/>
<use x="152.20" y="112.40" xlink:href="#hd"/>
<path d="M155.70 112.40v-21.00" class="stroke"/>
<use x="192.20" y="112.40" xlink:href="#hd"/>
<path d="M195.70 112.40v-21.00" class="stroke"/>
<use x="251.80" y="115.40" xlink:href="#hd"/>
<path d="M255.30 115.40v-40.00" class="stroke"/>
<use x="251.80" y="94.40" xlink:href="#hd"/>
<use x="279.80" y="85.40" xlink:href="#hd"/>
<path d="M276.30 85.40v40.00" class="stroke"/>
<use x="279.80" y="106.40" xlink:href="#hd"/>
<use x="307.60" y="85.40" xlink:href="#hd"/>
<path d="M304.10 85.40v40.00" class="stroke"/>
<use x="307.60" y="106.40" xlink:href="#hd"/>
<defs>
<path id="hl" class="stroke" d="m-6 0h12"/>
</defs>
<use x="335.40" y="82.40" xlink:href="#hl"/>
<use x="335.40" y="82.40" xlink:href="#hd"/>
<path d="M331.90 82.40v40.00" class="stroke"/>
<use x="335.40" y="103.40" xlink:href="#hd"/>
<use x="368.00" y="106.40" xlink:href="#hd"/>
<path d="M371.50 106.40v-21.00" class="stroke"/>
<path class="fill"
	d="M371.50 85.40c0.6 5.6 9.6 9 5.6 18.4
	1.6 -6 -1.3 -11.6 -5.6 -12.8
"/>
<use x="388.60" y="103.40" xlink:href="#hd"/>
<path d="M392.10 103.40v-21.00" class="stroke"/>
<path class="fill"
	d="M392.10 82.40c0.6 5.6 9.6 9 5.6 18.4
	1.6 -6 -1.3 -11.6 -5.6 -12.8
"/>
<use x="409.00" y="100.40" xlink:href="#hd"/>
<path d="M412.50 100.40v-21.00" class="stroke"/>
<use x="449.20" y="100.40" xlink:href="#hd"/>
<path d="M452.70 100.40v-21.00" class="stroke"/>
<use x="487.30" y="103.40" xlink:href="#hd"/>
<path d="M490.80 103.40v-21.00" class="stroke"/>
<path class="fill"
	d="M490.80 82.40c0.6 5.6 9.6 9 5.6 18.4
	1.6 -6 -1.3 -11.6 -5.6 -12.8
"/>
<use x="508.00" y="106.40" xlink:href="#hd"/>
<path d="M511.50 106.40v-21.00" class="stroke"/>
<path class="fill"
	d="M511.50 85.40c0.6 5.6 9.6 9 5.6 18.4
	1.6 -6 -1.3 -11.6 -5.6 -12.8
"/>
<use x="537.50" y="112.40" xlink:href="#hd"/>
<path d="M541.00 112.40v-21.00" class="stroke"/>
<defs>
<path id="Hd" class="fill" d="m3 -1.6
	c-1 -1.8 -7 1.4 -6 3.2
	1 1.8 7 -1.4 6 -3.2
	m0.5 -0.3
	c2 3.8 -5 7.6 -7 3.8
	-2 -3.8 5 -7.6 7 -3.8"/>
</defs>
<use x="578.10" y="115.40" xlink:href="#Hd"/>
<circle class="fill" cx="586.80" cy="115.40" r="1.2"/>
<path d="M581.60 115.40v-21.00" class="stroke"/>
<defs>
<path id="ubclef" class="fill" d="m-200 -87
	c124 -35 222 -78 254 -236
	43 -228 -167 -246 -192 -103
	59 -80 157 22 92 78
	-62 47 -115 -22 -106 -88
	21 -141 270 -136 274 52
	-1 175 -106 264 -322 297
	m357 -250
	c0 -36 51 -34 51 0
	0 37 -51 36 -51 0
	m-2 -129
	c0 -36 51 -34 51 0
	0 38 -51 37 -51 0"/>
<use id="bclef" transform="translate(0,18) scale(0.045)"
	xlink:href="#ubclef"/>
</defs>
<use x="22.00" y="165.40" xlink:href="#bclef"/>
<use x="37.00" y="165.40" xlink:href="#sh0"/>
<g style="font:bold 16px serif"
	transform="translate(53.00,182.90) scale(1.2,1)">
	<text text-anchor="middle">4</text>
	<text y="-12" text-anchor="middle">4</text>
</g>
<use x="71.00" y="189.40" xlink:href="#hl"/>
<use x="71.00" y="189.40" xlink:href="#hd"/>
<path d="M74.50 189.40v-40.00" class="stroke"/>
<path class="fill"
	d="M74.50 149.40c0.6 5.6 9.6 9 5.6 18.4
	1.6 -6 -1.3 -11.6 -5.6 -12.8
"/>
<use x="71.00" y="168.40" xlink:href="#hd"/>
<use x="91.70" y="153.40" xlink:href="#hl"/>
<use x="91.70" y="147.40" xlink:href="#hl"/>
<use x="91.70" y="141.40" xlink:href="#hl"/>
<use x="91.70" y="141.40" xlink:href="#hd"/>
<path d="M88.20 141.40v30.00" class="stroke"/>
<path class="fill"
	d="M88.20 171.40c0.6 -5.6 9.6 -9 5.6 -18.4
	1.6 6 -1.3 11.6 -5.6 12.8
"/>
<use x="112.00" y="153.40" xlink:href="#hl"/>
<use x="112.00" y="147.40" xlink:href="#hl"/>
<use x="112.00" y="141.40" xlink:href="#hl"/>
<use x="112.00" y="135.40" xlink:href="#hl"/>
<use x="112.00" y="135.40" xlink:href="#hd"/>
<path d="M108.50 135.40v36.00" class="stroke"/>
<path class="fill"
	d="M108.50 171.40c0.6 -5.6 9.6 -9 5.6 -18.4
	1.6 6 -1.3 11.6 -5.6 12.8
"/>
<use x="132.10" y="153.40" xlink:href="#hl"/>
<use x="132.10" y="147.40" xlink:href="#hl"/>
<use x="132.10" y="141.40" xlink:href="#hl"/>
<use x="132.10" y="135.40" xlink:href="#hl"/>
<use x="132.10" y="129.40" xlink:href="#hl"/>
<use x="132.10" y="129.40" xlink:href="#hd"/>
<path d="M128.60 129.40v42.00" class="stroke"/>
<path class="fill"
	d="M128.60 171.40c0.6 -5.6 9.6 -9 5.6 -18.4
	1.6 6 -1.3 11.6 -5.6 12.8
"/>
<use x="152.20" y="153.40" xlink:href="#hl"/>
<use x="152.20" y="147.40" xlink:href="#hl"/>
<use x="152.20" y="141.40" xlink:href="#hl"/>
<use x="152.20" y="135.40" xlink:href="#hl"/>
<use x="152.20" y="129.40" xlink:href="#hl"/>
<use x="152.20" y="126.40" xlink:href="#hd"/>
<path d="M148.70 126.40v45.00" class="stroke"/>
<path class="fill"
	d="M148.70 171.40c0.6 -5.6 9.6 -9 5.6 -18.4
	1.6 6 -1.3 11.6 -5.6 12.8
"/>
<use x="172.30" y="153.40" xlink:href="#hl"/>
<use x="172.30" y="147.40" xlink:href="#hl"/>
<use x="172.30" y="141.40" xlink:href="#hl"/>
<use x="172.30" y="135.40" xlink:href="#hl"/>
<use x="172.30" y="129.40" xlink:href="#hl"/>
<use x="172.30" y="123.40" xlink:href="#hl"/>
<use x="172.30" y="120.40" xlink:href="#hd"/>
<path d="M168.80 120.40v51.00" class="stroke"/>
<path class="fill"
	d="M168.80 171.40c0.6 -5.6 9.6 -9 5.6 -18.4
	1.6 6 -1.3 11.6 -5.6 12.8
"/>
<use x="192.20" y="168.40" xlink:href="#hd"/>
<path d="M188.70 168.40v21.00" class="stroke"/>
<path class="fill"
	d="M188.70 189.40c0.6 -5.6 9.6 -9 5.6 -18.4
	1.6 6 -1.3 11.6 -5.6 12.8
"/>
<use x="212.20" y="153.40" xlink:href="#hl"/>
<use x="212.20" y="147.40" xlink:href="#hl"/>
<use x="212.20" y="141.40" xlink:href="#hl"/>
<use x="212.20" y="141.40" xlink:href="#hd"/>
<path d="M208.70 141.40v30.00" class="stroke"/>
<path class="fill"
	d="M208.70 171.40c0.6 -5.6 9.6 -9 5.6 -18.4
	1.6 6 -1.3 11.6 -5.6 12.8
"/>
<defs>
<path id="HD" class="fill" d="m-2.7 -1.4
	c1.5 -2.8 6.9 0 5.3 2.7
	-1.5 2.8 -6.9 0 -5.3 -2.7
	m8.3 1.4
	c0 -1.5 -2.2 -3 -5.6 -3
	-3.4 0 -5.6 1.5 -5.6 3
	0 1.5 2.2 3 5.6 3
	3.4 0 5.6 -1.5 5.6 -3"/>
</defs>
<use x="252.80" y="183.40" xlink:href="#HD"/>
<use x="252.80" y="177.40" xlink:href="#HD"/>
<use x="252.80" y="171.40" xlink:href="#HD"/>
<use x="252.80" y="165.40" xlink:href="#HD"/>
<use x="368.00" y="189.40" xlink:href="#hl"/>
<use x="368.00" y="195.40" xlink:href="#hl"/>
<use x="368.00" y="201.40" xlink:href="#hl"/>
<use x="368.00" y="204.40" xlink:href="#hd"/>
<path d="M371.50 204.40v-40.00" class="stroke"/>
<path class="fill"
	d="M371.50 164.40c0.6 5.6 9.6 9 5.6 18.4
	1.6 -6 -1.3 -11.6 -5.6 -12.8
"/>
<use x="368.00" y="183.40" xlink:href="#hd"/>
<use x="388.60" y="156.40" xlink:href="#hd"/>
<path d="M385.10 156.40v21.00" class="stroke"/>
<path class="fill"
	d="M385.10 177.40c0.6 -5.6 9.6 -9 5.6 -18.4
	1.6 6 -1.3 11.6 -5.6 12.8
"/>
<use x="409.00" y="153.40" xlink:href="#hl"/>
<use x="409.00" y="150.40" xlink:href="#hd"/>
<path d="M405.50 150.40v21.00" class="stroke"/>
<path class="fill"
	d="M405.50 171.40c0.6 -5.6 9.6 -9 5.6 -18.4
	1.6 6 -1.3 11.6 -5.6 12.8
"/>
<use x="429.10" y="153.40" xlink:href="#hl"/>
<use x="429.10" y="147.40" xlink:href="#hl"/>
<use x="429.10" y="144.40" xlink:href="#hd"/>
<path d="M425.60 144.40v27.00" class="stroke"/>
<path class="fill"
	d="M425.60 171.40c0.6 -5.6 9.6 -9 5.6 -18.4
	1.6 6 -1.3 11.6 -5.6 12.8
"/>
<use x="449.20" y="153.40" xlink:href="#hl"/>
<use x="449.20" y="147.40" xlink:href="#hl"/>
<use x="449.20" y="141.40" xlink:href="#hl"/>
<use x="449.20" y="141.40" xlink:href="#hd"/>
<path d="M445.70 141.40v30.00" class="stroke"/>
<path class="fill"
	d="M445.70 171.40c0.6 -5.6 9.6 -9 5.6 -18.4
	1.6 6 -1.3 11.6 -5.6 12.8
"/>
<use x="469.30" y="153.40" xlink:href="#hl"/>
<use x="469.30" y="147.40" xlink:href="#hl"/>
<use x="469.30" y="141.40" xlink:href="#hl"/>
<use x="469.30" y="135.40" xlink:href="#hl"/>
<use x="469.30" y="135.40" xlink:href="#hd"/>
<path d="M465.80 135.40v36.00" class="stroke"/>
<path class="fill"
	d="M465.80 171.40c0.6 -5.6 9.6 -9 5.6 -18.4
	1.6 6 -1.3 11.6 -5.6 12.8
"/>
<use x="487.30" y="183.40" xlink:href="#hd"/>
<path d="M490.80 183.40v-21.00" class="stroke"/>
<path class="fill"
	d="M490.80 162.40c0.6 5.6 9.6 9 5.6 18.4
	1.6 -6 -1.3 -11.6 -5.6 -12.8
"/>
<use x="508.00" y="156.40" xlink:href="#hd"/>
<path d="M504.50 156.40v21.00" class="stroke"/>
<path class="fill"
	d="M504.50 177.40c0.6 -5.6 9.6 -9 5.6 -18.4
	1.6 6 -1.3 11.6 -5.6 12.8
"/>
<use x="537.50" y="183.40" xlink:href="#hd"/>
<path d="M541.00 183.40v-21.00" class="stroke"/>
<path class="fill"
	d="M541.00 162.40c0.6 5.6 9.6 9 5.6 18.4
	1.6 -6 -1.3 -11.6 -5.6 -12.8
"/>
<use x="558.10" y="156.40" xlink:href="#hd"/>
<path d="M554.60 156.40v21.00" class="stroke"/>
<path class="fill"
	d="M554.60 177.40c0.6 -5.6 9.6 -9 5.6 -18.4
	1.6 6 -1.3 11.6 -5.6 12.8
"/>
<use x="578.10" y="153.40" xlink:href="#hl"/>
<use x="578.10" y="150.40" xlink:href="#hd"/>
<path d="M574.60 150.40v21.00" class="stroke"/>
<path class="fill"
	d="M574.60 171.40c0.6 -5.6 9.6 -9 5.6 -18.4
	1.6 6 -1.3 11.6 -5.6 12.8
"/>
<use x="598.10" y="153.40" xlink:href="#hl"/>
<use x="598.10" y="147.40" xlink:href="#hl"/>
<use x="598.10" y="144.40" xlink:href="#hd"/>
<path d="M594.60 144.40v27.00" class="stroke"/>
<path class="fill"
	d="M594.60 171.40c0.6 -5.6 9.6 -9 5.6 -18.4
	1.6 6 -1.3 11.6 -5.6 12.8
"/>
<use x="618.20" y="153.40" xlink:href="#hl"/>
<use x="618.20" y="147.40" xlink:href="#hl"/>
<use x="618.20" y="141.40" xlink:href="#hl"/>
<use x="618.20" y="141.40" xlink:href="#hd"/>
<path d="M614.70 141.40v30.00" class="stroke"/>
<path class="fill"
	d="M614.70 171.40c0.6 -5.6 9.6 -9 5.6 -18.4
	1.6 6 -1.3 11.6 -5.6 12.8
"/>
<use x="638.30" y="153.40" xlink:href="#hl"/>
<use x="638.30" y="147.40" xlink:href="#hl"/>
<use x="638.30" y="141.40" xlink:href="#hl"/>
<use x="638.30" y="135.40" xlink:href="#hl"/>
<use x="638.30" y="135.40" xlink:href="#hd"/>
<path d="M634.80 135.40v36.00" class="stroke"/>
<path class="fill"
	d="M634.80 171.40c0.6 -5.6 9.6 -9 5.6 -18.4
	1.6 6 -1.3 11.6 -5.6 12.8
"/>
<use x="656.40" y="183.40" xlink:href="#hd"/>
<path d="M659.90 183.40v-21.00" class="stroke"/>
<path class="fill"
	d="M659.90 162.40c0.6 5.6 9.6 9 5.6 18.4
	1.6 -6 -1.3 -11.6 -5.6 -12.8
"/>
<use x="677.00" y="156.40" xlink:href="#hd"/>
<path d="M673.50 156.40v21.00" class="stroke"/>
<path class="fill"
	d="M673.50 177.40c0.6 -5.6 9.6 -9 5.6 -18.4
	1.6 6 -1.3 11.6 -5.6 12.8
"/>
<defs>
<path id="ltr" class="fill"
    d="m0 -0.4c2 -1.5 3.4 -1.9 3.9 0.4
	c0.2 0.8 0.7 0.7 2.1 -0.4
	v0.8c-2 1.5 -3.4 1.9 -3.9 -0.4
	c-0.2 -0.8 -0.7 -0.7 -2.1 0.4z"/>
</defs>
<g transform="rotate(270)">
<use x="-186.40" y="239.30" xlink:href="#ltr"/>
<use x="-180.40" y="239.30" xlink:href="#ltr"/>
<use x="-174.40" y="239.30" xlink:href="#ltr"/>
<use x="-168.40" y="239.30" xlink:href="#ltr"/>
</g>
<text x="360.50" y="79.40" style="font:bold italic 30px serif">,</text>
</g>
<g stroke-width="0.70" style="font:italic 11.00px Times">
<path class="stroke" stroke-width="1"
	d="M10.00 324.80v-82.00"/>
<g transform="translate(10.00,242.80) scale(1,0.82)">
	<use xlink:href="#brace"/>
</g>
<path class="stroke" stroke-width="1"
	d="M227.70 266.80v-24.00"/>
<path class="stroke" stroke-width="1"
	d="M227.70 324.80v-24.00"/>
<path class="stroke" stroke-width="1"
	d="M412.60 266.80v-24.00"/>
<path class="stroke" stroke-width="1"
	d="M412.60 324.80v-24.00"/>
<path class="stroke" stroke-width="1"
	d="M598.70 266.80v-24.00"/>
<path class="stroke" stroke-width="1"
	d="M598.70 324.80v-24.00"/>
<path class="stroke" stroke-width="1"
	d="M691.60 266.80v-24.00"/>
<path class="stroke" stroke-width="1"
	d="M691.60 324.80v-24.00"/>
<path d="m10.00 266.80
	h681.60
	M10.00 260.80
	h681.60
	M10.00 254.80
	h681.60
	M10.00 248.80
	h681.60
	M10.00 242.80
	h681.60
	" class="stroke"/>
<path d="m10.00 324.80
	h681.60
	M10.00 318.80
	h681.60
	M10.00 312.80
	h681.60
	M10.00 306.80
	h681.60
	M10.00 300.80
	h681.60
	" class="stroke"/>
</g>
<g stroke-width="0.70" style="font:bold 13.00px Times">
<text x="47.30" y="233.20">I<tspan
	 style="font:italic 11.00px Times">Δ⁷¹</tspan></text>
</g>
<g stroke-width="0.70" style="font:bold 13.00px Times">
<text x="234.50" y="236.20">I<tspan
	 style="font:italic 11.00px Times">Δ⁷</tspan></text>
</g>
<g stroke-width="0.70" style="font:bold 13.00px Times">
<text x="419.40" y="233.20">I<tspan
	 style="font:italic 11.00px Times">Δ⁷</tspan></text>
</g>
<g stroke-width="0.70" style="font:bold 13.00px Times">
<text x="615.70" y="220.20">vi<tspan
	 style="font:italic 11.00px Times">m⁷</tspan></text>
</g>
<g stroke-width="0.70" style="font:italic 11.00px Times">
<use x="22.00" y="260.80" xlink:href="#tclef"/>
<use x="37.00" y="242.80" xlink:href="#sh0"/>
<use x="55.00" y="260.80" xlink:href="#hd"/>
<path d="M58.50 260.80v-21.00" class="stroke"/>
<path class="fill"
	d="M58.50 239.80c0.6 5.6 9.6 9 5.6 18.4
	1.6 -6 -1.3 -11.6 -5.6 -12.8
"/>
<use x="77.90" y="263.80" xlink:href="#hd"/>
<path d="M81.40 263.80v-21.00" class="stroke"/>
<path class="fill"
	d="M81.40 242.80c0.6 5.6 9.6 9 5.6 18.4
	1.6 -6 -1.3 -11.6 -5.6 -12.8
"/>
<use x="100.60" y="266.80" xlink:href="#hd"/>
<path d="M104.10 266.80v-21.00" class="stroke"/>
<use x="145.80" y="266.80" xlink:href="#hd"/>
<path d="M149.30 266.80v-21.00" class="stroke"/>
<use x="188.70" y="266.80" xlink:href="#hd"/>
<path d="M192.20 266.80v-21.00" class="stroke"/>
<use x="240.20" y="269.80" xlink:href="#hd"/>
<path d="M243.70 269.80v-21.00" class="stroke"/>
<use x="285.60" y="260.80" xlink:href="#hd"/>
<path d="M289.10 260.80v-21.00" class="stroke"/>
<use x="330.80" y="260.80" xlink:href="#hd"/>
<path d="M334.30 260.80v-21.00" class="stroke"/>
<use x="373.70" y="257.80" xlink:href="#hd"/>
<path d="M377.20 257.80v-21.00" class="stroke"/>
<use x="425.10" y="260.80" xlink:href="#hd"/>
<path d="M428.60 260.80v-21.00" class="stroke"/>
<path class="fill"
	d="M428.60 239.80c0.6 5.6 9.6 9 5.6 18.4
	1.6 -6 -1.3 -11.6 -5.6 -12.8
"/>
<use x="448.00" y="257.80" xlink:href="#hd"/>
<path d="M451.50 257.80v-21.00" class="stroke"/>
<path class="fill"
	d="M451.50 236.80c0.6 5.6 9.6 9 5.6 18.4
	1.6 -6 -1.3 -11.6 -5.6 -12.8
"/>
<use x="470.80" y="254.80" xlink:href="#hd"/>
<path d="M474.30 254.80v-21.00" class="stroke"/>
<use x="516.00" y="254.80" xlink:href="#hd"/>
<path d="M519.50 254.80v-21.00" class="stroke"/>
<use x="558.90" y="257.80" xlink:href="#hd"/>
<path d="M562.40 257.80v-21.00" class="stroke"/>
<path class="fill"
	d="M562.40 236.80c0.6 5.6 9.6 9 5.6 18.4
	1.6 -6 -1.3 -11.6 -5.6 -12.8
"/>
<use x="581.70" y="260.80" xlink:href="#hd"/>
<path d="M585.20 260.80v-21.00" class="stroke"/>
<path class="fill"
	d="M585.20 239.80c0.6 5.6 9.6 9 5.6 18.4
	1.6 -6 -1.3 -11.6 -5.6 -12.8
"/>
<use x="623.70" y="266.80" xlink:href="#hd"/>
<path d="M627.20 266.80v-40.00" class="stroke"/>
<use x="623.70" y="245.80" xlink:href="#hd"/>
<use x="655.40" y="266.80" xlink:href="#Hd"/>
<circle class="fill" cx="664.10" cy="263.80" r="1.2"/>
<path d="M658.90 266.80v-40.00" class="stroke"/>
<use x="655.40" y="245.80" xlink:href="#Hd"/>
<circle class="fill" cx="664.10" cy="245.80" r="1.2"/>
<use x="22.00" y="306.80" xlink:href="#bclef"/>
<use x="37.00" y="306.80" xlink:href="#sh0"/>
<use x="55.00" y="324.80" xlink:href="#hd"/>
<path d="M58.50 324.80v-21.00" class="stroke"/>
<path class="fill"
	d="M58.50 303.80c0.6 5.6 9.6 9 5.6 18.4
	1.6 -6 -1.3 -11.6 -5.6 -12.8
"/>
<use x="77.90" y="297.80" xlink:href="#hd"/>
<path d="M74.40 297.80v21.00" class="stroke"/>
<path class="fill"
	d="M74.40 318.80c0.6 -5.6 9.6 -9 5.6 -18.4
	1.6 6 -1.3 11.6 -5.6 12.8
"/>
<use x="100.60" y="294.80" xlink:href="#hl"/>
<use x="100.60" y="291.80" xlink:href="#hd"/>
<path d="M97.10 291.80v21.00" class="stroke"/>
<path class="fill"
	d="M97.10 312.80c0.6 -5.6 9.6 -9 5.6 -18.4
	1.6 6 -1.3 11.6 -5.6 12.8
"/>
<use x="123.20" y="294.80" xlink:href="#hl"/>
<use x="123.20" y="288.80" xlink:href="#hl"/>
<use x="123.20" y="285.80" xlink:href="#hd"/>
<path d="M119.70 285.80v27.00" class="stroke"/>
<path class="fill"
	d="M119.70 312.80c0.6 -5.6 9.6 -9 5.6 -18.4
	1.6 6 -1.3 11.6 -5.6 12.8
"/>
<use x="145.80" y="294.80" xlink:href="#hl"/>
<use x="145.80" y="288.80" xlink:href="#hl"/>
<use x="145.80" y="282.80" xlink:href="#hl"/>
<use x="145.80" y="282.80" xlink:href="#hd"/>
<path d="M142.30 282.80v30.00" class="stroke"/>
<path class="fill"
	d="M142.30 312.80c0.6 -5.6 9.6 -9 5.6 -18.4
	1.6 6 -1.3 11.6 -5.6 12.8
"/>
<use x="168.40" y="294.80" xlink:href="#hl"/>
<use x="168.40" y="288.80" xlink:href="#hl"/>
<use x="168.40" y="282.80" xlink:href="#hl"/>
<use x="168.40" y="276.80" xlink:href="#hl"/>
<use x="168.40" y="276.80" xlink:href="#hd"/>
<path d="M164.90 276.80v36.00" class="stroke"/>
<path class="fill"
	d="M164.90 312.80c0.6 -5.6 9.6 -9 5.6 -18.4
	1.6 6 -1.3 11.6 -5.6 12.8
"/>
<use x="188.70" y="324.80" xlink:href="#hd"/>
<path d="M192.20 324.80v-21.00" class="stroke"/>
<path class="fill"
	d="M192.20 303.80c0.6 5.6 9.6 9 5.6 18.4
	1.6 -6 -1.3 -11.6 -5.6 -12.8
"/>
<use x="211.60" y="297.80" xlink:href="#hd"/>
<path d="M208.10 297.80v21.00" class="stroke"/>
<path class="fill"
	d="M208.10 318.80c0.6 -5.6 9.6 -9 5.6 -18.4
	1.6 6 -1.3 11.6 -5.6 12.8
"/>
<use x="240.20" y="324.80" xlink:href="#hd"/>
<path d="M243.70 324.80v-21.00" class="stroke"/>
<path class="fill"
	d="M243.70 303.80c0.6 5.6 9.6 9 5.6 18.4
	1.6 -6 -1.3 -11.6 -5.6 -12.8
"/>
<use x="263.10" y="297.80" xlink:href="#hd"/>
<path d="M259.60 297.80v21.00" class="stroke"/>
<path class="fill"
	d="M259.60 318.80c0.6 -5.6 9.6 -9 5.6 -18.4
	1.6 6 -1.3 11.6 -5.6 12.8
"/>
<use x="285.60" y="294.80" xlink:href="#hl"/>
<use x="285.60" y="291.80" xlink:href="#hd"/>
<path d="M282.10 291.80v21.00" class="stroke"/>
<path class="fill"
	d="M282.10 312.80c0.6 -5.6 9.6 -9 5.6 -18.4
	1.6 6 -1.3 11.6 -5.6 12.8
"/>
<use x="308.20" y="294.80" xlink:href="#hl"/>
<use x="308.20" y="288.80" xlink:href="#hl"/>
<use x="308.20" y="285.80" xlink:href="#hd"/>
<path d="M304.70 285.80v27.00" class="stroke"/>
<path class="fill"
	d="M304.70 312.80c0.6 -5.6 9.6 -9 5.6 -18.4
	1.6 6 -1.3 11.6 -5.6 12.8
"/>
<use x="330.80" y="294.80" xlink:href="#hl"/>
<use x="330.80" y="288.80" xlink:href="#hl"/>
<use x="330.80" y="282.80" xlink:href="#hl"/>
<use x="330.80" y="282.80" xlink:href="#hd"/>
<path d="M327.30 282.80v30.00" class="stroke"/>
<path class="fill"
	d="M327.30 312.80c0.6 -5.6 9.6 -9 5.6 -18.4
	1.6 6 -1.3 11.6 -5.6 12.8
"/>
<use x="353.40" y="294.80" xlink:href="#hl"/>
<use x="353.40" y="288.80" xlink:href="#hl"/>
<use x="353.40" y="282.80" xlink:href="#hl"/>
<use x="353.40" y="276.80" xlink:href="#hl"/>
<use x="353.40" y="276.80" xlink:href="#hd"/>
<path d="M349.90 276.80v36.00" class="stroke"/>
<path class="fill"
	d="M349.90 312.80c0.6 -5.6 9.6 -9 5.6 -18.4
	1.6 6 -1.3 11.6 -5.6 12.8
"/>
<use x="373.70" y="324.80" xlink:href="#hd"/>
<path d="M377.20 324.80v-21.00" class="stroke"/>
<path class="fill"
	d="M377.20 303.80c0.6 5.6 9.6 9 5.6 18.4
	1.6 -6 -1.3 -11.6 -5.6 -12.8
"/>
<use x="396.60" y="297.80" xlink:href="#hd"/>
<path d="M393.10 297.80v21.00" class="stroke"/>
<path class="fill"
	d="M393.10 318.80c0.6 -5.6 9.6 -9 5.6 -18.4
	1.6 6 -1.3 11.6 -5.6 12.8
"/>
<use x="425.10" y="324.80" xlink:href="#hd"/>
<path d="M428.60 324.80v-21.00" class="stroke"/>
<path class="fill"
	d="M428.60 303.80c0.6 5.6 9.6 9 5.6 18.4
	1.6 -6 -1.3 -11.6 -5.6 -12.8
"/>
<use x="448.00" y="297.80" xlink:href="#hd"/>
<path d="M444.50 297.80v21.00" class="stroke"/>
<path class="fill"
	d="M444.50 318.80c0.6 -5.6 9.6 -9 5.6 -18.4
	1.6 6 -1.3 11.6 -5.6 12.8
"/>
<use x="470.80" y="294.80" xlink:href="#hl"/>
<use x="470.80" y="291.80" xlink:href="#hd"/>
<path d="M467.30 291.80v21.00" class="stroke"/>
<path class="fill"
	d="M467.30 312.80c0.6 -5.6 9.6 -9 5.6 -18.4
	1.6 6 -1.3 11.6 -5.6 12.8
"/>
<use x="493.40" y="294.80" xlink:href="#hl"/>
<use x="493.40" y="288.80" xlink:href="#hl"/>
<use x="493.40" y="285.80" xlink:href="#hd"/>
<path d="M489.90 285.80v27.00" class="stroke"/>
<path class="fill"
	d="M489.90 312.80c0.6 -5.6 9.6 -9 5.6 -18.4
	1.6 6 -1.3 11.6 -5.6 12.8
"/>
<use x="516.00" y="294.80" xlink:href="#hl"/>
<use x="516.00" y="288.80" xlink:href="#hl"/>
<use x="516.00" y="282.80" xlink:href="#hl"/>
<use x="516.00" y="282.80" xlink:href="#hd"/>
<path d="M512.50 282.80v30.00" class="stroke"/>
<path class="fill"
	d="M512.50 312.80c0.6 -5.6 9.6 -9 5.6 -18.4
	1.6 6 -1.3 11.6 -5.6 12.8
"/>
<use x="538.60" y="294.80" xlink:href="#hl"/>
<use x="538.60" y="288.80" xlink:href="#hl"/>
<use x="538.60" y="282.80" xlink:href="#hl"/>
<use x="538.60" y="276.80" xlink:href="#hl"/>
<use x="538.60" y="276.80" xlink:href="#hd"/>
<path d="M535.10 276.80v36.00" class="stroke"/>
<path class="fill"
	d="M535.10 312.80c0.6 -5.6 9.6 -9 5.6 -18.4
	1.6 6 -1.3 11.6 -5.6 12.8
"/>
<use x="558.90" y="324.80" xlink:href="#hd"/>
<path d="M562.40 324.80v-21.00" class="stroke"/>
<path class="fill"
	d="M562.40 303.80c0.6 5.6 9.6 9 5.6 18.4
	1.6 -6 -1.3 -11.6 -5.6 -12.8
"/>
<use x="581.70" y="297.80" xlink:href="#hd"/>
<path d="M578.20 297.80v21.00" class="stroke"/>
<path class="fill"
	d="M578.20 318.80c0.6 -5.6 9.6 -9 5.6 -18.4
	1.6 6 -1.3 11.6 -5.6 12.8
"/>
<defs>
<path id="hl1" class="stroke" d="m-7 0h14"/>
</defs>
<use x="624.70" y="294.80" xlink:href="#hl1"/>
<use x="624.70" y="291.80" xlink:href="#HD"/>
<use x="624.70" y="309.80" xlink:href="#HD"/>
<use x="624.70" y="303.80" xlink:href="#HD"/>
<use x="624.70" y="297.80" xlink:href="#HD"/>
<g transform="rotate(270)">
<use x="-312.80" y="611.20" xlink:href="#ltr"/>
<use x="-306.80" y="611.20" xlink:href="#ltr"/>
<use x="-300.80" y="611.20" xlink:href="#ltr"/>
<use x="-294.80" y="611.20" xlink:href="#ltr"/>
</g>
<text x="691.60" y="233.80" style="font:bold italic 30px serif">,</text>
</g>
<g stroke-width="0.70" style="font:italic 11.00px Times">
<path class="stroke" stroke-width="1"
	d="M10.00 458.20v-85.00"/>
<g transform="translate(10.00,373.20) scale(1,0.85)">
	<use xlink:href="#brace"/>
</g>
<path class="stroke" stroke-width="1"
	d="M207.90 397.20v-24.00"/>
<path class="stroke" stroke-width="1"
	d="M207.90 458.20v-24.00"/>
<path class="stroke" stroke-width="1"
	d="M407.00 397.20v-24.00"/>
<path class="stroke" stroke-width="1"
	d="M407.00 458.20v-24.00"/>
<path class="stroke" stroke-width="1"
	d="M531.00 397.20v-24.00"/>
<path class="stroke" stroke-width="1"
	d="M531.00 458.20v-24.00"/>
<path class="stroke" stroke-width="1"
	d="M691.60 397.20v-24.00"/>
<path class="stroke" stroke-width="1"
	d="M691.60 458.20v-24.00"/>
<path d="m10.00 397.20
	h681.60
	M10.00 391.20
	h681.60
	M10.00 385.20
	h681.60
	M10.00 379.20
	h681.60
	M10.00 373.20
	h681.60
	" class="stroke"/>
<path d="m10.00 458.20
	h681.60
	M10.00 452.20
	h681.60
	M10.00 446.20
	h681.60
	M10.00 440.20
	h681.60
	M10.00 434.20
	h681.60
	" class="stroke"/>
</g>
<g stroke-width="0.70" style="font:bold 13.00px Times">
<text x="49.30" y="357.60">I<tspan
	 style="font:italic 11.00px Times">Δ⁷</tspan></text>
</g>
<g stroke-width="0.70" style="font:bold 13.00px Times">
<text x="214.70" y="363.60">I<tspan
	 style="font:italic 11.00px Times">Δ⁷</tspan></text>
</g>
<g stroke-width="0.70" style="font:bold 13.00px Times">
<text x="413.80" y="357.60">I<tspan
	 style="font:italic 11.00px Times">Δ⁷</tspan></text>
</g>
<g stroke-width="0.70" style="font:bold 13.00px Times">
<text x="537.80" y="366.60">I<tspan
	 style="font:italic 11.00px Times">Δ⁷</tspan></text>
</g>
<g stroke-width="0.70" style="font:italic 11.00px Times">
<use x="22.00" y="391.20" xlink:href="#tclef"/>
<use x="37.00" y="373.20" xlink:href="#sh0"/>
<use x="55.00" y="385.20" xlink:href="#hd"/>
<path d="M58.50 385.20v-21.00" class="stroke"/>
<path class="fill"
	d="M58.50 364.20c0.6 5.6 9.6 9 5.6 18.4
	1.6 -6 -1.3 -11.6 -5.6 -12.8
"/>
<use x="74.80" y="382.20" xlink:href="#hd"/>
<path d="M71.30 382.20v21.00" class="stroke"/>
<path class="fill"
	d="M71.30 403.20c0.6 -5.6 9.6 -9 5.6 -18.4
	1.6 6 -1.3 11.6 -5.6 12.8
"/>
<use x="94.00" y="379.20" xlink:href="#hd"/>
<path d="M90.50 379.20v21.00" class="stroke"/>
<use x="132.60" y="385.20" xlink:href="#hd"/>
<path d="M129.10 385.20v21.00" class="stroke"/>
<use x="171.10" y="385.20" xlink:href="#hd"/>
<path d="M167.60 385.20v21.00" class="stroke"/>
<path class="fill"
	d="M167.60 406.20c0.6 -5.6 9.6 -9 5.6 -18.4
	1.6 6 -1.3 11.6 -5.6 12.8
"/>
<use x="190.90" y="388.20" xlink:href="#hd"/>
<path d="M194.40 388.20v-21.00" class="stroke"/>
<path class="fill"
	d="M194.40 367.20c0.6 5.6 9.6 9 5.6 18.4
	1.6 -6 -1.3 -11.6 -5.6 -12.8
"/>
<use x="220.40" y="391.20" xlink:href="#hd"/>
<path d="M223.90 391.20v-21.00" class="stroke"/>
<use x="259.40" y="388.20" xlink:href="#hd"/>
<path d="M262.90 388.20v-21.00" class="stroke"/>
<use x="298.00" y="388.20" xlink:href="#hd"/>
<path d="M301.50 388.20v-21.00" class="stroke"/>
<use x="334.70" y="385.20" xlink:href="#Hd"/>
<path d="M338.20 385.20v-21.00" class="stroke"/>
<use x="419.50" y="385.20" xlink:href="#hd"/>
<path d="M423.00 385.20v-21.00" class="stroke"/>
<use x="458.50" y="385.20" xlink:href="#hd"/>
<path d="M462.00 385.20v-21.00" class="stroke"/>
<path class="fill"
	d="M462.00 364.20c0.6 5.6 9.6 9 5.6 18.4
	1.6 -6 -1.3 -11.6 -5.6 -12.8
"/>
<use x="478.10" y="388.20" xlink:href="#hd"/>
<path d="M481.60 388.20v-21.00" class="stroke"/>
<path class="fill"
	d="M481.60 367.20c0.6 5.6 9.6 9 5.6 18.4
	1.6 -6 -1.3 -11.6 -5.6 -12.8
"/>
<use x="497.70" y="391.20" xlink:href="#hd"/>
<path d="M501.20 391.20v-21.00" class="stroke"/>
<use x="543.50" y="397.20" xlink:href="#hd"/>
<path d="M547.00 397.20v-21.00" class="stroke"/>
<use x="582.50" y="400.20" xlink:href="#Hd"/>
<circle class="fill" cx="591.20" cy="400.20" r="1.2"/>
<path d="M586.00 400.20v-21.00" class="stroke"/>
<use x="22.00" y="440.20" xlink:href="#bclef"/>
<use x="37.00" y="440.20" xlink:href="#sh0"/>
<use x="55.00" y="464.20" xlink:href="#hl"/>
<use x="55.00" y="470.20" xlink:href="#hl"/>
<use x="55.00" y="476.20" xlink:href="#hl"/>
<use x="55.00" y="479.20" xlink:href="#hd"/>
<path d="M58.50 479.20v-40.00" class="stroke"/>
<path class="fill"
	d="M58.50 439.20c0.6 5.6 9.6 9 5.6 18.4
	1.6 -6 -1.3 -11.6 -5.6 -12.8
"/>
<use x="55.00" y="458.20" xlink:href="#hd"/>
<use x="74.80" y="431.20" xlink:href="#hd"/>
<path d="M71.30 431.20v21.00" class="stroke"/>
<path class="fill"
	d="M71.30 452.20c0.6 -5.6 9.6 -9 5.6 -18.4
	1.6 6 -1.3 11.6 -5.6 12.8
"/>
<use x="94.00" y="428.20" xlink:href="#hl"/>
<use x="94.00" y="425.20" xlink:href="#hd"/>
<path d="M90.50 425.20v21.00" class="stroke"/>
<path class="fill"
	d="M90.50 446.20c0.6 -5.6 9.6 -9 5.6 -18.4
	1.6 6 -1.3 11.6 -5.6 12.8
"/>
<use x="113.30" y="428.20" xlink:href="#hl"/>
<use x="113.30" y="422.20" xlink:href="#hl"/>
<use x="113.30" y="419.20" xlink:href="#hd"/>
<path d="M109.80 419.20v27.00" class="stroke"/>
<path class="fill"
	d="M109.80 446.20c0.6 -5.6 9.6 -9 5.6 -18.4
	1.6 6 -1.3 11.6 -5.6 12.8
"/>
<use x="132.60" y="428.20" xlink:href="#hl"/>
<use x="132.60" y="422.20" xlink:href="#hl"/>
<use x="132.60" y="416.20" xlink:href="#hl"/>
<use x="132.60" y="416.20" xlink:href="#hd"/>
<path d="M129.10 416.20v30.00" class="stroke"/>
<path class="fill"
	d="M129.10 446.20c0.6 -5.6 9.6 -9 5.6 -18.4
	1.6 6 -1.3 11.6 -5.6 12.8
"/>
<use x="151.90" y="428.20" xlink:href="#hl"/>
<use x="151.90" y="422.20" xlink:href="#hl"/>
<use x="151.90" y="416.20" xlink:href="#hl"/>
<use x="151.90" y="410.20" xlink:href="#hl"/>
<use x="151.90" y="410.20" xlink:href="#hd"/>
<path d="M148.40 410.20v36.00" class="stroke"/>
<path class="fill"
	d="M148.40 446.20c0.6 -5.6 9.6 -9 5.6 -18.4
	1.6 6 -1.3 11.6 -5.6 12.8
"/>
<use x="171.10" y="458.20" xlink:href="#hd"/>
<path d="M174.60 458.20v-21.00" class="stroke"/>
<path class="fill"
	d="M174.60 437.20c0.6 5.6 9.6 9 5.6 18.4
	1.6 -6 -1.3 -11.6 -5.6 -12.8
"/>
<use x="190.90" y="431.20" xlink:href="#hd"/>
<path d="M187.40 431.20v21.00" class="stroke"/>
<path class="fill"
	d="M187.40 452.20c0.6 -5.6 9.6 -9 5.6 -18.4
	1.6 6 -1.3 11.6 -5.6 12.8
"/>
<use x="220.40" y="458.20" xlink:href="#hd"/>
<path d="M223.90 458.20v-21.00" class="stroke"/>
<path class="fill"
	d="M223.90 437.20c0.6 5.6 9.6 9 5.6 18.4
	1.6 -6 -1.3 -11.6 -5.6 -12.8
"/>
<use x="240.30" y="431.20" xlink:href="#hd"/>
<path d="M236.80 431.20v21.00" class="stroke"/>
<path class="fill"
	d="M236.80 452.20c0.6 -5.6 9.6 -9 5.6 -18.4
	1.6 6 -1.3 11.6 -5.6 12.8
"/>
<use x="259.40" y="428.20" xlink:href="#hl"/>
<use x="259.40" y="425.20" xlink:href="#hd"/>
<path d="M255.90 425.20v21.00" class="stroke"/>
<path class="fill"
	d="M255.90 446.20c0.6 -5.6 9.6 -9 5.6 -18.4
	1.6 6 -1.3 11.6 -5.6 12.8
"/>
<use x="278.70" y="428.20" xlink:href="#hl"/>
<use x="278.70" y="422.20" xlink:href="#hl"/>
<use x="278.70" y="419.20" xlink:href="#hd"/>
<path d="M275.20 419.20v27.00" class="stroke"/>
<path class="fill"
	d="M275.20 446.20c0.6 -5.6 9.6 -9 5.6 -18.4
	1.6 6 -1.3 11.6 -5.6 12.8
"/>
<use x="298.00" y="428.20" xlink:href="#hl"/>
<use x="298.00" y="422.20" xlink:href="#hl"/>
<use x="298.00" y="416.20" xlink:href="#hl"/>
<use x="298.00" y="416.20" xlink:href="#hd"/>
<path d="M294.50 416.20v30.00" class="stroke"/>
<path class="fill"
	d="M294.50 446.20c0.6 -5.6 9.6 -9 5.6 -18.4
	1.6 6 -1.3 11.6 -5.6 12.8
"/>
<use x="317.40" y="428.20" xlink:href="#hl"/>
<use x="317.40" y="422.20" xlink:href="#hl"/>
<use x="317.40" y="416.20" xlink:href="#hl"/>
<use x="317.40" y="410.20" xlink:href="#hl"/>
<use x="317.40" y="410.20" xlink:href="#hd"/>
<path d="M313.90 410.20v36.00" class="stroke"/>
<path class="fill"
	d="M313.90 446.20c0.6 -5.6 9.6 -9 5.6 -18.4
	1.6 6 -1.3 11.6 -5.6 12.8
"/>
<use x="334.70" y="458.20" xlink:href="#hd"/>
<path d="M338.20 458.20v-21.00" class="stroke"/>
<path class="fill"
	d="M338.20 437.20c0.6 5.6 9.6 9 5.6 18.4
	1.6 -6 -1.3 -11.6 -5.6 -12.8
"/>
<use x="354.50" y="431.20" xlink:href="#hd"/>
<path d="M351.00 431.20v21.00" class="stroke"/>
<path class="fill"
	d="M351.00 452.20c0.6 -5.6 9.6 -9 5.6 -18.4
	1.6 6 -1.3 11.6 -5.6 12.8
"/>
<use x="373.70" y="428.20" xlink:href="#hl"/>
<use x="373.70" y="425.20" xlink:href="#hd"/>
<path d="M370.20 425.20v21.00" class="stroke"/>
<path class="fill"
	d="M370.20 446.20c0.6 -5.6 9.6 -9 5.6 -18.4
	1.6 6 -1.3 11.6 -5.6 12.8
"/>
<use x="393.00" y="428.20" xlink:href="#hl"/>
<use x="393.00" y="422.20" xlink:href="#hl"/>
<use x="393.00" y="419.20" xlink:href="#hd"/>
<path d="M389.50 419.20v27.00" class="stroke"/>
<path class="fill"
	d="M389.50 446.20c0.6 -5.6 9.6 -9 5.6 -18.4
	1.6 6 -1.3 11.6 -5.6 12.8
"/>
<use x="419.50" y="458.20" xlink:href="#hd"/>
<path d="M423.00 458.20v-21.00" class="stroke"/>
<path class="fill"
	d="M423.00 437.20c0.6 5.6 9.6 9 5.6 18.4
	1.6 -6 -1.3 -11.6 -5.6 -12.8
"/>
<use x="439.30" y="431.20" xlink:href="#hd"/>
<path d="M435.80 431.20v21.00" class="stroke"/>
<path class="fill"
	d="M435.80 452.20c0.6 -5.6 9.6 -9 5.6 -18.4
	1.6 6 -1.3 11.6 -5.6 12.8
"/>
<use x="458.50" y="428.20" xlink:href="#hl"/>
<use x="458.50" y="425.20" xlink:href="#hd"/>
<path d="M455.00 425.20v21.00" class="stroke"/>
<path class="fill"
	d="M455.00 446.20c0.6 -5.6 9.6 -9 5.6 -18.4
	1.6 6 -1.3 11.6 -5.6 12.8
"/>
<use x="478.10" y="428.20" xlink:href="#hl"/>
<use x="478.10" y="422.20" xlink:href="#hl"/>
<use x="478.10" y="419.20" xlink:href="#hd"/>
<path d="M474.60 419.20v27.00" class="stroke"/>
<path class="fill"
	d="M474.60 446.20c0.6 -5.6 9.6 -9 5.6 -18.4
	1.6 6 -1.3 11.6 -5.6 12.8
"/>
<use x="497.70" y="428.20" xlink:href="#hl"/>
<use x="497.70" y="422.20" xlink:href="#hl"/>
<use x="497.70" y="416.20" xlink:href="#hl"/>
<use x="497.70" y="416.20" xlink:href="#hd"/>
<path d="M494.20 416.20v30.00" class="stroke"/>
<path class="fill"
	d="M494.20 446.20c0.6 -5.6 9.6 -9 5.6 -18.4
	1.6 6 -1.3 11.6 -5.6 12.8
"/>
<use x="517.00" y="428.20" xlink:href="#hl"/>
<use x="517.00" y="422.20" xlink:href="#hl"/>
<use x="517.00" y="416.20" xlink:href="#hl"/>
<use x="517.00" y="410.20" xlink:href="#hl"/>
<use x="517.00" y="410.20" xlink:href="#hd"/>
<path d="M513.50 410.20v36.00" class="stroke"/>
<path class="fill"
	d="M513.50 446.20c0.6 -5.6 9.6 -9 5.6 -18.4
	1.6 6 -1.3 11.6 -5.6 12.8
"/>
<use x="543.50" y="458.20" xlink:href="#hd"/>
<path d="M547.00 458.20v-21.00" class="stroke"/>
<path class="fill"
	d="M547.00 437.20c0.6 5.6 9.6 9 5.6 18.4
	1.6 -6 -1.3 -11.6 -5.6 -12.8
"/>
<use x="563.30" y="431.20" xlink:href="#hd"/>
<path d="M559.80 431.20v21.00" class="stroke"/>
<path class="fill"
	d="M559.80 452.20c0.6 -5.6 9.6 -9 5.6 -18.4
	1.6 6 -1.3 11.6 -5.6 12.8
"/>
<use x="582.50" y="428.20" xlink:href="#hl"/>
<use x="582.50" y="425.20" xlink:href="#hd"/>
<path d="M579.00 425.20v21.00" class="stroke"/>
<path class="fill"
	d="M579.00 446.20c0.6 -5.6 9.6 -9 5.6 -18.4
	1.6 6 -1.3 11.6 -5.6 12.8
"/>
<use x="601.80" y="428.20" xlink:href="#hl"/>
<use x="601.80" y="422.20" xlink:href="#hl"/>
<use x="601.80" y="419.20" xlink:href="#hd"/>
<path d="M598.30 419.20v27.00" class="stroke"/>
<path class="fill"
	d="M598.30 446.20c0.6 -5.6 9.6 -9 5.6 -18.4
	1.6 6 -1.3 11.6 -5.6 12.8
"/>
<use x="621.10" y="428.20" xlink:href="#hl"/>
<use x="621.10" y="422.20" xlink:href="#hl"/>
<use x="621.10" y="416.20" xlink:href="#hl"/>
<use x="621.10" y="416.20" xlink:href="#hd"/>
<path d="M617.60 416.20v30.00" class="stroke"/>
<path class="fill"
	d="M617.60 446.20c0.6 -5.6 9.6 -9 5.6 -18.4
	1.6 6 -1.3 11.6 -5.6 12.8
"/>
<use x="640.40" y="428.20" xlink:href="#hl"/>
<use x="640.40" y="422.20" xlink:href="#hl"/>
<use x="640.40" y="416.20" xlink:href="#hl"/>
<use x="640.40" y="410.20" xlink:href="#hl"/>
<use x="640.40" y="410.20" xlink:href="#hd"/>
<path d="M636.90 410.20v36.00" class="stroke"/>
<path class="fill"
	d="M636.90 446.20c0.6 -5.6 9.6 -9 5.6 -18.4
	1.6 6 -1.3 11.6 -5.6 12.8
"/>
<use x="657.80" y="458.20" xlink:href="#hd"/>
<path d="M661.30 458.20v-21.00" class="stroke"/>
<path class="fill"
	d="M661.30 437.20c0.6 5.6 9.6 9 5.6 18.4
	1.6 -6 -1.3 -11.6 -5.6 -12.8
"/>
<use x="677.60" y="431.20" xlink:href="#hd"/>
<path d="M674.10 431.20v21.00" class="stroke"/>
<path class="fill"
	d="M674.10 452.20c0.6 -5.6 9.6 -9 5.6 -18.4
	1.6 6 -1.3 11.6 -5.6 12.8
"/>
</g>
<g stroke-width="0.70" style="font:italic 11.00px Times">
<path class="stroke" stroke-width="1"
	d="M10.00 599.60v-82.00"/>
<g transform="translate(10.00,517.60) scale(1,0.82)">
	<use xlink:href="#brace"/>
</g>
<path class="stroke" stroke-width="1"
	d="M236.90 541.60v-24.00"/>
<path class="stroke" stroke-width="1"
	d="M236.90 599.60v-24.00"/>
<path class="stroke" stroke-width="1"
	d="M400.00 541.60v-24.00"/>
<path class="stroke" stroke-width="1"
	d="M400.00 599.60v-24.00"/>
<path class="stroke" stroke-width="1"
	d="M594.50 541.60v-24.00"/>
<path class="stroke" stroke-width="1"
	d="M594.50 599.60v-24.00"/>
<path class="stroke" stroke-width="1"
	d="M691.60 541.60v-24.00"/>
<path class="stroke" stroke-width="1"
	d="M691.60 599.60v-24.00"/>
<path d="m10.00 541.60
	h681.60
	M10.00 535.60
	h681.60
	M10.00 529.60
	h681.60
	M10.00 523.60
	h681.60
	M10.00 517.60
	h681.60
	" class="stroke"/>
<path d="m10.00 599.60
	h681.60
	M10.00 593.60
	h681.60
	M10.00 587.60
	h681.60
	M10.00 581.60
	h681.60
	M10.00 575.60
	h681.60
	" class="stroke"/>
</g>
<g stroke-width="0.70" style="font:bold 13.00px Times">
<text x="47.30" y="508.00">I<tspan
	 style="font:italic 11.00px Times">Δ⁷¹</tspan></text>
</g>
<g stroke-width="0.70" style="font:bold 13.00px Times">
<text x="253.90" y="495.00">ii<tspan
	 style="font:italic 11.00px Times">m⁷</tspan></text>
</g>
<g stroke-width="0.70" style="font:bold 13.00px Times">
<text x="404.90" y="508.00">I<tspan
	 style="font:italic 11.00px Times">Δ⁷¹</tspan></text>
</g>
<g stroke-width="0.70" style="font:bold 13.00px Times">
<text x="611.50" y="495.00">vi<tspan
	 style="font:italic 11.00px Times">m⁷</tspan></text>
</g>
<g stroke-width="0.70" style="font:italic 11.00px Times">
<use x="22.00" y="535.60" xlink:href="#tclef"/>
<use x="37.00" y="517.60" xlink:href="#sh0"/>
<use x="55.00" y="535.60" xlink:href="#hd"/>
<path d="M58.50 535.60v-21.00" class="stroke"/>
<path class="fill"
	d="M58.50 514.60c0.6 5.6 9.6 9 5.6 18.4
	1.6 -6 -1.3 -11.6 -5.6 -12.8
"/>
<use x="79.10" y="538.60" xlink:href="#hd"/>
<path d="M82.60 538.60v-21.00" class="stroke"/>
<path class="fill"
	d="M82.60 517.60c0.6 5.6 9.6 9 5.6 18.4
	1.6 -6 -1.3 -11.6 -5.6 -12.8
"/>
<use x="103.00" y="541.60" xlink:href="#hd"/>
<path d="M106.50 541.60v-21.00" class="stroke"/>
<use x="150.60" y="541.60" xlink:href="#hd"/>
<path d="M154.10 541.60v-21.00" class="stroke"/>
<use x="195.80" y="541.60" xlink:href="#hd"/>
<path d="M199.30 541.60v-21.00" class="stroke"/>
<path class="fill"
	d="M199.30 520.60c0.6 5.6 9.6 9 5.6 18.4
	1.6 -6 -1.3 -11.6 -5.6 -12.8
"/>
<use x="219.80" y="544.60" xlink:href="#hd"/>
<path d="M223.30 544.60v-21.00" class="stroke"/>
<path class="fill"
	d="M223.30 523.60c0.6 5.6 9.6 9 5.6 18.4
	1.6 -6 -1.3 -11.6 -5.6 -12.8
"/>
<use x="261.90" y="541.60" xlink:href="#hd"/>
<path d="M265.40 541.60v-40.00" class="stroke"/>
<path class="fill"
	d="M265.40 501.60c0.6 5.6 9.6 9 5.6 18.4
	1.6 -6 -1.3 -11.6 -5.6 -12.8
"/>
<use x="261.90" y="520.60" xlink:href="#hd"/>
<use x="286.00" y="517.60" xlink:href="#hd"/>
<path d="M282.50 517.60v40.00" class="stroke"/>
<path class="fill"
	d="M282.50 557.60c0.6 -5.6 9.6 -9 5.6 -18.4
	1.6 6 -1.3 11.6 -5.6 12.8
"/>
<use x="286.00" y="538.60" xlink:href="#hd"/>
<use x="309.70" y="514.60" xlink:href="#hd"/>
<path d="M306.20 514.60v40.00" class="stroke"/>
<use x="309.70" y="535.60" xlink:href="#hd"/>
<use x="343.00" y="514.60" xlink:href="#hd"/>
<path d="M339.50 514.60v40.00" class="stroke"/>
<use x="343.00" y="535.60" xlink:href="#hd"/>
<use x="376.40" y="511.60" xlink:href="#hl"/>
<use x="376.40" y="511.60" xlink:href="#hd"/>
<path d="M372.90 511.60v40.00" class="stroke"/>
<use x="376.40" y="532.60" xlink:href="#hd"/>
<use x="412.50" y="535.60" xlink:href="#hd"/>
<path d="M416.00 535.60v-21.00" class="stroke"/>
<path class="fill"
	d="M416.00 514.60c0.6 5.6 9.6 9 5.6 18.4
	1.6 -6 -1.3 -11.6 -5.6 -12.8
"/>
<use x="436.60" y="532.60" xlink:href="#hd"/>
<path d="M440.10 532.60v-21.00" class="stroke"/>
<path class="fill"
	d="M440.10 511.60c0.6 5.6 9.6 9 5.6 18.4
	1.6 -6 -1.3 -11.6 -5.6 -12.8
"/>
<use x="460.50" y="529.60" xlink:href="#hd"/>
<path d="M464.00 529.60v-21.00" class="stroke"/>
<use x="508.10" y="529.60" xlink:href="#hd"/>
<path d="M511.60 529.60v-21.00" class="stroke"/>
<use x="553.30" y="532.60" xlink:href="#hd"/>
<path d="M556.80 532.60v-21.00" class="stroke"/>
<path class="fill"
	d="M556.80 511.60c0.6 5.6 9.6 9 5.6 18.4
	1.6 -6 -1.3 -11.6 -5.6 -12.8
"/>
<use x="577.40" y="535.60" xlink:href="#hd"/>
<path d="M580.90 535.60v-21.00" class="stroke"/>
<path class="fill"
	d="M580.90 514.60c0.6 5.6 9.6 9 5.6 18.4
	1.6 -6 -1.3 -11.6 -5.6 -12.8
"/>
<use x="619.50" y="541.60" xlink:href="#hd"/>
<path d="M623.00 541.60v-40.00" class="stroke"/>
<use x="619.50" y="520.60" xlink:href="#hd"/>
<use x="653.50" y="541.60" xlink:href="#Hd"/>
<circle class="fill" cx="662.20" cy="538.60" r="1.2"/>
<path d="M657.00 541.60v-40.00" class="stroke"/>
<use x="653.50" y="520.60" xlink:href="#Hd"/>
<circle class="fill" cx="662.20" cy="520.60" r="1.2"/>
<use x="22.00" y="581.60" xlink:href="#bclef"/>
<use x="37.00" y="581.60" xlink:href="#sh0"/>
<use x="55.00" y="599.60" xlink:href="#hd"/>
<path d="M58.50 599.60v-21.00" class="stroke"/>
<path class="fill"
	d="M58.50 578.60c0.6 5.6 9.6 9 5.6 18.4
	1.6 -6 -1.3 -11.6 -5.6 -12.8
"/>
<use x="79.10" y="572.60" xlink:href="#hd"/>
<path d="M75.60 572.60v21.00" class="stroke"/>
<path class="fill"
	d="M75.60 593.60c0.6 -5.6 9.6 -9 5.6 -18.4
	1.6 6 -1.3 11.6 -5.6 12.8
"/>
<use x="103.00" y="569.60" xlink:href="#hl"/>
<use x="103.00" y="566.60" xlink:href="#hd"/>
<path d="M99.50 566.60v21.00" class="stroke"/>
<path class="fill"
	d="M99.50 587.60c0.6 -5.6 9.6 -9 5.6 -18.4
	1.6 6 -1.3 11.6 -5.6 12.8
"/>
<use x="126.80" y="569.60" xlink:href="#hl"/>
<use x="126.80" y="563.60" xlink:href="#hl"/>
<use x="126.80" y="560.60" xlink:href="#hd"/>
<path d="M123.30 560.60v27.00" class="stroke"/>
<path class="fill"
	d="M123.30 587.60c0.6 -5.6 9.6 -9 5.6 -18.4
	1.6 6 -1.3 11.6 -5.6 12.8
"/>
<use x="150.60" y="569.60" xlink:href="#hl"/>
<use x="150.60" y="563.60" xlink:href="#hl"/>
<use x="150.60" y="557.60" xlink:href="#hl"/>
<use x="150.60" y="557.60" xlink:href="#hd"/>
<path d="M147.10 557.60v30.00" class="stroke"/>
<path class="fill"
	d="M147.10 587.60c0.6 -5.6 9.6 -9 5.6 -18.4
	1.6 6 -1.3 11.6 -5.6 12.8
"/>
<use x="174.40" y="569.60" xlink:href="#hl"/>
<use x="174.40" y="563.60" xlink:href="#hl"/>
<use x="174.40" y="557.60" xlink:href="#hl"/>
<use x="174.40" y="551.60" xlink:href="#hl"/>
<use x="174.40" y="551.60" xlink:href="#hd"/>
<path d="M170.90 551.60v36.00" class="stroke"/>
<path class="fill"
	d="M170.90 587.60c0.6 -5.6 9.6 -9 5.6 -18.4
	1.6 6 -1.3 11.6 -5.6 12.8
"/>
<use x="195.80" y="599.60" xlink:href="#hd"/>
<path d="M199.30 599.60v-21.00" class="stroke"/>
<path class="fill"
	d="M199.30 578.60c0.6 5.6 9.6 9 5.6 18.4
	1.6 -6 -1.3 -11.6 -5.6 -12.8
"/>
<use x="219.80" y="572.60" xlink:href="#hd"/>
<path d="M216.30 572.60v21.00" class="stroke"/>
<path class="fill"
	d="M216.30 593.60c0.6 -5.6 9.6 -9 5.6 -18.4
	1.6 6 -1.3 11.6 -5.6 12.8
"/>
<use x="262.90" y="578.60" xlink:href="#HD"/>
<use x="262.90" y="596.60" xlink:href="#HD"/>
<use x="262.90" y="590.60" xlink:href="#HD"/>
<use x="262.90" y="584.60" xlink:href="#HD"/>
<use x="412.50" y="605.60" xlink:href="#hl"/>
<use x="412.50" y="611.60" xlink:href="#hl"/>
<use x="412.50" y="617.60" xlink:href="#hl"/>
<use x="412.50" y="620.60" xlink:href="#hd"/>
<path d="M416.00 620.60v-40.00" class="stroke"/>
<path class="fill"
	d="M416.00 580.60c0.6 5.6 9.6 9 5.6 18.4
	1.6 -6 -1.3 -11.6 -5.6 -12.8
"/>
<use x="412.50" y="599.60" xlink:href="#hd"/>
<use x="436.60" y="572.60" xlink:href="#hd"/>
<path d="M433.10 572.60v21.00" class="stroke"/>
<path class="fill"
	d="M433.10 593.60c0.6 -5.6 9.6 -9 5.6 -18.4
	1.6 6 -1.3 11.6 -5.6 12.8
"/>
<use x="460.50" y="569.60" xlink:href="#hl"/>
<use x="460.50" y="566.60" xlink:href="#hd"/>
<path d="M457.00 566.60v21.00" class="stroke"/>
<path class="fill"
	d="M457.00 587.60c0.6 -5.6 9.6 -9 5.6 -18.4
	1.6 6 -1.3 11.6 -5.6 12.8
"/>
<use x="484.30" y="569.60" xlink:href="#hl"/>
<use x="484.30" y="563.60" xlink:href="#hl"/>
<use x="484.30" y="560.60" xlink:href="#hd"/>
<path d="M480.80 560.60v27.00" class="stroke"/>
<path class="fill"
	d="M480.80 587.60c0.6 -5.6 9.6 -9 5.6 -18.4
	1.6 6 -1.3 11.6 -5.6 12.8
"/>
<use x="508.10" y="569.60" xlink:href="#hl"/>
<use x="508.10" y="563.60" xlink:href="#hl"/>
<use x="508.10" y="557.60" xlink:href="#hl"/>
<use x="508.10" y="557.60" xlink:href="#hd"/>
<path d="M504.60 557.60v30.00" class="stroke"/>
<path class="fill"
	d="M504.60 587.60c0.6 -5.6 9.6 -9 5.6 -18.4
	1.6 6 -1.3 11.6 -5.6 12.8
"/>
<use x="531.90" y="569.60" xlink:href="#hl"/>
<use x="531.90" y="563.60" xlink:href="#hl"/>
<use x="531.90" y="557.60" xlink:href="#hl"/>
<use x="531.90" y="551.60" xlink:href="#hl"/>
<use x="531.90" y="551.60" xlink:href="#hd"/>
<path d="M528.40 551.60v36.00" class="stroke"/>
<path class="fill"
	d="M528.40 587.60c0.6 -5.6 9.6 -9 5.6 -18.4
	1.6 6 -1.3 11.6 -5.6 12.8
"/>
<use x="553.30" y="599.60" xlink:href="#hd"/>
<path d="M556.80 599.60v-21.00" class="stroke"/>
<path class="fill"
	d="M556.80 578.60c0.6 5.6 9.6 9 5.6 18.4
	1.6 -6 -1.3 -11.6 -5.6 -12.8
"/>
<use x="577.40" y="572.60" xlink:href="#hd"/>
<path d="M573.90 572.60v21.00" class="stroke"/>
<path class="fill"
	d="M573.90 593.60c0.6 -5.6 9.6 -9 5.6 -18.4
	1.6 6 -1.3 11.6 -5.6 12.8
"/>
<use x="620.50" y="605.60" xlink:href="#hl1"/>
<use x="620.50" y="569.60" xlink:href="#hl1"/>
<use x="620.50" y="566.60" xlink:href="#HD"/>
<use x="620.50" y="605.60" xlink:href="#HD"/>
<use x="620.50" y="584.60" xlink:href="#HD"/>
<use x="620.50" y="578.60" xlink:href="#HD"/>
<use x="620.50" y="572.60" xlink:href="#HD"/>
<g transform="rotate(270)">
<use x="-599.60" y="249.40" xlink:href="#ltr"/>
<use x="-593.60" y="249.40" xlink:href="#ltr"/>
<use x="-587.60" y="249.40" xlink:href="#ltr"/>
<use x="-581.60" y="249.40" xlink:href="#ltr"/>
</g>
<text x="405.00" y="508.60" style="font:bold italic 30px serif">,</text>
<defs>
<g id="hld" class="fill">
	<circle cx="0" cy="-3" r="1.3"/>
	<path d="m-7.5 -1.5
		c0 -11.5 15 -11.5 15 0
		h-0.25
		c-1.25 -9 -13.25 -9 -14.5 0"/>
</g>
</defs>
<use x="619.50" y="560.60" xlink:href="#hld"/>
<g transform="rotate(270)">
<use x="-608.60" y="607.00" xlink:href="#ltr"/>
<use x="-602.60" y="607.00" xlink:href="#ltr"/>
<use x="-596.60" y="607.00" xlink:href="#ltr"/>
<use x="-590.60" y="607.00" xlink:href="#ltr"/>
<use x="-584.60" y="607.00" xlink:href="#ltr"/>
<use x="-578.60" y="607.00" xlink:href="#ltr"/>
<use x="-572.60" y="607.00" xlink:href="#ltr"/>
<use x="-566.60" y="607.00" xlink:href="#ltr"/>
</g>
<use x="653.50" y="497.60" xlink:href="#hld"/>
<g transform="rotate(270)">
<use x="-544.60" y="643.50" xlink:href="#ltr"/>
<use x="-538.60" y="643.50" xlink:href="#ltr"/>
<use x="-532.60" y="643.50" xlink:href="#ltr"/>
<use x="-526.60" y="643.50" xlink:href="#ltr"/>
<use x="-520.60" y="643.50" xlink:href="#ltr"/>
</g>
</g>
</svg>
