<?xml version="1.0" standalone="no"?>
<!DOCTYPE svg PUBLIC "-//W3C//DTD SVG 1.1//EN"
	"http://www.w3.org/Graphics/SVG/1.1/DTD/svg11.dtd">
<svg xmlns="http://www.w3.org/2000/svg" version="1.1"
	xmlns:xlink="http://www.w3.org/1999/xlink"
	color="black"
	width="701.60px" height="646.80px" viewBox="0 0 701.60 646.80" preserveAspectRatio="xMidYMid meet">
<style type="text/css">
.fill {fill: currentColor}
.stroke {stroke: currentColor; fill: none}
text{white-space: pre}
</style>
<title>/tmp/boddie_hymnal_stage/what_child_is_this.abc (1) tune 1</title>
<!-- Creator: abcm2ps-8.14.11 -->
<!-- CreationDate: Apr 30, 2026 12:59 -->
<!-- CommandLine: /tmp/boddie_hymnal_stage/what_child_is_this.abc -g -O /tmp/boddie_hymnal_stage/what_child_is_this -->
<g stroke-width="0.70">
<!-- title: 269. What Child Is This? -->
</g>
<g stroke-width="0.70" style="font:20.00px Times">
<text x="350.80" y="22.00" text-anchor="middle">269. What Child Is This?</text>
</g>
<g stroke-width="0.70" transform="scale(0.700)" style="font:20.00px Times">
<defs>
<ellipse id="hd" rx="4.1" ry="2.9"
	transform="rotate(-20)" class="fill"/>
</defs>
<use x="102.29" y="75.57" xlink:href="#hd"/>
<path d="M105.79 75.57v-21.00" class="stroke"/>
</g>
<g stroke-width="0.70" style="font:bold 15.00px Times">
<text x="79.30" y="55.00">= 72Slowly, with great expression</text>
<path class="stroke" stroke-width="1"
	d="M10.00 183.40v-105.00"/>
<defs>
<path id="brace" class="fill" d="m-2.5 101
	c-4.5 -4.6 -7.5 -12.2 -4.4 -26.8
	3.5 -14.3 3.2 -21.7 -2.1 -24.2
	7.4 2.4 7.3 14.2 3.5 29.5
	-2.7 9.5 -1.5 16.2 3 21.5
	M-2.5 1c-4.5 4.6 -7.5 12.2 -4.4 26.8
	c3.5 14.3 3.2 21.7 -2.1 24.2
	7.4 -2.4 7.3 -14.2 3.5 -29.5
	-2.7 -9.5 -1.5 -16.2 3 -21.5"/>
</defs>
<g transform="translate(10.00,78.40) scale(1,1.05)">
	<use xlink:href="#brace"/>
</g>
<path class="stroke" stroke-width="1"
	d="M191.20 102.40v-24.00"/>
<path class="stroke" stroke-width="1"
	d="M191.20 183.40v-24.00"/>
<path class="stroke" stroke-width="1"
	d="M326.40 102.40v-24.00"/>
<path class="stroke" stroke-width="1"
	d="M326.40 183.40v-24.00"/>
<path class="stroke" stroke-width="1"
	d="M449.40 102.40v-24.00"/>
<path class="stroke" stroke-width="1"
	d="M449.40 183.40v-24.00"/>
<path class="stroke" stroke-width="1"
	d="M569.60 102.40v-24.00"/>
<path class="stroke" stroke-width="1"
	d="M569.60 183.40v-24.00"/>
<path class="stroke" stroke-width="1"
	d="M691.60 102.40v-24.00"/>
<path class="stroke" stroke-width="1"
	d="M691.60 183.40v-24.00"/>
<path d="m10.00 102.40
	h681.60
	M10.00 96.40
	h681.60
	M10.00 90.40
	h681.60
	M10.00 84.40
	h681.60
	M10.00 78.40
	h681.60
	" class="stroke"/>
<path d="m10.00 183.40
	h681.60
	M10.00 177.40
	h681.60
	M10.00 171.40
	h681.60
	M10.00 165.40
	h681.60
	M10.00 159.40
	h681.60
	" class="stroke"/>
</g>
<g stroke-width="0.70" style="font:bold 13.00px Times">
<text x="63.00" y="68.80">vi<tspan
	 style="font:italic 11.00px Times">m⁷</tspan></text>
</g>
<g stroke-width="0.70" style="font:bold 13.00px Times">
<text x="197.90" y="71.80">I<tspan
	 style="font:italic 11.00px Times">Δ⁷</tspan></text>
</g>
<g stroke-width="0.70" style="font:bold 13.00px Times">
<text x="342.40" y="66.80">vi<tspan
	 style="font:italic 11.00px Times">m⁷</tspan></text>
</g>
<g stroke-width="0.70" style="font:bold 13.00px Times">
<text x="453.90" y="71.80">iii<tspan
	 style="font:italic 11.00px Times">m⁷</tspan></text>
</g>
<g stroke-width="0.70" style="font:bold 13.00px Times">
<text x="585.60" y="55.80">vi<tspan
	 style="font:italic 11.00px Times">m⁷</tspan></text>
</g>
<g stroke-width="0.70" style="font:italic 11.00px Times">
<defs>
<path id="utclef" class="fill" d="m-50 -90
	c-72 -41 -72 -158 52 -188
	150 -10 220 188 90 256
	-114 52 -275 0 -293 -136
	-15 -181 93 -229 220 -334
	88 -87 79 -133 62 -210
	-51 33 -94 105 -89 186
	17 267 36 374 49 574
	6 96 -19 134 -77 135
	-80 1 -126 -93 -61 -133
	85 -41 133 101 31 105
	23 17 92 37 90 -92
	-10 -223 -39 -342 -50 -617
	0 -90 0 -162 96 -232
	56 72 63 230 22 289
	-74 106 -257 168 -255 316
	9 153 148 185 252 133
	86 -65 29 -192 -80 -176
	-71 12 -105 67 -59 124"/>
<use id="tclef" transform="translate(0,6) scale(0.045)"
	xlink:href="#utclef"/>
</defs>
<use x="22.00" y="96.40" xlink:href="#tclef"/>
<defs>
<path id="usharp" class="fill" d="
	m136 -702
	v890
	h32
	v-890
	m128 840
	h32
	v-888
	h-32
	m-232 286
	v116
	l338 -96
	v-116
	m-338 442
	v116
	l338 -98
	v-114"/>
<use id="sh0" transform="translate(-4,5) scale(0.018)"
	xlink:href="#usharp"/>
</defs>
<use x="37.00" y="78.40" xlink:href="#sh0"/>
<g style="font:bold 16px serif"
	transform="translate(53.00,101.90) scale(1.2,1)">
	<text text-anchor="middle">4</text>
	<text y="-12" text-anchor="middle">3</text>
</g>
<use x="71.00" y="102.40" xlink:href="#hd"/>
<path d="M74.50 102.40v-21.00" class="stroke"/>
<path class="fill"
	d="M74.50 81.40c0.6 5.6 9.6 9 5.6 18.4
	1.6 -6 -1.3 -11.6 -5.6 -12.8
"/>
<use x="90.70" y="96.40" xlink:href="#hd"/>
<path d="M94.20 96.40v-21.00" class="stroke"/>
<use x="127.70" y="93.40" xlink:href="#hd"/>
<path d="M131.20 93.40v-21.00" class="stroke"/>
<path class="fill"
	d="M131.20 72.40c0.6 5.6 9.6 9 5.6 18.4
	1.6 -6 -1.3 -11.6 -5.6 -12.8
"/>
<use x="146.80" y="90.40" xlink:href="#hd"/>
<circle class="fill" cx="154.50" cy="87.40" r="1.2"/>
<path d="M150.30 90.40v-21.00" class="stroke"/>
<path class="fill"
	d="M150.30 69.40c0.6 5.6 9.6 9 5.6 18.4
	1.6 -6 -1.3 -11.6 -5.6 -12.8
"/>
<use x="178.70" y="87.40" xlink:href="#hd"/>
<path d="M175.20 87.40v23.00" class="stroke"/>
<path class="fill"
	d="M175.20 110.40c0.9 -3.7 9.1 -6.4 6 -12.4
	1 5.4 -4.2 8.4 -6 8.4
M175.20 105.00c0.9 -3.7 9.1 -6.4 6 -12.4
	1 5.4 -4.2 8.4 -6 8.4
"/>
<use x="203.70" y="90.40" xlink:href="#hd"/>
<path d="M200.20 90.40v21.00" class="stroke"/>
<path class="fill"
	d="M200.20 111.40c0.6 -5.6 9.6 -9 5.6 -18.4
	1.6 6 -1.3 11.6 -5.6 12.8
"/>
<use x="223.30" y="93.40" xlink:href="#hd"/>
<path d="M226.80 93.40v-21.00" class="stroke"/>
<use x="260.10" y="99.40" xlink:href="#hd"/>
<path d="M263.60 99.40v-21.00" class="stroke"/>
<path class="fill"
	d="M263.60 78.40c0.6 5.6 9.6 9 5.6 18.4
	1.6 -6 -1.3 -11.6 -5.6 -12.8
"/>
<use x="279.20" y="105.40" xlink:href="#hd"/>
<circle class="fill" cx="286.90" cy="105.40" r="1.2"/>
<path d="M282.70 105.40v-21.00" class="stroke"/>
<path class="fill"
	d="M282.70 84.40c0.6 5.6 9.6 9 5.6 18.4
	1.6 -6 -1.3 -11.6 -5.6 -12.8
"/>
<use x="309.40" y="102.40" xlink:href="#hd"/>
<path d="M312.90 102.40v-22.00" class="stroke"/>
<path class="fill"
	d="M312.90 80.40c0.9 3.7 9.1 6.4 6 12.4
	1 -5.4 -4.2 -8.4 -6 -8.4
M312.90 85.80c0.9 3.7 9.1 6.4 6 12.4
	1 -5.4 -4.2 -8.4 -6 -8.4
"/>
<use x="350.40" y="78.40" xlink:href="#hd"/>
<path d="M346.90 78.40v40.00" class="stroke"/>
<path class="fill"
	d="M346.90 118.40c0.6 -5.6 9.6 -9 5.6 -18.4
	1.6 6 -1.3 11.6 -5.6 12.8
"/>
<use x="350.40" y="99.40" xlink:href="#hd"/>
<use x="368.60" y="75.40" xlink:href="#hd"/>
<path d="M365.10 75.40v40.00" class="stroke"/>
<use x="368.60" y="96.40" xlink:href="#hd"/>
<use x="391.20" y="102.40" xlink:href="#hd"/>
<path d="M394.70 102.40v-40.00" class="stroke"/>
<path class="fill"
	d="M394.70 62.40c0.6 5.6 9.6 9 5.6 18.4
	1.6 -6 -1.3 -11.6 -5.6 -12.8
"/>
<use x="391.20" y="81.40" xlink:href="#hd"/>
<use x="410.30" y="102.40" xlink:href="#hd"/>
<circle class="fill" cx="418.00" cy="99.40" r="1.2"/>
<path d="M413.80 102.40v-40.00" class="stroke"/>
<path class="fill"
	d="M413.80 62.40c0.6 5.6 9.6 9 5.6 18.4
	1.6 -6 -1.3 -11.6 -5.6 -12.8
"/>
<use x="410.30" y="81.40" xlink:href="#hd"/>
<circle class="fill" cx="418.00" cy="81.40" r="1.2"/>
<use x="432.40" y="105.40" xlink:href="#hd"/>
<path d="M435.90 105.40v-41.00" class="stroke"/>
<path class="fill"
	d="M435.90 64.40c0.9 3.7 9.1 6.4 6 12.4
	1 -5.4 -4.2 -8.4 -6 -8.4
M435.90 69.80c0.9 3.7 9.1 6.4 6 12.4
	1 -5.4 -4.2 -8.4 -6 -8.4
"/>
<use x="432.40" y="84.40" xlink:href="#hd"/>
<use x="461.90" y="102.40" xlink:href="#hd"/>
<path d="M465.40 102.40v-21.00" class="stroke"/>
<path class="fill"
	d="M465.40 81.40c0.6 5.6 9.6 9 5.6 18.4
	1.6 -6 -1.3 -11.6 -5.6 -12.8
"/>
<use x="481.50" y="99.40" xlink:href="#hd"/>
<circle class="fill" cx="489.20" cy="99.40" r="1.2"/>
<path d="M485.00 99.40v-21.00" class="stroke"/>
<defs>
<path id="hl" class="stroke" d="m-6 0h12"/>
</defs>
<use x="537.10" y="108.40" xlink:href="#hl"/>
<use x="537.10" y="111.40" xlink:href="#hd"/>
<path d="M540.60 111.40v-21.00" class="stroke"/>
<use x="593.60" y="102.40" xlink:href="#hd"/>
<path d="M597.10 102.40v-40.00" class="stroke"/>
<path class="fill"
	d="M597.10 62.40c0.6 5.6 9.6 9 5.6 18.4
	1.6 -6 -1.3 -11.6 -5.6 -12.8
"/>
<use x="593.60" y="81.40" xlink:href="#hd"/>
<use x="613.30" y="75.40" xlink:href="#hd"/>
<path d="M609.80 75.40v40.00" class="stroke"/>
<use x="613.30" y="96.40" xlink:href="#hd"/>
<use x="638.30" y="72.40" xlink:href="#hl"/>
<use x="638.30" y="72.40" xlink:href="#hd"/>
<path d="M634.80 72.40v40.00" class="stroke"/>
<path class="fill"
	d="M634.80 112.40c0.6 -5.6 9.6 -9 5.6 -18.4
	1.6 6 -1.3 11.6 -5.6 12.8
"/>
<use x="638.30" y="93.40" xlink:href="#hd"/>
<use x="656.80" y="72.40" xlink:href="#hl"/>
<use x="656.80" y="69.40" xlink:href="#hd"/>
<circle class="fill" cx="664.50" cy="69.40" r="1.2"/>
<path d="M653.30 69.40v40.00" class="stroke"/>
<path class="fill"
	d="M653.30 109.40c0.6 -5.6 9.6 -9 5.6 -18.4
	1.6 6 -1.3 11.6 -5.6 12.8
"/>
<use x="656.80" y="90.40" xlink:href="#hd"/>
<circle class="fill" cx="664.50" cy="87.40" r="1.2"/>
<use x="679.10" y="72.40" xlink:href="#hl"/>
<use x="679.10" y="66.40" xlink:href="#hl"/>
<use x="679.10" y="66.40" xlink:href="#hd"/>
<path d="M675.60 66.40v42.00" class="stroke"/>
<path class="fill"
	d="M675.60 108.40c0.9 -3.7 9.1 -6.4 6 -12.4
	1 5.4 -4.2 8.4 -6 8.4
M675.60 103.00c0.9 -3.7 9.1 -6.4 6 -12.4
	1 5.4 -4.2 8.4 -6 8.4
"/>
<use x="679.10" y="87.40" xlink:href="#hd"/>
<defs>
<path id="ubclef" class="fill" d="m-200 -87
	c124 -35 222 -78 254 -236
	43 -228 -167 -246 -192 -103
	59 -80 157 22 92 78
	-62 47 -115 -22 -106 -88
	21 -141 270 -136 274 52
	-1 175 -106 264 -322 297
	m357 -250
	c0 -36 51 -34 51 0
	0 37 -51 36 -51 0
	m-2 -129
	c0 -36 51 -34 51 0
	0 38 -51 37 -51 0"/>
<use id="bclef" transform="translate(0,18) scale(0.045)"
	xlink:href="#ubclef"/>
</defs>
<use x="22.00" y="165.40" xlink:href="#bclef"/>
<use x="37.00" y="165.40" xlink:href="#sh0"/>
<g style="font:bold 16px serif"
	transform="translate(53.00,182.90) scale(1.2,1)">
	<text text-anchor="middle">4</text>
	<text y="-12" text-anchor="middle">3</text>
</g>
<use x="71.00" y="189.40" xlink:href="#hl"/>
<use x="71.00" y="189.40" xlink:href="#hd"/>
<path d="M74.50 189.40v-40.00" class="stroke"/>
<path class="fill"
	d="M74.50 149.40c0.6 5.6 9.6 9 5.6 18.4
	1.6 -6 -1.3 -11.6 -5.6 -12.8
"/>
<use x="71.00" y="168.40" xlink:href="#hd"/>
<use x="90.70" y="153.40" xlink:href="#hl"/>
<use x="90.70" y="147.40" xlink:href="#hl"/>
<use x="90.70" y="141.40" xlink:href="#hl"/>
<use x="90.70" y="141.40" xlink:href="#hd"/>
<path d="M87.20 141.40v30.00" class="stroke"/>
<path class="fill"
	d="M87.20 171.40c0.6 -5.6 9.6 -9 5.6 -18.4
	1.6 6 -1.3 11.6 -5.6 12.8
"/>
<use x="109.20" y="153.40" xlink:href="#hl"/>
<use x="109.20" y="147.40" xlink:href="#hl"/>
<use x="109.20" y="141.40" xlink:href="#hl"/>
<use x="109.20" y="135.40" xlink:href="#hl"/>
<use x="109.20" y="135.40" xlink:href="#hd"/>
<path d="M105.70 135.40v36.00" class="stroke"/>
<path class="fill"
	d="M105.70 171.40c0.6 -5.6 9.6 -9 5.6 -18.4
	1.6 6 -1.3 11.6 -5.6 12.8
"/>
<use x="127.70" y="153.40" xlink:href="#hl"/>
<use x="127.70" y="147.40" xlink:href="#hl"/>
<use x="127.70" y="141.40" xlink:href="#hl"/>
<use x="127.70" y="135.40" xlink:href="#hl"/>
<use x="127.70" y="129.40" xlink:href="#hl"/>
<use x="127.70" y="129.40" xlink:href="#hd"/>
<path d="M124.20 129.40v42.00" class="stroke"/>
<path class="fill"
	d="M124.20 171.40c0.6 -5.6 9.6 -9 5.6 -18.4
	1.6 6 -1.3 11.6 -5.6 12.8
"/>
<use x="146.80" y="153.40" xlink:href="#hl"/>
<use x="146.80" y="147.40" xlink:href="#hl"/>
<use x="146.80" y="141.40" xlink:href="#hl"/>
<use x="146.80" y="135.40" xlink:href="#hl"/>
<use x="146.80" y="129.40" xlink:href="#hl"/>
<use x="146.80" y="126.40" xlink:href="#hd"/>
<path d="M143.30 126.40v45.00" class="stroke"/>
<path class="fill"
	d="M143.30 171.40c0.6 -5.6 9.6 -9 5.6 -18.4
	1.6 6 -1.3 11.6 -5.6 12.8
"/>
<use x="165.40" y="153.40" xlink:href="#hl"/>
<use x="165.40" y="147.40" xlink:href="#hl"/>
<use x="165.40" y="141.40" xlink:href="#hl"/>
<use x="165.40" y="135.40" xlink:href="#hl"/>
<use x="165.40" y="129.40" xlink:href="#hl"/>
<use x="165.40" y="123.40" xlink:href="#hl"/>
<use x="165.40" y="120.40" xlink:href="#hd"/>
<path d="M161.90 120.40v51.00" class="stroke"/>
<path class="fill"
	d="M161.90 171.40c0.6 -5.6 9.6 -9 5.6 -18.4
	1.6 6 -1.3 11.6 -5.6 12.8
"/>
<use x="203.70" y="183.40" xlink:href="#hd"/>
<path d="M207.20 183.40v-21.00" class="stroke"/>
<path class="fill"
	d="M207.20 162.40c0.6 5.6 9.6 9 5.6 18.4
	1.6 -6 -1.3 -11.6 -5.6 -12.8
"/>
<use x="223.30" y="156.40" xlink:href="#hd"/>
<path d="M219.80 156.40v21.00" class="stroke"/>
<path class="fill"
	d="M219.80 177.40c0.6 -5.6 9.6 -9 5.6 -18.4
	1.6 6 -1.3 11.6 -5.6 12.8
"/>
<use x="241.50" y="153.40" xlink:href="#hl"/>
<use x="241.50" y="150.40" xlink:href="#hd"/>
<path d="M238.00 150.40v21.00" class="stroke"/>
<path class="fill"
	d="M238.00 171.40c0.6 -5.6 9.6 -9 5.6 -18.4
	1.6 6 -1.3 11.6 -5.6 12.8
"/>
<use x="260.10" y="153.40" xlink:href="#hl"/>
<use x="260.10" y="147.40" xlink:href="#hl"/>
<use x="260.10" y="144.40" xlink:href="#hd"/>
<path d="M256.60 144.40v27.00" class="stroke"/>
<path class="fill"
	d="M256.60 171.40c0.6 -5.6 9.6 -9 5.6 -18.4
	1.6 6 -1.3 11.6 -5.6 12.8
"/>
<use x="279.20" y="153.40" xlink:href="#hl"/>
<use x="279.20" y="147.40" xlink:href="#hl"/>
<use x="279.20" y="141.40" xlink:href="#hl"/>
<use x="279.20" y="141.40" xlink:href="#hd"/>
<path d="M275.70 141.40v30.00" class="stroke"/>
<path class="fill"
	d="M275.70 171.40c0.6 -5.6 9.6 -9 5.6 -18.4
	1.6 6 -1.3 11.6 -5.6 12.8
"/>
<use x="297.70" y="153.40" xlink:href="#hl"/>
<use x="297.70" y="147.40" xlink:href="#hl"/>
<use x="297.70" y="141.40" xlink:href="#hl"/>
<use x="297.70" y="135.40" xlink:href="#hl"/>
<use x="297.70" y="135.40" xlink:href="#hd"/>
<path d="M294.20 135.40v36.00" class="stroke"/>
<path class="fill"
	d="M294.20 171.40c0.6 -5.6 9.6 -9 5.6 -18.4
	1.6 6 -1.3 11.6 -5.6 12.8
"/>
<use x="350.40" y="153.40" xlink:href="#hl"/>
<defs>
<path id="Hd" class="fill" d="m3 -1.6
	c-1 -1.8 -7 1.4 -6 3.2
	1 1.8 7 -1.4 6 -3.2
	m0.5 -0.3
	c2 3.8 -5 7.6 -7 3.8
	-2 -3.8 5 -7.6 7 -3.8"/>
</defs>
<use x="350.40" y="150.40" xlink:href="#Hd"/>
<circle class="fill" cx="359.10" cy="150.40" r="1.2"/>
<path d="M346.90 150.40v37.00" class="stroke"/>
<use x="350.40" y="168.40" xlink:href="#Hd"/>
<circle class="fill" cx="359.10" cy="168.40" r="1.2"/>
<use x="350.40" y="162.40" xlink:href="#Hd"/>
<circle class="fill" cx="359.10" cy="162.40" r="1.2"/>
<use x="350.40" y="156.40" xlink:href="#Hd"/>
<circle class="fill" cx="359.10" cy="156.40" r="1.2"/>
<use x="461.90" y="189.40" xlink:href="#hl"/>
<use x="461.90" y="195.40" xlink:href="#hl"/>
<use x="461.90" y="198.40" xlink:href="#hd"/>
<path d="M465.40 198.40v-40.00" class="stroke"/>
<path class="fill"
	d="M465.40 158.40c0.6 5.6 9.6 9 5.6 18.4
	1.6 -6 -1.3 -11.6 -5.6 -12.8
"/>
<use x="461.90" y="177.40" xlink:href="#hd"/>
<use x="481.50" y="153.40" xlink:href="#hl"/>
<use x="481.50" y="150.40" xlink:href="#hd"/>
<path d="M478.00 150.40v21.00" class="stroke"/>
<path class="fill"
	d="M478.00 171.40c0.6 -5.6 9.6 -9 5.6 -18.4
	1.6 6 -1.3 11.6 -5.6 12.8
"/>
<use x="500.00" y="153.40" xlink:href="#hl"/>
<use x="500.00" y="147.40" xlink:href="#hl"/>
<use x="500.00" y="144.40" xlink:href="#hd"/>
<path d="M496.50 144.40v27.00" class="stroke"/>
<path class="fill"
	d="M496.50 171.40c0.6 -5.6 9.6 -9 5.6 -18.4
	1.6 6 -1.3 11.6 -5.6 12.8
"/>
<use x="518.60" y="153.40" xlink:href="#hl"/>
<use x="518.60" y="147.40" xlink:href="#hl"/>
<use x="518.60" y="141.40" xlink:href="#hl"/>
<use x="518.60" y="138.40" xlink:href="#hd"/>
<path d="M515.10 138.40v33.00" class="stroke"/>
<path class="fill"
	d="M515.10 171.40c0.6 -5.6 9.6 -9 5.6 -18.4
	1.6 6 -1.3 11.6 -5.6 12.8
"/>
<use x="537.10" y="153.40" xlink:href="#hl"/>
<use x="537.10" y="147.40" xlink:href="#hl"/>
<use x="537.10" y="141.40" xlink:href="#hl"/>
<use x="537.10" y="135.40" xlink:href="#hl"/>
<use x="537.10" y="135.40" xlink:href="#hd"/>
<path d="M533.60 135.40v36.00" class="stroke"/>
<path class="fill"
	d="M533.60 171.40c0.6 -5.6 9.6 -9 5.6 -18.4
	1.6 6 -1.3 11.6 -5.6 12.8
"/>
<use x="555.60" y="153.40" xlink:href="#hl"/>
<use x="555.60" y="147.40" xlink:href="#hl"/>
<use x="555.60" y="141.40" xlink:href="#hl"/>
<use x="555.60" y="135.40" xlink:href="#hl"/>
<use x="555.60" y="129.40" xlink:href="#hl"/>
<use x="555.60" y="129.40" xlink:href="#hd"/>
<path d="M552.10 129.40v42.00" class="stroke"/>
<path class="fill"
	d="M552.10 171.40c0.6 -5.6 9.6 -9 5.6 -18.4
	1.6 6 -1.3 11.6 -5.6 12.8
"/>
<use x="593.60" y="153.40" xlink:href="#hl"/>
<use x="593.60" y="150.40" xlink:href="#Hd"/>
<circle class="fill" cx="602.30" cy="150.40" r="1.2"/>
<path d="M590.10 150.40v37.00" class="stroke"/>
<use x="593.60" y="168.40" xlink:href="#Hd"/>
<circle class="fill" cx="602.30" cy="168.40" r="1.2"/>
<use x="593.60" y="162.40" xlink:href="#Hd"/>
<circle class="fill" cx="602.30" cy="162.40" r="1.2"/>
<use x="593.60" y="156.40" xlink:href="#Hd"/>
<circle class="fill" cx="602.30" cy="156.40" r="1.2"/>
<defs>
<path id="ltr" class="fill"
    d="m0 -0.4c2 -1.5 3.4 -1.9 3.9 0.4
	c0.2 0.8 0.7 0.7 2.1 -0.4
	v0.8c-2 1.5 -3.4 1.9 -3.9 -0.4
	c-0.2 -0.8 -0.7 -0.7 -2.1 0.4z"/>
</defs>
<g transform="rotate(270)">
<use x="-171.40" y="340.40" xlink:href="#ltr"/>
<use x="-165.40" y="340.40" xlink:href="#ltr"/>
<use x="-159.40" y="340.40" xlink:href="#ltr"/>
<use x="-153.40" y="340.40" xlink:href="#ltr"/>
</g>
<text x="454.40" y="69.40" style="font:bold italic 30px serif">,</text>
<g transform="rotate(270)">
<use x="-171.40" y="583.60" xlink:href="#ltr"/>
<use x="-165.40" y="583.60" xlink:href="#ltr"/>
<use x="-159.40" y="583.60" xlink:href="#ltr"/>
<use x="-153.40" y="583.60" xlink:href="#ltr"/>
</g>
<text x="691.60" y="69.40" style="font:bold italic 30px serif">,</text>
</g>
<g stroke-width="0.70" style="font:italic 11.00px Times">
<path class="stroke" stroke-width="1"
	d="M10.00 329.80v-90.00"/>
<g transform="translate(10.00,239.80) scale(1,0.90)">
	<use xlink:href="#brace"/>
</g>
<path class="stroke" stroke-width="1"
	d="M179.00 263.80v-24.00"/>
<path class="stroke" stroke-width="1"
	d="M179.00 329.80v-24.00"/>
<path class="stroke" stroke-width="1"
	d="M314.80 263.80v-24.00"/>
<path class="stroke" stroke-width="1"
	d="M314.80 329.80v-24.00"/>
<path class="stroke" stroke-width="1"
	d="M456.10 263.80v-24.00"/>
<path class="stroke" stroke-width="1"
	d="M456.10 329.80v-24.00"/>
<path class="stroke" stroke-width="1"
	d="M555.10 263.80v-24.00"/>
<path class="stroke" stroke-width="1"
	d="M555.10 329.80v-24.00"/>
<path class="stroke" stroke-width="1"
	d="M691.60 263.80v-24.00"/>
<path class="stroke" stroke-width="1"
	d="M691.60 329.80v-24.00"/>
<path d="m10.00 263.80
	h681.60
	M10.00 257.80
	h681.60
	M10.00 251.80
	h681.60
	M10.00 245.80
	h681.60
	M10.00 239.80
	h681.60
	" class="stroke"/>
<path d="m10.00 329.80
	h681.60
	M10.00 323.80
	h681.60
	M10.00 317.80
	h681.60
	M10.00 311.80
	h681.60
	M10.00 305.80
	h681.60
	" class="stroke"/>
</g>
<g stroke-width="0.70" style="font:bold 13.00px Times">
<text x="49.30" y="235.20">I<tspan
	 style="font:italic 11.00px Times">Δ⁷</tspan></text>
</g>
<g stroke-width="0.70" style="font:bold 13.00px Times">
<text x="195.00" y="228.20">vi<tspan
	 style="font:italic 11.00px Times">m⁷</tspan></text>
</g>
<g stroke-width="0.70" style="font:bold 13.00px Times">
<text x="319.30" y="235.20">iii<tspan
	 style="font:italic 11.00px Times">m⁷</tspan></text>
</g>
<g stroke-width="0.70" style="font:bold 13.00px Times">
<text x="472.10" y="216.20">vi<tspan
	 style="font:italic 11.00px Times">m⁷</tspan></text>
</g>
<g stroke-width="0.70" style="font:bold 13.00px Times">
<text x="561.80" y="227.20">I<tspan
	 style="font:italic 11.00px Times">Δ⁷</tspan></text>
</g>
<g stroke-width="0.70" style="font:italic 11.00px Times">
<use x="22.00" y="257.80" xlink:href="#tclef"/>
<use x="37.00" y="239.80" xlink:href="#sh0"/>
<use x="55.00" y="251.80" xlink:href="#hd"/>
<path d="M51.50 251.80v21.00" class="stroke"/>
<path class="fill"
	d="M51.50 272.80c0.6 -5.6 9.6 -9 5.6 -18.4
	1.6 6 -1.3 11.6 -5.6 12.8
"/>
<use x="74.90" y="254.80" xlink:href="#hd"/>
<path d="M78.40 254.80v-21.00" class="stroke"/>
<use x="112.10" y="260.80" xlink:href="#hd"/>
<path d="M115.60 260.80v-21.00" class="stroke"/>
<path class="fill"
	d="M115.60 239.80c0.6 5.6 9.6 9 5.6 18.4
	1.6 -6 -1.3 -11.6 -5.6 -12.8
"/>
<use x="131.50" y="266.80" xlink:href="#hd"/>
<circle class="fill" cx="139.20" cy="266.80" r="1.2"/>
<path d="M135.00 266.80v-21.00" class="stroke"/>
<path class="fill"
	d="M135.00 245.80c0.6 5.6 9.6 9 5.6 18.4
	1.6 -6 -1.3 -11.6 -5.6 -12.8
"/>
<use x="162.00" y="263.80" xlink:href="#hd"/>
<path d="M165.50 263.80v-22.00" class="stroke"/>
<path class="fill"
	d="M165.50 241.80c0.9 3.7 9.1 6.4 6 12.4
	1 -5.4 -4.2 -8.4 -6 -8.4
M165.50 247.20c0.9 3.7 9.1 6.4 6 12.4
	1 -5.4 -4.2 -8.4 -6 -8.4
"/>
<use x="203.00" y="239.80" xlink:href="#hd"/>
<path d="M199.50 239.80v40.00" class="stroke"/>
<path class="fill"
	d="M199.50 279.80c0.6 -5.6 9.6 -9 5.6 -18.4
	1.6 6 -1.3 11.6 -5.6 12.8
"/>
<use x="203.00" y="260.80" xlink:href="#hd"/>
<use x="221.50" y="236.80" xlink:href="#hd"/>
<circle class="fill" cx="229.20" cy="236.80" r="1.2"/>
<path d="M218.00 236.80v40.00" class="stroke"/>
<path class="fill"
	d="M218.00 276.80c0.6 -5.6 9.6 -9 5.6 -18.4
	1.6 6 -1.3 11.6 -5.6 12.8
"/>
<use x="221.50" y="257.80" xlink:href="#hd"/>
<circle class="fill" cx="229.20" cy="254.80" r="1.2"/>
<use x="243.80" y="239.80" xlink:href="#hd"/>
<path d="M240.30 239.80v42.00" class="stroke"/>
<path class="fill"
	d="M240.30 281.80c0.9 -3.7 9.1 -6.4 6 -12.4
	1 5.4 -4.2 8.4 -6 8.4
M240.30 276.40c0.9 -3.7 9.1 -6.4 6 -12.4
	1 5.4 -4.2 8.4 -6 8.4
"/>
<use x="243.80" y="260.80" xlink:href="#hd"/>
<use x="256.20" y="263.80" xlink:href="#hd"/>
<path d="M259.70 263.80v-40.00" class="stroke"/>
<path class="fill"
	d="M259.70 223.80c0.6 5.6 9.6 9 5.6 18.4
	1.6 -6 -1.3 -11.6 -5.6 -12.8
"/>
<use x="256.20" y="242.80" xlink:href="#hd"/>
<use x="275.60" y="266.80" xlink:href="#hd"/>
<circle class="fill" cx="283.30" cy="266.80" r="1.2"/>
<path d="M279.10 266.80v-40.00" class="stroke"/>
<path class="fill"
	d="M279.10 226.80c0.6 5.6 9.6 9 5.6 18.4
	1.6 -6 -1.3 -11.6 -5.6 -12.8
"/>
<use x="275.60" y="245.80" xlink:href="#hd"/>
<circle class="fill" cx="283.30" cy="242.80" r="1.2"/>
<use x="297.80" y="269.80" xlink:href="#hl"/>
<use x="297.80" y="269.80" xlink:href="#hd"/>
<path d="M301.30 269.80v-41.00" class="stroke"/>
<path class="fill"
	d="M301.30 228.80c0.9 3.7 9.1 6.4 6 12.4
	1 -5.4 -4.2 -8.4 -6 -8.4
M301.30 234.20c0.9 3.7 9.1 6.4 6 12.4
	1 -5.4 -4.2 -8.4 -6 -8.4
"/>
<use x="297.80" y="248.80" xlink:href="#hd"/>
<use x="327.30" y="266.80" xlink:href="#hd"/>
<path d="M330.80 266.80v-21.00" class="stroke"/>
<path class="fill"
	d="M330.80 245.80c0.6 5.6 9.6 9 5.6 18.4
	1.6 -6 -1.3 -11.6 -5.6 -12.8
"/>
<use x="347.20" y="263.80" xlink:href="#hd"/>
<circle class="fill" cx="354.90" cy="260.80" r="1.2"/>
<path d="M350.70 263.80v-21.00" class="stroke"/>
<use x="403.50" y="263.80" xlink:href="#hd"/>
<circle class="fill" cx="411.20" cy="260.80" r="1.2"/>
<path d="M407.00 263.80v-21.00" class="stroke"/>
<use x="480.10" y="233.80" xlink:href="#hl"/>
<use x="480.10" y="227.80" xlink:href="#hl"/>
<use x="480.10" y="224.80" xlink:href="#hd"/>
<circle class="fill" cx="487.80" cy="224.80" r="1.2"/>
<path d="M476.60 224.80v40.00" class="stroke"/>
<use x="480.10" y="245.80" xlink:href="#hd"/>
<circle class="fill" cx="487.80" cy="242.80" r="1.2"/>
<use x="510.50" y="233.80" xlink:href="#hl"/>
<use x="510.50" y="227.80" xlink:href="#hl"/>
<use x="510.50" y="224.80" xlink:href="#hd"/>
<circle class="fill" cx="518.20" cy="224.80" r="1.2"/>
<path d="M507.00 224.80v40.00" class="stroke"/>
<path class="fill"
	d="M507.00 264.80c0.6 -5.6 9.6 -9 5.6 -18.4
	1.6 6 -1.3 11.6 -5.6 12.8
"/>
<use x="510.50" y="245.80" xlink:href="#hd"/>
<circle class="fill" cx="518.20" cy="242.80" r="1.2"/>
<use x="542.60" y="233.80" xlink:href="#hl"/>
<use x="542.60" y="227.80" xlink:href="#hl"/>
<use x="542.60" y="227.80" xlink:href="#hd"/>
<path d="M539.10 227.80v42.00" class="stroke"/>
<path class="fill"
	d="M539.10 269.80c0.9 -3.7 9.1 -6.4 6 -12.4
	1 5.4 -4.2 8.4 -6 8.4
M539.10 264.40c0.9 -3.7 9.1 -6.4 6 -12.4
	1 5.4 -4.2 8.4 -6 8.4
"/>
<use x="542.60" y="248.80" xlink:href="#hd"/>
<use x="567.60" y="251.80" xlink:href="#hd"/>
<path d="M564.10 251.80v21.00" class="stroke"/>
<path class="fill"
	d="M564.10 272.80c0.6 -5.6 9.6 -9 5.6 -18.4
	1.6 6 -1.3 11.6 -5.6 12.8
"/>
<use x="587.40" y="254.80" xlink:href="#hd"/>
<path d="M590.90 254.80v-21.00" class="stroke"/>
<use x="624.70" y="260.80" xlink:href="#hd"/>
<path d="M628.20 260.80v-21.00" class="stroke"/>
<path class="fill"
	d="M628.20 239.80c0.6 5.6 9.6 9 5.6 18.4
	1.6 -6 -1.3 -11.6 -5.6 -12.8
"/>
<use x="644.00" y="266.80" xlink:href="#hd"/>
<circle class="fill" cx="651.70" cy="266.80" r="1.2"/>
<path d="M647.50 266.80v-21.00" class="stroke"/>
<path class="fill"
	d="M647.50 245.80c0.6 5.6 9.6 9 5.6 18.4
	1.6 -6 -1.3 -11.6 -5.6 -12.8
"/>
<use x="674.60" y="263.80" xlink:href="#hd"/>
<path d="M678.10 263.80v-22.00" class="stroke"/>
<path class="fill"
	d="M678.10 241.80c0.9 3.7 9.1 6.4 6 12.4
	1 -5.4 -4.2 -8.4 -6 -8.4
M678.10 247.20c0.9 3.7 9.1 6.4 6 12.4
	1 -5.4 -4.2 -8.4 -6 -8.4
"/>
<use x="22.00" y="311.80" xlink:href="#bclef"/>
<use x="37.00" y="311.80" xlink:href="#sh0"/>
<use x="55.00" y="335.80" xlink:href="#hl"/>
<use x="55.00" y="341.80" xlink:href="#hl"/>
<use x="55.00" y="347.80" xlink:href="#hl"/>
<use x="55.00" y="350.80" xlink:href="#hd"/>
<path d="M58.50 350.80v-40.00" class="stroke"/>
<path class="fill"
	d="M58.50 310.80c0.6 5.6 9.6 9 5.6 18.4
	1.6 -6 -1.3 -11.6 -5.6 -12.8
"/>
<use x="55.00" y="329.80" xlink:href="#hd"/>
<use x="74.90" y="302.80" xlink:href="#hd"/>
<path d="M71.40 302.80v21.00" class="stroke"/>
<path class="fill"
	d="M71.40 323.80c0.6 -5.6 9.6 -9 5.6 -18.4
	1.6 6 -1.3 11.6 -5.6 12.8
"/>
<use x="93.30" y="299.80" xlink:href="#hl"/>
<use x="93.30" y="296.80" xlink:href="#hd"/>
<path d="M89.80 296.80v21.00" class="stroke"/>
<path class="fill"
	d="M89.80 317.80c0.6 -5.6 9.6 -9 5.6 -18.4
	1.6 6 -1.3 11.6 -5.6 12.8
"/>
<use x="112.10" y="299.80" xlink:href="#hl"/>
<use x="112.10" y="293.80" xlink:href="#hl"/>
<use x="112.10" y="290.80" xlink:href="#hd"/>
<path d="M108.60 290.80v27.00" class="stroke"/>
<path class="fill"
	d="M108.60 317.80c0.6 -5.6 9.6 -9 5.6 -18.4
	1.6 6 -1.3 11.6 -5.6 12.8
"/>
<use x="131.50" y="299.80" xlink:href="#hl"/>
<use x="131.50" y="293.80" xlink:href="#hl"/>
<use x="131.50" y="287.80" xlink:href="#hl"/>
<use x="131.50" y="287.80" xlink:href="#hd"/>
<path d="M128.00 287.80v30.00" class="stroke"/>
<path class="fill"
	d="M128.00 317.80c0.6 -5.6 9.6 -9 5.6 -18.4
	1.6 6 -1.3 11.6 -5.6 12.8
"/>
<use x="150.20" y="299.80" xlink:href="#hl"/>
<use x="150.20" y="293.80" xlink:href="#hl"/>
<use x="150.20" y="287.80" xlink:href="#hl"/>
<use x="150.20" y="281.80" xlink:href="#hl"/>
<use x="150.20" y="281.80" xlink:href="#hd"/>
<path d="M146.70 281.80v36.00" class="stroke"/>
<path class="fill"
	d="M146.70 317.80c0.6 -5.6 9.6 -9 5.6 -18.4
	1.6 6 -1.3 11.6 -5.6 12.8
"/>
<use x="203.00" y="299.80" xlink:href="#hl"/>
<use x="203.00" y="296.80" xlink:href="#Hd"/>
<circle class="fill" cx="211.70" cy="296.80" r="1.2"/>
<path d="M199.50 296.80v37.00" class="stroke"/>
<use x="203.00" y="314.80" xlink:href="#Hd"/>
<circle class="fill" cx="211.70" cy="314.80" r="1.2"/>
<use x="203.00" y="308.80" xlink:href="#Hd"/>
<circle class="fill" cx="211.70" cy="308.80" r="1.2"/>
<use x="203.00" y="302.80" xlink:href="#Hd"/>
<circle class="fill" cx="211.70" cy="302.80" r="1.2"/>
<use x="327.30" y="335.80" xlink:href="#hl"/>
<use x="327.30" y="341.80" xlink:href="#hl"/>
<use x="327.30" y="344.80" xlink:href="#hd"/>
<path d="M330.80 344.80v-40.00" class="stroke"/>
<path class="fill"
	d="M330.80 304.80c0.6 5.6 9.6 9 5.6 18.4
	1.6 -6 -1.3 -11.6 -5.6 -12.8
"/>
<use x="327.30" y="323.80" xlink:href="#hd"/>
<use x="347.20" y="299.80" xlink:href="#hl"/>
<use x="347.20" y="296.80" xlink:href="#hd"/>
<path d="M343.70 296.80v21.00" class="stroke"/>
<path class="fill"
	d="M343.70 317.80c0.6 -5.6 9.6 -9 5.6 -18.4
	1.6 6 -1.3 11.6 -5.6 12.8
"/>
<use x="366.00" y="299.80" xlink:href="#hl"/>
<use x="366.00" y="293.80" xlink:href="#hl"/>
<use x="366.00" y="290.80" xlink:href="#hd"/>
<path d="M362.50 290.80v27.00" class="stroke"/>
<path class="fill"
	d="M362.50 317.80c0.6 -5.6 9.6 -9 5.6 -18.4
	1.6 6 -1.3 11.6 -5.6 12.8
"/>
<use x="384.70" y="299.80" xlink:href="#hl"/>
<use x="384.70" y="293.80" xlink:href="#hl"/>
<use x="384.70" y="287.80" xlink:href="#hl"/>
<use x="384.70" y="284.80" xlink:href="#hd"/>
<path d="M381.20 284.80v33.00" class="stroke"/>
<path class="fill"
	d="M381.20 317.80c0.6 -5.6 9.6 -9 5.6 -18.4
	1.6 6 -1.3 11.6 -5.6 12.8
"/>
<use x="403.50" y="299.80" xlink:href="#hl"/>
<use x="403.50" y="293.80" xlink:href="#hl"/>
<use x="403.50" y="287.80" xlink:href="#hl"/>
<use x="403.50" y="281.80" xlink:href="#hl"/>
<use x="403.50" y="281.80" xlink:href="#hd"/>
<path d="M400.00 281.80v36.00" class="stroke"/>
<path class="fill"
	d="M400.00 317.80c0.6 -5.6 9.6 -9 5.6 -18.4
	1.6 6 -1.3 11.6 -5.6 12.8
"/>
<use x="422.30" y="299.80" xlink:href="#hl"/>
<use x="422.30" y="293.80" xlink:href="#hl"/>
<use x="422.30" y="287.80" xlink:href="#hl"/>
<use x="422.30" y="281.80" xlink:href="#hl"/>
<use x="422.30" y="275.80" xlink:href="#hl"/>
<use x="422.30" y="275.80" xlink:href="#hd"/>
<path d="M418.80 275.80v42.00" class="stroke"/>
<path class="fill"
	d="M418.80 317.80c0.6 -5.6 9.6 -9 5.6 -18.4
	1.6 6 -1.3 11.6 -5.6 12.8
"/>
<use x="439.10" y="323.80" xlink:href="#hd"/>
<path d="M442.60 323.80v-21.00" class="stroke"/>
<path class="fill"
	d="M442.60 302.80c0.6 5.6 9.6 9 5.6 18.4
	1.6 -6 -1.3 -11.6 -5.6 -12.8
"/>
<use x="480.10" y="299.80" xlink:href="#hl"/>
<use x="480.10" y="296.80" xlink:href="#Hd"/>
<path d="M476.60 296.80v37.00" class="stroke"/>
<use x="480.10" y="314.80" xlink:href="#Hd"/>
<use x="480.10" y="308.80" xlink:href="#Hd"/>
<use x="480.10" y="302.80" xlink:href="#Hd"/>
<use x="528.30" y="299.80" xlink:href="#hl"/>
<use x="528.30" y="296.80" xlink:href="#hd"/>
<path d="M524.80 296.80v37.00" class="stroke"/>
<path class="fill"
	d="M524.80 333.80c0.6 -5.6 9.6 -9 5.6 -18.4
	1.6 6 -1.3 11.6 -5.6 12.8
"/>
<use x="528.30" y="314.80" xlink:href="#hd"/>
<use x="528.30" y="308.80" xlink:href="#hd"/>
<use x="528.30" y="302.80" xlink:href="#hd"/>
<use x="567.60" y="335.80" xlink:href="#hl"/>
<use x="567.60" y="341.80" xlink:href="#hl"/>
<use x="567.60" y="347.80" xlink:href="#hl"/>
<use x="567.60" y="350.80" xlink:href="#hd"/>
<path d="M571.10 350.80v-40.00" class="stroke"/>
<path class="fill"
	d="M571.10 310.80c0.6 5.6 9.6 9 5.6 18.4
	1.6 -6 -1.3 -11.6 -5.6 -12.8
"/>
<use x="567.60" y="329.80" xlink:href="#hd"/>
<use x="587.40" y="302.80" xlink:href="#hd"/>
<path d="M583.90 302.80v21.00" class="stroke"/>
<path class="fill"
	d="M583.90 323.80c0.6 -5.6 9.6 -9 5.6 -18.4
	1.6 6 -1.3 11.6 -5.6 12.8
"/>
<use x="605.90" y="299.80" xlink:href="#hl"/>
<use x="605.90" y="296.80" xlink:href="#hd"/>
<path d="M602.40 296.80v21.00" class="stroke"/>
<path class="fill"
	d="M602.40 317.80c0.6 -5.6 9.6 -9 5.6 -18.4
	1.6 6 -1.3 11.6 -5.6 12.8
"/>
<use x="624.70" y="299.80" xlink:href="#hl"/>
<use x="624.70" y="293.80" xlink:href="#hl"/>
<use x="624.70" y="290.80" xlink:href="#hd"/>
<path d="M621.20 290.80v27.00" class="stroke"/>
<path class="fill"
	d="M621.20 317.80c0.6 -5.6 9.6 -9 5.6 -18.4
	1.6 6 -1.3 11.6 -5.6 12.8
"/>
<use x="644.00" y="299.80" xlink:href="#hl"/>
<use x="644.00" y="293.80" xlink:href="#hl"/>
<use x="644.00" y="287.80" xlink:href="#hl"/>
<use x="644.00" y="287.80" xlink:href="#hd"/>
<path d="M640.50 287.80v30.00" class="stroke"/>
<path class="fill"
	d="M640.50 317.80c0.6 -5.6 9.6 -9 5.6 -18.4
	1.6 6 -1.3 11.6 -5.6 12.8
"/>
<use x="662.80" y="299.80" xlink:href="#hl"/>
<use x="662.80" y="293.80" xlink:href="#hl"/>
<use x="662.80" y="287.80" xlink:href="#hl"/>
<use x="662.80" y="281.80" xlink:href="#hl"/>
<use x="662.80" y="281.80" xlink:href="#hd"/>
<path d="M659.30 281.80v36.00" class="stroke"/>
<path class="fill"
	d="M659.30 317.80c0.6 -5.6 9.6 -9 5.6 -18.4
	1.6 6 -1.3 11.6 -5.6 12.8
"/>
<path class="fill"
	d="M483.60 314.80c6.46 5.24 34.72 5.24 41.18 -0.00
	v0.24c-7.70 7.00 -33.48 7.00 -41.18 -0.24"/>
<path class="fill"
	d="M483.60 308.80c6.46 5.24 34.72 5.24 41.18 -0.00
	v0.24c-7.70 7.00 -33.48 7.00 -41.18 -0.24"/>
<path class="fill"
	d="M483.60 302.80c6.46 -5.24 34.72 -5.24 41.18 -0.00
	v-0.24c-7.70 -7.00 -33.48 -7.00 -41.18 0.24"/>
<path class="fill"
	d="M483.60 296.80c6.46 -5.24 34.72 -5.24 41.18 -0.00
	v-0.24c-7.70 -7.00 -33.48 -7.00 -41.18 0.24"/>
<g transform="rotate(270)">
<use x="-317.80" y="193.00" xlink:href="#ltr"/>
<use x="-311.80" y="193.00" xlink:href="#ltr"/>
<use x="-305.80" y="193.00" xlink:href="#ltr"/>
<use x="-299.80" y="193.00" xlink:href="#ltr"/>
</g>
<text x="319.80" y="230.80" style="font:bold italic 30px serif">,</text>
<g transform="rotate(270)">
<use x="-317.80" y="470.10" xlink:href="#ltr"/>
<use x="-311.80" y="470.10" xlink:href="#ltr"/>
<use x="-305.80" y="470.10" xlink:href="#ltr"/>
<use x="-299.80" y="470.10" xlink:href="#ltr"/>
</g>
<g transform="rotate(270)">
<use x="-317.80" y="518.30" xlink:href="#ltr"/>
<use x="-311.80" y="518.30" xlink:href="#ltr"/>
<use x="-305.80" y="518.30" xlink:href="#ltr"/>
<use x="-299.80" y="518.30" xlink:href="#ltr"/>
</g>
<text x="560.10" y="230.80" style="font:bold italic 30px serif">,</text>
</g>
<g stroke-width="0.70" style="font:italic 11.00px Times">
<path class="stroke" stroke-width="1"
	d="M10.00 472.80v-93.00"/>
<g transform="translate(10.00,379.80) scale(1,0.93)">
	<use xlink:href="#brace"/>
</g>
<path class="stroke" stroke-width="1"
	d="M197.30 403.80v-24.00"/>
<path class="stroke" stroke-width="1"
	d="M197.30 472.80v-24.00"/>
<path class="stroke" stroke-width="1"
	d="M376.40 403.80v-24.00"/>
<path class="stroke" stroke-width="1"
	d="M376.40 472.80v-24.00"/>
<path class="stroke" stroke-width="1"
	d="M520.10 403.80v-24.00"/>
<path class="stroke" stroke-width="1"
	d="M520.10 472.80v-24.00"/>
<path class="stroke" stroke-width="1"
	d="M691.60 403.80v-24.00"/>
<path class="stroke" stroke-width="1"
	d="M691.60 472.80v-24.00"/>
<path d="m10.00 403.80
	h681.60
	M10.00 397.80
	h681.60
	M10.00 391.80
	h681.60
	M10.00 385.80
	h681.60
	M10.00 379.80
	h681.60
	" class="stroke"/>
<path d="m10.00 472.80
	h681.60
	M10.00 466.80
	h681.60
	M10.00 460.80
	h681.60
	M10.00 454.80
	h681.60
	M10.00 448.80
	h681.60
	" class="stroke"/>
</g>
<g stroke-width="0.70" style="font:bold 13.00px Times">
<text x="61.50" y="368.20">vi<tspan
	 style="font:italic 11.00px Times">m⁷</tspan></text>
</g>
<g stroke-width="0.70" style="font:bold 13.00px Times">
<text x="202.10" y="373.20">iii<tspan
	 style="font:italic 11.00px Times">m⁷</tspan></text>
</g>
<g stroke-width="0.70" style="font:bold 13.00px Times">
<text x="383.40" y="373.20">I<tspan
	 style="font:italic 11.00px Times">Δ⁷</tspan></text>
</g>
<g stroke-width="0.70" style="font:bold 13.00px Times">
<text x="527.10" y="373.20">I<tspan
	 style="font:italic 11.00px Times">Δ⁷</tspan></text>
</g>
<g stroke-width="0.70" style="font:italic 11.00px Times">
<use x="22.00" y="397.80" xlink:href="#tclef"/>
<use x="37.00" y="379.80" xlink:href="#sh0"/>
<use x="69.50" y="379.80" xlink:href="#hd"/>
<path d="M66.00 379.80v40.00" class="stroke"/>
<path class="fill"
	d="M66.00 419.80c0.6 -5.6 9.6 -9 5.6 -18.4
	1.6 6 -1.3 11.6 -5.6 12.8
"/>
<use x="69.50" y="400.80" xlink:href="#hd"/>
<use x="94.60" y="376.80" xlink:href="#hd"/>
<path d="M91.10 376.80v40.00" class="stroke"/>
<use x="94.60" y="397.80" xlink:href="#hd"/>
<use x="126.40" y="403.80" xlink:href="#hd"/>
<path d="M129.90 403.80v-40.00" class="stroke"/>
<path class="fill"
	d="M129.90 363.80c0.6 5.6 9.6 9 5.6 18.4
	1.6 -6 -1.3 -11.6 -5.6 -12.8
"/>
<use x="126.40" y="382.80" xlink:href="#hd"/>
<use x="151.60" y="403.80" xlink:href="#hd"/>
<circle class="fill" cx="159.30" cy="400.80" r="1.2"/>
<path d="M155.10 403.80v-40.00" class="stroke"/>
<path class="fill"
	d="M155.10 363.80c0.6 5.6 9.6 9 5.6 18.4
	1.6 -6 -1.3 -11.6 -5.6 -12.8
"/>
<use x="151.60" y="382.80" xlink:href="#hd"/>
<circle class="fill" cx="159.30" cy="382.80" r="1.2"/>
<use x="180.30" y="406.80" xlink:href="#hd"/>
<path d="M183.80 406.80v-41.00" class="stroke"/>
<path class="fill"
	d="M183.80 365.80c0.9 3.7 9.1 6.4 6 12.4
	1 -5.4 -4.2 -8.4 -6 -8.4
M183.80 371.20c0.9 3.7 9.1 6.4 6 12.4
	1 -5.4 -4.2 -8.4 -6 -8.4
"/>
<use x="180.30" y="385.80" xlink:href="#hd"/>
<use x="210.10" y="403.80" xlink:href="#hd"/>
<path d="M213.60 403.80v-21.00" class="stroke"/>
<path class="fill"
	d="M213.60 382.80c0.6 5.6 9.6 9 5.6 18.4
	1.6 -6 -1.3 -11.6 -5.6 -12.8
"/>
<use x="235.40" y="400.80" xlink:href="#hd"/>
<path d="M238.90 400.80v-21.00" class="stroke"/>
<use x="285.60" y="406.80" xlink:href="#hd"/>
<path d="M289.10 406.80v-21.00" class="stroke"/>
<path class="fill"
	d="M289.10 385.80c0.6 5.6 9.6 9 5.6 18.4
	1.6 -6 -1.3 -11.6 -5.6 -12.8
"/>
<use x="310.80" y="409.80" xlink:href="#hl"/>
<use x="310.80" y="412.80" xlink:href="#hd"/>
<circle class="fill" cx="318.50" cy="412.80" r="1.2"/>
<path d="M314.30 412.80v-21.00" class="stroke"/>
<use x="389.20" y="385.80" xlink:href="#hd"/>
<circle class="fill" cx="396.90" cy="382.80" r="1.2"/>
<path d="M385.70 385.80v21.00" class="stroke"/>
<use x="464.60" y="385.80" xlink:href="#hd"/>
<circle class="fill" cx="472.30" cy="382.80" r="1.2"/>
<path d="M461.10 385.80v21.00" class="stroke"/>
<path class="fill"
	d="M461.10 406.80c0.6 -5.6 9.6 -9 5.6 -18.4
	1.6 6 -1.3 11.6 -5.6 12.8
"/>
<use x="507.40" y="388.80" xlink:href="#hd"/>
<path d="M503.90 388.80v23.00" class="stroke"/>
<path class="fill"
	d="M503.90 411.80c0.9 -3.7 9.1 -6.4 6 -12.4
	1 5.4 -4.2 8.4 -6 8.4
M503.90 406.40c0.9 -3.7 9.1 -6.4 6 -12.4
	1 5.4 -4.2 8.4 -6 8.4
"/>
<use x="532.90" y="391.80" xlink:href="#hd"/>
<path d="M529.40 391.80v21.00" class="stroke"/>
<path class="fill"
	d="M529.40 412.80c0.6 -5.6 9.6 -9 5.6 -18.4
	1.6 6 -1.3 11.6 -5.6 12.8
"/>
<use x="558.10" y="394.80" xlink:href="#hd"/>
<path d="M561.60 394.80v-21.00" class="stroke"/>
<use x="608.30" y="400.80" xlink:href="#hd"/>
<path d="M611.80 400.80v-21.00" class="stroke"/>
<path class="fill"
	d="M611.80 379.80c0.6 5.6 9.6 9 5.6 18.4
	1.6 -6 -1.3 -11.6 -5.6 -12.8
"/>
<use x="633.50" y="406.80" xlink:href="#hd"/>
<circle class="fill" cx="641.20" cy="406.80" r="1.2"/>
<path d="M637.00 406.80v-21.00" class="stroke"/>
<path class="fill"
	d="M637.00 385.80c0.6 5.6 9.6 9 5.6 18.4
	1.6 -6 -1.3 -11.6 -5.6 -12.8
"/>
<use x="674.60" y="403.80" xlink:href="#hd"/>
<path d="M678.10 403.80v-22.00" class="stroke"/>
<path class="fill"
	d="M678.10 381.80c0.9 3.7 9.1 6.4 6 12.4
	1 -5.4 -4.2 -8.4 -6 -8.4
M678.10 387.20c0.9 3.7 9.1 6.4 6 12.4
	1 -5.4 -4.2 -8.4 -6 -8.4
"/>
<use x="22.00" y="454.80" xlink:href="#bclef"/>
<use x="37.00" y="454.80" xlink:href="#sh0"/>
<use x="69.50" y="442.80" xlink:href="#hl"/>
<use x="69.50" y="439.80" xlink:href="#Hd"/>
<circle class="fill" cx="79.20" cy="439.80" r="1.2"/>
<path d="M66.00 439.80v37.00" class="stroke"/>
<use x="69.50" y="457.80" xlink:href="#Hd"/>
<circle class="fill" cx="79.20" cy="457.80" r="1.2"/>
<use x="69.50" y="451.80" xlink:href="#Hd"/>
<circle class="fill" cx="79.20" cy="451.80" r="1.2"/>
<use x="69.50" y="445.80" xlink:href="#Hd"/>
<circle class="fill" cx="79.20" cy="445.80" r="1.2"/>
<use x="210.10" y="478.80" xlink:href="#hl"/>
<use x="210.10" y="484.80" xlink:href="#hl"/>
<use x="210.10" y="487.80" xlink:href="#hd"/>
<path d="M213.60 487.80v-40.00" class="stroke"/>
<path class="fill"
	d="M213.60 447.80c0.6 5.6 9.6 9 5.6 18.4
	1.6 -6 -1.3 -11.6 -5.6 -12.8
"/>
<use x="210.10" y="466.80" xlink:href="#hd"/>
<use x="235.40" y="442.80" xlink:href="#hl"/>
<use x="235.40" y="439.80" xlink:href="#hd"/>
<path d="M231.90 439.80v21.00" class="stroke"/>
<path class="fill"
	d="M231.90 460.80c0.6 -5.6 9.6 -9 5.6 -18.4
	1.6 6 -1.3 11.6 -5.6 12.8
"/>
<use x="260.50" y="442.80" xlink:href="#hl"/>
<use x="260.50" y="436.80" xlink:href="#hl"/>
<use x="260.50" y="433.80" xlink:href="#hd"/>
<path d="M257.00 433.80v27.00" class="stroke"/>
<path class="fill"
	d="M257.00 460.80c0.6 -5.6 9.6 -9 5.6 -18.4
	1.6 6 -1.3 11.6 -5.6 12.8
"/>
<use x="285.60" y="442.80" xlink:href="#hl"/>
<use x="285.60" y="436.80" xlink:href="#hl"/>
<use x="285.60" y="430.80" xlink:href="#hl"/>
<use x="285.60" y="427.80" xlink:href="#hd"/>
<path d="M282.10 427.80v33.00" class="stroke"/>
<path class="fill"
	d="M282.10 460.80c0.6 -5.6 9.6 -9 5.6 -18.4
	1.6 6 -1.3 11.6 -5.6 12.8
"/>
<use x="310.80" y="442.80" xlink:href="#hl"/>
<use x="310.80" y="436.80" xlink:href="#hl"/>
<use x="310.80" y="430.80" xlink:href="#hl"/>
<use x="310.80" y="424.80" xlink:href="#hl"/>
<use x="310.80" y="424.80" xlink:href="#hd"/>
<path d="M307.30 424.80v36.00" class="stroke"/>
<path class="fill"
	d="M307.30 460.80c0.6 -5.6 9.6 -9 5.6 -18.4
	1.6 6 -1.3 11.6 -5.6 12.8
"/>
<use x="335.90" y="442.80" xlink:href="#hl"/>
<use x="335.90" y="436.80" xlink:href="#hl"/>
<use x="335.90" y="430.80" xlink:href="#hl"/>
<use x="335.90" y="424.80" xlink:href="#hl"/>
<use x="335.90" y="418.80" xlink:href="#hl"/>
<use x="335.90" y="418.80" xlink:href="#hd"/>
<path d="M332.40 418.80v42.00" class="stroke"/>
<path class="fill"
	d="M332.40 460.80c0.6 -5.6 9.6 -9 5.6 -18.4
	1.6 6 -1.3 11.6 -5.6 12.8
"/>
<use x="358.50" y="466.80" xlink:href="#hd"/>
<path d="M362.00 466.80v-21.00" class="stroke"/>
<path class="fill"
	d="M362.00 445.80c0.6 5.6 9.6 9 5.6 18.4
	1.6 -6 -1.3 -11.6 -5.6 -12.8
"/>
<use x="389.20" y="472.80" xlink:href="#hd"/>
<path d="M392.70 472.80v-21.00" class="stroke"/>
<path class="fill"
	d="M392.70 451.80c0.6 5.6 9.6 9 5.6 18.4
	1.6 -6 -1.3 -11.6 -5.6 -12.8
"/>
<use x="414.40" y="445.80" xlink:href="#hd"/>
<path d="M410.90 445.80v21.00" class="stroke"/>
<path class="fill"
	d="M410.90 466.80c0.6 -5.6 9.6 -9 5.6 -18.4
	1.6 6 -1.3 11.6 -5.6 12.8
"/>
<use x="439.50" y="442.80" xlink:href="#hl"/>
<use x="439.50" y="439.80" xlink:href="#hd"/>
<path d="M436.00 439.80v21.00" class="stroke"/>
<path class="fill"
	d="M436.00 460.80c0.6 -5.6 9.6 -9 5.6 -18.4
	1.6 6 -1.3 11.6 -5.6 12.8
"/>
<use x="464.60" y="442.80" xlink:href="#hl"/>
<use x="464.60" y="436.80" xlink:href="#hl"/>
<use x="464.60" y="433.80" xlink:href="#hd"/>
<path d="M461.10 433.80v27.00" class="stroke"/>
<path class="fill"
	d="M461.10 460.80c0.6 -5.6 9.6 -9 5.6 -18.4
	1.6 6 -1.3 11.6 -5.6 12.8
"/>
<use x="489.70" y="442.80" xlink:href="#hl"/>
<use x="489.70" y="436.80" xlink:href="#hl"/>
<use x="489.70" y="430.80" xlink:href="#hl"/>
<use x="489.70" y="430.80" xlink:href="#hd"/>
<path d="M486.20 430.80v30.00" class="stroke"/>
<path class="fill"
	d="M486.20 460.80c0.6 -5.6 9.6 -9 5.6 -18.4
	1.6 6 -1.3 11.6 -5.6 12.8
"/>
<use x="532.90" y="472.80" xlink:href="#hd"/>
<path d="M536.40 472.80v-21.00" class="stroke"/>
<path class="fill"
	d="M536.40 451.80c0.6 5.6 9.6 9 5.6 18.4
	1.6 -6 -1.3 -11.6 -5.6 -12.8
"/>
<use x="558.10" y="445.80" xlink:href="#hd"/>
<path d="M554.60 445.80v21.00" class="stroke"/>
<path class="fill"
	d="M554.60 466.80c0.6 -5.6 9.6 -9 5.6 -18.4
	1.6 6 -1.3 11.6 -5.6 12.8
"/>
<use x="583.20" y="442.80" xlink:href="#hl"/>
<use x="583.20" y="439.80" xlink:href="#hd"/>
<path d="M579.70 439.80v21.00" class="stroke"/>
<path class="fill"
	d="M579.70 460.80c0.6 -5.6 9.6 -9 5.6 -18.4
	1.6 6 -1.3 11.6 -5.6 12.8
"/>
<use x="608.30" y="442.80" xlink:href="#hl"/>
<use x="608.30" y="436.80" xlink:href="#hl"/>
<use x="608.30" y="433.80" xlink:href="#hd"/>
<path d="M604.80 433.80v27.00" class="stroke"/>
<path class="fill"
	d="M604.80 460.80c0.6 -5.6 9.6 -9 5.6 -18.4
	1.6 6 -1.3 11.6 -5.6 12.8
"/>
<use x="633.50" y="442.80" xlink:href="#hl"/>
<use x="633.50" y="436.80" xlink:href="#hl"/>
<use x="633.50" y="430.80" xlink:href="#hl"/>
<use x="633.50" y="430.80" xlink:href="#hd"/>
<path d="M630.00 430.80v30.00" class="stroke"/>
<path class="fill"
	d="M630.00 460.80c0.6 -5.6 9.6 -9 5.6 -18.4
	1.6 6 -1.3 11.6 -5.6 12.8
"/>
<use x="658.60" y="442.80" xlink:href="#hl"/>
<use x="658.60" y="436.80" xlink:href="#hl"/>
<use x="658.60" y="430.80" xlink:href="#hl"/>
<use x="658.60" y="424.80" xlink:href="#hl"/>
<use x="658.60" y="424.80" xlink:href="#hd"/>
<path d="M655.10 424.80v36.00" class="stroke"/>
<path class="fill"
	d="M655.10 460.80c0.6 -5.6 9.6 -9 5.6 -18.4
	1.6 6 -1.3 11.6 -5.6 12.8
"/>
<g transform="rotate(270)">
<use x="-460.80" y="59.50" xlink:href="#ltr"/>
<use x="-454.80" y="59.50" xlink:href="#ltr"/>
<use x="-448.80" y="59.50" xlink:href="#ltr"/>
<use x="-442.80" y="59.50" xlink:href="#ltr"/>
</g>
<text x="202.40" y="370.80" style="font:bold italic 30px serif">,</text>
</g>
<g stroke-width="0.70" style="font:italic 11.00px Times">
<path class="stroke" stroke-width="1"
	d="M10.00 623.80v-96.00"/>
<g transform="translate(10.00,527.80) scale(1,0.96)">
	<use xlink:href="#brace"/>
</g>
<path class="stroke" stroke-width="1"
	d="M241.20 551.80v-24.00"/>
<path class="stroke" stroke-width="1"
	d="M241.20 623.80v-24.00"/>
<path class="stroke" stroke-width="1"
	d="M367.00 551.80v-24.00"/>
<path class="stroke" stroke-width="1"
	d="M367.00 623.80v-24.00"/>
<path d="m10.00 551.80
	h357.00
	M10.00 545.80
	h357.00
	M10.00 539.80
	h357.00
	M10.00 533.80
	h357.00
	M10.00 527.80
	h357.00
	" class="stroke"/>
<path d="m10.00 623.80
	h357.00
	M10.00 617.80
	h357.00
	M10.00 611.80
	h357.00
	M10.00 605.80
	h357.00
	M10.00 599.80
	h357.00
	" class="stroke"/>
</g>
<g stroke-width="0.70" style="font:bold 13.00px Times">
<text x="47.00" y="518.20">vi<tspan
	 style="font:italic 11.00px Times">m⁷</tspan></text>
</g>
<g stroke-width="0.70" style="font:bold 13.00px Times">
<text x="257.20" y="508.20">iii<tspan
	 style="font:italic 11.00px Times">m⁷</tspan></text>
</g>
<g stroke-width="0.70" style="font:italic 11.00px Times">
<use x="22.00" y="545.80" xlink:href="#tclef"/>
<use x="37.00" y="527.80" xlink:href="#sh0"/>
<use x="55.00" y="548.80" xlink:href="#hd"/>
<path d="M58.50 548.80v-21.00" class="stroke"/>
<path class="fill"
	d="M58.50 527.80c0.6 5.6 9.6 9 5.6 18.4
	1.6 -6 -1.3 -11.6 -5.6 -12.8
"/>
<use x="83.30" y="545.80" xlink:href="#hd"/>
<circle class="fill" cx="91.00" cy="542.80" r="1.2"/>
<path d="M86.80 545.80v-21.00" class="stroke"/>
<path class="fill"
	d="M86.80 524.80c0.6 5.6 9.6 9 5.6 18.4
	1.6 -6 -1.3 -11.6 -5.6 -12.8
"/>
<use x="129.60" y="548.80" xlink:href="#hd"/>
<path d="M133.10 548.80v-22.00" class="stroke"/>
<path class="fill"
	d="M133.10 526.80c0.9 3.7 9.1 6.4 6 12.4
	1 -5.4 -4.2 -8.4 -6 -8.4
M133.10 532.20c0.9 3.7 9.1 6.4 6 12.4
	1 -5.4 -4.2 -8.4 -6 -8.4
"/>
<use x="149.60" y="551.80" xlink:href="#hd"/>
<path d="M153.10 551.80v-21.00" class="stroke"/>
<path class="fill"
	d="M153.10 530.80c0.6 5.6 9.6 9 5.6 18.4
	1.6 -6 -1.3 -11.6 -5.6 -12.8
"/>
<use x="177.90" y="554.80" xlink:href="#hd"/>
<circle class="fill" cx="185.60" cy="554.80" r="1.2"/>
<path d="M181.40 554.80v-21.00" class="stroke"/>
<path class="fill"
	d="M181.40 533.80c0.6 5.6 9.6 9 5.6 18.4
	1.6 -6 -1.3 -11.6 -5.6 -12.8
"/>
<use x="224.20" y="557.80" xlink:href="#hl"/>
<use x="224.20" y="557.80" xlink:href="#hd"/>
<path d="M227.70 557.80v-22.00" class="stroke"/>
<path class="fill"
	d="M227.70 535.80c0.9 3.7 9.1 6.4 6 12.4
	1 -5.4 -4.2 -8.4 -6 -8.4
M227.70 541.20c0.9 3.7 9.1 6.4 6 12.4
	1 -5.4 -4.2 -8.4 -6 -8.4
"/>
<use x="265.20" y="554.80" xlink:href="#hd"/>
<path d="M268.70 554.80v-40.00" class="stroke"/>
<path class="fill"
	d="M268.70 514.80c0.6 5.6 9.6 9 5.6 18.4
	1.6 -6 -1.3 -11.6 -5.6 -12.8
"/>
<use x="265.20" y="533.80" xlink:href="#hd"/>
<use x="293.50" y="551.80" xlink:href="#hd"/>
<circle class="fill" cx="301.20" cy="548.80" r="1.2"/>
<path d="M297.00 551.80v-40.00" class="stroke"/>
<use x="293.50" y="530.80" xlink:href="#hd"/>
<circle class="fill" cx="301.20" cy="530.80" r="1.2"/>
<use x="339.00" y="551.80" xlink:href="#hd"/>
<path d="M342.50 551.80v-40.00" class="stroke"/>
<use x="339.00" y="530.80" xlink:href="#hd"/>
<use x="22.00" y="605.80" xlink:href="#bclef"/>
<use x="37.00" y="605.80" xlink:href="#sh0"/>
<use x="55.00" y="608.80" xlink:href="#hd"/>
<path d="M51.50 608.80v21.00" class="stroke"/>
<path class="fill"
	d="M51.50 629.80c0.6 -5.6 9.6 -9 5.6 -18.4
	1.6 6 -1.3 11.6 -5.6 12.8
"/>
<use x="83.30" y="593.80" xlink:href="#hl"/>
<use x="83.30" y="587.80" xlink:href="#hl"/>
<use x="83.30" y="581.80" xlink:href="#hl"/>
<use x="83.30" y="581.80" xlink:href="#hd"/>
<path d="M79.80 581.80v30.00" class="stroke"/>
<path class="fill"
	d="M79.80 611.80c0.6 -5.6 9.6 -9 5.6 -18.4
	1.6 6 -1.3 11.6 -5.6 12.8
"/>
<use x="111.60" y="593.80" xlink:href="#hl"/>
<use x="111.60" y="587.80" xlink:href="#hl"/>
<use x="111.60" y="581.80" xlink:href="#hl"/>
<use x="111.60" y="575.80" xlink:href="#hl"/>
<use x="111.60" y="575.80" xlink:href="#hd"/>
<path d="M108.10 575.80v36.00" class="stroke"/>
<path class="fill"
	d="M108.10 611.80c0.6 -5.6 9.6 -9 5.6 -18.4
	1.6 6 -1.3 11.6 -5.6 12.8
"/>
<use x="149.60" y="593.80" xlink:href="#hl"/>
<use x="149.60" y="587.80" xlink:href="#hl"/>
<use x="149.60" y="581.80" xlink:href="#hl"/>
<use x="149.60" y="575.80" xlink:href="#hl"/>
<use x="149.60" y="569.80" xlink:href="#hl"/>
<use x="149.60" y="569.80" xlink:href="#hd"/>
<path d="M146.10 569.80v42.00" class="stroke"/>
<path class="fill"
	d="M146.10 611.80c0.6 -5.6 9.6 -9 5.6 -18.4
	1.6 6 -1.3 11.6 -5.6 12.8
"/>
<use x="177.90" y="593.80" xlink:href="#hl"/>
<use x="177.90" y="587.80" xlink:href="#hl"/>
<use x="177.90" y="581.80" xlink:href="#hl"/>
<use x="177.90" y="575.80" xlink:href="#hl"/>
<use x="177.90" y="569.80" xlink:href="#hl"/>
<use x="177.90" y="566.80" xlink:href="#hd"/>
<path d="M174.40 566.80v45.00" class="stroke"/>
<path class="fill"
	d="M174.40 611.80c0.6 -5.6 9.6 -9 5.6 -18.4
	1.6 6 -1.3 11.6 -5.6 12.8
"/>
<use x="206.20" y="593.80" xlink:href="#hl"/>
<use x="206.20" y="587.80" xlink:href="#hl"/>
<use x="206.20" y="581.80" xlink:href="#hl"/>
<use x="206.20" y="575.80" xlink:href="#hl"/>
<use x="206.20" y="569.80" xlink:href="#hl"/>
<use x="206.20" y="563.80" xlink:href="#hl"/>
<use x="206.20" y="560.80" xlink:href="#hd"/>
<path d="M202.70 560.80v51.00" class="stroke"/>
<path class="fill"
	d="M202.70 611.80c0.6 -5.6 9.6 -9 5.6 -18.4
	1.6 6 -1.3 11.6 -5.6 12.8
"/>
<use x="265.20" y="629.80" xlink:href="#hl"/>
<use x="265.20" y="635.80" xlink:href="#hl"/>
<use x="265.20" y="638.80" xlink:href="#Hd"/>
<circle class="fill" cx="273.90" cy="638.80" r="1.2"/>
<path d="M268.70 638.80v-58.00" class="stroke"/>
<use x="265.20" y="617.80" xlink:href="#Hd"/>
<circle class="fill" cx="273.90" cy="614.80" r="1.2"/>
<use x="265.20" y="611.80" xlink:href="#Hd"/>
<circle class="fill" cx="273.90" cy="608.80" r="1.2"/>
<use x="265.20" y="605.80" xlink:href="#Hd"/>
<circle class="fill" cx="273.90" cy="602.80" r="1.2"/>
<use x="265.20" y="599.80" xlink:href="#Hd"/>
<circle class="fill" cx="273.90" cy="596.80" r="1.2"/>
<defs>
<g id="hld" class="fill">
	<circle cx="0" cy="-3" r="1.3"/>
	<path d="m-7.5 -1.5
		c0 -11.5 15 -11.5 15 0
		h-0.25
		c-1.25 -9 -13.25 -9 -14.5 0"/>
</g>
</defs>
<use x="265.20" y="576.80" xlink:href="#hld"/>
<g transform="rotate(270)">
<use x="-641.80" y="255.20" xlink:href="#ltr"/>
<use x="-635.80" y="255.20" xlink:href="#ltr"/>
<use x="-629.80" y="255.20" xlink:href="#ltr"/>
<use x="-623.80" y="255.20" xlink:href="#ltr"/>
<use x="-617.80" y="255.20" xlink:href="#ltr"/>
<use x="-611.80" y="255.20" xlink:href="#ltr"/>
<use x="-605.80" y="255.20" xlink:href="#ltr"/>
<use x="-599.80" y="255.20" xlink:href="#ltr"/>
</g>
<use x="339.00" y="507.80" xlink:href="#hld"/>
<g transform="rotate(270)">
<use x="-554.80" y="329.00" xlink:href="#ltr"/>
<use x="-548.80" y="329.00" xlink:href="#ltr"/>
<use x="-542.80" y="329.00" xlink:href="#ltr"/>
<use x="-536.80" y="329.00" xlink:href="#ltr"/>
<use x="-530.80" y="329.00" xlink:href="#ltr"/>
</g>
</g>
</svg>
