<?xml version="1.0" standalone="no"?>
<!DOCTYPE svg PUBLIC "-//W3C//DTD SVG 1.1//EN"
	"http://www.w3.org/Graphics/SVG/1.1/DTD/svg11.dtd">
<svg xmlns="http://www.w3.org/2000/svg" version="1.1"
	xmlns:xlink="http://www.w3.org/1999/xlink"
	color="black"
	width="701.60px" height="815.60px" viewBox="0 0 701.60 815.60" preserveAspectRatio="xMidYMid meet">
<style type="text/css">
.fill {fill: currentColor}
.stroke {stroke: currentColor; fill: none}
text{white-space: pre}
</style>
<title>/tmp/retab_hymnal_L1/alleluia_sing_to_jesus.abc (1) tune 1</title>
<!-- Creator: abcm2ps-8.14.11 -->
<!-- CreationDate: Apr 24, 2026 15:38 -->
<!-- CommandLine: /tmp/retab_hymnal_L1/alleluia_sing_to_jesus.abc -g -O /tmp/retab_hymnal_L1/alleluia_sing_to_jesus -->
<g stroke-width="0.70">
<!-- title: 018. Alleluia, Sing To Jesus! -->
</g>
<g stroke-width="0.70" style="font:20.00px Times">
<text x="350.80" y="22.00" text-anchor="middle">018. Alleluia, Sing To Jesus!</text>
</g>
<g stroke-width="0.70" style="font:20.00px Times">
<path class="stroke" stroke-width="1"
	d="M10.00 145.40v-82.00"/>
<defs>
<path id="brace" class="fill" d="m-2.5 101
	c-4.5 -4.6 -7.5 -12.2 -4.4 -26.8
	3.5 -14.3 3.2 -21.7 -2.1 -24.2
	7.4 2.4 7.3 14.2 3.5 29.5
	-2.7 9.5 -1.5 16.2 3 21.5
	M-2.5 1c-4.5 4.6 -7.5 12.2 -4.4 26.8
	c3.5 14.3 3.2 21.7 -2.1 24.2
	7.4 -2.4 7.3 -14.2 3.5 -29.5
	-2.7 -9.5 -1.5 -16.2 3 -21.5"/>
</defs>
<g transform="translate(10.00,63.40) scale(1,0.82)">
	<use xlink:href="#brace"/>
</g>
<path class="stroke" stroke-width="1"
	d="M156.30 87.40v-24.00"/>
<path class="stroke" stroke-width="1"
	d="M156.30 145.40v-24.00"/>
<path class="stroke" stroke-width="1"
	d="M272.40 87.40v-24.00"/>
<path class="stroke" stroke-width="1"
	d="M272.40 145.40v-24.00"/>
<path class="stroke" stroke-width="1"
	d="M371.40 87.40v-24.00"/>
<path class="stroke" stroke-width="1"
	d="M371.40 145.40v-24.00"/>
<path class="stroke" stroke-width="1"
	d="M493.70 87.40v-24.00"/>
<path class="stroke" stroke-width="1"
	d="M493.70 145.40v-24.00"/>
<path class="stroke" stroke-width="1"
	d="M592.70 87.40v-24.00"/>
<path class="stroke" stroke-width="1"
	d="M592.70 145.40v-24.00"/>
<path class="stroke" stroke-width="1"
	d="M691.60 87.40v-24.00"/>
<path class="stroke" stroke-width="1"
	d="M691.60 145.40v-24.00"/>
<path d="m10.00 87.40
	h681.60
	M10.00 81.40
	h681.60
	M10.00 75.40
	h681.60
	M10.00 69.40
	h681.60
	M10.00 63.40
	h681.60
	" class="stroke"/>
<path d="m10.00 145.40
	h681.60
	M10.00 139.40
	h681.60
	M10.00 133.40
	h681.60
	M10.00 127.40
	h681.60
	M10.00 121.40
	h681.60
	" class="stroke"/>
</g>
<g stroke-width="0.70" style="font:bold 13.00px Times">
<text x="67.70" y="56.80">I<tspan
	 style="font:italic 11.00px Times">¹</tspan></text>
</g>
<g stroke-width="0.70" style="font:bold 13.00px Times">
<text x="168.60" y="56.80">I</text>
</g>
<g stroke-width="0.70" style="font:bold 13.00px Times">
<text x="278.80" y="47.80">V<tspan
	 style="font:italic 11.00px Times">⁷¹</tspan></text>
</g>
<g stroke-width="0.70" style="font:bold 13.00px Times">
<text x="381.60" y="53.80">V</text>
</g>
<g stroke-width="0.70" style="font:bold 13.00px Times">
<text x="504.10" y="58.80">I<tspan
	 style="font:italic 11.00px Times">¹</tspan></text>
</g>
<g stroke-width="0.70" style="font:bold 13.00px Times">
<text x="605.00" y="50.80">I</text>
<defs>
<path id="utclef" class="fill" d="m-50 -90
	c-72 -41 -72 -158 52 -188
	150 -10 220 188 90 256
	-114 52 -275 0 -293 -136
	-15 -181 93 -229 220 -334
	88 -87 79 -133 62 -210
	-51 33 -94 105 -89 186
	17 267 36 374 49 574
	6 96 -19 134 -77 135
	-80 1 -126 -93 -61 -133
	85 -41 133 101 31 105
	23 17 92 37 90 -92
	-10 -223 -39 -342 -50 -617
	0 -90 0 -162 96 -232
	56 72 63 230 22 289
	-74 106 -257 168 -255 316
	9 153 148 185 252 133
	86 -65 29 -192 -80 -176
	-71 12 -105 67 -59 124"/>
<use id="tclef" transform="translate(0,6) scale(0.045)"
	xlink:href="#utclef"/>
</defs>
<use x="22.00" y="81.40" xlink:href="#tclef"/>
<defs>
<path id="uflat" class="fill" d="
	m100 -746
	h32
	v734
	l-32 4
	m32 -332
	c46 -72 152 -90 208 -20
	100 110 -120 326 -208 348
	m0 -28
	c54 0 200 -206 130 -290
	-50 -60 -130 -4 -130 34"/>
<use id="ft0" transform="translate(-3.5,3.5) scale(0.018)"
	xlink:href="#uflat"/>
</defs>
<use x="37.00" y="75.40" xlink:href="#ft0"/>
<g style="font:bold 16px serif"
	transform="translate(53.00,86.90) scale(1.2,1)">
	<text text-anchor="middle">4</text>
	<text y="-12" text-anchor="middle">3</text>
</g>
<defs>
<path id="Hd" class="fill" d="m3 -1.6
	c-1 -1.8 -7 1.4 -6 3.2
	1 1.8 7 -1.4 6 -3.2
	m0.5 -0.3
	c2 3.8 -5 7.6 -7 3.8
	-2 -3.8 5 -7.6 7 -3.8"/>
</defs>
<use x="71.50" y="84.40" xlink:href="#Hd"/>
<path d="M75.00 84.40v-21.00" class="stroke"/>
<defs>
<ellipse id="hd" rx="4.1" ry="2.9"
	transform="rotate(-20)" class="fill"/>
</defs>
<use x="128.20" y="81.40" xlink:href="#hd"/>
<path d="M131.70 81.40v-21.00" class="stroke"/>
<use x="170.40" y="84.40" xlink:href="#hd"/>
<circle class="fill" cx="178.10" cy="84.40" r="1.2"/>
<path d="M173.90 84.40v-21.00" class="stroke"/>
<use x="216.00" y="81.40" xlink:href="#hd"/>
<path d="M219.50 81.40v-21.00" class="stroke"/>
<path class="fill"
	d="M219.50 60.40c0.6 5.6 9.6 9 5.6 18.4
	1.6 -6 -1.3 -11.6 -5.6 -12.8
"/>
<use x="244.40" y="78.40" xlink:href="#hd"/>
<path d="M247.90 78.40v-21.00" class="stroke"/>
<use x="286.60" y="75.40" xlink:href="#Hd"/>
<path d="M290.10 75.40v-21.00" class="stroke"/>
<use x="343.30" y="78.40" xlink:href="#hd"/>
<path d="M346.80 78.40v-21.00" class="stroke"/>
<use x="385.50" y="81.40" xlink:href="#hd"/>
<path d="M389.00 81.40v-21.00" class="stroke"/>
<use x="425.60" y="84.40" xlink:href="#hd"/>
<path d="M429.10 84.40v-21.00" class="stroke"/>
<use x="465.70" y="81.40" xlink:href="#hd"/>
<path d="M469.20 81.40v-21.00" class="stroke"/>
<use x="507.90" y="72.40" xlink:href="#Hd"/>
<path d="M504.40 72.40v21.00" class="stroke"/>
<use x="564.60" y="75.40" xlink:href="#hd"/>
<path d="M561.10 75.40v21.00" class="stroke"/>
<use x="606.80" y="78.40" xlink:href="#Hd"/>
<path d="M610.30 78.40v-21.00" class="stroke"/>
<use x="663.50" y="78.40" xlink:href="#hd"/>
<path d="M667.00 78.40v-21.00" class="stroke"/>
<defs>
<path id="ubclef" class="fill" d="m-200 -87
	c124 -35 222 -78 254 -236
	43 -228 -167 -246 -192 -103
	59 -80 157 22 92 78
	-62 47 -115 -22 -106 -88
	21 -141 270 -136 274 52
	-1 175 -106 264 -322 297
	m357 -250
	c0 -36 51 -34 51 0
	0 37 -51 36 -51 0
	m-2 -129
	c0 -36 51 -34 51 0
	0 38 -51 37 -51 0"/>
<use id="bclef" transform="translate(0,18) scale(0.045)"
	xlink:href="#ubclef"/>
</defs>
<use x="22.00" y="127.40" xlink:href="#bclef"/>
<use x="37.00" y="139.40" xlink:href="#ft0"/>
<g style="font:bold 16px serif"
	transform="translate(53.00,144.90) scale(1.2,1)">
	<text text-anchor="middle">4</text>
	<text y="-12" text-anchor="middle">3</text>
</g>
<use x="71.50" y="148.40" xlink:href="#Hd"/>
<path d="M75.00 148.40v-31.00" class="stroke"/>
<use x="71.50" y="142.40" xlink:href="#Hd"/>
<use x="71.50" y="136.40" xlink:href="#Hd"/>
<use x="128.20" y="148.40" xlink:href="#hd"/>
<path d="M131.70 148.40v-31.00" class="stroke"/>
<use x="128.20" y="142.40" xlink:href="#hd"/>
<use x="128.20" y="136.40" xlink:href="#hd"/>
<use x="170.40" y="148.40" xlink:href="#hd"/>
<circle class="fill" cx="178.10" cy="148.40" r="1.2"/>
<path d="M173.90 148.40v-31.00" class="stroke"/>
<use x="170.40" y="142.40" xlink:href="#hd"/>
<circle class="fill" cx="178.10" cy="142.40" r="1.2"/>
<use x="170.40" y="136.40" xlink:href="#hd"/>
<circle class="fill" cx="178.10" cy="136.40" r="1.2"/>
<use x="216.00" y="148.40" xlink:href="#hd"/>
<path d="M219.50 148.40v-31.00" class="stroke"/>
<path class="fill"
	d="M219.50 117.40c0.6 5.6 9.6 9 5.6 18.4
	1.6 -6 -1.3 -11.6 -5.6 -12.8
"/>
<use x="216.00" y="142.40" xlink:href="#hd"/>
<use x="216.00" y="136.40" xlink:href="#hd"/>
<use x="244.40" y="148.40" xlink:href="#hd"/>
<path d="M247.90 148.40v-31.00" class="stroke"/>
<use x="244.40" y="142.40" xlink:href="#hd"/>
<use x="244.40" y="136.40" xlink:href="#hd"/>
<use x="286.60" y="124.40" xlink:href="#Hd"/>
<path d="M283.10 124.40v31.00" class="stroke"/>
<use x="286.60" y="136.40" xlink:href="#Hd"/>
<use x="286.60" y="130.40" xlink:href="#Hd"/>
<use x="343.30" y="124.40" xlink:href="#hd"/>
<path d="M339.80 124.40v31.00" class="stroke"/>
<use x="343.30" y="136.40" xlink:href="#hd"/>
<use x="343.30" y="130.40" xlink:href="#hd"/>
<use x="385.50" y="124.40" xlink:href="#hd"/>
<path d="M382.00 124.40v31.00" class="stroke"/>
<use x="385.50" y="136.40" xlink:href="#hd"/>
<use x="385.50" y="130.40" xlink:href="#hd"/>
<use x="425.60" y="124.40" xlink:href="#hd"/>
<path d="M422.10 124.40v31.00" class="stroke"/>
<use x="425.60" y="136.40" xlink:href="#hd"/>
<use x="425.60" y="130.40" xlink:href="#hd"/>
<use x="465.70" y="124.40" xlink:href="#hd"/>
<path d="M462.20 124.40v31.00" class="stroke"/>
<use x="465.70" y="136.40" xlink:href="#hd"/>
<use x="465.70" y="130.40" xlink:href="#hd"/>
<use x="507.90" y="148.40" xlink:href="#Hd"/>
<path d="M511.40 148.40v-31.00" class="stroke"/>
<use x="507.90" y="142.40" xlink:href="#Hd"/>
<use x="507.90" y="136.40" xlink:href="#Hd"/>
<use x="564.60" y="148.40" xlink:href="#hd"/>
<path d="M568.10 148.40v-31.00" class="stroke"/>
<use x="564.60" y="142.40" xlink:href="#hd"/>
<use x="564.60" y="136.40" xlink:href="#hd"/>
<use x="606.80" y="148.40" xlink:href="#Hd"/>
<path d="M610.30 148.40v-31.00" class="stroke"/>
<use x="606.80" y="142.40" xlink:href="#Hd"/>
<use x="606.80" y="136.40" xlink:href="#Hd"/>
<use x="663.50" y="148.40" xlink:href="#hd"/>
<path d="M667.00 148.40v-31.00" class="stroke"/>
<use x="663.50" y="142.40" xlink:href="#hd"/>
<use x="663.50" y="136.40" xlink:href="#hd"/>
</g>
<g stroke-width="0.70" style="font:bold 13.00px Times">
<path class="stroke" stroke-width="1"
	d="M10.00 275.80v-82.00"/>
<g transform="translate(10.00,193.80) scale(1,0.82)">
	<use xlink:href="#brace"/>
</g>
<path class="stroke" stroke-width="1"
	d="M169.00 217.80v-24.00"/>
<path class="stroke" stroke-width="1"
	d="M169.00 275.80v-24.00"/>
<path class="stroke" stroke-width="1"
	d="M231.60 217.80v-24.00"/>
<path class="stroke" stroke-width="1"
	d="M231.60 275.80v-24.00"/>
<path class="stroke" stroke-width="1"
	d="M335.90 217.80v-24.00"/>
<path class="stroke" stroke-width="1"
	d="M335.90 275.80v-24.00"/>
<path class="stroke" stroke-width="1"
	d="M458.30 217.80v-24.00"/>
<path class="stroke" stroke-width="1"
	d="M458.30 275.80v-24.00"/>
<path class="stroke" stroke-width="1"
	d="M562.60 217.80v-24.00"/>
<path class="stroke" stroke-width="1"
	d="M562.60 275.80v-24.00"/>
<path class="stroke" stroke-width="1"
	d="M691.60 217.80v-24.00"/>
<path class="stroke" stroke-width="1"
	d="M691.60 275.80v-24.00"/>
<path d="m10.00 217.80
	h681.60
	M10.00 211.80
	h681.60
	M10.00 205.80
	h681.60
	M10.00 199.80
	h681.60
	M10.00 193.80
	h681.60
	" class="stroke"/>
<path d="m10.00 275.80
	h681.60
	M10.00 269.80
	h681.60
	M10.00 263.80
	h681.60
	M10.00 257.80
	h681.60
	M10.00 251.80
	h681.60
	" class="stroke"/>
</g>
<g stroke-width="0.70" style="font:bold 13.00px Times">
<text x="49.20" y="184.20">IV</text>
</g>
<g stroke-width="0.70" style="font:bold 13.00px Times">
<text x="182.20" y="187.20">I</text>
</g>
<g stroke-width="0.70" style="font:bold 13.00px Times">
<text x="242.80" y="187.20">I<tspan
	 style="font:italic 11.00px Times">¹</tspan></text>
</g>
<g stroke-width="0.70" style="font:bold 13.00px Times">
<text x="349.00" y="187.20">I</text>
</g>
<g stroke-width="0.70" style="font:bold 13.00px Times">
<text x="465.40" y="178.20">V<tspan
	 style="font:italic 11.00px Times">⁷¹</tspan></text>
</g>
<g stroke-width="0.70" style="font:bold 13.00px Times">
<text x="573.60" y="184.20">V</text>
<use x="22.00" y="211.80" xlink:href="#tclef"/>
<use x="37.00" y="205.80" xlink:href="#ft0"/>
<use x="55.00" y="211.80" xlink:href="#hd"/>
<path d="M58.50 211.80v-21.00" class="stroke"/>
<use x="97.20" y="214.80" xlink:href="#hd"/>
<path d="M100.70 214.80v-21.00" class="stroke"/>
<use x="139.50" y="211.80" xlink:href="#hd"/>
<path d="M143.00 211.80v-21.00" class="stroke"/>
<use x="184.00" y="214.80" xlink:href="#Hd"/>
<circle class="fill" cx="192.70" cy="214.80" r="1.2"/>
<path d="M187.50 214.80v-21.00" class="stroke"/>
<use x="246.50" y="214.80" xlink:href="#Hd"/>
<path d="M250.00 214.80v-21.00" class="stroke"/>
<use x="306.30" y="211.80" xlink:href="#hd"/>
<path d="M309.80 211.80v-21.00" class="stroke"/>
<use x="350.80" y="214.80" xlink:href="#hd"/>
<circle class="fill" cx="358.50" cy="214.80" r="1.2"/>
<path d="M354.30 214.80v-21.00" class="stroke"/>
<use x="398.90" y="211.80" xlink:href="#hd"/>
<path d="M402.40 211.80v-21.00" class="stroke"/>
<path class="fill"
	d="M402.40 190.80c0.6 5.6 9.6 9 5.6 18.4
	1.6 -6 -1.3 -11.6 -5.6 -12.8
"/>
<use x="428.80" y="208.80" xlink:href="#hd"/>
<path d="M432.30 208.80v-21.00" class="stroke"/>
<use x="473.30" y="205.80" xlink:href="#Hd"/>
<path d="M476.80 205.80v-21.00" class="stroke"/>
<use x="533.00" y="208.80" xlink:href="#hd"/>
<path d="M536.50 208.80v-21.00" class="stroke"/>
<use x="577.60" y="211.80" xlink:href="#hd"/>
<path d="M581.10 211.80v-21.00" class="stroke"/>
<use x="619.80" y="214.80" xlink:href="#hd"/>
<path d="M623.30 214.80v-21.00" class="stroke"/>
<use x="662.00" y="211.80" xlink:href="#hd"/>
<path d="M665.50 211.80v-21.00" class="stroke"/>
<use x="22.00" y="257.80" xlink:href="#bclef"/>
<use x="37.00" y="269.80" xlink:href="#ft0"/>
<use x="55.00" y="269.80" xlink:href="#hd"/>
<path d="M58.50 269.80v-31.00" class="stroke"/>
<use x="55.00" y="263.80" xlink:href="#hd"/>
<use x="55.00" y="257.80" xlink:href="#hd"/>
<use x="97.20" y="269.80" xlink:href="#hd"/>
<path d="M100.70 269.80v-31.00" class="stroke"/>
<use x="97.20" y="263.80" xlink:href="#hd"/>
<use x="97.20" y="257.80" xlink:href="#hd"/>
<use x="139.50" y="269.80" xlink:href="#hd"/>
<path d="M143.00 269.80v-31.00" class="stroke"/>
<use x="139.50" y="263.80" xlink:href="#hd"/>
<use x="139.50" y="257.80" xlink:href="#hd"/>
<use x="184.00" y="278.80" xlink:href="#Hd"/>
<circle class="fill" cx="192.70" cy="278.80" r="1.2"/>
<path d="M187.50 278.80v-31.00" class="stroke"/>
<use x="184.00" y="272.80" xlink:href="#Hd"/>
<circle class="fill" cx="192.70" cy="272.80" r="1.2"/>
<use x="184.00" y="266.80" xlink:href="#Hd"/>
<circle class="fill" cx="192.70" cy="266.80" r="1.2"/>
<use x="246.50" y="278.80" xlink:href="#Hd"/>
<path d="M250.00 278.80v-31.00" class="stroke"/>
<use x="246.50" y="272.80" xlink:href="#Hd"/>
<use x="246.50" y="266.80" xlink:href="#Hd"/>
<use x="306.30" y="278.80" xlink:href="#hd"/>
<path d="M309.80 278.80v-31.00" class="stroke"/>
<use x="306.30" y="272.80" xlink:href="#hd"/>
<use x="306.30" y="266.80" xlink:href="#hd"/>
<use x="350.80" y="278.80" xlink:href="#hd"/>
<circle class="fill" cx="358.50" cy="278.80" r="1.2"/>
<path d="M354.30 278.80v-31.00" class="stroke"/>
<use x="350.80" y="272.80" xlink:href="#hd"/>
<circle class="fill" cx="358.50" cy="272.80" r="1.2"/>
<use x="350.80" y="266.80" xlink:href="#hd"/>
<circle class="fill" cx="358.50" cy="266.80" r="1.2"/>
<use x="398.90" y="278.80" xlink:href="#hd"/>
<path d="M402.40 278.80v-31.00" class="stroke"/>
<path class="fill"
	d="M402.40 247.80c0.6 5.6 9.6 9 5.6 18.4
	1.6 -6 -1.3 -11.6 -5.6 -12.8
"/>
<use x="398.90" y="272.80" xlink:href="#hd"/>
<use x="398.90" y="266.80" xlink:href="#hd"/>
<use x="428.80" y="278.80" xlink:href="#hd"/>
<path d="M432.30 278.80v-31.00" class="stroke"/>
<use x="428.80" y="272.80" xlink:href="#hd"/>
<use x="428.80" y="266.80" xlink:href="#hd"/>
<use x="473.30" y="254.80" xlink:href="#Hd"/>
<path d="M469.80 254.80v31.00" class="stroke"/>
<use x="473.30" y="266.80" xlink:href="#Hd"/>
<use x="473.30" y="260.80" xlink:href="#Hd"/>
<use x="533.00" y="254.80" xlink:href="#hd"/>
<path d="M529.50 254.80v31.00" class="stroke"/>
<use x="533.00" y="266.80" xlink:href="#hd"/>
<use x="533.00" y="260.80" xlink:href="#hd"/>
<use x="577.60" y="254.80" xlink:href="#hd"/>
<path d="M574.10 254.80v31.00" class="stroke"/>
<use x="577.60" y="266.80" xlink:href="#hd"/>
<use x="577.60" y="260.80" xlink:href="#hd"/>
<use x="619.80" y="254.80" xlink:href="#hd"/>
<path d="M616.30 254.80v31.00" class="stroke"/>
<use x="619.80" y="266.80" xlink:href="#hd"/>
<use x="619.80" y="260.80" xlink:href="#hd"/>
<use x="662.00" y="254.80" xlink:href="#hd"/>
<path d="M658.50 254.80v31.00" class="stroke"/>
<use x="662.00" y="266.80" xlink:href="#hd"/>
<use x="662.00" y="260.80" xlink:href="#hd"/>
</g>
<g stroke-width="0.70" style="font:bold 13.00px Times">
<path class="stroke" stroke-width="1"
	d="M10.00 406.20v-82.00"/>
<g transform="translate(10.00,324.20) scale(1,0.82)">
	<use xlink:href="#brace"/>
</g>
<path class="stroke" stroke-width="1"
	d="M134.10 348.20v-24.00"/>
<path class="stroke" stroke-width="1"
	d="M134.10 406.20v-24.00"/>
<path class="stroke" stroke-width="1"
	d="M225.80 348.20v-24.00"/>
<path class="stroke" stroke-width="1"
	d="M225.80 406.20v-24.00"/>
<path class="stroke" stroke-width="1"
	d="M339.40 348.20v-24.00"/>
<path class="stroke" stroke-width="1"
	d="M339.40 406.20v-24.00"/>
<path class="stroke" stroke-width="1"
	d="M394.50 348.20v-24.00"/>
<path class="stroke" stroke-width="1"
	d="M394.50 406.20v-24.00"/>
<path class="stroke" stroke-width="1"
	d="M486.30 348.20v-24.00"/>
<path class="stroke" stroke-width="1"
	d="M486.30 406.20v-24.00"/>
<path class="stroke" stroke-width="1"
	d="M599.80 348.20v-24.00"/>
<path class="stroke" stroke-width="1"
	d="M599.80 406.20v-24.00"/>
<path class="stroke" stroke-width="1"
	d="M691.60 348.20v-24.00"/>
<path class="stroke" stroke-width="1"
	d="M691.60 406.20v-24.00"/>
<path d="m10.00 348.20
	h681.60
	M10.00 342.20
	h681.60
	M10.00 336.20
	h681.60
	M10.00 330.20
	h681.60
	M10.00 324.20
	h681.60
	" class="stroke"/>
<path d="m10.00 406.20
	h681.60
	M10.00 400.20
	h681.60
	M10.00 394.20
	h681.60
	M10.00 388.20
	h681.60
	M10.00 382.20
	h681.60
	" class="stroke"/>
</g>
<g stroke-width="0.70" style="font:bold 13.00px Times">
<text x="51.70" y="319.60">I<tspan
	 style="font:italic 11.00px Times">¹</tspan></text>
</g>
<g stroke-width="0.70" style="font:bold 13.00px Times">
<text x="145.50" y="311.60">I</text>
</g>
<g stroke-width="0.70" style="font:bold 13.00px Times">
<text x="233.30" y="314.60">IV</text>
</g>
<g stroke-width="0.70" style="font:bold 13.00px Times">
<text x="350.80" y="317.60">I</text>
</g>
<g stroke-width="0.70" style="font:bold 13.00px Times">
<text x="403.20" y="319.60">iii</text>
</g>
<g stroke-width="0.70" style="font:bold 13.00px Times">
<text x="493.30" y="319.60">vi<tspan
	 style="font:italic 11.00px Times">⁷</tspan></text>
</g>
<g stroke-width="0.70" style="font:bold 13.00px Times">
<text x="608.00" y="308.60">ii<tspan
	 style="font:italic 11.00px Times">⁷</tspan></text>
</g>
<g stroke-width="0.70" style="font:italic 11.00px Times">
<use x="22.00" y="342.20" xlink:href="#tclef"/>
<use x="37.00" y="336.20" xlink:href="#ft0"/>
<use x="55.50" y="333.20" xlink:href="#Hd"/>
<path d="M52.00 333.20v21.00" class="stroke"/>
<use x="108.00" y="336.20" xlink:href="#hd"/>
<path d="M104.50 336.20v21.00" class="stroke"/>
<use x="147.30" y="339.20" xlink:href="#Hd"/>
<path d="M150.80 339.20v-21.00" class="stroke"/>
<use x="199.80" y="339.20" xlink:href="#hd"/>
<path d="M203.30 339.20v-21.00" class="stroke"/>
<use x="239.10" y="342.20" xlink:href="#hd"/>
<path d="M242.60 342.20v-21.00" class="stroke"/>
<use x="276.20" y="345.20" xlink:href="#hd"/>
<path d="M279.70 345.20v-21.00" class="stroke"/>
<use x="313.30" y="342.20" xlink:href="#hd"/>
<path d="M316.80 342.20v-21.00" class="stroke"/>
<use x="352.60" y="345.20" xlink:href="#Hd"/>
<circle class="fill" cx="361.30" cy="345.20" r="1.2"/>
<path d="M356.10 345.20v-21.00" class="stroke"/>
<use x="407.70" y="333.20" xlink:href="#Hd"/>
<path d="M404.20 333.20v21.00" class="stroke"/>
<use x="460.30" y="333.20" xlink:href="#hd"/>
<path d="M456.80 333.20v21.00" class="stroke"/>
<use x="499.50" y="333.20" xlink:href="#hd"/>
<path d="M496.00 333.20v21.00" class="stroke"/>
<use x="536.60" y="336.20" xlink:href="#hd"/>
<path d="M533.10 336.20v21.00" class="stroke"/>
<use x="573.80" y="339.20" xlink:href="#hd"/>
<path d="M577.30 339.20v-21.00" class="stroke"/>
<use x="613.00" y="336.20" xlink:href="#Hd"/>
<path d="M616.50 336.20v-21.00" class="stroke"/>
<use x="665.60" y="336.20" xlink:href="#hd"/>
<path d="M669.10 336.20v-21.00" class="stroke"/>
<use x="22.00" y="388.20" xlink:href="#bclef"/>
<use x="37.00" y="400.20" xlink:href="#ft0"/>
<use x="55.50" y="409.20" xlink:href="#Hd"/>
<path d="M59.00 409.20v-31.00" class="stroke"/>
<use x="55.50" y="403.20" xlink:href="#Hd"/>
<use x="55.50" y="397.20" xlink:href="#Hd"/>
<use x="108.00" y="409.20" xlink:href="#hd"/>
<path d="M111.50 409.20v-31.00" class="stroke"/>
<use x="108.00" y="403.20" xlink:href="#hd"/>
<use x="108.00" y="397.20" xlink:href="#hd"/>
<use x="147.30" y="409.20" xlink:href="#Hd"/>
<path d="M150.80 409.20v-31.00" class="stroke"/>
<use x="147.30" y="403.20" xlink:href="#Hd"/>
<use x="147.30" y="397.20" xlink:href="#Hd"/>
<use x="199.80" y="409.20" xlink:href="#hd"/>
<path d="M203.30 409.20v-31.00" class="stroke"/>
<use x="199.80" y="403.20" xlink:href="#hd"/>
<use x="199.80" y="397.20" xlink:href="#hd"/>
<use x="239.10" y="400.20" xlink:href="#hd"/>
<path d="M242.60 400.20v-31.00" class="stroke"/>
<use x="239.10" y="394.20" xlink:href="#hd"/>
<use x="239.10" y="388.20" xlink:href="#hd"/>
<use x="276.20" y="400.20" xlink:href="#hd"/>
<path d="M279.70 400.20v-31.00" class="stroke"/>
<use x="276.20" y="394.20" xlink:href="#hd"/>
<use x="276.20" y="388.20" xlink:href="#hd"/>
<use x="313.30" y="400.20" xlink:href="#hd"/>
<path d="M316.80 400.20v-31.00" class="stroke"/>
<use x="313.30" y="394.20" xlink:href="#hd"/>
<use x="313.30" y="388.20" xlink:href="#hd"/>
<use x="352.60" y="409.20" xlink:href="#Hd"/>
<circle class="fill" cx="361.30" cy="409.20" r="1.2"/>
<path d="M356.10 409.20v-31.00" class="stroke"/>
<use x="352.60" y="403.20" xlink:href="#Hd"/>
<circle class="fill" cx="361.30" cy="403.20" r="1.2"/>
<use x="352.60" y="397.20" xlink:href="#Hd"/>
<circle class="fill" cx="361.30" cy="397.20" r="1.2"/>
<use x="407.70" y="403.20" xlink:href="#Hd"/>
<path d="M411.20 403.20v-31.00" class="stroke"/>
<use x="407.70" y="397.20" xlink:href="#Hd"/>
<use x="407.70" y="391.20" xlink:href="#Hd"/>
<use x="460.30" y="403.20" xlink:href="#hd"/>
<path d="M463.80 403.20v-31.00" class="stroke"/>
<use x="460.30" y="397.20" xlink:href="#hd"/>
<use x="460.30" y="391.20" xlink:href="#hd"/>
<use x="499.50" y="382.20" xlink:href="#hd"/>
<path d="M496.00 382.20v31.00" class="stroke"/>
<use x="499.50" y="394.20" xlink:href="#hd"/>
<use x="499.50" y="388.20" xlink:href="#hd"/>
<use x="536.60" y="382.20" xlink:href="#hd"/>
<path d="M533.10 382.20v31.00" class="stroke"/>
<use x="536.60" y="394.20" xlink:href="#hd"/>
<use x="536.60" y="388.20" xlink:href="#hd"/>
<use x="573.80" y="382.20" xlink:href="#hd"/>
<path d="M570.30 382.20v31.00" class="stroke"/>
<use x="573.80" y="394.20" xlink:href="#hd"/>
<use x="573.80" y="388.20" xlink:href="#hd"/>
<use x="613.00" y="406.20" xlink:href="#Hd"/>
<path d="M616.50 406.20v-31.00" class="stroke"/>
<use x="613.00" y="400.20" xlink:href="#Hd"/>
<use x="613.00" y="394.20" xlink:href="#Hd"/>
<use x="665.60" y="406.20" xlink:href="#hd"/>
<path d="M669.10 406.20v-31.00" class="stroke"/>
<use x="665.60" y="400.20" xlink:href="#hd"/>
<use x="665.60" y="394.20" xlink:href="#hd"/>
</g>
<g stroke-width="0.70" style="font:italic 11.00px Times">
<path class="stroke" stroke-width="1"
	d="M10.00 536.60v-82.00"/>
<g transform="translate(10.00,454.60) scale(1,0.82)">
	<use xlink:href="#brace"/>
</g>
<path class="stroke" stroke-width="1"
	d="M163.70 478.60v-24.00"/>
<path class="stroke" stroke-width="1"
	d="M163.70 536.60v-24.00"/>
<path class="stroke" stroke-width="1"
	d="M263.10 478.60v-24.00"/>
<path class="stroke" stroke-width="1"
	d="M263.10 536.60v-24.00"/>
<path class="stroke" stroke-width="1"
	d="M386.10 478.60v-24.00"/>
<path class="stroke" stroke-width="1"
	d="M386.10 536.60v-24.00"/>
<path class="stroke" stroke-width="1"
	d="M509.00 478.60v-24.00"/>
<path class="stroke" stroke-width="1"
	d="M509.00 536.60v-24.00"/>
<path class="stroke" stroke-width="1"
	d="M568.60 478.60v-24.00"/>
<path class="stroke" stroke-width="1"
	d="M568.60 536.60v-24.00"/>
<path class="stroke" stroke-width="1"
	d="M691.60 478.60v-24.00"/>
<path class="stroke" stroke-width="1"
	d="M691.60 536.60v-24.00"/>
<path d="m10.00 478.60
	h681.60
	M10.00 472.60
	h681.60
	M10.00 466.60
	h681.60
	M10.00 460.60
	h681.60
	M10.00 454.60
	h681.60
	" class="stroke"/>
<path d="m10.00 536.60
	h681.60
	M10.00 530.60
	h681.60
	M10.00 524.60
	h681.60
	M10.00 518.60
	h681.60
	M10.00 512.60
	h681.60
	" class="stroke"/>
</g>
<g stroke-width="0.70" style="font:bold 13.00px Times">
<text x="49.10" y="439.00">V<tspan
	 style="font:italic 11.00px Times">⁷</tspan></text>
</g>
<g stroke-width="0.70" style="font:bold 13.00px Times">
<text x="176.10" y="442.00">I</text>
</g>
<g stroke-width="0.70" style="font:bold 13.00px Times">
<text x="273.10" y="442.00">vi</text>
</g>
<g stroke-width="0.70" style="font:bold 13.00px Times">
<text x="394.60" y="448.00">IV</text>
</g>
<g stroke-width="0.70" style="font:bold 13.00px Times">
<text x="519.30" y="445.00">V</text>
</g>
<g stroke-width="0.70" style="font:bold 13.00px Times">
<text x="579.10" y="450.00">I<tspan
	 style="font:italic 11.00px Times">¹</tspan></text>
</g>
<g stroke-width="0.70" style="font:italic 11.00px Times">
<use x="22.00" y="472.60" xlink:href="#tclef"/>
<use x="37.00" y="466.60" xlink:href="#ft0"/>
<use x="55.00" y="466.60" xlink:href="#hd"/>
<path d="M58.50 466.60v-21.00" class="stroke"/>
<use x="95.30" y="469.60" xlink:href="#hd"/>
<path d="M98.80 469.60v-21.00" class="stroke"/>
<use x="135.50" y="472.60" xlink:href="#hd"/>
<path d="M139.00 472.60v-21.00" class="stroke"/>
<use x="178.00" y="469.60" xlink:href="#Hd"/>
<path d="M181.50 469.60v-21.00" class="stroke"/>
<use x="234.90" y="469.60" xlink:href="#hd"/>
<path d="M238.40 469.60v-21.00" class="stroke"/>
<use x="277.40" y="469.60" xlink:href="#hd"/>
<path d="M280.90 469.60v-21.00" class="stroke"/>
<use x="317.60" y="466.60" xlink:href="#hd"/>
<path d="M321.10 466.60v-21.00" class="stroke"/>
<use x="357.90" y="463.60" xlink:href="#hd"/>
<path d="M354.40 463.60v21.00" class="stroke"/>
<use x="400.30" y="463.60" xlink:href="#hd"/>
<path d="M396.80 463.60v21.00" class="stroke"/>
<use x="440.60" y="466.60" xlink:href="#hd"/>
<path d="M437.10 466.60v21.00" class="stroke"/>
<use x="480.80" y="469.60" xlink:href="#hd"/>
<path d="M484.30 469.60v-21.00" class="stroke"/>
<use x="523.30" y="472.60" xlink:href="#Hd"/>
<circle class="fill" cx="532.00" cy="469.60" r="1.2"/>
<path d="M526.80 472.60v-21.00" class="stroke"/>
<use x="582.90" y="463.60" xlink:href="#hd"/>
<path d="M579.40 463.60v21.00" class="stroke"/>
<use x="623.20" y="469.60" xlink:href="#hd"/>
<path d="M626.70 469.60v-21.00" class="stroke"/>
<use x="663.40" y="463.60" xlink:href="#hd"/>
<path d="M659.90 463.60v21.00" class="stroke"/>
<use x="22.00" y="518.60" xlink:href="#bclef"/>
<use x="37.00" y="530.60" xlink:href="#ft0"/>
<use x="55.00" y="515.60" xlink:href="#hd"/>
<path d="M51.50 515.60v31.00" class="stroke"/>
<use x="55.00" y="527.60" xlink:href="#hd"/>
<use x="55.00" y="521.60" xlink:href="#hd"/>
<use x="95.30" y="515.60" xlink:href="#hd"/>
<path d="M91.80 515.60v31.00" class="stroke"/>
<use x="95.30" y="527.60" xlink:href="#hd"/>
<use x="95.30" y="521.60" xlink:href="#hd"/>
<use x="135.50" y="515.60" xlink:href="#hd"/>
<path d="M132.00 515.60v31.00" class="stroke"/>
<use x="135.50" y="527.60" xlink:href="#hd"/>
<use x="135.50" y="521.60" xlink:href="#hd"/>
<use x="178.00" y="539.60" xlink:href="#Hd"/>
<path d="M181.50 539.60v-31.00" class="stroke"/>
<use x="178.00" y="533.60" xlink:href="#Hd"/>
<use x="178.00" y="527.60" xlink:href="#Hd"/>
<use x="234.90" y="539.60" xlink:href="#hd"/>
<path d="M238.40 539.60v-31.00" class="stroke"/>
<use x="234.90" y="533.60" xlink:href="#hd"/>
<use x="234.90" y="527.60" xlink:href="#hd"/>
<use x="277.40" y="512.60" xlink:href="#hd"/>
<path d="M273.90 512.60v31.00" class="stroke"/>
<use x="277.40" y="524.60" xlink:href="#hd"/>
<use x="277.40" y="518.60" xlink:href="#hd"/>
<use x="317.60" y="512.60" xlink:href="#hd"/>
<path d="M314.10 512.60v31.00" class="stroke"/>
<use x="317.60" y="524.60" xlink:href="#hd"/>
<use x="317.60" y="518.60" xlink:href="#hd"/>
<use x="357.90" y="512.60" xlink:href="#hd"/>
<path d="M354.40 512.60v31.00" class="stroke"/>
<use x="357.90" y="524.60" xlink:href="#hd"/>
<use x="357.90" y="518.60" xlink:href="#hd"/>
<use x="400.30" y="518.60" xlink:href="#hd"/>
<path d="M396.80 518.60v31.00" class="stroke"/>
<use x="400.30" y="530.60" xlink:href="#hd"/>
<use x="400.30" y="524.60" xlink:href="#hd"/>
<use x="440.60" y="518.60" xlink:href="#hd"/>
<path d="M437.10 518.60v31.00" class="stroke"/>
<use x="440.60" y="530.60" xlink:href="#hd"/>
<use x="440.60" y="524.60" xlink:href="#hd"/>
<use x="480.80" y="518.60" xlink:href="#hd"/>
<path d="M477.30 518.60v31.00" class="stroke"/>
<use x="480.80" y="530.60" xlink:href="#hd"/>
<use x="480.80" y="524.60" xlink:href="#hd"/>
<use x="523.30" y="515.60" xlink:href="#Hd"/>
<circle class="fill" cx="532.00" cy="515.60" r="1.2"/>
<path d="M519.80 515.60v31.00" class="stroke"/>
<use x="523.30" y="527.60" xlink:href="#Hd"/>
<circle class="fill" cx="532.00" cy="527.60" r="1.2"/>
<use x="523.30" y="521.60" xlink:href="#Hd"/>
<circle class="fill" cx="532.00" cy="521.60" r="1.2"/>
<use x="582.90" y="539.60" xlink:href="#hd"/>
<path d="M586.40 539.60v-31.00" class="stroke"/>
<use x="582.90" y="533.60" xlink:href="#hd"/>
<use x="582.90" y="527.60" xlink:href="#hd"/>
<use x="623.20" y="539.60" xlink:href="#hd"/>
<path d="M626.70 539.60v-31.00" class="stroke"/>
<use x="623.20" y="533.60" xlink:href="#hd"/>
<use x="623.20" y="527.60" xlink:href="#hd"/>
<use x="663.40" y="539.60" xlink:href="#hd"/>
<path d="M666.90 539.60v-31.00" class="stroke"/>
<use x="663.40" y="533.60" xlink:href="#hd"/>
<use x="663.40" y="527.60" xlink:href="#hd"/>
</g>
<g stroke-width="0.70" style="font:italic 11.00px Times">
<path class="stroke" stroke-width="1"
	d="M10.00 664.60v-82.00"/>
<g transform="translate(10.00,582.60) scale(1,0.82)">
	<use xlink:href="#brace"/>
</g>
<path class="stroke" stroke-width="1"
	d="M168.40 606.60v-24.00"/>
<path class="stroke" stroke-width="1"
	d="M168.40 664.60v-24.00"/>
<path class="stroke" stroke-width="1"
	d="M296.60 606.60v-24.00"/>
<path class="stroke" stroke-width="1"
	d="M296.60 664.60v-24.00"/>
<path class="stroke" stroke-width="1"
	d="M459.70 606.60v-24.00"/>
<path class="stroke" stroke-width="1"
	d="M459.70 664.60v-24.00"/>
<path class="stroke" stroke-width="1"
	d="M563.40 606.60v-24.00"/>
<path class="stroke" stroke-width="1"
	d="M563.40 664.60v-24.00"/>
<path class="stroke" stroke-width="1"
	d="M691.60 606.60v-24.00"/>
<path class="stroke" stroke-width="1"
	d="M691.60 664.60v-24.00"/>
<path d="m10.00 606.60
	h681.60
	M10.00 600.60
	h681.60
	M10.00 594.60
	h681.60
	M10.00 588.60
	h681.60
	M10.00 582.60
	h681.60
	" class="stroke"/>
<path d="m10.00 664.60
	h681.60
	M10.00 658.60
	h681.60
	M10.00 652.60
	h681.60
	M10.00 646.60
	h681.60
	M10.00 640.60
	h681.60
	" class="stroke"/>
</g>
<g stroke-width="0.70" style="font:bold 13.00px Times">
<text x="47.00" y="578.00">vii○<tspan
	 style="font:italic 11.00px Times">⁷</tspan></text>
</g>
<g stroke-width="0.70" style="font:bold 13.00px Times">
<text x="181.40" y="570.00">I</text>
</g>
<g stroke-width="0.70" style="font:bold 13.00px Times">
<text x="305.60" y="573.00">V<tspan
	 style="font:italic 11.00px Times">¹</tspan></text>
</g>
<g stroke-width="0.70" style="font:bold 13.00px Times">
<text x="472.70" y="578.00">I</text>
</g>
<g stroke-width="0.70" style="font:bold 13.00px Times">
<text x="572.50" y="578.00">IV</text>
<use x="22.00" y="600.60" xlink:href="#tclef"/>
<use x="37.00" y="594.60" xlink:href="#ft0"/>
<use x="55.00" y="594.60" xlink:href="#hd"/>
<path d="M51.50 594.60v21.00" class="stroke"/>
<use x="97.00" y="600.60" xlink:href="#hd"/>
<path d="M100.50 600.60v-21.00" class="stroke"/>
<use x="139.00" y="594.60" xlink:href="#hd"/>
<path d="M142.50 594.60v-21.00" class="stroke"/>
<use x="183.20" y="597.60" xlink:href="#hd"/>
<path d="M186.70 597.60v-21.00" class="stroke"/>
<use x="225.20" y="603.60" xlink:href="#hd"/>
<path d="M228.70 603.60v-21.00" class="stroke"/>
<use x="267.20" y="597.60" xlink:href="#hd"/>
<path d="M270.70 597.60v-21.00" class="stroke"/>
<use x="311.50" y="600.60" xlink:href="#hd"/>
<path d="M315.00 600.60v-21.00" class="stroke"/>
<path class="fill"
	d="M315.00 579.60c0.6 5.6 9.6 9 5.6 18.4
	1.6 -6 -1.3 -11.6 -5.6 -12.8
"/>
<use x="341.20" y="597.60" xlink:href="#hd"/>
<path d="M344.70 597.60v-21.00" class="stroke"/>
<path class="fill"
	d="M344.70 576.60c0.6 5.6 9.6 9 5.6 18.4
	1.6 -6 -1.3 -11.6 -5.6 -12.8
"/>
<use x="370.90" y="594.60" xlink:href="#hd"/>
<path d="M374.40 594.60v-21.00" class="stroke"/>
<path class="fill"
	d="M374.40 573.60c0.6 5.6 9.6 9 5.6 18.4
	1.6 -6 -1.3 -11.6 -5.6 -12.8
"/>
<use x="400.60" y="597.60" xlink:href="#hd"/>
<path d="M404.10 597.60v-21.00" class="stroke"/>
<path class="fill"
	d="M404.10 576.60c0.6 5.6 9.6 9 5.6 18.4
	1.6 -6 -1.3 -11.6 -5.6 -12.8
"/>
<use x="430.30" y="600.60" xlink:href="#hd"/>
<path d="M433.80 600.60v-21.00" class="stroke"/>
<use x="474.60" y="591.60" xlink:href="#Hd"/>
<path d="M471.10 591.60v21.00" class="stroke"/>
<use x="534.00" y="591.60" xlink:href="#hd"/>
<path d="M530.50 591.60v21.00" class="stroke"/>
<use x="578.20" y="588.60" xlink:href="#hd"/>
<path d="M574.70 588.60v21.00" class="stroke"/>
<use x="620.20" y="591.60" xlink:href="#hd"/>
<path d="M616.70 591.60v21.00" class="stroke"/>
<use x="662.20" y="594.60" xlink:href="#hd"/>
<path d="M658.70 594.60v21.00" class="stroke"/>
<use x="22.00" y="646.60" xlink:href="#bclef"/>
<use x="37.00" y="658.60" xlink:href="#ft0"/>
<use x="55.00" y="667.60" xlink:href="#hd"/>
<path d="M58.50 667.60v-31.00" class="stroke"/>
<use x="55.00" y="661.60" xlink:href="#hd"/>
<use x="55.00" y="655.60" xlink:href="#hd"/>
<use x="97.00" y="667.60" xlink:href="#hd"/>
<path d="M100.50 667.60v-31.00" class="stroke"/>
<use x="97.00" y="661.60" xlink:href="#hd"/>
<use x="97.00" y="655.60" xlink:href="#hd"/>
<use x="139.00" y="667.60" xlink:href="#hd"/>
<path d="M142.50 667.60v-31.00" class="stroke"/>
<use x="139.00" y="661.60" xlink:href="#hd"/>
<use x="139.00" y="655.60" xlink:href="#hd"/>
<use x="183.20" y="667.60" xlink:href="#hd"/>
<path d="M186.70 667.60v-31.00" class="stroke"/>
<use x="183.20" y="661.60" xlink:href="#hd"/>
<use x="183.20" y="655.60" xlink:href="#hd"/>
<use x="225.20" y="667.60" xlink:href="#hd"/>
<path d="M228.70 667.60v-31.00" class="stroke"/>
<use x="225.20" y="661.60" xlink:href="#hd"/>
<use x="225.20" y="655.60" xlink:href="#hd"/>
<use x="267.20" y="667.60" xlink:href="#hd"/>
<path d="M270.70 667.60v-31.00" class="stroke"/>
<use x="267.20" y="661.60" xlink:href="#hd"/>
<use x="267.20" y="655.60" xlink:href="#hd"/>
<use x="311.50" y="643.60" xlink:href="#hd"/>
<path d="M308.00 643.60v31.00" class="stroke"/>
<path class="fill"
	d="M308.00 674.60c0.6 -5.6 9.6 -9 5.6 -18.4
	1.6 6 -1.3 11.6 -5.6 12.8
"/>
<use x="311.50" y="655.60" xlink:href="#hd"/>
<use x="311.50" y="649.60" xlink:href="#hd"/>
<use x="341.20" y="643.60" xlink:href="#hd"/>
<path d="M337.70 643.60v31.00" class="stroke"/>
<path class="fill"
	d="M337.70 674.60c0.6 -5.6 9.6 -9 5.6 -18.4
	1.6 6 -1.3 11.6 -5.6 12.8
"/>
<use x="341.20" y="655.60" xlink:href="#hd"/>
<use x="341.20" y="649.60" xlink:href="#hd"/>
<use x="370.90" y="643.60" xlink:href="#hd"/>
<path d="M367.40 643.60v31.00" class="stroke"/>
<path class="fill"
	d="M367.40 674.60c0.6 -5.6 9.6 -9 5.6 -18.4
	1.6 6 -1.3 11.6 -5.6 12.8
"/>
<use x="370.90" y="655.60" xlink:href="#hd"/>
<use x="370.90" y="649.60" xlink:href="#hd"/>
<use x="400.60" y="643.60" xlink:href="#hd"/>
<path d="M397.10 643.60v31.00" class="stroke"/>
<path class="fill"
	d="M397.10 674.60c0.6 -5.6 9.6 -9 5.6 -18.4
	1.6 6 -1.3 11.6 -5.6 12.8
"/>
<use x="400.60" y="655.60" xlink:href="#hd"/>
<use x="400.60" y="649.60" xlink:href="#hd"/>
<use x="430.30" y="643.60" xlink:href="#hd"/>
<path d="M426.80 643.60v31.00" class="stroke"/>
<use x="430.30" y="655.60" xlink:href="#hd"/>
<use x="430.30" y="649.60" xlink:href="#hd"/>
<use x="474.60" y="667.60" xlink:href="#Hd"/>
<path d="M478.10 667.60v-31.00" class="stroke"/>
<use x="474.60" y="661.60" xlink:href="#Hd"/>
<use x="474.60" y="655.60" xlink:href="#Hd"/>
<use x="534.00" y="667.60" xlink:href="#hd"/>
<path d="M537.50 667.60v-31.00" class="stroke"/>
<use x="534.00" y="661.60" xlink:href="#hd"/>
<use x="534.00" y="655.60" xlink:href="#hd"/>
<use x="578.20" y="658.60" xlink:href="#hd"/>
<path d="M581.70 658.60v-31.00" class="stroke"/>
<use x="578.20" y="652.60" xlink:href="#hd"/>
<use x="578.20" y="646.60" xlink:href="#hd"/>
<use x="620.20" y="658.60" xlink:href="#hd"/>
<path d="M623.70 658.60v-31.00" class="stroke"/>
<use x="620.20" y="652.60" xlink:href="#hd"/>
<use x="620.20" y="646.60" xlink:href="#hd"/>
<use x="662.20" y="658.60" xlink:href="#hd"/>
<path d="M665.70 658.60v-31.00" class="stroke"/>
<use x="662.20" y="652.60" xlink:href="#hd"/>
<use x="662.20" y="646.60" xlink:href="#hd"/>
</g>
<g stroke-width="0.70" style="font:bold 13.00px Times">
<path class="stroke" stroke-width="1"
	d="M10.00 792.60v-82.00"/>
<g transform="translate(10.00,710.60) scale(1,0.82)">
	<use xlink:href="#brace"/>
</g>
<path class="stroke" stroke-width="1"
	d="M145.30 734.60v-24.00"/>
<path class="stroke" stroke-width="1"
	d="M145.30 792.60v-24.00"/>
<path class="stroke" stroke-width="1"
	d="M208.10 734.60v-24.00"/>
<path class="stroke" stroke-width="1"
	d="M208.10 792.60v-24.00"/>
<path d="m10.00 734.60
	h198.10
	M10.00 728.60
	h198.10
	M10.00 722.60
	h198.10
	M10.00 716.60
	h198.10
	M10.00 710.60
	h198.10
	" class="stroke"/>
<path d="m10.00 792.60
	h198.10
	M10.00 786.60
	h198.10
	M10.00 780.60
	h198.10
	M10.00 774.60
	h198.10
	M10.00 768.60
	h198.10
	" class="stroke"/>
</g>
<g stroke-width="0.70" style="font:bold 13.00px Times">
<text x="51.70" y="698.00">I<tspan
	 style="font:italic 11.00px Times">²</tspan></text>
</g>
<g stroke-width="0.70" style="font:bold 13.00px Times">
<text x="158.50" y="704.00">I</text>
<use x="22.00" y="728.60" xlink:href="#tclef"/>
<use x="37.00" y="722.60" xlink:href="#ft0"/>
<use x="55.50" y="725.60" xlink:href="#Hd"/>
<path d="M59.00 725.60v-21.00" class="stroke"/>
<use x="115.60" y="728.60" xlink:href="#hd"/>
<path d="M119.10 728.60v-21.00" class="stroke"/>
<use x="160.30" y="731.60" xlink:href="#Hd"/>
<circle class="fill" cx="169.00" cy="731.60" r="1.2"/>
<path d="M163.80 731.60v-21.00" class="stroke"/>
<use x="22.00" y="774.60" xlink:href="#bclef"/>
<use x="37.00" y="786.60" xlink:href="#ft0"/>
<use x="55.50" y="795.60" xlink:href="#Hd"/>
<path d="M59.00 795.60v-31.00" class="stroke"/>
<use x="55.50" y="789.60" xlink:href="#Hd"/>
<use x="55.50" y="783.60" xlink:href="#Hd"/>
<use x="115.60" y="795.60" xlink:href="#hd"/>
<path d="M119.10 795.60v-31.00" class="stroke"/>
<use x="115.60" y="789.60" xlink:href="#hd"/>
<use x="115.60" y="783.60" xlink:href="#hd"/>
<use x="160.30" y="795.60" xlink:href="#Hd"/>
<circle class="fill" cx="169.00" cy="795.60" r="1.2"/>
<path d="M163.80 795.60v-31.00" class="stroke"/>
<use x="160.30" y="789.60" xlink:href="#Hd"/>
<circle class="fill" cx="169.00" cy="789.60" r="1.2"/>
<use x="160.30" y="783.60" xlink:href="#Hd"/>
<circle class="fill" cx="169.00" cy="783.60" r="1.2"/>
</g>
</svg>
