<?xml version="1.0" standalone="no"?>
<!DOCTYPE svg PUBLIC "-//W3C//DTD SVG 1.1//EN"
	"http://www.w3.org/Graphics/SVG/1.1/DTD/svg11.dtd">
<svg xmlns="http://www.w3.org/2000/svg" version="1.1"
	xmlns:xlink="http://www.w3.org/1999/xlink"
	color="black"
	width="701.60px" height="426.80px" viewBox="0 0 701.60 426.80" preserveAspectRatio="xMidYMid meet">
<style type="text/css">
.fill {fill: currentColor}
.stroke {stroke: currentColor; fill: none}
text{white-space: pre}
</style>
<title>/tmp/retab_hymnal_L1/christ_my_king_on_high.abc (1) tune 1</title>
<!-- Creator: abcm2ps-8.14.11 -->
<!-- CreationDate: Apr 24, 2026 15:38 -->
<!-- CommandLine: /tmp/retab_hymnal_L1/christ_my_king_on_high.abc -g -O /tmp/retab_hymnal_L1/christ_my_king_on_high -->
<g stroke-width="0.70">
<!-- title: 046. Christ My King On High -->
</g>
<g stroke-width="0.70" style="font:20.00px Times">
<text x="350.80" y="22.00" text-anchor="middle">046. Christ My King On High</text>
</g>
<g stroke-width="0.70" style="font:20.00px Times">
<path class="stroke" stroke-width="1"
	d="M10.00 145.40v-82.00"/>
<defs>
<path id="brace" class="fill" d="m-2.5 101
	c-4.5 -4.6 -7.5 -12.2 -4.4 -26.8
	3.5 -14.3 3.2 -21.7 -2.1 -24.2
	7.4 2.4 7.3 14.2 3.5 29.5
	-2.7 9.5 -1.5 16.2 3 21.5
	M-2.5 1c-4.5 4.6 -7.5 12.2 -4.4 26.8
	c3.5 14.3 3.2 21.7 -2.1 24.2
	7.4 -2.4 7.3 -14.2 3.5 -29.5
	-2.7 -9.5 -1.5 -16.2 3 -21.5"/>
</defs>
<g transform="translate(10.00,63.40) scale(1,0.82)">
	<use xlink:href="#brace"/>
</g>
<path class="stroke" stroke-width="1"
	d="M154.10 87.40v-24.00"/>
<path class="stroke" stroke-width="1"
	d="M154.10 145.40v-24.00"/>
<path class="stroke" stroke-width="1"
	d="M244.20 87.40v-24.00"/>
<path class="stroke" stroke-width="1"
	d="M244.20 145.40v-24.00"/>
<path class="stroke" stroke-width="1"
	d="M334.30 87.40v-24.00"/>
<path class="stroke" stroke-width="1"
	d="M334.30 145.40v-24.00"/>
<path class="stroke" stroke-width="1"
	d="M394.80 87.40v-24.00"/>
<path class="stroke" stroke-width="1"
	d="M394.80 145.40v-24.00"/>
<path class="stroke" stroke-width="1"
	d="M484.90 87.40v-24.00"/>
<path class="stroke" stroke-width="1"
	d="M484.90 145.40v-24.00"/>
<path class="stroke" stroke-width="1"
	d="M601.50 87.40v-24.00"/>
<path class="stroke" stroke-width="1"
	d="M601.50 145.40v-24.00"/>
<path class="stroke" stroke-width="1"
	d="M691.60 87.40v-24.00"/>
<path class="stroke" stroke-width="1"
	d="M691.60 145.40v-24.00"/>
<path d="m10.00 87.40
	h681.60
	M10.00 81.40
	h681.60
	M10.00 75.40
	h681.60
	M10.00 69.40
	h681.60
	M10.00 63.40
	h681.60
	" class="stroke"/>
<path d="m10.00 145.40
	h681.60
	M10.00 139.40
	h681.60
	M10.00 133.40
	h681.60
	M10.00 127.40
	h681.60
	M10.00 121.40
	h681.60
	" class="stroke"/>
</g>
<g stroke-width="0.70" style="font:bold 13.00px Times">
<text x="73.10" y="56.80">V</text>
</g>
<g stroke-width="0.70" style="font:bold 13.00px Times">
<text x="163.40" y="47.80">I<tspan
	 style="font:italic 11.00px Times">¹</tspan></text>
</g>
<g stroke-width="0.70" style="font:bold 13.00px Times">
<text x="249.20" y="50.80">vii○<tspan
	 style="font:italic 11.00px Times">¹</tspan></text>
</g>
<g stroke-width="0.70" style="font:bold 13.00px Times">
<text x="342.10" y="58.80">vi<tspan
	 style="font:italic 11.00px Times">¹</tspan></text>
</g>
<g stroke-width="0.70" style="font:bold 13.00px Times">
<text x="403.30" y="56.80">iii</text>
</g>
<g stroke-width="0.70" style="font:bold 13.00px Times">
<text x="494.80" y="58.80">ii</text>
</g>
<g stroke-width="0.70" style="font:bold 13.00px Times">
<text x="608.60" y="58.80">V<tspan
	 style="font:italic 11.00px Times">⁷</tspan></text>
</g>
<g stroke-width="0.70" style="font:italic 11.00px Times">
<defs>
<path id="utclef" class="fill" d="m-50 -90
	c-72 -41 -72 -158 52 -188
	150 -10 220 188 90 256
	-114 52 -275 0 -293 -136
	-15 -181 93 -229 220 -334
	88 -87 79 -133 62 -210
	-51 33 -94 105 -89 186
	17 267 36 374 49 574
	6 96 -19 134 -77 135
	-80 1 -126 -93 -61 -133
	85 -41 133 101 31 105
	23 17 92 37 90 -92
	-10 -223 -39 -342 -50 -617
	0 -90 0 -162 96 -232
	56 72 63 230 22 289
	-74 106 -257 168 -255 316
	9 153 148 185 252 133
	86 -65 29 -192 -80 -176
	-71 12 -105 67 -59 124"/>
<use id="tclef" transform="translate(0,6) scale(0.045)"
	xlink:href="#utclef"/>
</defs>
<use x="22.00" y="81.40" xlink:href="#tclef"/>
<defs>
<path id="uflat" class="fill" d="
	m100 -746
	h32
	v734
	l-32 4
	m32 -332
	c46 -72 152 -90 208 -20
	100 110 -120 326 -208 348
	m0 -28
	c54 0 200 -206 130 -290
	-50 -60 -130 -4 -130 34"/>
<use id="ft0" transform="translate(-3.5,3.5) scale(0.018)"
	xlink:href="#uflat"/>
</defs>
<use x="37.00" y="75.40" xlink:href="#ft0"/>
<use x="42.50" y="66.40" xlink:href="#ft0"/>
<g style="font:bold 16px serif"
	transform="translate(58.50,86.90) scale(1.2,1)">
	<text text-anchor="middle">4</text>
	<text y="-12" text-anchor="middle">4</text>
</g>
<defs>
<path id="Hd" class="fill" d="m3 -1.6
	c-1 -1.8 -7 1.4 -6 3.2
	1 1.8 7 -1.4 6 -3.2
	m0.5 -0.3
	c2 3.8 -5 7.6 -7 3.8
	-2 -3.8 5 -7.6 7 -3.8"/>
</defs>
<use x="77.00" y="84.40" xlink:href="#Hd"/>
<circle class="fill" cx="86.70" cy="84.40" r="1.2"/>
<path d="M80.50 84.40v-21.00" class="stroke"/>
<defs>
<ellipse id="hd" rx="4.1" ry="2.9"
	transform="rotate(-20)" class="fill"/>
</defs>
<use x="130.60" y="84.40" xlink:href="#hd"/>
<path d="M134.10 84.40v-21.00" class="stroke"/>
<use x="167.10" y="75.40" xlink:href="#Hd"/>
<circle class="fill" cx="175.80" cy="72.40" r="1.2"/>
<path d="M170.60 75.40v-21.00" class="stroke"/>
<use x="220.70" y="78.40" xlink:href="#hd"/>
<path d="M224.20 78.40v-21.00" class="stroke"/>
<use x="257.20" y="78.40" xlink:href="#Hd"/>
<circle class="fill" cx="265.90" cy="78.40" r="1.2"/>
<path d="M260.70 78.40v-21.00" class="stroke"/>
<use x="310.80" y="75.40" xlink:href="#hd"/>
<path d="M314.30 75.40v-21.00" class="stroke"/>
<defs>
<path id="HD" class="fill" d="m-2.7 -1.4
	c1.5 -2.8 6.9 0 5.3 2.7
	-1.5 2.8 -6.9 0 -5.3 -2.7
	m8.3 1.4
	c0 -1.5 -2.2 -3 -5.6 -3
	-3.4 0 -5.6 1.5 -5.6 3
	0 1.5 2.2 3 5.6 3
	3.4 0 5.6 -1.5 5.6 -3"/>
</defs>
<use x="349.30" y="81.40" xlink:href="#HD"/>
<use x="407.80" y="84.40" xlink:href="#Hd"/>
<circle class="fill" cx="416.50" cy="84.40" r="1.2"/>
<path d="M411.30 84.40v-21.00" class="stroke"/>
<use x="461.40" y="90.40" xlink:href="#hd"/>
<path d="M464.90 90.40v-21.00" class="stroke"/>
<use x="497.90" y="90.40" xlink:href="#Hd"/>
<path d="M501.40 90.40v-21.00" class="stroke"/>
<defs>
<path id="hl" class="stroke" d="m-6 0h12"/>
</defs>
<use x="544.70" y="93.40" xlink:href="#hl"/>
<use x="544.70" y="93.40" xlink:href="#hd"/>
<path d="M548.20 93.40v-21.00" class="stroke"/>
<use x="578.00" y="93.40" xlink:href="#hl"/>
<use x="578.00" y="96.40" xlink:href="#hd"/>
<path d="M581.50 96.40v-21.00" class="stroke"/>
<use x="614.50" y="90.40" xlink:href="#Hd"/>
<circle class="fill" cx="623.20" cy="90.40" r="1.2"/>
<path d="M618.00 90.40v-21.00" class="stroke"/>
<use x="668.10" y="87.40" xlink:href="#hd"/>
<path d="M671.60 87.40v-21.00" class="stroke"/>
<defs>
<path id="ubclef" class="fill" d="m-200 -87
	c124 -35 222 -78 254 -236
	43 -228 -167 -246 -192 -103
	59 -80 157 22 92 78
	-62 47 -115 -22 -106 -88
	21 -141 270 -136 274 52
	-1 175 -106 264 -322 297
	m357 -250
	c0 -36 51 -34 51 0
	0 37 -51 36 -51 0
	m-2 -129
	c0 -36 51 -34 51 0
	0 38 -51 37 -51 0"/>
<use id="bclef" transform="translate(0,18) scale(0.045)"
	xlink:href="#ubclef"/>
</defs>
<use x="22.00" y="127.40" xlink:href="#bclef"/>
<use x="37.00" y="139.40" xlink:href="#ft0"/>
<use x="42.50" y="130.40" xlink:href="#ft0"/>
<g style="font:bold 16px serif"
	transform="translate(58.50,144.90) scale(1.2,1)">
	<text text-anchor="middle">4</text>
	<text y="-12" text-anchor="middle">4</text>
</g>
<use x="77.00" y="115.40" xlink:href="#hl"/>
<use x="77.00" y="115.40" xlink:href="#Hd"/>
<circle class="fill" cx="86.70" cy="112.40" r="1.2"/>
<path d="M73.50 115.40v31.00" class="stroke"/>
<use x="77.00" y="127.40" xlink:href="#Hd"/>
<circle class="fill" cx="86.70" cy="124.40" r="1.2"/>
<use x="77.00" y="121.40" xlink:href="#Hd"/>
<circle class="fill" cx="86.70" cy="118.40" r="1.2"/>
<use x="130.60" y="115.40" xlink:href="#hl"/>
<use x="130.60" y="115.40" xlink:href="#hd"/>
<path d="M127.10 115.40v31.00" class="stroke"/>
<use x="130.60" y="127.40" xlink:href="#hd"/>
<use x="130.60" y="121.40" xlink:href="#hd"/>
<use x="167.10" y="127.40" xlink:href="#Hd"/>
<circle class="fill" cx="175.80" cy="124.40" r="1.2"/>
<path d="M163.60 127.40v31.00" class="stroke"/>
<use x="167.10" y="139.40" xlink:href="#Hd"/>
<circle class="fill" cx="175.80" cy="136.40" r="1.2"/>
<use x="167.10" y="133.40" xlink:href="#Hd"/>
<circle class="fill" cx="175.80" cy="130.40" r="1.2"/>
<use x="220.70" y="127.40" xlink:href="#hd"/>
<path d="M217.20 127.40v31.00" class="stroke"/>
<use x="220.70" y="139.40" xlink:href="#hd"/>
<use x="220.70" y="133.40" xlink:href="#hd"/>
<use x="257.20" y="127.40" xlink:href="#Hd"/>
<circle class="fill" cx="265.90" cy="124.40" r="1.2"/>
<path d="M253.70 127.40v31.00" class="stroke"/>
<use x="257.20" y="139.40" xlink:href="#Hd"/>
<circle class="fill" cx="265.90" cy="136.40" r="1.2"/>
<use x="257.20" y="133.40" xlink:href="#Hd"/>
<circle class="fill" cx="265.90" cy="130.40" r="1.2"/>
<use x="310.80" y="127.40" xlink:href="#hd"/>
<path d="M307.30 127.40v31.00" class="stroke"/>
<use x="310.80" y="139.40" xlink:href="#hd"/>
<use x="310.80" y="133.40" xlink:href="#hd"/>
<defs>
<path id="hl1" class="stroke" d="m-7 0h14"/>
</defs>
<use x="349.30" y="115.40" xlink:href="#hl1"/>
<use x="349.30" y="112.40" xlink:href="#HD"/>
<use x="349.30" y="124.40" xlink:href="#HD"/>
<use x="349.30" y="118.40" xlink:href="#HD"/>
<use x="407.80" y="121.40" xlink:href="#Hd"/>
<circle class="fill" cx="416.50" cy="118.40" r="1.2"/>
<path d="M404.30 121.40v31.00" class="stroke"/>
<use x="407.80" y="133.40" xlink:href="#Hd"/>
<circle class="fill" cx="416.50" cy="130.40" r="1.2"/>
<use x="407.80" y="127.40" xlink:href="#Hd"/>
<circle class="fill" cx="416.50" cy="124.40" r="1.2"/>
<use x="461.40" y="121.40" xlink:href="#hd"/>
<path d="M457.90 121.40v31.00" class="stroke"/>
<use x="461.40" y="133.40" xlink:href="#hd"/>
<use x="461.40" y="127.40" xlink:href="#hd"/>
<use x="497.90" y="124.40" xlink:href="#Hd"/>
<path d="M494.40 124.40v31.00" class="stroke"/>
<use x="497.90" y="136.40" xlink:href="#Hd"/>
<use x="497.90" y="130.40" xlink:href="#Hd"/>
<use x="544.70" y="124.40" xlink:href="#hd"/>
<path d="M541.20 124.40v31.00" class="stroke"/>
<use x="544.70" y="136.40" xlink:href="#hd"/>
<use x="544.70" y="130.40" xlink:href="#hd"/>
<use x="578.00" y="124.40" xlink:href="#hd"/>
<path d="M574.50 124.40v31.00" class="stroke"/>
<use x="578.00" y="136.40" xlink:href="#hd"/>
<use x="578.00" y="130.40" xlink:href="#hd"/>
<use x="614.50" y="115.40" xlink:href="#hl"/>
<use x="614.50" y="115.40" xlink:href="#Hd"/>
<circle class="fill" cx="623.20" cy="112.40" r="1.2"/>
<path d="M611.00 115.40v31.00" class="stroke"/>
<use x="614.50" y="127.40" xlink:href="#Hd"/>
<circle class="fill" cx="623.20" cy="124.40" r="1.2"/>
<use x="614.50" y="121.40" xlink:href="#Hd"/>
<circle class="fill" cx="623.20" cy="118.40" r="1.2"/>
<use x="668.10" y="115.40" xlink:href="#hl"/>
<use x="668.10" y="115.40" xlink:href="#hd"/>
<path d="M664.60 115.40v31.00" class="stroke"/>
<use x="668.10" y="127.40" xlink:href="#hd"/>
<use x="668.10" y="121.40" xlink:href="#hd"/>
</g>
<g stroke-width="0.70" style="font:italic 11.00px Times">
<path class="stroke" stroke-width="1"
	d="M10.00 275.80v-82.00"/>
<g transform="translate(10.00,193.80) scale(1,0.82)">
	<use xlink:href="#brace"/>
</g>
<path class="stroke" stroke-width="1"
	d="M112.80 217.80v-24.00"/>
<path class="stroke" stroke-width="1"
	d="M112.80 275.80v-24.00"/>
<path class="stroke" stroke-width="1"
	d="M209.80 217.80v-24.00"/>
<path class="stroke" stroke-width="1"
	d="M209.80 275.80v-24.00"/>
<path class="stroke" stroke-width="1"
	d="M306.80 217.80v-24.00"/>
<path class="stroke" stroke-width="1"
	d="M306.80 275.80v-24.00"/>
<path class="stroke" stroke-width="1"
	d="M403.70 217.80v-24.00"/>
<path class="stroke" stroke-width="1"
	d="M403.70 275.80v-24.00"/>
<path class="stroke" stroke-width="1"
	d="M468.50 217.80v-24.00"/>
<path class="stroke" stroke-width="1"
	d="M468.50 275.80v-24.00"/>
<path class="stroke" stroke-width="1"
	d="M565.50 217.80v-24.00"/>
<path class="stroke" stroke-width="1"
	d="M565.50 275.80v-24.00"/>
<path class="stroke" stroke-width="1"
	d="M691.60 217.80v-24.00"/>
<path class="stroke" stroke-width="1"
	d="M691.60 275.80v-24.00"/>
<path d="m10.00 217.80
	h681.60
	M10.00 211.80
	h681.60
	M10.00 205.80
	h681.60
	M10.00 199.80
	h681.60
	M10.00 193.80
	h681.60
	" class="stroke"/>
<path d="m10.00 275.80
	h681.60
	M10.00 269.80
	h681.60
	M10.00 263.80
	h681.60
	M10.00 257.80
	h681.60
	M10.00 251.80
	h681.60
	" class="stroke"/>
</g>
<g stroke-width="0.70" style="font:bold 13.00px Times">
<text x="58.10" y="189.20">V</text>
</g>
<g stroke-width="0.70" style="font:bold 13.00px Times">
<text x="121.90" y="187.20">V</text>
</g>
<g stroke-width="0.70" style="font:bold 13.00px Times">
<text x="219.00" y="178.20">I<tspan
	 style="font:italic 11.00px Times">¹</tspan></text>
</g>
<g stroke-width="0.70" style="font:bold 13.00px Times">
<text x="311.80" y="181.20">vii○<tspan
	 style="font:italic 11.00px Times">¹</tspan></text>
</g>
<g stroke-width="0.70" style="font:bold 13.00px Times">
<text x="411.50" y="189.20">vi<tspan
	 style="font:italic 11.00px Times">¹</tspan></text>
</g>
<g stroke-width="0.70" style="font:bold 13.00px Times">
<text x="477.00" y="187.20">iii</text>
</g>
<g stroke-width="0.70" style="font:bold 13.00px Times">
<text x="575.50" y="189.20">ii</text>
<use x="22.00" y="211.80" xlink:href="#tclef"/>
<use x="37.00" y="205.80" xlink:href="#ft0"/>
<use x="42.50" y="196.80" xlink:href="#ft0"/>
<use x="63.00" y="223.80" xlink:href="#hl1"/>
<use x="63.00" y="223.80" xlink:href="#HD"/>
<use x="125.80" y="214.80" xlink:href="#Hd"/>
<circle class="fill" cx="134.50" cy="214.80" r="1.2"/>
<path d="M129.30 214.80v-21.00" class="stroke"/>
<use x="184.30" y="214.80" xlink:href="#hd"/>
<path d="M187.80 214.80v-21.00" class="stroke"/>
<use x="222.80" y="205.80" xlink:href="#Hd"/>
<circle class="fill" cx="231.50" cy="202.80" r="1.2"/>
<path d="M226.30 205.80v-21.00" class="stroke"/>
<use x="281.30" y="208.80" xlink:href="#hd"/>
<path d="M284.80 208.80v-21.00" class="stroke"/>
<use x="319.80" y="208.80" xlink:href="#Hd"/>
<circle class="fill" cx="328.50" cy="208.80" r="1.2"/>
<path d="M323.30 208.80v-21.00" class="stroke"/>
<use x="378.20" y="205.80" xlink:href="#hd"/>
<path d="M381.70 205.80v-21.00" class="stroke"/>
<use x="418.70" y="211.80" xlink:href="#HD"/>
<use x="481.50" y="214.80" xlink:href="#Hd"/>
<circle class="fill" cx="490.20" cy="214.80" r="1.2"/>
<path d="M485.00 214.80v-21.00" class="stroke"/>
<use x="540.00" y="220.80" xlink:href="#hd"/>
<path d="M543.50 220.80v-21.00" class="stroke"/>
<use x="578.50" y="220.80" xlink:href="#Hd"/>
<path d="M582.00 220.80v-21.00" class="stroke"/>
<use x="629.80" y="223.80" xlink:href="#hl"/>
<use x="629.80" y="223.80" xlink:href="#hd"/>
<path d="M633.30 223.80v-21.00" class="stroke"/>
<use x="666.10" y="223.80" xlink:href="#hl"/>
<use x="666.10" y="226.80" xlink:href="#hd"/>
<path d="M669.60 226.80v-21.00" class="stroke"/>
<use x="22.00" y="257.80" xlink:href="#bclef"/>
<use x="37.00" y="269.80" xlink:href="#ft0"/>
<use x="42.50" y="260.80" xlink:href="#ft0"/>
<use x="63.00" y="245.80" xlink:href="#hl1"/>
<use x="63.00" y="245.80" xlink:href="#HD"/>
<use x="63.00" y="257.80" xlink:href="#HD"/>
<use x="63.00" y="251.80" xlink:href="#HD"/>
<use x="125.80" y="245.80" xlink:href="#hl"/>
<use x="125.80" y="245.80" xlink:href="#Hd"/>
<circle class="fill" cx="134.50" cy="242.80" r="1.2"/>
<path d="M122.30 245.80v31.00" class="stroke"/>
<use x="125.80" y="257.80" xlink:href="#Hd"/>
<circle class="fill" cx="134.50" cy="254.80" r="1.2"/>
<use x="125.80" y="251.80" xlink:href="#Hd"/>
<circle class="fill" cx="134.50" cy="248.80" r="1.2"/>
<use x="184.30" y="245.80" xlink:href="#hl"/>
<use x="184.30" y="245.80" xlink:href="#hd"/>
<path d="M180.80 245.80v31.00" class="stroke"/>
<use x="184.30" y="257.80" xlink:href="#hd"/>
<use x="184.30" y="251.80" xlink:href="#hd"/>
<use x="222.80" y="257.80" xlink:href="#Hd"/>
<circle class="fill" cx="231.50" cy="254.80" r="1.2"/>
<path d="M219.30 257.80v31.00" class="stroke"/>
<use x="222.80" y="269.80" xlink:href="#Hd"/>
<circle class="fill" cx="231.50" cy="266.80" r="1.2"/>
<use x="222.80" y="263.80" xlink:href="#Hd"/>
<circle class="fill" cx="231.50" cy="260.80" r="1.2"/>
<use x="281.30" y="257.80" xlink:href="#hd"/>
<path d="M277.80 257.80v31.00" class="stroke"/>
<use x="281.30" y="269.80" xlink:href="#hd"/>
<use x="281.30" y="263.80" xlink:href="#hd"/>
<use x="319.80" y="257.80" xlink:href="#Hd"/>
<circle class="fill" cx="328.50" cy="254.80" r="1.2"/>
<path d="M316.30 257.80v31.00" class="stroke"/>
<use x="319.80" y="269.80" xlink:href="#Hd"/>
<circle class="fill" cx="328.50" cy="266.80" r="1.2"/>
<use x="319.80" y="263.80" xlink:href="#Hd"/>
<circle class="fill" cx="328.50" cy="260.80" r="1.2"/>
<use x="378.20" y="257.80" xlink:href="#hd"/>
<path d="M374.70 257.80v31.00" class="stroke"/>
<use x="378.20" y="269.80" xlink:href="#hd"/>
<use x="378.20" y="263.80" xlink:href="#hd"/>
<use x="418.70" y="245.80" xlink:href="#hl1"/>
<use x="418.70" y="242.80" xlink:href="#HD"/>
<use x="418.70" y="254.80" xlink:href="#HD"/>
<use x="418.70" y="248.80" xlink:href="#HD"/>
<use x="481.50" y="251.80" xlink:href="#Hd"/>
<circle class="fill" cx="490.20" cy="248.80" r="1.2"/>
<path d="M478.00 251.80v31.00" class="stroke"/>
<use x="481.50" y="263.80" xlink:href="#Hd"/>
<circle class="fill" cx="490.20" cy="260.80" r="1.2"/>
<use x="481.50" y="257.80" xlink:href="#Hd"/>
<circle class="fill" cx="490.20" cy="254.80" r="1.2"/>
<use x="540.00" y="251.80" xlink:href="#hd"/>
<path d="M536.50 251.80v31.00" class="stroke"/>
<use x="540.00" y="263.80" xlink:href="#hd"/>
<use x="540.00" y="257.80" xlink:href="#hd"/>
<use x="578.50" y="254.80" xlink:href="#Hd"/>
<path d="M575.00 254.80v31.00" class="stroke"/>
<use x="578.50" y="266.80" xlink:href="#Hd"/>
<use x="578.50" y="260.80" xlink:href="#Hd"/>
<use x="629.80" y="254.80" xlink:href="#hd"/>
<path d="M626.30 254.80v31.00" class="stroke"/>
<use x="629.80" y="266.80" xlink:href="#hd"/>
<use x="629.80" y="260.80" xlink:href="#hd"/>
<use x="666.10" y="254.80" xlink:href="#hd"/>
<path d="M662.60 254.80v31.00" class="stroke"/>
<use x="666.10" y="266.80" xlink:href="#hd"/>
<use x="666.10" y="260.80" xlink:href="#hd"/>
</g>
<g stroke-width="0.70" style="font:bold 13.00px Times">
<path class="stroke" stroke-width="1"
	d="M10.00 403.80v-82.00"/>
<g transform="translate(10.00,321.80) scale(1,0.82)">
	<use xlink:href="#brace"/>
</g>
<path class="stroke" stroke-width="1"
	d="M153.40 345.80v-24.00"/>
<path class="stroke" stroke-width="1"
	d="M153.40 403.80v-24.00"/>
<path class="stroke" stroke-width="1"
	d="M223.50 345.80v-24.00"/>
<path class="stroke" stroke-width="1"
	d="M223.50 403.80v-24.00"/>
<path d="m10.00 345.80
	h213.50
	M10.00 339.80
	h213.50
	M10.00 333.80
	h213.50
	M10.00 327.80
	h213.50
	M10.00 321.80
	h213.50
	" class="stroke"/>
<path d="m10.00 403.80
	h213.50
	M10.00 397.80
	h213.50
	M10.00 391.80
	h213.50
	M10.00 385.80
	h213.50
	M10.00 379.80
	h213.50
	" class="stroke"/>
</g>
<g stroke-width="0.70" style="font:bold 13.00px Times">
<text x="55.10" y="317.20">V<tspan
	 style="font:italic 11.00px Times">⁷</tspan></text>
</g>
<g stroke-width="0.70" style="font:bold 13.00px Times">
<text x="165.70" y="317.20">I</text>
<use x="22.00" y="339.80" xlink:href="#tclef"/>
<use x="37.00" y="333.80" xlink:href="#ft0"/>
<use x="42.50" y="324.80" xlink:href="#ft0"/>
<use x="61.00" y="348.80" xlink:href="#Hd"/>
<circle class="fill" cx="70.70" cy="348.80" r="1.2"/>
<path d="M64.50 348.80v-21.00" class="stroke"/>
<use x="125.40" y="351.80" xlink:href="#hl"/>
<use x="125.40" y="351.80" xlink:href="#hd"/>
<path d="M128.90 351.80v-21.00" class="stroke"/>
<use x="168.50" y="351.80" xlink:href="#hl1"/>
<use x="168.50" y="354.80" xlink:href="#HD"/>
<use x="22.00" y="385.80" xlink:href="#bclef"/>
<use x="37.00" y="397.80" xlink:href="#ft0"/>
<use x="42.50" y="388.80" xlink:href="#ft0"/>
<use x="61.00" y="373.80" xlink:href="#hl"/>
<use x="61.00" y="373.80" xlink:href="#Hd"/>
<circle class="fill" cx="70.70" cy="370.80" r="1.2"/>
<path d="M57.50 373.80v31.00" class="stroke"/>
<use x="61.00" y="385.80" xlink:href="#Hd"/>
<circle class="fill" cx="70.70" cy="382.80" r="1.2"/>
<use x="61.00" y="379.80" xlink:href="#Hd"/>
<circle class="fill" cx="70.70" cy="376.80" r="1.2"/>
<use x="125.40" y="373.80" xlink:href="#hl"/>
<use x="125.40" y="373.80" xlink:href="#hd"/>
<path d="M121.90 373.80v31.00" class="stroke"/>
<use x="125.40" y="385.80" xlink:href="#hd"/>
<use x="125.40" y="379.80" xlink:href="#hd"/>
<use x="168.50" y="385.80" xlink:href="#HD"/>
<use x="168.50" y="397.80" xlink:href="#HD"/>
<use x="168.50" y="391.80" xlink:href="#HD"/>
</g>
</svg>
