<?xml version="1.0" standalone="no"?>
<!DOCTYPE svg PUBLIC "-//W3C//DTD SVG 1.1//EN"
	"http://www.w3.org/Graphics/SVG/1.1/DTD/svg11.dtd">
<svg xmlns="http://www.w3.org/2000/svg" version="1.1"
	xmlns:xlink="http://www.w3.org/1999/xlink"
	color="black"
	width="701.60px" height="424.40px" viewBox="0 0 701.60 424.40" preserveAspectRatio="xMidYMid meet">
<style type="text/css">
.fill {fill: currentColor}
.stroke {stroke: currentColor; fill: none}
text{white-space: pre}
</style>
<title>/tmp/retab_hymnal_L1/hark_the_glad_sound.abc (1) tune 1</title>
<!-- Creator: abcm2ps-8.14.11 -->
<!-- CreationDate: Apr 24, 2026 15:38 -->
<!-- CommandLine: /tmp/retab_hymnal_L1/hark_the_glad_sound.abc -g -O /tmp/retab_hymnal_L1/hark_the_glad_sound -->
<g stroke-width="0.70">
<!-- title: 083. Hark the Glad Sound -->
</g>
<g stroke-width="0.70" style="font:20.00px Times">
<text x="350.80" y="22.00" text-anchor="middle">083. Hark the Glad Sound</text>
</g>
<g stroke-width="0.70" style="font:20.00px Times">
<path class="stroke" stroke-width="1"
	d="M10.00 143.00v-82.00"/>
<defs>
<path id="brace" class="fill" d="m-2.5 101
	c-4.5 -4.6 -7.5 -12.2 -4.4 -26.8
	3.5 -14.3 3.2 -21.7 -2.1 -24.2
	7.4 2.4 7.3 14.2 3.5 29.5
	-2.7 9.5 -1.5 16.2 3 21.5
	M-2.5 1c-4.5 4.6 -7.5 12.2 -4.4 26.8
	c3.5 14.3 3.2 21.7 -2.1 24.2
	7.4 -2.4 7.3 -14.2 3.5 -29.5
	-2.7 -9.5 -1.5 -16.2 3 -21.5"/>
</defs>
<g transform="translate(10.00,61.00) scale(1,0.82)">
	<use xlink:href="#brace"/>
</g>
<path class="stroke" stroke-width="1"
	d="M170.70 85.00v-24.00"/>
<path class="stroke" stroke-width="1"
	d="M170.70 143.00v-24.00"/>
<path class="stroke" stroke-width="1"
	d="M261.90 85.00v-24.00"/>
<path class="stroke" stroke-width="1"
	d="M261.90 143.00v-24.00"/>
<path class="stroke" stroke-width="1"
	d="M374.70 85.00v-24.00"/>
<path class="stroke" stroke-width="1"
	d="M374.70 143.00v-24.00"/>
<path class="stroke" stroke-width="1"
	d="M465.90 85.00v-24.00"/>
<path class="stroke" stroke-width="1"
	d="M465.90 143.00v-24.00"/>
<path class="stroke" stroke-width="1"
	d="M578.80 85.00v-24.00"/>
<path class="stroke" stroke-width="1"
	d="M578.80 143.00v-24.00"/>
<path class="stroke" stroke-width="1"
	d="M691.60 85.00v-24.00"/>
<path class="stroke" stroke-width="1"
	d="M691.60 143.00v-24.00"/>
<path d="m10.00 85.00
	h681.60
	M10.00 79.00
	h681.60
	M10.00 73.00
	h681.60
	M10.00 67.00
	h681.60
	M10.00 61.00
	h681.60
	" class="stroke"/>
<path d="m10.00 143.00
	h681.60
	M10.00 137.00
	h681.60
	M10.00 131.00
	h681.60
	M10.00 125.00
	h681.60
	M10.00 119.00
	h681.60
	" class="stroke"/>
</g>
<g stroke-width="0.70" style="font:bold 13.00px Times">
<text x="69.20" y="56.40">I</text>
</g>
<g stroke-width="0.70" style="font:bold 13.00px Times">
<text x="177.90" y="56.40">V<tspan
	 style="font:italic 11.00px Times">¹</tspan></text>
</g>
<g stroke-width="0.70" style="font:bold 13.00px Times">
<text x="270.80" y="56.40">vi</text>
</g>
<g stroke-width="0.70" style="font:bold 13.00px Times">
<text x="386.00" y="51.40">I</text>
</g>
<g stroke-width="0.70" style="font:bold 13.00px Times">
<text x="473.20" y="48.40">V<tspan
	 style="font:italic 11.00px Times">¹</tspan></text>
</g>
<g stroke-width="0.70" style="font:bold 13.00px Times">
<text x="585.70" y="54.40">vi<tspan
	 style="font:italic 11.00px Times">¹</tspan></text>
</g>
<g stroke-width="0.70" style="font:italic 11.00px Times">
<defs>
<path id="utclef" class="fill" d="m-50 -90
	c-72 -41 -72 -158 52 -188
	150 -10 220 188 90 256
	-114 52 -275 0 -293 -136
	-15 -181 93 -229 220 -334
	88 -87 79 -133 62 -210
	-51 33 -94 105 -89 186
	17 267 36 374 49 574
	6 96 -19 134 -77 135
	-80 1 -126 -93 -61 -133
	85 -41 133 101 31 105
	23 17 92 37 90 -92
	-10 -223 -39 -342 -50 -617
	0 -90 0 -162 96 -232
	56 72 63 230 22 289
	-74 106 -257 168 -255 316
	9 153 148 185 252 133
	86 -65 29 -192 -80 -176
	-71 12 -105 67 -59 124"/>
<use id="tclef" transform="translate(0,6) scale(0.045)"
	xlink:href="#utclef"/>
</defs>
<use x="22.00" y="79.00" xlink:href="#tclef"/>
<defs>
<path id="usharp" class="fill" d="
	m136 -702
	v890
	h32
	v-890
	m128 840
	h32
	v-888
	h-32
	m-232 286
	v116
	l338 -96
	v-116
	m-338 442
	v116
	l338 -98
	v-114"/>
<use id="sh0" transform="translate(-4,5) scale(0.018)"
	xlink:href="#usharp"/>
</defs>
<use x="37.00" y="61.00" xlink:href="#sh0"/>
<g style="font:bold 16px serif"
	transform="translate(53.00,84.50) scale(1.2,1)">
	<text text-anchor="middle">4</text>
	<text y="-12" text-anchor="middle">3</text>
</g>
<defs>
<ellipse id="hd" rx="4.1" ry="2.9"
	transform="rotate(-20)" class="fill"/>
</defs>
<use x="71.00" y="88.00" xlink:href="#hd"/>
<path d="M74.50 88.00v-21.00" class="stroke"/>
<use x="107.90" y="79.00" xlink:href="#hd"/>
<path d="M111.40 79.00v-21.00" class="stroke"/>
<use x="144.80" y="73.00" xlink:href="#hd"/>
<path d="M148.30 73.00v-21.00" class="stroke"/>
<defs>
<path id="Hd" class="fill" d="m3 -1.6
	c-1 -1.8 -7 1.4 -6 3.2
	1 1.8 7 -1.4 6 -3.2
	m0.5 -0.3
	c2 3.8 -5 7.6 -7 3.8
	-2 -3.8 5 -7.6 7 -3.8"/>
</defs>
<use x="183.80" y="67.00" xlink:href="#Hd"/>
<path d="M180.30 67.00v21.00" class="stroke"/>
<use x="236.00" y="70.00" xlink:href="#hd"/>
<path d="M232.50 70.00v21.00" class="stroke"/>
<use x="275.00" y="73.00" xlink:href="#hd"/>
<path d="M271.50 73.00v21.00" class="stroke"/>
<use x="311.90" y="70.00" xlink:href="#hd"/>
<path d="M308.40 70.00v21.00" class="stroke"/>
<use x="348.80" y="76.00" xlink:href="#hd"/>
<path d="M352.30 76.00v-21.00" class="stroke"/>
<use x="387.90" y="79.00" xlink:href="#Hd"/>
<path d="M391.40 79.00v-21.00" class="stroke"/>
<use x="440.00" y="73.00" xlink:href="#hd"/>
<path d="M443.50 73.00v-21.00" class="stroke"/>
<use x="479.10" y="76.00" xlink:href="#hd"/>
<path d="M482.60 76.00v-21.00" class="stroke"/>
<use x="516.00" y="67.00" xlink:href="#hd"/>
<path d="M512.50 67.00v21.00" class="stroke"/>
<use x="552.90" y="79.00" xlink:href="#hd"/>
<path d="M556.40 79.00v-21.00" class="stroke"/>
<use x="591.90" y="82.00" xlink:href="#hd"/>
<path d="M595.40 82.00v-21.00" class="stroke"/>
<use x="628.80" y="79.00" xlink:href="#hd"/>
<path d="M632.30 79.00v-21.00" class="stroke"/>
<use x="665.70" y="85.00" xlink:href="#hd"/>
<path d="M669.20 85.00v-21.00" class="stroke"/>
<defs>
<path id="ubclef" class="fill" d="m-200 -87
	c124 -35 222 -78 254 -236
	43 -228 -167 -246 -192 -103
	59 -80 157 22 92 78
	-62 47 -115 -22 -106 -88
	21 -141 270 -136 274 52
	-1 175 -106 264 -322 297
	m357 -250
	c0 -36 51 -34 51 0
	0 37 -51 36 -51 0
	m-2 -129
	c0 -36 51 -34 51 0
	0 38 -51 37 -51 0"/>
<use id="bclef" transform="translate(0,18) scale(0.045)"
	xlink:href="#ubclef"/>
</defs>
<use x="22.00" y="125.00" xlink:href="#bclef"/>
<use x="37.00" y="125.00" xlink:href="#sh0"/>
<g style="font:bold 16px serif"
	transform="translate(53.00,142.50) scale(1.2,1)">
	<text text-anchor="middle">4</text>
	<text y="-12" text-anchor="middle">3</text>
</g>
<use x="71.00" y="143.00" xlink:href="#hd"/>
<path d="M74.50 143.00v-31.00" class="stroke"/>
<use x="71.00" y="137.00" xlink:href="#hd"/>
<use x="71.00" y="131.00" xlink:href="#hd"/>
<use x="107.90" y="143.00" xlink:href="#hd"/>
<path d="M111.40 143.00v-31.00" class="stroke"/>
<use x="107.90" y="137.00" xlink:href="#hd"/>
<use x="107.90" y="131.00" xlink:href="#hd"/>
<use x="144.80" y="143.00" xlink:href="#hd"/>
<path d="M148.30 143.00v-31.00" class="stroke"/>
<use x="144.80" y="137.00" xlink:href="#hd"/>
<use x="144.80" y="131.00" xlink:href="#hd"/>
<use x="183.80" y="119.00" xlink:href="#Hd"/>
<path d="M180.30 119.00v31.00" class="stroke"/>
<use x="183.80" y="131.00" xlink:href="#Hd"/>
<use x="183.80" y="125.00" xlink:href="#Hd"/>
<use x="236.00" y="119.00" xlink:href="#hd"/>
<path d="M232.50 119.00v31.00" class="stroke"/>
<use x="236.00" y="131.00" xlink:href="#hd"/>
<use x="236.00" y="125.00" xlink:href="#hd"/>
<use x="275.00" y="116.00" xlink:href="#hd"/>
<path d="M271.50 116.00v31.00" class="stroke"/>
<use x="275.00" y="128.00" xlink:href="#hd"/>
<use x="275.00" y="122.00" xlink:href="#hd"/>
<use x="311.90" y="116.00" xlink:href="#hd"/>
<path d="M308.40 116.00v31.00" class="stroke"/>
<use x="311.90" y="128.00" xlink:href="#hd"/>
<use x="311.90" y="122.00" xlink:href="#hd"/>
<use x="348.80" y="116.00" xlink:href="#hd"/>
<path d="M345.30 116.00v31.00" class="stroke"/>
<use x="348.80" y="128.00" xlink:href="#hd"/>
<use x="348.80" y="122.00" xlink:href="#hd"/>
<use x="387.90" y="143.00" xlink:href="#Hd"/>
<path d="M391.40 143.00v-31.00" class="stroke"/>
<use x="387.90" y="137.00" xlink:href="#Hd"/>
<use x="387.90" y="131.00" xlink:href="#Hd"/>
<use x="440.00" y="143.00" xlink:href="#hd"/>
<path d="M443.50 143.00v-31.00" class="stroke"/>
<use x="440.00" y="137.00" xlink:href="#hd"/>
<use x="440.00" y="131.00" xlink:href="#hd"/>
<use x="479.10" y="119.00" xlink:href="#hd"/>
<path d="M475.60 119.00v31.00" class="stroke"/>
<use x="479.10" y="131.00" xlink:href="#hd"/>
<use x="479.10" y="125.00" xlink:href="#hd"/>
<use x="516.00" y="119.00" xlink:href="#hd"/>
<path d="M512.50 119.00v31.00" class="stroke"/>
<use x="516.00" y="131.00" xlink:href="#hd"/>
<use x="516.00" y="125.00" xlink:href="#hd"/>
<use x="552.90" y="119.00" xlink:href="#hd"/>
<path d="M549.40 119.00v31.00" class="stroke"/>
<use x="552.90" y="131.00" xlink:href="#hd"/>
<use x="552.90" y="125.00" xlink:href="#hd"/>
<use x="591.90" y="116.00" xlink:href="#hd"/>
<path d="M588.40 116.00v31.00" class="stroke"/>
<use x="591.90" y="128.00" xlink:href="#hd"/>
<use x="591.90" y="122.00" xlink:href="#hd"/>
<use x="628.80" y="116.00" xlink:href="#hd"/>
<path d="M625.30 116.00v31.00" class="stroke"/>
<use x="628.80" y="128.00" xlink:href="#hd"/>
<use x="628.80" y="122.00" xlink:href="#hd"/>
<use x="665.70" y="116.00" xlink:href="#hd"/>
<path d="M662.20 116.00v31.00" class="stroke"/>
<use x="665.70" y="128.00" xlink:href="#hd"/>
<use x="665.70" y="122.00" xlink:href="#hd"/>
</g>
<g stroke-width="0.70" style="font:italic 11.00px Times">
<path class="stroke" stroke-width="1"
	d="M10.00 273.40v-82.00"/>
<g transform="translate(10.00,191.40) scale(1,0.82)">
	<use xlink:href="#brace"/>
</g>
<path class="stroke" stroke-width="1"
	d="M135.50 215.40v-24.00"/>
<path class="stroke" stroke-width="1"
	d="M135.50 273.40v-24.00"/>
<path class="stroke" stroke-width="1"
	d="M251.20 215.40v-24.00"/>
<path class="stroke" stroke-width="1"
	d="M251.20 273.40v-24.00"/>
<path class="stroke" stroke-width="1"
	d="M366.80 215.40v-24.00"/>
<path class="stroke" stroke-width="1"
	d="M366.80 273.40v-24.00"/>
<path class="stroke" stroke-width="1"
	d="M482.50 215.40v-24.00"/>
<path class="stroke" stroke-width="1"
	d="M482.50 273.40v-24.00"/>
<path class="stroke" stroke-width="1"
	d="M575.90 215.40v-24.00"/>
<path class="stroke" stroke-width="1"
	d="M575.90 273.40v-24.00"/>
<path class="stroke" stroke-width="1"
	d="M691.60 215.40v-24.00"/>
<path class="stroke" stroke-width="1"
	d="M691.60 273.40v-24.00"/>
<path d="m10.00 215.40
	h681.60
	M10.00 209.40
	h681.60
	M10.00 203.40
	h681.60
	M10.00 197.40
	h681.60
	M10.00 191.40
	h681.60
	" class="stroke"/>
<path d="m10.00 273.40
	h681.60
	M10.00 267.40
	h681.60
	M10.00 261.40
	h681.60
	M10.00 255.40
	h681.60
	M10.00 249.40
	h681.60
	" class="stroke"/>
</g>
<g stroke-width="0.70" style="font:bold 13.00px Times">
<text x="51.60" y="186.80">V</text>
</g>
<g stroke-width="0.70" style="font:bold 13.00px Times">
<text x="147.20" y="175.80">I</text>
</g>
<g stroke-width="0.70" style="font:bold 13.00px Times">
<text x="258.70" y="186.80">V<tspan
	 style="font:italic 11.00px Times">⁷</tspan></text>
</g>
<g stroke-width="0.70" style="font:bold 13.00px Times">
<text x="376.50" y="186.80">I<tspan
	 style="font:italic 11.00px Times">¹</tspan></text>
</g>
<g stroke-width="0.70" style="font:bold 13.00px Times">
<text x="490.10" y="184.80">IV</text>
</g>
<g stroke-width="0.70" style="font:bold 13.00px Times">
<text x="587.60" y="186.80">I</text>
<use x="22.00" y="209.40" xlink:href="#tclef"/>
<use x="37.00" y="191.40" xlink:href="#sh0"/>
<use x="55.50" y="218.40" xlink:href="#Hd"/>
<path d="M59.00 218.40v-21.00" class="stroke"/>
<use x="109.00" y="206.40" xlink:href="#hd"/>
<path d="M112.50 206.40v-21.00" class="stroke"/>
<use x="149.00" y="203.40" xlink:href="#hd"/>
<path d="M152.50 203.40v-21.00" class="stroke"/>
<use x="186.80" y="206.40" xlink:href="#hd"/>
<path d="M190.30 206.40v-21.00" class="stroke"/>
<use x="224.70" y="209.40" xlink:href="#hd"/>
<path d="M228.20 209.40v-21.00" class="stroke"/>
<use x="264.60" y="200.40" xlink:href="#hd"/>
<path d="M261.10 200.40v21.00" class="stroke"/>
<use x="302.50" y="203.40" xlink:href="#hd"/>
<path d="M299.00 203.40v21.00" class="stroke"/>
<use x="340.30" y="206.40" xlink:href="#hd"/>
<path d="M343.80 206.40v-21.00" class="stroke"/>
<use x="380.30" y="197.40" xlink:href="#hd"/>
<path d="M376.80 197.40v21.00" class="stroke"/>
<use x="418.10" y="200.40" xlink:href="#hd"/>
<path d="M414.60 200.40v21.00" class="stroke"/>
<use x="455.90" y="203.40" xlink:href="#hd"/>
<path d="M452.40 203.40v21.00" class="stroke"/>
<use x="495.90" y="194.40" xlink:href="#Hd"/>
<path d="M492.40 194.40v21.00" class="stroke"/>
<use x="549.40" y="209.40" xlink:href="#hd"/>
<path d="M552.90 209.40v-21.00" class="stroke"/>
<use x="589.40" y="215.40" xlink:href="#hd"/>
<path d="M592.90 215.40v-21.00" class="stroke"/>
<use x="627.20" y="200.40" xlink:href="#hd"/>
<path d="M623.70 200.40v21.00" class="stroke"/>
<use x="665.10" y="203.40" xlink:href="#hd"/>
<path d="M661.60 203.40v21.00" class="stroke"/>
<use x="22.00" y="255.40" xlink:href="#bclef"/>
<use x="37.00" y="255.40" xlink:href="#sh0"/>
<use x="55.50" y="249.40" xlink:href="#Hd"/>
<path d="M52.00 249.40v31.00" class="stroke"/>
<use x="55.50" y="261.40" xlink:href="#Hd"/>
<use x="55.50" y="255.40" xlink:href="#Hd"/>
<use x="109.00" y="249.40" xlink:href="#hd"/>
<path d="M105.50 249.40v31.00" class="stroke"/>
<use x="109.00" y="261.40" xlink:href="#hd"/>
<use x="109.00" y="255.40" xlink:href="#hd"/>
<use x="149.00" y="273.40" xlink:href="#hd"/>
<path d="M152.50 273.40v-31.00" class="stroke"/>
<use x="149.00" y="267.40" xlink:href="#hd"/>
<use x="149.00" y="261.40" xlink:href="#hd"/>
<use x="186.80" y="273.40" xlink:href="#hd"/>
<path d="M190.30 273.40v-31.00" class="stroke"/>
<use x="186.80" y="267.40" xlink:href="#hd"/>
<use x="186.80" y="261.40" xlink:href="#hd"/>
<use x="224.70" y="273.40" xlink:href="#hd"/>
<path d="M228.20 273.40v-31.00" class="stroke"/>
<use x="224.70" y="267.40" xlink:href="#hd"/>
<use x="224.70" y="261.40" xlink:href="#hd"/>
<use x="264.60" y="249.40" xlink:href="#hd"/>
<path d="M261.10 249.40v31.00" class="stroke"/>
<use x="264.60" y="261.40" xlink:href="#hd"/>
<use x="264.60" y="255.40" xlink:href="#hd"/>
<use x="302.50" y="249.40" xlink:href="#hd"/>
<path d="M299.00 249.40v31.00" class="stroke"/>
<use x="302.50" y="261.40" xlink:href="#hd"/>
<use x="302.50" y="255.40" xlink:href="#hd"/>
<use x="340.30" y="249.40" xlink:href="#hd"/>
<path d="M336.80 249.40v31.00" class="stroke"/>
<use x="340.30" y="261.40" xlink:href="#hd"/>
<use x="340.30" y="255.40" xlink:href="#hd"/>
<use x="380.30" y="273.40" xlink:href="#hd"/>
<path d="M383.80 273.40v-31.00" class="stroke"/>
<use x="380.30" y="267.40" xlink:href="#hd"/>
<use x="380.30" y="261.40" xlink:href="#hd"/>
<use x="418.10" y="273.40" xlink:href="#hd"/>
<path d="M421.60 273.40v-31.00" class="stroke"/>
<use x="418.10" y="267.40" xlink:href="#hd"/>
<use x="418.10" y="261.40" xlink:href="#hd"/>
<use x="455.90" y="273.40" xlink:href="#hd"/>
<path d="M459.40 273.40v-31.00" class="stroke"/>
<use x="455.90" y="267.40" xlink:href="#hd"/>
<use x="455.90" y="261.40" xlink:href="#hd"/>
<use x="495.90" y="252.40" xlink:href="#Hd"/>
<path d="M492.40 252.40v31.00" class="stroke"/>
<use x="495.90" y="264.40" xlink:href="#Hd"/>
<use x="495.90" y="258.40" xlink:href="#Hd"/>
<use x="549.40" y="252.40" xlink:href="#hd"/>
<path d="M545.90 252.40v31.00" class="stroke"/>
<use x="549.40" y="264.40" xlink:href="#hd"/>
<use x="549.40" y="258.40" xlink:href="#hd"/>
<use x="589.40" y="273.40" xlink:href="#hd"/>
<path d="M592.90 273.40v-31.00" class="stroke"/>
<use x="589.40" y="267.40" xlink:href="#hd"/>
<use x="589.40" y="261.40" xlink:href="#hd"/>
<use x="627.20" y="273.40" xlink:href="#hd"/>
<path d="M630.70 273.40v-31.00" class="stroke"/>
<use x="627.20" y="267.40" xlink:href="#hd"/>
<use x="627.20" y="261.40" xlink:href="#hd"/>
<use x="665.10" y="273.40" xlink:href="#hd"/>
<path d="M668.60 273.40v-31.00" class="stroke"/>
<use x="665.10" y="267.40" xlink:href="#hd"/>
<use x="665.10" y="261.40" xlink:href="#hd"/>
</g>
<g stroke-width="0.70" style="font:bold 13.00px Times">
<path class="stroke" stroke-width="1"
	d="M10.00 401.40v-82.00"/>
<g transform="translate(10.00,319.40) scale(1,0.82)">
	<use xlink:href="#brace"/>
</g>
<path class="stroke" stroke-width="1"
	d="M163.00 343.40v-24.00"/>
<path class="stroke" stroke-width="1"
	d="M163.00 401.40v-24.00"/>
<path class="stroke" stroke-width="1"
	d="M222.20 343.40v-24.00"/>
<path class="stroke" stroke-width="1"
	d="M222.20 401.40v-24.00"/>
<path d="m10.00 343.40
	h212.20
	M10.00 337.40
	h212.20
	M10.00 331.40
	h212.20
	M10.00 325.40
	h212.20
	M10.00 319.40
	h212.20
	" class="stroke"/>
<path d="m10.00 401.40
	h212.20
	M10.00 395.40
	h212.20
	M10.00 389.40
	h212.20
	M10.00 383.40
	h212.20
	M10.00 377.40
	h212.20
	" class="stroke"/>
</g>
<g stroke-width="0.70" style="font:bold 13.00px Times">
<text x="53.20" y="306.80">I</text>
</g>
<g stroke-width="0.70" style="font:bold 13.00px Times">
<text x="175.30" y="309.80">I</text>
<use x="22.00" y="337.40" xlink:href="#tclef"/>
<use x="37.00" y="319.40" xlink:href="#sh0"/>
<use x="55.00" y="334.40" xlink:href="#hd"/>
<path d="M58.50 334.40v-21.00" class="stroke"/>
<use x="95.00" y="337.40" xlink:href="#hd"/>
<path d="M98.50 337.40v-21.00" class="stroke"/>
<use x="135.00" y="340.40" xlink:href="#hd"/>
<path d="M138.50 340.40v-21.00" class="stroke"/>
<use x="177.10" y="337.40" xlink:href="#Hd"/>
<circle class="fill" cx="185.80" cy="334.40" r="1.2"/>
<path d="M180.60 337.40v-21.00" class="stroke"/>
<use x="22.00" y="383.40" xlink:href="#bclef"/>
<use x="37.00" y="383.40" xlink:href="#sh0"/>
<use x="55.00" y="401.40" xlink:href="#hd"/>
<path d="M58.50 401.40v-31.00" class="stroke"/>
<use x="55.00" y="395.40" xlink:href="#hd"/>
<use x="55.00" y="389.40" xlink:href="#hd"/>
<use x="95.00" y="401.40" xlink:href="#hd"/>
<path d="M98.50 401.40v-31.00" class="stroke"/>
<use x="95.00" y="395.40" xlink:href="#hd"/>
<use x="95.00" y="389.40" xlink:href="#hd"/>
<use x="135.00" y="401.40" xlink:href="#hd"/>
<path d="M138.50 401.40v-31.00" class="stroke"/>
<use x="135.00" y="395.40" xlink:href="#hd"/>
<use x="135.00" y="389.40" xlink:href="#hd"/>
<use x="177.10" y="401.40" xlink:href="#Hd"/>
<circle class="fill" cx="185.80" cy="398.40" r="1.2"/>
<path d="M180.60 401.40v-31.00" class="stroke"/>
<use x="177.10" y="395.40" xlink:href="#Hd"/>
<circle class="fill" cx="185.80" cy="392.40" r="1.2"/>
<use x="177.10" y="389.40" xlink:href="#Hd"/>
<circle class="fill" cx="185.80" cy="386.40" r="1.2"/>
</g>
</svg>
