<?xml version="1.0" standalone="no"?>
<!DOCTYPE svg PUBLIC "-//W3C//DTD SVG 1.1//EN"
	"http://www.w3.org/Graphics/SVG/1.1/DTD/svg11.dtd">
<svg xmlns="http://www.w3.org/2000/svg" version="1.1"
	xmlns:xlink="http://www.w3.org/1999/xlink"
	color="black"
	width="701.60px" height="424.40px" viewBox="0 0 701.60 424.40" preserveAspectRatio="xMidYMid meet">
<style type="text/css">
.fill {fill: currentColor}
.stroke {stroke: currentColor; fill: none}
text{white-space: pre}
</style>
<title>/tmp/retab_hymnal_L1/he_who_would_valiant_be.abc (1) tune 1</title>
<!-- Creator: abcm2ps-8.14.11 -->
<!-- CreationDate: Apr 24, 2026 15:38 -->
<!-- CommandLine: /tmp/retab_hymnal_L1/he_who_would_valiant_be.abc -g -O /tmp/retab_hymnal_L1/he_who_would_valiant_be -->
<g stroke-width="0.70">
<!-- title: 090. He Who Would Valiant Be -->
</g>
<g stroke-width="0.70" style="font:20.00px Times">
<text x="350.80" y="22.00" text-anchor="middle">090. He Who Would Valiant Be</text>
</g>
<g stroke-width="0.70" style="font:20.00px Times">
<path class="stroke" stroke-width="1"
	d="M10.00 143.00v-82.00"/>
<defs>
<path id="brace" class="fill" d="m-2.5 101
	c-4.5 -4.6 -7.5 -12.2 -4.4 -26.8
	3.5 -14.3 3.2 -21.7 -2.1 -24.2
	7.4 2.4 7.3 14.2 3.5 29.5
	-2.7 9.5 -1.5 16.2 3 21.5
	M-2.5 1c-4.5 4.6 -7.5 12.2 -4.4 26.8
	c3.5 14.3 3.2 21.7 -2.1 24.2
	7.4 -2.4 7.3 -14.2 3.5 -29.5
	-2.7 -9.5 -1.5 -16.2 3 -21.5"/>
</defs>
<g transform="translate(10.00,61.00) scale(1,0.82)">
	<use xlink:href="#brace"/>
</g>
<path class="stroke" stroke-width="1"
	d="M197.30 85.00v-24.00"/>
<path class="stroke" stroke-width="1"
	d="M197.30 143.00v-24.00"/>
<path class="stroke" stroke-width="1"
	d="M325.70 85.00v-24.00"/>
<path class="stroke" stroke-width="1"
	d="M325.70 143.00v-24.00"/>
<path class="stroke" stroke-width="1"
	d="M444.30 85.00v-24.00"/>
<path class="stroke" stroke-width="1"
	d="M444.30 143.00v-24.00"/>
<path class="stroke" stroke-width="1"
	d="M558.30 85.00v-24.00"/>
<path class="stroke" stroke-width="1"
	d="M558.30 143.00v-24.00"/>
<path class="stroke" stroke-width="1"
	d="M691.60 85.00v-24.00"/>
<path class="stroke" stroke-width="1"
	d="M691.60 143.00v-24.00"/>
<path d="m10.00 85.00
	h681.60
	M10.00 79.00
	h681.60
	M10.00 73.00
	h681.60
	M10.00 67.00
	h681.60
	M10.00 61.00
	h681.60
	" class="stroke"/>
<path d="m10.00 143.00
	h681.60
	M10.00 137.00
	h681.60
	M10.00 131.00
	h681.60
	M10.00 125.00
	h681.60
	M10.00 119.00
	h681.60
	" class="stroke"/>
</g>
<g stroke-width="0.70" style="font:bold 13.00px Times">
<text x="74.70" y="56.40">I</text>
</g>
<g stroke-width="0.70" style="font:bold 13.00px Times">
<text x="205.60" y="54.40">vi</text>
</g>
<g stroke-width="0.70" style="font:bold 13.00px Times">
<text x="330.90" y="48.40">V<tspan
	 style="font:italic 11.00px Times">⁷³</tspan></text>
</g>
<g stroke-width="0.70" style="font:bold 13.00px Times">
<text x="455.00" y="54.40">I</text>
</g>
<g stroke-width="0.70" style="font:bold 13.00px Times">
<text x="569.00" y="54.40">I</text>
<defs>
<path id="utclef" class="fill" d="m-50 -90
	c-72 -41 -72 -158 52 -188
	150 -10 220 188 90 256
	-114 52 -275 0 -293 -136
	-15 -181 93 -229 220 -334
	88 -87 79 -133 62 -210
	-51 33 -94 105 -89 186
	17 267 36 374 49 574
	6 96 -19 134 -77 135
	-80 1 -126 -93 -61 -133
	85 -41 133 101 31 105
	23 17 92 37 90 -92
	-10 -223 -39 -342 -50 -617
	0 -90 0 -162 96 -232
	56 72 63 230 22 289
	-74 106 -257 168 -255 316
	9 153 148 185 252 133
	86 -65 29 -192 -80 -176
	-71 12 -105 67 -59 124"/>
<use id="tclef" transform="translate(0,6) scale(0.045)"
	xlink:href="#utclef"/>
</defs>
<use x="22.00" y="79.00" xlink:href="#tclef"/>
<defs>
<path id="usharp" class="fill" d="
	m136 -702
	v890
	h32
	v-890
	m128 840
	h32
	v-888
	h-32
	m-232 286
	v116
	l338 -96
	v-116
	m-338 442
	v116
	l338 -98
	v-114"/>
<use id="sh0" transform="translate(-4,5) scale(0.018)"
	xlink:href="#usharp"/>
</defs>
<use x="37.00" y="61.00" xlink:href="#sh0"/>
<use x="42.50" y="70.00" xlink:href="#sh0"/>
<g style="font:bold 16px serif"
	transform="translate(58.50,84.50) scale(1.2,1)">
	<text text-anchor="middle">4</text>
	<text y="-12" text-anchor="middle">4</text>
</g>
<defs>
<ellipse id="hd" rx="4.1" ry="2.9"
	transform="rotate(-20)" class="fill"/>
</defs>
<use x="76.50" y="88.00" xlink:href="#hd"/>
<circle class="fill" cx="84.20" cy="88.00" r="1.2"/>
<path d="M80.00 88.00v-21.00" class="stroke"/>
<use x="115.30" y="85.00" xlink:href="#hd"/>
<path d="M118.80 85.00v-21.00" class="stroke"/>
<path class="fill"
	d="M118.80 64.00c0.6 5.6 9.6 9 5.6 18.4
	1.6 -6 -1.3 -11.6 -5.6 -12.8
"/>
<use x="139.50" y="82.00" xlink:href="#hd"/>
<path d="M143.00 82.00v-21.00" class="stroke"/>
<use x="173.40" y="88.00" xlink:href="#hd"/>
<path d="M176.90 88.00v-21.00" class="stroke"/>
<use x="209.80" y="82.00" xlink:href="#hd"/>
<path d="M213.30 82.00v-21.00" class="stroke"/>
<path class="fill"
	d="M213.30 61.00c0.6 5.6 9.6 9 5.6 18.4
	1.6 -6 -1.3 -11.6 -5.6 -12.8
"/>
<use x="234.00" y="79.00" xlink:href="#hd"/>
<path d="M237.50 79.00v-21.00" class="stroke"/>
<path class="fill"
	d="M237.50 58.00c0.6 5.6 9.6 9 5.6 18.4
	1.6 -6 -1.3 -11.6 -5.6 -12.8
"/>
<use x="258.20" y="76.00" xlink:href="#hd"/>
<path d="M261.70 76.00v-21.00" class="stroke"/>
<defs>
<path id="Hd" class="fill" d="m3 -1.6
	c-1 -1.8 -7 1.4 -6 3.2
	1 1.8 7 -1.4 6 -3.2
	m0.5 -0.3
	c2 3.8 -5 7.6 -7 3.8
	-2 -3.8 5 -7.6 7 -3.8"/>
</defs>
<use x="292.00" y="73.00" xlink:href="#Hd"/>
<path d="M295.50 73.00v-21.00" class="stroke"/>
<use x="338.70" y="76.00" xlink:href="#Hd"/>
<path d="M342.20 76.00v-21.00" class="stroke"/>
<use x="386.50" y="76.00" xlink:href="#hd"/>
<path d="M390.00 76.00v-21.00" class="stroke"/>
<use x="420.40" y="88.00" xlink:href="#hd"/>
<path d="M423.90 88.00v-21.00" class="stroke"/>
<defs>
<path id="hl" class="stroke" d="m-6 0h12"/>
</defs>
<use x="456.80" y="91.00" xlink:href="#hl"/>
<use x="456.80" y="91.00" xlink:href="#hd"/>
<path d="M460.30 91.00v-21.00" class="stroke"/>
<use x="490.70" y="88.00" xlink:href="#hd"/>
<path d="M494.20 88.00v-21.00" class="stroke"/>
<use x="524.60" y="88.00" xlink:href="#Hd"/>
<path d="M528.10 88.00v-21.00" class="stroke"/>
<use x="570.80" y="88.00" xlink:href="#hd"/>
<circle class="fill" cx="578.50" cy="88.00" r="1.2"/>
<path d="M574.30 88.00v-21.00" class="stroke"/>
<use x="609.60" y="85.00" xlink:href="#hd"/>
<path d="M613.10 85.00v-21.00" class="stroke"/>
<path class="fill"
	d="M613.10 64.00c0.6 5.6 9.6 9 5.6 18.4
	1.6 -6 -1.3 -11.6 -5.6 -12.8
"/>
<use x="633.80" y="82.00" xlink:href="#hd"/>
<path d="M637.30 82.00v-21.00" class="stroke"/>
<use x="667.70" y="88.00" xlink:href="#hd"/>
<path d="M671.20 88.00v-21.00" class="stroke"/>
<defs>
<path id="ubclef" class="fill" d="m-200 -87
	c124 -35 222 -78 254 -236
	43 -228 -167 -246 -192 -103
	59 -80 157 22 92 78
	-62 47 -115 -22 -106 -88
	21 -141 270 -136 274 52
	-1 175 -106 264 -322 297
	m357 -250
	c0 -36 51 -34 51 0
	0 37 -51 36 -51 0
	m-2 -129
	c0 -36 51 -34 51 0
	0 38 -51 37 -51 0"/>
<use id="bclef" transform="translate(0,18) scale(0.045)"
	xlink:href="#ubclef"/>
</defs>
<use x="22.00" y="125.00" xlink:href="#bclef"/>
<use x="37.00" y="125.00" xlink:href="#sh0"/>
<use x="42.50" y="134.00" xlink:href="#sh0"/>
<g style="font:bold 16px serif"
	transform="translate(58.50,142.50) scale(1.2,1)">
	<text text-anchor="middle">4</text>
	<text y="-12" text-anchor="middle">4</text>
</g>
<use x="76.50" y="149.00" xlink:href="#hl"/>
<use x="76.50" y="152.00" xlink:href="#hd"/>
<circle class="fill" cx="84.20" cy="152.00" r="1.2"/>
<path d="M80.00 152.00v-31.00" class="stroke"/>
<use x="76.50" y="146.00" xlink:href="#hd"/>
<circle class="fill" cx="84.20" cy="146.00" r="1.2"/>
<use x="76.50" y="140.00" xlink:href="#hd"/>
<circle class="fill" cx="84.20" cy="140.00" r="1.2"/>
<use x="115.30" y="149.00" xlink:href="#hl"/>
<use x="115.30" y="152.00" xlink:href="#hd"/>
<path d="M118.80 152.00v-31.00" class="stroke"/>
<path class="fill"
	d="M118.80 121.00c0.6 5.6 9.6 9 5.6 18.4
	1.6 -6 -1.3 -11.6 -5.6 -12.8
"/>
<use x="115.30" y="146.00" xlink:href="#hd"/>
<use x="115.30" y="140.00" xlink:href="#hd"/>
<use x="139.50" y="149.00" xlink:href="#hl"/>
<use x="139.50" y="152.00" xlink:href="#hd"/>
<path d="M143.00 152.00v-31.00" class="stroke"/>
<use x="139.50" y="146.00" xlink:href="#hd"/>
<use x="139.50" y="140.00" xlink:href="#hd"/>
<use x="173.40" y="149.00" xlink:href="#hl"/>
<use x="173.40" y="152.00" xlink:href="#hd"/>
<path d="M176.90 152.00v-31.00" class="stroke"/>
<use x="173.40" y="146.00" xlink:href="#hd"/>
<use x="173.40" y="140.00" xlink:href="#hd"/>
<use x="209.80" y="137.00" xlink:href="#hd"/>
<path d="M213.30 137.00v-31.00" class="stroke"/>
<path class="fill"
	d="M213.30 106.00c0.6 5.6 9.6 9 5.6 18.4
	1.6 -6 -1.3 -11.6 -5.6 -12.8
"/>
<use x="209.80" y="131.00" xlink:href="#hd"/>
<use x="209.80" y="125.00" xlink:href="#hd"/>
<use x="234.00" y="137.00" xlink:href="#hd"/>
<path d="M237.50 137.00v-31.00" class="stroke"/>
<path class="fill"
	d="M237.50 106.00c0.6 5.6 9.6 9 5.6 18.4
	1.6 -6 -1.3 -11.6 -5.6 -12.8
"/>
<use x="234.00" y="131.00" xlink:href="#hd"/>
<use x="234.00" y="125.00" xlink:href="#hd"/>
<use x="258.20" y="137.00" xlink:href="#hd"/>
<path d="M261.70 137.00v-31.00" class="stroke"/>
<use x="258.20" y="131.00" xlink:href="#hd"/>
<use x="258.20" y="125.00" xlink:href="#hd"/>
<use x="292.00" y="137.00" xlink:href="#Hd"/>
<path d="M295.50 137.00v-31.00" class="stroke"/>
<use x="292.00" y="131.00" xlink:href="#Hd"/>
<use x="292.00" y="125.00" xlink:href="#Hd"/>
<use x="338.70" y="140.00" xlink:href="#Hd"/>
<path d="M342.20 140.00v-31.00" class="stroke"/>
<use x="338.70" y="134.00" xlink:href="#Hd"/>
<use x="338.70" y="128.00" xlink:href="#Hd"/>
<use x="386.50" y="140.00" xlink:href="#hd"/>
<path d="M390.00 140.00v-31.00" class="stroke"/>
<use x="386.50" y="134.00" xlink:href="#hd"/>
<use x="386.50" y="128.00" xlink:href="#hd"/>
<use x="420.40" y="140.00" xlink:href="#hd"/>
<path d="M423.90 140.00v-31.00" class="stroke"/>
<use x="420.40" y="134.00" xlink:href="#hd"/>
<use x="420.40" y="128.00" xlink:href="#hd"/>
<use x="456.80" y="149.00" xlink:href="#hl"/>
<use x="456.80" y="152.00" xlink:href="#hd"/>
<path d="M460.30 152.00v-31.00" class="stroke"/>
<use x="456.80" y="146.00" xlink:href="#hd"/>
<use x="456.80" y="140.00" xlink:href="#hd"/>
<use x="490.70" y="149.00" xlink:href="#hl"/>
<use x="490.70" y="152.00" xlink:href="#hd"/>
<path d="M494.20 152.00v-31.00" class="stroke"/>
<use x="490.70" y="146.00" xlink:href="#hd"/>
<use x="490.70" y="140.00" xlink:href="#hd"/>
<use x="524.60" y="149.00" xlink:href="#hl"/>
<use x="524.60" y="152.00" xlink:href="#Hd"/>
<path d="M528.10 152.00v-31.00" class="stroke"/>
<use x="524.60" y="146.00" xlink:href="#Hd"/>
<use x="524.60" y="140.00" xlink:href="#Hd"/>
<use x="570.80" y="149.00" xlink:href="#hl"/>
<use x="570.80" y="152.00" xlink:href="#hd"/>
<circle class="fill" cx="578.50" cy="152.00" r="1.2"/>
<path d="M574.30 152.00v-31.00" class="stroke"/>
<use x="570.80" y="146.00" xlink:href="#hd"/>
<circle class="fill" cx="578.50" cy="146.00" r="1.2"/>
<use x="570.80" y="140.00" xlink:href="#hd"/>
<circle class="fill" cx="578.50" cy="140.00" r="1.2"/>
<use x="609.60" y="149.00" xlink:href="#hl"/>
<use x="609.60" y="152.00" xlink:href="#hd"/>
<path d="M613.10 152.00v-31.00" class="stroke"/>
<path class="fill"
	d="M613.10 121.00c0.6 5.6 9.6 9 5.6 18.4
	1.6 -6 -1.3 -11.6 -5.6 -12.8
"/>
<use x="609.60" y="146.00" xlink:href="#hd"/>
<use x="609.60" y="140.00" xlink:href="#hd"/>
<use x="633.80" y="149.00" xlink:href="#hl"/>
<use x="633.80" y="152.00" xlink:href="#hd"/>
<path d="M637.30 152.00v-31.00" class="stroke"/>
<use x="633.80" y="146.00" xlink:href="#hd"/>
<use x="633.80" y="140.00" xlink:href="#hd"/>
<use x="667.70" y="149.00" xlink:href="#hl"/>
<use x="667.70" y="152.00" xlink:href="#hd"/>
<path d="M671.20 152.00v-31.00" class="stroke"/>
<use x="667.70" y="146.00" xlink:href="#hd"/>
<use x="667.70" y="140.00" xlink:href="#hd"/>
</g>
<g stroke-width="0.70" style="font:bold 13.00px Times">
<path class="stroke" stroke-width="1"
	d="M10.00 271.00v-82.00"/>
<g transform="translate(10.00,189.00) scale(1,0.82)">
	<use xlink:href="#brace"/>
</g>
<path class="stroke" stroke-width="1"
	d="M182.60 213.00v-24.00"/>
<path class="stroke" stroke-width="1"
	d="M182.60 271.00v-24.00"/>
<path class="stroke" stroke-width="1"
	d="M307.20 213.00v-24.00"/>
<path class="stroke" stroke-width="1"
	d="M307.20 271.00v-24.00"/>
<path class="stroke" stroke-width="1"
	d="M427.10 213.00v-24.00"/>
<path class="stroke" stroke-width="1"
	d="M427.10 271.00v-24.00"/>
<path class="stroke" stroke-width="1"
	d="M551.60 213.00v-24.00"/>
<path class="stroke" stroke-width="1"
	d="M551.60 271.00v-24.00"/>
<path class="stroke" stroke-width="1"
	d="M691.60 213.00v-24.00"/>
<path class="stroke" stroke-width="1"
	d="M691.60 271.00v-24.00"/>
<path d="m10.00 213.00
	h681.60
	M10.00 207.00
	h681.60
	M10.00 201.00
	h681.60
	M10.00 195.00
	h681.60
	M10.00 189.00
	h681.60
	" class="stroke"/>
<path d="m10.00 271.00
	h681.60
	M10.00 265.00
	h681.60
	M10.00 259.00
	h681.60
	M10.00 253.00
	h681.60
	M10.00 247.00
	h681.60
	" class="stroke"/>
</g>
<g stroke-width="0.70" style="font:bold 13.00px Times">
<text x="56.30" y="182.40">vi</text>
</g>
<g stroke-width="0.70" style="font:bold 13.00px Times">
<text x="187.80" y="176.40">V<tspan
	 style="font:italic 11.00px Times">⁷³</tspan></text>
</g>
<g stroke-width="0.70" style="font:bold 13.00px Times">
<text x="318.10" y="182.40">I</text>
</g>
<g stroke-width="0.70" style="font:bold 13.00px Times">
<text x="438.20" y="176.40">I</text>
</g>
<g stroke-width="0.70" style="font:bold 13.00px Times">
<text x="561.40" y="182.40">ii</text>
<use x="22.00" y="207.00" xlink:href="#tclef"/>
<use x="37.00" y="189.00" xlink:href="#sh0"/>
<use x="42.50" y="198.00" xlink:href="#sh0"/>
<use x="60.50" y="210.00" xlink:href="#hd"/>
<path d="M64.00 210.00v-21.00" class="stroke"/>
<path class="fill"
	d="M64.00 189.00c0.6 5.6 9.6 9 5.6 18.4
	1.6 -6 -1.3 -11.6 -5.6 -12.8
"/>
<use x="85.90" y="207.00" xlink:href="#hd"/>
<path d="M89.40 207.00v-21.00" class="stroke"/>
<path class="fill"
	d="M89.40 186.00c0.6 5.6 9.6 9 5.6 18.4
	1.6 -6 -1.3 -11.6 -5.6 -12.8
"/>
<use x="111.30" y="204.00" xlink:href="#hd"/>
<path d="M114.80 204.00v-21.00" class="stroke"/>
<use x="147.10" y="201.00" xlink:href="#Hd"/>
<path d="M150.60 201.00v-21.00" class="stroke"/>
<use x="195.60" y="204.00" xlink:href="#Hd"/>
<path d="M199.10 204.00v-21.00" class="stroke"/>
<use x="246.20" y="204.00" xlink:href="#hd"/>
<path d="M249.70 204.00v-21.00" class="stroke"/>
<use x="282.00" y="216.00" xlink:href="#hd"/>
<path d="M285.50 216.00v-21.00" class="stroke"/>
<use x="319.90" y="219.00" xlink:href="#hl"/>
<use x="319.90" y="219.00" xlink:href="#hd"/>
<path d="M323.40 219.00v-21.00" class="stroke"/>
<use x="355.80" y="216.00" xlink:href="#hd"/>
<path d="M359.30 216.00v-21.00" class="stroke"/>
<use x="391.60" y="216.00" xlink:href="#Hd"/>
<path d="M395.10 216.00v-21.00" class="stroke"/>
<use x="440.10" y="204.00" xlink:href="#Hd"/>
<path d="M443.60 204.00v-21.00" class="stroke"/>
<use x="490.70" y="195.00" xlink:href="#hd"/>
<path d="M487.20 195.00v21.00" class="stroke"/>
<use x="526.50" y="201.00" xlink:href="#hd"/>
<path d="M523.00 201.00v21.00" class="stroke"/>
<use x="564.40" y="198.00" xlink:href="#hd"/>
<path d="M560.90 198.00v21.00" class="stroke"/>
<use x="600.20" y="195.00" xlink:href="#hd"/>
<path d="M596.70 195.00v21.00" class="stroke"/>
<path class="fill"
	d="M596.70 216.00c0.6 -5.6 9.6 -9 5.6 -18.4
	1.6 6 -1.3 11.6 -5.6 12.8
"/>
<use x="625.70" y="198.00" xlink:href="#hd"/>
<path d="M622.20 198.00v21.00" class="stroke"/>
<path class="fill"
	d="M622.20 219.00c0.6 -5.6 9.6 -9 5.6 -18.4
	1.6 6 -1.3 11.6 -5.6 12.8
"/>
<use x="651.10" y="201.00" xlink:href="#Hd"/>
<circle class="fill" cx="659.80" cy="198.00" r="1.2"/>
<path d="M647.60 201.00v21.00" class="stroke"/>
<use x="22.00" y="253.00" xlink:href="#bclef"/>
<use x="37.00" y="253.00" xlink:href="#sh0"/>
<use x="42.50" y="262.00" xlink:href="#sh0"/>
<use x="60.50" y="265.00" xlink:href="#hd"/>
<path d="M64.00 265.00v-31.00" class="stroke"/>
<path class="fill"
	d="M64.00 234.00c0.6 5.6 9.6 9 5.6 18.4
	1.6 -6 -1.3 -11.6 -5.6 -12.8
"/>
<use x="60.50" y="259.00" xlink:href="#hd"/>
<use x="60.50" y="253.00" xlink:href="#hd"/>
<use x="85.90" y="265.00" xlink:href="#hd"/>
<path d="M89.40 265.00v-31.00" class="stroke"/>
<path class="fill"
	d="M89.40 234.00c0.6 5.6 9.6 9 5.6 18.4
	1.6 -6 -1.3 -11.6 -5.6 -12.8
"/>
<use x="85.90" y="259.00" xlink:href="#hd"/>
<use x="85.90" y="253.00" xlink:href="#hd"/>
<use x="111.30" y="265.00" xlink:href="#hd"/>
<path d="M114.80 265.00v-31.00" class="stroke"/>
<use x="111.30" y="259.00" xlink:href="#hd"/>
<use x="111.30" y="253.00" xlink:href="#hd"/>
<use x="147.10" y="265.00" xlink:href="#Hd"/>
<path d="M150.60 265.00v-31.00" class="stroke"/>
<use x="147.10" y="259.00" xlink:href="#Hd"/>
<use x="147.10" y="253.00" xlink:href="#Hd"/>
<use x="195.60" y="268.00" xlink:href="#Hd"/>
<path d="M199.10 268.00v-31.00" class="stroke"/>
<use x="195.60" y="262.00" xlink:href="#Hd"/>
<use x="195.60" y="256.00" xlink:href="#Hd"/>
<use x="246.20" y="268.00" xlink:href="#hd"/>
<path d="M249.70 268.00v-31.00" class="stroke"/>
<use x="246.20" y="262.00" xlink:href="#hd"/>
<use x="246.20" y="256.00" xlink:href="#hd"/>
<use x="282.00" y="268.00" xlink:href="#hd"/>
<path d="M285.50 268.00v-31.00" class="stroke"/>
<use x="282.00" y="262.00" xlink:href="#hd"/>
<use x="282.00" y="256.00" xlink:href="#hd"/>
<use x="319.90" y="277.00" xlink:href="#hl"/>
<use x="319.90" y="280.00" xlink:href="#hd"/>
<path d="M323.40 280.00v-31.00" class="stroke"/>
<use x="319.90" y="274.00" xlink:href="#hd"/>
<use x="319.90" y="268.00" xlink:href="#hd"/>
<use x="355.80" y="277.00" xlink:href="#hl"/>
<use x="355.80" y="280.00" xlink:href="#hd"/>
<path d="M359.30 280.00v-31.00" class="stroke"/>
<use x="355.80" y="274.00" xlink:href="#hd"/>
<use x="355.80" y="268.00" xlink:href="#hd"/>
<use x="391.60" y="277.00" xlink:href="#hl"/>
<use x="391.60" y="280.00" xlink:href="#Hd"/>
<path d="M395.10 280.00v-31.00" class="stroke"/>
<use x="391.60" y="274.00" xlink:href="#Hd"/>
<use x="391.60" y="268.00" xlink:href="#Hd"/>
<use x="440.10" y="277.00" xlink:href="#hl"/>
<use x="440.10" y="280.00" xlink:href="#Hd"/>
<path d="M443.60 280.00v-31.00" class="stroke"/>
<use x="440.10" y="274.00" xlink:href="#Hd"/>
<use x="440.10" y="268.00" xlink:href="#Hd"/>
<use x="490.70" y="277.00" xlink:href="#hl"/>
<use x="490.70" y="280.00" xlink:href="#hd"/>
<path d="M494.20 280.00v-31.00" class="stroke"/>
<use x="490.70" y="274.00" xlink:href="#hd"/>
<use x="490.70" y="268.00" xlink:href="#hd"/>
<use x="526.50" y="277.00" xlink:href="#hl"/>
<use x="526.50" y="280.00" xlink:href="#hd"/>
<path d="M530.00 280.00v-31.00" class="stroke"/>
<use x="526.50" y="274.00" xlink:href="#hd"/>
<use x="526.50" y="268.00" xlink:href="#hd"/>
<use x="564.40" y="277.00" xlink:href="#hl"/>
<use x="564.40" y="277.00" xlink:href="#hd"/>
<path d="M567.90 277.00v-31.00" class="stroke"/>
<use x="564.40" y="271.00" xlink:href="#hd"/>
<use x="564.40" y="265.00" xlink:href="#hd"/>
<use x="600.20" y="277.00" xlink:href="#hl"/>
<use x="600.20" y="277.00" xlink:href="#hd"/>
<path d="M603.70 277.00v-31.00" class="stroke"/>
<path class="fill"
	d="M603.70 246.00c0.6 5.6 9.6 9 5.6 18.4
	1.6 -6 -1.3 -11.6 -5.6 -12.8
"/>
<use x="600.20" y="271.00" xlink:href="#hd"/>
<use x="600.20" y="265.00" xlink:href="#hd"/>
<use x="625.70" y="277.00" xlink:href="#hl"/>
<use x="625.70" y="277.00" xlink:href="#hd"/>
<path d="M629.20 277.00v-31.00" class="stroke"/>
<path class="fill"
	d="M629.20 246.00c0.6 5.6 9.6 9 5.6 18.4
	1.6 -6 -1.3 -11.6 -5.6 -12.8
"/>
<use x="625.70" y="271.00" xlink:href="#hd"/>
<use x="625.70" y="265.00" xlink:href="#hd"/>
<use x="651.10" y="277.00" xlink:href="#hl"/>
<use x="651.10" y="277.00" xlink:href="#Hd"/>
<circle class="fill" cx="659.80" cy="274.00" r="1.2"/>
<path d="M654.60 277.00v-31.00" class="stroke"/>
<use x="651.10" y="271.00" xlink:href="#Hd"/>
<circle class="fill" cx="659.80" cy="268.00" r="1.2"/>
<use x="651.10" y="265.00" xlink:href="#Hd"/>
<circle class="fill" cx="659.80" cy="262.00" r="1.2"/>
</g>
<g stroke-width="0.70" style="font:bold 13.00px Times">
<path class="stroke" stroke-width="1"
	d="M10.00 401.40v-82.00"/>
<g transform="translate(10.00,319.40) scale(1,0.82)">
	<use xlink:href="#brace"/>
</g>
<path class="stroke" stroke-width="1"
	d="M164.60 343.40v-24.00"/>
<path class="stroke" stroke-width="1"
	d="M164.60 401.40v-24.00"/>
<path class="stroke" stroke-width="1"
	d="M281.40 343.40v-24.00"/>
<path class="stroke" stroke-width="1"
	d="M281.40 401.40v-24.00"/>
<path class="stroke" stroke-width="1"
	d="M382.20 343.40v-24.00"/>
<path class="stroke" stroke-width="1"
	d="M382.20 401.40v-24.00"/>
<path class="stroke" stroke-width="1"
	d="M546.20 343.40v-24.00"/>
<path class="stroke" stroke-width="1"
	d="M546.20 401.40v-24.00"/>
<path class="stroke" stroke-width="1"
	d="M691.60 343.40v-24.00"/>
<path class="stroke" stroke-width="1"
	d="M691.60 401.40v-24.00"/>
<path d="m10.00 343.40
	h681.60
	M10.00 337.40
	h681.60
	M10.00 331.40
	h681.60
	M10.00 325.40
	h681.60
	M10.00 319.40
	h681.60
	" class="stroke"/>
<path d="m10.00 401.40
	h681.60
	M10.00 395.40
	h681.60
	M10.00 389.40
	h681.60
	M10.00 383.40
	h681.60
	M10.00 377.40
	h681.60
	" class="stroke"/>
</g>
<g stroke-width="0.70" style="font:bold 13.00px Times">
<text x="52.80" y="306.80">IV<tspan
	 style="font:italic 11.00px Times">¹</tspan></text>
</g>
<g stroke-width="0.70" style="font:bold 13.00px Times">
<text x="175.30" y="312.80">I</text>
</g>
<g stroke-width="0.70" style="font:bold 13.00px Times">
<text x="286.10" y="312.80">V<tspan
	 style="font:italic 11.00px Times">⁷³</tspan></text>
</g>
<g stroke-width="0.70" style="font:bold 13.00px Times">
<text x="388.90" y="303.80">IV</text>
</g>
<g stroke-width="0.70" style="font:bold 13.00px Times">
<text x="555.00" y="306.80">I<tspan
	 style="font:italic 11.00px Times">¹</tspan></text>
</g>
<g stroke-width="0.70" style="font:italic 11.00px Times">
<use x="22.00" y="337.40" xlink:href="#tclef"/>
<use x="37.00" y="319.40" xlink:href="#sh0"/>
<use x="42.50" y="328.40" xlink:href="#sh0"/>
<use x="60.50" y="334.40" xlink:href="#hd"/>
<path d="M64.00 334.40v-21.00" class="stroke"/>
<use x="93.70" y="340.40" xlink:href="#hd"/>
<path d="M97.20 340.40v-21.00" class="stroke"/>
<path class="fill"
	d="M97.20 319.40c0.6 5.6 9.6 9 5.6 18.4
	1.6 -6 -1.3 -11.6 -5.6 -12.8
"/>
<use x="117.50" y="343.40" xlink:href="#hd"/>
<path d="M121.00 343.40v-21.00" class="stroke"/>
<path class="fill"
	d="M121.00 322.40c0.6 5.6 9.6 9 5.6 18.4
	1.6 -6 -1.3 -11.6 -5.6 -12.8
"/>
<use x="141.20" y="346.40" xlink:href="#hd"/>
<path d="M144.70 346.40v-21.00" class="stroke"/>
<use x="177.10" y="340.40" xlink:href="#hd"/>
<path d="M180.60 340.40v-21.00" class="stroke"/>
<use x="210.40" y="337.40" xlink:href="#hd"/>
<path d="M213.90 337.40v-21.00" class="stroke"/>
<use x="243.70" y="334.40" xlink:href="#Hd"/>
<circle class="fill" cx="252.40" cy="334.40" r="1.2"/>
<path d="M247.20 334.40v-21.00" class="stroke"/>
<use x="293.90" y="325.40" xlink:href="#hd"/>
<path d="M290.40 325.40v21.00" class="stroke"/>
<use x="327.20" y="334.40" xlink:href="#hd"/>
<circle class="fill" cx="334.90" cy="334.40" r="1.2"/>
<path d="M330.70 334.40v-21.00" class="stroke"/>
<use x="365.20" y="334.40" xlink:href="#hd"/>
<path d="M368.70 334.40v-21.00" class="stroke"/>
<path class="fill"
	d="M368.70 313.40c0.6 5.6 9.6 9 5.6 18.4
	1.6 -6 -1.3 -11.6 -5.6 -12.8
"/>
<use x="394.70" y="331.40" xlink:href="#hd"/>
<path d="M398.20 331.40v-21.00" class="stroke"/>
<path class="fill"
	d="M398.20 310.40c0.6 5.6 9.6 9 5.6 18.4
	1.6 -6 -1.3 -11.6 -5.6 -12.8
"/>
<use x="418.40" y="334.40" xlink:href="#hd"/>
<path d="M421.90 334.40v-21.00" class="stroke"/>
<path class="fill"
	d="M421.90 313.40c0.6 5.6 9.6 9 5.6 18.4
	1.6 -6 -1.3 -11.6 -5.6 -12.8
"/>
<use x="442.10" y="337.40" xlink:href="#hd"/>
<path d="M445.60 337.40v-21.00" class="stroke"/>
<path class="fill"
	d="M445.60 316.40c0.6 5.6 9.6 9 5.6 18.4
	1.6 -6 -1.3 -11.6 -5.6 -12.8
"/>
<use x="465.80" y="340.40" xlink:href="#hd"/>
<path d="M469.30 340.40v-21.00" class="stroke"/>
<path class="fill"
	d="M469.30 319.40c0.6 5.6 9.6 9 5.6 18.4
	1.6 -6 -1.3 -11.6 -5.6 -12.8
"/>
<use x="489.60" y="343.40" xlink:href="#hd"/>
<path d="M493.10 343.40v-21.00" class="stroke"/>
<use x="522.80" y="331.40" xlink:href="#hd"/>
<path d="M526.30 331.40v-21.00" class="stroke"/>
<use x="558.70" y="334.40" xlink:href="#hd"/>
<path d="M562.20 334.40v-21.00" class="stroke"/>
<use x="592.00" y="346.40" xlink:href="#hd"/>
<path d="M595.50 346.40v-21.00" class="stroke"/>
<use x="625.30" y="349.40" xlink:href="#hl"/>
<use x="625.30" y="349.40" xlink:href="#hd"/>
<path d="M628.80 349.40v-21.00" class="stroke"/>
<use x="658.60" y="346.40" xlink:href="#Hd"/>
<path d="M662.10 346.40v-21.00" class="stroke"/>
<use x="22.00" y="383.40" xlink:href="#bclef"/>
<use x="37.00" y="383.40" xlink:href="#sh0"/>
<use x="42.50" y="392.40" xlink:href="#sh0"/>
<use x="60.50" y="401.40" xlink:href="#hd"/>
<path d="M64.00 401.40v-31.00" class="stroke"/>
<use x="60.50" y="395.40" xlink:href="#hd"/>
<use x="60.50" y="389.40" xlink:href="#hd"/>
<use x="93.70" y="401.40" xlink:href="#hd"/>
<path d="M97.20 401.40v-31.00" class="stroke"/>
<path class="fill"
	d="M97.20 370.40c0.6 5.6 9.6 9 5.6 18.4
	1.6 -6 -1.3 -11.6 -5.6 -12.8
"/>
<use x="93.70" y="395.40" xlink:href="#hd"/>
<use x="93.70" y="389.40" xlink:href="#hd"/>
<use x="117.50" y="401.40" xlink:href="#hd"/>
<path d="M121.00 401.40v-31.00" class="stroke"/>
<path class="fill"
	d="M121.00 370.40c0.6 5.6 9.6 9 5.6 18.4
	1.6 -6 -1.3 -11.6 -5.6 -12.8
"/>
<use x="117.50" y="395.40" xlink:href="#hd"/>
<use x="117.50" y="389.40" xlink:href="#hd"/>
<use x="141.20" y="401.40" xlink:href="#hd"/>
<path d="M144.70 401.40v-31.00" class="stroke"/>
<use x="141.20" y="395.40" xlink:href="#hd"/>
<use x="141.20" y="389.40" xlink:href="#hd"/>
<use x="177.10" y="407.40" xlink:href="#hl"/>
<use x="177.10" y="410.40" xlink:href="#hd"/>
<path d="M180.60 410.40v-31.00" class="stroke"/>
<use x="177.10" y="404.40" xlink:href="#hd"/>
<use x="177.10" y="398.40" xlink:href="#hd"/>
<use x="210.40" y="407.40" xlink:href="#hl"/>
<use x="210.40" y="410.40" xlink:href="#hd"/>
<path d="M213.90 410.40v-31.00" class="stroke"/>
<use x="210.40" y="404.40" xlink:href="#hd"/>
<use x="210.40" y="398.40" xlink:href="#hd"/>
<use x="243.70" y="407.40" xlink:href="#hl"/>
<use x="243.70" y="410.40" xlink:href="#Hd"/>
<circle class="fill" cx="252.40" cy="410.40" r="1.2"/>
<path d="M247.20 410.40v-31.00" class="stroke"/>
<use x="243.70" y="404.40" xlink:href="#Hd"/>
<circle class="fill" cx="252.40" cy="404.40" r="1.2"/>
<use x="243.70" y="398.40" xlink:href="#Hd"/>
<circle class="fill" cx="252.40" cy="398.40" r="1.2"/>
<use x="293.90" y="398.40" xlink:href="#hd"/>
<path d="M297.40 398.40v-31.00" class="stroke"/>
<use x="293.90" y="392.40" xlink:href="#hd"/>
<use x="293.90" y="386.40" xlink:href="#hd"/>
<use x="327.20" y="398.40" xlink:href="#hd"/>
<circle class="fill" cx="334.90" cy="398.40" r="1.2"/>
<path d="M330.70 398.40v-31.00" class="stroke"/>
<use x="327.20" y="392.40" xlink:href="#hd"/>
<circle class="fill" cx="334.90" cy="392.40" r="1.2"/>
<use x="327.20" y="386.40" xlink:href="#hd"/>
<circle class="fill" cx="334.90" cy="386.40" r="1.2"/>
<use x="365.20" y="398.40" xlink:href="#hd"/>
<path d="M368.70 398.40v-31.00" class="stroke"/>
<path class="fill"
	d="M368.70 367.40c0.6 5.6 9.6 9 5.6 18.4
	1.6 -6 -1.3 -11.6 -5.6 -12.8
"/>
<use x="365.20" y="392.40" xlink:href="#hd"/>
<use x="365.20" y="386.40" xlink:href="#hd"/>
<use x="394.70" y="401.40" xlink:href="#hd"/>
<path d="M398.20 401.40v-31.00" class="stroke"/>
<path class="fill"
	d="M398.20 370.40c0.6 5.6 9.6 9 5.6 18.4
	1.6 -6 -1.3 -11.6 -5.6 -12.8
"/>
<use x="394.70" y="395.40" xlink:href="#hd"/>
<use x="394.70" y="389.40" xlink:href="#hd"/>
<use x="418.40" y="401.40" xlink:href="#hd"/>
<path d="M421.90 401.40v-31.00" class="stroke"/>
<path class="fill"
	d="M421.90 370.40c0.6 5.6 9.6 9 5.6 18.4
	1.6 -6 -1.3 -11.6 -5.6 -12.8
"/>
<use x="418.40" y="395.40" xlink:href="#hd"/>
<use x="418.40" y="389.40" xlink:href="#hd"/>
<use x="442.10" y="401.40" xlink:href="#hd"/>
<path d="M445.60 401.40v-31.00" class="stroke"/>
<path class="fill"
	d="M445.60 370.40c0.6 5.6 9.6 9 5.6 18.4
	1.6 -6 -1.3 -11.6 -5.6 -12.8
"/>
<use x="442.10" y="395.40" xlink:href="#hd"/>
<use x="442.10" y="389.40" xlink:href="#hd"/>
<use x="465.80" y="401.40" xlink:href="#hd"/>
<path d="M469.30 401.40v-31.00" class="stroke"/>
<path class="fill"
	d="M469.30 370.40c0.6 5.6 9.6 9 5.6 18.4
	1.6 -6 -1.3 -11.6 -5.6 -12.8
"/>
<use x="465.80" y="395.40" xlink:href="#hd"/>
<use x="465.80" y="389.40" xlink:href="#hd"/>
<use x="489.60" y="401.40" xlink:href="#hd"/>
<path d="M493.10 401.40v-31.00" class="stroke"/>
<use x="489.60" y="395.40" xlink:href="#hd"/>
<use x="489.60" y="389.40" xlink:href="#hd"/>
<use x="522.80" y="401.40" xlink:href="#hd"/>
<path d="M526.30 401.40v-31.00" class="stroke"/>
<use x="522.80" y="395.40" xlink:href="#hd"/>
<use x="522.80" y="389.40" xlink:href="#hd"/>
<use x="558.70" y="407.40" xlink:href="#hl"/>
<use x="558.70" y="410.40" xlink:href="#hd"/>
<path d="M562.20 410.40v-31.00" class="stroke"/>
<use x="558.70" y="404.40" xlink:href="#hd"/>
<use x="558.70" y="398.40" xlink:href="#hd"/>
<use x="592.00" y="407.40" xlink:href="#hl"/>
<use x="592.00" y="410.40" xlink:href="#hd"/>
<path d="M595.50 410.40v-31.00" class="stroke"/>
<use x="592.00" y="404.40" xlink:href="#hd"/>
<use x="592.00" y="398.40" xlink:href="#hd"/>
<use x="625.30" y="407.40" xlink:href="#hl"/>
<use x="625.30" y="410.40" xlink:href="#hd"/>
<path d="M628.80 410.40v-31.00" class="stroke"/>
<use x="625.30" y="404.40" xlink:href="#hd"/>
<use x="625.30" y="398.40" xlink:href="#hd"/>
<use x="658.60" y="407.40" xlink:href="#hl"/>
<use x="658.60" y="410.40" xlink:href="#Hd"/>
<path d="M662.10 410.40v-31.00" class="stroke"/>
<use x="658.60" y="404.40" xlink:href="#Hd"/>
<use x="658.60" y="398.40" xlink:href="#Hd"/>
</g>
</svg>
