<?xml version="1.0" standalone="no"?>
<!DOCTYPE svg PUBLIC "-//W3C//DTD SVG 1.1//EN"
	"http://www.w3.org/Graphics/SVG/1.1/DTD/svg11.dtd">
<svg xmlns="http://www.w3.org/2000/svg" version="1.1"
	xmlns:xlink="http://www.w3.org/1999/xlink"
	color="black"
	width="701.60px" height="294.00px" viewBox="0 0 701.60 294.00" preserveAspectRatio="xMidYMid meet">
<style type="text/css">
.fill {fill: currentColor}
.stroke {stroke: currentColor; fill: none}
text{white-space: pre}
</style>
<title>/tmp/retab_hymnal_L1/i_heard_the_bells_on_christmas_day.abc (1) tune 1</title>
<!-- Creator: abcm2ps-8.14.11 -->
<!-- CreationDate: Apr 24, 2026 15:38 -->
<!-- CommandLine: /tmp/retab_hymnal_L1/i_heard_the_bells_on_christmas_day.abc -g -O /tmp/retab_hymnal_L1/i_heard_the_bells_on_christmas_day -->
<g stroke-width="0.70">
<!-- title: 102. I Heard The Bells On Christmas Day -->
</g>
<g stroke-width="0.70" style="font:20.00px Times">
<text x="350.80" y="22.00" text-anchor="middle">102. I Heard The Bells On Christmas Day</text>
</g>
<g stroke-width="0.70" style="font:20.00px Times">
<path class="stroke" stroke-width="1"
	d="M10.00 143.00v-82.00"/>
<defs>
<path id="brace" class="fill" d="m-2.5 101
	c-4.5 -4.6 -7.5 -12.2 -4.4 -26.8
	3.5 -14.3 3.2 -21.7 -2.1 -24.2
	7.4 2.4 7.3 14.2 3.5 29.5
	-2.7 9.5 -1.5 16.2 3 21.5
	M-2.5 1c-4.5 4.6 -7.5 12.2 -4.4 26.8
	c3.5 14.3 3.2 21.7 -2.1 24.2
	7.4 -2.4 7.3 -14.2 3.5 -29.5
	-2.7 -9.5 -1.5 -16.2 3 -21.5"/>
</defs>
<g transform="translate(10.00,61.00) scale(1,0.82)">
	<use xlink:href="#brace"/>
</g>
<path class="stroke" stroke-width="1"
	d="M193.30 85.00v-24.00"/>
<path class="stroke" stroke-width="1"
	d="M193.30 143.00v-24.00"/>
<path class="stroke" stroke-width="1"
	d="M316.80 85.00v-24.00"/>
<path class="stroke" stroke-width="1"
	d="M316.80 143.00v-24.00"/>
<path class="stroke" stroke-width="1"
	d="M444.60 85.00v-24.00"/>
<path class="stroke" stroke-width="1"
	d="M444.60 143.00v-24.00"/>
<path class="stroke" stroke-width="1"
	d="M567.80 85.00v-24.00"/>
<path class="stroke" stroke-width="1"
	d="M567.80 143.00v-24.00"/>
<path class="stroke" stroke-width="1"
	d="M691.60 85.00v-24.00"/>
<path class="stroke" stroke-width="1"
	d="M691.60 143.00v-24.00"/>
<path d="m10.00 85.00
	h681.60
	M10.00 79.00
	h681.60
	M10.00 73.00
	h681.60
	M10.00 67.00
	h681.60
	M10.00 61.00
	h681.60
	" class="stroke"/>
<path d="m10.00 143.00
	h681.60
	M10.00 137.00
	h681.60
	M10.00 131.00
	h681.60
	M10.00 125.00
	h681.60
	M10.00 119.00
	h681.60
	" class="stroke"/>
</g>
<g stroke-width="0.70" style="font:bold 13.00px Times">
<text x="80.20" y="56.40">I</text>
</g>
<g stroke-width="0.70" style="font:bold 13.00px Times">
<text x="197.90" y="51.40">V<tspan
	 style="font:italic 11.00px Times">⁷²</tspan></text>
</g>
<g stroke-width="0.70" style="font:bold 13.00px Times">
<text x="325.50" y="48.40">I<tspan
	 style="font:italic 11.00px Times">¹</tspan></text>
</g>
<g stroke-width="0.70" style="font:bold 13.00px Times">
<text x="450.90" y="54.40">vi<tspan
	 style="font:italic 11.00px Times">²</tspan></text>
</g>
<g stroke-width="0.70" style="font:bold 13.00px Times">
<text x="576.60" y="54.40">I<tspan
	 style="font:italic 11.00px Times">¹</tspan></text>
</g>
<g stroke-width="0.70" style="font:italic 11.00px Times">
<defs>
<path id="utclef" class="fill" d="m-50 -90
	c-72 -41 -72 -158 52 -188
	150 -10 220 188 90 256
	-114 52 -275 0 -293 -136
	-15 -181 93 -229 220 -334
	88 -87 79 -133 62 -210
	-51 33 -94 105 -89 186
	17 267 36 374 49 574
	6 96 -19 134 -77 135
	-80 1 -126 -93 -61 -133
	85 -41 133 101 31 105
	23 17 92 37 90 -92
	-10 -223 -39 -342 -50 -617
	0 -90 0 -162 96 -232
	56 72 63 230 22 289
	-74 106 -257 168 -255 316
	9 153 148 185 252 133
	86 -65 29 -192 -80 -176
	-71 12 -105 67 -59 124"/>
<use id="tclef" transform="translate(0,6) scale(0.045)"
	xlink:href="#utclef"/>
</defs>
<use x="22.00" y="79.00" xlink:href="#tclef"/>
<defs>
<path id="uflat" class="fill" d="
	m100 -746
	h32
	v734
	l-32 4
	m32 -332
	c46 -72 152 -90 208 -20
	100 110 -120 326 -208 348
	m0 -28
	c54 0 200 -206 130 -290
	-50 -60 -130 -4 -130 34"/>
<use id="ft0" transform="translate(-3.5,3.5) scale(0.018)"
	xlink:href="#uflat"/>
</defs>
<use x="37.00" y="73.00" xlink:href="#ft0"/>
<use x="42.50" y="64.00" xlink:href="#ft0"/>
<use x="48.00" y="76.00" xlink:href="#ft0"/>
<g style="font:bold 16px serif"
	transform="translate(64.00,84.50) scale(1.2,1)">
	<text text-anchor="middle">4</text>
	<text y="-12" text-anchor="middle">4</text>
</g>
<defs>
<ellipse id="hd" rx="4.1" ry="2.9"
	transform="rotate(-20)" class="fill"/>
</defs>
<use x="82.00" y="85.00" xlink:href="#hd"/>
<path d="M85.50 85.00v-21.00" class="stroke"/>
<use x="113.10" y="79.00" xlink:href="#hd"/>
<circle class="fill" cx="120.80" cy="76.00" r="1.2"/>
<path d="M116.60 79.00v-21.00" class="stroke"/>
<use x="148.80" y="82.00" xlink:href="#hd"/>
<path d="M152.30 82.00v-21.00" class="stroke"/>
<path class="fill"
	d="M152.30 61.00c0.6 5.6 9.6 9 5.6 18.4
	1.6 -6 -1.3 -11.6 -5.6 -12.8
"/>
<use x="171.20" y="79.00" xlink:href="#hd"/>
<path d="M174.70 79.00v-21.00" class="stroke"/>
<use x="205.80" y="79.00" xlink:href="#hd"/>
<path d="M209.30 79.00v-21.00" class="stroke"/>
<use x="236.70" y="76.00" xlink:href="#hd"/>
<circle class="fill" cx="244.40" cy="76.00" r="1.2"/>
<path d="M240.20 76.00v-21.00" class="stroke"/>
<use x="272.40" y="79.00" xlink:href="#hd"/>
<path d="M275.90 79.00v-21.00" class="stroke"/>
<path class="fill"
	d="M275.90 58.00c0.6 5.6 9.6 9 5.6 18.4
	1.6 -6 -1.3 -11.6 -5.6 -12.8
"/>
<use x="294.70" y="76.00" xlink:href="#hd"/>
<path d="M298.20 76.00v-21.00" class="stroke"/>
<use x="329.30" y="76.00" xlink:href="#hd"/>
<path d="M332.80 76.00v-21.00" class="stroke"/>
<use x="360.30" y="73.00" xlink:href="#hd"/>
<path d="M363.80 73.00v-21.00" class="stroke"/>
<use x="391.50" y="64.00" xlink:href="#hd"/>
<path d="M388.00 64.00v21.00" class="stroke"/>
<use x="422.60" y="67.00" xlink:href="#hd"/>
<path d="M419.10 67.00v21.00" class="stroke"/>
<use x="457.10" y="70.00" xlink:href="#hd"/>
<path d="M453.60 70.00v21.00" class="stroke"/>
<use x="488.10" y="70.00" xlink:href="#hd"/>
<circle class="fill" cx="495.80" cy="70.00" r="1.2"/>
<path d="M484.60 70.00v21.00" class="stroke"/>
<use x="523.70" y="73.00" xlink:href="#hd"/>
<path d="M520.20 73.00v21.00" class="stroke"/>
<path class="fill"
	d="M520.20 94.00c0.6 -5.6 9.6 -9 5.6 -18.4
	1.6 6 -1.3 11.6 -5.6 12.8
"/>
<use x="545.80" y="73.00" xlink:href="#hd"/>
<path d="M542.30 73.00v21.00" class="stroke"/>
<use x="580.30" y="73.00" xlink:href="#hd"/>
<path d="M576.80 73.00v21.00" class="stroke"/>
<use x="611.40" y="73.00" xlink:href="#hd"/>
<circle class="fill" cx="619.10" cy="70.00" r="1.2"/>
<path d="M607.90 73.00v21.00" class="stroke"/>
<use x="647.10" y="76.00" xlink:href="#hd"/>
<path d="M650.60 76.00v-21.00" class="stroke"/>
<path class="fill"
	d="M650.60 55.00c0.6 5.6 9.6 9 5.6 18.4
	1.6 -6 -1.3 -11.6 -5.6 -12.8
"/>
<use x="669.60" y="79.00" xlink:href="#hd"/>
<path d="M673.10 79.00v-21.00" class="stroke"/>
<defs>
<path id="ubclef" class="fill" d="m-200 -87
	c124 -35 222 -78 254 -236
	43 -228 -167 -246 -192 -103
	59 -80 157 22 92 78
	-62 47 -115 -22 -106 -88
	21 -141 270 -136 274 52
	-1 175 -106 264 -322 297
	m357 -250
	c0 -36 51 -34 51 0
	0 37 -51 36 -51 0
	m-2 -129
	c0 -36 51 -34 51 0
	0 38 -51 37 -51 0"/>
<use id="bclef" transform="translate(0,18) scale(0.045)"
	xlink:href="#ubclef"/>
</defs>
<use x="22.00" y="125.00" xlink:href="#bclef"/>
<use x="37.00" y="137.00" xlink:href="#ft0"/>
<use x="42.50" y="128.00" xlink:href="#ft0"/>
<use x="48.00" y="140.00" xlink:href="#ft0"/>
<g style="font:bold 16px serif"
	transform="translate(64.00,142.50) scale(1.2,1)">
	<text text-anchor="middle">4</text>
	<text y="-12" text-anchor="middle">4</text>
</g>
<defs>
<path id="hl" class="stroke" d="m-6 0h12"/>
</defs>
<use x="82.00" y="149.00" xlink:href="#hl"/>
<use x="82.00" y="149.00" xlink:href="#hd"/>
<path d="M85.50 149.00v-31.00" class="stroke"/>
<use x="82.00" y="143.00" xlink:href="#hd"/>
<use x="82.00" y="137.00" xlink:href="#hd"/>
<use x="113.10" y="149.00" xlink:href="#hl"/>
<use x="113.10" y="149.00" xlink:href="#hd"/>
<circle class="fill" cx="120.80" cy="146.00" r="1.2"/>
<path d="M116.60 149.00v-31.00" class="stroke"/>
<use x="113.10" y="143.00" xlink:href="#hd"/>
<circle class="fill" cx="120.80" cy="140.00" r="1.2"/>
<use x="113.10" y="137.00" xlink:href="#hd"/>
<circle class="fill" cx="120.80" cy="134.00" r="1.2"/>
<use x="148.80" y="149.00" xlink:href="#hl"/>
<use x="148.80" y="149.00" xlink:href="#hd"/>
<path d="M152.30 149.00v-31.00" class="stroke"/>
<path class="fill"
	d="M152.30 118.00c0.6 5.6 9.6 9 5.6 18.4
	1.6 -6 -1.3 -11.6 -5.6 -12.8
"/>
<use x="148.80" y="143.00" xlink:href="#hd"/>
<use x="148.80" y="137.00" xlink:href="#hd"/>
<use x="171.20" y="149.00" xlink:href="#hl"/>
<use x="171.20" y="149.00" xlink:href="#hd"/>
<path d="M174.70 149.00v-31.00" class="stroke"/>
<use x="171.20" y="143.00" xlink:href="#hd"/>
<use x="171.20" y="137.00" xlink:href="#hd"/>
<use x="205.80" y="137.00" xlink:href="#hd"/>
<path d="M209.30 137.00v-31.00" class="stroke"/>
<use x="205.80" y="131.00" xlink:href="#hd"/>
<use x="205.80" y="125.00" xlink:href="#hd"/>
<use x="236.70" y="137.00" xlink:href="#hd"/>
<circle class="fill" cx="244.40" cy="134.00" r="1.2"/>
<path d="M240.20 137.00v-31.00" class="stroke"/>
<use x="236.70" y="131.00" xlink:href="#hd"/>
<circle class="fill" cx="244.40" cy="128.00" r="1.2"/>
<use x="236.70" y="125.00" xlink:href="#hd"/>
<circle class="fill" cx="244.40" cy="122.00" r="1.2"/>
<use x="272.40" y="137.00" xlink:href="#hd"/>
<path d="M275.90 137.00v-31.00" class="stroke"/>
<path class="fill"
	d="M275.90 106.00c0.6 5.6 9.6 9 5.6 18.4
	1.6 -6 -1.3 -11.6 -5.6 -12.8
"/>
<use x="272.40" y="131.00" xlink:href="#hd"/>
<use x="272.40" y="125.00" xlink:href="#hd"/>
<use x="294.70" y="137.00" xlink:href="#hd"/>
<path d="M298.20 137.00v-31.00" class="stroke"/>
<use x="294.70" y="131.00" xlink:href="#hd"/>
<use x="294.70" y="125.00" xlink:href="#hd"/>
<use x="329.30" y="149.00" xlink:href="#hl"/>
<use x="329.30" y="149.00" xlink:href="#hd"/>
<path d="M332.80 149.00v-31.00" class="stroke"/>
<use x="329.30" y="143.00" xlink:href="#hd"/>
<use x="329.30" y="137.00" xlink:href="#hd"/>
<use x="360.30" y="149.00" xlink:href="#hl"/>
<use x="360.30" y="149.00" xlink:href="#hd"/>
<path d="M363.80 149.00v-31.00" class="stroke"/>
<use x="360.30" y="143.00" xlink:href="#hd"/>
<use x="360.30" y="137.00" xlink:href="#hd"/>
<use x="391.50" y="149.00" xlink:href="#hl"/>
<use x="391.50" y="149.00" xlink:href="#hd"/>
<path d="M395.00 149.00v-31.00" class="stroke"/>
<use x="391.50" y="143.00" xlink:href="#hd"/>
<use x="391.50" y="137.00" xlink:href="#hd"/>
<use x="422.60" y="149.00" xlink:href="#hl"/>
<use x="422.60" y="149.00" xlink:href="#hd"/>
<path d="M426.10 149.00v-31.00" class="stroke"/>
<use x="422.60" y="143.00" xlink:href="#hd"/>
<use x="422.60" y="137.00" xlink:href="#hd"/>
<use x="457.10" y="122.00" xlink:href="#hd"/>
<path d="M453.60 122.00v31.00" class="stroke"/>
<use x="457.10" y="134.00" xlink:href="#hd"/>
<use x="457.10" y="128.00" xlink:href="#hd"/>
<use x="488.10" y="122.00" xlink:href="#hd"/>
<circle class="fill" cx="495.80" cy="122.00" r="1.2"/>
<path d="M484.60 122.00v31.00" class="stroke"/>
<use x="488.10" y="134.00" xlink:href="#hd"/>
<circle class="fill" cx="495.80" cy="134.00" r="1.2"/>
<use x="488.10" y="128.00" xlink:href="#hd"/>
<circle class="fill" cx="495.80" cy="128.00" r="1.2"/>
<use x="523.70" y="122.00" xlink:href="#hd"/>
<path d="M520.20 122.00v31.00" class="stroke"/>
<path class="fill"
	d="M520.20 153.00c0.6 -5.6 9.6 -9 5.6 -18.4
	1.6 6 -1.3 11.6 -5.6 12.8
"/>
<use x="523.70" y="134.00" xlink:href="#hd"/>
<use x="523.70" y="128.00" xlink:href="#hd"/>
<use x="545.80" y="122.00" xlink:href="#hd"/>
<path d="M542.30 122.00v31.00" class="stroke"/>
<use x="545.80" y="134.00" xlink:href="#hd"/>
<use x="545.80" y="128.00" xlink:href="#hd"/>
<use x="580.30" y="149.00" xlink:href="#hl"/>
<use x="580.30" y="149.00" xlink:href="#hd"/>
<path d="M583.80 149.00v-31.00" class="stroke"/>
<use x="580.30" y="143.00" xlink:href="#hd"/>
<use x="580.30" y="137.00" xlink:href="#hd"/>
<use x="611.40" y="149.00" xlink:href="#hl"/>
<use x="611.40" y="149.00" xlink:href="#hd"/>
<circle class="fill" cx="619.10" cy="146.00" r="1.2"/>
<path d="M614.90 149.00v-31.00" class="stroke"/>
<use x="611.40" y="143.00" xlink:href="#hd"/>
<circle class="fill" cx="619.10" cy="140.00" r="1.2"/>
<use x="611.40" y="137.00" xlink:href="#hd"/>
<circle class="fill" cx="619.10" cy="134.00" r="1.2"/>
<use x="647.10" y="149.00" xlink:href="#hl"/>
<use x="647.10" y="149.00" xlink:href="#hd"/>
<path d="M650.60 149.00v-31.00" class="stroke"/>
<path class="fill"
	d="M650.60 118.00c0.6 5.6 9.6 9 5.6 18.4
	1.6 -6 -1.3 -11.6 -5.6 -12.8
"/>
<use x="647.10" y="143.00" xlink:href="#hd"/>
<use x="647.10" y="137.00" xlink:href="#hd"/>
<use x="669.60" y="149.00" xlink:href="#hl"/>
<use x="669.60" y="149.00" xlink:href="#hd"/>
<path d="M673.10 149.00v-31.00" class="stroke"/>
<use x="669.60" y="143.00" xlink:href="#hd"/>
<use x="669.60" y="137.00" xlink:href="#hd"/>
</g>
<g stroke-width="0.70" style="font:italic 11.00px Times">
<path class="stroke" stroke-width="1"
	d="M10.00 271.00v-82.00"/>
<g transform="translate(10.00,189.00) scale(1,0.82)">
	<use xlink:href="#brace"/>
</g>
<path class="stroke" stroke-width="1"
	d="M258.90 213.00v-24.00"/>
<path class="stroke" stroke-width="1"
	d="M258.90 271.00v-24.00"/>
<path class="stroke" stroke-width="1"
	d="M479.40 213.00v-24.00"/>
<path class="stroke" stroke-width="1"
	d="M479.40 271.00v-24.00"/>
<path class="stroke" stroke-width="1"
	d="M691.60 213.00v-24.00"/>
<path class="stroke" stroke-width="1"
	d="M691.60 271.00v-24.00"/>
<path d="m10.00 213.00
	h681.60
	M10.00 207.00
	h681.60
	M10.00 201.00
	h681.60
	M10.00 195.00
	h681.60
	M10.00 189.00
	h681.60
	" class="stroke"/>
<path d="m10.00 271.00
	h681.60
	M10.00 265.00
	h681.60
	M10.00 259.00
	h681.60
	M10.00 253.00
	h681.60
	M10.00 247.00
	h681.60
	" class="stroke"/>
</g>
<g stroke-width="0.70" style="font:bold 13.00px Times">
<text x="59.50" y="176.40">iii<tspan
	 style="font:italic 11.00px Times">²</tspan></text>
</g>
<g stroke-width="0.70" style="font:bold 13.00px Times">
<text x="273.20" y="182.40">ii<tspan
	 style="font:italic 11.00px Times">⁷</tspan></text>
</g>
<g stroke-width="0.70" style="font:bold 13.00px Times">
<text x="494.80" y="184.40">V</text>
<use x="22.00" y="207.00" xlink:href="#tclef"/>
<use x="37.00" y="201.00" xlink:href="#ft0"/>
<use x="42.50" y="192.00" xlink:href="#ft0"/>
<use x="48.00" y="204.00" xlink:href="#ft0"/>
<use x="66.00" y="204.00" xlink:href="#hd"/>
<path d="M69.50 204.00v-21.00" class="stroke"/>
<use x="120.40" y="207.00" xlink:href="#hd"/>
<circle class="fill" cx="128.10" cy="204.00" r="1.2"/>
<path d="M123.90 207.00v-21.00" class="stroke"/>
<use x="182.30" y="210.00" xlink:href="#hd"/>
<path d="M185.80 210.00v-21.00" class="stroke"/>
<path class="fill"
	d="M185.80 189.00c0.6 5.6 9.6 9 5.6 18.4
	1.6 -6 -1.3 -11.6 -5.6 -12.8
"/>
<use x="220.80" y="213.00" xlink:href="#hd"/>
<path d="M224.30 213.00v-21.00" class="stroke"/>
<use x="278.20" y="210.00" xlink:href="#hd"/>
<path d="M281.70 210.00v-21.00" class="stroke"/>
<use x="332.60" y="207.00" xlink:href="#hd"/>
<path d="M336.10 207.00v-21.00" class="stroke"/>
<use x="387.00" y="204.00" xlink:href="#hd"/>
<path d="M390.50 204.00v-21.00" class="stroke"/>
<use x="441.40" y="201.00" xlink:href="#hd"/>
<path d="M444.90 201.00v-21.00" class="stroke"/>
<use x="498.70" y="198.00" xlink:href="#hd"/>
<path d="M495.20 198.00v21.00" class="stroke"/>
<use x="553.10" y="216.00" xlink:href="#hd"/>
<circle class="fill" cx="560.80" cy="216.00" r="1.2"/>
<path d="M556.60 216.00v-21.00" class="stroke"/>
<use x="615.00" y="210.00" xlink:href="#hd"/>
<path d="M618.50 210.00v-21.00" class="stroke"/>
<path class="fill"
	d="M618.50 189.00c0.6 5.6 9.6 9 5.6 18.4
	1.6 -6 -1.3 -11.6 -5.6 -12.8
"/>
<use x="653.50" y="213.00" xlink:href="#hd"/>
<path d="M657.00 213.00v-21.00" class="stroke"/>
<use x="22.00" y="253.00" xlink:href="#bclef"/>
<use x="37.00" y="265.00" xlink:href="#ft0"/>
<use x="42.50" y="256.00" xlink:href="#ft0"/>
<use x="48.00" y="268.00" xlink:href="#ft0"/>
<use x="66.00" y="271.00" xlink:href="#hd"/>
<path d="M69.50 271.00v-31.00" class="stroke"/>
<use x="66.00" y="265.00" xlink:href="#hd"/>
<use x="66.00" y="259.00" xlink:href="#hd"/>
<use x="120.40" y="271.00" xlink:href="#hd"/>
<circle class="fill" cx="128.10" cy="268.00" r="1.2"/>
<path d="M123.90 271.00v-31.00" class="stroke"/>
<use x="120.40" y="265.00" xlink:href="#hd"/>
<circle class="fill" cx="128.10" cy="262.00" r="1.2"/>
<use x="120.40" y="259.00" xlink:href="#hd"/>
<circle class="fill" cx="128.10" cy="256.00" r="1.2"/>
<use x="182.30" y="271.00" xlink:href="#hd"/>
<path d="M185.80 271.00v-31.00" class="stroke"/>
<path class="fill"
	d="M185.80 240.00c0.6 5.6 9.6 9 5.6 18.4
	1.6 -6 -1.3 -11.6 -5.6 -12.8
"/>
<use x="182.30" y="265.00" xlink:href="#hd"/>
<use x="182.30" y="259.00" xlink:href="#hd"/>
<use x="220.80" y="271.00" xlink:href="#hd"/>
<path d="M224.30 271.00v-31.00" class="stroke"/>
<use x="220.80" y="265.00" xlink:href="#hd"/>
<use x="220.80" y="259.00" xlink:href="#hd"/>
<use x="278.20" y="274.00" xlink:href="#hd"/>
<path d="M281.70 274.00v-31.00" class="stroke"/>
<use x="278.20" y="268.00" xlink:href="#hd"/>
<use x="278.20" y="262.00" xlink:href="#hd"/>
<use x="332.60" y="274.00" xlink:href="#hd"/>
<path d="M336.10 274.00v-31.00" class="stroke"/>
<use x="332.60" y="268.00" xlink:href="#hd"/>
<use x="332.60" y="262.00" xlink:href="#hd"/>
<use x="387.00" y="274.00" xlink:href="#hd"/>
<path d="M390.50 274.00v-31.00" class="stroke"/>
<use x="387.00" y="268.00" xlink:href="#hd"/>
<use x="387.00" y="262.00" xlink:href="#hd"/>
<use x="441.40" y="274.00" xlink:href="#hd"/>
<path d="M444.90 274.00v-31.00" class="stroke"/>
<use x="441.40" y="268.00" xlink:href="#hd"/>
<use x="441.40" y="262.00" xlink:href="#hd"/>
<use x="498.70" y="265.00" xlink:href="#hd"/>
<path d="M502.20 265.00v-31.00" class="stroke"/>
<use x="498.70" y="259.00" xlink:href="#hd"/>
<use x="498.70" y="253.00" xlink:href="#hd"/>
<use x="553.10" y="265.00" xlink:href="#hd"/>
<circle class="fill" cx="560.80" cy="262.00" r="1.2"/>
<path d="M556.60 265.00v-31.00" class="stroke"/>
<use x="553.10" y="259.00" xlink:href="#hd"/>
<circle class="fill" cx="560.80" cy="256.00" r="1.2"/>
<use x="553.10" y="253.00" xlink:href="#hd"/>
<circle class="fill" cx="560.80" cy="250.00" r="1.2"/>
<use x="615.00" y="265.00" xlink:href="#hd"/>
<path d="M618.50 265.00v-31.00" class="stroke"/>
<path class="fill"
	d="M618.50 234.00c0.6 5.6 9.6 9 5.6 18.4
	1.6 -6 -1.3 -11.6 -5.6 -12.8
"/>
<use x="615.00" y="259.00" xlink:href="#hd"/>
<use x="615.00" y="253.00" xlink:href="#hd"/>
<use x="653.50" y="265.00" xlink:href="#hd"/>
<path d="M657.00 265.00v-31.00" class="stroke"/>
<use x="653.50" y="259.00" xlink:href="#hd"/>
<use x="653.50" y="253.00" xlink:href="#hd"/>
</g>
</svg>
