<?xml version="1.0" standalone="no"?>
<!DOCTYPE svg PUBLIC "-//W3C//DTD SVG 1.1//EN"
	"http://www.w3.org/Graphics/SVG/1.1/DTD/svg11.dtd">
<svg xmlns="http://www.w3.org/2000/svg" version="1.1"
	xmlns:xlink="http://www.w3.org/1999/xlink"
	color="black"
	width="701.60px" height="557.20px" viewBox="0 0 701.60 557.20" preserveAspectRatio="xMidYMid meet">
<style type="text/css">
.fill {fill: currentColor}
.stroke {stroke: currentColor; fill: none}
text{white-space: pre}
</style>
<title>/tmp/retab_hymnal_L1/if_god_had_not_been_on_our_side.abc (1) tune 1</title>
<!-- Creator: abcm2ps-8.14.11 -->
<!-- CreationDate: Apr 24, 2026 15:38 -->
<!-- CommandLine: /tmp/retab_hymnal_L1/if_god_had_not_been_on_our_side.abc -g -O /tmp/retab_hymnal_L1/if_god_had_not_been_on_our_side -->
<g stroke-width="0.70">
<!-- title: 109. If God Had Not Been on Our Side -->
</g>
<g stroke-width="0.70" style="font:20.00px Times">
<text x="350.80" y="22.00" text-anchor="middle">109. If God Had Not Been on Our Side</text>
</g>
<g stroke-width="0.70" style="font:20.00px Times">
<path class="stroke" stroke-width="1"
	d="M10.00 145.40v-82.00"/>
<defs>
<path id="brace" class="fill" d="m-2.5 101
	c-4.5 -4.6 -7.5 -12.2 -4.4 -26.8
	3.5 -14.3 3.2 -21.7 -2.1 -24.2
	7.4 2.4 7.3 14.2 3.5 29.5
	-2.7 9.5 -1.5 16.2 3 21.5
	M-2.5 1c-4.5 4.6 -7.5 12.2 -4.4 26.8
	c3.5 14.3 3.2 21.7 -2.1 24.2
	7.4 -2.4 7.3 -14.2 3.5 -29.5
	-2.7 -9.5 -1.5 -16.2 3 -21.5"/>
</defs>
<g transform="translate(10.00,63.40) scale(1,0.82)">
	<use xlink:href="#brace"/>
</g>
<path class="stroke" stroke-width="1"
	d="M185.20 87.40v-24.00"/>
<path class="stroke" stroke-width="1"
	d="M185.20 145.40v-24.00"/>
<path class="stroke" stroke-width="1"
	d="M319.60 87.40v-24.00"/>
<path class="stroke" stroke-width="1"
	d="M319.60 145.40v-24.00"/>
<path class="stroke" stroke-width="1"
	d="M431.90 87.40v-24.00"/>
<path class="stroke" stroke-width="1"
	d="M431.90 145.40v-24.00"/>
<path class="stroke" stroke-width="1"
	d="M566.40 87.40v-24.00"/>
<path class="stroke" stroke-width="1"
	d="M566.40 145.40v-24.00"/>
<path class="stroke" stroke-width="1"
	d="M691.60 87.40v-24.00"/>
<path class="stroke" stroke-width="1"
	d="M691.60 145.40v-24.00"/>
<path d="m10.00 87.40
	h681.60
	M10.00 81.40
	h681.60
	M10.00 75.40
	h681.60
	M10.00 69.40
	h681.60
	M10.00 63.40
	h681.60
	" class="stroke"/>
<path d="m10.00 145.40
	h681.60
	M10.00 139.40
	h681.60
	M10.00 133.40
	h681.60
	M10.00 127.40
	h681.60
	M10.00 121.40
	h681.60
	" class="stroke"/>
</g>
<g stroke-width="0.70" style="font:bold 13.00px Times">
<text x="81.00" y="56.80">i</text>
</g>
<g stroke-width="0.70" style="font:bold 13.00px Times">
<text x="193.40" y="47.80">iv</text>
</g>
<g stroke-width="0.70" style="font:bold 13.00px Times">
<text x="330.80" y="47.80">I</text>
</g>
<g stroke-width="0.70" style="font:bold 13.00px Times">
<text x="438.20" y="50.80">iv<tspan
	 style="font:italic 11.00px Times">⁷</tspan></text>
</g>
<g stroke-width="0.70" style="font:bold 13.00px Times">
<text x="573.50" y="58.80">III</text>
<defs>
<path id="utclef" class="fill" d="m-50 -90
	c-72 -41 -72 -158 52 -188
	150 -10 220 188 90 256
	-114 52 -275 0 -293 -136
	-15 -181 93 -229 220 -334
	88 -87 79 -133 62 -210
	-51 33 -94 105 -89 186
	17 267 36 374 49 574
	6 96 -19 134 -77 135
	-80 1 -126 -93 -61 -133
	85 -41 133 101 31 105
	23 17 92 37 90 -92
	-10 -223 -39 -342 -50 -617
	0 -90 0 -162 96 -232
	56 72 63 230 22 289
	-74 106 -257 168 -255 316
	9 153 148 185 252 133
	86 -65 29 -192 -80 -176
	-71 12 -105 67 -59 124"/>
<use id="tclef" transform="translate(0,6) scale(0.045)"
	xlink:href="#utclef"/>
</defs>
<use x="22.00" y="81.40" xlink:href="#tclef"/>
<defs>
<path id="usharp" class="fill" d="
	m136 -702
	v890
	h32
	v-890
	m128 840
	h32
	v-888
	h-32
	m-232 286
	v116
	l338 -96
	v-116
	m-338 442
	v116
	l338 -98
	v-114"/>
<use id="sh0" transform="translate(-4,5) scale(0.018)"
	xlink:href="#usharp"/>
</defs>
<use x="37.00" y="63.40" xlink:href="#sh0"/>
<use x="42.50" y="72.40" xlink:href="#sh0"/>
<use x="48.00" y="60.40" xlink:href="#sh0"/>
<g style="font:bold 16px serif"
	transform="translate(64.00,86.90) scale(1.2,1)">
	<text text-anchor="middle">4</text>
	<text y="-12" text-anchor="middle">4</text>
</g>
<defs>
<path id="Hd" class="fill" d="m3 -1.6
	c-1 -1.8 -7 1.4 -6 3.2
	1 1.8 7 -1.4 6 -3.2
	m0.5 -0.3
	c2 3.8 -5 7.6 -7 3.8
	-2 -3.8 5 -7.6 7 -3.8"/>
</defs>
<use x="82.50" y="84.40" xlink:href="#Hd"/>
<path d="M86.00 84.40v-21.00" class="stroke"/>
<defs>
<ellipse id="hd" rx="4.1" ry="2.9"
	transform="rotate(-20)" class="fill"/>
</defs>
<use x="129.00" y="78.40" xlink:href="#hd"/>
<path d="M132.50 78.40v-21.00" class="stroke"/>
<use x="161.90" y="78.40" xlink:href="#hd"/>
<path d="M165.40 78.40v-21.00" class="stroke"/>
<use x="197.70" y="75.40" xlink:href="#hd"/>
<path d="M201.20 75.40v-21.00" class="stroke"/>
<use x="230.60" y="72.40" xlink:href="#hd"/>
<path d="M227.10 72.40v21.00" class="stroke"/>
<use x="263.50" y="75.40" xlink:href="#hd"/>
<path d="M260.00 75.40v21.00" class="stroke"/>
<use x="296.40" y="78.40" xlink:href="#hd"/>
<path d="M299.90 78.40v-21.00" class="stroke"/>
<use x="332.60" y="75.40" xlink:href="#Hd"/>
<path d="M336.10 75.40v-21.00" class="stroke"/>
<defs>
<path id="r4" class="fill" d="m-1 -8.5
	l3.6 5.1 -2.1 5.2 2.2 4.3
	c-2.6 -2.3 -5.1 0 -2.4 2.6
	-4.8 -3 -1.5 -6.9 1.4 -4.1
	l-3.1 -4.5 1.9 -5.1 -1.5 -3.5"/>
</defs>
<use x="379.10" y="75.40" xlink:href="#r4"/>
<use x="408.70" y="75.40" xlink:href="#hd"/>
<path d="M412.20 75.40v-21.00" class="stroke"/>
<use x="444.40" y="78.40" xlink:href="#hd"/>
<path d="M447.90 78.40v-21.00" class="stroke"/>
<use x="477.30" y="84.40" xlink:href="#hd"/>
<path d="M480.80 84.40v-21.00" class="stroke"/>
<use x="510.20" y="75.40" xlink:href="#hd"/>
<path d="M513.70 75.40v-21.00" class="stroke"/>
<use x="543.20" y="72.40" xlink:href="#hd"/>
<path d="M539.70 72.40v21.00" class="stroke"/>
<use x="578.90" y="75.40" xlink:href="#hd"/>
<path d="M575.40 75.40v21.00" class="stroke"/>
<path class="fill"
	d="M575.40 96.40c0.6 -5.6 9.6 -9 5.6 -18.4
	1.6 6 -1.3 11.6 -5.6 12.8
"/>
<use x="602.40" y="78.40" xlink:href="#hd"/>
<path d="M605.90 78.40v-21.00" class="stroke"/>
<path class="fill"
	d="M605.90 57.40c0.6 5.6 9.6 9 5.6 18.4
	1.6 -6 -1.3 -11.6 -5.6 -12.8
"/>
<use x="626.00" y="75.40" xlink:href="#hd"/>
<path d="M629.50 75.40v-21.00" class="stroke"/>
<use x="658.90" y="78.40" xlink:href="#Hd"/>
<path d="M662.40 78.40v-21.00" class="stroke"/>
<defs>
<path id="ubclef" class="fill" d="m-200 -87
	c124 -35 222 -78 254 -236
	43 -228 -167 -246 -192 -103
	59 -80 157 22 92 78
	-62 47 -115 -22 -106 -88
	21 -141 270 -136 274 52
	-1 175 -106 264 -322 297
	m357 -250
	c0 -36 51 -34 51 0
	0 37 -51 36 -51 0
	m-2 -129
	c0 -36 51 -34 51 0
	0 38 -51 37 -51 0"/>
<use id="bclef" transform="translate(0,18) scale(0.045)"
	xlink:href="#ubclef"/>
</defs>
<use x="22.00" y="127.40" xlink:href="#bclef"/>
<use x="37.00" y="127.40" xlink:href="#sh0"/>
<use x="42.50" y="136.40" xlink:href="#sh0"/>
<use x="48.00" y="124.40" xlink:href="#sh0"/>
<g style="font:bold 16px serif"
	transform="translate(64.00,144.90) scale(1.2,1)">
	<text text-anchor="middle">4</text>
	<text y="-12" text-anchor="middle">4</text>
</g>
<defs>
<path id="hl" class="stroke" d="m-6 0h12"/>
</defs>
<use x="82.50" y="115.40" xlink:href="#hl"/>
<use x="82.50" y="115.40" xlink:href="#Hd"/>
<path d="M79.00 115.40v31.00" class="stroke"/>
<use x="82.50" y="127.40" xlink:href="#Hd"/>
<use x="82.50" y="121.40" xlink:href="#Hd"/>
<use x="129.00" y="115.40" xlink:href="#hl"/>
<use x="129.00" y="115.40" xlink:href="#hd"/>
<path d="M125.50 115.40v31.00" class="stroke"/>
<use x="129.00" y="127.40" xlink:href="#hd"/>
<use x="129.00" y="121.40" xlink:href="#hd"/>
<use x="161.90" y="115.40" xlink:href="#hl"/>
<use x="161.90" y="115.40" xlink:href="#hd"/>
<path d="M158.40 115.40v31.00" class="stroke"/>
<use x="161.90" y="127.40" xlink:href="#hd"/>
<use x="161.90" y="121.40" xlink:href="#hd"/>
<use x="197.70" y="127.40" xlink:href="#hd"/>
<path d="M194.20 127.40v31.00" class="stroke"/>
<use x="197.70" y="139.40" xlink:href="#hd"/>
<use x="197.70" y="133.40" xlink:href="#hd"/>
<use x="230.60" y="127.40" xlink:href="#hd"/>
<path d="M227.10 127.40v31.00" class="stroke"/>
<use x="230.60" y="139.40" xlink:href="#hd"/>
<use x="230.60" y="133.40" xlink:href="#hd"/>
<use x="263.50" y="127.40" xlink:href="#hd"/>
<path d="M260.00 127.40v31.00" class="stroke"/>
<use x="263.50" y="139.40" xlink:href="#hd"/>
<use x="263.50" y="133.40" xlink:href="#hd"/>
<use x="296.40" y="127.40" xlink:href="#hd"/>
<path d="M292.90 127.40v31.00" class="stroke"/>
<use x="296.40" y="139.40" xlink:href="#hd"/>
<use x="296.40" y="133.40" xlink:href="#hd"/>
<use x="332.60" y="142.40" xlink:href="#Hd"/>
<path d="M336.10 142.40v-31.00" class="stroke"/>
<use x="332.60" y="136.40" xlink:href="#Hd"/>
<use x="332.60" y="130.40" xlink:href="#Hd"/>
<use x="379.10" y="133.40" xlink:href="#r4"/>
<use x="408.70" y="142.40" xlink:href="#hd"/>
<path d="M412.20 142.40v-31.00" class="stroke"/>
<use x="408.70" y="136.40" xlink:href="#hd"/>
<use x="408.70" y="130.40" xlink:href="#hd"/>
<use x="444.40" y="139.40" xlink:href="#hd"/>
<path d="M447.90 139.40v-31.00" class="stroke"/>
<use x="444.40" y="133.40" xlink:href="#hd"/>
<use x="444.40" y="127.40" xlink:href="#hd"/>
<use x="477.30" y="139.40" xlink:href="#hd"/>
<path d="M480.80 139.40v-31.00" class="stroke"/>
<use x="477.30" y="133.40" xlink:href="#hd"/>
<use x="477.30" y="127.40" xlink:href="#hd"/>
<use x="510.20" y="139.40" xlink:href="#hd"/>
<path d="M513.70 139.40v-31.00" class="stroke"/>
<use x="510.20" y="133.40" xlink:href="#hd"/>
<use x="510.20" y="127.40" xlink:href="#hd"/>
<use x="543.20" y="139.40" xlink:href="#hd"/>
<path d="M546.70 139.40v-31.00" class="stroke"/>
<use x="543.20" y="133.40" xlink:href="#hd"/>
<use x="543.20" y="127.40" xlink:href="#hd"/>
<use x="578.90" y="142.40" xlink:href="#hd"/>
<path d="M582.40 142.40v-31.00" class="stroke"/>
<path class="fill"
	d="M582.40 111.40c0.6 5.6 9.6 9 5.6 18.4
	1.6 -6 -1.3 -11.6 -5.6 -12.8
"/>
<use x="578.90" y="136.40" xlink:href="#hd"/>
<use x="578.90" y="130.40" xlink:href="#hd"/>
<use x="602.40" y="142.40" xlink:href="#hd"/>
<path d="M605.90 142.40v-31.00" class="stroke"/>
<path class="fill"
	d="M605.90 111.40c0.6 5.6 9.6 9 5.6 18.4
	1.6 -6 -1.3 -11.6 -5.6 -12.8
"/>
<use x="602.40" y="136.40" xlink:href="#hd"/>
<use x="602.40" y="130.40" xlink:href="#hd"/>
<use x="626.00" y="142.40" xlink:href="#hd"/>
<path d="M629.50 142.40v-31.00" class="stroke"/>
<use x="626.00" y="136.40" xlink:href="#hd"/>
<use x="626.00" y="130.40" xlink:href="#hd"/>
<use x="658.90" y="142.40" xlink:href="#Hd"/>
<path d="M662.40 142.40v-31.00" class="stroke"/>
<use x="658.90" y="136.40" xlink:href="#Hd"/>
<use x="658.90" y="130.40" xlink:href="#Hd"/>
</g>
<g stroke-width="0.70" style="font:bold 13.00px Times">
<path class="stroke" stroke-width="1"
	d="M10.00 275.80v-82.00"/>
<g transform="translate(10.00,193.80) scale(1,0.82)">
	<use xlink:href="#brace"/>
</g>
<path class="stroke" stroke-width="1"
	d="M171.50 217.80v-24.00"/>
<path class="stroke" stroke-width="1"
	d="M171.50 275.80v-24.00"/>
<path class="stroke" stroke-width="1"
	d="M308.80 217.80v-24.00"/>
<path class="stroke" stroke-width="1"
	d="M308.80 275.80v-24.00"/>
<path class="stroke" stroke-width="1"
	d="M426.70 217.80v-24.00"/>
<path class="stroke" stroke-width="1"
	d="M426.70 275.80v-24.00"/>
<path class="stroke" stroke-width="1"
	d="M564.00 217.80v-24.00"/>
<path class="stroke" stroke-width="1"
	d="M564.00 275.80v-24.00"/>
<path class="stroke" stroke-width="1"
	d="M691.60 217.80v-24.00"/>
<path class="stroke" stroke-width="1"
	d="M691.60 275.80v-24.00"/>
<path d="m10.00 217.80
	h681.60
	M10.00 211.80
	h681.60
	M10.00 205.80
	h681.60
	M10.00 199.80
	h681.60
	M10.00 193.80
	h681.60
	" class="stroke"/>
<path d="m10.00 275.80
	h681.60
	M10.00 269.80
	h681.60
	M10.00 263.80
	h681.60
	M10.00 257.80
	h681.60
	M10.00 251.80
	h681.60
	" class="stroke"/>
</g>
<g stroke-width="0.70" style="font:bold 13.00px Times">
<text x="65.00" y="187.20">i</text>
</g>
<g stroke-width="0.70" style="font:bold 13.00px Times">
<text x="179.80" y="178.20">iv</text>
</g>
<g stroke-width="0.70" style="font:bold 13.00px Times">
<text x="317.50" y="178.20">iv</text>
</g>
<g stroke-width="0.70" style="font:bold 13.00px Times">
<text x="433.00" y="181.20">iv<tspan
	 style="font:italic 11.00px Times">⁷</tspan></text>
</g>
<g stroke-width="0.70" style="font:bold 13.00px Times">
<text x="571.00" y="189.20">III</text>
<use x="22.00" y="211.80" xlink:href="#tclef"/>
<use x="37.00" y="193.80" xlink:href="#sh0"/>
<use x="42.50" y="202.80" xlink:href="#sh0"/>
<use x="48.00" y="190.80" xlink:href="#sh0"/>
<use x="66.50" y="214.80" xlink:href="#Hd"/>
<path d="M70.00 214.80v-21.00" class="stroke"/>
<use x="114.10" y="208.80" xlink:href="#hd"/>
<path d="M117.60 208.80v-21.00" class="stroke"/>
<use x="147.80" y="208.80" xlink:href="#hd"/>
<path d="M151.30 208.80v-21.00" class="stroke"/>
<use x="184.00" y="205.80" xlink:href="#hd"/>
<path d="M187.50 205.80v-21.00" class="stroke"/>
<use x="217.70" y="202.80" xlink:href="#hd"/>
<path d="M214.20 202.80v21.00" class="stroke"/>
<use x="251.40" y="205.80" xlink:href="#hd"/>
<path d="M247.90 205.80v21.00" class="stroke"/>
<use x="285.10" y="208.80" xlink:href="#hd"/>
<path d="M288.60 208.80v-21.00" class="stroke"/>
<use x="321.80" y="205.80" xlink:href="#Hd"/>
<path d="M325.30 205.80v-21.00" class="stroke"/>
<use x="369.30" y="205.80" xlink:href="#r4"/>
<use x="403.00" y="205.80" xlink:href="#hd"/>
<path d="M406.50 205.80v-21.00" class="stroke"/>
<use x="439.20" y="208.80" xlink:href="#hd"/>
<path d="M442.70 208.80v-21.00" class="stroke"/>
<use x="472.90" y="214.80" xlink:href="#hd"/>
<path d="M476.40 214.80v-21.00" class="stroke"/>
<use x="506.50" y="205.80" xlink:href="#hd"/>
<path d="M510.00 205.80v-21.00" class="stroke"/>
<use x="540.30" y="202.80" xlink:href="#hd"/>
<path d="M536.80 202.80v21.00" class="stroke"/>
<use x="576.50" y="205.80" xlink:href="#hd"/>
<path d="M573.00 205.80v21.00" class="stroke"/>
<path class="fill"
	d="M573.00 226.80c0.6 -5.6 9.6 -9 5.6 -18.4
	1.6 6 -1.3 11.6 -5.6 12.8
"/>
<use x="600.50" y="208.80" xlink:href="#hd"/>
<path d="M604.00 208.80v-21.00" class="stroke"/>
<path class="fill"
	d="M604.00 187.80c0.6 5.6 9.6 9 5.6 18.4
	1.6 -6 -1.3 -11.6 -5.6 -12.8
"/>
<use x="624.50" y="205.80" xlink:href="#hd"/>
<path d="M628.00 205.80v-21.00" class="stroke"/>
<use x="658.20" y="208.80" xlink:href="#Hd"/>
<path d="M661.70 208.80v-21.00" class="stroke"/>
<use x="22.00" y="257.80" xlink:href="#bclef"/>
<use x="37.00" y="257.80" xlink:href="#sh0"/>
<use x="42.50" y="266.80" xlink:href="#sh0"/>
<use x="48.00" y="254.80" xlink:href="#sh0"/>
<use x="66.50" y="245.80" xlink:href="#hl"/>
<use x="66.50" y="245.80" xlink:href="#Hd"/>
<path d="M63.00 245.80v31.00" class="stroke"/>
<use x="66.50" y="257.80" xlink:href="#Hd"/>
<use x="66.50" y="251.80" xlink:href="#Hd"/>
<use x="114.10" y="245.80" xlink:href="#hl"/>
<use x="114.10" y="245.80" xlink:href="#hd"/>
<path d="M110.60 245.80v31.00" class="stroke"/>
<use x="114.10" y="257.80" xlink:href="#hd"/>
<use x="114.10" y="251.80" xlink:href="#hd"/>
<use x="147.80" y="245.80" xlink:href="#hl"/>
<use x="147.80" y="245.80" xlink:href="#hd"/>
<path d="M144.30 245.80v31.00" class="stroke"/>
<use x="147.80" y="257.80" xlink:href="#hd"/>
<use x="147.80" y="251.80" xlink:href="#hd"/>
<use x="184.00" y="257.80" xlink:href="#hd"/>
<path d="M180.50 257.80v31.00" class="stroke"/>
<use x="184.00" y="269.80" xlink:href="#hd"/>
<use x="184.00" y="263.80" xlink:href="#hd"/>
<use x="217.70" y="257.80" xlink:href="#hd"/>
<path d="M214.20 257.80v31.00" class="stroke"/>
<use x="217.70" y="269.80" xlink:href="#hd"/>
<use x="217.70" y="263.80" xlink:href="#hd"/>
<use x="251.40" y="257.80" xlink:href="#hd"/>
<path d="M247.90 257.80v31.00" class="stroke"/>
<use x="251.40" y="269.80" xlink:href="#hd"/>
<use x="251.40" y="263.80" xlink:href="#hd"/>
<use x="285.10" y="257.80" xlink:href="#hd"/>
<path d="M281.60 257.80v31.00" class="stroke"/>
<use x="285.10" y="269.80" xlink:href="#hd"/>
<use x="285.10" y="263.80" xlink:href="#hd"/>
<use x="321.80" y="257.80" xlink:href="#Hd"/>
<path d="M318.30 257.80v31.00" class="stroke"/>
<use x="321.80" y="269.80" xlink:href="#Hd"/>
<use x="321.80" y="263.80" xlink:href="#Hd"/>
<use x="369.30" y="263.80" xlink:href="#r4"/>
<use x="403.00" y="257.80" xlink:href="#hd"/>
<path d="M399.50 257.80v31.00" class="stroke"/>
<use x="403.00" y="269.80" xlink:href="#hd"/>
<use x="403.00" y="263.80" xlink:href="#hd"/>
<use x="439.20" y="257.80" xlink:href="#hd"/>
<path d="M435.70 257.80v31.00" class="stroke"/>
<use x="439.20" y="269.80" xlink:href="#hd"/>
<use x="439.20" y="263.80" xlink:href="#hd"/>
<use x="472.90" y="257.80" xlink:href="#hd"/>
<path d="M469.40 257.80v31.00" class="stroke"/>
<use x="472.90" y="269.80" xlink:href="#hd"/>
<use x="472.90" y="263.80" xlink:href="#hd"/>
<use x="506.50" y="257.80" xlink:href="#hd"/>
<path d="M503.00 257.80v31.00" class="stroke"/>
<use x="506.50" y="269.80" xlink:href="#hd"/>
<use x="506.50" y="263.80" xlink:href="#hd"/>
<use x="540.30" y="257.80" xlink:href="#hd"/>
<path d="M536.80 257.80v31.00" class="stroke"/>
<use x="540.30" y="269.80" xlink:href="#hd"/>
<use x="540.30" y="263.80" xlink:href="#hd"/>
<use x="576.50" y="272.80" xlink:href="#hd"/>
<path d="M580.00 272.80v-31.00" class="stroke"/>
<path class="fill"
	d="M580.00 241.80c0.6 5.6 9.6 9 5.6 18.4
	1.6 -6 -1.3 -11.6 -5.6 -12.8
"/>
<use x="576.50" y="266.80" xlink:href="#hd"/>
<use x="576.50" y="260.80" xlink:href="#hd"/>
<use x="600.50" y="272.80" xlink:href="#hd"/>
<path d="M604.00 272.80v-31.00" class="stroke"/>
<path class="fill"
	d="M604.00 241.80c0.6 5.6 9.6 9 5.6 18.4
	1.6 -6 -1.3 -11.6 -5.6 -12.8
"/>
<use x="600.50" y="266.80" xlink:href="#hd"/>
<use x="600.50" y="260.80" xlink:href="#hd"/>
<use x="624.50" y="272.80" xlink:href="#hd"/>
<path d="M628.00 272.80v-31.00" class="stroke"/>
<use x="624.50" y="266.80" xlink:href="#hd"/>
<use x="624.50" y="260.80" xlink:href="#hd"/>
<use x="658.20" y="272.80" xlink:href="#Hd"/>
<path d="M661.70 272.80v-31.00" class="stroke"/>
<use x="658.20" y="266.80" xlink:href="#Hd"/>
<use x="658.20" y="260.80" xlink:href="#Hd"/>
</g>
<g stroke-width="0.70" style="font:bold 13.00px Times">
<path class="stroke" stroke-width="1"
	d="M10.00 406.20v-82.00"/>
<g transform="translate(10.00,324.20) scale(1,0.82)">
	<use xlink:href="#brace"/>
</g>
<path class="stroke" stroke-width="1"
	d="M189.70 348.20v-24.00"/>
<path class="stroke" stroke-width="1"
	d="M189.70 406.20v-24.00"/>
<path class="stroke" stroke-width="1"
	d="M325.80 348.20v-24.00"/>
<path class="stroke" stroke-width="1"
	d="M325.80 406.20v-24.00"/>
<path class="stroke" stroke-width="1"
	d="M442.90 348.20v-24.00"/>
<path class="stroke" stroke-width="1"
	d="M442.90 406.20v-24.00"/>
<path class="stroke" stroke-width="1"
	d="M579.10 348.20v-24.00"/>
<path class="stroke" stroke-width="1"
	d="M579.10 406.20v-24.00"/>
<path class="stroke" stroke-width="1"
	d="M691.60 348.20v-24.00"/>
<path class="stroke" stroke-width="1"
	d="M691.60 406.20v-24.00"/>
<path d="m10.00 348.20
	h681.60
	M10.00 342.20
	h681.60
	M10.00 336.20
	h681.60
	M10.00 330.20
	h681.60
	M10.00 324.20
	h681.60
	" class="stroke"/>
<path d="m10.00 406.20
	h681.60
	M10.00 400.20
	h681.60
	M10.00 394.20
	h681.60
	M10.00 388.20
	h681.60
	M10.00 382.20
	h681.60
	" class="stroke"/>
</g>
<g stroke-width="0.70" style="font:bold 13.00px Times">
<text x="62.50" y="319.60">i<tspan
	 style="font:italic 11.00px Times">⁷</tspan></text>
</g>
<g stroke-width="0.70" style="font:bold 13.00px Times">
<text x="196.30" y="314.60">V<tspan
	 style="font:italic 11.00px Times">⁷</tspan></text>
</g>
<g stroke-width="0.70" style="font:bold 13.00px Times">
<text x="333.40" y="317.60">i<tspan
	 style="font:italic 11.00px Times">⁷²</tspan></text>
</g>
<g stroke-width="0.70" style="font:bold 13.00px Times">
<text x="447.40" y="308.60">ii<tspan
	 style="font:italic 11.00px Times">ø7²</tspan></text>
</g>
<g stroke-width="0.70" style="font:bold 13.00px Times">
<text x="590.10" y="311.60">i</text>
<use x="22.00" y="342.20" xlink:href="#tclef"/>
<use x="37.00" y="324.20" xlink:href="#sh0"/>
<use x="42.50" y="333.20" xlink:href="#sh0"/>
<use x="48.00" y="321.20" xlink:href="#sh0"/>
<use x="66.00" y="336.20" xlink:href="#r4"/>
<use x="99.40" y="336.20" xlink:href="#hd"/>
<path d="M102.90 336.20v-21.00" class="stroke"/>
<use x="132.80" y="333.20" xlink:href="#hd"/>
<path d="M129.30 333.20v21.00" class="stroke"/>
<use x="166.20" y="336.20" xlink:href="#hd"/>
<path d="M162.70 336.20v21.00" class="stroke"/>
<use x="202.20" y="342.20" xlink:href="#hd"/>
<path d="M205.70 342.20v-21.00" class="stroke"/>
<use x="235.60" y="339.20" xlink:href="#hd"/>
<path d="M239.10 339.20v-21.00" class="stroke"/>
<use x="269.00" y="336.20" xlink:href="#hd"/>
<path d="M272.50 336.20v-21.00" class="stroke"/>
<use x="302.30" y="339.20" xlink:href="#hd"/>
<path d="M305.80 339.20v-21.00" class="stroke"/>
<use x="338.80" y="345.20" xlink:href="#Hd"/>
<path d="M342.30 345.20v-21.00" class="stroke"/>
<use x="386.00" y="336.20" xlink:href="#r4"/>
<use x="419.30" y="345.20" xlink:href="#hd"/>
<path d="M422.80 345.20v-21.00" class="stroke"/>
<use x="455.40" y="336.20" xlink:href="#hd"/>
<path d="M458.90 336.20v-21.00" class="stroke"/>
<use x="488.80" y="339.20" xlink:href="#hd"/>
<path d="M492.30 339.20v-21.00" class="stroke"/>
<use x="522.20" y="336.20" xlink:href="#hd"/>
<path d="M525.70 336.20v-21.00" class="stroke"/>
<use x="555.60" y="333.20" xlink:href="#hd"/>
<path d="M552.10 333.20v21.00" class="stroke"/>
<use x="591.60" y="339.20" xlink:href="#hd"/>
<path d="M595.10 339.20v-21.00" class="stroke"/>
<use x="625.00" y="342.20" xlink:href="#hd"/>
<path d="M628.50 342.20v-21.00" class="stroke"/>
<use x="658.40" y="348.20" xlink:href="#Hd"/>
<path d="M661.90 348.20v-21.00" class="stroke"/>
<use x="22.00" y="388.20" xlink:href="#bclef"/>
<use x="37.00" y="388.20" xlink:href="#sh0"/>
<use x="42.50" y="397.20" xlink:href="#sh0"/>
<use x="48.00" y="385.20" xlink:href="#sh0"/>
<use x="66.00" y="394.20" xlink:href="#r4"/>
<use x="99.40" y="376.20" xlink:href="#hl"/>
<use x="99.40" y="376.20" xlink:href="#hd"/>
<path d="M95.90 376.20v31.00" class="stroke"/>
<use x="99.40" y="388.20" xlink:href="#hd"/>
<use x="99.40" y="382.20" xlink:href="#hd"/>
<use x="132.80" y="376.20" xlink:href="#hl"/>
<use x="132.80" y="376.20" xlink:href="#hd"/>
<path d="M129.30 376.20v31.00" class="stroke"/>
<use x="132.80" y="388.20" xlink:href="#hd"/>
<use x="132.80" y="382.20" xlink:href="#hd"/>
<use x="166.20" y="376.20" xlink:href="#hl"/>
<use x="166.20" y="376.20" xlink:href="#hd"/>
<path d="M162.70 376.20v31.00" class="stroke"/>
<use x="166.20" y="388.20" xlink:href="#hd"/>
<use x="166.20" y="382.20" xlink:href="#hd"/>
<use x="202.20" y="385.20" xlink:href="#hd"/>
<path d="M198.70 385.20v31.00" class="stroke"/>
<use x="202.20" y="397.20" xlink:href="#hd"/>
<use x="202.20" y="391.20" xlink:href="#hd"/>
<use x="235.60" y="385.20" xlink:href="#hd"/>
<path d="M232.10 385.20v31.00" class="stroke"/>
<use x="235.60" y="397.20" xlink:href="#hd"/>
<use x="235.60" y="391.20" xlink:href="#hd"/>
<use x="269.00" y="385.20" xlink:href="#hd"/>
<path d="M265.50 385.20v31.00" class="stroke"/>
<use x="269.00" y="397.20" xlink:href="#hd"/>
<use x="269.00" y="391.20" xlink:href="#hd"/>
<use x="302.30" y="385.20" xlink:href="#hd"/>
<path d="M298.80 385.20v31.00" class="stroke"/>
<use x="302.30" y="397.20" xlink:href="#hd"/>
<use x="302.30" y="391.20" xlink:href="#hd"/>
<use x="338.80" y="376.20" xlink:href="#hl"/>
<use x="338.80" y="376.20" xlink:href="#Hd"/>
<path d="M335.30 376.20v31.00" class="stroke"/>
<use x="338.80" y="388.20" xlink:href="#Hd"/>
<use x="338.80" y="382.20" xlink:href="#Hd"/>
<use x="386.00" y="394.20" xlink:href="#r4"/>
<use x="419.30" y="376.20" xlink:href="#hl"/>
<use x="419.30" y="376.20" xlink:href="#hd"/>
<path d="M415.80 376.20v31.00" class="stroke"/>
<use x="419.30" y="388.20" xlink:href="#hd"/>
<use x="419.30" y="382.20" xlink:href="#hd"/>
<use x="455.40" y="376.20" xlink:href="#hl"/>
<use x="455.40" y="373.20" xlink:href="#hd"/>
<path d="M451.90 373.20v31.00" class="stroke"/>
<use x="455.40" y="385.20" xlink:href="#hd"/>
<use x="455.40" y="379.20" xlink:href="#hd"/>
<use x="488.80" y="376.20" xlink:href="#hl"/>
<use x="488.80" y="373.20" xlink:href="#hd"/>
<path d="M485.30 373.20v31.00" class="stroke"/>
<use x="488.80" y="385.20" xlink:href="#hd"/>
<use x="488.80" y="379.20" xlink:href="#hd"/>
<use x="522.20" y="376.20" xlink:href="#hl"/>
<use x="522.20" y="373.20" xlink:href="#hd"/>
<path d="M518.70 373.20v31.00" class="stroke"/>
<use x="522.20" y="385.20" xlink:href="#hd"/>
<use x="522.20" y="379.20" xlink:href="#hd"/>
<use x="555.60" y="376.20" xlink:href="#hl"/>
<use x="555.60" y="373.20" xlink:href="#hd"/>
<path d="M552.10 373.20v31.00" class="stroke"/>
<use x="555.60" y="385.20" xlink:href="#hd"/>
<use x="555.60" y="379.20" xlink:href="#hd"/>
<use x="591.60" y="376.20" xlink:href="#hl"/>
<use x="591.60" y="376.20" xlink:href="#hd"/>
<path d="M588.10 376.20v31.00" class="stroke"/>
<use x="591.60" y="388.20" xlink:href="#hd"/>
<use x="591.60" y="382.20" xlink:href="#hd"/>
<use x="625.00" y="376.20" xlink:href="#hl"/>
<use x="625.00" y="376.20" xlink:href="#hd"/>
<path d="M621.50 376.20v31.00" class="stroke"/>
<use x="625.00" y="388.20" xlink:href="#hd"/>
<use x="625.00" y="382.20" xlink:href="#hd"/>
<use x="658.40" y="376.20" xlink:href="#hl"/>
<use x="658.40" y="376.20" xlink:href="#Hd"/>
<path d="M654.90 376.20v31.00" class="stroke"/>
<use x="658.40" y="388.20" xlink:href="#Hd"/>
<use x="658.40" y="382.20" xlink:href="#Hd"/>
</g>
<g stroke-width="0.70" style="font:bold 13.00px Times">
<path class="stroke" stroke-width="1"
	d="M10.00 534.20v-82.00"/>
<g transform="translate(10.00,452.20) scale(1,0.82)">
	<use xlink:href="#brace"/>
</g>
<path class="stroke" stroke-width="1"
	d="M210.00 476.20v-24.00"/>
<path class="stroke" stroke-width="1"
	d="M210.00 534.20v-24.00"/>
<path class="stroke" stroke-width="1"
	d="M388.70 476.20v-24.00"/>
<path class="stroke" stroke-width="1"
	d="M388.70 534.20v-24.00"/>
<path class="stroke" stroke-width="1"
	d="M458.90 476.20v-24.00"/>
<path class="stroke" stroke-width="1"
	d="M458.90 534.20v-24.00"/>
<path d="m10.00 476.20
	h448.90
	M10.00 470.20
	h448.90
	M10.00 464.20
	h448.90
	M10.00 458.20
	h448.90
	M10.00 452.20
	h448.90
	" class="stroke"/>
<path d="m10.00 534.20
	h448.90
	M10.00 528.20
	h448.90
	M10.00 522.20
	h448.90
	M10.00 516.20
	h448.90
	M10.00 510.20
	h448.90
	" class="stroke"/>
</g>
<g stroke-width="0.70" style="font:bold 13.00px Times">
<text x="64.20" y="447.60">I</text>
</g>
<g stroke-width="0.70" style="font:bold 13.00px Times">
<text x="222.30" y="447.60">I</text>
</g>
<g stroke-width="0.70" style="font:bold 13.00px Times">
<text x="399.40" y="447.60">i<tspan
	 style="font:italic 11.00px Times">¹</tspan></text>
</g>
<g stroke-width="0.70" style="font:italic 11.00px Times">
<use x="22.00" y="470.20" xlink:href="#tclef"/>
<use x="37.00" y="452.20" xlink:href="#sh0"/>
<use x="42.50" y="461.20" xlink:href="#sh0"/>
<use x="48.00" y="449.20" xlink:href="#sh0"/>
<use x="66.00" y="464.20" xlink:href="#r4"/>
<use x="102.00" y="473.20" xlink:href="#hd"/>
<path d="M105.50 473.20v-21.00" class="stroke"/>
<use x="142.00" y="467.20" xlink:href="#hd"/>
<path d="M145.50 467.20v-21.00" class="stroke"/>
<use x="182.00" y="464.20" xlink:href="#hd"/>
<path d="M185.50 464.20v-21.00" class="stroke"/>
<use x="224.10" y="461.20" xlink:href="#hd"/>
<path d="M220.60 461.20v21.00" class="stroke"/>
<use x="264.10" y="467.20" xlink:href="#hd"/>
<path d="M267.60 467.20v-21.00" class="stroke"/>
<use x="304.10" y="470.20" xlink:href="#hd"/>
<path d="M307.60 470.20v-21.00" class="stroke"/>
<path class="fill"
	d="M307.60 449.20c0.6 5.6 9.6 9 5.6 18.4
	1.6 -6 -1.3 -11.6 -5.6 -12.8
"/>
<use x="332.40" y="473.20" xlink:href="#hd"/>
<path d="M335.90 473.20v-21.00" class="stroke"/>
<path class="fill"
	d="M335.90 452.20c0.6 5.6 9.6 9 5.6 18.4
	1.6 -6 -1.3 -11.6 -5.6 -12.8
"/>
<use x="360.70" y="470.20" xlink:href="#hd"/>
<path d="M364.20 470.20v-21.00" class="stroke"/>
<defs>
<path id="HD" class="fill" d="m-2.7 -1.4
	c1.5 -2.8 6.9 0 5.3 2.7
	-1.5 2.8 -6.9 0 -5.3 -2.7
	m8.3 1.4
	c0 -1.5 -2.2 -3 -5.6 -3
	-3.4 0 -5.6 1.5 -5.6 3
	0 1.5 2.2 3 5.6 3
	3.4 0 5.6 -1.5 5.6 -3"/>
</defs>
<use x="403.90" y="473.20" xlink:href="#HD"/>
<use x="22.00" y="516.20" xlink:href="#bclef"/>
<use x="37.00" y="516.20" xlink:href="#sh0"/>
<use x="42.50" y="525.20" xlink:href="#sh0"/>
<use x="48.00" y="513.20" xlink:href="#sh0"/>
<use x="66.00" y="522.20" xlink:href="#r4"/>
<use x="102.00" y="531.20" xlink:href="#hd"/>
<path d="M105.50 531.20v-31.00" class="stroke"/>
<use x="102.00" y="525.20" xlink:href="#hd"/>
<use x="102.00" y="519.20" xlink:href="#hd"/>
<use x="142.00" y="531.20" xlink:href="#hd"/>
<path d="M145.50 531.20v-31.00" class="stroke"/>
<use x="142.00" y="525.20" xlink:href="#hd"/>
<use x="142.00" y="519.20" xlink:href="#hd"/>
<use x="182.00" y="531.20" xlink:href="#hd"/>
<path d="M185.50 531.20v-31.00" class="stroke"/>
<use x="182.00" y="525.20" xlink:href="#hd"/>
<use x="182.00" y="519.20" xlink:href="#hd"/>
<use x="224.10" y="531.20" xlink:href="#hd"/>
<path d="M227.60 531.20v-31.00" class="stroke"/>
<use x="224.10" y="525.20" xlink:href="#hd"/>
<use x="224.10" y="519.20" xlink:href="#hd"/>
<use x="264.10" y="531.20" xlink:href="#hd"/>
<path d="M267.60 531.20v-31.00" class="stroke"/>
<use x="264.10" y="525.20" xlink:href="#hd"/>
<use x="264.10" y="519.20" xlink:href="#hd"/>
<use x="304.10" y="531.20" xlink:href="#hd"/>
<path d="M307.60 531.20v-31.00" class="stroke"/>
<path class="fill"
	d="M307.60 500.20c0.6 5.6 9.6 9 5.6 18.4
	1.6 -6 -1.3 -11.6 -5.6 -12.8
"/>
<use x="304.10" y="525.20" xlink:href="#hd"/>
<use x="304.10" y="519.20" xlink:href="#hd"/>
<use x="332.40" y="531.20" xlink:href="#hd"/>
<path d="M335.90 531.20v-31.00" class="stroke"/>
<path class="fill"
	d="M335.90 500.20c0.6 5.6 9.6 9 5.6 18.4
	1.6 -6 -1.3 -11.6 -5.6 -12.8
"/>
<use x="332.40" y="525.20" xlink:href="#hd"/>
<use x="332.40" y="519.20" xlink:href="#hd"/>
<use x="360.70" y="531.20" xlink:href="#hd"/>
<path d="M364.20 531.20v-31.00" class="stroke"/>
<use x="360.70" y="525.20" xlink:href="#hd"/>
<use x="360.70" y="519.20" xlink:href="#hd"/>
<defs>
<path id="hl1" class="stroke" d="m-7 0h14"/>
</defs>
<use x="403.90" y="504.20" xlink:href="#hl1"/>
<use x="403.90" y="504.20" xlink:href="#HD"/>
<use x="403.90" y="516.20" xlink:href="#HD"/>
<use x="403.90" y="510.20" xlink:href="#HD"/>
</g>
</svg>
