<?xml version="1.0" standalone="no"?>
<!DOCTYPE svg PUBLIC "-//W3C//DTD SVG 1.1//EN"
	"http://www.w3.org/Graphics/SVG/1.1/DTD/svg11.dtd">
<svg xmlns="http://www.w3.org/2000/svg" version="1.1"
	xmlns:xlink="http://www.w3.org/1999/xlink"
	color="black"
	width="701.60px" height="557.20px" viewBox="0 0 701.60 557.20" preserveAspectRatio="xMidYMid meet">
<style type="text/css">
.fill {fill: currentColor}
.stroke {stroke: currentColor; fill: none}
text{white-space: pre}
</style>
<title>/tmp/retab_hymnal_L1/jesus_grant_that_balm_and_healing.abc (1) tune 1</title>
<!-- Creator: abcm2ps-8.14.11 -->
<!-- CreationDate: Apr 24, 2026 15:38 -->
<!-- CommandLine: /tmp/retab_hymnal_L1/jesus_grant_that_balm_and_healing.abc -g -O /tmp/retab_hymnal_L1/jesus_grant_that_balm_and_healing -->
<g stroke-width="0.70">
<!-- title: 123. Jesus Grant That Balm and Healing -->
</g>
<g stroke-width="0.70" style="font:20.00px Times">
<text x="350.80" y="22.00" text-anchor="middle">123. Jesus Grant That Balm and Healing</text>
</g>
<g stroke-width="0.70" style="font:20.00px Times">
<path class="stroke" stroke-width="1"
	d="M10.00 145.40v-82.00"/>
<defs>
<path id="brace" class="fill" d="m-2.5 101
	c-4.5 -4.6 -7.5 -12.2 -4.4 -26.8
	3.5 -14.3 3.2 -21.7 -2.1 -24.2
	7.4 2.4 7.3 14.2 3.5 29.5
	-2.7 9.5 -1.5 16.2 3 21.5
	M-2.5 1c-4.5 4.6 -7.5 12.2 -4.4 26.8
	c3.5 14.3 3.2 21.7 -2.1 24.2
	7.4 -2.4 7.3 -14.2 3.5 -29.5
	-2.7 -9.5 -1.5 -16.2 3 -21.5"/>
</defs>
<g transform="translate(10.00,63.40) scale(1,0.82)">
	<use xlink:href="#brace"/>
</g>
<path class="stroke" stroke-width="1"
	d="M176.80 87.40v-24.00"/>
<path class="stroke" stroke-width="1"
	d="M176.80 145.40v-24.00"/>
<path class="stroke" stroke-width="1"
	d="M321.50 87.40v-24.00"/>
<path class="stroke" stroke-width="1"
	d="M321.50 145.40v-24.00"/>
<path class="stroke" stroke-width="1"
	d="M452.50 87.40v-24.00"/>
<path class="stroke" stroke-width="1"
	d="M452.50 145.40v-24.00"/>
<path class="stroke" stroke-width="1"
	d="M560.60 87.40v-24.00"/>
<path class="stroke" stroke-width="1"
	d="M560.60 145.40v-24.00"/>
<path class="stroke" stroke-width="1"
	d="M691.60 87.40v-24.00"/>
<path class="stroke" stroke-width="1"
	d="M691.60 145.40v-24.00"/>
<path d="m10.00 87.40
	h681.60
	M10.00 81.40
	h681.60
	M10.00 75.40
	h681.60
	M10.00 69.40
	h681.60
	M10.00 63.40
	h681.60
	" class="stroke"/>
<path d="m10.00 145.40
	h681.60
	M10.00 139.40
	h681.60
	M10.00 133.40
	h681.60
	M10.00 127.40
	h681.60
	M10.00 121.40
	h681.60
	" class="stroke"/>
</g>
<g stroke-width="0.70" style="font:bold 13.00px Times">
<text x="57.00" y="50.80">i</text>
</g>
<g stroke-width="0.70" style="font:bold 13.00px Times">
<text x="183.90" y="58.80">III</text>
</g>
<g stroke-width="0.70" style="font:bold 13.00px Times">
<text x="330.10" y="47.80">V</text>
</g>
<g stroke-width="0.70" style="font:bold 13.00px Times">
<text x="463.50" y="58.80">i</text>
</g>
<g stroke-width="0.70" style="font:bold 13.00px Times">
<text x="571.30" y="50.80">I</text>
<defs>
<path id="utclef" class="fill" d="m-50 -90
	c-72 -41 -72 -158 52 -188
	150 -10 220 188 90 256
	-114 52 -275 0 -293 -136
	-15 -181 93 -229 220 -334
	88 -87 79 -133 62 -210
	-51 33 -94 105 -89 186
	17 267 36 374 49 574
	6 96 -19 134 -77 135
	-80 1 -126 -93 -61 -133
	85 -41 133 101 31 105
	23 17 92 37 90 -92
	-10 -223 -39 -342 -50 -617
	0 -90 0 -162 96 -232
	56 72 63 230 22 289
	-74 106 -257 168 -255 316
	9 153 148 185 252 133
	86 -65 29 -192 -80 -176
	-71 12 -105 67 -59 124"/>
<use id="tclef" transform="translate(0,6) scale(0.045)"
	xlink:href="#utclef"/>
</defs>
<use x="22.00" y="81.40" xlink:href="#tclef"/>
<g style="font:bold 16px serif"
	transform="translate(40.50,86.90) scale(1.2,1)">
	<text text-anchor="middle">4</text>
	<text y="-12" text-anchor="middle">4</text>
</g>
<defs>
<ellipse id="hd" rx="4.1" ry="2.9"
	transform="rotate(-20)" class="fill"/>
</defs>
<use x="58.50" y="78.40" xlink:href="#hd"/>
<path d="M62.00 78.40v-21.00" class="stroke"/>
<use x="90.40" y="87.40" xlink:href="#hd"/>
<path d="M93.90 87.40v-21.00" class="stroke"/>
<use x="122.30" y="78.40" xlink:href="#hd"/>
<path d="M125.80 78.40v-21.00" class="stroke"/>
<use x="154.30" y="75.40" xlink:href="#hd"/>
<path d="M157.80 75.40v-21.00" class="stroke"/>
<use x="189.30" y="72.40" xlink:href="#hd"/>
<path d="M185.80 72.40v21.00" class="stroke"/>
<use x="221.30" y="75.40" xlink:href="#hd"/>
<path d="M217.80 75.40v21.00" class="stroke"/>
<path class="fill"
	d="M217.80 96.40c0.6 -5.6 9.6 -9 5.6 -18.4
	1.6 6 -1.3 11.6 -5.6 12.8
"/>
<use x="244.10" y="78.40" xlink:href="#hd"/>
<path d="M247.60 78.40v-21.00" class="stroke"/>
<path class="fill"
	d="M247.60 57.40c0.6 5.6 9.6 9 5.6 18.4
	1.6 -6 -1.3 -11.6 -5.6 -12.8
"/>
<use x="267.00" y="81.40" xlink:href="#hd"/>
<path d="M270.50 81.40v-21.00" class="stroke"/>
<use x="299.00" y="87.40" xlink:href="#hd"/>
<path d="M302.50 87.40v-21.00" class="stroke"/>
<use x="334.00" y="75.40" xlink:href="#hd"/>
<path d="M337.50 75.40v-21.00" class="stroke"/>
<use x="366.00" y="72.40" xlink:href="#hd"/>
<path d="M362.50 72.40v21.00" class="stroke"/>
<use x="398.00" y="69.40" xlink:href="#hd"/>
<path d="M394.50 69.40v21.00" class="stroke"/>
<use x="430.00" y="72.40" xlink:href="#hd"/>
<path d="M426.50 72.40v21.00" class="stroke"/>
<use x="465.00" y="75.40" xlink:href="#hd"/>
<path d="M461.50 75.40v21.00" class="stroke"/>
<use x="497.00" y="75.40" xlink:href="#hd"/>
<path d="M493.50 75.40v21.00" class="stroke"/>
<defs>
<path id="Hd" class="fill" d="m3 -1.6
	c-1 -1.8 -7 1.4 -6 3.2
	1 1.8 7 -1.4 6 -3.2
	m0.5 -0.3
	c2 3.8 -5 7.6 -7 3.8
	-2 -3.8 5 -7.6 7 -3.8"/>
</defs>
<use x="528.90" y="78.40" xlink:href="#Hd"/>
<path d="M532.40 78.40v-21.00" class="stroke"/>
<use x="573.10" y="78.40" xlink:href="#hd"/>
<path d="M576.60 78.40v-21.00" class="stroke"/>
<use x="605.10" y="87.40" xlink:href="#hd"/>
<path d="M608.60 87.40v-21.00" class="stroke"/>
<use x="637.10" y="78.40" xlink:href="#hd"/>
<path d="M640.60 78.40v-21.00" class="stroke"/>
<use x="669.00" y="75.40" xlink:href="#hd"/>
<path d="M672.50 75.40v-21.00" class="stroke"/>
<defs>
<path id="ubclef" class="fill" d="m-200 -87
	c124 -35 222 -78 254 -236
	43 -228 -167 -246 -192 -103
	59 -80 157 22 92 78
	-62 47 -115 -22 -106 -88
	21 -141 270 -136 274 52
	-1 175 -106 264 -322 297
	m357 -250
	c0 -36 51 -34 51 0
	0 37 -51 36 -51 0
	m-2 -129
	c0 -36 51 -34 51 0
	0 38 -51 37 -51 0"/>
<use id="bclef" transform="translate(0,18) scale(0.045)"
	xlink:href="#ubclef"/>
</defs>
<use x="22.00" y="127.40" xlink:href="#bclef"/>
<g style="font:bold 16px serif"
	transform="translate(40.50,144.90) scale(1.2,1)">
	<text text-anchor="middle">4</text>
	<text y="-12" text-anchor="middle">4</text>
</g>
<use x="58.50" y="142.40" xlink:href="#hd"/>
<path d="M62.00 142.40v-31.00" class="stroke"/>
<use x="58.50" y="136.40" xlink:href="#hd"/>
<use x="58.50" y="130.40" xlink:href="#hd"/>
<use x="90.40" y="142.40" xlink:href="#hd"/>
<path d="M93.90 142.40v-31.00" class="stroke"/>
<use x="90.40" y="136.40" xlink:href="#hd"/>
<use x="90.40" y="130.40" xlink:href="#hd"/>
<use x="122.30" y="142.40" xlink:href="#hd"/>
<path d="M125.80 142.40v-31.00" class="stroke"/>
<use x="122.30" y="136.40" xlink:href="#hd"/>
<use x="122.30" y="130.40" xlink:href="#hd"/>
<use x="154.30" y="142.40" xlink:href="#hd"/>
<path d="M157.80 142.40v-31.00" class="stroke"/>
<use x="154.30" y="136.40" xlink:href="#hd"/>
<use x="154.30" y="130.40" xlink:href="#hd"/>
<defs>
<path id="hl" class="stroke" d="m-6 0h12"/>
</defs>
<use x="189.30" y="151.40" xlink:href="#hl"/>
<use x="189.30" y="157.40" xlink:href="#hl"/>
<use x="189.30" y="157.40" xlink:href="#hd"/>
<path d="M192.80 157.40v-31.00" class="stroke"/>
<use x="189.30" y="151.40" xlink:href="#hd"/>
<use x="189.30" y="145.40" xlink:href="#hd"/>
<use x="221.30" y="151.40" xlink:href="#hl"/>
<use x="221.30" y="157.40" xlink:href="#hl"/>
<use x="221.30" y="157.40" xlink:href="#hd"/>
<path d="M224.80 157.40v-31.00" class="stroke"/>
<path class="fill"
	d="M224.80 126.40c0.6 5.6 9.6 9 5.6 18.4
	1.6 -6 -1.3 -11.6 -5.6 -12.8
"/>
<use x="221.30" y="151.40" xlink:href="#hd"/>
<use x="221.30" y="145.40" xlink:href="#hd"/>
<use x="244.10" y="151.40" xlink:href="#hl"/>
<use x="244.10" y="157.40" xlink:href="#hl"/>
<use x="244.10" y="157.40" xlink:href="#hd"/>
<path d="M247.60 157.40v-31.00" class="stroke"/>
<path class="fill"
	d="M247.60 126.40c0.6 5.6 9.6 9 5.6 18.4
	1.6 -6 -1.3 -11.6 -5.6 -12.8
"/>
<use x="244.10" y="151.40" xlink:href="#hd"/>
<use x="244.10" y="145.40" xlink:href="#hd"/>
<use x="267.00" y="151.40" xlink:href="#hl"/>
<use x="267.00" y="157.40" xlink:href="#hl"/>
<use x="267.00" y="157.40" xlink:href="#hd"/>
<path d="M270.50 157.40v-31.00" class="stroke"/>
<use x="267.00" y="151.40" xlink:href="#hd"/>
<use x="267.00" y="145.40" xlink:href="#hd"/>
<use x="299.00" y="151.40" xlink:href="#hl"/>
<use x="299.00" y="157.40" xlink:href="#hl"/>
<use x="299.00" y="157.40" xlink:href="#hd"/>
<path d="M302.50 157.40v-31.00" class="stroke"/>
<use x="299.00" y="151.40" xlink:href="#hd"/>
<use x="299.00" y="145.40" xlink:href="#hd"/>
<use x="334.00" y="151.40" xlink:href="#hl"/>
<use x="334.00" y="151.40" xlink:href="#hd"/>
<path d="M337.50 151.40v-31.00" class="stroke"/>
<use x="334.00" y="145.40" xlink:href="#hd"/>
<use x="334.00" y="139.40" xlink:href="#hd"/>
<use x="366.00" y="151.40" xlink:href="#hl"/>
<use x="366.00" y="151.40" xlink:href="#hd"/>
<path d="M369.50 151.40v-31.00" class="stroke"/>
<use x="366.00" y="145.40" xlink:href="#hd"/>
<use x="366.00" y="139.40" xlink:href="#hd"/>
<use x="398.00" y="151.40" xlink:href="#hl"/>
<use x="398.00" y="151.40" xlink:href="#hd"/>
<path d="M401.50 151.40v-31.00" class="stroke"/>
<use x="398.00" y="145.40" xlink:href="#hd"/>
<use x="398.00" y="139.40" xlink:href="#hd"/>
<use x="430.00" y="151.40" xlink:href="#hl"/>
<use x="430.00" y="151.40" xlink:href="#hd"/>
<path d="M433.50 151.40v-31.00" class="stroke"/>
<use x="430.00" y="145.40" xlink:href="#hd"/>
<use x="430.00" y="139.40" xlink:href="#hd"/>
<use x="465.00" y="142.40" xlink:href="#hd"/>
<path d="M468.50 142.40v-31.00" class="stroke"/>
<use x="465.00" y="136.40" xlink:href="#hd"/>
<use x="465.00" y="130.40" xlink:href="#hd"/>
<use x="497.00" y="142.40" xlink:href="#hd"/>
<path d="M500.50 142.40v-31.00" class="stroke"/>
<use x="497.00" y="136.40" xlink:href="#hd"/>
<use x="497.00" y="130.40" xlink:href="#hd"/>
<use x="528.90" y="142.40" xlink:href="#Hd"/>
<path d="M532.40 142.40v-31.00" class="stroke"/>
<use x="528.90" y="136.40" xlink:href="#Hd"/>
<use x="528.90" y="130.40" xlink:href="#Hd"/>
<use x="573.10" y="151.40" xlink:href="#hl"/>
<use x="573.10" y="157.40" xlink:href="#hl"/>
<use x="573.10" y="157.40" xlink:href="#hd"/>
<path d="M576.60 157.40v-31.00" class="stroke"/>
<use x="573.10" y="151.40" xlink:href="#hd"/>
<use x="573.10" y="145.40" xlink:href="#hd"/>
<use x="605.10" y="151.40" xlink:href="#hl"/>
<use x="605.10" y="157.40" xlink:href="#hl"/>
<use x="605.10" y="157.40" xlink:href="#hd"/>
<path d="M608.60 157.40v-31.00" class="stroke"/>
<use x="605.10" y="151.40" xlink:href="#hd"/>
<use x="605.10" y="145.40" xlink:href="#hd"/>
<use x="637.10" y="151.40" xlink:href="#hl"/>
<use x="637.10" y="157.40" xlink:href="#hl"/>
<use x="637.10" y="157.40" xlink:href="#hd"/>
<path d="M640.60 157.40v-31.00" class="stroke"/>
<use x="637.10" y="151.40" xlink:href="#hd"/>
<use x="637.10" y="145.40" xlink:href="#hd"/>
<use x="669.00" y="151.40" xlink:href="#hl"/>
<use x="669.00" y="157.40" xlink:href="#hl"/>
<use x="669.00" y="157.40" xlink:href="#hd"/>
<path d="M672.50 157.40v-31.00" class="stroke"/>
<use x="669.00" y="151.40" xlink:href="#hd"/>
<use x="669.00" y="145.40" xlink:href="#hd"/>
</g>
<g stroke-width="0.70" style="font:bold 13.00px Times">
<path class="stroke" stroke-width="1"
	d="M10.00 275.80v-82.00"/>
<g transform="translate(10.00,193.80) scale(1,0.82)">
	<use xlink:href="#brace"/>
</g>
<path class="stroke" stroke-width="1"
	d="M186.70 217.80v-24.00"/>
<path class="stroke" stroke-width="1"
	d="M186.70 275.80v-24.00"/>
<path class="stroke" stroke-width="1"
	d="M325.00 217.80v-24.00"/>
<path class="stroke" stroke-width="1"
	d="M325.00 275.80v-24.00"/>
<path class="stroke" stroke-width="1"
	d="M439.10 217.80v-24.00"/>
<path class="stroke" stroke-width="1"
	d="M439.10 275.80v-24.00"/>
<path class="stroke" stroke-width="1"
	d="M577.50 217.80v-24.00"/>
<path class="stroke" stroke-width="1"
	d="M577.50 275.80v-24.00"/>
<path class="stroke" stroke-width="1"
	d="M691.60 217.80v-24.00"/>
<path class="stroke" stroke-width="1"
	d="M691.60 275.80v-24.00"/>
<path d="m10.00 217.80
	h681.60
	M10.00 211.80
	h681.60
	M10.00 205.80
	h681.60
	M10.00 199.80
	h681.60
	M10.00 193.80
	h681.60
	" class="stroke"/>
<path d="m10.00 275.80
	h681.60
	M10.00 269.80
	h681.60
	M10.00 263.80
	h681.60
	M10.00 257.80
	h681.60
	M10.00 251.80
	h681.60
	" class="stroke"/>
</g>
<g stroke-width="0.70" style="font:bold 13.00px Times">
<text x="41.00" y="189.20">III</text>
</g>
<g stroke-width="0.70" style="font:bold 13.00px Times">
<text x="195.20" y="178.20">V</text>
</g>
<g stroke-width="0.70" style="font:bold 13.00px Times">
<text x="336.00" y="189.20">i</text>
</g>
<g stroke-width="0.70" style="font:bold 13.00px Times">
<text x="446.20" y="184.20">III</text>
</g>
<g stroke-width="0.70" style="font:bold 13.00px Times">
<text x="588.50" y="187.20">i</text>
<use x="22.00" y="211.80" xlink:href="#tclef"/>
<use x="46.50" y="202.80" xlink:href="#hd"/>
<path d="M43.00 202.80v21.00" class="stroke"/>
<use x="80.50" y="205.80" xlink:href="#hd"/>
<path d="M77.00 205.80v21.00" class="stroke"/>
<path class="fill"
	d="M77.00 226.80c0.6 -5.6 9.6 -9 5.6 -18.4
	1.6 6 -1.3 11.6 -5.6 12.8
"/>
<use x="104.70" y="208.80" xlink:href="#hd"/>
<path d="M108.20 208.80v-21.00" class="stroke"/>
<path class="fill"
	d="M108.20 187.80c0.6 5.6 9.6 9 5.6 18.4
	1.6 -6 -1.3 -11.6 -5.6 -12.8
"/>
<use x="128.80" y="211.80" xlink:href="#hd"/>
<path d="M132.30 211.80v-21.00" class="stroke"/>
<use x="162.80" y="217.80" xlink:href="#hd"/>
<path d="M166.30 217.80v-21.00" class="stroke"/>
<use x="199.20" y="205.80" xlink:href="#hd"/>
<path d="M202.70 205.80v-21.00" class="stroke"/>
<use x="233.20" y="202.80" xlink:href="#hd"/>
<path d="M229.70 202.80v21.00" class="stroke"/>
<use x="267.20" y="199.80" xlink:href="#hd"/>
<path d="M263.70 199.80v21.00" class="stroke"/>
<use x="301.10" y="202.80" xlink:href="#hd"/>
<path d="M297.60 202.80v21.00" class="stroke"/>
<use x="337.50" y="205.80" xlink:href="#hd"/>
<path d="M334.00 205.80v21.00" class="stroke"/>
<use x="371.50" y="205.80" xlink:href="#hd"/>
<path d="M368.00 205.80v21.00" class="stroke"/>
<use x="405.40" y="208.80" xlink:href="#Hd"/>
<path d="M408.90 208.80v-21.00" class="stroke"/>
<use x="451.60" y="211.80" xlink:href="#hd"/>
<path d="M455.10 211.80v-21.00" class="stroke"/>
<use x="485.60" y="211.80" xlink:href="#hd"/>
<path d="M489.10 211.80v-21.00" class="stroke"/>
<use x="519.60" y="211.80" xlink:href="#hd"/>
<path d="M523.10 211.80v-21.00" class="stroke"/>
<use x="553.60" y="217.80" xlink:href="#hd"/>
<path d="M557.10 217.80v-21.00" class="stroke"/>
<use x="590.00" y="214.80" xlink:href="#hd"/>
<path d="M593.50 214.80v-21.00" class="stroke"/>
<use x="623.90" y="211.80" xlink:href="#hd"/>
<path d="M627.40 211.80v-21.00" class="stroke"/>
<use x="657.90" y="208.80" xlink:href="#Hd"/>
<path d="M661.40 208.80v-21.00" class="stroke"/>
<use x="22.00" y="257.80" xlink:href="#bclef"/>
<use x="46.50" y="281.80" xlink:href="#hl"/>
<use x="46.50" y="287.80" xlink:href="#hl"/>
<use x="46.50" y="287.80" xlink:href="#hd"/>
<path d="M50.00 287.80v-31.00" class="stroke"/>
<use x="46.50" y="281.80" xlink:href="#hd"/>
<use x="46.50" y="275.80" xlink:href="#hd"/>
<use x="80.50" y="281.80" xlink:href="#hl"/>
<use x="80.50" y="287.80" xlink:href="#hl"/>
<use x="80.50" y="287.80" xlink:href="#hd"/>
<path d="M84.00 287.80v-31.00" class="stroke"/>
<path class="fill"
	d="M84.00 256.80c0.6 5.6 9.6 9 5.6 18.4
	1.6 -6 -1.3 -11.6 -5.6 -12.8
"/>
<use x="80.50" y="281.80" xlink:href="#hd"/>
<use x="80.50" y="275.80" xlink:href="#hd"/>
<use x="104.70" y="281.80" xlink:href="#hl"/>
<use x="104.70" y="287.80" xlink:href="#hl"/>
<use x="104.70" y="287.80" xlink:href="#hd"/>
<path d="M108.20 287.80v-31.00" class="stroke"/>
<path class="fill"
	d="M108.20 256.80c0.6 5.6 9.6 9 5.6 18.4
	1.6 -6 -1.3 -11.6 -5.6 -12.8
"/>
<use x="104.70" y="281.80" xlink:href="#hd"/>
<use x="104.70" y="275.80" xlink:href="#hd"/>
<use x="128.80" y="281.80" xlink:href="#hl"/>
<use x="128.80" y="287.80" xlink:href="#hl"/>
<use x="128.80" y="287.80" xlink:href="#hd"/>
<path d="M132.30 287.80v-31.00" class="stroke"/>
<use x="128.80" y="281.80" xlink:href="#hd"/>
<use x="128.80" y="275.80" xlink:href="#hd"/>
<use x="162.80" y="281.80" xlink:href="#hl"/>
<use x="162.80" y="287.80" xlink:href="#hl"/>
<use x="162.80" y="287.80" xlink:href="#hd"/>
<path d="M166.30 287.80v-31.00" class="stroke"/>
<use x="162.80" y="281.80" xlink:href="#hd"/>
<use x="162.80" y="275.80" xlink:href="#hd"/>
<use x="199.20" y="281.80" xlink:href="#hl"/>
<use x="199.20" y="281.80" xlink:href="#hd"/>
<path d="M202.70 281.80v-31.00" class="stroke"/>
<use x="199.20" y="275.80" xlink:href="#hd"/>
<use x="199.20" y="269.80" xlink:href="#hd"/>
<use x="233.20" y="281.80" xlink:href="#hl"/>
<use x="233.20" y="281.80" xlink:href="#hd"/>
<path d="M236.70 281.80v-31.00" class="stroke"/>
<use x="233.20" y="275.80" xlink:href="#hd"/>
<use x="233.20" y="269.80" xlink:href="#hd"/>
<use x="267.20" y="281.80" xlink:href="#hl"/>
<use x="267.20" y="281.80" xlink:href="#hd"/>
<path d="M270.70 281.80v-31.00" class="stroke"/>
<use x="267.20" y="275.80" xlink:href="#hd"/>
<use x="267.20" y="269.80" xlink:href="#hd"/>
<use x="301.10" y="281.80" xlink:href="#hl"/>
<use x="301.10" y="281.80" xlink:href="#hd"/>
<path d="M304.60 281.80v-31.00" class="stroke"/>
<use x="301.10" y="275.80" xlink:href="#hd"/>
<use x="301.10" y="269.80" xlink:href="#hd"/>
<use x="337.50" y="272.80" xlink:href="#hd"/>
<path d="M341.00 272.80v-31.00" class="stroke"/>
<use x="337.50" y="266.80" xlink:href="#hd"/>
<use x="337.50" y="260.80" xlink:href="#hd"/>
<use x="371.50" y="272.80" xlink:href="#hd"/>
<path d="M375.00 272.80v-31.00" class="stroke"/>
<use x="371.50" y="266.80" xlink:href="#hd"/>
<use x="371.50" y="260.80" xlink:href="#hd"/>
<use x="405.40" y="272.80" xlink:href="#Hd"/>
<path d="M408.90 272.80v-31.00" class="stroke"/>
<use x="405.40" y="266.80" xlink:href="#Hd"/>
<use x="405.40" y="260.80" xlink:href="#Hd"/>
<use x="451.60" y="281.80" xlink:href="#hl"/>
<use x="451.60" y="287.80" xlink:href="#hl"/>
<use x="451.60" y="287.80" xlink:href="#hd"/>
<path d="M455.10 287.80v-31.00" class="stroke"/>
<use x="451.60" y="281.80" xlink:href="#hd"/>
<use x="451.60" y="275.80" xlink:href="#hd"/>
<use x="485.60" y="281.80" xlink:href="#hl"/>
<use x="485.60" y="287.80" xlink:href="#hl"/>
<use x="485.60" y="287.80" xlink:href="#hd"/>
<path d="M489.10 287.80v-31.00" class="stroke"/>
<use x="485.60" y="281.80" xlink:href="#hd"/>
<use x="485.60" y="275.80" xlink:href="#hd"/>
<use x="519.60" y="281.80" xlink:href="#hl"/>
<use x="519.60" y="287.80" xlink:href="#hl"/>
<use x="519.60" y="287.80" xlink:href="#hd"/>
<path d="M523.10 287.80v-31.00" class="stroke"/>
<use x="519.60" y="281.80" xlink:href="#hd"/>
<use x="519.60" y="275.80" xlink:href="#hd"/>
<use x="553.60" y="281.80" xlink:href="#hl"/>
<use x="553.60" y="287.80" xlink:href="#hl"/>
<use x="553.60" y="287.80" xlink:href="#hd"/>
<path d="M557.10 287.80v-31.00" class="stroke"/>
<use x="553.60" y="281.80" xlink:href="#hd"/>
<use x="553.60" y="275.80" xlink:href="#hd"/>
<use x="590.00" y="272.80" xlink:href="#hd"/>
<path d="M593.50 272.80v-31.00" class="stroke"/>
<use x="590.00" y="266.80" xlink:href="#hd"/>
<use x="590.00" y="260.80" xlink:href="#hd"/>
<use x="623.90" y="272.80" xlink:href="#hd"/>
<path d="M627.40 272.80v-31.00" class="stroke"/>
<use x="623.90" y="266.80" xlink:href="#hd"/>
<use x="623.90" y="260.80" xlink:href="#hd"/>
<use x="657.90" y="272.80" xlink:href="#Hd"/>
<path d="M661.40 272.80v-31.00" class="stroke"/>
<use x="657.90" y="266.80" xlink:href="#Hd"/>
<use x="657.90" y="260.80" xlink:href="#Hd"/>
</g>
<g stroke-width="0.70" style="font:bold 13.00px Times">
<path class="stroke" stroke-width="1"
	d="M10.00 406.20v-82.00"/>
<g transform="translate(10.00,324.20) scale(1,0.82)">
	<use xlink:href="#brace"/>
</g>
<path class="stroke" stroke-width="1"
	d="M170.30 348.20v-24.00"/>
<path class="stroke" stroke-width="1"
	d="M170.30 406.20v-24.00"/>
<path class="stroke" stroke-width="1"
	d="M282.80 348.20v-24.00"/>
<path class="stroke" stroke-width="1"
	d="M282.80 406.20v-24.00"/>
<path class="stroke" stroke-width="1"
	d="M419.00 348.20v-24.00"/>
<path class="stroke" stroke-width="1"
	d="M419.00 406.20v-24.00"/>
<path class="stroke" stroke-width="1"
	d="M555.30 348.20v-24.00"/>
<path class="stroke" stroke-width="1"
	d="M555.30 406.20v-24.00"/>
<path class="stroke" stroke-width="1"
	d="M691.60 348.20v-24.00"/>
<path class="stroke" stroke-width="1"
	d="M691.60 406.20v-24.00"/>
<path d="m10.00 348.20
	h681.60
	M10.00 342.20
	h681.60
	M10.00 336.20
	h681.60
	M10.00 330.20
	h681.60
	M10.00 324.20
	h681.60
	" class="stroke"/>
<path d="m10.00 406.20
	h681.60
	M10.00 400.20
	h681.60
	M10.00 394.20
	h681.60
	M10.00 388.20
	h681.60
	M10.00 382.20
	h681.60
	" class="stroke"/>
</g>
<g stroke-width="0.70" style="font:bold 13.00px Times">
<text x="41.00" y="314.60">III</text>
</g>
<g stroke-width="0.70" style="font:bold 13.00px Times">
<text x="181.00" y="319.60">I</text>
</g>
<g stroke-width="0.70" style="font:bold 13.00px Times">
<text x="293.50" y="319.60">I</text>
</g>
<g stroke-width="0.70" style="font:bold 13.00px Times">
<text x="427.60" y="311.60">V</text>
</g>
<g stroke-width="0.70" style="font:bold 13.00px Times">
<text x="566.00" y="308.60">I</text>
<use x="22.00" y="342.20" xlink:href="#tclef"/>
<use x="46.50" y="342.20" xlink:href="#hd"/>
<path d="M50.00 342.20v-21.00" class="stroke"/>
<use x="79.90" y="342.20" xlink:href="#hd"/>
<path d="M83.40 342.20v-21.00" class="stroke"/>
<use x="113.30" y="345.20" xlink:href="#hd"/>
<path d="M116.80 345.20v-21.00" class="stroke"/>
<use x="146.80" y="348.20" xlink:href="#hd"/>
<path d="M150.30 348.20v-21.00" class="stroke"/>
<use x="182.80" y="351.20" xlink:href="#hd"/>
<path d="M186.30 351.20v-21.00" class="stroke"/>
<use x="216.20" y="351.20" xlink:href="#hd"/>
<path d="M219.70 351.20v-21.00" class="stroke"/>
<use x="249.60" y="354.20" xlink:href="#hl"/>
<use x="249.60" y="354.20" xlink:href="#Hd"/>
<path d="M253.10 354.20v-21.00" class="stroke"/>
<use x="295.30" y="333.20" xlink:href="#hd"/>
<path d="M291.80 333.20v21.00" class="stroke"/>
<use x="328.70" y="333.20" xlink:href="#hd"/>
<path d="M325.20 333.20v21.00" class="stroke"/>
<use x="362.10" y="336.20" xlink:href="#hd"/>
<path d="M358.60 336.20v21.00" class="stroke"/>
<use x="395.50" y="336.20" xlink:href="#hd"/>
<path d="M392.00 336.20v21.00" class="stroke"/>
<use x="431.50" y="339.20" xlink:href="#hd"/>
<path d="M435.00 339.20v-21.00" class="stroke"/>
<use x="465.00" y="336.20" xlink:href="#hd"/>
<path d="M468.50 336.20v-21.00" class="stroke"/>
<use x="498.40" y="342.20" xlink:href="#hd"/>
<path d="M501.90 342.20v-21.00" class="stroke"/>
<use x="531.80" y="348.20" xlink:href="#hd"/>
<path d="M535.30 348.20v-21.00" class="stroke"/>
<use x="567.80" y="336.20" xlink:href="#hd"/>
<path d="M571.30 336.20v-21.00" class="stroke"/>
<use x="601.30" y="333.20" xlink:href="#hd"/>
<path d="M597.80 333.20v21.00" class="stroke"/>
<use x="634.70" y="330.20" xlink:href="#hd"/>
<path d="M631.20 330.20v21.00" class="stroke"/>
<use x="668.10" y="333.20" xlink:href="#hd"/>
<path d="M664.60 333.20v21.00" class="stroke"/>
<use x="22.00" y="388.20" xlink:href="#bclef"/>
<use x="46.50" y="412.20" xlink:href="#hl"/>
<use x="46.50" y="418.20" xlink:href="#hl"/>
<use x="46.50" y="418.20" xlink:href="#hd"/>
<path d="M50.00 418.20v-31.00" class="stroke"/>
<use x="46.50" y="412.20" xlink:href="#hd"/>
<use x="46.50" y="406.20" xlink:href="#hd"/>
<use x="79.90" y="412.20" xlink:href="#hl"/>
<use x="79.90" y="418.20" xlink:href="#hl"/>
<use x="79.90" y="418.20" xlink:href="#hd"/>
<path d="M83.40 418.20v-31.00" class="stroke"/>
<use x="79.90" y="412.20" xlink:href="#hd"/>
<use x="79.90" y="406.20" xlink:href="#hd"/>
<use x="113.30" y="412.20" xlink:href="#hl"/>
<use x="113.30" y="418.20" xlink:href="#hl"/>
<use x="113.30" y="418.20" xlink:href="#hd"/>
<path d="M116.80 418.20v-31.00" class="stroke"/>
<use x="113.30" y="412.20" xlink:href="#hd"/>
<use x="113.30" y="406.20" xlink:href="#hd"/>
<use x="146.80" y="412.20" xlink:href="#hl"/>
<use x="146.80" y="418.20" xlink:href="#hl"/>
<use x="146.80" y="418.20" xlink:href="#hd"/>
<path d="M150.30 418.20v-31.00" class="stroke"/>
<use x="146.80" y="412.20" xlink:href="#hd"/>
<use x="146.80" y="406.20" xlink:href="#hd"/>
<use x="182.80" y="412.20" xlink:href="#hl"/>
<use x="182.80" y="418.20" xlink:href="#hl"/>
<use x="182.80" y="418.20" xlink:href="#hd"/>
<path d="M186.30 418.20v-31.00" class="stroke"/>
<use x="182.80" y="412.20" xlink:href="#hd"/>
<use x="182.80" y="406.20" xlink:href="#hd"/>
<use x="216.20" y="412.20" xlink:href="#hl"/>
<use x="216.20" y="418.20" xlink:href="#hl"/>
<use x="216.20" y="418.20" xlink:href="#hd"/>
<path d="M219.70 418.20v-31.00" class="stroke"/>
<use x="216.20" y="412.20" xlink:href="#hd"/>
<use x="216.20" y="406.20" xlink:href="#hd"/>
<use x="249.60" y="412.20" xlink:href="#hl"/>
<use x="249.60" y="418.20" xlink:href="#hl"/>
<use x="249.60" y="418.20" xlink:href="#Hd"/>
<path d="M253.10 418.20v-31.00" class="stroke"/>
<use x="249.60" y="412.20" xlink:href="#Hd"/>
<use x="249.60" y="406.20" xlink:href="#Hd"/>
<use x="295.30" y="412.20" xlink:href="#hl"/>
<use x="295.30" y="418.20" xlink:href="#hl"/>
<use x="295.30" y="418.20" xlink:href="#hd"/>
<path d="M298.80 418.20v-31.00" class="stroke"/>
<use x="295.30" y="412.20" xlink:href="#hd"/>
<use x="295.30" y="406.20" xlink:href="#hd"/>
<use x="328.70" y="412.20" xlink:href="#hl"/>
<use x="328.70" y="418.20" xlink:href="#hl"/>
<use x="328.70" y="418.20" xlink:href="#hd"/>
<path d="M332.20 418.20v-31.00" class="stroke"/>
<use x="328.70" y="412.20" xlink:href="#hd"/>
<use x="328.70" y="406.20" xlink:href="#hd"/>
<use x="362.10" y="412.20" xlink:href="#hl"/>
<use x="362.10" y="418.20" xlink:href="#hl"/>
<use x="362.10" y="418.20" xlink:href="#hd"/>
<path d="M365.60 418.20v-31.00" class="stroke"/>
<use x="362.10" y="412.20" xlink:href="#hd"/>
<use x="362.10" y="406.20" xlink:href="#hd"/>
<use x="395.50" y="412.20" xlink:href="#hl"/>
<use x="395.50" y="418.20" xlink:href="#hl"/>
<use x="395.50" y="418.20" xlink:href="#hd"/>
<path d="M399.00 418.20v-31.00" class="stroke"/>
<use x="395.50" y="412.20" xlink:href="#hd"/>
<use x="395.50" y="406.20" xlink:href="#hd"/>
<use x="431.50" y="412.20" xlink:href="#hl"/>
<use x="431.50" y="412.20" xlink:href="#hd"/>
<path d="M435.00 412.20v-31.00" class="stroke"/>
<use x="431.50" y="406.20" xlink:href="#hd"/>
<use x="431.50" y="400.20" xlink:href="#hd"/>
<use x="465.00" y="412.20" xlink:href="#hl"/>
<use x="465.00" y="412.20" xlink:href="#hd"/>
<path d="M468.50 412.20v-31.00" class="stroke"/>
<use x="465.00" y="406.20" xlink:href="#hd"/>
<use x="465.00" y="400.20" xlink:href="#hd"/>
<use x="498.40" y="412.20" xlink:href="#hl"/>
<use x="498.40" y="412.20" xlink:href="#hd"/>
<path d="M501.90 412.20v-31.00" class="stroke"/>
<use x="498.40" y="406.20" xlink:href="#hd"/>
<use x="498.40" y="400.20" xlink:href="#hd"/>
<use x="531.80" y="412.20" xlink:href="#hl"/>
<use x="531.80" y="412.20" xlink:href="#hd"/>
<path d="M535.30 412.20v-31.00" class="stroke"/>
<use x="531.80" y="406.20" xlink:href="#hd"/>
<use x="531.80" y="400.20" xlink:href="#hd"/>
<use x="567.80" y="412.20" xlink:href="#hl"/>
<use x="567.80" y="418.20" xlink:href="#hl"/>
<use x="567.80" y="418.20" xlink:href="#hd"/>
<path d="M571.30 418.20v-31.00" class="stroke"/>
<use x="567.80" y="412.20" xlink:href="#hd"/>
<use x="567.80" y="406.20" xlink:href="#hd"/>
<use x="601.30" y="412.20" xlink:href="#hl"/>
<use x="601.30" y="418.20" xlink:href="#hl"/>
<use x="601.30" y="418.20" xlink:href="#hd"/>
<path d="M604.80 418.20v-31.00" class="stroke"/>
<use x="601.30" y="412.20" xlink:href="#hd"/>
<use x="601.30" y="406.20" xlink:href="#hd"/>
<use x="634.70" y="412.20" xlink:href="#hl"/>
<use x="634.70" y="418.20" xlink:href="#hl"/>
<use x="634.70" y="418.20" xlink:href="#hd"/>
<path d="M638.20 418.20v-31.00" class="stroke"/>
<use x="634.70" y="412.20" xlink:href="#hd"/>
<use x="634.70" y="406.20" xlink:href="#hd"/>
<use x="668.10" y="412.20" xlink:href="#hl"/>
<use x="668.10" y="418.20" xlink:href="#hl"/>
<use x="668.10" y="418.20" xlink:href="#hd"/>
<path d="M671.60 418.20v-31.00" class="stroke"/>
<use x="668.10" y="412.20" xlink:href="#hd"/>
<use x="668.10" y="406.20" xlink:href="#hd"/>
</g>
<g stroke-width="0.70" style="font:bold 13.00px Times">
<path class="stroke" stroke-width="1"
	d="M10.00 534.20v-82.00"/>
<g transform="translate(10.00,452.20) scale(1,0.82)">
	<use xlink:href="#brace"/>
</g>
<path class="stroke" stroke-width="1"
	d="M166.10 476.20v-24.00"/>
<path class="stroke" stroke-width="1"
	d="M166.10 534.20v-24.00"/>
<path class="stroke" stroke-width="1"
	d="M236.30 476.20v-24.00"/>
<path class="stroke" stroke-width="1"
	d="M236.30 534.20v-24.00"/>
<path d="m10.00 476.20
	h226.30
	M10.00 470.20
	h226.30
	M10.00 464.20
	h226.30
	M10.00 458.20
	h226.30
	M10.00 452.20
	h226.30
	" class="stroke"/>
<path d="m10.00 534.20
	h226.30
	M10.00 528.20
	h226.30
	M10.00 522.20
	h226.30
	M10.00 516.20
	h226.30
	M10.00 510.20
	h226.30
	" class="stroke"/>
</g>
<g stroke-width="0.70" style="font:bold 13.00px Times">
<text x="44.70" y="447.60">I</text>
</g>
<g stroke-width="0.70" style="font:bold 13.00px Times">
<text x="178.80" y="447.60">i</text>
<use x="22.00" y="470.20" xlink:href="#tclef"/>
<use x="46.50" y="464.20" xlink:href="#hd"/>
<path d="M43.00 464.20v21.00" class="stroke"/>
<use x="86.50" y="461.20" xlink:href="#hd"/>
<path d="M83.00 461.20v21.00" class="stroke"/>
<use x="126.50" y="464.20" xlink:href="#Hd"/>
<path d="M123.00 464.20v21.00" class="stroke"/>
<defs>
<path id="HD" class="fill" d="m-2.7 -1.4
	c1.5 -2.8 6.9 0 5.3 2.7
	-1.5 2.8 -6.9 0 -5.3 -2.7
	m8.3 1.4
	c0 -1.5 -2.2 -3 -5.6 -3
	-3.4 0 -5.6 1.5 -5.6 3
	0 1.5 2.2 3 5.6 3
	3.4 0 5.6 -1.5 5.6 -3"/>
</defs>
<use x="181.30" y="467.20" xlink:href="#HD"/>
<use x="22.00" y="516.20" xlink:href="#bclef"/>
<use x="46.50" y="540.20" xlink:href="#hl"/>
<use x="46.50" y="546.20" xlink:href="#hl"/>
<use x="46.50" y="546.20" xlink:href="#hd"/>
<path d="M50.00 546.20v-31.00" class="stroke"/>
<use x="46.50" y="540.20" xlink:href="#hd"/>
<use x="46.50" y="534.20" xlink:href="#hd"/>
<use x="86.50" y="540.20" xlink:href="#hl"/>
<use x="86.50" y="546.20" xlink:href="#hl"/>
<use x="86.50" y="546.20" xlink:href="#hd"/>
<path d="M90.00 546.20v-31.00" class="stroke"/>
<use x="86.50" y="540.20" xlink:href="#hd"/>
<use x="86.50" y="534.20" xlink:href="#hd"/>
<use x="126.50" y="540.20" xlink:href="#hl"/>
<use x="126.50" y="546.20" xlink:href="#hl"/>
<use x="126.50" y="546.20" xlink:href="#Hd"/>
<path d="M130.00 546.20v-31.00" class="stroke"/>
<use x="126.50" y="540.20" xlink:href="#Hd"/>
<use x="126.50" y="534.20" xlink:href="#Hd"/>
<use x="181.30" y="531.20" xlink:href="#HD"/>
<use x="181.30" y="525.20" xlink:href="#HD"/>
<use x="181.30" y="519.20" xlink:href="#HD"/>
</g>
</svg>
