<?xml version="1.0" standalone="no"?>
<!DOCTYPE svg PUBLIC "-//W3C//DTD SVG 1.1//EN"
	"http://www.w3.org/Graphics/SVG/1.1/DTD/svg11.dtd">
<svg xmlns="http://www.w3.org/2000/svg" version="1.1"
	xmlns:xlink="http://www.w3.org/1999/xlink"
	color="black"
	width="701.60px" height="680.40px" viewBox="0 0 701.60 680.40" preserveAspectRatio="xMidYMid meet">
<style type="text/css">
.fill {fill: currentColor}
.stroke {stroke: currentColor; fill: none}
text{white-space: pre}
</style>
<title>/tmp/retab_hymnal_L1/lift_up_your_heads_ye_mighty_gates.abc (1) tune 1</title>
<!-- Creator: abcm2ps-8.14.11 -->
<!-- CreationDate: Apr 24, 2026 15:38 -->
<!-- CommandLine: /tmp/retab_hymnal_L1/lift_up_your_heads_ye_mighty_gates.abc -g -O /tmp/retab_hymnal_L1/lift_up_your_heads_ye_mighty_gates -->
<g stroke-width="0.70">
<!-- title: 139. Lift Up Your Heads, Ye Mighty Gates -->
</g>
<g stroke-width="0.70" style="font:20.00px Times">
<text x="350.80" y="22.00" text-anchor="middle">139. Lift Up Your Heads, Ye Mighty Gates</text>
</g>
<g stroke-width="0.70" style="font:20.00px Times">
<path class="stroke" stroke-width="1"
	d="M10.00 143.00v-82.00"/>
<defs>
<path id="brace" class="fill" d="m-2.5 101
	c-4.5 -4.6 -7.5 -12.2 -4.4 -26.8
	3.5 -14.3 3.2 -21.7 -2.1 -24.2
	7.4 2.4 7.3 14.2 3.5 29.5
	-2.7 9.5 -1.5 16.2 3 21.5
	M-2.5 1c-4.5 4.6 -7.5 12.2 -4.4 26.8
	c3.5 14.3 3.2 21.7 -2.1 24.2
	7.4 -2.4 7.3 -14.2 3.5 -29.5
	-2.7 -9.5 -1.5 -16.2 3 -21.5"/>
</defs>
<g transform="translate(10.00,61.00) scale(1,0.82)">
	<use xlink:href="#brace"/>
</g>
<path class="stroke" stroke-width="1"
	d="M162.20 85.00v-24.00"/>
<path class="stroke" stroke-width="1"
	d="M162.20 143.00v-24.00"/>
<path class="stroke" stroke-width="1"
	d="M285.20 85.00v-24.00"/>
<path class="stroke" stroke-width="1"
	d="M285.20 143.00v-24.00"/>
<path class="stroke" stroke-width="1"
	d="M379.70 85.00v-24.00"/>
<path class="stroke" stroke-width="1"
	d="M379.70 143.00v-24.00"/>
<path class="stroke" stroke-width="1"
	d="M474.10 85.00v-24.00"/>
<path class="stroke" stroke-width="1"
	d="M474.10 143.00v-24.00"/>
<path class="stroke" stroke-width="1"
	d="M597.20 85.00v-24.00"/>
<path class="stroke" stroke-width="1"
	d="M597.20 143.00v-24.00"/>
<path class="stroke" stroke-width="1"
	d="M691.60 85.00v-24.00"/>
<path class="stroke" stroke-width="1"
	d="M691.60 143.00v-24.00"/>
<path d="m10.00 85.00
	h681.60
	M10.00 79.00
	h681.60
	M10.00 73.00
	h681.60
	M10.00 67.00
	h681.60
	M10.00 61.00
	h681.60
	" class="stroke"/>
<path d="m10.00 143.00
	h681.60
	M10.00 137.00
	h681.60
	M10.00 131.00
	h681.60
	M10.00 125.00
	h681.60
	M10.00 119.00
	h681.60
	" class="stroke"/>
</g>
<g stroke-width="0.70" style="font:bold 13.00px Times">
<text x="78.10" y="56.40">V</text>
</g>
<g stroke-width="0.70" style="font:bold 13.00px Times">
<text x="174.60" y="48.40">I</text>
</g>
<g stroke-width="0.70" style="font:bold 13.00px Times">
<text x="297.70" y="48.40">I</text>
</g>
<g stroke-width="0.70" style="font:bold 13.00px Times">
<text x="388.00" y="51.40">V<tspan
	 style="font:italic 11.00px Times">²</tspan></text>
</g>
<g stroke-width="0.70" style="font:bold 13.00px Times">
<text x="484.40" y="56.40">V</text>
</g>
<g stroke-width="0.70" style="font:bold 13.00px Times">
<text x="607.50" y="51.40">V</text>
<defs>
<path id="utclef" class="fill" d="m-50 -90
	c-72 -41 -72 -158 52 -188
	150 -10 220 188 90 256
	-114 52 -275 0 -293 -136
	-15 -181 93 -229 220 -334
	88 -87 79 -133 62 -210
	-51 33 -94 105 -89 186
	17 267 36 374 49 574
	6 96 -19 134 -77 135
	-80 1 -126 -93 -61 -133
	85 -41 133 101 31 105
	23 17 92 37 90 -92
	-10 -223 -39 -342 -50 -617
	0 -90 0 -162 96 -232
	56 72 63 230 22 289
	-74 106 -257 168 -255 316
	9 153 148 185 252 133
	86 -65 29 -192 -80 -176
	-71 12 -105 67 -59 124"/>
<use id="tclef" transform="translate(0,6) scale(0.045)"
	xlink:href="#utclef"/>
</defs>
<use x="22.00" y="79.00" xlink:href="#tclef"/>
<defs>
<path id="usharp" class="fill" d="
	m136 -702
	v890
	h32
	v-890
	m128 840
	h32
	v-888
	h-32
	m-232 286
	v116
	l338 -96
	v-116
	m-338 442
	v116
	l338 -98
	v-114"/>
<use id="sh0" transform="translate(-4,5) scale(0.018)"
	xlink:href="#usharp"/>
</defs>
<use x="37.00" y="61.00" xlink:href="#sh0"/>
<use x="42.50" y="70.00" xlink:href="#sh0"/>
<use x="48.00" y="58.00" xlink:href="#sh0"/>
<g style="font:bold 16px serif"
	transform="translate(64.00,84.50) scale(1.2,1)">
	<text text-anchor="middle">4</text>
	<text y="-12" text-anchor="middle">3</text>
</g>
<defs>
<ellipse id="hd" rx="4.1" ry="2.9"
	transform="rotate(-20)" class="fill"/>
</defs>
<use x="82.00" y="85.00" xlink:href="#hd"/>
<path d="M85.50 85.00v-21.00" class="stroke"/>
<defs>
<path id="Hd" class="fill" d="m3 -1.6
	c-1 -1.8 -7 1.4 -6 3.2
	1 1.8 7 -1.4 6 -3.2
	m0.5 -0.3
	c2 3.8 -5 7.6 -7 3.8
	-2 -3.8 5 -7.6 7 -3.8"/>
</defs>
<use x="122.30" y="70.00" xlink:href="#Hd"/>
<path d="M118.80 70.00v21.00" class="stroke"/>
<use x="176.40" y="76.00" xlink:href="#hd"/>
<path d="M179.90 76.00v-21.00" class="stroke"/>
<use x="216.70" y="76.00" xlink:href="#hd"/>
<path d="M220.20 76.00v-21.00" class="stroke"/>
<use x="257.00" y="79.00" xlink:href="#hd"/>
<path d="M260.50 79.00v-21.00" class="stroke"/>
<use x="299.50" y="76.00" xlink:href="#hd"/>
<path d="M303.00 76.00v-21.00" class="stroke"/>
<use x="339.80" y="73.00" xlink:href="#Hd"/>
<path d="M343.30 73.00v-21.00" class="stroke"/>
<use x="393.90" y="79.00" xlink:href="#hd"/>
<path d="M397.40 79.00v-21.00" class="stroke"/>
<use x="434.20" y="85.00" xlink:href="#Hd"/>
<path d="M437.70 85.00v-21.00" class="stroke"/>
<use x="488.40" y="85.00" xlink:href="#hd"/>
<path d="M491.90 85.00v-21.00" class="stroke"/>
<use x="528.70" y="85.00" xlink:href="#hd"/>
<path d="M532.20 85.00v-21.00" class="stroke"/>
<use x="569.00" y="82.00" xlink:href="#hd"/>
<path d="M572.50 82.00v-21.00" class="stroke"/>
<use x="611.40" y="79.00" xlink:href="#hd"/>
<path d="M614.90 79.00v-21.00" class="stroke"/>
<use x="651.70" y="76.00" xlink:href="#Hd"/>
<path d="M655.20 76.00v-21.00" class="stroke"/>
<defs>
<path id="ubclef" class="fill" d="m-200 -87
	c124 -35 222 -78 254 -236
	43 -228 -167 -246 -192 -103
	59 -80 157 22 92 78
	-62 47 -115 -22 -106 -88
	21 -141 270 -136 274 52
	-1 175 -106 264 -322 297
	m357 -250
	c0 -36 51 -34 51 0
	0 37 -51 36 -51 0
	m-2 -129
	c0 -36 51 -34 51 0
	0 38 -51 37 -51 0"/>
<use id="bclef" transform="translate(0,18) scale(0.045)"
	xlink:href="#ubclef"/>
</defs>
<use x="22.00" y="125.00" xlink:href="#bclef"/>
<use x="37.00" y="125.00" xlink:href="#sh0"/>
<use x="42.50" y="134.00" xlink:href="#sh0"/>
<use x="48.00" y="122.00" xlink:href="#sh0"/>
<g style="font:bold 16px serif"
	transform="translate(64.00,142.50) scale(1.2,1)">
	<text text-anchor="middle">4</text>
	<text y="-12" text-anchor="middle">3</text>
</g>
<use x="82.00" y="116.00" xlink:href="#hd"/>
<path d="M78.50 116.00v31.00" class="stroke"/>
<use x="82.00" y="128.00" xlink:href="#hd"/>
<use x="82.00" y="122.00" xlink:href="#hd"/>
<use x="122.30" y="116.00" xlink:href="#Hd"/>
<path d="M118.80 116.00v31.00" class="stroke"/>
<use x="122.30" y="128.00" xlink:href="#Hd"/>
<use x="122.30" y="122.00" xlink:href="#Hd"/>
<use x="176.40" y="140.00" xlink:href="#hd"/>
<path d="M179.90 140.00v-31.00" class="stroke"/>
<use x="176.40" y="134.00" xlink:href="#hd"/>
<use x="176.40" y="128.00" xlink:href="#hd"/>
<use x="216.70" y="140.00" xlink:href="#hd"/>
<path d="M220.20 140.00v-31.00" class="stroke"/>
<use x="216.70" y="134.00" xlink:href="#hd"/>
<use x="216.70" y="128.00" xlink:href="#hd"/>
<use x="257.00" y="140.00" xlink:href="#hd"/>
<path d="M260.50 140.00v-31.00" class="stroke"/>
<use x="257.00" y="134.00" xlink:href="#hd"/>
<use x="257.00" y="128.00" xlink:href="#hd"/>
<use x="299.50" y="140.00" xlink:href="#hd"/>
<path d="M303.00 140.00v-31.00" class="stroke"/>
<use x="299.50" y="134.00" xlink:href="#hd"/>
<use x="299.50" y="128.00" xlink:href="#hd"/>
<use x="339.80" y="140.00" xlink:href="#Hd"/>
<path d="M343.30 140.00v-31.00" class="stroke"/>
<use x="339.80" y="134.00" xlink:href="#Hd"/>
<use x="339.80" y="128.00" xlink:href="#Hd"/>
<use x="393.90" y="116.00" xlink:href="#hd"/>
<path d="M390.40 116.00v31.00" class="stroke"/>
<use x="393.90" y="128.00" xlink:href="#hd"/>
<use x="393.90" y="122.00" xlink:href="#hd"/>
<use x="434.20" y="116.00" xlink:href="#Hd"/>
<path d="M430.70 116.00v31.00" class="stroke"/>
<use x="434.20" y="128.00" xlink:href="#Hd"/>
<use x="434.20" y="122.00" xlink:href="#Hd"/>
<use x="488.40" y="116.00" xlink:href="#hd"/>
<path d="M484.90 116.00v31.00" class="stroke"/>
<use x="488.40" y="128.00" xlink:href="#hd"/>
<use x="488.40" y="122.00" xlink:href="#hd"/>
<use x="528.70" y="116.00" xlink:href="#hd"/>
<path d="M525.20 116.00v31.00" class="stroke"/>
<use x="528.70" y="128.00" xlink:href="#hd"/>
<use x="528.70" y="122.00" xlink:href="#hd"/>
<use x="569.00" y="116.00" xlink:href="#hd"/>
<path d="M565.50 116.00v31.00" class="stroke"/>
<use x="569.00" y="128.00" xlink:href="#hd"/>
<use x="569.00" y="122.00" xlink:href="#hd"/>
<use x="611.40" y="116.00" xlink:href="#hd"/>
<path d="M607.90 116.00v31.00" class="stroke"/>
<use x="611.40" y="128.00" xlink:href="#hd"/>
<use x="611.40" y="122.00" xlink:href="#hd"/>
<use x="651.70" y="116.00" xlink:href="#Hd"/>
<path d="M648.20 116.00v31.00" class="stroke"/>
<use x="651.70" y="128.00" xlink:href="#Hd"/>
<use x="651.70" y="122.00" xlink:href="#Hd"/>
</g>
<g stroke-width="0.70" style="font:bold 13.00px Times">
<path class="stroke" stroke-width="1"
	d="M10.00 271.00v-82.00"/>
<g transform="translate(10.00,189.00) scale(1,0.82)">
	<use xlink:href="#brace"/>
</g>
<path class="stroke" stroke-width="1"
	d="M144.60 213.00v-24.00"/>
<path class="stroke" stroke-width="1"
	d="M144.60 271.00v-24.00"/>
<path class="stroke" stroke-width="1"
	d="M237.20 213.00v-24.00"/>
<path class="stroke" stroke-width="1"
	d="M237.20 271.00v-24.00"/>
<path class="stroke" stroke-width="1"
	d="M357.80 213.00v-24.00"/>
<path class="stroke" stroke-width="1"
	d="M357.80 271.00v-24.00"/>
<path class="stroke" stroke-width="1"
	d="M478.40 213.00v-24.00"/>
<path class="stroke" stroke-width="1"
	d="M478.40 271.00v-24.00"/>
<path class="stroke" stroke-width="1"
	d="M599.00 213.00v-24.00"/>
<path class="stroke" stroke-width="1"
	d="M599.00 271.00v-24.00"/>
<path class="stroke" stroke-width="1"
	d="M691.60 213.00v-24.00"/>
<path class="stroke" stroke-width="1"
	d="M691.60 271.00v-24.00"/>
<path d="m10.00 213.00
	h681.60
	M10.00 207.00
	h681.60
	M10.00 201.00
	h681.60
	M10.00 195.00
	h681.60
	M10.00 189.00
	h681.60
	" class="stroke"/>
<path d="m10.00 271.00
	h681.60
	M10.00 265.00
	h681.60
	M10.00 259.00
	h681.60
	M10.00 253.00
	h681.60
	M10.00 247.00
	h681.60
	" class="stroke"/>
</g>
<g stroke-width="0.70" style="font:bold 13.00px Times">
<text x="60.20" y="182.40">IV</text>
</g>
<g stroke-width="0.70" style="font:bold 13.00px Times">
<text x="154.60" y="184.40">V</text>
</g>
<g stroke-width="0.70" style="font:bold 13.00px Times">
<text x="249.40" y="182.40">I</text>
</g>
<g stroke-width="0.70" style="font:bold 13.00px Times">
<text x="370.00" y="184.40">I</text>
</g>
<g stroke-width="0.70" style="font:bold 13.00px Times">
<text x="486.50" y="184.40">V<tspan
	 style="font:italic 11.00px Times">¹</tspan></text>
</g>
<g stroke-width="0.70" style="font:bold 13.00px Times">
<text x="610.00" y="182.40">ii</text>
<use x="22.00" y="207.00" xlink:href="#tclef"/>
<use x="37.00" y="189.00" xlink:href="#sh0"/>
<use x="42.50" y="198.00" xlink:href="#sh0"/>
<use x="48.00" y="186.00" xlink:href="#sh0"/>
<use x="66.00" y="210.00" xlink:href="#hd"/>
<path d="M69.50 210.00v-21.00" class="stroke"/>
<use x="105.50" y="213.00" xlink:href="#Hd"/>
<path d="M109.00 213.00v-21.00" class="stroke"/>
<use x="158.60" y="216.00" xlink:href="#hd"/>
<path d="M162.10 216.00v-21.00" class="stroke"/>
<defs>
<path id="hl" class="stroke" d="m-6 0h12"/>
</defs>
<use x="198.10" y="219.00" xlink:href="#hl"/>
<use x="198.10" y="219.00" xlink:href="#Hd"/>
<path d="M201.60 219.00v-21.00" class="stroke"/>
<use x="251.20" y="219.00" xlink:href="#hl"/>
<use x="251.20" y="219.00" xlink:href="#hd"/>
<path d="M254.70 219.00v-21.00" class="stroke"/>
<use x="290.70" y="213.00" xlink:href="#hd"/>
<path d="M294.20 213.00v-21.00" class="stroke"/>
<use x="330.10" y="204.00" xlink:href="#hd"/>
<path d="M333.60 204.00v-21.00" class="stroke"/>
<use x="371.80" y="198.00" xlink:href="#hd"/>
<path d="M368.30 198.00v21.00" class="stroke"/>
<use x="411.30" y="201.00" xlink:href="#hd"/>
<path d="M407.80 201.00v21.00" class="stroke"/>
<use x="450.80" y="207.00" xlink:href="#hd"/>
<path d="M454.30 207.00v-21.00" class="stroke"/>
<use x="492.40" y="213.00" xlink:href="#hd"/>
<path d="M495.90 213.00v-21.00" class="stroke"/>
<use x="531.90" y="204.00" xlink:href="#hd"/>
<path d="M535.40 204.00v-21.00" class="stroke"/>
<use x="571.40" y="210.00" xlink:href="#hd"/>
<path d="M574.90 210.00v-21.00" class="stroke"/>
<use x="613.00" y="216.00" xlink:href="#hd"/>
<path d="M616.50 216.00v-21.00" class="stroke"/>
<use x="652.50" y="213.00" xlink:href="#Hd"/>
<path d="M656.00 213.00v-21.00" class="stroke"/>
<use x="22.00" y="253.00" xlink:href="#bclef"/>
<use x="37.00" y="253.00" xlink:href="#sh0"/>
<use x="42.50" y="262.00" xlink:href="#sh0"/>
<use x="48.00" y="250.00" xlink:href="#sh0"/>
<use x="66.00" y="247.00" xlink:href="#hd"/>
<path d="M62.50 247.00v31.00" class="stroke"/>
<use x="66.00" y="259.00" xlink:href="#hd"/>
<use x="66.00" y="253.00" xlink:href="#hd"/>
<use x="105.50" y="247.00" xlink:href="#Hd"/>
<path d="M102.00 247.00v31.00" class="stroke"/>
<use x="105.50" y="259.00" xlink:href="#Hd"/>
<use x="105.50" y="253.00" xlink:href="#Hd"/>
<use x="158.60" y="244.00" xlink:href="#hd"/>
<path d="M155.10 244.00v31.00" class="stroke"/>
<use x="158.60" y="256.00" xlink:href="#hd"/>
<use x="158.60" y="250.00" xlink:href="#hd"/>
<use x="198.10" y="244.00" xlink:href="#Hd"/>
<path d="M194.60 244.00v31.00" class="stroke"/>
<use x="198.10" y="256.00" xlink:href="#Hd"/>
<use x="198.10" y="250.00" xlink:href="#Hd"/>
<use x="251.20" y="268.00" xlink:href="#hd"/>
<path d="M254.70 268.00v-31.00" class="stroke"/>
<use x="251.20" y="262.00" xlink:href="#hd"/>
<use x="251.20" y="256.00" xlink:href="#hd"/>
<use x="290.70" y="268.00" xlink:href="#hd"/>
<path d="M294.20 268.00v-31.00" class="stroke"/>
<use x="290.70" y="262.00" xlink:href="#hd"/>
<use x="290.70" y="256.00" xlink:href="#hd"/>
<use x="330.10" y="268.00" xlink:href="#hd"/>
<path d="M333.60 268.00v-31.00" class="stroke"/>
<use x="330.10" y="262.00" xlink:href="#hd"/>
<use x="330.10" y="256.00" xlink:href="#hd"/>
<use x="371.80" y="268.00" xlink:href="#hd"/>
<path d="M375.30 268.00v-31.00" class="stroke"/>
<use x="371.80" y="262.00" xlink:href="#hd"/>
<use x="371.80" y="256.00" xlink:href="#hd"/>
<use x="411.30" y="268.00" xlink:href="#hd"/>
<path d="M414.80 268.00v-31.00" class="stroke"/>
<use x="411.30" y="262.00" xlink:href="#hd"/>
<use x="411.30" y="256.00" xlink:href="#hd"/>
<use x="450.80" y="268.00" xlink:href="#hd"/>
<path d="M454.30 268.00v-31.00" class="stroke"/>
<use x="450.80" y="262.00" xlink:href="#hd"/>
<use x="450.80" y="256.00" xlink:href="#hd"/>
<use x="492.40" y="244.00" xlink:href="#hd"/>
<path d="M488.90 244.00v31.00" class="stroke"/>
<use x="492.40" y="256.00" xlink:href="#hd"/>
<use x="492.40" y="250.00" xlink:href="#hd"/>
<use x="531.90" y="244.00" xlink:href="#hd"/>
<path d="M528.40 244.00v31.00" class="stroke"/>
<use x="531.90" y="256.00" xlink:href="#hd"/>
<use x="531.90" y="250.00" xlink:href="#hd"/>
<use x="571.40" y="244.00" xlink:href="#hd"/>
<path d="M567.90 244.00v31.00" class="stroke"/>
<use x="571.40" y="256.00" xlink:href="#hd"/>
<use x="571.40" y="250.00" xlink:href="#hd"/>
<use x="613.00" y="253.00" xlink:href="#hd"/>
<path d="M609.50 253.00v31.00" class="stroke"/>
<use x="613.00" y="265.00" xlink:href="#hd"/>
<use x="613.00" y="259.00" xlink:href="#hd"/>
<use x="652.50" y="253.00" xlink:href="#Hd"/>
<path d="M649.00 253.00v31.00" class="stroke"/>
<use x="652.50" y="265.00" xlink:href="#Hd"/>
<use x="652.50" y="259.00" xlink:href="#Hd"/>
</g>
<g stroke-width="0.70" style="font:bold 13.00px Times">
<path class="stroke" stroke-width="1"
	d="M10.00 401.40v-82.00"/>
<g transform="translate(10.00,319.40) scale(1,0.82)">
	<use xlink:href="#brace"/>
</g>
<path class="stroke" stroke-width="1"
	d="M143.50 343.40v-24.00"/>
<path class="stroke" stroke-width="1"
	d="M143.50 401.40v-24.00"/>
<path class="stroke" stroke-width="1"
	d="M234.90 343.40v-24.00"/>
<path class="stroke" stroke-width="1"
	d="M234.90 401.40v-24.00"/>
<path class="stroke" stroke-width="1"
	d="M326.20 343.40v-24.00"/>
<path class="stroke" stroke-width="1"
	d="M326.20 401.40v-24.00"/>
<path class="stroke" stroke-width="1"
	d="M417.60 343.40v-24.00"/>
<path class="stroke" stroke-width="1"
	d="M417.60 401.40v-24.00"/>
<path class="stroke" stroke-width="1"
	d="M508.90 343.40v-24.00"/>
<path class="stroke" stroke-width="1"
	d="M508.90 401.40v-24.00"/>
<path class="stroke" stroke-width="1"
	d="M600.30 343.40v-24.00"/>
<path class="stroke" stroke-width="1"
	d="M600.30 401.40v-24.00"/>
<path class="stroke" stroke-width="1"
	d="M691.60 343.40v-24.00"/>
<path class="stroke" stroke-width="1"
	d="M691.60 401.40v-24.00"/>
<path d="m10.00 343.40
	h681.60
	M10.00 337.40
	h681.60
	M10.00 331.40
	h681.60
	M10.00 325.40
	h681.60
	M10.00 319.40
	h681.60
	" class="stroke"/>
<path d="m10.00 401.40
	h681.60
	M10.00 395.40
	h681.60
	M10.00 389.40
	h681.60
	M10.00 383.40
	h681.60
	M10.00 377.40
	h681.60
	" class="stroke"/>
</g>
<g stroke-width="0.70" style="font:bold 13.00px Times">
<text x="61.40" y="314.80">iii</text>
</g>
<g stroke-width="0.70" style="font:bold 13.00px Times">
<text x="153.40" y="303.80">V</text>
</g>
<g stroke-width="0.70" style="font:bold 13.00px Times">
<text x="244.40" y="306.80">vi</text>
</g>
<g stroke-width="0.70" style="font:bold 13.00px Times">
<text x="337.00" y="312.80">ii</text>
</g>
<g stroke-width="0.70" style="font:bold 13.00px Times">
<text x="429.60" y="306.80">I</text>
</g>
<g stroke-width="0.70" style="font:bold 13.00px Times">
<text x="514.90" y="303.80">V<tspan
	 style="font:italic 11.00px Times">⁷³</tspan></text>
</g>
<g stroke-width="0.70" style="font:bold 13.00px Times">
<text x="612.20" y="314.80">I</text>
<use x="22.00" y="337.40" xlink:href="#tclef"/>
<use x="37.00" y="319.40" xlink:href="#sh0"/>
<use x="42.50" y="328.40" xlink:href="#sh0"/>
<use x="48.00" y="316.40" xlink:href="#sh0"/>
<use x="66.00" y="343.40" xlink:href="#hd"/>
<path d="M69.50 343.40v-21.00" class="stroke"/>
<use x="104.90" y="334.40" xlink:href="#Hd"/>
<path d="M108.40 334.40v-21.00" class="stroke"/>
<use x="157.30" y="331.40" xlink:href="#hd"/>
<path d="M160.80 331.40v-21.00" class="stroke"/>
<use x="196.30" y="328.40" xlink:href="#Hd"/>
<path d="M192.80 328.40v21.00" class="stroke"/>
<use x="248.70" y="334.40" xlink:href="#hd"/>
<path d="M252.20 334.40v-21.00" class="stroke"/>
<use x="287.60" y="337.40" xlink:href="#Hd"/>
<path d="M291.10 337.40v-21.00" class="stroke"/>
<use x="340.00" y="340.40" xlink:href="#hd"/>
<path d="M343.50 340.40v-21.00" class="stroke"/>
<use x="379.00" y="343.40" xlink:href="#Hd"/>
<path d="M382.50 343.40v-21.00" class="stroke"/>
<use x="431.40" y="334.40" xlink:href="#hd"/>
<path d="M434.90 334.40v-21.00" class="stroke"/>
<use x="470.30" y="337.40" xlink:href="#Hd"/>
<path d="M473.80 337.40v-21.00" class="stroke"/>
<use x="522.70" y="331.40" xlink:href="#hd"/>
<path d="M526.20 331.40v-21.00" class="stroke"/>
<use x="561.70" y="334.40" xlink:href="#Hd"/>
<path d="M565.20 334.40v-21.00" class="stroke"/>
<use x="614.10" y="328.40" xlink:href="#hd"/>
<path d="M610.60 328.40v21.00" class="stroke"/>
<use x="653.00" y="331.40" xlink:href="#Hd"/>
<path d="M649.50 331.40v21.00" class="stroke"/>
<use x="22.00" y="383.40" xlink:href="#bclef"/>
<use x="37.00" y="383.40" xlink:href="#sh0"/>
<use x="42.50" y="392.40" xlink:href="#sh0"/>
<use x="48.00" y="380.40" xlink:href="#sh0"/>
<use x="66.00" y="380.40" xlink:href="#hd"/>
<path d="M62.50 380.40v31.00" class="stroke"/>
<use x="66.00" y="392.40" xlink:href="#hd"/>
<use x="66.00" y="386.40" xlink:href="#hd"/>
<use x="104.90" y="380.40" xlink:href="#Hd"/>
<path d="M101.40 380.40v31.00" class="stroke"/>
<use x="104.90" y="392.40" xlink:href="#Hd"/>
<use x="104.90" y="386.40" xlink:href="#Hd"/>
<use x="157.30" y="374.40" xlink:href="#hd"/>
<path d="M153.80 374.40v31.00" class="stroke"/>
<use x="157.30" y="386.40" xlink:href="#hd"/>
<use x="157.30" y="380.40" xlink:href="#hd"/>
<use x="196.30" y="374.40" xlink:href="#Hd"/>
<path d="M192.80 374.40v31.00" class="stroke"/>
<use x="196.30" y="386.40" xlink:href="#Hd"/>
<use x="196.30" y="380.40" xlink:href="#Hd"/>
<use x="248.70" y="371.40" xlink:href="#hl"/>
<use x="248.70" y="371.40" xlink:href="#hd"/>
<path d="M245.20 371.40v31.00" class="stroke"/>
<use x="248.70" y="383.40" xlink:href="#hd"/>
<use x="248.70" y="377.40" xlink:href="#hd"/>
<use x="287.60" y="371.40" xlink:href="#hl"/>
<use x="287.60" y="371.40" xlink:href="#Hd"/>
<path d="M284.10 371.40v31.00" class="stroke"/>
<use x="287.60" y="383.40" xlink:href="#Hd"/>
<use x="287.60" y="377.40" xlink:href="#Hd"/>
<use x="340.00" y="383.40" xlink:href="#hd"/>
<path d="M336.50 383.40v31.00" class="stroke"/>
<use x="340.00" y="395.40" xlink:href="#hd"/>
<use x="340.00" y="389.40" xlink:href="#hd"/>
<use x="379.00" y="383.40" xlink:href="#Hd"/>
<path d="M375.50 383.40v31.00" class="stroke"/>
<use x="379.00" y="395.40" xlink:href="#Hd"/>
<use x="379.00" y="389.40" xlink:href="#Hd"/>
<use x="431.40" y="398.40" xlink:href="#hd"/>
<path d="M434.90 398.40v-31.00" class="stroke"/>
<use x="431.40" y="392.40" xlink:href="#hd"/>
<use x="431.40" y="386.40" xlink:href="#hd"/>
<use x="470.30" y="398.40" xlink:href="#Hd"/>
<path d="M473.80 398.40v-31.00" class="stroke"/>
<use x="470.30" y="392.40" xlink:href="#Hd"/>
<use x="470.30" y="386.40" xlink:href="#Hd"/>
<use x="522.70" y="374.40" xlink:href="#hd"/>
<path d="M519.20 374.40v31.00" class="stroke"/>
<use x="522.70" y="386.40" xlink:href="#hd"/>
<use x="522.70" y="380.40" xlink:href="#hd"/>
<use x="561.70" y="374.40" xlink:href="#Hd"/>
<path d="M558.20 374.40v31.00" class="stroke"/>
<use x="561.70" y="386.40" xlink:href="#Hd"/>
<use x="561.70" y="380.40" xlink:href="#Hd"/>
<use x="614.10" y="398.40" xlink:href="#hd"/>
<path d="M617.60 398.40v-31.00" class="stroke"/>
<use x="614.10" y="392.40" xlink:href="#hd"/>
<use x="614.10" y="386.40" xlink:href="#hd"/>
<use x="653.00" y="398.40" xlink:href="#Hd"/>
<path d="M656.50 398.40v-31.00" class="stroke"/>
<use x="653.00" y="392.40" xlink:href="#Hd"/>
<use x="653.00" y="386.40" xlink:href="#Hd"/>
</g>
<g stroke-width="0.70" style="font:bold 13.00px Times">
<path class="stroke" stroke-width="1"
	d="M10.00 529.40v-82.00"/>
<g transform="translate(10.00,447.40) scale(1,0.82)">
	<use xlink:href="#brace"/>
</g>
<path class="stroke" stroke-width="1"
	d="M148.30 471.40v-24.00"/>
<path class="stroke" stroke-width="1"
	d="M148.30 529.40v-24.00"/>
<path class="stroke" stroke-width="1"
	d="M274.60 471.40v-24.00"/>
<path class="stroke" stroke-width="1"
	d="M274.60 529.40v-24.00"/>
<path class="stroke" stroke-width="1"
	d="M400.80 471.40v-24.00"/>
<path class="stroke" stroke-width="1"
	d="M400.80 529.40v-24.00"/>
<path class="stroke" stroke-width="1"
	d="M497.70 471.40v-24.00"/>
<path class="stroke" stroke-width="1"
	d="M497.70 529.40v-24.00"/>
<path class="stroke" stroke-width="1"
	d="M594.70 471.40v-24.00"/>
<path class="stroke" stroke-width="1"
	d="M594.70 529.40v-24.00"/>
<path class="stroke" stroke-width="1"
	d="M691.60 471.40v-24.00"/>
<path class="stroke" stroke-width="1"
	d="M691.60 529.40v-24.00"/>
<path d="m10.00 471.40
	h681.60
	M10.00 465.40
	h681.60
	M10.00 459.40
	h681.60
	M10.00 453.40
	h681.60
	M10.00 447.40
	h681.60
	" class="stroke"/>
<path d="m10.00 529.40
	h681.60
	M10.00 523.40
	h681.60
	M10.00 517.40
	h681.60
	M10.00 511.40
	h681.60
	M10.00 505.40
	h681.60
	" class="stroke"/>
</g>
<g stroke-width="0.70" style="font:bold 13.00px Times">
<text x="58.20" y="442.80">V<tspan
	 style="font:italic 11.00px Times">⁷¹</tspan></text>
</g>
<g stroke-width="0.70" style="font:bold 13.00px Times">
<text x="159.00" y="442.80">V</text>
</g>
<g stroke-width="0.70" style="font:bold 13.00px Times">
<text x="283.30" y="442.80">V<tspan
	 style="font:italic 11.00px Times">²</tspan></text>
</g>
<g stroke-width="0.70" style="font:bold 13.00px Times">
<text x="411.70" y="440.80">I<tspan
	 style="font:italic 11.00px Times">²</tspan></text>
</g>
<g stroke-width="0.70" style="font:bold 13.00px Times">
<text x="508.40" y="440.80">V</text>
</g>
<g stroke-width="0.70" style="font:bold 13.00px Times">
<text x="607.50" y="441.80">I</text>
<use x="22.00" y="465.40" xlink:href="#tclef"/>
<use x="37.00" y="447.40" xlink:href="#sh0"/>
<use x="42.50" y="456.40" xlink:href="#sh0"/>
<use x="48.00" y="444.40" xlink:href="#sh0"/>
<use x="66.00" y="453.40" xlink:href="#hd"/>
<path d="M62.50 453.40v21.00" class="stroke"/>
<use x="107.30" y="456.40" xlink:href="#Hd"/>
<path d="M103.80 456.40v21.00" class="stroke"/>
<use x="162.90" y="471.40" xlink:href="#hd"/>
<path d="M166.40 471.40v-21.00" class="stroke"/>
<use x="204.30" y="453.40" xlink:href="#hd"/>
<path d="M200.80 453.40v21.00" class="stroke"/>
<use x="245.60" y="456.40" xlink:href="#hd"/>
<path d="M242.10 456.40v21.00" class="stroke"/>
<use x="289.20" y="459.40" xlink:href="#hd"/>
<path d="M285.70 459.40v21.00" class="stroke"/>
<use x="330.50" y="462.40" xlink:href="#hd"/>
<path d="M334.00 462.40v-21.00" class="stroke"/>
<use x="371.90" y="465.40" xlink:href="#hd"/>
<path d="M375.40 465.40v-21.00" class="stroke"/>
<use x="415.40" y="468.40" xlink:href="#hd"/>
<path d="M418.90 468.40v-21.00" class="stroke"/>
<use x="456.80" y="471.40" xlink:href="#Hd"/>
<path d="M460.30 471.40v-21.00" class="stroke"/>
<use x="512.40" y="471.40" xlink:href="#hd"/>
<path d="M515.90 471.40v-21.00" class="stroke"/>
<use x="553.70" y="471.40" xlink:href="#Hd"/>
<path d="M557.20 471.40v-21.00" class="stroke"/>
<use x="609.30" y="450.40" xlink:href="#hd"/>
<path d="M605.80 450.40v21.00" class="stroke"/>
<use x="650.60" y="450.40" xlink:href="#Hd"/>
<path d="M647.10 450.40v21.00" class="stroke"/>
<use x="22.00" y="511.40" xlink:href="#bclef"/>
<use x="37.00" y="511.40" xlink:href="#sh0"/>
<use x="42.50" y="520.40" xlink:href="#sh0"/>
<use x="48.00" y="508.40" xlink:href="#sh0"/>
<use x="66.00" y="502.40" xlink:href="#hd"/>
<path d="M62.50 502.40v31.00" class="stroke"/>
<use x="66.00" y="514.40" xlink:href="#hd"/>
<use x="66.00" y="508.40" xlink:href="#hd"/>
<use x="107.30" y="502.40" xlink:href="#Hd"/>
<path d="M103.80 502.40v31.00" class="stroke"/>
<use x="107.30" y="514.40" xlink:href="#Hd"/>
<use x="107.30" y="508.40" xlink:href="#Hd"/>
<use x="162.90" y="502.40" xlink:href="#hd"/>
<path d="M159.40 502.40v31.00" class="stroke"/>
<use x="162.90" y="514.40" xlink:href="#hd"/>
<use x="162.90" y="508.40" xlink:href="#hd"/>
<use x="204.30" y="502.40" xlink:href="#hd"/>
<path d="M200.80 502.40v31.00" class="stroke"/>
<use x="204.30" y="514.40" xlink:href="#hd"/>
<use x="204.30" y="508.40" xlink:href="#hd"/>
<use x="245.60" y="502.40" xlink:href="#hd"/>
<path d="M242.10 502.40v31.00" class="stroke"/>
<use x="245.60" y="514.40" xlink:href="#hd"/>
<use x="245.60" y="508.40" xlink:href="#hd"/>
<use x="289.20" y="502.40" xlink:href="#hd"/>
<path d="M285.70 502.40v31.00" class="stroke"/>
<use x="289.20" y="514.40" xlink:href="#hd"/>
<use x="289.20" y="508.40" xlink:href="#hd"/>
<use x="330.50" y="502.40" xlink:href="#hd"/>
<path d="M327.00 502.40v31.00" class="stroke"/>
<use x="330.50" y="514.40" xlink:href="#hd"/>
<use x="330.50" y="508.40" xlink:href="#hd"/>
<use x="371.90" y="502.40" xlink:href="#hd"/>
<path d="M368.40 502.40v31.00" class="stroke"/>
<use x="371.90" y="514.40" xlink:href="#hd"/>
<use x="371.90" y="508.40" xlink:href="#hd"/>
<use x="415.40" y="526.40" xlink:href="#hd"/>
<path d="M418.90 526.40v-31.00" class="stroke"/>
<use x="415.40" y="520.40" xlink:href="#hd"/>
<use x="415.40" y="514.40" xlink:href="#hd"/>
<use x="456.80" y="526.40" xlink:href="#Hd"/>
<path d="M460.30 526.40v-31.00" class="stroke"/>
<use x="456.80" y="520.40" xlink:href="#Hd"/>
<use x="456.80" y="514.40" xlink:href="#Hd"/>
<use x="512.40" y="502.40" xlink:href="#hd"/>
<path d="M508.90 502.40v31.00" class="stroke"/>
<use x="512.40" y="514.40" xlink:href="#hd"/>
<use x="512.40" y="508.40" xlink:href="#hd"/>
<use x="553.70" y="502.40" xlink:href="#Hd"/>
<path d="M550.20 502.40v31.00" class="stroke"/>
<use x="553.70" y="514.40" xlink:href="#Hd"/>
<use x="553.70" y="508.40" xlink:href="#Hd"/>
<use x="609.30" y="526.40" xlink:href="#hd"/>
<path d="M612.80 526.40v-31.00" class="stroke"/>
<use x="609.30" y="520.40" xlink:href="#hd"/>
<use x="609.30" y="514.40" xlink:href="#hd"/>
<use x="650.60" y="526.40" xlink:href="#Hd"/>
<path d="M654.10 526.40v-31.00" class="stroke"/>
<use x="650.60" y="520.40" xlink:href="#Hd"/>
<use x="650.60" y="514.40" xlink:href="#Hd"/>
</g>
<g stroke-width="0.70" style="font:bold 13.00px Times">
<path class="stroke" stroke-width="1"
	d="M10.00 657.40v-82.00"/>
<g transform="translate(10.00,575.40) scale(1,0.82)">
	<use xlink:href="#brace"/>
</g>
<path class="stroke" stroke-width="1"
	d="M169.10 599.40v-24.00"/>
<path class="stroke" stroke-width="1"
	d="M169.10 657.40v-24.00"/>
<path class="stroke" stroke-width="1"
	d="M290.50 599.40v-24.00"/>
<path class="stroke" stroke-width="1"
	d="M290.50 657.40v-24.00"/>
<path class="stroke" stroke-width="1"
	d="M448.70 599.40v-24.00"/>
<path class="stroke" stroke-width="1"
	d="M448.70 657.40v-24.00"/>
<path class="stroke" stroke-width="1"
	d="M570.20 599.40v-24.00"/>
<path class="stroke" stroke-width="1"
	d="M570.20 657.40v-24.00"/>
<path class="stroke" stroke-width="1"
	d="M691.60 599.40v-24.00"/>
<path class="stroke" stroke-width="1"
	d="M691.60 657.40v-24.00"/>
<path d="m10.00 599.40
	h681.60
	M10.00 593.40
	h681.60
	M10.00 587.40
	h681.60
	M10.00 581.40
	h681.60
	M10.00 575.40
	h681.60
	" class="stroke"/>
<path d="m10.00 657.40
	h681.60
	M10.00 651.40
	h681.60
	M10.00 645.40
	h681.60
	M10.00 639.40
	h681.60
	M10.00 633.40
	h681.60
	" class="stroke"/>
</g>
<g stroke-width="0.70" style="font:bold 13.00px Times">
<text x="64.20" y="570.80">I</text>
</g>
<g stroke-width="0.70" style="font:bold 13.00px Times">
<text x="181.50" y="569.80">V<tspan
	 style="font:italic 11.00px Times">¹</tspan></text>
</g>
<g stroke-width="0.70" style="font:bold 13.00px Times">
<text x="307.10" y="570.80">I</text>
</g>
<g stroke-width="0.70" style="font:bold 13.00px Times">
<text x="462.10" y="570.80">ii<tspan
	 style="font:italic 11.00px Times">¹</tspan></text>
</g>
<g stroke-width="0.70" style="font:bold 13.00px Times">
<text x="586.70" y="565.80">I</text>
<use x="22.00" y="593.40" xlink:href="#tclef"/>
<use x="37.00" y="575.40" xlink:href="#sh0"/>
<use x="42.50" y="584.40" xlink:href="#sh0"/>
<use x="48.00" y="572.40" xlink:href="#sh0"/>
<use x="66.00" y="584.40" xlink:href="#hd"/>
<path d="M62.50 584.40v21.00" class="stroke"/>
<use x="117.80" y="581.40" xlink:href="#Hd"/>
<path d="M114.30 581.40v21.00" class="stroke"/>
<use x="187.40" y="578.40" xlink:href="#hd"/>
<path d="M183.90 578.40v21.00" class="stroke"/>
<use x="239.20" y="584.40" xlink:href="#Hd"/>
<path d="M235.70 584.40v21.00" class="stroke"/>
<use x="308.90" y="599.40" xlink:href="#hd"/>
<path d="M312.40 599.40v-21.00" class="stroke"/>
<use x="360.70" y="596.40" xlink:href="#hd"/>
<path d="M364.20 596.40v-21.00" class="stroke"/>
<use x="412.50" y="581.40" xlink:href="#hd"/>
<path d="M409.00 581.40v21.00" class="stroke"/>
<use x="467.10" y="587.40" xlink:href="#hd"/>
<path d="M463.60 587.40v21.00" class="stroke"/>
<use x="518.90" y="590.40" xlink:href="#Hd"/>
<path d="M522.40 590.40v-21.00" class="stroke"/>
<use x="588.50" y="593.40" xlink:href="#hd"/>
<path d="M592.00 593.40v-21.00" class="stroke"/>
<use x="640.30" y="590.40" xlink:href="#Hd"/>
<path d="M643.80 590.40v-21.00" class="stroke"/>
<use x="22.00" y="639.40" xlink:href="#bclef"/>
<use x="37.00" y="639.40" xlink:href="#sh0"/>
<use x="42.50" y="648.40" xlink:href="#sh0"/>
<use x="48.00" y="636.40" xlink:href="#sh0"/>
<use x="66.00" y="654.40" xlink:href="#hd"/>
<path d="M69.50 654.40v-31.00" class="stroke"/>
<use x="66.00" y="648.40" xlink:href="#hd"/>
<use x="66.00" y="642.40" xlink:href="#hd"/>
<use x="117.80" y="654.40" xlink:href="#Hd"/>
<path d="M121.30 654.40v-31.00" class="stroke"/>
<use x="117.80" y="648.40" xlink:href="#Hd"/>
<use x="117.80" y="642.40" xlink:href="#Hd"/>
<use x="187.40" y="630.40" xlink:href="#hd"/>
<path d="M183.90 630.40v31.00" class="stroke"/>
<use x="187.40" y="642.40" xlink:href="#hd"/>
<use x="187.40" y="636.40" xlink:href="#hd"/>
<use x="239.20" y="630.40" xlink:href="#Hd"/>
<path d="M235.70 630.40v31.00" class="stroke"/>
<use x="239.20" y="642.40" xlink:href="#Hd"/>
<use x="239.20" y="636.40" xlink:href="#Hd"/>
<use x="308.90" y="654.40" xlink:href="#hd"/>
<path d="M312.40 654.40v-31.00" class="stroke"/>
<use x="308.90" y="648.40" xlink:href="#hd"/>
<use x="308.90" y="642.40" xlink:href="#hd"/>
<use x="360.70" y="654.40" xlink:href="#hd"/>
<path d="M364.20 654.40v-31.00" class="stroke"/>
<use x="360.70" y="648.40" xlink:href="#hd"/>
<use x="360.70" y="642.40" xlink:href="#hd"/>
<use x="412.50" y="654.40" xlink:href="#hd"/>
<path d="M416.00 654.40v-31.00" class="stroke"/>
<use x="412.50" y="648.40" xlink:href="#hd"/>
<use x="412.50" y="642.40" xlink:href="#hd"/>
<use x="467.10" y="651.40" xlink:href="#hd"/>
<path d="M470.60 651.40v-31.00" class="stroke"/>
<use x="467.10" y="645.40" xlink:href="#hd"/>
<use x="467.10" y="639.40" xlink:href="#hd"/>
<use x="518.90" y="651.40" xlink:href="#Hd"/>
<path d="M522.40 651.40v-31.00" class="stroke"/>
<use x="518.90" y="645.40" xlink:href="#Hd"/>
<use x="518.90" y="639.40" xlink:href="#Hd"/>
<use x="588.50" y="654.40" xlink:href="#hd"/>
<path d="M592.00 654.40v-31.00" class="stroke"/>
<use x="588.50" y="648.40" xlink:href="#hd"/>
<use x="588.50" y="642.40" xlink:href="#hd"/>
<use x="640.30" y="654.40" xlink:href="#Hd"/>
<path d="M643.80 654.40v-31.00" class="stroke"/>
<use x="640.30" y="648.40" xlink:href="#Hd"/>
<use x="640.30" y="642.40" xlink:href="#Hd"/>
</g>
</svg>
