<?xml version="1.0" standalone="no"?>
<!DOCTYPE svg PUBLIC "-//W3C//DTD SVG 1.1//EN"
	"http://www.w3.org/Graphics/SVG/1.1/DTD/svg11.dtd">
<svg xmlns="http://www.w3.org/2000/svg" version="1.1"
	xmlns:xlink="http://www.w3.org/1999/xlink"
	color="black"
	width="701.60px" height="552.40px" viewBox="0 0 701.60 552.40" preserveAspectRatio="xMidYMid meet">
<style type="text/css">
.fill {fill: currentColor}
.stroke {stroke: currentColor; fill: none}
text{white-space: pre}
</style>
<title>/tmp/retab_hymnal_L1/lord_who_at_cana_s_wedding_feast.abc (1) tune 1</title>
<!-- Creator: abcm2ps-8.14.11 -->
<!-- CreationDate: Apr 24, 2026 15:38 -->
<!-- CommandLine: /tmp/retab_hymnal_L1/lord_who_at_cana_s_wedding_feast.abc -g -O /tmp/retab_hymnal_L1/lord_who_at_cana_s_wedding_feast -->
<g stroke-width="0.70">
<!-- title: 152. Lord, Who at Cana's Wedding Feast -->
</g>
<g stroke-width="0.70" style="font:20.00px Times">
<text x="350.80" y="22.00" text-anchor="middle">152. Lord, Who at Cana&apos;s Wedding Feast</text>
</g>
<g stroke-width="0.70" style="font:20.00px Times">
<path class="stroke" stroke-width="1"
	d="M10.00 143.00v-82.00"/>
<defs>
<path id="brace" class="fill" d="m-2.5 101
	c-4.5 -4.6 -7.5 -12.2 -4.4 -26.8
	3.5 -14.3 3.2 -21.7 -2.1 -24.2
	7.4 2.4 7.3 14.2 3.5 29.5
	-2.7 9.5 -1.5 16.2 3 21.5
	M-2.5 1c-4.5 4.6 -7.5 12.2 -4.4 26.8
	c3.5 14.3 3.2 21.7 -2.1 24.2
	7.4 -2.4 7.3 -14.2 3.5 -29.5
	-2.7 -9.5 -1.5 -16.2 3 -21.5"/>
</defs>
<g transform="translate(10.00,61.00) scale(1,0.82)">
	<use xlink:href="#brace"/>
</g>
<path class="stroke" stroke-width="1"
	d="M194.30 85.00v-24.00"/>
<path class="stroke" stroke-width="1"
	d="M194.30 143.00v-24.00"/>
<path class="stroke" stroke-width="1"
	d="M335.10 85.00v-24.00"/>
<path class="stroke" stroke-width="1"
	d="M335.10 143.00v-24.00"/>
<path class="stroke" stroke-width="1"
	d="M479.40 85.00v-24.00"/>
<path class="stroke" stroke-width="1"
	d="M479.40 143.00v-24.00"/>
<path class="stroke" stroke-width="1"
	d="M555.90 85.00v-24.00"/>
<path class="stroke" stroke-width="1"
	d="M555.90 143.00v-24.00"/>
<path class="stroke" stroke-width="1"
	d="M691.60 85.00v-24.00"/>
<path class="stroke" stroke-width="1"
	d="M691.60 143.00v-24.00"/>
<path d="m10.00 85.00
	h681.60
	M10.00 79.00
	h681.60
	M10.00 73.00
	h681.60
	M10.00 67.00
	h681.60
	M10.00 61.00
	h681.60
	" class="stroke"/>
<path d="m10.00 143.00
	h681.60
	M10.00 137.00
	h681.60
	M10.00 131.00
	h681.60
	M10.00 125.00
	h681.60
	M10.00 119.00
	h681.60
	" class="stroke"/>
</g>
<g stroke-width="0.70" style="font:bold 13.00px Times">
<text x="69.20" y="56.40">I</text>
</g>
<g stroke-width="0.70" style="font:bold 13.00px Times">
<text x="201.00" y="51.40">IV</text>
</g>
<g stroke-width="0.70" style="font:bold 13.00px Times">
<text x="345.80" y="56.40">I</text>
</g>
<g stroke-width="0.70" style="font:bold 13.00px Times">
<text x="488.00" y="48.40">V</text>
</g>
<g stroke-width="0.70" style="font:bold 13.00px Times">
<text x="560.50" y="48.40">V<tspan
	 style="font:italic 11.00px Times">⁷³</tspan></text>
</g>
<g stroke-width="0.70" style="font:italic 11.00px Times">
<defs>
<path id="utclef" class="fill" d="m-50 -90
	c-72 -41 -72 -158 52 -188
	150 -10 220 188 90 256
	-114 52 -275 0 -293 -136
	-15 -181 93 -229 220 -334
	88 -87 79 -133 62 -210
	-51 33 -94 105 -89 186
	17 267 36 374 49 574
	6 96 -19 134 -77 135
	-80 1 -126 -93 -61 -133
	85 -41 133 101 31 105
	23 17 92 37 90 -92
	-10 -223 -39 -342 -50 -617
	0 -90 0 -162 96 -232
	56 72 63 230 22 289
	-74 106 -257 168 -255 316
	9 153 148 185 252 133
	86 -65 29 -192 -80 -176
	-71 12 -105 67 -59 124"/>
<use id="tclef" transform="translate(0,6) scale(0.045)"
	xlink:href="#utclef"/>
</defs>
<use x="22.00" y="79.00" xlink:href="#tclef"/>
<defs>
<path id="usharp" class="fill" d="
	m136 -702
	v890
	h32
	v-890
	m128 840
	h32
	v-888
	h-32
	m-232 286
	v116
	l338 -96
	v-116
	m-338 442
	v116
	l338 -98
	v-114"/>
<use id="sh0" transform="translate(-4,5) scale(0.018)"
	xlink:href="#usharp"/>
</defs>
<use x="37.00" y="61.00" xlink:href="#sh0"/>
<g style="font:bold 16px serif"
	transform="translate(53.00,84.50) scale(1.2,1)">
	<text text-anchor="middle">4</text>
	<text y="-12" text-anchor="middle">4</text>
</g>
<defs>
<ellipse id="hd" rx="4.1" ry="2.9"
	transform="rotate(-20)" class="fill"/>
</defs>
<use x="71.00" y="73.00" xlink:href="#hd"/>
<path d="M67.50 73.00v21.00" class="stroke"/>
<use x="105.60" y="67.00" xlink:href="#hd"/>
<circle class="fill" cx="113.30" cy="64.00" r="1.2"/>
<path d="M102.10 67.00v21.00" class="stroke"/>
<use x="145.20" y="70.00" xlink:href="#hd"/>
<path d="M141.70 70.00v21.00" class="stroke"/>
<path class="fill"
	d="M141.70 91.00c0.6 -5.6 9.6 -9 5.6 -18.4
	1.6 6 -1.3 11.6 -5.6 12.8
"/>
<use x="169.90" y="73.00" xlink:href="#hd"/>
<path d="M166.40 73.00v21.00" class="stroke"/>
<use x="206.80" y="79.00" xlink:href="#hd"/>
<path d="M210.30 79.00v-21.00" class="stroke"/>
<use x="241.40" y="73.00" xlink:href="#hd"/>
<path d="M244.90 73.00v-21.00" class="stroke"/>
<use x="276.10" y="76.00" xlink:href="#hd"/>
<path d="M279.60 76.00v-21.00" class="stroke"/>
<use x="310.70" y="79.00" xlink:href="#hd"/>
<path d="M314.20 79.00v-21.00" class="stroke"/>
<use x="347.60" y="88.00" xlink:href="#hd"/>
<path d="M351.10 88.00v-21.00" class="stroke"/>
<use x="382.20" y="85.00" xlink:href="#hd"/>
<path d="M385.70 85.00v-21.00" class="stroke"/>
<use x="416.90" y="79.00" xlink:href="#hd"/>
<path d="M420.40 79.00v-21.00" class="stroke"/>
<use x="451.50" y="79.00" xlink:href="#hd"/>
<circle class="fill" cx="459.20" cy="76.00" r="1.2"/>
<path d="M455.00 79.00v-21.00" class="stroke"/>
<use x="491.90" y="76.00" xlink:href="#hd"/>
<path d="M495.40 76.00v-21.00" class="stroke"/>
<path class="fill"
	d="M495.40 55.00c0.6 5.6 9.6 9 5.6 18.4
	1.6 -6 -1.3 -11.6 -5.6 -12.8
"/>
<defs>
<path id="Hd" class="fill" d="m3 -1.6
	c-1 -1.8 -7 1.4 -6 3.2
	1 1.8 7 -1.4 6 -3.2
	m0.5 -0.3
	c2 3.8 -5 7.6 -7 3.8
	-2 -3.8 5 -7.6 7 -3.8"/>
</defs>
<use x="516.60" y="82.00" xlink:href="#Hd"/>
<circle class="fill" cx="525.30" cy="82.00" r="1.2"/>
<path d="M520.10 82.00v-21.00" class="stroke"/>
<use x="568.40" y="76.00" xlink:href="#hd"/>
<path d="M571.90 76.00v-21.00" class="stroke"/>
<use x="603.10" y="67.00" xlink:href="#hd"/>
<circle class="fill" cx="610.80" cy="64.00" r="1.2"/>
<path d="M599.60 67.00v21.00" class="stroke"/>
<use x="642.60" y="70.00" xlink:href="#hd"/>
<path d="M639.10 70.00v21.00" class="stroke"/>
<path class="fill"
	d="M639.10 91.00c0.6 -5.6 9.6 -9 5.6 -18.4
	1.6 6 -1.3 11.6 -5.6 12.8
"/>
<use x="667.20" y="73.00" xlink:href="#hd"/>
<path d="M663.70 73.00v21.00" class="stroke"/>
<defs>
<path id="ubclef" class="fill" d="m-200 -87
	c124 -35 222 -78 254 -236
	43 -228 -167 -246 -192 -103
	59 -80 157 22 92 78
	-62 47 -115 -22 -106 -88
	21 -141 270 -136 274 52
	-1 175 -106 264 -322 297
	m357 -250
	c0 -36 51 -34 51 0
	0 37 -51 36 -51 0
	m-2 -129
	c0 -36 51 -34 51 0
	0 38 -51 37 -51 0"/>
<use id="bclef" transform="translate(0,18) scale(0.045)"
	xlink:href="#ubclef"/>
</defs>
<use x="22.00" y="125.00" xlink:href="#bclef"/>
<use x="37.00" y="125.00" xlink:href="#sh0"/>
<g style="font:bold 16px serif"
	transform="translate(53.00,142.50) scale(1.2,1)">
	<text text-anchor="middle">4</text>
	<text y="-12" text-anchor="middle">4</text>
</g>
<use x="71.00" y="143.00" xlink:href="#hd"/>
<path d="M74.50 143.00v-31.00" class="stroke"/>
<use x="71.00" y="137.00" xlink:href="#hd"/>
<use x="71.00" y="131.00" xlink:href="#hd"/>
<use x="105.60" y="143.00" xlink:href="#hd"/>
<circle class="fill" cx="113.30" cy="140.00" r="1.2"/>
<path d="M109.10 143.00v-31.00" class="stroke"/>
<use x="105.60" y="137.00" xlink:href="#hd"/>
<circle class="fill" cx="113.30" cy="134.00" r="1.2"/>
<use x="105.60" y="131.00" xlink:href="#hd"/>
<circle class="fill" cx="113.30" cy="128.00" r="1.2"/>
<use x="145.20" y="143.00" xlink:href="#hd"/>
<path d="M148.70 143.00v-31.00" class="stroke"/>
<path class="fill"
	d="M148.70 112.00c0.6 5.6 9.6 9 5.6 18.4
	1.6 -6 -1.3 -11.6 -5.6 -12.8
"/>
<use x="145.20" y="137.00" xlink:href="#hd"/>
<use x="145.20" y="131.00" xlink:href="#hd"/>
<use x="169.90" y="143.00" xlink:href="#hd"/>
<path d="M173.40 143.00v-31.00" class="stroke"/>
<use x="169.90" y="137.00" xlink:href="#hd"/>
<use x="169.90" y="131.00" xlink:href="#hd"/>
<use x="206.80" y="122.00" xlink:href="#hd"/>
<path d="M203.30 122.00v31.00" class="stroke"/>
<use x="206.80" y="134.00" xlink:href="#hd"/>
<use x="206.80" y="128.00" xlink:href="#hd"/>
<use x="241.40" y="122.00" xlink:href="#hd"/>
<path d="M237.90 122.00v31.00" class="stroke"/>
<use x="241.40" y="134.00" xlink:href="#hd"/>
<use x="241.40" y="128.00" xlink:href="#hd"/>
<use x="276.10" y="122.00" xlink:href="#hd"/>
<path d="M272.60 122.00v31.00" class="stroke"/>
<use x="276.10" y="134.00" xlink:href="#hd"/>
<use x="276.10" y="128.00" xlink:href="#hd"/>
<use x="310.70" y="122.00" xlink:href="#hd"/>
<path d="M307.20 122.00v31.00" class="stroke"/>
<use x="310.70" y="134.00" xlink:href="#hd"/>
<use x="310.70" y="128.00" xlink:href="#hd"/>
<use x="347.60" y="143.00" xlink:href="#hd"/>
<path d="M351.10 143.00v-31.00" class="stroke"/>
<use x="347.60" y="137.00" xlink:href="#hd"/>
<use x="347.60" y="131.00" xlink:href="#hd"/>
<use x="382.20" y="143.00" xlink:href="#hd"/>
<path d="M385.70 143.00v-31.00" class="stroke"/>
<use x="382.20" y="137.00" xlink:href="#hd"/>
<use x="382.20" y="131.00" xlink:href="#hd"/>
<use x="416.90" y="143.00" xlink:href="#hd"/>
<path d="M420.40 143.00v-31.00" class="stroke"/>
<use x="416.90" y="137.00" xlink:href="#hd"/>
<use x="416.90" y="131.00" xlink:href="#hd"/>
<use x="451.50" y="143.00" xlink:href="#hd"/>
<circle class="fill" cx="459.20" cy="140.00" r="1.2"/>
<path d="M455.00 143.00v-31.00" class="stroke"/>
<use x="451.50" y="137.00" xlink:href="#hd"/>
<circle class="fill" cx="459.20" cy="134.00" r="1.2"/>
<use x="451.50" y="131.00" xlink:href="#hd"/>
<circle class="fill" cx="459.20" cy="128.00" r="1.2"/>
<use x="491.90" y="119.00" xlink:href="#hd"/>
<path d="M488.40 119.00v31.00" class="stroke"/>
<path class="fill"
	d="M488.40 150.00c0.6 -5.6 9.6 -9 5.6 -18.4
	1.6 6 -1.3 11.6 -5.6 12.8
"/>
<use x="491.90" y="131.00" xlink:href="#hd"/>
<use x="491.90" y="125.00" xlink:href="#hd"/>
<use x="516.60" y="119.00" xlink:href="#Hd"/>
<circle class="fill" cx="525.30" cy="116.00" r="1.2"/>
<path d="M513.10 119.00v31.00" class="stroke"/>
<use x="516.60" y="131.00" xlink:href="#Hd"/>
<circle class="fill" cx="525.30" cy="128.00" r="1.2"/>
<use x="516.60" y="125.00" xlink:href="#Hd"/>
<circle class="fill" cx="525.30" cy="122.00" r="1.2"/>
<use x="568.40" y="119.00" xlink:href="#hd"/>
<path d="M564.90 119.00v31.00" class="stroke"/>
<use x="568.40" y="131.00" xlink:href="#hd"/>
<use x="568.40" y="125.00" xlink:href="#hd"/>
<use x="603.10" y="119.00" xlink:href="#hd"/>
<circle class="fill" cx="610.80" cy="116.00" r="1.2"/>
<path d="M599.60 119.00v31.00" class="stroke"/>
<use x="603.10" y="131.00" xlink:href="#hd"/>
<circle class="fill" cx="610.80" cy="128.00" r="1.2"/>
<use x="603.10" y="125.00" xlink:href="#hd"/>
<circle class="fill" cx="610.80" cy="122.00" r="1.2"/>
<use x="642.60" y="119.00" xlink:href="#hd"/>
<path d="M639.10 119.00v31.00" class="stroke"/>
<path class="fill"
	d="M639.10 150.00c0.6 -5.6 9.6 -9 5.6 -18.4
	1.6 6 -1.3 11.6 -5.6 12.8
"/>
<use x="642.60" y="131.00" xlink:href="#hd"/>
<use x="642.60" y="125.00" xlink:href="#hd"/>
<use x="667.20" y="119.00" xlink:href="#hd"/>
<path d="M663.70 119.00v31.00" class="stroke"/>
<use x="667.20" y="131.00" xlink:href="#hd"/>
<use x="667.20" y="125.00" xlink:href="#hd"/>
</g>
<g stroke-width="0.70" style="font:italic 11.00px Times">
<path class="stroke" stroke-width="1"
	d="M10.00 273.40v-82.00"/>
<g transform="translate(10.00,191.40) scale(1,0.82)">
	<use xlink:href="#brace"/>
</g>
<path class="stroke" stroke-width="1"
	d="M194.20 215.40v-24.00"/>
<path class="stroke" stroke-width="1"
	d="M194.20 273.40v-24.00"/>
<path class="stroke" stroke-width="1"
	d="M340.10 215.40v-24.00"/>
<path class="stroke" stroke-width="1"
	d="M340.10 273.40v-24.00"/>
<path class="stroke" stroke-width="1"
	d="M417.30 215.40v-24.00"/>
<path class="stroke" stroke-width="1"
	d="M417.30 273.40v-24.00"/>
<path class="stroke" stroke-width="1"
	d="M554.40 215.40v-24.00"/>
<path class="stroke" stroke-width="1"
	d="M554.40 273.40v-24.00"/>
<path class="stroke" stroke-width="1"
	d="M691.60 215.40v-24.00"/>
<path class="stroke" stroke-width="1"
	d="M691.60 273.40v-24.00"/>
<path d="m10.00 215.40
	h681.60
	M10.00 209.40
	h681.60
	M10.00 203.40
	h681.60
	M10.00 197.40
	h681.60
	M10.00 191.40
	h681.60
	" class="stroke"/>
<path d="m10.00 273.40
	h681.60
	M10.00 267.40
	h681.60
	M10.00 261.40
	h681.60
	M10.00 255.40
	h681.60
	M10.00 249.40
	h681.60
	" class="stroke"/>
</g>
<g stroke-width="0.70" style="font:bold 13.00px Times">
<text x="49.20" y="185.80">IV</text>
</g>
<g stroke-width="0.70" style="font:bold 13.00px Times">
<text x="202.20" y="175.80">iii</text>
</g>
<g stroke-width="0.70" style="font:bold 13.00px Times">
<text x="350.80" y="184.80">I</text>
</g>
<g stroke-width="0.70" style="font:bold 13.00px Times">
<text x="428.00" y="186.80">I</text>
</g>
<g stroke-width="0.70" style="font:bold 13.00px Times">
<text x="565.20" y="186.80">I</text>
<use x="22.00" y="209.40" xlink:href="#tclef"/>
<use x="37.00" y="191.40" xlink:href="#sh0"/>
<use x="55.00" y="194.40" xlink:href="#hd"/>
<path d="M51.50 194.40v21.00" class="stroke"/>
<path class="fill"
	d="M51.50 215.40c0.6 -5.6 9.6 -9 5.6 -18.4
	1.6 6 -1.3 11.6 -5.6 12.8
"/>
<use x="79.80" y="197.40" xlink:href="#hd"/>
<path d="M76.30 197.40v21.00" class="stroke"/>
<path class="fill"
	d="M76.30 218.40c0.6 -5.6 9.6 -9 5.6 -18.4
	1.6 6 -1.3 11.6 -5.6 12.8
"/>
<use x="104.70" y="200.40" xlink:href="#hd"/>
<circle class="fill" cx="112.40" cy="200.40" r="1.2"/>
<path d="M101.20 200.40v21.00" class="stroke"/>
<use x="144.70" y="203.40" xlink:href="#hd"/>
<path d="M141.20 203.40v21.00" class="stroke"/>
<path class="fill"
	d="M141.20 224.40c0.6 -5.6 9.6 -9 5.6 -18.4
	1.6 6 -1.3 11.6 -5.6 12.8
"/>
<use x="169.60" y="206.40" xlink:href="#hd"/>
<path d="M173.10 206.40v-21.00" class="stroke"/>
<use x="206.70" y="203.40" xlink:href="#hd"/>
<path d="M210.20 203.40v-21.00" class="stroke"/>
<use x="241.80" y="209.40" xlink:href="#hd"/>
<path d="M245.30 209.40v-21.00" class="stroke"/>
<use x="276.90" y="203.40" xlink:href="#hd"/>
<path d="M280.40 203.40v-21.00" class="stroke"/>
<use x="312.00" y="197.40" xlink:href="#hd"/>
<circle class="fill" cx="319.70" cy="194.40" r="1.2"/>
<path d="M308.50 197.40v21.00" class="stroke"/>
<use x="352.70" y="200.40" xlink:href="#hd"/>
<path d="M349.20 200.40v21.00" class="stroke"/>
<path class="fill"
	d="M349.20 221.40c0.6 -5.6 9.6 -9 5.6 -18.4
	1.6 6 -1.3 11.6 -5.6 12.8
"/>
<use x="377.60" y="203.40" xlink:href="#Hd"/>
<circle class="fill" cx="386.30" cy="200.40" r="1.2"/>
<path d="M374.10 203.40v21.00" class="stroke"/>
<use x="429.80" y="197.40" xlink:href="#hd"/>
<path d="M426.30 197.40v21.00" class="stroke"/>
<use x="464.90" y="197.40" xlink:href="#hd"/>
<circle class="fill" cx="472.60" cy="194.40" r="1.2"/>
<path d="M461.40 197.40v21.00" class="stroke"/>
<use x="504.90" y="197.40" xlink:href="#hd"/>
<path d="M501.40 197.40v21.00" class="stroke"/>
<path class="fill"
	d="M501.40 218.40c0.6 -5.6 9.6 -9 5.6 -18.4
	1.6 6 -1.3 11.6 -5.6 12.8
"/>
<use x="529.80" y="194.40" xlink:href="#hd"/>
<path d="M526.30 194.40v21.00" class="stroke"/>
<use x="567.00" y="197.40" xlink:href="#hd"/>
<path d="M563.50 197.40v21.00" class="stroke"/>
<use x="602.00" y="197.40" xlink:href="#hd"/>
<circle class="fill" cx="609.70" cy="194.40" r="1.2"/>
<path d="M598.50 197.40v21.00" class="stroke"/>
<use x="642.00" y="200.40" xlink:href="#hd"/>
<path d="M638.50 200.40v21.00" class="stroke"/>
<path class="fill"
	d="M638.50 221.40c0.6 -5.6 9.6 -9 5.6 -18.4
	1.6 6 -1.3 11.6 -5.6 12.8
"/>
<use x="667.00" y="203.40" xlink:href="#hd"/>
<path d="M663.50 203.40v21.00" class="stroke"/>
<use x="22.00" y="255.40" xlink:href="#bclef"/>
<use x="37.00" y="255.40" xlink:href="#sh0"/>
<use x="55.00" y="252.40" xlink:href="#hd"/>
<path d="M51.50 252.40v31.00" class="stroke"/>
<path class="fill"
	d="M51.50 283.40c0.6 -5.6 9.6 -9 5.6 -18.4
	1.6 6 -1.3 11.6 -5.6 12.8
"/>
<use x="55.00" y="264.40" xlink:href="#hd"/>
<use x="55.00" y="258.40" xlink:href="#hd"/>
<use x="79.80" y="252.40" xlink:href="#hd"/>
<path d="M76.30 252.40v31.00" class="stroke"/>
<path class="fill"
	d="M76.30 283.40c0.6 -5.6 9.6 -9 5.6 -18.4
	1.6 6 -1.3 11.6 -5.6 12.8
"/>
<use x="79.80" y="264.40" xlink:href="#hd"/>
<use x="79.80" y="258.40" xlink:href="#hd"/>
<use x="104.70" y="252.40" xlink:href="#hd"/>
<circle class="fill" cx="112.40" cy="252.40" r="1.2"/>
<path d="M101.20 252.40v31.00" class="stroke"/>
<use x="104.70" y="264.40" xlink:href="#hd"/>
<circle class="fill" cx="112.40" cy="264.40" r="1.2"/>
<use x="104.70" y="258.40" xlink:href="#hd"/>
<circle class="fill" cx="112.40" cy="258.40" r="1.2"/>
<use x="144.70" y="252.40" xlink:href="#hd"/>
<path d="M141.20 252.40v31.00" class="stroke"/>
<path class="fill"
	d="M141.20 283.40c0.6 -5.6 9.6 -9 5.6 -18.4
	1.6 6 -1.3 11.6 -5.6 12.8
"/>
<use x="144.70" y="264.40" xlink:href="#hd"/>
<use x="144.70" y="258.40" xlink:href="#hd"/>
<use x="169.60" y="252.40" xlink:href="#hd"/>
<path d="M166.10 252.40v31.00" class="stroke"/>
<use x="169.60" y="264.40" xlink:href="#hd"/>
<use x="169.60" y="258.40" xlink:href="#hd"/>
<use x="206.70" y="255.40" xlink:href="#hd"/>
<path d="M203.20 255.40v31.00" class="stroke"/>
<use x="206.70" y="267.40" xlink:href="#hd"/>
<use x="206.70" y="261.40" xlink:href="#hd"/>
<use x="241.80" y="255.40" xlink:href="#hd"/>
<path d="M238.30 255.40v31.00" class="stroke"/>
<use x="241.80" y="267.40" xlink:href="#hd"/>
<use x="241.80" y="261.40" xlink:href="#hd"/>
<use x="276.90" y="255.40" xlink:href="#hd"/>
<path d="M273.40 255.40v31.00" class="stroke"/>
<use x="276.90" y="267.40" xlink:href="#hd"/>
<use x="276.90" y="261.40" xlink:href="#hd"/>
<use x="312.00" y="255.40" xlink:href="#hd"/>
<circle class="fill" cx="319.70" cy="252.40" r="1.2"/>
<path d="M308.50 255.40v31.00" class="stroke"/>
<use x="312.00" y="267.40" xlink:href="#hd"/>
<circle class="fill" cx="319.70" cy="264.40" r="1.2"/>
<use x="312.00" y="261.40" xlink:href="#hd"/>
<circle class="fill" cx="319.70" cy="258.40" r="1.2"/>
<use x="352.70" y="273.40" xlink:href="#hd"/>
<path d="M356.20 273.40v-31.00" class="stroke"/>
<path class="fill"
	d="M356.20 242.40c0.6 5.6 9.6 9 5.6 18.4
	1.6 -6 -1.3 -11.6 -5.6 -12.8
"/>
<use x="352.70" y="267.40" xlink:href="#hd"/>
<use x="352.70" y="261.40" xlink:href="#hd"/>
<use x="377.60" y="273.40" xlink:href="#Hd"/>
<circle class="fill" cx="386.30" cy="270.40" r="1.2"/>
<path d="M381.10 273.40v-31.00" class="stroke"/>
<use x="377.60" y="267.40" xlink:href="#Hd"/>
<circle class="fill" cx="386.30" cy="264.40" r="1.2"/>
<use x="377.60" y="261.40" xlink:href="#Hd"/>
<circle class="fill" cx="386.30" cy="258.40" r="1.2"/>
<use x="429.80" y="273.40" xlink:href="#hd"/>
<path d="M433.30 273.40v-31.00" class="stroke"/>
<use x="429.80" y="267.40" xlink:href="#hd"/>
<use x="429.80" y="261.40" xlink:href="#hd"/>
<use x="464.90" y="273.40" xlink:href="#hd"/>
<circle class="fill" cx="472.60" cy="270.40" r="1.2"/>
<path d="M468.40 273.40v-31.00" class="stroke"/>
<use x="464.90" y="267.40" xlink:href="#hd"/>
<circle class="fill" cx="472.60" cy="264.40" r="1.2"/>
<use x="464.90" y="261.40" xlink:href="#hd"/>
<circle class="fill" cx="472.60" cy="258.40" r="1.2"/>
<use x="504.90" y="273.40" xlink:href="#hd"/>
<path d="M508.40 273.40v-31.00" class="stroke"/>
<path class="fill"
	d="M508.40 242.40c0.6 5.6 9.6 9 5.6 18.4
	1.6 -6 -1.3 -11.6 -5.6 -12.8
"/>
<use x="504.90" y="267.40" xlink:href="#hd"/>
<use x="504.90" y="261.40" xlink:href="#hd"/>
<use x="529.80" y="273.40" xlink:href="#hd"/>
<path d="M533.30 273.40v-31.00" class="stroke"/>
<use x="529.80" y="267.40" xlink:href="#hd"/>
<use x="529.80" y="261.40" xlink:href="#hd"/>
<use x="567.00" y="273.40" xlink:href="#hd"/>
<path d="M570.50 273.40v-31.00" class="stroke"/>
<use x="567.00" y="267.40" xlink:href="#hd"/>
<use x="567.00" y="261.40" xlink:href="#hd"/>
<use x="602.00" y="273.40" xlink:href="#hd"/>
<circle class="fill" cx="609.70" cy="270.40" r="1.2"/>
<path d="M605.50 273.40v-31.00" class="stroke"/>
<use x="602.00" y="267.40" xlink:href="#hd"/>
<circle class="fill" cx="609.70" cy="264.40" r="1.2"/>
<use x="602.00" y="261.40" xlink:href="#hd"/>
<circle class="fill" cx="609.70" cy="258.40" r="1.2"/>
<use x="642.00" y="273.40" xlink:href="#hd"/>
<path d="M645.50 273.40v-31.00" class="stroke"/>
<path class="fill"
	d="M645.50 242.40c0.6 5.6 9.6 9 5.6 18.4
	1.6 -6 -1.3 -11.6 -5.6 -12.8
"/>
<use x="642.00" y="267.40" xlink:href="#hd"/>
<use x="642.00" y="261.40" xlink:href="#hd"/>
<use x="667.00" y="273.40" xlink:href="#hd"/>
<path d="M670.50 273.40v-31.00" class="stroke"/>
<use x="667.00" y="267.40" xlink:href="#hd"/>
<use x="667.00" y="261.40" xlink:href="#hd"/>
</g>
<g stroke-width="0.70" style="font:bold 13.00px Times">
<path class="stroke" stroke-width="1"
	d="M10.00 401.40v-82.00"/>
<g transform="translate(10.00,319.40) scale(1,0.82)">
	<use xlink:href="#brace"/>
</g>
<path class="stroke" stroke-width="1"
	d="M181.20 343.40v-24.00"/>
<path class="stroke" stroke-width="1"
	d="M181.20 401.40v-24.00"/>
<path class="stroke" stroke-width="1"
	d="M269.60 343.40v-24.00"/>
<path class="stroke" stroke-width="1"
	d="M269.60 401.40v-24.00"/>
<path class="stroke" stroke-width="1"
	d="M408.50 343.40v-24.00"/>
<path class="stroke" stroke-width="1"
	d="M408.50 401.40v-24.00"/>
<path class="stroke" stroke-width="1"
	d="M552.70 343.40v-24.00"/>
<path class="stroke" stroke-width="1"
	d="M552.70 401.40v-24.00"/>
<path class="stroke" stroke-width="1"
	d="M691.60 343.40v-24.00"/>
<path class="stroke" stroke-width="1"
	d="M691.60 401.40v-24.00"/>
<path d="m10.00 343.40
	h681.60
	M10.00 337.40
	h681.60
	M10.00 331.40
	h681.60
	M10.00 325.40
	h681.60
	M10.00 319.40
	h681.60
	" class="stroke"/>
<path d="m10.00 401.40
	h681.60
	M10.00 395.40
	h681.60
	M10.00 389.40
	h681.60
	M10.00 383.40
	h681.60
	M10.00 377.40
	h681.60
	" class="stroke"/>
</g>
<g stroke-width="0.70" style="font:bold 13.00px Times">
<text x="53.20" y="314.80">I</text>
</g>
<g stroke-width="0.70" style="font:bold 13.00px Times">
<text x="186.20" y="313.80">IV<tspan
	 style="font:italic 11.00px Times">²</tspan></text>
</g>
<g stroke-width="0.70" style="font:bold 13.00px Times">
<text x="277.30" y="306.80">ii<tspan
	 style="font:italic 11.00px Times">¹</tspan></text>
</g>
<g stroke-width="0.70" style="font:bold 13.00px Times">
<text x="417.00" y="312.80">vi</text>
</g>
<g stroke-width="0.70" style="font:bold 13.00px Times">
<text x="559.50" y="306.80">V<tspan
	 style="font:italic 11.00px Times">⁷</tspan></text>
</g>
<g stroke-width="0.70" style="font:italic 11.00px Times">
<use x="22.00" y="337.40" xlink:href="#tclef"/>
<use x="37.00" y="319.40" xlink:href="#sh0"/>
<use x="55.00" y="331.40" xlink:href="#hd"/>
<path d="M51.50 331.40v21.00" class="stroke"/>
<use x="90.50" y="337.40" xlink:href="#hd"/>
<circle class="fill" cx="98.20" cy="334.40" r="1.2"/>
<path d="M94.00 337.40v-21.00" class="stroke"/>
<use x="131.00" y="337.40" xlink:href="#hd"/>
<path d="M134.50 337.40v-21.00" class="stroke"/>
<path class="fill"
	d="M134.50 316.40c0.6 5.6 9.6 9 5.6 18.4
	1.6 -6 -1.3 -11.6 -5.6 -12.8
"/>
<use x="156.30" y="328.40" xlink:href="#hd"/>
<path d="M152.80 328.40v21.00" class="stroke"/>
<use x="193.90" y="322.40" xlink:href="#hd"/>
<path d="M190.40 322.40v21.00" class="stroke"/>
<use x="229.40" y="334.40" xlink:href="#Hd"/>
<circle class="fill" cx="238.10" cy="334.40" r="1.2"/>
<path d="M232.90 334.40v-21.00" class="stroke"/>
<use x="282.30" y="334.40" xlink:href="#hd"/>
<path d="M285.80 334.40v-21.00" class="stroke"/>
<use x="317.80" y="325.40" xlink:href="#hd"/>
<circle class="fill" cx="325.50" cy="322.40" r="1.2"/>
<path d="M314.30 325.40v21.00" class="stroke"/>
<use x="358.40" y="325.40" xlink:href="#hd"/>
<path d="M354.90 325.40v21.00" class="stroke"/>
<path class="fill"
	d="M354.90 346.40c0.6 -5.6 9.6 -9 5.6 -18.4
	1.6 6 -1.3 11.6 -5.6 12.8
"/>
<use x="383.60" y="322.40" xlink:href="#hd"/>
<path d="M380.10 322.40v21.00" class="stroke"/>
<use x="421.20" y="325.40" xlink:href="#hd"/>
<path d="M417.70 325.40v21.00" class="stroke"/>
<use x="456.70" y="328.40" xlink:href="#hd"/>
<path d="M453.20 328.40v21.00" class="stroke"/>
<use x="492.30" y="325.40" xlink:href="#hd"/>
<path d="M488.80 325.40v21.00" class="stroke"/>
<use x="527.80" y="331.40" xlink:href="#hd"/>
<path d="M524.30 331.40v21.00" class="stroke"/>
<use x="565.40" y="334.40" xlink:href="#hd"/>
<path d="M568.90 334.40v-21.00" class="stroke"/>
<use x="600.90" y="337.40" xlink:href="#hd"/>
<circle class="fill" cx="608.60" cy="334.40" r="1.2"/>
<path d="M604.40 337.40v-21.00" class="stroke"/>
<use x="641.40" y="337.40" xlink:href="#hd"/>
<path d="M644.90 337.40v-21.00" class="stroke"/>
<path class="fill"
	d="M644.90 316.40c0.6 5.6 9.6 9 5.6 18.4
	1.6 -6 -1.3 -11.6 -5.6 -12.8
"/>
<use x="666.70" y="337.40" xlink:href="#hd"/>
<path d="M670.20 337.40v-21.00" class="stroke"/>
<use x="22.00" y="383.40" xlink:href="#bclef"/>
<use x="37.00" y="383.40" xlink:href="#sh0"/>
<use x="55.00" y="401.40" xlink:href="#hd"/>
<path d="M58.50 401.40v-31.00" class="stroke"/>
<use x="55.00" y="395.40" xlink:href="#hd"/>
<use x="55.00" y="389.40" xlink:href="#hd"/>
<use x="90.50" y="401.40" xlink:href="#hd"/>
<circle class="fill" cx="98.20" cy="398.40" r="1.2"/>
<path d="M94.00 401.40v-31.00" class="stroke"/>
<use x="90.50" y="395.40" xlink:href="#hd"/>
<circle class="fill" cx="98.20" cy="392.40" r="1.2"/>
<use x="90.50" y="389.40" xlink:href="#hd"/>
<circle class="fill" cx="98.20" cy="386.40" r="1.2"/>
<use x="131.00" y="401.40" xlink:href="#hd"/>
<path d="M134.50 401.40v-31.00" class="stroke"/>
<path class="fill"
	d="M134.50 370.40c0.6 5.6 9.6 9 5.6 18.4
	1.6 -6 -1.3 -11.6 -5.6 -12.8
"/>
<use x="131.00" y="395.40" xlink:href="#hd"/>
<use x="131.00" y="389.40" xlink:href="#hd"/>
<use x="156.30" y="401.40" xlink:href="#hd"/>
<path d="M159.80 401.40v-31.00" class="stroke"/>
<use x="156.30" y="395.40" xlink:href="#hd"/>
<use x="156.30" y="389.40" xlink:href="#hd"/>
<use x="193.90" y="380.40" xlink:href="#hd"/>
<path d="M190.40 380.40v31.00" class="stroke"/>
<use x="193.90" y="392.40" xlink:href="#hd"/>
<use x="193.90" y="386.40" xlink:href="#hd"/>
<use x="229.40" y="380.40" xlink:href="#Hd"/>
<circle class="fill" cx="238.10" cy="380.40" r="1.2"/>
<path d="M225.90 380.40v31.00" class="stroke"/>
<use x="229.40" y="392.40" xlink:href="#Hd"/>
<circle class="fill" cx="238.10" cy="392.40" r="1.2"/>
<use x="229.40" y="386.40" xlink:href="#Hd"/>
<circle class="fill" cx="238.10" cy="386.40" r="1.2"/>
<use x="282.30" y="398.40" xlink:href="#hd"/>
<path d="M285.80 398.40v-31.00" class="stroke"/>
<use x="282.30" y="392.40" xlink:href="#hd"/>
<use x="282.30" y="386.40" xlink:href="#hd"/>
<use x="317.80" y="398.40" xlink:href="#hd"/>
<circle class="fill" cx="325.50" cy="398.40" r="1.2"/>
<path d="M321.30 398.40v-31.00" class="stroke"/>
<use x="317.80" y="392.40" xlink:href="#hd"/>
<circle class="fill" cx="325.50" cy="392.40" r="1.2"/>
<use x="317.80" y="386.40" xlink:href="#hd"/>
<circle class="fill" cx="325.50" cy="386.40" r="1.2"/>
<use x="358.40" y="398.40" xlink:href="#hd"/>
<path d="M361.90 398.40v-31.00" class="stroke"/>
<path class="fill"
	d="M361.90 367.40c0.6 5.6 9.6 9 5.6 18.4
	1.6 -6 -1.3 -11.6 -5.6 -12.8
"/>
<use x="358.40" y="392.40" xlink:href="#hd"/>
<use x="358.40" y="386.40" xlink:href="#hd"/>
<use x="383.60" y="398.40" xlink:href="#hd"/>
<path d="M387.10 398.40v-31.00" class="stroke"/>
<use x="383.60" y="392.40" xlink:href="#hd"/>
<use x="383.60" y="386.40" xlink:href="#hd"/>
<use x="421.20" y="374.40" xlink:href="#hd"/>
<path d="M417.70 374.40v31.00" class="stroke"/>
<use x="421.20" y="386.40" xlink:href="#hd"/>
<use x="421.20" y="380.40" xlink:href="#hd"/>
<use x="456.70" y="374.40" xlink:href="#hd"/>
<path d="M453.20 374.40v31.00" class="stroke"/>
<use x="456.70" y="386.40" xlink:href="#hd"/>
<use x="456.70" y="380.40" xlink:href="#hd"/>
<use x="492.30" y="374.40" xlink:href="#hd"/>
<path d="M488.80 374.40v31.00" class="stroke"/>
<use x="492.30" y="386.40" xlink:href="#hd"/>
<use x="492.30" y="380.40" xlink:href="#hd"/>
<use x="527.80" y="374.40" xlink:href="#hd"/>
<path d="M524.30 374.40v31.00" class="stroke"/>
<use x="527.80" y="386.40" xlink:href="#hd"/>
<use x="527.80" y="380.40" xlink:href="#hd"/>
<use x="565.40" y="377.40" xlink:href="#hd"/>
<path d="M561.90 377.40v31.00" class="stroke"/>
<use x="565.40" y="389.40" xlink:href="#hd"/>
<use x="565.40" y="383.40" xlink:href="#hd"/>
<use x="600.90" y="377.40" xlink:href="#hd"/>
<circle class="fill" cx="608.60" cy="374.40" r="1.2"/>
<path d="M597.40 377.40v31.00" class="stroke"/>
<use x="600.90" y="389.40" xlink:href="#hd"/>
<circle class="fill" cx="608.60" cy="386.40" r="1.2"/>
<use x="600.90" y="383.40" xlink:href="#hd"/>
<circle class="fill" cx="608.60" cy="380.40" r="1.2"/>
<use x="641.40" y="377.40" xlink:href="#hd"/>
<path d="M637.90 377.40v31.00" class="stroke"/>
<path class="fill"
	d="M637.90 408.40c0.6 -5.6 9.6 -9 5.6 -18.4
	1.6 6 -1.3 11.6 -5.6 12.8
"/>
<use x="641.40" y="389.40" xlink:href="#hd"/>
<use x="641.40" y="383.40" xlink:href="#hd"/>
<use x="666.70" y="377.40" xlink:href="#hd"/>
<path d="M663.20 377.40v31.00" class="stroke"/>
<use x="666.70" y="389.40" xlink:href="#hd"/>
<use x="666.70" y="383.40" xlink:href="#hd"/>
</g>
<g stroke-width="0.70" style="font:italic 11.00px Times">
<path class="stroke" stroke-width="1"
	d="M10.00 529.40v-82.00"/>
<g transform="translate(10.00,447.40) scale(1,0.82)">
	<use xlink:href="#brace"/>
</g>
<path class="stroke" stroke-width="1"
	d="M140.10 471.40v-24.00"/>
<path class="stroke" stroke-width="1"
	d="M140.10 529.40v-24.00"/>
<path d="m10.00 471.40
	h130.10
	M10.00 465.40
	h130.10
	M10.00 459.40
	h130.10
	M10.00 453.40
	h130.10
	M10.00 447.40
	h130.10
	" class="stroke"/>
<path d="m10.00 529.40
	h130.10
	M10.00 523.40
	h130.10
	M10.00 517.40
	h130.10
	M10.00 511.40
	h130.10
	M10.00 505.40
	h130.10
	" class="stroke"/>
</g>
<g stroke-width="0.70" style="font:bold 13.00px Times">
<text x="53.20" y="440.80">I</text>
<use x="22.00" y="465.40" xlink:href="#tclef"/>
<use x="37.00" y="447.40" xlink:href="#sh0"/>
<use x="55.00" y="468.40" xlink:href="#hd"/>
<path d="M58.50 468.40v-21.00" class="stroke"/>
<use x="95.00" y="465.40" xlink:href="#Hd"/>
<circle class="fill" cx="103.70" cy="462.40" r="1.2"/>
<path d="M98.50 465.40v-21.00" class="stroke"/>
<use x="22.00" y="511.40" xlink:href="#bclef"/>
<use x="37.00" y="511.40" xlink:href="#sh0"/>
<use x="55.00" y="529.40" xlink:href="#hd"/>
<path d="M58.50 529.40v-31.00" class="stroke"/>
<use x="55.00" y="523.40" xlink:href="#hd"/>
<use x="55.00" y="517.40" xlink:href="#hd"/>
<use x="95.00" y="529.40" xlink:href="#Hd"/>
<circle class="fill" cx="103.70" cy="526.40" r="1.2"/>
<path d="M98.50 529.40v-31.00" class="stroke"/>
<use x="95.00" y="523.40" xlink:href="#Hd"/>
<circle class="fill" cx="103.70" cy="520.40" r="1.2"/>
<use x="95.00" y="517.40" xlink:href="#Hd"/>
<circle class="fill" cx="103.70" cy="514.40" r="1.2"/>
</g>
</svg>
