<?xml version="1.0" standalone="no"?>
<!DOCTYPE svg PUBLIC "-//W3C//DTD SVG 1.1//EN"
	"http://www.w3.org/Graphics/SVG/1.1/DTD/svg11.dtd">
<svg xmlns="http://www.w3.org/2000/svg" version="1.1"
	xmlns:xlink="http://www.w3.org/1999/xlink"
	color="black"
	width="701.60px" height="424.40px" viewBox="0 0 701.60 424.40" preserveAspectRatio="xMidYMid meet">
<style type="text/css">
.fill {fill: currentColor}
.stroke {stroke: currentColor; fill: none}
text{white-space: pre}
</style>
<title>/tmp/retab_hymnal_L1/magnificat.abc (1) tune 1</title>
<!-- Creator: abcm2ps-8.14.11 -->
<!-- CreationDate: Apr 24, 2026 15:38 -->
<!-- CommandLine: /tmp/retab_hymnal_L1/magnificat.abc -g -O /tmp/retab_hymnal_L1/magnificat -->
<g stroke-width="0.70">
<!-- title: 153. Magnificat -->
</g>
<g stroke-width="0.70" style="font:20.00px Times">
<text x="350.80" y="22.00" text-anchor="middle">153. Magnificat</text>
</g>
<g stroke-width="0.70" style="font:20.00px Times">
<path class="stroke" stroke-width="1"
	d="M10.00 143.00v-82.00"/>
<defs>
<path id="brace" class="fill" d="m-2.5 101
	c-4.5 -4.6 -7.5 -12.2 -4.4 -26.8
	3.5 -14.3 3.2 -21.7 -2.1 -24.2
	7.4 2.4 7.3 14.2 3.5 29.5
	-2.7 9.5 -1.5 16.2 3 21.5
	M-2.5 1c-4.5 4.6 -7.5 12.2 -4.4 26.8
	c3.5 14.3 3.2 21.7 -2.1 24.2
	7.4 -2.4 7.3 -14.2 3.5 -29.5
	-2.7 -9.5 -1.5 -16.2 3 -21.5"/>
</defs>
<g transform="translate(10.00,61.00) scale(1,0.82)">
	<use xlink:href="#brace"/>
</g>
<path class="stroke" stroke-width="1"
	d="M207.80 85.00v-24.00"/>
<path class="stroke" stroke-width="1"
	d="M207.80 143.00v-24.00"/>
<path class="stroke" stroke-width="1"
	d="M303.20 85.00v-24.00"/>
<path class="stroke" stroke-width="1"
	d="M303.20 143.00v-24.00"/>
<path class="stroke" stroke-width="1"
	d="M421.10 85.00v-24.00"/>
<path class="stroke" stroke-width="1"
	d="M421.10 143.00v-24.00"/>
<path class="stroke" stroke-width="1"
	d="M478.30 85.00v-24.00"/>
<path class="stroke" stroke-width="1"
	d="M478.30 143.00v-24.00"/>
<path class="stroke" stroke-width="1"
	d="M596.30 85.00v-24.00"/>
<path class="stroke" stroke-width="1"
	d="M596.30 143.00v-24.00"/>
<path class="stroke" stroke-width="1"
	d="M691.60 85.00v-24.00"/>
<path class="stroke" stroke-width="1"
	d="M691.60 143.00v-24.00"/>
<path d="m10.00 85.00
	h681.60
	M10.00 79.00
	h681.60
	M10.00 73.00
	h681.60
	M10.00 67.00
	h681.60
	M10.00 61.00
	h681.60
	" class="stroke"/>
<path d="m10.00 143.00
	h681.60
	M10.00 137.00
	h681.60
	M10.00 131.00
	h681.60
	M10.00 125.00
	h681.60
	M10.00 119.00
	h681.60
	" class="stroke"/>
</g>
<g stroke-width="0.70" style="font:bold 13.00px Times">
<text x="86.00" y="54.40">i</text>
</g>
<g stroke-width="0.70" style="font:bold 13.00px Times">
<text x="219.70" y="56.40">I</text>
</g>
<g stroke-width="0.70" style="font:bold 13.00px Times">
<text x="311.00" y="48.40">V<tspan
	 style="font:italic 11.00px Times">¹</tspan></text>
</g>
<g stroke-width="0.70" style="font:bold 13.00px Times">
<text x="430.80" y="56.40">V</text>
</g>
<g stroke-width="0.70" style="font:bold 13.00px Times">
<text x="486.60" y="56.40">III</text>
</g>
<g stroke-width="0.70" style="font:bold 13.00px Times">
<text x="608.50" y="56.40">i</text>
<defs>
<path id="utclef" class="fill" d="m-50 -90
	c-72 -41 -72 -158 52 -188
	150 -10 220 188 90 256
	-114 52 -275 0 -293 -136
	-15 -181 93 -229 220 -334
	88 -87 79 -133 62 -210
	-51 33 -94 105 -89 186
	17 267 36 374 49 574
	6 96 -19 134 -77 135
	-80 1 -126 -93 -61 -133
	85 -41 133 101 31 105
	23 17 92 37 90 -92
	-10 -223 -39 -342 -50 -617
	0 -90 0 -162 96 -232
	56 72 63 230 22 289
	-74 106 -257 168 -255 316
	9 153 148 185 252 133
	86 -65 29 -192 -80 -176
	-71 12 -105 67 -59 124"/>
<use id="tclef" transform="translate(0,6) scale(0.045)"
	xlink:href="#utclef"/>
</defs>
<use x="22.00" y="79.00" xlink:href="#tclef"/>
<defs>
<path id="uflat" class="fill" d="
	m100 -746
	h32
	v734
	l-32 4
	m32 -332
	c46 -72 152 -90 208 -20
	100 110 -120 326 -208 348
	m0 -28
	c54 0 200 -206 130 -290
	-50 -60 -130 -4 -130 34"/>
<use id="ft0" transform="translate(-3.5,3.5) scale(0.018)"
	xlink:href="#uflat"/>
</defs>
<use x="37.00" y="73.00" xlink:href="#ft0"/>
<use x="42.50" y="64.00" xlink:href="#ft0"/>
<use x="48.00" y="76.00" xlink:href="#ft0"/>
<use x="53.50" y="67.00" xlink:href="#ft0"/>
<g style="font:bold 16px serif"
	transform="translate(69.50,84.50) scale(1.2,1)">
	<text text-anchor="middle">4</text>
	<text y="-12" text-anchor="middle">3</text>
</g>
<defs>
<ellipse id="hd" rx="4.1" ry="2.9"
	transform="rotate(-20)" class="fill"/>
</defs>
<use x="87.50" y="82.00" xlink:href="#hd"/>
<path d="M91.00 82.00v-21.00" class="stroke"/>
<use x="126.10" y="82.00" xlink:href="#hd"/>
<path d="M129.60 82.00v-21.00" class="stroke"/>
<path class="fill"
	d="M129.60 61.00c0.6 5.6 9.6 9 5.6 18.4
	1.6 -6 -1.3 -11.6 -5.6 -12.8
"/>
<use x="153.40" y="85.00" xlink:href="#hd"/>
<path d="M156.90 85.00v-21.00" class="stroke"/>
<path class="fill"
	d="M156.90 64.00c0.6 5.6 9.6 9 5.6 18.4
	1.6 -6 -1.3 -11.6 -5.6 -12.8
"/>
<use x="180.80" y="88.00" xlink:href="#hd"/>
<path d="M184.30 88.00v-21.00" class="stroke"/>
<defs>
<path id="hl" class="stroke" d="m-6 0h12"/>
</defs>
<use x="221.50" y="91.00" xlink:href="#hl"/>
<defs>
<path id="Hd" class="fill" d="m3 -1.6
	c-1 -1.8 -7 1.4 -6 3.2
	1 1.8 7 -1.4 6 -3.2
	m0.5 -0.3
	c2 3.8 -5 7.6 -7 3.8
	-2 -3.8 5 -7.6 7 -3.8"/>
</defs>
<use x="221.50" y="91.00" xlink:href="#Hd"/>
<path d="M225.00 91.00v-21.00" class="stroke"/>
<use x="276.10" y="79.00" xlink:href="#hd"/>
<path d="M279.60 79.00v-21.00" class="stroke"/>
<use x="316.90" y="76.00" xlink:href="#hd"/>
<path d="M320.40 76.00v-21.00" class="stroke"/>
<use x="355.40" y="79.00" xlink:href="#hd"/>
<path d="M358.90 79.00v-21.00" class="stroke"/>
<use x="394.00" y="82.00" xlink:href="#hd"/>
<path d="M397.50 82.00v-21.00" class="stroke"/>
<use x="434.80" y="85.00" xlink:href="#Hd"/>
<circle class="fill" cx="443.50" cy="82.00" r="1.2"/>
<path d="M438.30 85.00v-21.00" class="stroke"/>
<use x="492.00" y="70.00" xlink:href="#hd"/>
<path d="M488.50 70.00v21.00" class="stroke"/>
<use x="530.60" y="70.00" xlink:href="#hd"/>
<path d="M527.10 70.00v21.00" class="stroke"/>
<use x="569.20" y="70.00" xlink:href="#hd"/>
<path d="M565.70 70.00v21.00" class="stroke"/>
<use x="610.00" y="73.00" xlink:href="#Hd"/>
<path d="M606.50 73.00v21.00" class="stroke"/>
<use x="664.60" y="76.00" xlink:href="#hd"/>
<path d="M668.10 76.00v-21.00" class="stroke"/>
<defs>
<path id="ubclef" class="fill" d="m-200 -87
	c124 -35 222 -78 254 -236
	43 -228 -167 -246 -192 -103
	59 -80 157 22 92 78
	-62 47 -115 -22 -106 -88
	21 -141 270 -136 274 52
	-1 175 -106 264 -322 297
	m357 -250
	c0 -36 51 -34 51 0
	0 37 -51 36 -51 0
	m-2 -129
	c0 -36 51 -34 51 0
	0 38 -51 37 -51 0"/>
<use id="bclef" transform="translate(0,18) scale(0.045)"
	xlink:href="#ubclef"/>
</defs>
<use x="22.00" y="125.00" xlink:href="#bclef"/>
<use x="37.00" y="137.00" xlink:href="#ft0"/>
<use x="42.50" y="128.00" xlink:href="#ft0"/>
<use x="48.00" y="140.00" xlink:href="#ft0"/>
<use x="53.50" y="131.00" xlink:href="#ft0"/>
<g style="font:bold 16px serif"
	transform="translate(69.50,142.50) scale(1.2,1)">
	<text text-anchor="middle">4</text>
	<text y="-12" text-anchor="middle">3</text>
</g>
<use x="87.50" y="113.00" xlink:href="#hl"/>
<use x="87.50" y="113.00" xlink:href="#hd"/>
<path d="M84.00 113.00v31.00" class="stroke"/>
<use x="87.50" y="125.00" xlink:href="#hd"/>
<use x="87.50" y="119.00" xlink:href="#hd"/>
<use x="126.10" y="113.00" xlink:href="#hl"/>
<use x="126.10" y="113.00" xlink:href="#hd"/>
<path d="M122.60 113.00v31.00" class="stroke"/>
<path class="fill"
	d="M122.60 144.00c0.6 -5.6 9.6 -9 5.6 -18.4
	1.6 6 -1.3 11.6 -5.6 12.8
"/>
<use x="126.10" y="125.00" xlink:href="#hd"/>
<use x="126.10" y="119.00" xlink:href="#hd"/>
<use x="153.40" y="113.00" xlink:href="#hl"/>
<use x="153.40" y="113.00" xlink:href="#hd"/>
<path d="M149.90 113.00v31.00" class="stroke"/>
<path class="fill"
	d="M149.90 144.00c0.6 -5.6 9.6 -9 5.6 -18.4
	1.6 6 -1.3 11.6 -5.6 12.8
"/>
<use x="153.40" y="125.00" xlink:href="#hd"/>
<use x="153.40" y="119.00" xlink:href="#hd"/>
<use x="180.80" y="113.00" xlink:href="#hl"/>
<use x="180.80" y="113.00" xlink:href="#hd"/>
<path d="M177.30 113.00v31.00" class="stroke"/>
<use x="180.80" y="125.00" xlink:href="#hd"/>
<use x="180.80" y="119.00" xlink:href="#hd"/>
<use x="221.50" y="140.00" xlink:href="#Hd"/>
<path d="M225.00 140.00v-31.00" class="stroke"/>
<use x="221.50" y="134.00" xlink:href="#Hd"/>
<use x="221.50" y="128.00" xlink:href="#Hd"/>
<use x="276.10" y="140.00" xlink:href="#hd"/>
<path d="M279.60 140.00v-31.00" class="stroke"/>
<use x="276.10" y="134.00" xlink:href="#hd"/>
<use x="276.10" y="128.00" xlink:href="#hd"/>
<use x="316.90" y="122.00" xlink:href="#hd"/>
<path d="M313.40 122.00v31.00" class="stroke"/>
<use x="316.90" y="134.00" xlink:href="#hd"/>
<use x="316.90" y="128.00" xlink:href="#hd"/>
<use x="355.40" y="122.00" xlink:href="#hd"/>
<path d="M351.90 122.00v31.00" class="stroke"/>
<use x="355.40" y="134.00" xlink:href="#hd"/>
<use x="355.40" y="128.00" xlink:href="#hd"/>
<use x="394.00" y="122.00" xlink:href="#hd"/>
<path d="M390.50 122.00v31.00" class="stroke"/>
<use x="394.00" y="134.00" xlink:href="#hd"/>
<use x="394.00" y="128.00" xlink:href="#hd"/>
<use x="434.80" y="122.00" xlink:href="#Hd"/>
<circle class="fill" cx="443.50" cy="122.00" r="1.2"/>
<path d="M431.30 122.00v31.00" class="stroke"/>
<use x="434.80" y="134.00" xlink:href="#Hd"/>
<circle class="fill" cx="443.50" cy="134.00" r="1.2"/>
<use x="434.80" y="128.00" xlink:href="#Hd"/>
<circle class="fill" cx="443.50" cy="128.00" r="1.2"/>
<use x="492.00" y="140.00" xlink:href="#hd"/>
<path d="M495.50 140.00v-31.00" class="stroke"/>
<use x="492.00" y="134.00" xlink:href="#hd"/>
<use x="492.00" y="128.00" xlink:href="#hd"/>
<use x="530.60" y="140.00" xlink:href="#hd"/>
<path d="M534.10 140.00v-31.00" class="stroke"/>
<use x="530.60" y="134.00" xlink:href="#hd"/>
<use x="530.60" y="128.00" xlink:href="#hd"/>
<use x="569.20" y="140.00" xlink:href="#hd"/>
<path d="M572.70 140.00v-31.00" class="stroke"/>
<use x="569.20" y="134.00" xlink:href="#hd"/>
<use x="569.20" y="128.00" xlink:href="#hd"/>
<use x="610.00" y="113.00" xlink:href="#hl"/>
<use x="610.00" y="113.00" xlink:href="#Hd"/>
<path d="M606.50 113.00v31.00" class="stroke"/>
<use x="610.00" y="125.00" xlink:href="#Hd"/>
<use x="610.00" y="119.00" xlink:href="#Hd"/>
<use x="664.60" y="113.00" xlink:href="#hl"/>
<use x="664.60" y="113.00" xlink:href="#hd"/>
<path d="M661.10 113.00v31.00" class="stroke"/>
<use x="664.60" y="125.00" xlink:href="#hd"/>
<use x="664.60" y="119.00" xlink:href="#hd"/>
</g>
<g stroke-width="0.70" style="font:bold 13.00px Times">
<path class="stroke" stroke-width="1"
	d="M10.00 273.40v-82.00"/>
<g transform="translate(10.00,191.40) scale(1,0.82)">
	<use xlink:href="#brace"/>
</g>
<path class="stroke" stroke-width="1"
	d="M156.50 215.40v-24.00"/>
<path class="stroke" stroke-width="1"
	d="M156.50 273.40v-24.00"/>
<path class="stroke" stroke-width="1"
	d="M219.80 215.40v-24.00"/>
<path class="stroke" stroke-width="1"
	d="M219.80 273.40v-24.00"/>
<path class="stroke" stroke-width="1"
	d="M350.20 215.40v-24.00"/>
<path class="stroke" stroke-width="1"
	d="M350.20 273.40v-24.00"/>
<path class="stroke" stroke-width="1"
	d="M455.70 215.40v-24.00"/>
<path class="stroke" stroke-width="1"
	d="M455.70 273.40v-24.00"/>
<path class="stroke" stroke-width="1"
	d="M586.10 215.40v-24.00"/>
<path class="stroke" stroke-width="1"
	d="M586.10 273.40v-24.00"/>
<path class="stroke" stroke-width="1"
	d="M691.60 215.40v-24.00"/>
<path class="stroke" stroke-width="1"
	d="M691.60 273.40v-24.00"/>
<path d="m10.00 215.40
	h681.60
	M10.00 209.40
	h681.60
	M10.00 203.40
	h681.60
	M10.00 197.40
	h681.60
	M10.00 191.40
	h681.60
	" class="stroke"/>
<path d="m10.00 273.40
	h681.60
	M10.00 267.40
	h681.60
	M10.00 261.40
	h681.60
	M10.00 255.40
	h681.60
	M10.00 249.40
	h681.60
	" class="stroke"/>
</g>
<g stroke-width="0.70" style="font:bold 13.00px Times">
<text x="65.30" y="175.80">iv<tspan
	 style="font:italic 11.00px Times">¹</tspan></text>
</g>
<g stroke-width="0.70" style="font:bold 13.00px Times">
<text x="166.20" y="178.80">III</text>
</g>
<g stroke-width="0.70" style="font:bold 13.00px Times">
<text x="233.10" y="185.80">I</text>
</g>
<g stroke-width="0.70" style="font:bold 13.00px Times">
<text x="363.50" y="186.80">I</text>
</g>
<g stroke-width="0.70" style="font:bold 13.00px Times">
<text x="469.00" y="186.80">I</text>
</g>
<g stroke-width="0.70" style="font:bold 13.00px Times">
<text x="597.30" y="181.80">V</text>
<use x="22.00" y="209.40" xlink:href="#tclef"/>
<use x="37.00" y="203.40" xlink:href="#ft0"/>
<use x="42.50" y="194.40" xlink:href="#ft0"/>
<use x="48.00" y="206.40" xlink:href="#ft0"/>
<use x="53.50" y="197.40" xlink:href="#ft0"/>
<use x="71.50" y="203.40" xlink:href="#hd"/>
<path d="M75.00 203.40v-21.00" class="stroke"/>
<use x="114.20" y="209.40" xlink:href="#Hd"/>
<path d="M117.70 209.40v-21.00" class="stroke"/>
<use x="171.60" y="206.40" xlink:href="#Hd"/>
<circle class="fill" cx="180.30" cy="206.40" r="1.2"/>
<path d="M175.10 206.40v-21.00" class="stroke"/>
<use x="234.90" y="194.40" xlink:href="#hd"/>
<path d="M231.40 194.40v21.00" class="stroke"/>
<use x="277.60" y="194.40" xlink:href="#hd"/>
<path d="M274.10 194.40v21.00" class="stroke"/>
<use x="320.30" y="197.40" xlink:href="#hd"/>
<path d="M316.80 197.40v21.00" class="stroke"/>
<use x="365.30" y="200.40" xlink:href="#Hd"/>
<path d="M361.80 200.40v21.00" class="stroke"/>
<use x="425.80" y="200.40" xlink:href="#hd"/>
<path d="M422.30 200.40v21.00" class="stroke"/>
<use x="470.80" y="200.40" xlink:href="#hd"/>
<path d="M467.30 200.40v21.00" class="stroke"/>
<use x="513.50" y="203.40" xlink:href="#hd"/>
<path d="M510.00 203.40v21.00" class="stroke"/>
<use x="556.20" y="206.40" xlink:href="#hd"/>
<path d="M559.70 206.40v-21.00" class="stroke"/>
<use x="601.30" y="209.40" xlink:href="#Hd"/>
<path d="M604.80 209.40v-21.00" class="stroke"/>
<use x="661.70" y="209.40" xlink:href="#hd"/>
<path d="M665.20 209.40v-21.00" class="stroke"/>
<use x="22.00" y="255.40" xlink:href="#bclef"/>
<use x="37.00" y="267.40" xlink:href="#ft0"/>
<use x="42.50" y="258.40" xlink:href="#ft0"/>
<use x="48.00" y="270.40" xlink:href="#ft0"/>
<use x="53.50" y="261.40" xlink:href="#ft0"/>
<use x="71.50" y="255.40" xlink:href="#hd"/>
<path d="M68.00 255.40v31.00" class="stroke"/>
<use x="71.50" y="267.40" xlink:href="#hd"/>
<use x="71.50" y="261.40" xlink:href="#hd"/>
<use x="114.20" y="255.40" xlink:href="#Hd"/>
<path d="M110.70 255.40v31.00" class="stroke"/>
<use x="114.20" y="267.40" xlink:href="#Hd"/>
<use x="114.20" y="261.40" xlink:href="#Hd"/>
<use x="171.60" y="270.40" xlink:href="#Hd"/>
<circle class="fill" cx="180.30" cy="270.40" r="1.2"/>
<path d="M175.10 270.40v-31.00" class="stroke"/>
<use x="171.60" y="264.40" xlink:href="#Hd"/>
<circle class="fill" cx="180.30" cy="264.40" r="1.2"/>
<use x="171.60" y="258.40" xlink:href="#Hd"/>
<circle class="fill" cx="180.30" cy="258.40" r="1.2"/>
<use x="234.90" y="270.40" xlink:href="#hd"/>
<path d="M238.40 270.40v-31.00" class="stroke"/>
<use x="234.90" y="264.40" xlink:href="#hd"/>
<use x="234.90" y="258.40" xlink:href="#hd"/>
<use x="277.60" y="270.40" xlink:href="#hd"/>
<path d="M281.10 270.40v-31.00" class="stroke"/>
<use x="277.60" y="264.40" xlink:href="#hd"/>
<use x="277.60" y="258.40" xlink:href="#hd"/>
<use x="320.30" y="270.40" xlink:href="#hd"/>
<path d="M323.80 270.40v-31.00" class="stroke"/>
<use x="320.30" y="264.40" xlink:href="#hd"/>
<use x="320.30" y="258.40" xlink:href="#hd"/>
<use x="365.30" y="270.40" xlink:href="#Hd"/>
<path d="M368.80 270.40v-31.00" class="stroke"/>
<use x="365.30" y="264.40" xlink:href="#Hd"/>
<use x="365.30" y="258.40" xlink:href="#Hd"/>
<use x="425.80" y="270.40" xlink:href="#hd"/>
<path d="M429.30 270.40v-31.00" class="stroke"/>
<use x="425.80" y="264.40" xlink:href="#hd"/>
<use x="425.80" y="258.40" xlink:href="#hd"/>
<use x="470.80" y="270.40" xlink:href="#hd"/>
<path d="M474.30 270.40v-31.00" class="stroke"/>
<use x="470.80" y="264.40" xlink:href="#hd"/>
<use x="470.80" y="258.40" xlink:href="#hd"/>
<use x="513.50" y="270.40" xlink:href="#hd"/>
<path d="M517.00 270.40v-31.00" class="stroke"/>
<use x="513.50" y="264.40" xlink:href="#hd"/>
<use x="513.50" y="258.40" xlink:href="#hd"/>
<use x="556.20" y="270.40" xlink:href="#hd"/>
<path d="M559.70 270.40v-31.00" class="stroke"/>
<use x="556.20" y="264.40" xlink:href="#hd"/>
<use x="556.20" y="258.40" xlink:href="#hd"/>
<use x="601.30" y="252.40" xlink:href="#Hd"/>
<path d="M597.80 252.40v31.00" class="stroke"/>
<use x="601.30" y="264.40" xlink:href="#Hd"/>
<use x="601.30" y="258.40" xlink:href="#Hd"/>
<use x="661.70" y="252.40" xlink:href="#hd"/>
<path d="M658.20 252.40v31.00" class="stroke"/>
<use x="661.70" y="264.40" xlink:href="#hd"/>
<use x="661.70" y="258.40" xlink:href="#hd"/>
</g>
<g stroke-width="0.70" style="font:bold 13.00px Times">
<path class="stroke" stroke-width="1"
	d="M10.00 401.40v-82.00"/>
<g transform="translate(10.00,319.40) scale(1,0.82)">
	<use xlink:href="#brace"/>
</g>
<path class="stroke" stroke-width="1"
	d="M187.20 343.40v-24.00"/>
<path class="stroke" stroke-width="1"
	d="M187.20 401.40v-24.00"/>
<path class="stroke" stroke-width="1"
	d="M293.00 343.40v-24.00"/>
<path class="stroke" stroke-width="1"
	d="M293.00 401.40v-24.00"/>
<path class="stroke" stroke-width="1"
	d="M420.30 343.40v-24.00"/>
<path class="stroke" stroke-width="1"
	d="M420.30 401.40v-24.00"/>
<path class="stroke" stroke-width="1"
	d="M483.80 343.40v-24.00"/>
<path class="stroke" stroke-width="1"
	d="M483.80 401.40v-24.00"/>
<path d="m10.00 343.40
	h473.80
	M10.00 337.40
	h473.80
	M10.00 331.40
	h473.80
	M10.00 325.40
	h473.80
	M10.00 319.40
	h473.80
	" class="stroke"/>
<path d="m10.00 401.40
	h473.80
	M10.00 395.40
	h473.80
	M10.00 389.40
	h473.80
	M10.00 383.40
	h473.80
	M10.00 377.40
	h473.80
	" class="stroke"/>
</g>
<g stroke-width="0.70" style="font:bold 13.00px Times">
<text x="65.60" y="306.80">V<tspan
	 style="font:italic 11.00px Times">¹</tspan></text>
</g>
<g stroke-width="0.70" style="font:bold 13.00px Times">
<text x="198.40" y="314.80">V</text>
</g>
<g stroke-width="0.70" style="font:bold 13.00px Times">
<text x="304.70" y="306.80">i<tspan
	 style="font:italic 11.00px Times">²</tspan></text>
</g>
<g stroke-width="0.70" style="font:bold 13.00px Times">
<text x="434.00" y="312.80">i</text>
<use x="22.00" y="337.40" xlink:href="#tclef"/>
<use x="37.00" y="331.40" xlink:href="#ft0"/>
<use x="42.50" y="322.40" xlink:href="#ft0"/>
<use x="48.00" y="334.40" xlink:href="#ft0"/>
<use x="53.50" y="325.40" xlink:href="#ft0"/>
<use x="71.50" y="334.40" xlink:href="#hd"/>
<path d="M75.00 334.40v-21.00" class="stroke"/>
<use x="114.40" y="337.40" xlink:href="#hd"/>
<path d="M117.90 337.40v-21.00" class="stroke"/>
<use x="157.20" y="340.40" xlink:href="#hd"/>
<path d="M160.70 340.40v-21.00" class="stroke"/>
<use x="202.40" y="343.40" xlink:href="#Hd"/>
<path d="M205.90 343.40v-21.00" class="stroke"/>
<use x="263.00" y="328.40" xlink:href="#hd"/>
<path d="M259.50 328.40v21.00" class="stroke"/>
<use x="308.10" y="334.40" xlink:href="#Hd"/>
<path d="M311.60 334.40v-21.00" class="stroke"/>
<use x="368.80" y="337.40" xlink:href="#hd"/>
<path d="M372.30 337.40v-21.00" class="stroke"/>
<path class="fill"
	d="M372.30 316.40c0.6 5.6 9.6 9 5.6 18.4
	1.6 -6 -1.3 -11.6 -5.6 -12.8
"/>
<use x="399.10" y="340.40" xlink:href="#hd"/>
<path d="M402.60 340.40v-21.00" class="stroke"/>
<path class="fill"
	d="M402.60 319.40c0.6 5.6 9.6 9 5.6 18.4
	1.6 -6 -1.3 -11.6 -5.6 -12.8
"/>
<use x="435.50" y="340.40" xlink:href="#Hd"/>
<circle class="fill" cx="444.20" cy="340.40" r="1.2"/>
<path d="M439.00 340.40v-21.00" class="stroke"/>
<use x="22.00" y="383.40" xlink:href="#bclef"/>
<use x="37.00" y="395.40" xlink:href="#ft0"/>
<use x="42.50" y="386.40" xlink:href="#ft0"/>
<use x="48.00" y="398.40" xlink:href="#ft0"/>
<use x="53.50" y="389.40" xlink:href="#ft0"/>
<use x="71.50" y="380.40" xlink:href="#hd"/>
<path d="M68.00 380.40v31.00" class="stroke"/>
<use x="71.50" y="392.40" xlink:href="#hd"/>
<use x="71.50" y="386.40" xlink:href="#hd"/>
<use x="114.40" y="380.40" xlink:href="#hd"/>
<path d="M110.90 380.40v31.00" class="stroke"/>
<use x="114.40" y="392.40" xlink:href="#hd"/>
<use x="114.40" y="386.40" xlink:href="#hd"/>
<use x="157.20" y="380.40" xlink:href="#hd"/>
<path d="M153.70 380.40v31.00" class="stroke"/>
<use x="157.20" y="392.40" xlink:href="#hd"/>
<use x="157.20" y="386.40" xlink:href="#hd"/>
<use x="202.40" y="380.40" xlink:href="#Hd"/>
<path d="M198.90 380.40v31.00" class="stroke"/>
<use x="202.40" y="392.40" xlink:href="#Hd"/>
<use x="202.40" y="386.40" xlink:href="#Hd"/>
<use x="263.00" y="380.40" xlink:href="#hd"/>
<path d="M259.50 380.40v31.00" class="stroke"/>
<use x="263.00" y="392.40" xlink:href="#hd"/>
<use x="263.00" y="386.40" xlink:href="#hd"/>
<use x="308.10" y="371.40" xlink:href="#hl"/>
<use x="308.10" y="371.40" xlink:href="#Hd"/>
<path d="M304.60 371.40v31.00" class="stroke"/>
<use x="308.10" y="383.40" xlink:href="#Hd"/>
<use x="308.10" y="377.40" xlink:href="#Hd"/>
<use x="368.80" y="371.40" xlink:href="#hl"/>
<use x="368.80" y="371.40" xlink:href="#hd"/>
<path d="M365.30 371.40v31.00" class="stroke"/>
<path class="fill"
	d="M365.30 402.40c0.6 -5.6 9.6 -9 5.6 -18.4
	1.6 6 -1.3 11.6 -5.6 12.8
"/>
<use x="368.80" y="383.40" xlink:href="#hd"/>
<use x="368.80" y="377.40" xlink:href="#hd"/>
<use x="399.10" y="371.40" xlink:href="#hl"/>
<use x="399.10" y="371.40" xlink:href="#hd"/>
<path d="M395.60 371.40v31.00" class="stroke"/>
<path class="fill"
	d="M395.60 402.40c0.6 -5.6 9.6 -9 5.6 -18.4
	1.6 6 -1.3 11.6 -5.6 12.8
"/>
<use x="399.10" y="383.40" xlink:href="#hd"/>
<use x="399.10" y="377.40" xlink:href="#hd"/>
<use x="435.50" y="371.40" xlink:href="#hl"/>
<use x="435.50" y="371.40" xlink:href="#Hd"/>
<circle class="fill" cx="444.20" cy="368.40" r="1.2"/>
<path d="M432.00 371.40v31.00" class="stroke"/>
<use x="435.50" y="383.40" xlink:href="#Hd"/>
<circle class="fill" cx="444.20" cy="380.40" r="1.2"/>
<use x="435.50" y="377.40" xlink:href="#Hd"/>
<circle class="fill" cx="444.20" cy="374.40" r="1.2"/>
</g>
</svg>
