<?xml version="1.0" standalone="no"?>
<!DOCTYPE svg PUBLIC "-//W3C//DTD SVG 1.1//EN"
	"http://www.w3.org/Graphics/SVG/1.1/DTD/svg11.dtd">
<svg xmlns="http://www.w3.org/2000/svg" version="1.1"
	xmlns:xlink="http://www.w3.org/1999/xlink"
	color="black"
	width="701.60px" height="422.00px" viewBox="0 0 701.60 422.00" preserveAspectRatio="xMidYMid meet">
<style type="text/css">
.fill {fill: currentColor}
.stroke {stroke: currentColor; fill: none}
text{white-space: pre}
</style>
<title>/tmp/retab_hymnal_L1/my_faith_looks_up_to_thee.abc (1) tune 1</title>
<!-- Creator: abcm2ps-8.14.11 -->
<!-- CreationDate: Apr 24, 2026 15:38 -->
<!-- CommandLine: /tmp/retab_hymnal_L1/my_faith_looks_up_to_thee.abc -g -O /tmp/retab_hymnal_L1/my_faith_looks_up_to_thee -->
<g stroke-width="0.70">
<!-- title: 156. My Faith Looks Up To Thee -->
</g>
<g stroke-width="0.70" style="font:20.00px Times">
<text x="350.80" y="22.00" text-anchor="middle">156. My Faith Looks Up To Thee</text>
</g>
<g stroke-width="0.70" style="font:20.00px Times">
<path class="stroke" stroke-width="1"
	d="M10.00 143.00v-82.00"/>
<defs>
<path id="brace" class="fill" d="m-2.5 101
	c-4.5 -4.6 -7.5 -12.2 -4.4 -26.8
	3.5 -14.3 3.2 -21.7 -2.1 -24.2
	7.4 2.4 7.3 14.2 3.5 29.5
	-2.7 9.5 -1.5 16.2 3 21.5
	M-2.5 1c-4.5 4.6 -7.5 12.2 -4.4 26.8
	c3.5 14.3 3.2 21.7 -2.1 24.2
	7.4 -2.4 7.3 -14.2 3.5 -29.5
	-2.7 -9.5 -1.5 -16.2 3 -21.5"/>
</defs>
<g transform="translate(10.00,61.00) scale(1,0.82)">
	<use xlink:href="#brace"/>
</g>
<path class="stroke" stroke-width="1"
	d="M181.10 85.00v-24.00"/>
<path class="stroke" stroke-width="1"
	d="M181.10 143.00v-24.00"/>
<path class="stroke" stroke-width="1"
	d="M288.90 85.00v-24.00"/>
<path class="stroke" stroke-width="1"
	d="M288.90 143.00v-24.00"/>
<path class="stroke" stroke-width="1"
	d="M405.90 85.00v-24.00"/>
<path class="stroke" stroke-width="1"
	d="M405.90 143.00v-24.00"/>
<path class="stroke" stroke-width="1"
	d="M513.70 85.00v-24.00"/>
<path class="stroke" stroke-width="1"
	d="M513.70 143.00v-24.00"/>
<path class="stroke" stroke-width="1"
	d="M630.80 85.00v-24.00"/>
<path class="stroke" stroke-width="1"
	d="M630.80 143.00v-24.00"/>
<path class="stroke" stroke-width="1"
	d="M691.60 85.00v-24.00"/>
<path class="stroke" stroke-width="1"
	d="M691.60 143.00v-24.00"/>
<path d="m10.00 85.00
	h681.60
	M10.00 79.00
	h681.60
	M10.00 73.00
	h681.60
	M10.00 67.00
	h681.60
	M10.00 61.00
	h681.60
	" class="stroke"/>
<path d="m10.00 143.00
	h681.60
	M10.00 137.00
	h681.60
	M10.00 131.00
	h681.60
	M10.00 125.00
	h681.60
	M10.00 119.00
	h681.60
	" class="stroke"/>
</g>
<g stroke-width="0.70" style="font:bold 13.00px Times">
<text x="75.20" y="56.40">I</text>
</g>
<g stroke-width="0.70" style="font:bold 13.00px Times">
<text x="187.70" y="48.40">V<tspan
	 style="font:italic 11.00px Times">¹</tspan></text>
</g>
<g stroke-width="0.70" style="font:bold 13.00px Times">
<text x="298.00" y="56.40">V</text>
</g>
<g stroke-width="0.70" style="font:bold 13.00px Times">
<text x="410.60" y="51.40">V<tspan
	 style="font:italic 11.00px Times">⁷¹</tspan></text>
</g>
<g stroke-width="0.70" style="font:bold 13.00px Times">
<text x="524.90" y="54.40">I</text>
</g>
<g stroke-width="0.70" style="font:bold 13.00px Times">
<text x="639.00" y="54.40">V<tspan
	 style="font:italic 11.00px Times">⁷</tspan></text>
</g>
<g stroke-width="0.70" style="font:italic 11.00px Times">
<defs>
<path id="utclef" class="fill" d="m-50 -90
	c-72 -41 -72 -158 52 -188
	150 -10 220 188 90 256
	-114 52 -275 0 -293 -136
	-15 -181 93 -229 220 -334
	88 -87 79 -133 62 -210
	-51 33 -94 105 -89 186
	17 267 36 374 49 574
	6 96 -19 134 -77 135
	-80 1 -126 -93 -61 -133
	85 -41 133 101 31 105
	23 17 92 37 90 -92
	-10 -223 -39 -342 -50 -617
	0 -90 0 -162 96 -232
	56 72 63 230 22 289
	-74 106 -257 168 -255 316
	9 153 148 185 252 133
	86 -65 29 -192 -80 -176
	-71 12 -105 67 -59 124"/>
<use id="tclef" transform="translate(0,6) scale(0.045)"
	xlink:href="#utclef"/>
</defs>
<use x="22.00" y="79.00" xlink:href="#tclef"/>
<defs>
<path id="usharp" class="fill" d="
	m136 -702
	v890
	h32
	v-890
	m128 840
	h32
	v-888
	h-32
	m-232 286
	v116
	l338 -96
	v-116
	m-338 442
	v116
	l338 -98
	v-114"/>
<use id="sh0" transform="translate(-4,5) scale(0.018)"
	xlink:href="#usharp"/>
</defs>
<use x="37.00" y="61.00" xlink:href="#sh0"/>
<use x="42.50" y="70.00" xlink:href="#sh0"/>
<g style="font:bold 16px serif"
	transform="translate(58.50,84.50) scale(1.2,1)">
	<text text-anchor="middle">4</text>
	<text y="-12" text-anchor="middle">4</text>
</g>
<defs>
<path id="Hd" class="fill" d="m3 -1.6
	c-1 -1.8 -7 1.4 -6 3.2
	1 1.8 7 -1.4 6 -3.2
	m0.5 -0.3
	c2 3.8 -5 7.6 -7 3.8
	-2 -3.8 5 -7.6 7 -3.8"/>
</defs>
<use x="77.00" y="88.00" xlink:href="#Hd"/>
<path d="M80.50 88.00v-21.00" class="stroke"/>
<defs>
<ellipse id="hd" rx="4.1" ry="2.9"
	transform="rotate(-20)" class="fill"/>
</defs>
<use x="124.10" y="82.00" xlink:href="#hd"/>
<path d="M127.60 82.00v-21.00" class="stroke"/>
<use x="157.50" y="76.00" xlink:href="#hd"/>
<path d="M161.00 76.00v-21.00" class="stroke"/>
<use x="193.60" y="76.00" xlink:href="#hd"/>
<circle class="fill" cx="201.30" cy="76.00" r="1.2"/>
<path d="M197.10 76.00v-21.00" class="stroke"/>
<use x="231.80" y="79.00" xlink:href="#hd"/>
<path d="M235.30 79.00v-21.00" class="stroke"/>
<path class="fill"
	d="M235.30 58.00c0.6 5.6 9.6 9 5.6 18.4
	1.6 -6 -1.3 -11.6 -5.6 -12.8
"/>
<use x="255.70" y="82.00" xlink:href="#Hd"/>
<path d="M259.20 82.00v-21.00" class="stroke"/>
<use x="301.90" y="85.00" xlink:href="#Hd"/>
<path d="M305.40 85.00v-21.00" class="stroke"/>
<use x="349.00" y="85.00" xlink:href="#hd"/>
<path d="M352.50 85.00v-21.00" class="stroke"/>
<use x="382.30" y="79.00" xlink:href="#hd"/>
<path d="M385.80 79.00v-21.00" class="stroke"/>
<use x="418.40" y="79.00" xlink:href="#hd"/>
<circle class="fill" cx="426.10" cy="76.00" r="1.2"/>
<path d="M421.90 79.00v-21.00" class="stroke"/>
<use x="456.60" y="82.00" xlink:href="#hd"/>
<path d="M460.10 82.00v-21.00" class="stroke"/>
<path class="fill"
	d="M460.10 61.00c0.6 5.6 9.6 9 5.6 18.4
	1.6 -6 -1.3 -11.6 -5.6 -12.8
"/>
<use x="480.50" y="85.00" xlink:href="#Hd"/>
<path d="M484.00 85.00v-21.00" class="stroke"/>
<use x="526.70" y="82.00" xlink:href="#Hd"/>
<path d="M530.20 82.00v-21.00" class="stroke"/>
<use x="573.90" y="85.00" xlink:href="#hd"/>
<path d="M577.40 85.00v-21.00" class="stroke"/>
<use x="607.30" y="73.00" xlink:href="#hd"/>
<path d="M610.80 73.00v-21.00" class="stroke"/>
<defs>
<path id="HD" class="fill" d="m-2.7 -1.4
	c1.5 -2.8 6.9 0 5.3 2.7
	-1.5 2.8 -6.9 0 -5.3 -2.7
	m8.3 1.4
	c0 -1.5 -2.2 -3 -5.6 -3
	-3.4 0 -5.6 1.5 -5.6 3
	0 1.5 2.2 3 5.6 3
	3.4 0 5.6 -1.5 5.6 -3"/>
</defs>
<use x="645.80" y="76.00" xlink:href="#HD"/>
<defs>
<path id="ubclef" class="fill" d="m-200 -87
	c124 -35 222 -78 254 -236
	43 -228 -167 -246 -192 -103
	59 -80 157 22 92 78
	-62 47 -115 -22 -106 -88
	21 -141 270 -136 274 52
	-1 175 -106 264 -322 297
	m357 -250
	c0 -36 51 -34 51 0
	0 37 -51 36 -51 0
	m-2 -129
	c0 -36 51 -34 51 0
	0 38 -51 37 -51 0"/>
<use id="bclef" transform="translate(0,18) scale(0.045)"
	xlink:href="#ubclef"/>
</defs>
<use x="22.00" y="125.00" xlink:href="#bclef"/>
<use x="37.00" y="125.00" xlink:href="#sh0"/>
<use x="42.50" y="134.00" xlink:href="#sh0"/>
<g style="font:bold 16px serif"
	transform="translate(58.50,142.50) scale(1.2,1)">
	<text text-anchor="middle">4</text>
	<text y="-12" text-anchor="middle">4</text>
</g>
<defs>
<path id="hl" class="stroke" d="m-6 0h12"/>
</defs>
<use x="77.00" y="149.00" xlink:href="#hl"/>
<use x="77.00" y="152.00" xlink:href="#Hd"/>
<path d="M80.50 152.00v-31.00" class="stroke"/>
<use x="77.00" y="146.00" xlink:href="#Hd"/>
<use x="77.00" y="140.00" xlink:href="#Hd"/>
<use x="124.10" y="149.00" xlink:href="#hl"/>
<use x="124.10" y="152.00" xlink:href="#hd"/>
<path d="M127.60 152.00v-31.00" class="stroke"/>
<use x="124.10" y="146.00" xlink:href="#hd"/>
<use x="124.10" y="140.00" xlink:href="#hd"/>
<use x="157.50" y="149.00" xlink:href="#hl"/>
<use x="157.50" y="152.00" xlink:href="#hd"/>
<path d="M161.00 152.00v-31.00" class="stroke"/>
<use x="157.50" y="146.00" xlink:href="#hd"/>
<use x="157.50" y="140.00" xlink:href="#hd"/>
<use x="193.60" y="140.00" xlink:href="#hd"/>
<circle class="fill" cx="201.30" cy="140.00" r="1.2"/>
<path d="M197.10 140.00v-31.00" class="stroke"/>
<use x="193.60" y="134.00" xlink:href="#hd"/>
<circle class="fill" cx="201.30" cy="134.00" r="1.2"/>
<use x="193.60" y="128.00" xlink:href="#hd"/>
<circle class="fill" cx="201.30" cy="128.00" r="1.2"/>
<use x="231.80" y="140.00" xlink:href="#hd"/>
<path d="M235.30 140.00v-31.00" class="stroke"/>
<path class="fill"
	d="M235.30 109.00c0.6 5.6 9.6 9 5.6 18.4
	1.6 -6 -1.3 -11.6 -5.6 -12.8
"/>
<use x="231.80" y="134.00" xlink:href="#hd"/>
<use x="231.80" y="128.00" xlink:href="#hd"/>
<use x="255.70" y="140.00" xlink:href="#Hd"/>
<path d="M259.20 140.00v-31.00" class="stroke"/>
<use x="255.70" y="134.00" xlink:href="#Hd"/>
<use x="255.70" y="128.00" xlink:href="#Hd"/>
<use x="301.90" y="140.00" xlink:href="#Hd"/>
<path d="M305.40 140.00v-31.00" class="stroke"/>
<use x="301.90" y="134.00" xlink:href="#Hd"/>
<use x="301.90" y="128.00" xlink:href="#Hd"/>
<use x="349.00" y="140.00" xlink:href="#hd"/>
<path d="M352.50 140.00v-31.00" class="stroke"/>
<use x="349.00" y="134.00" xlink:href="#hd"/>
<use x="349.00" y="128.00" xlink:href="#hd"/>
<use x="382.30" y="140.00" xlink:href="#hd"/>
<path d="M385.80 140.00v-31.00" class="stroke"/>
<use x="382.30" y="134.00" xlink:href="#hd"/>
<use x="382.30" y="128.00" xlink:href="#hd"/>
<use x="418.40" y="140.00" xlink:href="#hd"/>
<circle class="fill" cx="426.10" cy="140.00" r="1.2"/>
<path d="M421.90 140.00v-31.00" class="stroke"/>
<use x="418.40" y="134.00" xlink:href="#hd"/>
<circle class="fill" cx="426.10" cy="134.00" r="1.2"/>
<use x="418.40" y="128.00" xlink:href="#hd"/>
<circle class="fill" cx="426.10" cy="128.00" r="1.2"/>
<use x="456.60" y="140.00" xlink:href="#hd"/>
<path d="M460.10 140.00v-31.00" class="stroke"/>
<path class="fill"
	d="M460.10 109.00c0.6 5.6 9.6 9 5.6 18.4
	1.6 -6 -1.3 -11.6 -5.6 -12.8
"/>
<use x="456.60" y="134.00" xlink:href="#hd"/>
<use x="456.60" y="128.00" xlink:href="#hd"/>
<use x="480.50" y="140.00" xlink:href="#Hd"/>
<path d="M484.00 140.00v-31.00" class="stroke"/>
<use x="480.50" y="134.00" xlink:href="#Hd"/>
<use x="480.50" y="128.00" xlink:href="#Hd"/>
<use x="526.70" y="149.00" xlink:href="#hl"/>
<use x="526.70" y="152.00" xlink:href="#Hd"/>
<path d="M530.20 152.00v-31.00" class="stroke"/>
<use x="526.70" y="146.00" xlink:href="#Hd"/>
<use x="526.70" y="140.00" xlink:href="#Hd"/>
<use x="573.90" y="149.00" xlink:href="#hl"/>
<use x="573.90" y="152.00" xlink:href="#hd"/>
<path d="M577.40 152.00v-31.00" class="stroke"/>
<use x="573.90" y="146.00" xlink:href="#hd"/>
<use x="573.90" y="140.00" xlink:href="#hd"/>
<use x="607.30" y="149.00" xlink:href="#hl"/>
<use x="607.30" y="152.00" xlink:href="#hd"/>
<path d="M610.80 152.00v-31.00" class="stroke"/>
<use x="607.30" y="146.00" xlink:href="#hd"/>
<use x="607.30" y="140.00" xlink:href="#hd"/>
<use x="645.80" y="140.00" xlink:href="#HD"/>
<use x="645.80" y="134.00" xlink:href="#HD"/>
<use x="645.80" y="128.00" xlink:href="#HD"/>
</g>
<g stroke-width="0.70" style="font:italic 11.00px Times">
<path class="stroke" stroke-width="1"
	d="M10.00 271.00v-82.00"/>
<g transform="translate(10.00,189.00) scale(1,0.82)">
	<use xlink:href="#brace"/>
</g>
<path class="stroke" stroke-width="1"
	d="M180.50 213.00v-24.00"/>
<path class="stroke" stroke-width="1"
	d="M180.50 271.00v-24.00"/>
<path class="stroke" stroke-width="1"
	d="M303.00 213.00v-24.00"/>
<path class="stroke" stroke-width="1"
	d="M303.00 271.00v-24.00"/>
<path class="stroke" stroke-width="1"
	d="M436.00 213.00v-24.00"/>
<path class="stroke" stroke-width="1"
	d="M436.00 271.00v-24.00"/>
<path class="stroke" stroke-width="1"
	d="M558.50 213.00v-24.00"/>
<path class="stroke" stroke-width="1"
	d="M558.50 271.00v-24.00"/>
<path class="stroke" stroke-width="1"
	d="M691.60 213.00v-24.00"/>
<path class="stroke" stroke-width="1"
	d="M691.60 271.00v-24.00"/>
<path d="m10.00 213.00
	h681.60
	M10.00 207.00
	h681.60
	M10.00 201.00
	h681.60
	M10.00 195.00
	h681.60
	M10.00 189.00
	h681.60
	" class="stroke"/>
<path d="m10.00 271.00
	h681.60
	M10.00 265.00
	h681.60
	M10.00 259.00
	h681.60
	M10.00 253.00
	h681.60
	M10.00 247.00
	h681.60
	" class="stroke"/>
</g>
<g stroke-width="0.70" style="font:bold 13.00px Times">
<text x="59.20" y="176.40">I</text>
</g>
<g stroke-width="0.70" style="font:bold 13.00px Times">
<text x="192.30" y="176.40">I</text>
</g>
<g stroke-width="0.70" style="font:bold 13.00px Times">
<text x="314.70" y="176.40">I</text>
</g>
<g stroke-width="0.70" style="font:bold 13.00px Times">
<text x="447.80" y="176.40">I</text>
</g>
<g stroke-width="0.70" style="font:bold 13.00px Times">
<text x="567.90" y="184.40">vi</text>
<use x="22.00" y="207.00" xlink:href="#tclef"/>
<use x="37.00" y="189.00" xlink:href="#sh0"/>
<use x="42.50" y="198.00" xlink:href="#sh0"/>
<use x="61.00" y="204.00" xlink:href="#Hd"/>
<path d="M64.50 204.00v-21.00" class="stroke"/>
<use x="115.30" y="210.00" xlink:href="#hd"/>
<path d="M118.80 210.00v-21.00" class="stroke"/>
<use x="153.60" y="207.00" xlink:href="#hd"/>
<path d="M157.10 207.00v-21.00" class="stroke"/>
<use x="194.10" y="204.00" xlink:href="#hd"/>
<circle class="fill" cx="201.80" cy="204.00" r="1.2"/>
<path d="M197.60 204.00v-21.00" class="stroke"/>
<use x="237.80" y="201.00" xlink:href="#hd"/>
<path d="M241.30 201.00v-21.00" class="stroke"/>
<path class="fill"
	d="M241.30 180.00c0.6 5.6 9.6 9 5.6 18.4
	1.6 -6 -1.3 -11.6 -5.6 -12.8
"/>
<use x="265.00" y="204.00" xlink:href="#Hd"/>
<path d="M268.50 204.00v-21.00" class="stroke"/>
<use x="316.60" y="204.00" xlink:href="#Hd"/>
<path d="M320.10 204.00v-21.00" class="stroke"/>
<use x="370.80" y="210.00" xlink:href="#hd"/>
<path d="M374.30 210.00v-21.00" class="stroke"/>
<use x="409.20" y="207.00" xlink:href="#hd"/>
<path d="M412.70 207.00v-21.00" class="stroke"/>
<use x="449.70" y="204.00" xlink:href="#hd"/>
<circle class="fill" cx="457.40" cy="204.00" r="1.2"/>
<path d="M453.20 204.00v-21.00" class="stroke"/>
<use x="493.30" y="201.00" xlink:href="#hd"/>
<path d="M496.80 201.00v-21.00" class="stroke"/>
<path class="fill"
	d="M496.80 180.00c0.6 5.6 9.6 9 5.6 18.4
	1.6 -6 -1.3 -11.6 -5.6 -12.8
"/>
<use x="520.50" y="204.00" xlink:href="#Hd"/>
<path d="M524.00 204.00v-21.00" class="stroke"/>
<use x="572.10" y="195.00" xlink:href="#Hd"/>
<path d="M568.60 195.00v21.00" class="stroke"/>
<use x="626.40" y="198.00" xlink:href="#hd"/>
<path d="M622.90 198.00v21.00" class="stroke"/>
<use x="664.70" y="201.00" xlink:href="#hd"/>
<path d="M661.20 201.00v21.00" class="stroke"/>
<use x="22.00" y="253.00" xlink:href="#bclef"/>
<use x="37.00" y="253.00" xlink:href="#sh0"/>
<use x="42.50" y="262.00" xlink:href="#sh0"/>
<use x="61.00" y="277.00" xlink:href="#hl"/>
<use x="61.00" y="280.00" xlink:href="#Hd"/>
<path d="M64.50 280.00v-31.00" class="stroke"/>
<use x="61.00" y="274.00" xlink:href="#Hd"/>
<use x="61.00" y="268.00" xlink:href="#Hd"/>
<use x="115.30" y="277.00" xlink:href="#hl"/>
<use x="115.30" y="280.00" xlink:href="#hd"/>
<path d="M118.80 280.00v-31.00" class="stroke"/>
<use x="115.30" y="274.00" xlink:href="#hd"/>
<use x="115.30" y="268.00" xlink:href="#hd"/>
<use x="153.60" y="277.00" xlink:href="#hl"/>
<use x="153.60" y="280.00" xlink:href="#hd"/>
<path d="M157.10 280.00v-31.00" class="stroke"/>
<use x="153.60" y="274.00" xlink:href="#hd"/>
<use x="153.60" y="268.00" xlink:href="#hd"/>
<use x="194.10" y="277.00" xlink:href="#hl"/>
<use x="194.10" y="280.00" xlink:href="#hd"/>
<circle class="fill" cx="201.80" cy="280.00" r="1.2"/>
<path d="M197.60 280.00v-31.00" class="stroke"/>
<use x="194.10" y="274.00" xlink:href="#hd"/>
<circle class="fill" cx="201.80" cy="274.00" r="1.2"/>
<use x="194.10" y="268.00" xlink:href="#hd"/>
<circle class="fill" cx="201.80" cy="268.00" r="1.2"/>
<use x="237.80" y="277.00" xlink:href="#hl"/>
<use x="237.80" y="280.00" xlink:href="#hd"/>
<path d="M241.30 280.00v-31.00" class="stroke"/>
<path class="fill"
	d="M241.30 249.00c0.6 5.6 9.6 9 5.6 18.4
	1.6 -6 -1.3 -11.6 -5.6 -12.8
"/>
<use x="237.80" y="274.00" xlink:href="#hd"/>
<use x="237.80" y="268.00" xlink:href="#hd"/>
<use x="265.00" y="277.00" xlink:href="#hl"/>
<use x="265.00" y="280.00" xlink:href="#Hd"/>
<path d="M268.50 280.00v-31.00" class="stroke"/>
<use x="265.00" y="274.00" xlink:href="#Hd"/>
<use x="265.00" y="268.00" xlink:href="#Hd"/>
<use x="316.60" y="277.00" xlink:href="#hl"/>
<use x="316.60" y="280.00" xlink:href="#Hd"/>
<path d="M320.10 280.00v-31.00" class="stroke"/>
<use x="316.60" y="274.00" xlink:href="#Hd"/>
<use x="316.60" y="268.00" xlink:href="#Hd"/>
<use x="370.80" y="277.00" xlink:href="#hl"/>
<use x="370.80" y="280.00" xlink:href="#hd"/>
<path d="M374.30 280.00v-31.00" class="stroke"/>
<use x="370.80" y="274.00" xlink:href="#hd"/>
<use x="370.80" y="268.00" xlink:href="#hd"/>
<use x="409.20" y="277.00" xlink:href="#hl"/>
<use x="409.20" y="280.00" xlink:href="#hd"/>
<path d="M412.70 280.00v-31.00" class="stroke"/>
<use x="409.20" y="274.00" xlink:href="#hd"/>
<use x="409.20" y="268.00" xlink:href="#hd"/>
<use x="449.70" y="277.00" xlink:href="#hl"/>
<use x="449.70" y="280.00" xlink:href="#hd"/>
<circle class="fill" cx="457.40" cy="280.00" r="1.2"/>
<path d="M453.20 280.00v-31.00" class="stroke"/>
<use x="449.70" y="274.00" xlink:href="#hd"/>
<circle class="fill" cx="457.40" cy="274.00" r="1.2"/>
<use x="449.70" y="268.00" xlink:href="#hd"/>
<circle class="fill" cx="457.40" cy="268.00" r="1.2"/>
<use x="493.30" y="277.00" xlink:href="#hl"/>
<use x="493.30" y="280.00" xlink:href="#hd"/>
<path d="M496.80 280.00v-31.00" class="stroke"/>
<path class="fill"
	d="M496.80 249.00c0.6 5.6 9.6 9 5.6 18.4
	1.6 -6 -1.3 -11.6 -5.6 -12.8
"/>
<use x="493.30" y="274.00" xlink:href="#hd"/>
<use x="493.30" y="268.00" xlink:href="#hd"/>
<use x="520.50" y="277.00" xlink:href="#hl"/>
<use x="520.50" y="280.00" xlink:href="#Hd"/>
<path d="M524.00 280.00v-31.00" class="stroke"/>
<use x="520.50" y="274.00" xlink:href="#Hd"/>
<use x="520.50" y="268.00" xlink:href="#Hd"/>
<use x="572.10" y="265.00" xlink:href="#Hd"/>
<path d="M575.60 265.00v-31.00" class="stroke"/>
<use x="572.10" y="259.00" xlink:href="#Hd"/>
<use x="572.10" y="253.00" xlink:href="#Hd"/>
<use x="626.40" y="265.00" xlink:href="#hd"/>
<path d="M629.90 265.00v-31.00" class="stroke"/>
<use x="626.40" y="259.00" xlink:href="#hd"/>
<use x="626.40" y="253.00" xlink:href="#hd"/>
<use x="664.70" y="265.00" xlink:href="#hd"/>
<path d="M668.20 265.00v-31.00" class="stroke"/>
<use x="664.70" y="259.00" xlink:href="#hd"/>
<use x="664.70" y="253.00" xlink:href="#hd"/>
</g>
<g stroke-width="0.70" style="font:bold 13.00px Times">
<path class="stroke" stroke-width="1"
	d="M10.00 399.00v-82.00"/>
<g transform="translate(10.00,317.00) scale(1,0.82)">
	<use xlink:href="#brace"/>
</g>
<path class="stroke" stroke-width="1"
	d="M202.30 341.00v-24.00"/>
<path class="stroke" stroke-width="1"
	d="M202.30 399.00v-24.00"/>
<path class="stroke" stroke-width="1"
	d="M312.70 341.00v-24.00"/>
<path class="stroke" stroke-width="1"
	d="M312.70 399.00v-24.00"/>
<path class="stroke" stroke-width="1"
	d="M382.90 341.00v-24.00"/>
<path class="stroke" stroke-width="1"
	d="M382.90 399.00v-24.00"/>
<path d="m10.00 341.00
	h372.90
	M10.00 335.00
	h372.90
	M10.00 329.00
	h372.90
	M10.00 323.00
	h372.90
	M10.00 317.00
	h372.90
	" class="stroke"/>
<path d="m10.00 399.00
	h372.90
	M10.00 393.00
	h372.90
	M10.00 387.00
	h372.90
	M10.00 381.00
	h372.90
	M10.00 375.00
	h372.90
	" class="stroke"/>
</g>
<g stroke-width="0.70" style="font:bold 13.00px Times">
<text x="58.70" y="304.40">I</text>
</g>
<g stroke-width="0.70" style="font:bold 13.00px Times">
<text x="212.50" y="312.40">V</text>
</g>
<g stroke-width="0.70" style="font:bold 13.00px Times">
<text x="325.00" y="312.40">I</text>
<use x="22.00" y="335.00" xlink:href="#tclef"/>
<use x="37.00" y="317.00" xlink:href="#sh0"/>
<use x="42.50" y="326.00" xlink:href="#sh0"/>
<use x="60.50" y="332.00" xlink:href="#hd"/>
<circle class="fill" cx="68.20" cy="332.00" r="1.2"/>
<path d="M64.00 332.00v-21.00" class="stroke"/>
<use x="106.00" y="335.00" xlink:href="#hd"/>
<path d="M109.50 335.00v-21.00" class="stroke"/>
<path class="fill"
	d="M109.50 314.00c0.6 5.6 9.6 9 5.6 18.4
	1.6 -6 -1.3 -11.6 -5.6 -12.8
"/>
<use x="134.30" y="338.00" xlink:href="#hd"/>
<path d="M137.80 338.00v-21.00" class="stroke"/>
<use x="174.30" y="344.00" xlink:href="#hd"/>
<path d="M177.80 344.00v-21.00" class="stroke"/>
<use x="216.50" y="341.00" xlink:href="#Hd"/>
<path d="M220.00 341.00v-21.00" class="stroke"/>
<use x="273.10" y="332.00" xlink:href="#Hd"/>
<path d="M276.60 332.00v-21.00" class="stroke"/>
<use x="327.90" y="344.00" xlink:href="#HD"/>
<use x="22.00" y="381.00" xlink:href="#bclef"/>
<use x="37.00" y="381.00" xlink:href="#sh0"/>
<use x="42.50" y="390.00" xlink:href="#sh0"/>
<use x="60.50" y="405.00" xlink:href="#hl"/>
<use x="60.50" y="408.00" xlink:href="#hd"/>
<circle class="fill" cx="68.20" cy="408.00" r="1.2"/>
<path d="M64.00 408.00v-31.00" class="stroke"/>
<use x="60.50" y="402.00" xlink:href="#hd"/>
<circle class="fill" cx="68.20" cy="402.00" r="1.2"/>
<use x="60.50" y="396.00" xlink:href="#hd"/>
<circle class="fill" cx="68.20" cy="396.00" r="1.2"/>
<use x="106.00" y="405.00" xlink:href="#hl"/>
<use x="106.00" y="408.00" xlink:href="#hd"/>
<path d="M109.50 408.00v-31.00" class="stroke"/>
<path class="fill"
	d="M109.50 377.00c0.6 5.6 9.6 9 5.6 18.4
	1.6 -6 -1.3 -11.6 -5.6 -12.8
"/>
<use x="106.00" y="402.00" xlink:href="#hd"/>
<use x="106.00" y="396.00" xlink:href="#hd"/>
<use x="134.30" y="405.00" xlink:href="#hl"/>
<use x="134.30" y="408.00" xlink:href="#hd"/>
<path d="M137.80 408.00v-31.00" class="stroke"/>
<use x="134.30" y="402.00" xlink:href="#hd"/>
<use x="134.30" y="396.00" xlink:href="#hd"/>
<use x="174.30" y="405.00" xlink:href="#hl"/>
<use x="174.30" y="408.00" xlink:href="#hd"/>
<path d="M177.80 408.00v-31.00" class="stroke"/>
<use x="174.30" y="402.00" xlink:href="#hd"/>
<use x="174.30" y="396.00" xlink:href="#hd"/>
<use x="216.50" y="396.00" xlink:href="#Hd"/>
<path d="M220.00 396.00v-31.00" class="stroke"/>
<use x="216.50" y="390.00" xlink:href="#Hd"/>
<use x="216.50" y="384.00" xlink:href="#Hd"/>
<use x="273.10" y="396.00" xlink:href="#Hd"/>
<path d="M276.60 396.00v-31.00" class="stroke"/>
<use x="273.10" y="390.00" xlink:href="#Hd"/>
<use x="273.10" y="384.00" xlink:href="#Hd"/>
<defs>
<path id="hl1" class="stroke" d="m-7 0h14"/>
</defs>
<use x="327.90" y="405.00" xlink:href="#hl1"/>
<use x="327.90" y="408.00" xlink:href="#HD"/>
<use x="327.90" y="402.00" xlink:href="#HD"/>
<use x="327.90" y="396.00" xlink:href="#HD"/>
</g>
</svg>
