<?xml version="1.0" standalone="no"?>
<!DOCTYPE svg PUBLIC "-//W3C//DTD SVG 1.1//EN"
	"http://www.w3.org/Graphics/SVG/1.1/DTD/svg11.dtd">
<svg xmlns="http://www.w3.org/2000/svg" version="1.1"
	xmlns:xlink="http://www.w3.org/1999/xlink"
	color="black"
	width="701.60px" height="685.20px" viewBox="0 0 701.60 685.20" preserveAspectRatio="xMidYMid meet">
<style type="text/css">
.fill {fill: currentColor}
.stroke {stroke: currentColor; fill: none}
text{white-space: pre}
</style>
<title>/tmp/retab_hymnal_L1/o_holy_spirit_enter_in.abc (1) tune 1</title>
<!-- Creator: abcm2ps-8.14.11 -->
<!-- CreationDate: Apr 24, 2026 15:38 -->
<!-- CommandLine: /tmp/retab_hymnal_L1/o_holy_spirit_enter_in.abc -g -O /tmp/retab_hymnal_L1/o_holy_spirit_enter_in -->
<g stroke-width="0.70">
<!-- title: 177. O Holy Spirit, Enter In -->
</g>
<g stroke-width="0.70" style="font:20.00px Times">
<text x="350.80" y="22.00" text-anchor="middle">177. O Holy Spirit, Enter In</text>
</g>
<g stroke-width="0.70" style="font:20.00px Times">
<path class="stroke" stroke-width="1"
	d="M10.00 145.40v-82.00"/>
<defs>
<path id="brace" class="fill" d="m-2.5 101
	c-4.5 -4.6 -7.5 -12.2 -4.4 -26.8
	3.5 -14.3 3.2 -21.7 -2.1 -24.2
	7.4 2.4 7.3 14.2 3.5 29.5
	-2.7 9.5 -1.5 16.2 3 21.5
	M-2.5 1c-4.5 4.6 -7.5 12.2 -4.4 26.8
	c3.5 14.3 3.2 21.7 -2.1 24.2
	7.4 -2.4 7.3 -14.2 3.5 -29.5
	-2.7 -9.5 -1.5 -16.2 3 -21.5"/>
</defs>
<g transform="translate(10.00,63.40) scale(1,0.82)">
	<use xlink:href="#brace"/>
</g>
<path class="stroke" stroke-width="1"
	d="M153.10 87.40v-24.00"/>
<path class="stroke" stroke-width="1"
	d="M153.10 145.40v-24.00"/>
<path class="stroke" stroke-width="1"
	d="M241.20 87.40v-24.00"/>
<path class="stroke" stroke-width="1"
	d="M241.20 145.40v-24.00"/>
<path class="stroke" stroke-width="1"
	d="M329.20 87.40v-24.00"/>
<path class="stroke" stroke-width="1"
	d="M329.20 145.40v-24.00"/>
<path class="stroke" stroke-width="1"
	d="M435.10 87.40v-24.00"/>
<path class="stroke" stroke-width="1"
	d="M435.10 145.40v-24.00"/>
<path class="stroke" stroke-width="1"
	d="M563.30 87.40v-24.00"/>
<path class="stroke" stroke-width="1"
	d="M563.30 145.40v-24.00"/>
<path class="stroke" stroke-width="1"
	d="M691.60 87.40v-24.00"/>
<path class="stroke" stroke-width="1"
	d="M691.60 145.40v-24.00"/>
<path d="m10.00 87.40
	h681.60
	M10.00 81.40
	h681.60
	M10.00 75.40
	h681.60
	M10.00 69.40
	h681.60
	M10.00 63.40
	h681.60
	" class="stroke"/>
<path d="m10.00 145.40
	h681.60
	M10.00 139.40
	h681.60
	M10.00 133.40
	h681.60
	M10.00 127.40
	h681.60
	M10.00 121.40
	h681.60
	" class="stroke"/>
</g>
<g stroke-width="0.70" style="font:bold 13.00px Times">
<text x="80.70" y="58.80">I</text>
</g>
<g stroke-width="0.70" style="font:bold 13.00px Times">
<text x="164.30" y="47.80">I</text>
</g>
<g stroke-width="0.70" style="font:bold 13.00px Times">
<text x="252.40" y="58.80">I</text>
</g>
<g stroke-width="0.70" style="font:bold 13.00px Times">
<text x="337.80" y="56.80">V</text>
</g>
<g stroke-width="0.70" style="font:bold 13.00px Times">
<text x="445.80" y="56.80">I</text>
</g>
<g stroke-width="0.70" style="font:bold 13.00px Times">
<text x="572.00" y="56.80">I<tspan
	 style="font:italic 11.00px Times">⁷</tspan></text>
</g>
<g stroke-width="0.70" style="font:italic 11.00px Times">
<defs>
<path id="utclef" class="fill" d="m-50 -90
	c-72 -41 -72 -158 52 -188
	150 -10 220 188 90 256
	-114 52 -275 0 -293 -136
	-15 -181 93 -229 220 -334
	88 -87 79 -133 62 -210
	-51 33 -94 105 -89 186
	17 267 36 374 49 574
	6 96 -19 134 -77 135
	-80 1 -126 -93 -61 -133
	85 -41 133 101 31 105
	23 17 92 37 90 -92
	-10 -223 -39 -342 -50 -617
	0 -90 0 -162 96 -232
	56 72 63 230 22 289
	-74 106 -257 168 -255 316
	9 153 148 185 252 133
	86 -65 29 -192 -80 -176
	-71 12 -105 67 -59 124"/>
<use id="tclef" transform="translate(0,6) scale(0.045)"
	xlink:href="#utclef"/>
</defs>
<use x="22.00" y="81.40" xlink:href="#tclef"/>
<defs>
<path id="uflat" class="fill" d="
	m100 -746
	h32
	v734
	l-32 4
	m32 -332
	c46 -72 152 -90 208 -20
	100 110 -120 326 -208 348
	m0 -28
	c54 0 200 -206 130 -290
	-50 -60 -130 -4 -130 34"/>
<use id="ft0" transform="translate(-3.5,3.5) scale(0.018)"
	xlink:href="#uflat"/>
</defs>
<use x="37.00" y="75.40" xlink:href="#ft0"/>
<use x="42.50" y="66.40" xlink:href="#ft0"/>
<use x="48.00" y="78.40" xlink:href="#ft0"/>
<g style="font:bold 16px serif"
	transform="translate(64.00,86.90) scale(1.2,1)">
	<text text-anchor="middle">4</text>
	<text y="-12" text-anchor="middle">4</text>
</g>
<defs>
<rect id="r2" class="fill"
	x="-3.5" y="-3" width="7" height="3"/>
</defs>
<use x="82.50" y="75.40" xlink:href="#r2"/>
<defs>
<path id="Hd" class="fill" d="m3 -1.6
	c-1 -1.8 -7 1.4 -6 3.2
	1 1.8 7 -1.4 6 -3.2
	m0.5 -0.3
	c2 3.8 -5 7.6 -7 3.8
	-2 -3.8 5 -7.6 7 -3.8"/>
</defs>
<use x="122.10" y="87.40" xlink:href="#Hd"/>
<path d="M125.60 87.40v-21.00" class="stroke"/>
<use x="166.10" y="75.40" xlink:href="#Hd"/>
<path d="M169.60 75.40v-21.00" class="stroke"/>
<use x="210.10" y="81.40" xlink:href="#Hd"/>
<path d="M213.60 81.40v-21.00" class="stroke"/>
<use x="254.20" y="87.40" xlink:href="#Hd"/>
<path d="M257.70 87.40v-21.00" class="stroke"/>
<use x="298.20" y="75.40" xlink:href="#Hd"/>
<path d="M301.70 75.40v-21.00" class="stroke"/>
<defs>
<ellipse id="hd" rx="4.1" ry="2.9"
	transform="rotate(-20)" class="fill"/>
</defs>
<use x="341.70" y="72.40" xlink:href="#hd"/>
<path d="M338.20 72.40v21.00" class="stroke"/>
<use x="372.90" y="72.40" xlink:href="#hd"/>
<path d="M369.40 72.40v21.00" class="stroke"/>
<use x="404.00" y="75.40" xlink:href="#Hd"/>
<path d="M400.50 75.40v21.00" class="stroke"/>
<defs>
<path id="r4" class="fill" d="m-1 -8.5
	l3.6 5.1 -2.1 5.2 2.2 4.3
	c-2.6 -2.3 -5.1 0 -2.4 2.6
	-4.8 -3 -1.5 -6.9 1.4 -4.1
	l-3.1 -4.5 1.9 -5.1 -1.5 -3.5"/>
</defs>
<use x="447.60" y="75.40" xlink:href="#r4"/>
<use x="478.70" y="75.40" xlink:href="#hd"/>
<path d="M475.20 75.40v21.00" class="stroke"/>
<use x="510.00" y="72.40" xlink:href="#hd"/>
<path d="M506.50 72.40v21.00" class="stroke"/>
<use x="541.20" y="69.40" xlink:href="#hd"/>
<path d="M537.70 69.40v21.00" class="stroke"/>
<use x="575.80" y="66.40" xlink:href="#hd"/>
<path d="M572.30 66.40v21.00" class="stroke"/>
<use x="607.00" y="69.40" xlink:href="#hd"/>
<path d="M603.50 69.40v21.00" class="stroke"/>
<use x="638.20" y="72.40" xlink:href="#hd"/>
<path d="M634.70 72.40v21.00" class="stroke"/>
<use x="669.50" y="72.40" xlink:href="#hd"/>
<path d="M666.00 72.40v21.00" class="stroke"/>
<defs>
<path id="ubclef" class="fill" d="m-200 -87
	c124 -35 222 -78 254 -236
	43 -228 -167 -246 -192 -103
	59 -80 157 22 92 78
	-62 47 -115 -22 -106 -88
	21 -141 270 -136 274 52
	-1 175 -106 264 -322 297
	m357 -250
	c0 -36 51 -34 51 0
	0 37 -51 36 -51 0
	m-2 -129
	c0 -36 51 -34 51 0
	0 38 -51 37 -51 0"/>
<use id="bclef" transform="translate(0,18) scale(0.045)"
	xlink:href="#ubclef"/>
</defs>
<use x="22.00" y="127.40" xlink:href="#bclef"/>
<use x="37.00" y="139.40" xlink:href="#ft0"/>
<use x="42.50" y="130.40" xlink:href="#ft0"/>
<use x="48.00" y="142.40" xlink:href="#ft0"/>
<g style="font:bold 16px serif"
	transform="translate(64.00,144.90) scale(1.2,1)">
	<text text-anchor="middle">4</text>
	<text y="-12" text-anchor="middle">4</text>
</g>
<use x="82.50" y="133.40" xlink:href="#r2"/>
<defs>
<path id="hl" class="stroke" d="m-6 0h12"/>
</defs>
<use x="122.10" y="151.40" xlink:href="#hl"/>
<use x="122.10" y="151.40" xlink:href="#Hd"/>
<path d="M125.60 151.40v-31.00" class="stroke"/>
<use x="122.10" y="145.40" xlink:href="#Hd"/>
<use x="122.10" y="139.40" xlink:href="#Hd"/>
<use x="166.10" y="151.40" xlink:href="#hl"/>
<use x="166.10" y="151.40" xlink:href="#Hd"/>
<path d="M169.60 151.40v-31.00" class="stroke"/>
<use x="166.10" y="145.40" xlink:href="#Hd"/>
<use x="166.10" y="139.40" xlink:href="#Hd"/>
<use x="210.10" y="151.40" xlink:href="#hl"/>
<use x="210.10" y="151.40" xlink:href="#Hd"/>
<path d="M213.60 151.40v-31.00" class="stroke"/>
<use x="210.10" y="145.40" xlink:href="#Hd"/>
<use x="210.10" y="139.40" xlink:href="#Hd"/>
<use x="254.20" y="151.40" xlink:href="#hl"/>
<use x="254.20" y="151.40" xlink:href="#Hd"/>
<path d="M257.70 151.40v-31.00" class="stroke"/>
<use x="254.20" y="145.40" xlink:href="#Hd"/>
<use x="254.20" y="139.40" xlink:href="#Hd"/>
<use x="298.20" y="151.40" xlink:href="#hl"/>
<use x="298.20" y="151.40" xlink:href="#Hd"/>
<path d="M301.70 151.40v-31.00" class="stroke"/>
<use x="298.20" y="145.40" xlink:href="#Hd"/>
<use x="298.20" y="139.40" xlink:href="#Hd"/>
<use x="341.70" y="139.40" xlink:href="#hd"/>
<path d="M345.20 139.40v-31.00" class="stroke"/>
<use x="341.70" y="133.40" xlink:href="#hd"/>
<use x="341.70" y="127.40" xlink:href="#hd"/>
<use x="372.90" y="139.40" xlink:href="#hd"/>
<path d="M376.40 139.40v-31.00" class="stroke"/>
<use x="372.90" y="133.40" xlink:href="#hd"/>
<use x="372.90" y="127.40" xlink:href="#hd"/>
<use x="404.00" y="139.40" xlink:href="#Hd"/>
<path d="M407.50 139.40v-31.00" class="stroke"/>
<use x="404.00" y="133.40" xlink:href="#Hd"/>
<use x="404.00" y="127.40" xlink:href="#Hd"/>
<use x="447.60" y="133.40" xlink:href="#r4"/>
<use x="478.70" y="151.40" xlink:href="#hl"/>
<use x="478.70" y="151.40" xlink:href="#hd"/>
<path d="M482.20 151.40v-31.00" class="stroke"/>
<use x="478.70" y="145.40" xlink:href="#hd"/>
<use x="478.70" y="139.40" xlink:href="#hd"/>
<use x="510.00" y="151.40" xlink:href="#hl"/>
<use x="510.00" y="151.40" xlink:href="#hd"/>
<path d="M513.50 151.40v-31.00" class="stroke"/>
<use x="510.00" y="145.40" xlink:href="#hd"/>
<use x="510.00" y="139.40" xlink:href="#hd"/>
<use x="541.20" y="151.40" xlink:href="#hl"/>
<use x="541.20" y="151.40" xlink:href="#hd"/>
<path d="M544.70 151.40v-31.00" class="stroke"/>
<use x="541.20" y="145.40" xlink:href="#hd"/>
<use x="541.20" y="139.40" xlink:href="#hd"/>
<use x="575.80" y="151.40" xlink:href="#hl"/>
<use x="575.80" y="151.40" xlink:href="#hd"/>
<path d="M579.30 151.40v-31.00" class="stroke"/>
<use x="575.80" y="145.40" xlink:href="#hd"/>
<use x="575.80" y="139.40" xlink:href="#hd"/>
<use x="607.00" y="151.40" xlink:href="#hl"/>
<use x="607.00" y="151.40" xlink:href="#hd"/>
<path d="M610.50 151.40v-31.00" class="stroke"/>
<use x="607.00" y="145.40" xlink:href="#hd"/>
<use x="607.00" y="139.40" xlink:href="#hd"/>
<use x="638.20" y="151.40" xlink:href="#hl"/>
<use x="638.20" y="151.40" xlink:href="#hd"/>
<path d="M641.70 151.40v-31.00" class="stroke"/>
<use x="638.20" y="145.40" xlink:href="#hd"/>
<use x="638.20" y="139.40" xlink:href="#hd"/>
<use x="669.50" y="151.40" xlink:href="#hl"/>
<use x="669.50" y="151.40" xlink:href="#hd"/>
<path d="M673.00 151.40v-31.00" class="stroke"/>
<use x="669.50" y="145.40" xlink:href="#hd"/>
<use x="669.50" y="139.40" xlink:href="#hd"/>
</g>
<g stroke-width="0.70" style="font:italic 11.00px Times">
<path class="stroke" stroke-width="1"
	d="M10.00 275.80v-82.00"/>
<g transform="translate(10.00,193.80) scale(1,0.82)">
	<use xlink:href="#brace"/>
</g>
<path class="stroke" stroke-width="1"
	d="M165.90 217.80v-24.00"/>
<path class="stroke" stroke-width="1"
	d="M165.90 275.80v-24.00"/>
<path class="stroke" stroke-width="1"
	d="M255.60 217.80v-24.00"/>
<path class="stroke" stroke-width="1"
	d="M255.60 275.80v-24.00"/>
<path class="stroke" stroke-width="1"
	d="M363.70 217.80v-24.00"/>
<path class="stroke" stroke-width="1"
	d="M363.70 275.80v-24.00"/>
<path class="stroke" stroke-width="1"
	d="M422.40 217.80v-24.00"/>
<path class="stroke" stroke-width="1"
	d="M422.40 275.80v-24.00"/>
<path class="stroke" stroke-width="1"
	d="M512.10 217.80v-24.00"/>
<path class="stroke" stroke-width="1"
	d="M512.10 275.80v-24.00"/>
<path class="stroke" stroke-width="1"
	d="M601.80 217.80v-24.00"/>
<path class="stroke" stroke-width="1"
	d="M601.80 275.80v-24.00"/>
<path class="stroke" stroke-width="1"
	d="M691.60 217.80v-24.00"/>
<path class="stroke" stroke-width="1"
	d="M691.60 275.80v-24.00"/>
<path d="m10.00 217.80
	h681.60
	M10.00 211.80
	h681.60
	M10.00 205.80
	h681.60
	M10.00 199.80
	h681.60
	M10.00 193.80
	h681.60
	" class="stroke"/>
<path d="m10.00 275.80
	h681.60
	M10.00 269.80
	h681.60
	M10.00 263.80
	h681.60
	M10.00 257.80
	h681.60
	M10.00 251.80
	h681.60
	" class="stroke"/>
</g>
<g stroke-width="0.70" style="font:bold 13.00px Times">
<text x="60.70" y="189.20">IV</text>
</g>
<g stroke-width="0.70" style="font:bold 13.00px Times">
<text x="173.10" y="189.20">IV</text>
</g>
<g stroke-width="0.70" style="font:bold 13.00px Times">
<text x="266.30" y="181.20">I</text>
</g>
<g stroke-width="0.70" style="font:bold 13.00px Times">
<text x="375.90" y="189.20">I</text>
</g>
<g stroke-width="0.70" style="font:bold 13.00px Times">
<text x="431.20" y="189.20">vi</text>
</g>
<g stroke-width="0.70" style="font:bold 13.00px Times">
<text x="519.20" y="178.20">V<tspan
	 style="font:italic 11.00px Times">¹</tspan></text>
</g>
<g stroke-width="0.70" style="font:bold 13.00px Times">
<text x="609.10" y="189.20">I<tspan
	 style="font:italic 11.00px Times">⁷²</tspan></text>
</g>
<g stroke-width="0.70" style="font:italic 11.00px Times">
<use x="22.00" y="211.80" xlink:href="#tclef"/>
<use x="37.00" y="205.80" xlink:href="#ft0"/>
<use x="42.50" y="196.80" xlink:href="#ft0"/>
<use x="48.00" y="208.80" xlink:href="#ft0"/>
<use x="66.50" y="205.80" xlink:href="#Hd"/>
<path d="M63.00 205.80v21.00" class="stroke"/>
<use x="111.40" y="205.80" xlink:href="#r4"/>
<use x="143.30" y="205.80" xlink:href="#hd"/>
<path d="M139.80 205.80v21.00" class="stroke"/>
<use x="178.90" y="202.80" xlink:href="#Hd"/>
<path d="M175.40 202.80v21.00" class="stroke"/>
<use x="223.90" y="205.80" xlink:href="#Hd"/>
<path d="M220.40 205.80v21.00" class="stroke"/>
<use x="268.10" y="208.80" xlink:href="#hd"/>
<path d="M271.60 208.80v-21.00" class="stroke"/>
<use x="300.00" y="211.80" xlink:href="#hd"/>
<path d="M303.50 211.80v-21.00" class="stroke"/>
<use x="332.00" y="214.80" xlink:href="#Hd"/>
<path d="M335.50 214.80v-21.00" class="stroke"/>
<defs>
<path id="HD" class="fill" d="m-2.7 -1.4
	c1.5 -2.8 6.9 0 5.3 2.7
	-1.5 2.8 -6.9 0 -5.3 -2.7
	m8.3 1.4
	c0 -1.5 -2.2 -3 -5.6 -3
	-3.4 0 -5.6 1.5 -5.6 3
	0 1.5 2.2 3 5.6 3
	3.4 0 5.6 -1.5 5.6 -3"/>
</defs>
<use x="378.70" y="217.80" xlink:href="#HD"/>
<use x="435.40" y="205.80" xlink:href="#r2"/>
<use x="480.40" y="217.80" xlink:href="#Hd"/>
<path d="M483.90 217.80v-21.00" class="stroke"/>
<use x="525.10" y="205.80" xlink:href="#Hd"/>
<path d="M528.60 205.80v-21.00" class="stroke"/>
<use x="570.10" y="211.80" xlink:href="#Hd"/>
<path d="M573.60 211.80v-21.00" class="stroke"/>
<use x="614.80" y="217.80" xlink:href="#Hd"/>
<path d="M618.30 217.80v-21.00" class="stroke"/>
<use x="659.80" y="205.80" xlink:href="#Hd"/>
<path d="M663.30 205.80v-21.00" class="stroke"/>
<use x="22.00" y="257.80" xlink:href="#bclef"/>
<use x="37.00" y="269.80" xlink:href="#ft0"/>
<use x="42.50" y="260.80" xlink:href="#ft0"/>
<use x="48.00" y="272.80" xlink:href="#ft0"/>
<use x="66.50" y="272.80" xlink:href="#Hd"/>
<path d="M70.00 272.80v-31.00" class="stroke"/>
<use x="66.50" y="266.80" xlink:href="#Hd"/>
<use x="66.50" y="260.80" xlink:href="#Hd"/>
<use x="111.40" y="263.80" xlink:href="#r4"/>
<use x="143.30" y="272.80" xlink:href="#hd"/>
<path d="M146.80 272.80v-31.00" class="stroke"/>
<use x="143.30" y="266.80" xlink:href="#hd"/>
<use x="143.30" y="260.80" xlink:href="#hd"/>
<use x="178.90" y="272.80" xlink:href="#Hd"/>
<path d="M182.40 272.80v-31.00" class="stroke"/>
<use x="178.90" y="266.80" xlink:href="#Hd"/>
<use x="178.90" y="260.80" xlink:href="#Hd"/>
<use x="223.90" y="272.80" xlink:href="#Hd"/>
<path d="M227.40 272.80v-31.00" class="stroke"/>
<use x="223.90" y="266.80" xlink:href="#Hd"/>
<use x="223.90" y="260.80" xlink:href="#Hd"/>
<use x="268.10" y="281.80" xlink:href="#hl"/>
<use x="268.10" y="281.80" xlink:href="#hd"/>
<path d="M271.60 281.80v-31.00" class="stroke"/>
<use x="268.10" y="275.80" xlink:href="#hd"/>
<use x="268.10" y="269.80" xlink:href="#hd"/>
<use x="300.00" y="281.80" xlink:href="#hl"/>
<use x="300.00" y="281.80" xlink:href="#hd"/>
<path d="M303.50 281.80v-31.00" class="stroke"/>
<use x="300.00" y="275.80" xlink:href="#hd"/>
<use x="300.00" y="269.80" xlink:href="#hd"/>
<use x="332.00" y="281.80" xlink:href="#hl"/>
<use x="332.00" y="281.80" xlink:href="#Hd"/>
<path d="M335.50 281.80v-31.00" class="stroke"/>
<use x="332.00" y="275.80" xlink:href="#Hd"/>
<use x="332.00" y="269.80" xlink:href="#Hd"/>
<defs>
<path id="hl1" class="stroke" d="m-7 0h14"/>
</defs>
<use x="378.70" y="281.80" xlink:href="#hl1"/>
<use x="378.70" y="281.80" xlink:href="#HD"/>
<use x="378.70" y="275.80" xlink:href="#HD"/>
<use x="378.70" y="269.80" xlink:href="#HD"/>
<use x="435.40" y="263.80" xlink:href="#r2"/>
<use x="480.40" y="254.80" xlink:href="#Hd"/>
<path d="M476.90 254.80v31.00" class="stroke"/>
<use x="480.40" y="266.80" xlink:href="#Hd"/>
<use x="480.40" y="260.80" xlink:href="#Hd"/>
<use x="525.10" y="257.80" xlink:href="#Hd"/>
<path d="M521.60 257.80v31.00" class="stroke"/>
<use x="525.10" y="269.80" xlink:href="#Hd"/>
<use x="525.10" y="263.80" xlink:href="#Hd"/>
<use x="570.10" y="257.80" xlink:href="#Hd"/>
<path d="M566.60 257.80v31.00" class="stroke"/>
<use x="570.10" y="269.80" xlink:href="#Hd"/>
<use x="570.10" y="263.80" xlink:href="#Hd"/>
<use x="614.80" y="281.80" xlink:href="#hl"/>
<use x="614.80" y="281.80" xlink:href="#Hd"/>
<path d="M618.30 281.80v-31.00" class="stroke"/>
<use x="614.80" y="275.80" xlink:href="#Hd"/>
<use x="614.80" y="269.80" xlink:href="#Hd"/>
<use x="659.80" y="281.80" xlink:href="#hl"/>
<use x="659.80" y="281.80" xlink:href="#Hd"/>
<path d="M663.30 281.80v-31.00" class="stroke"/>
<use x="659.80" y="275.80" xlink:href="#Hd"/>
<use x="659.80" y="269.80" xlink:href="#Hd"/>
</g>
<g stroke-width="0.70" style="font:italic 11.00px Times">
<path class="stroke" stroke-width="1"
	d="M10.00 403.80v-82.00"/>
<g transform="translate(10.00,321.80) scale(1,0.82)">
	<use xlink:href="#brace"/>
</g>
<path class="stroke" stroke-width="1"
	d="M173.90 345.80v-24.00"/>
<path class="stroke" stroke-width="1"
	d="M173.90 403.80v-24.00"/>
<path class="stroke" stroke-width="1"
	d="M320.20 345.80v-24.00"/>
<path class="stroke" stroke-width="1"
	d="M320.20 403.80v-24.00"/>
<path class="stroke" stroke-width="1"
	d="M466.50 345.80v-24.00"/>
<path class="stroke" stroke-width="1"
	d="M466.50 403.80v-24.00"/>
<path class="stroke" stroke-width="1"
	d="M591.90 345.80v-24.00"/>
<path class="stroke" stroke-width="1"
	d="M591.90 403.80v-24.00"/>
<path class="stroke" stroke-width="1"
	d="M691.60 345.80v-24.00"/>
<path class="stroke" stroke-width="1"
	d="M691.60 403.80v-24.00"/>
<path d="m10.00 345.80
	h681.60
	M10.00 339.80
	h681.60
	M10.00 333.80
	h681.60
	M10.00 327.80
	h681.60
	M10.00 321.80
	h681.60
	" class="stroke"/>
<path d="m10.00 403.80
	h681.60
	M10.00 397.80
	h681.60
	M10.00 391.80
	h681.60
	M10.00 385.80
	h681.60
	M10.00 379.80
	h681.60
	" class="stroke"/>
</g>
<g stroke-width="0.70" style="font:bold 13.00px Times">
<text x="62.10" y="317.20">V</text>
</g>
<g stroke-width="0.70" style="font:bold 13.00px Times">
<text x="181.70" y="315.20">ii<tspan
	 style="font:italic 11.00px Times">⁷</tspan></text>
</g>
<g stroke-width="0.70" style="font:bold 13.00px Times">
<text x="327.30" y="316.20">IV</text>
</g>
<g stroke-width="0.70" style="font:bold 13.00px Times">
<text x="473.80" y="315.20">IV</text>
</g>
<g stroke-width="0.70" style="font:bold 13.00px Times">
<text x="597.20" y="317.20">IV<tspan
	 style="font:italic 11.00px Times">¹</tspan></text>
</g>
<g stroke-width="0.70" style="font:italic 11.00px Times">
<use x="22.00" y="339.80" xlink:href="#tclef"/>
<use x="37.00" y="333.80" xlink:href="#ft0"/>
<use x="42.50" y="324.80" xlink:href="#ft0"/>
<use x="48.00" y="336.80" xlink:href="#ft0"/>
<use x="66.00" y="330.80" xlink:href="#hd"/>
<path d="M62.50 330.80v21.00" class="stroke"/>
<use x="102.00" y="330.80" xlink:href="#hd"/>
<path d="M98.50 330.80v21.00" class="stroke"/>
<use x="138.10" y="333.80" xlink:href="#Hd"/>
<path d="M134.60 333.80v21.00" class="stroke"/>
<use x="186.70" y="333.80" xlink:href="#r4"/>
<use x="222.80" y="333.80" xlink:href="#hd"/>
<path d="M219.30 333.80v21.00" class="stroke"/>
<use x="258.80" y="330.80" xlink:href="#hd"/>
<path d="M255.30 330.80v21.00" class="stroke"/>
<use x="294.90" y="327.80" xlink:href="#hd"/>
<path d="M291.40 327.80v21.00" class="stroke"/>
<use x="333.10" y="324.80" xlink:href="#hd"/>
<path d="M329.60 324.80v21.00" class="stroke"/>
<use x="369.10" y="327.80" xlink:href="#hd"/>
<path d="M365.60 327.80v21.00" class="stroke"/>
<use x="405.20" y="330.80" xlink:href="#hd"/>
<path d="M401.70 330.80v21.00" class="stroke"/>
<use x="441.20" y="330.80" xlink:href="#hd"/>
<path d="M437.70 330.80v21.00" class="stroke"/>
<use x="479.50" y="333.80" xlink:href="#Hd"/>
<path d="M476.00 333.80v21.00" class="stroke"/>
<use x="530.50" y="333.80" xlink:href="#r4"/>
<use x="566.60" y="333.80" xlink:href="#hd"/>
<path d="M563.10 333.80v21.00" class="stroke"/>
<use x="604.90" y="330.80" xlink:href="#Hd"/>
<path d="M601.40 330.80v21.00" class="stroke"/>
<use x="655.80" y="333.80" xlink:href="#Hd"/>
<path d="M652.30 333.80v21.00" class="stroke"/>
<use x="22.00" y="385.80" xlink:href="#bclef"/>
<use x="37.00" y="397.80" xlink:href="#ft0"/>
<use x="42.50" y="388.80" xlink:href="#ft0"/>
<use x="48.00" y="400.80" xlink:href="#ft0"/>
<use x="66.00" y="397.80" xlink:href="#hd"/>
<path d="M69.50 397.80v-31.00" class="stroke"/>
<use x="66.00" y="391.80" xlink:href="#hd"/>
<use x="66.00" y="385.80" xlink:href="#hd"/>
<use x="102.00" y="397.80" xlink:href="#hd"/>
<path d="M105.50 397.80v-31.00" class="stroke"/>
<use x="102.00" y="391.80" xlink:href="#hd"/>
<use x="102.00" y="385.80" xlink:href="#hd"/>
<use x="138.10" y="397.80" xlink:href="#Hd"/>
<path d="M141.60 397.80v-31.00" class="stroke"/>
<use x="138.10" y="391.80" xlink:href="#Hd"/>
<use x="138.10" y="385.80" xlink:href="#Hd"/>
<use x="186.70" y="391.80" xlink:href="#r4"/>
<use x="222.80" y="406.80" xlink:href="#hd"/>
<path d="M226.30 406.80v-31.00" class="stroke"/>
<use x="222.80" y="400.80" xlink:href="#hd"/>
<use x="222.80" y="394.80" xlink:href="#hd"/>
<use x="258.80" y="406.80" xlink:href="#hd"/>
<path d="M262.30 406.80v-31.00" class="stroke"/>
<use x="258.80" y="400.80" xlink:href="#hd"/>
<use x="258.80" y="394.80" xlink:href="#hd"/>
<use x="294.90" y="406.80" xlink:href="#hd"/>
<path d="M298.40 406.80v-31.00" class="stroke"/>
<use x="294.90" y="400.80" xlink:href="#hd"/>
<use x="294.90" y="394.80" xlink:href="#hd"/>
<use x="333.10" y="400.80" xlink:href="#hd"/>
<path d="M336.60 400.80v-31.00" class="stroke"/>
<use x="333.10" y="394.80" xlink:href="#hd"/>
<use x="333.10" y="388.80" xlink:href="#hd"/>
<use x="369.10" y="400.80" xlink:href="#hd"/>
<path d="M372.60 400.80v-31.00" class="stroke"/>
<use x="369.10" y="394.80" xlink:href="#hd"/>
<use x="369.10" y="388.80" xlink:href="#hd"/>
<use x="405.20" y="400.80" xlink:href="#hd"/>
<path d="M408.70 400.80v-31.00" class="stroke"/>
<use x="405.20" y="394.80" xlink:href="#hd"/>
<use x="405.20" y="388.80" xlink:href="#hd"/>
<use x="441.20" y="400.80" xlink:href="#hd"/>
<path d="M444.70 400.80v-31.00" class="stroke"/>
<use x="441.20" y="394.80" xlink:href="#hd"/>
<use x="441.20" y="388.80" xlink:href="#hd"/>
<use x="479.50" y="400.80" xlink:href="#Hd"/>
<path d="M483.00 400.80v-31.00" class="stroke"/>
<use x="479.50" y="394.80" xlink:href="#Hd"/>
<use x="479.50" y="388.80" xlink:href="#Hd"/>
<use x="530.50" y="391.80" xlink:href="#r4"/>
<use x="566.60" y="400.80" xlink:href="#hd"/>
<path d="M570.10 400.80v-31.00" class="stroke"/>
<use x="566.60" y="394.80" xlink:href="#hd"/>
<use x="566.60" y="388.80" xlink:href="#hd"/>
<use x="604.90" y="400.80" xlink:href="#Hd"/>
<path d="M608.40 400.80v-31.00" class="stroke"/>
<use x="604.90" y="394.80" xlink:href="#Hd"/>
<use x="604.90" y="388.80" xlink:href="#Hd"/>
<use x="655.80" y="400.80" xlink:href="#Hd"/>
<path d="M659.30 400.80v-31.00" class="stroke"/>
<use x="655.80" y="394.80" xlink:href="#Hd"/>
<use x="655.80" y="388.80" xlink:href="#Hd"/>
</g>
<g stroke-width="0.70" style="font:italic 11.00px Times">
<path class="stroke" stroke-width="1"
	d="M10.00 534.20v-82.00"/>
<g transform="translate(10.00,452.20) scale(1,0.82)">
	<use xlink:href="#brace"/>
</g>
<path class="stroke" stroke-width="1"
	d="M167.00 476.20v-24.00"/>
<path class="stroke" stroke-width="1"
	d="M167.00 534.20v-24.00"/>
<path class="stroke" stroke-width="1"
	d="M228.30 476.20v-24.00"/>
<path class="stroke" stroke-width="1"
	d="M228.30 534.20v-24.00"/>
<path class="stroke" stroke-width="1"
	d="M322.40 476.20v-24.00"/>
<path class="stroke" stroke-width="1"
	d="M322.40 534.20v-24.00"/>
<path class="stroke" stroke-width="1"
	d="M416.60 476.20v-24.00"/>
<path class="stroke" stroke-width="1"
	d="M416.60 534.20v-24.00"/>
<path class="stroke" stroke-width="1"
	d="M554.20 476.20v-24.00"/>
<path class="stroke" stroke-width="1"
	d="M554.20 534.20v-24.00"/>
<path class="stroke" stroke-width="1"
	d="M691.60 476.20v-24.00"/>
<path class="stroke" stroke-width="1"
	d="M691.60 534.20v-24.00"/>
<path d="m10.00 476.20
	h681.60
	M10.00 470.20
	h681.60
	M10.00 464.20
	h681.60
	M10.00 458.20
	h681.60
	M10.00 452.20
	h681.60
	" class="stroke"/>
<path d="m10.00 534.20
	h681.60
	M10.00 528.20
	h681.60
	M10.00 522.20
	h681.60
	M10.00 516.20
	h681.60
	M10.00 510.20
	h681.60
	" class="stroke"/>
</g>
<g stroke-width="0.70" style="font:bold 13.00px Times">
<text x="62.20" y="439.60">I<tspan
	 style="font:italic 11.00px Times">⁷</tspan></text>
</g>
<g stroke-width="0.70" style="font:bold 13.00px Times">
<text x="179.20" y="447.60">I</text>
</g>
<g stroke-width="0.70" style="font:bold 13.00px Times">
<text x="237.50" y="436.60">I<tspan
	 style="font:italic 11.00px Times">²</tspan></text>
</g>
<g stroke-width="0.70" style="font:bold 13.00px Times">
<text x="333.60" y="436.60">I</text>
</g>
<g stroke-width="0.70" style="font:bold 13.00px Times">
<text x="427.30" y="442.60">I</text>
</g>
<g stroke-width="0.70" style="font:bold 13.00px Times">
<text x="562.40" y="442.60">vi</text>
<use x="22.00" y="470.20" xlink:href="#tclef"/>
<use x="37.00" y="464.20" xlink:href="#ft0"/>
<use x="42.50" y="455.20" xlink:href="#ft0"/>
<use x="48.00" y="467.20" xlink:href="#ft0"/>
<use x="66.00" y="467.20" xlink:href="#hd"/>
<path d="M69.50 467.20v-21.00" class="stroke"/>
<use x="99.80" y="470.20" xlink:href="#hd"/>
<path d="M103.30 470.20v-21.00" class="stroke"/>
<use x="133.50" y="473.20" xlink:href="#Hd"/>
<path d="M137.00 473.20v-21.00" class="stroke"/>
<use x="182.00" y="476.20" xlink:href="#HD"/>
<use x="241.30" y="464.20" xlink:href="#Hd"/>
<path d="M244.80 464.20v-21.00" class="stroke"/>
<use x="288.90" y="470.20" xlink:href="#Hd"/>
<path d="M292.40 470.20v-21.00" class="stroke"/>
<use x="335.40" y="464.20" xlink:href="#Hd"/>
<path d="M338.90 464.20v-21.00" class="stroke"/>
<use x="383.10" y="470.20" xlink:href="#Hd"/>
<path d="M386.60 470.20v-21.00" class="stroke"/>
<use x="429.10" y="470.20" xlink:href="#hd"/>
<path d="M432.60 470.20v-21.00" class="stroke"/>
<use x="462.90" y="470.20" xlink:href="#hd"/>
<path d="M466.40 470.20v-21.00" class="stroke"/>
<use x="496.60" y="473.20" xlink:href="#hd"/>
<path d="M500.10 473.20v-21.00" class="stroke"/>
<use x="530.40" y="473.20" xlink:href="#hd"/>
<path d="M533.90 473.20v-21.00" class="stroke"/>
<use x="566.70" y="470.20" xlink:href="#hd"/>
<path d="M570.20 470.20v-21.00" class="stroke"/>
<use x="600.40" y="470.20" xlink:href="#hd"/>
<path d="M603.90 470.20v-21.00" class="stroke"/>
<use x="634.10" y="473.20" xlink:href="#hd"/>
<path d="M637.60 473.20v-21.00" class="stroke"/>
<use x="667.80" y="473.20" xlink:href="#hd"/>
<path d="M671.30 473.20v-21.00" class="stroke"/>
<use x="22.00" y="516.20" xlink:href="#bclef"/>
<use x="37.00" y="528.20" xlink:href="#ft0"/>
<use x="42.50" y="519.20" xlink:href="#ft0"/>
<use x="48.00" y="531.20" xlink:href="#ft0"/>
<use x="66.00" y="540.20" xlink:href="#hl"/>
<use x="66.00" y="540.20" xlink:href="#hd"/>
<path d="M69.50 540.20v-31.00" class="stroke"/>
<use x="66.00" y="534.20" xlink:href="#hd"/>
<use x="66.00" y="528.20" xlink:href="#hd"/>
<use x="99.80" y="540.20" xlink:href="#hl"/>
<use x="99.80" y="540.20" xlink:href="#hd"/>
<path d="M103.30 540.20v-31.00" class="stroke"/>
<use x="99.80" y="534.20" xlink:href="#hd"/>
<use x="99.80" y="528.20" xlink:href="#hd"/>
<use x="133.50" y="540.20" xlink:href="#hl"/>
<use x="133.50" y="540.20" xlink:href="#Hd"/>
<path d="M137.00 540.20v-31.00" class="stroke"/>
<use x="133.50" y="534.20" xlink:href="#Hd"/>
<use x="133.50" y="528.20" xlink:href="#Hd"/>
<use x="182.00" y="540.20" xlink:href="#hl1"/>
<use x="182.00" y="540.20" xlink:href="#HD"/>
<use x="182.00" y="534.20" xlink:href="#HD"/>
<use x="182.00" y="528.20" xlink:href="#HD"/>
<use x="241.30" y="540.20" xlink:href="#hl"/>
<use x="241.30" y="540.20" xlink:href="#Hd"/>
<path d="M244.80 540.20v-31.00" class="stroke"/>
<use x="241.30" y="534.20" xlink:href="#Hd"/>
<use x="241.30" y="528.20" xlink:href="#Hd"/>
<use x="288.90" y="540.20" xlink:href="#hl"/>
<use x="288.90" y="540.20" xlink:href="#Hd"/>
<path d="M292.40 540.20v-31.00" class="stroke"/>
<use x="288.90" y="534.20" xlink:href="#Hd"/>
<use x="288.90" y="528.20" xlink:href="#Hd"/>
<use x="335.40" y="540.20" xlink:href="#hl"/>
<use x="335.40" y="540.20" xlink:href="#Hd"/>
<path d="M338.90 540.20v-31.00" class="stroke"/>
<use x="335.40" y="534.20" xlink:href="#Hd"/>
<use x="335.40" y="528.20" xlink:href="#Hd"/>
<use x="383.10" y="540.20" xlink:href="#hl"/>
<use x="383.10" y="540.20" xlink:href="#Hd"/>
<path d="M386.60 540.20v-31.00" class="stroke"/>
<use x="383.10" y="534.20" xlink:href="#Hd"/>
<use x="383.10" y="528.20" xlink:href="#Hd"/>
<use x="429.10" y="540.20" xlink:href="#hl"/>
<use x="429.10" y="540.20" xlink:href="#hd"/>
<path d="M432.60 540.20v-31.00" class="stroke"/>
<use x="429.10" y="534.20" xlink:href="#hd"/>
<use x="429.10" y="528.20" xlink:href="#hd"/>
<use x="462.90" y="540.20" xlink:href="#hl"/>
<use x="462.90" y="540.20" xlink:href="#hd"/>
<path d="M466.40 540.20v-31.00" class="stroke"/>
<use x="462.90" y="534.20" xlink:href="#hd"/>
<use x="462.90" y="528.20" xlink:href="#hd"/>
<use x="496.60" y="540.20" xlink:href="#hl"/>
<use x="496.60" y="540.20" xlink:href="#hd"/>
<path d="M500.10 540.20v-31.00" class="stroke"/>
<use x="496.60" y="534.20" xlink:href="#hd"/>
<use x="496.60" y="528.20" xlink:href="#hd"/>
<use x="530.40" y="540.20" xlink:href="#hl"/>
<use x="530.40" y="540.20" xlink:href="#hd"/>
<path d="M533.90 540.20v-31.00" class="stroke"/>
<use x="530.40" y="534.20" xlink:href="#hd"/>
<use x="530.40" y="528.20" xlink:href="#hd"/>
<use x="566.70" y="513.20" xlink:href="#hd"/>
<path d="M563.20 513.20v31.00" class="stroke"/>
<use x="566.70" y="525.20" xlink:href="#hd"/>
<use x="566.70" y="519.20" xlink:href="#hd"/>
<use x="600.40" y="513.20" xlink:href="#hd"/>
<path d="M596.90 513.20v31.00" class="stroke"/>
<use x="600.40" y="525.20" xlink:href="#hd"/>
<use x="600.40" y="519.20" xlink:href="#hd"/>
<use x="634.10" y="513.20" xlink:href="#hd"/>
<path d="M630.60 513.20v31.00" class="stroke"/>
<use x="634.10" y="525.20" xlink:href="#hd"/>
<use x="634.10" y="519.20" xlink:href="#hd"/>
<use x="667.80" y="513.20" xlink:href="#hd"/>
<path d="M664.30 513.20v31.00" class="stroke"/>
<use x="667.80" y="525.20" xlink:href="#hd"/>
<use x="667.80" y="519.20" xlink:href="#hd"/>
</g>
<g stroke-width="0.70" style="font:bold 13.00px Times">
<path class="stroke" stroke-width="1"
	d="M10.00 662.20v-82.00"/>
<g transform="translate(10.00,580.20) scale(1,0.82)">
	<use xlink:href="#brace"/>
</g>
<path class="stroke" stroke-width="1"
	d="M227.70 604.20v-24.00"/>
<path class="stroke" stroke-width="1"
	d="M227.70 662.20v-24.00"/>
<path class="stroke" stroke-width="1"
	d="M348.30 604.20v-24.00"/>
<path class="stroke" stroke-width="1"
	d="M348.30 662.20v-24.00"/>
<path class="stroke" stroke-width="1"
	d="M468.80 604.20v-24.00"/>
<path class="stroke" stroke-width="1"
	d="M468.80 662.20v-24.00"/>
<path class="stroke" stroke-width="1"
	d="M615.00 604.20v-24.00"/>
<path class="stroke" stroke-width="1"
	d="M615.00 662.20v-24.00"/>
<path class="stroke" stroke-width="1"
	d="M691.60 604.20v-24.00"/>
<path class="stroke" stroke-width="1"
	d="M691.60 662.20v-24.00"/>
<path d="m10.00 604.20
	h681.60
	M10.00 598.20
	h681.60
	M10.00 592.20
	h681.60
	M10.00 586.20
	h681.60
	M10.00 580.20
	h681.60
	" class="stroke"/>
<path d="m10.00 662.20
	h681.60
	M10.00 656.20
	h681.60
	M10.00 650.20
	h681.60
	M10.00 644.20
	h681.60
	M10.00 638.20
	h681.60
	" class="stroke"/>
</g>
<g stroke-width="0.70" style="font:bold 13.00px Times">
<text x="58.30" y="570.60">IV<tspan
	 style="font:italic 11.00px Times">⁷</tspan></text>
</g>
<g stroke-width="0.70" style="font:bold 13.00px Times">
<text x="237.40" y="574.60">IV</text>
</g>
<g stroke-width="0.70" style="font:bold 13.00px Times">
<text x="355.70" y="575.60">IV<tspan
	 style="font:italic 11.00px Times">⁷²</tspan></text>
</g>
<g stroke-width="0.70" style="font:bold 13.00px Times">
<text x="482.50" y="567.60">I</text>
</g>
<g stroke-width="0.70" style="font:bold 13.00px Times">
<text x="628.60" y="575.60">I</text>
<use x="22.00" y="598.20" xlink:href="#tclef"/>
<use x="37.00" y="592.20" xlink:href="#ft0"/>
<use x="42.50" y="583.20" xlink:href="#ft0"/>
<use x="48.00" y="595.20" xlink:href="#ft0"/>
<use x="66.00" y="598.20" xlink:href="#hd"/>
<path d="M69.50 598.20v-21.00" class="stroke"/>
<use x="109.70" y="598.20" xlink:href="#hd"/>
<path d="M113.20 598.20v-21.00" class="stroke"/>
<use x="153.40" y="601.20" xlink:href="#hd"/>
<path d="M156.90 601.20v-21.00" class="stroke"/>
<use x="197.10" y="604.20" xlink:href="#hd"/>
<path d="M200.60 604.20v-21.00" class="stroke"/>
<use x="243.10" y="583.20" xlink:href="#Hd"/>
<path d="M239.60 583.20v21.00" class="stroke"/>
<use x="305.00" y="592.20" xlink:href="#Hd"/>
<path d="M301.50 592.20v21.00" class="stroke"/>
<use x="363.70" y="589.20" xlink:href="#Hd"/>
<path d="M360.20 589.20v21.00" class="stroke"/>
<use x="425.50" y="592.20" xlink:href="#Hd"/>
<path d="M422.00 592.20v21.00" class="stroke"/>
<use x="484.30" y="595.20" xlink:href="#hd"/>
<path d="M487.80 595.20v-21.00" class="stroke"/>
<use x="528.00" y="598.20" xlink:href="#hd"/>
<path d="M531.50 598.20v-21.00" class="stroke"/>
<use x="571.70" y="601.20" xlink:href="#Hd"/>
<path d="M575.20 601.20v-21.00" class="stroke"/>
<use x="631.40" y="604.20" xlink:href="#HD"/>
<use x="22.00" y="644.20" xlink:href="#bclef"/>
<use x="37.00" y="656.20" xlink:href="#ft0"/>
<use x="42.50" y="647.20" xlink:href="#ft0"/>
<use x="48.00" y="659.20" xlink:href="#ft0"/>
<use x="66.00" y="659.20" xlink:href="#hd"/>
<path d="M69.50 659.20v-31.00" class="stroke"/>
<use x="66.00" y="653.20" xlink:href="#hd"/>
<use x="66.00" y="647.20" xlink:href="#hd"/>
<use x="109.70" y="659.20" xlink:href="#hd"/>
<path d="M113.20 659.20v-31.00" class="stroke"/>
<use x="109.70" y="653.20" xlink:href="#hd"/>
<use x="109.70" y="647.20" xlink:href="#hd"/>
<use x="153.40" y="659.20" xlink:href="#hd"/>
<path d="M156.90 659.20v-31.00" class="stroke"/>
<use x="153.40" y="653.20" xlink:href="#hd"/>
<use x="153.40" y="647.20" xlink:href="#hd"/>
<use x="197.10" y="659.20" xlink:href="#hd"/>
<path d="M200.60 659.20v-31.00" class="stroke"/>
<use x="197.10" y="653.20" xlink:href="#hd"/>
<use x="197.10" y="647.20" xlink:href="#hd"/>
<use x="243.10" y="659.20" xlink:href="#Hd"/>
<path d="M246.60 659.20v-31.00" class="stroke"/>
<use x="243.10" y="653.20" xlink:href="#Hd"/>
<use x="243.10" y="647.20" xlink:href="#Hd"/>
<use x="305.00" y="659.20" xlink:href="#Hd"/>
<path d="M308.50 659.20v-31.00" class="stroke"/>
<use x="305.00" y="653.20" xlink:href="#Hd"/>
<use x="305.00" y="647.20" xlink:href="#Hd"/>
<use x="363.70" y="659.20" xlink:href="#Hd"/>
<path d="M367.20 659.20v-31.00" class="stroke"/>
<use x="363.70" y="653.20" xlink:href="#Hd"/>
<use x="363.70" y="647.20" xlink:href="#Hd"/>
<use x="425.50" y="659.20" xlink:href="#Hd"/>
<path d="M429.00 659.20v-31.00" class="stroke"/>
<use x="425.50" y="653.20" xlink:href="#Hd"/>
<use x="425.50" y="647.20" xlink:href="#Hd"/>
<use x="484.30" y="668.20" xlink:href="#hl"/>
<use x="484.30" y="668.20" xlink:href="#hd"/>
<path d="M487.80 668.20v-31.00" class="stroke"/>
<use x="484.30" y="662.20" xlink:href="#hd"/>
<use x="484.30" y="656.20" xlink:href="#hd"/>
<use x="528.00" y="668.20" xlink:href="#hl"/>
<use x="528.00" y="668.20" xlink:href="#hd"/>
<path d="M531.50 668.20v-31.00" class="stroke"/>
<use x="528.00" y="662.20" xlink:href="#hd"/>
<use x="528.00" y="656.20" xlink:href="#hd"/>
<use x="571.70" y="668.20" xlink:href="#hl"/>
<use x="571.70" y="668.20" xlink:href="#Hd"/>
<path d="M575.20 668.20v-31.00" class="stroke"/>
<use x="571.70" y="662.20" xlink:href="#Hd"/>
<use x="571.70" y="656.20" xlink:href="#Hd"/>
<use x="631.40" y="668.20" xlink:href="#hl1"/>
<use x="631.40" y="668.20" xlink:href="#HD"/>
<use x="631.40" y="662.20" xlink:href="#HD"/>
<use x="631.40" y="656.20" xlink:href="#HD"/>
</g>
</svg>
