<?xml version="1.0" standalone="no"?>
<!DOCTYPE svg PUBLIC "-//W3C//DTD SVG 1.1//EN"
	"http://www.w3.org/Graphics/SVG/1.1/DTD/svg11.dtd">
<svg xmlns="http://www.w3.org/2000/svg" version="1.1"
	xmlns:xlink="http://www.w3.org/1999/xlink"
	color="black"
	width="701.60px" height="680.40px" viewBox="0 0 701.60 680.40" preserveAspectRatio="xMidYMid meet">
<style type="text/css">
.fill {fill: currentColor}
.stroke {stroke: currentColor; fill: none}
text{white-space: pre}
</style>
<title>/tmp/retab_hymnal_L1/one_thing_s_needful.abc (1) tune 1</title>
<!-- Creator: abcm2ps-8.14.11 -->
<!-- CreationDate: Apr 24, 2026 15:38 -->
<!-- CommandLine: /tmp/retab_hymnal_L1/one_thing_s_needful.abc -g -O /tmp/retab_hymnal_L1/one_thing_s_needful -->
<g stroke-width="0.70">
<!-- title: 196. One Thing's Needful -->
</g>
<g stroke-width="0.70" style="font:20.00px Times">
<text x="350.80" y="22.00" text-anchor="middle">196. One Thing&apos;s Needful</text>
</g>
<g stroke-width="0.70" style="font:20.00px Times">
<path class="stroke" stroke-width="1"
	d="M10.00 145.40v-82.00"/>
<defs>
<path id="brace" class="fill" d="m-2.5 101
	c-4.5 -4.6 -7.5 -12.2 -4.4 -26.8
	3.5 -14.3 3.2 -21.7 -2.1 -24.2
	7.4 2.4 7.3 14.2 3.5 29.5
	-2.7 9.5 -1.5 16.2 3 21.5
	M-2.5 1c-4.5 4.6 -7.5 12.2 -4.4 26.8
	c3.5 14.3 3.2 21.7 -2.1 24.2
	7.4 -2.4 7.3 -14.2 3.5 -29.5
	-2.7 -9.5 -1.5 -16.2 3 -21.5"/>
</defs>
<g transform="translate(10.00,63.40) scale(1,0.82)">
	<use xlink:href="#brace"/>
</g>
<path class="stroke" stroke-width="1"
	d="M198.40 87.40v-24.00"/>
<path class="stroke" stroke-width="1"
	d="M198.40 145.40v-24.00"/>
<path class="stroke" stroke-width="1"
	d="M327.40 87.40v-24.00"/>
<path class="stroke" stroke-width="1"
	d="M327.40 145.40v-24.00"/>
<path class="stroke" stroke-width="1"
	d="M456.10 87.40v-24.00"/>
<path class="stroke" stroke-width="1"
	d="M456.10 145.40v-24.00"/>
<path class="stroke" stroke-width="1"
	d="M562.60 87.40v-24.00"/>
<path class="stroke" stroke-width="1"
	d="M562.60 145.40v-24.00"/>
<path class="stroke" stroke-width="1"
	d="M691.60 87.40v-24.00"/>
<path class="stroke" stroke-width="1"
	d="M691.60 145.40v-24.00"/>
<path d="m10.00 87.40
	h681.60
	M10.00 81.40
	h681.60
	M10.00 75.40
	h681.60
	M10.00 69.40
	h681.60
	M10.00 63.40
	h681.60
	" class="stroke"/>
<path d="m10.00 145.40
	h681.60
	M10.00 139.40
	h681.60
	M10.00 133.40
	h681.60
	M10.00 127.40
	h681.60
	M10.00 121.40
	h681.60
	" class="stroke"/>
</g>
<g stroke-width="0.70" style="font:bold 13.00px Times">
<text x="80.20" y="58.80">I</text>
</g>
<g stroke-width="0.70" style="font:bold 13.00px Times">
<text x="209.10" y="57.80">I</text>
</g>
<g stroke-width="0.70" style="font:bold 13.00px Times">
<text x="334.10" y="56.80">IV</text>
</g>
<g stroke-width="0.70" style="font:bold 13.00px Times">
<text x="466.80" y="50.80">I</text>
</g>
<g stroke-width="0.70" style="font:bold 13.00px Times">
<text x="573.30" y="47.80">I</text>
<defs>
<path id="utclef" class="fill" d="m-50 -90
	c-72 -41 -72 -158 52 -188
	150 -10 220 188 90 256
	-114 52 -275 0 -293 -136
	-15 -181 93 -229 220 -334
	88 -87 79 -133 62 -210
	-51 33 -94 105 -89 186
	17 267 36 374 49 574
	6 96 -19 134 -77 135
	-80 1 -126 -93 -61 -133
	85 -41 133 101 31 105
	23 17 92 37 90 -92
	-10 -223 -39 -342 -50 -617
	0 -90 0 -162 96 -232
	56 72 63 230 22 289
	-74 106 -257 168 -255 316
	9 153 148 185 252 133
	86 -65 29 -192 -80 -176
	-71 12 -105 67 -59 124"/>
<use id="tclef" transform="translate(0,6) scale(0.045)"
	xlink:href="#utclef"/>
</defs>
<use x="22.00" y="81.40" xlink:href="#tclef"/>
<defs>
<path id="uflat" class="fill" d="
	m100 -746
	h32
	v734
	l-32 4
	m32 -332
	c46 -72 152 -90 208 -20
	100 110 -120 326 -208 348
	m0 -28
	c54 0 200 -206 130 -290
	-50 -60 -130 -4 -130 34"/>
<use id="ft0" transform="translate(-3.5,3.5) scale(0.018)"
	xlink:href="#uflat"/>
</defs>
<use x="37.00" y="75.40" xlink:href="#ft0"/>
<use x="42.50" y="66.40" xlink:href="#ft0"/>
<use x="48.00" y="78.40" xlink:href="#ft0"/>
<g style="font:bold 16px serif"
	transform="translate(64.00,86.90) scale(1.2,1)">
	<text text-anchor="middle">4</text>
	<text y="-12" text-anchor="middle">4</text>
</g>
<defs>
<ellipse id="hd" rx="4.1" ry="2.9"
	transform="rotate(-20)" class="fill"/>
</defs>
<use x="82.00" y="75.40" xlink:href="#hd"/>
<path d="M78.50 75.40v21.00" class="stroke"/>
<use x="113.40" y="75.40" xlink:href="#hd"/>
<path d="M109.90 75.40v21.00" class="stroke"/>
<use x="144.80" y="72.40" xlink:href="#hd"/>
<path d="M141.30 72.40v21.00" class="stroke"/>
<use x="176.20" y="69.40" xlink:href="#hd"/>
<path d="M172.70 69.40v21.00" class="stroke"/>
<use x="210.90" y="66.40" xlink:href="#hd"/>
<path d="M207.40 66.40v21.00" class="stroke"/>
<use x="242.30" y="66.40" xlink:href="#hd"/>
<path d="M238.80 66.40v21.00" class="stroke"/>
<use x="273.70" y="69.40" xlink:href="#hd"/>
<path d="M270.20 69.40v21.00" class="stroke"/>
<use x="305.10" y="69.40" xlink:href="#hd"/>
<path d="M301.60 69.40v21.00" class="stroke"/>
<use x="339.90" y="72.40" xlink:href="#hd"/>
<path d="M336.40 72.40v21.00" class="stroke"/>
<use x="371.20" y="72.40" xlink:href="#hd"/>
<path d="M367.70 72.40v21.00" class="stroke"/>
<use x="402.50" y="75.40" xlink:href="#hd"/>
<path d="M399.00 75.40v21.00" class="stroke"/>
<use x="433.90" y="81.40" xlink:href="#hd"/>
<path d="M437.40 81.40v-21.00" class="stroke"/>
<use x="468.60" y="78.40" xlink:href="#hd"/>
<path d="M472.10 78.40v-21.00" class="stroke"/>
<use x="500.00" y="84.40" xlink:href="#hd"/>
<path d="M503.50 84.40v-21.00" class="stroke"/>
<defs>
<path id="Hd" class="fill" d="m3 -1.6
	c-1 -1.8 -7 1.4 -6 3.2
	1 1.8 7 -1.4 6 -3.2
	m0.5 -0.3
	c2 3.8 -5 7.6 -7 3.8
	-2 -3.8 5 -7.6 7 -3.8"/>
</defs>
<use x="531.40" y="87.40" xlink:href="#Hd"/>
<path d="M534.90 87.40v-21.00" class="stroke"/>
<use x="575.10" y="75.40" xlink:href="#hd"/>
<path d="M578.60 75.40v-21.00" class="stroke"/>
<use x="606.50" y="75.40" xlink:href="#hd"/>
<path d="M610.00 75.40v-21.00" class="stroke"/>
<use x="638.00" y="72.40" xlink:href="#hd"/>
<path d="M634.50 72.40v21.00" class="stroke"/>
<use x="669.40" y="69.40" xlink:href="#hd"/>
<path d="M665.90 69.40v21.00" class="stroke"/>
<defs>
<path id="ubclef" class="fill" d="m-200 -87
	c124 -35 222 -78 254 -236
	43 -228 -167 -246 -192 -103
	59 -80 157 22 92 78
	-62 47 -115 -22 -106 -88
	21 -141 270 -136 274 52
	-1 175 -106 264 -322 297
	m357 -250
	c0 -36 51 -34 51 0
	0 37 -51 36 -51 0
	m-2 -129
	c0 -36 51 -34 51 0
	0 38 -51 37 -51 0"/>
<use id="bclef" transform="translate(0,18) scale(0.045)"
	xlink:href="#ubclef"/>
</defs>
<use x="22.00" y="127.40" xlink:href="#bclef"/>
<use x="37.00" y="139.40" xlink:href="#ft0"/>
<use x="42.50" y="130.40" xlink:href="#ft0"/>
<use x="48.00" y="142.40" xlink:href="#ft0"/>
<g style="font:bold 16px serif"
	transform="translate(64.00,144.90) scale(1.2,1)">
	<text text-anchor="middle">4</text>
	<text y="-12" text-anchor="middle">4</text>
</g>
<defs>
<path id="hl" class="stroke" d="m-6 0h12"/>
</defs>
<use x="82.00" y="151.40" xlink:href="#hl"/>
<use x="82.00" y="151.40" xlink:href="#hd"/>
<path d="M85.50 151.40v-31.00" class="stroke"/>
<use x="82.00" y="145.40" xlink:href="#hd"/>
<use x="82.00" y="139.40" xlink:href="#hd"/>
<use x="113.40" y="151.40" xlink:href="#hl"/>
<use x="113.40" y="151.40" xlink:href="#hd"/>
<path d="M116.90 151.40v-31.00" class="stroke"/>
<use x="113.40" y="145.40" xlink:href="#hd"/>
<use x="113.40" y="139.40" xlink:href="#hd"/>
<use x="144.80" y="151.40" xlink:href="#hl"/>
<use x="144.80" y="151.40" xlink:href="#hd"/>
<path d="M148.30 151.40v-31.00" class="stroke"/>
<use x="144.80" y="145.40" xlink:href="#hd"/>
<use x="144.80" y="139.40" xlink:href="#hd"/>
<use x="176.20" y="151.40" xlink:href="#hl"/>
<use x="176.20" y="151.40" xlink:href="#hd"/>
<path d="M179.70 151.40v-31.00" class="stroke"/>
<use x="176.20" y="145.40" xlink:href="#hd"/>
<use x="176.20" y="139.40" xlink:href="#hd"/>
<use x="210.90" y="151.40" xlink:href="#hl"/>
<use x="210.90" y="151.40" xlink:href="#hd"/>
<path d="M214.40 151.40v-31.00" class="stroke"/>
<use x="210.90" y="145.40" xlink:href="#hd"/>
<use x="210.90" y="139.40" xlink:href="#hd"/>
<use x="242.30" y="151.40" xlink:href="#hl"/>
<use x="242.30" y="151.40" xlink:href="#hd"/>
<path d="M245.80 151.40v-31.00" class="stroke"/>
<use x="242.30" y="145.40" xlink:href="#hd"/>
<use x="242.30" y="139.40" xlink:href="#hd"/>
<use x="273.70" y="151.40" xlink:href="#hl"/>
<use x="273.70" y="151.40" xlink:href="#hd"/>
<path d="M277.20 151.40v-31.00" class="stroke"/>
<use x="273.70" y="145.40" xlink:href="#hd"/>
<use x="273.70" y="139.40" xlink:href="#hd"/>
<use x="305.10" y="151.40" xlink:href="#hl"/>
<use x="305.10" y="151.40" xlink:href="#hd"/>
<path d="M308.60 151.40v-31.00" class="stroke"/>
<use x="305.10" y="145.40" xlink:href="#hd"/>
<use x="305.10" y="139.40" xlink:href="#hd"/>
<use x="339.90" y="142.40" xlink:href="#hd"/>
<path d="M343.40 142.40v-31.00" class="stroke"/>
<use x="339.90" y="136.40" xlink:href="#hd"/>
<use x="339.90" y="130.40" xlink:href="#hd"/>
<use x="371.20" y="142.40" xlink:href="#hd"/>
<path d="M374.70 142.40v-31.00" class="stroke"/>
<use x="371.20" y="136.40" xlink:href="#hd"/>
<use x="371.20" y="130.40" xlink:href="#hd"/>
<use x="402.50" y="142.40" xlink:href="#hd"/>
<path d="M406.00 142.40v-31.00" class="stroke"/>
<use x="402.50" y="136.40" xlink:href="#hd"/>
<use x="402.50" y="130.40" xlink:href="#hd"/>
<use x="433.90" y="142.40" xlink:href="#hd"/>
<path d="M437.40 142.40v-31.00" class="stroke"/>
<use x="433.90" y="136.40" xlink:href="#hd"/>
<use x="433.90" y="130.40" xlink:href="#hd"/>
<use x="468.60" y="151.40" xlink:href="#hl"/>
<use x="468.60" y="151.40" xlink:href="#hd"/>
<path d="M472.10 151.40v-31.00" class="stroke"/>
<use x="468.60" y="145.40" xlink:href="#hd"/>
<use x="468.60" y="139.40" xlink:href="#hd"/>
<use x="500.00" y="151.40" xlink:href="#hl"/>
<use x="500.00" y="151.40" xlink:href="#hd"/>
<path d="M503.50 151.40v-31.00" class="stroke"/>
<use x="500.00" y="145.40" xlink:href="#hd"/>
<use x="500.00" y="139.40" xlink:href="#hd"/>
<use x="531.40" y="151.40" xlink:href="#hl"/>
<use x="531.40" y="151.40" xlink:href="#Hd"/>
<path d="M534.90 151.40v-31.00" class="stroke"/>
<use x="531.40" y="145.40" xlink:href="#Hd"/>
<use x="531.40" y="139.40" xlink:href="#Hd"/>
<use x="575.10" y="151.40" xlink:href="#hl"/>
<use x="575.10" y="151.40" xlink:href="#hd"/>
<path d="M578.60 151.40v-31.00" class="stroke"/>
<use x="575.10" y="145.40" xlink:href="#hd"/>
<use x="575.10" y="139.40" xlink:href="#hd"/>
<use x="606.50" y="151.40" xlink:href="#hl"/>
<use x="606.50" y="151.40" xlink:href="#hd"/>
<path d="M610.00 151.40v-31.00" class="stroke"/>
<use x="606.50" y="145.40" xlink:href="#hd"/>
<use x="606.50" y="139.40" xlink:href="#hd"/>
<use x="638.00" y="151.40" xlink:href="#hl"/>
<use x="638.00" y="151.40" xlink:href="#hd"/>
<path d="M641.50 151.40v-31.00" class="stroke"/>
<use x="638.00" y="145.40" xlink:href="#hd"/>
<use x="638.00" y="139.40" xlink:href="#hd"/>
<use x="669.40" y="151.40" xlink:href="#hl"/>
<use x="669.40" y="151.40" xlink:href="#hd"/>
<path d="M672.90 151.40v-31.00" class="stroke"/>
<use x="669.40" y="145.40" xlink:href="#hd"/>
<use x="669.40" y="139.40" xlink:href="#hd"/>
</g>
<g stroke-width="0.70" style="font:bold 13.00px Times">
<path class="stroke" stroke-width="1"
	d="M10.00 273.40v-82.00"/>
<g transform="translate(10.00,191.40) scale(1,0.82)">
	<use xlink:href="#brace"/>
</g>
<path class="stroke" stroke-width="1"
	d="M214.70 215.40v-24.00"/>
<path class="stroke" stroke-width="1"
	d="M214.70 273.40v-24.00"/>
<path class="stroke" stroke-width="1"
	d="M377.60 215.40v-24.00"/>
<path class="stroke" stroke-width="1"
	d="M377.60 273.40v-24.00"/>
<path class="stroke" stroke-width="1"
	d="M512.00 215.40v-24.00"/>
<path class="stroke" stroke-width="1"
	d="M512.00 273.40v-24.00"/>
<path class="stroke" stroke-width="1"
	d="M691.60 215.40v-24.00"/>
<path class="stroke" stroke-width="1"
	d="M691.60 273.40v-24.00"/>
<path d="m10.00 215.40
	h681.60
	M10.00 209.40
	h681.60
	M10.00 203.40
	h681.60
	M10.00 197.40
	h681.60
	M10.00 191.40
	h681.60
	" class="stroke"/>
<path d="m10.00 273.40
	h681.60
	M10.00 267.40
	h681.60
	M10.00 261.40
	h681.60
	M10.00 255.40
	h681.60
	M10.00 249.40
	h681.60
	" class="stroke"/>
</g>
<g stroke-width="0.70" style="font:bold 13.00px Times">
<text x="64.20" y="185.80">I</text>
</g>
<g stroke-width="0.70" style="font:bold 13.00px Times">
<text x="223.20" y="186.80">IV</text>
</g>
<g stroke-width="0.70" style="font:bold 13.00px Times">
<text x="390.00" y="178.80">I</text>
</g>
<g stroke-width="0.70" style="font:bold 13.00px Times">
<text x="524.40" y="186.80">I</text>
<use x="22.00" y="209.40" xlink:href="#tclef"/>
<use x="37.00" y="203.40" xlink:href="#ft0"/>
<use x="42.50" y="194.40" xlink:href="#ft0"/>
<use x="48.00" y="206.40" xlink:href="#ft0"/>
<use x="66.00" y="194.40" xlink:href="#hd"/>
<path d="M62.50 194.40v21.00" class="stroke"/>
<use x="106.20" y="194.40" xlink:href="#hd"/>
<path d="M102.70 194.40v21.00" class="stroke"/>
<use x="146.40" y="197.40" xlink:href="#hd"/>
<path d="M142.90 197.40v21.00" class="stroke"/>
<use x="186.60" y="197.40" xlink:href="#hd"/>
<path d="M183.10 197.40v21.00" class="stroke"/>
<use x="228.90" y="200.40" xlink:href="#hd"/>
<path d="M225.40 200.40v21.00" class="stroke"/>
<use x="269.10" y="200.40" xlink:href="#hd"/>
<path d="M265.60 200.40v21.00" class="stroke"/>
<use x="309.30" y="203.40" xlink:href="#hd"/>
<path d="M305.80 203.40v21.00" class="stroke"/>
<use x="349.50" y="209.40" xlink:href="#hd"/>
<path d="M353.00 209.40v-21.00" class="stroke"/>
<use x="391.80" y="206.40" xlink:href="#hd"/>
<path d="M395.30 206.40v-21.00" class="stroke"/>
<use x="432.00" y="212.40" xlink:href="#hd"/>
<path d="M435.50 212.40v-21.00" class="stroke"/>
<use x="472.20" y="215.40" xlink:href="#Hd"/>
<path d="M475.70 215.40v-21.00" class="stroke"/>
<use x="526.20" y="215.40" xlink:href="#hd"/>
<path d="M529.70 215.40v-21.00" class="stroke"/>
<path class="fill"
	d="M529.70 194.40c0.6 5.6 9.6 9 5.6 18.4
	1.6 -6 -1.3 -11.6 -5.6 -12.8
"/>
<use x="554.70" y="212.40" xlink:href="#hd"/>
<path d="M558.20 212.40v-21.00" class="stroke"/>
<path class="fill"
	d="M558.20 191.40c0.6 5.6 9.6 9 5.6 18.4
	1.6 -6 -1.3 -11.6 -5.6 -12.8
"/>
<use x="583.10" y="209.40" xlink:href="#hd"/>
<path d="M586.60 209.40v-21.00" class="stroke"/>
<use x="623.30" y="209.40" xlink:href="#hd"/>
<path d="M626.80 209.40v-21.00" class="stroke"/>
<use x="663.50" y="209.40" xlink:href="#hd"/>
<path d="M667.00 209.40v-21.00" class="stroke"/>
<use x="22.00" y="255.40" xlink:href="#bclef"/>
<use x="37.00" y="267.40" xlink:href="#ft0"/>
<use x="42.50" y="258.40" xlink:href="#ft0"/>
<use x="48.00" y="270.40" xlink:href="#ft0"/>
<use x="66.00" y="279.40" xlink:href="#hl"/>
<use x="66.00" y="279.40" xlink:href="#hd"/>
<path d="M69.50 279.40v-31.00" class="stroke"/>
<use x="66.00" y="273.40" xlink:href="#hd"/>
<use x="66.00" y="267.40" xlink:href="#hd"/>
<use x="106.20" y="279.40" xlink:href="#hl"/>
<use x="106.20" y="279.40" xlink:href="#hd"/>
<path d="M109.70 279.40v-31.00" class="stroke"/>
<use x="106.20" y="273.40" xlink:href="#hd"/>
<use x="106.20" y="267.40" xlink:href="#hd"/>
<use x="146.40" y="279.40" xlink:href="#hl"/>
<use x="146.40" y="279.40" xlink:href="#hd"/>
<path d="M149.90 279.40v-31.00" class="stroke"/>
<use x="146.40" y="273.40" xlink:href="#hd"/>
<use x="146.40" y="267.40" xlink:href="#hd"/>
<use x="186.60" y="279.40" xlink:href="#hl"/>
<use x="186.60" y="279.40" xlink:href="#hd"/>
<path d="M190.10 279.40v-31.00" class="stroke"/>
<use x="186.60" y="273.40" xlink:href="#hd"/>
<use x="186.60" y="267.40" xlink:href="#hd"/>
<use x="228.90" y="270.40" xlink:href="#hd"/>
<path d="M232.40 270.40v-31.00" class="stroke"/>
<use x="228.90" y="264.40" xlink:href="#hd"/>
<use x="228.90" y="258.40" xlink:href="#hd"/>
<use x="269.10" y="270.40" xlink:href="#hd"/>
<path d="M272.60 270.40v-31.00" class="stroke"/>
<use x="269.10" y="264.40" xlink:href="#hd"/>
<use x="269.10" y="258.40" xlink:href="#hd"/>
<use x="309.30" y="270.40" xlink:href="#hd"/>
<path d="M312.80 270.40v-31.00" class="stroke"/>
<use x="309.30" y="264.40" xlink:href="#hd"/>
<use x="309.30" y="258.40" xlink:href="#hd"/>
<use x="349.50" y="270.40" xlink:href="#hd"/>
<path d="M353.00 270.40v-31.00" class="stroke"/>
<use x="349.50" y="264.40" xlink:href="#hd"/>
<use x="349.50" y="258.40" xlink:href="#hd"/>
<use x="391.80" y="279.40" xlink:href="#hl"/>
<use x="391.80" y="279.40" xlink:href="#hd"/>
<path d="M395.30 279.40v-31.00" class="stroke"/>
<use x="391.80" y="273.40" xlink:href="#hd"/>
<use x="391.80" y="267.40" xlink:href="#hd"/>
<use x="432.00" y="279.40" xlink:href="#hl"/>
<use x="432.00" y="279.40" xlink:href="#hd"/>
<path d="M435.50 279.40v-31.00" class="stroke"/>
<use x="432.00" y="273.40" xlink:href="#hd"/>
<use x="432.00" y="267.40" xlink:href="#hd"/>
<use x="472.20" y="279.40" xlink:href="#hl"/>
<use x="472.20" y="279.40" xlink:href="#Hd"/>
<path d="M475.70 279.40v-31.00" class="stroke"/>
<use x="472.20" y="273.40" xlink:href="#Hd"/>
<use x="472.20" y="267.40" xlink:href="#Hd"/>
<use x="526.20" y="279.40" xlink:href="#hl"/>
<use x="526.20" y="279.40" xlink:href="#hd"/>
<path d="M529.70 279.40v-31.00" class="stroke"/>
<path class="fill"
	d="M529.70 248.40c0.6 5.6 9.6 9 5.6 18.4
	1.6 -6 -1.3 -11.6 -5.6 -12.8
"/>
<use x="526.20" y="273.40" xlink:href="#hd"/>
<use x="526.20" y="267.40" xlink:href="#hd"/>
<use x="554.70" y="279.40" xlink:href="#hl"/>
<use x="554.70" y="279.40" xlink:href="#hd"/>
<path d="M558.20 279.40v-31.00" class="stroke"/>
<path class="fill"
	d="M558.20 248.40c0.6 5.6 9.6 9 5.6 18.4
	1.6 -6 -1.3 -11.6 -5.6 -12.8
"/>
<use x="554.70" y="273.40" xlink:href="#hd"/>
<use x="554.70" y="267.40" xlink:href="#hd"/>
<use x="583.10" y="279.40" xlink:href="#hl"/>
<use x="583.10" y="279.40" xlink:href="#hd"/>
<path d="M586.60 279.40v-31.00" class="stroke"/>
<use x="583.10" y="273.40" xlink:href="#hd"/>
<use x="583.10" y="267.40" xlink:href="#hd"/>
<use x="623.30" y="279.40" xlink:href="#hl"/>
<use x="623.30" y="279.40" xlink:href="#hd"/>
<path d="M626.80 279.40v-31.00" class="stroke"/>
<use x="623.30" y="273.40" xlink:href="#hd"/>
<use x="623.30" y="267.40" xlink:href="#hd"/>
<use x="663.50" y="279.40" xlink:href="#hl"/>
<use x="663.50" y="279.40" xlink:href="#hd"/>
<path d="M667.00 279.40v-31.00" class="stroke"/>
<use x="663.50" y="273.40" xlink:href="#hd"/>
<use x="663.50" y="267.40" xlink:href="#hd"/>
</g>
<g stroke-width="0.70" style="font:bold 13.00px Times">
<path class="stroke" stroke-width="1"
	d="M10.00 401.40v-82.00"/>
<g transform="translate(10.00,319.40) scale(1,0.82)">
	<use xlink:href="#brace"/>
</g>
<path class="stroke" stroke-width="1"
	d="M225.70 343.40v-24.00"/>
<path class="stroke" stroke-width="1"
	d="M225.70 401.40v-24.00"/>
<path class="stroke" stroke-width="1"
	d="M383.00 343.40v-24.00"/>
<path class="stroke" stroke-width="1"
	d="M383.00 401.40v-24.00"/>
<path class="stroke" stroke-width="1"
	d="M540.20 343.40v-24.00"/>
<path class="stroke" stroke-width="1"
	d="M540.20 401.40v-24.00"/>
<path class="stroke" stroke-width="1"
	d="M691.60 343.40v-24.00"/>
<path class="stroke" stroke-width="1"
	d="M691.60 401.40v-24.00"/>
<path d="m10.00 343.40
	h681.60
	M10.00 337.40
	h681.60
	M10.00 331.40
	h681.60
	M10.00 325.40
	h681.60
	M10.00 319.40
	h681.60
	" class="stroke"/>
<path d="m10.00 401.40
	h681.60
	M10.00 395.40
	h681.60
	M10.00 389.40
	h681.60
	M10.00 383.40
	h681.60
	M10.00 377.40
	h681.60
	" class="stroke"/>
</g>
<g stroke-width="0.70" style="font:bold 13.00px Times">
<text x="62.10" y="312.80">V</text>
</g>
<g stroke-width="0.70" style="font:bold 13.00px Times">
<text x="231.70" y="306.80">IV<tspan
	 style="font:italic 11.00px Times">¹</tspan></text>
</g>
<g stroke-width="0.70" style="font:bold 13.00px Times">
<text x="394.90" y="309.80">I</text>
</g>
<g stroke-width="0.70" style="font:bold 13.00px Times">
<text x="548.10" y="312.80">V<tspan
	 style="font:italic 11.00px Times">¹</tspan></text>
</g>
<g stroke-width="0.70" style="font:italic 11.00px Times">
<use x="22.00" y="337.40" xlink:href="#tclef"/>
<use x="37.00" y="331.40" xlink:href="#ft0"/>
<use x="42.50" y="322.40" xlink:href="#ft0"/>
<use x="48.00" y="334.40" xlink:href="#ft0"/>
<use x="66.00" y="340.40" xlink:href="#hd"/>
<path d="M69.50 340.40v-21.00" class="stroke"/>
<use x="104.80" y="340.40" xlink:href="#hd"/>
<path d="M108.30 340.40v-21.00" class="stroke"/>
<use x="143.60" y="340.40" xlink:href="#hd"/>
<path d="M147.10 340.40v-21.00" class="stroke"/>
<path class="fill"
	d="M147.10 319.40c0.6 5.6 9.6 9 5.6 18.4
	1.6 -6 -1.3 -11.6 -5.6 -12.8
"/>
<use x="171.00" y="337.40" xlink:href="#hd"/>
<path d="M174.50 337.40v-21.00" class="stroke"/>
<path class="fill"
	d="M174.50 316.40c0.6 5.6 9.6 9 5.6 18.4
	1.6 -6 -1.3 -11.6 -5.6 -12.8
"/>
<use x="198.50" y="334.40" xlink:href="#hd"/>
<path d="M202.00 334.40v-21.00" class="stroke"/>
<use x="239.40" y="334.40" xlink:href="#hd"/>
<path d="M242.90 334.40v-21.00" class="stroke"/>
<use x="278.20" y="334.40" xlink:href="#hd"/>
<path d="M281.70 334.40v-21.00" class="stroke"/>
<use x="317.00" y="337.40" xlink:href="#hd"/>
<path d="M320.50 337.40v-21.00" class="stroke"/>
<use x="355.80" y="337.40" xlink:href="#hd"/>
<path d="M359.30 337.40v-21.00" class="stroke"/>
<use x="396.70" y="337.40" xlink:href="#hd"/>
<path d="M400.20 337.40v-21.00" class="stroke"/>
<use x="435.50" y="328.40" xlink:href="#hd"/>
<path d="M432.00 328.40v21.00" class="stroke"/>
<use x="474.30" y="328.40" xlink:href="#hd"/>
<path d="M470.80 328.40v21.00" class="stroke"/>
<use x="513.10" y="328.40" xlink:href="#hd"/>
<path d="M509.60 328.40v21.00" class="stroke"/>
<use x="554.00" y="331.40" xlink:href="#hd"/>
<circle class="fill" cx="561.70" cy="328.40" r="1.2"/>
<path d="M550.50 331.40v21.00" class="stroke"/>
<use x="598.20" y="334.40" xlink:href="#hd"/>
<path d="M601.70 334.40v-21.00" class="stroke"/>
<path class="fill"
	d="M601.70 313.40c0.6 5.6 9.6 9 5.6 18.4
	1.6 -6 -1.3 -11.6 -5.6 -12.8
"/>
<use x="625.60" y="337.40" xlink:href="#hd"/>
<path d="M629.10 337.40v-21.00" class="stroke"/>
<use x="664.40" y="334.40" xlink:href="#hd"/>
<path d="M667.90 334.40v-21.00" class="stroke"/>
<use x="22.00" y="383.40" xlink:href="#bclef"/>
<use x="37.00" y="395.40" xlink:href="#ft0"/>
<use x="42.50" y="386.40" xlink:href="#ft0"/>
<use x="48.00" y="398.40" xlink:href="#ft0"/>
<use x="66.00" y="395.40" xlink:href="#hd"/>
<path d="M69.50 395.40v-31.00" class="stroke"/>
<use x="66.00" y="389.40" xlink:href="#hd"/>
<use x="66.00" y="383.40" xlink:href="#hd"/>
<use x="104.80" y="395.40" xlink:href="#hd"/>
<path d="M108.30 395.40v-31.00" class="stroke"/>
<use x="104.80" y="389.40" xlink:href="#hd"/>
<use x="104.80" y="383.40" xlink:href="#hd"/>
<use x="143.60" y="395.40" xlink:href="#hd"/>
<path d="M147.10 395.40v-31.00" class="stroke"/>
<path class="fill"
	d="M147.10 364.40c0.6 5.6 9.6 9 5.6 18.4
	1.6 -6 -1.3 -11.6 -5.6 -12.8
"/>
<use x="143.60" y="389.40" xlink:href="#hd"/>
<use x="143.60" y="383.40" xlink:href="#hd"/>
<use x="171.00" y="395.40" xlink:href="#hd"/>
<path d="M174.50 395.40v-31.00" class="stroke"/>
<path class="fill"
	d="M174.50 364.40c0.6 5.6 9.6 9 5.6 18.4
	1.6 -6 -1.3 -11.6 -5.6 -12.8
"/>
<use x="171.00" y="389.40" xlink:href="#hd"/>
<use x="171.00" y="383.40" xlink:href="#hd"/>
<use x="198.50" y="395.40" xlink:href="#hd"/>
<path d="M202.00 395.40v-31.00" class="stroke"/>
<use x="198.50" y="389.40" xlink:href="#hd"/>
<use x="198.50" y="383.40" xlink:href="#hd"/>
<use x="239.40" y="398.40" xlink:href="#hd"/>
<path d="M242.90 398.40v-31.00" class="stroke"/>
<use x="239.40" y="392.40" xlink:href="#hd"/>
<use x="239.40" y="386.40" xlink:href="#hd"/>
<use x="278.20" y="398.40" xlink:href="#hd"/>
<path d="M281.70 398.40v-31.00" class="stroke"/>
<use x="278.20" y="392.40" xlink:href="#hd"/>
<use x="278.20" y="386.40" xlink:href="#hd"/>
<use x="317.00" y="398.40" xlink:href="#hd"/>
<path d="M320.50 398.40v-31.00" class="stroke"/>
<use x="317.00" y="392.40" xlink:href="#hd"/>
<use x="317.00" y="386.40" xlink:href="#hd"/>
<use x="355.80" y="398.40" xlink:href="#hd"/>
<path d="M359.30 398.40v-31.00" class="stroke"/>
<use x="355.80" y="392.40" xlink:href="#hd"/>
<use x="355.80" y="386.40" xlink:href="#hd"/>
<use x="396.70" y="407.40" xlink:href="#hl"/>
<use x="396.70" y="407.40" xlink:href="#hd"/>
<path d="M400.20 407.40v-31.00" class="stroke"/>
<use x="396.70" y="401.40" xlink:href="#hd"/>
<use x="396.70" y="395.40" xlink:href="#hd"/>
<use x="435.50" y="407.40" xlink:href="#hl"/>
<use x="435.50" y="407.40" xlink:href="#hd"/>
<path d="M439.00 407.40v-31.00" class="stroke"/>
<use x="435.50" y="401.40" xlink:href="#hd"/>
<use x="435.50" y="395.40" xlink:href="#hd"/>
<use x="474.30" y="407.40" xlink:href="#hl"/>
<use x="474.30" y="407.40" xlink:href="#hd"/>
<path d="M477.80 407.40v-31.00" class="stroke"/>
<use x="474.30" y="401.40" xlink:href="#hd"/>
<use x="474.30" y="395.40" xlink:href="#hd"/>
<use x="513.10" y="407.40" xlink:href="#hl"/>
<use x="513.10" y="407.40" xlink:href="#hd"/>
<path d="M516.60 407.40v-31.00" class="stroke"/>
<use x="513.10" y="401.40" xlink:href="#hd"/>
<use x="513.10" y="395.40" xlink:href="#hd"/>
<use x="554.00" y="395.40" xlink:href="#hd"/>
<circle class="fill" cx="561.70" cy="392.40" r="1.2"/>
<path d="M557.50 395.40v-31.00" class="stroke"/>
<use x="554.00" y="389.40" xlink:href="#hd"/>
<circle class="fill" cx="561.70" cy="386.40" r="1.2"/>
<use x="554.00" y="383.40" xlink:href="#hd"/>
<circle class="fill" cx="561.70" cy="380.40" r="1.2"/>
<use x="598.20" y="395.40" xlink:href="#hd"/>
<path d="M601.70 395.40v-31.00" class="stroke"/>
<path class="fill"
	d="M601.70 364.40c0.6 5.6 9.6 9 5.6 18.4
	1.6 -6 -1.3 -11.6 -5.6 -12.8
"/>
<use x="598.20" y="389.40" xlink:href="#hd"/>
<use x="598.20" y="383.40" xlink:href="#hd"/>
<use x="625.60" y="395.40" xlink:href="#hd"/>
<path d="M629.10 395.40v-31.00" class="stroke"/>
<use x="625.60" y="389.40" xlink:href="#hd"/>
<use x="625.60" y="383.40" xlink:href="#hd"/>
<use x="664.40" y="395.40" xlink:href="#hd"/>
<path d="M667.90 395.40v-31.00" class="stroke"/>
<use x="664.40" y="389.40" xlink:href="#hd"/>
<use x="664.40" y="383.40" xlink:href="#hd"/>
</g>
<g stroke-width="0.70" style="font:italic 11.00px Times">
<path class="stroke" stroke-width="1"
	d="M10.00 529.40v-82.00"/>
<g transform="translate(10.00,447.40) scale(1,0.82)">
	<use xlink:href="#brace"/>
</g>
<path class="stroke" stroke-width="1"
	d="M210.80 471.40v-24.00"/>
<path class="stroke" stroke-width="1"
	d="M210.80 529.40v-24.00"/>
<path class="stroke" stroke-width="1"
	d="M385.80 471.40v-24.00"/>
<path class="stroke" stroke-width="1"
	d="M385.80 529.40v-24.00"/>
<path class="stroke" stroke-width="1"
	d="M560.70 471.40v-24.00"/>
<path class="stroke" stroke-width="1"
	d="M560.70 529.40v-24.00"/>
<path class="stroke" stroke-width="1"
	d="M691.60 471.40v-24.00"/>
<path class="stroke" stroke-width="1"
	d="M691.60 529.40v-24.00"/>
<path d="m10.00 471.40
	h681.60
	M10.00 465.40
	h681.60
	M10.00 459.40
	h681.60
	M10.00 453.40
	h681.60
	M10.00 447.40
	h681.60
	" class="stroke"/>
<path d="m10.00 529.40
	h681.60
	M10.00 523.40
	h681.60
	M10.00 517.40
	h681.60
	M10.00 511.40
	h681.60
	M10.00 505.40
	h681.60
	" class="stroke"/>
</g>
<g stroke-width="0.70" style="font:bold 13.00px Times">
<text x="64.20" y="437.80">I</text>
</g>
<g stroke-width="0.70" style="font:bold 13.00px Times">
<text x="222.90" y="440.80">I</text>
</g>
<g stroke-width="0.70" style="font:bold 13.00px Times">
<text x="395.70" y="440.80">V</text>
</g>
<g stroke-width="0.70" style="font:bold 13.00px Times">
<text x="566.90" y="434.80">IV<tspan
	 style="font:italic 11.00px Times">¹</tspan></text>
</g>
<g stroke-width="0.70" style="font:italic 11.00px Times">
<use x="22.00" y="465.40" xlink:href="#tclef"/>
<use x="37.00" y="459.40" xlink:href="#ft0"/>
<use x="42.50" y="450.40" xlink:href="#ft0"/>
<use x="48.00" y="462.40" xlink:href="#ft0"/>
<use x="66.00" y="465.40" xlink:href="#hd"/>
<path d="M69.50 465.40v-21.00" class="stroke"/>
<use x="105.10" y="468.40" xlink:href="#hd"/>
<path d="M108.60 468.40v-21.00" class="stroke"/>
<use x="144.30" y="471.40" xlink:href="#hd"/>
<path d="M147.80 471.40v-21.00" class="stroke"/>
<use x="183.40" y="471.40" xlink:href="#hd"/>
<path d="M186.90 471.40v-21.00" class="stroke"/>
<use x="224.70" y="471.40" xlink:href="#hd"/>
<path d="M228.20 471.40v-21.00" class="stroke"/>
<path class="fill"
	d="M228.20 450.40c0.6 5.6 9.6 9 5.6 18.4
	1.6 -6 -1.3 -11.6 -5.6 -12.8
"/>
<use x="252.40" y="468.40" xlink:href="#hd"/>
<path d="M255.90 468.40v-21.00" class="stroke"/>
<path class="fill"
	d="M255.90 447.40c0.6 5.6 9.6 9 5.6 18.4
	1.6 -6 -1.3 -11.6 -5.6 -12.8
"/>
<use x="280.10" y="465.40" xlink:href="#hd"/>
<path d="M283.60 465.40v-21.00" class="stroke"/>
<use x="319.20" y="465.40" xlink:href="#hd"/>
<path d="M322.70 465.40v-21.00" class="stroke"/>
<use x="358.40" y="465.40" xlink:href="#hd"/>
<path d="M361.90 465.40v-21.00" class="stroke"/>
<use x="399.60" y="468.40" xlink:href="#hd"/>
<path d="M403.10 468.40v-21.00" class="stroke"/>
<use x="438.80" y="468.40" xlink:href="#hd"/>
<path d="M442.30 468.40v-21.00" class="stroke"/>
<use x="477.90" y="468.40" xlink:href="#hd"/>
<path d="M481.40 468.40v-21.00" class="stroke"/>
<path class="fill"
	d="M481.40 447.40c0.6 5.6 9.6 9 5.6 18.4
	1.6 -6 -1.3 -11.6 -5.6 -12.8
"/>
<use x="505.60" y="465.40" xlink:href="#hd"/>
<path d="M509.10 465.40v-21.00" class="stroke"/>
<path class="fill"
	d="M509.10 444.40c0.6 5.6 9.6 9 5.6 18.4
	1.6 -6 -1.3 -11.6 -5.6 -12.8
"/>
<use x="533.30" y="462.40" xlink:href="#hd"/>
<path d="M536.80 462.40v-21.00" class="stroke"/>
<use x="574.60" y="462.40" xlink:href="#hd"/>
<path d="M578.10 462.40v-21.00" class="stroke"/>
<use x="613.70" y="462.40" xlink:href="#hd"/>
<path d="M617.20 462.40v-21.00" class="stroke"/>
<use x="652.80" y="465.40" xlink:href="#Hd"/>
<path d="M656.30 465.40v-21.00" class="stroke"/>
<use x="22.00" y="511.40" xlink:href="#bclef"/>
<use x="37.00" y="523.40" xlink:href="#ft0"/>
<use x="42.50" y="514.40" xlink:href="#ft0"/>
<use x="48.00" y="526.40" xlink:href="#ft0"/>
<use x="66.00" y="535.40" xlink:href="#hl"/>
<use x="66.00" y="535.40" xlink:href="#hd"/>
<path d="M69.50 535.40v-31.00" class="stroke"/>
<use x="66.00" y="529.40" xlink:href="#hd"/>
<use x="66.00" y="523.40" xlink:href="#hd"/>
<use x="105.10" y="535.40" xlink:href="#hl"/>
<use x="105.10" y="535.40" xlink:href="#hd"/>
<path d="M108.60 535.40v-31.00" class="stroke"/>
<use x="105.10" y="529.40" xlink:href="#hd"/>
<use x="105.10" y="523.40" xlink:href="#hd"/>
<use x="144.30" y="535.40" xlink:href="#hl"/>
<use x="144.30" y="535.40" xlink:href="#hd"/>
<path d="M147.80 535.40v-31.00" class="stroke"/>
<use x="144.30" y="529.40" xlink:href="#hd"/>
<use x="144.30" y="523.40" xlink:href="#hd"/>
<use x="183.40" y="535.40" xlink:href="#hl"/>
<use x="183.40" y="535.40" xlink:href="#hd"/>
<path d="M186.90 535.40v-31.00" class="stroke"/>
<use x="183.40" y="529.40" xlink:href="#hd"/>
<use x="183.40" y="523.40" xlink:href="#hd"/>
<use x="224.70" y="535.40" xlink:href="#hl"/>
<use x="224.70" y="535.40" xlink:href="#hd"/>
<path d="M228.20 535.40v-31.00" class="stroke"/>
<path class="fill"
	d="M228.20 504.40c0.6 5.6 9.6 9 5.6 18.4
	1.6 -6 -1.3 -11.6 -5.6 -12.8
"/>
<use x="224.70" y="529.40" xlink:href="#hd"/>
<use x="224.70" y="523.40" xlink:href="#hd"/>
<use x="252.40" y="535.40" xlink:href="#hl"/>
<use x="252.40" y="535.40" xlink:href="#hd"/>
<path d="M255.90 535.40v-31.00" class="stroke"/>
<path class="fill"
	d="M255.90 504.40c0.6 5.6 9.6 9 5.6 18.4
	1.6 -6 -1.3 -11.6 -5.6 -12.8
"/>
<use x="252.40" y="529.40" xlink:href="#hd"/>
<use x="252.40" y="523.40" xlink:href="#hd"/>
<use x="280.10" y="535.40" xlink:href="#hl"/>
<use x="280.10" y="535.40" xlink:href="#hd"/>
<path d="M283.60 535.40v-31.00" class="stroke"/>
<use x="280.10" y="529.40" xlink:href="#hd"/>
<use x="280.10" y="523.40" xlink:href="#hd"/>
<use x="319.20" y="535.40" xlink:href="#hl"/>
<use x="319.20" y="535.40" xlink:href="#hd"/>
<path d="M322.70 535.40v-31.00" class="stroke"/>
<use x="319.20" y="529.40" xlink:href="#hd"/>
<use x="319.20" y="523.40" xlink:href="#hd"/>
<use x="358.40" y="535.40" xlink:href="#hl"/>
<use x="358.40" y="535.40" xlink:href="#hd"/>
<path d="M361.90 535.40v-31.00" class="stroke"/>
<use x="358.40" y="529.40" xlink:href="#hd"/>
<use x="358.40" y="523.40" xlink:href="#hd"/>
<use x="399.60" y="523.40" xlink:href="#hd"/>
<path d="M403.10 523.40v-31.00" class="stroke"/>
<use x="399.60" y="517.40" xlink:href="#hd"/>
<use x="399.60" y="511.40" xlink:href="#hd"/>
<use x="438.80" y="523.40" xlink:href="#hd"/>
<path d="M442.30 523.40v-31.00" class="stroke"/>
<use x="438.80" y="517.40" xlink:href="#hd"/>
<use x="438.80" y="511.40" xlink:href="#hd"/>
<use x="477.90" y="523.40" xlink:href="#hd"/>
<path d="M481.40 523.40v-31.00" class="stroke"/>
<path class="fill"
	d="M481.40 492.40c0.6 5.6 9.6 9 5.6 18.4
	1.6 -6 -1.3 -11.6 -5.6 -12.8
"/>
<use x="477.90" y="517.40" xlink:href="#hd"/>
<use x="477.90" y="511.40" xlink:href="#hd"/>
<use x="505.60" y="523.40" xlink:href="#hd"/>
<path d="M509.10 523.40v-31.00" class="stroke"/>
<path class="fill"
	d="M509.10 492.40c0.6 5.6 9.6 9 5.6 18.4
	1.6 -6 -1.3 -11.6 -5.6 -12.8
"/>
<use x="505.60" y="517.40" xlink:href="#hd"/>
<use x="505.60" y="511.40" xlink:href="#hd"/>
<use x="533.30" y="523.40" xlink:href="#hd"/>
<path d="M536.80 523.40v-31.00" class="stroke"/>
<use x="533.30" y="517.40" xlink:href="#hd"/>
<use x="533.30" y="511.40" xlink:href="#hd"/>
<use x="574.60" y="526.40" xlink:href="#hd"/>
<path d="M578.10 526.40v-31.00" class="stroke"/>
<use x="574.60" y="520.40" xlink:href="#hd"/>
<use x="574.60" y="514.40" xlink:href="#hd"/>
<use x="613.70" y="526.40" xlink:href="#hd"/>
<path d="M617.20 526.40v-31.00" class="stroke"/>
<use x="613.70" y="520.40" xlink:href="#hd"/>
<use x="613.70" y="514.40" xlink:href="#hd"/>
<use x="652.80" y="526.40" xlink:href="#Hd"/>
<path d="M656.30 526.40v-31.00" class="stroke"/>
<use x="652.80" y="520.40" xlink:href="#Hd"/>
<use x="652.80" y="514.40" xlink:href="#Hd"/>
</g>
<g stroke-width="0.70" style="font:italic 11.00px Times">
<path class="stroke" stroke-width="1"
	d="M10.00 657.40v-82.00"/>
<g transform="translate(10.00,575.40) scale(1,0.82)">
	<use xlink:href="#brace"/>
</g>
<path class="stroke" stroke-width="1"
	d="M269.60 599.40v-24.00"/>
<path class="stroke" stroke-width="1"
	d="M269.60 657.40v-24.00"/>
<path class="stroke" stroke-width="1"
	d="M484.10 599.40v-24.00"/>
<path class="stroke" stroke-width="1"
	d="M484.10 657.40v-24.00"/>
<path class="stroke" stroke-width="1"
	d="M675.60 599.40v-24.00"/>
<path class="stroke" stroke-width="1"
	d="M675.60 657.40v-24.00"/>
<path class="stroke" stroke-width="1"
	d="M691.60 599.40v-24.00"/>
<path class="stroke" stroke-width="1"
	d="M691.60 657.40v-24.00"/>
<path d="m10.00 599.40
	h681.60
	M10.00 593.40
	h681.60
	M10.00 587.40
	h681.60
	M10.00 581.40
	h681.60
	M10.00 575.40
	h681.60
	" class="stroke"/>
<path d="m10.00 657.40
	h681.60
	M10.00 651.40
	h681.60
	M10.00 645.40
	h681.60
	M10.00 639.40
	h681.60
	M10.00 633.40
	h681.60
	" class="stroke"/>
</g>
<g stroke-width="0.70" style="font:bold 13.00px Times">
<text x="64.20" y="565.80">I</text>
</g>
<g stroke-width="0.70" style="font:bold 13.00px Times">
<text x="283.10" y="570.80">V<tspan
	 style="font:italic 11.00px Times">¹</tspan></text>
</g>
<g stroke-width="0.70" style="font:bold 13.00px Times">
<text x="501.70" y="565.80">I</text>
<use x="22.00" y="593.40" xlink:href="#tclef"/>
<use x="37.00" y="587.40" xlink:href="#ft0"/>
<use x="42.50" y="578.40" xlink:href="#ft0"/>
<use x="48.00" y="590.40" xlink:href="#ft0"/>
<use x="66.00" y="593.40" xlink:href="#hd"/>
<path d="M69.50 593.40v-21.00" class="stroke"/>
<use x="121.00" y="584.40" xlink:href="#hd"/>
<path d="M117.50 584.40v21.00" class="stroke"/>
<use x="176.00" y="584.40" xlink:href="#hd"/>
<path d="M172.50 584.40v21.00" class="stroke"/>
<use x="231.00" y="584.40" xlink:href="#hd"/>
<path d="M227.50 584.40v21.00" class="stroke"/>
<use x="289.00" y="587.40" xlink:href="#hd"/>
<circle class="fill" cx="296.70" cy="584.40" r="1.2"/>
<path d="M285.50 587.40v21.00" class="stroke"/>
<use x="351.60" y="590.40" xlink:href="#hd"/>
<path d="M355.10 590.40v-21.00" class="stroke"/>
<path class="fill"
	d="M355.10 569.40c0.6 5.6 9.6 9 5.6 18.4
	1.6 -6 -1.3 -11.6 -5.6 -12.8
"/>
<use x="390.60" y="593.40" xlink:href="#hd"/>
<path d="M394.10 593.40v-21.00" class="stroke"/>
<use x="445.60" y="590.40" xlink:href="#hd"/>
<path d="M449.10 590.40v-21.00" class="stroke"/>
<use x="503.60" y="593.40" xlink:href="#hd"/>
<path d="M507.10 593.40v-21.00" class="stroke"/>
<use x="558.60" y="596.40" xlink:href="#hd"/>
<path d="M562.10 596.40v-21.00" class="stroke"/>
<use x="613.60" y="599.40" xlink:href="#Hd"/>
<circle class="fill" cx="622.30" cy="596.40" r="1.2"/>
<path d="M617.10 599.40v-21.00" class="stroke"/>
<use x="22.00" y="639.40" xlink:href="#bclef"/>
<use x="37.00" y="651.40" xlink:href="#ft0"/>
<use x="42.50" y="642.40" xlink:href="#ft0"/>
<use x="48.00" y="654.40" xlink:href="#ft0"/>
<use x="66.00" y="663.40" xlink:href="#hl"/>
<use x="66.00" y="663.40" xlink:href="#hd"/>
<path d="M69.50 663.40v-31.00" class="stroke"/>
<use x="66.00" y="657.40" xlink:href="#hd"/>
<use x="66.00" y="651.40" xlink:href="#hd"/>
<use x="121.00" y="663.40" xlink:href="#hl"/>
<use x="121.00" y="663.40" xlink:href="#hd"/>
<path d="M124.50 663.40v-31.00" class="stroke"/>
<use x="121.00" y="657.40" xlink:href="#hd"/>
<use x="121.00" y="651.40" xlink:href="#hd"/>
<use x="176.00" y="663.40" xlink:href="#hl"/>
<use x="176.00" y="663.40" xlink:href="#hd"/>
<path d="M179.50 663.40v-31.00" class="stroke"/>
<use x="176.00" y="657.40" xlink:href="#hd"/>
<use x="176.00" y="651.40" xlink:href="#hd"/>
<use x="231.00" y="663.40" xlink:href="#hl"/>
<use x="231.00" y="663.40" xlink:href="#hd"/>
<path d="M234.50 663.40v-31.00" class="stroke"/>
<use x="231.00" y="657.40" xlink:href="#hd"/>
<use x="231.00" y="651.40" xlink:href="#hd"/>
<use x="289.00" y="651.40" xlink:href="#hd"/>
<circle class="fill" cx="296.70" cy="648.40" r="1.2"/>
<path d="M292.50 651.40v-31.00" class="stroke"/>
<use x="289.00" y="645.40" xlink:href="#hd"/>
<circle class="fill" cx="296.70" cy="642.40" r="1.2"/>
<use x="289.00" y="639.40" xlink:href="#hd"/>
<circle class="fill" cx="296.70" cy="636.40" r="1.2"/>
<use x="351.60" y="651.40" xlink:href="#hd"/>
<path d="M355.10 651.40v-31.00" class="stroke"/>
<path class="fill"
	d="M355.10 620.40c0.6 5.6 9.6 9 5.6 18.4
	1.6 -6 -1.3 -11.6 -5.6 -12.8
"/>
<use x="351.60" y="645.40" xlink:href="#hd"/>
<use x="351.60" y="639.40" xlink:href="#hd"/>
<use x="390.60" y="651.40" xlink:href="#hd"/>
<path d="M394.10 651.40v-31.00" class="stroke"/>
<use x="390.60" y="645.40" xlink:href="#hd"/>
<use x="390.60" y="639.40" xlink:href="#hd"/>
<use x="445.60" y="651.40" xlink:href="#hd"/>
<path d="M449.10 651.40v-31.00" class="stroke"/>
<use x="445.60" y="645.40" xlink:href="#hd"/>
<use x="445.60" y="639.40" xlink:href="#hd"/>
<use x="503.60" y="663.40" xlink:href="#hl"/>
<use x="503.60" y="663.40" xlink:href="#hd"/>
<path d="M507.10 663.40v-31.00" class="stroke"/>
<use x="503.60" y="657.40" xlink:href="#hd"/>
<use x="503.60" y="651.40" xlink:href="#hd"/>
<use x="558.60" y="663.40" xlink:href="#hl"/>
<use x="558.60" y="663.40" xlink:href="#hd"/>
<path d="M562.10 663.40v-31.00" class="stroke"/>
<use x="558.60" y="657.40" xlink:href="#hd"/>
<use x="558.60" y="651.40" xlink:href="#hd"/>
<use x="613.60" y="663.40" xlink:href="#hl"/>
<use x="613.60" y="663.40" xlink:href="#Hd"/>
<circle class="fill" cx="622.30" cy="660.40" r="1.2"/>
<path d="M617.10 663.40v-31.00" class="stroke"/>
<use x="613.60" y="657.40" xlink:href="#Hd"/>
<circle class="fill" cx="622.30" cy="654.40" r="1.2"/>
<use x="613.60" y="651.40" xlink:href="#Hd"/>
<circle class="fill" cx="622.30" cy="648.40" r="1.2"/>
</g>
</svg>
