<?xml version="1.0" standalone="no"?>
<!DOCTYPE svg PUBLIC "-//W3C//DTD SVG 1.1//EN"
	"http://www.w3.org/Graphics/SVG/1.1/DTD/svg11.dtd">
<svg xmlns="http://www.w3.org/2000/svg" version="1.1"
	xmlns:xlink="http://www.w3.org/1999/xlink"
	color="black"
	width="701.60px" height="554.80px" viewBox="0 0 701.60 554.80" preserveAspectRatio="xMidYMid meet">
<style type="text/css">
.fill {fill: currentColor}
.stroke {stroke: currentColor; fill: none}
text{white-space: pre}
</style>
<title>/tmp/retab_hymnal_L1/praise_my_soul_the_king_of_heaven.abc (1) tune 1</title>
<!-- Creator: abcm2ps-8.14.11 -->
<!-- CreationDate: Apr 24, 2026 15:38 -->
<!-- CommandLine: /tmp/retab_hymnal_L1/praise_my_soul_the_king_of_heaven.abc -g -O /tmp/retab_hymnal_L1/praise_my_soul_the_king_of_heaven -->
<g stroke-width="0.70">
<!-- title: 204. Praise My Soul The King Of Heaven -->
</g>
<g stroke-width="0.70" style="font:20.00px Times">
<text x="350.80" y="22.00" text-anchor="middle">204. Praise My Soul The King Of Heaven</text>
</g>
<g stroke-width="0.70" style="font:20.00px Times">
<path class="stroke" stroke-width="1"
	d="M10.00 143.00v-82.00"/>
<defs>
<path id="brace" class="fill" d="m-2.5 101
	c-4.5 -4.6 -7.5 -12.2 -4.4 -26.8
	3.5 -14.3 3.2 -21.7 -2.1 -24.2
	7.4 2.4 7.3 14.2 3.5 29.5
	-2.7 9.5 -1.5 16.2 3 21.5
	M-2.5 1c-4.5 4.6 -7.5 12.2 -4.4 26.8
	c3.5 14.3 3.2 21.7 -2.1 24.2
	7.4 -2.4 7.3 -14.2 3.5 -29.5
	-2.7 -9.5 -1.5 -16.2 3 -21.5"/>
</defs>
<g transform="translate(10.00,61.00) scale(1,0.82)">
	<use xlink:href="#brace"/>
</g>
<path class="stroke" stroke-width="1"
	d="M164.20 85.00v-24.00"/>
<path class="stroke" stroke-width="1"
	d="M164.20 143.00v-24.00"/>
<path class="stroke" stroke-width="1"
	d="M263.60 85.00v-24.00"/>
<path class="stroke" stroke-width="1"
	d="M263.60 143.00v-24.00"/>
<path class="stroke" stroke-width="1"
	d="M362.90 85.00v-24.00"/>
<path class="stroke" stroke-width="1"
	d="M362.90 143.00v-24.00"/>
<path class="stroke" stroke-width="1"
	d="M427.90 85.00v-24.00"/>
<path class="stroke" stroke-width="1"
	d="M427.90 143.00v-24.00"/>
<path class="stroke" stroke-width="1"
	d="M492.90 85.00v-24.00"/>
<path class="stroke" stroke-width="1"
	d="M492.90 143.00v-24.00"/>
<path class="stroke" stroke-width="1"
	d="M592.30 85.00v-24.00"/>
<path class="stroke" stroke-width="1"
	d="M592.30 143.00v-24.00"/>
<path class="stroke" stroke-width="1"
	d="M691.60 85.00v-24.00"/>
<path class="stroke" stroke-width="1"
	d="M691.60 143.00v-24.00"/>
<path d="m10.00 85.00
	h681.60
	M10.00 79.00
	h681.60
	M10.00 73.00
	h681.60
	M10.00 67.00
	h681.60
	M10.00 61.00
	h681.60
	" class="stroke"/>
<path d="m10.00 143.00
	h681.60
	M10.00 137.00
	h681.60
	M10.00 131.00
	h681.60
	M10.00 125.00
	h681.60
	M10.00 119.00
	h681.60
	" class="stroke"/>
</g>
<g stroke-width="0.70" style="font:bold 13.00px Times">
<text x="80.20" y="56.40">I</text>
</g>
<g stroke-width="0.70" style="font:bold 13.00px Times">
<text x="173.50" y="56.40">V<tspan
	 style="font:italic 11.00px Times">⁷²</tspan></text>
</g>
<g stroke-width="0.70" style="font:bold 13.00px Times">
<text x="276.90" y="55.40">I<tspan
	 style="font:italic 11.00px Times">¹</tspan></text>
</g>
<g stroke-width="0.70" style="font:bold 13.00px Times">
<text x="374.20" y="56.40">IV</text>
</g>
<g stroke-width="0.70" style="font:bold 13.00px Times">
<text x="443.20" y="56.40">I</text>
</g>
<g stroke-width="0.70" style="font:bold 13.00px Times">
<text x="502.30" y="48.40">IV<tspan
	 style="font:italic 11.00px Times">¹</tspan></text>
</g>
<g stroke-width="0.70" style="font:bold 13.00px Times">
<text x="603.60" y="56.40">IV</text>
<defs>
<path id="utclef" class="fill" d="m-50 -90
	c-72 -41 -72 -158 52 -188
	150 -10 220 188 90 256
	-114 52 -275 0 -293 -136
	-15 -181 93 -229 220 -334
	88 -87 79 -133 62 -210
	-51 33 -94 105 -89 186
	17 267 36 374 49 574
	6 96 -19 134 -77 135
	-80 1 -126 -93 -61 -133
	85 -41 133 101 31 105
	23 17 92 37 90 -92
	-10 -223 -39 -342 -50 -617
	0 -90 0 -162 96 -232
	56 72 63 230 22 289
	-74 106 -257 168 -255 316
	9 153 148 185 252 133
	86 -65 29 -192 -80 -176
	-71 12 -105 67 -59 124"/>
<use id="tclef" transform="translate(0,6) scale(0.045)"
	xlink:href="#utclef"/>
</defs>
<use x="22.00" y="79.00" xlink:href="#tclef"/>
<defs>
<path id="uflat" class="fill" d="
	m100 -746
	h32
	v734
	l-32 4
	m32 -332
	c46 -72 152 -90 208 -20
	100 110 -120 326 -208 348
	m0 -28
	c54 0 200 -206 130 -290
	-50 -60 -130 -4 -130 34"/>
<use id="ft0" transform="translate(-3.5,3.5) scale(0.018)"
	xlink:href="#uflat"/>
</defs>
<use x="37.00" y="73.00" xlink:href="#ft0"/>
<use x="42.50" y="64.00" xlink:href="#ft0"/>
<use x="48.00" y="76.00" xlink:href="#ft0"/>
<g style="font:bold 16px serif"
	transform="translate(64.00,84.50) scale(1.2,1)">
	<text text-anchor="middle">4</text>
	<text y="-12" text-anchor="middle">2</text>
</g>
<defs>
<ellipse id="hd" rx="4.1" ry="2.9"
	transform="rotate(-20)" class="fill"/>
</defs>
<use x="82.00" y="73.00" xlink:href="#hd"/>
<path d="M78.50 73.00v21.00" class="stroke"/>
<use x="130.40" y="73.00" xlink:href="#hd"/>
<path d="M126.90 73.00v21.00" class="stroke"/>
<use x="181.30" y="73.00" xlink:href="#hd"/>
<path d="M177.80 73.00v21.00" class="stroke"/>
<use x="229.70" y="73.00" xlink:href="#hd"/>
<path d="M226.20 73.00v21.00" class="stroke"/>
<use x="280.70" y="64.00" xlink:href="#hd"/>
<path d="M277.20 64.00v21.00" class="stroke"/>
<use x="329.00" y="67.00" xlink:href="#hd"/>
<path d="M325.50 67.00v21.00" class="stroke"/>
<defs>
<path id="Hd" class="fill" d="m3 -1.6
	c-1 -1.8 -7 1.4 -6 3.2
	1 1.8 7 -1.4 6 -3.2
	m0.5 -0.3
	c2 3.8 -5 7.6 -7 3.8
	-2 -3.8 5 -7.6 7 -3.8"/>
</defs>
<use x="380.00" y="70.00" xlink:href="#Hd"/>
<path d="M376.50 70.00v21.00" class="stroke"/>
<use x="445.00" y="73.00" xlink:href="#Hd"/>
<path d="M441.50 73.00v21.00" class="stroke"/>
<use x="510.00" y="76.00" xlink:href="#hd"/>
<path d="M513.50 76.00v-21.00" class="stroke"/>
<use x="558.40" y="79.00" xlink:href="#hd"/>
<path d="M561.90 79.00v-21.00" class="stroke"/>
<use x="609.40" y="70.00" xlink:href="#hd"/>
<path d="M605.90 70.00v21.00" class="stroke"/>
<use x="657.70" y="73.00" xlink:href="#hd"/>
<path d="M654.20 73.00v21.00" class="stroke"/>
<defs>
<path id="ubclef" class="fill" d="m-200 -87
	c124 -35 222 -78 254 -236
	43 -228 -167 -246 -192 -103
	59 -80 157 22 92 78
	-62 47 -115 -22 -106 -88
	21 -141 270 -136 274 52
	-1 175 -106 264 -322 297
	m357 -250
	c0 -36 51 -34 51 0
	0 37 -51 36 -51 0
	m-2 -129
	c0 -36 51 -34 51 0
	0 38 -51 37 -51 0"/>
<use id="bclef" transform="translate(0,18) scale(0.045)"
	xlink:href="#ubclef"/>
</defs>
<use x="22.00" y="125.00" xlink:href="#bclef"/>
<use x="37.00" y="137.00" xlink:href="#ft0"/>
<use x="42.50" y="128.00" xlink:href="#ft0"/>
<use x="48.00" y="140.00" xlink:href="#ft0"/>
<g style="font:bold 16px serif"
	transform="translate(64.00,142.50) scale(1.2,1)">
	<text text-anchor="middle">4</text>
	<text y="-12" text-anchor="middle">2</text>
</g>
<defs>
<path id="hl" class="stroke" d="m-6 0h12"/>
</defs>
<use x="82.00" y="149.00" xlink:href="#hl"/>
<use x="82.00" y="149.00" xlink:href="#hd"/>
<path d="M85.50 149.00v-31.00" class="stroke"/>
<use x="82.00" y="143.00" xlink:href="#hd"/>
<use x="82.00" y="137.00" xlink:href="#hd"/>
<use x="130.40" y="149.00" xlink:href="#hl"/>
<use x="130.40" y="149.00" xlink:href="#hd"/>
<path d="M133.90 149.00v-31.00" class="stroke"/>
<use x="130.40" y="143.00" xlink:href="#hd"/>
<use x="130.40" y="137.00" xlink:href="#hd"/>
<use x="181.30" y="137.00" xlink:href="#hd"/>
<path d="M184.80 137.00v-31.00" class="stroke"/>
<use x="181.30" y="131.00" xlink:href="#hd"/>
<use x="181.30" y="125.00" xlink:href="#hd"/>
<use x="229.70" y="137.00" xlink:href="#hd"/>
<path d="M233.20 137.00v-31.00" class="stroke"/>
<use x="229.70" y="131.00" xlink:href="#hd"/>
<use x="229.70" y="125.00" xlink:href="#hd"/>
<use x="280.70" y="149.00" xlink:href="#hl"/>
<use x="280.70" y="149.00" xlink:href="#hd"/>
<path d="M284.20 149.00v-31.00" class="stroke"/>
<use x="280.70" y="143.00" xlink:href="#hd"/>
<use x="280.70" y="137.00" xlink:href="#hd"/>
<use x="329.00" y="149.00" xlink:href="#hl"/>
<use x="329.00" y="149.00" xlink:href="#hd"/>
<path d="M332.50 149.00v-31.00" class="stroke"/>
<use x="329.00" y="143.00" xlink:href="#hd"/>
<use x="329.00" y="137.00" xlink:href="#hd"/>
<use x="380.00" y="140.00" xlink:href="#Hd"/>
<path d="M383.50 140.00v-31.00" class="stroke"/>
<use x="380.00" y="134.00" xlink:href="#Hd"/>
<use x="380.00" y="128.00" xlink:href="#Hd"/>
<use x="445.00" y="149.00" xlink:href="#hl"/>
<use x="445.00" y="149.00" xlink:href="#Hd"/>
<path d="M448.50 149.00v-31.00" class="stroke"/>
<use x="445.00" y="143.00" xlink:href="#Hd"/>
<use x="445.00" y="137.00" xlink:href="#Hd"/>
<use x="510.00" y="140.00" xlink:href="#hd"/>
<path d="M513.50 140.00v-31.00" class="stroke"/>
<use x="510.00" y="134.00" xlink:href="#hd"/>
<use x="510.00" y="128.00" xlink:href="#hd"/>
<use x="558.40" y="140.00" xlink:href="#hd"/>
<path d="M561.90 140.00v-31.00" class="stroke"/>
<use x="558.40" y="134.00" xlink:href="#hd"/>
<use x="558.40" y="128.00" xlink:href="#hd"/>
<use x="609.40" y="140.00" xlink:href="#hd"/>
<path d="M612.90 140.00v-31.00" class="stroke"/>
<use x="609.40" y="134.00" xlink:href="#hd"/>
<use x="609.40" y="128.00" xlink:href="#hd"/>
<use x="657.70" y="140.00" xlink:href="#hd"/>
<path d="M661.20 140.00v-31.00" class="stroke"/>
<use x="657.70" y="134.00" xlink:href="#hd"/>
<use x="657.70" y="128.00" xlink:href="#hd"/>
</g>
<g stroke-width="0.70" style="font:bold 13.00px Times">
<path class="stroke" stroke-width="1"
	d="M10.00 273.40v-82.00"/>
<g transform="translate(10.00,191.40) scale(1,0.82)">
	<use xlink:href="#brace"/>
</g>
<path class="stroke" stroke-width="1"
	d="M145.90 215.40v-24.00"/>
<path class="stroke" stroke-width="1"
	d="M145.90 273.40v-24.00"/>
<path class="stroke" stroke-width="1"
	d="M209.10 215.40v-24.00"/>
<path class="stroke" stroke-width="1"
	d="M209.10 273.40v-24.00"/>
<path class="stroke" stroke-width="1"
	d="M305.60 215.40v-24.00"/>
<path class="stroke" stroke-width="1"
	d="M305.60 273.40v-24.00"/>
<path class="stroke" stroke-width="1"
	d="M402.10 215.40v-24.00"/>
<path class="stroke" stroke-width="1"
	d="M402.10 273.40v-24.00"/>
<path class="stroke" stroke-width="1"
	d="M498.60 215.40v-24.00"/>
<path class="stroke" stroke-width="1"
	d="M498.60 273.40v-24.00"/>
<path class="stroke" stroke-width="1"
	d="M595.10 215.40v-24.00"/>
<path class="stroke" stroke-width="1"
	d="M595.10 273.40v-24.00"/>
<path class="stroke" stroke-width="1"
	d="M691.60 215.40v-24.00"/>
<path class="stroke" stroke-width="1"
	d="M691.60 273.40v-24.00"/>
<path d="m10.00 215.40
	h681.60
	M10.00 209.40
	h681.60
	M10.00 203.40
	h681.60
	M10.00 197.40
	h681.60
	M10.00 191.40
	h681.60
	" class="stroke"/>
<path d="m10.00 273.40
	h681.60
	M10.00 267.40
	h681.60
	M10.00 261.40
	h681.60
	M10.00 255.40
	h681.60
	M10.00 249.40
	h681.60
	" class="stroke"/>
</g>
<g stroke-width="0.70" style="font:bold 13.00px Times">
<text x="61.80" y="181.80">vi</text>
</g>
<g stroke-width="0.70" style="font:bold 13.00px Times">
<text x="158.60" y="184.80">V</text>
</g>
<g stroke-width="0.70" style="font:bold 13.00px Times">
<text x="219.20" y="181.80">iii<tspan
	 style="font:italic 11.00px Times">¹</tspan></text>
</g>
<g stroke-width="0.70" style="font:bold 13.00px Times">
<text x="317.90" y="181.80">vi</text>
</g>
<g stroke-width="0.70" style="font:bold 13.00px Times">
<text x="412.50" y="186.80">vi<tspan
	 style="font:italic 11.00px Times">¹</tspan></text>
</g>
<g stroke-width="0.70" style="font:bold 13.00px Times">
<text x="509.00" y="186.80">vi<tspan
	 style="font:italic 11.00px Times">⁷</tspan></text>
</g>
<g stroke-width="0.70" style="font:bold 13.00px Times">
<text x="607.20" y="175.80">iii</text>
<use x="22.00" y="209.40" xlink:href="#tclef"/>
<use x="37.00" y="203.40" xlink:href="#ft0"/>
<use x="42.50" y="194.40" xlink:href="#ft0"/>
<use x="48.00" y="206.40" xlink:href="#ft0"/>
<use x="66.00" y="209.40" xlink:href="#hd"/>
<path d="M69.50 209.40v-21.00" class="stroke"/>
<use x="113.00" y="206.40" xlink:href="#hd"/>
<path d="M116.50 206.40v-21.00" class="stroke"/>
<use x="162.50" y="212.40" xlink:href="#Hd"/>
<path d="M166.00 212.40v-21.00" class="stroke"/>
<use x="225.70" y="209.40" xlink:href="#hd"/>
<path d="M229.20 209.40v-21.00" class="stroke"/>
<use x="272.70" y="209.40" xlink:href="#hd"/>
<path d="M276.20 209.40v-21.00" class="stroke"/>
<use x="322.20" y="209.40" xlink:href="#hd"/>
<path d="M325.70 209.40v-21.00" class="stroke"/>
<use x="369.20" y="209.40" xlink:href="#hd"/>
<path d="M372.70 209.40v-21.00" class="stroke"/>
<use x="418.70" y="200.40" xlink:href="#hd"/>
<path d="M415.20 200.40v21.00" class="stroke"/>
<use x="465.70" y="203.40" xlink:href="#hd"/>
<path d="M462.20 203.40v21.00" class="stroke"/>
<use x="515.20" y="203.40" xlink:href="#hd"/>
<path d="M511.70 203.40v21.00" class="stroke"/>
<use x="562.20" y="206.40" xlink:href="#hd"/>
<path d="M565.70 206.40v-21.00" class="stroke"/>
<use x="611.70" y="203.40" xlink:href="#hd"/>
<path d="M615.20 203.40v-21.00" class="stroke"/>
<use x="658.70" y="200.40" xlink:href="#hd"/>
<path d="M655.20 200.40v21.00" class="stroke"/>
<use x="22.00" y="255.40" xlink:href="#bclef"/>
<use x="37.00" y="267.40" xlink:href="#ft0"/>
<use x="42.50" y="258.40" xlink:href="#ft0"/>
<use x="48.00" y="270.40" xlink:href="#ft0"/>
<use x="66.00" y="252.40" xlink:href="#hd"/>
<path d="M62.50 252.40v31.00" class="stroke"/>
<use x="66.00" y="264.40" xlink:href="#hd"/>
<use x="66.00" y="258.40" xlink:href="#hd"/>
<use x="113.00" y="252.40" xlink:href="#hd"/>
<path d="M109.50 252.40v31.00" class="stroke"/>
<use x="113.00" y="264.40" xlink:href="#hd"/>
<use x="113.00" y="258.40" xlink:href="#hd"/>
<use x="162.50" y="255.40" xlink:href="#Hd"/>
<path d="M159.00 255.40v31.00" class="stroke"/>
<use x="162.50" y="267.40" xlink:href="#Hd"/>
<use x="162.50" y="261.40" xlink:href="#Hd"/>
<use x="225.70" y="273.40" xlink:href="#hd"/>
<path d="M229.20 273.40v-31.00" class="stroke"/>
<use x="225.70" y="267.40" xlink:href="#hd"/>
<use x="225.70" y="261.40" xlink:href="#hd"/>
<use x="272.70" y="273.40" xlink:href="#hd"/>
<path d="M276.20 273.40v-31.00" class="stroke"/>
<use x="272.70" y="267.40" xlink:href="#hd"/>
<use x="272.70" y="261.40" xlink:href="#hd"/>
<use x="322.20" y="252.40" xlink:href="#hd"/>
<path d="M318.70 252.40v31.00" class="stroke"/>
<use x="322.20" y="264.40" xlink:href="#hd"/>
<use x="322.20" y="258.40" xlink:href="#hd"/>
<use x="369.20" y="252.40" xlink:href="#hd"/>
<path d="M365.70 252.40v31.00" class="stroke"/>
<use x="369.20" y="264.40" xlink:href="#hd"/>
<use x="369.20" y="258.40" xlink:href="#hd"/>
<use x="418.70" y="252.40" xlink:href="#hd"/>
<path d="M415.20 252.40v31.00" class="stroke"/>
<use x="418.70" y="264.40" xlink:href="#hd"/>
<use x="418.70" y="258.40" xlink:href="#hd"/>
<use x="465.70" y="252.40" xlink:href="#hd"/>
<path d="M462.20 252.40v31.00" class="stroke"/>
<use x="465.70" y="264.40" xlink:href="#hd"/>
<use x="465.70" y="258.40" xlink:href="#hd"/>
<use x="515.20" y="252.40" xlink:href="#hd"/>
<path d="M511.70 252.40v31.00" class="stroke"/>
<use x="515.20" y="264.40" xlink:href="#hd"/>
<use x="515.20" y="258.40" xlink:href="#hd"/>
<use x="562.20" y="252.40" xlink:href="#hd"/>
<path d="M558.70 252.40v31.00" class="stroke"/>
<use x="562.20" y="264.40" xlink:href="#hd"/>
<use x="562.20" y="258.40" xlink:href="#hd"/>
<use x="611.70" y="273.40" xlink:href="#hd"/>
<path d="M615.20 273.40v-31.00" class="stroke"/>
<use x="611.70" y="267.40" xlink:href="#hd"/>
<use x="611.70" y="261.40" xlink:href="#hd"/>
<use x="658.70" y="273.40" xlink:href="#hd"/>
<path d="M662.20 273.40v-31.00" class="stroke"/>
<use x="658.70" y="267.40" xlink:href="#hd"/>
<use x="658.70" y="261.40" xlink:href="#hd"/>
</g>
<g stroke-width="0.70" style="font:bold 13.00px Times">
<path class="stroke" stroke-width="1"
	d="M10.00 403.80v-82.00"/>
<g transform="translate(10.00,321.80) scale(1,0.82)">
	<use xlink:href="#brace"/>
</g>
<path class="stroke" stroke-width="1"
	d="M145.90 345.80v-24.00"/>
<path class="stroke" stroke-width="1"
	d="M145.90 403.80v-24.00"/>
<path class="stroke" stroke-width="1"
	d="M242.40 345.80v-24.00"/>
<path class="stroke" stroke-width="1"
	d="M242.40 403.80v-24.00"/>
<path class="stroke" stroke-width="1"
	d="M305.60 345.80v-24.00"/>
<path class="stroke" stroke-width="1"
	d="M305.60 403.80v-24.00"/>
<path class="stroke" stroke-width="1"
	d="M402.10 345.80v-24.00"/>
<path class="stroke" stroke-width="1"
	d="M402.10 403.80v-24.00"/>
<path class="stroke" stroke-width="1"
	d="M498.60 345.80v-24.00"/>
<path class="stroke" stroke-width="1"
	d="M498.60 403.80v-24.00"/>
<path class="stroke" stroke-width="1"
	d="M595.10 345.80v-24.00"/>
<path class="stroke" stroke-width="1"
	d="M595.10 403.80v-24.00"/>
<path class="stroke" stroke-width="1"
	d="M691.60 345.80v-24.00"/>
<path class="stroke" stroke-width="1"
	d="M691.60 403.80v-24.00"/>
<path d="m10.00 345.80
	h681.60
	M10.00 339.80
	h681.60
	M10.00 333.80
	h681.60
	M10.00 327.80
	h681.60
	M10.00 321.80
	h681.60
	" class="stroke"/>
<path d="m10.00 403.80
	h681.60
	M10.00 397.80
	h681.60
	M10.00 391.80
	h681.60
	M10.00 385.80
	h681.60
	M10.00 379.80
	h681.60
	" class="stroke"/>
</g>
<g stroke-width="0.70" style="font:bold 13.00px Times">
<text x="62.20" y="317.20">I<tspan
	 style="font:italic 11.00px Times">¹</tspan></text>
</g>
<g stroke-width="0.70" style="font:bold 13.00px Times">
<text x="156.30" y="312.20">vi<tspan
	 style="font:italic 11.00px Times">¹</tspan></text>
</g>
<g stroke-width="0.70" style="font:bold 13.00px Times">
<text x="255.10" y="306.20">V</text>
</g>
<g stroke-width="0.70" style="font:bold 13.00px Times">
<text x="318.40" y="316.20">I<tspan
	 style="font:italic 11.00px Times">¹</tspan></text>
</g>
<g stroke-width="0.70" style="font:bold 13.00px Times">
<text x="412.80" y="317.20">V<tspan
	 style="font:italic 11.00px Times">⁷</tspan></text>
</g>
<g stroke-width="0.70" style="font:bold 13.00px Times">
<text x="511.00" y="316.20">vi</text>
</g>
<g stroke-width="0.70" style="font:bold 13.00px Times">
<text x="603.70" y="317.20">vii○</text>
<use x="22.00" y="339.80" xlink:href="#tclef"/>
<use x="37.00" y="333.80" xlink:href="#ft0"/>
<use x="42.50" y="324.80" xlink:href="#ft0"/>
<use x="48.00" y="336.80" xlink:href="#ft0"/>
<use x="66.00" y="327.80" xlink:href="#hd"/>
<path d="M62.50 327.80v21.00" class="stroke"/>
<use x="113.00" y="324.80" xlink:href="#hd"/>
<path d="M109.50 324.80v21.00" class="stroke"/>
<use x="162.50" y="339.80" xlink:href="#hd"/>
<path d="M166.00 339.80v-21.00" class="stroke"/>
<use x="209.50" y="336.80" xlink:href="#hd"/>
<path d="M213.00 336.80v-21.00" class="stroke"/>
<use x="259.00" y="333.80" xlink:href="#Hd"/>
<path d="M262.50 333.80v-21.00" class="stroke"/>
<use x="322.20" y="324.80" xlink:href="#hd"/>
<path d="M318.70 324.80v21.00" class="stroke"/>
<use x="369.20" y="327.80" xlink:href="#hd"/>
<path d="M365.70 327.80v21.00" class="stroke"/>
<use x="418.70" y="330.80" xlink:href="#hd"/>
<path d="M415.20 330.80v21.00" class="stroke"/>
<use x="465.70" y="333.80" xlink:href="#hd"/>
<path d="M462.20 333.80v21.00" class="stroke"/>
<use x="515.20" y="324.80" xlink:href="#hd"/>
<path d="M511.70 324.80v21.00" class="stroke"/>
<use x="562.20" y="327.80" xlink:href="#hd"/>
<path d="M558.70 327.80v21.00" class="stroke"/>
<use x="611.70" y="330.80" xlink:href="#hd"/>
<path d="M608.20 330.80v21.00" class="stroke"/>
<use x="658.70" y="333.80" xlink:href="#hd"/>
<path d="M655.20 333.80v21.00" class="stroke"/>
<use x="22.00" y="385.80" xlink:href="#bclef"/>
<use x="37.00" y="397.80" xlink:href="#ft0"/>
<use x="42.50" y="388.80" xlink:href="#ft0"/>
<use x="48.00" y="400.80" xlink:href="#ft0"/>
<use x="66.00" y="409.80" xlink:href="#hl"/>
<use x="66.00" y="409.80" xlink:href="#hd"/>
<path d="M69.50 409.80v-31.00" class="stroke"/>
<use x="66.00" y="403.80" xlink:href="#hd"/>
<use x="66.00" y="397.80" xlink:href="#hd"/>
<use x="113.00" y="409.80" xlink:href="#hl"/>
<use x="113.00" y="409.80" xlink:href="#hd"/>
<path d="M116.50 409.80v-31.00" class="stroke"/>
<use x="113.00" y="403.80" xlink:href="#hd"/>
<use x="113.00" y="397.80" xlink:href="#hd"/>
<use x="162.50" y="382.80" xlink:href="#hd"/>
<path d="M159.00 382.80v31.00" class="stroke"/>
<use x="162.50" y="394.80" xlink:href="#hd"/>
<use x="162.50" y="388.80" xlink:href="#hd"/>
<use x="209.50" y="382.80" xlink:href="#hd"/>
<path d="M206.00 382.80v31.00" class="stroke"/>
<use x="209.50" y="394.80" xlink:href="#hd"/>
<use x="209.50" y="388.80" xlink:href="#hd"/>
<use x="259.00" y="385.80" xlink:href="#Hd"/>
<path d="M255.50 385.80v31.00" class="stroke"/>
<use x="259.00" y="397.80" xlink:href="#Hd"/>
<use x="259.00" y="391.80" xlink:href="#Hd"/>
<use x="322.20" y="409.80" xlink:href="#hl"/>
<use x="322.20" y="409.80" xlink:href="#hd"/>
<path d="M325.70 409.80v-31.00" class="stroke"/>
<use x="322.20" y="403.80" xlink:href="#hd"/>
<use x="322.20" y="397.80" xlink:href="#hd"/>
<use x="369.20" y="409.80" xlink:href="#hl"/>
<use x="369.20" y="409.80" xlink:href="#hd"/>
<path d="M372.70 409.80v-31.00" class="stroke"/>
<use x="369.20" y="403.80" xlink:href="#hd"/>
<use x="369.20" y="397.80" xlink:href="#hd"/>
<use x="418.70" y="397.80" xlink:href="#hd"/>
<path d="M422.20 397.80v-31.00" class="stroke"/>
<use x="418.70" y="391.80" xlink:href="#hd"/>
<use x="418.70" y="385.80" xlink:href="#hd"/>
<use x="465.70" y="397.80" xlink:href="#hd"/>
<path d="M469.20 397.80v-31.00" class="stroke"/>
<use x="465.70" y="391.80" xlink:href="#hd"/>
<use x="465.70" y="385.80" xlink:href="#hd"/>
<use x="515.20" y="382.80" xlink:href="#hd"/>
<path d="M511.70 382.80v31.00" class="stroke"/>
<use x="515.20" y="394.80" xlink:href="#hd"/>
<use x="515.20" y="388.80" xlink:href="#hd"/>
<use x="562.20" y="382.80" xlink:href="#hd"/>
<path d="M558.70 382.80v31.00" class="stroke"/>
<use x="562.20" y="394.80" xlink:href="#hd"/>
<use x="562.20" y="388.80" xlink:href="#hd"/>
<use x="611.70" y="409.80" xlink:href="#hl"/>
<use x="611.70" y="409.80" xlink:href="#hd"/>
<path d="M615.20 409.80v-31.00" class="stroke"/>
<use x="611.70" y="403.80" xlink:href="#hd"/>
<use x="611.70" y="397.80" xlink:href="#hd"/>
<use x="658.70" y="409.80" xlink:href="#hl"/>
<use x="658.70" y="409.80" xlink:href="#hd"/>
<path d="M662.20 409.80v-31.00" class="stroke"/>
<use x="658.70" y="403.80" xlink:href="#hd"/>
<use x="658.70" y="397.80" xlink:href="#hd"/>
</g>
<g stroke-width="0.70" style="font:bold 13.00px Times">
<path class="stroke" stroke-width="1"
	d="M10.00 531.80v-82.00"/>
<g transform="translate(10.00,449.80) scale(1,0.82)">
	<use xlink:href="#brace"/>
</g>
<path class="stroke" stroke-width="1"
	d="M146.90 473.80v-24.00"/>
<path class="stroke" stroke-width="1"
	d="M146.90 531.80v-24.00"/>
<path class="stroke" stroke-width="1"
	d="M244.50 473.80v-24.00"/>
<path class="stroke" stroke-width="1"
	d="M244.50 531.80v-24.00"/>
<path class="stroke" stroke-width="1"
	d="M342.20 473.80v-24.00"/>
<path class="stroke" stroke-width="1"
	d="M342.20 531.80v-24.00"/>
<path class="stroke" stroke-width="1"
	d="M406.20 473.80v-24.00"/>
<path class="stroke" stroke-width="1"
	d="M406.20 531.80v-24.00"/>
<path d="m10.00 473.80
	h396.20
	M10.00 467.80
	h396.20
	M10.00 461.80
	h396.20
	M10.00 455.80
	h396.20
	M10.00 449.80
	h396.20
	" class="stroke"/>
<path d="m10.00 531.80
	h396.20
	M10.00 525.80
	h396.20
	M10.00 519.80
	h396.20
	M10.00 513.80
	h396.20
	M10.00 507.80
	h396.20
	" class="stroke"/>
</g>
<g stroke-width="0.70" style="font:bold 13.00px Times">
<text x="64.20" y="445.20">I</text>
</g>
<g stroke-width="0.70" style="font:bold 13.00px Times">
<text x="157.90" y="437.20">IV</text>
</g>
<g stroke-width="0.70" style="font:bold 13.00px Times">
<text x="255.50" y="445.20">V<tspan
	 style="font:italic 11.00px Times">⁷</tspan></text>
</g>
<g stroke-width="0.70" style="font:bold 13.00px Times">
<text x="357.20" y="445.20">I</text>
<use x="22.00" y="467.80" xlink:href="#tclef"/>
<use x="37.00" y="461.80" xlink:href="#ft0"/>
<use x="42.50" y="452.80" xlink:href="#ft0"/>
<use x="48.00" y="464.80" xlink:href="#ft0"/>
<use x="66.00" y="458.80" xlink:href="#hd"/>
<path d="M62.50 458.80v21.00" class="stroke"/>
<use x="113.60" y="461.80" xlink:href="#hd"/>
<path d="M110.10 461.80v21.00" class="stroke"/>
<use x="163.70" y="464.80" xlink:href="#hd"/>
<path d="M167.20 464.80v-21.00" class="stroke"/>
<use x="211.30" y="470.80" xlink:href="#hd"/>
<path d="M214.80 470.80v-21.00" class="stroke"/>
<use x="261.40" y="473.80" xlink:href="#hd"/>
<path d="M264.90 473.80v-21.00" class="stroke"/>
<use x="308.90" y="476.80" xlink:href="#hd"/>
<path d="M312.40 476.80v-21.00" class="stroke"/>
<use x="359.10" y="473.80" xlink:href="#Hd"/>
<path d="M362.60 473.80v-21.00" class="stroke"/>
<use x="22.00" y="513.80" xlink:href="#bclef"/>
<use x="37.00" y="525.80" xlink:href="#ft0"/>
<use x="42.50" y="516.80" xlink:href="#ft0"/>
<use x="48.00" y="528.80" xlink:href="#ft0"/>
<use x="66.00" y="537.80" xlink:href="#hl"/>
<use x="66.00" y="537.80" xlink:href="#hd"/>
<path d="M69.50 537.80v-31.00" class="stroke"/>
<use x="66.00" y="531.80" xlink:href="#hd"/>
<use x="66.00" y="525.80" xlink:href="#hd"/>
<use x="113.60" y="537.80" xlink:href="#hl"/>
<use x="113.60" y="537.80" xlink:href="#hd"/>
<path d="M117.10 537.80v-31.00" class="stroke"/>
<use x="113.60" y="531.80" xlink:href="#hd"/>
<use x="113.60" y="525.80" xlink:href="#hd"/>
<use x="163.70" y="528.80" xlink:href="#hd"/>
<path d="M167.20 528.80v-31.00" class="stroke"/>
<use x="163.70" y="522.80" xlink:href="#hd"/>
<use x="163.70" y="516.80" xlink:href="#hd"/>
<use x="211.30" y="528.80" xlink:href="#hd"/>
<path d="M214.80 528.80v-31.00" class="stroke"/>
<use x="211.30" y="522.80" xlink:href="#hd"/>
<use x="211.30" y="516.80" xlink:href="#hd"/>
<use x="261.40" y="525.80" xlink:href="#hd"/>
<path d="M264.90 525.80v-31.00" class="stroke"/>
<use x="261.40" y="519.80" xlink:href="#hd"/>
<use x="261.40" y="513.80" xlink:href="#hd"/>
<use x="308.90" y="525.80" xlink:href="#hd"/>
<path d="M312.40 525.80v-31.00" class="stroke"/>
<use x="308.90" y="519.80" xlink:href="#hd"/>
<use x="308.90" y="513.80" xlink:href="#hd"/>
<use x="359.10" y="537.80" xlink:href="#hl"/>
<use x="359.10" y="537.80" xlink:href="#Hd"/>
<path d="M362.60 537.80v-31.00" class="stroke"/>
<use x="359.10" y="531.80" xlink:href="#Hd"/>
<use x="359.10" y="525.80" xlink:href="#Hd"/>
</g>
</svg>
