<?xml version="1.0" standalone="no"?>
<!DOCTYPE svg PUBLIC "-//W3C//DTD SVG 1.1//EN"
	"http://www.w3.org/Graphics/SVG/1.1/DTD/svg11.dtd">
<svg xmlns="http://www.w3.org/2000/svg" version="1.1"
	xmlns:xlink="http://www.w3.org/1999/xlink"
	color="black"
	width="701.60px" height="466.20px" viewBox="0 0 701.60 466.20" preserveAspectRatio="xMidYMid meet">
<style type="text/css">
.fill {fill: currentColor}
.stroke {stroke: currentColor; fill: none}
text{white-space: pre}
</style>
<title>/tmp/reharm_hymnal_L6/he_leadeth_me.abc (1) tune 1</title>
<!-- Creator: abcm2ps-8.14.11 -->
<!-- CreationDate: Apr 24, 2026 15:32 -->
<!-- CommandLine: /tmp/reharm_hymnal_L6/he_leadeth_me.abc -g -O /tmp/reharm_hymnal_L6/he_leadeth_me -->
<g stroke-width="0.70">
<!-- title: 088. He Leadeth Me -->
</g>
<g stroke-width="0.70" style="font:20.00px Times">
<text x="350.80" y="22.00" text-anchor="middle">088. He Leadeth Me</text>
</g>
<g stroke-width="0.70" style="font:20.00px Times">
<path class="stroke" stroke-width="1"
	d="M10.00 145.40v-82.00"/>
<defs>
<path id="brace" class="fill" d="m-2.5 101
	c-4.5 -4.6 -7.5 -12.2 -4.4 -26.8
	3.5 -14.3 3.2 -21.7 -2.1 -24.2
	7.4 2.4 7.3 14.2 3.5 29.5
	-2.7 9.5 -1.5 16.2 3 21.5
	M-2.5 1c-4.5 4.6 -7.5 12.2 -4.4 26.8
	c3.5 14.3 3.2 21.7 -2.1 24.2
	7.4 -2.4 7.3 -14.2 3.5 -29.5
	-2.7 -9.5 -1.5 -16.2 3 -21.5"/>
</defs>
<g transform="translate(10.00,63.40) scale(1,0.82)">
	<use xlink:href="#brace"/>
</g>
<path class="stroke" stroke-width="1"
	d="M171.10 87.40v-24.00"/>
<path class="stroke" stroke-width="1"
	d="M171.10 145.40v-24.00"/>
<path class="stroke" stroke-width="1"
	d="M262.90 87.40v-24.00"/>
<path class="stroke" stroke-width="1"
	d="M262.90 145.40v-24.00"/>
<path class="stroke" stroke-width="1"
	d="M367.00 87.40v-24.00"/>
<path class="stroke" stroke-width="1"
	d="M367.00 145.40v-24.00"/>
<path class="stroke" stroke-width="1"
	d="M483.20 87.40v-24.00"/>
<path class="stroke" stroke-width="1"
	d="M483.20 145.40v-24.00"/>
<path class="stroke" stroke-width="1"
	d="M587.30 87.40v-24.00"/>
<path class="stroke" stroke-width="1"
	d="M587.30 145.40v-24.00"/>
<path class="stroke" stroke-width="1"
	d="M691.60 87.40v-24.00"/>
<path class="stroke" stroke-width="1"
	d="M691.60 145.40v-24.00"/>
<path d="m10.00 87.40
	h681.60
	M10.00 81.40
	h681.60
	M10.00 75.40
	h681.60
	M10.00 69.40
	h681.60
	M10.00 63.40
	h681.60
	" class="stroke"/>
<path d="m10.00 145.40
	h681.60
	M10.00 139.40
	h681.60
	M10.00 133.40
	h681.60
	M10.00 127.40
	h681.60
	M10.00 121.40
	h681.60
	" class="stroke"/>
</g>
<g stroke-width="0.70" style="font:bold 13.00px Times">
<text x="86.30" y="50.80">I<tspan
	 style="font:italic 11.00px Times">Δ⁷</tspan></text>
</g>
<g stroke-width="0.70" style="font:bold 13.00px Times">
<text x="175.60" y="47.80">IV<tspan
	 style="font:italic 11.00px Times">Δ⁷</tspan></text>
</g>
<g stroke-width="0.70" style="font:bold 13.00px Times">
<text x="282.20" y="47.80">I<tspan
	 style="font:italic 11.00px Times">Δ⁷</tspan></text>
</g>
<g stroke-width="0.70" style="font:bold 13.00px Times">
<text x="384.00" y="58.80">vi<tspan
	 style="font:italic 11.00px Times">m⁷</tspan></text>
</g>
<g stroke-width="0.70" style="font:bold 13.00px Times">
<text x="502.40" y="50.80">I<tspan
	 style="font:italic 11.00px Times">Δ⁷</tspan></text>
</g>
<g stroke-width="0.70" style="font:bold 13.00px Times">
<text x="604.30" y="47.80">vi<tspan
	 style="font:italic 11.00px Times">m⁷</tspan></text>
</g>
<g stroke-width="0.70" style="font:italic 11.00px Times">
<defs>
<path id="utclef" class="fill" d="m-50 -90
	c-72 -41 -72 -158 52 -188
	150 -10 220 188 90 256
	-114 52 -275 0 -293 -136
	-15 -181 93 -229 220 -334
	88 -87 79 -133 62 -210
	-51 33 -94 105 -89 186
	17 267 36 374 49 574
	6 96 -19 134 -77 135
	-80 1 -126 -93 -61 -133
	85 -41 133 101 31 105
	23 17 92 37 90 -92
	-10 -223 -39 -342 -50 -617
	0 -90 0 -162 96 -232
	56 72 63 230 22 289
	-74 106 -257 168 -255 316
	9 153 148 185 252 133
	86 -65 29 -192 -80 -176
	-71 12 -105 67 -59 124"/>
<use id="tclef" transform="translate(0,6) scale(0.045)"
	xlink:href="#utclef"/>
</defs>
<use x="22.00" y="81.40" xlink:href="#tclef"/>
<defs>
<path id="usharp" class="fill" d="
	m136 -702
	v890
	h32
	v-890
	m128 840
	h32
	v-888
	h-32
	m-232 286
	v116
	l338 -96
	v-116
	m-338 442
	v116
	l338 -98
	v-114"/>
<use id="sh0" transform="translate(-4,5) scale(0.018)"
	xlink:href="#usharp"/>
</defs>
<use x="37.00" y="63.40" xlink:href="#sh0"/>
<use x="42.50" y="72.40" xlink:href="#sh0"/>
<g style="font:bold 16px serif"
	transform="translate(58.50,86.90) scale(1.2,1)">
	<text text-anchor="middle">4</text>
	<text y="-12" text-anchor="middle">4</text>
</g>
<defs>
<ellipse id="hd" rx="4.1" ry="2.9"
	transform="rotate(-20)" class="fill"/>
</defs>
<use x="92.00" y="78.40" xlink:href="#hd"/>
<path d="M95.50 78.40v-21.00" class="stroke"/>
<use x="112.80" y="84.40" xlink:href="#hd"/>
<circle class="fill" cx="120.50" cy="84.40" r="1.2"/>
<path d="M116.30 84.40v-21.00" class="stroke"/>
<use x="138.20" y="87.40" xlink:href="#hd"/>
<path d="M141.70 87.40v-21.00" class="stroke"/>
<path class="fill"
	d="M141.70 66.40c0.6 5.6 9.6 9 5.6 18.4
	1.6 -6 -1.3 -11.6 -5.6 -12.8
"/>
<use x="154.80" y="90.40" xlink:href="#hd"/>
<path d="M158.30 90.40v-21.00" class="stroke"/>
<use x="183.60" y="78.40" xlink:href="#hd"/>
<path d="M187.10 78.40v-21.00" class="stroke"/>
<use x="204.40" y="75.40" xlink:href="#hd"/>
<path d="M207.90 75.40v-21.00" class="stroke"/>
<use x="225.20" y="81.40" xlink:href="#hd"/>
<path d="M228.70 81.40v-21.00" class="stroke"/>
<use x="246.70" y="81.40" xlink:href="#hd"/>
<path d="M250.20 81.40v-21.00" class="stroke"/>
<use x="287.90" y="75.40" xlink:href="#hd"/>
<path d="M291.40 75.40v-21.00" class="stroke"/>
<use x="308.70" y="78.40" xlink:href="#hd"/>
<circle class="fill" cx="316.40" cy="78.40" r="1.2"/>
<path d="M312.20 78.40v-21.00" class="stroke"/>
<use x="334.10" y="84.40" xlink:href="#hd"/>
<path d="M337.60 84.40v-21.00" class="stroke"/>
<path class="fill"
	d="M337.60 63.40c0.6 5.6 9.6 9 5.6 18.4
	1.6 -6 -1.3 -11.6 -5.6 -12.8
"/>
<use x="350.80" y="84.40" xlink:href="#hd"/>
<path d="M354.30 84.40v-21.00" class="stroke"/>
<use x="392.00" y="87.40" xlink:href="#hd"/>
<path d="M395.50 87.40v-21.00" class="stroke"/>
<path class="fill"
	d="M395.50 66.40c0.6 5.6 9.6 9 5.6 18.4
	1.6 -6 -1.3 -11.6 -5.6 -12.8
"/>
<use x="408.70" y="90.40" xlink:href="#hd"/>
<path d="M412.20 90.40v-21.00" class="stroke"/>
<path class="fill"
	d="M412.20 69.40c0.6 5.6 9.6 9 5.6 18.4
	1.6 -6 -1.3 -11.6 -5.6 -12.8
"/>
<use x="425.30" y="84.40" xlink:href="#hd"/>
<path d="M428.80 84.40v-21.00" class="stroke"/>
<use x="446.10" y="84.40" xlink:href="#hd"/>
<path d="M449.60 84.40v-21.00" class="stroke"/>
<use x="466.90" y="87.40" xlink:href="#hd"/>
<path d="M470.40 87.40v-21.00" class="stroke"/>
<use x="508.20" y="78.40" xlink:href="#hd"/>
<path d="M511.70 78.40v-21.00" class="stroke"/>
<use x="529.00" y="84.40" xlink:href="#hd"/>
<circle class="fill" cx="536.70" cy="84.40" r="1.2"/>
<path d="M532.50 84.40v-21.00" class="stroke"/>
<use x="554.40" y="87.40" xlink:href="#hd"/>
<path d="M557.90 87.40v-21.00" class="stroke"/>
<path class="fill"
	d="M557.90 66.40c0.6 5.6 9.6 9 5.6 18.4
	1.6 -6 -1.3 -11.6 -5.6 -12.8
"/>
<use x="571.00" y="90.40" xlink:href="#hd"/>
<path d="M574.50 90.40v-21.00" class="stroke"/>
<use x="612.30" y="78.40" xlink:href="#hd"/>
<path d="M615.80 78.40v-21.00" class="stroke"/>
<use x="633.10" y="75.40" xlink:href="#hd"/>
<path d="M636.60 75.40v-21.00" class="stroke"/>
<use x="653.90" y="81.40" xlink:href="#hd"/>
<path d="M657.40 81.40v-21.00" class="stroke"/>
<use x="675.40" y="69.40" xlink:href="#hd"/>
<path d="M671.90 69.40v21.00" class="stroke"/>
<defs>
<path id="ubclef" class="fill" d="m-200 -87
	c124 -35 222 -78 254 -236
	43 -228 -167 -246 -192 -103
	59 -80 157 22 92 78
	-62 47 -115 -22 -106 -88
	21 -141 270 -136 274 52
	-1 175 -106 264 -322 297
	m357 -250
	c0 -36 51 -34 51 0
	0 37 -51 36 -51 0
	m-2 -129
	c0 -36 51 -34 51 0
	0 38 -51 37 -51 0"/>
<use id="bclef" transform="translate(0,18) scale(0.045)"
	xlink:href="#ubclef"/>
</defs>
<use x="22.00" y="127.40" xlink:href="#bclef"/>
<use x="37.00" y="127.40" xlink:href="#sh0"/>
<use x="42.50" y="136.40" xlink:href="#sh0"/>
<g style="font:bold 16px serif"
	transform="translate(58.50,144.90) scale(1.2,1)">
	<text text-anchor="middle">4</text>
	<text y="-12" text-anchor="middle">4</text>
</g>
<defs>
<path id="hl1" class="stroke" d="m-7 0h14"/>
</defs>
<use x="93.00" y="151.40" xlink:href="#hl1"/>
<use x="93.00" y="157.40" xlink:href="#hl1"/>
<use x="93.00" y="163.40" xlink:href="#hl1"/>
<use x="93.00" y="169.40" xlink:href="#hl1"/>
<use x="93.00" y="175.40" xlink:href="#hl1"/>
<defs>
<path id="HD" class="fill" d="m-2.7 -1.4
	c1.5 -2.8 6.9 0 5.3 2.7
	-1.5 2.8 -6.9 0 -5.3 -2.7
	m8.3 1.4
	c0 -1.5 -2.2 -3 -5.6 -3
	-3.4 0 -5.6 1.5 -5.6 3
	0 1.5 2.2 3 5.6 3
	3.4 0 5.6 -1.5 5.6 -3"/>
</defs>
<use x="93.00" y="175.40" xlink:href="#HD"/>
<use x="93.00" y="154.40" xlink:href="#HD"/>
<use x="93.00" y="148.40" xlink:href="#HD"/>
<use x="93.00" y="142.40" xlink:href="#HD"/>
<use x="93.00" y="136.40" xlink:href="#HD"/>
<use x="183.60" y="145.40" xlink:href="#hd"/>
<path d="M187.10 145.40v-21.00" class="stroke"/>
<use x="204.40" y="139.40" xlink:href="#hd"/>
<path d="M207.90 139.40v-21.00" class="stroke"/>
<use x="225.20" y="133.40" xlink:href="#hd"/>
<path d="M228.70 133.40v-21.00" class="stroke"/>
<use x="246.70" y="127.40" xlink:href="#hd"/>
<path d="M243.20 127.40v21.00" class="stroke"/>
<use x="288.90" y="151.40" xlink:href="#hl1"/>
<use x="288.90" y="157.40" xlink:href="#hl1"/>
<use x="288.90" y="163.40" xlink:href="#hl1"/>
<use x="288.90" y="169.40" xlink:href="#hl1"/>
<use x="288.90" y="175.40" xlink:href="#hl1"/>
<use x="288.90" y="175.40" xlink:href="#HD"/>
<use x="288.90" y="154.40" xlink:href="#HD"/>
<use x="288.90" y="148.40" xlink:href="#HD"/>
<use x="288.90" y="142.40" xlink:href="#HD"/>
<use x="288.90" y="136.40" xlink:href="#HD"/>
<use x="393.00" y="151.40" xlink:href="#hl1"/>
<use x="393.00" y="157.40" xlink:href="#hl1"/>
<use x="393.00" y="160.40" xlink:href="#HD"/>
<use x="393.00" y="139.40" xlink:href="#HD"/>
<use x="393.00" y="133.40" xlink:href="#HD"/>
<use x="393.00" y="127.40" xlink:href="#HD"/>
<use x="393.00" y="121.40" xlink:href="#HD"/>
<use x="509.20" y="151.40" xlink:href="#hl1"/>
<use x="509.20" y="157.40" xlink:href="#hl1"/>
<use x="509.20" y="163.40" xlink:href="#hl1"/>
<use x="509.20" y="169.40" xlink:href="#hl1"/>
<use x="509.20" y="175.40" xlink:href="#hl1"/>
<use x="509.20" y="175.40" xlink:href="#HD"/>
<use x="509.20" y="154.40" xlink:href="#HD"/>
<use x="509.20" y="148.40" xlink:href="#HD"/>
<use x="509.20" y="142.40" xlink:href="#HD"/>
<use x="509.20" y="136.40" xlink:href="#HD"/>
<use x="613.30" y="151.40" xlink:href="#hl1"/>
<use x="613.30" y="157.40" xlink:href="#hl1"/>
<use x="613.30" y="160.40" xlink:href="#HD"/>
<use x="613.30" y="139.40" xlink:href="#HD"/>
<use x="613.30" y="133.40" xlink:href="#HD"/>
<use x="613.30" y="127.40" xlink:href="#HD"/>
<use x="613.30" y="121.40" xlink:href="#HD"/>
<defs>
<path id="ltr" class="fill"
    d="m0 -0.4c2 -1.5 3.4 -1.9 3.9 0.4
	c0.2 0.8 0.7 0.7 2.1 -0.4
	v0.8c-2 1.5 -3.4 1.9 -3.9 -0.4
	c-0.2 -0.8 -0.7 -0.7 -2.1 0.4z"/>
</defs>
<g transform="rotate(270)">
<use x="-178.40" y="79.50" xlink:href="#ltr"/>
<use x="-172.40" y="79.50" xlink:href="#ltr"/>
<use x="-166.40" y="79.50" xlink:href="#ltr"/>
<use x="-160.40" y="79.50" xlink:href="#ltr"/>
<use x="-154.40" y="79.50" xlink:href="#ltr"/>
<use x="-148.40" y="79.50" xlink:href="#ltr"/>
<use x="-142.40" y="79.50" xlink:href="#ltr"/>
<use x="-136.40" y="79.50" xlink:href="#ltr"/>
</g>
<g transform="rotate(270)">
<use x="-178.40" y="275.40" xlink:href="#ltr"/>
<use x="-172.40" y="275.40" xlink:href="#ltr"/>
<use x="-166.40" y="275.40" xlink:href="#ltr"/>
<use x="-160.40" y="275.40" xlink:href="#ltr"/>
<use x="-154.40" y="275.40" xlink:href="#ltr"/>
<use x="-148.40" y="275.40" xlink:href="#ltr"/>
<use x="-142.40" y="275.40" xlink:href="#ltr"/>
<use x="-136.40" y="275.40" xlink:href="#ltr"/>
</g>
<g transform="rotate(270)">
<use x="-163.40" y="379.50" xlink:href="#ltr"/>
<use x="-157.40" y="379.50" xlink:href="#ltr"/>
<use x="-151.40" y="379.50" xlink:href="#ltr"/>
<use x="-145.40" y="379.50" xlink:href="#ltr"/>
<use x="-139.40" y="379.50" xlink:href="#ltr"/>
<use x="-133.40" y="379.50" xlink:href="#ltr"/>
<use x="-127.40" y="379.50" xlink:href="#ltr"/>
<use x="-121.40" y="379.50" xlink:href="#ltr"/>
</g>
<g transform="rotate(270)">
<use x="-178.40" y="495.70" xlink:href="#ltr"/>
<use x="-172.40" y="495.70" xlink:href="#ltr"/>
<use x="-166.40" y="495.70" xlink:href="#ltr"/>
<use x="-160.40" y="495.70" xlink:href="#ltr"/>
<use x="-154.40" y="495.70" xlink:href="#ltr"/>
<use x="-148.40" y="495.70" xlink:href="#ltr"/>
<use x="-142.40" y="495.70" xlink:href="#ltr"/>
<use x="-136.40" y="495.70" xlink:href="#ltr"/>
</g>
<g transform="rotate(270)">
<use x="-163.40" y="599.80" xlink:href="#ltr"/>
<use x="-157.40" y="599.80" xlink:href="#ltr"/>
<use x="-151.40" y="599.80" xlink:href="#ltr"/>
<use x="-145.40" y="599.80" xlink:href="#ltr"/>
<use x="-139.40" y="599.80" xlink:href="#ltr"/>
<use x="-133.40" y="599.80" xlink:href="#ltr"/>
<use x="-127.40" y="599.80" xlink:href="#ltr"/>
<use x="-121.40" y="599.80" xlink:href="#ltr"/>
</g>
</g>
<g stroke-width="0.70" style="font:italic 11.00px Times">
<path class="stroke" stroke-width="1"
	d="M10.00 288.80v-82.00"/>
<g transform="translate(10.00,206.80) scale(1,0.82)">
	<use xlink:href="#brace"/>
</g>
<path class="stroke" stroke-width="1"
	d="M192.70 230.80v-24.00"/>
<path class="stroke" stroke-width="1"
	d="M192.70 288.80v-24.00"/>
<path class="stroke" stroke-width="1"
	d="M319.50 230.80v-24.00"/>
<path class="stroke" stroke-width="1"
	d="M319.50 288.80v-24.00"/>
<path class="stroke" stroke-width="1"
	d="M434.90 230.80v-24.00"/>
<path class="stroke" stroke-width="1"
	d="M434.90 288.80v-24.00"/>
<path class="stroke" stroke-width="1"
	d="M559.30 230.80v-24.00"/>
<path class="stroke" stroke-width="1"
	d="M559.30 288.80v-24.00"/>
<path class="stroke" stroke-width="1"
	d="M691.60 230.80v-24.00"/>
<path class="stroke" stroke-width="1"
	d="M691.60 288.80v-24.00"/>
<path d="m10.00 230.80
	h681.60
	M10.00 224.80
	h681.60
	M10.00 218.80
	h681.60
	M10.00 212.80
	h681.60
	M10.00 206.80
	h681.60
	" class="stroke"/>
<path d="m10.00 288.80
	h681.60
	M10.00 282.80
	h681.60
	M10.00 276.80
	h681.60
	M10.00 270.80
	h681.60
	M10.00 264.80
	h681.60
	" class="stroke"/>
</g>
<g stroke-width="0.70" style="font:bold 13.00px Times">
<text x="70.30" y="202.20">I<tspan
	 style="font:italic 11.00px Times">Δ⁷</tspan></text>
</g>
<g stroke-width="0.70" style="font:bold 13.00px Times">
<text x="209.70" y="202.20">IV<tspan
	 style="font:italic 11.00px Times">Δ⁷</tspan></text>
</g>
<g stroke-width="0.70" style="font:bold 13.00px Times">
<text x="338.70" y="194.20">I<tspan
	 style="font:italic 11.00px Times">Δ⁷</tspan></text>
</g>
<g stroke-width="0.70" style="font:bold 13.00px Times">
<text x="451.90" y="202.20">vii<tspan
	 style="font:italic 11.00px Times">ø⁷</tspan></text>
</g>
<g stroke-width="0.70" style="font:bold 13.00px Times">
<text x="576.30" y="191.20">IV<tspan
	 style="font:italic 11.00px Times">Δ⁷</tspan></text>
</g>
<g stroke-width="0.70" style="font:italic 11.00px Times">
<use x="22.00" y="224.80" xlink:href="#tclef"/>
<use x="37.00" y="206.80" xlink:href="#sh0"/>
<use x="42.50" y="215.80" xlink:href="#sh0"/>
<use x="76.00" y="215.80" xlink:href="#hd"/>
<path d="M72.50 215.80v21.00" class="stroke"/>
<path class="fill"
	d="M72.50 236.80c0.6 -5.6 9.6 -9 5.6 -18.4
	1.6 6 -1.3 11.6 -5.6 12.8
"/>
<use x="93.50" y="218.80" xlink:href="#hd"/>
<path d="M90.00 218.80v21.00" class="stroke"/>
<path class="fill"
	d="M90.00 239.80c0.6 -5.6 9.6 -9 5.6 -18.4
	1.6 6 -1.3 11.6 -5.6 12.8
"/>
<use x="109.40" y="221.80" xlink:href="#hd"/>
<path d="M112.90 221.80v-21.00" class="stroke"/>
<use x="133.40" y="227.80" xlink:href="#hd"/>
<path d="M136.90 227.80v-21.00" class="stroke"/>
<use x="157.40" y="227.80" xlink:href="#hd"/>
<path d="M160.90 227.80v-21.00" class="stroke"/>
<path class="fill"
	d="M160.90 206.80c0.6 5.6 9.6 9 5.6 18.4
	1.6 -6 -1.3 -11.6 -5.6 -12.8
"/>
<use x="175.70" y="230.80" xlink:href="#hd"/>
<path d="M179.20 230.80v-21.00" class="stroke"/>
<path class="fill"
	d="M179.20 209.80c0.6 5.6 9.6 9 5.6 18.4
	1.6 -6 -1.3 -11.6 -5.6 -12.8
"/>
<use x="217.70" y="233.80" xlink:href="#hd"/>
<path d="M221.20 233.80v-21.00" class="stroke"/>
<path class="fill"
	d="M221.20 212.80c0.6 5.6 9.6 9 5.6 18.4
	1.6 -6 -1.3 -11.6 -5.6 -12.8
"/>
<use x="236.10" y="230.80" xlink:href="#hd"/>
<path d="M239.60 230.80v-21.00" class="stroke"/>
<path class="fill"
	d="M239.60 209.80c0.6 5.6 9.6 9 5.6 18.4
	1.6 -6 -1.3 -11.6 -5.6 -12.8
"/>
<use x="254.50" y="227.80" xlink:href="#hd"/>
<circle class="fill" cx="262.20" cy="227.80" r="1.2"/>
<path d="M258.00 227.80v-21.00" class="stroke"/>
<use x="283.10" y="230.80" xlink:href="#hd"/>
<path d="M286.60 230.80v-21.00" class="stroke"/>
<path class="fill"
	d="M286.60 209.80c0.6 5.6 9.6 9 5.6 18.4
	1.6 -6 -1.3 -11.6 -5.6 -12.8
"/>
<use x="301.40" y="233.80" xlink:href="#hd"/>
<path d="M304.90 233.80v-21.00" class="stroke"/>
<use x="344.50" y="221.80" xlink:href="#hd"/>
<path d="M348.00 221.80v-21.00" class="stroke"/>
<use x="368.40" y="221.80" xlink:href="#hd"/>
<path d="M371.90 221.80v-21.00" class="stroke"/>
<use x="392.90" y="212.80" xlink:href="#hd"/>
<path d="M389.40 212.80v21.00" class="stroke"/>
<use x="416.90" y="215.80" xlink:href="#hd"/>
<path d="M413.40 215.80v21.00" class="stroke"/>
<use x="459.90" y="212.80" xlink:href="#hd"/>
<path d="M456.40 212.80v21.00" class="stroke"/>
<use x="483.90" y="212.80" xlink:href="#hd"/>
<path d="M480.40 212.80v21.00" class="stroke"/>
<use x="507.90" y="215.80" xlink:href="#hd"/>
<path d="M504.40 215.80v21.00" class="stroke"/>
<path class="fill"
	d="M504.40 236.80c0.6 -5.6 9.6 -9 5.6 -18.4
	1.6 6 -1.3 11.6 -5.6 12.8
"/>
<use x="525.30" y="218.80" xlink:href="#hd"/>
<path d="M521.80 218.80v21.00" class="stroke"/>
<path class="fill"
	d="M521.80 239.80c0.6 -5.6 9.6 -9 5.6 -18.4
	1.6 6 -1.3 11.6 -5.6 12.8
"/>
<use x="541.30" y="221.80" xlink:href="#hd"/>
<path d="M544.80 221.80v-21.00" class="stroke"/>
<use x="584.30" y="218.80" xlink:href="#hd"/>
<path d="M587.80 218.80v-21.00" class="stroke"/>
<use x="608.30" y="221.80" xlink:href="#hd"/>
<path d="M611.80 221.80v-21.00" class="stroke"/>
<use x="632.20" y="227.80" xlink:href="#hd"/>
<path d="M635.70 227.80v-21.00" class="stroke"/>
<use x="656.20" y="227.80" xlink:href="#hd"/>
<path d="M659.70 227.80v-21.00" class="stroke"/>
<path class="fill"
	d="M659.70 206.80c0.6 5.6 9.6 9 5.6 18.4
	1.6 -6 -1.3 -11.6 -5.6 -12.8
"/>
<use x="674.60" y="230.80" xlink:href="#hd"/>
<path d="M678.10 230.80v-21.00" class="stroke"/>
<path class="fill"
	d="M678.10 209.80c0.6 5.6 9.6 9 5.6 18.4
	1.6 -6 -1.3 -11.6 -5.6 -12.8
"/>
<use x="22.00" y="270.80" xlink:href="#bclef"/>
<use x="37.00" y="270.80" xlink:href="#sh0"/>
<use x="42.50" y="279.80" xlink:href="#sh0"/>
<use x="77.00" y="294.80" xlink:href="#hl1"/>
<use x="77.00" y="300.80" xlink:href="#hl1"/>
<use x="77.00" y="306.80" xlink:href="#hl1"/>
<use x="77.00" y="312.80" xlink:href="#hl1"/>
<use x="77.00" y="318.80" xlink:href="#hl1"/>
<use x="77.00" y="318.80" xlink:href="#HD"/>
<use x="77.00" y="297.80" xlink:href="#HD"/>
<use x="77.00" y="291.80" xlink:href="#HD"/>
<use x="77.00" y="285.80" xlink:href="#HD"/>
<use x="77.00" y="279.80" xlink:href="#HD"/>
<use x="218.70" y="294.80" xlink:href="#hl1"/>
<use x="218.70" y="300.80" xlink:href="#hl1"/>
<use x="218.70" y="306.80" xlink:href="#hl1"/>
<use x="218.70" y="309.80" xlink:href="#HD"/>
<use x="218.70" y="288.80" xlink:href="#HD"/>
<use x="218.70" y="282.80" xlink:href="#HD"/>
<use x="218.70" y="276.80" xlink:href="#HD"/>
<use x="218.70" y="270.80" xlink:href="#HD"/>
<use x="345.50" y="294.80" xlink:href="#hl1"/>
<use x="345.50" y="300.80" xlink:href="#hl1"/>
<use x="345.50" y="306.80" xlink:href="#hl1"/>
<use x="345.50" y="312.80" xlink:href="#hl1"/>
<use x="345.50" y="318.80" xlink:href="#hl1"/>
<use x="345.50" y="318.80" xlink:href="#HD"/>
<use x="345.50" y="297.80" xlink:href="#HD"/>
<use x="345.50" y="291.80" xlink:href="#HD"/>
<use x="345.50" y="285.80" xlink:href="#HD"/>
<use x="345.50" y="279.80" xlink:href="#HD"/>
<use x="460.90" y="294.80" xlink:href="#hl1"/>
<use x="460.90" y="300.80" xlink:href="#hl1"/>
<use x="460.90" y="300.80" xlink:href="#HD"/>
<use x="460.90" y="279.80" xlink:href="#HD"/>
<use x="460.90" y="273.80" xlink:href="#HD"/>
<use x="460.90" y="267.80" xlink:href="#HD"/>
<use x="460.90" y="261.80" xlink:href="#HD"/>
<use x="585.30" y="294.80" xlink:href="#hl1"/>
<use x="585.30" y="300.80" xlink:href="#hl1"/>
<use x="585.30" y="306.80" xlink:href="#hl1"/>
<use x="585.30" y="309.80" xlink:href="#HD"/>
<use x="585.30" y="288.80" xlink:href="#HD"/>
<use x="585.30" y="282.80" xlink:href="#HD"/>
<use x="585.30" y="276.80" xlink:href="#HD"/>
<use x="585.30" y="270.80" xlink:href="#HD"/>
<g transform="rotate(270)">
<use x="-321.80" y="63.50" xlink:href="#ltr"/>
<use x="-315.80" y="63.50" xlink:href="#ltr"/>
<use x="-309.80" y="63.50" xlink:href="#ltr"/>
<use x="-303.80" y="63.50" xlink:href="#ltr"/>
<use x="-297.80" y="63.50" xlink:href="#ltr"/>
<use x="-291.80" y="63.50" xlink:href="#ltr"/>
<use x="-285.80" y="63.50" xlink:href="#ltr"/>
<use x="-279.80" y="63.50" xlink:href="#ltr"/>
</g>
<g transform="rotate(270)">
<use x="-312.80" y="205.20" xlink:href="#ltr"/>
<use x="-306.80" y="205.20" xlink:href="#ltr"/>
<use x="-300.80" y="205.20" xlink:href="#ltr"/>
<use x="-294.80" y="205.20" xlink:href="#ltr"/>
<use x="-288.80" y="205.20" xlink:href="#ltr"/>
<use x="-282.80" y="205.20" xlink:href="#ltr"/>
<use x="-276.80" y="205.20" xlink:href="#ltr"/>
<use x="-270.80" y="205.20" xlink:href="#ltr"/>
</g>
<g transform="rotate(270)">
<use x="-321.80" y="332.00" xlink:href="#ltr"/>
<use x="-315.80" y="332.00" xlink:href="#ltr"/>
<use x="-309.80" y="332.00" xlink:href="#ltr"/>
<use x="-303.80" y="332.00" xlink:href="#ltr"/>
<use x="-297.80" y="332.00" xlink:href="#ltr"/>
<use x="-291.80" y="332.00" xlink:href="#ltr"/>
<use x="-285.80" y="332.00" xlink:href="#ltr"/>
<use x="-279.80" y="332.00" xlink:href="#ltr"/>
</g>
<g transform="rotate(270)">
<use x="-303.80" y="447.40" xlink:href="#ltr"/>
<use x="-297.80" y="447.40" xlink:href="#ltr"/>
<use x="-291.80" y="447.40" xlink:href="#ltr"/>
<use x="-285.80" y="447.40" xlink:href="#ltr"/>
<use x="-279.80" y="447.40" xlink:href="#ltr"/>
<use x="-273.80" y="447.40" xlink:href="#ltr"/>
<use x="-267.80" y="447.40" xlink:href="#ltr"/>
<use x="-261.80" y="447.40" xlink:href="#ltr"/>
</g>
<g transform="rotate(270)">
<use x="-312.80" y="571.80" xlink:href="#ltr"/>
<use x="-306.80" y="571.80" xlink:href="#ltr"/>
<use x="-300.80" y="571.80" xlink:href="#ltr"/>
<use x="-294.80" y="571.80" xlink:href="#ltr"/>
<use x="-288.80" y="571.80" xlink:href="#ltr"/>
<use x="-282.80" y="571.80" xlink:href="#ltr"/>
<use x="-276.80" y="571.80" xlink:href="#ltr"/>
<use x="-270.80" y="571.80" xlink:href="#ltr"/>
</g>
</g>
<g stroke-width="0.70" style="font:italic 11.00px Times">
<path class="stroke" stroke-width="1"
	d="M10.00 439.20v-82.00"/>
<g transform="translate(10.00,357.20) scale(1,0.82)">
	<use xlink:href="#brace"/>
</g>
<path class="stroke" stroke-width="1"
	d="M184.60 381.20v-24.00"/>
<path class="stroke" stroke-width="1"
	d="M184.60 439.20v-24.00"/>
<path class="stroke" stroke-width="1"
	d="M305.80 381.20v-24.00"/>
<path class="stroke" stroke-width="1"
	d="M305.80 439.20v-24.00"/>
<path class="stroke" stroke-width="1"
	d="M436.30 381.20v-24.00"/>
<path class="stroke" stroke-width="1"
	d="M436.30 439.20v-24.00"/>
<path class="stroke" stroke-width="1"
	d="M562.30 381.20v-24.00"/>
<path class="stroke" stroke-width="1"
	d="M562.30 439.20v-24.00"/>
<path class="stroke" stroke-width="1"
	d="M691.60 381.20v-24.00"/>
<path class="stroke" stroke-width="1"
	d="M691.60 439.20v-24.00"/>
<path d="m10.00 381.20
	h681.60
	M10.00 375.20
	h681.60
	M10.00 369.20
	h681.60
	M10.00 363.20
	h681.60
	M10.00 357.20
	h681.60
	" class="stroke"/>
<path d="m10.00 439.20
	h681.60
	M10.00 433.20
	h681.60
	M10.00 427.20
	h681.60
	M10.00 421.20
	h681.60
	M10.00 415.20
	h681.60
	" class="stroke"/>
</g>
<g stroke-width="0.70" style="font:bold 13.00px Times">
<text x="68.00" y="352.60">IV<tspan
	 style="font:italic 11.00px Times">Δ⁷</tspan></text>
</g>
<g stroke-width="0.70" style="font:bold 13.00px Times">
<text x="203.70" y="344.60">V<tspan
	 style="font:italic 11.00px Times">⁷</tspan></text>
</g>
<g stroke-width="0.70" style="font:bold 13.00px Times">
<text x="322.80" y="351.60">vii<tspan
	 style="font:italic 11.00px Times">ø⁷³</tspan></text>
</g>
<g stroke-width="0.70" style="font:bold 13.00px Times">
<text x="440.80" y="341.60">IV<tspan
	 style="font:italic 11.00px Times">Δ⁷</tspan></text>
</g>
<g stroke-width="0.70" style="font:bold 13.00px Times">
<text x="579.30" y="334.60">vi<tspan
	 style="font:italic 11.00px Times">m⁷</tspan></text>
</g>
<g stroke-width="0.70" style="font:italic 11.00px Times">
<use x="22.00" y="375.20" xlink:href="#tclef"/>
<use x="37.00" y="357.20" xlink:href="#sh0"/>
<use x="42.50" y="366.20" xlink:href="#sh0"/>
<use x="76.00" y="384.20" xlink:href="#hd"/>
<path d="M79.50 384.20v-21.00" class="stroke"/>
<path class="fill"
	d="M79.50 363.20c0.6 5.6 9.6 9 5.6 18.4
	1.6 -6 -1.3 -11.6 -5.6 -12.8
"/>
<use x="95.20" y="381.20" xlink:href="#hd"/>
<path d="M98.70 381.20v-21.00" class="stroke"/>
<path class="fill"
	d="M98.70 360.20c0.6 5.6 9.6 9 5.6 18.4
	1.6 -6 -1.3 -11.6 -5.6 -12.8
"/>
<use x="114.50" y="378.20" xlink:href="#hd"/>
<path d="M118.00 378.20v-21.00" class="stroke"/>
<use x="140.10" y="378.20" xlink:href="#hd"/>
<path d="M143.60 378.20v-21.00" class="stroke"/>
<use x="165.70" y="381.20" xlink:href="#hd"/>
<path d="M169.20 381.20v-21.00" class="stroke"/>
<use x="209.60" y="372.20" xlink:href="#hd"/>
<path d="M213.10 372.20v-21.00" class="stroke"/>
<use x="235.20" y="372.20" xlink:href="#hd"/>
<path d="M238.70 372.20v-21.00" class="stroke"/>
<use x="261.20" y="363.20" xlink:href="#hd"/>
<path d="M257.70 363.20v21.00" class="stroke"/>
<use x="286.90" y="366.20" xlink:href="#hd"/>
<path d="M283.40 366.20v21.00" class="stroke"/>
<use x="330.80" y="360.20" xlink:href="#hd"/>
<path d="M327.30 360.20v21.00" class="stroke"/>
<use x="356.40" y="363.20" xlink:href="#hd"/>
<path d="M352.90 363.20v21.00" class="stroke"/>
<use x="382.00" y="366.20" xlink:href="#hd"/>
<path d="M378.50 366.20v21.00" class="stroke"/>
<path class="fill"
	d="M378.50 387.20c0.6 -5.6 9.6 -9 5.6 -18.4
	1.6 6 -1.3 11.6 -5.6 12.8
"/>
<use x="400.60" y="369.20" xlink:href="#hd"/>
<path d="M397.10 369.20v21.00" class="stroke"/>
<path class="fill"
	d="M397.10 390.20c0.6 -5.6 9.6 -9 5.6 -18.4
	1.6 6 -1.3 11.6 -5.6 12.8
"/>
<use x="417.40" y="372.20" xlink:href="#hd"/>
<path d="M420.90 372.20v-21.00" class="stroke"/>
<use x="448.80" y="369.20" xlink:href="#hd"/>
<path d="M452.30 369.20v-21.00" class="stroke"/>
<use x="474.40" y="372.20" xlink:href="#hd"/>
<path d="M477.90 372.20v-21.00" class="stroke"/>
<use x="500.00" y="378.20" xlink:href="#hd"/>
<path d="M503.50 378.20v-21.00" class="stroke"/>
<use x="526.00" y="378.20" xlink:href="#hd"/>
<path d="M529.50 378.20v-21.00" class="stroke"/>
<path class="fill"
	d="M529.50 357.20c0.6 5.6 9.6 9 5.6 18.4
	1.6 -6 -1.3 -11.6 -5.6 -12.8
"/>
<use x="545.30" y="381.20" xlink:href="#hd"/>
<path d="M548.80 381.20v-21.00" class="stroke"/>
<path class="fill"
	d="M548.80 360.20c0.6 5.6 9.6 9 5.6 18.4
	1.6 -6 -1.3 -11.6 -5.6 -12.8
"/>
<use x="587.30" y="384.20" xlink:href="#hd"/>
<path d="M590.80 384.20v-40.00" class="stroke"/>
<path class="fill"
	d="M590.80 344.20c0.6 5.6 9.6 9 5.6 18.4
	1.6 -6 -1.3 -11.6 -5.6 -12.8
"/>
<use x="587.30" y="363.20" xlink:href="#hd"/>
<use x="606.50" y="381.20" xlink:href="#hd"/>
<path d="M610.00 381.20v-40.00" class="stroke"/>
<path class="fill"
	d="M610.00 341.20c0.6 5.6 9.6 9 5.6 18.4
	1.6 -6 -1.3 -11.6 -5.6 -12.8
"/>
<use x="606.50" y="360.20" xlink:href="#hd"/>
<use x="626.10" y="357.20" xlink:href="#hd"/>
<circle class="fill" cx="633.80" cy="354.20" r="1.2"/>
<path d="M622.60 357.20v40.00" class="stroke"/>
<use x="626.10" y="378.20" xlink:href="#hd"/>
<circle class="fill" cx="633.80" cy="378.20" r="1.2"/>
<use x="653.50" y="381.20" xlink:href="#hd"/>
<path d="M657.00 381.20v-40.00" class="stroke"/>
<path class="fill"
	d="M657.00 341.20c0.6 5.6 9.6 9 5.6 18.4
	1.6 -6 -1.3 -11.6 -5.6 -12.8
"/>
<use x="653.50" y="360.20" xlink:href="#hd"/>
<use x="672.70" y="384.20" xlink:href="#hd"/>
<path d="M676.20 384.20v-40.00" class="stroke"/>
<use x="672.70" y="363.20" xlink:href="#hd"/>
<use x="22.00" y="421.20" xlink:href="#bclef"/>
<use x="37.00" y="421.20" xlink:href="#sh0"/>
<use x="42.50" y="430.20" xlink:href="#sh0"/>
<use x="77.00" y="445.20" xlink:href="#hl1"/>
<use x="77.00" y="451.20" xlink:href="#hl1"/>
<use x="77.00" y="457.20" xlink:href="#hl1"/>
<use x="77.00" y="460.20" xlink:href="#HD"/>
<use x="77.00" y="439.20" xlink:href="#HD"/>
<use x="77.00" y="433.20" xlink:href="#HD"/>
<use x="77.00" y="427.20" xlink:href="#HD"/>
<use x="77.00" y="421.20" xlink:href="#HD"/>
<use x="210.60" y="445.20" xlink:href="#hl1"/>
<use x="210.60" y="451.20" xlink:href="#hl1"/>
<use x="210.60" y="457.20" xlink:href="#hl1"/>
<use x="210.60" y="457.20" xlink:href="#HD"/>
<use x="210.60" y="436.20" xlink:href="#HD"/>
<use x="210.60" y="430.20" xlink:href="#HD"/>
<use x="210.60" y="424.20" xlink:href="#HD"/>
<use x="210.60" y="418.20" xlink:href="#HD"/>
<use x="331.80" y="445.20" xlink:href="#hl1"/>
<use x="331.80" y="451.20" xlink:href="#hl1"/>
<use x="331.80" y="451.20" xlink:href="#HD"/>
<use x="331.80" y="430.20" xlink:href="#HD"/>
<use x="331.80" y="424.20" xlink:href="#HD"/>
<use x="331.80" y="418.20" xlink:href="#HD"/>
<use x="331.80" y="412.20" xlink:href="#HD"/>
<use x="448.80" y="439.20" xlink:href="#hd"/>
<path d="M452.30 439.20v-21.00" class="stroke"/>
<use x="474.40" y="433.20" xlink:href="#hd"/>
<path d="M477.90 433.20v-21.00" class="stroke"/>
<use x="500.00" y="427.20" xlink:href="#hd"/>
<path d="M503.50 427.20v-21.00" class="stroke"/>
<use x="526.00" y="421.20" xlink:href="#hd"/>
<path d="M522.50 421.20v21.00" class="stroke"/>
<use x="588.30" y="445.20" xlink:href="#hl1"/>
<use x="588.30" y="451.20" xlink:href="#hl1"/>
<use x="588.30" y="454.20" xlink:href="#HD"/>
<use x="588.30" y="433.20" xlink:href="#HD"/>
<use x="588.30" y="427.20" xlink:href="#HD"/>
<use x="588.30" y="421.20" xlink:href="#HD"/>
<use x="588.30" y="415.20" xlink:href="#HD"/>
<g transform="rotate(270)">
<use x="-463.20" y="63.50" xlink:href="#ltr"/>
<use x="-457.20" y="63.50" xlink:href="#ltr"/>
<use x="-451.20" y="63.50" xlink:href="#ltr"/>
<use x="-445.20" y="63.50" xlink:href="#ltr"/>
<use x="-439.20" y="63.50" xlink:href="#ltr"/>
<use x="-433.20" y="63.50" xlink:href="#ltr"/>
<use x="-427.20" y="63.50" xlink:href="#ltr"/>
<use x="-421.20" y="63.50" xlink:href="#ltr"/>
</g>
<g transform="rotate(270)">
<use x="-460.20" y="197.10" xlink:href="#ltr"/>
<use x="-454.20" y="197.10" xlink:href="#ltr"/>
<use x="-448.20" y="197.10" xlink:href="#ltr"/>
<use x="-442.20" y="197.10" xlink:href="#ltr"/>
<use x="-436.20" y="197.10" xlink:href="#ltr"/>
<use x="-430.20" y="197.10" xlink:href="#ltr"/>
<use x="-424.20" y="197.10" xlink:href="#ltr"/>
<use x="-418.20" y="197.10" xlink:href="#ltr"/>
</g>
<g transform="rotate(270)">
<use x="-454.20" y="318.30" xlink:href="#ltr"/>
<use x="-448.20" y="318.30" xlink:href="#ltr"/>
<use x="-442.20" y="318.30" xlink:href="#ltr"/>
<use x="-436.20" y="318.30" xlink:href="#ltr"/>
<use x="-430.20" y="318.30" xlink:href="#ltr"/>
<use x="-424.20" y="318.30" xlink:href="#ltr"/>
<use x="-418.20" y="318.30" xlink:href="#ltr"/>
<use x="-412.20" y="318.30" xlink:href="#ltr"/>
</g>
<g transform="rotate(270)">
<use x="-457.20" y="574.80" xlink:href="#ltr"/>
<use x="-451.20" y="574.80" xlink:href="#ltr"/>
<use x="-445.20" y="574.80" xlink:href="#ltr"/>
<use x="-439.20" y="574.80" xlink:href="#ltr"/>
<use x="-433.20" y="574.80" xlink:href="#ltr"/>
<use x="-427.20" y="574.80" xlink:href="#ltr"/>
<use x="-421.20" y="574.80" xlink:href="#ltr"/>
<use x="-415.20" y="574.80" xlink:href="#ltr"/>
</g>
</g>
</svg>
