<?xml version="1.0" standalone="no"?>
<!DOCTYPE svg PUBLIC "-//W3C//DTD SVG 1.1//EN"
	"http://www.w3.org/Graphics/SVG/1.1/DTD/svg11.dtd">
<svg xmlns="http://www.w3.org/2000/svg" version="1.1"
	xmlns:xlink="http://www.w3.org/1999/xlink"
	color="black"
	width="701.60px" height="472.80px" viewBox="0 0 701.60 472.80" preserveAspectRatio="xMidYMid meet">
<style type="text/css">
.fill {fill: currentColor}
.stroke {stroke: currentColor; fill: none}
text{white-space: pre}
</style>
<title>/tmp/reharm_hymnal_L6/thou_who_at_thy_first_eucharist.abc (1) tune 1</title>
<!-- Creator: abcm2ps-8.14.11 -->
<!-- CreationDate: Apr 24, 2026 15:33 -->
<!-- CommandLine: /tmp/reharm_hymnal_L6/thou_who_at_thy_first_eucharist.abc -g -O /tmp/reharm_hymnal_L6/thou_who_at_thy_first_eucharist -->
<g stroke-width="0.70">
<!-- title: 250. Thou, Who at Thy First Eucharist -->
</g>
<g stroke-width="0.70" style="font:20.00px Times">
<text x="350.80" y="22.00" text-anchor="middle">250. Thou, Who at Thy First Eucharist</text>
</g>
<g stroke-width="0.70" style="font:20.00px Times">
<path class="stroke" stroke-width="1"
	d="M10.00 143.00v-82.00"/>
<defs>
<path id="brace" class="fill" d="m-2.5 101
	c-4.5 -4.6 -7.5 -12.2 -4.4 -26.8
	3.5 -14.3 3.2 -21.7 -2.1 -24.2
	7.4 2.4 7.3 14.2 3.5 29.5
	-2.7 9.5 -1.5 16.2 3 21.5
	M-2.5 1c-4.5 4.6 -7.5 12.2 -4.4 26.8
	c3.5 14.3 3.2 21.7 -2.1 24.2
	7.4 -2.4 7.3 -14.2 3.5 -29.5
	-2.7 -9.5 -1.5 -16.2 3 -21.5"/>
</defs>
<g transform="translate(10.00,61.00) scale(1,0.82)">
	<use xlink:href="#brace"/>
</g>
<path class="stroke" stroke-width="1"
	d="M181.70 85.00v-24.00"/>
<path class="stroke" stroke-width="1"
	d="M181.70 143.00v-24.00"/>
<path class="stroke" stroke-width="1"
	d="M296.50 85.00v-24.00"/>
<path class="stroke" stroke-width="1"
	d="M296.50 143.00v-24.00"/>
<path class="stroke" stroke-width="1"
	d="M375.20 85.00v-24.00"/>
<path class="stroke" stroke-width="1"
	d="M375.20 143.00v-24.00"/>
<path class="stroke" stroke-width="1"
	d="M503.80 85.00v-24.00"/>
<path class="stroke" stroke-width="1"
	d="M503.80 143.00v-24.00"/>
<path class="stroke" stroke-width="1"
	d="M612.90 85.00v-24.00"/>
<path class="stroke" stroke-width="1"
	d="M612.90 143.00v-24.00"/>
<path class="stroke" stroke-width="1"
	d="M691.60 85.00v-24.00"/>
<path class="stroke" stroke-width="1"
	d="M691.60 143.00v-24.00"/>
<path d="m10.00 85.00
	h681.60
	M10.00 79.00
	h681.60
	M10.00 73.00
	h681.60
	M10.00 67.00
	h681.60
	M10.00 61.00
	h681.60
	" class="stroke"/>
<path d="m10.00 143.00
	h681.60
	M10.00 137.00
	h681.60
	M10.00 131.00
	h681.60
	M10.00 125.00
	h681.60
	M10.00 119.00
	h681.60
	" class="stroke"/>
</g>
<g stroke-width="0.70" style="font:bold 13.00px Times">
<text x="86.30" y="54.40">I<tspan
	 style="font:italic 11.00px Times">Δ⁷</tspan></text>
</g>
<g stroke-width="0.70" style="font:bold 13.00px Times">
<text x="201.00" y="56.40">I<tspan
	 style="font:italic 11.00px Times">Δ⁷</tspan></text>
</g>
<g stroke-width="0.70" style="font:bold 13.00px Times">
<text x="313.80" y="51.40">I<tspan
	 style="font:italic 11.00px Times">Δ⁷¹</tspan></text>
</g>
<g stroke-width="0.70" style="font:bold 13.00px Times">
<text x="383.50" y="54.40">I<tspan
	 style="font:italic 11.00px Times">Δ⁷</tspan></text>
</g>
<g stroke-width="0.70" style="font:bold 13.00px Times">
<text x="519.80" y="51.40">ii<tspan
	 style="font:italic 11.00px Times">m⁷</tspan></text>
</g>
<g stroke-width="0.70" style="font:bold 13.00px Times">
<text x="629.90" y="54.40">vii<tspan
	 style="font:italic 11.00px Times">ø⁷</tspan></text>
</g>
<g stroke-width="0.70" style="font:italic 11.00px Times">
<defs>
<path id="utclef" class="fill" d="m-50 -90
	c-72 -41 -72 -158 52 -188
	150 -10 220 188 90 256
	-114 52 -275 0 -293 -136
	-15 -181 93 -229 220 -334
	88 -87 79 -133 62 -210
	-51 33 -94 105 -89 186
	17 267 36 374 49 574
	6 96 -19 134 -77 135
	-80 1 -126 -93 -61 -133
	85 -41 133 101 31 105
	23 17 92 37 90 -92
	-10 -223 -39 -342 -50 -617
	0 -90 0 -162 96 -232
	56 72 63 230 22 289
	-74 106 -257 168 -255 316
	9 153 148 185 252 133
	86 -65 29 -192 -80 -176
	-71 12 -105 67 -59 124"/>
<use id="tclef" transform="translate(0,6) scale(0.045)"
	xlink:href="#utclef"/>
</defs>
<use x="22.00" y="79.00" xlink:href="#tclef"/>
<defs>
<path id="usharp" class="fill" d="
	m136 -702
	v890
	h32
	v-890
	m128 840
	h32
	v-888
	h-32
	m-232 286
	v116
	l338 -96
	v-116
	m-338 442
	v116
	l338 -98
	v-114"/>
<use id="sh0" transform="translate(-4,5) scale(0.018)"
	xlink:href="#usharp"/>
</defs>
<use x="37.00" y="61.00" xlink:href="#sh0"/>
<use x="42.50" y="70.00" xlink:href="#sh0"/>
<g style="font:bold 16px serif"
	transform="translate(58.50,84.50) scale(1.2,1)">
	<text text-anchor="middle">4</text>
	<text y="-12" text-anchor="middle">4</text>
</g>
<defs>
<ellipse id="hd" rx="4.1" ry="2.9"
	transform="rotate(-20)" class="fill"/>
</defs>
<use x="92.00" y="82.00" xlink:href="#hd"/>
<path d="M95.50 82.00v-21.00" class="stroke"/>
<use x="116.10" y="82.00" xlink:href="#hd"/>
<circle class="fill" cx="123.80" cy="82.00" r="1.2"/>
<path d="M119.60 82.00v-21.00" class="stroke"/>
<use x="144.90" y="88.00" xlink:href="#hd"/>
<path d="M148.40 88.00v-21.00" class="stroke"/>
<path class="fill"
	d="M148.40 67.00c0.6 5.6 9.6 9 5.6 18.4
	1.6 -6 -1.3 -11.6 -5.6 -12.8
"/>
<use x="163.50" y="88.00" xlink:href="#hd"/>
<path d="M167.00 88.00v-21.00" class="stroke"/>
<use x="206.70" y="85.00" xlink:href="#hd"/>
<path d="M210.20 85.00v-21.00" class="stroke"/>
<use x="230.90" y="82.00" xlink:href="#hd"/>
<circle class="fill" cx="238.60" cy="82.00" r="1.2"/>
<path d="M234.40 82.00v-21.00" class="stroke"/>
<use x="259.70" y="82.00" xlink:href="#hd"/>
<path d="M263.20 82.00v-21.00" class="stroke"/>
<path class="fill"
	d="M263.20 61.00c0.6 5.6 9.6 9 5.6 18.4
	1.6 -6 -1.3 -11.6 -5.6 -12.8
"/>
<use x="278.30" y="82.00" xlink:href="#hd"/>
<path d="M281.80 82.00v-21.00" class="stroke"/>
<use x="321.50" y="79.00" xlink:href="#hd"/>
<path d="M325.00 79.00v-21.00" class="stroke"/>
<defs>
<path id="Hd" class="fill" d="m3 -1.6
	c-1 -1.8 -7 1.4 -6 3.2
	1 1.8 7 -1.4 6 -3.2
	m0.5 -0.3
	c2 3.8 -5 7.6 -7 3.8
	-2 -3.8 5 -7.6 7 -3.8"/>
</defs>
<use x="345.70" y="76.00" xlink:href="#Hd"/>
<circle class="fill" cx="354.40" cy="76.00" r="1.2"/>
<path d="M349.20 76.00v-21.00" class="stroke"/>
<use x="389.20" y="82.00" xlink:href="#hd"/>
<path d="M392.70 82.00v-21.00" class="stroke"/>
<use x="413.30" y="85.00" xlink:href="#hd"/>
<path d="M416.80 85.00v-21.00" class="stroke"/>
<use x="437.50" y="82.00" xlink:href="#hd"/>
<path d="M441.00 82.00v-21.00" class="stroke"/>
<use x="461.60" y="79.00" xlink:href="#hd"/>
<circle class="fill" cx="469.30" cy="76.00" r="1.2"/>
<path d="M465.10 79.00v-21.00" class="stroke"/>
<use x="527.80" y="79.00" xlink:href="#hd"/>
<path d="M531.30 79.00v-21.00" class="stroke"/>
<path class="fill"
	d="M531.30 58.00c0.6 5.6 9.6 9 5.6 18.4
	1.6 -6 -1.3 -11.6 -5.6 -12.8
"/>
<use x="546.40" y="79.00" xlink:href="#hd"/>
<path d="M549.90 79.00v-21.00" class="stroke"/>
<use x="570.50" y="82.00" xlink:href="#hd"/>
<path d="M574.00 82.00v-21.00" class="stroke"/>
<use x="594.60" y="76.00" xlink:href="#hd"/>
<path d="M598.10 76.00v-21.00" class="stroke"/>
<use x="637.90" y="82.00" xlink:href="#hd"/>
<path d="M641.40 82.00v-21.00" class="stroke"/>
<use x="662.10" y="85.00" xlink:href="#Hd"/>
<circle class="fill" cx="670.80" cy="82.00" r="1.2"/>
<path d="M665.60 85.00v-21.00" class="stroke"/>
<defs>
<path id="ubclef" class="fill" d="m-200 -87
	c124 -35 222 -78 254 -236
	43 -228 -167 -246 -192 -103
	59 -80 157 22 92 78
	-62 47 -115 -22 -106 -88
	21 -141 270 -136 274 52
	-1 175 -106 264 -322 297
	m357 -250
	c0 -36 51 -34 51 0
	0 37 -51 36 -51 0
	m-2 -129
	c0 -36 51 -34 51 0
	0 38 -51 37 -51 0"/>
<use id="bclef" transform="translate(0,18) scale(0.045)"
	xlink:href="#ubclef"/>
</defs>
<use x="22.00" y="125.00" xlink:href="#bclef"/>
<use x="37.00" y="125.00" xlink:href="#sh0"/>
<use x="42.50" y="134.00" xlink:href="#sh0"/>
<g style="font:bold 16px serif"
	transform="translate(58.50,142.50) scale(1.2,1)">
	<text text-anchor="middle">4</text>
	<text y="-12" text-anchor="middle">4</text>
</g>
<defs>
<path id="hl1" class="stroke" d="m-7 0h14"/>
</defs>
<use x="93.00" y="149.00" xlink:href="#hl1"/>
<use x="93.00" y="155.00" xlink:href="#hl1"/>
<use x="93.00" y="161.00" xlink:href="#hl1"/>
<use x="93.00" y="167.00" xlink:href="#hl1"/>
<use x="93.00" y="173.00" xlink:href="#hl1"/>
<defs>
<path id="HD" class="fill" d="m-2.7 -1.4
	c1.5 -2.8 6.9 0 5.3 2.7
	-1.5 2.8 -6.9 0 -5.3 -2.7
	m8.3 1.4
	c0 -1.5 -2.2 -3 -5.6 -3
	-3.4 0 -5.6 1.5 -5.6 3
	0 1.5 2.2 3 5.6 3
	3.4 0 5.6 -1.5 5.6 -3"/>
</defs>
<use x="93.00" y="173.00" xlink:href="#HD"/>
<use x="93.00" y="152.00" xlink:href="#HD"/>
<use x="93.00" y="146.00" xlink:href="#HD"/>
<use x="93.00" y="140.00" xlink:href="#HD"/>
<use x="93.00" y="134.00" xlink:href="#HD"/>
<use x="207.70" y="149.00" xlink:href="#hl1"/>
<use x="207.70" y="155.00" xlink:href="#hl1"/>
<use x="207.70" y="161.00" xlink:href="#hl1"/>
<use x="207.70" y="167.00" xlink:href="#hl1"/>
<use x="207.70" y="173.00" xlink:href="#hl1"/>
<use x="207.70" y="173.00" xlink:href="#HD"/>
<use x="207.70" y="152.00" xlink:href="#HD"/>
<use x="207.70" y="146.00" xlink:href="#HD"/>
<use x="207.70" y="140.00" xlink:href="#HD"/>
<use x="207.70" y="134.00" xlink:href="#HD"/>
<use x="322.50" y="149.00" xlink:href="#hl1"/>
<use x="322.50" y="155.00" xlink:href="#hl1"/>
<use x="322.50" y="161.00" xlink:href="#hl1"/>
<use x="322.50" y="167.00" xlink:href="#hl1"/>
<use x="322.50" y="173.00" xlink:href="#hl1"/>
<use x="322.50" y="173.00" xlink:href="#HD"/>
<use x="322.50" y="152.00" xlink:href="#HD"/>
<use x="322.50" y="146.00" xlink:href="#HD"/>
<use x="322.50" y="140.00" xlink:href="#HD"/>
<use x="322.50" y="134.00" xlink:href="#HD"/>
<use x="390.20" y="149.00" xlink:href="#hl1"/>
<use x="390.20" y="152.00" xlink:href="#HD"/>
<use x="390.20" y="146.00" xlink:href="#HD"/>
<use x="390.20" y="140.00" xlink:href="#HD"/>
<use x="390.20" y="134.00" xlink:href="#HD"/>
<defs>
<path id="hl" class="stroke" d="m-6 0h12"/>
</defs>
<use x="483.80" y="149.00" xlink:href="#hl"/>
<use x="483.80" y="152.00" xlink:href="#hd"/>
<path d="M487.30 152.00v-37.00" class="stroke"/>
<path class="fill"
	d="M487.30 115.00c0.6 5.6 9.6 9 5.6 18.4
	1.6 -6 -1.3 -11.6 -5.6 -12.8
"/>
<use x="483.80" y="146.00" xlink:href="#hd"/>
<use x="483.80" y="140.00" xlink:href="#hd"/>
<use x="483.80" y="134.00" xlink:href="#hd"/>
<use x="527.80" y="149.00" xlink:href="#hl"/>
<use x="527.80" y="155.00" xlink:href="#hl"/>
<use x="527.80" y="161.00" xlink:href="#hl"/>
<use x="527.80" y="167.00" xlink:href="#hl"/>
<use x="527.80" y="170.00" xlink:href="#Hd"/>
<circle class="fill" cx="536.50" cy="170.00" r="1.2"/>
<circle class="fill" cx="540.00" cy="170.00" r="1.2"/>
<path d="M531.30 170.00v-58.00" class="stroke"/>
<use x="527.80" y="149.00" xlink:href="#Hd"/>
<circle class="fill" cx="536.50" cy="146.00" r="1.2"/>
<circle class="fill" cx="540.00" cy="146.00" r="1.2"/>
<use x="527.80" y="143.00" xlink:href="#Hd"/>
<circle class="fill" cx="536.50" cy="140.00" r="1.2"/>
<circle class="fill" cx="540.00" cy="140.00" r="1.2"/>
<use x="527.80" y="137.00" xlink:href="#Hd"/>
<circle class="fill" cx="536.50" cy="134.00" r="1.2"/>
<circle class="fill" cx="540.00" cy="134.00" r="1.2"/>
<use x="527.80" y="131.00" xlink:href="#Hd"/>
<circle class="fill" cx="536.50" cy="128.00" r="1.2"/>
<circle class="fill" cx="540.00" cy="128.00" r="1.2"/>
<use x="638.90" y="149.00" xlink:href="#hl1"/>
<use x="638.90" y="155.00" xlink:href="#hl1"/>
<use x="638.90" y="155.00" xlink:href="#HD"/>
<use x="638.90" y="134.00" xlink:href="#HD"/>
<use x="638.90" y="128.00" xlink:href="#HD"/>
<use x="638.90" y="122.00" xlink:href="#HD"/>
<use x="638.90" y="116.00" xlink:href="#HD"/>
<path class="fill"
	d="M392.70 152.00c11.92 6.08 75.66 6.08 87.57 -0.00
	v0.29c-14.55 7.79 -73.03 7.79 -87.57 -0.29"/>
<path class="fill"
	d="M392.70 146.00c11.92 6.08 75.66 6.08 87.57 -0.00
	v0.29c-14.55 7.79 -73.03 7.79 -87.57 -0.29"/>
<path class="fill"
	d="M392.70 140.00c11.92 -6.08 75.66 -6.08 87.57 -0.00
	v-0.29c-14.55 -7.79 -73.03 -7.79 -87.57 0.29"/>
<path class="fill"
	d="M392.70 134.00c11.92 -6.08 75.66 -6.08 87.57 -0.00
	v-0.29c-14.55 -7.79 -73.03 -7.79 -87.57 0.29"/>
<defs>
<path id="ltr" class="fill"
    d="m0 -0.4c2 -1.5 3.4 -1.9 3.9 0.4
	c0.2 0.8 0.7 0.7 2.1 -0.4
	v0.8c-2 1.5 -3.4 1.9 -3.9 -0.4
	c-0.2 -0.8 -0.7 -0.7 -2.1 0.4z"/>
</defs>
<g transform="rotate(270)">
<use x="-176.00" y="79.50" xlink:href="#ltr"/>
<use x="-170.00" y="79.50" xlink:href="#ltr"/>
<use x="-164.00" y="79.50" xlink:href="#ltr"/>
<use x="-158.00" y="79.50" xlink:href="#ltr"/>
<use x="-152.00" y="79.50" xlink:href="#ltr"/>
<use x="-146.00" y="79.50" xlink:href="#ltr"/>
<use x="-140.00" y="79.50" xlink:href="#ltr"/>
<use x="-134.00" y="79.50" xlink:href="#ltr"/>
</g>
<g transform="rotate(270)">
<use x="-176.00" y="194.20" xlink:href="#ltr"/>
<use x="-170.00" y="194.20" xlink:href="#ltr"/>
<use x="-164.00" y="194.20" xlink:href="#ltr"/>
<use x="-158.00" y="194.20" xlink:href="#ltr"/>
<use x="-152.00" y="194.20" xlink:href="#ltr"/>
<use x="-146.00" y="194.20" xlink:href="#ltr"/>
<use x="-140.00" y="194.20" xlink:href="#ltr"/>
<use x="-134.00" y="194.20" xlink:href="#ltr"/>
</g>
<g transform="rotate(270)">
<use x="-176.00" y="309.00" xlink:href="#ltr"/>
<use x="-170.00" y="309.00" xlink:href="#ltr"/>
<use x="-164.00" y="309.00" xlink:href="#ltr"/>
<use x="-158.00" y="309.00" xlink:href="#ltr"/>
<use x="-152.00" y="309.00" xlink:href="#ltr"/>
<use x="-146.00" y="309.00" xlink:href="#ltr"/>
<use x="-140.00" y="309.00" xlink:href="#ltr"/>
<use x="-134.00" y="309.00" xlink:href="#ltr"/>
</g>
<g transform="rotate(270)">
<use x="-173.00" y="517.80" xlink:href="#ltr"/>
<use x="-167.00" y="517.80" xlink:href="#ltr"/>
<use x="-161.00" y="517.80" xlink:href="#ltr"/>
<use x="-155.00" y="517.80" xlink:href="#ltr"/>
<use x="-149.00" y="517.80" xlink:href="#ltr"/>
<use x="-143.00" y="517.80" xlink:href="#ltr"/>
<use x="-137.00" y="517.80" xlink:href="#ltr"/>
<use x="-131.00" y="517.80" xlink:href="#ltr"/>
</g>
<g transform="rotate(270)">
<use x="-158.00" y="625.40" xlink:href="#ltr"/>
<use x="-152.00" y="625.40" xlink:href="#ltr"/>
<use x="-146.00" y="625.40" xlink:href="#ltr"/>
<use x="-140.00" y="625.40" xlink:href="#ltr"/>
<use x="-134.00" y="625.40" xlink:href="#ltr"/>
<use x="-128.00" y="625.40" xlink:href="#ltr"/>
<use x="-122.00" y="625.40" xlink:href="#ltr"/>
<use x="-116.00" y="625.40" xlink:href="#ltr"/>
</g>
</g>
<g stroke-width="0.70" style="font:italic 11.00px Times">
<path class="stroke" stroke-width="1"
	d="M10.00 286.40v-82.00"/>
<g transform="translate(10.00,204.40) scale(1,0.82)">
	<use xlink:href="#brace"/>
</g>
<path class="stroke" stroke-width="1"
	d="M163.90 228.40v-24.00"/>
<path class="stroke" stroke-width="1"
	d="M163.90 286.40v-24.00"/>
<path class="stroke" stroke-width="1"
	d="M276.80 228.40v-24.00"/>
<path class="stroke" stroke-width="1"
	d="M276.80 286.40v-24.00"/>
<path class="stroke" stroke-width="1"
	d="M354.40 228.40v-24.00"/>
<path class="stroke" stroke-width="1"
	d="M354.40 286.40v-24.00"/>
<path class="stroke" stroke-width="1"
	d="M492.60 228.40v-24.00"/>
<path class="stroke" stroke-width="1"
	d="M492.60 286.40v-24.00"/>
<path class="stroke" stroke-width="1"
	d="M589.50 228.40v-24.00"/>
<path class="stroke" stroke-width="1"
	d="M589.50 286.40v-24.00"/>
<path class="stroke" stroke-width="1"
	d="M691.60 228.40v-24.00"/>
<path class="stroke" stroke-width="1"
	d="M691.60 286.40v-24.00"/>
<path d="m10.00 228.40
	h681.60
	M10.00 222.40
	h681.60
	M10.00 216.40
	h681.60
	M10.00 210.40
	h681.60
	M10.00 204.40
	h681.60
	" class="stroke"/>
<path d="m10.00 286.40
	h681.60
	M10.00 280.40
	h681.60
	M10.00 274.40
	h681.60
	M10.00 268.40
	h681.60
	M10.00 262.40
	h681.60
	" class="stroke"/>
</g>
<g stroke-width="0.70" style="font:bold 13.00px Times">
<text x="70.30" y="197.80">I<tspan
	 style="font:italic 11.00px Times">Δ⁷</tspan></text>
</g>
<g stroke-width="0.70" style="font:bold 13.00px Times">
<text x="180.90" y="197.80">vi<tspan
	 style="font:italic 11.00px Times">m⁷</tspan></text>
</g>
<g stroke-width="0.70" style="font:bold 13.00px Times">
<text x="294.10" y="191.80">I<tspan
	 style="font:italic 11.00px Times">Δ⁷¹</tspan></text>
</g>
<g stroke-width="0.70" style="font:bold 13.00px Times">
<text x="371.40" y="188.80">iii<tspan
	 style="font:italic 11.00px Times">m⁷</tspan></text>
</g>
<g stroke-width="0.70" style="font:bold 13.00px Times">
<text x="497.60" y="191.80">iii<tspan
	 style="font:italic 11.00px Times">m⁷</tspan></text>
</g>
<g stroke-width="0.70" style="font:bold 13.00px Times">
<text x="596.10" y="197.80">V<tspan
	 style="font:italic 11.00px Times">⁷</tspan></text>
</g>
<g stroke-width="0.70" style="font:italic 11.00px Times">
<use x="22.00" y="222.40" xlink:href="#tclef"/>
<use x="37.00" y="204.40" xlink:href="#sh0"/>
<use x="42.50" y="213.40" xlink:href="#sh0"/>
<use x="76.00" y="225.40" xlink:href="#hd"/>
<path d="M79.50 225.40v-21.00" class="stroke"/>
<use x="99.70" y="225.40" xlink:href="#hd"/>
<circle class="fill" cx="107.40" cy="225.40" r="1.2"/>
<path d="M103.20 225.40v-21.00" class="stroke"/>
<use x="127.90" y="231.40" xlink:href="#hd"/>
<path d="M131.40 231.40v-21.00" class="stroke"/>
<path class="fill"
	d="M131.40 210.40c0.6 5.6 9.6 9 5.6 18.4
	1.6 -6 -1.3 -11.6 -5.6 -12.8
"/>
<use x="146.10" y="231.40" xlink:href="#hd"/>
<path d="M149.60 231.40v-21.00" class="stroke"/>
<use x="188.90" y="228.40" xlink:href="#hd"/>
<path d="M192.40 228.40v-21.00" class="stroke"/>
<use x="212.60" y="225.40" xlink:href="#hd"/>
<circle class="fill" cx="220.30" cy="225.40" r="1.2"/>
<path d="M216.10 225.40v-21.00" class="stroke"/>
<use x="240.80" y="225.40" xlink:href="#hd"/>
<path d="M244.30 225.40v-21.00" class="stroke"/>
<path class="fill"
	d="M244.30 204.40c0.6 5.6 9.6 9 5.6 18.4
	1.6 -6 -1.3 -11.6 -5.6 -12.8
"/>
<use x="259.00" y="225.40" xlink:href="#hd"/>
<path d="M262.50 225.40v-21.00" class="stroke"/>
<use x="301.80" y="222.40" xlink:href="#hd"/>
<path d="M305.30 222.40v-21.00" class="stroke"/>
<use x="325.60" y="219.40" xlink:href="#Hd"/>
<circle class="fill" cx="334.30" cy="219.40" r="1.2"/>
<path d="M329.10 219.40v-21.00" class="stroke"/>
<use x="379.40" y="225.40" xlink:href="#hd"/>
<path d="M382.90 225.40v-21.00" class="stroke"/>
<use x="403.20" y="216.40" xlink:href="#hd"/>
<path d="M406.70 216.40v-21.00" class="stroke"/>
<use x="426.90" y="219.40" xlink:href="#hd"/>
<path d="M430.40 219.40v-21.00" class="stroke"/>
<use x="450.60" y="222.40" xlink:href="#hd"/>
<circle class="fill" cx="458.30" cy="219.40" r="1.2"/>
<path d="M454.10 222.40v-21.00" class="stroke"/>
<use x="505.60" y="222.40" xlink:href="#hd"/>
<path d="M509.10 222.40v-21.00" class="stroke"/>
<path class="fill"
	d="M509.10 201.40c0.6 5.6 9.6 9 5.6 18.4
	1.6 -6 -1.3 -11.6 -5.6 -12.8
"/>
<use x="523.80" y="219.40" xlink:href="#hd"/>
<path d="M527.30 219.40v-21.00" class="stroke"/>
<use x="547.50" y="216.40" xlink:href="#hd"/>
<path d="M551.00 216.40v-21.00" class="stroke"/>
<use x="571.70" y="213.40" xlink:href="#hd"/>
<path d="M568.20 213.40v21.00" class="stroke"/>
<use x="602.00" y="216.40" xlink:href="#hd"/>
<path d="M598.50 216.40v21.00" class="stroke"/>
<use x="625.90" y="219.40" xlink:href="#Hd"/>
<circle class="fill" cx="634.60" cy="219.40" r="1.2"/>
<path d="M629.40 219.40v-21.00" class="stroke"/>
<use x="22.00" y="268.40" xlink:href="#bclef"/>
<use x="37.00" y="268.40" xlink:href="#sh0"/>
<use x="42.50" y="277.40" xlink:href="#sh0"/>
<use x="77.00" y="292.40" xlink:href="#hl1"/>
<use x="77.00" y="298.40" xlink:href="#hl1"/>
<use x="77.00" y="304.40" xlink:href="#hl1"/>
<use x="77.00" y="310.40" xlink:href="#hl1"/>
<use x="77.00" y="316.40" xlink:href="#hl1"/>
<use x="77.00" y="316.40" xlink:href="#HD"/>
<use x="77.00" y="295.40" xlink:href="#HD"/>
<use x="77.00" y="289.40" xlink:href="#HD"/>
<use x="77.00" y="283.40" xlink:href="#HD"/>
<use x="77.00" y="277.40" xlink:href="#HD"/>
<use x="189.90" y="292.40" xlink:href="#hl1"/>
<use x="189.90" y="298.40" xlink:href="#hl1"/>
<use x="189.90" y="301.40" xlink:href="#HD"/>
<use x="189.90" y="280.40" xlink:href="#HD"/>
<use x="189.90" y="274.40" xlink:href="#HD"/>
<use x="189.90" y="268.40" xlink:href="#HD"/>
<use x="189.90" y="262.40" xlink:href="#HD"/>
<use x="302.80" y="292.40" xlink:href="#hl1"/>
<use x="302.80" y="298.40" xlink:href="#hl1"/>
<use x="302.80" y="304.40" xlink:href="#hl1"/>
<use x="302.80" y="310.40" xlink:href="#hl1"/>
<use x="302.80" y="316.40" xlink:href="#hl1"/>
<use x="302.80" y="316.40" xlink:href="#HD"/>
<use x="302.80" y="295.40" xlink:href="#HD"/>
<use x="302.80" y="289.40" xlink:href="#HD"/>
<use x="302.80" y="283.40" xlink:href="#HD"/>
<use x="302.80" y="277.40" xlink:href="#HD"/>
<use x="380.40" y="292.40" xlink:href="#hl1"/>
<use x="380.40" y="298.40" xlink:href="#hl1"/>
<use x="380.40" y="304.40" xlink:href="#hl1"/>
<use x="380.40" y="310.40" xlink:href="#hl1"/>
<use x="380.40" y="310.40" xlink:href="#HD"/>
<use x="380.40" y="289.40" xlink:href="#HD"/>
<use x="380.40" y="283.40" xlink:href="#HD"/>
<use x="380.40" y="277.40" xlink:href="#HD"/>
<use x="380.40" y="271.40" xlink:href="#HD"/>
<use x="472.60" y="292.40" xlink:href="#hl"/>
<use x="472.60" y="298.40" xlink:href="#hl"/>
<use x="472.60" y="304.40" xlink:href="#hl"/>
<use x="472.60" y="310.40" xlink:href="#hl"/>
<use x="472.60" y="310.40" xlink:href="#hd"/>
<path d="M476.10 310.40v-58.00" class="stroke"/>
<path class="fill"
	d="M476.10 252.40c0.6 5.6 9.6 9 5.6 18.4
	1.6 -6 -1.3 -11.6 -5.6 -12.8
"/>
<use x="472.60" y="289.40" xlink:href="#hd"/>
<use x="472.60" y="283.40" xlink:href="#hd"/>
<use x="472.60" y="277.40" xlink:href="#hd"/>
<use x="472.60" y="271.40" xlink:href="#hd"/>
<use x="505.60" y="289.40" xlink:href="#Hd"/>
<circle class="fill" cx="514.30" cy="289.40" r="1.2"/>
<circle class="fill" cx="517.80" cy="289.40" r="1.2"/>
<path d="M509.10 289.40v-37.00" class="stroke"/>
<use x="505.60" y="283.40" xlink:href="#Hd"/>
<circle class="fill" cx="514.30" cy="283.40" r="1.2"/>
<circle class="fill" cx="517.80" cy="283.40" r="1.2"/>
<use x="505.60" y="277.40" xlink:href="#Hd"/>
<circle class="fill" cx="514.30" cy="277.40" r="1.2"/>
<circle class="fill" cx="517.80" cy="277.40" r="1.2"/>
<use x="505.60" y="271.40" xlink:href="#Hd"/>
<circle class="fill" cx="514.30" cy="271.40" r="1.2"/>
<circle class="fill" cx="517.80" cy="271.40" r="1.2"/>
<use x="602.00" y="283.40" xlink:href="#hd"/>
<path d="M605.50 283.40v-21.00" class="stroke"/>
<use x="625.90" y="277.40" xlink:href="#hd"/>
<path d="M629.40 277.40v-21.00" class="stroke"/>
<use x="650.10" y="271.40" xlink:href="#hd"/>
<path d="M646.60 271.40v21.00" class="stroke"/>
<use x="673.80" y="265.40" xlink:href="#hd"/>
<path d="M670.30 265.40v21.00" class="stroke"/>
<path class="fill"
	d="M382.90 310.40c11.79 6.05 74.44 6.05 86.22 -0.00
	v0.29c-14.37 7.77 -71.85 7.77 -86.22 -0.29"/>
<path class="fill"
	d="M382.90 289.40c11.79 6.05 74.44 6.05 86.22 -0.00
	v0.29c-14.37 7.77 -71.85 7.77 -86.22 -0.29"/>
<path class="fill"
	d="M382.90 283.40c11.79 6.05 74.44 6.05 86.22 -0.00
	v0.29c-14.37 7.77 -71.85 7.77 -86.22 -0.29"/>
<path class="fill"
	d="M382.90 277.40c11.79 -6.05 74.44 -6.05 86.22 -0.00
	v-0.29c-14.37 -7.77 -71.85 -7.77 -86.22 0.29"/>
<path class="fill"
	d="M382.90 271.40c11.79 -6.05 74.44 -6.05 86.22 -0.00
	v-0.29c-14.37 -7.77 -71.85 -7.77 -86.22 0.29"/>
<g transform="rotate(270)">
<use x="-319.40" y="63.50" xlink:href="#ltr"/>
<use x="-313.40" y="63.50" xlink:href="#ltr"/>
<use x="-307.40" y="63.50" xlink:href="#ltr"/>
<use x="-301.40" y="63.50" xlink:href="#ltr"/>
<use x="-295.40" y="63.50" xlink:href="#ltr"/>
<use x="-289.40" y="63.50" xlink:href="#ltr"/>
<use x="-283.40" y="63.50" xlink:href="#ltr"/>
<use x="-277.40" y="63.50" xlink:href="#ltr"/>
</g>
<g transform="rotate(270)">
<use x="-304.40" y="176.40" xlink:href="#ltr"/>
<use x="-298.40" y="176.40" xlink:href="#ltr"/>
<use x="-292.40" y="176.40" xlink:href="#ltr"/>
<use x="-286.40" y="176.40" xlink:href="#ltr"/>
<use x="-280.40" y="176.40" xlink:href="#ltr"/>
<use x="-274.40" y="176.40" xlink:href="#ltr"/>
<use x="-268.40" y="176.40" xlink:href="#ltr"/>
<use x="-262.40" y="176.40" xlink:href="#ltr"/>
</g>
<g transform="rotate(270)">
<use x="-319.40" y="289.30" xlink:href="#ltr"/>
<use x="-313.40" y="289.30" xlink:href="#ltr"/>
<use x="-307.40" y="289.30" xlink:href="#ltr"/>
<use x="-301.40" y="289.30" xlink:href="#ltr"/>
<use x="-295.40" y="289.30" xlink:href="#ltr"/>
<use x="-289.40" y="289.30" xlink:href="#ltr"/>
<use x="-283.40" y="289.30" xlink:href="#ltr"/>
<use x="-277.40" y="289.30" xlink:href="#ltr"/>
</g>
<g transform="rotate(270)">
<use x="-313.40" y="366.90" xlink:href="#ltr"/>
<use x="-307.40" y="366.90" xlink:href="#ltr"/>
<use x="-301.40" y="366.90" xlink:href="#ltr"/>
<use x="-295.40" y="366.90" xlink:href="#ltr"/>
<use x="-289.40" y="366.90" xlink:href="#ltr"/>
<use x="-283.40" y="366.90" xlink:href="#ltr"/>
<use x="-277.40" y="366.90" xlink:href="#ltr"/>
<use x="-271.40" y="366.90" xlink:href="#ltr"/>
</g>
<g transform="rotate(270)">
<use x="-313.40" y="462.60" xlink:href="#ltr"/>
<use x="-307.40" y="462.60" xlink:href="#ltr"/>
<use x="-301.40" y="462.60" xlink:href="#ltr"/>
<use x="-295.40" y="462.60" xlink:href="#ltr"/>
<use x="-289.40" y="462.60" xlink:href="#ltr"/>
<use x="-283.40" y="462.60" xlink:href="#ltr"/>
<use x="-277.40" y="462.60" xlink:href="#ltr"/>
<use x="-271.40" y="462.60" xlink:href="#ltr"/>
</g>
</g>
<g stroke-width="0.70" style="font:italic 11.00px Times">
<path class="stroke" stroke-width="1"
	d="M10.00 436.80v-82.00"/>
<g transform="translate(10.00,354.80) scale(1,0.82)">
	<use xlink:href="#brace"/>
</g>
<path class="stroke" stroke-width="1"
	d="M169.50 378.80v-24.00"/>
<path class="stroke" stroke-width="1"
	d="M169.50 436.80v-24.00"/>
<path class="stroke" stroke-width="1"
	d="M290.50 378.80v-24.00"/>
<path class="stroke" stroke-width="1"
	d="M290.50 436.80v-24.00"/>
<path class="stroke" stroke-width="1"
	d="M371.60 378.80v-24.00"/>
<path class="stroke" stroke-width="1"
	d="M371.60 436.80v-24.00"/>
<path class="stroke" stroke-width="1"
	d="M492.20 378.80v-24.00"/>
<path class="stroke" stroke-width="1"
	d="M492.20 436.80v-24.00"/>
<path class="stroke" stroke-width="1"
	d="M610.40 378.80v-24.00"/>
<path class="stroke" stroke-width="1"
	d="M610.40 436.80v-24.00"/>
<path class="stroke" stroke-width="1"
	d="M691.60 378.80v-24.00"/>
<path class="stroke" stroke-width="1"
	d="M691.60 436.80v-24.00"/>
<path d="m10.00 378.80
	h681.60
	M10.00 372.80
	h681.60
	M10.00 366.80
	h681.60
	M10.00 360.80
	h681.60
	M10.00 354.80
	h681.60
	" class="stroke"/>
<path d="m10.00 436.80
	h681.60
	M10.00 430.80
	h681.60
	M10.00 424.80
	h681.60
	M10.00 418.80
	h681.60
	M10.00 412.80
	h681.60
	" class="stroke"/>
</g>
<g stroke-width="0.70" style="font:bold 13.00px Times">
<text x="68.20" y="342.20">V<tspan
	 style="font:italic 11.00px Times">⁷³</tspan></text>
</g>
<g stroke-width="0.70" style="font:bold 13.00px Times">
<text x="186.50" y="339.20">iii<tspan
	 style="font:italic 11.00px Times">m⁷</tspan></text>
</g>
<g stroke-width="0.70" style="font:bold 13.00px Times">
<text x="309.80" y="350.20">I<tspan
	 style="font:italic 11.00px Times">Δ⁷</tspan></text>
</g>
<g stroke-width="0.70" style="font:bold 13.00px Times">
<text x="388.60" y="342.20">iii<tspan
	 style="font:italic 11.00px Times">m⁷¹</tspan></text>
</g>
<g stroke-width="0.70" style="font:bold 13.00px Times">
<text x="496.70" y="339.20">vi<tspan
	 style="font:italic 11.00px Times">m⁷</tspan></text>
</g>
<g stroke-width="0.70" style="font:bold 13.00px Times">
<text x="629.70" y="332.20">I<tspan
	 style="font:italic 11.00px Times">Δ⁷</tspan></text>
</g>
<g stroke-width="0.70" style="font:italic 11.00px Times">
<use x="22.00" y="372.80" xlink:href="#tclef"/>
<use x="37.00" y="354.80" xlink:href="#sh0"/>
<use x="42.50" y="363.80" xlink:href="#sh0"/>
<use x="76.00" y="369.80" xlink:href="#hd"/>
<path d="M79.50 369.80v-21.00" class="stroke"/>
<use x="102.00" y="360.80" xlink:href="#hd"/>
<path d="M98.50 360.80v21.00" class="stroke"/>
<use x="125.10" y="369.80" xlink:href="#hd"/>
<path d="M128.60 369.80v-21.00" class="stroke"/>
<use x="150.70" y="372.80" xlink:href="#hd"/>
<path d="M154.20 372.80v-21.00" class="stroke"/>
<use x="194.50" y="375.80" xlink:href="#hd"/>
<path d="M198.00 375.80v-21.00" class="stroke"/>
<use x="220.10" y="366.80" xlink:href="#hd"/>
<path d="M223.60 366.80v-21.00" class="stroke"/>
<use x="245.70" y="366.80" xlink:href="#hd"/>
<path d="M249.20 366.80v-21.00" class="stroke"/>
<use x="271.60" y="360.80" xlink:href="#hd"/>
<path d="M268.10 360.80v21.00" class="stroke"/>
<use x="315.50" y="366.80" xlink:href="#hd"/>
<path d="M312.00 366.80v21.00" class="stroke"/>
<use x="341.10" y="369.80" xlink:href="#Hd"/>
<circle class="fill" cx="349.80" cy="369.80" r="1.2"/>
<path d="M344.60 369.80v-21.00" class="stroke"/>
<use x="396.60" y="369.80" xlink:href="#hd"/>
<path d="M400.10 369.80v-21.00" class="stroke"/>
<use x="422.20" y="372.80" xlink:href="#hd"/>
<path d="M425.70 372.80v-21.00" class="stroke"/>
<use x="447.80" y="375.80" xlink:href="#hd"/>
<path d="M451.30 375.80v-21.00" class="stroke"/>
<use x="473.30" y="378.80" xlink:href="#hd"/>
<path d="M476.80 378.80v-21.00" class="stroke"/>
<use x="504.70" y="381.80" xlink:href="#hd"/>
<path d="M508.20 381.80v-21.00" class="stroke"/>
<use x="530.30" y="366.80" xlink:href="#hd"/>
<circle class="fill" cx="538.00" cy="363.80" r="1.2"/>
<path d="M533.80 366.80v-21.00" class="stroke"/>
<use x="572.40" y="372.80" xlink:href="#hd"/>
<path d="M575.90 372.80v-21.00" class="stroke"/>
<path class="fill"
	d="M575.90 351.80c0.6 5.6 9.6 9 5.6 18.4
	1.6 -6 -1.3 -11.6 -5.6 -12.8
"/>
<use x="591.60" y="375.80" xlink:href="#hd"/>
<path d="M595.10 375.80v-21.00" class="stroke"/>
<use x="635.40" y="378.80" xlink:href="#hd"/>
<path d="M638.90 378.80v-40.00" class="stroke"/>
<use x="635.40" y="357.80" xlink:href="#hd"/>
<use x="661.10" y="381.80" xlink:href="#Hd"/>
<circle class="fill" cx="669.80" cy="381.80" r="1.2"/>
<path d="M664.60 381.80v-40.00" class="stroke"/>
<use x="661.10" y="360.80" xlink:href="#Hd"/>
<circle class="fill" cx="669.80" cy="357.80" r="1.2"/>
<use x="22.00" y="418.80" xlink:href="#bclef"/>
<use x="37.00" y="418.80" xlink:href="#sh0"/>
<use x="42.50" y="427.80" xlink:href="#sh0"/>
<use x="77.00" y="442.80" xlink:href="#hl1"/>
<use x="77.00" y="448.80" xlink:href="#hl1"/>
<use x="77.00" y="454.80" xlink:href="#hl1"/>
<use x="77.00" y="454.80" xlink:href="#HD"/>
<use x="77.00" y="433.80" xlink:href="#HD"/>
<use x="77.00" y="427.80" xlink:href="#HD"/>
<use x="77.00" y="421.80" xlink:href="#HD"/>
<use x="77.00" y="415.80" xlink:href="#HD"/>
<use x="195.50" y="442.80" xlink:href="#hl1"/>
<use x="195.50" y="448.80" xlink:href="#hl1"/>
<use x="195.50" y="454.80" xlink:href="#hl1"/>
<use x="195.50" y="460.80" xlink:href="#hl1"/>
<use x="195.50" y="460.80" xlink:href="#HD"/>
<use x="195.50" y="439.80" xlink:href="#HD"/>
<use x="195.50" y="433.80" xlink:href="#HD"/>
<use x="195.50" y="427.80" xlink:href="#HD"/>
<use x="195.50" y="421.80" xlink:href="#HD"/>
<use x="316.50" y="442.80" xlink:href="#hl1"/>
<use x="316.50" y="448.80" xlink:href="#hl1"/>
<use x="316.50" y="454.80" xlink:href="#hl1"/>
<use x="316.50" y="460.80" xlink:href="#hl1"/>
<use x="316.50" y="466.80" xlink:href="#hl1"/>
<use x="316.50" y="466.80" xlink:href="#HD"/>
<use x="316.50" y="445.80" xlink:href="#HD"/>
<use x="316.50" y="439.80" xlink:href="#HD"/>
<use x="316.50" y="433.80" xlink:href="#HD"/>
<use x="316.50" y="427.80" xlink:href="#HD"/>
<use x="397.60" y="442.80" xlink:href="#hl1"/>
<use x="397.60" y="448.80" xlink:href="#hl1"/>
<use x="397.60" y="454.80" xlink:href="#hl1"/>
<use x="397.60" y="460.80" xlink:href="#hl1"/>
<use x="397.60" y="460.80" xlink:href="#HD"/>
<use x="397.60" y="439.80" xlink:href="#HD"/>
<use x="397.60" y="433.80" xlink:href="#HD"/>
<use x="397.60" y="427.80" xlink:href="#HD"/>
<use x="397.60" y="421.80" xlink:href="#HD"/>
<use x="504.70" y="430.80" xlink:href="#hd"/>
<path d="M508.20 430.80v-21.00" class="stroke"/>
<use x="530.30" y="424.80" xlink:href="#hd"/>
<path d="M533.80 424.80v-21.00" class="stroke"/>
<use x="556.20" y="418.80" xlink:href="#hd"/>
<path d="M552.70 418.80v21.00" class="stroke"/>
<use x="591.60" y="412.80" xlink:href="#hd"/>
<path d="M588.10 412.80v21.00" class="stroke"/>
<use x="636.40" y="442.80" xlink:href="#hl1"/>
<use x="636.40" y="448.80" xlink:href="#hl1"/>
<use x="636.40" y="454.80" xlink:href="#hl1"/>
<use x="636.40" y="460.80" xlink:href="#hl1"/>
<use x="636.40" y="466.80" xlink:href="#hl1"/>
<use x="636.40" y="466.80" xlink:href="#HD"/>
<use x="636.40" y="445.80" xlink:href="#HD"/>
<use x="636.40" y="439.80" xlink:href="#HD"/>
<use x="636.40" y="433.80" xlink:href="#HD"/>
<use x="636.40" y="427.80" xlink:href="#HD"/>
<g transform="rotate(270)">
<use x="-457.80" y="63.50" xlink:href="#ltr"/>
<use x="-451.80" y="63.50" xlink:href="#ltr"/>
<use x="-445.80" y="63.50" xlink:href="#ltr"/>
<use x="-439.80" y="63.50" xlink:href="#ltr"/>
<use x="-433.80" y="63.50" xlink:href="#ltr"/>
<use x="-427.80" y="63.50" xlink:href="#ltr"/>
<use x="-421.80" y="63.50" xlink:href="#ltr"/>
<use x="-415.80" y="63.50" xlink:href="#ltr"/>
</g>
<g transform="rotate(270)">
<use x="-463.80" y="182.00" xlink:href="#ltr"/>
<use x="-457.80" y="182.00" xlink:href="#ltr"/>
<use x="-451.80" y="182.00" xlink:href="#ltr"/>
<use x="-445.80" y="182.00" xlink:href="#ltr"/>
<use x="-439.80" y="182.00" xlink:href="#ltr"/>
<use x="-433.80" y="182.00" xlink:href="#ltr"/>
<use x="-427.80" y="182.00" xlink:href="#ltr"/>
<use x="-421.80" y="182.00" xlink:href="#ltr"/>
</g>
<g transform="rotate(270)">
<use x="-469.80" y="303.00" xlink:href="#ltr"/>
<use x="-463.80" y="303.00" xlink:href="#ltr"/>
<use x="-457.80" y="303.00" xlink:href="#ltr"/>
<use x="-451.80" y="303.00" xlink:href="#ltr"/>
<use x="-445.80" y="303.00" xlink:href="#ltr"/>
<use x="-439.80" y="303.00" xlink:href="#ltr"/>
<use x="-433.80" y="303.00" xlink:href="#ltr"/>
<use x="-427.80" y="303.00" xlink:href="#ltr"/>
</g>
<g transform="rotate(270)">
<use x="-463.80" y="384.10" xlink:href="#ltr"/>
<use x="-457.80" y="384.10" xlink:href="#ltr"/>
<use x="-451.80" y="384.10" xlink:href="#ltr"/>
<use x="-445.80" y="384.10" xlink:href="#ltr"/>
<use x="-439.80" y="384.10" xlink:href="#ltr"/>
<use x="-433.80" y="384.10" xlink:href="#ltr"/>
<use x="-427.80" y="384.10" xlink:href="#ltr"/>
<use x="-421.80" y="384.10" xlink:href="#ltr"/>
</g>
<g transform="rotate(270)">
<use x="-469.80" y="622.90" xlink:href="#ltr"/>
<use x="-463.80" y="622.90" xlink:href="#ltr"/>
<use x="-457.80" y="622.90" xlink:href="#ltr"/>
<use x="-451.80" y="622.90" xlink:href="#ltr"/>
<use x="-445.80" y="622.90" xlink:href="#ltr"/>
<use x="-439.80" y="622.90" xlink:href="#ltr"/>
<use x="-433.80" y="622.90" xlink:href="#ltr"/>
<use x="-427.80" y="622.90" xlink:href="#ltr"/>
</g>
</g>
</svg>
