<svg xmlns="http://www.w3.org/2000/svg" xmlns:xlink="http://www.w3.org/1999/xlink" version="1.2" width="210.00mm" height="297.00mm" viewBox="0 0 119.5016 169.0094">
<style type="text/css">
<![CDATA[
tspan { white-space: pre; }
]]>
</style>
<!-- Page: 1/1 -->
<g transform="translate(32.0947, 6.4989)">
<text font-family="serif" font-weight="bold" font-size="3.4927" text-anchor="start" fill="currentColor">
<tspan>Savior Of The Nations Come</tspan>
</text>
</g>
<g transform="translate(55.5682, 9.9989)">
<text font-family="serif" font-weight="bold" font-size="2.4696" text-anchor="start" fill="currentColor">
<tspan>♩ = 90</tspan>
</text>
</g>
<g transform="translate(14.2264, 18.5154)">
<line stroke-linejoin="round" stroke-linecap="round" stroke-width="0.1000" stroke="currentColor" x1="0.0500" y1="0" x2="99.5346" y2="0"/>
</g>
<g transform="translate(14.2264, 17.5154)">
<line stroke-linejoin="round" stroke-linecap="round" stroke-width="0.1000" stroke="currentColor" x1="0.0500" y1="0" x2="99.5346" y2="0"/>
</g>
<g transform="translate(14.2264, 16.5154)">
<line stroke-linejoin="round" stroke-linecap="round" stroke-width="0.1000" stroke="currentColor" x1="0.0500" y1="0" x2="99.5346" y2="0"/>
</g>
<g transform="translate(14.2264, 15.5154)">
<line stroke-linejoin="round" stroke-linecap="round" stroke-width="0.1000" stroke="currentColor" x1="0.0500" y1="0" x2="99.5346" y2="0"/>
</g>
<g transform="translate(14.2264, 14.5154)">
<line stroke-linejoin="round" stroke-linecap="round" stroke-width="0.1000" stroke="currentColor" x1="0.0500" y1="0" x2="99.5346" y2="0"/>
</g>
<g transform="translate(47.6000, 10.5339)">
<rect x="0.0000" y="8.0316" width="0.1900" height="6.4394" ry="0.0000" fill="currentColor"/>
</g>
<g transform="translate(92.5691, 10.5339)">
<rect x="0.0000" y="8.0316" width="0.1900" height="6.4394" ry="0.0000" fill="currentColor"/>
</g>
<g transform="translate(47.6000, 27.0049)">
<rect x="0.0000" y="-2.0500" width="0.1900" height="4.0500" ry="0.0000" fill="currentColor"/>
</g>
<g transform="translate(92.5691, 27.0049)">
<rect x="0.0000" y="-2.0500" width="0.1900" height="4.0500" ry="0.0000" fill="currentColor"/>
</g>
<g transform="translate(47.6000, 16.5154)">
<rect x="0.0000" y="-2.0000" width="0.1900" height="4.0500" ry="0.0000" fill="currentColor"/>
</g>
<g transform="translate(92.5691, 16.5154)">
<rect x="0.0000" y="-2.0000" width="0.1900" height="4.0500" ry="0.0000" fill="currentColor"/>
</g>
<g transform="translate(113.6210, 16.5154)">
<rect x="0.0000" y="-2.0000" width="0.1900" height="4.0500" ry="0.0000" fill="currentColor"/>
</g>
<g transform="translate(113.6210, 27.0049)">
<rect x="0.0000" y="-2.0500" width="0.1900" height="4.0500" ry="0.0000" fill="currentColor"/>
</g>
<g transform="translate(113.6210, 10.5339)">
<rect x="0.0000" y="8.0316" width="0.1900" height="6.4394" ry="0.0000" fill="currentColor"/>
</g>
<g transform="translate(70.4590, 16.5154)">
<rect x="0.0000" y="-2.0000" width="0.1900" height="4.0500" ry="0.0000" fill="currentColor"/>
</g>
<g transform="translate(70.4590, 10.5339)">
<rect x="0.0000" y="8.0316" width="0.1900" height="6.4394" ry="0.0000" fill="currentColor"/>
</g>
<g transform="translate(5.6906, 30.0049)">
<rect x="87.5770" y="-0.1000" width="1.3768" height="0.2000" ry="0.1000" fill="currentColor"/>
</g>
<g transform="translate(5.6906, 31.0049)">
<rect x="87.5770" y="-0.1000" width="1.3768" height="0.2000" ry="0.1000" fill="currentColor"/>
</g>
<g transform="translate(5.6906, 30.0049)">
<rect x="65.4669" y="-0.1000" width="1.3768" height="0.2000" ry="0.1000" fill="currentColor"/>
</g>
<g transform="translate(5.6906, 31.0049)">
<rect x="65.4669" y="-0.1000" width="1.3768" height="0.2000" ry="0.1000" fill="currentColor"/>
</g>
<g transform="translate(5.6906, 32.0049)">
<rect x="65.4669" y="-0.1000" width="1.3768" height="0.2000" ry="0.1000" fill="currentColor"/>
</g>
<g transform="translate(5.6906, 30.0049)">
<rect x="42.6078" y="-0.1000" width="1.3768" height="0.2000" ry="0.1000" fill="currentColor"/>
</g>
<g transform="translate(5.6906, 31.0049)">
<rect x="42.6078" y="-0.1000" width="1.3768" height="0.2000" ry="0.1000" fill="currentColor"/>
</g>
<g transform="translate(5.6906, 32.0049)">
<rect x="42.6078" y="-0.1000" width="1.3768" height="0.2000" ry="0.1000" fill="currentColor"/>
</g>
<g transform="translate(5.6906, 30.0049)">
<rect x="16.1584" y="-0.1000" width="1.3768" height="0.2000" ry="0.1000" fill="currentColor"/>
</g>
<g transform="translate(5.6906, 31.0049)">
<rect x="16.1584" y="-0.1000" width="1.3768" height="0.2000" ry="0.1000" fill="currentColor"/>
</g>
<g transform="translate(5.6906, 32.0049)">
<rect x="16.1584" y="-0.1000" width="1.3768" height="0.2000" ry="0.1000" fill="currentColor"/>
</g>
<g transform="translate(14.2264, 29.0049)">
<line stroke-linejoin="round" stroke-linecap="round" stroke-width="0.1000" stroke="currentColor" x1="0.0500" y1="0" x2="99.5346" y2="0"/>
</g>
<g transform="translate(14.2264, 28.0049)">
<line stroke-linejoin="round" stroke-linecap="round" stroke-width="0.1000" stroke="currentColor" x1="0.0500" y1="0" x2="99.5346" y2="0"/>
</g>
<g transform="translate(14.2264, 27.0049)">
<line stroke-linejoin="round" stroke-linecap="round" stroke-width="0.1000" stroke="currentColor" x1="0.0500" y1="0" x2="99.5346" y2="0"/>
</g>
<g transform="translate(14.2264, 26.0049)">
<line stroke-linejoin="round" stroke-linecap="round" stroke-width="0.1000" stroke="currentColor" x1="0.0500" y1="0" x2="99.5346" y2="0"/>
</g>
<g transform="translate(14.2264, 25.0049)">
<line stroke-linejoin="round" stroke-linecap="round" stroke-width="0.1000" stroke="currentColor" x1="0.0500" y1="0" x2="99.5346" y2="0"/>
</g>
<g transform="translate(70.4590, 27.0049)">
<rect x="0.0000" y="-2.0500" width="0.1900" height="4.0500" ry="0.0000" fill="currentColor"/>
</g>
<g transform="translate(90.4816, 16.5154)">
<rect x="-0.0650" y="0.1861" width="0.1300" height="3.1889" ry="0.0400" fill="currentColor"/>
</g>
<g transform="translate(89.6695, 27.0049)">
<rect x="-0.0650" y="-3.0000" width="0.1300" height="3.3139" ry="0.0400" fill="currentColor"/>
</g>
<g transform="translate(88.4303, 27.5049)">
<path transform="scale(0.0040, -0.0040)" d="M218 136c55 0 108 -28 108 -89c0 -71 -55 -121 -102 -149c-35 -21 -75 -34 -116 -34c-55 0 -108 28 -108 89c0 71 55 121 102 149c35 21 75 34 116 34z" fill="currentColor"/>
</g>
<g transform="translate(86.1801, 27.0049)">
<rect x="-0.0650" y="-2.3139" width="0.1300" height="3.5170" ry="0.0400" fill="currentColor"/>
</g>
<g transform="translate(86.1151, 24.5049)">
<path transform="scale(0.0040, -0.0040)" d="M218 136c55 0 108 -28 108 -89c0 -71 -55 -121 -102 -149c-35 -21 -75 -34 -116 -34c-55 0 -108 28 -108 89c0 71 55 121 102 149c35 21 75 34 116 34z" fill="currentColor"/>
</g>
<g transform="translate(83.2396, 27.0049)">
<rect x="-0.0650" y="-1.3139" width="0.1300" height="3.1108" ry="0.0400" fill="currentColor"/>
</g>
<g transform="translate(94.4149, 28.7449)">
<path transform="scale(0.0028, -0.0028)" d="M-169 -516l357 290c30 26 70 -23 39 -48l-357 -290c-30 -26 -70 23 -39 48z" fill="currentColor"/>
</g>
<g transform="translate(94.4149, 28.7449)">
<path transform="scale(0.0028, -0.0028)" d="M0 0c0 -196 207 -334 207 -530c0 -71 -15 -140 -41 -206c-5 -10 -14 -13 -23 -13c-14 0 -28 10 -28 26c0 2 1 3 1 5c26 59 42 123 42 188c0 101 -90 205 -158 280h-21v250h21z" fill="currentColor"/>
</g>
<g transform="translate(94.3499, 27.0049)">
<rect x="-0.0650" y="1.7000" width="0.1300" height="2.6856" ry="0.0400" fill="currentColor"/>
</g>
<g transform="translate(22.0784, 27.0049)">
<path stroke-width="0.0800" stroke-linejoin="round" stroke-linecap="round" stroke="currentColor" fill="currentColor" d="M0.6163 6.3940C3.0531 6.7345 9.6620 2.8414 10.5455 0.5450L10.5455 0.5450C9.6011 2.7380 2.9922 6.6311 0.6163 6.3940z"/>
</g>
<g transform="translate(93.4970, 31.5049)">
<path transform="scale(0.0028, -0.0028)" d="M208 139c61 0 117 -33 117 -99c0 -71 -52 -119 -99 -147c-34 -20 -71 -32 -110 -32c-61 0 -116 33 -116 99c0 71 51 119 98 147c34 20 71 32 110 32z" fill="currentColor"/>
</g>
<g transform="translate(90.5466, 19.8504)">
<path transform="scale(0.0040, -0.0040)" d="M0 0h-16v250h16v-250zM0 0v250c97 59 224 148 224 259c0 57 -15 112 -40 163c-3 16 10 27 23 27c7 0 15 -3 20 -11c25 -56 40 -117 40 -179c0 -203 -267 -306 -267 -509z" fill="currentColor"/>
</g>
<g transform="translate(83.2396, 16.5154)">
<rect x="-0.0650" y="-0.3139" width="0.1300" height="3.3139" ry="0.0400" fill="currentColor"/>
</g>
<g transform="translate(90.4166, 16.5154)">
<path transform="scale(0.0040, -0.0040)" d="M218 136c55 0 108 -28 108 -89c0 -71 -55 -121 -102 -149c-35 -21 -75 -34 -116 -34c-55 0 -108 28 -108 89c0 71 55 121 102 149c35 21 75 34 116 34z" fill="currentColor"/>
</g>
<g transform="translate(73.3877, 26.5049)">
<path transform="scale(0.0040, -0.0040)" d="M218 136c55 0 108 -28 108 -89c0 -71 -55 -121 -102 -149c-35 -21 -75 -34 -116 -34c-55 0 -108 28 -108 89c0 71 55 121 102 149c35 21 75 34 116 34z" fill="currentColor"/>
</g>
<g transform="translate(73.4527, 27.0049)">
<rect x="-0.0650" y="-2.3139" width="0.1300" height="5.3139" ry="0.0400" fill="currentColor"/>
</g>
<g transform="translate(73.4527, 16.5154)">
<rect x="-0.0650" y="-1.0000" width="0.1300" height="5.0000" ry="0.0400" fill="currentColor"/>
</g>
<g transform="translate(73.3877, 24.5049)">
<path transform="scale(0.0040, -0.0040)" d="M218 136c55 0 108 -28 108 -89c0 -71 -55 -121 -102 -149c-35 -21 -75 -34 -116 -34c-55 0 -108 28 -108 89c0 71 55 121 102 149c35 21 75 34 116 34z" fill="currentColor"/>
</g>
<g transform="translate(73.3877, 25.5049)">
<path transform="scale(0.0040, -0.0040)" d="M218 136c55 0 108 -28 108 -89c0 -71 -55 -121 -102 -149c-35 -21 -75 -34 -116 -34c-55 0 -108 28 -108 89c0 71 55 121 102 149c35 21 75 34 116 34z" fill="currentColor"/>
</g>
<g transform="translate(72.0877, 25.5049)">
<path transform="scale(0.0040, -0.0040)" d="M42 278c-4 3 -6 8 -6 12c0 8 7 16 16 16c3 0 7 -1 10 -4l128 -107c8 -6 11 -13 11 -20c0 -24 -39 -51 -68 -78c-15 -14 -23 -34 -23 -53c0 -17 5 -33 17 -47l31 -25c4 -3 6 -8 6 -12c0 -8 -7 -16 -16 -16c-3 0 -7 1 -10 4l-128 107c-8 6 -11 13 -11 20c0 24 39 51 68 78
c15 14 23 34 23 53c0 17 -5 33 -17 47z" fill="currentColor"/>
</g>
<g transform="translate(72.0877, 26.5049)">
<path transform="scale(0.0040, -0.0040)" d="M42 278c-4 3 -6 8 -6 12c0 8 7 16 16 16c3 0 7 -1 10 -4l128 -107c8 -6 11 -13 11 -20c0 -24 -39 -51 -68 -78c-15 -14 -23 -34 -23 -53c0 -17 5 -33 17 -47l31 -25c4 -3 6 -8 6 -12c0 -8 -7 -16 -16 -16c-3 0 -7 1 -10 4l-128 107c-8 6 -11 13 -11 20c0 24 39 51 68 78
c15 14 23 34 23 53c0 17 -5 33 -17 47z" fill="currentColor"/>
</g>
<g color="rgb(12.2000%, 30.6000%, 47.5000%)">
<g transform="translate(73.9169, 12.2054)">
<text font-family="serif" font-weight="bold" font-size="2.2001" text-anchor="start" fill="currentColor">
<tspan>I</tspan>
</text>
</g>
</g>
<g color="rgb(48.2000%, 16.9000%, 16.9000%)">
<g transform="translate(73.3877, 14.0054)">
<text font-family="serif" font-weight="bold" font-size="2.2001" text-anchor="start" fill="currentColor">
<tspan>vi</tspan>
</text>
</g>
</g>
<g transform="translate(73.3877, 15.5154)">
<path transform="scale(0.0040, -0.0040)" d="M213 112c-50 0 -69 -43 -69 -88c0 -77 57 -136 134 -136c50 0 69 43 69 88c0 77 -57 136 -134 136zM491 0c0 -43 -34 -75 -72 -96c-53 -29 -114 -40 -174 -40s-120 11 -173 40c-38 21 -72 53 -72 96s34 75 72 96c53 29 113 40 173 40s121 -11 174 -40
c38 -21 72 -53 72 -96z" fill="currentColor"/>
</g>
<g transform="translate(73.3877, 17.5154)">
<path transform="scale(0.0040, -0.0040)" d="M218 136c55 0 108 -28 108 -89c0 -71 -55 -121 -102 -149c-35 -21 -75 -34 -116 -34c-55 0 -108 28 -108 89c0 71 55 121 102 149c35 21 75 34 116 34z" fill="currentColor"/>
</g>
<g transform="translate(83.1746, 25.5049)">
<path transform="scale(0.0040, -0.0040)" d="M218 136c55 0 108 -28 108 -89c0 -71 -55 -121 -102 -149c-35 -21 -75 -34 -116 -34c-55 0 -108 28 -108 89c0 71 55 121 102 149c35 21 75 34 116 34z" fill="currentColor"/>
</g>
<g transform="translate(83.1746, 16.0154)">
<path transform="scale(0.0040, -0.0040)" d="M218 136c55 0 108 -28 108 -89c0 -71 -55 -121 -102 -149c-35 -21 -75 -34 -116 -34c-55 0 -108 28 -108 89c0 71 55 121 102 149c35 21 75 34 116 34z" fill="currentColor"/>
</g>
<g transform="translate(80.7990, 27.0049)">
<rect x="-0.0650" y="-2.3139" width="0.1300" height="3.5170" ry="0.0400" fill="currentColor"/>
</g>
<g transform="translate(80.7340, 24.5049)">
<path transform="scale(0.0040, -0.0040)" d="M218 136c55 0 108 -28 108 -89c0 -71 -55 -121 -102 -149c-35 -21 -75 -34 -116 -34c-55 0 -108 28 -108 89c0 71 55 121 102 149c35 21 75 34 116 34z" fill="currentColor"/>
</g>
<g transform="translate(84.9288, 16.0154)">
<path transform="scale(0.0040, -0.0040)" d="M0 0c0 31 25 56 56 56s56 -25 56 -56s-25 -56 -56 -56s-56 25 -56 56z" fill="currentColor"/>
</g>
<g transform="translate(77.8585, 27.0049)">
<rect x="-0.0650" y="-1.3139" width="0.1300" height="3.1108" ry="0.0400" fill="currentColor"/>
</g>
<g transform="translate(77.8585, 16.5154)">
<rect x="-0.0650" y="0.1861" width="0.1300" height="3.1472" ry="0.0400" fill="currentColor"/>
</g>
<g transform="translate(77.7935, 25.5049)">
<path transform="scale(0.0040, -0.0040)" d="M218 136c55 0 108 -28 108 -89c0 -71 -55 -121 -102 -149c-35 -21 -75 -34 -116 -34c-55 0 -108 28 -108 89c0 71 55 121 102 149c35 21 75 34 116 34z" fill="currentColor"/>
</g>
<g transform="translate(77.7935, 16.5154)">
<path transform="scale(0.0040, -0.0040)" d="M218 136c55 0 108 -28 108 -89c0 -71 -55 -121 -102 -149c-35 -21 -75 -34 -116 -34c-55 0 -108 28 -108 89c0 71 55 121 102 149c35 21 75 34 116 34z" fill="currentColor"/>
</g>
<g transform="translate(110.5869, 25.0049)">
<path transform="scale(0.0040, -0.0040)" d="M218 136c55 0 108 -28 108 -89c0 -71 -55 -121 -102 -149c-35 -21 -75 -34 -116 -34c-55 0 -108 28 -108 89c0 71 55 121 102 149c35 21 75 34 116 34z" fill="currentColor"/>
</g>
<g transform="translate(110.6519, 27.0049)">
<rect x="-0.0650" y="-1.8139" width="0.1300" height="3.3139" ry="0.0400" fill="currentColor"/>
</g>
<g transform="translate(107.9613, 27.0049)">
<rect x="-0.0650" y="-2.3139" width="0.1300" height="3.5170" ry="0.0400" fill="currentColor"/>
</g>
<g transform="translate(107.8963, 24.5049)">
<path transform="scale(0.0040, -0.0040)" d="M218 136c55 0 108 -28 108 -89c0 -71 -55 -121 -102 -149c-35 -21 -75 -34 -116 -34c-55 0 -108 28 -108 89c0 71 55 121 102 149c35 21 75 34 116 34z" fill="currentColor"/>
</g>
<g transform="translate(77.7935, 28.8149)">
<polygon stroke-linejoin="round" stroke-linecap="round" stroke-width="0.0800" fill="currentColor" stroke="currentColor" points="3.0306 -0.8200 3.0306 -0.4200 0.0400 0.2000 0.0400 -0.2000"/>
</g>
<g transform="translate(48.5279, 27.0049)">
<path stroke-width="0.0800" stroke-linejoin="round" stroke-linecap="round" stroke="currentColor" fill="currentColor" d="M0.6826 5.8940C1.8310 5.8448 2.9516 4.6943 2.9705 3.5450L2.9705 3.5450C2.8656 4.6106 1.7450 5.7611 0.6826 5.8940z"/>
</g>
<g transform="translate(50.5286, 20.3254)">
<polygon stroke-linejoin="round" stroke-linecap="round" stroke-width="0.0800" fill="currentColor" stroke="currentColor" points="3.4383 -0.5100 3.4383 -0.1100 0.0400 0.2000 0.0400 -0.2000"/>
</g>
<g transform="translate(56.5675, 28.8149)">
<polygon stroke-linejoin="round" stroke-linecap="round" stroke-width="0.0800" fill="currentColor" stroke="currentColor" points="3.0306 -0.8200 3.0306 -0.4200 0.0400 0.2000 0.0400 -0.2000"/>
</g>
<g transform="translate(61.9486, 28.8149)">
<polygon stroke-linejoin="round" stroke-linecap="round" stroke-width="0.0800" fill="currentColor" stroke="currentColor" points="3.0306 -0.8200 3.0306 -0.4200 0.0400 0.2000 0.0400 -0.2000"/>
</g>
<g transform="translate(71.3869, 27.0049)">
<path stroke-width="0.0800" stroke-linejoin="round" stroke-linecap="round" stroke="currentColor" fill="currentColor" d="M0.6826 6.3940C1.8310 6.3448 2.9516 5.1943 2.9705 4.0450L2.9705 4.0450C2.8656 5.1106 1.7450 6.2611 0.6826 6.3940z"/>
</g>
<g transform="translate(105.0207, 27.0049)">
<rect x="-0.0650" y="-1.3139" width="0.1300" height="3.1108" ry="0.0400" fill="currentColor"/>
</g>
<g transform="translate(83.1746, 28.8149)">
<polygon stroke-linejoin="round" stroke-linecap="round" stroke-width="0.0800" fill="currentColor" stroke="currentColor" points="3.0306 -0.8200 3.0306 -0.4200 0.0400 0.2000 0.0400 -0.2000"/>
</g>
<g transform="translate(93.4970, 27.0049)">
<path stroke-width="0.0800" stroke-linejoin="round" stroke-linecap="round" stroke="currentColor" fill="currentColor" d="M0.6826 5.3940C1.8310 5.3448 2.9516 4.1943 2.9705 3.0450L2.9705 3.0450C2.8656 4.1106 1.7450 5.2611 0.6826 5.3940z"/>
</g>
<g transform="translate(99.5746, 28.8149)">
<polygon stroke-linejoin="round" stroke-linecap="round" stroke-width="0.0800" fill="currentColor" stroke="currentColor" points="3.0306 -0.8200 3.0306 -0.4200 0.0400 0.2000 0.0400 -0.2000"/>
</g>
<g transform="translate(104.9557, 28.8149)">
<polygon stroke-linejoin="round" stroke-linecap="round" stroke-width="0.0800" fill="currentColor" stroke="currentColor" points="3.0306 -0.8200 3.0306 -0.4200 0.0400 0.2000 0.0400 -0.2000"/>
</g>
<g transform="translate(95.4977, 26.5049)">
<path transform="scale(0.0040, -0.0040)" d="M218 136c55 0 108 -28 108 -89c0 -71 -55 -121 -102 -149c-35 -21 -75 -34 -116 -34c-55 0 -108 28 -108 89c0 71 55 121 102 149c35 21 75 34 116 34z" fill="currentColor"/>
</g>
<g transform="translate(99.5746, 15.5154)">
<path transform="scale(0.0040, -0.0040)" d="M218 136c55 0 108 -28 108 -89c0 -71 -55 -121 -102 -149c-35 -21 -75 -34 -116 -34c-55 0 -108 28 -108 89c0 71 55 121 102 149c35 21 75 34 116 34z" fill="currentColor"/>
</g>
<g transform="translate(95.5627, 27.0049)">
<rect x="-0.0650" y="-2.3139" width="0.1300" height="5.3139" ry="0.0400" fill="currentColor"/>
</g>
<g transform="translate(95.5627, 16.5154)">
<rect x="-0.0650" y="-0.3139" width="0.1300" height="4.3139" ry="0.0400" fill="currentColor"/>
</g>
<g transform="translate(95.4977, 24.5049)">
<path transform="scale(0.0040, -0.0040)" d="M218 136c55 0 108 -28 108 -89c0 -71 -55 -121 -102 -149c-35 -21 -75 -34 -116 -34c-55 0 -108 28 -108 89c0 71 55 121 102 149c35 21 75 34 116 34z" fill="currentColor"/>
</g>
<g transform="translate(95.4977, 25.5049)">
<path transform="scale(0.0040, -0.0040)" d="M218 136c55 0 108 -28 108 -89c0 -71 -55 -121 -102 -149c-35 -21 -75 -34 -116 -34c-55 0 -108 28 -108 89c0 71 55 121 102 149c35 21 75 34 116 34z" fill="currentColor"/>
</g>
<g transform="translate(99.5746, 25.5049)">
<path transform="scale(0.0040, -0.0040)" d="M218 136c55 0 108 -28 108 -89c0 -71 -55 -121 -102 -149c-35 -21 -75 -34 -116 -34c-55 0 -108 28 -108 89c0 71 55 121 102 149c35 21 75 34 116 34z" fill="currentColor"/>
</g>
<g transform="translate(94.1977, 25.5049)">
<path transform="scale(0.0040, -0.0040)" d="M42 278c-4 3 -6 8 -6 12c0 8 7 16 16 16c3 0 7 -1 10 -4l128 -107c8 -6 11 -13 11 -20c0 -24 -39 -51 -68 -78c-15 -14 -23 -34 -23 -53c0 -17 5 -33 17 -47l31 -25c4 -3 6 -8 6 -12c0 -8 -7 -16 -16 -16c-3 0 -7 1 -10 4l-128 107c-8 6 -11 13 -11 20c0 24 39 51 68 78
c15 14 23 34 23 53c0 17 -5 33 -17 47z" fill="currentColor"/>
</g>
<g transform="translate(94.1977, 26.5049)">
<path transform="scale(0.0040, -0.0040)" d="M42 278c-4 3 -6 8 -6 12c0 8 7 16 16 16c3 0 7 -1 10 -4l128 -107c8 -6 11 -13 11 -20c0 -24 -39 -51 -68 -78c-15 -14 -23 -34 -23 -53c0 -17 5 -33 17 -47l31 -25c4 -3 6 -8 6 -12c0 -8 -7 -16 -16 -16c-3 0 -7 1 -10 4l-128 107c-8 6 -11 13 -11 20c0 24 39 51 68 78
c15 14 23 34 23 53c0 17 -5 33 -17 47z" fill="currentColor"/>
</g>
<g color="rgb(12.2000%, 30.6000%, 47.5000%)">
<g transform="translate(96.0269, 12.2054)">
<text font-family="serif" font-weight="bold" font-size="2.2001" text-anchor="start" fill="currentColor">
<tspan>I</tspan>
</text>
</g>
</g>
<g color="rgb(48.2000%, 16.9000%, 16.9000%)">
<g transform="translate(95.4977, 14.0054)">
<text font-family="serif" font-weight="bold" font-size="2.2001" text-anchor="start" fill="currentColor">
<tspan>vi</tspan>
</text>
</g>
</g>
<g transform="translate(95.4977, 17.5154)">
<path transform="scale(0.0040, -0.0040)" d="M213 112c-50 0 -69 -43 -69 -88c0 -77 57 -136 134 -136c50 0 69 43 69 88c0 77 -57 136 -134 136zM491 0c0 -43 -34 -75 -72 -96c-53 -29 -114 -40 -174 -40s-120 11 -173 40c-38 21 -72 53 -72 96s34 75 72 96c53 29 113 40 173 40s121 -11 174 -40
c38 -21 72 -53 72 -96z" fill="currentColor"/>
</g>
<g transform="translate(95.4977, 16.0154)">
<path transform="scale(0.0040, -0.0040)" d="M218 136c55 0 108 -28 108 -89c0 -71 -55 -121 -102 -149c-35 -21 -75 -34 -116 -34c-55 0 -108 28 -108 89c0 71 55 121 102 149c35 21 75 34 116 34z" fill="currentColor"/>
</g>
<g transform="translate(102.5802, 27.0049)">
<rect x="-0.0650" y="-2.3139" width="0.1300" height="3.5170" ry="0.0400" fill="currentColor"/>
</g>
<g transform="translate(105.0207, 16.5154)">
<rect x="-0.0650" y="0.2590" width="0.1300" height="3.0743" ry="0.0400" fill="currentColor"/>
</g>
<g transform="translate(104.9557, 25.5049)">
<path transform="scale(0.0040, -0.0040)" d="M218 136c55 0 108 -28 108 -89c0 -71 -55 -121 -102 -149c-35 -21 -75 -34 -116 -34c-55 0 -108 28 -108 89c0 71 55 121 102 149c35 21 75 34 116 34z" fill="currentColor"/>
</g>
<g transform="translate(104.9557, 16.5154)">
<path transform="scale(0.0040, -0.0040)" d="M314 65c0 24 -21 41 -42 41c-4 0 -8 0 -12 -1c-31 -9 -78 -40 -115 -64s-84 -53 -104 -78c-7 -8 -10 -18 -10 -28c0 -24 21 -41 42 -41c4 0 8 0 12 1c31 9 77 40 114 64s84 53 104 78c7 8 11 18 11 28zM262 136c46 0 82 -21 82 -71c0 -19 -4 -39 -10 -57
c-12 -37 -32 -72 -64 -94c-53 -36 -113 -50 -187 -50c-46 0 -83 21 -83 71c0 19 5 39 11 57c12 37 31 72 63 94c53 36 114 50 188 50z" fill="currentColor"/>
</g>
<g transform="translate(102.5152, 24.5049)">
<path transform="scale(0.0040, -0.0040)" d="M218 136c55 0 108 -28 108 -89c0 -71 -55 -121 -102 -149c-35 -21 -75 -34 -116 -34c-55 0 -108 28 -108 89c0 71 55 121 102 149c35 21 75 34 116 34z" fill="currentColor"/>
</g>
<g transform="translate(99.6396, 27.0049)">
<rect x="-0.0650" y="-1.3139" width="0.1300" height="3.1108" ry="0.0400" fill="currentColor"/>
</g>
<g transform="translate(99.6396, 16.5154)">
<rect x="-0.0650" y="-0.8139" width="0.1300" height="3.3139" ry="0.0400" fill="currentColor"/>
</g>
<g transform="translate(40.1830, 16.5154)">
<rect x="-0.0650" y="1.6861" width="0.1300" height="2.6472" ry="0.0400" fill="currentColor"/>
</g>
<g transform="translate(40.1180, 18.0154)">
<path transform="scale(0.0040, -0.0040)" d="M218 136c55 0 108 -28 108 -89c0 -71 -55 -121 -102 -149c-35 -21 -75 -34 -116 -34c-55 0 -108 28 -108 89c0 71 55 121 102 149c35 21 75 34 116 34z" fill="currentColor"/>
</g>
<g transform="translate(36.1061, 16.5154)">
<rect x="-0.0650" y="1.1861" width="0.1300" height="2.8139" ry="0.0400" fill="currentColor"/>
</g>
<g transform="translate(36.0411, 17.5154)">
<path transform="scale(0.0040, -0.0040)" d="M218 136c55 0 108 -28 108 -89c0 -71 -55 -121 -102 -149c-35 -21 -75 -34 -116 -34c-55 0 -108 28 -108 89c0 71 55 121 102 149c35 21 75 34 116 34z" fill="currentColor"/>
</g>
<g transform="translate(44.4449, 16.5154)">
<path transform="scale(0.0040, -0.0040)" d="M218 136c55 0 108 -28 108 -89c0 -71 -55 -121 -102 -149c-35 -21 -75 -34 -116 -34c-55 0 -108 28 -108 89c0 71 55 121 102 149c35 21 75 34 116 34z" fill="currentColor"/>
</g>
<g transform="translate(49.4457, 29.2449)">
<path transform="scale(0.0028, -0.0028)" d="M-169 -516l357 290c30 26 70 -23 39 -48l-357 -290c-30 -26 -70 23 -39 48z" fill="currentColor"/>
</g>
<g transform="translate(49.4457, 29.2449)">
<path transform="scale(0.0028, -0.0028)" d="M0 0c0 -196 207 -334 207 -530c0 -71 -15 -140 -41 -206c-5 -10 -14 -13 -23 -13c-14 0 -28 10 -28 26c0 2 1 3 1 5c26 59 42 123 42 188c0 101 -90 205 -158 280h-21v250h21z" fill="currentColor"/>
</g>
<g transform="translate(49.3807, 27.0049)">
<rect x="-0.0650" y="2.2000" width="0.1300" height="2.6856" ry="0.0400" fill="currentColor"/>
</g>
<g transform="translate(48.5279, 32.0049)">
<path transform="scale(0.0028, -0.0028)" d="M208 139c61 0 117 -33 117 -99c0 -71 -52 -119 -99 -147c-34 -20 -71 -32 -110 -32c-61 0 -116 33 -116 99c0 71 51 119 98 147c34 20 71 32 110 32z" fill="currentColor"/>
</g>
<g transform="translate(44.5099, 16.5154)">
<rect x="-0.0650" y="0.1861" width="0.1300" height="3.1472" ry="0.0400" fill="currentColor"/>
</g>
<g transform="translate(22.0784, 32.5049)">
<path transform="scale(0.0028, -0.0028)" d="M208 139c61 0 117 -33 117 -99c0 -71 -52 -119 -99 -147c-34 -20 -71 -32 -110 -32c-61 0 -116 33 -116 99c0 71 51 119 98 147c34 20 71 32 110 32z" fill="currentColor"/>
</g>
<g transform="translate(22.9963, 29.7449)">
<path transform="scale(0.0028, -0.0028)" d="M-169 -516l357 290c30 26 70 -23 39 -48l-357 -290c-30 -26 -70 23 -39 48z" fill="currentColor"/>
</g>
<g transform="translate(22.9963, 29.7449)">
<path transform="scale(0.0028, -0.0028)" d="M0 0c0 -196 207 -334 207 -530c0 -71 -15 -140 -41 -206c-5 -10 -14 -13 -23 -13c-14 0 -28 10 -28 26c0 2 1 3 1 5c26 59 42 123 42 188c0 101 -90 205 -158 280h-21v250h21z" fill="currentColor"/>
</g>
<g transform="translate(22.9313, 27.0049)">
<rect x="-0.0650" y="2.7000" width="0.1300" height="2.6856" ry="0.0400" fill="currentColor"/>
</g>
<g transform="translate(18.6464, 28.0049)">
<path transform="scale(0.0040, -0.0040)" d="M27 41l-1 -66v-11c0 -22 1 -44 4 -66c45 38 93 80 93 139c0 33 -14 67 -43 67c-31 0 -52 -30 -53 -63zM-15 -138l-12 595c8 5 18 8 27 8s19 -3 27 -8l-7 -345c25 21 58 34 91 34c52 0 89 -48 89 -102c0 -80 -86 -117 -147 -169c-15 -13 -24 -38 -45 -38
c-13 0 -23 11 -23 25z" fill="currentColor"/>
</g>
<g transform="translate(19.5664, 26.5049)">
<path transform="scale(0.0040, -0.0040)" d="M27 41l-1 -66v-11c0 -22 1 -44 4 -66c45 38 93 80 93 139c0 33 -14 67 -43 67c-31 0 -52 -30 -53 -63zM-15 -138l-12 595c8 5 18 8 27 8s19 -3 27 -8l-7 -345c25 21 58 34 91 34c52 0 89 -48 89 -102c0 -80 -86 -117 -147 -169c-15 -13 -24 -38 -45 -38
c-13 0 -23 11 -23 25z" fill="currentColor"/>
</g>
<g transform="translate(15.0264, 26.0049)">
<path transform="scale(0.0040, -0.0040)" d="M557 -125c0 28 23 51 51 51s51 -23 51 -51s-23 -51 -51 -51s-51 23 -51 51zM557 125c0 28 23 51 51 51s51 -23 51 -51s-23 -51 -51 -51s-51 23 -51 51zM232 263c172 0 293 -88 293 -251c0 -263 -263 -414 -516 -521c-3 -3 -6 -4 -9 -4c-7 0 -13 6 -13 13c0 3 1 6 4 9
c202 118 412 265 412 493c0 120 -63 235 -171 235c-74 0 -129 -54 -154 -126c11 5 22 8 34 8c55 0 100 -45 100 -100c0 -58 -44 -106 -100 -106c-60 0 -112 47 -112 106c0 133 102 244 232 244z" fill="currentColor"/>
</g>
<g transform="translate(21.5164, 16.5154)">
<path transform="scale(0.0040, -0.0040)" d="M359 27c-49 0 -75 42 -75 75c0 38 27 77 72 77c4 0 9 0 14 -1c-28 37 -72 59 -120 59c-106 0 -113 -73 -113 -186v-51v-51c0 -113 7 -187 113 -187c80 0 139 70 158 151c2 7 7 10 12 10c6 0 13 -4 13 -12c0 -94 -105 -174 -183 -174c-68 0 -137 21 -184 70
c-49 51 -66 122 -66 193s17 142 66 193c47 49 116 69 184 69c87 0 160 -63 175 -149c1 -5 1 -10 1 -14c0 -40 -30 -72 -67 -72z" fill="currentColor"/>
</g>
<g transform="translate(15.0264, 17.5154)">
<path transform="scale(0.0040, -0.0040)" d="M266 -635h-6c-108 0 -195 88 -195 197c0 58 53 103 112 103c54 0 95 -47 95 -103c0 -52 -43 -95 -95 -95c-11 0 -21 2 -31 6c26 -39 68 -65 117 -65h4zM461 -203c68 24 113 95 113 164c0 90 -66 179 -173 190c24 -116 46 -231 60 -354zM74 28c0 -135 129 -247 264 -247
c28 0 55 2 82 6c-14 127 -37 245 -63 364c-79 -8 -124 -61 -124 -119c0 -44 25 -91 81 -123c5 -5 7 -10 7 -15c0 -11 -10 -22 -22 -22c-3 0 -6 1 -9 2c-80 43 -117 115 -117 185c0 88 58 174 160 197c-14 58 -29 117 -46 175c-107 -121 -213 -243 -213 -403zM335 -262
c-188 0 -333 172 -333 374c0 177 131 306 248 441c-19 62 -37 125 -45 190c-6 52 -7 104 -7 156c0 115 55 224 149 292c6 5 14 5 20 0c71 -84 133 -245 133 -358c0 -143 -86 -255 -180 -364c21 -68 39 -138 56 -207c4 0 9 1 13 1c155 0 256 -128 256 -261
c0 -76 -33 -154 -107 -210c-22 -17 -47 -28 -73 -36c3 -35 5 -70 5 -105c0 -19 -1 -39 -2 -58c-7 -119 -88 -225 -202 -228l1 43c93 2 153 92 159 191c1 18 2 37 2 55c0 31 -1 61 -4 92c-29 -5 -58 -8 -89 -8zM428 916c0 55 -4 79 -20 129c-99 -48 -162 -149 -162 -259
c0 -74 18 -133 36 -194c80 97 146 198 146 324z" fill="currentColor"/>
</g>
<g transform="translate(14.1664, 21.7602)">
<rect x="0.0000" y="-7.2947" width="0.1600" height="14.5894" ry="0.0500" fill="currentColor"/>
</g>
<g transform="translate(13.8664, 21.7602)">
<path transform="scale(0.0040, -0.0040)" d="M-200 -1272c0 296 116 588 116 868c0 148 -36 284 -140 396v8v8c104 112 140 248 140 396c0 280 -116 572 -116 868c0 204 48 404 188 552c16 16 40 -8 24 -24c-104 -112 -140 -252 -140 -400c0 -276 112 -560 112 -852c0 -204 -48 -396 -184 -548
c136 -152 184 -344 184 -548c0 -292 -112 -576 -112 -852c0 -148 36 -288 140 -400c16 -16 -8 -40 -24 -24c-140 148 -188 348 -188 552z" fill="currentColor"/>
</g>
<g transform="translate(24.2364, 16.5154)">
<path transform="scale(0.0040, -0.0040)" d="M27 41l-1 -66v-11c0 -22 1 -44 4 -66c45 38 93 80 93 139c0 33 -14 67 -43 67c-31 0 -52 -30 -53 -63zM-15 -138l-12 595c8 5 18 8 27 8s19 -3 27 -8l-7 -345c25 21 58 34 91 34c52 0 89 -48 89 -102c0 -80 -86 -117 -147 -169c-15 -13 -24 -38 -45 -38
c-13 0 -23 11 -23 25z" fill="currentColor"/>
</g>
<g transform="translate(25.1564, 15.0154)">
<path transform="scale(0.0040, -0.0040)" d="M27 41l-1 -66v-11c0 -22 1 -44 4 -66c45 38 93 80 93 139c0 33 -14 67 -43 67c-31 0 -52 -30 -53 -63zM-15 -138l-12 595c8 5 18 8 27 8s19 -3 27 -8l-7 -345c25 21 58 34 91 34c52 0 89 -48 89 -102c0 -80 -86 -117 -147 -169c-15 -13 -24 -38 -45 -38
c-13 0 -23 11 -23 25z" fill="currentColor"/>
</g>
<g transform="translate(31.3714, 16.5154)">
<rect x="-0.0650" y="-0.5000" width="0.1300" height="4.5000" ry="0.0400" fill="currentColor"/>
</g>
<g transform="translate(27.1064, 27.0049)">
<path transform="scale(0.0040, -0.0040)" d="M359 27c-49 0 -75 42 -75 75c0 38 27 77 72 77c4 0 9 0 14 -1c-28 37 -72 59 -120 59c-106 0 -113 -73 -113 -186v-51v-51c0 -113 7 -187 113 -187c80 0 139 70 158 151c2 7 7 10 12 10c6 0 13 -4 13 -12c0 -94 -105 -174 -183 -174c-68 0 -137 21 -184 70
c-49 51 -66 122 -66 193s17 142 66 193c47 49 116 69 184 69c87 0 160 -63 175 -149c1 -5 1 -10 1 -14c0 -40 -30 -72 -67 -72z" fill="currentColor"/>
</g>
<g transform="translate(31.5533, 30.8229)">
<path transform="scale(0.0040, -0.0040)" d="M233 243c-56 0 -102 -107 -102 -173c0 -22 8 -38 30 -38c64 0 97 126 97 178c0 18 -7 33 -25 33zM112 -146c-38 0 -78 5 -116 5c-39 0 -78 -5 -115 -5c-9 0 -14 7 -14 14c0 18 31 15 48 16c22 1 47 5 54 25l102 300c2 7 4 14 4 20c0 8 -2 14 -11 14
c-33 0 -63 -60 -79 -97c-5 -12 -15 -17 -24 -17c-8 0 -14 4 -14 12c0 2 1 5 2 8c30 68 72 143 132 143c35 0 59 -21 66 -52c29 31 67 52 103 52c69 0 107 -49 107 -114c0 -21 -4 -44 -12 -67c-20 -58 -91 -119 -147 -119c-27 0 -52 5 -73 17c-4 2 -7 3 -11 3
c-7 0 -14 -3 -16 -9l-29 -86c-1 -2 -1 -5 -1 -7c0 -20 21 -26 44 -28c9 -1 13 -8 13 -14c0 -7 -4 -14 -13 -14z" fill="currentColor"/>
</g>
<g transform="translate(31.3064, 24.5049)">
<path transform="scale(0.0040, -0.0040)" d="M213 112c-50 0 -69 -43 -69 -88c0 -77 57 -136 134 -136c50 0 69 43 69 88c0 77 -57 136 -134 136zM491 0c0 -43 -34 -75 -72 -96c-53 -29 -114 -40 -174 -40s-120 11 -173 40c-38 21 -72 53 -72 96s34 75 72 96c53 29 113 40 173 40s121 -11 174 -40
c38 -21 72 -53 72 -96z" fill="currentColor"/>
</g>
<g transform="translate(31.3064, 25.5049)">
<path transform="scale(0.0040, -0.0040)" d="M213 112c-50 0 -69 -43 -69 -88c0 -77 57 -136 134 -136c50 0 69 43 69 88c0 77 -57 136 -134 136zM491 0c0 -43 -34 -75 -72 -96c-53 -29 -114 -40 -174 -40s-120 11 -173 40c-38 21 -72 53 -72 96s34 75 72 96c53 29 113 40 173 40s121 -11 174 -40
c38 -21 72 -53 72 -96z" fill="currentColor"/>
</g>
<g transform="translate(31.3064, 26.5049)">
<path transform="scale(0.0040, -0.0040)" d="M213 112c-50 0 -69 -43 -69 -88c0 -77 57 -136 134 -136c50 0 69 43 69 88c0 77 -57 136 -134 136zM491 0c0 -43 -34 -75 -72 -96c-53 -29 -114 -40 -174 -40s-120 11 -173 40c-38 21 -72 53 -72 96s34 75 72 96c53 29 113 40 173 40s121 -11 174 -40
c38 -21 72 -53 72 -96z" fill="currentColor"/>
</g>
<g transform="translate(30.0064, 25.5049)">
<path transform="scale(0.0040, -0.0040)" d="M42 278c-4 3 -6 8 -6 12c0 8 7 16 16 16c3 0 7 -1 10 -4l128 -107c8 -6 11 -13 11 -20c0 -24 -39 -51 -68 -78c-15 -14 -23 -34 -23 -53c0 -17 5 -33 17 -47l31 -25c4 -3 6 -8 6 -12c0 -8 -7 -16 -16 -16c-3 0 -7 1 -10 4l-128 107c-8 6 -11 13 -11 20c0 24 39 51 68 78
c15 14 23 34 23 53c0 17 -5 33 -17 47z" fill="currentColor"/>
</g>
<g transform="translate(30.0064, 26.5049)">
<path transform="scale(0.0040, -0.0040)" d="M42 278c-4 3 -6 8 -6 12c0 8 7 16 16 16c3 0 7 -1 10 -4l128 -107c8 -6 11 -13 11 -20c0 -24 -39 -51 -68 -78c-15 -14 -23 -34 -23 -53c0 -17 5 -33 17 -47l31 -25c4 -3 6 -8 6 -12c0 -8 -7 -16 -16 -16c-3 0 -7 1 -10 4l-128 107c-8 6 -11 13 -11 20c0 24 39 51 68 78
c15 14 23 34 23 53c0 17 -5 33 -17 47z" fill="currentColor"/>
</g>
<g transform="translate(30.7851, 22.2679)">
<g>
<path transform="scale(0.0040, -0.0040)" d="M-41 146c26 76 82 153 149 153c22 0 36 -20 41 -45c22 26 51 45 81 45c23 0 38 -21 44 -46c22 27 51 46 80 46c33 0 59 -35 59 -69c0 -5 -1 -10 -2 -15l-35 -149c0 -2 -1 -4 -1 -5c0 -5 2 -8 7 -8c9 0 27 11 48 31c4 4 9 6 13 6c6 0 11 -4 11 -10c0 -4 -3 -8 -7 -12
c-40 -38 -85 -75 -131 -75c-20 0 -32 13 -32 32c0 4 0 7 1 11l39 165c1 5 2 9 2 14c0 10 -4 18 -14 18c-16 0 -33 -16 -39 -32l-53 -183c-3 -10 -12 -18 -22 -18h-41c-10 0 -16 8 -13 18l52 183c2 6 3 11 3 16c0 9 -4 16 -13 16c-16 0 -35 -16 -41 -33l-62 -182
c-3 -10 -14 -18 -24 -18h-41c-10 0 -15 8 -12 18l63 183c2 5 2 10 2 15c0 10 -3 17 -13 17c-29 0 -54 -53 -66 -87c-4 -11 -15 -17 -23 -17c-7 0 -12 4 -12 11c0 2 1 4 2 6z" fill="currentColor"/>

<path transform="translate(1.7413, 0.0000) scale(0.0040, -0.0040)" d="M253 245l-50 -163c-30 -99 -121 -255 -218 -255c-45 0 -87 27 -87 69c0 39 17 77 52 77c24 0 44 -20 44 -44c0 -30 -38 -24 -38 -54c0 -10 11 -11 23 -11h6c48 0 61 58 73 108l68 273h-49c-11 0 -19 8 -19 19s8 19 19 19h60c32 96 118 191 213 191c45 0 87 -27 87 -69
c0 -39 -17 -77 -52 -77c-24 0 -44 19 -44 43c0 30 38 25 38 55c0 10 -10 11 -22 11h-7c-62 0 -70 -88 -86 -154h55c11 0 19 -8 19 -19s-8 -19 -19 -19h-66z" fill="currentColor"/>
</g>
</g>
<g color="rgb(12.2000%, 30.6000%, 47.5000%)">
<g transform="translate(31.3064, 12.2054)">
<text font-family="serif" font-weight="bold" font-size="2.2001" text-anchor="start" fill="currentColor">
<tspan>vii°</tspan>
</text>
</g>
</g>
<g color="rgb(48.2000%, 16.9000%, 16.9000%)">
<g transform="translate(32.2624, 14.0054)">
<text font-family="serif" font-weight="bold" font-size="2.2001" text-anchor="start" fill="currentColor">
<tspan>vi</tspan>
</text>
</g>
</g>
<g transform="translate(31.3064, 16.0154)">
<path transform="scale(0.0040, -0.0040)" d="M213 112c-50 0 -69 -43 -69 -88c0 -77 57 -136 134 -136c50 0 69 43 69 88c0 77 -57 136 -134 136zM491 0c0 -43 -34 -75 -72 -96c-53 -29 -114 -40 -174 -40s-120 11 -173 40c-38 21 -72 53 -72 96s34 75 72 96c53 29 113 40 173 40s121 -11 174 -40
c38 -21 72 -53 72 -96z" fill="currentColor"/>
</g>
<g transform="translate(31.3064, 17.0154)">
<path transform="scale(0.0040, -0.0040)" d="M213 112c-50 0 -69 -43 -69 -88c0 -77 57 -136 134 -136c50 0 69 43 69 88c0 77 -57 136 -134 136zM491 0c0 -43 -34 -75 -72 -96c-53 -29 -114 -40 -174 -40s-120 11 -173 40c-38 21 -72 53 -72 96s34 75 72 96c53 29 113 40 173 40s121 -11 174 -40
c38 -21 72 -53 72 -96z" fill="currentColor"/>
</g>
<g transform="translate(30.0672, 17.5154)">
<path transform="scale(0.0040, -0.0040)" d="M218 136c55 0 108 -28 108 -89c0 -71 -55 -121 -102 -149c-35 -21 -75 -34 -116 -34c-55 0 -108 28 -108 89c0 71 55 121 102 149c35 21 75 34 116 34z" fill="currentColor"/>
</g>
<g transform="translate(28.7672, 16.5154)">
<path transform="scale(0.0040, -0.0040)" d="M42 278c-4 3 -6 8 -6 12c0 8 7 16 16 16c3 0 7 -1 10 -4l128 -107c8 -6 11 -13 11 -20c0 -24 -39 -51 -68 -78c-15 -14 -23 -34 -23 -53c0 -17 5 -33 17 -47l31 -25c4 -3 6 -8 6 -12c0 -8 -7 -16 -16 -16c-3 0 -7 1 -10 4l-128 107c-8 6 -11 13 -11 20c0 24 39 51 68 78
c15 14 23 34 23 53c0 17 -5 33 -17 47z" fill="currentColor"/>
</g>
<g transform="translate(28.7672, 17.5154)">
<path transform="scale(0.0040, -0.0040)" d="M42 278c-4 3 -6 8 -6 12c0 8 7 16 16 16c3 0 7 -1 10 -4l128 -107c8 -6 11 -13 11 -20c0 -24 -39 -51 -68 -78c-15 -14 -23 -34 -23 -53c0 -17 5 -33 17 -47l31 -25c4 -3 6 -8 6 -12c0 -8 -7 -16 -16 -16c-3 0 -7 1 -10 4l-128 107c-8 6 -11 13 -11 20c0 24 39 51 68 78
c15 14 23 34 23 53c0 17 -5 33 -17 47z" fill="currentColor"/>
</g>
<g transform="translate(62.0136, 27.0049)">
<rect x="-0.0650" y="-1.3139" width="0.1300" height="3.1108" ry="0.0400" fill="currentColor"/>
</g>
<g transform="translate(62.0136, 16.5154)">
<rect x="-0.0650" y="1.2590" width="0.1300" height="2.7410" ry="0.0400" fill="currentColor"/>
</g>
<g transform="translate(61.9486, 25.5049)">
<path transform="scale(0.0040, -0.0040)" d="M218 136c55 0 108 -28 108 -89c0 -71 -55 -121 -102 -149c-35 -21 -75 -34 -116 -34c-55 0 -108 28 -108 89c0 71 55 121 102 149c35 21 75 34 116 34z" fill="currentColor"/>
</g>
<g transform="translate(61.9486, 17.5154)">
<path transform="scale(0.0040, -0.0040)" d="M314 65c0 24 -21 41 -42 41c-4 0 -8 0 -12 -1c-31 -9 -78 -40 -115 -64s-84 -53 -104 -78c-7 -8 -10 -18 -10 -28c0 -24 21 -41 42 -41c4 0 8 0 12 1c31 9 77 40 114 64s84 53 104 78c7 8 11 18 11 28zM262 136c46 0 82 -21 82 -71c0 -19 -4 -39 -10 -57
c-12 -37 -32 -72 -64 -94c-53 -36 -113 -50 -187 -50c-46 0 -83 21 -83 71c0 19 5 39 11 57c12 37 31 72 63 94c53 36 114 50 188 50z" fill="currentColor"/>
</g>
<g transform="translate(59.5730, 27.0049)">
<rect x="-0.0650" y="-2.3139" width="0.1300" height="3.5170" ry="0.0400" fill="currentColor"/>
</g>
<g transform="translate(59.5080, 24.5049)">
<path transform="scale(0.0040, -0.0040)" d="M218 136c55 0 108 -28 108 -89c0 -71 -55 -121 -102 -149c-35 -21 -75 -34 -116 -34c-55 0 -108 28 -108 89c0 71 55 121 102 149c35 21 75 34 116 34z" fill="currentColor"/>
</g>
<g transform="translate(56.6325, 27.0049)">
<rect x="-0.0650" y="-1.3139" width="0.1300" height="3.1108" ry="0.0400" fill="currentColor"/>
</g>
<g transform="translate(72.3048, 29.7449)">
<path transform="scale(0.0028, -0.0028)" d="M-169 -516l357 290c30 26 70 -23 39 -48l-357 -290c-30 -26 -70 23 -39 48z" fill="currentColor"/>
</g>
<g transform="translate(72.3048, 29.7449)">
<path transform="scale(0.0028, -0.0028)" d="M0 0c0 -196 207 -334 207 -530c0 -71 -15 -140 -41 -206c-5 -10 -14 -13 -23 -13c-14 0 -28 10 -28 26c0 2 1 3 1 5c26 59 42 123 42 188c0 101 -90 205 -158 280h-21v250h21z" fill="currentColor"/>
</g>
<g transform="translate(72.2398, 27.0049)">
<rect x="-0.0650" y="2.7000" width="0.1300" height="2.6856" ry="0.0400" fill="currentColor"/>
</g>
<g transform="translate(71.3869, 32.5049)">
<path transform="scale(0.0028, -0.0028)" d="M208 139c61 0 117 -33 117 -99c0 -71 -52 -119 -99 -147c-34 -20 -71 -32 -110 -32c-61 0 -116 33 -116 99c0 71 51 119 98 147c34 20 71 32 110 32z" fill="currentColor"/>
</g>
<g transform="translate(67.3947, 27.0049)">
<rect x="-0.0650" y="-0.3139" width="0.1300" height="3.3139" ry="0.0400" fill="currentColor"/>
</g>
<g transform="translate(67.3297, 26.5049)">
<path transform="scale(0.0040, -0.0040)" d="M218 136c55 0 108 -28 108 -89c0 -71 -55 -121 -102 -149c-35 -21 -75 -34 -116 -34c-55 0 -108 28 -108 89c0 71 55 121 102 149c35 21 75 34 116 34z" fill="currentColor"/>
</g>
<g transform="translate(64.9542, 27.0049)">
<rect x="-0.0650" y="-2.3139" width="0.1300" height="3.5170" ry="0.0400" fill="currentColor"/>
</g>
<g transform="translate(64.8892, 24.5049)">
<path transform="scale(0.0040, -0.0040)" d="M218 136c55 0 108 -28 108 -89c0 -71 -55 -121 -102 -149c-35 -21 -75 -34 -116 -34c-55 0 -108 28 -108 89c0 71 55 121 102 149c35 21 75 34 116 34z" fill="currentColor"/>
</g>
<g transform="translate(50.5936, 16.5154)">
<rect x="-0.0650" y="-0.5000" width="0.1300" height="4.3042" ry="0.0400" fill="currentColor"/>
</g>
<g transform="translate(50.5936, 27.0049)">
<rect x="-0.0650" y="-2.3139" width="0.1300" height="5.3139" ry="0.0400" fill="currentColor"/>
</g>
<g transform="translate(56.5675, 25.5049)">
<path transform="scale(0.0040, -0.0040)" d="M218 136c55 0 108 -28 108 -89c0 -71 -55 -121 -102 -149c-35 -21 -75 -34 -116 -34c-55 0 -108 28 -108 89c0 71 55 121 102 149c35 21 75 34 116 34z" fill="currentColor"/>
</g>
<g transform="translate(50.5286, 24.5049)">
<path transform="scale(0.0040, -0.0040)" d="M218 136c55 0 108 -28 108 -89c0 -71 -55 -121 -102 -149c-35 -21 -75 -34 -116 -34c-55 0 -108 28 -108 89c0 71 55 121 102 149c35 21 75 34 116 34z" fill="currentColor"/>
</g>
<g transform="translate(50.5286, 25.5049)">
<path transform="scale(0.0040, -0.0040)" d="M218 136c55 0 108 -28 108 -89c0 -71 -55 -121 -102 -149c-35 -21 -75 -34 -116 -34c-55 0 -108 28 -108 89c0 71 55 121 102 149c35 21 75 34 116 34z" fill="currentColor"/>
</g>
<g transform="translate(50.5286, 26.5049)">
<path transform="scale(0.0040, -0.0040)" d="M218 136c55 0 108 -28 108 -89c0 -71 -55 -121 -102 -149c-35 -21 -75 -34 -116 -34c-55 0 -108 28 -108 89c0 71 55 121 102 149c35 21 75 34 116 34z" fill="currentColor"/>
</g>
<g transform="translate(49.2286, 25.5049)">
<path transform="scale(0.0040, -0.0040)" d="M42 278c-4 3 -6 8 -6 12c0 8 7 16 16 16c3 0 7 -1 10 -4l128 -107c8 -6 11 -13 11 -20c0 -24 -39 -51 -68 -78c-15 -14 -23 -34 -23 -53c0 -17 5 -33 17 -47l31 -25c4 -3 6 -8 6 -12c0 -8 -7 -16 -16 -16c-3 0 -7 1 -10 4l-128 107c-8 6 -11 13 -11 20c0 24 39 51 68 78
c15 14 23 34 23 53c0 17 -5 33 -17 47z" fill="currentColor"/>
</g>
<g transform="translate(49.2286, 26.5049)">
<path transform="scale(0.0040, -0.0040)" d="M42 278c-4 3 -6 8 -6 12c0 8 7 16 16 16c3 0 7 -1 10 -4l128 -107c8 -6 11 -13 11 -20c0 -24 -39 -51 -68 -78c-15 -14 -23 -34 -23 -53c0 -17 5 -33 17 -47l31 -25c4 -3 6 -8 6 -12c0 -8 -7 -16 -16 -16c-3 0 -7 1 -10 4l-128 107c-8 6 -11 13 -11 20c0 24 39 51 68 78
c15 14 23 34 23 53c0 17 -5 33 -17 47z" fill="currentColor"/>
</g>
<g color="rgb(12.2000%, 30.6000%, 47.5000%)">
<g transform="translate(50.5286, 12.2054)">
<text font-family="serif" font-weight="bold" font-size="2.2001" text-anchor="start" fill="currentColor">
<tspan>vii°</tspan>
</text>
</g>
</g>
<g color="rgb(48.2000%, 16.9000%, 16.9000%)">
<g transform="translate(51.4846, 14.0054)">
<text font-family="serif" font-weight="bold" font-size="2.2001" text-anchor="start" fill="currentColor">
<tspan>vi</tspan>
</text>
</g>
</g>
<g transform="translate(50.5286, 16.0154)">
<path transform="scale(0.0040, -0.0040)" d="M213 112c-50 0 -69 -43 -69 -88c0 -77 57 -136 134 -136c50 0 69 43 69 88c0 77 -57 136 -134 136zM491 0c0 -43 -34 -75 -72 -96c-53 -29 -114 -40 -174 -40s-120 11 -173 40c-38 21 -72 53 -72 96s34 75 72 96c53 29 113 40 173 40s121 -11 174 -40
c38 -21 72 -53 72 -96z" fill="currentColor"/>
</g>
<g transform="translate(50.5286, 18.0154)">
<path transform="scale(0.0040, -0.0040)" d="M213 112c-50 0 -69 -43 -69 -88c0 -77 57 -136 134 -136c50 0 69 43 69 88c0 77 -57 136 -134 136zM491 0c0 -43 -34 -75 -72 -96c-53 -29 -114 -40 -174 -40s-120 11 -173 40c-38 21 -72 53 -72 96s34 75 72 96c53 29 113 40 173 40s121 -11 174 -40
c38 -21 72 -53 72 -96z" fill="currentColor"/>
</g>
<g transform="translate(50.5286, 17.0154)">
<path transform="scale(0.0040, -0.0040)" d="M218 136c55 0 108 -28 108 -89c0 -71 -55 -121 -102 -149c-35 -21 -75 -34 -116 -34c-55 0 -108 28 -108 89c0 71 55 121 102 149c35 21 75 34 116 34z" fill="currentColor"/>
</g>
<g transform="translate(49.2286, 17.0154)">
<path transform="scale(0.0040, -0.0040)" d="M42 278c-4 3 -6 8 -6 12c0 8 7 16 16 16c3 0 7 -1 10 -4l128 -107c8 -6 11 -13 11 -20c0 -24 -39 -51 -68 -78c-15 -14 -23 -34 -23 -53c0 -17 5 -33 17 -47l31 -25c4 -3 6 -8 6 -12c0 -8 -7 -16 -16 -16c-3 0 -7 1 -10 4l-128 107c-8 6 -11 13 -11 20c0 24 39 51 68 78
c15 14 23 34 23 53c0 17 -5 33 -17 47z" fill="currentColor"/>
</g>
<g transform="translate(49.2286, 18.0154)">
<path transform="scale(0.0040, -0.0040)" d="M42 278c-4 3 -6 8 -6 12c0 8 7 16 16 16c3 0 7 -1 10 -4l128 -107c8 -6 11 -13 11 -20c0 -24 -39 -51 -68 -78c-15 -14 -23 -34 -23 -53c0 -17 5 -33 17 -47l31 -25c4 -3 6 -8 6 -12c0 -8 -7 -16 -16 -16c-3 0 -7 1 -10 4l-128 107c-8 6 -11 13 -11 20c0 24 39 51 68 78
c15 14 23 34 23 53c0 17 -5 33 -17 47z" fill="currentColor"/>
</g>
<g transform="translate(56.6325, 16.5154)">
<rect x="-0.0650" y="0.6861" width="0.1300" height="2.9806" ry="0.0400" fill="currentColor"/>
</g>
<g transform="translate(56.5675, 17.0154)">
<path transform="scale(0.0040, -0.0040)" d="M218 136c55 0 108 -28 108 -89c0 -71 -55 -121 -102 -149c-35 -21 -75 -34 -116 -34c-55 0 -108 28 -108 89c0 71 55 121 102 149c35 21 75 34 116 34z" fill="currentColor"/>
</g>
<g transform="translate(53.8769, 17.5154)">
<path transform="scale(0.0040, -0.0040)" d="M218 136c55 0 108 -28 108 -89c0 -71 -55 -121 -102 -149c-35 -21 -75 -34 -116 -34c-55 0 -108 28 -108 89c0 71 55 121 102 149c35 21 75 34 116 34z" fill="currentColor"/>
</g>
<g transform="translate(53.9419, 16.5154)">
<rect x="-0.0650" y="1.1861" width="0.1300" height="2.3197" ry="0.0400" fill="currentColor"/>
</g>
<g transform="translate(5.6906, 41.3128)">
<line stroke-linejoin="round" stroke-linecap="round" stroke-width="0.1000" stroke="currentColor" x1="0.0500" y1="0" x2="108.0705" y2="0"/>
</g>
<g transform="translate(5.6906, 40.3128)">
<line stroke-linejoin="round" stroke-linecap="round" stroke-width="0.1000" stroke="currentColor" x1="0.0500" y1="0" x2="108.0705" y2="0"/>
</g>
<g transform="translate(5.6906, 39.3128)">
<line stroke-linejoin="round" stroke-linecap="round" stroke-width="0.1000" stroke="currentColor" x1="0.0500" y1="0" x2="108.0705" y2="0"/>
</g>
<g transform="translate(5.6906, 38.3128)">
<line stroke-linejoin="round" stroke-linecap="round" stroke-width="0.1000" stroke="currentColor" x1="0.0500" y1="0" x2="108.0705" y2="0"/>
</g>
<g transform="translate(5.6906, 37.3128)">
<line stroke-linejoin="round" stroke-linecap="round" stroke-width="0.1000" stroke="currentColor" x1="0.0500" y1="0" x2="108.0705" y2="0"/>
</g>
<g transform="translate(37.3988, 32.9481)">
<rect x="0.0000" y="8.4147" width="0.1900" height="5.5450" ry="0.0000" fill="currentColor"/>
</g>
<g transform="translate(113.6210, 39.3128)">
<rect x="0.0000" y="-2.0000" width="0.1900" height="4.0500" ry="0.0000" fill="currentColor"/>
</g>
<g transform="translate(37.3988, 48.9078)">
<rect x="0.0000" y="-2.0500" width="0.1900" height="4.0500" ry="0.0000" fill="currentColor"/>
</g>
<g transform="translate(113.6210, 48.9078)">
<rect x="0.0000" y="-2.0500" width="0.1900" height="4.0500" ry="0.0000" fill="currentColor"/>
</g>
<g transform="translate(64.3284, 32.9481)">
<rect x="0.0000" y="8.4147" width="0.1900" height="5.5450" ry="0.0000" fill="currentColor"/>
</g>
<g transform="translate(90.4227, 32.9481)">
<rect x="0.0000" y="8.4147" width="0.1900" height="5.5450" ry="0.0000" fill="currentColor"/>
</g>
<g transform="translate(113.6210, 32.9481)">
<rect x="0.0000" y="8.4147" width="0.1900" height="5.5450" ry="0.0000" fill="currentColor"/>
</g>
<g transform="translate(64.3284, 48.9078)">
<rect x="0.0000" y="-2.0500" width="0.1900" height="4.0500" ry="0.0000" fill="currentColor"/>
</g>
<g transform="translate(90.4227, 48.9078)">
<rect x="0.0000" y="-2.0500" width="0.1900" height="4.0500" ry="0.0000" fill="currentColor"/>
</g>
<g transform="translate(37.3988, 39.3128)">
<rect x="0.0000" y="-2.0000" width="0.1900" height="4.0500" ry="0.0000" fill="currentColor"/>
</g>
<g transform="translate(64.3284, 39.3128)">
<rect x="0.0000" y="-2.0000" width="0.1900" height="4.0500" ry="0.0000" fill="currentColor"/>
</g>
<g transform="translate(90.4227, 39.3128)">
<rect x="0.0000" y="-2.0000" width="0.1900" height="4.0500" ry="0.0000" fill="currentColor"/>
</g>
<g transform="translate(5.6906, 42.3128)">
<rect x="86.9078" y="-0.1000" width="4.8400" height="0.2000" ry="0.1000" fill="currentColor"/>
</g>
<g transform="translate(5.6906, 51.9078)">
<rect x="85.5891" y="-0.1000" width="1.3768" height="0.2000" ry="0.1000" fill="currentColor"/>
</g>
<g transform="translate(5.6906, 51.9078)">
<rect x="59.4948" y="-0.1000" width="1.3768" height="0.2000" ry="0.1000" fill="currentColor"/>
</g>
<g transform="translate(5.6906, 52.9078)">
<rect x="59.4948" y="-0.1000" width="1.3768" height="0.2000" ry="0.1000" fill="currentColor"/>
</g>
<g transform="translate(5.6906, 53.9078)">
<rect x="59.4948" y="-0.1000" width="1.3768" height="0.2000" ry="0.1000" fill="currentColor"/>
</g>
<g transform="translate(5.6906, 51.9078)">
<rect x="32.5652" y="-0.1000" width="1.3768" height="0.2000" ry="0.1000" fill="currentColor"/>
</g>
<g transform="translate(5.6906, 52.9078)">
<rect x="32.5652" y="-0.1000" width="1.3768" height="0.2000" ry="0.1000" fill="currentColor"/>
</g>
<g transform="translate(5.6906, 51.9078)">
<rect x="6.6826" y="-0.1000" width="1.3768" height="0.2000" ry="0.1000" fill="currentColor"/>
</g>
<g transform="translate(5.6906, 52.9078)">
<rect x="6.6826" y="-0.1000" width="1.3768" height="0.2000" ry="0.1000" fill="currentColor"/>
</g>
<g transform="translate(5.6906, 53.9078)">
<rect x="6.6826" y="-0.1000" width="1.3768" height="0.2000" ry="0.1000" fill="currentColor"/>
</g>
<g transform="translate(5.6906, 50.9078)">
<line stroke-linejoin="round" stroke-linecap="round" stroke-width="0.1000" stroke="currentColor" x1="0.0500" y1="0" x2="108.0705" y2="0"/>
</g>
<g transform="translate(5.6906, 49.9078)">
<line stroke-linejoin="round" stroke-linecap="round" stroke-width="0.1000" stroke="currentColor" x1="0.0500" y1="0" x2="108.0705" y2="0"/>
</g>
<g transform="translate(5.6906, 48.9078)">
<line stroke-linejoin="round" stroke-linecap="round" stroke-width="0.1000" stroke="currentColor" x1="0.0500" y1="0" x2="108.0705" y2="0"/>
</g>
<g transform="translate(5.6906, 47.9078)">
<line stroke-linejoin="round" stroke-linecap="round" stroke-width="0.1000" stroke="currentColor" x1="0.0500" y1="0" x2="108.0705" y2="0"/>
</g>
<g transform="translate(5.6906, 46.9078)">
<line stroke-linejoin="round" stroke-linecap="round" stroke-width="0.1000" stroke="currentColor" x1="0.0500" y1="0" x2="108.0705" y2="0"/>
</g>
<g transform="translate(79.2273, 39.3128)">
<rect x="-0.0650" y="1.6861" width="0.1300" height="2.6472" ry="0.0400" fill="currentColor"/>
</g>
<g transform="translate(79.1623, 48.9078)">
<path transform="scale(0.0040, -0.0040)" d="M218 136c55 0 108 -28 108 -89c0 -71 -55 -121 -102 -149c-35 -21 -75 -34 -116 -34c-55 0 -108 28 -108 89c0 71 55 121 102 149c35 21 75 34 116 34z" fill="currentColor"/>
</g>
<g transform="translate(79.1623, 40.8128)">
<path transform="scale(0.0040, -0.0040)" d="M218 136c55 0 108 -28 108 -89c0 -71 -55 -121 -102 -149c-35 -21 -75 -34 -116 -34c-55 0 -108 28 -108 89c0 71 55 121 102 149c35 21 75 34 116 34z" fill="currentColor"/>
</g>
<g transform="translate(76.2586, 48.9078)">
<rect x="-0.0650" y="-0.8139" width="0.1300" height="3.0151" ry="0.0400" fill="currentColor"/>
</g>
<g transform="translate(76.1936, 47.9078)">
<path transform="scale(0.0040, -0.0040)" d="M218 136c55 0 108 -28 108 -89c0 -71 -55 -121 -102 -149c-35 -21 -75 -34 -116 -34c-55 0 -108 28 -108 89c0 71 55 121 102 149c35 21 75 34 116 34z" fill="currentColor"/>
</g>
<g transform="translate(72.7898, 48.9078)">
<rect x="-0.0650" y="0.1861" width="0.1300" height="2.6127" ry="0.0400" fill="currentColor"/>
</g>
<g transform="translate(85.1498, 48.9078)">
<path transform="scale(0.0040, -0.0040)" d="M42 278c-4 3 -6 8 -6 12c0 8 7 16 16 16c3 0 7 -1 10 -4l128 -107c8 -6 11 -13 11 -20c0 -24 -39 -51 -68 -78c-15 -14 -23 -34 -23 -53c0 -17 5 -33 17 -47l31 -25c4 -3 6 -8 6 -12c0 -8 -7 -16 -16 -16c-3 0 -7 1 -10 4l-128 107c-8 6 -11 13 -11 20c0 24 39 51 68 78
c15 14 23 34 23 53c0 17 -5 33 -17 47z" fill="currentColor"/>
</g>
<g transform="translate(85.1498, 49.9078)">
<path transform="scale(0.0040, -0.0040)" d="M42 278c-4 3 -6 8 -6 12c0 8 7 16 16 16c3 0 7 -1 10 -4l128 -107c8 -6 11 -13 11 -20c0 -24 -39 -51 -68 -78c-15 -14 -23 -34 -23 -53c0 -17 5 -33 17 -47l31 -25c4 -3 6 -8 6 -12c0 -8 -7 -16 -16 -16c-3 0 -7 1 -10 4l-128 107c-8 6 -11 13 -11 20c0 24 39 51 68 78
c15 14 23 34 23 53c0 17 -5 33 -17 47z" fill="currentColor"/>
</g>
<g transform="translate(86.4498, 47.9078)">
<path transform="scale(0.0040, -0.0040)" d="M218 136c55 0 108 -28 108 -89c0 -71 -55 -121 -102 -149c-35 -21 -75 -34 -116 -34c-55 0 -108 28 -108 89c0 71 55 121 102 149c35 21 75 34 116 34z" fill="currentColor"/>
</g>
<g transform="translate(86.4498, 39.3128)">
<path transform="scale(0.0040, -0.0040)" d="M218 136c55 0 108 -28 108 -89c0 -71 -55 -121 -102 -149c-35 -21 -75 -34 -116 -34c-55 0 -108 28 -108 89c0 71 55 121 102 149c35 21 75 34 116 34z" fill="currentColor"/>
</g>
<g transform="translate(86.4498, 49.9078)">
<path transform="scale(0.0040, -0.0040)" d="M218 136c55 0 108 -28 108 -89c0 -71 -55 -121 -102 -149c-35 -21 -75 -34 -116 -34c-55 0 -108 28 -108 89c0 71 55 121 102 149c35 21 75 34 116 34z" fill="currentColor"/>
</g>
<g transform="translate(82.6960, 48.9078)">
<rect x="-0.0650" y="-0.8139" width="0.1300" height="3.0151" ry="0.0400" fill="currentColor"/>
</g>
<g transform="translate(86.4498, 48.9078)">
<path transform="scale(0.0040, -0.0040)" d="M218 136c55 0 108 -28 108 -89c0 -71 -55 -121 -102 -149c-35 -21 -75 -34 -116 -34c-55 0 -108 28 -108 89c0 71 55 121 102 149c35 21 75 34 116 34z" fill="currentColor"/>
</g>
<g transform="translate(82.6310, 47.9078)">
<path transform="scale(0.0040, -0.0040)" d="M218 136c55 0 108 -28 108 -89c0 -71 -55 -121 -102 -149c-35 -21 -75 -34 -116 -34c-55 0 -108 28 -108 89c0 71 55 121 102 149c35 21 75 34 116 34z" fill="currentColor"/>
</g>
<g transform="translate(86.5148, 39.3128)">
<rect x="-0.0650" y="0.1861" width="0.1300" height="3.1472" ry="0.0400" fill="currentColor"/>
</g>
<g transform="translate(79.2273, 48.9078)">
<rect x="-0.0650" y="0.1861" width="0.1300" height="2.6127" ry="0.0400" fill="currentColor"/>
</g>
<g transform="translate(66.3327, 51.6478)">
<path transform="scale(0.0028, -0.0028)" d="M-169 -516l357 290c30 26 70 -23 39 -48l-357 -290c-30 -26 -70 23 -39 48z" fill="currentColor"/>
</g>
<g transform="translate(66.3327, 51.6478)">
<path transform="scale(0.0028, -0.0028)" d="M0 0c0 -196 207 -334 207 -530c0 -71 -15 -140 -41 -206c-5 -10 -14 -13 -23 -13c-14 0 -28 10 -28 26c0 2 1 3 1 5c26 59 42 123 42 188c0 101 -90 205 -158 280h-21v250h21z" fill="currentColor"/>
</g>
<g transform="translate(66.2677, 48.9078)">
<rect x="-0.0650" y="2.7000" width="0.1300" height="2.6856" ry="0.0400" fill="currentColor"/>
</g>
<g transform="translate(65.4148, 54.4078)">
<path transform="scale(0.0028, -0.0028)" d="M208 139c61 0 117 -33 117 -99c0 -71 -52 -119 -99 -147c-34 -20 -71 -32 -110 -32c-61 0 -116 33 -116 99c0 71 51 119 98 147c34 20 71 32 110 32z" fill="currentColor"/>
</g>
<g transform="translate(61.2717, 48.9078)">
<rect x="-0.0650" y="-2.0000" width="0.1300" height="3.3139" ry="0.0400" fill="currentColor"/>
</g>
<g transform="translate(60.0325, 50.4078)">
<path transform="scale(0.0040, -0.0040)" d="M218 136c55 0 108 -28 108 -89c0 -71 -55 -121 -102 -149c-35 -21 -75 -34 -116 -34c-55 0 -108 28 -108 89c0 71 55 121 102 149c35 21 75 34 116 34z" fill="currentColor"/>
</g>
<g transform="translate(12.6026, 48.9078)">
<path stroke-width="0.0800" stroke-linejoin="round" stroke-linecap="round" stroke="currentColor" fill="currentColor" d="M0.6864 6.3940C1.8192 6.3261 2.8972 5.1798 2.8956 4.0450L2.8956 4.0450C2.8098 5.0976 1.7318 6.2439 0.6864 6.3940z"/>
</g>
<g transform="translate(67.6566, 39.3128)">
<rect x="-0.0650" y="1.1861" width="0.1300" height="3.4806" ry="0.0400" fill="currentColor"/>
</g>
<g transform="translate(72.7898, 39.3128)">
<rect x="-0.0650" y="1.1861" width="0.1300" height="2.8139" ry="0.0400" fill="currentColor"/>
</g>
<g transform="translate(72.7248, 48.9078)">
<path transform="scale(0.0040, -0.0040)" d="M218 136c55 0 108 -28 108 -89c0 -71 -55 -121 -102 -149c-35 -21 -75 -34 -116 -34c-55 0 -108 28 -108 89c0 71 55 121 102 149c35 21 75 34 116 34z" fill="currentColor"/>
</g>
<g transform="translate(72.7248, 40.3128)">
<path transform="scale(0.0040, -0.0040)" d="M218 136c55 0 108 -28 108 -89c0 -71 -55 -121 -102 -149c-35 -21 -75 -34 -116 -34c-55 0 -108 28 -108 89c0 71 55 121 102 149c35 21 75 34 116 34z" fill="currentColor"/>
</g>
<g transform="translate(67.6566, 48.9078)">
<rect x="-0.0650" y="-0.8139" width="0.1300" height="4.8139" ry="0.0400" fill="currentColor"/>
</g>
<g transform="translate(67.5916, 47.9078)">
<path transform="scale(0.0040, -0.0040)" d="M218 136c55 0 108 -28 108 -89c0 -71 -55 -121 -102 -149c-35 -21 -75 -34 -116 -34c-55 0 -108 28 -108 89c0 71 55 121 102 149c35 21 75 34 116 34z" fill="currentColor"/>
</g>
<g transform="translate(67.5916, 48.9078)">
<path transform="scale(0.0040, -0.0040)" d="M218 136c55 0 108 -28 108 -89c0 -71 -55 -121 -102 -149c-35 -21 -75 -34 -116 -34c-55 0 -108 28 -108 89c0 71 55 121 102 149c35 21 75 34 116 34z" fill="currentColor"/>
</g>
<g transform="translate(67.5916, 49.9078)">
<path transform="scale(0.0040, -0.0040)" d="M218 136c55 0 108 -28 108 -89c0 -71 -55 -121 -102 -149c-35 -21 -75 -34 -116 -34c-55 0 -108 28 -108 89c0 71 55 121 102 149c35 21 75 34 116 34z" fill="currentColor"/>
</g>
<g transform="translate(66.2916, 48.9078)">
<path transform="scale(0.0040, -0.0040)" d="M42 278c-4 3 -6 8 -6 12c0 8 7 16 16 16c3 0 7 -1 10 -4l128 -107c8 -6 11 -13 11 -20c0 -24 -39 -51 -68 -78c-15 -14 -23 -34 -23 -53c0 -17 5 -33 17 -47l31 -25c4 -3 6 -8 6 -12c0 -8 -7 -16 -16 -16c-3 0 -7 1 -10 4l-128 107c-8 6 -11 13 -11 20c0 24 39 51 68 78
c15 14 23 34 23 53c0 17 -5 33 -17 47z" fill="currentColor"/>
</g>
<g transform="translate(66.2916, 49.9078)">
<path transform="scale(0.0040, -0.0040)" d="M42 278c-4 3 -6 8 -6 12c0 8 7 16 16 16c3 0 7 -1 10 -4l128 -107c8 -6 11 -13 11 -20c0 -24 -39 -51 -68 -78c-15 -14 -23 -34 -23 -53c0 -17 5 -33 17 -47l31 -25c4 -3 6 -8 6 -12c0 -8 -7 -16 -16 -16c-3 0 -7 1 -10 4l-128 107c-8 6 -11 13 -11 20c0 24 39 51 68 78
c15 14 23 34 23 53c0 17 -5 33 -17 47z" fill="currentColor"/>
</g>
<g color="rgb(12.2000%, 30.6000%, 47.5000%)">
<g transform="translate(67.7794, 35.0028)">
<text font-family="serif" font-weight="bold" font-size="2.2001" text-anchor="start" fill="currentColor">
<tspan>vi</tspan>
</text>
</g>
</g>
<g color="rgb(48.2000%, 16.9000%, 16.9000%)">
<g transform="translate(67.5916, 36.8028)">
<text font-family="serif" font-weight="bold" font-size="2.2001" text-anchor="start" fill="currentColor">
<tspan>iii</tspan>
</text>
</g>
</g>
<g transform="translate(67.5916, 41.3128)">
<path transform="scale(0.0040, -0.0040)" d="M213 112c-50 0 -69 -43 -69 -88c0 -77 57 -136 134 -136c50 0 69 43 69 88c0 77 -57 136 -134 136zM491 0c0 -43 -34 -75 -72 -96c-53 -29 -114 -40 -174 -40s-120 11 -173 40c-38 21 -72 53 -72 96s34 75 72 96c53 29 113 40 173 40s121 -11 174 -40
c38 -21 72 -53 72 -96z" fill="currentColor"/>
</g>
<g transform="translate(67.5916, 40.3128)">
<path transform="scale(0.0040, -0.0040)" d="M218 136c55 0 108 -28 108 -89c0 -71 -55 -121 -102 -149c-35 -21 -75 -34 -116 -34c-55 0 -108 28 -108 89c0 71 55 121 102 149c35 21 75 34 116 34z" fill="currentColor"/>
</g>
<g transform="translate(106.6216, 39.3128)">
<rect x="-0.0650" y="1.2590" width="0.1300" height="2.7410" ry="0.0400" fill="currentColor"/>
</g>
<g transform="translate(106.5566, 40.3128)">
<path transform="scale(0.0040, -0.0040)" d="M314 65c0 24 -21 41 -42 41c-4 0 -8 0 -12 -1c-31 -9 -78 -40 -115 -64s-84 -53 -104 -78c-7 -8 -10 -18 -10 -28c0 -24 21 -41 42 -41c4 0 8 0 12 1c31 9 77 40 114 64s84 53 104 78c7 8 11 18 11 28zM262 136c46 0 82 -21 82 -71c0 -19 -4 -39 -10 -57
c-12 -37 -32 -72 -64 -94c-53 -36 -113 -50 -187 -50c-46 0 -83 21 -83 71c0 19 5 39 11 57c12 37 31 72 63 94c53 36 114 50 188 50z" fill="currentColor"/>
</g>
<g transform="translate(101.4884, 39.3128)">
<rect x="-0.0650" y="0.6861" width="0.1300" height="2.9806" ry="0.0400" fill="currentColor"/>
</g>
<g transform="translate(101.4234, 39.8128)">
<path transform="scale(0.0040, -0.0040)" d="M218 136c55 0 108 -28 108 -89c0 -71 -55 -121 -102 -149c-35 -21 -75 -34 -116 -34c-55 0 -108 28 -108 89c0 71 55 121 102 149c35 21 75 34 116 34z" fill="currentColor"/>
</g>
<g transform="translate(98.2696, 39.3128)">
<rect x="-0.0650" y="1.1861" width="0.1300" height="3.3393" ry="0.0400" fill="currentColor"/>
</g>
<g transform="translate(98.2046, 40.3128)">
<path transform="scale(0.0040, -0.0040)" d="M218 136c55 0 108 -28 108 -89c0 -71 -55 -121 -102 -149c-35 -21 -75 -34 -116 -34c-55 0 -108 28 -108 89c0 71 55 121 102 149c35 21 75 34 116 34z" fill="currentColor"/>
</g>
<g transform="translate(72.7248, 51.7178)">
<polygon stroke-linejoin="round" stroke-linecap="round" stroke-width="0.0800" fill="currentColor" stroke="currentColor" points="3.5587 -0.8200 3.5587 -0.4200 0.0400 0.2000 0.0400 -0.2000"/>
</g>
<g transform="translate(19.7009, 51.7178)">
<polygon stroke-linejoin="round" stroke-linecap="round" stroke-width="0.0800" fill="currentColor" stroke="currentColor" points="3.5587 -0.8200 3.5587 -0.4200 0.0400 0.2000 0.0400 -0.2000"/>
</g>
<g transform="translate(26.1384, 51.7178)">
<polygon stroke-linejoin="round" stroke-linecap="round" stroke-width="0.0800" fill="currentColor" stroke="currentColor" points="3.5587 -0.8200 3.5587 -0.4200 0.0400 0.2000 0.0400 -0.2000"/>
</g>
<g transform="translate(38.4852, 48.9078)">
<path stroke-width="0.0800" stroke-linejoin="round" stroke-linecap="round" stroke="currentColor" fill="currentColor" d="M0.6239 4.8940C2.0291 5.1562 3.9895 3.9247 4.3633 2.5450L4.3633 2.5450C3.9257 3.8231 1.9653 5.0546 0.6239 4.8940z"/>
</g>
<g transform="translate(47.1401, 42.1228)">
<polygon stroke-linejoin="round" stroke-linecap="round" stroke-width="0.0800" fill="currentColor" stroke="currentColor" points="3.4337 -0.0100 3.4337 0.3900 0.0400 0.2000 0.0400 -0.2000"/>
</g>
<g transform="translate(47.1401, 51.7178)">
<polygon stroke-linejoin="round" stroke-linecap="round" stroke-width="0.0800" fill="currentColor" stroke="currentColor" points="3.4337 -0.8200 3.4337 -0.4200 0.0400 0.2000 0.0400 -0.2000"/>
</g>
<g transform="translate(53.5775, 51.7178)">
<polygon stroke-linejoin="round" stroke-linecap="round" stroke-width="0.0800" fill="currentColor" stroke="currentColor" points="3.5587 -0.8200 3.5587 -0.4200 0.0400 0.2000 0.0400 -0.2000"/>
</g>
<g transform="translate(65.4148, 48.9078)">
<path stroke-width="0.0800" stroke-linejoin="round" stroke-linecap="round" stroke="currentColor" fill="currentColor" d="M0.6889 6.3940C1.9329 6.2970 3.1706 4.9427 3.1556 3.6950L3.1556 3.6950C3.0820 4.8618 1.8443 6.2160 0.6889 6.3940z"/>
</g>
<g transform="translate(79.1623, 51.7178)">
<polygon stroke-linejoin="round" stroke-linecap="round" stroke-width="0.0800" fill="currentColor" stroke="currentColor" points="3.5587 -0.8200 3.5587 -0.4200 0.0400 0.2000 0.0400 -0.2000"/>
</g>
<g transform="translate(91.5091, 48.9078)">
<path stroke-width="0.0800" stroke-linejoin="round" stroke-linecap="round" stroke="currentColor" fill="currentColor" d="M0.6064 4.3940C2.0520 4.7736 4.2706 3.6027 4.7729 2.1950L4.7729 2.1950C4.2146 3.4966 1.9960 4.6675 0.6064 4.3940z"/>
</g>
<g transform="translate(94.9859, 45.1228)">
<polygon stroke-linejoin="round" stroke-linecap="round" stroke-width="0.0800" fill="currentColor" stroke="currentColor" points="3.3087 -1.5100 3.3087 -1.1100 0.0400 0.2000 0.0400 -0.2000"/>
</g>
<g transform="translate(92.4270, 49.6478)">
<path transform="scale(0.0028, -0.0028)" d="M-169 -516l357 290c30 26 70 -23 39 -48l-357 -290c-30 -26 -70 23 -39 48z" fill="currentColor"/>
</g>
<g transform="translate(92.4270, 49.6478)">
<path transform="scale(0.0028, -0.0028)" d="M0 0c0 -196 207 -334 207 -530c0 -71 -15 -140 -41 -206c-5 -10 -14 -13 -23 -13c-14 0 -28 10 -28 26c0 2 1 3 1 5c26 59 42 123 42 188c0 101 -90 205 -158 280h-21v250h21z" fill="currentColor"/>
</g>
<g transform="translate(92.3620, 48.9078)">
<rect x="-0.0650" y="0.7000" width="0.1300" height="2.6856" ry="0.0400" fill="currentColor"/>
</g>
<g transform="translate(91.5091, 52.4078)">
<path transform="scale(0.0028, -0.0028)" d="M208 139c61 0 117 -33 117 -99c0 -71 -52 -119 -99 -147c-34 -20 -71 -32 -110 -32c-61 0 -116 33 -116 99c0 71 51 119 98 147c34 20 71 32 110 32z" fill="currentColor"/>
</g>
<g transform="translate(86.5148, 48.9078)">
<rect x="-0.0650" y="-0.8139" width="0.1300" height="4.8139" ry="0.0400" fill="currentColor"/>
</g>
<g transform="translate(94.9859, 46.9078)">
<path transform="scale(0.0040, -0.0040)" d="M213 112c-50 0 -69 -43 -69 -88c0 -77 57 -136 134 -136c50 0 69 43 69 88c0 77 -57 136 -134 136zM491 0c0 -43 -34 -75 -72 -96c-53 -29 -114 -40 -174 -40s-120 11 -173 40c-38 21 -72 53 -72 96s34 75 72 96c53 29 113 40 173 40s121 -11 174 -40
c38 -21 72 -53 72 -96z" fill="currentColor"/>
</g>
<g transform="translate(95.0509, 39.3128)">
<rect x="-0.0650" y="0.6861" width="0.1300" height="5.0985" ry="0.0400" fill="currentColor"/>
</g>
<g transform="translate(94.9859, 47.9078)">
<path transform="scale(0.0040, -0.0040)" d="M213 112c-50 0 -69 -43 -69 -88c0 -77 57 -136 134 -136c50 0 69 43 69 88c0 77 -57 136 -134 136zM491 0c0 -43 -34 -75 -72 -96c-53 -29 -114 -40 -174 -40s-120 11 -173 40c-38 21 -72 53 -72 96s34 75 72 96c53 29 113 40 173 40s121 -11 174 -40
c38 -21 72 -53 72 -96z" fill="currentColor"/>
</g>
<g transform="translate(94.9859, 48.9078)">
<path transform="scale(0.0040, -0.0040)" d="M213 112c-50 0 -69 -43 -69 -88c0 -77 57 -136 134 -136c50 0 69 43 69 88c0 77 -57 136 -134 136zM491 0c0 -43 -34 -75 -72 -96c-53 -29 -114 -40 -174 -40s-120 11 -173 40c-38 21 -72 53 -72 96s34 75 72 96c53 29 113 40 173 40s121 -11 174 -40
c38 -21 72 -53 72 -96z" fill="currentColor"/>
</g>
<g transform="translate(94.9859, 49.9078)">
<path transform="scale(0.0040, -0.0040)" d="M213 112c-50 0 -69 -43 -69 -88c0 -77 57 -136 134 -136c50 0 69 43 69 88c0 77 -57 136 -134 136zM491 0c0 -43 -34 -75 -72 -96c-53 -29 -114 -40 -174 -40s-120 11 -173 40c-38 21 -72 53 -72 96s34 75 72 96c53 29 113 40 173 40s121 -11 174 -40
c38 -21 72 -53 72 -96z" fill="currentColor"/>
</g>
<g transform="translate(93.6859, 47.9078)">
<path transform="scale(0.0040, -0.0040)" d="M42 278c-4 3 -6 8 -6 12c0 8 7 16 16 16c3 0 7 -1 10 -4l128 -107c8 -6 11 -13 11 -20c0 -24 -39 -51 -68 -78c-15 -14 -23 -34 -23 -53c0 -17 5 -33 17 -47l31 -25c4 -3 6 -8 6 -12c0 -8 -7 -16 -16 -16c-3 0 -7 1 -10 4l-128 107c-8 6 -11 13 -11 20c0 24 39 51 68 78
c15 14 23 34 23 53c0 17 -5 33 -17 47z" fill="currentColor"/>
</g>
<g transform="translate(93.6859, 48.9078)">
<path transform="scale(0.0040, -0.0040)" d="M42 278c-4 3 -6 8 -6 12c0 8 7 16 16 16c3 0 7 -1 10 -4l128 -107c8 -6 11 -13 11 -20c0 -24 -39 -51 -68 -78c-15 -14 -23 -34 -23 -53c0 -17 5 -33 17 -47l31 -25c4 -3 6 -8 6 -12c0 -8 -7 -16 -16 -16c-3 0 -7 1 -10 4l-128 107c-8 6 -11 13 -11 20c0 24 39 51 68 78
c15 14 23 34 23 53c0 17 -5 33 -17 47z" fill="currentColor"/>
</g>
<g transform="translate(93.6859, 49.9078)">
<path transform="scale(0.0040, -0.0040)" d="M42 278c-4 3 -6 8 -6 12c0 8 7 16 16 16c3 0 7 -1 10 -4l128 -107c8 -6 11 -13 11 -20c0 -24 -39 -51 -68 -78c-15 -14 -23 -34 -23 -53c0 -17 5 -33 17 -47l31 -25c4 -3 6 -8 6 -12c0 -8 -7 -16 -16 -16c-3 0 -7 1 -10 4l-128 107c-8 6 -11 13 -11 20c0 24 39 51 68 78
c15 14 23 34 23 53c0 17 -5 33 -17 47z" fill="currentColor"/>
</g>
<g color="rgb(12.2000%, 30.6000%, 47.5000%)">
<g transform="translate(94.9859, 35.0028)">
<text font-family="serif" font-weight="bold" font-size="2.2001" text-anchor="start" fill="currentColor">
<tspan>IV</tspan>
</text>
</g>
<g transform="translate(97.7173, 35.0028)">
<text font-family="serif" font-size="2.2001" text-anchor="start" fill="currentColor">
<tspan>Δ</tspan>
</text>
</g>
<g transform="translate(99.3221, 34.4028)">
<text font-family="serif" font-size="1.9600" text-anchor="start" fill="currentColor">
<tspan>3</tspan>
</text>
</g>
</g>
<g color="rgb(48.2000%, 16.9000%, 16.9000%)">
<g transform="translate(95.8565, 36.8028)">
<text font-family="serif" font-weight="bold" font-size="2.2001" text-anchor="start" fill="currentColor">
<tspan>iii</tspan>
</text>
</g>
<g transform="translate(98.3149, 36.8028)">
<text font-family="serif" font-size="2.2001" text-anchor="start" fill="currentColor">
<tspan>7</tspan>
</text>
</g>
</g>
<g transform="translate(94.9859, 41.3128)">
<path transform="scale(0.0040, -0.0040)" d="M213 112c-50 0 -69 -43 -69 -88c0 -77 57 -136 134 -136c50 0 69 43 69 88c0 77 -57 136 -134 136zM491 0c0 -43 -34 -75 -72 -96c-53 -29 -114 -40 -174 -40s-120 11 -173 40c-38 21 -72 53 -72 96s34 75 72 96c53 29 113 40 173 40s121 -11 174 -40
c38 -21 72 -53 72 -96z" fill="currentColor"/>
</g>
<g transform="translate(94.9859, 42.3128)">
<path transform="scale(0.0040, -0.0040)" d="M213 112c-50 0 -69 -43 -69 -88c0 -77 57 -136 134 -136c50 0 69 43 69 88c0 77 -57 136 -134 136zM491 0c0 -43 -34 -75 -72 -96c-53 -29 -114 -40 -174 -40s-120 11 -173 40c-38 21 -72 53 -72 96s34 75 72 96c53 29 113 40 173 40s121 -11 174 -40
c38 -21 72 -53 72 -96z" fill="currentColor"/>
</g>
<g transform="translate(93.0889, 42.8128)">
<path transform="scale(0.0040, -0.0040)" d="M213 112c-50 0 -69 -43 -69 -88c0 -77 57 -136 134 -136c50 0 69 43 69 88c0 77 -57 136 -134 136zM491 0c0 -43 -34 -75 -72 -96c-53 -29 -114 -40 -174 -40s-120 11 -173 40c-38 21 -72 53 -72 96s34 75 72 96c53 29 113 40 173 40s121 -11 174 -40
c38 -21 72 -53 72 -96z" fill="currentColor"/>
</g>
<g transform="translate(94.9859, 39.8128)">
<path transform="scale(0.0040, -0.0040)" d="M218 136c55 0 108 -28 108 -89c0 -71 -55 -121 -102 -149c-35 -21 -75 -34 -116 -34c-55 0 -108 28 -108 89c0 71 55 121 102 149c35 21 75 34 116 34z" fill="currentColor"/>
</g>
<g transform="translate(91.7889, 40.8128)">
<path transform="scale(0.0040, -0.0040)" d="M42 278c-4 3 -6 8 -6 12c0 8 7 16 16 16c3 0 7 -1 10 -4l128 -107c8 -6 11 -13 11 -20c0 -24 -39 -51 -68 -78c-15 -14 -23 -34 -23 -53c0 -17 5 -33 17 -47l31 -25c4 -3 6 -8 6 -12c0 -8 -7 -16 -16 -16c-3 0 -7 1 -10 4l-128 107c-8 6 -11 13 -11 20c0 24 39 51 68 78
c15 14 23 34 23 53c0 17 -5 33 -17 47z" fill="currentColor"/>
</g>
<g transform="translate(91.7889, 41.8128)">
<path transform="scale(0.0040, -0.0040)" d="M42 278c-4 3 -6 8 -6 12c0 8 7 16 16 16c3 0 7 -1 10 -4l128 -107c8 -6 11 -13 11 -20c0 -24 -39 -51 -68 -78c-15 -14 -23 -34 -23 -53c0 -17 5 -33 17 -47l31 -25c4 -3 6 -8 6 -12c0 -8 -7 -16 -16 -16c-3 0 -7 1 -10 4l-128 107c-8 6 -11 13 -11 20c0 24 39 51 68 78
c15 14 23 34 23 53c0 17 -5 33 -17 47z" fill="currentColor"/>
</g>
<g transform="translate(91.7889, 42.8128)">
<path transform="scale(0.0040, -0.0040)" d="M42 278c-4 3 -6 8 -6 12c0 8 7 16 16 16c3 0 7 -1 10 -4l128 -107c8 -6 11 -13 11 -20c0 -24 -39 -51 -68 -78c-15 -14 -23 -34 -23 -53c0 -17 5 -33 17 -47l31 -25c4 -3 6 -8 6 -12c0 -8 -7 -16 -16 -16c-3 0 -7 1 -10 4l-128 107c-8 6 -11 13 -11 20c0 24 39 51 68 78
c15 14 23 34 23 53c0 17 -5 33 -17 47z" fill="currentColor"/>
</g>
<g transform="translate(26.2034, 39.3128)">
<rect x="-0.0650" y="-0.8139" width="0.1300" height="3.3139" ry="0.0400" fill="currentColor"/>
</g>
<g transform="translate(26.1384, 49.4078)">
<path transform="scale(0.0040, -0.0040)" d="M218 136c55 0 108 -28 108 -89c0 -71 -55 -121 -102 -149c-35 -21 -75 -34 -116 -34c-55 0 -108 28 -108 89c0 71 55 121 102 149c35 21 75 34 116 34z" fill="currentColor"/>
</g>
<g transform="translate(26.1384, 38.3128)">
<path transform="scale(0.0040, -0.0040)" d="M218 136c55 0 108 -28 108 -89c0 -71 -55 -121 -102 -149c-35 -21 -75 -34 -116 -34c-55 0 -108 28 -108 89c0 71 55 121 102 149c35 21 75 34 116 34z" fill="currentColor"/>
</g>
<g transform="translate(23.2347, 48.9078)">
<rect x="-0.0650" y="-0.3139" width="0.1300" height="2.5151" ry="0.0400" fill="currentColor"/>
</g>
<g transform="translate(23.1697, 48.4078)">
<path transform="scale(0.0040, -0.0040)" d="M218 136c55 0 108 -28 108 -89c0 -71 -55 -121 -102 -149c-35 -21 -75 -34 -116 -34c-55 0 -108 28 -108 89c0 71 55 121 102 149c35 21 75 34 116 34z" fill="currentColor"/>
</g>
<g transform="translate(19.7659, 48.9078)">
<rect x="-0.0650" y="0.6861" width="0.1300" height="2.1127" ry="0.0400" fill="currentColor"/>
</g>
<g transform="translate(19.7659, 39.3128)">
<rect x="-0.0650" y="-0.3139" width="0.1300" height="3.3139" ry="0.0400" fill="currentColor"/>
</g>
<g transform="translate(19.7009, 49.4078)">
<path transform="scale(0.0040, -0.0040)" d="M218 136c55 0 108 -28 108 -89c0 -71 -55 -121 -102 -149c-35 -21 -75 -34 -116 -34c-55 0 -108 28 -108 89c0 71 55 121 102 149c35 21 75 34 116 34z" fill="currentColor"/>
</g>
<g transform="translate(19.7009, 38.8128)">
<path transform="scale(0.0040, -0.0040)" d="M218 136c55 0 108 -28 108 -89c0 -71 -55 -121 -102 -149c-35 -21 -75 -34 -116 -34c-55 0 -108 28 -108 89c0 71 55 121 102 149c35 21 75 34 116 34z" fill="currentColor"/>
</g>
<g transform="translate(33.4909, 39.3128)">
<rect x="-0.0650" y="0.1861" width="0.1300" height="3.1472" ry="0.0400" fill="currentColor"/>
</g>
<g transform="translate(33.4259, 47.9078)">
<path transform="scale(0.0040, -0.0040)" d="M218 136c55 0 108 -28 108 -89c0 -71 -55 -121 -102 -149c-35 -21 -75 -34 -116 -34c-55 0 -108 28 -108 89c0 71 55 121 102 149c35 21 75 34 116 34z" fill="currentColor"/>
</g>
<g transform="translate(33.4259, 48.9078)">
<path transform="scale(0.0040, -0.0040)" d="M218 136c55 0 108 -28 108 -89c0 -71 -55 -121 -102 -149c-35 -21 -75 -34 -116 -34c-55 0 -108 28 -108 89c0 71 55 121 102 149c35 21 75 34 116 34z" fill="currentColor"/>
</g>
<g transform="translate(33.4259, 49.9078)">
<path transform="scale(0.0040, -0.0040)" d="M218 136c55 0 108 -28 108 -89c0 -71 -55 -121 -102 -149c-35 -21 -75 -34 -116 -34c-55 0 -108 28 -108 89c0 71 55 121 102 149c35 21 75 34 116 34z" fill="currentColor"/>
</g>
<g transform="translate(33.4259, 39.3128)">
<path transform="scale(0.0040, -0.0040)" d="M218 136c55 0 108 -28 108 -89c0 -71 -55 -121 -102 -149c-35 -21 -75 -34 -116 -34c-55 0 -108 28 -108 89c0 71 55 121 102 149c35 21 75 34 116 34z" fill="currentColor"/>
</g>
<g transform="translate(15.7621, 48.9078)">
<rect x="-0.0650" y="-3.6667" width="0.1300" height="4.9806" ry="0.0400" fill="currentColor"/>
</g>
<g transform="translate(29.6721, 48.9078)">
<rect x="-0.0650" y="-0.3139" width="0.1300" height="2.5151" ry="0.0400" fill="currentColor"/>
</g>
<g transform="translate(29.6071, 48.4078)">
<path transform="scale(0.0040, -0.0040)" d="M218 136c55 0 108 -28 108 -89c0 -71 -55 -121 -102 -149c-35 -21 -75 -34 -116 -34c-55 0 -108 28 -108 89c0 71 55 121 102 149c35 21 75 34 116 34z" fill="currentColor"/>
</g>
<g transform="translate(26.2034, 48.9078)">
<rect x="-0.0650" y="0.6861" width="0.1300" height="2.1127" ry="0.0400" fill="currentColor"/>
</g>
<g transform="translate(10.1106, 49.9078)">
<path transform="scale(0.0040, -0.0040)" d="M27 41l-1 -66v-11c0 -22 1 -44 4 -66c45 38 93 80 93 139c0 33 -14 67 -43 67c-31 0 -52 -30 -53 -63zM-15 -138l-12 595c8 5 18 8 27 8s19 -3 27 -8l-7 -345c25 21 58 34 91 34c52 0 89 -48 89 -102c0 -80 -86 -117 -147 -169c-15 -13 -24 -38 -45 -38
c-13 0 -23 11 -23 25z" fill="currentColor"/>
</g>
<g transform="translate(11.0306, 48.4078)">
<path transform="scale(0.0040, -0.0040)" d="M27 41l-1 -66v-11c0 -22 1 -44 4 -66c45 38 93 80 93 139c0 33 -14 67 -43 67c-31 0 -52 -30 -53 -63zM-15 -138l-12 595c8 5 18 8 27 8s19 -3 27 -8l-7 -345c25 21 58 34 91 34c52 0 89 -48 89 -102c0 -80 -86 -117 -147 -169c-15 -13 -24 -38 -45 -38
c-13 0 -23 11 -23 25z" fill="currentColor"/>
</g>
<g transform="translate(6.4906, 47.9078)">
<path transform="scale(0.0040, -0.0040)" d="M557 -125c0 28 23 51 51 51s51 -23 51 -51s-23 -51 -51 -51s-51 23 -51 51zM557 125c0 28 23 51 51 51s51 -23 51 -51s-23 -51 -51 -51s-51 23 -51 51zM232 263c172 0 293 -88 293 -251c0 -263 -263 -414 -516 -521c-3 -3 -6 -4 -9 -4c-7 0 -13 6 -13 13c0 3 1 6 4 9
c202 118 412 265 412 493c0 120 -63 235 -171 235c-74 0 -129 -54 -154 -126c11 5 22 8 34 8c55 0 100 -45 100 -100c0 -58 -44 -106 -100 -106c-60 0 -112 47 -112 106c0 133 102 244 232 244z" fill="currentColor"/>
</g>
<g transform="translate(10.1106, 39.3128)">
<path transform="scale(0.0040, -0.0040)" d="M27 41l-1 -66v-11c0 -22 1 -44 4 -66c45 38 93 80 93 139c0 33 -14 67 -43 67c-31 0 -52 -30 -53 -63zM-15 -138l-12 595c8 5 18 8 27 8s19 -3 27 -8l-7 -345c25 21 58 34 91 34c52 0 89 -48 89 -102c0 -80 -86 -117 -147 -169c-15 -13 -24 -38 -45 -38
c-13 0 -23 11 -23 25z" fill="currentColor"/>
</g>
<g transform="translate(11.0306, 37.8128)">
<path transform="scale(0.0040, -0.0040)" d="M27 41l-1 -66v-11c0 -22 1 -44 4 -66c45 38 93 80 93 139c0 33 -14 67 -43 67c-31 0 -52 -30 -53 -63zM-15 -138l-12 595c8 5 18 8 27 8s19 -3 27 -8l-7 -345c25 21 58 34 91 34c52 0 89 -48 89 -102c0 -80 -86 -117 -147 -169c-15 -13 -24 -38 -45 -38
c-13 0 -23 11 -23 25z" fill="currentColor"/>
</g>
<g transform="translate(6.4906, 40.3128)">
<path transform="scale(0.0040, -0.0040)" d="M266 -635h-6c-108 0 -195 88 -195 197c0 58 53 103 112 103c54 0 95 -47 95 -103c0 -52 -43 -95 -95 -95c-11 0 -21 2 -31 6c26 -39 68 -65 117 -65h4zM461 -203c68 24 113 95 113 164c0 90 -66 179 -173 190c24 -116 46 -231 60 -354zM74 28c0 -135 129 -247 264 -247
c28 0 55 2 82 6c-14 127 -37 245 -63 364c-79 -8 -124 -61 -124 -119c0 -44 25 -91 81 -123c5 -5 7 -10 7 -15c0 -11 -10 -22 -22 -22c-3 0 -6 1 -9 2c-80 43 -117 115 -117 185c0 88 58 174 160 197c-14 58 -29 117 -46 175c-107 -121 -213 -243 -213 -403zM335 -262
c-188 0 -333 172 -333 374c0 177 131 306 248 441c-19 62 -37 125 -45 190c-6 52 -7 104 -7 156c0 115 55 224 149 292c6 5 14 5 20 0c71 -84 133 -245 133 -358c0 -143 -86 -255 -180 -364c21 -68 39 -138 56 -207c4 0 9 1 13 1c155 0 256 -128 256 -261
c0 -76 -33 -154 -107 -210c-22 -17 -47 -28 -73 -36c3 -35 5 -70 5 -105c0 -19 -1 -39 -2 -58c-7 -119 -88 -225 -202 -228l1 43c93 2 153 92 159 191c1 18 2 37 2 55c0 31 -1 61 -4 92c-29 -5 -58 -8 -89 -8zM428 916c0 55 -4 79 -20 129c-99 -48 -162 -149 -162 -259
c0 -74 18 -133 36 -194c80 97 146 198 146 324z" fill="currentColor"/>
</g>
<g transform="translate(4.5638, 36.2380)">
<text font-family="serif" font-size="1.7461" text-anchor="start" fill="currentColor">
<tspan>5</tspan>
</text>
</g>
<g transform="translate(5.6306, 44.1103)">
<rect x="0.0000" y="-6.8475" width="0.1600" height="13.6950" ry="0.0500" fill="currentColor"/>
</g>
<g transform="translate(5.3306, 44.1103)">
<path transform="scale(0.0040, -0.0040)" d="M-195 -1197c0 279 114 552 114 816c0 141 -36 267 -135 372c-3 3 -3 6 -3 9s0 6 3 9c99 105 135 231 135 372c0 264 -114 537 -114 816c0 195 48 381 183 522c15 15 39 -9 24 -24c-102 -105 -135 -234 -135 -375c0 -261 108 -528 108 -801c0 -192 -45 -378 -177 -519
c132 -141 177 -327 177 -519c0 -273 -108 -540 -108 -801c0 -141 33 -270 135 -375c15 -15 -9 -39 -24 -24c-135 141 -183 327 -183 522z" fill="currentColor"/>
</g>
<g transform="translate(14.5228, 40.3128)">
<path transform="scale(0.0040, -0.0040)" d="M213 112c-50 0 -69 -43 -69 -88c0 -77 57 -136 134 -136c50 0 69 43 69 88c0 77 -57 136 -134 136zM491 0c0 -43 -34 -75 -72 -96c-53 -29 -114 -40 -174 -40s-120 11 -173 40c-38 21 -72 53 -72 96s34 75 72 96c53 29 113 40 173 40s121 -11 174 -40
c38 -21 72 -53 72 -96z" fill="currentColor"/>
</g>
<g transform="translate(14.5878, 39.3128)">
<rect x="-0.0650" y="0.1861" width="0.1300" height="4.4806" ry="0.0400" fill="currentColor"/>
</g>
<g transform="translate(14.5228, 48.4078)">
<path transform="scale(0.0040, -0.0040)" d="M218 136c55 0 108 -28 108 -89c0 -71 -55 -121 -102 -149c-35 -21 -75 -34 -116 -34c-55 0 -108 28 -108 89c0 71 55 121 102 149c35 21 75 34 116 34z" fill="currentColor"/>
</g>
<g transform="translate(14.5228, 49.4078)">
<path transform="scale(0.0040, -0.0040)" d="M218 136c55 0 108 -28 108 -89c0 -71 -55 -121 -102 -149c-35 -21 -75 -34 -116 -34c-55 0 -108 28 -108 89c0 71 55 121 102 149c35 21 75 34 116 34z" fill="currentColor"/>
</g>
<g transform="translate(14.5228, 50.4078)">
<path transform="scale(0.0040, -0.0040)" d="M218 136c55 0 108 -28 108 -89c0 -71 -55 -121 -102 -149c-35 -21 -75 -34 -116 -34c-55 0 -108 28 -108 89c0 71 55 121 102 149c35 21 75 34 116 34z" fill="currentColor"/>
</g>
<g transform="translate(13.2228, 49.4078)">
<path transform="scale(0.0040, -0.0040)" d="M42 278c-4 3 -6 8 -6 12c0 8 7 16 16 16c3 0 7 -1 10 -4l128 -107c8 -6 11 -13 11 -20c0 -24 -39 -51 -68 -78c-15 -14 -23 -34 -23 -53c0 -17 5 -33 17 -47l31 -25c4 -3 6 -8 6 -12c0 -8 -7 -16 -16 -16c-3 0 -7 1 -10 4l-128 107c-8 6 -11 13 -11 20c0 24 39 51 68 78
c15 14 23 34 23 53c0 17 -5 33 -17 47z" fill="currentColor"/>
</g>
<g transform="translate(13.2228, 50.4078)">
<path transform="scale(0.0040, -0.0040)" d="M42 278c-4 3 -6 8 -6 12c0 8 7 16 16 16c3 0 7 -1 10 -4l128 -107c8 -6 11 -13 11 -20c0 -24 -39 -51 -68 -78c-15 -14 -23 -34 -23 -53c0 -17 5 -33 17 -47l31 -25c4 -3 6 -8 6 -12c0 -8 -7 -16 -16 -16c-3 0 -7 1 -10 4l-128 107c-8 6 -11 13 -11 20c0 24 39 51 68 78
c15 14 23 34 23 53c0 17 -5 33 -17 47z" fill="currentColor"/>
</g>
<g color="rgb(12.2000%, 30.6000%, 47.5000%)">
<g transform="translate(14.5228, 35.0028)">
<text font-family="serif" font-weight="bold" font-size="2.2001" text-anchor="start" fill="currentColor">
<tspan>vi</tspan>
</text>
</g>
</g>
<g color="rgb(48.2000%, 16.9000%, 16.9000%)">
<g transform="translate(14.7448, 36.8028)">
<text font-family="serif" font-weight="bold" font-size="2.2001" text-anchor="start" fill="currentColor">
<tspan>ii</tspan>
</text>
</g>
</g>
<g transform="translate(32.1259, 48.9078)">
<path transform="scale(0.0040, -0.0040)" d="M42 278c-4 3 -6 8 -6 12c0 8 7 16 16 16c3 0 7 -1 10 -4l128 -107c8 -6 11 -13 11 -20c0 -24 -39 -51 -68 -78c-15 -14 -23 -34 -23 -53c0 -17 5 -33 17 -47l31 -25c4 -3 6 -8 6 -12c0 -8 -7 -16 -16 -16c-3 0 -7 1 -10 4l-128 107c-8 6 -11 13 -11 20c0 24 39 51 68 78
c15 14 23 34 23 53c0 17 -5 33 -17 47z" fill="currentColor"/>
</g>
<g transform="translate(32.1259, 49.9078)">
<path transform="scale(0.0040, -0.0040)" d="M42 278c-4 3 -6 8 -6 12c0 8 7 16 16 16c3 0 7 -1 10 -4l128 -107c8 -6 11 -13 11 -20c0 -24 -39 -51 -68 -78c-15 -14 -23 -34 -23 -53c0 -17 5 -33 17 -47l31 -25c4 -3 6 -8 6 -12c0 -8 -7 -16 -16 -16c-3 0 -7 1 -10 4l-128 107c-8 6 -11 13 -11 20c0 24 39 51 68 78
c15 14 23 34 23 53c0 17 -5 33 -17 47z" fill="currentColor"/>
</g>
<g transform="translate(14.5228, 41.3128)">
<path transform="scale(0.0040, -0.0040)" d="M213 112c-50 0 -69 -43 -69 -88c0 -77 57 -136 134 -136c50 0 69 43 69 88c0 77 -57 136 -134 136zM491 0c0 -43 -34 -75 -72 -96c-53 -29 -114 -40 -174 -40s-120 11 -173 40c-38 21 -72 53 -72 96s34 75 72 96c53 29 113 40 173 40s121 -11 174 -40
c38 -21 72 -53 72 -96z" fill="currentColor"/>
</g>
<g transform="translate(14.5228, 39.3128)">
<path transform="scale(0.0040, -0.0040)" d="M218 136c55 0 108 -28 108 -89c0 -71 -55 -121 -102 -149c-35 -21 -75 -34 -116 -34c-55 0 -108 28 -108 89c0 71 55 121 102 149c35 21 75 34 116 34z" fill="currentColor"/>
</g>
<g transform="translate(13.2228, 40.3128)">
<path transform="scale(0.0040, -0.0040)" d="M42 278c-4 3 -6 8 -6 12c0 8 7 16 16 16c3 0 7 -1 10 -4l128 -107c8 -6 11 -13 11 -20c0 -24 -39 -51 -68 -78c-15 -14 -23 -34 -23 -53c0 -17 5 -33 17 -47l31 -25c4 -3 6 -8 6 -12c0 -8 -7 -16 -16 -16c-3 0 -7 1 -10 4l-128 107c-8 6 -11 13 -11 20c0 24 39 51 68 78
c15 14 23 34 23 53c0 17 -5 33 -17 47z" fill="currentColor"/>
</g>
<g transform="translate(13.2228, 41.3128)">
<path transform="scale(0.0040, -0.0040)" d="M42 278c-4 3 -6 8 -6 12c0 8 7 16 16 16c3 0 7 -1 10 -4l128 -107c8 -6 11 -13 11 -20c0 -24 -39 -51 -68 -78c-15 -14 -23 -34 -23 -53c0 -17 5 -33 17 -47l31 -25c4 -3 6 -8 6 -12c0 -8 -7 -16 -16 -16c-3 0 -7 1 -10 4l-128 107c-8 6 -11 13 -11 20c0 24 39 51 68 78
c15 14 23 34 23 53c0 17 -5 33 -17 47z" fill="currentColor"/>
</g>
<g transform="translate(13.5205, 51.6478)">
<path transform="scale(0.0028, -0.0028)" d="M-169 -516l357 290c30 26 70 -23 39 -48l-357 -290c-30 -26 -70 23 -39 48z" fill="currentColor"/>
</g>
<g transform="translate(13.5205, 51.6478)">
<path transform="scale(0.0028, -0.0028)" d="M0 0c0 -196 207 -334 207 -530c0 -71 -15 -140 -41 -206c-5 -10 -14 -13 -23 -13c-14 0 -28 10 -28 26c0 2 1 3 1 5c26 59 42 123 42 188c0 101 -90 205 -158 280h-21v250h21z" fill="currentColor"/>
</g>
<g transform="translate(13.4555, 48.9078)">
<rect x="-0.0650" y="2.7000" width="0.1300" height="2.6856" ry="0.0400" fill="currentColor"/>
</g>
<g transform="translate(12.6026, 54.4078)">
<path transform="scale(0.0028, -0.0028)" d="M208 139c61 0 117 -33 117 -99c0 -71 -52 -119 -99 -147c-34 -20 -71 -32 -110 -32c-61 0 -116 33 -116 99c0 71 51 119 98 147c34 20 71 32 110 32z" fill="currentColor"/>
</g>
<g transform="translate(50.5488, 39.3128)">
<rect x="-0.0650" y="0.6861" width="0.1300" height="2.3103" ry="0.0400" fill="currentColor"/>
</g>
<g transform="translate(50.4838, 48.4078)">
<path transform="scale(0.0040, -0.0040)" d="M218 136c55 0 108 -28 108 -89c0 -71 -55 -121 -102 -149c-35 -21 -75 -34 -116 -34c-55 0 -108 28 -108 89c0 71 55 121 102 149c35 21 75 34 116 34z" fill="currentColor"/>
</g>
<g transform="translate(50.4838, 39.8128)">
<path transform="scale(0.0040, -0.0040)" d="M218 136c55 0 108 -28 108 -89c0 -71 -55 -121 -102 -149c-35 -21 -75 -34 -116 -34c-55 0 -108 28 -108 89c0 71 55 121 102 149c35 21 75 34 116 34z" fill="currentColor"/>
</g>
<g transform="translate(47.2051, 48.9078)">
<rect x="-0.0650" y="0.6861" width="0.1300" height="2.1123" ry="0.0400" fill="currentColor"/>
</g>
<g transform="translate(47.2051, 39.3128)">
<rect x="-0.0650" y="0.1861" width="0.1300" height="2.6274" ry="0.0400" fill="currentColor"/>
</g>
<g transform="translate(47.1401, 49.4078)">
<path transform="scale(0.0040, -0.0040)" d="M218 136c55 0 108 -28 108 -89c0 -71 -55 -121 -102 -149c-35 -21 -75 -34 -116 -34c-55 0 -108 28 -108 89c0 71 55 121 102 149c35 21 75 34 116 34z" fill="currentColor"/>
</g>
<g transform="translate(47.1401, 39.3128)">
<path transform="scale(0.0040, -0.0040)" d="M218 136c55 0 108 -28 108 -89c0 -71 -55 -121 -102 -149c-35 -21 -75 -34 -116 -34c-55 0 -108 28 -108 89c0 71 55 121 102 149c35 21 75 34 116 34z" fill="currentColor"/>
</g>
<g transform="translate(33.4909, 48.9078)">
<rect x="-0.0650" y="-0.8139" width="0.1300" height="4.8139" ry="0.0400" fill="currentColor"/>
</g>
<g transform="translate(43.2012, 48.9078)">
<rect x="-0.0650" y="-3.6667" width="0.1300" height="4.9806" ry="0.0400" fill="currentColor"/>
</g>
<g transform="translate(57.1113, 48.9078)">
<rect x="-0.0650" y="-0.3139" width="0.1300" height="2.5151" ry="0.0400" fill="currentColor"/>
</g>
<g transform="translate(57.0463, 48.4078)">
<path transform="scale(0.0040, -0.0040)" d="M218 136c55 0 108 -28 108 -89c0 -71 -55 -121 -102 -149c-35 -21 -75 -34 -116 -34c-55 0 -108 28 -108 89c0 71 55 121 102 149c35 21 75 34 116 34z" fill="currentColor"/>
</g>
<g transform="translate(53.6425, 48.9078)">
<rect x="-0.0650" y="0.6861" width="0.1300" height="2.1127" ry="0.0400" fill="currentColor"/>
</g>
<g transform="translate(53.6425, 39.3128)">
<rect x="-0.0650" y="1.2590" width="0.1300" height="2.7410" ry="0.0400" fill="currentColor"/>
</g>
<g transform="translate(53.5775, 49.4078)">
<path transform="scale(0.0040, -0.0040)" d="M218 136c55 0 108 -28 108 -89c0 -71 -55 -121 -102 -149c-35 -21 -75 -34 -116 -34c-55 0 -108 28 -108 89c0 71 55 121 102 149c35 21 75 34 116 34z" fill="currentColor"/>
</g>
<g transform="translate(53.5775, 40.3128)">
<path transform="scale(0.0040, -0.0040)" d="M314 65c0 24 -21 41 -42 41c-4 0 -8 0 -12 -1c-31 -9 -78 -40 -115 -64s-84 -53 -104 -78c-7 -8 -10 -18 -10 -28c0 -24 21 -41 42 -41c4 0 8 0 12 1c31 9 77 40 114 64s84 53 104 78c7 8 11 18 11 28zM262 136c46 0 82 -21 82 -71c0 -19 -4 -39 -10 -57
c-12 -37 -32 -72 -64 -94c-53 -36 -113 -50 -187 -50c-46 0 -83 21 -83 71c0 19 5 39 11 57c12 37 31 72 63 94c53 36 114 50 188 50z" fill="currentColor"/>
</g>
<g transform="translate(50.5488, 48.9078)">
<rect x="-0.0650" y="-0.3139" width="0.1300" height="2.5155" ry="0.0400" fill="currentColor"/>
</g>
<g transform="translate(39.4031, 50.1478)">
<path transform="scale(0.0028, -0.0028)" d="M-169 -516l357 290c30 26 70 -23 39 -48l-357 -290c-30 -26 -70 23 -39 48z" fill="currentColor"/>
</g>
<g transform="translate(39.4031, 50.1478)">
<path transform="scale(0.0028, -0.0028)" d="M0 0c0 -196 207 -334 207 -530c0 -71 -15 -140 -41 -206c-5 -10 -14 -13 -23 -13c-14 0 -28 10 -28 26c0 2 1 3 1 5c26 59 42 123 42 188c0 101 -90 205 -158 280h-21v250h21z" fill="currentColor"/>
</g>
<g transform="translate(39.3381, 48.9078)">
<rect x="-0.0650" y="1.2000" width="0.1300" height="2.6856" ry="0.0400" fill="currentColor"/>
</g>
<g transform="translate(38.4852, 52.9078)">
<path transform="scale(0.0028, -0.0028)" d="M208 139c61 0 117 -33 117 -99c0 -71 -52 -119 -99 -147c-34 -20 -71 -32 -110 -32c-61 0 -116 33 -116 99c0 71 51 119 98 147c34 20 71 32 110 32z" fill="currentColor"/>
</g>
<g transform="translate(41.9620, 38.8128)">
<path transform="scale(0.0040, -0.0040)" d="M218 136c55 0 108 -28 108 -89c0 -71 -55 -121 -102 -149c-35 -21 -75 -34 -116 -34c-55 0 -108 28 -108 89c0 71 55 121 102 149c35 21 75 34 116 34z" fill="currentColor"/>
</g>
<g transform="translate(40.6620, 49.4078)">
<path transform="scale(0.0040, -0.0040)" d="M42 278c-4 3 -6 8 -6 12c0 8 7 16 16 16c3 0 7 -1 10 -4l128 -107c8 -6 11 -13 11 -20c0 -24 -39 -51 -68 -78c-15 -14 -23 -34 -23 -53c0 -17 5 -33 17 -47l31 -25c4 -3 6 -8 6 -12c0 -8 -7 -16 -16 -16c-3 0 -7 1 -10 4l-128 107c-8 6 -11 13 -11 20c0 24 39 51 68 78
c15 14 23 34 23 53c0 17 -5 33 -17 47z" fill="currentColor"/>
</g>
<g transform="translate(40.6620, 50.4078)">
<path transform="scale(0.0040, -0.0040)" d="M42 278c-4 3 -6 8 -6 12c0 8 7 16 16 16c3 0 7 -1 10 -4l128 -107c8 -6 11 -13 11 -20c0 -24 -39 -51 -68 -78c-15 -14 -23 -34 -23 -53c0 -17 5 -33 17 -47l31 -25c4 -3 6 -8 6 -12c0 -8 -7 -16 -16 -16c-3 0 -7 1 -10 4l-128 107c-8 6 -11 13 -11 20c0 24 39 51 68 78
c15 14 23 34 23 53c0 17 -5 33 -17 47z" fill="currentColor"/>
</g>
<g color="rgb(12.2000%, 30.6000%, 47.5000%)">
<g transform="translate(41.9620, 35.0028)">
<text font-family="serif" font-weight="bold" font-size="2.2001" text-anchor="start" fill="currentColor">
<tspan>vi</tspan>
</text>
</g>
</g>
<g color="rgb(48.2000%, 16.9000%, 16.9000%)">
<g transform="translate(42.1839, 36.8028)">
<text font-family="serif" font-weight="bold" font-size="2.2001" text-anchor="start" fill="currentColor">
<tspan>ii</tspan>
</text>
</g>
</g>
<g transform="translate(41.9620, 50.4078)">
<path transform="scale(0.0040, -0.0040)" d="M218 136c55 0 108 -28 108 -89c0 -71 -55 -121 -102 -149c-35 -21 -75 -34 -116 -34c-55 0 -108 28 -108 89c0 71 55 121 102 149c35 21 75 34 116 34z" fill="currentColor"/>
</g>
<g transform="translate(41.9620, 41.3128)">
<path transform="scale(0.0040, -0.0040)" d="M213 112c-50 0 -69 -43 -69 -88c0 -77 57 -136 134 -136c50 0 69 43 69 88c0 77 -57 136 -134 136zM491 0c0 -43 -34 -75 -72 -96c-53 -29 -114 -40 -174 -40s-120 11 -173 40c-38 21 -72 53 -72 96s34 75 72 96c53 29 113 40 173 40s121 -11 174 -40
c38 -21 72 -53 72 -96z" fill="currentColor"/>
</g>
<g transform="translate(42.0270, 39.3128)">
<rect x="-0.0650" y="-0.3139" width="0.1300" height="4.9806" ry="0.0400" fill="currentColor"/>
</g>
<g transform="translate(41.9620, 48.4078)">
<path transform="scale(0.0040, -0.0040)" d="M218 136c55 0 108 -28 108 -89c0 -71 -55 -121 -102 -149c-35 -21 -75 -34 -116 -34c-55 0 -108 28 -108 89c0 71 55 121 102 149c35 21 75 34 116 34z" fill="currentColor"/>
</g>
<g transform="translate(41.9620, 49.4078)">
<path transform="scale(0.0040, -0.0040)" d="M218 136c55 0 108 -28 108 -89c0 -71 -55 -121 -102 -149c-35 -21 -75 -34 -116 -34c-55 0 -108 28 -108 89c0 71 55 121 102 149c35 21 75 34 116 34z" fill="currentColor"/>
</g>
</svg>
