<?xml version="1.0" standalone="no"?>
<!DOCTYPE svg PUBLIC "-//W3C//DTD SVG 1.1//EN"
	"http://www.w3.org/Graphics/SVG/1.1/DTD/svg11.dtd">
<svg xmlns="http://www.w3.org/2000/svg" version="1.1"
	xmlns:xlink="http://www.w3.org/1999/xlink"
	color="black"
	width="701.60px" height="468.40px" viewBox="0 0 701.60 468.40" preserveAspectRatio="xMidYMid meet">
<style type="text/css">
.fill {fill: currentColor}
.stroke {stroke: currentColor; fill: none}
text{white-space: pre}
</style>
<title>/tmp/reharm_hymnal_L2/he_who_would_valiant_be.abc (1) tune 1</title>
<!-- Creator: abcm2ps-8.14.11 -->
<!-- CreationDate: Apr 24, 2026 15:32 -->
<!-- CommandLine: /tmp/reharm_hymnal_L2/he_who_would_valiant_be.abc -g -O /tmp/reharm_hymnal_L2/he_who_would_valiant_be -->
<g stroke-width="0.70">
<!-- title: 090. He Who Would Valiant Be -->
</g>
<g stroke-width="0.70" style="font:20.00px Times">
<text x="350.80" y="22.00" text-anchor="middle">090. He Who Would Valiant Be</text>
</g>
<g stroke-width="0.70" style="font:20.00px Times">
<path class="stroke" stroke-width="1"
	d="M10.00 143.00v-82.00"/>
<defs>
<path id="brace" class="fill" d="m-2.5 101
	c-4.5 -4.6 -7.5 -12.2 -4.4 -26.8
	3.5 -14.3 3.2 -21.7 -2.1 -24.2
	7.4 2.4 7.3 14.2 3.5 29.5
	-2.7 9.5 -1.5 16.2 3 21.5
	M-2.5 1c-4.5 4.6 -7.5 12.2 -4.4 26.8
	c3.5 14.3 3.2 21.7 -2.1 24.2
	7.4 -2.4 7.3 -14.2 3.5 -29.5
	-2.7 -9.5 -1.5 -16.2 3 -21.5"/>
</defs>
<g transform="translate(10.00,61.00) scale(1,0.82)">
	<use xlink:href="#brace"/>
</g>
<path class="stroke" stroke-width="1"
	d="M196.70 85.00v-24.00"/>
<path class="stroke" stroke-width="1"
	d="M196.70 143.00v-24.00"/>
<path class="stroke" stroke-width="1"
	d="M330.70 85.00v-24.00"/>
<path class="stroke" stroke-width="1"
	d="M330.70 143.00v-24.00"/>
<path class="stroke" stroke-width="1"
	d="M446.30 85.00v-24.00"/>
<path class="stroke" stroke-width="1"
	d="M446.30 143.00v-24.00"/>
<path class="stroke" stroke-width="1"
	d="M558.40 85.00v-24.00"/>
<path class="stroke" stroke-width="1"
	d="M558.40 143.00v-24.00"/>
<path class="stroke" stroke-width="1"
	d="M691.60 85.00v-24.00"/>
<path class="stroke" stroke-width="1"
	d="M691.60 143.00v-24.00"/>
<path d="m10.00 85.00
	h681.60
	M10.00 79.00
	h681.60
	M10.00 73.00
	h681.60
	M10.00 67.00
	h681.60
	M10.00 61.00
	h681.60
	" class="stroke"/>
<path d="m10.00 143.00
	h681.60
	M10.00 137.00
	h681.60
	M10.00 131.00
	h681.60
	M10.00 125.00
	h681.60
	M10.00 119.00
	h681.60
	" class="stroke"/>
</g>
<g stroke-width="0.70" style="font:bold 13.00px Times">
<text x="86.30" y="56.40">I<tspan
	 style="font:italic 11.00px Times">Δ⁷</tspan></text>
</g>
<g stroke-width="0.70" style="font:bold 13.00px Times">
<text x="201.20" y="51.40">vi<tspan
	 style="font:italic 11.00px Times">m⁷</tspan></text>
</g>
<g stroke-width="0.70" style="font:bold 13.00px Times">
<text x="347.90" y="48.40">V<tspan
	 style="font:italic 11.00px Times">⁷³</tspan></text>
</g>
<g stroke-width="0.70" style="font:bold 13.00px Times">
<text x="465.60" y="56.40">I<tspan
	 style="font:italic 11.00px Times">Δ⁷</tspan></text>
</g>
<g stroke-width="0.70" style="font:bold 13.00px Times">
<text x="565.20" y="54.40">I<tspan
	 style="font:italic 11.00px Times">Δ⁷</tspan></text>
</g>
<g stroke-width="0.70" style="font:italic 11.00px Times">
<defs>
<path id="utclef" class="fill" d="m-50 -90
	c-72 -41 -72 -158 52 -188
	150 -10 220 188 90 256
	-114 52 -275 0 -293 -136
	-15 -181 93 -229 220 -334
	88 -87 79 -133 62 -210
	-51 33 -94 105 -89 186
	17 267 36 374 49 574
	6 96 -19 134 -77 135
	-80 1 -126 -93 -61 -133
	85 -41 133 101 31 105
	23 17 92 37 90 -92
	-10 -223 -39 -342 -50 -617
	0 -90 0 -162 96 -232
	56 72 63 230 22 289
	-74 106 -257 168 -255 316
	9 153 148 185 252 133
	86 -65 29 -192 -80 -176
	-71 12 -105 67 -59 124"/>
<use id="tclef" transform="translate(0,6) scale(0.045)"
	xlink:href="#utclef"/>
</defs>
<use x="22.00" y="79.00" xlink:href="#tclef"/>
<defs>
<path id="usharp" class="fill" d="
	m136 -702
	v890
	h32
	v-890
	m128 840
	h32
	v-888
	h-32
	m-232 286
	v116
	l338 -96
	v-116
	m-338 442
	v116
	l338 -98
	v-114"/>
<use id="sh0" transform="translate(-4,5) scale(0.018)"
	xlink:href="#usharp"/>
</defs>
<use x="37.00" y="61.00" xlink:href="#sh0"/>
<use x="42.50" y="70.00" xlink:href="#sh0"/>
<g style="font:bold 16px serif"
	transform="translate(58.50,84.50) scale(1.2,1)">
	<text text-anchor="middle">4</text>
	<text y="-12" text-anchor="middle">4</text>
</g>
<defs>
<ellipse id="hd" rx="4.1" ry="2.9"
	transform="rotate(-20)" class="fill"/>
</defs>
<use x="92.00" y="88.00" xlink:href="#hd"/>
<circle class="fill" cx="99.70" cy="88.00" r="1.2"/>
<path d="M95.50 88.00v-21.00" class="stroke"/>
<use x="125.60" y="85.00" xlink:href="#hd"/>
<path d="M129.10 85.00v-21.00" class="stroke"/>
<path class="fill"
	d="M129.10 64.00c0.6 5.6 9.6 9 5.6 18.4
	1.6 -6 -1.3 -11.6 -5.6 -12.8
"/>
<use x="146.80" y="82.00" xlink:href="#hd"/>
<path d="M150.30 82.00v-21.00" class="stroke"/>
<use x="175.80" y="88.00" xlink:href="#hd"/>
<path d="M179.30 88.00v-21.00" class="stroke"/>
<use x="209.20" y="82.00" xlink:href="#hd"/>
<path d="M212.70 82.00v-21.00" class="stroke"/>
<path class="fill"
	d="M212.70 61.00c0.6 5.6 9.6 9 5.6 18.4
	1.6 -6 -1.3 -11.6 -5.6 -12.8
"/>
<use x="230.40" y="79.00" xlink:href="#hd"/>
<path d="M233.90 79.00v-21.00" class="stroke"/>
<path class="fill"
	d="M233.90 58.00c0.6 5.6 9.6 9 5.6 18.4
	1.6 -6 -1.3 -11.6 -5.6 -12.8
"/>
<use x="251.60" y="76.00" xlink:href="#hd"/>
<path d="M255.10 76.00v-21.00" class="stroke"/>
<defs>
<path id="Hd" class="fill" d="m3 -1.6
	c-1 -1.8 -7 1.4 -6 3.2
	1 1.8 7 -1.4 6 -3.2
	m0.5 -0.3
	c2 3.8 -5 7.6 -7 3.8
	-2 -3.8 5 -7.6 7 -3.8"/>
</defs>
<use x="280.80" y="73.00" xlink:href="#Hd"/>
<path d="M284.30 73.00v-21.00" class="stroke"/>
<use x="355.70" y="76.00" xlink:href="#Hd"/>
<path d="M359.20 76.00v-21.00" class="stroke"/>
<use x="396.40" y="76.00" xlink:href="#hd"/>
<path d="M399.90 76.00v-21.00" class="stroke"/>
<use x="425.40" y="88.00" xlink:href="#hd"/>
<path d="M428.90 88.00v-21.00" class="stroke"/>
<defs>
<path id="hl" class="stroke" d="m-6 0h12"/>
</defs>
<use x="471.30" y="91.00" xlink:href="#hl"/>
<use x="471.30" y="91.00" xlink:href="#hd"/>
<path d="M474.80 91.00v-21.00" class="stroke"/>
<use x="500.30" y="88.00" xlink:href="#hd"/>
<path d="M503.80 88.00v-21.00" class="stroke"/>
<use x="529.30" y="88.00" xlink:href="#Hd"/>
<path d="M532.80 88.00v-21.00" class="stroke"/>
<use x="570.90" y="88.00" xlink:href="#hd"/>
<circle class="fill" cx="578.60" cy="88.00" r="1.2"/>
<path d="M574.40 88.00v-21.00" class="stroke"/>
<use x="620.50" y="85.00" xlink:href="#hd"/>
<path d="M624.00 85.00v-21.00" class="stroke"/>
<path class="fill"
	d="M624.00 64.00c0.6 5.6 9.6 9 5.6 18.4
	1.6 -6 -1.3 -11.6 -5.6 -12.8
"/>
<use x="641.70" y="82.00" xlink:href="#hd"/>
<path d="M645.20 82.00v-21.00" class="stroke"/>
<use x="670.70" y="88.00" xlink:href="#hd"/>
<path d="M674.20 88.00v-21.00" class="stroke"/>
<defs>
<path id="ubclef" class="fill" d="m-200 -87
	c124 -35 222 -78 254 -236
	43 -228 -167 -246 -192 -103
	59 -80 157 22 92 78
	-62 47 -115 -22 -106 -88
	21 -141 270 -136 274 52
	-1 175 -106 264 -322 297
	m357 -250
	c0 -36 51 -34 51 0
	0 37 -51 36 -51 0
	m-2 -129
	c0 -36 51 -34 51 0
	0 38 -51 37 -51 0"/>
<use id="bclef" transform="translate(0,18) scale(0.045)"
	xlink:href="#ubclef"/>
</defs>
<use x="22.00" y="125.00" xlink:href="#bclef"/>
<use x="37.00" y="125.00" xlink:href="#sh0"/>
<use x="42.50" y="134.00" xlink:href="#sh0"/>
<g style="font:bold 16px serif"
	transform="translate(58.50,142.50) scale(1.2,1)">
	<text text-anchor="middle">4</text>
	<text y="-12" text-anchor="middle">4</text>
</g>
<defs>
<path id="hl1" class="stroke" d="m-7 0h14"/>
</defs>
<use x="93.00" y="149.00" xlink:href="#hl1"/>
<use x="93.00" y="155.00" xlink:href="#hl1"/>
<use x="93.00" y="161.00" xlink:href="#hl1"/>
<use x="93.00" y="167.00" xlink:href="#hl1"/>
<use x="93.00" y="173.00" xlink:href="#hl1"/>
<defs>
<path id="HD" class="fill" d="m-2.7 -1.4
	c1.5 -2.8 6.9 0 5.3 2.7
	-1.5 2.8 -6.9 0 -5.3 -2.7
	m8.3 1.4
	c0 -1.5 -2.2 -3 -5.6 -3
	-3.4 0 -5.6 1.5 -5.6 3
	0 1.5 2.2 3 5.6 3
	3.4 0 5.6 -1.5 5.6 -3"/>
</defs>
<use x="93.00" y="173.00" xlink:href="#HD"/>
<use x="93.00" y="152.00" xlink:href="#HD"/>
<use x="93.00" y="146.00" xlink:href="#HD"/>
<use x="93.00" y="140.00" xlink:href="#HD"/>
<use x="93.00" y="134.00" xlink:href="#HD"/>
<use x="209.20" y="137.00" xlink:href="#hd"/>
<path d="M212.70 137.00v-21.00" class="stroke"/>
<use x="251.60" y="131.00" xlink:href="#hd"/>
<path d="M255.10 131.00v-21.00" class="stroke"/>
<use x="280.80" y="125.00" xlink:href="#hd"/>
<path d="M277.30 125.00v21.00" class="stroke"/>
<use x="309.80" y="119.00" xlink:href="#hd"/>
<path d="M306.30 119.00v21.00" class="stroke"/>
<use x="356.70" y="149.00" xlink:href="#hl1"/>
<use x="356.70" y="155.00" xlink:href="#hl1"/>
<use x="356.70" y="161.00" xlink:href="#hl1"/>
<use x="356.70" y="161.00" xlink:href="#HD"/>
<use x="356.70" y="140.00" xlink:href="#HD"/>
<use x="356.70" y="134.00" xlink:href="#HD"/>
<use x="356.70" y="128.00" xlink:href="#HD"/>
<use x="356.70" y="122.00" xlink:href="#HD"/>
<use x="472.30" y="149.00" xlink:href="#hl1"/>
<use x="472.30" y="155.00" xlink:href="#hl1"/>
<use x="472.30" y="161.00" xlink:href="#hl1"/>
<use x="472.30" y="167.00" xlink:href="#hl1"/>
<use x="472.30" y="173.00" xlink:href="#hl1"/>
<use x="472.30" y="173.00" xlink:href="#HD"/>
<use x="472.30" y="152.00" xlink:href="#HD"/>
<use x="472.30" y="146.00" xlink:href="#HD"/>
<use x="472.30" y="140.00" xlink:href="#HD"/>
<use x="472.30" y="134.00" xlink:href="#HD"/>
<use x="570.90" y="149.00" xlink:href="#hl"/>
<use x="570.90" y="152.00" xlink:href="#hd"/>
<path d="M574.40 152.00v-21.00" class="stroke"/>
<use x="599.90" y="146.00" xlink:href="#hd"/>
<path d="M603.40 146.00v-21.00" class="stroke"/>
<use x="641.70" y="140.00" xlink:href="#hd"/>
<path d="M645.20 140.00v-21.00" class="stroke"/>
<use x="670.70" y="134.00" xlink:href="#hd"/>
<path d="M674.20 134.00v-21.00" class="stroke"/>
<defs>
<path id="ltr" class="fill"
    d="m0 -0.4c2 -1.5 3.4 -1.9 3.9 0.4
	c0.2 0.8 0.7 0.7 2.1 -0.4
	v0.8c-2 1.5 -3.4 1.9 -3.9 -0.4
	c-0.2 -0.8 -0.7 -0.7 -2.1 0.4z"/>
</defs>
<g transform="rotate(270)">
<use x="-176.00" y="79.50" xlink:href="#ltr"/>
<use x="-170.00" y="79.50" xlink:href="#ltr"/>
<use x="-164.00" y="79.50" xlink:href="#ltr"/>
<use x="-158.00" y="79.50" xlink:href="#ltr"/>
<use x="-152.00" y="79.50" xlink:href="#ltr"/>
<use x="-146.00" y="79.50" xlink:href="#ltr"/>
<use x="-140.00" y="79.50" xlink:href="#ltr"/>
<use x="-134.00" y="79.50" xlink:href="#ltr"/>
</g>
<g transform="rotate(270)">
<use x="-164.00" y="343.20" xlink:href="#ltr"/>
<use x="-158.00" y="343.20" xlink:href="#ltr"/>
<use x="-152.00" y="343.20" xlink:href="#ltr"/>
<use x="-146.00" y="343.20" xlink:href="#ltr"/>
<use x="-140.00" y="343.20" xlink:href="#ltr"/>
<use x="-134.00" y="343.20" xlink:href="#ltr"/>
<use x="-128.00" y="343.20" xlink:href="#ltr"/>
<use x="-122.00" y="343.20" xlink:href="#ltr"/>
</g>
<g transform="rotate(270)">
<use x="-176.00" y="458.80" xlink:href="#ltr"/>
<use x="-170.00" y="458.80" xlink:href="#ltr"/>
<use x="-164.00" y="458.80" xlink:href="#ltr"/>
<use x="-158.00" y="458.80" xlink:href="#ltr"/>
<use x="-152.00" y="458.80" xlink:href="#ltr"/>
<use x="-146.00" y="458.80" xlink:href="#ltr"/>
<use x="-140.00" y="458.80" xlink:href="#ltr"/>
<use x="-134.00" y="458.80" xlink:href="#ltr"/>
</g>
</g>
<g stroke-width="0.70" style="font:italic 11.00px Times">
<path class="stroke" stroke-width="1"
	d="M10.00 284.00v-82.00"/>
<g transform="translate(10.00,202.00) scale(1,0.82)">
	<use xlink:href="#brace"/>
</g>
<path class="stroke" stroke-width="1"
	d="M181.50 226.00v-24.00"/>
<path class="stroke" stroke-width="1"
	d="M181.50 284.00v-24.00"/>
<path class="stroke" stroke-width="1"
	d="M297.10 226.00v-24.00"/>
<path class="stroke" stroke-width="1"
	d="M297.10 284.00v-24.00"/>
<path class="stroke" stroke-width="1"
	d="M409.10 226.00v-24.00"/>
<path class="stroke" stroke-width="1"
	d="M409.10 284.00v-24.00"/>
<path class="stroke" stroke-width="1"
	d="M529.90 226.00v-24.00"/>
<path class="stroke" stroke-width="1"
	d="M529.90 284.00v-24.00"/>
<path class="stroke" stroke-width="1"
	d="M691.60 226.00v-24.00"/>
<path class="stroke" stroke-width="1"
	d="M691.60 284.00v-24.00"/>
<path d="m10.00 226.00
	h681.60
	M10.00 220.00
	h681.60
	M10.00 214.00
	h681.60
	M10.00 208.00
	h681.60
	M10.00 202.00
	h681.60
	" class="stroke"/>
<path d="m10.00 284.00
	h681.60
	M10.00 278.00
	h681.60
	M10.00 272.00
	h681.60
	M10.00 266.00
	h681.60
	M10.00 260.00
	h681.60
	" class="stroke"/>
</g>
<g stroke-width="0.70" style="font:bold 13.00px Times">
<text x="52.50" y="192.40">vi<tspan
	 style="font:italic 11.00px Times">m⁷</tspan></text>
</g>
<g stroke-width="0.70" style="font:bold 13.00px Times">
<text x="198.70" y="189.40">V<tspan
	 style="font:italic 11.00px Times">⁷³</tspan></text>
</g>
<g stroke-width="0.70" style="font:bold 13.00px Times">
<text x="316.40" y="197.40">I<tspan
	 style="font:italic 11.00px Times">Δ⁷</tspan></text>
</g>
<g stroke-width="0.70" style="font:bold 13.00px Times">
<text x="416.40" y="189.40">I<tspan
	 style="font:italic 11.00px Times">Δ⁷</tspan></text>
</g>
<g stroke-width="0.70" style="font:bold 13.00px Times">
<text x="534.40" y="195.40">ii<tspan
	 style="font:italic 11.00px Times">m⁷</tspan></text>
</g>
<g stroke-width="0.70" style="font:italic 11.00px Times">
<use x="22.00" y="220.00" xlink:href="#tclef"/>
<use x="37.00" y="202.00" xlink:href="#sh0"/>
<use x="42.50" y="211.00" xlink:href="#sh0"/>
<use x="60.50" y="223.00" xlink:href="#hd"/>
<path d="M64.00 223.00v-21.00" class="stroke"/>
<path class="fill"
	d="M64.00 202.00c0.6 5.6 9.6 9 5.6 18.4
	1.6 -6 -1.3 -11.6 -5.6 -12.8
"/>
<use x="81.60" y="220.00" xlink:href="#hd"/>
<path d="M85.10 220.00v-21.00" class="stroke"/>
<path class="fill"
	d="M85.10 199.00c0.6 5.6 9.6 9 5.6 18.4
	1.6 -6 -1.3 -11.6 -5.6 -12.8
"/>
<use x="102.60" y="217.00" xlink:href="#hd"/>
<path d="M106.10 217.00v-21.00" class="stroke"/>
<use x="131.80" y="214.00" xlink:href="#Hd"/>
<path d="M135.30 214.00v-21.00" class="stroke"/>
<use x="206.50" y="217.00" xlink:href="#Hd"/>
<path d="M210.00 217.00v-21.00" class="stroke"/>
<use x="247.30" y="217.00" xlink:href="#hd"/>
<path d="M250.80 217.00v-21.00" class="stroke"/>
<use x="276.30" y="229.00" xlink:href="#hd"/>
<path d="M279.80 229.00v-21.00" class="stroke"/>
<use x="322.10" y="232.00" xlink:href="#hl"/>
<use x="322.10" y="232.00" xlink:href="#hd"/>
<path d="M325.60 232.00v-21.00" class="stroke"/>
<use x="351.10" y="229.00" xlink:href="#hd"/>
<path d="M354.60 229.00v-21.00" class="stroke"/>
<use x="380.10" y="229.00" xlink:href="#Hd"/>
<path d="M383.60 229.00v-21.00" class="stroke"/>
<use x="422.10" y="217.00" xlink:href="#Hd"/>
<path d="M425.60 217.00v-21.00" class="stroke"/>
<use x="480.10" y="208.00" xlink:href="#hd"/>
<path d="M476.60 208.00v21.00" class="stroke"/>
<use x="509.10" y="214.00" xlink:href="#hd"/>
<path d="M505.60 214.00v21.00" class="stroke"/>
<use x="542.40" y="211.00" xlink:href="#hd"/>
<path d="M538.90 211.00v21.00" class="stroke"/>
<use x="571.40" y="208.00" xlink:href="#hd"/>
<path d="M567.90 208.00v21.00" class="stroke"/>
<path class="fill"
	d="M567.90 229.00c0.6 -5.6 9.6 -9 5.6 -18.4
	1.6 6 -1.3 11.6 -5.6 12.8
"/>
<use x="592.10" y="211.00" xlink:href="#hd"/>
<path d="M588.60 211.00v21.00" class="stroke"/>
<path class="fill"
	d="M588.60 232.00c0.6 -5.6 9.6 -9 5.6 -18.4
	1.6 6 -1.3 11.6 -5.6 12.8
"/>
<use x="612.80" y="214.00" xlink:href="#Hd"/>
<circle class="fill" cx="621.50" cy="211.00" r="1.2"/>
<path d="M609.30 214.00v21.00" class="stroke"/>
<use x="22.00" y="266.00" xlink:href="#bclef"/>
<use x="37.00" y="266.00" xlink:href="#sh0"/>
<use x="42.50" y="275.00" xlink:href="#sh0"/>
<use x="60.50" y="278.00" xlink:href="#hd"/>
<path d="M64.00 278.00v-21.00" class="stroke"/>
<use x="102.60" y="272.00" xlink:href="#hd"/>
<path d="M106.10 272.00v-21.00" class="stroke"/>
<use x="131.80" y="266.00" xlink:href="#hd"/>
<path d="M128.30 266.00v21.00" class="stroke"/>
<use x="160.80" y="260.00" xlink:href="#hd"/>
<path d="M157.30 260.00v21.00" class="stroke"/>
<use x="207.50" y="290.00" xlink:href="#hl1"/>
<use x="207.50" y="296.00" xlink:href="#hl1"/>
<use x="207.50" y="302.00" xlink:href="#hl1"/>
<use x="207.50" y="302.00" xlink:href="#HD"/>
<use x="207.50" y="281.00" xlink:href="#HD"/>
<use x="207.50" y="275.00" xlink:href="#HD"/>
<use x="207.50" y="269.00" xlink:href="#HD"/>
<use x="207.50" y="263.00" xlink:href="#HD"/>
<use x="323.10" y="290.00" xlink:href="#hl1"/>
<use x="323.10" y="296.00" xlink:href="#hl1"/>
<use x="323.10" y="302.00" xlink:href="#hl1"/>
<use x="323.10" y="308.00" xlink:href="#hl1"/>
<use x="323.10" y="314.00" xlink:href="#hl1"/>
<use x="323.10" y="314.00" xlink:href="#HD"/>
<use x="323.10" y="293.00" xlink:href="#HD"/>
<use x="323.10" y="287.00" xlink:href="#HD"/>
<use x="323.10" y="281.00" xlink:href="#HD"/>
<use x="323.10" y="275.00" xlink:href="#HD"/>
<use x="422.10" y="290.00" xlink:href="#hl"/>
<use x="422.10" y="293.00" xlink:href="#hd"/>
<path d="M425.60 293.00v-21.00" class="stroke"/>
<use x="451.10" y="287.00" xlink:href="#hd"/>
<path d="M454.60 287.00v-21.00" class="stroke"/>
<use x="480.10" y="281.00" xlink:href="#hd"/>
<path d="M483.60 281.00v-21.00" class="stroke"/>
<use x="509.10" y="275.00" xlink:href="#hd"/>
<path d="M512.60 275.00v-21.00" class="stroke"/>
<use x="542.40" y="290.00" xlink:href="#hl"/>
<use x="542.40" y="290.00" xlink:href="#hd"/>
<path d="M545.90 290.00v-21.00" class="stroke"/>
<use x="571.40" y="284.00" xlink:href="#hd"/>
<path d="M574.90 284.00v-21.00" class="stroke"/>
<use x="612.80" y="278.00" xlink:href="#hd"/>
<path d="M616.30 278.00v-21.00" class="stroke"/>
<use x="641.80" y="272.00" xlink:href="#hd"/>
<path d="M645.30 272.00v-21.00" class="stroke"/>
<use x="670.80" y="278.00" xlink:href="#hd"/>
<path d="M674.30 278.00v-21.00" class="stroke"/>
<g transform="rotate(270)">
<use x="-305.00" y="194.00" xlink:href="#ltr"/>
<use x="-299.00" y="194.00" xlink:href="#ltr"/>
<use x="-293.00" y="194.00" xlink:href="#ltr"/>
<use x="-287.00" y="194.00" xlink:href="#ltr"/>
<use x="-281.00" y="194.00" xlink:href="#ltr"/>
<use x="-275.00" y="194.00" xlink:href="#ltr"/>
<use x="-269.00" y="194.00" xlink:href="#ltr"/>
<use x="-263.00" y="194.00" xlink:href="#ltr"/>
</g>
<g transform="rotate(270)">
<use x="-317.00" y="309.60" xlink:href="#ltr"/>
<use x="-311.00" y="309.60" xlink:href="#ltr"/>
<use x="-305.00" y="309.60" xlink:href="#ltr"/>
<use x="-299.00" y="309.60" xlink:href="#ltr"/>
<use x="-293.00" y="309.60" xlink:href="#ltr"/>
<use x="-287.00" y="309.60" xlink:href="#ltr"/>
<use x="-281.00" y="309.60" xlink:href="#ltr"/>
<use x="-275.00" y="309.60" xlink:href="#ltr"/>
</g>
</g>
<g stroke-width="0.70" style="font:italic 11.00px Times">
<path class="stroke" stroke-width="1"
	d="M10.00 427.40v-82.00"/>
<g transform="translate(10.00,345.40) scale(1,0.82)">
	<use xlink:href="#brace"/>
</g>
<path class="stroke" stroke-width="1"
	d="M161.10 369.40v-24.00"/>
<path class="stroke" stroke-width="1"
	d="M161.10 427.40v-24.00"/>
<path class="stroke" stroke-width="1"
	d="M296.90 369.40v-24.00"/>
<path class="stroke" stroke-width="1"
	d="M296.90 427.40v-24.00"/>
<path class="stroke" stroke-width="1"
	d="M397.50 369.40v-24.00"/>
<path class="stroke" stroke-width="1"
	d="M397.50 427.40v-24.00"/>
<path class="stroke" stroke-width="1"
	d="M536.00 369.40v-24.00"/>
<path class="stroke" stroke-width="1"
	d="M536.00 427.40v-24.00"/>
<path class="stroke" stroke-width="1"
	d="M675.60 369.40v-24.00"/>
<path class="stroke" stroke-width="1"
	d="M675.60 427.40v-24.00"/>
<path class="stroke" stroke-width="1"
	d="M691.60 369.40v-24.00"/>
<path class="stroke" stroke-width="1"
	d="M691.60 427.40v-24.00"/>
<path d="m10.00 369.40
	h681.60
	M10.00 363.40
	h681.60
	M10.00 357.40
	h681.60
	M10.00 351.40
	h681.60
	M10.00 345.40
	h681.60
	" class="stroke"/>
<path d="m10.00 427.40
	h681.60
	M10.00 421.40
	h681.60
	M10.00 415.40
	h681.60
	M10.00 409.40
	h681.60
	M10.00 403.40
	h681.60
	" class="stroke"/>
</g>
<g stroke-width="0.70" style="font:bold 13.00px Times">
<text x="67.00" y="332.80">IV<tspan
	 style="font:italic 11.00px Times">Δ⁷¹</tspan></text>
</g>
<g stroke-width="0.70" style="font:bold 13.00px Times">
<text x="180.40" y="338.80">I<tspan
	 style="font:italic 11.00px Times">Δ⁷</tspan></text>
</g>
<g stroke-width="0.70" style="font:bold 13.00px Times">
<text x="301.60" y="338.80">V<tspan
	 style="font:italic 11.00px Times">⁷³</tspan></text>
</g>
<g stroke-width="0.70" style="font:bold 13.00px Times">
<text x="402.00" y="329.80">IV<tspan
	 style="font:italic 11.00px Times">Δ⁷</tspan></text>
</g>
<g stroke-width="0.70" style="font:bold 13.00px Times">
<text x="540.90" y="332.80">I<tspan
	 style="font:italic 11.00px Times">Δ⁷¹</tspan></text>
</g>
<g stroke-width="0.70" style="font:italic 11.00px Times">
<use x="22.00" y="363.40" xlink:href="#tclef"/>
<use x="37.00" y="345.40" xlink:href="#sh0"/>
<use x="42.50" y="354.40" xlink:href="#sh0"/>
<use x="75.00" y="360.40" xlink:href="#hd"/>
<path d="M78.50 360.40v-21.00" class="stroke"/>
<use x="101.90" y="366.40" xlink:href="#hd"/>
<path d="M105.40 366.40v-21.00" class="stroke"/>
<path class="fill"
	d="M105.40 345.40c0.6 5.6 9.6 9 5.6 18.4
	1.6 -6 -1.3 -11.6 -5.6 -12.8
"/>
<use x="121.70" y="369.40" xlink:href="#hd"/>
<path d="M125.20 369.40v-21.00" class="stroke"/>
<path class="fill"
	d="M125.20 348.40c0.6 5.6 9.6 9 5.6 18.4
	1.6 -6 -1.3 -11.6 -5.6 -12.8
"/>
<use x="141.60" y="372.40" xlink:href="#hd"/>
<path d="M145.10 372.40v-21.00" class="stroke"/>
<use x="186.10" y="366.40" xlink:href="#hd"/>
<path d="M189.60 366.40v-21.00" class="stroke"/>
<use x="213.00" y="363.40" xlink:href="#hd"/>
<path d="M216.50 363.40v-21.00" class="stroke"/>
<use x="239.90" y="360.40" xlink:href="#Hd"/>
<circle class="fill" cx="248.60" cy="360.40" r="1.2"/>
<path d="M243.40 360.40v-21.00" class="stroke"/>
<use x="309.40" y="351.40" xlink:href="#hd"/>
<path d="M305.90 351.40v21.00" class="stroke"/>
<use x="336.30" y="360.40" xlink:href="#hd"/>
<circle class="fill" cx="344.00" cy="360.40" r="1.2"/>
<path d="M339.80 360.40v-21.00" class="stroke"/>
<use x="380.50" y="360.40" xlink:href="#hd"/>
<path d="M384.00 360.40v-21.00" class="stroke"/>
<path class="fill"
	d="M384.00 339.40c0.6 5.6 9.6 9 5.6 18.4
	1.6 -6 -1.3 -11.6 -5.6 -12.8
"/>
<use x="410.00" y="357.40" xlink:href="#hd"/>
<path d="M413.50 357.40v-21.00" class="stroke"/>
<path class="fill"
	d="M413.50 336.40c0.6 5.6 9.6 9 5.6 18.4
	1.6 -6 -1.3 -11.6 -5.6 -12.8
"/>
<use x="429.80" y="360.40" xlink:href="#hd"/>
<path d="M433.30 360.40v-21.00" class="stroke"/>
<path class="fill"
	d="M433.30 339.40c0.6 5.6 9.6 9 5.6 18.4
	1.6 -6 -1.3 -11.6 -5.6 -12.8
"/>
<use x="449.70" y="363.40" xlink:href="#hd"/>
<path d="M453.20 363.40v-21.00" class="stroke"/>
<path class="fill"
	d="M453.20 342.40c0.6 5.6 9.6 9 5.6 18.4
	1.6 -6 -1.3 -11.6 -5.6 -12.8
"/>
<use x="469.50" y="366.40" xlink:href="#hd"/>
<path d="M473.00 366.40v-21.00" class="stroke"/>
<path class="fill"
	d="M473.00 345.40c0.6 5.6 9.6 9 5.6 18.4
	1.6 -6 -1.3 -11.6 -5.6 -12.8
"/>
<use x="489.40" y="369.40" xlink:href="#hd"/>
<path d="M492.90 369.40v-21.00" class="stroke"/>
<use x="516.50" y="357.40" xlink:href="#hd"/>
<path d="M520.00 357.40v-21.00" class="stroke"/>
<use x="548.50" y="360.40" xlink:href="#hd"/>
<path d="M552.00 360.40v-21.00" class="stroke"/>
<use x="575.40" y="372.40" xlink:href="#hd"/>
<path d="M578.90 372.40v-21.00" class="stroke"/>
<use x="602.30" y="375.40" xlink:href="#hl"/>
<use x="602.30" y="375.40" xlink:href="#hd"/>
<path d="M605.80 375.40v-21.00" class="stroke"/>
<use x="629.20" y="372.40" xlink:href="#Hd"/>
<path d="M632.70 372.40v-21.00" class="stroke"/>
<use x="22.00" y="409.40" xlink:href="#bclef"/>
<use x="37.00" y="409.40" xlink:href="#sh0"/>
<use x="42.50" y="418.40" xlink:href="#sh0"/>
<use x="75.00" y="433.40" xlink:href="#hl"/>
<use x="75.00" y="439.40" xlink:href="#hl"/>
<use x="75.00" y="445.40" xlink:href="#hl"/>
<use x="75.00" y="448.40" xlink:href="#Hd"/>
<circle class="fill" cx="84.70" cy="448.40" r="1.2"/>
<path d="M78.50 448.40v-58.00" class="stroke"/>
<use x="75.00" y="427.40" xlink:href="#Hd"/>
<circle class="fill" cx="84.70" cy="424.40" r="1.2"/>
<use x="75.00" y="421.40" xlink:href="#Hd"/>
<circle class="fill" cx="84.70" cy="418.40" r="1.2"/>
<use x="75.00" y="415.40" xlink:href="#Hd"/>
<circle class="fill" cx="84.70" cy="412.40" r="1.2"/>
<use x="75.00" y="409.40" xlink:href="#Hd"/>
<circle class="fill" cx="84.70" cy="406.40" r="1.2"/>
<use x="187.10" y="433.40" xlink:href="#hl1"/>
<use x="187.10" y="439.40" xlink:href="#hl1"/>
<use x="187.10" y="445.40" xlink:href="#hl1"/>
<use x="187.10" y="451.40" xlink:href="#hl1"/>
<use x="187.10" y="457.40" xlink:href="#hl1"/>
<use x="187.10" y="457.40" xlink:href="#HD"/>
<use x="187.10" y="436.40" xlink:href="#HD"/>
<use x="187.10" y="430.40" xlink:href="#HD"/>
<use x="187.10" y="424.40" xlink:href="#HD"/>
<use x="187.10" y="418.40" xlink:href="#HD"/>
<use x="277.10" y="433.40" xlink:href="#hl"/>
<use x="277.10" y="439.40" xlink:href="#hl"/>
<use x="277.10" y="445.40" xlink:href="#hl"/>
<use x="277.10" y="451.40" xlink:href="#hl"/>
<use x="277.10" y="457.40" xlink:href="#hl"/>
<use x="277.10" y="457.40" xlink:href="#hd"/>
<path d="M280.60 457.40v-58.00" class="stroke"/>
<use x="277.10" y="436.40" xlink:href="#hd"/>
<use x="277.10" y="430.40" xlink:href="#hd"/>
<use x="277.10" y="424.40" xlink:href="#hd"/>
<use x="277.10" y="418.40" xlink:href="#hd"/>
<use x="309.40" y="424.40" xlink:href="#hd"/>
<path d="M312.90 424.40v-21.00" class="stroke"/>
<use x="336.30" y="418.40" xlink:href="#hd"/>
<path d="M339.80 418.40v-21.00" class="stroke"/>
<use x="363.50" y="412.40" xlink:href="#hd"/>
<path d="M360.00 412.40v21.00" class="stroke"/>
<use x="410.00" y="427.40" xlink:href="#hd"/>
<path d="M413.50 427.40v-21.00" class="stroke"/>
<use x="449.70" y="421.40" xlink:href="#hd"/>
<path d="M453.20 421.40v-21.00" class="stroke"/>
<use x="489.40" y="415.40" xlink:href="#hd"/>
<path d="M492.90 415.40v-21.00" class="stroke"/>
<use x="516.50" y="409.40" xlink:href="#hd"/>
<path d="M513.00 409.40v21.00" class="stroke"/>
<use x="548.50" y="433.40" xlink:href="#hl"/>
<use x="548.50" y="436.40" xlink:href="#hd"/>
<path d="M552.00 436.40v-21.00" class="stroke"/>
<use x="575.40" y="430.40" xlink:href="#hd"/>
<path d="M578.90 430.40v-21.00" class="stroke"/>
<use x="602.30" y="424.40" xlink:href="#hd"/>
<path d="M605.80 424.40v-21.00" class="stroke"/>
<use x="629.20" y="418.40" xlink:href="#hd"/>
<path d="M632.70 418.40v-21.00" class="stroke"/>
<use x="656.10" y="424.40" xlink:href="#hd"/>
<path d="M659.60 424.40v-21.00" class="stroke"/>
<path class="fill"
	d="M189.60 457.40c11.57 6.01 72.44 6.01 84.01 -0.00
	v0.28c-14.09 7.73 -69.92 7.73 -84.01 -0.28"/>
<path class="fill"
	d="M189.60 436.40c11.57 6.01 72.44 6.01 84.01 -0.00
	v0.28c-14.09 7.73 -69.92 7.73 -84.01 -0.28"/>
<path class="fill"
	d="M189.60 430.40c11.57 6.01 72.44 6.01 84.01 -0.00
	v0.28c-14.09 7.73 -69.92 7.73 -84.01 -0.28"/>
<path class="fill"
	d="M189.60 424.40c11.57 -6.01 72.44 -6.01 84.01 -0.00
	v-0.28c-14.09 -7.73 -69.92 -7.73 -84.01 0.28"/>
<path class="fill"
	d="M189.60 418.40c11.57 -6.01 72.44 -6.01 84.01 -0.00
	v-0.28c-14.09 -7.73 -69.92 -7.73 -84.01 0.28"/>
<g transform="rotate(270)">
<use x="-451.40" y="65.00" xlink:href="#ltr"/>
<use x="-445.40" y="65.00" xlink:href="#ltr"/>
<use x="-439.40" y="65.00" xlink:href="#ltr"/>
<use x="-433.40" y="65.00" xlink:href="#ltr"/>
<use x="-427.40" y="65.00" xlink:href="#ltr"/>
<use x="-421.40" y="65.00" xlink:href="#ltr"/>
<use x="-415.40" y="65.00" xlink:href="#ltr"/>
<use x="-409.40" y="65.00" xlink:href="#ltr"/>
</g>
<g transform="rotate(270)">
<use x="-460.40" y="173.60" xlink:href="#ltr"/>
<use x="-454.40" y="173.60" xlink:href="#ltr"/>
<use x="-448.40" y="173.60" xlink:href="#ltr"/>
<use x="-442.40" y="173.60" xlink:href="#ltr"/>
<use x="-436.40" y="173.60" xlink:href="#ltr"/>
<use x="-430.40" y="173.60" xlink:href="#ltr"/>
<use x="-424.40" y="173.60" xlink:href="#ltr"/>
<use x="-418.40" y="173.60" xlink:href="#ltr"/>
</g>
<g transform="rotate(270)">
<use x="-460.40" y="267.10" xlink:href="#ltr"/>
<use x="-454.40" y="267.10" xlink:href="#ltr"/>
<use x="-448.40" y="267.10" xlink:href="#ltr"/>
<use x="-442.40" y="267.10" xlink:href="#ltr"/>
<use x="-436.40" y="267.10" xlink:href="#ltr"/>
<use x="-430.40" y="267.10" xlink:href="#ltr"/>
<use x="-424.40" y="267.10" xlink:href="#ltr"/>
<use x="-418.40" y="267.10" xlink:href="#ltr"/>
</g>
</g>
</svg>
