<?xml version="1.0" standalone="no"?>
<!DOCTYPE svg PUBLIC "-//W3C//DTD SVG 1.1//EN"
	"http://www.w3.org/Graphics/SVG/1.1/DTD/svg11.dtd">
<svg xmlns="http://www.w3.org/2000/svg" version="1.1"
	xmlns:xlink="http://www.w3.org/1999/xlink"
	color="black"
	width="701.60px" height="476.40px" viewBox="0 0 701.60 476.40" preserveAspectRatio="xMidYMid meet">
<style type="text/css">
.fill {fill: currentColor}
.stroke {stroke: currentColor; fill: none}
text{white-space: pre}
</style>
<title>/tmp/reharm_hymnal_L2/on_what_has_now_been_sown.abc (1) tune 1</title>
<!-- Creator: abcm2ps-8.14.11 -->
<!-- CreationDate: Apr 24, 2026 15:32 -->
<!-- CommandLine: /tmp/reharm_hymnal_L2/on_what_has_now_been_sown.abc -g -O /tmp/reharm_hymnal_L2/on_what_has_now_been_sown -->
<g stroke-width="0.70">
<!-- title: 195. On What Has Now Been Sown -->
</g>
<g stroke-width="0.70" style="font:20.00px Times">
<text x="350.80" y="22.00" text-anchor="middle">195. On What Has Now Been Sown</text>
</g>
<g stroke-width="0.70" style="font:20.00px Times">
<path class="stroke" stroke-width="1"
	d="M10.00 143.00v-82.00"/>
<defs>
<path id="brace" class="fill" d="m-2.5 101
	c-4.5 -4.6 -7.5 -12.2 -4.4 -26.8
	3.5 -14.3 3.2 -21.7 -2.1 -24.2
	7.4 2.4 7.3 14.2 3.5 29.5
	-2.7 9.5 -1.5 16.2 3 21.5
	M-2.5 1c-4.5 4.6 -7.5 12.2 -4.4 26.8
	c3.5 14.3 3.2 21.7 -2.1 24.2
	7.4 -2.4 7.3 -14.2 3.5 -29.5
	-2.7 -9.5 -1.5 -16.2 3 -21.5"/>
</defs>
<g transform="translate(10.00,61.00) scale(1,0.82)">
	<use xlink:href="#brace"/>
</g>
<path class="stroke" stroke-width="1"
	d="M177.00 85.00v-24.00"/>
<path class="stroke" stroke-width="1"
	d="M177.00 143.00v-24.00"/>
<path class="stroke" stroke-width="1"
	d="M275.50 85.00v-24.00"/>
<path class="stroke" stroke-width="1"
	d="M275.50 143.00v-24.00"/>
<path class="stroke" stroke-width="1"
	d="M373.00 85.00v-24.00"/>
<path class="stroke" stroke-width="1"
	d="M373.00 143.00v-24.00"/>
<path class="stroke" stroke-width="1"
	d="M471.10 85.00v-24.00"/>
<path class="stroke" stroke-width="1"
	d="M471.10 143.00v-24.00"/>
<path class="stroke" stroke-width="1"
	d="M581.10 85.00v-24.00"/>
<path class="stroke" stroke-width="1"
	d="M581.10 143.00v-24.00"/>
<path class="stroke" stroke-width="1"
	d="M691.60 85.00v-24.00"/>
<path class="stroke" stroke-width="1"
	d="M691.60 143.00v-24.00"/>
<path d="m10.00 85.00
	h681.60
	M10.00 79.00
	h681.60
	M10.00 73.00
	h681.60
	M10.00 67.00
	h681.60
	M10.00 61.00
	h681.60
	" class="stroke"/>
<path d="m10.00 143.00
	h681.60
	M10.00 137.00
	h681.60
	M10.00 131.00
	h681.60
	M10.00 125.00
	h681.60
	M10.00 119.00
	h681.60
	" class="stroke"/>
</g>
<g stroke-width="0.70" style="font:bold 13.00px Times">
<text x="86.30" y="56.40">I<tspan
	 style="font:italic 11.00px Times">Δ⁷</tspan></text>
</g>
<g stroke-width="0.70" style="font:bold 13.00px Times">
<text x="181.50" y="54.40">vi<tspan
	 style="font:italic 11.00px Times">m⁷</tspan></text>
</g>
<g stroke-width="0.70" style="font:bold 13.00px Times">
<text x="280.30" y="54.40">I<tspan
	 style="font:italic 11.00px Times">Δ⁷²</tspan></text>
</g>
<g stroke-width="0.70" style="font:bold 13.00px Times">
<text x="379.60" y="54.40">V<tspan
	 style="font:italic 11.00px Times">⁷</tspan></text>
</g>
<g stroke-width="0.70" style="font:bold 13.00px Times">
<text x="490.40" y="56.40">I<tspan
	 style="font:italic 11.00px Times">Δ⁷</tspan></text>
</g>
<g stroke-width="0.70" style="font:bold 13.00px Times">
<text x="598.10" y="48.40">vii<tspan
	 style="font:italic 11.00px Times">ø⁷</tspan></text>
</g>
<g stroke-width="0.70" style="font:italic 11.00px Times">
<defs>
<path id="utclef" class="fill" d="m-50 -90
	c-72 -41 -72 -158 52 -188
	150 -10 220 188 90 256
	-114 52 -275 0 -293 -136
	-15 -181 93 -229 220 -334
	88 -87 79 -133 62 -210
	-51 33 -94 105 -89 186
	17 267 36 374 49 574
	6 96 -19 134 -77 135
	-80 1 -126 -93 -61 -133
	85 -41 133 101 31 105
	23 17 92 37 90 -92
	-10 -223 -39 -342 -50 -617
	0 -90 0 -162 96 -232
	56 72 63 230 22 289
	-74 106 -257 168 -255 316
	9 153 148 185 252 133
	86 -65 29 -192 -80 -176
	-71 12 -105 67 -59 124"/>
<use id="tclef" transform="translate(0,6) scale(0.045)"
	xlink:href="#utclef"/>
</defs>
<use x="22.00" y="79.00" xlink:href="#tclef"/>
<defs>
<path id="usharp" class="fill" d="
	m136 -702
	v890
	h32
	v-890
	m128 840
	h32
	v-888
	h-32
	m-232 286
	v116
	l338 -96
	v-116
	m-338 442
	v116
	l338 -98
	v-114"/>
<use id="sh0" transform="translate(-4,5) scale(0.018)"
	xlink:href="#usharp"/>
</defs>
<use x="37.00" y="61.00" xlink:href="#sh0"/>
<use x="42.50" y="70.00" xlink:href="#sh0"/>
<g style="font:bold 16px serif"
	transform="translate(58.50,84.50) scale(1.2,1)">
	<text text-anchor="middle">4</text>
	<text y="-12" text-anchor="middle">4</text>
</g>
<defs>
<ellipse id="hd" rx="4.1" ry="2.9"
	transform="rotate(-20)" class="fill"/>
</defs>
<use x="92.00" y="88.00" xlink:href="#hd"/>
<path d="M95.50 88.00v-21.00" class="stroke"/>
<use x="114.70" y="82.00" xlink:href="#hd"/>
<path d="M118.20 82.00v-21.00" class="stroke"/>
<use x="137.40" y="88.00" xlink:href="#hd"/>
<path d="M140.90 88.00v-21.00" class="stroke"/>
<use x="160.10" y="76.00" xlink:href="#hd"/>
<path d="M163.60 76.00v-21.00" class="stroke"/>
<use x="189.50" y="82.00" xlink:href="#hd"/>
<path d="M193.00 82.00v-21.00" class="stroke"/>
<defs>
<path id="Hd" class="fill" d="m3 -1.6
	c-1 -1.8 -7 1.4 -6 3.2
	1 1.8 7 -1.4 6 -3.2
	m0.5 -0.3
	c2 3.8 -5 7.6 -7 3.8
	-2 -3.8 5 -7.6 7 -3.8"/>
</defs>
<use x="212.70" y="67.00" xlink:href="#Hd"/>
<circle class="fill" cx="221.40" cy="64.00" r="1.2"/>
<path d="M209.20 67.00v21.00" class="stroke"/>
<use x="288.00" y="70.00" xlink:href="#hd"/>
<path d="M284.50 70.00v21.00" class="stroke"/>
<use x="310.70" y="73.00" xlink:href="#hd"/>
<path d="M307.20 73.00v21.00" class="stroke"/>
<use x="333.30" y="76.00" xlink:href="#hd"/>
<path d="M336.80 76.00v-21.00" class="stroke"/>
<use x="356.00" y="79.00" xlink:href="#hd"/>
<path d="M359.50 79.00v-21.00" class="stroke"/>
<use x="385.50" y="82.00" xlink:href="#hd"/>
<path d="M389.00 82.00v-21.00" class="stroke"/>
<use x="408.30" y="85.00" xlink:href="#Hd"/>
<circle class="fill" cx="417.00" cy="82.00" r="1.2"/>
<path d="M411.80 85.00v-21.00" class="stroke"/>
<use x="496.10" y="85.00" xlink:href="#hd"/>
<path d="M499.60 85.00v-21.00" class="stroke"/>
<use x="518.80" y="82.00" xlink:href="#hd"/>
<path d="M522.30 82.00v-21.00" class="stroke"/>
<use x="541.40" y="88.00" xlink:href="#hd"/>
<path d="M544.90 88.00v-21.00" class="stroke"/>
<use x="564.10" y="73.00" xlink:href="#hd"/>
<path d="M567.60 73.00v-21.00" class="stroke"/>
<use x="606.10" y="76.00" xlink:href="#hd"/>
<path d="M609.60 76.00v-21.00" class="stroke"/>
<use x="628.80" y="79.00" xlink:href="#hd"/>
<path d="M632.30 79.00v-21.00" class="stroke"/>
<use x="651.50" y="85.00" xlink:href="#hd"/>
<path d="M655.00 85.00v-21.00" class="stroke"/>
<use x="674.60" y="64.00" xlink:href="#hd"/>
<path d="M671.10 64.00v21.00" class="stroke"/>
<defs>
<path id="ubclef" class="fill" d="m-200 -87
	c124 -35 222 -78 254 -236
	43 -228 -167 -246 -192 -103
	59 -80 157 22 92 78
	-62 47 -115 -22 -106 -88
	21 -141 270 -136 274 52
	-1 175 -106 264 -322 297
	m357 -250
	c0 -36 51 -34 51 0
	0 37 -51 36 -51 0
	m-2 -129
	c0 -36 51 -34 51 0
	0 38 -51 37 -51 0"/>
<use id="bclef" transform="translate(0,18) scale(0.045)"
	xlink:href="#ubclef"/>
</defs>
<use x="22.00" y="125.00" xlink:href="#bclef"/>
<use x="37.00" y="125.00" xlink:href="#sh0"/>
<use x="42.50" y="134.00" xlink:href="#sh0"/>
<g style="font:bold 16px serif"
	transform="translate(58.50,142.50) scale(1.2,1)">
	<text text-anchor="middle">4</text>
	<text y="-12" text-anchor="middle">4</text>
</g>
<defs>
<path id="hl1" class="stroke" d="m-7 0h14"/>
</defs>
<use x="93.00" y="149.00" xlink:href="#hl1"/>
<use x="93.00" y="155.00" xlink:href="#hl1"/>
<use x="93.00" y="161.00" xlink:href="#hl1"/>
<use x="93.00" y="167.00" xlink:href="#hl1"/>
<use x="93.00" y="173.00" xlink:href="#hl1"/>
<defs>
<path id="HD" class="fill" d="m-2.7 -1.4
	c1.5 -2.8 6.9 0 5.3 2.7
	-1.5 2.8 -6.9 0 -5.3 -2.7
	m8.3 1.4
	c0 -1.5 -2.2 -3 -5.6 -3
	-3.4 0 -5.6 1.5 -5.6 3
	0 1.5 2.2 3 5.6 3
	3.4 0 5.6 -1.5 5.6 -3"/>
</defs>
<use x="93.00" y="173.00" xlink:href="#HD"/>
<use x="93.00" y="152.00" xlink:href="#HD"/>
<use x="93.00" y="146.00" xlink:href="#HD"/>
<use x="93.00" y="140.00" xlink:href="#HD"/>
<use x="93.00" y="134.00" xlink:href="#HD"/>
<use x="189.50" y="137.00" xlink:href="#hd"/>
<path d="M193.00 137.00v-21.00" class="stroke"/>
<use x="212.70" y="131.00" xlink:href="#hd"/>
<path d="M216.20 131.00v-21.00" class="stroke"/>
<use x="235.80" y="125.00" xlink:href="#hd"/>
<path d="M232.30 125.00v21.00" class="stroke"/>
<use x="258.50" y="119.00" xlink:href="#hd"/>
<path d="M255.00 119.00v21.00" class="stroke"/>
<defs>
<path id="hl" class="stroke" d="m-6 0h12"/>
</defs>
<use x="288.00" y="149.00" xlink:href="#hl"/>
<use x="288.00" y="152.00" xlink:href="#hd"/>
<path d="M291.50 152.00v-21.00" class="stroke"/>
<use x="310.70" y="146.00" xlink:href="#hd"/>
<path d="M314.20 146.00v-21.00" class="stroke"/>
<use x="333.30" y="140.00" xlink:href="#hd"/>
<path d="M336.80 140.00v-21.00" class="stroke"/>
<use x="356.00" y="134.00" xlink:href="#hd"/>
<path d="M359.50 134.00v-21.00" class="stroke"/>
<use x="385.50" y="140.00" xlink:href="#hd"/>
<path d="M389.00 140.00v-21.00" class="stroke"/>
<use x="408.30" y="134.00" xlink:href="#hd"/>
<path d="M411.80 134.00v-21.00" class="stroke"/>
<use x="431.40" y="128.00" xlink:href="#hd"/>
<path d="M427.90 128.00v21.00" class="stroke"/>
<use x="454.10" y="122.00" xlink:href="#hd"/>
<path d="M450.60 122.00v21.00" class="stroke"/>
<use x="497.10" y="149.00" xlink:href="#hl1"/>
<use x="497.10" y="155.00" xlink:href="#hl1"/>
<use x="497.10" y="161.00" xlink:href="#hl1"/>
<use x="497.10" y="167.00" xlink:href="#hl1"/>
<use x="497.10" y="173.00" xlink:href="#hl1"/>
<use x="497.10" y="173.00" xlink:href="#HD"/>
<use x="497.10" y="152.00" xlink:href="#HD"/>
<use x="497.10" y="146.00" xlink:href="#HD"/>
<use x="497.10" y="140.00" xlink:href="#HD"/>
<use x="497.10" y="134.00" xlink:href="#HD"/>
<use x="607.10" y="149.00" xlink:href="#hl1"/>
<use x="607.10" y="155.00" xlink:href="#hl1"/>
<use x="607.10" y="155.00" xlink:href="#HD"/>
<use x="607.10" y="134.00" xlink:href="#HD"/>
<use x="607.10" y="128.00" xlink:href="#HD"/>
<use x="607.10" y="122.00" xlink:href="#HD"/>
<use x="607.10" y="116.00" xlink:href="#HD"/>
<defs>
<path id="ltr" class="fill"
    d="m0 -0.4c2 -1.5 3.4 -1.9 3.9 0.4
	c0.2 0.8 0.7 0.7 2.1 -0.4
	v0.8c-2 1.5 -3.4 1.9 -3.9 -0.4
	c-0.2 -0.8 -0.7 -0.7 -2.1 0.4z"/>
</defs>
<g transform="rotate(270)">
<use x="-176.00" y="79.50" xlink:href="#ltr"/>
<use x="-170.00" y="79.50" xlink:href="#ltr"/>
<use x="-164.00" y="79.50" xlink:href="#ltr"/>
<use x="-158.00" y="79.50" xlink:href="#ltr"/>
<use x="-152.00" y="79.50" xlink:href="#ltr"/>
<use x="-146.00" y="79.50" xlink:href="#ltr"/>
<use x="-140.00" y="79.50" xlink:href="#ltr"/>
<use x="-134.00" y="79.50" xlink:href="#ltr"/>
</g>
<g transform="rotate(270)">
<use x="-176.00" y="483.60" xlink:href="#ltr"/>
<use x="-170.00" y="483.60" xlink:href="#ltr"/>
<use x="-164.00" y="483.60" xlink:href="#ltr"/>
<use x="-158.00" y="483.60" xlink:href="#ltr"/>
<use x="-152.00" y="483.60" xlink:href="#ltr"/>
<use x="-146.00" y="483.60" xlink:href="#ltr"/>
<use x="-140.00" y="483.60" xlink:href="#ltr"/>
<use x="-134.00" y="483.60" xlink:href="#ltr"/>
</g>
<g transform="rotate(270)">
<use x="-158.00" y="593.60" xlink:href="#ltr"/>
<use x="-152.00" y="593.60" xlink:href="#ltr"/>
<use x="-146.00" y="593.60" xlink:href="#ltr"/>
<use x="-140.00" y="593.60" xlink:href="#ltr"/>
<use x="-134.00" y="593.60" xlink:href="#ltr"/>
<use x="-128.00" y="593.60" xlink:href="#ltr"/>
<use x="-122.00" y="593.60" xlink:href="#ltr"/>
<use x="-116.00" y="593.60" xlink:href="#ltr"/>
</g>
</g>
<g stroke-width="0.70" style="font:italic 11.00px Times">
<path class="stroke" stroke-width="1"
	d="M10.00 284.00v-82.00"/>
<g transform="translate(10.00,202.00) scale(1,0.82)">
	<use xlink:href="#brace"/>
</g>
<path class="stroke" stroke-width="1"
	d="M163.40 226.00v-24.00"/>
<path class="stroke" stroke-width="1"
	d="M163.40 284.00v-24.00"/>
<path class="stroke" stroke-width="1"
	d="M214.30 226.00v-24.00"/>
<path class="stroke" stroke-width="1"
	d="M214.30 284.00v-24.00"/>
<path class="stroke" stroke-width="1"
	d="M326.70 226.00v-24.00"/>
<path class="stroke" stroke-width="1"
	d="M326.70 284.00v-24.00"/>
<path class="stroke" stroke-width="1"
	d="M377.60 226.00v-24.00"/>
<path class="stroke" stroke-width="1"
	d="M377.60 284.00v-24.00"/>
<path class="stroke" stroke-width="1"
	d="M471.90 226.00v-24.00"/>
<path class="stroke" stroke-width="1"
	d="M471.90 284.00v-24.00"/>
<path class="stroke" stroke-width="1"
	d="M579.20 226.00v-24.00"/>
<path class="stroke" stroke-width="1"
	d="M579.20 284.00v-24.00"/>
<path class="stroke" stroke-width="1"
	d="M691.60 226.00v-24.00"/>
<path class="stroke" stroke-width="1"
	d="M691.60 284.00v-24.00"/>
<path d="m10.00 226.00
	h681.60
	M10.00 220.00
	h681.60
	M10.00 214.00
	h681.60
	M10.00 208.00
	h681.60
	M10.00 202.00
	h681.60
	" class="stroke"/>
<path d="m10.00 284.00
	h681.60
	M10.00 278.00
	h681.60
	M10.00 272.00
	h681.60
	M10.00 266.00
	h681.60
	M10.00 260.00
	h681.60
	" class="stroke"/>
</g>
<g stroke-width="0.70" style="font:bold 13.00px Times">
<text x="70.30" y="197.40">I<tspan
	 style="font:italic 11.00px Times">Δ⁷</tspan></text>
</g>
<g stroke-width="0.70" style="font:bold 13.00px Times">
<text x="181.50" y="189.40">V<tspan
	 style="font:italic 11.00px Times">⁷</tspan></text>
</g>
<g stroke-width="0.70" style="font:bold 13.00px Times">
<text x="233.60" y="189.40">I<tspan
	 style="font:italic 11.00px Times">Δ⁷</tspan></text>
</g>
<g stroke-width="0.70" style="font:bold 13.00px Times">
<text x="345.00" y="197.40">I<tspan
	 style="font:italic 11.00px Times">Δ⁷</tspan></text>
</g>
<g stroke-width="0.70" style="font:bold 13.00px Times">
<text x="382.50" y="197.40">I<tspan
	 style="font:italic 11.00px Times">Δ⁷¹</tspan></text>
</g>
<g stroke-width="0.70" style="font:bold 13.00px Times">
<text x="491.20" y="189.40">I<tspan
	 style="font:italic 11.00px Times">Δ⁷</tspan></text>
</g>
<g stroke-width="0.70" style="font:bold 13.00px Times">
<text x="596.20" y="196.40">ii<tspan
	 style="font:italic 11.00px Times">m⁷¹</tspan></text>
</g>
<g stroke-width="0.70" style="font:italic 11.00px Times">
<use x="22.00" y="220.00" xlink:href="#tclef"/>
<use x="37.00" y="202.00" xlink:href="#sh0"/>
<use x="42.50" y="211.00" xlink:href="#sh0"/>
<use x="76.00" y="208.00" xlink:href="#hd"/>
<path d="M72.50 208.00v21.00" class="stroke"/>
<use x="97.80" y="211.00" xlink:href="#Hd"/>
<path d="M94.30 211.00v21.00" class="stroke"/>
<use x="127.90" y="214.00" xlink:href="#Hd"/>
<path d="M124.40 214.00v21.00" class="stroke"/>
<use x="187.40" y="217.00" xlink:href="#Hd"/>
<circle class="fill" cx="196.10" cy="217.00" r="1.2"/>
<path d="M190.90 217.00v-21.00" class="stroke"/>
<use x="239.30" y="217.00" xlink:href="#hd"/>
<path d="M242.80 217.00v-21.00" class="stroke"/>
<use x="261.10" y="214.00" xlink:href="#Hd"/>
<path d="M264.60 214.00v-21.00" class="stroke"/>
<use x="291.70" y="211.00" xlink:href="#Hd"/>
<path d="M288.20 211.00v21.00" class="stroke"/>
<use x="350.70" y="208.00" xlink:href="#Hd"/>
<circle class="fill" cx="359.40" cy="205.00" r="1.2"/>
<path d="M347.20 208.00v21.00" class="stroke"/>
<use x="390.10" y="229.00" xlink:href="#hd"/>
<path d="M393.60 229.00v-21.00" class="stroke"/>
<use x="411.90" y="226.00" xlink:href="#hd"/>
<path d="M415.40 226.00v-21.00" class="stroke"/>
<use x="433.60" y="223.00" xlink:href="#hd"/>
<path d="M437.10 223.00v-21.00" class="stroke"/>
<use x="455.30" y="220.00" xlink:href="#hd"/>
<path d="M458.80 220.00v-21.00" class="stroke"/>
<use x="496.90" y="217.00" xlink:href="#hd"/>
<path d="M500.40 217.00v-21.00" class="stroke"/>
<use x="518.60" y="214.00" xlink:href="#hd"/>
<path d="M522.10 214.00v-21.00" class="stroke"/>
<use x="540.90" y="211.00" xlink:href="#hd"/>
<path d="M537.40 211.00v21.00" class="stroke"/>
<use x="562.60" y="208.00" xlink:href="#hd"/>
<path d="M559.10 208.00v21.00" class="stroke"/>
<use x="604.20" y="205.00" xlink:href="#hd"/>
<path d="M600.70 205.00v21.00" class="stroke"/>
<use x="626.00" y="208.00" xlink:href="#Hd"/>
<path d="M622.50 208.00v21.00" class="stroke"/>
<use x="656.20" y="211.00" xlink:href="#Hd"/>
<path d="M652.70 211.00v21.00" class="stroke"/>
<use x="22.00" y="266.00" xlink:href="#bclef"/>
<use x="37.00" y="266.00" xlink:href="#sh0"/>
<use x="42.50" y="275.00" xlink:href="#sh0"/>
<use x="77.00" y="290.00" xlink:href="#hl1"/>
<use x="77.00" y="296.00" xlink:href="#hl1"/>
<use x="77.00" y="302.00" xlink:href="#hl1"/>
<use x="77.00" y="308.00" xlink:href="#hl1"/>
<use x="77.00" y="314.00" xlink:href="#hl1"/>
<use x="77.00" y="314.00" xlink:href="#HD"/>
<use x="77.00" y="293.00" xlink:href="#HD"/>
<use x="77.00" y="287.00" xlink:href="#HD"/>
<use x="77.00" y="281.00" xlink:href="#HD"/>
<use x="77.00" y="275.00" xlink:href="#HD"/>
<use x="146.80" y="290.00" xlink:href="#hl"/>
<use x="146.80" y="296.00" xlink:href="#hl"/>
<use x="146.80" y="302.00" xlink:href="#hl"/>
<use x="146.80" y="308.00" xlink:href="#hl"/>
<use x="146.80" y="314.00" xlink:href="#hl"/>
<use x="146.80" y="314.00" xlink:href="#hd"/>
<path d="M150.30 314.00v-58.00" class="stroke"/>
<use x="146.80" y="293.00" xlink:href="#hd"/>
<use x="146.80" y="287.00" xlink:href="#hd"/>
<use x="146.80" y="281.00" xlink:href="#hd"/>
<use x="146.80" y="275.00" xlink:href="#hd"/>
<use x="187.40" y="290.00" xlink:href="#hl"/>
<use x="187.40" y="296.00" xlink:href="#hl"/>
<use x="187.40" y="302.00" xlink:href="#hl"/>
<use x="187.40" y="302.00" xlink:href="#Hd"/>
<circle class="fill" cx="196.10" cy="299.00" r="1.2"/>
<path d="M190.90 302.00v-58.00" class="stroke"/>
<use x="187.40" y="281.00" xlink:href="#Hd"/>
<circle class="fill" cx="196.10" cy="281.00" r="1.2"/>
<use x="187.40" y="275.00" xlink:href="#Hd"/>
<circle class="fill" cx="196.10" cy="275.00" r="1.2"/>
<use x="187.40" y="269.00" xlink:href="#Hd"/>
<circle class="fill" cx="196.10" cy="269.00" r="1.2"/>
<use x="187.40" y="263.00" xlink:href="#Hd"/>
<circle class="fill" cx="196.10" cy="263.00" r="1.2"/>
<use x="240.30" y="290.00" xlink:href="#hl1"/>
<use x="240.30" y="296.00" xlink:href="#hl1"/>
<use x="240.30" y="302.00" xlink:href="#hl1"/>
<use x="240.30" y="308.00" xlink:href="#hl1"/>
<use x="240.30" y="314.00" xlink:href="#hl1"/>
<use x="240.30" y="314.00" xlink:href="#HD"/>
<use x="240.30" y="293.00" xlink:href="#HD"/>
<use x="240.30" y="287.00" xlink:href="#HD"/>
<use x="240.30" y="281.00" xlink:href="#HD"/>
<use x="240.30" y="275.00" xlink:href="#HD"/>
<use x="310.10" y="290.00" xlink:href="#hl"/>
<use x="310.10" y="296.00" xlink:href="#hl"/>
<use x="310.10" y="302.00" xlink:href="#hl"/>
<use x="310.10" y="308.00" xlink:href="#hl"/>
<use x="310.10" y="314.00" xlink:href="#hl"/>
<use x="310.10" y="314.00" xlink:href="#hd"/>
<path d="M313.60 314.00v-58.00" class="stroke"/>
<use x="310.10" y="293.00" xlink:href="#hd"/>
<use x="310.10" y="287.00" xlink:href="#hd"/>
<use x="310.10" y="281.00" xlink:href="#hd"/>
<use x="310.10" y="275.00" xlink:href="#hd"/>
<use x="350.70" y="290.00" xlink:href="#hl"/>
<use x="350.70" y="296.00" xlink:href="#hl"/>
<use x="350.70" y="302.00" xlink:href="#hl"/>
<use x="350.70" y="308.00" xlink:href="#hl"/>
<use x="350.70" y="314.00" xlink:href="#hl"/>
<use x="350.70" y="314.00" xlink:href="#Hd"/>
<circle class="fill" cx="359.40" cy="311.00" r="1.2"/>
<path d="M354.20 314.00v-58.00" class="stroke"/>
<use x="350.70" y="293.00" xlink:href="#Hd"/>
<circle class="fill" cx="359.40" cy="293.00" r="1.2"/>
<use x="350.70" y="287.00" xlink:href="#Hd"/>
<circle class="fill" cx="359.40" cy="287.00" r="1.2"/>
<use x="350.70" y="281.00" xlink:href="#Hd"/>
<circle class="fill" cx="359.40" cy="281.00" r="1.2"/>
<use x="350.70" y="275.00" xlink:href="#Hd"/>
<circle class="fill" cx="359.40" cy="275.00" r="1.2"/>
<use x="390.10" y="290.00" xlink:href="#hl"/>
<use x="390.10" y="293.00" xlink:href="#hd"/>
<path d="M393.60 293.00v-21.00" class="stroke"/>
<use x="411.90" y="287.00" xlink:href="#hd"/>
<path d="M415.40 287.00v-21.00" class="stroke"/>
<use x="433.60" y="281.00" xlink:href="#hd"/>
<path d="M437.10 281.00v-21.00" class="stroke"/>
<use x="455.30" y="275.00" xlink:href="#hd"/>
<path d="M458.80 275.00v-21.00" class="stroke"/>
<use x="497.90" y="290.00" xlink:href="#hl1"/>
<use x="497.90" y="296.00" xlink:href="#hl1"/>
<use x="497.90" y="302.00" xlink:href="#hl1"/>
<use x="497.90" y="308.00" xlink:href="#hl1"/>
<use x="497.90" y="314.00" xlink:href="#hl1"/>
<use x="497.90" y="314.00" xlink:href="#HD"/>
<use x="497.90" y="293.00" xlink:href="#HD"/>
<use x="497.90" y="287.00" xlink:href="#HD"/>
<use x="497.90" y="281.00" xlink:href="#HD"/>
<use x="497.90" y="275.00" xlink:href="#HD"/>
<use x="605.20" y="290.00" xlink:href="#hl1"/>
<use x="605.20" y="296.00" xlink:href="#hl1"/>
<use x="605.20" y="302.00" xlink:href="#hl1"/>
<use x="605.20" y="308.00" xlink:href="#hl1"/>
<use x="605.20" y="311.00" xlink:href="#HD"/>
<use x="605.20" y="290.00" xlink:href="#HD"/>
<use x="605.20" y="284.00" xlink:href="#HD"/>
<use x="605.20" y="278.00" xlink:href="#HD"/>
<use x="605.20" y="272.00" xlink:href="#HD"/>
<use x="675.00" y="290.00" xlink:href="#hl"/>
<use x="675.00" y="296.00" xlink:href="#hl"/>
<use x="675.00" y="302.00" xlink:href="#hl"/>
<use x="675.00" y="308.00" xlink:href="#hl"/>
<use x="675.00" y="311.00" xlink:href="#hd"/>
<path d="M678.50 311.00v-58.00" class="stroke"/>
<use x="675.00" y="290.00" xlink:href="#hd"/>
<use x="675.00" y="284.00" xlink:href="#hd"/>
<use x="675.00" y="278.00" xlink:href="#hd"/>
<use x="675.00" y="272.00" xlink:href="#hd"/>
<path class="fill"
	d="M79.50 314.00c9.36 5.65 54.41 5.65 63.77 -0.00
	v0.26c-11.28 7.38 -52.50 7.38 -63.77 -0.26"/>
<path class="fill"
	d="M79.50 293.00c9.36 5.65 54.41 5.65 63.77 -0.00
	v0.26c-11.28 7.38 -52.50 7.38 -63.77 -0.26"/>
<path class="fill"
	d="M79.50 287.00c9.36 5.65 54.41 5.65 63.77 -0.00
	v0.26c-11.28 7.38 -52.50 7.38 -63.77 -0.26"/>
<path class="fill"
	d="M79.50 281.00c9.36 -5.65 54.41 -5.65 63.77 -0.00
	v-0.26c-11.28 -7.38 -52.50 -7.38 -63.77 0.26"/>
<path class="fill"
	d="M79.50 275.00c9.36 -5.65 54.41 -5.65 63.77 -0.00
	v-0.26c-11.28 -7.38 -52.50 -7.38 -63.77 0.26"/>
<path class="fill"
	d="M242.80 314.00c9.36 5.65 54.41 5.65 63.77 -0.00
	v0.26c-11.28 7.38 -52.50 7.38 -63.77 -0.26"/>
<path class="fill"
	d="M242.80 293.00c9.36 5.65 54.41 5.65 63.77 -0.00
	v0.26c-11.28 7.38 -52.50 7.38 -63.77 -0.26"/>
<path class="fill"
	d="M242.80 287.00c9.36 5.65 54.41 5.65 63.77 -0.00
	v0.26c-11.28 7.38 -52.50 7.38 -63.77 -0.26"/>
<path class="fill"
	d="M242.80 281.00c9.36 -5.65 54.41 -5.65 63.77 -0.00
	v-0.26c-11.28 -7.38 -52.50 -7.38 -63.77 0.26"/>
<path class="fill"
	d="M242.80 275.00c9.36 -5.65 54.41 -5.65 63.77 -0.00
	v-0.26c-11.28 -7.38 -52.50 -7.38 -63.77 0.26"/>
<path class="fill"
	d="M607.70 311.00c9.36 5.65 54.41 5.65 63.77 -0.00
	v0.26c-11.28 7.38 -52.50 7.38 -63.77 -0.26"/>
<path class="fill"
	d="M607.70 290.00c9.36 5.65 54.41 5.65 63.77 -0.00
	v0.26c-11.28 7.38 -52.50 7.38 -63.77 -0.26"/>
<path class="fill"
	d="M607.70 284.00c9.36 5.65 54.41 5.65 63.77 -0.00
	v0.26c-11.28 7.38 -52.50 7.38 -63.77 -0.26"/>
<path class="fill"
	d="M607.70 278.00c9.36 -5.65 54.41 -5.65 63.77 -0.00
	v-0.26c-11.28 -7.38 -52.50 -7.38 -63.77 0.26"/>
<path class="fill"
	d="M607.70 272.00c9.36 -5.65 54.41 -5.65 63.77 -0.00
	v-0.26c-11.28 -7.38 -52.50 -7.38 -63.77 0.26"/>
<g transform="rotate(270)">
<use x="-317.00" y="63.50" xlink:href="#ltr"/>
<use x="-311.00" y="63.50" xlink:href="#ltr"/>
<use x="-305.00" y="63.50" xlink:href="#ltr"/>
<use x="-299.00" y="63.50" xlink:href="#ltr"/>
<use x="-293.00" y="63.50" xlink:href="#ltr"/>
<use x="-287.00" y="63.50" xlink:href="#ltr"/>
<use x="-281.00" y="63.50" xlink:href="#ltr"/>
<use x="-275.00" y="63.50" xlink:href="#ltr"/>
</g>
<g transform="rotate(270)">
<use x="-317.00" y="136.80" xlink:href="#ltr"/>
<use x="-311.00" y="136.80" xlink:href="#ltr"/>
<use x="-305.00" y="136.80" xlink:href="#ltr"/>
<use x="-299.00" y="136.80" xlink:href="#ltr"/>
<use x="-293.00" y="136.80" xlink:href="#ltr"/>
<use x="-287.00" y="136.80" xlink:href="#ltr"/>
<use x="-281.00" y="136.80" xlink:href="#ltr"/>
<use x="-275.00" y="136.80" xlink:href="#ltr"/>
</g>
<g transform="rotate(270)">
<use x="-305.00" y="177.40" xlink:href="#ltr"/>
<use x="-299.00" y="177.40" xlink:href="#ltr"/>
<use x="-293.00" y="177.40" xlink:href="#ltr"/>
<use x="-287.00" y="177.40" xlink:href="#ltr"/>
<use x="-281.00" y="177.40" xlink:href="#ltr"/>
<use x="-275.00" y="177.40" xlink:href="#ltr"/>
<use x="-269.00" y="177.40" xlink:href="#ltr"/>
<use x="-263.00" y="177.40" xlink:href="#ltr"/>
</g>
<g transform="rotate(270)">
<use x="-317.00" y="226.80" xlink:href="#ltr"/>
<use x="-311.00" y="226.80" xlink:href="#ltr"/>
<use x="-305.00" y="226.80" xlink:href="#ltr"/>
<use x="-299.00" y="226.80" xlink:href="#ltr"/>
<use x="-293.00" y="226.80" xlink:href="#ltr"/>
<use x="-287.00" y="226.80" xlink:href="#ltr"/>
<use x="-281.00" y="226.80" xlink:href="#ltr"/>
<use x="-275.00" y="226.80" xlink:href="#ltr"/>
</g>
<g transform="rotate(270)">
<use x="-317.00" y="300.10" xlink:href="#ltr"/>
<use x="-311.00" y="300.10" xlink:href="#ltr"/>
<use x="-305.00" y="300.10" xlink:href="#ltr"/>
<use x="-299.00" y="300.10" xlink:href="#ltr"/>
<use x="-293.00" y="300.10" xlink:href="#ltr"/>
<use x="-287.00" y="300.10" xlink:href="#ltr"/>
<use x="-281.00" y="300.10" xlink:href="#ltr"/>
<use x="-275.00" y="300.10" xlink:href="#ltr"/>
</g>
<g transform="rotate(270)">
<use x="-317.00" y="340.70" xlink:href="#ltr"/>
<use x="-311.00" y="340.70" xlink:href="#ltr"/>
<use x="-305.00" y="340.70" xlink:href="#ltr"/>
<use x="-299.00" y="340.70" xlink:href="#ltr"/>
<use x="-293.00" y="340.70" xlink:href="#ltr"/>
<use x="-287.00" y="340.70" xlink:href="#ltr"/>
<use x="-281.00" y="340.70" xlink:href="#ltr"/>
<use x="-275.00" y="340.70" xlink:href="#ltr"/>
</g>
<g transform="rotate(270)">
<use x="-317.00" y="484.40" xlink:href="#ltr"/>
<use x="-311.00" y="484.40" xlink:href="#ltr"/>
<use x="-305.00" y="484.40" xlink:href="#ltr"/>
<use x="-299.00" y="484.40" xlink:href="#ltr"/>
<use x="-293.00" y="484.40" xlink:href="#ltr"/>
<use x="-287.00" y="484.40" xlink:href="#ltr"/>
<use x="-281.00" y="484.40" xlink:href="#ltr"/>
<use x="-275.00" y="484.40" xlink:href="#ltr"/>
</g>
<g transform="rotate(270)">
<use x="-314.00" y="591.70" xlink:href="#ltr"/>
<use x="-308.00" y="591.70" xlink:href="#ltr"/>
<use x="-302.00" y="591.70" xlink:href="#ltr"/>
<use x="-296.00" y="591.70" xlink:href="#ltr"/>
<use x="-290.00" y="591.70" xlink:href="#ltr"/>
<use x="-284.00" y="591.70" xlink:href="#ltr"/>
<use x="-278.00" y="591.70" xlink:href="#ltr"/>
<use x="-272.00" y="591.70" xlink:href="#ltr"/>
</g>
<g transform="rotate(270)">
<use x="-314.00" y="665.00" xlink:href="#ltr"/>
<use x="-308.00" y="665.00" xlink:href="#ltr"/>
<use x="-302.00" y="665.00" xlink:href="#ltr"/>
<use x="-296.00" y="665.00" xlink:href="#ltr"/>
<use x="-290.00" y="665.00" xlink:href="#ltr"/>
<use x="-284.00" y="665.00" xlink:href="#ltr"/>
<use x="-278.00" y="665.00" xlink:href="#ltr"/>
<use x="-272.00" y="665.00" xlink:href="#ltr"/>
</g>
</g>
<g stroke-width="0.70" style="font:italic 11.00px Times">
<path class="stroke" stroke-width="1"
	d="M10.00 440.40v-82.00"/>
<g transform="translate(10.00,358.40) scale(1,0.82)">
	<use xlink:href="#brace"/>
</g>
<path class="stroke" stroke-width="1"
	d="M120.10 382.40v-24.00"/>
<path class="stroke" stroke-width="1"
	d="M120.10 440.40v-24.00"/>
<path d="m10.00 382.40
	h110.10
	M10.00 376.40
	h110.10
	M10.00 370.40
	h110.10
	M10.00 364.40
	h110.10
	M10.00 358.40
	h110.10
	" class="stroke"/>
<path d="m10.00 440.40
	h110.10
	M10.00 434.40
	h110.10
	M10.00 428.40
	h110.10
	M10.00 422.40
	h110.10
	M10.00 416.40
	h110.10
	" class="stroke"/>
</g>
<g stroke-width="0.70" style="font:bold 13.00px Times">
<text x="69.30" y="334.80">I<tspan
	 style="font:italic 11.00px Times">Δ⁷</tspan></text>
</g>
<g stroke-width="0.70" style="font:italic 11.00px Times">
<use x="22.00" y="376.40" xlink:href="#tclef"/>
<use x="37.00" y="358.40" xlink:href="#sh0"/>
<use x="42.50" y="367.40" xlink:href="#sh0"/>
<use x="75.00" y="352.40" xlink:href="#hl"/>
<use x="75.00" y="346.40" xlink:href="#hl"/>
<use x="75.00" y="343.40" xlink:href="#Hd"/>
<circle class="fill" cx="84.70" cy="343.40" r="1.2"/>
<path d="M71.50 343.40v40.00" class="stroke"/>
<use x="75.00" y="364.40" xlink:href="#Hd"/>
<circle class="fill" cx="84.70" cy="361.40" r="1.2"/>
<use x="22.00" y="422.40" xlink:href="#bclef"/>
<use x="37.00" y="422.40" xlink:href="#sh0"/>
<use x="42.50" y="431.40" xlink:href="#sh0"/>
<use x="75.00" y="446.40" xlink:href="#hl"/>
<use x="75.00" y="452.40" xlink:href="#hl"/>
<use x="75.00" y="458.40" xlink:href="#hl"/>
<use x="75.00" y="464.40" xlink:href="#hl"/>
<use x="75.00" y="470.40" xlink:href="#hl"/>
<use x="75.00" y="470.40" xlink:href="#Hd"/>
<circle class="fill" cx="84.70" cy="467.40" r="1.2"/>
<path d="M78.50 470.40v-58.00" class="stroke"/>
<use x="75.00" y="449.40" xlink:href="#Hd"/>
<circle class="fill" cx="84.70" cy="449.40" r="1.2"/>
<use x="75.00" y="443.40" xlink:href="#Hd"/>
<circle class="fill" cx="84.70" cy="443.40" r="1.2"/>
<use x="75.00" y="437.40" xlink:href="#Hd"/>
<circle class="fill" cx="84.70" cy="437.40" r="1.2"/>
<use x="75.00" y="431.40" xlink:href="#Hd"/>
<circle class="fill" cx="84.70" cy="431.40" r="1.2"/>
<g transform="rotate(270)">
<use x="-473.40" y="65.00" xlink:href="#ltr"/>
<use x="-467.40" y="65.00" xlink:href="#ltr"/>
<use x="-461.40" y="65.00" xlink:href="#ltr"/>
<use x="-455.40" y="65.00" xlink:href="#ltr"/>
<use x="-449.40" y="65.00" xlink:href="#ltr"/>
<use x="-443.40" y="65.00" xlink:href="#ltr"/>
<use x="-437.40" y="65.00" xlink:href="#ltr"/>
<use x="-431.40" y="65.00" xlink:href="#ltr"/>
</g>
</g>
</svg>
