<?xml version="1.0" standalone="no"?>
<!DOCTYPE svg PUBLIC "-//W3C//DTD SVG 1.1//EN"
	"http://www.w3.org/Graphics/SVG/1.1/DTD/svg11.dtd">
<svg xmlns="http://www.w3.org/2000/svg" version="1.1"
	xmlns:xlink="http://www.w3.org/1999/xlink"
	color="black"
	width="701.60px" height="308.00px" viewBox="0 0 701.60 308.00" preserveAspectRatio="xMidYMid meet">
<style type="text/css">
.fill {fill: currentColor}
.stroke {stroke: currentColor; fill: none}
text{white-space: pre}
</style>
<title>/tmp/reharm_hymnal_L2/savior_who_thy_flock_art_feeding.abc (1) tune 1</title>
<!-- Creator: abcm2ps-8.14.11 -->
<!-- CreationDate: Apr 24, 2026 15:32 -->
<!-- CommandLine: /tmp/reharm_hymnal_L2/savior_who_thy_flock_art_feeding.abc -g -O /tmp/reharm_hymnal_L2/savior_who_thy_flock_art_feeding -->
<g stroke-width="0.70">
<!-- title: 214. Savior, Who Thy Flock Art Feeding -->
</g>
<g stroke-width="0.70" style="font:20.00px Times">
<text x="350.80" y="22.00" text-anchor="middle">214. Savior, Who Thy Flock Art Feeding</text>
</g>
<g stroke-width="0.70" style="font:20.00px Times">
<path class="stroke" stroke-width="1"
	d="M10.00 143.00v-82.00"/>
<defs>
<path id="brace" class="fill" d="m-2.5 101
	c-4.5 -4.6 -7.5 -12.2 -4.4 -26.8
	3.5 -14.3 3.2 -21.7 -2.1 -24.2
	7.4 2.4 7.3 14.2 3.5 29.5
	-2.7 9.5 -1.5 16.2 3 21.5
	M-2.5 1c-4.5 4.6 -7.5 12.2 -4.4 26.8
	c3.5 14.3 3.2 21.7 -2.1 24.2
	7.4 -2.4 7.3 -14.2 3.5 -29.5
	-2.7 -9.5 -1.5 -16.2 3 -21.5"/>
</defs>
<g transform="translate(10.00,61.00) scale(1,0.82)">
	<use xlink:href="#brace"/>
</g>
<path class="stroke" stroke-width="1"
	d="M171.50 85.00v-24.00"/>
<path class="stroke" stroke-width="1"
	d="M171.50 143.00v-24.00"/>
<path class="stroke" stroke-width="1"
	d="M270.00 85.00v-24.00"/>
<path class="stroke" stroke-width="1"
	d="M270.00 143.00v-24.00"/>
<path class="stroke" stroke-width="1"
	d="M366.70 85.00v-24.00"/>
<path class="stroke" stroke-width="1"
	d="M366.70 143.00v-24.00"/>
<path class="stroke" stroke-width="1"
	d="M476.70 85.00v-24.00"/>
<path class="stroke" stroke-width="1"
	d="M476.70 143.00v-24.00"/>
<path class="stroke" stroke-width="1"
	d="M576.20 85.00v-24.00"/>
<path class="stroke" stroke-width="1"
	d="M576.20 143.00v-24.00"/>
<path class="stroke" stroke-width="1"
	d="M691.60 85.00v-24.00"/>
<path class="stroke" stroke-width="1"
	d="M691.60 143.00v-24.00"/>
<path d="m10.00 85.00
	h681.60
	M10.00 79.00
	h681.60
	M10.00 73.00
	h681.60
	M10.00 67.00
	h681.60
	M10.00 61.00
	h681.60
	" class="stroke"/>
<path d="m10.00 143.00
	h681.60
	M10.00 137.00
	h681.60
	M10.00 131.00
	h681.60
	M10.00 125.00
	h681.60
	M10.00 119.00
	h681.60
	" class="stroke"/>
</g>
<g stroke-width="0.70" style="font:bold 13.00px Times">
<text x="80.80" y="54.40">I<tspan
	 style="font:italic 11.00px Times">Δ⁷</tspan></text>
</g>
<g stroke-width="0.70" style="font:bold 13.00px Times">
<text x="178.10" y="48.40">V<tspan
	 style="font:italic 11.00px Times">⁷</tspan></text>
</g>
<g stroke-width="0.70" style="font:bold 13.00px Times">
<text x="289.30" y="48.40">I<tspan
	 style="font:italic 11.00px Times">Δ⁷</tspan></text>
</g>
<g stroke-width="0.70" style="font:bold 13.00px Times">
<text x="383.70" y="48.40">ii<tspan
	 style="font:italic 11.00px Times">m⁷</tspan></text>
</g>
<g stroke-width="0.70" style="font:bold 13.00px Times">
<text x="482.70" y="54.40">iii<tspan
	 style="font:italic 11.00px Times">m⁷</tspan></text>
</g>
<g stroke-width="0.70" style="font:bold 13.00px Times">
<text x="583.00" y="56.40">I<tspan
	 style="font:italic 11.00px Times">Δ⁷</tspan></text>
</g>
<g stroke-width="0.70" style="font:italic 11.00px Times">
<defs>
<path id="utclef" class="fill" d="m-50 -90
	c-72 -41 -72 -158 52 -188
	150 -10 220 188 90 256
	-114 52 -275 0 -293 -136
	-15 -181 93 -229 220 -334
	88 -87 79 -133 62 -210
	-51 33 -94 105 -89 186
	17 267 36 374 49 574
	6 96 -19 134 -77 135
	-80 1 -126 -93 -61 -133
	85 -41 133 101 31 105
	23 17 92 37 90 -92
	-10 -223 -39 -342 -50 -617
	0 -90 0 -162 96 -232
	56 72 63 230 22 289
	-74 106 -257 168 -255 316
	9 153 148 185 252 133
	86 -65 29 -192 -80 -176
	-71 12 -105 67 -59 124"/>
<use id="tclef" transform="translate(0,6) scale(0.045)"
	xlink:href="#utclef"/>
</defs>
<use x="22.00" y="79.00" xlink:href="#tclef"/>
<defs>
<path id="uflat" class="fill" d="
	m100 -746
	h32
	v734
	l-32 4
	m32 -332
	c46 -72 152 -90 208 -20
	100 110 -120 326 -208 348
	m0 -28
	c54 0 200 -206 130 -290
	-50 -60 -130 -4 -130 34"/>
<use id="ft0" transform="translate(-3.5,3.5) scale(0.018)"
	xlink:href="#uflat"/>
</defs>
<use x="37.00" y="73.00" xlink:href="#ft0"/>
<g style="font:bold 16px serif"
	transform="translate(53.00,84.50) scale(1.2,1)">
	<text text-anchor="middle">4</text>
	<text y="-12" text-anchor="middle">4</text>
</g>
<defs>
<ellipse id="hd" rx="4.1" ry="2.9"
	transform="rotate(-20)" class="fill"/>
</defs>
<use x="86.50" y="82.00" xlink:href="#hd"/>
<path d="M90.00 82.00v-21.00" class="stroke"/>
<use x="109.20" y="79.00" xlink:href="#hd"/>
<path d="M112.70 79.00v-21.00" class="stroke"/>
<use x="131.80" y="76.00" xlink:href="#hd"/>
<path d="M135.30 76.00v-21.00" class="stroke"/>
<use x="154.50" y="79.00" xlink:href="#hd"/>
<path d="M158.00 79.00v-21.00" class="stroke"/>
<use x="184.00" y="76.00" xlink:href="#hd"/>
<path d="M187.50 76.00v-21.00" class="stroke"/>
<use x="207.20" y="73.00" xlink:href="#hd"/>
<path d="M210.70 73.00v-21.00" class="stroke"/>
<defs>
<path id="Hd" class="fill" d="m3 -1.6
	c-1 -1.8 -7 1.4 -6 3.2
	1 1.8 7 -1.4 6 -3.2
	m0.5 -0.3
	c2 3.8 -5 7.6 -7 3.8
	-2 -3.8 5 -7.6 7 -3.8"/>
</defs>
<use x="230.30" y="70.00" xlink:href="#Hd"/>
<path d="M226.80 70.00v21.00" class="stroke"/>
<use x="295.00" y="76.00" xlink:href="#Hd"/>
<path d="M298.50 76.00v-21.00" class="stroke"/>
<use x="327.00" y="67.00" xlink:href="#hd"/>
<path d="M323.50 67.00v21.00" class="stroke"/>
<use x="349.60" y="70.00" xlink:href="#hd"/>
<path d="M346.10 70.00v21.00" class="stroke"/>
<use x="391.70" y="73.00" xlink:href="#hd"/>
<path d="M388.20 73.00v21.00" class="stroke"/>
<use x="414.30" y="76.00" xlink:href="#hd"/>
<path d="M417.80 76.00v-21.00" class="stroke"/>
<use x="437.00" y="79.00" xlink:href="#hd"/>
<path d="M440.50 79.00v-21.00" class="stroke"/>
<use x="459.70" y="79.00" xlink:href="#hd"/>
<path d="M463.20 79.00v-21.00" class="stroke"/>
<defs>
<path id="HD" class="fill" d="m-2.7 -1.4
	c1.5 -2.8 6.9 0 5.3 2.7
	-1.5 2.8 -6.9 0 -5.3 -2.7
	m8.3 1.4
	c0 -1.5 -2.2 -3 -5.6 -3
	-3.4 0 -5.6 1.5 -5.6 3
	0 1.5 2.2 3 5.6 3
	3.4 0 5.6 -1.5 5.6 -3"/>
</defs>
<use x="491.70" y="76.00" xlink:href="#HD"/>
<use x="588.70" y="70.00" xlink:href="#hd"/>
<path d="M585.20 70.00v21.00" class="stroke"/>
<use x="611.40" y="70.00" xlink:href="#hd"/>
<path d="M607.90 70.00v21.00" class="stroke"/>
<use x="634.10" y="70.00" xlink:href="#hd"/>
<path d="M630.60 70.00v21.00" class="stroke"/>
<use x="657.20" y="76.00" xlink:href="#hd"/>
<path d="M660.70 76.00v-21.00" class="stroke"/>
<path class="fill"
	d="M660.70 55.00c0.6 5.6 9.6 9 5.6 18.4
	1.6 -6 -1.3 -11.6 -5.6 -12.8
"/>
<use x="674.60" y="73.00" xlink:href="#hd"/>
<path d="M678.10 73.00v-21.00" class="stroke"/>
<path class="fill"
	d="M678.10 52.00c0.6 5.6 9.6 9 5.6 18.4
	1.6 -6 -1.3 -11.6 -5.6 -12.8
"/>
<defs>
<path id="ubclef" class="fill" d="m-200 -87
	c124 -35 222 -78 254 -236
	43 -228 -167 -246 -192 -103
	59 -80 157 22 92 78
	-62 47 -115 -22 -106 -88
	21 -141 270 -136 274 52
	-1 175 -106 264 -322 297
	m357 -250
	c0 -36 51 -34 51 0
	0 37 -51 36 -51 0
	m-2 -129
	c0 -36 51 -34 51 0
	0 38 -51 37 -51 0"/>
<use id="bclef" transform="translate(0,18) scale(0.045)"
	xlink:href="#ubclef"/>
</defs>
<use x="22.00" y="125.00" xlink:href="#bclef"/>
<use x="37.00" y="137.00" xlink:href="#ft0"/>
<g style="font:bold 16px serif"
	transform="translate(53.00,142.50) scale(1.2,1)">
	<text text-anchor="middle">4</text>
	<text y="-12" text-anchor="middle">4</text>
</g>
<defs>
<path id="hl1" class="stroke" d="m-7 0h14"/>
</defs>
<use x="87.50" y="149.00" xlink:href="#hl1"/>
<use x="87.50" y="155.00" xlink:href="#hl1"/>
<use x="87.50" y="161.00" xlink:href="#hl1"/>
<use x="87.50" y="167.00" xlink:href="#hl1"/>
<use x="87.50" y="167.00" xlink:href="#HD"/>
<use x="87.50" y="146.00" xlink:href="#HD"/>
<use x="87.50" y="140.00" xlink:href="#HD"/>
<use x="87.50" y="134.00" xlink:href="#HD"/>
<use x="87.50" y="128.00" xlink:href="#HD"/>
<use x="184.00" y="134.00" xlink:href="#hd"/>
<path d="M187.50 134.00v-21.00" class="stroke"/>
<use x="207.20" y="128.00" xlink:href="#hd"/>
<path d="M203.70 128.00v21.00" class="stroke"/>
<use x="230.30" y="122.00" xlink:href="#hd"/>
<path d="M226.80 122.00v21.00" class="stroke"/>
<use x="253.00" y="116.00" xlink:href="#hd"/>
<path d="M249.50 116.00v21.00" class="stroke"/>
<use x="296.00" y="149.00" xlink:href="#hl1"/>
<use x="296.00" y="155.00" xlink:href="#hl1"/>
<use x="296.00" y="161.00" xlink:href="#hl1"/>
<use x="296.00" y="167.00" xlink:href="#hl1"/>
<use x="296.00" y="167.00" xlink:href="#HD"/>
<use x="296.00" y="146.00" xlink:href="#HD"/>
<use x="296.00" y="140.00" xlink:href="#HD"/>
<use x="296.00" y="134.00" xlink:href="#HD"/>
<use x="296.00" y="128.00" xlink:href="#HD"/>
<use x="392.70" y="149.00" xlink:href="#hl1"/>
<use x="392.70" y="155.00" xlink:href="#hl1"/>
<use x="392.70" y="161.00" xlink:href="#hl1"/>
<use x="392.70" y="164.00" xlink:href="#HD"/>
<use x="392.70" y="143.00" xlink:href="#HD"/>
<use x="392.70" y="137.00" xlink:href="#HD"/>
<use x="392.70" y="131.00" xlink:href="#HD"/>
<use x="392.70" y="125.00" xlink:href="#HD"/>
<use x="490.70" y="140.00" xlink:href="#hd"/>
<path d="M494.20 140.00v-21.00" class="stroke"/>
<use x="513.40" y="134.00" xlink:href="#hd"/>
<path d="M516.90 134.00v-21.00" class="stroke"/>
<use x="536.50" y="128.00" xlink:href="#hd"/>
<path d="M533.00 128.00v21.00" class="stroke"/>
<use x="559.20" y="122.00" xlink:href="#hd"/>
<path d="M555.70 122.00v21.00" class="stroke"/>
<use x="588.70" y="146.00" xlink:href="#hd"/>
<path d="M592.20 146.00v-21.00" class="stroke"/>
<use x="611.40" y="140.00" xlink:href="#hd"/>
<path d="M614.90 140.00v-21.00" class="stroke"/>
<use x="634.10" y="134.00" xlink:href="#hd"/>
<path d="M637.60 134.00v-21.00" class="stroke"/>
<use x="657.20" y="128.00" xlink:href="#hd"/>
<path d="M653.70 128.00v21.00" class="stroke"/>
<defs>
<path id="ltr" class="fill"
    d="m0 -0.4c2 -1.5 3.4 -1.9 3.9 0.4
	c0.2 0.8 0.7 0.7 2.1 -0.4
	v0.8c-2 1.5 -3.4 1.9 -3.9 -0.4
	c-0.2 -0.8 -0.7 -0.7 -2.1 0.4z"/>
</defs>
<g transform="rotate(270)">
<use x="-170.00" y="74.00" xlink:href="#ltr"/>
<use x="-164.00" y="74.00" xlink:href="#ltr"/>
<use x="-158.00" y="74.00" xlink:href="#ltr"/>
<use x="-152.00" y="74.00" xlink:href="#ltr"/>
<use x="-146.00" y="74.00" xlink:href="#ltr"/>
<use x="-140.00" y="74.00" xlink:href="#ltr"/>
<use x="-134.00" y="74.00" xlink:href="#ltr"/>
<use x="-128.00" y="74.00" xlink:href="#ltr"/>
</g>
<g transform="rotate(270)">
<use x="-170.00" y="282.50" xlink:href="#ltr"/>
<use x="-164.00" y="282.50" xlink:href="#ltr"/>
<use x="-158.00" y="282.50" xlink:href="#ltr"/>
<use x="-152.00" y="282.50" xlink:href="#ltr"/>
<use x="-146.00" y="282.50" xlink:href="#ltr"/>
<use x="-140.00" y="282.50" xlink:href="#ltr"/>
<use x="-134.00" y="282.50" xlink:href="#ltr"/>
<use x="-128.00" y="282.50" xlink:href="#ltr"/>
</g>
<g transform="rotate(270)">
<use x="-167.00" y="379.20" xlink:href="#ltr"/>
<use x="-161.00" y="379.20" xlink:href="#ltr"/>
<use x="-155.00" y="379.20" xlink:href="#ltr"/>
<use x="-149.00" y="379.20" xlink:href="#ltr"/>
<use x="-143.00" y="379.20" xlink:href="#ltr"/>
<use x="-137.00" y="379.20" xlink:href="#ltr"/>
<use x="-131.00" y="379.20" xlink:href="#ltr"/>
<use x="-125.00" y="379.20" xlink:href="#ltr"/>
</g>
</g>
<g stroke-width="0.70" style="font:italic 11.00px Times">
<path class="stroke" stroke-width="1"
	d="M10.00 278.00v-82.00"/>
<g transform="translate(10.00,196.00) scale(1,0.82)">
	<use xlink:href="#brace"/>
</g>
<path class="stroke" stroke-width="1"
	d="M237.50 220.00v-24.00"/>
<path class="stroke" stroke-width="1"
	d="M237.50 278.00v-24.00"/>
<path class="stroke" stroke-width="1"
	d="M420.30 220.00v-24.00"/>
<path class="stroke" stroke-width="1"
	d="M420.30 278.00v-24.00"/>
<path class="stroke" stroke-width="1"
	d="M603.20 220.00v-24.00"/>
<path class="stroke" stroke-width="1"
	d="M603.20 278.00v-24.00"/>
<path class="stroke" stroke-width="1"
	d="M691.60 220.00v-24.00"/>
<path class="stroke" stroke-width="1"
	d="M691.60 278.00v-24.00"/>
<path d="m10.00 220.00
	h681.60
	M10.00 214.00
	h681.60
	M10.00 208.00
	h681.60
	M10.00 202.00
	h681.60
	M10.00 196.00
	h681.60
	" class="stroke"/>
<path d="m10.00 278.00
	h681.60
	M10.00 272.00
	h681.60
	M10.00 266.00
	h681.60
	M10.00 260.00
	h681.60
	M10.00 254.00
	h681.60
	" class="stroke"/>
</g>
<g stroke-width="0.70" style="font:bold 13.00px Times">
<text x="49.30" y="191.40">I<tspan
	 style="font:italic 11.00px Times">Δ⁷</tspan></text>
</g>
<g stroke-width="0.70" style="font:bold 13.00px Times">
<text x="247.50" y="186.40">V<tspan
	 style="font:italic 11.00px Times">⁷</tspan></text>
</g>
<g stroke-width="0.70" style="font:bold 13.00px Times">
<text x="428.30" y="183.40">IV<tspan
	 style="font:italic 11.00px Times">Δ⁷</tspan></text>
</g>
<g stroke-width="0.70" style="font:bold 13.00px Times">
<text x="622.70" y="187.40">I<tspan
	 style="font:italic 11.00px Times">Δ⁷</tspan></text>
</g>
<g stroke-width="0.70" style="font:italic 11.00px Times">
<use x="22.00" y="214.00" xlink:href="#tclef"/>
<use x="37.00" y="208.00" xlink:href="#ft0"/>
<use x="55.00" y="205.00" xlink:href="#hd"/>
<path d="M51.50 205.00v21.00" class="stroke"/>
<use x="100.10" y="205.00" xlink:href="#hd"/>
<path d="M96.60 205.00v21.00" class="stroke"/>
<path class="fill"
	d="M96.60 226.00c0.6 -5.6 9.6 -9 5.6 -18.4
	1.6 6 -1.3 11.6 -5.6 12.8
"/>
<use x="132.00" y="208.00" xlink:href="#hd"/>
<path d="M128.50 208.00v21.00" class="stroke"/>
<path class="fill"
	d="M128.50 229.00c0.6 -5.6 9.6 -9 5.6 -18.4
	1.6 6 -1.3 11.6 -5.6 12.8
"/>
<use x="160.80" y="211.00" xlink:href="#Hd"/>
<path d="M164.30 211.00v-21.00" class="stroke"/>
<use x="253.40" y="214.00" xlink:href="#Hd"/>
<path d="M256.90 214.00v-21.00" class="stroke"/>
<use x="343.70" y="217.00" xlink:href="#hd"/>
<path d="M347.20 217.00v-21.00" class="stroke"/>
<use x="388.80" y="214.00" xlink:href="#hd"/>
<path d="M392.30 214.00v-21.00" class="stroke"/>
<use x="436.30" y="211.00" xlink:href="#hd"/>
<path d="M439.80 211.00v-21.00" class="stroke"/>
<use x="481.40" y="208.00" xlink:href="#hd"/>
<path d="M484.90 208.00v-21.00" class="stroke"/>
<use x="526.50" y="211.00" xlink:href="#hd"/>
<path d="M530.00 211.00v-21.00" class="stroke"/>
<use x="571.70" y="214.00" xlink:href="#hd"/>
<path d="M575.20 214.00v-21.00" class="stroke"/>
<use x="629.40" y="196.00" xlink:href="#HD"/>
<use x="629.40" y="217.00" xlink:href="#HD"/>
<use x="22.00" y="260.00" xlink:href="#bclef"/>
<use x="37.00" y="272.00" xlink:href="#ft0"/>
<use x="55.00" y="281.00" xlink:href="#hd"/>
<path d="M58.50 281.00v-21.00" class="stroke"/>
<use x="100.10" y="275.00" xlink:href="#hd"/>
<path d="M103.60 275.00v-21.00" class="stroke"/>
<use x="160.80" y="269.00" xlink:href="#hd"/>
<path d="M164.30 269.00v-21.00" class="stroke"/>
<use x="205.90" y="263.00" xlink:href="#hd"/>
<path d="M202.40 263.00v21.00" class="stroke"/>
<use x="253.40" y="269.00" xlink:href="#hd"/>
<path d="M256.90 269.00v-21.00" class="stroke"/>
<use x="298.50" y="263.00" xlink:href="#hd"/>
<path d="M295.00 263.00v21.00" class="stroke"/>
<use x="343.70" y="257.00" xlink:href="#hd"/>
<path d="M340.20 257.00v21.00" class="stroke"/>
<use x="388.80" y="251.00" xlink:href="#hd"/>
<path d="M385.30 251.00v21.00" class="stroke"/>
<use x="436.30" y="272.00" xlink:href="#hd"/>
<path d="M439.80 272.00v-21.00" class="stroke"/>
<use x="481.40" y="266.00" xlink:href="#hd"/>
<path d="M484.90 266.00v-21.00" class="stroke"/>
<use x="526.50" y="260.00" xlink:href="#hd"/>
<path d="M523.00 260.00v21.00" class="stroke"/>
<use x="571.70" y="254.00" xlink:href="#hd"/>
<path d="M568.20 254.00v21.00" class="stroke"/>
<use x="629.40" y="284.00" xlink:href="#hl1"/>
<use x="629.40" y="290.00" xlink:href="#hl1"/>
<use x="629.40" y="296.00" xlink:href="#hl1"/>
<use x="629.40" y="302.00" xlink:href="#hl1"/>
<use x="629.40" y="302.00" xlink:href="#HD"/>
<use x="629.40" y="281.00" xlink:href="#HD"/>
<use x="629.40" y="275.00" xlink:href="#HD"/>
<use x="629.40" y="269.00" xlink:href="#HD"/>
<use x="629.40" y="263.00" xlink:href="#HD"/>
<g transform="rotate(270)">
<use x="-305.00" y="615.90" xlink:href="#ltr"/>
<use x="-299.00" y="615.90" xlink:href="#ltr"/>
<use x="-293.00" y="615.90" xlink:href="#ltr"/>
<use x="-287.00" y="615.90" xlink:href="#ltr"/>
<use x="-281.00" y="615.90" xlink:href="#ltr"/>
<use x="-275.00" y="615.90" xlink:href="#ltr"/>
<use x="-269.00" y="615.90" xlink:href="#ltr"/>
<use x="-263.00" y="615.90" xlink:href="#ltr"/>
</g>
</g>
</svg>
