<?xml version="1.0" standalone="no"?>
<!DOCTYPE svg PUBLIC "-//W3C//DTD SVG 1.1//EN"
	"http://www.w3.org/Graphics/SVG/1.1/DTD/svg11.dtd">
<svg xmlns="http://www.w3.org/2000/svg" version="1.1"
	xmlns:xlink="http://www.w3.org/1999/xlink"
	color="black"
	width="701.60px" height="568.40px" viewBox="0 0 701.60 568.40" preserveAspectRatio="xMidYMid meet">
<style type="text/css">
.fill {fill: currentColor}
.stroke {stroke: currentColor; fill: none}
text{white-space: pre}
</style>
<title>/tmp/reharm_hymnal_L2/the_apostle_looked_and_heard_a_voice.abc (1) tune 1</title>
<!-- Creator: abcm2ps-8.14.11 -->
<!-- CreationDate: Apr 24, 2026 15:32 -->
<!-- CommandLine: /tmp/reharm_hymnal_L2/the_apostle_looked_and_heard_a_voice.abc -g -O /tmp/reharm_hymnal_L2/the_apostle_looked_and_heard_a_voice -->
<g stroke-width="0.70">
<!-- title: 226. The Apostle Looked and Heard a Voice -->
</g>
<g stroke-width="0.70" style="font:20.00px Times">
<text x="350.80" y="22.00" text-anchor="middle">226. The Apostle Looked and Heard a Voice</text>
</g>
<g stroke-width="0.70" style="font:20.00px Times">
<path class="stroke" stroke-width="1"
	d="M10.00 143.00v-82.00"/>
<defs>
<path id="brace" class="fill" d="m-2.5 101
	c-4.5 -4.6 -7.5 -12.2 -4.4 -26.8
	3.5 -14.3 3.2 -21.7 -2.1 -24.2
	7.4 2.4 7.3 14.2 3.5 29.5
	-2.7 9.5 -1.5 16.2 3 21.5
	M-2.5 1c-4.5 4.6 -7.5 12.2 -4.4 26.8
	c3.5 14.3 3.2 21.7 -2.1 24.2
	7.4 -2.4 7.3 -14.2 3.5 -29.5
	-2.7 -9.5 -1.5 -16.2 3 -21.5"/>
</defs>
<g transform="translate(10.00,61.00) scale(1,0.82)">
	<use xlink:href="#brace"/>
</g>
<path class="stroke" stroke-width="1"
	d="M180.10 85.00v-24.00"/>
<path class="stroke" stroke-width="1"
	d="M180.10 143.00v-24.00"/>
<path class="stroke" stroke-width="1"
	d="M310.30 85.00v-24.00"/>
<path class="stroke" stroke-width="1"
	d="M310.30 143.00v-24.00"/>
<path class="stroke" stroke-width="1"
	d="M441.40 85.00v-24.00"/>
<path class="stroke" stroke-width="1"
	d="M441.40 143.00v-24.00"/>
<path class="stroke" stroke-width="1"
	d="M585.10 85.00v-24.00"/>
<path class="stroke" stroke-width="1"
	d="M585.10 143.00v-24.00"/>
<path class="stroke" stroke-width="1"
	d="M691.60 85.00v-24.00"/>
<path class="stroke" stroke-width="1"
	d="M691.60 143.00v-24.00"/>
<path d="m10.00 85.00
	h681.60
	M10.00 79.00
	h681.60
	M10.00 73.00
	h681.60
	M10.00 67.00
	h681.60
	M10.00 61.00
	h681.60
	" class="stroke"/>
<path d="m10.00 143.00
	h681.60
	M10.00 137.00
	h681.60
	M10.00 131.00
	h681.60
	M10.00 125.00
	h681.60
	M10.00 119.00
	h681.60
	" class="stroke"/>
</g>
<g stroke-width="0.70" style="font:bold 13.00px Times">
<text x="80.80" y="51.40">I<tspan
	 style="font:italic 11.00px Times">Δ⁷</tspan></text>
</g>
<g stroke-width="0.70" style="font:bold 13.00px Times">
<text x="186.70" y="54.40">V<tspan
	 style="font:italic 11.00px Times">⁷</tspan></text>
</g>
<g stroke-width="0.70" style="font:bold 13.00px Times">
<text x="327.50" y="51.40">V<tspan
	 style="font:italic 11.00px Times">⁷³</tspan></text>
</g>
<g stroke-width="0.70" style="font:bold 13.00px Times">
<text x="458.40" y="51.40">vi<tspan
	 style="font:italic 11.00px Times">m⁷</tspan></text>
</g>
<g stroke-width="0.70" style="font:bold 13.00px Times">
<text x="589.80" y="48.40">V<tspan
	 style="font:italic 11.00px Times">⁷¹</tspan></text>
</g>
<g stroke-width="0.70" style="font:italic 11.00px Times">
<defs>
<path id="utclef" class="fill" d="m-50 -90
	c-72 -41 -72 -158 52 -188
	150 -10 220 188 90 256
	-114 52 -275 0 -293 -136
	-15 -181 93 -229 220 -334
	88 -87 79 -133 62 -210
	-51 33 -94 105 -89 186
	17 267 36 374 49 574
	6 96 -19 134 -77 135
	-80 1 -126 -93 -61 -133
	85 -41 133 101 31 105
	23 17 92 37 90 -92
	-10 -223 -39 -342 -50 -617
	0 -90 0 -162 96 -232
	56 72 63 230 22 289
	-74 106 -257 168 -255 316
	9 153 148 185 252 133
	86 -65 29 -192 -80 -176
	-71 12 -105 67 -59 124"/>
<use id="tclef" transform="translate(0,6) scale(0.045)"
	xlink:href="#utclef"/>
</defs>
<use x="22.00" y="79.00" xlink:href="#tclef"/>
<defs>
<path id="usharp" class="fill" d="
	m136 -702
	v890
	h32
	v-890
	m128 840
	h32
	v-888
	h-32
	m-232 286
	v116
	l338 -96
	v-116
	m-338 442
	v116
	l338 -98
	v-114"/>
<use id="sh0" transform="translate(-4,5) scale(0.018)"
	xlink:href="#usharp"/>
</defs>
<use x="37.00" y="61.00" xlink:href="#sh0"/>
<g style="font:bold 16px serif"
	transform="translate(53.00,84.50) scale(1.2,1)">
	<text text-anchor="middle">4</text>
	<text y="-12" text-anchor="middle">4</text>
</g>
<defs>
<ellipse id="hd" rx="4.1" ry="2.9"
	transform="rotate(-20)" class="fill"/>
</defs>
<use x="86.50" y="79.00" xlink:href="#hd"/>
<path d="M90.00 79.00v-21.00" class="stroke"/>
<use x="111.50" y="73.00" xlink:href="#hd"/>
<path d="M115.00 73.00v-21.00" class="stroke"/>
<use x="136.60" y="73.00" xlink:href="#hd"/>
<path d="M140.10 73.00v-21.00" class="stroke"/>
<use x="161.60" y="76.00" xlink:href="#hd"/>
<path d="M165.10 76.00v-21.00" class="stroke"/>
<use x="192.60" y="67.00" xlink:href="#hd"/>
<path d="M189.10 67.00v21.00" class="stroke"/>
<use x="218.00" y="70.00" xlink:href="#hd"/>
<path d="M214.50 70.00v21.00" class="stroke"/>
<path class="fill"
	d="M214.50 91.00c0.6 -5.6 9.6 -9 5.6 -18.4
	1.6 6 -1.3 11.6 -5.6 12.8
"/>
<use x="236.10" y="73.00" xlink:href="#hd"/>
<path d="M232.60 73.00v21.00" class="stroke"/>
<path class="fill"
	d="M232.60 94.00c0.6 -5.6 9.6 -9 5.6 -18.4
	1.6 6 -1.3 11.6 -5.6 12.8
"/>
<use x="254.30" y="76.00" xlink:href="#hd"/>
<path d="M257.80 76.00v-21.00" class="stroke"/>
<path class="fill"
	d="M257.80 55.00c0.6 5.6 9.6 9 5.6 18.4
	1.6 -6 -1.3 -11.6 -5.6 -12.8
"/>
<use x="273.00" y="79.00" xlink:href="#hd"/>
<path d="M276.50 79.00v-21.00" class="stroke"/>
<path class="fill"
	d="M276.50 58.00c0.6 5.6 9.6 9 5.6 18.4
	1.6 -6 -1.3 -11.6 -5.6 -12.8
"/>
<use x="291.80" y="76.00" xlink:href="#hd"/>
<path d="M295.30 76.00v-21.00" class="stroke"/>
<use x="335.30" y="88.00" xlink:href="#hd"/>
<path d="M338.80 88.00v-21.00" class="stroke"/>
<use x="360.40" y="79.00" xlink:href="#hd"/>
<path d="M363.90 79.00v-21.00" class="stroke"/>
<path class="fill"
	d="M363.90 58.00c0.6 5.6 9.6 9 5.6 18.4
	1.6 -6 -1.3 -11.6 -5.6 -12.8
"/>
<use x="379.10" y="76.00" xlink:href="#hd"/>
<path d="M382.60 76.00v-21.00" class="stroke"/>
<path class="fill"
	d="M382.60 55.00c0.6 5.6 9.6 9 5.6 18.4
	1.6 -6 -1.3 -11.6 -5.6 -12.8
"/>
<use x="397.90" y="73.00" xlink:href="#hd"/>
<path d="M401.40 73.00v-21.00" class="stroke"/>
<use x="423.00" y="76.00" xlink:href="#hd"/>
<path d="M426.50 76.00v-21.00" class="stroke"/>
<use x="466.40" y="79.00" xlink:href="#hd"/>
<path d="M469.90 79.00v-21.00" class="stroke"/>
<path class="fill"
	d="M469.90 58.00c0.6 5.6 9.6 9 5.6 18.4
	1.6 -6 -1.3 -11.6 -5.6 -12.8
"/>
<use x="485.20" y="82.00" xlink:href="#hd"/>
<path d="M488.70 82.00v-21.00" class="stroke"/>
<path class="fill"
	d="M488.70 61.00c0.6 5.6 9.6 9 5.6 18.4
	1.6 -6 -1.3 -11.6 -5.6 -12.8
"/>
<use x="504.00" y="79.00" xlink:href="#hd"/>
<path d="M507.50 79.00v-21.00" class="stroke"/>
<use x="529.10" y="82.00" xlink:href="#hd"/>
<path d="M532.60 82.00v-21.00" class="stroke"/>
<path class="fill"
	d="M532.60 61.00c0.6 5.6 9.6 9 5.6 18.4
	1.6 -6 -1.3 -11.6 -5.6 -12.8
"/>
<use x="547.90" y="85.00" xlink:href="#hd"/>
<path d="M551.40 85.00v-21.00" class="stroke"/>
<path class="fill"
	d="M551.40 64.00c0.6 5.6 9.6 9 5.6 18.4
	1.6 -6 -1.3 -11.6 -5.6 -12.8
"/>
<use x="566.70" y="82.00" xlink:href="#hd"/>
<path d="M570.20 82.00v-21.00" class="stroke"/>
<use x="597.60" y="76.00" xlink:href="#hd"/>
<path d="M601.10 76.00v-21.00" class="stroke"/>
<use x="622.70" y="73.00" xlink:href="#hd"/>
<path d="M626.20 73.00v-21.00" class="stroke"/>
<use x="648.10" y="64.00" xlink:href="#hd"/>
<path d="M644.60 64.00v21.00" class="stroke"/>
<use x="673.10" y="76.00" xlink:href="#hd"/>
<path d="M676.60 76.00v-21.00" class="stroke"/>
<defs>
<path id="ubclef" class="fill" d="m-200 -87
	c124 -35 222 -78 254 -236
	43 -228 -167 -246 -192 -103
	59 -80 157 22 92 78
	-62 47 -115 -22 -106 -88
	21 -141 270 -136 274 52
	-1 175 -106 264 -322 297
	m357 -250
	c0 -36 51 -34 51 0
	0 37 -51 36 -51 0
	m-2 -129
	c0 -36 51 -34 51 0
	0 38 -51 37 -51 0"/>
<use id="bclef" transform="translate(0,18) scale(0.045)"
	xlink:href="#ubclef"/>
</defs>
<use x="22.00" y="125.00" xlink:href="#bclef"/>
<use x="37.00" y="125.00" xlink:href="#sh0"/>
<g style="font:bold 16px serif"
	transform="translate(53.00,142.50) scale(1.2,1)">
	<text text-anchor="middle">4</text>
	<text y="-12" text-anchor="middle">4</text>
</g>
<defs>
<path id="hl1" class="stroke" d="m-7 0h14"/>
</defs>
<use x="87.50" y="149.00" xlink:href="#hl1"/>
<use x="87.50" y="155.00" xlink:href="#hl1"/>
<use x="87.50" y="161.00" xlink:href="#hl1"/>
<defs>
<path id="HD" class="fill" d="m-2.7 -1.4
	c1.5 -2.8 6.9 0 5.3 2.7
	-1.5 2.8 -6.9 0 -5.3 -2.7
	m8.3 1.4
	c0 -1.5 -2.2 -3 -5.6 -3
	-3.4 0 -5.6 1.5 -5.6 3
	0 1.5 2.2 3 5.6 3
	3.4 0 5.6 -1.5 5.6 -3"/>
</defs>
<use x="87.50" y="164.00" xlink:href="#HD"/>
<use x="87.50" y="143.00" xlink:href="#HD"/>
<use x="87.50" y="137.00" xlink:href="#HD"/>
<use x="87.50" y="131.00" xlink:href="#HD"/>
<use x="87.50" y="125.00" xlink:href="#HD"/>
<use x="192.60" y="131.00" xlink:href="#hd"/>
<path d="M196.10 131.00v-21.00" class="stroke"/>
<use x="218.00" y="125.00" xlink:href="#hd"/>
<path d="M214.50 125.00v21.00" class="stroke"/>
<use x="254.30" y="119.00" xlink:href="#hd"/>
<path d="M250.80 119.00v21.00" class="stroke"/>
<defs>
<path id="hl" class="stroke" d="m-6 0h12"/>
</defs>
<use x="291.80" y="113.00" xlink:href="#hl"/>
<use x="291.80" y="113.00" xlink:href="#hd"/>
<path d="M288.30 113.00v21.00" class="stroke"/>
<use x="336.30" y="149.00" xlink:href="#hl1"/>
<use x="336.30" y="113.00" xlink:href="#hl1"/>
<use x="336.30" y="152.00" xlink:href="#HD"/>
<use x="336.30" y="131.00" xlink:href="#HD"/>
<use x="336.30" y="125.00" xlink:href="#HD"/>
<use x="336.30" y="119.00" xlink:href="#HD"/>
<use x="336.30" y="113.00" xlink:href="#HD"/>
<use x="467.40" y="149.00" xlink:href="#hl1"/>
<use x="467.40" y="113.00" xlink:href="#hl1"/>
<use x="467.40" y="110.00" xlink:href="#HD"/>
<use x="467.40" y="149.00" xlink:href="#HD"/>
<use x="467.40" y="128.00" xlink:href="#HD"/>
<use x="467.40" y="122.00" xlink:href="#HD"/>
<use x="467.40" y="116.00" xlink:href="#HD"/>
<use x="597.60" y="131.00" xlink:href="#hd"/>
<path d="M594.10 131.00v21.00" class="stroke"/>
<use x="622.70" y="125.00" xlink:href="#hd"/>
<path d="M619.20 125.00v21.00" class="stroke"/>
<use x="648.10" y="119.00" xlink:href="#hd"/>
<path d="M644.60 119.00v21.00" class="stroke"/>
<use x="673.10" y="113.00" xlink:href="#hl"/>
<use x="673.10" y="113.00" xlink:href="#hd"/>
<path d="M669.60 113.00v21.00" class="stroke"/>
<defs>
<path id="ltr" class="fill"
    d="m0 -0.4c2 -1.5 3.4 -1.9 3.9 0.4
	c0.2 0.8 0.7 0.7 2.1 -0.4
	v0.8c-2 1.5 -3.4 1.9 -3.9 -0.4
	c-0.2 -0.8 -0.7 -0.7 -2.1 0.4z"/>
</defs>
<g transform="rotate(270)">
<use x="-167.00" y="74.00" xlink:href="#ltr"/>
<use x="-161.00" y="74.00" xlink:href="#ltr"/>
<use x="-155.00" y="74.00" xlink:href="#ltr"/>
<use x="-149.00" y="74.00" xlink:href="#ltr"/>
<use x="-143.00" y="74.00" xlink:href="#ltr"/>
<use x="-137.00" y="74.00" xlink:href="#ltr"/>
<use x="-131.00" y="74.00" xlink:href="#ltr"/>
<use x="-125.00" y="74.00" xlink:href="#ltr"/>
</g>
<g transform="rotate(270)">
<use x="-155.00" y="322.80" xlink:href="#ltr"/>
<use x="-149.00" y="322.80" xlink:href="#ltr"/>
<use x="-143.00" y="322.80" xlink:href="#ltr"/>
<use x="-137.00" y="322.80" xlink:href="#ltr"/>
<use x="-131.00" y="322.80" xlink:href="#ltr"/>
<use x="-125.00" y="322.80" xlink:href="#ltr"/>
<use x="-119.00" y="322.80" xlink:href="#ltr"/>
<use x="-113.00" y="322.80" xlink:href="#ltr"/>
</g>
<g transform="rotate(270)">
<use x="-152.00" y="453.90" xlink:href="#ltr"/>
<use x="-146.00" y="453.90" xlink:href="#ltr"/>
<use x="-140.00" y="453.90" xlink:href="#ltr"/>
<use x="-134.00" y="453.90" xlink:href="#ltr"/>
<use x="-128.00" y="453.90" xlink:href="#ltr"/>
<use x="-122.00" y="453.90" xlink:href="#ltr"/>
<use x="-116.00" y="453.90" xlink:href="#ltr"/>
<use x="-110.00" y="453.90" xlink:href="#ltr"/>
</g>
</g>
<g stroke-width="0.70" style="font:italic 11.00px Times">
<path class="stroke" stroke-width="1"
	d="M10.00 275.00v-82.00"/>
<g transform="translate(10.00,193.00) scale(1,0.82)">
	<use xlink:href="#brace"/>
</g>
<path class="stroke" stroke-width="1"
	d="M175.10 217.00v-24.00"/>
<path class="stroke" stroke-width="1"
	d="M175.10 275.00v-24.00"/>
<path class="stroke" stroke-width="1"
	d="M294.90 217.00v-24.00"/>
<path class="stroke" stroke-width="1"
	d="M294.90 275.00v-24.00"/>
<path class="stroke" stroke-width="1"
	d="M414.40 217.00v-24.00"/>
<path class="stroke" stroke-width="1"
	d="M414.40 275.00v-24.00"/>
<path class="stroke" stroke-width="1"
	d="M546.50 217.00v-24.00"/>
<path class="stroke" stroke-width="1"
	d="M546.50 275.00v-24.00"/>
<path class="stroke" stroke-width="1"
	d="M691.60 217.00v-24.00"/>
<path class="stroke" stroke-width="1"
	d="M691.60 275.00v-24.00"/>
<path d="m10.00 217.00
	h681.60
	M10.00 211.00
	h681.60
	M10.00 205.00
	h681.60
	M10.00 199.00
	h681.60
	M10.00 193.00
	h681.60
	" class="stroke"/>
<path d="m10.00 275.00
	h681.60
	M10.00 269.00
	h681.60
	M10.00 263.00
	h681.60
	M10.00 257.00
	h681.60
	M10.00 251.00
	h681.60
	" class="stroke"/>
</g>
<g stroke-width="0.70" style="font:bold 13.00px Times">
<text x="49.10" y="188.40">V<tspan
	 style="font:italic 11.00px Times">⁷</tspan></text>
</g>
<g stroke-width="0.70" style="font:bold 13.00px Times">
<text x="179.70" y="180.40">V<tspan
	 style="font:italic 11.00px Times">⁷¹</tspan></text>
</g>
<g stroke-width="0.70" style="font:bold 13.00px Times">
<text x="299.40" y="183.40">vi<tspan
	 style="font:italic 11.00px Times">m⁷¹</tspan></text>
</g>
<g stroke-width="0.70" style="font:bold 13.00px Times">
<text x="433.70" y="188.40">I<tspan
	 style="font:italic 11.00px Times">Δ⁷</tspan></text>
</g>
<g stroke-width="0.70" style="font:bold 13.00px Times">
<text x="563.50" y="188.40">vii<tspan
	 style="font:italic 11.00px Times">ø⁷²</tspan></text>
</g>
<g stroke-width="0.70" style="font:italic 11.00px Times">
<use x="22.00" y="211.00" xlink:href="#tclef"/>
<use x="37.00" y="193.00" xlink:href="#sh0"/>
<use x="55.00" y="199.00" xlink:href="#hd"/>
<path d="M51.50 199.00v21.00" class="stroke"/>
<use x="83.80" y="211.00" xlink:href="#hd"/>
<path d="M87.30 211.00v-21.00" class="stroke"/>
<use x="112.60" y="208.00" xlink:href="#hd"/>
<path d="M116.10 208.00v-21.00" class="stroke"/>
<path class="fill"
	d="M116.10 187.00c0.6 5.6 9.6 9 5.6 18.4
	1.6 -6 -1.3 -11.6 -5.6 -12.8
"/>
<use x="133.50" y="211.00" xlink:href="#hd"/>
<path d="M137.00 211.00v-21.00" class="stroke"/>
<path class="fill"
	d="M137.00 190.00c0.6 5.6 9.6 9 5.6 18.4
	1.6 -6 -1.3 -11.6 -5.6 -12.8
"/>
<use x="154.50" y="214.00" xlink:href="#hd"/>
<path d="M158.00 214.00v-21.00" class="stroke"/>
<use x="187.60" y="208.00" xlink:href="#hd"/>
<path d="M191.10 208.00v-21.00" class="stroke"/>
<use x="216.40" y="205.00" xlink:href="#hd"/>
<path d="M219.90 205.00v-21.00" class="stroke"/>
<use x="245.40" y="202.00" xlink:href="#hd"/>
<path d="M241.90 202.00v21.00" class="stroke"/>
<use x="274.20" y="199.00" xlink:href="#hd"/>
<path d="M270.70 199.00v21.00" class="stroke"/>
<use x="307.40" y="211.00" xlink:href="#hd"/>
<path d="M310.90 211.00v-21.00" class="stroke"/>
<use x="336.20" y="214.00" xlink:href="#hd"/>
<path d="M339.70 214.00v-21.00" class="stroke"/>
<use x="365.00" y="217.00" xlink:href="#hd"/>
<path d="M368.50 217.00v-21.00" class="stroke"/>
<use x="393.80" y="220.00" xlink:href="#hd"/>
<path d="M397.30 220.00v-21.00" class="stroke"/>
<use x="439.40" y="220.00" xlink:href="#hd"/>
<path d="M442.90 220.00v-21.00" class="stroke"/>
<use x="468.20" y="208.00" xlink:href="#hd"/>
<path d="M471.70 208.00v-21.00" class="stroke"/>
<use x="497.10" y="208.00" xlink:href="#hd"/>
<path d="M500.60 208.00v-21.00" class="stroke"/>
<use x="525.90" y="214.00" xlink:href="#hd"/>
<path d="M529.40 214.00v-21.00" class="stroke"/>
<use x="571.50" y="217.00" xlink:href="#hd"/>
<path d="M575.00 217.00v-21.00" class="stroke"/>
<path class="fill"
	d="M575.00 196.00c0.6 5.6 9.6 9 5.6 18.4
	1.6 -6 -1.3 -11.6 -5.6 -12.8
"/>
<use x="592.40" y="220.00" xlink:href="#hd"/>
<path d="M595.90 220.00v-21.00" class="stroke"/>
<path class="fill"
	d="M595.90 199.00c0.6 5.6 9.6 9 5.6 18.4
	1.6 -6 -1.3 -11.6 -5.6 -12.8
"/>
<use x="613.30" y="211.00" xlink:href="#hd"/>
<path d="M616.80 211.00v-21.00" class="stroke"/>
<use x="642.20" y="208.00" xlink:href="#hd"/>
<path d="M645.70 208.00v-21.00" class="stroke"/>
<use x="671.00" y="205.00" xlink:href="#hd"/>
<path d="M674.50 205.00v-21.00" class="stroke"/>
<use x="22.00" y="257.00" xlink:href="#bclef"/>
<use x="37.00" y="257.00" xlink:href="#sh0"/>
<use x="55.00" y="263.00" xlink:href="#hd"/>
<path d="M51.50 263.00v21.00" class="stroke"/>
<use x="83.80" y="257.00" xlink:href="#hd"/>
<path d="M80.30 257.00v21.00" class="stroke"/>
<use x="112.60" y="251.00" xlink:href="#hd"/>
<path d="M109.10 251.00v21.00" class="stroke"/>
<use x="154.50" y="245.00" xlink:href="#hl"/>
<use x="154.50" y="245.00" xlink:href="#hd"/>
<path d="M151.00 245.00v21.00" class="stroke"/>
<use x="187.60" y="263.00" xlink:href="#hd"/>
<path d="M184.10 263.00v21.00" class="stroke"/>
<use x="216.40" y="257.00" xlink:href="#hd"/>
<path d="M212.90 257.00v21.00" class="stroke"/>
<use x="245.40" y="251.00" xlink:href="#hd"/>
<path d="M241.90 251.00v21.00" class="stroke"/>
<use x="274.20" y="245.00" xlink:href="#hl"/>
<use x="274.20" y="245.00" xlink:href="#hd"/>
<path d="M270.70 245.00v21.00" class="stroke"/>
<use x="307.40" y="260.00" xlink:href="#hd"/>
<path d="M303.90 260.00v21.00" class="stroke"/>
<use x="336.20" y="254.00" xlink:href="#hd"/>
<path d="M332.70 254.00v21.00" class="stroke"/>
<use x="365.00" y="248.00" xlink:href="#hd"/>
<path d="M361.50 248.00v21.00" class="stroke"/>
<use x="393.80" y="245.00" xlink:href="#hl"/>
<use x="393.80" y="242.00" xlink:href="#hd"/>
<path d="M390.30 242.00v21.00" class="stroke"/>
<use x="440.40" y="281.00" xlink:href="#hl1"/>
<use x="440.40" y="287.00" xlink:href="#hl1"/>
<use x="440.40" y="293.00" xlink:href="#hl1"/>
<use x="440.40" y="296.00" xlink:href="#HD"/>
<use x="440.40" y="275.00" xlink:href="#HD"/>
<use x="440.40" y="269.00" xlink:href="#HD"/>
<use x="440.40" y="263.00" xlink:href="#HD"/>
<use x="440.40" y="257.00" xlink:href="#HD"/>
<use x="572.50" y="245.00" xlink:href="#hl1"/>
<use x="572.50" y="239.00" xlink:href="#hl1"/>
<use x="572.50" y="239.00" xlink:href="#HD"/>
<use x="572.50" y="278.00" xlink:href="#HD"/>
<use x="572.50" y="257.00" xlink:href="#HD"/>
<use x="572.50" y="251.00" xlink:href="#HD"/>
<use x="572.50" y="245.00" xlink:href="#HD"/>
<g transform="rotate(270)">
<use x="-299.00" y="426.90" xlink:href="#ltr"/>
<use x="-293.00" y="426.90" xlink:href="#ltr"/>
<use x="-287.00" y="426.90" xlink:href="#ltr"/>
<use x="-281.00" y="426.90" xlink:href="#ltr"/>
<use x="-275.00" y="426.90" xlink:href="#ltr"/>
<use x="-269.00" y="426.90" xlink:href="#ltr"/>
<use x="-263.00" y="426.90" xlink:href="#ltr"/>
<use x="-257.00" y="426.90" xlink:href="#ltr"/>
</g>
<g transform="rotate(270)">
<use x="-281.00" y="559.00" xlink:href="#ltr"/>
<use x="-275.00" y="559.00" xlink:href="#ltr"/>
<use x="-269.00" y="559.00" xlink:href="#ltr"/>
<use x="-263.00" y="559.00" xlink:href="#ltr"/>
<use x="-257.00" y="559.00" xlink:href="#ltr"/>
<use x="-251.00" y="559.00" xlink:href="#ltr"/>
<use x="-245.00" y="559.00" xlink:href="#ltr"/>
<use x="-239.00" y="559.00" xlink:href="#ltr"/>
</g>
</g>
<g stroke-width="0.70" style="font:italic 11.00px Times">
<path class="stroke" stroke-width="1"
	d="M10.00 409.40v-82.00"/>
<g transform="translate(10.00,327.40) scale(1,0.82)">
	<use xlink:href="#brace"/>
</g>
<path class="stroke" stroke-width="1"
	d="M184.00 351.40v-24.00"/>
<path class="stroke" stroke-width="1"
	d="M184.00 409.40v-24.00"/>
<path class="stroke" stroke-width="1"
	d="M321.30 351.40v-24.00"/>
<path class="stroke" stroke-width="1"
	d="M321.30 409.40v-24.00"/>
<path class="stroke" stroke-width="1"
	d="M444.80 351.40v-24.00"/>
<path class="stroke" stroke-width="1"
	d="M444.80 409.40v-24.00"/>
<path class="stroke" stroke-width="1"
	d="M567.20 351.40v-24.00"/>
<path class="stroke" stroke-width="1"
	d="M567.20 409.40v-24.00"/>
<path class="stroke" stroke-width="1"
	d="M691.60 351.40v-24.00"/>
<path class="stroke" stroke-width="1"
	d="M691.60 409.40v-24.00"/>
<path d="m10.00 351.40
	h681.60
	M10.00 345.40
	h681.60
	M10.00 339.40
	h681.60
	M10.00 333.40
	h681.60
	M10.00 327.40
	h681.60
	" class="stroke"/>
<path d="m10.00 409.40
	h681.60
	M10.00 403.40
	h681.60
	M10.00 397.40
	h681.60
	M10.00 391.40
	h681.60
	M10.00 385.40
	h681.60
	" class="stroke"/>
</g>
<g stroke-width="0.70" style="font:bold 13.00px Times">
<text x="64.80" y="311.80">I<tspan
	 style="font:italic 11.00px Times">Δ⁷</tspan></text>
</g>
<g stroke-width="0.70" style="font:bold 13.00px Times">
<text x="201.00" y="314.80">iii<tspan
	 style="font:italic 11.00px Times">m⁷²</tspan></text>
</g>
<g stroke-width="0.70" style="font:bold 13.00px Times">
<text x="328.10" y="322.80">I<tspan
	 style="font:italic 11.00px Times">Δ⁷</tspan></text>
</g>
<g stroke-width="0.70" style="font:bold 13.00px Times">
<text x="449.30" y="317.80">vi<tspan
	 style="font:italic 11.00px Times">m⁷</tspan></text>
</g>
<g stroke-width="0.70" style="font:bold 13.00px Times">
<text x="584.60" y="317.80">I<tspan
	 style="font:italic 11.00px Times">Δ⁷¹</tspan></text>
</g>
<g stroke-width="0.70" style="font:italic 11.00px Times">
<use x="22.00" y="345.40" xlink:href="#tclef"/>
<use x="37.00" y="327.40" xlink:href="#sh0"/>
<use x="70.50" y="339.40" xlink:href="#hd"/>
<path d="M74.00 339.40v-21.00" class="stroke"/>
<use x="97.40" y="333.40" xlink:href="#hd"/>
<path d="M93.90 333.40v21.00" class="stroke"/>
<use x="124.10" y="333.40" xlink:href="#hd"/>
<path d="M120.60 333.40v21.00" class="stroke"/>
<use x="150.80" y="336.40" xlink:href="#hd"/>
<path d="M147.30 336.40v21.00" class="stroke"/>
<path class="fill"
	d="M147.30 357.40c0.6 -5.6 9.6 -9 5.6 -18.4
	1.6 6 -1.3 11.6 -5.6 12.8
"/>
<use x="169.90" y="339.40" xlink:href="#hd"/>
<path d="M166.40 339.40v21.00" class="stroke"/>
<path class="fill"
	d="M166.40 360.40c0.6 -5.6 9.6 -9 5.6 -18.4
	1.6 6 -1.3 11.6 -5.6 12.8
"/>
<use x="209.00" y="342.40" xlink:href="#hd"/>
<path d="M212.50 342.40v-21.00" class="stroke"/>
<path class="fill"
	d="M212.50 321.40c0.6 5.6 9.6 9 5.6 18.4
	1.6 -6 -1.3 -11.6 -5.6 -12.8
"/>
<use x="228.70" y="345.40" xlink:href="#hd"/>
<path d="M232.20 345.40v-21.00" class="stroke"/>
<path class="fill"
	d="M232.20 324.40c0.6 5.6 9.6 9 5.6 18.4
	1.6 -6 -1.3 -11.6 -5.6 -12.8
"/>
<use x="248.60" y="336.40" xlink:href="#hd"/>
<path d="M245.10 336.40v21.00" class="stroke"/>
<use x="275.30" y="333.40" xlink:href="#hd"/>
<path d="M271.80 333.40v21.00" class="stroke"/>
<use x="301.90" y="330.40" xlink:href="#hd"/>
<path d="M298.40 330.40v21.00" class="stroke"/>
<use x="333.80" y="333.40" xlink:href="#hd"/>
<path d="M330.30 333.40v21.00" class="stroke"/>
<use x="360.50" y="330.40" xlink:href="#hd"/>
<path d="M357.00 330.40v21.00" class="stroke"/>
<use x="387.10" y="333.40" xlink:href="#hd"/>
<path d="M383.60 333.40v21.00" class="stroke"/>
<path class="fill"
	d="M383.60 354.40c0.6 -5.6 9.6 -9 5.6 -18.4
	1.6 6 -1.3 11.6 -5.6 12.8
"/>
<use x="406.30" y="336.40" xlink:href="#hd"/>
<path d="M402.80 336.40v21.00" class="stroke"/>
<path class="fill"
	d="M402.80 357.40c0.6 -5.6 9.6 -9 5.6 -18.4
	1.6 6 -1.3 11.6 -5.6 12.8
"/>
<use x="425.40" y="333.40" xlink:href="#hd"/>
<path d="M421.90 333.40v21.00" class="stroke"/>
<use x="457.30" y="345.40" xlink:href="#hd"/>
<path d="M460.80 345.40v-21.00" class="stroke"/>
<use x="484.20" y="336.40" xlink:href="#hd"/>
<path d="M480.70 336.40v21.00" class="stroke"/>
<use x="510.90" y="339.40" xlink:href="#hd"/>
<path d="M507.40 339.40v21.00" class="stroke"/>
<path class="fill"
	d="M507.40 360.40c0.6 -5.6 9.6 -9 5.6 -18.4
	1.6 6 -1.3 11.6 -5.6 12.8
"/>
<use x="528.20" y="342.40" xlink:href="#hd"/>
<path d="M531.70 342.40v-21.00" class="stroke"/>
<path class="fill"
	d="M531.70 321.40c0.6 5.6 9.6 9 5.6 18.4
	1.6 -6 -1.3 -11.6 -5.6 -12.8
"/>
<use x="547.90" y="339.40" xlink:href="#hd"/>
<path d="M551.40 339.40v-21.00" class="stroke"/>
<use x="592.20" y="345.40" xlink:href="#hd"/>
<path d="M595.70 345.40v-21.00" class="stroke"/>
<use x="618.90" y="342.40" xlink:href="#hd"/>
<path d="M622.40 342.40v-21.00" class="stroke"/>
<use x="645.60" y="345.40" xlink:href="#hd"/>
<path d="M649.10 345.40v-21.00" class="stroke"/>
<use x="672.30" y="348.40" xlink:href="#hd"/>
<path d="M675.80 348.40v-21.00" class="stroke"/>
<use x="22.00" y="391.40" xlink:href="#bclef"/>
<use x="37.00" y="391.40" xlink:href="#sh0"/>
<use x="71.50" y="415.40" xlink:href="#hl1"/>
<use x="71.50" y="421.40" xlink:href="#hl1"/>
<use x="71.50" y="427.40" xlink:href="#hl1"/>
<use x="71.50" y="430.40" xlink:href="#HD"/>
<use x="71.50" y="409.40" xlink:href="#HD"/>
<use x="71.50" y="403.40" xlink:href="#HD"/>
<use x="71.50" y="397.40" xlink:href="#HD"/>
<use x="71.50" y="391.40" xlink:href="#HD"/>
<use x="210.00" y="415.40" xlink:href="#hl1"/>
<use x="210.00" y="421.40" xlink:href="#hl1"/>
<use x="210.00" y="424.40" xlink:href="#HD"/>
<use x="210.00" y="403.40" xlink:href="#HD"/>
<use x="210.00" y="397.40" xlink:href="#HD"/>
<use x="210.00" y="391.40" xlink:href="#HD"/>
<use x="210.00" y="385.40" xlink:href="#HD"/>
<use x="333.80" y="409.40" xlink:href="#hd"/>
<path d="M337.30 409.40v-21.00" class="stroke"/>
<use x="360.50" y="403.40" xlink:href="#hd"/>
<path d="M364.00 403.40v-21.00" class="stroke"/>
<use x="387.10" y="397.40" xlink:href="#hd"/>
<path d="M390.60 397.40v-21.00" class="stroke"/>
<use x="425.40" y="391.40" xlink:href="#hd"/>
<path d="M421.90 391.40v21.00" class="stroke"/>
<use x="457.30" y="394.40" xlink:href="#hd"/>
<path d="M453.80 394.40v21.00" class="stroke"/>
<use x="484.20" y="388.40" xlink:href="#hd"/>
<path d="M480.70 388.40v21.00" class="stroke"/>
<use x="510.90" y="382.40" xlink:href="#hd"/>
<path d="M507.40 382.40v21.00" class="stroke"/>
<use x="547.90" y="379.40" xlink:href="#hl"/>
<use x="547.90" y="376.40" xlink:href="#hd"/>
<path d="M544.40 376.40v21.00" class="stroke"/>
<use x="593.20" y="415.40" xlink:href="#hl1"/>
<use x="593.20" y="421.40" xlink:href="#hl1"/>
<use x="593.20" y="427.40" xlink:href="#hl1"/>
<use x="593.20" y="430.40" xlink:href="#HD"/>
<use x="593.20" y="409.40" xlink:href="#HD"/>
<use x="593.20" y="403.40" xlink:href="#HD"/>
<use x="593.20" y="397.40" xlink:href="#HD"/>
<use x="593.20" y="391.40" xlink:href="#HD"/>
<g transform="rotate(270)">
<use x="-433.40" y="58.00" xlink:href="#ltr"/>
<use x="-427.40" y="58.00" xlink:href="#ltr"/>
<use x="-421.40" y="58.00" xlink:href="#ltr"/>
<use x="-415.40" y="58.00" xlink:href="#ltr"/>
<use x="-409.40" y="58.00" xlink:href="#ltr"/>
<use x="-403.40" y="58.00" xlink:href="#ltr"/>
<use x="-397.40" y="58.00" xlink:href="#ltr"/>
<use x="-391.40" y="58.00" xlink:href="#ltr"/>
</g>
<g transform="rotate(270)">
<use x="-427.40" y="196.50" xlink:href="#ltr"/>
<use x="-421.40" y="196.50" xlink:href="#ltr"/>
<use x="-415.40" y="196.50" xlink:href="#ltr"/>
<use x="-409.40" y="196.50" xlink:href="#ltr"/>
<use x="-403.40" y="196.50" xlink:href="#ltr"/>
<use x="-397.40" y="196.50" xlink:href="#ltr"/>
<use x="-391.40" y="196.50" xlink:href="#ltr"/>
<use x="-385.40" y="196.50" xlink:href="#ltr"/>
</g>
<g transform="rotate(270)">
<use x="-433.40" y="579.70" xlink:href="#ltr"/>
<use x="-427.40" y="579.70" xlink:href="#ltr"/>
<use x="-421.40" y="579.70" xlink:href="#ltr"/>
<use x="-415.40" y="579.70" xlink:href="#ltr"/>
<use x="-409.40" y="579.70" xlink:href="#ltr"/>
<use x="-403.40" y="579.70" xlink:href="#ltr"/>
<use x="-397.40" y="579.70" xlink:href="#ltr"/>
<use x="-391.40" y="579.70" xlink:href="#ltr"/>
</g>
</g>
<g stroke-width="0.70" style="font:italic 11.00px Times">
<path class="stroke" stroke-width="1"
	d="M10.00 541.40v-82.00"/>
<g transform="translate(10.00,459.40) scale(1,0.82)">
	<use xlink:href="#brace"/>
</g>
<path class="stroke" stroke-width="1"
	d="M246.50 483.40v-24.00"/>
<path class="stroke" stroke-width="1"
	d="M246.50 541.40v-24.00"/>
<path class="stroke" stroke-width="1"
	d="M444.70 483.40v-24.00"/>
<path class="stroke" stroke-width="1"
	d="M444.70 541.40v-24.00"/>
<path class="stroke" stroke-width="1"
	d="M691.60 483.40v-24.00"/>
<path class="stroke" stroke-width="1"
	d="M691.60 541.40v-24.00"/>
<path d="m10.00 483.40
	h681.60
	M10.00 477.40
	h681.60
	M10.00 471.40
	h681.60
	M10.00 465.40
	h681.60
	M10.00 459.40
	h681.60
	" class="stroke"/>
<path d="m10.00 541.40
	h681.60
	M10.00 535.40
	h681.60
	M10.00 529.40
	h681.60
	M10.00 523.40
	h681.60
	M10.00 517.40
	h681.60
	" class="stroke"/>
</g>
<g stroke-width="0.70" style="font:bold 13.00px Times">
<text x="64.80" y="449.80">I<tspan
	 style="font:italic 11.00px Times">Δ⁷</tspan></text>
</g>
<g stroke-width="0.70" style="font:bold 13.00px Times">
<text x="256.10" y="454.80">I<tspan
	 style="font:italic 11.00px Times">Δ⁷¹</tspan></text>
</g>
<g stroke-width="0.70" style="font:bold 13.00px Times">
<text x="462.10" y="447.80">vi<tspan
	 style="font:italic 11.00px Times">m⁷</tspan></text>
</g>
<g stroke-width="0.70" style="font:italic 11.00px Times">
<use x="22.00" y="477.40" xlink:href="#tclef"/>
<use x="37.00" y="459.40" xlink:href="#sh0"/>
<use x="70.50" y="477.40" xlink:href="#hd"/>
<path d="M74.00 477.40v-21.00" class="stroke"/>
<use x="119.40" y="468.40" xlink:href="#hd"/>
<path d="M115.90 468.40v21.00" class="stroke"/>
<use x="168.30" y="471.40" xlink:href="#hd"/>
<path d="M164.80 471.40v21.00" class="stroke"/>
<use x="212.30" y="474.40" xlink:href="#hd"/>
<path d="M215.80 474.40v-21.00" class="stroke"/>
<use x="263.80" y="465.40" xlink:href="#hd"/>
<path d="M260.30 465.40v21.00" class="stroke"/>
<use x="312.70" y="462.40" xlink:href="#hd"/>
<path d="M309.20 462.40v21.00" class="stroke"/>
<use x="361.60" y="465.40" xlink:href="#hd"/>
<path d="M358.10 465.40v21.00" class="stroke"/>
<use x="410.50" y="480.40" xlink:href="#hd"/>
<path d="M414.00 480.40v-21.00" class="stroke"/>
<use x="470.10" y="456.40" xlink:href="#hd"/>
<path d="M466.60 456.40v40.00" class="stroke"/>
<path class="fill"
	d="M466.60 496.40c0.6 -5.6 9.6 -9 5.6 -18.4
	1.6 6 -1.3 11.6 -5.6 12.8
"/>
<use x="470.10" y="477.40" xlink:href="#hd"/>
<use x="504.70" y="453.40" xlink:href="#hl"/>
<use x="504.70" y="453.40" xlink:href="#hd"/>
<path d="M501.20 453.40v40.00" class="stroke"/>
<path class="fill"
	d="M501.20 493.40c0.6 -5.6 9.6 -9 5.6 -18.4
	1.6 6 -1.3 11.6 -5.6 12.8
"/>
<use x="504.70" y="474.40" xlink:href="#hd"/>
<use x="539.30" y="453.40" xlink:href="#hl"/>
<use x="539.30" y="450.40" xlink:href="#hd"/>
<path d="M535.80 450.40v40.00" class="stroke"/>
<use x="539.30" y="471.40" xlink:href="#hd"/>
<use x="588.20" y="453.40" xlink:href="#hl"/>
<use x="588.20" y="453.40" xlink:href="#hd"/>
<path d="M584.70 453.40v40.00" class="stroke"/>
<path class="fill"
	d="M584.70 493.40c0.6 -5.6 9.6 -9 5.6 -18.4
	1.6 6 -1.3 11.6 -5.6 12.8
"/>
<use x="588.20" y="474.40" xlink:href="#hd"/>
<use x="622.80" y="456.40" xlink:href="#hd"/>
<path d="M619.30 456.40v40.00" class="stroke"/>
<path class="fill"
	d="M619.30 496.40c0.6 -5.6 9.6 -9 5.6 -18.4
	1.6 6 -1.3 11.6 -5.6 12.8
"/>
<use x="622.80" y="477.40" xlink:href="#hd"/>
<use x="657.40" y="456.40" xlink:href="#hd"/>
<path d="M653.90 456.40v40.00" class="stroke"/>
<use x="657.40" y="477.40" xlink:href="#hd"/>
<use x="22.00" y="523.40" xlink:href="#bclef"/>
<use x="37.00" y="523.40" xlink:href="#sh0"/>
<use x="71.50" y="547.40" xlink:href="#hl1"/>
<use x="71.50" y="553.40" xlink:href="#hl1"/>
<use x="71.50" y="559.40" xlink:href="#hl1"/>
<use x="71.50" y="562.40" xlink:href="#HD"/>
<use x="71.50" y="541.40" xlink:href="#HD"/>
<use x="71.50" y="535.40" xlink:href="#HD"/>
<use x="71.50" y="529.40" xlink:href="#HD"/>
<use x="71.50" y="523.40" xlink:href="#HD"/>
<use x="263.80" y="541.40" xlink:href="#hd"/>
<path d="M267.30 541.40v-21.00" class="stroke"/>
<use x="312.70" y="535.40" xlink:href="#hd"/>
<path d="M316.20 535.40v-21.00" class="stroke"/>
<use x="361.60" y="529.40" xlink:href="#hd"/>
<path d="M365.10 529.40v-21.00" class="stroke"/>
<use x="410.50" y="523.40" xlink:href="#hd"/>
<path d="M407.00 523.40v21.00" class="stroke"/>
<use x="471.10" y="547.40" xlink:href="#hl1"/>
<use x="471.10" y="511.40" xlink:href="#hl1"/>
<use x="471.10" y="508.40" xlink:href="#HD"/>
<use x="471.10" y="547.40" xlink:href="#HD"/>
<use x="471.10" y="526.40" xlink:href="#HD"/>
<use x="471.10" y="520.40" xlink:href="#HD"/>
<use x="471.10" y="514.40" xlink:href="#HD"/>
<g transform="rotate(270)">
<use x="-565.40" y="58.00" xlink:href="#ltr"/>
<use x="-559.40" y="58.00" xlink:href="#ltr"/>
<use x="-553.40" y="58.00" xlink:href="#ltr"/>
<use x="-547.40" y="58.00" xlink:href="#ltr"/>
<use x="-541.40" y="58.00" xlink:href="#ltr"/>
<use x="-535.40" y="58.00" xlink:href="#ltr"/>
<use x="-529.40" y="58.00" xlink:href="#ltr"/>
<use x="-523.40" y="58.00" xlink:href="#ltr"/>
</g>
<g transform="rotate(270)">
<use x="-550.40" y="457.60" xlink:href="#ltr"/>
<use x="-544.40" y="457.60" xlink:href="#ltr"/>
<use x="-538.40" y="457.60" xlink:href="#ltr"/>
<use x="-532.40" y="457.60" xlink:href="#ltr"/>
<use x="-526.40" y="457.60" xlink:href="#ltr"/>
<use x="-520.40" y="457.60" xlink:href="#ltr"/>
<use x="-514.40" y="457.60" xlink:href="#ltr"/>
<use x="-508.40" y="457.60" xlink:href="#ltr"/>
</g>
</g>
</svg>
