<?xml version="1.0" standalone="no"?>
<!DOCTYPE svg PUBLIC "-//W3C//DTD SVG 1.1//EN"
	"http://www.w3.org/Graphics/SVG/1.1/DTD/svg11.dtd">
<svg xmlns="http://www.w3.org/2000/svg" version="1.1"
	xmlns:xlink="http://www.w3.org/1999/xlink"
	color="black"
	width="701.60px" height="573.80px" viewBox="0 0 701.60 573.80" preserveAspectRatio="xMidYMid meet">
<style type="text/css">
.fill {fill: currentColor}
.stroke {stroke: currentColor; fill: none}
text{white-space: pre}
</style>
<title>/tmp/reharm_hymnal_L2/thine_arm_o_lord_in_days_of_old.abc (1) tune 1</title>
<!-- Creator: abcm2ps-8.14.11 -->
<!-- CreationDate: Apr 24, 2026 15:33 -->
<!-- CommandLine: /tmp/reharm_hymnal_L2/thine_arm_o_lord_in_days_of_old.abc -g -O /tmp/reharm_hymnal_L2/thine_arm_o_lord_in_days_of_old -->
<g stroke-width="0.70">
<!-- title: 249. Thine Arm, O Lord, in Days of Old -->
</g>
<g stroke-width="0.70" style="font:20.00px Times">
<text x="350.80" y="22.00" text-anchor="middle">249. Thine Arm, O Lord, in Days of Old</text>
</g>
<g stroke-width="0.70" style="font:20.00px Times">
<path class="stroke" stroke-width="1"
	d="M10.00 143.00v-82.00"/>
<defs>
<path id="brace" class="fill" d="m-2.5 101
	c-4.5 -4.6 -7.5 -12.2 -4.4 -26.8
	3.5 -14.3 3.2 -21.7 -2.1 -24.2
	7.4 2.4 7.3 14.2 3.5 29.5
	-2.7 9.5 -1.5 16.2 3 21.5
	M-2.5 1c-4.5 4.6 -7.5 12.2 -4.4 26.8
	c3.5 14.3 3.2 21.7 -2.1 24.2
	7.4 -2.4 7.3 -14.2 3.5 -29.5
	-2.7 -9.5 -1.5 -16.2 3 -21.5"/>
</defs>
<g transform="translate(10.00,61.00) scale(1,0.82)">
	<use xlink:href="#brace"/>
</g>
<path class="stroke" stroke-width="1"
	d="M194.00 85.00v-24.00"/>
<path class="stroke" stroke-width="1"
	d="M194.00 143.00v-24.00"/>
<path class="stroke" stroke-width="1"
	d="M313.70 85.00v-24.00"/>
<path class="stroke" stroke-width="1"
	d="M313.70 143.00v-24.00"/>
<path class="stroke" stroke-width="1"
	d="M463.50 85.00v-24.00"/>
<path class="stroke" stroke-width="1"
	d="M463.50 143.00v-24.00"/>
<path class="stroke" stroke-width="1"
	d="M571.30 85.00v-24.00"/>
<path class="stroke" stroke-width="1"
	d="M571.30 143.00v-24.00"/>
<path class="stroke" stroke-width="1"
	d="M691.60 85.00v-24.00"/>
<path class="stroke" stroke-width="1"
	d="M691.60 143.00v-24.00"/>
<path d="m10.00 85.00
	h681.60
	M10.00 79.00
	h681.60
	M10.00 73.00
	h681.60
	M10.00 67.00
	h681.60
	M10.00 61.00
	h681.60
	" class="stroke"/>
<path d="m10.00 143.00
	h681.60
	M10.00 137.00
	h681.60
	M10.00 131.00
	h681.60
	M10.00 125.00
	h681.60
	M10.00 119.00
	h681.60
	" class="stroke"/>
</g>
<g stroke-width="0.70" style="font:bold 13.00px Times">
<text x="78.50" y="51.40">vi<tspan
	 style="font:italic 11.00px Times">m⁷</tspan></text>
</g>
<g stroke-width="0.70" style="font:bold 13.00px Times">
<text x="211.30" y="56.40">I<tspan
	 style="font:italic 11.00px Times">Δ⁷¹</tspan></text>
</g>
<g stroke-width="0.70" style="font:bold 13.00px Times">
<text x="333.00" y="48.40">I<tspan
	 style="font:italic 11.00px Times">Δ⁷</tspan></text>
</g>
<g stroke-width="0.70" style="font:bold 13.00px Times">
<text x="470.30" y="56.40">I<tspan
	 style="font:italic 11.00px Times">Δ⁷</tspan></text>
</g>
<g stroke-width="0.70" style="font:bold 13.00px Times">
<text x="576.10" y="51.40">I<tspan
	 style="font:italic 11.00px Times">Δ⁷¹</tspan></text>
</g>
<g stroke-width="0.70" style="font:italic 11.00px Times">
<defs>
<path id="utclef" class="fill" d="m-50 -90
	c-72 -41 -72 -158 52 -188
	150 -10 220 188 90 256
	-114 52 -275 0 -293 -136
	-15 -181 93 -229 220 -334
	88 -87 79 -133 62 -210
	-51 33 -94 105 -89 186
	17 267 36 374 49 574
	6 96 -19 134 -77 135
	-80 1 -126 -93 -61 -133
	85 -41 133 101 31 105
	23 17 92 37 90 -92
	-10 -223 -39 -342 -50 -617
	0 -90 0 -162 96 -232
	56 72 63 230 22 289
	-74 106 -257 168 -255 316
	9 153 148 185 252 133
	86 -65 29 -192 -80 -176
	-71 12 -105 67 -59 124"/>
<use id="tclef" transform="translate(0,6) scale(0.045)"
	xlink:href="#utclef"/>
</defs>
<use x="22.00" y="79.00" xlink:href="#tclef"/>
<defs>
<path id="usharp" class="fill" d="
	m136 -702
	v890
	h32
	v-890
	m128 840
	h32
	v-888
	h-32
	m-232 286
	v116
	l338 -96
	v-116
	m-338 442
	v116
	l338 -98
	v-114"/>
<use id="sh0" transform="translate(-4,5) scale(0.018)"
	xlink:href="#usharp"/>
</defs>
<use x="37.00" y="61.00" xlink:href="#sh0"/>
<g style="font:bold 16px serif"
	transform="translate(53.00,84.50) scale(1.2,1)">
	<text text-anchor="middle">4</text>
	<text y="-12" text-anchor="middle">4</text>
</g>
<defs>
<ellipse id="hd" rx="4.1" ry="2.9"
	transform="rotate(-20)" class="fill"/>
</defs>
<use x="86.50" y="79.00" xlink:href="#hd"/>
<path d="M90.00 79.00v-21.00" class="stroke"/>
<path class="fill"
	d="M90.00 58.00c0.6 5.6 9.6 9 5.6 18.4
	1.6 -6 -1.3 -11.6 -5.6 -12.8
"/>
<use x="105.50" y="82.00" xlink:href="#hd"/>
<path d="M109.00 82.00v-21.00" class="stroke"/>
<path class="fill"
	d="M109.00 61.00c0.6 5.6 9.6 9 5.6 18.4
	1.6 -6 -1.3 -11.6 -5.6 -12.8
"/>
<use x="124.50" y="85.00" xlink:href="#hd"/>
<path d="M128.00 85.00v-21.00" class="stroke"/>
<use x="149.90" y="85.00" xlink:href="#hd"/>
<path d="M153.40 85.00v-21.00" class="stroke"/>
<use x="175.30" y="85.00" xlink:href="#hd"/>
<path d="M178.80 85.00v-21.00" class="stroke"/>
<use x="219.00" y="88.00" xlink:href="#hd"/>
<path d="M222.50 88.00v-21.00" class="stroke"/>
<use x="244.30" y="79.00" xlink:href="#hd"/>
<path d="M247.80 79.00v-21.00" class="stroke"/>
<use x="269.70" y="79.00" xlink:href="#hd"/>
<path d="M273.20 79.00v-21.00" class="stroke"/>
<use x="295.10" y="76.00" xlink:href="#hd"/>
<path d="M298.60 76.00v-21.00" class="stroke"/>
<use x="338.70" y="79.00" xlink:href="#hd"/>
<path d="M342.20 79.00v-21.00" class="stroke"/>
<path class="fill"
	d="M342.20 58.00c0.6 5.6 9.6 9 5.6 18.4
	1.6 -6 -1.3 -11.6 -5.6 -12.8
"/>
<use x="357.80" y="76.00" xlink:href="#hd"/>
<path d="M361.30 76.00v-21.00" class="stroke"/>
<path class="fill"
	d="M361.30 55.00c0.6 5.6 9.6 9 5.6 18.4
	1.6 -6 -1.3 -11.6 -5.6 -12.8
"/>
<use x="376.80" y="73.00" xlink:href="#hd"/>
<path d="M380.30 73.00v-21.00" class="stroke"/>
<use x="402.10" y="73.00" xlink:href="#hd"/>
<path d="M405.60 73.00v-21.00" class="stroke"/>
<use x="427.50" y="76.00" xlink:href="#hd"/>
<path d="M431.00 76.00v-21.00" class="stroke"/>
<path class="fill"
	d="M431.00 55.00c0.6 5.6 9.6 9 5.6 18.4
	1.6 -6 -1.3 -11.6 -5.6 -12.8
"/>
<use x="446.50" y="79.00" xlink:href="#hd"/>
<path d="M450.00 79.00v-21.00" class="stroke"/>
<path class="fill"
	d="M450.00 58.00c0.6 5.6 9.6 9 5.6 18.4
	1.6 -6 -1.3 -11.6 -5.6 -12.8
"/>
<use x="476.00" y="85.00" xlink:href="#hd"/>
<path d="M479.50 85.00v-21.00" class="stroke"/>
<defs>
<path id="Hd" class="fill" d="m3 -1.6
	c-1 -1.8 -7 1.4 -6 3.2
	1 1.8 7 -1.4 6 -3.2
	m0.5 -0.3
	c2 3.8 -5 7.6 -7 3.8
	-2 -3.8 5 -7.6 7 -3.8"/>
</defs>
<use x="501.50" y="88.00" xlink:href="#Hd"/>
<circle class="fill" cx="510.20" cy="88.00" r="1.2"/>
<path d="M505.00 88.00v-21.00" class="stroke"/>
<use x="583.80" y="79.00" xlink:href="#hd"/>
<path d="M587.30 79.00v-21.00" class="stroke"/>
<path class="fill"
	d="M587.30 58.00c0.6 5.6 9.6 9 5.6 18.4
	1.6 -6 -1.3 -11.6 -5.6 -12.8
"/>
<use x="602.80" y="82.00" xlink:href="#hd"/>
<path d="M606.30 82.00v-21.00" class="stroke"/>
<path class="fill"
	d="M606.30 61.00c0.6 5.6 9.6 9 5.6 18.4
	1.6 -6 -1.3 -11.6 -5.6 -12.8
"/>
<use x="621.80" y="85.00" xlink:href="#hd"/>
<path d="M625.30 85.00v-21.00" class="stroke"/>
<use x="647.20" y="85.00" xlink:href="#hd"/>
<path d="M650.70 85.00v-21.00" class="stroke"/>
<use x="672.90" y="85.00" xlink:href="#hd"/>
<path d="M676.40 85.00v-21.00" class="stroke"/>
<defs>
<path id="ubclef" class="fill" d="m-200 -87
	c124 -35 222 -78 254 -236
	43 -228 -167 -246 -192 -103
	59 -80 157 22 92 78
	-62 47 -115 -22 -106 -88
	21 -141 270 -136 274 52
	-1 175 -106 264 -322 297
	m357 -250
	c0 -36 51 -34 51 0
	0 37 -51 36 -51 0
	m-2 -129
	c0 -36 51 -34 51 0
	0 38 -51 37 -51 0"/>
<use id="bclef" transform="translate(0,18) scale(0.045)"
	xlink:href="#ubclef"/>
</defs>
<use x="22.00" y="125.00" xlink:href="#bclef"/>
<use x="37.00" y="125.00" xlink:href="#sh0"/>
<g style="font:bold 16px serif"
	transform="translate(53.00,142.50) scale(1.2,1)">
	<text text-anchor="middle">4</text>
	<text y="-12" text-anchor="middle">4</text>
</g>
<defs>
<path id="hl1" class="stroke" d="m-7 0h14"/>
</defs>
<use x="87.50" y="149.00" xlink:href="#hl1"/>
<use x="87.50" y="113.00" xlink:href="#hl1"/>
<defs>
<path id="HD" class="fill" d="m-2.7 -1.4
	c1.5 -2.8 6.9 0 5.3 2.7
	-1.5 2.8 -6.9 0 -5.3 -2.7
	m8.3 1.4
	c0 -1.5 -2.2 -3 -5.6 -3
	-3.4 0 -5.6 1.5 -5.6 3
	0 1.5 2.2 3 5.6 3
	3.4 0 5.6 -1.5 5.6 -3"/>
</defs>
<use x="87.50" y="110.00" xlink:href="#HD"/>
<use x="87.50" y="149.00" xlink:href="#HD"/>
<use x="87.50" y="128.00" xlink:href="#HD"/>
<use x="87.50" y="122.00" xlink:href="#HD"/>
<use x="87.50" y="116.00" xlink:href="#HD"/>
<use x="220.00" y="149.00" xlink:href="#hl1"/>
<use x="220.00" y="155.00" xlink:href="#hl1"/>
<use x="220.00" y="161.00" xlink:href="#hl1"/>
<use x="220.00" y="164.00" xlink:href="#HD"/>
<use x="220.00" y="143.00" xlink:href="#HD"/>
<use x="220.00" y="137.00" xlink:href="#HD"/>
<use x="220.00" y="131.00" xlink:href="#HD"/>
<use x="220.00" y="125.00" xlink:href="#HD"/>
<use x="339.70" y="149.00" xlink:href="#hl1"/>
<use x="339.70" y="155.00" xlink:href="#hl1"/>
<use x="339.70" y="161.00" xlink:href="#hl1"/>
<use x="339.70" y="164.00" xlink:href="#HD"/>
<use x="339.70" y="143.00" xlink:href="#HD"/>
<use x="339.70" y="137.00" xlink:href="#HD"/>
<use x="339.70" y="131.00" xlink:href="#HD"/>
<use x="339.70" y="125.00" xlink:href="#HD"/>
<use x="476.00" y="143.00" xlink:href="#hd"/>
<path d="M479.50 143.00v-21.00" class="stroke"/>
<use x="501.50" y="137.00" xlink:href="#hd"/>
<path d="M505.00 137.00v-21.00" class="stroke"/>
<use x="526.80" y="131.00" xlink:href="#hd"/>
<path d="M530.30 131.00v-21.00" class="stroke"/>
<use x="552.60" y="125.00" xlink:href="#hd"/>
<path d="M549.10 125.00v21.00" class="stroke"/>
<use x="583.80" y="143.00" xlink:href="#hd"/>
<path d="M587.30 143.00v-21.00" class="stroke"/>
<use x="621.80" y="137.00" xlink:href="#hd"/>
<path d="M625.30 137.00v-21.00" class="stroke"/>
<use x="647.20" y="131.00" xlink:href="#hd"/>
<path d="M650.70 131.00v-21.00" class="stroke"/>
<use x="672.90" y="125.00" xlink:href="#hd"/>
<path d="M669.40 125.00v21.00" class="stroke"/>
<defs>
<path id="ltr" class="fill"
    d="m0 -0.4c2 -1.5 3.4 -1.9 3.9 0.4
	c0.2 0.8 0.7 0.7 2.1 -0.4
	v0.8c-2 1.5 -3.4 1.9 -3.9 -0.4
	c-0.2 -0.8 -0.7 -0.7 -2.1 0.4z"/>
</defs>
<g transform="rotate(270)">
<use x="-152.00" y="74.00" xlink:href="#ltr"/>
<use x="-146.00" y="74.00" xlink:href="#ltr"/>
<use x="-140.00" y="74.00" xlink:href="#ltr"/>
<use x="-134.00" y="74.00" xlink:href="#ltr"/>
<use x="-128.00" y="74.00" xlink:href="#ltr"/>
<use x="-122.00" y="74.00" xlink:href="#ltr"/>
<use x="-116.00" y="74.00" xlink:href="#ltr"/>
<use x="-110.00" y="74.00" xlink:href="#ltr"/>
</g>
<g transform="rotate(270)">
<use x="-167.00" y="206.50" xlink:href="#ltr"/>
<use x="-161.00" y="206.50" xlink:href="#ltr"/>
<use x="-155.00" y="206.50" xlink:href="#ltr"/>
<use x="-149.00" y="206.50" xlink:href="#ltr"/>
<use x="-143.00" y="206.50" xlink:href="#ltr"/>
<use x="-137.00" y="206.50" xlink:href="#ltr"/>
<use x="-131.00" y="206.50" xlink:href="#ltr"/>
<use x="-125.00" y="206.50" xlink:href="#ltr"/>
</g>
<g transform="rotate(270)">
<use x="-167.00" y="326.20" xlink:href="#ltr"/>
<use x="-161.00" y="326.20" xlink:href="#ltr"/>
<use x="-155.00" y="326.20" xlink:href="#ltr"/>
<use x="-149.00" y="326.20" xlink:href="#ltr"/>
<use x="-143.00" y="326.20" xlink:href="#ltr"/>
<use x="-137.00" y="326.20" xlink:href="#ltr"/>
<use x="-131.00" y="326.20" xlink:href="#ltr"/>
<use x="-125.00" y="326.20" xlink:href="#ltr"/>
</g>
</g>
<g stroke-width="0.70" style="font:italic 11.00px Times">
<path class="stroke" stroke-width="1"
	d="M10.00 277.40v-82.00"/>
<g transform="translate(10.00,195.40) scale(1,0.82)">
	<use xlink:href="#brace"/>
</g>
<path class="stroke" stroke-width="1"
	d="M164.80 219.40v-24.00"/>
<path class="stroke" stroke-width="1"
	d="M164.80 277.40v-24.00"/>
<path class="stroke" stroke-width="1"
	d="M317.90 219.40v-24.00"/>
<path class="stroke" stroke-width="1"
	d="M317.90 277.40v-24.00"/>
<path class="stroke" stroke-width="1"
	d="M406.50 219.40v-24.00"/>
<path class="stroke" stroke-width="1"
	d="M406.50 277.40v-24.00"/>
<path class="stroke" stroke-width="1"
	d="M569.30 219.40v-24.00"/>
<path class="stroke" stroke-width="1"
	d="M569.30 277.40v-24.00"/>
<path class="stroke" stroke-width="1"
	d="M691.60 219.40v-24.00"/>
<path class="stroke" stroke-width="1"
	d="M691.60 277.40v-24.00"/>
<path d="m10.00 219.40
	h681.60
	M10.00 213.40
	h681.60
	M10.00 207.40
	h681.60
	M10.00 201.40
	h681.60
	M10.00 195.40
	h681.60
	" class="stroke"/>
<path d="m10.00 277.40
	h681.60
	M10.00 271.40
	h681.60
	M10.00 265.40
	h681.60
	M10.00 259.40
	h681.60
	M10.00 253.40
	h681.60
	" class="stroke"/>
</g>
<g stroke-width="0.70" style="font:bold 13.00px Times">
<text x="49.30" y="190.80">I<tspan
	 style="font:italic 11.00px Times">Δ⁷</tspan></text>
</g>
<g stroke-width="0.70" style="font:bold 13.00px Times">
<text x="171.60" y="185.80">I<tspan
	 style="font:italic 11.00px Times">Δ⁷</tspan></text>
</g>
<g stroke-width="0.70" style="font:bold 13.00px Times">
<text x="334.90" y="190.80">vi<tspan
	 style="font:italic 11.00px Times">m⁷</tspan></text>
</g>
<g stroke-width="0.70" style="font:bold 13.00px Times">
<text x="425.80" y="179.80">I<tspan
	 style="font:italic 11.00px Times">Δ⁷</tspan></text>
</g>
<g stroke-width="0.70" style="font:bold 13.00px Times">
<text x="576.00" y="185.80">I<tspan
	 style="font:italic 11.00px Times">Δ⁷</tspan></text>
</g>
<g stroke-width="0.70" style="font:italic 11.00px Times">
<use x="22.00" y="213.40" xlink:href="#tclef"/>
<use x="37.00" y="195.40" xlink:href="#sh0"/>
<use x="55.00" y="222.40" xlink:href="#hd"/>
<path d="M58.50 222.40v-21.00" class="stroke"/>
<use x="84.50" y="213.40" xlink:href="#hd"/>
<path d="M88.00 213.40v-21.00" class="stroke"/>
<use x="114.00" y="213.40" xlink:href="#hd"/>
<path d="M117.50 213.40v-21.00" class="stroke"/>
<use x="143.70" y="210.40" xlink:href="#hd"/>
<path d="M147.20 210.40v-21.00" class="stroke"/>
<use x="177.30" y="213.40" xlink:href="#hd"/>
<path d="M180.80 213.40v-21.00" class="stroke"/>
<path class="fill"
	d="M180.80 192.40c0.6 5.6 9.6 9 5.6 18.4
	1.6 -6 -1.3 -11.6 -5.6 -12.8
"/>
<use x="198.80" y="210.40" xlink:href="#hd"/>
<path d="M202.30 210.40v-21.00" class="stroke"/>
<path class="fill"
	d="M202.30 189.40c0.6 5.6 9.6 9 5.6 18.4
	1.6 -6 -1.3 -11.6 -5.6 -12.8
"/>
<use x="220.20" y="207.40" xlink:href="#hd"/>
<path d="M223.70 207.40v-21.00" class="stroke"/>
<use x="249.70" y="207.40" xlink:href="#hd"/>
<path d="M253.20 207.40v-21.00" class="stroke"/>
<use x="279.40" y="210.40" xlink:href="#hd"/>
<path d="M282.90 210.40v-21.00" class="stroke"/>
<path class="fill"
	d="M282.90 189.40c0.6 5.6 9.6 9 5.6 18.4
	1.6 -6 -1.3 -11.6 -5.6 -12.8
"/>
<use x="300.90" y="213.40" xlink:href="#hd"/>
<path d="M304.40 213.40v-21.00" class="stroke"/>
<path class="fill"
	d="M304.40 192.40c0.6 5.6 9.6 9 5.6 18.4
	1.6 -6 -1.3 -11.6 -5.6 -12.8
"/>
<use x="342.90" y="219.40" xlink:href="#hd"/>
<path d="M346.40 219.40v-21.00" class="stroke"/>
<use x="372.40" y="219.40" xlink:href="#Hd"/>
<circle class="fill" cx="381.10" cy="216.40" r="1.2"/>
<path d="M375.90 219.40v-21.00" class="stroke"/>
<use x="431.50" y="207.40" xlink:href="#hd"/>
<path d="M435.00 207.40v-21.00" class="stroke"/>
<path class="fill"
	d="M435.00 186.40c0.6 5.6 9.6 9 5.6 18.4
	1.6 -6 -1.3 -11.6 -5.6 -12.8
"/>
<use x="453.20" y="204.40" xlink:href="#hd"/>
<path d="M449.70 204.40v21.00" class="stroke"/>
<path class="fill"
	d="M449.70 225.40c0.6 -5.6 9.6 -9 5.6 -18.4
	1.6 6 -1.3 11.6 -5.6 12.8
"/>
<use x="474.20" y="201.40" xlink:href="#hd"/>
<path d="M470.70 201.40v21.00" class="stroke"/>
<use x="503.70" y="207.40" xlink:href="#hd"/>
<path d="M500.20 207.40v21.00" class="stroke"/>
<use x="533.20" y="207.40" xlink:href="#hd"/>
<path d="M529.70 207.40v21.00" class="stroke"/>
<path class="fill"
	d="M529.70 228.40c0.6 -5.6 9.6 -9 5.6 -18.4
	1.6 6 -1.3 11.6 -5.6 12.8
"/>
<use x="552.30" y="210.40" xlink:href="#hd"/>
<path d="M555.80 210.40v-21.00" class="stroke"/>
<path class="fill"
	d="M555.80 189.40c0.6 5.6 9.6 9 5.6 18.4
	1.6 -6 -1.3 -11.6 -5.6 -12.8
"/>
<use x="581.80" y="213.40" xlink:href="#hd"/>
<path d="M585.30 213.40v-21.00" class="stroke"/>
<use x="611.30" y="210.40" xlink:href="#hd"/>
<path d="M614.80 210.40v-21.00" class="stroke"/>
<use x="640.80" y="210.40" xlink:href="#hd"/>
<path d="M644.30 210.40v-21.00" class="stroke"/>
<use x="670.50" y="207.40" xlink:href="#hd"/>
<path d="M674.00 207.40v-21.00" class="stroke"/>
<use x="22.00" y="259.40" xlink:href="#bclef"/>
<use x="37.00" y="259.40" xlink:href="#sh0"/>
<use x="55.00" y="277.40" xlink:href="#hd"/>
<path d="M58.50 277.40v-21.00" class="stroke"/>
<use x="84.50" y="271.40" xlink:href="#hd"/>
<path d="M88.00 271.40v-21.00" class="stroke"/>
<use x="114.00" y="265.40" xlink:href="#hd"/>
<path d="M117.50 265.40v-21.00" class="stroke"/>
<use x="143.70" y="259.40" xlink:href="#hd"/>
<path d="M140.20 259.40v21.00" class="stroke"/>
<use x="177.30" y="277.40" xlink:href="#hd"/>
<path d="M180.80 277.40v-21.00" class="stroke"/>
<use x="220.20" y="271.40" xlink:href="#hd"/>
<path d="M223.70 271.40v-21.00" class="stroke"/>
<use x="249.70" y="265.40" xlink:href="#hd"/>
<path d="M253.20 265.40v-21.00" class="stroke"/>
<use x="279.40" y="259.40" xlink:href="#hd"/>
<path d="M275.90 259.40v21.00" class="stroke"/>
<use x="343.90" y="283.40" xlink:href="#hl1"/>
<use x="343.90" y="247.40" xlink:href="#hl1"/>
<use x="343.90" y="244.40" xlink:href="#HD"/>
<use x="343.90" y="283.40" xlink:href="#HD"/>
<use x="343.90" y="262.40" xlink:href="#HD"/>
<use x="343.90" y="256.40" xlink:href="#HD"/>
<use x="343.90" y="250.40" xlink:href="#HD"/>
<use x="432.50" y="283.40" xlink:href="#hl1"/>
<use x="432.50" y="289.40" xlink:href="#hl1"/>
<use x="432.50" y="295.40" xlink:href="#hl1"/>
<use x="432.50" y="298.40" xlink:href="#HD"/>
<use x="432.50" y="277.40" xlink:href="#HD"/>
<use x="432.50" y="271.40" xlink:href="#HD"/>
<use x="432.50" y="265.40" xlink:href="#HD"/>
<use x="432.50" y="259.40" xlink:href="#HD"/>
<use x="581.80" y="277.40" xlink:href="#hd"/>
<path d="M585.30 277.40v-21.00" class="stroke"/>
<use x="611.30" y="271.40" xlink:href="#hd"/>
<path d="M614.80 271.40v-21.00" class="stroke"/>
<use x="640.80" y="265.40" xlink:href="#hd"/>
<path d="M644.30 265.40v-21.00" class="stroke"/>
<use x="670.50" y="259.40" xlink:href="#hd"/>
<path d="M667.00 259.40v21.00" class="stroke"/>
<g transform="rotate(270)">
<use x="-286.40" y="330.40" xlink:href="#ltr"/>
<use x="-280.40" y="330.40" xlink:href="#ltr"/>
<use x="-274.40" y="330.40" xlink:href="#ltr"/>
<use x="-268.40" y="330.40" xlink:href="#ltr"/>
<use x="-262.40" y="330.40" xlink:href="#ltr"/>
<use x="-256.40" y="330.40" xlink:href="#ltr"/>
<use x="-250.40" y="330.40" xlink:href="#ltr"/>
<use x="-244.40" y="330.40" xlink:href="#ltr"/>
</g>
<g transform="rotate(270)">
<use x="-301.40" y="419.00" xlink:href="#ltr"/>
<use x="-295.40" y="419.00" xlink:href="#ltr"/>
<use x="-289.40" y="419.00" xlink:href="#ltr"/>
<use x="-283.40" y="419.00" xlink:href="#ltr"/>
<use x="-277.40" y="419.00" xlink:href="#ltr"/>
<use x="-271.40" y="419.00" xlink:href="#ltr"/>
<use x="-265.40" y="419.00" xlink:href="#ltr"/>
<use x="-259.40" y="419.00" xlink:href="#ltr"/>
</g>
</g>
<g stroke-width="0.70" style="font:italic 11.00px Times">
<path class="stroke" stroke-width="1"
	d="M10.00 409.40v-82.00"/>
<g transform="translate(10.00,327.40) scale(1,0.82)">
	<use xlink:href="#brace"/>
</g>
<path class="stroke" stroke-width="1"
	d="M172.70 351.40v-24.00"/>
<path class="stroke" stroke-width="1"
	d="M172.70 409.40v-24.00"/>
<path class="stroke" stroke-width="1"
	d="M278.40 351.40v-24.00"/>
<path class="stroke" stroke-width="1"
	d="M278.40 409.40v-24.00"/>
<path class="stroke" stroke-width="1"
	d="M413.80 351.40v-24.00"/>
<path class="stroke" stroke-width="1"
	d="M413.80 409.40v-24.00"/>
<path class="stroke" stroke-width="1"
	d="M544.10 351.40v-24.00"/>
<path class="stroke" stroke-width="1"
	d="M544.10 409.40v-24.00"/>
<path class="stroke" stroke-width="1"
	d="M691.60 351.40v-24.00"/>
<path class="stroke" stroke-width="1"
	d="M691.60 409.40v-24.00"/>
<path d="m10.00 351.40
	h681.60
	M10.00 345.40
	h681.60
	M10.00 339.40
	h681.60
	M10.00 333.40
	h681.60
	M10.00 327.40
	h681.60
	" class="stroke"/>
<path d="m10.00 409.40
	h681.60
	M10.00 403.40
	h681.60
	M10.00 397.40
	h681.60
	M10.00 391.40
	h681.60
	M10.00 385.40
	h681.60
	" class="stroke"/>
</g>
<g stroke-width="0.70" style="font:bold 13.00px Times">
<text x="47.30" y="314.80">I<tspan
	 style="font:italic 11.00px Times">Δ⁷¹</tspan></text>
</g>
<g stroke-width="0.70" style="font:bold 13.00px Times">
<text x="179.50" y="320.80">I<tspan
	 style="font:italic 11.00px Times">Δ⁷</tspan></text>
</g>
<g stroke-width="0.70" style="font:bold 13.00px Times">
<text x="283.20" y="317.80">I<tspan
	 style="font:italic 11.00px Times">Δ⁷¹</tspan></text>
</g>
<g stroke-width="0.70" style="font:bold 13.00px Times">
<text x="430.80" y="320.80">ii<tspan
	 style="font:italic 11.00px Times">m⁷</tspan></text>
</g>
<g stroke-width="0.70" style="font:bold 13.00px Times">
<text x="561.40" y="314.80">I<tspan
	 style="font:italic 11.00px Times">Δ⁷¹</tspan></text>
</g>
<g stroke-width="0.70" style="font:italic 11.00px Times">
<use x="22.00" y="345.40" xlink:href="#tclef"/>
<use x="37.00" y="327.40" xlink:href="#sh0"/>
<use x="55.00" y="345.40" xlink:href="#hd"/>
<path d="M58.50 345.40v-21.00" class="stroke"/>
<path class="fill"
	d="M58.50 324.40c0.6 5.6 9.6 9 5.6 18.4
	1.6 -6 -1.3 -11.6 -5.6 -12.8
"/>
<use x="73.60" y="342.40" xlink:href="#hd"/>
<path d="M77.10 342.40v-21.00" class="stroke"/>
<path class="fill"
	d="M77.10 321.40c0.6 5.6 9.6 9 5.6 18.4
	1.6 -6 -1.3 -11.6 -5.6 -12.8
"/>
<use x="92.30" y="339.40" xlink:href="#hd"/>
<path d="M95.80 339.40v-21.00" class="stroke"/>
<use x="117.10" y="339.40" xlink:href="#hd"/>
<path d="M120.60 339.40v-21.00" class="stroke"/>
<path class="fill"
	d="M120.60 318.40c0.6 5.6 9.6 9 5.6 18.4
	1.6 -6 -1.3 -11.6 -5.6 -12.8
"/>
<use x="135.70" y="342.40" xlink:href="#hd"/>
<path d="M139.20 342.40v-21.00" class="stroke"/>
<path class="fill"
	d="M139.20 321.40c0.6 5.6 9.6 9 5.6 18.4
	1.6 -6 -1.3 -11.6 -5.6 -12.8
"/>
<use x="154.40" y="345.40" xlink:href="#hd"/>
<path d="M157.90 345.40v-21.00" class="stroke"/>
<use x="185.20" y="351.40" xlink:href="#hd"/>
<path d="M188.70 351.40v-21.00" class="stroke"/>
<use x="210.10" y="354.40" xlink:href="#Hd"/>
<circle class="fill" cx="218.80" cy="354.40" r="1.2"/>
<path d="M213.60 354.40v-21.00" class="stroke"/>
<use x="290.90" y="345.40" xlink:href="#hd"/>
<path d="M294.40 345.40v-21.00" class="stroke"/>
<path class="fill"
	d="M294.40 324.40c0.6 5.6 9.6 9 5.6 18.4
	1.6 -6 -1.3 -11.6 -5.6 -12.8
"/>
<use x="309.50" y="348.40" xlink:href="#hd"/>
<path d="M313.00 348.40v-21.00" class="stroke"/>
<path class="fill"
	d="M313.00 327.40c0.6 5.6 9.6 9 5.6 18.4
	1.6 -6 -1.3 -11.6 -5.6 -12.8
"/>
<use x="328.20" y="351.40" xlink:href="#hd"/>
<path d="M331.70 351.40v-21.00" class="stroke"/>
<use x="353.00" y="351.40" xlink:href="#hd"/>
<path d="M356.50 351.40v-21.00" class="stroke"/>
<use x="378.20" y="351.40" xlink:href="#hd"/>
<path d="M381.70 351.40v-21.00" class="stroke"/>
<path class="fill"
	d="M381.70 330.40c0.6 5.6 9.6 9 5.6 18.4
	1.6 -6 -1.3 -11.6 -5.6 -12.8
"/>
<use x="396.80" y="354.40" xlink:href="#hd"/>
<path d="M400.30 354.40v-21.00" class="stroke"/>
<path class="fill"
	d="M400.30 333.40c0.6 5.6 9.6 9 5.6 18.4
	1.6 -6 -1.3 -11.6 -5.6 -12.8
"/>
<use x="438.80" y="351.40" xlink:href="#hd"/>
<path d="M442.30 351.40v-21.00" class="stroke"/>
<path class="fill"
	d="M442.30 330.40c0.6 5.6 9.6 9 5.6 18.4
	1.6 -6 -1.3 -11.6 -5.6 -12.8
"/>
<use x="457.50" y="348.40" xlink:href="#hd"/>
<path d="M461.00 348.40v-21.00" class="stroke"/>
<path class="fill"
	d="M461.00 327.40c0.6 5.6 9.6 9 5.6 18.4
	1.6 -6 -1.3 -11.6 -5.6 -12.8
"/>
<use x="476.10" y="345.40" xlink:href="#hd"/>
<path d="M479.60 345.40v-21.00" class="stroke"/>
<use x="500.90" y="345.40" xlink:href="#hd"/>
<path d="M504.40 345.40v-21.00" class="stroke"/>
<use x="525.70" y="342.40" xlink:href="#hd"/>
<path d="M529.20 342.40v-21.00" class="stroke"/>
<use x="569.10" y="345.40" xlink:href="#hd"/>
<path d="M572.60 345.40v-21.00" class="stroke"/>
<path class="fill"
	d="M572.60 324.40c0.6 5.6 9.6 9 5.6 18.4
	1.6 -6 -1.3 -11.6 -5.6 -12.8
"/>
<use x="587.70" y="342.40" xlink:href="#hd"/>
<path d="M591.20 342.40v-21.00" class="stroke"/>
<path class="fill"
	d="M591.20 321.40c0.6 5.6 9.6 9 5.6 18.4
	1.6 -6 -1.3 -11.6 -5.6 -12.8
"/>
<use x="606.30" y="339.40" xlink:href="#hd"/>
<path d="M609.80 339.40v-21.00" class="stroke"/>
<use x="631.10" y="339.40" xlink:href="#hd"/>
<path d="M634.60 339.40v-21.00" class="stroke"/>
<use x="656.00" y="342.40" xlink:href="#hd"/>
<path d="M659.50 342.40v-21.00" class="stroke"/>
<path class="fill"
	d="M659.50 321.40c0.6 5.6 9.6 9 5.6 18.4
	1.6 -6 -1.3 -11.6 -5.6 -12.8
"/>
<use x="674.60" y="345.40" xlink:href="#hd"/>
<path d="M678.10 345.40v-21.00" class="stroke"/>
<path class="fill"
	d="M678.10 324.40c0.6 5.6 9.6 9 5.6 18.4
	1.6 -6 -1.3 -11.6 -5.6 -12.8
"/>
<use x="22.00" y="391.40" xlink:href="#bclef"/>
<use x="37.00" y="391.40" xlink:href="#sh0"/>
<use x="55.00" y="409.40" xlink:href="#hd"/>
<path d="M58.50 409.40v-21.00" class="stroke"/>
<use x="92.30" y="403.40" xlink:href="#hd"/>
<path d="M95.80 403.40v-21.00" class="stroke"/>
<use x="117.10" y="397.40" xlink:href="#hd"/>
<path d="M120.60 397.40v-21.00" class="stroke"/>
<use x="154.40" y="391.40" xlink:href="#hd"/>
<path d="M150.90 391.40v21.00" class="stroke"/>
<use x="185.20" y="409.40" xlink:href="#hd"/>
<path d="M188.70 409.40v-21.00" class="stroke"/>
<use x="210.10" y="403.40" xlink:href="#hd"/>
<path d="M213.60 403.40v-21.00" class="stroke"/>
<use x="234.90" y="397.40" xlink:href="#hd"/>
<path d="M238.40 397.40v-21.00" class="stroke"/>
<use x="260.10" y="391.40" xlink:href="#hd"/>
<path d="M256.60 391.40v21.00" class="stroke"/>
<use x="290.90" y="409.40" xlink:href="#hd"/>
<path d="M294.40 409.40v-21.00" class="stroke"/>
<use x="328.20" y="403.40" xlink:href="#hd"/>
<path d="M331.70 403.40v-21.00" class="stroke"/>
<use x="353.00" y="397.40" xlink:href="#hd"/>
<path d="M356.50 397.40v-21.00" class="stroke"/>
<use x="378.20" y="391.40" xlink:href="#hd"/>
<path d="M374.70 391.40v21.00" class="stroke"/>
<use x="439.80" y="415.40" xlink:href="#hl1"/>
<use x="439.80" y="421.40" xlink:href="#hl1"/>
<use x="439.80" y="427.40" xlink:href="#hl1"/>
<use x="439.80" y="427.40" xlink:href="#HD"/>
<use x="439.80" y="406.40" xlink:href="#HD"/>
<use x="439.80" y="400.40" xlink:href="#HD"/>
<use x="439.80" y="394.40" xlink:href="#HD"/>
<use x="439.80" y="388.40" xlink:href="#HD"/>
<use x="570.10" y="415.40" xlink:href="#hl1"/>
<use x="570.10" y="421.40" xlink:href="#hl1"/>
<use x="570.10" y="427.40" xlink:href="#hl1"/>
<use x="570.10" y="430.40" xlink:href="#HD"/>
<use x="570.10" y="409.40" xlink:href="#HD"/>
<use x="570.10" y="403.40" xlink:href="#HD"/>
<use x="570.10" y="397.40" xlink:href="#HD"/>
<use x="570.10" y="391.40" xlink:href="#HD"/>
<g transform="rotate(270)">
<use x="-430.40" y="426.30" xlink:href="#ltr"/>
<use x="-424.40" y="426.30" xlink:href="#ltr"/>
<use x="-418.40" y="426.30" xlink:href="#ltr"/>
<use x="-412.40" y="426.30" xlink:href="#ltr"/>
<use x="-406.40" y="426.30" xlink:href="#ltr"/>
<use x="-400.40" y="426.30" xlink:href="#ltr"/>
<use x="-394.40" y="426.30" xlink:href="#ltr"/>
<use x="-388.40" y="426.30" xlink:href="#ltr"/>
</g>
<g transform="rotate(270)">
<use x="-433.40" y="556.60" xlink:href="#ltr"/>
<use x="-427.40" y="556.60" xlink:href="#ltr"/>
<use x="-421.40" y="556.60" xlink:href="#ltr"/>
<use x="-415.40" y="556.60" xlink:href="#ltr"/>
<use x="-409.40" y="556.60" xlink:href="#ltr"/>
<use x="-403.40" y="556.60" xlink:href="#ltr"/>
<use x="-397.40" y="556.60" xlink:href="#ltr"/>
<use x="-391.40" y="556.60" xlink:href="#ltr"/>
</g>
</g>
<g stroke-width="0.70" style="font:italic 11.00px Times">
<path class="stroke" stroke-width="1"
	d="M10.00 550.80v-82.00"/>
<g transform="translate(10.00,468.80) scale(1,0.82)">
	<use xlink:href="#brace"/>
</g>
<path class="stroke" stroke-width="1"
	d="M155.60 492.80v-24.00"/>
<path class="stroke" stroke-width="1"
	d="M155.60 550.80v-24.00"/>
<path d="m10.00 492.80
	h145.60
	M10.00 486.80
	h145.60
	M10.00 480.80
	h145.60
	M10.00 474.80
	h145.60
	M10.00 468.80
	h145.60
	" class="stroke"/>
<path d="m10.00 550.80
	h145.60
	M10.00 544.80
	h145.60
	M10.00 538.80
	h145.60
	M10.00 532.80
	h145.60
	M10.00 526.80
	h145.60
	" class="stroke"/>
</g>
<g stroke-width="0.70" style="font:bold 13.00px Times">
<text x="62.50" y="446.20">vi<tspan
	 style="font:italic 11.00px Times">m⁷</tspan></text>
</g>
<g stroke-width="0.70" style="font:italic 11.00px Times">
<use x="22.00" y="486.80" xlink:href="#tclef"/>
<use x="37.00" y="468.80" xlink:href="#sh0"/>
<use x="70.50" y="492.80" xlink:href="#hd"/>
<path d="M74.00 492.80v-40.00" class="stroke"/>
<use x="70.50" y="471.80" xlink:href="#hd"/>
<use x="110.50" y="492.80" xlink:href="#Hd"/>
<circle class="fill" cx="119.20" cy="489.80" r="1.2"/>
<path d="M114.00 492.80v-40.00" class="stroke"/>
<use x="110.50" y="471.80" xlink:href="#Hd"/>
<circle class="fill" cx="119.20" cy="471.80" r="1.2"/>
<use x="22.00" y="532.80" xlink:href="#bclef"/>
<use x="37.00" y="532.80" xlink:href="#sh0"/>
<use x="71.50" y="556.80" xlink:href="#hl1"/>
<use x="71.50" y="520.80" xlink:href="#hl1"/>
<use x="71.50" y="517.80" xlink:href="#HD"/>
<use x="71.50" y="556.80" xlink:href="#HD"/>
<use x="71.50" y="535.80" xlink:href="#HD"/>
<use x="71.50" y="529.80" xlink:href="#HD"/>
<use x="71.50" y="523.80" xlink:href="#HD"/>
<g transform="rotate(270)">
<use x="-559.80" y="58.00" xlink:href="#ltr"/>
<use x="-553.80" y="58.00" xlink:href="#ltr"/>
<use x="-547.80" y="58.00" xlink:href="#ltr"/>
<use x="-541.80" y="58.00" xlink:href="#ltr"/>
<use x="-535.80" y="58.00" xlink:href="#ltr"/>
<use x="-529.80" y="58.00" xlink:href="#ltr"/>
<use x="-523.80" y="58.00" xlink:href="#ltr"/>
<use x="-517.80" y="58.00" xlink:href="#ltr"/>
</g>
</g>
</svg>
