<?xml version="1.0" standalone="no"?>
<!DOCTYPE svg PUBLIC "-//W3C//DTD SVG 1.1//EN"
	"http://www.w3.org/Graphics/SVG/1.1/DTD/svg11.dtd">
<svg xmlns="http://www.w3.org/2000/svg" version="1.1"
	xmlns:xlink="http://www.w3.org/1999/xlink"
	color="black"
	width="701.60px" height="426.80px" viewBox="0 0 701.60 426.80" preserveAspectRatio="xMidYMid meet">
<style type="text/css">
.fill {fill: currentColor}
.stroke {stroke: currentColor; fill: none}
text{white-space: pre}
</style>
<title>/tmp/retab_hymnal_L2/blessed_jesus_at_thy_word.abc (1) tune 1</title>
<!-- Creator: abcm2ps-8.14.11 -->
<!-- CreationDate: Apr 24, 2026 15:38 -->
<!-- CommandLine: /tmp/retab_hymnal_L2/blessed_jesus_at_thy_word.abc -g -O /tmp/retab_hymnal_L2/blessed_jesus_at_thy_word -->
<g stroke-width="0.70">
<!-- title: 038. Blessed Jesus at Thy Word -->
</g>
<g stroke-width="0.70" style="font:20.00px Times">
<text x="350.80" y="22.00" text-anchor="middle">038. Blessed Jesus at Thy Word</text>
</g>
<g stroke-width="0.70" style="font:20.00px Times">
<path class="stroke" stroke-width="1"
	d="M10.00 145.40v-82.00"/>
<defs>
<path id="brace" class="fill" d="m-2.5 101
	c-4.5 -4.6 -7.5 -12.2 -4.4 -26.8
	3.5 -14.3 3.2 -21.7 -2.1 -24.2
	7.4 2.4 7.3 14.2 3.5 29.5
	-2.7 9.5 -1.5 16.2 3 21.5
	M-2.5 1c-4.5 4.6 -7.5 12.2 -4.4 26.8
	c3.5 14.3 3.2 21.7 -2.1 24.2
	7.4 -2.4 7.3 -14.2 3.5 -29.5
	-2.7 -9.5 -1.5 -16.2 3 -21.5"/>
</defs>
<g transform="translate(10.00,63.40) scale(1,0.82)">
	<use xlink:href="#brace"/>
</g>
<path class="stroke" stroke-width="1"
	d="M176.90 87.40v-24.00"/>
<path class="stroke" stroke-width="1"
	d="M176.90 145.40v-24.00"/>
<path class="stroke" stroke-width="1"
	d="M274.90 87.40v-24.00"/>
<path class="stroke" stroke-width="1"
	d="M274.90 145.40v-24.00"/>
<path class="stroke" stroke-width="1"
	d="M393.10 87.40v-24.00"/>
<path class="stroke" stroke-width="1"
	d="M393.10 145.40v-24.00"/>
<path class="stroke" stroke-width="1"
	d="M491.00 87.40v-24.00"/>
<path class="stroke" stroke-width="1"
	d="M491.00 145.40v-24.00"/>
<path class="stroke" stroke-width="1"
	d="M573.20 87.40v-24.00"/>
<path class="stroke" stroke-width="1"
	d="M573.20 145.40v-24.00"/>
<path class="stroke" stroke-width="1"
	d="M691.60 87.40v-24.00"/>
<path class="stroke" stroke-width="1"
	d="M691.60 145.40v-24.00"/>
<path d="m10.00 87.40
	h681.60
	M10.00 81.40
	h681.60
	M10.00 75.40
	h681.60
	M10.00 69.40
	h681.60
	M10.00 63.40
	h681.60
	" class="stroke"/>
<path d="m10.00 145.40
	h681.60
	M10.00 139.40
	h681.60
	M10.00 133.40
	h681.60
	M10.00 127.40
	h681.60
	M10.00 121.40
	h681.60
	" class="stroke"/>
</g>
<g stroke-width="0.70" style="font:bold 13.00px Times">
<text x="69.70" y="58.80">I</text>
</g>
<g stroke-width="0.70" style="font:bold 13.00px Times">
<text x="188.10" y="58.80">I</text>
</g>
<g stroke-width="0.70" style="font:bold 13.00px Times">
<text x="284.10" y="53.80">I<tspan
	 style="font:italic 11.00px Times">¹</tspan></text>
</g>
<g stroke-width="0.70" style="font:bold 13.00px Times">
<text x="398.10" y="47.80">vii○<tspan
	 style="font:italic 11.00px Times">¹</tspan></text>
</g>
<g stroke-width="0.70" style="font:bold 13.00px Times">
<text x="503.20" y="58.80">I</text>
</g>
<g stroke-width="0.70" style="font:bold 13.00px Times">
<text x="584.40" y="47.80">I</text>
<defs>
<path id="utclef" class="fill" d="m-50 -90
	c-72 -41 -72 -158 52 -188
	150 -10 220 188 90 256
	-114 52 -275 0 -293 -136
	-15 -181 93 -229 220 -334
	88 -87 79 -133 62 -210
	-51 33 -94 105 -89 186
	17 267 36 374 49 574
	6 96 -19 134 -77 135
	-80 1 -126 -93 -61 -133
	85 -41 133 101 31 105
	23 17 92 37 90 -92
	-10 -223 -39 -342 -50 -617
	0 -90 0 -162 96 -232
	56 72 63 230 22 289
	-74 106 -257 168 -255 316
	9 153 148 185 252 133
	86 -65 29 -192 -80 -176
	-71 12 -105 67 -59 124"/>
<use id="tclef" transform="translate(0,6) scale(0.045)"
	xlink:href="#utclef"/>
</defs>
<use x="22.00" y="81.40" xlink:href="#tclef"/>
<defs>
<path id="usharp" class="fill" d="
	m136 -702
	v890
	h32
	v-890
	m128 840
	h32
	v-888
	h-32
	m-232 286
	v116
	l338 -96
	v-116
	m-338 442
	v116
	l338 -98
	v-114"/>
<use id="sh0" transform="translate(-4,5) scale(0.018)"
	xlink:href="#usharp"/>
</defs>
<use x="37.00" y="63.40" xlink:href="#sh0"/>
<g style="font:bold 16px serif"
	transform="translate(53.00,86.90) scale(1.2,1)">
	<text text-anchor="middle">4</text>
	<text y="-12" text-anchor="middle">4</text>
</g>
<defs>
<ellipse id="hd" rx="4.1" ry="2.9"
	transform="rotate(-20)" class="fill"/>
</defs>
<use x="71.50" y="75.40" xlink:href="#hd"/>
<path d="M68.00 75.40v21.00" class="stroke"/>
<use x="99.80" y="81.40" xlink:href="#hd"/>
<path d="M103.30 81.40v-21.00" class="stroke"/>
<use x="128.10" y="78.40" xlink:href="#hd"/>
<path d="M131.60 78.40v-21.00" class="stroke"/>
<use x="156.60" y="69.40" xlink:href="#hd"/>
<path d="M153.10 69.40v21.00" class="stroke"/>
<use x="189.90" y="75.40" xlink:href="#hd"/>
<path d="M186.40 75.40v21.00" class="stroke"/>
<use x="218.20" y="81.40" xlink:href="#hd"/>
<path d="M221.70 81.40v-21.00" class="stroke"/>
<defs>
<path id="Hd" class="fill" d="m3 -1.6
	c-1 -1.8 -7 1.4 -6 3.2
	1 1.8 7 -1.4 6 -3.2
	m0.5 -0.3
	c2 3.8 -5 7.6 -7 3.8
	-2 -3.8 5 -7.6 7 -3.8"/>
</defs>
<use x="246.50" y="78.40" xlink:href="#Hd"/>
<path d="M250.00 78.40v-21.00" class="stroke"/>
<use x="287.90" y="81.40" xlink:href="#hd"/>
<path d="M291.40 81.40v-21.00" class="stroke"/>
<use x="316.20" y="81.40" xlink:href="#hd"/>
<path d="M319.70 81.40v-21.00" class="stroke"/>
<use x="344.50" y="81.40" xlink:href="#hd"/>
<path d="M348.00 81.40v-21.00" class="stroke"/>
<use x="372.80" y="81.40" xlink:href="#hd"/>
<path d="M376.30 81.40v-21.00" class="stroke"/>
<use x="406.10" y="78.40" xlink:href="#hd"/>
<path d="M409.60 78.40v-21.00" class="stroke"/>
<use x="434.40" y="75.40" xlink:href="#hd"/>
<path d="M437.90 75.40v-21.00" class="stroke"/>
<use x="462.70" y="78.40" xlink:href="#Hd"/>
<path d="M466.20 78.40v-21.00" class="stroke"/>
<defs>
<path id="HD" class="fill" d="m-2.7 -1.4
	c1.5 -2.8 6.9 0 5.3 2.7
	-1.5 2.8 -6.9 0 -5.3 -2.7
	m8.3 1.4
	c0 -1.5 -2.2 -3 -5.6 -3
	-3.4 0 -5.6 1.5 -5.6 3
	0 1.5 2.2 3 5.6 3
	3.4 0 5.6 -1.5 5.6 -3"/>
</defs>
<use x="506.00" y="81.40" xlink:href="#HD"/>
<use x="586.20" y="75.40" xlink:href="#hd"/>
<path d="M589.70 75.40v-21.00" class="stroke"/>
<use x="614.50" y="81.40" xlink:href="#hd"/>
<path d="M618.00 81.40v-21.00" class="stroke"/>
<use x="642.80" y="78.40" xlink:href="#hd"/>
<path d="M646.30 78.40v-21.00" class="stroke"/>
<use x="671.30" y="69.40" xlink:href="#hd"/>
<path d="M667.80 69.40v21.00" class="stroke"/>
<defs>
<path id="ubclef" class="fill" d="m-200 -87
	c124 -35 222 -78 254 -236
	43 -228 -167 -246 -192 -103
	59 -80 157 22 92 78
	-62 47 -115 -22 -106 -88
	21 -141 270 -136 274 52
	-1 175 -106 264 -322 297
	m357 -250
	c0 -36 51 -34 51 0
	0 37 -51 36 -51 0
	m-2 -129
	c0 -36 51 -34 51 0
	0 38 -51 37 -51 0"/>
<use id="bclef" transform="translate(0,18) scale(0.045)"
	xlink:href="#ubclef"/>
</defs>
<use x="22.00" y="127.40" xlink:href="#bclef"/>
<use x="37.00" y="127.40" xlink:href="#sh0"/>
<g style="font:bold 16px serif"
	transform="translate(53.00,144.90) scale(1.2,1)">
	<text text-anchor="middle">4</text>
	<text y="-12" text-anchor="middle">4</text>
</g>
<use x="71.50" y="145.40" xlink:href="#Hd"/>
<path d="M75.00 145.40v-21.00" class="stroke"/>
<use x="128.10" y="145.40" xlink:href="#Hd"/>
<path d="M131.60 145.40v-21.00" class="stroke"/>
<use x="189.90" y="145.40" xlink:href="#Hd"/>
<path d="M193.40 145.40v-21.00" class="stroke"/>
<use x="246.50" y="145.40" xlink:href="#Hd"/>
<path d="M250.00 145.40v-21.00" class="stroke"/>
<use x="287.90" y="145.40" xlink:href="#Hd"/>
<path d="M291.40 145.40v-21.00" class="stroke"/>
<use x="344.50" y="145.40" xlink:href="#Hd"/>
<path d="M348.00 145.40v-21.00" class="stroke"/>
<use x="406.10" y="145.40" xlink:href="#Hd"/>
<path d="M409.60 145.40v-21.00" class="stroke"/>
<use x="462.70" y="145.40" xlink:href="#Hd"/>
<path d="M466.20 145.40v-21.00" class="stroke"/>
<use x="505.00" y="145.40" xlink:href="#Hd"/>
<path d="M508.50 145.40v-21.00" class="stroke"/>
<use x="544.90" y="145.40" xlink:href="#Hd"/>
<path d="M548.40 145.40v-21.00" class="stroke"/>
<use x="586.20" y="145.40" xlink:href="#Hd"/>
<path d="M589.70 145.40v-21.00" class="stroke"/>
<use x="642.80" y="145.40" xlink:href="#Hd"/>
<path d="M646.30 145.40v-21.00" class="stroke"/>
</g>
<g stroke-width="0.70" style="font:bold 13.00px Times">
<path class="stroke" stroke-width="1"
	d="M10.00 275.80v-82.00"/>
<g transform="translate(10.00,193.80) scale(1,0.82)">
	<use xlink:href="#brace"/>
</g>
<path class="stroke" stroke-width="1"
	d="M143.00 217.80v-24.00"/>
<path class="stroke" stroke-width="1"
	d="M143.00 275.80v-24.00"/>
<path class="stroke" stroke-width="1"
	d="M264.30 217.80v-24.00"/>
<path class="stroke" stroke-width="1"
	d="M264.30 275.80v-24.00"/>
<path class="stroke" stroke-width="1"
	d="M364.80 217.80v-24.00"/>
<path class="stroke" stroke-width="1"
	d="M364.80 275.80v-24.00"/>
<path class="stroke" stroke-width="1"
	d="M449.00 217.80v-24.00"/>
<path class="stroke" stroke-width="1"
	d="M449.00 275.80v-24.00"/>
<path class="stroke" stroke-width="1"
	d="M570.30 217.80v-24.00"/>
<path class="stroke" stroke-width="1"
	d="M570.30 275.80v-24.00"/>
<path class="stroke" stroke-width="1"
	d="M691.60 217.80v-24.00"/>
<path class="stroke" stroke-width="1"
	d="M691.60 275.80v-24.00"/>
<path d="m10.00 217.80
	h681.60
	M10.00 211.80
	h681.60
	M10.00 205.80
	h681.60
	M10.00 199.80
	h681.60
	M10.00 193.80
	h681.60
	" class="stroke"/>
<path d="m10.00 275.80
	h681.60
	M10.00 269.80
	h681.60
	M10.00 263.80
	h681.60
	M10.00 257.80
	h681.60
	M10.00 251.80
	h681.60
	" class="stroke"/>
</g>
<g stroke-width="0.70" style="font:bold 13.00px Times">
<text x="53.70" y="189.20">I</text>
</g>
<g stroke-width="0.70" style="font:bold 13.00px Times">
<text x="152.20" y="184.20">I<tspan
	 style="font:italic 11.00px Times">¹</tspan></text>
</g>
<g stroke-width="0.70" style="font:bold 13.00px Times">
<text x="269.30" y="178.20">vii○<tspan
	 style="font:italic 11.00px Times">¹</tspan></text>
</g>
<g stroke-width="0.70" style="font:bold 13.00px Times">
<text x="377.00" y="187.20">I</text>
</g>
<g stroke-width="0.70" style="font:bold 13.00px Times">
<text x="460.20" y="189.20">I</text>
</g>
<g stroke-width="0.70" style="font:bold 13.00px Times">
<text x="578.80" y="184.20">iii</text>
<use x="22.00" y="211.80" xlink:href="#tclef"/>
<use x="37.00" y="193.80" xlink:href="#sh0"/>
<use x="55.50" y="205.80" xlink:href="#hd"/>
<path d="M52.00 205.80v21.00" class="stroke"/>
<use x="84.70" y="211.80" xlink:href="#hd"/>
<path d="M88.20 211.80v-21.00" class="stroke"/>
<use x="113.90" y="208.80" xlink:href="#Hd"/>
<path d="M117.40 208.80v-21.00" class="stroke"/>
<use x="156.00" y="211.80" xlink:href="#hd"/>
<path d="M159.50 211.80v-21.00" class="stroke"/>
<use x="185.20" y="211.80" xlink:href="#hd"/>
<path d="M188.70 211.80v-21.00" class="stroke"/>
<use x="214.30" y="211.80" xlink:href="#hd"/>
<path d="M217.80 211.80v-21.00" class="stroke"/>
<use x="243.50" y="211.80" xlink:href="#hd"/>
<path d="M247.00 211.80v-21.00" class="stroke"/>
<use x="277.30" y="208.80" xlink:href="#hd"/>
<path d="M280.80 208.80v-21.00" class="stroke"/>
<use x="306.50" y="205.80" xlink:href="#hd"/>
<path d="M310.00 205.80v-21.00" class="stroke"/>
<use x="335.60" y="208.80" xlink:href="#Hd"/>
<path d="M339.10 208.80v-21.00" class="stroke"/>
<use x="379.80" y="211.80" xlink:href="#HD"/>
<use x="462.00" y="220.80" xlink:href="#hd"/>
<path d="M465.50 220.80v-21.00" class="stroke"/>
<use x="491.20" y="220.80" xlink:href="#hd"/>
<path d="M494.70 220.80v-21.00" class="stroke"/>
<use x="520.40" y="217.80" xlink:href="#hd"/>
<path d="M523.90 217.80v-21.00" class="stroke"/>
<use x="549.50" y="214.80" xlink:href="#hd"/>
<path d="M553.00 214.80v-21.00" class="stroke"/>
<use x="583.30" y="211.80" xlink:href="#hd"/>
<path d="M586.80 211.80v-21.00" class="stroke"/>
<use x="612.50" y="208.80" xlink:href="#hd"/>
<path d="M616.00 208.80v-21.00" class="stroke"/>
<use x="641.60" y="214.80" xlink:href="#hd"/>
<path d="M645.10 214.80v-21.00" class="stroke"/>
<use x="670.80" y="220.80" xlink:href="#hd"/>
<path d="M674.30 220.80v-21.00" class="stroke"/>
<use x="22.00" y="257.80" xlink:href="#bclef"/>
<use x="37.00" y="257.80" xlink:href="#sh0"/>
<use x="55.50" y="275.80" xlink:href="#Hd"/>
<path d="M59.00 275.80v-21.00" class="stroke"/>
<use x="113.90" y="275.80" xlink:href="#Hd"/>
<path d="M117.40 275.80v-21.00" class="stroke"/>
<use x="156.00" y="275.80" xlink:href="#Hd"/>
<path d="M159.50 275.80v-21.00" class="stroke"/>
<use x="214.30" y="275.80" xlink:href="#Hd"/>
<path d="M217.80 275.80v-21.00" class="stroke"/>
<use x="277.30" y="275.80" xlink:href="#Hd"/>
<path d="M280.80 275.80v-21.00" class="stroke"/>
<use x="335.60" y="275.80" xlink:href="#Hd"/>
<path d="M339.10 275.80v-21.00" class="stroke"/>
<use x="378.80" y="275.80" xlink:href="#Hd"/>
<path d="M382.30 275.80v-21.00" class="stroke"/>
<use x="419.90" y="275.80" xlink:href="#Hd"/>
<path d="M423.40 275.80v-21.00" class="stroke"/>
<use x="462.00" y="275.80" xlink:href="#Hd"/>
<path d="M465.50 275.80v-21.00" class="stroke"/>
<use x="520.40" y="275.80" xlink:href="#Hd"/>
<path d="M523.90 275.80v-21.00" class="stroke"/>
<use x="583.30" y="269.80" xlink:href="#Hd"/>
<path d="M586.80 269.80v-21.00" class="stroke"/>
<use x="641.60" y="269.80" xlink:href="#Hd"/>
<path d="M645.10 269.80v-21.00" class="stroke"/>
</g>
<g stroke-width="0.70" style="font:bold 13.00px Times">
<path class="stroke" stroke-width="1"
	d="M10.00 403.80v-82.00"/>
<g transform="translate(10.00,321.80) scale(1,0.82)">
	<use xlink:href="#brace"/>
</g>
<path class="stroke" stroke-width="1"
	d="M203.50 345.80v-24.00"/>
<path class="stroke" stroke-width="1"
	d="M203.50 403.80v-24.00"/>
<path class="stroke" stroke-width="1"
	d="M333.30 345.80v-24.00"/>
<path class="stroke" stroke-width="1"
	d="M333.30 403.80v-24.00"/>
<path class="stroke" stroke-width="1"
	d="M443.60 345.80v-24.00"/>
<path class="stroke" stroke-width="1"
	d="M443.60 403.80v-24.00"/>
<path d="m10.00 345.80
	h433.60
	M10.00 339.80
	h433.60
	M10.00 333.80
	h433.60
	M10.00 327.80
	h433.60
	M10.00 321.80
	h433.60
	" class="stroke"/>
<path d="m10.00 403.80
	h433.60
	M10.00 397.80
	h433.60
	M10.00 391.80
	h433.60
	M10.00 385.80
	h433.60
	M10.00 379.80
	h433.60
	" class="stroke"/>
</g>
<g stroke-width="0.70" style="font:bold 13.00px Times">
<text x="51.70" y="312.20">I<tspan
	 style="font:italic 11.00px Times">¹</tspan></text>
</g>
<g stroke-width="0.70" style="font:bold 13.00px Times">
<text x="211.90" y="317.20">IV</text>
</g>
<g stroke-width="0.70" style="font:bold 13.00px Times">
<text x="345.60" y="317.20">I</text>
<use x="22.00" y="339.80" xlink:href="#tclef"/>
<use x="37.00" y="321.80" xlink:href="#sh0"/>
<use x="55.50" y="339.80" xlink:href="#hd"/>
<path d="M59.00 339.80v-21.00" class="stroke"/>
<use x="95.50" y="339.80" xlink:href="#hd"/>
<path d="M99.00 339.80v-21.00" class="stroke"/>
<use x="135.50" y="336.80" xlink:href="#hd"/>
<path d="M139.00 336.80v-21.00" class="stroke"/>
<use x="175.50" y="333.80" xlink:href="#hd"/>
<path d="M179.00 333.80v-21.00" class="stroke"/>
<use x="217.60" y="330.80" xlink:href="#hd"/>
<path d="M214.10 330.80v21.00" class="stroke"/>
<use x="257.60" y="333.80" xlink:href="#hd"/>
<path d="M254.10 333.80v21.00" class="stroke"/>
<use x="293.60" y="336.80" xlink:href="#Hd"/>
<path d="M297.10 336.80v-21.00" class="stroke"/>
<use x="348.40" y="339.80" xlink:href="#HD"/>
<use x="22.00" y="385.80" xlink:href="#bclef"/>
<use x="37.00" y="385.80" xlink:href="#sh0"/>
<use x="55.50" y="403.80" xlink:href="#Hd"/>
<path d="M59.00 403.80v-21.00" class="stroke"/>
<use x="135.50" y="403.80" xlink:href="#Hd"/>
<path d="M139.00 403.80v-21.00" class="stroke"/>
<use x="217.60" y="394.80" xlink:href="#Hd"/>
<path d="M221.10 394.80v-21.00" class="stroke"/>
<use x="293.60" y="394.80" xlink:href="#Hd"/>
<path d="M297.10 394.80v-21.00" class="stroke"/>
<use x="347.40" y="403.80" xlink:href="#Hd"/>
<path d="M350.90 403.80v-21.00" class="stroke"/>
<use x="404.00" y="403.80" xlink:href="#Hd"/>
<path d="M407.50 403.80v-21.00" class="stroke"/>
</g>
</svg>
