<?xml version="1.0" standalone="no"?>
<!DOCTYPE svg PUBLIC "-//W3C//DTD SVG 1.1//EN"
	"http://www.w3.org/Graphics/SVG/1.1/DTD/svg11.dtd">
<svg xmlns="http://www.w3.org/2000/svg" version="1.1"
	xmlns:xlink="http://www.w3.org/1999/xlink"
	color="black"
	width="701.60px" height="422.00px" viewBox="0 0 701.60 422.00" preserveAspectRatio="xMidYMid meet">
<style type="text/css">
.fill {fill: currentColor}
.stroke {stroke: currentColor; fill: none}
text{white-space: pre}
</style>
<title>/tmp/retab_hymnal_L2/christ_the_lord_is_risen_today_lyra.abc (1) tune 1</title>
<!-- Creator: abcm2ps-8.14.11 -->
<!-- CreationDate: Apr 24, 2026 15:38 -->
<!-- CommandLine: /tmp/retab_hymnal_L2/christ_the_lord_is_risen_today_lyra.abc -g -O /tmp/retab_hymnal_L2/christ_the_lord_is_risen_today_lyra -->
<g stroke-width="0.70">
<!-- title: 048. Christ The Lord Is Risen Today (Lyra) -->
</g>
<g stroke-width="0.70" style="font:20.00px Times">
<text x="350.80" y="22.00" text-anchor="middle">048. Christ The Lord Is Risen Today (Lyra)</text>
</g>
<g stroke-width="0.70" style="font:20.00px Times">
<path class="stroke" stroke-width="1"
	d="M10.00 143.00v-82.00"/>
<defs>
<path id="brace" class="fill" d="m-2.5 101
	c-4.5 -4.6 -7.5 -12.2 -4.4 -26.8
	3.5 -14.3 3.2 -21.7 -2.1 -24.2
	7.4 2.4 7.3 14.2 3.5 29.5
	-2.7 9.5 -1.5 16.2 3 21.5
	M-2.5 1c-4.5 4.6 -7.5 12.2 -4.4 26.8
	c3.5 14.3 3.2 21.7 -2.1 24.2
	7.4 -2.4 7.3 -14.2 3.5 -29.5
	-2.7 -9.5 -1.5 -16.2 3 -21.5"/>
</defs>
<g transform="translate(10.00,61.00) scale(1,0.82)">
	<use xlink:href="#brace"/>
</g>
<path class="stroke" stroke-width="1"
	d="M170.70 85.00v-24.00"/>
<path class="stroke" stroke-width="1"
	d="M170.70 143.00v-24.00"/>
<path class="stroke" stroke-width="1"
	d="M274.20 85.00v-24.00"/>
<path class="stroke" stroke-width="1"
	d="M274.20 143.00v-24.00"/>
<path class="stroke" stroke-width="1"
	d="M398.70 85.00v-24.00"/>
<path class="stroke" stroke-width="1"
	d="M398.70 143.00v-24.00"/>
<path class="stroke" stroke-width="1"
	d="M475.90 85.00v-24.00"/>
<path class="stroke" stroke-width="1"
	d="M475.90 143.00v-24.00"/>
<path class="stroke" stroke-width="1"
	d="M588.20 85.00v-24.00"/>
<path class="stroke" stroke-width="1"
	d="M588.20 143.00v-24.00"/>
<path class="stroke" stroke-width="1"
	d="M691.60 85.00v-24.00"/>
<path class="stroke" stroke-width="1"
	d="M691.60 143.00v-24.00"/>
<path d="m10.00 85.00
	h681.60
	M10.00 79.00
	h681.60
	M10.00 73.00
	h681.60
	M10.00 67.00
	h681.60
	M10.00 61.00
	h681.60
	" class="stroke"/>
<path d="m10.00 143.00
	h681.60
	M10.00 137.00
	h681.60
	M10.00 131.00
	h681.60
	M10.00 125.00
	h681.60
	M10.00 119.00
	h681.60
	" class="stroke"/>
</g>
<g stroke-width="0.70" style="font:bold 13.00px Times">
<text x="69.70" y="54.40">I</text>
</g>
<g stroke-width="0.70" style="font:bold 13.00px Times">
<text x="180.00" y="56.40">I<tspan
	 style="font:italic 11.00px Times">¹</tspan></text>
</g>
<g stroke-width="0.70" style="font:bold 13.00px Times">
<text x="282.60" y="54.40">iii</text>
</g>
<g stroke-width="0.70" style="font:bold 13.00px Times">
<text x="409.90" y="51.40">I</text>
</g>
<g stroke-width="0.70" style="font:bold 13.00px Times">
<text x="487.10" y="54.40">I</text>
</g>
<g stroke-width="0.70" style="font:bold 13.00px Times">
<text x="597.40" y="54.40">I<tspan
	 style="font:italic 11.00px Times">¹</tspan></text>
</g>
<g stroke-width="0.70" style="font:italic 11.00px Times">
<defs>
<path id="utclef" class="fill" d="m-50 -90
	c-72 -41 -72 -158 52 -188
	150 -10 220 188 90 256
	-114 52 -275 0 -293 -136
	-15 -181 93 -229 220 -334
	88 -87 79 -133 62 -210
	-51 33 -94 105 -89 186
	17 267 36 374 49 574
	6 96 -19 134 -77 135
	-80 1 -126 -93 -61 -133
	85 -41 133 101 31 105
	23 17 92 37 90 -92
	-10 -223 -39 -342 -50 -617
	0 -90 0 -162 96 -232
	56 72 63 230 22 289
	-74 106 -257 168 -255 316
	9 153 148 185 252 133
	86 -65 29 -192 -80 -176
	-71 12 -105 67 -59 124"/>
<use id="tclef" transform="translate(0,6) scale(0.045)"
	xlink:href="#utclef"/>
</defs>
<use x="22.00" y="79.00" xlink:href="#tclef"/>
<defs>
<path id="uflat" class="fill" d="
	m100 -746
	h32
	v734
	l-32 4
	m32 -332
	c46 -72 152 -90 208 -20
	100 110 -120 326 -208 348
	m0 -28
	c54 0 200 -206 130 -290
	-50 -60 -130 -4 -130 34"/>
<use id="ft0" transform="translate(-3.5,3.5) scale(0.018)"
	xlink:href="#uflat"/>
</defs>
<use x="37.00" y="73.00" xlink:href="#ft0"/>
<g style="font:bold 16px serif"
	transform="translate(53.00,84.50) scale(1.2,1)">
	<text text-anchor="middle">4</text>
	<text y="-12" text-anchor="middle">4</text>
</g>
<defs>
<ellipse id="hd" rx="4.1" ry="2.9"
	transform="rotate(-20)" class="fill"/>
</defs>
<use x="71.50" y="82.00" xlink:href="#hd"/>
<path d="M75.00 82.00v-21.00" class="stroke"/>
<use x="98.10" y="82.00" xlink:href="#hd"/>
<path d="M101.60 82.00v-21.00" class="stroke"/>
<use x="124.80" y="76.00" xlink:href="#hd"/>
<path d="M128.30 76.00v-21.00" class="stroke"/>
<use x="151.40" y="76.00" xlink:href="#hd"/>
<path d="M154.90 76.00v-21.00" class="stroke"/>
<use x="183.70" y="70.00" xlink:href="#hd"/>
<path d="M180.20 70.00v21.00" class="stroke"/>
<use x="210.40" y="73.00" xlink:href="#hd"/>
<path d="M206.90 73.00v21.00" class="stroke"/>
<path class="fill"
	d="M206.90 94.00c0.6 -5.6 9.6 -9 5.6 -18.4
	1.6 6 -1.3 11.6 -5.6 12.8
"/>
<use x="227.70" y="76.00" xlink:href="#hd"/>
<path d="M231.20 76.00v-21.00" class="stroke"/>
<path class="fill"
	d="M231.20 55.00c0.6 5.6 9.6 9 5.6 18.4
	1.6 -6 -1.3 -11.6 -5.6 -12.8
"/>
<defs>
<path id="Hd" class="fill" d="m3 -1.6
	c-1 -1.8 -7 1.4 -6 3.2
	1 1.8 7 -1.4 6 -3.2
	m0.5 -0.3
	c2 3.8 -5 7.6 -7 3.8
	-2 -3.8 5 -7.6 7 -3.8"/>
</defs>
<use x="247.30" y="79.00" xlink:href="#Hd"/>
<path d="M250.80 79.00v-21.00" class="stroke"/>
<use x="287.20" y="70.00" xlink:href="#hd"/>
<circle class="fill" cx="294.90" cy="70.00" r="1.2"/>
<path d="M283.70 70.00v21.00" class="stroke"/>
<use x="318.10" y="73.00" xlink:href="#hd"/>
<path d="M314.60 73.00v21.00" class="stroke"/>
<path class="fill"
	d="M314.60 94.00c0.6 -5.6 9.6 -9 5.6 -18.4
	1.6 6 -1.3 11.6 -5.6 12.8
"/>
<use x="335.50" y="76.00" xlink:href="#hd"/>
<path d="M339.00 76.00v-21.00" class="stroke"/>
<use x="362.10" y="73.00" xlink:href="#hd"/>
<path d="M365.60 73.00v-21.00" class="stroke"/>
<path class="fill"
	d="M365.60 52.00c0.6 5.6 9.6 9 5.6 18.4
	1.6 -6 -1.3 -11.6 -5.6 -12.8
"/>
<use x="381.70" y="76.00" xlink:href="#hd"/>
<path d="M385.20 76.00v-21.00" class="stroke"/>
<path class="fill"
	d="M385.20 55.00c0.6 5.6 9.6 9 5.6 18.4
	1.6 -6 -1.3 -11.6 -5.6 -12.8
"/>
<use x="411.70" y="79.00" xlink:href="#Hd"/>
<path d="M415.20 79.00v-21.00" class="stroke"/>
<use x="449.10" y="82.00" xlink:href="#Hd"/>
<path d="M452.60 82.00v-21.00" class="stroke"/>
<use x="488.90" y="82.00" xlink:href="#hd"/>
<path d="M492.40 82.00v-21.00" class="stroke"/>
<use x="515.60" y="82.00" xlink:href="#hd"/>
<path d="M519.10 82.00v-21.00" class="stroke"/>
<use x="542.20" y="76.00" xlink:href="#hd"/>
<path d="M545.70 76.00v-21.00" class="stroke"/>
<use x="568.90" y="76.00" xlink:href="#hd"/>
<path d="M572.40 76.00v-21.00" class="stroke"/>
<use x="601.20" y="70.00" xlink:href="#hd"/>
<path d="M597.70 70.00v21.00" class="stroke"/>
<use x="627.80" y="73.00" xlink:href="#hd"/>
<path d="M624.30 73.00v21.00" class="stroke"/>
<path class="fill"
	d="M624.30 94.00c0.6 -5.6 9.6 -9 5.6 -18.4
	1.6 6 -1.3 11.6 -5.6 12.8
"/>
<use x="645.10" y="76.00" xlink:href="#hd"/>
<path d="M648.60 76.00v-21.00" class="stroke"/>
<path class="fill"
	d="M648.60 55.00c0.6 5.6 9.6 9 5.6 18.4
	1.6 -6 -1.3 -11.6 -5.6 -12.8
"/>
<use x="664.80" y="79.00" xlink:href="#Hd"/>
<path d="M668.30 79.00v-21.00" class="stroke"/>
<defs>
<path id="ubclef" class="fill" d="m-200 -87
	c124 -35 222 -78 254 -236
	43 -228 -167 -246 -192 -103
	59 -80 157 22 92 78
	-62 47 -115 -22 -106 -88
	21 -141 270 -136 274 52
	-1 175 -106 264 -322 297
	m357 -250
	c0 -36 51 -34 51 0
	0 37 -51 36 -51 0
	m-2 -129
	c0 -36 51 -34 51 0
	0 38 -51 37 -51 0"/>
<use id="bclef" transform="translate(0,18) scale(0.045)"
	xlink:href="#ubclef"/>
</defs>
<use x="22.00" y="125.00" xlink:href="#bclef"/>
<use x="37.00" y="137.00" xlink:href="#ft0"/>
<g style="font:bold 16px serif"
	transform="translate(53.00,142.50) scale(1.2,1)">
	<text text-anchor="middle">4</text>
	<text y="-12" text-anchor="middle">4</text>
</g>
<use x="71.50" y="146.00" xlink:href="#Hd"/>
<path d="M75.00 146.00v-21.00" class="stroke"/>
<use x="124.80" y="146.00" xlink:href="#Hd"/>
<path d="M128.30 146.00v-21.00" class="stroke"/>
<use x="183.70" y="146.00" xlink:href="#Hd"/>
<path d="M187.20 146.00v-21.00" class="stroke"/>
<use x="247.30" y="146.00" xlink:href="#Hd"/>
<path d="M250.80 146.00v-21.00" class="stroke"/>
<use x="287.20" y="140.00" xlink:href="#Hd"/>
<path d="M290.70 140.00v-21.00" class="stroke"/>
<use x="335.50" y="140.00" xlink:href="#Hd"/>
<path d="M339.00 140.00v-21.00" class="stroke"/>
<use x="411.70" y="146.00" xlink:href="#Hd"/>
<path d="M415.20 146.00v-21.00" class="stroke"/>
<use x="449.10" y="146.00" xlink:href="#Hd"/>
<path d="M452.60 146.00v-21.00" class="stroke"/>
<use x="488.90" y="146.00" xlink:href="#Hd"/>
<path d="M492.40 146.00v-21.00" class="stroke"/>
<use x="542.20" y="146.00" xlink:href="#Hd"/>
<path d="M545.70 146.00v-21.00" class="stroke"/>
<use x="601.20" y="146.00" xlink:href="#Hd"/>
<path d="M604.70 146.00v-21.00" class="stroke"/>
<use x="664.80" y="146.00" xlink:href="#Hd"/>
<path d="M668.30 146.00v-21.00" class="stroke"/>
</g>
<g stroke-width="0.70" style="font:italic 11.00px Times">
<path class="stroke" stroke-width="1"
	d="M10.00 271.00v-82.00"/>
<g transform="translate(10.00,189.00) scale(1,0.82)">
	<use xlink:href="#brace"/>
</g>
<path class="stroke" stroke-width="1"
	d="M172.90 213.00v-24.00"/>
<path class="stroke" stroke-width="1"
	d="M172.90 271.00v-24.00"/>
<path class="stroke" stroke-width="1"
	d="M254.40 213.00v-24.00"/>
<path class="stroke" stroke-width="1"
	d="M254.40 271.00v-24.00"/>
<path class="stroke" stroke-width="1"
	d="M373.40 213.00v-24.00"/>
<path class="stroke" stroke-width="1"
	d="M373.40 271.00v-24.00"/>
<path class="stroke" stroke-width="1"
	d="M494.60 213.00v-24.00"/>
<path class="stroke" stroke-width="1"
	d="M494.60 271.00v-24.00"/>
<path class="stroke" stroke-width="1"
	d="M610.00 213.00v-24.00"/>
<path class="stroke" stroke-width="1"
	d="M610.00 271.00v-24.00"/>
<path class="stroke" stroke-width="1"
	d="M691.60 213.00v-24.00"/>
<path class="stroke" stroke-width="1"
	d="M691.60 271.00v-24.00"/>
<path d="m10.00 213.00
	h681.60
	M10.00 207.00
	h681.60
	M10.00 201.00
	h681.60
	M10.00 195.00
	h681.60
	M10.00 189.00
	h681.60
	" class="stroke"/>
<path d="m10.00 271.00
	h681.60
	M10.00 265.00
	h681.60
	M10.00 259.00
	h681.60
	M10.00 253.00
	h681.60
	M10.00 247.00
	h681.60
	" class="stroke"/>
</g>
<g stroke-width="0.70" style="font:bold 13.00px Times">
<text x="50.90" y="184.40">iii</text>
</g>
<g stroke-width="0.70" style="font:bold 13.00px Times">
<text x="184.10" y="179.40">I</text>
</g>
<g stroke-width="0.70" style="font:bold 13.00px Times">
<text x="263.20" y="176.40">vi</text>
</g>
<g stroke-width="0.70" style="font:bold 13.00px Times">
<text x="380.60" y="184.40">IV</text>
</g>
<g stroke-width="0.70" style="font:bold 13.00px Times">
<text x="505.80" y="176.40">I</text>
</g>
<g stroke-width="0.70" style="font:bold 13.00px Times">
<text x="619.10" y="182.40">V</text>
<use x="22.00" y="207.00" xlink:href="#tclef"/>
<use x="37.00" y="201.00" xlink:href="#ft0"/>
<use x="55.50" y="198.00" xlink:href="#hd"/>
<circle class="fill" cx="63.20" cy="198.00" r="1.2"/>
<path d="M52.00 198.00v21.00" class="stroke"/>
<use x="88.40" y="201.00" xlink:href="#hd"/>
<path d="M84.90 201.00v21.00" class="stroke"/>
<path class="fill"
	d="M84.90 222.00c0.6 -5.6 9.6 -9 5.6 -18.4
	1.6 6 -1.3 11.6 -5.6 12.8
"/>
<use x="106.70" y="204.00" xlink:href="#hd"/>
<path d="M110.20 204.00v-21.00" class="stroke"/>
<use x="135.20" y="201.00" xlink:href="#hd"/>
<path d="M138.70 201.00v-21.00" class="stroke"/>
<path class="fill"
	d="M138.70 180.00c0.6 5.6 9.6 9 5.6 18.4
	1.6 -6 -1.3 -11.6 -5.6 -12.8
"/>
<use x="155.90" y="204.00" xlink:href="#hd"/>
<path d="M159.40 204.00v-21.00" class="stroke"/>
<path class="fill"
	d="M159.40 183.00c0.6 5.6 9.6 9 5.6 18.4
	1.6 -6 -1.3 -11.6 -5.6 -12.8
"/>
<use x="185.90" y="207.00" xlink:href="#Hd"/>
<path d="M189.40 207.00v-21.00" class="stroke"/>
<use x="225.90" y="210.00" xlink:href="#Hd"/>
<path d="M229.40 210.00v-21.00" class="stroke"/>
<use x="267.40" y="204.00" xlink:href="#hd"/>
<path d="M270.90 204.00v-21.00" class="stroke"/>
<use x="295.90" y="204.00" xlink:href="#hd"/>
<path d="M299.40 204.00v-21.00" class="stroke"/>
<use x="324.50" y="198.00" xlink:href="#hd"/>
<path d="M321.00 198.00v21.00" class="stroke"/>
<use x="353.00" y="198.00" xlink:href="#hd"/>
<path d="M349.50 198.00v21.00" class="stroke"/>
<use x="386.40" y="195.00" xlink:href="#hd"/>
<path d="M382.90 195.00v21.00" class="stroke"/>
<path class="fill"
	d="M382.90 216.00c0.6 -5.6 9.6 -9 5.6 -18.4
	1.6 6 -1.3 11.6 -5.6 12.8
"/>
<use x="406.70" y="198.00" xlink:href="#hd"/>
<path d="M403.20 198.00v21.00" class="stroke"/>
<path class="fill"
	d="M403.20 219.00c0.6 -5.6 9.6 -9 5.6 -18.4
	1.6 6 -1.3 11.6 -5.6 12.8
"/>
<use x="427.10" y="201.00" xlink:href="#hd"/>
<path d="M423.60 201.00v21.00" class="stroke"/>
<path class="fill"
	d="M423.60 222.00c0.6 -5.6 9.6 -9 5.6 -18.4
	1.6 6 -1.3 11.6 -5.6 12.8
"/>
<use x="445.40" y="204.00" xlink:href="#hd"/>
<path d="M448.90 204.00v-21.00" class="stroke"/>
<path class="fill"
	d="M448.90 183.00c0.6 5.6 9.6 9 5.6 18.4
	1.6 -6 -1.3 -11.6 -5.6 -12.8
"/>
<use x="466.10" y="207.00" xlink:href="#Hd"/>
<path d="M469.60 207.00v-21.00" class="stroke"/>
<use x="507.60" y="204.00" xlink:href="#hd"/>
<circle class="fill" cx="515.30" cy="204.00" r="1.2"/>
<path d="M511.10 204.00v-21.00" class="stroke"/>
<use x="540.50" y="207.00" xlink:href="#hd"/>
<path d="M544.00 207.00v-21.00" class="stroke"/>
<path class="fill"
	d="M544.00 186.00c0.6 5.6 9.6 9 5.6 18.4
	1.6 -6 -1.3 -11.6 -5.6 -12.8
"/>
<use x="561.20" y="204.00" xlink:href="#hd"/>
<path d="M564.70 204.00v-21.00" class="stroke"/>
<use x="589.60" y="201.00" xlink:href="#hd"/>
<path d="M593.10 201.00v-21.00" class="stroke"/>
<use x="623.00" y="198.00" xlink:href="#Hd"/>
<path d="M619.50 198.00v21.00" class="stroke"/>
<use x="663.10" y="198.00" xlink:href="#Hd"/>
<path d="M659.60 198.00v21.00" class="stroke"/>
<use x="22.00" y="253.00" xlink:href="#bclef"/>
<use x="37.00" y="265.00" xlink:href="#ft0"/>
<use x="55.50" y="268.00" xlink:href="#Hd"/>
<path d="M59.00 268.00v-21.00" class="stroke"/>
<use x="106.70" y="268.00" xlink:href="#Hd"/>
<path d="M110.20 268.00v-21.00" class="stroke"/>
<use x="185.90" y="274.00" xlink:href="#Hd"/>
<path d="M189.40 274.00v-21.00" class="stroke"/>
<use x="225.90" y="274.00" xlink:href="#Hd"/>
<path d="M229.40 274.00v-21.00" class="stroke"/>
<use x="267.40" y="259.00" xlink:href="#Hd"/>
<path d="M270.90 259.00v-21.00" class="stroke"/>
<use x="324.50" y="259.00" xlink:href="#Hd"/>
<path d="M328.00 259.00v-21.00" class="stroke"/>
<use x="386.40" y="265.00" xlink:href="#Hd"/>
<path d="M389.90 265.00v-21.00" class="stroke"/>
<use x="466.10" y="265.00" xlink:href="#Hd"/>
<path d="M469.60 265.00v-21.00" class="stroke"/>
<use x="507.60" y="274.00" xlink:href="#Hd"/>
<path d="M511.10 274.00v-21.00" class="stroke"/>
<use x="561.20" y="274.00" xlink:href="#Hd"/>
<path d="M564.70 274.00v-21.00" class="stroke"/>
<use x="623.00" y="262.00" xlink:href="#Hd"/>
<path d="M626.50 262.00v-21.00" class="stroke"/>
<use x="663.10" y="262.00" xlink:href="#Hd"/>
<path d="M666.60 262.00v-21.00" class="stroke"/>
</g>
<g stroke-width="0.70" style="font:bold 13.00px Times">
<path class="stroke" stroke-width="1"
	d="M10.00 399.00v-82.00"/>
<g transform="translate(10.00,317.00) scale(1,0.82)">
	<use xlink:href="#brace"/>
</g>
<path class="stroke" stroke-width="1"
	d="M218.00 341.00v-24.00"/>
<path class="stroke" stroke-width="1"
	d="M218.00 399.00v-24.00"/>
<path class="stroke" stroke-width="1"
	d="M380.10 341.00v-24.00"/>
<path class="stroke" stroke-width="1"
	d="M380.10 399.00v-24.00"/>
<path class="stroke" stroke-width="1"
	d="M570.40 341.00v-24.00"/>
<path class="stroke" stroke-width="1"
	d="M570.40 399.00v-24.00"/>
<path class="stroke" stroke-width="1"
	d="M691.60 341.00v-24.00"/>
<path class="stroke" stroke-width="1"
	d="M691.60 399.00v-24.00"/>
<path d="m10.00 341.00
	h681.60
	M10.00 335.00
	h681.60
	M10.00 329.00
	h681.60
	M10.00 323.00
	h681.60
	M10.00 317.00
	h681.60
	" class="stroke"/>
<path d="m10.00 399.00
	h681.60
	M10.00 393.00
	h681.60
	M10.00 387.00
	h681.60
	M10.00 381.00
	h681.60
	M10.00 375.00
	h681.60
	" class="stroke"/>
</g>
<g stroke-width="0.70" style="font:bold 13.00px Times">
<text x="51.70" y="310.40">I<tspan
	 style="font:italic 11.00px Times">¹</tspan></text>
</g>
<g stroke-width="0.70" style="font:bold 13.00px Times">
<text x="231.80" y="312.40">I</text>
</g>
<g stroke-width="0.70" style="font:bold 13.00px Times">
<text x="393.80" y="312.40">I</text>
</g>
<g stroke-width="0.70" style="font:bold 13.00px Times">
<text x="584.10" y="307.40">I</text>
<use x="22.00" y="335.00" xlink:href="#tclef"/>
<use x="37.00" y="329.00" xlink:href="#ft0"/>
<use x="55.50" y="338.00" xlink:href="#hd"/>
<path d="M59.00 338.00v-21.00" class="stroke"/>
<use x="99.40" y="338.00" xlink:href="#hd"/>
<path d="M102.90 338.00v-21.00" class="stroke"/>
<use x="143.40" y="332.00" xlink:href="#hd"/>
<path d="M146.90 332.00v-21.00" class="stroke"/>
<use x="187.30" y="332.00" xlink:href="#hd"/>
<path d="M190.80 332.00v-21.00" class="stroke"/>
<use x="233.60" y="326.00" xlink:href="#hd"/>
<path d="M230.10 326.00v21.00" class="stroke"/>
<use x="277.50" y="329.00" xlink:href="#hd"/>
<path d="M274.00 329.00v21.00" class="stroke"/>
<path class="fill"
	d="M274.00 350.00c0.6 -5.6 9.6 -9 5.6 -18.4
	1.6 6 -1.3 11.6 -5.6 12.8
"/>
<use x="305.50" y="332.00" xlink:href="#hd"/>
<path d="M309.00 332.00v-21.00" class="stroke"/>
<path class="fill"
	d="M309.00 311.00c0.6 5.6 9.6 9 5.6 18.4
	1.6 -6 -1.3 -11.6 -5.6 -12.8
"/>
<use x="336.60" y="335.00" xlink:href="#Hd"/>
<path d="M340.10 335.00v-21.00" class="stroke"/>
<use x="395.60" y="326.00" xlink:href="#hd"/>
<circle class="fill" cx="403.30" cy="326.00" r="1.2"/>
<path d="M392.10 326.00v21.00" class="stroke"/>
<use x="445.60" y="329.00" xlink:href="#hd"/>
<path d="M442.10 329.00v21.00" class="stroke"/>
<path class="fill"
	d="M442.10 350.00c0.6 -5.6 9.6 -9 5.6 -18.4
	1.6 6 -1.3 11.6 -5.6 12.8
"/>
<use x="473.60" y="332.00" xlink:href="#hd"/>
<path d="M477.10 332.00v-21.00" class="stroke"/>
<use x="517.50" y="329.00" xlink:href="#hd"/>
<path d="M521.00 329.00v-21.00" class="stroke"/>
<path class="fill"
	d="M521.00 308.00c0.6 5.6 9.6 9 5.6 18.4
	1.6 -6 -1.3 -11.6 -5.6 -12.8
"/>
<use x="548.60" y="332.00" xlink:href="#hd"/>
<path d="M552.10 332.00v-21.00" class="stroke"/>
<path class="fill"
	d="M552.10 311.00c0.6 5.6 9.6 9 5.6 18.4
	1.6 -6 -1.3 -11.6 -5.6 -12.8
"/>
<use x="585.90" y="335.00" xlink:href="#Hd"/>
<path d="M589.40 335.00v-21.00" class="stroke"/>
<use x="648.10" y="338.00" xlink:href="#Hd"/>
<path d="M651.60 338.00v-21.00" class="stroke"/>
<use x="22.00" y="381.00" xlink:href="#bclef"/>
<use x="37.00" y="393.00" xlink:href="#ft0"/>
<use x="55.50" y="402.00" xlink:href="#Hd"/>
<path d="M59.00 402.00v-21.00" class="stroke"/>
<use x="143.40" y="402.00" xlink:href="#Hd"/>
<path d="M146.90 402.00v-21.00" class="stroke"/>
<use x="233.60" y="402.00" xlink:href="#Hd"/>
<path d="M237.10 402.00v-21.00" class="stroke"/>
<use x="336.60" y="402.00" xlink:href="#Hd"/>
<path d="M340.10 402.00v-21.00" class="stroke"/>
<use x="395.60" y="402.00" xlink:href="#Hd"/>
<path d="M399.10 402.00v-21.00" class="stroke"/>
<use x="473.60" y="402.00" xlink:href="#Hd"/>
<path d="M477.10 402.00v-21.00" class="stroke"/>
<use x="585.90" y="402.00" xlink:href="#Hd"/>
<path d="M589.40 402.00v-21.00" class="stroke"/>
<use x="648.10" y="402.00" xlink:href="#Hd"/>
<path d="M651.60 402.00v-21.00" class="stroke"/>
</g>
</svg>
