<?xml version="1.0" standalone="no"?>
<!DOCTYPE svg PUBLIC "-//W3C//DTD SVG 1.1//EN"
	"http://www.w3.org/Graphics/SVG/1.1/DTD/svg11.dtd">
<svg xmlns="http://www.w3.org/2000/svg" version="1.1"
	xmlns:xlink="http://www.w3.org/1999/xlink"
	color="black"
	width="701.60px" height="426.80px" viewBox="0 0 701.60 426.80" preserveAspectRatio="xMidYMid meet">
<style type="text/css">
.fill {fill: currentColor}
.stroke {stroke: currentColor; fill: none}
text{white-space: pre}
</style>
<title>/tmp/retab_hymnal_L2/crown_him_with_many_crowns.abc (1) tune 1</title>
<!-- Creator: abcm2ps-8.14.11 -->
<!-- CreationDate: Apr 24, 2026 15:38 -->
<!-- CommandLine: /tmp/retab_hymnal_L2/crown_him_with_many_crowns.abc -g -O /tmp/retab_hymnal_L2/crown_him_with_many_crowns -->
<g stroke-width="0.70">
<!-- title: 057. Crown Him With Many Crowns -->
</g>
<g stroke-width="0.70" style="font:20.00px Times">
<text x="350.80" y="22.00" text-anchor="middle">057. Crown Him With Many Crowns</text>
</g>
<g stroke-width="0.70" style="font:20.00px Times">
<path class="stroke" stroke-width="1"
	d="M10.00 145.40v-82.00"/>
<defs>
<path id="brace" class="fill" d="m-2.5 101
	c-4.5 -4.6 -7.5 -12.2 -4.4 -26.8
	3.5 -14.3 3.2 -21.7 -2.1 -24.2
	7.4 2.4 7.3 14.2 3.5 29.5
	-2.7 9.5 -1.5 16.2 3 21.5
	M-2.5 1c-4.5 4.6 -7.5 12.2 -4.4 26.8
	c3.5 14.3 3.2 21.7 -2.1 24.2
	7.4 -2.4 7.3 -14.2 3.5 -29.5
	-2.7 -9.5 -1.5 -16.2 3 -21.5"/>
</defs>
<g transform="translate(10.00,63.40) scale(1,0.82)">
	<use xlink:href="#brace"/>
</g>
<path class="stroke" stroke-width="1"
	d="M181.50 87.40v-24.00"/>
<path class="stroke" stroke-width="1"
	d="M181.50 145.40v-24.00"/>
<path class="stroke" stroke-width="1"
	d="M272.10 87.40v-24.00"/>
<path class="stroke" stroke-width="1"
	d="M272.10 145.40v-24.00"/>
<path class="stroke" stroke-width="1"
	d="M377.70 87.40v-24.00"/>
<path class="stroke" stroke-width="1"
	d="M377.70 145.40v-24.00"/>
<path class="stroke" stroke-width="1"
	d="M468.20 87.40v-24.00"/>
<path class="stroke" stroke-width="1"
	d="M468.20 145.40v-24.00"/>
<path class="stroke" stroke-width="1"
	d="M573.80 87.40v-24.00"/>
<path class="stroke" stroke-width="1"
	d="M573.80 145.40v-24.00"/>
<path class="stroke" stroke-width="1"
	d="M691.60 87.40v-24.00"/>
<path class="stroke" stroke-width="1"
	d="M691.60 145.40v-24.00"/>
<path d="m10.00 87.40
	h681.60
	M10.00 81.40
	h681.60
	M10.00 75.40
	h681.60
	M10.00 69.40
	h681.60
	M10.00 63.40
	h681.60
	" class="stroke"/>
<path d="m10.00 145.40
	h681.60
	M10.00 139.40
	h681.60
	M10.00 133.40
	h681.60
	M10.00 127.40
	h681.60
	M10.00 121.40
	h681.60
	" class="stroke"/>
</g>
<g stroke-width="0.70" style="font:bold 13.00px Times">
<text x="75.20" y="58.80">I</text>
</g>
<g stroke-width="0.70" style="font:bold 13.00px Times">
<text x="188.80" y="47.80">IV</text>
</g>
<g stroke-width="0.70" style="font:bold 13.00px Times">
<text x="281.30" y="50.80">I<tspan
	 style="font:italic 11.00px Times">¹</tspan></text>
</g>
<g stroke-width="0.70" style="font:bold 13.00px Times">
<text x="386.70" y="58.80">V</text>
</g>
<g stroke-width="0.70" style="font:bold 13.00px Times">
<text x="479.40" y="56.80">I</text>
</g>
<g stroke-width="0.70" style="font:bold 13.00px Times">
<text x="580.90" y="53.80">V<tspan
	 style="font:italic 11.00px Times">¹</tspan></text>
</g>
<g stroke-width="0.70" style="font:italic 11.00px Times">
<defs>
<path id="utclef" class="fill" d="m-50 -90
	c-72 -41 -72 -158 52 -188
	150 -10 220 188 90 256
	-114 52 -275 0 -293 -136
	-15 -181 93 -229 220 -334
	88 -87 79 -133 62 -210
	-51 33 -94 105 -89 186
	17 267 36 374 49 574
	6 96 -19 134 -77 135
	-80 1 -126 -93 -61 -133
	85 -41 133 101 31 105
	23 17 92 37 90 -92
	-10 -223 -39 -342 -50 -617
	0 -90 0 -162 96 -232
	56 72 63 230 22 289
	-74 106 -257 168 -255 316
	9 153 148 185 252 133
	86 -65 29 -192 -80 -176
	-71 12 -105 67 -59 124"/>
<use id="tclef" transform="translate(0,6) scale(0.045)"
	xlink:href="#utclef"/>
</defs>
<use x="22.00" y="81.40" xlink:href="#tclef"/>
<defs>
<path id="usharp" class="fill" d="
	m136 -702
	v890
	h32
	v-890
	m128 840
	h32
	v-888
	h-32
	m-232 286
	v116
	l338 -96
	v-116
	m-338 442
	v116
	l338 -98
	v-114"/>
<use id="sh0" transform="translate(-4,5) scale(0.018)"
	xlink:href="#usharp"/>
</defs>
<use x="37.00" y="63.40" xlink:href="#sh0"/>
<use x="42.50" y="72.40" xlink:href="#sh0"/>
<g style="font:bold 16px serif"
	transform="translate(58.50,86.90) scale(1.2,1)">
	<text text-anchor="middle">4</text>
	<text y="-12" text-anchor="middle">4</text>
</g>
<defs>
<ellipse id="hd" rx="4.1" ry="2.9"
	transform="rotate(-20)" class="fill"/>
</defs>
<use x="77.00" y="90.40" xlink:href="#hd"/>
<path d="M80.50 90.40v-21.00" class="stroke"/>
<use x="101.80" y="90.40" xlink:href="#hd"/>
<path d="M105.30 90.40v-21.00" class="stroke"/>
<path class="fill"
	d="M105.30 69.40c0.6 5.6 9.6 9 5.6 18.4
	1.6 -6 -1.3 -11.6 -5.6 -12.8
"/>
<use x="120.20" y="90.40" xlink:href="#hd"/>
<path d="M123.70 90.40v-21.00" class="stroke"/>
<path class="fill"
	d="M123.70 69.40c0.6 5.6 9.6 9 5.6 18.4
	1.6 -6 -1.3 -11.6 -5.6 -12.8
"/>
<use x="138.60" y="84.40" xlink:href="#hd"/>
<path d="M142.10 84.40v-21.00" class="stroke"/>
<use x="163.40" y="84.40" xlink:href="#hd"/>
<path d="M166.90 84.40v-21.00" class="stroke"/>
<defs>
<path id="Hd" class="fill" d="m3 -1.6
	c-1 -1.8 -7 1.4 -6 3.2
	1 1.8 7 -1.4 6 -3.2
	m0.5 -0.3
	c2 3.8 -5 7.6 -7 3.8
	-2 -3.8 5 -7.6 7 -3.8"/>
</defs>
<use x="194.50" y="75.40" xlink:href="#Hd"/>
<circle class="fill" cx="203.20" cy="72.40" r="1.2"/>
<path d="M198.00 75.40v-21.00" class="stroke"/>
<use x="254.00" y="75.40" xlink:href="#hd"/>
<path d="M257.50 75.40v-21.00" class="stroke"/>
<use x="285.10" y="78.40" xlink:href="#hd"/>
<path d="M288.60 78.40v-21.00" class="stroke"/>
<use x="309.90" y="90.40" xlink:href="#hd"/>
<path d="M313.40 90.40v-21.00" class="stroke"/>
<use x="334.70" y="81.40" xlink:href="#hd"/>
<path d="M338.20 81.40v-21.00" class="stroke"/>
<use x="359.50" y="84.40" xlink:href="#hd"/>
<path d="M363.00 84.40v-21.00" class="stroke"/>
<use x="390.70" y="87.40" xlink:href="#Hd"/>
<circle class="fill" cx="399.40" cy="84.40" r="1.2"/>
<path d="M394.20 87.40v-21.00" class="stroke"/>
<use x="450.10" y="87.40" xlink:href="#hd"/>
<path d="M453.60 87.40v-21.00" class="stroke"/>
<use x="481.20" y="84.40" xlink:href="#hd"/>
<path d="M484.70 84.40v-21.00" class="stroke"/>
<use x="506.00" y="78.40" xlink:href="#hd"/>
<path d="M509.50 78.40v-21.00" class="stroke"/>
<use x="530.80" y="75.40" xlink:href="#hd"/>
<path d="M534.30 75.40v-21.00" class="stroke"/>
<use x="555.70" y="78.40" xlink:href="#hd"/>
<path d="M559.20 78.40v-21.00" class="stroke"/>
<use x="586.80" y="81.40" xlink:href="#hd"/>
<path d="M590.30 81.40v-21.00" class="stroke"/>
<use x="611.60" y="84.40" xlink:href="#hd"/>
<path d="M615.10 84.40v-21.00" class="stroke"/>
<path class="fill"
	d="M615.10 63.40c0.6 5.6 9.6 9 5.6 18.4
	1.6 -6 -1.3 -11.6 -5.6 -12.8
"/>
<use x="630.00" y="87.40" xlink:href="#hd"/>
<path d="M633.50 87.40v-21.00" class="stroke"/>
<path class="fill"
	d="M633.50 66.40c0.6 5.6 9.6 9 5.6 18.4
	1.6 -6 -1.3 -11.6 -5.6 -12.8
"/>
<use x="648.40" y="78.40" xlink:href="#hd"/>
<path d="M651.90 78.40v-21.00" class="stroke"/>
<use x="673.50" y="69.40" xlink:href="#hd"/>
<path d="M670.00 69.40v21.00" class="stroke"/>
<defs>
<path id="ubclef" class="fill" d="m-200 -87
	c124 -35 222 -78 254 -236
	43 -228 -167 -246 -192 -103
	59 -80 157 22 92 78
	-62 47 -115 -22 -106 -88
	21 -141 270 -136 274 52
	-1 175 -106 264 -322 297
	m357 -250
	c0 -36 51 -34 51 0
	0 37 -51 36 -51 0
	m-2 -129
	c0 -36 51 -34 51 0
	0 38 -51 37 -51 0"/>
<use id="bclef" transform="translate(0,18) scale(0.045)"
	xlink:href="#ubclef"/>
</defs>
<use x="22.00" y="127.40" xlink:href="#bclef"/>
<use x="37.00" y="127.40" xlink:href="#sh0"/>
<use x="42.50" y="136.40" xlink:href="#sh0"/>
<g style="font:bold 16px serif"
	transform="translate(58.50,144.90) scale(1.2,1)">
	<text text-anchor="middle">4</text>
	<text y="-12" text-anchor="middle">4</text>
</g>
<defs>
<path id="hl" class="stroke" d="m-6 0h12"/>
</defs>
<use x="77.00" y="151.40" xlink:href="#hl"/>
<use x="77.00" y="154.40" xlink:href="#Hd"/>
<path d="M80.50 154.40v-21.00" class="stroke"/>
<use x="138.60" y="151.40" xlink:href="#hl"/>
<use x="138.60" y="154.40" xlink:href="#Hd"/>
<path d="M142.10 154.40v-21.00" class="stroke"/>
<use x="194.50" y="145.40" xlink:href="#Hd"/>
<path d="M198.00 145.40v-21.00" class="stroke"/>
<use x="229.30" y="145.40" xlink:href="#Hd"/>
<path d="M232.80 145.40v-21.00" class="stroke"/>
<use x="285.10" y="151.40" xlink:href="#hl"/>
<use x="285.10" y="154.40" xlink:href="#Hd"/>
<path d="M288.60 154.40v-21.00" class="stroke"/>
<use x="334.70" y="151.40" xlink:href="#hl"/>
<use x="334.70" y="154.40" xlink:href="#Hd"/>
<path d="M338.20 154.40v-21.00" class="stroke"/>
<use x="390.70" y="142.40" xlink:href="#Hd"/>
<path d="M394.20 142.40v-21.00" class="stroke"/>
<use x="425.40" y="142.40" xlink:href="#Hd"/>
<path d="M428.90 142.40v-21.00" class="stroke"/>
<use x="481.20" y="151.40" xlink:href="#hl"/>
<use x="481.20" y="154.40" xlink:href="#Hd"/>
<path d="M484.70 154.40v-21.00" class="stroke"/>
<use x="530.80" y="151.40" xlink:href="#hl"/>
<use x="530.80" y="154.40" xlink:href="#Hd"/>
<path d="M534.30 154.40v-21.00" class="stroke"/>
<use x="586.80" y="142.40" xlink:href="#Hd"/>
<path d="M590.30 142.40v-21.00" class="stroke"/>
<use x="648.40" y="142.40" xlink:href="#Hd"/>
<path d="M651.90 142.40v-21.00" class="stroke"/>
</g>
<g stroke-width="0.70" style="font:italic 11.00px Times">
<path class="stroke" stroke-width="1"
	d="M10.00 275.80v-82.00"/>
<g transform="translate(10.00,193.80) scale(1,0.82)">
	<use xlink:href="#brace"/>
</g>
<path class="stroke" stroke-width="1"
	d="M163.50 217.80v-24.00"/>
<path class="stroke" stroke-width="1"
	d="M163.50 275.80v-24.00"/>
<path class="stroke" stroke-width="1"
	d="M262.50 217.80v-24.00"/>
<path class="stroke" stroke-width="1"
	d="M262.50 275.80v-24.00"/>
<path class="stroke" stroke-width="1"
	d="M378.00 217.80v-24.00"/>
<path class="stroke" stroke-width="1"
	d="M378.00 275.80v-24.00"/>
<path class="stroke" stroke-width="1"
	d="M477.10 217.80v-24.00"/>
<path class="stroke" stroke-width="1"
	d="M477.10 275.80v-24.00"/>
<path class="stroke" stroke-width="1"
	d="M592.60 217.80v-24.00"/>
<path class="stroke" stroke-width="1"
	d="M592.60 275.80v-24.00"/>
<path class="stroke" stroke-width="1"
	d="M691.60 217.80v-24.00"/>
<path class="stroke" stroke-width="1"
	d="M691.60 275.80v-24.00"/>
<path d="m10.00 217.80
	h681.60
	M10.00 211.80
	h681.60
	M10.00 205.80
	h681.60
	M10.00 199.80
	h681.60
	M10.00 193.80
	h681.60
	" class="stroke"/>
<path d="m10.00 275.80
	h681.60
	M10.00 269.80
	h681.60
	M10.00 263.80
	h681.60
	M10.00 257.80
	h681.60
	M10.00 251.80
	h681.60
	" class="stroke"/>
</g>
<g stroke-width="0.70" style="font:bold 13.00px Times">
<text x="59.20" y="189.20">I</text>
</g>
<g stroke-width="0.70" style="font:bold 13.00px Times">
<text x="172.50" y="181.20">V</text>
</g>
<g stroke-width="0.70" style="font:bold 13.00px Times">
<text x="271.80" y="181.20">I<tspan
	 style="font:italic 11.00px Times">¹</tspan></text>
</g>
<g stroke-width="0.70" style="font:bold 13.00px Times">
<text x="385.30" y="178.20">IV</text>
</g>
<g stroke-width="0.70" style="font:bold 13.00px Times">
<text x="487.00" y="178.20">ii</text>
</g>
<g stroke-width="0.70" style="font:bold 13.00px Times">
<text x="601.60" y="189.20">V</text>
<use x="22.00" y="211.80" xlink:href="#tclef"/>
<use x="37.00" y="193.80" xlink:href="#sh0"/>
<use x="42.50" y="202.80" xlink:href="#sh0"/>
<use x="61.00" y="202.80" xlink:href="#hd"/>
<path d="M57.50 202.80v21.00" class="stroke"/>
<use x="88.60" y="199.80" xlink:href="#hd"/>
<path d="M85.10 199.80v21.00" class="stroke"/>
<use x="116.20" y="205.80" xlink:href="#hd"/>
<path d="M112.70 205.80v21.00" class="stroke"/>
<use x="143.70" y="205.80" xlink:href="#hd"/>
<path d="M140.20 205.80v21.00" class="stroke"/>
<use x="176.50" y="208.80" xlink:href="#Hd"/>
<circle class="fill" cx="185.20" cy="208.80" r="1.2"/>
<path d="M180.00 208.80v-21.00" class="stroke"/>
<use x="242.80" y="208.80" xlink:href="#hd"/>
<path d="M246.30 208.80v-21.00" class="stroke"/>
<use x="275.50" y="208.80" xlink:href="#hd"/>
<path d="M279.00 208.80v-21.00" class="stroke"/>
<use x="303.10" y="214.80" xlink:href="#hd"/>
<path d="M306.60 214.80v-21.00" class="stroke"/>
<use x="330.70" y="217.80" xlink:href="#hd"/>
<path d="M334.20 217.80v-21.00" class="stroke"/>
<use x="358.30" y="220.80" xlink:href="#hd"/>
<path d="M361.80 220.80v-21.00" class="stroke"/>
<use x="391.00" y="205.80" xlink:href="#Hd"/>
<circle class="fill" cx="399.70" cy="202.80" r="1.2"/>
<path d="M394.50 205.80v-21.00" class="stroke"/>
<use x="457.30" y="205.80" xlink:href="#hd"/>
<path d="M460.80 205.80v-21.00" class="stroke"/>
<use x="490.10" y="205.80" xlink:href="#hd"/>
<path d="M493.60 205.80v-21.00" class="stroke"/>
<use x="517.60" y="211.80" xlink:href="#hd"/>
<path d="M521.10 211.80v-21.00" class="stroke"/>
<use x="545.20" y="214.80" xlink:href="#hd"/>
<path d="M548.70 214.80v-21.00" class="stroke"/>
<use x="572.80" y="217.80" xlink:href="#hd"/>
<path d="M576.30 217.80v-21.00" class="stroke"/>
<use x="605.60" y="202.80" xlink:href="#Hd"/>
<circle class="fill" cx="614.30" cy="202.80" r="1.2"/>
<path d="M602.10 202.80v21.00" class="stroke"/>
<use x="671.80" y="202.80" xlink:href="#hd"/>
<path d="M668.30 202.80v21.00" class="stroke"/>
<use x="22.00" y="257.80" xlink:href="#bclef"/>
<use x="37.00" y="257.80" xlink:href="#sh0"/>
<use x="42.50" y="266.80" xlink:href="#sh0"/>
<use x="61.00" y="281.80" xlink:href="#hl"/>
<use x="61.00" y="284.80" xlink:href="#Hd"/>
<path d="M64.50 284.80v-21.00" class="stroke"/>
<use x="116.20" y="281.80" xlink:href="#hl"/>
<use x="116.20" y="284.80" xlink:href="#Hd"/>
<path d="M119.70 284.80v-21.00" class="stroke"/>
<use x="176.50" y="272.80" xlink:href="#Hd"/>
<path d="M180.00 272.80v-21.00" class="stroke"/>
<use x="215.30" y="272.80" xlink:href="#Hd"/>
<path d="M218.80 272.80v-21.00" class="stroke"/>
<use x="275.50" y="281.80" xlink:href="#hl"/>
<use x="275.50" y="284.80" xlink:href="#Hd"/>
<path d="M279.00 284.80v-21.00" class="stroke"/>
<use x="330.70" y="281.80" xlink:href="#hl"/>
<use x="330.70" y="284.80" xlink:href="#Hd"/>
<path d="M334.20 284.80v-21.00" class="stroke"/>
<use x="391.00" y="275.80" xlink:href="#Hd"/>
<path d="M394.50 275.80v-21.00" class="stroke"/>
<use x="429.80" y="275.80" xlink:href="#Hd"/>
<path d="M433.30 275.80v-21.00" class="stroke"/>
<use x="490.10" y="281.80" xlink:href="#hl"/>
<use x="490.10" y="281.80" xlink:href="#Hd"/>
<path d="M493.60 281.80v-21.00" class="stroke"/>
<use x="545.20" y="281.80" xlink:href="#hl"/>
<use x="545.20" y="281.80" xlink:href="#Hd"/>
<path d="M548.70 281.80v-21.00" class="stroke"/>
<use x="605.60" y="272.80" xlink:href="#Hd"/>
<path d="M609.10 272.80v-21.00" class="stroke"/>
<use x="644.40" y="272.80" xlink:href="#Hd"/>
<path d="M647.90 272.80v-21.00" class="stroke"/>
</g>
<g stroke-width="0.70" style="font:bold 13.00px Times">
<path class="stroke" stroke-width="1"
	d="M10.00 403.80v-82.00"/>
<g transform="translate(10.00,321.80) scale(1,0.82)">
	<use xlink:href="#brace"/>
</g>
<path class="stroke" stroke-width="1"
	d="M216.10 345.80v-24.00"/>
<path class="stroke" stroke-width="1"
	d="M216.10 403.80v-24.00"/>
<path class="stroke" stroke-width="1"
	d="M393.50 345.80v-24.00"/>
<path class="stroke" stroke-width="1"
	d="M393.50 403.80v-24.00"/>
<path class="stroke" stroke-width="1"
	d="M570.90 345.80v-24.00"/>
<path class="stroke" stroke-width="1"
	d="M570.90 403.80v-24.00"/>
<path class="stroke" stroke-width="1"
	d="M691.60 345.80v-24.00"/>
<path class="stroke" stroke-width="1"
	d="M691.60 403.80v-24.00"/>
<path d="m10.00 345.80
	h681.60
	M10.00 339.80
	h681.60
	M10.00 333.80
	h681.60
	M10.00 327.80
	h681.60
	M10.00 321.80
	h681.60
	" class="stroke"/>
<path d="m10.00 403.80
	h681.60
	M10.00 397.80
	h681.60
	M10.00 391.80
	h681.60
	M10.00 385.80
	h681.60
	M10.00 379.80
	h681.60
	" class="stroke"/>
</g>
<g stroke-width="0.70" style="font:bold 13.00px Times">
<text x="57.20" y="317.20">I<tspan
	 style="font:italic 11.00px Times">¹</tspan></text>
</g>
<g stroke-width="0.70" style="font:bold 13.00px Times">
<text x="226.60" y="312.20">ii<tspan
	 style="font:italic 11.00px Times">⁷</tspan></text>
</g>
<g stroke-width="0.70" style="font:bold 13.00px Times">
<text x="403.20" y="312.20">IV</text>
</g>
<g stroke-width="0.70" style="font:bold 13.00px Times">
<text x="584.50" y="317.20">I</text>
<use x="22.00" y="339.80" xlink:href="#tclef"/>
<use x="37.00" y="321.80" xlink:href="#sh0"/>
<use x="42.50" y="330.80" xlink:href="#sh0"/>
<use x="61.00" y="327.80" xlink:href="#hd"/>
<circle class="fill" cx="68.70" cy="324.80" r="1.2"/>
<path d="M57.50 327.80v21.00" class="stroke"/>
<use x="110.80" y="330.80" xlink:href="#hd"/>
<path d="M107.30 330.80v21.00" class="stroke"/>
<path class="fill"
	d="M107.30 351.80c0.6 -5.6 9.6 -9 5.6 -18.4
	1.6 6 -1.3 11.6 -5.6 12.8
"/>
<use x="141.80" y="333.80" xlink:href="#hd"/>
<path d="M138.30 333.80v21.00" class="stroke"/>
<use x="185.50" y="336.80" xlink:href="#hd"/>
<path d="M189.00 336.80v-21.00" class="stroke"/>
<use x="231.60" y="339.80" xlink:href="#hd"/>
<path d="M235.10 339.80v-21.00" class="stroke"/>
<use x="275.40" y="345.80" xlink:href="#hd"/>
<path d="M278.90 345.80v-21.00" class="stroke"/>
<use x="319.10" y="342.80" xlink:href="#hd"/>
<path d="M322.60 342.80v-21.00" class="stroke"/>
<use x="362.90" y="336.80" xlink:href="#hd"/>
<path d="M366.40 336.80v-21.00" class="stroke"/>
<use x="409.00" y="339.80" xlink:href="#hd"/>
<path d="M412.50 339.80v-21.00" class="stroke"/>
<use x="452.70" y="342.80" xlink:href="#hd"/>
<path d="M456.20 342.80v-21.00" class="stroke"/>
<use x="496.50" y="345.80" xlink:href="#hd"/>
<path d="M500.00 345.80v-21.00" class="stroke"/>
<use x="540.20" y="345.80" xlink:href="#hd"/>
<path d="M543.70 345.80v-21.00" class="stroke"/>
<defs>
<path id="HD" class="fill" d="m-2.7 -1.4
	c1.5 -2.8 6.9 0 5.3 2.7
	-1.5 2.8 -6.9 0 -5.3 -2.7
	m8.3 1.4
	c0 -1.5 -2.2 -3 -5.6 -3
	-3.4 0 -5.6 1.5 -5.6 3
	0 1.5 2.2 3 5.6 3
	3.4 0 5.6 -1.5 5.6 -3"/>
</defs>
<use x="587.40" y="348.80" xlink:href="#HD"/>
<use x="22.00" y="385.80" xlink:href="#bclef"/>
<use x="37.00" y="385.80" xlink:href="#sh0"/>
<use x="42.50" y="394.80" xlink:href="#sh0"/>
<use x="61.00" y="409.80" xlink:href="#hl"/>
<use x="61.00" y="412.80" xlink:href="#Hd"/>
<path d="M64.50 412.80v-21.00" class="stroke"/>
<use x="141.80" y="409.80" xlink:href="#hl"/>
<use x="141.80" y="412.80" xlink:href="#Hd"/>
<path d="M145.30 412.80v-21.00" class="stroke"/>
<use x="231.60" y="409.80" xlink:href="#hl"/>
<use x="231.60" y="409.80" xlink:href="#Hd"/>
<path d="M235.10 409.80v-21.00" class="stroke"/>
<use x="319.10" y="409.80" xlink:href="#hl"/>
<use x="319.10" y="409.80" xlink:href="#Hd"/>
<path d="M322.60 409.80v-21.00" class="stroke"/>
<use x="409.00" y="403.80" xlink:href="#Hd"/>
<path d="M412.50 403.80v-21.00" class="stroke"/>
<use x="496.50" y="403.80" xlink:href="#Hd"/>
<path d="M500.00 403.80v-21.00" class="stroke"/>
<use x="586.40" y="409.80" xlink:href="#hl"/>
<use x="586.40" y="412.80" xlink:href="#Hd"/>
<path d="M589.90 412.80v-21.00" class="stroke"/>
<use x="648.30" y="409.80" xlink:href="#hl"/>
<use x="648.30" y="412.80" xlink:href="#Hd"/>
<path d="M651.80 412.80v-21.00" class="stroke"/>
</g>
</svg>
