<?xml version="1.0" standalone="no"?>
<!DOCTYPE svg PUBLIC "-//W3C//DTD SVG 1.1//EN"
	"http://www.w3.org/Graphics/SVG/1.1/DTD/svg11.dtd">
<svg xmlns="http://www.w3.org/2000/svg" version="1.1"
	xmlns:xlink="http://www.w3.org/1999/xlink"
	color="black"
	width="701.60px" height="294.80px" viewBox="0 0 701.60 294.80" preserveAspectRatio="xMidYMid meet">
<style type="text/css">
.fill {fill: currentColor}
.stroke {stroke: currentColor; fill: none}
text{white-space: pre}
</style>
<title>/tmp/retab_hymnal_L2/god_will_take_care_of_you.abc (1) tune 1</title>
<!-- Creator: abcm2ps-8.14.11 -->
<!-- CreationDate: Apr 24, 2026 15:38 -->
<!-- CommandLine: /tmp/retab_hymnal_L2/god_will_take_care_of_you.abc -g -O /tmp/retab_hymnal_L2/god_will_take_care_of_you -->
<g stroke-width="0.70">
<!-- title: 077. God Will Take Care of You -->
</g>
<g stroke-width="0.70" style="font:20.00px Times">
<text x="350.80" y="22.00" text-anchor="middle">077. God Will Take Care of You</text>
</g>
<g stroke-width="0.70" style="font:20.00px Times">
<path class="stroke" stroke-width="1"
	d="M10.00 143.40v-82.00"/>
<defs>
<path id="brace" class="fill" d="m-2.5 101
	c-4.5 -4.6 -7.5 -12.2 -4.4 -26.8
	3.5 -14.3 3.2 -21.7 -2.1 -24.2
	7.4 2.4 7.3 14.2 3.5 29.5
	-2.7 9.5 -1.5 16.2 3 21.5
	M-2.5 1c-4.5 4.6 -7.5 12.2 -4.4 26.8
	c3.5 14.3 3.2 21.7 -2.1 24.2
	7.4 -2.4 7.3 -14.2 3.5 -29.5
	-2.7 -9.5 -1.5 -16.2 3 -21.5"/>
</defs>
<g transform="translate(10.00,61.40) scale(1,0.82)">
	<use xlink:href="#brace"/>
</g>
<path class="stroke" stroke-width="1"
	d="M237.50 85.40v-24.00"/>
<path class="stroke" stroke-width="1"
	d="M237.50 143.40v-24.00"/>
<path class="stroke" stroke-width="1"
	d="M387.90 85.40v-24.00"/>
<path class="stroke" stroke-width="1"
	d="M387.90 143.40v-24.00"/>
<path class="stroke" stroke-width="1"
	d="M561.30 85.40v-24.00"/>
<path class="stroke" stroke-width="1"
	d="M561.30 143.40v-24.00"/>
<path class="stroke" stroke-width="1"
	d="M691.60 85.40v-24.00"/>
<path class="stroke" stroke-width="1"
	d="M691.60 143.40v-24.00"/>
<path d="m10.00 85.40
	h681.60
	M10.00 79.40
	h681.60
	M10.00 73.40
	h681.60
	M10.00 67.40
	h681.60
	M10.00 61.40
	h681.60
	" class="stroke"/>
<path d="m10.00 143.40
	h681.60
	M10.00 137.40
	h681.60
	M10.00 131.40
	h681.60
	M10.00 125.40
	h681.60
	M10.00 119.40
	h681.60
	" class="stroke"/>
</g>
<g stroke-width="0.70" style="font:bold 13.00px Times">
<text x="74.70" y="56.80">I</text>
</g>
<g stroke-width="0.70" style="font:bold 13.00px Times">
<text x="244.10" y="47.80">V<tspan
	 style="font:italic 11.00px Times">⁷</tspan></text>
</g>
<g stroke-width="0.70" style="font:bold 13.00px Times">
<text x="398.60" y="54.80">I</text>
</g>
<g stroke-width="0.70" style="font:bold 13.00px Times">
<text x="567.90" y="47.80">V<tspan
	 style="font:italic 11.00px Times">⁷</tspan></text>
</g>
<g stroke-width="0.70" style="font:italic 11.00px Times">
<defs>
<path id="utclef" class="fill" d="m-50 -90
	c-72 -41 -72 -158 52 -188
	150 -10 220 188 90 256
	-114 52 -275 0 -293 -136
	-15 -181 93 -229 220 -334
	88 -87 79 -133 62 -210
	-51 33 -94 105 -89 186
	17 267 36 374 49 574
	6 96 -19 134 -77 135
	-80 1 -126 -93 -61 -133
	85 -41 133 101 31 105
	23 17 92 37 90 -92
	-10 -223 -39 -342 -50 -617
	0 -90 0 -162 96 -232
	56 72 63 230 22 289
	-74 106 -257 168 -255 316
	9 153 148 185 252 133
	86 -65 29 -192 -80 -176
	-71 12 -105 67 -59 124"/>
<use id="tclef" transform="translate(0,6) scale(0.045)"
	xlink:href="#utclef"/>
</defs>
<use x="22.00" y="79.40" xlink:href="#tclef"/>
<defs>
<path id="uflat" class="fill" d="
	m100 -746
	h32
	v734
	l-32 4
	m32 -332
	c46 -72 152 -90 208 -20
	100 110 -120 326 -208 348
	m0 -28
	c54 0 200 -206 130 -290
	-50 -60 -130 -4 -130 34"/>
<use id="ft0" transform="translate(-3.5,3.5) scale(0.018)"
	xlink:href="#uflat"/>
</defs>
<use x="37.00" y="73.40" xlink:href="#ft0"/>
<use x="42.50" y="64.40" xlink:href="#ft0"/>
<g style="font:bold 16px serif"
	transform="translate(58.50,84.90) scale(1.2,1)">
	<text text-anchor="middle">8</text>
	<text y="-12" text-anchor="middle">6</text>
</g>
<defs>
<ellipse id="hd" rx="4.1" ry="2.9"
	transform="rotate(-20)" class="fill"/>
</defs>
<use x="76.50" y="88.40" xlink:href="#hd"/>
<path d="M80.00 88.40v-22.00" class="stroke"/>
<path class="fill"
	d="M80.00 66.40c0.9 3.7 9.1 6.4 6 12.4
	1 -5.4 -4.2 -8.4 -6 -8.4
M80.00 71.80c0.9 3.7 9.1 6.4 6 12.4
	1 -5.4 -4.2 -8.4 -6 -8.4
"/>
<use x="93.40" y="85.40" xlink:href="#hd"/>
<path d="M96.90 85.40v-22.00" class="stroke"/>
<path class="fill"
	d="M96.90 63.40c0.9 3.7 9.1 6.4 6 12.4
	1 -5.4 -4.2 -8.4 -6 -8.4
M96.90 68.80c0.9 3.7 9.1 6.4 6 12.4
	1 -5.4 -4.2 -8.4 -6 -8.4
"/>
<use x="110.30" y="85.40" xlink:href="#hd"/>
<path d="M113.80 85.40v-22.00" class="stroke"/>
<path class="fill"
	d="M113.80 63.40c0.9 3.7 9.1 6.4 6 12.4
	1 -5.4 -4.2 -8.4 -6 -8.4
M113.80 68.80c0.9 3.7 9.1 6.4 6 12.4
	1 -5.4 -4.2 -8.4 -6 -8.4
"/>
<use x="127.20" y="82.40" xlink:href="#hd"/>
<path d="M130.70 82.40v-22.00" class="stroke"/>
<path class="fill"
	d="M130.70 60.40c0.9 3.7 9.1 6.4 6 12.4
	1 -5.4 -4.2 -8.4 -6 -8.4
M130.70 65.80c0.9 3.7 9.1 6.4 6 12.4
	1 -5.4 -4.2 -8.4 -6 -8.4
"/>
<use x="144.10" y="73.40" xlink:href="#hd"/>
<path d="M147.60 73.40v-22.00" class="stroke"/>
<path class="fill"
	d="M147.60 51.40c0.9 3.7 9.1 6.4 6 12.4
	1 -5.4 -4.2 -8.4 -6 -8.4
M147.60 56.80c0.9 3.7 9.1 6.4 6 12.4
	1 -5.4 -4.2 -8.4 -6 -8.4
"/>
<use x="161.20" y="70.40" xlink:href="#hd"/>
<path d="M157.70 70.40v23.00" class="stroke"/>
<path class="fill"
	d="M157.70 93.40c0.9 -3.7 9.1 -6.4 6 -12.4
	1 5.4 -4.2 8.4 -6 8.4
M157.70 88.00c0.9 -3.7 9.1 -6.4 6 -12.4
	1 5.4 -4.2 8.4 -6 8.4
"/>
<use x="177.70" y="67.40" xlink:href="#hd"/>
<path d="M174.20 67.40v21.00" class="stroke"/>
<path class="fill"
	d="M174.20 88.40c0.6 -5.6 9.6 -9 5.6 -18.4
	1.6 6 -1.3 11.6 -5.6 12.8
"/>
<use x="200.90" y="70.40" xlink:href="#hd"/>
<path d="M197.40 70.40v23.00" class="stroke"/>
<path class="fill"
	d="M197.40 93.40c0.9 -3.7 9.1 -6.4 6 -12.4
	1 5.4 -4.2 8.4 -6 8.4
M197.40 88.00c0.9 -3.7 9.1 -6.4 6 -12.4
	1 5.4 -4.2 8.4 -6 8.4
"/>
<use x="217.50" y="73.40" xlink:href="#hd"/>
<circle class="fill" cx="225.20" cy="70.40" r="1.2"/>
<path d="M214.00 73.40v21.00" class="stroke"/>
<path class="fill"
	d="M214.00 94.40c0.6 -5.6 9.6 -9 5.6 -18.4
	1.6 6 -1.3 11.6 -5.6 12.8
"/>
<use x="250.00" y="82.40" xlink:href="#hd"/>
<path d="M253.50 82.40v-22.00" class="stroke"/>
<path class="fill"
	d="M253.50 60.40c0.9 3.7 9.1 6.4 6 12.4
	1 -5.4 -4.2 -8.4 -6 -8.4
M253.50 65.80c0.9 3.7 9.1 6.4 6 12.4
	1 -5.4 -4.2 -8.4 -6 -8.4
"/>
<use x="266.90" y="76.40" xlink:href="#hd"/>
<path d="M270.40 76.40v-22.00" class="stroke"/>
<path class="fill"
	d="M270.40 54.40c0.9 3.7 9.1 6.4 6 12.4
	1 -5.4 -4.2 -8.4 -6 -8.4
M270.40 59.80c0.9 3.7 9.1 6.4 6 12.4
	1 -5.4 -4.2 -8.4 -6 -8.4
"/>
<use x="283.80" y="79.40" xlink:href="#hd"/>
<path d="M287.30 79.40v-22.00" class="stroke"/>
<path class="fill"
	d="M287.30 57.40c0.9 3.7 9.1 6.4 6 12.4
	1 -5.4 -4.2 -8.4 -6 -8.4
M287.30 62.80c0.9 3.7 9.1 6.4 6 12.4
	1 -5.4 -4.2 -8.4 -6 -8.4
"/>
<use x="300.70" y="85.40" xlink:href="#hd"/>
<path d="M304.20 85.40v-21.00" class="stroke"/>
<path class="fill"
	d="M304.20 64.40c0.6 5.6 9.6 9 5.6 18.4
	1.6 -6 -1.3 -11.6 -5.6 -12.8
"/>
<use x="324.20" y="79.40" xlink:href="#hd"/>
<path d="M327.70 79.40v-22.00" class="stroke"/>
<path class="fill"
	d="M327.70 57.40c0.9 3.7 9.1 6.4 6 12.4
	1 -5.4 -4.2 -8.4 -6 -8.4
M327.70 62.80c0.9 3.7 9.1 6.4 6 12.4
	1 -5.4 -4.2 -8.4 -6 -8.4
"/>
<use x="341.10" y="82.40" xlink:href="#hd"/>
<circle class="fill" cx="348.80" cy="82.40" r="1.2"/>
<path d="M344.60 82.40v-21.00" class="stroke"/>
<path class="fill"
	d="M344.60 61.40c0.6 5.6 9.6 9 5.6 18.4
	1.6 -6 -1.3 -11.6 -5.6 -12.8
"/>
<use x="367.90" y="88.40" xlink:href="#hd"/>
<circle class="fill" cx="375.60" cy="88.40" r="1.2"/>
<path d="M371.40 88.40v-21.00" class="stroke"/>
<path class="fill"
	d="M371.40 67.40c0.6 5.6 9.6 9 5.6 18.4
	1.6 -6 -1.3 -11.6 -5.6 -12.8
"/>
<use x="400.40" y="88.40" xlink:href="#hd"/>
<path d="M403.90 88.40v-22.00" class="stroke"/>
<path class="fill"
	d="M403.90 66.40c0.9 3.7 9.1 6.4 6 12.4
	1 -5.4 -4.2 -8.4 -6 -8.4
M403.90 71.80c0.9 3.7 9.1 6.4 6 12.4
	1 -5.4 -4.2 -8.4 -6 -8.4
"/>
<use x="417.30" y="85.40" xlink:href="#hd"/>
<path d="M420.80 85.40v-22.00" class="stroke"/>
<path class="fill"
	d="M420.80 63.40c0.9 3.7 9.1 6.4 6 12.4
	1 -5.4 -4.2 -8.4 -6 -8.4
M420.80 68.80c0.9 3.7 9.1 6.4 6 12.4
	1 -5.4 -4.2 -8.4 -6 -8.4
"/>
<use x="434.20" y="85.40" xlink:href="#hd"/>
<path d="M437.70 85.40v-22.00" class="stroke"/>
<path class="fill"
	d="M437.70 63.40c0.9 3.7 9.1 6.4 6 12.4
	1 -5.4 -4.2 -8.4 -6 -8.4
M437.70 68.80c0.9 3.7 9.1 6.4 6 12.4
	1 -5.4 -4.2 -8.4 -6 -8.4
"/>
<use x="451.10" y="82.40" xlink:href="#hd"/>
<path d="M454.60 82.40v-22.00" class="stroke"/>
<path class="fill"
	d="M454.60 60.40c0.9 3.7 9.1 6.4 6 12.4
	1 -5.4 -4.2 -8.4 -6 -8.4
M454.60 65.80c0.9 3.7 9.1 6.4 6 12.4
	1 -5.4 -4.2 -8.4 -6 -8.4
"/>
<use x="468.00" y="73.40" xlink:href="#hd"/>
<path d="M471.50 73.40v-22.00" class="stroke"/>
<path class="fill"
	d="M471.50 51.40c0.9 3.7 9.1 6.4 6 12.4
	1 -5.4 -4.2 -8.4 -6 -8.4
M471.50 56.80c0.9 3.7 9.1 6.4 6 12.4
	1 -5.4 -4.2 -8.4 -6 -8.4
"/>
<use x="485.10" y="70.40" xlink:href="#hd"/>
<path d="M481.60 70.40v23.00" class="stroke"/>
<path class="fill"
	d="M481.60 93.40c0.9 -3.7 9.1 -6.4 6 -12.4
	1 5.4 -4.2 8.4 -6 8.4
M481.60 88.00c0.9 -3.7 9.1 -6.4 6 -12.4
	1 5.4 -4.2 8.4 -6 8.4
"/>
<use x="501.60" y="67.40" xlink:href="#hd"/>
<path d="M498.10 67.40v21.00" class="stroke"/>
<path class="fill"
	d="M498.10 88.40c0.6 -5.6 9.6 -9 5.6 -18.4
	1.6 6 -1.3 11.6 -5.6 12.8
"/>
<use x="524.80" y="70.40" xlink:href="#hd"/>
<path d="M521.30 70.40v23.00" class="stroke"/>
<path class="fill"
	d="M521.30 93.40c0.9 -3.7 9.1 -6.4 6 -12.4
	1 5.4 -4.2 8.4 -6 8.4
M521.30 88.00c0.9 -3.7 9.1 -6.4 6 -12.4
	1 5.4 -4.2 8.4 -6 8.4
"/>
<use x="541.30" y="73.40" xlink:href="#hd"/>
<circle class="fill" cx="549.00" cy="70.40" r="1.2"/>
<path d="M537.80 73.40v21.00" class="stroke"/>
<path class="fill"
	d="M537.80 94.40c0.6 -5.6 9.6 -9 5.6 -18.4
	1.6 6 -1.3 11.6 -5.6 12.8
"/>
<use x="573.80" y="82.40" xlink:href="#hd"/>
<path d="M577.30 82.40v-22.00" class="stroke"/>
<path class="fill"
	d="M577.30 60.40c0.9 3.7 9.1 6.4 6 12.4
	1 -5.4 -4.2 -8.4 -6 -8.4
M577.30 65.80c0.9 3.7 9.1 6.4 6 12.4
	1 -5.4 -4.2 -8.4 -6 -8.4
"/>
<use x="590.70" y="76.40" xlink:href="#hd"/>
<path d="M594.20 76.40v-22.00" class="stroke"/>
<path class="fill"
	d="M594.20 54.40c0.9 3.7 9.1 6.4 6 12.4
	1 -5.4 -4.2 -8.4 -6 -8.4
M594.20 59.80c0.9 3.7 9.1 6.4 6 12.4
	1 -5.4 -4.2 -8.4 -6 -8.4
"/>
<use x="607.60" y="79.40" xlink:href="#hd"/>
<path d="M611.10 79.40v-22.00" class="stroke"/>
<path class="fill"
	d="M611.10 57.40c0.9 3.7 9.1 6.4 6 12.4
	1 -5.4 -4.2 -8.4 -6 -8.4
M611.10 62.80c0.9 3.7 9.1 6.4 6 12.4
	1 -5.4 -4.2 -8.4 -6 -8.4
"/>
<use x="624.50" y="82.40" xlink:href="#hd"/>
<path d="M628.00 82.40v-21.00" class="stroke"/>
<path class="fill"
	d="M628.00 61.40c0.6 5.6 9.6 9 5.6 18.4
	1.6 -6 -1.3 -11.6 -5.6 -12.8
"/>
<use x="648.20" y="70.40" xlink:href="#hd"/>
<path d="M644.70 70.40v23.00" class="stroke"/>
<path class="fill"
	d="M644.70 93.40c0.9 -3.7 9.1 -6.4 6 -12.4
	1 5.4 -4.2 8.4 -6 8.4
M644.70 88.00c0.9 -3.7 9.1 -6.4 6 -12.4
	1 5.4 -4.2 8.4 -6 8.4
"/>
<use x="664.80" y="73.40" xlink:href="#hd"/>
<circle class="fill" cx="672.50" cy="70.40" r="1.2"/>
<path d="M661.30 73.40v21.00" class="stroke"/>
<defs>
<path id="ubclef" class="fill" d="m-200 -87
	c124 -35 222 -78 254 -236
	43 -228 -167 -246 -192 -103
	59 -80 157 22 92 78
	-62 47 -115 -22 -106 -88
	21 -141 270 -136 274 52
	-1 175 -106 264 -322 297
	m357 -250
	c0 -36 51 -34 51 0
	0 37 -51 36 -51 0
	m-2 -129
	c0 -36 51 -34 51 0
	0 38 -51 37 -51 0"/>
<use id="bclef" transform="translate(0,18) scale(0.045)"
	xlink:href="#ubclef"/>
</defs>
<use x="22.00" y="125.40" xlink:href="#bclef"/>
<use x="37.00" y="137.40" xlink:href="#ft0"/>
<use x="42.50" y="128.40" xlink:href="#ft0"/>
<g style="font:bold 16px serif"
	transform="translate(58.50,142.90) scale(1.2,1)">
	<text text-anchor="middle">8</text>
	<text y="-12" text-anchor="middle">6</text>
</g>
<use x="76.50" y="137.40" xlink:href="#hd"/>
<circle class="fill" cx="84.20" cy="134.40" r="1.2"/>
<path d="M80.00 137.40v-21.00" class="stroke"/>
<use x="177.70" y="137.40" xlink:href="#hd"/>
<circle class="fill" cx="185.40" cy="134.40" r="1.2"/>
<path d="M181.20 137.40v-21.00" class="stroke"/>
<use x="250.00" y="125.40" xlink:href="#hd"/>
<circle class="fill" cx="257.70" cy="122.40" r="1.2"/>
<path d="M246.50 125.40v21.00" class="stroke"/>
<use x="341.10" y="125.40" xlink:href="#hd"/>
<circle class="fill" cx="348.80" cy="122.40" r="1.2"/>
<path d="M337.60 125.40v21.00" class="stroke"/>
<use x="400.40" y="137.40" xlink:href="#hd"/>
<circle class="fill" cx="408.10" cy="134.40" r="1.2"/>
<path d="M403.90 137.40v-21.00" class="stroke"/>
<use x="501.60" y="137.40" xlink:href="#hd"/>
<circle class="fill" cx="509.30" cy="134.40" r="1.2"/>
<path d="M505.10 137.40v-21.00" class="stroke"/>
<use x="573.80" y="125.40" xlink:href="#hd"/>
<circle class="fill" cx="581.50" cy="122.40" r="1.2"/>
<path d="M570.30 125.40v21.00" class="stroke"/>
<use x="664.80" y="125.40" xlink:href="#hd"/>
<circle class="fill" cx="672.50" cy="122.40" r="1.2"/>
<path d="M661.30 125.40v21.00" class="stroke"/>
</g>
<g stroke-width="0.70" style="font:italic 11.00px Times">
<path class="stroke" stroke-width="1"
	d="M10.00 271.80v-82.00"/>
<g transform="translate(10.00,189.80) scale(1,0.82)">
	<use xlink:href="#brace"/>
</g>
<path class="stroke" stroke-width="1"
	d="M198.30 213.80v-24.00"/>
<path class="stroke" stroke-width="1"
	d="M198.30 271.80v-24.00"/>
<path class="stroke" stroke-width="1"
	d="M374.20 213.80v-24.00"/>
<path class="stroke" stroke-width="1"
	d="M374.20 271.80v-24.00"/>
<path class="stroke" stroke-width="1"
	d="M539.00 213.80v-24.00"/>
<path class="stroke" stroke-width="1"
	d="M539.00 271.80v-24.00"/>
<path class="stroke" stroke-width="1"
	d="M691.60 213.80v-24.00"/>
<path class="stroke" stroke-width="1"
	d="M691.60 271.80v-24.00"/>
<path d="m10.00 213.80
	h681.60
	M10.00 207.80
	h681.60
	M10.00 201.80
	h681.60
	M10.00 195.80
	h681.60
	M10.00 189.80
	h681.60
	" class="stroke"/>
<path d="m10.00 271.80
	h681.60
	M10.00 265.80
	h681.60
	M10.00 259.80
	h681.60
	M10.00 253.80
	h681.60
	M10.00 247.80
	h681.60
	" class="stroke"/>
</g>
<g stroke-width="0.70" style="font:bold 13.00px Times">
<text x="54.70" y="185.20">IV</text>
</g>
<g stroke-width="0.70" style="font:bold 13.00px Times">
<text x="205.60" y="176.20">V<tspan
	 style="font:italic 11.00px Times">⁷</tspan></text>
</g>
<g stroke-width="0.70" style="font:bold 13.00px Times">
<text x="385.60" y="183.20">I</text>
</g>
<g stroke-width="0.70" style="font:bold 13.00px Times">
<text x="547.20" y="185.20">ii<tspan
	 style="font:italic 11.00px Times">¹</tspan></text>
</g>
<g stroke-width="0.70" style="font:italic 11.00px Times">
<use x="22.00" y="207.80" xlink:href="#tclef"/>
<use x="37.00" y="201.80" xlink:href="#ft0"/>
<use x="42.50" y="192.80" xlink:href="#ft0"/>
<use x="60.50" y="201.80" xlink:href="#hd"/>
<circle class="fill" cx="68.20" cy="198.80" r="1.2"/>
<path d="M57.00 201.80v21.00" class="stroke"/>
<path class="fill"
	d="M57.00 222.80c0.6 -5.6 9.6 -9 5.6 -18.4
	1.6 6 -1.3 11.6 -5.6 12.8
"/>
<use x="87.40" y="204.80" xlink:href="#hd"/>
<path d="M90.90 204.80v-21.00" class="stroke"/>
<path class="fill"
	d="M90.90 183.80c0.6 5.6 9.6 9 5.6 18.4
	1.6 -6 -1.3 -11.6 -5.6 -12.8
"/>
<use x="113.70" y="207.80" xlink:href="#hd"/>
<path d="M117.20 207.80v-22.00" class="stroke"/>
<path class="fill"
	d="M117.20 185.80c0.9 3.7 9.1 6.4 6 12.4
	1 -5.4 -4.2 -8.4 -6 -8.4
M117.20 191.20c0.9 3.7 9.1 6.4 6 12.4
	1 -5.4 -4.2 -8.4 -6 -8.4
"/>
<use x="132.30" y="207.80" xlink:href="#hd"/>
<path d="M135.80 207.80v-21.00" class="stroke"/>
<path class="fill"
	d="M135.80 186.80c0.6 5.6 9.6 9 5.6 18.4
	1.6 -6 -1.3 -11.6 -5.6 -12.8
"/>
<use x="158.60" y="210.80" xlink:href="#hd"/>
<path d="M162.10 210.80v-22.00" class="stroke"/>
<path class="fill"
	d="M162.10 188.80c0.9 3.7 9.1 6.4 6 12.4
	1 -5.4 -4.2 -8.4 -6 -8.4
M162.10 194.20c0.9 3.7 9.1 6.4 6 12.4
	1 -5.4 -4.2 -8.4 -6 -8.4
"/>
<use x="177.20" y="210.80" xlink:href="#hd"/>
<circle class="fill" cx="184.90" cy="210.80" r="1.2"/>
<path d="M180.70 210.80v-21.00" class="stroke"/>
<path class="fill"
	d="M180.70 189.80c0.6 5.6 9.6 9 5.6 18.4
	1.6 -6 -1.3 -11.6 -5.6 -12.8
"/>
<use x="211.50" y="210.80" xlink:href="#hd"/>
<path d="M215.00 210.80v-22.00" class="stroke"/>
<path class="fill"
	d="M215.00 188.80c0.9 3.7 9.1 6.4 6 12.4
	1 -5.4 -4.2 -8.4 -6 -8.4
M215.00 194.20c0.9 3.7 9.1 6.4 6 12.4
	1 -5.4 -4.2 -8.4 -6 -8.4
"/>
<use x="230.10" y="204.80" xlink:href="#hd"/>
<path d="M233.60 204.80v-22.00" class="stroke"/>
<path class="fill"
	d="M233.60 182.80c0.9 3.7 9.1 6.4 6 12.4
	1 -5.4 -4.2 -8.4 -6 -8.4
M233.60 188.20c0.9 3.7 9.1 6.4 6 12.4
	1 -5.4 -4.2 -8.4 -6 -8.4
"/>
<use x="248.70" y="207.80" xlink:href="#hd"/>
<path d="M252.20 207.80v-22.00" class="stroke"/>
<path class="fill"
	d="M252.20 185.80c0.9 3.7 9.1 6.4 6 12.4
	1 -5.4 -4.2 -8.4 -6 -8.4
M252.20 191.20c0.9 3.7 9.1 6.4 6 12.4
	1 -5.4 -4.2 -8.4 -6 -8.4
"/>
<use x="267.40" y="213.80" xlink:href="#hd"/>
<circle class="fill" cx="275.10" cy="210.80" r="1.2"/>
<path d="M270.90 213.80v-21.00" class="stroke"/>
<path class="fill"
	d="M270.90 192.80c0.6 5.6 9.6 9 5.6 18.4
	1.6 -6 -1.3 -11.6 -5.6 -12.8
"/>
<use x="297.30" y="213.80" xlink:href="#hd"/>
<path d="M300.80 213.80v-22.00" class="stroke"/>
<path class="fill"
	d="M300.80 191.80c0.9 3.7 9.1 6.4 6 12.4
	1 -5.4 -4.2 -8.4 -6 -8.4
M300.80 197.20c0.9 3.7 9.1 6.4 6 12.4
	1 -5.4 -4.2 -8.4 -6 -8.4
"/>
<use x="315.90" y="207.80" xlink:href="#hd"/>
<path d="M319.40 207.80v-22.00" class="stroke"/>
<path class="fill"
	d="M319.40 185.80c0.9 3.7 9.1 6.4 6 12.4
	1 -5.4 -4.2 -8.4 -6 -8.4
M319.40 191.20c0.9 3.7 9.1 6.4 6 12.4
	1 -5.4 -4.2 -8.4 -6 -8.4
"/>
<use x="334.50" y="210.80" xlink:href="#hd"/>
<path d="M338.00 210.80v-22.00" class="stroke"/>
<path class="fill"
	d="M338.00 188.80c0.9 3.7 9.1 6.4 6 12.4
	1 -5.4 -4.2 -8.4 -6 -8.4
M338.00 194.20c0.9 3.7 9.1 6.4 6 12.4
	1 -5.4 -4.2 -8.4 -6 -8.4
"/>
<use x="353.10" y="216.80" xlink:href="#hd"/>
<circle class="fill" cx="360.80" cy="216.80" r="1.2"/>
<path d="M356.60 216.80v-21.00" class="stroke"/>
<path class="fill"
	d="M356.60 195.80c0.6 5.6 9.6 9 5.6 18.4
	1.6 -6 -1.3 -11.6 -5.6 -12.8
"/>
<use x="387.40" y="210.80" xlink:href="#hd"/>
<circle class="fill" cx="395.10" cy="210.80" r="1.2"/>
<path d="M390.90 210.80v-21.00" class="stroke"/>
<path class="fill"
	d="M390.90 189.80c0.6 5.6 9.6 9 5.6 18.4
	1.6 -6 -1.3 -11.6 -5.6 -12.8
"/>
<use x="417.30" y="201.80" xlink:href="#hd"/>
<path d="M420.80 201.80v-21.00" class="stroke"/>
<path class="fill"
	d="M420.80 180.80c0.6 5.6 9.6 9 5.6 18.4
	1.6 -6 -1.3 -11.6 -5.6 -12.8
"/>
<use x="443.60" y="201.80" xlink:href="#hd"/>
<path d="M447.10 201.80v-22.00" class="stroke"/>
<path class="fill"
	d="M447.10 179.80c0.9 3.7 9.1 6.4 6 12.4
	1 -5.4 -4.2 -8.4 -6 -8.4
M447.10 185.20c0.9 3.7 9.1 6.4 6 12.4
	1 -5.4 -4.2 -8.4 -6 -8.4
"/>
<use x="462.20" y="198.80" xlink:href="#hd"/>
<path d="M458.70 198.80v23.00" class="stroke"/>
<path class="fill"
	d="M458.70 221.80c0.9 -3.7 9.1 -6.4 6 -12.4
	1 5.4 -4.2 8.4 -6 8.4
M458.70 216.40c0.9 -3.7 9.1 -6.4 6 -12.4
	1 5.4 -4.2 8.4 -6 8.4
"/>
<use x="480.80" y="201.80" xlink:href="#hd"/>
<path d="M477.30 201.80v23.00" class="stroke"/>
<path class="fill"
	d="M477.30 224.80c0.9 -3.7 9.1 -6.4 6 -12.4
	1 5.4 -4.2 8.4 -6 8.4
M477.30 219.40c0.9 -3.7 9.1 -6.4 6 -12.4
	1 5.4 -4.2 8.4 -6 8.4
"/>
<use x="499.40" y="198.80" xlink:href="#hd"/>
<path d="M495.90 198.80v23.00" class="stroke"/>
<path class="fill"
	d="M495.90 221.80c0.9 -3.7 9.1 -6.4 6 -12.4
	1 5.4 -4.2 8.4 -6 8.4
M495.90 216.40c0.9 -3.7 9.1 -6.4 6 -12.4
	1 5.4 -4.2 8.4 -6 8.4
"/>
<use x="517.90" y="195.80" xlink:href="#hd"/>
<circle class="fill" cx="525.60" cy="192.80" r="1.2"/>
<path d="M514.40 195.80v21.00" class="stroke"/>
<path class="fill"
	d="M514.40 216.80c0.6 -5.6 9.6 -9 5.6 -18.4
	1.6 6 -1.3 11.6 -5.6 12.8
"/>
<use x="552.20" y="198.80" xlink:href="#hd"/>
<path d="M548.70 198.80v23.00" class="stroke"/>
<path class="fill"
	d="M548.70 221.80c0.9 -3.7 9.1 -6.4 6 -12.4
	1 5.4 -4.2 8.4 -6 8.4
M548.70 216.40c0.9 -3.7 9.1 -6.4 6 -12.4
	1 5.4 -4.2 8.4 -6 8.4
"/>
<use x="570.70" y="201.80" xlink:href="#hd"/>
<path d="M567.20 201.80v23.00" class="stroke"/>
<path class="fill"
	d="M567.20 224.80c0.9 -3.7 9.1 -6.4 6 -12.4
	1 5.4 -4.2 8.4 -6 8.4
M567.20 219.40c0.9 -3.7 9.1 -6.4 6 -12.4
	1 5.4 -4.2 8.4 -6 8.4
"/>
<use x="587.50" y="207.80" xlink:href="#hd"/>
<path d="M591.00 207.80v-22.00" class="stroke"/>
<path class="fill"
	d="M591.00 185.80c0.9 3.7 9.1 6.4 6 12.4
	1 -5.4 -4.2 -8.4 -6 -8.4
M591.00 191.20c0.9 3.7 9.1 6.4 6 12.4
	1 -5.4 -4.2 -8.4 -6 -8.4
"/>
<use x="606.10" y="210.80" xlink:href="#hd"/>
<path d="M609.60 210.80v-22.00" class="stroke"/>
<path class="fill"
	d="M609.60 188.80c0.9 3.7 9.1 6.4 6 12.4
	1 -5.4 -4.2 -8.4 -6 -8.4
M609.60 194.20c0.9 3.7 9.1 6.4 6 12.4
	1 -5.4 -4.2 -8.4 -6 -8.4
"/>
<use x="624.70" y="201.80" xlink:href="#hd"/>
<path d="M628.20 201.80v-22.00" class="stroke"/>
<path class="fill"
	d="M628.20 179.80c0.9 3.7 9.1 6.4 6 12.4
	1 -5.4 -4.2 -8.4 -6 -8.4
M628.20 185.20c0.9 3.7 9.1 6.4 6 12.4
	1 -5.4 -4.2 -8.4 -6 -8.4
"/>
<use x="643.30" y="204.80" xlink:href="#hd"/>
<path d="M646.80 204.80v-22.00" class="stroke"/>
<path class="fill"
	d="M646.80 182.80c0.9 3.7 9.1 6.4 6 12.4
	1 -5.4 -4.2 -8.4 -6 -8.4
M646.80 188.20c0.9 3.7 9.1 6.4 6 12.4
	1 -5.4 -4.2 -8.4 -6 -8.4
"/>
<use x="661.90" y="201.80" xlink:href="#hd"/>
<circle class="fill" cx="669.60" cy="198.80" r="1.2"/>
<path d="M665.40 201.80v-21.00" class="stroke"/>
<use x="22.00" y="253.80" xlink:href="#bclef"/>
<use x="37.00" y="265.80" xlink:href="#ft0"/>
<use x="42.50" y="256.80" xlink:href="#ft0"/>
<use x="60.50" y="256.80" xlink:href="#hd"/>
<circle class="fill" cx="68.20" cy="256.80" r="1.2"/>
<path d="M57.00 256.80v21.00" class="stroke"/>
<use x="132.30" y="256.80" xlink:href="#hd"/>
<circle class="fill" cx="140.00" cy="256.80" r="1.2"/>
<path d="M128.80 256.80v21.00" class="stroke"/>
<use x="211.50" y="253.80" xlink:href="#hd"/>
<circle class="fill" cx="219.20" cy="250.80" r="1.2"/>
<path d="M208.00 253.80v21.00" class="stroke"/>
<use x="297.30" y="253.80" xlink:href="#hd"/>
<circle class="fill" cx="305.00" cy="250.80" r="1.2"/>
<path d="M293.80 253.80v21.00" class="stroke"/>
<use x="387.40" y="265.80" xlink:href="#hd"/>
<circle class="fill" cx="395.10" cy="262.80" r="1.2"/>
<path d="M390.90 265.80v-21.00" class="stroke"/>
<use x="462.20" y="265.80" xlink:href="#hd"/>
<circle class="fill" cx="469.90" cy="262.80" r="1.2"/>
<path d="M465.70 265.80v-21.00" class="stroke"/>
<use x="552.20" y="262.80" xlink:href="#hd"/>
<circle class="fill" cx="559.90" cy="262.80" r="1.2"/>
<path d="M555.70 262.80v-21.00" class="stroke"/>
<use x="661.90" y="262.80" xlink:href="#hd"/>
<circle class="fill" cx="669.60" cy="262.80" r="1.2"/>
<path d="M665.40 262.80v-21.00" class="stroke"/>
</g>
</svg>
