<?xml version="1.0" standalone="no"?>
<!DOCTYPE svg PUBLIC "-//W3C//DTD SVG 1.1//EN"
	"http://www.w3.org/Graphics/SVG/1.1/DTD/svg11.dtd">
<svg xmlns="http://www.w3.org/2000/svg" version="1.1"
	xmlns:xlink="http://www.w3.org/1999/xlink"
	color="black"
	width="701.60px" height="552.40px" viewBox="0 0 701.60 552.40" preserveAspectRatio="xMidYMid meet">
<style type="text/css">
.fill {fill: currentColor}
.stroke {stroke: currentColor; fill: none}
text{white-space: pre}
</style>
<title>/tmp/retab_hymnal_L2/hark_the_herald_angels_sing.abc (1) tune 1</title>
<!-- Creator: abcm2ps-8.14.11 -->
<!-- CreationDate: Apr 24, 2026 15:38 -->
<!-- CommandLine: /tmp/retab_hymnal_L2/hark_the_herald_angels_sing.abc -g -O /tmp/retab_hymnal_L2/hark_the_herald_angels_sing -->
<g stroke-width="0.70">
<!-- title: 084. Hark! The Herald Angels Sing -->
</g>
<g stroke-width="0.70" style="font:20.00px Times">
<text x="350.80" y="22.00" text-anchor="middle">084. Hark! The Herald Angels Sing</text>
</g>
<g stroke-width="0.70" style="font:20.00px Times">
<path class="stroke" stroke-width="1"
	d="M10.00 143.00v-82.00"/>
<defs>
<path id="brace" class="fill" d="m-2.5 101
	c-4.5 -4.6 -7.5 -12.2 -4.4 -26.8
	3.5 -14.3 3.2 -21.7 -2.1 -24.2
	7.4 2.4 7.3 14.2 3.5 29.5
	-2.7 9.5 -1.5 16.2 3 21.5
	M-2.5 1c-4.5 4.6 -7.5 12.2 -4.4 26.8
	c3.5 14.3 3.2 21.7 -2.1 24.2
	7.4 -2.4 7.3 -14.2 3.5 -29.5
	-2.7 -9.5 -1.5 -16.2 3 -21.5"/>
</defs>
<g transform="translate(10.00,61.00) scale(1,0.82)">
	<use xlink:href="#brace"/>
</g>
<path class="stroke" stroke-width="1"
	d="M169.00 85.00v-24.00"/>
<path class="stroke" stroke-width="1"
	d="M169.00 143.00v-24.00"/>
<path class="stroke" stroke-width="1"
	d="M276.70 85.00v-24.00"/>
<path class="stroke" stroke-width="1"
	d="M276.70 143.00v-24.00"/>
<path class="stroke" stroke-width="1"
	d="M383.80 85.00v-24.00"/>
<path class="stroke" stroke-width="1"
	d="M383.80 143.00v-24.00"/>
<path class="stroke" stroke-width="1"
	d="M473.30 85.00v-24.00"/>
<path class="stroke" stroke-width="1"
	d="M473.30 143.00v-24.00"/>
<path class="stroke" stroke-width="1"
	d="M583.80 85.00v-24.00"/>
<path class="stroke" stroke-width="1"
	d="M583.80 143.00v-24.00"/>
<path class="stroke" stroke-width="1"
	d="M691.60 85.00v-24.00"/>
<path class="stroke" stroke-width="1"
	d="M691.60 143.00v-24.00"/>
<path d="m10.00 85.00
	h681.60
	M10.00 79.00
	h681.60
	M10.00 73.00
	h681.60
	M10.00 67.00
	h681.60
	M10.00 61.00
	h681.60
	" class="stroke"/>
<path d="m10.00 143.00
	h681.60
	M10.00 137.00
	h681.60
	M10.00 131.00
	h681.60
	M10.00 125.00
	h681.60
	M10.00 119.00
	h681.60
	" class="stroke"/>
</g>
<g stroke-width="0.70" style="font:bold 13.00px Times">
<text x="69.70" y="56.40">I</text>
</g>
<g stroke-width="0.70" style="font:bold 13.00px Times">
<text x="178.20" y="54.40">I<tspan
	 style="font:italic 11.00px Times">¹</tspan></text>
</g>
<g stroke-width="0.70" style="font:bold 13.00px Times">
<text x="287.90" y="56.40">I</text>
</g>
<g stroke-width="0.70" style="font:bold 13.00px Times">
<text x="393.00" y="48.40">I<tspan
	 style="font:italic 11.00px Times">²</tspan></text>
</g>
<g stroke-width="0.70" style="font:bold 13.00px Times">
<text x="484.50" y="56.40">I</text>
</g>
<g stroke-width="0.70" style="font:bold 13.00px Times">
<text x="592.60" y="54.40">vi</text>
<defs>
<path id="utclef" class="fill" d="m-50 -90
	c-72 -41 -72 -158 52 -188
	150 -10 220 188 90 256
	-114 52 -275 0 -293 -136
	-15 -181 93 -229 220 -334
	88 -87 79 -133 62 -210
	-51 33 -94 105 -89 186
	17 267 36 374 49 574
	6 96 -19 134 -77 135
	-80 1 -126 -93 -61 -133
	85 -41 133 101 31 105
	23 17 92 37 90 -92
	-10 -223 -39 -342 -50 -617
	0 -90 0 -162 96 -232
	56 72 63 230 22 289
	-74 106 -257 168 -255 316
	9 153 148 185 252 133
	86 -65 29 -192 -80 -176
	-71 12 -105 67 -59 124"/>
<use id="tclef" transform="translate(0,6) scale(0.045)"
	xlink:href="#utclef"/>
</defs>
<use x="22.00" y="79.00" xlink:href="#tclef"/>
<defs>
<path id="uflat" class="fill" d="
	m100 -746
	h32
	v734
	l-32 4
	m32 -332
	c46 -72 152 -90 208 -20
	100 110 -120 326 -208 348
	m0 -28
	c54 0 200 -206 130 -290
	-50 -60 -130 -4 -130 34"/>
<use id="ft0" transform="translate(-3.5,3.5) scale(0.018)"
	xlink:href="#uflat"/>
</defs>
<use x="37.00" y="73.00" xlink:href="#ft0"/>
<g style="font:bold 16px serif"
	transform="translate(53.00,84.50) scale(1.2,1)">
	<text text-anchor="middle">4</text>
	<text y="-12" text-anchor="middle">4</text>
</g>
<defs>
<path id="hl" class="stroke" d="m-6 0h12"/>
</defs>
<use x="71.50" y="91.00" xlink:href="#hl"/>
<defs>
<ellipse id="hd" rx="4.1" ry="2.9"
	transform="rotate(-20)" class="fill"/>
</defs>
<use x="71.50" y="91.00" xlink:href="#hd"/>
<path d="M75.00 91.00v-21.00" class="stroke"/>
<use x="96.90" y="82.00" xlink:href="#hd"/>
<path d="M100.40 82.00v-21.00" class="stroke"/>
<use x="122.30" y="82.00" xlink:href="#hd"/>
<circle class="fill" cx="130.00" cy="82.00" r="1.2"/>
<path d="M125.80 82.00v-21.00" class="stroke"/>
<use x="152.00" y="85.00" xlink:href="#hd"/>
<path d="M155.50 85.00v-21.00" class="stroke"/>
<path class="fill"
	d="M155.50 64.00c0.6 5.6 9.6 9 5.6 18.4
	1.6 -6 -1.3 -11.6 -5.6 -12.8
"/>
<use x="182.00" y="82.00" xlink:href="#hd"/>
<path d="M185.50 82.00v-21.00" class="stroke"/>
<use x="207.40" y="76.00" xlink:href="#hd"/>
<path d="M210.90 76.00v-21.00" class="stroke"/>
<use x="232.80" y="76.00" xlink:href="#hd"/>
<path d="M236.30 76.00v-21.00" class="stroke"/>
<use x="258.20" y="79.00" xlink:href="#hd"/>
<path d="M261.70 79.00v-21.00" class="stroke"/>
<use x="289.70" y="70.00" xlink:href="#hd"/>
<path d="M286.20 70.00v21.00" class="stroke"/>
<use x="315.20" y="70.00" xlink:href="#hd"/>
<path d="M311.70 70.00v21.00" class="stroke"/>
<use x="340.60" y="70.00" xlink:href="#hd"/>
<circle class="fill" cx="348.30" cy="70.00" r="1.2"/>
<path d="M337.10 70.00v21.00" class="stroke"/>
<use x="370.20" y="73.00" xlink:href="#hd"/>
<path d="M366.70 73.00v21.00" class="stroke"/>
<path class="fill"
	d="M366.70 94.00c0.6 -5.6 9.6 -9 5.6 -18.4
	1.6 6 -1.3 11.6 -5.6 12.8
"/>
<use x="396.80" y="76.00" xlink:href="#hd"/>
<path d="M400.30 76.00v-21.00" class="stroke"/>
<use x="422.20" y="79.00" xlink:href="#hd"/>
<path d="M425.70 79.00v-21.00" class="stroke"/>
<defs>
<path id="Hd" class="fill" d="m3 -1.6
	c-1 -1.8 -7 1.4 -6 3.2
	1 1.8 7 -1.4 6 -3.2
	m0.5 -0.3
	c2 3.8 -5 7.6 -7 3.8
	-2 -3.8 5 -7.6 7 -3.8"/>
</defs>
<use x="447.70" y="76.00" xlink:href="#Hd"/>
<path d="M451.20 76.00v-21.00" class="stroke"/>
<use x="486.30" y="91.00" xlink:href="#hl"/>
<use x="486.30" y="91.00" xlink:href="#hd"/>
<path d="M489.80 91.00v-21.00" class="stroke"/>
<use x="511.80" y="82.00" xlink:href="#hd"/>
<path d="M515.30 82.00v-21.00" class="stroke"/>
<use x="537.20" y="82.00" xlink:href="#hd"/>
<circle class="fill" cx="544.90" cy="82.00" r="1.2"/>
<path d="M540.70 82.00v-21.00" class="stroke"/>
<use x="566.80" y="85.00" xlink:href="#hd"/>
<path d="M570.30 85.00v-21.00" class="stroke"/>
<path class="fill"
	d="M570.30 64.00c0.6 5.6 9.6 9 5.6 18.4
	1.6 -6 -1.3 -11.6 -5.6 -12.8
"/>
<use x="596.80" y="82.00" xlink:href="#hd"/>
<path d="M600.30 82.00v-21.00" class="stroke"/>
<use x="622.20" y="76.00" xlink:href="#hd"/>
<path d="M625.70 76.00v-21.00" class="stroke"/>
<use x="647.70" y="76.00" xlink:href="#hd"/>
<path d="M651.20 76.00v-21.00" class="stroke"/>
<use x="673.10" y="79.00" xlink:href="#hd"/>
<path d="M676.60 79.00v-21.00" class="stroke"/>
<defs>
<path id="ubclef" class="fill" d="m-200 -87
	c124 -35 222 -78 254 -236
	43 -228 -167 -246 -192 -103
	59 -80 157 22 92 78
	-62 47 -115 -22 -106 -88
	21 -141 270 -136 274 52
	-1 175 -106 264 -322 297
	m357 -250
	c0 -36 51 -34 51 0
	0 37 -51 36 -51 0
	m-2 -129
	c0 -36 51 -34 51 0
	0 38 -51 37 -51 0"/>
<use id="bclef" transform="translate(0,18) scale(0.045)"
	xlink:href="#ubclef"/>
</defs>
<use x="22.00" y="125.00" xlink:href="#bclef"/>
<use x="37.00" y="137.00" xlink:href="#ft0"/>
<g style="font:bold 16px serif"
	transform="translate(53.00,142.50) scale(1.2,1)">
	<text text-anchor="middle">4</text>
	<text y="-12" text-anchor="middle">4</text>
</g>
<use x="71.50" y="146.00" xlink:href="#Hd"/>
<path d="M75.00 146.00v-21.00" class="stroke"/>
<use x="122.30" y="146.00" xlink:href="#Hd"/>
<path d="M125.80 146.00v-21.00" class="stroke"/>
<use x="182.00" y="146.00" xlink:href="#Hd"/>
<path d="M185.50 146.00v-21.00" class="stroke"/>
<use x="232.80" y="146.00" xlink:href="#Hd"/>
<path d="M236.30 146.00v-21.00" class="stroke"/>
<use x="289.70" y="146.00" xlink:href="#Hd"/>
<path d="M293.20 146.00v-21.00" class="stroke"/>
<use x="340.60" y="146.00" xlink:href="#Hd"/>
<path d="M344.10 146.00v-21.00" class="stroke"/>
<use x="396.80" y="146.00" xlink:href="#Hd"/>
<path d="M400.30 146.00v-21.00" class="stroke"/>
<use x="447.70" y="146.00" xlink:href="#Hd"/>
<path d="M451.20 146.00v-21.00" class="stroke"/>
<use x="486.30" y="146.00" xlink:href="#Hd"/>
<path d="M489.80 146.00v-21.00" class="stroke"/>
<use x="537.20" y="146.00" xlink:href="#Hd"/>
<path d="M540.70 146.00v-21.00" class="stroke"/>
<use x="596.80" y="131.00" xlink:href="#Hd"/>
<path d="M600.30 131.00v-21.00" class="stroke"/>
<use x="647.70" y="131.00" xlink:href="#Hd"/>
<path d="M651.20 131.00v-21.00" class="stroke"/>
</g>
<g stroke-width="0.70" style="font:bold 13.00px Times">
<path class="stroke" stroke-width="1"
	d="M10.00 273.40v-82.00"/>
<g transform="translate(10.00,191.40) scale(1,0.82)">
	<use xlink:href="#brace"/>
</g>
<path class="stroke" stroke-width="1"
	d="M155.70 215.40v-24.00"/>
<path class="stroke" stroke-width="1"
	d="M155.70 273.40v-24.00"/>
<path class="stroke" stroke-width="1"
	d="M247.80 215.40v-24.00"/>
<path class="stroke" stroke-width="1"
	d="M247.80 273.40v-24.00"/>
<path class="stroke" stroke-width="1"
	d="M358.70 215.40v-24.00"/>
<path class="stroke" stroke-width="1"
	d="M358.70 273.40v-24.00"/>
<path class="stroke" stroke-width="1"
	d="M469.70 215.40v-24.00"/>
<path class="stroke" stroke-width="1"
	d="M469.70 273.40v-24.00"/>
<path class="stroke" stroke-width="1"
	d="M580.60 215.40v-24.00"/>
<path class="stroke" stroke-width="1"
	d="M580.60 273.40v-24.00"/>
<path class="stroke" stroke-width="1"
	d="M691.60 215.40v-24.00"/>
<path class="stroke" stroke-width="1"
	d="M691.60 273.40v-24.00"/>
<path d="m10.00 215.40
	h681.60
	M10.00 209.40
	h681.60
	M10.00 203.40
	h681.60
	M10.00 197.40
	h681.60
	M10.00 191.40
	h681.60
	" class="stroke"/>
<path d="m10.00 273.40
	h681.60
	M10.00 267.40
	h681.60
	M10.00 261.40
	h681.60
	M10.00 255.40
	h681.60
	M10.00 249.40
	h681.60
	" class="stroke"/>
</g>
<g stroke-width="0.70" style="font:bold 13.00px Times">
<text x="50.90" y="186.80">iii</text>
</g>
<g stroke-width="0.70" style="font:bold 13.00px Times">
<text x="164.90" y="186.80">I<tspan
	 style="font:italic 11.00px Times">⁷</tspan></text>
</g>
<g stroke-width="0.70" style="font:bold 13.00px Times">
<text x="256.90" y="184.80">V</text>
</g>
<g stroke-width="0.70" style="font:bold 13.00px Times">
<text x="363.90" y="175.80">V<tspan
	 style="font:italic 11.00px Times">⁷¹</tspan></text>
</g>
<g stroke-width="0.70" style="font:bold 13.00px Times">
<text x="478.80" y="186.80">V</text>
</g>
<g stroke-width="0.70" style="font:bold 13.00px Times">
<text x="585.80" y="175.80">V<tspan
	 style="font:italic 11.00px Times">⁷¹</tspan></text>
</g>
<g stroke-width="0.70" style="font:italic 11.00px Times">
<use x="22.00" y="209.40" xlink:href="#tclef"/>
<use x="37.00" y="203.40" xlink:href="#ft0"/>
<use x="55.50" y="200.40" xlink:href="#hd"/>
<path d="M52.00 200.40v21.00" class="stroke"/>
<use x="81.80" y="209.40" xlink:href="#hd"/>
<path d="M85.30 209.40v-21.00" class="stroke"/>
<use x="108.10" y="209.40" xlink:href="#hd"/>
<circle class="fill" cx="115.80" cy="206.40" r="1.2"/>
<path d="M111.60 209.40v-21.00" class="stroke"/>
<use x="138.70" y="215.40" xlink:href="#hd"/>
<path d="M142.20 215.40v-21.00" class="stroke"/>
<path class="fill"
	d="M142.20 194.40c0.6 5.6 9.6 9 5.6 18.4
	1.6 -6 -1.3 -11.6 -5.6 -12.8
"/>
<use x="168.70" y="215.40" xlink:href="#hd"/>
<path d="M172.20 215.40v-21.00" class="stroke"/>
<use x="195.00" y="218.40" xlink:href="#hd"/>
<path d="M198.50 218.40v-21.00" class="stroke"/>
<use x="221.40" y="221.40" xlink:href="#hl"/>
<use x="221.40" y="221.40" xlink:href="#Hd"/>
<path d="M224.90 221.40v-21.00" class="stroke"/>
<use x="260.80" y="200.40" xlink:href="#hd"/>
<path d="M257.30 200.40v21.00" class="stroke"/>
<use x="287.10" y="200.40" xlink:href="#hd"/>
<path d="M283.60 200.40v21.00" class="stroke"/>
<use x="313.40" y="200.40" xlink:href="#hd"/>
<path d="M309.90 200.40v21.00" class="stroke"/>
<use x="339.80" y="212.40" xlink:href="#hd"/>
<path d="M343.30 212.40v-21.00" class="stroke"/>
<use x="371.70" y="203.40" xlink:href="#hd"/>
<path d="M375.20 203.40v-21.00" class="stroke"/>
<use x="398.10" y="206.40" xlink:href="#hd"/>
<path d="M401.60 206.40v-21.00" class="stroke"/>
<use x="424.40" y="206.40" xlink:href="#hd"/>
<path d="M427.90 206.40v-21.00" class="stroke"/>
<use x="450.70" y="209.40" xlink:href="#hd"/>
<path d="M454.20 209.40v-21.00" class="stroke"/>
<use x="482.70" y="200.40" xlink:href="#hd"/>
<path d="M479.20 200.40v21.00" class="stroke"/>
<use x="509.00" y="200.40" xlink:href="#hd"/>
<path d="M505.50 200.40v21.00" class="stroke"/>
<use x="535.30" y="200.40" xlink:href="#hd"/>
<path d="M531.80 200.40v21.00" class="stroke"/>
<use x="561.70" y="212.40" xlink:href="#hd"/>
<path d="M565.20 212.40v-21.00" class="stroke"/>
<use x="593.60" y="203.40" xlink:href="#hd"/>
<path d="M597.10 203.40v-21.00" class="stroke"/>
<use x="620.00" y="206.40" xlink:href="#hd"/>
<path d="M623.50 206.40v-21.00" class="stroke"/>
<use x="646.30" y="206.40" xlink:href="#hd"/>
<path d="M649.80 206.40v-21.00" class="stroke"/>
<use x="672.60" y="209.40" xlink:href="#hd"/>
<path d="M676.10 209.40v-21.00" class="stroke"/>
<use x="22.00" y="255.40" xlink:href="#bclef"/>
<use x="37.00" y="267.40" xlink:href="#ft0"/>
<use x="55.50" y="270.40" xlink:href="#Hd"/>
<path d="M59.00 270.40v-21.00" class="stroke"/>
<use x="108.10" y="270.40" xlink:href="#Hd"/>
<path d="M111.60 270.40v-21.00" class="stroke"/>
<use x="168.70" y="276.40" xlink:href="#Hd"/>
<path d="M172.20 276.40v-21.00" class="stroke"/>
<use x="221.40" y="276.40" xlink:href="#Hd"/>
<path d="M224.90 276.40v-21.00" class="stroke"/>
<use x="260.80" y="264.40" xlink:href="#Hd"/>
<path d="M264.30 264.40v-21.00" class="stroke"/>
<use x="313.40" y="264.40" xlink:href="#Hd"/>
<path d="M316.90 264.40v-21.00" class="stroke"/>
<use x="371.70" y="264.40" xlink:href="#Hd"/>
<path d="M375.20 264.40v-21.00" class="stroke"/>
<use x="424.40" y="264.40" xlink:href="#Hd"/>
<path d="M427.90 264.40v-21.00" class="stroke"/>
<use x="482.70" y="264.40" xlink:href="#Hd"/>
<path d="M486.20 264.40v-21.00" class="stroke"/>
<use x="535.30" y="264.40" xlink:href="#Hd"/>
<path d="M538.80 264.40v-21.00" class="stroke"/>
<use x="593.60" y="264.40" xlink:href="#Hd"/>
<path d="M597.10 264.40v-21.00" class="stroke"/>
<use x="646.30" y="264.40" xlink:href="#Hd"/>
<path d="M649.80 264.40v-21.00" class="stroke"/>
</g>
<g stroke-width="0.70" style="font:italic 11.00px Times">
<path class="stroke" stroke-width="1"
	d="M10.00 401.40v-82.00"/>
<g transform="translate(10.00,319.40) scale(1,0.82)">
	<use xlink:href="#brace"/>
</g>
<path class="stroke" stroke-width="1"
	d="M158.80 343.40v-24.00"/>
<path class="stroke" stroke-width="1"
	d="M158.80 401.40v-24.00"/>
<path class="stroke" stroke-width="1"
	d="M255.30 343.40v-24.00"/>
<path class="stroke" stroke-width="1"
	d="M255.30 401.40v-24.00"/>
<path class="stroke" stroke-width="1"
	d="M385.90 343.40v-24.00"/>
<path class="stroke" stroke-width="1"
	d="M385.90 401.40v-24.00"/>
<path class="stroke" stroke-width="1"
	d="M482.40 343.40v-24.00"/>
<path class="stroke" stroke-width="1"
	d="M482.40 401.40v-24.00"/>
<path class="stroke" stroke-width="1"
	d="M595.10 343.40v-24.00"/>
<path class="stroke" stroke-width="1"
	d="M595.10 401.40v-24.00"/>
<path class="stroke" stroke-width="1"
	d="M691.60 343.40v-24.00"/>
<path class="stroke" stroke-width="1"
	d="M691.60 401.40v-24.00"/>
<path d="m10.00 343.40
	h681.60
	M10.00 337.40
	h681.60
	M10.00 331.40
	h681.60
	M10.00 325.40
	h681.60
	M10.00 319.40
	h681.60
	" class="stroke"/>
<path d="m10.00 401.40
	h681.60
	M10.00 395.40
	h681.60
	M10.00 389.40
	h681.60
	M10.00 383.40
	h681.60
	M10.00 377.40
	h681.60
	" class="stroke"/>
</g>
<g stroke-width="0.70" style="font:bold 13.00px Times">
<text x="49.70" y="314.80">IV</text>
</g>
<g stroke-width="0.70" style="font:bold 13.00px Times">
<text x="166.80" y="314.80">ii<tspan
	 style="font:italic 11.00px Times">¹</tspan></text>
</g>
<g stroke-width="0.70" style="font:bold 13.00px Times">
<text x="260.50" y="309.80">V<tspan
	 style="font:italic 11.00px Times">⁷³</tspan></text>
</g>
<g stroke-width="0.70" style="font:bold 13.00px Times">
<text x="395.10" y="312.80">I<tspan
	 style="font:italic 11.00px Times">²</tspan></text>
</g>
<g stroke-width="0.70" style="font:bold 13.00px Times">
<text x="489.60" y="312.80">IV</text>
</g>
<g stroke-width="0.70" style="font:bold 13.00px Times">
<text x="605.10" y="312.80">ii</text>
<use x="22.00" y="337.40" xlink:href="#tclef"/>
<use x="37.00" y="331.40" xlink:href="#ft0"/>
<use x="55.50" y="325.40" xlink:href="#hd"/>
<path d="M52.00 325.40v21.00" class="stroke"/>
<use x="83.30" y="325.40" xlink:href="#hd"/>
<path d="M79.80 325.40v21.00" class="stroke"/>
<use x="111.10" y="325.40" xlink:href="#hd"/>
<path d="M107.60 325.40v21.00" class="stroke"/>
<use x="138.90" y="328.40" xlink:href="#hd"/>
<path d="M135.40 328.40v21.00" class="stroke"/>
<use x="171.80" y="331.40" xlink:href="#hd"/>
<path d="M168.30 331.40v21.00" class="stroke"/>
<use x="199.60" y="334.40" xlink:href="#hd"/>
<path d="M203.10 334.40v-21.00" class="stroke"/>
<use x="227.50" y="331.40" xlink:href="#Hd"/>
<path d="M231.00 331.40v-21.00" class="stroke"/>
<use x="268.30" y="337.40" xlink:href="#hd"/>
<path d="M271.80 337.40v-21.00" class="stroke"/>
<use x="296.10" y="334.40" xlink:href="#hd"/>
<path d="M299.60 334.40v-21.00" class="stroke"/>
<path class="fill"
	d="M299.60 313.40c0.6 5.6 9.6 9 5.6 18.4
	1.6 -6 -1.3 -11.6 -5.6 -12.8
"/>
<use x="316.30" y="331.40" xlink:href="#hd"/>
<path d="M319.80 331.40v-21.00" class="stroke"/>
<path class="fill"
	d="M319.80 310.40c0.6 5.6 9.6 9 5.6 18.4
	1.6 -6 -1.3 -11.6 -5.6 -12.8
"/>
<use x="336.80" y="328.40" xlink:href="#hd"/>
<circle class="fill" cx="344.50" cy="328.40" r="1.2"/>
<path d="M333.30 328.40v21.00" class="stroke"/>
<use x="368.90" y="340.40" xlink:href="#hd"/>
<path d="M372.40 340.40v-21.00" class="stroke"/>
<path class="fill"
	d="M372.40 319.40c0.6 5.6 9.6 9 5.6 18.4
	1.6 -6 -1.3 -11.6 -5.6 -12.8
"/>
<use x="398.90" y="340.40" xlink:href="#hd"/>
<path d="M402.40 340.40v-21.00" class="stroke"/>
<use x="426.70" y="337.40" xlink:href="#hd"/>
<path d="M430.20 337.40v-21.00" class="stroke"/>
<use x="454.50" y="334.40" xlink:href="#Hd"/>
<path d="M458.00 334.40v-21.00" class="stroke"/>
<use x="495.40" y="325.40" xlink:href="#hd"/>
<circle class="fill" cx="503.10" cy="322.40" r="1.2"/>
<path d="M491.90 325.40v21.00" class="stroke"/>
<use x="527.50" y="325.40" xlink:href="#hd"/>
<path d="M524.00 325.40v21.00" class="stroke"/>
<path class="fill"
	d="M524.00 346.40c0.6 -5.6 9.6 -9 5.6 -18.4
	1.6 6 -1.3 11.6 -5.6 12.8
"/>
<use x="547.40" y="325.40" xlink:href="#hd"/>
<path d="M543.90 325.40v21.00" class="stroke"/>
<use x="575.20" y="328.40" xlink:href="#hd"/>
<path d="M571.70 328.40v21.00" class="stroke"/>
<use x="608.10" y="331.40" xlink:href="#hd"/>
<path d="M604.60 331.40v21.00" class="stroke"/>
<use x="635.90" y="334.40" xlink:href="#hd"/>
<path d="M639.40 334.40v-21.00" class="stroke"/>
<use x="663.70" y="331.40" xlink:href="#Hd"/>
<path d="M667.20 331.40v-21.00" class="stroke"/>
<use x="22.00" y="383.40" xlink:href="#bclef"/>
<use x="37.00" y="395.40" xlink:href="#ft0"/>
<use x="55.50" y="395.40" xlink:href="#Hd"/>
<path d="M59.00 395.40v-21.00" class="stroke"/>
<use x="111.10" y="395.40" xlink:href="#Hd"/>
<path d="M114.60 395.40v-21.00" class="stroke"/>
<use x="171.80" y="401.40" xlink:href="#Hd"/>
<path d="M175.30 401.40v-21.00" class="stroke"/>
<use x="227.50" y="401.40" xlink:href="#Hd"/>
<path d="M231.00 401.40v-21.00" class="stroke"/>
<use x="268.30" y="392.40" xlink:href="#Hd"/>
<path d="M271.80 392.40v-21.00" class="stroke"/>
<use x="336.80" y="392.40" xlink:href="#Hd"/>
<path d="M340.30 392.40v-21.00" class="stroke"/>
<use x="398.90" y="404.40" xlink:href="#Hd"/>
<path d="M402.40 404.40v-21.00" class="stroke"/>
<use x="454.50" y="404.40" xlink:href="#Hd"/>
<path d="M458.00 404.40v-21.00" class="stroke"/>
<use x="495.40" y="395.40" xlink:href="#Hd"/>
<path d="M498.90 395.40v-21.00" class="stroke"/>
<use x="547.40" y="395.40" xlink:href="#Hd"/>
<path d="M550.90 395.40v-21.00" class="stroke"/>
<use x="608.10" y="401.40" xlink:href="#Hd"/>
<path d="M611.60 401.40v-21.00" class="stroke"/>
<use x="663.70" y="401.40" xlink:href="#Hd"/>
<path d="M667.20 401.40v-21.00" class="stroke"/>
</g>
<g stroke-width="0.70" style="font:bold 13.00px Times">
<path class="stroke" stroke-width="1"
	d="M10.00 529.40v-82.00"/>
<g transform="translate(10.00,447.40) scale(1,0.82)">
	<use xlink:href="#brace"/>
</g>
<path class="stroke" stroke-width="1"
	d="M217.40 471.40v-24.00"/>
<path class="stroke" stroke-width="1"
	d="M217.40 529.40v-24.00"/>
<path class="stroke" stroke-width="1"
	d="M351.20 471.40v-24.00"/>
<path class="stroke" stroke-width="1"
	d="M351.20 529.40v-24.00"/>
<path d="m10.00 471.40
	h341.20
	M10.00 465.40
	h341.20
	M10.00 459.40
	h341.20
	M10.00 453.40
	h341.20
	M10.00 447.40
	h341.20
	" class="stroke"/>
<path d="m10.00 529.40
	h341.20
	M10.00 523.40
	h341.20
	M10.00 517.40
	h341.20
	M10.00 511.40
	h341.20
	M10.00 505.40
	h341.20
	" class="stroke"/>
</g>
<g stroke-width="0.70" style="font:bold 13.00px Times">
<text x="49.60" y="437.80">V<tspan
	 style="font:italic 11.00px Times">¹</tspan></text>
</g>
<g stroke-width="0.70" style="font:bold 13.00px Times">
<text x="227.80" y="440.80">I<tspan
	 style="font:italic 11.00px Times">²</tspan></text>
</g>
<g stroke-width="0.70" style="font:italic 11.00px Times">
<use x="22.00" y="465.40" xlink:href="#tclef"/>
<use x="37.00" y="459.40" xlink:href="#ft0"/>
<use x="55.50" y="465.40" xlink:href="#hd"/>
<path d="M59.00 465.40v-21.00" class="stroke"/>
<use x="95.50" y="462.40" xlink:href="#hd"/>
<path d="M99.00 462.40v-21.00" class="stroke"/>
<path class="fill"
	d="M99.00 441.40c0.6 5.6 9.6 9 5.6 18.4
	1.6 -6 -1.3 -11.6 -5.6 -12.8
"/>
<use x="123.80" y="459.40" xlink:href="#hd"/>
<path d="M127.30 459.40v-21.00" class="stroke"/>
<path class="fill"
	d="M127.30 438.40c0.6 5.6 9.6 9 5.6 18.4
	1.6 -6 -1.3 -11.6 -5.6 -12.8
"/>
<use x="152.10" y="456.40" xlink:href="#hd"/>
<circle class="fill" cx="159.80" cy="456.40" r="1.2"/>
<path d="M148.60 456.40v21.00" class="stroke"/>
<use x="197.60" y="468.40" xlink:href="#hd"/>
<path d="M201.10 468.40v-21.00" class="stroke"/>
<path class="fill"
	d="M201.10 447.40c0.6 5.6 9.6 9 5.6 18.4
	1.6 -6 -1.3 -11.6 -5.6 -12.8
"/>
<use x="231.60" y="468.40" xlink:href="#hd"/>
<path d="M235.10 468.40v-21.00" class="stroke"/>
<use x="271.60" y="465.40" xlink:href="#hd"/>
<path d="M275.10 465.40v-21.00" class="stroke"/>
<use x="311.60" y="468.40" xlink:href="#Hd"/>
<path d="M315.10 468.40v-21.00" class="stroke"/>
<use x="22.00" y="511.40" xlink:href="#bclef"/>
<use x="37.00" y="523.40" xlink:href="#ft0"/>
<use x="55.50" y="520.40" xlink:href="#Hd"/>
<path d="M59.00 520.40v-21.00" class="stroke"/>
<use x="152.10" y="520.40" xlink:href="#Hd"/>
<path d="M155.60 520.40v-21.00" class="stroke"/>
<use x="231.60" y="532.40" xlink:href="#Hd"/>
<path d="M235.10 532.40v-21.00" class="stroke"/>
<use x="311.60" y="532.40" xlink:href="#Hd"/>
<path d="M315.10 532.40v-21.00" class="stroke"/>
</g>
</svg>
