<?xml version="1.0" standalone="no"?>
<!DOCTYPE svg PUBLIC "-//W3C//DTD SVG 1.1//EN"
	"http://www.w3.org/Graphics/SVG/1.1/DTD/svg11.dtd">
<svg xmlns="http://www.w3.org/2000/svg" version="1.1"
	xmlns:xlink="http://www.w3.org/1999/xlink"
	color="black"
	width="701.60px" height="552.40px" viewBox="0 0 701.60 552.40" preserveAspectRatio="xMidYMid meet">
<style type="text/css">
.fill {fill: currentColor}
.stroke {stroke: currentColor; fill: none}
text{white-space: pre}
</style>
<title>/tmp/retab_hymnal_L2/jesus_shall_reign.abc (1) tune 1</title>
<!-- Creator: abcm2ps-8.14.11 -->
<!-- CreationDate: Apr 24, 2026 15:38 -->
<!-- CommandLine: /tmp/retab_hymnal_L2/jesus_shall_reign.abc -g -O /tmp/retab_hymnal_L2/jesus_shall_reign -->
<g stroke-width="0.70">
<!-- title: 125. Jesus Shall Reign -->
</g>
<g stroke-width="0.70" style="font:20.00px Times">
<text x="350.80" y="22.00" text-anchor="middle">125. Jesus Shall Reign</text>
</g>
<g stroke-width="0.70" style="font:20.00px Times">
<path class="stroke" stroke-width="1"
	d="M10.00 143.00v-82.00"/>
<defs>
<path id="brace" class="fill" d="m-2.5 101
	c-4.5 -4.6 -7.5 -12.2 -4.4 -26.8
	3.5 -14.3 3.2 -21.7 -2.1 -24.2
	7.4 2.4 7.3 14.2 3.5 29.5
	-2.7 9.5 -1.5 16.2 3 21.5
	M-2.5 1c-4.5 4.6 -7.5 12.2 -4.4 26.8
	c3.5 14.3 3.2 21.7 -2.1 24.2
	7.4 -2.4 7.3 -14.2 3.5 -29.5
	-2.7 -9.5 -1.5 -16.2 3 -21.5"/>
</defs>
<g transform="translate(10.00,61.00) scale(1,0.82)">
	<use xlink:href="#brace"/>
</g>
<path class="stroke" stroke-width="1"
	d="M152.60 85.00v-24.00"/>
<path class="stroke" stroke-width="1"
	d="M152.60 143.00v-24.00"/>
<path class="stroke" stroke-width="1"
	d="M234.60 85.00v-24.00"/>
<path class="stroke" stroke-width="1"
	d="M234.60 143.00v-24.00"/>
<path class="stroke" stroke-width="1"
	d="M317.70 85.00v-24.00"/>
<path class="stroke" stroke-width="1"
	d="M317.70 143.00v-24.00"/>
<path class="stroke" stroke-width="1"
	d="M399.70 85.00v-24.00"/>
<path class="stroke" stroke-width="1"
	d="M399.70 143.00v-24.00"/>
<path class="stroke" stroke-width="1"
	d="M482.80 85.00v-24.00"/>
<path class="stroke" stroke-width="1"
	d="M482.80 143.00v-24.00"/>
<path class="stroke" stroke-width="1"
	d="M564.70 85.00v-24.00"/>
<path class="stroke" stroke-width="1"
	d="M564.70 143.00v-24.00"/>
<path class="stroke" stroke-width="1"
	d="M675.60 85.00v-24.00"/>
<path class="stroke" stroke-width="1"
	d="M675.60 143.00v-24.00"/>
<path class="stroke" stroke-width="1"
	d="M691.60 85.00v-24.00"/>
<path class="stroke" stroke-width="1"
	d="M691.60 143.00v-24.00"/>
<path d="m10.00 85.00
	h681.60
	M10.00 79.00
	h681.60
	M10.00 73.00
	h681.60
	M10.00 67.00
	h681.60
	M10.00 61.00
	h681.60
	" class="stroke"/>
<path d="m10.00 143.00
	h681.60
	M10.00 137.00
	h681.60
	M10.00 131.00
	h681.60
	M10.00 125.00
	h681.60
	M10.00 119.00
	h681.60
	" class="stroke"/>
</g>
<g stroke-width="0.70" style="font:bold 13.00px Times">
<text x="81.70" y="56.40">I</text>
</g>
<g stroke-width="0.70" style="font:bold 13.00px Times">
<text x="163.80" y="51.40">I</text>
</g>
<g stroke-width="0.70" style="font:bold 13.00px Times">
<text x="244.90" y="56.40">I<tspan
	 style="font:italic 11.00px Times">¹</tspan></text>
</g>
<g stroke-width="0.70" style="font:bold 13.00px Times">
<text x="322.90" y="54.40">V<tspan
	 style="font:italic 11.00px Times">⁷²</tspan></text>
</g>
<g stroke-width="0.70" style="font:bold 13.00px Times">
<text x="411.90" y="55.40">I</text>
</g>
<g stroke-width="0.70" style="font:bold 13.00px Times">
<text x="491.80" y="54.40">V</text>
</g>
<g stroke-width="0.70" style="font:bold 13.00px Times">
<text x="574.80" y="56.40">V</text>
<defs>
<path id="utclef" class="fill" d="m-50 -90
	c-72 -41 -72 -158 52 -188
	150 -10 220 188 90 256
	-114 52 -275 0 -293 -136
	-15 -181 93 -229 220 -334
	88 -87 79 -133 62 -210
	-51 33 -94 105 -89 186
	17 267 36 374 49 574
	6 96 -19 134 -77 135
	-80 1 -126 -93 -61 -133
	85 -41 133 101 31 105
	23 17 92 37 90 -92
	-10 -223 -39 -342 -50 -617
	0 -90 0 -162 96 -232
	56 72 63 230 22 289
	-74 106 -257 168 -255 316
	9 153 148 185 252 133
	86 -65 29 -192 -80 -176
	-71 12 -105 67 -59 124"/>
<use id="tclef" transform="translate(0,6) scale(0.045)"
	xlink:href="#utclef"/>
</defs>
<use x="22.00" y="79.00" xlink:href="#tclef"/>
<defs>
<path id="uflat" class="fill" d="
	m100 -746
	h32
	v734
	l-32 4
	m32 -332
	c46 -72 152 -90 208 -20
	100 110 -120 326 -208 348
	m0 -28
	c54 0 200 -206 130 -290
	-50 -60 -130 -4 -130 34"/>
<use id="ft0" transform="translate(-3.5,3.5) scale(0.018)"
	xlink:href="#uflat"/>
</defs>
<use x="37.00" y="73.00" xlink:href="#ft0"/>
<use x="42.50" y="64.00" xlink:href="#ft0"/>
<use x="48.00" y="76.00" xlink:href="#ft0"/>
<g style="font:bold 16px serif"
	transform="translate(64.00,84.50) scale(1.2,1)">
	<text text-anchor="middle">2</text>
	<text y="-12" text-anchor="middle">2</text>
</g>
<defs>
<path id="HD" class="fill" d="m-2.7 -1.4
	c1.5 -2.8 6.9 0 5.3 2.7
	-1.5 2.8 -6.9 0 -5.3 -2.7
	m8.3 1.4
	c0 -1.5 -2.2 -3 -5.6 -3
	-3.4 0 -5.6 1.5 -5.6 3
	0 1.5 2.2 3 5.6 3
	3.4 0 5.6 -1.5 5.6 -3"/>
</defs>
<use x="84.50" y="85.00" xlink:href="#HD"/>
<defs>
<path id="Hd" class="fill" d="m3 -1.6
	c-1 -1.8 -7 1.4 -6 3.2
	1 1.8 7 -1.4 6 -3.2
	m0.5 -0.3
	c2 3.8 -5 7.6 -7 3.8
	-2 -3.8 5 -7.6 7 -3.8"/>
</defs>
<use x="165.60" y="79.00" xlink:href="#Hd"/>
<path d="M169.10 79.00v-21.00" class="stroke"/>
<use x="205.90" y="76.00" xlink:href="#Hd"/>
<path d="M209.40 76.00v-21.00" class="stroke"/>
<use x="249.60" y="73.00" xlink:href="#HD"/>
<use x="330.70" y="70.00" xlink:href="#Hd"/>
<path d="M327.20 70.00v21.00" class="stroke"/>
<use x="370.90" y="67.00" xlink:href="#Hd"/>
<path d="M367.40 67.00v21.00" class="stroke"/>
<use x="414.70" y="64.00" xlink:href="#HD"/>
<use x="495.80" y="67.00" xlink:href="#Hd"/>
<path d="M492.30 67.00v21.00" class="stroke"/>
<use x="536.00" y="70.00" xlink:href="#Hd"/>
<path d="M532.50 70.00v21.00" class="stroke"/>
<defs>
<g id="HDD">
	<use xlink:href="#HD"/>
	<path d="m-6 -4v8m12 0v-8" class="stroke"/>
</g>
</defs>
<use x="579.70" y="73.00" xlink:href="#HDD"/>
<defs>
<path id="ubclef" class="fill" d="m-200 -87
	c124 -35 222 -78 254 -236
	43 -228 -167 -246 -192 -103
	59 -80 157 22 92 78
	-62 47 -115 -22 -106 -88
	21 -141 270 -136 274 52
	-1 175 -106 264 -322 297
	m357 -250
	c0 -36 51 -34 51 0
	0 37 -51 36 -51 0
	m-2 -129
	c0 -36 51 -34 51 0
	0 38 -51 37 -51 0"/>
<use id="bclef" transform="translate(0,18) scale(0.045)"
	xlink:href="#ubclef"/>
</defs>
<use x="22.00" y="125.00" xlink:href="#bclef"/>
<use x="37.00" y="137.00" xlink:href="#ft0"/>
<use x="42.50" y="128.00" xlink:href="#ft0"/>
<use x="48.00" y="140.00" xlink:href="#ft0"/>
<g style="font:bold 16px serif"
	transform="translate(64.00,142.50) scale(1.2,1)">
	<text text-anchor="middle">2</text>
	<text y="-12" text-anchor="middle">2</text>
</g>
<defs>
<path id="hl" class="stroke" d="m-6 0h12"/>
</defs>
<use x="83.50" y="149.00" xlink:href="#hl"/>
<use x="83.50" y="149.00" xlink:href="#Hd"/>
<path d="M87.00 149.00v-21.00" class="stroke"/>
<use x="123.80" y="149.00" xlink:href="#hl"/>
<use x="123.80" y="149.00" xlink:href="#Hd"/>
<path d="M127.30 149.00v-21.00" class="stroke"/>
<use x="165.60" y="149.00" xlink:href="#hl"/>
<use x="165.60" y="149.00" xlink:href="#Hd"/>
<path d="M169.10 149.00v-21.00" class="stroke"/>
<use x="205.90" y="149.00" xlink:href="#hl"/>
<use x="205.90" y="149.00" xlink:href="#Hd"/>
<path d="M209.40 149.00v-21.00" class="stroke"/>
<use x="248.60" y="149.00" xlink:href="#hl"/>
<use x="248.60" y="149.00" xlink:href="#Hd"/>
<path d="M252.10 149.00v-21.00" class="stroke"/>
<use x="289.00" y="149.00" xlink:href="#hl"/>
<use x="289.00" y="149.00" xlink:href="#Hd"/>
<path d="M292.50 149.00v-21.00" class="stroke"/>
<use x="330.70" y="137.00" xlink:href="#Hd"/>
<path d="M334.20 137.00v-21.00" class="stroke"/>
<use x="370.90" y="137.00" xlink:href="#Hd"/>
<path d="M374.40 137.00v-21.00" class="stroke"/>
<use x="413.70" y="149.00" xlink:href="#hl"/>
<use x="413.70" y="149.00" xlink:href="#Hd"/>
<path d="M417.20 149.00v-21.00" class="stroke"/>
<use x="454.00" y="149.00" xlink:href="#hl"/>
<use x="454.00" y="149.00" xlink:href="#Hd"/>
<path d="M457.50 149.00v-21.00" class="stroke"/>
<use x="495.80" y="137.00" xlink:href="#Hd"/>
<path d="M499.30 137.00v-21.00" class="stroke"/>
<use x="536.00" y="137.00" xlink:href="#Hd"/>
<path d="M539.50 137.00v-21.00" class="stroke"/>
<use x="579.70" y="137.00" xlink:href="#HD"/>
<use x="636.40" y="137.00" xlink:href="#HD"/>
</g>
<g stroke-width="0.70" style="font:bold 13.00px Times">
<path class="stroke" stroke-width="1"
	d="M10.00 271.00v-82.00"/>
<g transform="translate(10.00,189.00) scale(1,0.82)">
	<use xlink:href="#brace"/>
</g>
<path class="stroke" stroke-width="1"
	d="M138.40 213.00v-24.00"/>
<path class="stroke" stroke-width="1"
	d="M138.40 271.00v-24.00"/>
<path class="stroke" stroke-width="1"
	d="M222.40 213.00v-24.00"/>
<path class="stroke" stroke-width="1"
	d="M222.40 271.00v-24.00"/>
<path class="stroke" stroke-width="1"
	d="M307.20 213.00v-24.00"/>
<path class="stroke" stroke-width="1"
	d="M307.20 271.00v-24.00"/>
<path class="stroke" stroke-width="1"
	d="M392.20 213.00v-24.00"/>
<path class="stroke" stroke-width="1"
	d="M392.20 271.00v-24.00"/>
<path class="stroke" stroke-width="1"
	d="M477.00 213.00v-24.00"/>
<path class="stroke" stroke-width="1"
	d="M477.00 271.00v-24.00"/>
<path class="stroke" stroke-width="1"
	d="M562.00 213.00v-24.00"/>
<path class="stroke" stroke-width="1"
	d="M562.00 271.00v-24.00"/>
<path class="stroke" stroke-width="1"
	d="M675.60 213.00v-24.00"/>
<path class="stroke" stroke-width="1"
	d="M675.60 271.00v-24.00"/>
<path class="stroke" stroke-width="1"
	d="M691.60 213.00v-24.00"/>
<path class="stroke" stroke-width="1"
	d="M691.60 271.00v-24.00"/>
<path d="m10.00 213.00
	h681.60
	M10.00 207.00
	h681.60
	M10.00 201.00
	h681.60
	M10.00 195.00
	h681.60
	M10.00 189.00
	h681.60
	" class="stroke"/>
<path d="m10.00 271.00
	h681.60
	M10.00 265.00
	h681.60
	M10.00 259.00
	h681.60
	M10.00 253.00
	h681.60
	M10.00 247.00
	h681.60
	" class="stroke"/>
</g>
<g stroke-width="0.70" style="font:bold 13.00px Times">
<text x="65.70" y="184.40">I</text>
</g>
<g stroke-width="0.70" style="font:bold 13.00px Times">
<text x="149.60" y="184.40">I</text>
</g>
<g stroke-width="0.70" style="font:bold 13.00px Times">
<text x="230.60" y="184.40">IV</text>
</g>
<g stroke-width="0.70" style="font:bold 13.00px Times">
<text x="317.50" y="184.40">I<tspan
	 style="font:italic 11.00px Times">¹</tspan></text>
</g>
<g stroke-width="0.70" style="font:bold 13.00px Times">
<text x="401.20" y="184.40">ii<tspan
	 style="font:italic 11.00px Times">⁷</tspan></text>
</g>
<g stroke-width="0.70" style="font:bold 13.00px Times">
<text x="489.20" y="182.40">I</text>
</g>
<g stroke-width="0.70" style="font:bold 13.00px Times">
<text x="572.00" y="182.40">V</text>
<use x="22.00" y="207.00" xlink:href="#tclef"/>
<use x="37.00" y="201.00" xlink:href="#ft0"/>
<use x="42.50" y="192.00" xlink:href="#ft0"/>
<use x="48.00" y="204.00" xlink:href="#ft0"/>
<use x="68.50" y="201.00" xlink:href="#HD"/>
<use x="151.40" y="201.00" xlink:href="#Hd"/>
<path d="M147.90 201.00v21.00" class="stroke"/>
<use x="192.90" y="201.00" xlink:href="#Hd"/>
<path d="M189.40 201.00v21.00" class="stroke"/>
<use x="237.40" y="198.00" xlink:href="#HD"/>
<use x="322.20" y="201.00" xlink:href="#HD"/>
<use x="407.20" y="204.00" xlink:href="#HD"/>
<use x="492.00" y="207.00" xlink:href="#HD"/>
<use x="577.00" y="210.00" xlink:href="#HDD"/>
<use x="22.00" y="253.00" xlink:href="#bclef"/>
<use x="37.00" y="265.00" xlink:href="#ft0"/>
<use x="42.50" y="256.00" xlink:href="#ft0"/>
<use x="48.00" y="268.00" xlink:href="#ft0"/>
<use x="67.50" y="277.00" xlink:href="#hl"/>
<use x="67.50" y="277.00" xlink:href="#Hd"/>
<path d="M71.00 277.00v-21.00" class="stroke"/>
<use x="109.00" y="277.00" xlink:href="#hl"/>
<use x="109.00" y="277.00" xlink:href="#Hd"/>
<path d="M112.50 277.00v-21.00" class="stroke"/>
<use x="151.40" y="277.00" xlink:href="#hl"/>
<use x="151.40" y="277.00" xlink:href="#Hd"/>
<path d="M154.90 277.00v-21.00" class="stroke"/>
<use x="192.90" y="277.00" xlink:href="#hl"/>
<use x="192.90" y="277.00" xlink:href="#Hd"/>
<path d="M196.40 277.00v-21.00" class="stroke"/>
<use x="236.40" y="268.00" xlink:href="#Hd"/>
<path d="M239.90 268.00v-21.00" class="stroke"/>
<use x="277.80" y="268.00" xlink:href="#Hd"/>
<path d="M281.30 268.00v-21.00" class="stroke"/>
<use x="321.20" y="277.00" xlink:href="#hl"/>
<use x="321.20" y="277.00" xlink:href="#Hd"/>
<path d="M324.70 277.00v-21.00" class="stroke"/>
<use x="362.70" y="277.00" xlink:href="#hl"/>
<use x="362.70" y="277.00" xlink:href="#Hd"/>
<path d="M366.20 277.00v-21.00" class="stroke"/>
<use x="406.20" y="274.00" xlink:href="#Hd"/>
<path d="M409.70 274.00v-21.00" class="stroke"/>
<use x="447.60" y="274.00" xlink:href="#Hd"/>
<path d="M451.10 274.00v-21.00" class="stroke"/>
<use x="491.00" y="277.00" xlink:href="#hl"/>
<use x="491.00" y="277.00" xlink:href="#Hd"/>
<path d="M494.50 277.00v-21.00" class="stroke"/>
<use x="532.50" y="277.00" xlink:href="#hl"/>
<use x="532.50" y="277.00" xlink:href="#Hd"/>
<path d="M536.00 277.00v-21.00" class="stroke"/>
<use x="577.00" y="265.00" xlink:href="#HD"/>
<use x="635.30" y="265.00" xlink:href="#HD"/>
</g>
<g stroke-width="0.70" style="font:bold 13.00px Times">
<path class="stroke" stroke-width="1"
	d="M10.00 401.40v-82.00"/>
<g transform="translate(10.00,319.40) scale(1,0.82)">
	<use xlink:href="#brace"/>
</g>
<path class="stroke" stroke-width="1"
	d="M139.00 343.40v-24.00"/>
<path class="stroke" stroke-width="1"
	d="M139.00 401.40v-24.00"/>
<path class="stroke" stroke-width="1"
	d="M223.40 343.40v-24.00"/>
<path class="stroke" stroke-width="1"
	d="M223.40 401.40v-24.00"/>
<path class="stroke" stroke-width="1"
	d="M307.90 343.40v-24.00"/>
<path class="stroke" stroke-width="1"
	d="M307.90 401.40v-24.00"/>
<path class="stroke" stroke-width="1"
	d="M392.40 343.40v-24.00"/>
<path class="stroke" stroke-width="1"
	d="M392.40 401.40v-24.00"/>
<path class="stroke" stroke-width="1"
	d="M476.80 343.40v-24.00"/>
<path class="stroke" stroke-width="1"
	d="M476.80 401.40v-24.00"/>
<path class="stroke" stroke-width="1"
	d="M561.20 343.40v-24.00"/>
<path class="stroke" stroke-width="1"
	d="M561.20 401.40v-24.00"/>
<path class="stroke" stroke-width="1"
	d="M675.60 343.40v-24.00"/>
<path class="stroke" stroke-width="1"
	d="M675.60 401.40v-24.00"/>
<path class="stroke" stroke-width="1"
	d="M691.60 343.40v-24.00"/>
<path class="stroke" stroke-width="1"
	d="M691.60 401.40v-24.00"/>
<path d="m10.00 343.40
	h681.60
	M10.00 337.40
	h681.60
	M10.00 331.40
	h681.60
	M10.00 325.40
	h681.60
	M10.00 319.40
	h681.60
	" class="stroke"/>
<path d="m10.00 401.40
	h681.60
	M10.00 395.40
	h681.60
	M10.00 389.40
	h681.60
	M10.00 383.40
	h681.60
	M10.00 377.40
	h681.60
	" class="stroke"/>
</g>
<g stroke-width="0.70" style="font:bold 13.00px Times">
<text x="65.70" y="314.80">I</text>
</g>
<g stroke-width="0.70" style="font:bold 13.00px Times">
<text x="150.10" y="309.80">I</text>
</g>
<g stroke-width="0.70" style="font:bold 13.00px Times">
<text x="234.60" y="314.80">I</text>
</g>
<g stroke-width="0.70" style="font:bold 13.00px Times">
<text x="317.10" y="303.80">I<tspan
	 style="font:italic 11.00px Times">¹</tspan></text>
</g>
<g stroke-width="0.70" style="font:bold 13.00px Times">
<text x="399.70" y="312.80">IV</text>
</g>
<g stroke-width="0.70" style="font:bold 13.00px Times">
<text x="483.90" y="306.80">V<tspan
	 style="font:italic 11.00px Times">²</tspan></text>
</g>
<g stroke-width="0.70" style="font:bold 13.00px Times">
<text x="571.20" y="312.80">V</text>
<use x="22.00" y="337.40" xlink:href="#tclef"/>
<use x="37.00" y="331.40" xlink:href="#ft0"/>
<use x="42.50" y="322.40" xlink:href="#ft0"/>
<use x="48.00" y="334.40" xlink:href="#ft0"/>
<use x="68.50" y="337.40" xlink:href="#HD"/>
<use x="152.00" y="337.40" xlink:href="#Hd"/>
<path d="M155.50 337.40v-21.00" class="stroke"/>
<use x="193.80" y="340.40" xlink:href="#Hd"/>
<path d="M197.30 340.40v-21.00" class="stroke"/>
<use x="236.40" y="343.40" xlink:href="#Hd"/>
<path d="M239.90 343.40v-21.00" class="stroke"/>
<use x="278.20" y="337.40" xlink:href="#Hd"/>
<path d="M281.70 337.40v-21.00" class="stroke"/>
<use x="320.90" y="331.40" xlink:href="#Hd"/>
<path d="M324.40 331.40v-21.00" class="stroke"/>
<use x="362.80" y="322.40" xlink:href="#Hd"/>
<path d="M359.30 322.40v21.00" class="stroke"/>
<use x="405.40" y="328.40" xlink:href="#Hd"/>
<path d="M401.90 328.40v21.00" class="stroke"/>
<use x="447.10" y="331.40" xlink:href="#Hd"/>
<path d="M443.60 331.40v21.00" class="stroke"/>
<use x="489.80" y="334.40" xlink:href="#Hd"/>
<path d="M493.30 334.40v-21.00" class="stroke"/>
<use x="531.50" y="337.40" xlink:href="#Hd"/>
<path d="M535.00 337.40v-21.00" class="stroke"/>
<use x="576.20" y="340.40" xlink:href="#HDD"/>
<use x="22.00" y="383.40" xlink:href="#bclef"/>
<use x="37.00" y="395.40" xlink:href="#ft0"/>
<use x="42.50" y="386.40" xlink:href="#ft0"/>
<use x="48.00" y="398.40" xlink:href="#ft0"/>
<use x="67.50" y="407.40" xlink:href="#hl"/>
<use x="67.50" y="407.40" xlink:href="#Hd"/>
<path d="M71.00 407.40v-21.00" class="stroke"/>
<use x="109.30" y="407.40" xlink:href="#hl"/>
<use x="109.30" y="407.40" xlink:href="#Hd"/>
<path d="M112.80 407.40v-21.00" class="stroke"/>
<use x="152.00" y="407.40" xlink:href="#hl"/>
<use x="152.00" y="407.40" xlink:href="#Hd"/>
<path d="M155.50 407.40v-21.00" class="stroke"/>
<use x="193.80" y="407.40" xlink:href="#hl"/>
<use x="193.80" y="407.40" xlink:href="#Hd"/>
<path d="M197.30 407.40v-21.00" class="stroke"/>
<use x="236.40" y="407.40" xlink:href="#hl"/>
<use x="236.40" y="407.40" xlink:href="#Hd"/>
<path d="M239.90 407.40v-21.00" class="stroke"/>
<use x="278.20" y="407.40" xlink:href="#hl"/>
<use x="278.20" y="407.40" xlink:href="#Hd"/>
<path d="M281.70 407.40v-21.00" class="stroke"/>
<use x="320.90" y="407.40" xlink:href="#hl"/>
<use x="320.90" y="407.40" xlink:href="#Hd"/>
<path d="M324.40 407.40v-21.00" class="stroke"/>
<use x="362.80" y="407.40" xlink:href="#hl"/>
<use x="362.80" y="407.40" xlink:href="#Hd"/>
<path d="M366.30 407.40v-21.00" class="stroke"/>
<use x="405.40" y="398.40" xlink:href="#Hd"/>
<path d="M408.90 398.40v-21.00" class="stroke"/>
<use x="447.10" y="398.40" xlink:href="#Hd"/>
<path d="M450.60 398.40v-21.00" class="stroke"/>
<use x="489.80" y="395.40" xlink:href="#Hd"/>
<path d="M493.30 395.40v-21.00" class="stroke"/>
<use x="531.50" y="395.40" xlink:href="#Hd"/>
<path d="M535.00 395.40v-21.00" class="stroke"/>
<use x="576.20" y="395.40" xlink:href="#HD"/>
<use x="635.00" y="395.40" xlink:href="#HD"/>
</g>
<g stroke-width="0.70" style="font:bold 13.00px Times">
<path class="stroke" stroke-width="1"
	d="M10.00 529.40v-82.00"/>
<g transform="translate(10.00,447.40) scale(1,0.82)">
	<use xlink:href="#brace"/>
</g>
<path class="stroke" stroke-width="1"
	d="M139.90 471.40v-24.00"/>
<path class="stroke" stroke-width="1"
	d="M139.90 529.40v-24.00"/>
<path class="stroke" stroke-width="1"
	d="M225.20 471.40v-24.00"/>
<path class="stroke" stroke-width="1"
	d="M225.20 529.40v-24.00"/>
<path class="stroke" stroke-width="1"
	d="M322.60 471.40v-24.00"/>
<path class="stroke" stroke-width="1"
	d="M322.60 529.40v-24.00"/>
<path class="stroke" stroke-width="1"
	d="M387.20 471.40v-24.00"/>
<path class="stroke" stroke-width="1"
	d="M387.20 529.40v-24.00"/>
<path class="stroke" stroke-width="1"
	d="M473.60 471.40v-24.00"/>
<path class="stroke" stroke-width="1"
	d="M473.60 529.40v-24.00"/>
<path class="stroke" stroke-width="1"
	d="M559.90 471.40v-24.00"/>
<path class="stroke" stroke-width="1"
	d="M559.90 529.40v-24.00"/>
<path class="stroke" stroke-width="1"
	d="M675.60 471.40v-24.00"/>
<path class="stroke" stroke-width="1"
	d="M675.60 529.40v-24.00"/>
<path class="stroke" stroke-width="1"
	d="M691.60 471.40v-24.00"/>
<path class="stroke" stroke-width="1"
	d="M691.60 529.40v-24.00"/>
<path d="m10.00 471.40
	h681.60
	M10.00 465.40
	h681.60
	M10.00 459.40
	h681.60
	M10.00 453.40
	h681.60
	M10.00 447.40
	h681.60
	" class="stroke"/>
<path d="m10.00 529.40
	h681.60
	M10.00 523.40
	h681.60
	M10.00 517.40
	h681.60
	M10.00 511.40
	h681.60
	M10.00 505.40
	h681.60
	" class="stroke"/>
</g>
<g stroke-width="0.70" style="font:bold 13.00px Times">
<text x="63.70" y="442.80">I<tspan
	 style="font:italic 11.00px Times">¹</tspan></text>
</g>
<g stroke-width="0.70" style="font:bold 13.00px Times">
<text x="145.00" y="442.80">V<tspan
	 style="font:italic 11.00px Times">⁷²</tspan></text>
</g>
<g stroke-width="0.70" style="font:bold 13.00px Times">
<text x="237.40" y="441.80">I</text>
</g>
<g stroke-width="0.70" style="font:bold 13.00px Times">
<text x="331.80" y="434.80">I<tspan
	 style="font:italic 11.00px Times">¹</tspan></text>
</g>
<g stroke-width="0.70" style="font:bold 13.00px Times">
<text x="397.40" y="442.80">I<tspan
	 style="font:italic 11.00px Times">²</tspan></text>
</g>
<g stroke-width="0.70" style="font:bold 13.00px Times">
<text x="483.70" y="442.80">V</text>
</g>
<g stroke-width="0.70" style="font:bold 13.00px Times">
<text x="572.10" y="442.80">I</text>
<use x="22.00" y="465.40" xlink:href="#tclef"/>
<use x="37.00" y="459.40" xlink:href="#ft0"/>
<use x="42.50" y="450.40" xlink:href="#ft0"/>
<use x="48.00" y="462.40" xlink:href="#ft0"/>
<use x="68.50" y="459.40" xlink:href="#HD"/>
<use x="152.90" y="456.40" xlink:href="#Hd"/>
<path d="M149.40 456.40v21.00" class="stroke"/>
<use x="195.10" y="453.40" xlink:href="#Hd"/>
<path d="M191.60 453.40v21.00" class="stroke"/>
<use x="240.20" y="450.40" xlink:href="#HD"/>
<circle class="fill" cx="249.90" cy="450.40" r="1.2"/>
<use x="335.60" y="462.40" xlink:href="#Hd"/>
<path d="M339.10 462.40v-21.00" class="stroke"/>
<use x="402.20" y="465.40" xlink:href="#HD"/>
<use x="488.60" y="468.40" xlink:href="#HD"/>
<use x="574.90" y="471.40" xlink:href="#HDD"/>
<use x="22.00" y="511.40" xlink:href="#bclef"/>
<use x="37.00" y="523.40" xlink:href="#ft0"/>
<use x="42.50" y="514.40" xlink:href="#ft0"/>
<use x="48.00" y="526.40" xlink:href="#ft0"/>
<use x="67.50" y="535.40" xlink:href="#hl"/>
<use x="67.50" y="535.40" xlink:href="#Hd"/>
<path d="M71.00 535.40v-21.00" class="stroke"/>
<use x="109.80" y="535.40" xlink:href="#hl"/>
<use x="109.80" y="535.40" xlink:href="#Hd"/>
<path d="M113.30 535.40v-21.00" class="stroke"/>
<use x="152.90" y="523.40" xlink:href="#Hd"/>
<path d="M156.40 523.40v-21.00" class="stroke"/>
<use x="195.10" y="523.40" xlink:href="#Hd"/>
<path d="M198.60 523.40v-21.00" class="stroke"/>
<use x="239.20" y="535.40" xlink:href="#hl"/>
<use x="239.20" y="535.40" xlink:href="#Hd"/>
<circle class="fill" cx="247.90" cy="532.40" r="1.2"/>
<path d="M242.70 535.40v-21.00" class="stroke"/>
<use x="287.90" y="535.40" xlink:href="#hl"/>
<use x="287.90" y="535.40" xlink:href="#Hd"/>
<circle class="fill" cx="296.60" cy="532.40" r="1.2"/>
<path d="M291.40 535.40v-21.00" class="stroke"/>
<use x="335.60" y="535.40" xlink:href="#hl"/>
<defs>
<ellipse id="hd" rx="4.1" ry="2.9"
	transform="rotate(-20)" class="fill"/>
</defs>
<use x="335.60" y="535.40" xlink:href="#hd"/>
<path d="M339.10 535.40v-21.00" class="stroke"/>
<use x="365.70" y="535.40" xlink:href="#hl"/>
<use x="365.70" y="535.40" xlink:href="#hd"/>
<path d="M369.20 535.40v-21.00" class="stroke"/>
<use x="401.20" y="535.40" xlink:href="#hl"/>
<use x="401.20" y="535.40" xlink:href="#Hd"/>
<path d="M404.70 535.40v-21.00" class="stroke"/>
<use x="443.50" y="535.40" xlink:href="#hl"/>
<use x="443.50" y="535.40" xlink:href="#Hd"/>
<path d="M447.00 535.40v-21.00" class="stroke"/>
<use x="487.60" y="523.40" xlink:href="#Hd"/>
<path d="M491.10 523.40v-21.00" class="stroke"/>
<use x="529.90" y="523.40" xlink:href="#Hd"/>
<path d="M533.40 523.40v-21.00" class="stroke"/>
<defs>
<path id="hl1" class="stroke" d="m-7 0h14"/>
</defs>
<use x="574.90" y="535.40" xlink:href="#hl1"/>
<use x="574.90" y="535.40" xlink:href="#HD"/>
<use x="634.50" y="535.40" xlink:href="#hl1"/>
<use x="634.50" y="535.40" xlink:href="#HD"/>
</g>
</svg>
