<?xml version="1.0" standalone="no"?>
<!DOCTYPE svg PUBLIC "-//W3C//DTD SVG 1.1//EN"
	"http://www.w3.org/Graphics/SVG/1.1/DTD/svg11.dtd">
<svg xmlns="http://www.w3.org/2000/svg" version="1.1"
	xmlns:xlink="http://www.w3.org/1999/xlink"
	color="black"
	width="701.60px" height="422.00px" viewBox="0 0 701.60 422.00" preserveAspectRatio="xMidYMid meet">
<style type="text/css">
.fill {fill: currentColor}
.stroke {stroke: currentColor; fill: none}
text{white-space: pre}
</style>
<title>/tmp/retab_hymnal_L2/lo_how_a_rose_e_er_blooming.abc (1) tune 1</title>
<!-- Creator: abcm2ps-8.14.11 -->
<!-- CreationDate: Apr 24, 2026 15:38 -->
<!-- CommandLine: /tmp/retab_hymnal_L2/lo_how_a_rose_e_er_blooming.abc -g -O /tmp/retab_hymnal_L2/lo_how_a_rose_e_er_blooming -->
<g stroke-width="0.70">
<!-- title: 142. Lo, How A Rose E'er Blooming -->
</g>
<g stroke-width="0.70" style="font:20.00px Times">
<text x="350.80" y="22.00" text-anchor="middle">142. Lo, How A Rose E&apos;er Blooming</text>
</g>
<g stroke-width="0.70" style="font:20.00px Times">
<path class="stroke" stroke-width="1"
	d="M10.00 143.00v-82.00"/>
<defs>
<path id="brace" class="fill" d="m-2.5 101
	c-4.5 -4.6 -7.5 -12.2 -4.4 -26.8
	3.5 -14.3 3.2 -21.7 -2.1 -24.2
	7.4 2.4 7.3 14.2 3.5 29.5
	-2.7 9.5 -1.5 16.2 3 21.5
	M-2.5 1c-4.5 4.6 -7.5 12.2 -4.4 26.8
	c3.5 14.3 3.2 21.7 -2.1 24.2
	7.4 -2.4 7.3 -14.2 3.5 -29.5
	-2.7 -9.5 -1.5 -16.2 3 -21.5"/>
</defs>
<g transform="translate(10.00,61.00) scale(1,0.82)">
	<use xlink:href="#brace"/>
</g>
<path class="stroke" stroke-width="1"
	d="M161.40 85.00v-24.00"/>
<path class="stroke" stroke-width="1"
	d="M161.40 143.00v-24.00"/>
<path class="stroke" stroke-width="1"
	d="M260.80 85.00v-24.00"/>
<path class="stroke" stroke-width="1"
	d="M260.80 143.00v-24.00"/>
<path class="stroke" stroke-width="1"
	d="M343.10 85.00v-24.00"/>
<path class="stroke" stroke-width="1"
	d="M343.10 143.00v-24.00"/>
<path class="stroke" stroke-width="1"
	d="M505.00 85.00v-24.00"/>
<path class="stroke" stroke-width="1"
	d="M505.00 143.00v-24.00"/>
<path class="stroke" stroke-width="1"
	d="M604.30 85.00v-24.00"/>
<path class="stroke" stroke-width="1"
	d="M604.30 143.00v-24.00"/>
<path class="stroke" stroke-width="1"
	d="M691.60 85.00v-24.00"/>
<path class="stroke" stroke-width="1"
	d="M691.60 143.00v-24.00"/>
<path d="m10.00 85.00
	h681.60
	M10.00 79.00
	h681.60
	M10.00 73.00
	h681.60
	M10.00 67.00
	h681.60
	M10.00 61.00
	h681.60
	" class="stroke"/>
<path d="m10.00 143.00
	h681.60
	M10.00 137.00
	h681.60
	M10.00 131.00
	h681.60
	M10.00 125.00
	h681.60
	M10.00 119.00
	h681.60
	" class="stroke"/>
</g>
<g stroke-width="0.70" style="font:bold 13.00px Times">
<text x="69.70" y="56.40">I</text>
</g>
<g stroke-width="0.70" style="font:bold 13.00px Times">
<text x="170.50" y="56.40">V</text>
</g>
<g stroke-width="0.70" style="font:bold 13.00px Times">
<text x="269.50" y="48.40">vi</text>
</g>
<g stroke-width="0.70" style="font:bold 13.00px Times">
<text x="354.30" y="48.40">I</text>
</g>
<g stroke-width="0.70" style="font:bold 13.00px Times">
<text x="514.20" y="56.40">I<tspan
	 style="font:italic 11.00px Times">²</tspan></text>
</g>
<g stroke-width="0.70" style="font:bold 13.00px Times">
<text x="615.50" y="54.40">I</text>
<defs>
<path id="utclef" class="fill" d="m-50 -90
	c-72 -41 -72 -158 52 -188
	150 -10 220 188 90 256
	-114 52 -275 0 -293 -136
	-15 -181 93 -229 220 -334
	88 -87 79 -133 62 -210
	-51 33 -94 105 -89 186
	17 267 36 374 49 574
	6 96 -19 134 -77 135
	-80 1 -126 -93 -61 -133
	85 -41 133 101 31 105
	23 17 92 37 90 -92
	-10 -223 -39 -342 -50 -617
	0 -90 0 -162 96 -232
	56 72 63 230 22 289
	-74 106 -257 168 -255 316
	9 153 148 185 252 133
	86 -65 29 -192 -80 -176
	-71 12 -105 67 -59 124"/>
<use id="tclef" transform="translate(0,6) scale(0.045)"
	xlink:href="#utclef"/>
</defs>
<use x="22.00" y="79.00" xlink:href="#tclef"/>
<defs>
<path id="uflat" class="fill" d="
	m100 -746
	h32
	v734
	l-32 4
	m32 -332
	c46 -72 152 -90 208 -20
	100 110 -120 326 -208 348
	m0 -28
	c54 0 200 -206 130 -290
	-50 -60 -130 -4 -130 34"/>
<use id="ft0" transform="translate(-3.5,3.5) scale(0.018)"
	xlink:href="#uflat"/>
</defs>
<use x="37.00" y="73.00" xlink:href="#ft0"/>
<g style="font:bold 16px serif"
	transform="translate(53.00,84.50) scale(1.2,1)">
	<text text-anchor="middle">4</text>
	<text y="-12" text-anchor="middle">4</text>
</g>
<defs>
<path id="Hd" class="fill" d="m3 -1.6
	c-1 -1.8 -7 1.4 -6 3.2
	1 1.8 7 -1.4 6 -3.2
	m0.5 -0.3
	c2 3.8 -5 7.6 -7 3.8
	-2 -3.8 5 -7.6 7 -3.8"/>
</defs>
<use x="71.50" y="70.00" xlink:href="#Hd"/>
<path d="M68.00 70.00v21.00" class="stroke"/>
<defs>
<ellipse id="hd" rx="4.1" ry="2.9"
	transform="rotate(-20)" class="fill"/>
</defs>
<use x="112.00" y="70.00" xlink:href="#hd"/>
<path d="M108.50 70.00v21.00" class="stroke"/>
<use x="140.80" y="70.00" xlink:href="#hd"/>
<path d="M137.30 70.00v21.00" class="stroke"/>
<use x="174.40" y="67.00" xlink:href="#hd"/>
<path d="M170.90 67.00v21.00" class="stroke"/>
<use x="203.20" y="70.00" xlink:href="#hd"/>
<path d="M199.70 70.00v21.00" class="stroke"/>
<use x="232.00" y="70.00" xlink:href="#Hd"/>
<path d="M228.50 70.00v21.00" class="stroke"/>
<use x="273.80" y="76.00" xlink:href="#Hd"/>
<path d="M277.30 76.00v-21.00" class="stroke"/>
<use x="314.30" y="73.00" xlink:href="#Hd"/>
<path d="M317.80 73.00v-21.00" class="stroke"/>
<use x="356.10" y="76.00" xlink:href="#hd"/>
<path d="M359.60 76.00v-21.00" class="stroke"/>
<use x="384.90" y="79.00" xlink:href="#Hd"/>
<path d="M388.40 79.00v-21.00" class="stroke"/>
<use x="454.50" y="82.00" xlink:href="#Hd"/>
<path d="M458.00 82.00v-21.00" class="stroke"/>
<use x="518.00" y="85.00" xlink:href="#hd"/>
<path d="M521.50 85.00v-21.00" class="stroke"/>
<use x="546.80" y="82.00" xlink:href="#Hd"/>
<circle class="fill" cx="555.50" cy="82.00" r="1.2"/>
<path d="M550.30 82.00v-21.00" class="stroke"/>
<use x="617.30" y="70.00" xlink:href="#Hd"/>
<path d="M613.80 70.00v21.00" class="stroke"/>
<use x="670.40" y="70.00" xlink:href="#hd"/>
<path d="M666.90 70.00v21.00" class="stroke"/>
<defs>
<path id="ubclef" class="fill" d="m-200 -87
	c124 -35 222 -78 254 -236
	43 -228 -167 -246 -192 -103
	59 -80 157 22 92 78
	-62 47 -115 -22 -106 -88
	21 -141 270 -136 274 52
	-1 175 -106 264 -322 297
	m357 -250
	c0 -36 51 -34 51 0
	0 37 -51 36 -51 0
	m-2 -129
	c0 -36 51 -34 51 0
	0 38 -51 37 -51 0"/>
<use id="bclef" transform="translate(0,18) scale(0.045)"
	xlink:href="#ubclef"/>
</defs>
<use x="22.00" y="125.00" xlink:href="#bclef"/>
<use x="37.00" y="137.00" xlink:href="#ft0"/>
<g style="font:bold 16px serif"
	transform="translate(53.00,142.50) scale(1.2,1)">
	<text text-anchor="middle">4</text>
	<text y="-12" text-anchor="middle">4</text>
</g>
<use x="71.50" y="146.00" xlink:href="#Hd"/>
<path d="M75.00 146.00v-21.00" class="stroke"/>
<use x="112.00" y="146.00" xlink:href="#Hd"/>
<path d="M115.50 146.00v-21.00" class="stroke"/>
<use x="174.40" y="134.00" xlink:href="#Hd"/>
<path d="M177.90 134.00v-21.00" class="stroke"/>
<use x="232.00" y="134.00" xlink:href="#Hd"/>
<path d="M235.50 134.00v-21.00" class="stroke"/>
<use x="273.80" y="131.00" xlink:href="#Hd"/>
<path d="M277.30 131.00v-21.00" class="stroke"/>
<use x="314.30" y="131.00" xlink:href="#Hd"/>
<path d="M317.80 131.00v-21.00" class="stroke"/>
<use x="356.10" y="146.00" xlink:href="#Hd"/>
<path d="M359.60 146.00v-21.00" class="stroke"/>
<use x="413.70" y="146.00" xlink:href="#hd"/>
<path d="M417.20 146.00v-21.00" class="stroke"/>
<path class="fill"
	d="M417.20 125.00c0.6 5.6 9.6 9 5.6 18.4
	1.6 -6 -1.3 -11.6 -5.6 -12.8
"/>
<use x="434.70" y="146.00" xlink:href="#Hd"/>
<path d="M438.20 146.00v-21.00" class="stroke"/>
<use x="488.00" y="146.00" xlink:href="#hd"/>
<path d="M491.50 146.00v-21.00" class="stroke"/>
<path class="fill"
	d="M491.50 125.00c0.6 5.6 9.6 9 5.6 18.4
	1.6 -6 -1.3 -11.6 -5.6 -12.8
"/>
<use x="518.00" y="146.00" xlink:href="#Hd"/>
<path d="M521.50 146.00v-21.00" class="stroke"/>
<use x="574.90" y="146.00" xlink:href="#Hd"/>
<path d="M578.40 146.00v-21.00" class="stroke"/>
<use x="617.30" y="146.00" xlink:href="#hd"/>
<circle class="fill" cx="625.00" cy="146.00" r="1.2"/>
<path d="M620.80 146.00v-21.00" class="stroke"/>
<use x="650.50" y="146.00" xlink:href="#hd"/>
<circle class="fill" cx="658.20" cy="146.00" r="1.2"/>
<path d="M654.00 146.00v-21.00" class="stroke"/>
<path class="fill"
	d="M359.60 146.00c7.73 5.41 42.89 5.41 50.62 -0.00
	v0.25c-9.25 7.16 -41.37 7.16 -50.62 -0.25"/>
<path class="fill"
	d="M438.20 146.00c7.16 5.33 39.13 5.33 46.29 -0.00
	v0.25c-8.55 7.09 -37.75 7.09 -46.29 -0.25"/>
</g>
<g stroke-width="0.70" style="font:bold 13.00px Times">
<path class="stroke" stroke-width="1"
	d="M10.00 271.00v-82.00"/>
<g transform="translate(10.00,189.00) scale(1,0.82)">
	<use xlink:href="#brace"/>
</g>
<path class="stroke" stroke-width="1"
	d="M204.10 213.00v-24.00"/>
<path class="stroke" stroke-width="1"
	d="M204.10 271.00v-24.00"/>
<path class="stroke" stroke-width="1"
	d="M288.10 213.00v-24.00"/>
<path class="stroke" stroke-width="1"
	d="M288.10 271.00v-24.00"/>
<path class="stroke" stroke-width="1"
	d="M375.30 213.00v-24.00"/>
<path class="stroke" stroke-width="1"
	d="M375.30 271.00v-24.00"/>
<path class="stroke" stroke-width="1"
	d="M493.20 213.00v-24.00"/>
<path class="stroke" stroke-width="1"
	d="M493.20 271.00v-24.00"/>
<path class="stroke" stroke-width="1"
	d="M556.20 213.00v-24.00"/>
<path class="stroke" stroke-width="1"
	d="M556.20 271.00v-24.00"/>
<path class="stroke" stroke-width="1"
	d="M691.60 213.00v-24.00"/>
<path class="stroke" stroke-width="1"
	d="M691.60 271.00v-24.00"/>
<path d="m10.00 213.00
	h681.60
	M10.00 207.00
	h681.60
	M10.00 201.00
	h681.60
	M10.00 195.00
	h681.60
	M10.00 189.00
	h681.60
	" class="stroke"/>
<path d="m10.00 271.00
	h681.60
	M10.00 265.00
	h681.60
	M10.00 259.00
	h681.60
	M10.00 253.00
	h681.60
	M10.00 247.00
	h681.60
	" class="stroke"/>
</g>
<g stroke-width="0.70" style="font:bold 13.00px Times">
<text x="53.70" y="184.40">I</text>
</g>
<g stroke-width="0.70" style="font:bold 13.00px Times">
<text x="213.20" y="176.40">V</text>
</g>
<g stroke-width="0.70" style="font:bold 13.00px Times">
<text x="294.90" y="176.40">IV</text>
</g>
<g stroke-width="0.70" style="font:bold 13.00px Times">
<text x="384.10" y="182.40">vi</text>
</g>
<g stroke-width="0.70" style="font:bold 13.00px Times">
<text x="503.90" y="176.40">I</text>
</g>
<g stroke-width="0.70" style="font:bold 13.00px Times">
<text x="564.70" y="182.40">iii</text>
<use x="22.00" y="207.00" xlink:href="#tclef"/>
<use x="37.00" y="201.00" xlink:href="#ft0"/>
<use x="55.50" y="198.00" xlink:href="#hd"/>
<path d="M52.00 198.00v21.00" class="stroke"/>
<use x="85.00" y="195.00" xlink:href="#hd"/>
<path d="M81.50 195.00v21.00" class="stroke"/>
<use x="114.50" y="198.00" xlink:href="#hd"/>
<path d="M111.00 198.00v21.00" class="stroke"/>
<use x="156.30" y="198.00" xlink:href="#Hd"/>
<path d="M152.80 198.00v21.00" class="stroke"/>
<use x="217.10" y="204.00" xlink:href="#Hd"/>
<path d="M220.60 204.00v-21.00" class="stroke"/>
<use x="258.70" y="201.00" xlink:href="#Hd"/>
<path d="M262.20 201.00v-21.00" class="stroke"/>
<use x="300.60" y="204.00" xlink:href="#hd"/>
<path d="M304.10 204.00v-21.00" class="stroke"/>
<use x="330.10" y="207.00" xlink:href="#Hd"/>
<path d="M333.60 207.00v-21.00" class="stroke"/>
<use x="388.30" y="210.00" xlink:href="#Hd"/>
<path d="M391.80 210.00v-21.00" class="stroke"/>
<use x="429.80" y="213.00" xlink:href="#hd"/>
<path d="M433.30 213.00v-21.00" class="stroke"/>
<use x="459.30" y="210.00" xlink:href="#Hd"/>
<circle class="fill" cx="468.00" cy="210.00" r="1.2"/>
<path d="M462.80 210.00v-21.00" class="stroke"/>
<use x="505.70" y="204.00" xlink:href="#hd"/>
<path d="M509.20 204.00v-21.00" class="stroke"/>
<use x="535.20" y="207.00" xlink:href="#hd"/>
<path d="M538.70 207.00v-21.00" class="stroke"/>
<use x="569.20" y="213.00" xlink:href="#hd"/>
<path d="M572.70 213.00v-21.00" class="stroke"/>
<use x="598.70" y="210.00" xlink:href="#hd"/>
<path d="M602.20 210.00v-21.00" class="stroke"/>
<use x="628.20" y="216.00" xlink:href="#hd"/>
<path d="M631.70 216.00v-21.00" class="stroke"/>
<defs>
<path id="hl" class="stroke" d="m-6 0h12"/>
</defs>
<use x="657.70" y="219.00" xlink:href="#hl"/>
<use x="657.70" y="219.00" xlink:href="#Hd"/>
<circle class="fill" cx="666.40" cy="216.00" r="1.2"/>
<path d="M661.20 219.00v-21.00" class="stroke"/>
<use x="22.00" y="253.00" xlink:href="#bclef"/>
<use x="37.00" y="265.00" xlink:href="#ft0"/>
<use x="55.50" y="274.00" xlink:href="#Hd"/>
<path d="M59.00 274.00v-21.00" class="stroke"/>
<use x="114.50" y="274.00" xlink:href="#hd"/>
<path d="M118.00 274.00v-21.00" class="stroke"/>
<path class="fill"
	d="M118.00 253.00c0.6 5.6 9.6 9 5.6 18.4
	1.6 -6 -1.3 -11.6 -5.6 -12.8
"/>
<use x="135.90" y="274.00" xlink:href="#Hd"/>
<path d="M139.40 274.00v-21.00" class="stroke"/>
<use x="187.10" y="274.00" xlink:href="#hd"/>
<path d="M190.60 274.00v-21.00" class="stroke"/>
<path class="fill"
	d="M190.60 253.00c0.6 5.6 9.6 9 5.6 18.4
	1.6 -6 -1.3 -11.6 -5.6 -12.8
"/>
<use x="217.10" y="262.00" xlink:href="#Hd"/>
<path d="M220.60 262.00v-21.00" class="stroke"/>
<use x="258.70" y="262.00" xlink:href="#Hd"/>
<path d="M262.20 262.00v-21.00" class="stroke"/>
<use x="300.60" y="265.00" xlink:href="#hd"/>
<circle class="fill" cx="308.30" cy="262.00" r="1.2"/>
<path d="M304.10 265.00v-21.00" class="stroke"/>
<use x="351.00" y="265.00" xlink:href="#hd"/>
<circle class="fill" cx="358.70" cy="262.00" r="1.2"/>
<path d="M354.50 265.00v-21.00" class="stroke"/>
<use x="388.30" y="259.00" xlink:href="#Hd"/>
<circle class="fill" cx="397.00" cy="256.00" r="1.2"/>
<path d="M391.80 259.00v-21.00" class="stroke"/>
<use x="459.30" y="259.00" xlink:href="#Hd"/>
<circle class="fill" cx="468.00" cy="256.00" r="1.2"/>
<path d="M462.80 259.00v-21.00" class="stroke"/>
<use x="505.70" y="274.00" xlink:href="#hd"/>
<path d="M509.20 274.00v-21.00" class="stroke"/>
<use x="535.20" y="274.00" xlink:href="#hd"/>
<path d="M538.70 274.00v-21.00" class="stroke"/>
<use x="569.20" y="268.00" xlink:href="#Hd"/>
<circle class="fill" cx="577.90" cy="268.00" r="1.2"/>
<path d="M572.70 268.00v-21.00" class="stroke"/>
<use x="657.70" y="268.00" xlink:href="#Hd"/>
<circle class="fill" cx="666.40" cy="268.00" r="1.2"/>
<path d="M661.20 268.00v-21.00" class="stroke"/>
<path class="fill"
	d="M59.00 274.00c7.91 5.44 44.11 5.44 52.03 -0.00
	v0.25c-9.47 7.18 -42.55 7.18 -52.03 -0.25"/>
<path class="fill"
	d="M139.40 274.00c6.89 5.30 37.38 5.30 44.27 -0.00
	v0.24c-8.22 7.05 -36.06 7.05 -44.27 -0.24"/>
</g>
<g stroke-width="0.70" style="font:bold 13.00px Times">
<path class="stroke" stroke-width="1"
	d="M10.00 399.00v-82.00"/>
<g transform="translate(10.00,317.00) scale(1,0.82)">
	<use xlink:href="#brace"/>
</g>
<path class="stroke" stroke-width="1"
	d="M118.90 341.00v-24.00"/>
<path class="stroke" stroke-width="1"
	d="M118.90 399.00v-24.00"/>
<path class="stroke" stroke-width="1"
	d="M317.80 341.00v-24.00"/>
<path class="stroke" stroke-width="1"
	d="M317.80 399.00v-24.00"/>
<path class="stroke" stroke-width="1"
	d="M421.60 341.00v-24.00"/>
<path class="stroke" stroke-width="1"
	d="M421.60 399.00v-24.00"/>
<path class="stroke" stroke-width="1"
	d="M529.10 341.00v-24.00"/>
<path class="stroke" stroke-width="1"
	d="M529.10 399.00v-24.00"/>
<path class="stroke" stroke-width="1"
	d="M675.60 341.00v-24.00"/>
<path class="stroke" stroke-width="1"
	d="M675.60 399.00v-24.00"/>
<path class="stroke" stroke-width="1"
	d="M691.60 341.00v-24.00"/>
<path class="stroke" stroke-width="1"
	d="M691.60 399.00v-24.00"/>
<path d="m10.00 341.00
	h681.60
	M10.00 335.00
	h681.60
	M10.00 329.00
	h681.60
	M10.00 323.00
	h681.60
	M10.00 317.00
	h681.60
	" class="stroke"/>
<path d="m10.00 399.00
	h681.60
	M10.00 393.00
	h681.60
	M10.00 387.00
	h681.60
	M10.00 381.00
	h681.60
	M10.00 375.00
	h681.60
	" class="stroke"/>
</g>
<g stroke-width="0.70" style="font:bold 13.00px Times">
<text x="51.10" y="312.40">V</text>
</g>
<g stroke-width="0.70" style="font:bold 13.00px Times">
<text x="130.50" y="312.40">I</text>
</g>
<g stroke-width="0.70" style="font:bold 13.00px Times">
<text x="327.30" y="304.40">V</text>
</g>
<g stroke-width="0.70" style="font:bold 13.00px Times">
<text x="431.90" y="304.40">ii</text>
</g>
<g stroke-width="0.70" style="font:bold 13.00px Times">
<text x="538.70" y="310.40">I<tspan
	 style="font:italic 11.00px Times">²</tspan></text>
</g>
<g stroke-width="0.70" style="font:italic 11.00px Times">
<use x="22.00" y="335.00" xlink:href="#tclef"/>
<use x="37.00" y="329.00" xlink:href="#ft0"/>
<use x="55.00" y="326.00" xlink:href="#hd"/>
<path d="M51.50 326.00v21.00" class="stroke"/>
<use x="92.60" y="326.00" xlink:href="#hd"/>
<path d="M89.10 326.00v21.00" class="stroke"/>
<use x="132.30" y="326.00" xlink:href="#hd"/>
<path d="M128.80 326.00v21.00" class="stroke"/>
<use x="169.80" y="323.00" xlink:href="#hd"/>
<path d="M166.30 323.00v21.00" class="stroke"/>
<use x="207.40" y="326.00" xlink:href="#hd"/>
<path d="M203.90 326.00v21.00" class="stroke"/>
<use x="260.60" y="326.00" xlink:href="#Hd"/>
<path d="M257.10 326.00v21.00" class="stroke"/>
<use x="331.20" y="332.00" xlink:href="#Hd"/>
<path d="M334.70 332.00v-21.00" class="stroke"/>
<use x="384.30" y="329.00" xlink:href="#Hd"/>
<path d="M387.80 329.00v-21.00" class="stroke"/>
<use x="434.90" y="332.00" xlink:href="#hd"/>
<path d="M438.40 332.00v-21.00" class="stroke"/>
<use x="472.50" y="335.00" xlink:href="#Hd"/>
<path d="M476.00 335.00v-21.00" class="stroke"/>
<use x="542.50" y="338.00" xlink:href="#Hd"/>
<path d="M546.00 338.00v-21.00" class="stroke"/>
<use x="595.60" y="341.00" xlink:href="#hd"/>
<path d="M599.10 341.00v-21.00" class="stroke"/>
<use x="633.20" y="338.00" xlink:href="#Hd"/>
<circle class="fill" cx="641.90" cy="338.00" r="1.2"/>
<path d="M636.70 338.00v-21.00" class="stroke"/>
<use x="22.00" y="381.00" xlink:href="#bclef"/>
<use x="37.00" y="393.00" xlink:href="#ft0"/>
<use x="55.00" y="390.00" xlink:href="#hd"/>
<path d="M58.50 390.00v-21.00" class="stroke"/>
<use x="92.60" y="390.00" xlink:href="#hd"/>
<path d="M96.10 390.00v-21.00" class="stroke"/>
<use x="132.30" y="402.00" xlink:href="#Hd"/>
<path d="M135.80 402.00v-21.00" class="stroke"/>
<use x="207.40" y="402.00" xlink:href="#hd"/>
<path d="M210.90 402.00v-21.00" class="stroke"/>
<path class="fill"
	d="M210.90 381.00c0.6 5.6 9.6 9 5.6 18.4
	1.6 -6 -1.3 -11.6 -5.6 -12.8
"/>
<use x="234.00" y="402.00" xlink:href="#Hd"/>
<path d="M237.50 402.00v-21.00" class="stroke"/>
<use x="299.10" y="402.00" xlink:href="#hd"/>
<path d="M302.60 402.00v-21.00" class="stroke"/>
<path class="fill"
	d="M302.60 381.00c0.6 5.6 9.6 9 5.6 18.4
	1.6 -6 -1.3 -11.6 -5.6 -12.8
"/>
<use x="331.20" y="390.00" xlink:href="#Hd"/>
<path d="M334.70 390.00v-21.00" class="stroke"/>
<use x="384.30" y="390.00" xlink:href="#Hd"/>
<path d="M387.80 390.00v-21.00" class="stroke"/>
<use x="434.90" y="399.00" xlink:href="#hd"/>
<circle class="fill" cx="442.60" cy="396.00" r="1.2"/>
<path d="M438.40 399.00v-21.00" class="stroke"/>
<use x="499.10" y="399.00" xlink:href="#hd"/>
<circle class="fill" cx="506.80" cy="396.00" r="1.2"/>
<path d="M502.60 399.00v-21.00" class="stroke"/>
<use x="542.50" y="402.00" xlink:href="#Hd"/>
<circle class="fill" cx="551.20" cy="402.00" r="1.2"/>
<path d="M546.00 402.00v-21.00" class="stroke"/>
<use x="633.20" y="402.00" xlink:href="#Hd"/>
<circle class="fill" cx="641.90" cy="402.00" r="1.2"/>
<path d="M636.70 402.00v-21.00" class="stroke"/>
<path class="fill"
	d="M135.80 402.00c9.87 5.73 58.26 5.73 68.13 -0.00
	v0.27c-11.91 7.46 -56.22 7.46 -68.13 -0.27"/>
<path class="fill"
	d="M237.50 402.00c8.68 5.55 49.41 5.55 58.08 -0.00
	v0.26c-10.42 7.29 -47.66 7.29 -58.08 -0.26"/>
</g>
</svg>
