<?xml version="1.0" standalone="no"?>
<!DOCTYPE svg PUBLIC "-//W3C//DTD SVG 1.1//EN"
	"http://www.w3.org/Graphics/SVG/1.1/DTD/svg11.dtd">
<svg xmlns="http://www.w3.org/2000/svg" version="1.1"
	xmlns:xlink="http://www.w3.org/1999/xlink"
	color="black"
	width="701.60px" height="557.20px" viewBox="0 0 701.60 557.20" preserveAspectRatio="xMidYMid meet">
<style type="text/css">
.fill {fill: currentColor}
.stroke {stroke: currentColor; fill: none}
text{white-space: pre}
</style>
<title>/tmp/retab_hymnal_L2/o_come_all_ye_faithful.abc (1) tune 1</title>
<!-- Creator: abcm2ps-8.14.11 -->
<!-- CreationDate: Apr 24, 2026 15:38 -->
<!-- CommandLine: /tmp/retab_hymnal_L2/o_come_all_ye_faithful.abc -g -O /tmp/retab_hymnal_L2/o_come_all_ye_faithful -->
<g stroke-width="0.70">
<!-- title: 173. O Come, All Ye Faithful -->
</g>
<g stroke-width="0.70" style="font:20.00px Times">
<text x="350.80" y="22.00" text-anchor="middle">173. O Come, All Ye Faithful</text>
</g>
<g stroke-width="0.70" style="font:20.00px Times">
<path class="stroke" stroke-width="1"
	d="M10.00 145.40v-82.00"/>
<defs>
<path id="brace" class="fill" d="m-2.5 101
	c-4.5 -4.6 -7.5 -12.2 -4.4 -26.8
	3.5 -14.3 3.2 -21.7 -2.1 -24.2
	7.4 2.4 7.3 14.2 3.5 29.5
	-2.7 9.5 -1.5 16.2 3 21.5
	M-2.5 1c-4.5 4.6 -7.5 12.2 -4.4 26.8
	c3.5 14.3 3.2 21.7 -2.1 24.2
	7.4 -2.4 7.3 -14.2 3.5 -29.5
	-2.7 -9.5 -1.5 -16.2 3 -21.5"/>
</defs>
<g transform="translate(10.00,63.40) scale(1,0.82)">
	<use xlink:href="#brace"/>
</g>
<path class="stroke" stroke-width="1"
	d="M160.30 87.40v-24.00"/>
<path class="stroke" stroke-width="1"
	d="M160.30 145.40v-24.00"/>
<path class="stroke" stroke-width="1"
	d="M301.20 87.40v-24.00"/>
<path class="stroke" stroke-width="1"
	d="M301.20 145.40v-24.00"/>
<path class="stroke" stroke-width="1"
	d="M389.80 87.40v-24.00"/>
<path class="stroke" stroke-width="1"
	d="M389.80 145.40v-24.00"/>
<path class="stroke" stroke-width="1"
	d="M489.30 87.40v-24.00"/>
<path class="stroke" stroke-width="1"
	d="M489.30 145.40v-24.00"/>
<path class="stroke" stroke-width="1"
	d="M588.80 87.40v-24.00"/>
<path class="stroke" stroke-width="1"
	d="M588.80 145.40v-24.00"/>
<path class="stroke" stroke-width="1"
	d="M691.60 87.40v-24.00"/>
<path class="stroke" stroke-width="1"
	d="M691.60 145.40v-24.00"/>
<path d="m10.00 87.40
	h681.60
	M10.00 81.40
	h681.60
	M10.00 75.40
	h681.60
	M10.00 69.40
	h681.60
	M10.00 63.40
	h681.60
	" class="stroke"/>
<path d="m10.00 145.40
	h681.60
	M10.00 139.40
	h681.60
	M10.00 133.40
	h681.60
	M10.00 127.40
	h681.60
	M10.00 121.40
	h681.60
	" class="stroke"/>
</g>
<g stroke-width="0.70" style="font:bold 13.00px Times">
<text x="69.70" y="53.80">I</text>
</g>
<g stroke-width="0.70" style="font:bold 13.00px Times">
<text x="167.40" y="53.80">V<tspan
	 style="font:italic 11.00px Times">¹</tspan></text>
</g>
<g stroke-width="0.70" style="font:bold 13.00px Times">
<text x="311.90" y="47.80">I</text>
</g>
<g stroke-width="0.70" style="font:bold 13.00px Times">
<text x="397.10" y="58.80">IV</text>
</g>
<g stroke-width="0.70" style="font:bold 13.00px Times">
<text x="498.10" y="53.80">vi</text>
</g>
<g stroke-width="0.70" style="font:bold 13.00px Times">
<text x="598.80" y="56.80">ii</text>
<defs>
<path id="utclef" class="fill" d="m-50 -90
	c-72 -41 -72 -158 52 -188
	150 -10 220 188 90 256
	-114 52 -275 0 -293 -136
	-15 -181 93 -229 220 -334
	88 -87 79 -133 62 -210
	-51 33 -94 105 -89 186
	17 267 36 374 49 574
	6 96 -19 134 -77 135
	-80 1 -126 -93 -61 -133
	85 -41 133 101 31 105
	23 17 92 37 90 -92
	-10 -223 -39 -342 -50 -617
	0 -90 0 -162 96 -232
	56 72 63 230 22 289
	-74 106 -257 168 -255 316
	9 153 148 185 252 133
	86 -65 29 -192 -80 -176
	-71 12 -105 67 -59 124"/>
<use id="tclef" transform="translate(0,6) scale(0.045)"
	xlink:href="#utclef"/>
</defs>
<use x="22.00" y="81.40" xlink:href="#tclef"/>
<defs>
<path id="usharp" class="fill" d="
	m136 -702
	v890
	h32
	v-890
	m128 840
	h32
	v-888
	h-32
	m-232 286
	v116
	l338 -96
	v-116
	m-338 442
	v116
	l338 -98
	v-114"/>
<use id="sh0" transform="translate(-4,5) scale(0.018)"
	xlink:href="#usharp"/>
</defs>
<use x="37.00" y="63.40" xlink:href="#sh0"/>
<g style="font:bold 16px serif"
	transform="translate(53.00,86.90) scale(1.2,1)">
	<text text-anchor="middle">4</text>
	<text y="-12" text-anchor="middle">4</text>
</g>
<defs>
<ellipse id="hd" rx="4.1" ry="2.9"
	transform="rotate(-20)" class="fill"/>
</defs>
<use x="71.50" y="81.40" xlink:href="#hd"/>
<path d="M75.00 81.40v-21.00" class="stroke"/>
<defs>
<path id="Hd" class="fill" d="m3 -1.6
	c-1 -1.8 -7 1.4 -6 3.2
	1 1.8 7 -1.4 6 -3.2
	m0.5 -0.3
	c2 3.8 -5 7.6 -7 3.8
	-2 -3.8 5 -7.6 7 -3.8"/>
</defs>
<use x="95.60" y="81.40" xlink:href="#Hd"/>
<path d="M99.10 81.40v-21.00" class="stroke"/>
<use x="142.70" y="90.40" xlink:href="#hd"/>
<path d="M146.20 90.40v-21.00" class="stroke"/>
<use x="173.30" y="81.40" xlink:href="#hd"/>
<path d="M176.80 81.40v-21.00" class="stroke"/>
<use x="197.40" y="78.40" xlink:href="#Hd"/>
<path d="M200.90 78.40v-21.00" class="stroke"/>
<use x="255.70" y="90.40" xlink:href="#Hd"/>
<path d="M259.20 90.40v-21.00" class="stroke"/>
<use x="313.70" y="75.40" xlink:href="#hd"/>
<path d="M317.20 75.40v-21.00" class="stroke"/>
<use x="337.70" y="78.40" xlink:href="#hd"/>
<path d="M341.20 78.40v-21.00" class="stroke"/>
<use x="371.30" y="75.40" xlink:href="#hd"/>
<path d="M374.80 75.40v-21.00" class="stroke"/>
<use x="402.80" y="72.40" xlink:href="#hd"/>
<path d="M399.30 72.40v21.00" class="stroke"/>
<use x="426.90" y="75.40" xlink:href="#Hd"/>
<path d="M423.40 75.40v21.00" class="stroke"/>
<use x="471.70" y="78.40" xlink:href="#hd"/>
<path d="M475.20 78.40v-21.00" class="stroke"/>
<use x="502.30" y="81.40" xlink:href="#hd"/>
<path d="M505.80 81.40v-21.00" class="stroke"/>
<use x="526.40" y="81.40" xlink:href="#Hd"/>
<path d="M529.90 81.40v-21.00" class="stroke"/>
<use x="571.20" y="84.40" xlink:href="#hd"/>
<path d="M574.70 84.40v-21.00" class="stroke"/>
<use x="601.80" y="87.40" xlink:href="#hd"/>
<path d="M605.30 87.40v-21.00" class="stroke"/>
<use x="625.90" y="84.40" xlink:href="#hd"/>
<path d="M629.40 84.40v-21.00" class="stroke"/>
<use x="649.90" y="81.40" xlink:href="#hd"/>
<path d="M653.40 81.40v-21.00" class="stroke"/>
<use x="674.00" y="78.40" xlink:href="#hd"/>
<path d="M677.50 78.40v-21.00" class="stroke"/>
<defs>
<path id="ubclef" class="fill" d="m-200 -87
	c124 -35 222 -78 254 -236
	43 -228 -167 -246 -192 -103
	59 -80 157 22 92 78
	-62 47 -115 -22 -106 -88
	21 -141 270 -136 274 52
	-1 175 -106 264 -322 297
	m357 -250
	c0 -36 51 -34 51 0
	0 37 -51 36 -51 0
	m-2 -129
	c0 -36 51 -34 51 0
	0 38 -51 37 -51 0"/>
<use id="bclef" transform="translate(0,18) scale(0.045)"
	xlink:href="#ubclef"/>
</defs>
<use x="22.00" y="127.40" xlink:href="#bclef"/>
<use x="37.00" y="127.40" xlink:href="#sh0"/>
<g style="font:bold 16px serif"
	transform="translate(53.00,144.90) scale(1.2,1)">
	<text text-anchor="middle">4</text>
	<text y="-12" text-anchor="middle">4</text>
</g>
<use x="71.50" y="145.40" xlink:href="#Hd"/>
<path d="M75.00 145.40v-21.00" class="stroke"/>
<use x="118.60" y="145.40" xlink:href="#Hd"/>
<path d="M122.10 145.40v-21.00" class="stroke"/>
<use x="173.30" y="133.40" xlink:href="#Hd"/>
<path d="M176.80 133.40v-21.00" class="stroke"/>
<use x="221.50" y="133.40" xlink:href="#hd"/>
<path d="M225.00 133.40v-21.00" class="stroke"/>
<path class="fill"
	d="M225.00 112.40c0.6 5.6 9.6 9 5.6 18.4
	1.6 -6 -1.3 -11.6 -5.6 -12.8
"/>
<use x="239.50" y="133.40" xlink:href="#Hd"/>
<path d="M243.00 133.40v-21.00" class="stroke"/>
<use x="284.20" y="133.40" xlink:href="#hd"/>
<path d="M287.70 133.40v-21.00" class="stroke"/>
<path class="fill"
	d="M287.70 112.40c0.6 5.6 9.6 9 5.6 18.4
	1.6 -6 -1.3 -11.6 -5.6 -12.8
"/>
<use x="313.70" y="145.40" xlink:href="#hd"/>
<circle class="fill" cx="321.40" cy="142.40" r="1.2"/>
<path d="M317.20 145.40v-21.00" class="stroke"/>
<use x="354.90" y="145.40" xlink:href="#hd"/>
<circle class="fill" cx="362.60" cy="142.40" r="1.2"/>
<path d="M358.40 145.40v-21.00" class="stroke"/>
<use x="402.80" y="136.40" xlink:href="#Hd"/>
<path d="M406.30 136.40v-21.00" class="stroke"/>
<use x="447.70" y="136.40" xlink:href="#Hd"/>
<path d="M451.20 136.40v-21.00" class="stroke"/>
<use x="502.30" y="130.40" xlink:href="#Hd"/>
<path d="M498.80 130.40v21.00" class="stroke"/>
<use x="549.50" y="130.40" xlink:href="#Hd"/>
<path d="M546.00 130.40v21.00" class="stroke"/>
<use x="601.80" y="142.40" xlink:href="#Hd"/>
<path d="M605.30 142.40v-21.00" class="stroke"/>
<use x="649.90" y="142.40" xlink:href="#Hd"/>
<path d="M653.40 142.40v-21.00" class="stroke"/>
<path class="fill"
	d="M176.80 133.40c6.47 5.24 34.77 5.24 41.24 -0.00
	v0.24c-7.71 7.00 -33.53 7.00 -41.24 -0.24"/>
<path class="fill"
	d="M243.00 133.40c5.94 5.18 31.76 5.18 37.70 -0.00
	v0.24c-7.07 6.94 -30.63 6.94 -37.70 -0.24"/>
</g>
<g stroke-width="0.70" style="font:bold 13.00px Times">
<path class="stroke" stroke-width="1"
	d="M10.00 275.80v-82.00"/>
<g transform="translate(10.00,193.80) scale(1,0.82)">
	<use xlink:href="#brace"/>
</g>
<path class="stroke" stroke-width="1"
	d="M179.10 217.80v-24.00"/>
<path class="stroke" stroke-width="1"
	d="M179.10 275.80v-24.00"/>
<path class="stroke" stroke-width="1"
	d="M258.20 217.80v-24.00"/>
<path class="stroke" stroke-width="1"
	d="M258.20 275.80v-24.00"/>
<path class="stroke" stroke-width="1"
	d="M356.40 217.80v-24.00"/>
<path class="stroke" stroke-width="1"
	d="M356.40 275.80v-24.00"/>
<path class="stroke" stroke-width="1"
	d="M491.20 217.80v-24.00"/>
<path class="stroke" stroke-width="1"
	d="M491.20 275.80v-24.00"/>
<path class="stroke" stroke-width="1"
	d="M578.90 217.80v-24.00"/>
<path class="stroke" stroke-width="1"
	d="M578.90 275.80v-24.00"/>
<path class="stroke" stroke-width="1"
	d="M691.60 217.80v-24.00"/>
<path class="stroke" stroke-width="1"
	d="M691.60 275.80v-24.00"/>
<path d="m10.00 217.80
	h681.60
	M10.00 211.80
	h681.60
	M10.00 205.80
	h681.60
	M10.00 199.80
	h681.60
	M10.00 193.80
	h681.60
	" class="stroke"/>
<path d="m10.00 275.80
	h681.60
	M10.00 269.80
	h681.60
	M10.00 263.80
	h681.60
	M10.00 257.80
	h681.60
	M10.00 251.80
	h681.60
	" class="stroke"/>
</g>
<g stroke-width="0.70" style="font:bold 13.00px Times">
<text x="49.60" y="178.20">V<tspan
	 style="font:italic 11.00px Times">²</tspan></text>
</g>
<g stroke-width="0.70" style="font:bold 13.00px Times">
<text x="187.70" y="187.20">V</text>
</g>
<g stroke-width="0.70" style="font:bold 13.00px Times">
<text x="266.60" y="187.20">iii</text>
</g>
<g stroke-width="0.70" style="font:bold 13.00px Times">
<text x="365.60" y="189.20">I<tspan
	 style="font:italic 11.00px Times">⁷</tspan></text>
</g>
<g stroke-width="0.70" style="font:bold 13.00px Times">
<text x="497.20" y="181.20">iii<tspan
	 style="font:italic 11.00px Times">²</tspan></text>
</g>
<g stroke-width="0.70" style="font:bold 13.00px Times">
<text x="586.00" y="181.20">V<tspan
	 style="font:italic 11.00px Times">⁷</tspan></text>
</g>
<g stroke-width="0.70" style="font:italic 11.00px Times">
<use x="22.00" y="211.80" xlink:href="#tclef"/>
<use x="37.00" y="193.80" xlink:href="#sh0"/>
<use x="55.50" y="205.80" xlink:href="#hd"/>
<path d="M59.00 205.80v-21.00" class="stroke"/>
<use x="79.30" y="214.80" xlink:href="#Hd"/>
<path d="M82.80 214.80v-21.00" class="stroke"/>
<use x="135.10" y="217.80" xlink:href="#hd"/>
<circle class="fill" cx="142.80" cy="214.80" r="1.2"/>
<path d="M138.60 217.80v-21.00" class="stroke"/>
<use x="191.60" y="220.80" xlink:href="#hd"/>
<path d="M195.10 220.80v-21.00" class="stroke"/>
<path class="fill"
	d="M195.10 199.80c0.6 5.6 9.6 9 5.6 18.4
	1.6 -6 -1.3 -11.6 -5.6 -12.8
"/>
<use x="209.50" y="220.80" xlink:href="#Hd"/>
<circle class="fill" cx="218.20" cy="220.80" r="1.2"/>
<path d="M213.00 220.80v-21.00" class="stroke"/>
<defs>
<path id="r4" class="fill" d="m-1 -8.5
	l3.6 5.1 -2.1 5.2 2.2 4.3
	c-2.6 -2.3 -5.1 0 -2.4 2.6
	-4.8 -3 -1.5 -6.9 1.4 -4.1
	l-3.1 -4.5 1.9 -5.1 -1.5 -3.5"/>
</defs>
<use x="271.20" y="205.80" xlink:href="#r4"/>
<use x="294.90" y="199.80" xlink:href="#Hd"/>
<path d="M291.40 199.80v21.00" class="stroke"/>
<use x="338.90" y="202.80" xlink:href="#hd"/>
<path d="M335.40 202.80v21.00" class="stroke"/>
<use x="369.40" y="205.80" xlink:href="#hd"/>
<path d="M365.90 205.80v21.00" class="stroke"/>
<use x="393.20" y="202.80" xlink:href="#Hd"/>
<path d="M389.70 202.80v21.00" class="stroke"/>
<use x="448.50" y="205.80" xlink:href="#Hd"/>
<path d="M445.00 205.80v21.00" class="stroke"/>
<use x="503.70" y="208.80" xlink:href="#hd"/>
<path d="M507.20 208.80v-21.00" class="stroke"/>
<use x="527.40" y="205.80" xlink:href="#hd"/>
<path d="M530.90 205.80v-21.00" class="stroke"/>
<use x="560.40" y="211.80" xlink:href="#hd"/>
<path d="M563.90 211.80v-21.00" class="stroke"/>
<use x="591.90" y="208.80" xlink:href="#hd"/>
<path d="M595.40 208.80v-21.00" class="stroke"/>
<use x="615.60" y="214.80" xlink:href="#hd"/>
<circle class="fill" cx="623.30" cy="214.80" r="1.2"/>
<path d="M619.10 214.80v-21.00" class="stroke"/>
<use x="656.30" y="217.80" xlink:href="#hd"/>
<path d="M659.80 217.80v-21.00" class="stroke"/>
<path class="fill"
	d="M659.80 196.80c0.6 5.6 9.6 9 5.6 18.4
	1.6 -6 -1.3 -11.6 -5.6 -12.8
"/>
<use x="674.10" y="220.80" xlink:href="#hd"/>
<path d="M677.60 220.80v-21.00" class="stroke"/>
<use x="22.00" y="257.80" xlink:href="#bclef"/>
<use x="37.00" y="257.80" xlink:href="#sh0"/>
<use x="55.50" y="263.80" xlink:href="#Hd"/>
<path d="M59.00 263.80v-21.00" class="stroke"/>
<use x="103.10" y="263.80" xlink:href="#hd"/>
<path d="M106.60 263.80v-22.00" class="stroke"/>
<path class="fill"
	d="M106.60 241.80c0.9 3.7 9.1 6.4 6 12.4
	1 -5.4 -4.2 -8.4 -6 -8.4
M106.60 247.20c0.9 3.7 9.1 6.4 6 12.4
	1 -5.4 -4.2 -8.4 -6 -8.4
"/>
<use x="117.10" y="263.80" xlink:href="#Hd"/>
<path d="M120.60 263.80v-21.00" class="stroke"/>
<use x="162.10" y="263.80" xlink:href="#hd"/>
<path d="M165.60 263.80v-22.00" class="stroke"/>
<path class="fill"
	d="M165.60 241.80c0.9 3.7 9.1 6.4 6 12.4
	1 -5.4 -4.2 -8.4 -6 -8.4
M165.60 247.20c0.9 3.7 9.1 6.4 6 12.4
	1 -5.4 -4.2 -8.4 -6 -8.4
"/>
<use x="191.60" y="263.80" xlink:href="#hd"/>
<circle class="fill" cx="199.30" cy="260.80" r="1.2"/>
<circle class="fill" cx="202.80" cy="260.80" r="1.2"/>
<path d="M195.10 263.80v-21.00" class="stroke"/>
<use x="234.70" y="263.80" xlink:href="#hd"/>
<circle class="fill" cx="242.40" cy="260.80" r="1.2"/>
<circle class="fill" cx="245.90" cy="260.80" r="1.2"/>
<path d="M238.20 263.80v-21.00" class="stroke"/>
<use x="271.20" y="269.80" xlink:href="#Hd"/>
<path d="M274.70 269.80v-21.00" class="stroke"/>
<use x="315.20" y="269.80" xlink:href="#Hd"/>
<path d="M318.70 269.80v-21.00" class="stroke"/>
<use x="369.40" y="275.80" xlink:href="#Hd"/>
<path d="M372.90 275.80v-21.00" class="stroke"/>
<use x="414.70" y="275.80" xlink:href="#hd"/>
<path d="M418.20 275.80v-21.00" class="stroke"/>
<path class="fill"
	d="M418.20 254.80c0.6 5.6 9.6 9 5.6 18.4
	1.6 -6 -1.3 -11.6 -5.6 -12.8
"/>
<use x="432.60" y="275.80" xlink:href="#Hd"/>
<path d="M436.10 275.80v-21.00" class="stroke"/>
<use x="474.20" y="275.80" xlink:href="#hd"/>
<path d="M477.70 275.80v-21.00" class="stroke"/>
<path class="fill"
	d="M477.70 254.80c0.6 5.6 9.6 9 5.6 18.4
	1.6 -6 -1.3 -11.6 -5.6 -12.8
"/>
<use x="503.70" y="269.80" xlink:href="#hd"/>
<circle class="fill" cx="511.40" cy="266.80" r="1.2"/>
<path d="M507.20 269.80v-21.00" class="stroke"/>
<use x="544.30" y="269.80" xlink:href="#hd"/>
<circle class="fill" cx="552.00" cy="266.80" r="1.2"/>
<path d="M547.80 269.80v-21.00" class="stroke"/>
<use x="591.90" y="263.80" xlink:href="#Hd"/>
<path d="M595.40 263.80v-21.00" class="stroke"/>
<use x="638.20" y="263.80" xlink:href="#Hd"/>
<path d="M641.70 263.80v-21.00" class="stroke"/>
<path class="fill"
	d="M59.00 263.80c6.38 5.23 34.19 5.23 40.57 -0.00
	v0.24c-7.60 6.99 -32.98 6.99 -40.57 -0.24"/>
<path class="fill"
	d="M120.60 263.80c6.00 5.19 32.07 5.19 38.06 -0.00
	v0.24c-7.14 6.95 -30.93 6.95 -38.06 -0.24"/>
<path class="fill"
	d="M372.90 275.80c6.04 5.19 32.30 5.19 38.33 -0.00
	v0.24c-7.19 6.95 -31.15 6.95 -38.33 -0.24"/>
<path class="fill"
	d="M436.10 275.80c5.44 5.12 29.12 5.12 34.57 -0.00
	v0.23c-6.48 6.89 -28.09 6.89 -34.57 -0.23"/>
</g>
<g stroke-width="0.70" style="font:italic 11.00px Times">
<path class="stroke" stroke-width="1"
	d="M10.00 406.20v-82.00"/>
<g transform="translate(10.00,324.20) scale(1,0.82)">
	<use xlink:href="#brace"/>
</g>
<path class="stroke" stroke-width="1"
	d="M151.40 348.20v-24.00"/>
<path class="stroke" stroke-width="1"
	d="M151.40 406.20v-24.00"/>
<path class="stroke" stroke-width="1"
	d="M259.60 348.20v-24.00"/>
<path class="stroke" stroke-width="1"
	d="M259.60 406.20v-24.00"/>
<path class="stroke" stroke-width="1"
	d="M368.50 348.20v-24.00"/>
<path class="stroke" stroke-width="1"
	d="M368.50 406.20v-24.00"/>
<path class="stroke" stroke-width="1"
	d="M474.30 348.20v-24.00"/>
<path class="stroke" stroke-width="1"
	d="M474.30 406.20v-24.00"/>
<path class="stroke" stroke-width="1"
	d="M583.40 348.20v-24.00"/>
<path class="stroke" stroke-width="1"
	d="M583.40 406.20v-24.00"/>
<path class="stroke" stroke-width="1"
	d="M691.60 348.20v-24.00"/>
<path class="stroke" stroke-width="1"
	d="M691.60 406.20v-24.00"/>
<path d="m10.00 348.20
	h681.60
	M10.00 342.20
	h681.60
	M10.00 336.20
	h681.60
	M10.00 330.20
	h681.60
	M10.00 324.20
	h681.60
	" class="stroke"/>
<path d="m10.00 406.20
	h681.60
	M10.00 400.20
	h681.60
	M10.00 394.20
	h681.60
	M10.00 388.20
	h681.60
	M10.00 382.20
	h681.60
	" class="stroke"/>
</g>
<g stroke-width="0.70" style="font:bold 13.00px Times">
<text x="51.70" y="314.60">I<tspan
	 style="font:italic 11.00px Times">¹</tspan></text>
</g>
<g stroke-width="0.70" style="font:bold 13.00px Times">
<text x="159.80" y="311.60">iii</text>
</g>
<g stroke-width="0.70" style="font:bold 13.00px Times">
<text x="270.80" y="308.60">I</text>
</g>
<g stroke-width="0.70" style="font:bold 13.00px Times">
<text x="379.70" y="319.60">I</text>
</g>
<g stroke-width="0.70" style="font:bold 13.00px Times">
<text x="481.40" y="308.60">V<tspan
	 style="font:italic 11.00px Times">²</tspan></text>
</g>
<g stroke-width="0.70" style="font:bold 13.00px Times">
<text x="588.50" y="314.60">V<tspan
	 style="font:italic 11.00px Times">⁷³</tspan></text>
</g>
<g stroke-width="0.70" style="font:italic 11.00px Times">
<use x="22.00" y="342.20" xlink:href="#tclef"/>
<use x="37.00" y="324.20" xlink:href="#sh0"/>
<use x="55.50" y="342.20" xlink:href="#hd"/>
<path d="M59.00 342.20v-21.00" class="stroke"/>
<use x="81.30" y="342.20" xlink:href="#hd"/>
<path d="M84.80 342.20v-21.00" class="stroke"/>
<use x="107.10" y="345.20" xlink:href="#hd"/>
<path d="M110.60 345.20v-21.00" class="stroke"/>
<use x="132.80" y="342.20" xlink:href="#hd"/>
<path d="M136.30 342.20v-21.00" class="stroke"/>
<use x="164.40" y="339.20" xlink:href="#hd"/>
<path d="M167.90 339.20v-21.00" class="stroke"/>
<use x="190.20" y="342.20" xlink:href="#Hd"/>
<path d="M193.70 342.20v-21.00" class="stroke"/>
<use x="241.10" y="351.20" xlink:href="#hd"/>
<path d="M244.60 351.20v-21.00" class="stroke"/>
<use x="272.60" y="336.20" xlink:href="#hd"/>
<path d="M276.10 336.20v-21.00" class="stroke"/>
<use x="298.40" y="336.20" xlink:href="#hd"/>
<path d="M301.90 336.20v-21.00" class="stroke"/>
<use x="324.20" y="339.20" xlink:href="#hd"/>
<path d="M327.70 339.20v-21.00" class="stroke"/>
<use x="350.00" y="336.20" xlink:href="#hd"/>
<path d="M353.50 336.20v-21.00" class="stroke"/>
<use x="381.50" y="333.20" xlink:href="#hd"/>
<path d="M378.00 333.20v21.00" class="stroke"/>
<use x="407.30" y="336.20" xlink:href="#Hd"/>
<path d="M403.80 336.20v21.00" class="stroke"/>
<use x="455.70" y="339.20" xlink:href="#hd"/>
<path d="M459.20 339.20v-21.00" class="stroke"/>
<use x="487.30" y="336.20" xlink:href="#hd"/>
<path d="M490.80 336.20v-21.00" class="stroke"/>
<use x="513.20" y="333.20" xlink:href="#hd"/>
<path d="M509.70 333.20v21.00" class="stroke"/>
<use x="539.00" y="336.20" xlink:href="#hd"/>
<path d="M535.50 336.20v21.00" class="stroke"/>
<use x="564.80" y="339.20" xlink:href="#hd"/>
<path d="M568.30 339.20v-21.00" class="stroke"/>
<use x="596.40" y="342.20" xlink:href="#hd"/>
<path d="M599.90 342.20v-21.00" class="stroke"/>
<use x="622.20" y="345.20" xlink:href="#Hd"/>
<path d="M625.70 345.20v-21.00" class="stroke"/>
<use x="673.10" y="342.20" xlink:href="#hd"/>
<path d="M676.60 342.20v-21.00" class="stroke"/>
<use x="22.00" y="388.20" xlink:href="#bclef"/>
<use x="37.00" y="388.20" xlink:href="#sh0"/>
<use x="55.50" y="406.20" xlink:href="#Hd"/>
<path d="M59.00 406.20v-21.00" class="stroke"/>
<use x="107.10" y="406.20" xlink:href="#Hd"/>
<path d="M110.60 406.20v-21.00" class="stroke"/>
<use x="164.40" y="400.20" xlink:href="#Hd"/>
<path d="M167.90 400.20v-21.00" class="stroke"/>
<use x="215.30" y="400.20" xlink:href="#Hd"/>
<path d="M218.80 400.20v-21.00" class="stroke"/>
<use x="272.60" y="406.20" xlink:href="#Hd"/>
<path d="M276.10 406.20v-21.00" class="stroke"/>
<use x="324.20" y="406.20" xlink:href="#Hd"/>
<path d="M327.70 406.20v-21.00" class="stroke"/>
<use x="381.50" y="406.20" xlink:href="#Hd"/>
<path d="M385.00 406.20v-21.00" class="stroke"/>
<use x="429.90" y="406.20" xlink:href="#Hd"/>
<path d="M433.40 406.20v-21.00" class="stroke"/>
<use x="487.30" y="394.20" xlink:href="#Hd"/>
<path d="M490.80 394.20v-21.00" class="stroke"/>
<use x="539.00" y="394.20" xlink:href="#Hd"/>
<path d="M542.50 394.20v-21.00" class="stroke"/>
<use x="596.40" y="394.20" xlink:href="#Hd"/>
<path d="M599.90 394.20v-21.00" class="stroke"/>
<use x="647.30" y="394.20" xlink:href="#Hd"/>
<path d="M650.80 394.20v-21.00" class="stroke"/>
</g>
<g stroke-width="0.70" style="font:italic 11.00px Times">
<path class="stroke" stroke-width="1"
	d="M10.00 534.20v-82.00"/>
<g transform="translate(10.00,452.20) scale(1,0.82)">
	<use xlink:href="#brace"/>
</g>
<path class="stroke" stroke-width="1"
	d="M244.00 476.20v-24.00"/>
<path class="stroke" stroke-width="1"
	d="M244.00 534.20v-24.00"/>
<path class="stroke" stroke-width="1"
	d="M362.80 476.20v-24.00"/>
<path class="stroke" stroke-width="1"
	d="M362.80 534.20v-24.00"/>
<path d="m10.00 476.20
	h352.80
	M10.00 470.20
	h352.80
	M10.00 464.20
	h352.80
	M10.00 458.20
	h352.80
	M10.00 452.20
	h352.80
	" class="stroke"/>
<path d="m10.00 534.20
	h352.80
	M10.00 528.20
	h352.80
	M10.00 522.20
	h352.80
	M10.00 516.20
	h352.80
	M10.00 510.20
	h352.80
	" class="stroke"/>
</g>
<g stroke-width="0.70" style="font:bold 13.00px Times">
<text x="47.80" y="447.60">IV<tspan
	 style="font:italic 11.00px Times">⁷</tspan></text>
</g>
<g stroke-width="0.70" style="font:bold 13.00px Times">
<text x="256.40" y="442.60">I</text>
<use x="22.00" y="470.20" xlink:href="#tclef"/>
<use x="37.00" y="452.20" xlink:href="#sh0"/>
<use x="55.50" y="461.20" xlink:href="#hd"/>
<path d="M52.00 461.20v21.00" class="stroke"/>
<use x="95.50" y="464.20" xlink:href="#Hd"/>
<path d="M92.00 464.20v21.00" class="stroke"/>
<use x="183.70" y="467.20" xlink:href="#hd"/>
<circle class="fill" cx="191.40" cy="467.20" r="1.2"/>
<path d="M187.20 467.20v-21.00" class="stroke"/>
<use x="258.20" y="470.20" xlink:href="#hd"/>
<path d="M261.70 470.20v-21.00" class="stroke"/>
<path class="fill"
	d="M261.70 449.20c0.6 5.6 9.6 9 5.6 18.4
	1.6 -6 -1.3 -11.6 -5.6 -12.8
"/>
<use x="286.50" y="470.20" xlink:href="#Hd"/>
<circle class="fill" cx="295.20" cy="467.20" r="1.2"/>
<path d="M290.00 470.20v-21.00" class="stroke"/>
<use x="22.00" y="516.20" xlink:href="#bclef"/>
<use x="37.00" y="516.20" xlink:href="#sh0"/>
<use x="55.50" y="525.20" xlink:href="#Hd"/>
<path d="M59.00 525.20v-21.00" class="stroke"/>
<use x="131.50" y="525.20" xlink:href="#hd"/>
<path d="M135.00 525.20v-22.00" class="stroke"/>
<path class="fill"
	d="M135.00 503.20c0.9 3.7 9.1 6.4 6 12.4
	1 -5.4 -4.2 -8.4 -6 -8.4
M135.00 508.60c0.9 3.7 9.1 6.4 6 12.4
	1 -5.4 -4.2 -8.4 -6 -8.4
"/>
<use x="151.50" y="525.20" xlink:href="#Hd"/>
<path d="M155.00 525.20v-21.00" class="stroke"/>
<use x="227.00" y="525.20" xlink:href="#hd"/>
<path d="M230.50 525.20v-22.00" class="stroke"/>
<path class="fill"
	d="M230.50 503.20c0.9 3.7 9.1 6.4 6 12.4
	1 -5.4 -4.2 -8.4 -6 -8.4
M230.50 508.60c0.9 3.7 9.1 6.4 6 12.4
	1 -5.4 -4.2 -8.4 -6 -8.4
"/>
<use x="258.20" y="534.20" xlink:href="#hd"/>
<circle class="fill" cx="265.90" cy="531.20" r="1.2"/>
<circle class="fill" cx="269.40" cy="531.20" r="1.2"/>
<path d="M261.70 534.20v-21.00" class="stroke"/>
<use x="329.80" y="534.20" xlink:href="#hd"/>
<circle class="fill" cx="337.50" cy="531.20" r="1.2"/>
<circle class="fill" cx="341.00" cy="531.20" r="1.2"/>
<path d="M333.30 534.20v-21.00" class="stroke"/>
<path class="fill"
	d="M59.00 525.20c9.97 5.74 59.03 5.74 69.00 -0.00
	v0.27c-12.04 7.47 -56.96 7.47 -69.00 -0.27"/>
<path class="fill"
	d="M155.00 525.20c9.91 5.73 58.61 5.73 68.52 -0.00
	v0.27c-11.97 7.46 -56.55 7.46 -68.52 -0.27"/>
</g>
</svg>
