<?xml version="1.0" standalone="no"?>
<!DOCTYPE svg PUBLIC "-//W3C//DTD SVG 1.1//EN"
	"http://www.w3.org/Graphics/SVG/1.1/DTD/svg11.dtd">
<svg xmlns="http://www.w3.org/2000/svg" version="1.1"
	xmlns:xlink="http://www.w3.org/1999/xlink"
	color="black"
	width="701.60px" height="550.00px" viewBox="0 0 701.60 550.00" preserveAspectRatio="xMidYMid meet">
<style type="text/css">
.fill {fill: currentColor}
.stroke {stroke: currentColor; fill: none}
text{white-space: pre}
</style>
<title>/tmp/retab_hymnal_L2/souls_of_men_why_will_ye_scatter.abc (1) tune 1</title>
<!-- Creator: abcm2ps-8.14.11 -->
<!-- CreationDate: Apr 24, 2026 15:39 -->
<!-- CommandLine: /tmp/retab_hymnal_L2/souls_of_men_why_will_ye_scatter.abc -g -O /tmp/retab_hymnal_L2/souls_of_men_why_will_ye_scatter -->
<g stroke-width="0.70">
<!-- title: 220. Souls of Men! Why Will Ye Scatter -->
</g>
<g stroke-width="0.70" style="font:20.00px Times">
<text x="350.80" y="22.00" text-anchor="middle">220. Souls of Men! Why Will Ye Scatter</text>
</g>
<g stroke-width="0.70" style="font:20.00px Times">
<path class="stroke" stroke-width="1"
	d="M10.00 143.00v-82.00"/>
<defs>
<path id="brace" class="fill" d="m-2.5 101
	c-4.5 -4.6 -7.5 -12.2 -4.4 -26.8
	3.5 -14.3 3.2 -21.7 -2.1 -24.2
	7.4 2.4 7.3 14.2 3.5 29.5
	-2.7 9.5 -1.5 16.2 3 21.5
	M-2.5 1c-4.5 4.6 -7.5 12.2 -4.4 26.8
	c3.5 14.3 3.2 21.7 -2.1 24.2
	7.4 -2.4 7.3 -14.2 3.5 -29.5
	-2.7 -9.5 -1.5 -16.2 3 -21.5"/>
</defs>
<g transform="translate(10.00,61.00) scale(1,0.82)">
	<use xlink:href="#brace"/>
</g>
<path class="stroke" stroke-width="1"
	d="M183.40 85.00v-24.00"/>
<path class="stroke" stroke-width="1"
	d="M183.40 143.00v-24.00"/>
<path class="stroke" stroke-width="1"
	d="M308.30 85.00v-24.00"/>
<path class="stroke" stroke-width="1"
	d="M308.30 143.00v-24.00"/>
<path class="stroke" stroke-width="1"
	d="M448.20 85.00v-24.00"/>
<path class="stroke" stroke-width="1"
	d="M448.20 143.00v-24.00"/>
<path class="stroke" stroke-width="1"
	d="M566.70 85.00v-24.00"/>
<path class="stroke" stroke-width="1"
	d="M566.70 143.00v-24.00"/>
<path class="stroke" stroke-width="1"
	d="M691.60 85.00v-24.00"/>
<path class="stroke" stroke-width="1"
	d="M691.60 143.00v-24.00"/>
<path d="m10.00 85.00
	h681.60
	M10.00 79.00
	h681.60
	M10.00 73.00
	h681.60
	M10.00 67.00
	h681.60
	M10.00 61.00
	h681.60
	" class="stroke"/>
<path d="m10.00 143.00
	h681.60
	M10.00 137.00
	h681.60
	M10.00 131.00
	h681.60
	M10.00 125.00
	h681.60
	M10.00 119.00
	h681.60
	" class="stroke"/>
</g>
<g stroke-width="0.70" style="font:bold 13.00px Times">
<text x="69.70" y="51.40">I</text>
</g>
<g stroke-width="0.70" style="font:bold 13.00px Times">
<text x="190.70" y="48.40">IV</text>
</g>
<g stroke-width="0.70" style="font:bold 13.00px Times">
<text x="316.30" y="56.40">ii<tspan
	 style="font:italic 11.00px Times">⁷</tspan></text>
</g>
<g stroke-width="0.70" style="font:bold 13.00px Times">
<text x="453.20" y="51.40">vii○<tspan
	 style="font:italic 11.00px Times">¹</tspan></text>
</g>
<g stroke-width="0.70" style="font:bold 13.00px Times">
<text x="577.90" y="51.40">I</text>
<defs>
<path id="utclef" class="fill" d="m-50 -90
	c-72 -41 -72 -158 52 -188
	150 -10 220 188 90 256
	-114 52 -275 0 -293 -136
	-15 -181 93 -229 220 -334
	88 -87 79 -133 62 -210
	-51 33 -94 105 -89 186
	17 267 36 374 49 574
	6 96 -19 134 -77 135
	-80 1 -126 -93 -61 -133
	85 -41 133 101 31 105
	23 17 92 37 90 -92
	-10 -223 -39 -342 -50 -617
	0 -90 0 -162 96 -232
	56 72 63 230 22 289
	-74 106 -257 168 -255 316
	9 153 148 185 252 133
	86 -65 29 -192 -80 -176
	-71 12 -105 67 -59 124"/>
<use id="tclef" transform="translate(0,6) scale(0.045)"
	xlink:href="#utclef"/>
</defs>
<use x="22.00" y="79.00" xlink:href="#tclef"/>
<defs>
<path id="usharp" class="fill" d="
	m136 -702
	v890
	h32
	v-890
	m128 840
	h32
	v-888
	h-32
	m-232 286
	v116
	l338 -96
	v-116
	m-338 442
	v116
	l338 -98
	v-114"/>
<use id="sh0" transform="translate(-4,5) scale(0.018)"
	xlink:href="#usharp"/>
</defs>
<use x="37.00" y="61.00" xlink:href="#sh0"/>
<g style="font:bold 16px serif"
	transform="translate(53.00,84.50) scale(1.2,1)">
	<text text-anchor="middle">4</text>
	<text y="-12" text-anchor="middle">4</text>
</g>
<defs>
<ellipse id="hd" rx="4.1" ry="2.9"
	transform="rotate(-20)" class="fill"/>
</defs>
<use x="71.50" y="79.00" xlink:href="#hd"/>
<path d="M75.00 79.00v-21.00" class="stroke"/>
<use x="98.20" y="82.00" xlink:href="#hd"/>
<path d="M101.70 82.00v-21.00" class="stroke"/>
<path class="fill"
	d="M101.70 61.00c0.6 5.6 9.6 9 5.6 18.4
	1.6 -6 -1.3 -11.6 -5.6 -12.8
"/>
<use x="117.80" y="85.00" xlink:href="#hd"/>
<path d="M121.30 85.00v-21.00" class="stroke"/>
<path class="fill"
	d="M121.30 64.00c0.6 5.6 9.6 9 5.6 18.4
	1.6 -6 -1.3 -11.6 -5.6 -12.8
"/>
<use x="137.40" y="88.00" xlink:href="#hd"/>
<path d="M140.90 88.00v-21.00" class="stroke"/>
<use x="164.10" y="79.00" xlink:href="#hd"/>
<path d="M167.60 79.00v-21.00" class="stroke"/>
<use x="196.40" y="76.00" xlink:href="#hd"/>
<path d="M199.90 76.00v-21.00" class="stroke"/>
<use x="223.10" y="79.00" xlink:href="#hd"/>
<path d="M226.60 79.00v-21.00" class="stroke"/>
<path class="fill"
	d="M226.60 58.00c0.6 5.6 9.6 9 5.6 18.4
	1.6 -6 -1.3 -11.6 -5.6 -12.8
"/>
<use x="242.70" y="76.00" xlink:href="#hd"/>
<path d="M246.20 76.00v-21.00" class="stroke"/>
<path class="fill"
	d="M246.20 55.00c0.6 5.6 9.6 9 5.6 18.4
	1.6 -6 -1.3 -11.6 -5.6 -12.8
"/>
<use x="262.30" y="73.00" xlink:href="#hd"/>
<path d="M265.80 73.00v-21.00" class="stroke"/>
<use x="289.00" y="79.00" xlink:href="#hd"/>
<path d="M292.50 79.00v-21.00" class="stroke"/>
<use x="321.30" y="70.00" xlink:href="#hd"/>
<path d="M317.80 70.00v21.00" class="stroke"/>
<use x="348.00" y="73.00" xlink:href="#hd"/>
<path d="M344.50 73.00v21.00" class="stroke"/>
<path class="fill"
	d="M344.50 94.00c0.6 -5.6 9.6 -9 5.6 -18.4
	1.6 6 -1.3 11.6 -5.6 12.8
"/>
<use x="365.30" y="76.00" xlink:href="#hd"/>
<path d="M368.80 76.00v-21.00" class="stroke"/>
<path class="fill"
	d="M368.80 55.00c0.6 5.6 9.6 9 5.6 18.4
	1.6 -6 -1.3 -11.6 -5.6 -12.8
"/>
<use x="385.00" y="73.00" xlink:href="#hd"/>
<path d="M388.50 73.00v-21.00" class="stroke"/>
<use x="411.60" y="76.00" xlink:href="#hd"/>
<path d="M415.10 76.00v-21.00" class="stroke"/>
<path class="fill"
	d="M415.10 55.00c0.6 5.6 9.6 9 5.6 18.4
	1.6 -6 -1.3 -11.6 -5.6 -12.8
"/>
<use x="431.20" y="79.00" xlink:href="#hd"/>
<path d="M434.70 79.00v-21.00" class="stroke"/>
<path class="fill"
	d="M434.70 58.00c0.6 5.6 9.6 9 5.6 18.4
	1.6 -6 -1.3 -11.6 -5.6 -12.8
"/>
<use x="461.20" y="82.00" xlink:href="#hd"/>
<path d="M464.70 82.00v-21.00" class="stroke"/>
<path class="fill"
	d="M464.70 61.00c0.6 5.6 9.6 9 5.6 18.4
	1.6 -6 -1.3 -11.6 -5.6 -12.8
"/>
<use x="480.90" y="79.00" xlink:href="#hd"/>
<path d="M484.40 79.00v-21.00" class="stroke"/>
<path class="fill"
	d="M484.40 58.00c0.6 5.6 9.6 9 5.6 18.4
	1.6 -6 -1.3 -11.6 -5.6 -12.8
"/>
<use x="500.50" y="76.00" xlink:href="#hd"/>
<path d="M504.00 76.00v-21.00" class="stroke"/>
<path class="fill"
	d="M504.00 55.00c0.6 5.6 9.6 9 5.6 18.4
	1.6 -6 -1.3 -11.6 -5.6 -12.8
"/>
<use x="520.10" y="82.00" xlink:href="#hd"/>
<path d="M523.60 82.00v-21.00" class="stroke"/>
<path class="fill"
	d="M523.60 61.00c0.6 5.6 9.6 9 5.6 18.4
	1.6 -6 -1.3 -11.6 -5.6 -12.8
"/>
<defs>
<path id="Hd" class="fill" d="m3 -1.6
	c-1 -1.8 -7 1.4 -6 3.2
	1 1.8 7 -1.4 6 -3.2
	m0.5 -0.3
	c2 3.8 -5 7.6 -7 3.8
	-2 -3.8 5 -7.6 7 -3.8"/>
</defs>
<use x="539.80" y="79.00" xlink:href="#Hd"/>
<path d="M543.30 79.00v-21.00" class="stroke"/>
<use x="579.70" y="79.00" xlink:href="#hd"/>
<path d="M583.20 79.00v-21.00" class="stroke"/>
<use x="606.30" y="82.00" xlink:href="#hd"/>
<path d="M609.80 82.00v-21.00" class="stroke"/>
<path class="fill"
	d="M609.80 61.00c0.6 5.6 9.6 9 5.6 18.4
	1.6 -6 -1.3 -11.6 -5.6 -12.8
"/>
<use x="626.00" y="85.00" xlink:href="#hd"/>
<path d="M629.50 85.00v-21.00" class="stroke"/>
<path class="fill"
	d="M629.50 64.00c0.6 5.6 9.6 9 5.6 18.4
	1.6 -6 -1.3 -11.6 -5.6 -12.8
"/>
<use x="645.60" y="88.00" xlink:href="#hd"/>
<path d="M649.10 88.00v-21.00" class="stroke"/>
<use x="672.30" y="79.00" xlink:href="#hd"/>
<path d="M675.80 79.00v-21.00" class="stroke"/>
<defs>
<path id="ubclef" class="fill" d="m-200 -87
	c124 -35 222 -78 254 -236
	43 -228 -167 -246 -192 -103
	59 -80 157 22 92 78
	-62 47 -115 -22 -106 -88
	21 -141 270 -136 274 52
	-1 175 -106 264 -322 297
	m357 -250
	c0 -36 51 -34 51 0
	0 37 -51 36 -51 0
	m-2 -129
	c0 -36 51 -34 51 0
	0 38 -51 37 -51 0"/>
<use id="bclef" transform="translate(0,18) scale(0.045)"
	xlink:href="#ubclef"/>
</defs>
<use x="22.00" y="125.00" xlink:href="#bclef"/>
<use x="37.00" y="125.00" xlink:href="#sh0"/>
<g style="font:bold 16px serif"
	transform="translate(53.00,142.50) scale(1.2,1)">
	<text text-anchor="middle">4</text>
	<text y="-12" text-anchor="middle">4</text>
</g>
<use x="71.50" y="143.00" xlink:href="#Hd"/>
<path d="M75.00 143.00v-21.00" class="stroke"/>
<use x="137.40" y="143.00" xlink:href="#Hd"/>
<path d="M140.90 143.00v-21.00" class="stroke"/>
<use x="196.40" y="134.00" xlink:href="#Hd"/>
<path d="M199.90 134.00v-21.00" class="stroke"/>
<use x="262.30" y="134.00" xlink:href="#Hd"/>
<path d="M265.80 134.00v-21.00" class="stroke"/>
<use x="321.30" y="140.00" xlink:href="#Hd"/>
<path d="M324.80 140.00v-21.00" class="stroke"/>
<use x="385.00" y="140.00" xlink:href="#Hd"/>
<path d="M388.50 140.00v-21.00" class="stroke"/>
<use x="461.20" y="143.00" xlink:href="#Hd"/>
<path d="M464.70 143.00v-21.00" class="stroke"/>
<use x="539.80" y="143.00" xlink:href="#Hd"/>
<path d="M543.30 143.00v-21.00" class="stroke"/>
<use x="579.70" y="143.00" xlink:href="#Hd"/>
<path d="M583.20 143.00v-21.00" class="stroke"/>
<use x="645.60" y="143.00" xlink:href="#Hd"/>
<path d="M649.10 143.00v-21.00" class="stroke"/>
</g>
<g stroke-width="0.70" style="font:bold 13.00px Times">
<path class="stroke" stroke-width="1"
	d="M10.00 271.00v-82.00"/>
<g transform="translate(10.00,189.00) scale(1,0.82)">
	<use xlink:href="#brace"/>
</g>
<path class="stroke" stroke-width="1"
	d="M173.30 213.00v-24.00"/>
<path class="stroke" stroke-width="1"
	d="M173.30 271.00v-24.00"/>
<path class="stroke" stroke-width="1"
	d="M319.10 213.00v-24.00"/>
<path class="stroke" stroke-width="1"
	d="M319.10 271.00v-24.00"/>
<path class="stroke" stroke-width="1"
	d="M442.60 213.00v-24.00"/>
<path class="stroke" stroke-width="1"
	d="M442.60 271.00v-24.00"/>
<path class="stroke" stroke-width="1"
	d="M573.60 213.00v-24.00"/>
<path class="stroke" stroke-width="1"
	d="M573.60 271.00v-24.00"/>
<path class="stroke" stroke-width="1"
	d="M691.60 213.00v-24.00"/>
<path class="stroke" stroke-width="1"
	d="M691.60 271.00v-24.00"/>
<path d="m10.00 213.00
	h681.60
	M10.00 207.00
	h681.60
	M10.00 201.00
	h681.60
	M10.00 195.00
	h681.60
	M10.00 189.00
	h681.60
	" class="stroke"/>
<path d="m10.00 271.00
	h681.60
	M10.00 265.00
	h681.60
	M10.00 259.00
	h681.60
	M10.00 253.00
	h681.60
	M10.00 247.00
	h681.60
	" class="stroke"/>
</g>
<g stroke-width="0.70" style="font:bold 13.00px Times">
<text x="49.70" y="176.40">IV</text>
</g>
<g stroke-width="0.70" style="font:bold 13.00px Times">
<text x="181.30" y="182.40">ii<tspan
	 style="font:italic 11.00px Times">⁷</tspan></text>
</g>
<g stroke-width="0.70" style="font:bold 13.00px Times">
<text x="324.10" y="179.40">vii○<tspan
	 style="font:italic 11.00px Times">¹</tspan></text>
</g>
<g stroke-width="0.70" style="font:bold 13.00px Times">
<text x="451.30" y="179.40">vi</text>
</g>
<g stroke-width="0.70" style="font:bold 13.00px Times">
<text x="578.90" y="176.40">IV<tspan
	 style="font:italic 11.00px Times">¹</tspan></text>
</g>
<g stroke-width="0.70" style="font:italic 11.00px Times">
<use x="22.00" y="207.00" xlink:href="#tclef"/>
<use x="37.00" y="189.00" xlink:href="#sh0"/>
<use x="55.50" y="204.00" xlink:href="#hd"/>
<path d="M59.00 204.00v-21.00" class="stroke"/>
<use x="83.80" y="207.00" xlink:href="#hd"/>
<path d="M87.30 207.00v-21.00" class="stroke"/>
<path class="fill"
	d="M87.30 186.00c0.6 5.6 9.6 9 5.6 18.4
	1.6 -6 -1.3 -11.6 -5.6 -12.8
"/>
<use x="104.30" y="204.00" xlink:href="#hd"/>
<path d="M107.80 204.00v-21.00" class="stroke"/>
<path class="fill"
	d="M107.80 183.00c0.6 5.6 9.6 9 5.6 18.4
	1.6 -6 -1.3 -11.6 -5.6 -12.8
"/>
<use x="124.80" y="201.00" xlink:href="#hd"/>
<path d="M128.30 201.00v-21.00" class="stroke"/>
<use x="153.10" y="207.00" xlink:href="#hd"/>
<path d="M156.60 207.00v-21.00" class="stroke"/>
<use x="186.30" y="198.00" xlink:href="#hd"/>
<path d="M182.80 198.00v21.00" class="stroke"/>
<use x="214.60" y="201.00" xlink:href="#hd"/>
<path d="M211.10 201.00v21.00" class="stroke"/>
<path class="fill"
	d="M211.10 222.00c0.6 -5.6 9.6 -9 5.6 -18.4
	1.6 6 -1.3 11.6 -5.6 12.8
"/>
<use x="232.80" y="204.00" xlink:href="#hd"/>
<path d="M236.30 204.00v-21.00" class="stroke"/>
<path class="fill"
	d="M236.30 183.00c0.6 5.6 9.6 9 5.6 18.4
	1.6 -6 -1.3 -11.6 -5.6 -12.8
"/>
<use x="253.30" y="201.00" xlink:href="#hd"/>
<path d="M256.80 201.00v-21.00" class="stroke"/>
<use x="281.60" y="204.00" xlink:href="#hd"/>
<path d="M285.10 204.00v-21.00" class="stroke"/>
<path class="fill"
	d="M285.10 183.00c0.6 5.6 9.6 9 5.6 18.4
	1.6 -6 -1.3 -11.6 -5.6 -12.8
"/>
<use x="302.10" y="207.00" xlink:href="#hd"/>
<path d="M305.60 207.00v-21.00" class="stroke"/>
<path class="fill"
	d="M305.60 186.00c0.6 5.6 9.6 9 5.6 18.4
	1.6 -6 -1.3 -11.6 -5.6 -12.8
"/>
<use x="332.10" y="210.00" xlink:href="#hd"/>
<path d="M335.60 210.00v-21.00" class="stroke"/>
<path class="fill"
	d="M335.60 189.00c0.6 5.6 9.6 9 5.6 18.4
	1.6 -6 -1.3 -11.6 -5.6 -12.8
"/>
<use x="352.70" y="207.00" xlink:href="#hd"/>
<path d="M356.20 207.00v-21.00" class="stroke"/>
<path class="fill"
	d="M356.20 186.00c0.6 5.6 9.6 9 5.6 18.4
	1.6 -6 -1.3 -11.6 -5.6 -12.8
"/>
<use x="373.20" y="204.00" xlink:href="#hd"/>
<path d="M376.70 204.00v-21.00" class="stroke"/>
<path class="fill"
	d="M376.70 183.00c0.6 5.6 9.6 9 5.6 18.4
	1.6 -6 -1.3 -11.6 -5.6 -12.8
"/>
<use x="393.70" y="210.00" xlink:href="#hd"/>
<path d="M397.20 210.00v-21.00" class="stroke"/>
<path class="fill"
	d="M397.20 189.00c0.6 5.6 9.6 9 5.6 18.4
	1.6 -6 -1.3 -11.6 -5.6 -12.8
"/>
<use x="414.30" y="207.00" xlink:href="#Hd"/>
<path d="M417.80 207.00v-21.00" class="stroke"/>
<use x="455.60" y="207.00" xlink:href="#hd"/>
<path d="M459.10 207.00v-21.00" class="stroke"/>
<use x="483.80" y="204.00" xlink:href="#hd"/>
<path d="M487.30 204.00v-21.00" class="stroke"/>
<path class="fill"
	d="M487.30 183.00c0.6 5.6 9.6 9 5.6 18.4
	1.6 -6 -1.3 -11.6 -5.6 -12.8
"/>
<use x="504.40" y="201.00" xlink:href="#hd"/>
<path d="M507.90 201.00v-21.00" class="stroke"/>
<path class="fill"
	d="M507.90 180.00c0.6 5.6 9.6 9 5.6 18.4
	1.6 -6 -1.3 -11.6 -5.6 -12.8
"/>
<use x="525.10" y="198.00" xlink:href="#hd"/>
<path d="M521.60 198.00v21.00" class="stroke"/>
<use x="553.30" y="201.00" xlink:href="#hd"/>
<path d="M549.80 201.00v21.00" class="stroke"/>
<use x="586.60" y="204.00" xlink:href="#hd"/>
<path d="M590.10 204.00v-21.00" class="stroke"/>
<use x="614.80" y="207.00" xlink:href="#hd"/>
<path d="M618.30 207.00v-21.00" class="stroke"/>
<use x="643.10" y="204.00" xlink:href="#hd"/>
<path d="M646.60 204.00v-21.00" class="stroke"/>
<use x="671.40" y="204.00" xlink:href="#hd"/>
<path d="M674.90 204.00v-21.00" class="stroke"/>
<use x="22.00" y="253.00" xlink:href="#bclef"/>
<use x="37.00" y="253.00" xlink:href="#sh0"/>
<use x="55.50" y="262.00" xlink:href="#Hd"/>
<path d="M59.00 262.00v-21.00" class="stroke"/>
<use x="124.80" y="262.00" xlink:href="#Hd"/>
<path d="M128.30 262.00v-21.00" class="stroke"/>
<use x="186.30" y="268.00" xlink:href="#Hd"/>
<path d="M189.80 268.00v-21.00" class="stroke"/>
<use x="253.30" y="268.00" xlink:href="#Hd"/>
<path d="M256.80 268.00v-21.00" class="stroke"/>
<use x="332.10" y="271.00" xlink:href="#Hd"/>
<path d="M335.60 271.00v-21.00" class="stroke"/>
<use x="414.30" y="271.00" xlink:href="#Hd"/>
<path d="M417.80 271.00v-21.00" class="stroke"/>
<use x="455.60" y="256.00" xlink:href="#Hd"/>
<path d="M452.10 256.00v21.00" class="stroke"/>
<use x="525.10" y="256.00" xlink:href="#Hd"/>
<path d="M521.60 256.00v21.00" class="stroke"/>
<use x="586.60" y="262.00" xlink:href="#Hd"/>
<path d="M590.10 262.00v-21.00" class="stroke"/>
<use x="643.10" y="262.00" xlink:href="#Hd"/>
<path d="M646.60 262.00v-21.00" class="stroke"/>
</g>
<g stroke-width="0.70" style="font:italic 11.00px Times">
<path class="stroke" stroke-width="1"
	d="M10.00 399.00v-82.00"/>
<g transform="translate(10.00,317.00) scale(1,0.82)">
	<use xlink:href="#brace"/>
</g>
<path class="stroke" stroke-width="1"
	d="M169.20 341.00v-24.00"/>
<path class="stroke" stroke-width="1"
	d="M169.20 399.00v-24.00"/>
<path class="stroke" stroke-width="1"
	d="M296.00 341.00v-24.00"/>
<path class="stroke" stroke-width="1"
	d="M296.00 399.00v-24.00"/>
<path class="stroke" stroke-width="1"
	d="M422.90 341.00v-24.00"/>
<path class="stroke" stroke-width="1"
	d="M422.90 399.00v-24.00"/>
<path class="stroke" stroke-width="1"
	d="M549.70 341.00v-24.00"/>
<path class="stroke" stroke-width="1"
	d="M549.70 399.00v-24.00"/>
<path class="stroke" stroke-width="1"
	d="M691.60 341.00v-24.00"/>
<path class="stroke" stroke-width="1"
	d="M691.60 399.00v-24.00"/>
<path d="m10.00 341.00
	h681.60
	M10.00 335.00
	h681.60
	M10.00 329.00
	h681.60
	M10.00 323.00
	h681.60
	M10.00 317.00
	h681.60
	" class="stroke"/>
<path d="m10.00 399.00
	h681.60
	M10.00 393.00
	h681.60
	M10.00 387.00
	h681.60
	M10.00 381.00
	h681.60
	M10.00 375.00
	h681.60
	" class="stroke"/>
</g>
<g stroke-width="0.70" style="font:bold 13.00px Times">
<text x="51.60" y="304.40">V</text>
</g>
<g stroke-width="0.70" style="font:bold 13.00px Times">
<text x="176.30" y="304.40">V<tspan
	 style="font:italic 11.00px Times">¹</tspan></text>
</g>
<g stroke-width="0.70" style="font:bold 13.00px Times">
<text x="307.20" y="307.40">I</text>
</g>
<g stroke-width="0.70" style="font:bold 13.00px Times">
<text x="430.10" y="304.40">IV</text>
</g>
<g stroke-width="0.70" style="font:bold 13.00px Times">
<text x="557.70" y="312.40">ii<tspan
	 style="font:italic 11.00px Times">⁷</tspan></text>
</g>
<g stroke-width="0.70" style="font:italic 11.00px Times">
<use x="22.00" y="335.00" xlink:href="#tclef"/>
<use x="37.00" y="317.00" xlink:href="#sh0"/>
<use x="55.50" y="332.00" xlink:href="#hd"/>
<path d="M59.00 332.00v-21.00" class="stroke"/>
<use x="82.70" y="329.00" xlink:href="#hd"/>
<path d="M86.20 329.00v-21.00" class="stroke"/>
<path class="fill"
	d="M86.20 308.00c0.6 5.6 9.6 9 5.6 18.4
	1.6 -6 -1.3 -11.6 -5.6 -12.8
"/>
<use x="102.80" y="326.00" xlink:href="#hd"/>
<path d="M99.30 326.00v21.00" class="stroke"/>
<path class="fill"
	d="M99.30 347.00c0.6 -5.6 9.6 -9 5.6 -18.4
	1.6 6 -1.3 11.6 -5.6 12.8
"/>
<use x="122.30" y="323.00" xlink:href="#hd"/>
<path d="M118.80 323.00v21.00" class="stroke"/>
<use x="149.60" y="335.00" xlink:href="#hd"/>
<path d="M153.10 335.00v-21.00" class="stroke"/>
<use x="182.20" y="332.00" xlink:href="#hd"/>
<path d="M185.70 332.00v-21.00" class="stroke"/>
<use x="209.40" y="335.00" xlink:href="#hd"/>
<path d="M212.90 335.00v-21.00" class="stroke"/>
<path class="fill"
	d="M212.90 314.00c0.6 5.6 9.6 9 5.6 18.4
	1.6 -6 -1.3 -11.6 -5.6 -12.8
"/>
<use x="229.30" y="338.00" xlink:href="#hd"/>
<path d="M232.80 338.00v-21.00" class="stroke"/>
<path class="fill"
	d="M232.80 317.00c0.6 5.6 9.6 9 5.6 18.4
	1.6 -6 -1.3 -11.6 -5.6 -12.8
"/>
<use x="249.20" y="341.00" xlink:href="#hd"/>
<path d="M252.70 341.00v-21.00" class="stroke"/>
<use x="276.40" y="344.00" xlink:href="#hd"/>
<path d="M279.90 344.00v-21.00" class="stroke"/>
<use x="309.00" y="335.00" xlink:href="#hd"/>
<path d="M312.50 335.00v-21.00" class="stroke"/>
<use x="336.30" y="338.00" xlink:href="#hd"/>
<path d="M339.80 338.00v-21.00" class="stroke"/>
<path class="fill"
	d="M339.80 317.00c0.6 5.6 9.6 9 5.6 18.4
	1.6 -6 -1.3 -11.6 -5.6 -12.8
"/>
<use x="356.20" y="341.00" xlink:href="#hd"/>
<path d="M359.70 341.00v-21.00" class="stroke"/>
<path class="fill"
	d="M359.70 320.00c0.6 5.6 9.6 9 5.6 18.4
	1.6 -6 -1.3 -11.6 -5.6 -12.8
"/>
<use x="376.00" y="344.00" xlink:href="#hd"/>
<path d="M379.50 344.00v-21.00" class="stroke"/>
<use x="403.30" y="335.00" xlink:href="#hd"/>
<path d="M406.80 335.00v-21.00" class="stroke"/>
<use x="435.90" y="332.00" xlink:href="#hd"/>
<path d="M439.40 332.00v-21.00" class="stroke"/>
<use x="463.10" y="335.00" xlink:href="#hd"/>
<path d="M466.60 335.00v-21.00" class="stroke"/>
<path class="fill"
	d="M466.60 314.00c0.6 5.6 9.6 9 5.6 18.4
	1.6 -6 -1.3 -11.6 -5.6 -12.8
"/>
<use x="483.00" y="332.00" xlink:href="#hd"/>
<path d="M486.50 332.00v-21.00" class="stroke"/>
<path class="fill"
	d="M486.50 311.00c0.6 5.6 9.6 9 5.6 18.4
	1.6 -6 -1.3 -11.6 -5.6 -12.8
"/>
<use x="502.90" y="329.00" xlink:href="#hd"/>
<path d="M506.40 329.00v-21.00" class="stroke"/>
<use x="530.10" y="335.00" xlink:href="#hd"/>
<path d="M533.60 335.00v-21.00" class="stroke"/>
<use x="562.70" y="326.00" xlink:href="#hd"/>
<path d="M559.20 326.00v21.00" class="stroke"/>
<use x="590.00" y="329.00" xlink:href="#hd"/>
<path d="M586.50 329.00v21.00" class="stroke"/>
<path class="fill"
	d="M586.50 350.00c0.6 -5.6 9.6 -9 5.6 -18.4
	1.6 6 -1.3 11.6 -5.6 12.8
"/>
<use x="607.60" y="332.00" xlink:href="#hd"/>
<path d="M611.10 332.00v-21.00" class="stroke"/>
<path class="fill"
	d="M611.10 311.00c0.6 5.6 9.6 9 5.6 18.4
	1.6 -6 -1.3 -11.6 -5.6 -12.8
"/>
<use x="627.50" y="329.00" xlink:href="#hd"/>
<path d="M631.00 329.00v-21.00" class="stroke"/>
<use x="654.70" y="332.00" xlink:href="#hd"/>
<path d="M658.20 332.00v-21.00" class="stroke"/>
<path class="fill"
	d="M658.20 311.00c0.6 5.6 9.6 9 5.6 18.4
	1.6 -6 -1.3 -11.6 -5.6 -12.8
"/>
<use x="674.60" y="335.00" xlink:href="#hd"/>
<path d="M678.10 335.00v-21.00" class="stroke"/>
<path class="fill"
	d="M678.10 314.00c0.6 5.6 9.6 9 5.6 18.4
	1.6 -6 -1.3 -11.6 -5.6 -12.8
"/>
<use x="22.00" y="381.00" xlink:href="#bclef"/>
<use x="37.00" y="381.00" xlink:href="#sh0"/>
<use x="55.50" y="387.00" xlink:href="#Hd"/>
<path d="M59.00 387.00v-21.00" class="stroke"/>
<use x="122.30" y="387.00" xlink:href="#Hd"/>
<path d="M125.80 387.00v-21.00" class="stroke"/>
<use x="182.20" y="387.00" xlink:href="#Hd"/>
<path d="M185.70 387.00v-21.00" class="stroke"/>
<use x="249.20" y="387.00" xlink:href="#Hd"/>
<path d="M252.70 387.00v-21.00" class="stroke"/>
<use x="309.00" y="399.00" xlink:href="#Hd"/>
<path d="M312.50 399.00v-21.00" class="stroke"/>
<use x="376.00" y="399.00" xlink:href="#Hd"/>
<path d="M379.50 399.00v-21.00" class="stroke"/>
<use x="435.90" y="390.00" xlink:href="#Hd"/>
<path d="M439.40 390.00v-21.00" class="stroke"/>
<use x="502.90" y="390.00" xlink:href="#Hd"/>
<path d="M506.40 390.00v-21.00" class="stroke"/>
<use x="562.70" y="396.00" xlink:href="#Hd"/>
<path d="M566.20 396.00v-21.00" class="stroke"/>
<use x="627.50" y="396.00" xlink:href="#Hd"/>
<path d="M631.00 396.00v-21.00" class="stroke"/>
</g>
<g stroke-width="0.70" style="font:italic 11.00px Times">
<path class="stroke" stroke-width="1"
	d="M10.00 527.00v-82.00"/>
<g transform="translate(10.00,445.00) scale(1,0.82)">
	<use xlink:href="#brace"/>
</g>
<path class="stroke" stroke-width="1"
	d="M208.30 469.00v-24.00"/>
<path class="stroke" stroke-width="1"
	d="M208.30 527.00v-24.00"/>
<path d="m10.00 469.00
	h198.30
	M10.00 463.00
	h198.30
	M10.00 457.00
	h198.30
	M10.00 451.00
	h198.30
	M10.00 445.00
	h198.30
	" class="stroke"/>
<path d="m10.00 527.00
	h198.30
	M10.00 521.00
	h198.30
	M10.00 515.00
	h198.30
	M10.00 509.00
	h198.30
	M10.00 503.00
	h198.30
	" class="stroke"/>
</g>
<g stroke-width="0.70" style="font:bold 13.00px Times">
<text x="47.50" y="435.40">vii○<tspan
	 style="font:italic 11.00px Times">¹</tspan></text>
</g>
<g stroke-width="0.70" style="font:italic 11.00px Times">
<use x="22.00" y="463.00" xlink:href="#tclef"/>
<use x="37.00" y="445.00" xlink:href="#sh0"/>
<use x="55.50" y="466.00" xlink:href="#hd"/>
<path d="M59.00 466.00v-21.00" class="stroke"/>
<path class="fill"
	d="M59.00 445.00c0.6 5.6 9.6 9 5.6 18.4
	1.6 -6 -1.3 -11.6 -5.6 -12.8
"/>
<use x="83.80" y="463.00" xlink:href="#hd"/>
<path d="M87.30 463.00v-21.00" class="stroke"/>
<path class="fill"
	d="M87.30 442.00c0.6 5.6 9.6 9 5.6 18.4
	1.6 -6 -1.3 -11.6 -5.6 -12.8
"/>
<use x="112.10" y="460.00" xlink:href="#hd"/>
<path d="M115.60 460.00v-21.00" class="stroke"/>
<path class="fill"
	d="M115.60 439.00c0.6 5.6 9.6 9 5.6 18.4
	1.6 -6 -1.3 -11.6 -5.6 -12.8
"/>
<use x="140.40" y="466.00" xlink:href="#hd"/>
<path d="M143.90 466.00v-21.00" class="stroke"/>
<path class="fill"
	d="M143.90 445.00c0.6 5.6 9.6 9 5.6 18.4
	1.6 -6 -1.3 -11.6 -5.6 -12.8
"/>
<use x="168.70" y="463.00" xlink:href="#Hd"/>
<path d="M172.20 463.00v-21.00" class="stroke"/>
<use x="22.00" y="509.00" xlink:href="#bclef"/>
<use x="37.00" y="509.00" xlink:href="#sh0"/>
<use x="55.50" y="527.00" xlink:href="#Hd"/>
<path d="M59.00 527.00v-21.00" class="stroke"/>
<use x="168.70" y="527.00" xlink:href="#Hd"/>
<path d="M172.20 527.00v-21.00" class="stroke"/>
</g>
</svg>
