<?xml version="1.0" standalone="no"?>
<!DOCTYPE svg PUBLIC "-//W3C//DTD SVG 1.1//EN"
	"http://www.w3.org/Graphics/SVG/1.1/DTD/svg11.dtd">
<svg xmlns="http://www.w3.org/2000/svg" version="1.1"
	xmlns:xlink="http://www.w3.org/1999/xlink"
	color="black"
	width="701.60px" height="550.00px" viewBox="0 0 701.60 550.00" preserveAspectRatio="xMidYMid meet">
<style type="text/css">
.fill {fill: currentColor}
.stroke {stroke: currentColor; fill: none}
text{white-space: pre}
</style>
<title>/tmp/retab_hymnal_L2/there_s_a_great_day_coming.abc (1) tune 1</title>
<!-- Creator: abcm2ps-8.14.11 -->
<!-- CreationDate: Apr 24, 2026 15:39 -->
<!-- CommandLine: /tmp/retab_hymnal_L2/there_s_a_great_day_coming.abc -g -O /tmp/retab_hymnal_L2/there_s_a_great_day_coming -->
<g stroke-width="0.70">
<!-- title: 248. There's a Great Day Coming -->
</g>
<g stroke-width="0.70" style="font:20.00px Times">
<text x="350.80" y="22.00" text-anchor="middle">248. There&apos;s a Great Day Coming</text>
</g>
<g stroke-width="0.70" style="font:20.00px Times">
<path class="stroke" stroke-width="1"
	d="M10.00 143.00v-82.00"/>
<defs>
<path id="brace" class="fill" d="m-2.5 101
	c-4.5 -4.6 -7.5 -12.2 -4.4 -26.8
	3.5 -14.3 3.2 -21.7 -2.1 -24.2
	7.4 2.4 7.3 14.2 3.5 29.5
	-2.7 9.5 -1.5 16.2 3 21.5
	M-2.5 1c-4.5 4.6 -7.5 12.2 -4.4 26.8
	c3.5 14.3 3.2 21.7 -2.1 24.2
	7.4 -2.4 7.3 -14.2 3.5 -29.5
	-2.7 -9.5 -1.5 -16.2 3 -21.5"/>
</defs>
<g transform="translate(10.00,61.00) scale(1,0.82)">
	<use xlink:href="#brace"/>
</g>
<path class="stroke" stroke-width="1"
	d="M189.70 85.00v-24.00"/>
<path class="stroke" stroke-width="1"
	d="M189.70 143.00v-24.00"/>
<path class="stroke" stroke-width="1"
	d="M320.10 85.00v-24.00"/>
<path class="stroke" stroke-width="1"
	d="M320.10 143.00v-24.00"/>
<path class="stroke" stroke-width="1"
	d="M451.30 85.00v-24.00"/>
<path class="stroke" stroke-width="1"
	d="M451.30 143.00v-24.00"/>
<path class="stroke" stroke-width="1"
	d="M549.30 85.00v-24.00"/>
<path class="stroke" stroke-width="1"
	d="M549.30 143.00v-24.00"/>
<path class="stroke" stroke-width="1"
	d="M691.60 85.00v-24.00"/>
<path class="stroke" stroke-width="1"
	d="M691.60 143.00v-24.00"/>
<path d="m10.00 85.00
	h681.60
	M10.00 79.00
	h681.60
	M10.00 73.00
	h681.60
	M10.00 67.00
	h681.60
	M10.00 61.00
	h681.60
	" class="stroke"/>
<path d="m10.00 143.00
	h681.60
	M10.00 137.00
	h681.60
	M10.00 131.00
	h681.60
	M10.00 125.00
	h681.60
	M10.00 119.00
	h681.60
	" class="stroke"/>
</g>
<g stroke-width="0.70" style="font:bold 13.00px Times">
<text x="69.70" y="56.40">I</text>
</g>
<g stroke-width="0.70" style="font:bold 13.00px Times">
<text x="200.90" y="54.40">I</text>
</g>
<g stroke-width="0.70" style="font:bold 13.00px Times">
<text x="326.90" y="56.40">vi<tspan
	 style="font:italic 11.00px Times">¹</tspan></text>
</g>
<g stroke-width="0.70" style="font:bold 13.00px Times">
<text x="460.30" y="48.40">V</text>
</g>
<g stroke-width="0.70" style="font:bold 13.00px Times">
<text x="560.40" y="51.40">I</text>
<defs>
<path id="utclef" class="fill" d="m-50 -90
	c-72 -41 -72 -158 52 -188
	150 -10 220 188 90 256
	-114 52 -275 0 -293 -136
	-15 -181 93 -229 220 -334
	88 -87 79 -133 62 -210
	-51 33 -94 105 -89 186
	17 267 36 374 49 574
	6 96 -19 134 -77 135
	-80 1 -126 -93 -61 -133
	85 -41 133 101 31 105
	23 17 92 37 90 -92
	-10 -223 -39 -342 -50 -617
	0 -90 0 -162 96 -232
	56 72 63 230 22 289
	-74 106 -257 168 -255 316
	9 153 148 185 252 133
	86 -65 29 -192 -80 -176
	-71 12 -105 67 -59 124"/>
<use id="tclef" transform="translate(0,6) scale(0.045)"
	xlink:href="#utclef"/>
</defs>
<use x="22.00" y="79.00" xlink:href="#tclef"/>
<defs>
<path id="usharp" class="fill" d="
	m136 -702
	v890
	h32
	v-890
	m128 840
	h32
	v-888
	h-32
	m-232 286
	v116
	l338 -96
	v-116
	m-338 442
	v116
	l338 -98
	v-114"/>
<use id="sh0" transform="translate(-4,5) scale(0.018)"
	xlink:href="#usharp"/>
</defs>
<use x="37.00" y="61.00" xlink:href="#sh0"/>
<g style="font:bold 16px serif"
	transform="translate(53.00,84.50) scale(1.2,1)">
	<text text-anchor="middle">4</text>
	<text y="-12" text-anchor="middle">4</text>
</g>
<defs>
<ellipse id="hd" rx="4.1" ry="2.9"
	transform="rotate(-20)" class="fill"/>
</defs>
<use x="71.50" y="88.00" xlink:href="#hd"/>
<path d="M75.00 88.00v-21.00" class="stroke"/>
<path class="fill"
	d="M75.00 67.00c0.6 5.6 9.6 9 5.6 18.4
	1.6 -6 -1.3 -11.6 -5.6 -12.8
"/>
<use x="89.80" y="88.00" xlink:href="#hd"/>
<path d="M93.30 88.00v-21.00" class="stroke"/>
<path class="fill"
	d="M93.30 67.00c0.6 5.6 9.6 9 5.6 18.4
	1.6 -6 -1.3 -11.6 -5.6 -12.8
"/>
<use x="108.10" y="79.00" xlink:href="#hd"/>
<path d="M111.60 79.00v-21.00" class="stroke"/>
<use x="132.10" y="79.00" xlink:href="#hd"/>
<path d="M135.60 79.00v-21.00" class="stroke"/>
<use x="156.00" y="79.00" xlink:href="#hd"/>
<path d="M159.50 79.00v-22.00" class="stroke"/>
<path class="fill"
	d="M159.50 57.00c0.9 3.7 9.1 6.4 6 12.4
	1 -5.4 -4.2 -8.4 -6 -8.4
M159.50 62.40c0.9 3.7 9.1 6.4 6 12.4
	1 -5.4 -4.2 -8.4 -6 -8.4
"/>
<use x="169.70" y="79.00" xlink:href="#hd"/>
<circle class="fill" cx="177.40" cy="76.00" r="1.2"/>
<path d="M173.20 79.00v-21.00" class="stroke"/>
<path class="fill"
	d="M173.20 58.00c0.6 5.6 9.6 9 5.6 18.4
	1.6 -6 -1.3 -11.6 -5.6 -12.8
"/>
<defs>
<path id="r8e" class="fill" d="m 0 0
	c-1.5 1.5 -2.4 2 -3.6 2
	2.4 -2.8 -2.8 -4 -2.8 -1.2
	c0 2.7 4.3 2.4 5.9 0.6"/>
<g id="r8">
	<path d="m3.3 -4l-3.4 9.6" class="stroke"/>
	<use x="3.4" y="-4" xlink:href="#r8e"/>
</g>
</defs>
<use x="202.70" y="73.00" xlink:href="#r8"/>
<use x="220.20" y="79.00" xlink:href="#hd"/>
<path d="M223.70 79.00v-21.00" class="stroke"/>
<path class="fill"
	d="M223.70 58.00c0.6 5.6 9.6 9 5.6 18.4
	1.6 -6 -1.3 -11.6 -5.6 -12.8
"/>
<use x="238.50" y="73.00" xlink:href="#hd"/>
<path d="M242.00 73.00v-21.00" class="stroke"/>
<use x="262.40" y="73.00" xlink:href="#hd"/>
<path d="M265.90 73.00v-21.00" class="stroke"/>
<use x="286.40" y="76.00" xlink:href="#hd"/>
<path d="M289.90 76.00v-22.00" class="stroke"/>
<path class="fill"
	d="M289.90 54.00c0.9 3.7 9.1 6.4 6 12.4
	1 -5.4 -4.2 -8.4 -6 -8.4
M289.90 59.40c0.9 3.7 9.1 6.4 6 12.4
	1 -5.4 -4.2 -8.4 -6 -8.4
"/>
<use x="300.10" y="79.00" xlink:href="#hd"/>
<circle class="fill" cx="307.80" cy="76.00" r="1.2"/>
<path d="M303.60 79.00v-21.00" class="stroke"/>
<path class="fill"
	d="M303.60 58.00c0.6 5.6 9.6 9 5.6 18.4
	1.6 -6 -1.3 -11.6 -5.6 -12.8
"/>
<use x="333.10" y="85.00" xlink:href="#hd"/>
<path d="M336.60 85.00v-21.00" class="stroke"/>
<path class="fill"
	d="M336.60 64.00c0.6 5.6 9.6 9 5.6 18.4
	1.6 -6 -1.3 -11.6 -5.6 -12.8
"/>
<use x="351.40" y="88.00" xlink:href="#hd"/>
<path d="M354.90 88.00v-21.00" class="stroke"/>
<path class="fill"
	d="M354.90 67.00c0.6 5.6 9.6 9 5.6 18.4
	1.6 -6 -1.3 -11.6 -5.6 -12.8
"/>
<use x="369.70" y="79.00" xlink:href="#hd"/>
<path d="M373.20 79.00v-21.00" class="stroke"/>
<use x="393.60" y="79.00" xlink:href="#hd"/>
<path d="M397.10 79.00v-21.00" class="stroke"/>
<use x="417.60" y="79.00" xlink:href="#hd"/>
<path d="M421.10 79.00v-22.00" class="stroke"/>
<path class="fill"
	d="M421.10 57.00c0.9 3.7 9.1 6.4 6 12.4
	1 -5.4 -4.2 -8.4 -6 -8.4
M421.10 62.40c0.9 3.7 9.1 6.4 6 12.4
	1 -5.4 -4.2 -8.4 -6 -8.4
"/>
<use x="431.30" y="79.00" xlink:href="#hd"/>
<circle class="fill" cx="439.00" cy="76.00" r="1.2"/>
<path d="M434.80 79.00v-21.00" class="stroke"/>
<path class="fill"
	d="M434.80 58.00c0.6 5.6 9.6 9 5.6 18.4
	1.6 -6 -1.3 -11.6 -5.6 -12.8
"/>
<use x="464.30" y="76.00" xlink:href="#hd"/>
<path d="M467.80 76.00v-21.00" class="stroke"/>
<path class="fill"
	d="M467.80 55.00c0.6 5.6 9.6 9 5.6 18.4
	1.6 -6 -1.3 -11.6 -5.6 -12.8
"/>
<use x="482.60" y="73.00" xlink:href="#hd"/>
<path d="M486.10 73.00v-21.00" class="stroke"/>
<path class="fill"
	d="M486.10 52.00c0.6 5.6 9.6 9 5.6 18.4
	1.6 -6 -1.3 -11.6 -5.6 -12.8
"/>
<defs>
<path id="Hd" class="fill" d="m3 -1.6
	c-1 -1.8 -7 1.4 -6 3.2
	1 1.8 7 -1.4 6 -3.2
	m0.5 -0.3
	c2 3.8 -5 7.6 -7 3.8
	-2 -3.8 5 -7.6 7 -3.8"/>
</defs>
<use x="501.00" y="76.00" xlink:href="#Hd"/>
<circle class="fill" cx="509.70" cy="76.00" r="1.2"/>
<path d="M504.50 76.00v-21.00" class="stroke"/>
<use x="562.30" y="79.00" xlink:href="#hd"/>
<path d="M565.80 79.00v-21.00" class="stroke"/>
<path class="fill"
	d="M565.80 58.00c0.6 5.6 9.6 9 5.6 18.4
	1.6 -6 -1.3 -11.6 -5.6 -12.8
"/>
<use x="580.60" y="76.00" xlink:href="#hd"/>
<path d="M584.10 76.00v-21.00" class="stroke"/>
<path class="fill"
	d="M584.10 55.00c0.6 5.6 9.6 9 5.6 18.4
	1.6 -6 -1.3 -11.6 -5.6 -12.8
"/>
<use x="598.90" y="73.00" xlink:href="#hd"/>
<path d="M602.40 73.00v-21.00" class="stroke"/>
<use x="622.80" y="73.00" xlink:href="#hd"/>
<path d="M626.30 73.00v-21.00" class="stroke"/>
<path class="fill"
	d="M626.30 52.00c0.6 5.6 9.6 9 5.6 18.4
	1.6 -6 -1.3 -11.6 -5.6 -12.8
"/>
<use x="641.10" y="73.00" xlink:href="#hd"/>
<path d="M644.60 73.00v-21.00" class="stroke"/>
<path class="fill"
	d="M644.60 52.00c0.6 5.6 9.6 9 5.6 18.4
	1.6 -6 -1.3 -11.6 -5.6 -12.8
"/>
<use x="659.40" y="73.00" xlink:href="#hd"/>
<path d="M662.90 73.00v-21.00" class="stroke"/>
<path class="fill"
	d="M662.90 52.00c0.6 5.6 9.6 9 5.6 18.4
	1.6 -6 -1.3 -11.6 -5.6 -12.8
"/>
<use x="678.20" y="67.00" xlink:href="#hd"/>
<path d="M674.70 67.00v21.00" class="stroke"/>
<path class="fill"
	d="M674.70 88.00c0.6 -5.6 9.6 -9 5.6 -18.4
	1.6 6 -1.3 11.6 -5.6 12.8
"/>
<defs>
<path id="ubclef" class="fill" d="m-200 -87
	c124 -35 222 -78 254 -236
	43 -228 -167 -246 -192 -103
	59 -80 157 22 92 78
	-62 47 -115 -22 -106 -88
	21 -141 270 -136 274 52
	-1 175 -106 264 -322 297
	m357 -250
	c0 -36 51 -34 51 0
	0 37 -51 36 -51 0
	m-2 -129
	c0 -36 51 -34 51 0
	0 38 -51 37 -51 0"/>
<use id="bclef" transform="translate(0,18) scale(0.045)"
	xlink:href="#ubclef"/>
</defs>
<use x="22.00" y="125.00" xlink:href="#bclef"/>
<use x="37.00" y="125.00" xlink:href="#sh0"/>
<g style="font:bold 16px serif"
	transform="translate(53.00,142.50) scale(1.2,1)">
	<text text-anchor="middle">4</text>
	<text y="-12" text-anchor="middle">4</text>
</g>
<use x="71.50" y="143.00" xlink:href="#Hd"/>
<path d="M75.00 143.00v-21.00" class="stroke"/>
<use x="132.10" y="143.00" xlink:href="#Hd"/>
<path d="M135.60 143.00v-21.00" class="stroke"/>
<use x="202.70" y="143.00" xlink:href="#Hd"/>
<path d="M206.20 143.00v-21.00" class="stroke"/>
<use x="262.40" y="143.00" xlink:href="#Hd"/>
<path d="M265.90 143.00v-21.00" class="stroke"/>
<use x="333.10" y="128.00" xlink:href="#Hd"/>
<path d="M329.60 128.00v21.00" class="stroke"/>
<use x="393.60" y="128.00" xlink:href="#Hd"/>
<path d="M390.10 128.00v21.00" class="stroke"/>
<use x="464.30" y="131.00" xlink:href="#Hd"/>
<path d="M460.80 131.00v21.00" class="stroke"/>
<use x="523.20" y="131.00" xlink:href="#Hd"/>
<path d="M519.70 131.00v21.00" class="stroke"/>
<use x="562.30" y="143.00" xlink:href="#Hd"/>
<path d="M565.80 143.00v-21.00" class="stroke"/>
<use x="622.80" y="143.00" xlink:href="#Hd"/>
<path d="M626.30 143.00v-21.00" class="stroke"/>
</g>
<g stroke-width="0.70" style="font:bold 13.00px Times">
<path class="stroke" stroke-width="1"
	d="M10.00 271.00v-82.00"/>
<g transform="translate(10.00,189.00) scale(1,0.82)">
	<use xlink:href="#brace"/>
</g>
<path class="stroke" stroke-width="1"
	d="M187.60 213.00v-24.00"/>
<path class="stroke" stroke-width="1"
	d="M187.60 271.00v-24.00"/>
<path class="stroke" stroke-width="1"
	d="M332.70 213.00v-24.00"/>
<path class="stroke" stroke-width="1"
	d="M332.70 271.00v-24.00"/>
<path class="stroke" stroke-width="1"
	d="M424.80 213.00v-24.00"/>
<path class="stroke" stroke-width="1"
	d="M424.80 271.00v-24.00"/>
<path class="stroke" stroke-width="1"
	d="M558.20 213.00v-24.00"/>
<path class="stroke" stroke-width="1"
	d="M558.20 271.00v-24.00"/>
<path class="stroke" stroke-width="1"
	d="M691.60 213.00v-24.00"/>
<path class="stroke" stroke-width="1"
	d="M691.60 271.00v-24.00"/>
<path d="m10.00 213.00
	h681.60
	M10.00 207.00
	h681.60
	M10.00 201.00
	h681.60
	M10.00 195.00
	h681.60
	M10.00 189.00
	h681.60
	" class="stroke"/>
<path d="m10.00 271.00
	h681.60
	M10.00 265.00
	h681.60
	M10.00 259.00
	h681.60
	M10.00 253.00
	h681.60
	M10.00 247.00
	h681.60
	" class="stroke"/>
</g>
<g stroke-width="0.70" style="font:bold 13.00px Times">
<text x="53.70" y="184.40">I</text>
</g>
<g stroke-width="0.70" style="font:bold 13.00px Times">
<text x="198.70" y="184.40">I</text>
</g>
<g stroke-width="0.70" style="font:bold 13.00px Times">
<text x="343.90" y="176.40">I</text>
</g>
<g stroke-width="0.70" style="font:bold 13.00px Times">
<text x="436.00" y="182.40">I</text>
</g>
<g stroke-width="0.70" style="font:bold 13.00px Times">
<text x="569.40" y="184.40">I</text>
<use x="22.00" y="207.00" xlink:href="#tclef"/>
<use x="37.00" y="189.00" xlink:href="#sh0"/>
<use x="55.50" y="195.00" xlink:href="#hd"/>
<path d="M52.00 195.00v21.00" class="stroke"/>
<path class="fill"
	d="M52.00 216.00c0.6 -5.6 9.6 -9 5.6 -18.4
	1.6 6 -1.3 11.6 -5.6 12.8
"/>
<use x="74.40" y="201.00" xlink:href="#hd"/>
<path d="M70.90 201.00v21.00" class="stroke"/>
<path class="fill"
	d="M70.90 222.00c0.6 -5.6 9.6 -9 5.6 -18.4
	1.6 6 -1.3 11.6 -5.6 12.8
"/>
<use x="91.40" y="204.00" xlink:href="#hd"/>
<path d="M94.90 204.00v-21.00" class="stroke"/>
<path class="fill"
	d="M94.90 183.00c0.6 5.6 9.6 9 5.6 18.4
	1.6 -6 -1.3 -11.6 -5.6 -12.8
"/>
<use x="110.70" y="207.00" xlink:href="#hd"/>
<path d="M114.20 207.00v-21.00" class="stroke"/>
<path class="fill"
	d="M114.20 186.00c0.6 5.6 9.6 9 5.6 18.4
	1.6 -6 -1.3 -11.6 -5.6 -12.8
"/>
<use x="130.00" y="207.00" xlink:href="#hd"/>
<path d="M133.50 207.00v-21.00" class="stroke"/>
<path class="fill"
	d="M133.50 186.00c0.6 5.6 9.6 9 5.6 18.4
	1.6 -6 -1.3 -11.6 -5.6 -12.8
"/>
<use x="149.30" y="213.00" xlink:href="#hd"/>
<path d="M152.80 213.00v-21.00" class="stroke"/>
<path class="fill"
	d="M152.80 192.00c0.6 5.6 9.6 9 5.6 18.4
	1.6 -6 -1.3 -11.6 -5.6 -12.8
"/>
<use x="168.60" y="216.00" xlink:href="#hd"/>
<path d="M172.10 216.00v-21.00" class="stroke"/>
<use x="200.60" y="216.00" xlink:href="#hd"/>
<path d="M204.10 216.00v-21.00" class="stroke"/>
<path class="fill"
	d="M204.10 195.00c0.6 5.6 9.6 9 5.6 18.4
	1.6 -6 -1.3 -11.6 -5.6 -12.8
"/>
<use x="219.80" y="216.00" xlink:href="#hd"/>
<path d="M223.30 216.00v-21.00" class="stroke"/>
<path class="fill"
	d="M223.30 195.00c0.6 5.6 9.6 9 5.6 18.4
	1.6 -6 -1.3 -11.6 -5.6 -12.8
"/>
<use x="239.10" y="207.00" xlink:href="#hd"/>
<path d="M242.60 207.00v-22.00" class="stroke"/>
<path class="fill"
	d="M242.60 185.00c0.9 3.7 9.1 6.4 6 12.4
	1 -5.4 -4.2 -8.4 -6 -8.4
M242.60 190.40c0.9 3.7 9.1 6.4 6 12.4
	1 -5.4 -4.2 -8.4 -6 -8.4
"/>
<use x="253.10" y="207.00" xlink:href="#hd"/>
<circle class="fill" cx="260.80" cy="204.00" r="1.2"/>
<path d="M256.60 207.00v-21.00" class="stroke"/>
<path class="fill"
	d="M256.60 186.00c0.6 5.6 9.6 9 5.6 18.4
	1.6 -6 -1.3 -11.6 -5.6 -12.8
"/>
<use x="275.20" y="207.00" xlink:href="#hd"/>
<path d="M278.70 207.00v-21.00" class="stroke"/>
<path class="fill"
	d="M278.70 186.00c0.6 5.6 9.6 9 5.6 18.4
	1.6 -6 -1.3 -11.6 -5.6 -12.8
"/>
<use x="294.40" y="207.00" xlink:href="#hd"/>
<path d="M297.90 207.00v-21.00" class="stroke"/>
<path class="fill"
	d="M297.90 186.00c0.6 5.6 9.6 9 5.6 18.4
	1.6 -6 -1.3 -11.6 -5.6 -12.8
"/>
<use x="313.70" y="204.00" xlink:href="#hd"/>
<path d="M317.20 204.00v-21.00" class="stroke"/>
<use x="345.70" y="204.00" xlink:href="#hd"/>
<path d="M349.20 204.00v-21.00" class="stroke"/>
<use x="372.10" y="207.00" xlink:href="#Hd"/>
<circle class="fill" cx="380.80" cy="204.00" r="1.2"/>
<path d="M375.60 207.00v-21.00" class="stroke"/>
<defs>
<path id="r4" class="fill" d="m-1 -8.5
	l3.6 5.1 -2.1 5.2 2.2 4.3
	c-2.6 -2.3 -5.1 0 -2.4 2.6
	-4.8 -3 -1.5 -6.9 1.4 -4.1
	l-3.1 -4.5 1.9 -5.1 -1.5 -3.5"/>
</defs>
<use x="437.80" y="201.00" xlink:href="#r4"/>
<use x="464.20" y="195.00" xlink:href="#hd"/>
<circle class="fill" cx="471.90" cy="192.00" r="1.2"/>
<path d="M460.70 195.00v21.00" class="stroke"/>
<use x="506.70" y="195.00" xlink:href="#hd"/>
<path d="M503.20 195.00v21.00" class="stroke"/>
<path class="fill"
	d="M503.20 216.00c0.6 -5.6 9.6 -9 5.6 -18.4
	1.6 6 -1.3 11.6 -5.6 12.8
"/>
<use x="525.60" y="192.00" xlink:href="#hd"/>
<path d="M522.10 192.00v21.00" class="stroke"/>
<path class="fill"
	d="M522.10 213.00c0.6 -5.6 9.6 -9 5.6 -18.4
	1.6 6 -1.3 11.6 -5.6 12.8
"/>
<use x="544.40" y="195.00" xlink:href="#hd"/>
<path d="M540.90 195.00v21.00" class="stroke"/>
<path class="fill"
	d="M540.90 216.00c0.6 -5.6 9.6 -9 5.6 -18.4
	1.6 6 -1.3 11.6 -5.6 12.8
"/>
<use x="571.20" y="201.00" xlink:href="#r4"/>
<use x="597.50" y="201.00" xlink:href="#hd"/>
<circle class="fill" cx="605.20" cy="198.00" r="1.2"/>
<path d="M594.00 201.00v21.00" class="stroke"/>
<use x="640.10" y="201.00" xlink:href="#hd"/>
<path d="M636.60 201.00v21.00" class="stroke"/>
<path class="fill"
	d="M636.60 222.00c0.6 -5.6 9.6 -9 5.6 -18.4
	1.6 6 -1.3 11.6 -5.6 12.8
"/>
<use x="659.00" y="198.00" xlink:href="#hd"/>
<path d="M655.50 198.00v21.00" class="stroke"/>
<path class="fill"
	d="M655.50 219.00c0.6 -5.6 9.6 -9 5.6 -18.4
	1.6 6 -1.3 11.6 -5.6 12.8
"/>
<use x="677.80" y="201.00" xlink:href="#hd"/>
<path d="M674.30 201.00v21.00" class="stroke"/>
<path class="fill"
	d="M674.30 222.00c0.6 -5.6 9.6 -9 5.6 -18.4
	1.6 6 -1.3 11.6 -5.6 12.8
"/>
<use x="22.00" y="253.00" xlink:href="#bclef"/>
<use x="37.00" y="253.00" xlink:href="#sh0"/>
<use x="55.50" y="271.00" xlink:href="#Hd"/>
<path d="M59.00 271.00v-21.00" class="stroke"/>
<use x="130.00" y="271.00" xlink:href="#Hd"/>
<path d="M133.50 271.00v-21.00" class="stroke"/>
<use x="200.60" y="271.00" xlink:href="#Hd"/>
<path d="M204.10 271.00v-21.00" class="stroke"/>
<use x="275.20" y="271.00" xlink:href="#Hd"/>
<path d="M278.70 271.00v-21.00" class="stroke"/>
<use x="345.70" y="271.00" xlink:href="#Hd"/>
<path d="M349.20 271.00v-21.00" class="stroke"/>
<use x="397.70" y="271.00" xlink:href="#Hd"/>
<path d="M401.20 271.00v-21.00" class="stroke"/>
<use x="437.80" y="271.00" xlink:href="#Hd"/>
<path d="M441.30 271.00v-21.00" class="stroke"/>
<use x="487.20" y="271.00" xlink:href="#Hd"/>
<path d="M490.70 271.00v-21.00" class="stroke"/>
<use x="571.20" y="271.00" xlink:href="#Hd"/>
<path d="M574.70 271.00v-21.00" class="stroke"/>
<use x="620.60" y="271.00" xlink:href="#Hd"/>
<path d="M624.10 271.00v-21.00" class="stroke"/>
</g>
<g stroke-width="0.70" style="font:bold 13.00px Times">
<path class="stroke" stroke-width="1"
	d="M10.00 399.00v-82.00"/>
<g transform="translate(10.00,317.00) scale(1,0.82)">
	<use xlink:href="#brace"/>
</g>
<path class="stroke" stroke-width="1"
	d="M181.50 341.00v-24.00"/>
<path class="stroke" stroke-width="1"
	d="M181.50 399.00v-24.00"/>
<path class="stroke" stroke-width="1"
	d="M343.50 341.00v-24.00"/>
<path class="stroke" stroke-width="1"
	d="M343.50 399.00v-24.00"/>
<path class="stroke" stroke-width="1"
	d="M437.50 341.00v-24.00"/>
<path class="stroke" stroke-width="1"
	d="M437.50 399.00v-24.00"/>
<path class="stroke" stroke-width="1"
	d="M569.90 341.00v-24.00"/>
<path class="stroke" stroke-width="1"
	d="M569.90 399.00v-24.00"/>
<path class="stroke" stroke-width="1"
	d="M691.60 341.00v-24.00"/>
<path class="stroke" stroke-width="1"
	d="M691.60 399.00v-24.00"/>
<path d="m10.00 341.00
	h681.60
	M10.00 335.00
	h681.60
	M10.00 329.00
	h681.60
	M10.00 323.00
	h681.60
	M10.00 317.00
	h681.60
	" class="stroke"/>
<path d="m10.00 399.00
	h681.60
	M10.00 393.00
	h681.60
	M10.00 387.00
	h681.60
	M10.00 381.00
	h681.60
	M10.00 375.00
	h681.60
	" class="stroke"/>
</g>
<g stroke-width="0.70" style="font:bold 13.00px Times">
<text x="53.70" y="312.40">I</text>
</g>
<g stroke-width="0.70" style="font:bold 13.00px Times">
<text x="192.70" y="307.40">I</text>
</g>
<g stroke-width="0.70" style="font:bold 13.00px Times">
<text x="348.00" y="310.40">vii○</text>
</g>
<g stroke-width="0.70" style="font:bold 13.00px Times">
<text x="446.00" y="312.40">iii</text>
</g>
<g stroke-width="0.70" style="font:bold 13.00px Times">
<text x="581.00" y="312.40">I</text>
<use x="22.00" y="335.00" xlink:href="#tclef"/>
<use x="37.00" y="317.00" xlink:href="#sh0"/>
<use x="55.50" y="329.00" xlink:href="#r4"/>
<use x="81.60" y="335.00" xlink:href="#hd"/>
<circle class="fill" cx="89.30" cy="332.00" r="1.2"/>
<path d="M85.10 335.00v-21.00" class="stroke"/>
<use x="126.20" y="335.00" xlink:href="#hd"/>
<path d="M129.70 335.00v-21.00" class="stroke"/>
<path class="fill"
	d="M129.70 314.00c0.6 5.6 9.6 9 5.6 18.4
	1.6 -6 -1.3 -11.6 -5.6 -12.8
"/>
<use x="145.40" y="335.00" xlink:href="#hd"/>
<path d="M148.90 335.00v-21.00" class="stroke"/>
<path class="fill"
	d="M148.90 314.00c0.6 5.6 9.6 9 5.6 18.4
	1.6 -6 -1.3 -11.6 -5.6 -12.8
"/>
<use x="164.50" y="335.00" xlink:href="#hd"/>
<path d="M168.00 335.00v-21.00" class="stroke"/>
<path class="fill"
	d="M168.00 314.00c0.6 5.6 9.6 9 5.6 18.4
	1.6 -6 -1.3 -11.6 -5.6 -12.8
"/>
<use x="194.50" y="335.00" xlink:href="#hd"/>
<path d="M198.00 335.00v-21.00" class="stroke"/>
<path class="fill"
	d="M198.00 314.00c0.6 5.6 9.6 9 5.6 18.4
	1.6 -6 -1.3 -11.6 -5.6 -12.8
"/>
<use x="213.70" y="335.00" xlink:href="#hd"/>
<path d="M217.20 335.00v-21.00" class="stroke"/>
<path class="fill"
	d="M217.20 314.00c0.6 5.6 9.6 9 5.6 18.4
	1.6 -6 -1.3 -11.6 -5.6 -12.8
"/>
<use x="232.90" y="329.00" xlink:href="#hd"/>
<path d="M236.40 329.00v-21.00" class="stroke"/>
<use x="259.00" y="332.00" xlink:href="#hd"/>
<path d="M262.50 332.00v-21.00" class="stroke"/>
<use x="296.00" y="332.00" xlink:href="#Hd"/>
<path d="M299.50 332.00v-21.00" class="stroke"/>
<use x="356.00" y="323.00" xlink:href="#hd"/>
<circle class="fill" cx="363.70" cy="320.00" r="1.2"/>
<path d="M352.50 323.00v21.00" class="stroke"/>
<use x="386.40" y="323.00" xlink:href="#hd"/>
<path d="M382.90 323.00v21.00" class="stroke"/>
<path class="fill"
	d="M382.90 344.00c0.6 -5.6 9.6 -9 5.6 -18.4
	1.6 6 -1.3 11.6 -5.6 12.8
"/>
<use x="405.10" y="320.00" xlink:href="#hd"/>
<path d="M401.60 320.00v21.00" class="stroke"/>
<path class="fill"
	d="M401.60 341.00c0.6 -5.6 9.6 -9 5.6 -18.4
	1.6 6 -1.3 11.6 -5.6 12.8
"/>
<use x="423.80" y="323.00" xlink:href="#hd"/>
<path d="M420.30 323.00v21.00" class="stroke"/>
<path class="fill"
	d="M420.30 344.00c0.6 -5.6 9.6 -9 5.6 -18.4
	1.6 6 -1.3 11.6 -5.6 12.8
"/>
<use x="450.50" y="329.00" xlink:href="#r4"/>
<use x="476.60" y="329.00" xlink:href="#hd"/>
<circle class="fill" cx="484.30" cy="326.00" r="1.2"/>
<path d="M473.10 329.00v21.00" class="stroke"/>
<use x="518.70" y="329.00" xlink:href="#hd"/>
<path d="M515.20 329.00v21.00" class="stroke"/>
<path class="fill"
	d="M515.20 350.00c0.6 -5.6 9.6 -9 5.6 -18.4
	1.6 6 -1.3 11.6 -5.6 12.8
"/>
<use x="537.40" y="326.00" xlink:href="#hd"/>
<path d="M533.90 326.00v21.00" class="stroke"/>
<path class="fill"
	d="M533.90 347.00c0.6 -5.6 9.6 -9 5.6 -18.4
	1.6 6 -1.3 11.6 -5.6 12.8
"/>
<use x="556.10" y="329.00" xlink:href="#hd"/>
<path d="M552.60 329.00v21.00" class="stroke"/>
<path class="fill"
	d="M552.60 350.00c0.6 -5.6 9.6 -9 5.6 -18.4
	1.6 6 -1.3 11.6 -5.6 12.8
"/>
<use x="582.90" y="329.00" xlink:href="#r4"/>
<use x="608.90" y="335.00" xlink:href="#hd"/>
<circle class="fill" cx="616.60" cy="332.00" r="1.2"/>
<path d="M612.40 335.00v-21.00" class="stroke"/>
<use x="653.50" y="335.00" xlink:href="#hd"/>
<path d="M657.00 335.00v-21.00" class="stroke"/>
<path class="fill"
	d="M657.00 314.00c0.6 5.6 9.6 9 5.6 18.4
	1.6 -6 -1.3 -11.6 -5.6 -12.8
"/>
<use x="672.70" y="332.00" xlink:href="#hd"/>
<path d="M676.20 332.00v-21.00" class="stroke"/>
<use x="22.00" y="381.00" xlink:href="#bclef"/>
<use x="37.00" y="381.00" xlink:href="#sh0"/>
<use x="55.50" y="399.00" xlink:href="#Hd"/>
<path d="M59.00 399.00v-21.00" class="stroke"/>
<use x="106.80" y="399.00" xlink:href="#Hd"/>
<path d="M110.30 399.00v-21.00" class="stroke"/>
<use x="194.50" y="399.00" xlink:href="#Hd"/>
<path d="M198.00 399.00v-21.00" class="stroke"/>
<use x="259.00" y="399.00" xlink:href="#hd"/>
<path d="M262.50 399.00v-21.00" class="stroke"/>
<path class="fill"
	d="M262.50 378.00c0.6 5.6 9.6 9 5.6 18.4
	1.6 -6 -1.3 -11.6 -5.6 -12.8
"/>
<use x="278.20" y="399.00" xlink:href="#Hd"/>
<path d="M281.70 399.00v-21.00" class="stroke"/>
<use x="326.50" y="399.00" xlink:href="#hd"/>
<path d="M330.00 399.00v-21.00" class="stroke"/>
<path class="fill"
	d="M330.00 378.00c0.6 5.6 9.6 9 5.6 18.4
	1.6 -6 -1.3 -11.6 -5.6 -12.8
"/>
<use x="356.00" y="399.00" xlink:href="#hd"/>
<circle class="fill" cx="363.70" cy="396.00" r="1.2"/>
<path d="M359.50 399.00v-21.00" class="stroke"/>
<use x="386.40" y="399.00" xlink:href="#hd"/>
<circle class="fill" cx="394.10" cy="396.00" r="1.2"/>
<path d="M389.90 399.00v-21.00" class="stroke"/>
<use x="450.50" y="393.00" xlink:href="#Hd"/>
<path d="M454.00 393.00v-21.00" class="stroke"/>
<use x="499.30" y="393.00" xlink:href="#Hd"/>
<path d="M502.80 393.00v-21.00" class="stroke"/>
<use x="582.90" y="399.00" xlink:href="#Hd"/>
<path d="M586.40 399.00v-21.00" class="stroke"/>
<use x="634.20" y="399.00" xlink:href="#Hd"/>
<path d="M637.70 399.00v-21.00" class="stroke"/>
<path class="fill"
	d="M198.00 399.00c8.59 5.53 48.82 5.53 57.42 -0.00
	v0.26c-10.32 7.28 -47.10 7.28 -57.42 -0.26"/>
<path class="fill"
	d="M281.70 399.00c6.49 5.24 34.87 5.24 41.36 -0.00
	v0.24c-7.73 7.00 -33.63 7.00 -41.36 -0.24"/>
</g>
<g stroke-width="0.70" style="font:bold 13.00px Times">
<path class="stroke" stroke-width="1"
	d="M10.00 527.00v-82.00"/>
<g transform="translate(10.00,445.00) scale(1,0.82)">
	<use xlink:href="#brace"/>
</g>
<path class="stroke" stroke-width="1"
	d="M175.10 469.00v-24.00"/>
<path class="stroke" stroke-width="1"
	d="M175.10 527.00v-24.00"/>
<path d="m10.00 469.00
	h165.10
	M10.00 463.00
	h165.10
	M10.00 457.00
	h165.10
	M10.00 451.00
	h165.10
	M10.00 445.00
	h165.10
	" class="stroke"/>
<path d="m10.00 527.00
	h165.10
	M10.00 521.00
	h165.10
	M10.00 515.00
	h165.10
	M10.00 509.00
	h165.10
	M10.00 503.00
	h165.10
	" class="stroke"/>
</g>
<g stroke-width="0.70" style="font:bold 13.00px Times">
<text x="53.70" y="432.40">I</text>
<use x="22.00" y="463.00" xlink:href="#tclef"/>
<use x="37.00" y="445.00" xlink:href="#sh0"/>
<use x="55.50" y="460.00" xlink:href="#hd"/>
<path d="M59.00 460.00v-21.00" class="stroke"/>
<use x="95.50" y="463.00" xlink:href="#Hd"/>
<circle class="fill" cx="104.20" cy="460.00" r="1.2"/>
<path d="M99.00 463.00v-21.00" class="stroke"/>
<use x="22.00" y="509.00" xlink:href="#bclef"/>
<use x="37.00" y="509.00" xlink:href="#sh0"/>
<use x="55.50" y="527.00" xlink:href="#Hd"/>
<path d="M59.00 527.00v-21.00" class="stroke"/>
<use x="135.50" y="527.00" xlink:href="#Hd"/>
<path d="M139.00 527.00v-21.00" class="stroke"/>
</g>
</svg>
