<?xml version="1.0" standalone="no"?>
<!DOCTYPE svg PUBLIC "-//W3C//DTD SVG 1.1//EN"
	"http://www.w3.org/Graphics/SVG/1.1/DTD/svg11.dtd">
<svg xmlns="http://www.w3.org/2000/svg" version="1.1"
	xmlns:xlink="http://www.w3.org/1999/xlink"
	color="black"
	width="701.60px" height="554.80px" viewBox="0 0 701.60 554.80" preserveAspectRatio="xMidYMid meet">
<style type="text/css">
.fill {fill: currentColor}
.stroke {stroke: currentColor; fill: none}
text{white-space: pre}
</style>
<title>/tmp/retab_hymnal_L2/when_the_roll_is_called_up_yonder.abc (1) tune 1</title>
<!-- Creator: abcm2ps-8.14.11 -->
<!-- CreationDate: Apr 24, 2026 15:39 -->
<!-- CommandLine: /tmp/retab_hymnal_L2/when_the_roll_is_called_up_yonder.abc -g -O /tmp/retab_hymnal_L2/when_the_roll_is_called_up_yonder -->
<g stroke-width="0.70">
<!-- title: 271. When The Roll Is Called Up Yonder -->
</g>
<g stroke-width="0.70" style="font:20.00px Times">
<text x="350.80" y="22.00" text-anchor="middle">271. When The Roll Is Called Up Yonder</text>
</g>
<g stroke-width="0.70" style="font:20.00px Times">
<path class="stroke" stroke-width="1"
	d="M10.00 143.00v-82.00"/>
<defs>
<path id="brace" class="fill" d="m-2.5 101
	c-4.5 -4.6 -7.5 -12.2 -4.4 -26.8
	3.5 -14.3 3.2 -21.7 -2.1 -24.2
	7.4 2.4 7.3 14.2 3.5 29.5
	-2.7 9.5 -1.5 16.2 3 21.5
	M-2.5 1c-4.5 4.6 -7.5 12.2 -4.4 26.8
	c3.5 14.3 3.2 21.7 -2.1 24.2
	7.4 -2.4 7.3 -14.2 3.5 -29.5
	-2.7 -9.5 -1.5 -16.2 3 -21.5"/>
</defs>
<g transform="translate(10.00,61.00) scale(1,0.82)">
	<use xlink:href="#brace"/>
</g>
<path class="stroke" stroke-width="1"
	d="M248.30 85.00v-24.00"/>
<path class="stroke" stroke-width="1"
	d="M248.30 143.00v-24.00"/>
<path class="stroke" stroke-width="1"
	d="M406.30 85.00v-24.00"/>
<path class="stroke" stroke-width="1"
	d="M406.30 143.00v-24.00"/>
<path class="stroke" stroke-width="1"
	d="M579.60 85.00v-24.00"/>
<path class="stroke" stroke-width="1"
	d="M579.60 143.00v-24.00"/>
<path class="stroke" stroke-width="1"
	d="M691.60 85.00v-24.00"/>
<path class="stroke" stroke-width="1"
	d="M691.60 143.00v-24.00"/>
<path d="m10.00 85.00
	h681.60
	M10.00 79.00
	h681.60
	M10.00 73.00
	h681.60
	M10.00 67.00
	h681.60
	M10.00 61.00
	h681.60
	" class="stroke"/>
<path d="m10.00 143.00
	h681.60
	M10.00 137.00
	h681.60
	M10.00 131.00
	h681.60
	M10.00 125.00
	h681.60
	M10.00 119.00
	h681.60
	" class="stroke"/>
</g>
<g stroke-width="0.70" style="font:bold 13.00px Times">
<text x="86.20" y="48.40">I</text>
</g>
<g stroke-width="0.70" style="font:bold 13.00px Times">
<text x="257.50" y="48.40">I<tspan
	 style="font:italic 11.00px Times">¹</tspan></text>
</g>
<g stroke-width="0.70" style="font:bold 13.00px Times">
<text x="417.50" y="48.40">I</text>
</g>
<g stroke-width="0.70" style="font:bold 13.00px Times">
<text x="588.70" y="56.40">V</text>
<defs>
<path id="utclef" class="fill" d="m-50 -90
	c-72 -41 -72 -158 52 -188
	150 -10 220 188 90 256
	-114 52 -275 0 -293 -136
	-15 -181 93 -229 220 -334
	88 -87 79 -133 62 -210
	-51 33 -94 105 -89 186
	17 267 36 374 49 574
	6 96 -19 134 -77 135
	-80 1 -126 -93 -61 -133
	85 -41 133 101 31 105
	23 17 92 37 90 -92
	-10 -223 -39 -342 -50 -617
	0 -90 0 -162 96 -232
	56 72 63 230 22 289
	-74 106 -257 168 -255 316
	9 153 148 185 252 133
	86 -65 29 -192 -80 -176
	-71 12 -105 67 -59 124"/>
<use id="tclef" transform="translate(0,6) scale(0.045)"
	xlink:href="#utclef"/>
</defs>
<use x="22.00" y="79.00" xlink:href="#tclef"/>
<defs>
<path id="uflat" class="fill" d="
	m100 -746
	h32
	v734
	l-32 4
	m32 -332
	c46 -72 152 -90 208 -20
	100 110 -120 326 -208 348
	m0 -28
	c54 0 200 -206 130 -290
	-50 -60 -130 -4 -130 34"/>
<use id="ft0" transform="translate(-3.5,3.5) scale(0.018)"
	xlink:href="#uflat"/>
</defs>
<use x="37.00" y="73.00" xlink:href="#ft0"/>
<use x="42.50" y="64.00" xlink:href="#ft0"/>
<use x="48.00" y="76.00" xlink:href="#ft0"/>
<use x="53.50" y="67.00" xlink:href="#ft0"/>
<g style="font:bold 16px serif"
	transform="translate(69.50,84.50) scale(1.2,1)">
	<text text-anchor="middle">4</text>
	<text y="-12" text-anchor="middle">4</text>
</g>
<defs>
<ellipse id="hd" rx="4.1" ry="2.9"
	transform="rotate(-20)" class="fill"/>
</defs>
<use x="88.00" y="76.00" xlink:href="#hd"/>
<circle class="fill" cx="95.70" cy="76.00" r="1.2"/>
<path d="M91.50 76.00v-21.00" class="stroke"/>
<path class="fill"
	d="M91.50 55.00c0.6 5.6 9.6 9 5.6 18.4
	1.6 -6 -1.3 -11.6 -5.6 -12.8
"/>
<use x="113.20" y="73.00" xlink:href="#hd"/>
<path d="M116.70 73.00v-22.00" class="stroke"/>
<path class="fill"
	d="M116.70 51.00c0.9 3.7 9.1 6.4 6 12.4
	1 -5.4 -4.2 -8.4 -6 -8.4
M116.70 56.40c0.9 3.7 9.1 6.4 6 12.4
	1 -5.4 -4.2 -8.4 -6 -8.4
"/>
<use x="129.40" y="70.00" xlink:href="#hd"/>
<circle class="fill" cx="137.10" cy="70.00" r="1.2"/>
<path d="M125.90 70.00v21.00" class="stroke"/>
<path class="fill"
	d="M125.90 91.00c0.6 -5.6 9.6 -9 5.6 -18.4
	1.6 6 -1.3 11.6 -5.6 12.8
"/>
<use x="154.50" y="70.00" xlink:href="#hd"/>
<path d="M151.00 70.00v23.00" class="stroke"/>
<path class="fill"
	d="M151.00 93.00c0.9 -3.7 9.1 -6.4 6 -12.4
	1 5.4 -4.2 8.4 -6 8.4
M151.00 87.60c0.9 -3.7 9.1 -6.4 6 -12.4
	1 5.4 -4.2 8.4 -6 8.4
"/>
<use x="170.00" y="70.00" xlink:href="#hd"/>
<circle class="fill" cx="177.70" cy="70.00" r="1.2"/>
<path d="M166.50 70.00v21.00" class="stroke"/>
<path class="fill"
	d="M166.50 91.00c0.6 -5.6 9.6 -9 5.6 -18.4
	1.6 6 -1.3 11.6 -5.6 12.8
"/>
<use x="195.20" y="70.00" xlink:href="#hd"/>
<path d="M191.70 70.00v23.00" class="stroke"/>
<path class="fill"
	d="M191.70 93.00c0.9 -3.7 9.1 -6.4 6 -12.4
	1 5.4 -4.2 8.4 -6 8.4
M191.70 87.60c0.9 -3.7 9.1 -6.4 6 -12.4
	1 5.4 -4.2 8.4 -6 8.4
"/>
<use x="210.70" y="70.00" xlink:href="#hd"/>
<circle class="fill" cx="218.40" cy="70.00" r="1.2"/>
<path d="M207.20 70.00v21.00" class="stroke"/>
<path class="fill"
	d="M207.20 91.00c0.6 -5.6 9.6 -9 5.6 -18.4
	1.6 6 -1.3 11.6 -5.6 12.8
"/>
<use x="235.80" y="73.00" xlink:href="#hd"/>
<path d="M232.30 73.00v23.00" class="stroke"/>
<path class="fill"
	d="M232.30 96.00c0.9 -3.7 9.1 -6.4 6 -12.4
	1 5.4 -4.2 8.4 -6 8.4
M232.30 90.60c0.9 -3.7 9.1 -6.4 6 -12.4
	1 5.4 -4.2 8.4 -6 8.4
"/>
<use x="261.30" y="76.00" xlink:href="#hd"/>
<circle class="fill" cx="269.00" cy="76.00" r="1.2"/>
<path d="M264.80 76.00v-21.00" class="stroke"/>
<path class="fill"
	d="M264.80 55.00c0.6 5.6 9.6 9 5.6 18.4
	1.6 -6 -1.3 -11.6 -5.6 -12.8
"/>
<use x="286.50" y="76.00" xlink:href="#hd"/>
<path d="M290.00 76.00v-22.00" class="stroke"/>
<path class="fill"
	d="M290.00 54.00c0.9 3.7 9.1 6.4 6 12.4
	1 -5.4 -4.2 -8.4 -6 -8.4
M290.00 59.40c0.9 3.7 9.1 6.4 6 12.4
	1 -5.4 -4.2 -8.4 -6 -8.4
"/>
<use x="302.40" y="73.00" xlink:href="#hd"/>
<circle class="fill" cx="310.10" cy="70.00" r="1.2"/>
<path d="M305.90 73.00v-21.00" class="stroke"/>
<path class="fill"
	d="M305.90 52.00c0.6 5.6 9.6 9 5.6 18.4
	1.6 -6 -1.3 -11.6 -5.6 -12.8
"/>
<use x="327.60" y="76.00" xlink:href="#hd"/>
<path d="M331.10 76.00v-22.00" class="stroke"/>
<path class="fill"
	d="M331.10 54.00c0.9 3.7 9.1 6.4 6 12.4
	1 -5.4 -4.2 -8.4 -6 -8.4
M331.10 59.40c0.9 3.7 9.1 6.4 6 12.4
	1 -5.4 -4.2 -8.4 -6 -8.4
"/>
<use x="343.50" y="76.00" xlink:href="#hd"/>
<circle class="fill" cx="351.20" cy="76.00" r="1.2"/>
<path d="M347.00 76.00v-21.00" class="stroke"/>
<path class="fill"
	d="M347.00 55.00c0.6 5.6 9.6 9 5.6 18.4
	1.6 -6 -1.3 -11.6 -5.6 -12.8
"/>
<use x="368.70" y="82.00" xlink:href="#hd"/>
<path d="M372.20 82.00v-22.00" class="stroke"/>
<path class="fill"
	d="M372.20 60.00c0.9 3.7 9.1 6.4 6 12.4
	1 -5.4 -4.2 -8.4 -6 -8.4
M372.20 65.40c0.9 3.7 9.1 6.4 6 12.4
	1 -5.4 -4.2 -8.4 -6 -8.4
"/>
<use x="384.60" y="85.00" xlink:href="#hd"/>
<path d="M388.10 85.00v-21.00" class="stroke"/>
<use x="419.30" y="76.00" xlink:href="#hd"/>
<circle class="fill" cx="427.00" cy="76.00" r="1.2"/>
<path d="M422.80 76.00v-21.00" class="stroke"/>
<path class="fill"
	d="M422.80 55.00c0.6 5.6 9.6 9 5.6 18.4
	1.6 -6 -1.3 -11.6 -5.6 -12.8
"/>
<use x="444.50" y="73.00" xlink:href="#hd"/>
<path d="M448.00 73.00v-22.00" class="stroke"/>
<path class="fill"
	d="M448.00 51.00c0.9 3.7 9.1 6.4 6 12.4
	1 -5.4 -4.2 -8.4 -6 -8.4
M448.00 56.40c0.9 3.7 9.1 6.4 6 12.4
	1 -5.4 -4.2 -8.4 -6 -8.4
"/>
<use x="460.70" y="70.00" xlink:href="#hd"/>
<circle class="fill" cx="468.40" cy="70.00" r="1.2"/>
<path d="M457.20 70.00v21.00" class="stroke"/>
<path class="fill"
	d="M457.20 91.00c0.6 -5.6 9.6 -9 5.6 -18.4
	1.6 6 -1.3 11.6 -5.6 12.8
"/>
<use x="485.80" y="70.00" xlink:href="#hd"/>
<path d="M482.30 70.00v23.00" class="stroke"/>
<path class="fill"
	d="M482.30 93.00c0.9 -3.7 9.1 -6.4 6 -12.4
	1 5.4 -4.2 8.4 -6 8.4
M482.30 87.60c0.9 -3.7 9.1 -6.4 6 -12.4
	1 5.4 -4.2 8.4 -6 8.4
"/>
<use x="501.30" y="70.00" xlink:href="#hd"/>
<circle class="fill" cx="509.00" cy="70.00" r="1.2"/>
<path d="M497.80 70.00v21.00" class="stroke"/>
<path class="fill"
	d="M497.80 91.00c0.6 -5.6 9.6 -9 5.6 -18.4
	1.6 6 -1.3 11.6 -5.6 12.8
"/>
<use x="526.50" y="70.00" xlink:href="#hd"/>
<path d="M523.00 70.00v23.00" class="stroke"/>
<path class="fill"
	d="M523.00 93.00c0.9 -3.7 9.1 -6.4 6 -12.4
	1 5.4 -4.2 8.4 -6 8.4
M523.00 87.60c0.9 -3.7 9.1 -6.4 6 -12.4
	1 5.4 -4.2 8.4 -6 8.4
"/>
<use x="542.00" y="70.00" xlink:href="#hd"/>
<circle class="fill" cx="549.70" cy="70.00" r="1.2"/>
<path d="M538.50 70.00v21.00" class="stroke"/>
<path class="fill"
	d="M538.50 91.00c0.6 -5.6 9.6 -9 5.6 -18.4
	1.6 6 -1.3 11.6 -5.6 12.8
"/>
<use x="567.10" y="70.00" xlink:href="#hd"/>
<path d="M563.60 70.00v23.00" class="stroke"/>
<path class="fill"
	d="M563.60 93.00c0.9 -3.7 9.1 -6.4 6 -12.4
	1 5.4 -4.2 8.4 -6 8.4
M563.60 87.60c0.9 -3.7 9.1 -6.4 6 -12.4
	1 5.4 -4.2 8.4 -6 8.4
"/>
<use x="592.60" y="73.00" xlink:href="#hd"/>
<circle class="fill" cx="600.30" cy="70.00" r="1.2"/>
<path d="M589.10 73.00v21.00" class="stroke"/>
<path class="fill"
	d="M589.10 94.00c0.6 -5.6 9.6 -9 5.6 -18.4
	1.6 6 -1.3 11.6 -5.6 12.8
"/>
<use x="615.40" y="76.00" xlink:href="#hd"/>
<path d="M618.90 76.00v-22.00" class="stroke"/>
<path class="fill"
	d="M618.90 54.00c0.9 3.7 9.1 6.4 6 12.4
	1 -5.4 -4.2 -8.4 -6 -8.4
M618.90 59.40c0.9 3.7 9.1 6.4 6 12.4
	1 -5.4 -4.2 -8.4 -6 -8.4
"/>
<defs>
<path id="Hd" class="fill" d="m3 -1.6
	c-1 -1.8 -7 1.4 -6 3.2
	1 1.8 7 -1.4 6 -3.2
	m0.5 -0.3
	c2 3.8 -5 7.6 -7 3.8
	-2 -3.8 5 -7.6 7 -3.8"/>
</defs>
<use x="631.50" y="73.00" xlink:href="#Hd"/>
<circle class="fill" cx="640.20" cy="70.00" r="1.2"/>
<path d="M635.00 73.00v-21.00" class="stroke"/>
<defs>
<path id="ubclef" class="fill" d="m-200 -87
	c124 -35 222 -78 254 -236
	43 -228 -167 -246 -192 -103
	59 -80 157 22 92 78
	-62 47 -115 -22 -106 -88
	21 -141 270 -136 274 52
	-1 175 -106 264 -322 297
	m357 -250
	c0 -36 51 -34 51 0
	0 37 -51 36 -51 0
	m-2 -129
	c0 -36 51 -34 51 0
	0 38 -51 37 -51 0"/>
<use id="bclef" transform="translate(0,18) scale(0.045)"
	xlink:href="#ubclef"/>
</defs>
<use x="22.00" y="125.00" xlink:href="#bclef"/>
<use x="37.00" y="137.00" xlink:href="#ft0"/>
<use x="42.50" y="128.00" xlink:href="#ft0"/>
<use x="48.00" y="140.00" xlink:href="#ft0"/>
<use x="53.50" y="131.00" xlink:href="#ft0"/>
<g style="font:bold 16px serif"
	transform="translate(69.50,142.50) scale(1.2,1)">
	<text text-anchor="middle">4</text>
	<text y="-12" text-anchor="middle">4</text>
</g>
<use x="88.00" y="140.00" xlink:href="#Hd"/>
<path d="M91.50 140.00v-21.00" class="stroke"/>
<use x="170.00" y="140.00" xlink:href="#Hd"/>
<path d="M173.50 140.00v-21.00" class="stroke"/>
<use x="261.30" y="140.00" xlink:href="#Hd"/>
<path d="M264.80 140.00v-21.00" class="stroke"/>
<use x="343.50" y="140.00" xlink:href="#Hd"/>
<path d="M347.00 140.00v-21.00" class="stroke"/>
<use x="419.30" y="140.00" xlink:href="#Hd"/>
<path d="M422.80 140.00v-21.00" class="stroke"/>
<use x="501.30" y="140.00" xlink:href="#Hd"/>
<path d="M504.80 140.00v-21.00" class="stroke"/>
<use x="592.60" y="128.00" xlink:href="#Hd"/>
<path d="M589.10 128.00v21.00" class="stroke"/>
<use x="660.60" y="128.00" xlink:href="#Hd"/>
<path d="M657.10 128.00v21.00" class="stroke"/>
</g>
<g stroke-width="0.70" style="font:bold 13.00px Times">
<path class="stroke" stroke-width="1"
	d="M10.00 273.40v-82.00"/>
<g transform="translate(10.00,191.40) scale(1,0.82)">
	<use xlink:href="#brace"/>
</g>
<path class="stroke" stroke-width="1"
	d="M234.60 215.40v-24.00"/>
<path class="stroke" stroke-width="1"
	d="M234.60 273.40v-24.00"/>
<path class="stroke" stroke-width="1"
	d="M394.90 215.40v-24.00"/>
<path class="stroke" stroke-width="1"
	d="M394.90 273.40v-24.00"/>
<path class="stroke" stroke-width="1"
	d="M575.40 215.40v-24.00"/>
<path class="stroke" stroke-width="1"
	d="M575.40 273.40v-24.00"/>
<path class="stroke" stroke-width="1"
	d="M691.60 215.40v-24.00"/>
<path class="stroke" stroke-width="1"
	d="M691.60 273.40v-24.00"/>
<path d="m10.00 215.40
	h681.60
	M10.00 209.40
	h681.60
	M10.00 203.40
	h681.60
	M10.00 197.40
	h681.60
	M10.00 191.40
	h681.60
	" class="stroke"/>
<path d="m10.00 273.40
	h681.60
	M10.00 267.40
	h681.60
	M10.00 261.40
	h681.60
	M10.00 255.40
	h681.60
	M10.00 249.40
	h681.60
	" class="stroke"/>
</g>
<g stroke-width="0.70" style="font:bold 13.00px Times">
<text x="70.20" y="178.80">I</text>
</g>
<g stroke-width="0.70" style="font:bold 13.00px Times">
<text x="243.90" y="178.80">I<tspan
	 style="font:italic 11.00px Times">¹</tspan></text>
</g>
<g stroke-width="0.70" style="font:bold 13.00px Times">
<text x="406.10" y="178.80">I</text>
</g>
<g stroke-width="0.70" style="font:bold 13.00px Times">
<text x="586.60" y="175.80">I</text>
<use x="22.00" y="209.40" xlink:href="#tclef"/>
<use x="37.00" y="203.40" xlink:href="#ft0"/>
<use x="42.50" y="194.40" xlink:href="#ft0"/>
<use x="48.00" y="206.40" xlink:href="#ft0"/>
<use x="53.50" y="197.40" xlink:href="#ft0"/>
<use x="72.00" y="206.40" xlink:href="#hd"/>
<circle class="fill" cx="79.70" cy="206.40" r="1.2"/>
<path d="M75.50 206.40v-21.00" class="stroke"/>
<path class="fill"
	d="M75.50 185.40c0.6 5.6 9.6 9 5.6 18.4
	1.6 -6 -1.3 -11.6 -5.6 -12.8
"/>
<use x="97.60" y="203.40" xlink:href="#hd"/>
<path d="M101.10 203.40v-22.00" class="stroke"/>
<path class="fill"
	d="M101.10 181.40c0.9 3.7 9.1 6.4 6 12.4
	1 -5.4 -4.2 -8.4 -6 -8.4
M101.10 186.80c0.9 3.7 9.1 6.4 6 12.4
	1 -5.4 -4.2 -8.4 -6 -8.4
"/>
<use x="114.00" y="200.40" xlink:href="#hd"/>
<circle class="fill" cx="121.70" cy="200.40" r="1.2"/>
<path d="M110.50 200.40v21.00" class="stroke"/>
<path class="fill"
	d="M110.50 221.40c0.6 -5.6 9.6 -9 5.6 -18.4
	1.6 6 -1.3 11.6 -5.6 12.8
"/>
<use x="139.50" y="200.40" xlink:href="#hd"/>
<path d="M136.00 200.40v23.00" class="stroke"/>
<path class="fill"
	d="M136.00 223.40c0.9 -3.7 9.1 -6.4 6 -12.4
	1 5.4 -4.2 8.4 -6 8.4
M136.00 218.00c0.9 -3.7 9.1 -6.4 6 -12.4
	1 5.4 -4.2 8.4 -6 8.4
"/>
<use x="155.30" y="200.40" xlink:href="#hd"/>
<circle class="fill" cx="163.00" cy="200.40" r="1.2"/>
<path d="M151.80 200.40v21.00" class="stroke"/>
<path class="fill"
	d="M151.80 221.40c0.6 -5.6 9.6 -9 5.6 -18.4
	1.6 6 -1.3 11.6 -5.6 12.8
"/>
<use x="180.80" y="200.40" xlink:href="#hd"/>
<path d="M177.30 200.40v23.00" class="stroke"/>
<path class="fill"
	d="M177.30 223.40c0.9 -3.7 9.1 -6.4 6 -12.4
	1 5.4 -4.2 8.4 -6 8.4
M177.30 218.00c0.9 -3.7 9.1 -6.4 6 -12.4
	1 5.4 -4.2 8.4 -6 8.4
"/>
<use x="196.60" y="200.40" xlink:href="#hd"/>
<circle class="fill" cx="204.30" cy="200.40" r="1.2"/>
<path d="M193.10 200.40v21.00" class="stroke"/>
<path class="fill"
	d="M193.10 221.40c0.6 -5.6 9.6 -9 5.6 -18.4
	1.6 6 -1.3 11.6 -5.6 12.8
"/>
<use x="222.10" y="203.40" xlink:href="#hd"/>
<path d="M218.60 203.40v23.00" class="stroke"/>
<path class="fill"
	d="M218.60 226.40c0.9 -3.7 9.1 -6.4 6 -12.4
	1 5.4 -4.2 8.4 -6 8.4
M218.60 221.00c0.9 -3.7 9.1 -6.4 6 -12.4
	1 5.4 -4.2 8.4 -6 8.4
"/>
<use x="247.60" y="206.40" xlink:href="#hd"/>
<circle class="fill" cx="255.30" cy="206.40" r="1.2"/>
<path d="M251.10 206.40v-21.00" class="stroke"/>
<path class="fill"
	d="M251.10 185.40c0.6 5.6 9.6 9 5.6 18.4
	1.6 -6 -1.3 -11.6 -5.6 -12.8
"/>
<use x="273.20" y="206.40" xlink:href="#hd"/>
<path d="M276.70 206.40v-22.00" class="stroke"/>
<path class="fill"
	d="M276.70 184.40c0.9 3.7 9.1 6.4 6 12.4
	1 -5.4 -4.2 -8.4 -6 -8.4
M276.70 189.80c0.9 3.7 9.1 6.4 6 12.4
	1 -5.4 -4.2 -8.4 -6 -8.4
"/>
<use x="289.40" y="203.40" xlink:href="#hd"/>
<circle class="fill" cx="297.10" cy="200.40" r="1.2"/>
<path d="M292.90 203.40v-21.00" class="stroke"/>
<path class="fill"
	d="M292.90 182.40c0.6 5.6 9.6 9 5.6 18.4
	1.6 -6 -1.3 -11.6 -5.6 -12.8
"/>
<use x="314.90" y="206.40" xlink:href="#hd"/>
<path d="M318.40 206.40v-22.00" class="stroke"/>
<path class="fill"
	d="M318.40 184.40c0.9 3.7 9.1 6.4 6 12.4
	1 -5.4 -4.2 -8.4 -6 -8.4
M318.40 189.80c0.9 3.7 9.1 6.4 6 12.4
	1 -5.4 -4.2 -8.4 -6 -8.4
"/>
<use x="331.10" y="206.40" xlink:href="#hd"/>
<circle class="fill" cx="338.80" cy="206.40" r="1.2"/>
<path d="M334.60 206.40v-21.00" class="stroke"/>
<path class="fill"
	d="M334.60 185.40c0.6 5.6 9.6 9 5.6 18.4
	1.6 -6 -1.3 -11.6 -5.6 -12.8
"/>
<use x="356.70" y="212.40" xlink:href="#hd"/>
<path d="M360.20 212.40v-22.00" class="stroke"/>
<path class="fill"
	d="M360.20 190.40c0.9 3.7 9.1 6.4 6 12.4
	1 -5.4 -4.2 -8.4 -6 -8.4
M360.20 195.80c0.9 3.7 9.1 6.4 6 12.4
	1 -5.4 -4.2 -8.4 -6 -8.4
"/>
<use x="372.80" y="215.40" xlink:href="#hd"/>
<path d="M376.30 215.40v-21.00" class="stroke"/>
<use x="407.90" y="206.40" xlink:href="#hd"/>
<circle class="fill" cx="415.60" cy="206.40" r="1.2"/>
<path d="M411.40 206.40v-21.00" class="stroke"/>
<path class="fill"
	d="M411.40 185.40c0.6 5.6 9.6 9 5.6 18.4
	1.6 -6 -1.3 -11.6 -5.6 -12.8
"/>
<use x="433.40" y="203.40" xlink:href="#hd"/>
<path d="M436.90 203.40v-22.00" class="stroke"/>
<path class="fill"
	d="M436.90 181.40c0.9 3.7 9.1 6.4 6 12.4
	1 -5.4 -4.2 -8.4 -6 -8.4
M436.90 186.80c0.9 3.7 9.1 6.4 6 12.4
	1 -5.4 -4.2 -8.4 -6 -8.4
"/>
<use x="449.80" y="200.40" xlink:href="#hd"/>
<circle class="fill" cx="457.50" cy="200.40" r="1.2"/>
<path d="M446.30 200.40v21.00" class="stroke"/>
<path class="fill"
	d="M446.30 221.40c0.6 -5.6 9.6 -9 5.6 -18.4
	1.6 6 -1.3 11.6 -5.6 12.8
"/>
<use x="475.40" y="200.40" xlink:href="#hd"/>
<path d="M471.90 200.40v23.00" class="stroke"/>
<path class="fill"
	d="M471.90 223.40c0.9 -3.7 9.1 -6.4 6 -12.4
	1 5.4 -4.2 8.4 -6 8.4
M471.90 218.00c0.9 -3.7 9.1 -6.4 6 -12.4
	1 5.4 -4.2 8.4 -6 8.4
"/>
<use x="491.10" y="200.40" xlink:href="#hd"/>
<circle class="fill" cx="498.80" cy="200.40" r="1.2"/>
<path d="M487.60 200.40v21.00" class="stroke"/>
<path class="fill"
	d="M487.60 221.40c0.6 -5.6 9.6 -9 5.6 -18.4
	1.6 6 -1.3 11.6 -5.6 12.8
"/>
<use x="516.70" y="206.40" xlink:href="#hd"/>
<path d="M520.20 206.40v-22.00" class="stroke"/>
<path class="fill"
	d="M520.20 184.40c0.9 3.7 9.1 6.4 6 12.4
	1 -5.4 -4.2 -8.4 -6 -8.4
M520.20 189.80c0.9 3.7 9.1 6.4 6 12.4
	1 -5.4 -4.2 -8.4 -6 -8.4
"/>
<use x="532.90" y="203.40" xlink:href="#hd"/>
<circle class="fill" cx="540.60" cy="200.40" r="1.2"/>
<path d="M536.40 203.40v-21.00" class="stroke"/>
<path class="fill"
	d="M536.40 182.40c0.6 5.6 9.6 9 5.6 18.4
	1.6 -6 -1.3 -11.6 -5.6 -12.8
"/>
<use x="558.40" y="203.40" xlink:href="#hd"/>
<path d="M561.90 203.40v-22.00" class="stroke"/>
<path class="fill"
	d="M561.90 181.40c0.9 3.7 9.1 6.4 6 12.4
	1 -5.4 -4.2 -8.4 -6 -8.4
M561.90 186.80c0.9 3.7 9.1 6.4 6 12.4
	1 -5.4 -4.2 -8.4 -6 -8.4
"/>
<use x="588.40" y="203.40" xlink:href="#hd"/>
<circle class="fill" cx="596.10" cy="200.40" r="1.2"/>
<path d="M591.90 203.40v-21.00" class="stroke"/>
<path class="fill"
	d="M591.90 182.40c0.6 5.6 9.6 9 5.6 18.4
	1.6 -6 -1.3 -11.6 -5.6 -12.8
"/>
<use x="614.00" y="209.40" xlink:href="#hd"/>
<path d="M617.50 209.40v-22.00" class="stroke"/>
<path class="fill"
	d="M617.50 187.40c0.9 3.7 9.1 6.4 6 12.4
	1 -5.4 -4.2 -8.4 -6 -8.4
M617.50 192.80c0.9 3.7 9.1 6.4 6 12.4
	1 -5.4 -4.2 -8.4 -6 -8.4
"/>
<use x="630.20" y="206.40" xlink:href="#Hd"/>
<circle class="fill" cx="638.90" cy="206.40" r="1.2"/>
<path d="M633.70 206.40v-21.00" class="stroke"/>
<use x="22.00" y="255.40" xlink:href="#bclef"/>
<use x="37.00" y="267.40" xlink:href="#ft0"/>
<use x="42.50" y="258.40" xlink:href="#ft0"/>
<use x="48.00" y="270.40" xlink:href="#ft0"/>
<use x="53.50" y="261.40" xlink:href="#ft0"/>
<use x="72.00" y="270.40" xlink:href="#Hd"/>
<path d="M75.50 270.40v-21.00" class="stroke"/>
<use x="155.30" y="270.40" xlink:href="#Hd"/>
<path d="M158.80 270.40v-21.00" class="stroke"/>
<use x="247.60" y="270.40" xlink:href="#Hd"/>
<path d="M251.10 270.40v-21.00" class="stroke"/>
<use x="331.10" y="270.40" xlink:href="#Hd"/>
<path d="M334.60 270.40v-21.00" class="stroke"/>
<use x="407.90" y="270.40" xlink:href="#Hd"/>
<path d="M411.40 270.40v-21.00" class="stroke"/>
<use x="491.10" y="270.40" xlink:href="#Hd"/>
<path d="M494.60 270.40v-21.00" class="stroke"/>
<use x="588.40" y="270.40" xlink:href="#Hd"/>
<path d="M591.90 270.40v-21.00" class="stroke"/>
<use x="660.10" y="270.40" xlink:href="#Hd"/>
<path d="M663.60 270.40v-21.00" class="stroke"/>
</g>
<g stroke-width="0.70" style="font:bold 13.00px Times">
<path class="stroke" stroke-width="1"
	d="M10.00 401.40v-82.00"/>
<g transform="translate(10.00,319.40) scale(1,0.82)">
	<use xlink:href="#brace"/>
</g>
<path class="stroke" stroke-width="1"
	d="M191.30 343.40v-24.00"/>
<path class="stroke" stroke-width="1"
	d="M191.30 401.40v-24.00"/>
<path class="stroke" stroke-width="1"
	d="M307.90 343.40v-24.00"/>
<path class="stroke" stroke-width="1"
	d="M307.90 401.40v-24.00"/>
<path class="stroke" stroke-width="1"
	d="M442.70 343.40v-24.00"/>
<path class="stroke" stroke-width="1"
	d="M442.70 401.40v-24.00"/>
<path class="stroke" stroke-width="1"
	d="M559.30 343.40v-24.00"/>
<path class="stroke" stroke-width="1"
	d="M559.30 401.40v-24.00"/>
<path class="stroke" stroke-width="1"
	d="M691.60 343.40v-24.00"/>
<path class="stroke" stroke-width="1"
	d="M691.60 401.40v-24.00"/>
<path d="m10.00 343.40
	h681.60
	M10.00 337.40
	h681.60
	M10.00 331.40
	h681.60
	M10.00 325.40
	h681.60
	M10.00 319.40
	h681.60
	" class="stroke"/>
<path d="m10.00 401.40
	h681.60
	M10.00 395.40
	h681.60
	M10.00 389.40
	h681.60
	M10.00 383.40
	h681.60
	M10.00 377.40
	h681.60
	" class="stroke"/>
</g>
<g stroke-width="0.70" style="font:bold 13.00px Times">
<text x="70.20" y="314.80">I</text>
</g>
<g stroke-width="0.70" style="font:bold 13.00px Times">
<text x="202.40" y="314.80">I</text>
</g>
<g stroke-width="0.70" style="font:bold 13.00px Times">
<text x="315.00" y="314.80">V<tspan
	 style="font:italic 11.00px Times">⁷</tspan></text>
</g>
<g stroke-width="0.70" style="font:bold 13.00px Times">
<text x="453.90" y="314.80">I</text>
</g>
<g stroke-width="0.70" style="font:bold 13.00px Times">
<text x="564.60" y="314.80">IV<tspan
	 style="font:italic 11.00px Times">⁷</tspan></text>
</g>
<g stroke-width="0.70" style="font:italic 11.00px Times">
<use x="22.00" y="337.40" xlink:href="#tclef"/>
<use x="37.00" y="331.40" xlink:href="#ft0"/>
<use x="42.50" y="322.40" xlink:href="#ft0"/>
<use x="48.00" y="334.40" xlink:href="#ft0"/>
<use x="53.50" y="325.40" xlink:href="#ft0"/>
<use x="72.00" y="328.40" xlink:href="#hd"/>
<circle class="fill" cx="79.70" cy="328.40" r="1.2"/>
<path d="M68.50 328.40v21.00" class="stroke"/>
<path class="fill"
	d="M68.50 349.40c0.6 -5.6 9.6 -9 5.6 -18.4
	1.6 6 -1.3 11.6 -5.6 12.8
"/>
<use x="94.10" y="325.40" xlink:href="#hd"/>
<path d="M90.60 325.40v23.00" class="stroke"/>
<path class="fill"
	d="M90.60 348.40c0.9 -3.7 9.1 -6.4 6 -12.4
	1 5.4 -4.2 8.4 -6 8.4
M90.60 343.00c0.9 -3.7 9.1 -6.4 6 -12.4
	1 5.4 -4.2 8.4 -6 8.4
"/>
<use x="107.80" y="322.40" xlink:href="#Hd"/>
<path d="M104.30 322.40v21.00" class="stroke"/>
<use x="156.60" y="322.40" xlink:href="#hd"/>
<circle class="fill" cx="164.30" cy="322.40" r="1.2"/>
<path d="M153.10 322.40v21.00" class="stroke"/>
<path class="fill"
	d="M153.10 343.40c0.6 -5.6 9.6 -9 5.6 -18.4
	1.6 6 -1.3 11.6 -5.6 12.8
"/>
<use x="178.80" y="325.40" xlink:href="#hd"/>
<path d="M175.30 325.40v23.00" class="stroke"/>
<path class="fill"
	d="M175.30 348.40c0.9 -3.7 9.1 -6.4 6 -12.4
	1 5.4 -4.2 8.4 -6 8.4
M175.30 343.00c0.9 -3.7 9.1 -6.4 6 -12.4
	1 5.4 -4.2 8.4 -6 8.4
"/>
<use x="204.30" y="328.40" xlink:href="#hd"/>
<circle class="fill" cx="212.00" cy="328.40" r="1.2"/>
<path d="M200.80 328.40v21.00" class="stroke"/>
<path class="fill"
	d="M200.80 349.40c0.6 -5.6 9.6 -9 5.6 -18.4
	1.6 6 -1.3 11.6 -5.6 12.8
"/>
<use x="226.40" y="325.40" xlink:href="#hd"/>
<path d="M222.90 325.40v23.00" class="stroke"/>
<path class="fill"
	d="M222.90 348.40c0.9 -3.7 9.1 -6.4 6 -12.4
	1 5.4 -4.2 8.4 -6 8.4
M222.90 343.00c0.9 -3.7 9.1 -6.4 6 -12.4
	1 5.4 -4.2 8.4 -6 8.4
"/>
<use x="240.10" y="322.40" xlink:href="#Hd"/>
<path d="M236.60 322.40v21.00" class="stroke"/>
<use x="288.90" y="328.40" xlink:href="#hd"/>
<path d="M285.40 328.40v21.00" class="stroke"/>
<use x="320.90" y="328.40" xlink:href="#hd"/>
<circle class="fill" cx="328.60" cy="328.40" r="1.2"/>
<path d="M317.40 328.40v21.00" class="stroke"/>
<path class="fill"
	d="M317.40 349.40c0.6 -5.6 9.6 -9 5.6 -18.4
	1.6 6 -1.3 11.6 -5.6 12.8
"/>
<use x="343.10" y="328.40" xlink:href="#hd"/>
<path d="M339.60 328.40v23.00" class="stroke"/>
<path class="fill"
	d="M339.60 351.40c0.9 -3.7 9.1 -6.4 6 -12.4
	1 5.4 -4.2 8.4 -6 8.4
M339.60 346.00c0.9 -3.7 9.1 -6.4 6 -12.4
	1 5.4 -4.2 8.4 -6 8.4
"/>
<use x="356.70" y="325.40" xlink:href="#Hd"/>
<path d="M353.20 325.40v21.00" class="stroke"/>
<use x="408.00" y="325.40" xlink:href="#hd"/>
<circle class="fill" cx="415.70" cy="322.40" r="1.2"/>
<path d="M404.50 325.40v21.00" class="stroke"/>
<path class="fill"
	d="M404.50 346.40c0.6 -5.6 9.6 -9 5.6 -18.4
	1.6 6 -1.3 11.6 -5.6 12.8
"/>
<use x="430.20" y="328.40" xlink:href="#hd"/>
<path d="M426.70 328.40v23.00" class="stroke"/>
<path class="fill"
	d="M426.70 351.40c0.9 -3.7 9.1 -6.4 6 -12.4
	1 5.4 -4.2 8.4 -6 8.4
M426.70 346.00c0.9 -3.7 9.1 -6.4 6 -12.4
	1 5.4 -4.2 8.4 -6 8.4
"/>
<use x="455.70" y="331.40" xlink:href="#hd"/>
<circle class="fill" cx="463.40" cy="328.40" r="1.2"/>
<path d="M452.20 331.40v21.00" class="stroke"/>
<path class="fill"
	d="M452.20 352.40c0.6 -5.6 9.6 -9 5.6 -18.4
	1.6 6 -1.3 11.6 -5.6 12.8
"/>
<use x="477.80" y="328.40" xlink:href="#hd"/>
<path d="M474.30 328.40v23.00" class="stroke"/>
<path class="fill"
	d="M474.30 351.40c0.9 -3.7 9.1 -6.4 6 -12.4
	1 5.4 -4.2 8.4 -6 8.4
M474.30 346.00c0.9 -3.7 9.1 -6.4 6 -12.4
	1 5.4 -4.2 8.4 -6 8.4
"/>
<use x="491.50" y="325.40" xlink:href="#Hd"/>
<path d="M488.00 325.40v21.00" class="stroke"/>
<use x="540.30" y="331.40" xlink:href="#hd"/>
<path d="M536.80 331.40v21.00" class="stroke"/>
<use x="572.30" y="328.40" xlink:href="#hd"/>
<circle class="fill" cx="580.00" cy="328.40" r="1.2"/>
<path d="M568.80 328.40v21.00" class="stroke"/>
<path class="fill"
	d="M568.80 349.40c0.6 -5.6 9.6 -9 5.6 -18.4
	1.6 6 -1.3 11.6 -5.6 12.8
"/>
<use x="594.50" y="325.40" xlink:href="#hd"/>
<path d="M591.00 325.40v23.00" class="stroke"/>
<path class="fill"
	d="M591.00 348.40c0.9 -3.7 9.1 -6.4 6 -12.4
	1 5.4 -4.2 8.4 -6 8.4
M591.00 343.00c0.9 -3.7 9.1 -6.4 6 -12.4
	1 5.4 -4.2 8.4 -6 8.4
"/>
<use x="608.20" y="322.40" xlink:href="#Hd"/>
<path d="M604.70 322.40v21.00" class="stroke"/>
<use x="657.00" y="322.40" xlink:href="#hd"/>
<circle class="fill" cx="664.70" cy="322.40" r="1.2"/>
<path d="M653.50 322.40v21.00" class="stroke"/>
<path class="fill"
	d="M653.50 343.40c0.6 -5.6 9.6 -9 5.6 -18.4
	1.6 6 -1.3 11.6 -5.6 12.8
"/>
<use x="679.10" y="328.40" xlink:href="#hd"/>
<path d="M675.60 328.40v23.00" class="stroke"/>
<path class="fill"
	d="M675.60 351.40c0.9 -3.7 9.1 -6.4 6 -12.4
	1 5.4 -4.2 8.4 -6 8.4
M675.60 346.00c0.9 -3.7 9.1 -6.4 6 -12.4
	1 5.4 -4.2 8.4 -6 8.4
"/>
<use x="22.00" y="383.40" xlink:href="#bclef"/>
<use x="37.00" y="395.40" xlink:href="#ft0"/>
<use x="42.50" y="386.40" xlink:href="#ft0"/>
<use x="48.00" y="398.40" xlink:href="#ft0"/>
<use x="53.50" y="389.40" xlink:href="#ft0"/>
<use x="72.00" y="398.40" xlink:href="#Hd"/>
<path d="M75.50 398.40v-21.00" class="stroke"/>
<use x="130.40" y="398.40" xlink:href="#Hd"/>
<path d="M133.90 398.40v-21.00" class="stroke"/>
<use x="204.30" y="398.40" xlink:href="#Hd"/>
<path d="M207.80 398.40v-21.00" class="stroke"/>
<use x="262.70" y="398.40" xlink:href="#Hd"/>
<path d="M266.20 398.40v-21.00" class="stroke"/>
<use x="320.90" y="386.40" xlink:href="#Hd"/>
<path d="M317.40 386.40v21.00" class="stroke"/>
<use x="381.80" y="386.40" xlink:href="#Hd"/>
<path d="M378.30 386.40v21.00" class="stroke"/>
<use x="455.70" y="398.40" xlink:href="#Hd"/>
<path d="M459.20 398.40v-21.00" class="stroke"/>
<use x="514.10" y="398.40" xlink:href="#Hd"/>
<path d="M517.60 398.40v-21.00" class="stroke"/>
<use x="572.30" y="389.40" xlink:href="#Hd"/>
<path d="M575.80 389.40v-21.00" class="stroke"/>
<use x="630.70" y="389.40" xlink:href="#Hd"/>
<path d="M634.20 389.40v-21.00" class="stroke"/>
</g>
<g stroke-width="0.70" style="font:italic 11.00px Times">
<path class="stroke" stroke-width="1"
	d="M10.00 531.80v-82.00"/>
<g transform="translate(10.00,449.80) scale(1,0.82)">
	<use xlink:href="#brace"/>
</g>
<path class="stroke" stroke-width="1"
	d="M260.10 473.80v-24.00"/>
<path class="stroke" stroke-width="1"
	d="M260.10 531.80v-24.00"/>
<path class="stroke" stroke-width="1"
	d="M516.70 473.80v-24.00"/>
<path class="stroke" stroke-width="1"
	d="M516.70 531.80v-24.00"/>
<path class="stroke" stroke-width="1"
	d="M691.60 473.80v-24.00"/>
<path class="stroke" stroke-width="1"
	d="M691.60 531.80v-24.00"/>
<path d="m10.00 473.80
	h681.60
	M10.00 467.80
	h681.60
	M10.00 461.80
	h681.60
	M10.00 455.80
	h681.60
	M10.00 449.80
	h681.60
	" class="stroke"/>
<path d="m10.00 531.80
	h681.60
	M10.00 525.80
	h681.60
	M10.00 519.80
	h681.60
	M10.00 513.80
	h681.60
	M10.00 507.80
	h681.60
	" class="stroke"/>
</g>
<g stroke-width="0.70" style="font:bold 13.00px Times">
<text x="66.10" y="445.20">V<tspan
	 style="font:italic 11.00px Times">⁷</tspan></text>
</g>
<g stroke-width="0.70" style="font:bold 13.00px Times">
<text x="269.30" y="445.20">IV<tspan
	 style="font:italic 11.00px Times">²</tspan></text>
</g>
<g stroke-width="0.70" style="font:bold 13.00px Times">
<text x="531.90" y="434.20">I</text>
<use x="22.00" y="467.80" xlink:href="#tclef"/>
<use x="37.00" y="461.80" xlink:href="#ft0"/>
<use x="42.50" y="452.80" xlink:href="#ft0"/>
<use x="48.00" y="464.80" xlink:href="#ft0"/>
<use x="53.50" y="455.80" xlink:href="#ft0"/>
<use x="72.00" y="461.80" xlink:href="#hd"/>
<circle class="fill" cx="79.70" cy="458.80" r="1.2"/>
<path d="M68.50 461.80v21.00" class="stroke"/>
<path class="fill"
	d="M68.50 482.80c0.6 -5.6 9.6 -9 5.6 -18.4
	1.6 6 -1.3 11.6 -5.6 12.8
"/>
<use x="106.70" y="464.80" xlink:href="#hd"/>
<path d="M110.20 464.80v-22.00" class="stroke"/>
<path class="fill"
	d="M110.20 442.80c0.9 3.7 9.1 6.4 6 12.4
	1 -5.4 -4.2 -8.4 -6 -8.4
M110.20 448.20c0.9 3.7 9.1 6.4 6 12.4
	1 -5.4 -4.2 -8.4 -6 -8.4
"/>
<use x="130.70" y="464.80" xlink:href="#Hd"/>
<path d="M134.20 464.80v-21.00" class="stroke"/>
<use x="226.50" y="455.80" xlink:href="#hd"/>
<path d="M223.00 455.80v21.00" class="stroke"/>
<use x="277.00" y="455.80" xlink:href="#hd"/>
<circle class="fill" cx="284.70" cy="452.80" r="1.2"/>
<path d="M273.50 455.80v21.00" class="stroke"/>
<path class="fill"
	d="M273.50 476.80c0.6 -5.6 9.6 -9 5.6 -18.4
	1.6 6 -1.3 11.6 -5.6 12.8
"/>
<use x="315.60" y="461.80" xlink:href="#hd"/>
<path d="M312.10 461.80v23.00" class="stroke"/>
<path class="fill"
	d="M312.10 484.80c0.9 -3.7 9.1 -6.4 6 -12.4
	1 5.4 -4.2 8.4 -6 8.4
M312.10 479.40c0.9 -3.7 9.1 -6.4 6 -12.4
	1 5.4 -4.2 8.4 -6 8.4
"/>
<use x="339.60" y="458.80" xlink:href="#hd"/>
<circle class="fill" cx="347.30" cy="458.80" r="1.2"/>
<path d="M336.10 458.80v21.00" class="stroke"/>
<path class="fill"
	d="M336.10 479.80c0.6 -5.6 9.6 -9 5.6 -18.4
	1.6 6 -1.3 11.6 -5.6 12.8
"/>
<use x="378.10" y="458.80" xlink:href="#hd"/>
<path d="M374.60 458.80v23.00" class="stroke"/>
<path class="fill"
	d="M374.60 481.80c0.9 -3.7 9.1 -6.4 6 -12.4
	1 5.4 -4.2 8.4 -6 8.4
M374.60 476.40c0.9 -3.7 9.1 -6.4 6 -12.4
	1 5.4 -4.2 8.4 -6 8.4
"/>
<use x="402.10" y="458.80" xlink:href="#hd"/>
<circle class="fill" cx="409.80" cy="458.80" r="1.2"/>
<path d="M398.60 458.80v21.00" class="stroke"/>
<path class="fill"
	d="M398.60 479.80c0.6 -5.6 9.6 -9 5.6 -18.4
	1.6 6 -1.3 11.6 -5.6 12.8
"/>
<use x="436.80" y="464.80" xlink:href="#hd"/>
<path d="M440.30 464.80v-22.00" class="stroke"/>
<path class="fill"
	d="M440.30 442.80c0.9 3.7 9.1 6.4 6 12.4
	1 -5.4 -4.2 -8.4 -6 -8.4
M440.30 448.20c0.9 3.7 9.1 6.4 6 12.4
	1 -5.4 -4.2 -8.4 -6 -8.4
"/>
<use x="460.80" y="461.80" xlink:href="#hd"/>
<circle class="fill" cx="468.50" cy="458.80" r="1.2"/>
<path d="M464.30 461.80v-21.00" class="stroke"/>
<path class="fill"
	d="M464.30 440.80c0.6 5.6 9.6 9 5.6 18.4
	1.6 -6 -1.3 -11.6 -5.6 -12.8
"/>
<use x="499.40" y="461.80" xlink:href="#hd"/>
<path d="M502.90 461.80v-22.00" class="stroke"/>
<path class="fill"
	d="M502.90 439.80c0.9 3.7 9.1 6.4 6 12.4
	1 -5.4 -4.2 -8.4 -6 -8.4
M502.90 445.20c0.9 3.7 9.1 6.4 6 12.4
	1 -5.4 -4.2 -8.4 -6 -8.4
"/>
<use x="533.70" y="461.80" xlink:href="#hd"/>
<circle class="fill" cx="541.40" cy="458.80" r="1.2"/>
<path d="M537.20 461.80v-21.00" class="stroke"/>
<path class="fill"
	d="M537.20 440.80c0.6 5.6 9.6 9 5.6 18.4
	1.6 -6 -1.3 -11.6 -5.6 -12.8
"/>
<use x="572.30" y="467.80" xlink:href="#hd"/>
<path d="M575.80 467.80v-22.00" class="stroke"/>
<path class="fill"
	d="M575.80 445.80c0.9 3.7 9.1 6.4 6 12.4
	1 -5.4 -4.2 -8.4 -6 -8.4
M575.80 451.20c0.9 3.7 9.1 6.4 6 12.4
	1 -5.4 -4.2 -8.4 -6 -8.4
"/>
<use x="596.20" y="464.80" xlink:href="#Hd"/>
<circle class="fill" cx="604.90" cy="464.80" r="1.2"/>
<path d="M599.70 464.80v-21.00" class="stroke"/>
<use x="22.00" y="513.80" xlink:href="#bclef"/>
<use x="37.00" y="525.80" xlink:href="#ft0"/>
<use x="42.50" y="516.80" xlink:href="#ft0"/>
<use x="48.00" y="528.80" xlink:href="#ft0"/>
<use x="53.50" y="519.80" xlink:href="#ft0"/>
<use x="72.00" y="516.80" xlink:href="#Hd"/>
<path d="M68.50 516.80v21.00" class="stroke"/>
<use x="178.60" y="516.80" xlink:href="#Hd"/>
<path d="M175.10 516.80v21.00" class="stroke"/>
<use x="277.00" y="519.80" xlink:href="#Hd"/>
<path d="M273.50 519.80v21.00" class="stroke"/>
<use x="402.10" y="519.80" xlink:href="#Hd"/>
<path d="M398.60 519.80v21.00" class="stroke"/>
<use x="533.70" y="528.80" xlink:href="#Hd"/>
<path d="M537.20 528.80v-21.00" class="stroke"/>
<use x="644.10" y="528.80" xlink:href="#Hd"/>
<path d="M647.60 528.80v-21.00" class="stroke"/>
</g>
</svg>
