<?xml version="1.0" standalone="no"?>
<!DOCTYPE svg PUBLIC "-//W3C//DTD SVG 1.1//EN"
	"http://www.w3.org/Graphics/SVG/1.1/DTD/svg11.dtd">
<svg xmlns="http://www.w3.org/2000/svg" version="1.1"
	xmlns:xlink="http://www.w3.org/1999/xlink"
	color="black"
	width="701.60px" height="326.80px" viewBox="0 0 701.60 326.80" preserveAspectRatio="xMidYMid meet">
<style type="text/css">
.fill {fill: currentColor}
.stroke {stroke: currentColor; fill: none}
text{white-space: pre}
</style>
<title>/tmp/reharm_hymnal_L5/at_the_lamb_s_high_feast.abc (1) tune 1</title>
<!-- Creator: abcm2ps-8.14.11 -->
<!-- CreationDate: Apr 24, 2026 15:32 -->
<!-- CommandLine: /tmp/reharm_hymnal_L5/at_the_lamb_s_high_feast.abc -g -O /tmp/reharm_hymnal_L5/at_the_lamb_s_high_feast -->
<g stroke-width="0.70">
<!-- title: 026. At The Lamb's High Feast -->
</g>
<g stroke-width="0.70" style="font:20.00px Times">
<text x="350.80" y="22.00" text-anchor="middle">026. At The Lamb&apos;s High Feast</text>
</g>
<g stroke-width="0.70" style="font:20.00px Times">
<path class="stroke" stroke-width="1"
	d="M10.00 143.40v-82.00"/>
<defs>
<path id="brace" class="fill" d="m-2.5 101
	c-4.5 -4.6 -7.5 -12.2 -4.4 -26.8
	3.5 -14.3 3.2 -21.7 -2.1 -24.2
	7.4 2.4 7.3 14.2 3.5 29.5
	-2.7 9.5 -1.5 16.2 3 21.5
	M-2.5 1c-4.5 4.6 -7.5 12.2 -4.4 26.8
	c3.5 14.3 3.2 21.7 -2.1 24.2
	7.4 -2.4 7.3 -14.2 3.5 -29.5
	-2.7 -9.5 -1.5 -16.2 3 -21.5"/>
</defs>
<g transform="translate(10.00,61.40) scale(1,0.82)">
	<use xlink:href="#brace"/>
</g>
<path class="stroke" stroke-width="1"
	d="M154.60 85.40v-24.00"/>
<path class="stroke" stroke-width="1"
	d="M154.60 143.40v-24.00"/>
<path class="stroke" stroke-width="1"
	d="M290.80 85.40v-24.00"/>
<path class="stroke" stroke-width="1"
	d="M290.80 143.40v-24.00"/>
<path class="stroke" stroke-width="1"
	d="M411.50 85.40v-24.00"/>
<path class="stroke" stroke-width="1"
	d="M411.50 143.40v-24.00"/>
<path class="stroke" stroke-width="1"
	d="M545.30 85.40v-24.00"/>
<path class="stroke" stroke-width="1"
	d="M545.30 143.40v-24.00"/>
<path class="stroke" stroke-width="1"
	d="M691.60 85.40v-24.00"/>
<path class="stroke" stroke-width="1"
	d="M691.60 143.40v-24.00"/>
<path d="m10.00 85.40
	h681.60
	M10.00 79.40
	h681.60
	M10.00 73.40
	h681.60
	M10.00 67.40
	h681.60
	M10.00 61.40
	h681.60
	" class="stroke"/>
<path d="m10.00 143.40
	h681.60
	M10.00 137.40
	h681.60
	M10.00 131.40
	h681.60
	M10.00 125.40
	h681.60
	M10.00 119.40
	h681.60
	" class="stroke"/>
</g>
<g stroke-width="0.70" style="font:bold 13.00px Times">
<text x="68.30" y="56.80">I<tspan
	 style="font:italic 11.00px Times">Δ⁷</tspan></text>
</g>
<g stroke-width="0.70" style="font:bold 13.00px Times">
<text x="171.60" y="47.80">ii<tspan
	 style="font:italic 11.00px Times">m⁷</tspan></text>
</g>
<g stroke-width="0.70" style="font:bold 13.00px Times">
<text x="307.80" y="48.80">IV<tspan
	 style="font:italic 11.00px Times">Δ⁷²</tspan></text>
</g>
<g stroke-width="0.70" style="font:bold 13.00px Times">
<text x="416.00" y="48.80">iii<tspan
	 style="font:italic 11.00px Times">m⁷</tspan></text>
</g>
<g stroke-width="0.70" style="font:bold 13.00px Times">
<text x="552.00" y="54.80">I<tspan
	 style="font:italic 11.00px Times">Δ⁷</tspan></text>
</g>
<g stroke-width="0.70" style="font:italic 11.00px Times">
<defs>
<path id="utclef" class="fill" d="m-50 -90
	c-72 -41 -72 -158 52 -188
	150 -10 220 188 90 256
	-114 52 -275 0 -293 -136
	-15 -181 93 -229 220 -334
	88 -87 79 -133 62 -210
	-51 33 -94 105 -89 186
	17 267 36 374 49 574
	6 96 -19 134 -77 135
	-80 1 -126 -93 -61 -133
	85 -41 133 101 31 105
	23 17 92 37 90 -92
	-10 -223 -39 -342 -50 -617
	0 -90 0 -162 96 -232
	56 72 63 230 22 289
	-74 106 -257 168 -255 316
	9 153 148 185 252 133
	86 -65 29 -192 -80 -176
	-71 12 -105 67 -59 124"/>
<use id="tclef" transform="translate(0,6) scale(0.045)"
	xlink:href="#utclef"/>
</defs>
<use x="22.00" y="79.40" xlink:href="#tclef"/>
<g style="font:bold 16px serif"
	transform="translate(40.50,84.90) scale(1.2,1)">
	<text text-anchor="middle">4</text>
	<text y="-12" text-anchor="middle">4</text>
</g>
<defs>
<path id="hl" class="stroke" d="m-6 0h12"/>
</defs>
<use x="74.00" y="91.40" xlink:href="#hl"/>
<defs>
<path id="Hd" class="fill" d="m3 -1.6
	c-1 -1.8 -7 1.4 -6 3.2
	1 1.8 7 -1.4 6 -3.2
	m0.5 -0.3
	c2 3.8 -5 7.6 -7 3.8
	-2 -3.8 5 -7.6 7 -3.8"/>
</defs>
<use x="74.00" y="91.40" xlink:href="#Hd"/>
<path d="M77.50 91.40v-21.00" class="stroke"/>
<defs>
<ellipse id="hd" rx="4.1" ry="2.9"
	transform="rotate(-20)" class="fill"/>
</defs>
<use x="109.80" y="79.40" xlink:href="#hd"/>
<path d="M113.30 79.40v-21.00" class="stroke"/>
<use x="135.80" y="70.40" xlink:href="#hd"/>
<path d="M132.30 70.40v21.00" class="stroke"/>
<use x="179.60" y="73.40" xlink:href="#hd"/>
<path d="M176.10 73.40v21.00" class="stroke"/>
<path class="fill"
	d="M176.10 94.40c0.6 -5.6 9.6 -9 5.6 -18.4
	1.6 6 -1.3 11.6 -5.6 12.8
"/>
<use x="198.20" y="76.40" xlink:href="#hd"/>
<path d="M201.70 76.40v-22.00" class="stroke"/>
<path class="fill"
	d="M201.70 54.40c0.9 3.7 9.1 6.4 6 12.4
	1 -5.4 -4.2 -8.4 -6 -8.4
M201.70 59.80c0.9 3.7 9.1 6.4 6 12.4
	1 -5.4 -4.2 -8.4 -6 -8.4
"/>
<use x="212.30" y="79.40" xlink:href="#hd"/>
<path d="M215.80 79.40v-22.00" class="stroke"/>
<path class="fill"
	d="M215.80 57.40c0.9 3.7 9.1 6.4 6 12.4
	1 -5.4 -4.2 -8.4 -6 -8.4
M215.80 62.80c0.9 3.7 9.1 6.4 6 12.4
	1 -5.4 -4.2 -8.4 -6 -8.4
"/>
<use x="226.40" y="76.40" xlink:href="#hd"/>
<path d="M229.90 76.40v-21.00" class="stroke"/>
<path class="fill"
	d="M229.90 55.40c0.6 5.6 9.6 9 5.6 18.4
	1.6 -6 -1.3 -11.6 -5.6 -12.8
"/>
<use x="245.60" y="76.40" xlink:href="#hd"/>
<path d="M249.10 76.40v-21.00" class="stroke"/>
<path class="fill"
	d="M249.10 55.40c0.6 5.6 9.6 9 5.6 18.4
	1.6 -6 -1.3 -11.6 -5.6 -12.8
"/>
<use x="264.80" y="79.40" xlink:href="#Hd"/>
<path d="M268.30 79.40v-21.00" class="stroke"/>
<use x="315.80" y="76.40" xlink:href="#hd"/>
<path d="M319.30 76.40v-21.00" class="stroke"/>
<use x="341.40" y="76.40" xlink:href="#hd"/>
<path d="M344.90 76.40v-21.00" class="stroke"/>
<use x="367.10" y="73.40" xlink:href="#hd"/>
<path d="M370.60 73.40v-21.00" class="stroke"/>
<use x="392.70" y="76.40" xlink:href="#hd"/>
<path d="M396.20 76.40v-21.00" class="stroke"/>
<use x="424.00" y="79.40" xlink:href="#hd"/>
<path d="M427.50 79.40v-21.00" class="stroke"/>
<path class="fill"
	d="M427.50 58.40c0.6 5.6 9.6 9 5.6 18.4
	1.6 -6 -1.3 -11.6 -5.6 -12.8
"/>
<use x="443.20" y="76.40" xlink:href="#hd"/>
<path d="M446.70 76.40v-21.00" class="stroke"/>
<path class="fill"
	d="M446.70 55.40c0.6 5.6 9.6 9 5.6 18.4
	1.6 -6 -1.3 -11.6 -5.6 -12.8
"/>
<use x="462.40" y="79.40" xlink:href="#hd"/>
<path d="M465.90 79.40v-21.00" class="stroke"/>
<path class="fill"
	d="M465.90 58.40c0.6 5.6 9.6 9 5.6 18.4
	1.6 -6 -1.3 -11.6 -5.6 -12.8
"/>
<use x="481.50" y="82.40" xlink:href="#hd"/>
<path d="M485.00 82.40v-21.00" class="stroke"/>
<path class="fill"
	d="M485.00 61.40c0.6 5.6 9.6 9 5.6 18.4
	1.6 -6 -1.3 -11.6 -5.6 -12.8
"/>
<use x="500.80" y="85.40" xlink:href="#Hd"/>
<path d="M504.30 85.40v-21.00" class="stroke"/>
<use x="557.80" y="85.40" xlink:href="#hd"/>
<path d="M561.30 85.40v-21.00" class="stroke"/>
<path class="fill"
	d="M561.30 64.40c0.6 5.6 9.6 9 5.6 18.4
	1.6 -6 -1.3 -11.6 -5.6 -12.8
"/>
<use x="576.90" y="88.40" xlink:href="#hd"/>
<path d="M580.40 88.40v-21.00" class="stroke"/>
<path class="fill"
	d="M580.40 67.40c0.6 5.6 9.6 9 5.6 18.4
	1.6 -6 -1.3 -11.6 -5.6 -12.8
"/>
<use x="596.10" y="85.40" xlink:href="#hd"/>
<path d="M599.60 85.40v-21.00" class="stroke"/>
<path class="fill"
	d="M599.60 64.40c0.6 5.6 9.6 9 5.6 18.4
	1.6 -6 -1.3 -11.6 -5.6 -12.8
"/>
<use x="615.30" y="82.40" xlink:href="#hd"/>
<path d="M618.80 82.40v-21.00" class="stroke"/>
<path class="fill"
	d="M618.80 61.40c0.6 5.6 9.6 9 5.6 18.4
	1.6 -6 -1.3 -11.6 -5.6 -12.8
"/>
<use x="634.40" y="79.40" xlink:href="#hd"/>
<path d="M637.90 79.40v-21.00" class="stroke"/>
<path class="fill"
	d="M637.90 58.40c0.6 5.6 9.6 9 5.6 18.4
	1.6 -6 -1.3 -11.6 -5.6 -12.8
"/>
<use x="653.60" y="79.40" xlink:href="#hd"/>
<path d="M657.10 79.40v-21.00" class="stroke"/>
<path class="fill"
	d="M657.10 58.40c0.6 5.6 9.6 9 5.6 18.4
	1.6 -6 -1.3 -11.6 -5.6 -12.8
"/>
<use x="672.80" y="91.40" xlink:href="#hl"/>
<use x="672.80" y="91.40" xlink:href="#hd"/>
<path d="M676.30 91.40v-21.00" class="stroke"/>
<defs>
<path id="ubclef" class="fill" d="m-200 -87
	c124 -35 222 -78 254 -236
	43 -228 -167 -246 -192 -103
	59 -80 157 22 92 78
	-62 47 -115 -22 -106 -88
	21 -141 270 -136 274 52
	-1 175 -106 264 -322 297
	m357 -250
	c0 -36 51 -34 51 0
	0 37 -51 36 -51 0
	m-2 -129
	c0 -36 51 -34 51 0
	0 38 -51 37 -51 0"/>
<use id="bclef" transform="translate(0,18) scale(0.045)"
	xlink:href="#ubclef"/>
</defs>
<use x="22.00" y="125.40" xlink:href="#bclef"/>
<g style="font:bold 16px serif"
	transform="translate(40.50,142.90) scale(1.2,1)">
	<text text-anchor="middle">4</text>
	<text y="-12" text-anchor="middle">4</text>
</g>
<defs>
<path id="hl1" class="stroke" d="m-7 0h14"/>
</defs>
<use x="75.00" y="149.40" xlink:href="#hl1"/>
<use x="75.00" y="155.40" xlink:href="#hl1"/>
<use x="75.00" y="161.40" xlink:href="#hl1"/>
<use x="75.00" y="167.40" xlink:href="#hl1"/>
<use x="75.00" y="173.40" xlink:href="#hl1"/>
<defs>
<path id="HD" class="fill" d="m-2.7 -1.4
	c1.5 -2.8 6.9 0 5.3 2.7
	-1.5 2.8 -6.9 0 -5.3 -2.7
	m8.3 1.4
	c0 -1.5 -2.2 -3 -5.6 -3
	-3.4 0 -5.6 1.5 -5.6 3
	0 1.5 2.2 3 5.6 3
	3.4 0 5.6 -1.5 5.6 -3"/>
</defs>
<use x="75.00" y="176.40" xlink:href="#HD"/>
<use x="75.00" y="155.40" xlink:href="#HD"/>
<use x="75.00" y="149.40" xlink:href="#HD"/>
<use x="75.00" y="143.40" xlink:href="#HD"/>
<use x="75.00" y="137.40" xlink:href="#HD"/>
<use x="180.60" y="149.40" xlink:href="#hl1"/>
<use x="180.60" y="155.40" xlink:href="#hl1"/>
<use x="180.60" y="161.40" xlink:href="#hl1"/>
<use x="180.60" y="167.40" xlink:href="#hl1"/>
<use x="180.60" y="173.40" xlink:href="#hl1"/>
<use x="180.60" y="173.40" xlink:href="#HD"/>
<use x="180.60" y="152.40" xlink:href="#HD"/>
<use x="180.60" y="146.40" xlink:href="#HD"/>
<use x="180.60" y="140.40" xlink:href="#HD"/>
<use x="180.60" y="134.40" xlink:href="#HD"/>
<use x="316.80" y="149.40" xlink:href="#hl1"/>
<use x="316.80" y="155.40" xlink:href="#hl1"/>
<use x="316.80" y="161.40" xlink:href="#hl1"/>
<use x="316.80" y="167.40" xlink:href="#hl1"/>
<use x="316.80" y="167.40" xlink:href="#HD"/>
<use x="316.80" y="146.40" xlink:href="#HD"/>
<use x="316.80" y="140.40" xlink:href="#HD"/>
<use x="316.80" y="134.40" xlink:href="#HD"/>
<use x="316.80" y="128.40" xlink:href="#HD"/>
<use x="424.00" y="149.40" xlink:href="#hl"/>
<use x="424.00" y="149.40" xlink:href="#hd"/>
<path d="M427.50 149.40v-21.00" class="stroke"/>
<use x="462.40" y="143.40" xlink:href="#hd"/>
<path d="M465.90 143.40v-21.00" class="stroke"/>
<use x="500.80" y="137.40" xlink:href="#hd"/>
<path d="M504.30 137.40v-21.00" class="stroke"/>
<use x="526.40" y="131.40" xlink:href="#hd"/>
<path d="M529.90 131.40v-21.00" class="stroke"/>
<use x="557.80" y="149.40" xlink:href="#hl"/>
<use x="557.80" y="155.40" xlink:href="#hl"/>
<use x="557.80" y="155.40" xlink:href="#hd"/>
<path d="M561.30 155.40v-24.00" class="stroke"/>
<use x="596.10" y="149.40" xlink:href="#hl"/>
<use x="596.10" y="149.40" xlink:href="#hd"/>
<path d="M599.60 149.40v-21.00" class="stroke"/>
<use x="634.40" y="143.40" xlink:href="#hd"/>
<path d="M637.90 143.40v-21.00" class="stroke"/>
<use x="672.80" y="137.40" xlink:href="#hd"/>
<path d="M676.30 137.40v-21.00" class="stroke"/>
<defs>
<path id="ltr" class="fill"
    d="m0 -0.4c2 -1.5 3.4 -1.9 3.9 0.4
	c0.2 0.8 0.7 0.7 2.1 -0.4
	v0.8c-2 1.5 -3.4 1.9 -3.9 -0.4
	c-0.2 -0.8 -0.7 -0.7 -2.1 0.4z"/>
</defs>
<g transform="rotate(270)">
<use x="-179.40" y="61.50" xlink:href="#ltr"/>
<use x="-173.40" y="61.50" xlink:href="#ltr"/>
<use x="-167.40" y="61.50" xlink:href="#ltr"/>
<use x="-161.40" y="61.50" xlink:href="#ltr"/>
<use x="-155.40" y="61.50" xlink:href="#ltr"/>
<use x="-149.40" y="61.50" xlink:href="#ltr"/>
<use x="-143.40" y="61.50" xlink:href="#ltr"/>
<use x="-137.40" y="61.50" xlink:href="#ltr"/>
</g>
<g transform="rotate(270)">
<use x="-176.40" y="167.10" xlink:href="#ltr"/>
<use x="-170.40" y="167.10" xlink:href="#ltr"/>
<use x="-164.40" y="167.10" xlink:href="#ltr"/>
<use x="-158.40" y="167.10" xlink:href="#ltr"/>
<use x="-152.40" y="167.10" xlink:href="#ltr"/>
<use x="-146.40" y="167.10" xlink:href="#ltr"/>
<use x="-140.40" y="167.10" xlink:href="#ltr"/>
<use x="-134.40" y="167.10" xlink:href="#ltr"/>
</g>
<g transform="rotate(270)">
<use x="-170.40" y="303.30" xlink:href="#ltr"/>
<use x="-164.40" y="303.30" xlink:href="#ltr"/>
<use x="-158.40" y="303.30" xlink:href="#ltr"/>
<use x="-152.40" y="303.30" xlink:href="#ltr"/>
<use x="-146.40" y="303.30" xlink:href="#ltr"/>
<use x="-140.40" y="303.30" xlink:href="#ltr"/>
<use x="-134.40" y="303.30" xlink:href="#ltr"/>
<use x="-128.40" y="303.30" xlink:href="#ltr"/>
</g>
</g>
<g stroke-width="0.70" style="font:italic 11.00px Times">
<path class="stroke" stroke-width="1"
	d="M10.00 296.80v-82.00"/>
<g transform="translate(10.00,214.80) scale(1,0.82)">
	<use xlink:href="#brace"/>
</g>
<path class="stroke" stroke-width="1"
	d="M264.40 238.80v-24.00"/>
<path class="stroke" stroke-width="1"
	d="M264.40 296.80v-24.00"/>
<path class="stroke" stroke-width="1"
	d="M409.00 238.80v-24.00"/>
<path class="stroke" stroke-width="1"
	d="M409.00 296.80v-24.00"/>
<path d="m10.00 238.80
	h399.00
	M10.00 232.80
	h399.00
	M10.00 226.80
	h399.00
	M10.00 220.80
	h399.00
	M10.00 214.80
	h399.00
	" class="stroke"/>
<path d="m10.00 296.80
	h399.00
	M10.00 290.80
	h399.00
	M10.00 284.80
	h399.00
	M10.00 278.80
	h399.00
	M10.00 272.80
	h399.00
	" class="stroke"/>
</g>
<g stroke-width="0.70" style="font:bold 13.00px Times">
<text x="38.80" y="210.20">I<tspan
	 style="font:italic 11.00px Times">Δ⁷¹</tspan></text>
</g>
<g stroke-width="0.70" style="font:bold 13.00px Times">
<text x="281.40" y="192.20">IV<tspan
	 style="font:italic 11.00px Times">Δ⁷</tspan></text>
</g>
<g stroke-width="0.70" style="font:italic 11.00px Times">
<use x="22.00" y="232.80" xlink:href="#tclef"/>
<use x="46.50" y="238.80" xlink:href="#hd"/>
<path d="M50.00 238.80v-21.00" class="stroke"/>
<path class="fill"
	d="M50.00 217.80c0.6 5.6 9.6 9 5.6 18.4
	1.6 -6 -1.3 -11.6 -5.6 -12.8
"/>
<use x="74.80" y="241.80" xlink:href="#hd"/>
<path d="M78.30 241.80v-21.00" class="stroke"/>
<path class="fill"
	d="M78.30 220.80c0.6 5.6 9.6 9 5.6 18.4
	1.6 -6 -1.3 -11.6 -5.6 -12.8
"/>
<use x="103.10" y="238.80" xlink:href="#hd"/>
<path d="M106.60 238.80v-21.00" class="stroke"/>
<path class="fill"
	d="M106.60 217.80c0.6 5.6 9.6 9 5.6 18.4
	1.6 -6 -1.3 -11.6 -5.6 -12.8
"/>
<use x="131.40" y="244.80" xlink:href="#hl"/>
<use x="131.40" y="244.80" xlink:href="#hd"/>
<path d="M134.90 244.80v-21.00" class="stroke"/>
<path class="fill"
	d="M134.90 223.80c0.6 5.6 9.6 9 5.6 18.4
	1.6 -6 -1.3 -11.6 -5.6 -12.8
"/>
<use x="159.70" y="244.80" xlink:href="#hl"/>
<use x="159.70" y="247.80" xlink:href="#hd"/>
<path d="M163.20 247.80v-21.00" class="stroke"/>
<path class="fill"
	d="M163.20 226.80c0.6 5.6 9.6 9 5.6 18.4
	1.6 -6 -1.3 -11.6 -5.6 -12.8
"/>
<use x="188.00" y="244.80" xlink:href="#hl"/>
<use x="188.00" y="244.80" xlink:href="#hd"/>
<path d="M191.50 244.80v-21.00" class="stroke"/>
<path class="fill"
	d="M191.50 223.80c0.6 5.6 9.6 9 5.6 18.4
	1.6 -6 -1.3 -11.6 -5.6 -12.8
"/>
<use x="216.30" y="241.80" xlink:href="#hd"/>
<path d="M219.80 241.80v-21.00" class="stroke"/>
<path class="fill"
	d="M219.80 220.80c0.6 5.6 9.6 9 5.6 18.4
	1.6 -6 -1.3 -11.6 -5.6 -12.8
"/>
<use x="244.60" y="235.80" xlink:href="#hd"/>
<path d="M248.10 235.80v-21.00" class="stroke"/>
<path class="fill"
	d="M248.10 214.80c0.6 5.6 9.6 9 5.6 18.4
	1.6 -6 -1.3 -11.6 -5.6 -12.8
"/>
<use x="289.40" y="238.80" xlink:href="#hd"/>
<path d="M292.90 238.80v-40.00" class="stroke"/>
<use x="289.40" y="217.80" xlink:href="#hd"/>
<use x="329.40" y="241.80" xlink:href="#hd"/>
<path d="M332.90 241.80v-40.00" class="stroke"/>
<use x="329.40" y="220.80" xlink:href="#hd"/>
<use x="369.40" y="244.80" xlink:href="#hl"/>
<use x="369.40" y="244.80" xlink:href="#Hd"/>
<path d="M372.90 244.80v-40.00" class="stroke"/>
<use x="369.40" y="223.80" xlink:href="#Hd"/>
<use x="22.00" y="278.80" xlink:href="#bclef"/>
<use x="46.50" y="302.80" xlink:href="#hl"/>
<use x="46.50" y="308.80" xlink:href="#hl"/>
<use x="46.50" y="308.80" xlink:href="#hd"/>
<path d="M50.00 308.80v-24.00" class="stroke"/>
<use x="103.10" y="302.80" xlink:href="#hl"/>
<use x="103.10" y="302.80" xlink:href="#hd"/>
<path d="M106.60 302.80v-21.00" class="stroke"/>
<use x="159.70" y="296.80" xlink:href="#hd"/>
<path d="M163.20 296.80v-21.00" class="stroke"/>
<use x="216.30" y="290.80" xlink:href="#hd"/>
<path d="M219.80 290.80v-21.00" class="stroke"/>
<use x="290.40" y="302.80" xlink:href="#hl1"/>
<use x="290.40" y="308.80" xlink:href="#hl1"/>
<use x="290.40" y="314.80" xlink:href="#hl1"/>
<use x="290.40" y="320.80" xlink:href="#hl1"/>
<use x="290.40" y="320.80" xlink:href="#HD"/>
<use x="290.40" y="299.80" xlink:href="#HD"/>
<use x="290.40" y="293.80" xlink:href="#HD"/>
<use x="290.40" y="287.80" xlink:href="#HD"/>
<use x="290.40" y="281.80" xlink:href="#HD"/>
<g transform="rotate(270)">
<use x="-323.80" y="276.90" xlink:href="#ltr"/>
<use x="-317.80" y="276.90" xlink:href="#ltr"/>
<use x="-311.80" y="276.90" xlink:href="#ltr"/>
<use x="-305.80" y="276.90" xlink:href="#ltr"/>
<use x="-299.80" y="276.90" xlink:href="#ltr"/>
<use x="-293.80" y="276.90" xlink:href="#ltr"/>
<use x="-287.80" y="276.90" xlink:href="#ltr"/>
<use x="-281.80" y="276.90" xlink:href="#ltr"/>
</g>
</g>
</svg>
