<?xml version="1.0" standalone="no"?>
<!DOCTYPE svg PUBLIC "-//W3C//DTD SVG 1.1//EN"
	"http://www.w3.org/Graphics/SVG/1.1/DTD/svg11.dtd">
<svg xmlns="http://www.w3.org/2000/svg" version="1.1"
	xmlns:xlink="http://www.w3.org/1999/xlink"
	color="black"
	width="701.60px" height="754.00px" viewBox="0 0 701.60 754.00" preserveAspectRatio="xMidYMid meet">
<style type="text/css">
.fill {fill: currentColor}
.stroke {stroke: currentColor; fill: none}
text{white-space: pre}
</style>
<title>/tmp/reharm_hymnal_L5/come_thou_long_expected_jesus.abc (1) tune 1</title>
<!-- Creator: abcm2ps-8.14.11 -->
<!-- CreationDate: Apr 24, 2026 15:32 -->
<!-- CommandLine: /tmp/reharm_hymnal_L5/come_thou_long_expected_jesus.abc -g -O /tmp/reharm_hymnal_L5/come_thou_long_expected_jesus -->
<g stroke-width="0.70">
<!-- title: 053. Come, Thou Long-Expected Jesus -->
</g>
<g stroke-width="0.70" style="font:20.00px Times">
<text x="350.80" y="22.00" text-anchor="middle">053. Come, Thou Long-Expected Jesus</text>
</g>
<g stroke-width="0.70" style="font:20.00px Times">
<path class="stroke" stroke-width="1"
	d="M10.00 145.40v-82.00"/>
<defs>
<path id="brace" class="fill" d="m-2.5 101
	c-4.5 -4.6 -7.5 -12.2 -4.4 -26.8
	3.5 -14.3 3.2 -21.7 -2.1 -24.2
	7.4 2.4 7.3 14.2 3.5 29.5
	-2.7 9.5 -1.5 16.2 3 21.5
	M-2.5 1c-4.5 4.6 -7.5 12.2 -4.4 26.8
	c3.5 14.3 3.2 21.7 -2.1 24.2
	7.4 -2.4 7.3 -14.2 3.5 -29.5
	-2.7 -9.5 -1.5 -16.2 3 -21.5"/>
</defs>
<g transform="translate(10.00,63.40) scale(1,0.82)">
	<use xlink:href="#brace"/>
</g>
<path class="stroke" stroke-width="1"
	d="M147.00 87.40v-24.00"/>
<path class="stroke" stroke-width="1"
	d="M147.00 145.40v-24.00"/>
<path class="stroke" stroke-width="1"
	d="M233.60 87.40v-24.00"/>
<path class="stroke" stroke-width="1"
	d="M233.60 145.40v-24.00"/>
<path class="stroke" stroke-width="1"
	d="M319.90 87.40v-24.00"/>
<path class="stroke" stroke-width="1"
	d="M319.90 145.40v-24.00"/>
<path class="stroke" stroke-width="1"
	d="M400.30 87.40v-24.00"/>
<path class="stroke" stroke-width="1"
	d="M400.30 145.40v-24.00"/>
<path class="stroke" stroke-width="1"
	d="M513.10 87.40v-24.00"/>
<path class="stroke" stroke-width="1"
	d="M513.10 145.40v-24.00"/>
<path class="stroke" stroke-width="1"
	d="M611.20 87.40v-24.00"/>
<path class="stroke" stroke-width="1"
	d="M611.20 145.40v-24.00"/>
<path class="stroke" stroke-width="1"
	d="M691.60 87.40v-24.00"/>
<path class="stroke" stroke-width="1"
	d="M691.60 145.40v-24.00"/>
<path d="m10.00 87.40
	h681.60
	M10.00 81.40
	h681.60
	M10.00 75.40
	h681.60
	M10.00 69.40
	h681.60
	M10.00 63.40
	h681.60
	" class="stroke"/>
<path d="m10.00 145.40
	h681.60
	M10.00 139.40
	h681.60
	M10.00 133.40
	h681.60
	M10.00 127.40
	h681.60
	M10.00 121.40
	h681.60
	" class="stroke"/>
</g>
<g stroke-width="0.70" style="font:bold 13.00px Times">
<text x="65.00" y="50.80">vi<tspan
	 style="font:italic 11.00px Times">m⁷</tspan></text>
</g>
<g stroke-width="0.70" style="font:bold 13.00px Times">
<text x="151.50" y="56.80">vi<tspan
	 style="font:italic 11.00px Times">m⁷</tspan></text>
</g>
<g stroke-width="0.70" style="font:bold 13.00px Times">
<text x="238.40" y="56.80">I<tspan
	 style="font:italic 11.00px Times">Δ⁷²</tspan></text>
</g>
<g stroke-width="0.70" style="font:bold 13.00px Times">
<text x="335.90" y="47.80">vi<tspan
	 style="font:italic 11.00px Times">m⁷</tspan></text>
</g>
<g stroke-width="0.70" style="font:bold 13.00px Times">
<text x="416.30" y="50.80">vi<tspan
	 style="font:italic 11.00px Times">m⁷¹</tspan></text>
</g>
<g stroke-width="0.70" style="font:bold 13.00px Times">
<text x="529.10" y="58.80">vi<tspan
	 style="font:italic 11.00px Times">m⁷</tspan></text>
</g>
<g stroke-width="0.70" style="font:bold 13.00px Times">
<text x="627.50" y="58.80">I<tspan
	 style="font:italic 11.00px Times">Δ⁷¹</tspan></text>
</g>
<g stroke-width="0.70" style="font:italic 11.00px Times">
<defs>
<path id="utclef" class="fill" d="m-50 -90
	c-72 -41 -72 -158 52 -188
	150 -10 220 188 90 256
	-114 52 -275 0 -293 -136
	-15 -181 93 -229 220 -334
	88 -87 79 -133 62 -210
	-51 33 -94 105 -89 186
	17 267 36 374 49 574
	6 96 -19 134 -77 135
	-80 1 -126 -93 -61 -133
	85 -41 133 101 31 105
	23 17 92 37 90 -92
	-10 -223 -39 -342 -50 -617
	0 -90 0 -162 96 -232
	56 72 63 230 22 289
	-74 106 -257 168 -255 316
	9 153 148 185 252 133
	86 -65 29 -192 -80 -176
	-71 12 -105 67 -59 124"/>
<use id="tclef" transform="translate(0,6) scale(0.045)"
	xlink:href="#utclef"/>
</defs>
<use x="22.00" y="81.40" xlink:href="#tclef"/>
<g style="font:bold 16px serif"
	transform="translate(40.50,86.90) scale(1.2,1)">
	<text text-anchor="middle">4</text>
	<text y="-12" text-anchor="middle">2</text>
</g>
<defs>
<ellipse id="hd" rx="4.1" ry="2.9"
	transform="rotate(-20)" class="fill"/>
</defs>
<use x="73.00" y="78.40" xlink:href="#hd"/>
<path d="M76.50 78.40v-21.00" class="stroke"/>
<use x="105.90" y="78.40" xlink:href="#hd"/>
<path d="M109.40 78.40v-21.00" class="stroke"/>
<path class="fill"
	d="M109.40 57.40c0.6 5.6 9.6 9 5.6 18.4
	1.6 -6 -1.3 -11.6 -5.6 -12.8
"/>
<use x="129.80" y="81.40" xlink:href="#hd"/>
<path d="M133.30 81.40v-21.00" class="stroke"/>
<path class="fill"
	d="M133.30 60.40c0.6 5.6 9.6 9 5.6 18.4
	1.6 -6 -1.3 -11.6 -5.6 -12.8
"/>
<use x="159.50" y="87.40" xlink:href="#hd"/>
<path d="M163.00 87.40v-21.00" class="stroke"/>
<use x="192.50" y="81.40" xlink:href="#hd"/>
<path d="M196.00 81.40v-21.00" class="stroke"/>
<path class="fill"
	d="M196.00 60.40c0.6 5.6 9.6 9 5.6 18.4
	1.6 -6 -1.3 -11.6 -5.6 -12.8
"/>
<use x="216.30" y="78.40" xlink:href="#hd"/>
<path d="M219.80 78.40v-21.00" class="stroke"/>
<path class="fill"
	d="M219.80 57.40c0.6 5.6 9.6 9 5.6 18.4
	1.6 -6 -1.3 -11.6 -5.6 -12.8
"/>
<use x="246.10" y="72.40" xlink:href="#hd"/>
<path d="M242.60 72.40v21.00" class="stroke"/>
<use x="279.10" y="75.40" xlink:href="#hd"/>
<path d="M275.60 75.40v21.00" class="stroke"/>
<path class="fill"
	d="M275.60 96.40c0.6 -5.6 9.6 -9 5.6 -18.4
	1.6 6 -1.3 11.6 -5.6 12.8
"/>
<use x="302.60" y="78.40" xlink:href="#hd"/>
<path d="M306.10 78.40v-21.00" class="stroke"/>
<path class="fill"
	d="M306.10 57.40c0.6 5.6 9.6 9 5.6 18.4
	1.6 -6 -1.3 -11.6 -5.6 -12.8
"/>
<use x="343.90" y="75.40" xlink:href="#hd"/>
<path d="M347.40 75.40v-21.00" class="stroke"/>
<use x="376.80" y="78.40" xlink:href="#hd"/>
<path d="M380.30 78.40v-21.00" class="stroke"/>
<use x="424.30" y="78.40" xlink:href="#hd"/>
<path d="M427.80 78.40v-21.00" class="stroke"/>
<path class="fill"
	d="M427.80 57.40c0.6 5.6 9.6 9 5.6 18.4
	1.6 -6 -1.3 -11.6 -5.6 -12.8
"/>
<use x="448.20" y="81.40" xlink:href="#hd"/>
<path d="M451.70 81.40v-21.00" class="stroke"/>
<path class="fill"
	d="M451.70 60.40c0.6 5.6 9.6 9 5.6 18.4
	1.6 -6 -1.3 -11.6 -5.6 -12.8
"/>
<use x="472.00" y="87.40" xlink:href="#hd"/>
<path d="M475.50 87.40v-21.00" class="stroke"/>
<path class="fill"
	d="M475.50 66.40c0.6 5.6 9.6 9 5.6 18.4
	1.6 -6 -1.3 -11.6 -5.6 -12.8
"/>
<use x="495.80" y="90.40" xlink:href="#hd"/>
<path d="M499.30 90.40v-21.00" class="stroke"/>
<path class="fill"
	d="M499.30 69.40c0.6 5.6 9.6 9 5.6 18.4
	1.6 -6 -1.3 -11.6 -5.6 -12.8
"/>
<use x="537.10" y="87.40" xlink:href="#hd"/>
<path d="M540.60 87.40v-21.00" class="stroke"/>
<use x="570.00" y="81.40" xlink:href="#hd"/>
<path d="M573.50 81.40v-21.00" class="stroke"/>
<path class="fill"
	d="M573.50 60.40c0.6 5.6 9.6 9 5.6 18.4
	1.6 -6 -1.3 -11.6 -5.6 -12.8
"/>
<use x="593.90" y="78.40" xlink:href="#hd"/>
<path d="M597.40 78.40v-21.00" class="stroke"/>
<path class="fill"
	d="M597.40 57.40c0.6 5.6 9.6 9 5.6 18.4
	1.6 -6 -1.3 -11.6 -5.6 -12.8
"/>
<use x="635.20" y="72.40" xlink:href="#hd"/>
<path d="M631.70 72.40v21.00" class="stroke"/>
<use x="668.10" y="75.40" xlink:href="#hd"/>
<path d="M664.60 75.40v21.00" class="stroke"/>
<defs>
<path id="ubclef" class="fill" d="m-200 -87
	c124 -35 222 -78 254 -236
	43 -228 -167 -246 -192 -103
	59 -80 157 22 92 78
	-62 47 -115 -22 -106 -88
	21 -141 270 -136 274 52
	-1 175 -106 264 -322 297
	m357 -250
	c0 -36 51 -34 51 0
	0 37 -51 36 -51 0
	m-2 -129
	c0 -36 51 -34 51 0
	0 38 -51 37 -51 0"/>
<use id="bclef" transform="translate(0,18) scale(0.045)"
	xlink:href="#ubclef"/>
</defs>
<use x="22.00" y="127.40" xlink:href="#bclef"/>
<g style="font:bold 16px serif"
	transform="translate(40.50,144.90) scale(1.2,1)">
	<text text-anchor="middle">4</text>
	<text y="-12" text-anchor="middle">2</text>
</g>
<defs>
<path id="hl" class="stroke" d="m-6 0h12"/>
</defs>
<use x="73.00" y="151.40" xlink:href="#hl"/>
<use x="73.00" y="157.40" xlink:href="#hl"/>
<use x="73.00" y="163.40" xlink:href="#hl"/>
<defs>
<path id="Hd" class="fill" d="m3 -1.6
	c-1 -1.8 -7 1.4 -6 3.2
	1 1.8 7 -1.4 6 -3.2
	m0.5 -0.3
	c2 3.8 -5 7.6 -7 3.8
	-2 -3.8 5 -7.6 7 -3.8"/>
</defs>
<use x="73.00" y="163.40" xlink:href="#Hd"/>
<path d="M76.50 163.40v-58.00" class="stroke"/>
<use x="73.00" y="142.40" xlink:href="#Hd"/>
<use x="73.00" y="136.40" xlink:href="#Hd"/>
<use x="73.00" y="130.40" xlink:href="#Hd"/>
<use x="73.00" y="124.40" xlink:href="#Hd"/>
<use x="159.50" y="142.40" xlink:href="#hd"/>
<path d="M163.00 142.40v-21.00" class="stroke"/>
<use x="192.50" y="136.40" xlink:href="#hd"/>
<path d="M196.00 136.40v-21.00" class="stroke"/>
<use x="246.10" y="151.40" xlink:href="#hl"/>
<use x="246.10" y="157.40" xlink:href="#hl"/>
<use x="246.10" y="157.40" xlink:href="#hd"/>
<path d="M249.60 157.40v-24.00" class="stroke"/>
<use x="279.10" y="151.40" xlink:href="#hl"/>
<use x="279.10" y="151.40" xlink:href="#hd"/>
<path d="M282.60 151.40v-21.00" class="stroke"/>
<use x="343.90" y="151.40" xlink:href="#hl"/>
<use x="343.90" y="157.40" xlink:href="#hl"/>
<use x="343.90" y="163.40" xlink:href="#hl"/>
<use x="343.90" y="163.40" xlink:href="#Hd"/>
<path d="M347.40 163.40v-58.00" class="stroke"/>
<use x="343.90" y="142.40" xlink:href="#Hd"/>
<use x="343.90" y="136.40" xlink:href="#Hd"/>
<use x="343.90" y="130.40" xlink:href="#Hd"/>
<use x="343.90" y="124.40" xlink:href="#Hd"/>
<use x="424.30" y="151.40" xlink:href="#hl"/>
<use x="424.30" y="157.40" xlink:href="#hl"/>
<use x="424.30" y="163.40" xlink:href="#hl"/>
<use x="424.30" y="163.40" xlink:href="#Hd"/>
<path d="M427.80 163.40v-58.00" class="stroke"/>
<use x="424.30" y="142.40" xlink:href="#Hd"/>
<use x="424.30" y="136.40" xlink:href="#Hd"/>
<use x="424.30" y="130.40" xlink:href="#Hd"/>
<use x="424.30" y="124.40" xlink:href="#Hd"/>
<use x="537.10" y="151.40" xlink:href="#hl"/>
<use x="537.10" y="157.40" xlink:href="#hl"/>
<use x="537.10" y="163.40" xlink:href="#hl"/>
<use x="537.10" y="163.40" xlink:href="#Hd"/>
<path d="M540.60 163.40v-58.00" class="stroke"/>
<use x="537.10" y="142.40" xlink:href="#Hd"/>
<use x="537.10" y="136.40" xlink:href="#Hd"/>
<use x="537.10" y="130.40" xlink:href="#Hd"/>
<use x="537.10" y="124.40" xlink:href="#Hd"/>
<use x="635.20" y="151.40" xlink:href="#hl"/>
<use x="635.20" y="157.40" xlink:href="#hl"/>
<use x="635.20" y="163.40" xlink:href="#hl"/>
<use x="635.20" y="169.40" xlink:href="#hl"/>
<use x="635.20" y="175.40" xlink:href="#hl"/>
<use x="635.20" y="178.40" xlink:href="#Hd"/>
<path d="M638.70 178.40v-58.00" class="stroke"/>
<use x="635.20" y="157.40" xlink:href="#Hd"/>
<use x="635.20" y="151.40" xlink:href="#Hd"/>
<use x="635.20" y="145.40" xlink:href="#Hd"/>
<use x="635.20" y="139.40" xlink:href="#Hd"/>
<defs>
<path id="ltr" class="fill"
    d="m0 -0.4c2 -1.5 3.4 -1.9 3.9 0.4
	c0.2 0.8 0.7 0.7 2.1 -0.4
	v0.8c-2 1.5 -3.4 1.9 -3.9 -0.4
	c-0.2 -0.8 -0.7 -0.7 -2.1 0.4z"/>
</defs>
<g transform="rotate(270)">
<use x="-166.40" y="63.00" xlink:href="#ltr"/>
<use x="-160.40" y="63.00" xlink:href="#ltr"/>
<use x="-154.40" y="63.00" xlink:href="#ltr"/>
<use x="-148.40" y="63.00" xlink:href="#ltr"/>
<use x="-142.40" y="63.00" xlink:href="#ltr"/>
<use x="-136.40" y="63.00" xlink:href="#ltr"/>
<use x="-130.40" y="63.00" xlink:href="#ltr"/>
<use x="-124.40" y="63.00" xlink:href="#ltr"/>
</g>
<g transform="rotate(270)">
<use x="-166.40" y="333.90" xlink:href="#ltr"/>
<use x="-160.40" y="333.90" xlink:href="#ltr"/>
<use x="-154.40" y="333.90" xlink:href="#ltr"/>
<use x="-148.40" y="333.90" xlink:href="#ltr"/>
<use x="-142.40" y="333.90" xlink:href="#ltr"/>
<use x="-136.40" y="333.90" xlink:href="#ltr"/>
<use x="-130.40" y="333.90" xlink:href="#ltr"/>
<use x="-124.40" y="333.90" xlink:href="#ltr"/>
</g>
<g transform="rotate(270)">
<use x="-166.40" y="414.30" xlink:href="#ltr"/>
<use x="-160.40" y="414.30" xlink:href="#ltr"/>
<use x="-154.40" y="414.30" xlink:href="#ltr"/>
<use x="-148.40" y="414.30" xlink:href="#ltr"/>
<use x="-142.40" y="414.30" xlink:href="#ltr"/>
<use x="-136.40" y="414.30" xlink:href="#ltr"/>
<use x="-130.40" y="414.30" xlink:href="#ltr"/>
<use x="-124.40" y="414.30" xlink:href="#ltr"/>
</g>
<g transform="rotate(270)">
<use x="-166.40" y="527.10" xlink:href="#ltr"/>
<use x="-160.40" y="527.10" xlink:href="#ltr"/>
<use x="-154.40" y="527.10" xlink:href="#ltr"/>
<use x="-148.40" y="527.10" xlink:href="#ltr"/>
<use x="-142.40" y="527.10" xlink:href="#ltr"/>
<use x="-136.40" y="527.10" xlink:href="#ltr"/>
<use x="-130.40" y="527.10" xlink:href="#ltr"/>
<use x="-124.40" y="527.10" xlink:href="#ltr"/>
</g>
<g transform="rotate(270)">
<use x="-181.40" y="625.20" xlink:href="#ltr"/>
<use x="-175.40" y="625.20" xlink:href="#ltr"/>
<use x="-169.40" y="625.20" xlink:href="#ltr"/>
<use x="-163.40" y="625.20" xlink:href="#ltr"/>
<use x="-157.40" y="625.20" xlink:href="#ltr"/>
<use x="-151.40" y="625.20" xlink:href="#ltr"/>
<use x="-145.40" y="625.20" xlink:href="#ltr"/>
<use x="-139.40" y="625.20" xlink:href="#ltr"/>
</g>
</g>
<g stroke-width="0.70" style="font:italic 11.00px Times">
<path class="stroke" stroke-width="1"
	d="M10.00 291.80v-82.00"/>
<g transform="translate(10.00,209.80) scale(1,0.82)">
	<use xlink:href="#brace"/>
</g>
<path class="stroke" stroke-width="1"
	d="M96.50 233.80v-24.00"/>
<path class="stroke" stroke-width="1"
	d="M96.50 291.80v-24.00"/>
<path class="stroke" stroke-width="1"
	d="M199.90 233.80v-24.00"/>
<path class="stroke" stroke-width="1"
	d="M199.90 291.80v-24.00"/>
<path class="stroke" stroke-width="1"
	d="M292.30 233.80v-24.00"/>
<path class="stroke" stroke-width="1"
	d="M292.30 291.80v-24.00"/>
<path class="stroke" stroke-width="1"
	d="M384.50 233.80v-24.00"/>
<path class="stroke" stroke-width="1"
	d="M384.50 291.80v-24.00"/>
<path class="stroke" stroke-width="1"
	d="M469.40 233.80v-24.00"/>
<path class="stroke" stroke-width="1"
	d="M469.40 291.80v-24.00"/>
<path class="stroke" stroke-width="1"
	d="M588.20 233.80v-24.00"/>
<path class="stroke" stroke-width="1"
	d="M588.20 291.80v-24.00"/>
<path class="stroke" stroke-width="1"
	d="M691.60 233.80v-24.00"/>
<path class="stroke" stroke-width="1"
	d="M691.60 291.80v-24.00"/>
<path d="m10.00 233.80
	h681.60
	M10.00 227.80
	h681.60
	M10.00 221.80
	h681.60
	M10.00 215.80
	h681.60
	M10.00 209.80
	h681.60
	" class="stroke"/>
<path d="m10.00 291.80
	h681.60
	M10.00 285.80
	h681.60
	M10.00 279.80
	h681.60
	M10.00 273.80
	h681.60
	M10.00 267.80
	h681.60
	" class="stroke"/>
</g>
<g stroke-width="0.70" style="font:bold 13.00px Times">
<text x="53.00" y="197.20">vi<tspan
	 style="font:italic 11.00px Times">m⁷</tspan></text>
</g>
<g stroke-width="0.70" style="font:bold 13.00px Times">
<text x="112.50" y="197.20">vi<tspan
	 style="font:italic 11.00px Times">m⁷</tspan></text>
</g>
<g stroke-width="0.70" style="font:bold 13.00px Times">
<text x="204.90" y="203.20">vi<tspan
	 style="font:italic 11.00px Times">m⁷</tspan></text>
</g>
<g stroke-width="0.70" style="font:bold 13.00px Times">
<text x="297.60" y="205.20">I<tspan
	 style="font:italic 11.00px Times">Δ⁷²</tspan></text>
</g>
<g stroke-width="0.70" style="font:bold 13.00px Times">
<text x="400.50" y="194.20">vi<tspan
	 style="font:italic 11.00px Times">m⁷</tspan></text>
</g>
<g stroke-width="0.70" style="font:bold 13.00px Times">
<text x="485.40" y="197.20">vi<tspan
	 style="font:italic 11.00px Times">m⁷¹</tspan></text>
</g>
<g stroke-width="0.70" style="font:bold 13.00px Times">
<text x="604.20" y="205.20">vi<tspan
	 style="font:italic 11.00px Times">m⁷</tspan></text>
</g>
<g stroke-width="0.70" style="font:italic 11.00px Times">
<use x="22.00" y="227.80" xlink:href="#tclef"/>
<use x="61.00" y="224.80" xlink:href="#Hd"/>
<path d="M64.50 224.80v-21.00" class="stroke"/>
<use x="120.50" y="224.80" xlink:href="#hd"/>
<path d="M124.00 224.80v-21.00" class="stroke"/>
<use x="156.20" y="224.80" xlink:href="#hd"/>
<path d="M159.70 224.80v-21.00" class="stroke"/>
<path class="fill"
	d="M159.70 203.80c0.6 5.6 9.6 9 5.6 18.4
	1.6 -6 -1.3 -11.6 -5.6 -12.8
"/>
<use x="181.70" y="227.80" xlink:href="#hd"/>
<path d="M185.20 227.80v-21.00" class="stroke"/>
<path class="fill"
	d="M185.20 206.80c0.6 5.6 9.6 9 5.6 18.4
	1.6 -6 -1.3 -11.6 -5.6 -12.8
"/>
<use x="212.90" y="233.80" xlink:href="#hd"/>
<path d="M216.40 233.80v-21.00" class="stroke"/>
<use x="248.50" y="227.80" xlink:href="#hd"/>
<path d="M252.00 227.80v-21.00" class="stroke"/>
<path class="fill"
	d="M252.00 206.80c0.6 5.6 9.6 9 5.6 18.4
	1.6 -6 -1.3 -11.6 -5.6 -12.8
"/>
<use x="274.10" y="224.80" xlink:href="#hd"/>
<path d="M277.60 224.80v-21.00" class="stroke"/>
<path class="fill"
	d="M277.60 203.80c0.6 5.6 9.6 9 5.6 18.4
	1.6 -6 -1.3 -11.6 -5.6 -12.8
"/>
<use x="305.30" y="218.80" xlink:href="#hd"/>
<path d="M301.80 218.80v21.00" class="stroke"/>
<use x="341.00" y="221.80" xlink:href="#hd"/>
<path d="M337.50 221.80v21.00" class="stroke"/>
<path class="fill"
	d="M337.50 242.80c0.6 -5.6 9.6 -9 5.6 -18.4
	1.6 6 -1.3 11.6 -5.6 12.8
"/>
<use x="366.30" y="224.80" xlink:href="#hd"/>
<path d="M369.80 224.80v-21.00" class="stroke"/>
<path class="fill"
	d="M369.80 203.80c0.6 5.6 9.6 9 5.6 18.4
	1.6 -6 -1.3 -11.6 -5.6 -12.8
"/>
<use x="408.50" y="221.80" xlink:href="#hd"/>
<path d="M412.00 221.80v-21.00" class="stroke"/>
<use x="444.20" y="224.80" xlink:href="#hd"/>
<path d="M447.70 224.80v-21.00" class="stroke"/>
<use x="493.40" y="224.80" xlink:href="#hd"/>
<path d="M496.90 224.80v-21.00" class="stroke"/>
<path class="fill"
	d="M496.90 203.80c0.6 5.6 9.6 9 5.6 18.4
	1.6 -6 -1.3 -11.6 -5.6 -12.8
"/>
<use x="519.00" y="227.80" xlink:href="#hd"/>
<path d="M522.50 227.80v-21.00" class="stroke"/>
<path class="fill"
	d="M522.50 206.80c0.6 5.6 9.6 9 5.6 18.4
	1.6 -6 -1.3 -11.6 -5.6 -12.8
"/>
<use x="544.50" y="233.80" xlink:href="#hd"/>
<path d="M548.00 233.80v-21.00" class="stroke"/>
<path class="fill"
	d="M548.00 212.80c0.6 5.6 9.6 9 5.6 18.4
	1.6 -6 -1.3 -11.6 -5.6 -12.8
"/>
<use x="570.00" y="236.80" xlink:href="#hd"/>
<path d="M573.50 236.80v-21.00" class="stroke"/>
<path class="fill"
	d="M573.50 215.80c0.6 5.6 9.6 9 5.6 18.4
	1.6 -6 -1.3 -11.6 -5.6 -12.8
"/>
<use x="612.20" y="233.80" xlink:href="#hd"/>
<path d="M615.70 233.80v-21.00" class="stroke"/>
<use x="647.90" y="227.80" xlink:href="#hd"/>
<path d="M651.40 227.80v-21.00" class="stroke"/>
<path class="fill"
	d="M651.40 206.80c0.6 5.6 9.6 9 5.6 18.4
	1.6 -6 -1.3 -11.6 -5.6 -12.8
"/>
<use x="673.40" y="224.80" xlink:href="#hd"/>
<path d="M676.90 224.80v-21.00" class="stroke"/>
<path class="fill"
	d="M676.90 203.80c0.6 5.6 9.6 9 5.6 18.4
	1.6 -6 -1.3 -11.6 -5.6 -12.8
"/>
<use x="22.00" y="273.80" xlink:href="#bclef"/>
<use x="61.00" y="297.80" xlink:href="#hl"/>
<use x="61.00" y="303.80" xlink:href="#hl"/>
<use x="61.00" y="309.80" xlink:href="#hl"/>
<use x="61.00" y="309.80" xlink:href="#Hd"/>
<path d="M64.50 309.80v-58.00" class="stroke"/>
<use x="61.00" y="288.80" xlink:href="#Hd"/>
<use x="61.00" y="282.80" xlink:href="#Hd"/>
<use x="61.00" y="276.80" xlink:href="#Hd"/>
<use x="61.00" y="270.80" xlink:href="#Hd"/>
<use x="120.50" y="297.80" xlink:href="#hl"/>
<use x="120.50" y="303.80" xlink:href="#hl"/>
<use x="120.50" y="309.80" xlink:href="#hl"/>
<use x="120.50" y="309.80" xlink:href="#Hd"/>
<path d="M124.00 309.80v-58.00" class="stroke"/>
<use x="120.50" y="288.80" xlink:href="#Hd"/>
<use x="120.50" y="282.80" xlink:href="#Hd"/>
<use x="120.50" y="276.80" xlink:href="#Hd"/>
<use x="120.50" y="270.80" xlink:href="#Hd"/>
<use x="212.90" y="288.80" xlink:href="#hd"/>
<path d="M216.40 288.80v-21.00" class="stroke"/>
<use x="248.50" y="282.80" xlink:href="#hd"/>
<path d="M252.00 282.80v-21.00" class="stroke"/>
<use x="305.30" y="297.80" xlink:href="#hl"/>
<use x="305.30" y="303.80" xlink:href="#hl"/>
<use x="305.30" y="303.80" xlink:href="#hd"/>
<path d="M308.80 303.80v-24.00" class="stroke"/>
<use x="341.00" y="297.80" xlink:href="#hl"/>
<use x="341.00" y="297.80" xlink:href="#hd"/>
<path d="M344.50 297.80v-21.00" class="stroke"/>
<use x="408.50" y="297.80" xlink:href="#hl"/>
<use x="408.50" y="303.80" xlink:href="#hl"/>
<use x="408.50" y="309.80" xlink:href="#hl"/>
<use x="408.50" y="309.80" xlink:href="#Hd"/>
<path d="M412.00 309.80v-58.00" class="stroke"/>
<use x="408.50" y="288.80" xlink:href="#Hd"/>
<use x="408.50" y="282.80" xlink:href="#Hd"/>
<use x="408.50" y="276.80" xlink:href="#Hd"/>
<use x="408.50" y="270.80" xlink:href="#Hd"/>
<use x="493.40" y="297.80" xlink:href="#hl"/>
<use x="493.40" y="303.80" xlink:href="#hl"/>
<use x="493.40" y="309.80" xlink:href="#hl"/>
<use x="493.40" y="309.80" xlink:href="#Hd"/>
<path d="M496.90 309.80v-58.00" class="stroke"/>
<use x="493.40" y="288.80" xlink:href="#Hd"/>
<use x="493.40" y="282.80" xlink:href="#Hd"/>
<use x="493.40" y="276.80" xlink:href="#Hd"/>
<use x="493.40" y="270.80" xlink:href="#Hd"/>
<use x="612.20" y="297.80" xlink:href="#hl"/>
<use x="612.20" y="303.80" xlink:href="#hl"/>
<use x="612.20" y="309.80" xlink:href="#hl"/>
<use x="612.20" y="309.80" xlink:href="#Hd"/>
<path d="M615.70 309.80v-58.00" class="stroke"/>
<use x="612.20" y="288.80" xlink:href="#Hd"/>
<use x="612.20" y="282.80" xlink:href="#Hd"/>
<use x="612.20" y="276.80" xlink:href="#Hd"/>
<use x="612.20" y="270.80" xlink:href="#Hd"/>
<g transform="rotate(270)">
<use x="-312.80" y="51.00" xlink:href="#ltr"/>
<use x="-306.80" y="51.00" xlink:href="#ltr"/>
<use x="-300.80" y="51.00" xlink:href="#ltr"/>
<use x="-294.80" y="51.00" xlink:href="#ltr"/>
<use x="-288.80" y="51.00" xlink:href="#ltr"/>
<use x="-282.80" y="51.00" xlink:href="#ltr"/>
<use x="-276.80" y="51.00" xlink:href="#ltr"/>
<use x="-270.80" y="51.00" xlink:href="#ltr"/>
</g>
<g transform="rotate(270)">
<use x="-312.80" y="110.50" xlink:href="#ltr"/>
<use x="-306.80" y="110.50" xlink:href="#ltr"/>
<use x="-300.80" y="110.50" xlink:href="#ltr"/>
<use x="-294.80" y="110.50" xlink:href="#ltr"/>
<use x="-288.80" y="110.50" xlink:href="#ltr"/>
<use x="-282.80" y="110.50" xlink:href="#ltr"/>
<use x="-276.80" y="110.50" xlink:href="#ltr"/>
<use x="-270.80" y="110.50" xlink:href="#ltr"/>
</g>
<g transform="rotate(270)">
<use x="-312.80" y="398.50" xlink:href="#ltr"/>
<use x="-306.80" y="398.50" xlink:href="#ltr"/>
<use x="-300.80" y="398.50" xlink:href="#ltr"/>
<use x="-294.80" y="398.50" xlink:href="#ltr"/>
<use x="-288.80" y="398.50" xlink:href="#ltr"/>
<use x="-282.80" y="398.50" xlink:href="#ltr"/>
<use x="-276.80" y="398.50" xlink:href="#ltr"/>
<use x="-270.80" y="398.50" xlink:href="#ltr"/>
</g>
<g transform="rotate(270)">
<use x="-312.80" y="483.40" xlink:href="#ltr"/>
<use x="-306.80" y="483.40" xlink:href="#ltr"/>
<use x="-300.80" y="483.40" xlink:href="#ltr"/>
<use x="-294.80" y="483.40" xlink:href="#ltr"/>
<use x="-288.80" y="483.40" xlink:href="#ltr"/>
<use x="-282.80" y="483.40" xlink:href="#ltr"/>
<use x="-276.80" y="483.40" xlink:href="#ltr"/>
<use x="-270.80" y="483.40" xlink:href="#ltr"/>
</g>
<g transform="rotate(270)">
<use x="-312.80" y="602.20" xlink:href="#ltr"/>
<use x="-306.80" y="602.20" xlink:href="#ltr"/>
<use x="-300.80" y="602.20" xlink:href="#ltr"/>
<use x="-294.80" y="602.20" xlink:href="#ltr"/>
<use x="-288.80" y="602.20" xlink:href="#ltr"/>
<use x="-282.80" y="602.20" xlink:href="#ltr"/>
<use x="-276.80" y="602.20" xlink:href="#ltr"/>
<use x="-270.80" y="602.20" xlink:href="#ltr"/>
</g>
</g>
<g stroke-width="0.70" style="font:italic 11.00px Times">
<path class="stroke" stroke-width="1"
	d="M10.00 423.20v-82.00"/>
<g transform="translate(10.00,341.20) scale(1,0.82)">
	<use xlink:href="#brace"/>
</g>
<path class="stroke" stroke-width="1"
	d="M117.80 365.20v-24.00"/>
<path class="stroke" stroke-width="1"
	d="M117.80 423.20v-24.00"/>
<path class="stroke" stroke-width="1"
	d="M174.90 365.20v-24.00"/>
<path class="stroke" stroke-width="1"
	d="M174.90 423.20v-24.00"/>
<path class="stroke" stroke-width="1"
	d="M255.60 365.20v-24.00"/>
<path class="stroke" stroke-width="1"
	d="M255.60 423.20v-24.00"/>
<path class="stroke" stroke-width="1"
	d="M336.40 365.20v-24.00"/>
<path class="stroke" stroke-width="1"
	d="M336.40 423.20v-24.00"/>
<path class="stroke" stroke-width="1"
	d="M432.30 365.20v-24.00"/>
<path class="stroke" stroke-width="1"
	d="M432.30 423.20v-24.00"/>
<path class="stroke" stroke-width="1"
	d="M513.10 365.20v-24.00"/>
<path class="stroke" stroke-width="1"
	d="M513.10 423.20v-24.00"/>
<path class="stroke" stroke-width="1"
	d="M593.80 365.20v-24.00"/>
<path class="stroke" stroke-width="1"
	d="M593.80 423.20v-24.00"/>
<path class="stroke" stroke-width="1"
	d="M691.60 365.20v-24.00"/>
<path class="stroke" stroke-width="1"
	d="M691.60 423.20v-24.00"/>
<path d="m10.00 365.20
	h681.60
	M10.00 359.20
	h681.60
	M10.00 353.20
	h681.60
	M10.00 347.20
	h681.60
	M10.00 341.20
	h681.60
	" class="stroke"/>
<path d="m10.00 423.20
	h681.60
	M10.00 417.20
	h681.60
	M10.00 411.20
	h681.60
	M10.00 405.20
	h681.60
	M10.00 399.20
	h681.60
	" class="stroke"/>
</g>
<g stroke-width="0.70" style="font:bold 13.00px Times">
<text x="53.30" y="336.60">I<tspan
	 style="font:italic 11.00px Times">Δ⁷¹</tspan></text>
</g>
<g stroke-width="0.70" style="font:bold 13.00px Times">
<text x="133.80" y="328.60">vi<tspan
	 style="font:italic 11.00px Times">m⁷</tspan></text>
</g>
<g stroke-width="0.70" style="font:bold 13.00px Times">
<text x="191.00" y="336.60">V<tspan
	 style="font:italic 11.00px Times">⁷¹</tspan></text>
</g>
<g stroke-width="0.70" style="font:bold 13.00px Times">
<text x="271.60" y="335.60">IV<tspan
	 style="font:italic 11.00px Times">Δ⁷</tspan></text>
</g>
<g stroke-width="0.70" style="font:bold 13.00px Times">
<text x="354.70" y="336.60">I<tspan
	 style="font:italic 11.00px Times">Δ⁷</tspan></text>
</g>
<g stroke-width="0.70" style="font:bold 13.00px Times">
<text x="448.30" y="325.60">vi<tspan
	 style="font:italic 11.00px Times">m⁷</tspan></text>
</g>
<g stroke-width="0.70" style="font:bold 13.00px Times">
<text x="531.30" y="336.60">I<tspan
	 style="font:italic 11.00px Times">Δ⁷</tspan></text>
</g>
<g stroke-width="0.70" style="font:bold 13.00px Times">
<text x="610.10" y="335.60">I<tspan
	 style="font:italic 11.00px Times">Δ⁷¹</tspan></text>
</g>
<g stroke-width="0.70" style="font:italic 11.00px Times">
<use x="22.00" y="359.20" xlink:href="#tclef"/>
<use x="61.00" y="350.20" xlink:href="#hd"/>
<path d="M57.50 350.20v21.00" class="stroke"/>
<use x="94.10" y="353.20" xlink:href="#hd"/>
<path d="M90.60 353.20v21.00" class="stroke"/>
<use x="141.80" y="356.20" xlink:href="#Hd"/>
<path d="M145.30 356.20v-21.00" class="stroke"/>
<use x="198.90" y="350.20" xlink:href="#hd"/>
<path d="M195.40 350.20v21.00" class="stroke"/>
<use x="232.00" y="347.20" xlink:href="#hd"/>
<path d="M228.50 347.20v21.00" class="stroke"/>
<use x="279.60" y="344.20" xlink:href="#hd"/>
<path d="M276.10 344.20v21.00" class="stroke"/>
<use x="312.70" y="344.20" xlink:href="#hd"/>
<path d="M309.20 344.20v21.00" class="stroke"/>
<use x="360.40" y="350.20" xlink:href="#hd"/>
<path d="M356.90 350.20v21.00" class="stroke"/>
<use x="393.50" y="353.20" xlink:href="#hd"/>
<path d="M390.00 353.20v21.00" class="stroke"/>
<path class="fill"
	d="M390.00 374.20c0.6 -5.6 9.6 -9 5.6 -18.4
	1.6 6 -1.3 11.6 -5.6 12.8
"/>
<use x="414.80" y="356.20" xlink:href="#hd"/>
<path d="M418.30 356.20v-21.00" class="stroke"/>
<path class="fill"
	d="M418.30 335.20c0.6 5.6 9.6 9 5.6 18.4
	1.6 -6 -1.3 -11.6 -5.6 -12.8
"/>
<use x="456.30" y="353.20" xlink:href="#hd"/>
<path d="M459.80 353.20v-21.00" class="stroke"/>
<use x="489.40" y="356.20" xlink:href="#hd"/>
<path d="M492.90 356.20v-21.00" class="stroke"/>
<use x="537.10" y="350.20" xlink:href="#hd"/>
<path d="M533.60 350.20v21.00" class="stroke"/>
<use x="570.10" y="347.20" xlink:href="#hd"/>
<path d="M566.60 347.20v21.00" class="stroke"/>
<use x="617.80" y="344.20" xlink:href="#hd"/>
<path d="M614.30 344.20v21.00" class="stroke"/>
<use x="650.90" y="344.20" xlink:href="#hd"/>
<path d="M647.40 344.20v21.00" class="stroke"/>
<path class="fill"
	d="M647.40 365.20c0.6 -5.6 9.6 -9 5.6 -18.4
	1.6 6 -1.3 11.6 -5.6 12.8
"/>
<use x="674.50" y="347.20" xlink:href="#hd"/>
<path d="M671.00 347.20v21.00" class="stroke"/>
<path class="fill"
	d="M671.00 368.20c0.6 -5.6 9.6 -9 5.6 -18.4
	1.6 6 -1.3 11.6 -5.6 12.8
"/>
<use x="22.00" y="405.20" xlink:href="#bclef"/>
<use x="61.00" y="429.20" xlink:href="#hl"/>
<use x="61.00" y="435.20" xlink:href="#hl"/>
<use x="61.00" y="441.20" xlink:href="#hl"/>
<use x="61.00" y="447.20" xlink:href="#hl"/>
<use x="61.00" y="453.20" xlink:href="#hl"/>
<use x="61.00" y="456.20" xlink:href="#Hd"/>
<path d="M64.50 456.20v-58.00" class="stroke"/>
<use x="61.00" y="435.20" xlink:href="#Hd"/>
<use x="61.00" y="429.20" xlink:href="#Hd"/>
<use x="61.00" y="423.20" xlink:href="#Hd"/>
<use x="61.00" y="417.20" xlink:href="#Hd"/>
<use x="141.80" y="429.20" xlink:href="#hl"/>
<use x="141.80" y="435.20" xlink:href="#hl"/>
<use x="141.80" y="441.20" xlink:href="#hl"/>
<use x="141.80" y="441.20" xlink:href="#Hd"/>
<path d="M145.30 441.20v-58.00" class="stroke"/>
<use x="141.80" y="420.20" xlink:href="#Hd"/>
<use x="141.80" y="414.20" xlink:href="#Hd"/>
<use x="141.80" y="408.20" xlink:href="#Hd"/>
<use x="141.80" y="402.20" xlink:href="#Hd"/>
<use x="198.90" y="429.20" xlink:href="#hl"/>
<use x="198.90" y="435.20" xlink:href="#hl"/>
<use x="198.90" y="441.20" xlink:href="#hl"/>
<use x="198.90" y="444.20" xlink:href="#Hd"/>
<path d="M202.40 444.20v-58.00" class="stroke"/>
<use x="198.90" y="423.20" xlink:href="#Hd"/>
<use x="198.90" y="417.20" xlink:href="#Hd"/>
<use x="198.90" y="411.20" xlink:href="#Hd"/>
<use x="198.90" y="405.20" xlink:href="#Hd"/>
<use x="279.60" y="429.20" xlink:href="#hl"/>
<use x="279.60" y="435.20" xlink:href="#hl"/>
<use x="279.60" y="441.20" xlink:href="#hl"/>
<use x="279.60" y="447.20" xlink:href="#hl"/>
<use x="279.60" y="447.20" xlink:href="#Hd"/>
<path d="M283.10 447.20v-58.00" class="stroke"/>
<use x="279.60" y="426.20" xlink:href="#Hd"/>
<use x="279.60" y="420.20" xlink:href="#Hd"/>
<use x="279.60" y="414.20" xlink:href="#Hd"/>
<use x="279.60" y="408.20" xlink:href="#Hd"/>
<use x="360.40" y="429.20" xlink:href="#hl"/>
<use x="360.40" y="435.20" xlink:href="#hl"/>
<use x="360.40" y="441.20" xlink:href="#hl"/>
<use x="360.40" y="447.20" xlink:href="#hl"/>
<use x="360.40" y="453.20" xlink:href="#hl"/>
<use x="360.40" y="456.20" xlink:href="#Hd"/>
<path d="M363.90 456.20v-58.00" class="stroke"/>
<use x="360.40" y="435.20" xlink:href="#Hd"/>
<use x="360.40" y="429.20" xlink:href="#Hd"/>
<use x="360.40" y="423.20" xlink:href="#Hd"/>
<use x="360.40" y="417.20" xlink:href="#Hd"/>
<use x="456.30" y="429.20" xlink:href="#hl"/>
<use x="456.30" y="435.20" xlink:href="#hl"/>
<use x="456.30" y="441.20" xlink:href="#hl"/>
<use x="456.30" y="441.20" xlink:href="#Hd"/>
<path d="M459.80 441.20v-58.00" class="stroke"/>
<use x="456.30" y="420.20" xlink:href="#Hd"/>
<use x="456.30" y="414.20" xlink:href="#Hd"/>
<use x="456.30" y="408.20" xlink:href="#Hd"/>
<use x="456.30" y="402.20" xlink:href="#Hd"/>
<use x="537.10" y="429.20" xlink:href="#hl"/>
<use x="537.10" y="435.20" xlink:href="#hl"/>
<use x="537.10" y="441.20" xlink:href="#hl"/>
<use x="537.10" y="447.20" xlink:href="#hl"/>
<use x="537.10" y="453.20" xlink:href="#hl"/>
<use x="537.10" y="456.20" xlink:href="#Hd"/>
<path d="M540.60 456.20v-58.00" class="stroke"/>
<use x="537.10" y="435.20" xlink:href="#Hd"/>
<use x="537.10" y="429.20" xlink:href="#Hd"/>
<use x="537.10" y="423.20" xlink:href="#Hd"/>
<use x="537.10" y="417.20" xlink:href="#Hd"/>
<use x="617.80" y="429.20" xlink:href="#hl"/>
<use x="617.80" y="435.20" xlink:href="#hl"/>
<use x="617.80" y="441.20" xlink:href="#hl"/>
<use x="617.80" y="447.20" xlink:href="#hl"/>
<use x="617.80" y="453.20" xlink:href="#hl"/>
<use x="617.80" y="456.20" xlink:href="#Hd"/>
<path d="M621.30 456.20v-58.00" class="stroke"/>
<use x="617.80" y="435.20" xlink:href="#Hd"/>
<use x="617.80" y="429.20" xlink:href="#Hd"/>
<use x="617.80" y="423.20" xlink:href="#Hd"/>
<use x="617.80" y="417.20" xlink:href="#Hd"/>
<g transform="rotate(270)">
<use x="-459.20" y="51.00" xlink:href="#ltr"/>
<use x="-453.20" y="51.00" xlink:href="#ltr"/>
<use x="-447.20" y="51.00" xlink:href="#ltr"/>
<use x="-441.20" y="51.00" xlink:href="#ltr"/>
<use x="-435.20" y="51.00" xlink:href="#ltr"/>
<use x="-429.20" y="51.00" xlink:href="#ltr"/>
<use x="-423.20" y="51.00" xlink:href="#ltr"/>
<use x="-417.20" y="51.00" xlink:href="#ltr"/>
</g>
<g transform="rotate(270)">
<use x="-444.20" y="131.80" xlink:href="#ltr"/>
<use x="-438.20" y="131.80" xlink:href="#ltr"/>
<use x="-432.20" y="131.80" xlink:href="#ltr"/>
<use x="-426.20" y="131.80" xlink:href="#ltr"/>
<use x="-420.20" y="131.80" xlink:href="#ltr"/>
<use x="-414.20" y="131.80" xlink:href="#ltr"/>
<use x="-408.20" y="131.80" xlink:href="#ltr"/>
<use x="-402.20" y="131.80" xlink:href="#ltr"/>
</g>
<g transform="rotate(270)">
<use x="-447.20" y="188.90" xlink:href="#ltr"/>
<use x="-441.20" y="188.90" xlink:href="#ltr"/>
<use x="-435.20" y="188.90" xlink:href="#ltr"/>
<use x="-429.20" y="188.90" xlink:href="#ltr"/>
<use x="-423.20" y="188.90" xlink:href="#ltr"/>
<use x="-417.20" y="188.90" xlink:href="#ltr"/>
<use x="-411.20" y="188.90" xlink:href="#ltr"/>
<use x="-405.20" y="188.90" xlink:href="#ltr"/>
</g>
<g transform="rotate(270)">
<use x="-450.20" y="269.60" xlink:href="#ltr"/>
<use x="-444.20" y="269.60" xlink:href="#ltr"/>
<use x="-438.20" y="269.60" xlink:href="#ltr"/>
<use x="-432.20" y="269.60" xlink:href="#ltr"/>
<use x="-426.20" y="269.60" xlink:href="#ltr"/>
<use x="-420.20" y="269.60" xlink:href="#ltr"/>
<use x="-414.20" y="269.60" xlink:href="#ltr"/>
<use x="-408.20" y="269.60" xlink:href="#ltr"/>
</g>
<g transform="rotate(270)">
<use x="-459.20" y="350.40" xlink:href="#ltr"/>
<use x="-453.20" y="350.40" xlink:href="#ltr"/>
<use x="-447.20" y="350.40" xlink:href="#ltr"/>
<use x="-441.20" y="350.40" xlink:href="#ltr"/>
<use x="-435.20" y="350.40" xlink:href="#ltr"/>
<use x="-429.20" y="350.40" xlink:href="#ltr"/>
<use x="-423.20" y="350.40" xlink:href="#ltr"/>
<use x="-417.20" y="350.40" xlink:href="#ltr"/>
</g>
<g transform="rotate(270)">
<use x="-444.20" y="446.30" xlink:href="#ltr"/>
<use x="-438.20" y="446.30" xlink:href="#ltr"/>
<use x="-432.20" y="446.30" xlink:href="#ltr"/>
<use x="-426.20" y="446.30" xlink:href="#ltr"/>
<use x="-420.20" y="446.30" xlink:href="#ltr"/>
<use x="-414.20" y="446.30" xlink:href="#ltr"/>
<use x="-408.20" y="446.30" xlink:href="#ltr"/>
<use x="-402.20" y="446.30" xlink:href="#ltr"/>
</g>
<g transform="rotate(270)">
<use x="-459.20" y="527.10" xlink:href="#ltr"/>
<use x="-453.20" y="527.10" xlink:href="#ltr"/>
<use x="-447.20" y="527.10" xlink:href="#ltr"/>
<use x="-441.20" y="527.10" xlink:href="#ltr"/>
<use x="-435.20" y="527.10" xlink:href="#ltr"/>
<use x="-429.20" y="527.10" xlink:href="#ltr"/>
<use x="-423.20" y="527.10" xlink:href="#ltr"/>
<use x="-417.20" y="527.10" xlink:href="#ltr"/>
</g>
<g transform="rotate(270)">
<use x="-459.20" y="607.80" xlink:href="#ltr"/>
<use x="-453.20" y="607.80" xlink:href="#ltr"/>
<use x="-447.20" y="607.80" xlink:href="#ltr"/>
<use x="-441.20" y="607.80" xlink:href="#ltr"/>
<use x="-435.20" y="607.80" xlink:href="#ltr"/>
<use x="-429.20" y="607.80" xlink:href="#ltr"/>
<use x="-423.20" y="607.80" xlink:href="#ltr"/>
<use x="-417.20" y="607.80" xlink:href="#ltr"/>
</g>
</g>
<g stroke-width="0.70" style="font:italic 11.00px Times">
<path class="stroke" stroke-width="1"
	d="M10.00 569.60v-82.00"/>
<g transform="translate(10.00,487.60) scale(1,0.82)">
	<use xlink:href="#brace"/>
</g>
<path class="stroke" stroke-width="1"
	d="M140.20 511.60v-24.00"/>
<path class="stroke" stroke-width="1"
	d="M140.20 569.60v-24.00"/>
<path class="stroke" stroke-width="1"
	d="M216.50 511.60v-24.00"/>
<path class="stroke" stroke-width="1"
	d="M216.50 569.60v-24.00"/>
<path class="stroke" stroke-width="1"
	d="M322.30 511.60v-24.00"/>
<path class="stroke" stroke-width="1"
	d="M322.30 569.60v-24.00"/>
<path class="stroke" stroke-width="1"
	d="M409.40 511.60v-24.00"/>
<path class="stroke" stroke-width="1"
	d="M409.40 569.60v-24.00"/>
<path class="stroke" stroke-width="1"
	d="M504.50 511.60v-24.00"/>
<path class="stroke" stroke-width="1"
	d="M504.50 569.60v-24.00"/>
<path class="stroke" stroke-width="1"
	d="M580.80 511.60v-24.00"/>
<path class="stroke" stroke-width="1"
	d="M580.80 569.60v-24.00"/>
<path class="stroke" stroke-width="1"
	d="M691.60 511.60v-24.00"/>
<path class="stroke" stroke-width="1"
	d="M691.60 569.60v-24.00"/>
<path d="m10.00 511.60
	h681.60
	M10.00 505.60
	h681.60
	M10.00 499.60
	h681.60
	M10.00 493.60
	h681.60
	M10.00 487.60
	h681.60
	" class="stroke"/>
<path d="m10.00 569.60
	h681.60
	M10.00 563.60
	h681.60
	M10.00 557.60
	h681.60
	M10.00 551.60
	h681.60
	M10.00 545.60
	h681.60
	" class="stroke"/>
</g>
<g stroke-width="0.70" style="font:bold 13.00px Times">
<text x="55.30" y="483.00">I<tspan
	 style="font:italic 11.00px Times">Δ⁷</tspan></text>
</g>
<g stroke-width="0.70" style="font:bold 13.00px Times">
<text x="145.50" y="472.00">iii<tspan
	 style="font:italic 11.00px Times">m⁷</tspan></text>
</g>
<g stroke-width="0.70" style="font:bold 13.00px Times">
<text x="232.90" y="475.00">I<tspan
	 style="font:italic 11.00px Times">Δ⁷²</tspan></text>
</g>
<g stroke-width="0.70" style="font:bold 13.00px Times">
<text x="338.30" y="482.00">iii<tspan
	 style="font:italic 11.00px Times">m⁷</tspan></text>
</g>
<g stroke-width="0.70" style="font:bold 13.00px Times">
<text x="414.60" y="483.00">vi<tspan
	 style="font:italic 11.00px Times">m⁷</tspan></text>
</g>
<g stroke-width="0.70" style="font:bold 13.00px Times">
<text x="509.70" y="472.00">vii<tspan
	 style="font:italic 11.00px Times">ø⁷¹</tspan></text>
</g>
<g stroke-width="0.70" style="font:bold 13.00px Times">
<text x="586.10" y="475.00">vi<tspan
	 style="font:italic 11.00px Times">m⁷</tspan></text>
</g>
<g stroke-width="0.70" style="font:italic 11.00px Times">
<use x="22.00" y="505.60" xlink:href="#tclef"/>
<use x="61.00" y="496.60" xlink:href="#hd"/>
<path d="M57.50 496.60v21.00" class="stroke"/>
<use x="98.00" y="499.60" xlink:href="#hd"/>
<path d="M94.50 499.60v21.00" class="stroke"/>
<path class="fill"
	d="M94.50 520.60c0.6 -5.6 9.6 -9 5.6 -18.4
	1.6 6 -1.3 11.6 -5.6 12.8
"/>
<use x="121.60" y="502.60" xlink:href="#hd"/>
<path d="M125.10 502.60v-21.00" class="stroke"/>
<path class="fill"
	d="M125.10 481.60c0.6 5.6 9.6 9 5.6 18.4
	1.6 -6 -1.3 -11.6 -5.6 -12.8
"/>
<use x="153.50" y="499.60" xlink:href="#Hd"/>
<path d="M157.00 499.60v-21.00" class="stroke"/>
<use x="240.50" y="502.60" xlink:href="#hd"/>
<path d="M244.00 502.60v-21.00" class="stroke"/>
<use x="277.60" y="496.60" xlink:href="#hd"/>
<path d="M274.10 496.60v21.00" class="stroke"/>
<path class="fill"
	d="M274.10 517.60c0.6 -5.6 9.6 -9 5.6 -18.4
	1.6 6 -1.3 11.6 -5.6 12.8
"/>
<use x="303.80" y="493.60" xlink:href="#hd"/>
<path d="M300.30 493.60v21.00" class="stroke"/>
<path class="fill"
	d="M300.30 514.60c0.6 -5.6 9.6 -9 5.6 -18.4
	1.6 6 -1.3 11.6 -5.6 12.8
"/>
<use x="346.30" y="490.60" xlink:href="#hd"/>
<path d="M342.80 490.60v21.00" class="stroke"/>
<use x="383.30" y="490.60" xlink:href="#hd"/>
<path d="M379.80 490.60v21.00" class="stroke"/>
<use x="422.60" y="496.60" xlink:href="#hd"/>
<path d="M419.10 496.60v21.00" class="stroke"/>
<use x="459.70" y="499.60" xlink:href="#hd"/>
<path d="M456.20 499.60v21.00" class="stroke"/>
<path class="fill"
	d="M456.20 520.60c0.6 -5.6 9.6 -9 5.6 -18.4
	1.6 6 -1.3 11.6 -5.6 12.8
"/>
<use x="485.90" y="502.60" xlink:href="#hd"/>
<path d="M489.40 502.60v-21.00" class="stroke"/>
<path class="fill"
	d="M489.40 481.60c0.6 5.6 9.6 9 5.6 18.4
	1.6 -6 -1.3 -11.6 -5.6 -12.8
"/>
<use x="517.70" y="499.60" xlink:href="#hd"/>
<path d="M521.20 499.60v-21.00" class="stroke"/>
<use x="554.80" y="502.60" xlink:href="#hd"/>
<path d="M558.30 502.60v-21.00" class="stroke"/>
<use x="594.10" y="502.60" xlink:href="#hd"/>
<path d="M597.60 502.60v-21.00" class="stroke"/>
<path class="fill"
	d="M597.60 481.60c0.6 5.6 9.6 9 5.6 18.4
	1.6 -6 -1.3 -11.6 -5.6 -12.8
"/>
<use x="620.40" y="505.60" xlink:href="#hd"/>
<path d="M623.90 505.60v-21.00" class="stroke"/>
<path class="fill"
	d="M623.90 484.60c0.6 5.6 9.6 9 5.6 18.4
	1.6 -6 -1.3 -11.6 -5.6 -12.8
"/>
<use x="646.70" y="511.60" xlink:href="#hd"/>
<path d="M650.20 511.60v-21.00" class="stroke"/>
<path class="fill"
	d="M650.20 490.60c0.6 5.6 9.6 9 5.6 18.4
	1.6 -6 -1.3 -11.6 -5.6 -12.8
"/>
<use x="673.00" y="514.60" xlink:href="#hd"/>
<path d="M676.50 514.60v-21.00" class="stroke"/>
<path class="fill"
	d="M676.50 493.60c0.6 5.6 9.6 9 5.6 18.4
	1.6 -6 -1.3 -11.6 -5.6 -12.8
"/>
<use x="22.00" y="551.60" xlink:href="#bclef"/>
<use x="61.00" y="575.60" xlink:href="#hl"/>
<use x="61.00" y="581.60" xlink:href="#hl"/>
<use x="61.00" y="587.60" xlink:href="#hl"/>
<use x="61.00" y="593.60" xlink:href="#hl"/>
<use x="61.00" y="599.60" xlink:href="#hl"/>
<use x="61.00" y="602.60" xlink:href="#Hd"/>
<path d="M64.50 602.60v-58.00" class="stroke"/>
<use x="61.00" y="581.60" xlink:href="#Hd"/>
<use x="61.00" y="575.60" xlink:href="#Hd"/>
<use x="61.00" y="569.60" xlink:href="#Hd"/>
<use x="61.00" y="563.60" xlink:href="#Hd"/>
<use x="153.50" y="575.60" xlink:href="#hl"/>
<use x="153.50" y="575.60" xlink:href="#hd"/>
<path d="M157.00 575.60v-21.00" class="stroke"/>
<use x="190.50" y="569.60" xlink:href="#hd"/>
<path d="M194.00 569.60v-21.00" class="stroke"/>
<use x="240.50" y="575.60" xlink:href="#hl"/>
<use x="240.50" y="581.60" xlink:href="#hl"/>
<use x="240.50" y="587.60" xlink:href="#hl"/>
<use x="240.50" y="593.60" xlink:href="#hl"/>
<use x="240.50" y="599.60" xlink:href="#hl"/>
<use x="240.50" y="602.60" xlink:href="#Hd"/>
<path d="M244.00 602.60v-58.00" class="stroke"/>
<use x="240.50" y="581.60" xlink:href="#Hd"/>
<use x="240.50" y="575.60" xlink:href="#Hd"/>
<use x="240.50" y="569.60" xlink:href="#Hd"/>
<use x="240.50" y="563.60" xlink:href="#Hd"/>
<use x="346.30" y="575.60" xlink:href="#hl"/>
<use x="346.30" y="581.60" xlink:href="#hl"/>
<use x="346.30" y="587.60" xlink:href="#hl"/>
<use x="346.30" y="593.60" xlink:href="#hl"/>
<use x="346.30" y="596.60" xlink:href="#Hd"/>
<path d="M349.80 596.60v-58.00" class="stroke"/>
<use x="346.30" y="575.60" xlink:href="#Hd"/>
<use x="346.30" y="569.60" xlink:href="#Hd"/>
<use x="346.30" y="563.60" xlink:href="#Hd"/>
<use x="346.30" y="557.60" xlink:href="#Hd"/>
<use x="422.60" y="566.60" xlink:href="#hd"/>
<path d="M426.10 566.60v-21.00" class="stroke"/>
<use x="459.70" y="560.60" xlink:href="#hd"/>
<path d="M463.20 560.60v-21.00" class="stroke"/>
<use x="517.70" y="563.60" xlink:href="#hd"/>
<path d="M521.20 563.60v-21.00" class="stroke"/>
<use x="554.80" y="557.60" xlink:href="#hd"/>
<path d="M558.30 557.60v-21.00" class="stroke"/>
<use x="594.10" y="566.60" xlink:href="#hd"/>
<path d="M597.60 566.60v-21.00" class="stroke"/>
<use x="646.70" y="560.60" xlink:href="#hd"/>
<path d="M650.20 560.60v-21.00" class="stroke"/>
<g transform="rotate(270)">
<use x="-605.60" y="51.00" xlink:href="#ltr"/>
<use x="-599.60" y="51.00" xlink:href="#ltr"/>
<use x="-593.60" y="51.00" xlink:href="#ltr"/>
<use x="-587.60" y="51.00" xlink:href="#ltr"/>
<use x="-581.60" y="51.00" xlink:href="#ltr"/>
<use x="-575.60" y="51.00" xlink:href="#ltr"/>
<use x="-569.60" y="51.00" xlink:href="#ltr"/>
<use x="-563.60" y="51.00" xlink:href="#ltr"/>
</g>
<g transform="rotate(270)">
<use x="-605.60" y="230.50" xlink:href="#ltr"/>
<use x="-599.60" y="230.50" xlink:href="#ltr"/>
<use x="-593.60" y="230.50" xlink:href="#ltr"/>
<use x="-587.60" y="230.50" xlink:href="#ltr"/>
<use x="-581.60" y="230.50" xlink:href="#ltr"/>
<use x="-575.60" y="230.50" xlink:href="#ltr"/>
<use x="-569.60" y="230.50" xlink:href="#ltr"/>
<use x="-563.60" y="230.50" xlink:href="#ltr"/>
</g>
<g transform="rotate(270)">
<use x="-599.60" y="336.30" xlink:href="#ltr"/>
<use x="-593.60" y="336.30" xlink:href="#ltr"/>
<use x="-587.60" y="336.30" xlink:href="#ltr"/>
<use x="-581.60" y="336.30" xlink:href="#ltr"/>
<use x="-575.60" y="336.30" xlink:href="#ltr"/>
<use x="-569.60" y="336.30" xlink:href="#ltr"/>
<use x="-563.60" y="336.30" xlink:href="#ltr"/>
<use x="-557.60" y="336.30" xlink:href="#ltr"/>
</g>
</g>
<g stroke-width="0.70" style="font:italic 11.00px Times">
<path class="stroke" stroke-width="1"
	d="M10.00 715.00v-82.00"/>
<g transform="translate(10.00,633.00) scale(1,0.82)">
	<use xlink:href="#brace"/>
</g>
<path class="stroke" stroke-width="1"
	d="M149.10 657.00v-24.00"/>
<path class="stroke" stroke-width="1"
	d="M149.10 715.00v-24.00"/>
<path class="stroke" stroke-width="1"
	d="M241.10 657.00v-24.00"/>
<path class="stroke" stroke-width="1"
	d="M241.10 715.00v-24.00"/>
<path class="stroke" stroke-width="1"
	d="M304.70 657.00v-24.00"/>
<path class="stroke" stroke-width="1"
	d="M304.70 715.00v-24.00"/>
<path d="m10.00 657.00
	h294.70
	M10.00 651.00
	h294.70
	M10.00 645.00
	h294.70
	M10.00 639.00
	h294.70
	M10.00 633.00
	h294.70
	" class="stroke"/>
<path d="m10.00 715.00
	h294.70
	M10.00 709.00
	h294.70
	M10.00 703.00
	h294.70
	M10.00 697.00
	h294.70
	M10.00 691.00
	h294.70
	" class="stroke"/>
</g>
<g stroke-width="0.70" style="font:bold 13.00px Times">
<text x="53.00" y="628.40">vi<tspan
	 style="font:italic 11.00px Times">m⁷</tspan></text>
</g>
<g stroke-width="0.70" style="font:bold 13.00px Times">
<text x="165.40" y="628.40">I<tspan
	 style="font:italic 11.00px Times">Δ⁷¹</tspan></text>
</g>
<g stroke-width="0.70" style="font:bold 13.00px Times">
<text x="257.10" y="618.40">vi<tspan
	 style="font:italic 11.00px Times">m⁷</tspan></text>
</g>
<g stroke-width="0.70" style="font:italic 11.00px Times">
<use x="22.00" y="651.00" xlink:href="#tclef"/>
<use x="61.00" y="657.00" xlink:href="#hd"/>
<path d="M64.50 657.00v-21.00" class="stroke"/>
<use x="101.00" y="651.00" xlink:href="#hd"/>
<path d="M104.50 651.00v-21.00" class="stroke"/>
<path class="fill"
	d="M104.50 630.00c0.6 5.6 9.6 9 5.6 18.4
	1.6 -6 -1.3 -11.6 -5.6 -12.8
"/>
<use x="129.30" y="648.00" xlink:href="#hd"/>
<path d="M132.80 648.00v-21.00" class="stroke"/>
<path class="fill"
	d="M132.80 627.00c0.6 5.6 9.6 9 5.6 18.4
	1.6 -6 -1.3 -11.6 -5.6 -12.8
"/>
<use x="173.10" y="642.00" xlink:href="#hd"/>
<path d="M169.60 642.00v21.00" class="stroke"/>
<use x="213.10" y="645.00" xlink:href="#hd"/>
<path d="M209.60 645.00v21.00" class="stroke"/>
<use x="265.10" y="627.00" xlink:href="#hl"/>
<use x="265.10" y="627.00" xlink:href="#Hd"/>
<path d="M261.60 627.00v40.00" class="stroke"/>
<use x="265.10" y="648.00" xlink:href="#Hd"/>
<use x="22.00" y="697.00" xlink:href="#bclef"/>
<use x="61.00" y="721.00" xlink:href="#hl"/>
<use x="61.00" y="727.00" xlink:href="#hl"/>
<use x="61.00" y="733.00" xlink:href="#hl"/>
<use x="61.00" y="733.00" xlink:href="#Hd"/>
<path d="M64.50 733.00v-58.00" class="stroke"/>
<use x="61.00" y="712.00" xlink:href="#Hd"/>
<use x="61.00" y="706.00" xlink:href="#Hd"/>
<use x="61.00" y="700.00" xlink:href="#Hd"/>
<use x="61.00" y="694.00" xlink:href="#Hd"/>
<use x="173.10" y="721.00" xlink:href="#hl"/>
<use x="173.10" y="727.00" xlink:href="#hl"/>
<use x="173.10" y="733.00" xlink:href="#hl"/>
<use x="173.10" y="739.00" xlink:href="#hl"/>
<use x="173.10" y="745.00" xlink:href="#hl"/>
<use x="173.10" y="748.00" xlink:href="#Hd"/>
<path d="M176.60 748.00v-58.00" class="stroke"/>
<use x="173.10" y="727.00" xlink:href="#Hd"/>
<use x="173.10" y="721.00" xlink:href="#Hd"/>
<use x="173.10" y="715.00" xlink:href="#Hd"/>
<use x="173.10" y="709.00" xlink:href="#Hd"/>
<use x="265.10" y="721.00" xlink:href="#hl"/>
<use x="265.10" y="727.00" xlink:href="#hl"/>
<use x="265.10" y="733.00" xlink:href="#hl"/>
<use x="265.10" y="733.00" xlink:href="#Hd"/>
<path d="M268.60 733.00v-58.00" class="stroke"/>
<use x="265.10" y="712.00" xlink:href="#Hd"/>
<use x="265.10" y="706.00" xlink:href="#Hd"/>
<use x="265.10" y="700.00" xlink:href="#Hd"/>
<use x="265.10" y="694.00" xlink:href="#Hd"/>
<g transform="rotate(270)">
<use x="-736.00" y="51.00" xlink:href="#ltr"/>
<use x="-730.00" y="51.00" xlink:href="#ltr"/>
<use x="-724.00" y="51.00" xlink:href="#ltr"/>
<use x="-718.00" y="51.00" xlink:href="#ltr"/>
<use x="-712.00" y="51.00" xlink:href="#ltr"/>
<use x="-706.00" y="51.00" xlink:href="#ltr"/>
<use x="-700.00" y="51.00" xlink:href="#ltr"/>
<use x="-694.00" y="51.00" xlink:href="#ltr"/>
</g>
<g transform="rotate(270)">
<use x="-751.00" y="163.10" xlink:href="#ltr"/>
<use x="-745.00" y="163.10" xlink:href="#ltr"/>
<use x="-739.00" y="163.10" xlink:href="#ltr"/>
<use x="-733.00" y="163.10" xlink:href="#ltr"/>
<use x="-727.00" y="163.10" xlink:href="#ltr"/>
<use x="-721.00" y="163.10" xlink:href="#ltr"/>
<use x="-715.00" y="163.10" xlink:href="#ltr"/>
<use x="-709.00" y="163.10" xlink:href="#ltr"/>
</g>
<g transform="rotate(270)">
<use x="-736.00" y="255.10" xlink:href="#ltr"/>
<use x="-730.00" y="255.10" xlink:href="#ltr"/>
<use x="-724.00" y="255.10" xlink:href="#ltr"/>
<use x="-718.00" y="255.10" xlink:href="#ltr"/>
<use x="-712.00" y="255.10" xlink:href="#ltr"/>
<use x="-706.00" y="255.10" xlink:href="#ltr"/>
<use x="-700.00" y="255.10" xlink:href="#ltr"/>
<use x="-694.00" y="255.10" xlink:href="#ltr"/>
</g>
</g>
</svg>
