<?xml version="1.0" standalone="no"?>
<!DOCTYPE svg PUBLIC "-//W3C//DTD SVG 1.1//EN"
	"http://www.w3.org/Graphics/SVG/1.1/DTD/svg11.dtd">
<svg xmlns="http://www.w3.org/2000/svg" version="1.1"
	xmlns:xlink="http://www.w3.org/1999/xlink"
	color="black"
	width="701.60px" height="564.00px" viewBox="0 0 701.60 564.00" preserveAspectRatio="xMidYMid meet">
<style type="text/css">
.fill {fill: currentColor}
.stroke {stroke: currentColor; fill: none}
text{white-space: pre}
</style>
<title>/tmp/reharm_hymnal_L5/let_all_mortal_flesh_keep_silence.abc (1) tune 1</title>
<!-- Creator: abcm2ps-8.14.11 -->
<!-- CreationDate: Apr 24, 2026 15:32 -->
<!-- CommandLine: /tmp/reharm_hymnal_L5/let_all_mortal_flesh_keep_silence.abc -g -O /tmp/reharm_hymnal_L5/let_all_mortal_flesh_keep_silence -->
<g stroke-width="0.70">
<!-- title: 135. Let All Mortal Flesh Keep Silence -->
</g>
<g stroke-width="0.70" style="font:20.00px Times">
<text x="350.80" y="22.00" text-anchor="middle">135. Let All Mortal Flesh Keep Silence</text>
</g>
<g stroke-width="0.70" style="font:20.00px Times">
<path class="stroke" stroke-width="1"
	d="M10.00 143.00v-82.00"/>
<defs>
<path id="brace" class="fill" d="m-2.5 101
	c-4.5 -4.6 -7.5 -12.2 -4.4 -26.8
	3.5 -14.3 3.2 -21.7 -2.1 -24.2
	7.4 2.4 7.3 14.2 3.5 29.5
	-2.7 9.5 -1.5 16.2 3 21.5
	M-2.5 1c-4.5 4.6 -7.5 12.2 -4.4 26.8
	c3.5 14.3 3.2 21.7 -2.1 24.2
	7.4 -2.4 7.3 -14.2 3.5 -29.5
	-2.7 -9.5 -1.5 -16.2 3 -21.5"/>
</defs>
<g transform="translate(10.00,61.00) scale(1,0.82)">
	<use xlink:href="#brace"/>
</g>
<path class="stroke" stroke-width="1"
	d="M197.10 85.00v-24.00"/>
<path class="stroke" stroke-width="1"
	d="M197.10 143.00v-24.00"/>
<path class="stroke" stroke-width="1"
	d="M320.90 85.00v-24.00"/>
<path class="stroke" stroke-width="1"
	d="M320.90 143.00v-24.00"/>
<path class="stroke" stroke-width="1"
	d="M444.50 85.00v-24.00"/>
<path class="stroke" stroke-width="1"
	d="M444.50 143.00v-24.00"/>
<path class="stroke" stroke-width="1"
	d="M567.80 85.00v-24.00"/>
<path class="stroke" stroke-width="1"
	d="M567.80 143.00v-24.00"/>
<path class="stroke" stroke-width="1"
	d="M691.60 85.00v-24.00"/>
<path class="stroke" stroke-width="1"
	d="M691.60 143.00v-24.00"/>
<path d="m10.00 85.00
	h681.60
	M10.00 79.00
	h681.60
	M10.00 73.00
	h681.60
	M10.00 67.00
	h681.60
	M10.00 61.00
	h681.60
	" class="stroke"/>
<path d="m10.00 143.00
	h681.60
	M10.00 137.00
	h681.60
	M10.00 131.00
	h681.60
	M10.00 125.00
	h681.60
	M10.00 119.00
	h681.60
	" class="stroke"/>
</g>
<g stroke-width="0.70" style="font:bold 13.00px Times">
<text x="78.50" y="56.40">vi<tspan
	 style="font:italic 11.00px Times">m⁷</tspan></text>
</g>
<g stroke-width="0.70" style="font:bold 13.00px Times">
<text x="204.40" y="48.40">I<tspan
	 style="font:italic 11.00px Times">Δ⁷</tspan></text>
</g>
<g stroke-width="0.70" style="font:bold 13.00px Times">
<text x="325.90" y="48.40">vi<tspan
	 style="font:italic 11.00px Times">m⁷¹</tspan></text>
</g>
<g stroke-width="0.70" style="font:bold 13.00px Times">
<text x="449.00" y="48.40">vi<tspan
	 style="font:italic 11.00px Times">m⁷</tspan></text>
</g>
<g stroke-width="0.70" style="font:bold 13.00px Times">
<text x="572.80" y="54.40">ii<tspan
	 style="font:italic 11.00px Times">m⁷</tspan></text>
</g>
<g stroke-width="0.70" style="font:italic 11.00px Times">
<defs>
<path id="utclef" class="fill" d="m-50 -90
	c-72 -41 -72 -158 52 -188
	150 -10 220 188 90 256
	-114 52 -275 0 -293 -136
	-15 -181 93 -229 220 -334
	88 -87 79 -133 62 -210
	-51 33 -94 105 -89 186
	17 267 36 374 49 574
	6 96 -19 134 -77 135
	-80 1 -126 -93 -61 -133
	85 -41 133 101 31 105
	23 17 92 37 90 -92
	-10 -223 -39 -342 -50 -617
	0 -90 0 -162 96 -232
	56 72 63 230 22 289
	-74 106 -257 168 -255 316
	9 153 148 185 252 133
	86 -65 29 -192 -80 -176
	-71 12 -105 67 -59 124"/>
<use id="tclef" transform="translate(0,6) scale(0.045)"
	xlink:href="#utclef"/>
</defs>
<use x="22.00" y="79.00" xlink:href="#tclef"/>
<defs>
<path id="uflat" class="fill" d="
	m100 -746
	h32
	v734
	l-32 4
	m32 -332
	c46 -72 152 -90 208 -20
	100 110 -120 326 -208 348
	m0 -28
	c54 0 200 -206 130 -290
	-50 -60 -130 -4 -130 34"/>
<use id="ft0" transform="translate(-3.5,3.5) scale(0.018)"
	xlink:href="#uflat"/>
</defs>
<use x="37.00" y="73.00" xlink:href="#ft0"/>
<g style="font:bold 16px serif"
	transform="translate(53.00,84.50) scale(1.2,1)">
	<text text-anchor="middle">4</text>
	<text y="-12" text-anchor="middle">4</text>
</g>
<defs>
<ellipse id="hd" rx="4.1" ry="2.9"
	transform="rotate(-20)" class="fill"/>
</defs>
<use x="86.50" y="88.00" xlink:href="#hd"/>
<path d="M90.00 88.00v-21.00" class="stroke"/>
<use x="116.30" y="85.00" xlink:href="#hd"/>
<path d="M119.80 85.00v-21.00" class="stroke"/>
<use x="146.10" y="82.00" xlink:href="#hd"/>
<path d="M149.60 82.00v-21.00" class="stroke"/>
<use x="175.90" y="79.00" xlink:href="#hd"/>
<path d="M179.40 79.00v-21.00" class="stroke"/>
<defs>
<path id="Hd" class="fill" d="m3 -1.6
	c-1 -1.8 -7 1.4 -6 3.2
	1 1.8 7 -1.4 6 -3.2
	m0.5 -0.3
	c2 3.8 -5 7.6 -7 3.8
	-2 -3.8 5 -7.6 7 -3.8"/>
</defs>
<use x="210.10" y="76.00" xlink:href="#Hd"/>
<path d="M213.60 76.00v-21.00" class="stroke"/>
<use x="269.70" y="76.00" xlink:href="#hd"/>
<path d="M273.20 76.00v-21.00" class="stroke"/>
<use x="299.70" y="79.00" xlink:href="#hd"/>
<path d="M303.20 79.00v-21.00" class="stroke"/>
<use x="333.90" y="76.00" xlink:href="#Hd"/>
<path d="M337.40 76.00v-21.00" class="stroke"/>
<use x="393.50" y="76.00" xlink:href="#Hd"/>
<path d="M397.00 76.00v-21.00" class="stroke"/>
<use x="457.00" y="76.00" xlink:href="#hd"/>
<path d="M460.50 76.00v-21.00" class="stroke"/>
<use x="486.80" y="76.00" xlink:href="#hd"/>
<path d="M490.30 76.00v-21.00" class="stroke"/>
<use x="516.60" y="73.00" xlink:href="#hd"/>
<path d="M520.10 73.00v-21.00" class="stroke"/>
<use x="546.60" y="70.00" xlink:href="#hd"/>
<path d="M543.10 70.00v21.00" class="stroke"/>
<use x="580.80" y="73.00" xlink:href="#Hd"/>
<path d="M577.30 73.00v21.00" class="stroke"/>
<use x="640.40" y="76.00" xlink:href="#hd"/>
<path d="M643.90 76.00v-21.00" class="stroke"/>
<use x="670.30" y="79.00" xlink:href="#hd"/>
<path d="M673.80 79.00v-21.00" class="stroke"/>
<defs>
<path id="ubclef" class="fill" d="m-200 -87
	c124 -35 222 -78 254 -236
	43 -228 -167 -246 -192 -103
	59 -80 157 22 92 78
	-62 47 -115 -22 -106 -88
	21 -141 270 -136 274 52
	-1 175 -106 264 -322 297
	m357 -250
	c0 -36 51 -34 51 0
	0 37 -51 36 -51 0
	m-2 -129
	c0 -36 51 -34 51 0
	0 38 -51 37 -51 0"/>
<use id="bclef" transform="translate(0,18) scale(0.045)"
	xlink:href="#ubclef"/>
</defs>
<use x="22.00" y="125.00" xlink:href="#bclef"/>
<use x="37.00" y="137.00" xlink:href="#ft0"/>
<g style="font:bold 16px serif"
	transform="translate(53.00,142.50) scale(1.2,1)">
	<text text-anchor="middle">4</text>
	<text y="-12" text-anchor="middle">4</text>
</g>
<defs>
<path id="hl1" class="stroke" d="m-7 0h14"/>
</defs>
<use x="87.50" y="149.00" xlink:href="#hl1"/>
<use x="87.50" y="113.00" xlink:href="#hl1"/>
<defs>
<path id="HD" class="fill" d="m-2.7 -1.4
	c1.5 -2.8 6.9 0 5.3 2.7
	-1.5 2.8 -6.9 0 -5.3 -2.7
	m8.3 1.4
	c0 -1.5 -2.2 -3 -5.6 -3
	-3.4 0 -5.6 1.5 -5.6 3
	0 1.5 2.2 3 5.6 3
	3.4 0 5.6 -1.5 5.6 -3"/>
</defs>
<use x="87.50" y="152.00" xlink:href="#HD"/>
<use x="87.50" y="131.00" xlink:href="#HD"/>
<use x="87.50" y="125.00" xlink:href="#HD"/>
<use x="87.50" y="119.00" xlink:href="#HD"/>
<use x="87.50" y="113.00" xlink:href="#HD"/>
<use x="210.10" y="146.00" xlink:href="#hd"/>
<path d="M213.60 146.00v-21.00" class="stroke"/>
<use x="239.90" y="140.00" xlink:href="#hd"/>
<path d="M243.40 140.00v-21.00" class="stroke"/>
<use x="269.70" y="134.00" xlink:href="#hd"/>
<path d="M273.20 134.00v-21.00" class="stroke"/>
<use x="299.70" y="128.00" xlink:href="#hd"/>
<path d="M296.20 128.00v21.00" class="stroke"/>
<use x="333.90" y="131.00" xlink:href="#hd"/>
<path d="M330.40 131.00v21.00" class="stroke"/>
<use x="363.70" y="125.00" xlink:href="#hd"/>
<path d="M360.20 125.00v21.00" class="stroke"/>
<use x="393.50" y="119.00" xlink:href="#hd"/>
<path d="M390.00 119.00v21.00" class="stroke"/>
<defs>
<path id="hl" class="stroke" d="m-6 0h12"/>
</defs>
<use x="423.30" y="113.00" xlink:href="#hl"/>
<use x="423.30" y="113.00" xlink:href="#hd"/>
<path d="M419.80 113.00v21.00" class="stroke"/>
<use x="457.00" y="131.00" xlink:href="#hd"/>
<path d="M453.50 131.00v21.00" class="stroke"/>
<use x="486.80" y="125.00" xlink:href="#hd"/>
<path d="M483.30 125.00v21.00" class="stroke"/>
<use x="516.60" y="119.00" xlink:href="#hd"/>
<path d="M513.10 119.00v21.00" class="stroke"/>
<use x="546.60" y="113.00" xlink:href="#hl"/>
<use x="546.60" y="113.00" xlink:href="#hd"/>
<path d="M543.10 113.00v21.00" class="stroke"/>
<use x="580.80" y="143.00" xlink:href="#hd"/>
<path d="M584.30 143.00v-21.00" class="stroke"/>
<use x="610.60" y="137.00" xlink:href="#hd"/>
<path d="M614.10 137.00v-21.00" class="stroke"/>
<use x="640.40" y="131.00" xlink:href="#hd"/>
<path d="M643.90 131.00v-21.00" class="stroke"/>
<use x="670.30" y="125.00" xlink:href="#hd"/>
<path d="M666.80 125.00v21.00" class="stroke"/>
<defs>
<path id="ltr" class="fill"
    d="m0 -0.4c2 -1.5 3.4 -1.9 3.9 0.4
	c0.2 0.8 0.7 0.7 2.1 -0.4
	v0.8c-2 1.5 -3.4 1.9 -3.9 -0.4
	c-0.2 -0.8 -0.7 -0.7 -2.1 0.4z"/>
</defs>
<g transform="rotate(270)">
<use x="-155.00" y="74.00" xlink:href="#ltr"/>
<use x="-149.00" y="74.00" xlink:href="#ltr"/>
<use x="-143.00" y="74.00" xlink:href="#ltr"/>
<use x="-137.00" y="74.00" xlink:href="#ltr"/>
<use x="-131.00" y="74.00" xlink:href="#ltr"/>
<use x="-125.00" y="74.00" xlink:href="#ltr"/>
<use x="-119.00" y="74.00" xlink:href="#ltr"/>
<use x="-113.00" y="74.00" xlink:href="#ltr"/>
</g>
</g>
<g stroke-width="0.70" style="font:italic 11.00px Times">
<path class="stroke" stroke-width="1"
	d="M10.00 271.00v-82.00"/>
<g transform="translate(10.00,189.00) scale(1,0.82)">
	<use xlink:href="#brace"/>
</g>
<path class="stroke" stroke-width="1"
	d="M153.40 213.00v-24.00"/>
<path class="stroke" stroke-width="1"
	d="M153.40 271.00v-24.00"/>
<path class="stroke" stroke-width="1"
	d="M262.70 213.00v-24.00"/>
<path class="stroke" stroke-width="1"
	d="M262.70 271.00v-24.00"/>
<path class="stroke" stroke-width="1"
	d="M372.30 213.00v-24.00"/>
<path class="stroke" stroke-width="1"
	d="M372.30 271.00v-24.00"/>
<path class="stroke" stroke-width="1"
	d="M459.90 213.00v-24.00"/>
<path class="stroke" stroke-width="1"
	d="M459.90 271.00v-24.00"/>
<path class="stroke" stroke-width="1"
	d="M581.70 213.00v-24.00"/>
<path class="stroke" stroke-width="1"
	d="M581.70 271.00v-24.00"/>
<path class="stroke" stroke-width="1"
	d="M691.60 213.00v-24.00"/>
<path class="stroke" stroke-width="1"
	d="M691.60 271.00v-24.00"/>
<path d="m10.00 213.00
	h681.60
	M10.00 207.00
	h681.60
	M10.00 201.00
	h681.60
	M10.00 195.00
	h681.60
	M10.00 189.00
	h681.60
	" class="stroke"/>
<path d="m10.00 271.00
	h681.60
	M10.00 265.00
	h681.60
	M10.00 259.00
	h681.60
	M10.00 253.00
	h681.60
	M10.00 247.00
	h681.60
	" class="stroke"/>
</g>
<g stroke-width="0.70" style="font:bold 13.00px Times">
<text x="50.80" y="184.40">I<tspan
	 style="font:italic 11.00px Times">Δ⁷</tspan></text>
</g>
<g stroke-width="0.70" style="font:bold 13.00px Times">
<text x="157.90" y="182.40">IV<tspan
	 style="font:italic 11.00px Times">Δ⁷</tspan></text>
</g>
<g stroke-width="0.70" style="font:bold 13.00px Times">
<text x="267.70" y="176.40">vi<tspan
	 style="font:italic 11.00px Times">m⁷¹</tspan></text>
</g>
<g stroke-width="0.70" style="font:bold 13.00px Times">
<text x="391.60" y="176.40">I<tspan
	 style="font:italic 11.00px Times">Δ⁷</tspan></text>
</g>
<g stroke-width="0.70" style="font:bold 13.00px Times">
<text x="476.90" y="176.40">vi<tspan
	 style="font:italic 11.00px Times">m⁷</tspan></text>
</g>
<g stroke-width="0.70" style="font:bold 13.00px Times">
<text x="586.70" y="184.40">ii<tspan
	 style="font:italic 11.00px Times">m⁷¹</tspan></text>
</g>
<g stroke-width="0.70" style="font:italic 11.00px Times">
<use x="22.00" y="207.00" xlink:href="#tclef"/>
<use x="37.00" y="201.00" xlink:href="#ft0"/>
<use x="57.50" y="204.00" xlink:href="#HD"/>
<use x="165.90" y="216.00" xlink:href="#hd"/>
<path d="M169.40 216.00v-21.00" class="stroke"/>
<use x="191.80" y="213.00" xlink:href="#hd"/>
<path d="M195.30 213.00v-21.00" class="stroke"/>
<use x="218.00" y="210.00" xlink:href="#hd"/>
<path d="M221.50 210.00v-21.00" class="stroke"/>
<use x="243.90" y="207.00" xlink:href="#hd"/>
<path d="M247.40 207.00v-21.00" class="stroke"/>
<use x="275.70" y="204.00" xlink:href="#Hd"/>
<path d="M279.20 204.00v-21.00" class="stroke"/>
<use x="327.60" y="204.00" xlink:href="#hd"/>
<path d="M331.10 204.00v-21.00" class="stroke"/>
<use x="353.50" y="207.00" xlink:href="#hd"/>
<path d="M357.00 207.00v-21.00" class="stroke"/>
<use x="397.30" y="204.00" xlink:href="#Hd"/>
<path d="M400.80 204.00v-21.00" class="stroke"/>
<use x="433.70" y="204.00" xlink:href="#Hd"/>
<path d="M437.20 204.00v-21.00" class="stroke"/>
<use x="484.90" y="204.00" xlink:href="#hd"/>
<path d="M488.40 204.00v-21.00" class="stroke"/>
<use x="510.80" y="204.00" xlink:href="#hd"/>
<path d="M514.30 204.00v-21.00" class="stroke"/>
<use x="536.70" y="201.00" xlink:href="#hd"/>
<path d="M540.20 201.00v-21.00" class="stroke"/>
<use x="562.90" y="198.00" xlink:href="#hd"/>
<path d="M559.40 198.00v21.00" class="stroke"/>
<use x="594.70" y="201.00" xlink:href="#Hd"/>
<path d="M591.20 201.00v21.00" class="stroke"/>
<use x="646.60" y="204.00" xlink:href="#hd"/>
<path d="M650.10 204.00v-21.00" class="stroke"/>
<use x="672.80" y="207.00" xlink:href="#hd"/>
<path d="M676.30 207.00v-21.00" class="stroke"/>
<use x="22.00" y="253.00" xlink:href="#bclef"/>
<use x="37.00" y="265.00" xlink:href="#ft0"/>
<use x="56.50" y="274.00" xlink:href="#hd"/>
<path d="M60.00 274.00v-21.00" class="stroke"/>
<use x="82.40" y="268.00" xlink:href="#hd"/>
<path d="M85.90 268.00v-21.00" class="stroke"/>
<use x="108.40" y="262.00" xlink:href="#hd"/>
<path d="M111.90 262.00v-21.00" class="stroke"/>
<use x="134.60" y="256.00" xlink:href="#hd"/>
<path d="M131.10 256.00v21.00" class="stroke"/>
<use x="165.90" y="265.00" xlink:href="#hd"/>
<path d="M169.40 265.00v-21.00" class="stroke"/>
<use x="191.80" y="259.00" xlink:href="#hd"/>
<path d="M195.30 259.00v-21.00" class="stroke"/>
<use x="218.00" y="253.00" xlink:href="#hd"/>
<path d="M214.50 253.00v21.00" class="stroke"/>
<use x="243.90" y="247.00" xlink:href="#hd"/>
<path d="M240.40 247.00v21.00" class="stroke"/>
<use x="275.70" y="259.00" xlink:href="#hd"/>
<path d="M272.20 259.00v21.00" class="stroke"/>
<use x="301.70" y="253.00" xlink:href="#hd"/>
<path d="M298.20 253.00v21.00" class="stroke"/>
<use x="327.60" y="247.00" xlink:href="#hd"/>
<path d="M324.10 247.00v21.00" class="stroke"/>
<use x="353.50" y="241.00" xlink:href="#hl"/>
<use x="353.50" y="241.00" xlink:href="#hd"/>
<path d="M350.00 241.00v21.00" class="stroke"/>
<use x="398.30" y="277.00" xlink:href="#hl1"/>
<use x="398.30" y="283.00" xlink:href="#hl1"/>
<use x="398.30" y="289.00" xlink:href="#hl1"/>
<use x="398.30" y="295.00" xlink:href="#hl1"/>
<use x="398.30" y="295.00" xlink:href="#HD"/>
<use x="398.30" y="274.00" xlink:href="#HD"/>
<use x="398.30" y="268.00" xlink:href="#HD"/>
<use x="398.30" y="262.00" xlink:href="#HD"/>
<use x="398.30" y="256.00" xlink:href="#HD"/>
<use x="485.90" y="277.00" xlink:href="#hl1"/>
<use x="485.90" y="241.00" xlink:href="#hl1"/>
<use x="485.90" y="280.00" xlink:href="#HD"/>
<use x="485.90" y="259.00" xlink:href="#HD"/>
<use x="485.90" y="253.00" xlink:href="#HD"/>
<use x="485.90" y="247.00" xlink:href="#HD"/>
<use x="485.90" y="241.00" xlink:href="#HD"/>
<use x="594.70" y="271.00" xlink:href="#hd"/>
<path d="M598.20 271.00v-21.00" class="stroke"/>
<use x="620.70" y="265.00" xlink:href="#hd"/>
<path d="M624.20 265.00v-21.00" class="stroke"/>
<use x="646.60" y="259.00" xlink:href="#hd"/>
<path d="M650.10 259.00v-21.00" class="stroke"/>
<use x="672.80" y="253.00" xlink:href="#hd"/>
<path d="M669.30 253.00v21.00" class="stroke"/>
<g transform="rotate(270)">
<use x="-298.00" y="384.80" xlink:href="#ltr"/>
<use x="-292.00" y="384.80" xlink:href="#ltr"/>
<use x="-286.00" y="384.80" xlink:href="#ltr"/>
<use x="-280.00" y="384.80" xlink:href="#ltr"/>
<use x="-274.00" y="384.80" xlink:href="#ltr"/>
<use x="-268.00" y="384.80" xlink:href="#ltr"/>
<use x="-262.00" y="384.80" xlink:href="#ltr"/>
<use x="-256.00" y="384.80" xlink:href="#ltr"/>
</g>
<g transform="rotate(270)">
<use x="-283.00" y="472.40" xlink:href="#ltr"/>
<use x="-277.00" y="472.40" xlink:href="#ltr"/>
<use x="-271.00" y="472.40" xlink:href="#ltr"/>
<use x="-265.00" y="472.40" xlink:href="#ltr"/>
<use x="-259.00" y="472.40" xlink:href="#ltr"/>
<use x="-253.00" y="472.40" xlink:href="#ltr"/>
<use x="-247.00" y="472.40" xlink:href="#ltr"/>
<use x="-241.00" y="472.40" xlink:href="#ltr"/>
</g>
</g>
<g stroke-width="0.70" style="font:italic 11.00px Times">
<path class="stroke" stroke-width="1"
	d="M10.00 406.00v-82.00"/>
<g transform="translate(10.00,324.00) scale(1,0.82)">
	<use xlink:href="#brace"/>
</g>
<path class="stroke" stroke-width="1"
	d="M140.40 348.00v-24.00"/>
<path class="stroke" stroke-width="1"
	d="M140.40 406.00v-24.00"/>
<path class="stroke" stroke-width="1"
	d="M247.20 348.00v-24.00"/>
<path class="stroke" stroke-width="1"
	d="M247.20 406.00v-24.00"/>
<path class="stroke" stroke-width="1"
	d="M325.40 348.00v-24.00"/>
<path class="stroke" stroke-width="1"
	d="M325.40 406.00v-24.00"/>
<path class="stroke" stroke-width="1"
	d="M433.80 348.00v-24.00"/>
<path class="stroke" stroke-width="1"
	d="M433.80 406.00v-24.00"/>
<path class="stroke" stroke-width="1"
	d="M490.10 348.00v-24.00"/>
<path class="stroke" stroke-width="1"
	d="M490.10 406.00v-24.00"/>
<path class="stroke" stroke-width="1"
	d="M596.90 348.00v-24.00"/>
<path class="stroke" stroke-width="1"
	d="M596.90 406.00v-24.00"/>
<path class="stroke" stroke-width="1"
	d="M691.60 348.00v-24.00"/>
<path class="stroke" stroke-width="1"
	d="M691.60 406.00v-24.00"/>
<path d="m10.00 348.00
	h681.60
	M10.00 342.00
	h681.60
	M10.00 336.00
	h681.60
	M10.00 330.00
	h681.60
	M10.00 324.00
	h681.60
	" class="stroke"/>
<path d="m10.00 406.00
	h681.60
	M10.00 400.00
	h681.60
	M10.00 394.00
	h681.60
	M10.00 388.00
	h681.60
	M10.00 382.00
	h681.60
	" class="stroke"/>
</g>
<g stroke-width="0.70" style="font:bold 13.00px Times">
<text x="48.50" y="319.40">iii<tspan
	 style="font:italic 11.00px Times">m⁷</tspan></text>
</g>
<g stroke-width="0.70" style="font:bold 13.00px Times">
<text x="157.40" y="311.40">vi<tspan
	 style="font:italic 11.00px Times">m⁷¹</tspan></text>
</g>
<g stroke-width="0.70" style="font:bold 13.00px Times">
<text x="264.20" y="314.40">iii<tspan
	 style="font:italic 11.00px Times">m⁷</tspan></text>
</g>
<g stroke-width="0.70" style="font:bold 13.00px Times">
<text x="342.40" y="317.40">IV<tspan
	 style="font:italic 11.00px Times">Δ⁷</tspan></text>
</g>
<g stroke-width="0.70" style="font:bold 13.00px Times">
<text x="450.80" y="317.40">iii<tspan
	 style="font:italic 11.00px Times">m⁷</tspan></text>
</g>
<g stroke-width="0.70" style="font:bold 13.00px Times">
<text x="507.10" y="311.40">vi<tspan
	 style="font:italic 11.00px Times">m⁷¹</tspan></text>
</g>
<g stroke-width="0.70" style="font:bold 13.00px Times">
<text x="614.30" y="314.40">I<tspan
	 style="font:italic 11.00px Times">Δ⁷¹</tspan></text>
</g>
<g stroke-width="0.70" style="font:italic 11.00px Times">
<use x="22.00" y="342.00" xlink:href="#tclef"/>
<use x="37.00" y="336.00" xlink:href="#ft0"/>
<use x="57.50" y="339.00" xlink:href="#HD"/>
<use x="165.40" y="339.00" xlink:href="#hd"/>
<path d="M168.90 339.00v-21.00" class="stroke"/>
<use x="187.50" y="339.00" xlink:href="#hd"/>
<path d="M191.00 339.00v-21.00" class="stroke"/>
<use x="210.20" y="330.00" xlink:href="#hd"/>
<path d="M206.70 330.00v21.00" class="stroke"/>
<use x="230.40" y="339.00" xlink:href="#hd"/>
<path d="M233.90 339.00v-21.00" class="stroke"/>
<use x="272.20" y="342.00" xlink:href="#Hd"/>
<circle class="fill" cx="280.90" cy="339.00" r="1.2"/>
<path d="M275.70 342.00v-21.00" class="stroke"/>
<use x="308.60" y="345.00" xlink:href="#hd"/>
<path d="M312.10 345.00v-21.00" class="stroke"/>
<use x="350.40" y="351.00" xlink:href="#hd"/>
<path d="M353.90 351.00v-21.00" class="stroke"/>
<use x="372.60" y="345.00" xlink:href="#hd"/>
<path d="M376.10 345.00v-21.00" class="stroke"/>
<use x="394.70" y="339.00" xlink:href="#hd"/>
<path d="M398.20 339.00v-21.00" class="stroke"/>
<use x="416.90" y="345.00" xlink:href="#hd"/>
<path d="M420.40 345.00v-21.00" class="stroke"/>
<use x="459.80" y="348.00" xlink:href="#HD"/>
<use x="515.10" y="339.00" xlink:href="#hd"/>
<path d="M518.60 339.00v-21.00" class="stroke"/>
<use x="537.20" y="339.00" xlink:href="#hd"/>
<path d="M540.70 339.00v-21.00" class="stroke"/>
<use x="559.90" y="330.00" xlink:href="#hd"/>
<path d="M556.40 330.00v21.00" class="stroke"/>
<use x="580.10" y="339.00" xlink:href="#hd"/>
<path d="M583.60 339.00v-21.00" class="stroke"/>
<use x="621.90" y="342.00" xlink:href="#Hd"/>
<path d="M625.40 342.00v-21.00" class="stroke"/>
<use x="652.60" y="348.00" xlink:href="#hd"/>
<path d="M656.10 348.00v-21.00" class="stroke"/>
<use x="674.70" y="345.00" xlink:href="#hd"/>
<path d="M678.20 345.00v-21.00" class="stroke"/>
<use x="22.00" y="388.00" xlink:href="#bclef"/>
<use x="37.00" y="400.00" xlink:href="#ft0"/>
<use x="56.50" y="403.00" xlink:href="#hd"/>
<path d="M60.00 403.00v-21.00" class="stroke"/>
<use x="78.70" y="397.00" xlink:href="#hd"/>
<path d="M82.20 397.00v-21.00" class="stroke"/>
<use x="101.40" y="391.00" xlink:href="#hd"/>
<path d="M97.90 391.00v21.00" class="stroke"/>
<use x="123.50" y="385.00" xlink:href="#hd"/>
<path d="M120.00 385.00v21.00" class="stroke"/>
<use x="166.40" y="412.00" xlink:href="#hl1"/>
<use x="166.40" y="376.00" xlink:href="#hl1"/>
<use x="166.40" y="415.00" xlink:href="#HD"/>
<use x="166.40" y="394.00" xlink:href="#HD"/>
<use x="166.40" y="388.00" xlink:href="#HD"/>
<use x="166.40" y="382.00" xlink:href="#HD"/>
<use x="166.40" y="376.00" xlink:href="#HD"/>
<use x="273.20" y="412.00" xlink:href="#hl1"/>
<use x="273.20" y="418.00" xlink:href="#hl1"/>
<use x="273.20" y="424.00" xlink:href="#hl1"/>
<use x="273.20" y="424.00" xlink:href="#HD"/>
<use x="273.20" y="403.00" xlink:href="#HD"/>
<use x="273.20" y="397.00" xlink:href="#HD"/>
<use x="273.20" y="391.00" xlink:href="#HD"/>
<use x="273.20" y="385.00" xlink:href="#HD"/>
<use x="351.40" y="412.00" xlink:href="#hl1"/>
<use x="351.40" y="418.00" xlink:href="#hl1"/>
<use x="351.40" y="421.00" xlink:href="#HD"/>
<use x="351.40" y="400.00" xlink:href="#HD"/>
<use x="351.40" y="394.00" xlink:href="#HD"/>
<use x="351.40" y="388.00" xlink:href="#HD"/>
<use x="351.40" y="382.00" xlink:href="#HD"/>
<use x="459.80" y="412.00" xlink:href="#hl1"/>
<use x="459.80" y="418.00" xlink:href="#hl1"/>
<use x="459.80" y="424.00" xlink:href="#hl1"/>
<use x="459.80" y="424.00" xlink:href="#HD"/>
<use x="459.80" y="403.00" xlink:href="#HD"/>
<use x="459.80" y="397.00" xlink:href="#HD"/>
<use x="459.80" y="391.00" xlink:href="#HD"/>
<use x="459.80" y="385.00" xlink:href="#HD"/>
<use x="516.10" y="412.00" xlink:href="#hl1"/>
<use x="516.10" y="376.00" xlink:href="#hl1"/>
<use x="516.10" y="415.00" xlink:href="#HD"/>
<use x="516.10" y="394.00" xlink:href="#HD"/>
<use x="516.10" y="388.00" xlink:href="#HD"/>
<use x="516.10" y="382.00" xlink:href="#HD"/>
<use x="516.10" y="376.00" xlink:href="#HD"/>
<use x="622.90" y="412.00" xlink:href="#hl1"/>
<use x="622.90" y="418.00" xlink:href="#hl1"/>
<use x="622.90" y="424.00" xlink:href="#hl1"/>
<use x="622.90" y="430.00" xlink:href="#hl1"/>
<use x="622.90" y="430.00" xlink:href="#HD"/>
<use x="622.90" y="409.00" xlink:href="#HD"/>
<use x="622.90" y="403.00" xlink:href="#HD"/>
<use x="622.90" y="397.00" xlink:href="#HD"/>
<use x="622.90" y="391.00" xlink:href="#HD"/>
<g transform="rotate(270)">
<use x="-418.00" y="152.90" xlink:href="#ltr"/>
<use x="-412.00" y="152.90" xlink:href="#ltr"/>
<use x="-406.00" y="152.90" xlink:href="#ltr"/>
<use x="-400.00" y="152.90" xlink:href="#ltr"/>
<use x="-394.00" y="152.90" xlink:href="#ltr"/>
<use x="-388.00" y="152.90" xlink:href="#ltr"/>
<use x="-382.00" y="152.90" xlink:href="#ltr"/>
<use x="-376.00" y="152.90" xlink:href="#ltr"/>
</g>
<g transform="rotate(270)">
<use x="-427.00" y="259.70" xlink:href="#ltr"/>
<use x="-421.00" y="259.70" xlink:href="#ltr"/>
<use x="-415.00" y="259.70" xlink:href="#ltr"/>
<use x="-409.00" y="259.70" xlink:href="#ltr"/>
<use x="-403.00" y="259.70" xlink:href="#ltr"/>
<use x="-397.00" y="259.70" xlink:href="#ltr"/>
<use x="-391.00" y="259.70" xlink:href="#ltr"/>
<use x="-385.00" y="259.70" xlink:href="#ltr"/>
</g>
<g transform="rotate(270)">
<use x="-424.00" y="337.90" xlink:href="#ltr"/>
<use x="-418.00" y="337.90" xlink:href="#ltr"/>
<use x="-412.00" y="337.90" xlink:href="#ltr"/>
<use x="-406.00" y="337.90" xlink:href="#ltr"/>
<use x="-400.00" y="337.90" xlink:href="#ltr"/>
<use x="-394.00" y="337.90" xlink:href="#ltr"/>
<use x="-388.00" y="337.90" xlink:href="#ltr"/>
<use x="-382.00" y="337.90" xlink:href="#ltr"/>
</g>
<g transform="rotate(270)">
<use x="-427.00" y="446.30" xlink:href="#ltr"/>
<use x="-421.00" y="446.30" xlink:href="#ltr"/>
<use x="-415.00" y="446.30" xlink:href="#ltr"/>
<use x="-409.00" y="446.30" xlink:href="#ltr"/>
<use x="-403.00" y="446.30" xlink:href="#ltr"/>
<use x="-397.00" y="446.30" xlink:href="#ltr"/>
<use x="-391.00" y="446.30" xlink:href="#ltr"/>
<use x="-385.00" y="446.30" xlink:href="#ltr"/>
</g>
<g transform="rotate(270)">
<use x="-418.00" y="502.60" xlink:href="#ltr"/>
<use x="-412.00" y="502.60" xlink:href="#ltr"/>
<use x="-406.00" y="502.60" xlink:href="#ltr"/>
<use x="-400.00" y="502.60" xlink:href="#ltr"/>
<use x="-394.00" y="502.60" xlink:href="#ltr"/>
<use x="-388.00" y="502.60" xlink:href="#ltr"/>
<use x="-382.00" y="502.60" xlink:href="#ltr"/>
<use x="-376.00" y="502.60" xlink:href="#ltr"/>
</g>
<g transform="rotate(270)">
<use x="-433.00" y="609.40" xlink:href="#ltr"/>
<use x="-427.00" y="609.40" xlink:href="#ltr"/>
<use x="-421.00" y="609.40" xlink:href="#ltr"/>
<use x="-415.00" y="609.40" xlink:href="#ltr"/>
<use x="-409.00" y="609.40" xlink:href="#ltr"/>
<use x="-403.00" y="609.40" xlink:href="#ltr"/>
<use x="-397.00" y="609.40" xlink:href="#ltr"/>
<use x="-391.00" y="609.40" xlink:href="#ltr"/>
</g>
</g>
<g stroke-width="0.70" style="font:italic 11.00px Times">
<path class="stroke" stroke-width="1"
	d="M10.00 541.00v-82.00"/>
<g transform="translate(10.00,459.00) scale(1,0.82)">
	<use xlink:href="#brace"/>
</g>
<path class="stroke" stroke-width="1"
	d="M126.50 483.00v-24.00"/>
<path class="stroke" stroke-width="1"
	d="M126.50 541.00v-24.00"/>
<path d="m10.00 483.00
	h116.50
	M10.00 477.00
	h116.50
	M10.00 471.00
	h116.50
	M10.00 465.00
	h116.50
	M10.00 459.00
	h116.50
	" class="stroke"/>
<path d="m10.00 541.00
	h116.50
	M10.00 535.00
	h116.50
	M10.00 529.00
	h116.50
	M10.00 523.00
	h116.50
	M10.00 517.00
	h116.50
	" class="stroke"/>
</g>
<g stroke-width="0.70" style="font:bold 13.00px Times">
<text x="62.50" y="454.40">vi<tspan
	 style="font:italic 11.00px Times">m⁷</tspan></text>
</g>
<g stroke-width="0.70" style="font:italic 11.00px Times">
<use x="22.00" y="477.00" xlink:href="#tclef"/>
<use x="37.00" y="471.00" xlink:href="#ft0"/>
<use x="71.50" y="486.00" xlink:href="#HD"/>
<use x="71.50" y="465.00" xlink:href="#HD"/>
<use x="22.00" y="523.00" xlink:href="#bclef"/>
<use x="37.00" y="535.00" xlink:href="#ft0"/>
<use x="71.50" y="547.00" xlink:href="#hl1"/>
<use x="71.50" y="511.00" xlink:href="#hl1"/>
<use x="71.50" y="550.00" xlink:href="#HD"/>
<use x="71.50" y="529.00" xlink:href="#HD"/>
<use x="71.50" y="523.00" xlink:href="#HD"/>
<use x="71.50" y="517.00" xlink:href="#HD"/>
<use x="71.50" y="511.00" xlink:href="#HD"/>
<g transform="rotate(270)">
<use x="-553.00" y="58.00" xlink:href="#ltr"/>
<use x="-547.00" y="58.00" xlink:href="#ltr"/>
<use x="-541.00" y="58.00" xlink:href="#ltr"/>
<use x="-535.00" y="58.00" xlink:href="#ltr"/>
<use x="-529.00" y="58.00" xlink:href="#ltr"/>
<use x="-523.00" y="58.00" xlink:href="#ltr"/>
<use x="-517.00" y="58.00" xlink:href="#ltr"/>
<use x="-511.00" y="58.00" xlink:href="#ltr"/>
</g>
</g>
</svg>
